<?xml version="1.0" encoding="UTF-8"?>
<svg id="Capa_2" xmlns="http://www.w3.org/2000/svg" version="1.1" viewBox="0 0 270 500">
  <!-- Generator: Adobe Illustrator 29.6.1, SVG Export Plug-In . SVG Version: 2.1.1 Build 9)  -->
  <defs>
    <style>
      .st0 {
        fill: #fff;
      }
    </style>
  </defs>
  <path class="st0" d="M247.1,19.4c-1.5,0-2.7,2-2.7,4.4v175.9c0,122.5-62.3,222.2-138.9,222.2h-12.2v-12.3h12.2c72.4,0,131.3-94.2,131.3-209.9V23.8c0-2.4-1.2-4.4-2.7-4.4s-2.7,2-2.7,4.4v175.9c0,110.9-56.4,201.2-125.8,201.2h-12.2v-12.3h12.2c65.1,0,118.1-84.7,118.1-188.9V23.8c0-2.4-1.2-4.4-2.7-4.4s-2.7,2-2.7,4.4v175.9c0,99.3-50.5,180.1-112.6,180.1h-12.2v-12.3h12.2c57.9,0,105-75.3,105-167.9V23.8c0-2.4-1.2-4.4-2.7-4.4s-2.7,2-2.7,4.4v175.9c0,87.7-44.6,159.1-99.5,159.1h-12.2v-12.3h12.2c50.6,0,91.8-65.9,91.8-146.8V23.8c0-2.4-1.2-4.4-2.7-4.4s-2.7,2-2.7,4.4v175.9c0,76.1-38.7,138.1-86.3,138.1h-12.2v-12.3h12.2c43.4,0,78.7-56.4,78.7-125.8V23.8c0-2.4-1.2-4.4-2.7-4.4s-2.7,2-2.7,4.4v42.5h-12.2c-79.6,0-144.4,103.6-144.4,231v175.9c0,2.4,1.2,4.4,2.7,4.4s2.7-2,2.7-4.4v-175.9c0-122.5,62.3-222.2,138.9-222.2h12.2v12.3h-12.2c-72.4,0-131.3,94.2-131.3,209.9v175.9c0,2.4,1.2,4.4,2.7,4.4s2.7-2,2.7-4.4v-175.9c0-110.9,56.4-201.2,125.8-201.2h12.2v12.3h-12.2c-65.1,0-118.1,84.7-118.1,188.9v175.9c0,2.4,1.2,4.4,2.7,4.4s2.7-2,2.7-4.4v-175.9c0-99.3,50.5-180.1,112.6-180.1h12.2v12.3h-12.2c-57.9,0-105,75.3-105,167.9v175.9c0,2.4,1.2,4.4,2.7,4.4s2.7-2,2.7-4.4v-175.9c0-87.7,44.6-159.1,99.5-159.1h12.2v12.3h-12.2c-50.6,0-91.8,65.9-91.8,146.8v175.9c0,2.4,1.2,4.4,2.7,4.4s2.7-2,2.7-4.4v-175.9c0-76.1,38.7-138.1,86.3-138.1h12.2v12.3h-12.2c-43.4,0-78.7,56.4-78.7,125.8v175.9c0,2.4,1.2,4.4,2.7,4.4s2.7-2,2.7-4.4v-42.5h12.2c79.6,0,144.4-103.6,144.4-231V23.8c0-2.4-1.2-4.4-2.7-4.4h0ZM135.9,202c16,0,29,20.8,29,46.5s-13,46.5-29,46.5-29-20.8-29-46.5,13-46.5,29-46.5ZM178.6,180.2v19.5c0,19.5-3,37.9-8.3,54.1.1-1.7.2-3.5.2-5.3,0-30.4-15.5-55.2-34.5-55.2s-2.2,0-3.3.3c10.1-8.5,21.6-13.3,33.8-13.3h12.2,0ZM93.2,297.3c0-19.5,3-37.9,8.3-54.1-.1,1.7-.2,3.5-.2,5.3,0,30.4,15.5,55.2,34.5,55.2s2.2,0,3.3-.3c-10.1,8.5-21.6,13.3-33.8,13.3h-12.2v-19.5h0Z"/>
  <path class="st0" d="M135.9,282.7c11.8,0,21.4-15.3,21.4-34.2s-9.6-34.2-21.4-34.2-21.4,15.3-21.4,34.2,9.6,34.2,21.4,34.2ZM135.9,223.1c8.8,0,15.9,11.4,15.9,25.4s-7.1,25.4-15.9,25.4-15.9-11.4-15.9-25.4,7.1-25.4,15.9-25.4Z"/>
  <path class="st0" d="M135.9,261.6c4.5,0,8.2-5.9,8.2-13.2s-3.7-13.2-8.2-13.2-8.2,5.9-8.2,13.2,3.7,13.2,8.2,13.2ZM135.9,244.1c1.5,0,2.7,2,2.7,4.4s-1.2,4.4-2.7,4.4-2.7-2-2.7-4.4,1.2-4.4,2.7-4.4Z"/>
</svg>