<?xml version="1.0" encoding="UTF-8"?><svg id="Capa_2" xmlns="http://www.w3.org/2000/svg" viewBox="0 0 1794.04 201.78"><g id="Capa_1-2"><g id="uuid-54b955f7-2477-439b-bc01-dfba8a7ae9bb"><g id="DIGITALES"><path id="D" d="M920.36,7.82h42.09c48.6.53,72.79,46.83,72.79,93.13s-24.19,92.59-72.79,93.13h-42.09V7.82ZM944.77,37.62v126.39h16.67c64.25,0,64.45-126.39,0-126.39,0,0-16.67,0-16.67,0Z"/><path id="I" d="M1051.71,7.82h24.4v186.25h-24.4V7.82Z"/><path id="G" d="M1092.58,100.95c0-48.69,24.4-97.11,73.4-97.11,15.05,0,30.3,6.92,42.49,18.89l-14.24,26.07c-5.9-6.92-16.06-13.31-28.06-13.31-64.04,0-64.04,130.91,0,130.91,11.38,0,18.91-3.99,23.79-8.51v-35.66h-33.34v-29.8h57.95v83.28c-11.79,12.51-29.89,22.35-48.6,22.35-49,0-73.4-48.69-73.4-97.11h0Z"/><path id="I-2" d="M1232.26,7.82h24.4v186.25h-24.4V7.82Z"/><path id="T" d="M1268.24,37.62V7.82h117.11v29.8h-46.56v156.45h-24.4V37.62h-46.15,0Z"/><path id="A" d="M1367.67,194.07L1433.96,5.16h4.07l66.08,188.91h-25.21l-9.15-26.07h-67.5l-9.15,26.07h-25.42ZM1459.17,138.2l-23.18-65.99-23.38,65.99h46.56,0Z"/><path id="LE" d="M1515.69,7.82h24.4v156.45h135.21v29.8h-159.61V7.82h0ZM1675.3,7.82v29.8h-67.7v48.43h53.07v29.8h-53.07v22.08h-24.4V7.82h92.11,0Z"/><path id="S" d="M1705.8,149.91c8.74,15.7,23.38,20.49,37.41,20.49,10.78,0,26.84-5.32,26.84-22.88,0-35.66-79.1-31.93-79.1-92.86,0-36.45,23.18-54.55,48.8-54.55,18.5,0,36.8,10.38,50.02,27.41l-16.06,23.41c-9.35-12.24-21.55-19.42-34.77-19.42-12.2,0-23.99,5.59-23.99,24.21,0,31.93,79.1,27.67,79.1,92.86,0,36.18-27.25,53.21-51.64,53.21-20.94,0-42.49-9.84-55.51-32.46l18.91-19.42h0Z"/></g></g><g id="uuid-56b55e17-88db-4897-8fa1-1caaee2a2b41"><g id="EXPERIENCIAS"><path id="EX" d="M0,7.72h87.8l20.7,63.33,20.7-63.33h19.45l-30.42,93.13,30.42,93.13h-19.45l-20.7-63.33-20.7,63.33H0V7.72ZM16.67,37.52v48.43h49.46v29.8H16.67v48.43h61.41l20.7-63.33-20.7-63.33H16.67Z"/><path id="P" d="M156.56,7.72h32.09c21.95,0,32.93,30.07,32.93,60.4s-10.97,60.13-32.93,60.13h-15.42v65.72h-16.67V7.72h0ZM188.66,98.18c21.12,0,20.98-60.4,0-60.4h-15.42v60.4h15.42Z"/><path id="ER" d="M295.21,7.72v29.8h-46.26v126.65h46.26v29.8h-62.93V7.72h62.93ZM260.89,89.67h52.65V7.72h30.7c38.34,0,43.2,85.68,14.45,107.23l28.2,79.02h-19.86l-26.26-74.24h-10.56v74.24h-16.67v-74.24h-52.65v-30.07h0ZM344.25,89.67c21.12,0,20.98-51.89,0-51.89h-14.03v51.89h14.03Z"/><path id="I-3" d="M394.82,7.72h16.67v186.25h-16.67V7.72Z"/><path id="E" d="M487.89,7.72v29.8h-46.26v48.43h36.26v29.8h-36.26v48.43h46.26v29.8h-62.93V7.72h62.93Z"/><path id="N" d="M504.28,7.72l56.96,117.34V7.72h16.67v186.25h-5.56l-57.1-117.6v117.6h-16.67V7.72h5.7,0Z"/><path id="C" d="M639.32,3.72c10.28,0,20.7,6.92,29.03,18.89l-9.73,26.07c-4.03-6.92-10.97-13.31-19.17-13.31-43.76,0-43.76,130.91,0,130.91,10.42,0,16.11-7.45,19.17-12.77l9.73,25.54c-7.92,12.51-16.25,18.89-29.03,18.89-66.82,0-66.82-194.23,0-194.23h0Z"/><path id="I-2-2" d="M680.44,7.72h16.67v186.25h-16.67V7.72Z"/><path id="A-2" d="M705.02,193.96L750.31,5.06h2.78l45.15,188.91h-17.23l-6.25-26.07h-46.12l-6.25,26.07h-17.37ZM767.54,138.09l-15.84-65.99-15.98,65.99h31.81Z"/><path id="S-2" d="M813.38,149.8c5.97,15.7,15.98,20.49,25.56,20.49,7.36,0,18.34-5.32,18.34-22.88,0-35.66-54.04-31.93-54.04-92.86,0-36.45,15.84-54.55,33.34-54.55,12.64,0,25.15,10.38,34.17,27.41l-10.97,23.41c-6.39-12.24-14.72-19.42-23.76-19.42-8.34,0-16.39,5.59-16.39,24.21,0,31.93,54.04,27.67,54.04,92.86,0,36.18-18.62,53.21-35.28,53.21-14.31,0-29.03-9.84-37.93-32.46l12.92-19.42h0Z"/></g></g></g></svg>