<?xml version="1.0" encoding="UTF-8"?>
<svg id="Capa_2" xmlns="http://www.w3.org/2000/svg" viewBox="0 0 118.88 136.7">
  <defs>
    <style>
      .cls-1 {
        fill: #ffffffff;
      }
    </style>
  </defs>
  <g id="Layer_1">
    <path class="cls-1"
      d="M74.49,57.31c8.08-7.3,18.78-11.74,30.53-11.74h0c-25.17,0-45.57-20.4-45.57-45.57h0c0,25.17-20.4,45.57-45.57,45.57h0c11.74,0,22.44,4.44,30.52,11.74-.77.86-1.55,1.7-2.36,2.52-10.78,10.78-25.63,17.42-42.05,17.42,16.42,0,31.27,6.66,42.05,17.42,10.73,10.76,17.4,25.63,17.4,42.05,0-16.42,6.66-31.29,17.42-42.05,10.76-10.76,25.63-17.42,42.02-17.42-17.65,0-33.5-7.71-44.39-19.93ZM73.29,91.11c-8.55,8.55-13.85,20.37-13.85,33.43,0-13.05-5.3-24.88-13.85-33.43-8.55-8.57-20.37-13.87-33.43-13.87,14.29,0,27.09-6.35,35.76-16.38,7.16,8.05,11.52,18.65,11.52,30.28h0c0-11.62,4.35-22.21,11.51-30.26.75.86,1.52,1.71,2.32,2.52,8.55,8.55,20.37,13.85,33.45,13.85-13.08,0-24.9,5.3-33.45,13.87Z" />
  </g>
</svg>