<?xml version="1.0" encoding="UTF-8"?><svg id="Capa_2" xmlns="http://www.w3.org/2000/svg" viewBox="0 0 302.76 111.23"><defs><style>.cls-1{fill:none;stroke:#000;stroke-miterlimit:10;stroke-width:2px;}</style></defs><g id="Capa_1-2"><g id="EXPERIENCIAS"><path id="EX" class="cls-1" d="M1,2.95h30.23l7.13,15.99,7.13-15.99h6.7l-10.47,23.52,10.47,23.52h-6.7l-7.13-15.99-7.13,15.99H1V2.95ZM6.74,10.47v12.23h17.03v7.53H6.74v12.23h21.14l7.13-15.99-7.13-15.99H6.74Z"/><path id="P" class="cls-1" d="M54.9,2.95h11.05c7.56,0,11.34,7.59,11.34,15.25s-3.78,15.18-11.34,15.18h-5.31v16.6h-5.74V2.95h0ZM65.95,25.79c7.27,0,7.22-15.25,0-15.25h-5.31v15.25h5.31Z"/><path id="ER" class="cls-1" d="M102.63,2.95v7.53h-15.93v31.98h15.93v7.53h-21.66V2.95h21.66ZM90.81,23.64h18.12V2.95h10.57c13.2,0,14.87,21.64,4.97,27.08l9.71,19.96h-6.84l-9.04-18.75h-3.64v18.75h-5.74v-18.75h-18.12v-7.59h0ZM119.51,23.64c7.27,0,7.22-13.1,0-13.1h-4.83v13.1h4.83Z"/><path id="I-3" class="cls-1" d="M136.92,2.95h5.74v47.03h-5.74V2.95Z"/><path id="E" class="cls-1" d="M168.96,2.95v7.53h-15.93v12.23h12.48v7.53h-12.48v12.23h15.93v7.53h-21.66V2.95h21.66Z"/><path id="N" class="cls-1" d="M174.6,2.95l19.61,29.63V2.95h5.74v47.03h-1.91l-19.66-29.7v29.7h-5.74V2.95h1.96Z"/><path id="C" class="cls-1" d="M221.09,1.94c3.54,0,7.13,1.75,9.99,4.77l-3.35,6.58c-1.39-1.75-3.78-3.36-6.6-3.36-15.06,0-15.06,33.06,0,33.06,3.59,0,5.55-1.88,6.6-3.22l3.35,6.45c-2.73,3.16-5.59,4.77-9.99,4.77-23,0-23-49.05,0-49.05h0Z"/><path id="I-2-2" class="cls-1" d="M235.24,2.95h5.74v47.03h-5.74V2.95Z"/><path id="A-2" class="cls-1" d="M243.7,49.98l15.59-47.7h.96l15.54,47.71h-5.93l-2.15-6.58h-15.88l-2.15,6.58h-5.98ZM265.23,35.87l-5.45-16.66-5.5,16.66h10.95Z"/><path id="S-2" class="cls-1" d="M281.01,38.83c2.06,3.96,5.5,5.17,8.8,5.17,2.53,0,6.31-1.34,6.31-5.78,0-9.01-18.6-8.06-18.6-23.45,0-9.2,5.45-13.78,11.48-13.78,4.35,0,8.66,2.62,11.76,6.92l-3.78,5.91c-2.2-3.09-5.07-4.9-8.18-4.9-2.87,0-5.64,1.41-5.64,6.11,0,8.06,18.6,6.99,18.6,23.45,0,9.14-6.41,13.44-12.15,13.44-4.93,0-9.99-2.48-13.06-8.2l4.45-4.9h0Z"/></g><g id="DIGITALES"><path id="D" class="cls-1" d="M35.95,59.26h11.12c12.84.14,19.23,12.31,19.23,24.47s-6.39,24.33-19.23,24.47h-11.12v-48.94ZM42.4,67.09v33.21h4.4c16.98,0,17.03-33.21,0-33.21,0,0-4.4,0-4.4,0Z"/><path id="I" class="cls-1" d="M70.66,59.26h6.45v48.94h-6.45v-48.94Z"/><path id="G" class="cls-1" d="M81.46,83.74c0-12.79,6.45-25.52,19.39-25.52,3.98,0,8.01,1.82,11.23,4.96l-3.76,6.85c-1.56-1.82-4.24-3.5-7.41-3.5-16.92,0-16.92,34.4,0,34.4,3.01,0,5-1.05,6.29-2.24v-9.37h-8.81v-7.83h15.31v21.88c-3.12,3.29-7.9,5.87-12.84,5.87-12.95,0-19.39-12.79-19.39-25.52h0Z"/><path id="I-2" class="cls-1" d="M118.37,59.26h6.45v48.94h-6.45v-48.94Z"/><path id="T" class="cls-1" d="M127.87,67.09v-7.83h30.94v7.83h-12.3v41.11h-6.45v-41.11h-12.19,0Z"/><path id="A" class="cls-1" d="M154.15,108.2l17.52-49.64h1.08l17.46,49.64h-6.66l-2.42-6.85h-17.84l-2.42,6.85h-6.72ZM178.32,93.52l-6.12-17.34-6.18,17.34h12.3Z"/><path id="LE" class="cls-1" d="M193.26,59.26h6.45v41.11h35.73v7.83h-42.17v-48.94h0ZM235.43,59.26v7.83h-17.89v12.73h14.02v7.83h-14.02v5.8h-6.45v-34.19h24.34,0Z"/><path id="S" class="cls-1" d="M243.49,96.6c2.31,4.13,6.18,5.38,9.89,5.38,2.85,0,7.09-1.4,7.09-6.01,0-9.37-20.9-8.39-20.9-24.4,0-9.58,6.12-14.33,12.89-14.33,4.89,0,9.72,2.73,13.22,7.2l-4.24,6.15c-2.47-3.22-5.69-5.1-9.19-5.1-3.22,0-6.34,1.47-6.34,6.36,0,8.39,20.9,7.27,20.9,24.4,0,9.51-7.2,13.98-13.65,13.98-5.53,0-11.23-2.59-14.67-8.53l5-5.1h0Z"/></g></g></svg>