<?xml version="1.0" encoding="UTF-8"?>
<svg id="Capa_2" xmlns="http://www.w3.org/2000/svg" xmlns:xlink="http://www.w3.org/1999/xlink"
  viewBox="0 0 146.8 154.03">
  <defs>
    <style>
      .cls-1 {
        fill: url(#Degradado_sin_nombre_6);
      }

      .cls-2 {
        fill: url(#Degradado_sin_nombre_16-16);
      }

      .cls-3 {
        fill: url(#Degradado_sin_nombre_16-5);
      }

      .cls-4 {
        fill: url(#Degradado_sin_nombre_13-2);
      }

      .cls-5 {
        fill: url(#Degradado_sin_nombre_16);
      }

      .cls-6 {
        fill: url(#Degradado_sin_nombre_16-9);
      }

      .cls-7 {
        fill: url(#Degradado_sin_nombre_16-12);
      }

      .cls-8 {
        fill: url(#Degradado_sin_nombre_16-3);
      }

      .cls-9 {
        fill: url(#Degradado_sin_nombre_6-3);
      }

      .cls-10 {
        fill: url(#Degradado_sin_nombre_16-7);
      }

      .cls-11 {
        fill: url(#Degradado_sin_nombre_16-6);
      }

      .cls-12 {
        fill: url(#Degradado_sin_nombre_3-2);
      }

      .cls-13 {
        fill: url(#Degradado_sin_nombre_2);
      }

      .cls-14 {
        fill: url(#Degradado_sin_nombre_16-11);
      }

      .cls-15 {
        fill: url(#Degradado_sin_nombre_16-8);
      }

      .cls-16 {
        fill: url(#Degradado_sin_nombre_35);
      }

      .cls-17 {
        fill: url(#Degradado_sin_nombre_13);
      }

      .cls-18 {
        fill: url(#Degradado_sin_nombre_16-2);
      }

      .cls-19 {
        fill: url(#Degradado_sin_nombre_16-15);
      }

      .cls-20 {
        fill: url(#Degradado_sin_nombre_16-13);
      }

      .cls-21 {
        fill: url(#Degradado_sin_nombre_3);
      }

      .cls-22 {
        fill: url(#Degradado_sin_nombre_16-4);
      }

      .cls-23 {
        fill: url(#Degradado_sin_nombre_16-14);
      }

      .cls-24 {
        fill: url(#Degradado_sin_nombre_6-2);
      }

      .cls-25 {
        fill: url(#Degradado_sin_nombre_16-10);
      }

      .cls-26 {
        fill: url(#Degradado_sin_nombre_12);
      }
    </style>
    <linearGradient id="Degradado_sin_nombre_2" x1="73.4" y1="163.62" x2="73.4" y2="2.4" gradientUnits="userSpaceOnUse">
      <stop offset="0" stop-color="#c9ccd1" />
      <stop offset="1" stop-color="#fff" />
    </linearGradient>
    <linearGradient id="Degradado_sin_nombre_12" x1="73.4" y1="147.13" x2="73.4" y2="8.18"
      gradientUnits="userSpaceOnUse">
      <stop offset="0" stop-color="#1f1f1f" />
      <stop offset="1" stop-color="#0a0a0a" />
    </linearGradient>
    <linearGradient id="Degradado_sin_nombre_35" x1="439.06" y1="-192.52" x2="450.82" y2="-219.46"
      gradientTransform="translate(-185.74 513.57) rotate(-32.19)" gradientUnits="userSpaceOnUse">
      <stop offset="0" stop-color="#0087ff" />
      <stop offset="1" stop-color="#0ed6ff" />
    </linearGradient>
    <linearGradient id="Degradado_sin_nombre_13" x1="439.19" y1="-191.98" x2="442.59" y2="-199.87"
      gradientTransform="translate(-185.74 513.57) rotate(-32.19)" gradientUnits="userSpaceOnUse">
      <stop offset="0" stop-color="#1f1f1f" />
      <stop offset="1" stop-color="#0a0a0a" />
    </linearGradient>
    <linearGradient id="Degradado_sin_nombre_16" x1="443.05" y1="-217.54" x2="443.05" y2="-212.67"
      gradientTransform="translate(-185.74 513.57) rotate(-32.19)" gradientUnits="userSpaceOnUse">
      <stop offset="0" stop-color="#3700ff" />
      <stop offset="1" stop-color="#ff00e6" />
    </linearGradient>
    <linearGradient id="Degradado_sin_nombre_16-2" x1="451.9" y1="-219.81" x2="451.9" y2="-215.67"
      xlink:href="#Degradado_sin_nombre_16" />
    <linearGradient id="Degradado_sin_nombre_16-3" x1="453.18" y1="-202.47" x2="453.18" y2="-193.82"
      xlink:href="#Degradado_sin_nombre_16" />
    <linearGradient id="Degradado_sin_nombre_16-4" x1="-3.66" y1="164.3" x2="-3.66" y2="173.12"
      gradientTransform="translate(79.49 -67.98) rotate(-2.19)" xlink:href="#Degradado_sin_nombre_16" />
    <linearGradient id="Degradado_sin_nombre_16-5" x1="-152.75" y1="430.8" x2="-152.75" y2="436.67"
      gradientTransform="translate(317.64 -280.78) rotate(12.81)" xlink:href="#Degradado_sin_nombre_16" />
    <linearGradient id="Degradado_sin_nombre_6" x1="74.07" y1="90.59" x2="75.95" y2="143.97"
      gradientUnits="userSpaceOnUse">
      <stop offset="0" stop-color="#ff560e" />
      <stop offset="1" stop-color="#ffbf00" />
    </linearGradient>
    <linearGradient id="Degradado_sin_nombre_6-2" x1="29.11" y1="92.17" x2="30.99" y2="145.55"
      xlink:href="#Degradado_sin_nombre_6" />
    <linearGradient id="Degradado_sin_nombre_3" x1="1789.16" y1="186.48" x2="1819.56" y2="116.86"
      gradientTransform="translate(1911.26 118.49) rotate(-172.93) scale(1 -1)" gradientUnits="userSpaceOnUse">
      <stop offset="0" stop-color="#0087ff" />
      <stop offset="1" stop-color="#00f2ff" />
    </linearGradient>
    <linearGradient id="Degradado_sin_nombre_13-2" x1="1789.51" y1="187.89" x2="1798.31" y2="167.46"
      gradientTransform="translate(1911.26 118.49) rotate(-172.93) scale(1 -1)" xlink:href="#Degradado_sin_nombre_13" />
    <linearGradient id="Degradado_sin_nombre_3-2" x1="1830.54" y1="184.2" x2="1895.89" y2="184.2"
      xlink:href="#Degradado_sin_nombre_3" />
    <linearGradient id="Degradado_sin_nombre_6-3" x1="68.71" y1="90.78" x2="70.59" y2="144.16"
      xlink:href="#Degradado_sin_nombre_6" />
    <linearGradient id="Degradado_sin_nombre_16-6" x1="1799.47" y1="121.97" x2="1799.47" y2="134.5"
      gradientTransform="translate(1911.26 118.49) rotate(-172.93) scale(1 -1)" xlink:href="#Degradado_sin_nombre_16" />
    <linearGradient id="Degradado_sin_nombre_16-7" x1="1822.39" y1="115.88" x2="1822.39" y2="126.59"
      gradientTransform="translate(1911.26 118.49) rotate(-172.93) scale(1 -1)" xlink:href="#Degradado_sin_nombre_16" />
    <linearGradient id="Degradado_sin_nombre_16-8" x1="1825.69" y1="160.73" x2="1825.69" y2="183.12"
      gradientTransform="translate(1911.26 118.49) rotate(-172.93) scale(1 -1)" xlink:href="#Degradado_sin_nombre_16" />
    <linearGradient id="Degradado_sin_nombre_16-9" x1="1355.45" y1="-213.32" x2="1355.45" y2="-190.62"
      gradientTransform="translate(1424.54 -297.13) rotate(157.07) scale(1 -1)" xlink:href="#Degradado_sin_nombre_16" />
    <linearGradient id="Degradado_sin_nombre_16-10" x1="-155.16" y1="707.93" x2="-155.16" y2="734.72"
      gradientTransform="translate(590.86 -399.62) rotate(37.07)" xlink:href="#Degradado_sin_nombre_16" />
    <linearGradient id="Degradado_sin_nombre_16-11" x1="1862.49" y1="152.05" x2="1862.49" y2="168.66"
      gradientTransform="translate(1911.26 118.49) rotate(-172.93) scale(1 -1)" xlink:href="#Degradado_sin_nombre_16" />
    <linearGradient id="Degradado_sin_nombre_16-12" x1="1836.82" y1="182.53" x2="1836.82" y2="197.61"
      gradientTransform="translate(1911.26 118.49) rotate(-172.93) scale(1 -1)" xlink:href="#Degradado_sin_nombre_16" />
    <linearGradient id="Degradado_sin_nombre_16-13" x1="1892.23" y1="183.3" x2="1892.23" y2="198.1"
      gradientTransform="translate(1911.26 118.49) rotate(-172.93) scale(1 -1)" xlink:href="#Degradado_sin_nombre_16" />
    <linearGradient id="Degradado_sin_nombre_16-14" x1="-148.96" y1="676.83" x2="-148.96" y2="687.75"
      gradientTransform="translate(540.62 -333.27) rotate(37.07) scale(1 .9)" xlink:href="#Degradado_sin_nombre_16" />
    <linearGradient id="Degradado_sin_nombre_16-15" x1="1845.93" y1="206.05" x2="1845.93" y2="219.29"
      gradientTransform="translate(1911.26 118.49) rotate(-172.93) scale(1 -1)" xlink:href="#Degradado_sin_nombre_16" />
    <linearGradient id="Degradado_sin_nombre_16-16" x1="1049.54" y1="-268.43" x2="1049.54" y2="-253.25"
      gradientTransform="translate(1116.95 -387.64) rotate(142.07) scale(1 -1)" xlink:href="#Degradado_sin_nombre_16" />
  </defs>
  <g id="OBJECTS">
    <path class="cls-13"
      d="M56.43,153.68c-1.91-.24-3.82-.6-5.68-1.07-5.2-1.42-9.91-3.53-14.05-6.31-4-2.62-7.72-6.23-11.04-10.73-5.23-7.22-8.19-15.88-8.57-25.06-.05-1.22-.06-2.31-.04-3.33.02-1.31.11-2.66.27-4.01-6.42-4.4-11.34-9.5-14.29-14.83-.96-1.73-1.71-3.58-2.23-5.51-1.53-5.75-.82-11.77,1.99-16.97.4-.75.86-1.5,1.4-2.31,3.55-5.36,9.01-9.92,16.69-13.95,2.61-1.37,5.27-2.61,7.85-3.8.88-.4,1.71-.79,2.53-1.18,2.63-1.24,5.43-2.61,8.03-4.23.72-.44,1.39-.88,2.07-1.32,2.12-1.38,4.46-2.91,7.15-4.03.08-.03.14-.06.2-.08.16-.06.32-.13.48-.18,3.02-1.13,6.12-1.54,8.97-1.19,1.75.22,3.39.72,4.9,1.49,3.66,1.85,6.45,5.3,7.94,9.73.45-1.09.91-2.19,1.37-3.28,1.38-3.28,2.81-6.67,3.87-10,.94-2.95,1.24-6.11,1.56-9.47.12-1.28.24-2.56.4-3.85.12-.94.23-1.86.39-2.79.52-3.03,1.82-7.35,5.03-10.74,1.12-1.22,2.47-2.25,3.96-3.02,2.66-1.4,5.78-1.94,9.01-1.54,3.78.47,7.51,2.19,10.5,4.85,2.72,2.4,4.96,5.44,7.06,9.56.95,1.83,1.79,3.71,2.61,5.51.4.89.78,1.73,1.17,2.57.46.97,1.02,1.95,1.66,2.9,2.03,2.99,4.9,5.44,8.32,7.09.54.26,1.1.52,1.66.79,3.83,1.8,8.58,4.03,12.02,8.29,4.04,5.02,5.88,11.96,5.06,19.04-1.56,13.54-11.1,24.81-25.67,30.49-.14,6.43-1.32,12.83-3.47,18.63-3.12,8.51-7.99,16.38-14.47,23.36-2.99,3.24-6.22,6.23-9.86,9.12-2.09,1.65-3.79,2.88-5.52,4.01l-3.02,1.83c-.94.57-1.82.97-2.6,1.33-.28.13-.57.26-.85.4-7.72,3.53-16.24,4.82-24.72,3.77ZM56.03,131.42c.89.2,1.79.35,2.69.46,4.11.51,8.16.1,11.74-1.19.15-.11.29-.22.44-.31.48-.31,1.05-.91,1.72-1.61l.49-.51.14-.2c.64-.91,1.23-1.77,1.52-2.46l.11-.24c.19-.42.37-.85.53-1.3-4.68-1.12-8.51-3.81-10.93-7.72-1.11-1.79-1.8-3.76-2.05-5.74-5.45,2.72-12.04,3.69-19.29,2.79l-.35-.04c-1.81-.24-3.65-.59-5.49-1.05,1.02,3.95,2.77,7.52,5.14,10.43,3.23,4.16,8.04,7.22,13.6,8.7ZM99.59,99.94c.6-1.69,1.08-3.43,1.45-5.22-1.81-.04-3.61-.17-5.4-.39-.32-.04-.63-.08-.95-.13.21.17.42.35.62.53.16.13.32.27.47.42.01.01.03.03.06.06" />
    <path class="cls-26"
      d="M56.81,150.61c-1.79-.22-3.57-.56-5.3-1-4.84-1.32-9.23-3.29-13.09-5.88-3.71-2.43-7.17-5.8-10.27-10-4.86-6.71-7.61-14.78-7.97-23.35-.05-1.16-.06-2.17-.03-3.11.04-1.84.2-3.72.5-5.6-6.72-4.31-11.97-9.52-14.91-14.82-.84-1.51-1.49-3.14-1.95-4.82-1.32-4.97-.71-10.18,1.72-14.69.36-.66.77-1.34,1.25-2.07,3.26-4.91,8.35-9.14,15.55-12.92,2.55-1.35,5.2-2.57,7.75-3.75.84-.39,1.68-.77,2.51-1.16,2.72-1.28,5.62-2.7,8.35-4.4.74-.46,1.46-.92,2.18-1.39,2.05-1.33,4.16-2.71,6.59-3.72.05-.02.1-.04.14-.06.13-.05.26-.1.4-.15,2.57-.97,5.18-1.32,7.54-1.03,1.39.17,2.69.57,3.87,1.17,3.75,1.89,6.38,5.98,7.2,11.2.59,3.81.24,7.55-.1,11.16-.32,3.43-.63,6.68-.12,9.77.15.88.34,1.66.55,2.37.44,1.52.98,2.98,1.55,4.52,1.04,2.81,2.11,5.71,2.52,8.87.88-.99,2.03-1.84,3.44-2.25-1.07-.95-2.05-1.98-2.92-3.1-1.28-1.64-2.29-3.36-3.07-5.26-3.58-8.55-1.05-17.82,1.17-24.05.42-1.15.85-2.27,1.29-3.38.66-1.65,1.35-3.31,2.05-4.96,1.41-3.35,2.86-6.81,3.96-10.26,1.04-3.26,1.36-6.59,1.69-10.12.12-1.25.24-2.51.39-3.77.11-.89.22-1.76.37-2.65.45-2.61,1.54-6.3,4.23-9.13.9-.98,1.96-1.8,3.13-2.4,2.12-1.12,4.62-1.54,7.21-1.22,3.16.39,6.3,1.85,8.83,4.1,2.42,2.14,4.44,4.89,6.35,8.65.92,1.79,1.75,3.63,2.56,5.41.39.87.78,1.73,1.17,2.57.53,1.13,1.17,2.25,1.91,3.34,2.33,3.43,5.62,6.24,9.52,8.13.56.27,1.13.54,1.7.8,3.71,1.74,7.93,3.72,10.92,7.43,3.52,4.38,5.12,10.48,4.4,16.75-1.77,15.33-14.02,24.69-25.69,28.69.11,6.8-1.01,13.57-3.28,19.72-2.98,8.13-7.64,15.65-13.84,22.33-2.89,3.13-6,6.01-9.52,8.8-2.01,1.59-3.64,2.77-5.28,3.84l-2.94,1.78c-.78.47-1.55.83-2.29,1.17-.31.14-.62.29-.93.44-7.14,3.26-15.05,4.45-22.97,3.47h0ZM55.3,134.42c1,.23,2.03.4,3.04.53,4.79.59,9.51.06,13.67-1.53.08-.06.16-.12.23-.19.11-.1.23-.18.35-.26.77-.5,1.46-1.23,2.26-2.06.22-.23.43-.45.65-.68l.28-.4c.73-1.05,1.42-2.04,1.84-3.05.02-.04.03-.08.05-.12.71-1.55,1.24-3.29,1.57-5.16-.39-.02-.78-.06-1.16-.11-4.78-.59-8.68-2.97-10.98-6.69-1.55-2.5-2.07-5.42-1.44-8.03.31-1.25.87-2.32,1.5-3.24-.86.85-1.79,1.64-2.78,2.35-5.43,3.98-12.66,5.55-20.88,4.53l-.34-.04c-3.21-.42-6.49-1.22-9.79-2.37.09.91.22,1.81.38,2.71.97,5.34,3.14,10.2,6.27,14.05,3.63,4.67,9.03,8.11,15.27,9.75ZM88.67,119.78c0,.71-.02,1.4-.06,2.1.4-.39.79-.77,1.16-1.16,1.08-1.11,2.11-2.24,3.08-3.38-1.26.95-2.67,1.78-4.18,2.44ZM93.68,97.42c2.45,2.28,4.1,5.04,4.65,7.78.02.09.04.2.06.31.08.5.13.92.15,1.34.04.94-.05,1.9-.26,2.84-.02.09-.04.18-.06.27,1.26-2.07,2.34-4.18,3.25-6.32,1.64-3.77,2.72-7.81,3.23-12.06-2.89.15-5.79.04-8.66-.31-3.65-.45-7.15-1.32-10.34-2.55.46,1.01.76,2.03,1.04,2.94.09.29.17.57.26.86.22.69,1.07,1.18,2.43,1.92.61.33,1.24.67,1.87,1.09.7.47,1.39,1,2.05,1.58.1.08.19.16.29.25.02.02.04.04.07.07Z" />
    <path class="cls-16"
      d="M95.44,106.98c.03.65-.02,1.32-.18,2.03-.22.96-.63,1.9-1.25,2.79-2.07,2.97-5.6,5.1-9.04,6.05-5.49,1.51-12.07.36-15.23-4.76-1.02-1.65-1.53-3.76-1.06-5.67.43-1.77,1.72-3.11,2.83-4.48,1.4-1.73,2.13-3.8,2.33-6,.23-2.58-.3-5.18.76-7.65.59-1.36,1.88-2.73,3.42-2.93,1.55-.2,3.15,1.01,4.01,2.17,1.1,1.47,1.47,3.21,2.01,4.92.81,2.57,3.52,3.31,5.54,4.65,2.9,1.92,5.71,5.27,5.87,8.89Z" />
    <path class="cls-17"
      d="M91.38,110.22c.6,2.4-2.69,5.29-7.36,6.46-4.67,1.17-8.93.17-9.54-2.23-.6-2.4,2.69-5.29,7.36-6.46,4.67-1.17,8.93-.17,9.54,2.23Z" />
    <path class="cls-5"
      d="M76.17,94.1c.74,1.18.39,2.74-.79,3.49-.5.32-1.08.44-1.63.37.09-.55.14-1.1.14-1.67,0-1.09-.05-2.24,0-3.37.89-.05,1.79.37,2.29,1.18Z" />
    <path class="cls-18"
      d="M82.65,89.5s-.09.07-.14.1c-.98.62-2.28.32-2.89-.66-.47-.74-.41-1.66.07-2.33.98.38,1.81,1.18,2.43,2.07.19.27.36.55.53.82Z" />
    <path class="cls-8"
      d="M95.44,106.98c-1.92.96-4.31.33-5.48-1.53-1.24-1.98-.65-4.59,1.33-5.83.04-.03.09-.06.14-.08,2.08,2.1,3.89,4.54,4.01,7.44Z" />
    <path class="cls-22"
      d="M86,100.2c.09,2.37-1.51,4.36-3.58,4.44-2.07.08-3.82-1.78-3.91-4.16-.09-2.37,1.51-4.36,3.58-4.44,2.07-.08,3.82,1.78,3.91,4.16Z" />
    <path class="cls-3"
      d="M74.97,108.56c-.35,1.54-1.72,2.54-3.07,2.24-1.34-.31-2.15-1.8-1.8-3.34.35-1.54,1.72-2.54,3.07-2.24,1.34.31,2.15,1.8,1.8,3.34Z" />
    <path class="cls-1"
      d="M65.31,139.88l1.8,5.41c1.79-.86,3.64-1.53,5.34-2.56,1.67-1.1,3.42-2.07,4.86-3.52,1.58-1.26,2.78-2.91,4.02-4.48,1.02-1.73,2.06-3.45,2.65-5.35,1.34-3.73,1.77-7.66,1.55-11.45-.04-.57-.09-1.12-.13-1.66-.31-2.94-.91-5.8-1.87-8.6-.55.06-1.11.18-1.67.32-.08.03-.15.04-.23.06.75,2.86,1.1,5.92,1.11,8.9,0,.34-.01.69-.02,1.03-.11,3.49-.82,6.94-2.23,9.98-.64,1.55-1.65,2.88-2.59,4.25-1.18,1.18-2.21,2.44-3.62,3.35-1.24,1.08-2.8,1.75-4.25,2.56-1.49.71-3.18,1.16-4.71,1.76Z" />
    <path class="cls-24"
      d="M32.11,84.05c.6-.64,1.58-.82,2.36-.33.87.52,1.14,1.68.62,2.55l-.02.03c-4.59,7.53-5.86,16.54-4.34,24.86l-7.46-.93c-.04-.97-.06-1.93-.03-2.9.16-8.54,3.22-17.09,8.88-23.3Z" />
    <path class="cls-21"
      d="M73.55,73.95c.65,1.56,1.51,3.07,2.66,4.54,1.57,2.01,3.56,3.76,5.99,5.16,8.11,4.68,18.72,5.8,27.82,4.24,14.52-2.49,28.67-12.4,30.46-27.87.58-4.98-.54-10.48-3.73-14.45-2.95-3.66-7.44-5.4-11.55-7.39-4.36-2.11-8.06-5.23-10.73-9.18-.81-1.19-1.53-2.44-2.15-3.77-1.2-2.56-2.34-5.29-3.68-7.89-1.48-2.9-3.24-5.61-5.65-7.74-3.41-3.03-8.55-4.56-12.58-2.44-.88.45-1.65,1.07-2.3,1.77-1.87,1.98-2.95,4.76-3.42,7.51-.14.84-.24,1.67-.35,2.5-.59,4.89-.68,9.67-2.21,14.46-1.68,5.28-4.05,10.3-6.09,15.44-.43,1.07-.85,2.16-1.25,3.25-2.56,7.19-4.13,14.9-1.23,21.83Z" />
    <path class="cls-4"
      d="M86.61,77.08c1.23,6.28,12.12,9.44,24.33,7.05,12.21-2.39,21.11-9.41,19.89-15.69-1.23-6.28-12.12-9.44-24.33-7.05-12.21,2.39-21.11,9.41-19.89,15.69Z" />
    <path class="cls-12"
      d="M6.75,81.2c.39,1.41.94,2.81,1.68,4.14,5.6,10.11,20.87,19.98,35.15,21.87,6.98.92,13.73-.08,19.01-3.93,1.09-.78,2.12-1.68,3.07-2.73,3.32-3.65,5.04-8.76,4.6-13.7,0-.08-.02-.17-.03-.25-.47-4.63-2.74-8.9-4.02-13.36-.28-.91-.48-1.84-.65-2.78-1.13-6.92,1.29-14.03.22-20.94-.57-3.59-2.32-7.29-5.56-8.93-2.75-1.41-6.1-1.08-8.99.03-.14.04-.26.1-.37.14-2.98,1.24-5.58,3.2-8.32,4.89-2.78,1.73-5.71,3.19-8.68,4.58-3.38,1.58-6.83,3.1-10.13,4.85-5.57,2.92-10.96,6.69-14.41,11.9-.39.59-.77,1.2-1.11,1.83-2.11,3.91-2.56,8.28-1.46,12.4Z" />
    <path class="cls-9"
      d="M30.72,111.17c1.04,5.71,3.38,11.1,6.91,15.45,4.21,5.43,10.37,9.09,16.93,10.81,6.65,1.5,13.77,1.11,20-1.7.78-.37,1.58-.67,2.31-1.1l2.2-1.3c1.52-.93,3.07-2.11,4.55-3.18,2.97-2.23,5.8-4.65,8.35-7.28,5.13-5.26,9.48-11.33,12.31-18.04,2.75-6.32,3.97-13.18,3.8-20.26,0-.39-.01-.79-.04-1.18-.27-7.15-1.8-14.36-3.73-21.53.71-.17,1.44-.33,2.18-.48.56-.1,1.11-.2,1.67-.3,2.87,6.87,5.16,14.12,6.14,21.77.02.15.04.3.06.46,1.03,8.03.19,16.61-2.69,24.4-2.91,7.95-7.52,15.17-13.2,21.3-2.85,3.09-5.92,5.89-9.18,8.49-1.64,1.29-3.25,2.5-5.04,3.66l-2.85,1.72c-.95.57-1.99.99-2.99,1.48-8.12,3.71-17.51,4.44-26.14,2.24-4.29-1.17-8.43-2.97-12.13-5.46-3.74-2.45-6.88-5.7-9.5-9.27-4.64-6.41-7.05-14.03-7.37-21.65l7.46.93Z" />
    <path class="cls-11"
      d="M104.57,22.81c-.44,3.56,2.1,6.81,5.65,7.26,1.52.19,3-.17,4.21-.91-.8-1.18-1.52-2.42-2.14-3.75-1.19-2.55-2.33-5.26-3.66-7.85-2.14.85-3.76,2.81-4.06,5.25Z" />
    <path class="cls-10"
      d="M84.32,18.96c.14.06.29.07.44.09,2.97.37,5.68-1.75,6.05-4.72.28-2.25-.87-4.34-2.72-5.39-1.87,1.98-2.95,4.76-3.42,7.51-.14.84-.24,1.67-.35,2.5Z" />
    <path class="cls-15"
      d="M73.55,73.95c5.56.15,10.45-3.95,11.15-9.59.74-5.99-3.52-11.47-9.51-12.21-.13-.02-.28-.03-.41-.03-2.56,7.19-4.13,14.9-1.23,21.83Z" />
    <path class="cls-6"
      d="M88.34,47.77c2.38,5.63,8.29,8.51,13.19,6.44,4.9-2.07,6.95-8.32,4.57-13.95-2.38-5.63-8.29-8.51-13.19-6.44-4.9,2.07-6.95,8.32-4.57,13.95Z" />
    <path class="cls-25"
      d="M42.06,88.29c-4.35,5.76-11.94,7.35-16.96,3.57-5.02-3.79-5.56-11.53-1.21-17.29,4.35-5.76,11.94-7.35,16.96-3.57,5.02,3.79,5.56,11.53,1.21,17.29Z" />
    <path class="cls-14"
      d="M33.87,50.23c.63,1.41,1.62,2.67,2.92,3.66,4.26,3.23,10.43,2.27,13.75-2.15,2.55-3.37,2.71-7.77.7-11.11-.14.04-.26.1-.37.14-2.98,1.24-5.58,3.2-8.32,4.89-2.78,1.73-5.71,3.19-8.68,4.58Z" />
    <path class="cls-7"
      d="M62.02,86.58c2.45,1.86,5.72,1.87,8.24.27,0-.08-.02-.17-.03-.25-.47-4.63-2.74-8.9-4.02-13.36-2.08.14-4.12,1.17-5.48,3.01-2.49,3.29-1.92,7.93,1.28,10.33Z" />
    <path class="cls-20"
      d="M6.75,81.2c2.06-.14,4.08-1.18,5.45-2.99,2.49-3.29,1.92-7.93-1.28-10.33-.5-.38-1.04-.67-1.59-.91-.39.59-.77,1.2-1.11,1.83-2.11,3.91-2.56,8.28-1.46,12.4Z" />
    <path class="cls-23"
      d="M56.13,68.57c-1.59,2.11-4.54,2.57-6.58,1.02-2.04-1.54-2.41-4.5-.82-6.61,1.59-2.11,4.54-2.57,6.58-1.02,2.04,1.54,2.41,4.5.82,6.61Z" />
    <path class="cls-19"
      d="M43.58,107.21c6.98.92,13.73-.08,19.01-3.93-.39-2.3-1.59-4.43-3.57-5.91-4.21-3.18-10.28-2.25-13.56,2.1-1.75,2.31-2.36,5.14-1.88,7.74Z" />
    <path class="cls-2"
      d="M123.22,55.19c2.51,3.23,6.83,4.06,9.64,1.88,2.81-2.19,3.05-6.58.54-9.8s-6.83-4.06-9.64-1.88-3.05,6.58-.54,9.8Z" />
  </g>
</svg>