<?xml version="1.0" encoding="UTF-8"?>
<svg id="Capa_2" xmlns="http://www.w3.org/2000/svg" xmlns:xlink="http://www.w3.org/1999/xlink"
  viewBox="0 0 109.44 136.39">
  <defs>
    <style>
      .cls-1 {
        stroke: url(#Degradado_sin_nombre_8-3);
      }

      .cls-1,
      .cls-2,
      .cls-3 {
        fill: none;
        stroke-linecap: round;
        stroke-linejoin: round;
        stroke-width: 3px;
      }

      .cls-4 {
        fill: url(#Degradado_sin_nombre_21-3);
      }

      .cls-2 {
        stroke: url(#Degradado_sin_nombre_8);
      }

      .cls-5 {
        fill: url(#Degradado_sin_nombre_2-4);
      }

      .cls-6 {
        fill: url(#Degradado_sin_nombre_21-2);
      }

      .cls-7 {
        fill: url(#Degradado_sin_nombre_2-6);
      }

      .cls-8 {
        fill: url(#Degradado_sin_nombre_2);
      }

      .cls-9 {
        fill: url(#Degradado_sin_nombre_8-4);
      }

      .cls-3 {
        stroke: url(#Degradado_sin_nombre_8-2);
      }

      .cls-10 {
        fill: url(#Degradado_sin_nombre_21);
      }

      .cls-11 {
        fill: url(#Degradado_sin_nombre_8-5);
      }

      .cls-12 {
        fill: url(#Degradado_sin_nombre_2-5);
      }

      .cls-13 {
        fill: url(#Degradado_sin_nombre_2-3);
      }

      .cls-14 {
        fill: url(#Degradado_sin_nombre_18);
      }

      .cls-15 {
        fill: url(#Degradado_sin_nombre_2-2);
      }

      .cls-16 {
        fill: url(#Degradado_sin_nombre_12);
      }
    </style>
    <linearGradient id="Degradado_sin_nombre_2" x1="54.72" y1="134.9" x2="54.72" y2="1.88"
      gradientUnits="userSpaceOnUse">
      <stop offset="0" stop-color="#c9ccd1" />
      <stop offset="1" stop-color="#fff" />
    </linearGradient>
    <linearGradient id="Degradado_sin_nombre_12" x1="54.72" y1="132.34" x2="54.72" y2="6.31"
      gradientUnits="userSpaceOnUse">
      <stop offset="0" stop-color="#1f1f1f" />
      <stop offset="1" stop-color="#0a0a0a" />
    </linearGradient>
    <linearGradient id="Degradado_sin_nombre_18" x1="56.98" y1="124.98" x2="56.98" y2="2.33"
      gradientTransform="translate(-2.38 5.62) rotate(-.13)" gradientUnits="userSpaceOnUse">
      <stop offset="0" stop-color="#8ad100" />
      <stop offset="1" stop-color="#dcf500" />
    </linearGradient>
    <linearGradient id="Degradado_sin_nombre_8" x1="39.18" y1="103.36" x2="74.81" y2="103.36"
      gradientTransform="translate(-2.38 5.62) rotate(-.13)" gradientUnits="userSpaceOnUse">
      <stop offset="0" stop-color="#141414" />
      <stop offset="1" stop-color="#141414" />
    </linearGradient>
    <linearGradient id="Degradado_sin_nombre_8-2" x1="35.45" y1="92.86" x2="45.9" y2="92.86"
      xlink:href="#Degradado_sin_nombre_8" />
    <linearGradient id="Degradado_sin_nombre_8-3" x1="1607.2" y1="93.59" x2="1617.65" y2="93.59"
      gradientTransform="translate(1683.36 1.01) rotate(179.87) scale(1 -1)" xlink:href="#Degradado_sin_nombre_8" />
    <linearGradient id="Degradado_sin_nombre_2-2" x1="511.98" y1="-896.15" x2="511.98" y2="-945.18"
      gradientTransform="translate(-94.58 1129.14) rotate(-23.98) scale(1.07 1)" xlink:href="#Degradado_sin_nombre_2" />
    <linearGradient id="Degradado_sin_nombre_21" x1="511.98" y1="-899.34" x2="511.98" y2="-941.92"
      gradientTransform="translate(-94.58 1129.14) rotate(-23.98) scale(1.07 1)" gradientUnits="userSpaceOnUse">
      <stop offset="0" stop-color="#0a0a0a" />
      <stop offset="1" stop-color="#1f1f1f" />
    </linearGradient>
    <linearGradient id="Degradado_sin_nombre_2-3" x1="4944.13" y1="1212.97" x2="4944.13" y2="1163.94"
      gradientTransform="translate(5393.93 1129.14) rotate(-156.02) scale(1.07 -1)"
      xlink:href="#Degradado_sin_nombre_2" />
    <linearGradient id="Degradado_sin_nombre_21-2" x1="4944.13" y1="1209.77" x2="4944.13" y2="1167.2"
      gradientTransform="translate(5393.93 1129.14) rotate(-156.02) scale(1.07 -1)"
      xlink:href="#Degradado_sin_nombre_21" />
    <linearGradient id="Degradado_sin_nombre_2-4" x1="282.67" y1="111.41" x2="282.67" y2="77.52"
      gradientTransform="translate(-257.84 -58.64) rotate(.06) scale(1.11 1)" xlink:href="#Degradado_sin_nombre_2" />
    <linearGradient id="Degradado_sin_nombre_21-3" x1="282.67" y1="109.2" x2="282.67" y2="79.77"
      gradientTransform="translate(-257.84 -58.64) rotate(.06) scale(1.11 1)" xlink:href="#Degradado_sin_nombre_21" />
    <linearGradient id="Degradado_sin_nombre_8-4" x1="5212.28" y1="49.16" x2="5215.4" y2="49.15"
      gradientTransform="translate(5076.27 1481.93) rotate(-165.04)" xlink:href="#Degradado_sin_nombre_8" />
    <linearGradient id="Degradado_sin_nombre_8-5" x1="211.93" y1="1385.55" x2="215.04" y2="1385.55"
      gradientTransform="translate(209.3 1481.93) rotate(-14.96) scale(1 -1)" xlink:href="#Degradado_sin_nombre_8" />
    <linearGradient id="Degradado_sin_nombre_2-5" x1="8.58" y1="41.72" x2="38.16" y2="9.21"
      xlink:href="#Degradado_sin_nombre_2" />
    <linearGradient id="Degradado_sin_nombre_2-6" x1="8.77" y1="41.89" x2="38.35" y2="9.37"
      xlink:href="#Degradado_sin_nombre_2" />
  </defs>
  <g id="OBJECTS">
    <path class="cls-8"
      d="M54.91,136.39c-3.53,0-6.94-1.03-9.87-3.01C-1.44,101.99-.26,59.77.08,54.55.12,24.54,24.56.07,54.59,0c30.03-.07,54.58,24.28,54.76,54.3.36,5.22,1.75,47.43-44.59,79.03-2.92,1.99-6.33,3.05-9.85,3.06Z" />
    <path class="cls-16"
      d="M54.9,133.53c-2.95,0-5.81-.86-8.26-2.52C.74,100.02,2.73,57.75,2.94,54.65c0-28.5,23.14-51.72,51.66-51.79,28.51-.07,51.77,23.05,51.9,51.55.23,3.1,2.41,45.36-43.34,76.56-2.45,1.67-5.3,2.55-8.25,2.56Z" />
    <path class="cls-14"
      d="M103.63,54.52c-.06-27.02-22.01-48.86-49.03-48.8-27.02.06-48.86,22.01-48.8,49.03,0,0-3.37,42.95,42.44,73.88,4.03,2.72,9.28,2.71,13.29-.03,45.67-31.15,42.1-74.08,42.1-74.08Z" />
    <path class="cls-2" d="M71.15,100.02c.02,9.71-7.26,17.6-16.27,17.62-9.01.02-16.33-7.83-16.36-17.54" />
    <path class="cls-3" d="M34.79,97.73s3.32,2.96,7.45-.02" />
    <path class="cls-1" d="M74.87,97.64s-3.3,2.98-7.45.02" />
    <path class="cls-15"
      d="M43.4,60.41c5.45,12.25,4.7,24.48-1.66,27.31-6.37,2.83-15.95-4.81-21.4-17.06-5.45-12.25-4.7-24.48,1.66-27.31,6.37-2.83,15.95,4.81,21.4,17.06Z" />
    <path class="cls-10"
      d="M40.52,61.69c4.73,10.64,4.69,20.99-.08,23.12s-12.48-4.79-17.21-15.43c-4.73-10.64-4.7-20.98.08-23.11,2.96-1.31,7.03.83,10.83,5.17l-4.27,7.16,7.27-3.16c1.22,1.88,2.37,3.98,3.38,6.25Z" />
    <path class="cls-13"
      d="M65.94,60.41c-5.45,12.25-4.7,24.48,1.66,27.31,6.37,2.83,15.95-4.81,21.4-17.06,5.45-12.25,4.7-24.48-1.66-27.31-6.37-2.83-15.95,4.81-21.4,17.06Z" />
    <path class="cls-6"
      d="M68.82,61.69c-4.73,10.64-4.69,20.99.08,23.12,4.78,2.12,12.48-4.79,17.21-15.43,4.73-10.64,4.7-20.98-.08-23.11-2.96-1.31-7.03.83-10.83,5.17l4.27,7.16-7.27-3.16c-1.22,1.88-2.37,3.98-3.38,6.25Z" />
    <path class="cls-5"
      d="M63.74,36.31c0,9.27-4.05,16.78-9.04,16.78-4.98,0-9.01-7.52-9-16.8,0-9.27,4.05-16.78,9.04-16.78,4.98,0,9.01,7.52,9,16.8Z" />
    <path class="cls-4"
      d="M61.49,36.3c0,8.05-3.05,14.58-6.78,14.57-3.73,0-6.75-6.54-6.75-14.59,0-8.05,3.04-14.57,6.78-14.57,2.31,0,4.35,2.5,5.57,6.31l-4.87,3.32,5.66.05c.25,1.53.39,3.18.39,4.9Z" />
    <path class="cls-9"
      d="M50.36,87.83c.43-1.59,1.44-2.7,2.28-2.48.83.22,1.16,1.69.74,3.28-.43,1.59-1.44,2.7-2.28,2.48-.83-.22-1.16-1.69-.74-3.28Z" />
    <path class="cls-11"
      d="M59.3,87.83c-.43-1.59-1.44-2.7-2.28-2.48-.83.22-1.16,1.69-.74,3.28.43,1.59,1.44,2.7,2.28,2.48.83-.22,1.16-1.69.74-3.28Z" />
    <path class="cls-12"
      d="M18.38,26.09c-.82,1.1-1.58,2.67-.71,3.73.54.65,1.54.76,2.34.49.8-.27,1.46-.85,2.09-1.42,5-4.48,10.01-8.95,15.01-13.43.78-.7,1.6-1.45,1.93-2.45.26-.78.09-2.23-.78-2.63-.89-.41-2,.48-2.76.89-2.24,1.21-4.4,2.59-6.44,4.12-4.05,3.03-7.67,6.64-10.69,10.71Z" />
    <path class="cls-7"
      d="M10.64,38.88c-.11.44-.21.91-.14,1.36.07.45.34.9.77,1.06.63.24,1.3-.19,1.81-.64,1.41-1.23,2.59-2.71,3.46-4.36.91-1.72,1.05-5.14-1.81-4.04-2.37.91-3.51,4.41-4.08,6.62Z" />
  </g>
</svg>