<?xml version="1.0" encoding="UTF-8"?>
<svg id="Capa_2" xmlns="http://www.w3.org/2000/svg" xmlns:xlink="http://www.w3.org/1999/xlink"
  viewBox="0 0 77.37 77.37">
  <defs>
    <style>
      .cls-1 {
        fill: url(#Degradado_sin_nombre_2);
      }

      .cls-2 {
        fill: url(#Degradado_sin_nombre_3);
      }
    </style>
    <linearGradient id="Degradado_sin_nombre_2" x1="38" y1="119.99" x2="39.12" y2="-14.09"
      gradientUnits="userSpaceOnUse">
      <stop offset="0" stop-color="#c9ccd1" />
      <stop offset="1" stop-color="#fff" />
    </linearGradient>
    <linearGradient id="Degradado_sin_nombre_3" x1="-826.59" y1="38.68" x2="-771.49" y2="38.68"
      gradientTransform="translate(837.72)" gradientUnits="userSpaceOnUse">
      <stop offset="0" stop-color="#0087ff" />
      <stop offset="1" stop-color="#00f2ff" />
    </linearGradient>
  </defs>
  <g id="OBJECTS">
    <path class="cls-1"
      d="M38.68,77.37c-3.12,0-6-1.7-7.5-4.45l-9.45-17.28-17.28-9.45c-2.74-1.5-4.45-4.37-4.45-7.5s1.71-6,4.45-7.5l17.28-9.45L31.18,4.45c1.5-2.74,4.37-4.45,7.5-4.45s6,1.7,7.5,4.45l9.45,17.28,17.28,9.45c2.74,1.5,4.45,4.37,4.45,7.5s-1.71,6-4.45,7.5l-17.28,9.45-9.45,17.28c-1.5,2.74-4.37,4.45-7.5,4.45Z" />
    <path class="cls-2"
      d="M40.77,12.37l8.23,15.04c.22.4.55.73.95.95l15.04,8.23c1.65.9,1.65,3.28,0,4.18l-15.04,8.23c-.4.22-.73.55-.95.95l-8.23,15.04c-.9,1.65-3.28,1.65-4.18,0l-8.23-15.04c-.22-.4-.55-.73-.95-.95l-15.04-8.23c-1.65-.9-1.65-3.28,0-4.18l15.04-8.23c.4-.22.73-.55.95-.95l8.23-15.04c.9-1.65,3.28-1.65,4.18,0Z" />
  </g>
</svg>