<?xml version="1.0" encoding="UTF-8"?>
<svg id="Capa_2" xmlns="http://www.w3.org/2000/svg" xmlns:xlink="http://www.w3.org/1999/xlink"
  viewBox="0 0 158.11 126.55">
  <defs>
    <style>
      .cls-1 {
        stroke: url(#Degradado_sin_nombre_8-3);
      }

      .cls-1,
      .cls-2,
      .cls-3 {
        fill: none;
        stroke-linecap: round;
        stroke-linejoin: round;
        stroke-width: 3px;
      }

      .cls-4 {
        fill: url(#Degradado_sin_nombre_19);
      }

      .cls-2 {
        stroke: url(#Degradado_sin_nombre_8);
      }

      .cls-5 {
        fill: url(#Degradado_sin_nombre_18-2);
      }

      .cls-6 {
        fill: url(#Degradado_sin_nombre_21-2);
      }

      .cls-7 {
        fill: url(#Degradado_sin_nombre_19-5);
      }

      .cls-8 {
        fill: url(#Degradado_sin_nombre_19-2);
      }

      .cls-9 {
        fill: url(#Degradado_sin_nombre_2);
      }

      .cls-3 {
        stroke: url(#Degradado_sin_nombre_8-2);
      }

      .cls-10 {
        fill: url(#Degradado_sin_nombre_21);
      }

      .cls-11 {
        fill: url(#Degradado_sin_nombre_19-4);
      }

      .cls-12 {
        fill: url(#Degradado_sin_nombre_2-3);
      }

      .cls-13 {
        fill: url(#Degradado_sin_nombre_19-3);
      }

      .cls-14 {
        fill: url(#Degradado_sin_nombre_10);
      }

      .cls-15 {
        fill: url(#Degradado_sin_nombre_18);
      }

      .cls-16 {
        fill: url(#Degradado_sin_nombre_15);
      }

      .cls-17 {
        fill: url(#Degradado_sin_nombre_2-2);
      }

      .cls-18 {
        fill: url(#Degradado_sin_nombre_12);
      }
    </style>
    <linearGradient id="Degradado_sin_nombre_2" x1="79.06" y1="126.18" x2="79.06" y2="-6.18"
      gradientUnits="userSpaceOnUse">
      <stop offset="0" stop-color="#c9ccd1" />
      <stop offset="1" stop-color="#fff" />
    </linearGradient>
    <linearGradient id="Degradado_sin_nombre_12" x1="79.06" y1="123.35" x2="79.06" y2="5.86"
      gradientUnits="userSpaceOnUse">
      <stop offset="0" stop-color="#1f1f1f" />
      <stop offset="1" stop-color="#0a0a0a" />
    </linearGradient>
    <linearGradient id="Degradado_sin_nombre_18" x1="43.97" y1="91.09" x2="17.63" y2="118.22"
      gradientUnits="userSpaceOnUse">
      <stop offset="0" stop-color="#8ad100" />
      <stop offset="1" stop-color="#dcf500" />
    </linearGradient>
    <linearGradient id="Degradado_sin_nombre_19" x1="21.23" y1="125.91" x2="21.76" y2="108.35"
      gradientUnits="userSpaceOnUse">
      <stop offset="0" stop-color="#dcf500" />
      <stop offset="1" stop-color="#8ad100" />
    </linearGradient>
    <linearGradient id="Degradado_sin_nombre_18-2" x1="111.59" y1="87.19" x2="134.51" y2="115.64"
      xlink:href="#Degradado_sin_nombre_18" />
    <linearGradient id="Degradado_sin_nombre_19-2" x1="79.72" y1="8.91" x2="79.72" y2="138.06"
      xlink:href="#Degradado_sin_nombre_19" />
    <linearGradient id="Degradado_sin_nombre_2-2" x1="58.74" y1="56.24" x2="58.74" y2="12.81"
      xlink:href="#Degradado_sin_nombre_2" />
    <linearGradient id="Degradado_sin_nombre_21" x1="63.77" y1="51.64" x2="63.77" y2="9.78"
      gradientUnits="userSpaceOnUse">
      <stop offset="0" stop-color="#0a0a0a" />
      <stop offset="1" stop-color="#1f1f1f" />
    </linearGradient>
    <linearGradient id="Degradado_sin_nombre_2-3" x1="99.37" y1="56.24" x2="99.37" y2="12.81"
      xlink:href="#Degradado_sin_nombre_2" />
    <linearGradient id="Degradado_sin_nombre_21-2" x1="104.41" x2="104.41" xlink:href="#Degradado_sin_nombre_21" />
    <linearGradient id="Degradado_sin_nombre_8" x1="50.32" y1="75.63" x2="108.59" y2="75.63"
      gradientUnits="userSpaceOnUse">
      <stop offset="0" stop-color="#141414" />
      <stop offset="1" stop-color="#141414" />
    </linearGradient>
    <linearGradient id="Degradado_sin_nombre_8-2" x1="46.27" y1="86.82" x2="56.88" y2="86.82"
      xlink:href="#Degradado_sin_nombre_8" />
    <linearGradient id="Degradado_sin_nombre_8-3" x1="1689.41" y1="86.86" x2="1700.01" y2="86.86"
      gradientTransform="translate(1802.69) rotate(-180) scale(1 -1)" xlink:href="#Degradado_sin_nombre_8" />
    <linearGradient id="Degradado_sin_nombre_15" x1="112.52" y1="67.65" x2="129.39" y2="67.65"
      gradientUnits="userSpaceOnUse">
      <stop offset="0" stop-color="#fb00ff" />
      <stop offset="1" stop-color="#ff0062" />
    </linearGradient>
    <linearGradient id="Degradado_sin_nombre_10" x1="30.05" y1="67.64" x2="46.39" y2="67.64"
      gradientUnits="userSpaceOnUse">
      <stop offset="0" stop-color="#ff0062" />
      <stop offset="1" stop-color="#fb00ff" />
    </linearGradient>
    <linearGradient id="Degradado_sin_nombre_19-3" x1="136.23" y1="129.4" x2="136.76" y2="111.83"
      xlink:href="#Degradado_sin_nombre_19" />
    <linearGradient id="Degradado_sin_nombre_19-4" x1="63.16" y1="127.19" x2="63.69" y2="109.62"
      xlink:href="#Degradado_sin_nombre_19" />
    <linearGradient id="Degradado_sin_nombre_19-5" x1="95.61" y1="128.17" x2="96.15" y2="110.6"
      xlink:href="#Degradado_sin_nombre_19" />
  </defs>
  <g id="OBJECTS">
    <path class="cls-9"
      d="M125,126.55c-2.67,0-5.26-1.09-7.13-3-.63-.65-1.16-1.37-1.59-2.13-.42.77-.95,1.49-1.58,2.13-1.86,1.91-4.46,3-7.13,3h-23.23c-1.62,0-3.21-.4-4.63-1.14-1.42.74-3,1.14-4.63,1.14h-23.23c-2.67,0-5.27-1.09-7.13-3-1.03-1.05-1.79-2.28-2.25-3.62-.46,1.34-1.22,2.57-2.25,3.62-1.86,1.91-4.46,3-7.13,3H9.89c-2.67,0-5.27-1.09-7.13-3C.92,121.67-.06,119.2,0,116.6c.01-.62.07-1.24.18-1.85.81-4.75,4.35-8.63,8.96-9.9.01-2.63.17-4.99.32-6.88.14-1.56.28-2.9.45-4.13l.12-.93.04-.25c.02-.13.04-.26.07-.38l.18-.77.26-1.04c.22-.97.59-1.93.88-2.65l.04-.1c.26-.64.59-1.44,1.06-2.29,1.59-3.05,3.9-5.79,6.68-7.94,1.74-1.35,3.69-2.48,5.74-3.34-.52-3.08-.79-6.2-.79-9.31,0-4.21.47-8.39,1.4-12.43,1.81-7.93,5.44-15.49,10.53-21.94v-.13C36.13,13.62,46.27,0,58.74,0c2.25,0,4.47.43,6.6,1.29,4.28.57,8.11,3.43,10.95,8.15,1.15-.07,2.29-.11,3.41-.11,1.06,0,2.13.03,3.2.09,4.24-6.01,10.16-9.43,16.46-9.43,2.25,0,4.46.43,6.6,1.29,9.12,1.19,15.58,12.36,15.99,27.56,5.81,6.82,9.91,14.96,11.88,23.64.92,4.03,1.39,8.19,1.39,12.36,0,3.3-.3,6.61-.88,9.86,1.61.77,3.13,1.71,4.54,2.81,2.78,2.15,5.1,4.91,6.7,7.98.43.77.76,1.58,1.02,2.22l.05.12c.31.76.66,1.69.91,2.77l.21.82.2.84c.03.12.09.47.09.47,0,.04.15,1.13.15,1.13.16,1.21.31,2.54.44,4.05.21,2.58.31,4.84.33,6.93,4.6,1.28,8.15,5.15,8.95,9.9.1.61.16,1.23.18,1.85.06,2.6-.92,5.07-2.76,6.95-1.86,1.91-4.46,3-7.13,3h-23.23Z" />
    <path class="cls-18"
      d="M125,123.63c-1.89,0-3.72-.77-5.04-2.12-1.28-1.32-1.97-3.04-1.93-4.84.01-.47.06-.95.14-1.43.51-2.99,2.44-5.53,5.07-6.88-.63-1.45-1.25-3.01-1.9-4.75-.11-.29-.22-.59-.32-.89-1.06.52-1.97.95-2.85,1.35-2.4,1.08-4.63,1.98-6.77,2.75-.69.52-1.4,1.03-2.11,1.52,2.66,1.34,4.61,3.89,5.12,6.91.08.47.13.95.14,1.43.04,1.81-.64,3.53-1.93,4.84-1.32,1.35-3.15,2.12-5.04,2.12h-23.23c-1.7,0-3.35-.62-4.63-1.73-1.27,1.11-2.93,1.73-4.63,1.73h-23.23c-1.89,0-3.72-.77-5.04-2.12-1.28-1.31-1.97-3.03-1.93-4.84.01-.47.06-.95.14-1.42.51-3.02,2.46-5.57,5.12-6.91-.33-.23-.66-.46-.99-.69-.58-.18-1.16-.37-1.74-.57-2.34-.81-4.78-1.79-7.48-3-.88-.4-1.8-.83-2.85-1.35-.11.3-.21.59-.32.88-.65,1.74-1.27,3.31-1.9,4.76,2.63,1.35,4.56,3.89,5.07,6.88.08.47.13.95.14,1.43.04,1.81-.64,3.53-1.93,4.84-1.32,1.35-3.15,2.12-5.04,2.12H9.89c-1.89,0-3.72-.77-5.04-2.12-1.28-1.31-1.97-3.03-1.93-4.84.01-.47.06-.95.14-1.43.66-3.87,3.69-6.98,7.55-7.74.49-.1.99-.16,1.48-.18-.11-3.44.08-6.61.28-9.12.13-1.5.27-2.79.43-3.97l.12-.94.03-.19c0-.06.02-.12.03-.18l.17-.75.25-.99c.19-.81.49-1.6.76-2.26l.04-.09c.25-.61.53-1.3.93-2.01,1.39-2.69,3.43-5.12,5.9-7.02,2.16-1.68,4.67-2.97,7.3-3.75-.8-3.68-1.21-7.44-1.21-11.22,0-3.99.45-7.95,1.33-11.77,1.8-7.86,5.46-15.31,10.62-21.59-.01-.39-.02-.76-.02-1.13,0-15.13,8.83-27.43,19.69-27.43,2,0,3.97.41,5.86,1.22,3.95.37,7.51,3.35,10.05,8.35,1.69-.16,3.39-.25,5.06-.25,1.55,0,3.12.07,4.69.21,3.7-6.01,9.18-9.54,14.97-9.54,2,0,3.97.41,5.86,1.22,7.85.72,13.72,11.6,13.82,25.82,5.87,6.62,9.99,14.6,11.94,23.17.87,3.82,1.31,7.76,1.31,11.71s-.44,7.81-1.3,11.62c2.18.79,4.25,1.93,6.08,3.35,2.46,1.9,4.5,4.32,5.9,7.02.38.69.66,1.37.91,1.98l.05.12c.27.66.57,1.45.77,2.32l.22.88.18.79c.01.06.05.3.05.3l.14,1.03c.16,1.16.3,2.45.43,3.93.28,3.51.37,6.43.28,9.15.49.02.99.08,1.48.18,3.86.76,6.89,3.87,7.55,7.74.08.47.13.95.14,1.43.04,1.81-.64,3.53-1.93,4.84-1.32,1.35-3.15,2.12-5.04,2.12h-23.23Z" />
    <path class="cls-15"
      d="M59.64,105.75c-1.09.66-2.34.86-3.5.67-2.74-.48-5.28-1.26-7.77-2.1-2.48-.86-4.88-1.85-7.22-2.9-1.17-.53-2.33-1.09-3.47-1.66l-1.7-.88-.49-.26-.09-.05-.03.12-.09.3c-.38,1.21-.79,2.42-1.23,3.62-1.79,4.8-3.85,9.53-7.01,14.03-1.99,2.84-5.91,3.52-8.76,1.53-1.41-.99-2.29-2.47-2.57-4.04-.96-5.41-.82-10.58-.42-15.68.11-1.27.24-2.54.42-3.8l.13-.95.02-.13.05-.24.11-.48.24-.94c.15-.63.38-1.25.63-1.87.25-.61.49-1.23.83-1.81,1.22-2.38,3.01-4.47,5.11-6.1,2.1-1.64,4.53-2.82,7.09-3.46,2.57-.64,5.28-.74,7.9-.28,2.62.44,5.15,1.48,7.24,2.94.26.17.55.38.77.53l.37.31.73.62,1.44,1.26c.95.85,1.89,1.72,2.82,2.61,1.85,1.8,3.64,3.67,5.35,5.66,1.7,2.01,3.36,4.08,4.81,6.46,1.46,2.39.7,5.52-1.7,6.97Z" />
    <path class="cls-4"
      d="M5.94,115.73c.45-2.67,2.57-4.84,5.23-5.37,1.18-.23,2.32-.14,3.35.18,1.5-2.26,4.07-3.75,6.98-3.75s5.48,1.49,6.98,3.75c1.03-.33,2.16-.42,3.35-.18,2.66.52,4.78,2.69,5.23,5.37.06.34.09.67.1,1,.05,2.21-1.84,3.97-4.05,3.97H9.89c-2.21,0-4.1-1.77-4.05-3.97,0-.33.04-.66.1-1Z" />
    <path class="cls-5"
      d="M142.41,114.11c-.6,3.42-3.87,5.69-7.28,5.09-1.7-.3-3.12-1.27-4.04-2.57-3.15-4.5-5.22-9.24-7.01-14.03-.44-1.2-.85-2.41-1.23-3.62l-.09-.3-.03-.12-.08.05-.49.26-1.7.88c-1.14.57-2.3,1.13-3.47,1.66-2.35,1.06-4.74,2.05-7.22,2.9-2.49.84-5.03,1.63-7.77,2.1-2.76.48-5.38-1.37-5.87-4.14-.22-1.25.05-2.49.67-3.5,1.45-2.38,3.11-4.45,4.81-6.46,1.71-1.99,3.51-3.86,5.35-5.66.92-.89,1.87-1.76,2.82-2.61l1.44-1.26.73-.62.36-.31c.22-.15.51-.36.77-.53,2.09-1.46,4.62-2.5,7.24-2.94,2.63-.46,5.34-.36,7.9.28,2.56.65,4.98,1.83,7.09,3.46,2.1,1.62,3.89,3.72,5.12,6.1.33.59.57,1.2.82,1.81.25.61.48,1.23.63,1.87l.24.94.11.48.05.24.02.13.13.95c.17,1.26.3,2.53.42,3.8.41,5.11.54,10.27-.42,15.68Z" />
    <path class="cls-8"
      d="M129.39,64.84c0,5.89-1.02,11.53-2.9,16.77h0c-6.87,19.18-25.22,32.9-46.76,32.9s-39.9-13.72-46.76-32.91c-1.88-5.24-2.9-10.88-2.9-16.76,0-3.82.43-7.54,1.25-11.11,5.04-22.08,24.81-38.56,48.41-38.56s43.41,16.49,48.43,38.6c.81,3.56,1.24,7.26,1.24,11.06Z" />
    <ellipse class="cls-17" cx="58.74" cy="30.35" rx="16.77" ry="24.51" />
    <path class="cls-10"
      d="M75.5,30.35c0,12.89-5.25,23.33-11.73,23.33-4.08,0-7.66-4.13-9.77-10.4l11.67-1.8-12.78-2.39c-.55-2.7-.85-5.65-.85-8.74,0-12.88,5.25-23.32,11.73-23.32s11.73,10.44,11.73,23.32Z" />
    <ellipse class="cls-12" cx="99.37" cy="30.35" rx="16.77" ry="24.51" />
    <path class="cls-6"
      d="M116.14,30.35c0,12.89-5.26,23.33-11.73,23.33-4.08,0-7.67-4.13-9.77-10.4l11.66-1.8-12.78-2.39c-.55-2.7-.85-5.65-.85-8.74,0-12.88,5.26-23.32,11.74-23.32s11.73,10.44,11.73,23.32Z" />
    <path class="cls-2" d="M107.09,85.39c-4.03-11.38-14.88-19.54-27.63-19.54s-23.61,8.16-27.63,19.54" />
    <path class="cls-3" d="M47.77,85.39s4.9-1.55,7.6,3.11" />
    <path class="cls-1" d="M111.78,85.43s-4.9-1.55-7.6,3.11" />
    <path class="cls-16"
      d="M129.39,64.84c0,5.89-1.02,11.53-2.9,16.77h0c-7.71,0-13.96-6.25-13.96-13.97s6.25-13.97,13.97-13.97c.56,0,1.12.03,1.66.1.81,3.56,1.24,7.26,1.24,11.06Z" />
    <path class="cls-14"
      d="M46.39,67.65c0,7.54-5.98,13.68-13.45,13.95-1.88-5.24-2.9-10.88-2.9-16.76,0-3.82.43-7.54,1.25-11.11.37-.04.75-.05,1.13-.05,7.71,0,13.97,6.25,13.97,13.97Z" />
    <path class="cls-13"
      d="M152.17,115.73c-.45-2.67-2.57-4.84-5.23-5.37-1.18-.23-2.32-.14-3.35.18-1.5-2.26-4.07-3.75-6.98-3.75s-5.48,1.49-6.98,3.75c-1.03-.33-2.16-.42-3.35-.18-2.66.52-4.78,2.69-5.23,5.37-.06.34-.09.67-.1,1-.05,2.21,1.84,3.97,4.05,3.97h23.23c2.21,0,4.1-1.77,4.05-3.97,0-.33-.04-.66-.1-1Z" />
    <path class="cls-11"
      d="M47.91,115.73c.45-2.67,2.57-4.84,5.23-5.37,1.18-.23,2.32-.14,3.35.18,1.5-2.26,4.07-3.75,6.98-3.75s5.48,1.49,6.98,3.75c1.03-.33,2.16-.42,3.35-.18,2.66.52,4.78,2.69,5.23,5.37.06.34.09.67.1,1,.05,2.21-1.84,3.97-4.05,3.97h-23.23c-2.21,0-4.1-1.77-4.05-3.97,0-.33.04-.66.1-1Z" />
    <path class="cls-7"
      d="M80.39,115.73c.45-2.67,2.57-4.84,5.23-5.37,1.18-.23,2.32-.14,3.35.18,1.5-2.26,4.07-3.75,6.98-3.75s5.48,1.49,6.98,3.75c1.03-.33,2.16-.42,3.35-.18,2.66.52,4.78,2.69,5.23,5.37.06.34.09.67.1,1,.05,2.21-1.84,3.97-4.05,3.97h-23.23c-2.21,0-4.1-1.77-4.05-3.97,0-.33.04-.66.1-1Z" />
  </g>
</svg>