<?xml version="1.0" encoding="UTF-8"?>
<svg id="Capa_2" xmlns="http://www.w3.org/2000/svg" xmlns:xlink="http://www.w3.org/1999/xlink"
  viewBox="0 0 138.86 122.18">
  <defs>
    <style>
      .cls-1 {
        fill: url(#Degradado_sin_nombre_16);
      }

      .cls-2 {
        fill: url(#Degradado_sin_nombre_2);
      }

      .cls-3 {
        fill: url(#Degradado_sin_nombre_3);
      }

      .cls-4 {
        fill: url(#Degradado_sin_nombre_18);
      }
    </style>
    <linearGradient id="Degradado_sin_nombre_2" x1="853.16" y1="157.8" x2="851.35" y2="129.87"
      gradientTransform="translate(-3806.36 -735.78) rotate(1.96) scale(4.58 4.74)" gradientUnits="userSpaceOnUse">
      <stop offset="0" stop-color="#c9ccd1" />
      <stop offset="1" stop-color="#fff" />
    </linearGradient>
    <linearGradient id="Degradado_sin_nombre_16" x1="849.07" y1="129.39" x2="849.07" y2="139.58"
      gradientTransform="translate(-3806.36 -735.78) rotate(1.96) scale(4.58 4.74)" gradientUnits="userSpaceOnUse">
      <stop offset="0" stop-color="#3700ff" />
      <stop offset="1" stop-color="#ff00e6" />
    </linearGradient>
    <linearGradient id="Degradado_sin_nombre_3" x1="858.11" y1="129.95" x2="858.11" y2="150.93"
      gradientTransform="translate(-3806.36 -735.78) rotate(1.96) scale(4.58 4.74)" gradientUnits="userSpaceOnUse">
      <stop offset="0" stop-color="#0087ff" />
      <stop offset="1" stop-color="#00f2ff" />
    </linearGradient>
    <linearGradient id="Degradado_sin_nombre_18" x1="847.68" y1="138.65" x2="847.68" y2="150.93"
      gradientTransform="translate(-3806.36 -735.78) rotate(1.96) scale(4.58 4.74)" gradientUnits="userSpaceOnUse">
      <stop offset="0" stop-color="#8ad100" />
      <stop offset="1" stop-color="#dcf500" />
    </linearGradient>
  </defs>
  <g id="OBJECTS">
    <path class="cls-2"
      d="M88.37,122.18c-.24,0-.48-.03-.73-.06l-55.74-6.57c-3.16-.37-5.9-2.43-7.21-5.42L.81,55.78c-1.52-3.47-.86-7.55,1.67-10.32L41.27,2.95C43.06.98,45.58-.08,48.18,0c.13,0,57.33,4.6,57.33,4.6,3.22.26,6.06,2.27,7.46,5.29l25.01,54.04c1.62,3.51.98,7.69-1.61,10.51l-41.1,44.8c-1.8,1.96-4.31,3.01-6.89,2.93Z" />
    <polygon class="cls-1" points="104.8 13.95 47.85 9.37 9.08 51.89 64.83 58.19 104.8 13.95" />
    <polygon class="cls-3" points="104.8 13.95 64.83 58.19 88.69 112.8 129.8 68.02 104.8 13.95" />
    <polygon class="cls-4" points="64.83 58.19 9.08 51.89 32.94 106.22 88.69 112.8 64.83 58.19" />
  </g>
</svg>