<?xml version="1.0" encoding="UTF-8"?>
<svg id="Capa_2" xmlns="http://www.w3.org/2000/svg" xmlns:xlink="http://www.w3.org/1999/xlink"
  viewBox="0 0 125.08 147.47">
  <defs>
    <style>
      .cls-1 {
        fill: url(#Degradado_sin_nombre_13-5);
      }

      .cls-2 {
        fill: url(#Degradado_sin_nombre_13-2);
      }

      .cls-3 {
        fill: url(#Degradado_sin_nombre_28);
      }

      .cls-4 {
        fill: url(#Degradado_sin_nombre_13-4);
      }

      .cls-5 {
        fill: url(#Degradado_sin_nombre_28-2);
      }

      .cls-6 {
        fill: url(#Degradado_sin_nombre_13-3);
      }

      .cls-7 {
        fill: none;
        stroke: url(#Degradado_sin_nombre_13);
        stroke-linecap: round;
        stroke-linejoin: round;
        stroke-width: 3px;
      }

      .cls-8 {
        fill: url(#Degradado_sin_nombre_13-6);
      }

      .cls-9 {
        fill: url(#Degradado_sin_nombre_18);
      }

      .cls-10 {
        fill: url(#Degradado_sin_nombre_27);
      }

      .cls-11 {
        fill: url(#Degradado_sin_nombre_15);
      }

      .cls-12 {
        fill: url(#Degradado_sin_nombre_12);
      }
    </style>
    <linearGradient id="Degradado_sin_nombre_27" x1="62.54" y1=".64" x2="62.54" y2="145.09"
      gradientUnits="userSpaceOnUse">
      <stop offset="0" stop-color="#e0fdff" />
      <stop offset="1" stop-color="#f5ffff" />
    </linearGradient>
    <linearGradient id="Degradado_sin_nombre_12" x1="62.54" y1="3.9" x2="62.54" y2="141.91"
      gradientUnits="userSpaceOnUse">
      <stop offset="0" stop-color="#1f1f1f" />
      <stop offset="1" stop-color="#0a0a0a" />
    </linearGradient>
    <linearGradient id="Degradado_sin_nombre_18" x1="62.54" y1="140.49" x2="62.54" y2="35.39"
      gradientUnits="userSpaceOnUse">
      <stop offset="0" stop-color="#8ad100" />
      <stop offset="1" stop-color="#dcf500" />
    </linearGradient>
    <linearGradient id="Degradado_sin_nombre_13" x1="-496.25" y1="4687.98" x2="-465.33" y2="4687.98"
      gradientTransform="translate(488.86 4805.05) rotate(.66) scale(1 -1)" gradientUnits="userSpaceOnUse">
      <stop offset="0" stop-color="#1f1f1f" />
      <stop offset="1" stop-color="#0a0a0a" />
    </linearGradient>
    <linearGradient id="Degradado_sin_nombre_13-2" x1="1540.72" y1="-1483.34" x2="1543.6" y2="-1483.34"
      gradientTransform="translate(-650.92 2121.02) rotate(-26.79)" xlink:href="#Degradado_sin_nombre_13" />
    <linearGradient id="Degradado_sin_nombre_13-3" x1="8777.76" y1="2275.99" x2="8780.63" y2="2275.99"
      gradientTransform="translate(8883.41 2230.13) rotate(-151.89) scale(1 -1)"
      xlink:href="#Degradado_sin_nombre_13" />
    <linearGradient id="Degradado_sin_nombre_28" x1="663.39" y1="689.25" x2="663.39" y2="646.93"
      gradientTransform="translate(-694.49 -717.95) rotate(9.28) scale(1.29 1)" gradientUnits="userSpaceOnUse">
      <stop offset="0" stop-color="#dfdfdf" />
      <stop offset="1" stop-color="#f4f4f4" />
    </linearGradient>
    <linearGradient id="Degradado_sin_nombre_13-4" x1="663.39" y1="686.49" x2="663.39" y2="649.74"
      gradientTransform="translate(-694.49 -717.95) rotate(9.28) scale(1.29 1)" xlink:href="#Degradado_sin_nombre_13" />
    <linearGradient id="Degradado_sin_nombre_28-2" x1="926.1" y1="-446.51" x2="926.1" y2="-488.83"
      gradientTransform="translate(-1004.47 748.17) rotate(-10.11) scale(1.29 1)"
      xlink:href="#Degradado_sin_nombre_28" />
    <linearGradient id="Degradado_sin_nombre_13-5" x1="926.1" y1="-449.27" x2="926.1" y2="-486.02"
      gradientTransform="translate(-1004.47 748.17) rotate(-10.11) scale(1.29 1)"
      xlink:href="#Degradado_sin_nombre_13" />
    <linearGradient id="Degradado_sin_nombre_13-6" x1="62.47" y1="50.99" x2="62.47" y2="33.74"
      gradientTransform="matrix(1,0,0,1,0,0)" xlink:href="#Degradado_sin_nombre_13" />
    <linearGradient id="Degradado_sin_nombre_15" x1="62.47" y1="7.06" x2="62.47" y2="47.67"
      gradientUnits="userSpaceOnUse">
      <stop offset="0" stop-color="#fb00ff" />
      <stop offset="1" stop-color="#ff0062" />
    </linearGradient>
  </defs>
  <g id="OBJECTS">
    <path class="cls-10"
      d="M121.51,43.9c-.29-.93-.62-1.92-1.01-2.99-.18-.96-.53-1.87-1.05-2.72,1.56-5.09.63-10.69-2.49-14.82-2.25-2.99-5.63-5.1-9.3-5.86-1.54-2.61-3.98-4.66-6.91-5.76-1.44-.53-2.96-.8-4.52-.8-.39,0-.78.02-1.17.05-2.2-3.52-5.59-6.2-9.46-7.36-1.53-.46-3.14-.7-4.78-.7-2.48,0-4.97.55-7.25,1.57-2.99-2.9-6.87-4.52-10.98-4.52-1.16,0-2.34.13-3.51.38-2.95.64-5.57,2.05-7.72,4.13-2.27-1.02-4.76-1.57-7.23-1.57-1.64,0-3.24.24-4.77.7-3.87,1.17-7.27,3.84-9.47,7.36-.39-.03-.78-.05-1.17-.05-1.56,0-3.09.27-4.55.81-2.92,1.1-5.35,3.14-6.89,5.75-3.67.76-7.05,2.86-9.3,5.85-3.13,4.15-4.05,9.75-2.49,14.84-.72,1.19-1.13,2.49-1.19,3.86-.25.72-.47,1.39-.66,2.01C-.17,56.12-1.01,68.65,1.22,80.31c3.62,19,14.49,32.87,22.98,41.15.99.97,2,1.96,3.03,2.97,5.9,5.8,12.01,11.79,18.49,17.19,4.53,3.77,10.28,5.84,16.19,5.84s11.28-1.94,15.73-5.47c6.57-5.22,12.77-11.04,18.79-16.68,0,0,2.28-2.14,3.19-2.99,8.67-8.08,19.85-21.68,23.92-40.62,2.6-12.11,1.89-25.19-2.03-37.8Z" />
    <path class="cls-12"
      d="M61.91,144.19c-5.14,0-10.15-1.81-14.09-5.08-6.38-5.32-12.44-11.26-18.3-17.02-1.02-1.01-2.03-2-3.03-2.97-8.15-7.96-18.58-21.26-22.04-39.42-2.12-11.13-1.32-23.1,2.32-34.64.23-.75.5-1.54.81-2.43,0-.06,0-.12,0-.19,0-1.37.54-2.6,1.62-3.69-.12-.27-.23-.54-.33-.81-1.58-4.27-.91-9.11,1.73-12.61,2.08-2.77,5.41-4.57,8.85-4.82,1.01-2.54,3.12-4.65,5.87-5.68,1.08-.4,2.22-.6,3.39-.6,1.01,0,2,.15,2.95.44,1.58-3.7,4.75-6.72,8.64-7.89,1.22-.37,2.51-.56,3.83-.56,2.86,0,5.65.88,7.96,2.43,1.91-2.62,4.57-4.4,7.68-5.07.94-.2,1.89-.3,2.82-.3,4.08,0,7.78,2.01,10.25,5.38,2.31-1.55,5.11-2.44,7.97-2.44,1.31,0,2.6.19,3.83.56,3.88,1.17,7.05,4.19,8.63,7.89.95-.29,1.94-.44,2.95-.44,1.17,0,2.31.2,3.38.6,2.76,1.04,4.87,3.14,5.89,5.68,3.44.26,6.77,2.06,8.85,4.83,2.64,3.5,3.31,8.33,1.73,12.61-.1.27-.21.54-.32.8.89.9,1.42,1.9,1.57,2.99.41,1.14.76,2.17,1.06,3.13,3.76,12.08,4.44,24.58,1.96,36.14-3.89,18.1-14.63,31.15-22.95,38.9-1.05.98-2.12,1.98-3.2,2.99-5.96,5.59-12.12,11.37-18.58,16.5-3.87,3.07-8.73,4.76-13.69,4.76h0Z" />
    <path class="cls-9"
      d="M117.12,80.33c-3.23,15.04-11.83,27.73-21.98,37.19-6.67,6.22-14.03,13.33-21.58,19.33-6.94,5.51-16.83,5.39-23.64-.27-7.41-6.17-14.61-13.44-21.14-19.81-9.93-9.7-18.23-22.58-21.11-37.68-2.09-10.95-1.11-22.49,2.22-33.03.41-1.3.85-2.58,1.32-3.84,6.41-3.59,26.94-6.22,51.26-6.22s45.61,2.73,51.6,6.42c.42,1.14.81,2.28,1.17,3.44,3.43,11,4.32,23.11,1.88,34.48Z" />
    <path class="cls-7"
      d="M48.07,111.94c1.11-.57,2.13-1.14,3.19-2.98l-.95,2.11c1.96,2.22,6.47,3.8,11.74,3.86,5.27.06,9.82-1.42,11.83-3.59l2.11.92c-1.1-.59-2.11-1.19-3.12-3.06" />
    <path class="cls-2"
      d="M58.51,101.15c.5.98.32,2.07-.38,2.43-.71.36-1.69-.15-2.18-1.13-.5-.98-.32-2.07.38-2.43.71-.36,1.69.15,2.18,1.13Z" />
    <path class="cls-6"
      d="M65.79,101.23c-.52.97-.37,2.06.33,2.44.7.37,1.69-.11,2.21-1.08.52-.97.37-2.06-.33-2.44-.7-.37-1.69.11-2.21,1.08Z" />
    <path class="cls-3"
      d="M51.94,81.22c-1.87,11.42-9.16,19.74-16.29,18.57-7.13-1.17-11.39-11.37-9.53-22.79,1.87-11.42,9.16-19.74,16.29-18.57,7.13,1.17,11.39,11.37,9.53,22.79Z" />
    <path class="cls-4"
      d="M48.71,80.69c-1.62,9.92-7.28,17.25-12.62,16.38-5.35-.87-8.36-9.63-6.74-19.55,1.62-9.92,7.27-17.25,12.61-16.37,3.31.54,5.73,4.1,6.71,9.07l-7.63,2.96,8.1,1.38c.05,1.95-.08,4.01-.42,6.13Z" />
    <path class="cls-5"
      d="M97.97,76.81c2.03,11.39-2.09,21.66-9.2,22.93-7.11,1.27-14.52-6.94-16.55-18.34-2.03-11.39,2.09-21.66,9.2-22.93,7.11-1.27,14.52,6.94,16.55,18.34Z" />
    <path class="cls-1"
      d="M94.75,77.38c1.76,9.89-1.14,18.69-6.47,19.64-5.33.95-11.08-6.3-12.85-16.2-1.76-9.89,1.13-18.68,6.46-19.63,3.3-.59,6.76,1.96,9.34,6.33l-6.22,5.33,8.1-1.38c.7,1.82,1.26,3.81,1.63,5.92Z" />
    <ellipse class="cls-8" cx="62.47" cy="42.45" rx="51.62" ry="8.61" />
    <path class="cls-11"
      d="M112.99,36.82c-1.7,4.61-6.09,6.91-10.54,8.23-6.55,1.94-13.38,2.42-20.15,2.99-6.59.55-13.22.72-19.82.72-7.62,0-15.22-.35-22.82-.94-4.67-.36-9.35-.91-13.92-1.98-4.38-1.02-8.96-2.2-11.95-5.81-.78-.96-1.41-2.04-1.84-3.21-1.15-3.13-.74-6.84,1.27-9.5,2.01-2.67,5.6-4.1,8.85-3.35-.02-2.7,1.87-5.11,4.4-6.06,2.53-.94,5.62-.15,7.38,1.9.05-4.45,3.14-8.6,7.4-9.89,4.24-1.28,9.23.47,11.74,4.14,1.19-3.57,3.68-6.45,7.48-7.27,5.47-1.18,9.83,2.27,11.49,7.27,2.5-3.67,7.49-5.42,11.74-4.14,4.25,1.28,7.34,5.44,7.4,9.89,1.75-2.05,4.84-2.84,7.37-1.9,2.53.95,4.43,3.36,4.4,6.06,3.25-.76,6.84.67,8.85,3.35,2.01,2.66,2.43,6.37,1.27,9.5Z" />
  </g>
</svg>