<?xml version="1.0" encoding="UTF-8"?>
<svg id="Capa_2" xmlns="http://www.w3.org/2000/svg" xmlns:xlink="http://www.w3.org/1999/xlink"
  viewBox="0 0 138.61 165.16">
  <defs>
    <style>
      .cls-1 {
        fill: url(#Degradado_sin_nombre_2-26);
      }

      .cls-2 {
        fill: url(#Degradado_sin_nombre_2-22);
      }

      .cls-3 {
        fill: url(#Degradado_sin_nombre_18-9);
      }

      .cls-4 {
        fill: url(#Degradado_sin_nombre_2-23);
      }

      .cls-5 {
        fill: url(#Degradado_sin_nombre_2-31);
      }

      .cls-6 {
        fill: url(#Degradado_sin_nombre_2-11);
      }

      .cls-7 {
        fill: url(#Degradado_sin_nombre_2-28);
      }

      .cls-8 {
        fill: url(#Degradado_sin_nombre_2-14);
      }

      .cls-9 {
        fill: url(#Degradado_sin_nombre_16);
      }

      .cls-10 {
        fill: url(#Degradado_sin_nombre_2-30);
      }

      .cls-11 {
        fill: url(#Degradado_sin_nombre_18-12);
      }

      .cls-12 {
        fill: url(#Degradado_sin_nombre_18-10);
      }

      .cls-13 {
        fill: url(#Degradado_sin_nombre_18-2);
      }

      .cls-14 {
        fill: url(#Degradado_sin_nombre_2-24);
      }

      .cls-15 {
        fill: url(#Degradado_sin_nombre_18-6);
      }

      .cls-16 {
        fill: url(#Degradado_sin_nombre_2-21);
      }

      .cls-17 {
        fill: url(#Degradado_sin_nombre_2-4);
      }

      .cls-18 {
        fill: url(#Degradado_sin_nombre_2-20);
      }

      .cls-19 {
        fill: url(#Degradado_sin_nombre_2-12);
      }

      .cls-20 {
        fill: url(#Degradado_sin_nombre_2-8);
      }

      .cls-21 {
        fill: url(#Degradado_sin_nombre_18-11);
      }

      .cls-22 {
        fill: none;
      }

      .cls-23 {
        fill: url(#Degradado_sin_nombre_2-7);
      }

      .cls-24 {
        fill: url(#Degradado_sin_nombre_2-15);
      }

      .cls-25 {
        fill: url(#Degradado_sin_nombre_18-8);
      }

      .cls-26 {
        fill: url(#Degradado_sin_nombre_2-36);
      }

      .cls-27 {
        fill: url(#Degradado_sin_nombre_2-35);
      }

      .cls-28 {
        fill: url(#Degradado_sin_nombre_2-6);
      }

      .cls-29 {
        fill: url(#Degradado_sin_nombre_2-9);
      }

      .cls-30 {
        fill: url(#Degradado_sin_nombre_2);
      }

      .cls-31 {
        fill: url(#Degradado_sin_nombre_2-10);
      }

      .cls-32 {
        fill: url(#Degradado_sin_nombre_2-33);
      }

      .cls-33 {
        fill: url(#Degradado_sin_nombre_2-34);
      }

      .cls-34 {
        fill: url(#Degradado_sin_nombre_2-19);
      }

      .cls-35 {
        fill: url(#Degradado_sin_nombre_2-13);
      }

      .cls-36 {
        fill: url(#Degradado_sin_nombre_2-38);
      }

      .cls-37 {
        fill: url(#Degradado_sin_nombre_2-37);
      }

      .cls-38 {
        fill: url(#Degradado_sin_nombre_2-27);
      }

      .cls-39 {
        fill: url(#Degradado_sin_nombre_2-5);
      }

      .cls-40 {
        fill: url(#Degradado_sin_nombre_2-3);
      }

      .cls-41 {
        fill: url(#Degradado_sin_nombre_18-13);
      }

      .cls-42 {
        fill: url(#Degradado_sin_nombre_2-29);
      }

      .cls-43 {
        fill: url(#Degradado_sin_nombre_18-5);
      }

      .cls-44 {
        fill: url(#Degradado_sin_nombre_2-17);
      }

      .cls-45 {
        fill: url(#Degradado_sin_nombre_18);
      }

      .cls-46 {
        fill: url(#Degradado_sin_nombre_18-4);
      }

      .cls-47 {
        fill: url(#Degradado_sin_nombre_2-18);
      }

      .cls-48 {
        fill: url(#Degradado_sin_nombre_2-16);
      }

      .cls-49 {
        fill: url(#Degradado_sin_nombre_2-32);
      }

      .cls-50 {
        fill: url(#Degradado_sin_nombre_12-2);
      }

      .cls-51 {
        fill: url(#Degradado_sin_nombre_18-3);
      }

      .cls-52 {
        fill: url(#Degradado_sin_nombre_15);
      }

      .cls-53 {
        fill: url(#Degradado_sin_nombre_2-25);
      }

      .cls-54 {
        fill: url(#Degradado_sin_nombre_2-2);
      }

      .cls-55 {
        clip-path: url(#clippath);
      }

      .cls-56 {
        fill: url(#Degradado_sin_nombre_18-7);
      }

      .cls-57 {
        fill: url(#Degradado_sin_nombre_12);
      }
    </style>
    <linearGradient id="Degradado_sin_nombre_2" x1="66.39" y1="190.46" x2="71.56" y2="4.42"
      gradientUnits="userSpaceOnUse">
      <stop offset="0" stop-color="#c9ccd1" />
      <stop offset="1" stop-color="#fff" />
    </linearGradient>
    <linearGradient id="Degradado_sin_nombre_12" x1="69.32" y1="158.81" x2="69.32" y2="5.92"
      gradientUnits="userSpaceOnUse">
      <stop offset="0" stop-color="#1f1f1f" />
      <stop offset="1" stop-color="#0a0a0a" />
    </linearGradient>
    <clipPath id="clippath">
      <path class="cls-22"
        d="M100.12,91.04C84.06,23.77,53.56,27.18,53.56,27.18c0,0-30.56-2.83-45.35,64.73-14.15,64.68,41.22,66.05,46.58,66,5.36-.05,60.7-2.47,45.32-66.87Z" />
    </clipPath>
    <linearGradient id="Degradado_sin_nombre_2-2" x1="54.72" y1="209.84" x2="54.21" y2="70.32"
      xlink:href="#Degradado_sin_nombre_2" />
    <linearGradient id="Degradado_sin_nombre_18" x1="60.22" y1="27.3" x2="98.31" y2="27.3"
      gradientTransform="translate(-6.06 21.57) rotate(-.54)" gradientUnits="userSpaceOnUse">
      <stop offset="0" stop-color="#8ad100" />
      <stop offset="1" stop-color="#dcf500" />
    </linearGradient>
    <linearGradient id="Degradado_sin_nombre_18-2" x1="8.96" y1="116.32" x2="43.88" y2="116.32"
      xlink:href="#Degradado_sin_nombre_18" />
    <linearGradient id="Degradado_sin_nombre_18-3" x1="53.05" y1="54.04" x2="80.44" y2="54.04"
      xlink:href="#Degradado_sin_nombre_18" />
    <linearGradient id="Degradado_sin_nombre_18-4" x1="69.66" y1="108.87" x2="97.06" y2="108.87"
      xlink:href="#Degradado_sin_nombre_18" />
    <linearGradient id="Degradado_sin_nombre_18-5" x1="10.41" y1="60.17" x2="42.42" y2="60.17"
      xlink:href="#Degradado_sin_nombre_18" />
    <linearGradient id="Degradado_sin_nombre_18-6" x1="31.95" y1="33.01" x2="55.8" y2="33.01"
      xlink:href="#Degradado_sin_nombre_18" />
    <linearGradient id="Degradado_sin_nombre_18-7" x1="43.71" y1="262.99" x2="73.78" y2="262.99"
      gradientTransform="translate(41.35 -175.87) rotate(3.95)" xlink:href="#Degradado_sin_nombre_18" />
    <linearGradient id="Degradado_sin_nombre_18-8" x1="31.8" y1="86.06" x2="65.08" y2="86.06"
      xlink:href="#Degradado_sin_nombre_18" />
    <linearGradient id="Degradado_sin_nombre_18-9" x1="43.51" y1="132.72" x2="77.43" y2="132.72"
      xlink:href="#Degradado_sin_nombre_18" />
    <linearGradient id="Degradado_sin_nombre_18-10" x1="13.12" y1="87.21" x2="29.29" y2="87.21"
      xlink:href="#Degradado_sin_nombre_18" />
    <linearGradient id="Degradado_sin_nombre_18-11" x1="95.17" y1="95.49" x2="113.46" y2="95.49"
      xlink:href="#Degradado_sin_nombre_18" />
    <linearGradient id="Degradado_sin_nombre_18-12" x1="46.67" y1="113.05" x2="66.88" y2="113.05"
      xlink:href="#Degradado_sin_nombre_18" />
    <linearGradient id="Degradado_sin_nombre_18-13" x1="42" y1="10.23" x2="67.02" y2="10.23"
      xlink:href="#Degradado_sin_nombre_18" />
    <linearGradient id="Degradado_sin_nombre_12-2" x1="56.94" y1="97.23" x2="85.22" y2="49.78"
      xlink:href="#Degradado_sin_nombre_12" />
    <linearGradient id="Degradado_sin_nombre_16" x1="31.24" y1="70.48" x2="132.75" y2="70.48"
      gradientUnits="userSpaceOnUse">
      <stop offset="0" stop-color="#3700ff" />
      <stop offset="1" stop-color="#ff00e6" />
    </linearGradient>
    <linearGradient id="Degradado_sin_nombre_15" x1="49.24" y1="65.88" x2="121.18" y2="65.88"
      gradientUnits="userSpaceOnUse">
      <stop offset="0" stop-color="#fb00ff" />
      <stop offset="1" stop-color="#ff0062" />
    </linearGradient>
    <linearGradient id="Degradado_sin_nombre_2-3" x1="2452.46" y1="-1829.06" x2="2452.46" y2="-1839.37"
      gradientTransform="translate(1145.46 2939.96) rotate(-73.74)" xlink:href="#Degradado_sin_nombre_2" />
    <linearGradient id="Degradado_sin_nombre_2-4" x1="2460.88" y1="-1827.73" x2="2460.88" y2="-1838.04"
      gradientTransform="translate(1144.99 2939.78) rotate(-73.74)" xlink:href="#Degradado_sin_nombre_2" />
    <linearGradient id="Degradado_sin_nombre_2-5" x1="1245.73" y1="-1488.52" x2="1245.73" y2="-1498.27"
      gradientTransform="translate(234.53 2001.54) rotate(-45)" xlink:href="#Degradado_sin_nombre_2" />
    <linearGradient id="Degradado_sin_nombre_2-6" x1="170.62" y1="-221.35" x2="170.62" y2="-230.43"
      gradientTransform="translate(-89.58 296.36) rotate(-6.56)" xlink:href="#Degradado_sin_nombre_2" />
    <linearGradient id="Degradado_sin_nombre_2-7" x1="17.81" y1="926.15" x2="17.81" y2="918.03"
      gradientTransform="translate(354.61 -832.41) rotate(20.03)" xlink:href="#Degradado_sin_nombre_2" />
    <linearGradient id="Degradado_sin_nombre_2-8" x1="361.83" y1="1961.4" x2="361.83" y2="1953.28"
      gradientTransform="translate(1190.03 -1609.24) rotate(45)" xlink:href="#Degradado_sin_nombre_2" />
    <linearGradient id="Degradado_sin_nombre_2-9" x1="88.19" y1="56.71" x2="88.19" y2="49.03"
      gradientTransform="translate(-27.48 -4.75)" xlink:href="#Degradado_sin_nombre_2" />
    <linearGradient id="Degradado_sin_nombre_2-10" x1="212.32" y1="1671.27" x2="212.32" y2="1663.59"
      gradientTransform="translate(907.76 -1415.91) rotate(37.38)" xlink:href="#Degradado_sin_nombre_2" />
    <linearGradient id="Degradado_sin_nombre_2-11" x1="1152.34" y1="2789.06" x2="1152.34" y2="2782.04"
      gradientTransform="translate(2327.4 -1970.82) rotate(70.88)" xlink:href="#Degradado_sin_nombre_2" />
    <linearGradient id="Degradado_sin_nombre_2-12" x1="1780.37" y1="3081.11" x2="1780.37" y2="3074.1"
      gradientTransform="translate(3049.26 -1931.55) rotate(86.6)" xlink:href="#Degradado_sin_nombre_2" />
    <linearGradient id="Degradado_sin_nombre_2-13" x1="2503.25" y1="3190.95" x2="2503.25" y2="3184.49"
      gradientTransform="translate(3765.42 -1685.13) rotate(103.11)" xlink:href="#Degradado_sin_nombre_2" />
    <linearGradient id="Degradado_sin_nombre_2-14" x1="3599.71" y1="2961.7" x2="3599.71" y2="2955.7"
      gradientTransform="translate(4656.89 -943.47) rotate(128.48)" xlink:href="#Degradado_sin_nombre_2" />
    <linearGradient id="Degradado_sin_nombre_2-15" x1="4181.68" y1="2593.82" x2="4181.68" y2="2588.28"
      gradientTransform="translate(5012.06 -329.6) rotate(143.91)" xlink:href="#Degradado_sin_nombre_2" />
    <linearGradient id="Degradado_sin_nombre_2-16" x1="1037.07" y1="2712.34" x2="1037.07" y2="2704.87"
      gradientTransform="translate(2189.41 -1956.23) rotate(67.87)" xlink:href="#Degradado_sin_nombre_2" />
    <linearGradient id="Degradado_sin_nombre_2-17" x1="1775.39" y1="3080.5" x2="1775.39" y2="3073.03"
      gradientTransform="translate(3047.88 -1932.72) rotate(86.6)" xlink:href="#Degradado_sin_nombre_2" />
    <linearGradient id="Degradado_sin_nombre_2-18" x1="2366.5" y1="3183.84" x2="2366.5" y2="3176.37"
      gradientTransform="translate(3640.88 -1745.95) rotate(100.15)" xlink:href="#Degradado_sin_nombre_2" />
    <linearGradient id="Degradado_sin_nombre_2-19" x1="3354.45" y1="3052.8" x2="3354.45" y2="3046.15"
      gradientTransform="translate(4480.53 -1151.19) rotate(122.66)" xlink:href="#Degradado_sin_nombre_2" />
    <linearGradient id="Degradado_sin_nombre_2-20" x1="4178.33" y1="2590.81" x2="4178.33" y2="2584.16"
      gradientTransform="translate(5010.31 -336.22) rotate(143.91)" xlink:href="#Degradado_sin_nombre_2" />
    <linearGradient id="Degradado_sin_nombre_2-21" x1="4675.89" y1="2033.68" x2="4675.89" y2="2027.03"
      gradientTransform="translate(5199.06 405.8) rotate(160.61)" xlink:href="#Degradado_sin_nombre_2" />
    <linearGradient id="Degradado_sin_nombre_2-22" x1="4875.69" y1="1668.77" x2="4875.69" y2="1662.12"
      gradientTransform="translate(5210.66 827.96) rotate(169.8)" xlink:href="#Degradado_sin_nombre_2" />
    <linearGradient id="Degradado_sin_nombre_2-23" x1="5027.96" y1="1232.83" x2="5027.96" y2="1227.06"
      gradientTransform="translate(5146.14 1290.99) rotate(-180)" xlink:href="#Degradado_sin_nombre_2" />
    <linearGradient id="Degradado_sin_nombre_2-24" x1="5108.04" y1="678.51" x2="5108.04" y2="672.74"
      gradientTransform="translate(4959.94 1830.49) rotate(-167.55)" xlink:href="#Degradado_sin_nombre_2" />
    <linearGradient id="Degradado_sin_nombre_2-25" x1="5019.62" y1="-100.23" x2="5019.62" y2="-106"
      gradientTransform="translate(4512.56 2498.02) rotate(-150)" xlink:href="#Degradado_sin_nombre_2" />
    <linearGradient id="Degradado_sin_nombre_2-26" x1="4827.1" y1="-598.98" x2="4827.1" y2="-604.75"
      gradientTransform="translate(4104.36 2858.72) rotate(-138.11)" xlink:href="#Degradado_sin_nombre_2" />
    <linearGradient id="Degradado_sin_nombre_2-27" x1="4560.44" y1="2197.88" x2="4560.44" y2="2192.22"
      gradientTransform="translate(5169.26 193.8) rotate(155.96)" xlink:href="#Degradado_sin_nombre_2" />
    <linearGradient id="Degradado_sin_nombre_2-28" x1="4814.34" y1="1802.66" x2="4814.34" y2="1796.99"
      gradientTransform="translate(5216.11 669.02) rotate(166.36)" xlink:href="#Degradado_sin_nombre_2" />
    <linearGradient id="Degradado_sin_nombre_2-29" x1="5034.37" y1="1231.28" x2="5034.37" y2="1226.26"
      gradientTransform="translate(5148.36 1292.77) rotate(-180)" xlink:href="#Degradado_sin_nombre_2" />
    <linearGradient id="Degradado_sin_nombre_2-30" x1="5107.51" y1="793.49" x2="5107.51" y2="788.46"
      gradientTransform="translate(5010.49 1723.64) rotate(-170.16)" xlink:href="#Degradado_sin_nombre_2" />
    <linearGradient id="Degradado_sin_nombre_2-31" x1="1079.15" y1="-1369.32" x2="1079.15" y2="-1377.4"
      gradientTransform="translate(122.44 1804.22) rotate(-40.07)" xlink:href="#Degradado_sin_nombre_2" />
    <linearGradient id="Degradado_sin_nombre_2-32" x1="102.48" y1="90.85" x2="102.48" y2="86.88"
      xlink:href="#Degradado_sin_nombre_2" />
    <linearGradient id="Degradado_sin_nombre_2-33" x1="95.14" y1="94.28" x2="95.14" y2="91.28"
      xlink:href="#Degradado_sin_nombre_2" />
    <linearGradient id="Degradado_sin_nombre_2-34" x1="87.35" y1="97.36" x2="87.35" y2="94.89"
      xlink:href="#Degradado_sin_nombre_2" />
    <linearGradient id="Degradado_sin_nombre_2-35" x1="79.76" y1="100.14" x2="79.76" y2="97.91"
      xlink:href="#Degradado_sin_nombre_2" />
    <linearGradient id="Degradado_sin_nombre_2-36" x1="72.7" y1="103.67" x2="72.7" y2="101.04"
      xlink:href="#Degradado_sin_nombre_2" />
    <linearGradient id="Degradado_sin_nombre_2-37" x1="66.57" y1="108.18" x2="66.57" y2="105.26"
      xlink:href="#Degradado_sin_nombre_2" />
    <linearGradient id="Degradado_sin_nombre_2-38" x1="110.04" y1="79.99" x2="110.04" y2="75.22"
      xlink:href="#Degradado_sin_nombre_2" />
  </defs>
  <g id="OBJECTS">
    <path class="cls-30"
      d="M134.58,80.89c-3.88,9.2-10.9,16.53-20.87,21.75-1.56.82-3.32,1.58-5.31,2.32,1.45,16.78-2.26,30.46-11.05,40.66-15,17.42-39.73,18.15-42.49,18.18h-.3c-4.78,0-29.37-.92-44.02-19.11C.15,131.79-2.58,113.6,2.45,90.65c5.57-25.47,14.03-44.38,25.14-56.23.43-1.29.91-2.54,1.42-3.71,5.42-12.31,16.37-22.25,30.03-27.26,6.24-2.28,12.9-3.45,19.79-3.45,16.57,0,32.39,6.6,43.43,18.13,15.59,16.31,20.77,42.7,12.31,62.76Z" />
    <path class="cls-57"
      d="M54.55,160.86c-4.54,0-27.92-.87-41.71-18.01-9.8-12.18-12.33-29.53-7.51-51.57,5.53-25.3,13.9-43.91,24.87-55.32.45-1.43.96-2.8,1.51-4.07,5.1-11.58,15.43-20.94,28.34-25.67,5.92-2.17,12.24-3.27,18.78-3.27,15.77,0,30.82,6.28,41.29,17.22,14.82,15.5,19.75,40.55,11.73,59.57-3.6,8.56-10.17,15.39-19.52,20.29-1.99,1.04-4.29,1.98-7.1,2.91,1.92,17.02-1.48,30.72-10.12,40.76-14.15,16.44-37.65,17.13-40.29,17.16h-.28ZM77.33,35.76c10.19,10.31,18.31,26.7,24.21,48.85,1.9-1.8,3.36-3.78,4.42-5.98,5.86-12.13,1.47-31.2-9.21-40-3.02-2.49-7.7-3.97-12.52-3.97-2.43,0-4.79.38-6.9,1.11Z" />
    <g class="cls-55">
      <path class="cls-54"
        d="M100.12,91.04C84.06,23.77,53.56,27.18,53.56,27.18c0,0-30.56-2.83-45.35,64.73-14.15,64.68,41.22,66.05,46.58,66,5.36-.05,60.7-2.47,45.32-66.87Z" />
      <path class="cls-45"
        d="M60.97,38.01c-2.69,3.03-5.23,6.38-6.19,10.32-.95,3.94.05,8.59,3.35,10.95,3.4,2.43,8.16,1.85,11.88,3.74,2.66,1.35,4.61,3.88,7.34,5.09,3.91,1.74,8.77.25,11.64-2.92,2.86-3.17,3.89-7.71,3.49-11.96-.41-4.26-2.11-8.29-4.15-12.04-2.03-3.74-4.47-7.35-7.81-9.99-2.49-1.97-8.17-5.2-11.36-3.22-1.26.78-2.06,2.91-2.95,4.07-1.62,2.09-3.48,3.99-5.23,5.97Z" />
      <path class="cls-13"
        d="M14.66,121.56c2.9-.86,6.05.4,8.4,2.31,2.34,1.91,4.11,4.42,6.17,6.63,2.27,2.43,4.91,4.52,6.93,7.16,2.02,2.64,3.4,6.06,2.6,9.28-.76,3.03-3.38,5.38-6.35,6.37-2.97.99-6.23.76-9.25-.03-6.02-1.56-11.3-5.49-14.84-10.57-2.67-3.82-6.7-10.98-2.65-15.04,2.19-2.18,6.03-5.25,8.99-6.12Z" />
      <path class="cls-51"
        d="M69.04,67.53c2.68,1.03,5.11,3.16,5.71,5.97.75,3.55-1.68,7.18-4.88,8.9-3.19,1.73-6.96,1.95-10.59,1.97-2.5,0-5.1-.09-7.32-1.25-4.3-2.25-5.73-8.42-3.25-12.59,1.83-3.07,5.36-4.79,8.87-4.91,3.4-.11,8.34.7,11.46,1.9Z" />
      <path class="cls-46"
        d="M66.87,138.39c-.35-2.11.38-4.27.16-6.39-.25-2.51-1.79-4.72-2.3-7.2-1.02-4.94,2.61-10.12,7.41-11.65,4.81-1.52,10.26.2,13.99,3.6,4.52,4.13,6.71,10.66,5.59,16.68-.94,5.04-5.19,12.11-10.71,13.15-4.92.92-13.28-2.94-14.15-8.19Z" />
      <path class="cls-43"
        d="M7.97,69.58c1.56-2.21,4.2-3.86,6.88-3.49,3.4.48,5.53,3.79,8.25,5.89,3.85,2.97,9.39,3.78,12.24,7.72,2.73,3.77,1.8,9.42-1.4,12.8s-8.13,4.72-12.78,4.44c-4.94-.3-9.89-2.37-13.03-6.19-4.42-5.37-4.13-15.53-.17-21.17Z" />
      <path class="cls-15"
        d="M28.27,52.95c1.48-3.77,3.06-7.61,5.82-10.57,2.76-2.96,6.97-4.9,10.89-3.89,2.29.59,4.39,2.33,4.86,4.65.86,4.27-3.81,7.96-3.68,12.32.06,2.13,1.29,4.1,1.28,6.23-.02,2.97-2.44,5.42-5.1,6.73-3.46,1.7-9.95,2.78-13.18-.06-4.61-4.04-2.78-10.57-.89-15.41Z" />
      <path class="cls-56"
        d="M77.88,78.77c1.38-2.69,4.22-4.57,7.24-4.8,3.02-.23,6.11,1.21,7.88,3.66,1.78,2.46,2.18,5.62,2.47,8.64.32,3.33.58,6.66.78,10,.14,2.42.2,5.01-1.11,7.05-1.79,2.77-5.45,3.53-8.73,3.84-3.52.33-7.13.41-10.54-.55-4.5-1.27-12.72-7.86-8.23-13.14,1.57-1.85,4.32-2.49,6.01-4.32,2.76-2.96,2.46-6.95,4.22-10.37Z" />
      <path class="cls-25"
        d="M38.78,100.07c-2.46,2.3-5.61,3.76-8.1,6.03-3.44,3.14-5.37,8.51-3.04,12.55,1.52,2.64,4.44,4.11,7.26,5.26,4.97,2.03,10.45,3.57,15.67,2.33,5.22-1.24,9.91-6.09,9.28-11.42-.36-3.05-2.32-5.79-2.38-8.86-.03-1.91.68-3.75.91-5.64.43-3.51-.89-7.19-3.45-9.62-2.31-2.19-7.42-4.65-10.15-1.86-1.34,1.36-1.44,3.54-2.07,5.24-.83,2.26-2.17,4.35-3.93,6Z" />
      <path class="cls-3"
        d="M44.5,152.74c.64-2.13.69-4.46,1.78-6.4,1.63-2.89,5.25-4.18,8.57-3.98,3.31.2,6.41,1.63,9.42,3.02,2.18,1.01,4.4,2.06,6.09,3.77,1.69,1.71,2.74,4.25,2.04,6.55-.84,2.76-3.77,4.23-6.44,5.31-4.7,1.89-9.57,3.52-14.61,3.97-3.01.27-10.95.76-12.37-2.88-.77-1.98.81-2.76,2.07-3.93,1.59-1.49,2.83-3.33,3.46-5.43Z" />
      <path class="cls-12"
        d="M9.03,113.11c1.08,2,3.39,3.47,5.6,2.95,2.78-.65,4.05-3.81,6.15-5.74,1.28-1.18,3.09-2.18,3.23-3.91.38-4.72-9.42-6.16-12.62-4.99-4.22,1.53-4.14,8.39-2.36,11.7Z" />
      <path class="cls-21"
        d="M92.98,109.34c-1.38.61-2.97,1.52-3.02,3.02-.03,1.02.71,1.92,1.54,2.51.83.59,1.8.99,2.59,1.64,1.37,1.14,2.04,2.89,2.83,4.48.79,1.6,1.94,3.23,3.67,3.65,2.32.57,4.56-1.31,5.76-3.37,1.77-3.04,3.11-8.74.31-11.63-3.66-3.78-9.58-2.11-13.68-.3Z" />
      <path class="cls-11"
        d="M49.36,131.05c-1.48.07-3.02-.08-4.37.53-1.17.52-2.04,1.56-2.62,2.69-.4.79-.69,1.65-.67,2.54.02.88.39,1.79,1.09,2.32.93.7,2.23.65,3.35.32,1.12-.33,2.16-.88,3.3-1.11,1.68-.33,3.4.09,5.08.38,1.69.29,3.52.42,5.01-.4,1.85-1.02,2.72-3.42,2.19-5.47-.44-1.72-2.67-4.64-4.73-4.33-1.18.18-2.44,1.31-3.6,1.72-1.3.47-2.66.74-4.04.81Z" />
      <path class="cls-41"
        d="M60.85,27.93c-.38-.88-1.32-1.35-2.22-1.69-3.95-1.5-8.4-1.65-12.45-.43-4.05,1.22-7.67,3.82-10.13,7.26l.15.28c1.51-.05,3.06-.49,4.55-.83,2.31-.53,5.01-.73,6.77.85.99.89,1.51,2.21,2.5,3.09,1.73,1.53,4.52,1.28,6.43-.02,1.91-1.3,3.09-3.41,4.02-5.53.41-.94.79-2.03.38-2.97Z" />
    </g>
    <polygon class="cls-50"
      points="92.31 60.53 82 43.35 64.98 55.8 71.83 73.73 58.82 79.6 59.42 88.99 44.92 93.93 68.61 95.35 68.64 84.31 83.37 80.82 81.06 65.24 92.31 60.53" />
    <path class="cls-9"
      d="M129.14,78.6c-3.54,8.42-10.08,14.58-18.17,18.82-11.82,6.18-31,6.38-41.54,15.7-4.94,4.36-5.71,12.65-1.82,18.51.64.96.43,2.25-.4,3.03-.56.52-1.43.53-2,0-4.93-4.47-7.02-11.84-5.14-18.23,1.79-6.12,6.77-10.86,12.29-14.05,5.52-3.19,11.67-5.1,17.58-7.5,7.63-3.11,14.97-7.3,18.68-14.97,6.61-13.68,1.31-34.25-9.99-43.57-9.45-7.79-30.73-6.57-33.79,9.62-.6,3.17-.23,6.28,1.53,8.83,1.17,1.72,2.98,3.19,5.54,4.25l14.76,3.85-5.61,2.34,2.3,15.58-14.73,3.49v1.23c-3.25-.43-6.46-1.02-9.57-1.91-3.85-1.1-7.56-2.66-11.02-4.96-10.47-6.95-17.01-18.3-16.8-30.96.08-5.02,1.15-10.04,3.17-14.64,4.96-11.27,15.11-19.85,26.66-24.09,19.35-7.1,42.67-1.67,56.92,13.22,13.65,14.28,18.93,37.92,11.14,56.38Z" />
    <path class="cls-52"
      d="M119,71.94c-3.22,8.82-10.14,16.43-18.53,20.58-8.99,4.46-19.13,6.62-27.9,11.59-4.28,2.43-8.13,5.61-11.33,9.34.95-1.93,2.21-3.68,3.7-5.27.98-1.07,2.08-2.07,3.24-2.98.72-.57,1.47-1.1,2.23-1.61.64-.42,1.28-.82,1.94-1.2.86-.49,1.73-.96,2.62-1.4.77-.38,1.55-.75,2.32-1.09,1.62-.73,3.27-1.39,4.93-2.04.8-.31,1.6-.62,2.41-.93,1.77-.67,3.54-1.34,5.3-2.05.04-.02.09-.04.13-.05.81-.33,1.61-.68,2.41-1.04,1.73-.77,3.43-1.61,5.04-2.58.83-.47,1.64-.98,2.42-1.54,1.25-.86,2.44-1.8,3.53-2.84,2.06-1.93,3.8-4.18,5.12-6.86,0-.02.02-.05.03-.07.73-1.51,1.31-3.09,1.75-4.73,3.62-13.33-1.68-30.54-11.74-38.83-9.45-7.79-30.73-6.57-33.79,9.62-.6,3.17-.23,6.28,1.53,8.83.52.77,1.17,1.48,1.95,2.13,1.61,1.34,3.62,2.12,5.7,2.43l15.69,2.28-8.64,3.61,1.84,12.45c-10.09,1.83-21.14-2.07-27.59-10.1-5.92-7.37-7.59-17.82-4.65-26.75,5.88-17.85,27.62-26.24,44.82-20.98,9.14,2.81,16.69,9.91,20.83,18.53,4.94,10.31,6.62,22.79,2.7,33.55Z" />
    <path class="cls-40"
      d="M71.94,69.5c2.79.81,4.73,2.59,4.33,3.96-.4,1.37-2.99,1.83-5.78,1.01s-4.73-2.59-4.33-3.96c.4-1.37,2.99-1.83,5.78-1.01Z" />
    <path class="cls-17"
      d="M75.11,61.61c2.79.81,4.73,2.59,4.33,3.96-.4,1.37-2.99,1.83-5.78,1.01-2.79-.81-4.73-2.59-4.33-3.96.4-1.37,2.99-1.83,5.78-1.01Z" />
    <path class="cls-39"
      d="M61.08,62.91c1.95,1.95,2.75,4.3,1.79,5.26s-3.31.16-5.26-1.79-2.75-4.3-1.79-5.26,3.31-.16,5.26,1.79Z" />
    <path class="cls-28"
      d="M56.4,52.11c.29,2.54-.48,4.72-1.74,4.87-1.25.14-2.5-1.8-2.8-4.35-.29-2.54.48-4.72,1.74-4.87,1.25-.14,2.5,1.8,2.8,4.35Z" />
    <path class="cls-23"
      d="M57.47,40.62c-.78,2.15-2.28,3.59-3.34,3.2-1.06-.39-1.28-2.44-.5-4.6.78-2.15,2.28-3.59,3.34-3.2,1.06.39,1.28,2.44.5,4.6Z" />
    <path class="cls-20"
      d="M63.33,32.04c-1.62,1.62-3.58,2.29-4.38,1.49-.8-.8-.13-2.76,1.49-4.38,1.62-1.62,3.58-2.29,4.38-1.49.8.8.13,2.76-1.49,4.38Z" />
    <path class="cls-29"
      d="M62.64,48.05c0,2.17-.86,3.92-1.93,3.92s-1.93-1.76-1.93-3.92.86-3.92,1.93-3.92,1.93,1.76,1.93,3.92Z" />
    <path class="cls-31"
      d="M65.77,39.21c-1.32,1.72-3.07,2.59-3.91,1.95s-.47-2.57.85-4.29c1.32-1.72,3.07-2.59,3.91-1.95.85.65.47,2.57-.85,4.29Z" />
    <path class="cls-6"
      d="M73.64,31.83c-1.87.65-3.65.43-3.96-.49-.32-.92.94-2.19,2.81-2.84,1.87-.65,3.65-.43,3.96.49.32.92-.94,2.19-2.81,2.84Z" />
    <path class="cls-19"
      d="M82.94,29.87c-1.98.12-3.63-.58-3.68-1.55s1.5-1.85,3.47-1.97c1.98-.12,3.63.58,3.68,1.55.06.97-1.5,1.85-3.47,1.97Z" />
    <path class="cls-35"
      d="M92.6,31.09c-1.78-.41-3.05-1.46-2.85-2.33.2-.87,1.81-1.25,3.58-.83s3.05,1.46,2.85,2.33c-.2.87-1.81,1.25-3.58.83Z" />
    <path class="cls-8"
      d="M99.89,35.05c-1.33-1.05-1.98-2.44-1.46-3.09s2.01-.33,3.34.73,1.98,2.44,1.46,3.09-2.01.33-3.34-.73Z" />
    <path class="cls-24"
      d="M105.37,40.86c-.92-1.26-1.16-2.65-.54-3.11.62-.45,1.87.2,2.79,1.47.92,1.26,1.16,2.65.54,3.11-.62.45-1.87-.2-2.79-1.47Z" />
    <path class="cls-48"
      d="M71.86,26.45c-1.95.79-3.85.66-4.24-.3-.39-.96.88-2.38,2.83-3.18,1.95-.79,3.85-.66,4.24.3.39.96-.88,2.38-2.83,3.18Z" />
    <path class="cls-44"
      d="M82.11,23.8c-2.11.12-3.86-.61-3.92-1.65-.06-1.04,1.6-1.98,3.7-2.1,2.11-.12,3.86.61,3.92,1.65.06,1.04-1.6,1.98-3.7,2.1Z" />
    <path class="cls-47"
      d="M93.23,24.6c-2.08-.37-3.61-1.5-3.43-2.52.18-1.02,2.01-1.55,4.09-1.18,2.08.37,3.61,1.5,3.43,2.52-.18,1.02-2.01,1.55-4.09,1.18Z" />
    <path class="cls-34"
      d="M101.93,28.56c-1.58-1.01-2.46-2.46-1.96-3.24.5-.78,2.18-.59,3.76.43,1.58,1.01,2.46,2.46,1.96,3.24s-2.18.59-3.76-.43Z" />
    <path class="cls-18"
      d="M108.2,35.31c-1.11-1.52-1.4-3.19-.65-3.73.75-.54,2.25.25,3.35,1.76,1.11,1.52,1.4,3.19.65,3.73-.75.54-2.25-.25-3.35-1.76Z" />
    <path class="cls-16"
      d="M112.66,43.57c-.62-1.77-.42-3.45.45-3.76.87-.31,2.08.88,2.7,2.65.62,1.77.42,3.45-.45,3.76-.87.31-2.08-.88-2.7-2.65Z" />
    <path class="cls-2"
      d="M115.59,52.18c-.33-1.85.13-3.48,1.04-3.64s1.91,1.2,2.25,3.05c.33,1.85-.13,3.48-1.04,3.64-.91.16-1.91-1.2-2.25-3.05Z" />
    <path class="cls-4"
      d="M116.73,61.09c0-1.63.65-2.95,1.45-2.95s1.45,1.32,1.45,2.95-.65,2.95-1.45,2.95-1.45-1.32-1.45-2.95Z" />
    <path class="cls-14"
      d="M116.18,69.18c.35-1.59,1.27-2.74,2.05-2.57.78.17,1.13,1.6.78,3.19-.35,1.59-1.27,2.74-2.05,2.57-.78-.17-1.13-1.6-.78-3.19Z" />
    <path class="cls-53"
      d="M112.74,76.83c.81-1.41,2.04-2.23,2.73-1.83.69.4.6,1.87-.22,3.28-.81,1.41-2.04,2.23-2.73,1.83-.69-.4-.6-1.87.22-3.28Z" />
    <path class="cls-1"
      d="M107.6,82.81c1.09-1.21,2.45-1.76,3.05-1.23.6.53.2,1.95-.89,3.17-1.09,1.21-2.45,1.76-3.05,1.23s-.2-1.95.89-3.17Z" />
    <path class="cls-38"
      d="M109.12,47.83c-.65-1.46-.6-2.9.12-3.22.72-.32,1.83.6,2.48,2.06.65,1.46.6,2.9-.12,3.22-.72.32-1.83-.6-2.48-2.06Z" />
    <path class="cls-7"
      d="M111.58,56.04c-.38-1.55-.06-2.96.7-3.15.76-.19,1.69.92,2.07,2.48.38,1.55.06,2.96-.7,3.15-.76.19-1.69-.92-2.07-2.48Z" />
    <path class="cls-42"
      d="M112.73,64.04c0-1.42.57-2.57,1.26-2.57s1.26,1.15,1.26,2.57-.57,2.57-1.26,2.57-1.26-1.15-1.26-2.57Z" />
    <path class="cls-10"
      d="M111.99,71.25c.24-1.4,1-2.43,1.68-2.31.69.12,1.05,1.35.81,2.75-.24,1.4-1,2.43-1.68,2.31-.69-.12-1.05-1.35-.81-2.75Z" />
    <path class="cls-5"
      d="M65.79,57.18c1.47,1.75,1.96,3.75,1.1,4.47-.86.72-2.74-.11-4.21-1.85-1.47-1.75-1.96-3.75-1.1-4.47.86-.72,2.74.11,4.21,1.85Z" />
    <path class="cls-49"
      d="M103.27,90.05c-1.35.9-2.82,1.08-3.26.42-.14-.22-.16-.48-.08-.79,1.25-.86,2.44-1.8,3.53-2.84.68-.12,1.22,0,1.47.35.44.67-.31,1.94-1.66,2.84Z" />
    <path class="cls-32"
      d="M95.61,93.9c-1.39.55-2.73.5-3.13-.11,1.73-.77,3.43-1.61,5.04-2.58.1.09.18.19.23.31.3.72-.67,1.79-2.14,2.38Z" />
    <path class="cls-33"
      d="M90.06,94.84c.04.73-.93,1.66-2.31,2.18-1.34.5-2.64.45-3.11-.08,1.77-.67,3.54-1.34,5.3-2.05.04-.02.09-.04.13-.05Z" />
    <path class="cls-27"
      d="M82.23,97.86c-.11.65-.94,1.44-2.13,1.91-1.13.46-2.24.49-2.81.13,1.62-.73,3.27-1.39,4.93-2.04Z" />
    <path class="cls-26"
      d="M74.97,100.99c0,.67-.79,1.57-1.97,2.16-.98.49-1.98.65-2.59.44.64-.42,1.28-.82,1.94-1.2.86-.49,1.73-.96,2.62-1.4Z" />
    <path class="cls-37"
      d="M68.18,105.2c.08.58-.43,1.46-1.31,2.15-.67.52-1.39.82-1.93.84.98-1.07,2.08-2.07,3.24-2.98Z" />
    <path class="cls-36"
      d="M110.86,78.22c-.67,1.15-1.63,1.88-2.27,1.76,0-.02.02-.05.03-.07.73-1.51,1.31-3.09,1.75-4.73.27-.09.5-.08.7.03.63.37.54,1.71-.21,3.01Z" />
  </g>
</svg>