<?xml version="1.0" encoding="UTF-8"?>
<svg id="Capa_2" xmlns="http://www.w3.org/2000/svg" xmlns:xlink="http://www.w3.org/1999/xlink"
  viewBox="0 0 166.88 156.34">
  <defs>
    <style>
      .cls-1 {
        fill: url(#Degradado_sin_nombre_13-5);
      }

      .cls-2 {
        fill: url(#Degradado_sin_nombre_6);
      }

      .cls-3 {
        fill: url(#Degradado_sin_nombre_27-5);
      }

      .cls-4 {
        fill: url(#Degradado_sin_nombre_13-2);
      }

      .cls-5 {
        fill: url(#Degradado_sin_nombre_16);
      }

      .cls-6 {
        fill: url(#Degradado_sin_nombre_12-3);
      }

      .cls-7 {
        fill: url(#Degradado_sin_nombre_13-4);
      }

      .cls-8 {
        fill: url(#Degradado_sin_nombre_13-3);
      }

      .cls-9 {
        stroke: url(#Degradado_sin_nombre_27-2);
      }

      .cls-9,
      .cls-10,
      .cls-11 {
        fill: none;
        stroke-miterlimit: 10;
        stroke-width: 3px;
      }

      .cls-10 {
        stroke: url(#Degradado_sin_nombre_27-4);
      }

      .cls-12 {
        fill: url(#Degradado_sin_nombre_13);
      }

      .cls-13 {
        fill: url(#Degradado_sin_nombre_7);
      }

      .cls-14 {
        fill: url(#Degradado_sin_nombre_3);
      }

      .cls-15 {
        fill: url(#Degradado_sin_nombre_18);
      }

      .cls-16 {
        fill: url(#Degradado_sin_nombre_12-2);
      }

      .cls-17 {
        fill: url(#Degradado_sin_nombre_27);
      }

      .cls-11 {
        stroke: url(#Degradado_sin_nombre_27-3);
      }

      .cls-18 {
        fill: url(#Degradado_sin_nombre_31);
      }

      .cls-19 {
        fill: url(#Degradado_sin_nombre_12);
      }
    </style>
    <linearGradient id="Degradado_sin_nombre_27" x1="83.44" y1="156.34" x2="83.44" y2="4.8"
      gradientUnits="userSpaceOnUse">
      <stop offset="0" stop-color="#e0fdff" />
      <stop offset="1" stop-color="#f5ffff" />
    </linearGradient>
    <linearGradient id="Degradado_sin_nombre_12" x1="83.44" y1="2.87" x2="83.44" y2="153.66"
      gradientUnits="userSpaceOnUse">
      <stop offset="0" stop-color="#1f1f1f" />
      <stop offset="1" stop-color="#0a0a0a" />
    </linearGradient>
    <linearGradient id="Degradado_sin_nombre_7" x1="66.89" y1="84.6" x2="57.01" y2="148.79"
      gradientUnits="userSpaceOnUse">
      <stop offset="0" stop-color="#f80" />
      <stop offset="1" stop-color="#fffb00" />
    </linearGradient>
    <linearGradient id="Degradado_sin_nombre_3" x1="76.91" y1="84.54" x2="74.41" y2="149.72"
      gradientUnits="userSpaceOnUse">
      <stop offset="0" stop-color="#0087ff" />
      <stop offset="1" stop-color="#00f2ff" />
    </linearGradient>
    <linearGradient id="Degradado_sin_nombre_6" x1="101.15" y1="84.05" x2="109.8" y2="148.53"
      gradientUnits="userSpaceOnUse">
      <stop offset="0" stop-color="#ff560e" />
      <stop offset="1" stop-color="#ffbf00" />
    </linearGradient>
    <linearGradient id="Degradado_sin_nombre_18" x1="88.34" y1="84.82" x2="92.51" y2="150.66"
      gradientUnits="userSpaceOnUse">
      <stop offset="0" stop-color="#8ad100" />
      <stop offset="1" stop-color="#dcf500" />
    </linearGradient>
    <linearGradient id="Degradado_sin_nombre_27-2" x1="63.82" y1="117.49" x2="74.33" y2="117.49"
      xlink:href="#Degradado_sin_nombre_27" />
    <linearGradient id="Degradado_sin_nombre_27-3" x1="81.05" y1="117.49" x2="84.94" y2="117.49"
      xlink:href="#Degradado_sin_nombre_27" />
    <linearGradient id="Degradado_sin_nombre_27-4" x1="92.55" y1="117.49" x2="103.06" y2="117.49"
      xlink:href="#Degradado_sin_nombre_27" />
    <linearGradient id="Degradado_sin_nombre_16" x1="5.74" y1="72.59" x2="161.14" y2="72.59"
      gradientUnits="userSpaceOnUse">
      <stop offset="0" stop-color="#3700ff" />
      <stop offset="1" stop-color="#ff00e6" />
    </linearGradient>
    <linearGradient id="Degradado_sin_nombre_31" x1="5.74" y1="86.05" x2="161.14" y2="86.05"
      gradientUnits="userSpaceOnUse">
      <stop offset="0" stop-color="#ff00e6" />
      <stop offset="1" stop-color="#3700ff" />
    </linearGradient>
    <linearGradient id="Degradado_sin_nombre_27-5" x1="82.55" y1="75.3" x2="82.55" y2="8.75"
      xlink:href="#Degradado_sin_nombre_27" />
    <linearGradient id="Degradado_sin_nombre_13" x1="-363.22" y1="2332.57" x2="-352.72" y2="2332.57"
      gradientTransform="translate(2095.16 -1060.49) rotate(52.72)" gradientUnits="userSpaceOnUse">
      <stop offset="0" stop-color="#1f1f1f" />
      <stop offset="1" stop-color="#0a0a0a" />
    </linearGradient>
    <linearGradient id="Degradado_sin_nombre_13-2" x1="2272.54" y1="-1129.98" x2="2283.03" y2="-1129.98"
      gradientTransform="translate(2421.56 -1060.49) rotate(127.28) scale(1 -1)"
      xlink:href="#Degradado_sin_nombre_13" />
    <linearGradient id="Degradado_sin_nombre_13-3" x1="4367.26" y1="-80.98" x2="4376.51" y2="-80.98"
      gradientTransform="translate(4454.43 165.36) rotate(-180) scale(1 -1)" xlink:href="#Degradado_sin_nombre_13" />
    <linearGradient id="Degradado_sin_nombre_13-4" x1="-288.4" y1="1464.51" x2="-278.93" y2="1464.51"
      gradientTransform="translate(1160.8 -913.48) rotate(37.28)" xlink:href="#Degradado_sin_nombre_13" />
    <linearGradient id="Degradado_sin_nombre_13-5" x1="3117.36" y1="-1128.01" x2="3126.83" y2="-1128.01"
      gradientTransform="translate(3283.44 -913.48) rotate(142.72) scale(1 -1)" xlink:href="#Degradado_sin_nombre_13" />
    <linearGradient id="Degradado_sin_nombre_12-2" x1="43.33" y1="27.06" x2="65.71" y2="27.06"
      xlink:href="#Degradado_sin_nombre_12" />
    <linearGradient id="Degradado_sin_nombre_12-3" x1="40.78" y1="46.97" x2="45.22" y2="46.97"
      xlink:href="#Degradado_sin_nombre_12" />
  </defs>
  <g id="OBJECTS">
    <path class="cls-17"
      d="M55.13,156.34c-3.57,0-6.9-1.6-9.14-4.38-2.24-2.78-3.08-6.38-2.31-9.87l8.19-37.29c-2.27-.36-4.48-.76-6.6-1.19C16.5,97.81,0,86.5,0,72.59c0-.66.05-1.34.14-2.08.01-.1.03-.26.06-.42.02-.19.05-.39.09-.59.03-.16.07-.32.11-.47,2.24-10.38,13.66-18.84,33.1-24.56C36.23,19.4,56.61.43,81.7,0c.28,0,.56,0,.84,0,13.01,0,25.28,5.02,34.56,14.13,8.16,8.01,13.26,18.54,14.49,29.83,20.28,5.66,32.64,14.54,34.89,25.14.04.15.08.31.11.47.03.16.05.31.07.47.03.17.06.4.09.64.06.53.1,1.04.11,1.54,0,.13.01.26.01.38,0,14.89-19.79,27.11-51.88,32.21l8.19,37.29c.77,3.49-.08,7.08-2.31,9.87-2.24,2.78-5.57,4.38-9.14,4.38h-56.61Z" />
    <path class="cls-19"
      d="M55.13,153.47c-2.7,0-5.21-1.21-6.9-3.31-1.69-2.1-2.33-4.82-1.75-7.45l8.85-40.29c-3.3-.47-6.48-1.01-9.5-1.62-26.9-5.43-42.97-15.98-42.97-28.21,0-.53.04-1.09.12-1.72.01-.1.03-.23.05-.35.02-.19.04-.33.07-.47.02-.11.05-.22.08-.32,1.99-9.55,13.65-17.68,33-23.05C37.89,22.35,57.51,3.28,81.75,2.88c.26,0,.53,0,.79,0,12.25,0,23.81,4.73,32.55,13.31,8.2,8.05,13.06,18.65,13.82,30.03,20.17,5.29,32.77,13.81,34.79,23.57.03.1.06.2.07.31.02.1.03.2.05.3.03.21.06.4.08.6.06.47.09.91.1,1.35,0,.08.01.17.01.25,0,13.74-20.48,25.31-52.47,29.83l8.85,40.29c.58,2.63-.06,5.35-1.75,7.45-1.69,2.1-4.21,3.31-6.9,3.31h-56.61Z" />
    <path class="cls-13" d="M72.84,84.38l-7.53,66.21h-10.18c-3.82,0-6.67-3.54-5.85-7.27l12.95-58.94h10.6Z" />
    <polygon class="cls-14" points="83.44 84.38 83.44 150.6 65.31 150.6 72.84 84.38 83.44 84.38" />
    <path class="cls-2" d="M94.04,84.38l7.53,66.21h10.18c3.82,0,6.67-3.54,5.85-7.27l-12.95-58.94h-10.6Z" />
    <polygon class="cls-15" points="83.44 84.38 83.44 150.6 101.57 150.6 94.04 84.38 83.44 84.38" />
    <line class="cls-9" x1="72.84" y1="84.38" x2="65.31" y2="150.6" />
    <line class="cls-11" x1="83.44" y1="84.38" x2="82.55" y2="150.6" />
    <line class="cls-10" x1="94.04" y1="84.38" x2="101.57" y2="150.6" />
    <ellipse class="cls-5" cx="83.44" cy="72.59" rx="77.7" ry="28.88" />
    <path class="cls-18"
      d="M161.14,72.59c0,15.96-34.78,28.88-77.7,28.88S5.74,88.55,5.74,72.59c0-.67.06-1.32.18-1.97,2.72,13.09,36.39,23.45,77.52,23.45s74.79-10.36,77.52-23.45c.12.65.18,1.31.18,1.97Z" />
    <path class="cls-3"
      d="M126.16,49.36c0-24.34-19.93-44.02-44.36-43.61-23.92.4-42.87,20.41-42.87,44.33h0c0,8.51,5.16,16.18,13.05,19.39h0c19.6,7.97,41.54,7.97,61.15,0h0c7.89-3.21,13.04-10.88,13.04-19.39,0-.45,0-.72,0-.72Z" />
    <path class="cls-12"
      d="M25.49,71.69c-2.83,2.15-6.54,2.03-8.3-.28-1.76-2.31-.89-5.92,1.94-8.07,2.83-2.15,6.54-2.03,8.3.28,1.76,2.31.89,5.92-1.94,8.07Z" />
    <path class="cls-4"
      d="M139.6,71.69c2.83,2.15,6.54,2.03,8.3-.28,1.76-2.31.89-5.92-1.94-8.07-2.83-2.15-6.54-2.03-8.3.28-1.76,2.31-.89,5.92,1.94,8.07Z" />
    <path class="cls-8"
      d="M77.92,84.38c0,3.13,2.07,5.67,4.62,5.67s4.62-2.54,4.62-5.67-2.07-5.67-4.62-5.67-4.62,2.54-4.62,5.67Z" />
    <path class="cls-7"
      d="M51.8,82.88c-1.94,2.55-5.2,3.34-7.28,1.75-2.08-1.58-2.19-4.94-.25-7.49,1.94-2.55,5.2-3.34,7.28-1.75,2.08,1.58,2.19,4.94.25,7.49Z" />
    <path class="cls-1"
      d="M112.18,82.88c1.94,2.55,5.2,3.34,7.28,1.75,2.08-1.58,2.19-4.94.25-7.49-1.94-2.55-5.2-3.34-7.28-1.75-2.08,1.58-2.19,4.94-.25,7.49Z" />
    <path class="cls-16"
      d="M43.83,36.51c-.3.82-.57,1.68-.48,2.55.1.87.66,1.74,1.52,1.93,1.39.3,2.42-1.22,3.06-2.49,3.7-7.27,8.81-13.82,14.96-19.19,1.33-1.16,4.47-4.49,1.73-6-1.91-1.05-4.87,1.92-6.21,2.99-4.22,3.35-7.84,7.45-10.64,12.04-1.58,2.58-2.9,5.32-3.93,8.17Z" />
    <path class="cls-6"
      d="M40.85,49.37c.1.74.42,1.62,1.16,1.76.68.13,1.29-.45,1.67-1.03.8-1.25,2.98-7.19.12-7.3-2.84-.11-3.18,4.82-2.94,6.57Z" />
  </g>
</svg>