<?xml version="1.0" encoding="UTF-8"?>
<svg id="Capa_2" xmlns="http://www.w3.org/2000/svg" xmlns:xlink="http://www.w3.org/1999/xlink"
  viewBox="0 0 164.46 117.58">
  <defs>
    <style>
      .cls-1 {
        fill: url(#Degradado_sin_nombre_13-5);
      }

      .cls-2 {
        fill: url(#Degradado_sin_nombre_6);
      }

      .cls-3 {
        stroke: url(#Degradado_sin_nombre_8-3);
      }

      .cls-3,
      .cls-4,
      .cls-5 {
        fill: none;
        stroke-linecap: round;
        stroke-linejoin: round;
        stroke-width: 3px;
      }

      .cls-6 {
        fill: url(#Degradado_sin_nombre_13-2);
      }

      .cls-7 {
        fill: url(#Degradado_sin_nombre_6-4);
      }

      .cls-8 {
        fill: url(#Degradado_sin_nombre_12-3);
      }

      .cls-9 {
        fill: url(#Degradado_sin_nombre_13-4);
      }

      .cls-10 {
        fill: url(#Degradado_sin_nombre_11);
      }

      .cls-4 {
        stroke: url(#Degradado_sin_nombre_8);
      }

      .cls-11 {
        fill: url(#Degradado_sin_nombre_13-7);
      }

      .cls-12 {
        fill: url(#Degradado_sin_nombre_9-2);
      }

      .cls-13 {
        fill: url(#Degradado_sin_nombre_7-3);
      }

      .cls-14 {
        fill: url(#Degradado_sin_nombre_13-3);
      }

      .cls-15 {
        fill: url(#Degradado_sin_nombre_6-3);
      }

      .cls-16 {
        fill: url(#Degradado_sin_nombre_2-4);
      }

      .cls-17 {
        fill: url(#Degradado_sin_nombre_6-5);
      }

      .cls-18 {
        fill: url(#Degradado_sin_nombre_13-9);
      }

      .cls-19 {
        fill: url(#Degradado_sin_nombre_11-2);
      }

      .cls-20 {
        fill: url(#Degradado_sin_nombre_2);
      }

      .cls-21 {
        fill: url(#Degradado_sin_nombre_7-4);
      }

      .cls-22 {
        fill: url(#Degradado_sin_nombre_9);
      }

      .cls-23 {
        fill: url(#Degradado_sin_nombre_13-8);
      }

      .cls-5 {
        stroke: url(#Degradado_sin_nombre_8-2);
      }

      .cls-24 {
        fill: url(#Degradado_sin_nombre_13);
      }

      .cls-25 {
        fill: url(#Degradado_sin_nombre_7);
      }

      .cls-26 {
        fill: url(#Degradado_sin_nombre_7-7);
      }

      .cls-27 {
        fill: url(#Degradado_sin_nombre_2-5);
      }

      .cls-28 {
        fill: url(#Degradado_sin_nombre_3);
      }

      .cls-29 {
        fill: url(#Degradado_sin_nombre_13-6);
      }

      .cls-30 {
        fill: url(#Degradado_sin_nombre_2-3);
      }

      .cls-31 {
        fill: url(#Degradado_sin_nombre_14);
      }

      .cls-32 {
        fill: url(#Degradado_sin_nombre_12-2);
      }

      .cls-33 {
        fill: url(#Degradado_sin_nombre_7-6);
      }

      .cls-34 {
        fill: url(#Degradado_sin_nombre_7-5);
      }

      .cls-35 {
        fill: url(#Degradado_sin_nombre_7-2);
      }

      .cls-36 {
        fill: url(#Degradado_sin_nombre_2-2);
      }

      .cls-37 {
        fill: url(#Degradado_sin_nombre_6-2);
      }

      .cls-38 {
        fill: url(#Degradado_sin_nombre_12);
      }
    </style>
    <linearGradient id="Degradado_sin_nombre_14" x1="27.3" y1="83.09" x2="146.71" y2="83.09"
      gradientTransform="translate(.73 -17.38) rotate(.44)" gradientUnits="userSpaceOnUse">
      <stop offset="0" stop-color="#e0fdff" />
      <stop offset="1" stop-color="#f5ffff" />
    </linearGradient>
    <linearGradient id="Degradado_sin_nombre_2" x1="82.23" y1="118.49" x2="82.23" y2="2.13"
      gradientUnits="userSpaceOnUse">
      <stop offset="0" stop-color="#c9ccd1" />
      <stop offset="1" stop-color="#fff" />
    </linearGradient>
    <linearGradient id="Degradado_sin_nombre_12" x1="79.33" y1="111.61" x2="79.33" y2="4.1"
      gradientUnits="userSpaceOnUse">
      <stop offset="0" stop-color="#1f1f1f" />
      <stop offset="1" stop-color="#0a0a0a" />
    </linearGradient>
    <linearGradient id="Degradado_sin_nombre_13" x1="13.66" y1="43.52" x2="29.44" y2="43.52"
      gradientTransform="translate(.73 -17.38) rotate(.44)" gradientUnits="userSpaceOnUse">
      <stop offset="0" stop-color="#1f1f1f" />
      <stop offset="1" stop-color="#0a0a0a" />
    </linearGradient>
    <linearGradient id="Degradado_sin_nombre_13-2" x1="145.48" y1="48.91" x2="161.26" y2="48.91"
      xlink:href="#Degradado_sin_nombre_13" />
    <linearGradient id="Degradado_sin_nombre_13-3" x1="32" y1="38.71" x2="42.76" y2="38.71"
      xlink:href="#Degradado_sin_nombre_13" />
    <linearGradient id="Degradado_sin_nombre_13-4" x1="34.52" y1="113.49" x2="45.27" y2="113.49"
      xlink:href="#Degradado_sin_nombre_13" />
    <linearGradient id="Degradado_sin_nombre_13-5" x1="93.82" y1="125.98" x2="104.57" y2="125.98"
      xlink:href="#Degradado_sin_nombre_13" />
    <linearGradient id="Degradado_sin_nombre_13-6" x1="128.2" y1="34.48" x2="138.95" y2="34.48"
      xlink:href="#Degradado_sin_nombre_13" />
    <linearGradient id="Degradado_sin_nombre_13-7" x1="26.15" y1="26.45" x2="39.05" y2="26.45"
      xlink:href="#Degradado_sin_nombre_13" />
    <linearGradient id="Degradado_sin_nombre_13-8" x1="48.35" y1="123.02" x2="61.26" y2="123.02"
      xlink:href="#Degradado_sin_nombre_13" />
    <linearGradient id="Degradado_sin_nombre_13-9" x1="108.78" y1="121.12" x2="121.68" y2="121.12"
      xlink:href="#Degradado_sin_nombre_13" />
    <linearGradient id="Degradado_sin_nombre_9" x1="507.8" y1="1052.21" x2="652.1" y2="1026.88"
      gradientTransform="translate(1.55 -1131.05) rotate(25.11)" gradientUnits="userSpaceOnUse">
      <stop offset="0" stop-color="#ffbf00" />
      <stop offset="1" stop-color="#ff560e" />
    </linearGradient>
    <linearGradient id="Degradado_sin_nombre_7" x1="6.75" y1="80.72" x2="151.06" y2="55.39"
      gradientTransform="translate(.73 -17.38) rotate(.44)" gradientUnits="userSpaceOnUse">
      <stop offset="0" stop-color="#f80" />
      <stop offset="1" stop-color="#fffb00" />
    </linearGradient>
    <linearGradient id="Degradado_sin_nombre_3" x1="83.22" y1="116.66" x2="83.22" y2="24.02"
      gradientTransform="translate(57.31 -52.11) rotate(35.84)" gradientUnits="userSpaceOnUse">
      <stop offset="0" stop-color="#0087ff" />
      <stop offset="1" stop-color="#00f2ff" />
    </linearGradient>
    <linearGradient id="Degradado_sin_nombre_2-2" x1="55.15" y1="32.37" x2="76.96" y2="32.37"
      xlink:href="#Degradado_sin_nombre_2" />
    <linearGradient id="Degradado_sin_nombre_12-2" x1="57.7" y1="45.34" x2="69.94" y2="45.34"
      gradientTransform="translate(.73 -17.38) rotate(.44)" xlink:href="#Degradado_sin_nombre_12" />
    <linearGradient id="Degradado_sin_nombre_2-3" x1="90.18" y1="32.64" x2="111.98" y2="32.64"
      xlink:href="#Degradado_sin_nombre_2" />
    <linearGradient id="Degradado_sin_nombre_12-3" x1="6516.66" y1="3831.54" x2="6528.9" y2="3831.54"
      gradientTransform="translate(6595.95 3917.31) rotate(-179.56)" xlink:href="#Degradado_sin_nombre_12" />
    <linearGradient id="Degradado_sin_nombre_11" x1="144.24" y1="62.52" x2="144.13" y2="61.86"
      gradientTransform="translate(.73 -17.38) rotate(.44)" gradientUnits="userSpaceOnUse">
      <stop offset="0" stop-color="#ffaa0e" />
      <stop offset="1" stop-color="#fffa00" />
    </linearGradient>
    <linearGradient id="Degradado_sin_nombre_7-2" x1="9.18" y1="94.6" x2="153.5" y2="69.27"
      xlink:href="#Degradado_sin_nombre_7" />
    <linearGradient id="Degradado_sin_nombre_11-2" x1="18.23" y1="80.69" x2="18.12" y2="80.06"
      xlink:href="#Degradado_sin_nombre_11" />
    <linearGradient id="Degradado_sin_nombre_9-2" x1="510.24" y1="1066.09" x2="654.54" y2="1040.76"
      xlink:href="#Degradado_sin_nombre_9" />
    <linearGradient id="Degradado_sin_nombre_8" x1="5088.98" y1="-920.4" x2="5124.51" y2="-920.4"
      gradientTransform="translate(5099.39 -1265.4) rotate(175.44)" gradientUnits="userSpaceOnUse">
      <stop offset="0" stop-color="#141414" />
      <stop offset="1" stop-color="#141414" />
    </linearGradient>
    <linearGradient id="Degradado_sin_nombre_8-2" x1="5121.91" y1="-918.06" x2="5126.85" y2="-918.06"
      xlink:href="#Degradado_sin_nombre_8" />
    <linearGradient id="Degradado_sin_nombre_8-3" x1="1404.14" y1="4483.44" x2="1409.08" y2="4483.44"
      gradientTransform="translate(-1658.2 -4298.94) rotate(-4.56)" xlink:href="#Degradado_sin_nombre_8" />
    <linearGradient id="Degradado_sin_nombre_7-3" x1="16.53" y1="43.52" x2="26.58" y2="43.52"
      xlink:href="#Degradado_sin_nombre_7" />
    <linearGradient id="Degradado_sin_nombre_6" x1="148.34" y1="48.91" x2="158.4" y2="48.91"
      gradientTransform="translate(.73 -17.38) rotate(.44)" gradientUnits="userSpaceOnUse">
      <stop offset="0" stop-color="#ff560e" />
      <stop offset="1" stop-color="#ffbf00" />
    </linearGradient>
    <linearGradient id="Degradado_sin_nombre_7-4" x1="34.87" y1="38.71" x2="39.89" y2="38.71"
      xlink:href="#Degradado_sin_nombre_7" />
    <linearGradient id="Degradado_sin_nombre_6-2" x1="37.38" y1="113.49" x2="42.41" y2="113.49"
      xlink:href="#Degradado_sin_nombre_6" />
    <linearGradient id="Degradado_sin_nombre_7-5" x1="96.68" y1="125.98" x2="101.71" y2="125.98"
      xlink:href="#Degradado_sin_nombre_7" />
    <linearGradient id="Degradado_sin_nombre_6-3" x1="131.06" y1="34.48" x2="136.09" y2="34.48"
      xlink:href="#Degradado_sin_nombre_6" />
    <linearGradient id="Degradado_sin_nombre_7-6" x1="29.01" y1="26.45" x2="36.19" y2="26.45"
      xlink:href="#Degradado_sin_nombre_7" />
    <linearGradient id="Degradado_sin_nombre_6-4" x1="51.22" y1="123.02" x2="58.4" y2="123.02"
      xlink:href="#Degradado_sin_nombre_6" />
    <linearGradient id="Degradado_sin_nombre_7-7" x1="111.64" y1="121.12" x2="118.82" y2="121.12"
      xlink:href="#Degradado_sin_nombre_7" />
    <linearGradient id="Degradado_sin_nombre_6-5" x1="129.81" y1="49.26" x2="136.99" y2="49.26"
      xlink:href="#Degradado_sin_nombre_6" />
    <linearGradient id="Degradado_sin_nombre_2-4" x1="38.12" y1="53.32" x2="48.41" y2="25.88"
      xlink:href="#Degradado_sin_nombre_2" />
    <linearGradient id="Degradado_sin_nombre_2-5" x1="37.78" y1="53.19" x2="48.07" y2="25.75"
      xlink:href="#Degradado_sin_nombre_2" />
  </defs>
  <g id="OBJECTS">
    <path class="cls-31"
      d="M30.8,33.41c-1.01-.04-2.02-.06-3.03-.07-.04,0-.08,0-.13,0l.45-.8,1.33-.71c1.85-.99,3.05-2.85,3.24-4.91.72,1.21,1.82,2.1,3.1,2.57-.67,1.33-1.3,2.7-1.87,4.11-1.09-.08-2.1-.13-3.08-.18ZM44.99,91.23s0-.01-.01-.02c.03,0,.07,0,.1,0,.09.09.18.17.26.25-.12-.08-.23-.16-.35-.24ZM104.19,104.18c-.15-.27-.33-.53-.52-.77.84-.34,1.66-.7,2.48-1.09-.28.69-.44,1.44-.44,2.21,0,.34.03.67.08,1-.45-.54-.98-1-1.61-1.36ZM141.43,37.04c.89-.96,1.45-2.2,1.59-3.53.27,1.92,1.41,3.62,3.14,4.58l.84.47c-1.05-.38-2.05-.67-3.01-.93-.84-.22-1.69-.41-2.56-.59Z" />
    <path class="cls-20"
      d="M164.46,32.77c-.02,2.28-1.27,4.36-3.29,5.44l-1.32.72-.74,1.31c-.91,1.64-2.51,2.76-4.32,3.09.81.83,1.54,1.78,2.14,2.83.8,1.44,1.32,2.91,1.57,4.41.24,1.54.22,3.12-.07,4.63-.27,1.31-.68,2.51-1.22,3.62-.93,1.88-2.05,3.24-2.93,4.22-1.89,2.04-3.68,3.37-5.35,4.5-.61.41-1.24.81-1.88,1.2,1.1.78,2.14,1.55,3.12,2.35,1.57,1.31,3.22,2.8,4.86,4.94.86,1.17,1.81,2.6,2.53,4.59.41,1.14.69,2.36.81,3.61.12,1.63-.02,3.17-.42,4.65-.42,1.51-1.11,2.94-2,4.19-.79,1.07-1.66,2-2.62,2.78-1.62,1.33-3.21,2.1-4.41,2.61-2.57,1.06-4.76,1.53-6.75,1.86-4.12.66-7.83.75-10.93.75h-.42c-2.53-.02-5.13-.13-7.86-.31.9,1.08,1.41,2.45,1.4,3.91-.02,2.23-1.25,4.26-3.22,5.32l-.51.28-.3.52c-1.08,1.94-3.13,3.14-5.36,3.12s-4.25-1.24-5.31-3.2l-.29-.53-.52-.29c-.68-.37-1.25-.88-1.73-1.46.05.32.08.63.08.96,0,2.16-1.18,4.14-3.07,5.18-1.08,1.87-3.07,3.01-5.22,3-2.16-.02-4.14-1.19-5.18-3.07-1.87-1.08-3.01-3.08-2.99-5.24,0-.87.21-1.7.56-2.46-2.73.4-5.49.61-8.28.59-6.81-.06-13.49-1.44-19.71-3.97.4.83.63,1.74.62,2.69-.02,2.23-1.25,4.26-3.21,5.32l-.52.28-.3.52c-1.08,1.95-3.13,3.14-5.36,3.12-2.23,0-4.26-1.25-5.32-3.21l-.28-.52-.52-.29c-1.94-1.08-3.14-3.13-3.12-5.36,0-2.23,1.24-4.26,3.2-5.32l.53-.29.29-.52c.65-1.16,1.65-2.06,2.84-2.59-1.83-1.31-3.59-2.74-5.25-4.29.71,1,1.11,2.22,1.1,3.5-.02,2.16-1.19,4.13-3.07,5.18-1.08,1.86-3.08,3-5.23,2.99-2.16-.02-4.14-1.19-5.18-3.08-1.86-1.07-3-3.06-2.99-5.22.02-2.16,1.19-4.14,3.07-5.18.03-.05.07-.09.1-.14-3.34-.17-6.53-.43-9.61-.81-3.1-.4-6.78-.97-10.74-2.14-1.96-.6-4.08-1.34-6.42-2.69-1.24-.73-2.68-1.67-4.13-3.21-.83-.87-1.57-1.88-2.18-2.98-.77-1.44-1.26-2.91-1.49-4.41-.21-1.55-.16-3.13.15-4.63.31-1.33.72-2.49,1.3-3.59.97-1.87,2.12-3.19,3.01-4.14,1.18-1.2,2.32-2.14,3.41-2.94-.5-.58-.97-1.18-1.42-1.81-.82-1.19-1.73-2.64-2.4-4.64-.39-1.15-.64-2.37-.74-3.62-.09-1.63.08-3.18.5-4.63.45-1.5,1.16-2.92,2.06-4.15.84-1.08,1.7-1.96,2.68-2.73,1.66-1.3,3.26-2.02,4.48-2.5,1.29-.49,2.49-.83,3.61-1.08-.12-.18-.25-.35-.34-.54l-.71-1.33-1.32-.73c-1.99-1.11-3.22-3.22-3.2-5.5.02-2.28,1.27-4.36,3.28-5.44l1.33-.72.74-1.31c1.1-1.99,3.21-3.22,5.49-3.2,2.28.02,4.37,1.28,5.45,3.29l.71,1.32,1.31.73s.08.06.12.08c.11-1.03.48-2.01,1.08-2.84-1.24-.54-2.29-1.48-2.95-2.71l-.29-.53-.52-.29c-1.94-1.08-3.14-3.14-3.12-5.37,0-2.22,1.24-4.25,3.19-5.31l.53-.29.3-.52C28.91,1.18,30.97-.02,33.19,0c2.23.02,4.26,1.24,5.32,3.2l.29.53.52.29c1.94,1.08,3.14,3.14,3.12,5.37-.02,1.77-.81,3.41-2.12,4.54,1.13.52,2.1,1.39,2.73,2.52.42.25.8.54,1.14.87C54.13,6.56,68.26.27,83.81.38c18.55.14,35.53,9.82,45.17,25.51.32-.4.68-.75,1.08-1.05-.5-.44-.95-.97-1.28-1.57-1.86-1.08-3.01-3.07-2.99-5.23.02-2.16,1.2-4.13,3.07-5.17,1.07-1.87,3.07-3.01,5.23-3,2.16.02,4.14,1.19,5.18,3.08,1.86,1.06,3,3.05,2.99,5.21-.02,2.17-1.19,4.15-3.07,5.19-.39.66-.9,1.23-1.48,1.69.56.48,1.04,1.05,1.4,1.73l.29.53.52.29c1.69.94,2.82,2.62,3.07,4.5.18-2.08,1.39-3.94,3.25-4.94l1.32-.71.73-1.31c1.11-1.99,3.22-3.22,5.5-3.2,2.28.02,4.36,1.28,5.45,3.29l.71,1.32,1.31.73c1.99,1.1,3.22,3.21,3.2,5.5Z" />
    <path class="cls-38"
      d="M152.15,61.12c.8-.88,1.71-2,2.48-3.57.44-.88.76-1.84.98-2.88.22-1.19.25-2.43.06-3.64-.19-1.16-.61-2.34-1.22-3.44-.51-.88-1.12-1.68-1.8-2.37-1.23-1.25-2.46-2-3.53-2.6-2.12-1.14-4.05-1.74-5.85-2.22-2.88-.75-5.61-1.16-8.08-1.43.55-.29,1.02-.72,1.33-1.29l.7-1.25,1.27-.68c1.04-.56,1.69-1.64,1.69-2.82,0-1.18-.63-2.27-1.65-2.84l-1.25-.7-.68-1.27c-.56-1.04-1.64-1.69-2.81-1.7-1.18,0-2.27.62-2.84,1.66l-.7,1.25-1.26.68c-.25.13-.47.3-.67.48C119.79,14.19,102.74,3.39,83.79,3.24c-21.7-.17-40.7,13.15-48,33.36-.29-.03-.58-.05-.87-.07-1.54-.12-2.92-.21-4.22-.26-.98-.04-1.96-.06-2.95-.07-2.75-.02-5.1.11-7.44.4-1.82.25-3.81.59-6.1,1.46-1.1.44-2.41,1.03-3.78,2.1-.77.6-1.48,1.31-2.13,2.16-.71.97-1.27,2.08-1.62,3.24-.33,1.13-.46,2.37-.39,3.62.08,1.01.28,2,.59,2.92.56,1.66,1.33,2.88,2.03,3.9,1.17,1.64,2.38,2.88,3.55,3.97-.29.17-.58.35-.87.53-1.55.98-3.21,2.13-4.93,3.88-.81.85-1.76,1.94-2.55,3.48-.45.87-.8,1.81-1.03,2.86-.24,1.18-.28,2.42-.12,3.62.18,1.17.57,2.35,1.16,3.46.49.89,1.09,1.7,1.75,2.41,1.21,1.28,2.41,2.07,3.47,2.69,2.1,1.2,4.02,1.87,5.82,2.42,3.75,1.11,7.29,1.66,10.27,2.04,5.1.62,10.47.95,16.43.99,1,0,2,0,3.01,0,.48,0,.95-.01,1.43-.03,9.48,10.21,22.79,16.09,36.73,16.2,9.83.07,19.34-2.66,27.59-7.92.4.06.8.12,1.22.17,7.25.93,13.29,1.39,19,1.43h.41c2.98,0,6.56-.08,10.45-.71,1.82-.31,3.82-.73,6.09-1.67,1.09-.47,2.39-1.1,3.74-2.21.76-.62,1.46-1.35,2.09-2.21.7-.98,1.24-2.11,1.57-3.28.31-1.14.43-2.38.33-3.63-.09-1.01-.31-1.99-.65-2.9-.6-1.65-1.39-2.85-2.12-3.83-1.46-1.92-2.96-3.27-4.39-4.46-2.34-1.91-4.7-3.46-6.86-4.75,1.85-.94,3.82-2.04,5.82-3.38,1.52-1.04,3.16-2.25,4.84-4.06ZM26.99,72.56c-2.8-.24-5.13-.58-7.08-1.02,1.42-.91,3.09-1.82,5.13-2.79,2.46,1.41,5.02,2.78,7.73,4.12-2.04-.06-3.95-.16-5.77-.32ZM32.81,51.7c-1.66.5-3.25,1.02-4.8,1.54-1.88-1.11-3.45-2.15-4.75-3.15,1.99-.28,4.3-.4,7.15-.41h.26c.75,0,1.51.02,2.27.05-.06.66-.1,1.31-.13,1.96ZM134.03,52.5c1.73.28,3.23.59,4.57.95-1.3.75-2.82,1.51-4.59,2.29.02-.5.03-.99.03-1.47,0-.58,0-1.17-.02-1.77ZM131.73,38.66h-.03s0-.02,0-.03c.01,0,.02.02.04.03ZM134.08,83.39c-.84,0-1.69-.03-2.52-.06-2.05-.09-4.23-.27-6.58-.53,1.37-1.96,2.6-4.02,3.67-6.15,1.17.65,2.24,1.28,3.24,1.88,0,0,.74.44.94.57,2.41,1.51,4.29,2.83,5.83,4.11-1.36.13-2.87.18-4.58.17Z" />
    <path class="cls-24"
      d="M15.79,29.21l2.05,1.14,1.11,2.07c.58,1.08,1.71,1.76,2.94,1.77,1.23,0,2.37-.65,2.97-1.73l1.14-2.05,2.07-1.11c1.08-.58,1.76-1.71,1.77-2.94.01-1.23-.65-2.37-1.73-2.97l-2.05-1.14-1.11-2.06c-.58-1.09-1.71-1.77-2.94-1.78-1.23,0-2.37.65-2.97,1.73l-1.14,2.05-2.07,1.11c-1.08.58-1.76,1.71-1.77,2.94,0,1.23.65,2.37,1.73,2.97Z" />
    <path class="cls-6"
      d="M159.87,29.78l-2.05-1.14-1.11-2.06c-.58-1.09-1.71-1.77-2.94-1.78-1.23,0-2.37.65-2.97,1.73l-1.14,2.05-2.06,1.11c-1.09.58-1.77,1.71-1.78,2.94-.01,1.23.65,2.37,1.73,2.97l2.05,1.14,1.11,2.07c.58,1.09,1.71,1.77,2.94,1.78,1.23,0,2.37-.66,2.97-1.73l1.14-2.05,2.06-1.11c1.09-.58,1.77-1.71,1.78-2.94,0-1.23-.66-2.37-1.73-2.97Z" />
    <path class="cls-14"
      d="M35.1,17.84l-.37.66-.67.36c-1,.54-1.63,1.58-1.64,2.72,0,1.14.6,2.19,1.6,2.74l.66.37.35.66c.54,1.01,1.58,1.64,2.72,1.65,1.14,0,2.19-.6,2.75-1.6l.37-.66.67-.36c1-.54,1.63-1.58,1.64-2.72,0-1.14-.6-2.19-1.6-2.75l-.66-.37-.36-.67c-.54-1-1.58-1.63-2.72-1.63-1.14,0-2.19.61-2.75,1.6Z" />
    <path class="cls-9"
      d="M43.53,93.69l-.66-.37-.36-.67c-.54-1-1.58-1.63-2.72-1.63-1.14,0-2.19.6-2.75,1.6l-.37.66-.67.36c-1,.54-1.63,1.58-1.64,2.72,0,1.14.6,2.19,1.6,2.74l.66.37.36.67c.54,1,1.58,1.63,2.72,1.63,1.14,0,2.19-.6,2.74-1.6l.37-.66.66-.36c1-.54,1.63-1.58,1.64-2.72,0-1.14-.6-2.19-1.6-2.75Z" />
    <path class="cls-1"
      d="M102.73,106.63l-.66-.37-.36-.67c-.54-1-1.58-1.63-2.72-1.63-1.14,0-2.19.61-2.74,1.6l-.37.66-.66.35c-1,.54-1.63,1.58-1.64,2.72,0,1.14.6,2.19,1.6,2.75l.66.37.36.66c.54,1.01,1.58,1.64,2.72,1.64,1.14,0,2.19-.6,2.75-1.6l.37-.66.66-.35c1.01-.54,1.64-1.58,1.64-2.73,0-1.14-.61-2.19-1.6-2.74Z" />
    <path class="cls-29"
      d="M130.25,20.81l.66.37.35.66c.54,1.01,1.58,1.64,2.72,1.64,1.14,0,2.19-.6,2.75-1.6l.37-.66.67-.36c1-.54,1.63-1.58,1.64-2.72,0-1.14-.61-2.19-1.6-2.74l-.66-.37-.36-.67c-.54-1-1.58-1.63-2.72-1.63-1.14,0-2.19.61-2.75,1.6l-.37.66-.66.35c-1,.54-1.63,1.58-1.64,2.72,0,1.14.6,2.19,1.6,2.75Z" />
    <path class="cls-11"
      d="M28.33,12.1l1.25.7.68,1.27c.56,1.04,1.64,1.69,2.81,1.7,1.18,0,2.27-.62,2.84-1.66l.7-1.25,1.26-.68c1.04-.56,1.69-1.63,1.7-2.81,0-1.18-.62-2.27-1.65-2.84l-1.25-.7-.68-1.27c-.56-1.04-1.64-1.69-2.81-1.7-1.18,0-2.27.62-2.84,1.66l-.7,1.25-1.27.68c-1.04.56-1.69,1.64-1.69,2.82,0,1.18.63,2.27,1.65,2.84Z" />
    <path class="cls-23"
      d="M59.39,103.25l-1.25-.7-.68-1.26c-.56-1.04-1.64-1.69-2.82-1.7-1.18,0-2.27.63-2.84,1.65l-.7,1.25-1.27.68c-1.04.56-1.69,1.64-1.7,2.82,0,1.18.63,2.27,1.66,2.84l1.25.7.68,1.26c.56,1.04,1.64,1.69,2.82,1.7,1.18,0,2.27-.62,2.84-1.65l.7-1.25,1.26-.68c1.04-.56,1.69-1.63,1.7-2.81,0-1.18-.62-2.27-1.66-2.84Z" />
    <path class="cls-18"
      d="M119.82,101.81l-1.25-.7-.68-1.27c-.56-1.04-1.64-1.69-2.81-1.7-1.18,0-2.27.62-2.84,1.66l-.7,1.25-1.27.68c-1.04.56-1.69,1.64-1.69,2.82,0,1.18.63,2.27,1.65,2.84l1.25.7.68,1.27c.56,1.04,1.64,1.69,2.81,1.7,1.18,0,2.27-.62,2.84-1.65l.7-1.25,1.26-.68c1.04-.56,1.69-1.64,1.7-2.82s-.63-2.27-1.65-2.84Z" />
    <path class="cls-22"
      d="M48.37,48.21c6,.84,12,1.9,17.96,3.19,5.96,1.3,11.88,2.78,17.76,4.42,11.75,3.32,23.31,7.4,34.34,12.45,5.15,2.37,10.21,4.94,14.95,7.82l3.67-6.77c-5.2-2.84-10.51-5.21-15.88-7.4-5.8-2.36-11.66-4.49-17.56-6.49-2.94-1.01-5.91-1.96-8.87-2.9-2.96-.94-5.94-1.84-8.93-2.7-5.96-1.76-11.98-3.37-18.04-4.79-6.06-1.43-12.17-2.73-18.35-3.75-4.86-.8-9.74-1.5-14.73-1.9l-1.1,7.52c4.89.17,9.84.64,14.77,1.31Z" />
    <path class="cls-25"
      d="M41.94,59.35c5.8-1.75,11.7-3.28,17.65-4.6,5.95-1.31,11.96-2.43,17.98-3.4,12.06-1.89,24.27-3.01,36.4-3.03,5.67,0,11.34.23,16.85.87l.51-7.69c-5.91-.41-11.73-.35-17.52-.09-6.26.27-12.47.79-18.67,1.43-3.1.31-6.19.69-9.27,1.07-3.09.38-6.17.81-9.24,1.27-6.15.89-12.29,1.94-18.39,3.18-6.11,1.23-12.2,2.6-18.24,4.25-4.75,1.3-9.48,2.7-14.17,4.43l2.14,7.29c4.51-1.89,9.21-3.53,13.97-4.97Z" />
    <circle class="cls-28" cx="83.41" cy="53.89" r="47.78" transform="translate(-15.8 58.29) rotate(-35.41)" />
    <path class="cls-36"
      d="M76.96,32.46c-.06,8.46-5,15.27-11.02,15.23-6.02-.05-10.85-6.94-10.78-15.39.06-8.46,5-15.27,11.02-15.23,6.02.05,10.85,6.94,10.78,15.39Z" />
    <path class="cls-32"
      d="M70.32,28.48c-.04,4.75-2.81,8.57-6.18,8.55-3.38-.03-6.09-3.89-6.05-8.64,0-.28.01-.55.03-.81l5.66-1.59-5-1.48c1.03-2.78,3.1-4.68,5.49-4.66,3.38.03,6.09,3.89,6.05,8.64Z" />
    <path class="cls-30"
      d="M90.18,32.56c.06-8.46,5-15.27,11.02-15.23,6.02.05,10.85,6.94,10.78,15.39-.06,8.46-5,15.27-11.02,15.23-6.02-.05-10.85-6.94-10.78-15.39Z" />
    <path class="cls-8"
      d="M96.82,36.53c.04-4.75,2.81-8.57,6.18-8.55,3.38.03,6.09,3.89,6.05,8.64,0,.28-.01.55-.03.81l-5.66,1.59,5,1.48c-1.03,2.78-3.1,4.68-5.49,4.66-3.38-.03-6.09-3.89-6.05-8.64Z" />
    <path class="cls-10"
      d="M144.61,46.21c-.04-.06-.07-.14-.09-.25-.04-.14-.03-.27-.02-.34,0-.05,0-.05-.05.02-.03.06-.1.15-.18.26.16.12.28.23.33.3Z" />
    <path class="cls-35"
      d="M152.85,51.5c-.15-.9-.47-1.75-.87-2.48-.41-.71-.88-1.31-1.36-1.79-.97-.98-1.92-1.58-2.84-2.08-1.83-.98-3.54-1.52-5.22-1.97-3.35-.87-6.57-1.28-9.78-1.57-.48-.04-.96-.07-1.44-.1l-.51,7.69c.38.04.75.08,1.13.13,2.91.37,5.81.88,8.4,1.67,1.28.39,2.5.87,3.36,1.39.2.12.37.24.52.35.08-.11.15-.2.18-.26.05-.07.04-.08.05-.02-.01.07-.02.2.02.34.02.11.05.19.09.25,0,0,0,0,0,0,.06.07.04.09.03.05-.01-.01-.02-.04-.03-.06-.05-.07-.17-.18-.33-.3-.12.16-.29.35-.49.55-.69.7-1.74,1.46-2.86,2.16-2.27,1.41-4.91,2.63-7.61,3.74-5.43,2.2-11.19,3.94-17,5.47-11.65,3.05-23.58,5.36-35.56,7.26-5.99.96-12,1.77-18.03,2.39-6.02.63-12.06,1.13-18.07,1.34-6.01.22-12.03.27-17.87-.23-2.9-.25-5.79-.64-8.38-1.3-1.28-.33-2.51-.75-3.38-1.2-.26-.13-.48-.27-.65-.39-.11.16-.19.29-.22.38,0,.03,0,.06-.02.07,0,.04-.03.03.01-.06,0,0,0-.01,0-.01.01-.07.02-.15,0-.25,0-.14-.05-.26-.08-.32,0-.05-.02-.04.05.01.04.04.13.11.24.18.11-.15.24-.33.4-.5.67-.76,1.69-1.58,2.8-2.34,2.24-1.53,4.85-2.87,7.52-4.1.96-.44,1.93-.85,2.91-1.27l-2.14-7.29c-1.28.47-2.56.96-3.84,1.48-2.97,1.23-5.93,2.58-8.87,4.41-1.47.93-2.94,1.95-4.39,3.43-.72.76-1.46,1.61-2.09,2.83-.31.6-.59,1.32-.76,2.11-.17.82-.22,1.72-.09,2.62.14.9.44,1.76.83,2.5.4.72.86,1.33,1.33,1.83.95,1.01,1.9,1.64,2.81,2.18,1.82,1.04,3.53,1.65,5.21,2.16,3.35.99,6.58,1.53,9.8,1.94,6.42.78,12.75,1.02,19.06.97,6.3-.07,12.58-.37,18.82-.9,6.24-.54,12.46-1.28,18.66-2.17,12.38-1.84,24.66-4.45,36.71-8.17,6.02-1.88,12-3.99,17.89-6.67,2.95-1.35,5.88-2.82,8.78-4.77,1.45-.99,2.9-2.07,4.33-3.61.71-.79,1.43-1.67,2.04-2.92.3-.61.56-1.34.73-2.15.15-.82.19-1.73.05-2.64Z" />
    <path class="cls-19"
      d="M18.13,62.89c.03.06.07.18.08.32.02.1,0,.18,0,.25.03-.09.11-.22.22-.38-.11-.07-.19-.14-.24-.18-.07-.06-.06-.06-.05-.01Z" />
    <path class="cls-12"
      d="M152.42,87.39c.24-.88.31-1.78.24-2.62-.08-.81-.26-1.56-.49-2.2-.47-1.29-1.09-2.24-1.71-3.08-1.26-1.66-2.58-2.86-3.92-3.97-2.68-2.19-5.44-3.91-8.23-5.51-.42-.24-.84-.46-1.26-.69l-3.67,6.77c.32.2.65.39.97.59,2.49,1.56,4.91,3.22,6.94,5.02,1,.89,1.91,1.84,2.48,2.67.13.19.24.37.32.53.12-.06.22-.12.27-.16.07-.05.07-.05.05,0-.04.06-.1.17-.12.31-.03.1-.03.19-.02.26,0,0,0,0,0,.01.03.09,0,.1,0,.06,0-.02,0-.04,0-.07-.02-.09-.08-.24-.17-.41-.18.09-.41.2-.67.29-.92.34-2.19.6-3.5.77-2.65.33-5.57.34-8.48.22-5.85-.27-11.82-1.09-17.74-2.12-11.86-2.1-23.66-4.97-35.34-8.25-5.84-1.63-11.65-3.41-17.38-5.36-5.74-1.94-11.43-4.01-16.98-6.32-5.55-2.31-11.04-4.78-16.14-7.66-2.53-1.44-5-3-7.07-4.68-1.03-.83-1.96-1.72-2.57-2.5-.18-.23-.32-.45-.43-.62-.17.1-.29.19-.36.25-.02.02-.03.05-.05.06-.02.04-.04.01.03-.05,0,0,0,0,.01,0,.04-.05.08-.13.11-.22.05-.13.07-.26.06-.33.01-.05,0-.05.04.03.02.06.07.15.14.26.16-.09.36-.19.57-.29.92-.41,2.2-.73,3.52-.95,2.67-.45,5.61-.58,8.55-.59,1.05,0,2.11.03,3.18.07l1.1-7.52c-1.36-.11-2.73-.2-4.11-.26-3.22-.12-6.47-.13-9.9.31-1.72.23-3.49.55-5.43,1.29-.97.39-2,.85-3.08,1.7-.53.42-1.08.95-1.58,1.6-.49.67-.91,1.47-1.18,2.34-.25.88-.34,1.78-.29,2.61.06.82.23,1.57.45,2.22.44,1.31,1.04,2.28,1.65,3.15,1.22,1.71,2.52,2.97,3.83,4.14,2.63,2.3,5.34,4.13,8.09,5.86,5.51,3.4,11.17,6.25,16.92,8.84,5.76,2.57,11.58,4.91,17.48,7.04,5.9,2.12,11.86,4.04,17.86,5.82,12.02,3.5,24.26,6.25,36.77,7.9,6.26.8,12.57,1.38,19.04,1.41,3.25,0,6.52-.11,9.97-.67,1.73-.3,3.5-.67,5.45-1.47.97-.42,2-.92,3.07-1.8.53-.43,1.07-.99,1.56-1.65.48-.69.89-1.5,1.15-2.37Z" />
    <path class="cls-4"
      d="M98.55,59.02c-3.24.26-3.6-4.28-6.85-4.02-3.24.26-2.88,4.8-6.12,5.06-3.24.26-3.6-4.28-6.85-4.02-3.24.26-2.88,4.8-6.13,5.06-3.24.26-3.61-4.28-6.85-4.02" />
    <path class="cls-5" d="M64.49,60.23c.76-.93,1.08-2.21.83-3.38-.25-1.17-1.06-2.22-2.13-2.75" />
    <path class="cls-3" d="M100.26,55.22c-.76.93-1.08,2.21-.83,3.38.25,1.17,1.06,2.22,2.13,2.75" />
    <path class="cls-13"
      d="M22.43,21.54l1.44,2.67c.05.09.12.16.2.2l2.65,1.48c.35.2.35.7,0,.89l-2.67,1.44c-.09.05-.16.12-.2.2l-1.48,2.65c-.2.35-.7.35-.89,0l-1.44-2.67c-.05-.09-.12-.16-.2-.2l-2.65-1.48c-.35-.2-.35-.7,0-.89l2.67-1.44c.09-.05.16-.12.2-.2l1.48-2.65c.2-.35.7-.35.89,0Z" />
    <path class="cls-2"
      d="M154.19,27.92l1.44,2.67c.05.09.12.16.2.2l2.65,1.48c.35.2.35.7,0,.89l-2.67,1.44c-.09.05-.16.12-.2.2l-1.48,2.65c-.2.35-.7.35-.89,0l-1.44-2.67c-.05-.09-.12-.16-.2-.2l-2.65-1.48c-.35-.2-.35-.7,0-.89l2.67-1.44c.09-.05.16-.12.2-.2l1.48-2.65c.2-.35.7-.35.89,0Z" />
    <path class="cls-21"
      d="M38.05,19.23l.72,1.34s.06.08.1.1l1.33.74c.18.1.17.35,0,.45l-1.34.72s-.08.06-.1.1l-.74,1.33c-.1.18-.35.17-.45,0l-.72-1.34s-.06-.08-.1-.1l-1.33-.74c-.18-.1-.17-.35,0-.45l1.34-.72s.08-.06.1-.1l.74-1.33c.1-.18.35-.17.45,0Z" />
    <path class="cls-37"
      d="M39.99,94.02l.72,1.34s.06.08.1.1l1.33.74c.18.1.17.35,0,.45l-1.34.72s-.08.06-.1.1l-.74,1.33c-.1.18-.35.17-.45,0l-.72-1.34s-.06-.08-.1-.1l-1.33-.74c-.18-.1-.17-.35,0-.45l1.34-.72s.08-.06.1-.1l.74-1.33c.1-.18.35-.17.45,0Z" />
    <path class="cls-34"
      d="M99.19,106.96l.72,1.34s.06.08.1.1l1.33.74c.18.1.17.35,0,.45l-1.34.72s-.08.06-.1.1l-.74,1.33c-.1.18-.35.17-.45,0l-.72-1.34s-.06-.08-.1-.1l-1.33-.74c-.18-.1-.17-.35,0-.45l1.34-.72s.08-.06.1-.1l.74-1.33c.1-.18.35-.17.45,0Z" />
    <path class="cls-15"
      d="M134.27,15.73l.72,1.34s.06.08.1.1l1.33.74c.18.1.17.35,0,.45l-1.34.72s-.08.06-.1.1l-.74,1.33c-.1.18-.35.17-.45,0l-.72-1.34s-.06-.08-.1-.1l-1.33-.74c-.18-.1-.17-.35,0-.45l1.34-.72s.08-.06.1-.1l.74-1.33c.1-.18.35-.17.45,0Z" />
    <path class="cls-33"
      d="M33.47,5.91l1.03,1.91c.03.06.08.11.14.15l1.89,1.05c.25.14.25.5,0,.64l-1.91,1.03c-.06.03-.11.08-.15.14l-1.05,1.89c-.14.25-.5.25-.64,0l-1.02-1.91c-.03-.06-.08-.11-.14-.15l-1.89-1.05c-.25-.14-.25-.5,0-.64l1.91-1.02c.06-.03.11-.08.15-.14l1.05-1.89c.14-.25.5-.25.64,0Z" />
    <path class="cls-7"
      d="M54.94,102.64l1.02,1.91c.03.06.08.11.14.15l1.89,1.05c.25.14.25.5,0,.64l-1.91,1.03c-.06.03-.11.08-.15.14l-1.05,1.89c-.14.25-.5.25-.64,0l-1.03-1.91c-.03-.06-.08-.11-.14-.15l-1.89-1.05c-.25-.14-.25-.5,0-.64l1.91-1.03c.06-.03.11-.08.15-.14l1.05-1.89c.14-.25.5-.25.64,0Z" />
    <path class="cls-26"
      d="M115.37,101.2l1.03,1.91c.03.06.08.11.14.15l1.89,1.05c.25.14.25.5,0,.64l-1.91,1.02c-.06.03-.11.08-.15.14l-1.05,1.89c-.14.25-.5.25-.64,0l-1.03-1.91c-.03-.06-.08-.11-.14-.15l-1.89-1.05c-.25-.14-.25-.5,0-.64l1.91-1.03c.06-.03.11-.08.15-.14l1.05-1.89c.14-.25.5-.25.64,0Z" />
    <path class="cls-17"
      d="M134.08,29.49l1.03,1.91c.03.06.08.11.14.15l1.89,1.05c.25.14.25.5,0,.64l-1.91,1.03c-.06.03-.11.08-.15.14l-1.05,1.89c-.14.25-.5.25-.64,0l-1.03-1.91c-.03-.06-.08-.11-.14-.15l-1.89-1.05c-.25-.14-.25-.5,0-.64l1.91-1.03c.06-.03.11-.08.15-.14l1.05-1.89c.14-.25.5-.25.64,0Z" />
    <path class="cls-16"
      d="M40.23,40.9c-.14.54-.27,1.1-.18,1.65.09.55.46,1.09,1,1.22.92.21,1.64-.75,2.08-1.58,1.79-3.34,3.57-6.68,5.36-10.02.79-1.47,1.96-3.48,1.83-5.22-.13-1.66-1.61-1.75-2.62-.72-2.39,2.45-4.18,5.95-5.54,9.06-.79,1.82-1.44,3.7-1.94,5.62Z" />
    <path class="cls-27"
      d="M38.6,48.62c.03.41.13.85.46,1.09.32.24.79.19,1.13-.01.34-.21.58-.55.76-.9.5-.93,1.45-3.87-.38-3.92-1.91-.06-2.08,2.37-1.97,3.74Z" />
  </g>
</svg>