<?xml version="1.0" encoding="UTF-8"?>
<svg id="Capa_2" xmlns="http://www.w3.org/2000/svg" xmlns:xlink="http://www.w3.org/1999/xlink"
  viewBox="0 0 116.93 128.56">
  <defs>
    <style>
      .cls-1 {
        fill: url(#Degradado_sin_nombre_19);
      }

      .cls-2 {
        stroke: url(#Degradado_sin_nombre_8);
        stroke-linecap: round;
        stroke-linejoin: round;
        stroke-width: 3px;
      }

      .cls-2,
      .cls-3 {
        fill: none;
      }

      .cls-4 {
        fill: url(#Degradado_sin_nombre_39-2);
      }

      .cls-5 {
        fill: url(#Degradado_sin_nombre_2-4);
      }

      .cls-6 {
        fill: url(#Degradado_sin_nombre_2-6);
      }

      .cls-7 {
        fill: url(#Degradado_sin_nombre_2);
      }

      .cls-8 {
        fill: url(#Degradado_sin_nombre_2-5);
      }

      .cls-9 {
        fill: url(#Degradado_sin_nombre_2-3);
      }

      .cls-10 {
        fill: url(#Degradado_sin_nombre_39);
      }

      .cls-11 {
        fill: url(#Degradado_sin_nombre_2-2);
      }

      .cls-12 {
        clip-path: url(#clippath);
      }

      .cls-13 {
        fill: url(#Degradado_sin_nombre_12);
      }
    </style>
    <linearGradient id="Degradado_sin_nombre_2" x1="58.47" y1="125.7" x2="58.47" y2="-1.35"
      gradientUnits="userSpaceOnUse">
      <stop offset="0" stop-color="#c9ccd1" />
      <stop offset="1" stop-color="#fff" />
    </linearGradient>
    <linearGradient id="Degradado_sin_nombre_12" x1="58.47" y1="124.94" x2="58.47" y2="-1.69"
      gradientUnits="userSpaceOnUse">
      <stop offset="0" stop-color="#1f1f1f" />
      <stop offset="1" stop-color="#0a0a0a" />
    </linearGradient>
    <clipPath id="clippath">
      <path class="cls-3"
        d="M110.61,13.66c.33,12.18-21.06,40.29-52.14,40C27.38,53.95,5.99,25.84,6.32,13.66c-.33-12.78,21.06-4.91,52.14-5.21,31.08.29,52.47-7.58,52.14,5.21Z" />
    </clipPath>
    <linearGradient id="Degradado_sin_nombre_39" x1="58.47" y1="48.65" x2="58.47" y2="24.7"
      gradientUnits="userSpaceOnUse">
      <stop offset="0" stop-color="#b94e98" />
      <stop offset="1" stop-color="#d359ad" />
    </linearGradient>
    <linearGradient id="Degradado_sin_nombre_2-2" x1="59.42" y1="6.32" x2="59.42" y2="24.6"
      xlink:href="#Degradado_sin_nombre_2" />
    <linearGradient id="Degradado_sin_nombre_39-2" x1="58.74" y1="36.19" x2="58.74" y2="81.52"
      xlink:href="#Degradado_sin_nombre_39" />
    <linearGradient id="Degradado_sin_nombre_2-3" x1="-59.59" y1="-55.58" x2="-59.59" y2="-38.44"
      gradientTransform="translate(144.2 56.4) rotate(-4.91)" xlink:href="#Degradado_sin_nombre_2" />
    <linearGradient id="Degradado_sin_nombre_2-4" x1="12.94" y1="43.53" x2="12.94" y2="57.69"
      gradientTransform="translate(88.94 -39.77) rotate(2.88)" xlink:href="#Degradado_sin_nombre_2" />
    <linearGradient id="Degradado_sin_nombre_2-5" x1="1303.32" y1="38.94" x2="1303.32" y2="57.22"
      gradientTransform="translate(1341.63 -.86) rotate(-178.58) scale(1 -1)" xlink:href="#Degradado_sin_nombre_2" />
    <linearGradient id="Degradado_sin_nombre_2-6" x1="1319.76" y1="-334.67" x2="1319.76" y2="-320.58"
      gradientTransform="translate(1338.24 339.65) rotate(-180) scale(1 -1)" xlink:href="#Degradado_sin_nombre_2" />
    <linearGradient id="Degradado_sin_nombre_19" x1="58.74" y1="122.96" x2="58.74" y2="24.96"
      gradientUnits="userSpaceOnUse">
      <stop offset="0" stop-color="#dcf500" />
      <stop offset="1" stop-color="#8ad100" />
    </linearGradient>
    <linearGradient id="Degradado_sin_nombre_8" x1="57.24" y1="65.36" x2="60.24" y2="65.36"
      gradientUnits="userSpaceOnUse">
      <stop offset="0" stop-color="#141414" />
      <stop offset="1" stop-color="#141414" />
    </linearGradient>
  </defs>
  <g id="OBJECTS">
    <path class="cls-7"
      d="M31.29,128.56c-1.74,0-3.41-.34-4.96-1-3.13-1.34-5.7-4.08-7.06-7.51-.92-2.32-1.31-4.95-1.21-8.03.22-6.76,2.39-12.77,4.49-18.57,1.5-4.15,2.91-8.05,3.5-11.93.42-2.76.52-5.62.61-8.66.08-2.38.16-4.77.39-7.2.08-.89.17-1.79.25-2.71.33-3.62.66-7.32,1.26-11C10.62,41.7-.18,24.39,0,13.65c-.06-3.69,1.11-6.87,3.37-9.2C7.2.53,12.95,0,18.08,0,22.15,0,26.87.4,32.33.85c7.19.6,15.33,1.28,24.41,1.28.55,0,1.11,0,1.66,0,.67,0,1.22,0,1.77,0,9.08,0,17.22-.68,24.4-1.28,5.48-.46,10.21-.85,14.27-.85,5.12,0,10.88.53,14.71,4.46,2.27,2.33,3.43,5.5,3.37,9.2.18,10.68-10.56,27.95-28.39,38.22.66,4.81.99,9.59,1.31,14.24.58,8.45,1.13,16.42,3.51,23.92.57,1.79,1.27,3.64,1.94,5.43,1.92,5.1,3.91,10.36,4.12,16.56.1,3.08-.29,5.7-1.21,8.02-1.36,3.43-3.93,6.17-7.06,7.51-1.55.66-3.22,1-4.97,1-2.94,0-6.02-.94-9.42-2.87-7.38-4.18-13.66-10.35-18.03-17.64-4.37,7.29-10.65,13.46-18.03,17.64-3.4,1.93-6.48,2.87-9.42,2.87Z" />
    <path class="cls-13"
      d="M31.29,125.4c-1.32,0-2.57-.25-3.72-.74-2.36-1.01-4.31-3.11-5.36-5.76-.75-1.91-1.08-4.12-.99-6.76.21-6.27,2.29-12.04,4.31-17.62,1.55-4.28,3.01-8.32,3.65-12.51.45-2.95.55-5.91.65-9.05.07-2.28.15-4.63.37-6.99.09-.9.17-1.81.25-2.73.39-4.28.78-8.68,1.63-12.96C14.63,41.12,2.95,24.02,3.16,13.66c-.06-2.9.77-5.25,2.47-7,3.01-3.08,7.98-3.5,12.44-3.5,3.93,0,8.59.39,13.99.84,7.25.61,15.46,1.29,24.67,1.29.56,0,1.13,0,1.69,0,.63,0,1.18,0,1.75,0,9.21,0,17.43-.69,24.68-1.29,5.4-.45,10.07-.84,13.99-.84,4.47,0,9.44.42,12.44,3.5,1.7,1.74,2.53,4.1,2.47,6.99.21,10.28-11.38,27.32-28.68,36.51.87,5.41,1.25,10.87,1.61,16.18.59,8.63,1.15,16.78,3.65,24.64.59,1.86,1.31,3.76,2,5.59,1.83,4.85,3.73,9.87,3.92,15.55.09,2.64-.24,4.85-.99,6.76-1.05,2.65-3,4.75-5.36,5.76-1.15.49-2.41.74-3.72.74h0c-2.38,0-4.95-.8-7.86-2.45-8.13-4.61-14.83-11.79-18.87-20.22-.25-.52-.49-1.05-.72-1.58-.23.53-.47,1.06-.72,1.58-4.04,8.43-10.74,15.61-18.87,20.22-2.91,1.65-5.48,2.45-7.86,2.45Z" />
    <g class="cls-12">
      <path class="cls-10"
        d="M110.61,13.66c.33,12.18-21.06,40.29-52.14,40C27.38,53.95,5.99,25.84,6.32,13.66c-.33-12.78,21.06-4.91,52.14-5.21,31.08.29,52.47-7.58,52.14,5.21Z" />
      <path class="cls-11"
        d="M50.8,6.73l16.06-.41c1.22,3.92,1.73,9.87,1.28,13.95-.16,1.47-.48,3.03-1.53,4.07-1.53,1.51-3.96,1.39-6.1,1.47-1.44.05-2.88.25-4.31.14-1.44-.11-2.91-.56-3.92-1.59-1.42-1.45-1.61-3.68-1.67-5.71-.12-3.97-.05-7.95.19-11.92Z" />
      <ellipse class="cls-4" cx="58.74" cy="51.94" rx="34.94" ry="24.36" />
      <path class="cls-9"
        d="M72.04,7.2l14.97-1.67c1.45,3.56,2.41,9.08,2.32,12.93-.03,1.39-.2,2.87-1.1,3.92-1.3,1.53-3.58,1.61-5.58,1.86-1.34.17-2.67.46-4.02.47-1.35.01-2.76-.29-3.79-1.17-1.44-1.24-1.8-3.31-2.02-5.2-.43-3.7-.69-7.42-.78-11.15Z" />
      <path class="cls-5"
        d="M92.99,4.34l12.44.31c.79,3.08.95,7.7.45,10.84-.18,1.13-.49,2.32-1.34,3.09-1.24,1.11-3.11.92-4.78.9-1.12-.01-2.24.08-3.34-.06-1.11-.14-2.23-.54-2.97-1.38-1.04-1.18-1.1-2.91-1.07-4.48.06-3.08.27-6.15.61-9.21Z" />
      <path class="cls-8"
        d="M46.35,6.37l-16.04-.81c-1.31,3.89-1.97,9.82-1.63,13.91.12,1.47.4,3.04,1.43,4.1,1.49,1.55,3.92,1.49,6.06,1.62,1.44.09,2.87.32,4.31.24,1.44-.07,2.92-.48,3.96-1.49,1.46-1.42,1.7-3.63,1.81-5.66.22-3.97.25-7.95.1-11.92Z" />
      <path class="cls-6"
        d="M25.13,5.3l-12.38-.32c-.94,3.02-1.33,7.6-.99,10.75.12,1.13.37,2.33,1.18,3.13,1.18,1.16,3.05,1.07,4.7,1.13,1.11.04,2.22.19,3.32.11,1.11-.08,2.24-.43,3.02-1.22,1.1-1.12,1.24-2.83,1.29-4.4.09-3.06.04-6.13-.15-9.18Z" />
    </g>
    <path class="cls-1"
      d="M93.11,112.24c-.24-7.25-3.63-13.54-5.77-20.3-4.7-14.81-2.84-30.73-6.24-45.87-5.29-16.87-22.36-6.31-22.36-6.31,0,0-17.07-10.56-22.36,6.31-1.98,6.33-2.41,13.65-3.04,20.2-.52,5.4-.22,10.81-1.05,16.22-1.56,10.18-7.58,19.43-7.92,29.75-.06,1.86.09,3.76.77,5.49.68,1.73,1.96,3.29,3.67,4.02,2.84,1.21,6.1-.03,8.79-1.55,7.59-4.3,13.81-10.97,17.58-18.84,1.7-3.56,2.9-7.36,3.57-11.24.67,3.89,1.86,7.68,3.57,11.24,3.77,7.87,9.99,14.54,17.58,18.84,2.68,1.52,5.95,2.77,8.79,1.55,1.71-.73,2.98-2.29,3.67-4.02.68-1.73.84-3.63.77-5.49Z" />
    <line class="cls-2" x1="58.74" y1="46.53" x2="58.74" y2="84.2" />
  </g>
</svg>