<?xml version="1.0" encoding="UTF-8"?>
<svg id="Capa_2" xmlns="http://www.w3.org/2000/svg" xmlns:xlink="http://www.w3.org/1999/xlink"
  viewBox="0 0 146.72 146.72">
  <defs>
    <style>
      .cls-1 {
        stroke: url(#Degradado_sin_nombre_13-3);
      }

      .cls-1,
      .cls-2,
      .cls-3,
      .cls-4,
      .cls-5,
      .cls-6,
      .cls-7 {
        fill: none;
        stroke-linecap: round;
        stroke-linejoin: round;
        stroke-width: 3px;
      }

      .cls-8 {
        fill: url(#Degradado_sin_nombre_6);
      }

      .cls-2 {
        stroke: url(#Degradado_sin_nombre_13-2);
      }

      .cls-9 {
        fill: url(#Degradado_sin_nombre_21-2);
      }

      .cls-10 {
        fill: url(#Degradado_sin_nombre_20-2);
      }

      .cls-3 {
        stroke: url(#Degradado_sin_nombre_13-5);
      }

      .cls-11 {
        fill: url(#Degradado_sin_nombre_2);
      }

      .cls-12 {
        fill: url(#Degradado_sin_nombre_9);
      }

      .cls-13 {
        fill: url(#Degradado_sin_nombre_22-2);
      }

      .cls-4 {
        stroke: url(#Degradado_sin_nombre_13);
      }

      .cls-14 {
        fill: url(#Degradado_sin_nombre_21);
      }

      .cls-5 {
        stroke: url(#Degradado_sin_nombre_13-6);
      }

      .cls-6 {
        stroke: url(#Degradado_sin_nombre_13-7);
      }

      .cls-7 {
        stroke: url(#Degradado_sin_nombre_13-4);
      }

      .cls-15 {
        fill: url(#Degradado_sin_nombre_22);
      }

      .cls-16 {
        fill: url(#Degradado_sin_nombre_20);
      }

      .cls-17 {
        fill: url(#Degradado_sin_nombre_12);
      }
    </style>
    <linearGradient id="Degradado_sin_nombre_2" x1="73.36" y1="146.29" x2="73.36" y2="3.69"
      gradientUnits="userSpaceOnUse">
      <stop offset="0" stop-color="#c9ccd1" />
      <stop offset="1" stop-color="#fff" />
    </linearGradient>
    <linearGradient id="Degradado_sin_nombre_12" x1="3" y1="73.36" x2="143.72" y2="73.36"
      gradientUnits="userSpaceOnUse">
      <stop offset="0" stop-color="#1f1f1f" />
      <stop offset="1" stop-color="#0a0a0a" />
    </linearGradient>
    <linearGradient id="Degradado_sin_nombre_9" x1="73.36" y1="139.99" x2="73.36" y2="11.11"
      gradientUnits="userSpaceOnUse">
      <stop offset="0" stop-color="#ffbf00" />
      <stop offset="1" stop-color="#ff560e" />
    </linearGradient>
    <linearGradient id="Degradado_sin_nombre_6" x1="73.36" y1="132.93" x2="73.36" y2="17.71"
      gradientUnits="userSpaceOnUse">
      <stop offset="0" stop-color="#ff560e" />
      <stop offset="1" stop-color="#ffbf00" />
    </linearGradient>
    <linearGradient id="Degradado_sin_nombre_20" x1="51.45" y1="81.75" x2="51.45" y2="48.38"
      gradientUnits="userSpaceOnUse">
      <stop offset="0" stop-color="#fff" />
      <stop offset="1" stop-color="#c9ccd1" />
    </linearGradient>
    <linearGradient id="Degradado_sin_nombre_21" x1="51.45" y1="78.82" x2="51.45" y2="49.63"
      gradientUnits="userSpaceOnUse">
      <stop offset="0" stop-color="#0a0a0a" />
      <stop offset="1" stop-color="#1f1f1f" />
    </linearGradient>
    <linearGradient id="Degradado_sin_nombre_13" x1="37.74" y1="53.76" x2="66.52" y2="53.76"
      gradientUnits="userSpaceOnUse">
      <stop offset="0" stop-color="#1f1f1f" />
      <stop offset="1" stop-color="#0a0a0a" />
    </linearGradient>
    <linearGradient id="Degradado_sin_nombre_20-2" x1="6918.42" x2="6918.42"
      gradientTransform="translate(7013.74) rotate(-180) scale(1 -1)" xlink:href="#Degradado_sin_nombre_20" />
    <linearGradient id="Degradado_sin_nombre_21-2" x1="6918.42" x2="6918.42"
      gradientTransform="translate(7013.74) rotate(-180) scale(1 -1)" xlink:href="#Degradado_sin_nombre_21" />
    <linearGradient id="Degradado_sin_nombre_13-2" x1="6904.71" x2="6933.49"
      gradientTransform="translate(7013.74) rotate(-180) scale(1 -1)" xlink:href="#Degradado_sin_nombre_13" />
    <linearGradient id="Degradado_sin_nombre_13-3" x1="51.37" y1="94.71" x2="95.11" y2="94.71"
      xlink:href="#Degradado_sin_nombre_13" />
    <linearGradient id="Degradado_sin_nombre_13-4" x1="90.87" y1="100.18" x2="101.27" y2="100.18"
      xlink:href="#Degradado_sin_nombre_13" />
    <linearGradient id="Degradado_sin_nombre_13-5" x1="6843.25" y1="100.18" x2="6853.64" y2="100.18"
      gradientTransform="translate(6899.38) rotate(-180) scale(1 -1)" xlink:href="#Degradado_sin_nombre_13" />
    <linearGradient id="Degradado_sin_nombre_13-6" x1="60.04" y1="48.7" x2="70.67" y2="48.7"
      xlink:href="#Degradado_sin_nombre_13" />
    <linearGradient id="Degradado_sin_nombre_13-7" x1="6871.33" y1="48.7" x2="6881.97" y2="48.7"
      gradientTransform="translate(6957.78) rotate(-180) scale(1 -1)" xlink:href="#Degradado_sin_nombre_13" />
    <linearGradient id="Degradado_sin_nombre_22" x1="743.49" y1="1715.13" x2="756.84" y2="1715.13"
      gradientTransform="translate(245.55 -1775.69) rotate(30)" gradientUnits="userSpaceOnUse">
      <stop offset="0" stop-color="#fffb00" />
      <stop offset="1" stop-color="#f80" />
    </linearGradient>
    <linearGradient id="Degradado_sin_nombre_22-2" x1="6696.14" y1="-1721.73" x2="6709.49" y2="-1721.73"
      gradientTransform="translate(6774.6 -1775.69) rotate(150) scale(1 -1)" xlink:href="#Degradado_sin_nombre_22" />
  </defs>
  <g id="OBJECTS">
    <path class="cls-11"
      d="M73.36,146.72c-5.72,0-8.64-5.43-10.99-9.8-.24-.45-.75-1.39-1.25-2.26-.84.64-1.72,1.36-2.14,1.7-3.25,2.66-6.61,5.4-10.59,5.4-1.08,0-2.13-.21-3.11-.61-5.25-2.18-5.86-8.28-6.35-13.19-.05-.53-.16-1.62-.3-2.64-.87.23-1.83.52-2.59.74-2.7.81-5.47,1.64-8.08,1.64-2.61,0-4.85-.86-6.47-2.47-4-4-2.24-9.84-.83-14.54.15-.51.48-1.59.74-2.6-1.02-.14-2.12-.25-2.64-.3-4.9-.49-11.01-1.1-13.19-6.35-2.16-5.2,1.69-9.91,4.78-13.69.34-.42,1.07-1.31,1.71-2.15-.87-.5-1.81-1.01-2.26-1.25-4.37-2.35-9.8-5.27-9.8-10.99s5.43-8.64,9.8-10.99c.5-.27,1.42-.76,2.26-1.25-.64-.84-1.36-1.73-1.7-2.15-3.1-3.79-6.94-8.5-4.79-13.7,2.18-5.25,8.28-5.86,13.19-6.35.53-.05,1.62-.16,2.64-.3-.27-1.01-.59-2.08-.74-2.59-1.41-4.7-3.16-10.55.83-14.55,1.62-1.62,3.85-2.47,6.46-2.47s5.4.83,8.08,1.64c.76.23,1.72.52,2.59.75.14-1.02.25-2.11.3-2.63.49-4.91,1.1-11.02,6.35-13.2.98-.41,2.03-.61,3.11-.61,3.98,0,7.33,2.74,10.58,5.39.42.34,1.31,1.07,2.15,1.71.49-.84.98-1.75,1.24-2.24,2.35-4.38,5.28-9.82,11-9.82s8.64,5.43,10.99,9.8c.24.45.75,1.39,1.25,2.26.84-.64,1.72-1.36,2.14-1.7,3.25-2.66,6.61-5.4,10.59-5.4,1.08,0,2.13.21,3.11.61,5.25,2.18,5.86,8.28,6.35,13.19.05.52.16,1.62.3,2.64.87-.23,1.83-.52,2.59-.75,2.69-.81,5.47-1.64,8.08-1.64s4.85.86,6.46,2.47c4,4,2.24,9.84.83,14.54-.15.51-.48,1.59-.74,2.6,1.02.14,2.12.25,2.64.3,4.9.49,11.01,1.1,13.19,6.35,2.16,5.2-1.69,9.91-4.78,13.69-.35.42-1.07,1.31-1.71,2.16.87.5,1.81,1.01,2.26,1.25,4.37,2.35,9.8,5.27,9.8,10.99s-5.43,8.64-9.8,10.99c-.45.24-1.39.75-2.26,1.25.64.84,1.37,1.73,1.71,2.15,3.09,3.79,6.94,8.49,4.78,13.69-2.18,5.25-8.28,5.86-13.19,6.35-.52.05-1.62.16-2.64.3.26,1.01.59,2.08.74,2.59,1.41,4.7,3.16,10.55-.83,14.54-1.62,1.62-3.85,2.47-6.46,2.47s-5.39-.83-8.08-1.64c-.76-.23-1.72-.52-2.59-.75-.14,1.02-.25,2.11-.3,2.63-.49,4.91-1.1,11.02-6.35,13.19-.98.41-2.03.61-3.11.61-3.98,0-7.34-2.74-10.58-5.39-.42-.35-1.31-1.07-2.15-1.71-.5.87-1.01,1.8-1.25,2.25-2.35,4.37-5.27,9.8-10.99,9.8Z" />
    <path class="cls-17"
      d="M73.36,143.72c-3.93,0-6.17-4.18-8.35-8.22-.85-1.59-2.25-4.19-3.08-4.85-1.03.27-3.41,2.21-4.86,3.4-2.97,2.42-5.77,4.71-8.68,4.71-.69,0-1.35-.13-1.96-.38-3.59-1.49-4.06-6.18-4.51-10.71-.18-1.81-.48-4.78-1-5.73-.06,0-.14,0-.23,0-1.3,0-3.54.67-5.51,1.26-2.48.74-5.04,1.51-7.22,1.51-1.82,0-3.29-.54-4.34-1.59-2.73-2.73-1.38-7.22-.08-11.56.53-1.77,1.4-4.66,1.26-5.73-.94-.52-3.91-.82-5.74-1-4.53-.45-9.22-.92-10.71-4.51-1.47-3.54,1.48-7.16,4.33-10.65,1.18-1.45,3.12-3.81,3.39-4.87-.67-.83-3.26-2.22-4.85-3.07-4.04-2.17-8.22-4.42-8.22-8.35s4.18-6.17,8.22-8.35c1.59-.85,4.18-2.25,4.85-3.07-.28-1.05-2.21-3.42-3.39-4.87-2.85-3.49-5.8-7.1-4.33-10.65,1.49-3.59,6.18-4.06,10.71-4.51,1.82-.18,4.8-.48,5.74-1,.14-1.07-.73-3.96-1.26-5.73-1.3-4.34-2.65-8.83.08-11.56,1.06-1.06,2.52-1.59,4.34-1.59,2.18,0,4.74.77,7.22,1.51,1.97.59,4.21,1.26,5.51,1.26.1,0,.17,0,.23,0,.52-.95.82-3.91,1-5.73.45-4.53.92-9.22,4.51-10.71.61-.25,1.27-.38,1.96-.38,2.91,0,5.71,2.29,8.68,4.71,1.45,1.18,3.81,3.12,4.87,3.39.83-.67,2.22-3.26,3.07-4.85,2.17-4.04,4.42-8.22,8.35-8.22s6.17,4.18,8.35,8.22c.85,1.59,2.25,4.19,3.08,4.85,1.03-.27,3.41-2.21,4.86-3.4,2.97-2.42,5.77-4.71,8.68-4.71.69,0,1.35.13,1.96.38,3.59,1.49,4.06,6.18,4.51,10.71.18,1.81.48,4.78,1,5.72.06,0,.14,0,.23,0,1.3,0,3.54-.67,5.51-1.26,2.48-.74,5.04-1.51,7.22-1.51,1.82,0,3.29.54,4.34,1.59,2.73,2.73,1.38,7.22.08,11.56-.53,1.77-1.4,4.66-1.26,5.73.94.53,3.91.82,5.74,1,4.53.45,9.22.92,10.71,4.51,1.47,3.54-1.48,7.15-4.33,10.64-1.18,1.45-3.12,3.82-3.39,4.87.67.83,3.26,2.22,4.85,3.07,4.04,2.17,8.22,4.42,8.22,8.35s-4.18,6.18-8.22,8.35c-1.59.85-4.18,2.25-4.85,3.07.28,1.05,2.21,3.42,3.39,4.87,2.85,3.49,5.8,7.1,4.33,10.65-1.49,3.59-6.18,4.06-10.71,4.52-1.82.18-4.8.48-5.73,1-.14,1.07.73,3.97,1.26,5.74,1.3,4.34,2.65,8.83-.08,11.56-1.06,1.06-2.52,1.59-4.34,1.59-2.18,0-4.74-.77-7.22-1.51-1.97-.59-4.21-1.26-5.51-1.26-.1,0-.17,0-.23,0-.52.95-.82,3.91-1,5.73-.45,4.53-.92,9.22-4.51,10.71-.61.25-1.27.38-1.96.38h0c-2.91,0-5.71-2.29-8.68-4.71-1.45-1.18-3.82-3.12-4.87-3.39-.83.67-2.22,3.26-3.07,4.84-2.17,4.04-4.42,8.22-8.35,8.22Z" />
    <path class="cls-12"
      d="M140.72,73.36c0,4.1-12.29,6.94-13.05,10.81-.79,3.99,9.46,11.3,7.94,14.98-1.55,3.74-13.98,1.65-16.21,4.97-2.24,3.35,4.43,14.04,1.59,16.88s-13.53-3.83-16.88-1.59c-3.32,2.22-1.23,14.66-4.97,16.21-3.67,1.52-10.98-8.73-14.98-7.94-3.87.77-6.71,13.05-10.81,13.05s-6.94-12.29-10.81-13.05c-3.99-.79-11.3,9.46-14.98,7.94-3.74-1.55-1.65-13.98-4.97-16.21-3.35-2.24-14.04,4.43-16.88,1.59-2.84-2.84,3.83-13.53,1.59-16.88-2.22-3.32-14.66-1.23-16.21-4.97-1.52-3.67,8.73-10.98,7.94-14.98-.77-3.87-13.05-6.71-13.05-10.81s12.29-6.94,13.05-10.81c.79-3.99-9.46-11.3-7.94-14.98,1.55-3.74,13.98-1.65,16.21-4.97,2.24-3.35-4.43-14.04-1.59-16.88,2.84-2.84,13.53,3.83,16.88,1.59,3.32-2.22,1.23-14.66,4.97-16.21,3.67-1.52,10.98,8.73,14.98,7.94,3.87-.77,6.71-13.05,10.81-13.05s6.94,12.29,10.81,13.05c3.99.79,11.3-9.46,14.98-7.94,3.74,1.55,1.65,13.98,4.97,16.21,3.35,2.24,14.04-4.43,16.88-1.59s-3.83,13.53-1.59,16.88c2.22,3.32,14.66,1.23,16.21,4.97,1.52,3.67-8.73,10.99-7.94,14.98.77,3.87,13.05,6.71,13.05,10.81Z" />
    <path class="cls-8"
      d="M133.58,73.36c0,3.66-10.99,6.2-11.67,9.66-.71,3.57,8.46,10.11,7.1,13.39-1.38,3.34-12.5,1.47-14.49,4.44-2,2.99,3.96,12.55,1.42,15.09-2.54,2.54-12.1-3.43-15.09-1.42-2.97,1.99-1.1,13.11-4.44,14.49-3.28,1.36-9.82-7.81-13.39-7.1-3.46.68-6,11.67-9.66,11.67s-6.2-10.99-9.66-11.67c-3.57-.71-10.11,8.46-13.39,7.1-3.34-1.38-1.47-12.5-4.44-14.49-2.99-2-12.55,3.96-15.09,1.42-2.54-2.54,3.43-12.1,1.42-15.09-1.99-2.97-13.11-1.1-14.49-4.44-1.36-3.28,7.8-9.82,7.1-13.39-.68-3.46-11.67-6-11.67-9.66s10.99-6.2,11.67-9.66c.71-3.57-8.46-10.11-7.1-13.39,1.38-3.34,12.5-1.47,14.49-4.44,2-2.99-3.96-12.55-1.42-15.09,2.54-2.54,12.1,3.43,15.09,1.42,2.97-1.99,1.1-13.11,4.44-14.49,3.28-1.36,9.82,7.81,13.39,7.1,3.46-.68,6-11.67,9.66-11.67s6.2,10.99,9.66,11.67c3.57.71,10.11-8.46,13.39-7.1,3.34,1.39,1.47,12.5,4.44,14.49,2.99,2,12.55-3.96,15.09-1.42s-3.43,12.1-1.42,15.09c1.99,2.97,13.11,1.1,14.49,4.44,1.36,3.28-7.8,9.82-7.1,13.39.68,3.46,11.67,6,11.67,9.66Z" />
    <path class="cls-16"
      d="M62.25,59.51c0,12.28-4.83,22.24-10.8,22.24s-10.8-9.96-10.8-22.24c0-3.92.49-7.61,1.36-10.81l2.41,1.2,17.82,8.91c0,.23,0,.47,0,.69Z" />
    <path class="cls-14"
      d="M59.08,66l-6.79.06,5.83,4.41c-1.46,5.04-3.9,8.36-6.68,8.36-4.47,0-8.09-8.65-8.09-19.31,0-3.49.39-6.78,1.07-9.61l15.09,7.54c.03.68.05,1.37.05,2.06,0,2.28-.17,4.46-.47,6.49Z" />
    <line class="cls-4" x1="39.24" y1="47.31" x2="65.02" y2="60.2" />
    <path class="cls-10"
      d="M84.51,59.51c0,12.28,4.83,22.24,10.8,22.24s10.8-9.96,10.8-22.24c0-3.92-.49-7.61-1.36-10.81l-2.41,1.2-17.82,8.91c0,.23,0,.47,0,.69Z" />
    <path class="cls-9"
      d="M87.69,66l6.79.06-5.83,4.41c1.46,5.04,3.9,8.36,6.68,8.36,4.47,0,8.09-8.65,8.09-19.31,0-3.49-.39-6.78-1.07-9.61l-15.09,7.54c-.03.68-.05,1.37-.05,2.06,0,2.28.17,4.46.47,6.49Z" />
    <line class="cls-2" x1="107.53" y1="47.31" x2="81.75" y2="60.2" />
    <path class="cls-1" d="M93.61,98.45c-3.64-4.42-11.38-7.47-20.37-7.47s-16.73,3.06-20.37,7.47" />
    <path class="cls-7" d="M92.46,105.35c-.31-2.26.21-4.65,1.5-6.53,1.34-1.96,3.48-3.33,5.8-3.81" />
    <path class="cls-3" d="M54.54,105.35c.31-2.26-.21-4.65-1.5-6.53-1.34-1.96-3.48-3.33-5.8-3.81" />
    <line class="cls-5" x1="69.17" y1="53.65" x2="61.54" y2="43.76" />
    <line class="cls-6" x1="77.31" y1="53.65" x2="84.95" y2="43.76" />
    <path class="cls-15"
      d="M43.41,88.03c-1.32,2.3-4.99,2.66-8.18.82-3.19-1.84-4.71-5.2-3.38-7.49s4.99-2.66,8.18-.82c3.19,1.84,4.71,5.2,3.38,7.49Z" />
    <path class="cls-13"
      d="M103.31,88.03c1.32,2.3,4.99,2.66,8.18.82,3.19-1.84,4.71-5.2,3.38-7.49s-4.99-2.66-8.18-.82c-3.19,1.84-4.71,5.2-3.38,7.49Z" />
  </g>
</svg>