<?xml version="1.0" encoding="UTF-8"?>
<svg id="Capa_2" xmlns="http://www.w3.org/2000/svg" xmlns:xlink="http://www.w3.org/1999/xlink"
  viewBox="0 0 118.95 150.11">
  <defs>
    <style>
      .cls-1 {
        stroke: url(#Degradado_sin_nombre_8-3);
      }

      .cls-1,
      .cls-2,
      .cls-3,
      .cls-4,
      .cls-5 {
        fill: none;
        stroke-linecap: round;
        stroke-linejoin: round;
        stroke-width: 3px;
      }

      .cls-6 {
        fill: url(#Degradado_sin_nombre_12-3);
      }

      .cls-2 {
        stroke: url(#Degradado_sin_nombre_8);
      }

      .cls-7 {
        fill: url(#Degradado_sin_nombre_20-2);
      }

      .cls-8 {
        fill: url(#Degradado_sin_nombre_2);
      }

      .cls-3 {
        stroke: url(#Degradado_sin_nombre_8-5);
      }

      .cls-4 {
        stroke: url(#Degradado_sin_nombre_8-2);
      }

      .cls-9 {
        fill: url(#Degradado_sin_nombre_7);
      }

      .cls-10 {
        fill: url(#Degradado_sin_nombre_2-3);
      }

      .cls-11 {
        fill: url(#Degradado_sin_nombre_12-2);
      }

      .cls-5 {
        stroke: url(#Degradado_sin_nombre_8-4);
      }

      .cls-12 {
        fill: url(#Degradado_sin_nombre_20);
      }

      .cls-13 {
        fill: url(#Degradado_sin_nombre_2-2);
      }

      .cls-14 {
        fill: url(#Degradado_sin_nombre_12);
      }
    </style>
    <linearGradient id="Degradado_sin_nombre_2" x1="59.48" y1="144.05" x2="59.48" y2="2.29"
      gradientUnits="userSpaceOnUse">
      <stop offset="0" stop-color="#c9ccd1" />
      <stop offset="1" stop-color="#fff" />
    </linearGradient>
    <linearGradient id="Degradado_sin_nombre_12" x1="59.48" y1="144.57" x2="59.48" y2="5.91"
      gradientUnits="userSpaceOnUse">
      <stop offset="0" stop-color="#1f1f1f" />
      <stop offset="1" stop-color="#0a0a0a" />
    </linearGradient>
    <linearGradient id="Degradado_sin_nombre_7" x1="59.48" y1="133.41" x2="59.48" y2="5.8"
      gradientUnits="userSpaceOnUse">
      <stop offset="0" stop-color="#f80" />
      <stop offset="1" stop-color="#fffb00" />
    </linearGradient>
    <linearGradient id="Degradado_sin_nombre_20" x1="37.85" y1="66.63" x2="37.85" y2="37.39"
      gradientUnits="userSpaceOnUse">
      <stop offset="0" stop-color="#fff" />
      <stop offset="1" stop-color="#c9ccd1" />
    </linearGradient>
    <linearGradient id="Degradado_sin_nombre_12-2" x1="37.84" y1="63.14" x2="37.84" y2="37.42"
      xlink:href="#Degradado_sin_nombre_12" />
    <linearGradient id="Degradado_sin_nombre_8" x1="22.55" y1="37.67" x2="53.35" y2="37.67"
      gradientUnits="userSpaceOnUse">
      <stop offset="0" stop-color="#141414" />
      <stop offset="1" stop-color="#141414" />
    </linearGradient>
    <linearGradient id="Degradado_sin_nombre_20-2" x1="80.9" x2="80.9" xlink:href="#Degradado_sin_nombre_20" />
    <linearGradient id="Degradado_sin_nombre_12-3" x1="80.9" y1="63.14" x2="80.9" y2="37.42"
      xlink:href="#Degradado_sin_nombre_12" />
    <linearGradient id="Degradado_sin_nombre_8-2" x1="65.61" x2="96.4" xlink:href="#Degradado_sin_nombre_8" />
    <linearGradient id="Degradado_sin_nombre_8-3" x1="15" y1="79.53" x2="103.95" y2="79.53"
      xlink:href="#Degradado_sin_nombre_8" />
    <linearGradient id="Degradado_sin_nombre_8-4" x1="10.87" y1="56.4" x2="22.13" y2="56.4"
      xlink:href="#Degradado_sin_nombre_8" />
    <linearGradient id="Degradado_sin_nombre_8-5" x1="509.42" y1="56.4" x2="520.68" y2="56.4"
      gradientTransform="translate(617.5) rotate(-180) scale(1 -1)" xlink:href="#Degradado_sin_nombre_8" />
    <linearGradient id="Degradado_sin_nombre_2-2" x1="18.5" y1="28.77" x2="45.5" y2="10.68"
      xlink:href="#Degradado_sin_nombre_2" />
    <linearGradient id="Degradado_sin_nombre_2-3" x1="18.35" y1="28.54" x2="45.35" y2="10.46"
      xlink:href="#Degradado_sin_nombre_2" />
  </defs>
  <g id="OBJECTS">
    <path class="cls-8"
      d="M49.76,150.11c-3.58,0-8.62-1.73-12.3-10-1.96-4.41-3.58-9.01-4.8-13.68-.02.02-.05.04-.07.07-1.83,1.62-4.13,2.48-6.65,2.48-4.29,0-8.65-2.6-10.85-6.48-2.01-3.55-2.27-7.31-2.48-10.33l-.02-.25c-.07-1.03-.16-2.34-.35-3.51-.68.21-1.39.33-2.14.33-1.42,0-3.5-.4-5.46-2.33-3.05-2.99-4.58-7.64-4.65-14.21,0-.19.73-31.33.79-33.55h0C1.02,26.31,27.52,0,59.87,0s59.09,26.51,59.09,59.09c0,.82-.02,1.67-.06,2.57.06.76.05,1.56.04,2.33v.63c-.07,6.36-.13,12.72-.18,19.08l-.14,16.34c0,.77,0,1.54.02,2.33.06,3.27.12,7.32-1.25,11.2-1.15,3.27-4,5.39-7.26,5.39-1.85,0-3.65-.69-5.12-1.93-.01.23-.03.45-.04.68-.13,1.97-.27,4.2-1.05,6.54-1.35,4.12-5.1,8.37-10.41,8.56h-.32c-3.62,0-6.07-1.79-7.69-2.99-.1-.07-.2-.15-.32-.23-.26.57-.5,1.31-.75,2.09-.44,1.36-.92,2.88-1.77,4.44-2.06,3.79-5.85,6.24-9.66,6.24-.68,0-1.37-.08-2.04-.23-3.66-.82-5.66-3.45-6.99-5.18-.1-.13-.36-.46-.36-.46-.52.72-.97,1.81-1.46,2.97-.39.95-.84,2.01-1.41,3.11-2.43,4.62-6.28,7.37-10.57,7.54-.14,0-.28,0-.42,0Z" />
    <path class="cls-14"
      d="M49.76,147.21c-2.72,0-6.61-1.44-9.65-8.27-1.92-4.32-3.5-8.83-4.69-13.41l-.07-.26c-.34-1.31-.66-2.54-1.26-3.32-.3-.38-.75-.59-.94-.59-.14.07-.56.66-.82,1.01-.44.62-.95,1.32-1.67,1.96-1.29,1.15-2.93,1.75-4.72,1.75-3.28,0-6.63-2.01-8.32-5.01-1.69-2.98-1.91-6.23-2.11-9.1l-.02-.25c-.18-2.63-.4-5.85-1.8-7.66-.69.76-1.81,1.77-3.6,1.78-.88,0-2.15-.26-3.41-1.5-2.48-2.42-3.72-6.41-3.78-12.17,0-.03.78-33.46.79-33.5C3.91,27.9,29.08,2.9,59.87,2.9s56.19,25.2,56.19,56.18c0,.84-.02,1.7-.06,2.62.06.67.05,1.43.04,2.24v.63c-.07,6.37-.13,12.73-.18,19.09l-.14,16.34c0,.79,0,1.6.02,2.42.05,3.18.11,6.79-1.08,10.18-.75,2.13-2.48,3.45-4.53,3.45h0c-1.51,0-2.99-.75-4.06-2.07-.55-.68-.92-1.4-1.25-2.03-.21-.41-.53-1.02-.7-1.15-.05,0-.08-.01-.08-.01-.5.24-1.57,2.47-1.82,4.72-.07.66-.11,1.33-.16,2-.12,1.88-.25,3.83-.91,5.82-1.04,3.17-3.85,6.43-7.76,6.57h-.26c-2.61,0-4.45-1.34-5.92-2.42-.93-.69-1.74-1.28-2.43-1.29h0c-.71,0-1.67.93-2.24,2.17-.34.74-.61,1.57-.89,2.45-.41,1.28-.83,2.6-1.55,3.92-1.56,2.87-4.35,4.73-7.11,4.73-.47,0-.94-.05-1.4-.16-2.62-.59-4.12-2.54-5.32-4.11-.67-.88-1.37-1.79-1.98-2.03-.12-.05-.25-.07-.39-.07-.82,0-1.94.72-2.65,1.72-.71.99-1.23,2.23-1.78,3.55-.39.94-.8,1.9-1.3,2.87-1.93,3.68-4.88,5.86-8.11,5.98-.1,0-.2,0-.3,0Z" />
    <path class="cls-9"
      d="M113.15,61.71h-.07c.04-.87.07-1.74.07-2.62,0-29.43-23.86-53.28-53.28-53.28S6.71,29.53,6.59,58.85h0s-.78,33.28-.78,33.28c.04,3.21.46,7.74,2.91,10.13.37.36.84.67,1.35.66,1.46-.01,1.87-1.98,3.22-2.26.68-.14,1.36.25,1.88.72,2.72,2.47,2.99,6.82,3.23,10.23.19,2.74.36,5.57,1.75,8.01,1.69,2.98,6.03,4.79,8.6,2.52,1.19-1.05,1.78-2.77,3.22-3.44,1.52-.71,3.39.13,4.42,1.45,1.03,1.32,1.43,3.01,1.85,4.63,1.15,4.44,2.67,8.78,4.53,12.96,1.4,3.15,3.74,6.68,7.19,6.55,2.51-.1,4.49-2.21,5.66-4.43s1.83-4.72,3.29-6.76c1.46-2.04,4.12-3.58,6.46-2.66,2.89,1.13,3.85,5.34,6.88,6.02,2.16.49,4.27-1.18,5.33-3.13,1.06-1.94,1.43-4.19,2.35-6.2.92-2.01,2.72-3.91,4.93-3.86,3.29.07,5.06,3.84,8.45,3.72,2.43-.09,4.35-2.26,5.11-4.57.76-2.31.67-4.81.93-7.23.28-2.58,1.96-8.43,5.76-7.13,1.81.62,2.15,2.75,3.22,4.07,1.18,1.46,2.94,1.35,3.6-.52,1.3-3.69.86-7.83.89-11.66.04-3.95.07-7.9.1-11.85.07-7.86.13-15.72.21-23.58,0-.23.03-2.84.03-2.84Z" />
    <path class="cls-12"
      d="M50.71,40.13c0,14.63-5.76,26.5-12.87,26.5s-12.87-11.87-12.87-26.5c0-.83.02-1.65.06-2.46h25.62c.04.81.06,1.63.06,2.46Z" />
    <path class="cls-11"
      d="M47.5,40.13c0,12.71-4.31,23.01-9.65,23.01-3.3,0-6.21-3.94-7.96-9.95l6.95-5.25-8.09-.07c-.36-2.42-.56-5.02-.56-7.74,0-.83.02-1.65.06-2.46h19.19c.04.81.06,1.63.06,2.46Z" />
    <line class="cls-2" x1="24.05" y1="37.67" x2="51.85" y2="37.67" />
    <path class="cls-7"
      d="M93.77,40.13c0,14.63-5.76,26.5-12.87,26.5s-12.87-11.87-12.87-26.5c0-.83.02-1.65.06-2.46h25.62c.04.81.06,1.63.06,2.46Z" />
    <path class="cls-6"
      d="M90.55,40.13c0,12.71-4.31,23.01-9.65,23.01-3.3,0-6.21-3.94-7.96-9.95l6.95-5.25-8.09-.07c-.36-2.42-.56-5.02-.56-7.74,0-.83.02-1.65.06-2.46h19.19c.04.81.06,1.63.06,2.46Z" />
    <line class="cls-4" x1="67.11" y1="37.67" x2="94.9" y2="37.67" />
    <path class="cls-1" d="M102.45,58.05c0,23.73-19.24,42.97-42.97,42.97s-42.97-19.24-42.97-42.97" />
    <path class="cls-5" d="M12.37,56.12s4.07,3.16,8.26-.67" />
    <path class="cls-3" d="M106.58,56.12s-4.07,3.16-8.26-.67" />
    <path class="cls-13"
      d="M30.13,18.49c-.62.6-1.26,1.54-.76,2.24.46.64,1.46.45,2.2.17,4.43-1.65,8.69-3.77,12.68-6.31.77-.49,1.56-1.03,2.03-1.81,1.04-1.73,0-2.7-1.68-2.32-1.79.4-3.56,1.09-5.22,1.84-3.4,1.53-6.55,3.63-9.25,6.2Z" />
    <path class="cls-10"
      d="M22.29,24.69c-.38.42-.76,1.03-.46,1.52.28.46.94.45,1.46.32,1.4-.34,2.7-1.11,3.66-2.18.9-1.01.88-2.84-.82-2.53-1.38.25-2.94,1.88-3.84,2.87Z" />
  </g>
</svg>