<?xml version="1.0" encoding="UTF-8"?>
<svg id="Capa_2" xmlns="http://www.w3.org/2000/svg" xmlns:xlink="http://www.w3.org/1999/xlink"
  viewBox="0 0 115.24 154.41">
  <defs>
    <style>
      .cls-1 {
        stroke: url(#Degradado_sin_nombre_8-3);
      }

      .cls-1,
      .cls-2,
      .cls-3 {
        fill: none;
        stroke-linecap: round;
        stroke-linejoin: round;
        stroke-width: 3px;
      }

      .cls-4 {
        fill: url(#Degradado_sin_nombre_16);
      }

      .cls-5 {
        fill: url(#Degradado_sin_nombre_15-2);
      }

      .cls-2 {
        stroke: url(#Degradado_sin_nombre_8);
      }

      .cls-6 {
        fill: url(#Degradado_sin_nombre_2);
      }

      .cls-7 {
        fill: url(#Degradado_sin_nombre_10-2);
      }

      .cls-3 {
        stroke: url(#Degradado_sin_nombre_8-2);
      }

      .cls-8 {
        fill: url(#Degradado_sin_nombre_2-3);
      }

      .cls-9 {
        fill: url(#Degradado_sin_nombre_10);
      }

      .cls-10 {
        fill: url(#Degradado_sin_nombre_15);
      }

      .cls-11 {
        fill: url(#Degradado_sin_nombre_2-2);
      }

      .cls-12 {
        fill: url(#Degradado_sin_nombre_12);
      }
    </style>
    <linearGradient id="Degradado_sin_nombre_2" x1="57.62" y1="158.79" x2="57.62" y2="0" gradientUnits="userSpaceOnUse">
      <stop offset="0" stop-color="#c9ccd1" />
      <stop offset="1" stop-color="#fff" />
    </linearGradient>
    <linearGradient id="Degradado_sin_nombre_12" x1="57.62" y1="156.32" x2="57.62" y2="1.45"
      gradientUnits="userSpaceOnUse">
      <stop offset="0" stop-color="#1f1f1f" />
      <stop offset="1" stop-color="#0a0a0a" />
    </linearGradient>
    <linearGradient id="Degradado_sin_nombre_16" x1="57.62" y1="148.61" x2="57.62" y2="43.97"
      gradientUnits="userSpaceOnUse">
      <stop offset="0" stop-color="#3700ff" />
      <stop offset="1" stop-color="#ff00e6" />
    </linearGradient>
    <linearGradient id="Degradado_sin_nombre_10" x1="8.73" y1="115.57" x2="20.28" y2="110.22"
      gradientUnits="userSpaceOnUse">
      <stop offset="0" stop-color="#ff0062" />
      <stop offset="1" stop-color="#fb00ff" />
    </linearGradient>
    <linearGradient id="Degradado_sin_nombre_10-2" x1="106.46" y1="115.36" x2="94.24" y2="110.78"
      xlink:href="#Degradado_sin_nombre_10" />
    <linearGradient id="Degradado_sin_nombre_2-2" x1="16.27" y1="156.44" x2="16.27" y2="63.77"
      gradientTransform="translate(19.67 -58.87) rotate(.06)" xlink:href="#Degradado_sin_nombre_2" />
    <linearGradient id="Degradado_sin_nombre_15" x1="-78.93" y1="216.49" x2="-78.93" y2="158.23"
      gradientTransform="translate(137.99 -116.88) rotate(6.08)" gradientUnits="userSpaceOnUse">
      <stop offset="0" stop-color="#fb00ff" />
      <stop offset="1" stop-color="#ff0062" />
    </linearGradient>
    <linearGradient id="Degradado_sin_nombre_2-3" x1="59.85" y1="156.4" x2="59.85" y2="63.72"
      gradientTransform="translate(19.67 -58.87) rotate(.06)" xlink:href="#Degradado_sin_nombre_2" />
    <linearGradient id="Degradado_sin_nombre_15-2" x1="-34.3" y1="211.74" x2="-34.3" y2="153.48"
      xlink:href="#Degradado_sin_nombre_15" />
    <linearGradient id="Degradado_sin_nombre_8" x1="1238.65" y1="2019.12" x2="1290.13" y2="2019.12"
      gradientTransform="translate(1321.54 2136.7) rotate(-180)" gradientUnits="userSpaceOnUse">
      <stop offset="0" stop-color="#141414" />
      <stop offset="1" stop-color="#141414" />
    </linearGradient>
    <linearGradient id="Degradado_sin_nombre_8-2" x1="1306.85" y1="1981.54" x2="1324.12" y2="1981.54"
      gradientTransform="translate(1234.87 2184.67) rotate(-175.42)" xlink:href="#Degradado_sin_nombre_8" />
    <linearGradient id="Degradado_sin_nombre_8-3" x1="139.83" y1="2075.08" x2="157.1" y2="2075.08"
      gradientTransform="translate(50.2 2184.67) rotate(-4.58) scale(1 -1)" xlink:href="#Degradado_sin_nombre_8" />
  </defs>
  <g id="OBJECTS">
    <path class="cls-6"
      d="M57.63,154.41c-18.17,0-35.49-8.73-46.33-23.34-.16-.2-.37-.5-.57-.79C4.95,122.23,1.33,112.7.32,102.8c-.11-.97-.19-2-.24-3.14-.04-.97-.08-1.91-.08-2.85,0-10.88,3.04-21.44,8.8-30.6-.71-4.7-1.06-9.59-1.06-14.54C7.77,22.21,19.86,0,35.87,0c8.77,0,16.6,6.78,21.78,18.47C62.84,6.77,70.69,0,79.45,0c16.03.02,28.08,22.25,28.05,51.72,0,4.93-.37,9.79-1.07,14.45,5.77,9.17,8.81,19.74,8.81,30.63,0,.93-.04,1.85-.07,2.77-.06,1.23-.14,2.26-.25,3.27-1.01,9.85-4.63,19.37-10.46,27.49-.15.22-.35.51-.57.79-10.78,14.57-28.09,23.29-46.26,23.29Z" />
    <path class="cls-12"
      d="M57.63,151.51c-17.25,0-33.7-8.29-44-22.17-.15-.2-.33-.44-.49-.68-5.54-7.71-8.97-16.75-9.94-26.16-.1-.91-.18-1.9-.23-2.98-.04-.91-.07-1.81-.07-2.72,0-10.71,3.08-21.05,8.93-29.96-.8-4.88-1.2-9.98-1.19-15.17.03-27.35,11.11-48.77,25.23-48.77,9.3,0,17.42,9.36,21.77,23.99,4.38-14.64,12.51-23.99,21.81-23.99,14.14.02,25.18,21.46,25.15,48.82,0,5.17-.41,10.24-1.21,15.1,5.86,8.93,8.95,19.27,8.95,29.99,0,.89-.03,1.78-.07,2.65-.06,1.15-.13,2.14-.24,3.07-.96,9.37-4.4,18.41-9.93,26.12-.16.24-.34.49-.51.71-10.26,13.86-26.7,22.15-43.95,22.15Z" />
    <path class="cls-4"
      d="M109.44,96.81c0,.86-.03,1.72-.07,2.57-.05.95-.11,1.9-.22,2.83-.94,9.18-4.31,17.66-9.44,24.79-.14.21-.29.41-.44.61-9.44,12.75-24.58,21.01-41.65,21.01s-32.23-8.26-41.67-21c-.15-.2-.3-.4-.44-.61-5.13-7.13-8.49-15.62-9.44-24.8-.1-.93-.17-1.87-.22-2.83-.03-.85-.07-1.71-.07-2.57,0-28.63,23.2-51.83,51.83-51.83s51.81,23.2,51.81,51.83Z" />
    <path class="cls-9"
      d="M22.11,115.42c0,4.93-2.63,9.23-6.59,11.58-5.13-7.13-8.49-15.62-9.44-24.8.83-.17,1.69-.26,2.55-.26,7.44,0,13.47,6.05,13.47,13.48Z" />
    <path class="cls-7"
      d="M109.15,102.21c-.94,9.18-4.31,17.66-9.44,24.79-3.95-2.34-6.59-6.64-6.59-11.57,0-7.44,6.03-13.48,13.47-13.48.86,0,1.72.09,2.55.26Z" />
    <path class="cls-11"
      d="M58.12,51.72c-.03,25.35-10.03,45.89-22.34,45.87-12.31-.01-22.27-20.57-22.24-45.92.03-25.35,10.03-45.89,22.34-45.87,12.31.01,22.27,20.57,22.24,45.92Z" />
    <path class="cls-10"
      d="M51.67,62.63c-1.69,15.84-8.45,28.12-15.1,27.41-6.65-.71-10.66-14.13-8.97-29.97,1.69-15.84,8.44-28.11,15.09-27.4,4.11.44,7.22,5.74,8.59,13.47l-9.35,5.62,10.07,1.16c.13,3.06.03,6.33-.33,9.71Z" />
    <path class="cls-8"
      d="M101.7,51.72c-.03,25.35-10.03,45.89-22.34,45.87-12.31-.01-22.27-20.57-22.24-45.92.03-25.35,10.03-45.89,22.34-45.87,12.31.01,22.27,20.57,22.24,45.92Z" />
    <path class="cls-5"
      d="M96.55,62.63c-1.69,15.84-8.45,28.12-15.1,27.41-6.65-.71-10.66-14.13-8.97-29.97,1.69-15.84,8.44-28.11,15.09-27.4,4.11.44,7.22,5.74,8.59,13.47l-9.35,5.62,10.07,1.16c.13,3.06.03,6.33-.33,9.71Z" />
    <path class="cls-2" d="M81.39,105.46c0,13.39-10.85,24.24-24.24,24.24s-24.24-10.85-24.24-24.24" />
    <path class="cls-3" d="M89.11,103.83c-4.36,2.59-10.32,2.13-14.23-1.09" />
    <path class="cls-1" d="M25.19,103.83c4.36,2.59,10.32,2.13,14.23-1.09" />
  </g>
</svg>