<?xml version="1.0" encoding="UTF-8"?>
<svg id="Capa_2" xmlns="http://www.w3.org/2000/svg" xmlns:xlink="http://www.w3.org/1999/xlink"
  viewBox="0 0 117.69 161.1">
  <defs>
    <style>
      .cls-1 {
        stroke: url(#Degradado_sin_nombre_2-4);
      }

      .cls-1,
      .cls-2,
      .cls-3,
      .cls-4,
      .cls-5,
      .cls-6,
      .cls-7,
      .cls-8,
      .cls-9 {
        fill: none;
        stroke-linecap: round;
        stroke-linejoin: round;
      }

      .cls-1,
      .cls-7,
      .cls-9 {
        stroke-width: 3.27px;
      }

      .cls-10 {
        fill: url(#Degradado_sin_nombre_2-14);
      }

      .cls-11 {
        fill: url(#Degradado_sin_nombre_16);
      }

      .cls-12 {
        fill: url(#Degradado_sin_nombre_15-2);
      }

      .cls-2 {
        stroke: url(#Degradado_sin_nombre_2-10);
      }

      .cls-2,
      .cls-3,
      .cls-4,
      .cls-5,
      .cls-6,
      .cls-8 {
        stroke-width: 2.18px;
      }

      .cls-13 {
        fill: url(#Degradado_sin_nombre_7-3);
      }

      .cls-3 {
        stroke: url(#Degradado_sin_nombre_2-12);
      }

      .cls-14 {
        fill: url(#Degradado_sin_nombre_2-7);
      }

      .cls-4 {
        stroke: url(#Degradado_sin_nombre_2-8);
      }

      .cls-15 {
        fill: url(#Degradado_sin_nombre_2);
      }

      .cls-16 {
        fill: url(#Degradado_sin_nombre_7-4);
      }

      .cls-5 {
        stroke: url(#Degradado_sin_nombre_2-9);
      }

      .cls-17 {
        fill: url(#Degradado_sin_nombre_7);
      }

      .cls-6 {
        stroke: url(#Degradado_sin_nombre_2-13);
      }

      .cls-18 {
        fill: url(#Degradado_sin_nombre_2-3);
      }

      .cls-19 {
        fill: url(#Degradado_sin_nombre_12-2);
      }

      .cls-7 {
        stroke: url(#Degradado_sin_nombre_2-5);
      }

      .cls-20 {
        fill: url(#Degradado_sin_nombre_15);
      }

      .cls-8 {
        stroke: url(#Degradado_sin_nombre_2-11);
      }

      .cls-21 {
        fill: url(#Degradado_sin_nombre_7-2);
      }

      .cls-9 {
        stroke: url(#Degradado_sin_nombre_2-6);
      }

      .cls-22 {
        fill: url(#Degradado_sin_nombre_2-2);
      }

      .cls-23 {
        fill: url(#Degradado_sin_nombre_12);
      }
    </style>
    <linearGradient id="Degradado_sin_nombre_2" x1="1.55" y1="77.33" x2="119.24" y2="77.33"
      gradientTransform="translate(-1.57 3.28) rotate(-.04)" gradientUnits="userSpaceOnUse">
      <stop offset="0" stop-color="#c9ccd1" />
      <stop offset="1" stop-color="#fff" />
    </linearGradient>
    <linearGradient id="Degradado_sin_nombre_12" x1="58.85" y1="14.54" x2="58.85" y2="147.1"
      gradientUnits="userSpaceOnUse">
      <stop offset="0" stop-color="#1f1f1f" />
      <stop offset="1" stop-color="#0a0a0a" />
    </linearGradient>
    <linearGradient id="Degradado_sin_nombre_16" x1="60.43" y1="147.73" x2="60.43" y2="108.96"
      gradientTransform="translate(-1.57 3.28) rotate(-.04)" gradientUnits="userSpaceOnUse">
      <stop offset="0" stop-color="#3700ff" />
      <stop offset="1" stop-color="#ff00e6" />
    </linearGradient>
    <linearGradient id="Degradado_sin_nombre_12-2" x1="60.4" y1="136.16" x2="60.4" y2="4.84"
      gradientTransform="translate(-1.57 3.28) rotate(-.04)" xlink:href="#Degradado_sin_nombre_12" />
    <linearGradient id="Degradado_sin_nombre_7" x1="24.16" y1="35.09" x2="24.16" y2="11.21"
      gradientTransform="translate(-1.57 3.28) rotate(-.04)" gradientUnits="userSpaceOnUse">
      <stop offset="0" stop-color="#f80" />
      <stop offset="1" stop-color="#fffb00" />
    </linearGradient>
    <linearGradient id="Degradado_sin_nombre_7-2" x1="8516.59" y1="36.32" x2="8516.59" y2="12.45"
      gradientTransform="translate(8612.06 -3.99) rotate(179.96) scale(1 -1)" xlink:href="#Degradado_sin_nombre_7" />
    <linearGradient id="Degradado_sin_nombre_2-2" x1="107.41" y1="605.41" x2="107.41" y2="556.09"
      gradientTransform="translate(44.62 -396.29) rotate(8.58) scale(1 .78)" xlink:href="#Degradado_sin_nombre_2" />
    <linearGradient id="Degradado_sin_nombre_15" x1="107.41" y1="599.98" x2="107.41" y2="560.6"
      gradientTransform="translate(44.62 -396.29) rotate(8.58) scale(1 .78)" gradientUnits="userSpaceOnUse">
      <stop offset="0" stop-color="#fb00ff" />
      <stop offset="1" stop-color="#ff0062" />
    </linearGradient>
    <linearGradient id="Degradado_sin_nombre_2-3" x1="8462.45" y1="-1010.91" x2="8462.45" y2="-1060.24"
      gradientTransform="translate(8522.93 -403.52) rotate(171.34) scale(1 -.78)"
      xlink:href="#Degradado_sin_nombre_2" />
    <linearGradient id="Degradado_sin_nombre_15-2" x1="8462.45" y1="-1016.34" x2="8462.45" y2="-1055.73"
      gradientTransform="translate(8522.93 -403.52) rotate(171.34) scale(1 -.78)"
      xlink:href="#Degradado_sin_nombre_15" />
    <linearGradient id="Degradado_sin_nombre_2-4" x1="58.77" y1="100.02" x2="62.04" y2="100.02"
      xlink:href="#Degradado_sin_nombre_2" />
    <linearGradient id="Degradado_sin_nombre_2-5" x1="51.17" y1="115.8" x2="51.17" y2="105.14"
      gradientTransform="matrix(1,0,0,1,0,0)" xlink:href="#Degradado_sin_nombre_2" />
    <linearGradient id="Degradado_sin_nombre_2-6" x1="66.64" y1="115.79" x2="66.64" y2="105.12"
      gradientTransform="matrix(1,0,0,1,0,0)" xlink:href="#Degradado_sin_nombre_2" />
    <linearGradient id="Degradado_sin_nombre_2-7" x1="8451.59" y1="-623.35" x2="8451.59" y2="-634.74"
      gradientTransform="translate(8510.04 -538.9) rotate(179.96)" xlink:href="#Degradado_sin_nombre_2" />
    <linearGradient id="Degradado_sin_nombre_2-8" x1="91.27" y1="102.48" x2="91.27" y2="91.96"
      gradientTransform="matrix(1,0,0,1,0,0)" xlink:href="#Degradado_sin_nombre_2" />
    <linearGradient id="Degradado_sin_nombre_2-9" x1="91.08" y1="104.14" x2="91.08" y2="100.48"
      gradientTransform="matrix(1,0,0,1,0,0)" xlink:href="#Degradado_sin_nombre_2" />
    <linearGradient id="Degradado_sin_nombre_2-10" x1="90.34" y1="112.95" x2="90.34" y2="104.67"
      gradientTransform="matrix(1,0,0,1,0,0)" xlink:href="#Degradado_sin_nombre_2" />
    <linearGradient id="Degradado_sin_nombre_2-11" x1="26.43" y1="102.51" x2="26.43" y2="92.02"
      gradientTransform="matrix(1,0,0,1,0,0)" xlink:href="#Degradado_sin_nombre_2" />
    <linearGradient id="Degradado_sin_nombre_2-12" x1="26.62" y1="104.18" x2="26.62" y2="100.52"
      gradientTransform="matrix(1,0,0,1,0,0)" xlink:href="#Degradado_sin_nombre_2" />
    <linearGradient id="Degradado_sin_nombre_2-13" x1="27.37" y1="113.01" x2="27.37" y2="104.7"
      gradientTransform="matrix(1,0,0,1,0,0)" xlink:href="#Degradado_sin_nombre_2" />
    <linearGradient id="Degradado_sin_nombre_7-3" x1="47.9" y1="35.91" x2="58.61" y2="35.91"
      xlink:href="#Degradado_sin_nombre_7" />
    <linearGradient id="Degradado_sin_nombre_7-4" x1="62.19" y1="35.91" x2="72.91" y2="35.91"
      xlink:href="#Degradado_sin_nombre_7" />
    <linearGradient id="Degradado_sin_nombre_2-14" x1="52.88" y1="145.13" x2="68.03" y2="145.13"
      xlink:href="#Degradado_sin_nombre_2" />
  </defs>
  <g id="OBJECTS">
    <path class="cls-15"
      d="M59,161.1c-2.36,0-4.59-.88-6.27-2.48l-1.84-1.76c-11.36-1.37-36.11-6.92-47.12-29.32-.41-.84-.63-1.73-.64-2.65l-.19-8.87c-.89-2.16-1.38-4.5-1.42-6.81L.07,41.97C-.1,39.12-.97,16.63,13.25,2.1,14.5.83,16.27.08,18.11.06c1.88,0,3.64.71,4.9,1.95.49.48,11.64,11.45,20.15,25.82.62-.14,1.24-.26,1.87-.39,3.86-.74,7.79-1.18,11.69-1.3.74-.02,1.45-.03,2.15-.03.69,0,1.39.01,2.07.03,3.99.12,7.93.54,11.74,1.27.64.12,1.28.25,1.9.39,8.47-14.36,19.6-25.36,20.09-25.84,1.26-1.24,3.02-1.95,4.83-1.95,1.87.01,3.64.74,4.89,2.01,13.92,14,13.31,38.77,13.28,39.82l-1.34,67.32c-.04,2.32-.53,4.66-1.4,6.81l-.18,8.87c-.02.92-.23,1.81-.64,2.64-10.96,22.38-35.67,27.98-47.01,29.38l-1.83,1.76c-1.68,1.61-3.91,2.5-6.28,2.5Z" />
    <path class="cls-23"
      d="M59,157.85c-1.47,0-2.84-.55-3.88-1.54l-2.67-2.55c-11.09-1.16-35.08-6.16-45.62-27.61-.2-.41-.31-.86-.32-1.32l-.2-9.48c-.88-1.94-1.37-4.07-1.41-6.19l-1.44-67.32c-.11-1.77-1.21-23.75,12.27-37.51.63-.64,1.51-1.01,2.43-1.02h.03c.91,0,1.78.35,2.41.97.53.52,12.48,12.28,20.86,27.3,1.13-.3,2.55-.64,4.23-.96,3.68-.71,7.43-1.13,11.14-1.24.69-.02,1.37-.03,2.05-.03.67,0,1.33.01,1.98.03,3.79.11,7.54.52,11.16,1.21,1.69.32,3.13.66,4.27.96,8.36-15.03,20.27-26.81,20.8-27.33.64-.62,1.51-.98,2.41-.98,0,0,.02,0,.02,0,.92,0,1.79.37,2.42,1,12.95,13.02,12.37,36.48,12.34,37.48l-1.34,67.36c-.04,2.14-.52,4.27-1.39,6.2l-.19,9.48c0,.46-.12.91-.32,1.32-10.5,21.43-34.45,26.48-45.52,27.67l-2.65,2.55c-1.04,1-2.42,1.55-3.89,1.55h0Z" />
    <path class="cls-11"
      d="M9.61,111.77l.28,13c13.17,26.78,49.08,26.12,49.08,26.12,0,0,35.91.61,49.04-26.19l.26-13-98.65.07Z" />
    <path class="cls-19"
      d="M110.92,41.63l-1.34,67.39c-.04,2.17-.59,4.31-1.71,6.18-14.68,24.53-48.91,23.94-48.91,23.94,0,0-34.25.64-48.95-23.87-1.12-1.87-1.69-4.01-1.74-6.17l-1.44-67.39s-1.55-21.97,11.35-35.15c0,0,13.33,13.04,21.57,28.94,0,0,2.47-.89,6.6-1.68,2.84-.55,6.45-1.05,10.58-1.18.64-.01,1.29-.03,1.94-.03.64,0,1.28.01,1.9.03,4.13.12,7.75.61,10.58,1.15,4.14.79,6.64,1.69,6.64,1.69,8.22-15.91,21.51-28.97,21.51-28.97,12.13,12.19,11.4,35.13,11.4,35.13Z" />
    <path class="cls-17" d="M13.1,38.31s-1.7-11.62,5.41-24.12c0,0,9.73,11.18,13.81,21.82,0,0-11.98.33-19.22,2.29Z" />
    <path class="cls-21" d="M105.01,38.24s1.69-11.62-5.44-24.11c0,0-9.71,11.19-13.77,21.84,0,0,11.98.32,19.22,2.27Z" />
    <path class="cls-22"
      d="M94.67,70c-1.86,11.85-8.53,20.72-14.89,19.79-6.36-.92-10.01-11.28-8.15-23.13,1.86-11.85,8.53-20.72,14.89-19.79,6.36.92,10.01,11.28,8.15,23.13Z" />
    <path class="cls-20"
      d="M89.17,69.2c-1.46,9.28-5.33,16.41-8.65,15.93-3.33-.48-4.84-8.4-3.38-17.67,1.46-9.28,5.33-16.41,8.66-15.93,2.28.33,3.71,4.19,3.89,9.58l-8.28,2.72,8.22,1.19c-.09,1.34-.24,2.74-.47,4.18Z" />
    <path class="cls-18"
      d="M23.08,70.05c1.88,11.85,8.56,20.7,14.92,19.77,6.36-.93,9.99-11.29,8.11-23.14-1.88-11.85-8.56-20.7-14.92-19.77-6.36.93-9.99,11.29-8.11,23.14Z" />
    <path class="cls-12"
      d="M28.59,69.25c1.47,9.28,5.36,16.4,8.67,15.92,3.33-.49,4.83-8.4,3.36-17.68-1.47-9.28-5.36-16.4-8.68-15.92-2.28.33-3.7,4.2-3.88,9.59l8.29,2.71-8.22,1.2c.09,1.34.24,2.74.47,4.18Z" />
    <line class="cls-1" x1="58.9" y1="98.89" x2="58.91" y2="107.62" />
    <path class="cls-7" d="M58.86,106.77c0,4.08-3.44,7.39-7.68,7.39-4.25,0-7.69-3.3-7.69-7.38" />
    <path class="cls-9" d="M74.33,106.76c0,4.08-3.44,7.39-7.68,7.39-4.25,0-7.69-3.3-7.69-7.38" />
    <path class="cls-14"
      d="M64.09,99.01c-2.3,3.84-8.07,3.84-10.38,0h0l-2.06-3.43c-1.39-2.31.34-5.21,3.12-5.21h4.12s4.12,0,4.12,0c2.78,0,4.52,2.89,3.13,5.2l-2.06,3.43h0Z" />
    <path class="cls-4" d="M81.71,101.39s5.73-7.17,19.11-8.34" />
    <path class="cls-5" d="M83.78,103.05s5.69-2.61,14.61-.92" />
    <path class="cls-2" d="M82.12,105.77s7.74-.49,16.45,6.09" />
    <path class="cls-8" d="M35.99,101.42s-5.74-7.16-19.13-8.31" />
    <path class="cls-3" d="M33.93,103.09s-5.7-2.6-14.61-.89" />
    <path class="cls-6" d="M35.6,105.8s-7.74-.47-16.44,6.12" />
    <path class="cls-13"
      d="M53.08,45.65c-2.81.29-5.75-4.93-6.73-11.84,2.84-.55,6.45-1.05,10.58-1.18.63,6.96-1.03,12.72-3.85,13.02Z" />
    <path class="cls-16"
      d="M71.36,33.78c-.99,6.93-3.92,12.15-6.73,11.86-2.81-.3-4.49-6.04-3.85-13.01,4.13.12,7.75.61,10.58,1.15Z" />
    <path class="cls-10"
      d="M65.29,143.5l-.18-.17c-1.69-1.62-4.44-1.62-6.12,0-1.7-1.62-4.44-1.62-6.13,0l-.18.17c-1.69,1.63-1.69,4.26,0,5.89l4.82,4.61c.83.79,2.17.79,3,0l4.79-4.61c1.69-1.63,1.69-4.27,0-5.89Z" />
  </g>
</svg>