<?xml version="1.0" encoding="UTF-8"?>
<svg id="Capa_2" xmlns="http://www.w3.org/2000/svg" xmlns:xlink="http://www.w3.org/1999/xlink"
  viewBox="0 0 133.15 139.26">
  <defs>
    <style>
      .cls-1 {
        fill: url(#Degradado_sin_nombre_24);
      }

      .cls-2 {
        fill: url(#Degradado_sin_nombre_16);
      }

      .cls-3 {
        stroke: url(#Degradado_sin_nombre_25-5);
      }

      .cls-3,
      .cls-4,
      .cls-5,
      .cls-6,
      .cls-7,
      .cls-8,
      .cls-9 {
        fill: none;
        stroke-linecap: round;
        stroke-linejoin: round;
        stroke-width: 3px;
      }

      .cls-4 {
        stroke: url(#Degradado_sin_nombre_25-4);
      }

      .cls-5 {
        stroke: url(#Degradado_sin_nombre_25-6);
      }

      .cls-6 {
        stroke: url(#Degradado_sin_nombre_25-3);
      }

      .cls-10 {
        fill: url(#Degradado_sin_nombre_18-2);
      }

      .cls-11 {
        fill: url(#Degradado_sin_nombre_16-3);
      }

      .cls-12 {
        fill: url(#Degradado_sin_nombre_2-4);
      }

      .cls-13 {
        fill: url(#Degradado_sin_nombre_2);
      }

      .cls-7 {
        stroke: url(#Degradado_sin_nombre_25-2);
      }

      .cls-14 {
        fill: url(#Degradado_sin_nombre_16-2);
      }

      .cls-15 {
        fill: url(#Degradado_sin_nombre_7);
      }

      .cls-16 {
        fill: url(#Degradado_sin_nombre_21);
      }

      .cls-17 {
        fill: url(#Degradado_sin_nombre_2-5);
      }

      .cls-18 {
        fill: url(#Degradado_sin_nombre_3);
      }

      .cls-19 {
        fill: url(#Degradado_sin_nombre_2-3);
      }

      .cls-20 {
        fill: url(#Degradado_sin_nombre_18);
      }

      .cls-21 {
        fill: url(#Degradado_sin_nombre_7-2);
      }

      .cls-8 {
        stroke: url(#Degradado_sin_nombre_25);
      }

      .cls-22 {
        fill: url(#Degradado_sin_nombre_2-2);
      }

      .cls-9 {
        stroke: url(#Degradado_sin_nombre_25-7);
      }

      .cls-23 {
        fill: url(#Degradado_sin_nombre_12);
      }
    </style>
    <linearGradient id="Degradado_sin_nombre_2" x1="66.58" y1="141.07" x2="66.58" y2="6.36"
      gradientUnits="userSpaceOnUse">
      <stop offset="0" stop-color="#c9ccd1" />
      <stop offset="1" stop-color="#fff" />
    </linearGradient>
    <linearGradient id="Degradado_sin_nombre_12" x1="66.58" y1="138.79" x2="66.58" y2="9.07"
      gradientUnits="userSpaceOnUse">
      <stop offset="0" stop-color="#1f1f1f" />
      <stop offset="1" stop-color="#0a0a0a" />
    </linearGradient>
    <linearGradient id="Degradado_sin_nombre_25" x1="64.36" y1="43.76" x2="64.36" y2="5.95"
      gradientUnits="userSpaceOnUse">
      <stop offset="0" stop-color="#fff" />
      <stop offset=".33" stop-color="#fcfcfc" />
      <stop offset=".57" stop-color="#f2f3f4" />
      <stop offset=".78" stop-color="#e2e4e6" />
      <stop offset=".98" stop-color="#ccced3" />
      <stop offset="1" stop-color="#c9ccd1" />
    </linearGradient>
    <linearGradient id="Degradado_sin_nombre_25-2" x1="78.84" y1="44.41" x2="78.84" y2="7.48"
      xlink:href="#Degradado_sin_nombre_25" />
    <linearGradient id="Degradado_sin_nombre_25-3" x1="93.41" y1="47.92" x2="93.41" y2="14.19"
      xlink:href="#Degradado_sin_nombre_25" />
    <linearGradient id="Degradado_sin_nombre_25-4" x1="106.39" y1="54.05" x2="106.39" y2="25.61"
      xlink:href="#Degradado_sin_nombre_25" />
    <linearGradient id="Degradado_sin_nombre_25-5" x1="49.17" y1="45.67" x2="49.17" y2="9.13"
      xlink:href="#Degradado_sin_nombre_25" />
    <linearGradient id="Degradado_sin_nombre_25-6" x1="36" y1="49.86" x2="36" y2="16.48"
      xlink:href="#Degradado_sin_nombre_25" />
    <linearGradient id="Degradado_sin_nombre_25-7" x1="24.74" y1="56.09" x2="24.74" y2="27.57"
      xlink:href="#Degradado_sin_nombre_25" />
    <linearGradient id="Degradado_sin_nombre_2-2" x1="66.58" y1="91.83" x2="66.58" y2="42.34"
      xlink:href="#Degradado_sin_nombre_2" />
    <linearGradient id="Degradado_sin_nombre_18" x1="-3.57" y1="136.23" x2="18.11" y2="136.23"
      gradientTransform="translate(46.98 -42.88) rotate(.03)" gradientUnits="userSpaceOnUse">
      <stop offset="0" stop-color="#8ad100" />
      <stop offset="1" stop-color="#dcf500" />
    </linearGradient>
    <linearGradient id="Degradado_sin_nombre_7" x1="10.4" y1="136.23" x2="32.07" y2="136.23"
      gradientTransform="translate(46.98 -42.88) rotate(.03)" gradientUnits="userSpaceOnUse">
      <stop offset="0" stop-color="#f80" />
      <stop offset="1" stop-color="#fffb00" />
    </linearGradient>
    <linearGradient id="Degradado_sin_nombre_16" x1="24.37" y1="136.23" x2="46.04" y2="136.23"
      gradientTransform="translate(46.98 -42.88) rotate(.03)" gradientUnits="userSpaceOnUse">
      <stop offset="0" stop-color="#3700ff" />
      <stop offset="1" stop-color="#ff00e6" />
    </linearGradient>
    <linearGradient id="Degradado_sin_nombre_3" x1="66.58" y1="87.29" x2="66.58" y2="41.27"
      gradientTransform="translate(119.45 -13.56) rotate(89.37)" gradientUnits="userSpaceOnUse">
      <stop offset="0" stop-color="#0087ff" />
      <stop offset="1" stop-color="#00f2ff" />
    </linearGradient>
    <linearGradient id="Degradado_sin_nombre_21" x1="64.69" y1="86.72" x2="64.69" y2="57.48"
      gradientTransform="translate(2.5 -15) rotate(.63)" gradientUnits="userSpaceOnUse">
      <stop offset="0" stop-color="#0a0a0a" />
      <stop offset="1" stop-color="#1f1f1f" />
    </linearGradient>
    <linearGradient id="Degradado_sin_nombre_2-3" x1="6.55" y1="89.16" x2="17.25" y2="89.16"
      gradientTransform="translate(46.98 -42.88) rotate(.03)" xlink:href="#Degradado_sin_nombre_2" />
    <linearGradient id="Degradado_sin_nombre_2-4" x1="7.46" y1="102.88" x2="11.82" y2="102.88"
      gradientTransform="translate(46.98 -42.88) rotate(.03)" xlink:href="#Degradado_sin_nombre_2" />
    <linearGradient id="Degradado_sin_nombre_24" x1="20.12" y1="87.24" x2="20.12" y2="58.03"
      gradientTransform="translate(46.98 -42.88) rotate(.03)" gradientUnits="userSpaceOnUse">
      <stop offset="0" stop-color="#acaeb3" />
      <stop offset="1" stop-color="#f0f0f0" />
    </linearGradient>
    <linearGradient id="Degradado_sin_nombre_2-5" x1="65.03" y1="132.77" x2="65.03" y2="116.93"
      xlink:href="#Degradado_sin_nombre_2" />
    <linearGradient id="Degradado_sin_nombre_16-2" x1="155.74" y1="-142.91" x2="163.34" y2="-142.91"
      gradientTransform="translate(-35.33 282.59) rotate(-11.39)" xlink:href="#Degradado_sin_nombre_16" />
    <linearGradient id="Degradado_sin_nombre_16-3" x1="2610.9" y1="-77.18" x2="2618.5" y2="-77.18"
      gradientTransform="translate(2632.05 -181.11) rotate(171.82) scale(1 -1)" xlink:href="#Degradado_sin_nombre_16" />
    <linearGradient id="Degradado_sin_nombre_18-2" x1="2563.19" y1="813.22" x2="2570.79" y2="813.22"
      gradientTransform="translate(2649.96 757.95) rotate(-148.39) scale(1 -1)" xlink:href="#Degradado_sin_nombre_18" />
    <linearGradient id="Degradado_sin_nombre_7-2" x1="-16.97" y1="616.51" x2="-9.37" y2="616.51"
      gradientTransform="translate(352.41 -445.39) rotate(22.98)" xlink:href="#Degradado_sin_nombre_7" />
  </defs>
  <g id="OBJECTS">
    <path class="cls-13"
      d="M64.98,139.26h-31.28c-5.77,0-10.49-4.61-10.52-10.28,0-3.33,1.2-6.51,3.27-9-.6-.46-1.14-1-1.6-1.6-2.32-2.99-2.31-7.22.04-10.05,1.03-1.23,2.42-2.11,3.98-2.54-.24-.88-.35-1.78-.33-2.68.14-3.81,2.86-7.05,6.46-7.72.43-.08.89-.12,1.38-.12,1.81,0,3.61.64,5.07,1.8.67.54,1.27,1.17,1.79,1.91,1.2-1.63,1.84-2.89,1.84-5.37,0-3-.93-4.21-2.61-6.4,0,0-.26-.33-.35-.45-9.5-3.07-18.24-7.85-25.98-14.2l-11.71-9.61c-2.82-2.31-4.43-5.73-4.43-9.38s1.62-7.07,4.44-9.37l8.25-6.76c-1.01-.6-2.04-1.16-3.1-1.68-3.68-1.81-5.2-6.28-3.39-9.97,1.28-2.57,3.84-4.16,6.69-4.16,1.13,0,2.27.26,3.28.76,3.29,1.61,6.4,3.51,9.27,5.66.38-.23.77-.46,1.15-.68-1.21-1.28-2.5-2.51-3.88-3.66-1.53-1.28-2.47-3.07-2.65-5.05-.18-1.99.43-3.93,1.71-5.46,1.41-1.69,3.49-2.67,5.71-2.67,1.74,0,3.43.61,4.77,1.72,3.15,2.63,5.98,5.53,8.46,8.65.35-.12.7-.24,1.05-.35-1.01-1.89-2.17-3.73-3.47-5.47-1.19-1.63-1.68-3.6-1.38-5.55.29-1.95,1.33-3.69,2.92-4.88,1.3-.96,2.83-1.47,4.45-1.47,2.34,0,4.58,1.12,5.99,3.01,2.58,3.49,4.74,7.18,6.45,11.01.33-.04.65-.08.98-.11-.55-2.27-1.29-4.53-2.22-6.73-1.6-3.78.17-8.16,3.96-9.77.95-.39,1.92-.58,2.9-.58,3,0,5.69,1.78,6.87,4.55,1.69,4.01,2.93,8.13,3.7,12.3.87.07,1.75.15,2.62.25.06-2.36-.08-4.73-.4-7.09-.27-2,.24-3.96,1.44-5.53,1.19-1.57,2.94-2.6,4.91-2.88.32-.05.66-.07,1.04-.07,3.71,0,6.88,2.77,7.38,6.44.57,4.13.72,8.24.43,12.25.88.27,1.75.56,2.6.86.57-2.06,1-4.18,1.27-6.31.46-3.72,3.64-6.52,7.4-6.52.29,0,.57.02.86.05,2.03.25,3.8,1.26,5.02,2.83,1.22,1.56,1.76,3.52,1.51,5.5-.47,3.7-1.26,7.32-2.38,10.78.63.36,1.24.73,1.85,1.1l.7.46c.83-1.5,1.57-3.06,2.22-4.66,1.14-2.82,3.86-4.64,6.91-4.64.99,0,1.95.19,2.85.57,1.8.74,3.24,2.15,4.01,3.97.78,1.88.78,3.91.02,5.74-1.15,2.82-2.5,5.53-4.03,8.08l8.08,6.64c.39.3.75.69,1.06,1.12,2,2.36,3.01,5.34,2.85,8.43-.16,3.41-1.77,6.62-4.42,8.79l-11.72,9.6c-6.13,5.02-12.88,9.05-20.12,12.03,1.13,2.28,2.03,5.19,2.03,9,0,3.49-.73,6.19-1.71,8.37.47.17.92.38,1.34.63,2.21,1.29,3.57,3.63,3.79,6.16.55.06,1.08.16,1.59.31,2.26.65,4.12,2.2,5.09,4.26,1.56,3.34.49,7.43-2.53,9.74-.24.18-.49.35-.75.51.37.76.65,1.56.84,2.38.32,1.3.4,2.68.24,4.06-.58,5.23-5.07,9.19-10.44,9.19h-3.07c-.13,0-.26,0-.38,0h-27.94Z" />
    <path class="cls-23"
      d="M130.16,54.07c-.12,2.58-1.33,5-3.33,6.64l-11.72,9.6c-6.81,5.58-14.41,9.89-22.63,12.83,1.72,2.4,3.45,5.48,3.45,10.51,0,6.01-2.46,9.23-4.45,11.83.44-.28.89-.5,1.35-.66.56-.18,1.13-.28,1.71-.28.88,0,1.74.23,2.47.67,1.97,1.15,2.84,3.67,2.09,5.96-.12.34-.27.68-.45.99.5-.15.96-.26,1.38-.32.47-.07.88-.11,1.29-.11.62,0,1.2.08,1.75.24,1.45.42,2.62,1.39,3.23,2.67.96,2.07.27,4.63-1.65,6.1-1.03.79-2.37,1.21-3.85,1.25,1.38,1.24,2.43,2.86,2.85,4.68.24.98.3,2.01.18,3.04-.42,3.74-3.63,6.55-7.47,6.55h-3.17c-.09.01-.19.01-.28.01,0,0-27.94-.01-27.94-.01h-31.28c-4.12,0-7.51-3.29-7.53-7.32,0-4.19,2.43-8.06,6.11-9.88-.29-.03-.59-.07-.89-.13-1.78-.35-3.23-1.17-4.17-2.4-1.48-1.91-1.49-4.56-.03-6.32.9-1.08,2.3-1.73,3.81-1.76h.12c.9,0,1.84.21,2.84.65.39.17.81.4,1.25.66-.16-.16-.36-.35-.56-.54-.45-.44-.96-.93-1.44-1.52-1.15-1.41-1.73-2.97-1.68-4.51.09-2.42,1.78-4.46,4.03-4.88.27-.05.56-.07.83-.07,1.14,0,2.28.41,3.21,1.15.75.6,1.35,1.38,1.87,2.41.44.85.84,2.04,1.07,3.33.73-1.26,1.54-2.33,2.29-3.3,1.81-2.36,3.24-4.21,3.24-8.22s-1.42-5.86-3.23-8.22c-.3-.39-.61-.79-.9-1.19-9.49-2.94-18.2-7.63-25.9-13.95l-11.71-9.61c-2.13-1.75-3.34-4.32-3.34-7.08s1.22-5.33,3.35-7.07l11.38-9.33c-2.13-1.54-4.4-2.91-6.8-4.09-2.21-1.08-3.12-3.78-2.04-5.98.77-1.54,2.31-2.49,4.02-2.49.68,0,1.36.16,1.97.46,3.75,1.84,7.24,4.06,10.4,6.61,1.94-1.24,3.95-2.41,6-3.48-1.95-2.45-4.16-4.72-6.63-6.78-.91-.77-1.48-1.84-1.59-3.03-.11-1.19.26-2.36,1.02-3.27.84-1.01,2.1-1.6,3.43-1.6,1.05,0,2.07.37,2.87,1.03,3.55,2.96,6.67,6.28,9.3,9.9,1.89-.71,3.83-1.34,5.77-1.9.18-.05.35-.1.53-.15-1.38-3.19-3.14-6.23-5.27-9.09-.71-.96-1-2.15-.82-3.32.18-1.18.8-2.23,1.76-2.94.78-.58,1.7-.87,2.66-.87,1.41,0,2.75.68,3.6,1.81,2.9,3.93,5.25,8.12,6.99,12.49,2.13-.33,4.27-.57,6.41-.71-.58-3.59-1.6-7.13-3.05-10.57-.96-2.28.1-4.9,2.38-5.86.56-.23,1.14-.35,1.74-.35,1.8,0,3.42,1.07,4.12,2.73,1.92,4.54,3.22,9.23,3.88,13.95,2.66.13,5.32.4,7.96.81.35-3.57.28-7.22-.23-10.87-.16-1.18.14-2.37.86-3.32.72-.94,1.77-1.56,2.95-1.73.21-.03.42-.04.62-.04,2.22,0,4.12,1.66,4.42,3.86.66,4.73.73,9.43.19,14.01,2.63.74,5.22,1.6,7.69,2.58,1.12-3.15,1.91-6.44,2.34-9.83.28-2.24,2.19-3.92,4.44-3.92.18,0,.35,0,.53.03,1.2.15,2.27.75,2.99,1.69.74.94,1.06,2.12.91,3.31-.55,4.34-1.57,8.55-3.06,12.53,1.35.73,2.66,1.48,3.92,2.26.23.15.47.31.7.46l.76.49c.46.3.9.59,1.35.89.14.09.28.18.42.28,1.57-2.42,2.92-5.01,4.03-7.73.69-1.69,2.32-2.78,4.14-2.78.58,0,1.15.11,1.7.34,1.09.45,1.96,1.3,2.43,2.4.46,1.1.47,2.33,0,3.43-1.42,3.49-3.16,6.8-5.2,9.86l10.11,8.31c.24.19.44.41.6.65,1.54,1.77,2.36,4.09,2.24,6.45Z" />
    <path class="cls-8" d="M63.58,42.26s7-15.36-1.22-34.8" />
    <path class="cls-7" d="M74.67,42.91s10.74-13.02,7.85-33.93" />
    <path class="cls-6" d="M85.22,46.42s13.75-9.79,16.38-30.73" />
    <path class="cls-4" d="M94.5,52.55s15.82-5.89,23.79-25.44" />
    <path class="cls-3" d="M53.68,44.17s3.19-16.58-9.38-33.54" />
    <path class="cls-5" d="M44.51,48.36s-.81-16.86-17.01-30.38" />
    <path class="cls-9" d="M36.58,54.59s-4.75-16.2-23.69-25.52" />
    <path class="cls-22"
      d="M19.92,67.96c27.11,22.26,66.17,22.28,93.3.04l11.72-9.6c3.01-2.47,3.01-7.07,0-9.53l-11.71-9.61c-27.11-22.26-66.17-22.28-93.3-.04l-11.72,9.6c-3.01,2.47-3.01,7.07,0,9.53l11.71,9.61Z" />
    <path class="cls-20"
      d="M57.3,113.72c0-10.05,7.71-10.05,7.72-20.09,0-10.04-7.7-10.04-7.7-20.09,0-10.04,7.71-10.04,7.72-20.07h-13.97c0,10.03-7.71,10.03-7.72,20.07,0,10.05,7.7,10.05,7.7,20.09,0,10.04-7.71,10.04-7.72,20.09,0,9.86,7.42,10.05,7.69,19.57h13.97c-.26-9.51-7.69-9.7-7.69-19.56Z" />
    <path class="cls-15"
      d="M71.27,113.73c0-10.05,7.71-10.05,7.71-20.09,0-10.04-7.7-10.04-7.69-20.09,0-10.04,7.71-10.04,7.71-20.07h-13.96c0,10.03-7.71,10.03-7.72,20.07,0,10.05,7.7,10.05,7.7,20.09,0,10.04-7.71,10.04-7.72,20.09,0,9.86,7.42,10.05,7.69,19.57h13.96c-.26-9.51-7.68-9.7-7.68-19.56Z" />
    <path class="cls-2"
      d="M85.23,113.73c0-10.05,7.71-10.05,7.72-20.09s-7.7-10.04-7.7-20.09c0-10.04,7.71-10.04,7.72-20.08h-13.97c0,10.03-7.71,10.03-7.71,20.07,0,10.05,7.7,10.05,7.69,20.09,0,10.04-7.71,10.04-7.71,20.09,0,9.86,7.42,10.05,7.68,19.57h13.97c-.26-9.51-7.69-9.7-7.69-19.56Z" />
    <ellipse class="cls-18" cx="66.58" cy="53.6" rx="31.05" ry="27.1"
      transform="translate(12.25 119.59) rotate(-89.37)" />
    <path class="cls-16"
      d="M79.98,62.74c-4.43,8.5-14.02,11.29-21.42,6.25-7.41-5.05-9.81-16.03-5.39-24.53,4.43-8.49,14.01-11.29,21.42-6.24,4.03,2.75,6.58,7.25,7.35,12.16l-3.69,1.55-6.32,2.65,6.12,3.17,3.28,1.69c-.35,1.12-.79,2.23-1.35,3.3Z" />
    <path class="cls-19"
      d="M53.69,49.5c-.2.94-.32,1.94-.08,2.87.24.93.92,1.76,1.76,1.84.86.08,1.66-.65,2.09-1.51.43-.86.59-1.86.85-2.82.66-2.51,1.99-4.78,3.76-6.43.74-.69,1.6-1.33,1.97-2.34.55-1.5-.5-2.95-1.8-2.7-1.32.26-2.78,1.55-3.79,2.5-2.33,2.19-4.06,5.23-4.76,8.59Z" />
    <path class="cls-12"
      d="M58.41,62.41c.61-.86.27-2.14-.17-3.12-.29-.64-.62-1.27-1.1-1.73-1.68-1.64-3.22-.03-2.64,2.05.41,1.47,2.29,5.08,3.91,2.8Z" />
    <path class="cls-1"
      d="M125.44,49.27c-16.08-4.08-37.05-6.54-59.99-6.55-21.44-.01-41.16,2.12-56.78,5.72l11.27-9.23c27.13-22.24,66.19-22.22,93.3.04l12.2,10.02Z" />
    <path class="cls-17"
      d="M100.76,127.37c-.53-2.23-2.41-4.08-4.64-4.58-2.24-.5-4.75.57-6.18,2.36.63-.99.62-2.35-.02-3.33-.64-.98-1.88-1.54-3.04-1.37-1.16.17-2.36,1.18-2.69,2.31.63-2.27-.25-4.84-2.01-6.41-1.76-1.57-4.3-2.15-6.62-1.72-2.32.43-4.29,1.67-5.77,3.51-.36-1.41-1.81-2.46-3.27-2.37-1.46.09-2.64,1.42-2.82,2.87-.48-2.61-2.43-4.9-4.93-5.78-2.5-.88-5.46-.32-7.47,1.42-1.87,1.62-3.02,4.32-2.75,6.79-.22-1.1-1.03-2.08-2.09-2.46-1.23-.44-2.71-.05-3.56.95-.85.99-.91,2.45-.29,3.6-2.23-2.14-5.78-2.79-8.63-1.58-2.85,1.21-4.84,4.22-4.84,7.32,0,.02,0,.03,0,.05.01,2.44,2.12,4.35,4.56,4.35h62.66c2.26,0,4.26-1.65,4.51-3.89.08-.67.04-1.36-.12-2.02Z" />
    <path class="cls-14"
      d="M92.29,108.6c.43-.4.92-.77,1.48-.95.56-.19,1.21-.18,1.72.12.8.47,1.06,1.58.77,2.46-.29.88-1.02,1.56-1.82,2.03-.8.47-1.68.78-2.52,1.2-.68.34-1.44,1.23-2.15,1.35-.71-1.93,1.17-4.94,2.52-6.2Z" />
    <path class="cls-11"
      d="M32.77,111.86c-.54-.24-1.12-.41-1.72-.4-.59.01-1.2.23-1.58.69-.6.71-.47,1.84.1,2.58.57.73,1.48,1.12,2.4,1.3.91.18,1.85.18,2.77.28.76.09,1.77.68,2.48.55.03-2.06-2.75-4.26-4.45-5Z" />
    <path class="cls-10"
      d="M38.8,103.15c-.27-.53-.6-1.04-1.06-1.41-.46-.37-1.07-.59-1.66-.48-.91.17-1.54,1.11-1.57,2.04-.03.93.42,1.81,1.01,2.54.59.72,1.31,1.32,1.95,1.99.52.55.92,1.65,1.55,2.01,1.34-1.56.61-5.04-.22-6.69Z" />
    <path class="cls-21"
      d="M100.49,114.79c.59-.09,1.19-.11,1.76.05.57.16,1.1.53,1.35,1.07.39.84-.01,1.9-.75,2.47-.74.56-1.72.71-2.65.65-.93-.06-1.83-.3-2.75-.43-.75-.11-1.88.2-2.54-.1.5-1.99,3.75-3.42,5.58-3.7Z" />
  </g>
</svg>