<?xml version="1.0" encoding="UTF-8"?>
<svg id="Capa_2" xmlns="http://www.w3.org/2000/svg" xmlns:xlink="http://www.w3.org/1999/xlink"
  viewBox="0 0 149.61 124.84">
  <defs>
    <style>
      .cls-1 {
        stroke: url(#Degradado_sin_nombre_8-3);
      }

      .cls-1,
      .cls-2,
      .cls-3 {
        fill: none;
        stroke-linecap: round;
        stroke-linejoin: round;
        stroke-width: 3px;
      }

      .cls-4 {
        fill: url(#Degradado_sin_nombre_12-3);
      }

      .cls-2 {
        stroke: url(#Degradado_sin_nombre_8);
      }

      .cls-5 {
        fill: url(#Degradado_sin_nombre_2);
      }

      .cls-3 {
        stroke: url(#Degradado_sin_nombre_8-2);
      }

      .cls-6 {
        fill: url(#Degradado_sin_nombre_2-3);
      }

      .cls-7 {
        fill: url(#Degradado_sin_nombre_18);
      }

      .cls-8 {
        fill: url(#Degradado_sin_nombre_12-2);
      }

      .cls-9 {
        fill: url(#Degradado_sin_nombre_2-2);
      }

      .cls-10 {
        fill: url(#Degradado_sin_nombre_12);
      }
    </style>
    <linearGradient id="Degradado_sin_nombre_2" x1="73.41" y1="130.46" x2="76.7" y2="-5.48"
      gradientUnits="userSpaceOnUse">
      <stop offset="0" stop-color="#c9ccd1" />
      <stop offset="1" stop-color="#fff" />
    </linearGradient>
    <linearGradient id="Degradado_sin_nombre_12" x1="74.8" y1="3.71" x2="74.8" y2="117.85"
      gradientUnits="userSpaceOnUse">
      <stop offset="0" stop-color="#1f1f1f" />
      <stop offset="1" stop-color="#0a0a0a" />
    </linearGradient>
    <linearGradient id="Degradado_sin_nombre_18" x1="74.8" y1="118.81" x2="74.8" y2="5.52"
      gradientUnits="userSpaceOnUse">
      <stop offset="0" stop-color="#8ad100" />
      <stop offset="1" stop-color="#dcf500" />
    </linearGradient>
    <linearGradient id="Degradado_sin_nombre_2-2" x1="56.12" y1="77.43" x2="56.12" y2="23.65"
      xlink:href="#Degradado_sin_nombre_2" />
    <linearGradient id="Degradado_sin_nombre_12-2" x1="56.12" y1="24.13" x2="56.12" y2="72.99"
      xlink:href="#Degradado_sin_nombre_12" />
    <linearGradient id="Degradado_sin_nombre_2-3" x1="93.48" y1="77.43" x2="93.48" y2="23.65"
      xlink:href="#Degradado_sin_nombre_2" />
    <linearGradient id="Degradado_sin_nombre_12-3" x1="93.48" y1="24.13" x2="93.48" y2="72.99"
      xlink:href="#Degradado_sin_nombre_12" />
    <linearGradient id="Degradado_sin_nombre_8" x1="59.64" y1="-66.07" x2="135.4" y2="-66.07"
      gradientTransform="translate(-16.87 167.08) rotate(-3.89)" gradientUnits="userSpaceOnUse">
      <stop offset="0" stop-color="#141414" />
      <stop offset="1" stop-color="#141414" />
    </linearGradient>
    <linearGradient id="Degradado_sin_nombre_8-2" x1="32.83" y1="85.81" x2="45.66" y2="85.81"
      gradientTransform="matrix(1,0,0,1,0,0)" xlink:href="#Degradado_sin_nombre_8" />
    <linearGradient id="Degradado_sin_nombre_8-3" x1="105.49" y1="84.37" x2="118.33" y2="84.37"
      gradientTransform="matrix(1,0,0,1,0,0)" xlink:href="#Degradado_sin_nombre_8" />
  </defs>
  <g id="OBJECTS">
    <path class="cls-5"
      d="M74.74,124.84c-11.71,0-23.12-3.26-33.01-9.43-6.52-4.07-13.33-7.1-20.24-9.01-.94-.26-1.88-.54-2.81-.84-7.95-2.58-10.2-7.02-10.69-10.3-.63-4.21,1.4-7.52,2.89-9.93l.28-.46c.28-.45.47-.83.6-1.13-.46-.13-1.01-.26-1.44-.36-2.58-.6-6.48-1.52-8.82-5.14-2.03-3.17-2.01-7.54.06-11.12,2.34-4.08,10.28-10.03,12.81-11.86.27-.22.83-.69,1.18-1.04-.03-.03-.09-.11-.09-.11,0,0,.03.02.05.04l-.17-.16c-.63-.62-1.68-1.19-2.78-1.76-6.21-3.25-8.99-7.34-8.26-12.16.67-4.51,4.26-6.96,6.91-8.4.34-.18.68-.37,1.03-.55,6.88-3.64,13.65-8.52,20.11-14.5C43.92,5.89,58.97,0,74.74,0s30.78,5.88,42.34,16.55c6.49,5.99,13.22,10.84,20.03,14.41.43.23.86.46,1.29.69,2.64,1.45,6.23,3.89,6.91,8.4.72,4.83-2.06,8.92-8.26,12.16-1.14.6-2.21,1.19-2.8,1.78l-.11.11s-.06.07-.09.1c.19.2.51.48,1.02.9.03.03.27.23.27.23l7.52,6.17c1.58,1.29,3.74,3.07,5.19,5.62,2.05,3.57,2.08,7.92.05,11.09-2.33,3.64-6.23,4.55-8.82,5.15-.43.1-.98.23-1.44.36.13.3.33.68.6,1.13l.26.42c1.5,2.42,3.55,5.74,2.91,9.97-.49,3.28-2.73,7.73-10.69,10.3-1.14.37-2.3.71-3.46,1.02-6.49,1.73-12.98,4.65-19.84,8.91-9.86,6.12-21.23,9.36-32.89,9.36Z" />
    <path class="cls-10"
      d="M74.74,122.08c-11.19,0-22.1-3.12-31.55-9.01-6.74-4.21-13.8-7.35-20.97-9.33-.91-.25-1.81-.52-2.7-.81-5.3-1.72-8.26-4.44-8.81-8.09-.48-3.22,1.18-5.91,2.51-8.07l.29-.47c1.13-1.84,1.53-3.31,1.12-4.06-.45-.8-2.02-1.17-3.67-1.56-2.4-.56-5.4-1.26-7.13-3.95-1.48-2.31-1.43-5.55.13-8.26,2.1-3.67,10.2-9.68,12.13-11.07.02-.02.05-.04.07-.06,1.08-.89,2.07-1.76,2.29-2.62.17-.69-.2-1.69-.92-2.49-.05-.06-.1-.12-.16-.17-.03-.03-.06-.05-.09-.08-.9-.88-2.13-1.55-3.42-2.23-1.89-.99-7.61-3.99-6.81-9.3.48-3.26,3.2-5.13,5.51-6.39.33-.18.66-.36,1-.54,7.09-3.75,14.06-8.77,20.69-14.92,11.05-10.23,25.44-15.86,40.51-15.86s29.42,5.62,40.47,15.82c6.66,6.15,13.6,11.14,20.62,14.82.42.22.83.44,1.25.67,2.31,1.26,5.01,3.13,5.51,6.39.79,5.33-4.94,8.32-6.82,9.3-1.39.73-2.62,1.41-3.48,2.29-.03.03-.05.05-.08.08-.04.04-.08.08-.12.12-.72.79-1.08,1.77-.9,2.48.21.86,1.22,1.74,2.14,2.5.04.03.22.19.22.19l7.57,6.22c1.49,1.22,3.34,2.74,4.54,4.86,1.55,2.69,1.6,5.93.12,8.24-1.72,2.69-4.72,3.39-7.12,3.95-1.66.39-3.22.75-3.67,1.56-.41.74,0,2.22,1.11,4.05l.26.43c1.34,2.17,3.02,4.88,2.53,8.11-.54,3.65-3.5,6.37-8.81,8.09-1.1.35-2.21.68-3.32.98-6.76,1.81-13.49,4.83-20.58,9.23-9.42,5.85-20.29,8.94-31.43,8.94Z" />
    <path class="cls-7"
      d="M143.46,75.25c-2.27,3.55-8.83,1.98-10.88,5.65-1.18,2.12-.1,4.77,1.16,6.84,1.27,2.07,2.78,4.29,2.42,6.69-.47,3.16-3.88,4.89-6.93,5.87-1.05.34-2.12.65-3.18.94-7.57,2.02-14.67,5.42-21.33,9.55-8.7,5.41-18.97,8.53-29.98,8.53s-21.36-3.15-30.09-8.59c-6.75-4.21-14.02-7.53-21.69-9.65-.87-.24-1.73-.5-2.59-.78-3.04-.98-6.45-2.71-6.93-5.87-.36-2.4,1.16-4.63,2.42-6.69,1.27-2.07,2.35-4.72,1.17-6.84-2.05-3.68-8.61-2.1-10.89-5.65-1.02-1.59-.74-3.75.2-5.39,1.94-3.39,11.45-10.3,11.56-10.37h0c1.37-1.13,2.78-2.38,3.21-4.09.43-1.76-.33-3.65-1.54-4.99-.12-.13-.24-.26-.38-.38-1.16-1.13-2.62-1.94-4.07-2.7-2.65-1.39-5.81-3.48-5.36-6.45.3-2.05,2.27-3.39,4.1-4.38.32-.17.64-.35.96-.52,7.76-4.11,14.83-9.37,21.28-15.33,10.15-9.39,23.73-15.13,38.64-15.13s28.45,5.72,38.6,15.09c6.42,5.93,13.46,11.18,21.2,15.24.4.21.81.43,1.21.65,1.82,1,3.79,2.33,4.1,4.38.44,2.96-2.71,5.06-5.37,6.45-1.49.79-3,1.62-4.17,2.81-.1.09-.18.18-.27.28-1.22,1.35-1.98,3.23-1.54,4.99.41,1.66,1.74,2.88,3.07,3.97.08.07.16.13.23.2,2.52,2.07,5.04,4.14,7.56,6.2,1.47,1.2,2.96,2.44,3.9,4.09.94,1.64,1.22,3.8.2,5.39Z" />
    <path class="cls-9"
      d="M54.8,22.07c-1.16,1.41-1.34,3.41-2.39,4.9-.98,1.38-2.57,2.17-4,3.07-1.43.9-2.86,2.14-3.1,3.81-.24,1.65.74,3.22,1.8,4.51,1.06,1.29,2.29,2.54,2.71,4.15.64,2.45-.76,4.92-2.05,7.1-1.3,2.18-2.59,4.75-1.74,7.14,1.06,2.99,4.95,4.14,6.23,7.05,1.59,3.63-1.63,8.16.22,11.67.79,1.5,2.49,2.47,4.19,2.39,1.69-.08,3.29-1.21,3.94-2.78.62-1.52.41-3.34,1.33-4.7,1.13-1.67,3.61-2.06,4.61-3.81,1.03-1.81-.03-4.1-1.36-5.71-1.32-1.61-2.98-3.15-3.29-5.21-.63-4.27,4.87-7.51,4.55-11.82-.28-3.73-4.78-6.01-5.27-9.72-.21-1.59.37-3.17.95-4.67.58-1.5,1.19-3.07,1.02-4.66-.4-3.87-5.81-5.82-8.36-2.71Z" />
    <path class="cls-8"
      d="M64.1,65.17c-.15.26-.81.65-1.34.96-1,.6-2.25,1.34-3.16,2.66-.89,1.3-1.11,2.69-1.29,3.81-.09.55-.18,1.06-.32,1.41-.23.56-.86,1-1.46,1.03h-.07c-.58,0-1.22-.38-1.49-.89-.49-.93-.22-2.4.1-4.1.41-2.25.89-4.81-.24-7.37-.89-2.04-2.48-3.33-3.88-4.47-1.02-.83-1.99-1.6-2.27-2.4-.43-1.22.52-3.09,1.51-4.74,1.32-2.22,3.32-5.58,2.36-9.26-.52-1.99-1.79-3.48-2.82-4.69-.15-.19-.31-.36-.46-.55-1.12-1.36-1.22-2.02-1.18-2.29.04-.23.28-.87,1.81-1.83.25-.16.5-.31.75-.46,1.37-.82,2.91-1.75,4.06-3.38.71-.99,1.09-2.04,1.44-2.96.27-.72.52-1.39.84-1.77.1-.13.41-.51,1.14-.51.96,0,2.11.71,2.21,1.72.1.93-.38,2.16-.85,3.35-.6,1.56-1.43,3.69-1.12,6.06.34,2.61,1.89,4.5,3.25,6.17.52.64,1,1.23,1.37,1.8l-5.53,2.82,5.5.93c-.32.59-.75,1.22-1.17,1.87-1.41,2.12-3.17,4.74-2.69,8,.37,2.5,1.94,4.31,3.21,5.77.24.28.47.54.7.82.95,1.17,1.25,2.22,1.08,2.51Z" />
    <path class="cls-6"
      d="M92.17,22.07c-1.16,1.41-1.34,3.41-2.39,4.9-.98,1.38-2.57,2.17-4,3.07-1.43.9-2.86,2.14-3.1,3.81-.24,1.65.74,3.22,1.8,4.51,1.06,1.29,2.29,2.54,2.71,4.15.64,2.45-.76,4.92-2.05,7.1-1.3,2.18-2.59,4.75-1.74,7.14,1.06,2.99,4.95,4.14,6.23,7.05,1.59,3.63-1.63,8.16.22,11.67.79,1.5,2.49,2.47,4.19,2.39,1.69-.08,3.29-1.21,3.94-2.78.62-1.52.41-3.34,1.33-4.7,1.13-1.67,3.61-2.06,4.61-3.81,1.03-1.81-.03-4.1-1.36-5.71-1.32-1.61-2.98-3.15-3.29-5.21-.63-4.27,4.87-7.51,4.55-11.82-.28-3.73-4.78-6.01-5.27-9.72-.21-1.59.37-3.17.95-4.67.58-1.5,1.19-3.07,1.02-4.66-.4-3.87-5.81-5.82-8.36-2.71Z" />
    <path class="cls-4"
      d="M101.46,65.17c-.15.26-.81.65-1.34.96-1,.6-2.25,1.34-3.16,2.66-.89,1.3-1.11,2.69-1.29,3.81-.09.55-.18,1.06-.31,1.41-.23.56-.86,1-1.46,1.03h-.07c-.58,0-1.22-.38-1.49-.89-.49-.93-.22-2.4.1-4.1.41-2.25.89-4.81-.24-7.37-.89-2.04-2.48-3.33-3.88-4.47-1.02-.83-1.99-1.6-2.27-2.4-.43-1.22.52-3.09,1.51-4.74,1.32-2.22,3.32-5.58,2.36-9.26-.52-1.99-1.79-3.48-2.82-4.69-.15-.19-.31-.36-.46-.55-1.12-1.36-1.22-2.02-1.18-2.29.04-.23.28-.87,1.81-1.83.25-.16.5-.31.75-.46,1.37-.82,2.91-1.75,4.06-3.38.71-.99,1.09-2.04,1.44-2.96.27-.72.52-1.39.84-1.77.1-.13.41-.51,1.14-.51.96,0,2.11.71,2.21,1.72.1.93-.38,2.16-.85,3.35-.6,1.56-1.43,3.69-1.12,6.06.34,2.61,1.89,4.5,3.25,6.17.52.64,1,1.23,1.37,1.8l-5.53,2.82,5.5.93c-.32.59-.75,1.22-1.17,1.87-1.41,2.12-3.17,4.74-2.69,8,.37,2.5,1.94,4.31,3.21,5.77.24.28.47.54.7.82.95,1.17,1.25,2.22,1.08,2.51Z" />
    <path class="cls-2"
      d="M39.45,87.12c-.18,2.06-.37,4.15.04,6.17.41,2.02,1.51,4.01,3.32,5,2.59,1.42,5.79.5,8.57-.51,2.78-1.01,5.88-2.08,8.59-.89,3.59,1.57,4.95,6.5,8.68,7.67,3.09.97,6.28-1.11,8.61-3.36,2.33-2.25,4.63-4.92,7.81-5.51,4.36-.81,8.31,2.58,12.65,3.53,3.82.83,8.03-.41,10.79-3.18,2.76-2.77,3.98-6.98,3.14-10.8" />
    <path class="cls-3" d="M34.33,85.18c1.77,1.06,5.7,2.45,9.84-.09" />
    <path class="cls-1" d="M106.99,83.74c1.77,1.06,5.7,2.45,9.84-.09" />
  </g>
</svg>