<?xml version="1.0" encoding="UTF-8"?>
<svg id="Capa_2" xmlns="http://www.w3.org/2000/svg" xmlns:xlink="http://www.w3.org/1999/xlink"
  viewBox="0 0 132.45 151.7">
  <defs>
    <style>
      .cls-1 {
        fill: url(#Degradado_sin_nombre_12-3);
      }

      .cls-2 {
        stroke: url(#Degradado_sin_nombre_8-3);
      }

      .cls-2,
      .cls-3,
      .cls-4 {
        fill: none;
        stroke-linecap: round;
        stroke-linejoin: round;
        stroke-width: 3.27px;
      }

      .cls-5 {
        fill: url(#Degradado_sin_nombre_2);
      }

      .cls-3 {
        stroke: url(#Degradado_sin_nombre_8-2);
      }

      .cls-6 {
        fill: url(#Degradado_sin_nombre_3);
      }

      .cls-7 {
        fill: url(#Degradado_sin_nombre_2-3);
      }

      .cls-8 {
        fill: url(#Degradado_sin_nombre_12-2);
      }

      .cls-4 {
        stroke: url(#Degradado_sin_nombre_8);
      }

      .cls-9 {
        fill: url(#Degradado_sin_nombre_2-2);
      }

      .cls-10 {
        fill: url(#Degradado_sin_nombre_12);
      }
    </style>
    <linearGradient id="Degradado_sin_nombre_2" x1="66.22" y1="149.46" x2="66.22" y2="2.31"
      gradientUnits="userSpaceOnUse">
      <stop offset="0" stop-color="#c9ccd1" />
      <stop offset="1" stop-color="#fff" />
    </linearGradient>
    <linearGradient id="Degradado_sin_nombre_12" x1="66.22" y1="10.17" x2="66.22" y2="145.08"
      gradientUnits="userSpaceOnUse">
      <stop offset="0" stop-color="#1f1f1f" />
      <stop offset="1" stop-color="#0a0a0a" />
    </linearGradient>
    <linearGradient id="Degradado_sin_nombre_3" x1="71.56" y1="99.76" x2="71.56" y2="-17.07"
      gradientTransform="translate(-6.02 48.24) rotate(-.96)" gradientUnits="userSpaceOnUse">
      <stop offset="0" stop-color="#0087ff" />
      <stop offset="1" stop-color="#00f2ff" />
    </linearGradient>
    <linearGradient id="Degradado_sin_nombre_2-2" x1="51.33" y1="45.06" x2="51.33" y2="-35.04"
      gradientTransform="translate(-6.02 48.24) rotate(-.96)" xlink:href="#Degradado_sin_nombre_2" />
    <linearGradient id="Degradado_sin_nombre_12-2" x1="45.37" y1="89.21" x2="45.37" y2="17.76"
      xlink:href="#Degradado_sin_nombre_12" />
    <linearGradient id="Degradado_sin_nombre_2-3" x1="94.17" y1="45.09" x2="94.17" y2="-35.01"
      gradientTransform="translate(-6.02 48.24) rotate(-.96)" xlink:href="#Degradado_sin_nombre_2" />
    <linearGradient id="Degradado_sin_nombre_12-3" x1="88.2" y1="89.21" x2="88.2" y2="17.76"
      xlink:href="#Degradado_sin_nombre_12" />
    <linearGradient id="Degradado_sin_nombre_8" x1="39.23" y1="75.15" x2="103.52" y2="75.15"
      gradientTransform="translate(-6.02 48.24) rotate(-.96)" gradientUnits="userSpaceOnUse">
      <stop offset="0" stop-color="#141414" />
      <stop offset="1" stop-color="#141414" />
    </linearGradient>
    <linearGradient id="Degradado_sin_nombre_8-2" x1="34" y1="62.65" x2="46.65" y2="62.65"
      xlink:href="#Degradado_sin_nombre_8" />
    <linearGradient id="Degradado_sin_nombre_8-3" x1="5902.92" y1="62.01" x2="5915.57" y2="62.01"
      gradientTransform="translate(6005.46 -51.47) rotate(179.04) scale(1 -1)" xlink:href="#Degradado_sin_nombre_8" />
  </defs>
  <g id="OBJECTS">
    <path class="cls-5"
      d="M67.33,151.69C30.82,152.28.62,124.21,0,89.14c-.33-19,8-36.84,22.91-49.2-.1-11.5,5.55-18.18,8.59-21.78.2-.23.55-.65.83-1,.11-8.97,7.66-16.31,17.06-16.46,9.56-.15,17.47,7.2,17.63,16.39.04,2.59-.19,5.03-.7,7.37.99,0,1.99.03,2.99.07,1.69-3.12,3.65-5.43,5.02-7.06.19-.23.55-.65.83-1C75.29,7.49,82.84.15,92.24,0c9.56-.15,17.47,7.2,17.63,16.39.16,9.17-3.28,15.26-6.24,19.18,17.75,11.65,28.45,30.64,28.81,51.44.61,35.08-28.6,64.09-65.11,64.68Z" />
    <path class="cls-10"
      d="M67.27,148.56c-34.71.56-63.42-26.12-64-59.47-.32-18.64,8.02-35.93,22.96-47.73-.02-.4-.04-.79-.05-1.17-.18-10.54,4.85-16.5,7.86-20.06.57-.68,1.44-1.7,1.55-1.98,0-.01.02-.13.01-.57-.13-7.46,6.08-13.63,13.85-13.76,7.76-.12,14.19,5.84,14.32,13.3.07,3.8-.53,7.31-1.83,10.6,1.08-.07,2.15-.11,3.23-.13,2.01-.03,4.07.03,6.15.2,1.69-3.76,3.96-6.46,5.56-8.35.57-.68,1.44-1.7,1.55-1.98,0,0,.02-.13.01-.56-.13-7.46,6.08-13.63,13.85-13.76,7.77-.12,14.19,5.84,14.32,13.3.18,10.4-4.72,16.33-7.74,19.91,18.43,10.75,29.94,29.87,30.31,50.72.58,33.35-27.19,60.94-61.9,61.49Z" />
    <ellipse class="cls-6" cx="66.22" cy="88.07" rx="59.7" ry="57.36" />
    <path class="cls-9"
      d="M41.23,95.26c-5.98.1-10.9-4.48-11-10.22-.16-9.4,4.23-14.59,7.13-18.03,2.06-2.44,2.32-2.82,2.29-4.58-.03-1.76-.31-2.13-2.45-4.5-3.02-3.34-7.59-8.39-7.75-17.79-.16-9.4,4.23-14.59,7.13-18.03,2.06-2.44,2.32-2.82,2.29-4.58-.1-5.74,4.66-10.47,10.64-10.57,5.98-.1,10.9,4.48,11,10.22.16,9.4-4.23,14.59-7.13,18.03-2.06,2.44-2.32,2.82-2.29,4.58.03,1.76.31,2.13,2.45,4.5,3.02,3.34,7.59,8.39,7.75,17.79.16,9.4-4.23,14.59-7.13,18.03-2.06,2.44-2.32,2.82-2.29,4.58.1,5.74-4.66,10.47-10.64,10.57Z" />
    <path class="cls-8"
      d="M49,76.08c-2.24,2.64-3.85,4.56-3.79,8.71.04,2.21-1.79,4.04-4.09,4.07-2.31.04-4.2-1.72-4.24-3.93-.12-7.08,3.08-10.86,5.65-13.9,2.24-2.64,3.85-4.55,3.78-8.71-.07-4.15-1.75-6.01-4.07-8.59-2.67-2.95-6.01-6.64-6.12-13.71-.13-7.07,3.08-10.85,5.64-13.89,2.24-2.64,3.85-4.55,3.78-8.71-.04-2.22,1.79-4.04,4.1-4.08,2.3-.04,4.2,1.72,4.23,3.94.13,7.07-3.07,10.85-5.64,13.89-1.41,1.67-2.58,3.06-3.22,4.9l-6.39,2.08,5.84,1.7s0,.01,0,.02c.08,4.15,1.76,6.02,4.09,8.59,2.67,2.95,6,6.63,6.12,13.71.12,7.07-3.08,10.85-5.64,13.89Z" />
    <path class="cls-7"
      d="M84.06,94.57c-5.98.1-10.9-4.48-11-10.22-.16-9.4,4.23-14.59,7.13-18.03,2.06-2.44,2.32-2.82,2.29-4.58-.03-1.76-.31-2.13-2.45-4.5-3.02-3.34-7.59-8.39-7.75-17.79-.16-9.4,4.23-14.59,7.13-18.03,2.06-2.44,2.32-2.82,2.29-4.58-.1-5.74,4.66-10.47,10.64-10.57,5.98-.1,10.9,4.48,11,10.22.16,9.4-4.23,14.59-7.13,18.03-2.06,2.44-2.32,2.82-2.29,4.58.03,1.76.31,2.13,2.45,4.5,3.02,3.34,7.59,8.39,7.75,17.79.16,9.4-4.23,14.59-7.13,18.03-2.06,2.44-2.32,2.82-2.29,4.58.1,5.74-4.66,10.47-10.64,10.57Z" />
    <path class="cls-1"
      d="M91.83,75.4c-2.24,2.64-3.85,4.55-3.78,8.71.04,2.22-1.79,4.04-4.1,4.08-2.3.04-4.19-1.72-4.23-3.94-.13-7.07,3.07-10.85,5.64-13.89,2.24-2.64,3.85-4.56,3.78-8.72-.08-4.15-1.76-6.02-4.08-8.58-2.68-2.96-6.01-6.64-6.12-13.71-.13-7.07,3.07-10.85,5.64-13.89,2.24-2.65,3.84-4.56,3.78-8.72-.04-2.21,1.79-4.04,4.09-4.07,2.31-.04,4.2,1.72,4.24,3.93.13,7.07-3.08,10.86-5.64,13.89-1.41,1.67-2.58,3.06-3.22,4.9l-6.41,2.09,5.85,1.71s0,.01,0,.02c.07,4.15,1.75,6.01,4.08,8.58,2.68,2.96,6.01,6.64,6.12,13.71.13,7.08-3.07,10.86-5.65,13.9Z" />
    <path class="cls-4" d="M35.91,111.5c5.92,13.2,17.6,22.11,30.89,21.89,13.3-.21,24.66-9.49,30.12-22.87" />
    <path class="cls-3" d="M30.68,111.35s5.45,1.25,9.34-2.52" />
    <path class="cls-2" d="M102.55,110.2s-5.4,1.42-9.42-2.21" />
  </g>
</svg>