<?xml version="1.0" encoding="UTF-8"?>
<svg id="Capa_2" xmlns="http://www.w3.org/2000/svg" xmlns:xlink="http://www.w3.org/1999/xlink"
  viewBox="0 0 114.11 163.14">
  <defs>
    <style>
      .cls-1 {
        stroke: url(#Degradado_sin_nombre_2-9);
      }

      .cls-1,
      .cls-2,
      .cls-3,
      .cls-4,
      .cls-5,
      .cls-6 {
        fill: none;
        stroke-linecap: round;
        stroke-linejoin: round;
        stroke-width: 3px;
      }

      .cls-7 {
        fill: url(#Degradado_sin_nombre_2-12);
      }

      .cls-8 {
        fill: url(#Degradado_sin_nombre_21-2);
      }

      .cls-9 {
        fill: url(#Degradado_sin_nombre_2-7);
      }

      .cls-10 {
        fill: url(#Degradado_sin_nombre_2);
      }

      .cls-11 {
        fill: url(#Degradado_sin_nombre_10-2);
      }

      .cls-12 {
        fill: url(#Degradado_sin_nombre_2-13);
      }

      .cls-13 {
        fill: #0a0a0a;
      }

      .cls-14 {
        fill: url(#Degradado_sin_nombre_7);
      }

      .cls-15 {
        fill: url(#Degradado_sin_nombre_23);
      }

      .cls-16 {
        fill: url(#Degradado_sin_nombre_21);
      }

      .cls-2 {
        stroke: url(#Degradado_sin_nombre_2-11);
      }

      .cls-17 {
        fill: url(#Degradado_sin_nombre_2-5);
      }

      .cls-3 {
        stroke: url(#Degradado_sin_nombre_2-10);
      }

      .cls-18 {
        fill: url(#Degradado_sin_nombre_2-3);
      }

      .cls-4 {
        stroke: url(#Degradado_sin_nombre_2-6);
      }

      .cls-19 {
        fill: url(#Degradado_sin_nombre_10);
      }

      .cls-20 {
        fill: url(#Degradado_sin_nombre_12-2);
      }

      .cls-5 {
        stroke: url(#Degradado_sin_nombre_2-8);
      }

      .cls-21 {
        fill: url(#Degradado_sin_nombre_2-2);
      }

      .cls-6 {
        stroke: url(#Degradado_sin_nombre_2-4);
      }

      .cls-22 {
        fill: url(#Degradado_sin_nombre_12);
      }
    </style>
    <linearGradient id="Degradado_sin_nombre_2" x1="2305.98" y1="81.57" x2="2420.09" y2="81.57"
      gradientTransform="translate(2420.09) rotate(-180) scale(1 -1)" gradientUnits="userSpaceOnUse">
      <stop offset="0" stop-color="#c9ccd1" />
      <stop offset="1" stop-color="#fff" />
    </linearGradient>
    <linearGradient id="Degradado_sin_nombre_12" x1="2363.03" y1="163.3" x2="2363.03" y2="52.35"
      gradientTransform="translate(2420.09) rotate(-180) scale(1 -1)" gradientUnits="userSpaceOnUse">
      <stop offset="0" stop-color="#1f1f1f" />
      <stop offset="1" stop-color="#0a0a0a" />
    </linearGradient>
    <linearGradient id="Degradado_sin_nombre_2-2" x1="2387.29" y1="226.45" x2="2385.79" y2="232.84"
      gradientTransform="translate(2458.73 149.8) rotate(-174.23) scale(1 -1)" xlink:href="#Degradado_sin_nombre_2" />
    <linearGradient id="Degradado_sin_nombre_2-3" x1="635.95" y1="49.54" x2="634.45" y2="55.93"
      gradientTransform="translate(-584.71 149.8) rotate(-5.77)" xlink:href="#Degradado_sin_nombre_2" />
    <linearGradient id="Degradado_sin_nombre_12-2" x1="2363.03" y1="50.05" x2="2363.03" y2="41.61"
      xlink:href="#Degradado_sin_nombre_12" />
    <linearGradient id="Degradado_sin_nombre_2-4" x1="2361.29" y1="35.19" x2="2369.7" y2="35.19"
      xlink:href="#Degradado_sin_nombre_2" />
    <linearGradient id="Degradado_sin_nombre_7" x1="2141.9" y1="-325.63" x2="2175.31" y2="-325.63"
      gradientTransform="translate(2147.78 -588.22) rotate(155.17) scale(1 -1)" gradientUnits="userSpaceOnUse">
      <stop offset="0" stop-color="#f80" />
      <stop offset="1" stop-color="#fffb00" />
    </linearGradient>
    <linearGradient id="Degradado_sin_nombre_23" x1="2151.43" y1="-325.82" x2="2167.17" y2="-325.82"
      gradientTransform="translate(2147.78 -588.22) rotate(155.17) scale(1 -1)" gradientUnits="userSpaceOnUse">
      <stop offset="0" stop-color="#ff560e" />
      <stop offset="1" stop-color="#ffbf00" />
    </linearGradient>
    <linearGradient id="Degradado_sin_nombre_2-5" x1="2343.06" y1="117.17" x2="2343.06" y2="85.98"
      xlink:href="#Degradado_sin_nombre_2" />
    <linearGradient id="Degradado_sin_nombre_21" x1="2343.06" y1="114.43" x2="2343.06" y2="87.14"
      gradientTransform="translate(2420.09) rotate(-180) scale(1 -1)" gradientUnits="userSpaceOnUse">
      <stop offset="0" stop-color="#0a0a0a" />
      <stop offset="1" stop-color="#1f1f1f" />
    </linearGradient>
    <linearGradient id="Degradado_sin_nombre_2-6" x1="2330.14" y1="91" x2="2357.24" y2="91"
      xlink:href="#Degradado_sin_nombre_2" />
    <linearGradient id="Degradado_sin_nombre_2-7" x1="3318.43" y1="117.17" x2="3318.43" y2="85.98"
      gradientTransform="translate(-3280.86)" xlink:href="#Degradado_sin_nombre_2" />
    <linearGradient id="Degradado_sin_nombre_21-2" x1="3318.43" y1="114.43" x2="3318.43" y2="87.14"
      gradientTransform="translate(-3280.86)" xlink:href="#Degradado_sin_nombre_21" />
    <linearGradient id="Degradado_sin_nombre_2-8" x1="2368.34" y1="91" x2="2395.44" y2="91"
      xlink:href="#Degradado_sin_nombre_2" />
    <linearGradient id="Degradado_sin_nombre_2-9" x1="751.96" y1="946.99" x2="784.71" y2="946.99"
      gradientTransform="translate(-711.12 1079.51) scale(1 -1)" xlink:href="#Degradado_sin_nombre_2" />
    <linearGradient id="Degradado_sin_nombre_2-10" x1="2341.68" y1="128.11" x2="2351.31" y2="128.11"
      xlink:href="#Degradado_sin_nombre_2" />
    <linearGradient id="Degradado_sin_nombre_2-11" x1="622.07" y1="128.11" x2="631.71" y2="128.11"
      gradientTransform="translate(-586.37)" xlink:href="#Degradado_sin_nombre_2" />
    <linearGradient id="Degradado_sin_nombre_10" x1="2412.02" y1="122.65" x2="2398.97" y2="117.52"
      gradientTransform="translate(2420.09) rotate(-180) scale(1 -1)" gradientUnits="userSpaceOnUse">
      <stop offset="0" stop-color="#ff0062" />
      <stop offset="1" stop-color="#fb00ff" />
    </linearGradient>
    <linearGradient id="Degradado_sin_nombre_10-2" x1="2313.49" y1="122.77" x2="2326.65" y2="117.64"
      xlink:href="#Degradado_sin_nombre_10" />
    <linearGradient id="Degradado_sin_nombre_2-12" x1="2317.39" y1="88.52" x2="2343.93" y2="60.78"
      xlink:href="#Degradado_sin_nombre_2" />
    <linearGradient id="Degradado_sin_nombre_2-13" x1="2317.83" y1="88.94" x2="2344.37" y2="61.2"
      xlink:href="#Degradado_sin_nombre_2" />
  </defs>
  <g id="OBJECTS">
    <path class="cls-10"
      d="M57.06,163.14c19.49,0,37.44-9.8,48.01-26.2,5.18-8.04,8.26-17.33,8.91-26.86.1-1.24.14-2.55.14-3.99,0-23.75-14.75-45.01-36.84-53.36l-2.55-8.49c-.54-3.73-3.75-6.42-9.17-7.78.79-.58,1.45-1.35,1.92-2.26,1.1-2.15.9-4.71-.52-6.66l-1.24-1.71,4.21-1.95c2.75-1.28,4.22-4.23,3.57-7.19-.65-2.96-3.22-5.03-6.24-5.03-.2,0-.4,0-.6.03l-3.49.32.91-4.25c.41-1.91-.06-3.86-1.27-5.36-1.21-1.5-3.08-2.39-5.01-2.39-2.1,0-4,.99-5.22,2.72l-2.86,4.05-1.22-1.29c-1.22-1.3-2.87-2.01-4.64-2.01-2.05,0-3.99.99-5.2,2.65-1.21,1.67-1.54,3.75-.9,5.73l.97,3.01-1.01.15c-2.84.41-5.01,2.6-5.41,5.44-.38,2.64.88,5.16,3.15,6.46l-1.13,1.22c-1.74,1.87-2.2,4.58-1.19,6.91,1.02,2.34,3.32,3.86,5.86,3.86.76,0,1.5-.13,2.22-.4l2.04-.75.19.78c-2.84,1.78-3.79,3.99-4.05,5.73l-2.54,8.47C14.75,61.07,0,82.34,0,106.08c0,1.32.05,2.68.14,4.04.67,9.55,3.76,18.84,8.95,26.87,10.57,16.37,28.5,26.14,47.96,26.14Z" />
    <path class="cls-13"
      d="M57.06,160.37c18.54,0,35.62-9.32,45.68-24.94,4.93-7.65,7.86-16.49,8.47-25.55.09-1.19.14-2.44.14-3.8,0-23.21-14.54-43.62-36.32-51.24l-3.02-10.04c-.42-3.82-5.5-5.73-10.91-6.33-.17-1.29-.41-2.56-.72-3.82l.07.03c.43.16.87.25,1.32.25,1.37,0,2.61-.76,3.23-1.99.62-1.22.51-2.67-.3-3.78l-3.22-4.44,7.26-3.36c1.56-.72,2.4-2.4,2.02-4.08-.37-1.68-1.83-2.86-3.54-2.86-.11,0-.23,0-.35.02l-7.24.67,1.7-7.93c.23-1.08-.03-2.19-.72-3.04-.69-.85-1.76-1.36-2.85-1.36-1.19,0-2.26.56-2.96,1.54l-4.81,6.81-3.54-3.75c-.7-.74-1.63-1.14-2.63-1.14-1.17,0-2.27.56-2.96,1.51-.69.94-.87,2.13-.51,3.25l1.98,6.13-4.25.62c-1.61.24-2.85,1.48-3.07,3.09-.23,1.61.61,3.15,2.09,3.82l2.94,1.34-3.73,4.01c-.99,1.06-1.25,2.6-.67,3.92.58,1.33,1.89,2.2,3.32,2.2.43,0,.86-.08,1.27-.23l4.96-1.82,1.41,5.91c-2.51,1.05-4.29,2.62-4.52,4.84l-3.01,10.02C17.3,62.47,2.77,82.87,2.77,106.08c0,1.25.05,2.54.14,3.84.64,9.09,3.58,17.93,8.52,25.57,10.06,15.58,27.12,24.88,45.64,24.88Z" />
    <path class="cls-22"
      d="M5.53,106.08c0,1.23.05,2.44.13,3.65.62,8.9,3.5,17.18,8.08,24.26,9.17,14.2,25.14,23.61,43.31,23.61s34.18-9.43,43.35-23.67c4.56-7.08,7.43-15.35,8.04-24.24.09-1.19.13-2.4.13-3.61,0-22.98-15.03-42.42-35.8-49.07l-3.51-11.7-12.21-.77-12.21.77-3.51,11.7c-20.76,6.65-35.8,26.1-35.8,49.07Z" />
    <path class="cls-21"
      d="M63.81,134.96l1.27,4.62c.34,1.24-.52,2.5-1.81,2.62l-3.11.29c-1.22.11-2.27-.85-2.27-2.08l.03-5.28,5.89-.17Z" />
    <path class="cls-18"
      d="M50.02,134.96l-1.27,4.62c-.34,1.24.52,2.5,1.81,2.62l3.11.29c1.22.11,2.27-.85,2.27-2.08l-.03-5.28-5.89-.17Z" />
    <path class="cls-20"
      d="M44.84,45.32c0,2.38,5.47,4.31,12.21,4.31s12.21-1.93,12.21-4.31-5.47-4.31-12.21-4.31-12.21,1.93-12.21,4.31Z" />
    <path class="cls-6" d="M57.25,45.08c.32-6.08-1.09-12.25-4.04-17.59-.41-.75-.85-1.48-1.33-2.19" />
    <path class="cls-14"
      d="M57.08,5.91l-6.15,8.71c-.32.45-.97.5-1.34.1l-5.13-5.43c-.64-.67-1.74-.02-1.46.86l2.67,8.27c.17.51-.17,1.05-.7,1.13l-6.47.95c-.86.13-1.02,1.29-.24,1.65l5.34,2.43c.54.25.68.95.28,1.38l-5.52,5.93c-.62.67.08,1.72.94,1.41l6.96-2.56c.49-.18,1.02.11,1.15.61l2.08,8.7c.21.87,1.43.9,1.68.04l2.85-9.86c.14-.49.67-.75,1.15-.57l6.28,2.43c.81.31,1.53-.62,1.02-1.32l-4.57-6.3c-.32-.44-.16-1.07.34-1.3l9.35-4.33c.89-.41.53-1.75-.45-1.66l-9.81.91c-.58.05-1.05-.47-.93-1.05l2.24-10.46c.2-.93-1.02-1.46-1.56-.68Z" />
    <path class="cls-15"
      d="M53.66,14.9l-2.96,4.2c-.13.19-.41.21-.57.04l-2.51-2.65c-.27-.29-.74,0-.62.37l1.3,4.01c.07.22-.07.45-.3.48l-3.15.46c-.36.05-.43.55-.1.7l2.62,1.19c.23.1.29.4.12.59l-2.68,2.88c-.26.28.03.73.4.6l3.39-1.25c.21-.08.44.05.49.26l1,4.19c.09.37.61.38.71.02l1.36-4.72c.06-.21.29-.32.49-.24l3.05,1.18c.34.13.65-.26.43-.56l-2.21-3.04c-.14-.19-.07-.45.14-.55l4.55-2.1c.38-.17.22-.74-.19-.7l-4.78.45c-.25.02-.45-.2-.4-.45l1.08-5.05c.08-.39-.43-.62-.66-.29Z" />
    <path class="cls-17"
      d="M66.93,96.38c0,11.48,4.52,20.79,10.1,20.79s10.1-9.31,10.1-20.79c0-3.67-.46-7.11-1.27-10.11l-2.25,1.13-16.66,8.33c0,.21,0,.43,0,.65Z" />
    <path class="cls-16"
      d="M69.9,102.44l6.34.06-5.45,4.12c1.36,4.72,3.65,7.81,6.24,7.81,4.18,0,7.56-8.08,7.56-18.05,0-3.27-.37-6.34-1-8.98l-14.11,7.05c-.03.63-.04,1.28-.04,1.93,0,2.13.16,4.17.44,6.06Z" />
    <line class="cls-4" x1="88.45" y1="84.98" x2="64.35" y2="97.03" />
    <path class="cls-9"
      d="M47.66,96.38c0,11.48-4.52,20.79-10.1,20.79s-10.1-9.31-10.1-20.79c0-3.67.46-7.11,1.27-10.11l2.25,1.13,16.66,8.33c0,.21,0,.43,0,.65Z" />
    <path class="cls-8"
      d="M44.69,102.44l-6.34.06,5.45,4.12c-1.36,4.72-3.65,7.81-6.24,7.81-4.18,0-7.56-8.08-7.56-18.05,0-3.27.37-6.34,1-8.98l14.11,7.05c.03.63.04,1.28.04,1.93,0,2.13-.16,4.17-.44,6.06Z" />
    <line class="cls-5" x1="26.15" y1="84.98" x2="50.25" y2="97.03" />
    <path class="cls-1" d="M72.1,129.6c-2.5,3.43-8.22,5.83-14.88,5.83s-12.38-2.4-14.88-5.83" />
    <path class="cls-3" d="M76.91,130.32c-1.5.59-3.3.37-4.61-.57-1.31-.94-2.1-2.58-2.01-4.19" />
    <path class="cls-2" d="M37.2,130.32c1.5.59,3.3.37,4.61-.57,1.31-.94,2.1-2.58,2.01-4.19" />
    <path class="cls-19"
      d="M5.66,109.73c.62,8.9,3.5,17.18,8.08,24.26,3.56-.62,6.61-2.61,8.2-5.75,2.94-5.83-.27-13.38-7.19-16.88-3-1.51-6.2-2.02-9.09-1.63Z" />
    <path class="cls-11"
      d="M92.49,128.24c1.54,3.05,4.48,5.02,7.92,5.7,4.56-7.08,7.43-15.35,8.04-24.24-2.81-.32-5.89.21-8.78,1.67-6.91,3.5-10.12,11.05-7.18,16.88Z" />
    <path class="cls-7"
      d="M91.8,72.24c1.48,1.45,2.89,2.99,3.95,4.77.37.62.7,1.29.75,2.01.05.72-.26,1.5-.89,1.84-.57.31-1.29.2-1.86-.11-.57-.31-1.02-.8-1.45-1.28-4.34-4.74-8.82-9.49-14.4-12.68-.65-.38-1.33-.73-1.88-1.25-.93-.87-1.53-2.71-.15-3.52,1.08-.63,2.69.61,3.6,1.11,2.87,1.56,5.6,3.38,8.15,5.42,1.46,1.16,2.85,2.4,4.19,3.7Z" />
    <path class="cls-12"
      d="M101.6,87.2c.06.79-.09,1.71-.77,2.1-.46.26-1.05.19-1.51-.06-.46-.25-.82-.66-1.14-1.08-.6-.81-1.09-1.7-1.45-2.65-.22-.59-.39-1.25-.19-1.84.23-.66.9-1.11,1.59-1.21,1.17-.18,1.72.2,2.24,1.13.64,1.15,1.12,2.28,1.22,3.61Z" />
  </g>
</svg>