<?xml version="1.0" encoding="UTF-8"?>
<svg id="Capa_2" xmlns="http://www.w3.org/2000/svg" xmlns:xlink="http://www.w3.org/1999/xlink"
  viewBox="0 0 194.47 125.46">
  <defs>
    <style>
      .cls-1 {
        fill: url(#Degradado_sin_nombre_6);
      }

      .cls-2 {
        fill: url(#Degradado_sin_nombre_16-5);
      }

      .cls-3 {
        fill: url(#Degradado_sin_nombre_24);
      }

      .cls-4 {
        fill: url(#Degradado_sin_nombre_16);
      }

      .cls-5 {
        fill: url(#Degradado_sin_nombre_12-3);
      }

      .cls-6 {
        fill: url(#Degradado_sin_nombre_12-4);
      }

      .cls-7 {
        fill: url(#Degradado_sin_nombre_16-3);
      }

      .cls-8 {
        fill: url(#Degradado_sin_nombre_2-4);
      }

      .cls-9 {
        fill: url(#Degradado_sin_nombre_2-7);
      }

      .cls-10 {
        fill: url(#Degradado_sin_nombre_2-6);
      }

      .cls-11 {
        fill: url(#Degradado_sin_nombre_2);
      }

      .cls-12 {
        fill: url(#Degradado_sin_nombre_16-2);
      }

      .cls-13 {
        fill: url(#Degradado_sin_nombre_2-5);
      }

      .cls-14 {
        fill: url(#Degradado_sin_nombre_2-3);
      }

      .cls-15 {
        fill: url(#Degradado_sin_nombre_12-5);
      }

      .cls-16 {
        fill: url(#Degradado_sin_nombre_16-4);
      }

      .cls-17 {
        fill: url(#Degradado_sin_nombre_12-2);
      }

      .cls-18 {
        fill: url(#Degradado_sin_nombre_2-2);
      }

      .cls-19 {
        fill: url(#Degradado_sin_nombre_12-6);
      }

      .cls-20 {
        fill: url(#Degradado_sin_nombre_24-2);
      }

      .cls-21 {
        fill: url(#Degradado_sin_nombre_12);
      }
    </style>
    <linearGradient id="Degradado_sin_nombre_2" x1="4.92" y1="118.08" x2="200.35" y2="15.79"
      gradientUnits="userSpaceOnUse">
      <stop offset="0" stop-color="#c9ccd1" />
      <stop offset="1" stop-color="#fff" />
    </linearGradient>
    <linearGradient id="Degradado_sin_nombre_12" x1="-25.58" y1="335.31" x2="155.94" y2="335.31"
      gradientTransform="translate(70.05 -279.01) rotate(6.49)" gradientUnits="userSpaceOnUse">
      <stop offset="0" stop-color="#1f1f1f" />
      <stop offset="1" stop-color="#0a0a0a" />
    </linearGradient>
    <linearGradient id="Degradado_sin_nombre_12-2" x1="-22.53" y1="329.96" x2="151.8" y2="329.96"
      xlink:href="#Degradado_sin_nombre_12" />
    <linearGradient id="Degradado_sin_nombre_6" x1="-21.43" y1="332.66" x2="152.89" y2="332.66"
      gradientTransform="translate(70.05 -279.01) rotate(6.49)" gradientUnits="userSpaceOnUse">
      <stop offset="0" stop-color="#ff560e" />
      <stop offset="1" stop-color="#ffbf00" />
    </linearGradient>
    <linearGradient id="Degradado_sin_nombre_16" x1="121.6" y1="332.09" x2="138.73" y2="332.09"
      gradientTransform="translate(70.05 -279.01) rotate(6.49)" gradientUnits="userSpaceOnUse">
      <stop offset="0" stop-color="#3700ff" />
      <stop offset="1" stop-color="#ff00e6" />
    </linearGradient>
    <linearGradient id="Degradado_sin_nombre_12-3" x1="119.11" y1="329.96" x2="135.91" y2="329.96"
      xlink:href="#Degradado_sin_nombre_12" />
    <linearGradient id="Degradado_sin_nombre_24" x1="104.47" y1="319.76" x2="130.17" y2="319.76"
      gradientTransform="translate(70.05 -279.01) rotate(6.49)" gradientUnits="userSpaceOnUse">
      <stop offset="0" stop-color="#acaeb3" />
      <stop offset="1" stop-color="#f0f0f0" />
    </linearGradient>
    <linearGradient id="Degradado_sin_nombre_16-2" x1="95.59" y1="306.52" x2="112.72" y2="306.52"
      xlink:href="#Degradado_sin_nombre_16" />
    <linearGradient id="Degradado_sin_nombre_12-4" x1="93.09" y1="304.39" x2="109.9" y2="304.39"
      xlink:href="#Degradado_sin_nombre_12" />
    <linearGradient id="Degradado_sin_nombre_2-2" x1="97.82" y1="304.39" x2="105.17" y2="304.39"
      gradientTransform="translate(70.05 -279.01) rotate(6.49)" xlink:href="#Degradado_sin_nombre_2" />
    <linearGradient id="Degradado_sin_nombre_16-3" x1="36.81" y1="365.97" x2="51.68" y2="365.97"
      gradientTransform="translate(45.22 -256.75) rotate(6.49)" xlink:href="#Degradado_sin_nombre_16" />
    <linearGradient id="Degradado_sin_nombre_12-5" x1="34.64" y1="364.11" x2="49.23" y2="364.11"
      gradientTransform="translate(45.22 -256.75) rotate(6.49)" xlink:href="#Degradado_sin_nombre_12" />
    <linearGradient id="Degradado_sin_nombre_24-2" x1="21.94" y1="355.26" x2="44.24" y2="355.26"
      gradientTransform="translate(45.22 -256.75) rotate(6.49)" xlink:href="#Degradado_sin_nombre_24" />
    <linearGradient id="Degradado_sin_nombre_16-4" x1="14.23" y1="343.77" x2="29.1" y2="343.77"
      gradientTransform="translate(45.22 -256.75) rotate(6.49)" xlink:href="#Degradado_sin_nombre_16" />
    <linearGradient id="Degradado_sin_nombre_12-6" x1="12.06" y1="341.92" x2="26.65" y2="341.92"
      gradientTransform="translate(45.22 -256.75) rotate(6.49)" xlink:href="#Degradado_sin_nombre_12" />
    <linearGradient id="Degradado_sin_nombre_2-3" x1="16.17" y1="341.92" x2="22.54" y2="341.92"
      gradientTransform="translate(45.22 -256.75) rotate(6.49)" xlink:href="#Degradado_sin_nombre_2" />
    <linearGradient id="Degradado_sin_nombre_16-5" x1="120.89" y1="308.69" x2="147.07" y2="283.08"
      xlink:href="#Degradado_sin_nombre_16" />
    <linearGradient id="Degradado_sin_nombre_2-4" x1="36.03" y1="90.07" x2="129.6" y2="45.08"
      xlink:href="#Degradado_sin_nombre_2" />
    <linearGradient id="Degradado_sin_nombre_2-5" x1="36.03" y1="90.07" x2="129.6" y2="45.08"
      xlink:href="#Degradado_sin_nombre_2" />
    <linearGradient id="Degradado_sin_nombre_2-6" x1="37.03" y1="92.15" x2="130.6" y2="47.16"
      xlink:href="#Degradado_sin_nombre_2" />
    <linearGradient id="Degradado_sin_nombre_2-7" x1="37.46" y1="93.05" x2="131.03" y2="48.06"
      xlink:href="#Degradado_sin_nombre_2" />
  </defs>
  <g id="OBJECTS">
    <path class="cls-11"
      d="M46.43,125.38c-2.75-.31-5.31-1.45-7.38-3.3-.12-.1-.23-.2-.34-.3-.05-.05-.15-.15-.28-.29-.09-.09-1.84-1.93-1.84-1.93-.44-.41-.85-.85-1.22-1.29,0-.01-.07-.09-.08-.1-.61-.75-1.13-1.57-1.56-2.43-1.12-.04-2.22-.12-3.29-.25-8.88-1.01-16.13-4.67-21.55-10.88-4.32-4.95-6.85-9.52-7.74-13.98-1.63-4.64-1.52-9,.35-12.96,2.34-4.96,7.41-8.89,14.68-11.35,6.85-2.32,14.21-6.27,15.43-6.94,2.7-1.75,40.37-25.81,83.04-35.65,7.7-2.96,22.07-9.26,28.13-14.5,5.97-5.16,16.1-10.25,26.68-9.04,6.47.74,12.2,3.78,16.55,8.8,3.27,3.77,5.71,8.61,6.86,13.63,3.61,11,1.01,22.61-7.15,31.87-1.56,1.78-3.35,3.49-5.3,5.1-1.31,1.08-2.74,2.13-4.24,3.14.35,1.56.43,3.19.25,4.8-.9,7.96-8.11,13.69-16.07,12.79-2.99-.34-5.76-1.58-8.01-3.59-.13-.11-.26-.22-.38-.34,0,0-.12-.11-.27-.27-.11-.11-.26-.27-.41-.44l-1.42-1.48-7.33,2.34c-33.43,10.67-55.5,17.72-68.94,26.68-3.87,2.57-8.03,4.83-12.41,6.72.19,1.2.22,2.42.08,3.64-.84,7.35-7.49,12.65-14.84,11.81Z" />
    <path class="cls-21"
      d="M46.78,122.34c-2.15-.24-4.13-1.14-5.74-2.58-.07-.06-.14-.12-.21-.19-.02-.02-.1-.1-.22-.22-.06-.05-.17-.17-.28-.29l-1.6-1.67c-.36-.33-.7-.69-1-1.05-.02-.02-.04-.04-.05-.06-.85-1.06-1.48-2.27-1.86-3.56-1.73.01-3.41-.07-5.03-.26-8.1-.92-14.69-4.24-19.59-9.85-4.02-4.61-6.35-8.8-7.09-12.78-1.43-3.93-1.38-7.58.16-10.85,1.97-4.19,6.43-7.56,12.9-9.75,7.29-2.47,15.09-6.69,16.02-7.2,2.32-1.51,39.71-25.56,82.36-35.35,2.1-.81,21.31-8.26,29.24-15.12,5.47-4.74,14.74-9.41,24.33-8.32,5.7.65,10.74,3.33,14.59,7.76,2.98,3.44,5.19,7.85,6.22,12.45,3.33,9.99.97,20.56-6.49,29.03-1.46,1.66-3.12,3.26-4.95,4.75-1.79,1.47-3.77,2.87-5.92,4.2.76,1.8,1.05,3.77.83,5.76-.71,6.28-6.4,10.81-12.68,10.09-2.39-.27-4.58-1.26-6.37-2.88-.08-.06-.16-.13-.24-.21-.02-.02-.1-.1-.22-.22-.08-.08-.2-.21-.33-.35l-1.85-1.94c-.35-.32-.66-.64-.95-.98-3.14,1.01-6.18,1.98-9.14,2.92-33.67,10.75-55.91,17.85-69.71,27.04-4.4,2.93-9.31,5.48-14.38,7.47.66,1.59.9,3.33.7,5.09-.65,5.67-5.78,9.76-11.46,9.12Z" />
    <path class="cls-17"
      d="M34.76,64.63s37.8-25.02,81.67-35.04c0,0,21.48-8.07,30.35-15.74,8.87-7.67,24.7-12.27,34.6-.86,9.9,11.41,12.64,37.54-28.86,50.87-41.5,13.33-67.27,20.91-83.09,31.45-15.82,10.54-42.77,18.44-56.72,2.46-13.95-15.98-2.65-22.92,5.43-25.66,8.08-2.74,16.62-7.48,16.62-7.48Z" />
    <path class="cls-1"
      d="M181.13,50.43c-1.32,1.5-2.84,2.98-4.59,4.41-5.42,4.44-12.97,8.53-23.23,11.82-41.5,13.33-67.27,20.91-83.1,31.45-15.82,10.54-42.77,18.44-56.71,2.46-13.95-15.99-2.65-22.92,5.43-25.66,8.08-2.74,16.61-7.48,16.61-7.48,0,0,37.81-25.02,81.68-35.04,0,0,21.48-8.07,30.36-15.74,1.8-1.56,3.89-2.99,6.16-4.18,0,0,.02-.01.03,0,.96-.5,1.95-.97,2.96-1.38,8.4-3.42,18.42-3.39,25.45,4.71,6.66,7.68,10.08,22.02-1.04,34.64Z" />
    <path class="cls-4"
      d="M168.52,60.58s0,0,0,0l-.05-.05c-.25-.3-.51-.58-.8-.84l-2.15-2.25-.63.56c-.62-.23-1.27-.39-1.95-.47-4.61-.52-8.77,2.79-9.3,7.4-.11.96-.04,1.91.16,2.8l-.9.79s2.01,2.1,2.9,3.04c.09.1.18.2.28.29.07.08.13.13.14.15,0,0,0,0,0,0,1.28,1.2,2.93,2.03,4.81,2.24,4.61.52,8.77-2.79,9.3-7.4.27-2.33-.46-4.55-1.83-6.24Z" />
    <path class="cls-5"
      d="M167.81,64.2c-.52,4.61-4.69,7.92-9.3,7.4-4.61-.52-7.92-4.69-7.4-9.3.52-4.61,4.69-7.92,9.3-7.4,4.61.52,7.92,4.69,7.4,9.3Z" />
    <path class="cls-3"
      d="M161.29,61.33h0s-19.17-23.25-19.17-23.25l-3.36,3.34,18.84,23.77.03-.03c.41.39.93.66,1.53.73,1.46.17,2.78-.88,2.94-2.34.1-.86-.23-1.66-.81-2.22Z" />
    <path class="cls-12"
      d="M145.56,32.23s0,0,0,0l-.05-.05c-.25-.3-.51-.58-.8-.84l-2.15-2.25-.63.56c-.62-.23-1.27-.39-1.95-.47-4.61-.52-8.77,2.79-9.3,7.4-.11.96-.04,1.91.16,2.8l-.9.79s2.01,2.1,2.9,3.04c.09.1.18.2.28.29.07.08.13.13.14.15,0,0,0,0,0,0,1.28,1.2,2.93,2.03,4.81,2.24,4.61.52,8.77-2.79,9.3-7.4.27-2.33-.46-4.55-1.83-6.24Z" />
    <path class="cls-6"
      d="M144.85,35.85c-.52,4.61-4.69,7.92-9.3,7.4-4.61-.52-7.92-4.69-7.4-9.3.52-4.61,4.69-7.92,9.3-7.4,4.61.52,7.92,4.69,7.4,9.3Z" />
    <path class="cls-18"
      d="M140.15,35.31c-.23,2.02-2.05,3.46-4.07,3.23s-3.46-2.05-3.23-4.07c.23-2.02,2.05-3.46,4.07-3.23,2.02.23,3.46,2.05,3.23,4.07Z" />
    <path class="cls-7"
      d="M53.61,107.46s0,0,0,0l-.04-.04c-.21-.26-.45-.5-.69-.73l-1.86-1.96-.55.48c-.54-.2-1.1-.34-1.69-.41-4-.46-7.62,2.42-8.07,6.42-.1.84-.04,1.65.14,2.43l-.78.68s1.74,1.83,2.52,2.64c.08.09.16.17.24.25.06.07.11.12.12.13,0,0,0,0,0,0,1.11,1.05,2.54,1.76,4.17,1.94,4,.46,7.62-2.42,8.07-6.42.23-2.03-.39-3.95-1.59-5.42Z" />
    <path class="cls-15"
      d="M52.99,110.59c-.46,4-4.07,6.88-8.07,6.42-4-.46-6.88-4.07-6.42-8.07.46-4,4.07-6.88,8.07-6.42,4,.46,6.88,4.07,6.42,8.07Z" />
    <path class="cls-20"
      d="M47.33,108.1h0s-16.64-20.18-16.64-20.18l-2.92,2.9,16.35,20.63.02-.02c.35.34.81.58,1.33.64,1.27.14,2.41-.77,2.55-2.03.08-.75-.2-1.44-.71-1.93Z" />
    <path class="cls-16"
      d="M33.68,82.85s0,0,0,0l-.04-.04c-.21-.26-.45-.5-.69-.73l-1.86-1.96-.55.48c-.54-.2-1.1-.34-1.69-.41-4-.46-7.62,2.42-8.07,6.42-.1.84-.04,1.65.14,2.43l-.78.68s1.74,1.83,2.52,2.64c.08.09.16.17.24.25.06.07.11.11.12.13,0,0,0,0,0,0,1.11,1.05,2.54,1.76,4.17,1.94,4,.46,7.62-2.42,8.07-6.42.23-2.03-.39-3.95-1.59-5.42Z" />
    <path class="cls-19"
      d="M33.06,85.99c-.46,4-4.07,6.88-8.07,6.42-4-.46-6.88-4.07-6.42-8.07.46-4,4.07-6.88,8.07-6.42,4,.46,6.88,4.07,6.42,8.07Z" />
    <path class="cls-14"
      d="M28.98,85.53c-.2,1.75-1.78,3.01-3.53,2.81s-3.01-1.78-2.81-3.53c.2-1.75,1.78-3.01,3.53-2.81,1.75.2,3.01,1.78,2.81,3.53Z" />
    <path class="cls-2"
      d="M181.13,50.43c-.45-.35-1-.59-1.58-.67-1.1-.16-2.28.27-3.02,1.1-.52.59-.83,1.33-1.25,1.99-.42.66-1.03,1.29-1.8,1.38-.65.08-1.28-.22-1.92-.36-1.74-.37-3.66.66-4.33,2.3-.13-1.47.54-3,1.7-3.91.85-.66,1.9-1,2.95-1.28,1.04-.28,2.1-.54,3.04-1.09.93-.54,1.72-1.44,1.85-2.51.13-1.07-.59-2.26-1.66-2.38-1.45-.17-2.43,1.43-3.74,2.07-1.15.57-2.53.36-3.77,0-1.24-.34-2.48-.82-3.77-.75-1.28.08-2.8.7-2.96,1.98-.27-1.8.34-3.79,1.82-4.85,1.08-.78,2.49-.96,3.82-.95,1.34.01,2.68.21,4,.09,1.33-.12,2.66-.57,3.64-1.48.98-.9,1.54-2.3,1.25-3.6-.3-1.3-1.57-2.37-2.89-2.24-2.42.22-3.37,3.67-5.73,4.23-2.23.52-4.42-1.82-6.62-1.23-1.83.49-2.56,2.64-3.89,3.99-1.48,1.52-3.93,1.98-5.88,1.12,2.13.09,4.24-1.3,5-3.29.58-1.52.42-3.25,1.07-4.74.69-1.56,2.29-2.68,3.99-2.79,1.19-.07,2.36.31,3.55.35,1.69.05,3.44-.67,4.41-2.05.98-1.38,1.03-3.42-.05-4.72-1.07-1.3-3.27-1.57-4.5-.42-1.09,1.01-1.28,2.75-2.42,3.7-1,.82-2.43.8-3.69.54-1.26-.26-2.51-.72-3.8-.65-1.28.07-2.65.89-2.79,2.16-.21-2.96,1.97-5.91,4.87-6.57,1.15-.27,2.48-.25,3.33-1.07,1.01-.97.77-2.81-.31-3.71-1.08-.89-2.71-.9-3.97-.27-1.25.63-2.16,1.8-2.8,3.05-.73,1.43-1.18,3.04-2.31,4.16-1.42,1.4-3.76,1.75-5.46.72,1.26.12,2.38-.91,2.87-2.07.48-1.17.49-2.46.62-3.72.13-1.26.44-2.58,1.35-3.46,1.76-1.7,4.88-.96,6.82-2.46,1.45-1.13,1.75-3.47.62-4.92-.03-.03-.05-.07-.08-.1,8.4-3.42,18.42-3.39,25.45,4.71,6.66,7.68,10.08,22.02-1.04,34.64Z" />
    <path class="cls-8"
      d="M67.06,89.04c-1.25.93-2.47,1.76-3.66,2.48-1.19.71-1.99,1.09-2.4,1.13-.41.04-.68-.13-.82-.49-2.87-7.77-5.88-14.39-9.09-19.18-.26-.4-.18-.9.26-1.53.44-.63,1.42-1.59,2.93-2.79,3.89-3.09,7.72-5.62,11.48-7.58.43-.22,1,.41,1.72,1.95.72,1.55,1.16,2.82,1.34,3.75.18.94.12,1.48-.18,1.63-2.09.87-4.2,1.89-6.33,3.04.32.7.64,1.41.97,2.13,2.66-1.71,4.43-2.66,5.34-3.1.3-.15.59-.07.85.24.26.3.6.96,1.03,1.99.42,1.03.72,2.07.9,3.12.18,1.05.09,1.67-.27,1.84-1.7.72-3.41,1.52-5.13,2.39.92,2.3,1.84,4.68,2.75,7.09.14.36-.42.98-1.67,1.91Z" />
    <path class="cls-13"
      d="M84.85,80.99c-1.14.54-2.33,1.03-3.56,1.49-1.23.46-2.03.72-2.43.73-.39.01-.64-.13-.76-.43-2.86-7.26-5.7-14.65-8.66-21.07-.21-.45.17-1.17,1.12-2.1.96-.93,2.15-1.66,3.59-2.17,1.27-.45,2.23-.43,2.88.02.23.17.4.36.49.58,3.01,6.87,5.93,14.57,8.9,21.79.1.25-.42.62-1.57,1.16Z" />
    <path class="cls-10"
      d="M96.98,76.7c.12.28-.38.68-1.51,1.19-1.13.5-2.3.92-3.51,1.25-1.21.33-2.02.48-2.43.42-.41-.06-.68-.25-.82-.59-2.99-7.2-5.92-14.94-8.94-21.9-.24-.56.23-1.15,1.41-1.75,1.19-.6,2.77-1.16,4.73-1.71,1.97-.54,3.25-.92,3.84-1.08.59-.16,1.29-.34,2.11-.52.82-.19,1.5-.28,2.03-.28.53,0,1.13.03,1.8.07.67.05,1.24.21,1.72.5.48.28.98.65,1.5,1.09.94.79,1.77,2.12,2.5,3.97.73,1.85,1.08,3.5,1.06,4.95-.03,1.45-.34,2.64-.96,3.58,3.96,3.28,6.22,5.1,6.68,6.11.47.98-1.29,2.48-5.2,3.86-1.13.39-1.94.59-2.42.62-.48.03-.86-.12-1.14-.45-1.61-2.01-3.21-4.13-4.8-6.3-.17.03-.34.07-.52.1.95,2.33,1.9,4.63,2.86,6.85ZM91.98,64.54c.26-.07.51-.13.77-.2,1.14-.3,1.3-1.5.46-3.58-.42-1.06-.88-1.77-1.36-2.12-.48-.35-.92-.47-1.31-.37-.33.09-.65.18-.98.26.81,1.99,1.61,4,2.41,6Z" />
    <path class="cls-9"
      d="M126.13,62.13c-4.48,3.82-8.88,6.97-13.19,9.34-1,.55-1.7.82-2.11.85-.41.03-.68-.1-.83-.4-3.03-6.35-5.93-13.79-8.84-21.23-.24-.61-.17-1.14.2-1.61.37-.47,1.17-.99,2.41-1.59,4.06-1.99,8.17-4.46,12.29-6.95.43-.26.96.47,1.59,2.15.63,1.66,1.03,2.94,1.19,3.89.15.94.08,1.5-.23,1.69-1.33.82-3.65,2.09-6.9,3.55.31.78.62,1.55.93,2.31,2.96-1.86,4.92-3.19,5.84-3.76.56-.35,1.13.18,1.72,1.5.6,1.32.95,2.34,1.04,3.13.09.79-.04,1.3-.41,1.56-1.89,1.25-3.78,2.43-5.65,3.5.3.67.61,1.33.91,1.97,3.45-2.5,5.88-4.46,7.25-5.45.44-.32,1,.16,1.69,1.34.7,1.17,1.14,2.06,1.31,2.77.18.7.1,1.18-.21,1.45Z" />
  </g>
</svg>