<?xml version="1.0" encoding="UTF-8"?>
<svg id="Capa_2" xmlns="http://www.w3.org/2000/svg" xmlns:xlink="http://www.w3.org/1999/xlink"
  viewBox="0 0 162.19 145.22">
  <defs>
    <style>
      .cls-1 {
        fill: url(#Degradado_sin_nombre_16);
      }

      .cls-2 {
        fill: url(#Degradado_sin_nombre_27);
      }
    </style>
    <linearGradient id="Degradado_sin_nombre_27" x1="670.37" y1="302.81" x2="729.27" y2="302.81"
      gradientTransform="translate(-1820.24 -739.91) rotate(1.96) scale(2.76 2.47)" gradientUnits="userSpaceOnUse">
      <stop offset="0" stop-color="#e0fdff" />
      <stop offset="1" stop-color="#f5ffff" />
    </linearGradient>
    <linearGradient id="Degradado_sin_nombre_16" x1="675.66" y1="302.81" x2="723.98" y2="302.81"
      gradientTransform="translate(-1820.24 -739.91) rotate(1.96) scale(2.76 2.47)" gradientUnits="userSpaceOnUse">
      <stop offset="0" stop-color="#3700ff" />
      <stop offset="1" stop-color="#ff00e6" />
    </linearGradient>
  </defs>
  <g id="OBJECTS">
    <path class="cls-2"
      d="M78.61,145.21c-4.95-.17-9.49-2.58-12.04-6.4-8.34-12.48-11.82-24.36-14.12-34.33-.49-2.28-.92-4.57-1.29-6.85-2.47-.48-4.93-1-7.35-1.58-11.15-2.79-24.15-6.71-37.49-15.03C2.23,78.48-.15,74.26,0,69.83c.15-4.43,2.81-8.48,7.05-10.74,13.88-7.38,27.11-10.41,38.23-12.39,2.56-.42,5.12-.79,7.69-1.11.51-2.21,1.08-4.4,1.7-6.56,3.05-9.99,7.33-21.6,16.43-33.44C73.91,1.95,78.61-.16,83.58,0c4.97.17,9.51,2.59,12.06,6.43,8.26,12.42,11.74,24.3,14.06,34.29.49,2.31.93,4.61,1.29,6.9,2.49.48,4.96,1.01,7.39,1.58,11.18,2.81,24.18,6.73,37.47,14.97,4.1,2.54,6.49,6.77,6.33,11.21-.15,4.45-2.83,8.5-7.09,10.75-13.82,7.3-27.06,10.33-38.18,12.33-2.56.42-5.1.79-7.64,1.1-.52,2.24-1.09,4.45-1.72,6.62-3.03,9.96-7.31,21.57-16.49,33.45-2.81,3.64-7.5,5.73-12.45,5.56h0Z" />
    <path class="cls-1"
      d="M147.61,74.89c-10.87-6.74-21.84-10.3-32.85-13.06-5.67-1.34-11.36-2.36-17.05-3.1-.43-5.13-1.18-10.28-2.28-15.44-2.32-10.02-5.54-20.07-12.3-30.23-7.44,9.68-11.33,19.49-14.34,29.32-1.45,5.06-2.55,10.13-3.33,15.21-5.73.34-11.47.97-17.22,1.92-11.17,1.99-22.36,4.81-33.67,10.83,10.87,6.77,21.84,10.35,32.85,13.11,5.66,1.34,11.33,2.36,17.01,3.09.42,5.12,1.17,10.26,2.27,15.4,2.31,10.02,5.54,20.07,12.34,30.24,7.48-9.68,11.39-19.49,14.39-29.32,1.46-5.07,2.55-10.15,3.33-15.25,5.72-.35,11.44-.98,17.18-1.93,11.17-2,22.36-4.81,33.67-10.78Z" />
  </g>
</svg>