<?xml version="1.0" encoding="UTF-8"?>
<svg id="Capa_2" xmlns="http://www.w3.org/2000/svg" xmlns:xlink="http://www.w3.org/1999/xlink"
  viewBox="0 0 115.82 163.09">
  <defs>
    <style>
      .cls-1 {
        fill: url(#Degradado_sin_nombre_6);
      }

      .cls-2 {
        stroke: url(#Degradado_sin_nombre_8-3);
      }

      .cls-2,
      .cls-3,
      .cls-4,
      .cls-5,
      .cls-6,
      .cls-7,
      .cls-8,
      .cls-9,
      .cls-10,
      .cls-11,
      .cls-12,
      .cls-13,
      .cls-14,
      .cls-15,
      .cls-16,
      .cls-17,
      .cls-18,
      .cls-19,
      .cls-20,
      .cls-21,
      .cls-22,
      .cls-23,
      .cls-24,
      .cls-25 {
        fill: none;
        stroke-linecap: round;
        stroke-linejoin: round;
      }

      .cls-2,
      .cls-3,
      .cls-4,
      .cls-5,
      .cls-6,
      .cls-7,
      .cls-8,
      .cls-9,
      .cls-10,
      .cls-11,
      .cls-12,
      .cls-13,
      .cls-14,
      .cls-15,
      .cls-16,
      .cls-17,
      .cls-18,
      .cls-20,
      .cls-21,
      .cls-22,
      .cls-23,
      .cls-24,
      .cls-25 {
        stroke-width: 3px;
      }

      .cls-3 {
        stroke: url(#Degradado_sin_nombre_8-18);
      }

      .cls-4 {
        stroke: url(#Degradado_sin_nombre_8-15);
      }

      .cls-26 {
        fill: url(#Degradado_sin_nombre_12-3);
      }

      .cls-27 {
        fill: url(#Degradado_sin_nombre_12-4);
      }

      .cls-5 {
        stroke: url(#Degradado_sin_nombre_8-7);
      }

      .cls-28 {
        fill: url(#Degradado_sin_nombre_15-2);
      }

      .cls-6 {
        stroke: url(#Degradado_sin_nombre_8);
      }

      .cls-29 {
        fill: url(#Degradado_sin_nombre_26);
      }

      .cls-30 {
        fill: url(#Degradado_sin_nombre_18-2);
      }

      .cls-7 {
        stroke: url(#Degradado_sin_nombre_8-20);
      }

      .cls-31 {
        fill: url(#Degradado_sin_nombre_26-3);
      }

      .cls-32 {
        fill: url(#Degradado_sin_nombre_2-4);
      }

      .cls-8 {
        stroke: url(#Degradado_sin_nombre_8-22);
      }

      .cls-9 {
        stroke: url(#Degradado_sin_nombre_8-8);
      }

      .cls-10 {
        stroke: url(#Degradado_sin_nombre_8-21);
      }

      .cls-33 {
        fill: url(#Degradado_sin_nombre_2);
      }

      .cls-11 {
        stroke: url(#Degradado_sin_nombre_8-14);
      }

      .cls-12 {
        stroke: url(#Degradado_sin_nombre_8-5);
      }

      .cls-13 {
        stroke: url(#Degradado_sin_nombre_8-2);
      }

      .cls-14 {
        stroke: url(#Degradado_sin_nombre_8-16);
      }

      .cls-15 {
        stroke: url(#Degradado_sin_nombre_8-23);
      }

      .cls-16 {
        stroke: url(#Degradado_sin_nombre_8-17);
      }

      .cls-17 {
        stroke: url(#Degradado_sin_nombre_8-11);
      }

      .cls-34 {
        fill: url(#Degradado_sin_nombre_2-5);
      }

      .cls-18 {
        stroke: url(#Degradado_sin_nombre_8-10);
      }

      .cls-35 {
        fill: url(#Degradado_sin_nombre_26-2);
      }

      .cls-19 {
        stroke: url(#Degradado_sin_nombre_8-6);
      }

      .cls-36 {
        fill: url(#Degradado_sin_nombre_15-3);
      }

      .cls-37 {
        fill: url(#Degradado_sin_nombre_2-3);
      }

      .cls-20 {
        stroke: url(#Degradado_sin_nombre_8-24);
      }

      .cls-38 {
        fill: url(#Degradado_sin_nombre_12-5);
      }

      .cls-39 {
        fill: url(#Degradado_sin_nombre_18);
      }

      .cls-40 {
        fill: url(#Degradado_sin_nombre_12-2);
      }

      .cls-21 {
        stroke: url(#Degradado_sin_nombre_8-4);
      }

      .cls-22 {
        stroke: url(#Degradado_sin_nombre_8-19);
      }

      .cls-41 {
        fill: url(#Degradado_sin_nombre_15);
      }

      .cls-23 {
        stroke: url(#Degradado_sin_nombre_8-9);
      }

      .cls-42 {
        fill: url(#Degradado_sin_nombre_2-2);
      }

      .cls-43 {
        fill: url(#Degradado_sin_nombre_6-2);
      }

      .cls-24 {
        stroke: url(#Degradado_sin_nombre_8-12);
      }

      .cls-44 {
        fill: url(#Degradado_sin_nombre_12);
      }

      .cls-25 {
        stroke: url(#Degradado_sin_nombre_8-13);
      }
    </style>
    <linearGradient id="Degradado_sin_nombre_2" x1="98.24" y1="-117.19" x2="94.53" y2="-279.7"
      gradientTransform="translate(19.93 294.89) rotate(-13.38)" gradientUnits="userSpaceOnUse">
      <stop offset="0" stop-color="#c9ccd1" />
      <stop offset="1" stop-color="#fff" />
    </linearGradient>
    <linearGradient id="Degradado_sin_nombre_12" x1="41.1" y1="-201.45" x2="149.81" y2="-201.45"
      gradientTransform="translate(19.93 294.89) rotate(-13.38)" gradientUnits="userSpaceOnUse">
      <stop offset="0" stop-color="#1f1f1f" />
      <stop offset="1" stop-color="#0a0a0a" />
    </linearGradient>
    <linearGradient id="Degradado_sin_nombre_18" x1="131.85" y1="-239.94" x2="107.51" y2="-152.61"
      gradientTransform="translate(19.93 294.89) rotate(-13.38)" gradientUnits="userSpaceOnUse">
      <stop offset="0" stop-color="#8ad100" />
      <stop offset="1" stop-color="#dcf500" />
    </linearGradient>
    <linearGradient id="Degradado_sin_nombre_2-2" x1="-22.7" y1="158.36" x2="-22.7" y2="145.85"
      gradientTransform="translate(119.6 -92.85) rotate(5.62)" xlink:href="#Degradado_sin_nombre_2" />
    <linearGradient id="Degradado_sin_nombre_12-2" x1="-22.7" y1="156.78" x2="-22.7" y2="145.86"
      gradientTransform="translate(119.6 -92.85) rotate(5.62)" xlink:href="#Degradado_sin_nombre_12" />
    <linearGradient id="Degradado_sin_nombre_8" x1="-1045.02" y1="82.04" x2="-1027.39" y2="82.04"
      gradientTransform="translate(-956.57 30.3) rotate(-174.38)" gradientUnits="userSpaceOnUse">
      <stop offset="0" stop-color="#141414" />
      <stop offset="1" stop-color="#141414" />
    </linearGradient>
    <linearGradient id="Degradado_sin_nombre_2-3" x1="-3.3" y1="158.36" x2="-3.3" y2="141.89"
      gradientTransform="translate(119.6 -92.85) rotate(5.62)" xlink:href="#Degradado_sin_nombre_2" />
    <linearGradient id="Degradado_sin_nombre_12-3" x1="-3.3" y1="156.78" x2="-3.3" y2="143.17"
      gradientTransform="translate(119.6 -92.85) rotate(5.62)" xlink:href="#Degradado_sin_nombre_12" />
    <linearGradient id="Degradado_sin_nombre_8-2" x1="-1063.73" y1="84.09" x2="-1046.79" y2="84.09"
      xlink:href="#Degradado_sin_nombre_8" />
    <linearGradient id="Degradado_sin_nombre_8-3" x1="-25.05" y1="163.59" x2="-2.14" y2="163.59"
      gradientTransform="translate(119.6 -92.85) rotate(5.62)" xlink:href="#Degradado_sin_nombre_8" />
    <linearGradient id="Degradado_sin_nombre_8-4" x1="-26.93" y1="166.08" x2="-21.54" y2="166.08"
      gradientTransform="translate(119.6 -92.85) rotate(5.62)" xlink:href="#Degradado_sin_nombre_8" />
    <linearGradient id="Degradado_sin_nombre_8-5" x1="-996.59" y1="166.79" x2="-991.2" y2="166.79"
      gradientTransform="translate(-871.93 -191.21) rotate(-174.38) scale(1 -1)" xlink:href="#Degradado_sin_nombre_8" />
    <linearGradient id="Degradado_sin_nombre_18-2" x1="88.49" y1="-163.44" x2="66.3" y2="-275.47"
      xlink:href="#Degradado_sin_nombre_18" />
    <linearGradient id="Degradado_sin_nombre_15" x1="2237.15" y1="-19.86" x2="2264.23" y2="-100.96"
      gradientTransform="translate(2290.88 -105.69) rotate(174) scale(1 -1)" gradientUnits="userSpaceOnUse">
      <stop offset="0" stop-color="#fb00ff" />
      <stop offset="1" stop-color="#ff0062" />
    </linearGradient>
    <linearGradient id="Degradado_sin_nombre_6" x1="46.87" y1="-112.47" x2="46.87" y2="-153.94"
      gradientTransform="translate(66.73 275.58) rotate(-12.88)" gradientUnits="userSpaceOnUse">
      <stop offset="0" stop-color="#ff560e" />
      <stop offset="1" stop-color="#ffbf00" />
    </linearGradient>
    <linearGradient id="Degradado_sin_nombre_6-2" x1="46.87" y1="-148.66" x2="46.87" y2="-158.76"
      xlink:href="#Degradado_sin_nombre_6" />
    <linearGradient id="Degradado_sin_nombre_15-2" x1="1849.42" y1="-859.76" x2="1849.42" y2="-871.43"
      gradientTransform="translate(1941.1 -711.22) rotate(132.56) scale(1 -1)" xlink:href="#Degradado_sin_nombre_15" />
    <linearGradient id="Degradado_sin_nombre_8-6" x1="1848.92" y1="-867.9" x2="1849.92" y2="-867.9"
      gradientTransform="translate(1941.1 -711.22) rotate(132.56) scale(1 -1)" xlink:href="#Degradado_sin_nombre_8" />
    <linearGradient id="Degradado_sin_nombre_2-4" x1="30.35" y1="53.25" x2="18.51" y2="30.61"
      gradientTransform="matrix(1,0,0,1,0,0)" xlink:href="#Degradado_sin_nombre_2" />
    <linearGradient id="Degradado_sin_nombre_12-4" x1="154.7" y1="-343.84" x2="154.7" y2="-367.61"
      gradientTransform="translate(19.39 427.78) rotate(-22.92)" xlink:href="#Degradado_sin_nombre_12" />
    <linearGradient id="Degradado_sin_nombre_2-5" x1="47.28" y1="44.39" x2="35.43" y2="21.75"
      gradientTransform="matrix(1,0,0,1,0,0)" xlink:href="#Degradado_sin_nombre_2" />
    <linearGradient id="Degradado_sin_nombre_12-5" x1="173.87" y1="-343.86" x2="173.87" y2="-367.62"
      gradientTransform="translate(19.39 427.78) rotate(-22.92)" xlink:href="#Degradado_sin_nombre_12" />
    <linearGradient id="Degradado_sin_nombre_8-7" x1="170.55" y1="-386" x2="196.5" y2="-386"
      gradientTransform="translate(24.44 487.99) rotate(-22.98)" xlink:href="#Degradado_sin_nombre_8" />
    <linearGradient id="Degradado_sin_nombre_8-8" x1="191.61" y1="-391.02" x2="200.49" y2="-391.02"
      gradientTransform="translate(24.44 487.99) rotate(-22.98)" xlink:href="#Degradado_sin_nombre_8" />
    <linearGradient id="Degradado_sin_nombre_8-9" x1="1878.77" y1="-392.24" x2="1887.65" y2="-392.24"
      gradientTransform="translate(1916.31 -312.88) rotate(157.02) scale(1 -1)" xlink:href="#Degradado_sin_nombre_8" />
    <linearGradient id="Degradado_sin_nombre_8-10" x1="43.29" y1="-246.33" x2="51.68" y2="-246.33"
      gradientTransform="translate(19.93 294.89) rotate(-13.38)" xlink:href="#Degradado_sin_nombre_8" />
    <linearGradient id="Degradado_sin_nombre_8-11" x1="95.16" y1="-241.89" x2="102.98" y2="-241.89"
      gradientTransform="translate(19.93 294.89) rotate(-13.38)" xlink:href="#Degradado_sin_nombre_8" />
    <linearGradient id="Degradado_sin_nombre_8-12" x1="46.27" y1="-223.52" x2="54.1" y2="-223.52"
      gradientTransform="translate(19.93 294.89) rotate(-13.38)" xlink:href="#Degradado_sin_nombre_8" />
    <linearGradient id="Degradado_sin_nombre_8-13" x1="56.93" y1="-200.2" x2="64.7" y2="-200.2"
      gradientTransform="translate(19.93 294.89) rotate(-13.38)" xlink:href="#Degradado_sin_nombre_8" />
    <linearGradient id="Degradado_sin_nombre_8-14" x1="76.91" y1="-197.92" x2="85.61" y2="-197.92"
      gradientTransform="translate(19.93 294.89) rotate(-13.38)" xlink:href="#Degradado_sin_nombre_8" />
    <linearGradient id="Degradado_sin_nombre_8-15" x1="66.51" y1="-178.54" x2="73.76" y2="-178.54"
      gradientTransform="translate(19.93 294.89) rotate(-13.38)" xlink:href="#Degradado_sin_nombre_8" />
    <linearGradient id="Degradado_sin_nombre_8-16" x1="912.16" y1="-796.38" x2="918.85" y2="-796.38"
      gradientTransform="translate(343.04 1274.92) rotate(-60.21)" xlink:href="#Degradado_sin_nombre_8" />
    <linearGradient id="Degradado_sin_nombre_8-17" x1="96.47" y1="-195.52" x2="103.86" y2="-195.52"
      gradientTransform="translate(19.93 294.89) rotate(-13.38)" xlink:href="#Degradado_sin_nombre_8" />
    <linearGradient id="Degradado_sin_nombre_8-18" x1="109.84" y1="-182.27" x2="118.52" y2="-182.27"
      gradientTransform="translate(19.93 294.89) rotate(-13.38)" xlink:href="#Degradado_sin_nombre_8" />
    <linearGradient id="Degradado_sin_nombre_8-19" x1="226.79" y1="-410.08" x2="235.31" y2="-410.08"
      gradientTransform="translate(25.17 530.1) rotate(-24.17)" xlink:href="#Degradado_sin_nombre_8" />
    <linearGradient id="Degradado_sin_nombre_8-20" x1="91.01" y1="-174.73" x2="99.96" y2="-174.73"
      gradientTransform="translate(19.93 294.89) rotate(-13.38)" xlink:href="#Degradado_sin_nombre_8" />
    <linearGradient id="Degradado_sin_nombre_8-21" x1="118.17" y1="-170.74" x2="125.45" y2="-170.74"
      gradientTransform="translate(19.93 294.89) rotate(-13.38)" xlink:href="#Degradado_sin_nombre_8" />
    <linearGradient id="Degradado_sin_nombre_8-22" x1="115.17" y1="-235.27" x2="121.48" y2="-235.27"
      gradientTransform="translate(19.93 294.89) rotate(-13.38)" xlink:href="#Degradado_sin_nombre_8" />
    <linearGradient id="Degradado_sin_nombre_8-23" x1="139.52" y1="-229.99" x2="147.62" y2="-229.99"
      gradientTransform="translate(19.93 294.89) rotate(-13.38)" xlink:href="#Degradado_sin_nombre_8" />
    <linearGradient id="Degradado_sin_nombre_8-24" x1="79.71" y1="-273.99" x2="86.71" y2="-273.99"
      gradientTransform="translate(19.93 294.89) rotate(-13.38)" xlink:href="#Degradado_sin_nombre_8" />
    <linearGradient id="Degradado_sin_nombre_15-3" x1="52.55" y1="-95.23" x2="79.63" y2="-176.33"
      gradientTransform="translate(49.75 239.75) rotate(-11.58)" xlink:href="#Degradado_sin_nombre_15" />
    <linearGradient id="Degradado_sin_nombre_26" x1="9.86" y1="29.16" x2="13.82" y2="29.16"
      gradientUnits="userSpaceOnUse">
      <stop offset="0" stop-color="#e0fdff" />
      <stop offset="1" stop-color="#f5ffff" />
    </linearGradient>
    <linearGradient id="Degradado_sin_nombre_26-2" x1="100.62" y1="109.39" x2="104.14" y2="109.39"
      gradientTransform="translate(-2.73 28.21) rotate(-1.29)" xlink:href="#Degradado_sin_nombre_26" />
    <linearGradient id="Degradado_sin_nombre_26-3" x1="102.03" y1="45.44" x2="104.01" y2="45.44"
      gradientTransform="translate(-5.05 82.3) rotate(-3.64)" xlink:href="#Degradado_sin_nombre_26" />
  </defs>
  <g id="OBJECTS">
    <path class="cls-33"
      d="M73.3,162.86c-4.47,1.02-9.09-1.44-10.72-5.73l-10.38-27.14c-2.93-.81-5.37-2.94-6.54-5.82-1.09-2.67-.97-5.67.33-8.24.2-.4.43-.79.69-1.16-.49-.6-.97-1.2-1.44-1.79-1.56.03-3.08-.54-4.26-1.62-1.7-1.56-2.35-3.91-1.79-6.06-2.77-3.59-5.3-6.99-7.69-10.34-1.32.1-2.67-.22-3.8-.94-1.38-.88-2.34-2.25-2.69-3.86-.3-1.36-.14-2.74.46-3.98-2.91-4.41-5.53-8.67-7.97-12.94-.34.15-.7.27-1.07.36-2.21.52-4.51-.2-6.02-1.9-1.09-1.22-1.64-2.8-1.54-4.44.1-1.64.83-3.14,2.05-4.23l.78-.69c-2.23-4.58-3.9-8.61-5.17-12.47l-2.13-.64c-1.57-.47-2.86-1.52-3.64-2.97-.78-1.44-.95-3.11-.48-4.68.53-1.77,1.84-3.2,3.52-3.91-.16-1.52-.25-3.01-.26-4.51-.03-5.33,1.23-10.43,3.66-14.86-1.69-3.04-1.56-6.85.46-9.58.63-.85,1.43-1.57,2.36-2.11.11-.49.28-.96.48-1.41,1.01-2.23,3.08-3.91,5.54-4.49,1.45-.34,2.95-.29,4.33.17.3.1.59.21.88.35.03-.01.06-.03.09-.04.48-.23.98-.4,1.49-.52,3.61-.86,7.52,1.05,9.32,4.36.15.01.3.03.45.05l.71-1.52c.79-1.72,2.31-2.95,4.15-3.39,1.34-.32,2.76-.17,4.01.4,3.07,1.43,4.42,5.09,2.99,8.16l-.21.44c1.84,1.12,3.57,2.44,5.17,3.94,4.29,4.02,8.04,9.19,11.42,15.76.05-.01.11-.03.16-.04,2.21-.52,4.51.2,6.02,1.9,1.09,1.22,1.64,2.8,1.54,4.44-.1,1.64-.83,3.14-2.05,4.23l-.75.67c.11.28.21.55.31.83,1.1,2.93,2.12,5.9,3.11,8.99.04-.18.09-.37.13-.55,0-.16.01-.31.03-.46.09-.85.35-1.68.78-2.42.8-2.55,1.74-4.84,2.88-6.96-1.06-2.16-.79-4.84.86-6.75.86-.98,1.97-1.66,3.22-1.96,1.08-.26,2.19-.21,3.23.11.2-.15.4-.29.61-.44-.06-.45-.08-.91-.07-1.36.08-3.88,2.82-7.33,6.51-8.21.92-.22,1.86-.27,2.79-.14.03,0,.07,0,.1.01.23-.21.47-.41.73-.6.83-.6,1.77-1.02,2.78-1.26,2.88-.68,5.99.26,7.93,2.41.34.37.63.78.89,1.21,1.05.24,2.04.68,2.88,1.29,2.12,1.54,3.37,4.03,3.5,6.66,2.08.08,4.05,1.23,5.11,3.1,1.36,2.39.94,5.3-.83,7.22.33.79.63,1.61.88,2.43,2.73,8.91,1.71,18.43.51,25.72-.55,3.32-1.2,6.62-2,10.04,1.13.76,1.99,1.89,2.41,3.24.49,1.56.35,3.23-.41,4.69-.76,1.46-2.04,2.53-3.6,3.02l-1.44.45c-.82,2.77-1.73,5.61-2.71,8.49.48.95.7,2.02.65,3.08,2.25,1.75,3.63,4.38,3.8,7.23.19,3.11-1.07,6.08-3.37,8.08l2.44,28.96c.39,4.61-2.59,8.73-7.09,9.8t-30,6.86Z" />
    <path class="cls-44"
      d="M72.75,160.47c-3.29.75-6.68-1.06-7.88-4.21l-10.87-28.41c-2.67-.3-5.02-2.01-6.08-4.6-.82-2.01-.73-4.27.25-6.2.43-.85,1.01-1.6,1.7-2.22-1.25-1.53-2.45-3.01-3.61-4.48-.09.03-.19.06-.29.08-1.19.28-2.44-.04-3.35-.87-1.32-1.21-1.55-3.17-.65-4.64-3.45-4.44-6.56-8.63-9.45-12.72-.22.1-.45.18-.68.23-.97.23-2,.05-2.84-.48-.83-.53-1.4-1.35-1.62-2.31-.21-.96-.04-1.95.49-2.78l.47-.73c-3.76-5.63-7.08-11.05-10.08-16.48l-.83.74c-.46.4-1.01.69-1.6.83-1.32.31-2.71-.12-3.61-1.14-.65-.73-.98-1.68-.92-2.67.06-.98.5-1.88,1.23-2.54l2.18-1.94c-2.84-5.65-4.85-10.47-6.26-15.05l-3.37-1.01c-.94-.28-1.72-.91-2.19-1.78-.47-.87-.57-1.87-.29-2.81.38-1.26,1.4-2.23,2.68-2.53.4-.1.82-.12,1.23-.08-.35-2.24-.53-4.4-.54-6.52-.03-5.42,1.41-10.64,4.1-14.94-.02-.03-.04-.05-.07-.08-1.92-2.32-2.09-5.66-.41-7.94.64-.87,1.56-1.54,2.63-1.91.02-.71.18-1.41.47-2.05.7-1.54,2.15-2.71,3.87-3.12,1.01-.24,2.04-.2,2.99.11.61.2,1.17.51,1.66.9.33-.27.71-.51,1.13-.71.32-.15.66-.27,1.01-.35,2.87-.68,6.01,1.15,7,4.07.03.08.05.16.08.24,1.19.05,2.39.18,3.57.41l1.48-3.19c.48-1.03,1.39-1.77,2.49-2.04.8-.19,1.66-.1,2.4.24,1.84.85,2.65,3.05,1.79,4.9l-1.17,2.51c2.41,1.22,4.65,2.79,6.69,4.7,4.54,4.25,8.49,9.94,12.02,17.33l.21-.19c.46-.4,1.01-.69,1.6-.83,1.32-.32,2.71.12,3.61,1.14.65.73.98,1.68.92,2.66-.06.98-.5,1.88-1.23,2.54l-2.03,1.8c.31.79.62,1.59.92,2.39,1.68,4.49,3.22,9.14,4.67,14.11.26-.13.53-.23.82-.3.45-.11.91-.13,1.36-.07.31-2.1.69-4.04,1.16-5.88,0-.17,0-.34.01-.51.06-.59.26-1.16.59-1.65.85-2.79,1.88-5.24,3.15-7.48.12-.21.24-.41.36-.62-1.35-1.35-1.45-3.55-.18-5.02.51-.59,1.18-.99,1.93-1.17,1.04-.25,2.14-.03,3,.59.96-.82,1.99-1.54,3.06-2.16-.28-.8-.41-1.62-.39-2.45.06-2.73,2.04-5.26,4.62-5.87.62-.15,1.26-.18,1.89-.1.46.06.89.18,1.29.34.35-.52.79-.99,1.31-1.36.57-.41,1.21-.7,1.91-.87,2.02-.48,4.19.17,5.54,1.66.48.53.84,1.15,1.07,1.82,1.12.03,2.2.39,3.08,1.02,2.29,1.66,3.14,4.9,2.01,7.69-.08.19-.16.37-.25.56l1.13-.65c.3-.17.63-.3.97-.38,1.58-.38,3.25.35,4.06,1.76,1.01,1.77.39,4.02-1.38,5.03l-.38.22c.65,1.25,1.18,2.55,1.6,3.91,2.58,8.42,1.59,17.57.43,24.6-.64,3.89-1.44,7.8-2.44,11.89,1.34.22,2.51,1.17,2.94,2.53.3.94.21,1.94-.25,2.81-.45.87-1.22,1.52-2.16,1.81l-2.69.85c-1.02,3.49-2.17,7.1-3.43,10.78.91,1.03,1.2,2.53.63,3.88,0,0,0,.01,0,.02.39.19.75.42,1.11.69,1.77,1.32,2.86,3.34,2.99,5.54.17,2.79-1.2,5.36-3.48,6.78l2.56,30.31c.29,3.39-1.91,6.41-5.21,7.2,0,0-29.98,6.85-29.98,6.85Z" />
    <path class="cls-39"
      d="M109.39,44.65c-2.26-7.35-8.01-12.37-14.64-13.09-6.65-.72-13.33,2.94-17.12,9.63-3.79,6.69-4.98,14.91-5.41,22.85-1.19,22.01,2.71,43.67,6.6,64.98l5.24.57,5.24.57c8.38-19.98,16.86-40.29,20.44-62.04,1.29-7.84,1.9-16.13-.36-23.48Z" />
    <path class="cls-42"
      d="M88.46,51.13c-.61,6.59-3.7,11.7-6.91,11.4-3.21-.3-5.3-5.89-4.69-12.48l.04-.43,11.59,1.14c0,.12-.02.25-.03.37Z" />
    <path class="cls-40"
      d="M87.01,51c-.53,5.72-2.91,10.18-5.31,9.96-1.49-.14-2.64-2.04-3.17-4.82l3.35-2.07-3.64-.38c-.06-1.1-.04-2.28.07-3.51.01-.14.03-.28.05-.42l8.68.85c0,.13-.02.25-.03.38Z" />
    <line class="cls-6" x1="89.98" y1="50.91" x2="75.42" y2="49.48" />
    <path class="cls-37"
      d="M107.77,53.03c-.61,6.59-3.7,11.7-6.91,11.4-3.21-.3-5.3-5.89-4.69-12.48l.04-.43,11.97-2.76c0,.12-.4,4.15-.41,4.27Z" />
    <path class="cls-26"
      d="M106.32,52.9c-.53,5.72-2.91,10.18-5.31,9.96-1.49-.14-2.64-2.04-3.17-4.82l3.35-2.07-3.64-.38c-.06-1.1-.04-2.28.07-3.51.01-.14.03-.28.05-.42l8.94-1.79c0,.13-.28,2.9-.29,3.03Z" />
    <line class="cls-13" x1="109" y1="48.66" x2="94.72" y2="51.38" />
    <path class="cls-2" d="M79.94,69.6s.88-8.8,19.81,1.95" />
    <path class="cls-21" d="M78.23,67.71s2.61,1.21,1.91,4.69" />
    <path class="cls-12" d="M102.26,70.08s-2.8.68-2.78,4.23" />
    <path class="cls-30"
      d="M46.03,16.7c-7.21-6.74-16.83-8.66-24.68-5.23-7.87,3.44-12.97,11.8-12.91,21.67.06,9.87,3.99,19.79,8.58,28.9,12.74,25.28,30.93,46.9,48.88,68.17l6.21-2.72,6.21-2.72c-3.43-27.61-6.97-55.65-16.89-82.17-3.58-9.56-8.19-19.18-15.4-25.92Z" />
    <path class="cls-41"
      d="M26.75,13.37c1.23-1.51,1.92-3.6,1.3-5.44-.63-1.84-2.88-3.12-4.63-2.29-1.35.64-1.98,2.17-2.5,3.57.32-1.5-.65-3.17-2.11-3.65-1.46-.48-3.22.29-3.86,1.69-.64,1.4-.06,3.23,1.26,4.02-1.17-1.33-3.57-1.04-4.62.38-1.05,1.42-.8,3.55.33,4.92,1.13,1.37,2.95,2.02,4.72,2.05,3.77.05,7.78-2.38,10.11-5.25Z" />
    <path class="cls-1"
      d="M102.12,151.23l-29.92,6.84c-2.11.48-4.26-.66-5.04-2.69l-13.56-35.47,48.7-11.13,3.19,37.84c.18,2.16-1.25,4.13-3.37,4.61Z" />
    <path class="cls-43"
      d="M102.5,114.69l-46.51,10.63c-2.4.55-4.85-.72-5.79-3.01h0c-1.18-2.88.51-6.12,3.54-6.82l46.51-10.63c3.03-.69,5.96,1.5,6.15,4.6h0c.15,2.46-1.5,4.67-3.91,5.22Z" />
    <path class="cls-28"
      d="M57.18,69.55h0c1.65-1.8,1.53-4.6-.27-6.25l-5.74-5.27-5.99,6.52,5.74,5.27c1.8,1.65,4.6,1.53,6.25-.27Z" />
    <line class="cls-19" x1="48.18" y1="61.28" x2="53.71" y2="66.36" />
    <path class="cls-32"
      d="M29.48,37.42c2.91,6.9,2.56,13.63-.79,15.05-3.35,1.42-8.43-3.03-11.34-9.92-2.91-6.9-2.56-13.63.79-15.05,3.35-1.42,8.43,3.03,11.34,9.92Z" />
    <path class="cls-27"
      d="M27.96,38.06c2.53,5.99,2.55,11.71.03,12.77-2.51,1.06-6.6-2.93-9.13-8.92-2.53-5.99-2.55-11.7-.04-12.76,1.55-.66,3.71.62,5.73,3.11l-2.23,3.86,3.82-1.58c.65,1.07,1.26,2.25,1.8,3.53Z" />
    <path class="cls-34"
      d="M47.12,29.94c2.91,6.9,2.56,13.63-.79,15.05-3.35,1.42-8.43-3.03-11.34-9.92-2.91-6.9-2.56-13.63.79-15.05,3.35-1.42,8.43,3.03,11.34,9.92Z" />
    <path class="cls-38"
      d="M45.6,30.58c2.53,5.99,2.55,11.71.03,12.77-2.51,1.06-6.6-2.93-9.13-8.92-2.53-5.99-2.55-11.7-.04-12.76,1.55-.66,3.71.62,5.73,3.11l-2.23,3.86,3.82-1.58c.65,1.07,1.26,2.25,1.8,3.53Z" />
    <path class="cls-5" d="M30.64,61.88c3.47,3.45,8.8,4.65,13.58,2.63,4.78-2.03,7.62-6.7,7.55-11.59" />
    <path class="cls-9" d="M48.76,50.66s2.33,3.9,7.04,1.55" />
    <path class="cls-23" d="M31.2,58.11s1.18,4.39-3.78,6.13" />
    <line class="cls-18" x1="6.15" y1="43.35" x2="12.11" y2="45.14" />
    <line class="cls-17" x1="58.3" y1="38.44" x2="62.39" y2="34.8" />
    <line class="cls-24" x1="14.99" y1="67.63" x2="19.08" y2="63.99" />
    <line class="cls-25" x1="34.56" y1="83.24" x2="30.98" y2="88.84" />
    <line class="cls-11" x1="50.1" y1="82.85" x2="56.28" y2="84.21" />
    <line class="cls-4" x1="48.59" y1="103.06" x2="45.12" y2="106.84" />
    <line class="cls-14" x1="104.37" y1="85.56" x2="109.16" y2="84.05" />
    <line class="cls-16" x1="69.65" y1="80.53" x2="74.62" y2="82.45" />
    <line class="cls-3" x1="86.08" y1="91.8" x2="91.6" y2="90.48" />
    <line class="cls-22" x1="66" y1="63.58" x2="70.07" y2="59.16" />
    <line class="cls-7" x1="69.35" y1="102.85" x2="75.44" y2="102.73" />
    <line class="cls-10" x1="96.48" y1="99.55" x2="101.38" y2="101.63" />
    <line class="cls-8" x1="82.75" y1="40.47" x2="78.46" y2="36.75" />
    <line class="cls-15" x1="104.08" y1="39.22" x2="108.7" y2="36.59" />
    <line class="cls-20" x1="36.13" y1="12" x2="38.84" y2="6.14" />
    <path class="cls-36"
      d="M88.6,33.99c-1.63-1.07-2.92-2.85-2.88-4.79.04-1.95,1.8-3.85,3.73-3.58,1.48.2,2.55,1.47,3.46,2.65-.76-1.34-.34-3.22.9-4.11,1.25-.9,3.16-.69,4.19.45s1.04,3.06.02,4.21c.71-1.62,3.08-2.07,4.52-1.03,1.43,1.04,1.84,3.15,1.17,4.79-.66,1.64-2.2,2.82-3.88,3.38-3.58,1.19-8.13.08-11.22-1.95Z" />
    <path class="cls-29"
      d="M9.89,34.91c.02.43.06.89.29,1.25.24.36.73.59,1.12.39.36-.19.47-.65.53-1.06.27-1.66.54-3.32.8-4.98.38-2.37.77-4.74,1.15-7.12.15-.94-.31-2.47-1.32-1.22-.81,1.01-1.2,2.85-1.55,4.08-.81,2.8-1.16,5.74-1.02,8.65Z" />
    <path class="cls-35"
      d="M102.25,126.24c-.03-.3-.07-.62-.21-.89s-.44-.48-.74-.45c-.3.04-.53.3-.68.56-.59,1.05-.5,2.34-.39,3.54.42,4.66.83,9.31,1.25,13.97.07.73.15,1.5.6,2.07.68.86,1.86.74,1.94-.39.1-1.4-.24-2.94-.37-4.33-.28-3.04-.57-6.07-.88-9.11-.17-1.66-.34-3.32-.52-4.98Z" />
    <path class="cls-31"
      d="M99.79,119.79c.04-.23.09-.47.21-.67.12-.2.33-.37.56-.39.25-.02.49.14.63.34.15.2.22.45.27.7.22.99.24,2.03.07,3.03-.16.93-1.16.89-1.55.13-.43-.86-.34-2.21-.19-3.13Z" />
  </g>
</svg>