<?xml version="1.0" encoding="UTF-8"?>
<svg id="Capa_2" xmlns="http://www.w3.org/2000/svg" xmlns:xlink="http://www.w3.org/1999/xlink"
  viewBox="0 0 166.6 139.42">
  <defs>
    <style>
      .cls-1 {
        fill: url(#Degradado_sin_nombre_27-5);
      }

      .cls-2 {
        fill: url(#Degradado_sin_nombre_32-2);
      }

      .cls-3 {
        fill: url(#Degradado_sin_nombre_12-3);
      }

      .cls-4 {
        fill: url(#Degradado_sin_nombre_15-2);
      }

      .cls-5 {
        fill: url(#Degradado_sin_nombre_27-4);
      }

      .cls-6 {
        stroke: url(#Degradado_sin_nombre_8);
      }

      .cls-6,
      .cls-7,
      .cls-8 {
        fill: none;
      }

      .cls-6,
      .cls-8 {
        stroke-linecap: round;
        stroke-linejoin: round;
        stroke-width: 3px;
      }

      .cls-9 {
        fill: url(#Degradado_sin_nombre_15-4);
      }

      .cls-10 {
        clip-path: url(#clippath-1);
      }

      .cls-11 {
        fill: url(#Degradado_sin_nombre_32);
      }

      .cls-12 {
        fill: url(#Degradado_sin_nombre_27-7);
      }

      .cls-8 {
        stroke: url(#Degradado_sin_nombre_8-2);
      }

      .cls-13 {
        fill: url(#Degradado_sin_nombre_21);
      }

      .cls-14 {
        fill: url(#Degradado_sin_nombre_27-6);
      }

      .cls-15 {
        fill: url(#Degradado_sin_nombre_27-2);
      }

      .cls-16 {
        fill: url(#Degradado_sin_nombre_15-3);
      }

      .cls-17 {
        fill: url(#Degradado_sin_nombre_12-2);
      }

      .cls-18 {
        fill: url(#Degradado_sin_nombre_27);
      }

      .cls-19 {
        fill: url(#Degradado_sin_nombre_15);
      }

      .cls-20 {
        clip-path: url(#clippath);
      }

      .cls-21 {
        fill: url(#Degradado_sin_nombre_12);
      }

      .cls-22 {
        fill: url(#Degradado_sin_nombre_27-3);
      }
    </style>
    <linearGradient id="Degradado_sin_nombre_27" x1="2.75" y1="61.64" x2="169.21" y2="61.83"
      gradientTransform="translate(-2.86 8.29) rotate(-.18)" gradientUnits="userSpaceOnUse">
      <stop offset="0" stop-color="#e0fdff" />
      <stop offset="1" stop-color="#f5ffff" />
    </linearGradient>
    <linearGradient id="Degradado_sin_nombre_12" x1="5.33" y1="69.68" x2="166.06" y2="69.68"
      gradientTransform="translate(-2.53 5.51) rotate(-.11)" gradientUnits="userSpaceOnUse">
      <stop offset="0" stop-color="#1f1f1f" />
      <stop offset="1" stop-color="#0a0a0a" />
    </linearGradient>
    <linearGradient id="Degradado_sin_nombre_21" x1="96.45" y1="5.72" x2="113.78" y2="5.72"
      gradientTransform="translate(-2.53 5.51) rotate(-.11)" gradientUnits="userSpaceOnUse">
      <stop offset="0" stop-color="#0a0a0a" />
      <stop offset="1" stop-color="#1f1f1f" />
    </linearGradient>
    <linearGradient id="Degradado_sin_nombre_27-2" x1="128.98" y1="95.69" x2="163.19" y2="95.69"
      gradientTransform="translate(-2.53 5.51) rotate(-.11)" xlink:href="#Degradado_sin_nombre_27" />
    <linearGradient id="Degradado_sin_nombre_15" x1="88.81" y1="28.28" x2="88.81" y2="132.48"
      gradientTransform="translate(-2.53 5.51) rotate(-.11)" gradientUnits="userSpaceOnUse">
      <stop offset="0" stop-color="#fb00ff" />
      <stop offset="1" stop-color="#ff0062" />
    </linearGradient>
    <linearGradient id="Degradado_sin_nombre_15-2" x1="672.55" y1="-1047.41" x2="672.55" y2="-1029.3"
      gradientTransform="translate(-55.02 1258.17) rotate(-26.54)" xlink:href="#Degradado_sin_nombre_15" />
    <linearGradient id="Degradado_sin_nombre_15-3" x1="95.3" y1="1328.17" x2="95.3" y2="1340.32"
      gradientTransform="translate(670.53 -1195.38) rotate(28.35)" xlink:href="#Degradado_sin_nombre_15" />
    <linearGradient id="Degradado_sin_nombre_32" x1="516.56" y1="-586.15" x2="516.56" y2="-574"
      gradientTransform="translate(-202.27 824.47) rotate(-16.66)" gradientUnits="userSpaceOnUse">
      <stop offset="0" stop-color="#d359ad" />
      <stop offset="1" stop-color="#b94e98" />
    </linearGradient>
    <linearGradient id="Degradado_sin_nombre_15-4" x1="72.72" y1="1327.91" x2="72.72" y2="1337.99"
      gradientTransform="translate(670.53 -1195.38) rotate(28.35)" xlink:href="#Degradado_sin_nombre_15" />
    <linearGradient id="Degradado_sin_nombre_32-2" x1="152.73" y1="1399.6" x2="152.73" y2="1407.36"
      gradientTransform="translate(670.53 -1195.38) rotate(28.35)" xlink:href="#Degradado_sin_nombre_32" />
    <clipPath id="clippath">
      <path class="cls-7"
        d="M75.87,67.66c.03,12.35-4.36,22.37-9.8,22.38-5.44.01-9.87-9.99-9.89-22.34-.03-12.35,4.36-22.37,9.8-22.38,5.44-.01,9.87,9.99,9.89,22.34Z" />
    </clipPath>
    <linearGradient id="Degradado_sin_nombre_27-3" x1="68.44" y1="84.21" x2="68.44" y2="39.6"
      gradientTransform="translate(-2.53 5.51) rotate(-.11)" xlink:href="#Degradado_sin_nombre_27" />
    <linearGradient id="Degradado_sin_nombre_12-2" x1="71.39" y1="41.58" x2="71.39" y2="82.79"
      xlink:href="#Degradado_sin_nombre_12" />
    <clipPath id="clippath-1">
      <path class="cls-7"
        d="M116.62,67.58c.03,12.35-4.36,22.37-9.8,22.38-5.44.01-9.87-9.99-9.89-22.34-.03-12.35,4.36-22.37,9.8-22.38,5.44-.01,9.87,9.99,9.89,22.34Z" />
    </clipPath>
    <linearGradient id="Degradado_sin_nombre_27-4" x1="109.19" y1="84.2" x2="109.19" y2="39.6"
      gradientTransform="translate(-2.53 5.51) rotate(-.11)" xlink:href="#Degradado_sin_nombre_27" />
    <linearGradient id="Degradado_sin_nombre_12-3" x1="112.14" y1="41.57" x2="112.14" y2="82.79"
      xlink:href="#Degradado_sin_nombre_12" />
    <linearGradient id="Degradado_sin_nombre_27-5" x1="206.52" y1="-193.99" x2="215.83" y2="-193.99"
      gradientTransform="translate(-112.75 330.94) rotate(-7.03)" xlink:href="#Degradado_sin_nombre_27" />
    <linearGradient id="Degradado_sin_nombre_27-6" x1="679.08" y1="-832.86" x2="688.4" y2="-832.86"
      gradientTransform="translate(-210.71 1152.82) rotate(-23.66)" xlink:href="#Degradado_sin_nombre_27" />
    <linearGradient id="Degradado_sin_nombre_8" x1="67.7" y1="101.51" x2="106.62" y2="101.51"
      gradientTransform="translate(-2.53 5.51) rotate(-.11)" gradientUnits="userSpaceOnUse">
      <stop offset="0" stop-color="#141414" />
      <stop offset="1" stop-color="#141414" />
    </linearGradient>
    <linearGradient id="Degradado_sin_nombre_8-2" x1="62.96" y1="93.57" x2="73.91" y2="93.57"
      xlink:href="#Degradado_sin_nombre_8" />
    <linearGradient id="Degradado_sin_nombre_27-7" x1="8.2" y1="40.64" x2="41.33" y2="40.64"
      gradientTransform="translate(-2.53 5.51) rotate(-.11)" xlink:href="#Degradado_sin_nombre_27" />
  </defs>
  <g id="OBJECTS">
    <path class="cls-18"
      d="M165.04,105.06l-10.41-11.06c-1.09-1.15-2.62-1.8-4.19-1.81-.51,0-1.01.07-1.5.2l-3.52.96c3.38-5.01,5.9-10.19,7.5-15.42,4.54-14.83,1.37-35.14-13.49-45.24-2.05-1.4-4.26-2.56-6.62-3.45,2.17-2.97,2.59-6.89.97-10.04-1.42-2.73-4.25-4.62-7.41-4.94-.07,0-.14,0-.21-.02-.04-.06-.09-.11-.13-.17-1.8-2.21-4.52-3.53-7.29-3.52-.31,0-.6.02-.91.05-1.34.13-2.61.59-3.73,1.28.04-1.44-.25-2.88-.92-4.18-1.29-2.49-3.83-4.23-6.68-4.59C104.85,1.16,102.38,0,99.87,0c-.29,0-.57.01-.86.04-3.79.4-6.98,3.44-7.77,7.39-.37,1.87-.22,3.79.43,5.83-1.29-.83-2.74-1.4-4.28-1.61-.47-.07-.96-.1-1.43-.09-3.15.01-6.31,1.48-8.43,3.94-.33.39-.64.8-.92,1.22-.25-.02-.49-.02-.73-.03-.27,0-.54.01-.8.03-3.79.26-7.24,2.4-9,5.57-1.11,1.98-1.5,4.27-1.24,6.53-3.83-1.22-7.89-1.85-11.9-1.83-7.3.01-14.12,2.05-19.73,5.91-1.27.87-2.48,1.84-3.62,2.9-1.15-1.09-2.68-1.76-4.38-1.79-1.2-1.71-3.18-2.82-5.38-2.81-.32,0-.65.02-.97.07-1.21-1.59-3.11-2.63-5.24-2.62-2.69,0-5,1.64-5.99,3.97-.24-.03-.47-.04-.7-.04-2.72,0-5.2,1.61-6.32,4.1-1.32,2.92-.44,6.27,1.92,8.22-1.26,2.47-.86,5.58,1.21,7.63,1.23,1.24,2.88,1.91,4.63,1.91.34,0,.69-.02,1.03-.08.19.25.39.48.61.7,1.23,1.24,2.88,1.91,4.62,1.91h.07c.17.22.36.42.55.62.83.83,1.85,1.41,2.96,1.7-.78,6.31-.21,12.79,1.7,18.93,4.03,12.96,13.22,24.88,28.13,36.43,10.11,7.84,20.56,15.29,30.4,22.23,2.39,1.68,5.18,2.56,8.09,2.55,2.91,0,5.72-.9,8.09-2.6,5.78-4.1,12.33-8.79,18.88-13.67.26.61.57,1.19.94,1.74,1.47,2.21,3.68,3.86,6.73,5.05,1.5.59,3.03,1.1,4.34,1.55.7.23,1.43.36,2.18.36,2.07,0,3.98-.95,5.26-2.59.95-1.2,1.87-2.4,2.78-3.67,1.07-1.51,1.83-3,2.3-4.49.96-.12,1.92-.24,2.9-.41,2.5-.42,4.46-1.35,5.98-2.85,1.23-1.21,2.04-2.73,2.39-4.34l10.92,1.2c.22.03.43.04.64.04,2.19,0,4.15-1.22,5.13-3.18,1.07-2.15.68-4.76-.97-6.5ZM104.7,29.87c-4.5,1.9-8.71,4.6-12.47,8.01.95-1.79,1.94-3.68,2.88-5.63,1.85-3.87,2.48-7.35,1.93-10.67-.01-.06-.02-.11-.03-.17.87.42,1.83.66,2.84.66.21,0,.58-.02.78-.05,1.28-.15,2.54-.31,3.84-.53,1.91-.32,3.52-.9,4.91-1.74-.21,2.25.23,4.6,1.35,7.13.14.32.28.64.43.94-2.22.5-4.38,1.19-6.44,2.05Z" />
    <path class="cls-21"
      d="M162.96,107.02l-10.42-11.06c-.55-.59-1.31-.9-2.09-.9-.25,0-.5.03-.74.1l-4.46,1.21c-.43.12-.84.28-1.24.48l-3.51-1.58c4.54-5.87,7.79-11.98,9.69-18.18,4.23-13.83,1.34-32.7-12.36-42.03-3.31-2.25-7.09-3.81-11.15-4.64,1.19-.49,2.19-1.13,3.02-1.94,2.21-2.17,2.84-5.45,1.54-7.97-.97-1.87-2.94-3.18-5.14-3.4-.24-.02-.48-.04-.72-.03-.25,0-.5.01-.76.04-.23-.44-.5-.85-.81-1.24-1.25-1.54-3.14-2.46-5.05-2.46-.2,0-.41.01-.61.03-2.82.3-5.21,2.63-5.81,5.66-.4,2.01-.07,4.17,1,6.61.61,1.39,1.26,2.71,1.92,4.06.04.08.08.14.13.22-3.3.4-6.56,1.25-9.59,2.52-7.58,3.18-14.32,8.93-19.33,16.43-3.31-4.84-7.46-9.02-12.08-12.21,1.21.53,2.57.96,4.11,1.27,2.2.44,4.43.8,6.53,1.12.22.03.45.05.67.05,1.59,0,3.04-.88,3.79-2.28,1-1.87,2.05-3.86,3.03-5.9,1.58-3.32,2.14-6.25,1.68-8.97-.65-3.95-3.61-7.06-7.19-7.55-.34-.05-.68-.07-1.03-.07-2.33,0-4.68,1.11-6.27,2.95-.63.72-1.14,1.56-1.53,2.46-.76-.18-1.53-.27-2.29-.27-.2,0-.41,0-.61.02-2.82.19-5.38,1.77-6.69,4.1-1.76,3.16-1.05,7.38,1.71,10.28.21.22.44.43.67.64-1.35-.76-2.73-1.43-4.13-2.01-4.35-1.8-9.16-2.75-13.9-2.74-6.72.01-12.98,1.88-18.11,5.41-2.27,1.56-4.3,3.42-6.07,5.57v-.29c0-2.02-1.66-3.67-3.68-3.66-.58,0-1.13.14-1.62.38-.24-1.8-1.78-3.19-3.65-3.19-.98,0-1.87.39-2.53,1.02-.06-1.98-1.69-3.57-3.68-3.57-2.02,0-3.67,1.65-3.66,3.68v1.23s-1.36-.61-1.36-.61c-.53-.24-1.1-.36-1.68-.36-1.59,0-3.05.94-3.71,2.4-.92,2.05,0,4.46,2.04,5.39l1.75.79-1.27,1.27c-1.43,1.44-1.42,3.76.01,5.19.69.69,1.62,1.07,2.6,1.07.98,0,1.9-.39,2.59-1.08h0c.02.96.4,1.85,1.08,2.53.69.69,1.62,1.07,2.6,1.07.58,0,1.14-.14,1.65-.39.14.7.49,1.33,1,1.85.69.69,1.62,1.07,2.6,1.07.63,0,1.23-.16,1.76-.45-1.45,6.88-1.12,14.29,1.02,21.19,3.85,12.39,12.73,23.84,27.15,35.02,10.07,7.81,20.49,15.23,30.3,22.15,1.89,1.34,4.12,2.04,6.43,2.04,2.32,0,4.54-.72,6.42-2.06,7.36-5.25,15.07-10.77,22.73-16.54-.33,1.77.05,3.71,1.14,5.35,1.14,1.7,2.9,3,5.39,3.97,1.43.55,2.87,1.05,4.22,1.51.4.14.82.21,1.24.2,1.18,0,2.28-.54,3.01-1.47.92-1.18,1.82-2.34,2.7-3.58,1.47-2.06,2.22-4.01,2.31-5.95.45.21.95.33,1.46.32.11,0,.31-.01.42-.03.92-.11,1.9-.24,2.89-.4,1.9-.32,3.35-1,4.44-2.07,1.51-1.49,2.07-3.65,1.5-5.51l14.14,1.56c.11.01.21.02.32.02,1.08,0,2.07-.61,2.56-1.59.54-1.08.34-2.37-.48-3.25ZM141.23,106.35c-1-1.23-2.51-1.96-4.04-1.95-.17,0-.33,0-.5.03-2.25.24-4.15,2.07-4.62,4.45-.15.78-.16,1.58-.03,2.42-.28-.14-.57-.27-.87-.37-.59-.19-1.22-.28-1.85-.28-1.51,0-2.99.54-4.18,1.51-.38.31-.72.66-1.04,1.05-.47-.15-.96-.25-1.45-.3-.12-.01-.24-.01-.35-.02.29-.23.58-.45.87-.67,4.4-3.44,8.35-6.97,11.75-10.52l5.84,2.63c.12.41.28.82.49,1.2l.65,1.23c-.13-.01-.26-.02-.39-.02-.09-.13-.18-.26-.28-.38Z" />
    <path class="cls-13"
      d="M96.54,17.15c.61,1.24,1.91,2.04,3.29,2.04.11,0,.33-.01.44-.03,1.18-.15,2.44-.31,3.71-.52,2.28-.38,4.02-1.18,5.31-2.45,1.98-1.95,2.55-4.9,1.37-7.18-.88-1.7-2.66-2.88-4.65-3.08-.21-.02-.43-.03-.65-.03-.12,0-.23,0-.35.01-.17-.29-.36-.56-.57-.82-1.13-1.4-2.84-2.23-4.57-2.22-.19,0-.37.01-.56.03-2.55.27-4.71,2.36-5.25,5.09-.35,1.77-.07,3.66.86,5.78.53,1.19,1.1,2.37,1.6,3.38Z" />
    <path class="cls-15"
      d="M150.44,97.93l-4.46,1.21c-.67.18-1.23.54-1.66,1l-16-7.22c-.61-.27-1.32,0-1.59.6-.27.6,0,1.32.6,1.59l16.06,7.24c-.03.61.09,1.24.4,1.83l1.64,3.11,15.43,1.7-10.42-11.06Z" />
    <path class="cls-19"
      d="M136.2,37.43c-8.44-5.74-19.87-6.2-29.29-2.26-8.81,3.69-15.87,10.89-20.42,19.3-4.59-8.4-11.91-15.56-20.73-19.22-9.43-3.91-20.86-3.4-29.28,2.38-11.89,8.16-15.35,25.09-11.07,38.86s14.76,24.77,26.16,33.6c9.87,7.65,19.97,14.85,30.2,22.08,2.86,2.02,6.68,2.01,9.53-.02,10.2-7.27,20.27-14.51,30.11-22.2,11.36-8.88,21.8-19.92,26.02-33.71,4.22-13.79.69-30.7-11.23-38.81Z" />
    <path class="cls-4"
      d="M86.62,17.34c-1.76-.24-3.57.57-4.73,1.91-1.09,1.26-1.63,2.92-1.69,4.58-1.36-.95-3.06-1.5-4.71-1.39-1.77.12-3.51,1.08-4.37,2.64-1.22,2.19-.45,5.09,1.28,6.9s4.21,2.71,6.67,3.21c2.13.43,4.26.77,6.41,1.1.6.09,1.2-.2,1.48-.74,1.03-1.92,2.03-3.83,2.97-5.78,1.08-2.26,1.85-4.79,1.44-7.26-.41-2.47-2.27-4.83-4.75-5.17Z" />
    <path class="cls-16"
      d="M128.69,21.82c-.55-1.06-1.69-1.74-2.88-1.86-1.11-.11-2.23.23-3.17.84,0-1.12-.36-2.26-1.06-3.12-.75-.92-1.95-1.51-3.13-1.38-1.67.18-2.97,1.72-3.29,3.37-.33,1.65.14,3.36.81,4.9.59,1.33,1.22,2.63,1.87,3.94.18.37.57.58.98.53,1.45-.18,2.88-.36,4.32-.6,1.66-.28,3.34-.83,4.54-2.01,1.2-1.18,1.78-3.11,1.01-4.6Z" />
    <path class="cls-11"
      d="M130.31,113.66c-1.13-.36-2.43-.03-3.35.72-.86.71-1.41,1.74-1.64,2.84-.79-.79-1.85-1.34-2.96-1.46-1.18-.12-2.44.31-3.19,1.24-1.06,1.31-.88,3.31.05,4.71.94,1.4,2.47,2.28,4.04,2.89,1.36.53,2.73,1,4.11,1.47.39.13.81,0,1.06-.32.9-1.15,1.78-2.3,2.63-3.48.98-1.37,1.78-2.95,1.79-4.63.01-1.68-.94-3.45-2.54-3.97Z" />
    <path class="cls-9"
      d="M108.1,10.33c-.45-.88-1.4-1.44-2.39-1.54-.92-.09-1.85.19-2.63.7,0-.93-.3-1.87-.88-2.59-.62-.77-1.62-1.25-2.6-1.15-1.39.15-2.46,1.43-2.73,2.79-.27,1.37.11,2.79.68,4.06.49,1.11,1.01,2.18,1.55,3.27.15.3.48.48.81.44,1.2-.15,2.39-.3,3.58-.5,1.38-.23,2.77-.69,3.77-1.67.99-.98,1.47-2.58.83-3.82Z" />
    <path class="cls-2"
      d="M143.54,110.81c-.35-.68-1.08-1.11-1.84-1.19-.71-.07-1.43.15-2.02.54,0-.71-.23-1.44-.68-2-.48-.59-1.25-.96-2-.88-1.07.11-1.9,1.1-2.11,2.15-.21,1.05.09,2.15.52,3.13.37.85.78,1.68,1.19,2.52.12.23.37.37.63.34.93-.11,1.84-.23,2.76-.39,1.06-.18,2.14-.53,2.9-1.28.77-.75,1.14-1.99.64-2.94Z" />
    <g class="cls-20">
      <path class="cls-22"
        d="M75.87,67.66c.03,12.35-4.36,22.37-9.8,22.38-5.44.01-9.87-9.99-9.89-22.34-.03-12.35,4.36-22.37,9.8-22.38,5.44-.01,9.87,9.99,9.89,22.34Z" />
      <path class="cls-17"
        d="M75.87,67.66c.02,11.76-3.04,21.29-6.85,21.3-2.4,0-4.51-3.76-5.75-9.48l6.84-1.66-7.51-2.15c-.33-2.46-.51-5.15-.52-7.97-.02-11.76,3.04-21.29,6.85-21.3,3.81,0,6.91,9.51,6.93,21.27Z" />
    </g>
    <g class="cls-10">
      <path class="cls-5"
        d="M116.62,67.58c.03,12.35-4.36,22.37-9.8,22.38-5.44.01-9.87-9.99-9.89-22.34-.03-12.35,4.36-22.37,9.8-22.38,5.44-.01,9.87,9.99,9.89,22.34Z" />
      <path class="cls-3"
        d="M116.62,67.58c.02,11.76-3.04,21.29-6.85,21.3-2.4,0-4.51-3.76-5.75-9.48l6.85-1.66-7.51-2.15c-.33-2.46-.51-5.15-.52-7.97-.02-11.76,3.04-21.29,6.85-21.3,3.81,0,6.91,9.51,6.93,21.27Z" />
    </g>
    <path class="cls-1"
      d="M71.99,108l-3.03,3.73c-.84,1.03-.59,2.57.54,3.28l2.9,1.83c1.15.73,2.69.25,3.23-1l1.97-4.57-5.61-3.28Z" />
    <path class="cls-14"
      d="M79.03,111.46l-1.83,4.44c-.51,1.23.17,2.63,1.46,2.99l3.3.92c1.31.37,2.65-.53,2.81-1.88l.58-4.94-6.32-1.53Z" />
    <path class="cls-6" d="M66.85,100.66c3.48,7.35,10.97,12.43,19.64,12.41,6.5-.01,12.33-2.89,16.29-7.44" />
    <path class="cls-8" d="M62.12,101.02s5.49.58,7.95-4.18" />
    <path class="cls-12"
      d="M38.84,48.52c-.15-.42-.61-.63-1.02-.49-1.39.49-2.56,1.38-3.41,2.55l-8.48-3.82v-6.22c-.01-.44-.37-.8-.82-.8-.44,0-.8.36-.8.8v5.49s-3.65-1.65-3.65-1.65v-6.65c-.01-.44-.37-.8-.82-.8-.44,0-.8.36-.8.8v5.93s-4.59-2.07-4.59-2.07v-6.41c-.01-.44-.37-.8-.82-.8-.44,0-.8.36-.8.8v5.68s-5.41-2.44-5.41-2.44c-.61-.27-1.32,0-1.59.6-.27.6,0,1.32.6,1.59l5.53,2.49-4.19,4.21c-.31.31-.31.82,0,1.13.16.16.36.23.57.23.21,0,.41-.08.57-.24l4.61-4.63,4.5,2.03-3.98,3.99c-.31.31-.31.82,0,1.13.16.16.36.23.57.23.21,0,.41-.08.57-.24l4.4-4.42,3.8,1.71-4.09,4.1c-.31.31-.31.82,0,1.13.16.16.36.23.57.23.21,0,.41-.08.57-.24l4.51-4.53,8.37,3.78c-.45,1.48-.43,3.05.1,4.53.12.33.43.53.76.53.09,0,.18-.02.27-.05.42-.15.63-.61.49-1.02-1.04-2.92.49-6.15,3.41-7.19.42-.15.63-.61.49-1.02Z" />
  </g>
</svg>