<?xml version="1.0" encoding="UTF-8"?>
<svg id="Capa_2" xmlns="http://www.w3.org/2000/svg" xmlns:xlink="http://www.w3.org/1999/xlink"
  viewBox="0 0 164.92 123.98">
  <defs>
    <style>
      .cls-1 {
        fill: url(#Degradado_sin_nombre_6);
      }

      .cls-2 {
        stroke: url(#Degradado_sin_nombre_8-3);
      }

      .cls-2,
      .cls-3,
      .cls-4,
      .cls-5,
      .cls-6,
      .cls-7,
      .cls-8,
      .cls-9,
      .cls-10,
      .cls-11,
      .cls-12,
      .cls-13,
      .cls-14,
      .cls-15,
      .cls-16,
      .cls-17 {
        fill: none;
        stroke-linecap: round;
        stroke-linejoin: round;
      }

      .cls-2,
      .cls-4,
      .cls-5,
      .cls-8,
      .cls-12,
      .cls-15,
      .cls-16,
      .cls-17 {
        stroke-width: 3px;
      }

      .cls-18 {
        fill: url(#Degradado_sin_nombre_21-3);
      }

      .cls-3 {
        stroke: url(#Degradado_sin_nombre_13);
      }

      .cls-3,
      .cls-6,
      .cls-7,
      .cls-9,
      .cls-10,
      .cls-11,
      .cls-13,
      .cls-14 {
        stroke-width: 2px;
      }

      .cls-4 {
        stroke: url(#Degradado_sin_nombre_2-2);
      }

      .cls-19 {
        fill: url(#Degradado_sin_nombre_19);
      }

      .cls-5 {
        stroke: url(#Degradado_sin_nombre_8);
      }

      .cls-20 {
        fill: url(#Degradado_sin_nombre_18-2);
      }

      .cls-21 {
        fill: url(#Degradado_sin_nombre_2-4);
      }

      .cls-22 {
        fill: url(#Degradado_sin_nombre_21-2);
      }

      .cls-23 {
        fill: url(#Degradado_sin_nombre_2-8);
      }

      .cls-6 {
        stroke: url(#Degradado_sin_nombre_13-4);
      }

      .cls-7 {
        stroke: url(#Degradado_sin_nombre_13-7);
      }

      .cls-24 {
        fill: url(#Degradado_sin_nombre_19-2);
      }

      .cls-8 {
        stroke: url(#Degradado_sin_nombre_2-7);
      }

      .cls-25 {
        fill: url(#Degradado_sin_nombre_2-9);
      }

      .cls-26 {
        fill: url(#Degradado_sin_nombre_2);
      }

      .cls-9 {
        stroke: url(#Degradado_sin_nombre_13-8);
      }

      .cls-10 {
        stroke: url(#Degradado_sin_nombre_13-2);
      }

      .cls-11 {
        stroke: url(#Degradado_sin_nombre_13-3);
      }

      .cls-12 {
        stroke: url(#Degradado_sin_nombre_8-2);
      }

      .cls-27 {
        fill: url(#Degradado_sin_nombre_21);
      }

      .cls-28 {
        fill: url(#Degradado_sin_nombre_2-5);
      }

      .cls-13 {
        stroke: url(#Degradado_sin_nombre_13-6);
      }

      .cls-14 {
        stroke: url(#Degradado_sin_nombre_13-5);
      }

      .cls-29 {
        fill: url(#Degradado_sin_nombre_19-3);
      }

      .cls-15 {
        stroke: url(#Degradado_sin_nombre_2-6);
      }

      .cls-30 {
        fill: url(#Degradado_sin_nombre_21-4);
      }

      .cls-31 {
        fill: url(#Degradado_sin_nombre_18);
      }

      .cls-16 {
        stroke: url(#Degradado_sin_nombre_8-4);
      }

      .cls-17 {
        stroke: url(#Degradado_sin_nombre_2-3);
      }

      .cls-32 {
        fill: url(#Degradado_sin_nombre_30);
      }

      .cls-33 {
        fill: url(#Degradado_sin_nombre_12);
      }
    </style>
    <linearGradient id="Degradado_sin_nombre_2" x1="91.96" y1="102.84" x2="92.22" y2="-34.39"
      gradientTransform="translate(-10.17 28.79) rotate(-.59)" gradientUnits="userSpaceOnUse">
      <stop offset="0" stop-color="#c9ccd1" />
      <stop offset="1" stop-color="#fff" />
    </linearGradient>
    <linearGradient id="Degradado_sin_nombre_12" x1="-5.35" y1="86.65" x2="153.46" y2="86.65"
      gradientTransform="translate(9.44 -25.33) rotate(.54)" gradientUnits="userSpaceOnUse">
      <stop offset="0" stop-color="#1f1f1f" />
      <stop offset="1" stop-color="#0a0a0a" />
    </linearGradient>
    <linearGradient id="Degradado_sin_nombre_2-2" x1="81.79" y1="11.12" x2="88.5" y2="11.12"
      xlink:href="#Degradado_sin_nombre_2" />
    <linearGradient id="Degradado_sin_nombre_2-3" x1="65.37" y1="14.98" x2="88" y2="14.98"
      xlink:href="#Degradado_sin_nombre_2" />
    <linearGradient id="Degradado_sin_nombre_18" x1="10.48" y1="45.26" x2="112.45" y2="16.16"
      gradientTransform="translate(-10.17 28.79) rotate(-.59)" gradientUnits="userSpaceOnUse">
      <stop offset="0" stop-color="#8ad100" />
      <stop offset="1" stop-color="#dcf500" />
    </linearGradient>
    <linearGradient id="Degradado_sin_nombre_19" x1="15.86" y1="68.71" x2="133.3" y2="40.84"
      gradientUnits="userSpaceOnUse">
      <stop offset="0" stop-color="#dcf500" />
      <stop offset="1" stop-color="#8ad100" />
    </linearGradient>
    <linearGradient id="Degradado_sin_nombre_6" x1="32.18" y1="79.54" x2="80.93" y2="71.51"
      gradientUnits="userSpaceOnUse">
      <stop offset="0" stop-color="#ff560e" />
      <stop offset="1" stop-color="#ffbf00" />
    </linearGradient>
    <linearGradient id="Degradado_sin_nombre_2-4" x1="374.39" y1="-419.14" x2="374.39" y2="-435.41"
      gradientTransform="translate(-258.11 507.67) rotate(-9.7)" xlink:href="#Degradado_sin_nombre_2" />
    <linearGradient id="Degradado_sin_nombre_21" x1="374.39" y1="-420.2" x2="374.39" y2="-434.33"
      gradientTransform="translate(-258.11 507.67) rotate(-9.7)" gradientUnits="userSpaceOnUse">
      <stop offset="0" stop-color="#0a0a0a" />
      <stop offset="1" stop-color="#1f1f1f" />
    </linearGradient>
    <linearGradient id="Degradado_sin_nombre_2-5" x1="384.15" y1="-419.14" x2="384.15" y2="-435.41"
      gradientTransform="translate(-258.11 507.67) rotate(-9.7)" xlink:href="#Degradado_sin_nombre_2" />
    <linearGradient id="Degradado_sin_nombre_21-2" x1="384.15" y1="-420.2" x2="384.15" y2="-434.33"
      xlink:href="#Degradado_sin_nombre_21" />
    <linearGradient id="Degradado_sin_nombre_13" x1="5463.07" y1="3738.37" x2="5479.74" y2="3738.37"
      gradientTransform="translate(5997.95 2952.93) rotate(171.76)" gradientUnits="userSpaceOnUse">
      <stop offset="0" stop-color="#1f1f1f" />
      <stop offset="1" stop-color="#0a0a0a" />
    </linearGradient>
    <linearGradient id="Degradado_sin_nombre_13-2" x1="5461.75" y1="3739.91" x2="5465.71" y2="3739.91"
      xlink:href="#Degradado_sin_nombre_13" />
    <linearGradient id="Degradado_sin_nombre_13-3" x1="1933.09" y1="3742.25" x2="1937.05" y2="3742.25"
      gradientTransform="translate(-1339.56 4017.7) rotate(-8.24) scale(1 -1)" xlink:href="#Degradado_sin_nombre_13" />
    <linearGradient id="Degradado_sin_nombre_8" x1="373.41" y1="-400.36" x2="379.8" y2="-400.36"
      gradientTransform="translate(-258.11 507.67) rotate(-9.7)" gradientUnits="userSpaceOnUse">
      <stop offset="0" stop-color="#141414" />
      <stop offset="1" stop-color="#141414" />
    </linearGradient>
    <linearGradient id="Degradado_sin_nombre_8-2" x1="356.07" y1="-397.99" x2="379.8" y2="-397.99"
      xlink:href="#Degradado_sin_nombre_8" />
    <linearGradient id="Degradado_sin_nombre_2-6" x1="101.66" y1="10.74" x2="108.49" y2="10.74"
      xlink:href="#Degradado_sin_nombre_2" />
    <linearGradient id="Degradado_sin_nombre_2-7" x1="102.4" y1="15.3" x2="124.27" y2="15.3"
      xlink:href="#Degradado_sin_nombre_2" />
    <linearGradient id="Degradado_sin_nombre_19-2" x1="70.98" y1="15.59" x2="171.65" y2="46.42"
      gradientTransform="translate(-10.17 28.79) rotate(-.59)" xlink:href="#Degradado_sin_nombre_19" />
    <linearGradient id="Degradado_sin_nombre_30" x1="6249.55" y1="747.91" x2="6314.29" y2="747.91"
      gradientTransform="translate(6403.9 759.73) rotate(-166.87) scale(1 -1)" gradientUnits="userSpaceOnUse">
      <stop offset="0" stop-color="#fffa00" />
      <stop offset="1" stop-color="#ffaa0e" />
    </linearGradient>
    <linearGradient id="Degradado_sin_nombre_19-3" x1="153.03" y1="43.12" x2="96.11" y2="22.55"
      gradientTransform="translate(-10.17 28.79) rotate(-.59)" xlink:href="#Degradado_sin_nombre_19" />
    <linearGradient id="Degradado_sin_nombre_18-2" x1="6267.92" y1="763.71" x2="6304.36" y2="763.71"
      gradientTransform="translate(872.06 6361.75) rotate(-90) scale(1 -1)" xlink:href="#Degradado_sin_nombre_18" />
    <linearGradient id="Degradado_sin_nombre_2-8" x1="5241.22" y1="712.11" x2="5241.22" y2="702.58"
      gradientTransform="translate(5384.05 521.81) rotate(-166.87) scale(1 -1)" xlink:href="#Degradado_sin_nombre_2" />
    <linearGradient id="Degradado_sin_nombre_21-3" x1="5241.22" y1="711.75" x2="5241.22" y2="703.73"
      gradientTransform="translate(5384.05 521.81) rotate(-166.87) scale(1 -1)" xlink:href="#Degradado_sin_nombre_21" />
    <linearGradient id="Degradado_sin_nombre_13-4" x1="5236.04" y1="711.71" x2="5246.41" y2="711.71"
      gradientTransform="translate(5384.05 521.81) rotate(-166.87) scale(1 -1)" xlink:href="#Degradado_sin_nombre_13" />
    <linearGradient id="Degradado_sin_nombre_2-9" x1="5228.69" y1="712.31" x2="5228.69" y2="702.78"
      gradientTransform="translate(5384.05 521.81) rotate(-166.87) scale(1 -1)" xlink:href="#Degradado_sin_nombre_2" />
    <linearGradient id="Degradado_sin_nombre_21-4" x1="5228.69" y1="711.95" x2="5228.69" y2="703.93"
      gradientTransform="translate(5384.05 521.81) rotate(-166.87) scale(1 -1)" xlink:href="#Degradado_sin_nombre_21" />
    <linearGradient id="Degradado_sin_nombre_13-5" x1="5223.5" y1="711.92" x2="5233.88" y2="711.92"
      gradientTransform="translate(5384.05 521.81) rotate(-166.87) scale(1 -1)" xlink:href="#Degradado_sin_nombre_13" />
    <linearGradient id="Degradado_sin_nombre_13-6" x1="5989.43" y1="2675.3" x2="6005.99" y2="2675.3"
      gradientTransform="translate(5355.93 4000.43) rotate(-166.87)" xlink:href="#Degradado_sin_nombre_13" />
    <linearGradient id="Degradado_sin_nombre_13-7" x1="5988.12" y1="2676.83" x2="5992.07" y2="2676.83"
      gradientTransform="translate(5355.93 4000.43) rotate(-166.87)" xlink:href="#Degradado_sin_nombre_13" />
    <linearGradient id="Degradado_sin_nombre_13-8" x1="1406.16" y1="2676.91" x2="1410.11" y2="2676.91"
      gradientTransform="translate(-1864.12 2316.16) rotate(13.13) scale(1 -1)" xlink:href="#Degradado_sin_nombre_13" />
    <linearGradient id="Degradado_sin_nombre_8-3" x1="6011.15" y1="736.29" x2="6017.54" y2="736.29"
      gradientTransform="translate(6145.65 699.48) rotate(-166.87) scale(1 -1)" xlink:href="#Degradado_sin_nombre_8" />
    <linearGradient id="Degradado_sin_nombre_8-4" x1="5993.81" y1="738.66" x2="6017.54" y2="738.66"
      gradientTransform="translate(6145.65 699.48) rotate(-166.87) scale(1 -1)" xlink:href="#Degradado_sin_nombre_8" />
  </defs>
  <g id="OBJECTS">
    <path class="cls-26"
      d="M124.05,123.98c-2.28-.02-4.64-.19-7.02-.49-5.91-.76-11.4-2.06-16.32-3.85-6.66-2.42-12.18-5.75-16.42-9.89-.61-.6-1.21-1.22-1.78-1.86-1.07,1.19-2.22,2.31-3.45,3.37-4.47,3.88-10.18,6.87-16.98,8.9-5.01,1.5-10.57,2.46-16.51,2.87-1.58.11-3.17.15-4.71.14-11.02-.1-20.5-3.34-27.43-9.37C4.45,105.97-.68,93.73.07,81.83c.53-8.5,3.74-16.1,6.85-23.45,3.06-7.25,5.95-14.08,5.91-20.99,0-1.92-.19-3.98-.38-6.16-.77-8.83-1.82-20.91,10.65-27.65C27.45,1.23,32.59-.05,37.58,0c1.63.02,3.22.17,4.74.46,1.81.35,3.54.89,5.16,1.63.12.05.23.1.32.14.11.05.27.13.43.22.41.2.83.43,1.24.67.18.1.37.23.57.35.47.3.85.56,1.22.84.22.16.43.32.64.49.38.31.76.64,1.12.99l.05.05c.16.15.32.3.48.46.52.53,1,1.06,1.45,1.63,3.66,4.64,4.9,10.1,5.99,14.91.49,2.17.95,4.2,1.59,6.04.75,2.18,1.83,4.32,3.33,6.61l1.49-.67.19-.6c.96-3.01,3.72-5.02,6.88-4.99.72,0,1.43.12,2.11.34,1.69.54,3.1,1.67,3.99,3.2,1.03.73,1.86,1.73,2.38,2.9.47,1.05.68,2.17.62,3.3.73,1.79.72,3.81-.08,5.61-1.14,2.56-3.66,4.21-6.44,4.25,1.92,2.13,3.83,4.32,5.62,6.63,2.34-2.84,4.89-5.45,7.44-7.96-1.67-.78-3.02-2.19-3.68-3.96-.69-1.85-.59-3.87.25-5.61,0-1.13.28-2.23.81-3.25.59-1.14,1.49-2.1,2.57-2.77.97-1.46,2.45-2.51,4.18-2.95.63-.15,1.21-.22,1.81-.22,3.11.03,5.83,2.06,6.75,4.99,1.21-1.77,2.15-3.47,2.87-5.22.74-1.8,1.33-3.8,1.94-5.93,1.38-4.75,2.94-10.12,6.86-14.53.46-.52.97-1.03,1.57-1.57.17-.15.32-.28.48-.41l.09-.07c.37-.31.76-.61,1.16-.9.21-.15.41-.29.62-.42.45-.29.85-.53,1.25-.75.27-.15.47-.26.68-.37.39-.2.82-.4,1.26-.59.16-.08.34-.16.53-.23.04-.02.16-.06.26-.1,1.58-.61,3.37-1.07,5.23-1.31,1.17-.15,2.39-.22,3.62-.21,5.28.05,10.88,1.68,15.38,4.48,12.04,7.47,10.27,19.47,8.97,28.23-.32,2.17-.62,4.22-.75,6.13-.45,6.89,2.02,13.89,4.64,21.3,2.66,7.53,5.41,15.31,5.44,23.83.04,11.92-5.81,23.83-15.26,31.1-6.73,5.19-15.59,7.88-25.61,7.78Z" />
    <path class="cls-33"
      d="M124.07,120.92c-2.16-.02-4.4-.18-6.66-.47-5.68-.73-10.95-1.97-15.65-3.69-6.25-2.28-11.41-5.37-15.33-9.21-1.43-1.4-2.74-2.91-3.91-4.52-1.57,2.14-3.4,4.12-5.46,5.91-4.14,3.59-9.47,6.37-15.85,8.28-4.8,1.43-10.13,2.36-15.84,2.75-1.5.1-3.01.15-4.47.13-10.28-.1-19.08-3.08-25.45-8.62-8.29-7.21-13.01-18.49-12.32-29.45.5-7.98,3.61-15.34,6.61-22.46,3.18-7.54,6.19-14.66,6.15-22.19-.01-2.05-.2-4.17-.39-6.41-.73-8.42-1.64-18.9,9.05-24.69,3.9-2.11,8.52-3.26,13-3.21,1.44.01,2.85.15,4.19.41,1.59.3,3.12.79,4.53,1.43.06.03.13.05.18.08.12.05.23.12.35.18.37.18.75.38,1.12.6.16.09.32.19.48.3.4.26.72.48,1.04.72.18.14.36.27.53.41.33.26.64.54.95.84l.09.08c.12.11.24.22.35.33.46.47.87.93,1.24,1.39,3.23,4.09,4.33,8.97,5.4,13.69.51,2.24.99,4.36,1.68,6.36,1.06,3.07,2.72,6.11,5.15,9.44l5.06-2.27.6-1.91c.55-1.72,2.12-2.87,3.93-2.85.41,0,.81.07,1.21.19,1.03.33,1.88,1.04,2.38,2.01.07.14.14.29.19.43.85.41,1.55,1.11,1.94,2,.38.84.44,1.74.25,2.58.7,1.11.85,2.54.28,3.83-.67,1.49-2.14,2.44-3.77,2.43-.56,0-1.1-.12-1.61-.35l-2.07-.92-3.02,1.35c.87.98,1.76,1.95,2.63,2.91,3.39,3.73,6.87,7.55,9.75,11.81,3.35-4.76,7.55-8.85,11.63-12.84,1.09-1.06,2.19-2.14,3.28-3.23l-.86-.45-2.11.79c-.48.18-.97.26-1.47.26-1.68-.02-3.2-1.08-3.78-2.65-.49-1.32-.26-2.74.51-3.81-.15-.87,0-1.76.41-2.56.45-.87,1.19-1.53,2.07-1.89.5-1.09,1.47-1.96,2.72-2.28.36-.09.7-.13,1.03-.12,1.86.02,3.47,1.29,3.93,3.08l.49,1.94,2.78,1.45c2.4-2.98,4.11-5.75,5.29-8.6.81-1.95,1.42-4.04,2.06-6.25,1.35-4.64,2.74-9.45,6.21-13.34.39-.44.83-.88,1.33-1.33.12-.1.24-.2.36-.3l.09-.08c.33-.28.66-.54,1-.78.18-.13.36-.25.54-.37.35-.23.69-.44,1.04-.63.23-.13.4-.22.57-.31.38-.19.77-.37,1.16-.54.1-.05.23-.11.36-.16.05-.02.11-.04.17-.06,1.42-.55,2.99-.95,4.61-1.16,1.03-.13,2.11-.2,3.2-.19,4.73.04,9.76,1.51,13.79,4.02,10.33,6.41,8.8,16.82,7.56,25.18-.33,2.23-.64,4.33-.77,6.38-.49,7.52,2.09,14.81,4.81,22.52,2.57,7.28,5.24,14.81,5.26,22.81.03,10.98-5.35,21.97-14.06,28.67-6.19,4.76-14.39,7.23-23.72,7.15h0Z" />
    <polyline class="cls-4" points="74.4 36.38 73.24 40.03 76.96 41.69" />
    <line class="cls-17" x1="56.9" y1="47.35" x2="76.43" y2="38.6" />
    <path class="cls-31"
      d="M82.07,98.12c-1.82,3.21-4.22,6.09-7.01,8.51-4.13,3.59-9.28,6.04-14.72,7.65-5.01,1.49-10.25,2.29-15.18,2.63-9.77.66-20.12-1.14-27.71-7.74-7.62-6.62-11.91-16.88-11.28-26.95.98-15.61,12.86-29.21,12.77-44.86-.06-10.32-4.25-22.27,7.06-28.39,4.37-2.37,10.07-3.47,15.16-2.49,3.52.67,6.74,2.34,9.04,5.25,4.21,5.34,4.37,12.72,6.59,19.15,5.12,14.79,20.84,23.66,26.95,38.07,3.94,9.29,3.31,20.39-1.68,29.17Z" />
    <path class="cls-19"
      d="M82.07,98.12c-1.82,3.21-4.22,6.09-7.01,8.51-4.13,3.59-9.28,6.04-14.72,7.65-9.7.62-19.94-1.21-27.46-7.75-7.62-6.62-11.91-16.88-11.28-26.95.98-15.62,12.86-29.21,12.77-44.86-.05-8.81-5.41-21.6,2.08-26.52,2.58-1.7,5.89-1.76,8.68-.44,1.93.91,3.66,2.21,5.06,3.98,4.21,5.34,4.37,12.72,6.59,19.15,5.12,14.79,20.84,23.66,26.95,38.07,3.94,9.29,3.31,20.39-1.68,29.17Z" />
    <path class="cls-1"
      d="M75.12,72.36c2.08,12.19-4.27,23.44-14.19,25.14-9.92,1.7-19.65-6.81-21.73-18.99-2.08-12.19,4.27-23.44,14.19-25.14,9.92-1.7,19.65,6.81,21.73,18.99Z" />
    <path class="cls-21"
      d="M42.8,22.85c.75,4.39-.37,8.24-2.5,8.6-2.13.36-4.47-2.9-5.22-7.28-.75-4.39.37-8.24,2.5-8.6,2.13-.36,4.47,2.9,5.22,7.28Z" />
    <path class="cls-27"
      d="M41.84,23.01c.65,3.81-.12,7.12-1.71,7.39-1.6.27-3.42-2.59-4.07-6.4-.65-3.81.12-7.12,1.71-7.39.99-.17,2.06.86,2.89,2.58l-1.81,1.93,2.43-.39c.23.71.43,1.47.56,2.29Z" />
    <path class="cls-28"
      d="M52.43,21.2c.75,4.39-.37,8.24-2.5,8.6-2.13.36-4.47-2.9-5.22-7.28-.75-4.39.37-8.24,2.5-8.6s4.47,2.9,5.22,7.28Z" />
    <path class="cls-22"
      d="M51.46,21.36c.65,3.81-.12,7.12-1.71,7.39-1.6.27-3.42-2.59-4.07-6.4-.65-3.81.12-7.12,1.71-7.39.99-.17,2.06.86,2.89,2.58l-1.81,1.93,2.43-.39c.23.71.43,1.47.56,2.29Z" />
    <path class="cls-3" d="M39.77,37.02c1.42,1.17,4.34,1.71,7.59,1.24,3.25-.47,5.9-1.82,6.93-3.35" />
    <path class="cls-10" d="M55.68,35.28c-.73-.26-1.41-.53-2.21-1.58" />
    <path class="cls-11" d="M38.48,37.77c.63-.45,1.2-.91,1.67-2.14" />
    <polyline class="cls-5" points="45.24 46.78 44.08 50.43 47.81 52.08" />
    <line class="cls-12" x1="27.74" y1="57.75" x2="47.28" y2="49" />
    <polyline class="cls-15" points="95.99 35.88 96.93 39.6 93.12 41.02" />
    <line class="cls-8" x1="112.8" y1="47.88" x2="93.83" y2="37.98" />
    <path class="cls-24"
      d="M82.09,96.45c1.63,3.32,3.85,6.33,6.49,8.91,3.91,3.83,8.9,6.58,14.23,8.52,4.91,1.79,10.1,2.9,14.99,3.53,9.71,1.25,20.15.06,28.12-6.07,8-6.15,12.9-16.14,12.87-26.23-.04-15.65-11.09-29.93-10.07-45.54.67-10.29,5.57-21.98-5.35-28.76-4.23-2.63-9.84-4.06-14.98-3.39-3.55.46-6.86,1.93-9.34,4.71-4.52,5.08-5.12,12.44-7.72,18.72-5.99,14.45-22.21,22.38-29.18,36.39-4.49,9.03-4.52,20.16-.07,29.22Z" />
    <path class="cls-32"
      d="M82.09,96.45c1.63,3.32,3.85,6.33,6.49,8.91,3.91,3.83,8.9,6.58,14.23,8.52,9.64,1.2,19.97-.02,27.87-6.1,8-6.15,12.9-16.14,12.87-26.23-.05-15.65-11.09-29.93-10.07-45.54.58-8.79,6.69-21.24-.5-26.6-2.48-1.85-5.77-2.11-8.64-.96-1.98.79-3.79,1.99-5.29,3.67-4.52,5.08-5.12,12.44-7.72,18.72-5.99,14.45-22.21,22.38-29.18,36.39-4.49,9.03-4.52,20.16-.07,29.22Z" />
    <path class="cls-29"
      d="M82.09,96.45c1.63,3.32,3.85,6.33,6.49,8.91,3.91,3.83,8.9,6.58,14.23,8.52,9.64,1.2,19.97-.02,27.87-6.1,8-6.15,12.9-16.14,12.87-26.23-.05-15.65-11.09-29.93-10.07-45.54.58-8.79,6.69-21.24-.5-26.6-2.48-1.85-5.77-2.11-8.64-.96-1.98.79-3.79,1.99-5.29,3.67-4.52,5.08-5.12,12.44-7.72,18.72-5.99,14.45-22.21,22.38-29.18,36.39-4.49,9.03-4.52,20.16-.07,29.22Z" />
    <ellipse class="cls-20" cx="108.32" cy="75.29" rx="22.39" ry="18.22"
      transform="translate(10.38 163.67) rotate(-76.87)" />
    <path class="cls-23"
      d="M113.92,22.81c-.06.26-.11.51-.16.77.35-.06.72-.1,1.1-.11,1.01-.05,2.07.05,3.16.3s2.08.64,2.97,1.13c.33.18.64.38.93.59.07-.25.13-.5.19-.76,1.09-4.66.13-8.86-2.13-9.38-2.26-.53-4.97,2.82-6.06,7.47Z" />
    <path class="cls-18"
      d="M114.94,23.05c-.03.14-.06.28-.09.42,1.01-.05,2.07.05,3.16.3s2.08.64,2.97,1.13c.04-.14.07-.27.1-.41.94-4.04.34-7.64-1.36-8.04-1.05-.24-2.27.79-3.27,2.58l1.82,2.18-2.58-.58c-.29.74-.55,1.55-.75,2.42Z" />
    <path class="cls-6" d="M121.91,25.48c-1.08-.76-2.41-1.37-3.9-1.71-1.49-.35-2.95-.4-4.26-.19" />
    <path class="cls-25"
      d="M126.08,25.85c-.06.26-.11.51-.16.77.35-.06.72-.1,1.1-.11,1.01-.05,2.07.05,3.16.3,1.09.25,2.08.64,2.97,1.13.33.18.64.38.93.59.07-.25.13-.5.19-.76,1.09-4.66.13-8.86-2.13-9.38-2.26-.53-4.97,2.82-6.06,7.47Z" />
    <path class="cls-30"
      d="M127.1,26.09c-.03.14-.06.28-.09.42,1.01-.05,2.07.05,3.16.3,1.09.25,2.08.64,2.97,1.13.04-.14.07-.27.1-.41.94-4.04.34-7.64-1.36-8.04-1.05-.24-2.27.79-3.27,2.58l1.82,2.18-2.58-.58c-.29.74-.55,1.55-.75,2.42Z" />
    <path class="cls-14" d="M134.07,28.52c-1.08-.76-2.41-1.37-3.9-1.71-1.49-.35-2.95-.4-4.26-.19" />
    <path class="cls-13" d="M115.76,29.5c.88,1.6,3.39,3.15,6.57,3.89,3.17.74,6.11.45,7.61-.59" />
    <path class="cls-7" d="M131.09,33.65c-.59-.5-1.11-1-1.47-2.26" />
    <path class="cls-9" d="M114.3,29.73c.75-.19,1.44-.4,2.32-1.37" />
    <polyline class="cls-2" points="121.58 47.32 122.52 51.04 118.7 52.47" />
    <line class="cls-16" x1="138.39" y1="59.32" x2="119.41" y2="49.42" />
  </g>
</svg>