<?xml version="1.0" encoding="UTF-8"?>
<svg id="Capa_2" xmlns="http://www.w3.org/2000/svg" xmlns:xlink="http://www.w3.org/1999/xlink"
  viewBox="0 0 144.05 137.12">
  <defs>
    <style>
      .cls-1 {
        stroke: url(#Degradado_sin_nombre_8-3);
      }

      .cls-1,
      .cls-2,
      .cls-3 {
        fill: none;
        stroke-linecap: round;
        stroke-linejoin: round;
        stroke-width: 3px;
      }

      .cls-4 {
        fill: url(#Degradado_sin_nombre_13-2);
      }

      .cls-5 {
        fill: url(#Degradado_sin_nombre_2-11);
      }

      .cls-6 {
        fill: url(#Degradado_sin_nombre_2-14);
      }

      .cls-7 {
        fill: url(#Degradado_sin_nombre_16);
      }

      .cls-8 {
        fill: url(#Degradado_sin_nombre_28);
      }

      .cls-2 {
        stroke: url(#Degradado_sin_nombre_8);
      }

      .cls-9 {
        fill: url(#Degradado_sin_nombre_28-2);
      }

      .cls-10 {
        fill: url(#Degradado_sin_nombre_35-2);
      }

      .cls-11 {
        fill: url(#Degradado_sin_nombre_2-21);
      }

      .cls-12 {
        fill: url(#Degradado_sin_nombre_2-4);
      }

      .cls-13 {
        fill: url(#Degradado_sin_nombre_2-20);
      }

      .cls-14 {
        fill: url(#Degradado_sin_nombre_2-12);
      }

      .cls-15 {
        fill: url(#Degradado_sin_nombre_2-8);
      }

      .cls-16 {
        fill: url(#Degradado_sin_nombre_2-7);
      }

      .cls-17 {
        fill: url(#Degradado_sin_nombre_2-15);
      }

      .cls-18 {
        fill: url(#Degradado_sin_nombre_35-3);
      }

      .cls-19 {
        fill: url(#Degradado_sin_nombre_2-6);
      }

      .cls-20 {
        fill: url(#Degradado_sin_nombre_2-9);
      }

      .cls-21 {
        fill: url(#Degradado_sin_nombre_2);
      }

      .cls-22 {
        fill: url(#Degradado_sin_nombre_2-10);
      }

      .cls-23 {
        fill: url(#Degradado_sin_nombre_38-2);
      }

      .cls-24 {
        fill: url(#Degradado_sin_nombre_2-19);
      }

      .cls-25 {
        fill: url(#Degradado_sin_nombre_2-13);
      }

      .cls-26 {
        fill: url(#Degradado_sin_nombre_35);
      }

      .cls-3 {
        stroke: url(#Degradado_sin_nombre_8-2);
      }

      .cls-27 {
        fill: url(#Degradado_sin_nombre_13);
      }

      .cls-28 {
        fill: url(#Degradado_sin_nombre_21);
      }

      .cls-29 {
        fill: url(#Degradado_sin_nombre_2-5);
      }

      .cls-30 {
        fill: url(#Degradado_sin_nombre_2-3);
      }

      .cls-31 {
        fill: url(#Degradado_sin_nombre_2-17);
      }

      .cls-32 {
        fill: url(#Degradado_sin_nombre_2-18);
      }

      .cls-33 {
        fill: url(#Degradado_sin_nombre_2-16);
      }

      .cls-34 {
        fill: url(#Degradado_sin_nombre_2-2);
      }

      .cls-35 {
        fill: url(#Degradado_sin_nombre_31);
      }

      .cls-36 {
        fill: url(#Degradado_sin_nombre_38);
      }
    </style>
    <linearGradient id="Degradado_sin_nombre_2" x1="148.35" y1="666.35" x2="254.56" y2="543.91"
      gradientTransform="translate(-28.69 -561.46) rotate(9.22)" gradientUnits="userSpaceOnUse">
      <stop offset="0" stop-color="#c9ccd1" />
      <stop offset="1" stop-color="#fff" />
    </linearGradient>
    <linearGradient id="Degradado_sin_nombre_21" x1="-79.7" y1="228.56" x2="51.02" y2="228.56"
      gradientTransform="translate(111.25 -157.91) rotate(6.5)" gradientUnits="userSpaceOnUse">
      <stop offset="0" stop-color="#0a0a0a" />
      <stop offset="1" stop-color="#1f1f1f" />
    </linearGradient>
    <linearGradient id="Degradado_sin_nombre_35" x1="5729.2" y1="2457.42" x2="5774" y2="2351.17"
      gradientTransform="translate(5690.36 2752.43) rotate(-131.79) scale(1 -1)" gradientUnits="userSpaceOnUse">
      <stop offset="0" stop-color="#0087ff" />
      <stop offset="1" stop-color="#0ed6ff" />
    </linearGradient>
    <linearGradient id="Degradado_sin_nombre_31" x1="5759.33" y1="2406.66" x2="5759.41" y2="2421.93"
      gradientTransform="translate(5690.36 2752.43) rotate(-131.79) scale(1 -1)" gradientUnits="userSpaceOnUse">
      <stop offset="0" stop-color="#ff00e6" />
      <stop offset="1" stop-color="#3700ff" />
    </linearGradient>
    <linearGradient id="Degradado_sin_nombre_35-2" x1="5743.21" y1="2343.55" x2="5748.42" y2="2331.2"
      xlink:href="#Degradado_sin_nombre_35" />
    <linearGradient id="Degradado_sin_nombre_16" x1="5744.57" y1="2474.27" x2="5746.14" y2="2418.45"
      gradientTransform="translate(5690.36 2752.43) rotate(-131.79) scale(1 -1)" gradientUnits="userSpaceOnUse">
      <stop offset="0" stop-color="#3700ff" />
      <stop offset="1" stop-color="#ff00e6" />
    </linearGradient>
    <linearGradient id="Degradado_sin_nombre_2-2" x1="5724.14" y1="2403.84" x2="5728.18" y2="2403.84"
      gradientTransform="translate(5690.36 2752.43) rotate(-131.79) scale(1 -1)" xlink:href="#Degradado_sin_nombre_2" />
    <linearGradient id="Degradado_sin_nombre_2-3" x1="5751.64" y1="2390.43" x2="5755.68" y2="2390.43"
      gradientTransform="translate(5690.36 2752.43) rotate(-131.79) scale(1 -1)" xlink:href="#Degradado_sin_nombre_2" />
    <linearGradient id="Degradado_sin_nombre_2-4" x1="5743.58" y1="2403.21" x2="5746.65" y2="2403.21"
      gradientTransform="translate(5690.36 2752.43) rotate(-131.79) scale(1 -1)" xlink:href="#Degradado_sin_nombre_2" />
    <linearGradient id="Degradado_sin_nombre_2-5" x1="5743.93" y1="2378.63" x2="5747" y2="2378.63"
      gradientTransform="translate(5690.36 2752.43) rotate(-131.79) scale(1 -1)" xlink:href="#Degradado_sin_nombre_2" />
    <linearGradient id="Degradado_sin_nombre_2-6" x1="5737.25" y1="2391.42" x2="5739.04" y2="2391.42"
      gradientTransform="translate(5690.36 2752.43) rotate(-131.79) scale(1 -1)" xlink:href="#Degradado_sin_nombre_2" />
    <linearGradient id="Degradado_sin_nombre_2-7" x1="5761.13" y1="2399.23" x2="5762.91" y2="2399.23"
      gradientTransform="translate(5690.36 2752.43) rotate(-131.79) scale(1 -1)" xlink:href="#Degradado_sin_nombre_2" />
    <linearGradient id="Degradado_sin_nombre_2-8" x1="5720.72" y1="2449.23" x2="5727.67" y2="2449.23"
      gradientTransform="translate(5690.36 2752.43) rotate(-131.79) scale(1 -1)" xlink:href="#Degradado_sin_nombre_2" />
    <linearGradient id="Degradado_sin_nombre_2-9" x1="5761.94" y1="2452.31" x2="5766.54" y2="2452.31"
      gradientTransform="translate(5690.36 2752.43) rotate(-131.79) scale(1 -1)" xlink:href="#Degradado_sin_nombre_2" />
    <linearGradient id="Degradado_sin_nombre_2-10" x1="5742.59" y1="2442.41" x2="5746.64" y2="2442.41"
      gradientTransform="translate(5690.36 2752.43) rotate(-131.79) scale(1 -1)" xlink:href="#Degradado_sin_nombre_2" />
    <linearGradient id="Degradado_sin_nombre_2-11" x1="5779.26" y1="2446.48" x2="5783.31" y2="2446.48"
      gradientTransform="translate(5690.36 2752.43) rotate(-131.79) scale(1 -1)" xlink:href="#Degradado_sin_nombre_2" />
    <linearGradient id="Degradado_sin_nombre_2-12" x1="5707.16" y1="2428.71" x2="5711.86" y2="2428.71"
      gradientTransform="translate(5690.36 2752.43) rotate(-131.79) scale(1 -1)" xlink:href="#Degradado_sin_nombre_2" />
    <linearGradient id="Degradado_sin_nombre_2-13" x1="5735.9" y1="2458.65" x2="5738.97" y2="2458.65"
      gradientTransform="translate(5690.36 2752.43) rotate(-131.79) scale(1 -1)" xlink:href="#Degradado_sin_nombre_2" />
    <linearGradient id="Degradado_sin_nombre_2-14" x1="5756.37" y1="2435.48" x2="5759.44" y2="2435.48"
      gradientTransform="translate(5690.36 2752.43) rotate(-131.79) scale(1 -1)" xlink:href="#Degradado_sin_nombre_2" />
    <linearGradient id="Degradado_sin_nombre_2-15" x1="5763.31" y1="2467" x2="5765.09" y2="2467"
      gradientTransform="translate(5690.36 2752.43) rotate(-131.79) scale(1 -1)" xlink:href="#Degradado_sin_nombre_2" />
    <linearGradient id="Degradado_sin_nombre_2-16" x1="5723" y1="2464.71" x2="5724.78" y2="2464.71"
      gradientTransform="translate(5690.36 2752.43) rotate(-131.79) scale(1 -1)" xlink:href="#Degradado_sin_nombre_2" />
    <linearGradient id="Degradado_sin_nombre_2-17" x1="5750.14" y1="2452.75" x2="5751.92" y2="2452.75"
      gradientTransform="translate(5690.36 2752.43) rotate(-131.79) scale(1 -1)" xlink:href="#Degradado_sin_nombre_2" />
    <linearGradient id="Degradado_sin_nombre_2-18" x1="5771.02" y1="2429.85" x2="5772.81" y2="2429.85"
      gradientTransform="translate(5690.36 2752.43) rotate(-131.79) scale(1 -1)" xlink:href="#Degradado_sin_nombre_2" />
    <linearGradient id="Degradado_sin_nombre_2-19" x1="5715.65" y1="2419.21" x2="5717.44" y2="2419.21"
      gradientTransform="translate(5690.36 2752.43) rotate(-131.79) scale(1 -1)" xlink:href="#Degradado_sin_nombre_2" />
    <linearGradient id="Degradado_sin_nombre_38" x1="5740.56" y1="2341.65" x2="5748.51" y2="2322.8"
      gradientTransform="translate(5690.36 2752.43) rotate(-131.79) scale(1 -1)" gradientUnits="userSpaceOnUse">
      <stop offset="0" stop-color="#ff560e" />
      <stop offset="1" stop-color="#ff8300" />
    </linearGradient>
    <linearGradient id="Degradado_sin_nombre_38-2" x1="5743" y1="2335.69" x2="5748.64" y2="2322.32"
      xlink:href="#Degradado_sin_nombre_38" />
    <linearGradient id="Degradado_sin_nombre_35-3" x1="5742.02" y1="2349.32" x2="5747.97" y2="2335.22"
      xlink:href="#Degradado_sin_nombre_35" />
    <linearGradient id="Degradado_sin_nombre_28" x1="-62.93" y1="221.7" x2="-48.07" y2="221.7"
      gradientTransform="translate(111.25 -157.91) rotate(6.5)" gradientUnits="userSpaceOnUse">
      <stop offset="0" stop-color="#dfdfdf" />
      <stop offset="1" stop-color="#f4f4f4" />
    </linearGradient>
    <linearGradient id="Degradado_sin_nombre_28-2" x1="-69.23" y1="231.22" x2="-64.19" y2="231.22"
      xlink:href="#Degradado_sin_nombre_28" />
    <linearGradient id="Degradado_sin_nombre_8" x1="1564.39" y1="2469.09" x2="1629.89" y2="2469.09"
      gradientTransform="translate(821.04 -2730.98) rotate(48.43)" gradientUnits="userSpaceOnUse">
      <stop offset="0" stop-color="#141414" />
      <stop offset="1" stop-color="#141414" />
    </linearGradient>
    <linearGradient id="Degradado_sin_nombre_8-2" x1="1561.39" y1="2452.27" x2="1570.4" y2="2452.27"
      xlink:href="#Degradado_sin_nombre_8" />
    <linearGradient id="Degradado_sin_nombre_8-3" x1="-562.96" y1="2451.86" x2="-553.95" y2="2451.86"
      gradientTransform="translate(1530.64 -1930.18) rotate(-131.57) scale(1 -1)"
      xlink:href="#Degradado_sin_nombre_8" />
    <linearGradient id="Degradado_sin_nombre_2-20" x1="1571.65" y1="2452.42" x2="1571.65" y2="2415.83"
      gradientTransform="translate(811.06 -2718) rotate(48.19)" xlink:href="#Degradado_sin_nombre_2" />
    <linearGradient id="Degradado_sin_nombre_13" x1="1574.63" y1="2450.03" x2="1574.63" y2="2418.26"
      gradientTransform="translate(811.06 -2718) rotate(48.19)" gradientUnits="userSpaceOnUse">
      <stop offset="0" stop-color="#1f1f1f" />
      <stop offset="1" stop-color="#0a0a0a" />
    </linearGradient>
    <linearGradient id="Degradado_sin_nombre_2-21" x1="1595.58" y1="2452.42" x2="1595.58" y2="2415.83"
      gradientTransform="translate(811.06 -2718) rotate(48.19)" xlink:href="#Degradado_sin_nombre_2" />
    <linearGradient id="Degradado_sin_nombre_13-2" x1="1598.56" y1="2450.04" x2="1598.56" y2="2418.26"
      xlink:href="#Degradado_sin_nombre_13" />
  </defs>
  <g id="OBJECTS">
    <path class="cls-21"
      d="M42.6,136.81C18.63,134.08-.03,113.14,0,89.01c.03-19.26,12.12-37.26,29.97-44.49,3.85-1.57,7.93-2.64,12.11-3.16,3.68-.47,7.44-.5,11.16-.1,12.32,1.33,24.71-3.21,33.13-12.15,8.25-8.75,13.37-16.02,14.9-18.28.05-.09.09-.17.14-.25.44-.75.94-1.37,1.54-1.91.64-.57,1.37-1.03,2.17-1.37l.86-1.72c.05-.16.11-.31.17-.47.07-.2.16-.4.24-.58.02-.03.03-.07.05-.1.49-.97,1.09-1.75,1.83-2.41,1.74-1.55,4.11-2.25,6.67-1.96.77.09,1.58.27,2.41.54,4.3,1.39,8.81,5.06,11.83,7.89,1.42,1.34,2.84,2.79,4.21,4.33,2.33,2.61,4.46,5.38,6.15,8.01,5.35,8.32,5.94,14.44,1.75,18.18-.22.2-.46.39-.73.56-.55.39-1.13.7-1.74.93-.23.09-.53.18-.81.25-.16.04-.31.08-.47.11l-1.82.67c-.42.75-.96,1.43-1.6,2-.62.56-1.32.99-2.12,1.34-.08.03-.16.07-.24.1-2.46,1.3-10.29,5.63-19.8,12.76-9.87,7.41-15.77,19.13-15.78,31.36,0,6.8-1.48,13.64-4.26,19.79-2.99,6.63-7.36,12.39-13,17.1-10,8.37-23.24,12.31-36.32,10.82Z" />
    <path class="cls-28"
      d="M42.96,133.64c-23.27-2.65-40.98-23.59-39.71-46.99.93-17.11,12.03-32.75,27.92-39.18,3.6-1.47,7.41-2.46,11.31-2.95,3.44-.44,6.95-.47,10.43-.09,13.31,1.43,26.69-3.47,35.79-13.13,8.54-9.06,13.77-16.51,15.34-18.85.05-.1.09-.18.14-.27.27-.46.56-.82.91-1.13.49-.44,1.23-.91,2.29-1.11l1.58-3.16c.05-.18.11-.36.18-.53.04-.13.09-.25.15-.36.32-.63.68-1.1,1.11-1.48.75-.67,2.09-1.42,4.19-1.18.56.06,1.17.2,1.79.4,2.92.94,6.69,3.49,10.62,7.18,1.36,1.28,2.71,2.66,4.02,4.13,2.22,2.48,4.24,5.12,5.84,7.61,4.37,6.8,5.15,11.54,2.31,14.08-.12.11-.26.21-.41.31-.34.24-.7.44-1.08.58-.13.05-.32.1-.48.14-.17.05-.35.09-.53.12l-3.32,1.22c-.32,1.02-.87,1.71-1.36,2.15-.36.32-.77.58-1.25.78-.09.04-.18.07-.28.11-2.54,1.33-10.57,5.74-20.42,13.13-10.67,8.01-17.05,20.68-17.05,33.91,0,6.35-1.38,12.74-3.98,18.48-2.79,6.19-6.87,11.56-12.14,15.96-9.34,7.81-21.7,11.49-33.92,10.1Z" />
    <path class="cls-26"
      d="M20.29,57.97c-3.16,2.82-5.79,6.02-7.88,9.46,0,0,0,0,0,0-9.61,15.81-7.86,36.83,5.91,50.89,15.13,15.44,39.93,16.64,56.5,2.77,5.01-4.19,8.78-9.28,11.28-14.83,2.45-5.43,3.69-11.29,3.69-17.17,0-14.34,6.85-27.86,18.32-36.46,10.39-7.8,18.74-12.31,21.08-13.52.26-.06.48-.17.66-.33,1.97-1.76-1.5-8.87-7.76-15.87-6.25-7-12.93-11.25-14.9-9.48-.18.16-.32.37-.4.62-1.47,2.2-6.88,9.99-15.79,19.44-9.88,10.48-24.14,15.66-38.45,14.11-3.22-.35-6.48-.32-9.69.09-3.58.45-7.12,1.36-10.51,2.74-4.32,1.75-8.4,4.26-12.07,7.54Z" />
    <path class="cls-35"
      d="M20.29,57.97c-3.16,2.82-5.79,6.02-7.88,9.46,0,0,0,0,0,0,.85,3.27,2.59,6.35,4.83,8.9,3.26,3.72,7.52,6.46,11.95,8.66,11.11,5.51,24.94,7.98,37.29,6.9-.5-11.33-4.41-22.48-11.09-31.65-3.49-4.8-7.75-9.04-12.52-12.56-3.58.45-7.12,1.36-10.51,2.74-4.32,1.75-8.4,4.26-12.07,7.54Z" />
    <path class="cls-10"
      d="M107.22,13.42c-1.97,1.76,1.5,8.87,7.76,15.87,6.26,7,12.93,11.25,14.9,9.48,1.97-1.76-1.5-8.87-7.76-15.87-6.26-7-12.93-11.25-14.9-9.48Z" />
    <path class="cls-7"
      d="M20.29,57.97c-17.67,15.79-18.74,43.24-1.96,60.35,15.13,15.44,39.93,16.64,56.5,2.77,5.01-4.19,8.78-9.28,11.28-14.83-.76-3.4-2.35-6.67-4.45-9.46-3.94-5.26-9.5-9.06-15.25-12.24s-11.79-5.84-17.33-9.36c-5.55-3.52-10.68-8.03-13.61-13.91-1.69-3.4-2.58-7.09-3.13-10.85-4.32,1.75-8.4,4.26-12.07,7.54Z" />
    <path class="cls-34"
      d="M82.44,83.69c.38.01.76-.06,1.11-.21.13-.05.24.08.18.2-.19.33-.3.71-.33,1.08-.04.47.06.95.27,1.36.06.11-.05.24-.17.19-.88-.36-1.88-.3-2.79.05-.12.05-.23-.08-.17-.19.45-.86.62-1.85.36-2.76-.03-.12.1-.21.21-.15.39.26.86.41,1.33.42Z" />
    <path class="cls-30"
      d="M74.12,54.25c.38.01.76-.06,1.11-.21.13-.05.24.08.18.2-.19.33-.3.71-.33,1.08-.04.47.06.95.27,1.36.06.11-.05.24-.17.19-.88-.36-1.88-.3-2.79.05-.12.05-.23-.08-.17-.19.45-.86.62-1.85.36-2.76-.03-.12.1-.21.21-.15.39.26.86.41,1.33.42Z" />
    <path class="cls-12"
      d="M70.21,69.44c.29,0,.58-.04.84-.16.1-.04.18.06.13.15-.14.25-.23.54-.25.82-.03.36.04.72.21,1.04.04.08-.04.18-.13.14-.67-.27-1.43-.23-2.11.04-.09.03-.17-.06-.13-.14.34-.65.47-1.4.27-2.1-.03-.09.08-.16.16-.11.3.2.65.31,1.01.32Z" />
    <path class="cls-29"
      d="M88.31,52.8c.29,0,.58-.04.84-.16.1-.04.18.06.13.15-.14.25-.23.54-.25.82-.03.36.04.72.21,1.03.04.08-.04.18-.13.15-.67-.27-1.43-.23-2.11.04-.09.03-.17-.06-.13-.14.34-.65.47-1.4.27-2.1-.03-.09.08-.16.16-.11.3.2.65.31,1.01.32Z" />
    <path class="cls-19"
      d="M83.55,67.17c.17,0,.34-.03.49-.09.06-.02.11.03.08.09-.08.15-.13.31-.15.48-.02.21.03.42.12.6.03.05-.02.1-.07.08-.39-.16-.83-.13-1.23.02-.05.02-.1-.03-.07-.08.2-.38.27-.81.16-1.22-.01-.05.05-.09.09-.06.17.11.38.18.58.19Z" />
    <path class="cls-16"
      d="M61.82,54.57c.17,0,.34-.03.49-.09.06-.02.11.03.08.09-.08.15-.13.31-.15.48-.02.21.03.42.12.6.02.05-.02.1-.07.08-.39-.16-.83-.13-1.23.02-.05.02-.1-.03-.07-.08.2-.38.27-.81.16-1.22-.01-.05.05-.09.09-.06.17.11.38.18.58.19Z" />
    <path class="cls-15"
      d="M50.13,114.51c.65.02,1.31-.1,1.91-.36.22-.09.42.13.3.34-.32.57-.51,1.21-.57,1.86-.07.81.1,1.63.47,2.35.1.19-.09.41-.29.33-1.52-.61-3.24-.52-4.79.08-.2.08-.39-.13-.29-.33.77-1.48,1.06-3.18.62-4.75-.06-.21.18-.37.36-.25.67.45,1.47.7,2.28.73Z" />
    <path class="cls-20"
      d="M20.97,87.43c.43.01.87-.07,1.26-.23.14-.06.28.09.2.22-.21.38-.34.8-.37,1.23-.04.53.07,1.08.31,1.55.06.13-.06.27-.19.22-1-.41-2.14-.34-3.17.06-.13.05-.26-.09-.19-.22.51-.98.7-2.1.41-3.14-.04-.14.12-.24.24-.17.45.29.97.47,1.51.48Z" />
    <path class="cls-22"
      d="M41.4,95.63c.38.01.76-.06,1.11-.21.13-.05.24.08.18.2-.19.33-.3.71-.33,1.08-.04.47.06.95.27,1.36.06.11-.05.24-.17.19-.88-.36-1.88-.3-2.79.05-.12.05-.23-.08-.17-.19.45-.86.62-1.85.36-2.76-.03-.12.1-.21.21-.15.39.26.86.41,1.33.42Z" />
    <path class="cls-5"
      d="M13.92,71.01c.38.01.76-.06,1.11-.21.13-.05.24.08.18.2-.19.33-.3.71-.33,1.08-.04.47.06.95.27,1.36.06.11-.05.24-.17.19-.88-.36-1.88-.3-2.79.05-.12.05-.23-.08-.17-.19.45-.86.62-1.85.36-2.76-.03-.12.1-.21.21-.15.39.26.86.41,1.33.42Z" />
    <path class="cls-14"
      d="M75.05,112.48c.44.01.88-.07,1.29-.24.15-.06.28.09.2.23-.22.38-.35.82-.38,1.26-.04.54.07,1.1.32,1.58.07.13-.06.28-.2.22-1.02-.41-2.19-.35-3.24.06-.14.05-.26-.09-.2-.22.52-1,.72-2.15.42-3.21-.04-.14.12-.25.24-.17.45.3.99.48,1.54.49Z" />
    <path class="cls-25"
      d="M33.99,112.11c.29,0,.58-.05.84-.16.1-.04.18.06.13.15-.14.25-.23.54-.25.82-.03.36.04.72.21,1.03.04.08-.04.18-.13.15-.67-.27-1.43-.23-2.11.04-.09.03-.17-.06-.13-.14.34-.65.47-1.4.27-2.1-.03-.09.08-.16.16-.11.3.2.65.31,1.01.32Z" />
    <path class="cls-6"
      d="M37.63,81.4c.29,0,.58-.04.84-.16.1-.04.18.06.13.15-.14.25-.23.54-.25.82-.03.36.05.72.21,1.03.04.08-.04.18-.13.15-.67-.27-1.43-.23-2.11.04-.09.03-.17-.06-.13-.14.34-.65.47-1.4.27-2.1-.03-.09.08-.16.16-.11.3.2.65.31,1.01.32Z" />
    <path class="cls-17"
      d="M9.84,98.11c.17,0,.34-.03.49-.09.06-.02.11.03.08.09-.08.15-.13.31-.15.48-.02.21.03.42.12.6.03.05-.02.11-.07.08-.39-.16-.83-.13-1.23.02-.05.02-.1-.03-.07-.08.2-.38.27-.81.16-1.22-.01-.05.05-.09.09-.06.17.11.38.18.58.19Z" />
    <path class="cls-33"
      d="M38.4,126.64c.17,0,.34-.03.49-.09.06-.02.11.03.08.09-.08.15-.13.31-.15.48-.02.21.03.42.12.6.03.05-.02.11-.07.08-.39-.16-.83-.13-1.23.02-.05.02-.1-.03-.07-.08.2-.38.27-.81.16-1.22-.01-.05.05-.09.09-.06.17.11.38.18.58.19Z" />
    <path class="cls-31"
      d="M29.24,98.43c.17,0,.34-.03.49-.09.06-.02.11.03.08.09-.08.15-.13.31-.15.48-.02.21.03.42.12.6.03.05-.02.1-.07.08-.39-.16-.83-.13-1.23.02-.05.02-.1-.03-.07-.08.2-.38.27-.81.16-1.22-.01-.05.05-.09.09-.06.17.11.38.18.58.19Z" />
    <path class="cls-32"
      d="M32.4,67.6c.17,0,.34-.03.49-.09.06-.02.11.03.08.09-.08.15-.13.31-.15.48-.02.21.03.42.12.6.03.05-.02.1-.07.08-.39-.16-.83-.13-1.23.02-.05.02-.1-.03-.07-.08.2-.38.27-.81.16-1.22-.01-.05.05-.09.09-.06.17.11.38.18.58.19Z" />
    <path class="cls-24"
      d="M77.23,101.79c.17,0,.34-.03.49-.09.06-.02.11.03.08.09-.08.15-.13.31-.15.48-.02.21.03.42.12.6.03.05-.02.11-.07.08-.39-.16-.83-.13-1.23.02-.05.02-.1-.03-.07-.08.2-.38.27-.81.16-1.22-.01-.05.05-.09.09-.06.17.11.38.18.58.19Z" />
    <path class="cls-36"
      d="M112.51,6.8c-.29.26-.47.63-.55,1.09l-2.63,5.25-2.15,4.3c1.1,3.13,3.91,7.51,7.79,11.85,3.88,4.34,7.92,7.62,10.9,9.07l4.52-1.66,5.51-2.02c.46-.03.86-.16,1.15-.42,2.14-1.91-1.63-9.61-8.4-17.19-6.78-7.58-14-12.18-16.14-10.27Z" />
    <path class="cls-23"
      d="M112.51,6.8c-2.14,1.91,1.63,9.6,8.4,17.19,6.78,7.58,14,12.18,16.14,10.27,2.14-1.91-1.63-9.6-8.4-17.19-6.78-7.58-14-12.18-16.14-10.27Z" />
    <path class="cls-18"
      d="M107.18,17.44l-2.16,4.3c-1.42,1.27,1.08,6.4,5.59,11.44,4.51,5.05,9.32,8.1,10.74,6.83l4.51-1.66c-2.98-1.44-7.02-4.73-10.9-9.07-3.88-4.34-6.68-8.72-7.79-11.85Z" />
    <path class="cls-8"
      d="M24.65,56.95c-.52.46-1.04.97-1.31,1.61-.27.65-.23,1.47.27,1.96.79.77,2.09.33,3.08-.15,2.76-1.34,5.52-2.68,8.28-4.02,1.57-.76,5.4-2.3,3.18-4.51-1.68-1.67-4.99.07-6.75.83-2.45,1.07-4.74,2.51-6.74,4.28Z" />
    <path class="cls-9"
      d="M16.31,64.7c-.27.69-.32,1.58.23,2.08.4.37,1.02.41,1.53.24.51-.17.95-.52,1.36-.88.92-.8,3.39-3.81,1.17-4.6-1.72-.61-3.76,1.84-4.29,3.16Z" />
    <path class="cls-2" d="M65.79,115.26c-12.91,11.45-32.66,10.26-44.11-2.65-11.45-12.91-10.26-32.66,2.65-44.11" />
    <path class="cls-3" d="M23.38,65.32s.24,3.74,4.35,4.17" />
    <path class="cls-1" d="M68.83,116.58s-3.68-.69-3.62-4.82" />
    <path class="cls-13"
      d="M50.98,83.44c-7.46,6.67-16.36,8.88-19.89,4.94-3.53-3.94-.34-12.55,7.12-19.22,7.46-6.67,16.36-8.88,19.89-4.94,3.53,3.94.34,12.55-7.12,19.22Z" />
    <path class="cls-27"
      d="M50.99,83.43c-6.48,5.79-13.7,8.29-16.13,5.57-2.43-2.72.85-9.62,7.33-15.41,6.48-5.79,13.69-8.29,16.12-5.57,1.5,1.68.82,4.96-1.45,8.59l-5.84-1.15,3.65,4.15c-1.07,1.29-2.3,2.57-3.68,3.81Z" />
    <path class="cls-11"
      d="M66.94,101.27c-7.46,6.67-16.36,8.88-19.89,4.94-3.53-3.94-.34-12.55,7.12-19.22,7.46-6.67,16.36-8.88,19.89-4.94,3.53,3.94.34,12.55-7.12,19.22Z" />
    <path class="cls-4"
      d="M66.94,101.27c-6.48,5.79-13.7,8.29-16.13,5.57-2.43-2.72.85-9.62,7.33-15.41,6.48-5.79,13.69-8.29,16.12-5.57,1.5,1.68.82,4.96-1.45,8.59l-5.84-1.15,3.65,4.15c-1.07,1.29-2.3,2.57-3.68,3.81Z" />
  </g>
</svg>