<?xml version="1.0" encoding="UTF-8"?>
<svg id="Capa_2" xmlns="http://www.w3.org/2000/svg" xmlns:xlink="http://www.w3.org/1999/xlink"
  viewBox="0 0 164.84 142.73">
  <defs>
    <style>
      .cls-1 {
        fill: url(#Degradado_sin_nombre_2-26);
      }

      .cls-2 {
        fill: url(#Degradado_sin_nombre_2-22);
      }

      .cls-3 {
        stroke: url(#Degradado_sin_nombre_8-3);
      }

      .cls-3,
      .cls-4,
      .cls-5,
      .cls-6 {
        fill: none;
      }

      .cls-3,
      .cls-4,
      .cls-6 {
        stroke-linecap: round;
        stroke-linejoin: round;
        stroke-width: 3px;
      }

      .cls-7 {
        fill: url(#Degradado_sin_nombre_2-23);
      }

      .cls-8 {
        fill: url(#Degradado_sin_nombre_2-11);
      }

      .cls-9 {
        fill: url(#Degradado_sin_nombre_2-14);
      }

      .cls-10 {
        fill: url(#Degradado_sin_nombre_12-3);
      }

      .cls-11 {
        fill: url(#Degradado_sin_nombre_15-2);
      }

      .cls-4 {
        stroke: url(#Degradado_sin_nombre_8);
      }

      .cls-12 {
        fill: url(#Degradado_sin_nombre_15-5);
      }

      .cls-13 {
        fill: url(#Degradado_sin_nombre_2-24);
      }

      .cls-14 {
        fill: url(#Degradado_sin_nombre_15-6);
      }

      .cls-15 {
        fill: url(#Degradado_sin_nombre_2-21);
      }

      .cls-16 {
        fill: url(#Degradado_sin_nombre_15-4);
      }

      .cls-17 {
        fill: url(#Degradado_sin_nombre_2-4);
      }

      .cls-18 {
        fill: url(#Degradado_sin_nombre_2-20);
      }

      .cls-19 {
        fill: url(#Degradado_sin_nombre_2-12);
      }

      .cls-20 {
        fill: url(#Degradado_sin_nombre_2-8);
      }

      .cls-21 {
        fill: url(#Degradado_sin_nombre_2-7);
      }

      .cls-22 {
        fill: url(#Degradado_sin_nombre_2-15);
      }

      .cls-23 {
        fill: url(#Degradado_sin_nombre_2-6);
      }

      .cls-24 {
        fill: url(#Degradado_sin_nombre_15-7);
      }

      .cls-25 {
        fill: url(#Degradado_sin_nombre_2-9);
      }

      .cls-26 {
        fill: url(#Degradado_sin_nombre_2);
      }

      .cls-27 {
        fill: url(#Degradado_sin_nombre_2-10);
      }

      .cls-28 {
        fill: url(#Degradado_sin_nombre_2-19);
      }

      .cls-29 {
        fill: url(#Degradado_sin_nombre_2-13);
      }

      .cls-6 {
        stroke: url(#Degradado_sin_nombre_8-2);
      }

      .cls-30 {
        fill: url(#Degradado_sin_nombre_13);
      }

      .cls-31 {
        fill: url(#Degradado_sin_nombre_29-2);
      }

      .cls-32 {
        fill: url(#Degradado_sin_nombre_2-27);
      }

      .cls-33 {
        fill: url(#Degradado_sin_nombre_2-5);
      }

      .cls-34 {
        fill: url(#Degradado_sin_nombre_3);
      }

      .cls-35 {
        fill: url(#Degradado_sin_nombre_15-3);
      }

      .cls-36 {
        fill: url(#Degradado_sin_nombre_2-3);
      }

      .cls-37 {
        fill: url(#Degradado_sin_nombre_2-17);
      }

      .cls-38 {
        fill: url(#Degradado_sin_nombre_2-18);
      }

      .cls-39 {
        fill: url(#Degradado_sin_nombre_2-16);
      }

      .cls-40 {
        fill: url(#Degradado_sin_nombre_12-2);
      }

      .cls-41 {
        fill: url(#Degradado_sin_nombre_15);
      }

      .cls-42 {
        fill: url(#Degradado_sin_nombre_2-25);
      }

      .cls-43 {
        fill: url(#Degradado_sin_nombre_2-2);
      }

      .cls-44 {
        fill: url(#Degradado_sin_nombre_29);
      }

      .cls-45 {
        clip-path: url(#clippath);
      }

      .cls-46 {
        fill: url(#Degradado_sin_nombre_12);
      }
    </style>
    <linearGradient id="Degradado_sin_nombre_13" x1="104.13" y1="110.15" x2="114.35" y2="110.15"
      gradientTransform="translate(-3.64 10.74) rotate(-.26)" gradientUnits="userSpaceOnUse">
      <stop offset="0" stop-color="#1f1f1f" />
      <stop offset="1" stop-color="#0a0a0a" />
    </linearGradient>
    <linearGradient id="Degradado_sin_nombre_2" x1="82.75" y1="152.11" x2="81.99" y2="-2.29"
      gradientUnits="userSpaceOnUse">
      <stop offset="0" stop-color="#c9ccd1" />
      <stop offset="1" stop-color="#fff" />
    </linearGradient>
    <linearGradient id="Degradado_sin_nombre_12" x1="82.42" y1="3.54" x2="82.42" y2="135.45"
      gradientUnits="userSpaceOnUse">
      <stop offset="0" stop-color="#1f1f1f" />
      <stop offset="1" stop-color="#0a0a0a" />
    </linearGradient>
    <linearGradient id="Degradado_sin_nombre_29" x1="32.8" y1="84.67" x2="10.8" y2="74.09"
      gradientTransform="translate(-3.64 10.74) rotate(-.26)" gradientUnits="userSpaceOnUse">
      <stop offset="0" stop-color="#00f2ff" />
      <stop offset="1" stop-color="#0087ff" />
    </linearGradient>
    <linearGradient id="Degradado_sin_nombre_29-2" x1="9215.85" y1="84.24" x2="9193.85" y2="73.66"
      gradientTransform="translate(9350.85 -31.86) rotate(179.74) scale(1 -1)" xlink:href="#Degradado_sin_nombre_29" />
    <linearGradient id="Degradado_sin_nombre_3" x1="85.72" y1="96.43" x2="85.72" y2="-3.22"
      gradientTransform="translate(-3.64 10.74) rotate(-.26)" gradientUnits="userSpaceOnUse">
      <stop offset="0" stop-color="#0087ff" />
      <stop offset="1" stop-color="#00f2ff" />
    </linearGradient>
    <linearGradient id="Degradado_sin_nombre_15" x1="85.72" y1="90.16" x2="85.72" y2="40.29"
      gradientTransform="translate(-3.64 10.74) rotate(-.26)" gradientUnits="userSpaceOnUse">
      <stop offset="0" stop-color="#fb00ff" />
      <stop offset="1" stop-color="#ff0062" />
    </linearGradient>
    <linearGradient id="Degradado_sin_nombre_2-2" x1="52.73" y1="55.03" x2="52.73" y2="34.15"
      xlink:href="#Degradado_sin_nombre_2" />
    <linearGradient id="Degradado_sin_nombre_12-2" x1="56.24" y1="39.18" x2="56.24" y2="20.46"
      gradientTransform="translate(-3.64 10.74) rotate(-.26)" xlink:href="#Degradado_sin_nombre_12" />
    <linearGradient id="Degradado_sin_nombre_8" x1="46.91" y1="23.11" x2="66.44" y2="23.11"
      gradientTransform="translate(-3.64 10.74) rotate(-.26)" gradientUnits="userSpaceOnUse">
      <stop offset="0" stop-color="#141414" />
      <stop offset="1" stop-color="#141414" />
    </linearGradient>
    <linearGradient id="Degradado_sin_nombre_2-3" x1="111.68" y1="55.03" x2="111.68" y2="34.15"
      xlink:href="#Degradado_sin_nombre_2" />
    <linearGradient id="Degradado_sin_nombre_12-3" x1="9126.1" y1="38.75" x2="9126.1" y2="20.03"
      gradientTransform="translate(9237.66 -31.34) rotate(179.74) scale(1 -1)" xlink:href="#Degradado_sin_nombre_12" />
    <linearGradient id="Degradado_sin_nombre_8-2" x1="9116.77" y1="22.68" x2="9136.3" y2="22.68"
      gradientTransform="translate(9237.66 -31.34) rotate(179.74) scale(1 -1)" xlink:href="#Degradado_sin_nombre_8" />
    <clipPath id="clippath">
      <path class="cls-5"
        d="M82.25,47.12s-39.48.15-41.13,44.45c-.23,6.3,5.1,11.39,11.38,10.79h0c19.96-1.89,40.04-1.98,60.01-.27h0c6.28.54,11.57-4.6,11.28-10.9-2.06-44.28-41.54-44.07-41.54-44.07Z" />
    </clipPath>
    <linearGradient id="Degradado_sin_nombre_15-2" x1="85.72" y1="102.25" x2="85.72" y2="59.36"
      xlink:href="#Degradado_sin_nombre_15" />
    <linearGradient id="Degradado_sin_nombre_15-3" x1="85.72" y1="102.69" x2="85.72" y2="72.28"
      xlink:href="#Degradado_sin_nombre_15" />
    <linearGradient id="Degradado_sin_nombre_2-4" x1="552.79" y1="1364.7" x2="563.17" y2="1364.7"
      gradientTransform="translate(-36.63 -1418.57) rotate(17.43)" xlink:href="#Degradado_sin_nombre_2" />
    <linearGradient id="Degradado_sin_nombre_2-5" x1="1594.96" y1="2651.39" x2="1605.34" y2="2651.39"
      gradientTransform="translate(482.45 -3019.02) rotate(38.26)" xlink:href="#Degradado_sin_nombre_2" />
    <linearGradient id="Degradado_sin_nombre_2-6" x1="2386.25" y1="3197.87" x2="2395.05" y2="3197.87"
      gradientTransform="translate(1034.54 -3825.74) rotate(50.21)" xlink:href="#Degradado_sin_nombre_2" />
    <linearGradient id="Degradado_sin_nombre_2-7" x1="3515.42" y1="3642.11" x2="3524.22" y2="3642.11"
      gradientTransform="translate(1951.86 -4654.5) rotate(65.3)" xlink:href="#Degradado_sin_nombre_2" />
    <linearGradient id="Degradado_sin_nombre_2-8" x1="5426.33" y1="3708.78" x2="5435.13" y2="3708.78"
      gradientTransform="translate(3757.44 -5404.32) rotate(89.27)" xlink:href="#Degradado_sin_nombre_2" />
    <linearGradient id="Degradado_sin_nombre_2-9" x1="6285.28" y1="3474.4" x2="6294.08" y2="3474.4"
      gradientTransform="translate(4662.72 -5484.89) rotate(100.29)" xlink:href="#Degradado_sin_nombre_2" />
    <linearGradient id="Degradado_sin_nombre_2-10" x1="7929.41" y1="2408.65" x2="7938.21" y2="2408.65"
      gradientTransform="translate(6634.52 -5040.2) rotate(124.87)" xlink:href="#Degradado_sin_nombre_2" />
    <linearGradient id="Degradado_sin_nombre_2-11" x1="9085.29" y1="460.46" x2="9094.09" y2="460.46"
      gradientTransform="translate(8455.59 -3547.69) rotate(153.48)" xlink:href="#Degradado_sin_nombre_2" />
    <linearGradient id="Degradado_sin_nombre_2-12" x1="9146.7" y1="-1883.69" x2="9155.5" y2="-1883.69"
      gradientTransform="translate(9350.92 -1255.09) rotate(-176.71)" xlink:href="#Degradado_sin_nombre_2" />
    <linearGradient id="Degradado_sin_nombre_2-13" x1="8546.03" y1="-3294.74" x2="8554.83" y2="-3294.74"
      gradientTransform="translate(9256.9 359.1) rotate(-157.3)" xlink:href="#Degradado_sin_nombre_2" />
    <linearGradient id="Degradado_sin_nombre_2-14" x1="9155.99" y1="-1921.78" x2="9164.79" y2="-1921.78"
      gradientTransform="translate(9353.59 -1223.06) rotate(-176.27)" xlink:href="#Degradado_sin_nombre_2" />
    <linearGradient id="Degradado_sin_nombre_2-15" x1="9046.07" y1="-1343.59" x2="9056.45" y2="-1343.59"
      gradientTransform="translate(9102.12 -1460.79) rotate(162.05) scale(1 -1)" xlink:href="#Degradado_sin_nombre_2" />
    <linearGradient id="Degradado_sin_nombre_2-16" x1="8568.56" y1="-2901.5" x2="8578.94" y2="-2901.5"
      gradientTransform="translate(8568.75 -3055.78) rotate(141.21) scale(1 -1)" xlink:href="#Degradado_sin_nombre_2" />
    <linearGradient id="Degradado_sin_nombre_2-17" x1="8060.66" y1="-3677.78" x2="8069.46" y2="-3677.78"
      gradientTransform="translate(8009.04 -3858.2) rotate(129.27) scale(1 -1)" xlink:href="#Degradado_sin_nombre_2" />
    <linearGradient id="Degradado_sin_nombre_2-18" x1="7204.29" y1="-4472.35" x2="7213.09" y2="-4472.35"
      gradientTransform="translate(7083.13 -4678.31) rotate(114.18) scale(1 -1)" xlink:href="#Degradado_sin_nombre_2" />
    <linearGradient id="Degradado_sin_nombre_2-19" x1="5498.51" y1="-5206.28" x2="5507.3" y2="-5206.28"
      gradientTransform="translate(5272.31 -5411.39) rotate(90.2) scale(1 -1)" xlink:href="#Degradado_sin_nombre_2" />
    <linearGradient id="Degradado_sin_nombre_2-20" x1="4652.31" y1="-5289.25" x2="4661.11" y2="-5289.25"
      gradientTransform="translate(4365.61 -5483.61) rotate(79.18) scale(1 -1)" xlink:href="#Degradado_sin_nombre_2" />
    <linearGradient id="Degradado_sin_nombre_2-21" x1="2800.74" y1="-4881.51" x2="2809.54" y2="-4881.51"
      gradientTransform="translate(2397.18 -5021.74) rotate(54.6) scale(1 -1)" xlink:href="#Degradado_sin_nombre_2" />
    <linearGradient id="Degradado_sin_nombre_2-22" x1="1092.23" y1="-3483.74" x2="1101.03" y2="-3483.74"
      gradientTransform="translate(589.81 -3511.78) rotate(26) scale(1 -1)" xlink:href="#Degradado_sin_nombre_2" />
    <linearGradient id="Degradado_sin_nombre_2-23" x1="247.82" y1="-1332.13" x2="256.62" y2="-1332.13"
      gradientTransform="translate(-282.53 -1211.19) rotate(-3.81) scale(1 -1)" xlink:href="#Degradado_sin_nombre_2" />
    <linearGradient id="Degradado_sin_nombre_2-24" x1="336.43" y1="181.68" x2="345.23" y2="181.68"
      gradientTransform="translate(-174.58 401.23) rotate(-23.22) scale(1 -1)" xlink:href="#Degradado_sin_nombre_2" />
    <linearGradient id="Degradado_sin_nombre_2-25" x1="263.19" y1="-1302.31" x2="271.99" y2="-1302.31"
      gradientTransform="translate(-286 -1179.64) rotate(-4.26) scale(1 -1)" xlink:href="#Degradado_sin_nombre_2" />
    <linearGradient id="Degradado_sin_nombre_15-4" x1="47.73" y1="127.04" x2="47.73" y2="101.2"
      xlink:href="#Degradado_sin_nombre_15" />
    <linearGradient id="Degradado_sin_nombre_15-5" x1="75.38" y1="127.04" x2="75.38" y2="101.2"
      xlink:href="#Degradado_sin_nombre_15" />
    <linearGradient id="Degradado_sin_nombre_15-6" x1="102.02" y1="127.04" x2="102.02" y2="101.2"
      xlink:href="#Degradado_sin_nombre_15" />
    <linearGradient id="Degradado_sin_nombre_15-7" x1="127.29" y1="127.04" x2="127.29" y2="101.2"
      xlink:href="#Degradado_sin_nombre_15" />
    <linearGradient id="Degradado_sin_nombre_2-26" x1="56.68" y1="31.59" x2="83.86" y2="3.15"
      xlink:href="#Degradado_sin_nombre_2" />
    <linearGradient id="Degradado_sin_nombre_2-27" x1="58.91" y1="33.72" x2="86.08" y2="5.28"
      xlink:href="#Degradado_sin_nombre_2" />
    <linearGradient id="Degradado_sin_nombre_8-3" x1="42.87" y1="64.35" x2="128.56" y2="64.35"
      xlink:href="#Degradado_sin_nombre_8" />
  </defs>
  <g id="OBJECTS">
    <path class="cls-30"
      d="M101.5,120.95c-.17.07-.34.15-.5.22.08-.4.18-.61.24-.72,0,0,0,0,.01,0,.15,0,.5.02,1.17.14-.31.1-.61.22-.92.35ZM110.89,119.6c.08.45.19.88.33,1.3-.3-.19-.63-.37-1-.5.23-.22.45-.49.67-.8Z" />
    <path class="cls-26"
      d="M124.29,142.53c-2.51.01-4.92-.19-7.15-.59-1.74-.31-3.16-.66-4.33-1.08-1.28.64-2.56.85-3.22.96-1.67.26-3.35.39-5.05.39-2.03,0-3.26-.1-4.28-.4-1.28.54-2.72.81-4.31.82-1.31,0-2.57-.13-3.73-.4-1.46-.35-2.91-1.03-4.3-2.01-.83-.59-1.58-1.28-2.25-2.05-.14.14-.29.27-.44.4-3.16,2.75-7.46,4.15-12.81,4.17-4.55.02-8.37-.95-11.36-2.9-1.09,1.08-2.84,1.95-5.6,2.33-1.77.24-3.58.37-5.4.37-2.47.01-3.9-.17-5.11-.64-.23-.09-.44-.19-.65-.3-1.1.39-2.14.54-2.81.63-1.77.24-3.58.37-5.41.38-2.48.01-3.92-.17-5.13-.64-2.59-1.03-4.26-3.42-4.27-6.11l-.11-23.41c0-.17,0-.34.02-.52h-1.21c-2.07.02-3.96-1.09-4.97-2.85L2.94,92.01c-2.85-2.8-3.7-6.83-2.22-10.53,1.5-3.67,4.98-6.04,8.89-6.06.4,0,.81.02,1.22.07l13.55,1.59c3.54-13.53,9.48-31.1,15.73-40.22,0-.67.03-1.34.08-2-2.39-2.09-3.17-5.57-1.71-8.52,1.21-2.44,3.65-3.96,6.36-3.97,1.09,0,2.19.25,3.18.74l2.72,1.34c2.19-2.36,4.27-4.66,6.14-6.99.63-.78,1.25-1.59,1.86-2.38,2.2-2.86,4.48-5.81,7.49-8.39C71.1,2.53,77.01.02,82.03,0c5.03-.02,10.97,2.43,15.88,6.56,3.04,2.55,5.44,5.61,7.56,8.32l.09.12c.6.76,1.19,1.51,1.79,2.25,1.92,2.35,4.07,4.67,6.19,6.93l2.71-1.37c1.01-.5,2.1-.77,3.18-.77,2.71-.01,5.16,1.48,6.39,3.9,1.49,2.95.73,6.45-1.63,8.55.05.67.08,1.33.1,1.98,6.32,9.06,12.43,26.58,16.09,40.09l13.55-1.72c.4-.05.82-.08,1.22-.08,3.91-.02,7.42,2.33,8.93,5.97,1.52,3.7.71,7.74-2.12,10.55l-17.3,17.21c-.83,1.47-2.26,2.49-3.91,2.81,0,.14.02.28.02.43,0,2.06-.43,4.22-1.32,6.42-.2.49-.5,1.21-.95,1.98.52.66.98,1.39,1.39,2.17.98,1.9,1.49,4.05,1.5,6.4.01,2.6-.67,5.02-2.03,7.2-.85,1.36-1.96,2.55-3.29,3.54-1.32.99-2.97,1.75-5.04,2.32-1.87.51-4.07.77-6.75.78Z" />
    <path class="cls-46"
      d="M159.96,89.26l-17.63,17.53c-.43,1.03-1.44,1.74-2.62,1.75l-3.62.02c1.49,1.06,1.83,2.27,1.84,3.17,0,1.68-.36,3.48-1.11,5.34-.3.73-.92,2.27-2.1,3.24,1.06.83,1.96,1.94,2.65,3.29.78,1.5,1.17,3.2,1.18,5.1,0,2.06-.53,3.97-1.6,5.68-.67,1.07-1.54,1.99-2.58,2.77-1.05.78-2.4,1.39-4.1,1.86-1.62.44-3.59.66-6,.67-2.31.01-4.54-.17-6.63-.55-2.26-.4-3.83-.86-4.94-1.42-.06-.03-.1-.07-.15-.09-1.07,1-2.74,1.27-3.45,1.38-1.46.23-3,.35-4.57.35-2.21.01-3.08-.14-3.7-.36-.18-.07-.42-.17-.69-.33-1.14.74-2.54,1.1-4.19,1.11-1.08,0-2.12-.1-3.07-.33-1.09-.26-2.2-.78-3.3-1.56-1.11-.79-2.08-1.84-2.83-3.11-.31-.5-.58-1.05-.82-1.63-.65,1.26-1.51,2.34-2.57,3.28-2.61,2.27-6.29,3.44-10.94,3.46-4.65.02-8.36-1.1-11.02-3.35-.57-.48-1.1-1.01-1.55-1.6v.75c.02,3-3.34,3.45-4.78,3.65-1.66.23-3.35.34-5.01.35-2.04,0-3.22-.12-4.06-.45-.56-.23-1.05-.55-1.44-.95-1.1.79-2.63,1-3.48,1.12-1.65.23-3.33.34-5.01.35-2.06,0-3.24-.12-4.08-.45-1.51-.6-2.46-1.93-2.47-3.47l-.11-23.41c0-1.36.64-2.49,1.94-3.38l-5.99.03c-1.18,0-2.2-.7-2.64-1.73l-17.79-17.37c-2.01-1.98-2.61-4.81-1.56-7.43,1.05-2.58,3.5-4.26,6.26-4.27.28,0,.57.02.86.05l16.04,1.88c3.77-15.11,10.24-33.93,16.44-42.45-.01-.14-.01-.28-.01-.43,0-1.32.07-2.62.23-3.89l-.22-.1c-2.1-1.04-2.98-3.61-1.93-5.73.72-1.46,2.18-2.37,3.82-2.38.66,0,1.31.16,1.9.45l4.63,2.29c.17-.18.33-.35.49-.53,2.45-2.63,4.96-5.36,7.22-8.16.64-.8,1.27-1.62,1.9-2.43,2.11-2.74,4.3-5.58,7.08-7.96,4.39-3.75,9.61-6,13.98-6.02,4.37-.02,9.62,2.18,14.03,5.89,2.8,2.35,5.02,5.17,7.16,7.9.64.81,1.27,1.62,1.92,2.41,2.28,2.78,4.83,5.49,7.29,8.1.17.17.33.35.5.52l4.6-2.33c.6-.3,1.25-.46,1.91-.46,1.63,0,3.1.9,3.84,2.35,1.06,2.1.21,4.68-1.88,5.74l-.21.11c.16,1.27.25,2.57.26,3.89v.43c6.28,8.48,12.92,27.22,16.82,42.3l16.02-2.03c.29-.04.59-.06.87-.06,2.74-.01,5.22,1.65,6.29,4.22,1.08,2.61.51,5.45-1.49,7.44Z" />
    <path class="cls-44" d="M10.15,81.15c-3.76-.44-5.94,4.13-3.23,6.78l18.73,18.29,6.65-22.47-22.14-2.6Z" />
    <path class="cls-31" d="M154.66,80.49c3.76-.48,5.98,4.08,3.3,6.75l-18.56,18.46-6.85-22.41,22.12-2.8Z" />
    <path class="cls-34"
      d="M118.81,38.62c-4.88-6.26-10.83-11.63-15.86-17.77-2.79-3.41-5.33-7.09-8.71-9.93-3.38-2.84-8.01-5.24-12.18-5.22-4.18.02-8.78,2.46-12.14,5.33-3.35,2.87-5.85,6.57-8.62,10.01-4.97,6.19-10.87,11.61-15.69,17.92-9.29,12.15-20.62,51.98-20.28,67.26l57.18-.26,57.18-.26c.2-15.29-11.49-55.01-20.89-67.08Z" />
    <path class="cls-41"
      d="M82.25,47.12s-39.48.15-41.13,44.45c-.23,6.3,5.1,11.39,11.38,10.79h0c19.96-1.89,40.04-1.98,60.01-.27h0c6.28.54,11.57-4.6,11.28-10.9-2.06-44.28-41.54-44.07-41.54-44.07Z" />
    <path class="cls-43"
      d="M59.65,37.25c.04,7.87-3.03,14.28-6.86,14.29-3.83.02-6.96-6.36-6.99-14.23-.01-2.52.29-4.88.84-6.94l1.55.77,11.46,5.66c0,.15,0,.3,0,.44Z" />
    <path class="cls-40"
      d="M57.64,41.42l-4.35.06,3.75,2.81c-.92,3.24-2.48,5.37-4.26,5.38-2.87.01-5.21-5.52-5.25-12.36-.01-2.24.23-4.35.66-6.16l9.7,4.79c.02.43.03.88.04,1.32,0,1.46-.1,2.86-.29,4.16Z" />
    <line class="cls-4" x1="44.86" y1="29.5" x2="61.43" y2="37.69" />
    <path class="cls-36"
      d="M104.76,37.04c.04,7.87,3.17,14.25,6.99,14.23,3.83-.02,6.9-6.42,6.86-14.29-.01-2.52-.34-4.88-.9-6.93l-1.54.78-11.4,5.77c0,.15,0,.3,0,.44Z" />
    <path class="cls-10"
      d="M106.81,41.19l4.35.02-3.72,2.84c.95,3.23,2.53,5.35,4.31,5.34,2.87-.01,5.16-5.57,5.13-12.41-.01-2.24-.27-4.35-.71-6.16l-9.65,4.88c-.02.43-.03.88-.02,1.32,0,1.46.12,2.86.32,4.16Z" />
    <line class="cls-6" x1="119.48" y1="29.15" x2="102.98" y2="37.49" />
    <g class="cls-45">
      <path class="cls-11"
        d="M82.34,66.68s-33.96.13-35.38,38.23c-.2,5.42,4.39,9.79,9.79,9.28h0c17.16-1.62,34.44-1.7,51.62-.24h0c5.4.46,9.95-3.95,9.7-9.37-1.77-38.09-35.73-37.91-35.73-37.91Z" />
      <path class="cls-35"
        d="M82.4,80.48s-24.08.09-25.08,27.11c-.14,3.84,3.11,6.94,6.94,6.58h0c12.17-1.15,24.42-1.21,36.6-.17h0c3.83.33,7.06-2.8,6.88-6.65-1.25-27.01-25.33-26.88-25.33-26.88Z" />
      <path class="cls-17" d="M83.11,45.7l2.42,9.25c.24.93,1.46,1.17,2.04.39l5.94-8.08-10.4-1.56Z" />
      <path class="cls-33" d="M94.97,47.86l-1.03,9.5c-.1.96.95,1.61,1.76,1.09l8.42-5.44-9.16-5.15Z" />
      <path class="cls-23" d="M106.78,52.59l-2.52,7.7c-.25.78.51,1.5,1.27,1.21l7.94-3.03-6.69-5.88Z" />
      <path class="cls-21" d="M114.79,60.05l-4.43,6.78c-.45.69.1,1.58.91,1.5l8.45-.86-4.93-7.42Z" />
      <path class="cls-20" d="M120.91,68.53l-6.8,4.39c-.69.44-.55,1.49.22,1.74l8.07,2.65-1.49-8.78Z" />
      <path class="cls-25" d="M124,78.85l-7.52,3.01c-.76.3-.83,1.35-.11,1.75l7.41,4.14.22-8.9Z" />
      <path class="cls-27" d="M126.63,90.32l-8.09-.39c-.82-.04-1.32.89-.83,1.55l5.02,6.85,3.9-8.01Z" />
      <path class="cls-8" d="M121.75,100.44l-6.91-4.22c-.7-.43-1.58.15-1.47.96l1.13,8.42,7.26-5.16Z" />
      <path class="cls-19" d="M111.67,104.25l-3.9-7.09c-.39-.72-1.44-.66-1.75.1l-3.21,7.86,8.86-.87Z" />
      <path class="cls-29" d="M100.93,104.17l-1.32-7.99c-.13-.81-1.14-1.1-1.69-.49l-5.64,6.35,8.65,2.12Z" />
      <path class="cls-9" d="M91.72,102.5l-3.85-7.12c-.39-.72-1.44-.67-1.75.09l-3.27,7.84,8.87-.8Z" />
      <path class="cls-22" d="M81.42,45.71l-2.34,9.27c-.24.94-1.45,1.18-2.03.41l-6.01-8.02,10.38-1.65Z" />
      <path class="cls-39" d="M69.58,47.97l1.11,9.49c.11.96-.94,1.62-1.75,1.1l-8.47-5.36,9.11-5.24Z" />
      <path class="cls-37" d="M57.82,52.82l2.59,7.67c.26.78-.49,1.51-1.26,1.22l-7.96-2.96,6.64-5.94Z" />
      <path class="cls-38" d="M49.87,60.35l4.5,6.73c.45.68-.08,1.58-.9,1.51l-8.46-.78,4.86-7.46Z" />
      <path class="cls-28" d="M43.83,68.89l6.84,4.33c.69.44.57,1.48-.21,1.74l-8.05,2.72,1.41-8.79Z" />
      <path class="cls-18" d="M40.83,79.23l7.55,2.94c.76.3.84,1.35.13,1.75l-7.38,4.21-.3-8.9Z" />
      <path class="cls-15" d="M38.31,90.72l8.08-.47c.82-.05,1.32.87.85,1.54l-4.96,6.9-3.97-7.97Z" />
      <path class="cls-2" d="M43.28,100.8l6.87-4.28c.7-.43,1.58.13,1.48.95l-1.05,8.43-7.3-5.1Z" />
      <path class="cls-7" d="M53.4,104.52l3.84-7.13c.39-.72,1.44-.67,1.75.09l3.28,7.84-8.87-.79Z" />
      <path class="cls-13" d="M64.13,104.34l1.25-8c.13-.81,1.13-1.11,1.68-.5l5.7,6.3-8.63,2.2Z" />
      <path class="cls-42" d="M73.33,102.58l3.78-7.16c.38-.72,1.43-.68,1.76.07l3.34,7.81-8.88-.72Z" />
    </g>
    <path class="cls-16"
      d="M53.29,109.8c-1.73,0-3.33.28-4.81.8-1.48.53-2.22,1.11-2.22,1.74l.03,7.57-3.39.02-.04-8.37c0-1.14-1.21-1.71-3.62-1.7-1.73,0-3.32.28-4.79.8-1.47.53-2.2,1.11-2.2,1.74l.11,23.41c0,.38.23.66.67.83.44.18,1.45.26,3.01.25,1.56,0,3.11-.12,4.64-.33,1.53-.21,2.3-.48,2.3-.81l-.04-8.72,3.39-.02.04,8.72c0,.38.22.66.67.83.44.18,1.44.26,2.99.25,1.55,0,3.09-.12,4.64-.33,1.55-.21,2.32-.48,2.32-.81l-.11-24.21c0-1.14-1.2-1.71-3.59-1.7Z" />
    <path class="cls-12"
      d="M80.99,109.63c-1.88,0-3.53.27-4.96.78-1.43.51-2.15,1.09-2.14,1.72l.05,10.89c.01,2.94-.07,4.87-.26,5.77-.19.9-.63,1.35-1.35,1.36-.71,0-1.18-.46-1.4-1.38-.22-.92-.34-2.82-.35-5.69l-.05-11.34c0-.33-.17-.72-.5-1.18-.46-.58-1.45-.87-2.97-.86-1.9,0-3.57.27-5,.78-1.43.51-2.15,1.09-2.14,1.72l.06,13.97c.02,3.65,1.1,6.38,3.23,8.19,2.14,1.8,5.19,2.7,9.17,2.68,3.97-.02,7-.94,9.08-2.76,2.09-1.82,3.12-4.56,3.1-8.22l-.07-14.39c0-.33-.16-.72-.46-1.18-.43-.58-1.45-.87-3.05-.86Z" />
    <path class="cls-14"
      d="M108.93,122.98c-.55-.15-1.42-.22-2.61-.22-1.19,0-2.43.28-3.73.82-1.29.54-1.94,1.13-1.93,1.76l.02,3.43c-.76-.1-1.4-.6-1.91-1.49-.51-.9-.77-2.27-.78-4.13-.02-3.68,1.07-5.52,3.25-5.53.76,0,1.9.19,3.43.57,1.52.39,2.39.58,2.59.58.84,0,1.47-.69,1.89-2.05.42-1.36.64-2.62.63-3.79,0-1.47-.63-2.46-1.88-2.98-1.25-.51-3.39-.76-6.44-.75-1.32,0-2.56.11-3.73.3-1.17.2-2.42.61-3.76,1.25-1.34.64-2.49,1.46-3.45,2.47-.96,1.01-1.75,2.41-2.38,4.22-.63,1.8-.93,3.89-.92,6.25.02,4.29.67,7.49,1.95,9.62.56.94,1.25,1.69,2.05,2.26.8.57,1.57.94,2.31,1.11.74.17,1.54.26,2.4.26,1.47,0,2.57-.4,3.29-1.19.72-.79,1.17-1.73,1.34-2.82h.3s.28,2.24.28,2.24c.05.63.27,1.02.65,1.16.38.14,1.29.2,2.72.2,1.43,0,2.82-.11,4.15-.32,1.33-.21,2-.48,1.99-.81l-.05-10.54c0-.35-.18-.76-.54-1.22-.2-.28-.58-.49-1.13-.64Z" />
    <path class="cls-24"
      d="M134.84,124.91c-.56-1.09-1.26-1.93-2.1-2.52-.84-.59-1.75-1.11-2.73-1.55-.98-.44-1.88-.76-2.71-.98-.83-.21-1.52-.45-2.08-.71-.56-.26-.84-.61-.84-1.02,0-.42.19-.73.59-.94.39-.2,1.14-.31,2.24-.31,1.1,0,2.49.36,4.17,1.08.56.23.89.34.99.34.58,0,1.18-.77,1.8-2.29.61-1.53.92-2.95.91-4.27,0-.38-.38-.77-1.13-1.16-.75-.39-2.04-.74-3.87-1.05-1.83-.31-4-.46-6.51-.45-6.72.03-10.07,2.86-10.05,8.5,0,1.32.29,2.49.85,3.52.56,1.03,1.26,1.82,2.1,2.37.84.55,1.75,1.06,2.73,1.51.98.45,1.89.8,2.73,1.03.84.24,1.54.51,2.1.83.56.31.84.68.84,1.08,0,.41-.15.72-.45.93-.3.22-.96.33-1.98.33-1.02,0-2.53-.33-4.53-1.01-2.01-.68-3.06-1.01-3.16-1.01-.56,0-1.04.77-1.44,2.31-.4,1.54-.6,3.02-.59,4.44,0,.41.42.82,1.26,1.25.84.43,2.22.81,4.15,1.16,1.93.35,3.97.51,6.11.5,2.14,0,3.89-.2,5.25-.58,1.36-.37,2.41-.84,3.17-1.4.76-.56,1.38-1.22,1.86-1.99.78-1.25,1.17-2.63,1.16-4.15,0-1.45-.29-2.71-.85-3.8Z" />
    <path class="cls-1"
      d="M62.49,23.5c-.31.77-.44,1.8.23,2.28.61.44,1.46.13,2.1-.26,1.15-.71,2.17-1.64,2.97-2.73,1.01-1.37,1.17-3.93-1.17-3.51-1.91.34-3.46,2.57-4.13,4.22Z" />
    <path class="cls-32"
      d="M79.28,8.2c-3.17.77-5.95,2.69-8.38,4.87-.65.59-1.31,1.22-1.64,2.04-.33.81-.27,1.85.37,2.45.71.66,1.86.57,2.71.11.85-.47,1.48-1.23,2.18-1.9,2.43-2.32,5.83-3.58,9.18-3.4,1.29.07,3.08.41,4.07-.71.98-1.11.15-2.02-.91-2.63-2.23-1.29-5.12-1.44-7.58-.84Z" />
    <path class="cls-3"
      d="M82.25,47.12s-39.48.15-41.13,44.45c-.23,6.3,5.1,11.39,11.38,10.79h0c19.96-1.89,40.04-1.98,60.01-.27h0c6.28.54,11.57-4.6,11.28-10.9-2.06-44.28-41.54-44.07-41.54-44.07Z" />
  </g>
</svg>