<?xml version="1.0" encoding="UTF-8"?>
<svg id="Capa_2" xmlns="http://www.w3.org/2000/svg" xmlns:xlink="http://www.w3.org/1999/xlink"
  viewBox="0 0 115.81 166.06">
  <defs>
    <style>
      .cls-1 {
        stroke: url(#Degradado_sin_nombre_8-3);
      }

      .cls-1,
      .cls-2,
      .cls-3 {
        fill: none;
        stroke-linecap: round;
        stroke-linejoin: round;
        stroke-width: 3px;
      }

      .cls-4 {
        fill: url(#Degradado_sin_nombre_21-3);
      }

      .cls-5 {
        fill: url(#Degradado_sin_nombre_24);
      }

      .cls-2 {
        stroke: url(#Degradado_sin_nombre_8);
      }

      .cls-6 {
        fill: url(#Degradado_sin_nombre_18-2);
      }

      .cls-7 {
        fill: url(#Degradado_sin_nombre_2-4);
      }

      .cls-8 {
        fill: url(#Degradado_sin_nombre_21-2);
      }

      .cls-9 {
        fill: url(#Degradado_sin_nombre_2);
      }

      .cls-10 {
        fill: url(#Degradado_sin_nombre_24-3);
      }

      .cls-3 {
        stroke: url(#Degradado_sin_nombre_8-2);
      }

      .cls-11 {
        fill: url(#Degradado_sin_nombre_21);
      }

      .cls-12 {
        fill: url(#Degradado_sin_nombre_2-3);
      }

      .cls-13 {
        fill: url(#Degradado_sin_nombre_18-5);
      }

      .cls-14 {
        fill: url(#Degradado_sin_nombre_18);
      }

      .cls-15 {
        fill: url(#Degradado_sin_nombre_18-4);
      }

      .cls-16 {
        fill: url(#Degradado_sin_nombre_12-2);
      }

      .cls-17 {
        fill: url(#Degradado_sin_nombre_18-3);
      }

      .cls-18 {
        fill: url(#Degradado_sin_nombre_2-2);
      }

      .cls-19 {
        fill: url(#Degradado_sin_nombre_24-2);
      }

      .cls-20 {
        fill: url(#Degradado_sin_nombre_12);
      }
    </style>
    <linearGradient id="Degradado_sin_nombre_2" x1="40.12" y1="165.28" x2="40.12" y2="2.67"
      gradientTransform="translate(17.78)" gradientUnits="userSpaceOnUse">
      <stop offset="0" stop-color="#c9ccd1" />
      <stop offset="1" stop-color="#fff" />
    </linearGradient>
    <linearGradient id="Degradado_sin_nombre_12" x1="40.12" y1="161.77" x2="40.12" y2="10.92"
      gradientTransform="translate(17.78)" gradientUnits="userSpaceOnUse">
      <stop offset="0" stop-color="#1f1f1f" />
      <stop offset="1" stop-color="#0a0a0a" />
    </linearGradient>
    <linearGradient id="Degradado_sin_nombre_2-2" x1="38.63" y1="159.99" x2="38.63" y2="90"
      xlink:href="#Degradado_sin_nombre_2" />
    <linearGradient id="Degradado_sin_nombre_21" x1="38.62" y1="102.81" x2="38.62" y2="78.08"
      gradientTransform="translate(17.78)" gradientUnits="userSpaceOnUse">
      <stop offset="0" stop-color="#0a0a0a" />
      <stop offset="1" stop-color="#1f1f1f" />
    </linearGradient>
    <linearGradient id="Degradado_sin_nombre_24" x1="-5.68" y1="85.35" x2="82.93" y2="85.35"
      gradientTransform="translate(17.78)" gradientUnits="userSpaceOnUse">
      <stop offset="0" stop-color="#acaeb3" />
      <stop offset="1" stop-color="#f0f0f0" />
    </linearGradient>
    <linearGradient id="Degradado_sin_nombre_12-2" x1="37.57" y1="143.48" x2="39.83" y2="135.04"
      xlink:href="#Degradado_sin_nombre_12" />
    <linearGradient id="Degradado_sin_nombre_8" x1="27.67" y1="152.01" x2="30.67" y2="152.01"
      gradientTransform="translate(17.78)" gradientUnits="userSpaceOnUse">
      <stop offset="0" stop-color="#141414" />
      <stop offset="1" stop-color="#141414" />
    </linearGradient>
    <linearGradient id="Degradado_sin_nombre_8-2" x1="37.12" x2="40.12" xlink:href="#Degradado_sin_nombre_8" />
    <linearGradient id="Degradado_sin_nombre_8-3" x1="46.6" x2="49.6" xlink:href="#Degradado_sin_nombre_8" />
    <linearGradient id="Degradado_sin_nombre_18" x1="-11.71" y1="87.32" x2="35.19" y2="87.32"
      gradientTransform="translate(17.78)" gradientUnits="userSpaceOnUse">
      <stop offset="0" stop-color="#8ad100" />
      <stop offset="1" stop-color="#dcf500" />
    </linearGradient>
    <linearGradient id="Degradado_sin_nombre_18-2" x1="43.94" y1="85.5" x2="87.55" y2="85.5"
      xlink:href="#Degradado_sin_nombre_18" />
    <linearGradient id="Degradado_sin_nombre_18-3" x1="29.96" y1="53.89" x2="64.28" y2="53.89"
      xlink:href="#Degradado_sin_nombre_18" />
    <linearGradient id="Degradado_sin_nombre_18-4" x1="40.06" y1="63.71" x2="91.95" y2="63.71"
      xlink:href="#Degradado_sin_nombre_18" />
    <linearGradient id="Degradado_sin_nombre_18-5" x1="-.83" y1="65.47" x2="44.31" y2="65.47"
      xlink:href="#Degradado_sin_nombre_18" />
    <linearGradient id="Degradado_sin_nombre_21-2" x1="71.77" y1="99.63" x2="71.77" y2="57.38"
      gradientTransform="translate(-53.46 64.85) rotate(-3.29) scale(1.15 .8)" xlink:href="#Degradado_sin_nombre_21" />
    <linearGradient id="Degradado_sin_nombre_24-2" x1="-10.94" y1="-73.52" x2="-10.93" y2="-88.24"
      gradientTransform="translate(48.82 212.47) rotate(-3.35)" xlink:href="#Degradado_sin_nombre_24" />
    <linearGradient id="Degradado_sin_nombre_2-3" x1="14.85" y1="131.35" x2="14.85" y2="114.47"
      xlink:href="#Degradado_sin_nombre_2" />
    <linearGradient id="Degradado_sin_nombre_21-3" x1="178.19" y1="695.05" x2="178.19" y2="652.79"
      gradientTransform="translate(-84.93 -430.11) rotate(4.2) scale(1.15 .8)" xlink:href="#Degradado_sin_nombre_21" />
    <linearGradient id="Degradado_sin_nombre_24-3" x1="111.16" y1="403.69" x2="111.17" y2="388.97"
      gradientTransform="translate(-2.79 -270.97) rotate(4.14)" xlink:href="#Degradado_sin_nombre_24" />
    <linearGradient id="Degradado_sin_nombre_2-4" x1="164.18" y1="600.62" x2="164.18" y2="583.74"
      gradientTransform="translate(-5.45 -485.62) rotate(7.49)" xlink:href="#Degradado_sin_nombre_2" />
  </defs>
  <g id="OBJECTS">
    <path class="cls-9"
      d="M70.63,166.06c-1.67,0-3.28-.37-4.74-1.09-1.46.72-3.07,1.09-4.74,1.09s-3.28-.37-4.74-1.09c-1.46.72-3.07,1.09-4.74,1.09s-3.28-.37-4.74-1.09c-1.46.72-3.07,1.09-4.74,1.09-5.96,0-10.81-4.85-10.81-10.81v-.72c-.92.09-1.82.14-2.7.14-6.69,0-12.21-2.55-16.39-7.58-12.85-15.44-7.54-50.38-6.24-57.73.18-2.65,1.41-5.03,3.69-7.1-1.66-1.23-3.29-2.01-4.94-2.37C2.03,79.29.01,76.8,0,73.97c-.01-2.83,1.99-5.34,4.75-5.95,3.39-.76,6.4-1.13,9.2-1.13,3.66,0,7.01.65,9.96,1.93.41.18.82.37,1.22.58-.19-2.1-.32-4.17-.45-6.22-.2-3.28-.41-6.64-.86-9.8-.64-4.49-2.86-15.31-9.6-18.72-2.8-1.41-4.07-4.79-2.9-7.7.93-2.31,3.14-3.8,5.63-3.8.6,0,1.21.09,1.79.27,8.38,2.59,20.3,7.21,27.15,17.47,1.68,2.52,3.02,5.29,4.07,8.45,1.81-2.95,3.76-5.74,5.68-8.48,2.06-2.94,4.18-5.99,5.97-9.02,3.2-5.44,8.06-15.7,4.61-23.24-1.3-2.85-.19-6.28,2.54-7.82.91-.51,1.94-.79,2.99-.79,2.01,0,3.89.99,5.02,2.66,5.38,7.89,12.39,19.93,11.26,33.25-.26,3.12-.95,6.23-2.1,9.47,1.45-.88,2.88-1.78,4.22-2.71,3.73-2.58,12.42-9.39,12.45-16.95.01-3.13,2.47-5.78,5.59-6.03.17-.01.33-.02.49-.02,2.98,0,5.5,2.14,5.99,5.08,1.43,8.64,2.62,21.38-3.5,32.09-1.4,2.45-3.05,4.61-4.88,6.54.32.05.64.13.96.23,2.69.89,4.43,3.58,4.14,6.4-.71,6.81-2.48,12.12-5.41,16.16.06.15.13.3.18.44.34.88.54,1.78.61,2.7,1.29,7.33,6.62,42.33-6.23,57.78-4.19,5.03-9.7,7.58-16.39,7.58-.88,0-1.77-.05-2.7-.14v.72c0,5.96-4.85,10.81-10.81,10.81Z" />
    <path class="cls-20"
      d="M70.63,163.02c-1.78,0-3.43-.6-4.74-1.61-1.31,1.01-2.96,1.61-4.74,1.61s-3.43-.6-4.74-1.61c-1.31,1.01-2.96,1.61-4.74,1.61s-3.43-.6-4.74-1.61c-1.31,1.01-2.96,1.61-4.74,1.61-4.29,0-7.78-3.49-7.78-7.78v-4.28c-2.01.44-3.93.67-5.73.67-5.75,0-10.48-2.18-14.06-6.49-12.39-14.89-6.21-51.72-5.55-55.44.12-2.74,1.97-5.16,5.53-7.21-3.06-3.11-6.03-4.9-9.16-5.58-1.4-.3-2.39-1.53-2.4-2.96,0-1.43.98-2.67,2.38-2.98,3.17-.71,5.96-1.05,8.54-1.05,3.25,0,6.19.57,8.75,1.68,2.23.97,4.34,2.44,6.38,4.45-.82-4.37-1.1-8.79-1.37-13.1-.21-3.31-.42-6.74-.89-10.01-.88-6.17-3.51-17.1-11.24-21-1.41-.71-2.04-2.38-1.45-3.85.47-1.18,1.61-1.9,2.82-1.9.3,0,.6.04.9.14,7.93,2.45,19.2,6.8,25.52,16.26,3.12,4.67,4.62,9.87,5.5,15.2,2.49-5.49,5.93-10.41,9.26-15.18,2.09-2.99,4.25-6.09,6.1-9.22,3.5-5.95,8.78-17.25,4.75-26.05-.66-1.44-.11-3.14,1.27-3.91.47-.27.98-.39,1.49-.39.97,0,1.93.47,2.51,1.33,5.12,7.51,11.79,18.93,10.74,31.28-.53,6.33-2.94,11.98-5.98,17.31,1.43-.87,2.87-1.7,4.29-2.53,2.87-1.67,5.84-3.39,8.56-5.27,5.12-3.54,13.72-10.77,13.76-19.43,0-1.58,1.22-2.89,2.8-3.01.08,0,.16,0,.24,0,1.47,0,2.75,1.07,2.99,2.54,1.35,8.19,2.5,20.21-3.14,30.09-4.5,7.89-12.13,12.62-19.51,17.19-2.56,1.59-5.04,3.12-7.36,4.76,1.37.24,2.69.51,3.96.79.89-.27,1.78-.54,2.66-.83,4.72-1.53,11.35-4.18,14.45-9.41.56-.94,1.56-1.49,2.61-1.49.32,0,.64.05.95.15,1.35.45,2.22,1.78,2.07,3.2-.74,7.18-2.73,12.47-6.06,16.19.44.59.78,1.19,1.02,1.82.25.64.39,1.3.42,1.97.64,3.61,6.86,40.56-5.54,55.47-3.58,4.3-8.31,6.49-14.06,6.49-1.81,0-3.72-.22-5.73-.67v4.28c0,4.29-3.49,7.78-7.78,7.78Z" />
    <path class="cls-18"
      d="M75.36,146.95v8.29c0,2.61-2.13,4.74-4.74,4.74s-4.74-2.13-4.74-4.74c0,2.61-2.13,4.74-4.74,4.74s-4.74-2.13-4.74-4.74c0,2.61-2.13,4.74-4.74,4.74s-4.74-2.13-4.74-4.74c0,2.61-2.13,4.74-4.74,4.74s-4.74-2.13-4.74-4.74v-8.29C-.94,160.08,12.11,90,12.11,90l44.3,1.05,44.3-1.05s13.05,70.08-25.35,56.96Z" />
    <ellipse class="cls-11" cx="56.41" cy="89.99" rx="44.3" ry="11.71" />
    <path class="cls-5"
      d="M100.71,89.99c0,.83-.33,1.64-.95,2.42-4.21-5.31-22.02-9.29-43.35-9.29s-39.14,3.98-43.35,9.29c-.62-.78-.95-1.59-.95-2.42,0-6.46,19.83-11.7,44.3-11.7s44.3,5.24,44.3,11.7Z" />
    <path class="cls-16"
      d="M56.41,143.76l6.97-3.19c.79-.36.9-1.43.2-1.94l-3.18-2.35c-2.38-1.76-5.63-1.76-8,0l-3.18,2.35c-.69.51-.58,1.58.2,1.94l6.97,3.19h0s0,0,0,0h0s0,0,0,0Z" />
    <line class="cls-2" x1="46.95" y1="155.74" x2="46.95" y2="148.29" />
    <line class="cls-3" x1="56.41" y1="155.74" x2="56.41" y2="148.29" />
    <line class="cls-1" x1="65.89" y1="155.74" x2="65.89" y2="148.29" />
    <path class="cls-14"
      d="M52.98,101.67c-1.36-.03-2.7-.07-4.02-.14-5.79-.26-11.2-.81-16-1.6-4.71-3.82-7.96-9.18-11.59-14.09-3.93-5.31-8.84-10.5-15.3-11.89,5.07-1.13,10.64-1.63,15.41.45,3.61,1.57,6.43,4.54,8.79,7.7,2.35,3.15,4.36,6.57,6.93,9.55,2.16,2.51,4.59,4.62,7.25,6.31,2.63,1.67,5.48,2.92,8.53,3.71Z" />
    <path class="cls-6"
      d="M105.34,69.39c-.53,5.17-1.84,10.61-5.31,14.47-2.64,2.93-6.34,4.66-10.09,5.9-3.73,1.24-7.61,2.06-11.26,3.55-4.55,1.88-8.48,4.58-11.62,8.04-1.12.07-2.27.14-3.43.18-.51.02-1.02.05-1.54.06-.13,0-.25,0-.37,0,.02-.09.04-.18.06-.26.71-2.95,1.98-5.77,3.7-8.26,1.49-2.15,3.32-4.05,5.43-5.59,5.35-3.88,12.01-5.34,18.29-7.37,6.29-2.04,12.76-5.06,16.13-10.75Z" />
    <path class="cls-17"
      d="M81.97,35.39c-1.03,12.19-9.77,21.91-16,32.6-2.3,3.94-4.25,8.02-5.35,12.4-1.71,6.85-1.17,13.94.85,20.72.05.17.1.34.16.51-1.07.03-2.15.06-3.24.06-.65.02-1.31.02-1.97.02-.59,0-1.17,0-1.76-.02-1.85-3.33-3.37-6.81-4.55-10.24-1.77-5.12-2.54-10.58-2.32-16,.2-5.27,1.33-10.5,3.39-15.35,3.85-9.11,10.65-16.64,15.67-25.17,5.02-8.53,9.02-19.85,4.89-28.85,5.94,8.73,11.12,18.79,10.23,29.32Z" />
    <path class="cls-15"
      d="M105.88,53.83c-7.55,13.22-25.25,17.09-34.82,28.93-2.5,3.1-4.32,6.6-5.57,10.33-.9,2.72-1.51,5.55-1.85,8.44-.51.02-1.02.05-1.54.06-.13,0-2.62.07-3.72.08-.18-1.2-.31-2.43-.4-3.65-.25-3.45-.16-6.9.18-10.17.73-7.17,3.49-14.11,7.81-19.88,1.5-2.02,3.2-3.89,5.07-5.58,6.67-6.04,15.15-9.63,22.56-14.75,7.4-5.11,15.03-12.93,15.07-21.92,1.56,9.47,1.98,19.75-2.78,28.09Z" />
    <path class="cls-13"
      d="M62.1,101.6c-.13,0-2.62.07-3.72.08-.65.02-1.31.02-1.97.02-.59,0-1.17,0-1.76-.02-.55,0-1.1,0-1.65-.02h-.02c-1.36-.03-2.7-.07-4.02-.14-1.59-1.08-3.1-2.27-4.51-3.57-5.45-5-9.51-11.53-11.51-18.66-2.43-8.67-1.84-17.86-3.11-26.77-1.27-8.9-4.84-19.23-12.88-23.28,9.18,2.83,18.56,7.06,23.89,15.04,5.98,8.96,5.5,20.36,6.94,31.17.6,4.48,1.52,8.86,3.38,12.92,1.67,3.65,4.01,6.87,6.82,9.67,1.09,1.09,2.26,2.11,3.48,3.07.11.09.22.17.33.25.1.09.21.17.31.25Z" />
    <path class="cls-8"
      d="M45.09,122.28c.53,9.23-4.62,17.04-11.49,17.44-6.88.4-12.88-6.77-13.41-16-.53-9.23,4.62-17.04,11.49-17.44,6.88-.4,12.88,6.77,13.41,16Z" />
    <path class="cls-19"
      d="M45.12,124.31c-.27,8.32-5.15,15.04-11.52,15.41-6.36.37-11.98-5.74-13.21-13.97,2.03,6,7.18,10.13,12.97,9.8,5.8-.33,10.44-5.04,11.76-11.24Z" />
    <path class="cls-12"
      d="M33.12,131.35c-2.18.13-4.16-3.51-4.43-8.12-.26-4.62,1.29-8.46,3.47-8.59,1.6-.09,3.09,1.83,3.87,4.66l-3.39,2.36h3.85c.05.36.08.73.1,1.11.27,4.62-1.29,8.46-3.47,8.58Z" />
    <path class="cls-4"
      d="M92.6,123.91c-.68,9.22-6.8,16.29-13.67,15.79-6.87-.5-11.89-8.39-11.21-17.62.68-9.22,6.8-16.29,13.67-15.79,6.87.5,11.89,8.39,11.21,17.62Z" />
    <path class="cls-10"
      d="M92.37,125.92c-1.35,8.22-7.07,14.24-13.43,13.78-6.36-.47-11.13-7.26-11.28-15.57,1.23,6.21,5.8,10.98,11.58,11.4,5.79.43,11.01-3.63,13.13-9.61Z" />
    <path class="cls-7"
      d="M79.55,131.34c-2.18-.16-3.67-4.02-3.33-8.63.34-4.61,2.38-8.22,4.56-8.06,1.6.12,2.83,2.22,3.23,5.12l-3.67,1.9,3.82.5c0,.36-.02.73-.05,1.11-.33,4.62-2.38,8.22-4.56,8.05Z" />
  </g>
</svg>