<?xml version="1.0" encoding="UTF-8"?>
<svg id="Capa_2" xmlns="http://www.w3.org/2000/svg" xmlns:xlink="http://www.w3.org/1999/xlink"
  viewBox="0 0 141.57 140.98">
  <defs>
    <style>
      .cls-1 {
        stroke: url(#Degradado_sin_nombre_8-3);
      }

      .cls-1,
      .cls-2,
      .cls-3 {
        fill: none;
        stroke-linecap: round;
        stroke-linejoin: round;
        stroke-width: 3px;
      }

      .cls-4 {
        fill: url(#Degradado_sin_nombre_37-15);
      }

      .cls-5 {
        fill: url(#Degradado_sin_nombre_37-2);
      }

      .cls-6 {
        fill: url(#Degradado_sin_nombre_37-13);
      }

      .cls-7 {
        fill: url(#Degradado_sin_nombre_16);
      }

      .cls-8 {
        fill: url(#Degradado_sin_nombre_37-5);
      }

      .cls-9 {
        fill: url(#Degradado_sin_nombre_37-3);
      }

      .cls-10 {
        fill: url(#Degradado_sin_nombre_37-7);
      }

      .cls-2 {
        stroke: url(#Degradado_sin_nombre_8);
      }

      .cls-11 {
        fill: url(#Degradado_sin_nombre_2-4);
      }

      .cls-12 {
        fill: url(#Degradado_sin_nombre_21-2);
      }

      .cls-13 {
        fill: url(#Degradado_sin_nombre_37-8);
      }

      .cls-14 {
        fill: url(#Degradado_sin_nombre_2);
      }

      .cls-15 {
        fill: url(#Degradado_sin_nombre_37-12);
      }

      .cls-16 {
        fill: url(#Degradado_sin_nombre_37-14);
      }

      .cls-17 {
        fill: url(#Degradado_sin_nombre_37-11);
      }

      .cls-3 {
        stroke: url(#Degradado_sin_nombre_8-2);
      }

      .cls-18 {
        fill: url(#Degradado_sin_nombre_21);
      }

      .cls-19 {
        fill: url(#Degradado_sin_nombre_37-9);
      }

      .cls-20 {
        fill: url(#Degradado_sin_nombre_2-5);
      }

      .cls-21 {
        fill: url(#Degradado_sin_nombre_37);
      }

      .cls-22 {
        fill: url(#Degradado_sin_nombre_2-3);
      }

      .cls-23 {
        fill: url(#Degradado_sin_nombre_37-10);
      }

      .cls-24 {
        fill: url(#Degradado_sin_nombre_2-2);
      }

      .cls-25 {
        fill: url(#Degradado_sin_nombre_37-4);
      }

      .cls-26 {
        fill: url(#Degradado_sin_nombre_37-6);
      }

      .cls-27 {
        fill: url(#Degradado_sin_nombre_12);
      }
    </style>
    <linearGradient id="Degradado_sin_nombre_2" x1="70.79" y1="140.98" x2="70.79" y2="2.82"
      gradientUnits="userSpaceOnUse">
      <stop offset="0" stop-color="#c9ccd1" />
      <stop offset="1" stop-color="#fff" />
    </linearGradient>
    <linearGradient id="Degradado_sin_nombre_12" x1="70.79" y1="7.16" x2="70.79" y2="130.78"
      gradientUnits="userSpaceOnUse">
      <stop offset="0" stop-color="#1f1f1f" />
      <stop offset="1" stop-color="#0a0a0a" />
    </linearGradient>
    <radialGradient id="Degradado_sin_nombre_37" cx="70.78" cy="109.11" fx="70.78" fy="109.11" r="20.08"
      gradientUnits="userSpaceOnUse">
      <stop offset="0" stop-color="#fffb00" />
      <stop offset="1" stop-color="#f80" />
    </radialGradient>
    <radialGradient id="Degradado_sin_nombre_37-2" cx="53.33" cy="105.94" fx="53.33" fy="105.94" r="20.65"
      xlink:href="#Degradado_sin_nombre_37" />
    <radialGradient id="Degradado_sin_nombre_37-3" cx="40.99" cy="96.97" fx="40.99" fy="96.97" r="20.98"
      xlink:href="#Degradado_sin_nombre_37" />
    <radialGradient id="Degradado_sin_nombre_37-4" cx="33.37" cy="83.76" fx="33.37" fy="83.76" r="20.43"
      xlink:href="#Degradado_sin_nombre_37" />
    <radialGradient id="Degradado_sin_nombre_37-5" cx="31.77" cy="64.22" fx="31.77" fy="64.22" r="20.01"
      xlink:href="#Degradado_sin_nombre_37" />
    <radialGradient id="Degradado_sin_nombre_37-6" cx="36.49" cy="49.02" fx="36.49" fy="49.02" r="20.82"
      xlink:href="#Degradado_sin_nombre_37" />
    <radialGradient id="Degradado_sin_nombre_37-7" cx="46.69" cy="37.69" fx="46.69" fy="37.69" r="20.93"
      xlink:href="#Degradado_sin_nombre_37" />
    <radialGradient id="Degradado_sin_nombre_37-8" cx="60.63" cy="31.49" fx="60.63" fy="31.49" r="20.16"
      xlink:href="#Degradado_sin_nombre_37" />
    <radialGradient id="Degradado_sin_nombre_37-9" cx="80.94" cy="31.49" fx="80.94" fy="31.49" r="20.15"
      xlink:href="#Degradado_sin_nombre_37" />
    <radialGradient id="Degradado_sin_nombre_37-10" cx="94.88" cy="37.69" fx="94.88" fy="37.69" r="20.93"
      xlink:href="#Degradado_sin_nombre_37" />
    <radialGradient id="Degradado_sin_nombre_37-11" cx="105.08" cy="49.03" fx="105.08" fy="49.03" r="20.82"
      xlink:href="#Degradado_sin_nombre_37" />
    <radialGradient id="Degradado_sin_nombre_37-12" cx="109.79" cy="64.23" fx="109.79" fy="64.23" r="20.01"
      xlink:href="#Degradado_sin_nombre_37" />
    <radialGradient id="Degradado_sin_nombre_37-13" cx="108.2" cy="83.77" fx="108.2" fy="83.77" r="20.43"
      xlink:href="#Degradado_sin_nombre_37" />
    <radialGradient id="Degradado_sin_nombre_37-14" cx="100.57" cy="96.98" fx="100.57" fy="96.98" r="20.98"
      xlink:href="#Degradado_sin_nombre_37" />
    <radialGradient id="Degradado_sin_nombre_37-15" cx="88.23" cy="105.94" fx="88.23" fy="105.94" r="20.65"
      xlink:href="#Degradado_sin_nombre_37" />
    <linearGradient id="Degradado_sin_nombre_16" x1="70.79" y1="99.95" x2="70.79" y2="41.31"
      gradientUnits="userSpaceOnUse">
      <stop offset="0" stop-color="#3700ff" />
      <stop offset="1" stop-color="#ff00e6" />
    </linearGradient>
    <linearGradient id="Degradado_sin_nombre_2-2" x1="61.06" y1="70.15" x2="61.06" y2="35.81"
      xlink:href="#Degradado_sin_nombre_2" />
    <linearGradient id="Degradado_sin_nombre_21" x1="61.06" y1="67.91" x2="61.06" y2="38.1"
      gradientUnits="userSpaceOnUse">
      <stop offset="0" stop-color="#0a0a0a" />
      <stop offset="1" stop-color="#1f1f1f" />
    </linearGradient>
    <linearGradient id="Degradado_sin_nombre_2-3" x1="80.51" y1="70.15" x2="80.51" y2="35.81"
      xlink:href="#Degradado_sin_nombre_2" />
    <linearGradient id="Degradado_sin_nombre_21-2" x1="80.51" x2="80.51" xlink:href="#Degradado_sin_nombre_21" />
    <linearGradient id="Degradado_sin_nombre_8" x1="47.57" y1="83.73" x2="94" y2="83.73" gradientUnits="userSpaceOnUse">
      <stop offset="0" stop-color="#141414" />
      <stop offset="1" stop-color="#141414" />
    </linearGradient>
    <linearGradient id="Degradado_sin_nombre_8-2" x1="45.23" y1="70.95" x2="52.91" y2="70.95"
      xlink:href="#Degradado_sin_nombre_8" />
    <linearGradient id="Degradado_sin_nombre_8-3" x1="88.66" y1="70.95" x2="96.34" y2="70.95"
      xlink:href="#Degradado_sin_nombre_8" />
    <linearGradient id="Degradado_sin_nombre_2-4" x1="40.7" y1="59.42" x2="47.51" y2="61.77"
      xlink:href="#Degradado_sin_nombre_2" />
    <linearGradient id="Degradado_sin_nombre_2-5" x1="101.03" y1="59.03" x2="95.11" y2="61.71"
      xlink:href="#Degradado_sin_nombre_2" />
  </defs>
  <g id="OBJECTS">
    <path class="cls-14"
      d="M70.77,140.98c-5.44,0-10.48-2.66-13.61-6.98-2.55,1.49-5.46,2.29-8.45,2.29-1.53,0-3.07-.21-4.56-.63-4.32-1.22-7.91-4.04-10.11-7.96-.84-1.5-1.44-3.11-1.79-4.77-.6.06-1.2.1-1.81.1-3.91,0-7.72-1.38-10.74-3.88-4.86-4.04-6.97-10.44-5.69-16.46-4.29-1.37-7.87-4.41-9.92-8.57-2.79-5.66-2.12-12.37,1.49-17.34C2.23,73.77.2,69.52.01,64.89c-.18-4.49,1.4-8.77,4.45-12.07,1.17-1.26,2.51-2.33,3.98-3.18-.03-.08-.07-.16-.1-.23-1.77-4.12-1.83-8.69-.17-12.86,2.35-5.9,7.7-9.88,13.91-10.51-.02-4.51,1.77-8.85,5.07-12.08,3.16-3.08,7.32-4.77,11.73-4.77,1.79,0,3.56.28,5.25.83,1.82-4.13,5.22-7.37,9.55-8.97,1.88-.69,3.84-1.04,5.82-1.04,4.19,0,8.22,1.59,11.29,4.37C73.85,1.59,77.88,0,82.06,0c.36,0,.73.01,1.1.03,4.48.29,8.58,2.31,11.54,5.69,1.13,1.29,2.06,2.74,2.74,4.29,1.68-.55,3.46-.84,5.25-.84,2.7,0,5.41.67,7.81,1.93,5.59,2.94,8.99,8.77,8.99,14.93,4.52.45,8.64,2.7,11.49,6.31,3.91,4.96,4.64,11.67,2.14,17.28,3.91,2.23,6.78,5.96,7.92,10.45,1.11,4.35.45,8.87-1.84,12.73-.88,1.48-1.97,2.8-3.24,3.94.05.07.1.14.15.21,2.59,3.66,3.6,8.12,2.84,12.54-1.07,6.25-5.57,11.28-11.42,13.17.96,4.41.11,9.03-2.45,12.87-3.13,4.68-8.36,7.48-13.99,7.48-.6,0-1.2-.03-1.8-.1-.92,4.42-3.57,8.3-7.47,10.76-2.69,1.7-5.79,2.6-8.97,2.6-3.01,0-5.92-.79-8.46-2.27-2.63,3.66-6.63,6.12-11.2,6.79-.81.12-1.62.18-2.43.18Z" />
    <path class="cls-27"
      d="M70.77,138.12c-5.58,0-10.53-3.38-12.73-8.29-2.5,2.26-5.8,3.6-9.33,3.6-1.27,0-2.55-.18-3.78-.52-3.59-1.01-6.56-3.35-8.39-6.6-1.19-2.12-1.79-4.45-1.79-6.82-1.37.44-2.83.68-4.31.68-3.24,0-6.41-1.14-8.91-3.22-4.91-4.08-6.3-10.84-3.83-16.4-4.75-.49-8.9-3.35-11.05-7.7-2.82-5.72-1.35-12.45,3.16-16.53-4.01-2.31-6.75-6.57-6.95-11.54-.15-3.72,1.16-7.28,3.69-10.01,1.65-1.78,3.68-3.08,5.93-3.81-.6-.83-1.11-1.72-1.52-2.68-1.47-3.42-1.52-7.21-.14-10.67,2.13-5.34,7.21-8.79,12.96-8.79.49,0,.98.03,1.46.08-.95-4.52.35-9.42,3.9-12.88,2.62-2.55,6.08-3.96,9.73-3.96,2.5,0,4.88.65,6.98,1.86.97-4.52,4.16-8.46,8.8-10.18,1.56-.58,3.18-.87,4.83-.87,4.52,0,8.7,2.21,11.29,5.76,2.55-3.5,6.67-5.76,11.27-5.76.3,0,.61,0,.92.03,3.72.24,7.12,1.92,9.57,4.72,1.6,1.82,2.68,3.98,3.16,6.29,2.08-1.2,4.48-1.86,6.98-1.86,2.24,0,4.48.55,6.48,1.6,5.65,2.97,8.42,9.29,7.15,15.24.48-.05.96-.07,1.45-.07,4.3,0,8.29,1.93,10.96,5.31,3.95,5.01,3.91,11.91.34,16.83,4.46,1.45,8,5.09,9.2,9.83.92,3.61.38,7.36-1.53,10.56-1.24,2.09-2.96,3.78-5.01,4.95.76.69,1.44,1.46,2.05,2.31,2.15,3.04,2.99,6.74,2.36,10.41-1.07,6.24-6.13,10.89-12.29,11.52,1.87,4.23,1.61,9.29-1.14,13.41-2.59,3.88-6.93,6.2-11.61,6.2-1.47,0-2.92-.23-4.31-.68,0,4.62-2.31,9.15-6.49,11.79-2.23,1.41-4.81,2.16-7.44,2.16-3.52,0-6.82-1.3-9.35-3.58-1.89,4.22-5.83,7.41-10.73,8.13-.67.1-1.35.15-2.02.15Z" />
    <path class="cls-21"
      d="M76.74,88.12l5.01,34.45c.88,6.06-3.31,11.68-9.37,12.56-6.06.88-11.68-3.31-12.56-9.37-.16-1.07-.14-2.17,0-3.19l5.01-34.45c.48-3.29,3.53-5.57,6.82-5.09,2.7.39,4.71,2.52,5.09,5.09Z" />
    <path class="cls-5"
      d="M68.81,88.97l-9.44,33.51c-1.66,5.89-7.78,9.32-13.67,7.66-5.89-1.66-9.32-7.78-7.66-13.67.29-1.04.75-2.04,1.3-2.91l18.59-29.44c1.77-2.81,5.49-3.65,8.3-1.87,2.3,1.46,3.28,4.22,2.58,6.72Z" />
    <path class="cls-9"
      d="M61.22,86.51l-22.25,26.78c-3.91,4.71-10.9,5.35-15.6,1.44-4.71-3.91-5.35-10.9-1.44-15.6.69-.83,1.52-1.56,2.37-2.13l28.96-19.33c2.76-1.85,6.5-1.1,8.35,1.66,1.51,2.27,1.28,5.19-.38,7.19Z" />
    <path class="cls-25"
      d="M55.29,81.19l-31.22,15.41c-5.49,2.71-12.13.46-14.84-5.03-2.71-5.49-.46-12.13,5.03-14.84.97-.48,2.02-.81,3.03-.99l34.32-5.88c3.28-.56,6.39,1.64,6.95,4.91.46,2.69-.94,5.26-3.27,6.41Z" />
    <path class="cls-8"
      d="M52.04,73.91l-34.79,1.38c-6.11.24-11.27-4.52-11.51-10.63-.24-6.11,4.52-11.27,10.63-11.51,1.08-.04,2.18.09,3.17.33l33.74,8.58c3.22.82,5.17,4.09,4.35,7.32-.67,2.64-3,4.42-5.59,4.53Z" />
    <path class="cls-26"
      d="M52.03,65.94l-32.34-12.89c-5.68-2.27-8.46-8.71-6.19-14.4,2.27-5.68,8.71-8.46,14.4-6.19,1,.4,1.95.96,2.76,1.59l27.33,21.57c2.61,2.06,3.06,5.84,1,8.45-1.69,2.14-4.54,2.82-6.95,1.86Z" />
    <path class="cls-10"
      d="M55.26,58.65l-24.3-24.93c-4.27-4.38-4.18-11.4.2-15.67,4.38-4.27,11.4-4.18,15.67.2.75.77,1.39,1.67,1.87,2.58l16.2,30.82c1.55,2.94.41,6.58-2.53,8.13-2.41,1.27-5.3.73-7.11-1.13Z" />
    <path class="cls-13"
      d="M61.17,53.31l-12.06-32.66c-2.12-5.74.81-12.11,6.55-14.23,5.74-2.12,12.11.81,14.23,6.55.37,1.01.59,2.1.66,3.12l2.26,34.74c.22,3.32-2.3,6.18-5.61,6.4-2.72.18-5.14-1.49-6.04-3.92Z" />
    <path class="cls-19"
      d="M68.75,50.84l2.26-34.74c.4-6.11,5.67-10.73,11.78-10.34,6.11.4,10.73,5.67,10.34,11.78-.07,1.08-.31,2.15-.66,3.12l-12.06,32.66c-1.15,3.12-4.61,4.71-7.73,3.56-2.56-.94-4.09-3.45-3.92-6.04Z" />
    <path class="cls-23"
      d="M76.68,51.66l16.2-30.82c2.85-5.42,9.55-7.5,14.96-4.65,5.42,2.85,7.5,9.55,4.65,14.96-.5.95-1.16,1.84-1.87,2.58l-24.3,24.93c-2.32,2.38-6.13,2.43-8.51.11-1.95-1.9-2.33-4.81-1.13-7.11Z" />
    <path class="cls-17"
      d="M83.59,55.63l27.33-21.57c4.8-3.79,11.77-2.97,15.56,1.84,3.79,4.8,2.97,11.77-1.84,15.56-.85.67-1.81,1.21-2.76,1.59l-32.34,12.89c-3.09,1.23-6.59-.28-7.82-3.36-1.01-2.53-.17-5.34,1.86-6.95Z" />
    <path class="cls-15"
      d="M88.28,62.07l33.74-8.58c5.93-1.51,11.96,2.08,13.47,8.01,1.51,5.93-2.08,11.96-8.01,13.47-1.05.27-2.15.37-3.17.33l-34.79-1.38c-3.32-.13-5.91-2.93-5.77-6.25.11-2.72,2.02-4.95,4.53-5.59Z" />
    <path class="cls-6"
      d="M89.95,69.87l34.32,5.88c6.03,1.03,10.08,6.76,9.05,12.79-1.03,6.03-6.76,10.08-12.79,9.05-1.06-.18-2.11-.54-3.03-.99l-31.22-15.41c-2.98-1.47-4.2-5.08-2.73-8.06,1.21-2.44,3.86-3.7,6.41-3.27Z" />
    <path class="cls-16"
      d="M88.31,77.67l28.96,19.33c5.09,3.4,6.46,10.28,3.06,15.37-3.4,5.09-10.28,6.46-15.37,3.06-.9-.6-1.71-1.35-2.37-2.13l-22.25-26.78c-2.12-2.56-1.77-6.35.78-8.47,2.1-1.74,5.03-1.81,7.19-.38Z" />
    <path class="cls-4"
      d="M83.63,84.12l18.59,29.44c3.27,5.17,1.72,12.02-3.45,15.29-5.17,3.27-12.02,1.72-15.29-3.45-.58-.91-1.01-1.93-1.3-2.91l-9.44-33.51c-.9-3.2.96-6.52,4.16-7.42,2.62-.74,5.33.39,6.72,2.58Z" />
    <path class="cls-7"
      d="M100.57,70.49c0,16.46-13.34,29.79-29.79,29.79s-29.79-13.33-29.79-29.79c0-1.23.08-2.44.23-3.62.57-4.72,2.24-9.1,4.76-12.88,5.33-8,14.45-13.28,24.8-13.28s19.45,5.27,24.79,13.27c2.53,3.78,4.2,8.17,4.77,12.89.15,1.18.23,2.39.23,3.62Z" />
    <ellipse class="cls-24" cx="61.06" cy="53.14" rx="8.26" ry="17" />
    <path class="cls-18"
      d="M67.26,53.14c0,8.15-2.78,14.77-6.2,14.77s-6.19-6.61-6.19-14.77,2.77-14.76,6.19-14.76c2.12,0,3.99,2.53,5.1,6.39l-4.46,3.37,5.19.05c.23,1.55.36,3.22.36,4.96Z" />
    <ellipse class="cls-22" cx="80.51" cy="53.14" rx="8.26" ry="17" />
    <path class="cls-12"
      d="M86.7,53.14c0,8.15-2.78,14.77-6.2,14.77s-6.19-6.61-6.19-14.77,2.77-14.76,6.19-14.76c2.12,0,3.99,2.53,5.1,6.39l-4.46,3.37,5.19.05c.23,1.55.36,3.22.36,4.96Z" />
    <path class="cls-2" d="M92.5,72.87c0,11.99-9.72,21.71-21.71,21.71s-21.71-9.72-21.71-21.71" />
    <path class="cls-3" d="M51.41,69.78c0,1.29-1.05,2.34-2.34,2.34s-2.34-1.05-2.34-2.34" />
    <path class="cls-1" d="M94.84,69.78c0,1.29-1.05,2.34-2.34,2.34s-2.34-1.05-2.34-2.34" />
    <path class="cls-11"
      d="M49.22,59.9c0,3.9-3.16,7.05-7.05,7.05-.32,0-.64-.02-.95-.08.57-4.72,2.24-9.1,4.76-12.88,1.94,1.25,3.23,3.44,3.23,5.92Z" />
    <path class="cls-20"
      d="M100.34,66.87c-.31.06-.62.08-.94.08-3.9,0-7.06-3.15-7.06-7.05,0-2.48,1.29-4.67,3.23-5.93,2.53,3.78,4.2,8.17,4.77,12.89Z" />
  </g>
</svg>