<?xml version="1.0" encoding="UTF-8"?>
<svg id="Capa_2" xmlns="http://www.w3.org/2000/svg" xmlns:xlink="http://www.w3.org/1999/xlink"
  viewBox="0 0 172.91 130.22">
  <defs>
    <style>
      .cls-1 {
        fill: url(#Degradado_sin_nombre_40-8);
      }

      .cls-2 {
        fill: url(#Degradado_sin_nombre_13-2);
      }

      .cls-3 {
        fill: url(#Degradado_sin_nombre_40-23);
      }

      .cls-4 {
        fill: url(#Degradado_sin_nombre_40-15);
      }

      .cls-5 {
        fill: url(#Degradado_sin_nombre_40-17);
      }

      .cls-6 {
        fill: url(#Degradado_sin_nombre_40-2);
      }

      .cls-7 {
        fill: url(#Degradado_sin_nombre_40-9);
      }

      .cls-8 {
        fill: url(#Degradado_sin_nombre_18-2);
      }

      .cls-9 {
        fill: url(#Degradado_sin_nombre_40-27);
      }

      .cls-10 {
        fill: url(#Degradado_sin_nombre_40-10);
      }

      .cls-11 {
        fill: url(#Degradado_sin_nombre_40-13);
      }

      .cls-12 {
        fill: url(#Degradado_sin_nombre_40-4);
      }

      .cls-13 {
        stroke: url(#Degradado_sin_nombre_8-3);
      }

      .cls-13,
      .cls-14,
      .cls-15 {
        fill: none;
        stroke-linecap: round;
        stroke-linejoin: round;
        stroke-width: 3.27px;
      }

      .cls-16 {
        fill: url(#Degradado_sin_nombre_40-20);
      }

      .cls-17 {
        fill: url(#Degradado_sin_nombre_40-19);
      }

      .cls-18 {
        fill: url(#Degradado_sin_nombre_40-21);
      }

      .cls-19 {
        fill: url(#Degradado_sin_nombre_40-18);
      }

      .cls-20 {
        fill: url(#Degradado_sin_nombre_40-28);
      }

      .cls-21 {
        fill: url(#Degradado_sin_nombre_40-6);
      }

      .cls-22 {
        fill: url(#Degradado_sin_nombre_2);
      }

      .cls-14 {
        stroke: url(#Degradado_sin_nombre_8-2);
      }

      .cls-23 {
        fill: url(#Degradado_sin_nombre_40-14);
      }

      .cls-24 {
        fill: url(#Degradado_sin_nombre_13);
      }

      .cls-25 {
        fill: url(#Degradado_sin_nombre_40-22);
      }

      .cls-26 {
        fill: url(#Degradado_sin_nombre_40-5);
      }

      .cls-27 {
        fill: url(#Degradado_sin_nombre_40-12);
      }

      .cls-28 {
        fill: url(#Degradado_sin_nombre_40-25);
      }

      .cls-29 {
        fill: url(#Degradado_sin_nombre_40-26);
      }

      .cls-30 {
        fill: url(#Degradado_sin_nombre_2-3);
      }

      .cls-31 {
        fill: url(#Degradado_sin_nombre_18-5);
      }

      .cls-32 {
        fill: url(#Degradado_sin_nombre_18);
      }

      .cls-33 {
        fill: url(#Degradado_sin_nombre_40-7);
      }

      .cls-34 {
        fill: url(#Degradado_sin_nombre_18-4);
      }

      .cls-35 {
        fill: url(#Degradado_sin_nombre_12-2);
      }

      .cls-36 {
        fill: url(#Degradado_sin_nombre_18-3);
      }

      .cls-37 {
        fill: url(#Degradado_sin_nombre_40-24);
      }

      .cls-15 {
        stroke: url(#Degradado_sin_nombre_8);
      }

      .cls-38 {
        fill: url(#Degradado_sin_nombre_40-3);
      }

      .cls-39 {
        fill: url(#Degradado_sin_nombre_40);
      }

      .cls-40 {
        fill: url(#Degradado_sin_nombre_2-2);
      }

      .cls-41 {
        fill: url(#Degradado_sin_nombre_40-11);
      }

      .cls-42 {
        fill: url(#Degradado_sin_nombre_40-16);
      }

      .cls-43 {
        fill: url(#Degradado_sin_nombre_12);
      }
    </style>
    <linearGradient id="Degradado_sin_nombre_2" x1="86.46" y1="130.01" x2="86.46" y2="7.13"
      gradientUnits="userSpaceOnUse">
      <stop offset="0" stop-color="#c9ccd1" />
      <stop offset="1" stop-color="#fff" />
    </linearGradient>
    <linearGradient id="Degradado_sin_nombre_12" x1="86.46" y1="-4.28" x2="86.46" y2="126.76"
      gradientUnits="userSpaceOnUse">
      <stop offset="0" stop-color="#1f1f1f" />
      <stop offset="1" stop-color="#0a0a0a" />
    </linearGradient>
    <linearGradient id="Degradado_sin_nombre_12-2" x1="25.88" y1="-4.28" x2="25.88" y2="126.76"
      xlink:href="#Degradado_sin_nombre_12" />
    <linearGradient id="Degradado_sin_nombre_18" x1="84.47" y1="142.83" x2="84.47" y2="45.08"
      gradientTransform="translate(3.74 -21.04) rotate(.42)" gradientUnits="userSpaceOnUse">
      <stop offset="0" stop-color="#8ad100" />
      <stop offset="1" stop-color="#dcf500" />
    </linearGradient>
    <linearGradient id="Degradado_sin_nombre_8" x1="44.51" y1="108.06" x2="124.59" y2="108.06"
      gradientTransform="translate(3.74 -21.04) rotate(.42)" gradientUnits="userSpaceOnUse">
      <stop offset="0" stop-color="#141414" />
      <stop offset="1" stop-color="#141414" />
    </linearGradient>
    <linearGradient id="Degradado_sin_nombre_8-2" x1="40.82" y1="88.21" x2="51.47" y2="88.21"
      xlink:href="#Degradado_sin_nombre_8" />
    <linearGradient id="Degradado_sin_nombre_8-3" x1="-418.19" y1="87.21" x2="-407.53" y2="87.21"
      gradientTransform="translate(-286.17 -22.17) rotate(-179.58) scale(1 -1)" xlink:href="#Degradado_sin_nombre_8" />
    <linearGradient id="Degradado_sin_nombre_18-2" x1="5353.27" y1="-665.13" x2="5401.61" y2="-653.44"
      gradientTransform="translate(3568.27 4176.98) rotate(-123.84)" xlink:href="#Degradado_sin_nombre_18" />
    <linearGradient id="Degradado_sin_nombre_40" x1="5351.21" y1="-658.1" x2="5358.12" y2="-658.1"
      gradientTransform="translate(3568.27 4176.98) rotate(-123.84)" gradientUnits="userSpaceOnUse">
      <stop offset="0" stop-color="#71ab00" />
      <stop offset="1" stop-color="#97a800" />
    </linearGradient>
    <linearGradient id="Degradado_sin_nombre_40-2" x1="5386.38" y1="-662.96" x2="5393.29" y2="-662.96"
      xlink:href="#Degradado_sin_nombre_40" />
    <linearGradient id="Degradado_sin_nombre_40-3" x1="5361.1" y1="-660.54" x2="5383.4" y2="-660.54"
      xlink:href="#Degradado_sin_nombre_40" />
    <linearGradient id="Degradado_sin_nombre_40-4" x1="5350.04" y1="-668.17" x2="5353.65" y2="-668.17"
      xlink:href="#Degradado_sin_nombre_40" />
    <linearGradient id="Degradado_sin_nombre_40-5" x1="5349.74" y1="-650.81" x2="5353.28" y2="-650.81"
      xlink:href="#Degradado_sin_nombre_40" />
    <linearGradient id="Degradado_sin_nombre_40-6" x1="5391.49" y1="-670.22" x2="5394.77" y2="-670.22"
      xlink:href="#Degradado_sin_nombre_40" />
    <linearGradient id="Degradado_sin_nombre_40-7" x1="5391.11" y1="-652.85" x2="5394.47" y2="-652.85"
      xlink:href="#Degradado_sin_nombre_40" />
    <linearGradient id="Degradado_sin_nombre_18-3" x1="594.72" y1="3276.67" x2="642.98" y2="3288.34"
      gradientTransform="translate(2712.74 -2084.14) rotate(60.84)" xlink:href="#Degradado_sin_nombre_18" />
    <linearGradient id="Degradado_sin_nombre_40-8" x1="592.68" y1="3283.68" x2="599.59" y2="3283.68"
      gradientTransform="translate(2712.74 -2084.14) rotate(60.84)" xlink:href="#Degradado_sin_nombre_40" />
    <linearGradient id="Degradado_sin_nombre_40-9" x1="627.74" y1="3278.85" x2="634.65" y2="3278.85"
      gradientTransform="translate(2712.74 -2084.14) rotate(60.84)" xlink:href="#Degradado_sin_nombre_40" />
    <linearGradient id="Degradado_sin_nombre_40-10" x1="602.55" y1="3281.25" x2="624.78" y2="3281.25"
      gradientTransform="translate(2712.74 -2084.14) rotate(60.84)" xlink:href="#Degradado_sin_nombre_40" />
    <linearGradient id="Degradado_sin_nombre_40-11" x1="591.51" y1="3273.57" x2="595.11" y2="3273.57"
      gradientTransform="translate(2712.74 -2084.14) rotate(60.84)" xlink:href="#Degradado_sin_nombre_40" />
    <linearGradient id="Degradado_sin_nombre_40-12" x1="591.23" y1="3290.98" x2="594.77" y2="3290.98"
      gradientTransform="translate(2712.74 -2084.14) rotate(60.84)" xlink:href="#Degradado_sin_nombre_40" />
    <linearGradient id="Degradado_sin_nombre_40-13" x1="632.83" y1="3271.58" x2="636.1" y2="3271.58"
      gradientTransform="translate(2712.74 -2084.14) rotate(60.84)" xlink:href="#Degradado_sin_nombre_40" />
    <linearGradient id="Degradado_sin_nombre_40-14" x1="632.49" y1="3289" x2="635.83" y2="3289"
      gradientTransform="translate(2712.74 -2084.14) rotate(60.84)" xlink:href="#Degradado_sin_nombre_40" />
    <linearGradient id="Degradado_sin_nombre_18-4" x1="3372.27" y1="-1853.74" x2="3403.08" y2="-1846.29"
      gradientTransform="translate(3315.73 -2108.75) rotate(116.47) scale(1 -1)"
      xlink:href="#Degradado_sin_nombre_18" />
    <linearGradient id="Degradado_sin_nombre_40-15" x1="3370.98" y1="-1849.28" x2="3375.39" y2="-1849.28"
      gradientTransform="translate(3315.73 -2108.75) rotate(116.47) scale(1 -1)"
      xlink:href="#Degradado_sin_nombre_40" />
    <linearGradient id="Degradado_sin_nombre_40-16" x1="3393.34" y1="-1852.34" x2="3397.75" y2="-1852.34"
      gradientTransform="translate(3315.73 -2108.75) rotate(116.47) scale(1 -1)"
      xlink:href="#Degradado_sin_nombre_40" />
    <linearGradient id="Degradado_sin_nombre_40-17" x1="3377.28" y1="-1850.82" x2="3391.45" y2="-1850.82"
      gradientTransform="translate(3315.73 -2108.75) rotate(116.47) scale(1 -1)"
      xlink:href="#Degradado_sin_nombre_40" />
    <linearGradient id="Degradado_sin_nombre_40-18" x1="3370.23" y1="-1855.75" x2="3372.52" y2="-1855.75"
      gradientTransform="translate(3315.73 -2108.75) rotate(116.47) scale(1 -1)"
      xlink:href="#Degradado_sin_nombre_40" />
    <linearGradient id="Degradado_sin_nombre_40-19" x1="3370.06" y1="-1844.61" x2="3372.32" y2="-1844.61"
      gradientTransform="translate(3315.73 -2108.75) rotate(116.47) scale(1 -1)"
      xlink:href="#Degradado_sin_nombre_40" />
    <linearGradient id="Degradado_sin_nombre_40-20" x1="3396.58" y1="-1856.99" x2="3398.67" y2="-1856.99"
      gradientTransform="translate(3315.73 -2108.75) rotate(116.47) scale(1 -1)"
      xlink:href="#Degradado_sin_nombre_40" />
    <linearGradient id="Degradado_sin_nombre_40-21" x1="3396.37" y1="-1845.85" x2="3398.5" y2="-1845.85"
      gradientTransform="translate(3315.73 -2108.75) rotate(116.47) scale(1 -1)"
      xlink:href="#Degradado_sin_nombre_40" />
    <linearGradient id="Degradado_sin_nombre_18-5" x1="3717.01" y1="-1934.08" x2="3747.87" y2="-1926.62"
      gradientTransform="translate(3636.09 -2110.67) rotate(121.89) scale(1 -1)"
      xlink:href="#Degradado_sin_nombre_18" />
    <linearGradient id="Degradado_sin_nombre_40-22" x1="3715.7" y1="-1929.59" x2="3720.11" y2="-1929.59"
      gradientTransform="translate(3636.09 -2110.67) rotate(121.89) scale(1 -1)"
      xlink:href="#Degradado_sin_nombre_40" />
    <linearGradient id="Degradado_sin_nombre_40-23" x1="3738.14" y1="-1932.69" x2="3742.55" y2="-1932.69"
      gradientTransform="translate(3636.09 -2110.67) rotate(121.89) scale(1 -1)"
      xlink:href="#Degradado_sin_nombre_40" />
    <linearGradient id="Degradado_sin_nombre_40-24" x1="3722.01" y1="-1931.15" x2="3736.24" y2="-1931.15"
      gradientTransform="translate(3636.09 -2110.67) rotate(121.89) scale(1 -1)"
      xlink:href="#Degradado_sin_nombre_40" />
    <linearGradient id="Degradado_sin_nombre_40-25" x1="3714.95" y1="-1936.04" x2="3717.26" y2="-1936.04"
      gradientTransform="translate(3636.09 -2110.67) rotate(121.89) scale(1 -1)"
      xlink:href="#Degradado_sin_nombre_40" />
    <linearGradient id="Degradado_sin_nombre_40-26" x1="3714.76" y1="-1924.93" x2="3717.02" y2="-1924.93"
      gradientTransform="translate(3636.09 -2110.67) rotate(121.89) scale(1 -1)"
      xlink:href="#Degradado_sin_nombre_40" />
    <linearGradient id="Degradado_sin_nombre_40-27" x1="3741.39" y1="-1937.33" x2="3743.49" y2="-1937.33"
      gradientTransform="translate(3636.09 -2110.67) rotate(121.89) scale(1 -1)"
      xlink:href="#Degradado_sin_nombre_40" />
    <linearGradient id="Degradado_sin_nombre_40-28" x1="3741.16" y1="-1926.22" x2="3743.3" y2="-1926.22"
      gradientTransform="translate(3636.09 -2110.67) rotate(121.89) scale(1 -1)"
      xlink:href="#Degradado_sin_nombre_40" />
    <linearGradient id="Degradado_sin_nombre_2-2" x1="52.71" y1="197.15" x2="52.71" y2="135.75"
      gradientTransform="translate(19.6 -149.17) rotate(.06) scale(1 1.14)" xlink:href="#Degradado_sin_nombre_2" />
    <linearGradient id="Degradado_sin_nombre_13" x1="52.71" y1="193.15" x2="52.71" y2="139.83"
      gradientTransform="translate(19.6 -149.17) rotate(.06) scale(1 1.14)" gradientUnits="userSpaceOnUse">
      <stop offset="0" stop-color="#1f1f1f" />
      <stop offset="1" stop-color="#0a0a0a" />
    </linearGradient>
    <linearGradient id="Degradado_sin_nombre_2-3" x1="83.58" y1="197.12" x2="83.58" y2="135.72"
      gradientTransform="translate(19.6 -149.17) rotate(.06) scale(1 1.14)" xlink:href="#Degradado_sin_nombre_2" />
    <linearGradient id="Degradado_sin_nombre_13-2" x1="83.58" y1="193.12" x2="83.58" y2="139.8"
      xlink:href="#Degradado_sin_nombre_13" />
  </defs>
  <g id="OBJECTS">
    <g id="rave">
      <path class="cls-22"
        d="M169,70.62l-11.33,6.08,7.43,3.54c2.33,1.12,3.87,3.39,4,5.91.03.52.04,1.04.02,1.58-.01.16-.02.31-.03.48-.02.33-.05.65-.09.95-.01.11-.04.31-.07.43,0,.02,0,.04-.01.07-.94,5.99-4.95,10.04-8.18,13.3-2.59,2.61-4.63,4.67-4.79,6.92v.2s-.01.38-.01.38c.1,1.87-.57,3.62-1.86,4.93-1.26,1.27-3.03,2-4.86,2-1.04,0-2.06-.22-3-.67l-11.05-5.29c-.7-.33-1.32-.77-1.85-1.27-11.53,12.65-28.23,20.06-45.77,20.06h-.45c-18.12-.13-35.36-8.13-46.74-21.56l-4.13,2.65c-1.13.74-2.48,1.14-3.86,1.14-3.62,0-6.57-2.67-6.85-6.24-.02-.33-.07-.66-.12-.96l-.1-.48c-.04-.18-.08-.37-.12-.54-1.16-4.35-5.26-7.53-10.01-11.22-5.76-4.49-12.3-9.57-14.5-18.08-.1-.37-.17-.75-.24-1.13l-.05-.25c-.03-.14-.08-.32-.11-.52-.11-.68-.2-1.36-.25-2.03-.22-2.64,1.11-5.29,3.36-6.74l14.83-9.56-8.77-5.23c-2.22-1.34-3.52-3.74-3.4-6.27.02-.48.07-.98.13-1.47.02-.17.05-.38.09-.59l.03-.17c.03-.19.08-.43.12-.65,1.37-6.22,5.94-10.03,9.6-13.08,2.74-2.29,4.9-4.1,5.38-6.18.01-.05.09-.5.09-.5.01-.06.02-.22.03-.37.15-3.53,3.11-6.3,6.73-6.3,1.28,0,2.52.34,3.62,1l10.43,6.25c2.18,1.29,3.52,3.74,3.42,6.24-.02.54-.08,1.06-.14,1.56-.02.15-.05.34-.09.54-.01.01-.01.03-.01.05,2.01-1.85,4.18-3.58,6.47-5.17C55.28,9.09,62.79.01,72.16.01c6.12,0,11.5,3.9,15.42,11.07,3.95-7.18,9.32-11.08,15.45-11.08,9.4.01,16.89,9.12,20.18,24.45,1.54,1.08,3.03,2.23,4.47,3.44l12.56-6.73c1.03-.56,2.22-.86,3.39-.86,1.83,0,3.55.68,4.83,1.93,1.33,1.27,2.04,3,2.02,4.86,0,.3.01.62.04.95,0,0,.05.43.05.45.02.2.04.38.08.56.79,4.45,4.61,7.95,9.02,12,5.37,4.93,11.45,10.51,12.91,19.16.07.36.11.74.15,1.12l.02.22c.02.16.05.37.07.58.05.68.09,1.36.08,2.04-.01,2.64-1.56,5.18-3.92,6.45Z" />
      <path class="cls-43"
        d="M169.59,62.4c-.01-.16-.03-.32-.06-.48l-.03-.26c-.03-.32-.07-.64-.12-.94-1.28-7.61-6.7-12.58-11.94-17.39-4.63-4.25-9.01-8.26-9.98-13.73-.05-.26-.08-.54-.11-.82l-.05-.41c-.04-.45-.06-.87-.05-1.29,0-1.02-.37-1.95-1.08-2.63-.67-.65-1.56-1.01-2.52-1.01-.62,0-1.25.16-1.8.46l-14.61,7.83c-2.16-1.98-4.49-3.8-6.96-5.44-2.8-14.31-9.34-23.14-17.23-23.15-5.79,0-10.97,4.83-14.42,13.34-.22,0-.98-.01-.98-.01-.35,0-.72,0-1.09.01-3.43-8.5-8.6-13.33-14.39-13.33-7.87,0-14.42,8.8-17.26,23.07-14.32,9.48-23.34,24.51-24.74,41.03-1.53-1.92-2.6-3.97-3.06-6.38l-.07-.34c-.07-.4-.12-.81-.15-1.23-.15-1.91-1.7-3.35-3.6-3.35-.72,0-1.43.21-2.05.61l-16.02,10.32c-1.28.82-2.05,2.39-1.93,3.9.05.59.12,1.18.21,1.75.03.15.06.29.09.43l.06.27c.06.32.13.64.21.95,1.93,7.49,7.75,12.02,13.38,16.39,4.98,3.87,9.68,7.53,11.12,12.89.07.27.12.54.18.81l.09.4c.07.42.13.85.16,1.3.15,1.91,1.7,3.35,3.6,3.35.73,0,1.44-.21,2.05-.61l6.66-4.29c10.75,14.12,27.72,22.53,46.04,22.66h.43c19.28,0,36.42-9.23,46.88-23.32-.01.11-.02.22-.03.36-.01.4,0,.81.02,1.2.07,1.39.93,2.68,2.21,3.29l11.03,5.28c.5.23,1.02.35,1.57.35.94,0,1.85-.37,2.5-1.03.68-.68,1.02-1.6.97-2.6-.01-.23-.02-.47,0-.73l.02-.21c.22-3.38,2.75-5.93,5.67-8.88,3.08-3.11,6.56-6.62,7.33-11.66,0-.03.01-.07.02-.1.01-.06.02-.17.03-.26.03-.26.05-.52.07-.83,0-.12.02-.23.02-.35.02-.42.01-.85-.01-1.29-.08-1.38-.94-2.67-2.21-3.27l-11.01-5.27c-.5-.24-1.05-.37-1.59-.37-.94,0-1.85.38-2.5,1.03-.68.69-1.02,1.6-.97,2.59.01.25.01.49,0,.78l-.02.22c0,.14-.02.27-.04.42-.41,3.15-2.83,5.58-5.63,8.41-.18.18-.36.37-.54.55,2.36-5.93,3.69-12.33,3.77-19.02v.11c.05.4.06.81.06,1.24,0,1.01.38,1.94,1.08,2.62.67.65,1.56,1,2.51,1h0c.62,0,1.24-.16,1.8-.46l16.84-9.03c1.34-.72,2.24-2.22,2.25-3.74,0-.59-.02-1.19-.06-1.76Z" />
      <path class="cls-35"
        d="M11.18,46.82l10.46,6.26c.57.34,1.21.51,1.86.51,1.87,0,3.4-1.45,3.48-3.3.01-.24.03-.47.06-.66l.04-.23c.53-3.38,3.31-5.7,6.53-8.38,3.37-2.82,7.19-6,8.45-10.95.01-.04.03-.08.04-.13.01-.06.03-.13.05-.2.06-.26.1-.52.15-.82.02-.13.05-.25.06-.36.06-.42.1-.84.12-1.28.06-1.39-.68-2.75-1.87-3.46l-10.45-6.25c-.57-.34-1.22-.52-1.88-.52-1.87,0-3.4,1.45-3.48,3.3-.01.25-.03.49-.07.75l-.04.2c-.03.16-.05.31-.08.46-.71,3.1-3.36,5.3-6.43,7.86-3.47,2.89-7.41,6.18-8.55,11.36-.04.17-.07.34-.09.52l-.04.21c-.03.15-.05.29-.07.43-.05.4-.09.81-.11,1.21-.06,1.38.67,2.74,1.87,3.47Z" />
      <ellipse class="cls-32" cx="87.54" cy="71.78" rx="54.31" ry="52.18" />
      <path class="cls-15" d="M126.04,69.47c-.16,20.38-17.48,36.78-38.69,36.63-21.21-.15-38.28-16.79-38.12-37.17" />
      <path class="cls-14" d="M45.55,67.24s3.62,2.74,7.39-.52" />
      <path class="cls-13" d="M129.75,67.84s-3.66,2.69-7.38-.63" />
      <path class="cls-8"
        d="M7.03,69.47c5.34-3.44,10.68-6.88,16.01-10.32.29-.19.55-.02.58.37,1.28,16.39,24.21,18.83,25.49,35.21.03.39-.2.87-.49,1.06-5.34,3.44-10.68,6.88-16.01,10.32-.29.19-.55.02-.58-.37-1.28-16.39-24.21-18.83-25.49-35.21-.03-.39.2-.87.49-1.06Z" />
      <path class="cls-39"
        d="M38.7,92.64c-.16.31-.24.63-.26.98-.02.34,0,.7.06,1.05.05.32.1.64.16.96-.46.3-.92.59-1.38.89-.04-.17-.08-.35-.11-.53-.02-.13-.04-.26-.06-.39-.06-.52-.51-.85-.99-.77t0,0c-.54.1-.88.64-.79,1.2.03.16.06.33.1.49.08.34.17.68.28,1.01-.16.1-.32.21-.49.31-.33.22-.48.69-.34,1.07t0,0c.14.38.5.52.84.3.17-.11.34-.22.5-.33.19.43.39.78.61,1.06.34.43.68.69,1.07.76.39.07.78-.03,1.2-.29.38-.24.68-.54.9-.88.22-.35.39-.72.49-1.11.1-.39.16-.8.17-1.21,0-.41,0-.79-.05-1.15.45-.29.9-.58,1.34-.87.07.33.1.68.09,1.06,0,.19-.01.39-.03.57-.06.6.21,1.06.64,1.03,0,0,.02,0,.03,0,.45-.03.91-.61.98-1.25.03-.25.04-.52.05-.79,0-.57-.06-1.11-.19-1.63.16-.1.32-.21.48-.31.34-.21.51-.71.37-1.08t0,0c-.14-.38-.53-.5-.87-.28-.17.11-.34.22-.52.33-.21-.37-.46-.65-.73-.87-.45-.36-.93-.53-1.42-.54-.49-.01-.93.12-1.35.38-.37.24-.63.51-.79.82ZM38.82,97.54c-.04.23-.14.4-.3.51-.11.07-.22.09-.34.06-.11-.03-.23-.11-.34-.26.34-.22.68-.44,1.02-.66,0,.12-.01.24-.03.34ZM41.09,93.71c.1.02.19.08.29.17-.31.2-.62.4-.93.6,0-.08,0-.15.01-.22.02-.22.11-.38.26-.48.12-.08.24-.1.37-.08Z" />
      <path class="cls-6"
        d="M15.65,65.75c-.22.35-.38.72-.48,1.12-.1.39-.15.79-.16,1.19,0,.36,0,.71.04,1.04-.46.3-.92.59-1.38.89-.03-.18-.05-.37-.06-.57,0-.14,0-.28,0-.43.02-.57-.28-1-.7-.95t0,0c-.47.05-.91.66-.95,1.3,0,.18-.01.37,0,.56.02.38.06.75.14,1.1-.16.1-.32.21-.49.31-.33.22-.51.71-.37,1.09t0,0c.13.38.53.5.86.29.17-.11.34-.22.5-.33.22.4.49.72.78.95.45.36.93.53,1.41.54.48.01.93-.12,1.35-.39.38-.24.65-.52.81-.82.16-.31.25-.63.27-.97.02-.34,0-.7-.05-1.06-.05-.37-.11-.72-.18-1.06.45-.29.9-.58,1.34-.87.09.31.16.64.21.98.03.18.05.34.06.51.05.53.5.88,1,.8.01,0,.02,0,.03,0,.53-.09.89-.6.8-1.14-.03-.21-.08-.44-.13-.68-.11-.49-.25-.98-.42-1.48.16-.1.32-.2.48-.31.34-.22.48-.69.35-1.07t0,0c-.13-.38-.5-.52-.84-.3-.17.11-.34.22-.52.33-.18-.39-.36-.71-.57-.97-.34-.43-.69-.69-1.08-.76-.39-.07-.78.02-1.2.28-.37.24-.67.53-.89.88ZM15.23,70.99c-.02.22-.11.38-.27.49-.11.07-.23.09-.36.07-.12-.02-.25-.09-.38-.23.34-.22.68-.44,1.02-.66,0,.12,0,.23,0,.33ZM17.51,67.16c.09.03.17.09.26.19-.31.2-.62.4-.93.6,0-.08.02-.16.03-.23.04-.23.14-.4.29-.5.12-.08.24-.1.35-.06Z" />
      <path class="cls-38"
        d="M19.26,74.96c3.46-2.23,9.68-.33,14.98,3.55,5.3,3.88,5.77,9.48,2.14,11.82-3.46,2.23-9.68.33-14.97-3.55-5.3-3.88-5.77-9.48-2.14-11.82Z" />
      <path class="cls-12"
        d="M31.47,102.58c1.55-1,3.3-.36,3.41,1.75,0,.1.01.2,0,.31-.76.49-1.52.98-2.29,1.47-.29.19-.55.02-.58-.37-.09-1.12-.28-2.17-.55-3.16Z" />
      <path class="cls-26"
        d="M48.56,91.58c.27,1,.46,2.05.55,3.16.03.39-.2.87-.49,1.06-.76.49-1.52.98-2.29,1.47-.02-.09-.02-.2-.03-.3-.11-2.11.68-4.39,2.26-5.4Z" />
      <path class="cls-21"
        d="M7.03,69.47c.77-.49,1.53-.99,2.3-1.48.08,2.13-.74,4.43-2.31,5.44-.24-.92-.4-1.88-.48-2.9-.03-.39.2-.87.49-1.06Z" />
      <path class="cls-33"
        d="M20.74,60.64c.77-.49,1.53-.99,2.3-1.48.29-.19.55-.02.58.37.08,1.02.24,1.98.48,2.9-1.56,1-3.28.34-3.35-1.79Z" />
      <path class="cls-36"
        d="M165.81,65.16c-5.61,3.01-11.23,6.02-16.84,9.03-.31.16-.54-.03-.54-.42.12-16.43-22.53-20.66-22.41-37.1,0-.39.27-.85.58-1.02,5.61-3.01,11.23-6.02,16.84-9.03.31-.17.55.03.54.42-.12,16.43,22.53,20.66,22.41,37.1,0,.39-.27.85-.58,1.02Z" />
      <path class="cls-1"
        d="M136.2,39.59c.18-.29.29-.61.34-.95.05-.34.06-.69.03-1.05-.02-.33-.05-.65-.08-.97.48-.26.97-.52,1.45-.78.03.17.05.35.07.54.01.13.02.26.02.39.01.53.43.89.93.84h0c.54-.06.94-.57.89-1.13-.01-.16-.03-.33-.06-.5-.05-.35-.11-.69-.19-1.03.17-.09.34-.18.51-.27.35-.19.54-.65.43-1.03t0,0c-.11-.39-.46-.56-.81-.37-.18.09-.35.19-.53.28-.15-.44-.32-.81-.51-1.1-.3-.45-.62-.74-1-.84-.38-.1-.78-.04-1.22.2-.4.21-.72.48-.98.81-.25.33-.45.68-.58,1.07-.14.38-.23.78-.27,1.19-.04.41-.06.79-.05,1.15-.47.25-.94.51-1.41.76-.04-.33-.04-.69,0-1.06.02-.19.05-.38.08-.57.11-.59-.12-1.08-.55-1.08,0,0-.02,0-.03,0-.45,0-.96.54-1.08,1.17-.05.25-.09.51-.11.79-.05.56-.04,1.11.05,1.64-.17.09-.33.18-.5.27-.35.19-.57.66-.46,1.05t0,0c.1.39.49.54.84.35.18-.1.36-.19.54-.29.18.38.4.69.65.92.42.39.88.6,1.36.65.48.05.94-.04,1.37-.27.39-.21.67-.46.86-.75ZM136.5,34.69c.06-.23.18-.39.35-.48.11-.06.23-.07.34-.04.11.03.22.13.32.28-.36.19-.72.38-1.07.58.01-.12.03-.24.06-.34ZM133.92,38.33c-.09-.03-.18-.09-.27-.2.33-.17.65-.35.98-.52,0,.08-.02.15-.03.22-.04.22-.14.37-.3.46-.13.07-.25.08-.37.05Z" />
      <path class="cls-7"
        d="M156.89,68.19c.25-.33.44-.69.57-1.08.13-.39.22-.78.26-1.18.04-.36.05-.7.05-1.04.48-.26.97-.52,1.45-.78.01.18.02.37,0,.57,0,.14-.02.28-.04.42-.07.57.19,1.02.62,1t0,0c.47-.02.97-.59,1.06-1.22.02-.18.04-.37.05-.56.02-.38,0-.75-.05-1.11.17-.09.34-.18.51-.27.35-.19.57-.66.47-1.05t0,0c-.1-.39-.49-.54-.84-.35-.18.09-.35.19-.53.28-.19-.42-.43-.75-.7-1-.42-.39-.88-.6-1.36-.65-.48-.05-.94.05-1.38.28-.4.21-.69.46-.87.76-.19.29-.31.61-.36.95-.05.34-.06.69-.04,1.07.02.37.05.73.09,1.08-.47.25-.94.51-1.41.76-.06-.32-.11-.65-.13-.99-.01-.18-.02-.35-.02-.52,0-.53-.42-.91-.93-.88-.01,0-.02,0-.03,0-.54.04-.94.53-.9,1.07.02.21.04.44.07.69.07.5.16,1,.29,1.51-.17.09-.33.18-.5.27-.35.19-.54.65-.44,1.04t0,0c.1.39.46.56.81.37.18-.1.36-.19.54-.29.15.4.3.74.48,1.01.3.46.63.74,1.01.84.38.1.78.04,1.22-.19.39-.21.71-.48.96-.81ZM157.76,63c.04-.22.14-.37.31-.46.11-.06.23-.08.36-.05.12.03.24.11.36.26-.36.19-.72.38-1.07.58,0-.12.02-.23.04-.33ZM155.16,66.64c-.09-.03-.16-.1-.24-.21.33-.17.65-.35.98-.52-.01.08-.03.16-.05.23-.06.23-.17.39-.34.47-.13.07-.25.08-.36.04Z" />
      <path class="cls-10"
        d="M154.08,58.73c-3.64,1.95-9.67-.44-14.62-4.71-4.95-4.28-4.94-9.9-1.13-11.95,3.64-1.95,9.67.43,14.62,4.71,4.95,4.28,4.94,9.9,1.13,11.95Z" />
      <path class="cls-41"
        d="M144.25,30.24c-1.63.87-3.32.1-3.25-2.01,0-.1,0-.2.03-.31.8-.43,1.6-.86,2.4-1.29.31-.17.55.03.54.42,0,1.12.09,2.18.28,3.2Z" />
      <path class="cls-27"
        d="M126.29,39.87c-.19-1.01-.29-2.08-.28-3.2,0-.39.27-.85.58-1.02.8-.43,1.6-.86,2.4-1.29.01.09,0,.2,0,.3-.07,2.11-1.05,4.32-2.71,5.21Z" />
      <path class="cls-11"
        d="M165.81,65.16c-.81.43-1.61.86-2.42,1.3.1-2.13,1.12-4.36,2.77-5.24.16.93.24,1.9.23,2.92,0,.39-.27.85-.58,1.02Z" />
      <path class="cls-23"
        d="M151.39,72.89c-.81.43-1.61.86-2.42,1.3-.31.16-.54-.03-.54-.42,0-1.02-.07-1.99-.23-2.92,1.64-.88,3.29-.09,3.19,2.04Z" />
      <path class="cls-34"
        d="M138.07,105.82c3.68,1.76,7.35,3.52,11.03,5.28.2.1.35-.03.33-.28-.59-10.48,13.73-13.83,13.15-24.32-.01-.25-.2-.54-.4-.63-3.68-1.76-7.35-3.52-11.03-5.28-.2-.1-.35.03-.33.28.59,10.48-13.73,13.83-13.15,24.32.01.25.2.54.4.63Z" />
      <path class="cls-4"
        d="M156.74,89.1c.28.13.58.18.88.14s.59-.2.85-.46c.15-.16.28-.36.39-.61.12.06.24.11.36.17.23.11.47,0,.53-.25t0,0c.05-.25-.1-.55-.33-.66-.11-.05-.22-.1-.33-.16.04-.34.03-.69-.02-1.05-.02-.17-.06-.34-.1-.5-.1-.4-.44-.73-.73-.72,0,0-.01,0-.02,0-.27.02-.4.33-.32.71.03.12.05.24.07.36.04.24.05.46.03.68-.31-.15-.62-.3-.93-.44,0-.23-.02-.47-.06-.73-.04-.26-.11-.51-.21-.75-.1-.24-.24-.46-.41-.67-.17-.2-.39-.36-.65-.49-.29-.14-.55-.17-.79-.09-.24.08-.44.27-.61.56-.11.19-.21.43-.29.72-.12-.06-.23-.11-.35-.17-.23-.11-.45,0-.51.26t0,0c-.06.25.08.54.31.65.11.05.22.11.33.16-.04.22-.07.44-.09.66-.01.11-.02.22-.02.32-.01.36.25.68.6.7t0,0c.32.02.57-.23.57-.56,0-.09,0-.17,0-.25,0-.12.01-.23.03-.35.32.15.63.3.95.46-.01.21-.02.42-.02.62,0,.23.01.45.05.67.04.22.12.41.25.6.13.18.32.33.57.46ZM155.88,85.75c-.23-.11-.47-.22-.7-.34.06-.1.13-.16.2-.19.07-.03.15-.02.22.01.11.05.19.15.24.3.02.07.04.14.05.22ZM157.35,87.76c-.11-.05-.17-.15-.21-.28-.01-.04-.02-.09-.03-.14.21.1.43.2.64.31-.05.07-.11.11-.17.13-.08.03-.16.02-.24-.02Z" />
      <path class="cls-42"
        d="M144.49,107.99c.28.14.54.16.78.09.24-.08.44-.27.62-.57.11-.18.2-.4.28-.66.12.06.24.11.36.17.23.11.45,0,.5-.26t0,0c.05-.25-.08-.54-.31-.65-.11-.05-.22-.1-.33-.16.07-.33.11-.65.14-.97.01-.16.02-.3.02-.44,0-.35-.26-.65-.61-.66,0,0-.01,0-.02,0-.33-.01-.58.25-.57.59,0,.11,0,.22,0,.33,0,.22-.02.43-.05.64-.31-.15-.62-.3-.93-.44.01-.22.02-.45.02-.69,0-.24-.02-.46-.06-.68-.04-.22-.13-.41-.26-.59-.13-.18-.32-.33-.58-.46-.29-.14-.58-.19-.89-.14-.3.04-.59.19-.85.45-.16.17-.31.39-.41.66-.12-.06-.23-.11-.35-.17-.23-.11-.47,0-.52.25t0,0c-.05.25.1.55.33.66.11.05.22.11.33.16-.02.23-.02.46,0,.71.01.12.03.24.05.35.08.4.41.75.71.75h0c.28,0,.43-.3.36-.66-.02-.09-.03-.18-.04-.27-.01-.13-.01-.25-.01-.36.32.15.63.3.95.46,0,.22.03.44.06.66.04.25.11.5.2.74.1.24.23.47.4.67.17.2.38.37.64.49ZM143.18,104.42c-.23-.11-.47-.22-.7-.34.07-.1.15-.15.22-.18.08-.02.16-.02.23.02.11.05.18.15.21.29.02.06.03.13.03.21ZM144.69,106.45c-.11-.05-.18-.15-.23-.29-.01-.04-.03-.09-.04-.14.21.1.43.2.64.31-.04.07-.09.12-.15.14-.07.03-.14.03-.23-.01Z" />
      <path class="cls-5"
        d="M145.36,101.38c2.38,1.14,6.16-.56,9.19-3.43,3.03-2.87,2.85-6.46.35-7.66-2.38-1.14-6.16.56-9.19,3.43-3.03,2.87-2.85,6.46-.35,7.66Z" />
      <path class="cls-19"
        d="M150.74,82.92c1.07.51,2.12-.03,2.01-1.38,0-.07-.01-.13-.03-.2-.52-.25-1.05-.5-1.57-.75-.2-.1-.35.03-.33.28.04.71.01,1.4-.08,2.05Z" />
      <path class="cls-17"
        d="M162.5,88.55c.09-.65.12-1.33.08-2.05-.01-.25-.2-.54-.4-.63-.52-.25-1.05-.5-1.57-.75,0,.06,0,.13,0,.19.11,1.35.8,2.73,1.89,3.25Z" />
      <path class="cls-16"
        d="M138.07,105.82c.53.25,1.06.51,1.58.76-.13-1.36-.85-2.75-1.93-3.26-.07.6-.09,1.22-.06,1.87.01.25.2.54.4.63Z" />
      <path class="cls-18"
        d="M147.52,110.34c.53.25,1.06.51,1.58.76.2.1.35-.03.33-.28-.04-.65-.02-1.27.06-1.87-1.07-.51-2.1.04-1.97,1.4Z" />
      <path class="cls-31"
        d="M12.9,44.16c3.49,2.08,6.97,4.17,10.46,6.25.19.11.35,0,.36-.25.45-10.49,15.03-12.53,15.48-23.01.01-.25-.15-.55-.34-.67-3.49-2.08-6.97-4.17-10.46-6.25-.19-.12-.35,0-.36.25-.45,10.49-15.03,12.53-15.48,23.01-.01.25.15.55.34.67Z" />
      <path class="cls-25"
        d="M33.13,29.21c.27.16.56.23.87.22.31-.02.61-.14.89-.38.17-.14.32-.33.45-.57.11.07.22.13.34.2.22.13.47.04.55-.2t0,0c.08-.24-.04-.55-.26-.68-.1-.06-.21-.12-.31-.19.07-.33.1-.68.08-1.04,0-.18-.02-.34-.05-.5-.06-.41-.37-.77-.65-.78,0,0-.01,0-.02,0-.27,0-.43.29-.38.67.02.12.03.24.03.37.01.24,0,.47-.04.68-.29-.18-.59-.35-.88-.52.02-.23.02-.47,0-.73-.01-.26-.06-.52-.13-.77-.07-.25-.19-.48-.34-.7-.15-.22-.35-.4-.6-.55-.27-.16-.53-.22-.77-.16-.24.05-.46.23-.67.51-.13.18-.25.41-.36.69-.11-.07-.22-.13-.33-.2-.22-.13-.45-.03-.53.21t0,0c-.08.24.02.54.24.67.11.06.21.13.32.19-.06.21-.11.43-.16.65-.02.11-.04.21-.05.32-.05.36.19.7.53.75h0c.31.05.59-.17.62-.51,0-.08.02-.17.03-.25.02-.12.04-.23.06-.34.3.18.6.36.9.54-.03.21-.06.41-.08.62-.03.23-.03.45-.01.67.02.22.08.42.19.62.11.19.28.36.52.51ZM32.6,25.79c-.22-.13-.44-.27-.67-.4.07-.09.14-.15.21-.17.08-.02.15,0,.22.03.11.06.17.17.21.32.01.07.02.14.03.22ZM33.87,27.93c-.1-.06-.16-.16-.18-.3,0-.04,0-.09-.01-.14.2.12.4.24.61.36-.06.06-.12.1-.18.12-.08.02-.16,0-.24-.04Z" />
      <path class="cls-3"
        d="M19.08,46.9c.27.16.52.21.77.16.25-.05.47-.23.67-.51.12-.17.23-.38.34-.63.11.07.22.13.34.2.22.13.45.03.53-.21t0,0c.08-.24-.03-.54-.25-.67-.1-.06-.21-.12-.31-.19.1-.32.17-.64.23-.95.03-.15.05-.3.07-.44.04-.35-.2-.67-.54-.71,0,0-.01,0-.02,0-.32-.04-.6.19-.62.53,0,.11-.02.22-.03.33-.02.22-.06.43-.11.63-.29-.18-.59-.35-.88-.52.04-.22.07-.45.09-.68.03-.24.03-.46,0-.68-.02-.22-.09-.42-.2-.61-.11-.19-.29-.36-.53-.51-.27-.16-.56-.24-.87-.22-.3.02-.61.14-.89.37-.18.15-.34.36-.48.62-.11-.07-.22-.13-.33-.2-.22-.13-.47-.04-.55.2t0,0c-.08.24.05.55.26.69.11.06.21.13.32.19-.04.22-.06.46-.06.7,0,.12,0,.24.01.36.04.41.34.79.64.81t0,0c.27.02.46-.26.43-.62,0-.09-.01-.18-.01-.27,0-.13,0-.25.02-.36.3.18.6.36.9.54-.01.21-.02.44,0,.67.01.25.06.51.13.76.07.25.18.49.33.7.15.22.35.4.59.54ZM18.12,43.22c-.22-.13-.44-.27-.67-.4.08-.09.16-.14.24-.16.08-.01.16,0,.23.04.11.06.17.16.19.3,0,.06.01.13.01.21ZM19.42,45.38c-.1-.06-.17-.17-.2-.31,0-.05-.02-.1-.02-.15.2.12.4.24.61.36-.05.07-.1.11-.16.13-.07.02-.15.01-.23-.03Z" />
      <path class="cls-37"
        d="M20.59,40.4c2.26,1.35,6.19,0,9.48-2.58,3.29-2.59,3.47-6.17,1.1-7.59-2.26-1.35-6.19,0-9.48,2.58-3.29,2.59-3.47,6.17-1.1,7.59Z" />
      <path class="cls-28"
        d="M27.76,22.51c1.01.61,2.11.16,2.14-1.19,0-.07,0-.13,0-.2-.5-.3-1-.6-1.49-.89-.19-.12-.35,0-.36.25-.03.71-.13,1.39-.28,2.03Z" />
      <path class="cls-29"
        d="M38.92,29.18c.15-.64.25-1.32.28-2.03.01-.25-.15-.55-.34-.67-.5-.3-1-.6-1.49-.89-.01.06,0,.13-.01.19-.03,1.35.53,2.79,1.56,3.4Z" />
      <path class="cls-9"
        d="M12.9,44.16c.5.3,1,.6,1.5.9,0-1.36-.58-2.81-1.6-3.42-.13.59-.21,1.21-.24,1.86-.01.25.15.55.34.67Z" />
      <path class="cls-20"
        d="M21.86,49.51c.5.3,1,.6,1.5.9.19.11.35,0,.36-.25.03-.65.11-1.27.24-1.86-1.02-.61-2.1-.15-2.1,1.21Z" />
      <path class="cls-40"
        d="M87.5,40.95c-.02,19.14-6.92,34.65-15.41,34.64-8.49,0-15.35-15.53-15.33-34.67.02-19.14,6.92-34.65,15.41-34.64,8.49,0,15.35,15.53,15.33,34.67Z" />
      <path class="cls-24"
        d="M83.65,40.94c-.02,16.62-5.2,30.1-11.57,30.09-6.37,0-11.51-13.49-11.49-30.11.02-16.62,5.19-30.09,11.56-30.08,3.94,0,7.42,5.16,9.49,13.03l-8.3,6.86,9.65.1c.43,3.16.66,6.56.66,10.11Z" />
      <path class="cls-30"
        d="M118.37,40.95c-.02,19.14-6.92,34.65-15.41,34.64-8.49,0-15.35-15.53-15.33-34.67.02-19.14,6.92-34.65,15.41-34.64,8.49,0,15.35,15.53,15.33,34.67Z" />
      <path class="cls-2"
        d="M114.53,40.94c-.02,16.62-5.2,30.1-11.57,30.09-6.37,0-11.51-13.49-11.49-30.11.02-16.62,5.19-30.09,11.56-30.08,3.94,0,7.42,5.16,9.49,13.03l-8.3,6.86,9.65.1c.43,3.16.66,6.56.66,10.11Z" />
    </g>
  </g>
</svg>