<?xml version="1.0" encoding="UTF-8"?>
<svg id="Capa_2" xmlns="http://www.w3.org/2000/svg" xmlns:xlink="http://www.w3.org/1999/xlink"
  viewBox="0 0 134.53 133.69">
  <defs>
    <style>
      .cls-1 {
        stroke: url(#Degradado_sin_nombre_8-3);
      }

      .cls-1,
      .cls-2,
      .cls-3,
      .cls-4 {
        fill: none;
        stroke-linecap: round;
        stroke-linejoin: round;
      }

      .cls-1,
      .cls-2,
      .cls-4 {
        stroke-width: 3px;
      }

      .cls-5 {
        fill: url(#Degradado_sin_nombre_21-3);
      }

      .cls-6 {
        fill: url(#Degradado_sin_nombre_12-3);
      }

      .cls-7 {
        fill: url(#Degradado_sin_nombre_12-4);
      }

      .cls-8 {
        fill: url(#Degradado_sin_nombre_15-2);
      }

      .cls-2 {
        stroke: url(#Degradado_sin_nombre_8);
      }

      .cls-9 {
        fill: url(#Degradado_sin_nombre_2-4);
      }

      .cls-10 {
        fill: url(#Degradado_sin_nombre_21-2);
      }

      .cls-11 {
        fill: url(#Degradado_sin_nombre_2-7);
      }

      .cls-12 {
        fill: url(#Degradado_sin_nombre_2-6);
      }

      .cls-13 {
        fill: url(#Degradado_sin_nombre_2);
      }

      .cls-14 {
        fill: url(#Degradado_sin_nombre_21-6);
      }

      .cls-15 {
        fill: url(#Degradado_sin_nombre_21-5);
      }

      .cls-3 {
        stroke: url(#Degradado_sin_nombre_8-2);
        stroke-width: 2px;
      }

      .cls-16 {
        fill: url(#Degradado_sin_nombre_21);
      }

      .cls-17 {
        fill: url(#Degradado_sin_nombre_2-5);
      }

      .cls-18 {
        fill: url(#Degradado_sin_nombre_15-3);
      }

      .cls-19 {
        fill: url(#Degradado_sin_nombre_2-3);
      }

      .cls-20 {
        fill: url(#Degradado_sin_nombre_21-4);
      }

      .cls-21 {
        fill: url(#Degradado_sin_nombre_12-2);
      }

      .cls-4 {
        stroke: url(#Degradado_sin_nombre_8-4);
      }

      .cls-22 {
        fill: url(#Degradado_sin_nombre_15);
      }

      .cls-23 {
        fill: url(#Degradado_sin_nombre_2-2);
      }

      .cls-24 {
        fill: url(#Degradado_sin_nombre_12);
      }
    </style>
    <linearGradient id="Degradado_sin_nombre_2" x1="67.27" y1="133.32" x2="67.27" y2="2.99"
      gradientUnits="userSpaceOnUse">
      <stop offset="0" stop-color="#c9ccd1" />
      <stop offset="1" stop-color="#fff" />
    </linearGradient>
    <linearGradient id="Degradado_sin_nombre_12" x1="67.27" y1="132.51" x2="67.27" y2="6.76"
      gradientUnits="userSpaceOnUse">
      <stop offset="0" stop-color="#1f1f1f" />
      <stop offset="1" stop-color="#0a0a0a" />
    </linearGradient>
    <linearGradient id="Degradado_sin_nombre_2-2" x1="67.33" y1="30.55" x2="70.56" y2="15.88"
      gradientTransform="translate(-.43 -10.12) rotate(.18)" xlink:href="#Degradado_sin_nombre_2" />
    <linearGradient id="Degradado_sin_nombre_21" x1="50.21" y1="-2410.29" x2="85.59" y2="-2410.29"
      gradientTransform="translate(1395.6 2019.38) rotate(-35.94)" gradientUnits="userSpaceOnUse">
      <stop offset="0" stop-color="#0a0a0a" />
      <stop offset="1" stop-color="#1f1f1f" />
    </linearGradient>
    <linearGradient id="Degradado_sin_nombre_2-3" x1="38.04" y1="40.37" x2="29.92" y2="30.1"
      gradientTransform="translate(28.92 -24.06) rotate(36.13)" xlink:href="#Degradado_sin_nombre_2" />
    <linearGradient id="Degradado_sin_nombre_21-2" x1="6240.11" y1="2108.37" x2="6275.49" y2="2108.37"
      gradientTransform="translate(6390.91 2035.09) rotate(-143.69) scale(1 -1)"
      xlink:href="#Degradado_sin_nombre_21" />
    <linearGradient id="Degradado_sin_nombre_2-4" x1="98.23" y1="40.31" x2="105.52" y2="29.87"
      gradientTransform="translate(71.2 -74.7) rotate(53.87)" xlink:href="#Degradado_sin_nombre_2" />
    <linearGradient id="Degradado_sin_nombre_2-5" x1="68.02" y1="138.02" x2="68.02" y2="28.59"
      gradientTransform="translate(-.43 -10.12) rotate(.18)" xlink:href="#Degradado_sin_nombre_2" />
    <linearGradient id="Degradado_sin_nombre_15" x1="68" y1="108.03" x2="68" y2="126.77"
      gradientTransform="translate(-.43 -10.12) rotate(.18)" gradientUnits="userSpaceOnUse">
      <stop offset="0" stop-color="#fb00ff" />
      <stop offset="1" stop-color="#ff0062" />
    </linearGradient>
    <linearGradient id="Degradado_sin_nombre_21-3" x1="33.52" y1="87.78" x2="50.6" y2="55.56"
      gradientTransform="translate(-.43 -10.12) rotate(.18)" xlink:href="#Degradado_sin_nombre_21" />
    <linearGradient id="Degradado_sin_nombre_12-2" x1="23.3" y1="111.72" x2="20.67" y2="93.45"
      gradientTransform="translate(98.99 22.17) rotate(60)" xlink:href="#Degradado_sin_nombre_12" />
    <linearGradient id="Degradado_sin_nombre_12-3" x1="7696.46" y1="112.28" x2="7693.82" y2="94.01"
      gradientTransform="translate(7808.76 14.31) rotate(-179.82) scale(1 -1)" xlink:href="#Degradado_sin_nombre_12" />
    <linearGradient id="Degradado_sin_nombre_2-6" x1="36.23" y1="82.69" x2="48.04" y2="60.4"
      gradientTransform="translate(-.43 -10.12) rotate(.18)" xlink:href="#Degradado_sin_nombre_2" />
    <linearGradient id="Degradado_sin_nombre_15-2" x1="37.71" y1="79.9" x2="46.64" y2="63.05"
      xlink:href="#Degradado_sin_nombre_15" />
    <linearGradient id="Degradado_sin_nombre_21-4" x1="41.29" y1="71.38" x2="47.71" y2="59.29"
      gradientTransform="translate(-.43 -10.12) rotate(.18)" xlink:href="#Degradado_sin_nombre_21" />
    <linearGradient id="Degradado_sin_nombre_21-5" x1="7658.28" y1="88.34" x2="7675.36" y2="56.12"
      gradientTransform="translate(7101.99 3173.38) rotate(-155.52) scale(1 -1)"
      xlink:href="#Degradado_sin_nombre_21" />
    <linearGradient id="Degradado_sin_nombre_2-7" x1="7660.98" y1="83.24" x2="7672.8" y2="60.96"
      gradientTransform="translate(7761.75 14.16) rotate(-179.82) scale(1 -1)" xlink:href="#Degradado_sin_nombre_2" />
    <linearGradient id="Degradado_sin_nombre_15-3" x1="90.84" y1="79.36" x2="99.22" y2="63.56"
      xlink:href="#Degradado_sin_nombre_15" />
    <linearGradient id="Degradado_sin_nombre_21-6" x1="7666.06" y1="71.89" x2="7672.43" y2="59.87"
      gradientTransform="translate(7761.75 14.16) rotate(-179.82) scale(1 -1)" xlink:href="#Degradado_sin_nombre_21" />
    <linearGradient id="Degradado_sin_nombre_8" x1="66.52" y1="103.41" x2="69.52" y2="103.41"
      gradientTransform="translate(-.43 -10.12) rotate(.18)" gradientUnits="userSpaceOnUse">
      <stop offset="0" stop-color="#141414" />
      <stop offset="1" stop-color="#141414" />
    </linearGradient>
    <linearGradient id="Degradado_sin_nombre_12-4" x1="7412.65" y1="-2330.02" x2="7415.45" y2="-2342.74"
      gradientTransform="translate(7488.32 -2228.85) rotate(-179.82)" xlink:href="#Degradado_sin_nombre_12" />
    <linearGradient id="Degradado_sin_nombre_8-2" x1="67.02" y1="112.91" x2="69.02" y2="112.91"
      xlink:href="#Degradado_sin_nombre_8" />
    <linearGradient id="Degradado_sin_nombre_8-3" x1="48.78" y1="107.37" x2="69.52" y2="107.37"
      xlink:href="#Degradado_sin_nombre_8" />
    <linearGradient id="Degradado_sin_nombre_8-4" x1="7653.13" y1="107.93" x2="7673.86" y2="107.93"
      gradientTransform="translate(7739.95 14.09) rotate(-179.82) scale(1 -1)" xlink:href="#Degradado_sin_nombre_8" />
  </defs>
  <g id="OBJECTS">
    <path class="cls-13"
      d="M65.03,133.69c-13.91-.04-39.69-3.08-56.1-22.89C.93,101.15-1.87,90.43,1.24,81.4c1.15-3.34,2.94-6.03,4.67-8.64.96-1.45,1.88-2.83,2.59-4.2,1.65-3.17,2.51-6.9,3.43-10.85.53-2.28,1.07-4.6,1.78-6.91.9-2.94,2.06-5.83,3.47-8.61-.09-.12-.19-.25-.28-.37-8.58-11.83-7.1-27.58,3.29-35.11,3.63-2.63,7.99-4.01,12.63-4,7.64.02,15.15,3.77,20.45,10.1.64-1.12,1.45-2.13,2.4-2.99,1.3-1.19,2.73-1.98,4.27-2.35.41-.1.83-.17,1.26-.2.31-.5.63-.97.98-1.42,2.29-2.96,5.38-4.96,8.68-5.63C71.59.07,72.33,0,73.06,0c2.86,0,5.31,1.15,6.91,3.2,1.11,1.42,2.27,3.92,1.5,7.74-.04.2-.09.41-.13.61.28.29.54.6.77.92,5.31-6.04,12.68-9.57,20.15-9.55,4.64.01,9,1.42,12.61,4.08,5.15,3.79,8.25,9.63,8.72,16.46.44,6.48-1.56,13.11-5.65,18.67-.09.12-.18.25-.28.37,1.39,2.79,2.54,5.68,3.42,8.63.7,2.34,1.22,4.67,1.73,6.92.89,3.97,1.74,7.7,3.36,10.88.7,1.37,1.6,2.75,2.56,4.21,1.71,2.62,3.48,5.32,4.61,8.67,3.05,9.05.18,19.74-7.87,29.35-15.55,18.53-41.13,22.48-59.86,22.52h-.57s0,0,0,0Z" />
    <path class="cls-24"
      d="M65.04,130.9c-13.42-.04-38.28-2.94-53.96-21.88-7.36-8.89-9.98-18.62-7.2-26.71,1.03-3,2.72-5.54,4.36-8.01,1.01-1.52,1.96-2.95,2.74-4.45,1.81-3.49,2.72-7.39,3.67-11.51.51-2.21,1.04-4.49,1.73-6.73,1.03-3.36,2.41-6.63,4.13-9.74-.48-.56-.93-1.12-1.34-1.7-7.67-10.58-6.47-24.58,2.67-31.21,3.14-2.28,6.94-3.48,10.99-3.47,7.41.02,14.7,4,19.51,10.63.15.2.29.41.44.62.67-.18,1.35-.34,2.04-.49.51-1.68,1.47-3.21,2.75-4.39.95-.87,1.97-1.44,3.05-1.7.43-.11.88-.16,1.32-.16.31,0,.61.03.9.08.42-.86.93-1.73,1.57-2.54,1.88-2.43,4.38-4.07,7.03-4.61.54-.11,1.09-.17,1.63-.16,1.98,0,3.66.76,4.72,2.12,1.09,1.4,1.41,3.24.97,5.48-.15.75-.36,1.49-.62,2.2,1.38.73,2.36,2.05,2.49,3.59,0,.09.01.17.02.26.54.13,1.07.26,1.6.4.15-.21.29-.42.44-.62,4.85-6.6,12.17-10.53,19.57-10.51,4.04.01,7.83,1.24,10.96,3.53,4.48,3.29,7.18,8.41,7.59,14.4.4,5.82-1.42,11.79-5.12,16.83-.42.57-.87,1.13-1.35,1.69,1.7,3.13,3.06,6.4,4.07,9.77.67,2.24,1.18,4.52,1.68,6.73.93,4.13,1.81,8.04,3.6,11.54.77,1.5,1.71,2.94,2.71,4.47,1.62,2.47,3.29,5.03,4.3,8.03,2.74,8.1.05,17.82-7.37,26.66-14.86,17.71-39.6,21.48-57.73,21.53h-.56Z" />
    <path class="cls-23"
      d="M75.65,14.79c-1,.02-1.92.59-2.79,1.08,1.58-1.66,2.68-3.77,3.13-6.02.22-1.1.25-2.34-.43-3.22-.8-1.03-2.32-1.2-3.6-.94-2.16.44-4.03,1.84-5.38,3.58-1.35,1.74-2.04,3.79-2.73,5.88.27-.66-.02-1.46-.58-1.89-.56-.43-1.34-.53-2.02-.36-.69.17-1.3.57-1.82,1.05-1.43,1.31-2.28,3.23-2.28,5.17l16.22,2.41c1.56-.79,2.91-1.99,3.88-3.44.33-.49.63-1.06.58-1.65-.09-1-1.18-1.66-2.18-1.64Z" />
    <path class="cls-16"
      d="M50.06,17.77c6.78,9.35,5.86,21.58-2.05,27.31-7.91,5.74-19.82,2.81-26.6-6.54-6.78-9.35-5.86-21.58,2.05-27.31,7.91-5.74,19.82-2.81,26.6,6.54Z" />
    <ellipse class="cls-19" cx="35.74" cy="28.16" rx="10.04" ry="11.86"
      transform="translate(-9.72 26.34) rotate(-35.94)" />
    <path class="cls-10"
      d="M84.92,17.88c-6.84,9.31-6,21.54,1.87,27.33,7.87,5.79,19.8,2.93,26.64-6.38,6.84-9.31,6-21.54-1.87-27.33-7.87-5.79-19.8-2.93-26.64,6.38Z" />
    <ellipse class="cls-9" cx="99.18" cy="28.36" rx="11.86" ry="10.04"
      transform="translate(17.6 91.49) rotate(-53.69)" />
    <path class="cls-17"
      d="M128.05,83.61c-1.49-4.41-4.74-7.98-6.85-12.12-2.97-5.81-3.61-12.49-5.47-18.74-3.05-10.22-9.55-19.37-18.2-25.62-8.64-6.25-19.38-9.55-30.04-9.24-10.66-.38-21.41,2.85-30.09,9.04-8.68,6.19-15.24,15.3-18.36,25.5-1.91,6.24-2.59,12.92-5.59,18.71-2.14,4.13-5.41,7.68-6.93,12.08-2.83,8.22,1.16,17.32,6.71,24.02,12.69,15.32,33.14,20.92,52.37,20.87,19.85-.05,42.27-4.64,55.6-20.53,5.59-6.66,9.64-15.74,6.86-23.98Z" />
    <path class="cls-22"
      d="M74.36,101.1l-7.12-3.31-7.43,3.42.13,7.15c-.84,4.54,2.63,8.73,7.24,8.74h0c4.61.01,8.12-4.16,7.3-8.7l-.12-7.3Z" />
    <path class="cls-5"
      d="M57.56,68.58c-4.5,9.79-15.27,14.45-24.07,10.41-8.8-4.04-12.28-15.25-7.79-25.04,4.5-9.79,15.27-14.45,24.07-10.41,8.8,4.04,12.28,15.25,7.79,25.04Z" />
    <ellipse class="cls-21" cx="21.21" cy="92.45" rx="9.77" ry="12.16"
      transform="translate(-69.37 64.3) rotate(-59.82)" />
    <path class="cls-6"
      d="M102.75,98.79c2.68,4.68,9.58,5.76,15.41,2.42,5.83-3.34,8.38-9.84,5.7-14.52-2.68-4.68-9.58-5.76-15.41-2.42-5.83,3.34-8.38,9.84-5.7,14.52Z" />
    <path class="cls-12"
      d="M53.99,60.06c.03,2.07-.41,4.21-1.35,6.26-.77,1.69-1.82,3.16-3.05,4.36-3.69,3.64-9.03,4.94-13.6,2.84-3.87-1.78-6.26-5.56-6.67-9.83-.24-2.43.15-5.02,1.28-7.48.02-.05.04-.09.07-.14,3.14-6.67,10.54-9.85,16.58-7.07,4.24,1.95,6.7,6.31,6.74,11.05Z" />
    <path class="cls-8"
      d="M49.96,65.1c-2.36,5.11-7.99,7.56-12.59,5.45-3.08-1.42-4.92-4.51-5.09-7.94l7.19-.42-6.65-3.51c.12-.41.29-.83.48-1.23,2.35-5.11,7.98-7.55,12.59-5.44,4.6,2.11,6.42,7.97,4.07,13.09Z" />
    <path class="cls-20"
      d="M54.47,60.31c-11.11-7.98-21.28-5.24-24.27-4.15,3.27-6.95,10.97-10.25,17.25-7.36,4.41,2.03,6.97,6.56,7.01,11.51Z" />
    <ellipse class="cls-15" cx="94.48" cy="61.44" rx="17.53" ry="19.51"
      transform="translate(-16.91 44.32) rotate(-24.3)" />
    <path class="cls-11"
      d="M82.12,60.15c-.04,2.07.38,4.21,1.31,6.27.76,1.69,1.8,3.17,3.02,4.38,3.67,3.66,9,5,13.58,2.93,3.88-1.75,6.29-5.52,6.73-9.79.26-2.43-.12-5.02-1.24-7.49-.02-.05-.04-.09-.06-.14-3.1-6.69-10.47-9.91-16.53-7.17-4.25,1.92-6.74,6.26-6.81,11.01Z" />
    <path class="cls-18"
      d="M98.68,70.74c-4.17,1.88-9.16.04-11.79-4.12l5.9-4.58-7.41.88c-.96-4.47.96-9,4.9-10.77,4.62-2.08,10.24.39,12.55,5.52,2.32,5.14.46,10.99-4.16,13.08Z" />
    <path class="cls-14"
      d="M81.72,60.36c11.1-7.86,21.18-5.07,24.15-3.97-3.21-6.93-10.84-10.26-17.1-7.42-4.4,1.99-6.97,6.48-7.04,11.39Z" />
    <line class="cls-2" x1="67.27" y1="89.55" x2="67.24" y2="97.47" />
    <path class="cls-7"
      d="M74.91,87.85c-4.02,4.69-11.28,4.67-15.27-.05h0l-3.81-4.51c-1.5-1.77-.23-4.48,2.09-4.47l9.39.03,9.39.03c2.32,0,3.56,2.73,2.06,4.49l-3.84,4.49h0Z" />
    <line class="cls-3" x1="67.21" y1="108.22" x2="67.24" y2="97.8" />
    <path class="cls-1" d="M49.52,93.7s4.72,13.58,17.72,4.1" />
    <path class="cls-4" d="M84.98,93.81s-4.8,13.55-17.74,3.99" />
  </g>
</svg>