<?xml version="1.0" encoding="UTF-8"?>
<svg id="Capa_2" xmlns="http://www.w3.org/2000/svg" xmlns:xlink="http://www.w3.org/1999/xlink"
  viewBox="0 0 100.79 138.38">
  <defs>
    <style>
      .cls-1 {
        fill: url(#Degradado_sin_nombre_18-23);
      }

      .cls-2 {
        fill: url(#Degradado_sin_nombre_6);
      }

      .cls-3 {
        fill: url(#Degradado_sin_nombre_18-19);
      }

      .cls-4 {
        fill: url(#Degradado_sin_nombre_36);
      }

      .cls-5 {
        fill: url(#Degradado_sin_nombre_18-44);
      }

      .cls-6 {
        fill: url(#Degradado_sin_nombre_28-13);
      }

      .cls-6,
      .cls-7,
      .cls-8,
      .cls-9,
      .cls-10,
      .cls-11,
      .cls-12,
      .cls-13,
      .cls-14,
      .cls-15,
      .cls-16,
      .cls-17,
      .cls-18,
      .cls-19,
      .cls-20,
      .cls-21,
      .cls-22,
      .cls-23,
      .cls-24,
      .cls-25 {
        opacity: .6;
      }

      .cls-26 {
        fill: url(#Degradado_sin_nombre_18-9);
      }

      .cls-27 {
        stroke: url(#Degradado_sin_nombre_8-3);
      }

      .cls-27,
      .cls-28,
      .cls-29,
      .cls-30,
      .cls-31 {
        fill: none;
        stroke-linecap: round;
        stroke-linejoin: round;
        stroke-width: 3px;
      }

      .cls-32 {
        fill: url(#Degradado_sin_nombre_18-26);
      }

      .cls-33 {
        fill: url(#Degradado_sin_nombre_5);
      }

      .cls-34 {
        fill: url(#Degradado_sin_nombre_18-51);
      }

      .cls-35 {
        fill: url(#Degradado_sin_nombre_18-38);
      }

      .cls-36 {
        fill: url(#Degradado_sin_nombre_18-48);
      }

      .cls-37 {
        fill: url(#Degradado_sin_nombre_18-35);
      }

      .cls-7 {
        fill: url(#Degradado_sin_nombre_28-11);
      }

      .cls-38 {
        fill: url(#Degradado_sin_nombre_18-14);
      }

      .cls-39 {
        fill: url(#Degradado_sin_nombre_18-12);
      }

      .cls-40 {
        fill: url(#Degradado_sin_nombre_3-3);
      }

      .cls-40,
      .cls-41 {
        opacity: .4;
      }

      .cls-42 {
        fill: url(#Degradado_sin_nombre_18-50);
      }

      .cls-43 {
        fill: url(#Degradado_sin_nombre_18-15);
      }

      .cls-44 {
        fill: url(#Degradado_sin_nombre_18-25);
      }

      .cls-28 {
        stroke: url(#Degradado_sin_nombre_8);
      }

      .cls-45 {
        fill: url(#Degradado_sin_nombre_18-37);
      }

      .cls-46 {
        fill: url(#Degradado_sin_nombre_18-10);
      }

      .cls-47 {
        fill: url(#Degradado_sin_nombre_18-2);
      }

      .cls-48 {
        fill: url(#Degradado_sin_nombre_18-53);
      }

      .cls-8 {
        fill: url(#Degradado_sin_nombre_28-2);
      }

      .cls-49 {
        fill: url(#Degradado_sin_nombre_18-20);
      }

      .cls-50 {
        fill: url(#Degradado_sin_nombre_18-6);
      }

      .cls-9 {
        fill: url(#Degradado_sin_nombre_28-9);
      }

      .cls-10 {
        fill: url(#Degradado_sin_nombre_28-15);
      }

      .cls-51 {
        fill: url(#Degradado_sin_nombre_21-2);
      }

      .cls-52 {
        fill: url(#Degradado_sin_nombre_18-11);
      }

      .cls-53 {
        fill: url(#Degradado_sin_nombre_18-18);
      }

      .cls-54 {
        fill: url(#Degradado_sin_nombre_18-8);
      }

      .cls-11 {
        fill: url(#Degradado_sin_nombre_28-19);
      }

      .cls-41 {
        fill: url(#Degradado_sin_nombre_3-2);
      }

      .cls-12 {
        fill: url(#Degradado_sin_nombre_28-4);
      }

      .cls-55 {
        fill: url(#Degradado_sin_nombre_18-17);
      }

      .cls-56 {
        fill: url(#Degradado_sin_nombre_18-41);
      }

      .cls-57 {
        fill: url(#Degradado_sin_nombre_2);
      }

      .cls-58 {
        fill: url(#Degradado_sin_nombre_18-21);
      }

      .cls-59 {
        fill: url(#Degradado_sin_nombre_18-57);
      }

      .cls-60 {
        fill: url(#Degradado_sin_nombre_18-33);
      }

      .cls-61 {
        fill: url(#Degradado_sin_nombre_18-45);
      }

      .cls-13 {
        fill: url(#Degradado_sin_nombre_28-7);
      }

      .cls-62 {
        fill: url(#Degradado_sin_nombre_18-56);
      }

      .cls-63 {
        fill: url(#Degradado_sin_nombre_18-42);
      }

      .cls-64 {
        fill: url(#Degradado_sin_nombre_18-32);
      }

      .cls-65 {
        fill: url(#Degradado_sin_nombre_18-28);
      }

      .cls-29 {
        stroke: url(#Degradado_sin_nombre_8-5);
      }

      .cls-66 {
        fill: url(#Degradado_sin_nombre_9);
      }

      .cls-30 {
        stroke: url(#Degradado_sin_nombre_8-2);
      }

      .cls-67 {
        fill: url(#Degradado_sin_nombre_18-36);
      }

      .cls-68 {
        fill: url(#Degradado_sin_nombre_18-46);
      }

      .cls-69 {
        fill: url(#Degradado_sin_nombre_18-58);
      }

      .cls-14 {
        fill: url(#Degradado_sin_nombre_28);
      }

      .cls-70 {
        fill: url(#Degradado_sin_nombre_18-22);
      }

      .cls-71 {
        fill: url(#Degradado_sin_nombre_18-27);
      }

      .cls-72 {
        fill: url(#Degradado_sin_nombre_21);
      }

      .cls-73 {
        fill: url(#Degradado_sin_nombre_18-60);
      }

      .cls-74 {
        fill: url(#Degradado_sin_nombre_3);
      }

      .cls-15 {
        fill: url(#Degradado_sin_nombre_28-16);
      }

      .cls-75 {
        fill: url(#Degradado_sin_nombre_18-43);
      }

      .cls-76 {
        fill: url(#Degradado_sin_nombre_2-3);
      }

      .cls-77 {
        fill: url(#Degradado_sin_nombre_18-49);
      }

      .cls-78 {
        fill: url(#Degradado_sin_nombre_18-13);
      }

      .cls-79 {
        fill: url(#Degradado_sin_nombre_18-5);
      }

      .cls-80 {
        fill: url(#Degradado_sin_nombre_18-31);
      }

      .cls-81 {
        fill: url(#Degradado_sin_nombre_18-54);
      }

      .cls-82 {
        fill: url(#Degradado_sin_nombre_18-39);
      }

      .cls-83 {
        fill: url(#Degradado_sin_nombre_18-16);
      }

      .cls-84 {
        fill: url(#Degradado_sin_nombre_18);
      }

      .cls-85 {
        fill: url(#Degradado_sin_nombre_18-4);
      }

      .cls-16 {
        fill: url(#Degradado_sin_nombre_28-17);
      }

      .cls-86 {
        fill: url(#Degradado_sin_nombre_18-34);
      }

      .cls-87 {
        fill: url(#Degradado_sin_nombre_18-24);
      }

      .cls-88 {
        fill: url(#Degradado_sin_nombre_18-47);
      }

      .cls-31 {
        stroke: url(#Degradado_sin_nombre_8-4);
      }

      .cls-17 {
        fill: url(#Degradado_sin_nombre_28-8);
      }

      .cls-18 {
        fill: url(#Degradado_sin_nombre_28-10);
      }

      .cls-89 {
        fill: url(#Degradado_sin_nombre_18-3);
      }

      .cls-19 {
        fill: url(#Degradado_sin_nombre_28-20);
      }

      .cls-90 {
        fill: url(#Degradado_sin_nombre_3-4);
      }

      .cls-20 {
        fill: url(#Degradado_sin_nombre_28-14);
      }

      .cls-21 {
        fill: url(#Degradado_sin_nombre_28-12);
      }

      .cls-91 {
        fill: url(#Degradado_sin_nombre_18-29);
      }

      .cls-22 {
        fill: url(#Degradado_sin_nombre_28-3);
      }

      .cls-92 {
        fill: url(#Degradado_sin_nombre_5-2);
      }

      .cls-93 {
        fill: url(#Degradado_sin_nombre_18-40);
      }

      .cls-94 {
        fill: url(#Degradado_sin_nombre_18-55);
      }

      .cls-95 {
        fill: url(#Degradado_sin_nombre_2-2);
      }

      .cls-96 {
        fill: url(#Degradado_sin_nombre_18-59);
      }

      .cls-97 {
        fill: url(#Degradado_sin_nombre_18-30);
      }

      .cls-98 {
        fill: url(#Degradado_sin_nombre_18-7);
      }

      .cls-23 {
        fill: url(#Degradado_sin_nombre_28-6);
      }

      .cls-99 {
        fill: url(#Degradado_sin_nombre_18-52);
      }

      .cls-100 {
        fill: url(#Degradado_sin_nombre_12);
      }

      .cls-24 {
        fill: url(#Degradado_sin_nombre_28-18);
      }

      .cls-25 {
        fill: url(#Degradado_sin_nombre_28-5);
      }
    </style>
    <linearGradient id="Degradado_sin_nombre_2" x1="49.93" y1="152.47" x2="51.04" y2="-7.41"
      gradientUnits="userSpaceOnUse">
      <stop offset="0" stop-color="#c9ccd1" />
      <stop offset="1" stop-color="#fff" />
    </linearGradient>
    <linearGradient id="Degradado_sin_nombre_12" x1="50.39" y1="3.38" x2="50.39" y2="132.25"
      gradientUnits="userSpaceOnUse">
      <stop offset="0" stop-color="#1f1f1f" />
      <stop offset="1" stop-color="#0a0a0a" />
    </linearGradient>
    <linearGradient id="Degradado_sin_nombre_3" x1="29.03" y1="129.45" x2="78.64" y2="11.8"
      gradientTransform="translate(-1.22 5.65) rotate(-.14)" gradientUnits="userSpaceOnUse">
      <stop offset="0" stop-color="#0087ff" />
      <stop offset="1" stop-color="#00f2ff" />
    </linearGradient>
    <linearGradient id="Degradado_sin_nombre_3-2" x1="34.73" y1="62.74" x2="34.84" y2="79.77"
      xlink:href="#Degradado_sin_nombre_3" />
    <linearGradient id="Degradado_sin_nombre_18" x1="2642.74" y1="-6010.17" x2="2642.74" y2="-6051.33"
      gradientTransform="translate(6280.32 2149.93) rotate(-95.4)" gradientUnits="userSpaceOnUse">
      <stop offset="0" stop-color="#8ad100" />
      <stop offset="1" stop-color="#dcf500" />
    </linearGradient>
    <linearGradient id="Degradado_sin_nombre_18-2" x1="2633.86" y1="-6036.17" x2="2633.86" y2="-6046.95"
      xlink:href="#Degradado_sin_nombre_18" />
    <linearGradient id="Degradado_sin_nombre_18-3" x1="2632.34" y1="-6019" x2="2632.34" y2="-6028"
      xlink:href="#Degradado_sin_nombre_18" />
    <linearGradient id="Degradado_sin_nombre_18-4" x1="2649.05" y1="-6023.31" x2="2649.05" y2="-6028.52"
      xlink:href="#Degradado_sin_nombre_18" />
    <linearGradient id="Degradado_sin_nombre_18-5" x1="2626.4" y1="-6030.68" x2="2626.4" y2="-6036.91"
      xlink:href="#Degradado_sin_nombre_18" />
    <linearGradient id="Degradado_sin_nombre_18-6" x1="2633.32" y1="-6028.73" x2="2633.32" y2="-6036.02"
      xlink:href="#Degradado_sin_nombre_18" />
    <linearGradient id="Degradado_sin_nombre_18-7" x1="2655.16" y1="-6019.63" x2="2655.16" y2="-6024.41"
      xlink:href="#Degradado_sin_nombre_18" />
    <linearGradient id="Degradado_sin_nombre_18-8" x1="2640.8" y1="-6017.32" x2="2640.8" y2="-6024.61"
      xlink:href="#Degradado_sin_nombre_18" />
    <linearGradient id="Degradado_sin_nombre_18-9" x1="2641.07" y1="-6026.91" x2="2641.07" y2="-6031.66"
      xlink:href="#Degradado_sin_nombre_18" />
    <linearGradient id="Degradado_sin_nombre_18-10" x1="2660" y1="-6013.56" x2="2660" y2="-6017.84"
      xlink:href="#Degradado_sin_nombre_18" />
    <linearGradient id="Degradado_sin_nombre_18-11" x1="2625.55" y1="-6042.11" x2="2625.55" y2="-6046.62"
      xlink:href="#Degradado_sin_nombre_18" />
    <linearGradient id="Degradado_sin_nombre_18-12" x1="2647.63" y1="-6018.43" x2="2647.63" y2="-6022.08"
      xlink:href="#Degradado_sin_nombre_18" />
    <linearGradient id="Degradado_sin_nombre_18-13" x1="2655.71" y1="-6015.44" x2="2655.71" y2="-6018.04"
      xlink:href="#Degradado_sin_nombre_18" />
    <linearGradient id="Degradado_sin_nombre_18-14" x1="2628.22" y1="-6037.44" x2="2628.22" y2="-6040.04"
      xlink:href="#Degradado_sin_nombre_18" />
    <linearGradient id="Degradado_sin_nombre_18-15" x1="2650.84" y1="-6012.5" x2="2650.84" y2="-6017.06"
      xlink:href="#Degradado_sin_nombre_18" />
    <linearGradient id="Degradado_sin_nombre_18-16" x1="8167.03" y1="-3314.09" x2="8167.03" y2="-3355.25"
      gradientTransform="translate(8081.19 -3613.69) rotate(177.43)" xlink:href="#Degradado_sin_nombre_18" />
    <linearGradient id="Degradado_sin_nombre_18-17" x1="8158.15" y1="-3340.09" x2="8158.15" y2="-3350.87"
      gradientTransform="translate(8081.19 -3613.69) rotate(177.43)" xlink:href="#Degradado_sin_nombre_18" />
    <linearGradient id="Degradado_sin_nombre_18-18" x1="8156.63" y1="-3322.92" x2="8156.63" y2="-3331.92"
      gradientTransform="translate(8081.19 -3613.69) rotate(177.43)" xlink:href="#Degradado_sin_nombre_18" />
    <linearGradient id="Degradado_sin_nombre_18-19" x1="8173.33" y1="-3327.23" x2="8173.33" y2="-3332.44"
      gradientTransform="translate(8081.19 -3613.69) rotate(177.43)" xlink:href="#Degradado_sin_nombre_18" />
    <linearGradient id="Degradado_sin_nombre_18-20" x1="8150.69" y1="-3334.6" x2="8150.69" y2="-3340.83"
      gradientTransform="translate(8081.19 -3613.69) rotate(177.43)" xlink:href="#Degradado_sin_nombre_18" />
    <linearGradient id="Degradado_sin_nombre_18-21" x1="8157.61" y1="-3332.65" x2="8157.61" y2="-3339.94"
      gradientTransform="translate(8081.19 -3613.69) rotate(177.43)" xlink:href="#Degradado_sin_nombre_18" />
    <linearGradient id="Degradado_sin_nombre_18-22" x1="8179.44" y1="-3323.56" x2="8179.44" y2="-3328.33"
      gradientTransform="translate(8081.19 -3613.69) rotate(177.43)" xlink:href="#Degradado_sin_nombre_18" />
    <linearGradient id="Degradado_sin_nombre_18-23" x1="8165.08" y1="-3321.24" x2="8165.08" y2="-3328.53"
      gradientTransform="translate(8081.19 -3613.69) rotate(177.43)" xlink:href="#Degradado_sin_nombre_18" />
    <linearGradient id="Degradado_sin_nombre_18-24" x1="8165.36" y1="-3330.83" x2="8165.36" y2="-3335.58"
      gradientTransform="translate(8081.19 -3613.69) rotate(177.43)" xlink:href="#Degradado_sin_nombre_18" />
    <linearGradient id="Degradado_sin_nombre_18-25" x1="8184.29" y1="-3317.49" x2="8184.29" y2="-3321.76"
      gradientTransform="translate(8081.19 -3613.69) rotate(177.43)" xlink:href="#Degradado_sin_nombre_18" />
    <linearGradient id="Degradado_sin_nombre_18-26" x1="8149.84" y1="-3346.03" x2="8149.84" y2="-3350.54"
      gradientTransform="translate(8081.19 -3613.69) rotate(177.43)" xlink:href="#Degradado_sin_nombre_18" />
    <linearGradient id="Degradado_sin_nombre_18-27" x1="8171.92" y1="-3322.35" x2="8171.92" y2="-3326"
      gradientTransform="translate(8081.19 -3613.69) rotate(177.43)" xlink:href="#Degradado_sin_nombre_18" />
    <linearGradient id="Degradado_sin_nombre_18-28" x1="8179.99" y1="-3319.36" x2="8179.99" y2="-3321.97"
      gradientTransform="translate(8081.19 -3613.69) rotate(177.43)" xlink:href="#Degradado_sin_nombre_18" />
    <linearGradient id="Degradado_sin_nombre_18-29" x1="8152.51" y1="-3341.36" x2="8152.51" y2="-3343.96"
      gradientTransform="translate(8081.19 -3613.69) rotate(177.43)" xlink:href="#Degradado_sin_nombre_18" />
    <linearGradient id="Degradado_sin_nombre_18-30" x1="8175.12" y1="-3316.43" x2="8175.12" y2="-3320.98"
      gradientTransform="translate(8081.19 -3613.69) rotate(177.43)" xlink:href="#Degradado_sin_nombre_18" />
    <linearGradient id="Degradado_sin_nombre_18-31" x1="7688.08" y1="-4257.89" x2="7688.08" y2="-4299.05"
      gradientTransform="translate(8465.82 -2516.56) rotate(-168.25)" xlink:href="#Degradado_sin_nombre_18" />
    <linearGradient id="Degradado_sin_nombre_18-32" x1="7679.2" y1="-4283.88" x2="7679.2" y2="-4294.67"
      gradientTransform="translate(8465.82 -2516.56) rotate(-168.25)" xlink:href="#Degradado_sin_nombre_18" />
    <linearGradient id="Degradado_sin_nombre_18-33" x1="7677.68" y1="-4266.72" x2="7677.68" y2="-4275.72"
      gradientTransform="translate(8465.82 -2516.56) rotate(-168.25)" xlink:href="#Degradado_sin_nombre_18" />
    <linearGradient id="Degradado_sin_nombre_18-34" x1="7694.39" y1="-4271.03" x2="7694.39" y2="-4276.23"
      gradientTransform="translate(8465.82 -2516.56) rotate(-168.25)" xlink:href="#Degradado_sin_nombre_18" />
    <linearGradient id="Degradado_sin_nombre_18-35" x1="7671.74" y1="-4278.4" x2="7671.74" y2="-4284.63"
      gradientTransform="translate(8465.82 -2516.56) rotate(-168.25)" xlink:href="#Degradado_sin_nombre_18" />
    <linearGradient id="Degradado_sin_nombre_18-36" x1="7678.66" y1="-4276.45" x2="7678.66" y2="-4283.74"
      gradientTransform="translate(8465.82 -2516.56) rotate(-168.25)" xlink:href="#Degradado_sin_nombre_18" />
    <linearGradient id="Degradado_sin_nombre_18-37" x1="7700.49" y1="-4267.35" x2="7700.49" y2="-4272.13"
      gradientTransform="translate(8465.82 -2516.56) rotate(-168.25)" xlink:href="#Degradado_sin_nombre_18" />
    <linearGradient id="Degradado_sin_nombre_18-38" x1="7686.13" y1="-4265.04" x2="7686.13" y2="-4272.33"
      gradientTransform="translate(8465.82 -2516.56) rotate(-168.25)" xlink:href="#Degradado_sin_nombre_18" />
    <linearGradient id="Degradado_sin_nombre_18-39" x1="7686.41" y1="-4274.62" x2="7686.41" y2="-4279.37"
      gradientTransform="translate(8465.82 -2516.56) rotate(-168.25)" xlink:href="#Degradado_sin_nombre_18" />
    <linearGradient id="Degradado_sin_nombre_18-40" x1="7705.34" y1="-4261.28" x2="7705.34" y2="-4265.56"
      gradientTransform="translate(8465.82 -2516.56) rotate(-168.25)" xlink:href="#Degradado_sin_nombre_18" />
    <linearGradient id="Degradado_sin_nombre_18-41" x1="7670.89" y1="-4289.82" x2="7670.89" y2="-4294.33"
      gradientTransform="translate(8465.82 -2516.56) rotate(-168.25)" xlink:href="#Degradado_sin_nombre_18" />
    <linearGradient id="Degradado_sin_nombre_18-42" x1="7692.97" y1="-4266.14" x2="7692.97" y2="-4269.79"
      gradientTransform="translate(8465.82 -2516.56) rotate(-168.25)" xlink:href="#Degradado_sin_nombre_18" />
    <linearGradient id="Degradado_sin_nombre_18-43" x1="7701.04" y1="-4263.16" x2="7701.04" y2="-4265.76"
      gradientTransform="translate(8465.82 -2516.56) rotate(-168.25)" xlink:href="#Degradado_sin_nombre_18" />
    <linearGradient id="Degradado_sin_nombre_18-44" x1="7673.56" y1="-4285.16" x2="7673.56" y2="-4287.76"
      gradientTransform="translate(8465.82 -2516.56) rotate(-168.25)" xlink:href="#Degradado_sin_nombre_18" />
    <linearGradient id="Degradado_sin_nombre_18-45" x1="7696.17" y1="-4260.22" x2="7696.17" y2="-4264.78"
      gradientTransform="translate(8465.82 -2516.56) rotate(-168.25)" xlink:href="#Degradado_sin_nombre_18" />
    <linearGradient id="Degradado_sin_nombre_18-46" x1="69.81" y1="-3871.2" x2="69.81" y2="-3912.37"
      gradientTransform="translate(3001.98 2630.06) rotate(-50.71)" xlink:href="#Degradado_sin_nombre_18" />
    <linearGradient id="Degradado_sin_nombre_18-47" x1="60.93" y1="-3897.2" x2="60.93" y2="-3907.99"
      gradientTransform="translate(3001.98 2630.06) rotate(-50.71)" xlink:href="#Degradado_sin_nombre_18" />
    <linearGradient id="Degradado_sin_nombre_18-48" x1="59.41" y1="-3880.03" x2="59.41" y2="-3889.04"
      gradientTransform="translate(3001.98 2630.06) rotate(-50.71)" xlink:href="#Degradado_sin_nombre_18" />
    <linearGradient id="Degradado_sin_nombre_18-49" x1="76.12" y1="-3884.35" x2="76.12" y2="-3889.55"
      gradientTransform="translate(3001.98 2630.06) rotate(-50.71)" xlink:href="#Degradado_sin_nombre_18" />
    <linearGradient id="Degradado_sin_nombre_18-50" x1="53.47" y1="-3891.72" x2="53.47" y2="-3897.94"
      gradientTransform="translate(3001.98 2630.06) rotate(-50.71)" xlink:href="#Degradado_sin_nombre_18" />
    <linearGradient id="Degradado_sin_nombre_18-51" x1="60.39" y1="-3889.76" x2="60.39" y2="-3897.06"
      gradientTransform="translate(3001.98 2630.06) rotate(-50.71)" xlink:href="#Degradado_sin_nombre_18" />
    <linearGradient id="Degradado_sin_nombre_18-52" x1="82.23" y1="-3880.67" x2="82.23" y2="-3885.44"
      gradientTransform="translate(3001.98 2630.06) rotate(-50.71)" xlink:href="#Degradado_sin_nombre_18" />
    <linearGradient id="Degradado_sin_nombre_18-53" x1="67.86" y1="-3878.35" x2="67.86" y2="-3885.64"
      gradientTransform="translate(3001.98 2630.06) rotate(-50.71)" xlink:href="#Degradado_sin_nombre_18" />
    <linearGradient id="Degradado_sin_nombre_18-54" x1="68.14" y1="-3887.94" x2="68.14" y2="-3892.69"
      gradientTransform="translate(3001.98 2630.06) rotate(-50.71)" xlink:href="#Degradado_sin_nombre_18" />
    <linearGradient id="Degradado_sin_nombre_18-55" x1="87.07" y1="-3874.6" x2="87.07" y2="-3878.87"
      gradientTransform="translate(3001.98 2630.06) rotate(-50.71)" xlink:href="#Degradado_sin_nombre_18" />
    <linearGradient id="Degradado_sin_nombre_18-56" x1="52.62" y1="-3903.14" x2="52.62" y2="-3907.65"
      gradientTransform="translate(3001.98 2630.06) rotate(-50.71)" xlink:href="#Degradado_sin_nombre_18" />
    <linearGradient id="Degradado_sin_nombre_18-57" x1="74.7" y1="-3879.46" x2="74.7" y2="-3883.11"
      gradientTransform="translate(3001.98 2630.06) rotate(-50.71)" xlink:href="#Degradado_sin_nombre_18" />
    <linearGradient id="Degradado_sin_nombre_18-58" x1="82.78" y1="-3876.48" x2="82.78" y2="-3879.08"
      gradientTransform="translate(3001.98 2630.06) rotate(-50.71)" xlink:href="#Degradado_sin_nombre_18" />
    <linearGradient id="Degradado_sin_nombre_18-59" x1="55.29" y1="-3898.47" x2="55.29" y2="-3901.08"
      gradientTransform="translate(3001.98 2630.06) rotate(-50.71)" xlink:href="#Degradado_sin_nombre_18" />
    <linearGradient id="Degradado_sin_nombre_18-60" x1="77.9" y1="-3873.54" x2="77.9" y2="-3878.09"
      gradientTransform="translate(3001.98 2630.06) rotate(-50.71)" xlink:href="#Degradado_sin_nombre_18" />
    <linearGradient id="Degradado_sin_nombre_36" x1="45.24" y1="30.45" x2="57.59" y2="1.18"
      gradientTransform="translate(-1.22 5.65) rotate(-.14)" gradientUnits="userSpaceOnUse">
      <stop offset="0" stop-color="#0a95b2" />
      <stop offset="1" stop-color="#0087ff" />
    </linearGradient>
    <linearGradient id="Degradado_sin_nombre_3-3" x1="51.29" y1="72.62" x2="51.64" y2="124.81"
      xlink:href="#Degradado_sin_nombre_3" />
    <linearGradient id="Degradado_sin_nombre_28" x1="13.33" y1="87.02" x2="14.59" y2="78.4"
      gradientTransform="translate(-1.22 5.65) rotate(-.14)" gradientUnits="userSpaceOnUse">
      <stop offset="0" stop-color="#dfdfdf" />
      <stop offset="1" stop-color="#f4f4f4" />
    </linearGradient>
    <linearGradient id="Degradado_sin_nombre_28-2" x1="61.73" y1="120.88" x2="62.98" y2="112.26"
      xlink:href="#Degradado_sin_nombre_28" />
    <linearGradient id="Degradado_sin_nombre_28-3" x1="86.77" y1="77.07" x2="88.02" y2="68.46"
      xlink:href="#Degradado_sin_nombre_28" />
    <linearGradient id="Degradado_sin_nombre_28-4" x1="56.03" y1="79.24" x2="56.97" y2="72.81"
      xlink:href="#Degradado_sin_nombre_28" />
    <linearGradient id="Degradado_sin_nombre_28-5" x1="29.55" y1="108.9" x2="30.48" y2="102.47"
      xlink:href="#Degradado_sin_nombre_28" />
    <linearGradient id="Degradado_sin_nombre_28-6" x1="38.22" y1="101.2" x2="39.15" y2="94.77"
      xlink:href="#Degradado_sin_nombre_28" />
    <linearGradient id="Degradado_sin_nombre_28-7" x1="90.66" y1="104.2" x2="91.6" y2="97.78"
      xlink:href="#Degradado_sin_nombre_28" />
    <linearGradient id="Degradado_sin_nombre_28-8" x1="81.39" y1="101.49" x2="82.32" y2="95.06"
      xlink:href="#Degradado_sin_nombre_28" />
    <linearGradient id="Degradado_sin_nombre_28-9" x1="76.77" y1="70.61" x2="77.71" y2="64.18"
      xlink:href="#Degradado_sin_nombre_28" />
    <linearGradient id="Degradado_sin_nombre_28-10" x1="63.46" y1="108.02" x2="63.93" y2="104.8"
      xlink:href="#Degradado_sin_nombre_28" />
    <linearGradient id="Degradado_sin_nombre_28-11" x1="90.23" y1="117.48" x2="90.7" y2="114.26"
      xlink:href="#Degradado_sin_nombre_28" />
    <linearGradient id="Degradado_sin_nombre_28-12" x1="71" y1="94.93" x2="71.46" y2="91.71"
      xlink:href="#Degradado_sin_nombre_28" />
    <linearGradient id="Degradado_sin_nombre_28-13" x1="84.73" y1="85.39" x2="85.2" y2="82.18"
      xlink:href="#Degradado_sin_nombre_28" />
    <linearGradient id="Degradado_sin_nombre_28-14" x1="48.44" y1="93.95" x2="48.91" y2="90.74"
      xlink:href="#Degradado_sin_nombre_28" />
    <linearGradient id="Degradado_sin_nombre_28-15" x1="36.51" y1="84.92" x2="36.98" y2="81.71"
      xlink:href="#Degradado_sin_nombre_28" />
    <linearGradient id="Degradado_sin_nombre_28-16" x1="11.82" y1="119.61" x2="12.76" y2="113.18"
      xlink:href="#Degradado_sin_nombre_28" />
    <linearGradient id="Degradado_sin_nombre_28-17" x1="48.97" y1="124.01" x2="49.66" y2="119.28"
      xlink:href="#Degradado_sin_nombre_28" />
    <linearGradient id="Degradado_sin_nombre_28-18" x1="66.71" y1="78.25" x2="67.4" y2="73.52"
      xlink:href="#Degradado_sin_nombre_28" />
    <linearGradient id="Degradado_sin_nombre_28-19" x1="15.28" y1="102.08" x2="15.97" y2="97.35"
      xlink:href="#Degradado_sin_nombre_28" />
    <linearGradient id="Degradado_sin_nombre_28-20" x1="83.07" y1="113.05" x2="83.76" y2="108.33"
      xlink:href="#Degradado_sin_nombre_28" />
    <linearGradient id="Degradado_sin_nombre_3-4" x1="43.33" y1="38.7" x2="56.84" y2="6.66"
      xlink:href="#Degradado_sin_nombre_3" />
    <linearGradient id="Degradado_sin_nombre_9" x1="42.75" y1="29.4" x2="58.06" y2="-6.9"
      gradientTransform="translate(-1.22 5.65) rotate(-.14)" gradientUnits="userSpaceOnUse">
      <stop offset="0" stop-color="#ffbf00" />
      <stop offset="1" stop-color="#ff560e" />
    </linearGradient>
    <linearGradient id="Degradado_sin_nombre_6" x1="45.1" y1="22.87" x2="57.72" y2="-7.05"
      gradientTransform="translate(-1.22 5.65) rotate(-.14)" gradientUnits="userSpaceOnUse">
      <stop offset="0" stop-color="#ff560e" />
      <stop offset="1" stop-color="#ffbf00" />
    </linearGradient>
    <linearGradient id="Degradado_sin_nombre_2-2" x1="10.84" y1="80.86" x2="11.46" y2="45.96"
      xlink:href="#Degradado_sin_nombre_2" />
    <linearGradient id="Degradado_sin_nombre_2-3" x1="10.32" y1="80.86" x2="10.93" y2="45.95"
      xlink:href="#Degradado_sin_nombre_2" />
    <linearGradient id="Degradado_sin_nombre_5" x1="-365.02" y1="565.14" x2="-365.02" y2="544.82"
      gradientTransform="translate(393.29 -505.43) rotate(-.75)" gradientUnits="userSpaceOnUse">
      <stop offset="0" stop-color="#fff" />
      <stop offset="1" stop-color="#c9ccd1" />
    </linearGradient>
    <linearGradient id="Degradado_sin_nombre_21" x1="-365.02" y1="562.58" x2="-365.02" y2="544.84"
      gradientTransform="translate(393.29 -505.43) rotate(-.75)" gradientUnits="userSpaceOnUse">
      <stop offset="0" stop-color="#0a0a0a" />
      <stop offset="1" stop-color="#1f1f1f" />
    </linearGradient>
    <linearGradient id="Degradado_sin_nombre_8" x1="19.52" y1="43.61" x2="47.99" y2="43.61"
      gradientUnits="userSpaceOnUse">
      <stop offset="0" stop-color="#141414" />
      <stop offset="1" stop-color="#141414" />
    </linearGradient>
    <linearGradient id="Degradado_sin_nombre_5-2" x1="4460.17" y1="628.36" x2="4460.17" y2="608.03"
      gradientTransform="translate(4533.03 -505.43) rotate(-179.25) scale(1 -1)" xlink:href="#Degradado_sin_nombre_5" />
    <linearGradient id="Degradado_sin_nombre_21-2" x1="4460.17" y1="625.8" x2="4460.17" y2="608.06"
      gradientTransform="translate(4533.03 -505.43) rotate(-179.25) scale(1 -1)"
      xlink:href="#Degradado_sin_nombre_21" />
    <linearGradient id="Degradado_sin_nombre_8-2" x1="4845.05" x2="4873.52"
      gradientTransform="translate(4926.32) rotate(-180) scale(1 -1)" xlink:href="#Degradado_sin_nombre_8" />
    <linearGradient id="Degradado_sin_nombre_8-3" x1="-368.02" y1="596.79" x2="-333.37" y2="596.79"
      gradientTransform="translate(393.29 -505.43) rotate(-.75)" xlink:href="#Degradado_sin_nombre_8" />
    <linearGradient id="Degradado_sin_nombre_8-4" x1="1628.71" y1="-42.18" x2="1636.66" y2="-42.18"
      gradientTransform="translate(1573.79 -307.81) rotate(163.45) scale(.95 -1)"
      xlink:href="#Degradado_sin_nombre_8" />
    <linearGradient id="Degradado_sin_nombre_8-5" x1="-3148.41" y1="1313.32" x2="-3140.46" y2="1313.32"
      gradientTransform="translate(3285.54 -307.81) rotate(16.55) scale(.95 1)" xlink:href="#Degradado_sin_nombre_8" />
  </defs>
  <g id="OBJECTS">
    <path class="cls-57"
      d="M50.53,138.38c-12.26.03-23.86-.93-32.67-2.71-8.22-1.67-17.65-4.54-17.67-12.03L0,47.93c-.02-6.02,2.93-11.67,7.78-15.12l-.03-11.38c0-.86.15-1.71.45-2.53l-.95-2.68c-.26-.73-.37-1.51-.32-2.28,0-.13-.01-.27-.01-.41,0-2.41,1.18-4.69,3.33-6.41,2.68-2.15,7.31-3.8,14.14-5.05C31.56.76,40.73.02,50.18,0c8.19-.02,16.05.48,22.75,1.45,14.22,2.06,20.56,5.72,20.58,11.87,0,.99-.19,1.97-.59,2.9l-.75,2.24c.36.89.55,1.82.55,2.76l.03,11.38c4.87,3.42,7.84,9.06,7.85,15.08l.19,75.7c.02,6.64-7.94,10.99-24.34,13.28-11.47,1.6-23.61,1.71-25.92,1.72Z" />
    <path class="cls-100"
      d="M50.52,135.51c-12.07.03-23.47-.91-32.1-2.65-10.48-2.12-15.36-5.06-15.37-9.23l-.19-75.7c-.01-5.64,2.98-10.77,7.78-13.55l-.03-12.94c0-.65.14-1.49.67-2.38l-1.34-3.78c-.15-.43-.2-.88-.14-1.32-.01-.12-.03-.26-.03-.42,0-1.08.39-2.68,2.25-4.17,2.27-1.82,6.6-3.33,12.86-4.47,7.02-1.28,16-2,25.29-2.03,8.05-.02,15.77.47,22.33,1.42,16.23,2.35,18.12,6.29,18.13,9.05,0,.64-.13,1.27-.4,1.87l-1.18,3.49c.62.95.78,1.86.78,2.55,0,.03.03,12.94.03,12.94,4.81,2.76,7.84,7.87,7.85,13.51l.19,75.7c.03,11.67-42.55,12.11-47.4,12.12Z" />
    <path class="cls-74"
      d="M94.87,47.7l.19,75.7c.01,5.04-19.93,9.19-44.55,9.25-12.3.03-23.45-.97-31.52-2.6-8.08-1.64-13.07-3.91-13.08-6.43l-.19-75.7c-.01-5.29,3.2-9.84,7.79-11.78l-.04-14.71,73.51-.18.04,14.71c4.6,1.92,7.83,6.45,7.85,11.74Z" />
    <path class="cls-41"
      d="M61.66,73.57c-6.67,3.69-13.07,8-20.34,10.23-12.04,3.69-25.76.72-35.52-7.14,0,0,16.35-16.49,55.86-3.09Z" />
    <path class="cls-84"
      d="M39.71,66.74c.6-.02,1.21.08,1.8.32.72.29,1.33.76,1.78,1.33.38.47.66,1.02.82,1.6.25.92.45,1.85.59,2.79.17,1.08.27,2.19.29,3.29.05,1.04,0,2.09-.07,3.14-.04.53-.1,1.06-.17,1.58l-.02.16-.08.64-.14.79c-.71,3.91-2.3,7.78-4.59,11.22-.18.27-.37.54-.56.81-1.53,2.13-3.35,4.05-5.37,5.68-1.41,1.15-2.92,2.15-4.5,2.99-.08.04-.15.08-.22.12-1.56.81-3.18,1.48-4.83,1.98-.31.09-.61.18-.92.26-1.03.26-2.07.47-3.12.6-.78.1-1.57.16-2.37.16-.28,0-.56,0-.83-.02-1.14-.06-2.16-.54-2.91-1.28-.86-.85-1.37-2.06-1.31-3.37.05-1.01.43-1.92,1.04-2.64.16-.19.34-.37.53-.54l.38-.32c.65-.54,1.29-1.03,1.92-1.53.31-.26.63-.49.93-.74.31-.24.61-.49.92-.73,1.11-.91,2.18-1.8,3.17-2.72.08-.07.16-.14.24-.22,2.15-1.97,4.01-3.98,5.65-6.16.81-1.1,1.57-2.24,2.28-3.45.11-.19.22-.37.32-.56.6-1.03,1.17-2.11,1.69-3.26.22-.45.44-.92.64-1.39.37-.83.72-1.68,1.07-2.57.43-1.1.86-2.23,1.32-3.41.19-.49.38-1,.59-1.51l.11-.27c.67-1.67,2.25-2.7,3.94-2.76Z" />
    <path class="cls-47"
      d="M21.86,92.29c.43.67.71,1.45.79,2.3.27,2.84-1.82,5.36-4.66,5.63-1.52.14-2.95-.39-3.99-1.35.16-.19.34-.37.53-.54l.38-.32c.65-.54,1.29-1.03,1.92-1.53.31-.26.63-.49.93-.74.31-.24.61-.49.92-.73,1.11-.91,2.18-1.8,3.17-2.72Z" />
    <path class="cls-89"
      d="M36.68,92.58c1.22-.12,2.37.28,3.24,1.01-.18.27-.37.54-.56.81-1.53,2.13-3.35,4.05-5.37,5.68-.7-.7-1.17-1.64-1.28-2.7-.23-2.42,1.55-4.56,3.96-4.79Z" />
    <path class="cls-85"
      d="M32.69,77.26c.97.31,1.71,1.18,1.81,2.26.14,1.44-.93,2.73-2.37,2.86-.65.06-1.27-.12-1.77-.48.6-1.03,1.17-2.11,1.69-3.26.22-.45.44-.92.64-1.39Z" />
    <path class="cls-79"
      d="M26.5,101.3c1.27-.12,2.42.69,2.76,1.88-1.56.81-3.18,1.48-4.83,1.98-.16-.3-.26-.63-.3-.99-.14-1.44.92-2.73,2.37-2.86Z" />
    <path class="cls-50"
      d="M27.14,93.06c1.68-.16,3.16,1.07,3.32,2.75s-1.07,3.16-2.75,3.32c-1.68.16-3.16-1.07-3.32-2.75-.16-1.68,1.07-3.16,2.75-3.32Z" />
    <path class="cls-98"
      d="M35.27,71.25c1.18-.11,2.24.76,2.35,1.94.11,1.19-.76,2.24-1.94,2.35-.77.07-1.49-.27-1.93-.85.43-1.1.86-2.23,1.32-3.41.06-.01.13-.02.2-.03Z" />
    <path class="cls-54"
      d="M37.8,84.54c1.68-.16,3.16,1.07,3.32,2.75.16,1.68-1.07,3.16-2.75,3.32-1.68.16-3.16-1.07-3.32-2.75-.16-1.68,1.07-3.16,2.75-3.32Z" />
    <path class="cls-26"
      d="M29.54,86.11c1.09-.1,2.06.7,2.16,1.79.1,1.09-.7,2.06-1.79,2.16-1.09.1-2.06-.7-2.16-1.79-.1-1.09.7-2.06,1.79-2.16Z" />
    <path class="cls-46"
      d="M39.71,66.74c.6-.02,1.21.08,1.8.32.72.29,1.33.76,1.78,1.33-.32.51-.86.88-1.51.94-1.09.1-2.06-.7-2.16-1.79-.03-.28,0-.55.08-.8Z" />
    <path class="cls-52"
      d="M15.94,103.59c1.09-.1,2.06.7,2.16,1.79.03.28,0,.54-.08.8-.28,0-.56,0-.83-.02-1.14-.06-2.16-.54-2.91-1.28.25-.69.89-1.21,1.67-1.28Z" />
    <path class="cls-39"
      d="M37.94,79.19c.84-.08,1.58.54,1.66,1.38.08.84-.54,1.58-1.38,1.66-.84.08-1.58-.54-1.66-1.38-.08-.84.54-1.58,1.37-1.66Z" />
    <path class="cls-78"
      d="M40.7,71.26c.6-.06,1.13.38,1.18.98s-.38,1.13-.98,1.18c-.6.06-1.13-.38-1.18-.98-.06-.6.38-1.13.98-1.18Z" />
    <path class="cls-38"
      d="M21.38,100.69c.6-.06,1.13.38,1.18.98.06.6-.38,1.13-.98,1.18-.6.06-1.13-.38-1.18-.98-.06-.6.38-1.13.98-1.18Z" />
    <path class="cls-43"
      d="M44.71,72.78c.17,1.08.27,2.19.29,3.29.05,1.04,0,2.09-.07,3.14-.04.53-.1,1.06-.17,1.58l-.02.16c-1.78-.33-3.2-1.81-3.38-3.7-.2-2.15,1.27-4.08,3.36-4.47Z" />
    <path class="cls-83"
      d="M52.49,70.88c0-.6.14-1.2.41-1.78.33-.71.82-1.29,1.42-1.72.49-.36,1.05-.61,1.63-.74.93-.2,1.87-.36,2.82-.45,1.09-.12,2.2-.16,3.3-.13,1.04,0,2.09.11,3.13.23.52.07,1.05.15,1.57.25l.16.03.63.12.78.18c3.87.9,7.66,2.68,10.97,5.14.26.2.52.39.78.6,2.05,1.63,3.88,3.55,5.41,5.64,1.08,1.47,2,3.03,2.76,4.64.03.08.07.15.1.23.73,1.6,1.32,3.25,1.73,4.93.08.31.15.62.21.93.21,1.04.37,2.09.45,3.15.06.79.08,1.57.05,2.37-.01.28-.03.55-.06.83-.11,1.14-.64,2.13-1.43,2.85-.9.82-2.13,1.27-3.43,1.14-1-.1-1.9-.53-2.58-1.17-.19-.17-.36-.36-.51-.56l-.3-.39c-.51-.67-.97-1.34-1.44-2-.24-.32-.45-.65-.7-.97-.22-.32-.46-.64-.69-.95-.86-1.16-1.69-2.26-2.56-3.31-.06-.08-.14-.16-.2-.25-1.86-2.24-3.78-4.2-5.88-5.95-1.05-.87-2.16-1.68-3.33-2.45-.18-.12-.36-.23-.54-.35-1-.65-2.05-1.27-3.17-1.84-.44-.25-.89-.48-1.36-.71-.81-.41-1.65-.8-2.51-1.19-1.08-.48-2.19-.97-3.34-1.49-.48-.21-.98-.43-1.47-.67l-.27-.12c-1.63-.75-2.59-2.38-2.56-4.07Z" />
    <path class="cls-55"
      d="M77.13,89.97c.69-.4,1.48-.64,2.33-.68,2.85-.13,5.27,2.08,5.4,4.93.07,1.52-.53,2.93-1.54,3.92-.19-.17-.36-.36-.51-.56l-.3-.39c-.51-.67-.97-1.34-1.44-2-.24-.32-.45-.65-.7-.97-.22-.32-.46-.64-.69-.95-.86-1.16-1.69-2.26-2.56-3.31Z" />
    <path class="cls-53"
      d="M78.15,75.19c-.06-1.23.39-2.35,1.17-3.18.26.2.52.39.78.6,2.05,1.63,3.88,3.55,5.41,5.64-.73.67-1.7,1.09-2.76,1.14-2.43.11-4.48-1.77-4.59-4.2Z" />
    <path class="cls-3"
      d="M62.65,78.42c.36-.95,1.26-1.65,2.34-1.7,1.45-.07,2.68,1.06,2.74,2.51.03.65-.19,1.27-.56,1.75-1-.65-2.05-1.27-3.17-1.84-.44-.25-.89-.48-1.36-.71Z" />
    <path class="cls-49"
      d="M86.36,85.78c-.06-1.28.81-2.38,2.01-2.67.73,1.6,1.32,3.25,1.73,4.93-.3.15-.64.23-1,.25-1.45.07-2.68-1.06-2.74-2.51Z" />
    <path class="cls-58"
      d="M78.16,84.74c-.08-1.68,1.23-3.1,2.91-3.18,1.68-.08,3.11,1.23,3.18,2.91.08,1.68-1.23,3.1-2.91,3.18-1.68.08-3.11-1.23-3.18-2.91Z" />
    <path class="cls-70"
      d="M56.78,75.54c-.05-1.19.87-2.2,2.06-2.25,1.19-.05,2.2.87,2.25,2.06.03.78-.34,1.48-.94,1.88-1.08-.48-2.19-.97-3.34-1.49-.01-.06-.02-.13-.02-.2Z" />
    <path class="cls-1"
      d="M70.18,73.67c-.08-1.68,1.23-3.11,2.91-3.18s3.1,1.23,3.18,2.91c.08,1.68-1.23,3.1-2.91,3.18-1.68.08-3.1-1.23-3.18-2.91Z" />
    <path class="cls-87"
      d="M71.34,81.99c-.05-1.09.8-2.02,1.89-2.07,1.09-.05,2.02.8,2.07,1.89.05,1.1-.8,2.02-1.89,2.07-1.09.05-2.02-.8-2.07-1.89Z" />
    <path class="cls-44"
      d="M52.49,70.88c0-.6.14-1.2.41-1.78.33-.71.82-1.29,1.42-1.72.5.34.83.9.86,1.55.05,1.09-.8,2.02-1.89,2.07-.28.01-.55-.03-.79-.12Z" />
    <path class="cls-32"
      d="M88.13,96.44c-.05-1.09.8-2.02,1.89-2.07.28-.01.54.03.79.12-.01.28-.03.55-.06.83-.11,1.14-.64,2.13-1.43,2.85-.68-.29-1.16-.95-1.2-1.73Z" />
    <path class="cls-71"
      d="M64.84,73.27c-.04-.84.61-1.55,1.46-1.59.84-.04,1.55.61,1.59,1.46.04.84-.61,1.55-1.46,1.59-.84.04-1.55-.61-1.59-1.46Z" />
    <path class="cls-65"
      d="M57.05,70.12c-.03-.6.44-1.11,1.04-1.13.6-.03,1.11.44,1.13,1.04.03.6-.44,1.11-1.04,1.14-.6.03-1.11-.44-1.14-1.04Z" />
    <path class="cls-91"
      d="M85.5,90.87c-.03-.6.44-1.11,1.04-1.13.6-.03,1.11.44,1.13,1.04.03.6-.44,1.11-1.04,1.14-.6.03-1.11-.44-1.14-1.04Z" />
    <path class="cls-97"
      d="M58.77,66.19c1.09-.12,2.2-.16,3.3-.13,1.04,0,2.09.11,3.13.23.52.07,1.05.15,1.57.25l.16.03c-.42,1.76-1.96,3.11-3.86,3.19-2.16.1-4.01-1.47-4.3-3.57Z" />
    <path class="cls-80"
      d="M51.82,90.18c.15-.58.43-1.13.83-1.63.49-.61,1.11-1.04,1.8-1.31.57-.23,1.17-.33,1.77-.32.95.03,1.9.12,2.84.26,1.09.16,2.17.39,3.23.69,1.01.26,1.99.62,2.98.99.49.19.98.41,1.46.63l.14.07.58.27.71.37c3.53,1.83,6.76,4.49,9.36,7.69.21.26.41.51.61.77,1.58,2.09,2.88,4.39,3.84,6.8.68,1.69,1.19,3.43,1.53,5.18.01.08.03.17.04.25.31,1.73.48,3.47.46,5.2,0,.32,0,.64-.02.95-.05,1.06-.16,2.12-.34,3.16-.13.78-.31,1.55-.54,2.31-.08.27-.16.53-.26.79-.39,1.08-1.15,1.91-2.09,2.41-1.07.57-2.37.7-3.6.26-.95-.35-1.71-.98-2.21-1.77-.14-.21-.26-.44-.36-.67l-.19-.45c-.33-.78-.61-1.54-.9-2.29-.15-.37-.28-.75-.43-1.11-.13-.37-.29-.73-.43-1.09-.54-1.33-1.08-2.61-1.66-3.84-.04-.1-.09-.19-.14-.29-1.25-2.63-2.62-5-4.22-7.22-.81-1.1-1.68-2.16-2.62-3.19-.15-.16-.29-.32-.44-.47-.81-.88-1.68-1.74-2.61-2.57-.37-.35-.75-.69-1.14-1.03-.68-.59-1.4-1.18-2.14-1.78-.92-.73-1.88-1.48-2.87-2.27-.42-.33-.84-.66-1.26-1.01l-.23-.19c-1.4-1.13-1.92-2.94-1.48-4.57Z" />
    <path class="cls-64"
      d="M70.97,114.77c.77-.22,1.6-.25,2.43-.08,2.8.58,4.59,3.32,4.01,6.11-.31,1.49-1.24,2.71-2.46,3.41-.14-.21-.26-.44-.36-.67l-.19-.45c-.33-.78-.61-1.54-.9-2.29-.15-.37-.28-.75-.43-1.11-.13-.37-.29-.73-.43-1.09-.54-1.33-1.08-2.61-1.66-3.84Z" />
    <path class="cls-60"
      d="M75.61,100.69c.25-1.2.96-2.18,1.92-2.8.21.26.41.51.61.77,1.58,2.09,2.88,4.39,3.84,6.8-.87.46-1.91.64-2.96.42-2.38-.5-3.9-2.82-3.41-5.2Z" />
    <path class="cls-86"
      d="M59.8,99.99c.58-.83,1.63-1.29,2.69-1.07,1.42.3,2.33,1.69,2.04,3.11-.13.64-.49,1.18-.98,1.55-.81-.88-1.68-1.74-2.61-2.57-.37-.35-.75-.69-1.14-1.03Z" />
    <path class="cls-37"
      d="M80.95,112.99c.26-1.25,1.37-2.11,2.61-2.09.31,1.73.48,3.47.46,5.2-.33.07-.68.07-1.03,0-1.42-.3-2.33-1.68-2.04-3.11Z" />
    <path class="cls-67"
      d="M73.26,109.95c.34-1.65,1.96-2.71,3.6-2.36,1.65.34,2.71,1.96,2.36,3.6-.34,1.65-1.96,2.71-3.6,2.36-1.65-.34-2.71-1.96-2.36-3.6Z" />
    <path class="cls-45"
      d="M54.82,95.75c.24-1.16,1.38-1.91,2.55-1.67,1.17.24,1.91,1.38,1.67,2.55-.16.76-.7,1.34-1.38,1.59-.92-.73-1.88-1.48-2.87-2.27,0-.06.02-.13.03-.2Z" />
    <path class="cls-35"
      d="M68.26,97.25c.34-1.65,1.96-2.71,3.6-2.36,1.65.34,2.71,1.96,2.36,3.6-.34,1.65-1.96,2.71-3.6,2.36-1.65-.34-2.71-1.96-2.36-3.6Z" />
    <path class="cls-82"
      d="M67.33,105.6c.22-1.07,1.27-1.76,2.35-1.54,1.07.22,1.76,1.27,1.54,2.35-.22,1.07-1.27,1.76-2.35,1.54-1.07-.22-1.76-1.27-1.54-2.35Z" />
    <path class="cls-93"
      d="M51.82,90.18c.15-.58.43-1.13.83-1.63.49-.61,1.11-1.04,1.8-1.31.4.45.58,1.08.45,1.71-.22,1.07-1.28,1.76-2.35,1.54-.27-.06-.52-.17-.74-.32Z" />
    <path class="cls-56"
      d="M80.02,123.75c.22-1.07,1.27-1.76,2.35-1.54.27.06.52.17.74.32-.08.27-.16.53-.26.79-.39,1.08-1.15,1.91-2.09,2.41-.59-.45-.89-1.21-.73-1.97Z" />
    <path class="cls-63"
      d="M63.19,95.54c.17-.82.98-1.35,1.8-1.18.82.17,1.35.98,1.18,1.8-.17.82-.98,1.35-1.8,1.18-.82-.17-1.35-.98-1.18-1.8Z" />
    <path class="cls-75"
      d="M56.43,90.57c.12-.59.7-.97,1.29-.84.59.12.97.7.84,1.29-.12.59-.7.97-1.29.84-.59-.12-.97-.7-.84-1.29Z" />
    <path class="cls-5"
      d="M78.86,117.7c.12-.59.7-.97,1.29-.84s.97.7.84,1.29c-.12.59-.7.97-1.29.84-.59-.12-.97-.7-.84-1.29Z" />
    <path class="cls-61"
      d="M59.06,87.18c1.09.16,2.17.39,3.23.69,1.01.26,1.99.62,2.98.99.49.19.98.41,1.46.63l.14.07c-.84,1.6-2.67,2.52-4.53,2.14-2.12-.44-3.52-2.42-3.28-4.52Z" />
    <path class="cls-68"
      d="M56.59,105.49c.44.4.8.91,1.06,1.49.31.72.41,1.47.33,2.2-.06.61-.24,1.19-.54,1.71-.47.83-.98,1.63-1.54,2.4-.64.89-1.35,1.74-2.11,2.55-.7.77-1.48,1.48-2.26,2.18-.4.34-.82.68-1.24,1l-.13.1-.51.39-.66.46c-3.26,2.28-7.11,3.92-11.15,4.74-.32.06-.64.13-.96.18-2.59.44-5.23.52-7.81.26-1.81-.18-3.59-.53-5.3-1.04-.08-.03-.16-.05-.24-.08-1.68-.52-3.3-1.18-4.83-2-.28-.15-.56-.3-.83-.46-.92-.54-1.8-1.12-2.64-1.77-.63-.48-1.23-.99-1.8-1.55-.2-.19-.39-.39-.58-.6-.77-.84-1.16-1.9-1.17-2.96-.01-1.21.48-2.43,1.44-3.31.75-.68,1.66-1.06,2.59-1.14.25-.03.51-.03.76,0l.49.04c.84.07,1.65.17,2.45.26.4.04.79.1,1.19.13.39.05.78.08,1.17.12,1.43.13,2.82.25,4.17.3.11,0,.21,0,.32.01,2.91.11,5.65-.01,8.35-.41,1.35-.21,2.69-.49,4.04-.85.21-.06.41-.11.62-.17,1.15-.31,2.32-.68,3.49-1.13.48-.17.96-.34,1.44-.53.84-.33,1.7-.69,2.57-1.08,1.08-.48,2.18-.98,3.34-1.5.48-.22.98-.44,1.48-.65l.27-.12c1.65-.71,3.5-.34,4.74.81Z" />
    <path class="cls-88"
      d="M25.93,111.09c-.16.78-.51,1.53-1.05,2.19-1.81,2.21-5.07,2.54-7.28.73-1.18-.97-1.83-2.35-1.89-3.76.25-.03.51-.03.76,0l.49.04c.84.07,1.65.17,2.45.26.4.04.79.1,1.19.13.39.05.78.08,1.17.12,1.43.13,2.82.25,4.17.3Z" />
    <path class="cls-36"
      d="M36.26,121.72c.95.78,1.49,1.86,1.59,3-.32.06-.64.13-.96.18-2.59.44-5.23.52-7.81.26,0-.99.32-1.99.99-2.82,1.54-1.88,4.31-2.16,6.19-.62Z" />
    <path class="cls-77"
      d="M44.2,108.02c.47.9.39,2.04-.3,2.88-.92,1.12-2.58,1.29-3.7.37-.51-.42-.82-.98-.93-1.58,1.15-.31,2.32-.68,3.49-1.13.48-.17.96-.34,1.44-.53Z" />
    <path class="cls-42"
      d="M22.89,120.76c.99.81,1.23,2.19.64,3.28-1.68-.52-3.3-1.18-4.83-2,.09-.32.25-.63.48-.91.92-1.12,2.57-1.29,3.7-.37Z" />
    <path class="cls-34"
      d="M29.15,115.35c1.3,1.07,1.49,2.99.43,4.29-1.07,1.3-2.99,1.49-4.29.43-1.3-1.07-1.49-2.99-.43-4.29,1.07-1.3,2.99-1.49,4.29-.43Z" />
    <path class="cls-99"
      d="M50.26,105.57c.92.75,1.06,2.11.3,3.03-.76.92-2.11,1.06-3.03.3-.6-.49-.87-1.24-.77-1.96,1.08-.48,2.18-.98,3.34-1.5.05.03.11.08.16.12Z" />
    <path class="cls-48"
      d="M42.71,116.79c1.3,1.07,1.49,2.99.43,4.29-1.07,1.3-2.99,1.49-4.29.43-1.3-1.07-1.49-2.99-.43-4.29,1.07-1.3,2.99-1.49,4.29-.43Z" />
    <path class="cls-81"
      d="M35.74,112.11c.85.69.97,1.94.28,2.79-.69.85-1.94.97-2.79.28-.85-.69-.97-1.94-.28-2.79s1.94-.97,2.79-.28Z" />
    <path class="cls-94"
      d="M56.59,105.49c.44.4.8.91,1.06,1.49.31.72.41,1.47.33,2.2-.59.14-1.23.02-1.73-.39-.85-.69-.97-1.95-.28-2.79.18-.22.39-.39.62-.51Z" />
    <path class="cls-62"
      d="M13.78,114.96c.85.69.97,1.94.28,2.79-.18.21-.39.38-.62.51-.2-.19-.39-.39-.58-.6-.77-.84-1.16-1.9-1.17-2.96.67-.31,1.48-.23,2.09.26Z" />
    <path class="cls-59"
      d="M46.58,113.09c.65.53.75,1.49.21,2.15-.53.65-1.49.75-2.15.21-.65-.53-.75-1.49-.21-2.15.53-.65,1.49-.75,2.15-.21Z" />
    <path class="cls-69"
      d="M54.11,109.39c.46.38.53,1.07.15,1.53-.38.46-1.07.53-1.53.15s-.53-1.07-.15-1.53c.38-.46,1.07-.53,1.53-.15Z" />
    <path class="cls-96"
      d="M19.68,116.73c.46.38.53,1.07.15,1.53-.38.46-1.07.53-1.53.15-.46-.38-.53-1.07-.15-1.53s1.07-.53,1.53-.15Z" />
    <path class="cls-73"
      d="M55.9,113.29c-.64.89-1.35,1.74-2.11,2.55-.7.77-1.48,1.48-2.26,2.18-.4.34-.82.68-1.24,1l-.13.1c-1.03-1.49-1-3.54.2-5,1.37-1.67,3.77-2,5.53-.82Z" />
    <path class="cls-4"
      d="M86.99,21.24c.01,4.16-16.44,7.58-36.74,7.63-20.3.05-36.76-3.28-36.77-7.45-.01-4.16,16.44-7.58,36.74-7.63,20.3-.05,36.76,3.28,36.77,7.45Z" />
    <path class="cls-40"
      d="M94.92,68.36l.14,55.03c.01,5.04-19.93,9.19-44.55,9.25-12.3.03-23.45-.97-31.52-2.6-8.08-1.64-13.07-3.91-13.08-6.43l-.12-46.97c9.76,7.86,23.48,10.82,35.52,7.14,11-3.37,20.02-11.53,30.98-15.04,7.28-2.33,15.25-2.42,22.62-.39Z" />
    <path class="cls-14"
      d="M16.56,88.48c0,2.01-1.62,3.64-3.63,3.65-2.01,0-3.64-1.62-3.65-3.63s1.62-3.64,3.63-3.65c2.01,0,3.64,1.62,3.65,3.63Z" />
    <path class="cls-8"
      d="M65.04,122.22c0,2.01-1.62,3.64-3.63,3.65-2.01,0-3.64-1.62-3.65-3.63s1.62-3.64,3.63-3.65c2.01,0,3.64,1.62,3.65,3.63Z" />
    <path class="cls-22"
      d="M89.97,78.35c0,2.01-1.62,3.64-3.63,3.65-2.01,0-3.64-1.62-3.65-3.63s1.62-3.64,3.63-3.65c2.01,0,3.64,1.62,3.65,3.63Z" />
    <path class="cls-12"
      d="M58.17,81.64c0,1.5-1.21,2.72-2.71,2.72-1.5,0-2.72-1.21-2.72-2.71,0-1.5,1.21-2.72,2.71-2.72,1.5,0,2.72,1.21,2.72,2.71Z" />
    <path class="cls-25"
      d="M31.76,111.37c0,1.5-1.21,2.72-2.71,2.72-1.5,0-2.72-1.21-2.72-2.71,0-1.5,1.21-2.72,2.71-2.72,1.5,0,2.72,1.21,2.72,2.71Z" />
    <path class="cls-23"
      d="M40.41,103.65c0,1.5-1.21,2.72-2.71,2.72-1.5,0-2.72-1.21-2.72-2.71,0-1.5,1.21-2.72,2.71-2.72,1.5,0,2.72,1.21,2.72,2.71Z" />
    <path class="cls-13"
      d="M92.86,106.52c0,1.5-1.21,2.72-2.71,2.72-1.5,0-2.72-1.21-2.72-2.71,0-1.5,1.21-2.72,2.71-2.72,1.5,0,2.72,1.21,2.72,2.71Z" />
    <path class="cls-17"
      d="M83.58,103.83c0,1.5-1.21,2.72-2.71,2.72-1.5,0-2.72-1.21-2.72-2.71,0-1.5,1.21-2.72,2.71-2.72,1.5,0,2.72,1.21,2.72,2.71Z" />
    <path class="cls-9"
      d="M78.89,72.97c0,1.5-1.21,2.72-2.71,2.72-1.5,0-2.72-1.21-2.72-2.71,0-1.5,1.21-2.72,2.71-2.72,1.5,0,2.72,1.21,2.72,2.71Z" />
    <path class="cls-18"
      d="M64.1,111.96c0,.75-.6,1.36-1.35,1.36-.75,0-1.36-.6-1.36-1.35,0-.75.6-1.36,1.35-1.36.75,0,1.36.6,1.36,1.35Z" />
    <path class="cls-7"
      d="M90.89,121.35c0,.75-.6,1.36-1.35,1.36-.75,0-1.36-.6-1.36-1.35,0-.75.6-1.36,1.35-1.36.75,0,1.36.6,1.36,1.35Z" />
    <path class="cls-21"
      d="M71.59,98.85c0,.75-.6,1.36-1.35,1.36-.75,0-1.36-.6-1.36-1.35,0-.75.6-1.36,1.35-1.36.75,0,1.36.6,1.36,1.35Z" />
    <path class="cls-6"
      d="M85.31,89.28c0,.75-.6,1.36-1.35,1.36-.75,0-1.36-.6-1.36-1.35,0-.75.6-1.36,1.35-1.36.75,0,1.36.6,1.36,1.35Z" />
    <path class="cls-20"
      d="M49.03,97.93c0,.75-.6,1.36-1.35,1.36-.75,0-1.36-.6-1.36-1.35,0-.75.6-1.36,1.35-1.36.75,0,1.36.6,1.36,1.35Z" />
    <path class="cls-10"
      d="M37.08,88.93c0,.75-.6,1.36-1.35,1.36-.75,0-1.36-.6-1.36-1.35,0-.75.6-1.36,1.35-1.36.75,0,1.36.6,1.36,1.35Z" />
    <path class="cls-15"
      d="M14.06,122.12c0,1.5-1.21,2.72-2.71,2.72-1.5,0-2.72-1.21-2.72-2.71,0-1.5,1.21-2.72,2.71-2.72,1.5,0,2.72,1.21,2.72,2.71Z" />
    <path class="cls-16"
      d="M50.38,127.25c0,1.1-.89,2-1.99,2-1.1,0-2-.89-2-1.99,0-1.1.89-2,1.99-2,1.1,0,2,.89,2,1.99Z" />
    <path class="cls-24" d="M68.01,81.45c0,1.1-.89,2-1.99,2-1.1,0-2-.89-2-1.99,0-1.1.89-2,1.99-2,1.1,0,2,.89,2,1.99Z" />
    <path class="cls-11"
      d="M16.64,105.41c0,1.1-.89,2-1.99,2-1.1,0-2-.89-2-1.99,0-1.1.89-2,1.99-2,1.1,0,2,.89,2,1.99Z" />
    <path class="cls-19"
      d="M84.45,116.21c0,1.1-.89,2-1.99,2-1.1,0-2-.89-2-1.99,0-1.1.89-2,1.99-2,1.1,0,2,.89,2,1.99Z" />
    <path class="cls-90"
      d="M84.21,24.13l-3.01,8.91c0,3.5-13.83,6.37-30.92,6.42-17.08.04-30.94-2.76-30.95-6.26l-3.17-8.95c5.46,2.75,18.67,4.66,34.09,4.62,15.32-.04,28.44-1.99,33.95-4.74Z" />
    <path class="cls-66"
      d="M87.78,13.34c0,.27-.06.53-.19.79l-1.76,5.23-1.62,4.78c-5.51,2.75-18.63,4.7-33.95,4.74-15.42.04-28.63-1.88-34.09-4.62l-1.63-4.62-1.88-5.31h.19c-.13-.26-.2-.52-.2-.79-.01-4.25,16.8-7.75,37.55-7.8,20.74-.05,37.57,3.36,37.58,7.61Z" />
    <path class="cls-2"
      d="M87.78,13.34c.01,4.25-16.8,7.75-37.55,7.8s-37.58-3.36-37.59-7.61c-.01-4.26,16.8-7.75,37.55-7.8,20.75-.05,37.58,3.36,37.59,7.61Z" />
    <path class="cls-95"
      d="M8,49.63c-.57,3.77-.03,7.62.5,11.4.14.98.47,2.18,1.44,2.39.96.21,1.77-.76,2.14-1.67,1.84-4.6-.96-10.11.97-14.67.64-1.51,2.19-3.16,2.04-4.9-.11-1.28-1.24-1.7-2.38-1.24-2.87,1.18-4.29,5.96-4.71,8.69Z" />
    <path class="cls-76"
      d="M8.9,74.15c.18.66.49,1.39,1.15,1.59.55.17,1.16-.13,1.52-.58.36-.45.51-1.03.63-1.59.32-1.49.43-3.03.35-4.56-.03-.58-.11-1.21-.48-1.66-.39-.47-1.07-.66-1.68-.54-2.71.56-2,5.44-1.49,7.33Z" />
    <path class="cls-33"
      d="M44.92,44.79c.2,10.76-3.87,19.56-9.1,19.65-5.23.1-9.62-8.55-9.82-19.31v-.7s18.9-.25,18.9-.25c.01.2.02.4.02.6Z" />
    <path class="cls-72"
      d="M42.55,44.84c.17,9.33-2.86,16.97-6.78,17.04-2.42.04-4.63-2.81-5.98-7.2l5.04-3.95-5.95.05c-.29-1.77-.48-3.68-.52-5.67,0-.23,0-.46,0-.69l14.17-.19c.01.21.02.41.02.62Z" />
    <path class="cls-28" d="M21.02,42.57c3.87,1.3,13.44,2.7,25.47,1.81" />
    <path class="cls-92"
      d="M55.87,44.79c-.2,10.76,3.87,19.56,9.1,19.65,5.23.1,9.62-8.55,9.82-19.31v-.7s-18.9-.25-18.9-.25c-.01.2-.02.4-.02.6Z" />
    <path class="cls-51"
      d="M58.24,44.84c-.17,9.33,2.86,16.97,6.78,17.04,2.42.04,4.63-2.81,5.98-7.2l-5.04-3.95,5.95.05c.29-1.77.48-3.68.52-5.67,0-.23,0-.46,0-.69l-14.17-.19c-.01.21-.02.41-.02.62Z" />
    <path class="cls-30" d="M79.77,42.57c-3.87,1.3-13.44,2.7-25.47,1.81" />
    <path class="cls-27" d="M34.61,95.29c10.5,2.03,21.27,1.89,31.65-.41" />
    <path class="cls-31" d="M68.66,91.85c-.92,1.08-3.11,3.9-2.55,8" />
    <path class="cls-29" d="M32.13,91.85c.92,1.08,3.11,3.9,2.55,8" />
  </g>
</svg>