<?xml version="1.0" encoding="UTF-8"?>
<svg id="Capa_2" xmlns="http://www.w3.org/2000/svg" xmlns:xlink="http://www.w3.org/1999/xlink"
  viewBox="0 0 128.42 168.35">
  <defs>
    <style>
      .cls-1 {
        stroke: url(#Degradado_sin_nombre_13-4);
      }

      .cls-1,
      .cls-2,
      .cls-3,
      .cls-4,
      .cls-5 {
        fill: none;
        stroke-linecap: round;
        stroke-linejoin: round;
        stroke-width: 3.27px;
      }

      .cls-6 {
        fill: url(#Degradado_sin_nombre_21-2);
      }

      .cls-2 {
        stroke: url(#Degradado_sin_nombre_13-2);
      }

      .cls-7 {
        fill: url(#Degradado_sin_nombre_2);
      }

      .cls-3 {
        stroke: url(#Degradado_sin_nombre_13-3);
      }

      .cls-8 {
        fill: url(#Degradado_sin_nombre_7);
      }

      .cls-4 {
        stroke: url(#Degradado_sin_nombre_13-5);
      }

      .cls-9 {
        fill: url(#Degradado_sin_nombre_21);
      }

      .cls-5 {
        stroke: url(#Degradado_sin_nombre_13);
      }

      .cls-10 {
        fill: url(#Degradado_sin_nombre_2-3);
      }

      .cls-11 {
        fill: url(#Degradado_sin_nombre_22);
      }

      .cls-12 {
        fill: url(#Degradado_sin_nombre_14);
      }

      .cls-13 {
        fill: url(#Degradado_sin_nombre_2-2);
      }

      .cls-14 {
        fill: url(#Degradado_sin_nombre_12);
      }
    </style>
    <linearGradient id="Degradado_sin_nombre_14" x1="98.78" y1="87.93" x2="99.99" y2="87.93"
      gradientUnits="userSpaceOnUse">
      <stop offset="0" stop-color="#e0fdff" />
      <stop offset="1" stop-color="#f5ffff" />
    </linearGradient>
    <linearGradient id="Degradado_sin_nombre_2" x1="64.21" y1="166.24" x2="64.21" y2="-.03"
      gradientUnits="userSpaceOnUse">
      <stop offset="0" stop-color="#c9ccd1" />
      <stop offset="1" stop-color="#fff" />
    </linearGradient>
    <linearGradient id="Degradado_sin_nombre_12" x1="64.21" y1="11.9" x2="64.21" y2="158.15"
      gradientUnits="userSpaceOnUse">
      <stop offset="0" stop-color="#1f1f1f" />
      <stop offset="1" stop-color="#0a0a0a" />
    </linearGradient>
    <linearGradient id="Degradado_sin_nombre_22" x1="64.2" y1="161.24" x2="64.2" y2="9.67"
      gradientUnits="userSpaceOnUse">
      <stop offset="0" stop-color="#fffb00" />
      <stop offset="1" stop-color="#f80" />
    </linearGradient>
    <linearGradient id="Degradado_sin_nombre_7" x1="64.21" y1="157.05" x2="64.21" y2="22.14"
      gradientUnits="userSpaceOnUse">
      <stop offset="0" stop-color="#f80" />
      <stop offset="1" stop-color="#fffb00" />
    </linearGradient>
    <linearGradient id="Degradado_sin_nombre_2-2" x1="43.96" y1="134.44" x2="43.96" y2="104.85"
      xlink:href="#Degradado_sin_nombre_2" />
    <linearGradient id="Degradado_sin_nombre_21" x1="43.96" y1="131.84" x2="43.96" y2="105.95"
      gradientUnits="userSpaceOnUse">
      <stop offset="0" stop-color="#0a0a0a" />
      <stop offset="1" stop-color="#1f1f1f" />
    </linearGradient>
    <linearGradient id="Degradado_sin_nombre_13" x1="31.05" y1="109.62" x2="58.12" y2="109.62"
      gradientUnits="userSpaceOnUse">
      <stop offset="0" stop-color="#1f1f1f" />
      <stop offset="1" stop-color="#0a0a0a" />
    </linearGradient>
    <linearGradient id="Degradado_sin_nombre_2-3" x1="5920.34" y1="134.44" x2="5920.34" y2="104.85"
      gradientTransform="translate(6004.78) rotate(-180) scale(1 -1)" xlink:href="#Degradado_sin_nombre_2" />
    <linearGradient id="Degradado_sin_nombre_21-2" x1="5920.34" y1="131.84" x2="5920.34" y2="105.95"
      gradientTransform="translate(6004.78) rotate(-180) scale(1 -1)" xlink:href="#Degradado_sin_nombre_21" />
    <linearGradient id="Degradado_sin_nombre_13-2" x1="5907.43" x2="5934.49"
      gradientTransform="translate(6004.78) rotate(-180) scale(1 -1)" xlink:href="#Degradado_sin_nombre_13" />
    <linearGradient id="Degradado_sin_nombre_13-3" x1="47.9" y1="141" x2="80.55" y2="141"
      xlink:href="#Degradado_sin_nombre_13" />
    <linearGradient id="Degradado_sin_nombre_13-4" x1="45.26" y1="143.96" x2="52.46" y2="143.96"
      xlink:href="#Degradado_sin_nombre_13" />
    <linearGradient id="Degradado_sin_nombre_13-5" x1="5909.82" y1="143.96" x2="5917.02" y2="143.96"
      gradientTransform="translate(5993.14) rotate(-180) scale(1 -1)" xlink:href="#Degradado_sin_nombre_13" />
  </defs>
  <g id="OBJECTS">
    <path class="cls-12" d="M99.99,85.6c-.54,1.63-1,3.19-1.21,4.67.02-.05.05-.11.07-.16.64-1.42,1.02-2.96,1.13-4.51Z" />
    <path class="cls-7"
      d="M86.57,164.48c-4.18,1.58-8.6,2.69-13.12,3.3-2.79.37-5.63.57-8.43.57-12.74,0-25.88-3.89-37-10.97-13.75-8.74-23.52-22.24-26.79-37.03-3.49-15.77.6-32.32,10.94-44.25,1.21-1.39,2.47-2.68,3.75-4,1.61-1.66,3.14-3.22,4.4-4.87,1.1-1.44,2.89-4.24,2.53-6.75-.43-2.94,1.37-5.85,4.29-6.9.72-.27,1.51-.41,2.33-.41.58,0,1.15.07,1.69.21.48-6.47,3.18-12.8,7.87-17.53.72-.74,1.61-1.29,2.59-1.62-.36-3.08-.29-6.16.19-9.2,1.48-9.45,6.91-18.11,14.89-23.78,1.12-.82,2.51-1.26,3.98-1.26s2.79.43,3.95,1.25c2.33,1.62,3.3,4.61,2.35,7.26-2.56,7.17-.22,15.65,5.83,21.09,2.15,1.95,4.85,3.56,7.71,5.27l.37.22c2.66,1.59,5.41,3.25,8.02,5.35,9.1,7.29,14.33,18.63,14.28,29.97.58-.16,1.19-.25,1.81-.25,1.2,0,2.39.31,3.44.91,9.15,5.33,16.57,16.02,18.94,27.25,6.22,29.45-15.86,56.77-40.79,66.16Z" />
    <path class="cls-14"
      d="M85.35,161.5c-3.95,1.49-8.12,2.53-12.37,3.11-2.61.35-5.3.53-7.97.53-12.09,0-24.58-3.71-35.15-10.43-13.03-8.29-22.28-21.05-25.37-35.02-3.28-14.83.55-30.35,10.24-41.53,1.17-1.35,2.41-2.63,3.62-3.86,1.7-1.74,3.3-3.39,4.66-5.17,1.7-2.24,3.63-5.64,3.14-9.08-.22-1.5.68-2.93,2.15-3.45.38-.14.77-.2,1.16-.2,1.11,0,2.18.55,2.82,1.49,3.66,5.53,5.64,12.11,5.57,18.54,0,.61-.02,1.21-.04,1.82-.06,1.38-.11,2.68.08,3.86.22,1.36.82,2.45,1.58,2.87.23.13.5.19.8.19,1.31,0,2.85-1.09,3.37-2.39,1.06-2.68-.34-5.98-1.27-7.7-.7-1.29-1.52-2.54-2.4-3.87-1.15-1.73-2.34-3.53-3.28-5.53-4.32-9.03-2.36-20.39,4.76-27.59.65-.65,1.54-1,2.43-1,.51,0,1.02.12,1.5.34.06.03.11.06.17.09-.89-3.91-1.06-7.99-.43-11.98,1.35-8.6,6.3-16.51,13.57-21.67.59-.43,1.29-.63,1.99-.63s1.38.2,1.97.62c1.18.82,1.66,2.3,1.18,3.62-2.98,8.36-.29,18.21,6.7,24.49,2.41,2.18,5.29,3.89,8.32,5.71,2.65,1.59,5.4,3.23,7.92,5.25,10.39,8.32,15.28,22.4,12.14,35.04-.43,1.77-1.01,3.5-1.57,5.15-.92,2.74-1.79,5.31-1.97,7.89-.14,2,.4,3.73,1.34,4.22.22.12.49.17.81.17.59,0,1.25-.2,1.78-.55,1-.65,1.89-1.81,2.64-3.44,1.92-4.24,1.92-9.3,0-13.53-.58-1.28-.23-2.78.86-3.7.63-.52,1.41-.79,2.2-.79.6,0,1.19.15,1.74.46,8.36,4.87,15.18,14.74,17.37,25.13,5.87,27.81-15.08,53.62-38.73,62.54Z" />
    <path class="cls-11"
      d="M72.51,161.44c-14.13,1.91-28.76-1.74-40.81-9.4-11.94-7.59-20.96-19.56-23.94-33.01-2.98-13.45.37-28.24,9.53-38.81,2.72-3.14,5.91-5.9,8.42-9.21,2.51-3.3,4.32-7.36,3.74-11.4,3.27,4.94,5.11,10.93,5.06,16.79-.02,2.07-.26,4.15.07,6.2.33,2.04,1.34,4.11,3.2,5.15,3.22,1.79,7.64-.5,8.96-3.84,1.32-3.34.29-7.14-1.42-10.31-1.71-3.17-4.07-6.01-5.62-9.26-3.74-7.84-2.02-17.79,4.16-24.05-.93,4.97.81,11,4.01,15.01,1.03,1.29,2.3,2.49,3.9,3.05,1.6.56,3.57.35,4.73-.83,1.25-1.27,1.27-3.31.6-4.94-.67-1.63-1.9-2.98-2.98-4.39-4.83-6.29-6.93-14.45-5.72-22.17,1.21-7.73,5.72-14.93,12.26-19.58-3.45,9.66-.19,20.89,7.57,27.88,4.88,4.39,11.25,6.96,16.39,11.08,9.42,7.54,13.87,20.38,11.03,31.84-1.13,4.56-3.31,8.9-3.63,13.58-.19,2.75.55,5.93,3.07,7.25,1.87.98,4.29.61,6.06-.53,1.77-1.14,2.97-2.94,3.83-4.82,2.3-5.06,2.3-11.04,0-16.1,8.1,4.72,13.95,14.1,15.83,23.02,5.22,24.75-13.14,50.05-36.68,58.91-3.79,1.43-7.69,2.39-11.63,2.92Z" />
    <path class="cls-8"
      d="M65.01,157.66c-10.58,0-21.54-3.26-30.85-9.19-11.34-7.21-19.37-18.27-22.04-30.34-2.75-12.42.55-25.9,8.59-35.18,1.03-1.19,2.14-2.33,3.33-3.54,1.78-1.83,3.63-3.72,5.27-5.88.18-.24.35-.47.52-.71.16,1.18.24,2.36.23,3.53,0,.53-.03,1.07-.05,1.6-.06,1.6-.13,3.41.17,5.29.59,3.64,2.54,6.63,5.37,8.2,1.41.78,3.04,1.2,4.7,1.2,4.51,0,8.99-3.04,10.65-7.22,1.61-4.06,1.05-8.83-1.63-13.8-.85-1.58-1.81-3.04-2.74-4.44-1.05-1.59-2.05-3.1-2.78-4.63-1.16-2.43-1.65-5.14-1.53-7.85.62,1.13,1.33,2.2,2.12,3.19,1.78,2.23,3.71,3.69,5.9,4.46,1.06.37,2.16.56,3.28.56,2.44,0,4.65-.87,6.21-2.46,2.31-2.34,2.91-6.05,1.51-9.45-.76-1.86-1.91-3.3-2.93-4.58-.21-.26-.41-.52-.62-.78-4.1-5.34-5.93-12.44-4.9-19,.4-2.54,1.23-5.04,2.43-7.38,1.11,6.79,4.55,13.3,9.95,18.16,2.97,2.68,6.31,4.67,9.54,6.6,2.54,1.52,4.94,2.95,7.05,4.64,8.18,6.54,12.02,17.62,9.55,27.56-.37,1.49-.87,2.99-1.41,4.58-1.03,3.05-2.09,6.2-2.33,9.7-.35,5.12,1.66,9.33,5.38,11.28,1.36.71,2.93,1.09,4.54,1.09,2.13,0,4.31-.65,6.13-1.82,2.25-1.45,4.07-3.69,5.42-6.66.93-2.04,1.55-4.21,1.85-6.42,2.63,3.66,4.6,8,5.54,12.49,4.99,23.63-13.73,46.47-33.94,54.08-3.39,1.28-6.97,2.18-10.62,2.67-2.25.3-4.57.46-6.88.46Z" />
    <path class="cls-13"
      d="M53.93,114.72c0,10.89-4.46,19.72-9.97,19.72s-9.97-8.83-9.97-19.72c0-3.48.45-6.75,1.25-9.59l2.22,1.07,16.45,7.9c0,.2,0,.41,0,.61Z" />
    <path class="cls-9"
      d="M51,120.47l-6.26.06,5.38,3.91c-1.35,4.47-3.6,7.41-6.16,7.41-4.13,0-7.47-7.67-7.47-17.12,0-3.1.36-6.01.99-8.52l13.93,6.69c.03.6.04,1.21.04,1.83,0,2.02-.16,3.96-.44,5.75Z" />
    <line class="cls-5" x1="32.69" y1="103.9" x2="56.48" y2="115.33" />
    <path class="cls-10"
      d="M74.48,114.72c0,10.89,4.46,19.72,9.97,19.72s9.97-8.83,9.97-19.72c0-3.48-.45-6.75-1.25-9.59l-2.22,1.07-16.45,7.9c0,.2,0,.41,0,.61Z" />
    <path class="cls-6"
      d="M77.41,120.47l6.26.06-5.38,3.91c1.35,4.47,3.6,7.41,6.16,7.41,4.13,0,7.47-7.67,7.47-17.12,0-3.1-.36-6.01-.98-8.52l-13.93,6.69c-.03.6-.04,1.21-.04,1.83,0,2.02.16,3.96.44,5.75Z" />
    <line class="cls-2" x1="95.72" y1="103.9" x2="71.92" y2="115.33" />
    <path class="cls-3" d="M78.92,143.23c-2.47-2.63-8.12-4.46-14.69-4.46s-12.22,1.84-14.69,4.46" />
    <path class="cls-1" d="M46.89,142.16c1.38.69,2.64,1.4,3.93,3.61" />
    <path class="cls-4" d="M81.68,142.16c-1.38.69-2.64,1.4-3.93,3.61" />
  </g>
</svg>