<?xml version="1.0" encoding="UTF-8"?>
<svg id="Capa_2" xmlns="http://www.w3.org/2000/svg" xmlns:xlink="http://www.w3.org/1999/xlink"
  viewBox="0 0 155.51 158.67">
  <defs>
    <style>
      .cls-1 {
        fill: url(#Degradado_sin_nombre_6);
      }

      .cls-2 {
        stroke: url(#Degradado_sin_nombre_8-3);
      }

      .cls-2,
      .cls-3,
      .cls-4,
      .cls-5,
      .cls-6 {
        fill: none;
      }

      .cls-2,
      .cls-3,
      .cls-5,
      .cls-6 {
        stroke-linecap: round;
        stroke-linejoin: round;
        stroke-width: 3px;
      }

      .cls-7 {
        fill: url(#Degradado_sin_nombre_16);
      }

      .cls-8 {
        fill: url(#Degradado_sin_nombre_12-3);
      }

      .cls-3 {
        stroke: url(#Degradado_sin_nombre_8);
      }

      .cls-9 {
        fill: url(#Degradado_sin_nombre_2-4);
      }

      .cls-10 {
        fill: url(#Degradado_sin_nombre_21-2);
      }

      .cls-11 {
        fill: url(#Degradado_sin_nombre_2);
      }

      .cls-5 {
        stroke: url(#Degradado_sin_nombre_8-2);
      }

      .cls-12 {
        fill: url(#Degradado_sin_nombre_7);
      }

      .cls-13 {
        fill: url(#Degradado_sin_nombre_21);
      }

      .cls-14 {
        fill: url(#Degradado_sin_nombre_2-5);
      }

      .cls-15 {
        fill: url(#Degradado_sin_nombre_3);
      }

      .cls-16 {
        fill: url(#Degradado_sin_nombre_2-3);
      }

      .cls-17 {
        fill: url(#Degradado_sin_nombre_18);
      }

      .cls-18 {
        fill: url(#Degradado_sin_nombre_12-2);
      }

      .cls-6 {
        stroke: url(#Degradado_sin_nombre_8-4);
      }

      .cls-19 {
        fill: url(#Degradado_sin_nombre_15);
      }

      .cls-20 {
        fill: url(#Degradado_sin_nombre_7-2);
      }

      .cls-21 {
        fill: url(#Degradado_sin_nombre_2-2);
      }

      .cls-22 {
        clip-path: url(#clippath);
      }

      .cls-23 {
        fill: url(#Degradado_sin_nombre_12);
      }
    </style>
    <linearGradient id="Degradado_sin_nombre_2" x1="77.75" y1="162.84" x2="77.75" y2="0" gradientUnits="userSpaceOnUse">
      <stop offset="0" stop-color="#c9ccd1" />
      <stop offset="1" stop-color="#fff" />
    </linearGradient>
    <linearGradient id="Degradado_sin_nombre_12" x1="77.75" y1="145.75" x2="77.75" y2="5.68"
      gradientUnits="userSpaceOnUse">
      <stop offset="0" stop-color="#1f1f1f" />
      <stop offset="1" stop-color="#0a0a0a" />
    </linearGradient>
    <linearGradient id="Degradado_sin_nombre_21" x1="251.76" y1="335.68" x2="270" y2="335.68"
      gradientTransform="translate(-148.15 -314.23) rotate(8.89)" gradientUnits="userSpaceOnUse">
      <stop offset="0" stop-color="#0a0a0a" />
      <stop offset="1" stop-color="#1f1f1f" />
    </linearGradient>
    <linearGradient id="Degradado_sin_nombre_7" x1="209.2" y1="335.68" x2="260.88" y2="335.68"
      gradientTransform="translate(-148.15 -314.23) rotate(8.89)" gradientUnits="userSpaceOnUse">
      <stop offset="0" stop-color="#f80" />
      <stop offset="1" stop-color="#fffb00" />
    </linearGradient>
    <linearGradient id="Degradado_sin_nombre_2-2" x1="30.27" y1="57.54" x2="43.32" y2="21.41"
      xlink:href="#Degradado_sin_nombre_2" />
    <linearGradient id="Degradado_sin_nombre_12-2" x1="36.85" y1="54.62" x2="36.85" y2="26.93"
      xlink:href="#Degradado_sin_nombre_12" />
    <linearGradient id="Degradado_sin_nombre_8" x1="20.31" y1="84.27" x2="50.53" y2="84.27"
      gradientUnits="userSpaceOnUse">
      <stop offset="0" stop-color="#141414" />
      <stop offset="1" stop-color="#141414" />
    </linearGradient>
    <linearGradient id="Degradado_sin_nombre_8-2" x1="15.04" y1="71.76" x2="26.14" y2="71.76"
      xlink:href="#Degradado_sin_nombre_8" />
    <linearGradient id="Degradado_sin_nombre_2-3" x1="30.62" y1="16.02" x2="59.08" y2="8.96"
      xlink:href="#Degradado_sin_nombre_2" />
    <linearGradient id="Degradado_sin_nombre_2-4" x1="30.6" y1="15.94" x2="59.07" y2="8.89"
      xlink:href="#Degradado_sin_nombre_2" />
    <linearGradient id="Degradado_sin_nombre_21-2" x1="1348.74" y1="164.14" x2="1366.98" y2="164.14"
      gradientTransform="translate(1413.99 -314.23) rotate(171.11) scale(1 -1)" xlink:href="#Degradado_sin_nombre_21" />
    <linearGradient id="Degradado_sin_nombre_7-2" x1="1306.18" y1="164.14" x2="1357.86" y2="164.14"
      gradientTransform="translate(1413.99 -314.23) rotate(171.11) scale(1 -1)" xlink:href="#Degradado_sin_nombre_7" />
    <linearGradient id="Degradado_sin_nombre_2-5" x1="1140.59" y1="57.54" x2="1153.64" y2="21.41"
      gradientTransform="translate(1265.83) rotate(-180) scale(1 -1)" xlink:href="#Degradado_sin_nombre_2" />
    <linearGradient id="Degradado_sin_nombre_12-3" x1="118.65" y1="54.62" x2="118.65" y2="26.93"
      xlink:href="#Degradado_sin_nombre_12" />
    <linearGradient id="Degradado_sin_nombre_8-3" x1="1130.63" x2="1160.85"
      gradientTransform="translate(1265.83) rotate(-180) scale(1 -1)" xlink:href="#Degradado_sin_nombre_8" />
    <linearGradient id="Degradado_sin_nombre_8-4" x1="1125.36" y1="71.76" x2="1136.46" y2="71.76"
      gradientTransform="translate(1265.83) rotate(-180) scale(1 -1)" xlink:href="#Degradado_sin_nombre_8" />
    <clipPath id="clippath">
      <path class="cls-4"
        d="M101.08,46.65h-46.66c-3.87,18.43-6.77,40.89-4.68,62.14l1.68,34.32,24.69,15.55,27.03-17.74,2.61-32.14c2.09-21.25-.81-43.71-4.68-62.14Z" />
    </clipPath>
    <linearGradient id="Degradado_sin_nombre_6" x1="47.96" y1="66.36" x2="106.99" y2="66.36"
      gradientUnits="userSpaceOnUse">
      <stop offset="0" stop-color="#ff560e" />
      <stop offset="1" stop-color="#ffbf00" />
    </linearGradient>
    <linearGradient id="Degradado_sin_nombre_18" x1="46.52" y1="119.09" x2="107.15" y2="119.09"
      gradientUnits="userSpaceOnUse">
      <stop offset="0" stop-color="#8ad100" />
      <stop offset="1" stop-color="#dcf500" />
    </linearGradient>
    <linearGradient id="Degradado_sin_nombre_3" x1="46.82" y1="103.19" x2="107.05" y2="103.19"
      gradientUnits="userSpaceOnUse">
      <stop offset="0" stop-color="#0087ff" />
      <stop offset="1" stop-color="#00f2ff" />
    </linearGradient>
    <linearGradient id="Degradado_sin_nombre_16" x1="47.11" y1="88.35" x2="106.94" y2="88.35"
      gradientUnits="userSpaceOnUse">
      <stop offset="0" stop-color="#3700ff" />
      <stop offset="1" stop-color="#ff00e6" />
    </linearGradient>
    <linearGradient id="Degradado_sin_nombre_15" x1="47.42" y1="74.43" x2="106.83" y2="74.43"
      gradientUnits="userSpaceOnUse">
      <stop offset="0" stop-color="#fb00ff" />
      <stop offset="1" stop-color="#ff0062" />
    </linearGradient>
  </defs>
  <g id="OBJECTS">
    <path class="cls-11"
      d="M71.69,155.78c-2.48,0-4.95-.82-6.95-2.3-2.57-1.88-4.42-4.67-5.65-8.52-2.27-7.13-1.68-14.21-1.12-21.05,0,0,.03-.31.04-.44-4.95-.59-8.12-4.56-9.39-8.75-15.15-2.42-28.47-10.57-37.52-22.98C2.02,79.29-1.68,64.04.71,48.81,5.13,20.53,29.09,0,57.67,0c2.98,0,6.01.24,8.98.7,7.66,1.2,8.91,11.56,9.13,21.53.2,9.22-.67,21.14-2.46,33.71.26.25.52.5.78.76.71.7,1.9,1.86,2.38,1.99.24,0,.82-.13,1.61-.59.85-.5,1.76-1.25,2.72-2.03.43-.35.84-.69,1.26-1.01-1.71-12.33-2.54-23.99-2.33-33,.23-9.89,1.5-20.15,9.13-21.35,2.98-.47,6-.7,8.98-.7,13.61,0,26.86,4.87,37.29,13.73,10.55,8.95,17.53,21.41,19.67,35.08,2.38,15.21-1.32,30.45-10.42,42.92-8.98,12.32-22.15,20.44-37.13,22.93-.16,3.65-1.76,6.78-4.51,8.67-1.92,1.31-3.92,1.67-5.25,1.9-.14.02-.31.05-.46.08-.04.14-.07.33-.07.56-.03.89.18,2.06.4,3.29.15.85.3,1.7.41,2.55.56,4.44-.24,8.13-2.38,10.97-1.97,2.61-5.22,4.23-8.5,4.23-1.67,0-3.27-.42-4.66-1.2-.47,3.35-1.78,5.94-3.91,7.72-1.83,1.54-4.12,2.35-6.64,2.35Z" />
    <path class="cls-23"
      d="M71.69,152.76c-1.84,0-3.67-.61-5.16-1.7-2.04-1.49-3.54-3.79-4.56-7.01-2.09-6.56-1.53-13.34-.99-19.89v-.11c.12-1.21.18-2.18-.04-2.93-.11-.38-.33-.6-.4-.64.01.01-.04.01-.09.01-.14,0-.28,0-.42.01-.23,0-.45.02-.68.02-.19,0-.38,0-.57-.02-4.54-.3-7.17-4.64-7.68-8.55-.01-.09-.02-.17-.03-.26-.34.08-.7.12-1.07.12-.24,0-.48-.02-.72-.06-14.43-2.26-27.13-10-35.74-21.8C4.93,78.16,1.43,63.71,3.69,49.28,7.88,22.47,30.58,3.02,57.67,3.02c2.83,0,5.7.22,8.51.66,4.28.67,6.31,6.41,6.58,18.61.21,9.49-.73,21.79-2.66,34.8.25.22.5.43.74.66.39.36.77.73,1.15,1.1,1.3,1.27,2.52,2.47,3.78,2.77.23.05.47.08.72.08.92,0,2.03-.36,3.13-1.02,1.04-.62,2.03-1.43,3.08-2.29.57-.47,1.14-.93,1.73-1.38.28-.21.57-.42.86-.63-1.87-12.84-2.77-24.95-2.55-34.28.28-12.08,2.31-17.77,6.58-18.43,2.82-.44,5.68-.66,8.51-.66,12.9,0,25.45,4.62,35.34,13.01,9.99,8.48,16.61,20.29,18.64,33.25,4.66,29.8-15.79,57.84-45.59,62.49-.24.04-.48.06-.72.06h0c-.53,0-1.03-.09-1.51-.24.06.29.11.59.15.9.49,3.58-.67,6.7-3.1,8.36-1.38.95-2.87,1.21-4.07,1.42-.65.11-1.26.22-1.63.4-.78.38-1.36,1.66-1.41,3.12-.04,1.21.2,2.53.44,3.92.14.8.28,1.6.39,2.4.46,3.63-.15,6.58-1.8,8.77-1.41,1.87-3.74,3.03-6.08,3.03-1.7,0-3.28-.62-4.43-1.75-.82-.81-1.3-1.72-1.68-2.45-.11-.2-.25-.48-.37-.68-.16.1-.36.27-.46.47-.43.83-.48,2.08-.52,3.41-.01.31-.02.61-.04.91-.06,1.24-.26,5.02-3,7.32-1.28,1.08-2.91,1.65-4.7,1.65Z" />
    <path class="cls-13"
      d="M66.74,59.14c-4.41,28.2-12.02,50.43-17,49.65-4.98-.78-5.44-24.27-1.03-52.47,4.41-28.2,12.02-50.43,17-49.65,4.98.78,5.44,24.27,1.03,52.47Z" />
    <path class="cls-12"
      d="M65.72,6.67C37.52,2.26,11.08,21.54,6.67,49.74c-4.41,28.2,14.88,54.63,43.07,59.04-4.72-47.96,15.97-102.12,15.97-102.12Z" />
    <path class="cls-21"
      d="M45.31,42.31c-3.53,9.95-10.18,16.67-14.85,15.01-4.67-1.66-5.59-11.07-2.05-21.02,3.53-9.95,10.18-16.67,14.85-15.01,4.67,1.66,5.59,11.07,2.05,21.02Z" />
    <path class="cls-18"
      d="M42.98,33.47l-5.25.75,4.85,1.95c-.3,1.5-.73,3.09-1.31,4.71-2.42,6.82-6.37,11.65-8.8,10.78-2.45-.86-2.46-7.09-.03-13.92,2.42-6.82,6.37-11.65,8.8-10.78,1.49.54,2.08,3.07,1.74,6.51Z" />
    <path class="cls-3" d="M49.03,95.29c-12.56-1.84-22.91-10.47-27.22-22.04" />
    <path class="cls-5" d="M16.54,73.79s5.94,1.93,8.1-4.34" />
    <path class="cls-16"
      d="M44.22,10.48c-.75.26-1.61.72-1.66,1.51-.04.57.4,1.09.93,1.32.52.23,1.11.23,1.69.22,4.1-.08,8.19-.71,12.13-1.88.68-.2,1.38-.43,1.88-.92.95-.93.66-2.03-.57-2.21-1.55-.23-3.35.02-4.91.13-3.22.22-6.43.76-9.49,1.84Z" />
    <path class="cls-9"
      d="M34.32,14.31c-.4.38-.8.89-.67,1.43.09.37.42.64.78.76.36.12.75.11,1.13.07.99-.1,1.96-.34,2.87-.73.88-.37,1.84-.99,1.94-2.03.08-.76-.31-1.45-1.05-1.67-1.66-.47-3.88,1.11-5,2.16Z" />
    <path class="cls-10"
      d="M88.77,59.14c4.41,28.2,12.02,50.43,17,49.65,4.98-.78,5.44-24.27,1.03-52.47-4.41-28.2-12.02-50.43-17-49.65-4.98.78-5.44,24.27-1.03,52.47Z" />
    <path class="cls-20"
      d="M89.8,6.67c28.2-4.41,54.63,14.88,59.04,43.07,4.41,28.2-14.88,54.63-43.07,59.04,4.72-47.96-15.97-102.12-15.97-102.12Z" />
    <path class="cls-14"
      d="M110.2,42.31c3.53,9.95,10.18,16.67,14.85,15.01,4.67-1.66,5.59-11.07,2.05-21.02-3.53-9.95-10.18-16.67-14.85-15.01-4.67,1.66-5.59,11.07-2.05,21.02Z" />
    <path class="cls-8"
      d="M123.04,51.66c-2.43.86-6.38-3.96-8.8-10.78-2.42-6.82-2.41-13.05.02-13.92,1.38-.5,3.26.85,5.06,3.36l-2.86,4.53,4.29-2.26c.84,1.51,1.63,3.25,2.31,5.14,2.42,6.83,2.41,13.06-.02,13.92Z" />
    <path class="cls-2" d="M106.49,95.29c12.56-1.84,22.91-10.47,27.22-22.04" />
    <path class="cls-6" d="M138.97,73.79s-5.94,1.93-8.1-4.34" />
    <g class="cls-22">
      <path class="cls-1"
        d="M86.27,59.43c-1.7,1.29-3.26,2.76-5.09,3.85-1.83,1.09-4.03,1.77-6.1,1.28-2.56-.61-4.35-2.81-6.28-4.6-5.02-4.65-12.12-6.98-18.92-6.21l-1.91,13.19c3.17,2.9,6.36,5.81,9.99,8.12,3.62,2.31,7.73,4.01,12.02,4.23,6.42.33,12.48-2.62,18.33-5.29,5.84-2.67,12.39-5.47,18.69-4.24v-16.26c-7.32-.68-14.87,1.47-20.72,5.92Z" />
      <path class="cls-17"
        d="M99.91,106.97c.17,2.01.96,3.92,1.23,5.92.27,2-.14,4.31-1.81,5.45-1.54,1.05-3.64.78-5.31,1.6-2.06,1-3.03,3.45-3.1,5.73-.07,2.29.57,4.53.85,6.79.29,2.26.16,4.75-1.21,6.57-1.37,1.82-4.35,2.54-5.98.93-1.09-1.07-1.36-2.87-2.64-3.7-1.59-1.02-3.82.14-4.68,1.82-.87,1.68-.79,3.65-.89,5.54-.1,1.88-.47,3.94-1.92,5.15-1.68,1.42-4.35,1.14-6.12-.17-1.78-1.3-2.81-3.39-3.48-5.49-1.92-6.03-1.37-12.53-.85-18.83.12-1.34.22-2.72-.15-4.01-.38-1.29-1.36-2.5-2.68-2.75-.71-.13-1.44.01-2.16-.04-2.77-.18-4.54-3.17-4.9-5.92-.37-2.76.16-5.6-.43-8.31-.6-2.72-4.24-5.29-7.15-5.17l.31-8.98c2.92-.24,5.78.28,8,1.72,2.51,1.63,4.09,4.59,4.06,7.59-.02,1.82-.55,3.81.45,5.31,1.34,2.01,4.32,1.72,6.58,2.59,2.78,1.06,4.45,4,5,6.92.56,2.93.24,5.93.28,8.9.01,1.07.1,2.18.62,3.11.52.93,1.62,1.62,2.65,1.35,1.62-.42,2.39-2.84,4.04-2.68,1.29.13,2.01,1.85,3.31,1.9.92.04,1.64-.81,2.01-1.66,1.42-3.29-.02-7.59,2.26-10.35,1.01-1.23,2.6-1.89,3.54-3.17,1.85-2.52.45-6.05.67-9.17.28-4.01,3.2-8.5,6.85-10.2,3.09-1.44,6.51-2.39,9.92-2.84l.1,8.41c-4.24,1.6-7.56,6.23-7.24,10.12Z" />
      <path class="cls-15"
        d="M107.05,88.45c-3.41.45-6.83,1.4-9.92,2.84-3.65,1.7-6.57,6.18-6.85,10.2-.22,3.12,1.18,6.65-.67,9.17-.94,1.28-2.52,1.94-3.54,3.17-2.29,2.76-.85,7.06-2.26,10.35-.37.85-1.09,1.7-2.01,1.66-1.3-.06-2.01-1.77-3.31-1.9-1.65-.16-2.43,2.26-4.04,2.68-1.03.26-2.12-.43-2.65-1.35-.52-.93-.6-2.04-.62-3.11-.04-2.97.28-5.98-.28-8.9-.55-2.92-2.22-5.86-5-6.92-2.26-.87-5.24-.57-6.58-2.59-1-1.51-.47-3.5-.45-5.31.04-2.99-1.54-5.95-4.06-7.59-2.22-1.44-5.08-1.96-8-1.72l.29-8.52c4.26-.49,8.33-.12,11.27,1.61,3.08,1.82,5.23,5.13,5.63,8.68.18,1.69.07,3.6,1.23,4.85,1.62,1.75,4.69,1.1,6.56,2.57,1.25.99,1.65,2.68,2.21,4.17.56,1.49,1.62,3.08,3.21,3.16,1.4.07,2.55-1.05,3.48-2.11.84-.95,1.68-1.94,2.09-3.14.62-1.81.18-3.79.23-5.7.13-5.68,4.7-10.5,9.95-12.68,4.39-1.82,9.2-2.19,13.98-2.29l.11,8.73Z" />
      <path class="cls-7"
        d="M106.94,79.72c-4.79.1-9.59.46-13.98,2.29-5.25,2.18-9.82,7-9.95,12.68-.04,1.91.4,3.9-.23,5.7-.41,1.2-1.25,2.19-2.09,3.14-.93,1.06-2.07,2.18-3.48,2.11-1.6-.08-2.65-1.67-3.21-3.16-.56-1.49-.96-3.18-2.21-4.17-1.87-1.48-4.94-.82-6.56-2.57-1.15-1.25-1.04-3.16-1.23-4.85-.4-3.55-2.55-6.87-5.63-8.68-2.94-1.73-7.01-2.1-11.27-1.61l.31-9c2.7-.18,5.83-.24,8.42.11,2.84.39,5.67,1.46,7.69,3.48,1.56,1.57,2.56,3.6,3.24,5.7.46,1.4.82,2.9,1.82,3.98,1.16,1.25,2.93,1.69,4.59,2.07,1.45.33,3.04.64,4.37-.04,1.18-.62,1.83-1.87,2.51-3.01,2.67-4.45,6.73-8.06,11.47-10.19,4.37-1.97,10.4-2.73,15.3-2.62l.11,8.65Z" />
      <path class="cls-19"
        d="M106.83,71.07c-4.9-.1-10.92.65-15.3,2.62-4.74,2.12-8.8,5.73-11.47,10.19-.68,1.14-1.34,2.4-2.51,3.01-1.32.68-2.92.37-4.37.04-1.66-.38-3.43-.82-4.59-2.07-1-1.08-1.37-2.58-1.82-3.98-.68-2.1-1.68-4.13-3.24-5.7-2.02-2.03-4.85-3.09-7.69-3.48-2.59-.35-5.73-.29-8.42-.11l.28-8.14c3.35-.16,6.74-.32,10.05.24,3.32.57,6.59,1.92,8.88,4.37,1.18,1.26,2.06,2.76,3.13,4.11,1.07,1.35,2.4,2.6,4.06,3.04,2.36.62,4.87-.51,6.73-2.1,1.86-1.59,3.29-3.62,5.06-5.29,2.75-2.57,6.26-4.21,9.91-5.13,3.65-.91,7.43-1.14,11.19-1.14l.12,9.51Z" />
    </g>
  </g>
</svg>