<?xml version="1.0" encoding="UTF-8"?>
<svg id="Capa_2" xmlns="http://www.w3.org/2000/svg" xmlns:xlink="http://www.w3.org/1999/xlink" viewBox="0 0 134.03 150">
  <defs>
    <style>
      .cls-1 {
        fill: url(#Degradado_sin_nombre_6);
      }

      .cls-2 {
        fill: url(#Degradado_sin_nombre_15-2);
      }

      .cls-3 {
        fill: url(#Degradado_sin_nombre_18-2);
      }

      .cls-4 {
        fill: url(#Degradado_sin_nombre_2);
      }

      .cls-5 {
        stroke: url(#Degradado_sin_nombre_8-2);
      }

      .cls-5,
      .cls-6 {
        fill: none;
        stroke-linecap: round;
        stroke-linejoin: round;
        stroke-width: 3.27px;
      }

      .cls-7 {
        fill: url(#Degradado_sin_nombre_15-3);
      }

      .cls-8 {
        fill: url(#Degradado_sin_nombre_2-3);
      }

      .cls-9 {
        fill: url(#Degradado_sin_nombre_18);
      }

      .cls-6 {
        stroke: url(#Degradado_sin_nombre_8);
      }

      .cls-10 {
        fill: url(#Degradado_sin_nombre_15);
      }

      .cls-11 {
        fill: url(#Degradado_sin_nombre_2-2);
      }

      .cls-12 {
        fill: url(#Degradado_sin_nombre_38);
      }

      .cls-13 {
        fill: url(#Degradado_sin_nombre_12);
      }
    </style>
    <linearGradient id="Degradado_sin_nombre_2" x1="0" y1="75" x2="134.03" y2="75" gradientUnits="userSpaceOnUse">
      <stop offset="0" stop-color="#c9ccd1" />
      <stop offset="1" stop-color="#fff" />
    </linearGradient>
    <linearGradient id="Degradado_sin_nombre_12" x1="2.93" y1="75" x2="131.1" y2="75" gradientUnits="userSpaceOnUse">
      <stop offset="0" stop-color="#1f1f1f" />
      <stop offset="1" stop-color="#0a0a0a" />
    </linearGradient>
    <linearGradient id="Degradado_sin_nombre_15" x1="63.67" y1="37.54" x2="68.91" y2="37.54"
      gradientUnits="userSpaceOnUse">
      <stop offset="0" stop-color="#fb00ff" />
      <stop offset="1" stop-color="#ff0062" />
    </linearGradient>
    <linearGradient id="Degradado_sin_nombre_18" x1="66.19" y1="27.47" x2="102.35" y2="27.47"
      gradientTransform="translate(0)" gradientUnits="userSpaceOnUse">
      <stop offset="0" stop-color="#8ad100" />
      <stop offset="1" stop-color="#dcf500" />
    </linearGradient>
    <linearGradient id="Degradado_sin_nombre_18-2" x1="7830.53" y1="-320.08" x2="7862.68" y2="-320.08"
      gradientTransform="translate(7894.62 -353.2) rotate(174.85) scale(1 -1)" xlink:href="#Degradado_sin_nombre_18" />
    <linearGradient id="Degradado_sin_nombre_6" x1="5826.27" y1="93.76" x2="5947.72" y2="93.76"
      gradientTransform="translate(5954.02) rotate(-180) scale(1 -1)" gradientUnits="userSpaceOnUse">
      <stop offset="0" stop-color="#ff560e" />
      <stop offset="1" stop-color="#ffbf00" />
    </linearGradient>
    <linearGradient id="Degradado_sin_nombre_2-2" x1="84.24" y1="76.11" x2="126.73" y2="76.11"
      gradientTransform="translate(0)" xlink:href="#Degradado_sin_nombre_2" />
    <linearGradient id="Degradado_sin_nombre_2-3" x1="6.53" y1="74.64" x2="86.52" y2="74.64"
      gradientTransform="translate(0)" xlink:href="#Degradado_sin_nombre_2" />
    <linearGradient id="Degradado_sin_nombre_15-2" x1="119.59" y1="51.76" x2="84.08" y2="62.62"
      gradientTransform="translate(0)" xlink:href="#Degradado_sin_nombre_15" />
    <linearGradient id="Degradado_sin_nombre_15-3" x1="6.72" y1="64.44" x2="86.6" y2="64.44"
      xlink:href="#Degradado_sin_nombre_15" />
    <linearGradient id="Degradado_sin_nombre_38" x1="5849" y1="49.16" x2="5930.94" y2="49.16"
      gradientTransform="translate(5954.02) rotate(-180) scale(1 -1)" gradientUnits="userSpaceOnUse">
      <stop offset="0" stop-color="#ff560e" />
      <stop offset="1" stop-color="#ff8300" />
    </linearGradient>
    <linearGradient id="Degradado_sin_nombre_8" x1="65.84" y1="74.15" x2="88.54" y2="74.15"
      gradientUnits="userSpaceOnUse">
      <stop offset="0" stop-color="#141414" />
      <stop offset="1" stop-color="#141414" />
    </linearGradient>
    <linearGradient id="Degradado_sin_nombre_8-2" x1="66.22" y1="103.92" x2="88.78" y2="103.92"
      xlink:href="#Degradado_sin_nombre_8" />
  </defs>
  <g id="OBJECTS">
    <path class="cls-4"
      d="M67.03,150c-3.94,0-7.79-.73-11.45-2.16-15.56-6.08-28.16-14.16-37.46-24.01C8.88,114.04,2.71,102,.74,89.91c-1.82-11.14-.41-22.87,5.87-32.58,5.48-8.48,13.89-14.63,23.73-17.59,0,0,.72-.22.99-.29-1.2-2.08-2.11-4.27-2.67-6.5-2.28-9.02,1.04-18.71,8.25-24.12,1.1-.82,2.47-1.27,3.85-1.27.84,0,1.66.16,2.43.47,2.09.85,3.54,2.72,3.79,4.88.32,2.76,2.44,5.66,6.3,8.61,1.47,1.12,3.05,2.18,4.73,3.29.36.24.73.49,1.1.73,1.51-2.5,4.32-4.14,7.45-4.14.56,0,1.12.05,1.67.16,1.62.31,3.06,1.04,4.21,2.07,1.11-.94,2.23-1.84,3.33-2.72,1.8-1.44,3.48-2.79,5.03-4.21,4.18-3.83,6.34-7.47,6.41-10.81.05-2.18,1.32-4.17,3.32-5.19.9-.46,1.92-.7,2.94-.7,1.21,0,2.38.33,3.39.96,8.4,5.21,13,15.46,11.44,25.51-.71,4.56-2.66,9.03-5.61,12.96l.91.26c.25.07.53.15.81.24,8.98,2.82,16.76,8.37,22.08,15.93,6.19,8.8,8.25,19.6,7.31,30.06-1.16,13.45-7.51,26.91-17.87,37.9-9.3,9.86-21.91,17.94-37.48,24.02-3.64,1.43-7.49,2.16-11.43,2.16Z" />
    <path class="cls-13"
      d="M67.03,146.99c-3.53,0-6.99-.65-10.26-1.94-15.12-5.91-27.34-13.73-36.32-23.25-14.79-15.66-23.69-40.93-12.42-60.67,5.93-10.39,16.39-17.61,28.39-19.78-2.26-2.75-3.88-5.85-4.7-9.11-1.99-7.89.88-16.34,7.13-21.04.56-.42,1.24-.64,1.93-.64.41,0,.82.08,1.22.24,1.05.42,1.77,1.36,1.9,2.44.41,3.59,2.92,7.17,7.46,10.64,1.55,1.18,3.17,2.27,4.9,3.41,1.54,1.02,3.11,2.07,4.63,3.2.09-.6.19-1.2.31-1.8.51-2.49,2.78-4.28,5.38-4.28.36,0,.71.03,1.07.1,2.09.4,3.67,1.9,4.22,3.75,1.93-1.81,3.97-3.46,5.97-5.06,1.82-1.46,3.53-2.83,5.16-4.32,4.8-4.4,7.29-8.75,7.38-12.93.02-1.09.66-2.08,1.66-2.59.46-.24.97-.35,1.47-.35.59,0,1.18.16,1.7.48,7.39,4.58,11.42,13.63,10.04,22.54-.95,6.12-4.42,10.07-7.77,14.99,11.16,3.56,20.68,7.89,27.26,17.85,13.17,19.95,4.28,46.65-11.09,62.94-8.98,9.52-21.21,17.34-36.34,23.25-3.27,1.28-6.72,1.93-10.25,1.93Z" />
    <path class="cls-10"
      d="M66.5,47.18c-2.65-5.4-3.52-11.74-2.25-17.9v-.03c.26-1.22,1.5-2.02,2.77-1.78,1.27.24,2.1,1.43,1.85,2.65-.03.12-.06.25-.11.36-1.96,4.96-2.27,10.72-.68,16.12h0c.13.44-.13.89-.59,1.01-.41.11-.83-.08-1-.44Z" />
    <path class="cls-9"
      d="M66.71,48.93c-1.69-5.6,1.01-11.67,4.96-16.1,3.95-4.43,9.07-7.74,13.46-11.77,4.39-4.03,8.22-9.21,8.35-15.04,6.57,4.07,9.79,12.14,8.64,19.56-1.15,7.42-6.34,13.98-13.06,17.81-6.68,3.8-14.69,4.36-22.35,5.53Z" />
    <path class="cls-3"
      d="M67.98,49.46c1.03-5.08-1.86-10.23-5.72-13.85-3.86-3.62-8.66-6.15-12.88-9.37-4.22-3.22-8.03-7.51-8.62-12.66-5.47,4.1-7.65,11.48-6.02,17.95,1.63,6.47,6.76,11.88,13.02,14.75,6.22,2.85,13.35,2.73,20.22,3.18Z" />
    <path class="cls-1"
      d="M6.92,88.98c1.84,11.31,7.66,22.14,15.84,30.8,9.43,9.99,21.9,17.29,35.19,22.48,5.82,2.28,12.34,2.28,18.15,0,13.29-5.19,25.77-12.49,35.2-22.48,9.03-9.57,15.19-21.8,16.28-34.38.3-3.34.23-6.71-.23-10.07-.02-.17-.04-.34-.07-.51-.14-.95-.32-1.9-.54-2.83-.16-.7-.34-1.41-.53-2.1-.2-.7-.41-1.39-.65-2.08-2.86-8.27-8.53-15.71-16.75-19.67-1.2-.58-2.46-1.13-3.77-1.61-.83-.32-1.68-.61-2.54-.89-4.9-1.54-10.23-2.38-15.13-2.05-6.92.44-13.89,1.29-19.85,4.64-.03.02-.08.04-.11.07-.13.07-.24.14-.36.21-1.37-.81-2.8-1.48-4.27-2.04-5.02-1.91-10.55-2.52-16.06-2.87-6.69-.44-14.17,1.27-20.3,4.02-.38.17-.76.34-1.13.52-.75.36-1.48.75-2.19,1.18-8.55,5.03-13.97,14.01-15.9,23.37-.15.71-.28,1.42-.39,2.14-.03.17-.05.35-.07.52-.08.55-.15,1.08-.19,1.64-.12,1.08-.18,2.16-.21,3.24-.09,2.93.13,5.86.6,8.76Z" />
    <path class="cls-11"
      d="M126.73,71.99s-.02,0-.03.01c-.02,0-.04.01-.06.02-.01,0-.02,0-.03,0-.14.02-.27.04-.41.04s-.27-.02-.4-.04c-.06-.01-.11-.03-.16-.04-.05-.02-.1-.02-.15-.04-.02,0-.05-.02-.07-.03-.06-.02-.11-.04-.17-.07-.07-.03-.14-.07-.21-.11-.05-.03-.1-.05-.14-.08-.07-.05-.14-.1-.2-.16-.03-.02-.06-.04-.09-.07l-.02-.02c-.08-.09-.16-.18-.24-.28,0-.01-.02-.02-.03-.03-.02-.03-.03-.06-.05-.09-.04-.08-.09-.16-.13-.24,0-.02-.02-.03-.02-.04,0-.02-.01-.03-.02-.04-.04-.1-.07-.2-.09-.3-.55.51-1.34.75-2.12.56-.79-.19-1.37-.75-1.61-1.43-.49.54-1.25.84-2.05.72-.79-.12-1.42-.61-1.72-1.27-.44.58-1.16.94-1.95.91-.8-.04-1.47-.47-1.84-1.08-.36.62-1.03,1.05-1.81,1.11-.79.05-1.51-.29-1.95-.84-.28.65-.88,1.16-1.64,1.31h0c-.77.15-1.53-.09-2.05-.58-.18.68-.69,1.26-1.42,1.51-.73.26-1.51.12-2.1-.29-.07.69-.49,1.34-1.18,1.7h0c-.69.35-1.49.33-2.13,0,0,.04,0,.08,0,.11,0,.66-.32,1.31-.92,1.73-.63.45-1.42.54-2.11.3.03.15.04.29.04.43,0,.55-.23,1.11-.68,1.53h0c-.57.53-1.35.72-2.07.57.08.22.12.46.12.69,0,.47-.16.94-.49,1.34-.49.6-1.24.87-1.98.81.14.29.22.62.22.94,0,.38-.11.77-.33,1.12-.41.65-1.12,1-1.85,1.03.08.11.14.24.2.36.06.13.1.27.13.41.03.14.05.28.05.42s-.02.28-.05.42c-.03.14-.07.28-.13.41-.06.13-.12.26-.21.37-.08.12-.18.23-.28.33-.11.1-.22.19-.34.27-.12.08-.25.14-.39.2-.14.05-.28.1-.42.12-.15.03-.29.04-.44.04s-.29-.02-.44-.04c-.15-.03-.29-.07-.42-.12-.14-.05-.27-.12-.39-.2-.12-.08-.24-.17-.34-.27-.1-.1-.2-.21-.28-.33-.08-.12-.15-.24-.21-.37-.05-.13-.1-.27-.12-.41-.03-.14-.05-.28-.05-.42s.01-.28.05-.42c.03-.14.07-.28.12-.41.06-.13.13-.26.21-.37.08-.12.18-.23.28-.33.1-.1.22-.19.34-.27.12-.08.25-.15.39-.2.14-.05.28-.1.42-.12.12-.03.24-.03.37-.04-.24-.36-.38-.78-.38-1.2,0-.39.11-.77.33-1.12.46-.73,1.31-1.11,2.14-1.03-.15-.3-.23-.62-.22-.94,0-.47.16-.94.49-1.34.56-.67,1.44-.94,2.25-.77-.07-.21-.11-.43-.11-.66,0-.58.22-1.15.68-1.58.64-.6,1.55-.76,2.34-.49-.03-.14-.04-.28-.04-.41,0-.66.32-1.31.92-1.74.72-.52,1.66-.55,2.4-.18,0-.03,0-.07,0-.11,0-.77.44-1.51,1.19-1.91.8-.41,1.72-.32,2.4.16.08-.8.64-1.53,1.48-1.82.85-.29,1.75-.08,2.36.49.2-.78.86-1.42,1.73-1.6.88-.17,1.74.16,2.25.8.32-.74,1.05-1.29,1.94-1.35.89-.06,1.69.38,2.11,1.07.4-.69,1.2-1.15,2.08-1.1.89.04,1.63.56,1.96,1.29.48-.65,1.31-1.01,2.19-.88.86.13,1.54.72,1.8,1.47.54-.59,1.4-.88,2.25-.68h0c.85.21,1.46.85,1.64,1.61.06-.06.12-.11.19-.16.02-.01.03-.02.05-.03.08-.06.18-.11.27-.16.04-.02.07-.04.11-.05.1-.05.2-.09.31-.12.24.69.46,1.38.66,2.08.2.69.38,1.4.53,2.1Z" />
    <path class="cls-8"
      d="M86.06,83.2h0c-.51-.66-1.34-.96-2.13-.85.1-.24.14-.5.15-.75,0-.5-.18-1.02-.55-1.43-.56-.63-1.41-.87-2.19-.72.06-.2.1-.4.1-.61,0-.56-.2-1.12-.65-1.55-.6-.59-1.46-.78-2.24-.58.03-.15.05-.31.05-.46,0-.61-.25-1.23-.77-1.66-.65-.55-1.53-.68-2.28-.42.02-.1.02-.2.02-.31,0-.66-.31-1.32-.9-1.75-.69-.5-1.58-.56-2.32-.25,0-.05,0-.1,0-.15,0-.72-.38-1.43-1.06-1.84-.73-.44-1.62-.44-2.33-.05-.02-.78-.46-1.52-1.23-1.9-.77-.38-1.66-.31-2.33.13-.09-.77-.6-1.48-1.39-1.79-.8-.32-1.68-.17-2.31.32-.15-.77-.73-1.42-1.55-1.67-.83-.25-1.69-.03-2.27.51-.22-.75-.84-1.36-1.69-1.54-.84-.19-1.68.1-2.21.68-.28-.73-.96-1.29-1.81-1.41-.85-.12-1.66.23-2.15.85-.34-.7-1.05-1.21-1.91-1.27-.86-.06-1.64.35-2.07,1-.39-.68-1.14-1.13-2-1.13s-1.61.46-1.99,1.13c-.43-.65-1.21-1.06-2.07-1-.85.05-1.57.55-1.91,1.25-.48-.62-1.28-.97-2.12-.87-.85.1-1.53.64-1.83,1.35-.51-.58-1.33-.9-2.16-.75-.84.15-1.49.72-1.74,1.44-.54-.56-1.38-.83-2.2-.64-.83.19-1.44.79-1.66,1.53-.57-.54-1.41-.77-2.23-.54-.82.23-1.4.86-1.58,1.6-.59-.5-1.45-.69-2.25-.43-.81.27-1.35.92-1.5,1.67-.61-.48-1.47-.63-2.27-.33-.79.3-1.31.97-1.42,1.73-.64-.45-1.51-.57-2.28-.24-.78.33-1.26,1.04-1.34,1.8-.67-.43-1.54-.5-2.3-.14-.77.37-1.21,1.11-1.24,1.89-.24-.14-.51-.23-.78-.28-.15.72-.28,1.43-.39,2.15-.11.72-.2,1.44-.26,2.17.09.01.18.02.26.02.6,0,1.18-.24,1.61-.64.1-.1.2-.21.28-.33.08-.12.15-.25.21-.38.06-.13.1-.27.13-.41.02-.11.04-.24.04-.35,0,0,0,0,0-.01.65.37,1.47.43,2.2.08.72-.35,1.17-1.03,1.24-1.75.63.4,1.46.5,2.2.18h0c.74-.32,1.22-.98,1.32-1.7.61.43,1.43.56,2.19.28.76-.29,1.26-.92,1.4-1.64.59.46,1.41.62,2.17.37.77-.26,1.3-.86,1.47-1.58.57.48,1.37.68,2.15.47.78-.22,1.34-.8,1.55-1.5.54.51,1.33.74,2.12.56.79-.18,1.38-.74,1.62-1.42.51.53,1.29.8,2.08.66.8-.14,1.42-.66,1.7-1.33.48.56,1.24.87,2.04.77.8-.1,1.45-.59,1.77-1.24.45.58,1.18.94,1.99.89.8-.05,1.48-.5,1.84-1.13.4.61,1.11,1.01,1.92,1.01s1.51-.4,1.91-1c.36.62,1.04,1.07,1.83,1.12.8.05,1.53-.3,1.98-.86.31.65.94,1.14,1.74,1.25.79.11,1.55-.18,2.04-.72.26.67.85,1.2,1.63,1.38.77.17,1.55-.07,2.08-.56.2.68.75,1.26,1.51,1.49.76.23,1.55.06,2.12-.39.14.7.63,1.32,1.37,1.61.73.29,1.54.19,2.15-.21.07.71.51,1.37,1.22,1.72.71.35,1.51.31,2.16-.03.01.71.39,1.4,1.06,1.81.68.4,1.49.43,2.16.14,0,.04,0,.09,0,.14,0,.67.31,1.32.91,1.76.64.46,1.45.55,2.15.31-.02.1-.02.2-.03.3,0,.61.26,1.22.77,1.66.6.5,1.4.66,2.12.47-.03.15-.05.3-.06.45,0,.56.21,1.12.65,1.55h0c.56.55,1.35.76,2.08.61-.06.2-.09.41-.09.62,0,.51.17,1.02.54,1.43.52.59,1.3.85,2.04.75-.1.25-.15.51-.14.77,0,.46.15.92.46,1.31.44.57,1.13.87,1.82.87.47,0,.96-.14,1.37-.44.6-.43.91-1.09.91-1.76,0-.45-.15-.91-.46-1.31Z" />
    <path class="cls-2"
      d="M126.2,69.89c-29.97-9.57-39.7,14.64-39.7,14.64l-20.58-29.83-3.16-8.22c1.47.55,2.9,1.23,4.27,2.04.16-.09.32-.18.47-.27,5.97-3.35,12.93-4.2,19.86-4.64,7.11-.46,15.11,1.49,21.43,4.54,8.9,4.29,14.81,12.67,17.4,21.75Z" />
    <path class="cls-7"
      d="M86.34,84.53v.82s-31.65-39.27-79.63-10c.02-.17.04-.35.07-.52.1-.71.24-1.42.39-2.14,2.1-10.13,8.28-19.82,18.09-24.54,6.32-3.05,14.32-5.01,21.43-4.54,5.51.35,11.04.96,16.06,2.87,1.47.55,2.9,1.23,4.27,2.04.12-.07.23-.14.36-.21l.09.12s14.22,5.48,17.15,18.52c2.94,13.04,1.71,17.59,1.71,17.59Z" />
    <path class="cls-12"
      d="M23.08,49.32c9.48-2.49,31.01-6.47,53.54,5.46,0,0,8.24-11.44,28.4-8.25-.83-.32-1.68-.61-2.54-.89-4.9-1.54-10.23-2.38-15.13-2.05-6.92.44-13.89,1.29-19.85,4.64-.03.02-.08.04-.11.07-.13.07-.24.14-.36.21-1.37-.81-2.8-1.48-4.27-2.04-5.02-1.91-10.55-2.52-16.06-2.87-6.69-.44-14.17,1.27-20.3,4.02-.38.17-.76.34-1.13.52-.75.36-1.48.75-2.19,1.18Z" />
    <path class="cls-6" d="M67.48,48.42c9.88,4.6,16.96,14.12,18.86,24.5,1.7,9.24-.58,18.99-5.78,26.94" />
    <path class="cls-5" d="M67.85,107.61c4.75-1.28,9.12-3.87,12.44-7.38,2.01,1.98,4.25,4.05,6.86,5.23" />
  </g>
</svg>