<?xml version="1.0" encoding="UTF-8"?>
<svg id="Capa_2" xmlns="http://www.w3.org/2000/svg" xmlns:xlink="http://www.w3.org/1999/xlink"
  viewBox="0 0 128.59 133.79">
  <defs>
    <style>
      .cls-1 {
        fill: url(#Degradado_sin_nombre_6);
      }

      .cls-2 {
        stroke: url(#Degradado_sin_nombre_8-3);
      }

      .cls-2,
      .cls-3,
      .cls-4,
      .cls-5,
      .cls-6,
      .cls-7 {
        fill: none;
        stroke-linecap: round;
        stroke-linejoin: round;
      }

      .cls-2,
      .cls-4,
      .cls-5,
      .cls-6,
      .cls-7 {
        stroke-width: 3px;
      }

      .cls-8 {
        fill: url(#Degradado_sin_nombre_12-3);
      }

      .cls-9 {
        fill: url(#Degradado_sin_nombre_15-2);
      }

      .cls-10 {
        fill: url(#Degradado_sin_nombre_18-2);
      }

      .cls-11 {
        fill: url(#Degradado_sin_nombre_6-3);
      }

      .cls-12 {
        fill: url(#Degradado_sin_nombre_15-4);
      }

      .cls-13 {
        fill: url(#Degradado_sin_nombre_2-4);
      }

      .cls-14 {
        fill: url(#Degradado_sin_nombre_2);
      }

      .cls-3 {
        stroke: url(#Degradado_sin_nombre_8);
      }

      .cls-4 {
        stroke: url(#Degradado_sin_nombre_8-6);
      }

      .cls-5 {
        stroke: url(#Degradado_sin_nombre_8-5);
      }

      .cls-6 {
        stroke: url(#Degradado_sin_nombre_8-2);
      }

      .cls-15 {
        fill: url(#Degradado_sin_nombre_2-5);
      }

      .cls-16 {
        fill: url(#Degradado_sin_nombre_15-3);
      }

      .cls-17 {
        fill: url(#Degradado_sin_nombre_2-3);
      }

      .cls-18 {
        fill: url(#Degradado_sin_nombre_18-5);
      }

      .cls-19 {
        fill: url(#Degradado_sin_nombre_22);
      }

      .cls-20 {
        fill: url(#Degradado_sin_nombre_18);
      }

      .cls-21 {
        fill: url(#Degradado_sin_nombre_18-4);
      }

      .cls-22 {
        fill: url(#Degradado_sin_nombre_12-2);
      }

      .cls-7 {
        stroke: url(#Degradado_sin_nombre_8-4);
      }

      .cls-23 {
        fill: url(#Degradado_sin_nombre_18-3);
      }

      .cls-24 {
        fill: url(#Degradado_sin_nombre_15);
      }

      .cls-25 {
        fill: url(#Degradado_sin_nombre_2-2);
      }

      .cls-26 {
        fill: url(#Degradado_sin_nombre_6-2);
      }

      .cls-27 {
        fill: url(#Degradado_sin_nombre_12);
      }
    </style>
    <linearGradient id="Degradado_sin_nombre_2" x1="-11.34" y1="128.81" x2="108.35" y2="22.94"
      gradientUnits="userSpaceOnUse">
      <stop offset="0" stop-color="#c9ccd1" />
      <stop offset="1" stop-color="#fff" />
    </linearGradient>
    <linearGradient id="Degradado_sin_nombre_12" x1="3.94" y1="117.4" x2="94.85" y2="34.36"
      gradientUnits="userSpaceOnUse">
      <stop offset="0" stop-color="#1f1f1f" />
      <stop offset="1" stop-color="#0a0a0a" />
    </linearGradient>
    <linearGradient id="Degradado_sin_nombre_6" x1="62.23" y1="107.4" x2="55.72" y2="77.97"
      gradientUnits="userSpaceOnUse">
      <stop offset="0" stop-color="#ff560e" />
      <stop offset="1" stop-color="#ffbf00" />
    </linearGradient>
    <linearGradient id="Degradado_sin_nombre_22" x1="2270.92" y1="484.27" x2="2223.46" y2="572.99"
      gradientTransform="translate(2322.89 494.42) rotate(-156.3) scale(1 -1)" gradientUnits="userSpaceOnUse">
      <stop offset="0" stop-color="#fffb00" />
      <stop offset="1" stop-color="#f80" />
    </linearGradient>
    <linearGradient id="Degradado_sin_nombre_6-2" x1="2179.04" y1="495.29" x2="2293.19" y2="495.29"
      gradientTransform="translate(2322.89 494.42) rotate(-156.3) scale(1 -1)" xlink:href="#Degradado_sin_nombre_6" />
    <linearGradient id="Degradado_sin_nombre_6-3" x1="114.07" y1="92.02" x2="107.85" y2="71.82"
      gradientTransform="translate(.51 1.71) rotate(.08) scale(1 1.04) skewX(.16)"
      xlink:href="#Degradado_sin_nombre_6" />
    <linearGradient id="Degradado_sin_nombre_15" x1="2212.53" y1="532.71" x2="2216.87" y2="527.48"
      gradientTransform="translate(2322.89 494.42) rotate(-156.3) scale(1 -1)" gradientUnits="userSpaceOnUse">
      <stop offset="0" stop-color="#fb00ff" />
      <stop offset="1" stop-color="#ff0062" />
    </linearGradient>
    <linearGradient id="Degradado_sin_nombre_15-2" x1="2259.9" y1="561.16" x2="2264.25" y2="555.93"
      xlink:href="#Degradado_sin_nombre_15" />
    <linearGradient id="Degradado_sin_nombre_15-3" x1="2276.37" y1="519.76" x2="2280.94" y2="514.27"
      xlink:href="#Degradado_sin_nombre_15" />
    <linearGradient id="Degradado_sin_nombre_15-4" x1="858.6" y1="-661.74" x2="858.78" y2="-677.41"
      gradientTransform="translate(1123.18 580.72) rotate(-179.64) scale(1.26 -.72)"
      xlink:href="#Degradado_sin_nombre_15" />
    <linearGradient id="Degradado_sin_nombre_8" x1="2245.38" y1="545.33" x2="2249.1" y2="545.33"
      gradientTransform="translate(2322.89 494.42) rotate(-156.3) scale(1 -1)" gradientUnits="userSpaceOnUse">
      <stop offset="0" stop-color="#141414" />
      <stop offset="1" stop-color="#141414" />
    </linearGradient>
    <linearGradient id="Degradado_sin_nombre_8-2" x1="1717.6" y1="812.82" x2="1745.28" y2="812.82"
      gradientTransform="translate(1837 739.63) rotate(-134.64) scale(1 -1)" xlink:href="#Degradado_sin_nombre_8" />
    <linearGradient id="Degradado_sin_nombre_8-3" x1="1714.9" y1="805.94" x2="1723.66" y2="805.94"
      gradientTransform="translate(1837 739.63) rotate(-134.64) scale(1 -1)" xlink:href="#Degradado_sin_nombre_8" />
    <linearGradient id="Degradado_sin_nombre_8-4" x1="-1255.27" y1="806" x2="-1246.51" y2="806"
      gradientTransform="translate(1490.69 388.9) rotate(45.36)" xlink:href="#Degradado_sin_nombre_8" />
    <linearGradient id="Degradado_sin_nombre_18" x1="2272.36" y1="542.09" x2="2278.04" y2="535.26"
      gradientTransform="translate(2322.89 494.42) rotate(-156.3) scale(1 -1)" gradientUnits="userSpaceOnUse">
      <stop offset="0" stop-color="#8ad100" />
      <stop offset="1" stop-color="#dcf500" />
    </linearGradient>
    <linearGradient id="Degradado_sin_nombre_18-2" x1="53.86" y1="350.56" x2="59.53" y2="343.73"
      gradientTransform="translate(363.53 270.67) rotate(-68.44) scale(1 -1)" xlink:href="#Degradado_sin_nombre_18" />
    <linearGradient id="Degradado_sin_nombre_18-3" x1="1685.14" y1="850.3" x2="1690.82" y2="843.47"
      gradientTransform="translate(1826.94 729.04) rotate(-132.37) scale(1 -1)" xlink:href="#Degradado_sin_nombre_18" />
    <linearGradient id="Degradado_sin_nombre_18-4" x1="1873.2" y1="-732.41" x2="1878.87" y2="-739.23"
      gradientTransform="translate(2041.06 617.11) rotate(173.66) scale(1 -1)" xlink:href="#Degradado_sin_nombre_18" />
    <linearGradient id="Degradado_sin_nombre_18-5" x1="2059.56" y1="-2046.44" x2="2065.23" y2="-2053.27"
      gradientTransform="translate(2120.52 -1993.6) rotate(90.84) scale(1 -1)" xlink:href="#Degradado_sin_nombre_18" />
    <linearGradient id="Degradado_sin_nombre_2-2" x1="39.27" y1="7.3" x2="88.82" y2="32.85"
      xlink:href="#Degradado_sin_nombre_2" />
    <linearGradient id="Degradado_sin_nombre_2-3" x1="38.76" y1="8.29" x2="88.3" y2="33.85"
      xlink:href="#Degradado_sin_nombre_2" />
    <linearGradient id="Degradado_sin_nombre_2-4" x1="522.29" y1="865.38" x2="522.29" y2="846.16"
      gradientTransform="translate(293.34 -919.93) rotate(45.45)" xlink:href="#Degradado_sin_nombre_2" />
    <linearGradient id="Degradado_sin_nombre_12-2" x1="522.28" y1="864.66" x2="522.28" y2="848.49"
      gradientTransform="translate(293.34 -919.93) rotate(45.45)" xlink:href="#Degradado_sin_nombre_12" />
    <linearGradient id="Degradado_sin_nombre_8-5" x1="512.34" y1="864.59" x2="532.23" y2="864.59"
      gradientTransform="translate(293.34 -919.93) rotate(45.45)" xlink:href="#Degradado_sin_nombre_8" />
    <linearGradient id="Degradado_sin_nombre_2-5" x1="-259.67" y1="865.39" x2="-259.67" y2="846.17"
      gradientTransform="translate(860.39 -344) rotate(45.45)" xlink:href="#Degradado_sin_nombre_2" />
    <linearGradient id="Degradado_sin_nombre_12-3" x1="-259.67" y1="864.67" x2="-259.67" y2="848.5"
      gradientTransform="translate(860.39 -344) rotate(45.45)" xlink:href="#Degradado_sin_nombre_12" />
    <linearGradient id="Degradado_sin_nombre_8-6" x1="-269.61" y1="864.6" x2="-249.72" y2="864.6"
      gradientTransform="translate(860.39 -344) rotate(45.45)" xlink:href="#Degradado_sin_nombre_8" />
  </defs>
  <g id="OBJECTS">
    <path class="cls-14"
      d="M5.98,131.18c-.36-.13-.71-.29-1.05-.46-2.6-1.32-4.41-3.74-4.83-6.49-.31-1.99.18-3.71.58-4.84.73-2.02,1.7-3.76,2.55-5.3.11-.19.21-.37.31-.55-.39-1.88-.33-3.83.17-5.71l.36-1.35c-.5-.87-1.02-2-1.25-3.37-.75-4.17,1.63-7.42,2.77-8.98.47-.66,1.02-1.2,1.42-1.6.08-.08.18-.18.26-.26,1.14-1.87,1.04-4.62.91-8.09l-.02-.69c-.02-.57-.05-1.14-.08-1.72-.23-4.44-.54-10.41,3.53-14.98.35-.4.52-.71.6-.87-.03-.12-.08-.27-.12-.42-.23-.8-.58-2-.6-3.43-.07-4.27,2.61-7.22,4.05-8.8.72-.78,1.21-1.41,1.56-1.99.41-.65.62-1.19.62-1.56,0-.28-.02-.59-.03-.9-.08-1.52-.2-3.72.73-6.01.87-2.11,2.31-3.52,3.26-4.45.24-.24.58-.57.73-.75.11-.43.09-1.53.07-2.34-.01-.58-.03-1.14-.02-1.7.05-3.79,1.08-7.55,2.92-10.77-2.07-4.16-2.2-9.03-.3-13.37C28.43,1.82,37.19-1.91,45.01.97c.3.11.61.23.91.37.23.1.45.2.67.32.19.09.38.18.59.25.19.07.38.13.57.19,2.92.85,5.81,1.8,8.61,2.82,53.75,19.76,68.67,67.28,71.22,77.11.6,1.55.94,3.17,1,4.8.31,8.39-6.69,15.68-15.65,16.34l-8.47,1.78c-.52.96-1.06,1.88-1.61,2.77-.77,1.21-1.71,2.56-3.19,3.71-2.3,1.79-5.23,2.41-7.86,1.66-.2-.06-.39-.12-.58-.19-1.99-.73-3.64-2.25-4.67-4.2l-5.4,1.13c-.48,1.01-1.16,2.15-2.12,3.19-2.61,2.82-6.61,3.89-9.97,2.66-1.43-.55-2.65-1.42-3.6-2.56l-4.02.84c-.21.89-.41,1.77-.63,2.63-1.95,7.67-5.26,12.75-10.13,15.52-3.05,1.73-6.6,2.13-9.5,1.07-1.37-.5-2.55-1.3-3.52-2.36-3.68-3.99-2.31-9.11-1.43-11.57l-15.04,3.16c-.57,1.61-1.46,3.5-2.94,5.2-3.13,3.6-8.18,5.06-12.29,3.55Z" />
    <path class="cls-27"
      d="M6.98,128.46c-.25-.09-.5-.2-.74-.32-1.77-.9-3-2.52-3.28-4.34-.21-1.33.13-2.54.45-3.44.64-1.78,1.51-3.34,2.35-4.84.3-.54.6-1.07.87-1.59-.55-1.71-.6-3.56-.12-5.32l.7-2.57c-.58-.87-1.28-1.96-1.52-3.39-.53-2.97,1.28-5.45,2.25-6.78.34-.48.76-.89,1.12-1.26.18-.18.46-.46.54-.58,1.75-2.71,1.63-6.06,1.48-9.94l-.02-.69c-.02-.61-.05-1.22-.08-1.83-.21-4.08-.47-9.15,2.8-12.83.95-1.08,1.44-2.17,1.35-2.99-.03-.28-.14-.65-.25-1.04-.21-.72-.47-1.63-.49-2.67-.05-3.12,2.04-5.42,3.3-6.79.85-.93,1.45-1.7,1.89-2.44.69-1.12,1.03-2.1,1.04-3.03,0-.37-.02-.76-.04-1.16-.07-1.34-.16-3.01.52-4.7.64-1.55,1.73-2.61,2.61-3.47.51-.49.98-.96,1.23-1.37.08-.14.15-.3.22-.49.29-.87.26-2.09.23-3.37-.01-.53-.02-1.06-.02-1.59.06-3.9,1.28-7.69,3.41-10.74-2.38-3.61-2.82-8.19-1.02-12.27,2.74-6.24,9.89-9.28,16.27-6.93.25.09.5.19.74.3.18.08.36.16.54.25.27.14.57.27.89.38.25.09.5.17.76.25,2.85.83,5.68,1.76,8.41,2.76,52.57,19.32,66.98,65.62,69.46,75.29.52,1.3.82,2.65.87,4.01.26,6.94-5.62,12.89-13.15,13.35l-10.01,2.1c-.67,1.33-1.39,2.6-2.13,3.79-.66,1.04-1.39,2.09-2.51,2.96-1.57,1.22-3.55,1.66-5.28,1.16-.13-.04-.25-.08-.37-.12-1.93-.71-3.37-2.57-3.79-4.83l-9.35,1.96c-.45,1.18-1.09,2.57-2.18,3.75-1.82,1.97-4.57,2.74-6.83,1.91-1.46-.56-2.57-1.63-3.25-3.08l-7.77,1.63c-.12.51-.24,1.02-.36,1.53-.22.95-.44,1.91-.68,2.85-1.75,6.87-4.61,11.35-8.75,13.71-2.32,1.32-4.96,1.64-7.06.86-.92-.34-1.73-.87-2.38-1.59-2.94-3.19-1.21-7.69-.56-9.38l1.6-4.17-21.91,4.6c-.55,1.99-1.36,4.05-2.87,5.79-2.35,2.71-6.09,3.83-9.09,2.73Z" />
    <path class="cls-1"
      d="M113.58,97.1l-96.68,20.3c-4.74,1-8.86-3.37-7.59-8.05L33.84,18.84c.07-.27.37-.42.63-.32l42.61,15.94c.08.03.16.09.21.16l28.62,37s.06.09.08.15l7.95,24.72c.09.27-.08.56-.36.62Z" />
    <path class="cls-19"
      d="M27.89,39.51c-.12.36-.27.71-.47,1.05-.98,1.66-2.91,2.68-3.65,4.46-.61,1.5-.25,3.19-.27,4.8-.02,1.61-.6,3.11-1.46,4.49-.63,1.04-1.42,1.99-2.23,2.89-1.25,1.36-2.57,2.93-2.54,4.79.02,1.17.58,2.25.72,3.41.23,1.92-.77,3.8-2.06,5.26-2.89,3.25-2.13,8.28-1.99,12.63.15,4.35.45,8.64-1.92,12.3-.43.67-1.29,1.32-1.76,1.98-.99,1.36-2.03,2.93-1.73,4.58.22,1.31,1.24,2.33,1.85,3.51,1.28,2.49.69,5.56-.46,8.12-1.15,2.56-2.84,4.88-3.78,7.52-.23.65-.42,1.36-.32,2.04.15.96.87,1.76,1.73,2.2,2.1,1.07,4.78.05,6.32-1.72,1.54-1.78,2.19-4.14,2.71-6.44.53-2.3.88-4.65,2.31-6.52.59-.78,1.61-1.33,2.55-1.08,1.5.4,2.02,2.47,3.5,2.93,1.29.39,2.6-.67,3.23-1.87.63-1.19.87-2.58,1.64-3.69.78-1.11,2.42-1.83,3.48-1,.82.65.91,1.92,1.73,2.57.95.76,2.45.28,3.23-.64.79-.94,1.07-2.17,1.44-3.34.37-1.16.93-2.37,1.99-2.96,1.29-.71,3.02-.2,3.99.91.97,1.12,1.26,2.69,1.12,4.16-.14,1.46-.68,2.86-1.2,4.24-1.21,3.15-2.43,6.3-3.64,9.45-.8,2.1-1.53,4.73,0,6.38,1.43,1.56,4.02,1.21,5.86.16,4.17-2.38,6.19-7.25,7.38-11.9,1.18-4.66,1.87-9.58,4.53-13.58,1.03-1.55,2.43-2.98,4.22-3.49,1.79-.52,3.41-.19,4.45,1.36,1.08,1.62.68,3.76.53,5.71-.14,1.95.29,4.33,2.11,5.04,1.29.5,2.8-.12,3.74-1.14.94-1.02,1.44-2.36,1.91-3.66.74-2.03,1.47-4.05,2.21-6.08.44-1.22,1.31-2.7,2.59-2.45,1.38.27,1.86,2.44,3.26,2.46.82.01,1.42-.75,1.75-1.48.34-.74.59-1.57,1.23-2.06,1.05-.79,2.7-.21,3.39.91.71,1.11.69,2.53.51,3.83-.19,1.31-.52,2.62-.39,3.93.14,1.31.89,2.67,2.15,3.03.93.27,1.95-.07,2.71-.66.76-.59,1.31-1.4,1.83-2.22,3.47-5.52,5.73-11.79,6.58-18.26l-10.09-25.62s-28.28-31.45-28.95-31.41c-.67.04-32.97-6.44-32.97-6.44-2.72,2.86-4.18,6.82-4.24,10.77-.03,1.95.24,4.03-.36,5.83Z" />
    <path class="cls-26"
      d="M30.39,11.79c2.22-5.06,8.13-7.37,13.2-5.14.13.06.27.12.4.19.69.35,1.41.61,2.15.83,65.21,18.94,76.39,78.23,76.39,78.23l-17.63,2.05c.03.49.08.98.1,1.48-4.01.22-8.06-1.84-10.25-5.2-2.19-3.36-2.42-7.91-.6-11.48-3.54-.59-6.89-2.41-8.89-5.39-2-2.98-2.71-6.8-1.92-10.31-3.54-.09-7.32-1.54-9.9-3.96-2.59-2.42-4.25-5.82-4.57-9.35-3.54.7-7.46.11-10.46-1.89-3-1.99-5.17-5.2-5.9-8.73-3.87.59-8.2.32-11.63-1.56-1.9-1.04-3.54-2.67-4.56-4.57-.67-1.25-1.66-2.3-2.79-3.15-3.62-2.73-5.04-7.68-3.13-12.02Z" />
    <path class="cls-11"
      d="M100.54,87.49c.21,5.71,5.36,10.15,11.49,9.92,6.14-.23,10.94-5.04,10.73-10.74-.21-5.71-5.36-10.15-11.49-9.92-6.14.23-10.94,5.04-10.73,10.74Z" />
    <path class="cls-24"
      d="M74.17,82.56c-1.62,3.7.06,8.01,3.76,9.63,3.7,1.62,8.01-.06,9.63-3.76,1.62-3.7-.06-8.01-3.76-9.63-3.7-1.62-8.01.06-9.63,3.76Z" />
    <path class="cls-9"
      d="M19.36,89.56c-1.62,3.7.06,8.01,3.76,9.63,3.7,1.62,8.01-.06,9.63-3.76,1.62-3.7-.06-8.01-3.76-9.63-3.7-1.62-8.01.06-9.63,3.76Z" />
    <path class="cls-16"
      d="M23.51,49.82c-.02,1.61-.6,3.11-1.46,4.49.36.22.72.42,1.11.59,4.1,1.8,8.88-.06,10.68-4.17,1.8-4.1-.06-8.88-4.17-10.68-.58-.26-1.18-.44-1.79-.54-.12.36-.27.71-.47,1.05-.98,1.66-2.91,2.68-3.65,4.46-.61,1.5-.25,3.19-.27,4.8Z" />
    <path class="cls-12"
      d="M45.99,98.46h0c2.04.01,3.71-1.63,3.72-3.67l.02-7.88-7.4-.05-.02,7.88c-.01,2.04,1.63,3.71,3.67,3.72Z" />
    <line class="cls-3" x1="46.12" y1="86.88" x2="46.06" y2="93.78" />
    <path class="cls-6" d="M37.72,65.77c-4.85,4.79-4.9,12.6-.11,17.45,4.79,4.85,12.6,4.9,17.45.11" />
    <path class="cls-2" d="M57.44,84.78s-2.5-.71-3.68-4.47" />
    <path class="cls-7" d="M36.17,63.24s.68,2.51,4.42,3.73" />
    <path class="cls-20"
      d="M23.36,77.56l1.15-1.34c-1.35-1.16-2-2.32-1.91-3.43.13-1.79,2.11-3.08,2.13-3.1l-.94-1.49c-.11.07-2.75,1.76-2.95,4.46-.13,1.7.72,3.35,2.52,4.9Z" />
    <path class="cls-10"
      d="M56.94,90.73l1.38,1.1c1.11-1.39,2.24-2.08,3.36-2.04,1.8.07,3.16,1.99,3.17,2.01l1.46-1c-.08-.11-1.86-2.68-4.57-2.78-1.7-.06-3.32.85-4.8,2.7Z" />
    <path class="cls-23"
      d="M61.98,56.76l1.6-.76c-.76-1.61-.88-2.93-.36-3.91.85-1.58,3.18-1.96,3.2-1.97l-.25-1.75c-.13.02-3.23.49-4.5,2.88-.81,1.5-.7,3.35.32,5.5Z" />
    <path class="cls-21"
      d="M97.69,96.74l.33-1.74c-1.75-.33-2.89-1.01-3.37-2.01-.78-1.62.28-3.73.29-3.75l-1.56-.82c-.06.12-1.5,2.9-.32,5.34.74,1.54,2.3,2.54,4.64,2.98Z" />
    <path class="cls-18"
      d="M44.68,36.5l-1.68-.54c-.55,1.7-1.36,2.74-2.42,3.09-1.7.57-3.66-.74-3.68-.76l-1.01,1.45c.11.08,2.69,1.85,5.26.98,1.62-.54,2.81-1.97,3.54-4.23Z" />
    <path class="cls-25"
      d="M72.96,21.64c.66.42,1.33.87,1.77,1.52.44.65.59,1.56.16,2.21-.78,1.19-2.6.75-3.9.17-6.15-2.74-12.3-5.47-18.45-8.21-2.47-1.1-5.63-2.25-7.49-4.31-1.89-2.11-.16-2.76,1.9-2.47,5.66.8,11.52,3.45,16.64,5.89,3.22,1.54,6.35,3.28,9.36,5.2Z" />
    <path class="cls-17"
      d="M85.28,30.79c.68.77,1.33,1.86.86,2.78-.35.67-1.2.95-1.96.85-.75-.1-1.42-.5-2.07-.89-.74-.45-1.49-.89-2.23-1.34-.86-.52-1.75-1.06-2.36-1.86-.61-.8-.88-1.95-.4-2.83,1.77-3.25,6.94,1.91,8.16,3.29Z" />
    <path class="cls-13"
      d="M50.18,64.33c-.38.37-.77.74-1.15,1.09-.27-.67-.59-1.34-.96-2.01-.98-1.78-2.26-3.52-3.84-5.12-1.58-1.6-3.29-2.91-5.06-3.92-.66-.38-1.33-.71-1.99-.99.35-.38.73-.76,1.1-1.13,6.87-6.77,15.1-9.54,18.39-6.2,3.28,3.34.38,11.52-6.49,18.29Z" />
    <path class="cls-22"
      d="M48.69,62.82c-.21.21-.41.4-.62.59-.98-1.78-2.26-3.52-3.84-5.12-1.58-1.6-3.29-2.91-5.06-3.92.19-.21.39-.4.6-.61,5.97-5.88,12.79-8.61,15.26-6.11,1.52,1.55,1.02,4.74-1,8.33l-5.67-.83,3.7,3.83c-.97,1.29-2.1,2.57-3.38,3.83Z" />
    <path class="cls-5" d="M37.18,53.38c2.44,1.05,4.88,2.71,7.05,4.91,2.17,2.2,3.79,4.67,4.8,7.13" />
    <path class="cls-15"
      d="M68.61,83.05c-.38.37-.77.74-1.15,1.09-.27-.67-.59-1.34-.96-2.01-.98-1.78-2.26-3.52-3.84-5.12-1.58-1.6-3.29-2.91-5.06-3.92-.66-.38-1.33-.71-1.99-.99.35-.38.73-.76,1.1-1.13,6.87-6.77,15.1-9.54,18.39-6.2,3.28,3.34.38,11.52-6.49,18.29Z" />
    <path class="cls-8"
      d="M67.12,81.54c-.21.21-.41.4-.62.59-.98-1.78-2.26-3.52-3.84-5.12-1.58-1.6-3.29-2.91-5.06-3.92.19-.21.39-.4.6-.61,5.97-5.88,12.79-8.61,15.26-6.11,1.52,1.55,1.02,4.74-1,8.33l-5.67-.83,3.7,3.83c-.97,1.29-2.1,2.57-3.38,3.84Z" />
    <path class="cls-4" d="M55.61,72.1c2.44,1.05,4.88,2.71,7.05,4.91,2.17,2.2,3.79,4.67,4.8,7.13" />
  </g>
</svg>