<?xml version="1.0" encoding="UTF-8"?>
<svg id="Capa_2" xmlns="http://www.w3.org/2000/svg" xmlns:xlink="http://www.w3.org/1999/xlink"
  viewBox="0 0 133.75 151.48">
  <defs>
    <style>
      .cls-1 {
        stroke: url(#Degradado_sin_nombre_8-3);
      }

      .cls-1,
      .cls-2,
      .cls-3,
      .cls-4,
      .cls-5,
      .cls-6,
      .cls-7 {
        fill: none;
        stroke-linecap: round;
        stroke-linejoin: round;
        stroke-width: 3px;
      }

      .cls-8 {
        fill: url(#Degradado_sin_nombre_21-3);
      }

      .cls-9 {
        fill: url(#Degradado_sin_nombre_12-3);
      }

      .cls-2 {
        stroke: url(#Degradado_sin_nombre_8-7);
      }

      .cls-3 {
        stroke: url(#Degradado_sin_nombre_8);
      }

      .cls-10 {
        fill: url(#Degradado_sin_nombre_2-4);
      }

      .cls-11 {
        fill: url(#Degradado_sin_nombre_21-2);
      }

      .cls-12 {
        fill: url(#Degradado_sin_nombre_2);
      }

      .cls-13 {
        fill: url(#Degradado_sin_nombre_21-6);
      }

      .cls-14 {
        fill: url(#Degradado_sin_nombre_21-5);
      }

      .cls-4 {
        stroke: url(#Degradado_sin_nombre_8-6);
      }

      .cls-5 {
        stroke: url(#Degradado_sin_nombre_8-5);
      }

      .cls-6 {
        stroke: url(#Degradado_sin_nombre_8-2);
      }

      .cls-15 {
        fill: url(#Degradado_sin_nombre_21);
      }

      .cls-16 {
        fill: url(#Degradado_sin_nombre_2-3);
      }

      .cls-17 {
        fill: url(#Degradado_sin_nombre_21-4);
      }

      .cls-18 {
        fill: url(#Degradado_sin_nombre_12-2);
      }

      .cls-7 {
        stroke: url(#Degradado_sin_nombre_8-4);
      }

      .cls-19 {
        fill: url(#Degradado_sin_nombre_2-2);
      }

      .cls-20 {
        fill: url(#Degradado_sin_nombre_12);
      }
    </style>
    <linearGradient id="Degradado_sin_nombre_2" x1="66.87" y1="149.34" x2="66.87" y2=".37"
      gradientUnits="userSpaceOnUse">
      <stop offset="0" stop-color="#c9ccd1" />
      <stop offset="1" stop-color="#fff" />
    </linearGradient>
    <linearGradient id="Degradado_sin_nombre_12" x1="5.26" y1="153.13" x2="132.7" y2="153.13"
      gradientTransform="translate(3.23 -79.48) rotate(1.65)" gradientUnits="userSpaceOnUse">
      <stop offset="0" stop-color="#1f1f1f" />
      <stop offset="1" stop-color="#0a0a0a" />
    </linearGradient>
    <linearGradient id="Degradado_sin_nombre_2-2" x1="68.98" y1="216.78" x2="68.98" y2="91.42"
      gradientTransform="translate(3.23 -79.48) rotate(1.65)" xlink:href="#Degradado_sin_nombre_2" />
    <linearGradient id="Degradado_sin_nombre_21" x1="47.69" y1="77.98" x2="47.69" y2="63.4"
      gradientUnits="userSpaceOnUse">
      <stop offset="0" stop-color="#0a0a0a" />
      <stop offset="1" stop-color="#1f1f1f" />
    </linearGradient>
    <linearGradient id="Degradado_sin_nombre_21-2" x1="55.69" y1="77.98" x2="55.69" y2="63.4"
      xlink:href="#Degradado_sin_nombre_21" />
    <linearGradient id="Degradado_sin_nombre_21-3" x1="65.14" y1="77.98" x2="65.14" y2="63.4"
      xlink:href="#Degradado_sin_nombre_21" />
    <linearGradient id="Degradado_sin_nombre_21-4" x1="74.64" y1="77.98" x2="74.64" y2="63.4"
      xlink:href="#Degradado_sin_nombre_21" />
    <linearGradient id="Degradado_sin_nombre_21-5" x1="83.34" y1="77.98" x2="83.34" y2="63.4"
      xlink:href="#Degradado_sin_nombre_21" />
    <linearGradient id="Degradado_sin_nombre_21-6" x1="90.36" y1="77.98" x2="90.36" y2="63.4"
      xlink:href="#Degradado_sin_nombre_21" />
    <linearGradient id="Degradado_sin_nombre_2-3" x1=".63" y1="118.38" x2="27.18" y2="85.81"
      xlink:href="#Degradado_sin_nombre_2" />
    <linearGradient id="Degradado_sin_nombre_2-4" x1="-11.65" y1="124.91" x2="20.52" y2="85.45"
      xlink:href="#Degradado_sin_nombre_2" />
    <linearGradient id="Degradado_sin_nombre_12-2" x1="60.72" y1="-46.98" x2="60.72" y2="-16.23"
      gradientTransform="translate(-.12 66.19) rotate(-2.23)" xlink:href="#Degradado_sin_nombre_12" />
    <linearGradient id="Degradado_sin_nombre_12-3" x1="78.6" y1="-.79" x2="78.6" y2="29.96"
      gradientTransform="translate(-.33 17.78) rotate(-.62)" xlink:href="#Degradado_sin_nombre_12" />
    <linearGradient id="Degradado_sin_nombre_8" x1="35.55" y1="99.17" x2="40.62" y2="99.17"
      gradientUnits="userSpaceOnUse">
      <stop offset="0" stop-color="#141414" />
      <stop offset="1" stop-color="#141414" />
    </linearGradient>
    <linearGradient id="Degradado_sin_nombre_8-2" x1="27.15" y1="107.49" x2="34.94" y2="107.49"
      xlink:href="#Degradado_sin_nombre_8" />
    <linearGradient id="Degradado_sin_nombre_8-3" x1="40.44" y1="126.86" x2="50.01" y2="126.86"
      xlink:href="#Degradado_sin_nombre_8" />
    <linearGradient id="Degradado_sin_nombre_8-4" x1="2782.11" y1="106.93" x2="2795.38" y2="106.93"
      gradientTransform="translate(2888.23) rotate(-180) scale(1 -1)" xlink:href="#Degradado_sin_nombre_8" />
    <linearGradient id="Degradado_sin_nombre_8-5" x1="2802.4" y1="123.67" x2="2807.65" y2="123.67"
      gradientTransform="translate(2888.23) rotate(-180) scale(1 -1)" xlink:href="#Degradado_sin_nombre_8" />
    <linearGradient id="Degradado_sin_nombre_8-6" x1="2796.96" y1="130.85" x2="2802.11" y2="130.85"
      gradientTransform="translate(2888.23) rotate(-180) scale(1 -1)" xlink:href="#Degradado_sin_nombre_8" />
    <linearGradient id="Degradado_sin_nombre_8-7" x1="68.41" y1="134.96" x2="64.59" y2="134.96"
      xlink:href="#Degradado_sin_nombre_8" />
  </defs>
  <g id="OBJECTS">
    <path class="cls-12"
      d="M77.71,151.47c-.24,0-.49-.02-.73-.04-4.11-.32-8.18-2.27-11.24-5.32-3.23,2.87-7.4,4.58-11.52,4.66-.24,0-.49,0-.74,0-3.73-.11-7.2-1.57-9.76-4.11-3.26-3.24-3.94-7.03-4.38-9.54-.08-.46-.16-.88-.24-1.28-.58.13-1.29.37-2.04.62-1.34.45-3.01,1.01-4.88,1.25-.67.09-1.36.12-2.04.1-3.65-.11-6.92-1.78-8.96-4.6-2.11-2.92-2.65-6.62-1.52-10.43.8-2.69,2.22-4.69,3.36-6.29.45-.63.86-1.22,1.16-1.73.06-.11.11-.21.16-.3-.1-.01-.21-.02-.33-.02-.45-.01-.94.04-1.48.16-.68.16-1.59.56-2.54.98-1.61.71-3.59,1.6-5.94,1.97-.81.13-1.63.18-2.44.15-5.49-.16-9.88-3.68-11.18-8.96-.59-2.37-.54-4.95.13-7.66,1.81-7.32,6.96-12.14,11.1-16.01,1.2-1.12,2.44-2.28,3.48-3.4,3.54-3.8,6.77-8.53,9.62-14.06,4.26-8.27,6.96-17.63,9.57-26.68,2.02-7,4.1-14.24,6.94-21.25.27-.67.56-1.34.88-1.99,3.45-7.25,9.42-12.98,16.38-15.73C62.06.56,65.78-.1,69.56.01c12.31.36,23.79,9.11,27.92,21.3,2.43,7.16,4.1,14.51,5.71,21.61,2.08,9.19,4.24,18.69,8.01,27.2,2.52,5.68,5.47,10.59,8.79,14.59.95,1.15,2.07,2.33,3.26,3.57,3.92,4.12,8.79,9.22,10.17,16.64.51,2.74.41,5.32-.31,7.66-1.61,5.2-6.19,8.46-11.68,8.3-.81-.02-1.62-.12-2.43-.29-2.32-.5-4.26-1.5-5.81-2.3-.94-.48-1.82-.94-2.5-1.13-.52-.15-1.02-.24-1.46-.25-.11,0-.22,0-.33,0,.04.09.08.2.14.31.27.54.65,1.15,1.06,1.8,1.04,1.67,2.35,3.75,2.99,6.48.91,3.86.16,7.53-2.12,10.32-2.2,2.69-5.55,4.18-9.21,4.07-.68-.02-1.36-.1-2.04-.22-1.85-.35-3.48-1-4.79-1.52-.74-.29-1.43-.57-2.01-.74-.11.39-.21.81-.31,1.26-.59,2.48-1.48,6.22-4.93,9.27-2.7,2.39-6.25,3.65-9.98,3.54Z" />
    <path class="cls-20"
      d="M77.8,148.3c-.19,0-.39-.02-.58-.03-3.97-.31-7.89-2.49-10.51-5.83-.23-.24-.68-.54-.87-.54-.21,0-.72.35-.87.49-2.8,3.19-6.84,5.14-10.83,5.22-.19,0-.39,0-.58,0-2.92-.08-5.63-1.22-7.61-3.19-2.55-2.53-3.07-5.48-3.5-7.84-.18-.99-.34-1.93-.64-2.82-.3-.91-1.32-1.12-2.12-1.15-.29,0-.59.01-.88.06-.87.15-1.8.46-2.79.79-1.27.43-2.71.91-4.28,1.11-.51.07-1.03.09-1.54.08-2.66-.08-5.02-1.27-6.48-3.28-1.52-2.1-1.89-4.82-1.05-7.66.65-2.18,1.85-3.87,2.9-5.36.49-.69.95-1.34,1.32-1.99.7-1.22.93-2.48.62-3.36-.21-.59-.67-1.03-1.42-1.32l-.17-.07c-.55-.2-1.18-.31-1.86-.33-.72-.02-1.48.06-2.28.24-.99.23-2.03.69-3.14,1.18-1.5.67-3.2,1.42-5.13,1.73-.62.1-1.25.14-1.86.12-4.08-.12-7.22-2.63-8.19-6.55-.46-1.87-.42-3.93.13-6.14,1.59-6.41,6.16-10.68,10.19-14.46,1.3-1.22,2.53-2.37,3.63-3.55,3.74-4.02,7.14-8.98,10.12-14.77,4.4-8.55,7.14-18.06,9.79-27.25,2-6.92,4.06-14.08,6.84-20.94.25-.61.52-1.22.8-1.82,3.11-6.53,8.46-11.68,14.68-14.14,3.16-1.25,6.46-1.83,9.81-1.73,11.01.32,21.29,8.19,25.01,19.14,2.38,7.01,4.02,14.27,5.62,21.29,2.12,9.34,4.31,18.99,8.21,27.78,2.64,5.94,5.75,11.1,9.25,15.33,1.03,1.24,2.19,2.46,3.42,3.75,3.81,4,8.12,8.53,9.34,15.02.42,2.23.34,4.3-.23,6.13-1.19,3.86-4.47,6.18-8.56,6.07h0c-.61-.02-1.24-.09-1.85-.23-1.91-.41-3.56-1.27-5.02-2.02-1.08-.55-2.09-1.08-3.06-1.36-.78-.23-1.54-.35-2.26-.37-.68-.02-1.32.06-1.91.23l-.13.04c-.79.26-1.28.67-1.52,1.25-.36.87-.2,2.14.43,3.39.33.67.76,1.34,1.21,2.06.97,1.55,2.07,3.3,2.59,5.52.68,2.88.15,5.58-1.49,7.58-1.57,1.92-3.99,2.98-6.66,2.91-.51-.01-1.03-.07-1.54-.17-1.54-.29-2.95-.85-4.2-1.35-.97-.39-1.88-.75-2.74-.95-.28-.07-.58-.1-.87-.11-.8-.02-1.83.14-2.18,1.02-.34.87-.56,1.8-.8,2.78-.56,2.34-1.25,5.24-3.94,7.63-2.1,1.85-4.86,2.83-7.78,2.75Z" />
    <path class="cls-19"
      d="M127.19,106.08c-1.39-7.45-7.73-12.08-12.08-17.33-3.95-4.77-7.13-10.26-9.7-16.06-6.97-15.71-8.43-33.13-13.93-49.34-4.24-12.5-17.91-20.51-30.64-15.48-5.76,2.28-10.33,7-12.98,12.55-.26.54-.5,1.09-.72,1.65-6.43,15.86-8.88,33.17-16.75,48.45-2.91,5.65-6.4,10.94-10.61,15.48-4.64,4.99-11.24,9.25-13.06,16.61-.37,1.5-.5,3.12-.13,4.61.8,3.25,3.67,4.49,6.48,4.05,2.81-.44,5.26-2.23,8.05-2.86,1.97-.45,4.05-.48,5.95.21.08.03.16.06.24.09,3.85,1.53,4.47,5.59,2.38,9.22-1.29,2.24-3.17,4.1-3.93,6.67-1.32,4.45,1.78,7.31,5.61,6.81,2.37-.3,4.58-1.48,6.94-1.88,2.46-.42,5.59.33,6.55,3.22,1.12,3.4.64,6.7,3.35,9.4,1.58,1.57,3.76,2.31,5.89,2.27,3.16-.06,6.36-1.66,8.55-4.19,0,0,1.46-1.56,3.31-1.52,1.85.06,3.22,1.7,3.22,1.7,2.05,2.65,5.14,4.44,8.3,4.68,2.13.17,4.34-.45,6.01-1.93,2.87-2.54,2.58-5.86,3.89-9.19,1.12-2.84,4.29-3.4,6.72-2.84,2.33.54,4.47,1.84,6.82,2.28,3.8.72,7.06-1.96,6-6.47-.61-2.61-2.39-4.58-3.54-6.88-1.88-3.75-1.03-7.77,2.91-9.07.08-.03.17-.05.25-.08,1.94-.58,4.01-.42,5.95.14,2.75.8,5.09,2.72,7.87,3.32,2.78.6,5.71-.47,6.7-3.67.46-1.48.42-3.09.14-4.61Z" />
    <path class="cls-15"
      d="M44.4,65.95c-.36.89-.48,1.97.04,2.78.46.73,1.36,1.1,2.22,1.09.86-.01,1.69-.37,2.41-.84.78-.51,1.48-1.18,1.9-2.02.85-1.7.02-4.42-2.17-4.53-1.85-.1-3.77,1.97-4.4,3.53Z" />
    <path class="cls-11"
      d="M51.83,70.27c-.02.86.11,1.79.68,2.44.51.57,1.31.83,2.07.79.76-.04,1.49-.35,2.13-.77,1.08-.71,1.93-1.75,2.42-2.95.42-1.03.57-2.2.27-3.27s-1.09-2.03-2.14-2.4c-3.54-1.25-5.36,3.53-5.43,6.17Z" />
    <path class="cls-8"
      d="M61.98,65.68c-1.04,2.11-1.55,4.47-1.47,6.81.06,1.67.55,3.53,2,4.36,1.53.86,3.56.17,4.74-1.14,1.17-1.31,1.67-3.07,2.07-4.78.35-1.5.65-3.06.36-4.57-.29-1.53-1.68-3.77-3.4-3.98-1.97-.24-3.54,1.74-4.3,3.29Z" />
    <path class="cls-17"
      d="M71.28,73.5c.37,1.43,1.07,2.96,2.46,3.47,1.48.54,3.18-.4,3.96-1.76.78-1.36.84-3.02.71-4.58-.18-2.25-.97-5.27-3.51-5.92-2.3-.59-3.64,2.32-3.96,4.13-.27,1.55-.06,3.15.33,4.66Z" />
    <path class="cls-14"
      d="M80.98,71.99c.54.8,1.26,1.55,2.2,1.77,1.28.31,2.65-.49,3.32-1.62.67-1.14.77-2.53.63-3.84-.18-1.76-.8-3.58-2.18-4.7-1.5-1.21-4.54-1.37-5.13.84-.68,2.54-.31,5.35,1.16,7.55Z" />
    <path class="cls-13"
      d="M90.5,70.24c.78.09,1.57-.32,2.04-.94.47-.63.64-1.44.58-2.22-.17-2.19-3-4.66-4.88-2.55-1.59,1.77-.05,5.45,2.26,5.72Z" />
    <path class="cls-16"
      d="M15.39,95.29c-1.08,1.01-2.23,2.06-2.73,3.46-.5,1.4-.1,3.25,1.27,3.83,1.59.69,3.29-.63,4.52-1.85,6.98-6.87,14.14-14.02,17.77-23.11.49-1.22.91-2.51.82-3.82-.07-1.01-.82-3.17-2.2-2.9-1,.19-1.8,2.43-2.28,3.23-1.6,2.65-3.33,5.22-5.17,7.7-3.58,4.84-7.6,9.35-12,13.46Z" />
    <path class="cls-10"
      d="M35.72,66.43c-.04.93.17,2.09,1.06,2.38.56.18,1.19-.11,1.59-.55.39-.44.6-1.01.8-1.57.5-1.4,1.01-2.8,1.51-4.19.69-1.9-.01-5.33-2.5-3.31-1.87,1.52-2.37,5.01-2.46,7.24Z" />
    <path class="cls-18"
      d="M58.88,49.89c-2.11.16-3.96-1.42-4.12-3.53-.27-3.46,1.17-5.47,2.13-6.8.68-.94.76-1.09.71-1.74-.05-.65-.16-.78-.97-1.61-1.14-1.17-2.87-2.93-3.14-6.39-.27-3.46,1.17-5.47,2.13-6.8.68-.94.76-1.09.71-1.74-.16-2.11,1.42-3.96,3.53-4.12,2.11-.16,3.96,1.42,4.12,3.53.27,3.46-1.17,5.47-2.13,6.8-.68.94-.76,1.09-.71,1.74.05.65.16.78.97,1.61,1.14,1.17,2.87,2.93,3.14,6.39.27,3.46-1.17,5.47-2.13,6.8-.68.94-.76,1.09-.71,1.74.16,2.11-1.42,3.96-3.53,4.12Z" />
    <path class="cls-9"
      d="M77.48,49.13c-2.12.1-3.92-1.53-4.02-3.65-.17-3.47,1.33-5.43,2.32-6.74.7-.92.79-1.07.76-1.72-.03-.65-.13-.78-.92-1.63-1.11-1.2-2.79-3.01-2.96-6.48-.17-3.47,1.33-5.43,2.32-6.74.7-.92.79-1.07.76-1.72-.1-2.12,1.53-3.92,3.65-4.02,2.12-.1,3.92,1.53,4.02,3.65.17,3.47-1.33,5.43-2.32,6.74-.7.92-.79,1.07-.76,1.72.03.65.13.78.92,1.63,1.11,1.2,2.79,3.01,2.96,6.48.17,3.47-1.33,5.43-2.32,6.74-.7.92-.79,1.07-.76,1.72.1,2.12-1.53,3.92-3.65,4.02Z" />
    <path class="cls-3" d="M37.05,100.47c.7-.86,1.39-1.72,2.08-2.59" />
    <path class="cls-6" d="M28.65,110.09c1.63-1.7,3.23-3.44,4.79-5.21" />
    <path class="cls-1" d="M41.94,131.44c2.35-2.93,4.54-5.99,6.57-9.16" />
    <path class="cls-7" d="M104.62,112.84c-3.62-3.77-7.05-7.71-10.27-11.83" />
    <path class="cls-5" d="M84.34,125.36c-.77-1.11-1.53-2.24-2.26-3.39" />
    <path class="cls-4" d="M89.78,132.24c-.73-.92-1.45-1.84-2.16-2.78" />
    <path class="cls-2" d="M66.09,139.07c.27-2.74.54-5.48.82-8.22" />
  </g>
</svg>