<?xml version="1.0" encoding="UTF-8"?>
<svg id="Capa_2" xmlns="http://www.w3.org/2000/svg" xmlns:xlink="http://www.w3.org/1999/xlink"
  viewBox="0 0 164.75 158.09">
  <defs>
    <style>
      .cls-1 {
        fill: url(#Degradado_sin_nombre_16);
      }

      .cls-2 {
        fill: url(#Degradado_sin_nombre_12-3);
      }

      .cls-3 {
        stroke: url(#Degradado_sin_nombre_8-3);
      }

      .cls-3,
      .cls-4,
      .cls-5 {
        fill: none;
        stroke-linecap: round;
        stroke-linejoin: round;
        stroke-width: 3.27px;
      }

      .cls-6 {
        fill: url(#Degradado_sin_nombre_2);
      }

      .cls-4 {
        stroke: url(#Degradado_sin_nombre_8-2);
      }

      .cls-7 {
        fill: url(#Degradado_sin_nombre_2-3);
      }

      .cls-8 {
        fill: url(#Degradado_sin_nombre_12-2);
      }

      .cls-5 {
        stroke: url(#Degradado_sin_nombre_8);
      }

      .cls-9 {
        fill: url(#Degradado_sin_nombre_2-2);
      }

      .cls-10 {
        fill: url(#Degradado_sin_nombre_31);
      }

      .cls-11 {
        fill: url(#Degradado_sin_nombre_12);
      }
    </style>
    <linearGradient id="Degradado_sin_nombre_2" x1="15.59" y1="83" x2="184.43" y2="123.81"
      gradientTransform="translate(2.67 -23.14) rotate(.46)" gradientUnits="userSpaceOnUse">
      <stop offset="0" stop-color="#c9ccd1" />
      <stop offset="1" stop-color="#fff" />
    </linearGradient>
    <linearGradient id="Degradado_sin_nombre_12" x1="82.37" y1="1.98" x2="82.37" y2="155.6"
      gradientUnits="userSpaceOnUse">
      <stop offset="0" stop-color="#1f1f1f" />
      <stop offset="1" stop-color="#0a0a0a" />
    </linearGradient>
    <linearGradient id="Degradado_sin_nombre_16" x1="20.4" y1="84.16" x2="177.01" y2="122.02"
      gradientTransform="translate(2.67 -23.14) rotate(.46)" gradientUnits="userSpaceOnUse">
      <stop offset="0" stop-color="#3700ff" />
      <stop offset="1" stop-color="#ff00e6" />
    </linearGradient>
    <linearGradient id="Degradado_sin_nombre_31" x1="24.79" y1="85.55" x2="170.56" y2="120.78"
      gradientTransform="translate(2.67 -23.14) rotate(.46)" gradientUnits="userSpaceOnUse">
      <stop offset="0" stop-color="#ff00e6" />
      <stop offset="1" stop-color="#3700ff" />
    </linearGradient>
    <linearGradient id="Degradado_sin_nombre_2-2" x1="65.88" y1="62.69" x2="81.08" y2="62.69"
      gradientTransform="matrix(1,0,0,1,0,0)" xlink:href="#Degradado_sin_nombre_2" />
    <linearGradient id="Degradado_sin_nombre_12-2" x1="66.87" y1="79.52" x2="74.81" y2="79.52"
      gradientTransform="translate(2.67 -23.14) rotate(.46)" xlink:href="#Degradado_sin_nombre_12" />
    <linearGradient id="Degradado_sin_nombre_2-3" x1="99.93" y1="66.15" x2="111.75" y2="66.15"
      gradientTransform="matrix(1,0,0,1,0,0)" xlink:href="#Degradado_sin_nombre_2" />
    <linearGradient id="Degradado_sin_nombre_12-3" x1="101.87" y1="92.35" x2="108.04" y2="92.35"
      gradientTransform="translate(2.67 -23.14) rotate(.46)" xlink:href="#Degradado_sin_nombre_12" />
    <linearGradient id="Degradado_sin_nombre_8" x1="65.22" y1="120.61" x2="110.04" y2="120.61"
      gradientTransform="translate(2.67 -23.14) rotate(.46)" gradientUnits="userSpaceOnUse">
      <stop offset="0" stop-color="#141414" />
      <stop offset="1" stop-color="#141414" />
    </linearGradient>
    <linearGradient id="Degradado_sin_nombre_8-2" x1="107.28" y1="123.47" x2="113.03" y2="123.47"
      xlink:href="#Degradado_sin_nombre_8" />
    <linearGradient id="Degradado_sin_nombre_8-3" x1="5870" y1="2064.63" x2="5875.75" y2="2064.63"
      gradientTransform="translate(5921.77 2207.87) rotate(-179.54)" xlink:href="#Degradado_sin_nombre_8" />
  </defs>
  <g id="OBJECTS">
    <path class="cls-6"
      d="M101.2,158.09c-5.12-.08-10.03-2.46-13.49-6.51-3.47-4.05-4.94-9.14-4.04-13.95.08-.43.18-.85.28-1.25-1,.44-2.15.73-3.48.72-.91,0-1.8-.16-2.67-.46-2.07-.71-3.37-1.93-4.21-3.26-1.62,3.24-3.65,6.43-6.67,9.02-3.4,2.91-7.76,4.57-11.98,4.53-1.84-.01-3.61-.34-5.27-.98-4.92-1.89-8.51-6.57-8.93-11.64-.31-3.78,1.15-7.61,3.79-10.4-.8-.55-1.5-1.23-2.06-2-.64-.88-1.07-1.85-1.29-2.84-1.11,1.03-2.4,2.08-3.95,2.92-2.14,1.15-4.63,1.75-7.18,1.73-6.28-.05-12.17-3.82-14.33-9.17-1.53-3.78-1.2-8.14.9-11.96,2.1-3.82,5.66-6.54,9.77-7.46.54-.12,1.08-.21,1.64-.28-.33-.35-.63-.73-.91-1.15-1.53-2.3-1.75-5.04-.59-7.52.05-.1.09-.2.14-.29-.05,0-.09,0-.14,0-5.7-.04-11.27-1.06-16.57-3.02C3.52,80.47-.11,76.21,0,71.17c.15-6.45,6.56-10.4,12.41-10.35.82,0,1.63.09,2.41.24,3.72.72,6.65,2.66,9.06,4.4-.51-1.33-.55-2.78-.13-4.34.78-2.91,3.25-5.01,6.42-5.6-2.59-2.21-5.08-4.55-7.44-6.98-2.9-3-5.74-6.39-6.88-10.85-1.33-5.22.4-12.09,6.28-15.11,1.79-.92,3.73-1.38,5.76-1.36,6.34.05,11.7,4.66,14.19,9.21,1.14,2.08,1.92,4.23,2.62,6.13,1.09-1.49,2.71-2.52,4.59-2.87.49-.09.98-.13,1.46-.13.48,0,.94.05,1.37.13-.22-.28-.45-.56-.67-.83-.32-.4-.65-.79-.96-1.19-3.94-4.99-5.75-9.94-5.4-14.71.47-6.33,5.8-13.12,13.6-13.06h.24c6.69.2,11.25,5.28,13.29,9.97.84,1.92,1.38,3.85,1.85,5.56.45,1.6.86,3.09,1.44,4.34.64,1.38,1.81,2.48,2.42,2.8.32-.33.73-1.07.73-1.61,0-1.29-.43-2.87-.88-4.54-.55-2.01-1.17-4.29-1.26-6.82-.13-3.71,1.44-7.66,4.12-10.3C82.85,1.15,85.64-.02,88.52,0c.91,0,1.81.13,2.7.37,6.58,1.78,9,8.67,7.99,14.55-.23,1.37-.59,2.65-.91,3.78-.29,1.04-.57,2.03-.69,2.89,1.05-.57,2.39-1.06,4.01-1.05,1.16,0,2.28.28,3.32.79,2.42,1.21,3.42,3.16,3.83,4.81.45-.43.93-.94,1.4-1.43.35-.37.7-.74,1.05-1.1,3.02-3.06,7.91-6.71,14.07-6.66.54,0,1.09.04,1.63.1,4.25.5,8.2,3.34,10.05,7.24,1.65,3.47,1.39,7.17-.71,10.15-1.07,1.52-2.42,2.59-3.77,3.37,1.65,1.42,2.63,3.4,2.94,5.44.63-.28,1.22-.57,1.72-.83,3.65-1.87,8.2-4.21,13.3-4.17,1.51.01,2.98.23,4.38.66,5.94,1.8,10.19,7.67,9.9,13.64-.29,5.97-5.09,11.43-11.18,12.7-1.09.23-2.21.33-3.4.33-.59,0-1.17-.04-1.73-.09.31.57.54,1.19.69,1.84.85,3.64-.85,6.08-2.77,7.66,5.09.83,9.29,2.68,12.5,5.5,4.65,4.09,6.74,10.21,5.33,15.6-1.51,5.79-7.19,10.12-13.21,10.07-.85,0-1.7-.1-2.53-.28-1.5-.32-2.82-.87-3.99-1.54-.23,2.05-1.3,3.89-3.03,5.14-1.35.98-3,1.52-4.8,1.56.58.72,1.39,1.51,2.2,2.29l.32.31c2.73,2.65,5.47,5.65,7.07,9.6,2.07,5.11,1.45,10.71-1.63,14.62-2.35,2.98-6.26,4.82-10.2,4.79-2.71-.02-5.2-.89-7.18-2.51-2.2-1.8-3.32-4.03-3.86-6.28-1.32.68-2.83,1.06-4.41,1.05-.35,0-.69-.03-1.03-.07-2.61-.32-5.02-1.71-6.69-3.78.12,1.31.97,3.17,1.79,4.99,1.85,4.09,4.38,9.69,1.12,15.4-2.37,4.15-7.28,6.71-12.8,6.66h-.12Z" />
    <path class="cls-11"
      d="M101.23,155.2c-4.21-.07-8.29-2.06-11.2-5.46-2.91-3.4-4.15-7.63-3.41-11.61.2-1.07.51-2.06.81-3.01.39-1.24.76-2.42.75-3.45-.01-.76-.55-1.52-.86-1.69-.36.16-1.08.89-1.52,1.34-1.2,1.23-2.84,2.9-5.31,2.88-.57,0-1.14-.1-1.69-.29-3.19-1.09-3.57-4.13-3.8-5.94-.07-.53-.17-1.37-.33-1.74-.27.02-.55.13-.73.27-.75.6-1.28,1.78-1.84,3.02l-.05.12c-1.7,3.78-3.74,7.69-7.13,10.59-2.85,2.44-6.48,3.83-9.96,3.8-1.46-.01-2.87-.27-4.18-.78-3.89-1.49-6.72-5.18-7.05-9.19-.33-4.01,1.86-8.09,5.45-10.14,1.4-.81,2.89-1.26,4.21-1.65,1.15-.35,2.24-.68,3.06-1.18.5-.31.85-.96.95-1.39-.3.07-.76.23-1.31.54-.27.15-.53.32-.79.48-1.28.79-2.87,1.78-4.92,1.95-.18.02-.36.02-.54.02-1.9-.01-3.83-.98-4.9-2.45-.92-1.27-1.15-2.8-.64-4.2.58-1.56,1.82-2.38,2.64-2.92.15-.1.34-.23.48-.33-.09-.32-.53-.84-.91-.9-.12-.02-.24-.03-.36-.03-1.12,0-2.53.73-3.99,2.09-.5.46-.98.95-1.45,1.44-1.36,1.39-2.9,2.96-4.93,4.06-1.69.91-3.66,1.38-5.69,1.36-5.08-.04-9.83-3.05-11.56-7.32-1.21-3-.94-6.5.75-9.57,1.69-3.08,4.54-5.26,7.8-6,1.05-.24,2.16-.35,3.39-.34,1.54.01,3.01.21,4.44.4.43.06.87.12,1.3.17.84.1,1.57.15,2.22.16,1.58.01,2.75-.25,3.59-.79.51-.33.92-1.03.97-1.66,0-.12.02-.43-.12-.55-.08-.08-.31-.28-1.23-.29-.72,0-1.56.11-2.46.23-.59.08-1.17.16-1.74.21-.26.02-.53.03-.81.03-2.37-.02-5.45-1.06-6.98-3.36-.98-1.46-1.12-3.21-.38-4.78,1.12-2.39,3.55-3.07,5.16-3.51.4-.11,1.01-.28,1.36-.43-.11-.18-.32-.4-.56-.5-.42-.17-.95-.26-1.67-.26-.68,0-1.43.06-2.22.13l-.64.06c-1.37.12-2.76.17-4.15.16-5.34-.04-10.56-.99-15.51-2.83-5.19-1.93-8.12-5.18-8.04-8.94.11-4.7,4.95-7.57,9.38-7.53.63,0,1.25.07,1.84.18,3.5.68,6.27,2.71,8.71,4.51.42.31.85.62,1.27.93,2.4,1.7,4.35,2.54,5.99,2.55.34,0,.67-.03.99-.1.74-.17,1.52-.99,1.74-1.83.04-.16.12-.55-.05-.69-.35-.3-1.1-.66-1.77-.97-1.78-.84-5.47-2.6-4.44-6.43.59-2.21,2.72-3.62,5.43-3.6,1.1,0,2.24.25,3.22.69.38.17.76.36,1.14.55.57.28,1.34.67,1.72.71.13-.22.23-.75.07-1.16-.44-1.11-1.7-2.11-3.04-3.17l-.16-.13c-3.56-2.82-6.96-5.89-10.1-9.14-2.62-2.71-5.19-5.75-6.16-9.57-1.06-4.14.25-9.55,4.78-11.88,1.34-.69,2.79-1.03,4.32-1.02,5.08.04,9.55,4,11.56,7.67,1.04,1.91,1.77,3.89,2.46,5.8.9,2.46,1.74,4.78,3.16,6.64.87,1.14,1.87,1.85,2.68,1.9h0c.23,0,.5-.14.64-.26-.11-.2-.34-.51-.5-.74-.3-.41-.64-.88-.93-1.43-.81-1.51-.86-3.42-.13-4.87.61-1.21,1.73-2.04,3.06-2.29.29-.05.58-.08.87-.08,2.1.02,3.39,1.41,4.16,2.25.19.2.38.41.5.51.09,0,.53-.16.99-.62.49-.49.78-1.11.76-1.58-.1-1.96-1.67-3.88-3.32-5.92-.31-.39-.63-.77-.93-1.15-3.48-4.42-5.1-8.71-4.8-12.76.37-5.05,4.72-10.42,10.59-10.38h.2c5.24.16,8.91,4.34,10.59,8.2.76,1.74,1.25,3.49,1.72,5.19.48,1.7.92,3.31,1.6,4.77,1.02,2.19,3.32,4.57,5.27,4.59.09,0,.17,0,.26-.01,1.81-.18,3.36-2.65,3.36-4.55,0-1.67-.47-3.42-.98-5.27-.53-1.96-1.08-3.99-1.16-6.19-.11-2.95,1.15-6.09,3.27-8.19,1.61-1.59,3.63-2.46,5.69-2.44.64,0,1.28.09,1.91.26,4.89,1.33,6.64,6.69,5.85,11.31-.21,1.22-.53,2.38-.85,3.5-.52,1.85-1.01,3.61-.82,5.17.16,1.29,1.49,2.52,2.21,2.52.05,0,.09,0,.15-.05.17-.1.41-.29.66-.48.93-.72,2.21-1.71,3.99-1.7.68,0,1.35.16,1.96.47,2.43,1.21,2.49,3.69,2.51,4.89,0,.29.01.58.04.74.02.12.56.5,1.44.5.33,0,.65-.05.9-.15,1.39-.54,2.63-1.85,3.93-3.23.34-.36.67-.71,1.01-1.05,2.61-2.65,6.78-5.8,11.87-5.76.43,0,.86.03,1.28.08,3.24.38,6.26,2.57,7.68,5.57,1.2,2.54,1.04,5.21-.46,7.33-1.67,2.37-4.42,3.35-6.24,3.99-1.25.45-2.81,1-3.42,1.82-.05.07-.09.19-.11.31.18-.03.4-.07.61-.1.62-.11,1.32-.23,2.11-.22.66,0,1.29.1,1.88.29,3.22,1.05,4.43,4.52,3.74,7.27-.1.4-.23.79-.39,1.15,2.34-.31,4.83-1.47,6.6-2.38,3.53-1.81,7.53-3.86,11.86-3.83,1.21,0,2.39.19,3.5.52,4.68,1.42,8.04,6.05,7.81,10.76-.23,4.71-4.02,9.01-8.81,10.01-.88.18-1.77.27-2.74.26-2.09-.02-4.03-.46-5.91-.89-.4-.09-.8-.18-1.2-.27-1.28-.28-2.34-.41-3.25-.42-1.21,0-2.13.2-2.82.65-.34.22-.63.72-.73,1.23-.08.42,0,.69.05.76.06.02.25.08.73.09.39,0,.78-.03,1.18-.05.4-.03.81-.05,1.21-.06h.28c3.34.02,5.89,1.69,6.48,4.23.91,3.91-2.72,5.63-4.68,6.56-.71.33-2.02.96-2.2,1.31.02.11.34.64.84.92.91.49,2.23.64,3.62.8.33.04.66.08.99.12,5,.65,9.06,2.31,12.05,4.94,3.85,3.38,5.59,8.39,4.45,12.77-1.19,4.53-5.6,7.92-10.28,7.89-.64,0-1.28-.07-1.9-.21-3.19-.69-5.42-2.76-7.39-4.6l-.22-.21c-1.48-1.37-3.05-2.66-4.54-2.74h0c-.6,0-1.22.44-1.38.72.2.29,1.04.78,1.56,1.09.46.27.91.54,1.33.83,1.82,1.25,3.01,3.32,3.04,5.26.02,1.51-.67,2.88-1.89,3.76-.91.66-2.02.99-3.3.98-.56,0-1.07-.07-1.52-.13-.32-.04-.62-.08-.83-.08-.26.01-.45.2-.57.36-.44.57-.62,1.48-.44,2.16.45,1.71,2.04,3.25,3.73,4.89l.31.3c2.5,2.43,5.01,5.16,6.41,8.61,1.7,4.19,1.23,8.72-1.22,11.83-1.79,2.27-4.77,3.67-7.78,3.64-2-.02-3.82-.65-5.26-1.82-3.56-2.91-3.37-7.41-3.23-11.02.13-3.3.12-5.38-1.15-6.32-.37-.27-.83-.33-1.15-.34-.59,0-1.19.17-1.68.47.1.11.58.63.71.79.83.94,2.77,3.15,2.27,5.95-.47,2.62-3.03,4.57-5.95,4.55h0c-.23,0-.46-.02-.69-.04-2.38-.29-4.54-1.9-5.64-4.19-.16-.34-.3-.7-.44-1.05-.04-.12-.09-.24-.14-.36-1.72.22-3.33,1.59-3.73,3.21-.54,2.19.66,4.82,1.92,7.61,1.78,3.93,3.8,8.39,1.24,12.86-1.84,3.22-5.73,5.2-10.15,5.17,0,0-.11,0-.12,0Z" />
    <path class="cls-1"
      d="M118.67,119.82c1.66-2.43,5.52-3.3,7.92-1.53,5.15,3.8-.45,13.38,4.5,17.43,2.5,2.05,6.71,1.16,8.7-1.37,1.99-2.52,2.01-6.1.82-9.04-1.19-2.95-3.43-5.38-5.75-7.63-1.97-1.92-4.12-3.89-4.82-6.51-.69-2.61.89-5.97,3.7-6.11,1.38-.07,2.95.6,4.06-.2,1.45-1.06.39-3.36-1.09-4.38-1.48-1.02-3.43-1.74-4.02-3.4-.82-2.3,1.91-4.61,4.44-4.46,2.53.15,4.62,1.86,6.44,3.55,1.82,1.69,3.71,3.53,6.18,4.06,3.74.81,7.67-2,8.61-5.57.93-3.57-.74-7.46-3.56-9.94-2.83-2.48-6.63-3.72-10.43-4.21-1.94-.25-3.98-.34-5.69-1.27-1.71-.92-2.93-3.04-2.05-4.72,1.45-2.78,7.34-2.92,6.64-5.95-.34-1.46-2.21-2.02-3.76-1.98s-3.21.38-4.59-.31c-2.57-1.29-2-5.36.4-6.92,2.4-1.56,5.59-1.27,8.41-.66,2.83.61,5.73,1.49,8.56.9,3.5-.73,6.28-3.89,6.45-7.33.17-3.44-2.3-6.84-5.72-7.87-4.4-1.33-8.98,1.01-13.05,3.1-4.07,2.09-9.05,3.99-13.1,1.88,1.07-1.15,2.19-2.37,2.56-3.88.38-1.5-.26-3.37-1.79-3.86-1.61-.53-3.45.62-5.04.05-1.8-.65-2.05-3.2-.94-4.71s3.02-2.22,4.83-2.86c1.8-.64,3.72-1.38,4.79-2.91,2.27-3.23-1.08-7.96-5.1-8.43-4.03-.47-7.82,1.96-10.6,4.8-1.83,1.86-3.53,4.02-6.01,4.98-2.48.96-6.01-.04-6.43-2.57-.21-1.26.21-2.94-.97-3.52-1.25-.62-2.44.86-3.63,1.58-2.84,1.72-6.55-1.38-6.94-4.58-.39-3.2,1.14-6.3,1.68-9.48s-.48-7.19-3.7-8.06c-3.93-1.07-7.19,3.56-7.05,7.49.14,3.93,2.15,7.64,2.14,11.57,0,3.16-2.49,7.05-6.05,7.41-3.79.38-7.18-3.24-8.58-6.27-1.49-3.21-1.93-6.78-3.35-10.02-1.41-3.24-4.26-6.32-7.91-6.43-4.09-.12-7.41,3.77-7.7,7.7-.29,3.92,1.72,7.68,4.2,10.81,2.1,2.66,4.69,5.34,4.86,8.68.17,3.34-4.1,6.71-6.72,4.52-.96-.81-1.73-2.26-2.99-2.03-1.23.23-1.41,1.94-.83,3.01.58,1.07,1.59,1.96,1.79,3.15.33,1.92-1.83,3.59-3.84,3.48-2.02-.12-3.72-1.51-4.92-3.08-2.87-3.77-3.59-8.66-5.86-12.8-2.26-4.14-7.52-7.65-11.81-5.45-3.03,1.56-4.1,5.44-3.28,8.65.82,3.21,3.1,5.87,5.45,8.29,3.06,3.16,6.34,6.13,9.81,8.88,1.62,1.28,3.36,2.61,4.1,4.5.75,1.89-.02,4.48-2.05,4.99-1.71.42-3.34-.73-4.94-1.44-1.6-.71-4.06-.63-4.49,1.01-.64,2.38,3.39,2.9,5.3,4.53,2.56,2.19.34,6.72-2.99,7.49s-6.7-.98-9.45-2.94c-2.75-1.96-5.43-4.27-8.79-4.92-3.36-.65-7.55,1.3-7.63,4.59-.07,3.04,3.17,5.09,6.12,6.18,5.8,2.15,12.12,3.01,18.31,2.49,2.01-.17,4.11-.46,5.96.29,1.85.76,3.19,3.06,2.07,4.67-1.43,2.05-5.41,1.36-6.47,3.61-1.1,2.36,2.47,4.29,5.15,4.05,2.68-.24,5.8-1.15,7.76.62,1.97,1.78,1.02,5.24-1.22,6.7-2.24,1.46-5.17,1.43-7.86,1.11-2.69-.32-5.44-.88-8.07-.28-5.08,1.14-8.32,7.05-6.44,11.72,1.88,4.67,8.43,6.93,12.98,4.49,2.28-1.23,3.89-3.31,5.77-5.05,1.88-1.75,4.37-3.25,6.94-2.84,2.57.42,4.51,3.71,2.76,5.57-.82.88-2.23,1.28-2.64,2.39-.55,1.5,1.34,2.94,2.98,2.79,1.65-.14,3.01-1.21,4.43-2.03,1.42-.82,3.27-1.4,4.67-.55,2.24,1.35,1.08,4.93-1.15,6.3s-5.06,1.57-7.34,2.88c-2.63,1.51-4.24,4.51-4,7.44.24,2.93,2.33,5.65,5.17,6.74,3.7,1.42,8.06.05,11.03-2.5,2.97-2.54,4.8-6.07,6.38-9.58.69-1.53,1.39-3.14,2.72-4.21,1.33-1.07,3.51-1.37,4.73-.19,1.96,1.9.43,6.2,3.05,7.09,2.65.9,4.11-3.36,6.83-4.03,2.42-.6,4.52,2.06,4.55,4.46.03,2.4-1.17,4.65-1.61,7.01-1.23,6.6,4.72,13.56,11.7,13.67,2.97.05,6.15-1.16,7.58-3.67,3.45-6.04-5.09-13.04-3.45-19.75.71-2.91,3.54-5.23,6.64-5.45.86-.06,1.8.16,2.28.84.48.68.67,1.51,1.03,2.26.61,1.28,1.83,2.36,3.29,2.54,1.46.18,3.06-.75,3.31-2.14.24-1.33-.7-2.56-1.6-3.59-.91-1.03-2.45-2.41-1.68-3.54Z" />
    <path class="cls-10"
      d="M101.36,147.41c-1.8-.03-3.69-1.01-5.07-2.61-1.37-1.61-2-3.58-1.69-5.28.12-.62.35-1.35.59-2.12.5-1.59,1.13-3.58,1.1-5.82-.06-4.51-3.65-9.36-8.91-9.4-.68,0-1.37.08-2.03.24-1.18.29-2.16.79-2.99,1.37-.38-1.07-.98-2.16-1.99-3.14-1.46-1.41-3.45-2.2-5.61-2.21-2.16-.02-4.36.74-6.03,2.09-2.23,1.79-3.31,4.18-4.09,5.92l-.05.11c-1.54,3.43-3,6.08-5.09,7.87-1.32,1.14-3.04,1.83-4.49,1.82-.45,0-.87-.08-1.24-.22-1.03-.4-1.88-1.5-1.97-2.57-.09-1.07.57-2.28,1.52-2.83.59-.34,1.51-.62,2.49-.91,1.53-.46,3.26-.99,4.98-2.04,2.84-1.74,4.74-5.05,4.73-8.22-.01-2.68-1.33-5.01-3.61-6.38-1.25-.75-2.71-1.15-4.23-1.16-.76,0-1.5.09-2.19.24-.07-.65-.22-1.31-.45-1.96-1.13-3.1-3.95-5.44-7.2-5.97-.48-.08-.97-.12-1.45-.14.05-.03.1-.07.15-.1,2.54-1.65,4.26-4.53,4.51-7.5.22-2.64-.75-5.13-2.66-6.85-1.46-1.32-3.29-2.1-5.46-2.33,1.07-1.76,1.32-3.9.69-5.94-.75-2.41-2.59-4.44-4.97-5.51.99-1.17,1.72-2.54,2.11-4.02.38-1.47.4-2.92.06-4.27,1.94-.64,3.54-1.98,4.54-3.82,1.23-2.28,1.4-5.08.44-7.5-.47-1.2-1.13-2.21-1.86-3.09,1.05.43,2.15.68,3.27.74.15,0,.3.01.45.01,2.6.02,5.18-1.11,6.89-3.03,1.03-1.15,1.67-2.53,1.88-3.95,2.1-.28,4.15-1.31,5.77-2.93,2.05-2.05,3.15-4.73,3.01-7.36-.22-4.43-2.89-7.71-5.04-10.35-.29-.35-.58-.71-.85-1.06-2.26-2.87-3.33-5.39-3.17-7.5.12-1.62,1.47-3.14,2.42-3.13,1.1.03,2.54,1.5,3.37,3.41.54,1.25.94,2.68,1.37,4.2.53,1.92,1.09,3.9,2.02,5.92,2.11,4.55,6.83,9.17,12.62,9.21.39,0,.78-.02,1.17-.05,4.77-.48,8.23-3.91,9.76-7.83,1.95,2.38,4.84,3.97,7.82,3.99.75,0,1.49-.08,2.2-.27,1.52,2.8,4.73,4.61,8.55,4.64,1.38.01,2.76-.23,4-.71,3.12-1.21,5.23-3.43,6.92-5.22.3-.32.6-.63.9-.94,2.09-2.12,4.24-3.33,5.9-3.32.12,0,.25,0,.36.02.45.05,1.01.57,1.24.98-.53.32-1.63.71-2.09.87-2.06.73-5.18,1.84-7.23,4.64-1.54,2.1-2.01,4.94-1.22,7.41.71,2.22,2.36,3.95,4.53,4.73.54.2,1.12.34,1.71.41l-3.77,4.04,5.7,2.96c1.89.98,4,1.49,6.27,1.51.69,0,1.37-.04,2.04-.11-.1.06-.2.13-.3.19-2.82,1.83-4.52,5.19-4.32,8.56.18,2.95,1.83,5.49,4.42,6.79.16.08.32.16.49.23-.37.44-.7.92-.99,1.47-2.01,3.86-.16,8.88,4.12,11.2,2.32,1.26,4.71,1.53,6.64,1.75.29.03.59.07.88.11,2.29.3,5.48,1.05,7.66,2.97,1.62,1.43,2.47,3.53,2.05,5.11-.29,1.11-1.52,2-2.34,1.99-.07,0-.13,0-.19-.02-.96-.21-2.26-1.41-3.51-2.58l-.23-.22c-1.62-1.51-4.99-4.64-9.68-4.92-.16,0-.32-.01-.48-.02-3.08-.02-6.12,1.47-7.94,3.89-1.6,2.13-2.03,4.71-1.18,7.09.39,1.08.96,1.96,1.61,2.68-.98.58-1.86,1.36-2.59,2.32-1.87,2.44-2.55,5.78-1.77,8.71.01.06.03.11.04.17-.48-.07-.97-.1-1.46-.11-3.73-.03-7.28,1.76-9.28,4.68-.34.49-.59.99-.77,1.5-.4-.06-.82-.09-1.24-.1-.24,0-.48,0-.71.02-5.3.37-10.03,4.25-11.25,9.22-1.15,4.71.8,9.03,2.38,12.51,1.33,2.95,2.17,4.96,1.57,6-.32.56-1.52,1.13-2.97,1.12h-.04ZM134.47,131.94s-.08,0-.11,0c-.5-.58-.39-3.27-.33-4.73.04-.93.08-1.95.06-3,.74.93,1.36,1.89,1.76,2.89.65,1.61.6,3.38-.13,4.3-.24.31-.8.55-1.25.55ZM30.14,113.03c-1.75-.01-3.53-1.04-4.06-2.35-.36-.88-.22-2.05.36-3.11.59-1.07,1.51-1.83,2.47-2.05.42-.09.9-.14,1.47-.13,1.01,0,2.17.16,3.39.32.47.06.95.13,1.42.18,1.16.14,2.19.21,3.15.22.38,0,.75,0,1.11-.02-1.01.62-2,1.38-2.96,2.27-.62.58-1.18,1.15-1.72,1.7-1.05,1.07-2.04,2.09-2.99,2.59-.58.31-1.22.37-1.66.37ZM17.06,73.89c-1.05-.29-2.08-.62-3.1-.99-1.18-.44-1.97-.92-2.43-1.28.23-.07.5-.12.79-.12.11,0,.21.01.3.03,1.39.27,2.87,1.24,4.44,2.37ZM150.25,54.89c-1.17,0-2.59-.34-4.1-.68-.43-.1-.86-.2-1.29-.29-1.85-.4-3.47-.6-4.97-.61-.21,0-.43,0-.64,0,1.17-.49,2.23-1,3.15-1.47,2.67-1.37,5.71-2.93,7.97-2.91.41,0,.77.06,1.12.16,1.2.37,2.21,1.75,2.15,2.96-.06,1.21-1.19,2.5-2.42,2.75-.28.06-.6.09-.96.08ZM37.67,47.63c-2.37-2.01-4.65-4.14-6.79-6.36-1.88-1.94-3.69-4.03-4.23-6.12-.35-1.36.12-2.83.73-3.15.14-.07.26-.1.43-.1,1.2,0,3.32,1.45,4.44,3.5.77,1.4,1.36,3.02,1.99,4.75.86,2.37,1.83,5.01,3.43,7.48ZM87.85,14.9c-.11-.58-.19-1.13-.21-1.66-.02-.68.25-1.41.56-1.94.11.5.16,1.18.04,1.88-.09.54-.23,1.12-.39,1.72Z" />
    <path class="cls-9"
      d="M81.08,62.75c-.08,9.38-3.54,16.95-7.74,16.92-4.2-.03-7.53-7.66-7.45-17.04.08-9.38,3.54-16.95,7.74-16.92,4.2.03,7.53,7.66,7.45,17.04Z" />
    <path class="cls-8"
      d="M76.82,56.98c-.04,4.89-1.85,8.85-4.04,8.83-2.19-.02-3.93-4-3.89-8.9,0-1.06.1-2.08.26-3.02,1.73-.3,4.41-.89,4.41-.89l-3.86-1.32c.73-2.2,1.92-3.62,3.23-3.61,2.19.02,3.93,4,3.89,8.9Z" />
    <path class="cls-7"
      d="M111.75,66.2c-.06,7.3-2.76,13.19-6.02,13.17-3.26-.03-5.86-5.96-5.8-13.26.06-7.3,2.76-13.19,6.02-13.17,3.26.03,5.86,5.96,5.8,13.26Z" />
    <path class="cls-2"
      d="M109.95,70.07c-.03,3.81-1.44,6.89-3.15,6.88-1.71-.01-3.06-3.12-3.03-6.92,0-.82.08-1.62.2-2.35,1.34-.23,3.43-.69,3.43-.69l-3-1.03c.57-1.71,1.49-2.82,2.51-2.81,1.71.01,3.06,3.11,3.03,6.92Z" />
    <path class="cls-5"
      d="M68.56,95.22c4.15.03,4.11,5.62,8.26,5.65,4.15.03,4.2-5.56,8.36-5.52,4.15.03,4.11,5.62,8.26,5.65,4.16.03,4.2-5.56,8.36-5.52s4.11,5.62,8.26,5.65" />
    <path class="cls-4" d="M112.04,97.4c-1.08,1.05-1.62,2.58-1.43,4.04.19,1.46,1.1,2.82,2.41,3.59" />
    <path class="cls-3" d="M65.97,99.68c1.08-1.05,1.62-2.58,1.43-4.04-.19-1.46-1.1-2.82-2.41-3.59" />
  </g>
</svg>