<?xml version="1.0" encoding="UTF-8"?>
<svg id="Capa_2" xmlns="http://www.w3.org/2000/svg" xmlns:xlink="http://www.w3.org/1999/xlink"
  viewBox="0 0 132.31 141.84">
  <defs>
    <style>
      .cls-1 {
        fill: url(#Degradado_sin_nombre_6);
      }

      .cls-2 {
        stroke: url(#Degradado_sin_nombre_8-3);
      }

      .cls-2,
      .cls-3,
      .cls-4,
      .cls-5,
      .cls-6 {
        fill: none;
        stroke-linecap: round;
        stroke-linejoin: round;
        stroke-width: 3px;
      }

      .cls-3 {
        stroke: url(#Degradado_sin_nombre_8);
      }

      .cls-7 {
        fill: url(#Degradado_sin_nombre_2-4);
      }

      .cls-8 {
        fill: url(#Degradado_sin_nombre_21-2);
      }

      .cls-9 {
        fill: url(#Degradado_sin_nombre_2);
      }

      .cls-4 {
        stroke: url(#Degradado_sin_nombre_8-5);
      }

      .cls-5 {
        stroke: url(#Degradado_sin_nombre_8-2);
      }

      .cls-10 {
        fill: url(#Degradado_sin_nombre_21);
      }

      .cls-11 {
        fill: url(#Degradado_sin_nombre_2-3);
      }

      .cls-12 {
        fill: url(#Degradado_sin_nombre_22);
      }

      .cls-6 {
        stroke: url(#Degradado_sin_nombre_8-4);
      }

      .cls-13 {
        fill: url(#Degradado_sin_nombre_2-2);
      }

      .cls-14 {
        fill: url(#Degradado_sin_nombre_6-2);
      }

      .cls-15 {
        fill: url(#Degradado_sin_nombre_12);
      }
    </style>
    <linearGradient id="Degradado_sin_nombre_2" x1="66.16" y1="135.15" x2="66.16" y2="2.7"
      gradientUnits="userSpaceOnUse">
      <stop offset="0" stop-color="#c9ccd1" />
      <stop offset="1" stop-color="#fff" />
    </linearGradient>
    <linearGradient id="Degradado_sin_nombre_12" x1="2.65" y1="75.63" x2="129.17" y2="75.63"
      gradientTransform="translate(.35 -4.82) rotate(.07)" gradientUnits="userSpaceOnUse">
      <stop offset="0" stop-color="#1f1f1f" />
      <stop offset="1" stop-color="#0a0a0a" />
    </linearGradient>
    <linearGradient id="Degradado_sin_nombre_2-2" x1="68.29" y1="194.9" x2="65.17" y2="15.29"
      xlink:href="#Degradado_sin_nombre_2" />
    <linearGradient id="Degradado_sin_nombre_22" x1="70.42" y1="48.34" x2="70.42" y2="105.67"
      gradientTransform="translate(76.98 -31.32) rotate(45.07)" gradientUnits="userSpaceOnUse">
      <stop offset="0" stop-color="#fffb00" />
      <stop offset="1" stop-color="#f80" />
    </linearGradient>
    <linearGradient id="Degradado_sin_nombre_2-3" x1="83.58" y1="79.44" x2="83.58" y2="59.74"
      gradientTransform="translate(.35 -4.82) rotate(.07)" xlink:href="#Degradado_sin_nombre_2" />
    <linearGradient id="Degradado_sin_nombre_21" x1="85.82" y1="79.44" x2="85.82" y2="62.11"
      gradientTransform="translate(.35 -4.82) rotate(.07)" gradientUnits="userSpaceOnUse">
      <stop offset="0" stop-color="#0a0a0a" />
      <stop offset="1" stop-color="#1f1f1f" />
    </linearGradient>
    <linearGradient id="Degradado_sin_nombre_8" x1="73.42" y1="78.62" x2="93.73" y2="78.62"
      gradientTransform="translate(.35 -4.82) rotate(.07)" gradientUnits="userSpaceOnUse">
      <stop offset="0" stop-color="#141414" />
      <stop offset="1" stop-color="#141414" />
    </linearGradient>
    <linearGradient id="Degradado_sin_nombre_2-4" x1="57.68" y1="79.44" x2="57.68" y2="59.74"
      gradientTransform="translate(.35 -4.82) rotate(.07)" xlink:href="#Degradado_sin_nombre_2" />
    <linearGradient id="Degradado_sin_nombre_21-2" x1="59.92" y1="79.44" x2="59.92" y2="62.11"
      xlink:href="#Degradado_sin_nombre_21" />
    <linearGradient id="Degradado_sin_nombre_8-2" x1="47.52" y1="78.62" x2="67.83" y2="78.62"
      xlink:href="#Degradado_sin_nombre_8" />
    <linearGradient id="Degradado_sin_nombre_8-3" x1="55.43" y1="93.39" x2="85.79" y2="93.39"
      xlink:href="#Degradado_sin_nombre_8" />
    <linearGradient id="Degradado_sin_nombre_8-4" x1="51.81" y1="88.98" x2="59.37" y2="88.98"
      xlink:href="#Degradado_sin_nombre_8" />
    <linearGradient id="Degradado_sin_nombre_8-5" x1="4411.25" y1="89.11" x2="4418.81" y2="89.11"
      gradientTransform="translate(4500.64 .9) rotate(-179.93) scale(1 -1)" xlink:href="#Degradado_sin_nombre_8" />
    <linearGradient id="Degradado_sin_nombre_6" x1="51.11" y1="85.93" x2="51.11" y2="74.29"
      gradientUnits="userSpaceOnUse">
      <stop offset="0" stop-color="#ff560e" />
      <stop offset="1" stop-color="#ffbf00" />
    </linearGradient>
    <linearGradient id="Degradado_sin_nombre_6-2" x1="90.21" y1="85.93" x2="90.21" y2="74.29"
      xlink:href="#Degradado_sin_nombre_6" />
  </defs>
  <g id="OBJECTS">
    <path class="cls-9"
      d="M108.42,141.84c-7.38,0-14.21-3.4-19.34-6.35l-.52-.3c-6.91-3.98-12.87-7.41-19.32-7.42-1.84,0-3.65.26-5.55.81-2.77.8-5.5,1.94-8.4,3.15-2.82,1.18-5.71,2.38-8.79,3.33-3.34,1.03-6.69,1.55-9.97,1.55-8.51-.01-16.36-3.4-23.32-10.07-7-6.7-11.56-15.15-12.85-23.78-2.24-15.04,6.12-24.68,13.49-33.18,2.74-3.16,5.57-6.42,7.76-9.84,4.6-7.18,4.08-13.98,3.43-22.6-.15-2.04-.31-4.11-.41-6.28-.52-11.64,7.68-24.29,18.67-28.81C46.64.69,50.22,0,53.94,0c7.81.01,15.31,3.09,20.57,8.46,1.85,1.88,3.33,3.9,4.76,5.86,1.95,2.65,3.78,5.15,5.99,6.41,2.22,1.26,5.13,1.44,7.69,1.44,1.15,0,2.31-.04,3.46-.07,1.34-.04,2.61-.08,3.86-.08.63,0,1.25.01,1.87.04,7.15.29,12.66,1.58,17.33,4.05,8.61,4.56,13.82,13.91,12.68,22.74-.64,4.95-2.98,9.11-5.05,12.77l-.06.1c-.3.53-.59,1.05-.88,1.58-4.28,7.77-2.17,17.6.74,27.07,3.17,10.31,12.81,41.69-10.9,50.19-2.4.86-4.95,1.3-7.59,1.29Z" />
    <path class="cls-15"
      d="M108.42,138.98c-6.7,0-13.09-3.19-17.91-5.97l-.52-.3c-7.26-4.18-13.53-7.79-20.74-7.8-2.11,0-4.19.3-6.35.93-2.93.85-5.75,2.02-8.72,3.26-2.74,1.14-5.57,2.32-8.51,3.23-3.06.95-6.13,1.43-9.12,1.42-7.75,0-14.93-3.13-21.35-9.28-6.54-6.26-10.8-14.13-12-22.14-2.05-13.74,5.51-22.45,12.83-30.88,2.81-3.24,5.71-6.58,8.01-10.17,5.11-7.98,4.54-15.57,3.87-24.36-.15-1.99-.31-4.06-.4-6.19-.47-10.51,6.95-21.95,16.9-26.03,2.98-1.22,6.19-1.84,9.54-1.84,7.05,0,13.8,2.78,18.53,7.6,1.7,1.74,3.12,3.67,4.5,5.55,2.13,2.9,4.14,5.64,6.88,7.2,2.8,1.59,6.17,1.81,9.1,1.81,1.2,0,2.41-.04,3.61-.07,1.25-.04,2.49-.08,3.71-.08.59,0,1.18.01,1.76.03,6.71.27,11.82,1.45,16.11,3.72,7.58,4.02,12.18,12.17,11.18,19.84-.57,4.4-2.67,8.13-4.71,11.74-.32.57-.64,1.13-.95,1.7-4.79,8.71-2.59,19.22.51,29.28,3.29,10.69,12.01,39.07-9.13,46.66-2.08.75-4.31,1.13-6.62,1.12Z" />
    <path class="cls-13"
      d="M45.49,7.35c8.33-3.42,18.64-1.31,24.94,5.12,4.2,4.28,6.8,10.27,12.01,13.23,5.81,3.3,13.06,1.81,19.48,2.07,5.13.21,10.35.99,14.88,3.39,6.06,3.21,10.6,9.93,9.69,16.95-.58,4.5-3.14,8.45-5.33,12.43-5.41,9.84-2.83,21.38.28,31.5,4.02,13.07,10.51,36.71-7.36,43.13-7.59,2.72-15.6-.86-22.14-4.63-9.66-5.56-18.37-10.76-29.83-7.44-5.92,1.71-11.4,4.69-17.28,6.51-10.43,3.23-19.86.26-27.64-7.19-5.72-5.48-9.98-12.66-11.15-20.5-2.61-17.5,12.09-26.09,20.41-39.09,6.85-10.69,4.44-20.5,3.92-32.22-.42-9.45,6.47-19.7,15.13-23.26Z" />
    <circle class="cls-12" cx="70.66" cy="74.43" r="30.81" transform="translate(-31.94 71.77) rotate(-45)" />
    <path class="cls-11"
      d="M92.51,73.12c0,.54-.01,1.09-.04,1.62-.68-.28-1.4-.53-2.15-.74-2-.57-4.19-.89-6.5-.89-2.31,0-4.49.31-6.5.87-.75.21-1.47.46-2.16.74-.02-.53-.03-1.08-.03-1.62.01-9.88,3.92-17.88,8.71-17.87,4.8,0,8.68,8.02,8.66,17.9Z" />
    <path class="cls-10"
      d="M92.58,73.12c0,.3,0,1.33,0,1.62-2-.57-4.2-1.63-6.51-1.63-2.3,0-4.5-.19-6.51.38-.01-.29,0-.09,0-.39.01-8.58,2.93-15.53,6.53-15.53,2.22,0,4.19,2.67,5.35,6.73l-4.68,3.54,5.46.05c.24,1.63.37,3.38.36,5.22Z" />
    <path class="cls-3" d="M75.17,74.71c2.53-1.02,5.49-1.61,8.66-1.61,3.17,0,6.13.6,8.65,1.63" />
    <path class="cls-7"
      d="M66.61,73.09c0,.54-.01,1.09-.04,1.62-.68-.28-1.4-.53-2.15-.74-2-.57-4.19-.89-6.5-.89-2.31,0-4.5.31-6.5.87-.75.21-1.47.46-2.16.74-.02-.53-.03-1.08-.03-1.62.01-9.88,3.92-17.88,8.71-17.87,4.8,0,8.68,8.02,8.67,17.9Z" />
    <path class="cls-8"
      d="M66.68,73.09c0,.3,0,1.33,0,1.62-2-.57-4.2-1.63-6.51-1.63s-4.5-.19-6.51.38c-.01-.29,0-.09,0-.39.01-8.58,2.93-15.53,6.53-15.53,2.22,0,4.19,2.67,5.35,6.73l-4.68,3.54,5.46.05c.24,1.63.37,3.38.36,5.22Z" />
    <path class="cls-5" d="M49.27,74.68c2.53-1.02,5.49-1.61,8.66-1.61,3.17,0,6.13.6,8.65,1.63" />
    <path class="cls-2" d="M57.16,85.23c3.11,4.16,8.08,6.85,13.67,6.86,5.59,0,10.56-2.67,13.69-6.82" />
    <path class="cls-6" d="M58.11,81.96c0,2.52-2.05,4.55-4.56,4.55" />
    <path class="cls-4" d="M83.21,81.99c0,2.52,2.03,4.56,4.55,4.56" />
    <path class="cls-1"
      d="M53.9,80.44c0,1.54-1.25,2.78-2.79,2.78-1.54,0-2.78-1.25-2.78-2.79,0-1.54,1.25-2.78,2.79-2.78,1.54,0,2.78,1.25,2.78,2.79Z" />
    <path class="cls-14"
      d="M93,80.49c0,1.54-1.25,2.78-2.79,2.78-1.54,0-2.79-1.25-2.78-2.79,0-1.54,1.25-2.78,2.79-2.78,1.54,0,2.79,1.25,2.78,2.79Z" />
  </g>
</svg>