<?xml version="1.0" encoding="UTF-8"?>
<svg id="Capa_2" xmlns="http://www.w3.org/2000/svg" xmlns:xlink="http://www.w3.org/1999/xlink"
  viewBox="0 0 191.65 118.43">
  <defs>
    <style>
      .cls-1 {
        stroke: url(#Degradado_sin_nombre_8-3);
      }

      .cls-1,
      .cls-2,
      .cls-3,
      .cls-4 {
        fill: none;
        stroke-linecap: round;
        stroke-linejoin: round;
        stroke-width: 3px;
      }

      .cls-5 {
        fill: url(#Degradado_sin_nombre_16);
      }

      .cls-6 {
        fill: url(#Degradado_sin_nombre_12-3);
      }

      .cls-7 {
        fill: url(#Degradado_sin_nombre_12-4);
      }

      .cls-8 {
        fill: url(#Degradado_sin_nombre_15-2);
      }

      .cls-2 {
        stroke: url(#Degradado_sin_nombre_8);
      }

      .cls-9 {
        fill: url(#Degradado_sin_nombre_2-4);
      }

      .cls-10 {
        fill: url(#Degradado_sin_nombre_2);
      }

      .cls-11 {
        fill: url(#Degradado_sin_nombre_17);
      }

      .cls-3 {
        stroke: url(#Degradado_sin_nombre_8-2);
      }

      .cls-12 {
        fill: url(#Degradado_sin_nombre_2-5);
      }

      .cls-13 {
        fill: url(#Degradado_sin_nombre_15-3);
      }

      .cls-14 {
        fill: url(#Degradado_sin_nombre_2-3);
      }

      .cls-15 {
        fill: url(#Degradado_sin_nombre_12-5);
      }

      .cls-16 {
        fill: url(#Degradado_sin_nombre_12-2);
      }

      .cls-4 {
        stroke: url(#Degradado_sin_nombre_8-4);
      }

      .cls-17 {
        fill: url(#Degradado_sin_nombre_15);
      }

      .cls-18 {
        fill: url(#Degradado_sin_nombre_17-2);
      }

      .cls-19 {
        fill: url(#Degradado_sin_nombre_2-2);
      }

      .cls-20 {
        fill: url(#Degradado_sin_nombre_12-6);
      }

      .cls-21 {
        fill: url(#Degradado_sin_nombre_12);
      }
    </style>
    <linearGradient id="Degradado_sin_nombre_2" x1="95.82" y1="117.09" x2="95.82" y2="4.24"
      gradientUnits="userSpaceOnUse">
      <stop offset="0" stop-color="#c9ccd1" />
      <stop offset="1" stop-color="#fff" />
    </linearGradient>
    <linearGradient id="Degradado_sin_nombre_12" x1="95.82" y1="113.87" x2="95.82" y2="-1.39"
      gradientUnits="userSpaceOnUse">
      <stop offset="0" stop-color="#1f1f1f" />
      <stop offset="1" stop-color="#0a0a0a" />
    </linearGradient>
    <linearGradient id="Degradado_sin_nombre_15" x1="87.64" y1="25.41" x2="110.91" y2="25.41"
      gradientTransform="translate(-1.16 -12.65) rotate(.29)" gradientUnits="userSpaceOnUse">
      <stop offset="0" stop-color="#fb00ff" />
      <stop offset="1" stop-color="#ff0062" />
    </linearGradient>
    <linearGradient id="Degradado_sin_nombre_17" x1="4531.54" y1="1707.62" x2="4499.91" y2="1635.99"
      gradientTransform="translate(4622.26 1800.81) rotate(-138.12) scale(1 -1)" gradientUnits="userSpaceOnUse">
      <stop offset="0" stop-color="#1e00ff" />
      <stop offset="1" stop-color="#c60eff" />
    </linearGradient>
    <linearGradient id="Degradado_sin_nombre_12-2" x1="4489.04" y1="1669.31" x2="4543" y2="1669.31"
      gradientTransform="translate(4622.26 1800.81) rotate(-138.12) scale(1 -1)"
      xlink:href="#Degradado_sin_nombre_12" />
    <linearGradient id="Degradado_sin_nombre_17-2" x1="451.26" y1="-1914.02" x2="419.63" y2="-1985.66"
      gradientTransform="translate(1007.43 1782.71) rotate(-41.29)" xlink:href="#Degradado_sin_nombre_17" />
    <linearGradient id="Degradado_sin_nombre_12-3" x1="408.75" y1="-1952.33" x2="462.72" y2="-1952.33"
      gradientTransform="translate(1007.43 1782.71) rotate(-41.29)" xlink:href="#Degradado_sin_nombre_12" />
    <linearGradient id="Degradado_sin_nombre_16" x1="97.2" y1="124.24" x2="97.2" y2="29.61"
      gradientTransform="translate(-1.16 -12.65) rotate(.29)" gradientUnits="userSpaceOnUse">
      <stop offset="0" stop-color="#3700ff" />
      <stop offset="1" stop-color="#ff00e6" />
    </linearGradient>
    <linearGradient id="Degradado_sin_nombre_2-2" x1="87.11" y1="64.34" x2="75.13" y2="47.56"
      gradientTransform="translate(-1.16 -12.65) rotate(.29)" xlink:href="#Degradado_sin_nombre_2" />
    <linearGradient id="Degradado_sin_nombre_12-4" x1="84.03" y1="60.02" x2="77.98" y2="51.55"
      gradientTransform="translate(-1.16 -12.65) rotate(.29)" xlink:href="#Degradado_sin_nombre_12" />
    <linearGradient id="Degradado_sin_nombre_12-5" x1="95.66" y1="71.51" x2="95.66" y2="60.52"
      xlink:href="#Degradado_sin_nombre_12" />
    <linearGradient id="Degradado_sin_nombre_8" x1="95.71" y1="91.31" x2="98.71" y2="91.31"
      gradientTransform="translate(-1.16 -12.65) rotate(.29)" gradientUnits="userSpaceOnUse">
      <stop offset="0" stop-color="#141414" />
      <stop offset="1" stop-color="#141414" />
    </linearGradient>
    <linearGradient id="Degradado_sin_nombre_8-2" x1="85.31" y1="103.51" x2="109.21" y2="103.51"
      xlink:href="#Degradado_sin_nombre_8" />
    <linearGradient id="Degradado_sin_nombre_8-3" x1="72.5" y1="68.96" x2="88.93" y2="68.96"
      xlink:href="#Degradado_sin_nombre_8" />
    <linearGradient id="Degradado_sin_nombre_2-3" x1="119.85" y1="64.17" x2="107.86" y2="47.39"
      gradientTransform="translate(-1.16 -12.65) rotate(.29)" xlink:href="#Degradado_sin_nombre_2" />
    <linearGradient id="Degradado_sin_nombre_12-6" x1="116.77" y1="59.85" x2="110.72" y2="51.39"
      gradientTransform="translate(-1.16 -12.65) rotate(.29)" xlink:href="#Degradado_sin_nombre_12" />
    <linearGradient id="Degradado_sin_nombre_8-4" x1="105.24" y1="68.79" x2="121.67" y2="68.79"
      xlink:href="#Degradado_sin_nombre_8" />
    <linearGradient id="Degradado_sin_nombre_15-2" x1="54.48" y1="99.4" x2="57.55" y2="69.35"
      xlink:href="#Degradado_sin_nombre_15" />
    <linearGradient id="Degradado_sin_nombre_15-3" x1="137.32" y1="98.48" x2="140.46" y2="67.82"
      xlink:href="#Degradado_sin_nombre_15" />
    <linearGradient id="Degradado_sin_nombre_2-4" x1="55.98" y1="37.79" x2="85.6" y2="18.77"
      xlink:href="#Degradado_sin_nombre_2" />
    <linearGradient id="Degradado_sin_nombre_2-5" x1="56.77" y1="39" x2="86.38" y2="19.99"
      xlink:href="#Degradado_sin_nombre_2" />
  </defs>
  <g id="OBJECTS">
    <path class="cls-10"
      d="M111.22,118.43c-4.93-.03-10.12-.65-15.84-1.92-5.73,1.21-10.92,1.79-15.85,1.76-4.15-.02-8.15-.49-11.88-1.39-12.89-3.1-23.18-11.87-26.83-22.88-.94-2.83-1.5-5.9-1.7-9.39-.23-3.83,0-7.61.22-11.26.05-.73.09-1.44.13-2.14.09-1.48.16-2.95.23-4.43.2-4.26.41-8.66.98-13.05.87-6.64,2.37-11.92,4.73-16.63,1.24-2.49,2.77-4.86,4.55-7.11-.66-.05-1.3-.08-1.91-.08-.19,0-.38,0-.57,0-1.85.03-3.59.24-5.16.64-1.29.32-2.57.86-3.92,1.65l-.66.4c-.38.3-.74.56-1.09.82-.04.04-.2.19-.21.19-.21.2-.42.39-.64.58l-.21.18-.29.31c-.15.17-.34.37-.53.57-.12.12-.2.21-.28.29l-.83,1.07s-.16.2-.26.32l-.34.52-1.1,1.64c-3.27,4.89-8.73,7.79-14.62,7.76-3.43-.02-6.75-1.04-9.61-2.95C-.25,38.55-2.41,27.68,2.94,19.68c.57-.85,1.26-1.71,2.01-2.48l1.93-1.98.99-1c.32-.32.67-.63,1.02-.93l.29-.25s2.31-1.98,2.35-2c.62-.49,1.27-.96,1.91-1.41l1.76-1.25c.13-.09.25-.17.38-.25l1.22-.73.75-.44c.62-.37,1.32-.78,2.1-1.18.98-.48,1.87-.9,2.76-1.31.52-.26,1.15-.49,1.65-.68l1.45-.53c4.28-1.49,8.52-2.34,12.66-2.56.99-.05,2-.08,3.01-.07,2.91.01,5.89.28,8.86.8,3.48.6,6.97,1.55,10.66,2.92,3.14,1.17,6.31,2.61,9.42,4.27,2.2,1.18,4.42,2.5,6.59,3.93,2.04-.63,4.11-1.16,6.18-1.58,2.74-5.07,7.38-9.01,12.69-10.68C96.19.09,96.8,0,97.43,0c1.93.01,3.73.94,4.85,2.51,2.06-1.05,4.28-1.74,6.56-2.06.28-.04.57-.06.84-.06,2.39.01,4.55,1.44,5.49,3.65,1.06,2.48.32,5.38-1.79,7.06-.33.26-.64.55-.94.85.89.24,1.77.5,2.64.78,2.2-1.41,4.42-2.7,6.64-3.86,3.14-1.64,6.32-3.05,9.47-4.18,3.7-1.33,7.2-2.25,10.7-2.82,2.96-.48,5.94-.72,8.85-.71,1.01,0,2.02.04,3.02.11,4.12.26,8.33,1.15,12.52,2.65l1.54.58c.51.19,1.13.43,1.8.78.72.34,1.61.77,2.5,1.21.86.44,1.55.86,2.15,1.23l.7.42,1.28.79c.12.08.24.16.36.24l1.14.83.64.47c.63.46,1.26.92,1.86,1.41.05.04,2.26,1.97,2.26,1.97l.38.33c.33.29.68.61,1,.93l.95.97,1.92,2.01c.76.8,1.45,1.67,2.01,2.52,5.27,8.06,3,18.9-5.05,24.17-2.88,1.88-6.21,2.87-9.64,2.85-5.88-.03-11.32-2.99-14.53-7.91l-1.04-1.59-.37-.59c-.1-.13-.21-.27-.32-.41l-.75-.99c-.09-.1-.17-.19-.26-.28-.2-.22-.39-.41-.57-.62l-.25-.28-.29-.26c-.13-.11-.34-.31-.55-.51,0,0-.16-.16-.21-.2-.37-.27-.73-.55-1.09-.83l-.73-.45c-1.28-.76-2.53-1.31-3.8-1.63-1.59-.42-3.32-.65-5.14-.69-.22,0-.41-.01-.6-.01-.61,0-1.25.02-1.91.06,1.76,2.26,3.26,4.66,4.48,7.16,2.31,4.73,3.76,10.02,4.56,16.67.52,4.41.69,8.81.85,13.07.06,1.48.11,2.95.18,4.42l.1,2.05c.19,3.73.38,7.52.11,11.37-.24,3.48-.83,6.54-1.8,9.36-3.77,10.98-14.14,19.64-27.06,22.61-3.73.86-7.73,1.29-11.89,1.26Z" />
    <path class="cls-21"
      d="M111.23,115.43c-4.89-.02-10.08-.68-15.83-2-5.77,1.26-10.96,1.86-15.85,1.83-3.92-.02-7.69-.46-11.19-1.3-11.89-2.86-21.35-10.87-24.69-20.91-.86-2.58-1.36-5.4-1.55-8.62-.22-3.66,0-7.35.22-10.92.04-.71.09-1.42.13-2.13.09-1.48.16-2.97.23-4.46.2-4.2.41-8.55.96-12.81.82-6.29,2.23-11.27,4.44-15.67,1.92-3.84,4.55-7.39,7.84-10.58-.66-.15-1.31-.27-1.96-.39-2.12-.37-4.1-.57-5.91-.58-.22,0-.43,0-.65,0-2.08.03-4.03.27-5.83.73-1.57.39-3.1,1.03-4.71,1.97l-.85.51c-.44.34-.83.64-1.23.92-.14.11-.27.24-.4.36-.18.17-.36.33-.54.49l-.37.33-.39.43c-.15.16-.31.34-.48.52-.14.15-.28.29-.41.45l-.89,1.14c-.06.08-.32.4-.32.4l-.43.66-1.07,1.61c-2.71,4.05-7.23,6.45-12.1,6.43-2.84-.01-5.59-.86-7.95-2.44-6.63-4.43-8.41-13.43-3.98-20.05.47-.71,1.05-1.42,1.67-2.06l1.92-1.96.97-.98c.26-.26.55-.52.85-.77l.31-.27s2.22-1.89,2.25-1.92c.57-.45,1.18-.89,1.78-1.32l1.76-1.25c.06-.04.12-.08.19-.12l1.22-.73.72-.43c.61-.36,1.24-.74,1.93-1.09.92-.45,1.8-.86,2.67-1.26.46-.23.97-.42,1.43-.59l1.45-.53c3.98-1.38,7.93-2.18,11.78-2.38.93-.05,1.89-.08,2.84-.07,2.74.01,5.56.27,8.36.76,3.3.57,6.62,1.47,10.13,2.78,3.01,1.12,6.06,2.5,9.05,4.11,2.53,1.36,5.07,2.9,7.55,4.58,2.84-.95,5.75-1.69,8.67-2.22,2.23-4.96,6.53-8.9,11.57-10.49.3-.1.61-.14.92-.14.98,0,1.92.49,2.48,1.33.57.84.66,1.9.29,2.8.1.02.21.04.31.07,2.52-2,5.57-3.35,8.76-3.78.14-.02.28-.03.42-.03,1.18,0,2.27.71,2.75,1.82.53,1.24.17,2.69-.89,3.53-1.69,1.34-3.03,3.14-3.89,5.14,2.68.54,5.32,1.26,7.89,2.15,2.5-1.66,5.06-3.18,7.6-4.51,3.01-1.58,6.07-2.93,9.09-4.01,3.52-1.27,6.85-2.15,10.16-2.68,2.8-.46,5.62-.68,8.36-.67.95,0,1.9.04,2.84.1,3.84.24,7.78,1.08,11.7,2.48l1.49.56c.45.17.97.37,1.5.64.79.37,1.66.8,2.53,1.23.73.38,1.35.76,1.96,1.12l.68.41,1.26.77c.06.04.12.08.18.12l1.14.82.62.46c.59.43,1.19.87,1.75,1.33.03.02,2.17,1.89,2.17,1.89l.35.31c.29.26.58.51.84.78l.95.97,1.91,1.99c.63.67,1.2,1.38,1.66,2.09,4.36,6.67,2.49,15.65-4.18,20.01-2.38,1.56-5.14,2.37-7.98,2.36h0c-4.87-.02-9.37-2.47-12.04-6.55l-1.04-1.59-.44-.7-.08-.1c-.09-.11-.17-.22-.26-.33l-.84-1.11c-.13-.16-.27-.3-.41-.45-.17-.18-.33-.36-.49-.54l-.37-.41-.41-.37c-.14-.12-.32-.29-.5-.46-.13-.13-.26-.26-.4-.37-.39-.29-.78-.58-1.17-.89-.04-.03-.08-.06-.12-.1l-.07-.03-.75-.46c-1.55-.93-3.08-1.59-4.64-1.99-1.8-.47-3.76-.74-5.82-.79-.23,0-.44-.01-.66-.01-1.8,0-3.79.16-5.91.51-.65.11-1.3.23-1.97.37,3.26,3.22,5.85,6.79,7.73,10.66,2.16,4.42,3.52,9.41,4.28,15.71.51,4.27.67,8.62.83,12.83.06,1.49.11,2.97.18,4.45.03.71.07,1.42.1,2.13.18,3.58.37,7.27.11,10.94-.22,3.22-.76,6.03-1.64,8.6-3.43,10-12.97,17.92-24.89,20.66-3.51.81-7.28,1.21-11.2,1.19Z" />
    <path class="cls-17"
      d="M99.25,12.94c-.25-.95-.11-2,.38-2.85-1.61.31-3.07,1.31-3.92,2.71-.5-2.36.14-4.94,1.69-6.79-6.17,1.95-10.82,8-11.09,14.47l17.31-2.68c.34-4.41,2.58-8.64,6.04-11.39-4.18.57-8.07,3.02-10.41,6.54Z" />
    <path class="cls-11"
      d="M115.6,32.94s.17-.08.29-.15l.41-.23.84-.47c.58-.31,1.16-.62,1.75-.92,1.18-.59,2.38-1.17,3.59-1.7,2.42-1.07,4.88-2,7.35-2.77,2.47-.77,4.94-1.37,7.38-1.77,2.44-.4,4.85-.61,7.14-.54,2.3.06,4.48.35,6.49.88,2.02.52,3.82,1.36,5.47,2.35l.61.38c.2.12.41.24.6.4.38.3.76.59,1.14.87.38.3.72.66,1.08.98l.53.48.5.56c.33.37.67.71.99,1.09l.92,1.21c.15.2.32.38.46.6l.42.66.85,1.3.19.29c3.46,5.29,10.56,6.78,15.85,3.32,5.29-3.46,6.78-10.56,3.32-15.85-.38-.58-.85-1.17-1.32-1.66l-1.89-1.97-.95-.97c-.31-.32-.68-.62-1.02-.93l-2.09-1.82c-.72-.58-1.5-1.13-2.25-1.68l-1.13-.82-1.21-.75c-.82-.48-1.6-.99-2.45-1.43-.85-.42-1.71-.84-2.56-1.24-.42-.21-.87-.38-1.31-.55l-1.33-.5c-3.56-1.28-7.26-2.08-10.88-2.31-3.63-.24-7.16-.01-10.53.54-3.38.54-6.58,1.44-9.62,2.54-3.05,1.1-5.95,2.4-8.72,3.85-2.77,1.45-5.41,3.05-7.96,4.77-1.27.86-2.51,1.75-3.74,2.68-.61.46-1.22.94-1.82,1.42l-.91.75-1.03.88c-2.28,1.81-2.66,5.11-.86,7.39,1.81,2.28,5.11,2.66,7.39.86Z" />
    <path class="cls-16"
      d="M113.86,30.75l.78-.51.86-.54c.58-.36,1.17-.71,1.77-1.05,1.19-.68,2.4-1.34,3.63-1.96,2.45-1.24,4.96-2.35,7.51-3.3,2.55-.95,5.14-1.74,7.74-2.32,2.6-.59,5.22-.98,7.8-1.07,2.58-.1,5.13.05,7.57.5,2.45.44,4.75,1.27,6.91,2.34l.8.41c.27.14.54.26.79.44l1.52.97c.5.33.96.74,1.44,1.1l.71.55.67.63c.44.42.9.81,1.32,1.25l1.23,1.37c.2.23.42.44.61.69l.56.75,1.13,1.48.23.3c1.79,2.35,5.14,2.8,7.48,1.01,2.35-1.79,2.8-5.14,1.01-7.48-.09-.11-.18-.23-.28-.34l-1.61-1.79-.81-.89c-.27-.3-.58-.56-.87-.84l-1.78-1.66c-.62-.53-1.28-1.02-1.91-1.53l-.96-.75-1.03-.68c-.7-.44-1.36-.91-2.08-1.31l-2.18-1.15c-.36-.2-.74-.35-1.12-.51l-1.14-.47c-3.05-1.2-6.25-2.02-9.44-2.32-3.2-.31-6.37-.23-9.46.16-3.09.38-6.08,1.1-8.96,2.01-2.89.91-5.67,2.03-8.36,3.3-2.69,1.27-5.29,2.69-7.79,4.23-1.26.77-2.49,1.58-3.7,2.42-.61.42-1.21.85-1.8,1.29l-.89.67-.45.35-.5.4c-1.06.85-1.23,2.4-.38,3.46.8,1,2.21,1.21,3.26.53l.19-.12Z" />
    <path class="cls-18"
      d="M76.01,32.74s-.16-.08-.28-.15l-.4-.24-.84-.48c-.57-.32-1.15-.63-1.74-.93-1.17-.61-2.36-1.19-3.57-1.73-2.41-1.09-4.86-2.05-7.32-2.84-2.46-.79-4.93-1.42-7.37-1.85-2.43-.43-4.84-.66-7.14-.62-2.3.03-4.48.31-6.5.81-2.02.5-3.84,1.32-5.5,2.29l-.62.38c-.21.12-.41.24-.6.4-.38.3-.77.58-1.15.86-.38.29-.72.65-1.09.96l-.54.48-.5.55c-.33.37-.68.7-1,1.08l-.93,1.2c-.15.2-.32.38-.46.6l-.43.66-.86,1.29-.19.29c-3.52,5.26-10.63,6.67-15.89,3.15-5.26-3.52-6.67-10.63-3.15-15.89.39-.58.87-1.16,1.33-1.64l1.91-1.95.96-.96c.32-.32.69-.62,1.03-.92l2.1-1.8c.73-.58,1.51-1.11,2.27-1.66l1.14-.81,1.22-.73c.82-.48,1.61-.98,2.46-1.41.86-.42,1.72-.82,2.57-1.22.42-.21.87-.37,1.32-.54l1.34-.49c3.57-1.24,7.28-2.01,10.91-2.2,3.63-.2,7.16.06,10.52.65,3.37.58,6.56,1.51,9.6,2.64,3.04,1.13,5.92,2.46,8.68,3.94,2.76,1.48,5.38,3.1,7.91,4.85,1.26.87,2.5,1.78,3.71,2.72.61.47,1.21.95,1.81,1.44l.9.76,1.02.89c2.26,1.83,2.61,5.14.78,7.4s-5.14,2.61-7.4.78Z" />
    <path class="cls-6"
      d="M77.77,30.56l-.78-.52-.86-.55c-.58-.36-1.16-.72-1.76-1.07-1.18-.69-2.39-1.37-3.61-1.99-2.44-1.26-4.94-2.4-7.48-3.37-2.54-.97-5.12-1.79-7.71-2.4-2.59-.61-5.21-1.03-7.79-1.15-2.58-.13-5.13,0-7.57.43-2.45.42-4.77,1.23-6.94,2.27l-.81.41c-.27.13-.54.26-.79.43l-1.53.96c-.5.33-.97.73-1.45,1.08l-.72.54-.67.62c-.44.42-.91.8-1.34,1.24l-1.24,1.36c-.2.23-.43.44-.61.68l-.57.74-1.14,1.47-.23.3c-1.81,2.33-5.17,2.75-7.49.94-2.33-1.81-2.75-5.17-.94-7.49.09-.11.19-.23.28-.33l1.63-1.78.82-.88c.27-.29.59-.56.88-.84l1.79-1.64c.62-.52,1.29-1.01,1.93-1.51l.97-.74,1.04-.66c.7-.43,1.37-.9,2.1-1.29l2.2-1.12c.36-.2.74-.34,1.13-.5l1.14-.46c3.06-1.17,6.27-1.95,9.47-2.23,3.2-.28,6.37-.16,9.45.26,3.08.41,6.07,1.16,8.94,2.1,2.88.94,5.65,2.09,8.33,3.38,2.68,1.3,5.26,2.74,7.75,4.31,1.25.78,2.47,1.61,3.67,2.45.6.43,1.2.86,1.79,1.31l.88.68.44.35.49.4c1.05.86,1.21,2.41.35,3.46-.81.99-2.22,1.18-3.26.49l-.18-.12Z" />
    <path class="cls-5"
      d="M145.97,84.77c-.18,2.67-.62,5.3-1.49,7.83-3.33,9.69-12.74,16.41-22.72,18.71-8.65,1.99-17.67,1.09-26.35-.96-8.7,1.96-17.72,2.77-26.35.69-9.97-2.4-19.31-9.22-22.54-18.94-.84-2.54-1.25-5.18-1.41-7.85-.26-4.19.11-8.48.34-12.7.33-5.64.44-11.43,1.17-17.05.67-5.12,1.83-10.09,4.15-14.71,4.02-8.03,11.21-14.18,19.27-18.16.57-.29,1.15-.56,1.73-.83,15.28-6.91,32.98-6.82,48.19.25.58.27,1.15.55,1.73.84,8,4.06,15.14,10.29,19.07,18.35,2.27,4.64,3.38,9.63,4,14.75.67,5.63.72,11.41,1,17.06.19,4.22.51,8.52.21,12.71Z" />
    <path class="cls-19"
      d="M85.88,43.43c-.03,6.5-2.94,11.75-6.49,11.73-3.55-.02-6.41-5.3-6.37-11.8.03-6.5,2.94-11.75,6.49-11.73,3.55.02,6.41,5.3,6.37,11.8Z" />
    <path class="cls-7"
      d="M82.69,43.41c-.02,3.28-1.49,5.92-3.28,5.91-1.79,0-3.23-2.67-3.21-5.95,0-.37.02-.73.07-1.09l3.18-.66-2.88-.96c.54-1.92,1.65-3.22,2.9-3.22,1.79,0,3.24,2.67,3.22,5.96Z" />
    <path class="cls-15"
      d="M99.32,69.72c-1.65,2.83-5.75,2.81-7.38-.04l-1.32-2.31-1.32-2.31c-1.62-2.85.44-6.39,3.72-6.37h2.66s2.66.03,2.66.03c3.28.02,5.31,3.58,3.66,6.41l-1.34,2.3-1.34,2.3Z" />
    <line class="cls-2" x1="95.64" y1="68.78" x2="95.53" y2="89.55" />
    <path class="cls-3" d="M85.11,93.12s10.33-8.1,20.9.11" />
    <path class="cls-1" d="M72.5,54.15s6.84,11.48,13.43.07" />
    <path class="cls-14"
      d="M118.61,43.43c-.03,6.5-2.94,11.75-6.49,11.73-3.55-.02-6.41-5.3-6.37-11.8.03-6.5,2.94-11.75,6.49-11.73,3.55.02,6.41,5.3,6.37,11.8Z" />
    <path class="cls-20"
      d="M115.43,43.41c-.02,3.28-1.49,5.92-3.28,5.91-1.79,0-3.23-2.67-3.21-5.95,0-.37.02-.73.07-1.09l3.18-.66-2.88-.96c.54-1.92,1.65-3.22,2.9-3.22,1.79,0,3.24,2.67,3.22,5.96Z" />
    <path class="cls-4" d="M105.24,54.15s6.84,11.48,13.43.07" />
    <path class="cls-8"
      d="M62.73,77.41c-3,5.96-10.31,8.59-17.62,6.84-.26-4.19.11-8.48.34-12.7.33-5.64.44-11.43,1.17-17.05,2.37.22,4.79.9,7.12,2.07,8.58,4.31,12.6,13.64,8.98,20.84Z" />
    <path class="cls-13"
      d="M145.97,84.77c-7.33,1.68-14.61-1.03-17.54-7.02-3.54-7.24.57-16.53,9.19-20.75,2.34-1.15,4.78-1.81,7.15-2,.67,5.63.72,11.41,1,17.06.19,4.22.51,8.52.21,12.71Z" />
    <path class="cls-9"
      d="M58.54,33.98c-.71.83-1.4,1.75-1.57,2.83-.17,1.08.39,2.35,1.45,2.62.97.25,1.93-.39,2.74-.99,1.86-1.39,3.73-2.78,5.59-4.17,2.26-1.68,4.51-3.37,6.77-5.05,1.31-.98,3.44-2.97,1.91-4.71-1.36-1.55-3.85-.25-5.27.45-4.43,2.18-8.41,5.27-11.61,9.03Z" />
    <path class="cls-12"
      d="M80.21,20.67c-.63.38-1.24.86-1.56,1.53-.32.67-.26,1.56.29,2.05.45.4,1.11.46,1.71.46,1.14,0,2.28-.14,3.39-.41.71-.17,1.42-.41,2.02-.83,1.32-.92,1.9-3.3.08-3.99-1.76-.67-4.43.29-5.93,1.19Z" />
  </g>
</svg>