<?xml version="1.0" encoding="UTF-8"?>
<svg id="Capa_2" xmlns="http://www.w3.org/2000/svg" xmlns:xlink="http://www.w3.org/1999/xlink"
  viewBox="0 0 128.65 87.02">
  <defs>
    <style>
      .cls-1 {
        fill: url(#Degradado_sin_nombre_3);
      }

      .cls-2 {
        fill: url(#Degradado_sin_nombre_27);
      }
    </style>
    <linearGradient id="Degradado_sin_nombre_27" x1="64.32" y1="8.72" x2="64.32" y2="68" gradientUnits="userSpaceOnUse">
      <stop offset="0" stop-color="#e0fdff" />
      <stop offset="1" stop-color="#f5ffff" />
    </linearGradient>
    <linearGradient id="Degradado_sin_nombre_3" x1="64.34" y1="15.3" x2="64.34" y2="63.36"
      gradientUnits="userSpaceOnUse">
      <stop offset="0" stop-color="#0087ff" />
      <stop offset="1" stop-color="#00f2ff" />
    </linearGradient>
  </defs>
  <g id="OBJECTS">
    <path class="cls-2"
      d="M100.09,87.02c-4.23,0-8.46-1.08-12.23-3.13-3.18-1.73-5.73-3.91-7.56-6.39-1,.18-2.01.27-3.04.27-1.21,0-2.41-.13-3.58-.38-.97-.21-1.9-.48-2.78-.79-1.57,1.88-3.44,3.56-5.56,4.97-4.96,3.29-11.13,5.04-17.85,5.04h-1.02c-9.44-.26-18-4-23.48-10.26-3.31-3.79-5.41-7.95-6.27-12.12-3.55-.49-6.87-1.91-9.58-4.12C.34,54.53-1.93,44.72,1.75,36.75c2.19-4.76,6.4-8.43,11.33-10.2.63-6.82,3.4-13.09,7.96-17.71C26.1,3.73,33.14.79,40.33.79c2.99,0,5.89.51,8.61,1.52,5.06,1.87,9.26,5.46,12.06,9.88.65-.2,1.32-.36,2.02-.47.78-.13,1.58-.19,2.38-.19,1.1,0,2.18.12,3.22.34,3.77-5.3,9.33-9.44,15.51-11.05,2.07-.54,4.24-.81,6.43-.81,8.71,0,17.15,4.33,22.02,11.3,3.37,4.81,4.93,10.66,4.67,16.44,1.57.58,3.07,1.4,4.46,2.44,6.37,4.77,8.72,13.85,5.46,21.12-1.27,2.83-3.32,5.23-5.83,7,1.25,4.57,1.44,9.36.46,12.85-1.93,6.85-7.49,12.5-14.51,14.75-2.3.74-4.73,1.11-7.21,1.11h0Z" />
    <path class="cls-1"
      d="M109.42,53.19c4.07.83,8.55-1.48,10.25-5.26,1.7-3.79.44-8.67-2.89-11.16-3.32-2.49-7.72-2.52-10.88.18,4.22-6.11,4.19-14.84-.06-20.93-4.26-6.08-12.45-9.1-19.64-7.24-7.18,1.87-13.5,8.98-14.25,16.37-.11-3.49-4.14-5.88-7.59-5.31-3.45.57-6,3.65-7.96,6.55.87-6.9-3.78-13.94-10.31-16.35-6.52-2.41-14.31-.34-19.2,4.6-4.89,4.94-6.51,12.3-5.37,19.16-4.9-.89-10.22,1.88-12.3,6.4-2.08,4.52-.73,10.37,3.12,13.51,3.86,3.15,9.86,3.3,13.86.35-3.42,5.55-1.32,11.94,2.98,16.85,4.29,4.91,10.98,7.26,17.5,7.44,4.93.13,9.99-.93,14.09-3.65,4.11-2.73,7.15-7.25,7.44-12.17.2,3.98,3.32,5.96,7.21,6.81,3.9.85,8.25-1.18,10.09-4.71-1.54,5.22,1.47,9.44,6.25,12.03,3.94,2.14,8.74,2.79,13,1.42,4.27-1.37,7.88-4.84,9.1-9.15,1.22-4.31-.99-12.9-4.47-15.73Z" />
  </g>
</svg>