<?xml version="1.0" encoding="UTF-8"?>
<svg id="Capa_2" xmlns="http://www.w3.org/2000/svg" xmlns:xlink="http://www.w3.org/1999/xlink"
  viewBox="0 0 98.31 106.3">
  <defs>
    <style>
      .cls-1 {
        fill: url(#Degradado_sin_nombre_2);
      }

      .cls-2 {
        fill: url(#Degradado_sin_nombre_7);
      }
    </style>
    <linearGradient id="Degradado_sin_nombre_2" x1="-137.12" y1="-608.53" x2="-172.26" y2="-738.27"
      gradientTransform="translate(299.38 714.56) rotate(-7.57)" gradientUnits="userSpaceOnUse">
      <stop offset="0" stop-color="#c9ccd1" />
      <stop offset="1" stop-color="#fff" />
    </linearGradient>
    <linearGradient id="Degradado_sin_nombre_7" x1="-147.78" y1="-643.58" x2="-170.6" y2="-733.67"
      gradientTransform="translate(299.38 714.56) rotate(-7.57)" gradientUnits="userSpaceOnUse">
      <stop offset="0" stop-color="#f80" />
      <stop offset="1" stop-color="#fffb00" />
    </linearGradient>
  </defs>
  <g id="OBJECTS">
    <path class="cls-1"
      d="M42.69,105.55c-6.9,2.4-14.37-1.06-17-7.87-1.3-3.36-1.22-7.03.24-10.32.43-.97.96-1.87,1.58-2.69-4.92-8.33-11.48-19.52-16.13-27.44-4.75-.62-8.98-3.84-10.66-8.66-2.36-6.79,1.25-14.24,8.04-16.6,6.79-2.36,14.24,1.25,16.6,8.04.09.25.16.5.24.75l2.29,1.17-.32-18.28c-2.13-1.52-3.81-3.7-4.72-6.32-2.36-6.79,1.25-14.24,8.04-16.6,6.79-2.36,14.24,1.25,16.6,8.04.65,1.86.86,3.79.65,5.67l12.43,15.51.8-2.44c-.57-.88-1.05-1.84-1.4-2.87-2.36-6.79,1.25-14.24,8.04-16.6,6.79-2.36,14.24,1.25,16.6,8.04,1.59,4.57.48,9.43-2.48,12.84l5.88,32.73c4.15,1,7.73,3.97,9.39,8.26,1.3,3.36,1.21,7.03-.24,10.32-1.46,3.3-4.11,5.83-7.47,7.13l-47,18.18Z" />
    <path class="cls-2"
      d="M70.69,15.76c-2.55.88-3.89,3.67-3.01,6.21.52,1.5,1.71,2.57,3.12,3.03l-7.18,21.8-24.63-30.73c1-1.27,1.36-2.99.79-4.63-.88-2.55-3.67-3.89-6.21-3.01-2.55.88-3.89,3.67-3.01,6.21.75,2.17,2.88,3.45,5.07,3.24l.66,37.47-18.65-9.5c.34-1,.39-2.1.01-3.18-.88-2.55-3.67-3.89-6.21-3.01-2.55.88-3.89,3.67-3.01,6.21.88,2.55,3.67,3.89,6.21,3.01.37-.13.71-.31,1.02-.51,5.5,9.39,17.26,29.46,22.74,38.65l-2.07.8c-2.74,1.06-4.11,4.15-3.04,6.89,1.04,2.68,4.01,4.05,6.71,3.11.06-.02.12-.04.18-.07l46.55-18.01c2.74-1.06,4.11-4.15,3.04-6.89-1.04-2.68-4.01-4.05-6.71-3.11-.06.02-.12.04-.18.07l-1.6.62-8.13-45.29c.25-.04.49-.09.73-.18,2.55-.88,3.89-3.67,3.01-6.21-.88-2.55-3.67-3.89-6.21-3.01Z" />
  </g>
</svg>