<?xml version="1.0" encoding="UTF-8"?><svg id="Capa_2" xmlns="http://www.w3.org/2000/svg" xmlns:xlink="http://www.w3.org/1999/xlink" viewBox="0 0 188.95 165.08"><defs><style>.cls-1{filter:url(#drop-shadow-2);}.cls-2{fill:#fff;}.cls-3,.cls-4{fill:#171717;}.cls-5{fill:url(#New_Gradient_Swatch_3);}.cls-6{filter:url(#drop-shadow-1);}.cls-7{fill:none;stroke:#171717;stroke-miterlimit:10;}.cls-7,.cls-4{font-family:Montserrat-BlackItalic, Montserrat;font-size:27.68px;font-style:italic;font-weight:800;}.cls-8{letter-spacing:-.02em;}</style><filter id="drop-shadow-1" x="-12.08" y="-13.17" width="219.12" height="195.36" filterUnits="userSpaceOnUse"><feOffset dx="3" dy="2"/><feGaussianBlur result="blur" stdDeviation="5"/><feFlood flood-color="#000" flood-opacity=".75"/><feComposite in2="blur" operator="in"/><feComposite in="SourceGraphic"/></filter><linearGradient id="New_Gradient_Swatch_3" x1="65.04" y1="212" x2="165.98" y2="32.63" gradientUnits="userSpaceOnUse"><stop offset="0" stop-color="#ff41ed"/><stop offset=".29" stop-color="#3f98f9"/><stop offset=".62" stop-color="#3cffd0"/><stop offset=".84" stop-color="#ff7e41"/><stop offset="1" stop-color="#ffe441"/></linearGradient><filter id="drop-shadow-2" x="45.28" y="69.95" width="105" height="108" filterUnits="userSpaceOnUse"><feOffset dx="3" dy="2"/><feGaussianBlur result="blur-2" stdDeviation="5"/><feFlood flood-color="#000" flood-opacity=".75"/><feComposite in2="blur-2" operator="in"/><feComposite in="SourceGraphic"/></filter></defs><g id="TEXTS"><g class="cls-6"><path class="cls-3" d="M5.37,164.7c-1.79,0-3.44-.95-4.33-2.5-.89-1.55-.89-3.45,0-5L90.14,2.87c.89-1.55,2.54-2.5,4.33-2.5s3.44.95,4.33,2.5l89.1,154.33c.89,1.55.89,3.45,0,5-.89,1.55-2.54,2.5-4.33,2.5H5.37Z"/><path class="cls-2" d="M183.58,165.08H5.37c-1.91,0-3.7-1.03-4.65-2.69-.96-1.66-.96-3.72,0-5.38L89.82,2.69c.96-1.66,2.74-2.69,4.65-2.69s3.7,1.03,4.65,2.69l89.1,154.33c.96,1.66.96,3.72,0,5.38-.96,1.66-2.74,2.69-4.66,2.69ZM94.47.75c-1.65,0-3.18.89-4.01,2.31L1.37,157.39c-.82,1.43-.82,3.2,0,4.62.82,1.43,2.36,2.31,4.01,2.31h178.2c1.65,0,3.18-.89,4-2.31.82-1.43.82-3.2,0-4.62L98.48,3.06c-.82-1.43-2.36-2.31-4.01-2.31Z"/><polygon class="cls-5" points="94.47 5.37 5.37 159.7 183.58 159.7 94.47 5.37"/><path class="cls-3" d="M113.78,54.25l-7.79,1.37c1.91-3.98,1.98-8.56.3-12.53l-5.08,6.05c-1.09-4.27-3.99-7.82-7.84-9.78v7.91c-3.58-2.58-8.08-3.44-12.29-2.47l5.08,6.05c-4.4.33-8.4,2.57-11,6.02l7.79,1.37c-3.16,3.08-4.79,7.36-4.56,11.68l6.84-3.95c-.44,4.39,1.08,8.72,4.02,11.87l2.7-7.43c2.49,3.65,6.42,6,10.71,6.52l-2.7-7.42c4.25,1.19,8.77.45,12.39-1.9l-6.84-3.95c4.02-1.81,7.01-5.29,8.27-9.42Z"/></g><g class="cls-1"><text class="cls-4" transform="translate(58.09 106.96)"><tspan class="cls-8" x="0" y="0">W</tspan><tspan x="32.74" y="0">EB</tspan></text><text class="cls-7" transform="translate(58.09 126.15)"><tspan class="cls-8" x="0" y="0">W</tspan><tspan x="32.74" y="0">EB</tspan></text><text class="cls-7" transform="translate(58.09 145.66)"><tspan class="cls-8" x="0" y="0">W</tspan><tspan x="32.74" y="0">EB</tspan></text></g></g></svg>