<?xml version="1.0" encoding="UTF-8"?><svg id="Capa_2" xmlns="http://www.w3.org/2000/svg" xmlns:xlink="http://www.w3.org/1999/xlink" viewBox="0 0 91.24 66.51"><defs><style>.cls-1{fill:#fff;}.cls-2{fill:url(#New_Gradient_Swatch_3-2);}.cls-3{fill:#171717;}.cls-4{fill:url(#New_Gradient_Swatch_3);}.cls-5{filter:url(#drop-shadow-1);}</style><filter id="drop-shadow-1" x="-12.1" y="-13" width="121.44" height="96.72" filterUnits="userSpaceOnUse"><feOffset dx="3" dy="2"/><feGaussianBlur result="blur" stdDeviation="5"/><feFlood flood-color="#000" flood-opacity=".75"/><feComposite in2="blur" operator="in"/><feComposite in="SourceGraphic"/></filter><linearGradient id="New_Gradient_Swatch_3" x1="16.62" y1="74.66" x2="72.53" y2="-15.45" gradientUnits="userSpaceOnUse"><stop offset="0" stop-color="#ff41ed"/><stop offset=".29" stop-color="#3f98f9"/><stop offset=".62" stop-color="#3cffd0"/><stop offset=".84" stop-color="#ff7e41"/><stop offset="1" stop-color="#ffe441"/></linearGradient><linearGradient id="New_Gradient_Swatch_3-2" x1="21.41" y1="77.63" x2="77.31" y2="-12.48" xlink:href="#New_Gradient_Swatch_3"/></defs><g id="OBJECTS"><g class="cls-5"><path class="cls-3" d="M90.8,4.16c-.02-.16-.05-.31-.09-.46-.01-.05-.02-.1-.04-.16,0-.01,0-.02-.01-.04,0,0,0-.01,0-.02-.05-.17-.12-.34-.2-.51-.02-.04-.03-.08-.05-.12,0-.02-.02-.04-.03-.06-.02-.04-.05-.06-.07-.1-.02-.04-.04-.07-.06-.1-.04-.07-.08-.13-.12-.2-.1-.15-.21-.3-.33-.44-.06-.07-.11-.13-.17-.19-.04-.05-.09-.09-.13-.14-.06-.05-.12-.1-.18-.15-.14-.12-.28-.23-.43-.33-.08-.06-.17-.1-.26-.15,0,0,0,0-.01,0-.05-.03-.09-.07-.15-.1-.03-.02-.07-.02-.1-.04-.02,0-.04-.02-.06-.03-.08-.03-.16-.05-.24-.08-.06-.02-.12-.05-.19-.07-.06-.02-.12-.05-.18-.07-.05-.01-.1-.02-.15-.04-.08-.02-.16-.03-.24-.04-.19-.04-.39-.07-.58-.08-.02,0-.05,0-.07,0-.03,0-.06-.01-.09-.01-6.87-.11-14.66-.24-21.93,2.15-.74.24-1.48.51-2.2.81-8.99,3.67-16,11.69-18.83,21.19-6.12-1.52-12.71-1.32-18.69.64-3.34,1.1-6.41,2.7-9.13,4.76-6.78,5.13-11.05,12.61-14.82,19.22,0,0,0,.01-.01.02,0,0,0,.02-.01.03-.04.08-.07.15-.11.23-.04.09-.09.17-.13.26-.02.05-.04.1-.06.16-.03.08-.05.16-.08.24-.02.06-.04.12-.06.18-.03.1-.04.21-.06.32-.01.08-.03.16-.04.24,0,.02,0,.03,0,.05,0,0,0,0,0,0,0,0,0,.02,0,.03-.02.2-.03.4-.02.6,0,.04,0,.08,0,.12,0,.06.02.11.02.17.01.15.04.29.07.44.01.05.01.11.03.16,0,.03.02.06.03.1.05.17.1.34.17.5.02.04.03.08.04.12,0,.01.01.03.02.04.08.18.18.36.29.53,0,0,.01.01.02.02.02.03.03.05.05.08.06.09.13.17.2.25.1.12.19.24.3.36.05.05.1.09.15.14.05.04.09.08.14.12.11.09.22.18.33.26.04.03.07.06.1.08,1.08.71,26.81,17.19,52.8,8.66,2.97-.97,5.86-2.26,8.59-3.81,28.01-15.96,27.21-52.75,27.12-55.19,0-.02,0-.03,0-.05,0-.08,0-.17-.02-.25,0-.08-.02-.15-.03-.22Z"/><path class="cls-1" d="M39.41,66.51c-19.9,0-36.41-10.6-37.27-11.17-.01,0-.08-.06-.09-.07-.15-.11-.27-.2-.38-.3l-.15-.13c-.05-.05-.11-.1-.16-.15-.12-.12-.22-.25-.33-.39l-.06-.08c-.05-.07-.11-.13-.15-.2l-.06-.09c-.14-.21-.24-.4-.33-.6-.04-.08-.05-.11-.06-.15-.08-.21-.15-.39-.2-.58,0,0-.03-.1-.03-.11,0-.01-.02-.11-.02-.13-.04-.2-.06-.36-.08-.52-.01-.1-.02-.14-.02-.18,0,0,0-.13,0-.13,0-.21,0-.43.02-.64h0s0-.08.01-.11c0-.04.02-.1.03-.16l.03-.16c.01-.09.03-.17.05-.25.01-.05.03-.1.04-.14.04-.14.07-.23.1-.31l.06-.17c.03-.07.06-.14.1-.21l.07-.15c.03-.06.06-.12.09-.18,3.81-6.67,8.09-14.19,14.94-19.37,2.76-2.09,5.87-3.71,9.24-4.82,5.86-1.92,12.44-2.18,18.55-.73,2.97-9.58,10.04-17.45,18.95-21.09.73-.3,1.47-.57,2.23-.82C71.86-.19,79.68-.06,86.58.05c.03,0,.1.01.12.02.26,0,.47.05.68.09.14.02.2.03.26.05l.16.04s.1.03.14.05c.1.04.15.06.19.08l.13.05c.06.02.12.04.18.06.02,0,.16.07.18.08.04.02.09.05.13.09.02.01.06.04.08.06.1.04.17.08.24.13.17.11.32.23.47.36.1.08.15.12.19.16l.13.13c.06.06.1.11.14.16.18.22.31.37.42.54.04.06.07.12.11.18,0,0,.09.15.09.15.01.02.06.08.07.1l.07.16c.1.22.17.4.23.59.03.1.04.14.05.19.05.21.09.38.11.55h0s-.37.05-.37.05h.38c0,.05.02.12.03.19,0,.09.01.18.02.28.06,1.65,1.05,39.42-27.31,55.57-2.75,1.57-5.66,2.86-8.65,3.84-5.37,1.76-10.72,2.47-15.85,2.47ZM1.08,52.98c.09.2.18.37.28.52,0,0,.07.09.07.1.03.05.07.09.11.14l.07.09c.09.11.18.22.28.33l.13.13s.13.11.13.11c.1.09.2.17.31.24.01,0,.07.05.08.06,1.09.71,26.63,17.12,52.49,8.63,2.95-.97,5.81-2.24,8.52-3.78,27.96-15.94,26.99-53.27,26.94-54.85-.01-.13-.01-.2-.02-.28l-.02-.16s0-.04,0-.04c-.02-.14-.05-.28-.09-.42l.33-.25-.36.11c-.07-.21-.13-.37-.2-.52l.29-.27-.33.17s-.08-.12-.09-.14c0,0-.06-.1-.06-.11-.05-.08-.07-.13-.1-.18-.09-.14-.2-.27-.31-.4,0,0-.06-.07-.06-.07-.03-.04-.06-.07-.09-.11l-.12-.12s-.05-.05-.08-.07c0,0-.08-.06-.08-.06-.13-.11-.25-.21-.39-.31-.05-.03-.1-.06-.16-.09,0,0-.09-.05-.1-.05l.19-.33-.3.25s-.1-.04-.11-.05c-.08-.04-.11-.05-.14-.06l-.3-.11s-.1-.04-.11-.04l-.13-.04c-.11-.03-.14-.03-.18-.04l-.11-.02c-.18-.03-.35-.07-.53-.08-.11,0-.14,0-.17-.01-6.82-.11-14.57-.24-21.78,2.13-.74.24-1.47.51-2.18.8-8.81,3.6-15.77,11.43-18.62,20.95-.06.19-.25.31-.45.26-6.08-1.51-12.64-1.28-18.48.63-3.3,1.08-6.33,2.66-9.02,4.7-6.73,5.1-10.97,12.54-14.72,19.11-.05.08-.06.12-.08.16,0,0-.04.09-.04.09-.07.13-.09.18-.11.24,0,0-.05.14-.05.14-.02.07-.05.14-.07.22l-.05.16c-.02.07-.03.13-.04.2,0,0-.02.09-.02.1l-.02.09s-.02.08-.02.12c0,.01,0,.04-.01.07-.02.22-.02.39-.02.55l-.37.13.37-.03s.02.15.02.16c.01.14.03.27.06.4,0,0,.01.09.02.1l-.33.24.36-.1c.04.16.09.31.16.46l-.31.25.35-.14Z"/><path class="cls-4" d="M86.5,4.78c-7.62-.12-15.45-.21-22.41,2.63-9.15,3.74-15.91,12.67-17.26,22.81-9.41-4.01-20.54-2.75-28.42,3.22-5.99,4.54-9.91,11.33-13.69,17.94,0,0,18.29-1.38,44.78-16.48,26.49-15.1,37-30.13,37-30.13Z"/><path class="cls-2" d="M4.72,51.38s30.36,19.8,56.85,4.71c26.49-15.1,24.93-51.31,24.93-51.31h0s-5.72,23.43-32.21,38.53c-26.49,15.1-49.57,8.07-49.57,8.07h0Z"/><path class="cls-3" d="M4.73,51.38s23.08,7.02,49.57-8.07C80.78,28.21,86.5,4.78,86.5,4.78c0,0-10.51,15.03-37,30.13C23.01,50,4.73,51.38,4.73,51.38Z"/></g></g></svg>