<?xml version="1.0" encoding="UTF-8"?><svg id="Capa_2" xmlns="http://www.w3.org/2000/svg" xmlns:xlink="http://www.w3.org/1999/xlink" viewBox="0 0 165.08 40.75"><defs><style>.cls-1{fill:#fff;}.cls-2{fill:#171717;}.cls-3{fill:url(#New_Gradient_Swatch_3);}.cls-4{filter:url(#drop-shadow-1);}</style><filter id="drop-shadow-1" x="-12.05" y="-13.12" width="195.36" height="71.04" filterUnits="userSpaceOnUse"><feOffset dx="3" dy="2"/><feGaussianBlur result="blur" stdDeviation="5"/><feFlood flood-color="#000" flood-opacity=".75"/><feComposite in2="blur" operator="in"/><feComposite in="SourceGraphic"/></filter><linearGradient id="New_Gradient_Swatch_3" x1="20.22" y1="88" x2="145.24" y2="-47.66" gradientUnits="userSpaceOnUse"><stop offset="0" stop-color="#ff41ed"/><stop offset=".29" stop-color="#3f98f9"/><stop offset=".62" stop-color="#3cffd0"/><stop offset=".84" stop-color="#ff7e41"/><stop offset="1" stop-color="#ffe441"/></linearGradient></defs><g id="OBJECTS"><g class="cls-4"><path class="cls-2" d="M144.7,40.37c-2.76,0-5-2.24-5-5v-2.65c-3.66,4.66-9.35,7.65-15.72,7.65-2.76,0-5-2.24-5-5v-2.65c-3.67,4.66-9.35,7.65-15.72,7.65-2.76,0-5-2.24-5-5v-2.65c-3.67,4.66-9.35,7.65-15.72,7.65s-12.06-2.99-15.72-7.65v2.65c0,2.76-2.24,5-5,5-6.37,0-12.06-3-15.72-7.65v2.65c0,2.76-2.24,5-5,5-6.37,0-12.06-2.99-15.72-7.65v2.65c0,2.76-2.24,5-5,5C9.35,40.37.37,31.4.37,20.37S9.35.38,20.37.38c2.76,0,5,2.24,5,5v2.65C29.04,3.37,34.72.38,41.1.38c2.76,0,5,2.24,5,5v2.65C49.76,3.37,55.45.38,61.82.38c2.76,0,5,2.24,5,5v2.65c3.67-4.66,9.35-7.65,15.72-7.65s12.06,2.99,15.72,7.65v-2.65c0-2.76,2.24-5,5-5,6.37,0,12.06,3,15.72,7.65v-2.65c0-2.76,2.24-5,5-5,6.37,0,12.06,2.99,15.72,7.65v-2.65c0-2.76,2.24-5,5-5,11.03,0,20,8.97,20,20s-8.97,20-20,20Z"/><path class="cls-1" d="M144.7,40.75c-2.96,0-5.37-2.41-5.37-5.38v-1.61c-3.88,4.45-9.42,6.99-15.35,6.99-2.96,0-5.37-2.41-5.37-5.38v-1.61c-3.88,4.45-9.42,6.99-15.35,6.99-2.96,0-5.37-2.41-5.37-5.38v-1.61c-3.88,4.45-9.42,6.99-15.35,6.99s-11.47-2.53-15.35-6.99v1.61c0,2.96-2.41,5.38-5.37,5.38-5.93,0-11.47-2.53-15.35-6.99v1.61c0,2.96-2.41,5.38-5.37,5.38-5.93,0-11.47-2.53-15.35-6.99v1.61c0,2.96-2.41,5.38-5.38,5.38C9.14,40.75,0,31.61,0,20.37S9.14,0,20.37,0c2.96,0,5.38,2.41,5.38,5.38v1.61c3.88-4.45,9.42-6.99,15.35-6.99,2.96,0,5.37,2.41,5.37,5.38v1.61c3.88-4.45,9.42-6.99,15.35-6.99,2.96,0,5.37,2.41,5.37,5.38v1.61c3.88-4.45,9.42-6.99,15.35-6.99s11.47,2.53,15.35,6.99v-1.61c0-2.96,2.41-5.38,5.37-5.38,5.93,0,11.46,2.53,15.35,6.99v-1.61c0-2.96,2.41-5.38,5.37-5.38,5.93,0,11.47,2.53,15.35,6.99v-1.61c0-2.96,2.41-5.38,5.37-5.38,11.23,0,20.37,9.14,20.37,20.37s-9.14,20.37-20.37,20.37ZM139.7,32.35s.08,0,.12.02c.15.05.25.19.25.35v2.65c0,2.55,2.07,4.62,4.62,4.62,10.82,0,19.62-8.8,19.62-19.62S155.52.75,144.7.75c-2.55,0-4.62,2.08-4.62,4.62v2.65c0,.16-.1.3-.25.35-.15.05-.32,0-.42-.12-3.76-4.77-9.38-7.51-15.43-7.51-2.55,0-4.62,2.08-4.62,4.62v2.65c0,.16-.1.3-.25.35-.15.05-.32,0-.42-.12-3.76-4.77-9.38-7.51-15.43-7.51-2.55,0-4.62,2.08-4.62,4.62v2.65c0,.16-.1.3-.25.35-.15.05-.32,0-.42-.12-3.76-4.77-9.38-7.51-15.43-7.51s-11.67,2.74-15.43,7.51c-.1.12-.27.17-.42.12-.15-.05-.25-.19-.25-.35v-2.65c0-2.55-2.07-4.62-4.62-4.62-6.05,0-11.67,2.74-15.43,7.51-.1.12-.27.17-.42.12-.15-.05-.25-.19-.25-.35v-2.65c0-2.55-2.07-4.62-4.62-4.62-6.05,0-11.67,2.74-15.43,7.51-.1.12-.27.17-.42.12-.15-.05-.25-.19-.25-.35v-2.65c0-2.55-2.07-4.62-4.62-4.62C9.55.75.75,9.55.75,20.37s8.8,19.62,19.62,19.62c2.55,0,4.62-2.08,4.62-4.62v-2.65c0-.16.1-.3.25-.35.15-.05.32,0,.42.12,3.75,4.77,9.38,7.51,15.43,7.51,2.55,0,4.62-2.08,4.62-4.62v-2.65c0-.16.1-.3.25-.35.15-.05.32,0,.42.12,3.76,4.77,9.38,7.51,15.43,7.51,2.55,0,4.62-2.08,4.62-4.62v-2.65c0-.16.1-.3.25-.35.15-.05.32,0,.42.12,3.75,4.77,9.38,7.51,15.43,7.51s11.67-2.74,15.43-7.51c.1-.13.27-.17.42-.12.15.05.25.19.25.35v2.65c0,2.55,2.07,4.62,4.62,4.62,6.05,0,11.67-2.74,15.43-7.51.1-.12.27-.17.42-.12.15.05.25.19.25.35v2.65c0,2.55,2.07,4.62,4.62,4.62,6.05,0,11.67-2.74,15.43-7.51.07-.09.18-.14.29-.14Z"/><path class="cls-3" d="M67.54,20.37c0-8.28,6.72-15,15-15s15,6.72,15,15-6.72,15-15,15-15-6.72-15-15ZM61.82,5.38c-8.28,0-15,6.72-15,15s6.72,15,15,15V5.38ZM41.1,5.38c-8.28,0-15,6.72-15,15s6.72,15,15,15V5.38ZM20.37,5.38c-8.28,0-15,6.72-15,15s6.72,15,15,15V5.38ZM103.26,35.37c8.28,0,15-6.72,15-15s-6.72-15-15-15v30ZM123.98,35.37c8.28,0,15-6.72,15-15s-6.72-15-15-15v30ZM144.7,35.37c8.28,0,15-6.72,15-15s-6.72-15-15-15v30Z"/></g></g></svg>