<?xml version="1.0" encoding="UTF-8"?><svg id="Capa_2" xmlns="http://www.w3.org/2000/svg" xmlns:xlink="http://www.w3.org/1999/xlink" viewBox="0 0 165.08 165.08"><defs><style>.cls-1{fill:#fff;}.cls-2{fill:#171717;}.cls-3{fill:url(#New_Gradient_Swatch_3);}.cls-4{filter:url(#drop-shadow-1);}</style><filter id="drop-shadow-1" x="-12.05" y="-13.17" width="195.36" height="195.36" filterUnits="userSpaceOnUse"><feOffset dx="3" dy="2"/><feGaussianBlur result="blur" stdDeviation="5"/><feFlood flood-color="#000" flood-opacity=".75"/><feComposite in2="blur" operator="in"/><feComposite in="SourceGraphic"/></filter><linearGradient id="New_Gradient_Swatch_3" x1="8.41" y1="147.17" x2="160.61" y2="14.47" gradientUnits="userSpaceOnUse"><stop offset="0" stop-color="#ff41ed"/><stop offset=".29" stop-color="#3f98f9"/><stop offset=".62" stop-color="#3cffd0"/><stop offset=".84" stop-color="#ff7e41"/><stop offset="1" stop-color="#ffe441"/></linearGradient></defs><g id="OBJECTS"><g class="cls-4"><rect class="cls-2" x=".37" y=".37" width="164.33" height="164.33" rx="15" ry="15" transform="translate(165.08 0) rotate(90)"/><path class="cls-1" d="M149.7,165.08H15.38c-8.48,0-15.38-6.9-15.38-15.38V15.38C0,6.9,6.9,0,15.38,0h134.33c8.48,0,15.37,6.9,15.37,15.38v134.33c0,8.48-6.9,15.38-15.37,15.38ZM15.38.75C7.31.75.75,7.31.75,15.38v134.33c0,8.06,6.56,14.62,14.62,14.62h134.33c8.06,0,14.62-6.56,14.62-14.62V15.38c0-8.06-6.56-14.62-14.62-14.62H15.38Z"/><rect class="cls-3" x="5.37" y="5.37" width="154.33" height="154.33" rx="10" ry="10"/><path class="cls-2" d="M155.14,95.05v-39c-12.11,14.78-32.16,22.83-52.04,26.39,17.64-8.83,32.76-23.54,39.62-42.39l-27.58-27.58c1.89,19.02-6.6,38.88-18.14,55.45,6.23-18.71,6.51-39.81-1.96-57.99h-39c14.78,12.11,22.83,32.16,26.39,52.04-8.83-17.64-23.54-32.75-42.39-39.62l-27.58,27.58c19.02-1.89,38.88,6.6,55.45,18.14-18.71-6.23-39.81-6.51-57.99,1.96v39c12.11-14.78,32.16-22.83,52.04-26.39-17.64,8.83-32.76,23.54-39.62,42.39l27.58,27.58c-1.89-19.02,6.6-38.88,18.14-55.45-6.23,18.71-6.51,39.81,1.96,57.99h39c-14.78-12.11-22.83-32.16-26.39-52.04,8.83,17.64,23.54,32.75,42.39,39.62l27.58-27.58c-19.02,1.89-38.88-6.6-55.45-18.14,18.71,6.23,39.81,6.51,57.99-1.96ZM87.97,86.09v6.38c-1.39-1.19-2.76-2.38-4.1-3.58l-4.51,4.51c-.14-1.82-.27-3.63-.37-5.43h-6.38c1.19-1.39,2.38-2.76,3.58-4.1l-4.51-4.51c1.82-.14,3.63-.27,5.43-.37v-6.38c1.39,1.19,2.76,2.38,4.1,3.58l4.51-4.51c.14,1.82.27,3.63.37,5.43h6.38c-1.19,1.39-2.38,2.76-3.58,4.1l4.51,4.51c-1.82.14-3.63.27-5.43.37Z"/></g></g></svg>