<?xml version="1.0" encoding="UTF-8"?><svg id="Capa_2" xmlns="http://www.w3.org/2000/svg" xmlns:xlink="http://www.w3.org/1999/xlink" viewBox="0 0 147.06 147.06"><defs><style>.cls-1{fill:#fff;}.cls-2{fill:#171717;}.cls-3{fill:url(#New_Gradient_Swatch_3);}.cls-4{filter:url(#drop-shadow-1);}.cls-5{fill:none;stroke:#000;stroke-linecap:round;stroke-linejoin:round;stroke-width:2px;}</style><filter id="drop-shadow-1" x="-12.01" y="-13.17" width="177.12" height="177.36" filterUnits="userSpaceOnUse"><feOffset dx="3" dy="2"/><feGaussianBlur result="blur" stdDeviation="5"/><feFlood flood-color="#000" flood-opacity=".75"/><feComposite in2="blur" operator="in"/><feComposite in="SourceGraphic"/></filter><linearGradient id="New_Gradient_Swatch_3" x1="22.33" y1="131.96" x2="128.86" y2="10.4" gradientUnits="userSpaceOnUse"><stop offset="0" stop-color="#ff41ed"/><stop offset=".29" stop-color="#3f98f9"/><stop offset=".62" stop-color="#3cffd0"/><stop offset=".84" stop-color="#ff7e41"/><stop offset="1" stop-color="#ffe441"/></linearGradient></defs><g id="OBJECTS"><g class="cls-4"><path class="cls-2" d="M73.53,146.69c-2.45,0-4.54-1.78-4.94-4.2l-3.95-24.29-12.95,20.93c-.93,1.51-2.57,2.37-4.25,2.37-.64,0-1.29-.12-1.91-.38-2.27-.94-3.52-3.38-2.95-5.77l5.64-23.95-19.97,14.38c-.88.63-1.9.94-2.92.94-1.29,0-2.57-.5-3.54-1.46-1.73-1.73-1.96-4.47-.52-6.46l14.38-19.97-23.95,5.65c-.38.09-.77.13-1.15.13-1.98,0-3.83-1.19-4.62-3.09-.94-2.26-.1-4.88,1.99-6.17l20.93-12.94-24.29-3.95c-2.42-.39-4.2-2.48-4.2-4.94s1.78-4.54,4.2-4.94l24.29-3.95-20.93-12.94c-2.08-1.29-2.93-3.9-1.99-6.17.79-1.9,2.63-3.09,4.62-3.09.38,0,.77.04,1.15.13l23.95,5.65-14.38-19.97c-1.43-1.99-1.21-4.72.52-6.46.97-.97,2.25-1.46,3.54-1.46,1.02,0,2.04.31,2.92.94l19.97,14.38-5.64-23.95c-.56-2.39.69-4.83,2.95-5.77.62-.26,1.27-.38,1.91-.38,1.69,0,3.32.86,4.25,2.37l12.95,20.93,3.95-24.29c.39-2.42,2.48-4.2,4.94-4.2s4.54,1.78,4.94,4.2l3.95,24.29,12.94-20.93c.93-1.51,2.57-2.37,4.25-2.37.64,0,1.29.12,1.91.38,2.27.94,3.52,3.38,2.95,5.77l-5.64,23.95,19.97-14.38c.88-.63,1.9-.94,2.92-.94,1.29,0,2.57.5,3.54,1.46,1.73,1.73,1.96,4.47.52,6.46l-14.38,19.97,23.95-5.65c.38-.09.77-.13,1.15-.13,1.98,0,3.83,1.19,4.62,3.09.94,2.26.1,4.88-1.99,6.17l-20.93,12.94,24.29,3.95c2.42.39,4.2,2.48,4.2,4.94s-1.78,4.54-4.2,4.94l-24.29,3.95,20.93,12.94c2.08,1.29,2.93,3.9,1.99,6.17-.79,1.9-2.63,3.09-4.62,3.09-.38,0-.77-.04-1.15-.13l-23.95-5.65,14.38,19.97c1.43,1.99,1.21,4.72-.52,6.46-.97.97-2.25,1.46-3.54,1.46-1.02,0-2.04-.31-2.92-.94l-19.97-14.38,5.64,23.95c.56,2.39-.69,4.83-2.95,5.77-.62.26-1.27.38-1.91.38-1.69,0-3.32-.86-4.25-2.37l-12.94-20.93-3.95,24.29c-.39,2.42-2.48,4.2-4.94,4.2Z"/><path class="cls-1" d="M73.53,147.06c-2.65,0-4.88-1.9-5.31-4.51l-3.79-23.3-12.42,20.07c-.99,1.59-2.7,2.55-4.57,2.55-.71,0-1.4-.14-2.05-.41-2.45-1.01-3.78-3.62-3.17-6.2l5.41-22.97-19.15,13.79c-.92.66-2.01,1.01-3.14,1.01-1.44,0-2.79-.56-3.8-1.58-1.87-1.87-2.11-4.79-.56-6.94l13.79-19.15-22.97,5.41c-.41.1-.82.14-1.24.14-2.18,0-4.13-1.3-4.96-3.32-1.01-2.45-.11-5.23,2.14-6.63l20.07-12.42-23.3-3.79c-2.61-.42-4.51-2.66-4.51-5.3s1.9-4.88,4.51-5.31l23.3-3.79-20.07-12.42c-2.25-1.39-3.15-4.18-2.14-6.63.83-2.02,2.78-3.32,4.96-3.32.41,0,.83.05,1.24.14l22.97,5.41-13.79-19.15c-1.55-2.15-1.31-5.07.56-6.94,1.01-1.02,2.36-1.57,3.8-1.57,1.13,0,2.22.35,3.14,1.01l19.15,13.79-5.41-22.98c-.61-2.58.73-5.19,3.17-6.2.66-.27,1.35-.41,2.05-.41,1.88,0,3.59.95,4.57,2.55l12.42,20.07,3.79-23.3c.42-2.61,2.66-4.51,5.31-4.51s4.88,1.9,5.31,4.51l3.79,23.3,12.42-20.07c.99-1.6,2.7-2.55,4.57-2.55.71,0,1.4.14,2.05.41,2.45,1.01,3.78,3.62,3.17,6.2l-5.41,22.98,19.16-13.79c.92-.66,2-1.01,3.14-1.01,1.44,0,2.79.56,3.8,1.57,1.87,1.87,2.11,4.79.56,6.94l-13.8,19.15,22.97-5.41c.41-.1.82-.14,1.24-.14,2.18,0,4.13,1.3,4.96,3.32,1.01,2.45.11,5.23-2.14,6.63l-20.07,12.42,23.3,3.79c2.61.42,4.51,2.66,4.51,5.31s-1.9,4.88-4.51,5.3l-23.3,3.79,20.07,12.42c2.25,1.39,3.15,4.18,2.14,6.63-.83,2.02-2.78,3.32-4.96,3.32-.41,0-.83-.05-1.24-.14l-22.97-5.41,13.8,19.15c1.55,2.15,1.31,5.07-.56,6.94-1.01,1.01-2.37,1.57-3.8,1.57-1.13,0-2.22-.35-3.14-1.01l-19.15-13.79,5.41,22.97c.61,2.58-.73,5.19-3.17,6.2-.66.27-1.35.41-2.05.41-1.88,0-3.59-.95-4.57-2.55l-12.42-20.07-3.79,23.3c-.42,2.61-2.66,4.51-5.31,4.51ZM64.65,117.83s.05,0,.07,0c.15.03.27.15.3.31l3.95,24.29c.37,2.25,2.29,3.88,4.57,3.88s4.2-1.63,4.57-3.88l3.95-24.29c.03-.15.14-.28.3-.31.15-.03.31.04.39.17l12.94,20.93c.85,1.37,2.32,2.19,3.93,2.19.61,0,1.2-.12,1.77-.35,2.11-.87,3.25-3.12,2.73-5.33l-5.64-23.95c-.04-.15.03-.31.16-.4.13-.09.3-.08.43,0l19.97,14.38c.79.57,1.73.87,2.7.87,1.24,0,2.4-.48,3.27-1.36,1.61-1.61,1.82-4.12.48-5.97l-14.38-19.97c-.09-.13-.09-.3,0-.43.09-.13.25-.19.4-.16l23.95,5.65c.35.08.71.12,1.06.12,1.88,0,3.55-1.12,4.27-2.86.87-2.11.1-4.5-1.84-5.7l-20.93-12.94c-.13-.08-.2-.24-.17-.39.03-.15.15-.27.31-.3l24.29-3.95c2.25-.37,3.88-2.29,3.88-4.56s-1.63-4.2-3.88-4.57l-24.29-3.95c-.15-.02-.28-.14-.31-.3-.03-.15.04-.31.17-.39l20.93-12.94c1.94-1.2,2.71-3.6,1.84-5.7-.72-1.73-2.39-2.86-4.27-2.86-.36,0-.71.04-1.06.12l-23.95,5.64c-.15.03-.31-.03-.4-.16-.09-.13-.08-.3,0-.43l14.38-19.97c1.33-1.85,1.13-4.36-.48-5.97-.87-.87-2.04-1.35-3.27-1.35-.98,0-1.91.3-2.7.87l-19.97,14.38c-.13.09-.3.09-.43,0-.13-.09-.19-.25-.16-.4l5.64-23.95c.52-2.22-.63-4.46-2.73-5.33-.56-.23-1.16-.35-1.77-.35-1.62,0-3.09.82-3.93,2.19l-12.94,20.93c-.08.13-.24.2-.39.17-.15-.03-.27-.15-.3-.31l-3.95-24.29c-.37-2.25-2.29-3.88-4.57-3.88s-4.2,1.63-4.57,3.88l-3.95,24.29c-.03.15-.14.28-.3.31-.16.03-.31-.04-.39-.17l-12.95-20.93c-.85-1.37-2.32-2.19-3.93-2.19h0c-.61,0-1.2.12-1.77.35-2.11.87-3.25,3.12-2.73,5.33l5.64,23.95c.04.15-.03.31-.16.4-.13.09-.3.08-.43,0l-19.97-14.38c-.79-.57-1.73-.87-2.7-.87-1.24,0-2.4.48-3.27,1.35-1.61,1.61-1.82,4.12-.48,5.97l14.38,19.97c.09.13.09.3,0,.43-.09.13-.25.19-.4.16l-23.95-5.64c-.35-.08-.71-.12-1.06-.12-1.88,0-3.55,1.12-4.27,2.86-.87,2.11-.1,4.5,1.84,5.7l20.93,12.94c.13.08.2.24.17.39-.03.15-.15.27-.31.3l-24.29,3.95c-2.25.37-3.88,2.29-3.88,4.57s1.63,4.2,3.88,4.56l24.29,3.95c.15.03.28.14.31.3.03.15-.04.31-.17.39l-20.93,12.94c-1.94,1.2-2.71,3.6-1.84,5.7.85,2.06,3.13,3.25,5.33,2.73l23.95-5.65c.15-.04.31.03.4.16.09.13.08.3,0,.43l-14.38,19.97c-1.33,1.85-1.13,4.36.48,5.97.87.87,2.04,1.36,3.27,1.36.97,0,1.91-.3,2.7-.87l19.97-14.38c.13-.09.3-.09.43,0,.13.09.19.25.16.4l-5.64,23.95c-.52,2.22.63,4.46,2.73,5.33.57.23,1.16.35,1.77.35,1.62,0,3.09-.82,3.93-2.19l12.95-20.93c.07-.11.19-.18.32-.18Z"/><polygon class="cls-3" points="73.53 5.38 79.63 42.87 99.61 10.56 90.9 47.54 121.73 25.34 99.52 56.16 136.5 47.45 104.19 67.43 141.69 73.53 104.19 79.63 136.5 99.61 99.52 90.9 121.73 121.73 90.9 99.52 99.61 136.5 79.63 104.19 73.53 141.69 67.43 104.19 47.45 136.5 56.16 99.52 25.34 121.73 47.54 90.9 10.56 99.61 42.87 79.63 5.37 73.53 42.87 67.43 10.56 47.45 47.54 56.16 25.34 25.34 56.16 47.54 47.45 10.56 67.43 42.87 73.53 5.38"/><ellipse class="cls-5" cx="73.53" cy="73.53" rx="22.68" ry="22.2"/><ellipse class="cls-5" cx="73.53" cy="73.53" rx="15.12" ry="22.2"/><ellipse class="cls-5" cx="73.53" cy="73.53" rx="7.56" ry="22.2"/><line class="cls-5" x1="73.53" y1="51.33" x2="73.53" y2="95.73"/><polyline class="cls-5" points="50.85 73.53 58.41 73.53 65.97 73.53 96.21 73.53"/><polyline class="cls-5" points="53.89 62.43 60.54 62.43 67.04 62.43 93.17 62.43"/><polyline class="cls-5" points="53.89 84.63 60.54 84.63 67.04 84.63 93.17 84.63"/></g></g></svg>