<?xml version="1.0" encoding="UTF-8"?><svg id="Capa_2" xmlns="http://www.w3.org/2000/svg" xmlns:xlink="http://www.w3.org/1999/xlink" viewBox="0 0 99.09 109.99"><defs><style>.cls-1{stroke:#171717;stroke-linecap:round;stroke-linejoin:round;stroke-width:.75px;}.cls-1,.cls-2{fill:#fff;}.cls-3{fill:#171717;}.cls-4{fill:url(#New_Gradient_Swatch_3);}.cls-5{filter:url(#drop-shadow-1);}</style><filter id="drop-shadow-1" x="-12.22" y="-13.1" width="129.36" height="140.16" filterUnits="userSpaceOnUse"><feOffset dx="3" dy="2"/><feGaussianBlur result="blur" stdDeviation="5"/><feFlood flood-color="#000" flood-opacity=".75"/><feComposite in2="blur" operator="in"/><feComposite in="SourceGraphic"/></filter><linearGradient id="New_Gradient_Swatch_3" x1="12.95" y1="95.54" x2="89.02" y2="22.58" gradientTransform="translate(97.26 -1.45) rotate(76.97)" gradientUnits="userSpaceOnUse"><stop offset="0" stop-color="#ff41ed"/><stop offset=".29" stop-color="#3f98f9"/><stop offset=".62" stop-color="#3cffd0"/><stop offset=".84" stop-color="#ff7e41"/><stop offset="1" stop-color="#ffe441"/></linearGradient></defs><g id="OBJECTS"><g class="cls-5"><path class="cls-3" d="M76.82,19.56C73.7,8.46,68.11.37,60.17.37c-3.32,0-6.23,1.43-8.72,3.89-.03.03-.06.06-.09.09-.23.23-.45.46-.67.7-.21.23-.41.47-.61.71-.04.05-.09.1-.14.16-.13.17-.27.34-.4.51-2.87-3.78-6.41-6.06-10.62-6.06-3.32,0-6.23,1.43-8.72,3.89-.03.03-.06.06-.09.09-.23.23-.45.46-.67.7-.21.23-.41.47-.61.71-.04.05-.09.1-.14.16-2.79,3.44-4.92,8.21-6.43,13.64C9.07,28.4.37,43.42.37,60.45c0,27.11,22.06,49.17,49.17,49.17s49.17-22.06,49.17-49.17c0-17.03-8.71-32.06-21.9-40.89Z"/><path class="cls-2" d="M49.54,109.99C22.23,109.99,0,87.77,0,60.45c0-16.5,8.2-31.86,21.93-41.11,1.62-5.77,3.8-10.36,6.46-13.64l.08-.1c.26-.31.46-.55.67-.79.22-.25.45-.48.68-.71,0,0,.09-.1.09-.1,2.68-2.65,5.71-3.99,8.99-3.99,3.99,0,7.56,1.96,10.62,5.82.04-.05.07-.09.11-.14l.08-.1c.26-.31.46-.55.67-.79.22-.25.45-.48.68-.71,0,0,.09-.1.09-.1,2.68-2.65,5.71-3.99,8.99-3.99,7.42,0,13.44,6.86,16.97,19.32,13.75,9.25,21.95,24.62,21.95,41.12,0,27.32-22.23,49.54-49.54,49.54ZM30.1,4.36l.27.27c-.22.22-.44.45-.66.68-.2.23-.4.46-.6.7,0,0-.06.07-.06.07l-.07.08c-2.62,3.23-4.77,7.78-6.36,13.51-.02.09-.08.16-.15.21C8.87,28.99.75,44.15.75,60.45c0,26.91,21.89,48.79,48.79,48.79s48.79-21.89,48.79-48.79c0-16.3-8.12-31.47-21.73-40.58-.07-.05-.13-.12-.15-.21C73.03,7.46,67.25.75,60.17.75c-3.08,0-5.92,1.27-8.46,3.78l-.36-.17.27.27c-.22.22-.44.45-.66.68-.21.23-.4.46-.6.7,0,0-.06.07-.06.07l-.07.08c-.11.14-.22.27-.32.41l-.07.1c-.07.09-.18.15-.3.15h0c-.12,0-.23-.06-.3-.15-2.98-3.92-6.45-5.91-10.32-5.91-3.08,0-5.92,1.27-8.46,3.78l-.36-.17Z"/><circle class="cls-4" cx="49.54" cy="60.45" r="44.17" transform="translate(-20.52 95.09) rotate(-76.97)"/><ellipse class="cls-1" cx="38.92" cy="42.35" rx="14.55" ry="36.97"/><path class="cls-3" d="M40.11,25.37c0-7.79-1.36-14.78-3.5-19.52-6.93,2.82-12.23,18.08-12.23,36.5,0,1.67.05,3.31.13,4.92,1.57,2.52,3.43,3.98,5.42,3.98,5.62,0,10.18-11.59,10.18-25.88Z"/><ellipse class="cls-1" cx="60.17" cy="42.35" rx="14.55" ry="36.97"/><path class="cls-3" d="M61.36,25.37c0-7.79-1.36-14.78-3.5-19.52-6.93,2.82-12.23,18.08-12.23,36.5,0,1.67.05,3.31.13,4.92,1.57,2.52,3.43,3.98,5.42,3.98,5.62,0,10.18-11.59,10.18-25.88Z"/><path class="cls-3" d="M86.53,61.04c-.48.24-.98.41-1.49.52-.66,19.01-16.32,34.27-35.49,34.27S14.72,80.57,14.05,61.56c-.51-.11-1.02-.28-1.49-.52-.69-.35-.98-1.19-.63-1.88.35-.69,1.19-.98,1.88-.63,1,.5,2.21.5,3.22,0,.7-.35,1.54-.06,1.88.64.34.69.06,1.54-.64,1.88-.46.23-.94.39-1.43.5.65,17.47,15.06,31.47,32.68,31.47s32.03-14.01,32.68-31.47c-.49-.11-.97-.28-1.43-.5-.7-.34-.98-1.19-.63-1.88.34-.69,1.19-.98,1.88-.63,1,.5,2.23.49,3.22,0,.7-.35,1.54-.06,1.88.63.35.69.06,1.54-.63,1.88Z"/></g></g></svg>