<?xml version="1.0" encoding="UTF-8"?><svg id="Capa_2" xmlns="http://www.w3.org/2000/svg" xmlns:xlink="http://www.w3.org/1999/xlink" viewBox="0 0 111.99 110.95"><defs><style>.cls-1{fill:#fff;}.cls-2{fill:url(#New_Gradient_Swatch_3-2);}.cls-3,.cls-4{fill:#171717;}.cls-5{fill:url(#New_Gradient_Swatch_3);}.cls-6{filter:url(#drop-shadow-1);}.cls-4{filter:url(#drop-shadow-2);font-family:Montserrat-BlackItalic, Montserrat;font-size:19.3px;font-style:italic;font-weight:800;}</style><filter id="drop-shadow-1" x="-12.05" y="-13.09" width="138.24" height="138.24" filterUnits="userSpaceOnUse"><feOffset dx="3" dy="2"/><feGaussianBlur result="blur" stdDeviation="5"/><feFlood flood-color="#000" flood-opacity=".75"/><feComposite in2="blur" operator="in"/><feComposite in="SourceGraphic"/></filter><linearGradient id="New_Gradient_Swatch_3" x1="-2501.52" y1="1828.28" x2="-2412.52" y2="1732.69" gradientTransform="translate(532.13 -2950.33) rotate(-45)" gradientUnits="userSpaceOnUse"><stop offset="0" stop-color="#ff41ed"/><stop offset=".29" stop-color="#3f98f9"/><stop offset=".62" stop-color="#3cffd0"/><stop offset=".84" stop-color="#ff7e41"/><stop offset="1" stop-color="#ffe441"/></linearGradient><linearGradient id="New_Gradient_Swatch_3-2" x1="-2516.19" y1="1938.74" x2="-2489.73" y2="1908.85" gradientTransform="translate(440.61 -3099.9) rotate(-45)" xlink:href="#New_Gradient_Swatch_3"/><filter id="drop-shadow-2" filterUnits="userSpaceOnUse"><feOffset dx="3" dy="2"/><feGaussianBlur result="blur-2" stdDeviation="5"/><feFlood flood-color="#000" flood-opacity=".75"/><feComposite in2="blur-2" operator="in"/><feComposite in="SourceGraphic"/></filter></defs><g id="TEXTS"><g class="cls-6"><path class="cls-3" d="M101.65,101.65c-9.4,9.4-27.52,7.85-47.61-3.95-20.09,11.8-38.21,13.35-47.61,3.95-9.4-9.4-7.85-27.52,3.95-47.61C-1.41,33.96-2.96,15.84,6.44,6.44s27.52-7.85,47.61,3.95c20.09-11.8,38.21-13.35,47.61-3.95,9.4,9.4,7.85,27.52-3.95,47.61,11.8,20.09,13.35,38.21,3.95,47.61Z"/><path class="cls-1" d="M84.99,108.09c-8.91,0-19.64-3.35-30.94-9.96-20.11,11.76-38.44,13.21-47.87,3.78-9.43-9.43-7.98-27.76,3.79-47.87C-1.8,33.93-3.25,15.6,6.18,6.18,15.6-3.25,33.93-1.8,54.05,9.96c20.11-11.76,38.44-13.21,47.87-3.78,9.43,9.43,7.98,27.76-3.79,47.87,11.76,20.11,13.21,38.44,3.79,47.87-4.13,4.13-9.98,6.18-16.93,6.18ZM54.05,97.32c.07,0,.13.02.19.05,19.88,11.68,37.94,13.22,47.15,4.01,9.21-9.21,7.67-27.27-4.01-47.15-.07-.12-.07-.26,0-.38,11.68-19.88,13.22-37.94,4.01-47.15-9.21-9.21-27.27-7.67-47.15,4.01-.12.07-.26.07-.38,0C33.98-.96,15.91-2.5,6.71,6.71-2.5,15.91-.96,33.98,10.72,53.86c.07.12.07.26,0,.38C-.96,74.11-2.5,92.18,6.71,101.39c9.21,9.21,27.27,7.67,47.15-4.01.06-.03.12-.05.19-.05Z"/><path class="cls-5" d="M8.9,99.19c8.7,8.7,26.56,5.88,45.15-5.55,18.59,11.43,36.45,14.25,45.15,5.55,8.7-8.7,5.88-26.56-5.55-45.15,11.43-18.59,14.25-36.45,5.55-45.15C90.49.2,72.64,3.02,54.05,14.45,35.46,3.02,17.6.2,8.9,8.9.2,17.6,3.02,35.46,14.45,54.05,3.02,72.63.2,90.49,8.9,99.19Z"/><path class="cls-3" d="M82.97,65.93c-4.65-.43-9.21,1.21-12.51,4.51,0,0,0,0,0,0-3.3,3.3-4.95,7.86-4.52,12.52.34,3.63,1.94,7.04,4.52,9.62,2.58,2.58,5.99,4.18,9.62,4.52.03,0,.06,0,.09,0,0,0,0,0,0,0,.46.04.91.06,1.37.06,4.14,0,8.1-1.63,11.06-4.58,3.3-3.3,4.95-7.86,4.52-12.52-.34-3.63-1.94-7.04-4.52-9.62-2.58-2.58-5.99-4.18-9.62-4.52ZM91.69,84.6s0,.02,0,.02c.1.3.19.59.26.87.02.07.04.13.05.2.07.28.13.56.18.83,0,.01,0,.03,0,.04.04.26.07.51.09.75,0,.06,0,.12.01.18.01.25.02.5.01.74,0,.03,0,.05,0,.08-.01.22-.03.42-.07.62,0,.05-.01.1-.02.15-.04.22-.09.42-.16.62-.01.03-.02.06-.03.09-.06.17-.13.34-.21.5-.01.02-.02.05-.04.07l-4.01-4.01c.11-.1.22-.21.33-.31.09-.08.19-.17.28-.25.37-.32.74-.63,1.12-.93.03-.02.06-.05.09-.07.36-.27.72-.54,1.1-.79.11-.07.21-.15.32-.22.1-.07.2-.13.3-.19.01.03.03.07.04.1.12.3.24.59.34.88ZM89.82,92.02s-.07.03-.1.04c-.19.06-.4.11-.61.15-.06.01-.11.02-.17.03-.19.03-.39.05-.59.06-.04,0-.07,0-.11,0-.23,0-.47,0-.72-.01-.07,0-.14,0-.21-.02-.23-.02-.46-.05-.7-.08-.03,0-.06,0-.09-.01-.26-.04-.53-.11-.81-.17-.08-.02-.15-.04-.23-.06-.28-.08-.56-.16-.85-.26-.02,0-.04-.01-.06-.02-.28-.1-.56-.21-.85-.33-.03-.01-.07-.03-.1-.04.07-.1.13-.2.19-.3.07-.11.14-.21.21-.32.26-.37.52-.74.8-1.1.02-.03.04-.06.07-.09.3-.38.61-.76.93-1.12.08-.09.16-.19.25-.28.1-.11.21-.22.31-.33l4.01,4.01s-.05.03-.07.04c-.15.08-.32.15-.48.21ZM80.13,93.54c-.03.07-.06.15-.1.22-.17.37-.32.74-.47,1.11-.02.06-.05.11-.07.17-2.56-.38-4.97-1.49-6.93-3.19l.2-.2,3.15-3.15s.01.01.02.02c.34.32.69.62,1.04.91.09.07.18.15.27.22.33.27.65.52.99.77.04.03.07.06.11.08.36.27.73.52,1.1.76.09.06.19.12.28.18.34.22.69.43,1.03.62.03.02.06.04.09.05-.02.03-.03.06-.05.1-.23.43-.45.87-.65,1.31ZM71.33,78.42s0-.01,0-.02c-.1-.3-.19-.59-.26-.87-.02-.07-.04-.14-.05-.2-.07-.28-.13-.56-.18-.83,0-.02,0-.03,0-.05-.04-.26-.07-.5-.09-.75,0-.06,0-.12-.01-.18-.01-.25-.02-.5-.01-.73,0-.03,0-.06,0-.09.01-.21.03-.42.06-.61,0-.05.02-.1.03-.16.04-.21.09-.42.15-.62.01-.03.03-.07.04-.1.06-.17.13-.33.21-.49.01-.03.02-.05.04-.08l4.01,4.01c-.11.1-.21.21-.32.3-.09.08-.19.17-.28.25-.37.32-.74.63-1.12.93-.03.02-.06.05-.09.07-.36.27-.72.54-1.1.79-.11.07-.21.15-.32.22-.1.07-.2.13-.3.19-.01-.03-.03-.07-.04-.1-.12-.3-.24-.6-.34-.89ZM73.21,71s.06-.02.09-.03c.2-.06.41-.12.63-.16.05,0,.09-.02.14-.02.21-.03.42-.06.64-.07.02,0,.05,0,.07,0,.24,0,.49,0,.74.01.06,0,.11,0,.17.01.25.02.51.05.77.09.01,0,.02,0,.03,0,.27.05.55.11.84.18.07.02.13.03.2.05.29.08.58.16.87.26,0,0,.01,0,.02,0,.29.1.58.21.88.34.03.01.07.03.11.04-.06.1-.12.2-.19.3-.07.11-.14.21-.22.32-.26.37-.52.74-.8,1.1-.02.03-.04.06-.06.09-.3.38-.61.76-.93,1.12-.08.09-.16.19-.25.28-.1.11-.21.22-.31.33l-4.01-4.01s.05-.02.07-.04c.16-.08.32-.15.49-.21ZM89.6,82.39c-.43.3-.86.6-1.28.93-.02.02-.04.03-.06.05-.4.31-.78.63-1.16.96-.12.1-.23.2-.34.31-.13.12-.26.23-.39.34l-3.46-3.46,4.21-4.21s0,0,0,0c.29.31.57.63.84.96.07.08.14.17.21.25.26.32.52.65.77.98,0,0,.01.02.02.02.24.33.47.67.69,1.01.06.09.11.18.17.26.21.34.42.68.61,1.02,0,0,0,0,0,.01-.16.1-.31.21-.46.31-.13.08-.25.17-.38.25ZM84.32,87.1c-.33.38-.65.77-.96,1.16-.02.02-.03.04-.05.06-.32.42-.63.85-.93,1.28-.08.12-.17.25-.25.37-.1.16-.21.31-.31.47,0,0,0,0,0,0-.35-.19-.69-.4-1.04-.62-.09-.05-.17-.11-.26-.17-.34-.22-.68-.45-1.02-.7,0,0,0,0,0,0-.33-.25-.66-.51-.99-.77-.08-.07-.17-.14-.25-.21-.32-.27-.64-.54-.95-.83,0,0,0,0-.01-.01l4.21-4.21,3.46,3.46c-.12.13-.23.26-.34.39-.1.11-.21.23-.31.34ZM73.43,80.64c.43-.3.86-.6,1.28-.93.02-.02.04-.03.06-.05.4-.31.78-.63,1.16-.96.12-.1.23-.2.34-.3.13-.12.26-.23.39-.34l1.71,1.72,1.75,1.75-.55.55-3.67,3.67s0,0-.01-.01c-.29-.31-.56-.63-.83-.95-.07-.08-.14-.16-.2-.25-.27-.33-.53-.66-.77-.99,0,0,0,0,0,0-.25-.34-.48-.68-.7-1.02-.06-.09-.11-.17-.17-.26-.21-.34-.42-.68-.61-1.02,0,0,0,0,0-.01.16-.1.31-.21.46-.31.13-.08.25-.17.38-.25ZM78.7,75.93c.33-.38.66-.78.97-1.18.01-.01.02-.03.04-.04.32-.42.63-.85.93-1.28.08-.12.16-.25.25-.37.1-.16.21-.31.31-.47,0,0,.01,0,.02.01.34.19.68.4,1.02.61.09.06.17.11.26.17.34.22.68.45,1.02.7,0,0,0,0,.01,0,.33.24.66.5.99.77.08.07.17.14.25.21.32.27.63.54.94.82,0,0,.01.01.02.02l-3.39,3.39-.83.83-1.75-1.75-1.71-1.72c.12-.13.23-.26.35-.39.1-.11.2-.22.3-.34ZM87.12,74.51s-.02-.01-.02-.02c-.34-.31-.68-.62-1.04-.91-.09-.08-.18-.15-.27-.22-.32-.26-.65-.52-.98-.77-.04-.03-.08-.06-.11-.09-.36-.27-.73-.52-1.1-.76-.1-.06-.19-.12-.29-.18-.34-.22-.68-.42-1.02-.62-.03-.02-.06-.04-.09-.06.02-.03.03-.07.05-.1.23-.43.45-.87.65-1.31.04-.08.07-.16.1-.24.16-.36.32-.73.46-1.1.02-.06.05-.11.07-.17,2.56.38,4.97,1.49,6.93,3.18l-3.35,3.35ZM81.47,67.83c-.05.13-.11.26-.17.39-.09.2-.17.4-.27.6-.07.16-.15.31-.23.47-.1.2-.2.4-.3.59-.02.04-.04.08-.07.12-.01,0-.02,0-.03-.01-.31-.14-.62-.26-.92-.37-.1-.04-.2-.07-.29-.1-.22-.08-.44-.15-.66-.22-.1-.03-.21-.06-.31-.09-.23-.06-.46-.12-.68-.17-.08-.02-.16-.04-.23-.05-.3-.06-.59-.11-.88-.15,0,0-.02,0-.03,0,1.6-.65,3.32-.99,5.08-.99ZM68.83,76.42c.04.29.09.58.15.88.02.08.04.16.06.24.05.22.11.45.17.67.03.1.06.21.09.32.07.22.14.43.22.65.04.1.07.2.11.3.11.3.24.61.37.92,0,0,0,.02.01.03-.04.02-.08.05-.13.07-.19.1-.38.2-.57.29-.16.08-.33.17-.49.24-.19.09-.39.17-.58.26-.13.06-.27.12-.4.18,0-1.76.35-3.48.99-5.08,0,.01,0,.02,0,.03ZM67.98,83.53c.06-.02.11-.05.17-.07.37-.14.74-.3,1.1-.47.08-.03.15-.07.23-.1.44-.2.88-.42,1.31-.65.03-.02.06-.03.09-.05.02.03.04.06.05.09.2.35.4.69.62,1.03.06.09.12.19.18.28.24.37.5.74.76,1.11.02.03.05.07.08.1.25.34.51.67.78,1,.07.09.14.17.22.26.3.35.6.7.91,1.04,0,0,.01.01.02.02l-1.63,1.63-1.72,1.72c-1.69-1.96-2.8-4.37-3.18-6.93ZM81.56,95.19c.05-.13.11-.26.17-.39.09-.2.17-.4.27-.59.08-.16.16-.33.24-.49.1-.19.19-.39.29-.58.02-.04.05-.08.07-.12,0,0,0,0,0,0,.32.14.63.27.95.38.09.04.19.07.28.1.23.08.45.15.67.22.1.03.2.06.3.09.24.07.47.13.7.18.07.02.14.04.21.05.3.06.59.11.87.15.01,0,.03,0,.04,0-1.6.65-3.32.99-5.08.99ZM94.2,86.61c-.04-.29-.09-.58-.15-.88-.02-.08-.04-.15-.05-.23-.05-.23-.11-.45-.17-.68-.03-.1-.06-.2-.09-.31-.07-.22-.14-.44-.22-.67-.03-.1-.07-.19-.1-.29-.12-.31-.24-.62-.38-.94,0,0,0-.01,0-.02.04-.02.08-.05.13-.07.19-.1.38-.19.57-.29.16-.08.33-.17.49-.24.2-.09.4-.18.6-.27.13-.06.26-.12.39-.17,0,1.76-.35,3.48-.99,5.08,0-.01,0-.02,0-.03ZM95.04,79.49c-.06.02-.11.05-.17.07-.37.14-.73.3-1.1.46-.08.04-.16.07-.24.1-.44.2-.88.42-1.31.65-.03.02-.06.03-.09.05-.02-.03-.04-.06-.05-.09-.2-.35-.41-.69-.62-1.04-.06-.09-.12-.19-.18-.28-.24-.37-.5-.74-.76-1.1-.03-.03-.05-.07-.08-.1-.25-.33-.51-.66-.77-.99-.07-.09-.15-.18-.22-.27-.29-.35-.6-.7-.91-1.04,0,0-.01-.01-.02-.02l3.35-3.35c1.69,1.96,2.8,4.37,3.18,6.93Z"/><circle class="cls-3" cx="29.86" cy="29.86" r="15.22"/><path class="cls-2" d="M37.76,22.82c-.05.14-.12.28-.2.41,3.71,3.97,3.63,10.22-.25,14.09-3.87,3.87-10.12,3.95-14.09.25-.13.08-.26.15-.41.2-.21.07-.44-.04-.51-.25-.07-.21.04-.44.25-.51.3-.1.55-.35.65-.65.07-.21.3-.32.51-.25.21.07.32.3.25.51-.05.14-.11.27-.19.39,3.66,3.4,9.4,3.32,12.96-.24,3.56-3.56,3.64-9.3.24-12.96-.12.08-.25.14-.39.19-.21.07-.44-.04-.51-.25-.07-.21.04-.44.25-.51.3-.1.55-.35.65-.65.07-.21.3-.32.51-.25.21.07.32.3.25.51ZM28.15,32.8c.61-.61,0-2.22-1.37-3.59-1.37-1.37-2.98-1.98-3.59-1.37-.61.61,0,2.22,1.37,3.59,1.37,1.37,2.98,1.98,3.59,1.37ZM32.8,28.15c.61-.61,0-2.22-1.37-3.59s-2.98-1.98-3.59-1.37c-.61.61,0,2.22,1.37,3.59,1.37,1.37,2.98,1.98,3.59,1.37Z"/></g><text class="cls-4" transform="translate(32.35 86.17) rotate(-45)"><tspan x="0" y="0">DIV ON</tspan></text></g></svg>