<?xml version="1.0" encoding="UTF-8"?><svg id="Capa_2" xmlns="http://www.w3.org/2000/svg" xmlns:xlink="http://www.w3.org/1999/xlink" viewBox="0 0 186.83 120"><defs><style>.cls-1,.cls-2{font-family:Montserrat-ExtraBold, Montserrat;font-size:12.3px;font-weight:700;}.cls-1,.cls-2,.cls-3{fill:#171717;}.cls-4{fill:#fff;}.cls-2{filter:url(#drop-shadow-2);}.cls-5{fill:url(#New_Gradient_Swatch_3);}.cls-6{filter:url(#drop-shadow-1);}</style><filter id="drop-shadow-1" x="-12.21" y="-10.96" width="211.44" height="141.6" filterUnits="userSpaceOnUse"><feOffset dx="3" dy="2"/><feGaussianBlur result="blur" stdDeviation="5"/><feFlood flood-color="#000" flood-opacity=".75"/><feComposite in2="blur" operator="in"/><feComposite in="SourceGraphic"/></filter><linearGradient id="New_Gradient_Swatch_3" x1="151.02" y1="3.66" x2="25.39" y2="116.21" gradientUnits="userSpaceOnUse"><stop offset="0" stop-color="#ff41ed"/><stop offset=".29" stop-color="#3f98f9"/><stop offset=".62" stop-color="#3cffd0"/><stop offset=".84" stop-color="#ff7e41"/><stop offset="1" stop-color="#ffe441"/></linearGradient><filter id="drop-shadow-2" filterUnits="userSpaceOnUse"><feOffset dx="3" dy="2"/><feGaussianBlur result="blur-2" stdDeviation="5"/><feFlood flood-color="#000" flood-opacity=".75"/><feComposite in2="blur-2" operator="in"/><feComposite in="SourceGraphic"/></filter></defs><g id="TEXTS"><g class="cls-6"><path class="cls-3" d="M90.59,113.13c-23.64,0-45.94-5.48-62.8-15.43C10.11,87.25.37,73.09.37,57.81S10.11,28.36,27.79,17.92C44.64,7.96,66.94,2.48,90.59,2.48s45.94,5.48,62.8,15.43c17.68,10.44,27.41,24.61,27.41,39.89s-9.74,29.45-27.41,39.89c-16.85,9.95-39.15,15.43-62.8,15.43Z"/><path class="cls-4" d="M90.59,113.5c-23.71,0-46.08-5.5-62.99-15.49C9.8,87.51,0,73.23,0,57.81S9.8,28.1,27.6,17.59C44.51,7.61,66.88,2.11,90.59,2.11s46.08,5.5,62.99,15.49c17.8,10.51,27.6,24.79,27.6,40.21s-9.8,29.7-27.6,40.21c-16.91,9.99-39.28,15.49-62.99,15.49ZM90.59,2.86c-23.58,0-45.81,5.46-62.6,15.38C10.42,28.61.75,42.66.75,57.81s9.67,29.2,27.23,39.57c16.8,9.92,39.03,15.38,62.6,15.38s45.81-5.46,62.6-15.38c17.56-10.37,27.23-24.42,27.23-39.57s-9.67-29.2-27.23-39.57c-16.8-9.92-39.03-15.38-62.6-15.38Z"/><ellipse class="cls-5" cx="90.59" cy="57.81" rx="85.21" ry="50.32"/><path class="cls-3" d="M131.78,37.3c-7.69,0-14.43,4.09-18.06,10.16-.05.05-.09.12-.11.19-.98,1.68-1.73,3.51-2.2,5.45-.47-1.94-1.21-3.77-2.2-5.45-.02-.07-.06-.14-.11-.19-3.64-6.07-10.37-10.16-18.06-10.16s-14.42,4.09-18.06,10.16c-.05.05-.09.12-.11.19-.98,1.68-1.73,3.51-2.2,5.45-.47-1.94-1.21-3.77-2.2-5.45-.02-.07-.06-.14-.11-.19-3.64-6.07-10.37-10.16-18.06-10.16-.31,0-.56.25-.56.56v39.88c0,.31.25.56.56.56,7.69,0,14.42-4.09,18.06-10.16.05-.05.09-.12.11-.19.98-1.68,1.73-3.51,2.2-5.45.47,1.94,1.21,3.77,2.2,5.45.02.07.06.14.11.19,3.64,6.07,10.37,10.16,18.06,10.16s14.42-4.09,18.06-10.16c.05-.05.09-.12.11-.19.98-1.68,1.73-3.51,2.2-5.45.47,1.94,1.21,3.77,2.2,5.45.02.07.06.13.11.19,3.64,6.07,10.37,10.16,18.06,10.16.31,0,.56-.25.56-.56v-39.88c0-.31-.25-.56-.56-.56ZM111.98,58.37h5.66c.06,3.18.62,6.18,1.57,8.85h-4.75c-1.5-2.63-2.39-5.64-2.49-8.85ZM108.34,67.21h-4.75c.95-2.66,1.51-5.66,1.57-8.85h5.66c-.09,3.2-.98,6.21-2.49,8.85ZM71.24,58.37h5.66c.06,3.18.62,6.18,1.57,8.85h-4.75c-1.5-2.63-2.39-5.64-2.49-8.85ZM67.6,67.21h-4.75c.95-2.66,1.51-5.66,1.57-8.85h5.66c-.09,3.2-.98,6.21-2.49,8.85ZM70.09,57.24h-5.66c-.06-3.18-.62-6.18-1.57-8.85h4.75c1.5,2.63,2.39,5.64,2.49,8.85ZM63.3,57.24h-5.66c-.03-3.2-.31-6.2-.79-8.85h4.82c.99,2.63,1.57,5.64,1.63,8.85ZM50.85,67.21v-8.85h5.66c-.03,3.3-.32,6.28-.79,8.85h-4.87ZM55.5,68.33c-1.08,5-2.86,8.19-4.64,8.76v-8.76h4.64ZM50.85,57.24v-8.85h4.87c.47,2.56.76,5.54.79,8.85h-5.66ZM56.63,47.27c-.78-3.72-1.98-6.65-3.42-8.35,3.34,1.14,6.19,4.2,8,8.35h-4.58ZM55.5,47.27h-4.64v-8.76c1.78.56,3.57,3.76,4.64,8.76ZM56.63,68.33h4.58c-1.81,4.15-4.67,7.21-8,8.35,1.44-1.7,2.64-4.63,3.42-8.35ZM56.85,67.21c.48-2.65.76-5.64.79-8.85h5.66c-.06,3.2-.65,6.21-1.63,8.85h-4.82ZM73.72,48.4h4.75c-.95,2.66-1.51,5.66-1.57,8.85h-5.66c.09-3.2.98-6.21,2.49-8.85ZM110.83,57.24h-5.66c-.06-3.18-.62-6.18-1.57-8.85h4.75c1.5,2.63,2.39,5.64,2.49,8.85ZM104.04,57.24h-5.66c-.03-3.2-.31-6.2-.79-8.85h4.82c.99,2.63,1.57,5.64,1.63,8.85ZM91.6,77.09v-8.76h4.64c-1.08,5-2.86,8.19-4.64,8.76ZM85.83,68.33h4.64v8.76c-1.78-.56-3.57-3.76-4.64-8.76ZM90.47,38.51v8.76h-4.64c1.08-5,2.86-8.19,4.64-8.76ZM96.24,47.27h-4.64v-8.76c1.78.56,3.57,3.76,4.64,8.76ZM90.47,48.4v8.85h-5.66c.03-3.3.32-6.28.79-8.85h4.87ZM90.47,58.37v8.85h-4.87c-.47-2.56-.76-5.54-.79-8.85h5.66ZM91.6,67.21v-8.85h5.66c-.03,3.3-.32,6.28-.79,8.85h-4.87ZM91.6,57.24v-8.85h4.87c.47,2.56.76,5.54.79,8.85h-5.66ZM97.37,47.27c-.78-3.72-1.98-6.65-3.42-8.35,3.34,1.14,6.19,4.2,8,8.35h-4.58ZM84.7,47.27h-4.58c1.81-4.15,4.67-7.21,8-8.35-1.44,1.7-2.64,4.63-3.42,8.35ZM84.48,48.4c-.48,2.65-.76,5.64-.79,8.85h-5.66c.06-3.2.65-6.21,1.63-8.85h4.82ZM78.02,58.37h5.66c.03,3.2.31,6.2.79,8.85h-4.82c-.99-2.63-1.57-5.64-1.63-8.85ZM84.7,68.33c.78,3.72,1.98,6.65,3.42,8.35-3.34-1.14-6.19-4.2-8-8.35h4.58ZM97.37,68.33h4.58c-1.81,4.15-4.67,7.21-8,8.35,1.44-1.7,2.64-4.63,3.42-8.35ZM97.59,67.21c.48-2.65.76-5.64.79-8.85h5.66c-.06,3.2-.65,6.21-1.63,8.85h-4.82ZM114.47,48.4h4.75c-.95,2.66-1.51,5.66-1.57,8.85h-5.66c.09-3.2.98-6.21,2.49-8.85ZM125.55,57.24c.03-3.3.32-6.28.79-8.85h4.87v8.85h-5.66ZM131.21,58.37v8.85h-4.87c-.47-2.56-.76-5.54-.79-8.85h5.66ZM126.57,47.27c1.08-5,2.86-8.19,4.64-8.76v8.76h-4.64ZM125.44,47.27h-4.58c1.81-4.15,4.67-7.21,8-8.35-1.44,1.7-2.64,4.63-3.42,8.35ZM125.22,48.4c-.48,2.65-.76,5.64-.79,8.85h-5.66c.06-3.2.65-6.21,1.63-8.85h4.82ZM118.77,58.37h5.66c.03,3.2.31,6.2.79,8.85h-4.82c-.99-2.63-1.57-5.64-1.63-8.85ZM125.44,68.33c.78,3.72,1.98,6.65,3.42,8.35-3.34-1.14-6.19-4.2-8-8.35h4.58ZM126.57,68.33h4.64v8.76c-1.78-.56-3.57-3.76-4.64-8.76ZM125.53,39.41c-2.44,1.75-4.49,4.49-5.89,7.86h-4.49c2.43-3.65,6.07-6.46,10.37-7.86ZM107.65,47.27h-4.49c-1.4-3.36-3.44-6.1-5.87-7.85,4.29,1.4,7.94,4.2,10.36,7.85ZM84.78,39.42c-2.44,1.75-4.48,4.49-5.87,7.85h-4.49c2.42-3.65,6.07-6.45,10.36-7.85ZM66.91,47.27h-4.49c-1.4-3.37-3.44-6.11-5.89-7.86,4.3,1.4,7.95,4.21,10.37,7.86ZM56.53,76.19c2.44-1.75,4.49-4.49,5.89-7.86h4.49c-2.43,3.65-6.07,6.46-10.37,7.86ZM74.42,68.33h4.49c1.4,3.36,3.44,6.1,5.87,7.85-4.29-1.4-7.94-4.2-10.36-7.85ZM97.29,76.19c2.44-1.75,4.48-4.49,5.87-7.85h4.49c-2.42,3.65-6.07,6.45-10.36,7.85ZM115.16,68.33h4.49c1.4,3.37,3.44,6.11,5.89,7.86-4.3-1.4-7.95-4.21-10.37-7.86Z"/></g><text class="cls-2" transform="translate(23.02 58.14) rotate(-75.05)"><tspan x="0" y="0">D</tspan></text><text class="cls-1" transform="translate(26.49 47.54) rotate(-49.51)"><tspan x="0" y="0">E</tspan></text><text class="cls-1" transform="translate(32.95 40.41) rotate(-35.22)"><tspan x="0" y="0">S</tspan></text><text class="cls-1" transform="translate(40.77 35.04) rotate(-25.12)"><tspan x="0" y="0">A</tspan></text><text class="cls-1" transform="translate(51.01 30.41) rotate(-17.45)"><tspan x="0" y="0">R</tspan></text><text class="cls-1" transform="translate(61.3 27.29) rotate(-11.44)"><tspan x="0" y="0">R</tspan></text><text class="cls-1" transform="translate(71.86 25.21) rotate(-5.95)"><tspan x="0" y="0">O</tspan></text><text class="cls-1" transform="translate(83.88 24.09) rotate(-1.26)"><tspan x="0" y="0">L</tspan></text><text class="cls-1" transform="translate(93.09 23.95) rotate(2.69)"><tspan x="0" y="0">L</tspan></text><text class="cls-1" transform="translate(102.14 24.37) rotate(7.42)"><tspan x="0" y="0">O</tspan></text><text class="cls-1" transform="translate(114.11 26.11) rotate(11.68)"><tspan x="0" y="0"> </tspan></text><text class="cls-1" transform="translate(119.31 26.97) rotate(17.72)"><tspan x="0" y="0">W</tspan></text><text class="cls-1" transform="translate(134.36 32.1) rotate(27.01)"><tspan x="0" y="0">E</tspan></text><text class="cls-1" transform="translate(143.03 36.53) rotate(38.01)"><tspan x="0" y="0">B</tspan></text><text class="cls-1" transform="translate(151.3 43.54) rotate(50.83)"><tspan x="0" y="0"> </tspan></text><text class="cls-1" transform="translate(154.4 47.44) rotate(63.65)"><tspan x="0" y="0">•</tspan></text><text class="cls-1" transform="translate(156.85 52.93) rotate(79.78)"><tspan x="0" y="0"> </tspan></text><text class="cls-1" transform="translate(158.15 57.56) rotate(105.21)"><tspan x="0" y="0">D</tspan></text><text class="cls-1" transform="translate(154.63 68.15) rotate(130.67)"><tspan x="0" y="0">E</tspan></text><text class="cls-1" transform="translate(148.13 75.27) rotate(144.91)"><tspan x="0" y="0">S</tspan></text><text class="cls-1" transform="translate(140.33 80.61) rotate(154.94)"><tspan x="0" y="0">A</tspan></text><text class="cls-1" transform="translate(130.07 85.23) rotate(162.61)"><tspan x="0" y="0">R</tspan></text><text class="cls-1" transform="translate(119.8 88.34) rotate(168.59)"><tspan x="0" y="0">R</tspan></text><text class="cls-1" transform="translate(109.24 90.41) rotate(174.09)"><tspan x="0" y="0">O</tspan></text><text class="cls-1" transform="translate(97.19 91.53) rotate(178.78)"><tspan x="0" y="0">L</tspan></text><text class="cls-1" transform="translate(87.97 91.67) rotate(-177.27)"><tspan x="0" y="0">L</tspan></text><text class="cls-1" transform="translate(78.93 91.23) rotate(-172.54)"><tspan x="0" y="0">O</tspan></text><text class="cls-1" transform="translate(66.97 89.48) rotate(-168.27)"><tspan x="0" y="0"> </tspan></text><text class="cls-1" transform="translate(61.78 88.63) rotate(-162.22)"><tspan x="0" y="0">W</tspan></text><text class="cls-1" transform="translate(46.74 83.48) rotate(-152.92)"><tspan x="0" y="0">E</tspan></text><text class="cls-1" transform="translate(38.06 79.03) rotate(-141.86)"><tspan x="0" y="0">B</tspan></text><text class="cls-1" transform="translate(29.81 72.01) rotate(-128.98)"><tspan x="0" y="0"> </tspan></text><text class="cls-1" transform="translate(26.71 68.07) rotate(-116.05)"><tspan x="0" y="0">•</tspan></text><text class="cls-1" transform="translate(24.3 62.6) rotate(-99.95)"><tspan x="0" y="0"> </tspan></text><text class="cls-1" transform="translate(23.63 57.76) rotate(-84.01)"><tspan x="0" y="0"> </tspan></text></g></svg>