<?xml version="1.0" encoding="UTF-8"?><svg id="Capa_2" xmlns="http://www.w3.org/2000/svg" xmlns:xlink="http://www.w3.org/1999/xlink" viewBox="0 0 215 215"><defs><style>.cls-1{fill:#fff;}.cls-2{filter:url(#drop-shadow-2);}.cls-2,.cls-3{font-family:Montserrat-ExtraBold, Montserrat;font-size:14.46px;font-weight:700;}.cls-2,.cls-3,.cls-4{fill:#171717;}.cls-5{fill:url(#New_Gradient_Swatch_3);}.cls-6{filter:url(#drop-shadow-1);}</style><filter id="drop-shadow-1" x="9.8" y="10.04" width="195.36" height="195.36" filterUnits="userSpaceOnUse"><feOffset dx="3" dy="2"/><feGaussianBlur result="blur" stdDeviation="5"/><feFlood flood-color="#000" flood-opacity=".75"/><feComposite in2="blur" operator="in"/><feComposite in="SourceGraphic"/></filter><linearGradient id="New_Gradient_Swatch_3" x1="27.23" y1="105.65" x2="181.55" y2="105.65" gradientTransform="translate(105.28 -42.87) rotate(45)" gradientUnits="userSpaceOnUse"><stop offset="0" stop-color="#ff41ed"/><stop offset=".29" stop-color="#3f98f9"/><stop offset=".62" stop-color="#3cffd0"/><stop offset=".84" stop-color="#ff7e41"/><stop offset="1" stop-color="#ffe441"/></linearGradient><filter id="drop-shadow-2" filterUnits="userSpaceOnUse"><feOffset dx="3" dy="2"/><feGaussianBlur result="blur-2" stdDeviation="5"/><feFlood flood-color="#000" flood-opacity=".75"/><feComposite in2="blur-2" operator="in"/><feComposite in="SourceGraphic"/></filter></defs><g id="TEXTS"><g class="cls-6"><path class="cls-4" d="M104.39,187.81c-45.31,0-82.16-36.86-82.16-82.16S59.08,23.48,104.39,23.48s82.16,36.86,82.16,82.16-36.86,82.16-82.16,82.16Z"/><path class="cls-1" d="M104.39,188.19c-45.51,0-82.54-37.03-82.54-82.54S58.88,23.11,104.39,23.11s82.54,37.03,82.54,82.54-37.03,82.54-82.54,82.54ZM104.39,23.86c-45.1,0-81.79,36.69-81.79,81.79s36.69,81.79,81.79,81.79,81.79-36.69,81.79-81.79S149.49,23.86,104.39,23.86Z"/><circle class="cls-5" cx="104.39" cy="105.65" r="77.16" transform="translate(-44.13 104.76) rotate(-45)"/><path class="cls-4" d="M104.39,112.68c-3.88,0-7.03-3.15-7.03-7.03s3.15-7.03,7.03-7.03,7.03,3.15,7.03,7.03-3.15,7.03-7.03,7.03ZM104.39,88.36c4.69,0,8.94,1.87,12.05,4.9l12.5-30.82c-7.24-4.12-15.62-6.49-24.55-6.49s-17.31,2.37-24.55,6.49l12.5,30.82c3.11-3.03,7.36-4.9,12.05-4.9ZM154.09,105.99c-.05,8.34-2.19,16.77-6.65,24.51-4.47,7.74-10.7,13.8-17.9,18.01l-20.44-26.23c7.26-2.05,12.58-8.72,12.58-16.64,0-1.46-.18-2.88-.53-4.24l32.93,4.59ZM99.68,122.28l-20.44,26.23c-7.19-4.21-13.43-10.28-17.9-18.01-4.47-7.74-6.6-16.17-6.65-24.51l32.93-4.59c-.34,1.36-.53,2.78-.53,4.24,0,7.92,5.32,14.59,12.58,16.64Z"/></g><text class="cls-2" transform="translate(85.41 47.72) rotate(-12.56)"><tspan x="0" y="0">D</tspan></text><text class="cls-3" transform="translate(98.61 44.98) rotate(-.08)"><tspan x="0" y="0">A</tspan></text><text class="cls-3" transform="translate(111.64 45.13) rotate(12.4)"><tspan x="0" y="0">N</tspan></text><text class="cls-3" transform="translate(124.66 48.43) rotate(21.88)"><tspan x="0" y="0">I</tspan></text><text class="cls-3" transform="translate(130.92 50.9) rotate(30.44)"><tspan x="0" y="0">E</tspan></text><text class="cls-3" transform="translate(140.71 56.88) rotate(40.8)"><tspan x="0" y="0">L</tspan></text><text class="cls-3" transform="translate(148.59 64.06) rotate(48.72)"><tspan x="0" y="0"> </tspan></text><text class="cls-3" transform="translate(152.57 68.74) rotate(54.56)"><tspan x="0" y="0"> </tspan></text><text class="cls-3" transform="translate(156.16 73.56) rotate(63.51)"><tspan x="0" y="0">V</tspan></text><text class="cls-3" transform="translate(161.58 84.92) rotate(74.63)"><tspan x="0" y="0">E</tspan></text><text class="cls-3" transform="translate(164.46 96.01) rotate(85.42)"><tspan x="0" y="0">E</tspan></text><text class="cls-3" transform="translate(165.17 107.45) rotate(95.89)"><tspan x="0" y="0">L</tspan></text><text class="cls-3" transform="translate(163.96 117.98) rotate(106.32)"><tspan x="0" y="0">E</tspan></text><text class="cls-3" transform="translate(160.59 128.91) rotate(117.11)"><tspan x="0" y="0">Z</tspan></text><text class="cls-3" transform="translate(155 139.11) rotate(125.41)"><tspan x="0" y="0"> </tspan></text><text class="cls-3" transform="translate(151.36 144.05) rotate(131.19)"><tspan x="0" y="0"> </tspan></text><text class="cls-3" transform="translate(147.29 148.61) rotate(137.61)"><tspan x="0" y="0">•</tspan></text><text class="cls-3" transform="translate(141.69 153.52) rotate(144.06)"><tspan x="0" y="0"> </tspan></text><text class="cls-3" transform="translate(136.67 157.04) rotate(149.9)"><tspan x="0" y="0"> </tspan></text><text class="cls-3" transform="translate(131.55 160.2) rotate(159.19)"><tspan x="0" y="0">D</tspan></text><text class="cls-3" transform="translate(118.86 164.81) rotate(171.52)"><tspan x="0" y="0">A</tspan></text><text class="cls-3" transform="translate(105.94 166.57) rotate(-175.97)"><tspan x="0" y="0">N</tspan></text><text class="cls-3" transform="translate(92.6 165.21) rotate(-166.46)"><tspan x="0" y="0">I</tspan></text><text class="cls-3" transform="translate(86.04 163.67) rotate(-157.87)"><tspan x="0" y="0">E</tspan></text><text class="cls-3" transform="translate(75.5 159.17) rotate(-147.53)"><tspan x="0" y="0">L</tspan></text><text class="cls-3" transform="translate(66.65 153.2) rotate(-139.65)"><tspan x="0" y="0"> </tspan></text><text class="cls-3" transform="translate(62.05 149.16) rotate(-133.86)"><tspan x="0" y="0"> </tspan></text><text class="cls-3" transform="translate(57.77 144.9) rotate(-124.88)"><tspan x="0" y="0">V</tspan></text><text class="cls-3" transform="translate(50.75 134.44) rotate(-113.6)"><tspan x="0" y="0">E</tspan></text><text class="cls-3" transform="translate(46.32 123.9) rotate(-102.95)"><tspan x="0" y="0">E</tspan></text><text class="cls-3" transform="translate(43.95 112.69) rotate(-92.52)"><tspan x="0" y="0">L</tspan></text><text class="cls-3" transform="translate(43.6 102.11) rotate(-82.05)"><tspan x="0" y="0">E</tspan></text><text class="cls-3" transform="translate(45.35 90.77) rotate(-71.18)"><tspan x="0" y="0">Z</tspan></text><text class="cls-3" transform="translate(49.42 79.88) rotate(-62.89)"><tspan x="0" y="0"> </tspan></text><text class="cls-3" transform="translate(52.3 74.45) rotate(-57.12)"><tspan x="0" y="0"> </tspan></text><text class="cls-3" transform="translate(55.7 69.38) rotate(-51.37)"><tspan x="0" y="0"> </tspan></text><text class="cls-3" transform="translate(59.57 64.64) rotate(-44.97)"><tspan x="0" y="0">•</tspan></text></g></svg>