<?xml version="1.0" encoding="UTF-8"?><svg id="Capa_2" xmlns="http://www.w3.org/2000/svg" xmlns:xlink="http://www.w3.org/1999/xlink" viewBox="0 0 250.99 105.78"><defs><style>.cls-1{letter-spacing:0em;}.cls-2,.cls-3{font-family:Montserrat-BlackItalic, Montserrat;font-size:46.01px;font-style:italic;font-weight:800;}.cls-2,.cls-4{fill:#171717;}.cls-5{filter:url(#drop-shadow-2);}.cls-6{fill:#fff;}.cls-7{letter-spacing:-.02em;}.cls-3{fill:none;stroke:#000;stroke-miterlimit:10;}.cls-8{fill:url(#New_Gradient_Swatch_3);}.cls-9{filter:url(#drop-shadow-1);}</style><filter id="drop-shadow-1" x="-12.05" y="-13.24" width="281.28" height="128.88" filterUnits="userSpaceOnUse"><feOffset dx="3" dy="2"/><feGaussianBlur result="blur" stdDeviation="5"/><feFlood flood-color="#000" flood-opacity=".75"/><feComposite in2="blur" operator="in"/><feComposite in="SourceGraphic"/></filter><linearGradient id="New_Gradient_Swatch_3" x1="26.06" y1="133.27" x2="224.07" y2="-14.65" gradientUnits="userSpaceOnUse"><stop offset="0" stop-color="#ff41ed"/><stop offset=".29" stop-color="#3f98f9"/><stop offset=".62" stop-color="#3cffd0"/><stop offset=".84" stop-color="#ff7e41"/><stop offset="1" stop-color="#ffe441"/></linearGradient><filter id="drop-shadow-2" x="41.55" y="-8.48" width="218" height="132" filterUnits="userSpaceOnUse"><feOffset dx="3" dy="2"/><feGaussianBlur result="blur-2" stdDeviation="5"/><feFlood flood-color="#000" flood-opacity=".75"/><feComposite in2="blur-2" operator="in"/><feComposite in="SourceGraphic"/></filter></defs><g id="TEXTS"><g class="cls-9"><path class="cls-4" d="M245.62.38H22.4C10.25.38.37,10.25.37,22.4v70.7c0,2.76,2.24,5,5,5h240.25c2.76,0,5-2.24,5-5V5.38c0-2.76-2.24-5-5-5Z"/><path class="cls-6" d="M245.62,98.47H5.37c-2.96,0-5.37-2.41-5.37-5.38V22.4C0,10.05,10.05,0,22.4,0h223.22c2.96,0,5.37,2.41,5.37,5.38v87.72c0,2.96-2.41,5.38-5.37,5.38ZM22.4.75C10.46.75.75,10.46.75,22.4v70.7c0,2.55,2.07,4.62,4.62,4.62h240.24c2.55,0,4.62-2.08,4.62-4.62V5.38c0-2.55-2.08-4.62-4.62-4.62H22.4Z"/><rect class="cls-8" x="31.48" y="5.38" width="214.14" height="87.72"/><path class="cls-4" d="M39.42,65.84H5.37V22.4c0-9.4,7.62-17.02,17.02-17.02h9.09l7.94,60.46Z"/><path class="cls-6" d="M39.42,66.21H5.37c-.21,0-.37-.17-.37-.38V22.4c0-9.59,7.8-17.4,17.4-17.4h9.09c.19,0,.35.14.37.33l7.94,60.46c.01.11-.02.21-.09.3-.07.08-.17.13-.28.13ZM5.75,65.46h33.25L31.16,5.75h-8.76c-9.18,0-16.65,7.47-16.65,16.65v43.07Z"/><path class="cls-4" d="M48.51,65.84H14.46V22.4c0-9.4,7.62-17.02,17.02-17.02h0c9.4,0,17.02,7.62,17.02,17.02v43.44Z"/><path class="cls-6" d="M48.51,66.21H14.46c-.21,0-.37-.17-.37-.38V22.4c0-9.59,7.8-17.4,17.4-17.4s17.4,7.8,17.4,17.4v43.44c0,.21-.17.38-.37.38ZM14.84,65.46h33.3V22.4c0-9.18-7.47-16.65-16.65-16.65S14.84,13.22,14.84,22.4v43.07Z"/><rect class="cls-4" x="14.46" y="65.84" width="34.05" height="9.09"/><path class="cls-6" d="M48.51,75.3H14.46c-.21,0-.37-.17-.37-.38v-9.09c0-.21.17-.38.37-.38h34.05c.21,0,.37.17.37.38v9.09c0,.21-.17.38-.37.38ZM14.84,74.55h33.3v-8.34H14.84v8.34Z"/><rect class="cls-4" x="23.55" y="74.93" width="34.05" height="9.09"/><path class="cls-6" d="M57.59,84.39H23.55c-.21,0-.37-.17-.37-.38v-9.09c0-.21.17-.38.37-.38h34.05c.21,0,.37.17.37.38v9.09c0,.21-.17.38-.37.38ZM23.92,83.64h33.3v-8.34H23.92v8.34Z"/><rect class="cls-4" x="32.63" y="84.01" width="34.05" height="9.09"/><path class="cls-6" d="M66.68,93.47h-34.05c-.21,0-.37-.17-.37-.38v-9.08c0-.21.17-.38.37-.38h34.05c.21,0,.37.17.37.38v9.08c0,.21-.17.38-.37.38ZM33.01,92.72h33.3v-8.33h-33.3v8.33Z"/><polygon class="cls-4" points="23.55 84.01 23.55 74.93 14.46 74.93 14.46 65.84 5.37 65.84 5.37 74.93 5.37 84.01 5.37 93.1 32.63 93.1 32.63 84.01 23.55 84.01"/><path class="cls-6" d="M32.63,93.47H5.37c-.21,0-.37-.17-.37-.38v-27.26c0-.21.17-.38.37-.38h9.09c.21,0,.37.17.37.38v8.71h8.71c.21,0,.37.17.37.38v8.71h8.71c.21,0,.37.17.37.38v9.08c0,.21-.17.38-.37.38ZM5.75,92.72h26.51v-8.33h-8.71c-.21,0-.37-.17-.37-.38v-8.71h-8.71c-.21,0-.37-.17-.37-.38v-8.71H5.75v26.51Z"/></g><g class="cls-5"><text class="cls-2" transform="translate(54.21 44.23)"><tspan class="cls-1" x="0" y="0">D</tspan><tspan x="37.55" y="0">ANIEL</tspan></text><text class="cls-3" transform="translate(67.75 81.67)"><tspan class="cls-7" x="0" y="0">V</tspan><tspan x="35.48" y="0">ELEZ</tspan></text></g></g></svg>