<?xml version="1.0" encoding="UTF-8"?><svg id="Capa_2" xmlns="http://www.w3.org/2000/svg" xmlns:xlink="http://www.w3.org/1999/xlink" viewBox="0 0 142.46 131.68"><defs><style>.cls-1{fill:#fff;}.cls-2{fill:url(#New_Gradient_Swatch_3-2);}.cls-3,.cls-4{fill:#171717;}.cls-5{fill:url(#New_Gradient_Swatch_3);}.cls-6{filter:url(#drop-shadow-1);}.cls-7{letter-spacing:0em;}.cls-8{letter-spacing:-.05em;}.cls-4{filter:url(#drop-shadow-2);font-family:Montserrat-ExtraBold, Montserrat;font-size:20.67px;font-weight:700;}</style><filter id="drop-shadow-1" x="-12.06" y="-13.17" width="172.56" height="162" filterUnits="userSpaceOnUse"><feOffset dx="3" dy="2"/><feGaussianBlur result="blur" stdDeviation="5"/><feFlood flood-color="#000" flood-opacity=".75"/><feComposite in2="blur" operator="in"/><feComposite in="SourceGraphic"/></filter><linearGradient id="New_Gradient_Swatch_3" x1="13.83" y1="110.61" x2="117.75" y2=".16" gradientUnits="userSpaceOnUse"><stop offset="0" stop-color="#ff41ed"/><stop offset=".29" stop-color="#3f98f9"/><stop offset=".62" stop-color="#3cffd0"/><stop offset=".84" stop-color="#ff7e41"/><stop offset="1" stop-color="#ffe441"/></linearGradient><linearGradient id="New_Gradient_Swatch_3-2" x1="13.83" y1="110.6" x2="117.75" y2=".15" xlink:href="#New_Gradient_Swatch_3"/><filter id="drop-shadow-2" filterUnits="userSpaceOnUse"><feOffset dx="3" dy="2"/><feGaussianBlur result="blur-2" stdDeviation="5"/><feFlood flood-color="#000" flood-opacity=".75"/><feComposite in2="blur-2" operator="in"/><feComposite in="SourceGraphic"/></filter></defs><g id="TEXTS"><g class="cls-6"><path class="cls-3" d="M71.23,131.31c-5.03,0-9.9-1.81-13.72-5.1l-16.8-14.48c-.31-.27-7.7-6.64-15.19-14.41-5.1-5.29-9.21-10.12-12.56-14.76C1.68,66.9.37,54.83.37,47.1.37,21.34,21.34.37,47.1.37c8.4,0,16.84,2.38,24.13,6.76,7.28-4.38,15.72-6.76,24.12-6.76,25.77,0,46.73,20.96,46.73,46.73,0,16.13-7.19,27.96-12.6,35.46-3.34,4.63-7.45,9.46-12.56,14.76-7.28,7.55-14.4,13.73-15.19,14.41l-16.8,14.48c-3.81,3.29-8.68,5.1-13.71,5.1Z"/><path class="cls-1" d="M71.23,131.68c-5.12,0-10.08-1.84-13.96-5.19l-16.8-14.48c-.08-.06-7.64-6.58-15.21-14.44-5.12-5.31-9.24-10.15-12.59-14.8C1.31,67.04,0,54.88,0,47.1,0,21.13,21.13,0,47.1,0c8.42,0,16.76,2.31,24.13,6.69,7.37-4.38,15.7-6.69,24.12-6.69,25.97,0,47.1,21.13,47.1,47.1,0,16.24-7.23,28.14-12.67,35.68-3.35,4.65-7.47,9.49-12.59,14.8-7.29,7.56-14.42,13.75-15.21,14.43l-16.8,14.48c-3.88,3.34-8.84,5.19-13.96,5.19ZM47.1.75C21.54.75.75,21.54.75,47.1c0,7.67,1.3,19.67,12.53,35.24,3.33,4.62,7.43,9.43,12.52,14.72,7.55,7.83,15.09,14.32,15.16,14.39l16.8,14.48c3.74,3.23,8.53,5.01,13.47,5.01s9.73-1.78,13.47-5l16.8-14.48c.79-.68,7.9-6.86,15.17-14.39,5.1-5.29,9.19-10.1,12.52-14.72,5.38-7.46,12.52-19.22,12.52-35.24C141.71,21.54,120.91.75,95.35.75c-8.36,0-16.64,2.32-23.93,6.7-.12.07-.27.07-.39,0C63.74,3.07,55.46.75,47.1.75Z"/><path class="cls-5" d="M71.23,126.31c-3.83,0-7.55-1.38-10.45-3.88l-16.8-14.48c-.3-.26-7.54-6.51-14.86-14.1-4.94-5.12-8.9-9.77-12.1-14.21-10.44-14.48-11.65-25.51-11.65-32.54C5.38,24.09,24.09,5.37,47.1,5.37c8.62,0,17.1,2.76,24.13,7.72,7.03-4.97,15.5-7.72,24.13-7.72,23.01,0,41.73,18.72,41.73,41.73,0,14.68-6.65,25.6-11.65,32.54-3.2,4.44-7.16,9.09-12.1,14.22-7.3,7.58-14.55,13.83-14.86,14.1l-16.79,14.48c-2.9,2.5-6.62,3.88-10.45,3.88Z"/><path class="cls-3" d="M71.23,118.31c-1.86,0-3.72-.65-5.22-1.94l-16.8-14.48c-.3-.26-7.31-6.32-14.32-13.59-4.67-4.85-8.39-9.21-11.37-13.34-9.09-12.6-10.14-21.93-10.14-27.85,0-18.6,15.13-33.73,33.73-33.73,9.23,0,17.89,3.82,24.13,10.19,6.23-6.36,14.89-10.19,24.13-10.19,18.6,0,33.73,15.13,33.73,33.73,0,12.36-5.79,21.82-10.14,27.85-2.98,4.13-6.7,8.49-11.37,13.34-7.04,7.3-14.03,13.34-14.32,13.59l-16.8,14.48c-1.5,1.29-3.36,1.94-5.22,1.94Z"/><path class="cls-2" d="M71.23,110.31l-16.8-14.48c-.28-.24-7.01-6.05-13.78-13.08-4.41-4.57-7.89-8.65-10.64-12.47-7.73-10.73-8.63-18.36-8.63-23.17,0-14.21,11.52-25.72,25.72-25.72,11.06,0,20.49,6.98,24.13,16.78,3.63-9.8,13.06-16.78,24.13-16.78,14.21,0,25.72,11.52,25.72,25.72,0,10.05-4.92,18.04-8.63,23.17-2.75,3.82-6.23,7.89-10.64,12.47-6.78,7.03-13.5,12.84-13.78,13.08l-16.8,14.48Z"/></g><text class="cls-4" transform="translate(49.8 62.02)"><tspan x="0" y="0">S</tspan><tspan class="cls-8" x="13.37" y="0">A</tspan><tspan x="28.51" y="0">Y</tspan><tspan x="-1.88" y="20.46">D</tspan><tspan class="cls-7" x="15.19" y="20.46">E</tspan><tspan x="28.88" y="20.46">V</tspan></text></g></svg>