<?xml version="1.0" encoding="UTF-8"?><svg id="Capa_2" xmlns="http://www.w3.org/2000/svg" xmlns:xlink="http://www.w3.org/1999/xlink" viewBox="0 0 79.23 77.86"><defs><style>.cls-1{letter-spacing:-.02em;}.cls-2{letter-spacing:0em;}.cls-3{filter:url(#drop-shadow-2);font-family:Montserrat-BlackItalic, Montserrat;font-size:9.47px;font-style:italic;font-weight:800;}.cls-3,.cls-4{fill:#171717;}.cls-5{fill:#fff;}.cls-6{fill:url(#New_Gradient_Swatch_3);}.cls-7{filter:url(#drop-shadow-1);}.cls-8{letter-spacing:-.02em;}.cls-9{letter-spacing:-.04em;}</style><filter id="drop-shadow-1" x="-12.05" y="-13.06" width="107.76" height="107.76" filterUnits="userSpaceOnUse"><feOffset dx="3" dy="2"/><feGaussianBlur result="blur" stdDeviation="5"/><feFlood flood-color="#000" flood-opacity=".75"/><feComposite in2="blur" operator="in"/><feComposite in="SourceGraphic"/></filter><linearGradient id="New_Gradient_Swatch_3" x1="10.92" y1="85.63" x2="64.9" y2="-4.9" gradientUnits="userSpaceOnUse"><stop offset="0" stop-color="#ff41ed"/><stop offset=".29" stop-color="#3f98f9"/><stop offset=".62" stop-color="#3cffd0"/><stop offset=".84" stop-color="#ff7e41"/><stop offset="1" stop-color="#ffe441"/></linearGradient><filter id="drop-shadow-2" filterUnits="userSpaceOnUse"><feOffset dx="3" dy="2"/><feGaussianBlur result="blur-2" stdDeviation="5"/><feFlood flood-color="#000" flood-opacity=".75"/><feComposite in2="blur-2" operator="in"/><feComposite in="SourceGraphic"/></filter></defs><g id="TEXTS"><g class="cls-7"><path class="cls-4" d="M5.37,77.29c-1.3,0-2.58-.5-3.54-1.46-1.57-1.57-1.92-3.98-.85-5.93,12.94-23.75,14.58-33.27,9.22-53.58-.45-1.72.04-3.55,1.3-4.81.95-.95,2.23-1.46,3.54-1.46.42,0,.85.05,1.28.17,7.48,1.97,13.09,2.85,18.21,2.85,9.76,0,19.02-3.16,35.37-12.07.75-.41,1.58-.61,2.39-.61,1.3,0,2.58.5,3.54,1.46,1.57,1.57,1.92,3.98.85,5.93-12.94,23.75-14.58,33.27-9.22,53.58.45,1.72-.04,3.55-1.3,4.81-.95.95-2.23,1.46-3.54,1.46-.43,0-.85-.05-1.28-.17-7.48-1.97-13.09-2.85-18.21-2.85-9.76,0-19.02,3.16-35.37,12.07-.75.41-1.58.61-2.39.61Z"/><path class="cls-5" d="M5.37,77.66c-1.44,0-2.79-.56-3.8-1.57-1.67-1.67-2.05-4.29-.92-6.37,12.88-23.64,14.52-33.11,9.19-53.31-.49-1.84.05-3.83,1.4-5.17,1.34-1.34,3.34-1.88,5.17-1.4,7.44,1.96,13.03,2.84,18.11,2.84,9.69,0,18.9-3.15,35.19-12.03.79-.43,1.67-.66,2.57-.66,1.44,0,2.79.56,3.8,1.57,1.67,1.67,2.05,4.3.92,6.37-12.88,23.64-14.52,33.11-9.19,53.31.49,1.84-.05,3.83-1.4,5.17-1.34,1.34-3.33,1.89-5.17,1.4-7.45-1.96-13.03-2.84-18.11-2.84-9.69,0-18.9,3.15-35.19,12.03-.79.43-1.68.66-2.57.66ZM15.03,10.41c-1.24,0-2.4.48-3.27,1.35-1.16,1.16-1.62,2.86-1.2,4.45,5.39,20.43,3.75,30-9.25,53.86-.97,1.79-.65,4.04.79,5.48.87.87,2.04,1.36,3.27,1.36.77,0,1.53-.2,2.21-.56,16.42-8.95,25.72-12.12,35.55-12.12,5.15,0,10.79.88,18.31,2.87,1.59.42,3.3-.05,4.45-1.2,1.16-1.16,1.62-2.86,1.2-4.45-5.39-20.43-3.75-30,9.25-53.86.97-1.79.65-4.04-.79-5.48-.87-.87-2.04-1.35-3.27-1.35-.77,0-1.54.2-2.21.56-16.42,8.95-25.72,12.12-35.55,12.12-5.15,0-10.79-.88-18.3-2.87-.38-.1-.78-.15-1.18-.15Z"/><path class="cls-6" d="M15.03,15.04c21.52,5.68,32.5,3.82,57.25-9.66-13.49,24.75-15.34,35.74-9.66,57.25-21.52-5.68-32.5-3.82-57.25,9.66,13.49-24.75,15.34-35.74,9.66-57.25Z"/></g><text id="RAVE_PARTY" class="cls-3" transform="translate(27.34 48.67) rotate(-45)"><tspan class="cls-8" x="0" y="0">C</tspan><tspan x="6.81" y="0">ODE</tspan><tspan class="cls-9" x="-2.52" y="9.38">P</tspan><tspan x="4.1" y="9.38">A</tspan><tspan class="cls-2" x="11.73" y="9.38">R</tspan><tspan class="cls-1" x="18.69" y="9.38">T</tspan><tspan x="24.7" y="9.38">Y</tspan></text></g></svg>