<?xml version="1.0" encoding="UTF-8"?>
<svg id="Capa_2" xmlns="http://www.w3.org/2000/svg" xmlns:xlink="http://www.w3.org/1999/xlink"
  viewBox="0 0 185.72 54.9">
  <defs>
    <style>
      .cls-1 {
        fill: url(#linear-gradient-13);
      }

      .cls-2 {
        fill: url(#linear-gradient-3);
      }

      .cls-2,
      .cls-3,
      .cls-4,
      .cls-5 {
        opacity: .6;
      }

      .cls-6 {
        fill: url(#linear-gradient-25);
      }

      .cls-7 {
        fill: url(#linear-gradient-12);
      }

      .cls-8 {
        fill: url(#linear-gradient-27);
      }

      .cls-9 {
        fill: url(#linear-gradient-26);
      }

      .cls-10 {
        fill: url(#linear-gradient-4);
      }

      .cls-11 {
        fill: url(#linear-gradient-30);
      }

      .cls-12 {
        fill: url(#linear-gradient-6);
      }

      .cls-12,
      .cls-13,
      .cls-14,
      .cls-15,
      .cls-16,
      .cls-17 {
        opacity: .8;
      }

      .cls-3 {
        fill: url(#linear-gradient-9);
      }

      .cls-13 {
        fill: url(#linear-gradient-23);
      }

      .cls-14 {
        fill: url(#linear-gradient-28);
      }

      .cls-18 {
        filter: none;
      }

      .cls-19 {
        fill: url(#linear-gradient-5);
      }

      .cls-15 {
        fill: url(#linear-gradient-2);
      }

      .cls-20 {
        fill: url(#linear-gradient-8);
      }

      .cls-16 {
        fill: url(#linear-gradient-15);
      }

      .cls-21 {
        fill: url(#linear-gradient-14);
      }

      .cls-22 {
        fill: url(#linear-gradient-29);
      }

      .cls-23 {
        fill: url(#linear-gradient-20);
      }

      .cls-24 {
        fill: url(#linear-gradient-17);
      }

      .cls-25 {
        fill: url(#linear-gradient-7);
      }

      .cls-26 {
        fill: url(#linear-gradient-11);
      }

      .cls-27 {
        fill: url(#linear-gradient-19);
      }

      .cls-4 {
        fill: url(#linear-gradient-24);
      }

      .cls-28 {
        fill: url(#linear-gradient-21);
      }

      .cls-17 {
        fill: url(#linear-gradient-10);
      }

      .cls-29 {
        fill: url(#linear-gradient-16);
      }

      .cls-30 {
        fill: url(#linear-gradient);
      }

      .cls-5 {
        fill: url(#linear-gradient-22);
      }

      .cls-31 {
        fill: url(#linear-gradient-18);
      }
    </style>
    <linearGradient id="linear-gradient" x1="140.63" y1="42.79" x2="140.63" y2="1.73"
      gradientTransform="translate(290.56 51.67) rotate(-180)" gradientUnits="userSpaceOnUse">
      <stop offset="0" stop-color="#1764ff" />
      <stop offset=".12" stop-color="#4467ff" />
      <stop offset=".29" stop-color="#7c6bff" />
      <stop offset=".45" stop-color="#ab6fff" />
      <stop offset=".61" stop-color="#cf72ff" />
      <stop offset=".75" stop-color="#e974ff" />
      <stop offset=".88" stop-color="#f975ff" />
      <stop offset=".98" stop-color="#ff76ff" />
    </linearGradient>
    <linearGradient id="linear-gradient-2" x1="140.63" y1="43.05" x2="140.63" y2="1.99" xlink:href="#linear-gradient" />
    <linearGradient id="linear-gradient-3" x1="140.63" y1="43.57" x2="140.63" y2="2.51" xlink:href="#linear-gradient" />
    <linearGradient id="linear-gradient-4" x1="141.47" y1="43.84" x2="141.47" y2="2.77" xlink:href="#linear-gradient" />
    <linearGradient id="linear-gradient-5" x1="138.94" y1="44.1" x2="138.94" y2="3.03" xlink:href="#linear-gradient" />
    <linearGradient id="linear-gradient-6" x1="140.63" y1="44.36" x2="140.63" y2="3.3" xlink:href="#linear-gradient" />
    <linearGradient id="linear-gradient-7" x1="140.63" y1="44.88" x2="140.63" y2="3.82" xlink:href="#linear-gradient" />
    <linearGradient id="linear-gradient-8" x1="141.47" y1="45.15" x2="141.47" y2="4.08" xlink:href="#linear-gradient" />
    <linearGradient id="linear-gradient-9" x1="140.63" y1="45.41" x2="140.63" y2="4.34" xlink:href="#linear-gradient" />
    <linearGradient id="linear-gradient-10" x1="138.1" y1="45.67" x2="138.1" y2="4.6" xlink:href="#linear-gradient" />
    <linearGradient id="linear-gradient-11" x1="140.63" y1="45.93" x2="140.63" y2="4.86"
      xlink:href="#linear-gradient" />
    <linearGradient id="linear-gradient-12" x1="140.63" y1="46.45" x2="140.63" y2="5.38"
      xlink:href="#linear-gradient" />
    <linearGradient id="linear-gradient-13" x1="139.78" y1="46.71" x2="139.78" y2="5.65"
      xlink:href="#linear-gradient" />
    <linearGradient id="linear-gradient-14" x1="140.63" y1="47.23" x2="140.63" y2="6.17"
      xlink:href="#linear-gradient" />
    <linearGradient id="linear-gradient-15" x1="140.63" y1="47.49" x2="140.63" y2="6.43"
      xlink:href="#linear-gradient" />
    <linearGradient id="linear-gradient-16" x1="140.63" y1="47.76" x2="140.63" y2="6.69"
      xlink:href="#linear-gradient" />
    <linearGradient id="linear-gradient-17" x1="143.15" y1="48.02" x2="143.15" y2="6.95"
      xlink:href="#linear-gradient" />
    <linearGradient id="linear-gradient-18" x1="140.63" y1="48.28" x2="140.63" y2="7.22"
      xlink:href="#linear-gradient" />
    <linearGradient id="linear-gradient-19" x1="140.63" y1="48.8" x2="140.63" y2="7.74" xlink:href="#linear-gradient" />
    <linearGradient id="linear-gradient-20" x1="140.63" y1="49.06" x2="140.63" y2="8" xlink:href="#linear-gradient" />
    <linearGradient id="linear-gradient-21" x1="141.47" y1="49.32" x2="141.47" y2="8.26"
      xlink:href="#linear-gradient" />
    <linearGradient id="linear-gradient-22" x1="138.94" y1="49.58" x2="138.94" y2="8.52"
      xlink:href="#linear-gradient" />
    <linearGradient id="linear-gradient-23" x1="140.63" y1="49.85" x2="140.63" y2="8.78"
      xlink:href="#linear-gradient" />
    <linearGradient id="linear-gradient-24" x1="140.63" y1="50.11" x2="140.63" y2="9.04"
      xlink:href="#linear-gradient" />
    <linearGradient id="linear-gradient-25" x1="140.63" y1="50.63" x2="140.63" y2="9.56"
      xlink:href="#linear-gradient" />
    <linearGradient id="linear-gradient-26" x1="139.78" y1="50.89" x2="139.78" y2="9.83"
      xlink:href="#linear-gradient" />
    <linearGradient id="linear-gradient-27" x1="140.63" y1="51.41" x2="140.63" y2="10.35"
      xlink:href="#linear-gradient" />
    <linearGradient id="linear-gradient-28" x1="142.31" y1="51.67" x2="142.31" y2="10.61"
      xlink:href="#linear-gradient" />
    <linearGradient id="linear-gradient-29" x1="-154.6" y1="54.76" x2="-154.6" y2="9.59"
      gradientTransform="translate(-61.74) rotate(-180) scale(1 -1)" gradientUnits="userSpaceOnUse">
      <stop offset="0" stop-color="#f52c94" />
      <stop offset=".12" stop-color="#e12690" />
      <stop offset=".54" stop-color="#a31384" />
      <stop offset=".84" stop-color="#7d087c" />
      <stop offset="1" stop-color="#6f047a" />
    </linearGradient>
    <linearGradient id="linear-gradient-30" x1="-154.6" y1="54.9" x2="-154.6" y2="9.46"
      gradientTransform="translate(-61.74) rotate(-180) scale(1 -1)" gradientUnits="userSpaceOnUse">
      <stop offset="0" stop-color="#ff4da9" />
      <stop offset=".35" stop-color="#da30af" />
      <stop offset=".78" stop-color="#b411b5" />
      <stop offset="1" stop-color="#a606b8" />
    </linearGradient>
  </defs>
  <g id="Layer_1">
    <g class="cls-18">
      <path class="cls-30" d="M141.56,48.77c2.62.76,5.43,1.17,8.37,1.17s5.75-.42,8.37-1.17h-16.74Z" />
      <path class="cls-15" d="M161.58,47.34h-23.3c1.05.45,2.15.85,3.28,1.17h16.74c1.13-.33,2.23-.72,3.28-1.17Z" />
      <path class="cls-2" d="M165.9,44.47h-31.95c.61.42,1.25.81,1.92,1.17h28.12c.66-.37,1.3-.76,1.92-1.17Z" />
      <path class="cls-10" d="M166.65,43.03h-35.12c.51.41,1.04.8,1.59,1.17h31.95c.55-.37,1.08-.77,1.59-1.17Z" />
      <path class="cls-19" d="M170.53,41.6h-37.83c.43.41.88.8,1.35,1.17h35.12c.47-.38.92-.77,1.35-1.17Z" />
      <path class="cls-12" d="M170.01,40.17h-40.17c.37.4.76.79,1.17,1.17h37.83c.41-.38.8-.77,1.17-1.17Z" />
      <path class="cls-25" d="M171.87,37.3h-43.89c.27.4.56.79.87,1.17h42.15c.3-.38.59-.77.87-1.17Z" />
      <path class="cls-20" d="M171.77,35.86h-45.37c.23.4.48.79.74,1.17h43.89c.26-.38.51-.77.74-1.17Z" />
      <path class="cls-3" d="M173.24,34.43h-46.61c.19.4.4.79.62,1.17h45.37c.22-.38.43-.78.62-1.17Z" />
      <path class="cls-17" d="M176.29,32.99h-47.66c.16.4.34.79.52,1.17h46.61c.19-.39.36-.78.52-1.17Z" />
      <path class="cls-26" d="M174.19,31.56h-48.52c.13.4.27.79.43,1.17h47.66c.16-.39.3-.78.43-1.17Z" />
      <path class="cls-7" d="M174.77,28.69h-49.69c.07.39.15.79.24,1.17h49.2c.1-.39.17-.78.24-1.17Z" />
      <path class="cls-1" d="M175.78,27.26h-50.01c.04.39.09.79.16,1.17h49.69c.07-.39.12-.78.16-1.17Z" />
      <path class="cls-21"
        d="M175.03,24.97c0-.2-.01-.39-.02-.59h-50.17c0,.2-.02.39-.02.59s.01.39.02.59h50.17c0-.2.02-.39.02-.59Z" />
      <path class="cls-16" d="M174.93,22.95h-50.01c-.04.39-.07.78-.08,1.17h50.17c-.01-.39-.04-.79-.08-1.17Z" />
      <path class="cls-29" d="M174.77,21.52h-49.69c-.07.39-.12.78-.16,1.17h50.01c-.04-.39-.09-.79-.16-1.17Z" />
      <path class="cls-24" d="M172,20.08h-49.2c-.1.39-.17.78-.24,1.17h49.69c-.07-.39-.15-.79-.24-1.17Z" />
      <path class="cls-31" d="M174.19,18.65h-48.52c-.13.39-.24.78-.34,1.17h49.2c-.1-.4-.21-.79-.34-1.17Z" />
      <path class="cls-27" d="M173.24,15.78h-46.61c-.19.39-.36.78-.52,1.17h47.66c-.16-.4-.34-.79-.52-1.17Z" />
      <path class="cls-23" d="M172.61,14.34h-45.37c-.22.38-.43.78-.62,1.17h46.61c-.19-.4-.4-.79-.62-1.17Z" />
      <path class="cls-28" d="M171.03,12.91h-43.89c-.26.38-.51.77-.74,1.17h45.37c-.23-.4-.48-.79-.74-1.17Z" />
      <path class="cls-5" d="M172.69,11.48h-42.16c-.3.38-.59.77-.87,1.17h43.89c-.27-.4-.56-.79-.87-1.17Z" />
      <path class="cls-13" d="M170.01,10.04h-40.17c-.35.38-.68.77-.99,1.17h42.15c-.32-.4-.65-.79-.99-1.17Z" />
      <path class="cls-4" d="M168.84,8.61h-37.83c-.41.38-.8.77-1.17,1.17h40.17c-.37-.4-.76-.79-1.17-1.17Z" />
      <path class="cls-6" d="M165.9,5.74h-31.95c-.55.37-1.08.77-1.59,1.17h35.12c-.51-.41-1.04-.8-1.59-1.17Z" />
      <path class="cls-9" d="M164.83,4.3h-28.12c-.66.37-1.3.76-1.92,1.17h31.95c-.61-.42-1.25-.81-1.92-1.17Z" />
      <path class="cls-8" d="M158.3,1.43h-16.74c-1.13.33-2.23.72-3.28,1.17h23.3c-1.05-.45-2.15-.85-3.28-1.17Z" />
      <path class="cls-14" d="M156.61,1.17c-2.62-.76-5.43-1.17-8.37-1.17s-5.75.42-8.37,1.17h16.74Z" />
      <polygon class="cls-22"
        points=".13 54.76 185.59 54.76 173.67 46.14 167.28 49.12 153.33 43.47 147.81 43.47 139.08 35.44 132.99 35.44 121.66 24.45 111.49 26.83 98.41 18.5 92.86 18.5 84.17 9.59 78.36 11.97 72.26 9.59 65.58 12.86 60.93 11.37 54.54 16.13 49.89 23.85 44.36 25.34 33.32 36.04 28.67 36.63 17.05 46.74 .13 54.76" />
      <path class="cls-11"
        d="M0,54.79c.01.06.07.1.13.1h22.62s0,0,.01,0h52.84s0,0,0,0h9.88s.02,0,.02,0h100.08s.01,0,.02,0c0,0,0,0,0,0,0,0,0,0,.01,0,0,0,0,0,0,0,0,0,0,0,.01,0,0,0,0,0,0,0,0,0,0,0,.01,0,0,0,0,0,0,0,0,0,0,0,.01,0,0,0,0,0,0,0,0,0,0,0,0,0,0,0,0,0,0-.02,0,0,0,0,0,0,0,0,0-.01,0-.02,0,0,0-.02,0-.02,0,0,0,0,0,0,0,0,0-.01,0-.02,0,0,0,0,0,0,0,0,0-.01,0-.02,0,0,0,0,0,0,0,0,0-.01,0-.02,0,0,0,0,0,0,0,0,0-.01-.01-.02,0,0,0,0,0,0,0,0,0,0,0,0,0,0,0,0-.01,0,0,0,0,0,0,0l-11.91-8.62s-.06-.03-.1-.02c0,0,0,0,0,0,0,0,0,0,0,0-.01,0-.02,0-.03,0l-6.34,2.95-13.9-5.63s-.03,0-.05,0h-5.47l-8.7-7.99h0s-.02-.02-.04-.02c0,0,0,0,0,0,0,0,0,0-.01,0,0,0,0,0-.01,0,0,0,0,0,0,0-.01,0-.02,0-.03,0h-6.02l-11.3-10.96s0,0,0,0c0,0-.01-.01-.02-.01,0,0,0,0,0,0-.02,0-.04-.02-.06-.02,0,0-.02,0-.03,0,0,0,0,0,0,0l-10.12,2.37-13.03-8.29s0,0,0,0c0,0,0,0,0,0,0,0,0,0-.01,0,0,0,0,0,0,0,0,0,0,0,0,0,0,0-.02,0-.02,0,0,0,0,0,0,0h0s0,0,0,0h-5.49l-8.64-8.87s-.02-.02-.03-.03c0,0,0,0,0,0-.01,0-.03-.01-.05-.01,0,0,0,0,0,0s0,0,0,0h0s0,0,0,0c0,0,0,0-.01,0,0,0,0,0,0,0,0,0-.01,0-.02,0l-5.76,2.36-6.06-2.36s-.06-.01-.09,0c0,0,0,0-.01,0,0,0,0,0,0,0l-4.85,2.37s0,0,0,0l-1.77.87-4.6-1.47s-.02,0-.03,0c0,0,0,0,0,0,0,0-.01,0-.02,0,0,0,0,0-.01,0,0,0-.01,0-.02,0,0,0,0,0-.01,0,0,0,0,0-.01,0,0,0,0,0-.01,0l-6.39,4.75s0,0,0,0c0,0,0,0,0,0,0,0,0,0,0,0,0,0,0,0-.01.01,0,0,0,0,0,0,0,0,0,0,0,0l-4.62,7.68-5.47,1.47s-.02,0-.03.01c0,0,0,0,0,0,0,0,0,0-.01,0,0,0,0,0,0,0,0,0,0,0,0,0,0,0,0,0,0,0l-11.01,10.67-4.61.59s-.05.01-.07.03l-5.92,5.15h0s-5.69,4.94-5.69,4.94L.26,54.56s-.01,0-.02,0l-.16.08c-.06.03-.08.09-.07.15ZM51.07,54.63l.35-4.98,4.22,1.96-1.58,3.02h-2.99ZM75.65,54.63l-1.88-1.77,5.66-2.19-.76,3.96h-3.02ZM101.22,54.63l-.7-4.44,8.97,4.44h-8.27ZM110.16,54.63l-.93-7.62h5.11l-3.07,7.62h-1.11ZM134.58,54.63l-5.54-7.74,8.73-2.39-1.51,10.13h-1.69ZM136.53,54.63l1.51-10.1,7.4,4-7.03,6.1h-1.88ZM179.07,54.63l-3.98-3.41,9.73,3.41h-5.75ZM173.57,46.34l.73,4.36-6.63-1.61,5.9-2.74ZM152.89,43.6l-6.94,4.56,1.94-4.56h5ZM147.5,43.36l-9.41.82,1.08-8.47,8.33,7.65ZM98.33,18.64l6.35,12.76-11.53-12.76h5.18ZM72.2,9.76l3.73,8.16-7.7-.54,1.49-6.4,2.48-1.21ZM65.28,12.9c-1.14.8-6.37,4.44-8.06,5.58l3.77-6.95,4.29,1.37ZM54.55,16.35l2.16,2.56-1.18,4.91-5.42-.09,4.44-7.38ZM22.79,41.92l8.79,1.27-14.05,3.29,5.25-4.57ZM7.4,51.46l8.91-4.23-5.89,5.38-3.02-1.15ZM51.43,49.37l-.17-7.92,4.3,9.84-4.13-1.92ZM79.67,50.28l-2.66-6.85,8,3.96-5.34,2.89ZM114.67,47.16l5.95,5.04-5.99,2.37.04-7.41ZM156.79,49.24l-2.99,5.33-7.72-5.91,10.71.57ZM146.07,48.4l7.22-4.75,3.46,5.32-10.69-.57ZM138.39,44.42l9.22-.8-2,4.71-7.21-3.91ZM67.81,17.87l-1.19,3.68-.96,2.98-.4-4.63,2.54-2.03ZM65.37,19.48l1.97-6.87.58,4.83-2.56,2.04ZM50.27,27.39l-6.45,3.56.65-5.43,5.8,1.88ZM30.96,49.92l7.46.29-5.69,1.37-1.77-1.66ZM92.96,49.58l-.77-4.22,7.64,4.45-6.87-.23ZM62.45,19.03l2.49.88-1.54,2.52-3.2,5.21-1.17-2.14,3.43-6.47ZM58.62,25.53l-7.37,5.32-.51-3.43,4.9-3.32,2.98,1.42ZM34.98,43.99l-9.69,2.61,7.01-3.3,2.68.69ZM60.08,34.18l.17-1.01,5.05,9.51-6.28-2.4,1.06-6.1ZM80.91,26.81l-5.5,2.75,2.02-4.92,3.48,2.17ZM75.44,30.09l9.22,3.73-5.83,2.65-3.38-6.38ZM84.71,33.55l-9.22-3.73,5.65-2.82,1.95,3.57,1.63,2.98ZM70.53,24.92l6.64-.33-2.05,5.01-4.58-4.68ZM75,29.85l-3.32,5.49-1.27-10.17,4.59,4.68ZM81.59,27.3l5.61,4.28-2.17,2.01-2.5-4.58-.94-1.72ZM87.2,31.94l-1.38,7.15-.69-5.23,2.07-1.92ZM85.64,39.68l-6.55-3.04,5.8-2.63.75,5.68ZM78.54,36.47l-6.73-.85,3.34-5.53,3.39,6.38ZM71.45,35.55l-10.97-2.84,9.66-7.66.13,1.08,1.18,9.42ZM60.83,32.1l4.84-6.79,4.15-.34-8.99,7.13ZM70.54,24.66l5.53-6.31,1.15,5.97-6.67.34ZM76.42,18.8l4.39,7.64-3.32-2.07-1.07-5.56ZM81.37,26.8l2.69-3.37,3.05,7.75-5.74-4.39ZM93.92,38.25l-6.19-6.52,6.67.56-.49,5.96ZM93.76,38.46l-7.8,1.27,1.52-7.89,6.28,6.61ZM93.84,38.72l-1.89,6.16-5.85-4.9,7.74-1.26ZM91.76,45.05l-6.32,2.14.47-7.03,5.85,4.89ZM85.21,46.8l-2.15-5.51,2.6-1.18-.45,6.69ZM79.3,37.02l6.18,2.88-2.56,1.17-3.62-4.04ZM78.6,36.75l-1.88,6.13-4.85-6.98,6.73.85ZM71.37,35.8l-5.76,6.9-5.16-9.72,10.92,2.83ZM65.33,42.98l-9.27,8.19,2.91-10.63,6.37,2.44ZM55.08,33.9l4.95-.96-1.22,7.06-3.72-6.1ZM55.23,33.61l4.83-5.37v4.43l-4.83.94ZM40.92,43.2l-3.4-3.5,8.17-2.24-4.76,5.74ZM54.6,33.77l-8.13,3.14,4.7-5.66,3.43,2.52ZM46.07,37.4l4.74,3.34-9.53,2.43,4.79-5.77ZM40.65,43.29l-4.94.54,1.61-3.96,3.33,3.43ZM45.47,37.25l-7.63,2.09,3.54-2.86h0s4.08.77,4.08.77ZM46.09,36.97l-2.24-5.66,7.02-.1-4.78,5.75ZM51.37,31.08l7.16-5.17-3.71,7.7-3.45-2.53ZM60.03,27.88l-4.64,5.16,3.5-7.26,1.15,2.1ZM54.6,34.06l-3.52,6.54-4.75-3.34,8.27-3.2ZM50.56,41.07l-10.97,8.71,1.45-6.28,9.52-2.43ZM31.15,49.66l9.58-5.99-1.46,6.3-8.12-.31ZM31.12,49.37l4.44-5.26,4.8-.52-9.25,5.78ZM35.52,43.58l-1.96-7.14,3.55,3.23-1.59,3.91ZM33.68,36.18l7.32.27-3.72,3.01-3.6-3.28ZM41.54,36.23l2.12-4.72,2.19,5.53-4.31-.82ZM44.19,31.05l6.31-3.48.5,3.38-6.81.1ZM65.46,25.1l-4.92,2.47,4.5-7.33.42,4.86ZM65.18,25.54l-4.86,6.83v-4.39l4.86-2.45ZM66.09,25.01l9.29-6.27-5.2,5.94-4.09.33ZM76.52,18.47l7.38,4.74-2.7,3.38-4.68-8.13ZM84.41,23.62l9.74,8.39-6.66-.56-3.08-7.83ZM108.84,46.44l-13.98-14.14h10.25l3.72,14.14ZM128.58,46.83l-7.64,5.2-3.46-10.93,11.09,5.73ZM117.6,40.86l15.18-5.21-4.02,10.97-11.16-5.77ZM120.61,51.85l-5.91-5,2.55-5.64,3.36,10.64ZM117.04,40.84l-7.88,5.82-3.73-14.17,11.61,8.35ZM105.67,32.34l15.77,1.14-4.21,7.17-11.56-8.31ZM108.35,46.33l-14.19-7.85.49-6.01,13.7,13.86ZM94.06,38.88l5.95,10.72-7.84-4.57,1.89-6.16ZM92.71,49.62l-6.14,2.31,5.37-6.53.77,4.22ZM86.12,51.24l-.68-3.78,6.18-2.09-5.38,6.55-.12-.68ZM85.05,47.11l-7.93-3.92,5.69-1.81,2.24,5.73ZM76.96,42.96l1.87-6.08,3.82,4.27-5.69,1.8ZM76.51,43.03l-10.66-.22,5.74-6.86,4.92,7.08ZM76.59,43.29l-3.1,9.25-7.63-9.48,10.73.22ZM72.97,52.32l-7.27-4.35v-4.67l7.27,9.02ZM65.45,47.95l-9.03,3.25,9.03-7.98v4.73ZM55.79,51.16l-4.47-10.25,7.39-.41-2.91,10.66ZM51.35,40.65l3.54-6.58,3.77,6.17-7.3.4ZM51.18,49.37l-5.57,2.58,5.4-10.63.17,8.06ZM45.26,52.06l-5.61-1.99,11.09-8.8-5.48,10.8ZM28.45,47.57l6.55-3.19-4.4,5.21-2.15-2.02ZM28.2,47.4l-3.58-.35,9.58-2.58-6.01,2.93ZM27.9,47.63l-4.28,3.5.38-3.87,3.89.38ZM17.97,46.66l13.13-3.08-7.24,3.4-5.89-.33ZM32.44,43.07l.92-6.39,1.95,7.13-2.88-.74ZM33.87,35.93l9.53-4.47-2.13,4.74-7.4-.27ZM50.69,27.14l-.64-3.15,5.17.09-4.53,3.06ZM55.78,23.88l1.17-4.87h5.21l-3.35,6.33-3.04-1.45ZM57.3,18.74c1.54-1.03,6.42-4.43,7.91-5.47l-2.9,5.47h-5.02ZM65.41,13.45l-.39,6.21-2.44-.86,2.84-5.35ZM75.75,18.17l-9.92,6.69,2.33-7.23,7.59.54ZM76.3,18.01l2.08-5.72,5.38,10.52-7.46-4.79ZM84.32,23.21l8.43-4.5,1.62,13.15-10.05-8.65ZM93.04,18.9l11.88,13.15h-10.26l-1.62-13.15ZM105.54,32.07l5.96-5.08,9.66,6.21-15.61-1.13ZM126.7,34.42l5.77,1.06-14.92,5.12,4.17-7.09,4.98.91ZM133.02,35.76l4.73,8.49-8.71,2.38,3.98-10.87ZM128.4,47.27l-4.57,7.3-2.74-2.32,7.31-4.98ZM109.49,46.75l7.46-5.51-2.49,5.51h-4.97ZM109.89,54.54l-9.2-4.56,8.29-2.92.91,7.48ZM100.41,49.8l-6.05-10.91,14.4,7.96-8.35,2.94ZM99.91,50.08l-7.17,4.44.24-4.68,6.93.23ZM92.72,49.9l-.24,4.68-5.95-2.35,6.19-2.33ZM79.96,50.42l5.24-2.84.8,4.46-6.04-1.62ZM86.01,52.32l-.59,2.23-5.17-3.77,5.75,1.55ZM79.43,50.39l-5.69,2.2,3.03-9.05,2.66,6.85ZM73.23,52.78l-5.08,1.82-2.32-6.25,7.4,4.44ZM65.07,48.36l-6.19,6.21-2.83-2.97,9.02-3.24ZM51.16,49.67l-.35,4.9-5.18-2.34,5.53-2.56ZM44.91,52.22l-7.23,2.33,1.77-4.27,5.46,1.94ZM37.39,54.57l-4.36-2.79,6.13-1.48-1.77,4.27ZM32.44,51.66l-8.77,2.68,6.98-4.36,1.79,1.68ZM22.94,54.49l.64-2.99,4.64-3.8,2.23,2.09-7.5,4.69ZM16.34,54.35l7.38-6.9-.38,3.89-7,3.01ZM15.9,54.41l1.26-7.53,6.41.35-7.67,7.18ZM15.61,54.58l-4.91-1.87,6.16-5.63-1.25,7.5ZM25.64,39.44l3-2.61,3.41,6.16-9-1.3,2.59-2.25ZM28.88,36.74l4.29-.55-.95,6.57-3.34-6.02ZM33.98,35.59l10.22-9.9-.65,5.41-9.56,4.49ZM47.68,24.58l2.11-.57.64,3.15-5.6-1.81,2.85-.77ZM54.73,16.15l5.81-4.32-3.7,6.81-2.11-2.49ZM67.19,12.21l-1.85,6.45.36-5.72,1.49-.73ZM67.54,12.04l1.88-.92-1.31,5.63-.57-4.71ZM72.51,9.83l5.68,2.21-2.07,5.68-3.62-7.9ZM78.54,12.03l5.5-2.25-.08,12.86-5.43-10.61ZM84.3,9.91l8.34,8.56-8.42,4.49.08-13.06ZM98.74,18.87l12.53,7.98-6.01,5.13-6.52-13.1ZM111.82,26.88l9.71-2.27v8.51l-9.71-6.24ZM121.79,24.76l10.8,10.48-10.8-1.98v-8.5ZM133.21,35.58h5.72l-1.07,8.34-4.65-8.34ZM153.67,43.75l12.93,5.24h-9.52l-3.41-5.24ZM167.09,49.25l-2.21,5.31-7.46-5.31h9.66ZM174.27,50.96l-1.83,3.58-4.77-5.19,6.6,1.61ZM173.85,46.44l10.93,7.9-10.2-3.58-.73-4.33ZM178.66,54.63h-5.98l1.82-3.56,4.16,3.56ZM172.18,54.63h-7.04l2.19-5.28,4.85,5.28ZM164.52,54.63h-10.46l2.99-5.32,7.47,5.32ZM153.46,54.63h-14.65l6.86-5.96,7.78,5.96ZM134.26,54.63h-10.17l4.75-7.58,5.42,7.58ZM123.49,54.63h-8.31l5.66-2.24,2.65,2.24ZM114.37,54.63h-2.82l2.85-7.07-.04,7.07ZM100.96,54.63h-7.89l7.19-4.46.7,4.46ZM91.91,54.63h-6.24l.59-2.23,5.66,2.23ZM85.09,54.63h-6.16l.76-3.94,5.4,3.94ZM75.27,54.63h-6.44l4.67-1.67,1.77,1.67ZM67.88,54.63h-8.69l6.34-6.35,2.36,6.35ZM58.57,54.63h-4.21l1.49-2.86,2.72,2.86ZM50.32,54.63h-12.04l7.03-2.27,5.01,2.27ZM37,54.63h-13.36l9.04-2.77,4.32,2.77ZM16.35,54.63l6.93-2.98-.64,2.98h-6.3ZM14.99,54.63H1.28l9.16-1.73,4.55,1.73ZM1.28,54.36l5.79-2.74,2.9,1.1-8.68,1.64Z" />
    </g>
  </g>
</svg>