<?xml version="1.0" encoding="UTF-8"?>
<svg id="Capa_2" xmlns="http://www.w3.org/2000/svg" xmlns:xlink="http://www.w3.org/1999/xlink" viewBox="0 0 46.69 44">
  <defs>
    <style>
      .cls-1 {
        fill: #4c4cf3;
      }

      .cls-2 {
        fill: #7259fe;
      }

      .cls-3 {
        fill: #6354fa;
      }

      .cls-4 {
        fill: #3c47ef;
      }

      .cls-5 {
        fill: #7290ff;
      }

      .cls-6 {
        fill: #534ff5;
      }

      .cls-7 {
        fill: #2a42ea;
      }

      .cls-8 {
        fill: #5b51f7;
      }

      .cls-9 {
        fill: #3445ec;
      }

      .cls-10 {
        fill: #2640e8;
      }

      .cls-11 {
        fill: #6fb9ff;
      }

      .cls-12 {
        fill: #4f4ef4;
      }

      .cls-13 {
        fill: #7389ff;
      }

      .cls-14 {
        fill: #70b2ff;
      }

      .cls-15 {
        fill: #6a56fc;
      }

      .cls-16 {
        fill: #3144eb;
      }

      .cls-17 {
        fill: #6e58fd;
      }

      .cls-18 {
        fill: #3846ed;
      }

      .cls-19 {
        filter: none;
      }

      .cls-20 {
        fill: #6fbfff;
      }

      .cls-21 {
        fill: #6ce1ff;
      }

      .cls-22 {
        fill: #719eff;
      }

      .cls-23 {
        fill: #2841e9;
      }

      .cls-24 {
        fill: #7383ff;
      }

      .cls-25 {
        fill: #7568ff;
      }

      .cls-26 {
        fill: #6755fb;
      }

      .cls-27 {
        fill: #2941e9;
      }

      .cls-28 {
        fill: #756eff;
      }

      .cls-29 {
        fill: #7297ff;
      }

      .cls-30 {
        fill: #4049f0;
      }

      .cls-31 {
        fill: #765aff;
      }

      .cls-32 {
        fill: #747cff;
      }

      .cls-33 {
        fill: #7661ff;
      }

      .cls-34 {
        fill: #2740e8;
      }

      .cls-35 {
        fill: #5750f6;
      }

      .cls-36 {
        fill: #2540e8;
      }

      .cls-37 {
        fill: #6ec6ff;
      }

      .cls-38 {
        fill: #6dd4ff;
      }

      .cls-39 {
        fill: #484bf2;
      }

      .cls-40 {
        fill: #6ecdff;
      }

      .cls-41 {
        fill: #7475ff;
      }

      .cls-42 {
        fill: #6ce8ff;
      }

      .cls-43 {
        fill: #71a4ff;
      }

      .cls-44 {
        fill: #2741e9;
      }

      .cls-45 {
        fill: #6ddaff;
      }

      .cls-46 {
        fill: #2c42ea;
      }

      .cls-47 {
        fill: #2d42ea;
      }

      .cls-48 {
        fill: #2b42ea;
      }

      .cls-49 {
        fill: #444af1;
      }

      .cls-50 {
        fill: #5f53f8;
      }

      .cls-51 {
        fill: #2a41e9;
      }

      .cls-52 {
        fill: #70abff;
      }
    </style>
  </defs>
  <g id="Layer_1">
    <g class="cls-19">
      <path class="cls-46"
        d="M24.28,37.66c-9.59,3.27-20.02-1.85-23.29-11.44C-2.28,16.62,2.84,6.2,12.43,2.92c9.59-3.27,20.02,1.85,23.29,11.44,3.27,9.59-1.85,20.02-11.44,23.29Z" />
      <path class="cls-46"
        d="M24.29,37.48c-9.54,3.26-19.92-1.84-23.17-11.39C-2.14,16.55,2.96,6.17,12.5,2.92c9.54-3.26,19.92,1.84,23.17,11.39,3.26,9.54-1.84,19.92-11.39,23.17Z" />
      <path class="cls-48"
        d="M24.3,37.3c-9.5,3.24-19.82-1.83-23.06-11.33C-1.99,16.48,3.08,6.15,12.58,2.91c9.5-3.24,19.82,1.83,23.06,11.33,3.24,9.5-1.83,19.82-11.33,23.06Z" />
      <circle class="cls-48" cx="18.48" cy="20.01" r="18.07" transform="translate(-5.65 32.65) rotate(-74.91)" />
      <circle class="cls-48" cx="18.52" cy="19.92" r="17.98" transform="translate(-5.21 33.21) rotate(-76.32)" />
      <circle class="cls-7" cx="18.57" cy="19.83" r="17.89" transform="translate(-4.74 33.78) rotate(-77.79)" />
      <circle class="cls-51" cx="18.61" cy="19.74" r="17.8" transform="translate(-4.24 34.36) rotate(-79.32)" />
      <circle class="cls-51" cx="18.65" cy="19.64" r="17.7" transform="translate(-3.7 34.95) rotate(-80.9)" />
      <circle class="cls-27" cx="18.69" cy="19.55" r="17.61" transform="translate(-3.13 35.54) rotate(-82.52)" />
      <circle class="cls-27" cx="18.73" cy="19.46" r="17.52" transform="translate(-2.53 36.12) rotate(-84.18)" />
      <circle class="cls-27" cx="18.77" cy="19.37" r="17.43" transform="translate(-1.9 36.69) rotate(-85.86)" />
      <circle class="cls-23" cx="18.82" cy="19.27" r="17.33" transform="translate(-1.24 37.25) rotate(-87.55)" />
      <circle class="cls-23" cx="18.86" cy="19.18" r="17.24" transform="translate(-.57 37.79) rotate(-89.25)" />
      <circle class="cls-23" cx="18.9" cy="19.09" r="17.15" transform="translate(-.31 .31) rotate(-.93)" />
      <circle class="cls-44" cx="18.94" cy="19" r="17.06" transform="translate(-.84 .88) rotate(-2.59)" />
      <circle class="cls-44" cx="18.98" cy="18.91" r="16.96" transform="translate(-1.34 1.45) rotate(-4.22)" />
      <path class="cls-34"
        d="M24.47,34.78c-8.82,3.01-18.41-1.7-21.41-10.52C.05,15.44,4.76,5.85,13.58,2.84c8.82-3.01,18.41,1.7,21.41,10.52,3.01,8.82-1.7,18.41-10.52,21.41Z" />
      <path class="cls-10"
        d="M24.48,34.6c-8.77,2.99-18.31-1.69-21.3-10.46C.2,15.37,4.88,5.83,13.65,2.84c8.77-2.99,18.31,1.69,21.3,10.46,2.99,8.77-1.69,18.31-10.46,21.3Z" />
      <path class="cls-10"
        d="M24.5,34.42c-8.72,2.97-18.2-1.68-21.18-10.41C.34,15.29,5,5.81,13.72,2.83c8.72-2.97,18.2,1.68,21.18,10.41,2.97,8.72-1.68,18.2-10.41,21.18Z" />
      <path class="cls-10"
        d="M24.51,34.24c-8.67,2.96-18.1-1.68-21.06-10.35C.49,15.22,5.12,5.79,13.8,2.83c8.67-2.96,18.1,1.67,21.06,10.35,2.96,8.67-1.67,18.1-10.35,21.06Z" />
      <path class="cls-36"
        d="M24.52,34.06c-8.63,2.94-18-1.67-20.94-10.29C.63,15.14,5.24,5.77,13.87,2.82,22.49-.12,31.87,4.49,34.81,13.12c2.94,8.63-1.67,18-10.29,20.94Z" />
      <path class="cls-36"
        d="M24.53,33.88c-8.58,2.93-17.9-1.66-20.83-10.23C.78,15.07,5.36,5.75,13.94,2.82,22.52-.11,31.84,4.48,34.77,13.05c2.93,8.58-1.66,17.9-10.23,20.83Z" />
      <path class="cls-27"
        d="M24.54,33.57c-8.48,2.89-17.69-1.64-20.58-10.11C1.07,14.98,5.59,5.77,14.07,2.88,22.55-.01,31.76,4.51,34.66,12.99c2.89,8.48-1.64,17.69-10.11,20.58Z" />
      <path class="cls-47"
        d="M24.55,33.27c-8.38,2.86-17.48-1.62-20.34-9.99C1.35,14.9,5.83,5.79,14.2,2.93,22.58.08,31.69,4.55,34.54,12.93c2.86,8.38-1.62,17.48-9.99,20.34Z" />
      <path class="cls-16"
        d="M24.56,32.96c-8.28,2.82-17.27-1.6-20.1-9.87C1.64,14.81,6.06,5.81,14.34,2.99c8.28-2.82,17.27,1.6,20.1,9.87,2.82,8.28-1.6,17.27-9.87,20.1Z" />
      <path class="cls-9"
        d="M24.57,32.66c-8.18,2.79-17.06-1.58-19.85-9.75C1.93,14.73,6.3,5.84,14.47,3.05c8.18-2.79,17.06,1.58,19.85,9.75,2.79,8.18-1.58,17.06-9.75,19.85Z" />
      <path class="cls-18"
        d="M24.58,32.35c-8.08,2.75-16.85-1.56-19.61-9.63C2.22,14.64,6.53,5.86,14.6,3.11c8.08-2.75,16.85,1.56,19.61,9.63,2.75,8.08-1.56,16.85-9.63,19.61Z" />
      <path class="cls-4"
        d="M24.59,32.04c-7.97,2.72-16.64-1.54-19.36-9.51C2.5,14.55,6.76,5.88,14.74,3.16c7.97-2.72,16.64,1.54,19.36,9.51,2.72,7.97-1.54,16.64-9.51,19.36Z" />
      <path class="cls-30"
        d="M24.6,31.74c-7.87,2.69-16.43-1.52-19.12-9.39C2.79,14.47,7,5.91,14.87,3.22c7.87-2.69,16.43,1.52,19.12,9.39,2.69,7.87-1.52,16.43-9.39,19.12Z" />
      <path class="cls-49"
        d="M24.6,31.43c-7.77,2.65-16.22-1.5-18.88-9.27C3.08,14.38,7.23,5.93,15,3.28c7.77-2.65,16.22,1.5,18.88,9.27,2.65,7.77-1.5,16.22-9.27,18.88Z" />
      <path class="cls-39"
        d="M24.61,31.12c-7.67,2.62-16.02-1.48-18.63-9.16C3.36,14.3,7.46,5.95,15.14,3.34c7.67-2.62,16.02,1.48,18.63,9.16,2.62,7.67-1.48,16.02-9.16,18.63Z" />
      <path class="cls-1"
        d="M24.62,30.82c-7.57,2.58-15.81-1.46-18.39-9.04C3.65,14.21,7.7,5.98,15.27,3.39c7.57-2.58,15.81,1.46,18.39,9.04,2.58,7.57-1.46,15.81-9.04,18.39Z" />
      <path class="cls-12"
        d="M24.63,30.51c-7.47,2.55-15.6-1.44-18.14-8.92C3.94,14.12,7.93,6,15.4,3.45c7.47-2.55,15.6,1.44,18.14,8.92,2.55,7.47-1.44,15.6-8.92,18.14Z" />
      <path class="cls-6"
        d="M24.64,30.21c-7.37,2.51-15.39-1.42-17.9-8.8-2.51-7.37,1.42-15.39,8.8-17.9,7.37-2.51,15.39,1.42,17.9,8.8,2.51,7.37-1.42,15.39-8.8,17.9Z" />
      <path class="cls-35"
        d="M24.65,29.9c-7.27,2.48-15.18-1.4-17.66-8.68-2.48-7.27,1.4-15.18,8.68-17.66,7.27-2.48,15.18,1.4,17.66,8.68,2.48,7.27-1.4,15.18-8.68,17.66Z" />
      <path class="cls-8"
        d="M24.66,29.59c-7.17,2.45-14.97-1.38-17.41-8.56-2.45-7.17,1.38-14.97,8.56-17.41,7.17-2.45,14.97,1.38,17.41,8.56,2.45,7.17-1.38,14.97-8.56,17.41Z" />
      <path class="cls-50"
        d="M24.67,29.29c-7.07,2.41-14.76-1.37-17.17-8.44-2.41-7.07,1.37-14.76,8.44-17.17,7.07-2.41,14.76,1.37,17.17,8.44,2.41,7.07-1.37,14.76-8.44,17.17Z" />
      <path class="cls-3"
        d="M24.68,28.98c-6.97,2.38-14.55-1.35-16.93-8.32-2.38-6.97,1.35-14.55,8.32-16.93,6.97-2.38,14.55,1.35,16.93,8.32,2.38,6.97-1.35,14.55-8.32,16.93Z" />
      <path class="cls-26"
        d="M24.69,28.67c-6.87,2.34-14.34-1.33-16.68-8.2-2.34-6.87,1.33-14.34,8.2-16.68,6.87-2.34,14.34,1.33,16.68,8.2,2.34,6.87-1.33,14.34-8.2,16.68Z" />
      <path class="cls-15"
        d="M24.7,28.37c-6.77,2.31-14.13-1.31-16.44-8.08-2.31-6.77,1.31-14.13,8.08-16.44,6.77-2.31,14.13,1.31,16.44,8.08,2.31,6.77-1.31,14.13-8.08,16.44Z" />
      <path class="cls-17"
        d="M24.7,28.06c-6.67,2.27-13.92-1.29-16.19-7.96-2.27-6.67,1.29-13.92,7.96-16.19,6.67-2.27,13.92,1.29,16.19,7.96,2.27,6.67-1.29,13.92-7.96,16.19Z" />
      <path class="cls-2"
        d="M24.71,27.76c-6.57,2.24-13.71-1.27-15.95-7.84-2.24-6.57,1.27-13.71,7.84-15.95,6.57-2.24,13.71,1.27,15.95,7.84,2.24,6.57-1.27,13.71-7.84,15.95Z" />
      <path class="cls-31"
        d="M24.72,27.45c-6.47,2.21-13.5-1.25-15.71-7.72-2.21-6.47,1.25-13.5,7.72-15.71,6.47-2.21,13.5,1.25,15.71,7.72,2.21,6.47-1.25,13.5-7.72,15.71Z" />
      <path class="cls-33"
        d="M24.7,26.78c-6.23,2.12-12.99-1.2-15.12-7.43-2.12-6.23,1.2-12.99,7.43-15.12,6.23-2.12,12.99,1.2,15.12,7.43,2.12,6.23-1.2,12.99-7.43,15.12Z" />
      <path class="cls-25"
        d="M24.68,26.12c-5.98,2.04-12.49-1.16-14.53-7.14-2.04-5.98,1.16-12.49,7.14-14.53,5.98-2.04,12.49,1.16,14.53,7.14,2.04,5.98-1.16,12.49-7.14,14.53Z" />
      <path class="cls-28"
        d="M24.65,25.45c-5.74,1.96-11.99-1.11-13.94-6.85-1.96-5.74,1.11-11.98,6.85-13.94,5.74-1.96,11.98,1.11,13.94,6.85,1.96,5.74-1.11,11.98-6.85,13.94Z" />
      <path class="cls-41"
        d="M24.63,24.78c-5.5,1.88-11.48-1.06-13.36-6.56-1.88-5.5,1.06-11.48,6.56-13.36,5.5-1.88,11.48,1.06,13.36,6.56,1.88,5.5-1.06,11.48-6.56,13.36Z" />
      <path class="cls-32"
        d="M24.6,24.12c-5.26,1.79-10.98-1.02-12.77-6.27-1.79-5.26,1.02-10.98,6.27-12.77,5.26-1.79,10.98,1.02,12.77,6.27,1.79,5.26-1.02,10.98-6.27,12.77Z" />
      <path class="cls-24"
        d="M24.58,23.45c-5.02,1.71-10.47-.97-12.18-5.99-1.71-5.02.97-10.47,5.99-12.18,5.02-1.71,10.47.97,12.18,5.99,1.71,5.02-.97,10.47-5.99,12.18Z" />
      <path class="cls-13"
        d="M24.56,22.78c-4.77,1.63-9.97-.92-11.59-5.7-1.63-4.77.92-9.97,5.7-11.59,4.77-1.63,9.97.92,11.59,5.7,1.63,4.77-.92,9.97-5.7,11.59Z" />
      <path class="cls-5"
        d="M24.53,22.12c-4.53,1.55-9.46-.88-11.01-5.41-1.55-4.53.88-9.46,5.41-11.01,4.53-1.55,9.46.88,11.01,5.41,1.55,4.53-.88,9.46-5.41,11.01Z" />
      <path class="cls-29"
        d="M24.51,21.45c-4.29,1.46-8.96-.83-10.42-5.12-1.46-4.29.83-8.96,5.12-10.42,4.29-1.46,8.96.83,10.42,5.12,1.46,4.29-.83,8.96-5.12,10.42Z" />
      <path class="cls-22"
        d="M24.49,20.78c-4.05,1.38-8.45-.78-9.83-4.83-1.38-4.05.78-8.45,4.83-9.83,4.05-1.38,8.45.78,9.83,4.83,1.38,4.05-.78,8.45-4.83,9.83Z" />
      <path class="cls-43"
        d="M24.46,20.12c-3.81,1.3-7.95-.74-9.24-4.54-1.3-3.81.74-7.95,4.54-9.24,3.81-1.3,7.95.74,9.24,4.54,1.3,3.81-.74,7.95-4.54,9.24Z" />
      <path class="cls-52"
        d="M24.44,19.45c-3.57,1.22-7.44-.69-8.66-4.25-1.22-3.57.69-7.44,4.25-8.66,3.57-1.22,7.44.69,8.66,4.25,1.22,3.57-.69,7.44-4.25,8.66Z" />
      <path class="cls-14"
        d="M24.41,18.78c-3.32,1.13-6.94-.64-8.07-3.96-1.13-3.32.64-6.94,3.96-8.07,3.32-1.13,6.94.64,8.07,3.96,1.13,3.32-.64,6.94-3.96,8.07Z" />
      <path class="cls-11"
        d="M24.39,18.12c-3.08,1.05-6.43-.6-7.48-3.68-1.05-3.08.6-6.43,3.68-7.48,3.08-1.05,6.43.6,7.48,3.68s-.6,6.43-3.68,7.48Z" />
      <path class="cls-20"
        d="M24.37,17.45c-2.84.97-5.93-.55-6.89-3.39-.97-2.84.55-5.93,3.39-6.89,2.84-.97,5.93.55,6.89,3.39.97,2.84-.55,5.93-3.39,6.89Z" />
      <path class="cls-37"
        d="M24.34,16.78c-2.6.89-5.42-.5-6.31-3.1-.89-2.6.5-5.42,3.1-6.31,2.6-.89,5.42.5,6.31,3.1.89,2.6-.5,5.42-3.1,6.31Z" />
      <path class="cls-40"
        d="M24.32,16.12c-2.36.8-4.92-.45-5.72-2.81-.8-2.36.45-4.92,2.81-5.72,2.36-.8,4.92.45,5.72,2.81.8,2.36-.45,4.92-2.81,5.72Z" />
      <path class="cls-38"
        d="M24.3,15.45c-2.11.72-4.41-.41-5.13-2.52-.72-2.11.41-4.41,2.52-5.13,2.11-.72,4.41.41,5.13,2.52.72,2.11-.41,4.41-2.52,5.13Z" />
      <path class="cls-45"
        d="M24.27,14.78c-1.87.64-3.91-.36-4.55-2.23-.64-1.87.36-3.91,2.23-4.55,1.87-.64,3.91.36,4.55,2.23.64,1.87-.36,3.91-2.23,4.55Z" />
      <path class="cls-21"
        d="M24.25,14.12c-1.63.56-3.4-.31-3.96-1.94-.56-1.63.31-3.4,1.94-3.96,1.63-.56,3.4.31,3.96,1.94.56,1.63-.31,3.4-1.94,3.96Z" />
      <path class="cls-42"
        d="M24.22,13.45c-1.39.47-2.9-.27-3.37-1.66s.27-2.9,1.66-3.37c1.39-.47,2.9.27,3.37,1.66.47,1.39-.27,2.9-1.66,3.37Z" />
    </g>
  </g>
</svg>