<?xml version="1.0" encoding="UTF-8"?>
<svg xmlns="http://www.w3.org/2000/svg" xmlns:xlink="http://www.w3.org/1999/xlink" viewBox="0 0 84.59 65.88">
  <defs>
    <style>
      .cls-1 {
        fill: url(#linear-gradient-15);
      }

      .cls-2 {
        fill: url(#linear-gradient-13);
      }

      .cls-3 {
        fill: url(#linear-gradient-28);
      }

      .cls-4 {
        fill: url(#linear-gradient-53);
      }

      .cls-5 {
        fill: url(#linear-gradient-42);
      }

      .cls-6 {
        fill: url(#linear-gradient-46);
      }

      .cls-7 {
        fill: url(#linear-gradient-2);
      }

      .cls-8 {
        fill: url(#linear-gradient-56);
      }

      .cls-9 {
        fill: url(#linear-gradient-43);
      }

      .cls-10 {
        fill: url(#linear-gradient-25);
      }

      .cls-11 {
        fill: url(#linear-gradient-10);
      }

      .cls-12 {
        fill: url(#linear-gradient-12);
      }

      .cls-13 {
        fill: url(#linear-gradient-40);
      }

      .cls-14 {
        fill: url(#linear-gradient-27);
      }

      .cls-15 {
        fill: url(#linear-gradient-37);
      }

      .cls-16 {
        fill: url(#linear-gradient-55);
      }

      .cls-17 {
        fill: #fff;
      }

      .cls-18 {
        fill: url(#linear-gradient-39);
      }

      .cls-19 {
        fill: url(#linear-gradient-52);
      }

      .cls-20 {
        fill: url(#linear-gradient-58);
      }

      .cls-21 {
        fill: url(#linear-gradient-47);
      }

      .cls-22 {
        fill: url(#linear-gradient-26);
      }

      .cls-23 {
        fill: url(#linear-gradient-4);
      }

      .cls-24 {
        fill: url(#linear-gradient-35);
      }

      .cls-25 {
        fill: url(#linear-gradient-30);
      }

      .cls-26 {
        fill: url(#linear-gradient-44);
      }

      .cls-27 {
        fill: url(#linear-gradient-49);
      }

      .cls-28 {
        fill: url(#linear-gradient-3);
      }

      .cls-29 {
        fill: url(#linear-gradient-34);
      }

      .cls-30 {
        filter: none;
      }

      .cls-31 {
        fill: url(#linear-gradient-5);
      }

      .cls-32 {
        fill: url(#linear-gradient-38);
      }

      .cls-33 {
        fill: url(#linear-gradient-22);
      }

      .cls-34 {
        fill: url(#linear-gradient-24);
      }

      .cls-35 {
        fill: url(#linear-gradient-54);
      }

      .cls-36 {
        isolation: isolate;
      }

      .cls-37 {
        fill: url(#linear-gradient-33);
      }

      .cls-38 {
        fill: url(#linear-gradient-51);
      }

      .cls-39 {
        fill: url(#linear-gradient-8);
      }

      .cls-40 {
        fill: url(#linear-gradient-57);
      }

      .cls-41 {
        opacity: .6;
      }

      .cls-41,
      .cls-42 {
        mix-blend-mode: screen;
      }

      .cls-43 {
        fill: url(#linear-gradient-14);
      }

      .cls-44 {
        fill: url(#linear-gradient-29);
      }

      .cls-45 {
        fill: url(#linear-gradient-20);
      }

      .cls-46 {
        fill: url(#linear-gradient-17);
      }

      .cls-47 {
        fill: #201e36;
      }

      .cls-48 {
        fill: url(#linear-gradient-50);
      }

      .cls-49 {
        fill: url(#linear-gradient-7);
      }

      .cls-50 {
        fill: url(#linear-gradient-9);
      }

      .cls-51 {
        fill: #df3dfe;
      }

      .cls-52 {
        fill: #fcf9fc;
      }

      .cls-53 {
        fill: url(#linear-gradient-11);
      }

      .cls-54 {
        fill: url(#linear-gradient-19);
      }

      .cls-55 {
        fill: url(#linear-gradient-6);
      }

      .cls-56 {
        fill: url(#linear-gradient-36);
      }

      .cls-57 {
        fill: url(#linear-gradient-21);
      }

      .cls-58 {
        fill: url(#linear-gradient-45);
      }

      .cls-59 {
        fill: url(#linear-gradient-48);
      }

      .cls-60 {
        fill: #f4baff;
      }

      .cls-61 {
        fill: url(#linear-gradient-32);
      }

      .cls-62 {
        fill: url(#linear-gradient-41);
      }

      .cls-63 {
        fill: url(#linear-gradient-16);
      }

      .cls-64 {
        fill: url(#linear-gradient);
      }

      .cls-65 {
        fill: url(#linear-gradient-23);
      }

      .cls-66 {
        fill: url(#linear-gradient-31);
      }

      .cls-67 {
        fill: url(#linear-gradient-18);
      }
    </style>
    <linearGradient id="linear-gradient" x1="46.44" y1="-.16" x2="46.44" y2="66.35" gradientUnits="userSpaceOnUse">
      <stop offset="0" stop-color="#6f047a" />
      <stop offset=".16" stop-color="#7d087c" />
      <stop offset=".46" stop-color="#a31384" />
      <stop offset=".88" stop-color="#e12690" />
      <stop offset="1" stop-color="#f52c94" />
    </linearGradient>
    <linearGradient id="linear-gradient-2" x1="46.44" y1="-.16" x2="46.44" y2="66.35" xlink:href="#linear-gradient" />
    <linearGradient id="linear-gradient-3" x1="46.44" y1="-.16" x2="46.44" y2="66.34" xlink:href="#linear-gradient" />
    <linearGradient id="linear-gradient-4" x1="46.44" y1="-.16" x2="46.44" y2="66.35" xlink:href="#linear-gradient" />
    <linearGradient id="linear-gradient-5" x1="46.44" y1="-.16" x2="46.44" y2="66.35" xlink:href="#linear-gradient" />
    <linearGradient id="linear-gradient-6" x1="46.44" y1="-.16" x2="46.44" y2="66.34" xlink:href="#linear-gradient" />
    <linearGradient id="linear-gradient-7" x1="46.44" y1="-.16" x2="46.44" y2="66.35" xlink:href="#linear-gradient" />
    <linearGradient id="linear-gradient-8" x1="46.44" y1="-.16" x2="46.44" y2="66.35" xlink:href="#linear-gradient" />
    <linearGradient id="linear-gradient-9" x1="46.44" y1="-.16" x2="46.44" y2="66.35" xlink:href="#linear-gradient" />
    <linearGradient id="linear-gradient-10" x1="46.44" y1="-.16" x2="46.44" y2="66.35" xlink:href="#linear-gradient" />
    <linearGradient id="linear-gradient-11" x1="46.44" y1="-.16" x2="46.44" y2="66.35" xlink:href="#linear-gradient" />
    <linearGradient id="linear-gradient-12" x1="46.44" y1="-.16" x2="46.44" y2="66.35" xlink:href="#linear-gradient" />
    <linearGradient id="linear-gradient-13" x1="46.44" y1="-.16" x2="46.44" y2="66.35" xlink:href="#linear-gradient" />
    <linearGradient id="linear-gradient-14" x1="46.44" y1="-.16" x2="46.44" y2="66.35" xlink:href="#linear-gradient" />
    <linearGradient id="linear-gradient-15" x1="46.44" y1="-.16" x2="46.44" y2="66.35" xlink:href="#linear-gradient" />
    <linearGradient id="linear-gradient-16" x1="46.44" y1="-.16" x2="46.44" y2="66.35" xlink:href="#linear-gradient" />
    <linearGradient id="linear-gradient-17" x1="41.5" x2="41.5" xlink:href="#linear-gradient" />
    <linearGradient id="linear-gradient-18" x1="41.5" y1="-.16" x2="41.5" y2="66.35" xlink:href="#linear-gradient" />
    <linearGradient id="linear-gradient-19" x1="41.5" y1="-.16" x2="41.5" y2="66.34" xlink:href="#linear-gradient" />
    <linearGradient id="linear-gradient-20" x1="41.5" y1="-.16" x2="41.5" y2="66.35" xlink:href="#linear-gradient" />
    <linearGradient id="linear-gradient-21" x1="41.5" y1="-.16" x2="41.5" y2="66.35" xlink:href="#linear-gradient" />
    <linearGradient id="linear-gradient-22" x1="41.5" y1="-.16" x2="41.5" y2="66.34" xlink:href="#linear-gradient" />
    <linearGradient id="linear-gradient-23" x1="41.5" y1="-.16" x2="41.5" y2="66.35" xlink:href="#linear-gradient" />
    <linearGradient id="linear-gradient-24" x1="41.5" y1="-.16" x2="41.5" y2="66.35" xlink:href="#linear-gradient" />
    <linearGradient id="linear-gradient-25" x1="41.5" y1="-.16" x2="41.5" y2="66.35" xlink:href="#linear-gradient" />
    <linearGradient id="linear-gradient-26" x1="41.5" y1="-.16" x2="41.5" y2="66.35" xlink:href="#linear-gradient" />
    <linearGradient id="linear-gradient-27" x1="41.5" y1="-.16" x2="41.5" y2="66.35" xlink:href="#linear-gradient" />
    <linearGradient id="linear-gradient-28" x1="41.5" y1="-.16" x2="41.5" y2="66.35" xlink:href="#linear-gradient" />
    <linearGradient id="linear-gradient-29" x1="41.5" y1="-.16" x2="41.5" y2="66.35" xlink:href="#linear-gradient" />
    <linearGradient id="linear-gradient-30" x1="41.5" y1="-.16" x2="41.5" y2="66.35" xlink:href="#linear-gradient" />
    <linearGradient id="linear-gradient-31" x1="41.5" y1="-.16" x2="41.5" y2="66.35" xlink:href="#linear-gradient" />
    <linearGradient id="linear-gradient-32" x1="41.5" y1="-.16" x2="41.5" y2="66.35" xlink:href="#linear-gradient" />
    <linearGradient id="linear-gradient-33" x1="43.97" y1="-.16" x2="43.97" y2="66.35" gradientUnits="userSpaceOnUse">
      <stop offset="0" stop-color="#ef168c" />
      <stop offset=".1" stop-color="#f13481" />
      <stop offset=".34" stop-color="#f6736a" />
      <stop offset=".55" stop-color="#f9a459" />
      <stop offset=".73" stop-color="#fcc84c" />
      <stop offset=".88" stop-color="#fede44" />
      <stop offset=".98" stop-color="#ffe642" />
    </linearGradient>
    <linearGradient id="linear-gradient-34" x1="43.97" y1="-.16" x2="43.97" y2="66.35"
      xlink:href="#linear-gradient-33" />
    <linearGradient id="linear-gradient-35" x1="43.97" y1="-.16" x2="43.97" y2="66.34"
      xlink:href="#linear-gradient-33" />
    <linearGradient id="linear-gradient-36" x1="43.97" y1="-.16" x2="43.97" y2="66.35"
      xlink:href="#linear-gradient-33" />
    <linearGradient id="linear-gradient-37" x1="43.97" y1="-.16" x2="43.97" y2="66.35"
      xlink:href="#linear-gradient-33" />
    <linearGradient id="linear-gradient-38" x1="43.97" y1="-.16" x2="43.97" y2="66.34"
      xlink:href="#linear-gradient-33" />
    <linearGradient id="linear-gradient-39" x1="43.97" y1="-.16" x2="43.97" y2="66.35"
      xlink:href="#linear-gradient-33" />
    <linearGradient id="linear-gradient-40" x1="43.97" y1="-.16" x2="43.97" y2="66.35"
      xlink:href="#linear-gradient-33" />
    <linearGradient id="linear-gradient-41" x1="43.97" y1="-.16" x2="43.97" y2="66.35"
      xlink:href="#linear-gradient-33" />
    <linearGradient id="linear-gradient-42" x1="43.97" y1="-.16" x2="43.97" y2="66.35"
      xlink:href="#linear-gradient-33" />
    <linearGradient id="linear-gradient-43" x1="43.97" y1="-.16" x2="43.97" y2="66.35"
      xlink:href="#linear-gradient-33" />
    <linearGradient id="linear-gradient-44" x1="43.97" y1="-.16" x2="43.97" y2="66.35"
      xlink:href="#linear-gradient-33" />
    <linearGradient id="linear-gradient-45" x1="43.97" y1="-.16" x2="43.97" y2="66.35"
      xlink:href="#linear-gradient-33" />
    <linearGradient id="linear-gradient-46" x1="43.97" y1="-.16" x2="43.97" y2="66.35"
      xlink:href="#linear-gradient-33" />
    <linearGradient id="linear-gradient-47" x1="43.97" y1="-.16" x2="43.97" y2="66.35"
      xlink:href="#linear-gradient-33" />
    <linearGradient id="linear-gradient-48" x1="43.97" y1="-.16" x2="43.97" y2="66.35"
      xlink:href="#linear-gradient-33" />
    <linearGradient id="linear-gradient-49" x1="25.54" y1="36.31" x2="25.54" y2="22.66" gradientUnits="userSpaceOnUse">
      <stop offset=".11" stop-color="#e9dbff" />
      <stop offset=".2" stop-color="#e1d3f7" />
      <stop offset=".34" stop-color="#cbbde2" />
      <stop offset=".4" stop-color="#bfb1d6" />
      <stop offset=".45" stop-color="#9585b1" />
      <stop offset=".49" stop-color="#645085" />
      <stop offset="1" stop-color="#d8cbec" />
    </linearGradient>
    <linearGradient id="linear-gradient-50" x1="34.99" x2="34.99" xlink:href="#linear-gradient-49" />
    <linearGradient id="linear-gradient-51" x1="43.68" x2="43.68" xlink:href="#linear-gradient-49" />
    <linearGradient id="linear-gradient-52" x1="53.48" x2="53.48" xlink:href="#linear-gradient-49" />
    <linearGradient id="linear-gradient-53" x1="63.36" y1="36.55" x2="63.36" y2="22.43"
      xlink:href="#linear-gradient-49" />
    <linearGradient id="linear-gradient-54" x1="25.46" y1="35.84" x2="25.46" y2="23.14" gradientUnits="userSpaceOnUse">
      <stop offset="0" stop-color="#d8cbec" />
      <stop offset=".51" stop-color="#645085" />
      <stop offset=".55" stop-color="#9585b1" />
      <stop offset=".6" stop-color="#bfb1d6" />
      <stop offset=".7" stop-color="#ddd5e9" />
      <stop offset=".8" stop-color="#f5f3f9" />
      <stop offset=".86" stop-color="#fff" />
      <stop offset=".87" stop-color="#fbf8ff" />
      <stop offset=".93" stop-color="#ede2ff" />
      <stop offset=".96" stop-color="#e9dbff" />
    </linearGradient>
    <linearGradient id="linear-gradient-55" x1="34.99" x2="34.99" xlink:href="#linear-gradient-54" />
    <linearGradient id="linear-gradient-56" x1="43.68" x2="43.68" xlink:href="#linear-gradient-54" />
    <linearGradient id="linear-gradient-57" x1="53.4" x2="53.4" xlink:href="#linear-gradient-54" />
    <linearGradient id="linear-gradient-58" x1="63.36" y1="36.07" x2="63.36" y2="22.91"
      xlink:href="#linear-gradient-54" />
  </defs>
  <g class="cls-36">
    <g id="Capa_2">
      <g id="Layer_1">
        <g class="cls-30">
          <g class="cls-42">
            <path class="cls-64"
              d="M62.29,4.06h-31.7c-1.59.87-3.09,1.87-4.51,2.98h40.72c-1.41-1.11-2.92-2.11-4.51-2.98Z" />
            <path class="cls-7"
              d="M20.61,12.5c-.76.95-1.46,1.95-2.11,2.98h55.87c-.65-1.04-1.35-2.03-2.11-2.99H20.61Z" />
            <path class="cls-28" d="M75.11,16.71H17.77c-.55.97-1.05,1.96-1.5,2.99h60.34c-.45-1.02-.95-2.02-1.5-2.99Z" />
            <path class="cls-23" d="M79.19,29.37H13.7c-.11.98-.17,1.98-.19,2.99h65.86c-.02-1.01-.08-2-.19-2.99Z" />
            <path class="cls-31" d="M79.02,37.81H13.86c.15,1.01.35,2.01.58,2.99h63.99c.24-.98.43-1.98.58-2.99Z" />
            <path class="cls-55" d="M78.45,25.15H14.43c-.24.98-.43,1.98-.58,2.99h65.18c-.15-1.01-.34-2.01-.58-2.99Z" />
            <path class="cls-49"
              d="M20.67,53.45h51.55c.76-.95,1.47-1.95,2.12-2.99H18.55c.65,1.04,1.36,2.03,2.12,2.99Z" />
            <path class="cls-39" d="M78.11,42.03H14.78c.29,1.02.63,2.01,1.01,2.99h61.31c.38-.97.72-1.97,1.01-2.99Z" />
            <path class="cls-50"
              d="M78.13,23.92c-.29-1.02-.62-2.01-1.01-2.98H15.76c-.38.98-.72,1.97-1.01,2.99h63.38Z" />
            <path class="cls-11" d="M33.24,63.12c4.04,1.77,8.51,2.75,13.2,2.75s9.16-.98,13.21-2.75h-26.41Z" />
            <path class="cls-53" d="M33.08,2.82h26.73c-4.08-1.82-8.6-2.82-13.36-2.82s-9.28,1.01-13.36,2.82Z" />
            <path class="cls-12"
              d="M24.69,57.67h43.51c1.06-.93,2.05-1.93,2.98-2.99H21.71c.93,1.06,1.93,2.06,2.98,2.99Z" />
            <path class="cls-2"
              d="M26.18,58.9c1.43,1.11,2.94,2.11,4.54,2.98h31.45c1.6-.87,3.12-1.87,4.54-2.98H26.18Z" />
            <path class="cls-43"
              d="M21.64,11.26h49.6c-.92-1.06-1.91-2.05-2.96-2.99H24.61c-1.05.93-2.04,1.93-2.96,2.99Z" />
            <path class="cls-1" d="M75.08,49.23c.55-.97,1.05-1.96,1.51-2.98H16.31c.45,1.03.96,2.02,1.51,2.99h57.26Z" />
            <path class="cls-63" d="M79.18,36.57c.11-.98.17-1.98.19-2.98H13.51c.02,1.01.08,2,.19,2.99h65.48Z" />
          </g>
          <g class="cls-41">
            <path class="cls-46"
              d="M57.35,4.06h-31.7c-1.59.87-3.09,1.87-4.51,2.98h40.72c-1.41-1.11-2.92-2.11-4.51-2.98Z" />
            <path class="cls-67"
              d="M15.67,12.5c-.76.95-1.46,1.95-2.11,2.98h55.87c-.65-1.04-1.35-2.03-2.11-2.99H15.67Z" />
            <path class="cls-54" d="M70.17,16.71H12.83c-.55.97-1.05,1.96-1.5,2.99h60.34c-.45-1.02-.95-2.02-1.5-2.99Z" />
            <path class="cls-45" d="M74.25,29.37H8.76c-.11.98-.17,1.98-.19,2.99h65.86c-.02-1.01-.08-2-.19-2.99Z" />
            <path class="cls-57" d="M74.08,37.81H8.92c.15,1.01.35,2.01.58,2.99h63.99c.24-.98.43-1.98.58-2.99Z" />
            <path class="cls-33" d="M73.51,25.15H9.49c-.24.98-.43,1.98-.58,2.99h65.18c-.15-1.01-.34-2.01-.58-2.99Z" />
            <path class="cls-65"
              d="M15.73,53.45h51.55c.76-.95,1.47-1.95,2.12-2.99H13.61c.65,1.04,1.36,2.03,2.12,2.99Z" />
            <path class="cls-34" d="M73.17,42.03H9.84c.29,1.02.63,2.01,1.01,2.99h61.31c.38-.97.72-1.97,1.01-2.99Z" />
            <path class="cls-10"
              d="M73.19,23.92c-.29-1.02-.62-2.01-1.01-2.98H10.82c-.38.98-.72,1.97-1.01,2.99h63.38Z" />
            <path class="cls-22" d="M28.3,63.12c4.04,1.77,8.51,2.75,13.2,2.75s9.16-.98,13.21-2.75h-26.41Z" />
            <path class="cls-14" d="M28.14,2.82h26.73c-4.08-1.82-8.6-2.82-13.36-2.82s-9.28,1.01-13.36,2.82Z" />
            <path class="cls-3"
              d="M19.75,57.67h43.51c1.06-.93,2.05-1.93,2.98-2.99H16.76c.93,1.06,1.93,2.06,2.98,2.99Z" />
            <path class="cls-44"
              d="M21.24,58.9c1.43,1.11,2.94,2.11,4.54,2.98h31.45c1.6-.87,3.12-1.87,4.54-2.98H21.24Z" />
            <path class="cls-25"
              d="M16.7,11.26h49.6c-.92-1.06-1.91-2.05-2.96-2.99H19.67c-1.05.93-2.04,1.93-2.96,2.99Z" />
            <path class="cls-66" d="M70.13,49.23c.55-.97,1.05-1.96,1.51-2.98H11.36c.45,1.03.96,2.02,1.51,2.99h57.26Z" />
            <path class="cls-61" d="M74.24,36.57c.11-.98.17-1.98.19-2.98H8.57c.02,1.01.08,2,.19,2.99h65.48Z" />
          </g>
          <path class="cls-37"
            d="M59.82,4.06h-31.7c-1.59.87-3.09,1.87-4.51,2.98h40.72c-1.41-1.11-2.92-2.11-4.51-2.98Z" />
          <path class="cls-29" d="M18.14,12.5c-.76.95-1.46,1.95-2.11,2.98h55.87c-.65-1.04-1.35-2.03-2.11-2.99H18.14Z" />
          <path class="cls-24" d="M72.64,16.71H15.3c-.55.97-1.05,1.96-1.5,2.99h60.34c-.45-1.02-.95-2.02-1.5-2.99Z" />
          <path class="cls-56" d="M76.72,29.37H11.23c-.11.98-.17,1.98-.19,2.99h65.86c-.02-1.01-.08-2-.19-2.99Z" />
          <path class="cls-15" d="M76.55,37.81H11.39c.15,1.01.34,2.01.58,2.99h63.99c.24-.98.43-1.98.58-2.99Z" />
          <path class="cls-32" d="M75.98,25.15H11.96c-.24.98-.43,1.98-.58,2.99h65.18c-.15-1.01-.34-2.01-.58-2.99Z" />
          <path class="cls-18" d="M18.2,53.45h51.55c.76-.95,1.47-1.95,2.12-2.99H16.08c.65,1.04,1.36,2.03,2.12,2.99Z" />
          <path class="cls-13" d="M75.64,42.03H12.31c.29,1.02.63,2.01,1.01,2.99h61.31c.38-.97.72-1.97,1.01-2.99Z" />
          <path class="cls-62" d="M75.66,23.92c-.29-1.02-.62-2.01-1.01-2.98H13.29c-.38.98-.72,1.97-1.01,2.99h63.38Z" />
          <path class="cls-5" d="M30.77,63.12c4.04,1.77,8.51,2.75,13.2,2.75s9.16-.98,13.21-2.75h-26.41Z" />
          <path class="cls-9" d="M30.61,2.82h26.73c-4.08-1.82-8.6-2.82-13.36-2.82s-9.28,1.01-13.36,2.82Z" />
          <path class="cls-26"
            d="M22.22,57.67h43.51c1.06-.93,2.05-1.93,2.98-2.99H19.23c.93,1.06,1.93,2.06,2.98,2.99Z" />
          <path class="cls-58" d="M23.71,58.9c1.43,1.11,2.94,2.11,4.54,2.98h31.45c1.6-.87,3.12-1.87,4.54-2.98H23.71Z" />
          <path class="cls-6" d="M19.17,11.26h49.6c-.92-1.06-1.91-2.05-2.96-2.99H22.14c-1.05.93-2.04,1.93-2.96,2.99Z" />
          <path class="cls-21" d="M72.6,49.23c.55-.97,1.05-1.96,1.51-2.98H13.83c.45,1.03.96,2.02,1.51,2.99h57.26Z" />
          <path class="cls-59" d="M76.71,36.57c.11-.98.17-1.98.19-2.98H11.04c.02,1.01.08,2,.19,2.99h65.48Z" />
          <path class="cls-60"
            d="M3.6,56.6c-1.06-.29-2.02-.78-2.77-1.63-.8-.95-1-2.04-.69-3.23.05-.18.11-.37.22-.54-.04.23-.1.48-.11.72-.01.24-.11.49.01.73l.1-.68c.05-.23.09-.46.16-.68.27-.82.58-1.61,1.11-2.3.1-.12.18-.24.28-.35.57-.66,1.17-1.29,1.86-1.83,1.17-.91,2.4-1.76,3.73-2.44,1.46-.76,2.91-1.51,4.44-2.12.19-.07.33-.2.41-.39l1.26-2.52s.04-.05.1-.13c.02.22.04.38.06.54.2-.09.13-.32.17-.52.15.09.24.15.34.2.16.26.1.48-.01.69-.24.51-.49,1.01-.74,1.56.62-.22,1.21-.41,1.79-.63.49-.17.98-.33,1.45-.54.62-.28,1.23-.6,1.85-.9.33-.17.65-.37.9-.65.18-.19.19-.18.29-.51-.21-.13-.45-.16-.68-.18-.39-.06-.79-.11-1.19-.12-1.49-.05-2.97-.01-4.46.1-.77.06-1.54.1-2.3.17-.85.09-1.71.19-2.56.3-.54.06-1.08.16-1.63.22-.45.06-.9.09-1.37.12-.07.01-.16.02-.23.05-.88.26-1.76.51-2.63.78-.27.07-.55.15-.8.23l-.06.46c-.12-.06-.23-.11-.37-.17.05.12.09.22.13.33-.19.06-.29-.05-.37-.22.06-.13.12-.28.2-.46-.07.04-.13.04-.15.06-.06.11-.11.22-.16.33-.23-.05-.3-.21-.37-.39.09-.27.28-.41.51-.52l1.23-.57c.61-.29,1.24-.48,1.9-.62.12-.02.24-.05.37-.08.87-.31,1.77-.39,2.66-.52.46-.07.94-.11,1.4-.13.27-.01.55.04.82.05.11.01.22.01.33-.05-.1-.01-.21-.04-.32-.05.13-.13.3-.13.46-.16.89-.07,1.78-.15,2.67-.23,1.43-.11,2.84-.18,4.27-.16.78,0,1.56.01,2.33.18.23.06.46.13.67.23.23.11.37.28.39.56,0,.16.13.3.22.45-.15.88-.74,1.41-1.46,1.85-.18.12-.38.22-.55.39.1,0,.18.01.27,0,.33-.01.65-.05.96-.05.9.01,1.8.07,2.71.06,1.38-.02,2.72.16,4.05.5.55.15,1.09.34,1.58.65,1.07.67,1.73,2.11,1.05,3.51-.41.85-1.01,1.55-1.68,2.21-1.06,1.04-2.24,1.93-3.49,2.73-.6.39-1.24.71-1.87,1.07-.32.18-.61.4-.91.6-.09.06-.17.12-.27.17-3.01,1.63-6.14,2.99-9.43,3.92-.56.16-1.15.24-1.71.4-.67.18-1.34.29-2.02.37-1.45.18-2.91.22-4.34-.18ZM.72,51.79c-.04.35-.06.71-.1,1.05.15-.34.19-.68.1-1.05ZM10.13,55.49c.07-.12.11-.21.16-.28.3-.06.6-.11.89-.18.46-.11.95-.17,1.39-.37.26-.12.52-.23.79-.33.37-.12.74-.22,1.11-.33.27-.09.55-.13.8-.23.77-.3,1.52-.61,2.28-.93.67-.28,1.34-.57,2.01-.85.33-.13.66-.26.96-.43.32-.16.6-.37.89-.56.04-.02.07-.05.07-.06-.01-.29.24-.34.41-.45.95-.61,1.91-1.21,2.86-1.84.94-.62,1.83-1.34,2.61-2.17.62-.66,1.19-1.37,1.32-2.32.06-.46-.05-.88-.45-1.15-.32-.21-.66-.37-1.01-.51-.6-.27-1.26-.39-1.85-.69-.04-.02-.12.01-.2.02.05.05.07.07.12.11-.12,0-.2.01-.27,0-.72-.07-1.44-.13-2.16-.22-.33-.04-.66-.01-.97-.15-.15-.06-.35-.05-.52-.02-.9.13-1.82.13-2.72.2-.24.01-.5,0-.74.05-.49.09-.97.19-1.47.29l-1.52.26c.07.12.15.22.21.3q-.09.26-.32.34l-.32-.17c-.02-.09-.04-.17-.07-.28-.48-.05-.89.16-1.34.21.01.02.02.06.04.11q-.3.15-.48.44c-.19.39-.41.77-.61,1.16-.26.51-.49,1.02-.74,1.54-.32.61-.51,1.27-.73,1.86.02.11.04.18.06.24.05.13,0,.23-.1.29-.11.06-.22.05-.33-.04-.15-.11-.22-.26-.16-.45.06-.21.16-.41.21-.63.06-.29.2-.55.32-.82.15-.32.33-.62.38-.94.11-.6.37-1.11.61-1.63.07-.15.15-.29.22-.46-.23.1-.43.16-.62.24-.35.16-.71.33-1.06.5-1.55.77-3.1,1.54-4.53,2.5-1.69,1.15-3.17,2.51-4.13,4.35-.24.46-.43.94-.49,1.46-.02.2-.05.39-.07.54.05.17.07.32.11.45.06.18.09.37.17.52.11.19.22.4.44.52.23.12.45.26.67.39,0,.02-.01.05-.01.06h-.37c.97.73,1.43.77,2.02.71-.12-.06-.22-.11-.33-.16.02-.01.04-.04.05-.02.04,0,.06.01.1.01,1.38.3,2.75.38,4.16.17.23-.04.51-.11.71-.01.24.1.44.04.66.01,0,.05,0,.07.01.16.33-.12.63-.24.89-.34ZM18.18,41.45l-.16-.08.11-.13c-.34-.05-.66.05-.99.1-.23.04-.37.21-.57.35l1.61-.23ZM22.26,50.89c-.24.02-.48.16-.83.46.32-.18.57-.32.83-.46Z" />
          <path class="cls-60"
            d="M31.05,46.73c-.1.12-.16.28-.28.49.29-.16.52-.29.74-.46.79-.6,1.58-1.19,2.39-1.79l.6-.48c.07-.05.16-.07.24-.12l.18.41c.16-.04.28-.21.46-.09.22.3.11.61,0,.91-.07.2-.17.38-.27.56l-1.02,2.06c-.04.07-.09.15-.13.23-.11-.13-.02-.26.01-.37.06-.15.12-.29.2-.44.16-.22.29-.45.38-.71-.17.21-.39.4-.38.71-.16.07-.21.23-.28.38-.09.18-.17.37-.28.58l-.2-.22s-.09.05-.16.09c-.05-.05-.1-.1-.16-.15.06-.22.2-.4.13-.65-.01-.06.05-.13.09-.21l.57-1.12c.02-.06.05-.13.11-.27l-1.05.74s-.07,0-.11.01c-.12-.04-.15-.02-.24.13.05-.01.12-.02.18-.02.1.04.16-.01.21-.09.11-.05.22-.09.39-.15-.54.48-1.08.83-1.63,1.17-.29.18-.6.33-.9.49-.38.19-.76.13-1.12-.01-.18-.07-.26-.22-.24-.43.01-.43.15-.82.37-1.16.27-.39.54-.77.84-1.12.65-.74,1.37-1.41,2.18-1.97.29-.2.62-.33.96-.41.15-.04.27-.13.41-.21.15-.07.29-.16.45-.2.26-.07.43.1.59.28-.05-.01-.1-.04-.17-.06-.01.06-.04.12-.05.21.11.01.22.04.32.05.24.24.32.51.17.84-.27.12-.29.11-.45-.12-.05.02-.11.05-.17.09-.04-.04-.09-.06-.12-.1-.02-.04-.04-.07-.07-.15-.16.07-.32.12-.45.21-.46.29-.94.6-1.39.9-.26.16-.49.35-.73.52-.45.32-.76.77-1.11,1.18ZM30.6,47.83c-.07.02-.15.04-.22.05.19.07.26.05.22-.05ZM30.83,47.63c.07.02.12.05.17.06.02-.05.05-.1.11-.19l-.28.13ZM32.46,47.05s.02.02.02.05l.07-.09-.1.04Z" />
          <path class="cls-60"
            d="M36.97,48.06s-.11-.04-.16-.04c-.52-.05-.72-.32-.61-.83.01-.07.04-.15.04-.22-.02-.45.15-.83.4-1.19.05-.07.07-.15.12-.22.07-.06.17-.12.15-.24.01-.01.01-.02.04-.04.15-.06.26-.17.29-.34l.28-.26s.09-.02.12-.05c.23-.2.48-.38.71-.57.11-.09.2-.17.29-.26.02-.02.06-.04.06-.05-.02-.24.17-.26.31-.33.4-.23.83-.37,1.28-.46.12-.02.26-.01.39-.02.1,0,.18.02.24.1.1.12.24.16.39.18.45.07.74.56.62.99-.04.11-.06.23-.21.27-.1.02-.15,0-.28-.17-.04.02-.06.04-.12.09-.04-.06-.09-.11-.11-.17-.02-.04,0-.09-.01-.13-.01-.23-.1-.32-.33-.3-.32.01-.62.09-.91.21-.22.09-.44.17-.63.29-.62.38-1.24.77-1.73,1.33-.3.35-.55.74-.72,1.18-.05.12-.06.27-.1.43.13.02.24.06.34.05,1.07-.06,2.05-.4,2.9-1.07.22-.17.38-.39.59-.61.07.1.26.06.34.21.11-.01.12.09.15.16.01.09.02.17,0,.24-.07.24-.24.43-.41.61-.39.4-.87.67-1.38.89-.54.23-1.11.4-1.71.45-.22.01-.43.02-.62-.09ZM36.31,47.28c-.05.29-.01.35.29.51-.12-.21-.2-.35-.29-.51Z" />
          <path class="cls-60"
            d="M48.99,35.19c-.23.2-.32.48-.44.73-.29.67-.58,1.34-.89,2.01-.13.29-.3.59-.46.88-.04.05-.1.1-.16.16.02.32-.1.62-.24.93l-1.1,2.32c-.05.09-.09.2-.15.3.15,0,.27-.02.37.01.32.12.67.18.97.34.22.11.37.34.35.63-.04.4-.16.76-.43,1.06-.33.35-.72.62-1.17.8-.07.02-.13.05-.24.1.17.26.3.51.49.73.49.58.99,1.17,1.49,1.74.13.17.3.33.22.58-.07.22-.22.3-.43.22-.12-.06-.22-.15-.37-.1-.05.01-.13-.07-.2-.12-.15-.16-.28-.33-.44-.5-.18-.19-.29-.45-.54-.61-.02-.02-.06-.06-.07-.11-.05-.26-.22-.45-.38-.65-.11-.13-.16-.34-.39-.35-.04,0-.07-.07-.1-.12-.1-.17-.2-.33-.27-.5-.07-.17-.11-.35-.17-.57-.07.13-.17.24-.21.35-.13.55-.44,1.01-.68,1.51-.1.18-.21.35-.23.57-.04.26-.13.3-.44.26l.07-.28-.41.23c-.1-.23-.11-.44.02-.66.16-.27.26-.57.35-.88.07-.24.22-.48.32-.72.05-.11.07-.22.11-.33.11-.19.1-.29-.07-.5.07-.26.21-.49.43-.66.33-.28.54-.63.72-1.02.79-1.68,1.61-3.35,2.39-5.05.44-.93.83-1.89,1.24-2.83.1-.24.23-.46.35-.7.21.07.09.26.18.37.07-.1.16-.2.27-.32.05.24-.17.46.1.66.05-.01.12-.02.22-.04,0,.04.01.09,0,.1ZM42.84,47.34s-.04-.01-.06-.01v.15s.04-.09.06-.13ZM45.06,43.86c-.24.11-.35.29-.4.55.46.04,1.13-.34,1.51-.89-.41.06-.77.18-1.11.34Z" />
          <path class="cls-60"
            d="M45.18,56.32c-.61-.27-.79-.74-.82-1.33-.01-.3.04-.62.05-.87l.22-.3c.06-.09.11-.16.16-.24-.1-.33-.04-.66.06-.95.48-1.38,1.15-2.64,2-3.81.11-.16.23-.33.48-.35.11.13.3.21.29.45l.23.04c.18.27.18.57.12.89-.2.01-.37.04-.54.05-.15,0-.27.04-.33.17-.15.28-.38.49-.55.74-.16.22-.3.46-.4.72-.19.52-.37,1.07-.55,1.6-.23.65-.32,1.32-.35,1.99,0,.11.04.21.06.34.39-.04.69-.21.94-.43.44-.38.88-.76,1.21-1.23.99-1.45,1.96-2.9,2.72-4.49.29-.63.52-1.29.78-1.94.02-.04.02-.09.04-.17-.1.05-.16.07-.22.11-.15.06-.29.15-.45.21-.54.2-1,.09-1.39-.32q.13-.06,0-.18v.2c-.22-.17-.26-.39-.19-.67.09-.39.28-.73.5-1.04.39-.54.85-.99,1.43-1.34.21-.12.41-.19.66-.22.17-.01.34-.05.52-.06.24-.02.45.06.61.26.06.09.16.15.26.21.35.21.52.51.54.93,0,.13.05.32-.01.38-.12.12,0,.24-.1.34-.11.11-.18.24-.29.39-.04-.16.09-.24.17-.4-.26.16-.45-.05-.69,0-.09-.1-.04-.22-.01-.35.04-.24.1-.5-.1-.74-.41-.06-.77.11-1.12.29-.21.11-.4.28-.59.43-.19.16-.37.32-.55.49-.07.07-.12.17-.16.3.07-.02.15-.04.22-.07.27-.15.52-.29.78-.44.32-.17.34-.16.61.07l.06.04c.49.27.49.72.34,1.16-.22.69-.49,1.38-.76,2.06-.37.93-.83,1.82-1.34,2.67-.35.58-.74,1.16-1.11,1.73-.05.07-.09.13-.16.22-.02-.01-.05-.04-.09-.05-.35.44-.71.89-1.08,1.34.04.01.07.02.11.05-.23.57-.69.91-1.22,1.18-.33.17-.65.12-.99-.02ZM44.73,54.01v-.09s-.04.01-.04.01c0,.06,0,.11.01.17.01-.02.02-.06.02-.1ZM45.41,55.76s0-.02-.01-.02c-.05-.05-.1-.09-.16-.12-.01.01-.02.02-.04.05.05.05.1.1.15.13.05-.02.06-.02.06-.04ZM46.07,55.98c-.17-.09-.28-.01-.35.13.12-.04.23-.09.35-.13ZM47.97,53.27v-.05s-.04.01-.05.02c-.01.01,0,.04,0,.05.02-.01.04-.01.05-.02ZM50.28,46.95c-.15-.05-.48.01-.74.15.37.09.46.06.74-.15ZM51.03,46.74s-.02-.04-.02-.05l-.04.04s.02.01.05.02h.01Z" />
          <path class="cls-60"
            d="M57.75,44.22c0,.28-.22.59-.54.68-.05-.07-.11-.15-.16-.23-.02,0-.04-.01-.06-.01-.11-.01-.23.11-.34-.01-.01-.01-.1.02-.15.05-.17.07-.34.16-.51.26-.39.21-.72.49-1.04.78h0c-.11.15-.21.32-.34.46-.17.22-.38.4-.56.61-.12.15-.23.3-.3.46-.15.33-.34.62-.52.94l-.44-.24c-.05-.18-.11-.39-.16-.61.51-1.39,1.26-2.69,1.68-4.14l.38.18c-.01.07-.01.16-.02.26.11.02.22.04.37.06-.06.27-.12.51-.19.79.09-.06.16-.11.22-.16.44-.38.95-.65,1.52-.76.15-.04.29-.05.43-.04.07,0,.15.05.19.11.09.09.15.21.23.3.04.04.12.02.18.05.1.04.13.1.13.21ZM54.96,45.72s-.02-.06-.04-.12c-.33.19-.56.48-.8.74-.05.05-.05.15-.09.3.28-.3.49-.56.72-.8.05-.05.13-.07.21-.12ZM57.16,43.77c-.18-.15-.32-.09-.45-.06-.51.12-.99.3-1.45.67.66-.22,1.26-.4,1.9-.61Z" />
          <path class="cls-60"
            d="M58.22,47.16c-.01-.18,0-.38.04-.55.15-.68.4-1.32.85-1.85.22-.26.4-.52.63-.77.15-.15.34-.28.52-.38.15-.09.24-.18.32-.33.16-.35.5-.46.83-.5.21-.04.33.15.39.28.15.09.27.12.32.2.09.15.19.33.11.5-.1.19-.05.35-.01.55.12.46.15.94.1,1.41-.04.39-.21.72-.4,1.05-.26.44-.65.82-1.1,1.07-.3-.07-.6-.1-.89.02-.13.06-.28.12-.43.16-.74.22-1.23-.38-1.28-.87ZM59.57,45.35c.21-.16.4-.32.55-.55.1-.15.24-.26.38-.38.13-.12.28-.24.41-.38.11-.11.21-.24.33-.4l-.1-.13c-.18.12-.35.23-.52.35-.44.29-.73.74-1.15,1.08-.37.3-.51.78-.71,1.21.2-.34.5-.57.8-.8ZM60.07,47.42c.32-.06.56-.23.76-.49.22-.29.52-.51.67-.85.01-.02.09-.01.15-.01.22-.29.16-.66.13-1.06-.1.28-.18.52-.26.77.16-.62.12-1.22-.11-1.88l-.05.23s-.05-.07-.06-.11h-.06c-.44.28-.83.66-1.21,1.04-.29.28-.49.62-.69.96-.22.34-.34.73-.24,1.17.21.04.4.06.6.1,0,.01,0,.02-.01.04h-.54c.11.21.24.28.45.22.16-.04.3-.1.48-.12Z" />
          <path class="cls-60"
            d="M67.92,45c-.22.48-.44.93-.65,1.4.18-.19.37-.4.55-.61l.18-.18c.15.1.09.21.04.3-.16.3-.33.6-.49.9-.16.32-.34.62-.49.94-.12.27-.34.41-.51.66l-.2-.18s-.06.02-.11.06l-.18-.12c.04-.1.06-.18.11-.28.05-.11.13-.22.1-.37-.01-.07.04-.17.07-.26.15-.33.3-.66.46-.99.05-.1.09-.19.09-.33-.07.06-.15.12-.21.18-.5.44-.99.89-1.5,1.33-.35.29-.73.56-1.18.71-.23.09-.45.13-.66-.06-.04-.04-.12-.04-.18-.05-.22-.04-.32-.17-.32-.39-.01-.5.17-.94.41-1.34.12-.21.28-.38.41-.56.09-.12.2-.24.16-.41-.01-.04.02-.09.04-.12.26-.43.54-.83.9-1.18.09.01.13-.01.07-.11.21-.43.56-.71.91-.99.18-.13.3-.09.52.17-.28.13-.62.07-.87.38.02.01.09.06.12.05.23-.07.46-.16.74-.26.04.01.12.06.22.1,0,.1.01.18.02.24-.09.01-.16.01-.26.02l.16.33c-.12-.02-.22-.02-.35-.05-.41.48-.91.93-1.29,1.46-.38.54-.63,1.15-.99,1.79.38-.11.61-.32.93-.49-.1-.01-.15-.02-.21-.02.01-.02.01-.05.01-.06.57-.48,1.12-.97,1.71-1.43.34-.28.71-.52,1.02-.84.26-.24.54-.46.8-.69.09-.07.17-.16.26-.24h-.01c.1.01.2,0,.28-.01.13.15.11.28.05.41-.19.43-.38.85-.57,1.29-.06-.05-.09-.07-.15-.11ZM63.78,46.63s.05.02.07.05c.06-.12.12-.23.18-.34l-.06-.04-.19.33ZM65.08,46.91c-.23.02-.54.26-.76.55.3-.15.54-.33.76-.55ZM67.45,44.97c-.06.02-.11.04-.16.07l-.79.77c.12,0,.21-.07.32-.09.4-.09.56-.38.63-.76ZM67.2,46.61l.02-.12-.06.11s.02.01.04.01ZM67.51,44.84s-.05.02-.05.04v.09s.05-.02.06-.05c.01-.01-.01-.05-.01-.07Z" />
          <path class="cls-60"
            d="M74.33,45.6c-.22.83-.43,1.65-.63,2.47l-.15.57c-.02.11-.05.23-.01.33.06.24,0,.43-.19.62-.15.07-.33.11-.48-.06-.04-.05-.1-.06-.15-.09-.23-.11-.29-.22-.24-.46l.32-1.3c.09-.37.18-.72.29-1.08.05-.21.07-.44.24-.61.04-.02.06-.1.06-.15.05-.13.09-.29.11-.44.01-.13-.01-.26-.02-.39-.22-.04-.38.02-.54.1-1.01.46-1.88,1.12-2.61,1.96-.06.07-.15.17-.24.21-.18.07-.28-.01-.27-.21.04-.24.1-.49.16-.73.11-.51.38-.97.61-1.44l.33-.62s-.07.01-.13.01c.22-.41.43-.83.77-1.18.07.06.11.1.18.18-.11.1-.21.18-.3.28.13.22.09.46.04.71.18-.27.38-.49.56-.77.01.05.02.11.02.16s-.06.11-.05.12c.16.24-.02.39-.16.55-.09.12-.16.27-.2.41l.66-.33c-.05.13-.07.18-.11.29.18-.06.35-.12.54-.19-.06-.05-.1-.07-.15-.1.46-.65,1.22-.41,1.51.01.23.34.34.73.23,1.16ZM71.04,44.06s-.06.07-.1.12c-.01.02,0,.05,0,.09.09-.04.17-.09.1-.21Z" />
          <path class="cls-60"
            d="M84.33,37.62c-.22.72-.57,1.38-.94,2.02-.54.94-1.1,1.86-1.74,2.74-.04.05-.07.11-.1.17-.5,1.17-.95,2.36-1.33,3.58,0,.01,0,.04-.01.09.13.15.27.3.4.46-.13.5-.37.93-.67,1.3-.18.23-.37.26-.63.12-.02-.01-.06-.05-.09-.04-.11.02-.21-.01-.26-.1-.05-.1-.07-.21-.06-.32.04-.29.06-.6.15-.88.11-.38.26-.76.38-1.12.05-.13.09-.26.09-.41-.07.07-.15.15-.21.22-.71.8-1.43,1.57-2.27,2.23-.3.24-.63.45-1,.58-.37.15-.69.01-1.01-.13-.2-.1-.24-.28-.23-.51.05-.65.33-1.21.68-1.73.8-1.18,1.84-2.08,3.17-2.66.41-.17.85-.29,1.33-.27.33-.48.72-.9.94-1.44.27-.63.57-1.26.88-1.86.16-.32.34-.62.54-.91.07-.12.22-.17.29-.33.19-.38.43-.73.57-1.13.1-.28.22-.4.48-.6l.09.2c.44-.01.71.3.57.72ZM75.61,46.92l-.04-.12s-.04.01-.05.02l.04.11s.04-.01.05-.01ZM75.81,46.39c-.1.05-.12.15-.16.24l.06.04.1-.28ZM75.9,46.21s-.04.09-.05.13l.1-.11s-.04-.01-.05-.02ZM78.8,44.41c-.89.32-2.38,1.61-2.89,2.72,1.17-.74,2.05-1.72,2.89-2.72ZM76.28,45.83s.05-.07.07-.12c-.06.01-.13,0-.07.12ZM76.38,45.68s.17-.05.06-.21l-.06.21ZM79,44.52c-.5.49-.93.99-1.32,1.52l.06.06c.23-.24.45-.5.68-.74.52-.57.55-.6.57-.84Z" />
          <path class="cls-51"
            d="M3.82,57.76c-1.06-.29-2.02-.78-2.77-1.63-.8-.95-1-2.04-.69-3.23.05-.18.11-.37.22-.54-.04.23-.1.48-.11.72-.01.24-.11.49.01.73l.1-.68c.05-.23.09-.46.16-.68.27-.82.58-1.61,1.11-2.3.1-.12.18-.24.28-.35.57-.66,1.17-1.29,1.86-1.83,1.17-.91,2.4-1.76,3.73-2.44,1.46-.76,2.91-1.51,4.44-2.12.19-.07.33-.2.41-.39l1.26-2.52s.04-.05.1-.13c.02.22.04.38.06.54.2-.09.13-.32.17-.52.15.09.24.15.34.2.16.26.1.48-.01.69-.24.51-.49,1.01-.74,1.56.62-.22,1.21-.41,1.79-.63.49-.17.98-.33,1.45-.54.62-.28,1.23-.6,1.85-.9.33-.17.65-.37.9-.65.18-.19.19-.18.29-.51-.21-.13-.45-.16-.68-.18-.39-.06-.79-.11-1.19-.12-1.49-.05-2.97-.01-4.46.1-.77.06-1.54.1-2.3.17-.85.09-1.71.19-2.56.3-.54.06-1.09.16-1.63.22-.45.06-.9.09-1.37.12-.07.01-.16.02-.23.05-.88.26-1.76.51-2.63.78-.27.07-.55.15-.8.23l-.06.46c-.12-.06-.23-.11-.37-.17.05.12.09.22.13.33-.19.06-.29-.05-.37-.22.06-.13.12-.28.2-.46-.07.04-.13.04-.15.06-.06.11-.11.22-.16.33-.23-.05-.31-.21-.37-.39.09-.27.28-.41.51-.52l1.23-.57c.61-.29,1.24-.48,1.9-.62.12-.02.24-.05.37-.09.87-.3,1.77-.39,2.66-.52.46-.07.94-.11,1.4-.13.27-.01.55.04.82.05.11.01.22.01.33-.05-.1-.01-.21-.04-.32-.05.13-.13.3-.13.46-.16.89-.07,1.78-.15,2.67-.23,1.43-.11,2.84-.18,4.27-.16.78,0,1.56.01,2.33.18.23.06.46.13.67.23.23.11.37.28.39.56,0,.16.13.3.22.45-.15.88-.74,1.41-1.46,1.85-.18.12-.38.22-.55.39.1,0,.18.01.27,0,.33-.01.65-.05.96-.05.9.01,1.8.07,2.71.06,1.38-.02,2.72.16,4.05.5.55.15,1.09.34,1.58.65,1.07.67,1.73,2.11,1.05,3.51-.41.85-1.01,1.55-1.68,2.21-1.06,1.04-2.24,1.93-3.49,2.73-.6.39-1.24.71-1.87,1.07-.32.18-.61.4-.91.6-.09.06-.17.12-.27.17-3.01,1.63-6.14,2.99-9.43,3.92-.56.16-1.15.24-1.71.4-.67.18-1.34.29-2.02.37-1.45.18-2.91.22-4.34-.18ZM.95,52.94c-.04.35-.06.71-.1,1.05.15-.34.19-.68.1-1.05ZM10.36,56.65c.07-.12.11-.21.16-.28.31-.06.6-.11.89-.18.46-.11.95-.17,1.39-.37.26-.12.52-.23.79-.33.37-.12.74-.22,1.11-.33.27-.09.55-.13.8-.23.77-.31,1.52-.61,2.28-.93.67-.28,1.34-.57,2.01-.85.33-.13.66-.26.96-.43.32-.16.6-.37.89-.56.04-.02.07-.05.07-.06-.01-.29.24-.34.41-.45.95-.61,1.91-1.21,2.86-1.84.94-.62,1.83-1.34,2.61-2.17.62-.66,1.19-1.37,1.32-2.32.06-.46-.05-.88-.45-1.15-.32-.21-.66-.37-1.01-.51-.6-.27-1.26-.39-1.85-.69-.04-.02-.12.01-.2.02.05.05.07.07.12.11-.12,0-.2.01-.27,0-.72-.07-1.44-.13-2.16-.22-.33-.04-.66-.01-.97-.15-.15-.06-.35-.05-.52-.02-.9.13-1.82.13-2.72.2-.24.01-.5,0-.74.05-.49.09-.97.19-1.47.29l-1.52.26c.07.12.15.22.21.3q-.09.26-.32.34l-.32-.17c-.02-.09-.04-.17-.07-.28-.48-.05-.89.16-1.34.21.01.02.02.06.04.11q-.31.15-.48.44c-.19.39-.41.77-.61,1.16-.26.51-.49,1.02-.74,1.54-.32.61-.51,1.27-.73,1.87.02.11.04.18.06.24.05.13,0,.23-.1.29-.11.06-.22.05-.33-.04-.15-.11-.22-.26-.16-.45.06-.21.16-.41.21-.63.06-.29.2-.55.32-.82.15-.32.33-.62.38-.94.11-.6.37-1.11.61-1.63.07-.15.15-.29.22-.46-.23.1-.43.16-.62.24-.35.16-.71.33-1.06.5-1.55.77-3.1,1.54-4.53,2.5-1.69,1.15-3.17,2.51-4.13,4.35-.24.46-.43.94-.49,1.46-.02.2-.05.39-.07.54.05.17.07.32.11.45.06.18.09.37.17.52.11.19.22.4.44.52.23.12.45.26.67.39,0,.02-.01.05-.01.06h-.37c.97.73,1.43.77,2.02.71-.12-.06-.22-.11-.33-.16.02-.01.04-.04.05-.02.04,0,.06.01.1.01,1.38.3,2.75.38,4.16.17.23-.04.51-.11.71-.01.24.1.44.04.66.01,0,.05,0,.07.01.16.33-.12.63-.24.89-.34ZM18.4,42.61l-.16-.09.11-.13c-.34-.05-.66.05-.99.1-.23.04-.37.21-.57.35l1.61-.23ZM22.48,52.04c-.24.02-.48.16-.83.46.32-.18.57-.32.83-.46Z" />
          <path class="cls-51"
            d="M31.27,47.89c-.1.12-.16.28-.28.49.29-.16.52-.29.74-.46.79-.6,1.58-1.19,2.39-1.79l.6-.48c.07-.05.16-.07.24-.12l.18.41c.16-.04.28-.21.46-.09.22.3.11.61,0,.91-.07.2-.17.38-.27.56l-1.02,2.06c-.04.07-.09.15-.13.23-.11-.13-.02-.26.01-.37.06-.15.12-.29.2-.44.16-.22.29-.45.38-.71-.17.21-.39.4-.38.71-.16.07-.21.23-.28.38-.09.18-.17.37-.28.58l-.2-.22s-.09.05-.16.09c-.05-.05-.1-.1-.16-.15.06-.22.2-.4.13-.65-.01-.06.05-.13.09-.21l.57-1.12c.02-.06.05-.13.11-.27l-1.05.74s-.07,0-.11.01c-.12-.04-.15-.02-.24.13.05-.01.12-.02.18-.02.1.04.16-.01.21-.09.11-.05.22-.09.39-.15-.54.48-1.08.83-1.63,1.17-.29.18-.6.33-.9.49-.38.19-.76.13-1.12-.01-.18-.07-.26-.22-.24-.43.01-.43.15-.82.37-1.16.27-.39.54-.77.84-1.12.65-.74,1.37-1.41,2.18-1.97.29-.2.62-.33.96-.41.15-.04.27-.13.41-.21.15-.07.29-.16.45-.2.26-.07.43.1.59.28-.05-.01-.1-.04-.17-.06-.01.06-.04.12-.05.21.11.01.22.04.32.05.24.24.32.51.17.84-.27.12-.29.11-.45-.12-.05.02-.11.05-.17.09-.04-.04-.09-.06-.12-.1-.02-.04-.04-.07-.07-.15-.16.07-.32.12-.45.21-.46.29-.94.6-1.39.9-.26.16-.49.35-.73.52-.45.32-.76.77-1.11,1.18ZM30.82,48.98c-.07.02-.15.04-.22.05.19.07.26.05.22-.05ZM31.06,48.79c.07.02.12.05.17.06.02-.05.05-.1.11-.19l-.28.13ZM32.69,48.2s.02.02.02.05l.07-.09-.1.04Z" />
          <path class="cls-51"
            d="M37.2,49.22s-.11-.04-.16-.04c-.52-.05-.72-.32-.61-.83.01-.07.04-.15.04-.22-.02-.45.15-.83.4-1.19.05-.07.07-.15.12-.22.07-.06.17-.12.15-.24.01-.01.01-.02.04-.04.15-.06.26-.17.29-.34l.28-.26s.09-.02.12-.05c.23-.2.48-.38.71-.57.11-.09.2-.17.29-.26.02-.02.06-.04.06-.05-.02-.24.17-.26.31-.33.4-.23.83-.37,1.28-.46.12-.02.26-.01.39-.02.1,0,.18.02.24.1.1.12.24.16.39.18.45.07.74.56.62.99-.04.11-.06.23-.21.27-.1.02-.15,0-.28-.17-.04.02-.06.04-.12.09-.04-.06-.09-.11-.11-.17-.02-.04,0-.09-.01-.13-.01-.23-.1-.32-.33-.3-.32.01-.62.09-.91.21-.22.09-.44.17-.63.29-.62.38-1.24.77-1.73,1.33-.3.35-.55.74-.72,1.18-.05.12-.06.27-.1.43.13.02.24.06.34.05,1.07-.06,2.05-.4,2.9-1.07.22-.17.38-.39.59-.61.07.1.26.06.34.21.11-.01.12.09.15.16.01.09.02.17,0,.24-.07.24-.24.43-.41.61-.39.4-.87.67-1.38.89-.54.23-1.11.4-1.71.45-.22.01-.43.02-.62-.09ZM36.54,48.43c-.05.29-.01.35.29.51-.12-.21-.2-.35-.29-.51Z" />
          <path class="cls-51"
            d="M49.21,36.34c-.23.2-.32.48-.44.73-.29.67-.58,1.34-.89,2.01-.13.29-.3.59-.46.88-.04.05-.1.1-.16.16.02.32-.1.62-.24.93l-1.1,2.32c-.05.09-.09.2-.15.3.15,0,.27-.02.37.01.32.12.67.18.97.34.22.11.37.34.35.63-.04.4-.16.76-.43,1.06-.33.35-.72.62-1.17.8-.07.02-.13.05-.24.1.17.26.3.51.49.73.49.58.99,1.17,1.49,1.74.13.17.3.33.22.58-.07.22-.22.3-.43.22-.12-.06-.22-.15-.37-.1-.05.01-.13-.07-.2-.12-.15-.16-.28-.33-.44-.5-.18-.19-.29-.45-.54-.61-.02-.02-.06-.06-.07-.11-.05-.26-.22-.45-.38-.65-.11-.13-.16-.34-.39-.35-.04,0-.07-.07-.1-.12-.1-.17-.2-.33-.27-.5-.07-.17-.11-.35-.17-.57-.07.13-.17.24-.21.35-.13.55-.44,1.01-.68,1.51-.1.18-.21.35-.23.57-.04.26-.13.3-.44.26l.07-.28-.41.23c-.1-.23-.11-.44.02-.66.16-.27.26-.57.35-.88.07-.24.22-.48.32-.72.05-.11.07-.22.11-.33.11-.19.1-.29-.07-.5.07-.26.21-.49.43-.66.33-.28.54-.63.72-1.02.79-1.68,1.61-3.35,2.39-5.05.44-.93.83-1.89,1.24-2.83.1-.24.23-.46.35-.69.21.07.09.26.18.37.07-.1.16-.2.27-.32.05.24-.17.46.1.66.05-.01.12-.02.22-.04,0,.04.01.09,0,.1ZM43.07,48.5s-.04-.01-.06-.01v.15s.04-.09.06-.13ZM45.29,45.02c-.24.11-.35.29-.4.55.46.04,1.13-.34,1.51-.89-.41.06-.77.18-1.11.34Z" />
          <path class="cls-51"
            d="M45.41,57.48c-.61-.27-.79-.74-.82-1.33-.01-.3.04-.62.05-.87l.22-.3c.06-.09.11-.16.16-.24-.1-.33-.04-.66.06-.95.48-1.38,1.15-2.64,2-3.81.11-.16.23-.33.48-.35.11.13.31.21.29.45l.23.04c.18.27.18.57.12.89-.2.01-.37.04-.54.05-.15,0-.27.04-.33.17-.15.28-.38.49-.55.74-.16.22-.3.46-.4.72-.19.52-.37,1.07-.55,1.6-.23.65-.32,1.32-.35,1.99,0,.11.04.21.06.34.39-.04.7-.21.94-.43.44-.38.88-.76,1.21-1.23.99-1.45,1.96-2.9,2.72-4.49.29-.63.52-1.29.78-1.94.02-.04.02-.09.04-.17-.1.05-.16.07-.22.11-.15.06-.29.15-.45.21-.54.2-1,.09-1.39-.32q.13-.06,0-.18v.2c-.22-.17-.26-.39-.19-.67.09-.39.28-.73.5-1.04.39-.54.85-.99,1.43-1.34.21-.12.41-.19.66-.22.17-.01.34-.05.52-.06.24-.02.45.06.61.26.06.09.16.15.26.21.35.21.52.51.54.93,0,.13.05.32-.01.38-.12.12,0,.24-.1.34-.11.11-.18.24-.29.39-.04-.16.09-.24.17-.4-.26.16-.45-.05-.69,0-.09-.1-.04-.22-.01-.35.04-.24.1-.5-.1-.74-.41-.06-.77.11-1.12.29-.21.11-.4.28-.59.43-.19.16-.37.32-.55.49-.07.07-.12.17-.16.3.07-.02.15-.04.22-.07.27-.15.52-.29.78-.44.32-.17.34-.16.61.07l.06.04c.49.27.49.72.34,1.16-.22.69-.49,1.38-.76,2.06-.37.93-.83,1.82-1.34,2.67-.35.58-.74,1.16-1.11,1.73-.05.07-.09.13-.16.22-.02-.01-.05-.04-.09-.05-.35.44-.71.89-1.08,1.34.04.01.07.02.11.05-.23.57-.69.91-1.22,1.18-.33.17-.65.12-.99-.02ZM44.96,55.16v-.09s-.04.01-.04.01c0,.06,0,.11.01.17.01-.02.02-.06.02-.1ZM45.64,56.92s0-.02-.01-.02c-.05-.05-.1-.09-.16-.12-.01.01-.02.02-.04.05.05.05.1.1.15.13.05-.02.06-.02.06-.04ZM46.3,57.14c-.17-.09-.28-.01-.35.13.12-.04.23-.09.35-.13ZM48.2,54.43v-.05s-.04.01-.05.02,0,.04,0,.05c.02-.01.04-.01.05-.02ZM50.5,48.11c-.15-.05-.48.01-.74.15.37.09.46.06.74-.15ZM51.26,47.9s-.02-.04-.02-.05l-.04.04s.02.01.05.02h.01Z" />
          <path class="cls-51"
            d="M57.97,45.38c0,.28-.22.59-.54.68-.05-.07-.11-.15-.16-.23-.02,0-.04-.01-.06-.01-.11-.01-.23.11-.34-.01-.01-.01-.1.02-.15.05-.17.07-.34.16-.51.26-.39.21-.72.49-1.04.78h0c-.11.15-.21.32-.34.46-.17.22-.38.4-.56.61-.12.15-.23.3-.3.46-.15.33-.34.62-.52.94l-.44-.24c-.05-.18-.11-.39-.16-.61.51-1.39,1.26-2.69,1.68-4.14l.38.18c-.01.07-.01.16-.02.26.11.02.22.04.37.06-.06.27-.12.51-.19.79.09-.06.16-.11.22-.16.44-.38.95-.65,1.52-.76.15-.04.29-.05.43-.04.07,0,.15.05.19.11.09.09.15.21.23.3.04.04.12.02.18.05.1.04.13.1.13.21ZM55.18,46.87s-.02-.06-.04-.12c-.33.19-.56.48-.8.74-.05.05-.05.15-.09.31.28-.31.49-.56.72-.8.05-.05.13-.07.21-.12ZM57.39,44.92c-.18-.15-.32-.09-.45-.06-.51.12-.99.3-1.45.67.66-.22,1.26-.4,1.9-.61Z" />
          <path class="cls-51"
            d="M58.45,48.31c-.01-.18,0-.38.04-.55.15-.68.4-1.32.85-1.85.22-.26.4-.52.63-.77.15-.15.34-.28.52-.38.15-.09.24-.18.32-.33.16-.35.5-.46.83-.5.21-.04.33.15.39.28.15.09.27.12.32.2.09.15.19.33.11.5-.1.19-.05.35-.01.55.12.46.15.94.1,1.41-.04.39-.21.72-.4,1.05-.26.44-.65.82-1.1,1.07-.3-.07-.6-.1-.89.02-.13.06-.28.12-.43.16-.74.22-1.23-.38-1.28-.87ZM59.8,46.51c.21-.16.4-.32.55-.55.1-.15.24-.26.38-.38.13-.12.28-.24.41-.38.11-.11.21-.24.33-.4l-.1-.13c-.18.12-.35.23-.52.35-.44.29-.73.74-1.15,1.08-.37.31-.51.78-.71,1.21.2-.34.5-.57.8-.8ZM60.3,48.58c.32-.06.56-.23.76-.49.22-.29.52-.51.67-.85.01-.02.09-.01.15-.01.22-.29.16-.66.13-1.06-.1.28-.18.52-.26.77.16-.62.12-1.22-.11-1.88l-.05.23s-.05-.07-.06-.11h-.06c-.44.28-.83.66-1.21,1.04-.29.28-.49.62-.69.96-.22.34-.34.73-.24,1.17.21.04.4.06.6.1,0,.01,0,.02-.01.04h-.54c.11.21.24.28.45.22.16-.04.3-.1.48-.12Z" />
          <path class="cls-51"
            d="M68.15,46.16c-.22.48-.44.93-.65,1.4.18-.19.37-.4.55-.61l.18-.18c.15.1.09.21.04.3-.16.3-.33.6-.49.9-.16.32-.34.62-.49.94-.12.27-.34.41-.51.66l-.2-.18s-.06.02-.11.06l-.18-.12c.04-.1.06-.18.11-.28.05-.11.13-.22.1-.37-.01-.07.04-.17.07-.26.15-.33.3-.66.46-.99.05-.1.09-.19.09-.33-.07.06-.15.12-.21.18-.5.44-.99.89-1.5,1.33-.35.29-.73.56-1.18.71-.23.09-.45.13-.66-.06-.04-.04-.12-.04-.18-.05-.22-.04-.32-.17-.32-.39-.01-.5.17-.94.41-1.34.12-.21.28-.38.41-.56.09-.12.2-.24.16-.41-.01-.04.02-.08.04-.12.26-.43.54-.83.9-1.18.09.01.13-.01.07-.11.21-.43.56-.71.91-.99.18-.13.3-.09.52.17-.28.13-.62.07-.87.38.02.01.09.06.12.05.23-.07.46-.16.74-.26.04.01.12.06.22.1,0,.1.01.18.02.24-.09.01-.16.01-.26.02l.16.33c-.12-.02-.22-.02-.35-.05-.41.48-.91.93-1.29,1.46-.38.54-.63,1.15-.99,1.79.38-.11.61-.32.93-.49-.1-.01-.15-.02-.21-.02.01-.02.01-.05.01-.06.57-.48,1.12-.97,1.71-1.43.34-.28.71-.52,1.02-.84.26-.24.54-.46.8-.69.09-.07.17-.16.26-.24h-.01c.1.01.2,0,.28-.01.13.15.11.28.05.41-.19.43-.38.85-.57,1.29-.06-.05-.09-.07-.15-.11ZM64,47.79s.05.02.07.05c.06-.12.12-.23.18-.34l-.06-.04-.19.33ZM65.31,48.07c-.23.02-.54.26-.76.55.3-.15.54-.33.76-.55ZM67.67,46.13c-.06.02-.11.04-.16.07l-.79.77c.12,0,.21-.07.32-.09.4-.09.56-.38.63-.76ZM67.43,47.76l.02-.12-.06.11s.02.01.04.01ZM67.73,46s-.05.02-.05.04v.09s.05-.02.06-.05c.01-.01-.01-.05-.01-.07Z" />
          <path class="cls-51"
            d="M74.56,46.75c-.22.83-.43,1.65-.63,2.47l-.15.57c-.02.11-.05.23-.01.33.06.24,0,.43-.19.62-.15.07-.33.11-.48-.06-.04-.05-.1-.06-.15-.09-.23-.11-.29-.22-.24-.46l.32-1.3c.09-.37.18-.72.29-1.08.05-.21.07-.44.24-.61.04-.02.06-.1.06-.15.05-.13.09-.29.11-.44.01-.13-.01-.26-.02-.39-.22-.04-.38.02-.54.1-1.01.46-1.88,1.12-2.61,1.96-.06.07-.15.17-.24.21-.18.07-.28-.01-.27-.21.04-.24.1-.49.16-.73.11-.51.38-.97.61-1.44l.33-.62s-.07.01-.13.01c.22-.41.43-.83.77-1.18.07.06.11.1.18.18-.11.1-.21.18-.3.28.13.22.09.46.04.71.18-.27.38-.49.56-.77.01.05.02.11.02.16s-.06.11-.05.12c.16.24-.02.39-.16.55-.09.12-.16.27-.2.41l.66-.33c-.05.13-.07.18-.11.29.18-.06.35-.12.54-.19-.06-.05-.1-.07-.15-.1.46-.65,1.22-.41,1.51.01.23.34.34.73.23,1.16ZM71.26,45.22s-.06.07-.1.12c-.01.02,0,.05,0,.09.09-.04.17-.09.1-.21Z" />
          <path class="cls-51"
            d="M84.56,38.78c-.22.72-.57,1.38-.94,2.02-.54.94-1.1,1.87-1.74,2.74-.04.05-.07.11-.1.17-.5,1.17-.95,2.36-1.33,3.58,0,.01,0,.04-.01.09.13.15.27.3.4.46-.13.5-.37.93-.67,1.3-.18.23-.37.26-.63.12-.02-.01-.06-.05-.09-.04-.11.02-.21-.01-.26-.1-.05-.1-.07-.21-.06-.32.04-.29.06-.6.15-.88.11-.38.26-.76.38-1.12.05-.13.09-.26.09-.41-.07.07-.15.15-.21.22-.71.8-1.43,1.57-2.27,2.23-.3.24-.63.45-1,.58-.37.15-.7.01-1.01-.13-.2-.1-.24-.28-.23-.51.05-.65.33-1.21.68-1.73.8-1.18,1.84-2.08,3.17-2.66.41-.17.85-.29,1.33-.27.33-.48.72-.9.94-1.44.27-.63.57-1.26.88-1.86.16-.32.34-.62.54-.91.07-.12.22-.17.29-.33.19-.38.43-.73.57-1.13.1-.28.22-.4.48-.6l.09.2c.44-.01.71.3.57.72ZM75.83,48.08l-.04-.12s-.04.01-.05.02l.04.11s.04-.01.05-.01ZM76.04,47.55c-.1.05-.12.15-.16.24l.06.04.1-.28ZM76.13,47.36s-.04.09-.05.13l.1-.11s-.04-.01-.05-.02ZM79.03,45.57c-.89.32-2.38,1.61-2.89,2.72,1.17-.74,2.05-1.72,2.89-2.72ZM76.5,46.98s.05-.07.07-.12c-.06.01-.13,0-.07.12ZM76.6,46.84s.17-.05.06-.21l-.06.21ZM79.22,45.68c-.5.49-.93.99-1.32,1.52l.06.06c.23-.24.45-.5.68-.74.52-.57.55-.6.57-.84Z" />
          <path class="cls-52"
            d="M3.82,56.87c-1.06-.29-2.02-.78-2.77-1.63-.8-.95-1-2.04-.69-3.23.05-.18.11-.37.22-.54-.04.23-.1.48-.11.72-.01.24-.11.49.01.73l.1-.68c.05-.23.09-.46.16-.68.27-.82.58-1.61,1.11-2.3.1-.12.18-.24.28-.35.57-.66,1.17-1.29,1.86-1.83,1.17-.91,2.4-1.76,3.73-2.44,1.46-.76,2.91-1.51,4.44-2.12.19-.07.33-.2.41-.39l1.26-2.52s.04-.05.1-.13c.02.22.04.38.06.54.2-.09.13-.32.17-.52.15.09.24.15.34.2.16.26.1.48-.01.69-.24.51-.49,1.01-.74,1.56.62-.22,1.21-.41,1.79-.63.49-.17.98-.33,1.45-.54.62-.28,1.23-.6,1.85-.9.33-.17.65-.37.9-.65.18-.19.19-.18.29-.51-.21-.13-.45-.16-.68-.18-.39-.06-.79-.11-1.19-.12-1.49-.05-2.97-.01-4.46.1-.77.06-1.54.1-2.3.17-.85.09-1.71.19-2.56.3-.54.06-1.09.16-1.63.22-.45.06-.9.09-1.37.12-.07.01-.16.02-.23.05-.88.26-1.76.51-2.63.78-.27.07-.55.15-.8.23l-.06.46c-.12-.06-.23-.11-.37-.17.05.12.09.22.13.33-.19.06-.29-.05-.37-.22.06-.13.12-.28.2-.46-.07.04-.13.04-.15.06-.06.11-.11.22-.16.33-.23-.05-.31-.21-.37-.39.09-.27.28-.41.51-.52l1.23-.57c.61-.29,1.24-.48,1.9-.62.12-.02.24-.05.37-.09.87-.3,1.77-.39,2.66-.52.46-.07.94-.11,1.4-.13.27-.01.55.04.82.05.11.01.22.01.33-.05-.1-.01-.21-.04-.32-.05.13-.13.3-.13.46-.16.89-.07,1.78-.15,2.67-.23,1.43-.11,2.84-.18,4.27-.16.78,0,1.56.01,2.33.18.23.06.46.13.67.23.23.11.37.28.39.56,0,.16.13.3.22.45-.15.88-.74,1.41-1.46,1.85-.18.12-.38.22-.55.39.1,0,.18.01.27,0,.33-.01.65-.05.96-.05.9.01,1.8.07,2.71.06,1.38-.02,2.72.16,4.05.5.55.15,1.09.34,1.58.65,1.07.67,1.73,2.11,1.05,3.51-.41.85-1.01,1.55-1.68,2.21-1.06,1.04-2.24,1.93-3.49,2.73-.6.39-1.24.71-1.87,1.07-.32.18-.61.4-.91.6-.09.06-.17.12-.27.17-3.01,1.63-6.14,2.99-9.43,3.92-.56.16-1.15.24-1.71.4-.67.18-1.34.29-2.02.37-1.45.18-2.91.22-4.34-.18ZM.95,52.06c-.04.35-.06.71-.1,1.05.15-.34.19-.68.1-1.05ZM10.36,55.76c.07-.12.11-.21.16-.28.31-.06.6-.11.89-.18.46-.11.95-.17,1.39-.37.26-.12.52-.23.79-.33.37-.12.74-.22,1.11-.33.27-.09.55-.13.8-.23.77-.3,1.52-.61,2.28-.93.67-.28,1.34-.57,2.01-.85.33-.13.66-.26.96-.43.32-.16.6-.37.89-.56.04-.02.07-.05.07-.06-.01-.29.24-.34.41-.45.95-.61,1.91-1.21,2.86-1.84.94-.62,1.83-1.34,2.61-2.17.62-.66,1.19-1.37,1.32-2.32.06-.46-.05-.88-.45-1.15-.32-.21-.66-.37-1.01-.51-.6-.27-1.26-.39-1.85-.69-.04-.02-.12.01-.2.02.05.05.07.07.12.11-.12,0-.2.01-.27,0-.72-.07-1.44-.13-2.16-.22-.33-.04-.66-.01-.97-.15-.15-.06-.35-.05-.52-.02-.9.13-1.82.13-2.72.2-.24.01-.5,0-.74.05-.49.09-.97.19-1.47.29l-1.52.26c.07.12.15.22.21.3q-.09.26-.32.34l-.32-.17c-.02-.09-.04-.17-.07-.28-.48-.05-.89.16-1.34.21.01.02.02.06.04.11q-.31.15-.48.44c-.19.39-.41.77-.61,1.16-.26.51-.49,1.02-.74,1.54-.32.61-.51,1.27-.73,1.86.02.11.04.18.06.24.05.13,0,.23-.1.29-.11.06-.22.05-.33-.04-.15-.11-.22-.26-.16-.45.06-.21.16-.41.21-.63.06-.29.2-.55.32-.82.15-.32.33-.62.38-.94.11-.6.37-1.11.61-1.63.07-.15.15-.29.22-.46-.23.1-.43.16-.62.24-.35.16-.71.33-1.06.5-1.55.77-3.1,1.54-4.53,2.5-1.69,1.15-3.17,2.51-4.13,4.35-.24.46-.43.94-.49,1.46-.02.2-.05.39-.07.54.05.17.07.32.11.45.06.18.09.37.17.52.11.19.22.4.44.52.23.12.45.26.67.39,0,.02-.01.05-.01.06h-.37c.97.73,1.43.77,2.02.71-.12-.06-.22-.11-.33-.16.02-.01.04-.04.05-.02.04,0,.06.01.1.01,1.38.3,2.75.38,4.16.17.23-.04.51-.11.71-.01.24.1.44.04.66.01,0,.05,0,.07.01.16.33-.12.63-.24.89-.34ZM18.4,41.72l-.16-.09.11-.13c-.34-.05-.66.05-.99.1-.23.04-.37.21-.57.35l1.61-.23ZM22.48,51.16c-.24.02-.48.16-.83.46.32-.18.57-.32.83-.46Z" />
          <path class="cls-52"
            d="M31.27,47c-.1.12-.16.28-.28.49.29-.16.52-.29.74-.46.79-.6,1.58-1.19,2.39-1.79l.6-.48c.07-.05.16-.07.24-.12l.18.41c.16-.04.28-.21.46-.09.22.3.11.61,0,.91-.07.2-.17.38-.27.56l-1.02,2.06c-.04.07-.09.15-.13.23-.11-.13-.02-.26.01-.37.06-.15.12-.29.2-.44.16-.22.29-.45.38-.71-.17.21-.39.4-.38.71-.16.07-.21.23-.28.38-.09.18-.17.37-.28.58l-.2-.22s-.09.05-.16.09c-.05-.05-.1-.1-.16-.15.06-.22.2-.4.13-.65-.01-.06.05-.13.09-.21l.57-1.12c.02-.06.05-.13.11-.27l-1.05.74s-.07,0-.11.01c-.12-.04-.15-.02-.24.13.05-.01.12-.02.18-.02.1.04.16-.01.21-.09.11-.05.22-.09.39-.15-.54.48-1.08.83-1.63,1.17-.29.18-.6.33-.9.49-.38.19-.76.13-1.12-.01-.18-.07-.26-.22-.24-.43.01-.43.15-.82.37-1.16.27-.39.54-.77.84-1.12.65-.74,1.37-1.41,2.18-1.97.29-.2.62-.33.96-.41.15-.04.27-.13.41-.21.15-.07.29-.16.45-.2.26-.07.43.1.59.28-.05-.01-.1-.04-.17-.06-.01.06-.04.12-.05.21.11.01.22.04.32.05.24.24.32.51.17.84-.27.12-.29.11-.45-.12-.05.02-.11.05-.17.09-.04-.04-.09-.06-.12-.1-.02-.04-.04-.07-.07-.15-.16.07-.32.12-.45.21-.46.29-.94.6-1.39.9-.26.16-.49.35-.73.52-.45.32-.76.77-1.11,1.18ZM30.82,48.1c-.07.02-.15.04-.22.05.19.07.26.05.22-.05ZM31.06,47.9c.07.02.12.05.17.06.02-.05.05-.1.11-.19l-.28.13ZM32.69,47.32s.02.02.02.05l.07-.09-.1.04Z" />
          <path class="cls-52"
            d="M37.2,48.33s-.11-.04-.16-.04c-.52-.05-.72-.32-.61-.83.01-.07.04-.15.04-.22-.02-.45.15-.83.4-1.19.05-.07.07-.15.12-.22.07-.06.17-.12.15-.24.01-.01.01-.02.04-.04.15-.06.26-.17.29-.34l.28-.26s.09-.02.12-.05c.23-.2.48-.38.71-.57.11-.09.2-.17.29-.26.02-.02.06-.04.06-.05-.02-.24.17-.26.31-.33.4-.23.83-.37,1.28-.46.12-.02.26-.01.39-.02.1,0,.18.02.24.1.1.12.24.16.39.18.45.07.74.56.62.99-.04.11-.06.23-.21.27-.1.02-.15,0-.28-.17-.04.02-.06.04-.12.08-.04-.06-.09-.11-.11-.17-.02-.04,0-.09-.01-.13-.01-.23-.1-.32-.33-.3-.32.01-.62.09-.91.21-.22.09-.44.17-.63.29-.62.38-1.24.77-1.73,1.33-.3.35-.55.74-.72,1.18-.05.12-.06.27-.1.43.13.02.24.06.34.05,1.07-.06,2.05-.4,2.9-1.07.22-.17.38-.39.59-.61.07.1.26.06.34.21.11-.01.12.09.15.16.01.09.02.17,0,.24-.07.24-.24.43-.41.61-.39.4-.87.67-1.38.89-.54.23-1.11.4-1.71.45-.22.01-.43.02-.62-.09ZM36.54,47.55c-.05.29-.01.35.29.51-.12-.21-.2-.35-.29-.51Z" />
          <path class="cls-52"
            d="M49.21,35.46c-.23.2-.32.48-.44.73-.29.67-.58,1.34-.89,2.01-.13.29-.3.59-.46.88-.04.05-.1.1-.16.16.02.32-.1.62-.24.93l-1.1,2.32c-.05.09-.09.2-.15.31.15,0,.27-.02.37.01.32.12.67.18.97.34.22.11.37.34.35.63-.04.4-.16.76-.43,1.06-.33.35-.72.62-1.17.8-.07.02-.13.05-.24.1.17.26.3.51.49.73.49.58.99,1.17,1.49,1.74.13.17.3.33.22.58-.07.22-.22.3-.43.22-.12-.06-.22-.15-.37-.1-.05.01-.13-.07-.2-.12-.15-.16-.28-.33-.44-.5-.18-.19-.29-.45-.54-.61-.02-.02-.06-.06-.07-.11-.05-.26-.22-.45-.38-.65-.11-.13-.16-.34-.39-.35-.04,0-.07-.07-.1-.12-.1-.17-.2-.33-.27-.5-.07-.17-.11-.35-.17-.57-.07.13-.17.24-.21.35-.13.55-.44,1.01-.68,1.51-.1.18-.21.35-.23.57-.04.26-.13.3-.44.26l.07-.28-.41.23c-.1-.23-.11-.44.02-.66.16-.27.26-.57.35-.88.07-.24.22-.48.32-.72.05-.11.07-.22.11-.33.11-.19.1-.29-.07-.5.07-.26.21-.49.43-.66.33-.28.54-.63.72-1.02.79-1.68,1.61-3.35,2.39-5.05.44-.93.83-1.89,1.24-2.83.1-.24.23-.46.35-.69.21.07.09.26.18.37.07-.1.16-.2.27-.32.05.24-.17.46.1.66.05-.01.12-.02.22-.04,0,.04.01.09,0,.1ZM43.07,47.61s-.04-.01-.06-.01v.15s.04-.09.06-.13ZM45.29,44.14c-.24.11-.35.29-.4.55.46.04,1.13-.34,1.51-.89-.41.06-.77.18-1.11.34Z" />
          <path class="cls-52"
            d="M45.41,56.59c-.61-.27-.79-.74-.82-1.33-.01-.3.04-.62.05-.87l.22-.3c.06-.09.11-.16.16-.24-.1-.33-.04-.66.06-.95.48-1.38,1.15-2.64,2-3.81.11-.16.23-.33.48-.35.11.13.31.21.29.45l.23.04c.18.27.18.57.12.89-.2.01-.37.04-.54.05-.15,0-.27.04-.33.17-.15.28-.38.49-.55.74-.16.22-.3.46-.4.72-.19.52-.37,1.07-.55,1.6-.23.65-.32,1.32-.35,1.99,0,.11.04.21.06.34.39-.04.7-.21.94-.43.44-.38.88-.76,1.21-1.23.99-1.45,1.96-2.9,2.72-4.49.29-.63.52-1.29.78-1.94.02-.04.02-.09.04-.17-.1.05-.16.07-.22.11-.15.06-.29.15-.45.21-.54.2-1,.09-1.39-.32q.13-.06,0-.18v.2c-.22-.17-.26-.39-.19-.67.09-.39.28-.73.5-1.04.39-.54.85-.99,1.43-1.34.21-.12.41-.19.66-.22.17-.01.34-.05.52-.06.24-.02.45.06.61.26.06.09.16.15.26.21.35.21.52.51.54.93,0,.13.05.32-.01.38-.12.12,0,.24-.1.34-.11.11-.18.24-.29.39-.04-.16.09-.24.17-.4-.26.16-.45-.05-.69,0-.09-.1-.04-.22-.01-.35.04-.24.1-.5-.1-.74-.41-.06-.77.11-1.12.29-.21.11-.4.28-.59.43-.19.16-.37.32-.55.49-.07.07-.12.17-.16.3.07-.02.15-.04.22-.07.27-.15.52-.29.78-.44.32-.17.34-.16.61.07l.06.04c.49.27.49.72.34,1.16-.22.69-.49,1.38-.76,2.06-.37.93-.83,1.82-1.34,2.67-.35.58-.74,1.16-1.11,1.73-.05.07-.09.13-.16.22-.02-.01-.05-.04-.09-.05-.35.44-.71.89-1.08,1.34.04.01.07.02.11.05-.23.57-.69.91-1.22,1.18-.33.17-.65.12-.99-.02ZM44.96,54.28v-.09s-.04.01-.04.01c0,.06,0,.11.01.17.01-.02.02-.06.02-.1ZM45.64,56.03s0-.02-.01-.02c-.05-.05-.1-.09-.16-.12-.01.01-.02.02-.04.05.05.05.1.1.15.13.05-.02.06-.02.06-.04ZM46.3,56.25c-.17-.09-.28-.01-.35.13.12-.04.23-.09.35-.13ZM48.2,53.55v-.05s-.04.01-.05.02c-.01.01,0,.04,0,.05.02-.01.04-.01.05-.02ZM50.5,47.22c-.15-.05-.48.01-.74.15.37.09.46.06.74-.15ZM51.26,47.01s-.02-.04-.02-.05l-.04.04s.02.01.05.02h.01Z" />
          <path class="cls-52"
            d="M57.97,44.49c0,.28-.22.59-.54.68-.05-.07-.11-.15-.16-.23-.02,0-.04-.01-.06-.01-.11-.01-.23.11-.34-.01-.01-.01-.1.02-.15.05-.17.07-.34.16-.51.26-.39.21-.72.49-1.04.78h0c-.11.15-.21.32-.34.46-.17.22-.38.4-.56.61-.12.15-.23.3-.3.46-.15.33-.34.62-.52.94l-.44-.24c-.05-.18-.11-.39-.16-.61.51-1.39,1.26-2.69,1.68-4.14l.38.18c-.01.07-.01.16-.02.26.11.02.22.04.37.06-.06.27-.12.51-.19.79.09-.06.16-.11.22-.16.44-.38.95-.65,1.52-.76.15-.04.29-.05.43-.04.07,0,.15.05.19.11.09.09.15.21.23.3.04.04.12.02.18.05.1.04.13.1.13.21ZM55.18,45.99s-.02-.06-.04-.12c-.33.19-.56.48-.8.74-.05.05-.05.15-.09.3.28-.3.49-.56.72-.8.05-.05.13-.07.21-.12ZM57.39,44.04c-.18-.15-.32-.09-.45-.06-.51.12-.99.3-1.45.67.66-.22,1.26-.4,1.9-.61Z" />
          <path class="cls-52"
            d="M58.45,47.43c-.01-.18,0-.38.04-.55.15-.68.4-1.32.85-1.85.22-.26.4-.52.63-.77.15-.15.34-.28.52-.38.15-.08.24-.18.32-.33.16-.35.5-.46.83-.5.21-.04.33.15.39.28.15.09.27.12.32.2.09.15.19.33.11.5-.1.19-.05.35-.01.55.12.46.15.94.1,1.41-.04.39-.21.72-.4,1.05-.26.44-.65.82-1.1,1.07-.3-.07-.6-.1-.89.02-.13.06-.28.12-.43.16-.74.22-1.23-.38-1.28-.86ZM59.8,45.62c.21-.16.4-.32.55-.55.1-.15.24-.26.38-.38.13-.12.28-.24.41-.38.11-.11.21-.24.33-.4l-.1-.13c-.18.12-.35.23-.52.35-.44.29-.73.74-1.15,1.08-.37.31-.51.78-.71,1.21.2-.34.5-.57.8-.8ZM60.3,47.7c.32-.06.56-.23.76-.49.22-.29.52-.51.67-.85.01-.02.09-.01.15-.01.22-.29.16-.66.13-1.06-.1.28-.18.52-.26.77.16-.62.12-1.22-.11-1.88l-.05.23s-.05-.07-.06-.11h-.06c-.44.28-.83.66-1.21,1.04-.29.28-.49.62-.69.96-.22.34-.34.73-.24,1.17.21.04.4.06.6.1,0,.01,0,.02-.01.04h-.54c.11.21.24.28.45.22.16-.04.3-.1.48-.12Z" />
          <path class="cls-52"
            d="M68.15,45.27c-.22.48-.44.93-.65,1.4.18-.19.37-.4.55-.61l.18-.18c.15.1.09.21.04.3-.16.3-.33.6-.49.9-.16.32-.34.62-.49.94-.12.27-.34.41-.51.66l-.2-.18s-.06.02-.11.06l-.18-.12c.04-.1.06-.18.11-.28.05-.11.13-.22.1-.37-.01-.07.04-.17.07-.26.15-.33.3-.66.46-.99.05-.1.09-.19.09-.33-.07.06-.15.12-.21.18-.5.44-.99.89-1.5,1.33-.35.29-.73.56-1.18.71-.23.09-.45.13-.66-.06-.04-.04-.12-.04-.18-.05-.22-.04-.32-.17-.32-.39-.01-.5.17-.94.41-1.34.12-.21.28-.38.41-.56.09-.12.2-.24.16-.41-.01-.04.02-.09.04-.12.26-.43.54-.83.9-1.18.09.01.13-.01.07-.11.21-.43.56-.71.91-.99.18-.13.3-.09.52.17-.28.13-.62.07-.87.38.02.01.09.06.12.05.23-.07.46-.16.74-.26.04.01.12.06.22.1,0,.1.01.18.02.24-.09.01-.16.01-.26.02l.16.33c-.12-.02-.22-.02-.35-.05-.41.48-.91.93-1.29,1.46-.38.54-.63,1.15-.99,1.79.38-.11.61-.32.93-.49-.1-.01-.15-.02-.21-.02.01-.02.01-.05.01-.06.57-.48,1.12-.97,1.71-1.43.34-.28.71-.52,1.02-.84.26-.24.54-.46.8-.69.09-.07.17-.16.26-.24h-.01c.1.01.2,0,.28-.01.13.15.11.28.05.41-.19.43-.38.85-.57,1.29-.06-.05-.09-.07-.15-.11ZM64,46.9s.05.02.07.05c.06-.12.12-.23.18-.34l-.06-.04-.19.33ZM65.31,47.18c-.23.02-.54.26-.76.55.3-.15.54-.33.76-.55ZM67.67,45.25c-.06.02-.11.04-.16.07l-.79.77c.12,0,.21-.07.32-.09.4-.09.56-.38.63-.76ZM67.43,46.88l.02-.12-.06.11s.02.01.04.01ZM67.73,45.11s-.05.02-.05.04v.09s.05-.02.06-.05c.01-.01-.01-.05-.01-.07Z" />
          <path class="cls-52"
            d="M74.56,45.87c-.22.83-.43,1.65-.63,2.47l-.15.57c-.02.11-.05.23-.01.33.06.24,0,.43-.19.62-.15.07-.33.11-.48-.06-.04-.05-.1-.06-.15-.09-.23-.11-.29-.22-.24-.46l.32-1.3c.09-.37.18-.72.29-1.08.05-.21.07-.44.24-.61.04-.02.06-.1.06-.15.05-.13.09-.29.11-.44.01-.13-.01-.26-.02-.39-.22-.04-.38.02-.54.1-1.01.46-1.88,1.12-2.61,1.96-.06.07-.15.17-.24.21-.18.07-.28-.01-.27-.21.04-.24.1-.49.16-.73.11-.51.38-.97.61-1.44l.33-.62s-.07.01-.13.01c.22-.41.43-.83.77-1.18.07.06.11.1.18.18-.11.1-.21.18-.3.28.13.22.09.46.04.71.18-.27.38-.49.56-.77.01.05.02.11.02.16s-.06.11-.05.12c.16.24-.02.39-.16.55-.09.12-.16.27-.2.41l.66-.33c-.05.13-.07.18-.11.29.18-.06.35-.12.54-.19-.06-.05-.1-.07-.15-.1.46-.65,1.22-.41,1.51.01.23.34.34.73.23,1.16ZM71.26,44.33s-.06.07-.1.12c-.01.02,0,.05,0,.09.09-.04.17-.09.1-.21Z" />
          <path class="cls-52"
            d="M84.56,37.9c-.22.72-.57,1.38-.94,2.02-.54.94-1.1,1.87-1.74,2.74-.04.05-.07.11-.1.17-.5,1.17-.95,2.36-1.33,3.58,0,.01,0,.04-.01.09.13.15.27.3.4.46-.13.5-.37.93-.67,1.3-.18.23-.37.26-.63.12-.02-.01-.06-.05-.09-.04-.11.02-.21-.01-.26-.1-.05-.1-.07-.21-.06-.32.04-.29.06-.6.15-.88.11-.38.26-.76.38-1.12.05-.13.09-.26.09-.41-.07.07-.15.15-.21.22-.71.8-1.43,1.57-2.27,2.23-.3.24-.63.45-1,.58-.37.15-.7.01-1.01-.13-.2-.1-.24-.28-.23-.51.05-.65.33-1.21.68-1.73.8-1.18,1.84-2.08,3.17-2.66.41-.17.85-.29,1.33-.27.33-.48.72-.9.94-1.44.27-.63.57-1.26.88-1.86.16-.32.34-.62.54-.91.07-.12.22-.17.29-.33.19-.38.43-.73.57-1.13.1-.28.22-.4.48-.6l.09.2c.44-.01.71.3.57.72ZM75.83,47.2l-.04-.12s-.04.01-.05.02l.04.11s.04-.01.05-.01ZM76.04,46.66c-.1.05-.12.15-.16.24l.06.04.1-.28ZM76.13,46.48s-.04.08-.05.13l.1-.11s-.04-.01-.05-.02ZM79.03,44.69c-.89.32-2.38,1.61-2.89,2.72,1.17-.74,2.05-1.72,2.89-2.72ZM76.5,46.1s.05-.07.07-.12c-.06.01-.13,0-.07.12ZM76.6,45.95s.17-.05.06-.21l-.06.21ZM79.22,44.8c-.5.49-.93.99-1.32,1.52l.06.06c.23-.24.45-.5.68-.74.52-.57.55-.6.57-.84Z" />
          <path class="cls-47"
            d="M63.87,21.95c-2.76,0-4.7,1.57-5.23,4.11-.55-2.43-2.4-3.88-5.1-3.88h-3.75c-.34,0-.65.15-.86.38-.21-.23-.52-.38-.86-.38h-7.77c-.31,0-.58.12-.79.31-.21-.19-.49-.31-.79-.31h-6.62c-.64,0-1.17.52-1.17,1.17v11.98l-1.7-3.42c1.06-.97,1.64-2.45,1.64-4.23,0-3.39-2.02-5.5-5.27-5.5h-3.75c-.64,0-1.17.52-1.17,1.17v13.23c0,.64.52,1.17,1.17,1.17h2.35c.64,0,1.17-.52,1.17-1.17v-2.19l1.28,2.69c.19.41.61.67,1.05.67h2.55c.37,0,.71-.17.92-.46.21.28.55.46.92.46h6.82c.64,0,1.17-.52,1.17-1.17v-2.21c0-.64-.52-1.17-1.17-1.17h-3.3v-1.11h2.71c.64,0,1.17-.52,1.17-1.17v-2.12c0-.64-.52-1.17-1.17-1.17h-2.71v-.91h3.1c.31,0,.58-.12.79-.31.21.19.49.31.79.31h1.51v9.85c0,.64.52,1.17,1.17,1.17h2.43c.64,0,1.17-.52,1.17-1.17v-9.85h1.5c.2,0,.39-.05.55-.14v9.99c0,.64.52,1.17,1.17,1.17h2.35c.64,0,1.17-.52,1.17-1.17v-2.19l1.28,2.69c.19.41.61.67,1.05.67h2.55c.41,0,.78-.21.99-.55.22-.35.23-.77.05-1.13l-2.07-4.15c.6-.55,1.04-1.25,1.31-2.08v2.54c0,3.41,2.11,5.62,5.38,5.62s5.38-2.2,5.38-5.62v-4.8c0-3.41-2.11-5.62-5.38-5.62ZM63.27,27.57c0-1.01.33-1.01.6-1.01s.6,0,.6,1.01v4.8c0,1.01-.33,1.01-.6,1.01s-.6,0-.6-1.01v-4.8ZM53.31,26.73h.19c.23,0,.54,0,.54.95s-.31.93-.54.93h-.19v-1.89ZM25.36,26.73h.19c.23,0,.54,0,.54.95s-.31.93-.54.93h-.19v-1.89Z" />
          <path class="cls-17"
            d="M27.19,36.79c-.26,0-.51-.15-.62-.39l-2-4.19h-.19v3.89c0,.38-.31.69-.69.69h-2.35c-.38,0-.69-.31-.69-.69v-13.23c0-.38.31-.69.69-.69h3.75c3,0,4.79,1.88,4.79,5.02,0,1.79-.62,3.24-1.75,4.1l2.24,4.49c.11.21.1.46-.03.67-.13.2-.35.33-.59.33h-2.55ZM25.05,28.62c.28,0,1.02,0,1.02-1.41s-.74-1.43-1.02-1.43h-.67v2.84h.67Z" />
          <path class="cls-17"
            d="M27.19,36.31c-.08,0-.16-.05-.19-.12l-2.13-4.46h-.98v4.37c0,.12-.09.21-.21.21h-2.35c-.12,0-.21-.09-.21-.21v-13.23c0-.12.09-.21.21-.21h3.75c2.74,0,4.31,1.66,4.31,4.54,0,1.63-.56,2.95-1.57,3.72l-.32.24,2.41,4.84c.03.07.03.14,0,.2-.04.06-.1.1-.18.1h-2.55ZM23.9,29.1h1.15c1.24,0,1.5-1.03,1.5-1.89s-.26-1.91-1.5-1.91h-1.15v3.8Z" />
          <path class="cls-17"
            d="M31.59,36.79c-.38,0-.69-.31-.69-.69v-13.23c0-.38.31-.69.69-.69h6.62c.38,0,.69.31.69.69v2.21c0,.38-.31.69-.69.69h-3.58v1.87h3.19c.38,0,.69.31.69.69v2.12c0,.38-.31.69-.69.69h-3.19v2.07h3.78c.38,0,.69.31.69.69v2.21c0,.38-.31.69-.69.69h-6.82Z" />
          <path class="cls-17"
            d="M31.59,36.31c-.12,0-.21-.09-.21-.21v-13.23c0-.12.09-.21.21-.21h6.62c.12,0,.21.09.21.21v2.21c0,.12-.09.21-.21.21h-4.06v2.83h3.67c.12,0,.21.09.21.21v2.12c0,.12-.09.21-.21.21h-3.67v3.02h4.26c.12,0,.21.09.21.21v2.21c0,.12-.09.21-.21.21h-6.82Z" />
          <path class="cls-17"
            d="M42.46,36.79c-.38,0-.69-.31-.69-.69v-10.33h-1.98c-.38,0-.69-.31-.69-.69v-2.21c0-.38.31-.69.69-.69h7.77c.38,0,.69.31.69.69v2.21c0,.38-.31.69-.69.69h-1.98v10.33c0,.38-.31.69-.69.69h-2.43Z" />
          <path class="cls-17"
            d="M42.46,36.31c-.12,0-.21-.09-.21-.21v-10.81h-2.46c-.12,0-.21-.09-.21-.21v-2.21c0-.12.09-.21.21-.21h7.77c.12,0,.21.09.21.21v2.21c0,.12-.09.21-.21.21h-2.46v10.81c0,.12-.09.21-.21.21h-2.43Z" />
          <path class="cls-17"
            d="M55.13,36.79c-.26,0-.51-.15-.62-.39l-2-4.19h-.19v3.89c0,.38-.31.69-.69.69h-2.35c-.38,0-.69-.31-.69-.69v-13.23c0-.38.31-.69.69-.69h3.75c3,0,4.79,1.88,4.79,5.02,0,1.79-.62,3.24-1.76,4.1l2.24,4.49c.11.21.1.46-.03.67-.13.2-.35.33-.59.33h-2.55ZM52.99,28.62c.28,0,1.02,0,1.02-1.41s-.74-1.43-1.02-1.43h-.67v2.84h.67Z" />
          <path class="cls-17"
            d="M55.13,36.31c-.08,0-.16-.05-.19-.12l-2.13-4.46h-.98v4.37c0,.12-.09.21-.21.21h-2.35c-.12,0-.21-.09-.21-.21v-13.23c0-.12.09-.21.21-.21h3.75c2.74,0,4.31,1.66,4.31,4.54,0,1.63-.56,2.95-1.57,3.72l-.32.24,2.41,4.84c.03.07.03.14,0,.2-.04.06-.1.1-.18.1h-2.55ZM51.84,29.1h1.15c1.24,0,1.5-1.03,1.5-1.89s-.26-1.91-1.5-1.91h-1.15v3.8Z" />
          <path class="cls-17"
            d="M63.36,37.03c-3.03,0-4.9-1.97-4.9-5.14v-4.8c0-3.17,1.88-5.14,4.9-5.14s4.9,1.97,4.9,5.14v4.8c0,3.17-1.88,5.14-4.9,5.14ZM63.36,25.6c-.32,0-1.08,0-1.08,1.49v4.8c0,1.49.76,1.49,1.08,1.49s1.08,0,1.08-1.49v-4.8c0-1.49-.76-1.49-1.08-1.49Z" />
          <path class="cls-17"
            d="M63.36,36.55c-2.77,0-4.43-1.74-4.43-4.66v-4.8c0-2.92,1.65-4.66,4.43-4.66s4.43,1.74,4.43,4.66v4.8c0,2.92-1.65,4.66-4.43,4.66ZM63.36,25.12c-1.29,0-1.56,1.07-1.56,1.97v4.8c0,.9.27,1.97,1.56,1.97s1.56-1.07,1.56-1.97v-4.8c0-.9-.27-1.97-1.56-1.97Z" />
          <path class="cls-27"
            d="M24.87,31.73h-.98v4.37c0,.12-.09.21-.21.21h-2.35c-.12,0-.21-.09-.21-.21v-13.23c0-.12.09-.21.21-.21h3.75c2.71,0,4.31,1.68,4.31,4.54,0,1.77-.63,3.1-1.74,3.84-.09.06-.12.17-.07.26l2.34,4.7c.07.14-.03.3-.19.3h-2.55c-.08,0-.15-.05-.19-.12l-2.13-4.46ZM23.9,29.1h1.15c.98,0,1.5-.66,1.5-1.89s-.53-1.91-1.5-1.91h-1.15v3.8Z" />
          <path class="cls-48"
            d="M38.61,33.89v2.21c0,.12-.09.21-.21.21h-6.82c-.12,0-.21-.09-.21-.21v-13.23c0-.12.09-.21.21-.21h6.62c.12,0,.21.09.21.21v2.21c0,.12-.09.21-.21.21h-3.85c-.12,0-.21.09-.21.21v2.41c0,.12.09.21.21.21h3.46c.12,0,.21.09.21.21v2.12c0,.12-.09.21-.21.21h-3.46c-.12,0-.21.09-.21.21v2.6c0,.12.09.21.21.21h4.05c.12,0,.21.09.21.21Z" />
          <path class="cls-38"
            d="M47.56,25.3h-2.25c-.12,0-.21.09-.21.21v10.6c0,.12-.09.21-.21.21h-2.43c-.12,0-.21-.09-.21-.21v-10.6c0-.12-.09-.21-.21-.21h-2.25c-.12,0-.21-.09-.21-.21v-2.21c0-.12.09-.21.21-.21h7.77c.12,0,.21.09.21.21v2.21c0,.12-.09.21-.21.21Z" />
          <path class="cls-19"
            d="M52.82,31.73h-.98v4.37c0,.12-.09.21-.21.21h-2.35c-.12,0-.21-.09-.21-.21v-13.23c0-.12.09-.21.21-.21h3.75c2.71,0,4.31,1.68,4.31,4.54,0,1.77-.63,3.1-1.74,3.84-.09.06-.12.17-.07.26l2.34,4.7c.07.14-.03.3-.19.3h-2.55c-.08,0-.15-.05-.19-.12l-2.13-4.46ZM51.84,29.1h1.15c.98,0,1.5-.66,1.5-1.89s-.53-1.91-1.5-1.91h-1.15v3.8Z" />
          <path class="cls-4"
            d="M58.93,31.89v-4.8c0-2.92,1.66-4.66,4.43-4.66s4.43,1.74,4.43,4.66v4.8c0,2.92-1.66,4.66-4.43,4.66s-4.43-1.74-4.43-4.66ZM64.92,31.89v-4.8c0-1.29-.53-1.97-1.56-1.97s-1.56.68-1.56,1.97v4.8c0,1.29.53,1.97,1.56,1.97s1.56-.68,1.56-1.97Z" />
          <path class="cls-35"
            d="M27.36,35.84l-2.18-4.58h-1.76v4.58h-1.81v-12.69h3.48c2.44,0,3.83,1.48,3.83,4.06,0,1.59-.53,2.78-1.53,3.45-.29.19-.39.57-.24.87l2.15,4.31h-1.95ZM23.42,29.58h1.63c1.24,0,1.98-.89,1.98-2.37,0-2.16-1.38-2.39-1.98-2.39h-1.63v4.76Z" />
          <path class="cls-16"
            d="M31.86,35.84v-12.69h6.08v1.68h-3.58c-.38,0-.69.31-.69.69v2.41c0,.38.31.69.69.69h3.19v1.58h-3.19c-.38,0-.69.31-.69.69v2.6c0,.38.31.69.69.69h3.78v1.68h-6.28Z" />
          <path class="cls-8"
            d="M42.73,35.84v-10.33c0-.38-.31-.69-.69-.69h-1.98v-1.68h7.23v1.68h-1.98c-.38,0-.69.31-.69.69v10.33h-1.89Z" />
          <path class="cls-40"
            d="M55.3,35.84l-2.18-4.58h-1.76v4.58h-1.81v-12.69h3.48c2.44,0,3.83,1.48,3.83,4.06,0,1.59-.53,2.78-1.53,3.45-.29.19-.39.57-.23.87l2.15,4.31h-1.95ZM51.36,29.58h1.63c1.24,0,1.98-.89,1.98-2.37,0-2.16-1.38-2.39-1.98-2.39h-1.63v4.76Z" />
          <path class="cls-20"
            d="M63.36,36.07c-2.51,0-3.95-1.52-3.95-4.18v-4.8c0-2.66,1.44-4.18,3.95-4.18s3.95,1.52,3.95,4.18v4.8c0,2.66-1.44,4.18-3.95,4.18ZM63.36,24.64c-.61,0-2.04.24-2.04,2.45v4.8c0,2.21,1.43,2.45,2.04,2.45s2.04-.24,2.04-2.45v-4.8c0-2.21-1.43-2.45-2.04-2.45Z" />
        </g>
      </g>
    </g>
  </g>
</svg>