ď»ż<?xml version="1.0" encoding="UTF-8"?>
<svg id="Capa_2" xmlns="http://www.w3.org/2000/svg" xmlns:xlink="http://www.w3.org/1999/xlink" viewBox="0 0 76.3 67.63">
  <defs>
    <style>
      .cls-1 {
        fill: url(#linear-gradient-2);
      }

      .cls-2 {
        fill: #61f9f4;
      }

      .cls-3 {
        filter: none;
      }

      .cls-4 {
        fill: #ffe366;
      }

      .cls-5 {
        fill: #f9f;
      }

      .cls-6 {
        fill: url(#linear-gradient);
      }
    </style>
    <linearGradient id="linear-gradient" x1="-711.82" y1="67.63" x2="-711.82" y2="5.79"
      gradientTransform="translate(-673.67) rotate(-180) scale(1 -1)" gradientUnits="userSpaceOnUse">
      <stop offset="0" stop-color="#2cb5ff" />
      <stop offset=".52" stop-color="#630596" />
      <stop offset=".57" stop-color="#710895" />
      <stop offset=".67" stop-color="#971395" />
      <stop offset=".8" stop-color="#d52394" />
      <stop offset=".87" stop-color="#f52c94" />
    </linearGradient>
    <linearGradient id="linear-gradient-2" x1="-218.06" y1="-373.35" x2="-141.76" y2="-373.35"
      gradientTransform="translate(-141.76 -342.87) rotate(-180)" gradientUnits="userSpaceOnUse">
      <stop offset="0" stop-color="#0048e0" />
      <stop offset=".06" stop-color="#1977e5" />
      <stop offset=".12" stop-color="#33a5ea" />
      <stop offset=".18" stop-color="#47c9ee" />
      <stop offset=".23" stop-color="#55e3f1" />
      <stop offset=".28" stop-color="#5df3f3" />
      <stop offset=".32" stop-color="#61f9f4" />
      <stop offset=".46" stop-color="#8cd4f7" />
      <stop offset=".63" stop-color="#bdacfa" />
      <stop offset=".78" stop-color="#e18efc" />
      <stop offset=".9" stop-color="#f77cfe" />
      <stop offset=".98" stop-color="#ff76ff" />
    </linearGradient>
  </defs>
  <g id="Layer_1">
    <g class="cls-3">
      <path class="cls-6"
        d="M62.16,56.19c-.41.5-.83.99-1.26,1.46H15.4c-.44-.47-.86-.96-1.26-1.46h48.02ZM11.72,52.76c.33.54.68,1.08,1.04,1.6h50.78c.36-.52.71-1.06,1.04-1.6H11.72ZM66.65,24.71c-4.69-11.11-15.68-18.92-28.5-18.92S14.33,13.59,9.65,24.71h57ZM9.91,49.32c.26.59.55,1.17.85,1.74h54.78c.3-.57.58-1.15.85-1.74H9.91ZM17.4,59.63c.5.46,1.02.9,1.55,1.32h38.4c.53-.42,1.05-.86,1.55-1.32H17.4ZM69.05,35.58H7.25c-.01.37-.02.75-.02,1.13s0,.79.02,1.18h61.79c.01-.39.02-.78.02-1.18s0-.75-.02-1.13ZM52.24,64.24c.71-.37,1.41-.76,2.09-1.18H21.97c.68.42,1.38.81,2.09,1.18h28.17ZM9.42,25.27c-.35.89-.67,1.8-.94,2.73h59.35c-.27-.93-.59-1.84-.94-2.73H9.42ZM29.84,66.5c2.64.74,5.43,1.13,8.31,1.13s5.67-.39,8.31-1.13h-16.62ZM8.62,45.89c.2.64.42,1.26.65,1.88h57.76c.24-.62.45-1.25.65-1.88H8.62ZM8.28,28.71c-.23.85-.42,1.71-.57,2.59h60.89c-.15-.88-.35-1.74-.57-2.59H8.28ZM7.76,42.45c.13.68.28,1.36.45,2.02h59.87c.17-.67.32-1.34.45-2.02H7.76ZM7.57,32.14c-.12.81-.21,1.62-.26,2.45h61.69c-.06-.83-.14-1.64-.26-2.45H7.57ZM7.32,39.02c.05.73.13,1.45.24,2.16h61.19c.1-.71.18-1.44.24-2.16H7.32Z" />
      <path class="cls-1" d="M76.3,60.96H0L38.15,0l38.15,60.96ZM2.42,59.62h71.46L38.15,2.53,2.42,59.62Z" />
      <path class="cls-4"
        d="M12.12,33.08l2.99-.19c.06.49.2.86.4,1.11.32.41.79.62,1.39.62.45,0,.79-.11,1.04-.32.24-.21.36-.45.36-.73s-.12-.5-.35-.71c-.23-.21-.77-.4-1.61-.59-1.38-.31-2.36-.72-2.95-1.23-.59-.51-.89-1.17-.89-1.96,0-.52.15-1.02.45-1.48.3-.46.76-.83,1.37-1.1.61-.27,1.44-.4,2.5-.4,1.3,0,2.29.24,2.97.72.68.48,1.09,1.25,1.22,2.31l-2.96.17c-.08-.46-.24-.79-.5-1-.25-.21-.6-.31-1.04-.31-.37,0-.64.08-.83.23-.18.15-.28.34-.28.56,0,.16.08.31.23.44.15.13.5.26,1.05.37,1.37.3,2.36.59,2.95.9.59.3,1.03.68,1.3,1.13.27.45.4.95.4,1.5,0,.65-.18,1.25-.54,1.8s-.86.97-1.51,1.25c-.65.28-1.46.43-2.45.43-1.73,0-2.93-.33-3.59-1-.66-.67-1.04-1.51-1.13-2.54Z" />
      <path class="cls-4" d="M21.07,26.27h3.49l2.05,3.43,2.05-3.43h3.47l-3.95,5.91v4.26h-3.15v-4.26l-3.96-5.91Z" />
      <path class="cls-4" d="M32.8,26.27h2.93l3.83,5.62v-5.62h2.96v10.16h-2.96l-3.81-5.58v5.58h-2.95v-10.16Z" />
      <path class="cls-4" d="M43.54,26.27h9.55v2.51h-3.2v7.66h-3.14v-7.66h-3.2v-2.51Z" />
      <path class="cls-4" d="M54.17,26.27h3.14v3.56h3.43v-3.56h3.15v10.16h-3.15v-4.11h-3.43v4.11h-3.14v-10.16Z" />
      <path class="cls-5"
        d="M32.86,38.72c-.12-.06-.23-.13-.34-.21-.07.05-.11.12-.09.21.01.1.01.18,0,.22,0,.02-.02.04-.06.05-.05.02-.08.04-.09.06-.03.08-.03.17,0,.26.02.09.02.18,0,.26-.01.04-.04.07-.07.1-.04.02-.06.06-.07.1-.01.04,0,.09.06.14.05.05.07.09.06.11-.01.04-.05.08-.1.13-.05.05-.09.1-.12.16-.07.2-.11.39-.14.57-.02.18-.1.34-.24.5v.9c-.1.02-.16,0-.17-.03,0-.04-.05-.01-.13.08.06.13.06.22.01.29-.05.07-.06.11-.04.15,0,.02.02.03.06.02.04,0,.05.01.04.05-.03.08-.08.14-.15.18-.07.04-.12.11-.15.21-.01.04,0,.11.04.21.04.1.05.17.02.22-.02,0-.05,0-.1,0-.05,0-.07,0-.07.02,0,.08.01.13.07.17s.08.09.07.16h-.09s-.09.02-.09.02c-.07.05-.08.15-.03.29.05.15.06.24.03.29-.1.01-.14.06-.14.14,0,.08-.06.1-.18.08.04.15.08.26.12.35.04.08.03.19-.03.34-.04.02-.07.03-.11.02-.04-.01-.07-.03-.09-.05-.02-.02-.04-.01-.04,0,0,.02,0,.07,0,.14-.28.62-.5,1.28-.65,1.98-.15.7-.38,1.36-.68,1.98-.03.04-.06.08-.07.1-.02.02-.04.05-.07.1-.03.04-.04.09-.03.13.02.05,0,.09-.03.13-.14.25-.25.47-.34.66-.03.08-.06.16-.1.25-.04.08-.07.15-.1.22-.04.1-.09.18-.14.24-.05.06-.1.14-.14.24-.03.08-.05.16-.08.24-.03.08-.06.14-.09.19-.03.04-.06.08-.09.1-.03.02-.05.06-.06.1-.08.13-.15.28-.21.45-.06.17-.19.25-.39.24,0-.21,0-.34-.02-.37-.02-.04-.08-.13-.16-.3.09-.01.15-.07.15-.17.01-.2,0-.38-.03-.55-.03-.17-.01-.34.06-.5-.1-.02-.17,0-.2.1-.04.09-.08.07-.14-.05.03-.06.06-.12.09-.19.03-.06.1-.1.22-.12-.07-.18-.03-.33.11-.45-.07-.51-.12-.97-.13-1.38-.02-.4-.03-.79-.05-1.17-.01-.38-.04-.75-.09-1.14-.04-.38-.14-.81-.28-1.3-.28-.06-.6-.14-.97-.26-.36-.11-.67-.23-.92-.35.07.09.1.15.08.19-.01.04-.05.07-.1.1-.05.03-.11.04-.17.05-.06,0-.09.01-.11.02-.04.12-.04.26.01.4.05.15,0,.25-.14.31,0,.15.04.25.13.29.08.04.12.13.1.29-.37.67-.72,1.36-1.06,2.07-.34.71-.58,1.48-.74,2.31-.13.08-.21.19-.24.34-.04.15-.06.3-.08.46-.02.16-.05.31-.1.45-.05.14-.14.25-.29.33-.06-.17-.06-.32,0-.45.07-.14.11-.28.13-.44.02-.16.02-.33,0-.51-.02-.18,0-.36.03-.54,0-.02.02-.06.06-.11.04-.05.07-.1.08-.14.03-.22.04-.43.04-.64,0-.21,0-.41.02-.58.04-.28.09-.53.14-.76.05-.23.08-.47.09-.72.02-.16-.01-.24-.08-.25-.07,0-.06-.07.02-.18.03-.04.06-.15.07-.32.02-.17.02-.24.03-.22,0-.04-.04-.08-.1-.12-.06-.04-.1-.08-.1-.12,0-.02.02-.04.08-.05.06-.02.08-.04.08-.05.01-.04,0-.08-.02-.13-.03-.04-.03-.09-.02-.13.03-.06.08-.14.14-.22.07-.09.11-.17.14-.25.01-.04.02-.1.02-.18,0-.08,0-.15.01-.23.04-.24.06-.38.06-.41,0-.04-.06-.13-.15-.27.06,0,.1-.02.14-.05.04-.02.07-.05.11-.07.02-.14,0-.22-.06-.24-.06-.02-.09-.08-.08-.18.09-.05.14-.18.17-.37.02-.2.04-.37.06-.53,0-.12,0-.28-.01-.49,0-.21-.02-.33-.02-.35-.03-.09-.11-.2-.22-.32-.11-.12-.18-.2-.21-.23-.38.03-.74.03-1.08,0-.34-.04-.7-.05-1.08-.04-.23.71-.58,1.44-1.04,2.19-.47.75-.9,1.49-1.3,2.2-.31.55-.6.97-.88,1.27-.28.3-.51.58-.68.84-.08.13-.18.26-.29.39-.12.13-.18.28-.2.43.64-.11,1.16-.38,1.56-.8.4-.42.73-.82,1.01-1.19.07-.09.11-.18.14-.27.03-.09.07-.19.13-.3.05-.08.1-.16.17-.24.07-.08.13-.16.2-.25.11-.17.25-.39.4-.67.15-.27.27-.49.34-.66-.08.26-.11.57-.11.92,0,.35.01.66.01.93,0,.17,0,.35-.04.54-.03.19-.06.36-.07.52-.01.2-.02.38-.01.55,0,.17,0,.36,0,.55-.02.43-.04.9-.08,1.42-.03.52-.08.95-.13,1.28-.03.1-.03.19-.02.26.01.08.01.16,0,.26-.02.16-.01.32,0,.48.02.16.03.32,0,.48-.02.27-.01.56.02.85.03.3.05.58.05.85,0,.12-.02.23-.04.35-.02.12-.04.24-.04.35,0,.14.01.26.04.37.03.11.05.24.07.37.06.15.09.26.11.35.01.09.05.19.1.32,0,.29.04.54.12.74.08.2.16.4.24.6-.04,0-.07,0-.09-.03-.02-.03-.05-.04-.09-.03.08.16.19.28.34.35.14.07.27.17.36.31.31,0,.55.02.72.09.17.06.41.02.72-.12.06-.14.14-.26.24-.35.1-.09.13-.24.08-.45.15,0,.22-.05.2-.13-.02-.08-.02-.17,0-.25,0-.04.02-.07.06-.1.04-.03.07-.06.09-.1.03-.08.05-.16.06-.23,0-.07.03-.14.06-.23.02-.12.06-.24.12-.37.06-.12.11-.22.14-.28.01-.04,0-.09-.04-.15-.04-.06-.04-.12-.01-.19.01-.04.05-.08.1-.13.05-.05.08-.1.09-.16.02-.1.04-.21.04-.34,0-.13.01-.24.04-.34.07-.22.13-.4.2-.54.07-.14.04-.28-.08-.44.17-.02.25-.11.24-.27-.01-.15,0-.28.02-.38.02-.02.04-.03.08-.04.04,0,.06-.03.08-.07.03-.1.04-.22.04-.37,0-.14.04-.25.13-.32.02.02.06-.06.13-.24.06-.17.13-.37.21-.6.08-.22.14-.44.2-.64.06-.2.11-.31.14-.34,0,.08,0,.23,0,.45.01.22.02.45.04.69.01.24.03.47.04.69.01.22.01.37,0,.45.11.08.15.17.12.26s-.01.17.03.24c.05.09.06.13.03.11-.03-.02.02,0,.16.03.08.03.14.09.17.19.03.1.07.17.12.2.11.06.24.09.4.07.16-.01.25.08.26.27-.09.05-.19.04-.29-.03-.11-.07-.18-.04-.22.1.1.04.23.05.38,0,.15-.04.26-.02.33.07l-.03.21.09.22c.17-.04.31-.05.43-.03.12.02.24.04.36.07.12.02.24.04.37.06.13.02.27.02.42,0,.07-.05.12-.09.14-.14.02-.04.07-.09.14-.14.05-.05.12-.09.22-.12.09-.03.15-.07.19-.11.02-.02.02-.05,0-.09-.01-.04-.02-.06-.03-.08.05-.07.1-.1.16-.11.1-.13.16-.22.19-.27.03-.05.08-.15.16-.3.03-.04.07-.09.11-.15.04-.05.08-.1.11-.15.03-.08.04-.19.04-.31,0-.13.02-.23.04-.31,0-.02.02-.03.07-.04s.08-.03.09-.07c.01-.04,0-.07-.05-.08-.05-.01-.07-.04-.05-.08.04,0,.06-.02.08-.04.02-.02.03-.03.04-.03,0,0,.02-.01.04-.03.01-.04.01-.11,0-.2-.01-.09,0-.16.03-.21.01-.06.04-.11.09-.16.05-.05.09-.09.13-.13.02-.1.03-.18,0-.25-.02-.07-.01-.13.02-.19,0-.02.02-.02.07,0,.05.01.07,0,.07-.01.07-.07.08-.14.04-.22-.04-.08-.05-.15-.02-.22.04-.1.1-.17.16-.21.06-.04.11-.1.14-.18.03-.08.04-.17.05-.27,0-.1.02-.19.05-.27.03-.08.07-.15.13-.21.06-.06.08-.13.07-.23.13-.06.14-.1.03-.12-.11-.02-.16-.06-.15-.12.12.02.19.01.23-.03.03-.04.05-.09.05-.14,0-.05.02-.1.04-.15.02-.05.07-.08.15-.09.05-.16.05-.29-.03-.39-.07-.1-.07-.2.02-.31.06,0,.09.01.11.06.02.05.04.08.08.09-.02-.25-.03-.4-.03-.45,0-.05.03-.13.11-.26.03-.04.04-.09.02-.15-.02-.06.02-.07.12-.05-.06-.17-.1-.26-.1-.29,0-.03,0-.12.02-.28,0-.08.03-.12.05-.14.03-.01.06-.02.09-.01.03,0,.05,0,.07-.01.02-.01.02-.06.01-.13-.02-.13,0-.28.04-.43.05-.15.1-.31.16-.49.06-.17.12-.35.16-.53.04-.18.05-.38.02-.61.12-.13.2-.28.26-.44.05-.16.04-.33-.04-.52.09-.01.14-.03.14-.06,0-.03,0-.07.01-.13.06-.24.09-.44.09-.59,0-.15,0-.37,0-.64.01-.19.07-.43.16-.69.1-.26.08-.48-.06-.63.06-.11.11-.24.15-.4.04-.16.06-.32.06-.49,0-.17,0-.32-.04-.47-.02-.11-.07-.2-.12-.29Z" />
      <path class="cls-5"
        d="M43.46,50.24c0,.1-.04.17-.1.23-.06.06-.12.11-.19.17-.07.06-.12.13-.15.21-.03.08-.01.2.05.34-.56.14-1.06.14-1.5,0-.43-.13-.81-.34-1.13-.61-.32-.27-.59-.61-.82-1-.23-.39-.43-.78-.6-1.17-.37.38-.67.82-.89,1.3-.22.49-.5.95-.82,1.38-.03.04-.05.08-.05.12,0,.04-.02.08-.06.12-.11.15-.25.29-.41.42-.16.13-.25.29-.28.49-.09.03-.15.04-.19.01-.03-.02-.07-.03-.11-.03-.05.08-.07.18-.06.28,0,.11-.03.19-.09.26-.17.06-.31.09-.42.09-.12,0-.23-.02-.34-.05-.11-.03-.22-.07-.33-.1-.11-.03-.24-.05-.4-.05-.08-.18-.21-.3-.38-.35-.17-.05-.32-.14-.46-.26-.08-.14-.15-.32-.22-.52-.07-.2-.12-.41-.16-.63-.04-.22-.06-.43-.06-.63,0-.2.04-.39.11-.55-.09-.37-.09-.82,0-1.34.09-.52.19-.98.28-1.41.05-.2.09-.39.12-.58.03-.19.08-.37.15-.56.07-.18.13-.37.18-.55.05-.18.12-.34.19-.49.09-.17.21-.31.35-.44.14-.13.27-.25.41-.36s.27-.25.38-.39c.12-.14.21-.31.28-.49.25-.03.42-.13.51-.28.09-.15.26-.25.51-.3.07-.03.1-.09.09-.17-.01-.09.02-.13.1-.14.13-.04.24-.04.33,0,.09.04.18.09.25.15.08.07.15.13.22.2.07.07.14.13.23.17.11.06.22.1.35.1.13,0,.23.06.3.16.1.02.16.01.18-.04.02-.05.08-.07.18-.07.08.16.19.28.34.36.15.08.3.15.45.21.15.07.3.14.45.21.15.08.28.18.39.32-.05.18-.18.3-.37.34-.2.05-.35.07-.47.07-.17,0-.34-.03-.51-.12-.17-.08-.4-.08-.7,0-.2.07-.43.2-.67.38-.24.19-.48.41-.71.65-.23.24-.44.49-.64.74-.2.25-.35.47-.46.66-.02.02-.02.05,0,.07.01.03.02.05.02.07-.02.02-.05.03-.09.01-.04-.01-.07,0-.09.01-.1.23-.14.46-.11.68-.17.14-.29.32-.33.53-.05.21-.1.45-.16.73-.05.3-.1.63-.14.99-.04.36-.07.74-.09,1.13.29-.31.52-.65.7-1.03.18-.37.37-.76.57-1.15.09-.21.2-.39.33-.57.13-.17.26-.36.38-.58.19-.32.37-.62.55-.92.18-.3.44-.56.78-.78-.06-.17-.05-.34.04-.53.09-.19.2-.35.34-.48.5.1,1,.19,1.5.27s.93.25,1.28.53c-.11.19-.25.38-.41.58-.02.41-.02.85,0,1.31.02.46.07.9.17,1.31.1.41.24.78.44,1.1s.47.53.82.64c.17-.06.31-.13.42-.22.11-.08.25-.16.42-.22Z" />
      <path class="cls-5"
        d="M42.72,42.65c.14-.08.23-.19.26-.34.03-.15.05-.3.07-.46.21,0,.38,0,.49-.01s.26-.07.44-.18c.07.11.2.14.39.09.19-.05.36-.07.51-.07.12.14.21.32.28.53.07.21.18.38.33.49-.01.31.03.6.12.85.09.26.15.51.16.76.03.35,0,.67-.08.97-.08.3-.06.62.06.95,0,.14-.03.24-.09.3-.06.07-.1.15-.13.25.08.18.19.26.31.23.12-.03.25-.12.4-.29.14-.16.29-.38.45-.63.16-.25.31-.53.47-.82.17-.33.37-.68.6-1.03.23-.35.45-.7.65-1.04.13-.17.3-.38.49-.64.2-.25.37-.47.52-.67.13-.17.24-.34.32-.51.08-.17.19-.33.32-.48.13-.15.22-.27.27-.34.05-.07.09-.13.12-.18.03-.04.09-.08.17-.11.08-.03.23-.09.43-.18.04.13.01.21-.08.23-.09.02-.12.1-.08.23.29.11.41.28.36.5-.05.22-.12.42-.23.61-.11.19-.19.34-.24.45-.05.11.06.1.33-.03-.08.09-.21.22-.37.4-.16.18-.24.35-.23.53-.06-.01-.1,0-.12.05-.02.04-.07.06-.15.05-.04.16-.07.28-.1.35-.03.07-.06.13-.11.17-.04.05-.09.1-.15.15-.06.06-.13.15-.21.28-.03.04-.06.1-.08.16-.02.06-.05.11-.08.16-.12.11-.24.26-.35.43-.11.17-.22.34-.33.51-.12.23-.24.43-.37.6-.12.17-.24.36-.37.57-.41.7-.75,1.34-1.04,1.93-.29.59-.62,1.23-1.01,1.93-.31.14-.5.34-.58.6-.09.01-.15.04-.16.08-.23.05-.41.05-.55,0-.14-.05-.27-.12-.39-.21-.12-.09-.24-.17-.36-.25-.12-.08-.27-.14-.45-.17-.15-.13-.26-.32-.32-.55-.06-.23-.14-.45-.22-.65.03-.08.05-.17.08-.26.03-.09.05-.19.08-.29-.07-.24-.1-.46-.09-.67.01-.21.03-.4.06-.58.01-.04,0-.09-.04-.15-.04-.06-.04-.11,0-.16l.13-.08c.01-.06,0-.12-.05-.18-.05-.06-.08-.12-.08-.18.01-.18.05-.36.11-.54.06-.18.1-.36.11-.54,0-.1,0-.19-.04-.27s-.04-.16-.03-.24c.02-.16.02-.31,0-.45-.02-.14-.02-.29,0-.45.02-.16,0-.32-.02-.49-.03-.17-.04-.35-.03-.55-.05-.11-.14-.18-.25-.23-.11-.04-.18-.14-.2-.29Z" />
      <path class="cls-5"
        d="M57.27,47.2c-.11.04-.2.09-.27.17-.07.08-.13.16-.18.26-.05.09-.11.19-.16.28-.05.09-.13.17-.22.22l.05.37c-.14.1-.26.22-.36.37-.09.15-.21.28-.35.4-.1.11-.21.19-.32.23-.11.04-.25.13-.43.25-.04.02-.06.03-.07.01-.01-.02-.04-.01-.07,0-.04.02-.05.05-.06.08,0,.03-.03.06-.06.08-.5.19-1,.21-1.5.07-.02-.02-.04-.04-.04-.08,0-.04-.02-.06-.04-.05-.28-.1-.58-.18-.88-.24-.3-.06-.56-.19-.78-.37h-.06s-.4-.37-.4-.37v-.03s-.03,0-.04-.02c-.05-.09-.08-.18-.09-.26-.01-.09-.04-.17-.09-.26-.05-.09-.09-.17-.1-.23-.02-.07-.04-.13-.07-.21-.05-.34-.05-.68-.01-1.01.04-.34,0-.65-.12-.94.09-.05.16-.12.2-.2.05-.08.1-.16.17-.23.14-.39.25-.78.34-1.18.09-.4.27-.74.54-1.03.03-.35.15-.67.36-.97.21-.29.41-.58.6-.88.16-.24.33-.47.5-.69.17-.23.41-.42.72-.58.19.15.43.25.71.29.28.05.58.07.89.06.32,0,.64-.01.96-.02.32,0,.61.02.87.08.02,0,.03.02.04.05,0,.04.02.07.04.08.04.01.08,0,.11-.02.04-.02.07-.03.11-.02.17.07.28.18.33.32.06.14.15.27.29.41.03.09.01.15-.06.18-.07.03-.14.06-.19.09.07.24.02.54-.17.89-.18.36-.38.63-.58.84-.02.02-.05.04-.1.04-.05,0-.08.03-.09.07-.05.05-.08.11-.09.2,0,.09-.03.17-.08.26-.03.04-.07.06-.11.06-.04,0-.08.02-.11.06-.1.09-.21.22-.32.39-.11.17-.24.31-.38.43-.12.11-.25.22-.39.32-.14.1-.28.2-.42.32-.29.25-.65.49-1.08.7-.43.21-.9.37-1.43.46-.13.17-.22.37-.27.58-.05.21-.06.42-.03.64.03.22.11.41.23.58.12.17.29.27.51.32.53-.05,1.01-.17,1.44-.33.42-.17.8-.36,1.12-.58.33-.22.63-.46.92-.72.28-.26.57-.52.86-.77.05-.03.1-.05.15-.08.04-.03.08-.05.12-.08v.03c.02.09.02.17,0,.23-.03.08-.08.17-.15.25-.07.09-.14.15-.19.2-.03.04-.07.08-.1.12-.03.03-.07.07-.1.12ZM53.38,44.7c-.03.06-.08.14-.16.23-.08.09-.05.16.07.22.54-.44,1.09-.87,1.65-1.29.56-.42.99-.95,1.29-1.59-.11-.08-.22-.15-.32-.22-.11-.06-.22-.13-.35-.21-.08,0-.18-.08-.17-.18-.09.05-.15.05-.19,0-.04-.05-.1-.06-.19-.03-.26.21-.47.47-.62.77-.15.3-.31.6-.49.9-.01.04-.02.08-.03.11,0,.03,0,.01.04-.05.04,0,.06-.02.07-.04,0-.02.03-.03.07-.04-.08.26-.19.51-.33.74-.14.23-.26.46-.34.69Z" />
      <path class="cls-2"
        d="M32.68,37.88c-.12-.06-.23-.13-.34-.21-.07.05-.11.12-.09.21.01.1.01.18,0,.22,0,.02-.02.04-.06.05-.05.02-.08.04-.09.06-.03.08-.03.17,0,.26.02.09.02.18,0,.26-.01.04-.04.07-.07.1-.04.02-.06.06-.07.1-.01.04,0,.09.06.14.05.05.07.09.06.11-.01.04-.05.08-.1.13-.05.05-.09.1-.12.16-.07.2-.11.39-.14.57-.02.18-.1.34-.24.5v.9c-.1.02-.16,0-.17-.03,0-.04-.05-.01-.13.08.06.13.06.22.01.29-.05.07-.06.11-.04.15,0,.02.02.03.06.02.04,0,.05.01.04.05-.03.08-.08.14-.15.18-.07.04-.12.11-.15.21-.01.04,0,.11.04.21.04.1.05.17.02.22-.02,0-.05,0-.1,0-.05,0-.07,0-.07.02,0,.08.01.13.07.17.05.03.08.09.07.16h-.09s-.09.02-.09.02c-.07.05-.08.15-.03.29.05.15.06.24.03.29-.1.01-.14.06-.14.14,0,.08-.06.1-.18.08.04.15.08.26.12.35.04.08.03.19-.03.34-.04.02-.07.03-.11.02-.04-.01-.07-.03-.09-.04-.02-.02-.04-.01-.04,0,0,.02,0,.07,0,.14-.28.62-.5,1.28-.65,1.98-.15.7-.38,1.36-.68,1.98-.03.04-.06.08-.07.1-.02.02-.04.05-.07.1-.03.04-.04.09-.03.13s0,.09-.03.13c-.14.25-.25.47-.34.66-.03.08-.06.16-.1.25-.04.08-.07.15-.1.22-.04.1-.09.18-.14.24-.05.06-.1.14-.14.24-.03.08-.05.16-.08.24-.03.08-.06.14-.09.19-.03.04-.06.08-.09.1-.03.02-.05.05-.06.1-.08.13-.15.28-.21.45-.06.17-.19.25-.39.24,0-.21,0-.34-.02-.37-.02-.04-.08-.13-.16-.3.09-.01.15-.07.15-.17.01-.2,0-.38-.03-.55-.03-.17-.01-.34.06-.5-.1-.02-.17,0-.2.1-.04.09-.08.07-.14-.05.03-.06.06-.12.09-.19.03-.06.1-.1.22-.12-.07-.18-.03-.33.11-.45-.07-.51-.12-.97-.13-1.38-.02-.4-.03-.79-.05-1.17-.01-.38-.04-.75-.09-1.14-.04-.38-.14-.81-.28-1.3-.28-.06-.6-.14-.97-.26-.36-.11-.67-.23-.92-.35.07.09.1.15.08.19-.01.04-.05.07-.1.1-.05.03-.11.04-.17.05-.06,0-.1.01-.11.02-.04.12-.04.26.01.4.05.15,0,.25-.14.31,0,.15.04.25.13.29.08.04.12.13.1.29-.37.67-.72,1.36-1.06,2.07-.34.71-.58,1.48-.74,2.31-.13.08-.21.19-.24.34-.04.15-.06.3-.08.46-.02.16-.05.31-.1.45-.05.14-.14.25-.29.33-.06-.17-.06-.32,0-.45.07-.14.11-.28.13-.44.02-.16.02-.33,0-.51-.02-.18,0-.36.03-.54,0-.02.02-.06.06-.11.04-.05.07-.1.08-.14.03-.22.04-.43.04-.64,0-.21,0-.41.02-.58.04-.28.09-.53.14-.76.05-.23.08-.47.09-.72.02-.16-.01-.24-.08-.25-.07,0-.06-.07.02-.18.03-.04.06-.15.07-.32.02-.17.02-.24.03-.22,0-.04-.04-.08-.1-.12-.06-.04-.1-.08-.1-.12,0-.02.02-.04.08-.05.06-.02.08-.04.08-.05.01-.04,0-.08-.02-.13-.03-.04-.03-.09-.02-.13.03-.06.08-.14.14-.22.07-.09.11-.17.14-.25.01-.04.02-.1.02-.18,0-.08,0-.15.01-.23.04-.24.06-.38.06-.41,0-.04-.06-.13-.15-.27.06,0,.1-.02.14-.05.04-.02.07-.05.11-.07.02-.14,0-.22-.06-.24-.06-.02-.09-.08-.08-.18.09-.05.14-.18.17-.37.02-.2.04-.37.06-.53,0-.12,0-.28-.01-.49,0-.21-.02-.33-.02-.35-.03-.09-.11-.2-.22-.32-.11-.12-.18-.2-.21-.23-.38.03-.74.03-1.08,0-.34-.04-.7-.05-1.08-.04-.23.71-.58,1.44-1.04,2.19-.47.75-.9,1.49-1.3,2.2-.31.55-.6.97-.88,1.27-.28.3-.51.58-.68.84-.08.13-.18.26-.29.39-.12.13-.18.28-.2.43.64-.11,1.16-.38,1.56-.8.4-.42.73-.82,1.01-1.19.07-.09.11-.18.14-.27.03-.09.07-.19.13-.3.05-.08.1-.16.17-.24.07-.08.13-.16.2-.25.11-.17.25-.39.4-.67.15-.27.27-.49.34-.66-.08.26-.11.57-.11.92,0,.35.01.66.01.93,0,.17,0,.35-.04.54-.03.19-.06.36-.07.52-.01.2-.02.38-.01.55,0,.17,0,.36,0,.55-.02.43-.04.9-.08,1.42-.03.52-.08.95-.13,1.28-.03.1-.03.19-.02.26.01.08.01.16,0,.26-.02.16-.01.32,0,.48.02.16.03.32,0,.48-.02.27-.01.56.02.85.03.3.05.58.05.85,0,.12-.02.23-.04.35-.02.12-.04.24-.04.35,0,.14.01.26.04.37.03.11.05.24.07.37.06.15.09.26.11.35.01.09.05.19.1.32,0,.29.04.54.12.74.08.2.16.4.24.6-.04,0-.07,0-.09-.03-.02-.03-.05-.04-.09-.03.08.16.19.28.34.34.14.07.27.17.36.31.31,0,.55.02.72.09.17.06.41.02.72-.12.06-.14.14-.26.24-.35.1-.09.13-.24.08-.45.15,0,.22-.05.2-.13-.02-.08-.02-.17,0-.25,0-.04.02-.07.06-.1.04-.03.07-.06.09-.1.03-.08.05-.16.06-.23,0-.07.03-.15.06-.23.02-.12.06-.24.12-.37.06-.12.11-.22.14-.28.01-.04,0-.09-.04-.15-.04-.06-.04-.12-.01-.19.01-.04.05-.08.1-.13.05-.05.08-.1.09-.16.02-.1.04-.21.04-.34s.01-.24.04-.34c.07-.22.13-.4.2-.54.07-.14.04-.28-.08-.44.17-.02.25-.11.24-.27-.01-.15,0-.28.02-.38.02-.02.04-.03.08-.04.04,0,.06-.03.08-.07.03-.1.04-.22.04-.37,0-.14.04-.25.13-.32.02.02.06-.06.13-.24.06-.17.13-.37.21-.6.08-.22.14-.44.2-.64.06-.2.11-.31.14-.34,0,.08,0,.23,0,.45.01.22.02.45.04.69.01.24.03.47.04.69.01.22.01.37,0,.45.11.08.15.17.12.26-.03.09-.01.17.03.24.05.09.06.13.03.11-.03-.02.02,0,.16.03.08.03.14.09.17.19.03.1.07.17.12.2.11.06.24.09.4.07.16-.01.25.08.26.27-.09.05-.19.04-.29-.03-.11-.07-.18-.04-.22.1.1.04.23.05.38,0,.15-.04.26-.02.33.07l-.03.21.09.22c.17-.04.31-.05.43-.03.12.02.24.04.36.07.12.02.24.04.37.06.13.02.27.02.42,0,.07-.05.12-.09.14-.14s.07-.09.14-.14c.05-.05.12-.09.22-.12.09-.03.15-.07.19-.11.02-.02.02-.05,0-.09-.01-.04-.02-.06-.03-.08.05-.07.1-.1.16-.11.1-.13.16-.22.19-.27.03-.05.08-.15.16-.3.03-.04.07-.09.11-.15.04-.05.08-.1.11-.15.03-.08.04-.18.04-.31,0-.13.02-.23.04-.31,0-.02.02-.03.07-.04.05,0,.08-.03.09-.07.01-.04,0-.07-.05-.08-.05-.01-.07-.04-.05-.08.04,0,.06-.02.08-.04.02-.02.03-.03.04-.03,0,0,.02-.01.04-.03.01-.04.01-.11,0-.2-.01-.09,0-.16.03-.21.01-.06.04-.11.09-.16.05-.05.09-.09.13-.13.02-.1.03-.18,0-.25-.02-.07-.01-.13.02-.19,0-.02.02-.02.07-.01.05.01.07,0,.07-.01.07-.07.08-.14.04-.22-.04-.08-.05-.15-.02-.22.04-.1.1-.17.16-.21.06-.04.11-.1.14-.18.03-.08.04-.17.05-.27,0-.1.02-.19.05-.27.03-.08.07-.15.13-.21.06-.06.08-.13.07-.23.13-.06.14-.1.03-.12-.11-.02-.16-.06-.15-.12.12.02.19.01.23-.03.03-.04.05-.09.05-.14,0-.05.02-.1.04-.15.02-.05.07-.08.15-.09.05-.16.05-.29-.03-.39-.07-.1-.07-.2.02-.31.06,0,.09.01.11.06.02.05.04.08.08.09-.02-.25-.03-.4-.03-.45,0-.05.03-.13.11-.26.03-.04.04-.09.02-.15-.02-.06.02-.07.12-.05-.06-.17-.1-.26-.1-.29,0-.03,0-.12.02-.28,0-.08.03-.12.05-.14.03-.01.06-.02.09-.01s.05,0,.07,0c.02-.01.02-.06.01-.13-.02-.13,0-.28.04-.43.05-.15.1-.31.16-.49.06-.17.12-.35.16-.53.04-.18.05-.38.02-.61.12-.13.2-.28.26-.44.05-.16.04-.33-.04-.52.09-.01.14-.03.14-.06,0-.03,0-.07.01-.13.06-.24.09-.44.09-.59,0-.15,0-.37,0-.64.01-.19.07-.43.16-.69.1-.26.08-.48-.06-.63.06-.11.11-.24.15-.4.04-.16.06-.32.06-.49,0-.17,0-.32-.04-.47-.02-.11-.07-.2-.12-.29Z" />
      <path class="cls-2"
        d="M43.28,49.4c0,.1-.04.17-.1.23-.06.06-.12.11-.19.17-.07.06-.12.13-.15.21-.03.08-.01.2.05.34-.56.14-1.06.14-1.5,0-.43-.13-.81-.34-1.13-.61s-.59-.61-.82-1c-.23-.39-.43-.78-.6-1.17-.37.38-.67.82-.89,1.3-.22.49-.5.95-.82,1.38-.03.04-.05.08-.05.12,0,.04-.02.08-.06.12-.11.15-.25.29-.41.42-.16.13-.25.29-.28.49-.09.03-.15.04-.19.01-.03-.02-.07-.03-.11-.03-.05.08-.07.18-.06.28,0,.11-.03.19-.09.26-.17.06-.31.09-.42.09-.12,0-.23-.02-.34-.05-.11-.03-.22-.07-.33-.1-.11-.03-.24-.05-.4-.05-.08-.18-.21-.3-.38-.35-.17-.05-.32-.14-.46-.26-.08-.14-.15-.32-.22-.52-.07-.2-.12-.41-.16-.63-.04-.22-.06-.43-.06-.63,0-.2.04-.39.11-.55-.09-.37-.09-.82,0-1.34.09-.52.19-.98.28-1.41.05-.2.09-.39.12-.58.03-.19.08-.37.15-.56s.13-.37.18-.55c.05-.18.12-.35.19-.49.09-.17.21-.31.35-.44.14-.13.27-.25.41-.36.14-.12.27-.25.38-.39.12-.14.21-.31.28-.49.25-.03.42-.13.51-.28.09-.15.26-.25.51-.3.07-.03.1-.09.09-.17-.01-.09.02-.13.1-.14.13-.04.24-.04.33,0,.09.04.18.09.25.15.08.07.15.13.22.2.07.07.14.13.23.17.11.06.22.1.35.1.13,0,.23.06.3.16.1.02.16.01.18-.04.02-.05.08-.07.18-.07.08.16.19.28.34.36.15.08.3.15.45.21.15.07.3.14.45.21.15.08.28.18.39.32-.05.18-.18.3-.37.34-.2.05-.35.07-.47.07-.17,0-.34-.03-.51-.12-.17-.08-.4-.08-.7,0-.2.07-.43.2-.67.38-.24.19-.48.41-.71.65-.23.24-.44.49-.64.74-.2.25-.35.47-.46.66-.02.02-.02.05,0,.07.01.03.02.05.02.07-.02.02-.04.03-.09.01-.04-.01-.07,0-.09.01-.1.23-.14.46-.11.68-.17.14-.29.32-.33.53-.05.21-.1.45-.16.73-.05.3-.1.63-.14.99-.04.36-.07.74-.09,1.13.29-.31.52-.65.7-1.03.18-.37.37-.76.57-1.15.09-.21.2-.4.33-.57.13-.17.26-.37.38-.58.19-.32.37-.62.55-.92.18-.3.44-.56.78-.78-.06-.17-.05-.34.04-.53.09-.19.2-.35.34-.48.5.1,1,.19,1.5.27.5.07.93.25,1.28.53-.11.19-.25.38-.41.58-.02.41-.02.85,0,1.31.02.46.07.9.17,1.31.1.41.24.78.44,1.1.2.32.47.53.82.64.17-.06.31-.13.42-.22.11-.08.25-.16.42-.22Z" />
      <path class="cls-2"
        d="M42.54,41.81c.14-.08.23-.19.26-.34.03-.15.05-.3.07-.46.21,0,.38,0,.49-.01.11-.02.26-.07.44-.18.07.11.2.14.39.09.19-.05.36-.07.51-.07.12.14.21.32.28.53.07.21.18.38.33.49-.01.31.03.6.12.85.09.26.15.51.16.76.03.35,0,.67-.08.97-.08.3-.06.62.06.95,0,.14-.03.24-.09.3-.06.07-.1.15-.13.25.08.18.19.26.31.23.12-.03.25-.12.4-.29.14-.16.29-.38.45-.63.16-.25.31-.53.47-.82.17-.33.37-.68.6-1.03.23-.35.45-.7.65-1.04.13-.17.3-.38.49-.64.2-.25.37-.47.52-.67.13-.17.24-.34.32-.51.08-.17.19-.33.32-.48.13-.15.22-.27.27-.34.05-.07.09-.13.12-.18.03-.04.09-.08.17-.11.08-.03.23-.09.43-.18.04.13,0,.21-.08.23-.09.02-.12.1-.08.23.29.11.41.28.36.5-.05.22-.12.42-.23.61-.11.19-.19.34-.24.45-.05.11.06.1.33-.03-.08.09-.21.22-.37.4-.16.18-.24.35-.23.53-.06-.01-.1,0-.12.05-.02.04-.07.06-.15.05-.04.16-.07.28-.1.35-.03.07-.06.13-.11.17-.04.05-.09.1-.15.15-.06.06-.13.15-.21.28-.03.04-.06.1-.08.16-.02.06-.05.11-.08.16-.12.11-.24.26-.35.43-.11.17-.22.34-.33.51-.12.23-.24.43-.37.6-.12.17-.24.36-.37.57-.41.7-.75,1.34-1.04,1.93-.29.59-.62,1.23-1.01,1.93-.31.14-.5.34-.58.6-.09.01-.15.04-.16.08-.23.05-.41.05-.55,0-.14-.05-.27-.12-.39-.21-.12-.09-.24-.17-.36-.26-.12-.08-.27-.14-.45-.17-.15-.13-.26-.32-.32-.55-.06-.23-.14-.45-.22-.65.03-.08.05-.17.08-.26.03-.09.05-.19.08-.29-.07-.24-.1-.46-.09-.67.01-.21.03-.4.06-.58.01-.04,0-.09-.04-.15-.04-.06-.04-.11,0-.16l.13-.08c.01-.06,0-.12-.05-.18-.05-.06-.08-.12-.08-.18.01-.18.05-.36.11-.54.06-.18.1-.36.11-.54,0-.1,0-.19-.04-.27-.03-.08-.04-.16-.03-.24.02-.16.02-.31,0-.45-.02-.14-.02-.29,0-.45.02-.16,0-.32-.02-.49-.03-.17-.04-.35-.03-.55-.05-.11-.14-.18-.25-.23-.11-.04-.18-.14-.2-.29Z" />
      <path class="cls-2"
        d="M57.09,46.36c-.11.04-.2.09-.27.17-.07.08-.13.16-.18.26-.05.09-.11.19-.16.28-.05.09-.13.17-.22.22l.05.37c-.14.1-.26.22-.36.37-.09.15-.21.28-.35.4-.1.11-.21.19-.32.23-.11.04-.25.13-.43.25-.04.02-.06.03-.07,0-.01-.02-.04-.01-.07,0-.04.02-.06.05-.06.08,0,.03-.03.06-.06.08-.5.19-1,.21-1.5.07-.02-.02-.04-.04-.04-.08,0-.04-.02-.06-.04-.05-.28-.1-.58-.18-.88-.24-.3-.06-.56-.19-.78-.37h-.06s-.4-.37-.4-.37v-.03s-.03,0-.04-.02c-.05-.09-.08-.18-.09-.26-.01-.09-.04-.17-.09-.26-.05-.09-.09-.17-.11-.23-.02-.07-.04-.13-.07-.21-.05-.34-.05-.68-.01-1.01.04-.34,0-.65-.12-.94.09-.05.16-.12.2-.2.05-.08.1-.16.17-.23.14-.39.25-.78.34-1.18.09-.4.27-.74.54-1.03.03-.35.15-.67.36-.97.21-.29.41-.58.6-.88.16-.24.33-.47.5-.69.17-.23.41-.42.72-.58.19.15.43.25.71.29.28.05.58.07.89.06.32,0,.64-.01.96-.02.32,0,.61.02.87.08.02,0,.03.02.04.05,0,.04.02.07.04.08.04.01.08,0,.11-.02.04-.02.07-.03.11-.02.17.07.28.18.33.32.06.14.15.27.29.41.03.09.01.15-.06.18-.07.03-.14.06-.19.09.07.24.02.54-.17.89-.18.36-.38.63-.58.84-.02.02-.05.04-.1.04-.05,0-.08.03-.09.07-.05.05-.08.11-.09.2,0,.09-.03.17-.08.26-.03.04-.07.06-.11.06-.04,0-.08.02-.11.06-.1.09-.21.22-.32.39-.11.17-.24.31-.38.43-.12.11-.25.22-.39.32-.14.1-.28.2-.42.32-.29.25-.65.49-1.08.7-.43.21-.9.37-1.43.46-.13.17-.22.36-.27.57-.05.21-.06.42-.03.64.03.22.11.41.23.58.12.17.29.27.51.32.53-.05,1.01-.17,1.44-.33.42-.17.8-.36,1.12-.58.33-.22.63-.46.92-.72.28-.26.57-.52.86-.77.05-.03.1-.05.15-.08.04-.03.08-.05.12-.08v.03c.02.1.02.17,0,.23-.03.08-.08.17-.15.25-.07.09-.14.15-.19.2-.03.04-.07.08-.1.12-.03.03-.07.07-.1.12ZM53.2,43.86c-.03.06-.08.14-.16.23-.08.09-.05.16.07.22.54-.44,1.09-.87,1.65-1.29.56-.42.99-.95,1.29-1.59-.11-.08-.22-.15-.32-.22-.11-.06-.22-.13-.35-.21-.08,0-.18-.08-.17-.18-.09.05-.15.05-.19,0-.04-.05-.1-.06-.19-.03-.26.21-.47.47-.62.77-.15.3-.31.6-.49.9-.01.04-.02.08-.03.11,0,.03,0,.01.04-.05.04,0,.06-.02.07-.04,0-.02.03-.03.07-.04-.08.26-.19.51-.33.74-.14.23-.26.46-.34.69Z" />
    </g>
  </g>
</svg>