<?xml version="1.0" encoding="UTF-8"?><svg xmlns="http://www.w3.org/2000/svg" xmlns:xlink="http://www.w3.org/1999/xlink" viewBox="0 0 184.04 188.16"><defs><style>.cls-1{stroke-width:3.84px;}.cls-1,.cls-2,.cls-3,.cls-4,.cls-5,.cls-6,.cls-7,.cls-8,.cls-9,.cls-10,.cls-11,.cls-12,.cls-13,.cls-14,.cls-15,.cls-16,.cls-17,.cls-18,.cls-19,.cls-20,.cls-21,.cls-22,.cls-23,.cls-24{fill:none;}.cls-1,.cls-2,.cls-3,.cls-4,.cls-5,.cls-6,.cls-8,.cls-9,.cls-10,.cls-11,.cls-12,.cls-13,.cls-14,.cls-15,.cls-16,.cls-17,.cls-18,.cls-20,.cls-21,.cls-22,.cls-23{stroke:#120f22;}.cls-1,.cls-2,.cls-3,.cls-4,.cls-5,.cls-6,.cls-8,.cls-9,.cls-10,.cls-11,.cls-12,.cls-13,.cls-14,.cls-15,.cls-16,.cls-17,.cls-18,.cls-20,.cls-21,.cls-22,.cls-23,.cls-24{stroke-miterlimit:10;}.cls-25{fill:url(#linear-gradient-61);}.cls-26{fill:url(#linear-gradient-15);}.cls-27{fill:url(#linear-gradient-13);}.cls-28{fill:url(#linear-gradient-107);}.cls-29{fill:url(#linear-gradient-28);}.cls-30{fill:url(#_6_lpi_10_);mix-blend-mode:overlay;opacity:.14;}.cls-31{fill:url(#linear-gradient-65);}.cls-32{fill:url(#linear-gradient-69);}.cls-33{fill:url(#linear-gradient-53);}.cls-34{fill:url(#linear-gradient-42);}.cls-35{fill:url(#linear-gradient-46);}.cls-36{fill:url(#linear-gradient-70);}.cls-37{fill:url(#linear-gradient-60);}.cls-38{fill:url(#linear-gradient-93);}.cls-39{fill:url(#linear-gradient-95);}.cls-40{fill:url(#linear-gradient-100);}.cls-41{fill:url(#linear-gradient-87);}.cls-42{fill:url(#linear-gradient-64);}.cls-43{fill:url(#linear-gradient-56);}.cls-44{fill:url(#linear-gradient-43);}.cls-45{fill:url(#linear-gradient-25);}.cls-46{fill:url(#linear-gradient-82);}.cls-2{stroke-width:1.89px;}.cls-47{fill:url(#linear-gradient-10);}.cls-48{fill:url(#linear-gradient-12);}.cls-49{fill:url(#linear-gradient-40);}.cls-50{fill:url(#linear-gradient-27);}.cls-3{stroke-width:.91px;}.cls-51{fill:url(#linear-gradient-68);}.cls-4{stroke-width:2.7px;}.cls-52{fill:url(#linear-gradient-37);}.cls-53{fill:url(#linear-gradient-75);}.cls-54{fill:url(#linear-gradient-55);}.cls-55{fill:url(#linear-gradient-39);}.cls-56{fill:url(#linear-gradient-89);}.cls-57{fill:url(#linear-gradient-52);}.cls-5{stroke-width:1.24px;}.cls-58{fill:url(#linear-gradient-58);}.cls-59{fill:url(#linear-gradient-47);}.cls-60{fill:url(#linear-gradient-26);}.cls-61{fill:url(#linear-gradient-74);}.cls-6{stroke-width:3.02px;}.cls-62{fill:url(#linear-gradient-97);}.cls-63{fill:url(#linear-gradient-72);}.cls-64{fill:url(#linear-gradient-4);}.cls-65{fill:url(#linear-gradient-35);}.cls-66{fill:url(#linear-gradient-30);}.cls-67{fill:url(#linear-gradient-76);}.cls-68{fill:url(#linear-gradient-73);}.cls-69{fill:url(#linear-gradient-71);}.cls-70{fill:url(#linear-gradient-44);}.cls-71{fill:url(#linear-gradient-96);}.cls-72{fill:url(#linear-gradient-49);}.cls-73{fill:url(#linear-gradient-3);}.cls-74{fill:url(#linear-gradient-34);}.cls-8{stroke-width:1.56px;}.cls-75{filter:url(#drop-shadow-1);}.cls-76{fill:url(#linear-gradient-5);}.cls-77{fill:url(#linear-gradient-38);}.cls-78{fill:url(#linear-gradient-91);}.cls-79{fill:url(#linear-gradient-22);}.cls-80{fill:url(#linear-gradient-24);}.cls-81{fill:url(#linear-gradient-94);}.cls-82{fill:url(#linear-gradient-54);}.cls-83{isolation:isolate;}.cls-9{stroke-width:2.05px;}.cls-84{fill:url(#linear-gradient-92);}.cls-85{fill:url(#linear-gradient-90);}.cls-86{fill:url(#linear-gradient-33);}.cls-87{fill:url(#linear-gradient-79);}.cls-88{fill:url(#linear-gradient-78);}.cls-89{fill:url(#linear-gradient-51);}.cls-90{fill:url(#linear-gradient-8);}.cls-10{stroke-width:1.73px;}.cls-91{fill:url(#linear-gradient-66);}.cls-92{fill:url(#linear-gradient-57);}.cls-93{fill:url(#linear-gradient-77);}.cls-94{fill:url(#linear-gradient-103);}.cls-11{stroke-width:3.51px;}.cls-95{fill:url(#linear-gradient-88);}.cls-12{stroke-width:2.86px;}.cls-13{stroke-width:.75px;}.cls-96{fill:url(#linear-gradient-14);}.cls-97{fill:url(#linear-gradient-62);}.cls-98{fill:url(#linear-gradient-29);}.cls-99{fill:url(#linear-gradient-20);}.cls-100{fill:url(#linear-gradient-106);}.cls-14{stroke-width:3.19px;}.cls-101{fill:url(#linear-gradient-67);}.cls-102{fill:url(#linear-gradient-17);}.cls-103{fill:url(#linear-gradient-50);}.cls-104{fill:url(#linear-gradient-7);}.cls-105{fill:url(#linear-gradient-9);}.cls-106{fill:url(#linear-gradient-104);}.cls-107{fill:url(#linear-gradient-59);}.cls-108{fill:url(#linear-gradient-11);}.cls-109{fill:url(#linear-gradient-108);}.cls-110{fill:url(#linear-gradient-19);}.cls-111{fill:url(#linear-gradient-101);}.cls-112{fill:url(#linear-gradient-80);}.cls-113{fill:url(#linear-gradient-6);}.cls-114{fill:url(#linear-gradient-83);}.cls-15{stroke-width:1.4px;}.cls-16{stroke-width:1.08px;}.cls-115{fill:url(#linear-gradient-105);}.cls-116{fill:url(#linear-gradient-36);}.cls-117{fill:url(#linear-gradient-21);}.cls-118{fill:url(#linear-gradient-45);}.cls-119{fill:url(#linear-gradient-85);}.cls-120{fill:url(#linear-gradient-98);}.cls-121{fill:url(#linear-gradient-81);}.cls-17{stroke-width:3.35px;}.cls-122{fill:url(#linear-gradient-84);}.cls-18{stroke-width:3.67px;}.cls-123{fill:url(#linear-gradient-48);}.cls-124{fill:url(#linear-gradient-102);}.cls-125{fill:url(#linear-gradient-32);}.cls-126{fill:url(#linear-gradient-86);}.cls-127{fill:url(#linear-gradient-41);}.cls-128{fill:url(#linear-gradient-16);}.cls-19{stroke:#222221;stroke-width:1.2px;}.cls-20{stroke-width:2.54px;}.cls-129{fill:url(#linear-gradient);}.cls-130{fill:url(#linear-gradient-23);}.cls-131{fill:url(#linear-gradient-31);}.cls-21{stroke-width:2.37px;}.cls-132{fill:url(#linear-gradient-63);}.cls-22{stroke-width:4px;}.cls-133{fill:url(#linear-gradient-99);}.cls-134{fill:url(#linear-gradient-18);}.cls-23{stroke-width:2.21px;}.cls-24{stroke:url(#linear-gradient-2);stroke-width:3px;}</style><filter id="drop-shadow-1" x="-15.71" y="-15.97" width="215" height="220" filterUnits="userSpaceOnUse"><feOffset dx="0" dy="0"/><feGaussianBlur result="blur" stdDeviation="5"/><feFlood flood-color="#000" flood-opacity=".5"/><feComposite in2="blur" operator="in"/><feComposite in="SourceGraphic"/></filter><linearGradient id="linear-gradient" x1="92.02" y1="167.71" x2="92.02" y2="-25.39" gradientUnits="userSpaceOnUse"><stop offset="0" stop-color="#fff"/><stop offset=".29" stop-color="#e144b9"/><stop offset=".66" stop-color="#250455"/><stop offset=".72" stop-color="#240758"/><stop offset=".78" stop-color="#231265"/><stop offset=".84" stop-color="#222579"/><stop offset=".9" stop-color="#203e95"/><stop offset=".96" stop-color="#1e5fb8"/><stop offset=".99" stop-color="#1d72cd"/></linearGradient><linearGradient id="linear-gradient-2" x1="0" y1="108.46" x2="184.04" y2="108.46" xlink:href="#linear-gradient"/><linearGradient id="linear-gradient-3" x1="95.41" y1="-22.88" x2="95.41" y2="120.82" gradientUnits="userSpaceOnUse"><stop offset="0" stop-color="#fff6ff"/><stop offset=".06" stop-color="#f9e1fb"/><stop offset=".24" stop-color="#eca9f1"/><stop offset=".42" stop-color="#e17be9"/><stop offset=".59" stop-color="#d957e3"/><stop offset=".75" stop-color="#d33dde"/><stop offset=".89" stop-color="#cf2edb"/><stop offset="1" stop-color="#ce29db"/></linearGradient><linearGradient id="linear-gradient-4" x1="95.32" y1="-22.96" x2="95.32" y2="120.74" xlink:href="#linear-gradient-3"/><linearGradient id="linear-gradient-5" x1="95.24" y1="-23.05" x2="95.24" y2="120.65" xlink:href="#linear-gradient-3"/><linearGradient id="linear-gradient-6" x1="95.15" y1="-23.14" x2="95.15" y2="120.56" xlink:href="#linear-gradient-3"/><linearGradient id="linear-gradient-7" x1="95.07" y1="-23.22" x2="95.07" y2="120.48" xlink:href="#linear-gradient-3"/><linearGradient id="linear-gradient-8" x1="94.98" y1="-23.31" x2="94.98" y2="120.39" xlink:href="#linear-gradient-3"/><linearGradient id="linear-gradient-9" x1="94.89" y1="-23.39" x2="94.89" y2="120.31" xlink:href="#linear-gradient-3"/><linearGradient id="linear-gradient-10" x1="94.81" y1="-23.48" x2="94.81" y2="120.22" xlink:href="#linear-gradient-3"/><linearGradient id="linear-gradient-11" x1="94.72" y1="-23.57" x2="94.72" y2="120.13" xlink:href="#linear-gradient-3"/><linearGradient id="linear-gradient-12" x1="94.64" y1="-23.65" x2="94.64" y2="120.05" xlink:href="#linear-gradient-3"/><linearGradient id="linear-gradient-13" x1="94.55" y1="-23.74" x2="94.55" y2="119.96" xlink:href="#linear-gradient-3"/><linearGradient id="linear-gradient-14" x1="94.46" y1="-23.82" x2="94.46" y2="119.88" xlink:href="#linear-gradient-3"/><linearGradient id="linear-gradient-15" x1="94.38" y1="-23.91" x2="94.38" y2="119.79" xlink:href="#linear-gradient-3"/><linearGradient id="linear-gradient-16" x1="94.29" y1="-24" x2="94.29" y2="119.7" xlink:href="#linear-gradient-3"/><linearGradient id="linear-gradient-17" x1="94.2" y1="-24.08" x2="94.2" y2="119.62" xlink:href="#linear-gradient-3"/><linearGradient id="linear-gradient-18" x1="94.12" y1="-24.17" x2="94.12" y2="119.53" xlink:href="#linear-gradient-3"/><linearGradient id="linear-gradient-19" x1="94.03" y1="-24.25" x2="94.03" y2="119.44" xlink:href="#linear-gradient-3"/><linearGradient id="linear-gradient-20" x1="93.95" y1="-24.34" x2="93.95" y2="119.36" xlink:href="#linear-gradient-3"/><linearGradient id="linear-gradient-21" x1="93.86" y1="-24.43" x2="93.86" y2="119.27" xlink:href="#linear-gradient-3"/><linearGradient id="linear-gradient-22" x1="93.77" y1="-24.51" x2="93.77" y2="119.19" xlink:href="#linear-gradient-3"/><linearGradient id="linear-gradient-23" x1="93.69" y1="-24.6" x2="93.69" y2="119.1" xlink:href="#linear-gradient-3"/><linearGradient id="linear-gradient-24" x1="93.6" y1="-24.69" x2="93.6" y2="119.01" xlink:href="#linear-gradient-3"/><linearGradient id="linear-gradient-25" x1="93.52" y1="-24.77" x2="93.52" y2="118.93" xlink:href="#linear-gradient-3"/><linearGradient id="linear-gradient-26" x1="93.43" y1="-24.86" x2="93.43" y2="118.84" xlink:href="#linear-gradient-3"/><linearGradient id="linear-gradient-27" x1="93.34" y1="-24.94" x2="93.34" y2="118.76" xlink:href="#linear-gradient-3"/><linearGradient id="linear-gradient-28" x1="93.26" y1="-25.03" x2="93.26" y2="118.67" xlink:href="#linear-gradient-3"/><linearGradient id="linear-gradient-29" x1="93.17" y1="-25.12" x2="93.17" y2="118.58" xlink:href="#linear-gradient-3"/><linearGradient id="linear-gradient-30" x1="93.09" y1="-25.2" x2="93.09" y2="118.5" xlink:href="#linear-gradient-3"/><linearGradient id="linear-gradient-31" x1="93" y1="-25.29" x2="93" y2="118.41" xlink:href="#linear-gradient-3"/><linearGradient id="linear-gradient-32" x1="92.91" y1="-25.37" x2="92.91" y2="118.33" xlink:href="#linear-gradient-3"/><linearGradient id="linear-gradient-33" x1="92.83" y1="-25.46" x2="92.83" y2="118.24" xlink:href="#linear-gradient-3"/><linearGradient id="linear-gradient-34" x1="92.74" y1="-25.55" x2="92.74" y2="118.15" xlink:href="#linear-gradient-3"/><linearGradient id="linear-gradient-35" x1="92.65" y1="-25.63" x2="92.65" y2="118.07" xlink:href="#linear-gradient-3"/><linearGradient id="linear-gradient-36" x1="92.57" y1="-25.72" x2="92.57" y2="117.98" xlink:href="#linear-gradient-3"/><linearGradient id="linear-gradient-37" x1="92.48" y1="-25.8" x2="92.48" y2="117.89" xlink:href="#linear-gradient-3"/><linearGradient id="linear-gradient-38" x1="95.3" y1="14.22" x2="95.3" y2="133.87" gradientUnits="userSpaceOnUse"><stop offset="0" stop-color="#fff6ff"/><stop offset=".33" stop-color="#fef3fe"/><stop offset=".47" stop-color="#fcecfd"/><stop offset=".58" stop-color="#f9e0fb"/><stop offset=".67" stop-color="#f5cef7"/><stop offset=".75" stop-color="#efb6f3"/><stop offset=".82" stop-color="#e899ee"/><stop offset=".89" stop-color="#e077e8"/><stop offset=".95" stop-color="#d751e2"/><stop offset="1" stop-color="#ce29db"/></linearGradient><linearGradient id="linear-gradient-39" x1="95.21" y1="14.13" x2="95.21" y2="133.79" xlink:href="#linear-gradient-38"/><linearGradient id="linear-gradient-40" x1="95.12" y1="14.05" x2="95.12" y2="133.7" xlink:href="#linear-gradient-38"/><linearGradient id="linear-gradient-41" x1="95.04" y1="13.96" x2="95.04" y2="133.62" xlink:href="#linear-gradient-38"/><linearGradient id="linear-gradient-42" x1="94.95" y1="13.87" x2="94.95" y2="133.53" xlink:href="#linear-gradient-38"/><linearGradient id="linear-gradient-43" x1="94.86" y1="13.79" x2="94.86" y2="133.44" xlink:href="#linear-gradient-38"/><linearGradient id="linear-gradient-44" x1="94.78" y1="13.7" x2="94.78" y2="133.36" xlink:href="#linear-gradient-38"/><linearGradient id="linear-gradient-45" x1="94.69" y1="13.61" x2="94.69" y2="133.27" xlink:href="#linear-gradient-38"/><linearGradient id="linear-gradient-46" x1="94.61" y1="13.53" x2="94.61" y2="133.19" xlink:href="#linear-gradient-38"/><linearGradient id="linear-gradient-47" x1="94.52" y1="13.44" x2="94.52" y2="133.1" xlink:href="#linear-gradient-38"/><linearGradient id="linear-gradient-48" x1="94.43" y1="13.36" x2="94.43" y2="133.01" xlink:href="#linear-gradient-38"/><linearGradient id="linear-gradient-49" x1="94.35" y1="13.27" x2="94.35" y2="132.93" xlink:href="#linear-gradient-38"/><linearGradient id="linear-gradient-50" x1="94.26" y1="13.18" x2="94.26" y2="132.84" xlink:href="#linear-gradient-38"/><linearGradient id="linear-gradient-51" x1="94.18" y1="13.1" x2="94.18" y2="132.76" xlink:href="#linear-gradient-38"/><linearGradient id="linear-gradient-52" x1="94.09" y1="13.01" x2="94.09" y2="132.67" xlink:href="#linear-gradient-38"/><linearGradient id="linear-gradient-53" x1="94" y1="12.93" x2="94" y2="132.58" xlink:href="#linear-gradient-38"/><linearGradient id="linear-gradient-54" x1="93.92" y1="12.84" x2="93.92" y2="132.5" xlink:href="#linear-gradient-38"/><linearGradient id="linear-gradient-55" x1="93.83" y1="12.75" x2="93.83" y2="132.41" xlink:href="#linear-gradient-38"/><linearGradient id="linear-gradient-56" x1="93.75" y1="12.67" x2="93.75" y2="132.32" xlink:href="#linear-gradient-38"/><linearGradient id="linear-gradient-57" x1="93.66" y1="12.58" x2="93.66" y2="132.24" xlink:href="#linear-gradient-38"/><linearGradient id="linear-gradient-58" x1="93.57" y1="12.5" x2="93.57" y2="132.15" xlink:href="#linear-gradient-38"/><linearGradient id="linear-gradient-59" x1="93.49" y1="12.41" x2="93.49" y2="132.07" xlink:href="#linear-gradient-38"/><linearGradient id="linear-gradient-60" x1="93.4" y1="12.32" x2="93.4" y2="131.98" xlink:href="#linear-gradient-38"/><linearGradient id="linear-gradient-61" x1="93.31" y1="12.24" x2="93.31" y2="131.89" xlink:href="#linear-gradient-38"/><linearGradient id="linear-gradient-62" x1="93.23" y1="12.15" x2="93.23" y2="131.81" xlink:href="#linear-gradient-38"/><linearGradient id="linear-gradient-63" x1="93.14" y1="12.06" x2="93.14" y2="131.72" xlink:href="#linear-gradient-38"/><linearGradient id="linear-gradient-64" x1="93.06" y1="11.98" x2="93.06" y2="131.64" xlink:href="#linear-gradient-38"/><linearGradient id="linear-gradient-65" x1="92.97" y1="11.89" x2="92.97" y2="131.55" xlink:href="#linear-gradient-38"/><linearGradient id="linear-gradient-66" x1="92.88" y1="11.81" x2="92.88" y2="131.46" xlink:href="#linear-gradient-38"/><linearGradient id="linear-gradient-67" x1="92.8" y1="11.72" x2="92.8" y2="131.38" xlink:href="#linear-gradient-38"/><linearGradient id="linear-gradient-68" x1="92.71" y1="11.63" x2="92.71" y2="131.29" xlink:href="#linear-gradient-38"/><linearGradient id="linear-gradient-69" x1="92.63" y1="11.55" x2="92.63" y2="131.21" xlink:href="#linear-gradient-38"/><linearGradient id="linear-gradient-70" x1="92.54" y1="11.46" x2="92.54" y2="131.12" xlink:href="#linear-gradient-38"/><linearGradient id="linear-gradient-71" x1="92.45" y1="11.38" x2="92.45" y2="131.03" xlink:href="#linear-gradient-38"/><linearGradient id="linear-gradient-72" x1="92.37" y1="11.29" x2="92.37" y2="130.95" xlink:href="#linear-gradient-38"/><linearGradient id="linear-gradient-73" x1="95.18" y1="53.1" x2="95.18" y2="173.99" gradientUnits="userSpaceOnUse"><stop offset="0" stop-color="#2e094f"/><stop offset=".35" stop-color="#300950"/><stop offset=".5" stop-color="#370a57"/><stop offset=".62" stop-color="#430d62"/><stop offset=".71" stop-color="#551071"/><stop offset=".8" stop-color="#6d1586"/><stop offset=".87" stop-color="#8a1b9f"/><stop offset=".94" stop-color="#ab22bc"/><stop offset="1" stop-color="#ce29db"/></linearGradient><linearGradient id="linear-gradient-74" x1="95.09" y1="53.02" x2="95.09" y2="173.9" xlink:href="#linear-gradient-73"/><linearGradient id="linear-gradient-75" x1="95.01" y1="52.93" x2="95.01" y2="173.81" xlink:href="#linear-gradient-73"/><linearGradient id="linear-gradient-76" x1="94.92" y1="52.84" x2="94.92" y2="173.73" xlink:href="#linear-gradient-73"/><linearGradient id="linear-gradient-77" x1="94.84" y1="52.76" x2="94.84" y2="173.64" xlink:href="#linear-gradient-73"/><linearGradient id="linear-gradient-78" x1="94.75" y1="52.67" x2="94.75" y2="173.56" xlink:href="#linear-gradient-73"/><linearGradient id="linear-gradient-79" x1="94.66" y1="52.59" x2="94.66" y2="173.47" xlink:href="#linear-gradient-73"/><linearGradient id="linear-gradient-80" x1="94.58" y1="52.5" x2="94.58" y2="173.38" xlink:href="#linear-gradient-73"/><linearGradient id="linear-gradient-81" x1="94.49" y1="52.41" x2="94.49" y2="173.3" xlink:href="#linear-gradient-73"/><linearGradient id="linear-gradient-82" x1="94.41" y1="52.33" x2="94.41" y2="173.21" xlink:href="#linear-gradient-73"/><linearGradient id="linear-gradient-83" x1="94.32" y1="52.24" x2="94.32" y2="173.13" xlink:href="#linear-gradient-73"/><linearGradient id="linear-gradient-84" x1="94.23" y1="52.16" x2="94.23" y2="173.04" xlink:href="#linear-gradient-73"/><linearGradient id="linear-gradient-85" x1="94.15" y1="52.07" x2="94.15" y2="172.95" xlink:href="#linear-gradient-73"/><linearGradient id="linear-gradient-86" x1="94.06" y1="51.98" x2="94.06" y2="172.87" xlink:href="#linear-gradient-73"/><linearGradient id="linear-gradient-87" x1="93.97" y1="51.9" x2="93.97" y2="172.78" xlink:href="#linear-gradient-73"/><linearGradient id="linear-gradient-88" x1="93.89" y1="51.81" x2="93.89" y2="172.7" xlink:href="#linear-gradient-73"/><linearGradient id="linear-gradient-89" x1="93.8" y1="51.73" x2="93.8" y2="172.61" xlink:href="#linear-gradient-73"/><linearGradient id="linear-gradient-90" x1="93.72" y1="51.64" x2="93.72" y2="172.52" xlink:href="#linear-gradient-73"/><linearGradient id="linear-gradient-91" x1="93.63" y1="51.55" x2="93.63" y2="172.44" xlink:href="#linear-gradient-73"/><linearGradient id="linear-gradient-92" x1="93.54" y1="51.47" x2="93.54" y2="172.35" xlink:href="#linear-gradient-73"/><linearGradient id="linear-gradient-93" x1="93.46" y1="51.38" x2="93.46" y2="172.26" xlink:href="#linear-gradient-73"/><linearGradient id="linear-gradient-94" x1="93.37" y1="51.3" x2="93.37" y2="172.18" xlink:href="#linear-gradient-73"/><linearGradient id="linear-gradient-95" x1="93.29" y1="51.21" x2="93.29" y2="172.09" xlink:href="#linear-gradient-73"/><linearGradient id="linear-gradient-96" x1="93.2" y1="51.12" x2="93.2" y2="172.01" xlink:href="#linear-gradient-73"/><linearGradient id="linear-gradient-97" x1="93.11" y1="51.04" x2="93.11" y2="171.92" xlink:href="#linear-gradient-73"/><linearGradient id="linear-gradient-98" x1="93.03" y1="50.95" x2="93.03" y2="171.83" xlink:href="#linear-gradient-73"/><linearGradient id="linear-gradient-99" x1="92.94" y1="50.86" x2="92.94" y2="171.75" xlink:href="#linear-gradient-73"/><linearGradient id="linear-gradient-100" x1="92.86" y1="50.78" x2="92.86" y2="171.66" xlink:href="#linear-gradient-73"/><linearGradient id="linear-gradient-101" x1="92.77" y1="50.69" x2="92.77" y2="171.58" xlink:href="#linear-gradient-73"/><linearGradient id="linear-gradient-102" x1="92.68" y1="50.61" x2="92.68" y2="171.49" xlink:href="#linear-gradient-73"/><linearGradient id="linear-gradient-103" x1="92.6" y1="50.52" x2="92.6" y2="171.4" xlink:href="#linear-gradient-73"/><linearGradient id="linear-gradient-104" x1="92.51" y1="50.43" x2="92.51" y2="171.32" xlink:href="#linear-gradient-73"/><linearGradient id="linear-gradient-105" x1="92.42" y1="50.35" x2="92.42" y2="171.23" xlink:href="#linear-gradient-73"/><linearGradient id="linear-gradient-106" x1="92.34" y1="50.26" x2="92.34" y2="171.15" xlink:href="#linear-gradient-73"/><linearGradient id="linear-gradient-107" x1="92.25" y1="50.18" x2="92.25" y2="171.06" xlink:href="#linear-gradient-73"/><linearGradient id="linear-gradient-108" x1="92.25" y1="14.67" x2="92.25" y2="129.23" gradientUnits="userSpaceOnUse"><stop offset="0" stop-color="#270157"/><stop offset=".11" stop-color="#6a35fe"/><stop offset=".48" stop-color="#fafafa"/><stop offset=".48" stop-color="#2e094f"/><stop offset=".61" stop-color="#dd35ac"/><stop offset=".68" stop-color="#e455bd"/><stop offset=".78" stop-color="#ef87d8"/><stop offset=".88" stop-color="#f8abeb"/><stop offset=".95" stop-color="#fdc1f7"/><stop offset="1" stop-color="#ffcafc"/></linearGradient><pattern id="_6_lpi_10_" x="0" y="0" width="72" height="72" patternTransform="translate(-2314.95 -2065.39) scale(.75)" patternUnits="userSpaceOnUse" viewBox="0 0 72 72"><rect class="cls-7" width="72" height="72"/><line class="cls-19" x1="71.75" y1="66" x2="144.25" y2="66"/><line class="cls-19" x1="71.75" y1="42" x2="144.25" y2="42"/><line class="cls-19" x1="71.75" y1="18" x2="144.25" y2="18"/><line class="cls-19" x1="71.75" y1="54" x2="144.25" y2="54"/><line class="cls-19" x1="71.75" y1="30" x2="144.25" y2="30"/><line class="cls-19" x1="71.75" y1="6" x2="144.25" y2="6"/><line class="cls-19" x1="-.25" y1="66" x2="72.25" y2="66"/><line class="cls-19" x1="-.25" y1="42" x2="72.25" y2="42"/><line class="cls-19" x1="-.25" y1="18" x2="72.25" y2="18"/><line class="cls-19" x1="-.25" y1="54" x2="72.25" y2="54"/><line class="cls-19" x1="-.25" y1="30" x2="72.25" y2="30"/><line class="cls-19" x1="-.25" y1="6" x2="72.25" y2="6"/><line class="cls-19" x1="-72.25" y1="66" x2=".25" y2="66"/><line class="cls-19" x1="-72.25" y1="42" x2=".25" y2="42"/><line class="cls-19" x1="-72.25" y1="18" x2=".25" y2="18"/><line class="cls-19" x1="-72.25" y1="54" x2=".25" y2="54"/><line class="cls-19" x1="-72.25" y1="30" x2=".25" y2="30"/><line class="cls-19" x1="-72.25" y1="6" x2=".25" y2="6"/></pattern></defs><g class="cls-83"><g id="Capa_2"><g id="OBJECTS" class="cls-75"><line class="cls-13" x1="182.51" y1="153.81" x2="1.53" y2="153.81"/><line class="cls-3" x1="182.51" y1="147.93" x2="1.53" y2="147.93"/><line class="cls-16" x1="182.51" y1="142.05" x2="1.53" y2="142.05"/><line class="cls-5" x1="182.51" y1="136.18" x2="1.53" y2="136.18"/><line class="cls-15" x1="182.51" y1="130.3" x2="1.53" y2="130.3"/><line class="cls-8" x1="182.51" y1="124.42" x2="1.53" y2="124.42"/><line class="cls-10" x1="182.51" y1="118.55" x2="1.53" y2="118.55"/><line class="cls-2" x1="182.51" y1="112.67" x2="1.53" y2="112.67"/><line class="cls-9" x1="182.51" y1="106.79" x2="1.53" y2="106.79"/><line class="cls-23" x1="182.51" y1="100.92" x2="1.53" y2="100.92"/><line class="cls-21" x1="182.51" y1="95.04" x2="1.53" y2="95.04"/><line class="cls-20" x1="182.51" y1="89.16" x2="1.53" y2="89.16"/><line class="cls-4" x1="182.51" y1="83.28" x2="1.53" y2="83.28"/><line class="cls-12" x1="182.51" y1="77.41" x2="1.53" y2="77.41"/><line class="cls-6" x1="182.51" y1="71.53" x2="1.53" y2="71.53"/><line class="cls-14" x1="182.51" y1="65.65" x2="1.53" y2="65.65"/><line class="cls-17" x1="182.51" y1="59.78" x2="1.53" y2="59.78"/><line class="cls-11" x1="182.51" y1="53.9" x2="1.53" y2="53.9"/><line class="cls-18" x1="182.51" y1="48.02" x2="1.53" y2="48.02"/><line class="cls-1" x1="182.51" y1="42.15" x2="1.53" y2="42.15"/><line class="cls-22" x1="182.51" y1="36.27" x2="1.53" y2="36.27"/><polygon class="cls-129" points="92.02 173.16 12.99 36.27 171.05 36.27 92.02 173.16"/><polygon class="cls-24" points="2.6 30.27 181.45 30.27 92.02 185.16 2.6 30.27"/><path class="cls-73" d="M75.99,139.86l-.79-.05-.47-.72q-.49-.74,2.21-8.23c1.44-4.01,3.37-9.34,5.3-14.67,2.77-7.65,5.54-15.3,6.88-19.01h-17.17l9.46-23.22h-19.61L83.11,2.93h45.91l-30.41,45.2h21.45l-20.28,31.68h22.79l-2.12,2.77c-16.64,21.79-41.61,54.59-42.77,56.37l-.49,1.09-1.22-.18Z"/><path class="cls-64" d="M75.9,139.77l-.79-.05-.47-.72q-.49-.74,2.21-8.23c1.44-4.01,3.37-9.34,5.3-14.67,2.77-7.65,5.54-15.3,6.88-19.01h-17.17l9.46-23.22h-19.61L83.02,2.84h45.91l-30.41,45.2h21.45l-20.28,31.68h22.79l-2.12,2.77c-16.64,21.79-41.61,54.59-42.77,56.37l-.49,1.09-1.22-.18Z"/><path class="cls-76" d="M75.82,139.68l-.79-.05-.47-.72q-.49-.74,2.21-8.23c1.44-4.01,3.37-9.34,5.3-14.67,2.77-7.65,5.54-15.3,6.88-19.01h-17.17l9.46-23.22h-19.61L82.94,2.76h45.91l-30.41,45.2h21.45l-20.28,31.68h22.79l-2.12,2.77c-16.64,21.79-41.61,54.59-42.77,56.37l-.49,1.09-1.22-.18Z"/><path class="cls-113" d="M75.73,139.6l-.79-.05-.47-.72q-.49-.74,2.21-8.23c1.44-4.01,3.37-9.34,5.3-14.67,2.77-7.65,5.54-15.3,6.88-19.01h-17.17l9.46-23.22h-19.61L82.85,2.67h45.91l-30.41,45.2h21.45l-20.28,31.68h22.79l-2.12,2.77c-16.64,21.79-41.61,54.59-42.77,56.37l-.49,1.09-1.22-.18Z"/><path class="cls-104" d="M75.65,139.51l-.79-.05-.47-.72q-.49-.74,2.21-8.23c1.44-4.01,3.37-9.34,5.3-14.67,2.77-7.65,5.54-15.3,6.88-19.01h-17.17l9.46-23.22h-19.61L82.76,2.58h45.91l-30.41,45.2h21.45l-20.28,31.68h22.79l-2.12,2.77c-16.64,21.79-41.61,54.59-42.77,56.37l-.49,1.09-1.22-.18Z"/><path class="cls-90" d="M75.56,139.43l-.79-.05-.47-.72q-.49-.74,2.21-8.23c1.44-4.01,3.37-9.34,5.3-14.67,2.77-7.65,5.54-15.3,6.88-19.01h-17.17l9.46-23.22h-19.61L82.68,2.5h45.91l-30.41,45.2h21.45l-20.28,31.68h22.79l-2.12,2.77c-16.64,21.79-41.61,54.59-42.77,56.37l-.49,1.09-1.22-.18Z"/><path class="cls-105" d="M75.47,139.34l-.79-.05-.47-.72q-.49-.74,2.21-8.23c1.44-4.01,3.37-9.34,5.3-14.67,2.77-7.65,5.54-15.3,6.88-19.01h-17.17l9.46-23.22h-19.61L82.59,2.41h45.91l-30.41,45.2h21.45l-20.28,31.68h22.79l-2.12,2.77c-16.64,21.79-41.61,54.59-42.77,56.37l-.49,1.09-1.22-.18Z"/><path class="cls-47" d="M75.39,139.25l-.79-.05-.47-.72q-.49-.74,2.21-8.23c1.44-4.01,3.37-9.34,5.3-14.67,2.77-7.65,5.54-15.3,6.88-19.01h-17.17l9.46-23.22h-19.61L82.51,2.32h45.91l-30.41,45.2h21.45l-20.28,31.68h22.79l-2.12,2.77c-16.64,21.79-41.61,54.59-42.77,56.37l-.49,1.09-1.22-.18Z"/><path class="cls-108" d="M75.3,139.17l-.79-.05-.47-.72q-.49-.74,2.21-8.23c1.44-4.01,3.37-9.34,5.3-14.67,2.77-7.65,5.54-15.3,6.88-19.01h-17.17l9.46-23.22h-19.61L82.42,2.24h45.91l-30.41,45.2h21.45l-20.28,31.68h22.79l-2.12,2.77c-16.64,21.79-41.61,54.59-42.77,56.37l-.49,1.09-1.22-.18Z"/><path class="cls-48" d="M75.21,139.08l-.79-.05-.47-.72q-.49-.74,2.21-8.23c1.44-4.01,3.37-9.34,5.3-14.67,2.77-7.65,5.54-15.3,6.88-19.01h-17.17l9.46-23.22h-19.61L82.33,2.15h45.91l-30.41,45.2h21.45l-20.28,31.68h22.79l-2.12,2.77c-16.64,21.79-41.61,54.59-42.77,56.37l-.49,1.09-1.22-.18Z"/><path class="cls-27" d="M75.13,139l-.79-.05-.47-.72q-.49-.74,2.21-8.23c1.44-4.01,3.37-9.34,5.3-14.67,2.77-7.65,5.54-15.3,6.88-19.01h-17.17l9.46-23.22h-19.61L82.25,2.07h45.91l-30.41,45.2h21.45l-20.28,31.68h22.79l-2.12,2.77c-16.64,21.79-41.61,54.59-42.77,56.37l-.49,1.09-1.22-.18Z"/><path class="cls-96" d="M75.04,138.91l-.79-.05-.47-.72q-.49-.74,2.21-8.23c1.44-4.01,3.37-9.34,5.3-14.67,2.77-7.65,5.54-15.3,6.88-19.01h-17.17l9.46-23.22h-19.61L82.16,1.98h45.91l-30.41,45.2h21.45l-20.28,31.68h22.79l-2.12,2.77c-16.64,21.79-41.61,54.59-42.77,56.37l-.49,1.09-1.22-.18Z"/><path class="cls-26" d="M74.96,138.82l-.79-.05-.47-.72q-.49-.74,2.21-8.23c1.44-4.01,3.37-9.34,5.3-14.67,2.77-7.65,5.54-15.3,6.88-19.01h-17.17l9.46-23.22h-19.61L82.08,1.89h45.91l-30.41,45.2h21.45l-20.28,31.68h22.79l-2.12,2.77c-16.64,21.79-41.61,54.59-42.77,56.37l-.49,1.09-1.22-.18Z"/><path class="cls-128" d="M74.87,138.74l-.79-.05-.47-.72q-.49-.74,2.21-8.23c1.44-4.01,3.37-9.34,5.3-14.67,2.77-7.65,5.54-15.3,6.88-19.01h-17.17l9.46-23.22h-19.61L81.99,1.81h45.91l-30.41,45.2h21.45l-20.28,31.68h22.79l-2.12,2.77c-16.64,21.79-41.61,54.59-42.77,56.37l-.49,1.09-1.22-.18Z"/><path class="cls-102" d="M74.78,138.65l-.79-.05-.47-.72q-.49-.74,2.21-8.23c1.44-4.01,3.37-9.34,5.3-14.67,2.77-7.65,5.54-15.3,6.88-19.01h-17.17l9.46-23.22h-19.61L81.9,1.72h45.91l-30.41,45.2h21.45l-20.28,31.68h22.79l-2.12,2.77c-16.64,21.79-41.61,54.59-42.77,56.37l-.49,1.09-1.22-.18Z"/><path class="cls-134" d="M74.7,138.57l-.79-.05-.47-.72q-.49-.74,2.21-8.23c1.44-4.01,3.37-9.34,5.3-14.67,2.77-7.65,5.54-15.3,6.88-19.01h-17.17l9.46-23.22h-19.61L81.82,1.64h45.91l-30.41,45.2h21.45l-20.28,31.68h22.79l-2.12,2.77c-16.64,21.79-41.61,54.59-42.77,56.37l-.49,1.09-1.22-.18Z"/><path class="cls-110" d="M74.61,138.48l-.79-.05-.47-.72q-.49-.74,2.21-8.23c1.44-4.01,3.37-9.34,5.3-14.67,2.77-7.65,5.54-15.3,6.88-19.01h-17.17l9.46-23.22h-19.61L81.73,1.55h45.91l-30.41,45.2h21.45l-20.28,31.68h22.79l-2.12,2.77c-16.64,21.79-41.61,54.59-42.77,56.37l-.49,1.09-1.22-.18Z"/><path class="cls-99" d="M74.53,138.39l-.79-.05-.47-.72q-.49-.74,2.21-8.23c1.44-4.01,3.37-9.34,5.3-14.67,2.77-7.65,5.54-15.3,6.88-19.01h-17.17l9.46-23.22h-19.61L81.65,1.46h45.91l-30.41,45.2h21.45l-20.28,31.68h22.79l-2.12,2.77c-16.64,21.79-41.61,54.59-42.77,56.37l-.49,1.09-1.22-.18Z"/><path class="cls-117" d="M74.44,138.31l-.79-.05-.47-.72q-.49-.74,2.21-8.23c1.44-4.01,3.37-9.34,5.3-14.67,2.77-7.65,5.54-15.3,6.88-19.01h-17.17l9.46-23.22h-19.61L81.56,1.38h45.91l-30.41,45.2h21.45l-20.28,31.68h22.79l-2.12,2.77c-16.64,21.79-41.61,54.59-42.77,56.37l-.49,1.09-1.22-.18Z"/><path class="cls-79" d="M74.35,138.22l-.79-.05-.47-.72q-.49-.74,2.21-8.23c1.44-4.01,3.37-9.34,5.3-14.67,2.77-7.65,5.54-15.3,6.88-19.01h-17.17l9.46-23.22h-19.61L81.47,1.29h45.91l-30.41,45.2h21.45l-20.28,31.68h22.79l-2.12,2.77c-16.64,21.79-41.61,54.59-42.77,56.37l-.49,1.09-1.22-.18Z"/><path class="cls-130" d="M74.27,138.14l-.79-.05-.47-.72q-.49-.74,2.21-8.23c1.44-4.01,3.37-9.34,5.3-14.67,2.77-7.65,5.54-15.3,6.88-19.01h-17.17l9.46-23.22h-19.61L81.39,1.21h45.91l-30.41,45.2h21.45l-20.28,31.68h22.79l-2.12,2.77c-16.64,21.79-41.61,54.59-42.77,56.37l-.49,1.09-1.22-.18Z"/><path class="cls-80" d="M74.18,138.05l-.79-.05-.47-.72q-.49-.74,2.21-8.23c1.44-4.01,3.37-9.34,5.3-14.67,2.77-7.65,5.54-15.3,6.88-19.01h-17.17l9.46-23.22h-19.61L81.3,1.12h45.91l-30.41,45.2h21.45l-20.28,31.68h22.79l-2.12,2.77c-16.64,21.79-41.61,54.59-42.77,56.37l-.49,1.09-1.22-.18Z"/><path class="cls-45" d="M74.1,137.96l-.79-.05-.47-.72q-.49-.74,2.21-8.23c1.44-4.01,3.37-9.34,5.3-14.67,2.77-7.65,5.54-15.3,6.88-19.01h-17.17l9.46-23.22h-19.61L81.21,1.03h45.91l-30.41,45.2h21.45l-20.28,31.68h22.79l-2.12,2.77c-16.64,21.79-41.61,54.59-42.77,56.37l-.49,1.09-1.22-.18Z"/><path class="cls-60" d="M74.01,137.88l-.79-.05-.47-.72q-.49-.74,2.21-8.23c1.44-4.01,3.37-9.34,5.3-14.67,2.77-7.65,5.54-15.3,6.88-19.01h-17.17l9.46-23.22h-19.61L81.13.95h45.91l-30.41,45.2h21.45l-20.28,31.68h22.79l-2.12,2.77c-16.64,21.79-41.61,54.59-42.77,56.37l-.49,1.09-1.22-.18Z"/><path class="cls-50" d="M73.92,137.79l-.79-.05-.47-.72q-.49-.74,2.21-8.23c1.44-4.01,3.37-9.34,5.3-14.67,2.77-7.65,5.54-15.3,6.88-19.01h-17.17l9.46-23.22h-19.61L81.04.86h45.91l-30.41,45.2h21.45l-20.28,31.68h22.79l-2.12,2.77c-16.64,21.79-41.61,54.59-42.77,56.37l-.49,1.09-1.22-.18Z"/><path class="cls-29" d="M73.84,137.7l-.79-.05-.47-.72q-.49-.74,2.21-8.23c1.44-4.01,3.37-9.34,5.3-14.67,2.77-7.65,5.54-15.3,6.88-19.01h-17.17l9.46-23.22h-19.61L80.96.77h45.91l-30.41,45.2h21.45l-20.28,31.68h22.79l-2.12,2.77c-16.64,21.79-41.61,54.59-42.77,56.37l-.49,1.09-1.22-.18Z"/><path class="cls-98" d="M73.75,137.62l-.79-.05-.47-.72q-.49-.74,2.21-8.23c1.44-4.01,3.37-9.34,5.3-14.67,2.77-7.65,5.54-15.3,6.88-19.01h-17.17l9.46-23.22h-19.61L80.87.69h45.91l-30.41,45.2h21.45l-20.28,31.68h22.79l-2.12,2.77c-16.64,21.79-41.61,54.59-42.77,56.37l-.49,1.09-1.22-.18Z"/><path class="cls-66" d="M73.66,137.53l-.79-.05-.47-.72q-.49-.74,2.21-8.23c1.44-4.01,3.37-9.34,5.3-14.67,2.77-7.65,5.54-15.3,6.88-19.01h-17.17l9.46-23.22h-19.61L80.78.6h45.91l-30.41,45.2h21.45l-20.28,31.68h22.79l-2.12,2.77c-16.64,21.79-41.61,54.59-42.77,56.37l-.49,1.09-1.22-.18Z"/><path class="cls-131" d="M73.58,137.45l-.79-.05-.47-.72q-.49-.74,2.21-8.23c1.44-4.01,3.37-9.34,5.3-14.67,2.77-7.65,5.54-15.3,6.88-19.01h-17.17l9.46-23.22h-19.61L80.7.52h45.91l-30.41,45.2h21.45l-20.28,31.68h22.79l-2.12,2.77c-16.64,21.79-41.61,54.59-42.77,56.37l-.49,1.09-1.22-.18Z"/><path class="cls-125" d="M73.49,137.36l-.79-.05-.47-.72q-.49-.74,2.21-8.23c1.44-4.01,3.37-9.34,5.3-14.67,2.77-7.65,5.54-15.3,6.88-19.01h-17.17l9.46-23.22h-19.61L80.61.43h45.91l-30.41,45.2h21.45l-20.28,31.68h22.79l-2.12,2.77c-16.64,21.79-41.61,54.59-42.77,56.37l-.49,1.09-1.22-.18Z"/><path class="cls-86" d="M73.41,137.27l-.79-.05-.47-.72q-.49-.74,2.21-8.23c1.44-4.01,3.37-9.34,5.3-14.67,2.77-7.65,5.54-15.3,6.88-19.01h-17.17l9.46-23.22h-19.61L80.53.34h45.91l-30.41,45.2h21.45l-20.28,31.68h22.79l-2.12,2.77c-16.64,21.79-41.61,54.59-42.77,56.37l-.49,1.09-1.22-.18Z"/><path class="cls-74" d="M73.32,137.19l-.79-.05-.47-.72q-.49-.74,2.21-8.23c1.44-4.01,3.37-9.34,5.3-14.67,2.77-7.65,5.54-15.3,6.88-19.01h-17.17l9.46-23.22h-19.61L80.44.26h45.91l-30.41,45.2h21.45l-20.28,31.68h22.79l-2.12,2.77c-16.64,21.79-41.61,54.59-42.77,56.37l-.49,1.09-1.22-.18Z"/><path class="cls-65" d="M73.23,137.1l-.79-.05-.47-.72q-.49-.74,2.21-8.23c1.44-4.01,3.37-9.34,5.3-14.67,2.77-7.65,5.54-15.3,6.88-19.01h-17.17l9.46-23.22h-19.61L80.35.17h45.91l-30.41,45.2h21.45l-20.28,31.68h22.79l-2.12,2.77c-16.64,21.79-41.61,54.59-42.77,56.37l-.49,1.09-1.22-.18Z"/><path class="cls-116" d="M73.15,137.02l-.79-.05-.47-.72q-.49-.74,2.21-8.23c1.44-4.01,3.37-9.34,5.3-14.67,2.77-7.65,5.54-15.3,6.88-19.01h-17.17l9.46-23.22h-19.61L80.27.09h45.91l-30.41,45.2h21.45l-20.28,31.68h22.79l-2.12,2.77c-16.64,21.79-41.61,54.59-42.77,56.37l-.49,1.09-1.22-.18Z"/><path class="cls-52" d="M73.06,136.93l-.79-.05-.47-.72q-.49-.74,2.21-8.23c1.44-4.01,3.37-9.34,5.3-14.67,2.77-7.65,5.54-15.3,6.88-19.01h-17.17l9.46-23.22h-19.61L80.18,0h45.91l-30.41,45.2h21.45l-20.28,31.68h22.79l-2.12,2.77c-16.64,21.79-41.61,54.59-42.77,56.37l-.49,1.09-1.22-.18Z"/><path class="cls-77" d="M75.44,139.39l-.35-.54q-.36-.55,1.68-6.27c1.88-5.27,5.6-15.55,12.96-35.84h-17.14l9.46-23.22h-19.67L83.43,3.36h44.78l-30.41,45.2h21.48l-20.28,31.68h22.71l-1.59,2.08c-16.78,21.98-42.03,55.14-42.81,56.44l-.36.64-.81.04-.69-.05Z"/><path class="cls-55" d="M75.36,139.31l-.35-.54q-.36-.55,1.68-6.27c1.88-5.27,5.6-15.55,12.96-35.84h-17.14l9.46-23.22h-19.67L83.34,3.27h44.78l-30.41,45.2h21.48l-20.28,31.68h22.71l-1.59,2.08c-16.78,21.98-42.03,55.14-42.81,56.44l-.36.64-.81.04-.69-.05Z"/><path class="cls-49" d="M75.27,139.22l-.35-.54q-.36-.55,1.68-6.27c1.88-5.27,5.6-15.55,12.96-35.84h-17.14l9.46-23.22h-19.67L83.26,3.19h44.78l-30.41,45.2h21.48l-20.28,31.68h22.71l-1.59,2.08c-16.78,21.98-42.03,55.14-42.81,56.44l-.36.64-.81.04-.69-.05Z"/><path class="cls-127" d="M75.19,139.13l-.35-.54q-.36-.55,1.68-6.27c1.88-5.27,5.6-15.55,12.96-35.84h-17.14l9.46-23.22h-19.67L83.17,3.1h44.78l-30.41,45.2h21.48l-20.28,31.68h22.71l-1.59,2.08c-16.78,21.98-42.03,55.14-42.81,56.44l-.36.64-.81.04-.69-.05Z"/><path class="cls-34" d="M75.1,139.05l-.35-.54q-.36-.55,1.68-6.27c1.88-5.27,5.6-15.55,12.96-35.84h-17.14l9.46-23.22h-19.67L83.08,3.01h44.78l-30.41,45.2h21.48l-20.28,31.68h22.71l-1.59,2.08c-16.78,21.98-42.03,55.14-42.81,56.44l-.36.64-.81.04-.69-.05Z"/><path class="cls-44" d="M75.01,138.96l-.35-.54q-.36-.55,1.68-6.27c1.88-5.27,5.6-15.55,12.96-35.84h-17.14l9.46-23.22h-19.67L83,2.93h44.78l-30.41,45.2h21.48l-20.28,31.68h22.71l-1.59,2.08c-16.78,21.98-42.03,55.14-42.81,56.44l-.36.64-.81.04-.69-.05Z"/><path class="cls-70" d="M74.93,138.88l-.35-.54q-.36-.55,1.68-6.27c1.88-5.27,5.6-15.55,12.96-35.84h-17.14l9.46-23.22h-19.67L82.91,2.84h44.78l-30.41,45.2h21.48l-20.28,31.68h22.71l-1.59,2.08c-16.78,21.98-42.03,55.14-42.81,56.44l-.36.64-.81.04-.69-.05Z"/><path class="cls-118" d="M74.84,138.79l-.35-.54q-.36-.55,1.68-6.27c1.88-5.27,5.6-15.55,12.96-35.84h-17.14l9.46-23.22h-19.67L82.83,2.76h44.78l-30.41,45.2h21.48l-20.28,31.68h22.71l-1.59,2.08c-16.78,21.98-42.03,55.14-42.81,56.44l-.36.64-.81.04-.69-.05Z"/><path class="cls-35" d="M74.75,138.7l-.35-.54q-.36-.55,1.68-6.27c1.88-5.27,5.6-15.55,12.96-35.84h-17.14l9.46-23.22h-19.67L82.74,2.67h44.78l-30.41,45.2h21.48l-20.28,31.68h22.71l-1.59,2.08c-16.78,21.98-42.03,55.14-42.81,56.44l-.36.64-.81.04-.69-.05Z"/><path class="cls-59" d="M74.67,138.62l-.35-.54q-.36-.55,1.68-6.27c1.88-5.27,5.6-15.55,12.96-35.84h-17.14l9.46-23.22h-19.67L82.65,2.58h44.78l-30.41,45.2h21.48l-20.28,31.68h22.71l-1.59,2.08c-16.78,21.98-42.03,55.14-42.81,56.44l-.36.64-.81.04-.69-.05Z"/><path class="cls-123" d="M74.58,138.53l-.35-.54q-.36-.55,1.68-6.27c1.88-5.27,5.6-15.55,12.96-35.84h-17.14l9.46-23.22h-19.67L82.57,2.5h44.78l-30.41,45.2h21.48l-20.28,31.68h22.71l-1.59,2.08c-16.78,21.98-42.03,55.14-42.81,56.44l-.36.64-.81.04-.69-.05Z"/><path class="cls-72" d="M74.5,138.45l-.35-.54q-.36-.55,1.68-6.27c1.88-5.27,5.6-15.55,12.96-35.84h-17.14l9.46-23.22h-19.67L82.48,2.41h44.78l-30.41,45.2h21.48l-20.28,31.68h22.71l-1.59,2.08c-16.78,21.98-42.03,55.14-42.81,56.44l-.36.64-.81.04-.69-.05Z"/><path class="cls-103" d="M74.41,138.36l-.35-.54q-.36-.55,1.68-6.27c1.88-5.27,5.6-15.55,12.96-35.84h-17.14l9.46-23.22h-19.67L82.4,2.33h44.78l-30.41,45.2h21.48l-20.28,31.68h22.71l-1.59,2.08c-16.78,21.98-42.03,55.14-42.81,56.44l-.36.64-.81.04-.69-.05Z"/><path class="cls-89" d="M74.32,138.27l-.35-.54q-.36-.55,1.68-6.27c1.88-5.27,5.6-15.55,12.96-35.84h-17.14l9.46-23.22h-19.67L82.31,2.24h44.78l-30.41,45.2h21.48l-20.28,31.68h22.71l-1.59,2.08c-16.78,21.98-42.03,55.14-42.81,56.44l-.36.64-.81.04-.69-.05Z"/><path class="cls-57" d="M74.24,138.19l-.35-.54q-.36-.55,1.68-6.27c1.88-5.27,5.6-15.55,12.96-35.84h-17.14l9.46-23.22h-19.67L82.22,2.15h44.78l-30.41,45.2h21.48l-20.28,31.68h22.71l-1.59,2.08c-16.78,21.98-42.03,55.14-42.81,56.44l-.36.64-.81.04-.69-.05Z"/><path class="cls-33" d="M74.15,138.1l-.35-.54q-.36-.55,1.68-6.27c1.88-5.27,5.6-15.55,12.96-35.84h-17.14l9.46-23.22h-19.67L82.14,2.07h44.78l-30.41,45.2h21.48l-20.28,31.68h22.71l-1.59,2.08c-16.78,21.98-42.03,55.14-42.81,56.44l-.36.64-.81.04-.69-.05Z"/><path class="cls-82" d="M74.07,138.01l-.35-.54q-.36-.55,1.68-6.27c1.88-5.27,5.6-15.55,12.96-35.84h-17.14l9.46-23.22h-19.67L82.05,1.98h44.78l-30.41,45.2h21.48l-20.28,31.68h22.71l-1.59,2.08c-16.78,21.98-42.03,55.14-42.81,56.44l-.36.64-.81.04-.69-.05Z"/><path class="cls-54" d="M73.98,137.93l-.35-.54q-.36-.55,1.68-6.27c1.88-5.27,5.6-15.55,12.96-35.84h-17.14l9.46-23.22h-19.67L81.97,1.89h44.78l-30.41,45.2h21.48l-20.28,31.68h22.71l-1.59,2.08c-16.78,21.98-42.03,55.14-42.81,56.44l-.36.64-.81.04-.69-.05Z"/><path class="cls-43" d="M73.89,137.84l-.35-.54q-.36-.55,1.68-6.27c1.88-5.27,5.6-15.55,12.96-35.84h-17.14l9.46-23.22h-19.67L81.88,1.81h44.78l-30.41,45.2h21.48l-20.28,31.68h22.71l-1.59,2.08c-16.78,21.98-42.03,55.14-42.81,56.44l-.36.64-.81.04-.69-.05Z"/><path class="cls-92" d="M73.81,137.76l-.35-.54q-.36-.55,1.68-6.27c1.88-5.27,5.6-15.55,12.96-35.84h-17.14l9.46-23.22h-19.67L81.79,1.72h44.78l-30.41,45.2h21.48l-20.28,31.68h22.71l-1.59,2.08c-16.78,21.98-42.03,55.14-42.81,56.44l-.36.64-.81.04-.69-.05Z"/><path class="cls-58" d="M73.72,137.67l-.35-.54q-.36-.55,1.68-6.27c1.88-5.27,5.6-15.55,12.96-35.84h-17.14l9.46-23.22h-19.67L81.71,1.64h44.78l-30.41,45.2h21.48l-20.28,31.68h22.71l-1.59,2.08c-16.78,21.98-42.03,55.14-42.81,56.44l-.36.64-.81.04-.69-.05Z"/><path class="cls-107" d="M73.64,137.58l-.35-.54q-.36-.55,1.68-6.27c1.88-5.27,5.6-15.55,12.96-35.84h-17.14l9.46-23.22h-19.67L81.62,1.55h44.78l-30.41,45.2h21.48l-20.28,31.68h22.71l-1.59,2.08c-16.78,21.98-42.03,55.14-42.81,56.44l-.36.64-.81.04-.69-.05Z"/><path class="cls-37" d="M73.55,137.5l-.35-.54q-.36-.55,1.68-6.27c1.88-5.27,5.6-15.55,12.96-35.84h-17.14l9.46-23.22h-19.67L81.53,1.46h44.78l-30.41,45.2h21.48l-20.28,31.68h22.71l-1.59,2.08c-16.78,21.98-42.03,55.14-42.81,56.44l-.36.64-.81.04-.69-.05Z"/><path class="cls-25" d="M73.46,137.41l-.35-.54q-.36-.55,1.68-6.27c1.88-5.27,5.6-15.55,12.96-35.84h-17.14l9.46-23.22h-19.67L81.45,1.38h44.78l-30.41,45.2h21.48l-20.28,31.68h22.71l-1.59,2.08c-16.78,21.98-42.03,55.14-42.81,56.44l-.36.64-.81.04-.69-.05Z"/><path class="cls-97" d="M73.38,137.33l-.35-.54q-.36-.55,1.68-6.27c1.88-5.27,5.6-15.55,12.96-35.84h-17.14l9.46-23.22h-19.67L81.36,1.29h44.78l-30.41,45.2h21.48l-20.28,31.68h22.71l-1.59,2.08c-16.78,21.98-42.03,55.14-42.81,56.44l-.36.64-.81.04-.69-.05Z"/><path class="cls-132" d="M73.29,137.24l-.35-.54q-.36-.55,1.68-6.27c1.88-5.27,5.6-15.55,12.96-35.84h-17.14l9.46-23.22h-19.67L81.28,1.21h44.78l-30.41,45.2h21.48l-20.28,31.68h22.71l-1.59,2.08c-16.78,21.98-42.03,55.14-42.81,56.44l-.36.64-.81.04-.69-.05Z"/><path class="cls-42" d="M73.21,137.15l-.35-.54q-.36-.55,1.68-6.27c1.88-5.27,5.6-15.55,12.96-35.84h-17.14l9.46-23.22h-19.67L81.19,1.12h44.78l-30.41,45.2h21.48l-20.28,31.68h22.71l-1.59,2.08c-16.78,21.98-42.03,55.14-42.81,56.44l-.36.64-.81.04-.69-.05Z"/><path class="cls-31" d="M73.12,137.07l-.35-.54q-.36-.55,1.68-6.27c1.88-5.27,5.6-15.55,12.96-35.84h-17.14l9.46-23.22h-19.67L81.1,1.03h44.78l-30.41,45.2h21.48l-20.28,31.68h22.71l-1.59,2.08c-16.78,21.98-42.03,55.14-42.81,56.44l-.36.64-.81.04-.69-.05Z"/><path class="cls-91" d="M73.03,136.98l-.35-.54q-.36-.55,1.68-6.27c1.88-5.27,5.6-15.55,12.96-35.84h-17.14l9.46-23.22h-19.67L81.02.95h44.78l-30.41,45.2h21.48l-20.28,31.68h22.71l-1.59,2.08c-16.78,21.98-42.03,55.14-42.81,56.44l-.36.64-.81.04-.69-.05Z"/><path class="cls-101" d="M72.95,136.9l-.35-.54q-.36-.55,1.68-6.27c1.88-5.27,5.6-15.55,12.96-35.84h-17.14l9.46-23.22h-19.67L80.93.86h44.78l-30.41,45.2h21.48l-20.28,31.68h22.71l-1.59,2.08c-16.78,21.98-42.03,55.14-42.81,56.44l-.36.64-.81.04-.69-.05Z"/><path class="cls-51" d="M72.86,136.81l-.35-.54q-.36-.55,1.68-6.27c1.88-5.27,5.6-15.55,12.96-35.84h-17.14l9.46-23.22h-19.67L80.85.78h44.78l-30.41,45.2h21.48l-20.28,31.68h22.71l-1.59,2.08c-16.78,21.98-42.03,55.14-42.81,56.44l-.36.64-.81.04-.69-.05Z"/><path class="cls-32" d="M72.77,136.72l-.35-.54q-.36-.55,1.68-6.27c1.88-5.27,5.6-15.55,12.96-35.84h-17.14l9.46-23.22h-19.67L80.76.69h44.78l-30.41,45.2h21.48l-20.28,31.68h22.71l-1.59,2.08c-16.78,21.98-42.03,55.14-42.81,56.44l-.36.64-.81.04-.69-.05Z"/><path class="cls-36" d="M72.69,136.64l-.35-.54q-.36-.55,1.68-6.27c1.88-5.27,5.6-15.55,12.96-35.84h-17.14l9.46-23.22h-19.67L80.67.6h44.78l-30.41,45.2h21.48l-20.28,31.68h22.71l-1.59,2.08c-16.78,21.98-42.03,55.14-42.81,56.44l-.36.64-.81.04-.69-.05Z"/><path class="cls-69" d="M72.6,136.55l-.35-.54q-.36-.55,1.68-6.27c1.88-5.27,5.6-15.55,12.96-35.84h-17.14l9.46-23.22h-19.67L80.59.52h44.78l-30.41,45.2h21.48l-20.28,31.68h22.71l-1.59,2.08c-16.78,21.98-42.03,55.14-42.81,56.44l-.36.64-.81.04-.69-.05Z"/><path class="cls-63" d="M72.52,136.46l-.35-.54q-.36-.55,1.68-6.27c1.88-5.27,5.6-15.55,12.96-35.84h-17.14l9.46-23.22h-19.67L80.5.43h44.78l-30.41,45.2h21.48l-20.28,31.68h22.71l-1.59,2.08c-16.78,21.98-42.03,55.14-42.81,56.44l-.36.64-.81.04-.69-.05Z"/><path class="cls-68" d="M76.11,139l-.43-.03-.23-.36q-.25-.39,2.29-7.47c1.44-4.01,3.37-9.34,5.3-14.67,3.1-8.57,6.2-17.12,7.3-20.16h-17.12l9.46-23.22h-19.73L83.75,3.79h43.65l-30.41,45.2h21.5l-20.28,31.68h22.63l-1.06,1.38c-14.46,18.93-42.01,55.11-42.84,56.49l-.25.55-.58-.08Z"/><path class="cls-61" d="M76.03,138.92l-.43-.03-.23-.36q-.25-.39,2.29-7.47c1.44-4.01,3.37-9.34,5.3-14.67,3.1-8.57,6.2-17.12,7.3-20.16h-17.12l9.46-23.22h-19.73L83.66,3.7h43.65l-30.41,45.2h21.5l-20.28,31.68h22.63l-1.06,1.38c-14.46,18.93-42.01,55.11-42.84,56.49l-.25.55-.58-.08Z"/><path class="cls-53" d="M75.94,138.83l-.43-.03-.23-.36q-.25-.39,2.29-7.47c1.44-4.01,3.37-9.34,5.3-14.67,3.1-8.57,6.2-17.12,7.3-20.16h-17.12l9.46-23.22h-19.73L83.58,3.62h43.65l-30.41,45.2h21.5l-20.28,31.68h22.63l-1.06,1.38c-14.46,18.93-42.01,55.11-42.84,56.49l-.25.55-.58-.08Z"/><path class="cls-67" d="M75.86,138.75l-.43-.03-.23-.36q-.25-.39,2.29-7.47c1.44-4.01,3.37-9.34,5.3-14.67,3.1-8.57,6.2-17.12,7.3-20.16h-17.12l9.46-23.22h-19.73L83.49,3.53h43.65l-30.41,45.2h21.5l-20.28,31.68h22.63l-1.06,1.38c-14.46,18.93-42.01,55.11-42.84,56.49l-.25.55-.58-.08Z"/><path class="cls-93" d="M75.77,138.66l-.43-.03-.23-.36q-.25-.39,2.29-7.47c1.44-4.01,3.37-9.34,5.3-14.67,3.1-8.57,6.2-17.12,7.3-20.16h-17.12l9.46-23.22h-19.73L83.4,3.44h43.65l-30.41,45.2h21.5l-20.28,31.68h22.63l-1.06,1.38c-14.46,18.93-42.01,55.11-42.84,56.49l-.25.55-.58-.08Z"/><path class="cls-88" d="M75.68,138.57l-.43-.03-.23-.36q-.25-.39,2.29-7.47c1.44-4.01,3.37-9.34,5.3-14.67,3.1-8.57,6.2-17.12,7.3-20.16h-17.12l9.46-23.22h-19.73L83.32,3.36h43.65l-30.41,45.2h21.5l-20.28,31.68h22.63l-1.06,1.38c-14.46,18.93-42.01,55.11-42.84,56.49l-.25.55-.58-.08Z"/><path class="cls-87" d="M75.6,138.49l-.43-.03-.23-.36q-.25-.39,2.29-7.47c1.44-4.01,3.37-9.34,5.3-14.67,3.1-8.57,6.2-17.12,7.3-20.16h-17.12l9.46-23.22h-19.73L83.23,3.27h43.65l-30.41,45.2h21.5l-20.28,31.68h22.63l-1.06,1.38c-14.46,18.93-42.01,55.11-42.84,56.49l-.25.55-.58-.08Z"/><path class="cls-112" d="M75.51,138.4l-.43-.03-.23-.36q-.25-.39,2.29-7.47c1.44-4.01,3.37-9.34,5.3-14.67,3.1-8.57,6.2-17.12,7.3-20.16h-17.12l9.46-23.22h-19.73L83.15,3.19h43.65l-30.41,45.2h21.5l-20.28,31.68h22.63l-1.06,1.38c-14.46,18.93-42.01,55.11-42.84,56.49l-.25.55-.58-.08Z"/><path class="cls-121" d="M75.43,138.32l-.43-.03-.23-.36q-.25-.39,2.29-7.47c1.44-4.01,3.37-9.34,5.3-14.67,3.1-8.57,6.2-17.12,7.3-20.16h-17.12l9.46-23.22h-19.73L83.06,3.1h43.65l-30.41,45.2h21.5l-20.28,31.68h22.63l-1.06,1.38c-14.46,18.93-42.01,55.11-42.84,56.49l-.25.55-.58-.08Z"/><path class="cls-46" d="M75.34,138.23l-.43-.03-.23-.36q-.25-.39,2.29-7.47c1.44-4.01,3.37-9.34,5.3-14.67,3.1-8.57,6.2-17.12,7.3-20.16h-17.12l9.46-23.22h-19.73L82.97,3.01h43.65l-30.41,45.2h21.5l-20.28,31.68h22.63l-1.06,1.38c-14.46,18.93-42.01,55.11-42.84,56.49l-.25.55-.58-.08Z"/><path class="cls-114" d="M75.25,138.14l-.43-.03-.23-.36q-.25-.39,2.29-7.47c1.44-4.01,3.37-9.34,5.3-14.67,3.1-8.57,6.2-17.12,7.3-20.16h-17.12l9.46-23.22h-19.73L82.89,2.93h43.65l-30.41,45.2h21.5l-20.28,31.68h22.63l-1.06,1.38c-14.46,18.93-42.01,55.11-42.84,56.49l-.25.55-.58-.08Z"/><path class="cls-122" d="M75.17,138.06l-.43-.03-.23-.36q-.25-.39,2.29-7.47c1.44-4.01,3.37-9.34,5.3-14.67,3.1-8.57,6.2-17.12,7.3-20.16h-17.12l9.46-23.22h-19.73L82.8,2.84h43.65l-30.41,45.2h21.5l-20.28,31.68h22.63l-1.06,1.38c-14.46,18.93-42.01,55.11-42.84,56.49l-.25.55-.58-.08Z"/><path class="cls-119" d="M75.08,137.97l-.43-.03-.23-.36q-.25-.39,2.29-7.47c1.44-4.01,3.37-9.34,5.3-14.67,3.1-8.57,6.2-17.12,7.3-20.16h-17.12l9.46-23.22h-19.73L82.72,2.76h43.65l-30.41,45.2h21.5l-20.28,31.68h22.63l-1.06,1.38c-14.46,18.93-42.01,55.11-42.84,56.49l-.25.55-.58-.08Z"/><path class="cls-126" d="M75,137.89l-.43-.03-.23-.36q-.25-.39,2.29-7.47c1.44-4.01,3.37-9.34,5.3-14.67,3.1-8.57,6.2-17.12,7.3-20.16h-17.12l9.46-23.22h-19.73L82.63,2.67h43.65l-30.41,45.2h21.5l-20.28,31.68h22.63l-1.06,1.38c-14.46,18.93-42.01,55.11-42.84,56.49l-.25.55-.58-.08Z"/><path class="cls-41" d="M74.91,137.8l-.43-.03-.23-.36q-.25-.39,2.29-7.47c1.44-4.01,3.37-9.34,5.3-14.67,3.1-8.57,6.2-17.12,7.3-20.16h-17.12l9.46-23.22h-19.73L82.54,2.58h43.65l-30.41,45.2h21.5l-20.28,31.68h22.63l-1.06,1.38c-14.46,18.93-42.01,55.11-42.84,56.49l-.25.55-.58-.08Z"/><path class="cls-95" d="M74.82,137.71l-.43-.03-.23-.36q-.25-.39,2.29-7.47c1.44-4.01,3.37-9.34,5.3-14.67,3.1-8.57,6.2-17.12,7.3-20.16h-17.12l9.46-23.22h-19.73L82.46,2.5h43.65l-30.41,45.2h21.5l-20.28,31.68h22.63l-1.06,1.38c-14.46,18.93-42.01,55.11-42.84,56.49l-.25.55-.58-.08Z"/><path class="cls-56" d="M74.74,137.63l-.43-.03-.23-.36q-.25-.39,2.29-7.47c1.44-4.01,3.37-9.34,5.3-14.67,3.1-8.57,6.2-17.12,7.3-20.16h-17.12l9.46-23.22h-19.73L82.37,2.41h43.65l-30.41,45.2h21.5l-20.28,31.68h22.63l-1.06,1.38c-14.46,18.93-42.01,55.11-42.84,56.49l-.25.55-.58-.08Z"/><path class="cls-85" d="M74.65,137.54l-.43-.03-.23-.36q-.25-.39,2.29-7.47c1.44-4.01,3.37-9.34,5.3-14.67,3.1-8.57,6.2-17.12,7.3-20.16h-17.12l9.46-23.22h-19.73L82.29,2.33h43.65l-30.41,45.2h21.5l-20.28,31.68h22.63l-1.06,1.38c-14.46,18.93-42.01,55.11-42.84,56.49l-.25.55-.58-.08Z"/><path class="cls-78" d="M74.56,137.45l-.43-.03-.23-.36q-.25-.39,2.29-7.47c1.44-4.01,3.37-9.34,5.3-14.67,3.1-8.57,6.2-17.12,7.3-20.16h-17.12l9.46-23.22h-19.73L82.2,2.24h43.65l-30.41,45.2h21.5l-20.28,31.68h22.63l-1.06,1.38c-14.46,18.93-42.01,55.11-42.84,56.49l-.25.55-.58-.08Z"/><path class="cls-84" d="M74.48,137.37l-.43-.03-.23-.36q-.25-.39,2.29-7.47c1.44-4.01,3.37-9.34,5.3-14.67,3.1-8.57,6.2-17.12,7.3-20.16h-17.12l9.46-23.22h-19.73L82.11,2.15h43.65l-30.41,45.2h21.5l-20.28,31.68h22.63l-1.06,1.38c-14.46,18.93-42.01,55.11-42.84,56.49l-.25.55-.58-.08Z"/><path class="cls-38" d="M74.39,137.28l-.43-.03-.23-.36q-.25-.39,2.29-7.47c1.44-4.01,3.37-9.34,5.3-14.67,3.1-8.57,6.2-17.12,7.3-20.16h-17.12l9.46-23.22h-19.73L82.03,2.07h43.65l-30.41,45.2h21.5l-20.28,31.68h22.63l-1.06,1.38c-14.46,18.93-42.01,55.11-42.84,56.49l-.25.55-.58-.08Z"/><path class="cls-81" d="M74.31,137.2l-.43-.03-.23-.36q-.25-.39,2.29-7.47c1.44-4.01,3.37-9.34,5.3-14.67,3.1-8.57,6.2-17.12,7.3-20.16h-17.12l9.46-23.22h-19.73L81.94,1.98h43.65l-30.41,45.2h21.5l-20.28,31.68h22.63l-1.06,1.38c-14.46,18.93-42.01,55.11-42.84,56.49l-.25.55-.58-.08Z"/><path class="cls-39" d="M74.22,137.11l-.43-.03-.23-.36q-.25-.39,2.29-7.47c1.44-4.01,3.37-9.34,5.3-14.67,3.1-8.57,6.2-17.12,7.3-20.16h-17.12l9.46-23.22h-19.73L81.86,1.9h43.65l-30.41,45.2h21.5l-20.28,31.68h22.63l-1.06,1.38c-14.46,18.93-42.01,55.11-42.84,56.49l-.25.55-.58-.08Z"/><path class="cls-71" d="M74.13,137.02l-.43-.03-.23-.36q-.25-.39,2.29-7.47c1.44-4.01,3.37-9.34,5.3-14.67,3.1-8.57,6.2-17.12,7.3-20.16h-17.12l9.46-23.22h-19.73L81.77,1.81h43.65l-30.41,45.2h21.5l-20.28,31.68h22.63l-1.06,1.38c-14.46,18.93-42.01,55.11-42.84,56.49l-.25.55-.58-.08Z"/><path class="cls-62" d="M74.05,136.94l-.43-.03-.23-.36q-.25-.39,2.29-7.47c1.44-4.01,3.37-9.34,5.3-14.67,3.1-8.57,6.2-17.12,7.3-20.16h-17.12l9.46-23.22h-19.73L81.68,1.72h43.65l-30.41,45.2h21.5l-20.28,31.68h22.63l-1.06,1.38c-14.46,18.93-42.01,55.11-42.84,56.49l-.25.55-.58-.08Z"/><path class="cls-120" d="M73.96,136.85l-.43-.03-.23-.36q-.25-.39,2.29-7.47c1.44-4.01,3.37-9.34,5.3-14.67,3.1-8.57,6.2-17.12,7.3-20.16h-17.12l9.46-23.22h-19.73L81.6,1.64h43.65l-30.41,45.2h21.5l-20.28,31.68h22.63l-1.06,1.38c-14.46,18.93-42.01,55.11-42.84,56.49l-.25.55-.58-.08Z"/><path class="cls-133" d="M73.88,136.77l-.43-.03-.23-.36q-.25-.39,2.29-7.47c1.44-4.01,3.37-9.34,5.3-14.67,3.1-8.57,6.2-17.12,7.3-20.16h-17.12l9.46-23.22h-19.73L81.51,1.55h43.65l-30.41,45.2h21.5l-20.28,31.68h22.63l-1.06,1.38c-14.46,18.93-42.01,55.11-42.84,56.49l-.25.55-.58-.08Z"/><path class="cls-40" d="M73.79,136.68l-.43-.03-.23-.36q-.25-.39,2.29-7.47c1.44-4.01,3.37-9.34,5.3-14.67,3.1-8.57,6.2-17.12,7.3-20.16h-17.12l9.46-23.22h-19.73L81.42,1.46h43.65l-30.41,45.2h21.5l-20.28,31.68h22.63l-1.06,1.38c-14.46,18.93-42.01,55.11-42.84,56.49l-.25.55-.58-.08Z"/><path class="cls-111" d="M73.7,136.59l-.43-.03-.23-.36q-.25-.39,2.29-7.47c1.44-4.01,3.37-9.34,5.3-14.67,3.1-8.57,6.2-17.12,7.3-20.16h-17.12l9.46-23.22h-19.73L81.34,1.38h43.65l-30.41,45.2h21.5l-20.28,31.68h22.63l-1.06,1.38c-14.46,18.93-42.01,55.11-42.84,56.49l-.25.55-.58-.08Z"/><path class="cls-124" d="M73.62,136.51l-.43-.03-.23-.36q-.25-.39,2.29-7.47c1.44-4.01,3.37-9.34,5.3-14.67,3.1-8.57,6.2-17.12,7.3-20.16h-17.12l9.46-23.22h-19.73L81.25,1.29h43.65l-30.41,45.2h21.5l-20.28,31.68h22.63l-1.06,1.38c-14.46,18.93-42.01,55.11-42.84,56.49l-.25.55-.58-.08Z"/><path class="cls-94" d="M73.53,136.42l-.43-.03-.23-.36q-.25-.39,2.29-7.47c1.44-4.01,3.37-9.34,5.3-14.67,3.1-8.57,6.2-17.12,7.3-20.16h-17.12l9.46-23.22h-19.73L81.17,1.21h43.65l-30.41,45.2h21.5l-20.28,31.68h22.63l-1.06,1.38c-14.46,18.93-42.01,55.11-42.84,56.49l-.25.55-.58-.08Z"/><path class="cls-106" d="M73.45,136.34l-.43-.03-.23-.36q-.25-.39,2.29-7.47c1.44-4.01,3.37-9.34,5.3-14.67,3.1-8.57,6.2-17.12,7.3-20.16h-17.12l9.46-23.22h-19.73L81.08,1.12h43.65l-30.41,45.2h21.5l-20.28,31.68h22.63l-1.06,1.38c-14.46,18.93-42.01,55.11-42.84,56.49l-.25.55-.58-.08Z"/><path class="cls-115" d="M73.36,136.25l-.43-.03-.23-.36q-.25-.39,2.29-7.47c1.44-4.01,3.37-9.34,5.3-14.67,3.1-8.57,6.2-17.12,7.3-20.16h-17.12l9.46-23.22h-19.73L80.99,1.03h43.65l-30.41,45.2h21.5l-20.28,31.68h22.63l-1.06,1.38c-14.46,18.93-42.01,55.11-42.84,56.49l-.25.55-.58-.08Z"/><path class="cls-100" d="M73.27,136.16l-.43-.03-.23-.36q-.25-.39,2.29-7.47c1.44-4.01,3.37-9.34,5.3-14.67,3.1-8.57,6.2-17.12,7.3-20.16h-17.12l9.46-23.22h-19.73L80.91.95h43.65l-30.41,45.2h21.5l-20.28,31.68h22.63l-1.06,1.38c-14.46,18.93-42.01,55.11-42.84,56.49l-.25.55-.58-.08Z"/><path class="cls-28" d="M73.19,136.08l-.43-.03-.23-.36q-.25-.39,2.29-7.47c1.44-4.01,3.37-9.34,5.3-14.67,3.1-8.57,6.2-17.12,7.3-20.16h-17.12l9.46-23.22h-19.73L80.82.86h43.65l-30.41,45.2h21.5l-20.28,31.68h22.63l-1.06,1.38c-14.46,18.93-42.01,55.11-42.84,56.49l-.25.55-.58-.08Z"/><path class="cls-109" d="M73.19,136.08l-.43-.03-.23-.36q-.25-.39,2.29-7.47c1.44-4.01,3.37-9.34,5.3-14.67,3.1-8.57,6.2-17.12,7.3-20.16h-17.12l9.46-23.22h-19.73L80.82.86h43.65l-30.41,45.2h21.5l-20.28,31.68h22.63l-1.06,1.38c-14.46,18.93-42.01,55.11-42.84,56.49l-.25.55-.58-.08Z"/><path class="cls-30" d="M81.46,1.72l-20.28,67.58h19.85l-9.46,23.22h17.06s-15.81,43.61-15.39,42.67c.42-.94,42.92-56.6,42.92-56.6h-22.46l20.28-31.68h-21.54L122.86,1.72h-41.4Z"/></g></g></g></svg>