<?xml version="1.0" encoding="UTF-8"?>
<svg id="Capa_2" xmlns="http://www.w3.org/2000/svg" xmlns:xlink="http://www.w3.org/1999/xlink" viewBox="0 0 32.4 44.24">
  <defs>
    <style>
      .cls-1 {
        fill: url(#linear-gradient-2);
      }

      .cls-2 {
        fill: url(#linear-gradient-3);
      }

      .cls-3 {
        filter: none;
      }

      .cls-4 {
        fill: url(#linear-gradient);
      }
    </style>
    <linearGradient id="linear-gradient" x1="-33.48" y1="-35.49" x2="5.65" y2="-35.49"
      gradientTransform="translate(12.5 54.25) rotate(27.45)" gradientUnits="userSpaceOnUse">
      <stop offset=".02" stop-color="#ff76ff" />
      <stop offset=".05" stop-color="#e987fd" />
      <stop offset=".11" stop-color="#c0aafa" />
      <stop offset=".18" stop-color="#9dc6f8" />
      <stop offset=".25" stop-color="#83dcf6" />
      <stop offset=".31" stop-color="#70ecf5" />
      <stop offset=".38" stop-color="#64f5f4" />
      <stop offset=".46" stop-color="#61f9f4" />
      <stop offset=".52" stop-color="#5df3f3" />
      <stop offset=".61" stop-color="#55e3f1" />
      <stop offset=".7" stop-color="#47c9ee" />
      <stop offset=".8" stop-color="#33a5ea" />
      <stop offset=".91" stop-color="#1977e5" />
      <stop offset="1" stop-color="#0048e0" />
    </linearGradient>
    <linearGradient id="linear-gradient-2" x1="-15.3" y1="-22" x2="-7.58" y2="-22"
      gradientTransform="translate(12.5 54.25) rotate(27.45)" gradientUnits="userSpaceOnUse">
      <stop offset=".02" stop-color="#ff76ff" />
      <stop offset=".2" stop-color="#fb78fe" />
      <stop offset=".35" stop-color="#f081fe" />
      <stop offset=".5" stop-color="#de90fc" />
      <stop offset=".64" stop-color="#c5a5fa" />
      <stop offset=".78" stop-color="#a4c0f8" />
      <stop offset=".92" stop-color="#7de1f5" />
      <stop offset="1" stop-color="#61f9f4" />
      <stop offset="1" stop-color="#5df3f3" />
      <stop offset="1" stop-color="#55e3f1" />
      <stop offset="1" stop-color="#47c9ee" />
      <stop offset="1" stop-color="#33a5ea" />
      <stop offset="1" stop-color="#1977e5" />
      <stop offset="1" stop-color="#0048e0" />
    </linearGradient>
    <linearGradient id="linear-gradient-3" x1="-33.49" y1="-23.73" x2="5.67" y2="-23.73"
      gradientTransform="translate(12.5 54.25) rotate(27.45)" gradientUnits="userSpaceOnUse">
      <stop offset=".02" stop-color="#ff76ff" />
      <stop offset=".12" stop-color="#f975fe" />
      <stop offset=".24" stop-color="#e972fc" />
      <stop offset=".37" stop-color="#cf6df9" />
      <stop offset=".52" stop-color="#ab66f4" />
      <stop offset=".67" stop-color="#7c5eef" />
      <stop offset=".83" stop-color="#4354e8" />
      <stop offset="1" stop-color="#0148e0" />
      <stop offset="1" stop-color="#0048e0" />
    </linearGradient>
  </defs>
  <g id="Layer_1">
    <g class="cls-3">
      <path class="cls-4"
        d="M.01,5.68L2.96,0s9.56.26,20.48,8.41c10.92,8.15,8.99,18.12,8.54,19.16-.46,1.05-3.11,7.45-3.11,7.45l-6.27-7.02-10.3-12.97L.01,5.68Z" />
      <path class="cls-1" d="M6.92,32.9l2.8-6.47s4.24-.74,6.33-2c2.09-1.26,1.19,4.25,1.19,4.25l-6.92,7.06-3.4-2.84Z" />
      <path class="cls-2"
        d="M0,5.67l2.68,11.33s11.2.85,12.31,8.62c1.1,7.77-8.07,7.28-8.07,7.28l3.36,11.34s19.89-.99,19.37-13.73c-.33-8-5.21-12.54-10.03-16.41C11.04,7.19,0,5.67,0,5.67Z" />
    </g>
  </g>
</svg>