<?xml version="1.0" encoding="UTF-8"?>
<svg xmlns="http://www.w3.org/2000/svg" xmlns:xlink="http://www.w3.org/1999/xlink" viewBox="0 0 84.08 55.15">
  <defs>
    <style>
      .cls-1,
      .cls-2 {
        fill: #423837;
      }

      .cls-3 {
        fill: url(#linear-gradient-15);
      }

      .cls-4 {
        fill: url(#linear-gradient-13);
      }

      .cls-5 {
        fill: url(#linear-gradient-9);
      }

      .cls-5,
      .cls-6,
      .cls-7,
      .cls-8,
      .cls-9,
      .cls-10 {
        mix-blend-mode: screen;
      }

      .cls-5,
      .cls-6,
      .cls-10,
      .cls-11 {
        opacity: .5;
      }

      .cls-12 {
        fill: #4a20aa;
      }

      .cls-13 {
        fill: url(#linear-gradient-2);
      }

      .cls-14 {
        fill: url(#linear-gradient-12);
      }

      .cls-15 {
        fill: #fff;
      }

      .cls-16 {
        fill: url(#linear-gradient-4);
      }

      .cls-17 {
        fill: #61f9f4;
      }

      .cls-18 {
        fill: url(#linear-gradient-3);
      }

      .cls-19 {
        filter: none;
      }

      .cls-20 {
        fill: url(#linear-gradient-5);
      }

      .cls-21 {
        isolation: isolate;
      }

      .cls-22 {
        fill: url(#linear-gradient-8);
      }

      .cls-2,
      .cls-23 {
        opacity: .2;
      }

      .cls-2,
      .cls-23,
      .cls-24 {
        mix-blend-mode: multiply;
      }

      .cls-7 {
        opacity: .6;
      }

      .cls-25 {
        fill: url(#linear-gradient-14);
      }

      .cls-26 {
        fill: url(#linear-gradient-17);
      }

      .cls-27 {
        fill: #201e36;
      }

      .cls-28 {
        fill: url(#linear-gradient-7);
      }

      .cls-29 {
        fill: #2c84ff;
      }

      .cls-8 {
        fill: url(#linear-gradient-11);
      }

      .cls-30 {
        fill: #e17bff;
      }

      .cls-31 {
        fill: url(#linear-gradient-6);
      }

      .cls-9 {
        opacity: .8;
      }

      .cls-10 {
        fill: url(#linear-gradient-10);
      }

      .cls-32 {
        fill: url(#linear-gradient-16);
      }

      .cls-33 {
        fill: url(#linear-gradient);
      }

      .cls-24 {
        opacity: .3;
      }

      .cls-34 {
        fill: #471152;
      }

      .cls-35 {
        fill: #36354d;
      }

      .cls-36 {
        fill: url(#linear-gradient-18);
      }
    </style>
    <linearGradient id="linear-gradient" x1="42.04" y1="52.85" x2="42.04" y2="0" gradientUnits="userSpaceOnUse">
      <stop offset="0" stop-color="#4900b0" />
      <stop offset=".26" stop-color="#6219cf" />
      <stop offset=".54" stop-color="#772ee9" />
      <stop offset=".78" stop-color="#843bf9" />
      <stop offset=".98" stop-color="#8940ff" />
    </linearGradient>
    <linearGradient id="linear-gradient-2" x1="42.04" y1="38.44" x2="42.04" y2="4.8" gradientUnits="userSpaceOnUse">
      <stop offset="0" stop-color="#1764ff" />
      <stop offset=".12" stop-color="#4467ff" />
      <stop offset=".29" stop-color="#7c6bff" />
      <stop offset=".45" stop-color="#ab6fff" />
      <stop offset=".61" stop-color="#cf72ff" />
      <stop offset=".75" stop-color="#e974ff" />
      <stop offset=".88" stop-color="#f975ff" />
      <stop offset=".98" stop-color="#ff76ff" />
    </linearGradient>
    <linearGradient id="linear-gradient-3" y1="6.62" xlink:href="#linear-gradient-2" />
    <linearGradient id="linear-gradient-4" x1="42.04" y1="-.07" x2="42.04" y2="52.82" gradientUnits="userSpaceOnUse">
      <stop offset=".02" stop-color="#8940ff" />
      <stop offset=".2" stop-color="#843cf9" />
      <stop offset=".42" stop-color="#7931e9" />
      <stop offset=".67" stop-color="#651fcf" />
      <stop offset=".93" stop-color="#4b07ab" />
      <stop offset="1" stop-color="#4300a1" />
    </linearGradient>
    <linearGradient id="linear-gradient-5" x1="3.2" y1="50.61" x2="3.2" y2="49.05" xlink:href="#linear-gradient" />
    <linearGradient id="linear-gradient-6" x1="7.68" y1="47.64" x2="7.68" y2="46.23" xlink:href="#linear-gradient" />
    <linearGradient id="linear-gradient-7" x1="76.4" y1="47.64" x2="76.4" y2="46.23" xlink:href="#linear-gradient" />
    <linearGradient id="linear-gradient-8" x1="80.88" y1="50.61" x2="80.88" y2="49.05" xlink:href="#linear-gradient" />
    <linearGradient id="linear-gradient-9" x1="3.2" y1="3.8" x2="3.2" y2="2.24" xlink:href="#linear-gradient" />
    <linearGradient id="linear-gradient-10" x1="80.88" y1="3.8" x2="80.88" y2="2.24" xlink:href="#linear-gradient" />
    <linearGradient id="linear-gradient-11" x1="42.04" y1="18.79" x2="42.04" y2="26.25" gradientUnits="userSpaceOnUse">
      <stop offset=".02" stop-color="#000" />
      <stop offset=".2" stop-color="#030305" />
      <stop offset=".43" stop-color="#0c0b15" />
      <stop offset=".69" stop-color="#1c1a2f" />
      <stop offset=".96" stop-color="#312e53" />
      <stop offset="1" stop-color="#353259" />
    </linearGradient>
    <linearGradient id="linear-gradient-12" y1="45.68" y2="43.73" xlink:href="#linear-gradient" />
    <linearGradient id="linear-gradient-13" y1="19.84" y2="18.26" xlink:href="#linear-gradient" />
    <linearGradient id="linear-gradient-14" x1="60.19" y1="50.61" x2="60.19" y2="49.57" xlink:href="#linear-gradient" />
    <linearGradient id="linear-gradient-15" x1="55.13" y1="48.67" x2="55.13" y2="47.43" xlink:href="#linear-gradient" />
    <linearGradient id="linear-gradient-16" x1="28.95" y1="48.67" x2="28.95" y2="47.43" xlink:href="#linear-gradient" />
    <linearGradient id="linear-gradient-17" x1="23.89" y1="50.61" x2="23.89" y2="49.57" xlink:href="#linear-gradient" />
    <linearGradient id="linear-gradient-18" y2="48.62" xlink:href="#linear-gradient" />
  </defs>
  <g class="cls-21">
    <g id="Capa_2">
      <g id="Layer_1">
        <g class="cls-19">
          <path class="cls-33"
            d="M80.39,0H3.69C1.65,0,0,1.65,0,3.69v45.47c0,2.04,1.65,3.69,3.69,3.69h76.7c2.04,0,3.69-1.65,3.69-3.69V3.69c0-2.04-1.65-3.69-3.69-3.69ZM23.89,51.66c-.43,0-.78-.35-.78-.78s.35-.78.78-.78.78.35.78.78-.35.78-.78.78ZM28.95,49.91c-.54,0-.97-.44-.97-.97s.44-.97.97-.97.97.44.97.97-.44.97-.97.97ZM49.9,25.21c0,.58-.47,1.04-1.04,1.04h-13.63c-.58,0-1.04-.47-1.04-1.04v-5.37c0-.58.47-1.04,1.04-1.04h13.63c.58,0,1.04.47,1.04,1.04v5.37ZM55.13,49.91c-.54,0-.97-.44-.97-.97s.44-.97.97-.97.97.44.97.97-.44.97-.97.97ZM60.19,51.66c-.43,0-.78-.35-.78-.78s.35-.78.78-.78.78.35.78.78-.35.78-.78.78Z" />
          <path class="cls-13"
            d="M77.53,4.8H6.55c-.8,0-1.44.65-1.44,1.44v30.75c0,.8.65,1.44,1.44,1.44h70.99c.8,0,1.44-.65,1.44-1.44V6.25c0-.8-.65-1.44-1.44-1.44ZM49.9,25.21c0,.58-.47,1.04-1.04,1.04h-13.63c-.58,0-1.04-.47-1.04-1.04v-5.37c0-.58.47-1.04,1.04-1.04h13.63c.58,0,1.04.47,1.04,1.04v5.37Z" />
          <g class="cls-23">
            <path class="cls-1"
              d="M77.53,37.78H6.55c-.8,0-1.44-.65-1.44-1.44v.66c0,.8.65,1.44,1.44,1.44h70.99c.8,0,1.44-.65,1.44-1.44v-.66c0,.8-.65,1.44-1.44,1.44Z" />
          </g>
          <g class="cls-7">
            <path class="cls-18"
              d="M77.53,4.8H6.55c-.8,0-1.44.65-1.44,1.44v.37c0-.8.65-1.44,1.44-1.44h70.99c.8,0,1.44.65,1.44,1.44v-.37c0-.8-.65-1.44-1.44-1.44Z" />
          </g>
          <path class="cls-16"
            d="M65.66,14.41H18.42c-1.05,0-1.91.85-1.91,1.91v12.4c0,1.05.85,1.91,1.91,1.91h47.24c1.05,0,1.91-.85,1.91-1.91v-12.4c0-1.05-.85-1.91-1.91-1.91ZM49.9,25.21c0,.58-.47,1.04-1.04,1.04h-13.63c-.58,0-1.04-.47-1.04-1.04v-5.37c0-.58.47-1.04,1.04-1.04h13.63c.58,0,1.04.47,1.04,1.04v5.37Z" />
          <path class="cls-30"
            d="M29.35,22.52c0,2.65-2.15,4.8-4.8,4.8s-4.8-2.15-4.8-4.8,2.15-4.8,4.8-4.8,4.8,2.15,4.8,4.8Z" />
          <path class="cls-27"
            d="M27.48,25.32c-.46-.26-.61-.85-.35-1.3.26-.46.85-.61,1.3-.35.05.03.09.06.13.09.12-.39.18-.81.18-1.24s-.06-.85-.18-1.24c-.04.03-.08.06-.13.09-.46.26-1.04.11-1.3-.35-.26-.46-.11-1.04.35-1.3.05-.03.1-.05.14-.07-.56-.61-1.3-1.05-2.14-1.24,0,.05.01.11.01.16,0,.53-.43.95-.95.95s-.95-.43-.95-.95c0-.05,0-.11.01-.16-.84.19-1.58.63-2.14,1.24.05.02.1.04.14.07.46.26.61.85.35,1.3-.26.46-.85.61-1.3.35-.05-.03-.09-.06-.13-.09-.12.39-.18.81-.18,1.24s.06.85.18,1.24c.04-.03.08-.06.13-.09.46-.26,1.04-.11,1.3.35.26.46.11,1.04-.35,1.3-.05.03-.1.05-.14.07.56.61,1.3,1.05,2.14,1.24,0-.05-.01-.11-.01-.16,0-.53.43-.95.95-.95s.95.43.95.95c0,.05,0,.11-.01.16.84-.19,1.58-.63,2.14-1.24-.05-.02-.1-.04-.14-.07Z" />
          <path class="cls-30"
            d="M54.73,22.52c0,2.65,2.15,4.8,4.8,4.8s4.8-2.15,4.8-4.8-2.15-4.8-4.8-4.8-4.8,2.15-4.8,4.8Z" />
          <path class="cls-27"
            d="M56.6,25.32c.46-.26.61-.85.35-1.3-.26-.46-.85-.61-1.3-.35-.05.03-.09.06-.13.09-.12-.39-.18-.81-.18-1.24s.06-.85.18-1.24c.04.03.08.06.13.09.46.26,1.04.11,1.3-.35.26-.46.11-1.04-.35-1.3-.05-.03-.1-.05-.14-.07.56-.61,1.3-1.05,2.14-1.24,0,.05-.01.11-.01.16,0,.53.43.95.95.95s.95-.43.95-.95c0-.05,0-.11-.01-.16.84.19,1.58.63,2.14,1.24-.05.02-.1.04-.14.07-.46.26-.61.85-.35,1.3.26.46.85.61,1.3.35.05-.03.09-.06.13-.09.12.39.18.81.18,1.24s-.06.85-.18,1.24c-.04-.03-.08-.06-.13-.09-.46-.26-1.04-.11-1.3.35-.26.46-.11,1.04.35,1.3.05.03.1.05.14.07-.56.61-1.3,1.05-2.14,1.24,0-.05.01-.11.01-.16,0-.53-.43-.95-.95-.95s-.95.43-.95.95c0,.05,0,.11.01.16-.84-.19-1.58-.63-2.14-1.24.05-.02.1-.04.14-.07Z" />
          <path class="cls-35"
            d="M48.85,18.79h-4.21c-.3,1.19-.46,2.44-.46,3.73s.16,2.53.46,3.73h4.21c.58,0,1.04-.47,1.04-1.04v-5.37c0-.58-.47-1.04-1.04-1.04Z" />
          <path class="cls-35"
            d="M34.18,19.84v5.37c0,.58.47,1.04,1.04,1.04h4.21c.3-1.19.46-2.44.46-3.73s-.16-2.53-.46-3.73h-4.21c-.58,0-1.04.47-1.04,1.04Z" />
          <path class="cls-20" d="M3.98,49.83c0,.43-.35.78-.78.78s-.78-.35-.78-.78.35-.78.78-.78.78.35.78.78Z" />
          <path class="cls-2"
            d="M9.91,46.94c0,1.23-1,2.23-2.23,2.23s-2.23-1-2.23-2.23,1-2.23,2.23-2.23,2.23,1,2.23,2.23Z" />
          <path class="cls-31" d="M8.38,46.94c0,.39-.32.71-.71.71s-.71-.32-.71-.71.32-.71.71-.71.71.32.71.71Z" />
          <path class="cls-2"
            d="M74.17,46.94c0,1.23,1,2.23,2.23,2.23s2.23-1,2.23-2.23-1-2.23-2.23-2.23-2.23,1-2.23,2.23Z" />
          <path class="cls-28" d="M75.7,46.94c0,.39.32.71.71.71s.71-.32.71-.71-.32-.71-.71-.71-.71.32-.71.71Z" />
          <circle class="cls-22" cx="80.88" cy="49.83" r=".78" />
          <path class="cls-5" d="M3.98,3.02c0-.43-.35-.78-.78-.78s-.78.35-.78.78.35.78.78.78.78-.35.78-.78Z" />
          <path class="cls-10" d="M80.1,3.02c0-.43.35-.78.78-.78s.78.35.78.78-.35.78-.78.78-.78-.35-.78-.78Z" />
          <path class="cls-2"
            d="M67.08,42.99c-.26-.57-.83-.95-1.45-.95H18.45c-.63,0-1.2.37-1.45.95l-3.78,9.87h57.66l-3.78-9.87ZM23.89,51.66c-.43,0-.78-.35-.78-.78s.35-.78.78-.78.78.35.78.78-.35.78-.78.78ZM28.95,49.91c-.54,0-.97-.44-.97-.97s.44-.97.97-.97.97.44.97.97-.44.97-.97.97ZM55.13,49.91c-.54,0-.97-.44-.97-.97s.44-.97.97-.97.97.44.97.97-.44.97-.97.97ZM60.19,51.66c-.43,0-.78-.35-.78-.78s.35-.78.78-.78.78.35.78.78-.35.78-.78.78Z" />
          <rect class="cls-8" x="34.18" y="18.79" width="15.71" height="7.46" rx="1.04" ry="1.04" />
          <rect class="cls-12" x="5.11" y="35.22" width="73.87" height=".86" />
          <g class="cls-11">
            <rect class="cls-12" x="5.11" y="33.4" width="73.87" height=".43" />
          </g>
          <path class="cls-2"
            d="M33.75,49.05c-.22,0-.42.13-.51.33l-1.33,3.47h20.27l-1.33-3.47c-.09-.2-.29-.33-.51-.33h-16.59Z" />
          <path class="cls-14" d="M43.01,44.7c0,.54-.44.97-.97.97s-.97-.44-.97-.97.44-.97.97-.97.97.44.97.97Z" />
          <g class="cls-24">
            <path class="cls-4"
              d="M48.85,18.26h-13.63c-.58,0-1.04.47-1.04,1.04v.54c0-.58.47-1.04,1.04-1.04h13.63c.58,0,1.04.47,1.04,1.04v-.54c0-.58-.47-1.04-1.04-1.04Z" />
            <path class="cls-25"
              d="M60.19,49.57c-.43,0-.78.35-.78.78,0,.09.02.18.05.27.11-.3.4-.51.73-.51s.62.21.73.51c.03-.08.05-.17.05-.27,0-.43-.35-.78-.78-.78Z" />
            <path class="cls-3"
              d="M55.13,47.43c-.54,0-.97.44-.97.97,0,.09.01.18.04.27.12-.41.49-.7.93-.7s.82.3.94.7c.02-.09.04-.17.04-.27,0-.54-.44-.97-.97-.97Z" />
            <path class="cls-32"
              d="M28.95,47.43c-.54,0-.97.44-.97.97,0,.09.01.18.04.27.12-.41.49-.7.93-.7s.82.3.94.7c.02-.09.04-.17.04-.27,0-.54-.44-.97-.97-.97Z" />
            <path class="cls-26"
              d="M23.89,49.57c-.43,0-.78.35-.78.78,0,.09.02.18.05.27.11-.3.4-.51.73-.51s.62.21.73.51c.03-.08.05-.17.05-.27,0-.43-.35-.78-.78-.78Z" />
            <path class="cls-36"
              d="M80.39,52.32H3.69c-2.04,0-3.69-1.65-3.69-3.69v.54c0,2.04,1.65,3.69,3.69,3.69h76.7c2.04,0,3.69-1.65,3.69-3.69v-.54c0,2.04-1.65,3.69-3.69,3.69Z" />
          </g>
          <g class="cls-6">
            <path class="cls-29"
              d="M28.95,50.36c.54,0,.97-.44.97-.97,0-.08,0-.15-.03-.23-.1.43-.49.75-.95.75s-.84-.32-.95-.75c-.02.07-.03.15-.03.23,0,.54.44.97.97.97Z" />
            <path class="cls-29"
              d="M35.23,26.7h13.63c.58,0,1.04-.47,1.04-1.04v-.45c0,.58-.47,1.04-1.04,1.04h-13.63c-.58,0-1.04-.47-1.04-1.04v.45c0,.58.47,1.04,1.04,1.04Z" />
            <path class="cls-29"
              d="M23.89,52.11c.43,0,.78-.35.78-.78,0-.08-.01-.15-.03-.23-.1.32-.39.55-.75.55s-.65-.23-.75-.55c-.02.07-.03.15-.03.23,0,.43.35.78.78.78Z" />
            <path class="cls-29"
              d="M80.39,0H3.69C1.65,0,0,1.65,0,3.69v.45C0,2.1,1.65.45,3.69.45h76.7c2.04,0,3.69,1.65,3.69,3.69v-.45c0-2.04-1.65-3.69-3.69-3.69Z" />
            <path class="cls-29"
              d="M60.19,52.11c.43,0,.78-.35.78-.78,0-.08-.01-.15-.03-.23-.1.32-.39.55-.75.55s-.65-.23-.75-.55c-.02.07-.03.15-.03.23,0,.43.35.78.78.78Z" />
            <path class="cls-29"
              d="M55.13,50.36c.54,0,.97-.44.97-.97,0-.08,0-.15-.03-.23-.1.43-.49.75-.95.75s-.84-.32-.95-.75c-.02.07-.03.15-.03.23,0,.54.44.97.97.97Z" />
          </g>
          <path class="cls-34"
            d="M37.37,55.12c-.25.11-.36-.04-.45-.2l-.13.03s-.03-.03-.05-.04c-.04-.1-.1-.21-.13-.32-.06-.31-.25-.54-.52-.69-.57-.3-1.14-.61-1.73-.88-1.03-.47-2.06-.95-3.1-1.37-2.56-1.05-5.14-2.06-7.7-3.08-.68-.27-1.37-.57-2.06-.83-.31-.13-.62-.22-.92-.35-.52-.22-1.02-.48-1.52-.7-.57-.25-1.17-.46-1.74-.7-1.21-.48-2.35-1.06-3.48-1.71-.48-.27-.98-.53-1.4-.91-.16-.16-.33-.32-.47-.5-.34-.43-.37-.8-.06-1.36.22-.43.53-.83.99-1.07.16-.08.33-.14.48-.22.29-.15.59-.3.86-.46.33-.22.68-.44.96-.71.67-.63,1.49-1.06,2.21-1.65.81-.68,1.59-1.38,2.22-2.22.27-.37.5-.76.64-1.21.13-.43.14-.87-.07-1.3-.17-.37-.44-.63-.84-.76-.69-.22-1.39-.25-2.1-.2-1.01.07-1.99.26-2.94.61-.75.27-1.49.58-2.23.87-.21.08-.42.14-.61.22-.87.4-1.61,1-2.32,1.6-.64.55-1.21,1.15-1.68,1.84-.33.49-.55,1.02-.63,1.62-.06.43.15.8.55,1.01.16.09.34.15.51.21.19.07.39.09.6.14l.19.32.22.07c.11.2.09.37-.11.57-.11,0-.26.01-.42-.01-.47-.07-.9-.27-1.31-.49-.36-.2-.49-.58-.64-.93-.06-.14-.12-.27-.16-.41-.03-.07-.05-.15-.07-.22-.02-.13-.04-.27-.08-.39-.08-.21-.08-.39-.02-.61.23-.71.57-1.37,1.04-1.94.06-.08.12-.14.17-.21.61-.83,1.33-1.5,2.29-1.93,0-.05,0-.1,0-.19.11-.08.23-.17.36-.25.58-.33,1.15-.66,1.73-.98.1-.05.21-.05.37-.09l-.11.34c-.5.12-.89.45-1.36.66-.05.19-.2.31-.39.42-.29.18-.57.38-.93.62.51,0,.87-.24,1.17-.4.04-.08.05-.14.08-.17.32-.23.65-.47.97-.69.22-.16.47-.29.71-.44l-.04-.18c.31-.18.62-.34.93-.5.05-.04.12-.07.16-.11.24-.25.54-.33.86-.37.33-.04.65-.1,1.01-.16l-.19-.07c.06-.03.08-.07.12-.08l.96-.2s.07-.02.1-.01c.37.15.72-.03,1.07-.08.71-.1,1.39-.03,2.06.18.64.19,1.15.59,1.54,1.11.42.55.56,1.18.33,1.87-.18.51-.45.94-.74,1.38-.18.24-.29.54-.43.81-.11.21-.2.42-.38.59-.46.44-.88.89-1.34,1.32-.2.2-.46.34-.69.51-.18.14-.34.3-.52.43-.19.16-.38.31-.57.44-.83.54-1.68,1.08-2.5,1.63-.34.23-.68.48-1.02.74-.4.32-.31.64.05.9.27.22.55.42.84.58.67.36,1.32.74,2,1.06.92.43,1.86.81,2.79,1.22.21.09.39.22.57.31.31.1.61.18.89.3,1.47.58,2.93,1.16,4.39,1.75,1.13.45,2.25.89,3.36,1.36.77.32,1.53.64,2.25,1.05.64.37,1.33.59,1.99.87.7.3,1.41.6,2.12.92.24.1.48.21.72.3.55.21,1.09.47,1.59.78.27.16.48.36.59.68.09.25.26.46.35.73.08.21.08.39-.08.56ZM8.04,35.21c-.7.5-1.12,1.21-1.43,1.99.23-.34.44-.7.69-1.03.23-.32.5-.63.74-.96ZM12.39,38.08c-.63,1.72-1.18,3.47-1.8,5.19-.29.77-.6,1.52-.89,2.3-.15.41-.26.84-.38,1.27l-.11.3c-.1-.06-.19-.1-.31-.16-.01.05-.03.09-.04.13.17-.06.17.07.17.18-.16.01-.16-.1-.17-.2l-.12.03c.03-.12.06-.23.09-.34l-.18-.24c.21-.68.42-1.35.64-2.03.13-.41.27-.8.41-1.2.09-.26.15-.51.24-.76.03-.08.11-.16.14-.25.08-.26.12-.53.19-.79.1-.35.22-.69.33-1.05l1.83-5.31c.11-.31.21-.63.45-.91.09.07.17.13.28.21-.29.23-.46.5-.52.84-.09.08-.08.19-.03.3,0,.08,0,.16-.03.23-.13.48-.29.96-.42,1.43-.04.14-.11.28.02.45.05-.09.09-.16.17-.29,0,.18-.02.29-.02.39.09-.11.11-.23.17-.33.1-.16-.02-.32.03-.48l.18-.93c.03-.13.07-.27-.01-.4.11-.1.13-.24.09-.39l.37-.62.35.46c-.1.21-.2.36-.27.54-.28.8-.55,1.61-.85,2.41ZM14.92,39.91c.6-.17,1.05-.5,1.54-.88-.26.08-.47.1-.64.21-.3.19-.57.42-.9.67Z" />
          <path class="cls-34"
            d="M22.4,40.27s.03-.07.04-.12c-.28-.11-.47-.35-.79-.37-.08,0-.15-.09-.22-.13-.11-.07-.21-.16-.31-.24-.05-.04-.07-.1-.1-.14-.04-.1-.06-.2-.1-.3-.23.04-.44.3-.71.06,0-.09-.03-.19-.05-.31.07-.08.14-.16.2-.25v.02c.24-.05.5-.1.69-.3.06-.05.14-.11.17-.18.16-.3.37-.58.61-.83.2-.24.39-.49.51-.78.04-.12.11-.23.18-.32.16-.2.33-.39.5-.57.21-.23.43-.43.66-.64.14-.13.31-.18.5-.12.12.03.24.05.35.08-.04.05-.18-.03-.12.17l.12-.17c.39.09.51.3.44.68-.04.24-.14.44-.27.63-.36.54-.81,1-1.27,1.45-.46.44-.99.77-1.47,1.14-.05.04-.12.08-.16.11.17.62.59.82,1.5.67-.04-.03-.06-.06-.11-.09.24-.11.47-.19.67-.32.21-.11.41-.28.64-.42.11.04.25.09.39.16.27.12.34.42.14.6-.37.37-.81.61-1.32.74l-.42.1c-.3.07-.59,0-.88-.02ZM21.59,39.18c-.01-.1-.01-.16-.02-.22-.09.07-.04.14.02.22h0ZM23.31,36.53l-.07-.13c-.38.36-.68.73-.93,1.14.41-.28.85-.73,1-1.01Z" />
          <path class="cls-34"
            d="M28.69,39.76l-.1.11c-.23,0-.26-.18-.3-.34-.11-.51-.35-.98-.72-1.35-.25-.26-.54-.48-.83-.72-.13-.11-.26-.2-.4-.29-.38-.28-.49-.66-.36-1.11,0-.02.03-.04.02-.06-.04-.47.27-.75.57-.99.45-.35.96-.65,1.43-.97.02-.02.06-.01.12-.03-.18.32-.49.48-.69.76.26-.16.53-.33.79-.51.04-.02.06-.06.1-.09.45-.21.56-.63.63-1.07l.09-.17s-.03,0-.03-.02c-.03.02-.06.05-.09.07.03-.18.05-.37.09-.55.31-1.22.63-2.43.95-3.65.03-.12.08-.22.13-.37.1.09.17.14.26.22.04-.07.09-.16.13-.24.2.01.39.09.43.31.03.16,0,.34-.03.48-.13.45-.31.89-.42,1.33-.2.75-.37,1.52-.55,2.28-.02.11-.03.22-.06.35.21-.03.39-.05.57-.05.56-.06,1,.19,1.41.54.03.03.06.09.07.13.01.06,0,.12.02.18.01.06.05.1.09.15-.1.16-.22.23-.39.13-.07-.03-.12-.04-.2,0-.06.03-.17-.03-.23-.09-.16-.16-.34-.18-.55-.1-.34.11-.68.23-1.05.36-.08.62-.16,1.22-.23,1.81-.11,1.04-.2,2.08-.12,3.11.01.1,0,.2-.01.3-.04.25-.18.32-.41.2-.04-.01-.07-.04-.11-.07ZM26.48,36.76c0-.13.02-.27-.14-.37-.12.19.03.27.14.37h0ZM28.53,35.04c-.76.32-1.52.96-1.64,1.38.47.4.96.79,1.45,1.2l.19-2.58Z" />
          <path class="cls-34"
            d="M36.87,33.12c.07.27-.07.62-.36.79-.06-.06-.14-.12-.21-.19-.02,0-.04,0-.06,0-.11.01-.2.16-.33.07-.01,0-.09.05-.13.08-.15.11-.29.23-.43.37-.33.29-.58.64-.82,1h0c-.07.17-.12.36-.22.53-.11.25-.27.48-.4.72-.08.17-.15.35-.18.52-.06.35-.18.68-.28,1.03l-.48-.13c-.09-.17-.2-.35-.3-.55.17-1.47.57-2.91.64-4.41l.41.09c0,.07.03.16.04.25.11,0,.22-.02.37-.03,0,.27,0,.52,0,.81.07-.08.13-.14.17-.21.33-.47.77-.85,1.3-1.09.13-.07.27-.12.4-.14.07-.02.15.01.21.06.1.06.19.17.3.24.04.03.12,0,.19,0,.1.01.15.06.18.17ZM34.52,35.23s-.04-.05-.06-.11c-.27.27-.43.59-.6.91-.04.06-.01.15-.01.32.2-.36.34-.66.5-.95.04-.06.11-.1.17-.17ZM36.19,32.82c-.21-.1-.33,0-.45.05-.47.24-.88.53-1.24.99.59-.37,1.12-.69,1.7-1.04Z" />
          <path class="cls-34"
            d="M38.02,35.85c-.06-.17-.09-.37-.1-.54-.02-.7.08-1.37.39-2,.15-.3.26-.6.43-.89.11-.18.26-.35.42-.49.12-.12.19-.24.23-.39.07-.38.37-.57.68-.68.19-.08.35.06.44.18.16.05.29.05.35.11.12.12.27.27.22.46-.05.21.04.35.12.53.23.42.37.87.43,1.35.06.39-.03.75-.14,1.11-.14.49-.43.94-.81,1.3-.31,0-.6.05-.86.24-.12.09-.24.18-.38.25-.67.39-1.28-.07-1.44-.53ZM38.9,33.78c.16-.2.31-.4.4-.66.06-.17.18-.31.28-.46.1-.15.21-.3.31-.46.08-.13.14-.29.22-.47l-.13-.11c-.15.16-.29.31-.42.47-.36.39-.53.89-.85,1.32-.28.38-.31.88-.4,1.34.11-.38.35-.67.59-.97ZM39.88,35.67c.29-.13.49-.36.62-.65.14-.34.39-.62.45-.99,0-.03.08-.03.14-.05.14-.34,0-.68-.12-1.06-.03.29-.05.55-.06.8,0-.64-.17-1.21-.55-1.79v.24s-.06-.06-.08-.09h-.06c-.36.39-.65.85-.92,1.31-.22.34-.32.72-.44,1.1-.13.38-.16.79.04,1.19.21-.01.4-.04.6-.05,0,.01,0,.02,0,.04l-.52.13c.16.17.3.21.49.11.15-.07.27-.17.43-.23Z" />
          <path class="cls-34"
            d="M70.27,3.04l-.09.15c-.13-.07-.23-.12-.35-.19-.09.07-.2.14-.31.21l-.38-.14c-.39.23-.54.65-.74,1.02l-.4.66c-.11.15-.27.28-.23.49l-.09.15c-.17.26-.38.49-.54.77-.17.31-.32.63-.48.96-.17.26-.28.53-.35.82.11-.16.19-.35.28-.52.03-.07.12-.13.18-.18-.02.12-.03.24-.06.35-.62,2.06-1.44,4.06-2.19,6.07-.8,2.19-1.59,4.38-2.22,6.62-.39,1.4-.74,2.81-1.08,4.21-.16.63-.28,1.25-.43,1.88l-.14-.14-.29,1.2-.51,2.19c-.05.19-.11.37-.01.55.04.1,0,.22,0,.34-.02.19-.03.38,0,.59.07-.34.15-.68.22-1,.03,0,.04,0,.05.01-.03.24-.07.48-.1.73-.2,1.79-.4,3.57-.61,5.35-.03.28-.08.56-.13.83-.11.43-.29.49-.67.24-.04.04-.09.06-.12.08-.22-.07-.31-.21-.36-.4-.24-1.03-.49-2.04-.73-3.06-.08-.32-.11-.65-.17-.99l.09.05c-.11-.45-.21-.89-.33-1.33-.08-.27-.17-.53-.16-.82,0-.13-.04-.25-.08-.37-.09-.38-.25-.75-.16-1.2-.05,0-.09,0-.12.02-.27-1.32-.55-2.66-.83-4.03-.2.16-.21.35-.28.53l-.08.28-.05-.22c-.06.23-.11.39-.14.55-.09.11-.16.23-.08.37l-.05.22s-.08,0-.09.02c-.06.18-.13.36-.21.59.1-.06.14-.07.18-.09l-.33,1.25-.7,2.95-.08.33s-.08-.02-.12-.03c-.03.08-.07.17-.12.27-.01-.05-.03-.07-.02-.1.15-.65.29-1.31.44-1.96.02-.09.02-.17-.03-.27-.09.27-.2.55-.29.82-.07.23-.11.47-.19.69-.13.34-.07.7-.08,1.05-.01.4-.02.79-.02,1.19.03.07.04.13.06.2-.04.27-.08.56-.13.83-.14.72-.27,1.43-.42,2.14-.03.17-.08.35-.25.47-.06-.05-.13-.08-.22-.13-.05.06-.09.11-.12.17-.03,0-.06-.02-.09-.03-.39.05-.54-.21-.63-.52-.14-.4-.26-.82-.38-1.25-.56-2.18-1.12-4.36-1.66-6.54-.33-1.27-.61-2.57-.93-3.85-.12-.43-.1-.85-.1-1.29,0-.13.09-.25.13-.38.45.01.79.25,1.15.43-.02.06-.03.09-.06.15.04.05.09.12.16.2.07.22-.11.35-.48.32l.1.39c.47,1.91.95,3.81,1.42,5.72.19.76.3,1.54.49,2.3.2.75.44,1.49.67,2.23.03.08.09.15.15.25.14-.8.27-1.54.41-2.29.45-2.38.97-4.75,1.71-7.06.07-.22.15-.42.34-.61.17-.14.21-.41.29-.64.07-.19.12-.38.18-.58t-.01,0s-.02.02-.03.02h-.06s-.01-.03,0-.05c.13-.23.18-.52.52-.62.08.08.21.15.23.23.04.2.2.29.34.36.22.08.32.25.38.44.11.31.22.62.29.94.04.15.03.31.04.47.03.24.03.49.1.71.33.98.48,2.01.7,3.03.06.3.04.62.1.92.13.58.31,1.16.45,1.74.13.52.23,1.03.35,1.54.01.11.04.22.13.32.07-.47.13-.95.19-1.41.17-1.24.31-2.49.51-3.73.25-1.44.55-2.86.83-4.3.06-.32.12-.63.22-.93.22-.67.3-1.38.51-2.04.2-.68.36-1.35.54-2.02.13-.48.29-.96.44-1.43.02-.07.03-.13.07-.19.18-.28.23-.59.32-.89.48-1.66,1.09-3.27,1.72-4.88.51-1.3,1-2.62,1.53-3.92.6-1.49,1.24-2.95,2.01-4.35.27-.52.59-1,.91-1.49.11-.16.28-.31.43-.44.17-.14.37-.18.58-.09.21.1.41.23.64.36l-.09.31c.09.05.19.09.32.17ZM51.75,34.79c-.08-.34-.22-.69-.32-1.04-.06-.19-.11-.37-.15-.56,0,.42.06.82.11,1.22.07.66.26,1.3.39,1.96.01.06.06.11.13.24.05-.2.11-.32.1-.41-.08-.47-.16-.94-.27-1.41ZM52.13,37.13c.18-.12.14-.24.07-.38-.03.13-.04.24-.07.38h0ZM52.83,33.48c-.09.12-.15.24-.18.37l-.34,1.82c-.05.29-.02.54.19.86.04-.2.07-.33.09-.46,0-.22,0-.44.02-.64.07-.59.15-1.19.23-1.77,0-.07,0-.12,0-.18ZM54.38,28.43c-.04.1-.08.2-.11.3.04,0,.07.02.07,0,.07-.09.1-.19.05-.31ZM55.62,23.98l-.23-.17c-.07.07-.12.12-.16.16.11,0,.23,0,.39,0ZM62.13,18.92c-.58,1.97-1.12,3.94-1.59,5.95,0-.15.01-.3.03-.46-.23.58-.35,1.19-.32,1.87.05-.09.07-.11.09-.13.1-.29.21-.58.32-.87.08-.22.23-.44.28-.68.16-.6.29-1.2.43-1.81l.07-.22c.05-.19.11-.36.15-.55.03-.12.04-.25.07-.37.18-.63.4-1.26.46-1.93.03-.27.04-.54,0-.8ZM62.19,18.68c.08-.08.17-.18.1-.36-.04.16-.07.27-.1.36h0ZM62.9,16.38l-.3.92s.04.02.07.03c.16-.35.28-.75.23-.96Z" />
          <path class="cls-34"
            d="M64.02,29.02c-.07.14-.09.31-.16.54.25-.22.44-.41.61-.63.62-.77,1.25-1.53,1.89-2.3l.47-.6c.06-.06.14-.11.21-.18l.28.36c.14-.07.22-.27.43-.19.28.24.25.56.22.89-.02.21-.08.41-.13.61l-.5,2.24c-.02.08-.05.16-.07.26-.14-.1-.08-.24-.08-.36.02-.16.05-.31.08-.47.1-.25.18-.51.2-.78-.12.24-.28.48-.2.78-.14.11-.15.27-.18.43-.04.2-.08.39-.13.63l-.24-.17s-.07.07-.13.12c-.06-.04-.12-.07-.19-.1,0-.23.09-.44-.02-.66-.03-.06.02-.14.03-.22l.29-1.22c0-.07.02-.14.04-.29l-.84.97s-.07.02-.1.04c-.13,0-.15.01-.2.19.04-.02.11-.05.17-.07.1.01.15-.05.18-.13.09-.07.19-.13.34-.23-.41.59-.85,1.06-1.3,1.52-.24.25-.5.46-.76.69-.32.28-.7.31-1.09.26-.19-.03-.3-.15-.34-.36-.09-.42-.05-.83.08-1.21.17-.44.34-.87.55-1.29.45-.87.99-1.69,1.64-2.43.24-.26.52-.47.83-.63.13-.07.23-.19.35-.3.12-.11.24-.22.39-.3.23-.13.44,0,.63.13-.05,0-.1-.01-.18-.02,0,.06,0,.13,0,.21.11-.01.22-.02.32-.03.29.18.43.42.37.77-.23.18-.26.18-.47-.01-.04.04-.09.07-.15.12-.04-.03-.1-.04-.14-.07-.03-.03-.05-.06-.11-.12-.14.11-.28.19-.39.31-.38.39-.77.8-1.13,1.2-.21.21-.39.46-.58.68-.36.41-.55.92-.79,1.41ZM63.64,30.29c.21.02.26-.01.2-.1-.07.04-.13.07-.2.1h0ZM64.02,29.95c.08,0,.13.02.18.02.01-.05.02-.11.06-.22l-.24.2ZM65.46,28.99s.03.02.03.04l.05-.1-.09.06Z" />
          <path class="cls-34"
            d="M69.68,28.84c-.1-.05-.19-.13-.24-.22-.26-.54-.39-1.09-.36-1.69.04-.8.15-1.59.33-2.36.02-.13.11-.25.18-.39.13.16.21.27.32.42.1-.06.17-.12.26-.18.21.12.17.35.21.55.03.21.06.41-.12.58-.03.03-.04.1-.05.15-.13.63-.18,1.27-.13,1.91l.02.09s.02.03.07.08c.13-.17.29-.31.39-.49.3-.47.58-.96.86-1.45.13-.19.24-.4.34-.6.04-.06.06-.12.09-.19l1.11-2.48s.03-.03.06-.05l.5.24c.14.05.27.22.25.35-.02.14-.04.29-.1.41-.39.86-.78,1.71-1.17,2.55-.04.1-.09.19-.15.27-.19.29-.34.61-.47.94-.19.48-.49.91-.86,1.28-.38.38-.84.46-1.33.24ZM69.62,28.56c-.03-.07-.07-.13-.1-.2-.03.02-.06.03-.08.04.05.06.09.13.14.18,0,0,.01,0,.03-.02Z" />
          <path class="cls-34"
            d="M76.56,26.96s.03-.07.04-.12c-.28-.11-.47-.35-.79-.37-.08,0-.15-.09-.22-.13-.11-.07-.21-.16-.31-.24-.05-.04-.07-.09-.1-.14-.04-.1-.06-.2-.1-.3-.23.04-.44.3-.71.06,0-.09-.03-.19-.05-.31.07-.08.14-.16.2-.25v.02c.24-.05.5-.1.69-.3.06-.05.14-.11.17-.18.16-.3.37-.58.61-.83.2-.24.39-.49.51-.78.04-.12.11-.23.18-.32.16-.2.33-.39.5-.57.21-.23.43-.43.66-.64.14-.13.31-.18.5-.12.12.03.24.05.35.08-.04.05-.18-.03-.12.17l.12-.17c.39.09.51.3.44.68-.04.24-.14.44-.27.63-.36.54-.81,1-1.27,1.45-.46.44-.99.77-1.47,1.14-.05.04-.12.08-.16.11.17.62.59.82,1.5.67-.04-.03-.06-.06-.11-.09.24-.11.47-.19.67-.32.21-.11.41-.28.64-.42.11.04.25.09.39.16.27.12.34.42.14.6-.37.37-.81.61-1.32.74l-.42.1c-.3.07-.59,0-.88-.02ZM75.75,25.87c-.01-.1-.01-.16-.02-.22-.09.07-.04.14.02.22h0ZM77.46,23.22l-.07-.13c-.38.36-.68.73-.93,1.14.41-.28.85-.73,1-1.01Z" />
          <path class="cls-17"
            d="M36.94,54.68c-.25.11-.36-.04-.45-.2l-.13.03s-.03-.03-.05-.04c-.04-.1-.1-.21-.13-.32-.06-.31-.24-.54-.52-.69-.57-.3-1.14-.61-1.73-.88-1.03-.47-2.06-.95-3.1-1.37-2.56-1.05-5.14-2.06-7.7-3.08-.68-.27-1.37-.57-2.06-.83-.31-.13-.62-.22-.92-.35-.52-.22-1.02-.48-1.52-.7-.57-.25-1.17-.46-1.74-.7-1.21-.48-2.35-1.06-3.48-1.71-.48-.27-.98-.53-1.4-.91-.16-.16-.33-.32-.47-.5-.34-.43-.37-.8-.06-1.36.22-.43.53-.83.99-1.07.16-.08.33-.14.48-.22.29-.15.59-.3.86-.46.33-.22.68-.44.96-.71.67-.63,1.49-1.06,2.21-1.65.81-.68,1.59-1.38,2.22-2.22.27-.37.5-.76.64-1.21.13-.43.14-.87-.07-1.3-.17-.37-.44-.63-.84-.76-.69-.22-1.39-.25-2.1-.2-1.01.07-1.99.26-2.94.61-.75.27-1.49.58-2.23.87-.21.08-.42.14-.61.22-.87.4-1.61,1-2.32,1.6-.64.55-1.21,1.15-1.68,1.84-.33.49-.55,1.02-.63,1.62-.06.43.15.8.55,1,.16.09.34.15.51.21.19.07.39.09.6.14l.19.32.22.07c.11.2.09.37-.11.57-.11,0-.26.01-.42-.01-.47-.07-.9-.27-1.31-.49-.36-.2-.49-.58-.64-.93-.06-.14-.12-.27-.16-.41-.03-.07-.05-.15-.07-.22-.02-.13-.04-.27-.08-.39-.08-.21-.08-.39-.02-.61.23-.71.57-1.37,1.04-1.94.06-.08.12-.14.17-.21.61-.83,1.33-1.5,2.29-1.93,0-.05,0-.1,0-.19.11-.08.23-.17.36-.25.58-.33,1.15-.66,1.73-.98.1-.05.21-.05.37-.09l-.11.34c-.5.12-.89.45-1.36.66-.05.19-.2.31-.38.42-.29.18-.57.38-.93.62.51,0,.87-.24,1.17-.4.04-.08.05-.14.08-.17.32-.23.65-.47.97-.69.22-.16.47-.29.71-.44l-.04-.18c.31-.18.62-.34.93-.5.05-.04.12-.07.16-.11.24-.25.54-.33.86-.37.33-.04.65-.1,1.01-.16l-.19-.07c.06-.03.08-.07.12-.08l.96-.2s.07-.02.1-.01c.37.15.72-.03,1.07-.08.71-.1,1.39-.03,2.06.18.64.19,1.15.59,1.54,1.11.42.55.56,1.18.33,1.87-.18.51-.45.94-.74,1.38-.18.24-.29.54-.43.81-.11.21-.2.42-.38.59-.46.44-.88.89-1.34,1.32-.2.2-.46.34-.69.51-.18.14-.34.3-.52.43-.19.16-.38.31-.57.44-.83.54-1.68,1.08-2.5,1.63-.34.23-.68.48-1.02.74-.4.32-.31.64.05.9.27.22.55.42.84.58.67.36,1.32.74,2,1.06.92.43,1.86.81,2.79,1.22.21.09.39.22.57.31.31.1.61.18.89.3,1.47.58,2.93,1.16,4.39,1.75,1.13.45,2.25.89,3.36,1.36.77.32,1.53.64,2.25,1.05.64.37,1.33.59,1.99.87.7.3,1.41.6,2.12.92.24.1.48.21.72.3.55.21,1.09.47,1.59.78.27.16.48.36.59.68.09.25.26.46.35.73.08.21.08.39-.08.56ZM7.61,34.77c-.7.5-1.12,1.21-1.43,1.99.23-.34.44-.7.69-1.03.23-.32.5-.63.74-.96ZM11.96,37.65c-.63,1.72-1.18,3.47-1.8,5.19-.29.77-.6,1.52-.89,2.3-.15.41-.26.84-.38,1.27l-.11.3c-.1-.06-.19-.1-.31-.16-.01.05-.03.09-.04.13.17-.05.17.07.17.18-.16.01-.16-.1-.17-.2l-.12.03c.03-.12.06-.23.09-.34l-.18-.24c.21-.68.42-1.35.64-2.03.13-.41.27-.8.41-1.2.09-.26.15-.51.24-.76.03-.08.11-.16.14-.25.08-.26.12-.53.2-.79.1-.35.22-.69.33-1.05l1.83-5.31c.11-.31.21-.63.45-.91.09.07.17.13.28.21-.29.23-.46.5-.52.84-.09.08-.08.19-.03.3,0,.08,0,.16-.03.23-.13.48-.29.96-.42,1.43-.04.14-.11.28.02.45.05-.09.09-.16.17-.29,0,.18-.02.29-.02.39.09-.11.11-.23.17-.33.1-.16-.02-.32.03-.48l.18-.93c.03-.13.07-.27-.01-.4.11-.1.13-.24.09-.39l.37-.62.35.46c-.1.21-.2.36-.27.54-.28.8-.55,1.61-.85,2.41ZM14.49,39.48c.6-.17,1.05-.5,1.54-.88-.26.08-.47.1-.64.21-.3.19-.57.42-.9.67Z" />
          <path class="cls-17"
            d="M21.97,39.83s.03-.07.04-.12c-.28-.11-.47-.35-.79-.37-.08,0-.15-.09-.22-.13-.11-.07-.21-.16-.31-.24-.05-.04-.07-.09-.1-.14-.04-.1-.06-.2-.1-.3-.23.04-.44.3-.71.06,0-.09-.03-.19-.05-.31.07-.08.14-.16.2-.25v.02c.24-.05.5-.1.69-.3.06-.05.14-.11.17-.18.16-.3.37-.58.61-.83.2-.24.39-.49.51-.78.04-.12.11-.23.18-.32.16-.2.33-.39.5-.57.21-.23.43-.43.66-.64.14-.13.31-.18.5-.12.12.03.24.05.35.08-.04.05-.18-.03-.12.17l.12-.17c.39.09.51.3.44.68-.04.24-.14.44-.27.63-.36.54-.81,1-1.27,1.45-.46.44-.99.77-1.47,1.14-.05.04-.12.08-.16.11.17.62.59.82,1.5.67-.04-.03-.06-.06-.11-.09.24-.11.47-.19.67-.32.21-.11.41-.28.64-.42.11.04.25.09.39.16.27.12.34.42.14.6-.37.37-.81.61-1.32.74l-.42.1c-.3.07-.59,0-.88-.02ZM21.16,38.74c-.01-.1-.01-.16-.02-.22-.09.07-.04.14.02.22h0ZM22.87,36.09l-.07-.13c-.38.36-.68.73-.93,1.14.41-.28.85-.73,1-1.01Z" />
          <path class="cls-17"
            d="M28.26,39.33l-.1.11c-.23,0-.26-.18-.3-.34-.11-.51-.35-.98-.72-1.35-.25-.26-.54-.48-.83-.72-.13-.11-.26-.2-.4-.29-.38-.28-.49-.66-.36-1.11,0-.02.03-.04.02-.06-.04-.47.27-.75.57-.99.45-.35.96-.65,1.43-.97.02-.02.06-.01.12-.03-.18.32-.49.48-.69.76.26-.16.53-.33.79-.51.04-.02.06-.06.1-.09.45-.21.56-.63.63-1.07l.09-.17s-.03,0-.03-.02c-.03.02-.06.05-.09.07.03-.18.05-.37.09-.55.31-1.22.63-2.43.95-3.65.03-.12.08-.22.13-.37.1.09.17.15.26.22.04-.07.09-.16.13-.24.2.01.39.09.43.31.03.16,0,.34-.03.48-.13.45-.31.89-.42,1.33-.2.75-.37,1.52-.55,2.28-.02.11-.03.22-.06.35.21-.03.39-.05.57-.05.56-.06,1,.19,1.41.54.03.03.06.09.07.13.01.06,0,.12.02.18.01.06.05.1.09.15-.1.16-.22.23-.39.13-.07-.03-.12-.04-.2,0-.06.03-.17-.03-.23-.09-.16-.16-.34-.18-.55-.1-.34.11-.68.23-1.05.36-.08.62-.16,1.22-.23,1.81-.11,1.04-.2,2.08-.12,3.11.01.1,0,.2-.01.3-.04.25-.18.32-.41.2-.04-.01-.07-.04-.11-.07ZM26.04,36.33c0-.13.02-.27-.14-.37-.12.19.03.27.14.37h0ZM28.1,34.61c-.76.32-1.52.96-1.64,1.38.47.4.96.79,1.45,1.2l.19-2.58Z" />
          <path class="cls-17"
            d="M36.43,32.68c.07.27-.07.62-.36.79-.06-.06-.14-.12-.21-.19-.02,0-.04,0-.06,0-.11.01-.2.16-.33.07-.01,0-.09.05-.13.08-.15.11-.29.23-.44.37-.33.29-.58.64-.82,1h0c-.07.17-.12.36-.22.53-.11.25-.27.48-.4.72-.08.17-.15.35-.18.52-.06.35-.18.68-.28,1.03l-.48-.13c-.09-.17-.2-.35-.3-.55.17-1.47.57-2.91.64-4.41l.41.09c0,.07.03.16.04.25.11,0,.22-.02.37-.03,0,.27,0,.53,0,.81.07-.08.13-.14.17-.21.33-.47.77-.85,1.3-1.09.13-.07.27-.12.4-.14.07-.02.15.01.21.06.1.06.19.17.3.24.04.03.12,0,.19,0,.1.01.15.06.18.17ZM34.09,34.8s-.04-.05-.06-.11c-.27.27-.43.59-.6.91-.04.06-.01.15-.01.32.2-.36.34-.66.5-.95.04-.06.11-.1.17-.17ZM35.76,32.39c-.21-.1-.33,0-.45.05-.47.24-.88.53-1.24.99.59-.37,1.12-.69,1.7-1.04Z" />
          <path class="cls-17"
            d="M37.58,35.42c-.06-.17-.09-.37-.1-.54-.02-.7.08-1.37.39-2,.15-.3.26-.6.43-.89.11-.18.26-.35.42-.49.12-.12.19-.23.23-.39.07-.38.37-.57.68-.68.19-.08.35.06.44.18.16.05.29.05.35.11.12.12.27.27.22.46-.05.21.04.35.12.53.23.42.37.87.43,1.35.06.39-.03.75-.14,1.11-.14.49-.43.94-.81,1.3-.31,0-.6.05-.86.24-.12.09-.24.18-.38.25-.67.39-1.28-.07-1.44-.53ZM38.46,33.35c.16-.2.31-.4.4-.66.06-.17.18-.31.28-.46.1-.15.21-.3.31-.46.08-.13.14-.29.22-.47l-.13-.11c-.15.16-.29.31-.42.47-.36.39-.53.89-.85,1.32-.28.38-.31.88-.4,1.34.11-.38.35-.67.59-.97ZM39.44,35.24c.29-.13.49-.36.62-.65.14-.33.39-.62.45-.99,0-.03.08-.03.14-.05.14-.34,0-.68-.12-1.06-.03.29-.05.55-.06.8,0-.64-.17-1.21-.55-1.79v.24s-.06-.06-.08-.09h-.06c-.36.39-.65.85-.92,1.31-.22.34-.32.72-.44,1.1-.13.38-.16.79.04,1.19.21-.01.4-.04.6-.05,0,.01,0,.02,0,.04l-.52.13c.16.17.3.21.49.11.14-.07.27-.17.43-.23Z" />
          <path class="cls-17"
            d="M69.84,2.6l-.09.15c-.13-.07-.23-.12-.35-.19-.09.07-.2.14-.31.21l-.39-.14c-.39.23-.54.65-.74,1.02l-.4.66c-.11.15-.27.28-.23.49l-.09.15c-.17.26-.38.49-.54.77-.17.31-.32.63-.48.96-.17.26-.28.53-.35.82.11-.16.19-.35.28-.52.03-.07.12-.13.18-.18-.02.12-.03.25-.06.35-.62,2.06-1.44,4.06-2.19,6.07-.8,2.19-1.59,4.38-2.22,6.62-.39,1.4-.74,2.81-1.08,4.21-.16.63-.28,1.25-.43,1.88l-.14-.14-.29,1.2-.51,2.19c-.05.19-.11.37-.01.55.04.1,0,.22,0,.34-.02.19-.03.38,0,.59.07-.34.15-.68.22-1.01.03,0,.04,0,.05.01-.03.25-.07.48-.1.73-.2,1.79-.4,3.57-.61,5.35-.03.28-.08.56-.13.83-.11.43-.29.49-.67.24-.04.04-.09.06-.12.08-.22-.07-.31-.21-.36-.4-.24-1.03-.49-2.04-.73-3.06-.08-.32-.11-.65-.17-.99l.09.05c-.11-.45-.21-.89-.33-1.33-.08-.27-.17-.54-.16-.82,0-.13-.04-.25-.08-.37-.09-.38-.25-.75-.16-1.2-.05,0-.09,0-.12.02-.27-1.32-.55-2.66-.83-4.03-.2.16-.21.35-.28.53l-.08.28-.06-.22c-.06.23-.11.39-.14.55-.09.11-.16.23-.08.37l-.05.22s-.08,0-.09.02c-.06.18-.13.36-.21.59.1-.06.14-.07.18-.09l-.33,1.25-.7,2.95-.08.33s-.08-.02-.12-.03c-.03.08-.07.17-.12.27-.01-.05-.03-.07-.02-.09.15-.65.29-1.31.44-1.96.02-.09.02-.17-.03-.27-.09.27-.2.55-.29.82-.07.23-.11.47-.19.69-.13.34-.07.7-.08,1.05-.01.4-.02.79-.02,1.19.03.07.04.13.06.2-.05.27-.08.56-.13.83-.14.72-.27,1.43-.42,2.14-.03.17-.08.35-.25.47-.06-.05-.13-.08-.22-.13-.05.06-.09.11-.12.17-.03,0-.06-.02-.09-.03-.39.05-.54-.21-.63-.52-.14-.4-.26-.82-.38-1.25-.56-2.18-1.12-4.36-1.66-6.54-.33-1.27-.61-2.57-.93-3.85-.12-.43-.1-.85-.1-1.29,0-.13.09-.25.13-.38.45.01.79.25,1.15.43-.02.06-.03.09-.06.15.04.05.09.12.16.2.07.22-.11.35-.48.32l.1.39c.47,1.91.95,3.81,1.42,5.72.19.76.3,1.54.49,2.3.2.75.44,1.49.67,2.23.03.08.09.15.15.25.14-.8.27-1.54.41-2.29.45-2.38.97-4.75,1.71-7.06.07-.22.15-.42.34-.61.17-.14.21-.41.29-.64.07-.19.12-.38.18-.58t-.01,0s-.02.02-.03.02h-.06s-.01-.03,0-.05c.13-.23.18-.52.52-.62.08.08.21.15.23.23.04.2.2.29.34.36.22.08.32.25.38.44.11.31.22.62.29.94.04.15.03.31.04.47.03.24.03.49.1.71.33.98.48,2.01.7,3.03.06.3.04.62.1.91.13.58.31,1.16.45,1.74.13.52.23,1.03.35,1.54.01.11.04.22.13.32.07-.47.13-.95.19-1.41.17-1.24.31-2.49.51-3.73.25-1.44.55-2.86.83-4.3.06-.32.12-.63.22-.93.22-.67.3-1.38.51-2.04.2-.68.36-1.35.54-2.02.13-.48.29-.96.44-1.43.02-.07.03-.13.07-.19.18-.28.23-.59.32-.89.48-1.66,1.09-3.27,1.72-4.88.51-1.3,1-2.62,1.53-3.92.6-1.49,1.24-2.95,2.01-4.35.27-.52.59-1,.91-1.49.11-.16.28-.31.43-.44.17-.14.37-.18.58-.09.21.1.41.23.64.36l-.09.31c.09.05.19.09.32.17ZM51.32,34.36c-.08-.34-.22-.69-.32-1.04-.06-.19-.11-.37-.15-.56,0,.42.06.82.11,1.22.07.66.26,1.3.39,1.96.01.06.06.11.13.24.05-.2.11-.32.1-.41-.08-.47-.16-.94-.27-1.41ZM51.69,36.7c.18-.12.14-.24.07-.38-.03.13-.04.24-.07.38h0ZM52.4,33.04c-.1.12-.15.24-.18.37l-.34,1.82c-.05.29-.02.54.19.86.04-.2.07-.33.09-.46,0-.22,0-.44.02-.64.07-.59.15-1.19.23-1.77,0-.07,0-.12,0-.18ZM53.95,27.99c-.04.1-.08.19-.11.3.04,0,.07.02.07,0,.07-.09.1-.19.05-.31ZM55.18,23.54l-.23-.17c-.07.07-.12.12-.16.16.11,0,.23,0,.39,0ZM61.7,18.49c-.58,1.97-1.12,3.94-1.59,5.95,0-.15.01-.3.03-.46-.23.58-.35,1.19-.32,1.87.05-.09.07-.11.09-.13.1-.29.21-.58.32-.87.08-.22.23-.44.28-.68.16-.6.29-1.2.43-1.81l.07-.22c.05-.19.11-.36.15-.55.03-.12.04-.25.07-.37.18-.63.4-1.26.46-1.93.03-.27.04-.54,0-.8ZM61.75,18.25c.08-.08.17-.18.1-.36-.04.16-.07.27-.1.36h0ZM62.46,15.95l-.3.92s.04.02.07.03c.16-.35.28-.75.23-.96Z" />
          <path class="cls-17"
            d="M63.59,28.59c-.07.14-.09.31-.16.54.25-.22.44-.41.61-.63.62-.77,1.25-1.53,1.89-2.3l.47-.6c.06-.06.14-.11.21-.18l.28.36c.14-.07.22-.27.43-.19.28.24.25.56.22.89-.02.21-.08.41-.13.61l-.5,2.24c-.02.08-.05.16-.07.26-.14-.1-.08-.24-.08-.36.02-.16.05-.31.08-.47.1-.25.18-.51.2-.78-.12.24-.28.48-.2.78-.14.11-.15.27-.18.43-.04.2-.08.39-.13.63l-.24-.17s-.07.07-.13.12c-.06-.04-.12-.07-.19-.1,0-.23.09-.44-.02-.66-.03-.06.02-.14.03-.22l.29-1.22c0-.07.02-.14.04-.29l-.84.97s-.07.02-.1.04c-.13,0-.15.01-.2.19.04-.02.11-.05.17-.07.1.01.15-.05.18-.13.09-.07.19-.13.34-.23-.41.59-.85,1.06-1.3,1.52-.24.25-.5.46-.76.69-.32.28-.7.31-1.09.26-.19-.03-.3-.15-.34-.36-.09-.42-.05-.83.08-1.21.17-.44.34-.87.55-1.29.45-.87.99-1.69,1.64-2.43.24-.26.52-.47.83-.63.13-.07.23-.19.35-.3.12-.11.25-.22.39-.3.23-.13.44,0,.63.13-.05,0-.1-.01-.18-.02,0,.06,0,.13,0,.21.11-.01.22-.02.32-.03.29.18.43.42.37.77-.23.18-.26.18-.47-.01-.04.04-.09.07-.15.12-.04-.03-.1-.04-.14-.07-.03-.03-.05-.06-.11-.12-.14.11-.28.19-.39.31-.38.39-.77.8-1.13,1.21-.21.21-.39.46-.58.68-.36.41-.55.92-.79,1.41ZM63.21,29.86c.21.02.26-.01.2-.1-.07.04-.13.07-.2.1h0ZM63.59,29.51c.08,0,.13.02.18.02.01-.05.02-.11.06-.22l-.24.2ZM65.03,28.56s.03.02.03.04l.05-.1-.09.06Z" />
          <path class="cls-17"
            d="M69.24,28.4c-.1-.05-.19-.13-.24-.22-.26-.54-.39-1.09-.36-1.69.04-.8.15-1.59.33-2.36.02-.13.11-.25.18-.39.13.16.21.27.32.42.1-.06.17-.12.26-.18.21.12.17.35.21.55.03.21.06.41-.12.58-.03.03-.04.1-.05.15-.13.63-.18,1.27-.13,1.91l.02.09s.02.03.07.08c.13-.17.29-.31.39-.48.3-.47.58-.96.86-1.45.13-.19.24-.4.34-.6.04-.06.06-.12.09-.19l1.11-2.48s.03-.03.06-.05l.5.24c.14.05.27.22.25.35-.02.14-.04.29-.1.41-.39.86-.78,1.71-1.17,2.55-.04.1-.09.19-.15.27-.19.29-.34.61-.47.94-.19.49-.49.91-.86,1.28-.38.38-.84.46-1.33.24ZM69.19,28.13c-.03-.07-.07-.13-.1-.2-.03.02-.06.03-.08.04.05.06.09.13.14.18,0,0,.01,0,.03-.02Z" />
          <path class="cls-17"
            d="M76.12,26.52s.03-.07.04-.12c-.28-.11-.47-.35-.79-.37-.08,0-.15-.09-.22-.13-.11-.07-.21-.16-.31-.24-.05-.04-.07-.09-.1-.14-.04-.1-.06-.2-.1-.3-.23.04-.44.3-.71.06,0-.09-.03-.19-.05-.31.07-.08.14-.16.2-.25v.02c.24-.05.5-.1.69-.3.06-.05.14-.11.17-.18.16-.3.37-.58.61-.83.2-.24.39-.48.51-.78.04-.12.11-.23.18-.32.16-.2.33-.39.5-.57.21-.23.43-.43.66-.64.14-.13.31-.18.5-.12.12.03.24.05.35.08-.04.05-.18-.03-.12.17l.12-.17c.39.09.51.3.44.68-.04.24-.14.44-.27.63-.36.54-.81,1-1.27,1.45-.46.44-.99.77-1.47,1.14-.05.04-.12.08-.16.11.17.62.59.82,1.5.67-.04-.03-.06-.06-.11-.09.24-.11.47-.19.67-.32.21-.11.41-.28.64-.42.11.04.25.09.39.16.27.12.34.42.14.6-.37.37-.81.61-1.32.74l-.42.1c-.3.07-.59,0-.88-.02ZM75.32,25.43c-.01-.1-.01-.16-.02-.22-.09.07-.04.14.02.22h0ZM77.03,22.78l-.07-.13c-.38.36-.68.73-.93,1.14.41-.28.85-.73,1-1.01Z" />
          <g class="cls-9">
            <path class="cls-15"
              d="M51.92,36.42c-.03.12-.04.22-.06.34.01-.01.02-.03.03-.05.01,0,.02.01.03.02.09-.1.06-.2,0-.32Z" />
            <path class="cls-15"
              d="M52.55,33.33c0-.07,0-.12,0-.18-.1.12-.15.24-.18.37l-.1.54c-.04.31-.08.62-.11.93-.02.21,0,.43-.02.64-.01.09-.03.19-.06.31.03.08.08.17.13.26.04-.2.07-.33.09-.46,0-.22,0-.44.02-.64.07-.59.15-1.19.23-1.77Z" />
            <path class="cls-15"
              d="M40.51,32.57c-.09-.33-.24-.64-.45-.96v.18c.27.48.39.97.39,1.51.01-.23.03-.46.06-.73Z" />
            <path class="cls-15"
              d="M29.99,32.67c-.13,0-.25.02-.39.03,0,.04-.01.08-.02.13.21-.03.39-.05.57-.05.37-.04.68.06.97.23-.34-.23-.7-.38-1.14-.33Z" />
            <path class="cls-15"
              d="M38.84,32.96c.25-.42.52-.84.84-1.2.05-.1.1-.22.16-.35l-.13-.11s-.05.05-.07.08c-.07.15-.12.28-.19.39-.1.16-.21.31-.31.46-.1.15-.22.29-.28.46-.09.26-.24.46-.4.66-.1.13-.21.26-.3.39-.05.23-.08.46-.12.69.1-.35.31-.63.53-.9.07-.2.16-.39.27-.57Z" />
            <path class="cls-15"
              d="M51.56,34.8s-.01-.02-.02-.03c-.17-.55-.36-1.11-.52-1.68,0,.14.02.29.04.43.09.29.19.57.26.85.12.47.19.94.27,1.41,0,.08-.02.16-.06.29.02.05.07.11.13.23.05-.2.11-.32.1-.41-.06-.36-.12-.71-.19-1.07Z" />
            <path class="cls-15"
              d="M55.78,23.88s.02,0,.03.01c-.05-.05-.12-.09-.2-.12-.01,0-.03-.01-.04-.02.06.06.14.09.21.13Z" />
            <path class="cls-15"
              d="M51.86,35.12c.14-.8.27-1.54.41-2.29.45-2.38.97-4.75,1.71-7.06.07-.22.15-.42.34-.61.17-.14.21-.41.29-.64.07-.19.12-.38.18-.58t-.01,0s-.02.02-.03.02h-.06s-.01-.03,0-.05c.07-.12.12-.26.19-.37-.03,0-.06,0-.09,0,.04-.05.09-.1.16-.16l.04.03c.05-.04.11-.08.19-.1-.05-.04-.1-.07-.14-.11-.34.1-.39.39-.52.62,0,.01,0,.04,0,.06h.06s.02-.03.03-.04t.01,0c-.06.2-.12.39-.18.58-.08.22-.13.49-.29.64-.19.18-.27.39-.34.61-.73,2.31-1.25,4.68-1.71,7.06-.13.71-.26,1.41-.39,2.16.03.07.08.14.14.23Z" />
            <path class="cls-15" d="M54,28.4s.03,0,.04,0l.04-.15.04-.15s0,0,0-.01c-.04.1-.08.2-.11.3Z" />
            <path class="cls-15"
              d="M55.35,23.65l-.23-.17s0,0,0,0l.07.05s-.09,0-.13,0c-.04.04-.07.07-.09.1.11,0,.23,0,.39,0Z" />
            <path class="cls-15"
              d="M36.07,52.72c-.5-.31-1.04-.57-1.59-.78-.25-.09-.49-.19-.72-.3-.7-.32-1.42-.62-2.12-.92-.66-.29-1.35-.51-1.99-.87-.71-.41-1.48-.73-2.25-1.05-1.12-.48-2.24-.91-3.36-1.36-1.46-.59-2.92-1.17-4.39-1.75-.28-.12-.57-.2-.89-.3-.17-.1-.36-.23-.57-.31-.93-.41-1.87-.79-2.79-1.22-.68-.32-1.34-.7-2-1.06-.06-.04-.13-.08-.19-.12.12.08.24.15.36.22.67.36,1.32.74,2,1.06.92.43,1.86.81,2.79,1.22.21.09.39.22.57.31.31.1.61.18.89.3,1.47.58,2.93,1.16,4.39,1.75,1.13.45,2.25.89,3.36,1.36.77.32,1.53.64,2.25,1.05.64.37,1.33.59,1.99.87.7.3,1.41.6,2.12.92.24.1.48.21.72.3.54.21,1.06.46,1.55.76-.04-.03-.08-.06-.12-.08Z" />
            <path class="cls-15"
              d="M23.03,39.18s-.06-.06-.11-.09c.24-.11.47-.19.67-.32.21-.11.41-.28.64-.42.1.03.23.08.36.14-.04-.04-.08-.07-.14-.09-.14-.07-.28-.12-.39-.16-.23.14-.43.31-.64.42-.21.13-.44.21-.67.32.04.03.06.06.11.09-.47.08-.81.06-1.05-.05.24.21.63.25,1.21.16Z" />
            <path class="cls-15"
              d="M22.18,39.81c-.06-.02-.12-.05-.17-.08-.01.04-.03.07-.04.1.07,0,.13.01.2.02,0-.01,0-.03.01-.04Z" />
            <path class="cls-15"
              d="M23.04,36.2l-.07-.13c-.09.08-.17.17-.25.25-.06.08-.14.17-.23.25-.17.2-.32.41-.46.64.41-.28.85-.73,1-1.01Z" />
            <path class="cls-15" d="M21.32,38.85c-.01-.1-.01-.16-.02-.22-.09.07-.04.14.02.22Z" />
            <path class="cls-15"
              d="M39.17,35.58c.15-.07.27-.17.43-.23.29-.13.49-.36.62-.65.14-.33.39-.62.45-.99,0-.03.08-.03.14-.05.14-.34,0-.68-.12-1.06-.01.12-.02.22-.03.33.06.22.08.42-.01.62-.06.01-.13.02-.14.05-.06.37-.3.65-.45.99-.13.3-.32.52-.62.65-.16.06-.29.16-.43.23-.1.06-.19.07-.28.05.14.13.28.16.44.06Z" />
            <path class="cls-15" d="M28.26,34.71c-.06.03-.12.05-.18.08l-.18,2.36c.05.04.11.09.16.13l.19-2.58Z" />
            <path class="cls-15"
              d="M40.24,30.71c.09.03.17.04.24.06-.02-.02-.03-.04-.05-.05-.05-.05-.15-.06-.26-.09.03.03.05.06.07.08Z" />
            <path class="cls-15"
              d="M58.2,33.68c.01.11.04.22.13.32.07-.47.13-.95.19-1.41.17-1.24.31-2.49.51-3.73.25-1.44.55-2.86.83-4.3.06-.32.12-.63.22-.93.22-.67.3-1.38.51-2.04.2-.68.36-1.35.54-2.02.13-.48.29-.96.44-1.43.02-.07.03-.13.07-.19.18-.28.23-.59.32-.89.48-1.66,1.09-3.27,1.72-4.88.51-1.3,1-2.62,1.53-3.92.6-1.49,1.24-2.95,2.01-4.35.27-.52.59-1,.91-1.49.11-.16.28-.31.43-.44.17-.14.37-.18.58-.09.16.07.31.16.47.26h0c-.23-.14-.43-.27-.64-.37-.21-.09-.41-.05-.58.09-.15.14-.32.28-.43.44-.32.49-.64.97-.91,1.49-.77,1.4-1.41,2.86-2.01,4.35-.53,1.29-1.02,2.62-1.53,3.92-.63,1.61-1.24,3.22-1.72,4.88-.09.3-.14.61-.32.89-.04.06-.04.12-.07.19-.15.47-.3.95-.44,1.43-.18.67-.34,1.35-.54,2.02-.21.66-.29,1.37-.51,2.04-.1.3-.16.62-.22.93-.29,1.43-.59,2.86-.83,4.3-.2,1.24-.34,2.49-.51,3.73-.05.39-.1.79-.16,1.19,0,0,0,0,0,.01Z" />
            <path class="cls-15"
              d="M15.72,38.84c-.2.15-.4.28-.61.39-.14.11-.29.23-.45.36.6-.17,1.05-.5,1.54-.88-.18.05-.34.08-.47.13Z" />
            <path class="cls-15"
              d="M20.76,38.94c-.04-.1-.06-.2-.1-.3-.04,0-.08.02-.12.04.02.05.03.1.05.16.02.04.05.1.1.14.09.08.2.16.31.24.07.04.13.11.2.13-.01,0-.02-.02-.03-.02-.11-.07-.21-.16-.31-.24-.05-.04-.07-.09-.1-.14Z" />
            <path class="cls-15" d="M39.04,35.24s0-.03,0-.04c-.16,0-.32.03-.49.04.01.04.03.07.05.11l.44-.11Z" />
            <path class="cls-15" d="M62.63,16.05l-.3.92s.04.02.07.03c.16-.35.28-.75.23-.96Z" />
            <path class="cls-15" d="M61.92,18.35h0c.08-.08.17-.18.1-.36-.04.16-.07.27-.1.36Z" />
            <path class="cls-15"
              d="M59.69,29.67s-.03,0-.05-.01c-.01.07-.03.14-.05.21.02.1,0,.21,0,.31-.01.13-.02.26-.02.4,0-.06.01-.12.02-.18.03-.24.07-.48.1-.73Z" />
            <path class="cls-15" d="M67.04,25.16s-.01,0-.02.01c.02.01.04.02.06.02-.01-.01-.03-.02-.04-.04Z" />
            <path class="cls-15"
              d="M66.82,24.42c.1-.01.21-.02.3-.03-.04-.04-.09-.07-.15-.11-.05,0-.1,0-.16.01,0,.04,0,.08,0,.12Z" />
            <path class="cls-15"
              d="M61.71,19.29c-.06.67-.28,1.3-.46,1.93-.03.12-.04.25-.07.37-.04.19-.1.36-.15.55l-.07.22c-.14.61-.27,1.2-.43,1.81-.05.24-.2.46-.28.68-.09.22-.17.44-.25.66,0,.14,0,.29,0,.44.05-.09.07-.11.09-.13.1-.29.21-.58.32-.87.08-.22.23-.44.28-.68.16-.6.29-1.2.43-1.81l.07-.22c.05-.19.11-.36.15-.55.03-.12.04-.25.07-.37.18-.63.4-1.26.46-1.93.03-.27.04-.54,0-.8-.05.15-.09.31-.13.46,0,.08-.01.16-.02.23Z" />
            <path class="cls-15"
              d="M77.19,25.87s-.06-.06-.11-.09c.24-.11.47-.19.67-.32.21-.11.41-.28.64-.42.1.03.23.08.36.14-.04-.04-.08-.07-.14-.09-.14-.07-.28-.12-.39-.16-.23.14-.43.31-.64.42-.21.13-.44.21-.67.32.04.03.06.06.11.09-.47.08-.81.06-1.05-.05.24.21.63.25,1.21.16Z" />
            <path class="cls-15" d="M75.48,25.54c-.01-.1-.01-.16-.02-.22-.09.07-.04.14.02.22Z" />
            <path class="cls-15"
              d="M69.35,28.23c-.03-.07-.07-.13-.1-.2-.03.02-.06.03-.08.04.05.06.09.13.14.18,0,0,.01,0,.03-.02Z" />
            <path class="cls-15"
              d="M66.34,6.88c-.14.23-.23.48-.29.73.08-.13.15-.26.22-.4,0-.02.01-.04.02-.06.03-.09.04-.18.05-.28Z" />
            <path class="cls-15" d="M69.69,2.54s.09.05.15.08h0c-.06-.04-.1-.07-.15-.09v.02Z" />
            <path class="cls-15"
              d="M67.39,25.67s-.05-.06-.09-.09c-.18-.06-.26.07-.37.16l.11.14c.12-.06.2-.22.35-.21Z" />
            <path class="cls-15"
              d="M69.72,23.99c-.07.05-.13.09-.2.14.03.05.07.09.11.14.08-.05.15-.1.22-.15-.03-.05-.07-.1-.13-.13Z" />
            <path class="cls-15"
              d="M69.79,27.27s0,0,0,.01l.02.09s.02.03.07.08c.13-.17.29-.31.39-.48.3-.47.58-.96.86-1.45.13-.19.24-.4.34-.6.04-.06.06-.12.09-.19l1.11-2.48s.03-.03.06-.05l.47.23s-.09-.07-.14-.09l-.5-.24s-.05.04-.06.05l-1.11,2.48c-.03.07-.06.13-.09.19-.1.2-.21.4-.34.6-.28.49-.56.98-.86,1.45-.09.15-.21.27-.32.4Z" />
            <path class="cls-15"
              d="M66.71,25.57l-.11-.15c-.07.07-.15.11-.21.18l-.47.6c-.64.77-1.26,1.54-1.89,2.3-.11.14-.22.26-.36.39-.03.1-.05.21-.09.34.25-.22.44-.41.61-.63.62-.77,1.25-1.53,1.89-2.3l.47-.6s.1-.09.16-.13Z" />
            <path class="cls-15" d="M65.23,28.71l.05-.1-.09.06s.03.02.03.04Z" />
            <path class="cls-15" d="M63.57,29.86c-.07.04-.13.07-.2.1h0c.21.02.26-.01.2-.1Z" />
            <path class="cls-15"
              d="M65.51,28.39c-.13,0-.15.01-.2.19.04-.02.11-.05.17-.07,0,0,0,0,0,0,.04-.05.08-.1.12-.16-.03,0-.07.02-.1.04Z" />
            <path class="cls-15" d="M63.99,29.42l-.24.2c.08,0,.13.02.18.02.01-.05.02-.11.06-.22Z" />
            <path class="cls-15" d="M66.61,25.12s.06.03.1.04c-.02-.02-.03-.04-.06-.07-.01.01-.03.02-.04.03Z" />
            <path class="cls-15"
              d="M77.19,22.89l-.07-.13c-.09.08-.17.17-.25.25-.06.08-.14.17-.23.25-.17.2-.32.41-.46.64.41-.28.85-.73,1-1.01Z" />
            <path class="cls-15" d="M36.65,54.58l-.08.02c.04.06.1.1.17.11-.03-.04-.06-.08-.09-.13Z" />
            <path class="cls-15"
              d="M37.75,35.53c-.06-.17-.09-.37-.1-.54-.02-.7.08-1.37.39-2,.15-.3.26-.6.43-.89.11-.18.26-.35.42-.49.12-.12.19-.23.23-.39.07-.38.37-.57.68-.68.07-.03.14-.03.21,0-.09-.09-.22-.16-.37-.1-.31.11-.61.3-.68.68-.04.16-.11.28-.23.39-.15.14-.31.31-.42.49-.17.29-.28.59-.43.89-.31.63-.41,1.3-.39,2,0,.17.04.37.1.54.08.22.26.45.51.57-.16-.13-.28-.3-.34-.47Z" />
            <path class="cls-15"
              d="M51.22,36.45c-.14-.4-.26-.82-.38-1.25-.56-2.18-1.12-4.36-1.66-6.54-.33-1.27-.61-2.57-.93-3.85-.12-.43-.1-.85-.1-1.29,0-.13.09-.25.13-.38.38.01.68.18.98.34,0,0,0,0,0-.01-.36-.19-.69-.42-1.15-.43-.04.14-.12.26-.13.38,0,.44-.01.86.1,1.29.33,1.28.61,2.58.93,3.85.54,2.18,1.1,4.36,1.66,6.54.12.42.24.84.38,1.25.07.23.16.43.36.5-.09-.1-.15-.24-.2-.39Z" />
            <path class="cls-15"
              d="M53.63,29.83c.02-.09.02-.17-.03-.27-.09.27-.2.55-.29.82-.09.41-.18.82-.28,1.23,0,.05,0,.1,0,.15,0,0,0,.01,0,.02.05-.1.09-.19.12-.27.03,0,.05.02.08.02.13-.57.25-1.14.39-1.71Z" />
            <path class="cls-15"
              d="M57.87,36.6c-.24-1.03-.49-2.04-.73-3.06-.08-.32-.11-.65-.17-.99l.09.05c-.11-.45-.21-.89-.33-1.33-.08-.27-.17-.54-.16-.82,0-.13-.04-.25-.08-.37-.09-.38-.25-.75-.16-1.2-.05,0-.09,0-.12.02-.27-1.32-.55-2.66-.83-4.03-.05.04-.09.08-.12.13.26,1.29.52,2.55.78,3.8.04,0,.07-.02.12-.02-.09.45.06.82.16,1.2.04.12.08.24.08.37,0,.29.09.55.16.82.12.45.22.89.33,1.33l-.09-.05c.06.34.09.67.17.99.24,1.02.49,2.03.73,3.06.04.17.13.3.31.38-.07-.07-.12-.17-.15-.28Z" />
            <path class="cls-15"
              d="M8.58,46.77l-.12.03s.02-.09.04-.14c-.02,0-.05,0-.08.01.02-.04.03-.08.04-.13.02.01.04.02.06.03,0-.04.02-.07.03-.11l-.18-.24c.21-.68.42-1.35.64-2.03.13-.41.27-.8.41-1.2.09-.26.15-.51.24-.76.03-.08.11-.16.14-.25.08-.26.12-.53.2-.79.1-.35.22-.69.33-1.05l1.83-5.31c.11-.31.21-.62.44-.9-.05-.04-.1-.08-.15-.12-.24.28-.34.6-.45.91l-1.83,5.31c-.11.35-.23.7-.33,1.05-.07.26-.12.53-.2.79-.03.08-.11.16-.14.25-.09.25-.15.5-.24.76-.14.4-.28.79-.41,1.2-.22.68-.43,1.36-.64,2.03l.18.24c-.04.11-.06.22-.09.34l.12-.03c.01.1.01.21.17.2,0,0,0-.02,0-.02,0-.02,0-.04,0-.06Z" />
            <path class="cls-15"
              d="M6.19,39.04c-.06-.14-.12-.27-.16-.41-.03-.07-.05-.15-.07-.22-.02-.13-.04-.27-.08-.39-.08-.21-.08-.39-.02-.61.23-.71.57-1.37,1.04-1.94.06-.08.12-.14.17-.21.61-.83,1.33-1.5,2.29-1.93,0-.05,0-.1,0-.19.11-.08.23-.17.36-.25.58-.33,1.15-.66,1.73-.98.05-.02.1-.04.16-.05l.05-.15c-.15.04-.27.04-.37.09-.57.32-1.14.64-1.73.98-.13.08-.26.18-.36.25,0,.09,0,.14,0,.19-.96.42-1.68,1.1-2.29,1.93-.06.06-.12.13-.17.21-.47.58-.81,1.24-1.04,1.94-.06.22-.05.4.02.61.04.13.06.26.08.39.02.07.04.15.07.22.05.14.1.27.16.41.15.35.28.73.64.93.01,0,.02.01.03.02-.27-.21-.38-.54-.51-.85Z" />
            <path class="cls-15" d="M8.41,39.77l.04.06.08.03s-.02-.04-.03-.06l-.09-.03Z" />
            <path class="cls-15"
              d="M36.35,54.26c-.06-.31-.25-.54-.52-.69,0,0,0,0,0,0,.18.14.31.34.36.58.03.11.09.22.13.32.01,0,.03.02.05.04l.08-.02c-.03-.08-.07-.16-.09-.23Z" />
            <path class="cls-15"
              d="M12.17,43.05c-.16-.16-.33-.32-.47-.5-.34-.43-.37-.8-.06-1.36.22-.43.53-.83.99-1.07.16-.08.33-.14.48-.22.29-.15.59-.3.86-.46.33-.22.68-.44.96-.71.67-.63,1.49-1.06,2.21-1.65.81-.68,1.59-1.38,2.22-2.22.27-.37.5-.76.64-1.21.13-.43.14-.87-.07-1.3-.13-.29-.32-.51-.59-.65.18.14.32.32.42.55.2.43.2.86.07,1.3-.14.45-.37.84-.64,1.21-.63.84-1.41,1.55-2.22,2.22-.72.59-1.54,1.02-2.21,1.65-.28.27-.63.49-.96.71-.27.17-.57.32-.86.46-.16.08-.33.14-.48.22-.46.24-.77.64-.99,1.07-.31.56-.28.93.06,1.36.14.18.31.34.47.5.2.18.42.33.65.47-.17-.11-.33-.23-.48-.37Z" />
            <path class="cls-15"
              d="M62.52,30.25c-.09-.42-.05-.83.08-1.21.17-.44.34-.87.55-1.29.45-.87.99-1.69,1.64-2.43.24-.26.52-.47.83-.63.13-.07.23-.19.35-.3.12-.11.25-.22.39-.3.17-.09.32-.06.47.02-.2-.14-.4-.26-.63-.13-.14.07-.27.19-.39.3-.12.11-.22.23-.35.3-.31.16-.6.37-.83.63-.66.74-1.19,1.56-1.64,2.43-.21.41-.38.84-.55,1.29-.13.38-.17.79-.08,1.21.03.18.12.29.27.34-.05-.06-.08-.14-.1-.23Z" />
            <path class="cls-15"
              d="M74.05,25.07c.07-.08.14-.16.2-.25v.02c.24-.05.5-.1.69-.3.06-.05.14-.11.17-.18.16-.3.37-.58.61-.83.2-.24.39-.49.51-.78.04-.12.11-.23.18-.32.16-.2.33-.39.5-.57.21-.23.43-.43.66-.64.14-.13.31-.18.5-.12.02,0,.04.01.06.01.03-.03.1-.01.12-.04-.11-.02-.22-.04-.35-.08-.19-.05-.35-.01-.5.12-.22.21-.45.41-.66.64-.17.18-.33.37-.5.57-.08.09-.14.2-.18.32-.12.29-.31.54-.51.78-.24.25-.45.52-.61.83-.03.07-.11.13-.17.18-.19.2-.45.25-.7.3v-.02c-.06.09-.12.17-.19.25.02.12.04.23.05.31.06.05.11.08.16.09,0-.08-.03-.18-.05-.3Z" />
            <path class="cls-15" d="M78.3,21.35l.12-.17s-.18-.03-.12.17Z" />
            <path class="cls-15"
              d="M78.42,21.18c.06.02.12.03.17.06-.08-.07-.18-.13-.33-.16l-.04.06c.07.02.14.03.21.04Z" />
            <path class="cls-15"
              d="M76.33,26.5c-.06-.02-.12-.05-.17-.08-.01.04-.03.07-.04.1.07,0,.13.01.2.02,0-.01,0-.03.01-.04Z" />
            <path class="cls-15"
              d="M75.32,26c-.11-.07-.21-.16-.31-.24-.05-.04-.07-.1-.1-.14-.04-.1-.06-.2-.1-.3-.04,0-.08.02-.12.04.02.05.03.1.05.16.02.04.05.1.1.14.09.08.2.16.31.24.07.04.13.11.2.13-.01,0-.02-.02-.03-.02Z" />
            <path class="cls-15" d="M67.16,28.14c-.11.22-.24.44-.16.71,0-.01,0-.02.01-.03l.15-.67Z" />
            <path class="cls-15"
              d="M66.12,29.75c0-.22.09-.43-.02-.64-.03-.06.02-.14.03-.22l.29-1.22c0-.07.02-.14.04-.29l-.23.26-.27,1.14c-.02.08-.06.17-.03.22.12.22.03.43.02.66.06.03.11.06.17.09Z" />
            <polygon class="cls-15" points="66.44 29.75 66.43 29.75 66.51 29.81 66.52 29.8 66.44 29.75" />
            <path class="cls-15"
              d="M69.17,28.29c-.04-.09-.08-.19-.12-.28-.01-.01-.02-.03-.03-.04,0,0,0,0,.01,0-.16-.43-.25-.88-.22-1.36.04-.8.15-1.59.33-2.36.01-.11.08-.21.15-.33-.04-.05-.08-.11-.13-.17-.07.14-.16.26-.18.39-.19.77-.29,1.56-.33,2.36-.03.6.11,1.15.36,1.69.05.09.14.17.24.22,0,0,.01,0,.02,0-.04-.04-.07-.08-.1-.12Z" />
            <path class="cls-15"
              d="M66.95,29.06c.01-.07.03-.14.04-.21-.14.11-.15.27-.18.43-.02.08-.03.15-.05.23.01.02.03.04.05.06.03-.1.06-.18.07-.26l.06-.26Z" />
            <path class="cls-15"
              d="M33.48,32.97c.07,0,.13,0,.21-.01,0-.04,0-.08,0-.12-.08,0-.15.01-.22.02,0,.04.01.07.02.11Z" />
            <path class="cls-15"
              d="M7.66,39.38c.16.05.31.08.48.12l-.05-.08c-.21-.05-.41-.08-.6-.14-.18-.06-.36-.12-.51-.21,0,0-.01,0-.02-.01.06.04.12.08.19.12.16.09.34.15.51.21Z" />
            <path class="cls-15"
              d="M32.64,37.52c-.08-.15-.17-.31-.26-.48.17-1.47.57-2.91.64-4.41l.25.05s0-.05,0-.07l-.41-.09c-.07,1.51-.48,2.95-.64,4.41.1.2.21.39.3.55l.12.03Z" />
            <path class="cls-15"
              d="M33.84,33.75c.07-.08.13-.14.17-.21.04-.06.09-.12.13-.18-.03.02-.06.04-.09.06.36-.46.78-.75,1.24-.99.09-.04.17-.1.29-.09.04-.01.08-.02.12-.03.04-.01.09,0,.13.01-.03-.02-.05-.04-.08-.06-.06-.05-.14-.08-.21-.06-.13.02-.27.07-.4.14-.53.24-.96.62-1.3,1.09,0,0,0,0,0,0,0,.1,0,.2,0,.3Z" />
            <path class="cls-15"
              d="M27.8,33.83s-.05.03-.08.05c-.18.2-.4.35-.55.56.26-.16.53-.33.79-.51.04-.02.06-.06.1-.09.45-.21.56-.63.63-1.07l.09-.17s-.03,0-.03-.02c-.03.02-.06.05-.09.07.03-.18.05-.37.09-.55.31-1.22.63-2.43.95-3.65.03-.11.08-.21.12-.34-.05-.04-.1-.08-.15-.13-.05.15-.1.25-.13.37-.33,1.22-.64,2.44-.95,3.65-.04.17-.06.37-.09.55.03-.02.06-.05.09-.07,0,.01.01,0,.03.02l-.09.17c-.07.44-.18.86-.63,1.07-.04.02-.06.07-.1.09Z" />
            <path class="cls-15"
              d="M30.1,28.32c.04-.07.09-.16.13-.24.06,0,.13.01.18.03-.08-.09-.21-.13-.35-.14-.04.08-.07.15-.11.22.05.04.1.08.15.13Z" />
            <path class="cls-15"
              d="M35.98,33.39s.06.05.09.08c0,0,.02-.01.02-.02-.02-.02-.05-.04-.07-.06-.02,0-.03,0-.05,0Z" />
            <path class="cls-15"
              d="M33.57,35.89c.1-.18.22-.36.3-.55.06-.12.11-.24.15-.36-.18.23-.3.48-.44.72-.02.04-.02.1-.02.18Z" />
            <path class="cls-15"
              d="M35.62,32.47c-.3.18-.58.36-.87.53-.18.15-.35.32-.52.53.59-.37,1.12-.69,1.7-1.04-.13-.06-.22-.05-.31-.02Z" />
            <path class="cls-15"
              d="M25.92,36.73c.14.09.27.18.4.29.28.24.58.46.83.72.37.37.61.84.72,1.35.04.15.06.3.24.34-.04-.06-.06-.15-.08-.23-.11-.51-.35-.98-.72-1.35-.25-.26-.54-.48-.83-.72-.13-.11-.26-.2-.4-.29-.38-.28-.49-.66-.36-1.11,0-.02.03-.04.02-.06-.04-.47.27-.75.57-.99.34-.26.71-.5,1.07-.73.11-.11.23-.22.31-.37-.06.01-.1.01-.12.03-.47.32-.98.62-1.43.97-.3.24-.61.52-.57.99,0,.01-.01.04-.02.06-.13.46-.02.83.36,1.11Z" />
            <path class="cls-15"
              d="M36.23,32.62s.12,0,.18,0c-.03-.06-.08-.1-.16-.11-.05,0-.1,0-.14,0,.04.03.08.07.12.1Z" />
            <path class="cls-15" d="M30.89,33.81c-.05-.05-.1-.08-.16-.1,0,0,0,0,.01.01.04.04.09.07.14.09Z" />
            <path class="cls-15" d="M11.9,36.99s-.05.09-.07.12c-.01.08,0,.16.06.25,0-.1,0-.21.02-.38Z" />
            <path class="cls-15"
              d="M12.64,34.36l-.21.35c-.03.07-.05.15-.07.23,0,.09-.01.17-.07.24,0,.03.02.06.03.09,0,.08,0,.16-.03.23,0,.02-.01.05-.02.07,0,.02,0,.03-.01.05l-.18.93c-.05.16.07.32-.03.48-.06.1-.08.22-.16.32,0,0,0,0,0,.01.05-.09.09-.16.17-.29,0,.13-.01.23-.01.31.07-.18.13-.36.19-.55,0-.06-.01-.12,0-.19l.18-.93c.03-.13.07-.27-.01-.4.11-.1.13-.24.09-.39l.34-.56-.11-.14s-.07.07-.1.11Z" />
            <polygon class="cls-15" points="8.59 46.78 8.58 46.79 8.59 46.78 8.59 46.78" />
            <path class="cls-15" d="M7.77,34.88c-.7.5-1.12,1.21-1.43,1.99.23-.34.44-.7.69-1.03.23-.32.5-.63.74-.96Z" />
            <path class="cls-15"
              d="M20.63,37.75c-.19.2-.45.25-.7.3v-.02c-.06.09-.12.17-.19.25.02.12.04.23.05.31.06.05.11.08.16.09,0-.08-.03-.18-.05-.3.07-.08.14-.16.2-.25v.02c.24-.05.5-.1.69-.3.06-.05.14-.11.17-.18.16-.3.37-.58.61-.83.2-.24.39-.49.51-.78.04-.12.11-.23.18-.32.16-.2.33-.39.5-.57.21-.23.43-.43.66-.64.14-.13.31-.18.5-.12.02,0,.04.01.06.01.03-.03.1-.01.12-.04-.11-.02-.22-.04-.35-.08-.19-.05-.35-.01-.5.12-.22.21-.45.41-.66.64-.17.18-.33.37-.5.57-.08.09-.14.2-.18.32-.12.29-.31.54-.51.78-.24.25-.45.52-.61.83-.03.07-.11.13-.17.18Z" />
            <path class="cls-15" d="M24.14,34.66l.12-.17s-.18-.03-.12.17Z" />
            <path class="cls-15"
              d="M11.76,31.96l.02.1s-.04.03-.07.04l-.02.06c-.06.01-.12.03-.18.05-.15.09-.3.18-.44.28-.32.22-.65.46-.97.69-.03.03-.04.09-.08.17-.21.12-.46.27-.77.35-.07.05-.15.1-.23.16.51,0,.87-.24,1.17-.4.04-.08.05-.14.08-.17.32-.23.65-.47.97-.69.22-.16.47-.29.71-.44l-.04-.18c.31-.18.62-.34.93-.5.05-.04.12-.07.16-.11.24-.25.54-.33.86-.37.33-.04.65-.1,1.01-.16l-.19-.07c.06-.03.08-.07.12-.08l.96-.2s.07-.02.1-.01c.37.15.72-.03,1.07-.08.71-.1,1.39-.03,2.06.18.22.07.43.16.62.28-.24-.16-.5-.29-.79-.38-.67-.21-1.35-.28-2.06-.18-.35.05-.7.22-1.07.08-.03,0-.06,0-.1.01l-.96.2s-.06.05-.12.08l.19.07c-.36.06-.68.12-1.01.16-.32.04-.62.13-.86.37-.04.05-.11.08-.16.11-.29.15-.58.31-.87.47l-.03.11Z" />
            <path class="cls-15"
              d="M24.26,34.49c.06.02.12.03.17.06-.08-.07-.18-.13-.33-.16l-.04.06c.07.02.14.03.21.04Z" />
            <path class="cls-15"
              d="M26.07,36.07s-.02.05-.03.07c.01.05.01.09,0,.14.03.06.1.11.16.16h0c0-.13.02-.27-.14-.37Z" />
          </g>
        </g>
      </g>
    </g>
  </g>
</svg>