<?xml version="1.0" encoding="UTF-8"?><svg id="Capa_2" xmlns="http://www.w3.org/2000/svg" xmlns:xlink="http://www.w3.org/1999/xlink" viewBox="0 0 211.28 160.37"><defs><style>.cls-1{fill:url(#linear-gradient-15);}.cls-2{fill:url(#linear-gradient-13);}.cls-3{fill:url(#linear-gradient-2);}.cls-4{fill:url(#linear-gradient-10);}.cls-5{fill:url(#linear-gradient-12);}.cls-6{fill:url(#linear-gradient-4);}.cls-7{fill:url(#linear-gradient-3);}.cls-8{filter:url(#drop-shadow-1);}.cls-9{fill:url(#linear-gradient-5);}.cls-10{fill:url(#linear-gradient-22);}.cls-11{fill:url(#linear-gradient-8);}.cls-12{fill:url(#linear-gradient-14);}.cls-13{fill:url(#linear-gradient-20);}.cls-14{fill:url(#linear-gradient-17);}.cls-15{fill:url(#linear-gradient-7);}.cls-16{fill:url(#linear-gradient-9);}.cls-17{fill:url(#linear-gradient-11);}.cls-18{fill:url(#linear-gradient-19);}.cls-19{fill:url(#linear-gradient-6);}.cls-20{fill:url(#linear-gradient-21);}.cls-21{fill:url(#linear-gradient-16);}.cls-22{fill:url(#linear-gradient);}.cls-23{fill:url(#linear-gradient-18);}</style><filter id="drop-shadow-1" x="-15.09" y="-15.06" width="242" height="191" filterUnits="userSpaceOnUse"><feOffset dx="0" dy="0"/><feGaussianBlur result="blur" stdDeviation="5"/><feFlood flood-color="#000" flood-opacity=".5"/><feComposite in2="blur" operator="in"/><feComposite in="SourceGraphic"/></filter><linearGradient id="linear-gradient" x1="107.95" y1="52.81" x2="38.57" y2="118.08" gradientUnits="userSpaceOnUse"><stop offset="0" stop-color="#fff"/><stop offset=".29" stop-color="#e144b9"/><stop offset=".66" stop-color="#250455"/><stop offset=".72" stop-color="#240758"/><stop offset=".78" stop-color="#231265"/><stop offset=".84" stop-color="#222579"/><stop offset=".9" stop-color="#203e95"/><stop offset=".96" stop-color="#1e5fb8"/><stop offset=".99" stop-color="#1d72cd"/></linearGradient><linearGradient id="linear-gradient-2" x1="52.82" y1="12.88" x2="52.82" y2="72.87" xlink:href="#linear-gradient"/><linearGradient id="linear-gradient-3" x1="24.05" y1="22.84" x2="40.5" y2="61.38" xlink:href="#linear-gradient"/><linearGradient id="linear-gradient-4" x1="44.52" y1="6.95" x2="91.19" y2="55.62" xlink:href="#linear-gradient"/><linearGradient id="linear-gradient-5" x1="60.8" y1="28.31" x2="115.78" y2="81.24" xlink:href="#linear-gradient"/><linearGradient id="linear-gradient-6" x1="7.21" y1="38.1" x2="35.99" y2="90.52" xlink:href="#linear-gradient"/><linearGradient id="linear-gradient-7" x1="30.45" y1="44.94" x2="93.66" y2="137.96" xlink:href="#linear-gradient"/><linearGradient id="linear-gradient-8" x1="36.57" y1="44.92" x2="77.17" y2="94.77" xlink:href="#linear-gradient"/><linearGradient id="linear-gradient-9" x1="70.69" y1="43.62" x2="94.33" y2="82.17" xlink:href="#linear-gradient"/><linearGradient id="linear-gradient-10" x1="90.57" y1="56.4" x2="164.57" y2="105.74" xlink:href="#linear-gradient"/><linearGradient id="linear-gradient-11" x1="133.23" y1="-.77" x2="190.79" y2="121.54" xlink:href="#linear-gradient"/><linearGradient id="linear-gradient-12" x1="160.31" y1="2.36" x2="210.16" y2="69.17" xlink:href="#linear-gradient"/><linearGradient id="linear-gradient-13" x1="118.82" y1="-10.15" x2="164.04" y2="51.01" xlink:href="#linear-gradient"/><linearGradient id="linear-gradient-14" x1="109.47" y1="30.55" x2="142.87" y2="68.07" xlink:href="#linear-gradient"/><linearGradient id="linear-gradient-15" x1="2002.92" y1="38.1" x2="2031.7" y2="90.52" gradientTransform="translate(2206.99) rotate(-180) scale(1 -1)" xlink:href="#linear-gradient"/><linearGradient id="linear-gradient-16" x1="153.72" y1="32.47" x2="154.75" y2="123.95" xlink:href="#linear-gradient"/><linearGradient id="linear-gradient-17" x1="166.27" y1="35.21" x2="158.04" y2="104.58" xlink:href="#linear-gradient"/><linearGradient id="linear-gradient-18" x1="97.38" y1="41.82" x2="169.84" y2="84.99" xlink:href="#linear-gradient"/><linearGradient id="linear-gradient-19" x1="105.66" y1="3.12" x2="105.66" y2="72.02" xlink:href="#linear-gradient"/><linearGradient id="linear-gradient-20" x1="53.12" y1="5.18" x2="53.79" y2="61.18" xlink:href="#linear-gradient"/><linearGradient id="linear-gradient-21" x1="158.42" y1="5.99" x2="158.76" y2="24.36" xlink:href="#linear-gradient"/><linearGradient id="linear-gradient-22" x1="128.39" y1="11.74" x2="128.39" y2="57.21" xlink:href="#linear-gradient"/></defs><g id="OBJECTS" class="cls-8"><polyline class="cls-22" points="105.64 48.98 105.64 160.37 0 48.98 52.82 7.74 105.64 7.74 105.64 50.52"/><polygon class="cls-3" points="0 48.98 28.91 53.61 60.9 56.69 105.64 56.69 105.64 7.74 52.82 7.74 0 48.98"/><polygon class="cls-7" points="28.91 53.61 52.82 7.74 0 48.98 28.91 53.61"/><polygon class="cls-6" points="105.64 7.74 28.91 53.61 52.82 7.74 105.64 7.74"/><polygon class="cls-9" points="60.9 56.69 82.92 21.32 105.64 56.69 60.9 56.69"/><polygon class="cls-19" points="37.88 88.93 28.91 53.61 0 48.98 37.88 88.93"/><polygon class="cls-15" points="60.9 56.69 84.78 138.38 37.88 88.93 28.91 53.61 60.9 56.69"/><polygon class="cls-11" points="28.91 53.61 69.22 85.15 60.9 56.69 28.91 53.61"/><polygon class="cls-16" points="105.64 56.69 69.22 85.15 60.9 56.69 105.64 56.69"/><polyline class="cls-4" points="105.64 48.98 105.64 160.37 211.28 48.98 158.46 7.74 105.64 7.74 105.64 50.52"/><polygon class="cls-17" points="211.28 48.98 182.37 53.61 150.38 56.69 105.64 56.69 105.64 7.74 158.46 7.74 211.28 48.98"/><polygon class="cls-5" points="182.37 53.61 158.46 7.74 211.28 48.98 182.37 53.61"/><polygon class="cls-2" points="105.64 7.74 182.37 53.61 158.46 7.74 105.64 7.74"/><polygon class="cls-12" points="150.38 56.69 128.36 21.32 105.64 56.69 150.38 56.69"/><polygon class="cls-1" points="173.4 88.93 182.37 53.61 211.28 48.98 173.4 88.93"/><polygon class="cls-21" points="150.38 56.69 126.5 138.38 173.4 88.93 182.37 53.61 150.38 56.69"/><polygon class="cls-14" points="182.37 53.61 142.06 85.15 150.38 56.69 182.37 53.61"/><polygon class="cls-23" points="105.64 56.69 142.06 85.15 150.38 56.69 105.64 56.69"/><path class="cls-18" d="M105.64,7.74s21.62,11.81,22.72,13.58c1.1,1.77-22.72,35.37-22.72,35.37l-22.72-35.37,22.72-13.58Z"/><path class="cls-13" d="M52.85,3.72l.31-3.72.31,3.72c.19,2.24,1.97,4.02,4.21,4.21l3.72.31-3.72.31c-2.24.19-4.02,1.97-4.21,4.21l-.31,3.72-.31-3.72c-.19-2.24-1.97-4.02-4.21-4.21l-3.72-.31,3.72-.31c2.24-.19,4.02-1.97,4.21-4.21Z"/><path class="cls-20" d="M158.3,5.94l.16-1.9.16,1.9c.1,1.14,1,2.05,2.15,2.15l1.9.16-1.9.16c-1.14.1-2.05,1-2.15,2.15l-.16,1.9-.16-1.9c-.1-1.14-1-2.05-2.15-2.15l-1.9-.16,1.9-.16c1.14-.1,2.05-1,2.15-2.15Z"/><path class="cls-10" d="M127.93,15.69l.47-5.55.47,5.55c.28,3.34,2.93,6,6.28,6.28l5.55.47-5.55.47c-3.34.28-6,2.93-6.28,6.28l-.47,5.55-.47-5.55c-.28-3.34-2.93-6-6.28-6.28l-5.55-.47,5.55-.47c3.34-.28,6-2.93,6.28-6.28Z"/></g></svg>