<?xml version="1.0" encoding="UTF-8"?>
<svg id="Capa_2" xmlns="http://www.w3.org/2000/svg" xmlns:xlink="http://www.w3.org/1999/xlink" viewBox="0 0 35.37 32">
  <defs>
    <style>
      .cls-1 {
        fill: #feefff;
      }

      .cls-2 {
        fill: #fa84ff;
      }

      .cls-3 {
        fill: #a333e5;
      }

      .cls-4 {
        fill: #9e2ee4;
      }

      .cls-5 {
        fill: #ee68fc;
      }

      .cls-6 {
        fill: #fa91ff;
      }

      .cls-7 {
        fill: #e260f8;
      }

      .cls-8 {
        fill: #d757f5;
      }

      .cls-9 {
        fill: #cb4ff1;
      }

      .cls-10 {
        fill: #fee1ff;
      }

      .cls-11 {
        fill: #fdcdff;
      }

      .cls-12 {
        fill: #af3be9;
      }

      .cls-13 {
        fill: #fa7dff;
      }

      .cls-14 {
        fill: #b43fea;
      }

      .cls-15 {
        filter: none;
      }

      .cls-16 {
        fill: #fdd4ff;
      }

      .cls-17 {
        fill: #fb98ff;
      }

      .cls-18 {
        fill: #e864fa;
      }

      .cls-19 {
        fill: #f36cfd;
      }

      .cls-20 {
        fill: #871edd;
      }

      .cls-21 {
        fill: #fcb3ff;
      }

      .cls-22 {
        fill: #dc5cf6;
      }

      .cls-23 {
        fill: #982ae2;
      }

      .cls-24 {
        fill: #8c22de;
      }

      .cls-25 {
        fill: #811adb;
      }

      .cls-26 {
        fill: #fee8ff;
      }

      .cls-27 {
        fill: #fedbff;
      }

      .cls-28 {
        fill: #fba5ff;
      }

      .cls-29 {
        fill: #f970ff;
      }

      .cls-30 {
        fill: #a937e7;
      }

      .cls-31 {
        fill: #ba43ec;
      }

      .cls-32 {
        fill: #fff5ff;
      }

      .cls-33 {
        fill: #d153f3;
      }

      .cls-34 {
        fill: #c047ee;
      }

      .cls-35 {
        fill: #fdc7ff;
      }

      .cls-36 {
        fill: #fcb9ff;
      }

      .cls-37 {
        fill: #9226e0;
      }

      .cls-38 {
        fill: #fffcff;
      }

      .cls-39 {
        fill: #fb9fff;
      }

      .cls-40 {
        fill: #fcacff;
      }

      .cls-41 {
        fill: #f977ff;
      }

      .cls-42 {
        fill: #fcc0ff;
      }

      .cls-43 {
        fill: #c64bf0;
      }

      .cls-44 {
        fill: #fa8bff;
      }
    </style>
  </defs>
  <g id="Layer_1">
    <g class="cls-15">
      <path class="cls-25"
        d="M25.69,14.05c0,7.09-5.75,12.85-12.85,12.85S0,21.14,0,14.05,5.75,1.2,12.85,1.2s12.85,5.75,12.85,12.85Z" />
      <path class="cls-20"
        d="M25.37,13.93c0,6.98-5.66,12.65-12.65,12.65S.08,20.91.08,13.93,5.74,1.28,12.73,1.28s12.65,5.66,12.65,12.65Z" />
      <circle class="cls-24" cx="12.61" cy="13.8" r="12.45" transform="translate(-5.27 19.27) rotate(-64.6)" />
      <circle class="cls-37" cx="12.49" cy="13.68" r="12.25" transform="translate(-5.42 18.39) rotate(-62.33)" />
      <circle class="cls-23" cx="12.37" cy="13.55" r="12.05" transform="translate(-5.62 17.16) rotate(-58.93)" />
      <circle class="cls-4" cx="12.26" cy="13.43" r="11.85" transform="translate(-5.83 15.3) rotate(-53.53)" />
      <circle class="cls-3" cx="12.14" cy="13.31" r="11.65" transform="translate(-5.85 12.48) rotate(-45)" />
      <circle class="cls-30" cx="12.02" cy="13.18" r="11.45" transform="translate(-5.1 8.17) rotate(-31.32)" />
      <circle class="cls-12" cx="11.9" cy="13.06" r="11.25" transform="translate(-3.38 4.19) rotate(-17.54)" />
      <circle class="cls-14" cx="11.78" cy="12.93" r="11.05" transform="translate(-1.66 1.74) rotate(-7.89)" />
      <circle class="cls-31" cx="11.66" cy="12.81" r="10.85" transform="translate(-.45 .42) rotate(-2.03)" />
      <circle class="cls-34" cx="11.55" cy="12.69" r="10.65" transform="translate(-1.46 23.87) rotate(-88.38)" />
      <circle class="cls-43" cx="11.43" cy="12.56" r="10.46" transform="translate(-1.91 23.08) rotate(-85.96)" />
      <circle class="cls-9" cx="11.31" cy="12.44" r="10.26" transform="translate(-2.2 22.45) rotate(-84.26)" />
      <circle class="cls-33" cx="11.19" cy="12.32" r="10.06" transform="translate(-2.39 21.92) rotate(-83.01)" />
      <circle class="cls-8" cx="11.07" cy="12.19" r="9.86" transform="translate(-2.53 21.47) rotate(-82.05)" />
      <circle class="cls-22" cx="10.96" cy="12.07" r="9.66" transform="translate(-2.63 21.07) rotate(-81.3)" />
      <circle class="cls-7" cx="10.84" cy="11.94" r="9.46" transform="translate(-2.7 20.71) rotate(-80.69)" />
      <path class="cls-18"
        d="M19.98,11.82c0,5.11-4.15,9.26-9.26,9.26S1.46,16.93,1.46,11.82,5.61,2.56,10.72,2.56s9.26,4.15,9.26,9.26Z" />
      <path class="cls-5"
        d="M19.66,11.7c0,5-4.06,9.06-9.06,9.06S1.54,16.7,1.54,11.7,5.6,2.64,10.6,2.64s9.06,4.06,9.06,9.06Z" />
      <path class="cls-19"
        d="M19.34,11.57c0,4.89-3.97,8.86-8.86,8.86S1.62,16.47,1.62,11.57,5.59,2.71,10.48,2.71s8.86,3.97,8.86,8.86Z" />
      <path class="cls-29"
        d="M19.03,11.45c0,4.78-3.88,8.66-8.66,8.66S1.7,16.23,1.7,11.45,5.58,2.79,10.36,2.79s8.66,3.88,8.66,8.66Z" />
      <path class="cls-41"
        d="M18.58,11.31c0,4.6-3.73,8.34-8.34,8.34S1.9,15.92,1.9,11.31,5.64,2.98,10.24,2.98s8.34,3.73,8.34,8.34Z" />
      <path class="cls-13"
        d="M18.13,11.18c0,4.43-3.59,8.01-8.01,8.01S2.1,15.6,2.1,11.18,5.69,3.16,10.12,3.16s8.01,3.59,8.01,8.01Z" />
      <path class="cls-2"
        d="M17.69,11.04c0,4.25-3.44,7.69-7.69,7.69s-7.69-3.44-7.69-7.69,3.44-7.69,7.69-7.69,7.69,3.44,7.69,7.69Z" />
      <path class="cls-44"
        d="M17.24,10.91c0,4.07-3.3,7.37-7.37,7.37s-7.37-3.3-7.37-7.37,3.3-7.37,7.37-7.37,7.37,3.3,7.37,7.37Z" />
      <path class="cls-6"
        d="M16.79,10.77c0,3.89-3.15,7.04-7.04,7.04s-7.04-3.15-7.04-7.04,3.15-7.04,7.04-7.04,7.04,3.15,7.04,7.04Z" />
      <path class="cls-17"
        d="M16.34,10.64c0,3.71-3.01,6.72-6.72,6.72s-6.72-3.01-6.72-6.72,3.01-6.72,6.72-6.72,6.72,3.01,6.72,6.72Z" />
      <path class="cls-39"
        d="M15.9,10.5c0,3.53-2.86,6.39-6.39,6.39s-6.39-2.86-6.39-6.39,2.86-6.39,6.39-6.39,6.39,2.86,6.39,6.39Z" />
      <path class="cls-28"
        d="M15.45,10.37c0,3.35-2.72,6.07-6.07,6.07s-6.07-2.72-6.07-6.07,2.72-6.07,6.07-6.07,6.07,2.72,6.07,6.07Z" />
      <path class="cls-40"
        d="M15,10.23c0,3.17-2.57,5.75-5.75,5.75s-5.75-2.57-5.75-5.75,2.57-5.75,5.75-5.75,5.75,2.57,5.75,5.75Z" />
      <path class="cls-21"
        d="M14.56,10.1c0,2.99-2.43,5.42-5.42,5.42s-5.42-2.43-5.42-5.42,2.43-5.42,5.42-5.42,5.42,2.43,5.42,5.42Z" />
      <path class="cls-36"
        d="M14.11,9.96c0,2.82-2.28,5.1-5.1,5.1s-5.1-2.28-5.1-5.1,2.28-5.1,5.1-5.1,5.1,2.28,5.1,5.1Z" />
      <path class="cls-42"
        d="M13.66,9.83c0,2.64-2.14,4.77-4.77,4.77s-4.77-2.14-4.77-4.77,2.14-4.77,4.77-4.77,4.77,2.14,4.77,4.77Z" />
      <path class="cls-35"
        d="M13.22,9.69c0,2.46-1.99,4.45-4.45,4.45s-4.45-1.99-4.45-4.45,1.99-4.45,4.45-4.45,4.45,1.99,4.45,4.45Z" />
      <path class="cls-11"
        d="M12.77,9.56c0,2.28-1.85,4.13-4.13,4.13s-4.13-1.85-4.13-4.13,1.85-4.13,4.13-4.13,4.13,1.85,4.13,4.13Z" />
      <path class="cls-16" d="M12.32,9.42c0,2.1-1.7,3.8-3.8,3.8s-3.8-1.7-3.8-3.8,1.7-3.8,3.8-3.8,3.8,1.7,3.8,3.8Z" />
      <path class="cls-27"
        d="M11.87,9.29c0,1.92-1.56,3.48-3.48,3.48s-3.48-1.56-3.48-3.48,1.56-3.48,3.48-3.48,3.48,1.56,3.48,3.48Z" />
      <path class="cls-10"
        d="M11.43,9.15c0,1.74-1.41,3.15-3.15,3.15s-3.15-1.41-3.15-3.15,1.41-3.15,3.15-3.15,3.15,1.41,3.15,3.15Z" />
      <path class="cls-26"
        d="M10.98,9.02c0,1.56-1.27,2.83-2.83,2.83s-2.83-1.27-2.83-2.83,1.27-2.83,2.83-2.83,2.83,1.27,2.83,2.83Z" />
      <path class="cls-1"
        d="M10.53,8.88c0,1.38-1.12,2.51-2.51,2.51s-2.51-1.12-2.51-2.51,1.12-2.51,2.51-2.51,2.51,1.12,2.51,2.51Z" />
      <path class="cls-32"
        d="M10.09,8.75c0,1.21-.98,2.18-2.18,2.18s-2.18-.98-2.18-2.18.98-2.18,2.18-2.18,2.18.98,2.18,2.18Z" />
      <path class="cls-38"
        d="M9.64,8.61c0,1.03-.83,1.86-1.86,1.86s-1.86-.83-1.86-1.86.83-1.86,1.86-1.86,1.86.83,1.86,1.86Z" />
    </g>
  </g>
</svg>