<?xml version="1.0" encoding="UTF-8"?><svg id="Capa_2" xmlns="http://www.w3.org/2000/svg" xmlns:xlink="http://www.w3.org/1999/xlink" viewBox="0 0 203.42 171.72"><defs><style>.cls-1{stroke:url(#linear-gradient-7);}.cls-1,.cls-2,.cls-3,.cls-4,.cls-5,.cls-6,.cls-7,.cls-8,.cls-9,.cls-10,.cls-11,.cls-12,.cls-13,.cls-14{fill:none;stroke-miterlimit:10;stroke-width:2.99px;}.cls-2{stroke:url(#linear-gradient-4);}.cls-3{stroke:url(#linear-gradient-5);}.cls-4{stroke:url(#linear-gradient-2);}.cls-5{stroke:url(#linear-gradient-9);}.cls-6{stroke:url(#linear-gradient-15);}.cls-15{fill:url(#radial-gradient);}.cls-16{filter:url(#drop-shadow-1);}.cls-7{stroke:url(#linear-gradient-12);}.cls-8{stroke:url(#linear-gradient-14);}.cls-9{stroke:url(#linear-gradient-13);}.cls-10{stroke:url(#linear-gradient-11);}.cls-11{stroke:url(#linear-gradient-8);}.cls-12{stroke:url(#linear-gradient-3);}.cls-13{stroke:url(#linear-gradient-10);}.cls-17{fill:url(#linear-gradient-16);}.cls-18{fill:url(#linear-gradient);}.cls-14{stroke:url(#linear-gradient-6);}</style><filter id="drop-shadow-1" x="-15.35" y="-15.18" width="234" height="202" filterUnits="userSpaceOnUse"><feOffset dx="0" dy="0"/><feGaussianBlur result="blur" stdDeviation="5"/><feFlood flood-color="#000" flood-opacity=".5"/><feComposite in2="blur" operator="in"/><feComposite in="SourceGraphic"/></filter><linearGradient id="linear-gradient" x1="0" y1="85.86" x2="203.42" y2="85.86" gradientUnits="userSpaceOnUse"><stop offset="0" stop-color="#fff"/><stop offset=".29" stop-color="#e144b9"/><stop offset=".66" stop-color="#250455"/><stop offset=".72" stop-color="#240758"/><stop offset=".78" stop-color="#231265"/><stop offset=".84" stop-color="#222579"/><stop offset=".9" stop-color="#203e95"/><stop offset=".96" stop-color="#1e5fb8"/><stop offset=".99" stop-color="#1d72cd"/></linearGradient><radialGradient id="radial-gradient" cx="68.59" cy="8.34" fx="68.59" fy="8.34" r="171.74" gradientTransform="translate(94.36 -56.89) rotate(45)" gradientUnits="userSpaceOnUse"><stop offset="0" stop-color="#fff"/><stop offset=".29" stop-color="#e144b9"/><stop offset=".66" stop-color="#250455"/><stop offset=".72" stop-color="#240758"/><stop offset=".78" stop-color="#231265"/><stop offset=".84" stop-color="#222579"/><stop offset=".9" stop-color="#203e95"/><stop offset=".96" stop-color="#1e5fb8"/><stop offset=".99" stop-color="#1d72cd"/></radialGradient><linearGradient id="linear-gradient-2" x1="55.89" y1="25.5" x2="175.81" y2="145.42" xlink:href="#linear-gradient"/><linearGradient id="linear-gradient-3" x1="59.29" y1="28.89" x2="172.42" y2="142.02" xlink:href="#linear-gradient"/><linearGradient id="linear-gradient-4" x1="62.68" y1="32.29" x2="169.02" y2="138.62" xlink:href="#linear-gradient"/><linearGradient id="linear-gradient-5" x1="66.08" y1="35.69" x2="165.62" y2="135.23" xlink:href="#linear-gradient"/><linearGradient id="linear-gradient-6" x1="69.48" y1="39.09" x2="162.22" y2="131.83" xlink:href="#linear-gradient"/><linearGradient id="linear-gradient-7" x1="72.88" y1="42.49" x2="158.82" y2="128.43" xlink:href="#linear-gradient"/><linearGradient id="linear-gradient-8" x1="76.28" y1="45.88" x2="155.42" y2="125.03" xlink:href="#linear-gradient"/><linearGradient id="linear-gradient-9" x1="79.68" y1="49.28" x2="152.03" y2="121.63" xlink:href="#linear-gradient"/><linearGradient id="linear-gradient-10" x1="83.07" y1="52.68" x2="148.63" y2="118.23" xlink:href="#linear-gradient"/><linearGradient id="linear-gradient-11" x1="86.47" y1="56.08" x2="145.23" y2="114.84" xlink:href="#linear-gradient"/><linearGradient id="linear-gradient-12" x1="89.87" y1="59.48" x2="141.83" y2="111.44" xlink:href="#linear-gradient"/><linearGradient id="linear-gradient-13" x1="93.27" y1="62.88" x2="138.43" y2="108.04" xlink:href="#linear-gradient"/><linearGradient id="linear-gradient-14" x1="96.67" y1="66.27" x2="135.03" y2="104.64" xlink:href="#linear-gradient"/><linearGradient id="linear-gradient-15" x1="100.07" y1="69.67" x2="131.64" y2="101.24" xlink:href="#linear-gradient"/><linearGradient id="linear-gradient-16" x1="3.18" y1="32.3" x2="202.05" y2="32.3" gradientTransform="translate(13.88 -28.52) rotate(16.95)" xlink:href="#linear-gradient"/></defs><g id="OBJECTS" class="cls-16"><path class="cls-18" d="M179.23,171.72L0,62.03,203.42,0l-24.19,171.72ZM7.23,62.95l169.68,103.84L199.81,4.22,7.23,62.95Z"/><circle class="cls-15" cx="115.85" cy="85.46" r="83.35" transform="translate(-26.5 106.95) rotate(-45)"/><path class="cls-4" d="M115.85,168.8c-45.96,0-83.35-37.39-83.35-83.35S69.89,2.11,115.85,2.11s83.35,37.39,83.35,83.35-37.39,83.35-83.35,83.35Z"/><path class="cls-12" d="M115.85,164c-43.31,0-78.54-35.23-78.54-78.54S72.54,6.92,115.85,6.92s78.54,35.23,78.54,78.54-35.23,78.54-78.54,78.54Z"/><path class="cls-2" d="M115.85,159.19c-40.65,0-73.73-33.08-73.73-73.73S75.2,11.73,115.85,11.73s73.73,33.08,73.73,73.73-33.07,73.73-73.73,73.73Z"/><path class="cls-3" d="M115.85,154.38c-38,0-68.92-30.92-68.92-68.92S77.85,16.54,115.85,16.54s68.92,30.92,68.92,68.92-30.92,68.92-68.92,68.92Z"/><path class="cls-14" d="M115.85,149.57c-35.35,0-64.11-28.76-64.11-64.11S80.5,21.34,115.85,21.34s64.11,28.76,64.11,64.11-28.76,64.11-64.11,64.11Z"/><path class="cls-1" d="M115.85,144.76c-32.7,0-59.3-26.6-59.3-59.31s26.6-59.3,59.3-59.3,59.3,26.6,59.3,59.3-26.6,59.31-59.3,59.31Z"/><path class="cls-11" d="M115.85,139.95c-30.05,0-54.5-24.45-54.5-54.5s24.45-54.5,54.5-54.5,54.5,24.45,54.5,54.5-24.45,54.5-54.5,54.5Z"/><path class="cls-5" d="M115.85,135.15c-27.4,0-49.69-22.29-49.69-49.69s22.29-49.69,49.69-49.69,49.69,22.29,49.69,49.69-22.29,49.69-49.69,49.69Z"/><path class="cls-13" d="M115.85,130.34c-24.75,0-44.88-20.13-44.88-44.88s20.13-44.88,44.88-44.88,44.88,20.13,44.88,44.88-20.13,44.88-44.88,44.88Z"/><path class="cls-10" d="M115.85,125.53c-22.1,0-40.07-17.98-40.07-40.07s17.98-40.07,40.07-40.07,40.07,17.98,40.07,40.07-17.98,40.07-40.07,40.07Z"/><path class="cls-7" d="M115.85,120.72c-19.44,0-35.26-15.82-35.26-35.26s15.82-35.26,35.26-35.26,35.26,15.82,35.26,35.26-15.82,35.26-35.26,35.26Z"/><path class="cls-9" d="M115.85,115.91c-16.79,0-30.46-13.66-30.46-30.46s13.66-30.46,30.46-30.46,30.46,13.66,30.46,30.46-13.66,30.46-30.46,30.46Z"/><path class="cls-8" d="M115.85,111.11c-14.14,0-25.65-11.51-25.65-25.65s11.51-25.65,25.65-25.65,25.65,11.51,25.65,25.65-11.51,25.65-25.65,25.65Z"/><path class="cls-6" d="M115.85,106.3c-11.49,0-20.84-9.35-20.84-20.84s9.35-20.84,20.84-20.84,20.84,9.35,20.84,20.84-9.35,20.84-20.84,20.84Z"/><rect class="cls-17" x="-.89" y="30.81" width="207" height="2.99" transform="translate(-4.96 31.33) rotate(-16.95)"/></g></svg>