<?xml version="1.0" encoding="UTF-8"?><svg id="Capa_2" xmlns="http://www.w3.org/2000/svg" xmlns:xlink="http://www.w3.org/1999/xlink" viewBox="0 0 751.37 495.08"><defs><style>.cls-1{fill:url(#Degradado_sin_nombre_1403);}.cls-2{fill:url(#Degradado_sin_nombre_18-9);}.cls-3{fill:url(#Degradado_sin_nombre_1410);}.cls-4{fill:url(#Degradado_sin_nombre_1403-3);}.cls-5{fill:url(#Degradado_sin_nombre_18-12);}.cls-6{fill:url(#Degradado_sin_nombre_1403-4);}.cls-7{filter:url(#outer-glow-2);}.cls-8{fill:url(#Degradado_sin_nombre_18-10);}.cls-9{fill:url(#Degradado_sin_nombre_18-2);}.cls-10{fill:#fff;}.cls-11{stroke:#6ac1e0;stroke-miterlimit:10;stroke-width:1.37px;}.cls-11,.cls-12{fill:none;}.cls-13{fill:url(#Degradado_sin_nombre_18-6);}.cls-14{fill:url(#Degradado_sin_nombre_1403-2);}.cls-15{fill:url(#Degradado_sin_nombre_18-11);}.cls-16{fill:url(#Degradado_sin_nombre_18-8);}.cls-17{filter:url(#outer-glow-6);}.cls-18{filter:url(#outer-glow-5);}.cls-19{fill:url(#Degradado_sin_nombre_1403-7);}.cls-20{clip-path:url(#clippath-1);}.cls-21{fill:url(#Degradado_sin_nombre_1403-5);}.cls-22{filter:url(#drop-shadow-1);}.cls-23{fill:url(#Degradado_sin_nombre_18-5);}.cls-24{fill:url(#Degradado_sin_nombre_18);}.cls-25{fill:url(#Degradado_sin_nombre_18-4);}.cls-26{fill:url(#Degradado_sin_nombre_18-3);}.cls-27{filter:url(#outer-glow-3);}.cls-28{clip-path:url(#clippath);}.cls-29{fill:url(#Degradado_sin_nombre_18-7);}.cls-30{filter:url(#outer-glow-4);}.cls-31{fill:url(#Degradado_sin_nombre_1403-6);}</style><filter id="drop-shadow-1" x="-127.25" y="-131.98" width="1006" height="754" filterUnits="userSpaceOnUse"><feOffset dx="0" dy="0"/><feGaussianBlur result="blur" stdDeviation="40"/><feFlood flood-color="#000" flood-opacity=".7"/><feComposite in2="blur" operator="in"/><feComposite in="SourceGraphic"/></filter><linearGradient id="Degradado_sin_nombre_1410" x1="375.69" y1="230.24" x2="375.69" y2="483.31" gradientUnits="userSpaceOnUse"><stop offset="0" stop-color="#a0239b"/><stop offset=".23" stop-color="#851d90"/><stop offset=".72" stop-color="#400e75"/><stop offset="1" stop-color="#170665"/></linearGradient><filter id="outer-glow-2" x="229.75" y="73.02" width="292" height="292" filterUnits="userSpaceOnUse"><feOffset dx="0" dy="0"/><feGaussianBlur result="blur-2" stdDeviation="17"/><feFlood flood-color="#fccaa7" flood-opacity=".55"/><feComposite in2="blur-2" operator="in"/><feComposite in="SourceGraphic"/></filter><linearGradient id="Degradado_sin_nombre_1403" x1="375.69" y1="298.47" x2="375.69" y2="172.25" gradientUnits="userSpaceOnUse"><stop offset="0" stop-color="#d7375d"/><stop offset="1" stop-color="#f5955d"/></linearGradient><linearGradient id="Degradado_sin_nombre_1403-2" x1="375.69" y1="298.47" x2="375.69" y2="172.25" xlink:href="#Degradado_sin_nombre_1403"/><linearGradient id="Degradado_sin_nombre_1403-3" x1="375.69" y1="298.47" x2="375.69" y2="172.25" xlink:href="#Degradado_sin_nombre_1403"/><linearGradient id="Degradado_sin_nombre_1403-4" x1="375.69" y1="298.47" x2="375.69" y2="172.25" xlink:href="#Degradado_sin_nombre_1403"/><linearGradient id="Degradado_sin_nombre_1403-5" x1="375.69" y1="298.47" x2="375.69" y2="172.25" xlink:href="#Degradado_sin_nombre_1403"/><linearGradient id="Degradado_sin_nombre_1403-6" x1="375.69" y1="298.47" x2="375.69" y2="172.25" xlink:href="#Degradado_sin_nombre_1403"/><linearGradient id="Degradado_sin_nombre_1403-7" x1="375.69" y1="298.47" x2="375.69" y2="172.25" xlink:href="#Degradado_sin_nombre_1403"/><clipPath id="clippath"><rect class="cls-12" x="462.75" y="138.56" width="288.02" height="80.47"/></clipPath><filter id="outer-glow-3" x="448.75" y="124.02" width="348" height="117" filterUnits="userSpaceOnUse"><feOffset dx="0" dy="0"/><feGaussianBlur result="blur-3" stdDeviation="7"/><feFlood flood-color="#cfb1fc" flood-opacity=".55"/><feComposite in2="blur-3" operator="in"/><feComposite in="SourceGraphic"/></filter><linearGradient id="Degradado_sin_nombre_18" x1="469.95" y1="185.9" x2="561.15" y2="185.9" gradientUnits="userSpaceOnUse"><stop offset="0" stop-color="#b685f8"/><stop offset="1" stop-color="#827ff7"/></linearGradient><linearGradient id="Degradado_sin_nombre_18-2" x1="547.01" y1="182.44" x2="647.74" y2="182.44" xlink:href="#Degradado_sin_nombre_18"/><linearGradient id="Degradado_sin_nombre_18-3" x1="687.9" y1="187.3" x2="775.26" y2="187.3" xlink:href="#Degradado_sin_nombre_18"/><linearGradient id="Degradado_sin_nombre_18-4" x1="518.99" y1="192.29" x2="592.61" y2="192.29" xlink:href="#Degradado_sin_nombre_18"/><linearGradient id="Degradado_sin_nombre_18-5" x1="646.64" y1="192.29" x2="720.25" y2="192.29" xlink:href="#Degradado_sin_nombre_18"/><linearGradient id="Degradado_sin_nombre_18-6" x1="625.39" y1="203.59" x2="667.89" y2="203.59" xlink:href="#Degradado_sin_nombre_18"/><clipPath id="clippath-1"><rect class="cls-12" x=".69" y="138.56" width="288.02" height="80.47" transform="translate(289.39 357.59) rotate(180)"/></clipPath><filter id="outer-glow-4" x="-45.25" y="124.02" width="348" height="117" filterUnits="userSpaceOnUse"><feOffset dx="0" dy="0"/><feGaussianBlur result="blur-4" stdDeviation="7"/><feFlood flood-color="#cfb1fc" flood-opacity=".55"/><feComposite in2="blur-4" operator="in"/><feComposite in="SourceGraphic"/></filter><linearGradient id="Degradado_sin_nombre_18-7" x1="310.11" x2="401.31" gradientTransform="translate(417.14) rotate(-180) scale(1 -1)" xlink:href="#Degradado_sin_nombre_18"/><linearGradient id="Degradado_sin_nombre_18-8" x1="203.1" y1="182.44" x2="303.84" y2="182.44" gradientTransform="translate(417.14) rotate(-180) scale(1 -1)" xlink:href="#Degradado_sin_nombre_18"/><linearGradient id="Degradado_sin_nombre_18-9" x1="353.58" y1="187.3" x2="440.94" y2="187.3" gradientTransform="translate(417.14) rotate(-180) scale(1 -1)" xlink:href="#Degradado_sin_nombre_18"/><linearGradient id="Degradado_sin_nombre_18-10" x1="135.51" y1="192.29" x2="209.13" y2="192.29" gradientTransform="translate(417.14) rotate(-180) scale(1 -1)" xlink:href="#Degradado_sin_nombre_18"/><linearGradient id="Degradado_sin_nombre_18-11" x1="272.44" y1="192.29" x2="346.06" y2="192.29" gradientTransform="translate(417.14) rotate(-180) scale(1 -1)" xlink:href="#Degradado_sin_nombre_18"/><linearGradient id="Degradado_sin_nombre_18-12" x1="187.88" y1="203.59" x2="230.38" y2="203.59" gradientTransform="translate(417.14) rotate(-180) scale(1 -1)" xlink:href="#Degradado_sin_nombre_18"/><filter id="outer-glow-5" x="-9.25" y="209.02" width="770" height="296" filterUnits="userSpaceOnUse"><feOffset dx="0" dy="0"/><feGaussianBlur result="blur-5" stdDeviation="3"/><feFlood flood-color="#ccfffc" flood-opacity=".65"/><feComposite in2="blur-5" operator="in"/><feComposite in="SourceGraphic"/></filter><filter id="outer-glow-6" x="-8.25" y="-15.98" width="746" height="197" filterUnits="userSpaceOnUse"><feOffset dx="0" dy="0"/><feGaussianBlur result="blur-6" stdDeviation="5"/><feFlood flood-color="#c1f4f0" flood-opacity="1"/><feComposite in2="blur-6" operator="in"/><feComposite in="SourceGraphic"/></filter></defs><g id="BACKGROUND_2"><g class="cls-22"><rect class="cls-3" x=".69" y="219.03" width="750" height="275.52"/><g class="cls-7"><path class="cls-1" d="M375.69,124.77c-52.06,0-94.26,42.2-94.26,94.26h188.53c0-52.06-42.2-94.26-94.26-94.26Z"/><path class="cls-14" d="M298.89,273.71c1.62,2.27,3.33,4.45,5.14,6.57h143.31c1.81-2.11,3.52-4.3,5.14-6.57h-153.59Z"/><path class="cls-4" d="M415.2,304.63c3.27-1.51,6.45-3.21,9.51-5.07h-98.05c3.06,1.87,6.23,3.56,9.51,5.07h79.03Z"/><path class="cls-6" d="M311.9,288.43c1.82,1.67,3.7,3.28,5.65,4.81h116.28c1.95-1.53,3.83-3.13,5.65-4.81h-127.57Z"/><path class="cls-21" d="M282.37,232.38c.45,3.16,1.05,6.27,1.81,9.32h183.02c.75-3.05,1.36-6.16,1.81-9.32h-186.64Z"/><path class="cls-31" d="M288.62,255.21c1.1,2.64,2.31,5.22,3.64,7.73h166.85c1.33-2.51,2.54-5.09,3.64-7.73h-174.13Z"/><path class="cls-19" d="M347.88,309.12c8.79,2.71,18.12,4.17,27.8,4.17s19.01-1.46,27.8-4.17h-55.61Z"/></g><g class="cls-28"><g class="cls-27"><polygon class="cls-24" points="469.95 219.03 515.55 152.77 561.15 219.03 469.95 219.03"/><polygon class="cls-9" points="547.01 219.03 597.37 145.85 647.74 219.03 547.01 219.03"/><polygon class="cls-26" points="687.9 219.03 731.58 155.57 775.26 219.03 687.9 219.03"/><polygon class="cls-25" points="518.99 219.03 555.8 165.55 592.61 219.03 518.99 219.03"/><polygon class="cls-23" points="646.64 219.03 683.45 165.55 720.25 219.03 646.64 219.03"/><polygon class="cls-13" points="625.39 219.03 646.64 188.15 667.89 219.03 625.39 219.03"/></g></g><g class="cls-20"><g class="cls-30"><polygon class="cls-29" points="107.03 219.03 61.43 152.77 15.83 219.03 107.03 219.03"/><polygon class="cls-16" points="214.04 219.03 163.67 145.85 113.3 219.03 214.04 219.03"/><polygon class="cls-2" points="63.56 219.03 19.88 155.57 -23.8 219.03 63.56 219.03"/><polygon class="cls-8" points="281.63 219.03 244.82 165.55 208.01 219.03 281.63 219.03"/><polygon class="cls-15" points="144.7 219.03 107.89 165.55 71.08 219.03 144.7 219.03"/><polygon class="cls-5" points="229.26 219.03 208.01 188.15 186.76 219.03 229.26 219.03"/></g></g><g class="cls-18"><path class="cls-11" d="M750.24,418.31c.46,0,.62-.62.21-.84l-374.76-198.45L.92,417.48c-.41.22-.26.84.21.84"/><line class="cls-11" x1="375.69" y1="219.03" x2="222.16" y2="494.55"/><line class="cls-11" x1="40.34" y1="494.55" x2="375.69" y2="219.03"/><line class="cls-11" x1="375.69" y1="219.03" x2="529.21" y2="494.55"/><line class="cls-11" x1="711.03" y1="494.55" x2="375.69" y2="219.03"/><line class="cls-11" x1=".69" y1="372.97" x2="750.77" y2="372.97"/><line class="cls-11" x1=".69" y1="443.51" x2="750.77" y2="443.51"/><line class="cls-11" x1=".69" y1="331.14" x2="750.69" y2="331.14"/><line class="cls-11" x1=".69" y1="302.1" x2="750.77" y2="302.1"/><line class="cls-11" x1=".69" y1="279.54" x2="750.77" y2="279.54"/><line class="cls-11" x1=".69" y1="263.15" x2="750.69" y2="263.15"/><line class="cls-11" x1=".69" y1="248.43" x2="750.77" y2="248.43"/><line class="cls-11" x1=".69" y1="234.71" x2="750.69" y2="234.71"/><line class="cls-11" x1="375.69" y1="219.03" x2=".69" y2="358.44"/><line class="cls-11" x1="375.69" y1="219.03" x2=".69" y2="313.29"/><line class="cls-11" x1="375.69" y1="219.03" x2=".69" y2="276.99"/><line class="cls-11" x1="375.69" y1="219.03" x2=".69" y2="248.43"/><line class="cls-11" x1="375.69" y1="219.03" x2=".69" y2="219.03"/><line class="cls-11" x1="375.77" y1="219.03" x2="750.77" y2="358.44"/><line class="cls-11" x1="375.77" y1="219.03" x2="750.77" y2="313.29"/><line class="cls-11" x1="375.77" y1="219.03" x2="750.77" y2="276.99"/><line class="cls-11" x1="375.77" y1="219.03" x2="750.77" y2="248.43"/><line class="cls-11" x1="375.77" y1="219.03" x2="750.77" y2="219.03"/></g><g class="cls-17"><path class="cls-10" d="M153.45,75.91c3.22,0,3.22-5,0-5s-3.22,5,0,5h0Z"/><path class="cls-10" d="M214.11,112.92c3.22,0,3.22-5,0-5s-3.22,5,0,5h0Z"/><path class="cls-10" d="M281.46,41.36c3.22,0,3.22-5,0-5s-3.22,5,0,5h0Z"/><path class="cls-10" d="M478.21,89.06c3.22,0,3.22-5,0-5s-3.22,5,0,5h0Z"/><path class="cls-10" d="M631.39,41.36c3.22,0,3.22-5,0-5s-3.22,5,0,5h0Z"/><path class="cls-10" d="M666.71,123.45c3.22,0,3.22-5,0-5s-3.22,5,0,5h0Z"/><path class="cls-10" d="M387.86,88.14c3.22,0,3.22-5,0-5s-3.22,5,0,5h0Z"/><path class="cls-10" d="M67.02,24.18v-.46c.01-.34-.06-.67-.22-.96-.1-.31-.27-.58-.52-.8-.23-.24-.49-.42-.8-.52-.3-.16-.62-.23-.96-.22l-.66.09c-.42.12-.79.33-1.1.64l-.39.51c-.23.39-.34.81-.34,1.26v.46c-.01.34.06.67.22.96.1.31.27.58.52.8.23.24.49.42.8.52.3.16.62.23.96.22l.66-.09c.42-.12.79-.33,1.1-.64l.39-.51c.23-.39.34-.81.34-1.26h0Z"/><path class="cls-10" d="M46.38,122.79v-.46c.01-.34-.06-.67-.22-.96-.1-.31-.27-.58-.52-.8-.23-.24-.49-.42-.8-.52-.3-.16-.62-.23-.96-.22l-.66.09c-.42.12-.79.33-1.1.64l-.39.51c-.23.39-.34.81-.34,1.26v.46c-.01.34.06.67.22.96.1.31.27.58.52.8.23.24.49.42.8.52.3.16.62.23.96.22l.66-.09c.42-.12.79-.33,1.1-.64l.39-.51c.23-.39.34-.81.34-1.26h0Z"/><path class="cls-10" d="M92.5,82.1h-.46c-.17,0-.33.03-.48.11-.15.05-.29.14-.4.26-.12.11-.21.25-.26.4-.08.15-.11.31-.11.48l.04.33c.06.21.17.4.32.55l.25.2c.19.11.41.17.63.17h.46c.17,0,.33-.03.48-.11.15-.05.29-.14.4-.26.12-.11.21-.25.26-.4.08-.15.11-.31.11-.48l-.04-.33c-.06-.21-.17-.4-.32-.55l-.25-.2c-.19-.11-.41-.17-.63-.17h0Z"/><path class="cls-10" d="M203.95,20.85c1.61,0,1.61-2.5,0-2.5s-1.61,2.5,0,2.5h0Z"/><path class="cls-10" d="M123.23,139.63c1.61,0,1.61-2.5,0-2.5s-1.61,2.5,0,2.5h0Z"/><path class="cls-10" d="M295.21,121.54h-.46c-.17,0-.33.03-.48.11-.15.05-.29.14-.4.26-.12.11-.21.25-.26.4-.08.15-.11.31-.11.48l.04.33c.06.21.17.4.32.55l.25.2c.19.11.41.17.63.17h.46c.17,0,.33-.03.48-.11.15-.05.29-.14.4-.26.12-.11.21-.25.26-.4.08-.15.11-.31.11-.48l-.04-.33c-.06-.21-.17-.4-.32-.55l-.25-.2c-.19-.11-.41-.17-.63-.17h0Z"/><path class="cls-10" d="M380.98,27.73c1.61,0,1.61-2.5,0-2.5s-1.61,2.5,0,2.5h0Z"/><path class="cls-10" d="M528.66,36.9c1.61,0,1.61-2.5,0-2.5s-1.61,2.5,0,2.5h0Z"/><path class="cls-10" d="M558.01,114.87h.46c.17,0,.33-.03.48-.11.15-.05.29-.14.4-.26.12-.11.21-.25.26-.4.08-.15.11-.31.11-.48l-.04-.33c-.06-.21-.17-.4-.32-.55l-.25-.2c-.19-.11-.41-.17-.63-.17h-.46c-.17,0-.33.03-.48.11-.15.05-.29.14-.4.26-.12.11-.21.25-.26.4-.08.15-.11.31-.11.48l.04.33c.06.21.17.4.32.55l.25.2c.19.11.41.17.63.17h0Z"/><path class="cls-10" d="M470.87,153.39c1.61,0,1.61-2.5,0-2.5s-1.61,2.5,0,2.5h0Z"/><path class="cls-10" d="M650.65,165.77c1.61,0,1.61-2.5,0-2.5s-1.61,2.5,0,2.5h0Z"/><path class="cls-10" d="M721.28,52.03c1.61,0,1.61-2.5,0-2.5s-1.61,2.5,0,2.5h0Z"/><path class="cls-10" d="M8.15,70.54c-.15.15-.31.31-.46.46-.12.11-.21.25-.26.4-.08.15-.11.31-.11.48,0,.17.03.33.11.48.05.15.14.29.26.4l.25.2c.19.11.41.17.63.17l.33-.04c.21-.06.4-.17.55-.32.15-.15.31-.31.46-.46.12-.11.21-.25.26-.4.08-.15.11-.31.11-.48,0-.17-.03-.33-.11-.48-.05-.15-.14-.29-.26-.4l-.25-.2c-.19-.11-.41-.17-.63-.17l-.33.04c-.21.06-.4.17-.55.32h0Z"/><path class="cls-10" d="M592.41,0h-.46c-.17,0-.33.03-.48.11-.15.05-.29.14-.4.26-.12.11-.21.25-.26.4-.08.15-.11.31-.11.48l.04.33c.06.21.17.4.32.55l.25.2c.19.11.41.17.63.17h.46c.17,0,.33-.03.48-.11.15-.05.29-.14.4-.26.12-.11.21-.25.26-.4.08-.15.11-.31.11-.48l-.04-.33c-.06-.21-.17-.4-.32-.55l-.25-.2c-.19-.11-.41-.17-.63-.17h0Z"/></g></g></g></svg>