<?xml version="1.0" encoding="UTF-8"?><svg xmlns="http://www.w3.org/2000/svg" xmlns:xlink="http://www.w3.org/1999/xlink" viewBox="0 0 193.68 174.62"><defs><style>.cls-1{stroke:#212121;}.cls-1,.cls-2,.cls-3{fill:none;}.cls-1,.cls-3{stroke-miterlimit:10;}.cls-4{fill:url(#linear-gradient-61);}.cls-5{fill:url(#linear-gradient-15);}.cls-6{fill:url(#linear-gradient-13);}.cls-7{fill:url(#linear-gradient-107);}.cls-8{fill:url(#linear-gradient-28);}.cls-9{fill:url(#linear-gradient-65);}.cls-10{fill:url(#linear-gradient-69);}.cls-11{fill:url(#linear-gradient-53);}.cls-12{fill:url(#linear-gradient-42);}.cls-13{fill:url(#linear-gradient-46);}.cls-14{fill:url(#linear-gradient-70);}.cls-15{fill:url(#linear-gradient-60);}.cls-16{fill:url(#linear-gradient-93);}.cls-17{fill:url(#linear-gradient-95);}.cls-18{fill:url(#linear-gradient-2);}.cls-19{fill:url(#linear-gradient-100);}.cls-20{fill:url(#linear-gradient-87);}.cls-21{fill:url(#linear-gradient-64);}.cls-22{fill:url(#linear-gradient-56);}.cls-23{fill:url(#linear-gradient-43);}.cls-24{fill:url(#linear-gradient-25);}.cls-25{fill:url(#linear-gradient-82);}.cls-26{fill:url(#linear-gradient-10);}.cls-27{fill:url(#linear-gradient-12);}.cls-28{fill:url(#linear-gradient-40);}.cls-29{fill:url(#linear-gradient-27);}.cls-30{fill:url(#linear-gradient-68);}.cls-31{fill:url(#linear-gradient-37);}.cls-32{fill:url(#linear-gradient-75);}.cls-33{fill:url(#linear-gradient-55);}.cls-34{fill:url(#linear-gradient-39);}.cls-35{fill:url(#linear-gradient-89);}.cls-36{fill:url(#linear-gradient-52);}.cls-37{fill:url(#linear-gradient-58);}.cls-38{fill:url(#linear-gradient-47);}.cls-39{fill:url(#linear-gradient-26);}.cls-40{fill:url(#linear-gradient-74);}.cls-41{fill:url(#linear-gradient-97);}.cls-42{fill:url(#linear-gradient-72);}.cls-43{fill:url(#linear-gradient-4);}.cls-44{fill:url(#linear-gradient-35);}.cls-45{fill:url(#linear-gradient-30);}.cls-46{fill:url(#linear-gradient-76);}.cls-47{fill:url(#radial-gradient);}.cls-48{fill:url(#linear-gradient-73);}.cls-49{fill:url(#linear-gradient-71);}.cls-50{fill:url(#linear-gradient-44);}.cls-51{fill:url(#linear-gradient-96);}.cls-52{fill:url(#linear-gradient-49);}.cls-53{fill:url(#linear-gradient-3);}.cls-54{fill:url(#linear-gradient-34);}.cls-55{filter:url(#drop-shadow-1);}.cls-56{fill:url(#linear-gradient-5);}.cls-57{fill:url(#linear-gradient-38);}.cls-58{fill:url(#linear-gradient-91);}.cls-59{fill:url(#linear-gradient-22);}.cls-60{fill:url(#linear-gradient-24);}.cls-61{fill:url(#linear-gradient-94);}.cls-62{fill:url(#linear-gradient-54);}.cls-63,.cls-64{isolation:isolate;}.cls-65{fill:url(#linear-gradient-92);}.cls-66{fill:url(#linear-gradient-90);}.cls-67{fill:url(#linear-gradient-33);}.cls-68{fill:url(#linear-gradient-79);}.cls-69{fill:url(#linear-gradient-78);}.cls-70{fill:url(#linear-gradient-51);}.cls-71{fill:url(#linear-gradient-8);}.cls-72{fill:url(#linear-gradient-66);}.cls-73{fill:url(#linear-gradient-57);}.cls-74{fill:url(#linear-gradient-77);}.cls-75{fill:url(#linear-gradient-103);}.cls-76{fill:url(#linear-gradient-88);}.cls-77{fill:url(#linear-gradient-14);}.cls-78{fill:url(#linear-gradient-62);}.cls-79{fill:url(#linear-gradient-29);}.cls-80{fill:url(#linear-gradient-20);}.cls-81{fill:url(#linear-gradient-106);}.cls-82{fill:url(#linear-gradient-67);}.cls-83{fill:url(#linear-gradient-17);}.cls-84{fill:url(#linear-gradient-50);}.cls-85{fill:url(#linear-gradient-7);}.cls-86{fill:url(#linear-gradient-9);}.cls-87{fill:url(#linear-gradient-104);}.cls-88{fill:url(#linear-gradient-59);}.cls-89{fill:url(#linear-gradient-11);}.cls-90{fill:url(#linear-gradient-19);}.cls-91{fill:url(#linear-gradient-101);}.cls-92{fill:url(#linear-gradient-80);}.cls-93,.cls-64{mix-blend-mode:overlay;}.cls-94{fill:url(#linear-gradient-6);}.cls-95{fill:url(#linear-gradient-83);}.cls-3{stroke:#fff;stroke-width:.48px;}.cls-96{fill:url(#linear-gradient-105);}.cls-97{fill:url(#linear-gradient-36);}.cls-98{fill:url(#linear-gradient-21);}.cls-99{fill:url(#linear-gradient-45);}.cls-100{fill:url(#linear-gradient-85);}.cls-101{fill:url(#linear-gradient-98);}.cls-102{fill:url(#linear-gradient-81);}.cls-103{fill:url(#linear-gradient-84);}.cls-104{fill:url(#linear-gradient-48);}.cls-105{fill:url(#linear-gradient-102);}.cls-106{fill:url(#linear-gradient-32);}.cls-107{fill:url(#linear-gradient-86);}.cls-108{fill:url(#linear-gradient-41);}.cls-109{fill:url(#linear-gradient-16);}.cls-110{fill:url(#linear-gradient);}.cls-111{fill:url(#linear-gradient-23);}.cls-112{fill:url(#linear-gradient-31);}.cls-113{clip-path:url(#clippath);}.cls-114{fill:url(#linear-gradient-63);}.cls-64{opacity:.64;}.cls-115{fill:url(#linear-gradient-99);}.cls-116{fill:url(#linear-gradient-18);}</style><filter id="drop-shadow-1" x="-15.28" y="-15.53" width="287.93" height="232.62" filterUnits="userSpaceOnUse"><feOffset dx="0" dy="0"/><feGaussianBlur result="blur" stdDeviation="5"/><feFlood flood-color="#000" flood-opacity=".5"/><feComposite in2="blur" operator="in"/><feComposite in="SourceGraphic"/></filter><linearGradient id="linear-gradient" x1="98.3" y1="-13.85" x2="98.3" y2="152.39" gradientUnits="userSpaceOnUse"><stop offset="0" stop-color="#fff6ff"/><stop offset=".06" stop-color="#f9e1fb"/><stop offset=".24" stop-color="#eca9f1"/><stop offset=".42" stop-color="#e17be9"/><stop offset=".59" stop-color="#d957e3"/><stop offset=".75" stop-color="#d33dde"/><stop offset=".89" stop-color="#cf2edb"/><stop offset="1" stop-color="#ce29db"/></linearGradient><linearGradient id="linear-gradient-2" x1="98.22" y1="-13.93" x2="98.22" y2="152.31" xlink:href="#linear-gradient"/><linearGradient id="linear-gradient-3" x1="98.13" y1="-14.02" x2="98.13" y2="152.22" xlink:href="#linear-gradient"/><linearGradient id="linear-gradient-4" x1="98.05" y1="-14.11" x2="98.05" y2="152.14" xlink:href="#linear-gradient"/><linearGradient id="linear-gradient-5" x1="97.96" y1="-14.19" x2="97.96" y2="152.05" xlink:href="#linear-gradient"/><linearGradient id="linear-gradient-6" x1="97.87" y1="-14.28" x2="97.87" y2="151.96" xlink:href="#linear-gradient"/><linearGradient id="linear-gradient-7" x1="97.79" y1="-14.36" x2="97.79" y2="151.88" xlink:href="#linear-gradient"/><linearGradient id="linear-gradient-8" x1="97.7" y1="-14.45" x2="97.7" y2="151.79" xlink:href="#linear-gradient"/><linearGradient id="linear-gradient-9" x1="97.62" y1="-14.54" x2="97.62" y2="151.7" xlink:href="#linear-gradient"/><linearGradient id="linear-gradient-10" x1="97.53" y1="-14.62" x2="97.53" y2="151.62" xlink:href="#linear-gradient"/><linearGradient id="linear-gradient-11" x1="97.44" y1="-14.71" x2="97.44" y2="151.53" xlink:href="#linear-gradient"/><linearGradient id="linear-gradient-12" x1="97.36" y1="-14.79" x2="97.36" y2="151.45" xlink:href="#linear-gradient"/><linearGradient id="linear-gradient-13" x1="97.27" y1="-14.88" x2="97.27" y2="151.36" xlink:href="#linear-gradient"/><linearGradient id="linear-gradient-14" x1="97.19" y1="-14.97" x2="97.19" y2="151.27" xlink:href="#linear-gradient"/><linearGradient id="linear-gradient-15" x1="97.1" y1="-15.05" x2="97.1" y2="151.19" xlink:href="#linear-gradient"/><linearGradient id="linear-gradient-16" x1="97.01" y1="-15.14" x2="97.01" y2="151.1" xlink:href="#linear-gradient"/><linearGradient id="linear-gradient-17" x1="96.93" y1="-15.22" x2="96.93" y2="151.02" xlink:href="#linear-gradient"/><linearGradient id="linear-gradient-18" x1="96.84" y1="-15.31" x2="96.84" y2="150.93" xlink:href="#linear-gradient"/><linearGradient id="linear-gradient-19" x1="96.76" y1="-15.4" x2="96.76" y2="150.84" xlink:href="#linear-gradient"/><linearGradient id="linear-gradient-20" x1="96.67" y1="-15.48" x2="96.67" y2="150.76" xlink:href="#linear-gradient"/><linearGradient id="linear-gradient-21" x1="96.58" y1="-15.57" x2="96.58" y2="150.67" xlink:href="#linear-gradient"/><linearGradient id="linear-gradient-22" x1="96.5" y1="-15.65" x2="96.5" y2="150.59" xlink:href="#linear-gradient"/><linearGradient id="linear-gradient-23" x1="96.41" y1="-15.74" x2="96.41" y2="150.5" xlink:href="#linear-gradient"/><linearGradient id="linear-gradient-24" x1="96.32" y1="-15.83" x2="96.32" y2="150.41" xlink:href="#linear-gradient"/><linearGradient id="linear-gradient-25" x1="96.24" y1="-15.91" x2="96.24" y2="150.33" xlink:href="#linear-gradient"/><linearGradient id="linear-gradient-26" x1="96.15" y1="-16" x2="96.15" y2="150.24" xlink:href="#linear-gradient"/><linearGradient id="linear-gradient-27" x1="96.07" y1="-16.09" x2="96.07" y2="150.16" xlink:href="#linear-gradient"/><linearGradient id="linear-gradient-28" x1="95.98" y1="-16.17" x2="95.98" y2="150.07" xlink:href="#linear-gradient"/><linearGradient id="linear-gradient-29" x1="95.89" y1="-16.26" x2="95.89" y2="149.98" xlink:href="#linear-gradient"/><linearGradient id="linear-gradient-30" x1="95.81" y1="-16.34" x2="95.81" y2="149.9" xlink:href="#linear-gradient"/><linearGradient id="linear-gradient-31" x1="95.72" y1="-16.43" x2="95.72" y2="149.81" xlink:href="#linear-gradient"/><linearGradient id="linear-gradient-32" x1="95.64" y1="-16.52" x2="95.64" y2="149.72" xlink:href="#linear-gradient"/><linearGradient id="linear-gradient-33" x1="95.55" y1="-16.6" x2="95.55" y2="149.64" xlink:href="#linear-gradient"/><linearGradient id="linear-gradient-34" x1="95.46" y1="-16.69" x2="95.46" y2="149.55" xlink:href="#linear-gradient"/><linearGradient id="linear-gradient-35" x1="95.38" y1="-16.77" x2="95.38" y2="149.47" xlink:href="#linear-gradient"/><linearGradient id="linear-gradient-36" x1="98.31" y1="29.39" x2="98.31" y2="167.56" gradientUnits="userSpaceOnUse"><stop offset="0" stop-color="#fff6ff"/><stop offset=".33" stop-color="#fef3fe"/><stop offset=".47" stop-color="#fcecfd"/><stop offset=".58" stop-color="#f9e0fb"/><stop offset=".67" stop-color="#f5cef7"/><stop offset=".75" stop-color="#efb6f3"/><stop offset=".82" stop-color="#e899ee"/><stop offset=".89" stop-color="#e077e8"/><stop offset=".95" stop-color="#d751e2"/><stop offset="1" stop-color="#ce29db"/></linearGradient><linearGradient id="linear-gradient-37" x1="98.22" y1="29.31" x2="98.22" y2="167.47" xlink:href="#linear-gradient-36"/><linearGradient id="linear-gradient-38" x1="98.13" y1="29.22" x2="98.13" y2="167.39" xlink:href="#linear-gradient-36"/><linearGradient id="linear-gradient-39" x1="98.05" y1="29.13" x2="98.05" y2="167.3" xlink:href="#linear-gradient-36"/><linearGradient id="linear-gradient-40" x1="97.96" y1="29.05" x2="97.96" y2="167.22" xlink:href="#linear-gradient-36"/><linearGradient id="linear-gradient-41" x1="97.88" y1="28.96" x2="97.88" y2="167.13" xlink:href="#linear-gradient-36"/><linearGradient id="linear-gradient-42" x1="97.79" y1="28.87" x2="97.79" y2="167.04" xlink:href="#linear-gradient-36"/><linearGradient id="linear-gradient-43" x1="97.7" y1="28.79" x2="97.7" y2="166.96" xlink:href="#linear-gradient-36"/><linearGradient id="linear-gradient-44" x1="97.62" y1="28.7" x2="97.62" y2="166.87" xlink:href="#linear-gradient-36"/><linearGradient id="linear-gradient-45" x1="97.53" y1="28.62" x2="97.53" y2="166.78" xlink:href="#linear-gradient-36"/><linearGradient id="linear-gradient-46" x1="97.45" y1="28.53" x2="97.45" y2="166.7" xlink:href="#linear-gradient-36"/><linearGradient id="linear-gradient-47" x1="97.36" y1="28.44" x2="97.36" y2="166.61" xlink:href="#linear-gradient-36"/><linearGradient id="linear-gradient-48" x1="97.27" y1="28.36" x2="97.27" y2="166.53" xlink:href="#linear-gradient-36"/><linearGradient id="linear-gradient-49" x1="97.19" y1="28.27" x2="97.19" y2="166.44" xlink:href="#linear-gradient-36"/><linearGradient id="linear-gradient-50" x1="97.1" y1="28.19" x2="97.1" y2="166.35" xlink:href="#linear-gradient-36"/><linearGradient id="linear-gradient-51" x1="97.02" y1="28.1" x2="97.02" y2="166.27" xlink:href="#linear-gradient-36"/><linearGradient id="linear-gradient-52" x1="96.93" y1="28.01" x2="96.93" y2="166.18" xlink:href="#linear-gradient-36"/><linearGradient id="linear-gradient-53" x1="96.84" y1="27.93" x2="96.84" y2="166.1" xlink:href="#linear-gradient-36"/><linearGradient id="linear-gradient-54" x1="96.76" y1="27.84" x2="96.76" y2="166.01" xlink:href="#linear-gradient-36"/><linearGradient id="linear-gradient-55" x1="96.67" y1="27.76" x2="96.67" y2="165.92" xlink:href="#linear-gradient-36"/><linearGradient id="linear-gradient-56" x1="96.59" y1="27.67" x2="96.59" y2="165.84" xlink:href="#linear-gradient-36"/><linearGradient id="linear-gradient-57" x1="96.5" y1="27.58" x2="96.5" y2="165.75" xlink:href="#linear-gradient-36"/><linearGradient id="linear-gradient-58" x1="96.41" y1="27.5" x2="96.41" y2="165.67" xlink:href="#linear-gradient-36"/><linearGradient id="linear-gradient-59" x1="96.33" y1="27.41" x2="96.33" y2="165.58" xlink:href="#linear-gradient-36"/><linearGradient id="linear-gradient-60" x1="96.24" y1="27.33" x2="96.24" y2="165.49" xlink:href="#linear-gradient-36"/><linearGradient id="linear-gradient-61" x1="96.15" y1="27.24" x2="96.15" y2="165.41" xlink:href="#linear-gradient-36"/><linearGradient id="linear-gradient-62" x1="96.07" y1="27.15" x2="96.07" y2="165.32" xlink:href="#linear-gradient-36"/><linearGradient id="linear-gradient-63" x1="95.98" y1="27.07" x2="95.98" y2="165.24" xlink:href="#linear-gradient-36"/><linearGradient id="linear-gradient-64" x1="95.9" y1="26.98" x2="95.9" y2="165.15" xlink:href="#linear-gradient-36"/><linearGradient id="linear-gradient-65" x1="95.81" y1="26.89" x2="95.81" y2="165.06" xlink:href="#linear-gradient-36"/><linearGradient id="linear-gradient-66" x1="95.72" y1="26.81" x2="95.72" y2="164.98" xlink:href="#linear-gradient-36"/><linearGradient id="linear-gradient-67" x1="95.64" y1="26.72" x2="95.64" y2="164.89" xlink:href="#linear-gradient-36"/><linearGradient id="linear-gradient-68" x1="95.55" y1="26.64" x2="95.55" y2="164.8" xlink:href="#linear-gradient-36"/><linearGradient id="linear-gradient-69" x1="95.47" y1="26.55" x2="95.47" y2="164.72" xlink:href="#linear-gradient-36"/><linearGradient id="linear-gradient-70" x1="95.38" y1="26.46" x2="95.38" y2="164.63" xlink:href="#linear-gradient-36"/><linearGradient id="linear-gradient-71" x1="98.31" y1="74.43" x2="98.31" y2="213.49" gradientUnits="userSpaceOnUse"><stop offset="0" stop-color="#2e094f"/><stop offset=".35" stop-color="#300950"/><stop offset=".5" stop-color="#370a57"/><stop offset=".62" stop-color="#430d62"/><stop offset=".71" stop-color="#551071"/><stop offset=".8" stop-color="#6d1586"/><stop offset=".87" stop-color="#8a1b9f"/><stop offset=".94" stop-color="#ab22bc"/><stop offset="1" stop-color="#ce29db"/></linearGradient><linearGradient id="linear-gradient-72" x1="98.22" y1="74.34" x2="98.22" y2="213.41" xlink:href="#linear-gradient-71"/><linearGradient id="linear-gradient-73" x1="98.14" y1="74.26" x2="98.14" y2="213.32" xlink:href="#linear-gradient-71"/><linearGradient id="linear-gradient-74" x1="98.05" y1="74.17" x2="98.05" y2="213.23" xlink:href="#linear-gradient-71"/><linearGradient id="linear-gradient-75" x1="97.96" y1="74.09" x2="97.96" y2="213.15" xlink:href="#linear-gradient-71"/><linearGradient id="linear-gradient-76" x1="97.88" y1="74" x2="97.88" y2="213.06" xlink:href="#linear-gradient-71"/><linearGradient id="linear-gradient-77" x1="97.79" y1="73.91" x2="97.79" y2="212.97" xlink:href="#linear-gradient-71"/><linearGradient id="linear-gradient-78" x1="97.71" y1="73.83" x2="97.71" y2="212.89" xlink:href="#linear-gradient-71"/><linearGradient id="linear-gradient-79" x1="97.62" y1="73.74" x2="97.62" y2="212.8" xlink:href="#linear-gradient-71"/><linearGradient id="linear-gradient-80" x1="97.53" y1="73.65" x2="97.53" y2="212.72" xlink:href="#linear-gradient-71"/><linearGradient id="linear-gradient-81" x1="97.45" y1="73.57" x2="97.45" y2="212.63" xlink:href="#linear-gradient-71"/><linearGradient id="linear-gradient-82" x1="97.36" y1="73.48" x2="97.36" y2="212.54" xlink:href="#linear-gradient-71"/><linearGradient id="linear-gradient-83" x1="97.28" y1="73.4" x2="97.28" y2="212.46" xlink:href="#linear-gradient-71"/><linearGradient id="linear-gradient-84" x1="97.19" y1="73.31" x2="97.19" y2="212.37" xlink:href="#linear-gradient-71"/><linearGradient id="linear-gradient-85" x1="97.1" y1="73.22" x2="97.1" y2="212.29" xlink:href="#linear-gradient-71"/><linearGradient id="linear-gradient-86" x1="97.02" y1="73.14" x2="97.02" y2="212.2" xlink:href="#linear-gradient-71"/><linearGradient id="linear-gradient-87" x1="96.93" y1="73.05" x2="96.93" y2="212.11" xlink:href="#linear-gradient-71"/><linearGradient id="linear-gradient-88" x1="96.85" y1="72.97" x2="96.85" y2="212.03" xlink:href="#linear-gradient-71"/><linearGradient id="linear-gradient-89" x1="96.76" y1="72.88" x2="96.76" y2="211.94" xlink:href="#linear-gradient-71"/><linearGradient id="linear-gradient-90" x1="96.67" y1="72.79" x2="96.67" y2="211.86" xlink:href="#linear-gradient-71"/><linearGradient id="linear-gradient-91" x1="96.59" y1="72.71" x2="96.59" y2="211.77" xlink:href="#linear-gradient-71"/><linearGradient id="linear-gradient-92" x1="96.5" y1="72.62" x2="96.5" y2="211.68" xlink:href="#linear-gradient-71"/><linearGradient id="linear-gradient-93" x1="96.41" y1="72.54" x2="96.41" y2="211.6" xlink:href="#linear-gradient-71"/><linearGradient id="linear-gradient-94" x1="96.33" y1="72.45" x2="96.33" y2="211.51" xlink:href="#linear-gradient-71"/><linearGradient id="linear-gradient-95" x1="96.24" y1="72.36" x2="96.24" y2="211.42" xlink:href="#linear-gradient-71"/><linearGradient id="linear-gradient-96" x1="96.16" y1="72.28" x2="96.16" y2="211.34" xlink:href="#linear-gradient-71"/><linearGradient id="linear-gradient-97" x1="96.07" y1="72.19" x2="96.07" y2="211.25" xlink:href="#linear-gradient-71"/><linearGradient id="linear-gradient-98" x1="95.98" y1="72.1" x2="95.98" y2="211.17" xlink:href="#linear-gradient-71"/><linearGradient id="linear-gradient-99" x1="95.9" y1="72.02" x2="95.9" y2="211.08" xlink:href="#linear-gradient-71"/><linearGradient id="linear-gradient-100" x1="95.81" y1="71.93" x2="95.81" y2="210.99" xlink:href="#linear-gradient-71"/><linearGradient id="linear-gradient-101" x1="95.73" y1="71.85" x2="95.73" y2="210.91" xlink:href="#linear-gradient-71"/><linearGradient id="linear-gradient-102" x1="95.64" y1="71.76" x2="95.64" y2="210.82" xlink:href="#linear-gradient-71"/><linearGradient id="linear-gradient-103" x1="95.55" y1="71.67" x2="95.55" y2="210.74" xlink:href="#linear-gradient-71"/><linearGradient id="linear-gradient-104" x1="95.47" y1="71.59" x2="95.47" y2="210.65" xlink:href="#linear-gradient-71"/><linearGradient id="linear-gradient-105" x1="95.38" y1="71.5" x2="95.38" y2="210.56" xlink:href="#linear-gradient-71"/><linearGradient id="linear-gradient-106" x1="54.48" y1="-29.73" x2="177.83" y2="224.11" gradientUnits="userSpaceOnUse"><stop offset="0" stop-color="#fff"/><stop offset=".29" stop-color="#e144b9"/><stop offset=".66" stop-color="#250455"/><stop offset=".72" stop-color="#240758"/><stop offset=".78" stop-color="#231265"/><stop offset=".84" stop-color="#222579"/><stop offset=".9" stop-color="#203e95"/><stop offset=".96" stop-color="#1e5fb8"/><stop offset=".99" stop-color="#1d72cd"/></linearGradient><clipPath id="clippath"><polygon id="SVGID" class="cls-2" points="3.58 16.47 187.19 94.3 78.42 169.14 3.58 16.47"/></clipPath><linearGradient id="linear-gradient-107" x1="95.39" y1="-4.93" x2="95.39" y2="131.75" gradientTransform="translate(63.5 -52.72) rotate(45)" gradientUnits="userSpaceOnUse"><stop offset="0" stop-color="#fff"/><stop offset="1" stop-color="#e144b9"/></linearGradient><radialGradient id="radial-gradient" cx="75.96" cy="21.7" fx="75.96" fy="21.7" r="108.19" gradientUnits="userSpaceOnUse"><stop offset="0" stop-color="#fff"/><stop offset=".29" stop-color="#e144b9"/><stop offset=".66" stop-color="#250455"/><stop offset=".72" stop-color="#240758"/><stop offset=".78" stop-color="#231265"/><stop offset=".84" stop-color="#222579"/><stop offset=".9" stop-color="#203e95"/><stop offset=".96" stop-color="#1e5fb8"/><stop offset=".99" stop-color="#1d72cd"/></radialGradient></defs><g class="cls-63"><g id="Capa_2"><g id="OBJECTS" class="cls-55"><polygon class="cls-110" points="2.93 16.01 193.68 96.87 80.68 174.62 2.93 16.01"/><polygon class="cls-18" points="2.84 15.92 193.6 96.78 80.6 174.53 2.84 15.92"/><polygon class="cls-53" points="2.76 15.83 193.51 96.7 80.51 174.45 2.76 15.83"/><polygon class="cls-43" points="2.67 15.75 193.42 96.61 80.42 174.36 2.67 15.75"/><polygon class="cls-56" points="2.58 15.66 193.34 96.52 80.34 174.28 2.58 15.66"/><polygon class="cls-94" points="2.5 15.57 193.25 96.44 80.25 174.19 2.5 15.57"/><polygon class="cls-85" points="2.41 15.49 193.17 96.35 80.16 174.1 2.41 15.49"/><polygon class="cls-71" points="2.32 15.4 193.08 96.27 80.08 174.02 2.32 15.4"/><polygon class="cls-86" points="2.24 15.32 192.99 96.18 79.99 173.93 2.24 15.32"/><polygon class="cls-26" points="2.15 15.23 192.91 96.09 79.91 173.85 2.15 15.23"/><polygon class="cls-89" points="2.07 15.14 192.82 96.01 79.82 173.76 2.07 15.14"/><polygon class="cls-27" points="1.98 15.06 192.74 95.92 79.73 173.67 1.98 15.06"/><polygon class="cls-6" points="1.89 14.97 192.65 95.84 79.65 173.59 1.89 14.97"/><polygon class="cls-77" points="1.81 14.89 192.56 95.75 79.56 173.5 1.81 14.89"/><polygon class="cls-5" points="1.72 14.8 192.48 95.66 79.48 173.42 1.72 14.8"/><polygon class="cls-109" points="1.64 14.71 192.39 95.58 79.39 173.33 1.64 14.71"/><polygon class="cls-83" points="1.55 14.63 192.3 95.49 79.3 173.24 1.55 14.63"/><polygon class="cls-116" points="1.46 14.54 192.22 95.4 79.22 173.16 1.46 14.54"/><polygon class="cls-90" points="1.38 14.46 192.13 95.32 79.13 173.07 1.38 14.46"/><polygon class="cls-80" points="1.29 14.37 192.05 95.23 79.05 172.99 1.29 14.37"/><polygon class="cls-98" points="1.21 14.28 191.96 95.15 78.96 172.9 1.21 14.28"/><polygon class="cls-59" points="1.12 14.2 191.87 95.06 78.87 172.81 1.12 14.2"/><polygon class="cls-111" points="1.03 14.11 191.79 94.97 78.79 172.73 1.03 14.11"/><polygon class="cls-60" points=".95 14.03 191.7 94.89 78.7 172.64 .95 14.03"/><polygon class="cls-24" points=".86 13.94 191.62 94.8 78.61 172.55 .86 13.94"/><polygon class="cls-39" points=".77 13.85 191.53 94.72 78.53 172.47 .77 13.85"/><polygon class="cls-29" points=".69 13.77 191.44 94.63 78.44 172.38 .69 13.77"/><polygon class="cls-8" points=".6 13.68 191.36 94.54 78.36 172.3 .6 13.68"/><polygon class="cls-79" points=".52 13.59 191.27 94.46 78.27 172.21 .52 13.59"/><polygon class="cls-45" points=".43 13.51 191.19 94.37 78.18 172.12 .43 13.51"/><polygon class="cls-112" points=".34 13.42 191.1 94.29 78.1 172.04 .34 13.42"/><polygon class="cls-106" points=".26 13.34 191.01 94.2 78.01 171.95 .26 13.34"/><polygon class="cls-67" points=".17 13.25 190.93 94.11 77.93 171.87 .17 13.25"/><polygon class="cls-54" points=".09 13.16 190.84 94.03 77.84 171.78 .09 13.16"/><polygon class="cls-44" points="0 13.08 190.75 93.94 77.75 171.69 0 13.08"/><polygon class="cls-97" points="3.82 16.85 192.79 96.96 80.85 173.98 3.82 16.85"/><polygon class="cls-31" points="3.74 16.77 192.71 96.87 80.76 173.9 3.74 16.77"/><polygon class="cls-57" points="3.65 16.68 192.62 96.79 80.68 173.81 3.65 16.68"/><polygon class="cls-34" points="3.56 16.59 192.53 96.7 80.59 173.73 3.56 16.59"/><polygon class="cls-28" points="3.48 16.51 192.45 96.61 80.5 173.64 3.48 16.51"/><polygon class="cls-108" points="3.39 16.42 192.36 96.53 80.42 173.55 3.39 16.42"/><polygon class="cls-12" points="3.31 16.34 192.27 96.44 80.33 173.47 3.31 16.34"/><polygon class="cls-23" points="3.22 16.25 192.19 96.36 80.25 173.38 3.22 16.25"/><polygon class="cls-50" points="3.13 16.16 192.1 96.27 80.16 173.29 3.13 16.16"/><polygon class="cls-99" points="3.05 16.08 192.02 96.18 80.07 173.21 3.05 16.08"/><polygon class="cls-13" points="2.96 15.99 191.93 96.1 79.99 173.12 2.96 15.99"/><polygon class="cls-38" points="2.88 15.91 191.84 96.01 79.9 173.04 2.88 15.91"/><polygon class="cls-104" points="2.79 15.82 191.76 95.93 79.82 172.95 2.79 15.82"/><polygon class="cls-52" points="2.7 15.73 191.67 95.84 79.73 172.86 2.7 15.73"/><polygon class="cls-84" points="2.62 15.65 191.59 95.75 79.64 172.78 2.62 15.65"/><polygon class="cls-70" points="2.53 15.56 191.5 95.67 79.56 172.69 2.53 15.56"/><polygon class="cls-36" points="2.45 15.48 191.41 95.58 79.47 172.61 2.45 15.48"/><polygon class="cls-11" points="2.36 15.39 191.33 95.49 79.38 172.52 2.36 15.39"/><polygon class="cls-62" points="2.27 15.3 191.24 95.41 79.3 172.43 2.27 15.3"/><polygon class="cls-33" points="2.19 15.22 191.16 95.32 79.21 172.35 2.19 15.22"/><polygon class="cls-22" points="2.1 15.13 191.07 95.24 79.13 172.26 2.1 15.13"/><polygon class="cls-73" points="2.01 15.04 190.98 95.15 79.04 172.18 2.01 15.04"/><polygon class="cls-37" points="1.93 14.96 190.9 95.06 78.95 172.09 1.93 14.96"/><polygon class="cls-88" points="1.84 14.87 190.81 94.98 78.87 172 1.84 14.87"/><polygon class="cls-15" points="1.76 14.79 190.72 94.89 78.78 171.92 1.76 14.79"/><polygon class="cls-4" points="1.67 14.7 190.64 94.81 78.7 171.83 1.67 14.7"/><polygon class="cls-78" points="1.58 14.61 190.55 94.72 78.61 171.74 1.58 14.61"/><polygon class="cls-114" points="1.5 14.53 190.47 94.63 78.52 171.66 1.5 14.53"/><polygon class="cls-21" points="1.41 14.44 190.38 94.55 78.44 171.57 1.41 14.44"/><polygon class="cls-9" points="1.33 14.36 190.29 94.46 78.35 171.49 1.33 14.36"/><polygon class="cls-72" points="1.24 14.27 190.21 94.38 78.27 171.4 1.24 14.27"/><polygon class="cls-82" points="1.15 14.18 190.12 94.29 78.18 171.31 1.15 14.18"/><polygon class="cls-30" points="1.07 14.1 190.04 94.2 78.09 171.23 1.07 14.1"/><polygon class="cls-10" points=".98 14.01 189.95 94.12 78.01 171.14 .98 14.01"/><polygon class="cls-14" points=".9 13.93 189.86 94.03 77.92 171.06 .9 13.93"/><polygon class="cls-49" points="4.72 17.7 191.9 97.05 81.02 173.35 4.72 17.7"/><polygon class="cls-42" points="4.63 17.61 191.81 96.96 80.93 173.26 4.63 17.61"/><polygon class="cls-48" points="4.55 17.53 191.73 96.88 80.84 173.17 4.55 17.53"/><polygon class="cls-40" points="4.46 17.44 191.64 96.79 80.76 173.09 4.46 17.44"/><polygon class="cls-32" points="4.37 17.36 191.56 96.7 80.67 173 4.37 17.36"/><polygon class="cls-46" points="4.29 17.27 191.47 96.62 80.58 172.92 4.29 17.27"/><polygon class="cls-74" points="4.2 17.18 191.38 96.53 80.5 172.83 4.2 17.18"/><polygon class="cls-69" points="4.12 17.1 191.3 96.45 80.41 172.74 4.12 17.1"/><polygon class="cls-68" points="4.03 17.01 191.21 96.36 80.33 172.66 4.03 17.01"/><polygon class="cls-92" points="3.94 16.93 191.13 96.27 80.24 172.57 3.94 16.93"/><polygon class="cls-102" points="3.86 16.84 191.04 96.19 80.15 172.48 3.86 16.84"/><polygon class="cls-25" points="3.77 16.75 190.95 96.1 80.07 172.4 3.77 16.75"/><polygon class="cls-95" points="3.68 16.67 190.87 96.02 79.98 172.31 3.68 16.67"/><polygon class="cls-103" points="3.6 16.58 190.78 95.93 79.9 172.23 3.6 16.58"/><polygon class="cls-100" points="3.51 16.49 190.69 95.84 79.81 172.14 3.51 16.49"/><polygon class="cls-107" points="3.43 16.41 190.61 95.76 79.72 172.05 3.43 16.41"/><polygon class="cls-20" points="3.34 16.32 190.52 95.67 79.64 171.97 3.34 16.32"/><polygon class="cls-76" points="3.25 16.24 190.44 95.59 79.55 171.88 3.25 16.24"/><polygon class="cls-35" points="3.17 16.15 190.35 95.5 79.47 171.8 3.17 16.15"/><polygon class="cls-66" points="3.08 16.06 190.26 95.41 79.38 171.71 3.08 16.06"/><polygon class="cls-58" points="3 15.98 190.18 95.33 79.29 171.62 3 15.98"/><polygon class="cls-65" points="2.91 15.89 190.09 95.24 79.21 171.54 2.91 15.89"/><polygon class="cls-16" points="2.82 15.81 190.01 95.15 79.12 171.45 2.82 15.81"/><polygon class="cls-61" points="2.74 15.72 189.92 95.07 79.03 171.37 2.74 15.72"/><polygon class="cls-17" points="2.65 15.63 189.83 94.98 78.95 171.28 2.65 15.63"/><polygon class="cls-51" points="2.57 15.55 189.75 94.9 78.86 171.19 2.57 15.55"/><polygon class="cls-41" points="2.48 15.46 189.66 94.81 78.78 171.11 2.48 15.46"/><polygon class="cls-101" points="2.39 15.38 189.58 94.72 78.69 171.02 2.39 15.38"/><polygon class="cls-115" points="2.31 15.29 189.49 94.64 78.6 170.93 2.31 15.29"/><polygon class="cls-19" points="2.22 15.2 189.4 94.55 78.52 170.85 2.22 15.2"/><polygon class="cls-91" points="2.13 15.12 189.32 94.47 78.43 170.76 2.13 15.12"/><polygon class="cls-105" points="2.05 15.03 189.23 94.38 78.35 170.68 2.05 15.03"/><polygon class="cls-75" points="1.96 14.94 189.14 94.29 78.26 170.59 1.96 14.94"/><polygon class="cls-87" points="1.88 14.86 189.06 94.21 78.17 170.5 1.88 14.86"/><polygon class="cls-96" points="1.79 14.77 188.97 94.12 78.09 170.42 1.79 14.77"/><polygon class="cls-81" points="1.79 14.77 188.97 94.12 78.09 170.42 1.79 14.77"/><g class="cls-113"><g class="cls-93"><path class="cls-1" d="M13.09-.53C8,1.06,5.07,6.64,4.61,11.96c-.46,5.32.97,10.6,1.77,15.88,3.33,21.88-4.77,45.18-20.95,60.28"/><path class="cls-1" d="M-13.02,90.34c1.39-1.39,2.8-2.84,4.15-4.29,1.36-1.46,2.66-2.94,3.9-4.47,2.68-3.32,5.05-6.87,7.08-10.59,1.45-2.65,2.74-5.39,3.82-8.27,1.17-3.11,2.07-6.37,2.72-9.66.75-3.81,1.19-7.68,1.34-11.56.15-3.87.01-7.76-.39-11.55-.02-.17-.04-.33-.05-.5-.6-5.34-1.75-10.56-1.05-15.77.7-5.22,3.83-10.65,9.08-12.27"/><path class="cls-1" d="M-11.47,92.57c1.36-1.46,2.81-2.96,4.22-4.43,1.42-1.47,2.79-2.93,4.1-4.43,2.83-3.26,5.35-6.75,7.55-10.4,1.57-2.61,2.98-5.3,4.16-8.2,1.28-3.14,2.23-6.49,2.9-9.88.78-3.92,1.22-7.9,1.41-11.88.19-3.98.13-7.96-.14-11.81-.01-.17-.02-.33-.04-.5-.41-5.4-1.26-10.55-.34-15.66.94-5.11,4.27-10.4,9.68-12.05"/><path class="cls-1" d="M-9.92,94.79c1.33-1.52,2.83-3.08,4.3-4.56,1.48-1.48,2.92-2.91,4.3-4.39,2.98-3.2,5.66-6.63,8.01-10.21,1.68-2.56,3.22-5.21,4.5-8.13,1.39-3.17,2.38-6.61,3.09-10.09.81-4.02,1.26-8.11,1.49-12.19.22-4.08.24-8.17.11-12.06,0-.17-.01-.34-.02-.51-.21-5.47-.79-10.55.38-15.56,1.17-5.01,4.71-10.16,10.27-11.82"/><path class="cls-1" d="M-8.37,97.01c1.3-1.59,2.84-3.21,4.37-4.69,1.54-1.49,3.05-2.9,4.5-4.34,3.13-3.14,5.96-6.5,8.48-10.02,1.8-2.51,3.46-5.11,4.84-8.06,1.49-3.2,2.54-6.74,3.27-10.3.84-4.12,1.3-8.32,1.56-12.51.26-4.18.35-8.38.36-12.32,0-.17,0-.34,0-.51-.01-5.53-.31-10.55,1.1-15.45,1.41-4.91,5.15-9.91,10.87-11.6"/><path class="cls-1" d="M-6.82,99.23c1.27-1.66,2.86-3.33,4.45-4.83,1.6-1.5,3.19-2.88,4.7-4.3,3.28-3.08,6.27-6.38,8.95-9.83,1.91-2.46,3.71-5.02,5.19-7.99,1.6-3.22,2.7-6.86,3.45-10.51.87-4.23,1.34-8.53,1.64-12.82.3-4.29.46-8.58.61-12.58,0-.17.01-.35.02-.52.19-5.59.17-10.55,1.81-15.34,1.64-4.8,5.59-9.66,11.46-11.38"/><path class="cls-1" d="M-5.27,101.46c1.24-1.72,2.87-3.45,4.52-4.96,1.66-1.51,3.32-2.86,4.9-4.26,3.43-3.02,6.57-6.26,9.41-9.64,2.03-2.42,3.95-4.92,5.53-7.92,1.71-3.25,2.85-6.98,3.63-10.72.9-4.33,1.37-8.75,1.71-13.14.34-4.39.57-8.79.86-12.84.01-.18.03-.35.04-.53.39-5.65.65-10.54,2.53-15.23,1.88-4.7,6.03-9.42,12.06-11.15"/><path class="cls-1" d="M-3.72,103.68c1.2-1.79,2.89-3.57,4.6-5.09,1.72-1.52,3.45-2.85,5.1-4.21,3.58-2.96,6.88-6.13,9.88-9.45,2.14-2.37,4.19-4.83,5.87-7.85,1.82-3.28,3.01-7.1,3.82-10.94.93-4.44,1.41-8.96,1.79-13.46.38-4.49.68-8.99,1.11-13.09.02-.18.04-.36.06-.53.58-5.71,1.14-10.54,3.25-15.12,2.12-4.6,6.47-9.17,12.66-10.93"/><path class="cls-1" d="M-2.17,105.9c1.17-1.86,2.9-3.7,4.68-5.22,1.78-1.53,3.58-2.83,5.3-4.17,3.73-2.9,7.18-6.01,10.35-9.26,2.26-2.32,4.43-4.73,6.21-7.78,1.93-3.3,3.17-7.23,4-11.15.96-4.54,1.45-9.17,1.87-13.77.42-4.6.8-9.2,1.36-13.35.02-.18.05-.36.07-.54.78-5.78,1.62-10.54,3.96-15.01,2.36-4.49,6.91-8.92,13.25-10.71"/><path class="cls-1" d="M-.62,108.13c1.14-1.92,2.92-3.82,4.75-5.36,1.84-1.54,3.71-2.82,5.5-4.13,3.88-2.84,7.49-5.89,10.81-9.07,2.37-2.27,4.67-4.64,6.55-7.72,2.03-3.33,3.33-7.35,4.18-11.36.99-4.64,1.49-9.39,1.94-14.09.46-4.7.91-9.41,1.61-13.61.03-.18.06-.37.09-.55.99-5.84,2.1-10.54,4.68-14.9,2.6-4.39,7.35-8.68,13.85-10.48"/><path class="cls-1" d="M.93,110.35c1.11-1.99,2.93-3.94,4.83-5.49,1.9-1.55,3.84-2.8,5.7-4.08,4.03-2.78,7.8-5.76,11.28-8.88,2.49-2.23,4.92-4.55,6.89-7.65,2.14-3.36,3.48-7.47,4.36-11.57,1.02-4.75,1.52-9.6,2.02-14.4.49-4.8,1.02-9.61,1.86-13.87.04-.19.07-.37.11-.55,1.19-5.9,2.58-10.54,5.4-14.79,2.84-4.29,7.8-8.43,14.45-10.26"/><path class="cls-1" d="M2.49,112.57c1.08-2.05,2.95-4.06,4.9-5.62,1.95-1.56,3.97-2.78,5.9-4.04,4.18-2.72,8.1-5.64,11.75-8.69,2.6-2.18,5.16-4.45,7.23-7.58,2.25-3.39,3.64-7.59,4.55-11.79,1.05-4.85,1.56-9.81,2.09-14.72.53-4.91,1.13-9.82,2.11-14.12.04-.19.09-.37.13-.56,1.39-5.96,3.07-10.54,6.11-14.69,3.07-4.19,8.24-8.18,15.04-10.03"/><path class="cls-1" d="M4.04,114.8c1.05-2.12,2.96-4.19,4.98-5.76,2.01-1.57,4.1-2.77,6.1-4,4.33-2.66,8.41-5.52,12.22-8.5,2.72-2.13,5.4-4.36,7.58-7.51,2.36-3.41,3.8-7.71,4.73-12,1.08-4.96,1.6-10.02,2.17-15.04.57-5.01,1.24-10.03,2.36-14.38.05-.19.1-.38.15-.56,1.59-6.02,3.55-10.54,6.83-14.58,3.31-4.08,8.68-7.93,15.64-9.81"/><path class="cls-1" d="M5.59,117.02c1.02-2.19,2.98-4.31,5.05-5.89,2.07-1.58,4.23-2.75,6.3-3.95,4.48-2.6,8.71-5.39,12.68-8.31,2.83-2.08,5.64-4.26,7.92-7.44,2.47-3.44,3.95-7.84,4.91-12.21,1.11-5.06,1.63-10.24,2.24-15.35.61-5.11,1.35-10.23,2.61-14.64.05-.19.11-.38.17-.57,1.79-6.08,4.03-10.53,7.55-14.47,3.55-3.98,9.12-7.69,16.24-9.59"/><path class="cls-1" d="M7.14,119.24c.99-2.25,3-4.43,5.13-6.02,2.13-1.59,4.36-2.74,6.5-3.91,4.63-2.54,9.02-5.27,13.15-8.12,2.95-2.04,5.88-4.17,8.26-7.37,2.57-3.47,4.11-7.96,5.09-12.42,1.14-5.16,1.67-10.45,2.32-15.67.65-5.22,1.47-10.44,2.86-14.89.06-.19.12-.39.18-.58,1.98-6.14,4.52-10.53,8.26-14.36,3.79-3.88,9.56-7.44,16.83-9.36"/><path class="cls-1" d="M8.69,121.46c.96-2.32,3.01-4.56,5.2-6.16,2.19-1.6,4.49-2.72,6.7-3.87,4.78-2.48,9.32-5.15,13.62-7.93,3.06-1.99,6.12-4.07,8.6-7.3,2.68-3.49,4.27-8.08,5.28-12.63,1.17-5.27,1.71-10.66,2.4-15.98.69-5.32,1.58-10.65,3.11-15.15.07-.2.14-.39.2-.58,2.18-6.2,5-10.53,8.98-14.25,4.04-3.77,10-7.19,17.43-9.14"/><path class="cls-1" d="M10.24,123.69c.93-2.39,3.03-4.68,5.28-6.29,2.25-1.61,4.62-2.7,6.9-3.82,4.93-2.42,9.63-5.02,14.08-7.74,3.18-1.94,6.37-3.98,8.94-7.23,2.79-3.52,4.42-8.2,5.46-12.85,1.2-5.37,1.75-10.87,2.47-16.3.72-5.42,1.69-10.85,3.36-15.41.07-.2.15-.4.22-.59,2.38-6.26,5.49-10.53,9.7-14.14,4.28-3.67,10.44-6.95,18.02-8.91"/><path class="cls-1" d="M11.79,125.91c.9-2.45,3.04-4.8,5.35-6.42,2.31-1.62,4.75-2.69,7.1-3.78,5.08-2.37,9.93-4.9,14.55-7.55,3.29-1.89,6.61-3.89,9.28-7.16,2.9-3.55,4.58-8.32,5.64-13.06,1.23-5.48,1.78-11.09,2.55-16.62.76-5.53,1.8-11.06,3.61-15.67.08-.2.16-.4.24-.6,2.58-6.32,5.97-10.53,10.41-14.03,4.52-3.57,10.88-6.7,18.62-8.69"/><path class="cls-1" d="M13.34,128.13c.87-2.52,3.06-4.92,5.43-6.55,2.37-1.63,4.88-2.67,7.3-3.74,5.23-2.31,10.24-4.77,15.02-7.36,3.41-1.84,6.85-3.79,9.62-7.09,3.01-3.58,4.74-8.45,5.82-13.27,1.26-5.58,1.82-11.3,2.62-16.93.8-5.63,1.91-11.26,3.86-15.92.09-.2.17-.4.26-.6,2.78-6.39,6.46-10.52,11.13-13.93,4.76-3.46,11.32-6.45,19.22-8.47"/><path class="cls-1" d="M14.89,130.36c.83-2.58,3.07-5.05,5.5-6.69,2.43-1.64,5.01-2.66,7.5-3.69,5.38-2.25,10.55-4.65,15.48-7.17,3.52-1.8,7.09-3.7,9.97-7.02,3.11-3.6,4.89-8.57,6.01-13.48,1.28-5.68,1.86-11.51,2.7-17.25.84-5.73,2.02-11.47,4.11-16.18.09-.21.18-.41.28-.61,2.98-6.45,6.94-10.52,11.85-13.82,5-3.36,11.76-6.2,19.81-8.24"/><path class="cls-1" d="M16.44,132.58c.8-2.65,3.09-5.17,5.58-6.82,2.49-1.65,5.15-2.64,7.7-3.65,5.53-2.19,10.85-4.53,15.95-6.98,3.64-1.75,7.33-3.6,10.31-6.95,3.22-3.63,5.05-8.69,6.19-13.69,1.31-5.79,1.9-11.73,2.77-17.56.88-5.84,2.13-11.68,4.36-16.44.1-.21.2-.41.29-.62,3.17-6.51,7.43-10.52,12.56-13.71,5.24-3.26,12.21-5.96,20.41-8.02"/><path class="cls-1" d="M17.99,134.8c.77-2.72,3.1-5.29,5.65-6.95,2.55-1.66,5.28-2.62,7.89-3.61,5.68-2.13,11.16-4.4,16.42-6.79,3.75-1.7,7.58-3.51,10.65-6.88,3.33-3.66,5.21-8.81,6.37-13.91,1.34-5.89,1.93-11.94,2.85-17.88.92-5.94,2.25-11.88,4.61-16.7.1-.21.21-.42.31-.62,3.37-6.57,7.91-10.52,13.28-13.6,5.48-3.15,12.65-5.71,21.01-7.8"/><path class="cls-1" d="M19.54,137.03c.74-2.78,3.12-5.41,5.73-7.09,2.61-1.67,5.41-2.61,8.09-3.56,5.83-2.07,11.46-4.28,16.88-6.6,3.87-1.65,7.82-3.41,10.99-6.82,3.44-3.68,5.37-8.94,6.55-14.12,1.37-6,1.97-12.15,2.93-18.2.96-6.04,2.36-12.09,4.86-16.95.11-.21.22-.42.33-.63,3.57-6.63,8.4-10.51,13.99-13.49,5.72-3.05,13.09-5.46,21.6-7.57"/><path class="cls-1" d="M21.09,139.25c.71-2.85,3.13-5.54,5.8-7.22,2.67-1.68,5.54-2.59,8.29-3.52,5.98-2.01,11.77-4.16,17.35-6.41,3.98-1.61,8.06-3.32,11.33-6.75,3.55-3.71,5.52-9.06,6.73-14.33,1.4-6.1,2.01-12.36,3-18.51.99-6.15,2.47-12.3,5.11-17.21.12-.21.23-.43.35-.63,3.77-6.69,8.88-10.51,14.71-13.38,5.97-2.94,13.53-5.22,22.2-7.35"/><path class="cls-1" d="M22.64,141.47c.68-2.92,3.15-5.66,5.88-7.35,2.73-1.7,5.67-2.58,8.49-3.48,6.13-1.95,12.07-4.03,17.82-6.22,4.1-1.56,8.3-3.23,11.67-6.68,3.65-3.74,5.68-9.18,6.92-14.54,1.43-6.2,2.05-12.58,3.08-18.83,1.03-6.25,2.58-12.5,5.36-17.47.12-.22.24-.43.37-.64,3.97-6.75,9.37-10.5,15.43-13.27,6.21-2.84,13.97-4.97,22.8-7.12"/><path class="cls-1" d="M24.2,143.69c.65-2.98,3.16-5.78,5.95-7.48,2.79-1.71,5.8-2.56,8.69-3.43,6.28-1.89,12.38-3.91,18.28-6.03,4.21-1.51,8.54-3.13,12.01-6.61,3.76-3.77,5.84-9.3,7.1-14.75,1.46-6.31,2.08-12.79,3.15-19.14,1.07-6.35,2.69-12.71,5.61-17.73.13-.22.26-.43.39-.65,4.16-6.82,9.85-10.5,16.14-13.17,6.45-2.73,14.41-4.72,23.39-6.9"/><path class="cls-1" d="M25.75,145.92c.62-3.05,3.18-5.9,6.03-7.62,2.85-1.72,5.93-2.55,8.89-3.39,6.43-1.83,12.68-3.79,18.75-5.84,4.33-1.46,8.79-3.04,12.36-6.54,3.87-3.79,5.99-9.42,7.28-14.97,1.49-6.41,2.12-13,3.23-19.46,1.11-6.46,2.8-12.91,5.86-17.98.13-.22.27-.44.4-.65,4.36-6.88,10.34-10.5,16.86-13.06,6.69-2.63,14.85-4.47,23.99-6.68"/><path class="cls-1" d="M27.3,148.14c.59-3.11,3.19-6.03,6.1-7.75,2.91-1.73,6.06-2.53,9.09-3.35,6.58-1.77,12.99-3.66,19.22-5.65,4.44-1.42,9.03-2.94,12.7-6.47,3.98-3.82,6.15-9.55,7.46-15.18,1.52-6.52,2.16-13.22,3.3-19.78,1.15-6.56,2.92-13.12,6.11-18.24.14-.22.28-.44.42-.66,4.55-6.95,10.82-10.49,17.58-12.95,6.93-2.52,15.29-4.23,24.58-6.45"/><path class="cls-1" d="M28.85,150.36c.56-3.18,3.21-6.15,6.18-7.88,2.97-1.74,6.19-2.51,9.29-3.3,6.73-1.71,13.3-3.54,19.69-5.46,4.56-1.37,9.27-2.85,13.04-6.4,4.08-3.85,6.31-9.67,7.65-15.39,1.55-6.62,2.19-13.43,3.38-20.09,1.19-6.66,3.03-13.33,6.36-18.5.15-.23.29-.45.44-.67,4.74-7.01,11.31-10.49,18.29-12.84,7.17-2.41,15.73-3.98,25.18-6.23"/><path class="cls-1" d="M30.4,152.59c.53-3.25,3.23-6.27,6.25-8.02,3.03-1.75,6.32-2.5,9.49-3.26,6.88-1.65,13.6-3.42,20.15-5.27,4.67-1.32,9.51-2.76,13.38-6.33,4.19-3.87,6.46-9.79,7.83-15.6,1.58-6.72,2.23-13.64,3.46-20.41,1.22-6.77,3.14-13.53,6.61-18.76.15-.23.3-.45.46-.67,4.94-7.07,11.79-10.48,19.01-12.73,7.41-2.31,16.18-3.73,25.78-6.01"/><path class="cls-1" d="M31.95,154.81c.49-3.31,3.24-6.39,6.33-8.15,3.09-1.76,6.45-2.48,9.69-3.21,7.03-1.59,13.91-3.29,20.62-5.08,4.79-1.27,9.75-2.66,13.72-6.26,4.3-3.9,6.62-9.91,8.01-15.82,1.61-6.83,2.27-13.85,3.53-20.72,1.26-6.87,3.25-13.74,6.86-19.01.16-.23.32-.46.48-.68,5.14-7.13,12.28-10.48,19.73-12.62,7.65-2.2,16.62-3.49,26.37-5.78"/><path class="cls-1" d="M33.5,157.03c.46-3.38,3.26-6.52,6.4-8.28,3.15-1.77,6.58-2.47,9.89-3.17,7.18-1.53,14.21-3.17,21.09-4.89,4.9-1.23,9.99-2.57,14.06-6.19,4.41-3.93,6.78-10.04,8.19-16.03,1.64-6.93,2.31-14.07,3.61-21.04,1.3-6.97,3.36-13.95,7.11-19.27.16-.23.33-.46.5-.69,5.34-7.2,12.76-10.47,20.44-12.51,7.9-2.1,17.06-3.24,26.97-5.56"/><path class="cls-1" d="M35.05,159.26c.43-3.44,3.27-6.64,6.48-8.41,3.21-1.78,6.71-2.45,10.09-3.13,7.33-1.47,14.52-3.05,21.55-4.7,5.02-1.18,10.24-2.47,14.4-6.12,4.52-3.96,6.94-10.16,8.38-16.24,1.67-7.04,2.34-14.28,3.68-21.36,1.34-7.08,3.47-14.15,7.35-19.53.17-.23.34-.47.52-.69,5.54-7.26,13.25-10.47,21.16-12.41,8.14-1.99,17.5-2.99,27.57-5.33"/><path class="cls-1" d="M36.6,161.48c.4-3.51,3.29-6.76,6.55-8.55,3.27-1.79,6.84-2.43,10.29-3.08,7.48-1.41,14.82-2.92,22.02-4.51,5.13-1.13,10.48-2.38,14.75-6.05,4.62-3.98,7.09-10.28,8.56-16.45,1.7-7.14,2.38-14.49,3.76-21.67,1.38-7.18,3.59-14.36,7.6-19.79.18-.24.35-.47.53-.7,5.73-7.32,13.73-10.46,21.88-12.3,8.38-1.88,17.94-2.74,28.16-5.11"/><path class="cls-1" d="M38.15,163.7c.37-3.58,3.3-6.88,6.63-8.68,3.33-1.8,6.97-2.42,10.49-3.04,7.63-1.35,15.13-2.8,22.49-4.32,5.25-1.08,10.72-2.28,15.09-5.98,4.73-4.01,7.25-10.4,8.74-16.66,1.73-7.24,2.42-14.7,3.83-21.99,1.42-7.28,3.7-14.57,7.85-20.04.18-.24.37-.47.55-.7,5.93-7.38,14.22-10.46,22.59-12.19,8.62-1.78,18.38-2.5,28.76-4.89"/><path class="cls-1" d="M39.7,165.92c.34-3.64,3.32-7.01,6.7-8.81,3.39-1.81,7.11-2.4,10.69-3,7.78-1.29,15.43-2.68,22.95-4.13,5.36-1.04,10.96-2.19,15.43-5.92,4.84-4.04,7.41-10.52,8.92-16.88,1.76-7.35,2.46-14.92,3.91-22.3,1.46-7.39,3.81-14.77,8.1-20.3.19-.24.38-.48.57-.71,6.13-7.44,14.7-10.45,23.31-12.08,8.86-1.67,18.82-2.25,29.36-4.66"/><path class="cls-1" d="M41.25,168.15c.31-3.71,3.33-7.13,6.78-8.95,3.45-1.82,7.24-2.39,10.89-2.95,7.93-1.23,15.74-2.55,23.42-3.94,5.48-.99,11.2-2.1,15.77-5.85,4.95-4.06,7.56-10.65,9.11-17.09,1.79-7.45,2.49-15.13,3.99-22.62,1.49-7.49,3.92-14.98,8.35-20.56.19-.24.39-.48.59-.72,6.33-7.5,15.19-10.45,24.03-11.97,9.1-1.57,19.26-2,29.95-4.44"/><path class="cls-1" d="M42.8,170.37c.28-3.78,3.35-7.25,6.85-9.08,3.51-1.83,7.37-2.37,11.09-2.91,8.08-1.17,16.05-2.43,23.89-3.75,5.59-.94,11.45-2,16.11-5.78,5.06-4.09,7.72-10.77,9.29-17.3,1.81-7.56,2.53-15.34,4.06-22.94,1.53-7.59,4.03-15.18,8.6-20.82.2-.25.4-.49.61-.72,6.53-7.57,15.67-10.44,24.74-11.86,9.34-1.46,19.7-1.76,30.55-4.22"/><path class="cls-1" d="M44.35,172.59c.25-3.84,3.36-7.38,6.93-9.21,3.57-1.84,7.5-2.35,11.29-2.87,8.23-1.11,16.35-2.31,24.35-3.56,5.71-.89,11.69-1.91,16.45-5.71,5.16-4.12,7.88-10.89,9.47-17.51,1.84-7.66,2.57-15.56,4.14-23.25,1.57-7.7,4.14-15.39,8.85-21.07.21-.25.41-.49.63-.73,6.72-7.63,16.16-10.44,25.46-11.75,9.58-1.35,20.15-1.51,31.14-3.99"/><path class="cls-1" d="M45.91,174.82c.22-3.91,3.38-7.5,7-9.34,3.63-1.85,7.63-2.34,11.49-2.82,8.38-1.05,16.66-2.18,24.82-3.37,5.82-.85,11.93-1.81,16.79-5.64,5.27-4.15,8.03-11.01,9.65-17.72,1.87-7.76,2.6-15.77,4.21-23.57,1.61-7.8,4.26-15.6,9.1-21.33.21-.25.43-.5.64-.74,6.92-7.69,16.64-10.44,26.18-11.64,9.82-1.25,20.59-1.26,31.74-3.77"/><path class="cls-1" d="M47.46,177.04c.19-3.97,3.39-7.62,7.08-9.48,3.69-1.86,7.76-2.32,11.69-2.78,8.53-.99,16.96-2.06,25.29-3.18,5.94-.8,12.17-1.72,17.14-5.57,5.38-4.17,8.19-11.13,9.84-17.94,1.9-7.87,2.64-15.98,4.29-23.88,1.65-7.9,4.37-15.8,9.35-21.59.22-.25.44-.5.66-.74,7.12-7.75,17.12-10.43,26.89-11.54,10.06-1.14,21.03-1.02,32.34-3.54"/><path class="cls-1" d="M49.01,179.26c.15-4.04,3.41-7.74,7.15-9.61,3.75-1.87,7.89-2.31,11.89-2.74,8.68-.93,17.27-1.94,25.76-2.99,6.05-.75,12.41-1.62,17.48-5.5,5.49-4.2,8.35-11.26,10.02-18.15,1.93-7.97,2.68-16.19,4.36-24.2,1.69-8.01,4.48-16.01,9.6-21.85.22-.25.45-.5.68-.75,7.32-7.81,17.61-10.42,27.61-11.43,10.3-1.03,21.47-.77,32.93-3.32"/><path class="cls-1" d="M50.56,181.49c.12-4.11,3.43-7.87,7.23-9.74,3.8-1.88,8.02-2.29,12.09-2.69,8.83-.87,17.57-1.81,26.22-2.8,6.17-.7,12.65-1.53,17.82-5.43,5.6-4.23,8.5-11.38,10.2-18.36,1.96-8.08,2.72-16.41,4.44-24.52,1.72-8.11,4.59-16.22,9.85-22.1.23-.26.46-.51.7-.75,7.52-7.87,18.09-10.42,28.32-11.32,10.54-.93,21.91-.52,33.53-3.1"/><path class="cls-1" d="M52.11,183.71c.09-4.17,3.44-7.99,7.3-9.88,3.86-1.89,8.15-2.28,12.29-2.65,8.98-.81,17.88-1.69,26.69-2.61,6.28-.66,12.9-1.44,18.16-5.36,5.7-4.25,8.66-11.5,10.38-18.57,1.99-8.18,2.75-16.62,4.52-24.83,1.76-8.21,4.7-16.42,10.1-22.36.24-.26.47-.51.72-.76,7.71-7.94,18.58-10.39,29.04-11.21,10.79-.8,22.35-.27,34.13-2.87"/><path class="cls-1" d="M53.66,185.93c.06-4.24,3.46-8.11,7.38-10.01,3.92-1.9,8.28-2.26,12.49-2.61,9.13-.75,18.18-1.57,27.16-2.42,6.4-.61,13.14-1.34,18.5-5.29,5.81-4.28,8.82-11.62,10.57-18.79,2.02-8.28,2.79-16.83,4.59-25.15,1.8-8.32,4.81-16.63,10.35-22.62.24-.26.49-.52.74-.77,7.91-8,19.06-10.39,29.76-11.1,11.03-.69,22.79-.03,34.72-2.65"/><path class="cls-1" d="M55.21,188.15c.03-4.31,3.47-8.23,7.45-10.14,3.98-1.91,8.41-2.24,12.69-2.56,9.28-.69,18.49-1.44,27.62-2.23,6.51-.56,13.38-1.25,18.84-5.22,5.92-4.31,8.98-11.75,10.75-19,2.05-8.39,2.83-17.05,4.67-25.47,1.84-8.42,4.92-16.83,10.6-22.87.25-.26.5-.52.75-.77,8.11-8.06,19.55-10.39,30.47-10.99,11.27-.59,23.23.22,35.32-2.42"/><path class="cls-1" d="M56.76,190.38c0-4.37,3.49-8.36,7.53-10.27,4.04-1.92,8.54-2.23,12.89-2.52,9.43-.63,18.8-1.32,28.09-2.04,6.63-.51,13.62-1.15,19.18-5.15,6.03-4.34,9.13-11.87,10.93-19.21,2.08-8.49,2.87-17.26,4.74-25.78,1.88-8.52,5.04-17.04,10.85-23.13.25-.27.51-.53.77-.78,8.31-8.12,20.03-10.38,31.19-10.88,11.51-.48,23.67.47,35.92-2.2"/><path class="cls-1" d="M58.31,192.6c-.03-4.44,3.5-8.48,7.6-10.41,4.1-1.93,8.67-2.21,13.09-2.48,9.58-.58,19.1-1.2,28.56-1.85,6.74-.47,13.86-1.06,19.53-5.08,6.14-4.36,9.29-11.99,11.11-19.42,2.11-8.6,2.9-17.47,4.82-26.1,1.92-8.63,5.15-17.25,11.1-23.39.26-.27.52-.53.79-.79,8.51-8.18,20.51-10.38,31.91-10.78,11.75-.38,24.12.71,36.51-1.98"/><path class="cls-1" d="M59.86,194.82c-.06-4.5,3.52-8.6,7.68-10.54,4.16-1.94,8.8-2.2,13.29-2.43,9.73-.52,19.41-1.07,29.02-1.66,6.86-.42,14.11-.96,19.87-5.02,6.24-4.39,9.45-12.11,11.3-19.63,2.14-8.7,2.94-17.68,4.9-26.41,1.95-8.73,5.26-17.45,11.35-23.65.27-.27.54-.53.81-.79,8.7-8.24,21-10.37,32.62-10.67,11.99-.27,24.56.96,37.11-1.75"/><path class="cls-1" d="M61.41,197.05c-.09-4.57,3.53-8.72,7.75-10.67,4.22-1.95,8.93-2.18,13.49-2.39,9.88-.46,19.71-.95,29.49-1.47,6.97-.37,14.35-.87,20.21-4.95,6.35-4.42,9.6-12.23,11.48-19.85,2.17-8.8,2.98-17.9,4.97-26.73,1.99-8.83,5.37-17.66,11.6-23.9.27-.27.55-.54.83-.8,8.9-8.31,21.48-10.37,33.34-10.56,12.23-.17,25,1.21,37.71-1.53"/><path class="cls-1" d="M62.96,199.27c-.12-4.64,3.55-8.85,7.83-10.81,4.28-1.96,9.07-2.16,13.69-2.35,10.03-.4,20.02-.82,29.96-1.28,7.09-.32,14.59-.78,20.55-4.88,6.46-4.44,9.76-12.36,11.66-20.06,2.2-8.91,3.01-18.11,5.05-27.05,2.03-8.94,5.48-17.87,11.85-24.16.28-.27.56-.54.85-.81,9.1-8.37,21.97-10.37,34.06-10.45,12.47-.06,25.44,1.46,38.3-1.31"/><path class="cls-1" d="M64.51,201.49c-.15-4.7,3.56-8.97,7.91-10.94,4.34-1.97,9.2-2.15,13.89-2.3,10.18-.34,20.32-.7,30.42-1.09,7.2-.27,14.83-.68,20.89-4.81,6.57-4.47,9.92-12.48,11.84-20.27,2.23-9.01,3.05-18.32,5.12-27.36,2.07-9.04,5.59-18.07,12.1-24.42.28-.28.57-.55.86-.81,9.3-8.43,22.45-10.36,34.77-10.34,12.71.04,25.88,1.7,38.9-1.08"/><path class="cls-1" d="M66.06,203.72c-.18-4.77,3.58-9.09,7.98-11.07,4.4-1.98,9.33-2.13,14.09-2.26,10.33-.28,20.63-.58,30.89-.9,7.32-.23,15.07-.59,21.23-4.74,6.68-4.5,10.07-12.6,12.03-20.48,2.26-9.12,3.09-18.53,5.2-27.68,2.11-9.14,5.71-18.28,12.35-24.68.29-.28.58-.55.88-.82,9.5-8.49,22.93-10.36,35.49-10.23,12.95.15,26.32,1.95,39.49-.86"/><path class="cls-1" d="M67.62,205.94c-.22-4.83,3.59-9.21,8.06-11.2,4.46-1.99,9.46-2.12,14.29-2.22,10.48-.22,20.93-.45,31.36-.71,7.43-.18,15.32-.49,21.57-4.67,6.78-4.53,10.23-12.72,12.21-20.69,2.29-9.22,3.13-18.75,5.27-27.99,2.15-9.25,5.82-18.49,12.6-24.93.3-.28.6-.56.9-.82,9.7-8.55,23.42-10.36,36.21-10.12,13.19.25,26.76,2.2,40.09-.63"/><path class="cls-1" d="M69.17,208.16c-.25-4.9,3.61-9.34,8.13-11.34,4.52-2,9.59-2.1,14.49-2.17,10.63-.16,21.24-.33,31.82-.52,7.55-.13,15.56-.4,21.92-4.6,6.89-4.55,10.39-12.84,12.39-20.91,2.32-9.32,3.16-18.96,5.35-28.31s5.93-18.69,12.85-25.19c.3-.28.61-.56.92-.83,9.89-8.61,23.9-10.35,36.92-10.02,13.43.36,27.2,2.44,40.69-.41"/><path class="cls-1" d="M70.72,210.38c-.28-4.97,3.62-9.46,8.21-11.47,4.58-2.01,9.72-2.08,14.69-2.13,10.78-.1,21.54-.21,32.29-.33,7.66-.08,15.8-.3,22.26-4.53,7-4.58,10.55-12.97,12.57-21.12,2.34-9.43,3.2-19.17,5.43-28.63,2.22-9.45,6.04-18.9,13.1-25.45.31-.29.62-.56.94-.84,10.09-8.68,24.39-10.35,37.64-9.91,13.67.46,27.64,2.69,41.28-.19"/><path class="cls-1" d="M72.27,212.61c-.31-5.03,3.64-9.58,8.28-11.6,4.64-2.02,9.85-2.07,14.89-2.09,10.93-.04,21.85-.08,32.76-.14,7.78-.04,16.04-.21,22.6-4.46,7.11-4.61,10.7-13.09,12.76-21.33,2.37-9.53,3.24-19.39,5.5-28.94s6.15-19.1,13.35-25.71c.31-.29.63-.57.96-.84,10.29-8.74,24.87-10.34,38.36-9.8,13.91.57,28.09,2.94,41.88.04"/><path class="cls-1" d="M73.82,214.83c-.34-5.1,3.66-9.7,8.36-11.74s9.98-2.05,15.09-2.04c11.08.02,22.16.04,33.23.05,7.89.01,16.28-.12,22.94-4.39,7.22-4.63,10.86-13.21,12.94-21.54,2.4-9.64,3.28-19.6,5.58-29.26s6.26-19.31,13.6-25.96c.32-.29.64-.57.97-.85,10.49-8.8,25.35-10.34,39.07-9.69,14.15.67,28.53,3.19,42.48.26"/><path class="cls-1" d="M75.37,217.05c-.37-5.17,3.67-9.83,8.43-11.87s10.11-2.04,15.29-2c11.23.08,22.46.16,33.69.24,8.01.06,16.52-.02,23.28-4.32,7.32-4.66,11.02-13.33,13.12-21.75,2.43-9.74,3.31-19.81,5.65-29.57s6.38-19.52,13.85-26.22c10.73-9.62,26.39-11.22,40.78-10.44,14.39.78,28.97,3.43,43.07.48"/></g></g><circle class="cls-7" cx="95.39" cy="50.29" r="50.29" transform="translate(-7.62 82.18) rotate(-45)"/><circle class="cls-47" cx="95.39" cy="50.29" r="47.85"/><g class="cls-64"><path class="cls-3" d="M114.23,77.57c19.98-16.1,27.74-41.37,17.34-56.43-12.44-13.27-38.72-10.97-58.7,5.14,10.4,15.06,28.93,38.03,41.36,51.3Z"/><path class="cls-3" d="M129.91,59.13c-6.28-6.7-19.54-5.53-29.62,2.59"/><path class="cls-3" d="M136.13,38.88c-10.74-11.45-33.43-9.47-50.68,4.43"/><path class="cls-3" d="M114.23,77.57c10.97-20.6,11.44-49.52,1.03-64.58"/><path class="cls-3" d="M114.23,77.57c-.65-19.58-9.62-47.67-20.03-62.73"/><path class="cls-3" d="M114.23,77.57c-12.44-13.26-30.96-36.24-41.36-51.3-19.98,16.1-26.1,39.91-13.66,53.18,10.4,15.06,35.04,14.22,55.02-1.88Z"/><path class="cls-3" d="M100.29,61.72c-10.08,8.13-13.17,20.14-6.89,26.84"/><path class="cls-3" d="M85.45,43.32c-17.25,13.9-22.53,34.46-11.79,45.92"/><path class="cls-3" d="M114.23,77.57c-20.82-3.33-46.14-18.24-56.55-33.3"/><path class="cls-3" d="M114.23,77.57c-23.53,7.21-51.04.84-61.45-14.22"/><path class="cls-3" d="M114.23,77.57c-19.98,16.1-44.62,16.94-55.02,1.88,12.44,13.27,38.72,10.97,58.7-5.14,10.4,15.06,8.76,16.52-3.68,3.26Z"/><path class="cls-3" d="M93.4,88.56c6.28,6.7,19.54,5.53,29.62-2.59"/><path class="cls-3" d="M73.66,89.23c10.74,11.45,33.43,9.47,50.68-4.43"/><path class="cls-3" d="M114.23,77.57c-10.97,20.6-28.31,25.08-38.71,10.02"/><path class="cls-3" d="M114.23,77.57c.65,19.58-7.25,23.24-17.66,8.18"/><path class="cls-3" d="M114.23,77.57c12.44,13.26,14.08,11.81,3.68-3.26,19.98-16.1,26.1-39.91,13.66-53.18,10.4,15.06,2.64,40.33-17.34,56.43Z"/><path class="cls-3" d="M123.02,85.97c10.08-8.13,13.17-20.14,6.89-26.84"/><path class="cls-3" d="M124.34,84.8c17.25-13.9,22.53-34.46,11.79-45.92"/><path class="cls-3" d="M114.23,77.57c20.82,3.33,29.27-6.19,18.87-21.25"/><path class="cls-3" d="M114.23,77.57c23.53-7.21,34.17-25.27,23.77-40.33"/><path class="cls-3" d="M131.57,21.14c-10.41-15.07-35.04-14.22-55.02,1.88-12.44-13.26-14.09-11.82-3.68,3.26,19.98-16.1,46.26-18.4,58.7-5.14Z"/><path class="cls-3" d="M117.12,11.35C106.38-.11,83.68,1.88,66.43,15.78"/><path class="cls-3" d="M115.26,12.99c-10.41-15.07-27.74-10.57-38.71,10.02"/><path class="cls-3" d="M94.2,14.84c-10.41-15.07-18.31-11.4-17.66,8.18"/><path class="cls-3" d="M72.87,26.27c-10.41-15.07-8.76-16.52,3.68-3.26-19.98,16.1-27.75,41.36-17.34,56.43-12.44-13.27-6.32-37.07,13.66-53.18Z"/><path class="cls-3" d="M66.43,15.78c-17.25,13.9-22.53,34.46-11.79,45.92"/><path class="cls-3" d="M57.68,44.27c-10.41-15.07-1.95-24.58,18.87-21.25"/><path class="cls-3" d="M52.78,63.35c-10.41-15.07.24-33.12,23.77-40.33"/><path class="cls-3" d="M59.21,79.45c-10.41-15.07-2.64-40.33,17.34-56.43,12.44,13.26,30.95,36.23,41.36,51.3-19.98,16.1-46.26,18.4-58.7,5.14Z"/><path class="cls-3" d="M54.64,61.7c10.74,11.45,33.43,9.47,50.68-4.43"/><path class="cls-3" d="M75.51,87.59c-10.41-15.07-9.94-43.98,1.03-64.58"/><path class="cls-3" d="M96.57,85.75c-10.41-15.07-19.37-43.16-20.03-62.73"/><path class="cls-3" d="M117.91,74.31c-10.41-15.07-28.93-38.03-41.36-51.3,19.98-16.1,44.61-16.95,55.02-1.88,12.44,13.27,6.32,37.07-13.66,53.18Z"/><path class="cls-3" d="M105.32,57.26c17.25-13.9,22.53-34.46,11.79-45.92"/><path class="cls-3" d="M133.09,56.32c-10.41-15.07-35.73-29.98-56.55-33.3"/><path class="cls-3" d="M137.99,37.24c-10.41-15.07-37.92-21.43-61.45-14.22"/></g></g></g></g></svg>