<?xml version="1.0" encoding="UTF-8"?>
<svg id="Capa_2" xmlns="http://www.w3.org/2000/svg" xmlns:xlink="http://www.w3.org/1999/xlink" viewBox="0 0 38.88 37">
  <defs>
    <style>
      .cls-1 {
        fill: #ffeb6b;
      }

      .cls-2 {
        fill: #fbb454;
      }

      .cls-3 {
        fill: #f9975e;
      }

      .cls-4 {
        fill: #ffec70;
      }

      .cls-5 {
        fill: #f13481;
      }

      .cls-6 {
        fill: #f66f6c;
      }

      .cls-7 {
        fill: #f56570;
      }

      .cls-8 {
        fill: #ffe851;
      }

      .cls-9 {
        fill: #ffed75;
      }

      .cls-10 {
        fill: #ffe959;
      }

      .cls-11 {
        fill: #fdc84d;
      }

      .cls-12 {
        fill: #f02088;
      }

      .cls-13 {
        fill: #f45b73;
      }

      .cls-14 {
        fill: #ffeb69;
      }

      .cls-15 {
        fill: #ffe957;
      }

      .cls-16 {
        fill: #ffea5e;
      }

      .cls-17 {
        fill: #f45177;
      }

      .cls-18 {
        fill: #ffed78;
      }

      .cls-19 {
        fill: #ffec73;
      }

      .cls-20 {
        fill: #faab57;
      }

      .cls-21 {
        filter: none;
      }

      .cls-22 {
        fill: #fedc46;
      }

      .cls-23 {
        fill: #f3487a;
      }

      .cls-24 {
        fill: #f78365;
      }

      .cls-25 {
        fill: #ffe74c;
      }

      .cls-26 {
        fill: #f23e7e;
      }

      .cls-27 {
        fill: #ffea61;
      }

      .cls-28 {
        fill: #f88d62;
      }

      .cls-29 {
        fill: #ffea63;
      }

      .cls-30 {
        fill: #ffe645;
      }

      .cls-31 {
        fill: #ffec6e;
      }

      .cls-32 {
        fill: #ffe854;
      }

      .cls-33 {
        fill: #fdd249;
      }

      .cls-34 {
        fill: #ffe642;
      }

      .cls-35 {
        fill: #f12a85;
      }

      .cls-36 {
        fill: #ffe95c;
      }

      .cls-37 {
        fill: #ef168c;
      }

      .cls-38 {
        fill: #f77969;
      }

      .cls-39 {
        fill: #ffe84f;
      }

      .cls-40 {
        fill: #fcbe50;
      }

      .cls-41 {
        fill: #ffe747;
      }

      .cls-42 {
        fill: #ffeb66;
      }

      .cls-43 {
        fill: #faa15b;
      }

      .cls-44 {
        fill: #ffe74a;
      }
    </style>
  </defs>
  <g id="Layer_1">
    <g class="cls-21">
      <circle class="cls-37" cx="14.85" cy="16.24" r="14.85" transform="translate(-6.58 11.23) rotate(-34.41)" />
      <circle class="cls-12" cx="14.66" cy="16" r="14.48" transform="translate(-6.45 10.99) rotate(-34.14)" />
      <circle class="cls-35" cx="14.48" cy="15.76" r="14.1" transform="translate(-6.32 10.72) rotate(-33.81)" />
      <circle class="cls-5" cx="14.29" cy="15.52" r="13.73" transform="translate(-6.18 10.42) rotate(-33.36)" />
      <circle class="cls-26" cx="14.11" cy="15.28" r="13.36" transform="translate(-6.02 10.06) rotate(-32.76)" />
      <circle class="cls-23" cx="13.92" cy="15.04" r="12.99" transform="translate(-5.84 9.63) rotate(-31.9)" />
      <circle class="cls-17" cx="13.73" cy="14.8" r="12.62" transform="translate(-5.62 9.04) rotate(-30.55)" />
      <circle class="cls-13" cx="13.55" cy="14.56" r="12.24" transform="translate(-5.27 8.13) rotate(-28.19)" />
      <circle class="cls-7" cx="13.36" cy="14.32" r="11.87" transform="translate(-4.54 6.38) rotate(-23.08)" />
      <circle class="cls-6" cx="13.17" cy="14.08" r="11.5" />
      <circle class="cls-38" cx="12.99" cy="13.84" r="11.13" />
      <circle class="cls-24" cx="12.8" cy="13.6" r="10.75" transform="translate(-5.85 14.58) rotate(-49.74)" />
      <circle class="cls-28" cx="12.61" cy="13.36" r="10.38" transform="translate(-5.75 12.83) rotate(-45)" />
      <circle class="cls-3" cx="12.43" cy="13.12" r="10.01" transform="translate(-5.6 11.9) rotate(-42.69)" />
      <circle class="cls-43" cx="12.24" cy="12.88" r="9.64" transform="translate(-5.46 11.31) rotate(-41.4)" />
      <circle class="cls-20" cx="12.06" cy="12.64" r="9.27" transform="translate(-5.32 10.87) rotate(-40.56)" />
      <path class="cls-2"
        d="M20.7,13.45c-.58,4.88-5,8.36-9.88,7.78-4.88-.58-8.36-5-7.78-9.88.58-4.88,5-8.36,9.88-7.78s8.36,5,7.78,9.88Z" />
      <path class="cls-40"
        d="M20.15,13.16c-.55,4.67-4.79,8.01-9.47,7.46-4.67-.55-8.01-4.79-7.46-9.47.55-4.67,4.79-8.01,9.47-7.46s8.01,4.79,7.46,9.47Z" />
      <path class="cls-11"
        d="M19.59,12.88c-.53,4.47-4.58,7.66-9.05,7.13-4.47-.53-7.66-4.58-7.13-9.05.53-4.47,4.58-7.66,9.05-7.13s7.66,4.58,7.13,9.05Z" />
      <path class="cls-33"
        d="M19.03,12.59c-.51,4.27-4.37,7.31-8.64,6.81-4.27-.51-7.31-4.37-6.81-8.64.51-4.27,4.37-7.31,8.64-6.81s7.31,4.37,6.81,8.64Z" />
      <path class="cls-22"
        d="M18.48,12.31c-.48,4.06-4.16,6.96-8.23,6.48-4.06-.48-6.96-4.16-6.48-8.23.48-4.06,4.17-6.96,8.23-6.48s6.96,4.16,6.48,8.23Z" />
      <path class="cls-34"
        d="M17.92,12.03c-.46,3.86-3.96,6.61-7.81,6.16-3.86-.46-6.61-3.96-6.16-7.81.46-3.86,3.96-6.61,7.81-6.16s6.61,3.96,6.16,7.81Z" />
      <path class="cls-30"
        d="M17.55,11.85c-.44,3.71-3.81,6.37-7.52,5.93-3.71-.44-6.37-3.81-5.93-7.52.44-3.71,3.81-6.37,7.52-5.93,3.71.44,6.37,3.81,5.93,7.52Z" />
      <path class="cls-41"
        d="M17.18,11.67c-.42,3.57-3.66,6.12-7.23,5.7-3.57-.42-6.12-3.66-5.7-7.23.42-3.57,3.66-6.12,7.23-5.7,3.57.42,6.12,3.66,5.7,7.23Z" />
      <path class="cls-44"
        d="M16.82,11.49c-.41,3.43-3.51,5.87-6.94,5.47-3.43-.41-5.87-3.51-5.47-6.94.41-3.43,3.51-5.87,6.94-5.47,3.43.41,5.87,3.51,5.47,6.94Z" />
      <path class="cls-25"
        d="M16.45,11.31c-.39,3.28-3.37,5.63-6.65,5.24-3.28-.39-5.63-3.37-5.24-6.65.39-3.28,3.37-5.63,6.65-5.24,3.28.39,5.63,3.37,5.24,6.65Z" />
      <path class="cls-39"
        d="M16.08,11.13c-.37,3.14-3.22,5.38-6.36,5.01-3.14-.37-5.38-3.22-5.01-6.36.37-3.14,3.22-5.38,6.36-5.01,3.14.37,5.38,3.22,5.01,6.36Z" />
      <path class="cls-8"
        d="M15.71,10.95c-.36,2.99-3.07,5.13-6.06,4.78-2.99-.36-5.13-3.07-4.78-6.06.36-2.99,3.07-5.13,6.06-4.78,2.99.36,5.13,3.07,4.78,6.06Z" />
      <path class="cls-32"
        d="M15.34,10.77c-.34,2.85-2.92,4.89-5.77,4.55-2.85-.34-4.89-2.92-4.55-5.77.34-2.85,2.92-4.89,5.77-4.55,2.85.34,4.89,2.92,4.55,5.77Z" />
      <path class="cls-15"
        d="M14.97,10.59c-.32,2.71-2.77,4.64-5.48,4.32-2.71-.32-4.64-2.77-4.32-5.48.32-2.71,2.78-4.64,5.48-4.32,2.71.32,4.64,2.78,4.32,5.48Z" />
      <path class="cls-10"
        d="M14.6,10.41c-.3,2.56-2.63,4.39-5.19,4.09-2.56-.3-4.39-2.63-4.09-5.19.3-2.56,2.63-4.39,5.19-4.09,2.56.3,4.39,2.63,4.09,5.19Z" />
      <path class="cls-36"
        d="M14.24,10.23c-.29,2.42-2.48,4.15-4.9,3.86-2.42-.29-4.15-2.48-3.86-4.9.29-2.42,2.48-4.15,4.9-3.86,2.42.29,4.15,2.48,3.86,4.9Z" />
      <path class="cls-16"
        d="M13.87,10.05c-.27,2.27-2.33,3.9-4.61,3.63-2.27-.27-3.9-2.33-3.63-4.61.27-2.27,2.33-3.9,4.61-3.63,2.27.27,3.9,2.33,3.63,4.61Z" />
      <path class="cls-27"
        d="M13.5,9.87c-.25,2.13-2.18,3.65-4.32,3.4-2.13-.25-3.65-2.18-3.4-4.32.25-2.13,2.18-3.65,4.32-3.4,2.13.25,3.65,2.18,3.4,4.32Z" />
      <path class="cls-29"
        d="M13.13,9.69c-.24,1.99-2.04,3.41-4.02,3.17-1.99-.24-3.41-2.04-3.17-4.02.24-1.99,2.04-3.41,4.02-3.17,1.99.24,3.41,2.04,3.17,4.02Z" />
      <path class="cls-42"
        d="M12.76,9.51c-.22,1.84-1.89,3.16-3.73,2.94-1.84-.22-3.16-1.89-2.94-3.73.22-1.84,1.89-3.16,3.73-2.94,1.84.22,3.16,1.89,2.94,3.73Z" />
      <path class="cls-14"
        d="M12.39,9.33c-.2,1.7-1.74,2.91-3.44,2.71-1.7-.2-2.91-1.74-2.71-3.44.2-1.7,1.74-2.91,3.44-2.71,1.7.2,2.91,1.74,2.71,3.44Z" />
      <path class="cls-1"
        d="M12.03,9.15c-.18,1.55-1.59,2.67-3.15,2.48-1.55-.18-2.67-1.59-2.48-3.15.18-1.55,1.59-2.67,3.15-2.48,1.55.18,2.67,1.59,2.48,3.15Z" />
      <path class="cls-31"
        d="M11.66,8.97c-.17,1.41-1.45,2.42-2.86,2.25-1.41-.17-2.42-1.45-2.25-2.86.17-1.41,1.45-2.42,2.86-2.25,1.41.17,2.42,1.45,2.25,2.86Z" />
      <path class="cls-4"
        d="M11.29,8.79c-.15,1.27-1.3,2.17-2.57,2.02-1.27-.15-2.17-1.3-2.02-2.57.15-1.27,1.3-2.17,2.57-2.02,1.27.15,2.17,1.3,2.02,2.57Z" />
      <path class="cls-19"
        d="M10.92,8.61c-.13,1.12-1.15,1.93-2.27,1.79-1.12-.13-1.93-1.15-1.79-2.27.13-1.12,1.15-1.93,2.27-1.79,1.12.13,1.93,1.15,1.79,2.27Z" />
      <path class="cls-9"
        d="M10.55,8.43c-.12.98-1,1.68-1.98,1.56-.98-.12-1.68-1-1.56-1.98.12-.98,1-1.68,1.98-1.56.98.12,1.68,1,1.56,1.98Z" />
      <path class="cls-18"
        d="M10.18,8.25c-.1.84-.86,1.43-1.69,1.33-.84-.1-1.43-.86-1.33-1.69.1-.84.86-1.43,1.69-1.33.84.1,1.43.86,1.33,1.69Z" />
    </g>
  </g>
</svg>