<?xml version="1.0" encoding="UTF-8"?>
<svg id="Capa_2" xmlns="http://www.w3.org/2000/svg" xmlns:xlink="http://www.w3.org/1999/xlink"
  viewBox="0 0 36.46 34.41">
  <defs>
    <style>
      .cls-1 {
        fill: url(#linear-gradient-2);
      }

      .cls-2 {
        filter: none;
      }

      .cls-3 {
        fill: url(#linear-gradient);
      }
    </style>
    <linearGradient id="linear-gradient" x1="4.39" y1="6.33" x2="38.39" y2="6.33"
      gradientTransform="translate(6.75 37.17) rotate(-72.31)" gradientUnits="userSpaceOnUse">
      <stop offset="0" stop-color="#b80064" />
      <stop offset=".35" stop-color="#d03961" />
      <stop offset=".79" stop-color="#ed7e5e" />
      <stop offset="1" stop-color="#f99a5d" />
    </linearGradient>
    <linearGradient id="linear-gradient-2" x1="7.22" y1="3.07" x2="40.64" y2="3.07"
      gradientTransform="translate(6.75 37.17) rotate(-72.31)" gradientUnits="userSpaceOnUse">
      <stop offset="0" stop-color="#ef168c" />
      <stop offset=".1" stop-color="#f13481" />
      <stop offset=".34" stop-color="#f6736a" />
      <stop offset=".55" stop-color="#f9a459" />
      <stop offset=".73" stop-color="#fcc84c" />
      <stop offset=".88" stop-color="#fede44" />
      <stop offset=".98" stop-color="#ffe642" />
    </linearGradient>
  </defs>
  <g id="Layer_1">
    <g class="cls-2">
      <path class="cls-3"
        d="M4.07,28.88c.12.2.25.4.38.6,4.28,6.22,14.5,6.61,22.81.89,8.32-5.73,11.59-15.41,7.31-21.63-.08-.11-.16-.22-.24-.33l-2.33-3.46-1.08.51c-5.08-2.81-12.69-2.05-19.16,2.4C5.76,11.98,2.39,18.17,2.58,23.63l-.99.18-.67.12,3.16,4.94ZM8.9,19.89c.93-2.77,3.08-5.47,5.9-7.42,1.96-1.35,4.12-2.28,6.26-2.68,3.57-.66,6.67.2,8.08,2.26,1.39,2.02.84,4.56.39,5.89-.93,2.77-3.08,5.47-5.9,7.42-1.96,1.35-4.12,2.28-6.26,2.68-3.57.66-6.67-.2-8.08-2.26-1.39-2.02-.84-4.56-.39-5.89Z" />
      <path class="cls-1"
        d="M1.88,25.68c4.28,6.22,14.5,6.61,22.81.89,8.32-5.73,11.59-15.41,7.31-21.63-4.28-6.22-14.5-6.61-22.81-.89C.87,9.78-2.4,19.46,1.88,25.68ZM6.33,16.1c.93-2.77,3.08-5.47,5.9-7.42,1.96-1.35,4.12-2.28,6.26-2.68,3.57-.66,6.67.2,8.08,2.26,1.39,2.02.84,4.56.39,5.89-.93,2.77-3.08,5.47-5.9,7.42-1.96,1.35-4.12,2.28-6.26,2.68-3.57.66-6.67-.2-8.08-2.26-1.39-2.02-.84-4.56-.39-5.89Z" />
    </g>
  </g>
</svg>