<?xml version="1.0" encoding="UTF-8"?>
<svg id="Capa_2" xmlns="http://www.w3.org/2000/svg" xmlns:xlink="http://www.w3.org/1999/xlink"
  viewBox="0 0 114.58 238.3">
  <defs>
    <style>
      .cls-1 {
        fill: aqua;
      }

      .cls-2 {
        fill: #29abe2;
      }

      .cls-3 {
        fill: #fff;
      }

      .cls-4 {
        filter: none;
      }

      .cls-5 {
        fill: #862291;
      }

      .cls-6 {
        fill: #1b1464;
      }

      .cls-7 {
        fill: #fcee21;
      }

      .cls-8 {
        fill: #ed1e79;
      }
    </style>
  </defs>
  <g id="_0">
    <g class="cls-4">
      <path class="cls-3"
        d="M114.23,65.05c-.72-1.89-2.42-3.18-4.44-3.36l-2.02-.19-.99-1.77c-.93-1.66-2.69-2.69-4.6-2.69-.07,0-.15,0-.27,0-2.02.11-3.77,1.32-4.57,3.18l-.8,1.86-1.99.4c-1.07.21-2.02.74-2.75,1.48v-20.22c1.55-1.2,2.31-3.12,1.98-5.07l-.81-4.71,3.42-3.34c1.45-1.41,1.96-3.48,1.33-5.4-.62-1.92-2.26-3.3-4.26-3.59l-4.73-.69-2.12-4.29c-.89-1.81-2.71-2.94-4.73-2.94s-3.83,1.13-4.73,2.94l-2.12,4.29-4.73.69c-.94.14-1.8.52-2.52,1.08l-.09-.43,4.29-4.52c1.39-1.47,1.82-3.55,1.12-5.45-.7-1.9-2.38-3.21-4.39-3.42l-6.2-.66-2.97-5.48c-.92-1.7-2.7-2.76-4.63-2.76-.05,0-.17,0-.21,0-2.02.08-3.79,1.27-4.61,3.12l-2.54,5.69-6.13,1.14c-1.99.37-3.56,1.81-4.11,3.75-.55,1.95.04,4,1.54,5.35l4.63,4.17-.81,6.18c-.01.08-.02.16-.03.24l-2.96-.43-2.08-4.22c-.89-1.81-2.71-2.94-4.73-2.94s-3.83,1.13-4.73,2.94l-2.08,4.22-4.65.68c-2,.29-3.63,1.67-4.26,3.59-.62,1.92-.11,3.99,1.33,5.4l3.37,3.28-.79,4.63c-.34,1.99.46,3.97,2.1,5.16,1.45,1.05,3.36,1.29,5.02.65v2.86c-.82-.68-1.85-1.11-2.98-1.2l-4.06-.3-2.05-3.52c-.94-1.61-2.69-2.62-4.55-2.62-.11,0-.22,0-.37.01-2.02.14-3.75,1.39-4.51,3.26l-1.54,3.77-3.98.86c-1.98.43-3.51,1.91-4,3.87-.49,1.96.16,3.99,1.71,5.3l3.1,2.63-.41,4.05c-.2,2.01.74,3.93,2.45,5,.83.52,1.79.79,2.76.8v6.93c0,1.16.39,2.28,1.08,3.19-.7.91-1.08,2.03-1.08,3.19v5.83c0,2.44,1.68,4.53,3.98,5.11v.24c0,.11,0,.23.01.34-2.28.58-3.99,2.67-3.99,5.11v27.14c0,2,1.13,3.75,2.79,4.65-1.67.89-2.79,2.65-2.79,4.65v5.69c0,1.68.79,3.23,2.11,4.21-1.12,3.99-1.87,8.27-2.23,12.75-.07.96-.13,1.82-.15,2.61-.59,12.78,1.98,23.13,2.09,23.57.02.09.05.18.08.3.18.56,1.92,5.6,8.28,10.52,7.74,5.99,18.83,9.35,32.98,10l.59,16.65c.1,2.81,2.38,5.04,5.27,5.09,2.77,0,5.08-2.16,5.26-4.93l.28-4.21c.94.56,1.98,1.03,3.12,1.38.3,4.57,1.16,7.37,2.77,9.03,1.17,1.21,2.72,1.87,4.36,1.87.21,0,.42-.01.62-.03,2.36-.25,4.12-1.58,5.24-3.97.21,0,.43,0,.66-.03,3.72-.37,5.76-3.36,6.08-8.88,5.64-2.65,9.15-6.49,9.98-10.88,8.88-5.48,11.89-11.63,12.2-12.33.18-.4.31-.82.39-1.25.07-.39,1.7-9.62,1.17-21.32-.03-.76-.08-1.57-.15-2.48v-.42s-.03-.03-.03-.03c-.55-7.33-1.92-14.01-4.08-19.85-.36-.98-.7-1.83-1.04-2.62-.07-.17-.15-.34-.22-.51,1.43-.97,2.31-2.59,2.31-4.36v-68.94c.98-.12,1.93-.51,2.71-1.14,1.57-1.27,2.27-3.29,1.83-5.26l-.45-1.98,1.38-1.49c1.37-1.48,1.78-3.58,1.05-5.47ZM95.74,80c.44.29.92.51,1.43.65v11.85l-.5-1c-.89-1.81-2.71-2.94-4.73-2.94-.05,0-.1,0-.14,0v-17.23c.09.1.19.19.29.28l1.52,1.34-.24,2.02c-.24,2.01.67,3.94,2.36,5.04ZM97.16,115.19v25.89c-1.9-1.99-4-3.75-6.26-5.26.58-.86.89-1.88.89-2.92v-19.7l.14-.08,2.77,1.46c.75.39,1.6.6,2.45.6ZM64.65,53.17v-18.48c.89-.14,1.73-.5,2.45-1.07.64-.5,1.14-1.13,1.48-1.83l.82.8v19.75c-1.6-.49-3.45-.16-4.76.83ZM67.03,97.58c-.54.01-1.07.11-1.56.28l-.82.27v-19.8c.14-.06.28-.12.41-.19l2.77-1.46,1.57.83v20.59c-.69-.33-1.46-.5-2.25-.5h-.13ZM67.16,98.6h0s0,0,0,0ZM20.31,107.95v-.63c0-.11,0-.22-.01-.34,2.1-.53,3.71-2.34,3.95-4.52.05.04.09.07.14.11,1.11.8,2.47,1.14,3.8.96,0,9.74-.06,23.21-.18,25.7-1.31.98-2.55,2.03-3.73,3.14v-19.32c0-2.44-1.68-4.53-3.98-5.11ZM28.2,79.52c-.07.12-.14.24-.2.37l-1.39,2.81-2.32.34v-4.38c0-.85-.21-1.68-.6-2.43.58-.21,1.12-.51,1.59-.91,1.55-1.3,2.21-3.33,1.73-5.29l-.97-3.95,2.15-2.41v15.85Z" />
      <path class="cls-1"
        d="M19.02,140.48c-.67,0-1.22-.54-1.22-1.22v-26.2c0-.67.54-1.22,1.22-1.22s1.22.54,1.22,1.22v26.2c0,.67-.54,1.22-1.22,1.22Z" />
      <path class="cls-1"
        d="M19.02,103.09c-.67,0-1.22-.54-1.22-1.22v-23.23c0-.67.54-1.22,1.22-1.22s1.22.54,1.22,1.22v23.23c0,.67-.54,1.22-1.22,1.22Z" />
      <path class="cls-1"
        d="M15.04,150.67c-.67,0-1.22-.54-1.22-1.22v-5.69c0-.67.54-1.22,1.22-1.22s1.22.54,1.22,1.22v5.69c0,.67-.54,1.22-1.22,1.22Z" />
      <path class="cls-1"
        d="M15.04,135.68c-.67,0-1.22-.54-1.22-1.22v-27.15c0-.67.54-1.22,1.22-1.22s1.22.54,1.22,1.22v27.15c0,.67-.54,1.22-1.22,1.22Z" />
      <path class="cls-1"
        d="M15.04,97.74c-.67,0-1.22-.54-1.22-1.22v-5.83c0-.67.54-1.22,1.22-1.22s1.22.54,1.22,1.22v5.83c0,.67-.54,1.22-1.22,1.22Z" />
      <path class="cls-1"
        d="M15.04,85.53c-.67,0-1.22-.54-1.22-1.22v-21.71c0-.67.54-1.22,1.22-1.22s1.22.54,1.22,1.22v21.71c0,.67-.54,1.22-1.22,1.22Z" />
      <path class="cls-1"
        d="M33.47,124.98c-.67,0-1.22-.54-1.22-1.22V36.86c0-.67.54-1.22,1.22-1.22s1.22.54,1.22,1.22v86.91c0,.67-.54,1.22-1.22,1.22Z" />
      <path class="cls-1"
        d="M38.81,124.98c-.67,0-1.22-.54-1.22-1.22V40.63c0-.67.54-1.22,1.22-1.22s1.22.54,1.22,1.22v83.14c0,.67-.54,1.22-1.22,1.22Z" />
      <path class="cls-1"
        d="M59.38,101.13c-.67,0-1.22-.54-1.22-1.22V20.83c0-.67.54-1.22,1.22-1.22s1.22.54,1.22,1.22v79.09c0,.67-.54,1.22-1.22,1.22Z" />
      <path class="cls-1"
        d="M55.29,68.03c-.67,0-1.22-.54-1.22-1.22V12.81c0-.67.54-1.22,1.22-1.22s1.22.54,1.22,1.22v54.01c0,.67-.54,1.22-1.22,1.22Z" />
      <path class="cls-1"
        d="M50.41,46.27c-.67,0-1.22-.54-1.22-1.22v-24.22c0-.67.54-1.22,1.22-1.22s1.22.54,1.22,1.22v24.22c0,.67-.54,1.22-1.22,1.22Z" />
      <path class="cls-1"
        d="M86.52,134.12c-.67,0-1.22-.54-1.22-1.22V28.34c0-.67.54-1.22,1.22-1.22s1.22.54,1.22,1.22v104.56c0,.67-.54,1.22-1.22,1.22Z" />
      <path class="cls-1"
        d="M74.68,130.84c-.67,0-1.22-.54-1.22-1.22V28.34c0-.67.54-1.22,1.22-1.22s1.22.54,1.22,1.22v101.29c0,.67-.54,1.22-1.22,1.22Z" />
      <path class="cls-1"
        d="M81.77,131.92c-.67,0-1.22-.54-1.22-1.22V28.34c0-.67.54-1.22,1.22-1.22s1.22.54,1.22,1.22v102.37c0,.67-.54,1.22-1.22,1.22Z" />
      <path class="cls-1"
        d="M102.44,150.54c-.67,0-1.22-.54-1.22-1.22v-80.38c0-.67.54-1.22,1.22-1.22s1.22.54,1.22,1.22v80.38c0,.67-.54,1.22-1.22,1.22Z" />
      <path class="cls-5"
        d="M16.26,62.61c0-.67-.54-1.22-1.22-1.22s-1.22.54-1.22,1.22v13.63c.81-.25,1.62-.5,2.43-.73v-12.9Z" />
      <path class="cls-5"
        d="M34.69,36.86c0-.67-.54-1.22-1.22-1.22s-1.22.54-1.22,1.22v18.41c.81.09,1.62.21,2.43.36v-18.77Z" />
      <path class="cls-5"
        d="M40.02,40.63c0-.67-.54-1.22-1.22-1.22s-1.22.54-1.22,1.22v15.72c.83.26,1.64.56,2.43.92v-16.64Z" />
      <path class="cls-5"
        d="M60.59,20.83c0-.67-.54-1.22-1.22-1.22s-1.22.54-1.22,1.22v17.58c.82.25,1.63.54,2.43.87v-18.45Z" />
      <path class="cls-5"
        d="M56.5,12.81c0-.67-.54-1.22-1.22-1.22s-1.22.54-1.22,1.22v24.77c.82.09,1.63.22,2.43.4V12.81Z" />
      <path class="cls-5"
        d="M50.41,19.62c-.67,0-1.22.54-1.22,1.22v16.79c.81-.1,1.62-.16,2.43-.16v-16.62c0-.67-.54-1.22-1.22-1.22Z" />
      <path class="cls-5"
        d="M86.52,27.12c-.67,0-1.22.54-1.22,1.22v21.27c.83.36,1.64.77,2.43,1.21v-22.48c0-.67-.54-1.22-1.22-1.22Z" />
      <path class="cls-5"
        d="M74.68,27.12c-.67,0-1.22.54-1.22,1.22v18.76c.81,0,1.62.04,2.43.11v-18.88c0-.67-.54-1.22-1.22-1.22Z" />
      <path class="cls-5"
        d="M81.77,27.12c-.67,0-1.22.54-1.22,1.22v19.66c.82.2,1.63.45,2.43.72v-20.38c0-.67-.54-1.22-1.22-1.22Z" />
      <path class="cls-5"
        d="M102.44,67.73c-.67,0-1.22.54-1.22,1.22v12.19c.82.22,1.63.46,2.43.72v-12.91c0-.67-.54-1.22-1.22-1.22Z" />
      <path class="cls-7"
        d="M97.17,110.53c-.1,0-.19-.02-.28-.07l-4.94-2.6-4.94,2.6c-.09.05-.19.07-.28.07-.13,0-.25-.04-.36-.12-.19-.14-.28-.37-.24-.59l.94-5.51-4-3.9c-.17-.16-.23-.4-.15-.62.07-.22.26-.38.49-.41l5.53-.8,2.47-5.01c.1-.21.31-.34.54-.34h0c.23,0,.44.13.54.34l2.47,5.01,5.53.8c.23.03.42.19.49.41.07.22.01.46-.15.62l-4,3.9.94,5.51c.04.23-.05.46-.24.59-.11.08-.23.12-.36.12Z" />
      <path class="cls-6"
        d="M91.94,93.83l2.61,5.3,5.84.85-4.23,4.12,1,5.82-5.23-2.75-5.23,2.75,1-5.82-4.23-4.12,5.84-.85,2.61-5.3h0ZM91.94,92.62c-.46,0-.89.26-1.09.68l-2.33,4.72-5.21.76c-.46.07-.84.39-.98.83-.14.44-.02.92.31,1.25l3.77,3.68-.89,5.19c-.08.46.11.92.48,1.19.21.15.46.23.71.23.19,0,.39-.05.57-.14l4.66-2.45,4.66,2.45c.18.09.37.14.57.14.25,0,.5-.08.71-.23.37-.27.56-.73.48-1.19l-.89-5.19,3.77-3.68c.33-.32.45-.81.31-1.25-.14-.44-.52-.76-.98-.83l-5.21-.76-2.33-4.72c-.2-.41-.63-.68-1.09-.68h0Z" />
      <path class="cls-1" d="M93.64,97.26l-1.69-3.43-2.61,5.3-5.84.85,4.1,4c1.88-2.36,3.86-4.63,6.05-6.71Z" />
      <path class="cls-8"
        d="M9.81,72.72c-.11,0-.22-.03-.32-.09-.2-.12-.31-.35-.28-.58l.65-6.49-4.98-4.22c-.18-.15-.25-.39-.2-.61.06-.22.23-.4.46-.45l6.38-1.38,2.47-6.04c.09-.21.29-.36.52-.38.01,0,.03,0,.04,0,.22,0,.42.11.52.3l3.29,5.64,6.51.49c.23.02.43.16.52.38.09.21.04.46-.11.63l-4.34,4.87,1.55,6.34c.05.22-.02.46-.2.61-.11.09-.25.14-.39.14-.08,0-.17-.02-.24-.05l-5.97-2.63-5.55,3.43c-.1.06-.21.09-.32.09Z" />
      <path class="cls-6"
        d="M14.56,53.1l3.45,5.91,6.82.51-4.56,5.1,1.62,6.65-6.26-2.76-5.82,3.6.69-6.81-5.22-4.43,6.69-1.45,2.6-6.33h0ZM14.56,51.88s-.06,0-.08,0c-.46.03-.86.32-1.04.75l-2.35,5.74-6.06,1.32c-.45.1-.81.44-.92.89-.11.45.04.92.39,1.22l4.73,4.01-.62,6.17c-.05.46.17.91.56,1.15.2.12.42.18.64.18s.44-.06.64-.18l5.28-3.26,5.68,2.5c.16.07.32.1.49.1.28,0,.56-.1.78-.28.35-.3.51-.77.4-1.22l-1.47-6.03,4.13-4.63c.31-.34.39-.83.22-1.26-.17-.43-.57-.72-1.04-.76l-6.19-.46-3.12-5.36c-.22-.38-.62-.6-1.05-.6h0Z" />
      <path class="cls-7"
        d="M14.56,53.1l-2.6,6.33-6.69,1.45,5.22,4.43-.2,1.96c1.8-3.83,3.69-7.63,5.97-11.24l-1.71-2.93Z" />
      <path class="cls-2"
        d="M73.06,74.07c-.1,0-.19-.02-.28-.07l-4.94-2.6-4.94,2.6c-.09.05-.19.07-.28.07-.13,0-.25-.04-.36-.12-.19-.14-.28-.37-.24-.59l.94-5.51-4-3.9c-.17-.16-.23-.4-.15-.62.07-.22.26-.38.49-.41l5.53-.8,2.47-5.01c.1-.21.31-.34.54-.34s.44.13.54.34l2.47,5.01,5.53.8c.23.03.42.19.49.41.07.22.01.46-.15.62l-4,3.9.94,5.51c.04.23-.05.46-.24.59-.11.08-.23.12-.36.12Z" />
      <path class="cls-6"
        d="M67.84,57.37l2.61,5.3,5.84.85-4.23,4.12,1,5.82-5.23-2.75-5.23,2.75,1-5.82-4.23-4.12,5.84-.85,2.61-5.3h0ZM67.84,56.16c-.46,0-.89.26-1.09.68l-2.33,4.72-5.21.76c-.46.07-.84.39-.98.83-.14.44-.02.92.31,1.25l3.77,3.68-.89,5.19c-.08.46.11.92.48,1.19.21.15.46.23.71.23.19,0,.39-.05.57-.14l4.66-2.45,4.66,2.45c.18.09.37.14.57.14.25,0,.5-.08.71-.23.37-.27.56-.73.48-1.19l-.89-5.19,3.77-3.68c.33-.32.45-.81.31-1.25-.14-.44-.52-.76-.98-.83l-5.21-.76-2.33-4.72c-.2-.41-.63-.68-1.09-.68h0Z" />
      <path class="cls-1"
        d="M67.84,57.37l-2.61,5.3-5.84.85,4.23,4.12-.5,2.93c2.38-2.78,4.74-5.61,7.03-8.54l-2.3-4.65Z" />
      <path class="cls-8"
        d="M37.95,98.91c-.1,0-.19-.02-.28-.07l-4.94-2.6-4.94,2.6c-.09.05-.19.07-.28.07-.13,0-.25-.04-.36-.12-.19-.14-.28-.37-.24-.59l.94-5.51-4-3.9c-.17-.16-.23-.4-.15-.62.07-.22.26-.38.49-.41l5.53-.8,2.47-5.01c.1-.21.31-.34.54-.34s.44.13.54.34l2.47,5.01,5.53.8c.23.03.42.19.49.41.07.22.01.46-.15.62l-4,3.9.94,5.51c.04.23-.05.46-.24.59-.11.08-.23.12-.36.12Z" />
      <path class="cls-6"
        d="M32.72,82.22l2.61,5.3,5.84.85-4.23,4.12,1,5.82-5.23-2.75-5.23,2.75,1-5.82-4.23-4.12,5.84-.85,2.61-5.3h0ZM32.72,81c-.46,0-.89.26-1.09.68l-2.33,4.72-5.21.76c-.46.07-.84.39-.98.83-.14.44-.02.92.31,1.25l3.77,3.68-.89,5.19c-.08.46.11.92.48,1.19.21.15.46.23.71.23.19,0,.39-.05.57-.14l4.66-2.45,4.66,2.45c.18.09.37.14.57.14.25,0,.5-.08.71-.23.37-.27.56-.73.48-1.19l-.89-5.19,3.77-3.68c.33-.32.45-.81.31-1.25-.14-.44-.52-.76-.98-.83l-5.21-.76-2.33-4.72c-.2-.41-.63-.68-1.09-.68h0Z" />
      <path class="cls-7" d="M32.72,82.22l-2.61,5.3-5.84.85,3.03,2.95c2.01-2.5,4.12-4.95,6.26-7.41l-.83-1.68Z" />
      <path class="cls-2"
        d="M98.61,76.19c-.12,0-.23-.03-.33-.1-.19-.13-.3-.35-.27-.58l.53-4.45-3.37-2.96c-.17-.15-.25-.39-.19-.61.06-.22.24-.39.47-.44l4.4-.87,1.77-4.12c.09-.21.3-.35.53-.37.01,0,.02,0,.03,0,.22,0,.42.12.53.31l2.19,3.91,4.46.41c.23.02.43.17.51.39s.04.46-.12.63l-3.04,3.29.99,4.37c.05.23-.03.46-.21.61-.11.09-.25.14-.38.14-.09,0-.17-.02-.25-.06l-4.07-1.88-3.85,2.29c-.1.06-.2.09-.31.09Z" />
      <path class="cls-6"
        d="M102.18,62.3l2.35,4.19,4.78.44-3.26,3.53,1.06,4.68-4.36-2.01-4.13,2.45.57-4.77-3.61-3.17,4.71-.94,1.9-4.41h0ZM102.18,61.09s-.04,0-.06,0c-.46.02-.87.31-1.05.73l-1.65,3.82-4.08.81c-.45.09-.82.43-.94.88-.12.45.02.92.37,1.23l3.13,2.75-.49,4.13c-.05.46.16.91.54,1.16.2.13.43.2.66.2.21,0,.43-.06.62-.17l3.58-2.13,3.78,1.74c.16.07.34.11.51.11.27,0,.54-.09.76-.27.36-.29.52-.76.42-1.21l-.92-4.06,2.83-3.06c.31-.34.41-.83.24-1.26-.17-.43-.56-.73-1.02-.78l-4.15-.38-2.03-3.63c-.22-.39-.62-.62-1.06-.62h0Z" />
      <path class="cls-1" d="M95.57,67.65l2.11,1.85c.67-.9,1.35-1.79,2.04-2.68l-4.14.82Z" />
      <path class="cls-1" d="M102.18,62.3l-1.32,3.05c.59-.75,1.18-1.49,1.77-2.23l-.46-.82Z" />
      <path class="cls-7"
        d="M39.51,48.3c-.1,0-.19-.02-.28-.07l-6.33-3.33-6.33,3.33c-.09.05-.19.07-.28.07-.13,0-.25-.04-.36-.12-.19-.14-.28-.37-.24-.59l1.21-7.05-5.12-4.99c-.17-.16-.23-.4-.15-.62.07-.22.26-.38.49-.41l7.08-1.03,3.17-6.42c.1-.21.31-.34.54-.34s.44.13.54.34l3.17,6.42,7.08,1.03c.23.03.42.19.49.41.07.22.01.46-.15.62l-5.12,4.99,1.21,7.05c.04.23-.05.46-.24.59-.11.08-.23.12-.36.12Z" />
      <path class="cls-6"
        d="M32.9,27.33l3.31,6.7,7.4,1.07-5.35,5.22,1.26,7.37-6.62-3.48-6.62,3.48,1.26-7.37-5.35-5.22,7.4-1.07,3.31-6.7h0ZM32.9,26.12h0c-.46,0-.88.26-1.09.68l-3.02,6.13-6.76.98c-.46.07-.84.39-.98.83-.14.44-.02.92.31,1.25l4.89,4.77-1.16,6.74c-.08.46.11.92.48,1.19.21.15.46.23.71.23.19,0,.39-.05.57-.14l6.05-3.18,6.05,3.18c.18.09.37.14.57.14.25,0,.5-.08.71-.23.37-.27.56-.73.48-1.19l-1.16-6.74,4.89-4.77c.33-.32.45-.81.31-1.25-.14-.44-.52-.76-.98-.83l-6.76-.98-3.03-6.13c-.2-.41-.63-.68-1.09-.68h0Z" />
      <path class="cls-1"
        d="M32.9,27.33l-3.31,6.7-7.4,1.07,5.35,5.22-.19,1.08c1.9-3.72,4.3-7.19,7.39-10.32l-1.86-3.76Z" />
      <path class="cls-2"
        d="M47.92,30.7c-.12,0-.24-.03-.34-.1-.19-.13-.29-.36-.26-.58l1.13-8.61-6.45-5.81c-.17-.15-.24-.39-.18-.62.06-.22.25-.39.47-.43l8.54-1.58,3.54-7.93c.09-.21.3-.35.53-.36,0,0,.02,0,.02,0,.22,0,.43.12.53.32l4.14,7.63,8.64.91c.23.02.43.18.51.39.08.22.03.46-.13.63l-5.98,6.3,1.8,8.49c.05.23-.04.46-.22.6-.11.09-.24.13-.38.13-.09,0-.18-.02-.26-.06l-7.84-3.74-7.52,4.34c-.09.05-.2.08-.3.08Z" />
      <path class="cls-6"
        d="M54.92,5.27l4.3,7.91,8.95.95-6.2,6.53,1.87,8.81-8.13-3.88-7.8,4.5,1.17-8.93-6.69-6.03,8.85-1.64,3.67-8.22h0ZM54.92,4.06s-.03,0-.05,0c-.46.02-.87.3-1.06.72l-3.41,7.64-8.22,1.52c-.45.08-.82.42-.95.86-.13.45.01.92.36,1.23l6.21,5.6-1.09,8.29c-.06.46.14.91.53,1.17.2.14.44.2.68.2.21,0,.42-.05.61-.16l7.25-4.18,7.55,3.6c.17.08.34.12.52.12.27,0,.53-.09.75-.26.36-.29.53-.75.44-1.21l-1.73-8.18,5.76-6.07c.32-.34.42-.82.26-1.26s-.55-.74-1.01-.79l-8.32-.88-3.99-7.35c-.21-.39-.62-.64-1.07-.64h0Z" />
      <path class="cls-1" d="M54.92,5.27l-3.67,8.22-8.85,1.64,6.13,5.52c2.79-3.77,5.46-7.59,8.67-11.19l-2.28-4.19Z" />
      <path class="cls-8"
        d="M75.21,40.17c-.13,0-.25-.04-.36-.12-.19-.14-.28-.37-.24-.59l1.22-7.13-5.18-5.05c-.17-.16-.23-.4-.15-.62.07-.22.26-.38.49-.41l7.16-1.04,3.2-6.48c.1-.21.31-.34.54-.34s.44.13.54.34l3.2,6.48,7.16,1.04c.23.03.42.19.49.41.07.22.01.46-.15.62l-5.18,5.05,1.22,7.13c.04.23-.05.46-.24.59-.11.08-.23.12-.36.12-.1,0-.19-.02-.28-.07l-6.4-3.37-6.4,3.37c-.09.05-.19.07-.28.07Z" />
      <path class="cls-6"
        d="M81.89,18.99l3.34,6.77,7.47,1.09-5.41,5.27,1.28,7.44-6.68-3.51-6.68,3.51,1.28-7.44-5.41-5.27,7.47-1.09,3.34-6.77h0ZM81.89,17.78c-.46,0-.89.26-1.09.68l-3.06,6.2-6.84.99c-.46.07-.84.39-.98.83-.14.44-.02.92.31,1.25l4.95,4.82-1.17,6.81c-.08.46.11.92.48,1.19.21.15.46.23.71.23.19,0,.39-.05.57-.14l6.12-3.22,6.12,3.22c.18.09.37.14.57.14.25,0,.5-.08.71-.23.37-.27.56-.73.48-1.19l-1.17-6.81,4.95-4.82c.33-.32.45-.81.31-1.25-.14-.44-.52-.76-.98-.83l-6.84-.99-3.06-6.2c-.2-.41-.63-.68-1.09-.68h0Z" />
      <path class="cls-7" d="M81.89,18.99l-3.34,6.77-7.47,1.09,4.81,4.69c2.24-3.31,4.81-6.34,7.65-9.21l-1.65-3.34Z" />
      <path class="cls-7"
        d="M53.67,208.78c-32.09-1.3-37.34-16.65-37.55-17.3-.04-.14-2.52-10.14-1.96-22.25.03-.75.07-1.55.14-2.44.52-6.58,1.9-12.54,4.1-17.71.33-.77.69-1.55,1.07-2.33.5-1,1.02-1.96,1.56-2.86,6.15-10.3,15.69-16.48,29.15-18.9.04,0,.07,0,.11,0,.14,0,.27.05.38.13.14.11.22.27.23.45l3.4,82.6c0,.17-.06.33-.18.45-.11.11-.27.18-.43.18,0,0-.02,0-.02,0Z" />
      <path class="cls-6"
        d="M50.29,125.57l3.4,82.6c-32.03-1.29-37-16.88-37-16.88,0,0-2.49-9.88-1.93-22.04.03-.8.08-1.6.14-2.42.45-5.71,1.62-11.8,4.06-17.52.33-.78.68-1.54,1.06-2.3.47-.95.98-1.9,1.54-2.82,5.28-8.83,14-15.96,28.74-18.62h0ZM50.29,124.35c-.07,0-.14,0-.22.02-13.45,2.42-23.4,8.88-29.56,19.19-.55.91-1.08,1.89-1.58,2.9-.39.79-.75,1.58-1.09,2.37-2.23,5.24-3.62,11.26-4.15,17.9-.07.9-.12,1.71-.15,2.48-.56,12.18,1.86,21.97,1.97,22.38,0,.02.01.05.02.07.06.17,1.42,4.31,6.9,8.55,7.16,5.54,17.66,8.63,31.21,9.18.02,0,.03,0,.05,0,.32,0,.63-.13.86-.36.24-.24.37-.57.35-.91l-3.4-82.6c-.01-.35-.18-.68-.45-.9-.22-.17-.49-.27-.76-.27h0Z" />
      <path class="cls-3"
        d="M50.3,125.93v-.36c-14.75,2.65-23.47,9.79-28.75,18.62-.55.92-1.06,1.87-1.54,2.82-.37.76-.73,1.53-1.06,2.3-2.43,5.72-3.6,11.81-4.06,17.52-.06.82-.11,1.63-.14,2.42-.1,2.12-.1,4.17-.04,6.11,3.29-22.02,12.18-45.16,35.58-49.44Z" />
      <path class="cls-8"
        d="M31.99,149.68c-6.49,9.2-3.63,24.81-4.68,34.65,2.33,3.46,6.37,4.43,10.23,3.14,6.87-2.53,11.89-18.05,7.13-30.32-3.91-10.07-9.91-8.67-12.68-7.47Z" />
      <path class="cls-8"
        d="M51.42,153.1c-.73,13.83-.34,52.17-.34,52.17,0,0-17.69,0-25.9-4.6,5.49,3.57,14.36,6.93,28.51,7.51l-2.27-55.08Z" />
      <path class="cls-2"
        d="M74.04,223.66c-4.04,0-9.11-.97-10.36-5.58-.02-.07-.02-.13-.02-.2l6.16-83.5c.01-.16.09-.31.21-.42.11-.09.25-.14.39-.14.02,0,.04,0,.06,0,14.73,1.36,25.11,8.83,30.86,22.22.31.72.62,1.51.95,2.4,2.04,5.52,3.33,11.9,3.83,18.94.06.83.11,1.64.14,2.44.51,11.19-1.08,20.19-1.1,20.28,0,.05-.02.1-.05.14-.12.26-2.98,6.35-12.47,11.48.69,6.36-7.86,10.13-12.58,11.25-1.79.43-4.05.68-6.02.68h0Z" />
      <path class="cls-6"
        d="M70.42,134.42c16.59,1.53,25.6,10.76,30.36,21.85.34.78.65,1.57.94,2.37,2.27,6.15,3.36,12.72,3.79,18.77.06.82.11,1.63.14,2.42.51,11.25-1.09,20.15-1.09,20.15,0,0-2.86,6.26-12.58,11.4,1.1,6.36-7.87,10-12.06,11-1.4.33-3.58.66-5.88.66-4.14,0-8.68-1.07-9.78-5.13l6.16-83.5h0ZM70.42,133.2c-.29,0-.56.1-.79.29-.25.21-.4.51-.43.84l-6.16,83.5c-.01.14,0,.27.04.41,1.05,3.89,4.94,6.03,10.95,6.03,2.02,0,4.33-.26,6.16-.7,4.81-1.14,13.43-4.97,13.08-11.5,9.39-5.19,12.27-11.31,12.39-11.58.04-.09.07-.19.09-.29.07-.37,1.62-9.16,1.11-20.42-.03-.73-.08-1.51-.15-2.45-.51-7.1-1.81-13.53-3.86-19.11-.33-.9-.65-1.7-.96-2.43-5.84-13.61-16.4-21.21-31.37-22.58-.04,0-.07,0-.11,0h0Z" />
      <path class="cls-1" d="M67.51,218.9s-3.81-4.27-1.72-7.3c2.79-4.04,15.46-4.78,19.95-.89l1.32,1.41-19.56,6.78Z" />
      <path class="cls-8"
        d="M91.94,209c-1.82.61-.49,5.05-2.31,6.87-2.57,3.51-7.58,5.17-11.5,6.85.68-.1,1.29-.22,1.8-.34,4.19-.99,13.16-4.63,12.06-11,9.72-5.14,12.58-11.4,12.58-11.4,0,0,1.27-7.09,1.19-16.62-1.25,9.54-1.92,23.25-13.81,25.63Z" />
      <path class="cls-7"
        d="M95.26,146.95c-5.33-6.62-13.22-11.47-24.83-12.54l-3.8,51.5c2.68-14.11,7-47.2,7-47.2,0,0,8.36-1.6,21.64,8.24Z" />
      <path class="cls-8"
        d="M58.77,230.49c-.32,0-.59-.26-.6-.59l-3.87-110.08-11.53,3.39c-.06.02-.11.02-.17.02-.14,0-.28-.05-.39-.14-.16-.13-.24-.33-.21-.53l8.18-72.28c.03-.31.3-.54.6-.54h0c.31,0,.57.25.6.56l4.69,55.53,10.89-3.57c.06-.02.13-.03.19-.03.13,0,.26.04.37.13.16.12.25.32.23.52l-8.38,127.03c-.02.32-.29.57-.61.57h0Z" />
      <path class="cls-6"
        d="M50.78,50.36l4.76,56.3,11.62-3.8-8.38,127.03-3.9-110.86-12.28,3.61,8.18-72.28h0ZM67.16,102.85h0,0ZM50.78,49.14c-.62,0-1.14.46-1.21,1.08l-8.18,72.28c-.05.4.11.81.43,1.07.22.19.5.28.78.28.11,0,.23-.02.34-.05l10.78-3.17,3.84,109.3c.02.65.55,1.16,1.2,1.17,0,0,.01,0,.02,0,.64,0,1.17-.5,1.21-1.14l8.38-126.97s0-.09,0-.14c0-.67-.54-1.22-1.21-1.22h0s-.02,0-.03,0c0,0,0,0,0,0h0c-.13,0-.26.03-.38.07l-10.14,3.32-4.63-54.77c-.05-.62-.57-1.1-1.19-1.11,0,0-.01,0-.02,0h0Z" />
      <polygon class="cls-1" points="50.78 50.36 45.19 99.78 51.27 56.14 50.78 50.36" />
      <polygon class="cls-1" points="45.92 121.66 54.88 119.02 57.5 185.85 56.5 117.71 45.92 121.66" />
      <polygon class="cls-5"
        points="67.16 102.85 55.54 106.66 52.77 73.85 53.69 110.04 64.26 107.77 58.78 229.88 67.16 102.85" />
      <path class="cls-3"
        d="M33.28,185.5s-.1-.01-.16,0c-2.4-.14-9.1-.77-9.66-15.7-.56-15.16,7.9-20.73,12.82-19.58.04,0,.07,0,.12.02,4.89,1.26,7.69,5.82,6.75,19.82s-7.63,15.57-9.87,15.45Z" />
      <path class="cls-6"
        d="M44.83,177.91s-.09,0-.14-.02c-.33-.08-.53-.4-.46-.73.18-.76.33-1.56.45-2.4.05-.33.36-.56.69-.51.33.05.56.36.51.69-.13.87-.29,1.7-.47,2.49-.07.28-.31.47-.59.47Z" />
      <path class="cls-6"
        d="M43.54,181.22c-.07,0-.14-.01-.22-.04-.31-.12-.47-.47-.35-.78.16-.41.31-.85.44-1.29.1-.32.44-.5.76-.4.32.1.5.44.4.76-.14.47-.3.93-.47,1.36-.09.24-.32.39-.57.39Z" />
      <path class="cls-6"
        d="M33.27,189.32c-.95,0-1.56-.13-1.58-.13-.33-.07-.53-.4-.46-.73.07-.33.4-.53.73-.46.26.06,6.2,1.28,9.92-5.24.17-.29.54-.39.83-.23.29.17.39.54.23.83-2.96,5.2-7.34,5.96-9.66,5.96Z" />
      <path class="cls-6"
        d="M26.53,186.48c-.1,0-.2-.02-.29-.08-2.65-1.47-4.1-6.15-4.17-6.35-.1-.32.08-.66.4-.76.32-.1.66.08.76.4.01.04,1.37,4.41,3.59,5.64.29.16.4.53.24.83-.11.2-.32.31-.53.31Z" />
      <path class="cls-6"
        d="M34.98,150.06c.46,0,.89.05,1.31.15.04,0,.07,0,.12.02,4.89,1.26,7.69,5.82,6.75,19.82-.9,13.54-7.2,15.46-9.64,15.46-.08,0-.16,0-.23,0-.04,0-.08,0-.13,0,0,0-.02,0-.03,0-2.4-.14-9.1-.77-9.66-15.7-.51-13.89,6.54-19.72,11.51-19.72h0ZM34.98,148.85h0c-2.56,0-5.28,1.29-7.45,3.55-3.68,3.81-5.55,10.01-5.27,17.43.25,6.7,1.76,11.49,4.49,14.22,2.44,2.43,5.15,2.59,6.31,2.65.02,0,.05,0,.07,0,0,0,.01,0,.02,0,.02,0,.06,0,.07,0,.09,0,.19,0,.3,0,1.63,0,9.8-.8,10.85-16.59.88-13.15-1.41-19.45-7.65-21.07-.09-.03-.17-.04-.23-.05-.48-.11-.99-.16-1.51-.16h0Z" />
      <path class="cls-6"
        d="M46.32,158.74c-.33,0-.6-.26-.61-.59,0-.04-.16-3.8-2.21-6.87-.19-.28-.11-.66.17-.84.28-.19.66-.11.84.17,2.26,3.37,2.41,7.34,2.42,7.51.01.34-.25.62-.59.63,0,0-.01,0-.02,0Z" />
      <path class="cls-6"
        d="M21.1,161.12c-.05,0-.11,0-.16-.02-.32-.09-.51-.42-.43-.75,1.63-6,5.26-13.34,13.23-14.22,2.79-.31,5.22.09,7.22,1.18.29.16.4.53.24.82-.16.29-.53.4-.82.24-1.78-.97-3.97-1.32-6.51-1.04-7.3.8-10.66,7.69-12.19,13.33-.07.27-.32.45-.59.45Z" />
      <path class="cls-6"
        d="M19.94,167.48c-.09,0-.18-.02-.27-.06-.25-.12-.38-.39-.33-.65v-.1c.05-.38.16-1.53.45-3.09.06-.33.38-.55.71-.49.33.06.55.38.49.71-.27,1.51-.39,2.62-.42,2.99-.02.19-.02.25-.07.35-.11.22-.32.34-.55.34Z" />
      <path class="cls-6"
        d="M27.53,146.37c-.2,0-.4-.1-.52-.29-.18-.29-.09-.66.2-.84,2.27-1.39,4.88-2.1,7.77-2.1.34,0,.61.27.61.61s-.27.61-.61.61c-2.66,0-5.06.64-7.13,1.92-.1.06-.21.09-.32.09Z" />
      <path class="cls-6"
        d="M22.69,151.55c-.08,0-.17-.02-.25-.05-.31-.14-.44-.5-.3-.8.03-.06.7-1.52,2.24-3.15.23-.24.62-.25.86-.02.24.23.25.62.02.86-1.4,1.47-2.01,2.8-2.02,2.81-.1.22-.32.36-.55.36Z" />
      <path class="cls-1"
        d="M97.79,186.89l-7.69-8.17c2.55-2.61,5.16-5.27,7.4-7.56,1.15-1.18,1.08-3.02-.15-4.12-1.24-1.1-3.17-1.03-4.33.14-2.73,2.79-5.03,5.13-7.03,7.18l-7.02-7.45c-1.13-1.2-3.06-1.3-4.32-.22-1.26,1.07-1.36,2.92-.23,4.12l7.38,7.84c-7.8,7.98-7.92,8.15-8.06,8.35-.94,1.34-.56,3.15.85,4.04.52.33,1.11.49,1.69.49.89,0,1.78-.37,2.37-1.07.43-.46,3.45-3.56,7.25-7.45l7.32,7.78c.6.64,1.44.97,2.28.97.73,0,1.46-.25,2.04-.74,1.26-1.07,1.36-2.92.23-4.12Z" />
      <path class="cls-8"
        d="M98.6,187.58l-7.57-8.44c2.51-2.69,5.08-5.45,7.29-7.81,1.14-1.22,1.07-3.12-.15-4.26-1.22-1.14-3.12-1.06-4.26.15-2.68,2.88-4.95,5.3-6.92,7.42l-6.9-7.7c-1.11-1.24-3.01-1.34-4.25-.23-1.24,1.11-1.34,3.01-.23,4.25l7.27,8.1c-7.67,8.24-7.8,8.42-7.93,8.62-.92,1.38-.55,3.25.84,4.18.51.34,1.09.51,1.67.51.88,0,1.75-.39,2.33-1.1.42-.48,3.39-3.68,7.13-7.7l7.21,8.04c.59.66,1.41,1,2.24,1,.72,0,1.44-.25,2.01-.77,1.24-1.11,1.34-3.01.23-4.25Z" />
      <path class="cls-6"
        d="M97.83,186.89l-7.33-8.17c2.43-2.61,4.91-5.27,7.05-7.56,1.1-1.18,1.03-3.02-.14-4.12-1.18-1.1-3.02-1.03-4.12.14-2.6,2.79-4.79,5.13-6.7,7.18l-6.68-7.45c-1.07-1.2-2.92-1.3-4.12-.22-1.2,1.07-1.3,2.92-.22,4.12l7.03,7.84c-7.43,7.98-7.55,8.15-7.68,8.35-.89,1.34-.53,3.15.81,4.04.5.33,1.06.49,1.61.49.85,0,1.69-.37,2.26-1.07.41-.46,3.28-3.56,6.91-7.45l6.98,7.78c.58.64,1.37.97,2.17.97.69,0,1.39-.25,1.95-.74,1.2-1.07,1.3-2.92.22-4.12Z" />
      <path class="cls-6"
        d="M66.88,213.5c.05-.11.09-.21.14-.32,1.21-2.54,13.72-3.53,15.21-3.28.76.14,1.51.41,2.2.76,2.61,1.31,4.58,3.67,3.99,4.26-.09.09-.21.21-.39.34-1.47,1.26-6.16,4.54-13.33,4.83-2.29.09-3.99-.21-5.22-.73-3.07-1.31-3.3-4.03-2.59-5.87Z" />
      <path class="cls-6"
        d="M73.89,220.72c-1.85,0-3.42-.27-4.66-.8-1.46-.62-2.5-1.62-2.98-2.89-.48-1.27-.4-2.81.22-4.11h0c1.46-3.07,14.48-3.85,15.86-3.61,3.15.57,6.25,3.35,6.72,4.87.2.64-.04,1.01-.21,1.18-.1.1-.24.24-.45.4-.87.75-5.76,4.63-13.67,4.96-.28.01-.56.02-.82.02ZM67.56,213.44c-.48,1.01-.55,2.19-.18,3.16.37.97,1.15,1.71,2.32,2.21,1.26.54,2.93.77,4.96.69,7.51-.31,12.12-3.96,12.96-4.69.13-.1.21-.17.28-.24-.14-.8-2.8-3.53-5.79-4.07-1.8-.3-13.59.92-14.56,2.94Z" />
      <path class="cls-7"
        d="M74.57,233.33c-.29,0-.56-.12-.79-.36-1.56-1.61-1.55-9.1-1.45-12.57-.8-.1-3.12-.51-3.18-.98-.02-.15.09-.31.24-.35,1.95-.51,12.4-2.9,16.25-2.9.27,0,.51.01.71.04.09.01.18.07.23.15.05.08.06.18.02.27-.12.31-2.71,1.77-4.5,2.5.46,6.62-.04,10.05-1.49,10.2-.04,0-.1,0-.1,0-.29,0-.55-.12-.77-.35-.86-.87-1.28-3.61-1.25-8.13-.47.07-.94.13-1.4.19.09,7.98-.71,12.11-2.4,12.28-.04,0-.07,0-.11,0Z" />
      <path class="cls-6"
        d="M85.64,216.48c.25,0,.48.01.67.03-.05.11-2.45,1.61-4.54,2.41.21,2.95.53,9.93-1.2,10.1-.03,0-.05,0-.07,0-1.65,0-1.75-5.64-1.71-8.53-.68.11-1.35.2-2.02.28.05,3.79-.03,12.03-2.12,12.25-.03,0-.05,0-.08,0-2.16,0-2.02-9.92-1.93-12.9-.02,0-.04,0-.06,0-.87,0-3.36-.69-3.12-.76,1.72-.45,12.34-2.89,16.17-2.89h0ZM85.64,215.87c-4.1,0-15.2,2.61-16.33,2.91-.3.08-.51.38-.46.68.06.43.33.58,1.72.92.3.07.91.22,1.45.3-.11,4.22,0,10.89,1.54,12.49.37.38.75.46,1.01.46.05,0,.09,0,.14,0,1.28-.13,2.02-1.78,2.41-5.32.2-1.87.29-4.23.27-6.99.27-.03.53-.07.79-.11-.01,6.63,1,7.65,1.34,7.99.28.28.62.44.99.44.04,0,.09,0,.14,0,1.14-.11,1.72-1.53,1.88-4.58.1-1.92,0-4.1-.1-5.73,1.54-.66,4.27-2.09,4.46-2.58.07-.18.05-.37-.04-.54-.1-.16-.26-.27-.45-.29-.21-.03-.46-.04-.74-.04h0Z" />
      <path class="cls-3"
        d="M84.07,217.86c1.24-.65,2.21-1.27,2.24-1.35-3.05-.37-15.01,2.38-16.84,2.86-.23.06,1.83.64,2.85.74,3.61-2.16,7.71-2.69,11.75-2.25Z" />
      <path class="cls-3"
        d="M72.62,224.69c.09,3.91.51,8.49,2.03,8.33.7-.07,1.17-1.04,1.49-2.44-1.79-1.55-2.99-3.64-3.52-5.88Z" />
      <path class="cls-3"
        d="M78.82,223.43c.11,2.76.51,5.71,1.75,5.59.39-.04.67-.42.88-1.01-1.19-1.21-2.1-2.83-2.63-4.57Z" />
      <path class="cls-6"
        d="M80.57,229.02s-.05,0-.07,0c-1.24,0-1.6-3.18-1.69-5.99-.67.12-1.35.2-2.03.24-.05,4.08-.42,9.57-2.12,9.75-.03,0-.05,0-.08,0-1.67,0-1.96-5.89-1.97-9.96-.02,0-1.22.37-1.22.37.02,5.56.6,8.98,1.75,10.16.51.53,1.07.64,1.44.64.07,0,.13,0,.2-.01,1.35-.14,2.7-1.29,3.1-7.7.3,1.88.77,2.65,1.2,3.09.4.4.89.62,1.42.62.06,0,.13,0,.2,0,1.36-.14,2.68-1.33,2.44-8.55-.4.19-.8.36-1.21.51.07,3.12-.12,6.71-1.36,6.83Z" />
      <path class="cls-6"
        d="M78.78,220.5c-.68.11-1.35.2-2.02.28.01.71.02,1.57,0,2.5.68-.04,1.36-.12,2.03-.24-.03-.93-.03-1.82-.02-2.54Z" />
      <path class="cls-6"
        d="M81.85,167.51c-.21,0-.42-.11-.53-.31,0,0-.5-.89-1.46-1.53-.28-.19-.35-.56-.17-.84.19-.28.56-.35.84-.17,1.21.81,1.82,1.91,1.85,1.96.16.29.05.66-.24.83-.09.05-.19.07-.29.07Z" />
      <path class="cls-6"
        d="M73.7,170.85c-.23,0-.45-.13-.55-.36-1.22-2.71-.57-4.85,1.82-6.02.91-.44,1.82-.68,2.68-.69.33-.01.61.26.62.6,0,.34-.26.61-.6.62-.68,0-1.41.2-2.16.57-.66.32-2.66,1.29-1.25,4.43.14.31,0,.67-.31.8-.08.04-.17.05-.25.05Z" />
      <path class="cls-6"
        d="M77.03,194.86c-.82,0-1.64-.2-2.44-.61-1.42-.73-2.3-1.82-2.62-3.24-.07-.33.13-.65.46-.73.33-.07.65.13.73.46.24,1.05.91,1.87,1.99,2.42,1.31.67,2.64.64,3.96-.1.29-.16.66-.06.83.24.16.29.06.66-.24.83-.87.48-1.77.73-2.66.73Z" />
    </g>
  </g>
</svg>