<?xml version="1.0" encoding="UTF-8"?>
<svg id="Capa_2" xmlns="http://www.w3.org/2000/svg" viewBox="0 0 150.65 211.26">
  <defs>
    <style>
      .cls-1 {
        fill: #00ffdb;
      }

      .cls-2 {
        fill: #7a00ba;
      }

      .cls-3 {
        fill: #fff;
      }

      .cls-4 {
        fill: #fe0;
      }

      .cls-5 {
        fill: #ff387f;
      }
    </style>
  </defs>
  <g id="layer_1">
    <path class="cls-3"
      d="M75.33,0C39.05,0,0,24.3,0,77.65v119.82c0,7.61,6.22,13.79,13.87,13.79h122.92c7.65,0,13.87-6.19,13.87-13.79v-119.82C150.65,24.3,111.6,0,75.33,0Z" />
    <path class="cls-5"
      d="M145.04,77.65c0-96.05-139.44-96.05-139.44,0v119.82c0,4.52,3.7,8.19,8.26,8.19h122.92c4.56,0,8.26-3.67,8.26-8.19v-119.82Z" />
    <path class="cls-2"
      d="M136.79,207.2H13.87c-5.41,0-9.81-4.37-9.81-9.74v-119.82C4.05,27.08,41,4.05,75.33,4.05s71.27,23.03,71.27,73.59v119.82c0,5.37-4.4,9.74-9.81,9.74ZM75.33,7.16C42.5,7.16,7.16,29.22,7.16,77.65v119.82c0,3.66,3.01,6.63,6.71,6.63h122.92c3.7,0,6.71-2.98,6.71-6.63v-119.82c0-21.81-7.36-40.1-21.28-52.89-12.36-11.35-29.01-17.6-46.88-17.6Z" />
    <path class="cls-1"
      d="M128.26,100.68c-1.3,3.37-.74,6.92-.12,10.41.58,3.27,1.19,6.67.35,9.89-.83,3.22-3.55,6.23-6.89,6.21-3.58-.02-7.17-4.34-10.72-3.37-1.85.5-3.98,2.77-5.68,3.82-1.95,1.17-3.96,2.23-6.05,3.17-2.77,1.26-5.7,1.97-8.54,3.02-1.11.41-2.77,1.39-3.42,2.44-.83,1.37-.36,3.58-.51,5.14-.2,1.83-.93,3.8-2.56,4.62-.93.46-2,.51-3.04.43-1.37-.08-2.79-.36-3.93-1.14-3.01-2.03-.92-5.58-2.74-8.04-.64-.88-1.83-1.17-2.92-1.19-1.64-.02-3.29-.17-4.53,1.06-1.02,1.01-1.55,2.51-1.6,3.93-.17,4.33,2.28,8.29,2.13,12.62-.07,2.35-.88,4.72-2.53,6.38-2.91,2.91-8.18,2.92-11.26.48-2.51-1.98-3.8-4.94-3.5-8.06.08-.97.25-1.95.41-2.91l1.07-9.58c-1.68-2.26-4.11-3.98-6.81-4.84-.84-.26-1.78-.43-2.56-.02-.68.36-1.07,1.12-1.19,1.88-.2,1.37.1,2.36-.45,3.72-1.12,2.84-4.62,4.33-7.58,3.53-2.96-.78-5.19-3.49-5.83-6.47-.76-3.58.5-7.25,1.24-10.85.46-2.26.74-4.54.79-6.85.1-3.02-.17-6.06-.78-9.03-.92-4.48-3.93-7.75-5.53-12.06-.66-1.77-1.24-3.57-1.72-5.43-1.19-4.58-1.83-9.37-1.83-14.32,0-13.78,4.94-26.43,13.15-36.24,10.37-12.39,25.95-20.27,43.36-20.27,14.47,0,27.65,5.43,37.66,14.37,9.37,8.36,15.91,19.79,18.07,32.7.12.59.2,1.21.28,1.82.33,2.49.51,5.04.51,7.61,0,3.53-.33,7.09-.99,10.55-.69,3.75-1.85,7.32-3.22,10.87Z" />
    <path class="cls-3"
      d="M30.26,129.11c1.08-4.14,1.45-8.68.85-12.93-.29-2.04-.93-4.02-1.89-5.84-.83-1.58-2.81-3.02-3.44-4.55,2.52,6.1,3.3,12.91,2.23,19.42-.46,2.82-1.27,5.59-1.49,8.44-.23,2.85.18,5.89,1.9,8.17s5,3.53,7.58,2.29c-2.39.37-4.95-.66-6.42-2.58-2.83-3.71-.34-8.52.68-12.43Z" />
    <path class="cls-3"
      d="M50.41,154.01c.34,2.48,1.76,4.78,3.82,6.19s4.73,1.91,7.16,1.33c-1.82-.29-3.65-.71-5.29-1.56-1.64-.85-3.08-2.19-3.76-3.91-.91-2.31-.33-4.93.4-7.3s1.61-4.83,1.25-7.29c-.68-4.65-5.85-7.55-10.25-7.48-.39,0-3.35.37-2.08,1.25.2.14.48.13.72.12,2.5-.1,5.14.44,7.02,2.09,4.77,4.19.3,11.43,1,16.55Z" />
    <path class="cls-3"
      d="M78.04,136.49c-.6.16-1.03.71-1.2,1.31-.17.6-.12,1.23-.05,1.85.16,1.35.45,2.7,1.09,3.89.64,1.2,1.67,2.23,2.96,2.64-1.65-.7-3.33-1.43-4.62-2.67-1.1-1.06-1.72-2.43-1.76-3.96-.04-1.44-.25-2.07-.83-3.42,1.31-.02,3.16.69,4.42.36Z" />
    <path class="cls-3"
      d="M113.72,121.96c.2-.17.44-.36.7-.33.37.04.56.43.76.75.54.88,1.5,1.39,2.41,1.87,1.78.93,3.55,1.85,5.33,2.78-2.89.01-5.6-1.25-8.26-2.37-.52-.22-2.3-.41-2.49-.86-.28-.65,1.18-1.51,1.55-1.83Z" />
    <path class="cls-4"
      d="M131.96,71.64c-.66,2-1.01,4.13-1.4,6.16-.46,2.38-1.14,4.87-2.86,6.61-1.16-3.62-3.65-8.9-7.37-10.36-1.9-.74-3.8-1.5-5.7-2.25-.83-.33-1.68-.66-2.56-.61-.89.03-1.83.55-2.06,1.4,2.11.91,4.21,1.82,6.33,2.73.93.4,1.92.86,2.38,1.75.64,1.26-.03,2.79-.88,3.93-.84,1.14-1.88,2.26-2,3.67-4.21-3.06-8.72-6.24-13.91-6.72,3.14,2.35,6.26,4.67,9.4,7.02,1.35.99,2.74,2.05,3.49,3.55,1.01,2.02.64,4.43.12,6.61-1.97,7.96-6.11,15.38-11.86,21.22-.74.78-1.55,1.52-2.53,1.95-.99.45-2.2.5-3.09-.1-1.59-1.06-1.42-3.4-1.07-5.29.38-2.06.78-4.11,1.16-6.18.36-1.97.58-4.36-.99-5.6-.89-.69-2.1-.79-3.22-.99-4.62-.88-8.79-4.74-9.88-9.35-1.09-4.58,3.96-9.04,7.81-10.41,1.93-.69,4.28-1.19,5.15-3.06.35-.76.38-1.6.53-2.43.76-4.1,6.28-.99,9.17-2.05.63-.21,1.27-.66,1.3-1.32.02-.4-.2-.78-.43-1.12-.83-1.26-1.92-2.48-3.39-2.79-1.34-.28-2.73.26-3.77,1.12-.83.68-1.42,2.13-2.25,2.66-.96.59-.86-.02-1.77-.63-.93-.64-2.05-1.01-3.19-1.07-.23-.02-2.87.28-2.77.48.56,1.02,3.85,5.81,2.63,6.24-1.73.63-3.45-2.84-4.06-3.75-1.44-2.13-3.47.89-4.21,2.1-1.37,2.15-1.75,5.1-4.44,5.78-.79.2-1.67.18-2.38-.23-.74-.45-1.17-1.27-1.57-2.05-.74-1.47-2.68-3.88-2.43-5.58.69-2.31,3.02-4.03,5.43-4,.99.02,2.05.28,2.97-.12,1.59-.68,1.78-2.82,1.68-4.56-.1-1.73-.07-3.83,1.44-4.71,1.37-.81,3.19-.05,4.69-.59,1.75-.64,2.33-3.27,1.02-4.59-.81-.81-2.02-1.04-3.04-1.55-1.02-.51-1.98-1.63-1.55-2.71.41-1.07,1.83-1.22,2.99-1.22,1.19.02,2.39.03,3.5.46,1.11.43,2.1,1.39,2.21,2.58.05.58-.1,1.17-.02,1.73.28,1.68,2.58,2.31,4.1,1.55,1.87-.93,3.83-3.77,3.44-5.91-.18-1.04-.74-1.97-1.35-2.82-1.07-1.55-2.31-2.99-3.68-4.29-.43-.41-.91-.83-1.5-.97-1.37-.33-3.29,1.52-4.31,2.2-.68.45-1.4.91-2.21.86-.81-.07-1.47-.66-2-1.27-1.7-1.97-2.54-3.67-1.27-6.05,1.68-3.15,4.48-5.73,7.78-7.15.56-.83,1.06.03,1.87.61,2.63,1.93,4.84,4.41,6.46,7.23.74,1.34,1.5,2.86,2.92,3.39,1.92.73,3.93-.71,5.48-2.05.94-.81,2.02-1.34,3.17-1.62,9.79,8.75,16.52,20.86,18.35,34.52ZM54.12,43.71c-.91-1.63-2.96-2.26-4.81-2.43-3.02-.26-6.13.31-8.85,1.64-1.02.5-2.02,1.11-3.09,1.47-1.85.59-3.04.13-4.41-1.06-.13-.12-.25-.21-.36-.31-8.21,9.81-13.15,22.46-13.15,36.24,0,4.96.64,9.75,1.83,14.32.56-.43,1.01-1.14,1.39-1.75,1.34-2.1,3.24-3.85,5.47-4.99,1.09-.58,2.33-1.06,2.99-2.1.66-1.04.2-2.82-1.02-2.86-.99-.03-1.73,1.04-2.73,1.06-.69.02-1.3-.53-1.57-1.17-.26-.64-.26-1.35-.2-2.05.23-2.79,1.17-5.52,2.69-7.88.33-.51.76-1.07,1.39-1.14,1.01-.13,1.67,1.04,1.85,2.05.17.99.26,2.16,1.11,2.73.64.43,1.52.31,2.16-.08.64-.4,1.12-1.02,1.55-1.65,1.45-2.11,2.64-4.41,3.55-6.82.4-1.02.71-2.26.07-3.17-.89-1.24-2.86-.88-4.21-1.59-1.14-.63-1.7-2-1.72-3.3s.45-2.56.88-3.78c1.29-3.53,2.91-7.43,6.36-8.92.73,4.21,1.45,8.42,2.18,12.64.08.51.18,1.04.48,1.47.61.84,1.9.97,2.86.53.94-.45,1.64-1.3,2.23-2.15,2.16-3.04,3.85-6.41,4.99-9.96.53-1.64.91-3.49.1-4.97ZM52.55,126.6c-1.67-1.7-3.01-3.73-3.93-5.95-1.59-3.82-1.9-8.04-3.07-11.99-1.88-6.33-7.05-10.44-13.45-11.78-2.38-.51-4.96-.43-7.12.66-.78.38-1.44.88-1.98,1.47,5.34,14.29,16.27,25.85,30.14,31.98.51-.31.92-.78,1.02-1.37.21-1.17-.78-2.16-1.62-3.02ZM77.58,55.84c1.15.27,2.76.11,3.46-.46,1.17-.95.53-2.14.24-3.37-.65-2.83-.06-6.48-1.98-8.88-1.13-1.41-2.21-1.12-2.64.46-.5,1.89-.15,4.08-.31,6.02-.12,1.33-.66,2.67-.58,4.01.04.7.32,1.41.87,1.83.23.17.56.31.93.39ZM60.15,45.88c-.4,1.38-.05,3.03,1.07,3.93,1.1.89,2.65.91,4.06.84,1.17-.06,2.57-.3,3-1.39.39-.97-.25-2.03-.94-2.82-2.15-2.44-5.81-5.34-7.19-.57Z" />
    <path class="cls-3"
      d="M131.68,69.83c-3.88-18.47-17.59-34.65-35.28-41.29-18.32-6.87-40.25-3.19-55.23,9.41-14.98,12.6-22.38,33.66-18.43,52.84,3.95,19.18,19.11,35.64,37.94,41.01,3.03.86,6.36,2.45,9.48,2.77-20.3-2.08-39.95-16.18-47.15-35.55-.66-1.77-1.24-3.57-1.72-5.43-1.19-4.58-1.83-9.37-1.83-14.32,0-13.78,4.94-26.43,13.15-36.24,10.37-12.39,25.95-20.27,43.36-20.27,14.47,0,27.65,5.43,37.66,14.37,9.37,8.36,15.91,19.79,18.07,32.7Z" />
    <path class="cls-2"
      d="M75.96,136.55c-31.59,0-57.29-25.7-57.29-57.29s25.7-57.29,57.29-57.29,57.29,25.7,57.29,57.29-25.7,57.29-57.29,57.29ZM75.96,23.53c-30.73,0-55.73,25-55.73,55.73s25,55.73,55.73,55.73,55.73-25,55.73-55.73-25-55.73-55.73-55.73Z" />
    <path class="cls-2"
      d="M75.96,135.81c-11.76,0-21.33-25.37-21.33-56.55s9.57-56.55,21.33-56.55,21.33,25.37,21.33,56.55-9.57,56.55-21.33,56.55ZM75.96,23.5c-11.33,0-20.55,25.02-20.55,55.77s9.22,55.77,20.55,55.77,20.55-25.02,20.55-55.77-9.22-55.77-20.55-55.77Z" />
    <path class="cls-2"
      d="M75.96,135.81c-25.46,0-46.18-25.37-46.18-56.55s20.72-56.55,46.18-56.55,46.18,25.37,46.18,56.55-20.72,56.55-46.18,56.55ZM75.96,23.5c-25.04,0-45.4,25.02-45.4,55.77s20.37,55.77,45.4,55.77,45.41-25.02,45.41-55.77-20.37-55.77-45.41-55.77Z" />
    <rect class="cls-2" x="19.45" y="78.88" width="113.02" height=".78" />
    <path class="cls-2"
      d="M76.26,55.68c-16.55,0-33.1-2.13-40.48-6.39-2.68-1.55-4.05-3.33-4.05-5.3h.78c0,1.67,1.23,3.22,3.66,4.62,14.24,8.22,65.95,8.22,80.19,0,2.43-1.4,3.66-2.96,3.66-4.63h.78c0,1.96-1.36,3.75-4.05,5.3-7.38,4.26-23.93,6.39-40.48,6.39Z" />
    <path class="cls-2"
      d="M31.73,115.16c0-1.96,1.36-3.75,4.05-5.3,14.75-8.52,66.21-8.52,80.96,0,2.69,1.55,4.05,3.33,4.05,5.3h-.78c0-1.67-1.23-3.22-3.66-4.63-14.62-8.44-65.57-8.44-80.19,0-2.43,1.4-3.66,2.96-3.66,4.63h-.78Z" />
    <path class="cls-2"
      d="M59.01,163.03c-1.12,0-2.24-.2-3.28-.62-3.62-1.45-6.19-5.29-6.25-9.35-.03-1.91.44-3.74.9-5.5.61-2.36,1.19-4.58.6-6.9-.34-1.32-1.8-2.87-3.65-3.86-1.6-.86-3.2-1.14-4.28-.76-.94.33-1.2,1.49-1.52,3.37-.27,1.57-.55,3.2-1.64,4.26-2.78,2.69-7.33,2.37-10.13.51-2.6-1.73-4-4.75-3.94-8.51.03-2.31.58-4.52,1.1-6.66.4-1.64.82-3.33.99-5.02.74-7.46-.85-15.13-4.5-21.59l1.35-.76c3.8,6.74,5.46,14.73,4.69,22.51-.18,1.8-.61,3.54-1.02,5.23-.53,2.15-1.03,4.18-1.06,6.31-.03,2.27.5,5.37,3.25,7.2,2.23,1.49,5.99,1.78,8.19-.34.73-.7.96-2.07,1.19-3.4.31-1.84.67-3.92,2.54-4.58,1.5-.53,3.52-.22,5.53.86,2.28,1.22,3.97,3.08,4.42,4.85.69,2.7.03,5.23-.6,7.67-.45,1.74-.88,3.39-.85,5.09.05,3.45,2.22,6.71,5.28,7.93,3.14,1.26,7.03.15,8.88-2.51,1.43-2.07,1.82-5.03,1.14-8.8-.09-.51-.22-1.12-.37-1.78-.79-3.62-1.88-8.57.27-11.33.92-1.18,2.32-1.8,4.16-1.86l.05,1.55c-1.38.04-2.36.45-2.99,1.26-1.7,2.18-.67,6.91.02,10.04.15.69.29,1.31.38,1.84.76,4.19.29,7.54-1.39,9.96-1.62,2.33-4.53,3.69-7.45,3.69Z" />
    <path class="cls-2"
      d="M81.04,147.27c-.46,0-.92-.05-1.38-.15-3.1-.67-5.53-3.58-5.66-6.76-.01-.31,0-.63,0-.94.01-.61.03-1.19-.13-1.7-.17-.54-.74-1.08-1.22-.94l-.45-1.49c1.39-.42,2.75.68,3.15,1.97.23.75.21,1.48.2,2.2,0,.28-.02.56,0,.84.1,2.5,2.01,4.78,4.43,5.3,2.48.53,5.25-.95,5.93-3.19.26-.85.25-1.76.24-2.73,0-.55,0-1.1.04-1.65.17-2.19,1.21-3.84,2.78-4.41l.52,1.46c-1.15.41-1.66,1.85-1.76,3.06-.04.5-.03,1.01-.03,1.52,0,1.04.01,2.12-.31,3.19-.79,2.6-3.52,4.4-6.36,4.4Z" />
    <path class="cls-2"
      d="M121.35,127.98c-.17,0-.35,0-.52-.02-1.69-.13-3.16-.89-4.59-1.62-.62-.32-1.25-.64-1.89-.9-1.44-.59-3.42-.8-4.61.05l-.91-1.26c1.8-1.29,4.42-.93,6.11-.23.68.28,1.34.62,2,.95,1.35.69,2.63,1.34,4.01,1.45,3.19.26,5.99-2.71,6.85-5.73.91-3.2.36-6.7-.17-10.08l-.04-.22c-.59-3.72-.51-7.17.23-10.57l1.52.33c-.7,3.2-.77,6.47-.21,9.99l.03.22c.56,3.55,1.14,7.22.13,10.75-.97,3.41-4.05,6.87-7.94,6.87Z" />
    <path class="cls-2"
      d="M133.38,200.41H17.31c-4.65,0-6.54-1.72-6.54-5.95v-115.25c0-21.11,6.98-38.85,20.18-51.28,11.71-11.03,27.47-17.1,44.39-17.1s32.67,6.07,44.38,17.1c13.2,12.43,20.18,30.16,20.18,51.28v114.4c0,4.57-2.13,6.79-6.5,6.79ZM75.33,11.62c-30.72,0-63.78,21.15-63.78,67.6v115.25c0,3.82,1.51,5.17,5.77,5.17h116.08c3.91,0,5.73-1.91,5.73-6.02v-114.4c0-46.45-33.06-67.6-63.78-67.6Z" />
    <path class="cls-2"
      d="M33.94,195.49c-.41,0-.8-.11-1.14-.3-.34.19-.73.3-1.14.3h-4.41c-.42,0-.83-.11-1.17-.32-.34.2-.75.32-1.17.32h-7.41c-1.29,0-2.33-1.04-2.33-2.33v-4.38c0-1.13.81-2.08,1.88-2.29v-4.06c-1.07-.21-1.88-1.15-1.88-2.29v-4.38c0-1.29,1.04-2.33,2.33-2.33h10.9c1.01,0,1.91.65,2.22,1.61l.26.81.2-.72c.28-1.01,1.2-1.7,2.24-1.7h10.76c1.29,0,2.33,1.04,2.33,2.33v4.38c0,1.13-.8,2.07-1.87,2.28v4.06c1.06.22,1.87,1.16,1.87,2.28v4.38c0,1.29-1.04,2.33-2.33,2.33h-10.14Z" />
    <path class="cls-2"
      d="M45.02,195.49c-1.29,0-2.33-1.04-2.33-2.33v-4.38c0-1.13.81-2.08,1.88-2.29v-4.06c-1.07-.21-1.88-1.15-1.88-2.29v-4.38c0-1.29,1.04-2.33,2.33-2.33h16.32c1.29,0,2.33,1.04,2.33,2.33v6.43c0,1.09-.75,2.01-1.76,2.26,1.01.25,1.76,1.17,1.76,2.26v6.43c0,1.29-1.04,2.33-2.33,2.33h-16.32Z" />
    <path class="cls-2"
      d="M62.28,195.49c-1.29,0-2.33-1.04-2.33-2.33v-4.38c0-1.13.81-2.08,1.88-2.29v-4.06c-1.07-.21-1.88-1.15-1.88-2.29v-4.38c0-1.29,1.04-2.33,2.33-2.33h10.5c1.29,0,2.33,1.04,2.33,2.33v4.38c0,1.13-.8,2.07-1.87,2.28v1.86c.42-.39.97-.62,1.59-.62h4.01c1.29,0,2.33,1.04,2.33,2.33v7.15c0,1.29-1.04,2.33-2.33,2.33h-16.56Z" />
    <path class="cls-2"
      d="M82.27,195.49c-1.29,0-2.33-1.04-2.33-2.33v-4.38c0-1.13.8-2.07,1.87-2.28v-1.48h-3.53c-1.29,0-2.33-1.04-2.33-2.33v-6.92c0-1.29,1.04-2.33,2.33-2.33h18.48c1.29,0,2.33,1.04,2.33,2.33v6.92c0,1.29-1.04,2.33-2.33,2.33h-3.53v1.48c1.07.21,1.88,1.15,1.88,2.29v4.38c0,1.29-1.04,2.33-2.33,2.33h-10.5Z" />
    <path class="cls-2"
      d="M97.46,195.49c-1.29,0-2.33-1.04-2.33-2.33v-4.38c0-1.13.81-2.08,1.88-2.29v-4.06c-1.07-.21-1.88-1.15-1.88-2.29v-4.38c0-1.29,1.04-2.33,2.33-2.33h16.32c1.29,0,2.33,1.04,2.33,2.33v6.43c0,1.09-.75,2.01-1.76,2.26,1.01.25,1.76,1.17,1.76,2.26v6.43c0,1.29-1.04,2.33-2.33,2.33h-16.32Z" />
    <path class="cls-2"
      d="M114.71,195.49c-1.28,0-2.33-1.05-2.33-2.33v-4.38c0-1.13.81-2.08,1.88-2.29v-4.06c-1.07-.21-1.88-1.15-1.88-2.29v-4.38c0-1.29,1.04-2.33,2.33-2.33h12.15c1.3,0,2.59.18,3.82.54,1.33.39,2.54,1.04,3.58,1.92,1.07.9,1.92,2.09,2.55,3.53.61,1.4.92,3.1.92,5.04s-.3,3.63-.9,5.03c-.62,1.45-1.5,2.65-2.61,3.56-1.07.89-2.34,1.53-3.75,1.91-1.3.35-2.68.53-4.12.53,0,0-11.66-.02-11.66-.02Z" />
    <path class="cls-4"
      d="M33.94,193.16v-4.38c.67,0,1.11-.09,1.32-.28.21-.19.32-.53.32-1.05v-6.78l-3.92,12.48h-4.41l-3.98-11.82v6.26c0,.26.02.47.07.62.05.15.13.27.25.36s.29.14.5.17c.22.02.49.04.82.04v4.38h-7.41v-4.38c.67,0,1.15-.09,1.44-.28.29-.19.43-.53.43-1.05v-5.97c0-.52-.14-.87-.43-1.06-.29-.18-.77-.28-1.44-.28v-4.38h10.9l2.63,8.16,2.29-8.16h10.76v4.38c-.67,0-1.15.09-1.44.28s-.43.54-.43,1.06v5.97c0,.51.14.86.43,1.05s.77.28,1.44.28v4.38h-10.14Z" />
    <path class="cls-4"
      d="M55.72,188.78c.31,0,.57-.03.78-.08.21-.06.38-.16.5-.31.13-.15.21-.36.26-.63.05-.27.07-.61.07-1.03h4.01v6.43h-16.32v-4.38c.67,0,1.15-.09,1.44-.28.29-.19.43-.53.43-1.05v-5.97c0-.52-.14-.87-.43-1.06-.29-.18-.77-.28-1.44-.28v-4.38h16.32v6.43h-4.01c0-.42-.02-.76-.07-1.03-.05-.27-.13-.48-.26-.63-.13-.15-.29-.25-.5-.31-.21-.06-.47-.09-.78-.09h-2.06v3.14h3.65v2.09h-3.65v3.4h2.06Z" />
    <path class="cls-4"
      d="M72.78,180.15c-.67,0-1.15.09-1.44.28-.29.18-.43.54-.43,1.06v7.29h2.29c.31,0,.58-.03.79-.09.21-.06.38-.19.5-.4.12-.2.21-.48.26-.84.05-.36.07-.84.07-1.44h4.01v7.15h-16.56v-4.38c.67,0,1.15-.09,1.44-.28.29-.19.43-.53.43-1.05v-5.97c0-.52-.14-.87-.43-1.06-.29-.18-.77-.28-1.44-.28v-4.38h10.5v4.38Z" />
    <path class="cls-4"
      d="M96.75,175.77v6.92h-3.77c0-.53-.01-.99-.04-1.37-.03-.39-.09-.7-.18-.94-.09-.24-.23-.42-.42-.53-.19-.11-.44-.17-.75-.17h-.71v7.79c0,.51.14.86.43,1.05.29.19.77.28,1.44.28v4.38h-10.5v-4.38c.67,0,1.15-.09,1.44-.28s.43-.53.43-1.05v-7.79h-.7c-.31,0-.56.06-.75.17-.19.11-.33.29-.42.53-.1.24-.15.55-.18.94-.02.39-.03.85-.03,1.37h-3.78v-6.92h18.48Z" />
    <path class="cls-4"
      d="M108.16,188.78c.31,0,.57-.03.78-.08.21-.06.38-.16.5-.31.13-.15.21-.36.26-.63.05-.27.07-.61.07-1.03h4.01v6.43h-16.32v-4.38c.67,0,1.15-.09,1.44-.28.29-.19.43-.53.43-1.05v-5.97c0-.52-.14-.87-.43-1.06-.29-.18-.77-.28-1.44-.28v-4.38h16.32v6.43h-4.01c0-.42-.02-.76-.07-1.03-.05-.27-.13-.48-.26-.63-.13-.15-.29-.25-.5-.31-.21-.06-.47-.09-.78-.09h-2.06v3.14h3.65v2.09h-3.65v3.4h2.06Z" />
    <path class="cls-4"
      d="M114.72,193.16v-4.38c.67,0,1.15-.09,1.44-.28.29-.19.43-.53.43-1.05v-5.97c0-.52-.14-.87-.43-1.06-.29-.18-.77-.28-1.44-.28v-4.38h12.15c1.09,0,2.15.15,3.17.45,1.02.3,1.93.79,2.73,1.46.8.68,1.44,1.57,1.92,2.69.49,1.11.73,2.48.73,4.11s-.24,3-.71,4.11c-.48,1.11-1.13,2-1.95,2.68-.82.68-1.78,1.16-2.88,1.46-1.1.3-2.27.45-3.5.45l-11.66-.02ZM124.43,188.78c.42,0,.83-.05,1.23-.14.4-.09.75-.29,1.05-.59.3-.3.55-.73.74-1.29.19-.56.29-1.32.29-2.27s-.09-1.69-.27-2.26c-.18-.57-.42-1.01-.72-1.32-.29-.31-.64-.51-1.05-.61-.41-.1-.83-.15-1.26-.15h-1.08v8.63h1.08Z" />
    <path class="cls-4"
      d="M110.38,146.01c-.85,0-1.55-.69-1.55-1.54l-.04-7.54c0-.86.69-1.56,1.55-1.56h0c.85,0,1.55.69,1.55,1.54l.04,7.54c0,.86-.69,1.56-1.55,1.56h0Z" />
    <path class="cls-4"
      d="M113.92,142.25h-.01l-6.96-.06c-.86,0-1.55-.71-1.54-1.57,0-.86.68-1.53,1.57-1.54l6.96.06c.86,0,1.55.71,1.54,1.57,0,.85-.7,1.54-1.55,1.54Z" />
    <path class="cls-4"
      d="M120.65,165.37c-.85,0-1.55-.69-1.55-1.54l-.07-12.95c0-.86.69-1.56,1.54-1.56h0c.85,0,1.55.69,1.55,1.54l.07,12.95c0,.86-.69,1.56-1.54,1.56h0Z" />
    <path class="cls-4"
      d="M126.73,158.91h-.01l-11.95-.1c-.86,0-1.55-.71-1.54-1.57,0-.85.7-1.54,1.55-1.54h.01l11.95.1c.86,0,1.55.71,1.54,1.57,0,.85-.7,1.54-1.55,1.54Z" />
    <path class="cls-4"
      d="M35.04,164.78c-.85,0-1.55-.69-1.55-1.54l-.04-7.54c0-.86.69-1.56,1.55-1.56h0c.85,0,1.55.69,1.55,1.54l.04,7.54c0,.86-.69,1.56-1.55,1.56h0Z" />
    <path class="cls-4"
      d="M38.58,161.02h-.01l-6.96-.06c-.86,0-1.55-.71-1.54-1.57,0-.85.7-1.54,1.55-1.54h.01l6.96.06c.86,0,1.55.71,1.54,1.57,0,.85-.7,1.54-1.55,1.54Z" />
  </g>
</svg>