<?xml version="1.0" encoding="UTF-8"?>
<svg id="Capa_2" xmlns="http://www.w3.org/2000/svg" xmlns:xlink="http://www.w3.org/1999/xlink"
  viewBox="0 0 206.69 213.42">
  <defs>
    <style>
      .cls-1 {
        fill: aqua;
      }

      .cls-2 {
        fill: #29abe2;
      }

      .cls-3 {
        fill: #fff;
      }

      .cls-4 {
        filter: none;
      }

      .cls-5 {
        fill: #862291;
      }

      .cls-6 {
        fill: #1b1464;
      }

      .cls-7 {
        fill: #fcee21;
      }

      .cls-8 {
        fill: #ed1e79;
      }
    </style>
  </defs>
  <g id="_0">
    <g class="cls-4">
      <path class="cls-3"
        d="M204.23,121.7l-10.05-18.33c3.31-2.86,6.05-7.32,6.46-12.34.19-2.37-.09-5.88-2.44-9.38-1.15-2.55-3.47-5.68-8.17-7.79-.95-1.24-2.41-2.07-4.06-2.18-3.29-.23-5.49-9-5.65-17,0-.63,0-1.02,0-1.05,0-.04,0-.08,0-.12-.08-3.07-2.55-5.48-5.64-5.48-3.03,0-5.55,2.48-5.61,5.56,0,.09,0,.49,0,1.16,0,.84-.03,1.74-.08,2.67l-2.97-5.41c-3.5-6.37-10.18-10.32-17.44-10.32-1.95,0-3.89.29-5.68.83l-16.56,4.69c2.3-6.13,3.57-13.17,3.4-19.77-.3-11.7-5.21-19.83-13.47-22.3C105.03,1.77,90.68,0,74.77,0,52.32,0,12.54,4.12,5.81,19.54c-7.03,16.11.02,40.86,5.94,50.18,1.9,2.99,4.53,5.69,7.15,7.93-5.32,1.97-9.52,6.05-11.61,11.35-.68,1.71-1.11,3.54-1.29,5.45-.04.26-.06.53-.07.81-.02.41-.02.82-.02,1.24-.06,4.94-.36,23.43-.66,35.8-.13,5.48,1.29,10.78,4.14,15.42-.48.8-.76,1.73-.77,2.73,0,.08,0,.44,0,1.04-.08,9.36-2.44,15.74-4.04,16.01C1.91,167.97-.02,170.27,0,172.99c.02,2.72,1.99,5,4.67,5.42,1.43.22,4.41.69,4.94,10.67v.28c.17,2.93,2.6,5.23,5.53,5.23.08,0,.2,0,.28,0,.41-.02.8-.09,1.18-.19,1.15.5,2.4.8,3.72.91,3.24.25,6.02-.62,8.33-2.48.69,4.77,2.69,9.17,7.42,10.9,2.6.95,5.26.68,7.38-.65,5.33,6.52,13.34,10.36,21.84,10.36,2.62,0,5.22-.36,7.75-1.09l18.55-5.35c2.15,2.32,5.26,3.33,8.58,2.72,1.96-.36,4.38-1.4,6.51-4,.16,0,.33,0,.51,0,2.6-.13,4.69-2.13,5-4.66l27.91-8.06c.3,3.88,1.19,6.84,2.68,8.97,1.62,2.32,3.91,3.71,6.62,4.04,3.01.36,5.75-.76,7.72-3.04,2.54-2.95,3.76-8.07,3.79-15.98l12.14-3.51c7.28-2.08,13.5-7.09,17.09-13.76.03-.06.1-.19.13-.25l13.8-28.42c.48-.85.85-1.61,1.16-2.37,2.23-5.55,1.85-11.73-1.02-16.97Z" />
      <path class="cls-5"
        d="M65.29,207.67c-7.34,0-14.23-3.6-18.42-9.62l-31.89-52.28c-2.71-3.89-4.1-8.52-3.98-13.32.35-14.15.69-36.25.67-36.94,0-.31.13-.61.36-.8.18-.15.41-.23.65-.23.07,0,.14,0,.21.02l186.39,40.48c.3.07.55.27.69.54.13.28.13.6,0,.88l-14.84,30.56c-2.87,5.34-7.83,9.33-13.62,10.99l-100.03,28.87c-2.01.57-4.08.86-6.16.86h0Z" />
      <path class="cls-6"
        d="M12.67,95.47l186.39,40.48-14.84,30.56c-2.74,5.1-7.43,8.87-13,10.46l-100.04,28.87c-1.95.56-3.93.83-5.89.83-6.9,0-13.52-3.34-17.6-9.19l-31.86-52.23c-2.61-3.74-3.95-8.22-3.84-12.77.34-13.82.69-36.51.67-37h0ZM12.67,93.47c-.47,0-.93.17-1.29.47-.47.4-.73.98-.71,1.59.01.96-.32,22.78-.67,36.88-.12,5,1.32,9.81,4.16,13.92l31.83,52.18s.04.07.07.1c4.38,6.3,11.58,10.05,19.25,10.05,2.17,0,4.34-.3,6.44-.9l100.04-28.87c6.05-1.73,11.23-5.9,14.21-11.44.01-.02.03-.05.04-.07l14.84-30.56c.27-.55.27-1.2,0-1.75s-.78-.95-1.38-1.08L13.09,93.51c-.14-.03-.28-.05-.43-.05h0Z" />
      <path class="cls-1"
        d="M12.67,95.47c.02.49-.33,23.17-.67,37-.06,2.55.34,5.06,1.16,7.44,3.56-13.99,6.59-28.07,11.32-41.87l-11.8-2.56Z" />
      <path class="cls-8"
        d="M90.46,200.27l80.75-23.31c5.57-1.59,10.26-5.36,13-10.46l11.52-23.71s-14.3,24.59-22,29.01c-7.7,4.43-81.58,26.78-83.26,28.47Z" />
      <path class="cls-6"
        d="M40.21,165.38c-.87,5.63-1.53,11.07-2.03,16.49l6.59,10.8c-.27-7.18-.85-20.63-.85-20.63,0,0-2.71-4.66-3.71-6.66Z" />
      <path class="cls-6"
        d="M105.49,182.18l-28.09,8.21s-1.63,10.15,3.34,9.45c4.98-.7,5.39-3.88,5.39-3.88,0,0,.93,2.36,3.2,2.29s3.56-2.75,3.56-2.75l.43,4.77,10.01-3.71c.51-4.05,2.16-14.38,2.16-14.38Z" />
      <path class="cls-6" d="M151.41,169.39l-3.07.45s-6.56,9.91-7.35,15.85l10.56-2.47-.14-13.84Z" />
      <path class="cls-6" d="M22.34,137.42s-.03,10.9-.61,17.48l8.36,13.7c1.59-6.64-3.03-23.83-3.03-23.83l-4.71-7.35Z" />
      <path class="cls-6"
        d="M73.23,203.82s-.07,0-.11-.01c-.27-.06-.44-.33-.38-.6l.44-1.96c.06-.27.33-.44.6-.38.27.06.44.33.38.6l-.44,1.96c-.05.23-.26.39-.49.39Z" />
      <path class="cls-6"
        d="M74.02,200.34s-.07,0-.11-.01c-.27-.06-.44-.33-.38-.6l.46-2.03c.06-.27.33-.44.6-.38.27.06.44.33.38.6l-.46,2.03c-.05.23-.26.39-.49.39Z" />
      <path class="cls-6"
        d="M74.81,196.87s-.07,0-.11-.01c-.27-.06-.44-.33-.38-.6l1.27-5.6c.06-.27.33-.44.6-.38.27.06.44.33.38.6l-1.27,5.6c-.05.23-.26.39-.49.39Z" />
      <path class="cls-6"
        d="M91.4,183.73s-.09,0-.13-.02c-.27-.07-.42-.35-.35-.62l2.03-7.31c.07-.27.35-.43.62-.35.27.07.42.35.35.62l-2.03,7.31c-.06.22-.26.37-.48.37Z" />
      <path class="cls-6"
        d="M110.45,189.88s-.08,0-.12-.01c-.27-.07-.43-.34-.37-.61l.32-1.3c.07-.27.33-.43.61-.37.27.07.43.34.37.61l-.32,1.3c-.06.23-.26.38-.49.38Z" />
      <path class="cls-6"
        d="M111.16,187.03s-.08,0-.12-.01c-.27-.07-.43-.34-.37-.61l1.53-6.24c.07-.27.33-.43.61-.37.27.07.43.34.37.61l-1.53,6.24c-.06.23-.26.38-.49.38Z" />
      <path class="cls-6"
        d="M116.42,188.06s-.08,0-.12-.01c-.27-.07-.43-.34-.36-.61l.97-3.9c.07-.27.33-.43.61-.36.27.07.43.34.36.61l-.97,3.9c-.06.23-.26.38-.49.38Z" />
      <path class="cls-6"
        d="M117.91,182.07s-.08,0-.12-.01c-.27-.07-.43-.34-.36-.61l.81-3.25c.07-.27.34-.43.61-.36.27.07.43.34.36.61l-.81,3.25c-.06.23-.26.38-.49.38Z" />
      <path class="cls-6"
        d="M118.75,193.58s-.07,0-.11-.01c-.27-.06-.44-.33-.38-.6l1.24-5.52c.06-.27.32-.43.6-.38.27.06.44.33.38.6l-1.24,5.52c-.05.23-.26.39-.49.39Z" />
      <path class="cls-6"
        d="M120.5,185.78s-.07,0-.11-.01c-.27-.06-.44-.33-.38-.6l.93-4.11c.06-.27.33-.44.6-.38.27.06.44.33.38.6l-.93,4.11c-.05.23-.26.39-.49.39Z" />
      <path class="cls-6"
        d="M121.78,180.08s-.07,0-.11-.01c-.27-.06-.44-.33-.38-.6l.52-2.31c.06-.27.33-.44.6-.38.27.06.44.33.38.6l-.52,2.31c-.05.23-.26.39-.49.39Z" />
      <path class="cls-6"
        d="M13.68,136.33h-.01c-.28,0-.49-.24-.49-.51l.07-2.7c0-.28.26-.45.51-.49.28,0,.5.24.49.51l-.07,2.7c0,.27-.23.49-.5.49Z" />
      <path class="cls-6"
        d="M13.83,130.37h-.01c-.28,0-.5-.24-.49-.51l.05-1.87c0-.28.23-.48.51-.49.28,0,.49.24.49.51l-.05,1.87c0,.27-.23.49-.5.49Z" />
      <path class="cls-6"
        d="M13.96,125.38h-.01c-.28,0-.5-.24-.49-.51l.5-19.68c0-.28.24-.5.51-.49.28,0,.49.24.49.51l-.5,19.68c0,.27-.23.49-.5.49Z" />
      <path class="cls-6"
        d="M18.73,125.88s-.03,0-.05,0c-.28-.03-.48-.27-.45-.54l.31-3.38c.02-.28.29-.47.54-.45.28.03.48.27.45.54l-.31,3.38c-.02.26-.24.46-.5.46Z" />
      <path class="cls-6"
        d="M19.3,119.65s-.03,0-.05,0c-.28-.03-.48-.27-.45-.54l.51-5.64c.03-.28.29-.47.54-.45.28.03.48.27.45.54l-.51,5.64c-.02.26-.24.46-.5.46Z" />
      <path class="cls-6"
        d="M16.51,124.77s-.02,0-.03,0c-.28-.02-.49-.26-.47-.53l.12-1.96c.02-.27.24-.5.53-.47.28.02.49.26.47.53l-.12,1.96c-.02.27-.24.47-.5.47Z" />
      <path class="cls-6"
        d="M16.74,121.02s-.02,0-.03,0c-.28-.02-.49-.26-.47-.53l.64-10.28c.02-.27.24-.5.53-.47.28.02.49.26.47.53l-.64,10.28c-.02.27-.24.47-.5.47Z" />
      <path class="cls-6"
        d="M132.56,174.78s-.09,0-.13-.02c-.27-.07-.42-.35-.35-.61l.41-1.54c.07-.27.35-.42.61-.35.27.07.42.35.35.61l-.41,1.54c-.06.22-.26.37-.48.37Z" />
      <path class="cls-6"
        d="M133.64,170.79s-.09,0-.13-.02c-.27-.07-.43-.35-.35-.61l.43-1.59c.07-.27.35-.42.61-.35.27.07.43.35.35.61l-.43,1.59c-.06.22-.26.37-.48.37Z" />
      <path class="cls-6"
        d="M134.49,167.65s-.09,0-.13-.02c-.27-.07-.43-.35-.35-.61l1.38-5.13c.07-.27.35-.42.61-.35.27.07.43.35.35.61l-1.38,5.13c-.06.22-.26.37-.48.37Z" />
      <path class="cls-6"
        d="M141.11,172.17c-.05,0-.1,0-.16-.02-.26-.09-.41-.37-.32-.63l.45-1.38c.09-.26.37-.4.63-.32.26.09.41.37.32.63l-.45,1.38c-.07.21-.27.35-.48.35Z" />
      <path class="cls-6"
        d="M142.5,167.94c-.05,0-.1,0-.16-.02-.26-.09-.41-.37-.32-.63l2.31-7.05c.09-.26.37-.4.63-.32.26.09.41.37.32.63l-2.31,7.05c-.07.21-.27.35-.48.35Z" />
      <path class="cls-6"
        d="M34.84,152s-.03,0-.05,0c-.27-.03-.48-.27-.45-.55l.14-1.48c.03-.27.28-.46.55-.45.28.03.48.27.45.55l-.14,1.48c-.02.26-.24.45-.5.45Z" />
      <path class="cls-6"
        d="M35.22,147.93s-.03,0-.05,0c-.27-.03-.48-.27-.45-.55l.64-6.92c.03-.27.26-.47.55-.45.27.03.48.27.45.55l-.64,6.92c-.02.26-.24.45-.5.45Z" />
      <path class="cls-6"
        d="M29.99,144.43s-.02,0-.03,0c-.28-.02-.49-.26-.47-.53l.12-1.83c.02-.28.23-.49.53-.47.28.02.49.26.47.53l-.12,1.83c-.02.27-.24.47-.5.47Z" />
      <path class="cls-6"
        d="M30.25,140.34s-.02,0-.03,0c-.28-.02-.49-.26-.47-.53l.54-8.59c.02-.28.24-.49.53-.47.28.02.49.26.47.53l-.54,8.59c-.02.27-.24.47-.5.47Z" />
      <path class="cls-6"
        d="M53.93,181.16s-.07,0-.1,0c-.27-.05-.45-.32-.39-.59l.42-2.12c.05-.27.32-.45.59-.39.27.05.45.32.39.59l-.42,2.12c-.05.24-.26.4-.49.4Z" />
      <path class="cls-6"
        d="M54.68,177.4s-.07,0-.1,0c-.27-.05-.45-.32-.39-.59l1.02-5.09c.05-.27.33-.45.59-.39.27.05.45.32.39.59l-1.02,5.09c-.05.24-.26.4-.49.4Z" />
      <path class="cls-6"
        d="M25.44,134.8s-.03,0-.04,0c-.28-.02-.48-.26-.46-.54l.13-1.7c.02-.28.28-.48.54-.46.28.02.48.26.46.54l-.13,1.7c-.02.26-.24.46-.5.46Z" />
      <path class="cls-6"
        d="M25.72,131.09s-.03,0-.04,0c-.28-.02-.48-.26-.46-.54l.5-6.5c.02-.28.29-.48.54-.46.28.02.48.26.46.54l-.5,6.5c-.02.26-.24.46-.5.46Z" />
      <path class="cls-6"
        d="M67.2,190.04s-.08,0-.12-.01c-.27-.07-.43-.34-.37-.61l1.81-7.36c.07-.27.33-.43.61-.37.27.07.43.34.37.61l-1.81,7.36c-.06.23-.26.38-.49.38Z" />
      <path class="cls-6"
        d="M54.78,205.16c-.05,0-.1,0-.15-.02-.26-.08-.41-.37-.32-.63l.68-2.11c.09-.26.37-.41.63-.32.26.08.41.37.32.63l-.68,2.11c-.07.21-.27.35-.48.35Z" />
      <path class="cls-6"
        d="M56.11,201.04c-.05,0-.1,0-.15-.02-.26-.08-.41-.37-.32-.63l1.47-4.58c.08-.26.37-.41.63-.32.26.08.41.37.32.63l-1.47,4.58c-.07.21-.27.35-.48.35Z" />
      <path class="cls-6"
        d="M134.27,181.28s-.07,0-.11-.01c-.27-.06-.44-.33-.38-.6l.28-1.21c.06-.27.34-.44.6-.38.27.06.44.33.38.6l-.28,1.21c-.05.23-.26.39-.49.39Z" />
      <path class="cls-6"
        d="M132.25,190.04s-.07,0-.11-.01c-.27-.06-.44-.33-.38-.6l1.31-5.67c.06-.27.33-.44.6-.38.27.06.44.33.38.6l-1.31,5.67c-.05.23-.26.39-.49.39Z" />
      <path class="cls-6"
        d="M168.48,158.71s-.07,0-.11-.01c-.27-.06-.44-.32-.38-.6l1.55-7.14c.06-.27.32-.44.6-.38.27.06.44.32.38.6l-1.55,7.14c-.05.23-.26.39-.49.39Z" />
      <path class="cls-6"
        d="M180.68,158.1s-.1,0-.15-.02c-.27-.08-.41-.36-.33-.63l.44-1.46c.08-.26.36-.41.63-.33.27.08.41.36.33.63l-.44,1.46c-.07.22-.26.36-.48.36Z" />
      <path class="cls-6"
        d="M181.63,154.98s-.1,0-.15-.02c-.27-.08-.41-.36-.33-.63l.48-1.59c.08-.26.36-.41.63-.33.27.08.41.36.33.63l-.48,1.59c-.07.22-.26.36-.48.36Z" />
      <path class="cls-6"
        d="M182.67,151.57s-.1,0-.15-.02c-.27-.08-.41-.36-.33-.63l1.25-4.12c.08-.26.36-.41.63-.33.27.08.41.36.33.63l-1.25,4.12c-.07.22-.26.36-.48.36Z" />
      <path class="cls-6"
        d="M186.47,151.57s-.09,0-.13-.02c-.27-.07-.42-.35-.35-.62.9-3.26,1.37-4.94,1.49-5.3.09-.26.37-.41.63-.32.26.09.41.37.32.63-.16.5-1.15,4.08-1.48,5.26-.06.22-.26.37-.48.37Z" />
      <path class="cls-6"
        d="M185.43,155.34s-.09,0-.13-.02c-.27-.07-.42-.35-.35-.62l.46-1.69c.07-.27.35-.42.62-.35.27.07.42.35.35.62l-.46,1.68c-.06.22-.26.37-.48.37Z" />
      <path class="cls-6"
        d="M31.72,173.34s-.04,0-.06,0c-.27-.03-.47-.28-.44-.56l.29-2.55c.03-.28.28-.47.55-.44.27.03.47.28.44.55l-.29,2.55c-.03.26-.25.44-.5.44Z" />
      <path class="cls-6"
        d="M32.36,167.76s-.04,0-.06,0c-.27-.03-.47-.28-.44-.55.17-1.49.62-5.47.64-5.7.02-.27.25-.53.52-.47.27,0,.49.22.49.5,0,.07,0,.14-.64,5.79-.03.26-.25.44-.5.44Z" />
      <path class="cls-6"
        d="M34.16,177.82s-.04,0-.05,0c-.27-.03-.47-.28-.45-.55l1.38-13.05c.03-.28.28-.48.55-.45.27.03.47.28.45.55l-1.38,13.05c-.03.26-.24.45-.5.45Z" />
      <path class="cls-8"
        d="M70.38,182.26c-5.04,0-9.73-2.71-12.24-7.06L13.56,103.42c-2.19-3.79-2.52-8.26-.93-12.3,1.6-4.04,4.89-7.07,9.05-8.33l122.82-34.75c1.31-.4,2.69-.6,4.08-.6,5.16,0,9.91,2.81,12.39,7.34l26.77,48.84,11.44,20.86c2.04,3.72,2.31,8.12.72,12.06-1.58,3.94-4.81,6.93-8.85,8.21l-116.41,36.87c-1.38.44-2.81.66-4.26.66Z" />
      <path class="cls-6"
        d="M148.58,48.43c4.69,0,9.16,2.53,11.51,6.82l24.67,45,2.1,3.84,11.44,20.86c3.98,7.25.34,16.34-7.55,18.83l-116.41,36.87c-1.31.41-2.64.61-3.95.61-4.59,0-8.98-2.42-11.37-6.56l-16.63-26.78-2.14-3.45-25.83-41.59c-4.24-7.33-.54-16.69,7.56-19.15l122.81-34.74c1.26-.38,2.54-.57,3.81-.57h0ZM148.58,46.43h0c-1.49,0-2.96.22-4.39.65L21.43,81.81c-4.49,1.36-8.02,4.61-9.73,8.93-1.71,4.32-1.35,9.11.97,13.14.01.02.02.04.03.05l25.83,41.59,2.14,3.45,16.61,26.75c2.7,4.65,7.71,7.53,13.09,7.53,1.54,0,3.08-.24,4.56-.7l116.42-36.87c4.33-1.37,7.79-4.57,9.48-8.79,1.69-4.22,1.41-8.93-.78-12.92l-11.44-20.86-2.1-3.84-24.67-45c-2.66-4.85-7.74-7.86-13.27-7.86h0Z" />
      <path class="cls-5"
        d="M114.97,142.57c3.34-2.23-.7-6.92-3.31-7.58-3.94-.99-10.48,2.05-14.44,2.51-4.37.51-8.68,1.43-12.94,2.51-4.54,1.15-9,2.58-13.4,4.15-3.96,1.41-14.09,3.63-17.68,5.85-5.96,3.69-1.7,9.87,7.49,9.01,9.19-.85,50.93-14.23,54.28-16.46Z" />
      <path class="cls-5"
        d="M189.77,122.43c-8.72-8.53-29.07-.02-39.48,3.2-4.84,1.5-24.59,5.3-25.27,5.91-3.88,3.45-7.13,8.61-1.39,19.26,2.77,5.15,11.87,6.67,20.02,4.05,8.15-2.62,43.56-12.74,46.26-18.79,1.11-2.17,1.91-11.61-.14-13.62Z" />
      <path class="cls-5"
        d="M33.19,90.24c33.06,3.01,66.12-4.01,90.17-28.05,2.39-2.39,4.45-5.42,5.77-8.77l-107.16,30.32c-.14.04-.28.11-.42.15,2.47,3.52,7.25,5.72,11.64,6.35Z" />
      <path class="cls-7"
        d="M198.31,124.95l-38.21-69.7c-2.99-5.45-9.38-8.06-15.32-6.26l-6.45,1.83c8.07-.13,16.04-2.39,23.75,12.29,4.48,8.52,27.4,48.53,34.5,66,1.68,6.33.6,10.31-3.01,13.41,5.89-3.53,8.22-11.24,4.75-17.57Z" />
      <path class="cls-1"
        d="M17.01,101.49c-3.35-7.17-.5-13.56,13.51-18.31,24.27-7.5,59.95-18.81,59.95-18.81l-68.49,19.38c-8.1,2.45-11.8,11.81-7.56,19.15l25.83,41.59,2.14,3.45,16.63,26.78c.68,1.18,1.54,2.22,2.5,3.1-4.79-9.63-9.72-19.15-15.3-28.45-10.02-19.03-27.71-44.67-29.21-47.87Z" />
      <polygon class="cls-6" points="184.75 100.46 39.1 145.83 39.1 143.49 183.22 98.62 184.75 100.46" />
      <path class="cls-2"
        d="M53.42,134.34c-4.87,0-9.23-2.2-11.38-5.74l-13.01-23.74c-1.86-3.07-2.21-6.51-.98-9.68,1.41-3.62,4.79-6.52,9.03-7.76l102.23-29.68c1.16-.34,2.35-.51,3.55-.51,4.67,0,8.95,2.55,11.18,6.66l11.45,21.1c2.62,4.83,3.34,9.27,2.02,12.5-.93,2.26-2.8,3.83-5.56,4.67l-104.3,31.58c-1.33.4-2.75.61-4.21.61h0Z" />
      <path class="cls-6"
        d="M142.86,57.73c4.39,0,8.56,2.38,10.74,6.39l11.45,21.1c3.69,6.8,4.15,14.2-3.25,16.45l-104.3,31.58c-1.3.39-2.68.59-4.07.59-4.34,0-8.76-1.89-10.95-5.5l-13-23.73c-4.17-6.87.03-14.47,7.75-16.71l102.23-29.68c1.13-.33,2.28-.49,3.41-.49h0ZM142.86,56.73c-1.24,0-2.49.18-3.69.53l-102.23,29.68c-4.39,1.28-7.89,4.29-9.36,8.05-1.29,3.32-.93,6.92,1.03,10.14l12.98,23.69c2.26,3.73,6.79,6.02,11.83,6.02,1.51,0,2.98-.21,4.36-.63l104.3-31.58c2.92-.89,4.9-2.55,5.88-4.96,1.38-3.37.66-7.96-2.04-12.93l-11.45-21.1c-2.32-4.27-6.77-6.92-11.62-6.92h0Z" />
      <polygon class="cls-1" points="115.94 115.55 33.01 111.09 35.9 116.35 98.2 120.92 115.94 115.55" />
      <polygon class="cls-1" points="128.11 73.41 117.53 76.75 116.4 74.58 126.97 71.24 128.11 73.41" />
      <polygon class="cls-1" points="118.67 78.93 114.42 80.27 113.28 78.1 117.53 76.75 118.67 78.93" />
      <polygon class="cls-1" points="115.55 82.44 113.51 83.09 112.37 80.92 114.42 80.27 115.55 82.44" />
      <polygon class="cls-1" points="137.48 95.89 131 97.93 129.86 95.76 136.34 93.71 137.48 95.89" />
      <polygon class="cls-1" points="129.86 95.76 127.82 96.41 126.68 94.23 128.72 93.59 129.86 95.76" />
      <polygon class="cls-1" points="138.39 93.07 136.34 93.71 135.21 91.54 137.25 90.89 138.39 93.07" />
      <polygon class="cls-1" points="124.96 90.95 122.92 91.6 119.78 85.61 121.83 84.96 124.96 90.95" />
      <polygon class="cls-1" points="137.58 86.97 135.53 87.61 132.4 81.62 134.44 80.98 137.58 86.97" />
      <polygon class="cls-1" points="115.85 87.57 113.81 88.22 111.47 83.74 113.51 83.09 115.85 87.57" />
      <polygon class="cls-1" points="141.94 99.86 131.37 103.2 132.51 105.37 143.08 102.03 141.94 99.86" />
      <polygon class="cls-1" points="130.23 101.02 125.98 102.37 127.11 104.54 131.37 103.2 130.23 101.02" />
      <polygon class="cls-1" points="124.84 100.19 122.8 100.84 123.93 103.01 125.98 102.37 124.84 100.19" />
      <polygon class="cls-1" points="120.45 96.36 118.41 97 120.75 101.49 122.8 100.84 120.45 96.36" />
      <polygon class="cls-1" points="118.41 97 116.36 97.65 111.77 88.87 113.81 88.22 118.41 97" />
      <polygon class="cls-1" points="129.24 75.59 133.5 74.24 132.36 72.07 128.11 73.41 129.24 75.59" />
      <polygon class="cls-1" points="134.63 76.42 136.68 75.77 135.54 73.6 133.5 74.24 134.63 76.42" />
      <polygon class="cls-1" points="139.02 80.25 141.07 79.61 138.72 75.12 136.68 75.77 139.02 80.25" />
      <polygon class="cls-1" points="140.8 97.68 145.06 96.34 146.2 98.51 141.94 99.86 140.8 97.68" />
      <polygon class="cls-1" points="143.92 94.17 145.97 93.52 147.1 95.69 145.06 96.34 143.92 94.17" />
      <polygon class="cls-1" points="143.62 89.04 145.66 88.39 148.01 92.87 145.97 93.52 143.62 89.04" />
      <polygon class="cls-1" points="145.66 88.39 147.71 87.75 143.11 78.96 141.07 79.61 145.66 88.39" />
      <polygon class="cls-6" points="127.85 71.32 117.28 74.66 118.41 76.84 128.99 73.5 127.85 71.32" />
      <polygon class="cls-6" points="118.41 76.84 114.16 78.18 115.3 80.36 119.55 79.01 118.41 76.84" />
      <polygon class="cls-6" points="115.3 80.36 113.25 81 114.39 83.18 116.43 82.53 115.3 80.36" />
      <polygon class="cls-6" points="131.88 98.02 138.36 95.97 137.22 93.8 130.74 95.85 131.88 98.02" />
      <polygon class="cls-6" points="127.56 94.32 128.7 96.49 130.74 95.85 129.6 93.67 127.56 94.32" />
      <polygon class="cls-6" points="138.13 90.98 136.09 91.62 137.22 93.8 139.27 93.15 138.13 90.98" />
      <polygon class="cls-6" points="120.67 85.69 123.8 91.68 125.84 91.04 122.71 85.05 120.67 85.69" />
      <polygon class="cls-6" points="138.46 87.05 135.33 81.06 133.28 81.71 136.41 87.7 138.46 87.05" />
      <polygon class="cls-6" points="114.39 83.18 112.35 83.82 114.69 88.31 116.74 87.66 114.39 83.18" />
      <polygon class="cls-6" points="133.39 105.46 143.96 102.12 142.82 99.94 132.25 103.28 133.39 105.46" />
      <polygon class="cls-6" points="126.86 102.46 128 104.63 132.25 103.28 131.11 101.11 126.86 102.46" />
      <polygon class="cls-6" points="123.68 100.93 124.81 103.1 126.86 102.46 125.72 100.28 123.68 100.93" />
      <polygon class="cls-6" points="119.29 97.09 121.63 101.57 123.68 100.93 121.33 96.44 119.29 97.09" />
      <polygon class="cls-6" points="112.65 88.95 117.24 97.74 119.29 97.09 114.69 88.31 112.65 88.95" />
      <polygon class="cls-6" points="134.38 74.33 133.24 72.15 128.99 73.5 130.12 75.67 134.38 74.33" />
      <polygon class="cls-6" points="137.56 75.86 136.42 73.68 134.38 74.33 135.52 76.5 137.56 75.86" />
      <polygon class="cls-6" points="141.95 79.69 139.6 75.21 137.56 75.86 139.9 80.34 141.95 79.69" />
      <polygon class="cls-6" points="142.82 99.94 147.08 98.6 145.94 96.43 141.68 97.77 142.82 99.94" />
      <polygon class="cls-6" points="146.85 93.61 144.8 94.25 145.94 96.43 147.98 95.78 146.85 93.61" />
      <polygon class="cls-6" points="146.85 93.61 148.89 92.96 146.54 88.48 144.5 89.12 146.85 93.61" />
      <polygon class="cls-6" points="148.59 87.83 143.99 79.05 141.95 79.69 146.54 88.48 148.59 87.83" />
      <path class="cls-1"
        d="M51.71,122.56l-9.49-19.48,4.3-1.31,3.39,6.96,2.04-.62-3.39-6.96,4.3-1.31,9.49,19.48-4.3,1.31-4.3-8.83-2.04.62,4.3,8.83-4.3,1.31Z" />
      <path class="cls-1"
        d="M64.28,118.75l-9.49-19.48,8.66-2.63,1.83,3.76-4.25,1.29,1.85,3.8,4.08-1.24,1.78,3.66-4.08,1.24,2.17,4.46,4.54-1.38,1.85,3.8-8.94,2.71Z" />
      <path class="cls-1" d="M74.64,115.6l-9.49-19.48,4.33-1.31,7.87,16.16,4.45-1.35,1.62,3.32-8.78,2.66Z" />
      <path class="cls-1" d="M84.65,112.56l-9.49-19.48,4.33-1.31,7.87,16.16,4.45-1.35,1.62,3.32-8.78,2.66Z" />
      <path class="cls-1"
        d="M99.91,108.13c-1.73.53-3.28.46-4.65-.21-1.37-.66-2.49-1.89-3.36-3.66l-4.51-9.25c-.81-1.67-.98-3.07-.49-4.21.48-1.14,1.6-1.97,3.35-2.5,1.75-.53,3.28-.5,4.61.09,1.33.59,2.4,1.72,3.21,3.38l4.51,9.26c.87,1.78,1.07,3.28.62,4.5-.46,1.22-1.55,2.09-3.28,2.61ZM98.2,104.54c.66-.2.7-.87.15-2.01l-4.63-9.51c-.47-.96-1.02-1.34-1.66-1.15-.72.22-.84.82-.36,1.8l4.63,9.5c.3.6.59,1.01.88,1.23.29.21.63.26,1,.15Z" />
      <path class="cls-6"
        d="M52.62,122.97l-9.49-19.48,4.3-1.31,3.39,6.96,2.04-.62-3.39-6.96,4.3-1.31,9.49,19.48-4.3,1.31-4.3-8.83-2.04.62,4.3,8.83-4.3,1.31Z" />
      <path class="cls-6"
        d="M65.19,119.15l-9.49-19.48,8.66-2.63,1.83,3.76-4.25,1.29,1.85,3.8,4.08-1.24,1.78,3.66-4.08,1.24,2.17,4.46,4.54-1.38,1.85,3.8-8.94,2.71Z" />
      <path class="cls-6" d="M75.55,116.01l-9.49-19.48,4.33-1.31,7.87,16.16,4.45-1.35,1.62,3.32-8.78,2.67Z" />
      <path class="cls-6" d="M85.56,112.97l-9.49-19.48,4.33-1.31,7.87,16.16,4.45-1.35,1.62,3.32-8.78,2.67Z" />
      <path class="cls-6"
        d="M100.82,108.54c-1.73.53-3.28.46-4.65-.21-1.37-.66-2.49-1.89-3.36-3.66l-4.51-9.25c-.81-1.67-.98-3.07-.49-4.21.48-1.14,1.6-1.97,3.35-2.5,1.75-.53,3.28-.5,4.61.09,1.33.59,2.4,1.72,3.21,3.38l4.51,9.26c.87,1.78,1.07,3.28.62,4.5-.46,1.22-1.55,2.09-3.28,2.61ZM99.11,104.94c.66-.2.7-.87.15-2.01l-4.63-9.51c-.47-.96-1.02-1.34-1.66-1.15-.72.22-.84.82-.36,1.8l4.63,9.5c.3.6.59,1.01.88,1.23.29.21.63.26,1,.15Z" />
      <path class="cls-1"
        d="M161.79,101.67c4.68-1.42,6.21-4.91,5.77-9l-137.16-.47c-2.32,2.75-3.24,6.34-2.09,9.93l106.71,7.64,26.76-8.1Z" />
      <path class="cls-6"
        d="M35.1,93.46l102.23-29.68c5.52-1.6,11.41.86,14.15,5.91l11.45,21.1c1.61,2.96,2.75,6.12,2.75,8.84,3.52-3.36,2.43-9.23-.46-14.56l-11.62-20.94c-2.74-5.05-8.63-7.51-14.15-5.91l-102.42,29.41c-5.38,1.56-9.77,6.07-9.18,10.71,1.65-2.22,4.16-3.98,7.25-4.87Z" />
      <path class="cls-6"
        d="M67.5,192.94c-6.83,0-13.39-3.5-17.11-9.51L11.59,120.66c-.14-.22-.07-.52.15-.65.22-.14.52-.07.65.15l38.81,62.77c4.51,7.29,13.39,10.7,21.62,8.3l116.49-34.03c.25-.08.52.07.59.32.07.25-.07.52-.32.59l-116.49,34.03c-1.85.54-3.73.8-5.59.8Z" />
      <path class="cls-6"
        d="M131.2,125.29l42.09-13.63c5.91-1.91,12.27.7,15.49,6.36l.12.21c4.68,8.22.83,19-7.77,21.74l-42.21,13.42c-6.31,2.01-13.05-1.14-15.99-7.48h0c-3.78-8.14.18-17.99,8.27-20.62Z" />
      <path class="cls-8"
        d="M135.73,151.83c-5.06,0-9.7-2.76-12.13-7.19-1.96-3.59-2.23-7.84-.74-11.65s4.56-6.75,8.44-8.06l40.74-13.79c1.43-.49,2.92-.73,4.43-.73,4.64,0,8.95,2.31,11.51,6.18l.12.18c2.4,3.61,2.97,8.04,1.55,12.14-1.41,4.1-4.58,7.24-8.7,8.61l-40.86,13.61c-1.41.47-2.88.71-4.37.71Z" />
      <path class="cls-6"
        d="M176.47,110.9c4.37,0,8.58,2.16,11.1,5.95l.12.18c4.85,7.31,1.43,17.23-6.89,20l-40.86,13.61c-1.39.46-2.81.68-4.21.68-4.76,0-9.3-2.56-11.69-6.93h0c-3.97-7.26-.42-16.34,7.42-18.99l40.74-13.79c1.4-.48,2.85-.7,4.27-.7h0ZM176.47,109.9h0c-1.56,0-3.11.25-4.59.76l-40.74,13.79c-4.02,1.36-7.2,4.4-8.75,8.35-1.54,3.95-1.26,8.35.77,12.07,2.51,4.6,7.33,7.46,12.57,7.46,1.54,0,3.06-.25,4.52-.74l40.86-13.61c4.26-1.42,7.55-4.67,9.01-8.92s.88-8.83-1.61-12.58l-.12-.18c-2.66-4.01-7.12-6.4-11.93-6.4h0Z" />
      <path class="cls-7"
        d="M189.41,120.84c-.37-1.31-.92-2.59-1.72-3.8l-.12-.18c-3.34-5.03-9.64-7.18-15.36-5.25l-40.74,13.79c-2.94,1-5.28,2.9-6.84,5.27,17.29-7.25,46.09-15.99,52.74-16.36,6.65-.37,8.91,3,12.05,6.52Z" />
      <path class="cls-6"
        d="M143.4,149.99c-.19,0-.37-.11-.45-.29l-11.27-24.32c-.12-.25,0-.55.24-.67.25-.12.55,0,.67.24l11.27,24.32c.12.25,0,.55-.24.67-.07.03-.14.05-.21.05Z" />
      <path class="cls-6"
        d="M137.67,137.61c-.21,0-.41-.13-.48-.34-.09-.26.05-.55.32-.63l38.45-12.77c.26-.09.55.06.63.32.09.26-.05.55-.32.63l-38.45,12.77c-.05.02-.11.03-.16.03Z" />
      <path class="cls-6"
        d="M182.72,136.55c-.18,0-.36-.1-.45-.28l-12.14-24.36c-.12-.25-.02-.55.23-.67.25-.12.55-.02.67.22l12.14,24.36c.12.25.02.55-.23.67-.07.04-.15.05-.22.05Z" />
      <polygon class="cls-7" points="127.21 140.71 135.99 143.39 130.87 132.28 127.21 140.71" />
      <path class="cls-6"
        d="M135.99,143.89s-.1,0-.15-.02l-8.78-2.68c-.14-.04-.25-.14-.31-.27-.06-.13-.06-.28,0-.41l3.66-8.42c.08-.18.26-.3.45-.3.21,0,.38.11.46.29l5.12,11.1c.08.18.05.39-.08.54-.1.11-.23.17-.38.17ZM127.89,140.39l7.18,2.19-4.19-9.07-2.99,6.88Z" />
      <polygon class="cls-7" points="186.21 119.94 177.43 117.26 182.55 128.36 186.21 119.94" />
      <path class="cls-6"
        d="M182.55,128.86c-.2,0-.37-.11-.45-.29l-5.12-11.1c-.08-.18-.05-.39.08-.54.13-.15.34-.21.52-.15l8.78,2.68c.14.04.25.14.31.27.06.13.06.28,0,.41l-3.66,8.42c-.08.18-.26.3-.45.3h0ZM178.35,118.07l4.19,9.07,2.99-6.88-7.17-2.19Z" />
      <polygon class="cls-7" points="153.94 121.3 150.27 129.71 161.89 125.9 153.94 121.3" />
      <path class="cls-6"
        d="M150.27,130.21c-.14,0-.27-.06-.37-.16-.13-.15-.17-.36-.09-.54l3.67-8.41c.06-.13.17-.23.3-.27.13-.05.28-.03.41.04l7.94,4.6c.17.1.27.29.25.49-.02.2-.15.36-.34.42l-11.62,3.81c-.05.02-.1.03-.16.03ZM154.18,122.01l-3,6.87,9.49-3.11-6.49-3.76Z" />
      <polygon class="cls-7" points="160.71 140.91 164.39 132.5 152.77 136.31 160.71 140.91" />
      <path class="cls-6"
        d="M160.72,141.41c-.09,0-.17-.02-.25-.07l-7.94-4.6c-.17-.1-.27-.29-.25-.49.02-.2.15-.36.34-.42l11.62-3.81c.19-.07.39,0,.53.14.13.15.17.36.09.54l-3.67,8.41c-.06.13-.17.23-.3.27-.05.02-.1.03-.16.03ZM153.99,136.44l6.49,3.76,3-6.87-9.49,3.11Z" />
      <path class="cls-6"
        d="M57.45,147.17s-4.18,1.54-3.4,5.72c.63,3.41,3.84,5.08,9.34,3.38s47.73-15.6,50.9-17.35c3.17-1.75,1.95-6.54,1.95-6.54l-58.79,14.79Z" />
      <path class="cls-8"
        d="M58.75,154.6c-1.47,0-2.83-.79-3.55-2.07-.61-1.07-.7-2.33-.26-3.48.44-1.15,1.36-2.03,2.52-2.41l53.5-17.82c.45-.15.92-.23,1.39-.23,1.63,0,3.12.9,3.89,2.34.61,1.15.68,2.5.18,3.71s-1.49,2.13-2.73,2.53l-53.69,17.23c-.4.13-.82.2-1.25.2Z" />
      <path class="cls-6"
        d="M112.34,129.09c1.41,0,2.75.77,3.44,2.07h0c1.13,2.14.06,4.79-2.25,5.53l-53.69,17.23c-.36.12-.73.17-1.1.17-1.26,0-2.47-.67-3.12-1.82-1.12-1.96-.16-4.46,1.99-5.17l53.5-17.82c.41-.14.82-.2,1.23-.2h0ZM112.34,128.09h0c-.53,0-1.05.08-1.55.25l-53.5,17.82c-1.31.44-2.34,1.42-2.83,2.71-.49,1.29-.39,2.71.29,3.91.81,1.43,2.34,2.32,3.99,2.32.48,0,.95-.07,1.4-.22l53.69-17.23c1.38-.44,2.49-1.47,3.04-2.81.55-1.34.47-2.85-.21-4.14-.85-1.61-2.51-2.61-4.33-2.61h0Z" />
      <path class="cls-7"
        d="M115.79,131.16c-.89-1.68-2.87-2.47-4.67-1.87l-53.5,17.82c-1.09.36-1.87,1.19-2.23,2.17,19.99-6.43,39.28-15.62,60.58-17.66-.06-.15-.1-.31-.18-.46Z" />
      <path class="cls-6"
        d="M86.75,148.79s-.07,0-.1,0c-.27-.05-.45-.32-.39-.59l.68-3.34c-.14-2.95-.48-5.26-3.16-6.02-.27-.08-.42-.35-.34-.62.08-.27.35-.43.62-.34,3.6,1.03,3.76,4.48,3.88,7,0,.04,0,.08,0,.12l-.69,3.4c-.05.24-.26.4-.49.4Z" />
      <polygon class="cls-5" points="54.53 112.25 47.21 111.85 49.9 117.38 55.02 117.76 52.62 112.83 54.53 112.25" />
      <polygon class="cls-5" points="54.69 112.26 57.45 117.93 62.58 118.31 59.76 112.53 54.69 112.26" />
      <polygon class="cls-5" points="47.43 102.18 43.91 103.25 48.1 103.55 47.43 102.18" />
      <polygon class="cls-5" points="53.78 100.25 49.47 101.56 50.53 103.72 55.65 104.09 53.78 100.25" />
      <polygon class="cls-5"
        points="72.56 113.22 70.71 113.12 67.74 114.02 67.21 112.93 62.02 112.65 64.86 118.48 66.91 118.63 74.13 116.44 72.56 113.22" />
      <polygon class="cls-5"
        points="61.93 102.1 66.19 100.81 64.35 97.04 55.7 99.67 57.93 104.25 63.16 104.63 61.93 102.1" />
      <polygon class="cls-5" points="67.86 104.65 67.04 104.9 68.02 104.97 67.86 104.65" />
      <polygon class="cls-5" points="75.55 116.01 82.9 113.78 74.24 113.31 75.55 116.01" />
      <polygon class="cls-5" points="66.06 96.52 70.26 105.13 75.4 105.5 70.39 95.21 66.06 96.52" />
      <polygon class="cls-5" points="80.4 92.17 79.74 92.37 80.5 92.37 80.4 92.17" />
      <polygon class="cls-5" points="79.74 92.37 76.07 93.49 82.16 105.99 87.31 106.35 80.5 92.37 79.74 92.37" />
      <path class="cls-5"
        d="M104.1,105.92c.45-1.22.25-2.72-.62-4.5l-4.38-8.99-5.23-.02c.27.19.53.53.76,1l4.63,9.51c.56,1.14.51,1.81-.15,2.01-.38.11-.71.07-1-.15-.29-.21-.59-.62-.88-1.23l-4.63-9.5c-.4-.82-.37-1.37.06-1.66l-5.11-.02c-.04.89.2,1.89.75,3.02l4.51,9.25c.42.86.9,1.58,1.43,2.18l8.71.62c.54-.43.92-.95,1.14-1.55Z" />
      <polygon class="cls-5" points="131.88 98.02 138.36 95.97 137.22 93.8 130.74 95.85 131.88 98.02" />
      <polygon class="cls-5" points="127.56 94.32 128.7 96.49 130.74 95.85 129.6 93.67 127.56 94.32" />
      <polygon class="cls-5" points="139.27 93.15 138.96 92.57 136.58 92.56 137.22 93.8 139.27 93.15" />
      <polygon class="cls-5" points="133.39 105.46 143.96 102.12 142.82 99.94 132.25 103.28 133.39 105.46" />
      <polygon class="cls-5" points="126.86 102.46 128 104.63 132.25 103.28 131.11 101.11 126.86 102.46" />
      <polygon class="cls-5" points="123.68 100.93 124.81 103.1 126.86 102.46 125.72 100.28 123.68 100.93" />
      <polygon class="cls-5" points="119.29 97.09 121.63 101.57 123.68 100.93 121.33 96.44 119.29 97.09" />
      <polygon class="cls-5" points="119.29 97.09 116.88 92.5 114.5 92.49 117.24 97.74 119.29 97.09" />
      <polygon class="cls-5" points="142.82 99.94 147.08 98.6 145.94 96.43 141.68 97.77 142.82 99.94" />
      <polygon class="cls-5" points="145.94 96.43 147.98 95.78 146.85 93.61 144.8 94.25 145.94 96.43" />
      <polygon class="cls-5" points="146.85 93.61 148.89 92.96 148.7 92.61 146.32 92.6 146.85 93.61" />
      <path class="cls-3"
        d="M146.7,106.24s5.22-12.55,14.09-21.21c5.73-5.59,12.81-10.07,22.5-8.28,19.63,3.65,9.37,23.53,3.34,24.24-3.64.43-27.49,1.1-39.94,5.25Z" />
      <path class="cls-2"
        d="M148.59,106.17c-.14,0-.28-.06-.37-.17-.13-.15-.16-.36-.08-.55.54-1.13,13.34-27.67,31.02-27.67,1.64,0,3.29.24,4.9.7,10.49,3.03,11.62,8.89,11.35,12.12-.44,5.36-5.16,10.47-8.72,10.89-.78.09-2.34.17-4.5.27-7.69.37-23.68,1.13-33.44,4.39-.05.02-.11.03-.16.03Z" />
      <path class="cls-6"
        d="M179.15,78.28c1.56,0,3.15.21,4.77.68,19.19,5.53,8.74,21.32,2.71,22.03-3.64.43-25.59.53-38.04,4.68,0,0,13-27.39,30.56-27.39h0ZM179.15,77.28h0c-17.99,0-30.93,26.82-31.47,27.96-.17.36-.11.79.15,1.09.19.22.47.34.75.34.11,0,.21-.02.32-.05,9.7-3.24,25.64-4,33.3-4.36,2.17-.1,3.74-.18,4.54-.27,3.76-.44,8.69-5.6,9.16-11.34.28-3.38-.87-9.52-11.71-12.64-1.66-.48-3.36-.72-5.04-.72h0Z" />
      <path class="cls-5"
        d="M149.4,104.08c-.52.99-.81,1.58-.81,1.58,12.45-4.15,34.4-4.25,38.04-4.68,1.46-.17,3.17-1.23,4.66-2.8-11.32,3.99-21.35-1.15-41.89,5.89Z" />
      <path class="cls-1"
        d="M183.92,78.96c-8.95-2.58-16.99,2.55-23.13,8.99,24.16-14.77,34.66,2.17,32.19,8.07,3.36-5.3,3.59-13.41-9.06-17.06Z" />
      <path class="cls-2"
        d="M150.51,200.8c-.15,0-.31,0-.47-.03-1.19-.14-2.18-.76-2.94-1.84-3.79-5.42-.73-21.71.54-27.57-.77.42-1.76.71-2.62.71s-1.49-.26-1.94-.75c-.05-.05-.08-.11-.1-.17-.2-.57-.04-1.28.46-1.99.86-1.22,2.81-2.52,5.07-2.52.14,0,.29,0,.43.02l.39.03c.6.05,1.08.08,1.51.08,1.34,0,2.01-.36,4.81-2.57,1.81-1.43,3.46-2.16,4.89-2.16,2.31,0,3.53,1.92,3.85,2.93.02.05.02.1.02.15,0,3.77-1.71,5.74-3.4,5.74-1,0-2.25-.75-2.82-2.77-.83.95-1.73,1.42-2.7,1.42-.39,0-.8-.08-1.2-.24.82,5.77,3.21,25.21-1.13,30.25-.73.85-1.62,1.28-2.65,1.28h0Z" />
      <path class="cls-6"
        d="M160.54,162.53c2.55,0,3.38,2.59,3.38,2.59,0,3.45-1.48,5.24-2.9,5.24-1.14,0-2.25-1.13-2.55-3.46-.93,1.43-1.92,2.11-2.97,2.11-.56,0-1.14-.2-1.73-.58l-.09.02c.51,3.39,4.56,31.85-3.16,31.85-.13,0-.27,0-.41-.03-8.11-.99-2.54-26.43-1.64-30.28.03-.07.05-.14.05-.21-.01.06-.03.13-.05.21-.31.68-2.01,1.57-3.44,1.57-.62,0-1.19-.17-1.57-.59-.47-1.33,2.06-3.85,5.06-3.85.13,0,.26,0,.39.01.8.06,1.41.12,1.93.12,1.53,0,2.33-.47,5.12-2.68,1.93-1.53,3.43-2.05,4.58-2.05h0ZM160.54,161.53v1-1c-1.55,0-3.3.76-5.2,2.27-2.85,2.25-3.36,2.46-4.5,2.46-.4,0-.87-.04-1.47-.08l-.39-.03c-.16-.01-.31-.02-.47-.02-2.45,0-4.52,1.37-5.48,2.74-.6.85-.79,1.72-.52,2.45.04.13.11.24.21.34.55.6,1.34.91,2.31.91.62,0,1.29-.14,1.92-.36-1.49,7.1-3.95,21.73-.25,27.01.84,1.2,1.95,1.89,3.29,2.05.18.02.36.03.53.03,1.18,0,2.2-.49,3.03-1.45,4.3-5,2.26-23.29,1.36-29.89.2.03.4.05.6.05.89,0,1.72-.34,2.49-1.01.73,1.7,1.99,2.35,3.03,2.35,1.88,0,3.91-1.95,3.91-6.24,0-.1-.02-.21-.05-.31-.04-.13-1.09-3.28-4.33-3.28h0Z" />
      <path class="cls-1"
        d="M146.4,196.04c.63,2.37,1.78,4,3.7,4.23,5.41.66,5.48-11.71,4.75-21.3-.35,7.1-2.88,14.05-8.45,17.07Z" />
      <path class="cls-1" d="M148.46,169.98c.03-.07.05-.14.05-.2-.01.05-.03.13-.05.2Z" />
      <path class="cls-1"
        d="M163.21,168.63c.43-.86.7-2.03.7-3.52,0,0-1.74-5.44-7.96-.53-3.74,2.95-3.89,2.8-7.05,2.56-3.15-.24-5.93,2.43-5.46,3.82,2.42-4.22,5.92-1.9,8.68-2.77,3.19-1.01,6.1-5.67,8.99-4.28,2.89,1.39,2.67,2.83,2.09,4.72Z" />
      <path class="cls-2"
        d="M98.27,204.63c-1.17,0-2.14-.44-2.9-1.31-1.71-1.96-2.02-5.84-1.87-9.35-.63,1.21-1.46,2.16-2.56,2.48-.49.12-.94.18-1.36.18-2.01,0-3.15-1.25-3.8-2.64-.39,2.48-1.52,5.3-4.6,5.77-.22.03-.44.05-.64.05-.94,0-1.73-.35-2.35-1.03-1.58-1.76-1.56-5.35-1.4-7.36l-3.73.77s-.07.01-.1.01c-.13,0-.26-.05-.35-.14-.12-.12-.17-.28-.14-.45.02-.13.6-3.15,2.79-3.98.5-.19,1.05-.28,1.68-.28.59,0,1.16.07,1.72.15.5.06.97.13,1.4.13.39,0,.7-.05.95-.16.4-.17.76-.64,1.22-1.24,1.01-1.31,2.54-3.28,6.32-4.51.82-.27,1.58-.4,2.32-.4,1.31,0,2.32.41,3.29.8.88.36,1.72.7,2.74.7.28,0,.57-.03.85-.08.57-.1,1.74-.81,2.97-1.56,1.79-1.09,3.81-2.32,5.46-2.63.49-.09.97-.14,1.42-.14,2.82,0,3.93,1.79,3.98,1.87.08.13.09.29.04.43-.05.14-.17.25-.31.3l-4.38,1.49c.03,4.2-.35,20.68-7.72,22.04-.33.06-.65.09-.96.09h0Z" />
      <path class="cls-6"
        d="M107.61,178.9c2.57,0,3.55,1.63,3.55,1.63l-4.72,1.61c.03,2.27.04,20.55-7.31,21.9-.31.06-.59.08-.86.08-5.3,0-4.45-10.27-3.86-14.6-.45,2.26-1.47,5.81-3.61,6.44-.44.11-.85.16-1.22.16-3.41,0-4.02-4.21-4.13-5.49.08,1.62.1,7.95-4.34,8.62-.2.03-.38.04-.56.04-3.87,0-3.37-6.8-3.19-8.51l-4.4.91s.52-2.86,2.48-3.6c.49-.18.99-.25,1.51-.25,1.07,0,2.17.28,3.12.28.41,0,.8-.05,1.15-.2,1.54-.65,2.05-3.96,7.5-5.73.82-.27,1.53-.37,2.16-.37,2.4,0,3.76,1.5,6.03,1.5.3,0,.61-.03.94-.08,1.54-.27,5.69-3.67,8.44-4.19.48-.09.92-.13,1.32-.13h0ZM107.61,177.9c-.48,0-.99.05-1.51.15-1.73.33-3.8,1.59-5.62,2.7-1.09.66-2.32,1.41-2.8,1.49-.26.05-.52.07-.77.07-.92,0-1.68-.31-2.55-.66-.97-.39-2.07-.84-3.48-.84-.79,0-1.6.14-2.47.42-3.92,1.27-5.51,3.32-6.56,4.68-.4.52-.75.97-1.02,1.08-.19.08-.44.12-.76.12-.4,0-.85-.06-1.34-.12-.57-.07-1.16-.15-1.78-.15-.7,0-1.3.1-1.86.31-2.45.93-3.08,4.22-3.11,4.36-.06.33.05.66.29.9.19.18.44.29.7.29.07,0,.14,0,.2-.02l3.09-.64c-.11,2.14.03,5.35,1.57,7.07.7.78,1.64,1.2,2.72,1.2.23,0,.47-.02.71-.06,2.84-.43,4.15-2.64,4.75-4.9.76,1.02,1.9,1.78,3.58,1.78.46,0,.95-.06,1.46-.19.76-.22,1.39-.69,1.93-1.3.02,3.12.49,6.26,2.02,8.02.86.98,1.96,1.48,3.28,1.48.33,0,.69-.03,1.05-.1,7.55-1.39,8.13-17.39,8.13-22.17l4.04-1.38c.29-.1.51-.32.62-.6.1-.28.07-.6-.08-.86-.05-.09-1.3-2.11-4.41-2.11h0Z" />
      <path class="cls-1"
        d="M82.17,188.55c2.92-2.92,4.89-4.56,7.47-4.89s4.89,1.53,7.86,1.34c1.2-.08,4.23-2.88,6.54-4.35,2.31-1.47,3.99-.56,6.84-.03l.27-.09s-1.31-2.18-4.87-1.5c-2.74.52-6.89,3.93-8.44,4.19-3.55.62-4.83-2.45-9.14-1.04-5.45,1.77-5.96,5.09-7.5,5.73-1.54.65-3.82-.57-5.77.17-1.04.39-1.67,1.39-2.04,2.23,2.99-2.76,7.04-.42,8.77-1.77Z" />
      <path class="cls-1"
        d="M94.99,201.78c.77,1.65,2.05,2.64,4.14,2.26,5.22-.96,6.72-10.46,7.15-16.69-1.04,6.03-3.78,15.68-11.29,14.43Z" />
      <path class="cls-1"
        d="M79.11,198.89c.52.34,1.17.49,2,.36,3.45-.52,4.2-4.45,4.33-6.94-.61,3.43-2.43,6.15-6.33,6.58Z" />
      <path class="cls-1"
        d="M88.86,196.04c.55.11,1.19.11,1.93-.08,1.81-.53,2.82-3.15,3.36-5.31-1.34,1.99-3.1,4.34-5.29,5.39Z" />
      <path class="cls-2"
        d="M39.19,199.03c-.41,0-.86-.09-1.31-.25-8.66-3.16-1.56-29.15.12-34.87l-1.78-3.37c-.12-.23-.05-.52.18-.66.06-.03.26-.15.61-.15.92,0,2.52.76,4.89,4.39.81,1.24,1.58,2.74,2.4,4.32,1.26,2.46,2.57,5,3.99,6.39.65.64,1.19,1.9.05,4.29h0c.04.7-.21,2.12-.62,2.89-.42.79-.95.97-1.32.99h0c-.22,0-.48-.06-.73-.31-.99-1.03-.9-5.21-.86-6.34l-3.01-5.94c1.16,7.5,3.11,23.4-.36,27.53-.61.73-1.36,1.1-2.24,1.1Z" />
      <path class="cls-6"
        d="M37,160.23c.62,0,2.08.5,4.47,4.16,2.1,3.21,4.06,8.45,6.46,10.8,1.35,1.32-.13,3.8-.11,3.84.07.11-.13,3.4-1.46,3.46,0,0-.01,0-.02,0-1.31,0-1.05-6.26-1.05-6.26l-4.53-8.96c.67,3.83,5.26,31.26-1.58,31.26-.35,0-.73-.07-1.14-.22-8.5-3.11-.54-31,.48-34.46l-1.87-3.55s.11-.07.35-.07h0ZM37,159.23c-.45,0-.74.14-.88.22-.45.28-.6.85-.36,1.32l1.68,3.19c-2.33,7.97-8.56,32.07.25,35.29.51.19,1.01.28,1.49.28,1.01,0,1.92-.44,2.62-1.28,3.18-3.78,2.09-16.41.93-24.87l1.55,3.07c-.08,2.11-.02,5.51,1,6.58.29.3.66.47,1.06.47.01,0,.05,0,.06,0,.5-.02,1.22-.26,1.74-1.25.36-.68.7-2.07.68-3,1.21-2.59.57-4.03-.2-4.77-1.37-1.34-2.66-3.84-3.9-6.26-.78-1.52-1.59-3.1-2.42-4.37-2-3.06-3.79-4.61-5.31-4.61h0Z" />
      <path class="cls-1"
        d="M47.93,175.19c-2.4-2.34-4.36-7.59-6.46-10.8-2.58-3.94-4.07-4.21-4.6-4.15,3.33,4.2,6.24,9.23,9.01,14.2.41.74,1.47,1.01,1.88,1.75.33.59.32,1.51.34,2.23.34-.83.78-2.31-.17-3.23Z" />
      <path class="cls-1"
        d="M37.76,166.58c-2.15,8-7.04,29.06.28,31.73,1.33.49,2.33.15,3.06-.78-7.27-2.23-4.38-21.82-3.34-30.95Z" />
      <path class="cls-2"
        d="M21.36,190.09c-.21,0-.42,0-.63-.03-2.02-.16-3.62-1.11-4.76-2.81-6.07-9.09,2.52-38.4,5.82-48.67-.33-.04-.74-.23-1.09-.83-.21.5-.5.95-.84,1.29-.43.44-.91.68-1.39.68-.26,0-.51-.07-.75-.21-.47-.28-.8-.89-1-1.86-.5-2.43-.11-6.96.71-8.08.2-.28.49-.43.8-.43,1.14,0,2.45,1.94,5.29,6.33l1.09,1.67c3.15,4.82,7.16,12.72,6.79,13.91-.04.14-.2.32-.34.38-.1.04-.2.06-.3.06h0c-.87,0-2.22-1.87-3.39-3.84,1.89,10.34,5.06,32.67-.94,40-1.33,1.62-3.03,2.44-5.07,2.44Z" />
      <path class="cls-6"
        d="M18.24,129.64c1.06,0,3.12,3.43,5.96,7.77,3.77,5.76,7.26,13.31,6.69,13.55-.03.01-.07.02-.11.02-1.19,0-4.47-6.31-4.47-6.31,1.64,8.18,8.28,44.91-4.94,44.91-.19,0-.39,0-.59-.02-14.2-1.12-.82-43.73,1.81-51.78-.19.19-.41.3-.64.3-.54,0-1.1-.66-1.31-2.43.04,1.73-1.08,3.56-2.15,3.56-.17,0-.33-.04-.49-.14-1.52-.91-1.02-8.01-.14-9.22.11-.15.24-.23.4-.23h0ZM18.24,128.64c-.48,0-.91.23-1.21.64-.95,1.32-1.28,6.11-.79,8.48.23,1.11.63,1.83,1.23,2.19.31.19.65.28,1,.28.62,0,1.22-.29,1.75-.83.21-.22.4-.47.57-.74.12.1.24.18.36.25-4.05,12.67-11.58,39.66-5.6,48.62,1.23,1.84,2.96,2.86,5.13,3.04.23.02.45.03.67.03,2.2,0,4.04-.88,5.46-2.62,5.69-6.95,3.35-26.83,1.47-37.98,1.47,2,2.15,2,2.48,2,.17,0,.34-.03.5-.1.3-.12.53-.38.62-.7.49-1.6-4.23-10.31-6.86-14.33-.38-.58-.74-1.14-1.09-1.67-3.02-4.66-4.3-6.55-5.71-6.55h0Z" />
      <path class="cls-1"
        d="M18.53,129.72c-.28-.13-.52-.1-.69.15-.87,1.21-1.38,8.31.14,9.22.34.2.71.17,1.06-.03-1.63-3.39-1.81-6.09-.51-9.33Z" />
      <path class="cls-1"
        d="M18.06,153.45c-3.82,15.24-6.98,35.35,2.72,36.11,2.32.18,4.06-.72,5.35-2.35-12.38-1.35-9.33-22.08-8.07-33.76Z" />
      <path class="cls-3"
        d="M130.84,111.04c-3.47.61-7.58-11.18,4.37-13.88,13.46-3.04,11.9,8.95,11.9,8.95l-16.27,4.93Z" />
      <path class="cls-1"
        d="M183.98,85.05c-7.83-2.06-13.62,3.25-19.92,6.84-.45.26-.14,1.07.36.86,6.19-2.55,12.78.11,19.22-.83,3.94-.58,4.17-5.86.34-6.86Z" />
      <path class="cls-1"
        d="M101.86,193.24c-.08-.89-.41-1.76-.88-2.52-.52-.83-1.62-1.15-2.49-.73-.95.46-1.25,1.37-1.06,2.37-.06-.33-.06.36-.02.28-.03.19-.08.37-.11.56-.09.56-.08,1.06.05,1.54,0,.03,0,.06,0,.09-.02,1.66,1.98,2.2,3.12,1.32,1.02-.51,1.48-1.82,1.39-2.91Z" />
      <path class="cls-7"
        d="M37.83,83.13c-3.25,0-16.87-7.76-22.07-15.95-5.28-8.32-11.86-31.36-5.59-45.73C14.89,10.6,46.98,4.75,74.76,4.75c15.47,0,29.35,1.71,40.14,4.93,6.25,1.87,9.83,8.21,10.08,17.86.33,12.63-5.5,28.9-14.39,32.07-6.73,2.4-22.53,2.85-37.82,3.28-13.13.37-28,.79-29.72,2.66-.03.04-.07.07-.11.1-2.78,2.26-2.85,7.58-2.91,11.47-.05,3.3-.08,5.48-1.64,5.93-.17.05-.36.07-.57.07h0Z" />
      <path class="cls-6"
        d="M74.77,5.76c14.28,0,28.53,1.5,39.85,4.89,16.51,4.93,8.77,43.35-4.36,48.03-13.13,4.68-63.92,1.84-67.94,6.21-5.19,4.21-2.03,16.59-4.2,17.21-.08.02-.18.03-.29.03-2.92,0-16.24-7.63-21.23-15.49-5.18-8.16-11.66-30.73-5.52-44.8C15.27,12.25,45.1,5.76,74.77,5.76h0ZM74.77,3.75C46.66,3.75,14.15,9.81,9.25,21.04c-6.5,14.9.13,37.95,5.66,46.67,5.19,8.18,18.99,16.42,22.92,16.42.31,0,.58-.04.85-.11,2.28-.66,2.31-3.27,2.36-6.88.05-3.69.12-8.74,2.54-10.7.06-.05.13-.11.18-.17,2.09-1.6,17.66-2.05,29.04-2.37,15.36-.44,31.24-.89,38.12-3.34,9.29-3.31,15.39-20.06,15.06-33.03-.26-9.97-4.19-16.82-10.8-18.8-10.89-3.25-24.87-4.97-40.43-4.97h0Z" />
      <path class="cls-6" d="M42.52,65.2s-.03.04-.04.05c0,0,.01-.01.02-.02.04-.04.1-.09.02-.03Z" />
      <path class="cls-6"
        d="M112.13,59.47c-6.09,2.5-13.04,2.37-19.56,2.84-14.93.71-29.92.02-44.84,1.34-1.65.23-3.5.36-4.96,1.32,0,0-.46.49-.46.49.04-.08.1-.14.17-.21-.97.87-1.64,2.16-1.98,3.34-.92,3.26-.62,6.69-.58,9.86.08,3.56-.27,5.64-3.7,4.67-4.59-1.41-8.77-3.92-12.77-6.67-3.33-2.4,11.51,7.56,12.69,7.87,1.9.49,4.77,1.16,5.77-.58,1.83-3.47,1-7.68,1.73-11.26.29-1.47.49-3.01,1.56-3.97.22-.18.42-.39.6-.61l-.42.45s0,.04-.02.03c-.04,0,.06-.02.11-.04,0,0,.17-.05.17-.05,2.11-.6,4.35-.76,6.57-1,8.05-.74,16.15-1.02,24.25-1.4,8.14-.39,16.31-.74,24.43-1.71,4.11-.59,8.36-1.02,12.18-2.94,4.73-2.66,6.1-7.15,6.1-7.15,0,0-3.56,3.57-7.03,5.38Z" />
      <path class="cls-3"
        d="M37.83,84.63c-4.02,0-18.08-8.36-23.34-16.65-5.59-8.8-12.27-32.08-5.7-47.14C13.77,9.42,46.5,3.25,74.76,3.25c15.61,0,29.64,1.73,40.57,4.99,6.82,2.04,10.89,9.06,11.15,19.27.34,13.14-5.9,30.14-15.39,33.52-6.96,2.48-22.88,2.93-38.27,3.37-10.68.3-26.8.76-28.76,2.27-.02.02-.09.09-.17.16-2.24,1.81-2.3,6.73-2.35,10.32-.05,3.69-.09,6.59-2.73,7.36-.31.09-.63.13-.99.13ZM74.76,4.25c-27.95,0-60.24,5.95-65.06,16.99-6.43,14.74.14,37.56,5.63,46.2,5.12,8.06,18.65,16.18,22.5,16.18.26,0,.49-.03.71-.09,1.84-.53,1.95-2.56,2-6.4.05-3.79.12-8.98,2.72-11.09.05-.04.1-.08.14-.13,2.1-1.62,14.55-2.1,29.37-2.52,15.34-.44,31.18-.88,37.98-3.31,9.09-3.24,15.05-19.75,14.72-32.55-.25-9.74-4.06-16.42-10.44-18.33-10.84-3.24-24.77-4.95-40.28-4.95Z" />
      <path class="cls-2"
        d="M132.29,110.9c-1.82,0-3.55-2.02-3.86-4.5-.18-1.42-.18-6.21,7.37-8.14,1.28-.33,2.46-.49,3.52-.49,2.17,0,3.88.68,5.1,2.01,2.29,2.51,1.97,6.41,1.96,6.57-.02.2-.16.37-.35.43l-13.27,4.08c-.2.04-.33.05-.47.05Z" />
      <path class="cls-6"
        d="M139.32,98.26c7.28,0,6.56,8.03,6.56,8.03l-13.27,4.08c-.11.02-.22.03-.32.03-3.39,0-6.92-8.96,3.63-11.66,1.29-.33,2.42-.48,3.4-.48h0ZM139.32,97.26h0c-1.1,0-2.33.17-3.65.51-7.94,2.04-7.93,7.17-7.74,8.69.34,2.72,2.3,4.94,4.36,4.94.17,0,.33-.01.5-.04.04,0,.08-.02.12-.03l13.27-4.08c.39-.12.67-.46.7-.87.02-.17.35-4.29-2.09-6.95-1.32-1.44-3.16-2.17-5.47-2.17h0Z" />
      <path class="cls-5"
        d="M129.74,108.66c.73,1.17,1.83,1.9,2.87,1.72l13.27-4.08s.06-.73-.04-1.75c-4.9,2.97-10.68,3.92-16.09,4.11Z" />
      <path class="cls-1"
        d="M135.92,98.74c-3.7.95-5.65,2.66-6.5,4.49,4.93-2.88,11.76-2.3,16.33.68-.48-2.87-2.4-7.08-9.83-5.18Z" />
      <path class="cls-3"
        d="M25.53,37.78c-.28,0-.51-.08-.71-.23-.19-.15-.31-.31-.37-.48l-.78-1.78-.79,1.82c-.04.14-.16.29-.35.44-.2.15-.44.23-.71.23h-1.91c-.3,0-.56-.1-.77-.29-.2-.18-.32-.41-.36-.66l-1.18-8.68s0-.09,0-.11c0-.22.08-.41.24-.57s.35-.23.57-.23h2.34c.31,0,.58.1.79.3.2.19.32.44.35.72l.21,2.01.05-.13c.05-.16.17-.33.35-.48.19-.16.44-.24.72-.24h.93c.28,0,.53.08.72.24.18.15.3.32.36.51l.04.1.21-2.01c.03-.28.15-.53.35-.72.2-.2.48-.3.79-.3h2.34c.22,0,.41.08.56.23s.24.35.24.57c0,.02,0,.09,0,.11l-1.19,8.68c-.03.25-.15.48-.35.66-.21.19-.47.29-.77.29h-1.91Z" />
      <path class="cls-6"
        d="M28.95,27.75c.08,0,.15.03.21.09.06.06.09.13.09.21v.04l-1.19,8.68c-.02.14-.08.26-.2.36s-.26.16-.43.16h-1.91c-.16,0-.3-.04-.4-.12-.1-.08-.17-.16-.2-.25l-1.25-2.87-1.25,2.87c-.03.08-.09.16-.2.25-.1.08-.24.12-.4.12h-1.91c-.17,0-.32-.05-.43-.16s-.18-.22-.2-.36l-1.19-8.68v-.04c0-.08.03-.15.09-.21.06-.06.13-.09.21-.09h2.34c.18,0,.33.05.44.16.11.11.18.24.2.41l.44,4.17.79-2.17c.03-.09.09-.18.2-.27.1-.09.24-.13.4-.13h.93c.16,0,.3.04.4.13.1.09.17.18.2.27l.79,2.17.44-4.17c.02-.16.08-.3.2-.41.11-.11.26-.16.44-.16h2.34ZM28.95,26.74h-2.34c-.44,0-.84.15-1.14.44-.28.27-.45.62-.5,1.02l-.09.88c-.22-.11-.47-.16-.74-.16h-.93c-.27,0-.52.06-.74.16l-.09-.87c-.04-.4-.22-.76-.5-1.03-.3-.29-.69-.44-1.14-.44h-2.34c-.35,0-.67.13-.92.38-.25.25-.38.58-.38.92,0,.05,0,.13,0,.18l1.19,8.68c.05.36.23.7.51.96.3.28.68.42,1.11.42h1.91c.39,0,.74-.12,1.02-.33.25-.19.42-.42.51-.66l.32-.74.32.74c.1.25.27.47.51.66.28.22.64.34,1.02.34h1.91c.43,0,.81-.15,1.11-.42.29-.26.46-.6.51-.97l1.18-8.68s0-.09,0-.14c0-.39-.13-.71-.38-.96-.25-.25-.58-.38-.92-.38h0Z" />
      <path class="cls-3"
        d="M36.94,37.78c-.23,0-.44-.09-.61-.25-.17-.17-.26-.38-.26-.62v-2.4h-1.72v2.4c0,.23-.09.45-.26.61-.17.17-.38.26-.61.26h-2.81c-.23,0-.43-.08-.6-.23-.18-.17-.27-.39-.27-.63v-8.8c0-.23.09-.45.26-.61.17-.17.38-.26.61-.26h2.81c.23,0,.45.09.61.26.17.16.26.38.26.61v2.29h1.72v-2.29c0-.23.09-.45.26-.61.17-.17.38-.26.61-.26h2.81c.23,0,.45.09.61.26.17.16.26.38.26.61v8.8c0,.23-.09.45-.26.61-.17.17-.38.26-.61.26h-2.81Z" />
      <path class="cls-6"
        d="M39.75,27.75c.1,0,.19.04.26.11.07.07.11.16.11.26v8.8c0,.1-.04.19-.11.26-.07.07-.16.11-.26.11h-2.81c-.1,0-.19-.04-.26-.11-.07-.07-.11-.16-.11-.26v-2.9h-2.73v2.9c0,.1-.04.19-.11.26-.07.07-.16.11-.26.11h-2.81c-.1,0-.19-.03-.26-.1-.07-.07-.11-.16-.11-.27v-8.8c0-.1.04-.19.11-.26.07-.07.16-.11.26-.11h2.81c.1,0,.19.04.26.11.07.07.11.16.11.26v2.79h2.73v-2.79c0-.1.04-.19.11-.26.07-.07.16-.11.26-.11h2.81ZM39.75,26.74h-2.81c-.36,0-.71.14-.97.4-.26.26-.4.61-.4.97v1.79h-.72v-1.79c0-.37-.14-.71-.4-.97-.26-.26-.6-.4-.96-.4h-2.81c-.36,0-.71.14-.96.4-.26.26-.4.6-.4.97v8.8c0,.38.15.74.42,1,.26.24.6.37.94.37h2.81c.36,0,.71-.14.96-.4.26-.26.4-.61.4-.97v-1.9h.72v1.9c0,.36.14.7.4.96.27.26.61.41.97.41h2.81c.36,0,.71-.14.97-.4.26-.26.4-.6.4-.97v-8.8c0-.37-.14-.71-.4-.97-.26-.26-.6-.4-.96-.4h0Z" />
      <path class="cls-3"
        d="M42.59,37.78c-.23,0-.45-.09-.61-.26-.17-.17-.26-.38-.26-.61v-8.8c0-.23.09-.45.26-.61s.38-.26.61-.26h8.47c.23,0,.45.09.61.26.17.16.26.38.26.61v1.92c0,.24-.09.45-.26.62-.17.17-.38.25-.61.25h-.27s.09.07.14.11c.17.16.26.38.26.61v1.77c0,.23-.09.45-.26.61-.04.04-.09.08-.14.11h.41c.23,0,.44.09.61.25.17.17.26.38.26.61v1.92c0,.23-.09.44-.25.61-.17.17-.38.26-.62.26h-8.61Z" />
      <path class="cls-6"
        d="M51.07,27.75c.1,0,.19.04.26.11.07.07.11.16.11.26v1.92c0,.1-.04.19-.11.26-.07.07-.16.11-.26.11h-5.3v.86h4.55c.1,0,.19.04.26.11s.11.16.11.26v1.77c0,.1-.04.19-.11.26-.07.07-.16.11-.26.11h-4.55v.86h5.44c.1,0,.19.04.26.11.07.07.11.16.11.26v1.92c0,.1-.04.19-.11.26-.07.07-.16.11-.26.11h-8.61c-.1,0-.19-.04-.26-.11-.07-.07-.11-.16-.11-.26v-8.8c0-.1.04-.19.11-.26.07-.07.16-.11.26-.11h8.47ZM51.07,26.74h-8.47c-.36,0-.71.14-.97.4-.26.26-.4.6-.4.97v8.8c0,.36.14.71.4.97.26.26.61.4.97.4h8.61c.36,0,.71-.14.97-.4.26-.27.4-.61.4-.97v-1.92c0-.36-.14-.71-.4-.97-.15-.15-.33-.26-.52-.33.02-.1.03-.2.03-.3v-1.77c0-.12-.02-.24-.05-.35.14-.07.27-.16.39-.27.26-.26.4-.6.4-.97v-1.92c0-.37-.14-.71-.4-.97-.26-.26-.6-.4-.96-.4h0Z" />
      <path class="cls-3"
        d="M60.41,37.78c-.47,0-.83-.22-1.02-.63l-1.07-2.41h-.32v2.17c0,.23-.09.44-.25.61-.17.17-.38.26-.61.26h-2.94c-.23,0-.45-.09-.61-.26-.17-.17-.26-.38-.26-.61v-8.8c0-.23.09-.45.26-.61s.38-.26.61-.26h5.3c1.36,0,2.46.34,3.27,1,.85.69,1.27,1.63,1.27,2.8,0,1.24-.43,2.19-1.28,2.85l1.46,2.73c.06.12.09.25.09.39s-.04.34-.23.54c-.15.15-.35.24-.57.24h-3.09ZM59.2,31.22c.09-.03.13-.07.13-.19,0-.1-.02-.17-.07-.24h-1.26s0,.43,0,.43h1.2Z" />
      <path class="cls-6"
        d="M59.49,27.75c1.24,0,2.23.29,2.96.89.73.59,1.09,1.39,1.09,2.41,0,1.24-.48,2.13-1.43,2.68l1.68,3.13s.03.09.03.15-.03.13-.09.18c-.06.06-.13.09-.21.09h-3.09c-.27,0-.46-.11-.57-.34l-1.2-2.7h-1.14v2.67c0,.1-.04.19-.11.26-.07.07-.16.11-.26.11h-2.94c-.1,0-.19-.04-.26-.11-.07-.07-.11-.16-.11-.26v-8.8c0-.1.04-.19.11-.26.07-.07.16-.11.26-.11h5.3ZM57.5,31.72h1.7c.2,0,.35-.07.46-.2.11-.13.16-.3.16-.5s-.05-.37-.16-.52c-.1-.15-.26-.23-.47-.23h-1.7v1.44h0ZM59.49,26.74h-5.3c-.36,0-.71.14-.97.4-.26.26-.4.61-.4.97v8.8c0,.36.14.7.4.96.27.26.61.41.97.41h2.94c.36,0,.71-.14.96-.4.26-.27.4-.61.4-.97v-.52l.43.96c.29.6.83.94,1.49.94h3.09c.35,0,.68-.14.92-.39.24-.24.38-.56.38-.89,0-.22-.04-.42-.13-.6l-1.29-2.41c.75-.73,1.15-1.74,1.15-2.96,0-1.31-.5-2.41-1.46-3.19-.91-.74-2.11-1.11-3.59-1.11h0Z" />
      <path class="cls-3"
        d="M65.76,37.78c-.23,0-.45-.09-.61-.26-.17-.17-.26-.38-.26-.61v-8.8c0-.23.09-.45.26-.61s.38-.26.61-.26h8.47c.23,0,.45.09.61.26.17.16.26.38.26.61v1.92c0,.24-.09.45-.26.62-.17.17-.38.25-.61.25h-.27s.09.07.14.11c.17.16.26.38.26.61v1.77c0,.23-.09.45-.26.61-.04.04-.09.08-.14.11h.41c.23,0,.44.09.61.25.17.17.26.38.26.61v1.92c0,.23-.09.44-.25.61-.17.17-.38.26-.62.26h-8.61Z" />
      <path class="cls-6"
        d="M74.23,27.75c.1,0,.19.04.26.11.07.07.11.16.11.26v1.92c0,.1-.04.19-.11.26-.07.07-.16.11-.26.11h-5.3v.86h4.55c.1,0,.19.04.26.11.07.07.11.16.11.26v1.77c0,.1-.04.19-.11.26-.07.07-.16.11-.26.11h-4.55v.86h5.44c.1,0,.19.04.26.11.07.07.11.16.11.26v1.92c0,.1-.04.19-.11.26-.07.07-.16.11-.26.11h-8.61c-.1,0-.19-.04-.26-.11-.07-.07-.11-.16-.11-.26v-8.8c0-.1.04-.19.11-.26.07-.07.16-.11.26-.11h8.47ZM74.23,26.74h-8.47c-.36,0-.71.14-.97.4-.26.26-.4.6-.4.97v8.8c0,.36.14.71.4.97.26.26.61.4.97.4h8.61c.36,0,.71-.14.97-.4.26-.27.4-.61.4-.97v-1.92c0-.36-.14-.71-.4-.97-.15-.15-.33-.26-.52-.33.02-.1.03-.2.03-.3v-1.77c0-.12-.02-.24-.05-.35.14-.07.27-.16.39-.27.26-.26.4-.6.4-.97v-1.92c0-.37-.14-.71-.4-.97-.26-.26-.6-.4-.96-.4h0Z" />
      <path class="cls-3"
        d="M89.98,37.78c-.5,0-.89-.29-1.08-.79l-.23-.63h-2.62l-.22.62c-.2.51-.59.8-1.08.8h-2.58c-.22,0-.41-.08-.57-.24-.19-.19-.23-.39-.23-.52,0-.11.01-.2.04-.28l2.97-8.71c.13-.49.53-.79,1.09-.79h3.79c.56,0,.96.3,1.1.82l2.96,8.68c.03.09.04.18.04.28,0,.13-.04.33-.24.53-.15.15-.35.23-.56.23h-2.58ZM87.63,32.71l-.27-.78-.27.78h.53Z" />
      <path class="cls-6"
        d="M89.26,27.75c.33,0,.53.15.61.45l2.97,8.71s.01.07.01.12-.03.11-.09.17c-.06.06-.13.09-.21.09h-2.58c-.29,0-.5-.15-.61-.46l-.34-.95h-3.32l-.34.95c-.12.31-.32.46-.61.46h-2.58c-.08,0-.15-.03-.21-.09-.06-.06-.09-.12-.09-.17s0-.09.01-.12l2.97-8.71c.08-.3.29-.45.61-.45h3.79ZM86.4,33.21h1.93l-.97-2.83-.97,2.83h0ZM89.26,26.74h-3.79c-.76,0-1.36.44-1.57,1.15l-2.96,8.68c-.05.13-.07.28-.07.45,0,.23.07.57.38.88.24.24.57.38.92.38h2.58c.7,0,1.28-.41,1.55-1.11l.11-.31h1.91l.1.29c.27.71.85,1.13,1.56,1.13h2.58c.35,0,.68-.14.92-.39.31-.31.38-.65.38-.88,0-.16-.02-.3-.06-.43l-2.97-8.7c-.21-.71-.81-1.15-1.57-1.15h0Z" />
      <path class="cls-3"
        d="M100.95,37.78c-.47,0-.83-.22-1.02-.63l-1.07-2.41h-.32v2.17c0,.23-.09.44-.25.61-.17.17-.38.26-.61.26h-2.94c-.23,0-.45-.09-.61-.26-.17-.17-.26-.38-.26-.61v-8.8c0-.23.09-.45.26-.61s.38-.26.61-.26h5.3c1.36,0,2.46.34,3.27,1,.85.69,1.27,1.63,1.27,2.8,0,1.24-.43,2.19-1.28,2.85l1.46,2.73c.06.12.09.25.09.39s-.04.34-.23.54c-.15.15-.35.24-.57.24h-3.09ZM99.73,31.22c.09-.03.13-.07.13-.19,0-.1-.02-.17-.07-.24h-1.26s0,.43,0,.43h1.2Z" />
      <path class="cls-6"
        d="M100.02,27.75c1.24,0,2.23.29,2.96.89.73.59,1.09,1.39,1.09,2.41,0,1.24-.48,2.13-1.43,2.68l1.68,3.13s.03.09.03.15-.03.13-.09.18c-.06.06-.13.09-.21.09h-3.09c-.27,0-.46-.11-.57-.34l-1.2-2.7h-1.14v2.67c0,.1-.04.19-.11.26-.07.07-.16.11-.26.11h-2.94c-.1,0-.19-.04-.26-.11-.07-.07-.11-.16-.11-.26v-8.8c0-.1.04-.19.11-.26.07-.07.16-.11.26-.11h5.3ZM98.03,31.72h1.7c.2,0,.35-.07.46-.2.11-.13.16-.3.16-.5s-.05-.37-.16-.52c-.1-.15-.26-.23-.47-.23h-1.7v1.44h0ZM100.02,26.74h-5.3c-.36,0-.71.14-.97.4-.26.26-.4.61-.4.97v8.8c0,.36.14.7.4.96.27.26.61.41.97.41h2.94c.36,0,.71-.14.96-.4.26-.27.4-.61.4-.97v-.52l.43.96c.29.6.83.94,1.49.94h3.09c.35,0,.68-.14.92-.39.24-.24.38-.56.38-.89,0-.22-.04-.42-.13-.6l-1.29-2.41c.75-.73,1.15-1.74,1.15-2.96,0-1.31-.5-2.41-1.46-3.19-.91-.74-2.11-1.11-3.59-1.11h0Z" />
      <path class="cls-3"
        d="M106.29,37.78c-.23,0-.45-.09-.61-.26-.17-.17-.26-.38-.26-.61v-8.8c0-.23.09-.45.26-.61s.38-.26.61-.26h8.47c.23,0,.45.09.61.26.17.16.26.38.26.61v1.92c0,.24-.09.45-.26.62-.17.17-.38.25-.61.25h-.27s.09.07.14.11c.17.16.26.38.26.61v1.77c0,.23-.09.45-.26.61-.04.04-.09.08-.14.11h.41c.23,0,.44.09.61.25.17.17.26.38.26.61v1.92c0,.23-.09.44-.25.61-.17.17-.38.26-.62.26h-8.61Z" />
      <path class="cls-6"
        d="M114.76,27.75c.1,0,.19.04.26.11.07.07.11.16.11.26v1.92c0,.1-.04.19-.11.26-.07.07-.16.11-.26.11h-5.3v.86h4.55c.1,0,.19.04.26.11s.11.16.11.26v1.77c0,.1-.04.19-.11.26-.07.07-.16.11-.26.11h-4.55v.86h5.44c.1,0,.19.04.26.11.07.07.11.16.11.26v1.92c0,.1-.04.19-.11.26-.07.07-.16.11-.26.11h-8.61c-.1,0-.19-.04-.26-.11-.07-.07-.11-.16-.11-.26v-8.8c0-.1.04-.19.11-.26.07-.07.16-.11.26-.11h8.47ZM114.76,26.74h-8.47c-.36,0-.71.14-.97.4-.26.26-.4.6-.4.97v8.8c0,.36.14.71.4.97.26.26.61.4.97.4h8.61c.36,0,.71-.14.97-.4.26-.27.4-.61.4-.97v-1.92c0-.36-.14-.71-.4-.97-.15-.15-.33-.26-.52-.33.02-.1.03-.2.03-.3v-1.77c0-.12-.02-.24-.05-.35.14-.07.27-.16.39-.27.26-.26.4-.6.4-.97v-1.92c0-.37-.14-.71-.4-.97-.26-.26-.6-.4-.96-.4h0Z" />
      <path class="cls-3"
        d="M22.17,55.53c-.23,0-.45-.09-.61-.26s-.26-.38-.26-.61v-2.9l-3.35-5.56c-.08-.16-.11-.29-.11-.44s.04-.34.24-.54c.15-.15.35-.23.56-.23h2.88c.43,0,.79.2.99.57l1.11,1.95,1.14-1.93c.23-.38.58-.59,1-.59h2.85c.22,0,.41.08.57.23.19.19.24.4.24.54s-.03.28-.1.4l-3.38,5.59v2.9c0,.23-.09.44-.25.61-.17.17-.38.26-.61.26h-2.9Z" />
      <path class="cls-6"
        d="M28.61,45.5c.08,0,.15.03.21.09.06.06.09.12.09.18s-.01.12-.04.18l-3.43,5.68v3.04c0,.1-.04.19-.11.26-.07.07-.16.11-.26.11h-2.9c-.1,0-.19-.04-.26-.11-.07-.07-.11-.16-.11-.26v-3.04l-3.42-5.68c-.03-.05-.04-.11-.04-.18s.03-.12.09-.18c.06-.06.13-.09.21-.09h2.87c.25,0,.44.1.56.31l1.54,2.7,1.58-2.67c.14-.23.33-.34.57-.34h2.85ZM28.61,44.49h-2.85c-.59,0-1.12.3-1.43.83l-.71,1.19-.69-1.2c-.29-.52-.81-.82-1.43-.82h-2.87c-.35,0-.67.14-.92.38-.25.25-.38.57-.38.89,0,.22.05.44.15.63.01.02.02.04.03.06l3.28,5.44v2.76c0,.36.14.71.4.97.26.26.61.4.97.4h2.9c.36,0,.71-.14.96-.4.26-.27.4-.61.4-.97v-2.76l3.29-5.44s.02-.04.04-.06c.1-.2.15-.41.15-.63,0-.33-.13-.64-.38-.89-.25-.25-.58-.38-.92-.38h0Z" />
      <path class="cls-3"
        d="M35.21,55.55c-1.05,0-1.98-.14-2.77-.41-.83-.29-1.51-.78-2.02-1.47-.52-.7-.78-1.58-.78-2.61v-1.57c0-1.5.55-2.65,1.62-3.41,1.02-.72,2.35-1.09,3.95-1.09s2.93.37,3.95,1.09c1.08.76,1.62,1.9,1.62,3.39v1.62c0,1.02-.26,1.89-.78,2.58-.51.69-1.2,1.19-2.02,1.48-.78.27-1.72.41-2.77.41ZM35.21,48.64c-.31,0-.55.06-.71.18-.09.07-.18.17-.18.41v2.06c0,.25.09.35.18.41.16.12.4.18.71.18s.55-.06.71-.18c.08-.06.18-.17.18-.42v-2.03c0-.25-.1-.36-.18-.42-.16-.12-.4-.19-.71-.19Z" />
      <path class="cls-6"
        d="M35.21,45.48c1.5,0,2.72.33,3.66,1,.94.66,1.41,1.66,1.41,2.98v1.62c0,.91-.23,1.67-.68,2.29-.45.61-1.05,1.04-1.79,1.3-.74.26-1.6.39-2.6.39s-1.87-.13-2.6-.39c-.74-.26-1.33-.69-1.78-1.3-.45-.61-.68-1.38-.68-2.31v-1.57c0-1.34.47-2.34,1.41-3s2.16-1,3.66-1h0ZM35.21,52.39c.43,0,.77-.1,1.02-.29.25-.19.37-.47.37-.82v-2.03c0-.35-.12-.63-.37-.82-.25-.19-.59-.29-1.02-.29s-.77.09-1.02.28c-.25.19-.37.46-.37.81v2.06c0,.35.12.62.37.81.25.19.59.28,1.02.28h0ZM35.21,44.48c-1.7,0-3.13.4-4.24,1.18-1.2.85-1.83,2.17-1.83,3.82v1.57c0,1.15.3,2.12.88,2.91.57.77,1.33,1.33,2.26,1.65.84.29,1.82.44,2.93.44s2.1-.15,2.93-.44c.92-.32,1.68-.88,2.26-1.65.58-.79.88-1.76.88-2.88v-1.62c0-1.63-.63-2.95-1.83-3.79-1.11-.78-2.53-1.18-4.24-1.18h0ZM34.82,49.21s.16-.07.39-.07c.24,0,.35.05.39.07,0,0,0,.02,0,.04v2.03s0,.06,0,.06c0,0,0,0,0,0-.02,0-.13.05-.38.05-.23,0-.34-.04-.39-.07,0,0,0-.02,0-.03v-2.06s0-.02,0-.03h0Z" />
      <path class="cls-3"
        d="M46.79,55.55c-1.63,0-2.95-.36-3.93-1.08-1.03-.75-1.55-1.92-1.55-3.47v-5.14c0-.23.09-.45.26-.61.16-.16.38-.25.61-.25h2.85c.23,0,.44.09.61.25.17.17.26.38.26.61v5.33c0,.27.1.38.18.45.16.12.4.19.71.19s.55-.06.71-.19c.09-.07.18-.18.18-.45v-5.33c0-.23.09-.45.26-.61.16-.16.37-.25.61-.25h2.85c.23,0,.44.09.61.25.17.17.26.38.26.61v5.14c0,1.55-.52,2.72-1.55,3.47-.98.72-2.3,1.08-3.93,1.08Z" />
      <path class="cls-6"
        d="M51.39,45.5c.1,0,.19.04.26.11.07.07.11.16.11.26v5.14c0,1.39-.45,2.41-1.34,3.07-.89.65-2.11.98-3.63.98s-2.74-.33-3.63-.98c-.9-.65-1.34-1.68-1.34-3.07v-5.14c0-.1.04-.18.11-.26.07-.07.16-.11.26-.11h2.85c.1,0,.19.04.26.11.07.07.11.16.11.25v5.33c0,.37.12.65.37.84.25.2.59.29,1.02.29s.76-.1,1.01-.29c.25-.2.37-.48.37-.84v-5.33c0-.1.04-.18.11-.25.07-.07.16-.11.26-.11h2.85ZM51.39,44.49h-2.85c-.36,0-.7.14-.96.4-.26.26-.41.6-.41.97v5.33c0,.06,0,.08,0,.08-.05.03-.2.06-.38.06-.17,0-.32-.03-.39-.07,0,0,0-.03,0-.06v-5.33c0-.37-.14-.71-.41-.97-.26-.26-.6-.4-.96-.4h-2.85c-.37,0-.71.14-.97.4-.26.25-.4.6-.4.96v5.14c0,1.72.59,3.03,1.75,3.88,1.07.78,2.49,1.18,4.22,1.18s3.16-.4,4.22-1.18c1.16-.85,1.75-2.15,1.75-3.88v-5.14c0-.37-.14-.71-.41-.97-.26-.25-.6-.4-.96-.4h0Z" />
      <path class="cls-3"
        d="M57.05,55.53c-.23,0-.44-.09-.61-.25-.17-.17-.26-.38-.26-.62v-2.3c0-.21.07-.41.22-.57-.02-.02-.04-.03-.06-.05-.16-.14-.25-.33-.25-.53,0-.11.01-.2.04-.28.12-.35.34-.68.65-1,.18-.18.37-.35.56-.49-.08.02-.17.03-.27.03h-2.81c-.26,0-.48-.11-.64-.32-.13-.16-.2-.37-.2-.59,0-.9.43-1.72,1.27-2.44.41-.35.97-.63,1.65-.84.66-.2,1.43-.31,2.27-.31s1.59.1,2.23.29c.68.2,1.18.46,1.53.8.65.61.97,1.26.97,1.93,0,.44-.12.87-.35,1.26-.21.36-.46.67-.74.9l-.77.65c-.33.28-.45.43-.5.49-.11.16-.18.27-.21.3-.08.09-.17.17-.26.22.13.16.19.34.19.54v2.3c0,.23-.09.44-.25.61-.17.17-.38.26-.62.26h-2.77ZM58.34,48.65c-.17,0-.23.03-.23.03-.03.11-.09.23-.16.33.25-.18.37-.3.44-.37-.01,0-.03,0-.05,0Z" />
      <path class="cls-6"
        d="M58.6,45.48c.79,0,1.49.09,2.08.27.59.18,1.04.41,1.33.68.54.52.82,1.04.82,1.57,0,.36-.09.69-.28,1.01-.19.32-.4.57-.63.76-.23.19-.49.41-.78.65-.29.24-.48.44-.59.59-.1.15-.17.25-.2.28-.09.1-.2.15-.33.15h-3.19c-.06,0-.12-.02-.18-.07-.05-.05-.08-.1-.08-.15s0-.09.01-.12c.09-.27.27-.54.53-.81.26-.26.53-.48.79-.65.68-.43,1.02-.77,1.02-1,0-.33-.2-.49-.6-.49-.23,0-.4.04-.52.13-.12.08-.19.18-.21.28-.02.11-.08.2-.17.28-.09.08-.22.13-.38.13h-2.81c-.1,0-.18-.04-.24-.12-.06-.08-.1-.18-.1-.28h0c0-.75.36-1.43,1.09-2.06.36-.31.85-.55,1.47-.74.62-.19,1.32-.28,2.12-.28h0ZM59.81,52c.1,0,.19.04.26.11.07.07.11.16.11.26v2.3c0,.1-.04.19-.11.26-.07.07-.16.11-.26.11h-2.77c-.1,0-.19-.04-.26-.11-.07-.07-.11-.16-.11-.26v-2.3c0-.1.04-.19.11-.26.07-.07.16-.11.26-.11h2.77ZM58.6,44.48c-.89,0-1.7.11-2.41.33-.75.23-1.36.54-1.82.94-.96.82-1.45,1.77-1.45,2.81,0,.35.11.66.31.92.25.32.62.5,1.03.5h1.83c-.19.26-.34.53-.43.81-.04.13-.06.27-.06.44,0,.23.07.45.19.64-.06.16-.1.33-.1.51v2.3c0,.36.14.7.4.96.27.26.61.41.97.41h2.77c.36,0,.71-.14.96-.4.26-.27.4-.61.4-.97v-2.3c0-.14-.02-.28-.06-.42.01-.01.02-.03.04-.04.03-.04.11-.15.23-.32,0,0,.08-.12.41-.39.28-.24.54-.45.77-.64.32-.27.61-.61.85-1.03.28-.47.42-.98.42-1.52,0-.81-.38-1.58-1.13-2.29-.41-.39-.98-.69-1.73-.92-.69-.21-1.48-.31-2.37-.31h0Z" />
      <path class="cls-3"
        d="M174.69,53.65s.6,23.47-9.69,25.25c7.37,1.15,10.31,7.41,10.83,18.14-.52-9.8,1.38-17.16,9.75-19.75-11.31-.8-10.88-23.64-10.88-23.64Z" />
      <path class="cls-1"
        d="M174.69,53.65s0,.38,0,1.06c-.01-.67,0-1.06,0-1.06h0ZM174.7,54.71c.08,4.51,1.04,21.88,10.88,22.58-8.29,2.56-10.23,9.8-9.77,19.45-.56-10.55-3.51-16.7-10.81-17.85,8.97-1.55,9.67-19.59,9.7-24.19h0ZM175.81,96.74c0,.1.01.19.01.29,0-.1-.01-.2-.01-.29h0ZM174.69,52.77h0c-.47,0-.86.38-.87.86,0,.02,0,.41,0,1.08-.03,3.67-.58,21.87-8.98,23.32-.42.07-.73.44-.72.87,0,.43.32.79.74.85,6.4,1,9.51,6.25,10.08,17.03v.29c.04.46.42.83.88.83.01,0,.03,0,.04,0,.48-.02.85-.43.83-.91v-.29s-.01,0-.01,0c-.52-10.88,2.21-16.44,9.15-18.58.4-.12.66-.52.61-.93-.05-.42-.39-.74-.8-.77-9.21-.65-10-18.17-10.07-21.71,0-.67,0-1.06,0-1.08-.01-.47-.4-.85-.87-.85h0Z" />
      <path class="cls-3"
        d="M106.23,173.01s.38,14.81-6.12,15.94c4.65.73,6.51,4.68,6.83,11.45-.33-6.19.87-10.83,6.16-12.47-7.14-.5-6.87-14.92-6.87-14.92Z" />
      <path class="cls-1"
        d="M106.23,173.01s0,.24,0,.67c0-.43,0-.67,0-.67h0ZM106.23,173.68c.05,2.85.66,13.81,6.87,14.25-5.23,1.62-6.46,6.19-6.17,12.28-.35-6.66-2.21-10.54-6.82-11.27,5.66-.98,6.1-12.37,6.12-15.27h0ZM106.93,200.21c0,.06,0,.12,0,.18,0-.06,0-.12,0-.18h0ZM106.23,172.46h0c-.3,0-.54.24-.55.54,0,.01,0,.26,0,.68-.02,2.31-.37,13.81-5.67,14.72-.27.05-.46.28-.46.55,0,.27.2.5.47.54,4.04.63,6,3.95,6.36,10.75v.19c.02.29.27.52.56.52,0,0,.02,0,.03,0,.3-.02.54-.27.52-.58v-.18s0,0,0,0c-.33-6.87,1.4-10.37,5.78-11.73.25-.08.41-.33.38-.59-.03-.26-.24-.47-.51-.49-5.81-.41-6.31-11.47-6.36-13.71,0-.43,0-.67,0-.68,0-.3-.25-.54-.55-.54h0Z" />
      <path class="cls-3"
        d="M14.14,150.52s.53,20.85-8.61,22.43c6.55,1.02,9.16,6.58,9.62,16.12-.46-8.71,1.22-15.25,8.66-17.54-10.05-.71-9.67-21-9.67-21Z" />
      <path class="cls-1"
        d="M14.14,150.52s0,.34,0,.94c-.01-.6,0-.94,0-.94h0ZM14.15,151.46c.07,4.01.92,19.44,9.67,20.06-7.37,2.28-9.09,8.71-8.68,17.28-.49-9.38-3.12-14.84-9.61-15.86,7.97-1.38,8.59-17.4,8.62-21.49h0ZM15.13,188.8c0,.09,0,.17.01.26,0-.09,0-.17-.01-.26h0ZM14.14,149.74h0c-.42,0-.76.34-.77.76,0,.01,0,.36,0,.96-.02,3.26-.52,19.43-7.97,20.72-.37.06-.65.39-.64.77,0,.38.28.7.65.76,5.69.89,8.45,5.56,8.95,15.13v.26c.03.41.38.73.79.73.01,0,.03,0,.04,0,.43-.02.76-.38.73-.81v-.26s-.01,0-.01,0c-.46-9.67,1.97-14.6,8.13-16.51.36-.11.58-.46.54-.83-.04-.37-.34-.66-.72-.68-8.18-.58-8.89-16.15-8.95-19.29,0-.6,0-.94,0-.96-.01-.42-.35-.75-.77-.75h0Z" />
    </g>
  </g>
</svg>