<?xml version="1.0" encoding="UTF-8"?>
<svg id="Capa_2" xmlns="http://www.w3.org/2000/svg" viewBox="0 0 178.91 195.44">
  <defs>
    <style>
      .cls-1 {
        fill: #008cff;
      }

      .cls-2 {
        fill: #00ffdb;
      }

      .cls-3 {
        fill: #7a00ba;
      }

      .cls-4 {
        fill: #fff;
      }

      .cls-5 {
        fill: #fb780d;
      }

      .cls-6 {
        fill: #fe0;
      }

      .cls-7 {
        fill: #ff387f;
      }
    </style>
  </defs>
  <g id="layer_1">
    <path class="cls-4"
      d="M165.36,103.64c-.71-.13-1.43-.22-2.14-.26.49-.6.95-1.25,1.35-1.97,1.56-2.81,1.82-6.01.83-8.78,3.82-5.99,5.57-12.02,5.32-18.37-.28-7.81-4.02-15.02-9.88-19.27-.24-1-.56-1.95-.93-2.85-.07-.21-.17-.41-.27-.6.27.04.54.07.82.07.32,0,.64-.03,1-.09,2.68-.5,4.54-2.87,4.48-5.51,2.55-1.12,3.88-4.02,3-6.72-.55-1.68-1.85-2.95-3.46-3.5.09-.05.17-.09.26-.14,7.58-4.3,11.59-9.34,12.25-15.4.66-6-2.5-12.24-8.06-15.91-3.8-2.52-8.42-3.86-14.54-4.23-1.2-.07-2.43-.11-3.66-.11-13.1,0-25.8,4.06-37.04,7.65l-.15.05c-5.02,1.61-10.13,3.5-14.11,6.92-.93-.7-2.07-1.11-3.3-1.11-.42,0-.84.07-1.25.16-.78-2.12-2.81-3.59-5.14-3.59-.34,0-.68.03-.99.09-1.44.27-2.69,1.07-3.52,2.28-.13.19-.56,1.22-.88.86-.21-.23-.16-.69-.25-.97-.64-1.94-2.28-3.33-4.23-3.69-1-1.03-2.39-1.67-3.9-1.67-.34,0-.69.03-1,.09-2.25.42-3.93,2.17-4.37,4.28-.6.48-1.11,1.08-1.46,1.78-.21.42-.35.87-.45,1.32-.3-.06-.59-.14-.89-.19-.89-.14-1.78-.21-2.68-.21-9.36,0-16.64,7.33-18.99,14.56-.98,3.01-1.23,6.01-1.46,8.66l-.1,1.22c-.58.64-1.08,1.36-1.52,2.14-.65,1.17-1.1,2.45-1.37,3.76-.11.55-.03,3.05-.63,3.22-.34.09-1.64-2.03-2.13-2.38-.93-.67-2.06-1.04-3.21-1.04-.58,0-1.15.09-1.7.27l-.47.15c-.49-2.59-2.75-4.48-5.38-4.48-.34,0-.69.03-1,.09-2.97.55-4.94,3.41-4.4,6.38l.26,1.43-1.58.51c-1.39.45-2.53,1.42-3.19,2.73-.66,1.31-.78,2.79-.33,4.18.74,2.26,2.83,3.78,5.21,3.78.58,0,1.16-.09,1.7-.27l.19-.06v.06c.1.5.28.97.5,1.41-3.72,1.52-7.47,3.15-11.11,4.9-5.33,2.56-10.66,5.7-13.57,11.32-2.09,4.05-2.38,8.99-.79,13.53,1.61,4.65,4.97,8.41,9.22,10.33,1.37.61,2.75,1.03,3.97,1.4l.27.08c1.15.35,2.87.86,3.33,1.26.1.41.09,1.47.08,2.2-.02.55-.02,1.1-.02,1.77.09,3.94,1.53,7.27,3.96,9.36,1.23,7.73,5.23,13.92,11.7,18.28-.58.38-1.09.88-1.5,1.47-.66.96-.98,2.07-.95,3.21-2.44,1.17-3.7,4-2.84,6.64.72,2.21,2.74,3.7,5.05,3.77.97,1.58,2.71,2.62,4.66,2.62.33,0,.67-.03.99-.09.83-.15,1.58-.5,2.24-.98-3.75,5.37-5.25,12.35-4.03,18.75,1.92,10.05,9.78,16.29,20.55,16.29h.38c7.1-.1,13.57-1.09,19.29-2.96,1.41,2.37,3.18,4.47,5.22,6.18,5.63,4.73,12.48,5.72,17.23,5.72,3.61,0,7.49-.6,10.92-1.69,11.22-3.58,19.29-12.4,22.73-24.85.28-1.01.53-2.04.75-3.09,15.23-6.5,27.89-15.56,36.71-26.3,5.24-6.39,7.77-12.07,7.97-17.85.29-7.58-4.7-16.4-13.55-18.03Z" />
    <path class="cls-3"
      d="M99.82,191.43c-4.09,0-9.95-.83-14.66-4.78-2.51-2.1-4.51-4.89-5.82-8.11-6.06,2.51-13.23,3.83-21.33,3.95h-.37c-8.81,0-15.01-4.87-16.57-13.03-1.04-5.43.27-11.38,3.52-15.9,2.55-3.53,7.58-5.71,12.02-7.63,1.46-.63,2.96-1.28,4.16-1.92.37-.18.58-.43.55-.64-.03-.23-.36-.48-.81-.6-.49-.12-1.38.07-2.24.26-1.18.25-2.23.45-3.3.35-5.46-.51-9.14-3.2-10.68-7.79-10.76-3.49-16.99-10.1-18.51-19.66-.08-.5-.15-1.01-.2-1.52,0-.06-.01-.13-.02-.19-2.25-1.07-3.62-3.67-3.7-7.12,0-.54,0-1.05.02-1.56.03-1.7.05-3.17-.58-4.3-.96-1.7-3.15-2.36-5.68-3.12l-.26-.08c-1.16-.35-2.36-.72-3.49-1.23-3.24-1.46-5.82-4.37-7.07-7.98-1.23-3.52-1.03-7.3.56-10.38,2.36-4.57,7.04-7.29,11.74-9.55,9.67-4.63,19.99-8.41,29.16-11.74.45-1.59.86-3.23,1.22-4.89-.28-.39-.49-.83-.62-1.29-.86-2.88-.6-6.11.67-8.41.5-.89,1.12-1.64,1.87-2.23.04-.42.08-.83.11-1.25l.13-1.48c.22-2.55.44-5.19,1.28-7.76,2.17-6.69,9.22-12.87,17.24-11.63,4.5.71,8.1,3.38,11.58,5.96l.82.6c3.28,2.41,6.74,4.7,10.31,6.81.17,0,.33.03.5.08,1.72.59,3.75-.94,4.81-2.67.64-1.01,1.11-2.14,1.6-3.35l.08-.2c.52-1.27,1.11-2.71,1.94-4.05,3.36-5.48,9.47-7.81,15.96-9.89l.15-.05c11.99-3.83,25.58-8.18,39.22-7.35,5.39.32,9.38,1.46,12.56,3.57,4.32,2.85,6.79,7.62,6.29,12.13-.51,4.7-3.86,8.74-10.24,12.36-5.46,3.08-11.26,5.45-17.23,7.04l-.72.19c-1.68.45-3.38.9-4.76,1.71-1.12.67-2.47,2.01-2.54,3.56-.01.26.02.53.04.8l.03.38c.03.33.06.69.06,1.07,2.07-.73,5.23-1.52,8.37-1.06,2.22.33,4.15,1.23,5.72,2.7.32.31.62.62.91.94.25.18.44.43.57.71.71.91,1.29,1.88,1.75,2.91.09.14.15.27.18.4l.05.11c.49,1.15.85,2.45,1.06,3.79,5.61,3.36,9.22,9.81,9.48,16.99.24,6.16-1.72,12.04-5.99,17.97,1.53,1.92,1.67,4.7.34,7.09-1.15,2.07-3.12,3.53-4.9,4.68l-.63.41c-1.35.86-2.74,1.75-3.69,2.88-.61.7-.91,1.61-.66,1.94.28.38,1.28.48,2.23.22.89-.24,1.75-.54,2.58-.83,2.63-.92,5.2-1.83,8.62-1.18h0c6.72,1.25,10.51,8.07,10.28,13.94-.17,4.87-2.42,9.78-7.07,15.46-8.8,10.7-21.63,19.67-37.15,25.97-.28,1.67-.64,3.31-1.08,4.89-3.06,11.1-10.2,18.94-20.08,22.1-3.04.97-6.49,1.5-9.7,1.5ZM80.62,175.58l.4,1.14c1.15,3.31,3.08,6.16,5.57,8.25,4.2,3.53,9.52,4.26,13.24,4.26,2.99,0,6.2-.49,9.03-1.39,9.15-2.92,15.76-10.23,18.62-20.58.47-1.7.84-3.47,1.12-5.27l.1-.62.59-.23c15.44-6.17,28.18-15.01,36.85-25.55,4.33-5.28,6.41-9.77,6.57-14.14.19-4.94-2.93-10.66-8.48-11.69h0c-2.84-.54-5.03.23-7.35,1.05l-.14.05c-.88.3-1.78.61-2.73.87-1.46.39-3.54.35-4.58-1.04-1.05-1.42-.38-3.38.75-4.7,1.16-1.38,2.76-2.4,4.17-3.3l.63-.41c1.55-1,3.26-2.25,4.17-3.9.96-1.73.82-3.72-.33-4.87l-1.35-.45.92-1.23c4.35-5.77,6.35-11.44,6.13-17.35-.23-6.52-3.7-12.57-8.83-15.42l-.49-.27-.07-.56c-.16-1.34-.5-2.63-1.01-3.84l-.13-.27c-.41-.95-.95-1.85-1.62-2.68l-.29-.38c-.27-.31-.56-.61-.86-.9-1.23-1.15-2.75-1.86-4.52-2.12-3.89-.57-7.94,1.14-9.09,1.68l-2.87,1.34,1.41-2.83c.15-.3.24-.61.27-.9.04-.4,0-.83-.03-1.29l-.03-.38c-.03-.36-.06-.72-.04-1.08.11-2.43,1.94-4.36,3.61-5.37,1.64-.97,3.49-1.46,5.28-1.94l.76-.2c5.79-1.54,11.41-3.84,16.71-6.83,5.72-3.24,8.7-6.73,9.14-10.67.41-3.7-1.67-7.65-5.31-10.05-2.85-1.89-6.49-2.91-11.47-3.21-13.22-.78-26.61,3.48-38.42,7.25l-.15.05c-6.08,1.95-11.78,4.11-14.75,8.95-.74,1.19-1.29,2.54-1.77,3.73l-.08.2c-.53,1.3-1.04,2.52-1.78,3.68-1.47,2.39-4.34,4.53-7.21,3.65l-.34.11-.43-.25c-3.75-2.19-7.39-4.59-10.82-7.12l-.82-.6c-3.27-2.43-6.65-4.94-10.61-5.56-6.86-1.05-12.91,4.32-14.8,10.13-.76,2.33-.97,4.84-1.18,7.27l-.13,1.47c-.04.59-.1,1.19-.16,1.78l-.05.52-.43.29c-.66.45-1.19,1.03-1.61,1.79-.99,1.8-1.18,4.37-.48,6.72.1.34.26.62.49.86l.4.42-.12.57c-.44,2.07-.95,4.12-1.52,6.1l-.16.54-.53.19c-9.25,3.36-19.73,7.17-29.48,11.84-4.35,2.09-8.67,4.58-10.73,8.57-1.31,2.54-1.47,5.69-.44,8.64,1.05,3.04,3.2,5.48,5.89,6.69,1.01.45,2.13.79,3.23,1.13l.25.08c2.74.82,5.58,1.67,6.97,4.15.93,1.66.9,3.58.86,5.43-.01.51-.01,1-.01,1.49.06,2.69,1.07,4.66,2.7,5.26h.94s0,1.1,0,1.1c0,.24.03.47.05.72.05.51.12.98.19,1.43,1.41,8.82,7.31,14.9,17.54,18.07l.57.18.16.57c1.16,4.05,4.17,6.33,8.94,6.78.82.08,1.82-.14,2.61-.3,1.18-.25,2.27-.48,3.25-.25,1.39.36,2.33,1.31,2.48,2.49.13,1.17-.54,2.26-1.74,2.86-1.26.67-2.8,1.34-4.3,1.98-4.18,1.81-8.91,3.86-11.11,6.89-2.89,4.03-4.07,9.34-3.14,14.2,1.36,7.14,6.61,11.24,14.4,11.24h.35c8.26-.12,15.51-1.54,21.52-4.22l1.1-.49ZM158.73,93.45s0,0,0,0c0,0,0,0,0,0Z" />
    <path class="cls-3"
      d="M31.39,59.47c-.7,0-1.32-.5-1.45-1.21l-2.28-12.36c-.15-.8.38-1.57,1.18-1.72.8-.15,1.57.38,1.72,1.18l2.28,12.36c.15.8-.38,1.57-1.18,1.71-.09.02-.18.02-.27.02Z" />
    <path class="cls-3"
      d="M24.1,55.26c-.62,0-1.2-.4-1.4-1.02-.25-.77.17-1.61.94-1.86l12.57-4.1c.78-.25,1.6.17,1.86.94.25.77-.17,1.6-.94,1.86l-12.57,4.1c-.15.05-.31.07-.46.07Z" />
    <path class="cls-3"
      d="M92.66,27.48c-.7,0-1.32-.5-1.45-1.21l-1.92-10.45c-.15-.8.38-1.57,1.18-1.72.8-.15,1.57.38,1.71,1.18l1.92,10.45c.15.8-.38,1.57-1.18,1.72-.09.02-.18.02-.27.02Z" />
    <path class="cls-3"
      d="M86.5,23.92c-.62,0-1.2-.4-1.4-1.02-.25-.77.17-1.6.94-1.86l10.63-3.46c.78-.25,1.6.17,1.86.94.25.77-.17,1.6-.94,1.86l-10.63,3.46c-.15.05-.31.07-.46.07Z" />
    <path class="cls-3"
      d="M77.83,18.73c-.7,0-1.32-.5-1.45-1.21l-.88-4.79c-.15-.8.38-1.57,1.18-1.72.8-.15,1.57.38,1.71,1.18l.88,4.79c.15.8-.38,1.57-1.18,1.71-.09.02-.18.02-.27.02Z" />
    <path class="cls-3"
      d="M75,17.1c-.62,0-1.2-.4-1.4-1.02-.25-.77.17-1.6.94-1.86l4.88-1.59c.78-.25,1.6.17,1.86.94.25.77-.17,1.6-.94,1.86l-4.88,1.59c-.15.05-.31.07-.46.07Z" />
    <path class="cls-3"
      d="M160.45,47.6c-.7,0-1.32-.5-1.45-1.21l-1.41-7.64c-.15-.8.38-1.57,1.18-1.72.8-.15,1.57.38,1.72,1.18l1.41,7.64c.15.8-.38,1.57-1.18,1.72-.09.02-.18.02-.27.02Z" />
    <path class="cls-3"
      d="M155.94,45c-.62,0-1.2-.4-1.4-1.02-.25-.77.17-1.6.94-1.86l7.77-2.53c.78-.25,1.6.17,1.86.94.25.77-.17,1.6-.94,1.86l-7.77,2.53c-.15.05-.31.07-.46.07Z" />
    <path class="cls-3"
      d="M37.94,148.53c-.7,0-1.32-.5-1.45-1.21l-1.41-7.64c-.15-.8.38-1.57,1.18-1.71.8-.15,1.57.38,1.72,1.18l1.41,7.64c.15.8-.38,1.57-1.18,1.71-.09.02-.18.02-.27.02Z" />
    <path class="cls-3"
      d="M33.44,145.93c-.62,0-1.2-.39-1.4-1.02-.25-.77.17-1.6.94-1.86l7.77-2.53c.78-.25,1.6.17,1.86.94.25.77-.17,1.6-.94,1.86l-7.77,2.53c-.15.05-.31.07-.46.07Z" />
    <path class="cls-1"
      d="M164.14,110.11c5.35,1,8.35,6.54,8.17,11.31-.15,4.3-2.21,8.72-6.49,13.92-8.47,10.34-20.88,19.01-35.92,25.12,1.06-9.06-.44-18.47-4.2-26.79,1.58-1.21,3.24-2.33,4.87-3.4,1.96-1.31,3.99-2.67,5.88-4.17l.93-.75c3.23-2.55,6.01-4.74,7.01-9.1.04-.16.03-.34-.04-.49.4-1.47-.66-3.42-2.49-4.42-.8-.43-1.65-.69-2.5-.88,3.36-2.36,6.58-4.86,9.6-7.44,3.18-2.71,6.55-5.85,9.42-9.41l.09.09c1.21,1.16,1.09,3.14.34,4.49-.81,1.47-2.21,2.58-4.06,3.78l-.62.4c-1.52.97-3.08,1.97-4.27,3.37-1.22,1.43-1.93,3.58-.75,5.15,1.15,1.53,3.39,1.59,4.96,1.16,1.03-.27,1.97-.6,2.9-.93,2.39-.82,4.45-1.55,7.17-1.03Z" />
    <path class="cls-1"
      d="M166.28,9.82c3.48,2.3,5.54,6.2,5.15,9.7-.43,3.81-3.34,7.22-8.95,10.4-5.23,2.96-10.82,5.24-16.63,6.79l-.71.19c-1.83.49-3.73.99-5.42,1.99-2.28,1.37-3.7,3.48-3.8,5.65-.01.46.03.91.06,1.37.04.49.09.94.04,1.37-.04.54-.32,1.12-.72,1.31h-.09c-.77-.15-1.55-.26-2.31-.4-6.8-1.16-13.59-2.92-20.16-5.21-.03-.01-.04-.01-.07-.01-.07-.1-.16-.19-.25-.29-.01-.01-.01-.03-.03-.03-.18-.24-.38-.46-.6-.68-.03-.01-.06-.04-.09-.07-2.59-2.71-6.13-4.9-10.16-6.21-2.55-.82-5.23-1.21-7.89-1.15-.04-.07-.12-.15-.21-.19-.04-.03-.09-.04-.13-.07,2.09-.46,3.96-2.12,5.07-3.9.78-1.25,1.34-2.61,1.89-3.93.53-1.31,1.03-2.53,1.74-3.68,2.92-4.74,8.56-6.86,14.56-8.79,11.81-3.77,25.21-8.06,38.42-7.28,4.9.29,8.5,1.3,11.3,3.14Z" />
    <path class="cls-7"
      d="M154.69,57.92s-.07.1-.1.16c-.13.28-.07.6.12.82-.06,0-.13.01-.21.04-2.62,1.16-5.33,2.37-8.19,2.8-3.52.53-8.34-.18-10.37-3.92-.9-1.65-1.34-4.18-.34-6.11.31-.6.93-1.05,1.53-1.37.01,0,.01-.01.01-.01.15-.01.28-.09.37-.19.06-.01.12-.04.18-.07.63-.29,1.3-.56,1.99-.8-.6,1.08-1.13,2.4-1.35,3.68-.21,1.03-.24,2-.22,2.68.01.69.09,1.12.09,1.12,0,0,0-1.75.66-3.65.52-1.65,1.58-3.28,2.43-4.3,1.05-.26,2.12-.44,3.18-.47-.71.53-1.33,1.16-1.86,1.86-.4.52-.75,1.06-1.05,1.65-1.06,2.11-1.37,4.54-.87,6.83.09.35.38.57.72.57.04,0,.07,0,.1-.01.01.01.04.01.06.01.13,0,.26-.03.38-.1,1.27-.75,2.86-.94,4.24-1.02l.96-.04c1.3-.06,2.62-.1,3.93-.46,1.27-.34,2.33-.99,3.09-1.87.24.69.41,1.41.5,2.16Z" />
    <path class="cls-6"
      d="M153.57,54.09s.01.01,0,.01c-.56,1.02-1.58,1.75-2.86,2.11-1.15.29-2.34.35-3.61.4l-.97.04c-1.31.07-2.78.24-4.12.82-.21-1.69.1-3.46.87-4.98.13-.25.27-.49.43-.72,1.61,1.31,3.55,2.19,5.58,2.56.31.04.66.09,1.06.09.5,0,1.05-.07,1.55-.35.54-.29.97-.77,1.28-1.4.31.46.56.93.8,1.41Z" />
    <path class="cls-1"
      d="M150.96,50.44c.26.25.53.52.77.81-.15.6-.41,1.25-.93,1.53-.38.21-.88.24-1.66.1-1.8-.31-3.53-1.12-4.95-2.28.78-.87,1.74-1.59,2.78-2.11,1.49.26,2.86.88,3.99,1.94Z" />
    <path class="cls-6"
      d="M141.16,112.65c1.49.81,2.02,2.24,1.72,2.87-.22.47-1.06.49-2.19.04-4.74-1.87-9.78-.62-14.52,3.62-.74.65-1.46,1.34-2.19,2.02-.03.03-.07.06-.1.1-1.35-.56-3.21-1.44-5.11-2.61-1.94-1.18-3.89-2.68-5.55-4.26-1.68-1.55-3.02-3.18-3.95-4.4-.46-.62-.81-1.13-1.05-1.5-.12-.18-.21-.31-.28-.41-.06-.1-.09-.15-.09-.15,0,0,.03.04.09.15.06.1.13.25.24.44.21.38.53.91.96,1.56.82,1.3,2.08,3.03,3.68,4.71,1.59,1.69,3.5,3.34,5.43,4.64,1.71,1.16,3.39,2.06,4.74,2.65-1.02.94-2.06,1.87-3.14,2.7-.07.03-.13.06-.21.1-.07.06-.13.13-.18.21-1.63,1.21-3.39,2.16-5.35,2.61-3.05.69-6.13.03-9.4-.66-1.46-.31-2.99-.63-4.49-.82-3.46-.43-7.22,0-10.84,1.1.77-2.43,1.58-6.23,1.86-9.59.34-3.74.13-6.88.13-6.88,0,0-.06,3.14-.69,6.82-.57,3.67-1.81,7.81-2.62,10.07-4.02,1.41-7.81,3.67-10.77,6.55-1.8,1.74-5.57,5.42-5.33,8.84-1.12-1.03-1.81-2.52-1.77-4.02.04-2.02,1.07-2.92,2.5-4.15.24-.21.47-.41.71-.62.03-.03.06-.06.09-.09,1.34-1.24,2.36-2.97,3.22-5.45.74-2.09,1.15-4.29,1.53-6.41.44-2.34.88-4.76,1.77-6.97,2.09-5.24,6.77-9.7,13.21-12.56,1.37-.6,2.84-1.24,4.42-1.8,1.08,2.22,3.39,6.24,3.39,6.24,0,0-1.44-4.3-2.37-6.61,3.02-1.03,6.27-1.8,9.47-1.8.47,0,.94.01,1.4.04,5.17.4,8.75,3.06,13,6.23.19.15.4.29.6.43,3.5,2.5,7.47,4.34,11.59,5.38.65.18,1.33.32,1.99.44l.77.13c1.33.24,2.59.46,3.67,1.05Z" />
    <path class="cls-2"
      d="M91.01,155.82c.04-.06.18-.21.37-.41.25-.29.6-.72,1-1.28.81-1.1,1.8-2.74,2.52-4.68.72-1.93,1.21-4.15,1.3-6.23.07-1.46-.01-2.83-.21-3.98-.04-3.77-.91-7.7-1.63-10.99l-.1-.47c1.97-.27,3.93-.29,5.8-.07,1.44.18,2.93.5,4.36.81,3.28.69,6.66,1.41,10.03.66,2.05-.46,3.84-1.38,5.51-2.58,1.53,2.14,2.87,4.43,4.01,6.82-.03.19.01.38.15.54.06.07.12.13.19.18,3.84,8.39,5.29,17.95,4.04,27.07-.19.19-.25.49-.15.75,0,.01.01.03.03.04-.27,1.74-.63,3.45-1.09,5.14-2.83,10.24-9.35,17.45-18.38,20.34-6.21,1.97-15.68,2.43-21.93-2.81-2.68-2.25-4.64-5.33-5.68-8.72-.84-2.68-1.09-5.54-.69-8.34.77-5.42,3.4-9.9,8.54-14.54l.44-.41c1.58-1.43,3.23-2.9,4.45-4.73.56-.82.99-1.72,1.3-2.67-.13,1.35-.41,2.72-.8,3.99-.56,1.94-1.41,3.61-2.12,4.77-.37.57-.68,1.03-.91,1.34-.16.24-.28.38-.32.44ZM125.1,149.46c.15-2.02.01-3.99-.15-5.14l-.1-.74-.13-.75c-.19-1.13-.69-3.05-1.46-4.92-.74-1.87-1.74-3.67-2.49-4.73.49,1.21,1.21,3.08,1.75,4.96.56,1.87.91,3.77,1.1,4.89l.13.71.1.72c.16,1.13.4,3.03.46,4.99.07,1.96-.04,3.96-.12,5.26.37-1.24.77-3.25.9-5.26ZM124.4,169.76c.74-1.06,1.18-2.3,1.3-3.11-.4.72-1.08,1.77-1.91,2.62-.81.88-1.77,1.55-2.31,1.91l-.37.25-.38.21c-.57.34-1.59.9-2.74,1.25-1.13.37-2.37.5-3.2.54.78.25,2.08.4,3.36.21,1.22-.15,2.36-.62,3.02-.97-.37.71-.8,1.5-1.34,2.3-.75,1.12-1.69,2.27-2.74,3.28-2.06,2.06-4.55,3.48-6.05,4.14-1.03.47-2.11.85-3.21,1.15-1.1.26-2.24.43-3.37.5-1.63.12-4.49.04-7.29-.8-1.4-.41-2.77-.97-3.96-1.61-1.19-.65-2.21-1.35-2.99-1.93.68.69,1.61,1.52,2.75,2.28,1.15.75,2.5,1.46,3.92,1.97,2.83,1.08,5.86,1.31,7.63,1.18,1.21-.07,2.4-.25,3.58-.53,1.18-.31,2.31-.72,3.42-1.21,1.62-.74,4.18-2.37,6.17-4.64,1-1.13,1.87-2.39,2.53-3.59.5-.93.85-1.83,1.13-2.61l.35-.21.4-.27c.63-.41,1.61-1.28,2.31-2.34Z" />
    <path class="cls-7"
      d="M74.8,49.5c.09-.1.26-.34.52-.71.34-.5.88-1.18,1.58-2,1.43-1.61,3.56-3.67,6.3-5.33,2.7-1.71,5.89-3.08,8.97-3.78,3.08-.74,5.96-.88,8.03-.78.06,0,.12-.01.16-.03.25.07.49.15.74.22,1.84.6,3.55,1.38,5.11,2.33-6.45-1.44-13.42-.49-19.22,2.65-6.04,3.27-10.78,8.85-13,15.35-.13.38.07.8.46.93.07.03.16.04.24.04.31,0,.59-.19.69-.5.09-.25.18-.52.28-.77,2.68,2.89,5.33,5.02,8.04,6.49,2.59,1.43,5.8,2.14,9.19,2.14s6.89-.69,10.18-2.09c5.77-2.44,9.87-6.64,11.21-11.53.24-.84.37-1.65.4-2.46.62,1.93.94,3.86.94,5.73,0,2.18-.43,4.26-1.3,6.16-.65,1.43-1.55,2.75-2.65,3.95-4.18,4.48-10.44,7.32-16.73,7.61-3.56.16-7.42-.69-11.22-2.42-2.75-1.25-5.46-2.95-8.03-5.04-4.59-3.77-5.8-9.13-3.43-15.09,1.88-4.73,5.12-8.34,10.19-11.37,3.52-2.11,7.61-3.2,11.71-3.2.46,0,.9.01,1.35.04-1.13.16-2.33.4-3.55.74-3.15.82-6.38,2.37-9.06,4.21-2.71,1.83-4.77,4.02-6.13,5.7-.65.85-1.16,1.56-1.49,2.09-.24.37-.4.63-.47.72ZM114.24,56.98c.46-1.31.68-2.53.81-3.49-.28.94-.65,2.12-1.21,3.34-.56,1.24-1.31,2.52-2.18,3.68-1.71,2.37-3.93,4.17-5.29,5.07-.96.63-1.97,1.19-3.02,1.65-1.06.44-2.15.8-3.27,1.06-1.59.37-4.43.74-7.32.35-1.44-.18-2.89-.52-4.17-.94-1.28-.44-2.39-.99-3.25-1.43.78.56,1.83,1.24,3.08,1.81,1.25.56,2.71,1.03,4.18,1.33,2.96.6,5.99.35,7.72-.04,1.19-.28,2.36-.65,3.48-1.12,1.1-.49,2.18-1.08,3.2-1.75,1.47-.97,3.74-3,5.33-5.57.81-1.28,1.47-2.65,1.91-3.95Z" />
    <path class="cls-6"
      d="M111.91,44.73c1.33,2.25,1.62,4.48.93,7-1.24,4.45-5.01,8.31-10.35,10.57-6.21,2.64-13.33,2.64-18.1.01-2.72-1.47-5.39-3.68-8.13-6.7,1.68-3.65,4.18-6.91,7.29-9.47,1.66,4.11,5.58,7.58,10.09,8.92,1.34.4,2.71.59,4.05.59,3.48,0,6.73-1.28,8.63-3.59,2.44-2.96,2.49-7.51.22-11.07.01,0,.03.01.04.01,1.77.44,3.11,1.08,4.03,1.88.1.09.21.19.29.29.09.1.19.22.29.32.19.25.35.52.47.8.03.07.06.13.09.19.04.07.1.16.15.24Z" />
    <path class="cls-1"
      d="M104.55,40.73c2.64,3.17,2.92,7.63.63,10.38-2.28,2.77-6.86,3.81-11.13,2.53-4.17-1.24-7.91-4.62-9.29-8.45.93-.68,1.9-1.3,2.92-1.84,5.08-2.75,11.07-3.73,16.77-2.78.03.06.06.12.1.16Z" />
    <path class="cls-7"
      d="M164.13,74.49c.22,5.71-1.77,10.81-4.77,15.29-3.14,4.71-7.39,8.75-11.35,12.12-3.34,2.86-6.94,5.61-10.65,8.19l-.35-.06c-.12-.03-.24-.04-.35-.07,3.37-2.36,7.1-5.11,10.41-8.28,4.49-4.3,11.94-12.99,11.31-22.8-.49-7.35-6.91-11.32-17.92-11.25-12.9.1-25.14,4.32-36.99,8.57-.49.18-.99.35-1.47.53l-.43.15c-11,3.96-20.53,7.81-29.1,11.75-9.73,4.48-18.33,8.73-25.14,15.3-4.12,4.01-13.59,16.08-7.91,23.9,3.09,4.26,9.81,5.68,15.98,6.52,2.77.37,5.57.52,8.38.52,2.36,0,4.74-.1,7.14-.24-.31.29-.6.59-.85.91h-.07c-5.71.38-15.3.46-23.87-2.09-4.65-1.38-9.01-3.55-12.3-6.86-2.75-2.8-4.74-6.39-5.48-11.06-.07-.46-.13-.91-.18-1.35-.56-5.86.77-12.27,4.06-19.6.4-.91.85-1.87,1.35-2.87.18.18.35.31.56.44.18.12.37.21.56.28.62.24,1.25.31,1.84.34.54.04,1.1.06,1.66.06,2.59,0,5.27-.41,8.11-1.24,1.49-.43,2.81-.96,3.98-1.58.09-.04.18-.09.27-.13.75-.37,1.53-.81,2.33-1.31,1.78-1.12,3.55-2.56,5.02-4.05,1.47-1.49,2.62-3.03,3.39-4.18.38-.59.68-1.08.87-1.41.09-.18.18-.29.22-.4-.07.09-.16.22-.27.37-.21.34-.55.78-.96,1.34-.85,1.09-2.09,2.53-3.64,3.89-.87.8-1.83,1.55-2.83,2.21.15-.16.25-.32.37-.5,1.1-1.74,1.87-3.93,1.87-6.05,0-1.58-.41-3.11-1.43-4.4-1.49-1.9-3.89-3.25-6.79-3.83-.68-.13-1.38-.25-2.09-.34-.84-.1-1.68-.16-2.5-.13,1.71-3.96,3.17-8.06,4.36-12.22.57-2,1.09-4.01,1.53-6.04.5.16,1.03.24,1.59.24.13,0,.25,0,.38-.03,1.05-.04,2.09-.31,2.95-.69,1.63-.72,3.17-2,4.68-3.87.72-.9,1.53-2.09,1.5-3.49-.03-1.22-.75-2.44-1.91-3.27-1.1-.78-2.72-1.55-4.43-1.74-.31-.04-.62-.06-.94-.06-.52,0-1.02.06-1.52.21-.1.03-.21.06-.31.1.03-.29.06-.59.09-.88l.1-1.22c.21-2.49.41-5.07,1.18-7.44,1.84-5.67,7.72-10.93,14.4-9.88,3.86.6,7.2,3.08,10.44,5.48l.81.6c3.86,2.83,7.91,5.48,12.09,7.85-1.41.18-2.83.47-4.2.9-1.84.54-3.61,1.33-5.26,2.31-5.36,3.21-8.79,7.05-10.79,12.09-2.64,6.6-1.27,12.56,3.86,16.77.59.49,1.19.96,1.81,1.4-1.28-.53-2.56-1.12-3.76-1.74-3.28-1.65-5.92-3.39-6.52-3.78.54.46,3.05,2.39,6.26,4.27,2.75,1.65,6.04,3.17,8.63,4.14,4.3,2.28,8.76,3.52,12.9,3.52.31,0,.63-.01.94-.03,2.49-.12,4.98-.6,7.36-1.43,3.96-1.37,7.58-3.67,10.37-6.64,1.22-1.3,2.19-2.75,2.92-4.33.43-.93.75-1.9.97-2.89.04-.13.07-.29.12-.46.35-1.62.65-3.76.66-5.66.06-2.58-.28-4.68-.28-4.68,0,0,.06,1.97-.24,4.34-.21-1.68-.66-3.37-1.35-5.07-.06-.19-.15-.37-.22-.56-.32-.75-.69-1.47-1.15-2.18,6.05,2,12.27,3.58,18.51,4.64.72.12,1.44.24,2.18.35.04.04.12.06.18.07-.28.27-.52.59-.71.96-.07.15-.15.31-.21.47-.99,2.33-.46,5.15.54,7.01.18.34.38.65.6.94-1.03-.52-2.09-1.16-3-1.9-1.02-.78-1.84-1.63-2.42-2.27-.5-.56-.81-.97-.88-1.08.06.1.31.54.74,1.18.5.71,1.25,1.66,2.21,2.58,1.65,1.66,4.02,3.05,5.7,3.67,1.97,1.25,4.39,1.74,6.64,1.74.8,0,1.58-.07,2.31-.18,2.67-.41,5.15-1.41,7.57-2.47.32-.13.66-.28.99-.43.1-.04.18-.1.25-.18.09.03.18.04.28.03.25-.01.46-.15.57-.35,4.64,2.93,7.69,8.53,7.92,14.68Z" />
    <path class="cls-5"
      d="M140.16,116.93c-4.26-1.68-8.64-.54-13.02,3.36-.72.65-1.43,1.31-2.15,1.99-1.25,1.19-2.52,2.39-3.87,3.45,1.5,2.08,2.81,4.29,3.93,6.6,1.53-1.16,3.15-2.22,4.71-3.27,1.94-1.3,3.95-2.64,5.77-4.09l.94-.75c2.74-2.16,4.96-3.92,6.07-6.89-.59.09-1.37.01-2.39-.38Z" />
    <path class="cls-5"
      d="M92.81,128.02c-5.33.99-10.63,3.61-14.48,7.36-1.87,1.81-6.16,5.99-4.54,8.87,2.75,1.72,5.79,2.34,9.47,1.96,3.74-.4,7.39-1.65,10.91-2.87.97-4.61-.28-10.31-1.25-14.76l-.12-.56Z" />
    <path class="cls-1"
      d="M93.68,145.07c-.27.72-.6,1.41-1.03,2.05-1.12,1.68-2.7,3.09-4.21,4.46l-.44.4c-5.4,4.9-8.19,9.66-9.01,15.42-.4,2.77-.19,5.58.56,8.26-6.02,2.72-13.27,4.15-21.56,4.26-7.76.13-13.02-3.87-14.37-10.94-.91-4.77.25-9.97,3.09-13.9,2.11-2.93,6.8-4.98,10.94-6.77,1.58-.69,3.08-1.34,4.34-2,1.33-.69,2.06-1.93,1.9-3.23-.16-1.34-1.21-2.42-2.74-2.8-1.08-.27-2.27,0-3.42.24-.87.18-1.77.38-2.52.31-2.97-.28-6.72-1.5-8.32-5.63,5.88,1.58,12.08,2.02,17.19,2.02,1.86,0,3.56-.06,5.05-.13-.24.57-.38,1.24-.4,2.03-.06,2.75,1.75,5.46,4.31,6.45.03.01.07.01.1.01,2.44,1.5,5.07,2.21,8.09,2.21.71,0,1.43-.03,2.18-.1,3.56-.37,6.97-1.47,10.26-2.61Z" />
    <path class="cls-1"
      d="M156.9,78.97c-.54-8.26-9.26-9.9-16.45-9.87-9.81.07-19.31,2.61-28.57,5.71-3.15,1.06-6.29,2.18-9.4,3.3l-.43.15c-8.92,3.21-16.85,6.33-24.09,9.51-1.66.72-3.3,1.46-4.89,2.19-9.6,4.42-18.1,8.6-24.73,15.02-.65.63-1.33,1.34-1.99,2.11-4.89,5.6-9.72,14.43-5.76,19.87,3.14,4.31,11.44,5.45,14.98,5.93,5.55.75,11.03.52,17.08.18,1.07-1.06,1.94-2.56,2.68-4.71.49-1.41.82-2.89,1.12-4.36-1.33.59-3.09,1.43-4.59,2.33-1.81,1.05-3.24,2.12-3.42,2.25.15-.16,1.41-1.43,3.11-2.71,1.65-1.3,3.77-2.55,5.15-3.18.04-.18.07-.34.1-.52.15-.82.31-1.65.49-2.49-.01.01-.03.01-.04.01-4.55.19-12.66.84-19.56,2.03-6.04.99-11.15,2.27-12.34,2.56,1.16-.37,6.2-1.89,12.24-3.11,6.86-1.46,15.01-2.4,19.6-2.59.13-.01.25.03.32.09.28-1.27.65-2.53,1.13-3.76.12-.29.25-.59.38-.88-1.87-.82-4.54-1.83-7.53-2.7-3.02-.88-6.38-1.59-9.51-2.06-3.12-.47-6.04-.71-8.16-.8-1.06-.06-1.93-.07-2.52-.09-.6,0-.94-.01-.94-.01,0,0,.34,0,.94-.03.59-.03,1.46-.04,2.52-.04,2.14,0,5.07.09,8.23.43,3.18.34,6.6.91,9.68,1.71,3.09.78,5.86,1.75,7.78,2.59h.01c1.55-2.99,3.92-5.67,6.94-7.91-.03-.03-.04-.04-.04-.07-.68-2.36-2.16-6.47-3.99-9.76-1.66-3.12-3.49-5.52-3.71-5.82.24.27,2.27,2.5,4.18,5.54,2.02,3.08,3.74,7.01,4.48,9.45,1.59-1.09,3.34-2.06,5.24-2.9,2.81-1.25,6.16-2.59,9.65-3.4.06-1.72.32-3.99.97-6.39.66-2.59,1.8-5.3,3.12-7.63,1.31-2.33,2.84-4.26,4.04-5.58.6-.65,1.1-1.16,1.47-1.5.28-.25.46-.43.53-.5-.07.07-.24.25-.49.53-.35.37-.82.91-1.38,1.59-1.1,1.38-2.52,3.37-3.68,5.73-1.18,2.36-2.15,5.04-2.69,7.58-.5,2.22-.71,4.32-.78,5.95,2.08-.4,4.18-.57,6.27-.43,1.24.1,2.4.31,3.49.63,0-.1.04-.24.13-.35,1.52-2.24,3.83-5.23,6.69-8.19,2.83-2.99,6.24-5.91,9.6-8.31,3.36-2.42,6.67-4.26,9.13-5.49,1.24-.6,2.25-1.08,2.96-1.38.44-.19.77-.32.94-.4-.16.09-.49.24-.91.44-.71.34-1.69.84-2.9,1.5-2.42,1.31-5.66,3.27-8.9,5.77-3.24,2.49-6.54,5.48-9.25,8.5-2.74,3-4.96,5.98-6.45,8.17-.01.03-.03.04-.04.06,1.59.54,3.06,1.31,4.48,2.19h.01c3.77-2.53,10.63-6.17,16.95-8.31,3.21-1.15,6.23-1.96,8.44-2.49,1.81-.43,3.06-.68,3.48-.75-.4.1-1.66.4-3.43.91-2.18.63-5.15,1.58-8.29,2.84-5.96,2.3-12.39,5.95-16.16,8.44,1.24.82,2.44,1.72,3.68,2.64.18.13.35.27.54.38,1.93-.6,4.83-1.12,7.38-1.08,2.96-.01,5.35.56,5.35.56,0,0-2.44-.29-5.33,0-2.15.16-4.49.74-6.27,1.3,3.03,2,6.33,3.48,9.73,4.37,3.77-2.58,7.73-5.45,11.34-8.89,4.31-4.12,11.46-12.41,10.85-21.63Z" />
    <path class="cls-7"
      d="M59.64,44.99c.03.91-.59,1.8-1.18,2.53-1.37,1.69-2.72,2.83-4.14,3.46-1.22.54-3.02.84-4.09.34-.04-.01-.07-.04-.12-.06-.07-.15-.22-.27-.4-.31-.18-.18-.29-.41-.38-.68-.01-.07-.04-.13-.06-.21.27.03.52.04.78.04,1.16,0,2.33-.28,3.39-.8,1.16-.59,2.16-1.52,3.15-2.4.46-.41.9-.81,1.34-1.18.25-.19.63-.5.8-.99.29-.91-.35-1.69-.59-1.99l-.04-.04c.09.04.18.1.25.16.8.56,1.28,1.35,1.3,2.11Z" />
    <path class="cls-6"
      d="M57.01,43.71c.37.44.32.59.32.59-.03.07-.22.22-.31.29-.47.38-.94.81-1.41,1.24-.91.82-1.86,1.68-2.83,2.16-1.16.57-2.53.77-3.8.54-.1-1.02-.06-2.02.15-2.93.37.75,1.22,1.18,2.61.66.77-.28,1.31-.81,1.71-1.37.74-1.08.97-2.33.66-3.52.13-.01.27,0,.4.01h.01c.88.35,1.63,1.28,2.31,2.11l.18.21Z" />
    <path class="cls-7"
      d="M45.27,86.52c-.24-.1-2.25-.96-4.8-1.43-2.39-.49-5.18-.53-7.04-.31.07-.68.18-1.31.31-1.84,2.21-1.15,6.82.01,10.21.85,2.19.56,3.7.91,4.74.91.21,0,.4-.01.56-.04.01.1,0,.22-.01.32-.04.4.25.77.65.81.03.01.06.01.09.01.37,0,.68-.28.72-.65.37-3.12-1.59-6.98-3.71-8.91-2.11-1.91-5.11-2.28-7.54-1.99.99-.93,2.18-1.41,3.48-1.61h.04c.09,0,.16-.01.24-.04h.01s.03-.01.04,0c.96.01,2.12.18,3.31.59,1.55.53,3.11,1.5,4.23,2.74,1.16,1.21,1.89,2.62,2.28,3.68.38,1.08.49,1.78.49,1.78,0,0-.03-.72-.32-1.83-.29-1.12-.91-2.62-2.02-4.01-.81-1.05-1.94-1.99-3.15-2.67.12.03.25.04.37.07,2.55.5,4.64,1.66,5.92,3.28,1.93,2.47,1.12,6.19-.54,8.76-1.47,2.33-4.14,4.05-7.91,5.14-3.28.96-6.32,1.33-9.28,1.13-.57-.04-1.24-.12-1.71-.41-.26-.16-.49-.4-.66-.68.01-.28-.12-.54-.35-.68-.4-1-.54-2.34-.52-3.64,1.77-.28,4.57-.52,7-.27,2.55.21,4.64.81,4.89.88Z" />
    <path class="cls-6"
      d="M49.14,83.16h0s-.03.01-.04.03c-.5.25-2.97-.37-4.79-.82-1.02-.25-2.09-.52-3.17-.75.77-.35,1.49-.85,2.14-1.49.84-.82,1.56-1.91,2.14-3.23.21.13.4.28.57.44,1.4,1.27,2.77,3.61,3.15,5.82Z" />
    <path class="cls-1"
      d="M46.66,59.78c-1.16,3.9-2.56,7.73-4.18,11.46-1.56.27-3.05.91-4.29,2.18-.07.07-.15.15-.24.21-.24.22-.54.49-.74.9-.12.25-.13.54-.15.84,0,.07-.01.15-.01.21-1.27,1.49-2.55,3.37-3.84,5.64-.15.13-.27.29-.37.43-.03.04-.06.09-.09.13-.15.09-.28.24-.32.41-.59,1.91-.91,5.66.19,8.11-.65,1.31-1.22,2.52-1.75,3.68-2.93,6.55-4.36,12.43-4.32,17.85-1.49-.81-2.06-2.93-2.11-4.77,0-.49,0-.96.01-1.44.03-1.91.07-3.87-.91-5.63-1.47-2.61-4.37-3.49-7.19-4.33-1.16-.34-2.37-.71-3.43-1.18-2.61-1.18-4.68-3.53-5.7-6.46-1-2.87-.84-5.92.43-8.36,2.11-4.09,6.55-6.48,10.56-8.39,9.19-4.42,18.95-8.03,28.44-11.47Z" />
    <path class="cls-1"
      d="M44.11,76.23c-.5,1.18-1.13,2.14-1.87,2.86-.93.93-2.06,1.5-3.2,1.59-.5.04-1.28-.21-1.78-.77-.41-.46-.54-1-.41-1.61.01-.03.01-.06.01-.09.47-.66.94-1.25,1.4-1.8.12-.15.19-.31.22-.49,1.71-.41,3.84-.41,5.63.29Z" />
    <path class="cls-6" d="M36.16,80.88s.06.07.1.1c-.44,0-.87.03-1.27.1.21-.35.41-.71.63-1.03.13.29.31.57.53.82Z" />
    <path class="cls-4"
      d="M95.83,46.28c1.54,1.03,3.41,1.56,5.26,1.47,1.72-.08,4.09-.9,3.97-2.95-.14-2.32-2.29-3.65-4.37-3.88-1.63-.18-5.13-.06-6.32,1.33-1.13,1.32.29,3.25,1.46,4.03Z" />
    <path class="cls-4"
      d="M148.95,49.06c-.55-.34-2.7-.73-2.62.43.05.74,1.12.93,1.67,1.11.39.13.84.23,1.18,0,.51-.35.3-1.22-.22-1.55Z" />
    <path class="cls-4" d="M39.5,77.6c-1.78-1.09,1.39-2.14,2.43-1.53,1.64.97-1.21,2.27-2.43,1.53Z" />
    <path class="cls-4"
      d="M29.75,106.71c-1.12,6.85,0,14.37,4.06,19.88-2.75-2.8-4.74-6.39-5.48-11.06-.07-.46-.13-.91-.18-1.35-.56-5.86.77-12.27,4.06-19.6.4-.91.85-1.87,1.35-2.87.18.18.35.31.56.44.18.12.37.21.56.28-2.27,4.55-4.12,9.28-4.95,14.28Z" />
    <path class="cls-4"
      d="M51.6,53.05c.13,0,.25,0,.38-.03-.77,3.42-1.91,6.76-2.36,10.19-.35,2.69-1.66,5.45-3,8-.84-.1-1.68-.16-2.5-.13,1.71-3.96,3.17-8.06,4.36-12.22.57-2,1.09-4.01,1.53-6.04.5.16,1.03.24,1.59.24Z" />
    <path class="cls-4"
      d="M79.02,26.86c3.86,2.83,7.91,5.48,12.09,7.85-1.41.18-2.83.47-4.2.9-1.61-1.15-3.17-2.37-4.67-3.65-3.31-2.83-6.42-5.99-10.29-7.98-3.87-1.99-8.82-2.59-12.46-.18-4.92,3.27-5.27,10.13-5.67,16.1-.52,0-1.02.06-1.52.21-.1.03-.21.06-.31.1.03-.29.06-.59.09-.88l.1-1.22c.21-2.49.41-5.07,1.18-7.44,1.84-5.67,7.72-10.93,14.4-9.88,3.86.6,7.2,3.08,10.44,5.48l.81.6Z" />
    <path class="cls-4"
      d="M134.84,50.01s.12.06.18.07c-.28.27-.52.59-.71.96-.07.15-.15.31-.21.47-.69-.19-1.38-.37-2.09-.53-5.46-1.27-11.02-2.09-16.49-3.23-.06-.19-.15-.37-.22-.56-.32-.75-.69-1.47-1.15-2.18,6.05,2,12.27,3.58,18.51,4.64.72.12,1.44.24,2.18.35Z" />
    <path class="cls-4"
      d="M159.36,89.77c2.49-5.27,4.05-11.09,2.78-16.88-.69-3.21-2.18-6.24-4.23-8.79-1.18-1.49-2.43-2.49-3.8-3.37.32-.13.66-.28.99-.43.1-.04.18-.1.25-.18.09.03.18.04.28.03.25-.01.46-.15.57-.35,4.64,2.93,7.69,8.53,7.92,14.68.22,5.71-1.77,10.81-4.77,15.29Z" />
    <path class="cls-4"
      d="M71.72,52.42c4.14-6.93,10.86-12.29,18.55-14.74,5.88-1.87,11.38,3.17,17.09,1.27-5.51-3.56-12.55-4.66-18.89-2.96-4.98,1.34-9.97,4.33-13.31,8.26-1.25,1.47-2.24,3.05-3.1,4.78-.85,1.71-.74,3.94-1.53,5.52.36-.73.75-1.44,1.17-2.14Z" />
    <path class="cls-4"
      d="M111.7,49.28c1.53,3.51,2.43,7.26,3.33,10.99.49-2.81.87-5.66.62-8.5-.24-2.84-1.16-5.69-3-7.86-.99-1.16-5.17-4.56-6.63-2.92,2.25,2.64,4.27,5.05,5.68,8.29Z" />
    <path class="cls-4"
      d="M134.68,53.8c.2-.02.39-.12.57-.21,1.35-.72,2.69-1.44,4.04-2.15,1.96-1.04,3.93-2.1,5.57-3.59-.23.21-3.2-.1-3.71-.02-1.37.22-2.7.68-3.91,1.35-.93.52-2.06,1.23-2.76,2.07-.44.52-1.48,2.7.19,2.55Z" />
    <path class="cls-4"
      d="M153.93,54.99c.23-.15.5-.17.8.08.86.71.93,2.69.87,3.65-.04.62-.32,1.39-.94,1.42-.57.03-.93-.6-1.15-1.12-.37-.89-.76-1.9-.37-2.85.16-.39.43-.93.79-1.16Z" />
    <path class="cls-4"
      d="M35.2,79.64c-1.33,2.35-2.25,5.01-2.19,7.71.04,1.72.7,3.7,2.33,4.25-1.35-4.79-.35-10.19,2.63-14.17.76-1.02,1.68-1.97,2.84-2.5,1.08-.49,2.3-.58,3.49-.59,3.23-.04,6.47.42,9.56,1.35-.57-.17-1.53-1.55-2.08-1.95-.84-.6-1.75-1.08-2.71-1.45-1.92-.73-4.04-.98-6.07-.67-3.69.56-6.1,5.01-7.8,8.01Z" />
    <path class="cls-4"
      d="M115.76,123.64c3.55-1.66,6.2-4.74,9.42-6.98,1.8-1.25,3.78-2.23,5.85-2.92,2.15-.71,4.08-.28,6.32-.11-5.23-2.29-10.23-5.09-14.91-8.36,4.34,2.16,8.92,3.83,13.63,4.97,1.6.39,3.25.73,4.64,1.6,1.1.69,1.91,1.74,2.26,3,.47,1.66,0,1.68-1.58,1.49-3.15-.38-6.39-.71-9.49.17-3.1.88-5.73,3.9-8.08,6.02-2.38,2.14-4.89,4.24-7.86,5.44-1.49.6-3.11.95-4.73.93-1.55-.01-2.76-.67-4.23-.93-2.92-.51-6.35-.56-9.33-.57-7.7-.03-15.36,3.09-20.86,8.49,1.23-1.21,1.91-3.26,3.18-4.58,3.82-3.99,10.73-6.26,16.18-6.51,6.5-.3,13.37,1.77,19.57-1.13Z" />
    <path class="cls-4"
      d="M124.99,145.21c.82,5.21.82,10.64-.79,15.66-1.51,4.72-4.37,8.92-5.92,13.62,2.96-.14,5.6-2.16,7.18-4.67s2.24-5.49,2.7-8.42c.84-5.42,1.03-10.97.18-16.39-.36-2.27-3.96-16.95-7.36-15.05,1.13,5.14,3.19,9.99,4.02,15.24Z" />
    <path class="cls-3"
      d="M164.41,108.67c6.13,1.13,9.59,7.41,9.38,12.81-.16,4.62-2.34,9.34-6.82,14.8-8.79,10.69-21.68,19.63-37.29,25.87.09-.56.16-1.12.22-1.69,15.04-6.11,27.45-14.79,35.92-25.12,4.29-5.2,6.35-9.62,6.49-13.92.18-4.77-2.83-10.31-8.17-11.31-2.72-.52-4.79.21-7.17,1.03-.93.32-1.87.66-2.9.93-1.58.43-3.81.37-4.96-1.16-1.18-1.58-.47-3.73.75-5.15,1.19-1.4,2.75-2.4,4.27-3.37l.62-.4c1.86-1.21,3.25-2.31,4.06-3.78.75-1.35.87-3.33-.34-4.49l-.09-.09c.29-.37.57-.75.85-1.12h.01c.09.03.16.09.24.15,1.58,1.49,1.83,4.08.6,6.27-1.02,1.83-2.78,3.15-4.54,4.29l-.63.41c-1.43.91-2.89,1.86-3.93,3.09-.82.96-1.38,2.4-.71,3.31.66.88,2.18.96,3.4.63.97-.27,1.9-.59,2.8-.9,2.47-.87,4.82-1.68,7.92-1.09Z" />
    <path class="cls-3"
      d="M167.09,8.6c3.99,2.64,6.26,6.98,5.8,11.09-.47,4.32-3.64,8.08-9.69,11.52-5.35,3.02-11.05,5.36-16.97,6.94l-.72.19c-1.72.46-3.52.93-5.04,1.83-1.43.85-2.99,2.47-3.08,4.46-.01.38.03.78.06,1.16.04.53.1,1.09.04,1.65-.04.43-.18.87-.38,1.28-.01,0-.03.01-.04.01-.07.03-.16.07-.24.12l-1.53-.25c.4-.19.68-.77.72-1.31.04-.43,0-.88-.04-1.37-.03-.46-.07-.91-.06-1.37.1-2.18,1.52-4.29,3.8-5.65,1.69-1,3.59-1.5,5.42-1.99l.71-.19c5.8-1.55,11.4-3.83,16.63-6.79,5.61-3.18,8.53-6.58,8.95-10.4.38-3.5-1.68-7.41-5.15-9.7-2.8-1.84-6.39-2.84-11.3-3.14-13.21-.78-26.61,3.5-38.42,7.28-6.01,1.93-11.65,4.05-14.56,8.79-.71,1.15-1.21,2.37-1.74,3.68-.54,1.33-1.1,2.68-1.89,3.93-1.1,1.78-2.97,3.45-5.07,3.9-.9-.5-1.8-1-2.68-1.53.13-.04.28-.04.43,0,2.24.77,4.74-1,6.07-3.15.72-1.13,1.22-2.39,1.77-3.71.53-1.3,1.09-2.65,1.86-3.89,3.18-5.18,9.09-7.41,15.36-9.43,11.94-3.81,25.48-8.16,38.97-7.35,5.17.31,9,1.38,12.02,3.39Z" />
    <path class="cls-3"
      d="M165.6,74.44c.27,6.92-2.47,12.92-6.35,18.05h-.01c-.27-.12-.59-.06-.8.16-.25.27-.27.68-.06.96-2.87,3.56-6.24,6.7-9.42,9.41-3.02,2.58-6.24,5.08-9.6,7.44-.54-.13-1.09-.22-1.62-.32l-.38-.06c3.71-2.58,7.3-5.33,10.65-8.19,7.75-6.6,16.57-15.68,16.13-27.41-.24-6.16-3.28-11.75-7.92-14.68.09-.12.12-.27.12-.41-.01-.44-.06-.87-.12-1.3,5.48,3.05,9.15,9.38,9.4,16.35Z" />
    <path class="cls-3" d="M158.45,92.66c.21-.22.53-.28.8-.16-.28.37-.56.75-.85,1.12-.21-.28-.19-.69.06-.96Z" />
    <path class="cls-3"
      d="M158.37,78.88c.63,9.81-6.82,18.5-11.31,22.8-3.31,3.17-7.04,5.92-10.41,8.28-.65-.13-1.3-.28-1.94-.46,3.77-2.58,7.73-5.45,11.34-8.89,4.31-4.12,11.46-12.41,10.85-21.63-.54-8.26-9.26-9.9-16.45-9.87-9.81.07-19.31,2.61-28.57,5.71-3.15,1.06-6.29,2.18-9.4,3.3l-.43.15c-8.92,3.21-16.85,6.33-24.09,9.51-1.66.72-3.3,1.46-4.89,2.19-9.6,4.42-18.1,8.6-24.73,15.02-.65.63-1.33,1.34-1.99,2.11-4.89,5.6-9.72,14.43-5.76,19.87,3.14,4.31,11.44,5.45,14.98,5.93,5.55.75,11.03.52,17.08.18-.07.07-.16.15-.24.22-.22.21-.46.4-.68.59-.28.25-.57.5-.84.75-2.4.13-4.79.24-7.14.24-2.81,0-5.61-.15-8.38-.52-6.17-.84-12.89-2.27-15.98-6.52-5.68-7.82,3.78-19.9,7.91-23.9,6.8-6.57,15.4-10.82,25.14-15.3,8.57-3.95,18.1-7.79,29.1-11.75l.43-.15c.49-.18.99-.35,1.47-.53,11.86-4.26,24.09-8.47,36.99-8.57,11.02-.07,17.44,3.9,17.92,11.25Z" />
    <path class="cls-3"
      d="M156.33,59.39c0,.15-.03.29-.12.41-.41-.28-.84-.52-1.28-.74-.09-.04-.16-.1-.22-.16.04,0,.07-.01.12-.01-.03-.32-.06-.65-.13-.97.24-.25.59-.32.88-.18.22.1.43.22.63.35.06.43.1.85.12,1.3Z" />
    <path class="cls-3"
      d="M156.21,58.1c-.21-.13-.41-.25-.63-.35-.29-.15-.65-.07-.88.18-.09-.75-.27-1.47-.5-2.16.37-.4.66-.85.88-1.36.06-.15.07-.29.04-.44.54,1.3.91,2.68,1.09,4.14Z" />
    <path class="cls-3"
      d="M154.93,59.07c.44.22.87.46,1.28.74-.12.21-.32.34-.57.35-.1.01-.19,0-.28-.03-.07.07-.15.13-.25.18-2.71,1.19-5.52,2.43-8.56,2.9-.74.1-1.52.18-2.31.18-2.25,0-4.67-.49-6.64-1.74.22.09.44.15.63.21.27.09.57-.97.34-1.05-.85-.25-2.06-.71-3.31-1.34-.22-.29-.43-.6-.6-.94-1.08-1.99-1.61-5.07-.34-7.48.19-.37.43-.69.71-.96.06.03.12.03.18.03h.07s.06,0,.07-.01l1.56.25s.07.01.12.01.09,0,.12-.01c-.6.32-1.22.77-1.53,1.37-1,1.93-.56,4.46.34,6.11,2.03,3.74,6.85,4.45,10.37,3.92,2.86-.43,5.57-1.63,8.19-2.8.07-.03.15-.04.21-.04.06.06.13.12.22.16Z" />
    <path class="cls-3"
      d="M155.12,53.96c.03.15.01.29-.04.44-.22.5-.52.96-.88,1.36-.16-.57-.37-1.12-.62-1.65t0-.01c.07-.09.12-.19.16-.29.16-.37.6-.53.97-.37.12.06.22.15.28.25.04.04.07.09.07.15.01.04.04.09.06.13Z" />
    <path class="cls-3" d="M155.12,53.96s-.04-.09-.06-.13c.03.04.04.09.06.13Z" />
    <path class="cls-3"
      d="M154.99,53.68c-.06-.1-.16-.19-.28-.25-.37-.16-.81,0-.97.37-.04.1-.09.21-.16.29-.24-.49-.49-.96-.8-1.41.22-.44.37-.97.47-1.58.03-.12.01-.25-.03-.35.71.88,1.31,1.87,1.77,2.93Z" />
    <path class="cls-3"
      d="M154.69,57.92c.07.32.1.65.13.97-.04,0-.07.01-.12.01-.19-.22-.25-.54-.12-.82.03-.06.07-.12.1-.16Z" />
    <path class="cls-3"
      d="M153.57,54.11c.25.53.46,1.08.62,1.65-.77.88-1.83,1.53-3.09,1.87-1.31.35-2.64.4-3.93.46l-.96.04c-1.38.07-2.97.27-4.24,1.02-.12.07-.25.1-.38.1-.01,0-.04,0-.06-.01.01.01.04,0,.06,0,.4-.09.65-.47.56-.87-.06-.29-.12-.59-.13-.88,1.34-.59,2.81-.75,4.12-.82l.97-.04c1.27-.04,2.46-.1,3.61-.4,1.28-.35,2.3-1.09,2.86-2.11Z" />
    <path class="cls-3"
      d="M153.22,50.75c.04.1.06.24.03.35-.1.6-.25,1.13-.47,1.58-.29-.52-.65-.99-1.05-1.43.03-.13.06-.26.07-.38.06-.41.44-.69.84-.62.09.01.18.04.25.09.12.13.22.26.32.41Z" />
    <path class="cls-3" d="M153.22,50.75c-.1-.15-.21-.28-.32-.41.16.09.28.24.32.41Z" />
    <path class="cls-3"
      d="M152.89,50.34c-.07-.04-.16-.07-.25-.09-.4-.07-.78.21-.84.62-.01.12-.04.25-.07.38-.24-.29-.5-.56-.77-.81-1.13-1.06-2.5-1.68-3.99-1.94.06-.03.1-.04.16-.07.38-.16.54-.59.38-.97-.13-.27-.4-.43-.68-.43v-.07c1.81.27,3.59.99,5.12,2.42.32.31.63.63.93.97Z" />
    <path class="cls-3"
      d="M152.78,52.68c-.31.63-.74,1.1-1.28,1.4-.5.28-1.05.35-1.55.35-.4,0-.75-.04-1.06-.09-2.03-.37-3.98-1.25-5.58-2.56.25-.41.54-.81.88-1.18,1.41,1.16,3.15,1.97,4.95,2.28.78.13,1.28.1,1.66-.1.52-.28.78-.93.93-1.53.4.44.75.91,1.05,1.43Z" />
    <path class="cls-3"
      d="M147.52,47.45c.16.38,0,.81-.38.97-.06.03-.1.04-.16.07-.65-.12-1.33-.18-2-.18-.16,0-.34,0-.5.01.63-.5,1.33-.91,2.06-1.25.1-.04.21-.06.31-.06.28,0,.54.16.68.43Z" />
    <path class="cls-3"
      d="M144.03,89.88c1.81-.43,3.06-.68,3.48-.75-.4.1-1.66.4-3.43.91-2.18.63-5.15,1.58-8.29,2.84-5.96,2.3-12.39,5.95-16.16,8.44-.32-.22-.66-.44-.99-.65,3.77-2.53,10.63-6.17,16.95-8.31,3.21-1.15,6.23-1.96,8.44-2.49Z" />
    <path class="cls-3"
      d="M146.84,46.95v.07c-.1,0-.21.01-.31.06-.74.34-1.43.75-2.06,1.25-1.06.03-2.14.21-3.18.47.12-.18.27-.32.38-.46.12-.15-.69-.9-.84-.72-.37.4-.77.97-1.15,1.65-.69.24-1.35.5-1.99.8-.06.03-.12.06-.18.07.12-.1.19-.24.22-.4.07-.4-.21-.78-.6-.85h-.1c.04-.07.07-.13.09-.18,1.58-.74,5.7-2.36,9.72-1.77Z" />
    <path class="cls-3"
      d="M144.97,48.32c.68,0,1.35.06,2,.18-1.05.52-2,1.24-2.78,2.11-.18-.15-.35-.31-.52-.46-.29-.27-.77-.27-1.05.04h-.01c.53-.69,1.15-1.33,1.86-1.86.16-.01.34-.01.5-.01Z" />
    <path class="cls-3"
      d="M144.35,115.77c.07.15.09.32.04.49-1,4.36-3.78,6.55-7.01,9.1l-.93.75c-1.88,1.5-3.92,2.86-5.88,4.17-1.63,1.08-3.3,2.19-4.87,3.4-.22-.46-.43-.91-.66-1.35,1.53-1.16,3.15-2.22,4.71-3.27,1.94-1.3,3.95-2.64,5.77-4.09l.94-.75c2.74-2.16,4.96-3.92,6.07-6.89,1.09-.15,1.53-.87,1.68-1.16.06-.12.1-.25.13-.38Z" />
    <path class="cls-3"
      d="M141.86,111.35c1.83,1,2.89,2.95,2.49,4.42-.09-.19-.27-.35-.5-.4-.4-.09-.8.16-.88.54-.12.5-.26.96-.43,1.4-.59.09-1.37.01-2.39-.38-4.26-1.68-8.64-.54-13.02,3.36-.72.65-1.43,1.31-2.15,1.99-1.25,1.19-2.52,2.39-3.87,3.45-.13-.22-.29-.43-.44-.63-.19-.27-.52-.35-.82-.27,1.08-.82,2.12-1.75,3.14-2.7.16.07.32.15.49.21.43.19.84-.84.43-1.02-.01,0-.01-.01-.03-.01.03-.04.07-.07.1-.1.74-.68,1.46-1.37,2.19-2.02,4.74-4.24,9.78-5.49,14.52-3.62,1.13.44,1.97.43,2.19-.04.29-.63-.24-2.06-1.72-2.87-1.08-.59-2.34-.81-3.67-1.05l-.77-.13c-.66-.12-1.34-.27-1.99-.44v-.06c.21.04.43.01.6-.12.43-.29.87-.59,1.31-.9.12.03.24.04.35.07l.35.06s-.04.03-.07.04c-.34.24-.43.69-.19,1.03.15.21.37.31.6.31.15,0,.29-.03.41-.12.43-.29.84-.59,1.25-.88.85.19,1.71.46,2.5.88Z" />
    <path class="cls-3"
      d="M144.35,115.77c-.03.13-.07.26-.13.38-.15.29-.59,1.02-1.68,1.16.16-.44.31-.9.43-1.4.09-.38.49-.63.88-.54.24.04.41.21.5.4Z" />
    <path class="cls-3"
      d="M143.67,50.15c.16.15.34.31.52.46-.34.37-.63.77-.88,1.18-.22-.18-.44-.37-.65-.56-.29-.28-.31-.74-.03-1.03.28-.31.75-.31,1.05-.04Z" />
    <path class="cls-3"
      d="M142.66,51.22c.21.19.43.38.65.56-.16.24-.29.47-.43.72-.77,1.52-1.08,3.28-.87,4.98-.27.12-.53.25-.8.4-.35.21-.47.66-.27,1.02.13.22.34.34.57.34-.03.01-.06.01-.1.01-.34,0-.63-.22-.72-.57-.5-2.3-.19-4.73.87-6.83.29-.59.65-1.13,1.05-1.65h.01c-.28.29-.26.75.03,1.03Z" />
    <path class="cls-3"
      d="M142.14,58.36c.09.4-.16.78-.56.87-.01,0-.04.01-.06,0-.24,0-.44-.12-.57-.34-.21-.35-.09-.81.27-1.02.27-.15.53-.28.8-.4.01.29.07.59.13.88Z" />
    <path class="cls-3"
      d="M142.6,74.03c-.16.09-.49.24-.91.44-.71.34-1.69.84-2.9,1.5-2.42,1.31-5.66,3.27-8.89,5.77-3.24,2.49-6.54,5.48-9.25,8.5-2.74,3-4.96,5.98-6.45,8.17-.01.03-.03.04-.04.06-.32-.12-.66-.24-1-.32,0-.1.04-.24.13-.35,1.52-2.24,3.83-5.23,6.69-8.19,2.83-2.99,6.24-5.91,9.6-8.31,3.36-2.42,6.67-4.26,9.13-5.49,1.24-.6,2.25-1.08,2.96-1.38.44-.19.77-.32.94-.4Z" />
    <path class="cls-3"
      d="M140.83,47.63c.15-.18.96.57.84.72-.12.13-.27.28-.38.46-.54.13-1.08.29-1.61.47.38-.68.78-1.25,1.15-1.65Z" />
    <path class="cls-3"
      d="M139.68,49.28c.53-.18,1.06-.34,1.61-.47-.85,1.02-1.91,2.65-2.43,4.3-.66,1.9-.66,3.65-.66,3.65,0,0-.07-.43-.09-1.12-.01-.68.01-1.65.22-2.68.22-1.28.75-2.61,1.35-3.68Z" />
    <path class="cls-3"
      d="M139.36,110.47c-.41.29-.82.59-1.25.88-.12.09-.26.12-.41.12-.24,0-.46-.1-.6-.31-.24-.34-.15-.8.19-1.03.03-.01.04-.03.07-.04l.38.06c.53.1,1.07.19,1.62.32Z" />
    <path class="cls-3"
      d="M138.56,60.81c.24.07-.07,1.13-.34,1.05-.19-.06-.41-.12-.63-.21-.9-.56-1.69-1.28-2.34-2.18,1.25.63,2.46,1.09,3.31,1.34Z" />
    <path class="cls-3"
      d="M137.14,48.89c.4.07.68.46.6.85-.03.16-.1.29-.22.4-.12.07-.24.13-.37.19,0,0,0,.01-.01.01-.03.01-.07.01-.12.01s-.09-.01-.12-.01l-1.56-.25c.78-.1,1.34-.6,1.69-1.22h.1Z" />
    <path class="cls-3" d="M137.15,50.34c.13-.06.25-.12.37-.19-.09.1-.22.18-.37.19Z" />
    <path class="cls-3" d="M137.08,48.73s.03-.01.04-.01c-.01.04-.04.1-.09.16l-.19-.03c.07-.04.16-.09.24-.12Z" />
    <path class="cls-3" d="M136.84,48.85l.19.03c-.35.62-.91,1.12-1.69,1.22l-.29-.04c.54-.54,1.19-.91,1.8-1.21Z" />
    <path class="cls-3"
      d="M135.31,48.6l1.53.25c-.6.29-1.25.66-1.8,1.21h-.06s-.1-.03-.15-.04c-.21-.1-.35-.29-.38-.54-.04-.4.25-.77.65-.81.07-.01.15-.03.21-.06Z" />
    <path class="cls-3"
      d="M136.65,109.95c-.44.31-.88.6-1.31.9-.18.13-.4.16-.59.12-.18-.04-.34-.15-.44-.31-.22-.34-.15-.8.19-1.02.07-.04.13-.09.21-.15.65.18,1.3.32,1.94.46Z" />
    <path class="cls-3"
      d="M135.25,59.47c.65.9,1.44,1.62,2.34,2.18-1.68-.62-4.05-2-5.7-3.67-.96-.91-1.71-1.87-2.21-2.58-.43-.63-.68-1.08-.74-1.18.07.1.38.52.88,1.08.57.63,1.4,1.49,2.42,2.27.91.74,1.97,1.38,3,1.9Z" />
    <path class="cls-3" d="M135.34,50.1s-.04.01-.07.01h-.07c-.06,0-.12,0-.18-.03.01-.01.01-.03.03-.03l.29.04Z" />
    <path class="cls-3"
      d="M135.22,48.58h.09c-.06.04-.13.06-.21.07-.4.04-.69.41-.65.81.03.25.18.44.38.54-.74-.12-1.46-.24-2.18-.35-6.24-1.06-12.46-2.64-18.51-4.64-.43-.71-.93-1.38-1.47-2.05.03,0,.04,0,.07.01,6.57,2.3,13.36,4.05,20.16,5.21.77.13,1.55.25,2.31.38Z" />
    <path class="cls-3" d="M135.05,50.06s-.01.01-.03.03c-.06-.01-.13-.03-.18-.07.04.01.1.01.15.03h.06Z" />
    <path class="cls-3"
      d="M136.58,103.82s-2.44-.29-5.33,0c-2.15.16-4.49.74-6.27,1.3-.38-.25-.75-.5-1.12-.78,1.93-.6,4.83-1.12,7.38-1.08,2.96-.01,5.35.56,5.35.56Z" />
    <path class="cls-3"
      d="M134.75,110.97v.06c-4.14-1.03-8.1-2.87-11.6-5.38l.06-.07c.07.07.13.1.19.09.44-.18.97-.35,1.58-.54,3.03,2,6.33,3.48,9.73,4.37-.07.06-.13.1-.21.15-.34.22-.41.68-.19,1.02.1.16.26.27.44.31Z" />
    <path class="cls-3"
      d="M125.71,133.68c3.76,8.32,5.26,17.73,4.2,26.79-.44.19-.87.37-1.31.54-.1.04-.21.12-.26.21,1.25-9.12-.19-18.67-4.04-27.07.12.07.25.12.38.12.16,0,.32-.06.46-.16.19-.15.38-.29.57-.43Z" />
    <path class="cls-3"
      d="M128.59,161.01c.44-.18.87-.35,1.31-.54-.06.57-.13,1.13-.22,1.69-.18.07-.37.15-.54.22-.09.03-.18.04-.26.04-.28,0-.54-.16-.66-.41.04-.27.09-.53.12-.8.06-.09.16-.16.26-.21Z" />
    <path class="cls-3"
      d="M129.14,162.38c.18-.07.37-.15.54-.22-.28,1.81-.66,3.62-1.15,5.39-2.96,10.72-9.84,18.31-19.35,21.34-2.69.85-5.98,1.44-9.37,1.44-4.89,0-10-1.21-13.95-4.52-2.71-2.27-4.73-5.35-5.91-8.73.18-.06.34-.15.52-.22.32-.15.49-.49.41-.82l.24-.07c1.05,3.39,3,6.47,5.68,8.72,6.24,5.24,15.71,4.79,21.93,2.81,9.03-2.89,15.55-10.1,18.38-20.34.46-1.69.82-3.4,1.09-5.14.12.25.38.41.66.41.09,0,.18-.01.26-.04Z" />
    <path class="cls-3" d="M128.33,161.21c-.03.27-.07.53-.12.8-.01-.01-.03-.03-.03-.04-.1-.27-.04-.56.15-.75Z" />
    <path class="cls-3"
      d="M125.71,133.68c-.19.13-.38.28-.57.43-.13.1-.29.16-.46.16-.13,0-.27-.04-.38-.12-.1-.25-.22-.49-.34-.72.01-.19.12-.37.28-.49.27-.21.53-.41.81-.62.24.44.44.9.66,1.35Z" />
    <path class="cls-3"
      d="M124.96,144.32c.16,1.15.29,3.12.15,5.14-.13,2-.53,4.02-.9,5.26.07-1.3.19-3.3.12-5.26-.06-1.96-.29-3.86-.46-4.99l-.1-.72-.13-.71c-.19-1.12-.54-3.02-1.1-4.89-.54-1.88-1.27-3.76-1.75-4.96.75,1.06,1.75,2.86,2.49,4.73.77,1.87,1.27,3.78,1.46,4.92l.13.75.1.74Z" />
    <path class="cls-3"
      d="M125.05,132.32c-.28.21-.54.41-.81.62-.16.12-.27.29-.28.49-1.13-2.39-2.47-4.68-4.01-6.82.4-.28.8-.57,1.16-.88,1.5,2.08,2.81,4.29,3.93,6.6Z" />
    <path class="cls-3"
      d="M123.85,104.34c.37.28.74.53,1.12.78-.6.19-1.13.37-1.58.54-.06.01-.12-.01-.19-.09-.22-.24-.41-.88-.19-.96.25-.1.53-.19.84-.28Z" />
    <path class="cls-3"
      d="M121.54,171.92c-.12.24-.25.49-.38.75-.66.35-1.8.82-3.02.97-1.28.19-2.58.04-3.36-.21.82-.04,2.06-.18,3.2-.54,1.15-.35,2.16-.91,2.74-1.25l.38-.21.37-.25c.54-.37,1.5-1.03,2.31-1.91.84-.85,1.52-1.9,1.91-2.62-.12.81-.56,2.05-1.3,3.11-.71,1.06-1.68,1.93-2.31,2.34l-.4.27-.35.21c.07-.22.15-.44.21-.65Z" />
    <path class="cls-3" d="M123.96,133.42c.12.24.24.47.34.72-.07-.04-.13-.1-.19-.18-.13-.16-.18-.35-.15-.54Z" />
    <path class="cls-3"
      d="M123.9,121.32c.41.18,0,1.21-.43,1.02-.16-.06-.32-.13-.49-.21.29-.28.59-.56.88-.82.01,0,.01.01.03.01Z" />
    <path class="cls-3"
      d="M123.87,121.3c-.29.26-.59.54-.88.82-1.35-.59-3.03-1.49-4.74-2.65-1.93-1.3-3.84-2.95-5.43-4.64-1.61-1.68-2.86-3.42-3.68-4.71-.43-.65-.75-1.18-.96-1.56-.1-.19-.18-.34-.24-.44.07.1.16.24.28.41.24.37.59.88,1.05,1.5.93,1.22,2.27,2.86,3.95,4.4,1.66,1.58,3.61,3.08,5.55,4.26,1.9,1.16,3.76,2.05,5.11,2.61Z" />
    <path class="cls-3"
      d="M123.31,103.96c.18.13.35.27.54.38-.31.09-.59.18-.84.28-.22.07-.03.72.19.96l-.06.07c-.21-.13-.41-.28-.6-.43-4.26-3.17-7.83-5.83-13-6.23-.46-.03-.93-.04-1.4-.04-3.2,0-6.45.77-9.47,1.8-.1-.27-.21-.49-.29-.69-.07-.15-1.07.31-1,.46.07.18.18.38.28.6-1.58.56-3.05,1.19-4.42,1.8-6.44,2.86-11.12,7.32-13.21,12.56-.88,2.21-1.33,4.62-1.77,6.97-.38,2.12-.8,4.31-1.53,6.41-.87,2.47-1.88,4.21-3.22,5.45.13-.15.21-.34.19-.54-.03-.41-.37-.74-.78-.69-.09,0-.16.01-.25.01,1.07-1.06,1.94-2.56,2.68-4.71.49-1.41.82-2.89,1.12-4.36.01,0,.01-.01.01-.01.37-.16.71-.29.99-.41.21-.09-.24-1.1-.44-1.02-.1.04-.21.09-.31.13.04-.18.07-.34.1-.52.15-.82.31-1.65.49-2.49.5-.07.57-.75.22-1,.28-1.27.65-2.53,1.13-3.76.12-.29.25-.59.38-.88.01,0,.03.01.04.01.57.24,1.02-.75.46-1.02,1.55-2.99,3.92-5.67,6.94-7.91.22.22,1.1-.07,1-.4-.03-.09-.04-.18-.09-.27,1.59-1.09,3.34-2.06,5.24-2.9,2.81-1.25,6.16-2.59,9.65-3.4-.01.15-.01.28-.01.41-.01.54,1.09.53,1.1.03,0-.21.01-.43.01-.66,2.08-.4,4.18-.57,6.27-.43,1.24.1,2.4.31,3.49.63-.01.47.62.78,1,.32,1.59.54,3.06,1.31,4.48,2.19-.09.06-.18.12-.27.18-.56.37.06,1.28.6.91.21-.15.43-.29.66-.44,1.24.82,2.44,1.72,3.68,2.64Z" />
    <path class="cls-3" d="M121.54,171.92c-.06.21-.13.43-.21.65l-.07.04s-.06.03-.1.06c.13-.27.26-.52.38-.75Z" />
    <path class="cls-3"
      d="M121.26,172.61l.07-.04c-.28.78-.63,1.68-1.13,2.61-.66,1.21-1.53,2.46-2.53,3.59-1.99,2.27-4.55,3.9-6.17,4.64-1.1.49-2.24.9-3.42,1.21-1.18.28-2.37.46-3.58.53-1.77.13-4.8-.1-7.63-1.18-1.41-.52-2.77-1.22-3.92-1.97-1.15-.77-2.08-1.59-2.75-2.28.78.57,1.8,1.28,2.99,1.93,1.19.63,2.56,1.19,3.96,1.61,2.8.84,5.66.91,7.29.8,1.13-.07,2.27-.24,3.37-.5,1.1-.29,2.18-.68,3.21-1.15,1.5-.66,3.99-2.08,6.05-4.14,1.05-1.02,1.99-2.16,2.74-3.28.54-.8.97-1.59,1.34-2.3.04-.03.07-.04.1-.06Z" />
    <path class="cls-3"
      d="M120.67,125.09c.15.21.31.41.44.63-.37.31-.77.6-1.16.88-.15-.22-.29-.44-.46-.65-.19-.25-.19-.57-.03-.82.13-.1.25-.19.38-.31.31-.09.63,0,.82.27Z" />
    <path class="cls-3"
      d="M119.49,125.96c.16.21.31.43.46.65-1.66,1.19-3.46,2.12-5.51,2.58-3.37.75-6.74.03-10.03-.66-1.43-.31-2.92-.63-4.36-.81-1.87-.22-3.83-.19-5.8.07l-.09-.4c-.09-.4-.47-.65-.87-.56-.4.09-.65.47-.56.87l.07.32c-5.33.99-10.63,3.61-14.48,7.36-1.87,1.81-6.16,5.99-4.54,8.87-.16-.09-.31-.19-.47-.29-.34-.22-.8-.13-1.03.21-.22.34-.13.8.21,1.02.21.15.43.28.65.4-.03,0-.07,0-.1-.01-2.56-.99-4.37-3.7-4.31-6.45.01-.8.16-1.46.4-2.03.34-.03.65-.04.96-.06.41-.03.71-.38.69-.8-.03-.38-.34-.66-.72-.68.25-.32.54-.62.85-.91.69-.03,1.4-.07,2.09-.12.21-.01.37-.09.5-.22-.03.03-.06.06-.09.09-.24.21-.47.41-.71.62-1.43,1.24-2.46,2.14-2.5,4.15-.04,1.5.65,2.99,1.77,4.02-.24-3.42,3.53-7.1,5.33-8.84,2.96-2.89,6.74-5.14,10.77-6.55h0c-.12.35.93.72,1.05.37.09-.25.18-.52.27-.8h.01c3.62-1.1,7.38-1.53,10.84-1.1,1.5.19,3.03.52,4.49.82,3.27.69,6.35,1.35,9.4.66,1.96-.44,3.71-1.4,5.35-2.61-.16.25-.16.57.03.82Z" />
    <path class="cls-3" d="M119.85,124.82c-.13.12-.25.21-.38.31.04-.07.1-.15.18-.21.07-.04.13-.07.21-.1Z" />
    <path class="cls-3"
      d="M119.63,101.32c-.24.15-.46.29-.66.44-.54.37-1.16-.54-.6-.91.09-.06.18-.12.27-.18h.01c.32.21.66.43.99.65Z" />
    <path class="cls-3"
      d="M117.11,48.48s.34,2.11.28,4.68c-.01,1.9-.31,4.03-.66,5.65.38-1.91.44-3.93.15-5.99.29-2.37.24-4.34.24-4.34Z" />
    <path class="cls-3"
      d="M116.87,52.83c.29,2.06.24,4.08-.15,5.99-.04.16-.07.32-.12.46-.1.4-.19.74-.29,1.05-.07.24-1.12-.1-1.05-.34.5-1.55,1.28-4.34,1.58-6.86.01-.1.03-.21.03-.29Z" />
    <path class="cls-3"
      d="M116.87,52.83c0,.09-.01.19-.03.29-.29,2.52-1.08,5.32-1.58,6.86-.07.24.97.57,1.05.34.1-.31.19-.65.29-1.05-.22.99-.54,1.96-.97,2.89-.72,1.58-1.69,3.03-2.92,4.33-2.78,2.97-6.41,5.27-10.37,6.64-2.39.82-4.87,1.31-7.36,1.43-.31.01-.63.03-.94.03-4.14,0-8.6-1.24-12.9-3.52.81.31,1.55.56,2.18.75.4.13.72-.93.32-1.05l.04-.09c3.8,1.72,7.66,2.58,11.22,2.42,6.29-.29,12.55-3.14,16.73-7.61,1.1-1.19,2-2.52,2.65-3.95.87-1.9,1.3-3.98,1.3-6.16,0-1.87-.32-3.8-.94-5.73.09-1.66-.25-3.25-1.02-4.82.16.06.34.12.52.18.46.71.82,1.43,1.15,2.18.81,1.89,1.34,3.77,1.58,5.63Z" />
    <path class="cls-3"
      d="M113.63,44.84c.77,1.56,1.1,3.15,1.02,4.82-.21-.63-.44-1.25-.71-1.87-.41-.97-.94-1.91-1.59-2.8.12.03.26.01.4-.04.16-.06.29-.16.35-.29.18.07.35.13.53.19Z" />
    <path class="cls-3"
      d="M115.05,53.49c-.13.96-.35,2.18-.81,3.49-.44,1.3-1.1,2.67-1.91,3.95-1.59,2.56-3.86,4.59-5.33,5.57-1.02.68-2.09,1.27-3.2,1.75-1.12.47-2.28.84-3.48,1.12-1.72.4-4.76.65-7.72.04-1.47-.29-2.93-.77-4.18-1.33-1.25-.57-2.3-1.25-3.08-1.81.87.44,1.97.99,3.25,1.43,1.28.43,2.72.77,4.17.94,2.89.38,5.73.01,7.32-.35,1.12-.27,2.21-.62,3.27-1.06,1.05-.46,2.06-1.02,3.02-1.65,1.35-.9,3.58-2.69,5.29-5.07.87-1.16,1.62-2.44,2.18-3.68.56-1.22.93-2.4,1.21-3.34Z" />
    <path class="cls-3"
      d="M114.65,49.66c-.03.81-.16,1.62-.4,2.46-1.34,4.89-5.43,9.09-11.21,11.53-3.28,1.4-6.82,2.09-10.18,2.09s-6.6-.71-9.19-2.14c-2.71-1.47-5.36-3.61-8.04-6.49.19-.5.4-1,.62-1.5,2.74,3.02,5.4,5.23,8.13,6.7,4.77,2.62,11.88,2.62,18.1-.01,5.35-2.27,9.12-6.13,10.35-10.57.69-2.52.4-4.74-.93-7,.1.15.26.24.44.27.65.88,1.18,1.83,1.59,2.8.27.62.5,1.24.71,1.87Z" />
    <path class="cls-3"
      d="M114.15,45.02c-.18-.06-.35-.12-.52-.18-.15-.32-.32-.65-.53-.97-.01-.03-.03-.07-.04-.1-.12-.28-.26-.54-.44-.81.01,0,.04,0,.06.01.54.66,1.05,1.34,1.47,2.05Z" />
    <path class="cls-3" d="M114.15,98.48c-.38.46-1.02.15-1-.32.34.09.68.21,1,.32Z" />
    <path class="cls-3"
      d="M113.63,44.84c-.18-.06-.35-.12-.53-.19.12-.19.15-.43.06-.65-.01-.04-.03-.09-.06-.13.21.32.38.65.53.97Z" />
    <path class="cls-3"
      d="M113.16,44c.09.22.06.46-.06.65-.28-.09-.56-.18-.84-.28-.31-.1-.5-.37-.5-.68.06-.09.15-.16.24-.22.35-.22.8-.12,1.02.24.01.01.03.04.04.06.01.03.03.07.04.1.03.04.04.09.06.13Z" />
    <path class="cls-3"
      d="M112.26,44.37c.28.1.56.19.84.28-.06.13-.19.24-.35.29-.13.06-.28.07-.4.04-.21-.32-.46-.63-.71-.94.01-.12.06-.25.12-.35,0,.31.19.57.5.68Z" />
    <path class="cls-3"
      d="M113.06,43.77s-.03-.04-.04-.06c-.22-.35-.66-.46-1.02-.24-.09.06-.18.13-.24.22,0-.09.01-.18.04-.27.12-.34.47-.53.81-.47.18.27.32.53.44.81Z" />
    <path class="cls-3" d="M112.68,42.97s-.04-.01-.06-.01c-.06-.09-.13-.19-.19-.28.09.1.18.19.25.29Z" />
    <path class="cls-3"
      d="M112.62,42.96c-.34-.06-.69.13-.81.47-.03.09-.04.18-.04.27-.06.1-.1.24-.12.35-.15-.18-.29-.37-.44-.54-.09-.12-.19-.22-.29-.32-.09-.1-.19-.21-.29-.29-1.25-1.3-2.74-2.47-4.42-3.48.25.04.49.1.74.16,2.08.53,3.67,1.3,4.77,2.33.03.03.06.06.09.07.21.22.41.44.6.68.01,0,.01.01.03.03.06.09.13.19.19.28Z" />
    <path class="cls-3" d="M112.4,42.65c-.19-.24-.4-.46-.6-.68.22.22.43.44.6.68Z" />
    <path class="cls-3"
      d="M112.41,76.56c-.07.07-.24.25-.49.53-.35.37-.82.91-1.38,1.59-1.1,1.38-2.52,3.37-3.68,5.73-1.18,2.36-2.15,5.04-2.69,7.58-.5,2.22-.71,4.32-.78,5.95-.37.07-.74.15-1.1.22.06-1.72.32-3.99.97-6.39.66-2.59,1.8-5.3,3.12-7.63,1.31-2.33,2.84-4.26,4.03-5.58.6-.65,1.1-1.16,1.47-1.5.28-.25.46-.43.53-.5Z" />
    <path class="cls-3"
      d="M112.35,44.99c-.18-.03-.34-.12-.44-.27-.04-.07-.1-.16-.15-.24-.03-.06-.06-.12-.09-.19-.01-.09-.03-.16-.03-.25.25.31.5.62.71.94Z" />
    <path class="cls-3" d="M111.64,44.05c0,.09.01.16.03.25-.12-.28-.28-.54-.47-.8.15.18.29.37.44.54Z" />
    <path class="cls-3"
      d="M111.7,41.9c-1.1-1.03-2.7-1.8-4.77-2.33-.25-.06-.49-.12-.74-.16-1.56-.94-3.27-1.72-5.11-2.33-.25-.07-.49-.15-.74-.22.47-.16.47-1.06-.12-1.08-1.31-.06-2.95,0-4.74.25-.46-.03-.9-.04-1.35-.04-4.09,0-8.19,1.09-11.71,3.2-5.07,3.03-8.31,6.64-10.19,11.37-2.37,5.96-1.16,11.32,3.43,15.09,2.56,2.09,5.27,3.78,8.03,5.04l-.04.09c-1.75-.53-4.42-1.46-7.11-2.59-.62-.44-1.22-.91-1.81-1.4-5.12-4.21-6.49-10.18-3.86-16.77,2-5.04,5.43-8.88,10.79-12.09,2.87-1.72,6.13-2.8,9.45-3.21.53.32,1.08.63,1.62.93.35.19.8.06,1-.29.15-.26.1-.59-.09-.81,2.67-.06,5.35.32,7.89,1.15,4.04,1.31,7.57,3.51,10.16,6.21Z" />
    <path class="cls-3" d="M111.2,43.5c-.1-.1-.21-.22-.29-.32.1.1.21.21.29.32Z" />
    <path class="cls-3"
      d="M106.2,39.41c1.68,1,3.17,2.18,4.42,3.48-.93-.81-2.27-1.44-4.03-1.88-.01,0-.03-.01-.04-.01-.26-.41-.54-.81-.87-1.19-.25-.31-.72-.35-1.03-.09-.27.22-.34.57-.19.87-5.7-.94-11.69.03-16.77,2.78-1.02.54-1.99,1.16-2.92,1.84t-.01-.03c-.15-.38-.56-.57-.94-.44-.38.15-.59.56-.44.94.06.16.12.32.19.47-3.11,2.56-5.61,5.82-7.29,9.47-.06-.04-.1-.1-.15-.15-.27-.29-.74-.32-1.03-.04-.31.27-.32.74-.06,1.03.21.22.4.44.62.66-.1.25-.19.52-.28.77-.1.31-.38.5-.69.5-.07,0-.16-.01-.24-.04-.38-.13-.59-.54-.46-.93,2.22-6.49,6.97-12.08,13-15.35,5.8-3.14,12.77-4.09,19.22-2.65Z" />
    <path class="cls-3" d="M107.84,107.98s.03.04.09.15c-.06-.1-.09-.15-.09-.15Z" />
    <path class="cls-3"
      d="M106.53,40.99c2.27,3.56,2.22,8.11-.22,11.07-1.9,2.31-5.15,3.59-8.63,3.59-1.34,0-2.71-.19-4.05-.59-4.51-1.34-8.42-4.82-10.09-8.92.4-.32.8-.63,1.21-.94,1.38,3.83,5.12,7.22,9.29,8.45,4.27,1.28,8.85.24,11.13-2.53,2.28-2.75,2-7.22-.63-10.38-.04-.04-.07-.1-.1-.16.71.1,1.4.24,2.09.41Z" />
    <path class="cls-3"
      d="M105.67,39.79c.32.38.6.78.87,1.19-.69-.18-1.38-.31-2.09-.41-.15-.29-.07-.65.19-.87.31-.27.78-.22,1.03.09Z" />
    <path class="cls-3"
      d="M103.38,97.95c0,.24-.01.46-.01.66-.01.5-1.12.52-1.1-.03,0-.13,0-.27.01-.41.37-.07.74-.15,1.1-.22Z" />
    <path class="cls-3" d="M100.23,35.79c.59.01.59.91.12,1.08-1.59-.46-3.21-.74-4.86-.82,1.8-.25,3.43-.31,4.74-.25Z" />
    <path class="cls-3"
      d="M100.35,36.86s-.1.03-.16.03c-2.06-.1-4.95.04-8.03.78-3.08.71-6.27,2.08-8.97,3.78-2.74,1.66-4.87,3.73-6.3,5.33-.69.82-1.24,1.5-1.58,2-.25.37-.43.6-.52.71.07-.09.24-.35.47-.72.32-.53.84-1.24,1.49-2.09,1.35-1.68,3.42-3.87,6.13-5.7,2.68-1.84,5.91-3.39,9.06-4.21,1.22-.34,2.42-.57,3.55-.74,1.65.09,3.27.37,4.86.82Z" />
    <path class="cls-3"
      d="M98.67,100.75c.93,2.31,2.37,6.61,2.37,6.61,0,0-2.31-4.02-3.39-6.24.32-.13.68-.25,1.02-.37Z" />
    <path class="cls-3"
      d="M98.38,100.05c.09.21.19.43.29.69-.34.12-.69.24-1.02.37-.1-.22-.21-.43-.28-.6-.07-.15.93-.6,1-.46Z" />
    <path class="cls-3"
      d="M95.99,139.24c.19,1.15.28,2.52.21,3.98-.09,2.08-.57,4.3-1.3,6.23-.72,1.94-1.71,3.58-2.52,4.68-.4.56-.75.99-1,1.28-.19.21-.32.35-.37.41.04-.06.16-.21.32-.44.24-.31.54-.77.91-1.34.71-1.16,1.56-2.83,2.12-4.77.38-1.27.66-2.64.8-3.99.65-1.87.87-3.93.82-6.04Z" />
    <path class="cls-3"
      d="M95.99,139.24c.04,2.11-.18,4.17-.82,6.04.04-.35.06-.71.07-1.06.04-.12.06-.24.01-.37.01-.22.01-.44.01-.65,0-1.99-.31-3.78-.62-5.04-.09-.37.97-.66,1.07-.25.1.4.19.84.27,1.33Z" />
    <path class="cls-3"
      d="M95.99,139.24c-.07-.49-.16-.93-.27-1.33-.1-.41-1.16-.12-1.07.25.31,1.25.62,3.05.62,5.04,0,.21,0,.43-.01.65.01-.03,0-.07-.01-.1-.13-.38-.56-.59-.94-.46-.04.01-.07.03-.12.04.97-4.61-.28-10.31-1.25-14.76l-.12-.56c.49-.1.97-.18,1.44-.24l.1.47c.72,3.28,1.59,7.22,1.63,10.99Z" />
    <path class="cls-3" d="M95.25,143.85c.04.13.03.25-.01.37.01-.13.01-.25.01-.37Z" />
    <path class="cls-3"
      d="M95.24,143.75s.03.07.01.1c0,.12,0,.24-.01.37-.07.22-.24.4-.46.47-.37.13-.74.25-1.1.38.22-.56.38-1.13.5-1.74.04-.01.07-.03.12-.04.38-.13.81.07.94.46Z" />
    <path class="cls-3"
      d="M95.24,144.22c-.01.35-.03.71-.07,1.06-.31.94-.74,1.84-1.3,2.67-1.22,1.83-2.87,3.3-4.45,4.73l-.44.41c-5.14,4.64-7.78,9.12-8.54,14.54-.4,2.8-.15,5.66.69,8.34l-.24.07s-.03-.09-.06-.15c-.16-.37-.6-.53-.97-.37-.1.04-.22.1-.32.15-.75-2.68-.96-5.49-.56-8.26.82-5.76,3.61-10.51,9.01-15.42l.44-.4c1.52-1.37,3.09-2.78,4.21-4.46.43-.63.77-1.33,1.03-2.05.37-.13.74-.25,1.1-.38.22-.07.38-.25.46-.47Z" />
    <path class="cls-3"
      d="M94.16,127.39l.09.4c-.47.06-.96.13-1.44.24l-.07-.32c-.09-.4.16-.78.56-.87.4-.09.78.16.87.56Z" />
    <path class="cls-3"
      d="M94.18,143.34c-.12.6-.28,1.18-.5,1.74-3.3,1.13-6.7,2.24-10.26,2.61-.75.07-1.47.1-2.18.1-3.02,0-5.64-.71-8.09-2.21.06.03.1.03.16.03.22,0,.43-.1.57-.28.21-.25.22-.6.03-.87-.04-.07-.09-.13-.12-.21,2.75,1.72,5.79,2.34,9.47,1.96,3.74-.4,7.39-1.65,10.91-2.87Z" />
    <path class="cls-3"
      d="M93.65,34.53c.19.22.24.54.09.81-.21.35-.65.49-1,.29-.54-.29-1.09-.6-1.62-.93.84-.1,1.68-.18,2.53-.18Z" />
    <path class="cls-3"
      d="M93.44,34.34c.09.04.16.12.21.19-.85,0-1.69.07-2.53.18-4.18-2.37-8.23-5.02-12.09-7.85l-.81-.6c-3.24-2.4-6.58-4.87-10.44-5.48-6.69-1.05-12.56,4.21-14.4,9.88-.77,2.37-.97,4.95-1.18,7.44l-.1,1.22c-.03.29-.06.59-.09.88-.56.18-1.08.43-1.55.75.06-.59.12-1.18.16-1.77l.1-1.21c.22-2.58.43-5.24,1.25-7.78,2.03-6.26,8.59-12.03,16.02-10.88,4.23.66,7.72,3.25,11.09,5.76l.82.6c3.42,2.52,7.02,4.89,10.72,7.05-.22.04-.43.24-.5.47-.13.38.07.8.46.93.91.31,1.84.32,2.72.13.04.03.09.04.13.07Z" />
    <path class="cls-3"
      d="M93.31,34.27c-.88.19-1.81.18-2.72-.13-.38-.13-.59-.54-.46-.93.07-.24.28-.43.5-.47.88.53,1.78,1.03,2.68,1.53Z" />
    <path class="cls-3"
      d="M91.38,110.89s.21,3.14-.13,6.88c-.28,3.36-1.09,7.16-1.86,9.59h-.01c-.44.12-.88.26-1.31.43.81-2.27,2.05-6.41,2.62-10.07.63-3.68.69-6.82.69-6.82Z" />
    <path class="cls-3" d="M88.07,127.78c.43-.16.87-.31,1.31-.43-.09.28-.18.54-.27.8-.12.35-1.16-.01-1.05-.35h0Z" />
    <path class="cls-3" d="M87.48,104.74c.1.32-.78.62-1,.4.29-.22.6-.44.91-.66.04.09.06.18.09.27Z" />
    <path class="cls-3"
      d="M87.39,104.47c-.31.22-.62.44-.91.66-.03-.03-.04-.04-.04-.07-.68-2.36-2.16-6.47-3.99-9.76-1.66-3.12-3.49-5.52-3.71-5.82.24.27,2.27,2.5,4.18,5.54,2.02,3.08,3.74,7.01,4.48,9.45Z" />
    <path class="cls-3"
      d="M84.74,45.17s0,.01.01.03c-.41.31-.81.62-1.21.94-.07-.15-.13-.31-.19-.47-.15-.38.06-.8.44-.94.38-.13.8.06.94.44Z" />
    <path class="cls-3"
      d="M83.65,70.78c.4.12.07,1.18-.32,1.05-.63-.19-1.37-.44-2.18-.75-1.56-.82-3.11-1.78-4.61-2.89,2.7,1.13,5.36,2.06,7.11,2.59Z" />
    <path class="cls-3"
      d="M80.9,176.03c.07.34-.09.68-.41.82-.18.07-.34.16-.52.22-.16-.46-.31-.93-.43-1.41.1-.04.22-.1.32-.15.37-.16.81,0,.97.37.03.06.04.1.06.15Z" />
    <path class="cls-3" d="M79.54,113.04c.56.26.12,1.25-.46,1.02-.01,0-.03-.01-.04-.01.15-.34.31-.68.5-1Z" />
    <path class="cls-3"
      d="M79.54,175.66c.12.49.27.96.43,1.41-6.17,2.75-13.56,4.2-21.97,4.32h-.31c-8.28.01-14.06-4.51-15.52-12.13-.99-5.15.26-10.78,3.33-15.05,2.36-3.25,7.25-5.39,11.56-7.26,1.56-.68,3.02-1.31,4.24-1.96.8-.4,1.21-1.06,1.13-1.74-.09-.72-.72-1.31-1.63-1.55-.75-.18-1.72.03-2.77.25-.97.21-1.99.41-2.95.32-5.21-.49-8.62-3.11-9.9-7.57.56.18,1.13.34,1.71.49,1.61,4.12,5.35,5.35,8.32,5.63.75.07,1.65-.13,2.52-.31,1.15-.24,2.34-.5,3.42-.24,1.53.38,2.58,1.46,2.74,2.8.16,1.3-.57,2.53-1.9,3.23-1.27.66-2.77,1.31-4.34,2-4.14,1.8-8.84,3.84-10.94,6.77-2.84,3.93-4.01,9.13-3.09,13.9,1.35,7.07,6.61,11.07,14.37,10.94,8.29-.1,15.54-1.53,21.56-4.26Z" />
    <path class="cls-3"
      d="M79.53,113.04h.01c-.19.32-.35.66-.5,1-1.87-.82-4.54-1.83-7.53-2.69-3.02-.88-6.38-1.59-9.51-2.06-3.12-.47-6.04-.71-8.16-.8-1.06-.06-1.93-.07-2.52-.09-.6,0-.94-.01-.94-.01,0,0,.34,0,.94-.03.59-.03,1.46-.04,2.52-.04,2.14,0,5.07.09,8.23.43,3.18.34,6.6.91,9.68,1.71,3.09.78,5.86,1.75,7.78,2.59Z" />
    <path class="cls-3"
      d="M81.15,71.07c-2.59-.97-5.88-2.49-8.63-4.14-3.43-2-6.04-4.08-6.35-4.33.34.22,3.11,2.09,6.61,3.84,1.19.62,2.47,1.21,3.76,1.74,1.5,1.1,3.05,2.06,4.61,2.89Z" />
    <path class="cls-3" d="M77.52,118.68c.35.25.28.93-.22,1,.06-.34.13-.66.22-1Z" />
    <path class="cls-3"
      d="M77.02,122.56c.21-.09.65.93.44,1.02-.28.12-.62.25-.99.41.09-.44.16-.87.24-1.3.1-.04.21-.09.31-.13Z" />
    <path class="cls-3"
      d="M77.2,118.59c.13-.01.25.03.32.09-.09.34-.16.66-.22,1-.01.01-.03.01-.04.01-4.55.19-12.67.84-19.56,2.03-6.04.99-11.15,2.27-12.34,2.56,1.16-.37,6.2-1.89,12.24-3.11,6.86-1.46,15.01-2.4,19.6-2.59Z" />
    <path class="cls-3"
      d="M76.71,122.69c-.07.43-.15.85-.24,1.3,0,0,0,.01-.01.01-1.33.59-3.09,1.43-4.59,2.33-1.81,1.05-3.24,2.12-3.42,2.25.15-.16,1.41-1.43,3.11-2.71,1.65-1.3,3.77-2.55,5.15-3.18Z" />
    <path class="cls-3"
      d="M76.11,55.46s.09.1.15.15c-.22.5-.43,1-.62,1.5-.22-.22-.41-.44-.62-.66-.27-.29-.25-.77.06-1.03.29-.28.77-.25,1.03.04Z" />
    <path class="cls-3"
      d="M73.91,144.46c.19.26.18.62-.03.87-.15.18-.35.28-.57.28-.06,0-.1,0-.16-.03-.22-.12-.44-.25-.65-.4-.34-.22-.43-.68-.21-1.02.24-.34.69-.43,1.03-.21.16.1.31.21.47.29.03.07.07.13.12.21Z" />
    <path class="cls-3"
      d="M73.69,133.75c.01.21-.06.4-.19.54-.13.13-.29.21-.5.22-.69.04-1.4.09-2.09.12.27-.25.56-.5.84-.75.22-.19.46-.38.68-.59.07-.07.16-.15.24-.22.09,0,.16-.01.25-.01.41-.04.75.28.78.69Z" />
    <path class="cls-3"
      d="M70.78,136.22c.01.41-.28.77-.69.8-.31.01-.62.03-.96.06.22-.59.53-1.09.91-1.53h.01c.38.01.69.29.72.68Z" />
    <path class="cls-3"
      d="M70.04,135.55c-.38.44-.69.94-.91,1.53-1.49.07-3.2.13-5.05.13-5.11,0-11.31-.44-17.19-2.02-.13-.34-.25-.69-.35-1.06-.07-.25-.25-.43-.47-.5l.04-.18c8.57,2.55,18.16,2.47,23.87,2.09h.06Z" />
    <path class="cls-3" d="M62.46,78.42s-.04.06-.07.1c.03-.04.06-.09.07-.1Z" />
    <path class="cls-3"
      d="M62.38,78.52c-.04.1-.13.22-.22.4-.19.34-.49.82-.87,1.41-.77,1.15-1.91,2.7-3.39,4.18-1.47,1.49-3.24,2.93-5.02,4.05-.8.5-1.58.94-2.33,1.31,1.75-.97,3.14-2.15,4.12-3.53.01,0,.01-.01.01-.01,1-.66,1.96-1.41,2.83-2.21,1.55-1.35,2.78-2.8,3.64-3.89.41-.56.75-1,.96-1.34.1-.15.19-.28.26-.37Z" />
    <path class="cls-3"
      d="M61.12,44.96c.03,1.4-.78,2.59-1.5,3.49-1.52,1.87-3.05,3.15-4.68,3.87-.96.43-2.16.72-3.33.72-.56,0-1.09-.07-1.59-.24.07-.34.15-.66.22-1,.03-.19,0-.38-.12-.54.04.01.07.04.12.06,1.08.5,2.87.21,4.09-.34,1.41-.63,2.77-1.77,4.14-3.46.59-.74,1.21-1.62,1.18-2.53-.01-.75-.5-1.55-1.3-2.11-.07-.06-.16-.12-.25-.16l-.12-.15c-.77-.93-1.71-2.09-2.97-2.56-.07-.03-.16-.04-.24-.04h0c1.71.18,3.33.94,4.43,1.72,1.16.82,1.88,2.05,1.91,3.27Z" />
    <path class="cls-3"
      d="M58.14,42.77c.24.29.88,1.07.59,1.99-.16.49-.54.8-.8.99-.44.37-.88.77-1.34,1.18-.99.88-1.99,1.81-3.15,2.4-1.06.52-2.22.8-3.39.8-.27,0-.52-.01-.78-.04-.15-.5-.24-1.02-.29-1.53,1.27.22,2.64.03,3.8-.54.97-.49,1.91-1.34,2.83-2.16.47-.43.94-.85,1.41-1.24.09-.07.28-.22.31-.29,0,0,.04-.15-.32-.59l-.18-.21c-.68-.82-1.43-1.75-2.31-2.11,1.3.13,2.59.68,3.58,1.33l.04.04Z" />
    <path class="cls-3"
      d="M57.98,42.58l.12.15c-.99-.65-2.28-1.19-3.58-1.33h-.01c-.38-.13-.57-.56-.44-.94.12-.29.4-.49.71-.49.07,0,.16.01.24.04,1.27.47,2.21,1.63,2.97,2.56Z" />
    <path class="cls-3"
      d="M55.51,75.37c1.02,1.3,1.43,2.83,1.43,4.4,0,2.12-.77,4.31-1.87,6.05-.12.18-.22.34-.37.5,0,0,0,.01-.01.01-2.5,1.71-5.21,2.97-7,3.58-.37.13-.01,1.18.38,1.03.65-.22,1.41-.54,2.22-.94-1.16.62-2.49,1.15-3.98,1.58-2.84.82-5.52,1.24-8.11,1.24-.56,0-1.12-.01-1.66-.06-.77-.04-1.63-.15-2.4-.62-.21-.13-.38-.27-.56-.44.19-.4.4-.8.6-1.21.04-.09.06-.19.07-.28.18.28.4.52.66.68.47.29,1.13.37,1.71.41,2.96.19,5.99-.18,9.28-1.13,3.77-1.09,6.44-2.81,7.91-5.14,1.66-2.58,2.47-6.29.54-8.76-1.28-1.62-3.37-2.78-5.92-3.28-.12-.03-.25-.04-.37-.07-.38-.22-.77-.41-1.16-.57-1.05-.44-2.08-.68-2.99-.78.07-.16.15-.32.21-.49,1.53-.04,3.11.18,4.59.47,2.9.57,5.3,1.93,6.79,3.83Z" />
    <path class="cls-3"
      d="M52.31,40.1c.8-.22,1.63-.25,2.46-.15h0c-.31.01-.59.21-.71.5-.13.38.06.81.44.94-.13-.01-.27-.03-.4-.01-.03-.15-.07-.29-.13-.44-.75.04-1.46.15-2.08.35.04-.37.07-.72.1-1.09.1-.04.21-.07.31-.1Z" />
    <path class="cls-3"
      d="M54.11,41.38c.31,1.19.07,2.44-.66,3.52-.4.56-.94,1.09-1.71,1.37-1.38.52-2.24.09-2.61-.66.15-.65.37-1.24.66-1.77.65-1.18,1.63-1.96,2.92-2.31.44-.12.91-.18,1.4-.15Z" />
    <path class="cls-3"
      d="M54.11,41.38c-.49-.03-.96.03-1.4.15-1.28.35-2.27,1.13-2.92,2.31-.29.53-.52,1.12-.66,1.77-.19-.4-.25-.9-.18-1.38.18-1.03.77-1.83,1.66-2.39.12.12.27.21.46.24.03,0,.06.01.07.01.38,0,.69-.28.74-.66,0-.04.01-.09.01-.13.62-.21,1.33-.31,2.08-.35.06.15.1.29.13.44Z" />
    <path class="cls-3"
      d="M47.69,89.92c1.78-.6,4.49-1.87,7-3.58-.99,1.38-2.37,2.56-4.12,3.53-.09.04-.18.09-.27.13-.81.4-1.58.72-2.22.94-.4.15-.75-.9-.38-1.03Z" />
    <path class="cls-3"
      d="M53.24,79.58c.29,1.1.32,1.83.32,1.83,0,0-.1-.71-.49-1.78-.4-1.06-1.12-2.47-2.28-3.68-1.12-1.24-2.68-2.21-4.23-2.74-1.19-.41-2.36-.57-3.31-.59,1.56-.19,3.22,0,4.82.29,1.21.68,2.34,1.62,3.15,2.67,1.1,1.38,1.72,2.89,2.02,4.01Z" />
    <path class="cls-3"
      d="M52,40.2c-.03.37-.06.72-.1,1.09-.47.13-.91.32-1.28.54-.15-.15-.22-.35-.19-.57.01-.1.01-.21.03-.31.47-.32.99-.57,1.55-.75Z" />
    <path class="cls-3"
      d="M51.9,41.29s-.01.09-.01.13c-.04.38-.35.66-.74.66-.01,0-.04-.01-.07-.01-.19-.03-.34-.12-.46-.24.37-.22.81-.41,1.28-.54Z" />
    <path class="cls-3"
      d="M46.98,76.26c2.12,1.93,4.08,5.79,3.71,8.91-.04.37-.35.65-.72.65-.03,0-.06,0-.09-.01-.4-.04-.69-.41-.65-.81.01-.1.03-.22.01-.32.27-.04.47-.13.66-.25.34-.24.43-.69.21-1.03-.22-.32-.65-.41-.97-.22-.38-2.21-1.75-4.55-3.15-5.82-.18-.16-.37-.31-.57-.44.07-.16.15-.35.22-.53.16-.37-.03-.8-.41-.94-.37-.16-.8.03-.94.4-.06.13-.1.26-.18.4-1.78-.71-3.92-.71-5.63-.29.03-.16.04-.32.06-.5,0-.12,0-.24.01-.28.06-.15.19-.27.37-.41.1-.1.22-.19.32-.29.06-.06.12-.12.19-.18,2.43-.29,5.43.07,7.54,1.99Z" />
    <path class="cls-3"
      d="M50.62,41.84c-.9.56-1.49,1.35-1.66,2.39-.07.49-.01.99.18,1.38-.21.91-.25,1.91-.15,2.93-.09-.01-.16-.03-.25-.04-.4-.09-.8.16-.88.56-.09.38.16.78.56.87.28.07.57.12.87.15.01.07.04.13.06.21.09.27.21.5.38.68-.01-.01-.04-.03-.06-.03-.4-.07-.78.18-.87.57-.03.16-.07.34-.12.5-.34-.35-.6-.8-.75-1.31-.78-2.62-.56-5.52.57-7.57.5-.9,1.15-1.62,1.96-2.16-.01.1-.01.21-.03.31-.03.22.04.43.19.57Z" />
    <path class="cls-3"
      d="M50.12,51.26c.12.16.15.35.12.54-.07.34-.15.66-.22,1-.13-.04-.26-.09-.4-.15-.35-.16-.68-.38-.94-.66.04-.16.09-.34.12-.5.09-.4.47-.65.87-.57.01,0,.04.01.06.03.12.13.25.22.4.31Z" />
    <path class="cls-3"
      d="M50.12,83.38c.22.34.13.8-.21,1.03-.19.12-.4.21-.66.25.04-.49,0-.97-.1-1.49h0c.32-.21.75-.12.97.21Z" />
    <path class="cls-3"
      d="M49.62,52.66c.13.06.27.1.4.15-.44,2.03-.96,4.04-1.53,6.04h-.06c.04-.16.04-.32-.01-.49-.15-.38-.57-.59-.94-.44-.1.03-.19.07-.29.1.57-1.99,1.08-4.01,1.5-6.02.27.28.59.5.94.66Z" />
    <path class="cls-3" d="M50.12,51.26c-.15-.09-.28-.18-.4-.31.18.04.32.16.4.31Z" />
    <path class="cls-3"
      d="M49.14,83.18c.1.52.15,1,.1,1.49-.16.03-.35.04-.56.04-1.05,0-2.55-.35-4.74-.91-3.39-.84-8-2-10.21-.85.01-.03.01-.07.03-.1.1-.12.19-.24.28-.35.03-.04.06-.09.09-.12.1-.07.21-.16.27-.28.19-.34.38-.68.59-1,.4-.07.82-.1,1.27-.1.69.72,1.72,1.18,2.67,1.18.07,0,.16,0,.25-.01.66-.06,1.34-.24,1.97-.53,1.08.24,2.15.5,3.17.75,1.81.46,4.29,1.08,4.79.82.01-.01.03-.01.04-.01Z" />
    <path class="cls-3"
      d="M49.28,50.07c-.29-.03-.59-.07-.87-.15-.4-.09-.65-.49-.56-.87.09-.4.49-.65.88-.56.09.01.16.03.25.04.06.52.15,1.03.29,1.53Z" />
    <path class="cls-3"
      d="M48.42,58.83h.06c-1.19,4.18-2.65,8.28-4.36,12.24-.56,0-1.1.06-1.65.16,1.62-3.73,3.02-7.55,4.18-11.46.44-.16.87-.31,1.31-.47.22-.09.38-.26.46-.47Z" />
    <path class="cls-3"
      d="M48.41,58.36c.06.16.06.32.01.47-.07.21-.24.38-.46.47-.44.16-.87.31-1.31.47.19-.57.35-1.16.52-1.75.1-.03.19-.07.29-.1.37-.15.8.06.94.44Z" />
    <path class="cls-3"
      d="M46.91,72.34c.4.16.78.35,1.16.57-1.59-.29-3.25-.49-4.82-.29-.01-.01-.03-.01-.04,0,.19-.06.34-.21.43-.4.1-.22.19-.44.28-.66.91.1,1.94.34,2.99.78Z" />
    <path class="cls-3"
      d="M47.17,58.02c-.16.59-.32,1.18-.52,1.75-9.48,3.45-19.25,7.05-28.44,11.47-4.01,1.91-8.45,4.3-10.56,8.39-1.27,2.44-1.43,5.49-.43,8.36,1.02,2.93,3.09,5.29,5.7,6.46,1.06.47,2.27.84,3.43,1.18,2.81.84,5.71,1.72,7.19,4.33.99,1.75.94,3.71.91,5.63-.01.49-.01.96-.01,1.44.04,1.84.62,3.96,2.11,4.77,0,.54.03,1.09.07,1.62-.03,0-.04,0-.07-.01-2.18-.71-3.5-3.09-3.58-6.35,0-.5,0-1,.01-1.5.03-1.78.06-3.48-.72-4.87-1.18-2.09-3.68-2.84-6.33-3.64-1.21-.37-2.46-.74-3.61-1.25-2.97-1.34-5.33-4.02-6.48-7.33-1.13-3.24-.94-6.72.5-9.51,2.21-4.27,6.7-6.88,11.24-9.06,9.59-4.59,19.73-8.31,29.59-11.88Z" />
    <path class="cls-3"
      d="M46.54,134.13c.1.37.22.72.35,1.06-.57-.15-1.15-.31-1.71-.49-.03-.06-.04-.13-.06-.19-.1-.38.12-.8.52-.9.15-.04.29-.03.43.01.22.07.4.25.47.5Z" />
    <path class="cls-3"
      d="M46.11,133.45l-.04.18c-.13-.04-.28-.06-.43-.01-.4.1-.62.52-.52.9.01.06.03.13.06.19-8.84-2.74-16.6-8.25-18.31-18.95-.07-.47-.15-.96-.19-1.44-.03-.29-.06-.57-.06-.87.04.03.1.03.15.03.31,0,.6-.21.71-.5.12-.4-.09-.81-.47-.94-.16-.06-.32-.12-.46-.21-.04-5.42,1.38-11.3,4.32-17.85.53-1.16,1.1-2.37,1.75-3.68.25.54.56,1.03.96,1.41-.5,1-.96,1.96-1.35,2.87-3.3,7.33-4.62,13.74-4.06,19.6.04.44.1.9.18,1.35,1.62,10.18,9.19,15.37,17.78,17.92Z" />
    <path class="cls-3"
      d="M45.23,75.43c.38.15.57.57.41.94-.07.18-.15.37-.22.53-.4-.28-.84-.52-1.31-.68.07-.13.12-.27.18-.4.15-.37.57-.56.94-.4Z" />
    <path class="cls-3"
      d="M44.11,76.23c.47.16.91.4,1.31.68-.57,1.31-1.3,2.4-2.14,3.23-.65.63-1.37,1.13-2.14,1.49-1.68-.35-3.37-.63-4.89-.63-.04-.03-.07-.07-.1-.1-.22-.25-.4-.53-.53-.82.41-.66.82-1.28,1.24-1.84,0,.03,0,.06-.01.09-.13.6,0,1.15.41,1.61.5.56,1.28.81,1.78.77,1.13-.09,2.27-.66,3.2-1.59.74-.72,1.37-1.68,1.87-2.86Z" />
    <path class="cls-3"
      d="M40.47,85.09c2.55.47,4.57,1.33,4.8,1.43-.25-.07-2.34-.68-4.89-.88-2.43-.25-5.23-.01-7,.27,0-.38.01-.75.04-1.12,1.86-.22,4.65-.18,7.04.31Z" />
    <path class="cls-3"
      d="M44.12,71.07c-.06.16-.13.32-.21.49-.54-.06-1.05-.06-1.49-.04-.04,0-.07.01-.1.04.04-.1.1-.22.15-.32.54-.1,1.09-.16,1.65-.16Z" />
    <path class="cls-3"
      d="M43.92,71.56c-.09.22-.18.44-.28.66-.09.19-.24.34-.43.4h-.01c-.18-.01-.34-.01-.5,0-.01,0-.01-.01-.03-.01-.37-.16-.53-.6-.37-.97.01-.03.01-.04.03-.07.03-.03.06-.04.1-.04.44-.01.94-.01,1.49.04Z" />
    <path class="cls-3" d="M42.69,72.62c.16-.01.32-.01.5,0-.09,0-.19.01-.28.04-.06,0-.15-.01-.22-.04Z" />
    <path class="cls-3" d="M43.19,72.62c-.07.03-.15.04-.24.04h-.04c.09-.03.19-.04.28-.04Z" />
    <path class="cls-3"
      d="M32.97,81.68c-.06.04-.12.09-.16.13l-.06-.04s.06-.09.09-.13c.1-.13.22-.29.37-.43,1.3-2.27,2.58-4.15,3.84-5.64,0-.06.01-.13.01-.21.01-.29.03-.59.15-.84.19-.41.5-.68.74-.9.09-.06.16-.13.24-.21,1.24-1.27,2.72-1.91,4.29-2.18-.04.1-.1.22-.15.32-.24.21-.13,1.08.15,1.06.07,0,.15-.01.22,0,.07.03.16.04.22.04-1.3.19-2.49.68-3.48,1.61-.54.07-1.05.16-1.52.28-.4.1-.63.52-.53.9.1.4.52.63.9.53.06-.01.12-.03.19-.04-.03.18-.1.34-.22.49-.46.54-.93,1.13-1.4,1.8.03-.37-.22-.71-.59-.8-.38-.07-.78.18-.87.57-.15.72-.07,1.44.22,2.06-.22.32-.43.68-.63,1.03-.74.07-1.41.27-1.99.57-.01,0-.03.01-.03.01Z" />
    <path class="cls-3"
      d="M42.66,72.6s.01.01.03.01c-.07-.01-.15,0-.22,0-.28.01-.38-.85-.15-1.06-.01.03-.01.04-.03.07-.16.37,0,.81.37.97Z" />
    <path class="cls-3"
      d="M41.15,81.62c-.63.29-1.31.47-1.97.53-.09.01-.18.01-.25.01-.94,0-1.97-.46-2.67-1.18,1.52,0,3.21.28,4.89.63Z" />
    <path class="cls-3"
      d="M39.44,74.27c-.07.06-.13.12-.19.18-.1.1-.22.19-.32.29-.18.15-.31.27-.37.41-.01.04-.01.16-.01.28-.01.18-.03.34-.06.5-.07.01-.13.03-.19.04-.38.1-.8-.13-.9-.53-.1-.38.13-.8.53-.9.47-.12.97-.21,1.52-.28Z" />
    <path class="cls-3"
      d="M36.27,77.42c.37.09.62.43.59.8-.41.56-.82,1.18-1.24,1.84-.29-.62-.37-1.34-.22-2.06.09-.4.49-.65.87-.57Z" />
    <path class="cls-3"
      d="M34.99,81.09c-.21.32-.4.66-.59,1-.06.12-.16.21-.27.28-.03.03-.06.07-.09.12-.09.12-.18.24-.28.35-.01.03-.01.07-.03.1-.01,0-.03.01-.04.01-.35.21-.8.06-1-.29-.15-.28-.1-.63.12-.85.04-.04.1-.09.16-.13,0,0,.01-.01.03-.01.57-.31,1.25-.5,1.99-.57Z" />
    <path class="cls-3" d="M33.9,89.54c.24.13.37.4.35.68-.13-.21-.25-.43-.35-.68Z" />
    <path class="cls-3"
      d="M34.26,90.22c-.01.09-.03.19-.07.28-.21.41-.41.81-.6,1.21-.4-.38-.71-.87-.96-1.41.07-.15.16-.29.24-.46.19-.37.63-.52,1-.32.01.01.03.01.04.03.1.25.22.47.35.68Z" />
    <path class="cls-3"
      d="M33.9,89.54s-.03-.01-.04-.03c-.37-.19-.81-.04-1,.32-.07.16-.16.31-.24.46-1.1-2.46-.78-6.2-.19-8.11.04-.18.18-.32.32-.41l.06.04c-.22.22-.26.57-.12.85.21.35.65.5,1,.29.01,0,.03-.01.04-.01-.13.53-.24,1.16-.31,1.84-.28.04-.53.07-.75.12-.28.04-.09,1.12.18,1.09.16-.03.34-.06.53-.09-.03,1.3.12,2.64.52,3.64Z" />
    <path class="cls-3"
      d="M33.43,84.78c-.03.37-.04.74-.04,1.12-.19.03-.37.06-.53.09-.27.03-.46-1.05-.18-1.09.22-.04.47-.07.75-.12Z" />
    <path class="cls-3"
      d="M27.01,112.03c.38.13.59.54.47.94-.1.29-.4.5-.71.5-.04,0-.1,0-.15-.03-.04-.53-.07-1.07-.07-1.62.13.09.29.15.46.21Z" />
    <path class="cls-6"
      d="M64.87,171.75c-.87,0-1.64-.62-1.81-1.51l-2.57-13.96c-.18-1,.48-1.96,1.48-2.14,1-.18,1.96.48,2.14,1.48l2.57,13.96c.18,1-.48,1.96-1.48,2.14-.11.02-.23.03-.34.03Z" />
    <path class="cls-6"
      d="M56.64,166.99c-.78,0-1.5-.49-1.75-1.27-.32-.97.21-2.01,1.18-2.32l14.2-4.63c.97-.32,2.01.21,2.32,1.18.32.97-.21,2.01-1.18,2.32l-14.2,4.63c-.19.06-.38.09-.57.09Z" />
    <path class="cls-6"
      d="M156.07,131.17c-.7,0-1.32-.5-1.45-1.21l-1.67-9.06c-.15-.8.38-1.57,1.18-1.71.8-.16,1.57.38,1.72,1.18l1.67,9.06c.15.8-.38,1.57-1.18,1.71-.09.02-.18.02-.27.02Z" />
    <path class="cls-6"
      d="M150.74,128.08c-.62,0-1.2-.39-1.4-1.02-.25-.77.17-1.6.94-1.86l9.21-3c.78-.25,1.6.17,1.86.94.25.77-.17,1.6-.94,1.86l-9.21,3c-.15.05-.31.07-.46.07Z" />
    <path class="cls-6"
      d="M135.79,23.95c-.7,0-1.32-.5-1.45-1.21l-1.67-9.06c-.15-.8.38-1.57,1.18-1.72.8-.15,1.57.38,1.71,1.18l1.67,9.06c.15.8-.38,1.57-1.18,1.72-.09.02-.18.02-.27.02Z" />
    <path class="cls-6"
      d="M130.46,20.87c-.62,0-1.2-.4-1.4-1.02-.25-.77.17-1.6.94-1.86l9.21-3c.78-.25,1.6.17,1.86.94.25.77-.17,1.6-.94,1.86l-9.21,3c-.15.05-.31.07-.46.07Z" />
    <path class="cls-6"
      d="M125.41,39.31c-.7,0-1.32-.5-1.45-1.21l-2.57-13.93c-.15-.8.38-1.57,1.18-1.72.79-.15,1.57.38,1.72,1.18l2.57,13.93c.15.8-.38,1.57-1.18,1.72-.09.02-.18.02-.27.02Z" />
    <path class="cls-6"
      d="M117.2,34.56c-.62,0-1.2-.4-1.4-1.02-.25-.77.17-1.6.94-1.86l14.17-4.62c.78-.25,1.61.17,1.86.94.25.77-.17,1.6-.94,1.86l-14.17,4.62c-.15.05-.31.07-.46.07Z" />
    <path class="cls-6"
      d="M143.68,144.39c-.7,0-1.32-.5-1.45-1.21l-1.05-5.68c-.15-.8.38-1.57,1.18-1.71.79-.16,1.57.38,1.72,1.18l1.05,5.68c.15.8-.38,1.57-1.18,1.71-.09.02-.18.02-.27.02Z" />
    <path class="cls-6"
      d="M140.34,142.45c-.62,0-1.2-.39-1.4-1.02-.25-.77.17-1.6.94-1.86l5.77-1.88c.78-.25,1.6.17,1.86.94.25.77-.17,1.6-.94,1.86l-5.77,1.88c-.15.05-.31.07-.46.07Z" />
    <path class="cls-6"
      d="M161.63,24.36c-.7,0-1.32-.5-1.45-1.21l-1.05-5.68c-.15-.8.38-1.57,1.18-1.72.8-.15,1.57.38,1.72,1.18l1.05,5.68c.15.8-.38,1.57-1.18,1.72-.09.02-.18.02-.27.02Z" />
    <path class="cls-6"
      d="M158.28,22.42c-.62,0-1.2-.4-1.4-1.02-.25-.77.17-1.6.94-1.86l5.78-1.88c.78-.25,1.6.17,1.86.94.25.77-.17,1.6-.94,1.86l-5.78,1.88c-.15.05-.31.07-.46.07Z" />
    <path class="cls-6"
      d="M24.35,85.19c-.7,0-1.32-.5-1.45-1.21l-1.05-5.68c-.15-.8.38-1.57,1.18-1.72.8-.15,1.57.38,1.72,1.18l1.05,5.68c.15.8-.38,1.57-1.18,1.71-.09.02-.18.02-.27.02Z" />
    <path class="cls-6"
      d="M21,83.25c-.62,0-1.2-.4-1.4-1.02-.25-.77.17-1.6.94-1.86l5.78-1.88c.78-.25,1.61.17,1.86.94.25.77-.17,1.6-.94,1.86l-5.78,1.88c-.15.05-.31.07-.46.07Z" />
  </g>
</svg>