<?xml version="1.0" encoding="UTF-8"?>
<svg id="Capa_2" xmlns="http://www.w3.org/2000/svg" viewBox="0 0 251.21 178.91">
  <defs>
    <style>
      .cls-1 {
        fill: #008cff;
      }

      .cls-2 {
        fill: #00ffdb;
      }

      .cls-3 {
        fill: #7a00ba;
      }

      .cls-4 {
        fill: #fff;
      }

      .cls-5 {
        fill: #fe0;
      }

      .cls-6 {
        fill: #ff387f;
      }
    </style>
  </defs>
  <g id="layer_1">
    <path class="cls-4"
      d="M251.18,64.27c-.06-.63-.2-1.24-.42-1.83-.93-2.51-2.94-3.76-4.06-4.43l-.11-.07c-.07-.04-.14-.08-.25-.17-2.29-1.6-4.7-3.11-7.17-4.51-4.35-2.46-8.98-4.55-13.76-6.27l.1-1.58c.15-2.28-1.52-4.26-3.79-4.5l-11.83-1.24-2.38-11.64c-.41-2-2.17-3.39-4.15-3.39-.19,0-.38.01-.57.04l-11.71,1.58-4.77-10.8c-.7-1.58-2.24-2.53-3.88-2.53-.46,0-.92.07-1.37.23l-3.02,1.03c-.39-.48-.77-.97-1.16-1.44-4.2-5-9.3-10.49-16.59-12.41-.84-.23-1.69-.34-2.54-.34-1.84,0-3.57.54-5.02,1.57-3.72,2.67-3.76,7.1-3.69,9.11l-1.59.87-8.09-8.51c-.83-.87-1.95-1.32-3.08-1.32-.91,0-1.82.29-2.59.89l-9.28,7.17-9.29-7.17c-.77-.59-1.68-.89-2.59-.89-1.13,0-2.25.45-3.08,1.32l-7.35,7.73c.06-1.88.13-6.45-3.7-9.2-1.44-1.03-3.17-1.57-5.01-1.57-.84,0-1.7.11-2.49.33-7.33,1.93-12.43,7.42-16.64,12.43-.57.68-1.11,1.37-1.67,2.06l-4.84-1.66c-.45-.16-.92-.23-1.37-.23-1.64,0-3.19.95-3.88,2.53l-4.77,10.8-11.71-1.58c-.19-.03-.38-.04-.57-.04-1.99,0-3.75,1.4-4.15,3.39l-2.38,11.64-11.83,1.24c-2.27.24-3.94,2.23-3.79,4.5l.16,2.48c-3.91,1.53-7.7,3.33-11.32,5.37-2.47,1.39-4.88,2.91-7.22,4.55l-.28.18c-1.01.61-3.02,1.85-4,4.21-.92,2.15-.79,4.45.34,6.25,1.07,1.74,2.91,2.86,5.1,3.1,2.93,1.6,5.87,3.25,8.63,5.1l.93,2.15-8.59,8.49c-.81.8-1.26,1.88-1.26,3.02s.45,2.22,1.26,3.02l8.59,8.49-4.77,11.08c-.93,2.15.06,4.64,2.21,5.57l11.01,4.77-.79,11.96c-.15,2.28,1.52,4.26,3.79,4.5l11.83,1.24,2.38,11.64c.41,2,2.17,3.39,4.15,3.39.19,0,.38-.01.57-.04l11.71-1.58,4.77,10.8c.7,1.58,2.24,2.53,3.88,2.53.46,0,.92-.07,1.37-.23l11.14-3.81,6.62,9.73c.82,1.2,2.15,1.86,3.51,1.86.69,0,1.39-.17,2.03-.52l10.3-5.64,8.09,8.51c.83.87,1.95,1.32,3.08,1.32.91,0,1.82-.29,2.59-.89l9.29-7.17,9.29,7.17c.77.59,1.68.88,2.59.88,1.13,0,2.25-.45,3.08-1.32l8.09-8.51,10.3,5.64c.64.35,1.34.52,2.03.52,1.36,0,2.7-.66,3.51-1.86l6.62-9.73,11.14,3.81c.45.16.92.23,1.37.23,1.64,0,3.19-.95,3.88-2.53l4.77-10.8,11.71,1.58c.19.03.38.04.57.04,1.99,0,3.75-1.4,4.15-3.39l2.38-11.64,11.83-1.24c2.27-.24,3.94-2.23,3.79-4.5l-.79-11.96,11.01-4.77c2.15-.93,3.14-3.42,2.21-5.57l-4.77-11.09,8.59-8.49c.81-.8,1.26-1.88,1.26-3.02s-.45-2.22-1.26-3.02l-8.38-8.28c3.6-2.87,7.74-5.21,11.84-7.45,1.64-.15,3.17-.9,4.27-2.1,1.27-1.4,1.87-3.24,1.69-5.19Z" />
    <polygon class="cls-1"
      points="238.77 90.31 228.12 100.84 234.04 114.59 220.28 120.55 221.27 135.49 206.35 137.05 203.35 151.74 188.47 149.73 182.41 163.45 168.21 158.59 159.77 170.99 146.61 163.79 136.27 174.66 124.39 165.49 112.51 174.66 102.17 163.79 89 170.99 80.56 158.59 66.36 163.45 60.3 149.73 45.42 151.73 42.42 137.05 27.49 135.49 28.49 120.54 14.73 114.58 20.65 100.84 10 90.31 20.65 79.79 14.73 66.04 28.49 60.08 27.5 45.14 42.42 43.58 45.43 28.89 60.3 30.9 66.36 17.18 80.56 22.04 89 9.64 102.16 16.84 112.5 5.96 124.39 15.14 136.27 5.96 146.61 16.84 159.77 9.63 168.21 22.04 182.41 17.18 188.47 30.9 203.35 28.89 206.35 43.58 221.28 45.14 220.28 60.08 234.04 66.04 228.12 79.79 238.77 90.31" />
    <path class="cls-3"
      d="M126.4,139.04c-1.19,0-2.42-.33-3.85-1.03-1.92-.95-3.41-2.33-4.85-3.67l-.14-.14c-11.06-1.7-21.22-6.36-29.5-13.53-.53.95-1.19,1.8-1.98,2.54-.26.26-1.09,1.06-2.26.89-.99-.14-1.57-.89-1.79-1.17-3.65-4.63-6.13-10.74-6.61-16.33-.04-.47-.06-.92-.07-1.34-4.04.18-8,2.64-9.89,6.21-.17.92-.52,2.13-1.46,2.76-.54.37-1.21.48-1.96.27-1.73-.55-1.79-2.43-1.76-3.45,0-.02-.01-.03-.02-.05-1.84-4.61-5.78-8.34-10.54-9.97-4.77-1.64-10.23-1.14-14.59,1.34-.06.04-.13.08-.21.1-.58.58-1.16.91-1.78,1.01-.13.02-.23.02-.34.02-.58,0-1.14-.23-1.59-.66-1.4-1.33-.39-3.24.05-4.06l.08-.14c0-.07,0-.14.01-.22,1.15-6.21-1.35-13.28-6.68-18.96-4.9-5.23-11.29-8.74-17.48-12.12-.09,0-.19,0-.28,0h-.2c-1.32-.08-1.9-.73-2.13-1.11-.29-.46-.54-1.25-.06-2.37.48-1.16,1.61-1.83,2.35-2.28l.13-.08c.14-.09.26-.17.38-.25,2.19-1.53,4.49-2.97,6.83-4.3,4.64-2.62,9.57-4.82,14.68-6.54,5.07-1.71,17.65-5.52,24.97-4.13,2.09.41,3.5,1.57,4.54,2.91,3.81-11.7,10.39-23.32,19.11-33.7,3.79-4.5,8.34-9.43,14.47-11.05,1.44-.39,2.88-.18,3.95.58,2.07,1.49,1.97,4.25,1.92,5.74-.13,3.06-.1,6.2.08,9.38.25,4.13.77,8.3,1.56,12.4.59,3.03,1.41,6.55,3.1,9.68,1.65,3.04,3.97,5.33,6.56,6.47,1.32-.58,2.71-1.04,4.14-1.36-.42-.93-.77-2.08-1.08-3.48-.2-.92-.36-2.25.48-3.34.81-1.02,2.17-1.42,3.84-1.12,2.09.36,4.07,1.36,5.67,2.84,2.19-2.65,4.81-4.44,8.16-5.57,3.92-1.32,8.07-1.62,12.01-.87.84.15,1.94.42,2.79,1.21,1.33,1.25,2.24,3.87-.87,9.27-.38.66-.8,1.29-1.27,1.89,2.16-1.24,4.08-3.31,5.5-5.94,1.68-3.13,2.51-6.65,3.1-9.68.79-4.09,1.31-8.26,1.56-12.4.18-3.17.21-6.31.08-9.33-.06-1.54-.16-4.3,1.92-5.79,1.07-.76,2.52-.98,3.96-.58,6.12,1.61,10.67,6.55,14.46,11.05,8.76,10.44,15.36,22.11,19.16,33.87,1.1-1.45,2.51-2.66,4.66-3.07,7.56-1.43,21.02,2.8,24.97,4.13,5.12,1.73,10.07,3.93,14.69,6.54,2.35,1.33,4.64,2.77,6.82,4.29.13.09.25.17.39.26l.15.1c.83.5,1.9,1.15,2.33,2.31.09.24.15.49.17.75.07.75-.14,1.44-.6,1.94-.44.48-1.06.74-1.76.74h-.2c-.09,0-.19,0-.28,0-6.2,3.38-12.58,6.89-17.48,12.12-5.33,5.68-7.83,12.74-6.69,18.9.01.1.02.18.02.27l.07.14c.44.82,1.46,2.74.05,4.07-.44.42-1,.66-1.58.66-.11,0-.21,0-.34-.02-.61-.1-1.2-.43-1.79-1.01-.09-.04-.18-.08-.26-.14-4.3-2.45-9.75-2.94-14.52-1.31-4.76,1.64-8.7,5.36-10.54,9.97,0,.02-.01.03-.02.05.03,1.04-.04,2.9-1.73,3.44-.83.24-1.44.11-2-.27-.93-.62-1.28-1.83-1.45-2.75-1.87-3.55-5.69-5.95-9.72-6.21,0,.42-.03.86-.07,1.33-.47,5.59-2.94,11.7-6.6,16.34-.21.28-.8,1.03-1.79,1.16-1.17.16-2.01-.63-2.28-.9-.78-.74-1.43-1.59-1.96-2.52-8.59,7.6-16.78,11.58-27.12,13.21-1.94,2.33-6.96,4.51-7.02,4.53-.98.42-1.92.63-2.88.63ZM87.42,117.69l.95.85c8.24,7.44,18.53,12.25,29.74,13.92l.29.04.53.51c1.35,1.25,2.74,2.55,4.42,3.38,2.1,1.03,3.5,1.11,5.22.37,1.86-.8,5.24-2.62,6.41-4.11l.46-.41.31-.09c10.45-1.6,18.62-5.67,27.34-13.6l.95-.86.49,1.18c.49,1.16,1.19,2.19,2.09,3.04.33.32.56.43.78.41.27-.04.5-.33.62-.49,3.46-4.39,5.78-10.13,6.23-15.38.06-.74.08-1.43.05-2.06l-.05-.93.93-.02c5.13-.09,10.03,2.85,12.32,7.32l.09.26c.21,1.22.53,1.59.7,1.7.12.08.11.14.47.04.45-.14.48-1,.44-1.9l-.02-.4.2-.21c2.04-5.06,6.38-9.15,11.6-10.94,5.23-1.8,11.19-1.26,15.97,1.43h.26l.27.29c.37.4.69.62.95.66.19,0,.31-.09.39-.16.36-.34.02-1.12-.39-1.91l-.41-.79.11-.26c-1.21-6.66,1.47-14.28,7.17-20.35,5.12-5.46,11.67-9.05,18.01-12.51l.24-.27.48.08c.11.02.23.03.34.03h.2c.19,0,.34-.05.43-.16.11-.12.16-.32.14-.56,0-.1-.03-.19-.06-.29h0c-.21-.57-.95-1.01-1.6-1.41l-.17-.11c-.16-.1-.32-.2-.46-.3-2.13-1.48-4.37-2.9-6.67-4.19-4.53-2.55-9.36-4.71-14.38-6.41-3.84-1.3-16.94-5.43-24.05-4.07-2.09.4-3.32,1.83-4.52,3.85l-.75,1.26,1.3-.37c.14.47.26.93.38,1.4.2.78.39,1.56.57,2.34l-1.76.41-.08-.33c-.11-.45-.21-.91-.33-1.37h0c-.05-.2-.1-.4-.15-.59-.12-.45-.24-.91-.37-1.36h.02s-.47-1.59-.47-1.59c-3.62-12.14-10.32-24.26-19.38-35.05-3.61-4.29-7.92-8.98-13.54-10.46-.93-.26-1.82-.14-2.45.31-1.28.92-1.21,2.98-1.16,4.21.13,3.12.1,6.32-.08,9.55-.25,4.21-.79,8.46-1.59,12.63-.61,3.17-1.48,6.85-3.28,10.2-1.89,3.48-4.59,6.09-7.62,7.35l-.36.15-.35-.16c-.37-.16-.75-.32-1.12-.46l-1.34-.49,1.02-1c.93-.92,1.74-1.96,2.39-3.1,1.14-1.98,2.81-5.53,1.2-7.05-.5-.46-1.27-.65-1.88-.75-3.65-.69-7.48-.41-11.11.81-3.31,1.12-5.82,2.94-7.9,5.72l-.08.1-.67.67-.68-.66c-1.44-1.6-3.36-2.67-5.39-3.02-.7-.12-1.64-.15-2.11.45-.37.48-.27,1.24-.14,1.85.39,1.82.86,3.14,1.44,4.02l.75,1.15-1.35.23c-1.85.32-3.63.87-5.29,1.64l-.58.27-.36-.36c-3.05-1.31-5.72-3.9-7.58-7.33-1.8-3.35-2.67-7.03-3.28-10.2-.8-4.17-1.34-8.42-1.59-12.63-.19-3.24-.22-6.44-.09-9.51.05-1.27.12-3.33-1.16-4.25-.63-.45-1.51-.56-2.44-.31-5.63,1.48-9.95,6.18-13.55,10.47-9,10.73-15.68,22.78-19.32,34.85l-.59,1.94-1.05-1.74c-1.15-1.9-2.34-3.25-4.42-3.65-7.09-1.34-20.2,2.78-24.05,4.07-5,1.69-9.83,3.84-14.37,6.41-2.3,1.3-4.54,2.71-6.68,4.2-.13.09-.28.19-.45.3l-.14.09c-.77.47-1.41.88-1.64,1.45-.1.23-.18.53-.07.72.04.06.17.22.65.25h.15c.11,0,.23,0,.34-.03l.47-.07.25.26c6.37,3.48,12.91,7.06,18.02,12.51,5.69,6.06,8.36,13.66,7.17,20.35l.11.26-.4.77c-.43.81-.77,1.58-.41,1.92.08.08.2.16.34.16.31-.04.63-.27.98-.65l.27-.3h.27c4.84-2.7,10.78-3.22,15.98-1.43,5.25,1.8,9.59,5.92,11.63,11.01l.19.26-.03.28c-.04.9,0,1.75.47,1.91.27.07.33.03.43-.04.18-.12.5-.49.72-1.71l.09-.26c2.35-4.57,7.39-7.54,12.51-7.31l.91.03-.05.91c-.03.62-.02,1.29.05,2.04.45,5.26,2.79,11.01,6.23,15.38.13.16.35.46.62.49.21.03.44-.09.77-.41.91-.86,1.62-1.88,2.1-3.04l.49-1.17ZM189.46,110.17l-.02.02.02-.02ZM34.24,100.79s-.04.02-.06.03c.02-.01.04-.02.06-.03ZM217.03,100.78s0,0,.01,0c0,0,0,0-.01,0ZM219.17,98.87l-.09.06.11-.06h-.02ZM32.25,98.81h.01s0,0,0,0h0Z" />
    <path class="cls-3"
      d="M65.16,144.87c-.79,0-1.66-.15-2.57-.45-1.15-.38-2.4-1.07-3.83-2.13l-11.1-8.18c-.51-.38-.86-.95-.95-1.58-.1-.63.06-1.27.44-1.79l2.85-3.86c.47-.64,1.2-.98,1.94-.98.39,0,.77.09,1.13.28l2.78-3.77c-.36-.36-.61-.83-.68-1.35-.1-.63.06-1.27.44-1.79l2.85-3.86c.47-.64,1.2-.98,1.94-.98.5,0,1,.15,1.43.47l11.8,8.7c1.17.87,2.03,1.72,2.6,2.61.63.97.99,1.96,1.07,2.94.08.99-.08,1.95-.49,2.86-.31.69-.7,1.35-1.16,1.98-1.18,1.6-2.47,2.39-3.62,2.74.23,1.7-.27,3.4-1.48,5.05-.48.65-1.03,1.24-1.64,1.75-.82.69-1.79,1.12-2.9,1.28-.27.04-.55.06-.85.06Z" />
    <path class="cls-3"
      d="M80.74,152.06c-.28,0-.56-.05-.83-.15l-10.79-3.98c-1.25-.46-1.88-1.84-1.42-3.09l1.66-4.5c.22-.6.67-1.09,1.25-1.35.32-.15.66-.22,1.01-.22.17,0,.33.02.49.05l1.62-4.4c-1.03-.56-1.52-1.81-1.11-2.95l1.66-4.5c.22-.6.67-1.08,1.25-1.35.32-.15.66-.22,1.01-.22.28,0,.56.05.83.15l10.79,3.98c1.25.46,1.89,1.84,1.43,3.09l-1.66,4.5c-.22.6-.67,1.09-1.25,1.35-.32.15-.66.22-1.01.22-.16,0-.32-.02-.48-.05l-1.62,4.4c1.02.56,1.51,1.81,1.09,2.94l-1.66,4.5c-.36.97-1.28,1.57-2.26,1.57Z" />
    <path class="cls-3"
      d="M98.83,156.06c-.15,0-.31-.01-.46-.04l-11.29-2.19c-1.3-.25-2.16-1.52-1.9-2.82l.91-4.71c.12-.63.49-1.18,1.02-1.54.4-.27.87-.41,1.34-.41.03,0,.07,0,.1,0l.36-1.85-3.94-.77c-1.3-.25-2.16-1.52-1.9-2.82l1.45-7.44c.12-.63.49-1.18,1.02-1.54.4-.27.87-.41,1.35-.41.15,0,.31.01.46.04l19.86,3.86c1.3.25,2.16,1.52,1.9,2.82l-1.45,7.43c-.12.63-.49,1.18-1.02,1.54-.4.27-.87.41-1.35.41-.15,0-.31-.01-.46-.04l-3.94-.76-.36,1.85c.48.17.91.49,1.2.92.36.53.49,1.18.37,1.81l-.92,4.71c-.22,1.15-1.23,1.95-2.36,1.95Z" />
    <path class="cls-3"
      d="M105.41,157.05c-1.33-.07-2.35-1.2-2.27-2.53l.25-4.79c.06-1.21,1.01-2.16,2.18-2.27l.25-4.68c-.5-.1-.96-.36-1.31-.75-.43-.47-.65-1.1-.61-1.74l.26-4.79c.07-1.28,1.13-2.28,2.4-2.28.04,0,17.97.96,17.97.96.64.03,1.23.32,1.66.79.43.47.65,1.1.61,1.74l-.38,7.03c-.03.64-.32,1.23-.79,1.66-.44.4-1.02.62-1.61.62-.04,0-2.13-.11-2.13-.11v.14s2,.11,2,.11c.64.03,1.24.32,1.66.79.43.47.65,1.1.61,1.74l-.38,7.03c-.07,1.28-1.13,2.28-2.4,2.28-.04,0-17.97-.96-17.97-.96Z" />
    <path class="cls-3"
      d="M137.6,157.35c-.55,0-1.08-.19-1.51-.53-.5-.4-.82-.98-.88-1.62l-.51-4.77c-.07-.64.12-1.27.52-1.77.33-.4.77-.69,1.27-.82l-.02-.22-3.42-3.46c-.23-.2-.44-.39-.62-.58-.03,0-.07,0-.1,0-1.23,0-2.37-.91-2.51-2.14l-.51-4.77c-.14-1.32.81-2.51,2.13-2.65l10.96-1.18c.09,0,.17-.01.26-.01.03,0,.05,0,.08,0,.11-.03.21-.05.33-.06l7.5-.81c.09,0,.17-.01.26-.01.55,0,1.08.19,1.51.53.5.4.81.98.88,1.62l.51,4.77c.14,1.29-.77,2.45-2.04,2.64,0,0-.49.67-.49.67l-2.6,4.13.02.22c1.17.04,2.17.94,2.3,2.15l.51,4.77c.07.63-.12,1.27-.52,1.77-.4.5-.98.82-1.62.88l-11.43,1.23c-.09,0-.17.01-.26.01Z" />
    <path class="cls-3"
      d="M162.03,153.85c-.32,0-.63,0-.94-.03-1.72-.11-3.32-.54-4.76-1.28-1.47-.76-2.73-1.84-3.77-3.21-1.01-1.34-1.76-3-2.23-4.91-.48-1.92-.59-3.74-.32-5.39.27-1.7.89-3.25,1.83-4.6.92-1.32,2.14-2.45,3.61-3.35,1.4-.86,3.02-1.52,4.82-1.96,1.45-.36,2.87-.54,4.23-.54.32,0,.63,0,.94.03,1.73.11,3.33.54,4.76,1.27,1.46.75,2.73,1.83,3.76,3.21,1.01,1.34,1.76,3,2.24,4.92.47,1.91.58,3.72.32,5.38-.27,1.7-.88,3.25-1.82,4.6-.92,1.33-2.14,2.46-3.62,3.36-1.4.86-3.02,1.52-4.81,1.96-1.46.36-2.88.55-4.24.55ZM162.74,139.09c.09.6.24,1.31.45,2.14.21.84.41,1.55.61,2.11-.09-.59-.24-1.31-.45-2.15-.21-.82-.41-1.53-.61-2.1Z" />
    <path class="cls-3"
      d="M184.39,146.33c-.33,0-.65-.02-.96-.05-1.04-.11-1.98-.38-2.79-.8-.75-.39-1.42-.86-1.99-1.41-.55-.52-1.02-1.08-1.4-1.67-.33-.51-.61-1.01-.84-1.49l-2.27-4.78c-.23.07-.47.11-.7.11-.9,0-1.76-.51-2.18-1.37l-2.06-4.33c-.57-1.2-.06-2.64,1.14-3.21l10.07-4.78c.16-.07.31-.13.48-.17.13-.1.28-.19.43-.26l7.46-3.54c.33-.16.69-.23,1.03-.23.9,0,1.76.51,2.18,1.37l2.06,4.33c.47.99.2,2.15-.58,2.84l2.21,4.66c.42.88.74,1.84.97,2.87.27,1.21.26,2.46-.04,3.7-.3,1.26-.96,2.49-1.97,3.66-.99,1.15-2.39,2.14-4.29,3.05-1.35.64-2.55,1.06-3.69,1.27-.79.15-1.55.23-2.26.23Z" />
    <path class="cls-3"
      d="M202.61,136.31c-.23,0-.47-.01-.7-.04-.68-.08-1.35-.3-1.98-.63-.67-.35-1.27-.84-1.76-1.45-.48-.59-.83-1.26-1.04-1.99-.2-.69-.27-1.38-.22-2.06l-6.24-5.42c-.12-.1-.32-.28-.52-.48-.19-.19-.36-.38-.52-.58-.48-.59-.83-1.26-1.04-1.99-.2-.7-.28-1.41-.22-2.1.06-.71.26-1.41.59-2.07.35-.69.83-1.28,1.44-1.77.59-.48,1.26-.82,1.99-1.02.5-.14,1-.21,1.5-.21.22,0,.44.01.66.04.69.08,1.38.3,2.03.65.67.36,1.26.84,1.74,1.43.14.17.29.37.44.6.17.25.3.48.4.68l4.05,7.19c.65.09,1.29.31,1.9.63.67.36,1.25.84,1.73,1.43.49.61.85,1.29,1.06,2.02.2.7.26,1.41.2,2.1-.06.71-.26,1.4-.59,2.06-.35.69-.83,1.28-1.42,1.76-.61.49-1.29.84-2.04,1.04-.48.12-.96.19-1.44.19Z" />
    <path class="cls-5"
      d="M73.7,132.56c-1.64,2.22-3.65,2.61-6.05,1.16l-.08.12c1.15.89,1.83,1.9,2.04,3.03.21,1.13-.13,2.29-1.01,3.48-.37.5-.79.95-1.26,1.35-.47.4-1.03.64-1.69.74-.66.09-1.43,0-2.32-.3-.89-.29-1.94-.89-3.15-1.78l-11.1-8.18,2.85-3.86c.59.44,1.08.67,1.45.69.38.03.73-.19,1.06-.64l3.88-5.26c.34-.46.44-.86.3-1.21-.14-.35-.5-.75-1.09-1.18l2.85-3.86,11.8,8.7c.93.69,1.6,1.35,2.01,1.98.41.64.64,1.25.69,1.83.05.58-.05,1.14-.29,1.68-.24.54-.54,1.05-.9,1.53ZM61.04,135.03c.57.42,1.04.59,1.42.53.38-.07.77-.36,1.16-.89.39-.53.56-.99.52-1.39-.04-.4-.34-.81-.91-1.22l-1.5-1.11-2.19,2.98,1.5,1.11ZM63.09,129.11l1.52,1.12c.42.31.82.39,1.21.26.39-.14.72-.4,1.01-.79.27-.37.42-.76.44-1.17.02-.41-.18-.77-.6-1.08l-1.52-1.12-2.06,2.79Z" />
    <path class="cls-5"
      d="M69.95,145.67l1.66-4.5c.69.25,1.22.34,1.59.26.37-.08.65-.38.84-.91l2.26-6.14c.2-.53.18-.95-.05-1.25-.23-.3-.69-.58-1.38-.83l1.66-4.5,10.79,3.98-1.66,4.5c-.69-.26-1.22-.34-1.58-.26-.36.08-.64.39-.84.92l-2.26,6.14c-.19.53-.18.94.05,1.24.22.3.68.57,1.37.83l-1.66,4.5-10.79-3.98Z" />
    <path class="cls-5"
      d="M106.74,135.8l-1.45,7.43-4.05-.79c.11-.57.19-1.06.24-1.49.05-.42.05-.77,0-1.05s-.16-.5-.34-.66c-.18-.16-.43-.28-.77-.34l-.76-.15-1.63,8.37c-.11.55-.02.95.25,1.21.27.26.77.46,1.49.6l-.92,4.71-11.29-2.19.91-4.71c.72.14,1.26.14,1.6,0,.35-.14.57-.48.68-1.03l1.63-8.37-.75-.15c-.34-.07-.62-.06-.84.03-.22.08-.41.24-.57.48-.15.24-.28.56-.39.98-.11.41-.21.9-.32,1.47l-4.06-.79,1.45-7.44,19.86,3.86Z" />
    <path class="cls-5"
      d="M117.49,150.48c.34.02.63,0,.86-.04.23-.05.42-.15.57-.31.15-.16.25-.39.32-.68.07-.29.11-.66.14-1.12l4.38.23-.38,7.03-17.84-.95.26-4.79c.73.04,1.27-.03,1.59-.22.33-.19.51-.56.54-1.12l.35-6.53c.03-.57-.11-.96-.41-1.18-.31-.22-.83-.35-1.56-.39l.26-4.79,17.84.95-.38,7.04-4.38-.23c.02-.46.02-.83-.02-1.13-.03-.3-.12-.53-.25-.7-.13-.17-.31-.29-.53-.37-.23-.08-.51-.12-.85-.14l-2.25-.12-.18,3.43,3.99.21-.12,2.28-3.99-.21-.2,3.72,2.25.12Z" />
    <path class="cls-5"
      d="M134.67,142.4c-.21-.18-.39-.35-.55-.51-.15-.16-.31-.3-.48-.41-.17-.11-.36-.2-.59-.26-.22-.06-.51-.07-.85-.03l-.51-4.77,10.96-1.18.51,4.77c-.73.08-1.2.25-1.41.53-.21.28-.17.58.12.92l1.99,2.28h.1s1.44-2.66,1.44-2.66c.25-.37.25-.67,0-.91-.26-.24-.78-.32-1.57-.23l-.51-4.77,7.5-.81.51,4.77c-.25.03-.46.08-.65.15-.18.07-.35.17-.5.31-.15.13-.3.3-.45.5-.15.2-.33.45-.54.74l-3.09,4.91.21,1.98c.06.56.26.92.6,1.09.34.17.87.21,1.6.13l.51,4.77-11.43,1.23-.51-4.77c.73-.08,1.24-.24,1.54-.47.29-.24.41-.63.35-1.19l-.21-1.98-4.09-4.13Z" />
    <path class="cls-5"
      d="M152.67,143.84c-.4-1.61-.49-3.09-.28-4.44.21-1.34.69-2.54,1.43-3.6.74-1.05,1.7-1.94,2.89-2.68,1.19-.73,2.57-1.29,4.14-1.68,1.56-.39,3.04-.54,4.44-.45,1.4.09,2.67.42,3.81,1.01,1.14.59,2.12,1.43,2.94,2.51.82,1.09,1.43,2.44,1.83,4.05.4,1.61.49,3.08.28,4.43-.21,1.35-.69,2.55-1.42,3.6-.73,1.06-1.7,1.95-2.89,2.68-1.2.73-2.57,1.29-4.13,1.68-1.57.39-3.05.54-4.44.45-1.4-.09-2.67-.43-3.81-1.02-1.15-.59-2.13-1.43-2.94-2.52-.82-1.09-1.43-2.44-1.82-4.04ZM160.85,141.81c.25,1.01.5,1.85.74,2.51.24.66.51,1.18.79,1.56.29.38.61.62.96.73.35.11.78.11,1.26-.01.46-.12.83-.31,1.1-.57.27-.27.44-.63.52-1.1.08-.47.07-1.05-.03-1.75-.1-.7-.27-1.55-.52-2.57-.25-1-.49-1.83-.74-2.51-.25-.68-.51-1.2-.8-1.57-.29-.37-.61-.61-.97-.72-.36-.11-.78-.11-1.24,0-.49.12-.86.31-1.12.58-.26.26-.43.63-.51,1.09-.08.46-.07,1.05.03,1.76.1.71.27,1.57.52,2.56Z" />
    <path class="cls-5"
      d="M181.43,124.72l2.06,4.33c-.57.27-.93.55-1.06.84-.14.29-.1.64.1,1.06l2.56,5.39c.14.29.3.55.48.79.19.24.4.42.65.56.24.14.52.21.82.21.3,0,.64-.08,1.02-.26.72-.34,1.16-.79,1.31-1.34.15-.55.06-1.16-.26-1.83l-2.55-5.37c-.23-.48-.52-.74-.88-.78-.36-.03-.78.06-1.27.3l-2.06-4.33,7.46-3.54,2.06,4.33c-.51.24-.86.5-1.06.78-.2.28-.18.66.04,1.15l2.65,5.57c.34.72.61,1.5.8,2.36.19.86.18,1.73-.03,2.62-.21.89-.7,1.77-1.45,2.65-.76.88-1.92,1.69-3.5,2.44-1.15.55-2.19.91-3.11,1.09-.93.18-1.76.23-2.5.15-.74-.08-1.39-.26-1.94-.55-.55-.29-1.03-.62-1.45-1.02-.41-.39-.76-.8-1.03-1.23-.28-.43-.51-.83-.69-1.21l-2.67-5.62c-.24-.51-.55-.79-.93-.84-.37-.05-.89.09-1.56.4l-2.06-4.33,10.07-4.78Z" />
    <path class="cls-5"
      d="M191.49,122.14c-.28-.34-.48-.72-.6-1.15-.12-.42-.17-.84-.13-1.24.03-.4.15-.79.34-1.17.19-.38.46-.71.81-.99.33-.27.7-.46,1.12-.57.41-.11.82-.15,1.23-.1.41.05.8.18,1.19.38.39.21.72.48,1,.82.1.13.21.27.33.44.11.17.2.32.26.44l4.16,7.38-2.55,2.07-6.4-5.56c-.12-.1-.25-.22-.38-.35-.13-.13-.25-.27-.37-.41ZM200.03,132.67c-.28-.34-.48-.72-.6-1.15-.12-.42-.17-.84-.13-1.24s.14-.8.34-1.18c.19-.38.46-.71.8-.99.33-.27.7-.46,1.12-.57.42-.11.83-.14,1.23-.09.4.05.8.18,1.19.38.39.21.72.48,1,.82.29.35.49.74.61,1.16.12.42.16.83.12,1.23-.04.41-.15.8-.35,1.19-.19.39-.46.71-.79.98-.34.28-.72.47-1.14.58-.41.11-.82.14-1.22.08-.4-.05-.79-.18-1.18-.38-.38-.2-.72-.48-1.01-.83Z" />
    <path class="cls-2"
      d="M244.92,65.14s-.02.01-.06.04c-.05.02-.16.06-.35.07-.25.01-.51-.01-.75-.1-.14-.04-.28-.1-.4-.17-6.33-3.77-11.79-6.64-17.18-9.05-9.23-4.14-17.42-6.11-24.41-5.88-1.95.06-4.43.46-6.17,2.96-.81,1.16-1.31,2.43-1.73,3.72-.13-.57-.26-1.14-.41-1.71-.17-.66-.34-1.31-.53-1.97,1.29-2.27,2.42-4.21,4.9-4.68,7.06-1.36,20.08,2.76,23.9,4.05,4.98,1.68,9.81,3.84,14.33,6.39,2.29,1.29,4.52,2.7,6.64,4.18.19.13.41.26.64.41.6.37,1.29.79,1.5,1.31.12.28.1.41.08.43Z" />
    <path class="cls-2"
      d="M207.16,84.11c-4.14-6.06-8.06-11.79-13.13-16.64-.06-.05-.12-.1-.19-.12.17-.59.32-1.2.44-1.82,9.39,10.01,17.28,21.26,23.5,33.49.07.16.16.3.23.46l.14.28c.19.36.71,1.32.46,1.56-.08.07-.13.07-.16.07-.64-.08-1.72-1.9-2.08-2.49-.13-.23-.24-.41-.32-.53-1.18-1.72-2.41-3.83-3.59-5.87-1.23-2.11-2.49-4.28-3.72-6.06l-1.59-2.32Z" />
    <path class="cls-2"
      d="M186.94,101.86c-.18-2.43-.37-4.93-.7-7.08l-.42-2.79c-.47-3.13-.91-6.08-1.47-9.01.41-.36.81-.75,1.18-1.16,2.07,9.45,3.2,19.1,3.36,28.73v.31c.04.41.07,1.5-.25,1.61-.11.02-.14.01-.17-.01-.25-.17-.43-.72-.55-1.34.02-.12,0-.24-.06-.36-.01-.01-.01-.02-.01-.04t-.01-.02c-.07-.55-.12-1.11-.16-1.4-.01-.25-.04-.47-.06-.61-.3-2.06-.49-4.49-.67-6.85Z" />
    <path class="cls-2"
      d="M6.45,64.7c.22-.52.9-.94,1.5-1.31.23-.14.45-.28.64-.41,2.12-1.48,4.36-2.89,6.64-4.18,4.52-2.55,9.34-4.7,14.32-6.39,3.83-1.3,16.83-5.41,23.91-4.05,2.39.45,3.53,2.3,4.78,4.48-.35,1.19-.65,2.38-.94,3.57-.4-1.18-.88-2.35-1.61-3.41-1.74-2.5-4.22-2.9-6.17-2.96-6.98-.23-15.19,1.74-24.41,5.88-5.39,2.41-10.85,5.28-17.18,9.05-.12.07-.26.13-.4.17-.24.08-.49.11-.75.1-.3-.02-.4-.1-.41-.11-.01-.02-.04-.16.08-.43Z" />
    <path class="cls-2"
      d="M34.9,98.9c-.36.59-1.44,2.41-2.08,2.49-.02,0-.07.01-.16-.07-.25-.24.26-1.2.46-1.56l.14-.28c.07-.16.16-.3.23-.46,6.18-12.15,14.03-23.37,23.34-33.33.13.6.28,1.19.46,1.76-.01,0-.04.01-.05.02-5.08,4.85-8.99,10.58-13.13,16.64l-1.59,2.32c-1.23,1.78-2.49,3.96-3.72,6.06-1.19,2.05-2.42,4.15-3.59,5.87-.08.12-.19.3-.32.53Z" />
    <path class="cls-2"
      d="M62.4,110.56c.14-9.59,1.26-19.2,3.31-28.6.37.41.77.79,1.2,1.17-.55,2.88-.97,5.78-1.44,8.84l-.42,2.82c-.32,2.14-.52,4.64-.7,7.08-.18,2.36-.37,4.79-.67,6.85-.02.14-.05.36-.07.61-.02.29-.07.84-.16,1.4t-.01.02s0,.02-.01.04c-.06.12-.07.24-.05.36-.12.61-.3,1.17-.55,1.34-.02.01-.06.04-.17.01-.34-.11-.29-1.2-.26-1.61v-.31Z" />
    <path class="cls-6"
      d="M33.73,96.01c.2-6.09-2.49-12.63-7.52-18-4.95-5.27-11.23-8.81-17.38-12.18,6.17-3.66,11.49-6.45,16.76-8.81,9.05-4.05,17.1-6,23.87-5.78,2.53.07,4.09.81,5.23,2.45.97,1.38,1.48,3.07,1.97,4.69.04.11.08.19.16.25-.05.19-.08.4-.12.59-.32,1.7-.34,3.39-.11,5.04-.07.02-.14.07-.2.14-8.94,9.48-16.57,20.09-22.67,31.59Z" />
    <path class="cls-6"
      d="M50.4,99.02c-4.7-1.61-10.01-1.37-14.55.63.04-.05.06-.08.08-.13.11-.19.22-.36.29-.47,1.19-1.74,2.43-3.87,3.63-5.94,1.2-2.08,2.47-4.24,3.66-5.99l1.6-2.32c3.99-5.85,7.79-11.39,12.59-16.08,1.02,2.89,2.51,5.51,3.83,7.62,1.06,1.71,2.07,3.21,3.19,4.55-2.02,8.99-3.18,18.17-3.47,27.35-2.3-4.25-6.23-7.6-10.85-9.2Z" />
    <path class="cls-6"
      d="M76.34,103.16c-4.33-.19-8.69,1.9-11.42,5.28.28-2,.45-4.28.61-6.49.19-2.41.37-4.9.7-6.99l.42-2.82c.42-2.82.83-5.49,1.31-8.12,2.19,1.78,4.61,3.43,7.23,4.91-.58.47-1.13.99-1.65,1.53-.4.45-.82.97-.78,1.66.04.76.58,1.37,1.61,1.83,1.49.66,3.12,1.02,4.76,1.07.06.01.11.01.17.01-1.64,2.39-2.66,5.21-2.97,8.12Z" />
    <path class="cls-6"
      d="M186.36,108.46c-2.68-3.36-6.97-5.44-11.25-5.31-.3-2.91-1.32-5.73-2.96-8.12.12,0,.23-.01.35-.01,1.58-.07,3.14-.43,4.58-1.07,1.02-.46,1.56-1.07,1.6-1.83.04-.69-.37-1.22-.78-1.66-.55-.59-1.16-1.14-1.78-1.65,2.6-1.48,4.99-3.14,7.17-4.93.49,2.7.91,5.41,1.34,8.29l.42,2.79c.32,2.09.51,4.58.7,6.99.17,2.21.34,4.5.61,6.51Z" />
    <path class="cls-6"
      d="M215.43,99.65c-4.54-2-9.84-2.24-14.55-.63-4.61,1.6-8.54,4.95-10.85,9.18-.29-9.23-1.47-18.46-3.5-27.49,1.06-1.29,2.03-2.74,3.04-4.38,1.32-2.13,2.84-4.8,3.87-7.74,4.87,4.7,8.69,10.3,12.72,16.2l1.59,2.32c1.2,1.76,2.47,3.91,3.67,5.99,1.2,2.07,2.44,4.2,3.63,5.94.07.11.17.28.29.47.02.05.05.08.08.13Z" />
    <path class="cls-6"
      d="M201.82,51.25c6.77-.23,14.82,1.72,23.87,5.78,5.27,2.36,10.59,5.15,16.76,8.81-6.15,3.37-12.43,6.91-17.38,12.18-5.03,5.37-7.72,11.91-7.52,18-6.11-11.49-13.73-22.1-22.67-31.59-.1-.11-.23-.17-.37-.18.2-1.65.2-3.32-.12-5.01-.04-.16-.06-.32-.1-.48.14-.06.25-.19.31-.36.49-1.62,1-3.31,1.97-4.69,1.14-1.65,2.71-2.38,5.23-2.45Z" />
    <path class="cls-6"
      d="M69.35,76.42c.05.06.18.2.4.43.29.26.7.67,1.3,1.05,1.17.78,3.07,1.56,5.26,1.46,2.19-.04,4.49-1.19,5.94-2.85.82-.89,1.4-1.89,1.76-2.85.47,1.64.89,3.28,1.28,4.93.01.04.02.07.05.11-.67,2.13-1.22,4.31-1.61,6.52-2.71.37-5.29,1.41-7.53,2.96-.05-.07-.11-.12-.18-.16-2.86-1.61-5.5-3.43-7.82-5.39-.02-.26-.22-.48-.48-.53-.05-.01-.1-.01-.13-.01h-.01c-.57-.51-1.09-1.03-1.59-1.61-.02-.2-.17-.39-.38-.45-1.06-1.28-2.02-2.71-3.04-4.33-2.55-4.1-5.81-10.25-4.66-16.23.41-2.09.9-4.18,1.48-6.26.12-.14.17-.32.14-.49,3.56-12.45,10.25-24.73,19.6-35.87,3.56-4.26,7.83-8.92,13.38-10.38.84-.22,1.66-.12,2.2.26,1.07.77,1.09,2.47,1.03,3.99-.12,3.12-.1,6.24.08,9.36v.04s-.01.06-.01.08c.02,8.78.83,17.63,1.6,26.18l.04.39c.41,4.4-.89,6.81-4.32,8.03-1.01.36-2.39.52-3.86.7-.6.07-1.22.14-1.84.24-2.14-1.13-4.96-3.18-7.22-6.17-2.27-2.96-3.91-6.86-4.26-10.64-.45-3.79.25-7.32,1.08-9.72.41-1.22.88-2.15,1.19-2.8.22-.39.37-.67.46-.84-.1.16-.28.43-.51.82-.34.64-.85,1.56-1.31,2.77-.95,2.38-1.82,5.93-1.52,9.83.22,3.91,1.76,8.03,4.04,11.19,1.88,2.65,4.21,4.63,6.23,5.9-2.15.49-4.07,1.38-4.93,3.35-.89,1.99-.04,4.27.59,5.93.08.23.17.46.25.69-1.28.05-2.94.07-4.7-.13-1.99-.23-4.13-.79-5.85-1.85-1.76-1.01-3.03-2.45-3.71-3.63-.35-.59-.54-1.12-.67-1.48-.08-.28-.14-.47-.17-.54.01.07.06.26.12.55.11.37.25.93.55,1.55.59,1.26,1.79,2.85,3.55,4.05,1.72,1.25,3.96,2,6.03,2.36,2.05.34,3.93.36,5.28.3.48,1.37.95,2.77,1.37,4.16-.1,1.24-.61,2.97-1.84,4.48-1.22,1.54-3.19,2.73-5.22,2.91-2.02.25-3.91-.34-5.11-1.01-.61-.33-1.06-.69-1.36-.93-.23-.2-.37-.34-.43-.4Z" />
    <path class="cls-6"
      d="M169.3,67.1c1.36.05,3.28.04,5.37-.31,2.07-.35,4.31-1.11,6.04-2.35,1.74-1.2,2.95-2.8,3.54-4.07.3-.63.46-1.18.55-1.55.06-.28.11-.47.12-.55-.02.07-.08.26-.17.54-.13.36-.32.89-.67,1.48-.67,1.18-1.95,2.62-3.71,3.65-1.72,1.06-3.86,1.62-5.85,1.84-1.85.22-3.59.18-4.89.13.06-.19.13-.37.2-.57.63-1.66,1.48-3.95.59-5.93-.87-1.95-2.76-2.84-4.9-3.33,2.08-1.28,4.49-3.3,6.43-6.03,2.29-3.16,3.83-7.28,4.04-11.18.3-3.91-.57-7.46-1.52-9.84-.46-1.2-.97-2.12-1.31-2.76-.23-.4-.41-.67-.51-.82.08.16.24.45.46.84.31.65.78,1.59,1.19,2.8.83,2.41,1.53,5.93,1.09,9.71-.36,3.79-2,7.68-4.27,10.64-2.26,3-5.07,5.05-7.22,6.17-.07.04-.12.08-.16.13-.64-.1-1.29-.18-1.91-.25-1.47-.18-2.85-.34-3.86-.7-3.43-1.22-4.73-3.62-4.32-8.03l.04-.39c.77-8.56,1.58-17.4,1.6-26.18,0-.02,0-.06-.01-.08v-.04c.18-3.12.2-6.24.08-9.36-.06-1.53-.04-3.22,1.03-3.99.54-.39,1.36-.48,2.2-.26,5.55,1.47,9.82,6.12,13.38,10.38,9.42,11.23,16.15,23.61,19.69,36.16.61,2.15,1.12,4.31,1.54,6.46,1.15,5.98-2.11,12.13-4.67,16.23-1.05,1.7-2.06,3.18-3.16,4.49-.59.7-1.22,1.35-1.9,1.95-.16.05-.28.16-.34.3-2.38,2.05-5.09,3.92-8.05,5.58-.01,0-.01.01-.02.02-2.19-1.48-4.7-2.45-7.33-2.83-.42-2.38-1.02-4.72-1.77-6.99.01-.02.02-.06.04-.1.4-1.71.79-3.3,1.23-4.84.35,1.03.95,2.13,1.84,3.1,1.46,1.65,3.75,2.82,5.94,2.84,2.19.11,4.09-.67,5.26-1.44.6-.39,1.02-.78,1.31-1.06.13-.14.24-.26.3-.34-.08.06-.19.17-.34.3-.31.24-.76.6-1.37.94-1.2.66-3.09,1.25-5.11,1-2.03-.18-4.01-1.36-5.22-2.9-1.25-1.54-1.77-3.32-1.85-4.57,0-.06-.04-.11-.1-.14.41-1.34.84-2.65,1.3-3.96.02.02.06.04.1.04Z" />
    <path class="cls-6"
      d="M113.24,122.1c-2.05-2.77-3.84-5.78-5.56-8.74.76-.06,1.5-.19,2.24-.37.63,1.99,1.73,3.78,3.24,5.22.17.16.52.51,1.01.55.05.01.11.01.16.01.48,0,1.22-.26,1.61-1.7.71-2.51,1.78-4.9,3.19-7.1,4.66-1.06,9.53-1.05,14.17.04.01.08.04.16.08.23,1.48,2.27,2.61,4.75,3.35,7.36.4,1.43,1.13,1.7,1.61,1.7h.16c.43-.06.73-.3,1.01-.57,1.61-1.54,2.78-3.49,3.37-5.63.58.13,1.17.23,1.77.29.06.01.11.01.17.01-1.38,3.04-3.08,5.93-5.05,8.62-1.01,1.38-2.23,2.8-3.77,3.54-.02-1.44-.52-2.88-1.37-4.04-.11-.17-.28-.25-.51-.25-.19.01-.37.11-.48.28l-2.74,4.31c-.34-.06-.67-.12-1.02-.18-1.34-.23-2.71-.47-4.09-.42-1.2.04-2.37.26-3.5.49-.26.05-.54.11-.81.16l-2.68-4.18c-.1-.17-.29-.28-.48-.28-.2,0-.39.08-.51.24-.84,1.17-1.34,2.6-1.37,4.04-1.03-.57-1.73-1.55-2.54-2.71-.22-.3-.43-.61-.65-.93Z" />
    <path class="cls-5"
      d="M134.37,126.03c-.72.08-1.43.06-2.17-.01l1.93-3.02c.47.91.7,1.94.67,2.96-.14.04-.29.06-.43.07Z" />
    <path class="cls-5"
      d="M118.22,126.2c-.22-.01-.41-.04-.6-.07-.02-1.02.22-2.05.67-2.95l1.87,2.92c-.65.08-1.29.12-1.94.1Z" />
    <path class="cls-5"
      d="M113.98,117.34c-1.35-1.31-2.36-2.92-2.91-4.7.91-.29,1.79-.63,2.67-.96.63-.24,1.25-.48,1.89-.71.6-.22,1.22-.4,1.83-.57-1.17,2-2.06,4.13-2.68,6.35-.17.6-.41.89-.47.82-.08-.01-.26-.18-.32-.23Z" />
    <path class="cls-5"
      d="M137.88,117.28c-.67-2.42-1.67-4.72-2.98-6.86.48.13.95.29,1.42.45.72.24,1.44.52,2.15.79,1.06.4,2.13.81,3.24,1.13-.53,1.94-1.59,3.68-3.03,5.08-.06.05-.24.22-.32.23-.08.06-.3-.22-.47-.82Z" />
    <path class="cls-2"
      d="M86.04,76.62c-.45-1.79-.94-3.59-1.49-5.35-.65-2.14-1.37-4.26-2.15-6.34-.59-1.55-1.31-3.48-.63-5.02.84-1.87,3.1-2.55,5.51-2.92.7-.11,1.42-.19,2.12-.28,1.54-.19,2.98-.37,4.13-.77,5.11-1.82,5.41-5.91,5.11-9.26l-.04-.39c-.37-4.16-.76-8.39-1.06-12.65.61,3.02,1.49,6.45,3.18,9.58,1.76,3.25,4.24,5.75,7.04,7.15-.34.17-.66.36-.99.55-9.43,5.72-16.81,14.98-20.73,25.7Z" />
    <path class="cls-2"
      d="M147.89,71.03c.37-.42.85-.79,1.4-1.08.81-.4,1.72-.61,2.59-.63.87,0,1.64.24,2.23.51-.49-.41-1.25-.81-2.18-.96-.91-.14-1.97-.06-2.96.3-.97.37-1.85,1.02-2.43,1.8-.29.39-.49.79-.65,1.18-.13.36-.24.67-.32.95l-.2.71-.2.71c-.29,1.12-.64,3.03-.73,4.99-.05.88-.06,1.76-.02,2.58v.02c-.22,2.39-.19,4.84.04,7.24-1.19,1.08-2.2,2.26-2.8,3.12.96-.81,2.45-2.03,4.02-3.06,1.56-1.03,3.2-1.87,4.15-2.32l.63-.3c.2-.11.42-.19.64-.28.97-.43,2.66-1.13,4.46-1.62,1.8-.52,3.71-.81,4.96-.97-1.24-.16-3.2-.17-5.11.14-.06.01-.11.01-.17.02.01-3.74-.11-7.65-2.07-10.94-.87-1.46-2.42-2.85-4.12-2.56-.41.07-.78.23-1.12.45ZM126.05,128.7c-.32-.01-.9.06-1.43.25-.54.19-1.03.51-1.3.77.76.04,2.12.12,2.68.18h.18s.18.02.18.02c.55.01,1.91.12,2.68.19-.23-.3-.69-.67-1.19-.94s-1.06-.42-1.38-.45l-.22-.02h-.2ZM114.46,93.51c-1.68,1.62-2.45,3.22-2.27,4.75.3,2.68,3.16,5.09,5.76,6.45,2.47,1.3,5.5,2,8.15,1.87.2.01.41.01.63.01,2.47,0,5.22-.69,7.5-1.88,2.59-1.36,5.45-3.75,5.76-6.44h0c.17-1.55-.6-3.15-2.27-4.77-.77-.73-1.56-1.38-2.32-2.01-1.25-1.01-2.43-1.97-3.42-3.25-.87-1.14-2.25-2.67-3.86-3.42-.25-.14-.52-.24-.79-.32-.23-.07-.47-.12-.7-.16-.02,0-.05,0-.07-.01-.36-.05-.7-.04-1.01.02-.13.01-.24.04-.35.06-.39.08-.77.23-1.09.4-1.65.77-3.03,2.29-3.9,3.43-.99,1.28-2.17,2.24-3.42,3.26-.76.63-1.55,1.26-2.31,2ZM100.52,110.02c1.1,2.14,3.49,3.16,5.76,3.35,1.85,3.16,3.75,6.44,5.98,9.46.23.3.43.6.64.89,1.05,1.48,2.03,2.9,3.86,3.45.41.13.88.22,1.4.24.17,0,.34.01.51.01,1.32,0,2.6-.25,3.84-.49,1.14-.23,2.21-.43,3.31-.47,1.26-.04,2.51.18,3.85.41,1.56.26,3.19.55,4.84.37.4-.05.78-.13,1.16-.25,2.23-.71,3.86-2.6,5.08-4.25,2.13-2.89,3.93-6.03,5.39-9.3,2.43-.12,4.99-1.13,6.26-3.32.3.28.79.72,1.23,1.25.47.54.88,1.19,1.17,1.62.02-.52-.12-1.34-.45-2.08-.32-.75-.83-1.4-1.18-1.71l-.22-.22-.24-.19c-.35-.3-1.06-.71-1.84-.94-.78-.24-1.61-.28-2.12-.18.47.23,1.16.55,1.76.95.36.23.69.47.95.7-1.05,2.02-3.51,2.89-5.72,2.92-.32.01-.65,0-.96-.04-2.01-.2-3.87-.91-5.86-1.67-.73-.28-1.47-.55-2.2-.81-5.74-1.95-11.96-2.26-17.86-.93-.13-.02-.26.01-.39.08-1.08.26-2.17.58-3.22.95-.65.23-1.29.47-1.93.72-1.07.41-2.09.81-3.14,1.09-.87.26-1.73.45-2.62.52-2.37.18-5.16-.78-6.08-2.98h.01s.2-.16.2-.16c.31-.24.85-.65,1.48-.97s1.34-.55,1.83-.71c-.48-.17-1.3-.24-2.11-.08-.81.14-1.54.51-1.91.79l-.24.18-.24.19c-.35.3-.88.94-1.2,1.68-.34.75-.46,1.56-.4,2.07.26-.45.64-1.08,1.11-1.61.17-.2.35-.39.52-.55ZM97.61,83.45c-1.93-.31-3.9-.3-5.14-.14,1.24.17,3.13.46,4.93.97,1.8.48,3.49,1.18,4.49,1.62.2.08.42.17.64.28l.61.3c.97.47,2.61,1.3,4.16,2.33,1.58,1.02,3.06,2.25,4.02,3.04-.6-.85-1.61-2.02-2.8-3.1.23-2.44.25-4.92.02-7.35.04-.81.02-1.67-.02-2.53-.1-1.96-.45-3.87-.73-4.97l-.19-.71-.22-.71c-.07-.26-.19-.58-.31-.93-.16-.38-.36-.79-.65-1.19-.57-.77-1.44-1.42-2.42-1.8-.97-.36-2.05-.46-2.97-.3-.93.14-1.68.54-2.18.95.58-.26,1.36-.49,2.21-.49s1.77.22,2.57.61c.58.3,1.08.7,1.47,1.13-.35-.25-.73-.42-1.17-.49-1.7-.29-3.25,1.11-4.13,2.56-1.95,3.28-2.07,7.18-2.07,10.94-.05-.01-.08-.01-.13-.02ZM83.67,121.63c-3.42-4.33-5.72-10.02-6.16-15.22-.36-4.14.9-8.37,3.45-11.58,1.11-.18,2.32-.52,3.36-1,.93-.41,1.72-.89,2.27-1.26.47-.34.78-.58.85-.64-.17.1-1.56.88-3.33,1.34-1.18.34-2.5.49-3.63.54-.66.02-1.26.01-1.72-.02-.01,0-.04.01-.05.02-1.34-.1-2.64-.42-3.85-.95-.32-.14-.88-.45-.89-.79-.01-.24.24-.54.46-.77,2.8-3,6.88-4.85,10.97-5.03.11,0,.23-.01.36-.01.97-.01,2.48.06,3.77.45,1.35.35,2.39.95,2.56,1.05-.17-.17-1.06-.97-2.35-1.61-1.19-.61-2.72-.99-3.8-1.06-.06-.02-.13-.04-.2-.02-.06,0-.12,0-.18.01h-.18c-.14,0-.28.01-.41.02,2.57-13.81,10.94-26.18,22.43-33.15,3.26-1.97,6.97-3.03,10.75-3.08.34,0,.6-.28.6-.61-.01-.32-.32-.59-.61-.59-.72.01-1.43.05-2.14.13-.72-.83-1.28-2.26-1.73-4.38-.12-.54-.22-1.22.1-1.61.38-.49,1.3-.42,1.8-.34,2.09.37,4.07,1.54,5.47,3.24.07.07.14.16.2.24.04.05.1.1.14.12.51.55,1.17,1.34,1.62,2.17.58,1.02.85,2.01.85,2.01,0,0,.04-1.02-.3-2.23-.22-.87-.66-1.78-1.11-2.45,2.11-2.92,4.58-4.75,7.98-5.9,3.55-1.2,7.34-1.48,10.95-.81.75.14,1.34.31,1.73.69,1.53,1.43-.37,5.15-1.25,6.68-1.07,1.87-2.57,3.49-5.04,5.16-.04-.02-.06-.02-.07-.01-1.06.65-3.08,1.66-4.99,2.11-1.91.48-3.6.46-3.6.46,0,0,1.65.32,3.69.13,1.52-.11,3.19-.58,4.42-1.11.94.69,5.31,5.32,4.8,7.83-.19.95-1.18,1.52-2.94,1.68-1.31.12-2.65-.19-3.95-.57-.01-.05-.02-.08-.05-.08-.1,0-.2,0-.31-.02-.1-.02-.2-.06-.3-.08-.11-.04-.23-.04-.34.01-.87-.13-1.94-.45-2.83-1.01-1.18-.7-1.93-1.67-2.01-1.79.02.06.14.34.37.72.26.43.69,1.02,1.28,1.55.7.69,1.68,1.22,2.59,1.53-.19.48-.47.94-.77,1.43l-.12.2c-.45.73-1.1,1.2-1.74,1.26-.64.07-1.31-.25-1.82-.53-1.9-1.06-3.48-2.65-4.51-4.56.04-.02.05-.06.04-.07-.1-.13-.19-.29-.29-.47-.05-.07-.08-.16-.12-.23-.04-.08-.08-.16-.16-.2-.42-.71-.88-1.61-1.17-2.49-.46-1.3-.59-2.5-.59-2.5,0,0-.18,1.19,0,2.65.11.96.41,2.01.76,2.84,0,.07.02.13.05.19,1.11,2.49,3.02,4.58,5.4,5.91.6.32,1.37.69,2.24.69.1,0,.19,0,.29-.01,1.02-.11,2.02-.79,2.65-1.84l.13-.2c.34-.57.67-1.11.9-1.74,1.4.4,2.94.78,4.49.64,2.19-.2,3.5-1,3.92-2.35.95-3.03-3.31-7.63-4.7-8.94.66-.4,1.3-.85,1.9-1.36,1.44.49,2.82,1.14,4.1,1.91,11.48,6.97,19.84,19.34,22.42,33.15-.25-.02-.51-.04-.77-.04-.1-.01-.19,0-.26.05h-.01c-1.29.01-2.84.23-4.14.69-.97.3-1.82.71-2.41,1.03-.52.29-.84.51-.93.55.18-.07,1.65-.72,3.48-1.01,1.36-.25,2.88-.24,4.08-.13.05.01.11.02.17.02.07,0,.13,0,.2.01h.02c.35.04.67.07.94.12.02,0,.05-.01.06-.05,3.8.37,7.51,2.18,10.11,4.96.22.23.47.53.46.77-.01.35-.57.65-.89.79-1.3.57-2.71.9-4.13.97-.01-.02-.04-.04-.05-.04-.18.01-.4.04-.63.05-.28,0-.54-.01-.82-.04-.13-.02-.26.01-.37.07,0,0,0,.01-.01.01-.97.01-2.11-.04-3.13-.22-1.66-.25-3.02-.75-3.19-.81.16.1,1.38.85,3.04,1.4,1.03.36,2.23.59,3.27.69,2.5,3.19,3.72,7.36,3.37,11.46-.45,5.2-2.76,10.89-6.17,15.22-.08.11-.29.37-.42.39-.07.01-.2-.02-.53-.32-.99-.96-1.76-2.14-2.2-3.44.94-1.07,2.03-2.57,2.78-4.03.99-1.82,1.5-3.49,1.56-3.68-.08.18-.87,1.74-2.07,3.37-1.09,1.53-2.57,3.06-3.61,4.04-.16.13-.3.26-.43.38h0c-8.11,7.4-15.82,11.43-25.3,13.2.83-.81,1.7-1.73,2.45-2.62,1.32-1.53,2.3-2.94,2.42-3.1-.14.14-1.34,1.36-2.85,2.68-1.37,1.23-3.01,2.5-4.14,3.39h-.01s-.05.01-.07.01c-.18.02-.34.13-.43.29-.81,1.4-4.33,3.39-6.46,4.3-1.65.7-3.04.6-4.97-.36-1.65-.81-2.97-2.03-4.37-3.35l-.02-.02s.01-.07,0-.08c-.11-.07-.23-.16-.36-.25,0,0-.01-.01-.02-.02l-.06-.05s-.1-.07-.14-.1c-.88-.63-2.07-1.53-3.02-2.47-1.13-1.07-1.95-2.14-2.05-2.27.06.16.64,1.37,1.59,2.67.42.59.91,1.18,1.42,1.72-10.81-1.94-20.64-6.81-28.54-14.17-.06-.06-.12-.1-.18-.12-.65-.67-1.48-1.6-2.13-2.51-.85-1.18-1.41-2.31-1.41-2.31,0,0,.26,1.23.89,2.61.43,1.02,1.12,2.12,1.73,2.91-.45,1.29-1.2,2.44-2.19,3.39-.31.3-.47.34-.52.32-.14-.01-.35-.28-.43-.39Z" />
    <path class="cls-2"
      d="M143.53,50.26c2.73-1.41,5.13-3.87,6.85-7.05,1.7-3.16,2.57-6.63,3.19-9.67-.3,4.3-.7,8.56-1.07,12.74l-.04.39c-.3,3.36,0,7.45,5.11,9.26,1.14.4,2.59.58,4.13.77,3.07.36,6.55.78,7.63,3.2.69,1.54-.04,3.47-.63,5.02-1.37,3.62-2.45,7.16-3.47,11.25-3.96-10.53-11.26-19.61-20.56-25.26-.37-.23-.76-.45-1.14-.65Z" />
    <path class="cls-6"
      d="M124.62,85.89c.25-.13.54-.23.83-.29l.16-.04s.08,0,.12-.01c.17-.04.37-.05.65-.02.02.01.06.01.08.02.17.01.35.06.51.11.19.06.4.13.61.24,1.41.66,2.65,2.03,3.44,3.07,1.07,1.4,2.36,2.45,3.61,3.47.75.6,1.52,1.24,2.24,1.94,1.4,1.35,2.05,2.61,1.91,3.75-.25,2.23-2.91,4.37-5.11,5.52-2.3,1.19-5.1,1.84-7.51,1.72h-.14c-2.42.12-5.21-.53-7.51-1.72-2.21-1.17-4.87-3.31-5.11-5.52-.13-1.14.51-2.41,1.91-3.75.72-.7,1.49-1.32,2.23-1.94,1.25-1.01,2.54-2.07,3.61-3.47.78-1.02,2.02-2.39,3.48-3.08ZM132.52,100.19c.29-.05.61-.22.6-.51-.01-.12-.08-.23-.16-.34-.79-1.16-1.6-2.31-2.41-3.47-.1-.14-.2-.3-.37-.37-1.24-.54-.81,2.15-.59,2.65.31.67.81,1.35,1.46,1.73.43.26.93.39,1.47.3ZM122.78,98.15c.22-.49.64-3.19-.59-2.65-.17.07-.28.23-.37.37-.81,1.16-1.61,2.31-2.41,3.47-.07.11-.14.22-.16.34-.01.29.31.46.6.51.54.08,1.03-.04,1.47-.3.64-.39,1.14-1.06,1.46-1.73Z" />
    <path class="cls-4"
      d="M149.03,74.47c-.13-1.16.6-3.14,1.97-2.19,1.18.82,1.59,3.28,1.58,4.58,0,.41-.07.87-.4,1.11-.29.23-.71.2-1.03.02-.33-.17-.57-.46-.79-.75-.64-.83-1.2-1.76-1.32-2.78Z" />
    <path class="cls-4"
      d="M103.71,77.1c-.55-.88-1.03-1.85-1.06-2.89-.04-1.16.88-3.07,2.15-2,1.09.93,1.28,3.42,1.15,4.72-.05.4-.14.85-.49,1.07-.31.19-.73.12-1.03-.07-.31-.2-.53-.52-.72-.83Z" />
    <path class="cls-4"
      d="M94.13,6.02c.57.15,1.06.44,1.4.94,1.46,2.12,1.06,6.11,1.18,8.58.14,3.01.21,6.03.4,9.05.32,5.02.98,10.08,2.79,14.77,1.81,4.69,4.87,9.03,9.17,11.64-.87.63-2.01,1.16-3.08,1.18-3.33-3.57-5.89-7.84-7.51-12.45-1.73-4.92-1.48-10.07-2.36-15.17-.68-3.91-1.16-7.82-1.83-11.71-.27-1.56-1.1-3.23-2.64-3.62-1.56-.39-3.07.72-4.27,1.79-.5.45-.99.91-1.48,1.37-6.94,6.65-12.34,14.71-16.9,23.12-4.39,8.1-9.53,17.22-9.52,26.68,0,5.58,2.4,10.96,5.87,15.33,3.46,4.37,7.94,7.82,12.58,10.92-1.27.61-3.01-.15-4.21-.89-3.54-2.2-7.4-5.27-9.5-8.91-2.26-3.93-5.26-7.2-6.45-11.72-1.03-3.88-.73-8.02.24-11.92.96-3.9,2.57-7.6,4.17-11.29,2.97-6.85,6.56-13.15,10.76-19.33,4.2-6.18,9.09-11.94,14.95-16.58,1.26-1,4.24-2.3,6.23-1.78Z" />
    <path class="cls-4"
      d="M157.04,6.02c-.57.15-1.06.44-1.4.94-1.47,2.12-1.06,6.11-1.18,8.58-.14,3.01-.21,6.03-.4,9.05-.32,5.02-.98,10.08-2.79,14.77-1.81,4.69-4.87,9.03-9.17,11.64.87.63,2.01,1.16,3.08,1.18,3.33-3.57,5.89-7.84,7.51-12.45,1.73-4.92,1.48-10.07,2.36-15.17.68-3.91,1.16-7.82,1.83-11.71.27-1.56,1.1-3.23,2.64-3.62,1.56-.39,3.07.72,4.27,1.79.5.45.99.91,1.48,1.37,6.94,6.65,12.34,14.71,16.9,23.12,4.39,8.1,9.53,17.22,9.52,26.68,0,5.58-2.4,10.96-5.87,15.33-3.46,4.37-7.94,7.82-12.58,10.92,1.27.61,3.01-.15,4.21-.89,3.54-2.2,7.4-5.27,9.5-8.91,2.26-3.93,5.26-7.2,6.45-11.72,1.03-3.88.73-8.02-.24-11.92-.96-3.9-2.57-7.6-4.17-11.29-2.97-6.85-6.56-13.15-10.76-19.33-4.2-6.18-9.09-11.94-14.95-16.58-1.26-1-4.24-2.3-6.23-1.78Z" />
    <path class="cls-4"
      d="M115.18,48.33c-.75-1.51-1.28-3.13-1.56-4.8-.11-.66-.15-1.43.3-1.92.33-.36.85-.48,1.34-.53,2.5-.26,5.42.56,6.9,2.59,4.43-4.61,10.83-7.26,17.22-7.15,1.14.02,2.33.14,3.31.73,1.93,1.17,2.41,3.88,1.7,6.02-.71,2.14-2.19,4.01-3.76,5.63,13.3,7.82,23.17,21.27,26.65,36.3-.68.42-1.61.36-2.31-.03-2.95-14.2-12.18-26.43-24.65-33.84-.65.34-1.29.65-1.94,1.03.32.41.23,1.06.58,1.43,1.07,1.1,2.18,2.25,2.72,3.69s.5,2.69-.67,3.7c.03-2.45-1.54-4.59-3.04-6.52-.45-.59-.92-1.18-1.56-1.56-.64-.38-1.49-.5-2.1-.09,3.6-2.79,6.93-5.71,8.53-10.12.41-1.14.68-2.5-.02-3.5-.69-.99-2.05-1.2-3.25-1.23-6.24-.14-12.06,3.28-15.99,8.12.75,1.05.9,2.49.39,3.67-1.35-2.96-3.79-5.4-6.74-6.77-.25-.12-.52-.23-.8-.19-2.06.32.34,6.01,1.43,5.75-8.25,2.04-15.38,7.52-20.61,14.22-5.23,6.7-8.73,14.59-11.57,22.61-.44-.03-1.29.14-1.73.11,1.28-7.91,4.82-15.66,9.49-22.17,2.59-3.61,5.59-6.96,9.17-9.59,3.58-2.63,8.11-5.1,12.53-5.58Z" />
    <path class="cls-4"
      d="M150.22,42.66c1.67-3.13,2.66-6.57,3.64-9.97.75,7.35-3.45,14.95-10.07,18.23-.33.16-.68-.61-.63-.79.06-.23.92-.55,1.12-.68.85-.56,1.65-1.2,2.38-1.92,1.44-1.42,2.61-3.09,3.56-4.87Z" />
    <path class="cls-4"
      d="M73.66,92.13c.26.43.88.51,1.34.33.47-.18.82-.56,1.19-.9,2.82-2.64,7.17-3.84,10.9-4.49,1.26-.22,2.57-.36,3.83-.09-3.13-1.61-6.72-1.2-10-.28-1.3.37-8.54,3.34-7.27,5.43Z" />
    <path class="cls-4"
      d="M82,119.91c-4.55-7.83-4.17-18.27.94-25.75-.22.32-2.37.4-2.9.85-.67.56-.99,1.53-1.33,2.34-.73,1.76-1.21,3.62-1.46,5.51-.49,3.82-.01,7.78,1.4,11.36.81,2.06,1.93,3.99,3.34,5.7Z" />
    <path class="cls-4"
      d="M177.42,92.13c-.26.43-.88.51-1.34.33-.47-.18-.82-.56-1.19-.9-2.82-2.64-7.17-3.84-10.9-4.49-1.26-.22-2.57-.36-3.83-.09,3.13-1.61,6.72-1.2,10-.28,1.3.37,8.54,3.34,7.27,5.43Z" />
    <path class="cls-4"
      d="M169.09,119.91c4.55-7.83,4.17-18.27-.94-25.75.22.32,2.37.4,2.9.85.67.56.99,1.53,1.33,2.34.73,1.76,1.21,3.62,1.46,5.51.49,3.82.01,7.78-1.4,11.36-.81,2.06-1.93,3.99-3.34,5.7Z" />
    <path class="cls-4"
      d="M109.1,117.27c.69,2.51,1.52,4.98,2.94,7.14,1.78,2.69,4.71,4.84,7.93,4.82,1.77,0,3.5-.44,5.27-.44,2.23,0,4.41.63,6.65.57,7.25-.21,11.75-7.78,13.24-14.07-1.72,2.63-3.86,5.74-6.18,7.86-1.55,1.42-4.29,3.41-6.44,3.49-4.29.15-8.49-.78-12.81-.27-.91.11-1.58.43-2.54.15-4.1-1.19-7.13-7.55-8.56-11.11.16.62.32,1.24.49,1.86Z" />
    <path class="cls-4"
      d="M114.71,97.97c.59-1.58,1.85-2.82,3.15-3.89,1.3-1.07,2.71-2.06,3.77-3.38,1.1-1.37,2.06-3.25,3.82-3.42,1.1-.11,2.14.54,2.89,1.35.75.81,1.3,1.78,2.01,2.62,1.44,1.69,3.49,2.72,5.22,4.12,1.73,1.4,3.23,3.49,2.85,5.68,1.26-1.27,1.27-3.39.52-5.02-.75-1.62-2.11-2.87-3.44-4.07-1.84-1.66-3.69-3.33-5.53-4.99-1.07-.96-2.27-1.98-3.71-2.01-1.59-.02-2.9,1.17-4.03,2.29-2.55,2.52-5.09,5.03-7.64,7.55-.84.83-1.72,1.73-1.94,2.9-.29,1.53.73,3.44,2.06,4.16.06-1.36-.52-2.47,0-3.87Z" />
    <path class="cls-4"
      d="M110.93,91.7c-1.21-.44-2.71-2.37-3.82-3.15-1.43-1.01-2.95-1.91-4.53-2.68-2.96-1.45-5.62-2.31-8.9-2.11,5.29,3.34,11.39,5.81,17.25,7.94Z" />
    <path class="cls-4"
      d="M141.71,91.99c1.21-.44,2.71-2.37,3.82-3.15,1.43-1.01,2.95-1.91,4.53-2.68,2.96-1.45,5.62-2.31,8.9-2.11-5.29,3.34-11.39,5.81-17.25,7.94Z" />
    <path class="cls-4" d="M192.81,57.19c.08.07.17.13.26.19l-.3.02c.01-.07.02-.14.04-.22Z" />
    <path class="cls-4"
      d="M244.92,65.14s-.02.01-.06.04c-8.21-6.27-18.01-10.18-27.87-13.3-5.33-1.67-10.62-2.96-16.24-2.79-3.31.1-6.02,2.82-7.29,5.93-.17-.66-.34-1.31-.53-1.97,1.29-2.27,2.42-4.21,4.9-4.68,7.06-1.36,20.08,2.76,23.9,4.05,4.98,1.68,9.81,3.84,14.33,6.39,2.29,1.29,4.52,2.7,6.64,4.18.19.13.41.26.64.41.6.37,1.29.79,1.5,1.31.12.28.1.41.08.43Z" />
    <path class="cls-4"
      d="M6.21,65.08s.02.01.06.04c8.21-6.27,18.01-10.18,27.87-13.3,5.33-1.67,10.62-2.96,16.24-2.79,3.31.1,6.02,2.82,7.29,5.93.17-.66.34-1.31.53-1.97-1.29-2.27-2.42-4.21-4.9-4.68-7.06-1.36-20.08,2.76-23.9,4.05-4.98,1.68-9.81,3.84-14.33,6.39-2.29,1.29-4.52,2.7-6.64,4.18-.19.13-.41.26-.64.41-.6.37-1.29.79-1.5,1.31-.12.28-.1.41-.08.43Z" />
    <path class="cls-3"
      d="M243.27,65.39c.14-.07.3-.08.43-.05.16.04.29.14.37.29.16.28.07.6-.18.78-.41-.06-.79-.19-1.14-.4-.1-.06-.2-.12-.3-.18.28-.14.54-.3.82-.45Z" />
    <path class="cls-3"
      d="M217.56,96.01c-.2-6.09,2.49-12.63,7.52-18,4.95-5.27,11.23-8.81,17.38-12.18.1.06.2.12.3.18.35.2.73.34,1.14.4-.01.01-.04.02-.05.04-6.33,3.45-12.86,7.03-17.89,12.39-5.52,5.88-8.11,13.25-6.92,19.69.01.1.01.19-.02.28-.47-.94-.95-1.87-1.46-2.79Z" />
    <path class="cls-3"
      d="M217.85,98.74c-.17-.89-.26-1.8-.29-2.73.51.93.99,1.85,1.46,2.79-.05.22-.23.39-.47.43h-.11c-.2,0-.4-.11-.51-.29-.04-.06-.07-.13-.08-.2Z" />
    <path class="cls-3"
      d="M215.43,99.65c.6.26,1.19.55,1.77.88.29.16.38.53.23.82-.13.22-.37.34-.6.3-.49-.54-.95-1.26-1.4-2Z" />
    <path class="cls-3"
      d="M217.79,99.02c-6.22-12.23-14.11-23.48-23.5-33.49.1-.42.17-.85.23-1.29.14.01.28.07.37.18,8.94,9.48,16.56,20.09,22.67,31.59.02.93.12,1.84.29,2.73.01.07.05.14.08.2l-.14.07Z" />
    <path class="cls-3"
      d="M194.04,67.47c5.07,4.85,8.99,10.58,13.13,16.64l1.59,2.32c1.23,1.78,2.49,3.96,3.72,6.06,1.18,2.05,2.41,4.15,3.59,5.87.08.12.19.3.32.53.36.59,1.44,2.41,2.08,2.49.02,0,.07,0,.16-.07.25-.24-.26-1.2-.46-1.56l-.14-.28c-.07-.16-.16-.3-.23-.46l.14-.07c.11.18.3.29.51.29h.11c.24-.05.42-.22.47-.43.02.05.05.08.07.13l.13.25c.4.75,1.14,2.13.23,3-.28.26-.61.41-.96.41-.06,0-.12,0-.19-.01-.52-.08-1-.43-1.47-.94.23.04.47-.08.6-.3.16-.29.06-.66-.23-.82-.58-.32-1.17-.61-1.77-.88-.04-.05-.06-.08-.08-.13-.12-.19-.22-.36-.29-.47-1.19-1.74-2.43-3.87-3.63-5.94-1.2-2.08-2.47-4.24-3.67-5.99l-1.59-2.32c-4.03-5.9-7.85-11.49-12.72-16.2.14-.41.28-.82.38-1.24h.01c.07.02.13.07.19.12Z" />
    <path class="cls-3"
      d="M195.6,53.01c1.74-2.5,4.22-2.9,6.17-2.96,6.99-.23,15.19,1.74,24.41,5.88,5.39,2.41,10.85,5.28,17.18,9.05.12.07.25.13.4.17l-.06.19c-.13-.04-.29-.02-.43.05-.28.14-.54.3-.82.45-6.17-3.66-11.49-6.45-16.76-8.81-9.05-4.05-17.1-6-23.87-5.78-2.53.07-4.09.81-5.23,2.45-.97,1.38-1.48,3.07-1.97,4.69-.06.17-.17.3-.31.36-.13-.67-.28-1.36-.43-2.03.42-1.29.93-2.56,1.73-3.72Z" />
    <path class="cls-3"
      d="M194.52,64.25c-.06.43-.13.87-.23,1.29-.08-.1-.17-.19-.26-.29-.23-.24-.22-.63.02-.85.13-.12.3-.17.47-.14Z" />
    <path class="cls-3"
      d="M193.87,56.73c.16.67.3,1.36.43,2.03-.13.07-.29.1-.43.05-.32-.1-.51-.43-.41-.75.13-.45.26-.89.41-1.34Z" />
    <path class="cls-3"
      d="M221.72,52.42c-3.81-1.3-16.83-5.41-23.9-4.05-2.48.47-3.61,2.41-4.9,4.68-.14-.54-.29-1.07-.46-1.6,1.17-1.96,2.55-3.78,5.13-4.27,7.35-1.4,20.62,2.79,24.51,4.1,5.05,1.71,9.95,3.89,14.54,6.47,2.32,1.31,4.6,2.74,6.75,4.25.17.12.36.24.57.37.76.46,1.62,1,1.99,1.87.32.76.18,1.25,0,1.54-.17.28-.55.63-1.36.67h-.2c-.16,0-.32-.01-.48-.04.25-.18.34-.51.18-.78-.08-.14-.22-.25-.37-.29l.06-.19c.24.08.49.11.75.1.3-.02.4-.1.41-.11.01-.02.04-.16-.08-.43-.22-.52-.9-.94-1.5-1.31-.23-.14-.45-.28-.64-.41-2.12-1.48-4.36-2.89-6.64-4.18-4.52-2.55-9.35-4.7-14.33-6.39Z" />
    <path class="cls-3"
      d="M193.83,67.35c-.11.42-.24.83-.38,1.24-.08-.08-.17-.16-.25-.24-.24-.23-.24-.61-.01-.85.17-.18.43-.23.65-.14Z" />
    <path class="cls-3"
      d="M192.47,51.44c.17.53.31,1.06.46,1.6-.01.02-.02.05-.04.07-.17.29-.53.39-.82.23-.14-.08-.25-.23-.29-.37-.04-.16-.02-.31.06-.46.2-.36.41-.72.63-1.07Z" />
    <path class="cls-3"
      d="M190.03,108.2c2.31-4.24,6.24-7.58,10.85-9.18,4.7-1.61,10.01-1.37,14.55.63.45.73.9,1.46,1.4,2-.08,0-.16-.02-.23-.07-4.58-2.61-10.31-3.13-15.32-1.41-5.01,1.72-9.14,5.64-11.08,10.49-.02.06-.06.12-.1.16v-.26c-.02-.78-.05-1.56-.07-2.35Z" />
    <path class="cls-3"
      d="M190.1,110.81h0c-.11.14-.28.22-.46.22-.07,0-.16-.01-.23-.04-.3-.12-.46-.47-.34-.78.28-.69.59-1.36.95-2.01.02.78.05,1.56.06,2.35v.26Z" />
    <path class="cls-3" d="M187.85,110.78c.06.12.08.24.06.36-.02-.13-.05-.26-.07-.4,0,.01,0,.02.01.04Z" />
    <path class="cls-3"
      d="M188.89,110.56c-.16-9.64-1.29-19.29-3.36-28.73.35-.36.67-.73,1-1.12,2.03,9.04,3.21,18.27,3.5,27.49-.36.65-.67,1.32-.95,2.01-.12.31.04.66.34.78.07.02.16.04.23.04.18,0,.35-.07.46-.2.04.84.11,2.42-1.09,2.8-.17.05-.32.07-.47.07-.26,0-.52-.07-.75-.23-.6-.4-.91-1.26-1.09-2.3.04.05.06.1.08.14.11.2.31.33.54.33.08,0,.18-.01.26-.06.18-.08.3-.25.32-.45.12.61.3,1.17.55,1.34.02.02.06.04.17.01.32-.11.29-1.2.26-1.61v-.31Z" />
    <path class="cls-3"
      d="M186.47,80.45c.02.08.04.17.06.25-.32.38-.65.76-1,1.12-.06-.37-.14-.73-.23-1.11-.05-.18,0-.36.11-.51.08-.1.19-.17.34-.2.32-.08.65.12.72.45Z" />
    <path class="cls-3"
      d="M186.7,111.17c-.1-.54-.16-1.14-.22-1.74-.02-.23-.04-.42-.06-.54-.02-.13-.04-.28-.06-.42.57.7,1.06,1.44,1.47,2.25t.01.02c.02.13.05.26.07.4-.02.19-.14.36-.32.45-.08.05-.18.06-.26.06-.23,0-.43-.12-.54-.33-.02-.05-.05-.1-.08-.14Z" />
    <path class="cls-3"
      d="M194.4,59.24c.32,1.68.32,3.36.12,5.01-.17-.02-.34.02-.47.14-.24.23-.25.61-.02.85.1.1.18.19.26.29-.12.61-.28,1.23-.44,1.82h-.01c-.22-.08-.48-.04-.65.14-.23.24-.23.63.01.85.08.08.17.16.25.24-1.03,2.94-2.55,5.61-3.87,7.74-1.01,1.64-1.99,3.09-3.04,4.38-.02-.08-.04-.17-.06-.25-.07-.32-.4-.53-.72-.45-.14.04-.25.11-.34.2l-.02-.02c1.11-1.31,2.12-2.79,3.16-4.49,2.56-4.1,5.82-10.25,4.67-16.23-.42-2.15-.93-4.31-1.54-6.46l.11-.04c.04.14.14.29.29.37.29.16.65.06.82-.23.01-.02.02-.05.04-.07.35,1.23.66,2.45.94,3.68-.14.45-.28.89-.41,1.34-.1.31.08.65.41.75.14.05.3.02.43-.05.04.16.06.32.1.48Z" />
    <path class="cls-3"
      d="M184.63,92.17c-.42-2.88-.84-5.6-1.34-8.29.25-.19.49-.4.73-.6.11-.1.22-.19.32-.3.55,2.94,1,5.88,1.47,9.01l.42,2.79c.32,2.14.52,4.64.7,7.08.18,2.36.37,4.79.67,6.85.02.14.05.36.06.61.04.29.08.84.16,1.4-.41-.81-.9-1.55-1.47-2.25-.28-2.01-.45-4.3-.61-6.51-.19-2.41-.37-4.9-.7-6.99l-.42-2.79Z" />
    <path class="cls-3"
      d="M183.48,82.14c.69-.6,1.31-1.25,1.9-1.95l.02.02c-.11.14-.16.32-.11.51.08.37.17.73.23,1.11-.37.41-.77.79-1.18,1.16-.02-.13-.05-.28-.07-.41-.06-.32-.37-.53-.7-.47-.04,0-.07.01-.1.04Z" />
    <path class="cls-3"
      d="M184.02,83.28c-.24.2-.48.41-.73.6-.06-.36-.12-.72-.19-1.08-.02-.13-.01-.25.05-.36.02-.02.06-.05.08-.07.08-.07.17-.14.25-.23.02-.02.06-.04.1-.04.32-.06.64.14.7.47.02.13.05.28.07.41-.11.11-.22.2-.32.3Z" />
    <path class="cls-3" d="M183.48,82.14c-.08.08-.17.16-.25.23-.02.02-.06.05-.08.07.06-.14.18-.25.34-.3Z" />
    <path class="cls-3"
      d="M176.12,88.82c-.35-.26-.7-.53-1.05-.77.01-.01.01-.02.02-.02,2.96-1.66,5.67-3.54,8.05-5.58-.06.11-.07.23-.05.36.07.36.13.72.19,1.08-2.18,1.79-4.57,3.45-7.17,4.93Z" />
    <path class="cls-3"
      d="M175.4,89.14c-.22,0-.42-.11-.53-.3-.17-.28-.07-.64.2-.79.35.24.7.51,1.05.77-.14.08-.29.17-.43.25-.1.05-.19.07-.29.07Z" />
    <path class="cls-3"
      d="M186.7,111.17c-2.14-4.18-6.81-6.92-11.5-6.83-.01-.4-.04-.79-.08-1.18,4.28-.13,8.57,1.95,11.25,5.31.02.14.04.29.06.42.02.12.04.31.06.54.06.6.12,1.2.22,1.74Z" />
    <path class="cls-3"
      d="M175.11,103.16c.05.39.07.78.08,1.18-.1,0-.19.01-.29.01-.31.05-.61-.23-.63-.57-.01-.34.24-.61.57-.63.08,0,.18-.01.26,0Z" />
    <path class="cls-3" d="M172.46,93.83c-.23,0-.45.01-.67.01.23-.01.45-.04.63-.05.01,0,.04.01.05.04Z" />
    <path class="cls-3" d="M170.97,93.81c.28.02.54.04.82.04-.36.02-.76.04-1.19.04.11-.06.24-.1.37-.07Z" />
    <path class="cls-3"
      d="M172.5,95c-.51.05-1.18.04-1.91-.05-.05-.06-.08-.11-.13-.17-.14-.19-.17-.45-.06-.66.05-.1.11-.17.19-.23.01,0,.01-.01.01-.01.43,0,.83-.01,1.19-.04.23,0,.45-.01.67-.01.14.18.2,1.16.04,1.17Z" />
    <path class="cls-3"
      d="M174.66,66.78c-2.08.35-4.01.36-5.37.31-.04,0-.07-.01-.1-.04.14-.39.28-.77.43-1.16,1.3.05,3.03.08,4.89-.13,1.99-.22,4.13-.78,5.85-1.84,1.76-1.02,3.03-2.47,3.71-3.65.35-.59.54-1.12.67-1.48.08-.28.14-.47.17-.54-.01.08-.06.28-.12.55-.1.37-.25.93-.55,1.55-.59,1.26-1.79,2.86-3.54,4.07-1.73,1.24-3.97,2-6.04,2.35Z" />
    <path class="cls-3" d="M169.34,65.89c.1,0,.19.01.29.01-.16.39-.29.77-.43,1.16-.3-.18-.22-1.18.14-1.17Z" />
    <path class="cls-3"
      d="M163.92,55.62c2.15-1.12,4.96-3.18,7.22-6.17,2.27-2.96,3.91-6.85,4.27-10.64.43-3.78-.26-7.3-1.09-9.71-.41-1.22-.88-2.15-1.19-2.8-.22-.4-.37-.69-.46-.84.1.14.28.42.51.82.34.64.85,1.55,1.31,2.76.95,2.38,1.82,5.93,1.52,9.84-.22,3.9-1.76,8.01-4.04,11.18-1.94,2.73-4.34,4.75-6.43,6.03-.58-.13-1.17-.24-1.77-.32.04-.05.08-.1.16-.13Z" />
    <path class="cls-3"
      d="M168,71.16c.08,1.25.6,3.03,1.85,4.57,1.22,1.54,3.19,2.72,5.22,2.9,2.02.25,3.91-.34,5.11-1,.61-.34,1.06-.7,1.37-.94.14-.13.25-.24.34-.3-.06.07-.17.19-.3.34-.29.28-.71.67-1.31,1.06-1.17.77-3.07,1.55-5.26,1.44-2.19-.02-4.49-1.19-5.94-2.84-.89-.97-1.49-2.07-1.84-3.1.22-.77.43-1.53.66-2.27.06.04.1.08.1.14Z" />
    <path class="cls-3" d="M167.9,71.02c-.23.75-.45,1.5-.66,2.27-.26-.73-.4-1.43-.43-2.03-.04-.39.81-.45,1.09-.24Z" />
    <path class="cls-3"
      d="M167.31,94.27c-1.66-.54-2.89-1.3-3.04-1.4.17.06,1.53.55,3.19.81,1.02.18,2.15.23,3.13.22-.08.06-.14.13-.19.23-.11.22-.08.47.06.66.05.06.08.11.13.17-1.05-.1-2.24-.32-3.27-.69Z" />
    <path class="cls-3"
      d="M167.27,86.04c.34-.06.55-.37.49-.7-.01-.04-.01-.08-.02-.12,2.62.37,5.14,1.35,7.33,2.83-.28.16-.37.52-.2.79.11.19.31.3.53.3.1,0,.19-.02.29-.07.14-.08.29-.17.43-.25.63.51,1.23,1.06,1.78,1.65.41.45.82.97.78,1.66-.04.76-.58,1.37-1.6,1.83-1.44.64-3.01,1-4.58,1.07v-.02c.17-.01.11-.99-.04-1.17,1.42-.07,2.83-.41,4.13-.97.32-.14.88-.45.89-.79.01-.24-.24-.54-.46-.77-2.6-2.78-6.31-4.58-10.11-4.96.05-.05.1-.17.13-.31.04.02.08.02.13.02.02,0,.06,0,.1-.01Z" />
    <path class="cls-3"
      d="M167.02,85.19c-.16-.02-.34-.05-.53-.06,0-.01,0-.04-.01-.05.42.02.84.07,1.26.13.01.04.01.08.02.12.06.32-.16.64-.49.7-.04.01-.07.01-.1.01-.05,0-.1,0-.13-.02.07-.32.11-.81-.02-.83Z" />
    <path class="cls-3" d="M165.91,86.27c.34,0,.66.02,1,.07-.01.04-.04.05-.06.05-.26-.05-.59-.08-.94-.12Z" />
    <path class="cls-3"
      d="M166.58,85.56c-.02-.14-.05-.28-.08-.42.19.01.37.04.53.06.13.02.1.51.02.83-.23-.05-.42-.23-.47-.47Z" />
    <path class="cls-3"
      d="M165.1,85.64c.01-.22.14-.43.34-.54h.01c.37-.01.73,0,1.05.04.04.14.06.28.08.42.05.24.24.42.47.47-.04.14-.08.26-.13.31-.34-.05-.66-.07-1-.07h-.02c-.12-.02-.25-.04-.37-.04-.24-.07-.42-.31-.42-.59Z" />
    <path class="cls-3" d="M165.89,86.27c-.07-.01-.13-.01-.2-.01-.06,0-.12-.01-.17-.02.12,0,.25.01.37.04Z" />
    <path class="cls-3"
      d="M165.71,85.05c.26,0,.52.01.77.04.01.01.01.04.01.05-.31-.04-.67-.05-1.05-.04.07-.05.17-.06.26-.05Z" />
    <path class="cls-3"
      d="M165.24,76.17c.26.69.51,1.37.73,2.06-.08.23-.31.37-.55.37-.05,0-.08-.01-.13-.01-.33-.08-.53-.41-.45-.72.13-.58.26-1.14.4-1.7Z" />
    <path class="cls-3"
      d="M164.63,118.25c.45,1.3,1.22,2.48,2.2,3.44.32.3.46.34.53.32.13-.01.34-.28.42-.39,3.42-4.33,5.73-10.02,6.17-15.22.35-4.09-.87-8.27-3.37-11.46.73.08,1.41.1,1.91.05v.02c-.12,0-.23.01-.35.01,1.64,2.39,2.66,5.21,2.96,8.12-.08-.01-.18,0-.26,0-.32.01-.58.29-.57.63.01.34.31.61.63.57.1,0,.19-.01.29-.01.04.72.01,1.46-.05,2.18-.46,5.43-2.86,11.36-6.41,15.86-.2.26-.59.75-1.2.83-.67.1-1.19-.32-1.53-.65-.99-.94-1.77-2.08-2.3-3.35h-.01c.28-.26.59-.59.94-.96Z" />
    <path class="cls-3" d="M163.76,55.75c.6.08,1.19.19,1.77.32-.36.23-.71.42-1.05.6-.61.35-1.09-.49-.72-.93Z" />
    <path class="cls-3"
      d="M163.29,117.95c1.03-.99,2.51-2.51,3.61-4.04,1.2-1.62,1.99-3.19,2.07-3.37-.06.19-.58,1.86-1.56,3.68-.75,1.46-1.84,2.96-2.78,4.03-.04-.08-.07-.18-.1-.26-.06-.2-.22-.35-.42-.41-.2-.05-.41,0-.57.14-.08.08-.17.16-.25.23Z" />
    <path class="cls-3"
      d="M163.29,117.95c.08-.07.17-.14.25-.23.16-.14.36-.19.57-.14.2.06.36.2.42.41.02.08.06.18.1.26-.35.37-.66.7-.94.95h-.01c-.16.17-.93-.69-.82-.85h0c.13-.13.28-.26.43-.4Z" />
    <path class="cls-3"
      d="M161.29,85.78c1.3-.46,2.85-.67,4.14-.69-.19.11-.32.32-.34.54,0,.28.18.52.42.59-1.2-.11-2.72-.12-4.08.13-1.83.29-3.3.94-3.48,1.01.08-.05.41-.26.93-.55.59-.32,1.43-.73,2.41-1.03Z" />
    <path class="cls-3"
      d="M155.37,10.72c.12,3.12.1,6.24-.08,9.36-.06-.28-.3-.48-.59-.49-.34,0-.6.28-.6.6h-.01c.18-3.14.22-6.28.08-9.42-.05-1.34-.16-3.8,1.54-5.02.84-.6,2.01-.77,3.2-.45,5.9,1.55,10.31,6.37,14.01,10.76,9.22,10.99,15.88,23.08,19.55,35.38-.22.35-.42.71-.63,1.07-.08.14-.1.3-.06.46l-.11.04c-3.54-12.55-10.26-24.93-19.69-36.16-3.56-4.26-7.83-8.92-13.38-10.38-.84-.22-1.66-.12-2.2.26-1.07.77-1.09,2.47-1.03,3.99Z" />
    <path class="cls-3"
      d="M153.57,33.54c.3-4.44.52-8.9.53-13.34,0-.32.26-.6.6-.6.29.01.53.22.59.49v.04c-.24,4.31-.78,8.59-1.6,12.81-.04.19-.08.4-.12.6Z" />
    <path class="cls-3"
      d="M152.5,46.28c.37-4.19.77-8.45,1.07-12.74.04-.2.08-.41.12-.6.82-4.22,1.36-8.51,1.6-12.81.01.02.01.06.01.08-.02,8.78-.83,17.63-1.6,26.18l-.04.39c-.41,4.4.89,6.81,4.32,8.03,1.01.36,2.39.52,3.86.7.63.07,1.28.16,1.91.25-.37.43.11,1.28.72.93.34-.18.69-.37,1.05-.6,2.14.49,4.03,1.38,4.9,3.33.89,1.99.04,4.27-.59,5.93-.07.19-.14.37-.2.57-.1,0-.19-.01-.29-.01-.36-.01-.45.99-.14,1.17-.46,1.31-.89,2.62-1.3,3.96-.29-.2-1.13-.14-1.09.24.04.6.17,1.3.43,2.03-.43,1.54-.83,3.13-1.23,4.84-.01.04-.02.07-.04.1-.23-.69-.47-1.37-.73-2.06,1.01-4.09,2.09-7.63,3.47-11.25.59-1.55,1.31-3.48.63-5.02-1.08-2.42-4.56-2.84-7.63-3.2-1.54-.19-2.98-.37-4.13-.77-5.11-1.82-5.41-5.91-5.11-9.26l.04-.39Z" />
    <path class="cls-3"
      d="M152.31,108.93c.3.14.42.51.28.81-.06.13-.13.25-.2.37-.02-.02-.04-.04-.05-.05l-.19-.17-.2-.17c-.13-.11-.3-.25-.49-.41.02-.04.04-.07.06-.11.14-.3.51-.42.81-.28Z" />
    <path class="cls-3"
      d="M151.44,109.32c-.26-.23-.59-.47-.95-.7-.6-.4-1.29-.72-1.76-.95.51-.1,1.34-.06,2.12.18.78.23,1.49.64,1.84.94l.24.19.22.22c.35.31.85.96,1.18,1.71.32.75.47,1.56.45,2.08-.29-.43-.7-1.08-1.17-1.62-.43-.53-.93-.97-1.23-1.25.07-.12.14-.24.2-.37.14-.3.02-.66-.28-.81s-.66-.02-.81.28c-.02.04-.04.07-.06.11Z" />
    <path class="cls-3"
      d="M147.89,71.03c.34-.22.71-.37,1.12-.45,1.7-.29,3.25,1.11,4.12,2.56,1.96,3.29,2.08,7.2,2.07,10.94-1.85.3-3.61.88-4.61,1.32-.23.1-.46.18-.67.29l-.65.31c-1.02.49-2.66,1.49-4.14,2.74-.24.19-.47.4-.7.6-.23-2.41-.25-4.85-.04-7.24.04,1.01.13,1.91.25,2.6.11-1.26.28-3.24.61-5.13.31-1.89.78-3.71,1.06-4.75l.19-.69.2-.69c.07-.25.17-.57.28-.9.11-.3.24-.63.45-.94.12-.2.28-.4.46-.59Z" />
    <path class="cls-3"
      d="M152.38,110.11c-1.26,2.19-3.83,3.2-6.26,3.32.06-.12.11-.23.16-.35.13-.31-.01-.66-.31-.79-.08-.04-.16-.05-.24-.05,2.2-.04,4.67-.9,5.72-2.92.19.16.36.3.49.41l.2.17.19.17s.02.02.05.05Z" />
    <path class="cls-3"
      d="M146.12,113.43c-.17.01-.34.01-.51.01-.26,0-.54-.01-.81-.04.12-.26.24-.53.36-.81.1-.23.31-.36.55-.36.08,0,.16.01.24.05.3.13.45.48.31.79-.05.12-.1.23-.16.35Z" />
    <path class="cls-3"
      d="M145.12,88.76c1.48-1.25,3.12-2.25,4.14-2.74l.65-.31c.22-.11.45-.19.67-.29,1-.45,2.76-1.02,4.61-1.32v.41c-3.68,1.24-7.85,2.91-10.72,5.43-.02-.19-.04-.37-.05-.57.23-.2.46-.41.7-.6Z" />
    <path class="cls-3"
      d="M145.26,79.59c-.34,1.89-.51,3.86-.61,5.13-.12-.69-.22-1.59-.25-2.6v-.02c.1-1.03.23-2.07.41-3.09.36-2.11.9-6.49,3.09-7.97-.18.19-.34.39-.46.59-.2.31-.34.64-.45.94-.11.34-.2.65-.28.9l-.2.69-.19.69c-.28,1.05-.75,2.86-1.06,4.75Z" />
    <path class="cls-3"
      d="M144.41,79.51c.1-1.96.45-3.87.73-4.99l.2-.71.2-.71c.08-.28.19-.59.32-.95.16-.39.36-.79.65-1.18.58-.78,1.46-1.43,2.43-1.8.99-.36,2.05-.44,2.96-.3.93.16,1.68.55,2.18.96-.59-.26-1.36-.51-2.23-.51-.87.01-1.78.23-2.59.63-.54.29-1.02.66-1.4,1.08-2.19,1.48-2.73,5.86-3.09,7.97-.18,1.02-.31,2.06-.41,3.09-.04-.82-.02-1.7.02-2.58Z" />
    <path class="cls-3"
      d="M145.64,89.42c-1.56,1.02-3.06,2.25-4.02,3.06.6-.85,1.61-2.03,2.8-3.12.01.19.02.37.05.57,2.88-2.51,7.04-4.19,10.72-5.43v-.41c.06-.01.11-.01.17-.02,1.91-.31,3.87-.3,5.11-.14-1.25.17-3.15.46-4.96.97-1.8.49-3.49,1.19-4.46,1.62-.22.08-.43.17-.64.28l-.63.3c-.95.46-2.59,1.29-4.15,2.32Z" />
    <path class="cls-3"
      d="M143.53,50.26c-.46-.24-.91-.47-1.38-.67,2.86-1.19,5.39-3.66,7.17-6.94,1.73-3.22,2.59-6.83,3.19-9.94.79-4.13,1.32-8.31,1.58-12.51h.01c-.01,4.44-.23,8.9-.53,13.34-.61,3.04-1.49,6.51-3.19,9.67-1.72,3.18-4.12,5.64-6.85,7.05Z" />
    <path class="cls-3"
      d="M142.15,49.59c.47.2.93.43,1.38.67-.34.18-.66.32-1,.47-.3.13-.65-.02-.78-.33-.12-.31.02-.66.32-.78.02-.01.05-.02.07-.04Z" />
    <path class="cls-3"
      d="M141.74,112.66c.08-.32.42-.52.73-.42.32.08.52.41.43.73-.01.05-.02.08-.04.13-.4-.1-.78-.19-1.17-.31.01-.05.02-.08.04-.13Z" />
    <path class="cls-3"
      d="M144.06,51.94c-1.29-.77-2.66-1.42-4.1-1.91.35-.29.69-.59,1.01-.91.4.14.79.31,1.18.48-.02.01-.05.02-.07.04-.3.12-.45.47-.32.78.13.3.48.46.78.33.34-.14.66-.29,1-.47.39.2.77.42,1.14.65,9.3,5.64,16.6,14.73,20.56,25.26-.13.55-.26,1.12-.4,1.7-.08.31.12.64.45.72.05,0,.08.01.13.01.24,0,.47-.14.55-.37.75,2.27,1.35,4.61,1.77,6.99-.42-.06-.84-.11-1.26-.13-2.57-13.81-10.94-26.18-22.42-33.15Z" />
    <path class="cls-3"
      d="M142.43,125.8c-.12.17-1.09,1.58-2.42,3.1-.76.89-1.62,1.82-2.45,2.62h-.01c-.69.13-1.4.24-2.11.35,1.13-.89,2.77-2.17,4.14-3.39,1.52-1.32,2.71-2.54,2.85-2.68Z" />
    <path class="cls-3"
      d="M140.29,48.86c.23.08.46.16.69.25-.32.32-.66.63-1.01.91-.02-.01-.05-.01-.07-.02-.31-.11-.48-.45-.37-.77.11-.31.46-.47.77-.37Z" />
    <path class="cls-3"
      d="M163.7,119.21c-8.83,8.04-17.21,12.2-27.81,13.83.47-.39,1.05-.91,1.65-1.5h.01c9.48-1.77,17.19-5.8,25.3-13.19-.11.17.66,1.02.82.87h.01s.01,0,.01,0Z" />
    <path class="cls-3"
      d="M137.95,51.39c-.29.18-.66.37-1.08.55-.02-.02-.05-.04-.06-.05-.17-.04-.31-.14-.4-.31-.16-.29-.04-.65.26-.81.25-.13.51-.26.75-.41.19.1.59.77.55.97,0,.02,0,.04-.02.05Z" />
    <path class="cls-3"
      d="M135.98,126.35c.02-.25.02-.52.01-.78,1.54-.73,2.76-2.15,3.77-3.54,1.97-2.68,3.67-5.57,5.05-8.62.26.02.54.04.81.04.17,0,.34,0,.51-.01-1.46,3.27-3.26,6.41-5.39,9.3-1.22,1.65-2.85,3.54-5.08,4.25l-.05-.13c.2-.07.35-.26.37-.51Z" />
    <path class="cls-3" d="M135.89,133.04c-.07.06-.14.12-.2.17h-.01s.08-.11.12-.16c.04,0,.06-.01.1-.01Z" />
    <path class="cls-3"
      d="M135.8,133.05s-.07.11-.12.16c-.19.1-.9-.82-.75-.94.14-.12.31-.24.49-.39h.01c.71-.11,1.42-.22,2.11-.35-.6.59-1.18,1.12-1.65,1.5-.04,0-.06.01-.1.01Z" />
    <path class="cls-3"
      d="M136.72,117.61c-.73-2.61-1.87-5.09-3.35-7.36-.05-.07-.07-.14-.08-.23.54.12,1.07.25,1.6.41,1.31,2.14,2.31,4.44,2.98,6.86.17.6.39.88.47.82.08-.01.26-.18.32-.23,1.44-1.4,2.5-3.14,3.03-5.08.39.12.77.22,1.17.31-.59,2.14-1.76,4.09-3.37,5.63-.28.26-.58.51-1.01.57h-.16c-.48,0-1.22-.26-1.61-1.7Z" />
    <path class="cls-3"
      d="M134.79,126.25c.01-.1.01-.19.01-.29.42-.08.81-.22,1.19-.4.01.26.01.53-.01.78-.02.24-.17.43-.37.51-.07.04-.14.05-.22.05h-.05c-.34-.04-.58-.32-.55-.65Z" />
    <path class="cls-3" d="M134.74,60.82s.04.04.05.08l-.36-.11c.11.02.22.02.31.02Z" />
    <path class="cls-3"
      d="M138.84,62.67c-1.55.14-3.09-.24-4.49-.64v-.04c.11.01.22.02.31.02.13.01.18-.84.12-1.12,1.3.37,2.64.69,3.95.57,1.76-.17,2.74-.73,2.94-1.68.51-2.51-3.86-7.15-4.8-7.83.42-.18.79-.37,1.08-.55.02-.01.02-.02.02-.05l.08.04c1.4,1.31,5.66,5.91,4.7,8.94-.42,1.35-1.73,2.14-3.92,2.35Z" />
    <path class="cls-3" d="M134.13,60.71c.1.02.2.06.3.08-.19,0-.41-.02-.64-.07.11-.05.23-.05.34-.01Z" />
    <path class="cls-3"
      d="M134.11,121.27c.23,0,.4.08.51.25.85,1.17,1.35,2.6,1.37,4.04-.39.18-.77.31-1.19.4.02-1.02-.2-2.05-.67-2.96l-1.93,3.02c-.43-.04-.87-.1-1.31-.17l2.74-4.31c.11-.17.29-.26.48-.28Z" />
    <path class="cls-3"
      d="M134.67,62.02c-.1,0-.2-.01-.31-.02-.35-.04-.75-.13-1.17-.28.07-.18.13-.37.18-.58.05-.16.14-.29.29-.37.04-.02.08-.05.13-.05.23.05.45.07.64.07l.36.11c.06.28.01,1.13-.12,1.12Z" />
    <path class="cls-3"
      d="M134.9,110.43c-.53-.16-1.06-.29-1.6-.41-.05-.23.05-.47.25-.6.28-.18.65-.11.83.18.18.28.35.55.52.83Z" />
    <path class="cls-3"
      d="M128.76,52.92s1.68.02,3.6-.46c1.91-.45,3.93-1.46,4.99-2.11.01-.01.04-.01.07.01-.24.14-.49.28-.75.41-.3.16-.42.52-.26.81.08.17.23.28.4.31.01.01.04.02.06.05-1.23.53-2.9,1-4.42,1.11-2.05.19-3.69-.13-3.69-.13Z" />
    <path class="cls-3"
      d="M130.56,95.88c.81,1.16,1.61,2.31,2.41,3.47.07.11.14.22.16.34.01.29-.31.46-.6.51-.54.08-1.03-.04-1.47-.3-.65-.39-1.14-1.06-1.46-1.73-.22-.49-.65-3.19.59-2.65.17.07.28.23.37.37Z" />
    <path class="cls-3"
      d="M131.86,126.55c-.18.28-.55.36-.83.18-.28-.18-.36-.55-.18-.83l.04-.05c.45.07.88.13,1.31.17l-.34.53Z" />
    <path class="cls-3"
      d="M128.95,57.92c.08.12.83,1.09,2.01,1.79.89.57,1.96.88,2.83,1.01-.05,0-.1.02-.13.05-.14.08-.24.22-.29.37-.05.2-.11.4-.18.58-.9-.31-1.89-.84-2.59-1.53-.59-.53-1.01-1.12-1.28-1.55-.23-.39-.35-.66-.37-.72Z" />
    <path class="cls-3"
      d="M126,129.91c-.57-.06-1.93-.14-2.68-.18.26-.26.76-.58,1.3-.77.53-.19,1.11-.26,1.43-.25h.2s.22.04.22.04c.32.02.88.18,1.38.45s.96.64,1.19.94c-.77-.07-2.13-.18-2.68-.19h-.18s-.18-.02-.18-.02Z" />
    <path class="cls-3" d="M123.97,58.99c.1.18.19.34.29.47.01.01,0,.05-.04.07-.1-.18-.18-.36-.25-.54Z" />
    <path class="cls-3" d="M123.85,58.76c.04.07.07.16.12.23-.1-.13-.18-.28-.28-.43.07.05.12.12.16.2Z" />
    <path class="cls-3"
      d="M122.33,45.16c.19-.01.36-.11.47-.26.08-.12.17-.23.25-.35.45.67.89,1.59,1.11,2.45.34,1.2.3,2.23.3,2.23,0,0-.28-.99-.85-2.01-.46-.83-1.12-1.61-1.62-2.17.11.07.23.11.35.11Z" />
    <path class="cls-3"
      d="M122.69,59.05c-.02-.24.12-.49.36-.6.22-.1.47-.05.64.11.1.16.18.3.28.43.07.18.16.36.25.54-.16.22-.9.69-.97.58-.18-.26-.37-.64-.55-1.06Z" />
    <path class="cls-3"
      d="M122.8,44.9c-.11.16-.28.25-.47.26-.12,0-.24-.04-.35-.11-.13-.13-.25-.25-.35-.36-.07-.08.79-.91.88-.82.17.17.35.4.54.67-.08.12-.17.23-.25.35Z" />
    <path class="cls-3"
      d="M122.74,59.24c-.02-.06-.05-.12-.05-.19.18.42.37.79.55,1.06.07.11.82-.36.97-.58,1.03,1.91,2.61,3.5,4.51,4.56.51.28,1.18.6,1.82.53.65-.06,1.3-.53,1.74-1.26l.12-.2c.3-.49.58-.95.77-1.43.42.14.82.24,1.17.28v.04c-.23.64-.57,1.18-.9,1.74l-.13.2c-.63,1.05-1.62,1.73-2.65,1.84-.1.01-.19.01-.29.01-.87,0-1.64-.36-2.24-.69-2.38-1.32-4.3-3.42-5.4-5.91Z" />
    <path class="cls-3"
      d="M122.53,56.06c.29.88.75,1.78,1.17,2.49-.17-.16-.42-.2-.64-.11-.24.11-.39.36-.36.6-.35-.83-.65-1.88-.76-2.84-.18-1.46,0-2.65,0-2.65,0,0,.13,1.2.59,2.5Z" />
    <path class="cls-3" d="M121.98,45.05s-.11-.07-.14-.12c-.06-.08-.13-.17-.2-.24.1.11.22.23.35.36Z" />
    <path class="cls-3"
      d="M120.16,126.1c.43-.06.87-.13,1.31-.2l.11.17c.17.29.1.66-.19.83-.28.18-.65.11-.83-.18l-.4-.61Z" />
    <path class="cls-3"
      d="M121.32,99.89c-.43.26-.93.39-1.47.3-.29-.05-.61-.22-.6-.51.01-.12.08-.23.16-.34.79-1.16,1.6-2.31,2.41-3.47.1-.14.2-.3.37-.37,1.23-.54.81,2.15.59,2.65-.31.67-.82,1.35-1.46,1.73Z" />
    <path class="cls-3"
      d="M133.29,110.02c-4.64-1.08-9.52-1.09-14.17-.04.05-.1.1-.18.16-.26.18-.28.11-.65-.17-.83-.08-.06-.17-.08-.26-.08,5.9-1.34,12.12-1.02,17.86.93.73.25,1.47.53,2.2.81,1.99.76,3.85,1.47,5.86,1.67.31.04.64.05.96.04-.24,0-.46.13-.55.36-.12.28-.24.54-.36.81-.06,0-.11,0-.17-.01-.6-.06-1.19-.16-1.77-.29.01-.05.02-.08.04-.13.08-.32-.11-.65-.43-.73-.31-.1-.65.1-.73.42-.01.05-.02.08-.04.13-1.11-.32-2.18-.73-3.24-1.13-.71-.28-1.43-.55-2.15-.79-.47-.16-.94-.31-1.42-.45-.17-.28-.34-.55-.52-.83-.18-.29-.55-.36-.83-.18-.2.13-.3.37-.25.6Z" />
    <path class="cls-3"
      d="M119.11,108.89c.28.18.35.55.17.83-.06.08-.11.17-.16.26-.57.11-1.12.25-1.66.42.25-.46.53-.9.82-1.34.05-.07.11-.13.18-.18.13-.04.25-.06.39-.08.1,0,.18.02.26.08Z" />
    <path class="cls-3" d="M119.1,132.66s.02.04,0,.08l-.36-.34c.13.1.25.18.36.25Z" />
    <path class="cls-3"
      d="M117.99,133.34c-.46-.37-1-.88-1.54-1.44.63.11,1.25.2,1.89.3.06,0,.12.02.17.05.07.06.14.11.2.14.01.01.02.02.02.02l.36.34c-.04.24-.58.99-.7.9-.12-.08-.26-.19-.41-.31Z" />
    <path class="cls-3" d="M118.84,108.8c-.13.02-.25.05-.39.08.12-.07.25-.11.39-.08Z" />
    <path class="cls-3" d="M118.71,132.39c-.06-.04-.13-.08-.2-.14.05.02.1.06.14.1l.06.05Z" />
    <path class="cls-3"
      d="M117.99,133.34c.14.12.29.23.41.31.12.08.66-.66.7-.9l.02.02c1.4,1.31,2.72,2.54,4.37,3.35,1.93.96,3.32,1.06,4.97.36,2.13-.9,5.66-2.9,6.46-4.3.1-.16.25-.26.43-.29.02,0,.05-.01.07-.01-.18.14-.35.26-.49.39-.16.12.55,1.03.75.94-1.43,1.84-5.38,3.79-6.75,4.38-.87.37-1.68.55-2.53.55-1.07,0-2.18-.31-3.45-.94-1.8-.89-3.25-2.24-4.64-3.54l-.32-.31h.01Z" />
    <path class="cls-3"
      d="M117.62,126.13c-.45-.07-.84-.22-1.19-.4.04-1.44.53-2.88,1.37-4.04.12-.16.3-.24.51-.24.19,0,.39.11.48.28l2.68,4.18c-.45.07-.88.14-1.31.2l-1.87-2.92c-.46.9-.7,1.93-.67,2.95Z" />
    <path class="cls-3"
      d="M118.16,127.4c-.52-.02-.99-.11-1.4-.24l.06-.13c.06.04.14.05.22.05.01,0,.02,0,.05-.01.32-.02.58-.31.54-.64-.01-.1-.01-.2-.01-.3.19.04.38.06.6.07.65.02,1.29-.01,1.94-.1l.4.61c.18.29.55.36.83.18.29-.17.36-.54.19-.83l-.11-.17c.26-.05.54-.11.81-.16,1.13-.23,2.3-.46,3.5-.49,1.38-.05,2.76.19,4.09.42.35.06.69.12,1.02.18l-.04.05c-.18.28-.1.65.18.83.28.18.65.1.83-.18l.34-.53c.73.07,1.44.1,2.17.01.14-.01.29-.04.43-.07,0,.1,0,.19-.01.29-.02.32.22.61.55.65h.05c.07,0,.14-.01.22-.05l.05.13c-.37.12-.76.2-1.16.25-1.65.18-3.27-.11-4.84-.37-1.34-.23-2.59-.45-3.85-.41-1.1.04-2.17.24-3.31.47-1.24.24-2.51.49-3.84.49-.17,0-.34-.01-.51-.01Z" />
    <path class="cls-3"
      d="M116.44,126.53c-.02-.26-.02-.53-.01-.79.35.18.75.33,1.19.4,0,.1,0,.2.01.3.04.32-.22.61-.54.64-.02.01-.04.01-.05.01-.07,0-.16-.01-.22-.05-.22-.07-.36-.28-.39-.51Z" />
    <path class="cls-3"
      d="M115.17,48.7c-.19-.2-.37-.45-.53-.72.45-.08.9-.14,1.35-.19.01.04.05.06.07.1.23.24.2.63-.04.85-.24.22-.63.2-.85-.04Z" />
    <path class="cls-3"
      d="M115.03,130.17c-.95-1.3-1.53-2.51-1.59-2.67.1.13.91,1.2,2.05,2.27.95.94,2.14,1.84,3.02,2.47-.05-.02-.11-.05-.17-.05-.64-.1-1.26-.19-1.89-.3-.51-.54-1-1.13-1.42-1.72Z" />
    <path class="cls-3"
      d="M113.08,43.66c-.17-.79-.29-1.82.31-2.6.59-.75,1.61-1.02,2.97-.78,2.23.38,4.34,1.58,5.91,3.31,2.2-2.96,4.88-4.9,8.37-6.08,3.75-1.26,7.75-1.56,11.55-.84.83.14,1.7.39,2.35.99,1.96,1.85.52,5.46-1.03,8.16-.7,1.22-1.55,2.32-2.54,3.3-.23-.1-.46-.17-.69-.25-.31-.1-.66.06-.77.37-.11.33.06.66.37.77.02.01.05.01.07.02-.6.51-1.24.96-1.9,1.36l-.08-.04c.04-.2-.36-.88-.55-.97,2.47-1.67,3.97-3.3,5.04-5.16.88-1.53,2.78-5.25,1.25-6.68-.4-.37-.99-.54-1.73-.69-3.61-.67-7.4-.4-10.95.81-3.39,1.14-5.87,2.97-7.98,5.9-.19-.28-.37-.51-.54-.67-.08-.1-.95.73-.88.82-1.41-1.7-3.38-2.86-5.47-3.24-.51-.08-1.42-.16-1.8.34-.31.4-.22,1.07-.1,1.61.46,2.12,1.01,3.55,1.73,4.38-.45.05-.9.11-1.35.19-.65-1-1.16-2.43-1.56-4.32Z" />
    <path class="cls-3"
      d="M113.39,98.13c.24,2.21,2.9,4.36,5.11,5.52,2.3,1.19,5.09,1.84,7.51,1.72h.14c2.41.12,5.21-.53,7.51-1.72,2.2-1.16,4.86-3.3,5.11-5.52.13-1.14-.52-2.41-1.91-3.75-.72-.7-1.49-1.34-2.24-1.94-1.25-1.01-2.54-2.07-3.61-3.47-.79-1.03-2.03-2.41-3.44-3.07-.22-.11-.42-.18-.61-.24-.16-.05-.34-.1-.51-.11-.02-.01-.06-.01-.08-.02-.28-.02-.48-.01-.65.02-.04.01-.08.01-.12.01l-.16.04c-.29.06-.58.16-.83.29-1.46.69-2.7,2.06-3.48,3.08-1.07,1.4-2.36,2.45-3.61,3.47-.73.61-1.5,1.24-2.23,1.94-1.41,1.35-2.05,2.61-1.91,3.75ZM117.95,104.71c-2.6-1.36-5.46-3.77-5.76-6.45-.18-1.53.59-3.13,2.27-4.75.76-.73,1.55-1.37,2.31-2,1.25-1.02,2.43-1.99,3.42-3.26.87-1.14,2.25-2.66,3.9-3.43.32-.17.71-.31,1.09-.4.11-.02.22-.05.35-.06.31-.06.65-.07,1.01-.02.02.01.05.01.07.01.23.04.47.08.7.16.28.08.54.18.79.32,1.61.75,3,2.27,3.86,3.42.99,1.28,2.17,2.24,3.42,3.25.76.63,1.55,1.28,2.32,2.01,1.67,1.61,2.44,3.21,2.27,4.75h0c-.31,2.7-3.18,5.09-5.76,6.45-2.27,1.19-5.03,1.88-7.5,1.88-.22,0-.42,0-.63-.01-2.65.13-5.68-.57-8.15-1.87Z" />
    <path class="cls-3"
      d="M113.15,118.21c-1.5-1.44-2.61-3.24-3.24-5.22.39-.11.78-.22,1.16-.35.55,1.78,1.56,3.39,2.91,4.7.06.05.24.22.32.23.06.07.3-.22.47-.82.63-2.23,1.52-4.36,2.68-6.35.54-.17,1.09-.31,1.66-.42-1.41,2.2-2.48,4.58-3.19,7.1-.4,1.43-1.13,1.7-1.61,1.7-.05,0-.11,0-.16-.01-.49-.05-.84-.4-1.01-.55Z" />
    <path class="cls-3"
      d="M113.74,111.68c-.88.34-1.76.67-2.67.96-.06-.17-.11-.34-.16-.51-.08-.32-.42-.52-.73-.43v-.05c1.03-.29,2.06-.69,3.13-1.09.64-.25,1.28-.49,1.93-.72,1.06-.37,2.14-.69,3.22-.95-.07.05-.13.11-.18.18-.29.43-.57.88-.82,1.34-.61.17-1.23.35-1.83.57-.64.23-1.26.47-1.89.71Z" />
    <path class="cls-3"
      d="M110.18,111.7c.31-.08.65.11.73.43.05.17.1.34.16.51-.37.13-.77.24-1.16.35-.06-.18-.12-.36-.17-.54-.08-.32.11-.65.43-.75Z" />
    <path class="cls-3"
      d="M107.76,50.36c.45-.25.9-.48,1.36-.67.24.14.34.45.23.72-.13.3-.48.46-.79.33-.26-.11-.53-.23-.79-.37Z" />
    <path class="cls-3"
      d="M112.26,122.82c-2.23-3.02-4.13-6.29-5.98-9.46.46.04.91.05,1.35.01.01,0,.04,0,.05-.01,1.72,2.96,3.51,5.97,5.56,8.74.22.31.43.63.65.93.81,1.16,1.5,2.14,2.54,2.71-.01.26-.01.53.01.79.02.23.17.43.39.51l-.06.13c-1.83-.55-2.82-1.97-3.86-3.45-.2-.29-.41-.59-.64-.89Z" />
    <path class="cls-3"
      d="M106.47,112.48c.29-.17.65-.07.82.22.13.22.25.45.38.66-.01.01-.04.01-.05.01-.43.04-.89.02-1.35-.01,0-.01-.01-.04-.02-.05-.17-.29-.07-.66.22-.83Z" />
    <path class="cls-3"
      d="M105.1,70.47c2.14,1.49,2.67,5.84,3.04,7.92.18,1,.31,2.01.4,3.02-.04,1.03-.13,1.99-.25,2.7-.11-1.26-.28-3.21-.6-5.1-.31-1.89-.78-3.71-1.06-4.78l-.19-.69-.2-.69c-.08-.26-.18-.58-.29-.91-.11-.3-.24-.63-.45-.95-.11-.17-.25-.35-.4-.52Z" />
    <path class="cls-3"
      d="M106.63,74.22c.28,1.07.75,2.89,1.06,4.78.32,1.89.49,3.84.6,5.1.12-.71.22-1.66.25-2.7.23,2.43.2,4.91-.02,7.35-.24-.22-.48-.42-.72-.63-1.48-1.25-3.12-2.25-4.12-2.73l-.66-.31c-.22-.11-.45-.19-.66-.29-.99-.45-2.76-1.02-4.62-1.32,0-3.75.12-7.65,2.07-10.94.88-1.46,2.43-2.85,4.13-2.56.43.07.82.24,1.17.49.14.17.29.35.4.52.2.32.34.65.45.95.11.34.2.65.29.91l.2.69.19.69Z" />
    <path class="cls-3"
      d="M106.28,113.36c-2.27-.18-4.67-1.2-5.76-3.35.3-.29.58-.52.77-.67l.18-.16c.91,2.2,3.71,3.16,6.08,2.98.89-.07,1.76-.25,2.62-.52v.05c-.31.1-.51.42-.42.75.05.18.11.36.17.54-.73.18-1.48.31-2.24.37-.13-.22-.25-.45-.38-.66-.17-.29-.53-.39-.82-.22-.29.17-.39.54-.22.83.01.01.02.04.02.05Z" />
    <path class="cls-3"
      d="M108.47,89.31c-2.88-2.51-7.04-4.19-10.73-5.43v-.41c1.87.3,3.63.88,4.62,1.32.22.1.45.18.66.29l.66.31c1,.48,2.64,1.48,4.12,2.73.24.2.48.41.72.63-.01.18-.02.37-.05.55Z" />
    <path class="cls-3"
      d="M101.02,68.26c.93-.16,2-.06,2.97.3.97.39,1.85,1.03,2.42,1.8.29.4.49.81.65,1.19.12.35.24.66.31.93l.22.71.19.71c.29,1.09.64,3.01.73,4.97.05.85.06,1.72.02,2.53-.08-1.01-.22-2.02-.4-3.02-.37-2.08-.9-6.43-3.04-7.92-.39-.43-.89-.83-1.47-1.13-.81-.4-1.72-.61-2.57-.61s-1.64.23-2.21.49c.49-.41,1.25-.81,2.18-.95Z" />
    <path class="cls-3"
      d="M100.61,108.65c.31-.12.66.05.77.36.02.06.05.12.08.18l-.18.16c-.19.16-.47.39-.77.67-.1-.19-.19-.39-.26-.6-.11-.31.05-.66.36-.77Z" />
    <path class="cls-3"
      d="M99.29,110.11c.32-.75.85-1.38,1.2-1.68l.24-.19.24-.18c.37-.29,1.11-.65,1.91-.79.81-.16,1.62-.08,2.11.08-.49.16-1.2.38-1.83.71s-1.17.73-1.48.97l-.2.14h-.01s-.06-.11-.08-.17c-.11-.31-.46-.48-.77-.36-.31.11-.47.46-.36.77.07.22.17.41.26.6-.17.17-.35.35-.52.55-.47.53-.84,1.17-1.11,1.61-.06-.51.06-1.32.4-2.07Z" />
    <path class="cls-3"
      d="M97.4,84.28c-1.8-.52-3.69-.81-4.93-.97,1.24-.16,3.21-.17,5.14.14.05.01.08.01.13.02v.41c3.69,1.24,7.86,2.91,10.73,5.43.02-.18.04-.37.05-.55,1.19,1.08,2.2,2.25,2.8,3.1-.96-.79-2.44-2.02-4.02-3.04-1.55-1.03-3.19-1.87-4.16-2.33l-.61-.3c-.22-.11-.43-.19-.64-.28-1-.45-2.68-1.14-4.49-1.62Z" />
    <path class="cls-3"
      d="M100.72,43.21c-1.68-3.13-2.56-6.56-3.18-9.58v-.05c-.31-4.45-.53-8.93-.54-13.39h.01c.25,4.2.78,8.39,1.58,12.51.6,3.1,1.46,6.71,3.19,9.94,1.79,3.31,4.36,5.79,7.24,6.98.04.01.07.04.1.06-.46.19-.91.42-1.36.67-2.8-1.4-5.28-3.9-7.04-7.15Z" />
    <path class="cls-3"
      d="M97,20.19c.01,4.46.23,8.94.54,13.39-.05-.22-.1-.43-.13-.65-.82-4.22-1.36-8.51-1.6-12.81v-.04c.06-.28.29-.48.59-.49.34,0,.6.28.6.6Z" />
    <path class="cls-3"
      d="M88.27,118.14c.08.1-.77.95-.87.84-.18-.18-.38-.42-.59-.69.04-.1.07-.2.11-.31.06-.2.23-.35.42-.41.13-.04.26-.02.39.02l.54.54Z" />
    <path class="cls-3"
      d="M87.26,56.86c.45-.11.66-.84.16-1.12.63-.1,1.24-.17,1.84-.24,1.47-.18,2.85-.34,3.86-.7,3.43-1.22,4.73-3.62,4.32-8.03l-.04-.39c-.77-8.56-1.58-17.4-1.6-26.18,0-.02,0-.06.01-.08.24,4.31.78,8.59,1.6,12.81.04.22.08.43.13.65v.05c.3,4.26.69,8.48,1.06,12.65l.04.39c.3,3.36,0,7.45-5.11,9.26-1.14.4-2.59.58-4.13.77-.7.08-1.42.17-2.12.28l-.02-.12Z" />
    <path class="cls-3"
      d="M87.41,55.74c.51.28.29,1.01-.16,1.12-.12.04-.26.02-.41-.06-.4-.2-.81-.45-1.24-.73.59-.13,1.19-.24,1.8-.32Z" />
    <path class="cls-3"
      d="M85.87,79.05s.08,0,.13-.01c.32-.07.53-.4.45-.72-.13-.57-.26-1.13-.41-1.7,3.92-10.72,11.3-19.99,20.73-25.7.32-.19.65-.39.99-.55.26.14.53.26.79.37.31.13.66-.02.79-.33.11-.28.01-.58-.23-.72,1.77-.82,3.62-1.38,5.52-1.71.16.28.34.52.53.72.23.24.61.25.85.04.24-.23.26-.61.04-.85-.02-.04-.06-.06-.07-.1.71-.08,1.42-.12,2.14-.13.29,0,.6.26.61.59,0,.34-.26.61-.6.61-3.78.05-7.48,1.11-10.75,3.08-11.49,6.97-19.85,19.34-22.43,33.15-.42.02-.84.07-1.25.13.4-2.21.94-4.39,1.61-6.52.08.22.3.35.54.35Z" />
    <path class="cls-3"
      d="M86.36,85.64c0-.25-.17-.49-.41-.57,1.08.07,2.61.45,3.8,1.06,1.29.64,2.18,1.44,2.35,1.61-.17-.1-1.22-.7-2.56-1.05-1.29-.39-2.79-.46-3.77-.45.34,0,.6-.28.59-.61Z" />
    <path class="cls-3"
      d="M85.33,78.7c.23-.7.47-1.4.71-2.08.14.57.28,1.13.41,1.7.08.32-.12.65-.45.72-.05.01-.1.01-.13.01-.24,0-.46-.13-.54-.35Z" />
    <path class="cls-3" d="M85.95,85.07c-.13-.01-.26-.01-.39-.01.06-.01.12-.01.18-.01.07-.01.14,0,.2.02Z" />
    <path class="cls-3"
      d="M85.08,115.38c-.63-1.38-.89-2.61-.89-2.61,0,0,.55,1.13,1.41,2.31.65.91,1.48,1.84,2.13,2.51-.12-.05-.25-.06-.39-.02-.19.06-.36.2-.42.41-.04.11-.07.22-.11.31-.61-.79-1.3-1.89-1.73-2.91Z" />
    <path class="cls-3"
      d="M85.77,86.25c-.13,0-.25.01-.36.01-.14,0-.19-1.2-.02-1.2h.18c.12,0,.25,0,.39.01.24.07.41.31.41.57.01.34-.25.61-.59.61Z" />
    <path class="cls-3"
      d="M84.55,71.26c.55,1.77,1.05,3.56,1.49,5.35-.24.69-.48,1.38-.71,2.08-.02-.04-.04-.07-.05-.11-.38-1.65-.81-3.3-1.28-4.93.31-.82.48-1.6.53-2.27,0-.04,0-.07-.01-.11h.02Z" />
    <path class="cls-3"
      d="M84.01,73.65c-.22-.76-.45-1.53-.69-2.29.01-.04.01-.06.01-.08.02-.35,1.06-.36,1.19-.01.01.04.01.07.01.11-.05.67-.22,1.46-.53,2.27Z" />
    <path class="cls-3"
      d="M84.88,85.56c-.05.29-.3.49-.59.49-.04,0-.07,0-.11-.01-.32-.06-.54-.37-.48-.7.01-.04.01-.08.02-.12.41-.06.83-.11,1.25-.13-.04.16-.07.31-.1.47Z" />
    <path class="cls-3" d="M81.99,66c.4-.01.46,1.19.05,1.2h-.08c-.14-.4-.29-.79-.43-1.18.16-.01.31-.01.47-.02Z" />
    <path class="cls-3"
      d="M81.27,65.34c-.63-1.66-1.48-3.95-.59-5.93.87-1.96,2.78-2.85,4.93-3.35.43.29.84.53,1.24.73.14.08.29.1.41.06l.02.12c-2.41.37-4.67,1.06-5.51,2.92-.69,1.54.04,3.47.63,5.02.78,2.08,1.5,4.2,2.15,6.34h-.02c-.13-.34-1.17-.33-1.19.02,0,.02,0,.05-.01.08-.42-1.4-.89-2.79-1.37-4.16h.08c.41-.01.35-1.22-.05-1.2-.16.01-.31.01-.47.02-.08-.23-.17-.46-.25-.69Z" />
    <path class="cls-3"
      d="M80.48,93.81c1.13-.05,2.45-.2,3.63-.54,1.77-.46,3.16-1.24,3.33-1.34-.07.06-.39.3-.85.64-.55.37-1.35.85-2.27,1.26-1.03.48-2.25.82-3.36,1,.01-.01.02-.04.04-.05.16-.19.18-.45.06-.66-.11-.22-.34-.34-.58-.31Z" />
    <path class="cls-3" d="M80.48,93.81c-.59.05-1.18.05-1.77,0,.01-.01.04-.02.05-.02.46.04,1.06.05,1.72.02Z" />
    <path class="cls-3"
      d="M80.48,93.81c.24-.02.47.1.58.31.12.22.1.47-.06.66-.01.01-.02.04-.04.05-.66.12-1.29.17-1.82.17-.16,0-.3,0-.43-.01-.19-.01-.14-1.01,0-1.18.59.05,1.18.05,1.77,0Z" />
    <path class="cls-3"
      d="M76.31,106.52c-.06-.72-.08-1.44-.05-2.17h.11c.34.05.63-.23.64-.57.01-.34-.24-.61-.57-.63h-.1c.31-2.91,1.34-5.73,2.97-8.12-.06,0-.11,0-.17-.01v-.02c.53,0,1.16-.05,1.82-.17-2.55,3.2-3.81,7.44-3.45,11.58.45,5.2,2.74,10.89,6.16,15.22.08.11.29.37.43.39.05.01.2-.02.52-.32.99-.95,1.74-2.11,2.19-3.39.2.26.41.51.59.69.1.11.95-.75.87-.84l-.54-.54c.06.02.12.06.18.12,7.91,7.36,17.74,12.24,28.54,14.17.54.57,1.08,1.07,1.54,1.44h-.01c-11.41-1.68-21.84-6.57-30.21-14.13-.53,1.26-1.31,2.41-2.31,3.35-.34.32-.85.75-1.52.65-.61-.08-1-.57-1.2-.83-3.56-4.51-5.96-10.43-6.43-15.86Z" />
    <path class="cls-3" d="M76.44,103.16c.32.01.58.29.57.63-.01.34-.3.61-.64.57h-.11c.01-.4.04-.79.08-1.19h.1Z" />
    <path class="cls-3"
      d="M76.24,88.84c-.11.19-.31.3-.53.3-.1,0-.19-.02-.29-.07-.07-.04-.14-.08-.22-.13.31-.26.65-.52.99-.76.14.18.18.45.05.66Z" />
    <path class="cls-3"
      d="M75.94,38.93c.35,3.78,1.99,7.68,4.26,10.64,2.26,3,5.08,5.04,7.22,6.17-.61.08-1.22.19-1.8.32-2.02-1.26-4.36-3.25-6.23-5.9-2.29-3.16-3.83-7.28-4.04-11.19-.3-3.9.57-7.45,1.52-9.83.46-1.2.97-2.13,1.31-2.77.23-.38.41-.66.51-.82-.08.17-.24.46-.46.84-.31.65-.78,1.59-1.19,2.8-.83,2.41-1.53,5.93-1.08,9.72Z" />
    <path class="cls-3"
      d="M76.24,88.84c.13-.22.1-.48-.05-.66,2.24-1.55,4.82-2.59,7.53-2.96-.01.04-.01.08-.02.12-.06.32.16.64.48.7.04.01.07.01.11.01.29,0,.54-.2.59-.49.02-.16.06-.31.1-.47.13-.01.26-.02.41-.02-.17,0-.12,1.2.02,1.2-4.09.18-8.17,2.03-10.97,5.03-.22.23-.47.53-.46.77.01.35.57.65.89.79,1.22.53,2.51.85,3.85.95-.14.17-.19,1.17,0,1.18.13.01.28.01.43.01v.02c-1.65-.05-3.27-.41-4.76-1.07-1.03-.46-1.58-1.07-1.61-1.83-.04-.69.39-1.22.78-1.66.52-.54,1.07-1.06,1.65-1.53.07.05.14.1.22.13.1.05.19.07.29.07.22,0,.42-.11.53-.3Z" />
    <path class="cls-3"
      d="M76.31,79.36c-2.19.11-4.09-.67-5.26-1.46-.6-.37-1.01-.78-1.3-1.05-.22-.23-.35-.37-.4-.43.06.06.2.19.43.4.3.24.75.6,1.36.93,1.2.67,3.09,1.26,5.11,1.01,2.03-.18,4.01-1.37,5.22-2.91,1.23-1.5,1.74-3.24,1.84-4.48.24.76.47,1.53.69,2.29-.36.96-.94,1.96-1.76,2.85-1.46,1.66-3.75,2.82-5.94,2.85Z" />
    <path class="cls-3"
      d="M68.19,82.63c2.32,1.96,4.96,3.78,7.82,5.39.07.04.13.08.18.16-.34.24-.67.49-.99.76-2.62-1.48-5.04-3.13-7.23-4.91.06-.41.14-.82.22-1.23.01-.06.01-.12,0-.17Z" />
    <path class="cls-3"
      d="M67.71,82.1c.26.05.46.26.48.53-.11-.08-.2-.18-.31-.26-.11-.08-.2-.18-.3-.28.04,0,.08,0,.13.01Z" />
    <path class="cls-3"
      d="M68.19,82.63s.01.11,0,.17c-.07.41-.16.82-.22,1.23-.3-.24-.6-.49-.89-.75-.06-.05-.12-.1-.17-.16.02-.18.06-.37.1-.55.05-.28.28-.46.55-.48h.01c.1.1.19.19.3.28.11.08.2.18.31.26Z" />
    <path class="cls-3"
      d="M76.67,66.9c-2.07-.36-4.31-1.11-6.03-2.36-1.76-1.2-2.96-2.79-3.55-4.05-.3-.63-.45-1.18-.55-1.55-.06-.29-.11-.48-.12-.55.02.07.08.26.17.54.13.36.32.89.67,1.48.67,1.18,1.95,2.62,3.71,3.63,1.72,1.06,3.86,1.62,5.85,1.85,1.77.2,3.43.18,4.7.13.14.39.29.78.43,1.18-1.35.06-3.24.04-5.28-.3Z" />
    <path class="cls-3"
      d="M66.91,83.12c-.43-.37-.83-.76-1.2-1.17.1-.41.18-.83.28-1.24.02-.08.02-.17-.01-.24.49.58,1.02,1.11,1.59,1.61-.28.02-.51.2-.55.48-.04.18-.07.37-.1.55Z" />
    <path class="cls-3"
      d="M65.71,81.96c-.35-.35-.67-.71-.99-1.08.04-.14.06-.28.1-.42.07-.32.4-.53.72-.45.01,0,.04.01.05.02.13.16.25.3.38.45.04.07.04.16.01.24-.1.41-.18.83-.28,1.24Z" />
    <path class="cls-3" d="M65.59,80.03c.22.06.36.24.38.45-.13-.14-.25-.29-.38-.45Z" />
    <path class="cls-3"
      d="M79.11,16.85c-9.35,11.14-16.04,23.42-19.6,35.87-.01-.07-.04-.13-.07-.2-.24-.43-.49-.85-.75-1.28,3.68-12.23,10.32-24.25,19.49-35.17,3.69-4.39,8.11-9.2,14.01-10.76,1.19-.32,2.36-.16,3.2.45,1.7,1.22,1.59,3.68,1.54,5.02-.13,3.14-.1,6.28.08,9.42h-.01c0-.32-.26-.6-.6-.6-.3.01-.53.22-.59.49-.18-3.12-.2-6.24-.08-9.36.06-1.53.04-3.22-1.03-3.99-.54-.39-1.36-.48-2.2-.26-5.55,1.47-9.82,6.12-13.38,10.38Z" />
    <path class="cls-3"
      d="M64.93,108.44c2.73-3.38,7.09-5.47,11.42-5.28-.05.4-.07.79-.08,1.19-4.73-.18-9.49,2.59-11.67,6.82.1-.54.16-1.14.22-1.74.02-.23.04-.42.06-.54.02-.14.05-.3.06-.45Z" />
    <path class="cls-3"
      d="M63.45,110.72c.42-.81.91-1.58,1.48-2.27-.01.14-.04.3-.06.45-.02.12-.04.31-.06.54-.06.6-.12,1.2-.22,1.74-.04.05-.06.1-.08.14-.11.2-.32.33-.54.33-.08,0-.18-.01-.26-.06-.18-.08-.3-.25-.32-.45.02-.13.05-.26.06-.4t.01-.02Z" />
    <path class="cls-3"
      d="M63.67,108.71c.3-2.06.49-4.49.67-6.85.18-2.43.37-4.93.7-7.08l.42-2.82c.47-3.07.89-5.97,1.44-8.84.05.06.11.11.17.16.29.25.59.51.89.75-.48,2.64-.89,5.31-1.31,8.12l-.42,2.82c-.32,2.09-.51,4.58-.7,6.99-.17,2.2-.34,4.49-.61,6.49-.57.7-1.06,1.47-1.48,2.27.08-.55.13-1.11.16-1.4.02-.25.05-.47.07-.61Z" />
    <path class="cls-3" d="M63.43,110.74c-.01.13-.04.26-.06.4-.02-.12-.01-.24.05-.36.01-.01.01-.02.01-.04Z" />
    <path class="cls-3"
      d="M61.87,110.99c.3-.12.46-.47.32-.78-.28-.69-.58-1.35-.94-1.99.29-9.18,1.44-18.36,3.47-27.35.31.37.64.73.99,1.08-2.05,9.4-3.16,19.01-3.31,28.6v.31c-.04.41-.08,1.5.25,1.61.11.02.14,0,.17-.01.25-.17.43-.72.55-1.34.02.19.14.36.32.45.08.05.18.06.26.06.22,0,.43-.12.54-.33.02-.05.05-.1.08-.14-.18,1.03-.49,1.9-1.09,2.3-.23.16-.48.23-.75.23-.14,0-.3-.02-.47-.07-1.2-.39-1.13-1.96-1.09-2.8.11.13.28.2.46.2.07,0,.14-.01.23-.04Z" />
    <path class="cls-3"
      d="M62.19,110.21c.13.31-.02.66-.32.78-.08.02-.16.04-.23.04-.18,0-.35-.07-.46-.2v-.28c.02-.77.05-1.55.07-2.32.36.64.66,1.3.94,1.99Z" />
    <path class="cls-3" d="M59.51,52.72c.02.17-.02.35-.14.49.05-.17.1-.34.14-.49Z" />
    <path class="cls-3"
      d="M59.44,52.51c.04.07.06.13.07.2-.05.16-.1.32-.14.49-.04.05-.1.1-.16.13-.29.16-.65.06-.82-.23-.05-.1-.11-.19-.16-.28.13-.54.29-1.07.46-1.6.25.42.51.84.75,1.28Z" />
    <path class="cls-3"
      d="M58.08,68.35c-.12.12-.25.24-.37.36-.16-.41-.29-.83-.41-1.26.24-.2.59-.18.81.05.23.24.22.63-.02.85Z" />
    <path class="cls-3"
      d="M57.3,56.41c.29-1.19.59-2.38.94-3.57.05.08.11.18.16.28.17.29.53.39.82.23.06-.04.12-.08.16-.13-.58,2.08-1.07,4.16-1.48,6.26-1.16,5.98,2.11,12.13,4.66,16.23,1.02,1.62,1.99,3.06,3.04,4.33-.01-.01-.04-.02-.05-.02-.32-.08-.65.12-.72.45-.04.14-.06.28-.1.42-1.12-1.34-2.13-2.84-3.19-4.55-1.31-2.11-2.8-4.73-3.83-7.62.12-.12.25-.24.37-.36.24-.23.25-.61.02-.85-.22-.23-.57-.25-.81-.05-.18-.57-.32-1.16-.46-1.76.14-.14.28-.3.42-.45.23-.24.22-.63-.02-.85-.18-.16-.42-.19-.64-.11-.23-1.65-.22-3.35.11-5.04.04-.19.07-.4.12-.59.14.16.37.22.59.16.31-.1.49-.43.4-.75-.17-.55-.32-1.11-.52-1.65Z" />
    <path class="cls-3"
      d="M57.81,58.06c.1.31-.08.65-.4.75-.22.06-.45,0-.59-.16.14-.75.31-1.49.47-2.24.19.54.35,1.09.52,1.65Z" />
    <path class="cls-3"
      d="M57.24,64.39c.24.23.25.61.02.85-.14.14-.28.3-.42.45-.1-.46-.18-.93-.24-1.41.22-.08.46-.05.64.11Z" />
    <path class="cls-3"
      d="M35.86,99.65c4.54-2,9.84-2.24,14.55-.63,4.62,1.6,8.55,4.96,10.85,9.2-.02.77-.05,1.55-.06,2.32v.28s-.08-.11-.11-.17c-1.94-4.85-6.08-8.77-11.08-10.49s-10.73-1.2-15.33,1.41c-.07.05-.16.07-.23.07.49-.54.96-1.26,1.41-2Z" />
    <path class="cls-3"
      d="M33.86,101.34c-.16-.29-.06-.66.23-.82.58-.32,1.17-.63,1.77-.88-.45.73-.91,1.46-1.41,2-.23.02-.47-.08-.59-.3Z" />
    <path class="cls-3"
      d="M33.35,98.95c.04-.06.07-.13.08-.2.17-.89.26-1.8.29-2.73,6.1-11.49,13.73-22.1,22.67-31.59.06-.07.13-.12.2-.14.06.48.14.95.24,1.41-9.31,9.96-17.16,21.18-23.34,33.33l-.14-.07Z" />
    <path class="cls-3"
      d="M33.35,98.95c-.11.18-.3.29-.51.29h-.12c-.23-.05-.41-.22-.46-.43.47-.94.95-1.87,1.46-2.79-.02.93-.12,1.84-.29,2.73-.01.07-.05.14-.08.2Z" />
    <path class="cls-3"
      d="M31.84,102.18c-.91-.87-.17-2.25.23-3l.13-.25s.05-.08.07-.13c.05.22.23.39.46.43h.12c.2,0,.4-.11.51-.29l.14.07c-.07.16-.16.3-.23.46l-.14.28c-.19.36-.71,1.32-.46,1.56.08.08.13.07.16.07.64-.08,1.72-1.9,2.08-2.49.13-.23.24-.41.32-.53,1.17-1.72,2.39-3.83,3.59-5.87,1.23-2.11,2.49-4.28,3.72-6.06l1.59-2.32c4.14-6.06,8.05-11.79,13.13-16.64.01-.01.04-.02.05-.02.12.43.25.85.41,1.26-4.8,4.68-8.59,10.23-12.59,16.08l-1.6,2.32c-1.19,1.76-2.45,3.91-3.66,5.99-1.2,2.07-2.44,4.2-3.63,5.94-.07.11-.18.28-.29.47-.02.05-.05.08-.08.13-.6.25-1.19.55-1.77.88-.29.16-.39.53-.23.82.12.22.36.32.59.3-.46.51-.94.85-1.46.94-.07.01-.13.01-.19.01-.35,0-.69-.14-.96-.41Z" />
    <path class="cls-3"
      d="M49.46,51.25c-6.77-.23-14.82,1.72-23.87,5.78-5.27,2.36-10.59,5.15-16.76,8.81-.28-.14-.54-.3-.82-.45-.14-.07-.3-.08-.43-.05l-.06-.19c.13-.04.28-.1.4-.17,6.33-3.77,11.79-6.64,17.18-9.05,9.23-4.14,17.44-6.11,24.41-5.88,1.95.06,4.43.46,6.17,2.96.73,1.06,1.22,2.23,1.61,3.41-.16.75-.32,1.49-.47,2.24-.07-.06-.12-.14-.16-.25-.49-1.62-1-3.31-1.97-4.69-1.14-1.65-2.71-2.38-5.23-2.45Z" />
    <path class="cls-3"
      d="M8.01,65.39c.28.14.54.3.82.45-.1.06-.2.12-.3.18-.35.19-.73.34-1.14.4-.25-.18-.34-.52-.19-.78.08-.14.23-.25.39-.29.13-.04.29-.02.43.05Z" />
    <path class="cls-3"
      d="M26.21,78.01c5.03,5.37,7.72,11.91,7.52,18-.51.93-.99,1.85-1.46,2.79-.04-.08-.04-.18-.02-.28,1.19-6.44-1.4-13.8-6.92-19.69-5.03-5.37-11.56-8.94-17.89-12.39-.02-.01-.04-.02-.05-.04.41-.06.79-.2,1.14-.4.1-.06.2-.12.3-.18,6.15,3.37,12.43,6.91,17.38,12.18Z" />
    <path class="cls-3"
      d="M7.19,65.63c-.14.26-.06.6.19.78-.16.02-.32.04-.48.04h-.2c-.81-.05-1.19-.4-1.36-.67-.18-.29-.32-.78,0-1.54.36-.87,1.23-1.41,1.99-1.87.2-.13.4-.25.57-.37,2.15-1.5,4.43-2.94,6.75-4.25,4.58-2.59,9.47-4.76,14.52-6.47,3.9-1.31,17.16-5.5,24.51-4.1,2.49.48,3.87,2.18,5.02,4.07-.17.53-.33,1.06-.46,1.6-1.25-2.18-2.38-4.03-4.78-4.48-7.08-1.36-20.08,2.76-23.91,4.05-4.98,1.68-9.79,3.84-14.32,6.39-2.29,1.29-4.52,2.7-6.64,4.18-.19.13-.41.26-.64.41-.6.37-1.29.79-1.5,1.31-.12.28-.1.41-.08.43.01.01.11.08.41.11.25.01.51-.01.75-.1l.06.19c-.16.04-.3.14-.39.29Z" />
    <path class="cls-4"
      d="M104.8,72.21c-1.28-1.07-2.19.84-2.15,2,.02,1.03.51,2.01,1.06,2.89.19.31.41.63.72.83.3.19.72.26,1.03.07.35-.22.45-.67.49-1.07.12-1.3-.06-3.79-1.15-4.72Z" />
    <path class="cls-4"
      d="M152.58,76.87c.01-1.3-.4-3.77-1.58-4.58-1.37-.95-2.11,1.03-1.97,2.19.12,1.02.69,1.95,1.32,2.78.23.29.47.58.79.75.32.18.75.2,1.03-.02.32-.24.4-.7.4-1.11Z" />
  </g>
</svg>