<?xml version="1.0" encoding="UTF-8"?>
<svg id="Capa_2" xmlns="http://www.w3.org/2000/svg" viewBox="0 0 155.1 193.84">
  <defs>
    <style>
      .cls-1 {
        fill: aqua;
      }

      .cls-2 {
        fill: #29abe2;
      }

      .cls-3 {
        fill: #fff;
      }

      .cls-4 {
        fill: #b03670;
      }

      .cls-5 {
        fill: #862291;
      }

      .cls-6 {
        fill: #1b1464;
      }

      .cls-7 {
        fill: #fcee21;
      }

      .cls-8 {
        fill: #ed1e79;
      }
    </style>
  </defs>
  <g id="_0">
    <path class="cls-3"
      d="M155.04,70.67c.12-1.49.06-2.82-.21-4.17-.02-.09-.03-.19-.05-.29-.03-.19-.07-.4-.11-.61v-31.45c0-5.77-4.69-10.47-10.46-10.47h-7.61l3.62-15.32c.46-1.96.01-3.99-1.24-5.58-1.25-1.58-3.12-2.49-5.14-2.49h-6.22c-.6,0-1.19.08-1.75.24-.56-.16-1.15-.24-1.75-.24h-6.24c-.48,0-.96.05-1.42.16-.46-.1-.94-.16-1.42-.16h-10.67c-1.72,0-3.29.66-4.46,1.74-2.16-1.35-4.85-2.03-8-2.03-4.24,0-8.65,1.52-11.43,5.32-.69-2.88-3.29-5.03-6.38-5.03h-13.76c-1.15,0-2.24.3-3.18.82-1.63-.66-3.64-1.11-6.08-1.11-2.75,0-4.95.57-6.68,1.38-1.04-.69-2.28-1.09-3.61-1.09h-6.26c-.5,0-1,.06-1.48.17-.48-.11-.98-.17-1.48-.17h-6.26c-3.61,0-6.55,2.94-6.55,6.55v16.83h-7.89C5.11,23.67.41,28.37.41,34.14v44.27c-.4,1.84-.68,4.11,0,6.53v45.24s0,.08,0,.12,0,.07,0,.12v.31c0,.11,0,.22.01.33.12,12.53,3.23,23.59,9.26,32.89.06.9.12,1.76.2,2.58.09.92.18,1.78.29,2.57.12.89.26,1.73.41,2.49.27,1.37.6,2.58.97,3.61,2.21,6.07,6.57,6.73,8.35,6.73.61,0,1.22-.07,1.82-.2.09-.02.19-.04.28-.06.27-.07.54-.15.82-.26.26-.09.51-.19.75-.31.16-.07.35-.17.49-.25.2-.11.4-.24.56-.35.22-.15.44-.3.65-.47.04-.03.1-.08.15-.12,13.34,9.14,31.23,13.94,52.13,13.94,47.22,0,76.74-24.05,77.12-62.79,0-.11.01-.23.01-.34v-.32s0-.07,0-.1,0-.06,0-.1v-57.19c.18-.8.3-1.57.36-2.34Z" />
    <path class="cls-8"
      d="M149.99,130.34s0-.03,0-.05,0-.03,0-.05V34.14c0-3.19-2.58-5.78-5.77-5.78H10.87c-3.19,0-5.77,2.59-5.77,5.78v96.11s0,.03,0,.05,0,.03,0,.05v.37h0c.23,39.89,32.56,58.43,72.43,58.43s72.2-18.54,72.43-58.43h0v-.37Z" />
    <path class="cls-6"
      d="M77.55,189.99c-20.9,0-38.74-4.99-51.57-14.42-14.05-10.32-21.55-25.79-21.69-44.72,0-.04-.01-.09-.01-.13v-.37s0-.09,0-.1V34.14c0-3.65,2.96-6.62,6.6-6.62h133.34c3.64,0,6.6,2.97,6.6,6.62v96.11s0,.09,0,.11v.37s0,.09-.01.13c-.14,18.93-7.64,34.39-21.69,44.72-12.84,9.43-30.67,14.42-51.57,14.42ZM5.94,130.59s0,.08,0,.12c.24,42.47,37.14,57.6,71.6,57.6s71.36-15.13,71.6-57.6c0-.04,0-.08,0-.12v-.25s0-.05,0-.06V34.14c0-2.73-2.22-4.95-4.94-4.95H10.87c-2.72,0-4.94,2.22-4.94,4.95v96.45ZM149.99,130.72h0,0Z" />
    <path class="cls-3"
      d="M25.32,62.73c-.25,0-.51-.05-.75-.16-.68-.3-1.11-.97-1.11-1.7V6.84c0-1.03.83-1.86,1.86-1.86h6.26c.61,0,1.14.29,1.48.74.34-.45.88-.74,1.48-.74h6.26c1.03,0,1.86.83,1.86,1.86v41.67c0,.61-.3,1.19-.81,1.54-2.06,1.41-4.14,2.93-6.17,4.5-.56.43-1.32.51-1.96.2-.1-.05-.2-.11-.29-.17v.87c0,.56-.25,1.09-.68,1.44-2.12,1.73-4.2,3.53-6.18,5.35-.35.32-.8.49-1.26.49ZM27.19,8.7v48.01c.83-.72,1.68-1.44,2.53-2.15v-30.5c0-1.03.83-1.86,1.86-1.86h2.97c1.03,0,1.86.83,1.86,1.86v25.28c.84-.62,1.69-1.22,2.53-1.81V8.7h-2.53v9.4c0,1.03-.83,1.86-1.86,1.86h-2.97c-1.03,0-1.86-.83-1.86-1.86v-9.4h-2.53ZM31.58,55.45h0,0Z" />
    <path class="cls-3"
      d="M43.4,48.64c-.28,0-.56-.06-.82-.19-.59-.29-.98-.87-1.03-1.52-.04-.54-.06-1-.06-1.46V14.79c0-3.18.83-5.67,2.48-7.42,1.68-1.78,4.08-2.68,7.14-2.68s5.46.9,7.14,2.68c1.65,1.75,2.48,4.24,2.48,7.42v23.67c0,.75-.45,1.42-1.14,1.71-1.99.84-4.06,1.82-6.14,2.9-.58.3-1.27.27-1.82-.06-.05-.03-.09-.06-.14-.09v.1c0,.67-.36,1.3-.95,1.62-2.09,1.17-4.15,2.41-6.11,3.69-.31.2-.66.3-1.01.3ZM51.1,8.42c-2.02,0-3.47.49-4.43,1.51-.97,1.03-1.47,2.67-1.47,4.87v28.65c.84-.51,1.69-1.01,2.55-1.5V14.74c0-3.13,1.77-4.24,3.43-4.24.54,0,3.26.2,3.26,4.19v23.73c.86-.41,1.71-.8,2.55-1.17V14.79c0-2.19-.49-3.83-1.47-4.87-.96-1.02-2.41-1.51-4.43-1.51ZM49.62,43.03h0,0Z" />
    <path class="cls-3"
      d="M64.09,38.32c-.38,0-.76-.12-1.08-.35-.49-.35-.78-.91-.78-1.51V14.76h-1.87c-1.03,0-1.86-.83-1.86-1.86v-6.05c0-1.03.83-1.86,1.86-1.86h13.76c1.03,0,1.86.83,1.86,1.86v6.05c0,1.03-.83,1.86-1.86,1.86h-1.87v19.87c0,.86-.59,1.61-1.43,1.81-2.04.49-4.1,1.09-6.12,1.78-.2.07-.4.1-.6.1ZM62.22,11.03h1.87c1.03,0,1.86.83,1.86,1.86v21c.85-.26,1.71-.5,2.57-.73V12.89c0-1.03.83-1.86,1.86-1.86h1.87v-2.33h-10.04v2.33Z" />
    <path class="cls-3"
      d="M90.42,35.27c-.07,0-.14,0-.21-.01-1.99-.23-4.02-.35-6.03-.37-1.02-.01-1.84-.84-1.84-1.86V15.38c0-9.3,6-10.69,9.58-10.69,2.52,0,4.54.56,6,1.66,1.47,1.11,2.49,2.7,3.02,4.75.47,1.78.7,3.95.7,6.45,0,1.03-.83,1.86-1.86,1.86h-6.15c-.53,0-1.02-.23-1.36-.59v14.58c0,.53-.23,1.04-.62,1.39-.34.31-.79.47-1.24.47ZM86.06,31.21c.83.03,1.67.08,2.5.15V14.7c0-.86.18-1.67.53-2.41.54-1.14,1.68-1.8,3.12-1.8,1.33,0,2.41.69,2.88,1.85.27.68.41,1.49.41,2.41v.93h2.37c-.08-1.39-.26-2.61-.53-3.65-.32-1.23-.87-2.12-1.66-2.72-.8-.6-2.06-.91-3.76-.91-2.9,0-5.86.83-5.86,6.97v15.82Z" />
    <path class="cls-3"
      d="M99.72,36.98c-.15,0-.3-.02-.46-.06-2-.5-3.97-.92-5.85-1.23-.9-.15-1.56-.93-1.56-1.84v-6.56c-.94-.09-1.68-.89-1.68-1.85v-5.44c0-1.03.83-1.86,1.86-1.86h7.69c1.03,0,1.86.83,1.86,1.86v15.12c0,.57-.26,1.12-.72,1.47-.33.26-.73.39-1.14.39ZM95.57,32.3c.75.14,1.51.3,2.28.47v-10.9h-3.96v1.73c.94.09,1.68.89,1.68,1.85v6.85Z" />
    <path class="cls-3"
      d="M118.3,44.05c-.29,0-.58-.07-.84-.2-2-1.02-4.03-1.96-6.02-2.8-.64-.27-1.07-.87-1.13-1.56l-.37-4.35h-.39l-.25,2.52c-.06.57-.37,1.08-.86,1.39-.49.31-1.08.37-1.62.18-1.86-.67-3.81-1.29-5.79-1.84-.87-.24-1.44-1.08-1.35-1.98l2.86-28.76c.09-.95.9-1.68,1.85-1.68h10.67c.96,0,1.77.73,1.85,1.69l3.24,35.35c.06.67-.25,1.33-.81,1.71-.31.21-.68.32-1.05.32ZM113.92,38.06c.74.32,1.48.66,2.22,1.01l-2.79-30.36h-7.29l-2.54,25.54c.77.23,1.53.47,2.29.71l.18-1.86c.09-.95.9-1.68,1.85-1.68h3.79c.97,0,1.77.74,1.86,1.7l.42,4.94ZM111.16,30.1h-2.86c-.52,0-1.01-.22-1.36-.6-.35-.38-.53-.89-.49-1.41l1.2-16.03c.07-.97.88-1.72,1.86-1.72h.29c.97,0,1.77.74,1.85,1.7l1.38,16.03c.04.52-.13,1.03-.48,1.42-.35.38-.85.6-1.37.6Z" />
    <path class="cls-3"
      d="M128.85,50.26c-.37,0-.73-.11-1.05-.32-1.82-1.24-3.77-2.46-5.82-3.64-.58-.33-.93-.95-.93-1.61v-16.48l-4.97-20.94c-.13-.55,0-1.14.35-1.58.35-.45.89-.71,1.46-.71h6.24c.8,0,1.49.5,1.75,1.23.26-.73.96-1.23,1.75-1.23h6.22c.57,0,1.11.26,1.46.71.35.45.48,1.03.35,1.58l-4.95,20.94v20.19c0,.69-.38,1.32-.99,1.65-.27.14-.57.22-.87.22ZM124.78,43.62c.75.44,1.49.89,2.21,1.34v-16.97c0-.14.02-.29.05-.43l4.46-18.86h-2.29l-1.5,9.11c-.15.9-.93,1.56-1.84,1.56s-1.69-.66-1.84-1.56l-1.5-9.11h-2.3l4.48,18.86c.03.14.05.29.05.43v15.63Z" />
    <path class="cls-3"
      d="M78.69,184.88c-3.73,0-7.5-.2-11.24-.59-3.57-.38-7.15-.94-10.66-1.66-.68-.14-1.36-.29-2.03-.44-3.88-.88-7.69-1.98-11.33-3.25-2.29-.8-4.52-1.68-6.64-2.62-1.53-.68-3.03-1.39-4.43-2.12-.46-.24-.92-.48-1.37-.73-2.35-1.29-4.45-2.62-6.26-3.97,0,.05,0,.1,0,.16,0,.01,0,.09,0,.1-.02.29-.04.52-.06.75l-.03.25c-.02.2-.05.4-.07.6l-.04.27c-.03.2-.06.38-.1.56l-.05.27c-.04.2-.09.38-.14.57l-.06.22c-.08.27-.16.52-.25.76,0,.02-.01.03-.02.05-.1.24-.19.46-.3.66-.03.06-.06.11-.09.16l-.07.11c-.08.13-.16.27-.25.4-.04.06-.09.13-.13.19-.02.03-.07.09-.1.12-.08.1-.19.22-.3.33-.07.07-.13.13-.19.19-.03.03-.09.07-.12.1h0c-.14.11-.25.19-.37.27-.06.04-.14.1-.22.14-.05.03-.13.07-.18.09-.14.07-.27.12-.4.16-.1.04-.21.08-.31.1-.03,0-.07.02-.1.02-.28.06-.57.1-.85.1-1.73,0-3.06-1.23-3.94-3.64-.29-.81-.56-1.79-.78-2.91-.13-.67-.26-1.42-.36-2.22-.1-.76-.19-1.56-.27-2.38-.14-1.5-.25-3.17-.32-4.97-.13-3.38-.11-6.64-.07-8.77.03-1.46.06-2.53.08-3-.71-2.93-1.26-5.78-1.67-8.25-.34.14-.67.21-.95.24-.53.06-1.59.03-2.58-1.02-2.99-3.15-4.2-15.64-2.93-22.66,1.3-7.12,2.83-10.1,4.3-12.98.25-.48.49-.96.74-1.46,1.35-2.75,1.54-6.16,1.72-9.17.05-.82.09-1.62.16-2.38v-.09c.04-.35.08-.7.12-1.03l.03-.23c.04-.32.1-.62.15-.92.03-.14.04-.22.05-.29.06-.29.14-.57.22-.84.04-.15.07-.24.09-.32.09-.27.2-.53.31-.78.05-.12.09-.22.14-.31.15-.3.31-.53.46-.74.04-.06.09-.14.14-.22.02-.03.04-.06.06-.08.28-.35.57-.63.89-.88.25-.19.5-.36.75-.51.07-.04.13-.08.19-.11.22-.13.4-.22.58-.31.09-.05.18-.09.26-.12.19-.08.38-.16.57-.23l.21-.08c.26-.09.52-.17.79-.23.02,0,.04-.01.07-.02.23-.06.47-.1.71-.14l.16-.02c.25-.04.43-.06.61-.08l.24-.02c.18-.01.36-.02.54-.03h.18c.26,0,.49,0,.72,0h.13c.18.01.36.03.54.04h.17s.07.02.08.02c.13.01.26.03.39.04l.98.14s.07.01.08.01c.24.04.47.08.69.13.01,0,.03,0,.04,0l.59.12c.27.06.51.11.71.14,2.02.35,5.03.08,5.69-.74.24-.3.51-.57.8-.81-.15-.03-.3-.06-.45-.12-1.03-.41-1.61-1.27-1.97-2.46-.15.14-.32.27-.51.39-.12.07-.24.14-.36.19-.25.12-.53.2-.82.25-.09.02-.19.04-.27.05-.36.03-.79.04-1.26-.07-.36-.08-.7-.21-1.04-.42-.03-.02-.09-.06-.12-.08-.61-.41-1.05-.98-1.34-1.7,0-.02-.02-.05-.03-.07-.1-.27-.18-.55-.24-.86,0,0,0-.01,0-.02h0c-.23-1.22-.13-2.63-.04-3.88.05-.63.09-1.22.08-1.65-.02-.76-.34-1.38-.94-1.85h-.08c-.38.03-.75-.06-1.06-.24l-.65.07c-.76.09-1.5-.32-1.85-1.01-.35-.69-.24-1.52.28-2.09l.25-.28s.1-.11.1-.11l3.65-3.69c.65-.62,1.36-1.3,2.15-2.03l1.55-1.41c.26-.23.52-.47.8-.71l.44-.38c.29-.25.58-.51.89-.77.76-.65,1.51-1.28,2.29-1.92l.37-.3c.34-.27.68-.55,1.02-.82l.52-.41c.35-.27.7-.55,1.05-.82l.53-.41c.38-.29.75-.58,1.14-.86l.3-.22c.85-.63,1.72-1.26,2.62-1.9l.36-.25c.37-.26.76-.52,1.14-.78l.73-.49c.4-.27.8-.54,1.22-.81l.69-.45c.42-.27.84-.54,1.27-.81l.63-.39c.97-.6,1.95-1.18,2.91-1.73l.29-.17c.42-.24.84-.47,1.27-.7l.97,1.59-.9-1.63c.27-.15.54-.3.82-.45.43-.23.86-.46,1.29-.68.3-.16.6-.31.9-.46.43-.22.87-.44,1.31-.65.24-.12.48-.23.71-.34l.22-.1c6.86-3.24,13.6-5.34,20.04-6.24,28.58-4.02,57.03,17.14,59.33,21.5.76,1.45.04,2.42-.21,2.69-.3.32-.66.53-1.1.69-.28.33-.51.72-.52.9,0,.01,0,.02,0,.03-.01.65.03,1.41.07,2.22.12,2.42.24,4.92-.76,6.58-.04.06-.1.14-.15.21-.09.13-.2.29-.36.45-.43.45-.96.77-1.58.93-1.44.38-2.4-.15-2.85-.5-.77-.6-1.16-1.47-1.36-2.51-.17,1.1-.5,2.14-1.13,2.93-.59.76-1.4,1.24-2.34,1.38-.97.16-1.88-.07-2.62-.66-1.76-1.39-1.99-4.33-2.15-6.48,0-.04,0-.08,0-.12-.46,1.85-.24,8.12.2,10.97,1.32-.22,2.97-.24,4.3.26,1.01.37,1.45,1.1,1.64,1.79.45-.2.94-.44,1.42-.68,1.7-.84,3.16-1.56,4.41-1.56,2.02,0,2.78,1.4,3.1,2,.02.04.05.09.07.14h.41c2.06,0,3.41,0,4.42,1.32,1.19,1.56,2.61,7.82,5.57,21.73.93,4.37,1.89,8.88,2.75,12.63,2.15,9.26,3.37,21.74-.24,26.44-.76,1-1.75,1.63-2.86,1.82-1.46.24-2.47-.21-3.09-.68-.12.57-.25,1.11-.38,1.65,0,0-.03.11-.03.11-.17.7-.35,1.38-.53,2.06-.21.75-.41,1.43-.61,2.09,0,.02-.02.07-.03.09l-.07.22c-.09.29-.18.58-.27.86-.02.07-.05.15-.09.22l-.03.09c-.02.07-.05.14-.07.21l.08,4.68c0,.28,0,.56,0,.84l-.05,2.06c0,.28-.02.55-.03.82-.02.38-.03.68-.05.98v.13c-.03.3-.04.53-.06.77l-.02.25c-.02.23-.04.45-.06.67l-.02.22c-.06.58-.13,1.15-.21,1.7l-.03.21c-.03.21-.07.42-.1.61l-.04.23c-.04.21-.08.42-.12.62l-.04.17c-.06.25-.12.51-.18.74,0,.02-.03.09-.03.11-.06.21-.12.4-.18.59l-.05.16c-.08.22-.13.38-.2.53l-.08.2c-.07.17-.15.33-.23.48-.02.04-.04.07-.06.11-.14.25-.26.45-.39.62-.02.03-.09.12-.11.15l-.09.11c-.09.1-.17.2-.26.29-.07.07-.13.12-.19.18-.08.07-.16.14-.25.21-.05.04-.13.09-.19.12-.06.04-.13.09-.2.13-.25.14-.51.25-.77.31-.32.08-.62.1-.93.09-.48,0-.93-.1-1.34-.28-.03.21-.06.41-.1.59-.06.33-.12.6-.19.87l-.05.19c-.07.29-.15.56-.24.83,0,.02-.04.1-.04.12-.09.25-.18.49-.28.71l-.08.17c-.12.26-.25.5-.4.74l-.08.13c-.17.26-.33.47-.5.66,0,0-.04.05-.08.09-.21.22-.43.42-.67.59-.02.02-.04.03-.06.04-.02.01-.08.05-.14.09-.3.19-.59.34-.88.44-.22.08-.45.14-.67.18-.06,0-.18.03-.24.03-.15.02-.31.03-.46.03-.09.01-.17,0-.26-.01-.17-.02-.31-.04-.45-.06-.11-.02-.19-.05-.28-.07-.14-.04-.27-.09-.4-.15-.07-.03-.15-.07-.23-.11-.12-.07-.24-.14-.36-.22-.07-.05-.13-.1-.2-.15-.11-.09-.22-.19-.32-.3-.03-.03-.09-.08-.14-.14-.11-.13-.23-.28-.35-.45-.02-.02-.04-.06-.06-.09-.08-.13-.16-.25-.23-.38l-.08-.15c-.06-.12-.12-.24-.17-.36l-.05-.12c-.05-.13-.09-.23-.13-.32-.03.03-.06.05-.09.08-.26.22-.53.43-.8.64l-.61.48c-.2.16-.39.31-.59.46-.07.05-.15.11-.22.17-.13.1-.25.2-.38.3-.29.21-.59.41-.89.61l-1.05.71c-.1.07-.2.13-.29.2-.16.11-.31.22-.47.32-.68.43-1.35.82-2.01,1.19-.12.07-.21.12-.3.18-.15.09-.31.18-.46.27-.73.4-1.48.77-2.14,1.1l-.25.13c-.14.08-.29.15-.44.22-.74.35-1.5.68-2.21.98l-.25.11c-.13.06-.27.12-.4.18-.75.31-1.5.59-2.25.86l-.24.09c-.13.05-.27.1-.4.15-.76.27-1.52.51-2.29.74l-.24.08c-.13.04-.26.09-.39.12-.76.23-1.52.43-2.29.63l-.24.07c-.13.04-.26.07-.39.11-.78.19-1.55.37-2.32.53l-.23.05c-.12.03-.23.05-.35.08-.76.16-1.52.3-2.27.43l-.24.04c-.12.02-.24.05-.36.07-.74.13-1.48.23-2.22.34l-.23.03c-.13.02-.26.04-.38.06-.73.1-1.46.18-2.19.26l-.23.03c-.12.02-.24.03-.36.04-.71.07-1.4.13-2.09.18l-.23.02c-.13.01-.27.02-.4.03-.75.05-1.48.1-2.21.13l-.43.02c-.85.04-1.7.07-2.53.09-.82.02-1.64.03-2.47.03ZM24.54,164.25s.07.08.11.12c.23.27.45.53.69.77l.16.16c.32.31.59.56.85.76,1.79,1.4,3.95,2.8,6.42,4.15.42.23.85.46,1.29.69,1.34.7,2.76,1.37,4.22,2.02,2.03.9,4.17,1.74,6.37,2.51,3.5,1.23,7.18,2.28,10.92,3.14.65.15,1.3.29,1.96.43,3.39.7,6.85,1.24,10.29,1.61,4.41.47,8.86.65,13.23.55.8-.02,1.62-.05,2.45-.09l.41-.02c.7-.04,1.4-.07,2.12-.13l.6-.05c.67-.05,1.33-.11,2.01-.18l.56-.07c.7-.07,1.39-.15,2.1-.25l.58-.09c.71-.1,1.41-.2,2.12-.32l.57-.11c.72-.13,1.44-.26,2.16-.41l.55-.13c.73-.16,1.47-.32,2.2-.5.09-.02.18-.05.28-.08l.31-.08c.72-.19,1.44-.38,2.16-.59.09-.03.18-.06.27-.09l.31-.1c.72-.22,1.44-.45,2.15-.7.1-.03.19-.07.28-.11.11-.04.22-.08.32-.12.7-.26,1.41-.52,2.11-.8.09-.04.18-.08.28-.12.11-.05.22-.1.33-.15.7-.3,1.39-.59,2.07-.92.1-.05.21-.1.31-.16.11-.06.22-.11.33-.17.66-.32,1.33-.66,1.99-1.02.11-.06.22-.13.33-.19.12-.07.24-.14.35-.21.67-.39,1.28-.74,1.89-1.12.11-.07.23-.15.34-.23.12-.08.24-.17.37-.25l1.03-.7c.25-.17.51-.34.76-.52.09-.06.17-.13.25-.2.1-.08.2-.16.31-.24.17-.13.35-.27.52-.4l.65-.51c.23-.18.46-.35.68-.54l.08-.07c.05-.05.11-.1.17-.15.48-.41.95-.85,1.42-1.28.1-.1.21-.19.32-.28.06-.06.13-.11.19-.17.03-.03.05-.06.08-.09.02-.02.1-.09.12-.11.55-.49,1.36-.63,2.03-.33.61.27,1.05.83,1.12,1.49h0s0,.02,0,.02c.06.62.14,1.18.25,1.67.04.16.06.26.09.35,0,0,.03.09.03.09.02.08.04.15.07.22l.03.1c.02.07.05.13.07.19,0,0,.04.09.04.09.02.05.04.1.07.14,0,0,.04.08.04.08.01.02.04.07.07.11,0,.01.02.03.03.04,0,0,0,0,0,.01,0,0,.01,0,.02,0,.03-.01.06-.03.09-.05.02-.01.06-.04.08-.05,0,0,.03-.03.06-.06.02-.02.04-.05.06-.07.04-.05.1-.12.15-.2l1.61.95-1.55-1.02c.06-.09.12-.21.18-.34,0,0,.04-.09.04-.1.06-.13.11-.27.16-.42,0-.01.02-.07.03-.08.06-.19.12-.38.17-.58l.04-.15c.05-.2.1-.41.14-.63.05-.27.09-.51.12-.76l.02-.17c.03-.25.06-.49.08-.74l1.73.07s0,0,0,0l-1.71-.15c.02-.23.04-.47.05-.71v-.18c.03-.25.04-.5.05-.76v-.13c.01-.24.01-.46.02-.68,0,0,0-.08,0-.08,0-.3,0-.54,0-.78v-.1c0-.28-.01-.5-.02-.71,0-.26-.02-.48-.03-.69h.07s-.01-.08-.02-.12h-.06s-.03-.57-.03-.57c-.06-1.03.72-1.91,1.74-1.97.86-.05,1.62.49,1.88,1.27.05.14.09.29.11.44.31,2.4.83,3.56,1.14,3.98.02-.03.03-.06.05-.09,0-.02.03-.05.03-.06.05-.1.09-.18.13-.27l.04-.09c.05-.13.09-.23.13-.33l.05-.15c.04-.13.09-.27.13-.42,0,0,.02-.08.02-.09.05-.18.1-.38.14-.59,0,0,.03-.13.03-.13.04-.17.07-.34.1-.52l.04-.2c.03-.17.06-.34.09-.52l.03-.19c.07-.49.13-1,.18-1.53l.09-1.06c.02-.22.03-.44.05-.65v-.18c.03-.29.05-.58.06-.86.01-.33.02-.59.03-.85l.05-3.04-.09-4.61c0-.23.03-.46.1-.68.05-.16.1-.31.16-.47l.11-.33c.02-.07.05-.14.09-.21.06-.19.12-.38.18-.57l.09-.3c.2-.65.39-1.3.57-1.95.19-.69.36-1.35.52-2.01l1.84.34-1.81-.44c.16-.65.31-1.3.45-1.97l.03-.15c.14-.65.27-1.31.39-1.98l.04-.23c.12-.65.23-1.31.33-1.98l.05-.3c.1-.65.19-1.31.27-1.97l.05-.38c.05-.4.1-.81.14-1.22.11-.98.96-1.72,1.96-1.65.99.06,1.76.88,1.75,1.87-.03,5.12.58,6.06.78,6.23,0,0,.08,0,.23-.02.15-.03.33-.16.52-.41,1.85-2.41,2.33-11.41-.43-23.34t0,0c-.87-3.78-1.84-8.31-2.77-12.69-1.62-7.64-3.83-18-4.8-20.07-.33-.03-.94-.03-1.54-.03h-.44c-2.21,0-3-1.47-3.33-2.1-.61.16-1.82.76-2.58,1.14-.24.12-.48.24-.72.35.81.1,1.48.72,1.62,1.54.15.9-.37,1.77-1.23,2.07-.07.02-.19.06-.26.08-.13.03-.28.05-.41.05-.9,0-1.67-.64-1.83-1.53-.09-.5.03-1,.31-1.4-.71.29-1.97.69-3.03,0-.94-.62-1.07-1.61-1.08-2.24-.96-.1-2.2.1-2.62.26-.86.46-1.93.22-2.55-.59-.91-1.18-1.23-5.15-1.34-8.27-.26-7.18.72-8.17,1.2-8.65,1.34-1.32,2.92-1.84,4.27-1.39,1.11.37,1.87,1.32,2.07,2.6.05.35.09.79.13,1.29.06.72.21,2.73.58,3.57.38-.72.45-2.37.24-4.91l-.03-.41c-.11-1.66.46-2.7.97-3.28.78-.9,1.95-1.35,3.13-1.21,1.18.14,2.21.87,2.75,1.94.05.11.1.22.14.33,0-.14,0-.27,0-.41,0-.04,0-.08,0-.13.09-1.44.96-2.63,1.54-3.26-4.79-5.12-30.19-22.09-54.8-18.62-6.06.85-12.44,2.85-18.97,5.92l-.22.1c-.23.11-.45.21-.67.32-.42.2-.83.41-1.25.62-.29.15-.58.29-.87.44-.41.22-.83.43-1.24.65-.26.14-.52.28-.78.43,0,0-.07.04-.07.04-.41.22-.81.45-1.21.67l-.28.16c-.92.53-1.87,1.09-2.81,1.67l-.6.37c-.42.26-.82.52-1.23.78l-.67.43c-.4.26-.79.52-1.18.78l-.7.48c-.37.25-.74.51-1.1.76l-.35.24c-.87.62-1.72,1.23-2.54,1.84l-.29.21c-.37.28-.74.56-1.1.84l-.52.4c-.35.27-.68.53-1.02.8l-.51.41c-.33.27-.66.53-.99.8l-.37.3c-.75.62-1.48,1.23-2.18,1.82,0,0-.06.05-.07.06-.27.23-.56.48-.84.73l-.42.37c-.27.23-.52.46-.78.69l-1.51,1.37c-.77.71-1.46,1.36-2.09,1.97l-1.42,1.39c1.02.66,1.79,1.54,2.27,2.56.1-.76.35-1.41.84-1.93.3-.3.65-.52,1.03-.65.2-.08.42-.13.64-.14.66-.06,1.3.16,1.81.6.51.44.84,1.04,1.06,1.83.03-.12.07-.23.12-.35.07-.18.15-.34.25-.5.44-.7,1.11-1.11,1.89-1.18.34-.02.64.03.93.13.09.03.18.06.26.1.3.15.53.33.73.54.03.03.07.07.1.1.31.35.55.78.74,1.3.28.71.52,1.72.71,3.01,0-.55,0-1.12,0-1.7,0-.42.07-.81.22-1.18.02-.05.04-.1.06-.15.16-.36.39-.68.68-.95.92-.84,2.34-1.06,3.53-.55,1.19.51,1.94,1.64,1.95,2.94v.02c0,.07,0,.15,0,.24,0,.03,0,.06,0,.09l.02.54c0,.18.02.37.03.57l.02.33c.02.24.04.48.06.73l.03.28c.03.33.07.66.12.99,0,0,0,.07,0,.07.03.18.05.36.08.54v.08c.18-1.06.31-1.78.78-2.33.06-.08.16-.18.24-.24.27-.24.62-.4.99-.46.19-.03.38-.04.57-.01h0c.44.06.85.27,1.17.61.06.06.12.13.17.2.15.21.24.4.3.54,0,0,0,.01,0,.02.17.4.2.83.09,1.23-.07.73,0,1.38.25,2.04.11-.79.19-1.75.24-2.87,0,0,0-.02,0-.03.01-.26.02-.51.03-.76.03-.87.04-1.7.04-2.4.02-1.45.03-1.93.12-2.32.05-.23.15-.47.28-.7.35-.6.91-1.04,1.59-1.26,1.02-.29,2.1-.11,3.03.49.84.54,1.47,1.35,1.84,2.35.18-.56.4-1.02.66-1.37.6-.8,1.31-1.09,1.8-1.19,0,0,0,0,0,0,.81-.17,1.62,0,2.27.48.61.45,1.01,1.11,1.28,1.9.09-.48.23-.85.45-1.18.36-.52.87-.85,1.45-.93.54-.09,1.3.07,1.86.73.15-.18.32-.32.51-.43.48-.29,1.05-.38,1.58-.24.03,0,.05.01.07.02.04.01.08.02.11.04,1.47.52,1.65,2.1,1.94,4.71,0,.02,0,.04,0,.06,0,.02,0,.03,0,.05,0-.2-.01-.39-.02-.57-.04-1.18-.09-2.3-.02-3.24v-.11c.03-.24.05-.41.07-.58.02-.11.03-.22.05-.31.02-.08.04-.17.06-.25.04-.18.09-.33.15-.47l.05-.14c.12-.26.24-.46.38-.64.03-.04.1-.12.13-.15.26-.28.54-.48.86-.61.79-.33,1.64-.26,2.34.17.58.36,1,.91,1.31,1.65.13-.61.31-1.13.54-1.5.49-.75,1.24-1.18,2.06-1.18.48,0,.95.15,1.35.43.02.01.04.03.06.04h0c.28.21.53.48.73.81.17.29.28.54.38.82,0,.02.02.06.03.08.07.19.14.45.2.73.01.05,0,.04.02.09.2.88.33,2.06.47,3.3.13,1.19.27,2.42.48,3.48l.02.07c.05.24.1.46.15.67l.05.2c.03.09.05.18.08.27.03.1.07.2.1.29.03.06.05.13.08.19.03.06.05.11.08.16.02-.03.03-.06.05-.09.02-.06.04-.12.06-.18.04-.11.06-.17.07-.23,0-.04.02-.09.02-.13l.02-.09c.09-.47.13-1.03.14-1.69,0-.76-.03-1.56-.06-2.33-.05-1.28-.11-2.49.03-3.46l.03-.17c.04-.23.09-.45.17-.67.04-.12.07-.2.1-.27.09-.22.21-.43.37-.63.07-.1.17-.23.31-.37.24-.23.53-.4.87-.52.13-.05.26-.09.39-.11.79-.15,1.6.13,2.22.76,0-.67.2-1.29.58-1.8.71-.94,1.9-1.39,2.97-1.13.8.2,1.41.77,1.64,1.53.4-.5.95-.82,1.55-.92h0c.75-.12,1.47.07,2.04.55,1.23,1.03,1.25,2.9,1.28,5.27.01,1.09.04,3.28.39,3.98.15-.03.23-.09.33-.25.5-.81.57-2.68.63-4.19.08-2.26.15-4.2,1.35-5.4.32-.32.69-.55,1.1-.7.71-.25,1.48-.15,2.1.26.9.61,1.33,1.69,1.58,3.57.12-3.32.42-3.61.81-3.97.04-.03.07-.07.11-.1.78-.63,1.84-.84,2.85-.54,1.03.3,1.84,1.06,2.16,2.03.06.17.12.39.18.64l.04.17s.02.09.03.12c0,.04.02.12.03.16h0c.01.06.02.12.03.18l.03.14c.04.25.08.44.12.64l.04.23s.01.07.01.08v.09s-1.81.38-1.81.38l1.84-.27c.04.27.08.56.12.85l.33,3.14c.08.91.15,1.84.2,2.76v.17c.03.31.04.62.05.93v.17c.02.33.03.64.04.95.03,1.05.02,1.95-.01,2.72v.13c-.02.22-.03.42-.05.61l-.03.3c-.02.18-.04.34-.06.49-.02.12-.04.24-.06.36-.03.15-.05.28-.08.39-.05.21-.11.38-.17.54-.03.1-.07.19-.11.26-.13.25-.29.49-.47.7-.66.75-1.6,1.14-2.6,1.09-.98-.05-1.87-.53-2.44-1.33-.11-.15-.24-.34-.38-.7-.12.31-.28.61-.5.88-.32.4-.72.7-1.2.91-1.66.7-2.77.16-3.44-.16-.39-.19-.64-.31-1.15-.32-.61-.01-1.07.18-1.64.43-.8.35-1.9.82-3.31.5-.58-.13-.99-.4-1.28-.8-.35.27-.76.43-1.2.47-.65.05-1.29-.17-1.8-.62-.17-.15-.4-.36-.65-.79-.11.31-.3.62-.54.89-1.75,1.94-6.58,1.97-8.78,1.56-1.84-.34-2.99-1.09-3.41-2.22-.03-.09-.07-.22-.11-.37-.14.68-.33,1.26-.59,1.7-.18.3-.38.56-.62.77-.72.63-1.55.57-2.22.53-.37-.03-.79-.06-1.16.01-.31.06-.71.2-1.09.33-.55.19-1.16.39-1.78.45.4.4.6.97.53,1.56-.12.88-.84,1.56-1.73,1.62l-4.36.28c-.82.05-1.58-.44-1.86-1.21-.29-.77-.04-1.64.62-2.13.1-.08.21-.15.33-.22.13-.08.29-.15.45-.2-.41-.11-.82-.18-1.16-.19-.38,0-.78.21-1.21.41-.68.33-2.27,1.1-3.56-.19-.23-.23-.44-.67-.63-1.28-.19.43-.42.8-.7,1.1-.29.31-.61.54-.96.7.14,0,.28.01.41.02.99.05,1.76.86,1.77,1.85,0,.99-.76,1.81-1.74,1.87l-1.06.07s0,0,0,0l-9.95.64c-1,.06-1.88-.68-1.97-1.68-.1-1,.62-1.9,1.62-2.03.82-.11,1.67-.2,2.53-.29-.21-.19-.43-.41-.67-.67-.33-.35-1.18-1.23-1.63-1.43-.19.11-.52.4-.73.58-.69.61-1.55,1.36-2.77,1.22-.5-.06-1.21-.29-1.79-1.1-.22-.3-.39-.69-.52-1.22-.02-.08-.04-.16-.05-.24,0,0,0,0,0-.01-.05-.21-.09-.43-.13-.69-.33,1.35-1.17,2.33-2.34,2.63-.07.02-.15.04-.22.05-.73.14-1.32.45-1.71.93-2.57,3.19-9.15,2.09-9.22,2.07-.22-.04-.5-.09-.83-.16l-.53-.11s-.02,0-.03,0c-.2-.04-.41-.08-.63-.12h-.09s-.08-.03-.09-.03l-1.19-.14c-.14-.01-.27-.02-.41-.02-.01,0-.07,0-.08,0-.19,0-.36,0-.54,0h-.14c-.12,0-.24.02-.37.02h-.16c-.13.03-.26.04-.38.06l-.15.02c-.15.02-.31.06-.47.09-.02,0-.04,0-.06.01-.15.04-.3.08-.45.13,0,0-.12.05-.13.05-.12.04-.23.09-.34.14l-.16.08c-.09.05-.2.1-.3.16,0,0-.06.04-.07.04l-.08.04c-.14.09-.29.18-.43.29-.07.06-.14.12-.21.2-.04.06-.07.12-.11.17-.07.1-.14.19-.19.29-.01.04-.04.1-.06.15-.06.14-.12.27-.17.42l-.06.2c-.05.18-.1.36-.15.56l-.04.21c-.05.23-.09.47-.12.72l-.02.19c-.04.29-.07.59-.1.9,0,0,0,.08,0,.08-.06.72-.11,1.48-.15,2.27-.19,3.36-.42,7.17-2.09,10.59-.25.52-.51,1.02-.77,1.52-1.41,2.77-2.75,5.38-3.95,11.95-1.26,6.95.27,16.66,1.66,19.03.14-.22.34-.63.53-1.38.22-.87,1.02-1.47,1.92-1.4.89.05,1.62.73,1.74,1.62.39,3.05,1.11,7.7,2.3,12.51.05.18.06.37.05.55h0s-.05,1.25-.09,3.17c-.04,2.09-.06,5.27.07,8.56.07,1.74.17,3.34.3,4.77.07.76.15,1.51.25,2.22.1.73.21,1.4.33,2,.19.94.39,1.73.62,2.36.23.63.43.96.55,1.12.02-.03.04-.04.05-.06,0,0,.02-.02.03-.03.06-.09.09-.13.11-.18,0-.01.03-.06.04-.07l.03-.05c.05-.1.1-.21.15-.34,0,0,0-.02.01-.03.05-.15.1-.29.14-.45l.04-.16c.03-.13.07-.26.09-.39l.03-.14c.04-.2.06-.34.09-.49l.03-.22c.02-.15.04-.31.06-.48l.02-.21c.02-.19.03-.39.05-.59,0,0,0-.08,0-.09.05-.79.07-1.61.06-2.5,0-.32-.01-.59-.02-.85-.01-.34-.02-.61-.04-.88-.04-.81.45-1.55,1.21-1.84.76-.28,1.61-.04,2.12.59l.13.16s.05.07.08.1ZM133.34,164.71l1.18.87-1.3-1.07.12.2ZM142.67,137.43h0,0ZM69.13,85.04v.04s.22-.68.22-.68c0,0-.02,0-.03,0l-.19.65ZM52.34,84.03s-.03.06-.04.08c-.12.23-.24.46-.37.65-.04.06-.09.12-.13.17l1.86-.13c-.6-.2-1.02-.53-1.32-.78ZM68.31,83.75c-.05.06-.1.12-.15.18l.32-.02c-.05-.04-.11-.09-.17-.16ZM127.21,83.85h0,0ZM47.93,80.22c.59.41,1.11.91,1.56,1.36.03-.04.06-.07.09-.11-.49-.25-1-.69-1.43-1.48-.07.08-.14.16-.21.23ZM53.21,80.27c.69.2,1.15.59,1.43.83,0,0,.01,0,.02.01.32-1.06.45-3.51.34-4.92-.12-1.46-.24-2.41-.5-4.09,0,.25-.01.52-.02.78,0,.27-.02.54-.03.82,0,.02,0,.05,0,.07-.07,1.63-.21,2.98-.42,4.07-.14.74-.32,1.34-.54,1.84-.05.12-.1.24-.15.34-.04.08-.09.16-.13.23ZM60.69,73.72c-.03,2.4.19,5.28.49,7.04.55-.23,1.24-.44,2.04-.46.8-.01,1.53.14,2.16.3.03-.46.04-1.01.04-1.62-.33.22-.71.35-1.1.4-.71.09-1.4-.11-1.95-.55-1.21-.97-1.45-2.87-1.66-5.1ZM36.27,80.66s-.02,0-.04,0h0s.02,0,.03,0ZM70.74,79.25c.07.5.14.95.22,1.32.04-.01.08-.03.12-.04.47-.16,1-.34,1.56-.46.63-.12,1.21-.13,1.68-.11.09-.45.15-1.1.17-1.91-.32.5-.75.89-1.31,1.16-.29.14-.59.23-.9.27-.29.04-.51.02-.66,0-.02,0-.05,0-.07,0-.18-.02-.36-.07-.55-.14-.06-.02-.13-.05-.19-.07-.02,0-.05-.02-.08-.03ZM43.05,79.35c.02.34.05.63.07.89.18-.14.38-.27.59-.39-.09-.12-.17-.25-.25-.39-.05-.08-.09-.16-.12-.25-.09-.17-.17-.35-.25-.56-.03-.09-.07-.18-.11-.27.02.29.03.57.05.83,0,.05.01.09.01.14h0ZM81.46,79.48c1.14.51,4.73.42,5.89-.14.08-.58.1-1.57.06-2.74,0,0,0,0,0,0-.06.15-.13.29-.2.42-.05.1-.09.2-.15.29-.07.12-.15.23-.24.34-.06.09-.13.17-.19.25-.23.26-.52.51-.85.71-.07.04-.12.07-.18.1-.4.22-.8.35-1.22.41-.08.01-.17.02-.26.02-.22.02-.45.01-.68-.01-.13-.02-.24-.03-.35-.06-.32-.07-.59-.18-.84-.31-.1-.06-.19-.12-.28-.18-.15-.1-.32-.23-.47-.38-.09-.08-.16-.15-.23-.23-.04-.05-.09-.1-.13-.15.11.71.22,1.29.32,1.67ZM50.81,78.83l.81.47-.8-.53v.05ZM121.51,78.94s0,0,0,0c0,0,0,0,0,0ZM50.34,78.56l.39.23v-.06s-.1-.07-.1-.07l-.36-.18.08.08ZM97.42,75.91c.01.46.02.9.03,1.32,0,.49.02,1.03.04,1.5.03-.01.06-.02.09-.04.75-.32,1.77-.76,3.19-.74,1.31.03,2.14.42,2.68.68.03.01.05.03.08.04,0-.55-.12-1.47-.22-2.18-.12-.87-.25-1.85-.31-2.89-.1.23-.22.45-.35.67-.69,1.12-1.74,1.81-3.03,1.99-.94.14-1.67-.06-2.2-.34ZM133.32,77.13h0,0ZM83.96,75.69l.77,1.36-.65-1.27-.12-.09ZM116.53,75.77s-.04.02-.07.04c.02-.01.04-.02.07-.04ZM83.82,75.43s0,0,0,0h0s0,0,0,0ZM49.78,75.21s0,0,0,0c0,0,0,0,0,0ZM50.28,73.98h0ZM48.35,73.72h0,0ZM132.73,68.73s0,.01-.01.02c0,0,.01-.01.01-.02ZM35.97,68.7h0,0ZM68.92,68.54h0,0ZM73.92,67.92l.79.05s.06-.02.09-.03c.03-.01.05-.02.07-.03h-1.01s.04,0,.06.01ZM73.49,67.89h.17s0,0,0,0h-.16ZM96.04,66.43s0,0,0,0h0s0,0,0,0ZM111.3,64.52l-.7.1h.22s.48-.1.48-.1ZM95.75,64.59h0,0ZM108.64,64.45s0,0,0,.01c0,0,0-.01,0-.01Z" />
    <path class="cls-3"
      d="M136.14,75.83c-.74,0-1.46-.34-1.93-.98-.7-.96-.59-2.24.27-3.06,1.2-1.13,2.17-3.18,2.59-5.49.35-1.94.08-3.77-.89-5.95-1.39-3.12-2.47-6.77.11-10.22.72-.96,1.54-1.76,2.34-2.53.35-.34.7-.67,1.03-1.01,1.4-1.45,2.54-2.52,3.7-3.46.82-.66,2-.65,2.8.02.79.67,1,1.77.49,2.69-.73,1.34-1.56,2.59-2.35,3.8l-.47.71c-.15.23-.32.47-.48.72-.62.91-1.26,1.86-1.52,2.69-.22.71.29,1.82.74,2.79l.06.12c.59,1.29,1.19,2.7,1.53,4.29.6,2.79.25,5.82-.97,8.53-1.45,3.23-4.07,4.98-5.92,6.02-.36.2-.75.3-1.14.3ZM135.46,72.28s0,0,0,0h0Z" />
    <path class="cls-3"
      d="M141.41,80.19c-1.16,0-2.11-.4-2.83-.77-.73-.37-1.19-1.07-1.25-1.89-.05-.83.34-1.63,1.02-2.1.18-.12.34-.26.5-.4.23-.19.5-.41.8-.62.39-.27.81-.52,1.22-.77l.29-.17c.77-.47,1.2-.93,1.85-1.77.65-.83,1.17-1.78,1.51-2.74.21-.59.41-1.22.57-1.83.04-.16.07-.37.1-.6.05-.4.12-.89.29-1.41.28-.82,1.02-1.41,1.88-1.49.85-.07,1.65.33,2.08,1.07.46.79.59,1.59.69,2.23.02.14.05.29.07.43.18.94.23,1.84.14,2.91-.16,1.95-.7,3.68-1.62,5.15-.95,1.52-2.35,2.85-3.96,3.76-.59.33-1.76.9-3.05.98-.11,0-.21.01-.32.01Z" />
    <path class="cls-3"
      d="M16.84,82.7c-1.72,0-3.27-.56-4.55-1.66-2.85-2.45-2.64-6.33-2.23-9.04.1-.64.22-1.3.34-1.96.43-2.3.84-4.48.13-6.33-.28-.74-.77-1.46-1.34-1.99h0c-.21-.2-.48-.4-.77-.62-.91-.69-2.16-1.64-2.57-3.34-.29-1.19.12-2.33,1.09-3.07.99-.74,2.16-1.03,3.39-.84,2.93.47,5.2,3.53,5.62,4.14,1.66,2.39,2.32,5.45,1.91,8.86-.16,1.32-.48,2.58-.8,3.81-.41,1.6-.79,3.11-.79,4.58,0,.83.28,1.47.83,1.89.68.52,1.72.67,2.79.39,1.09-.29,2.19.3,2.59,1.37.38,1.04-.08,2.18-1.07,2.66-1.61.77-3.15,1.16-4.58,1.16ZM11.73,58.99c.83.77,1.54,1.75,2.03,2.8-.2-.57-.48-1.13-.85-1.66-.73-1.05-1.95-2.23-2.91-2.53.18.16.41.34.68.54.34.26.7.53,1.05.86h0Z" />
    <path class="cls-3"
      d="M22.7,78.04c-.87,0-1.63-.27-2.11-.44-.58-.2-1.43-.6-2.15-1.31-.76-.76-1.5-2.09-1.28-3.54.06-.38.18-.78.35-1.15.15-.32.37-.59.64-.91l.03-.04c.65-.87,1.84-1.19,2.79-.74.78.38,1.22,1.17,1.17,2.05.21.04.56.05.75.05.54.01,1.09.02,1.64.37.38.24.86.61,1.19,1.28.23.47.33.98.3,1.5-.07,1.21-.86,2.26-2,2.67-.45.16-.9.22-1.32.22ZM21.2,72.84s-.03.05-.06.09c.02-.03.04-.06.06-.09ZM18.48,71.48s0,0,0,0c0,0,0,0,0,0Z" />
    <path class="cls-3"
      d="M10.85,88.34c-.86,0-1.64-.15-2.39-.45,0,0,0,0,0,0-1.3-.53-2.35-1.57-3.12-3.09-1.16-2.29-.55-4.67-.06-6.59l.22-.89c.2-.81.39-1.57.42-2.3,0-.06-.07-.47-.11-.74-.13-.87-.21-1.39-.14-1.85.09-.66.48-1.22,1.06-1.54.6-.33,1.33-.35,1.95-.06,1.48.69,1.75,2.38,1.88,3.19.09.56.12,1.08.15,1.58.02.26.03.52.06.78.06.59.17,1.19.28,1.82.05.3.11.6.16.9l.04.26c.12.85.27,1.53.96,1.93,1.06.62,3.2.66,4.85.43,1.06-.15,2.07.5,2.4,1.54.33,1.06-.12,2.18-1.08,2.67-.25.13-.49.25-.72.38-.6.32-1.22.65-1.92.94-.98.4-2,.7-3.23.92-.59.11-1.15.16-1.67.16ZM9.87,84.43c.19.08.4.13.63.16-.05-.03-.1-.06-.15-.09-.84-.49-1.42-1.11-1.82-1.74.04.12.08.23.14.34.35.7.76,1.14,1.21,1.33Z" />
    <path class="cls-5"
      d="M31.58,24.07h2.97v29.01c1.96-1.52,4.05-3.06,6.26-4.57V6.84h-6.26v11.26h-2.97V6.84h-6.26v54.02c1.83-1.68,3.93-3.51,6.26-5.42v-31.38Z" />
    <path class="cls-5"
      d="M49.62,14.74c0-1.59.52-2.38,1.57-2.38.93,0,1.39.78,1.39,2.33v26.74c2.04-1.06,4.13-2.05,6.27-2.96V14.79c0-2.7-.66-4.75-1.98-6.14-1.32-1.4-3.24-2.1-5.78-2.1s-4.47.7-5.78,2.1c-1.32,1.4-1.97,3.44-1.97,6.14v30.67c0,.46.02.89.06,1.32,1.99-1.29,4.07-2.55,6.22-3.75V14.74Z" />
    <path class="cls-5" d="M70.39,12.89h3.73v-6.05h-13.76v6.05h3.73v23.56c2.06-.71,4.16-1.32,6.29-1.83V12.89Z" />
    <path class="cls-5"
      d="M90.42,33.41V14.7c0-.58.12-1.12.35-1.61.23-.49.71-.73,1.44-.73.58,0,.97.23,1.15.69.18.46.28,1.03.28,1.71v2.79h6.15c0-2.35-.21-4.35-.64-5.98-.43-1.64-1.21-2.88-2.34-3.73-1.13-.85-2.76-1.28-4.88-1.28-5.15,0-7.72,2.94-7.72,8.83v17.64c2.09.02,4.16.15,6.22.39Z" />
    <path class="cls-5" d="M99.72,20h-7.69v5.44h1.68v8.41c2.03.33,4.04.76,6.01,1.26v-15.12Z" />
    <path class="cls-5"
      d="M107.85,33.27h3.79l.52,6.06c2.14.91,4.19,1.87,6.14,2.86l-3.24-35.35h-10.67l-2.86,28.76c2.02.56,4,1.19,5.92,1.88l.41-4.2ZM109.49,12.21h.29l1.38,16.03h-2.86l1.2-16.03Z" />
    <path class="cls-5"
      d="M128.85,27.99l5-21.15h-6.22l-1.75,10.67-1.75-10.67h-6.24l5.02,21.15v16.7c2.17,1.25,4.16,2.5,5.93,3.71v-20.41Z" />
    <path class="cls-6"
      d="M24.91,61.81V6.42h7.09v11.26h2.13V6.42h7.09v42.31l-.18.12c-2.09,1.43-4.19,2.97-6.24,4.55l-.67.52v-29.44h-2.13v31.16l-.15.12c-2.14,1.75-4.24,3.57-6.24,5.4l-.7.64ZM25.74,7.26v52.66c1.75-1.59,3.57-3.15,5.42-4.67v-31.6h3.8v28.58c1.79-1.37,3.61-2.69,5.42-3.94V7.26h-5.42v11.26h-3.8V7.26h-5.42Z" />
    <path class="cls-6"
      d="M43.04,47.51l-.06-.7c-.03-.43-.06-.88-.06-1.35V14.79c0-2.8.7-4.96,2.09-6.43,1.39-1.48,3.44-2.23,6.09-2.23s4.69.75,6.09,2.23c1.39,1.47,2.09,3.63,2.09,6.43v23.95l-.25.11c-2.03.86-4.13,1.85-6.24,2.95l-.61.32V14.69c0-1.91-.71-1.91-.98-1.91-.32,0-1.16,0-1.16,1.96v28.53l-.21.12c-2.12,1.19-4.2,2.45-6.19,3.74l-.59.38ZM51.1,6.97c-2.41,0-4.25.66-5.48,1.96-1.23,1.31-1.86,3.28-1.86,5.86v30.67c0,.2,0,.39.01.58,1.75-1.12,3.58-2.22,5.43-3.26V14.74c0-2.31,1.08-2.8,1.99-2.8.83,0,1.81.48,1.81,2.75v26.06c1.84-.94,3.67-1.79,5.44-2.55V14.79c0-2.58-.63-4.55-1.86-5.86-1.23-1.3-3.07-1.96-5.48-1.96Z" />
    <path class="cls-6"
      d="M63.68,37.04V13.31h-3.74v-6.89h14.6v6.89h-3.73v21.64l-.32.08c-2.09.5-4.2,1.12-6.25,1.82l-.55.19ZM60.77,12.48h3.74v23.4c1.8-.6,3.63-1.13,5.46-1.58V12.48h3.73v-5.22h-12.93v5.22Z" />
    <path class="cls-6"
      d="M90.84,33.87l-.46-.05c-2.04-.23-4.12-.36-6.18-.38h-.41V15.38c0-6.13,2.74-9.25,8.14-9.25,2.2,0,3.93.46,5.13,1.36,1.2.91,2.04,2.24,2.49,3.96.44,1.66.66,3.71.66,6.09v.42h-6.98v-3.21c0-.62-.08-1.15-.25-1.55-.08-.2-.24-.43-.77-.43-.74,0-.96.28-1.06.5-.2.43-.31.91-.31,1.43v19.17ZM84.62,32.61c1.8.03,3.61.14,5.39.33V14.7c0-.64.13-1.25.39-1.79.21-.44.7-.97,1.82-.97.95,0,1.36.52,1.54.95.2.51.31,1.14.31,1.87v2.38h5.31c-.02-2.13-.23-3.96-.63-5.46-.4-1.53-1.14-2.71-2.19-3.51-1.05-.79-2.61-1.2-4.63-1.2-4.91,0-7.3,2.75-7.3,8.41v17.23Z" />
    <path class="cls-6"
      d="M100.13,35.66l-.52-.13c-2.04-.51-4.05-.94-5.97-1.25l-.35-.06v-8.35h-1.68v-6.28h8.52v16.07ZM94.13,33.51c1.68.29,3.41.65,5.17,1.08v-14.17h-6.85v4.61h1.68v8.48Z" />
    <path class="cls-6"
      d="M118.78,42.9l-.67-.34c-2.03-1.03-4.09-1.99-6.11-2.85l-.23-.1-.5-5.92h-3.03l-.43,4.36-.5-.18c-1.9-.68-3.88-1.31-5.89-1.87l-.34-.09,2.93-29.48h11.43l3.35,36.48ZM112.55,39.04c1.74.74,3.51,1.56,5.26,2.43l-3.14-34.22h-9.91l-2.79,28.04c1.74.49,3.45,1.03,5.1,1.61l.4-4.05h4.55l.53,6.19ZM111.61,28.66h-3.76l1.26-16.86h1.06l1.45,16.86ZM108.75,27.82h1.96l-1.05-12.18-.91,12.18Z" />
    <path class="cls-6"
      d="M129.27,49.19l-.65-.44c-1.85-1.26-3.84-2.5-5.91-3.69l-.21-.12v-16.89l-5.13-21.62h7.12l1.4,8.51,1.4-8.51h7.1l-5.12,21.62v21.15ZM123.33,44.45c1.77,1.03,3.49,2.09,5.1,3.17v-19.72s4.89-20.64,4.89-20.64h-5.34l-2.11,12.83-2.11-12.83h-5.36l4.91,20.73v16.46Z" />
    <path class="cls-2"
      d="M49.62,78.78c.26.6.58,1.03,1.01,1.1-.39-.31-.72-.7-1.01-1.1ZM49.62,78.78c.26.6.58,1.03,1.01,1.1-.39-.31-.72-.7-1.01-1.1ZM49.62,78.78c.26.6.58,1.03,1.01,1.1-.39-.31-.72-.7-1.01-1.1ZM144.79,113.24c-2.81-12.15-6.45-31.63-7.99-33.66-.48-.63-1.26-.58-3.37-.58s-1.28-2.14-3.15-2.14c-1.27,0-3.96,1.68-5.77,2.37-3.01,1.31-.93-1.51-2.36-2.04-1.64-.61-4.23-.08-4.77.23-1,.57-1.85-13.22-.5-14.55,1.35-1.33,2.93-1.39,3.17.18.24,1.57.08,7.02,2.74,6.59,2.64-.42,2-5.74,1.87-7.48-.19-2.8,2.52-3.18,3.34-1.58.31.6.27,1.94.24,3.34-.04,2.39.01,4.97,2.03,4.44,2.28-.6,1.33-5.59,1.39-8.66.02-1.27,1.37-2.5,1.37-2.5l-100.96,6.05-8.4,4.34s2.92.9,3.01,4.01c.06,2.18-.98,6.47,1.28,6.9.19.05.42.05.67.03,3.52-.34-.35-9.77,1.87-10.28.03-.02.06-.03.1-.03,2.29-.24.56,11.11,2.76,11.99.14.05.3.06.47.03,2.54-.49.5-8.92,1.37-11.1.12-.31.3-.49.56-.51.35-.02.64.35.88.97.86,2.19,1.11,7.56,1.19,10.59.03,1.29-.46,2.12-1.13,2.26t-.02.01c-.87.16-2.02.57-2.85,1.6-1.48,1.84-5.81,1.7-7.45,1.41-1.65-.28-6.19-1.68-9.54.9-3.36,2.58-.88,11.23-4.01,17.62-1.7,3.49-3.41,5.93-4.88,13.96-1.46,8.03.57,21.86,3.45,21.5,5.22-.64,1.69-20.16,3.52-28.77,2.3-10.85,6.34-21.49,6.82-21.71.88-.39,111.06-7.65,113.19-7.21,2.12.45,5.38,41.46,5.26,44.25-.41,9.29-.19,13.73,3.02,13.2,4.17-.71,4.71-12.56,1.59-26ZM55.23,83.13c-1.89.2-1.74-1.41-3.31-1.07s-1.09,2.45-2.59,1.94c-.52-.18-2.3-2.82-3.87-2.78-1.57.05-2.79,2.78-3.71,1.5-.08-.11-.16-.33-.23-.6v-.04s-.01-.03-.01-.05c-.14-.6-.24-1.5-.32-2.55,0-.02-.01-.05-.01-.08-.23-3.25-.23-7.83-.23-9.12,0-.21.04-.4.11-.55h0c.51-1.15,2.59-.85,2.61.69,0,.11,0,.25.01.38.06,2.01.44,6.11,1.4,7.73h0c.28.49.6.75.99.69.56-.1.93-.71,1.18-1.48.54-1.67.57-4.13,1-4.07.07.01.13.1.19.26.32.81.53,3.37,1.17,4.87.26.6.58,1.03,1.01,1.1.11.03.23.02.37-.01.38-.09.67-.52.89-1.15,1-2.77.68-9.53.85-10.22.07-.32.32-.53.63-.63.9-.26,2.43.44,2.75,2.47.44,2.75.59,3.79.75,5.71.06.81.24,6.87-1.63,7.08ZM66.77,82.67c-.52.32-2.07-.54-3.51-.51-1.67.04-2.75,1.43-3.41.77-.66-.66-2.24-14.11.66-14.73,2.89-.6,1.14,9.62,3.56,9.33,2.13-.27.7-8.88,1.78-9.04,1.07-.17,2.02,13.5.92,14.18ZM75.51,81.8c-.27.24-1.33-.12-2.49.1-1.3.27-2.73,1.08-3.29.63-1.06-.86-1.91-13.34-.81-14,.49-.3.67,1.25.89,3.14h0c.32,2.73.71,6.17,2.23,5.97.77-.1,1.16-.84,1.36-1.9.58-3.11-.59-9,.69-9.53,1.73-.72,1.87,4.59,1.97,5.61.1.94.91,8.67-.55,9.97ZM89.06,80.2c-.59,1.82-8.57,2.04-9.26.24-.69-1.8-2.26-14.93-.17-14.93.45,0,.73.57.94,1.47.73,3.26.47,10.78,3.53,10.3.62-.09,1.06-.44,1.37-.94,1.62-2.65-.47-9.85,1.33-10.18,2.14-.4,2.87,12.21,2.27,14.04ZM93.09,80.43c-2.09.17-2.49-14.04-2.53-15.34-.03-1.15,1.46-1.49,1.57-.81.1.56,3.04,15.97.96,16.15ZM104.55,80.44c-1.58.66-1.79-.58-3.82-.62-2.09-.04-2.98,1.34-4.59.98-.73-.16-.42-3.43-.69-6.98-.33-4.3-1.07-9.01.31-9.22,2.53-.41-.61,10.42,3.61,9.82,4.22-.59,1.36-9.78,3.82-10.64,1.43-.5,1.41,4.8,1.67,9.62.18,3.44,1.28,6.37-.31,7.05ZM111.21,79.77c-.46.92-1.74,1.06-2.35.21-1.17-1.63-.83-16.53-.53-16.76.67-.55,1.81-.16,2.07.64.06.17.11.42.18.71,0,.03.01.06.01.09.05.25.11.52.15.83.02.15.05.31.08.47.62,4.16,1.14,12.27.38,13.81ZM49.62,78.78c.26.6.58,1.03,1.01,1.1-.39-.31-.72-.7-1.01-1.1ZM49.62,78.78c.26.6.58,1.03,1.01,1.1-.39-.31-.72-.7-1.01-1.1Z" />
    <path class="cls-5"
      d="M26.69,71.62c.03.99-.17,2.41-.18,3.71,1.23,0,2.46,0,3.69-.02-.07-2.89-1.07-6.71.31-7.03.03-.02.06-.03.1-.03,1.34-.14,1.3,3.68,1.48,7.05,1.02,0,2.03-.02,3.05-.03-.09-2.42-.37-5.03.06-6.11.12-.31.3-.49.56-.51.35-.02.64.35.88.97.47,1.21.76,3.4.94,5.63,1.14,0,2.28-.02,3.42-.03-.05-2.17-.05-4.16-.05-4.94,0-.21.04-.4.11-.55h0c.51-1.15,2.59-.85,2.61.69,0,.11,0,.25.01.38.03,1.1.16,2.81.43,4.4,1.22-.01,2.45-.02,3.67-.03.14-.88.25-1.54.48-1.51.07.01.13.1.19.26.1.26.19.71.29,1.25,1.25-.01,2.51-.02,3.76-.03.23-2.91.12-6.15.23-6.61.07-.32.32-.53.63-.63.9-.26,2.43.44,2.75,2.47.36,2.25.53,3.36.66,4.73.69,0,1.37-.01,2.06-.02-.07-3.35.3-6.57,1.68-6.86,1.91-.4,1.79,3.92,2.19,6.82.85,0,1.7-.02,2.55-.02.27-2.64-.11-6.4.6-6.51.52-.08,1.01,3.11,1.25,6.5.46,0,.92,0,1.38-.01-.17-3.13-.09-6.12.44-6.43.49-.3.67,1.25.89,3.14h0c.12,1.08.26,2.25.47,3.27,1.07,0,2.14-.02,3.22-.03.29-3.22-.59-8.22.59-8.71,1.73-.72,1.87,4.59,1.97,5.61.04.34.17,1.58.25,3.07.86,0,1.72-.01,2.59-.02-.44-4.28-.56-9.38.74-9.38.45,0,.73.57.94,1.47.45,1.98.52,5.52,1.2,7.89,1.4-.01,2.8-.02,4.2-.03.57-3.2-.7-8.4.82-8.68,1.34-.25,2.12,4.56,2.38,8.66.68,0,1.37-.01,2.05-.01-.5-4.07-.64-8.97-.66-9.71-.03-1.15,1.46-1.49,1.57-.81.06.34,1.14,5.98,1.55,10.5.06,0,.12,0,.17,0,.55,0,1.1,0,1.65,0-.02-.32-.04-.64-.06-.97-.33-4.3-1.07-9.01.31-9.22,2.53-.41-.61,10.42,3.61,9.82,4.22-.59,1.36-9.78,3.82-10.64,1.43-.5,1.41,4.8,1.67,9.62.03.51.08,1,.13,1.48,1.05.02,2.1.05,3.16.08-.22-4.91,0-11.58.19-11.73.67-.55,1.81-.16,2.07.64.06.17.11.42.18.71,0,.03.01.06.01.09.05.25.11.52.15.83.02.15.05.31.08.47.36,2.39.68,6.09.75,9.09,1.69.06,3.38.12,5.07.19-.56-3.83-.74-11.4.24-12.37,1.35-1.33,2.93-1.39,3.17.18.24,1.57.08,7.02,2.74,6.59,2.64-.42,2-5.74,1.87-7.48-.19-2.8,2.52-3.18,3.34-1.58.31.6.27,1.94.24,3.34-.04,2.39.01,4.97,2.03,4.44,2.28-.6,1.33-5.59,1.39-8.66.02-1.27,1.37-2.5,1.37-2.5l-100.96,6.05-8.4,4.34s2.92.9,3.01,4.01Z" />
    <path class="cls-5" d="M26.62,88.56c1.48-.11,3.26-.24,5.29-.39-1.82.01-3.63.02-5.45.03.06.11.11.24.16.36Z" />
    <path class="cls-3"
      d="M38.25,83.17c-1.03.23-1.45-.21-1.55-.69.67-.14,1.16-.97,1.13-2.26-.08-3.04-.34-8.41-1.19-10.59.23-.04.48.05.6.34,1.11,2.5,2.1,5.24,2.41,7.97.19,1.81-.37,5.01-1.4,5.24Z" />
    <path class="cls-3"
      d="M47.25,77.72c-.26.78-.62,1.38-1.18,1.48-.39.06-.71-.19-.99-.67h0c-.96-1.64-1.34-5.73-1.4-7.74.3-.14.66-.06.77.36.35,1.4.79,2.79,1.33,4.12.37.92,1.01,1.63,1.48,2.45Z" />
    <path class="cls-3"
      d="M51.89,78.72c-.21.62-.51,1.05-.89,1.15-.13.03-.26.04-.37.01-.39-.31-.72-.7-1.01-1.1-.07-.11-.14-.22-.21-.34-.86-1.42-1.19-2.81-.99-4.46,0-.03.01-.05.03-.07.1-.34.6-.22.71.06.63,1.59,1.22,3.77,2.73,4.76Z" />
    <path class="cls-3"
      d="M113.33,77.64c-.01-.71-.02-1.42-.04-2.14-.04-1.44-.13-2.88-.3-4.3-.16-1.38-.39-2.75-.71-4.11-.29-1.27-.58-2.86-1.48-3.85-.07-.08-.23-.04-.24.07-.14,1.27.33,2.66.51,3.91.21,1.38.34,2.78.42,4.18.08,1.36.13,2.73.17,4.1.02.73.03,1.46.04,2.19,0,.69-.07,1.44.06,2.12.05.25,1.57-1.47,1.56-2.17Z" />
    <path class="cls-3"
      d="M85.47,76.33c-.31.5-.75.85-1.37.94-3.06.48-2.8-7.04-3.53-10.3.11-.03.23.03.28.16.12.49.32.95.41,1.44.1.52.18,1.05.28,1.57.17,1.05.42,2.11.79,3.1.28.76.61,1.4,1.22,1.93.29.25.59.43.92.6.35.17.72.3,1.01.54Z" />
    <path class="cls-3"
      d="M73.39,75.75c-.19,1.06-.59,1.8-1.36,1.9-1.51.19-1.91-3.24-2.23-5.96h0c.01-.1.03-.18.04-.28.04-.31,0-2.85-.04-2.56-.24,1.96,2.16,7.74,3.58,6.89Z" />
    <path class="cls-3"
      d="M9.14,112.73c-.41,1.45-.81,3.15-1.19,5.24-1.46,8.03.57,21.86,3.45,21.5-2.98-13.08-2.2-23.58-2.26-26.73Z" />
    <path class="cls-3"
      d="M18.34,87.53c2.67-1.85,6.01-2.1,6.7-2.31-2.12-.42-5.53-.88-8.2,1.17-1.76,1.35-1.92,4.38-2.12,7.87,1.11-1.86.94-4.88,3.61-6.74Z" />
    <path class="cls-3"
      d="M27.97,78.51c.19.05.42.05.67.03,1.19-.11,1.53-1.28,1.55-2.78-1.05-.35-2.1-.75-3-1.4-.22-.15-.42-.32-.61-.5-.15,2.07-.22,4.34,1.39,4.64Z" />
    <path class="cls-3"
      d="M33.84,80.25c.68-.13,1.02-.83,1.19-1.82-.82-.18-1.62-.53-2.29-.99-.17-.12-.34-.25-.51-.38.16,1.62.47,2.88,1.14,3.16.14.05.3.06.47.03Z" />
    <path class="cls-3"
      d="M144.8,113.23c-.02-.07-.03-.14-.05-.21.31,5.45,2.04,24.27-3.21,25.76,0,.02-.01.06-.02.09.44.35.99.48,1.68.37,4.17-.71,4.71-12.56,1.59-26Z" />
    <path class="cls-6"
      d="M11.28,139.89c-.42,0-.81-.2-1.19-.59-2.43-2.56-3.84-14.36-2.55-21.4,1.26-6.91,2.74-9.79,4.17-12.58.25-.49.5-.98.75-1.49,1.47-3,1.68-6.57,1.86-9.71.2-3.54.38-6.6,2.27-8.06,3.09-2.37,7.03-1.56,9.14-1.12.28.06.52.11.73.14,1.66.29,5.74.37,7.06-1.26.88-1.08,2.08-1.53,2.98-1.72h0s.12-.03.12-.03c.42-.09.83-.69.8-1.84-.14-5.18-.55-8.89-1.17-10.45-.22-.6-.4-.68-.47-.71-.02,0-.1,0-.2.25-.3.75-.2,2.54-.11,4.27.18,3.3.36,6.71-1.57,7.08-.25.05-.48.03-.69-.05-1.34-.54-1.47-3.37-1.61-6.65-.09-2.12-.21-4.75-.8-5.26-.05-.04-.09-.05-.13-.05l-.08.02c-.62.14-.38,2.33-.21,3.93.24,2.24.5,4.56-.43,5.69-.32.39-.75.61-1.28.67-.24.02-.54.03-.82-.04-2.05-.39-1.84-3.22-1.67-5.5.05-.67.1-1.3.08-1.8-.08-2.78-2.69-3.61-2.72-3.62l-.98-.3,9.47-4.85,102.13-6.12-.87.79s-1.22,1.12-1.23,2.19c-.01.7.03,1.5.07,2.35.14,2.89.31,6.16-1.77,6.71-.64.17-1.17.09-1.58-.24-.96-.75-1.01-2.61-.97-4.61v-.25c.02-1.19.04-2.42-.2-2.9-.29-.56-.9-.84-1.5-.67-.73.2-1.13.96-1.05,2.03l.03.39c.18,2.12.6,7.07-2.25,7.52-.57.09-1.08-.03-1.5-.37-1.26-.99-1.47-3.68-1.6-5.45-.04-.45-.06-.84-.11-1.12-.07-.43-.24-.69-.53-.79-.5-.16-1.26.16-1.94.84-1.07,1.06-.46,12.14.25,13.78.95-.36,3.31-.72,4.87-.14.86.31.85,1.17.85,1.74,0,.18,0,.53.06.6h0s.2.11,1.14-.3c.65-.25,1.42-.63,2.16-1,1.47-.73,2.86-1.41,3.77-1.41,1.16,0,1.54.72,1.83,1.24.28.52.48.9,1.33.9h.44c1.85,0,2.69,0,3.26.75,1.04,1.37,2.7,8.91,5.31,21.16.93,4.37,1.89,8.89,2.76,12.65h0c2.6,11.22,2.69,21.25.22,24.96-.59.88-1.31,1.4-2.14,1.54-.86.14-1.57-.03-2.11-.52-1.61-1.43-1.74-5.37-1.4-13.12.17-3.98-3.16-41.92-4.97-43.83-3.4-.26-107.99,6.41-112.83,7.19-.73,1.14-4.48,11.26-6.63,21.42-.68,3.23-.61,8.1-.53,12.82.13,8.14.26,15.83-3.35,16.28-.06,0-.11.01-.17.01ZM21.81,85.28c-1.57,0-3.27.33-4.72,1.44-1.59,1.22-1.76,4.1-1.95,7.44-.19,3.22-.4,6.88-1.94,10.03-.25.51-.5,1.01-.75,1.5-1.46,2.86-2.85,5.56-4.09,12.35-1.32,7.23.27,18.5,2.34,20.68.23.24.45.35.65.33,2.86-.35,2.74-8.02,2.62-15.44-.08-4.76-.16-9.69.55-13.01,2.14-10.12,6.24-21.62,7.05-22,1.33-.59,111.59-7.62,113.45-7.24.55.12,1.68.36,3.8,21.61,1.07,10.75,1.85,21.65,1.79,23.06-.27,6.04-.36,11.14,1.12,12.45.36.32.81.42,1.42.32.6-.1,1.13-.5,1.59-1.18,2.31-3.47,2.18-13.47-.33-24.31h0c-.87-3.77-1.83-8.29-2.76-12.67-2.04-9.59-4.15-19.51-5.16-20.83-.31-.41-.83-.43-2.59-.42h-.44c-1.34,0-1.76-.77-2.06-1.34-.27-.5-.43-.8-1.09-.8-.71,0-2.14.7-3.4,1.32-.76.38-1.55.76-2.22,1.02-.94.41-1.52.48-1.91.22-.43-.29-.43-.82-.43-1.29,0-.63-.04-.86-.31-.96-1.54-.57-4.01-.03-4.42.2-.19.11-.5.13-.74-.19-.88-1.15-1.75-13.55-.26-15.02.92-.9,1.98-1.3,2.79-1.04.59.19.98.71,1.09,1.45.04.29.08.7.11,1.18.12,1.53.31,4.09,1.29,4.86.24.19.52.25.86.2,2.08-.33,1.7-4.91,1.55-6.63l-.03-.4c-.12-1.76.78-2.65,1.66-2.89.98-.27,2,.18,2.46,1.1.33.66.32,1.88.29,3.29v.25c-.03,1.27-.06,3.38.65,3.94.2.16.48.19.86.09,1.42-.38,1.27-3.29,1.15-5.86-.04-.86-.08-1.68-.07-2.41.01-.76.42-1.49.81-2.01l-99.87,5.99-7.57,3.91c.96.55,2.42,1.75,2.48,4.02.02.54-.03,1.19-.09,1.88-.15,1.94-.33,4.36,1.02,4.62.15.04.32.04.56.02.3-.03.53-.14.71-.36.71-.87.46-3.1.25-5.08-.26-2.39-.49-4.46.79-4.82.08-.04.16-.06.26-.06.25-.03.52.06.75.25.86.75.97,3.11,1.09,5.86.1,2.35.25,5.57,1.08,5.9.06.02.14.02.24,0,1.21-.23,1.02-3.69.89-6.22-.11-1.99-.2-3.7.17-4.62.24-.6.63-.75.92-.77.55-.04.98.39,1.3,1.24.83,2.11,1.12,7,1.22,10.73.03,1.36-.49,2.38-1.33,2.65l-.04.04h-.19c-.69.15-1.77.52-2.52,1.45-1.68,2.1-6.35,1.82-7.85,1.56-.21-.03-.46-.09-.75-.15-.95-.2-2.29-.47-3.74-.47ZM117.18,77.06h0s0,0,0,0ZM30.65,68.66s0,0,0,0c0,0,0,0,0,0ZM49.75,84.5c-.16,0-.35-.03-.55-.1-.25-.09-.5-.34-.99-.86-.73-.77-1.87-1.95-2.73-1.9-.55.02-1.12.52-1.62.96-.55.48-1.07.94-1.65.87-.3-.03-.56-.21-.78-.51-.11-.15-.21-.4-.3-.74v-.08s-.02-.04-.02-.06c-.13-.58-.24-1.45-.32-2.57v-.11c-.17-2.14-.25-5.22-.25-9.12,0-.23.04-.44.11-.64l.04-.1c.31-.7,1.12-1.07,1.95-.89.88.18,1.45.87,1.46,1.75,0,.11,0,.23,0,.35.07,2.25.48,6.09,1.34,7.55l.06.11c.18.28.34.4.51.38.4-.07.69-.69.85-1.2.23-.71.36-1.58.48-2.34.21-1.36.32-2.1.97-2.01.34.05.47.39.52.51.14.37.25.97.39,1.73.18,1,.41,2.24.76,3.09.26.36.53.67.81.91.03,0,.06,0,.1-.02.2-.05.42-.38.59-.87.69-1.92.73-5.88.76-8.24.01-1.18.02-1.71.08-1.94.1-.44.43-.78.91-.93.57-.16,1.24-.04,1.81.33.78.5,1.31,1.38,1.48,2.48.44,2.75.59,3.8.75,5.74,0,.07.48,7.25-2,7.53h0c-1.14.12-1.68-.34-2.11-.7-.36-.31-.58-.5-1.15-.38-.55.12-.75.52-.99.98-.22.43-.54,1.05-1.27,1.05ZM45.49,80.8c1.25,0,2.44,1.25,3.31,2.16.25.26.57.59.67.65.41.14.49.05.79-.55.26-.51.63-1.22,1.56-1.42.97-.21,1.47.22,1.87.56.37.32.69.59,1.48.51,1.15-.13,1.43-4.38,1.26-6.63-.15-1.9-.31-2.94-.74-5.67-.13-.86-.52-1.53-1.1-1.9-.37-.24-.8-.33-1.12-.24-.12.04-.3.13-.34.32-.04.16-.05.97-.05,1.76-.03,2.42-.07,6.46-.81,8.51-.19.56-.44.96-.75,1.2l.63.5-1.47-.24s-.1-.01-.14-.02c-.02,0-.04,0-.06-.01-.48-.1-.9-.53-1.23-1.32,0,0,0-.01,0-.02,0-.02-.02-.04-.03-.07l-1.16-2.75c-.1.59-.22,1.19-.4,1.73-.35,1.07-.84,1.64-1.51,1.76-.39.06-.95-.04-1.43-.88l-.06-.11c-1.21-2.21-1.39-7.6-1.4-7.83,0-.12-.01-.27-.01-.39,0-.72-.61-.9-.8-.94-.35-.07-.8.01-1,.37l-.03.06c-.05.1-.07.23-.07.38,0,3.89.08,6.94.23,9.09v.11c.08,1.04.18,1.85.3,2.39l.04.04v.17c.06.22.13.36.16.4.05.07.13.16.2.17.21,0,.65-.36,1-.67.61-.54,1.3-1.14,2.15-1.17.02,0,.03,0,.05,0ZM48.09,75.85l.49.7c-.06-.32-.12-.63-.17-.92-.05-.28-.1-.56-.15-.81-.03.18-.06.38-.09.56-.02.16-.05.31-.07.48ZM60.26,83.53c-.25,0-.49-.08-.71-.3-.77-.77-1.76-9.82-.66-13.53.33-1.11.85-1.75,1.53-1.9.41-.09.8,0,1.11.23.98.72,1.17,2.82,1.37,5.03.15,1.67.33,3.56.87,4,.07.06.15.08.24.07.89-.11.92-3.34.93-5.27.02-2.35.03-3.65.83-3.77.51-.09.75.53.82.74.8,2.14,1.71,13.39.38,14.22h0c-.42.26-1.02.09-1.78-.11-.61-.16-1.29-.35-1.94-.34-.69.02-1.28.3-1.81.56-.4.19-.81.39-1.2.39ZM60.75,68.59s-.1,0-.15.02c-.28.06-.53.34-.74.85-1.3,3.1-.22,12.38.31,13.2.1.09.32.02.93-.28.57-.27,1.27-.62,2.15-.64.77,0,1.55.2,2.18.37.37.1.93.25,1.11.21.68-1.01.14-10.81-.63-13.07-.09.61-.1,1.73-.11,2.61-.03,2.89-.06,5.88-1.67,6.09-.32.04-.62-.05-.87-.25-.81-.66-.98-2.47-1.17-4.57-.16-1.75-.36-3.93-1.04-4.44-.09-.07-.18-.1-.3-.1ZM70.18,83.09c-.27,0-.51-.06-.71-.23-1.08-.87-1.66-9.08-1.42-12.44.12-1.69.39-2.08.66-2.24.19-.11.4-.13.59-.04.51.25.66,1.16.92,3.49.24,2.06.56,4.85,1.39,5.5.12.09.23.12.37.11.18-.02.73-.1,1-1.56.24-1.27.17-3.02.11-4.72-.11-3-.13-4.72.84-5.12.36-.15.72-.13,1.03.06,1.01.62,1.3,2.96,1.48,5.4.01.21.03.38.04.5.29,2.66.8,9-.69,10.32h0c-.26.23-.63.2-1.15.16-.44-.03-.98-.07-1.54.04-.41.09-.86.23-1.28.38-.61.21-1.17.39-1.63.39ZM69.02,69.17c-.56,1.99.12,12.17.98,13.05.18.15.97-.12,1.55-.31.45-.15.92-.31,1.39-.41.67-.13,1.3-.08,1.76-.05.21.02.46.03.57.02.88-.89.82-5.57.38-9.59-.01-.12-.03-.3-.04-.52-.07-1.05-.3-4.26-1.08-4.75-.06-.04-.13-.06-.27,0-.48.2-.38,2.68-.32,4.32.07,1.74.13,3.55-.12,4.91-.25,1.37-.83,2.12-1.71,2.24-.36.05-.7-.05-.99-.28-1.1-.86-1.42-3.61-1.71-6.04-.09-.84-.23-2-.38-2.57ZM84.13,82.09c-1.16,0-4.19-.13-4.72-1.51-.68-1.76-2.05-12.91-.6-15.02.27-.39.59-.48.82-.48.94,0,1.23,1.31,1.35,1.8.19.87.32,2.01.45,3.22.28,2.53.62,5.69,1.75,6.56.25.19.52.26.85.2.46-.07.81-.31,1.08-.75.74-1.2.63-3.57.54-5.66-.11-2.5-.2-4.48,1.07-4.71.26-.05.64-.01,1.03.42,1.84,2.1,2.24,12.54,1.71,14.16-.51,1.57-4.26,1.74-5.01,1.76-.08,0-.19,0-.32,0ZM79.63,65.92s-.1.08-.13.11c-1.18,1.72.02,12.51.69,14.25.2.53,1.84,1.04,4.24.97,2.43-.06,4.06-.65,4.24-1.19h0c.52-1.58-.06-11.65-1.55-13.35-.07-.08-.16-.17-.25-.15-.55.1-.45,2.27-.39,3.85.1,2.21.21,4.71-.66,6.13-.4.65-.96,1.03-1.66,1.14-.56.09-1.06-.04-1.49-.37-1.42-1.08-1.75-4.16-2.08-7.13-.13-1.19-.25-2.3-.44-3.12-.26-1.13-.52-1.15-.53-1.15ZM96.66,81.28c-.2,0-.4-.02-.62-.07-.8-.18-.83-1.43-.88-3.93-.02-1.04-.05-2.22-.14-3.43-.06-.78-.13-1.57-.2-2.35-.38-4.11-.65-7.08.86-7.32.33-.05.63.03.87.23.72.6.74,2.18.76,4.18.02,1.96.05,4.39.96,5.17.26.22.6.3,1.02.24,2.05-.29,2.15-3.1,2.25-5.83.08-2.32.16-4.33,1.49-4.79.29-.1.57-.07.81.1.94.64,1.11,3.34,1.31,7.69.03.73.07,1.48.11,2.21.05.99.18,1.95.3,2.81.31,2.26.55,4.04-.86,4.65h0c-1.05.44-1.66.15-2.24-.13-.46-.22-.93-.44-1.74-.46-.92-.03-1.6.27-2.25.55-.56.24-1.13.49-1.81.49ZM95.88,65s-.04,0-.07,0c-.74.12-.39,3.91-.16,6.42.07.78.15,1.58.21,2.36.1,1.24.12,2.43.14,3.48.03,1.3.06,2.91.29,3.16.63.12,1.17-.11,1.85-.4.7-.3,1.5-.64,2.59-.62,1,.02,1.6.31,2.09.54.55.26.86.41,1.56.12.79-.34.65-1.65.36-3.77-.12-.87-.25-1.85-.31-2.87-.04-.74-.07-1.48-.11-2.22-.13-2.94-.3-6.6-.94-7.03-.86.28-.93,2.19-1,4.03-.11,2.92-.23,6.24-2.97,6.62-.67.1-1.24-.05-1.68-.43-1.19-1.02-1.22-3.45-1.25-5.79-.02-1.5-.04-3.19-.47-3.55-.03-.03-.07-.05-.14-.05ZM109.96,80.96c-.57,0-1.09-.27-1.43-.74-.56-.78-.86-3.86-.9-9.14-.01-1.83,0-7.83.44-8.19.4-.33.98-.43,1.52-.27.58.17,1.03.59,1.2,1.11.05.13.09.31.14.51l.07.32s0,.02,0,.03l.02.08c.05.23.1.48.14.76.02.13.04.25.07.38l.02.08c.6,4,1.18,12.37.34,14.05h0c-.29.58-.84.95-1.48,1-.05,0-.1,0-.15,0ZM108.69,63.48c-.32,1.63-.44,14.94.51,16.26.2.27.5.41.84.39.35-.03.65-.23.8-.54.68-1.37.24-9.18-.42-13.56-.04-.2-.06-.34-.08-.48-.03-.25-.08-.49-.13-.7l-.03-.19s0-.01,0-.02l-.05-.2c-.04-.17-.08-.32-.12-.44-.09-.27-.34-.49-.65-.58-.25-.07-.49-.05-.68.06ZM93.06,80.85c-.17,0-.41-.05-.65-.26-1.6-1.43-2.1-10.26-2.26-15.4v-.09c-.03-.91.68-1.52,1.38-1.58.52-.05.95.24,1.02.69l.02.09c.99,5.33,2.46,14.51,1.19,16.17-.21.28-.46.35-.63.36h0s-.05,0-.07,0ZM91.66,64.35c-.07,0-.19.02-.31.09-.14.08-.37.26-.36.64v.08c.25,8.14,1.03,13.95,1.99,14.8.01.01.06.05.09.05h0c.7-.36.48-5.93-1.31-15.55l-.02-.1s-.03,0-.07,0Z" />
    <path class="cls-7"
      d="M21.91,67.8s3.29-.35,8.19-.86c11.58-1.2,32.15-3.27,39.69-3.67,10.74-.57,62.43-4.67,63.99-6.37s-28.11-25.22-57.49-21.09c-29.38,4.13-54.38,31.99-54.38,31.99Z" />
    <path class="cls-3"
      d="M60.12,40.4c-21.83,9.15-38.21,27.4-38.21,27.4,0,0,2.53-.27,6.45-.68,9.36-10.31,19.9-19.68,31.76-26.72Z" />
    <path class="cls-7"
      d="M140.14,107.41c0-7.83-3.32-26.05-5.28-25.85-1.95.2-115.12,7.44-115.12,7.44,0,0-7.23,21.71-6.45,42.97,0,0,.65,8.36,2.83,17.18h0s-1.17,26.22,3.79,26.22c2.89,0,3.2-5.57,2.96-10.23.73.92,1.5,1.73,2.34,2.39,9.77,7.64,31.27,16.06,55.9,15.47,13.06-.31,30.42-3.03,43.03-15.33.24,2.6,1.01,5.48,3.28,4.68,3.1-1.08,2.97-8.69,2.77-11.95.02-.03.04-.06.06-.09.35,2.24,1.29,6.4,3.39,5.89,3.15-.8,3.01-13.22,2.8-18.49,3.54-10.25,5.12-23.4,3.7-40.31Z" />
    <path class="cls-3"
      d="M13.29,131.97s.65,8.36,2.83,17.18h0s-1.17,26.22,3.79,26.22c1.38,0,2.17-1.28,2.59-3.13-3.21-6.77-4.72-23.09-4.72-23.09,0,0-3.7-20.35-2.73-40.47-1.19,7.01-2.06,15.18-1.76,23.29Z" />
    <path class="cls-3"
      d="M115.54,174.25c3.02-1.82,5.93-3.98,8.6-6.59.24,2.6,1.01,5.48,3.28,4.68.43-.15.8-.44,1.11-.81-2.92-2.13-4.24-13.64-4.24-13.64,0,0-4.53,11.57-8.76,16.37Z" />
    <path class="cls-3"
      d="M130.32,153.25s-.04,8.58-.13,7.15c.02-.03.04-.06.06-.09.35,2.24,1.29,6.4,3.39,5.89.69-.17,1.21-.9,1.62-1.98-.28-.22-1.03,1.1-2.33-1.68-1.3-2.78-2.61-9.29-2.61-9.29Z" />
    <path class="cls-5"
      d="M77.84,163.96s.38,6.69,1.69,6.68,1.4-1.06,1.4-1.06c0,0,.41,4.6,3.26,3.82,3.46-.95,1.11-13.21,1.11-13.21l-7.46,3.77Z" />
    <path class="cls-1"
      d="M33,114.09s1.57-3.76,7.95-3.76,11.04,13.59,10.18,26.64c-.86,13.05-4.98,16.2-10.18,15.83-5.2-.37-12.17-36.23-7.95-38.71Z" />
    <path class="cls-1"
      d="M108.9,104s14.1-4.31,14.68,21.29c.49,21.73-9.64,23.72-12.96,23.75-3.33.04-8.93-3.56-9.9-8.36-2.46-12.11,1.84-33.35,8.19-36.69Z" />
    <path class="cls-1"
      d="M63.66,107.71c6.75-.68,1.9-19.92,1.88-20.5-.03-.57,4.93-.99,4.87.55-.05,1.54-.36,27.92,2.21,42.03.26,1.44.66,5.49,4.86,4.3,4.2-1.19,1.8-25.21,1.24-30.26,1.02,3.07,1.37,4.99,4.2,4.36,2.83-.64,1.64-13.49,1.07-23.14-9.18.59-24.76,1.58-24.76,1.58,0,0-2.32,21.75,4.43,21.07Z" />
    <path class="cls-5" d="M116.88,88.91c.05-.37.11-.74.17-1.11-.09.35-.14.72-.17,1.11Z" />
    <path class="cls-1"
      d="M113.52,96.99c2.8-.2,3.53-5.02,3.53-5.02,0,0-.41,10.65,7.19,9.54,4.79-.7,3.64-11.75,2.28-19.11-5.02.33-8.55.54-16.99,1.08.1,7.52,0,13.79,3.99,13.51Z" />
    <path class="cls-1"
      d="M24.7,103.97c.13.54.47,3.47,4.22,2.57s3.91-10.04,3.91-10.04c0,0,7.38,2.77,6.72-8.41-12.59.81-19.82.9-19.82.9,0,0-.38,3.7-1.76,9.44-.03,1.94-1.77,10.21,2.35,10.21,4.12,0,4.38-4.22,4.38-4.67Z" />
    <path class="cls-3"
      d="M111.64,147.74c-.06,0-.12,0-.19.01-2.94.13-11.2.2-13.74-17.94-2.58-18.42,7.04-26.26,13.18-25.47.05,0,.09,0,.14.01,6.12.92,10.1,6.14,10.72,23.32.61,17.18-7.35,19.94-10.1,20.07Z" />
    <path class="cls-3"
      d="M49.33,136.09c-.14,8.32-1.55,15.8-8.45,16.22-.07.01-.15.01-.22.01-6.77.31-11.19-4.84-12.17-20.74-.75-12.25,3.4-17.95,7.53-19.97,1.3-.63,2.59-.91,3.74-.91,7.32,0,9.71,17.07,9.57,25.39Z" />
    <path class="cls-6"
      d="M40.1,152.71c-7.28,0-11.1-6.73-11.98-21.1-.88-14.49,5.12-19.05,7.74-20.33,1.27-.62,2.62-.95,3.9-.95,1.44,0,2.77.61,3.95,1.82,4.57,4.64,6.1,17.16,5.99,23.95h0c-.13,7.48-1.24,16.13-8.8,16.59-.06,0-.16.01-.25.01-.19,0-.37.01-.56.01ZM39.76,111.07c-1.17,0-2.41.3-3.57.87-2.49,1.22-8.18,5.57-7.32,19.61.89,14.43,4.51,20.72,11.78,20.39.07,0,.13,0,.19,0,5.52-.34,7.95-5.08,8.13-15.86.11-7.17-1.6-19.18-5.78-23.42-1.04-1.06-2.19-1.59-3.42-1.59ZM49.33,136.09h0,0Z" />
    <path class="cls-6"
      d="M38.95,156.3c-5.66,0-9.14-3.8-10.86-6.41-.11-.17-.07-.4.11-.52.17-.11.4-.06.52.11,2.01,3.04,6.53,7.8,14.32,5.44.2-.06.4.05.46.25.06.2-.05.41-.25.46-1.55.47-2.98.67-4.29.67Z" />
    <path class="cls-6"
      d="M27.3,148.11c-.14,0-.27-.08-.34-.21-.2-.42-.39-.86-.55-1.29-.07-.19.02-.41.21-.48.19-.07.41.02.48.21.16.41.34.83.53,1.23.09.19.01.41-.18.5-.05.02-.11.04-.16.04Z" />
    <path class="cls-6"
      d="M26.38,145.75c-.16,0-.31-.1-.36-.26-.21-.7-.29-1.13-.3-1.15-.04-.2.1-.4.3-.43.2-.04.4.1.43.3,0,0,.08.41.28,1.07.06.2-.05.41-.25.47-.04.01-.07.02-.11.02Z" />
    <path class="cls-6"
      d="M40.65,152.32c-6.77.31-11.19-4.84-12.17-20.74-.75-12.25,3.4-17.95,7.53-19.97,1.85,3.56,4.37,10.36,5.85,22.51,1.08,8.95.18,14.62-1.21,18.2Z" />
    <path class="cls-6"
      d="M84.98,160c-1.67,1.86-3.84,3.4-6.51,3.88-1.47.27-2.83.05-4.05-.46h0c-5.36-2.26-8.27-10.41-7.35-11.09,1.12-.83,22.1-2.14,22.38-1.29.18.56-1.22,5.36-4.47,8.96Z" />
    <path class="cls-1"
      d="M84.98,160c-1.67,1.86-2.99,2.2-5.33,3.58-1.79,1.05-7.33-.14-8.59-2.57.06-.31,4.19-2.97,8.59-1.12,2.45-.9,4.15-.59,5.33.1Z" />
    <path class="cls-6"
      d="M77.21,164.36c-.99,0-1.97-.2-2.93-.6-.03-.01-.05-.03-.08-.04-4.43-1.91-7.33-7.79-7.65-10.43-.08-.65.02-1.06.29-1.26,1.21-.9,20.4-2.12,22.55-1.45.08.03.33.1.41.34.25.76-1.29,5.71-4.55,9.33h0c-1.98,2.2-4.24,3.55-6.72,3.99-.44.08-.89.12-1.33.12ZM74.63,163.1c1.23.5,2.5.64,3.77.41,2.31-.42,4.43-1.68,6.3-3.76h0c3.01-3.34,4.32-7.58,4.39-8.49-2.01-.52-20.61.62-21.81,1.37-.03.06-.09.61.32,1.89.72,2.25,3.1,6.92,6.95,8.54.03.01.05.02.07.04Z" />
    <path class="cls-1"
      d="M77.9,163.55c-.13.16-.22,5.63,1.35,5.62,1.57,0,1.41-5.17,1.41-5.17,0,0,.78,8.75,3.01,8.19,2.23-.57,1.14-11.99,1.14-11.99,0,0-.92-.77-2.88,0-1.96.77-4.03,3.35-4.03,3.35Z" />
    <path class="cls-3"
      d="M81.24,160.87c-.43.3-.23,1-.27,1.52-.1,1.06-.15,2.12-.15,3.18.64,5.05,2.21,6.66,2.37,6.58.71-.32-1.31-11.75-1.95-11.29Z" />
    <path class="cls-3"
      d="M78.42,162.63c-.14.4-.37,2.19-.4,2.62-.03.39.2,1.74.24,1.98.05.24.43,1.97.9,1.97.46,0-.65-6.85-.74-6.57Z" />
    <path class="cls-3"
      d="M76.67,159.75c-.3-.15-.72-.12-1.04-.09-.69.06-1.43.2-2.04.54-.06.03-.11.07-.17.11-.35.21-.63.49-.5.84.13.33.56.34.86.34.35,0,.71-.08,1.06-.15.35-.07.7-.15,1.04-.24.32-.09.66-.22.9-.46.27-.27.25-.71-.11-.88Z" />
    <rect class="cls-3" x="33.84" y="126.07" width="13.94" height="5.44" rx="2.72" ry="2.72" />
    <path class="cls-6"
      d="M16.25,150.05c-.17,0-.32-.11-.36-.28-2.27-8.94-2.96-17.69-2.97-17.77-.78-21.1,6.4-42.9,6.47-43.12.05-.14.18-.24.33-.25,1.13-.07,113.18-7.25,115.11-7.44.22-.02.44.06.65.25,2.21,2,5.04,19.07,5.04,25.97,1.3,15.43.15,28.77-3.43,39.6-.06.19-.27.3-.47.24-.2-.06-.3-.27-.24-.47,3.54-10.74,4.69-23.97,3.4-39.33,0-8.65-3.42-25.16-4.88-25.51-1.9.19-107.5,6.95-114.87,7.43-.77,2.42-7.08,22.84-6.35,42.6,0,.07.69,8.76,2.95,17.63.05.2-.07.4-.27.45-.03,0-.06.01-.09.01Z" />
    <path class="cls-6"
      d="M78.71,183.4c-23.2,0-43.97-7.95-53.73-15.58-.78-.61-1.54-1.37-2.27-2.26-.13-.16-.11-.39.05-.52.16-.13.39-.1.52.05.69.85,1.41,1.57,2.15,2.14,10,7.81,31.68,15.96,55.66,15.39,18.42-.44,32.78-5.53,42.68-15.13.15-.14.38-.14.53,0,.14.15.14.38,0,.53-10.03,9.73-24.56,14.89-43.18,15.34-.8.02-1.61.03-2.41.03Z" />
    <path class="cls-6"
      d="M19.91,175.74c-.52,0-1-.22-1.42-.67-3.68-3.85-2.78-25.04-2.74-25.94,0-.21.19-.39.39-.35.2,0,.36.18.36.39,0,.22-.93,21.78,2.53,25.4.28.29.57.44.88.44.5,0,.92-.2,1.28-.63,2.61-3.06.71-15.26.69-15.38-.03-.2.11-.39.31-.43.21-.03.39.11.43.31.08.51,1.98,12.66-.86,15.98-.5.59-1.12.89-1.85.89Z" />
    <path class="cls-6"
      d="M77.9,162.5s-.08,0-.13-.02c-.19-.07-.29-.28-.22-.48.53-1.47,2.37-3.02,2.45-3.09.16-.13.39-.11.52.05.13.16.11.39-.05.52-.02.01-1.77,1.49-2.23,2.77-.06.15-.2.25-.35.25Z" />
    <path class="cls-6"
      d="M83.47,172.58c-.25,0-.5-.08-.73-.24-.97-.69-1.59-2.88-1.97-4.86-.15.7-.37,1.34-.72,1.7-.23.23-.5.36-.8.36h0c-.33,0-.79-.16-1.15-.89-.68-1.41-.79-4.96-.49-5.33.13-.16.36-.19.52-.06.13.1.17.28.11.43-.08.45-.1,3.93.7,4.93.13.17.24.19.3.19h0c.06,0,.15-.01.27-.13.64-.67.82-3.21.77-4.66,0-.2.15-.37.35-.38.2-.02.38.14.39.34.17,1.86.88,6.87,2.14,7.77.14.1.27.13.41.09,1.32-.34,1.3-6.98.86-11.59-.02-.2.13-.39.34-.41.21,0,.39.13.41.34.19,1.96.99,11.77-1.42,12.38-.1.03-.2.04-.29.04Z" />
    <path class="cls-6"
      d="M65.45,154.38c-.14,0-.27-.08-.33-.21-.09-.18-.88-1.81-.62-2.93.3-1.31,2.34-1.23,2.42-1.23.21,0,.36.18.36.39,0,.21-.2.35-.39.36-.39-.03-1.53.07-1.66.66-.17.73.35,2,.56,2.43.09.18.02.41-.17.5-.05.03-.11.04-.17.04Z" />
    <path class="cls-6"
      d="M90.47,153.51s-.1,0-.15-.03c-.19-.08-.28-.3-.2-.49,0-.02.76-1.79.76-2.86,0-.05-.01-.13-.1-.21-.32-.32-1.33-.51-2.53-.5l-.03-.74v.37s.02-.37.02-.37c.86-.02,2.4.07,3.06.71.21.21.32.46.32.74,0,1.22-.78,3.08-.81,3.16-.06.14-.2.23-.34.23Z" />
    <path class="cls-6"
      d="M123.94,136.75s-.03,0-.05,0c-.2-.03-.35-.21-.32-.42.12-.96.21-1.97.25-3.01,0-.21.18-.38.39-.35.21,0,.36.18.35.39-.05,1.06-.14,2.09-.26,3.07-.02.19-.18.33-.37.33Z" />
    <path class="cls-6"
      d="M123.19,140.68s-.06,0-.1-.01c-.2-.05-.32-.26-.26-.46.14-.53.27-1.09.38-1.65.04-.2.23-.33.44-.29.2.04.33.24.29.44-.12.58-.25,1.15-.39,1.7-.04.17-.19.28-.36.28Z" />
    <path class="cls-6"
      d="M110.54,151.91c-.42,0-.67-.03-.69-.03-.2-.02-.35-.21-.32-.41.02-.2.22-.35.41-.33.37.04,9,.94,12.5-9.64.06-.19.28-.3.47-.24.2.06.3.27.24.47-3.11,9.41-10.35,10.17-12.61,10.17Z" />
    <path class="cls-6"
      d="M103.45,149.42s-.1,0-.15-.03c-3.28-1.4-5.58-6.8-5.68-7.03-.08-.19,0-.41.2-.49.19-.08.41,0,.49.2.02.05,2.28,5.35,5.28,6.63.19.08.28.3.2.49-.06.14-.2.23-.34.23Z" />
    <path class="cls-6"
      d="M126.69,172.85c-.44,0-.84-.14-1.19-.41-2.2-1.67-1.82-8.22-1.8-8.5.01-.21.19-.36.39-.35.21.01.36.19.35.39-.11,1.79-.05,6.68,1.51,7.86.37.28.81.33,1.35.14,2.69-.94,2.77-7.94,2.51-11.77-.08-.71-.11-1.21-.11-1.27,0-.2.14-.37.34-.39.2-.03.38.13.4.33,0,.09.06.53.1,1.21.21,1.86.77,4.66,1.93,5.52.32.24.68.31,1.07.21,2.72-.69,2.92-12.6,2.4-20.43-.01-.21.14-.38.35-.4.21-.02.38.14.4.35.14,2.06,1.22,20.14-2.96,21.21-.62.15-1.19.04-1.7-.34-.6-.45-1.05-1.25-1.39-2.17-.08,3.57-.7,7.81-3.1,8.64-.3.1-.58.15-.85.15Z" />
    <path class="cls-6"
      d="M21.91,68.17c-.14,0-.27-.08-.33-.2-.07-.14-.05-.3.05-.42.25-.28,25.43-28,54.61-32.11,27.92-3.93,55.59,16.51,57.81,20.72.22.42.23.75.01.99-1.78,1.94-56.62,6.09-64.24,6.49-7.51.4-28.08,2.47-39.68,3.67-4.9.51-8.19.86-8.19.86-.01,0-.03,0-.04,0ZM83.36,35.7c-2.33,0-4.67.15-7.02.48-26.26,3.69-49.29,26.74-53.48,31.14,1.33-.14,3.9-.41,7.2-.75,11.6-1.2,32.18-3.27,39.71-3.67,12.57-.66,61.08-4.67,63.69-6.22-.07-.25-.59-1.08-2.46-2.72-5.87-5.14-26.01-18.26-47.64-18.26Z" />
    <path class="cls-2"
      d="M20.03,88.35s-5.01,18.72.46,18.65c5.47-.07,3.25-14.01,4.52-14.01s-2.04,11.86,2.48,11.7c4.53-.17,3.45-14.95,4.58-15.09,1.13-.14.12,6.68,3.69,5.98,3.57-.71,1.51-5.89,3.1-6.91s20.09-3.24,20.33-1.27-3.24,17.93,3.39,16.88c6.62-1.05.53-16.88,2.23-18.17,1.7-1.29,5.48-.43,6.31,1.06.56,1-2.2,46.01,3.73,45.57,5.93-.44,1.56-44.43,3.12-44.69,1.57-.27-.27,17.44,3.08,16.87s.91-19.21,2.59-19.78c1.68-.57,24.79-2.27,25.88-1.42,1.09.85-.76,11.46,3.49,11.31,4.25-.15,1.54-10.61,3.32-10.72,1.79-.12.49,16.11,6.4,15.86,5.91-.24,2.26-17.02,3.34-17.83,1.08-.81,7.46-1.29,9.71-.73.03,0-.64-1.08-2.25-1.33-1.61-.25-8.61.2-8.61.2,0,0-6.44.07-8.75.39-2.32.31-11.56,1.92-14.4,1.95-.79,0-13.85.21-15.4.3-.4.02-4.59.97-10.57,1.4-3.92.28-8.78-.13-13.67.18-16.3,1-34.69,2.69-34.69,2.69,0,0-2.15-.22-4.39-.5-2.24-.28-3.04,1.49-3.04,1.49Z" />
    <path class="cls-3"
      d="M25.23,93.21c.57,1.59-1.91,11.63,2.27,11.48.42-.02.79-.16,1.12-.4-2.29-3.21-2.2-14.46-2.77-14.6s-.54,2.54-.62,3.52Z" />
    <path class="cls-3"
      d="M32.48,89.85c.29,1.91,1.04,6.17,3.28,5.73.1-.02,1.36-.76,1.45-.79-1.28.23-2.84-2.35-3.39-3.61-.59-1.34-.58-2.67-.96-2.69s-.39.39-.38,1.36Z" />
    <path class="cls-3"
      d="M62.59,104.28c.59-.09,1.08-.31,1.48-.62-4.47-1.14-4.73-8.31-5.1-13.25-.57,5.17-1.54,14.69,3.62,13.87Z" />
    <path class="cls-3" d="M74.86,132.73c-1.59-5.52-3.34-23.79-3.83-33.2-.21,13.6-.12,33.5,3.83,33.2Z" />
    <path class="cls-3"
      d="M81.06,104.91c.21-.04.39-.14.56-.31-2.77-4.5-.15-11.22-3.11-15.45.58,3.84-.26,16.23,2.56,15.75Z" />
    <path class="cls-3" d="M113.02,95.02c-1.42-5.49-.98-7.76-3.16-10.25.32,2.88-.42,10.37,3.16,10.25Z" />
    <path class="cls-3" d="M117.59,89.33c.58,4.7,1.45,10.99,5.15,10.83-2.65-4.66-3.3-7.46-5.15-10.83Z" />
    <path class="cls-3"
      d="M20.08,88.27c-.03.05-.04.08-.04.08,0,0-5.01,18.72.46,18.65,1.36-.02,2.24-.89,2.82-2.2-3.6-4.28-3.31-10.86-3.24-16.54Z" />
    <path class="cls-6"
      d="M111.64,147.74c-.06,0-.12,0-.19.01-1.94-5.17-3.56-12.48-3.56-22.43,0-11.99,1.46-17.98,3-20.98.05,0,.09,0,.14.01,6.12.92,10.1,6.14,10.72,23.32.61,17.18-7.35,19.94-10.1,20.07Z" />
    <path class="cls-6"
      d="M110.89,148.13c-7.3,0-11.85-6.14-13.55-18.27-1.83-13.07,2.47-19.66,5.2-22.42,2.5-2.53,5.64-3.84,8.39-3.48.03,0,.09,0,.17.01,7.16,1.08,10.46,8.16,11.02,23.67.69,19.36-9.32,20.4-10.46,20.46-.02,0-.03,0-.05,0-.04,0-.07,0-.11,0-.21,0-.41.01-.61.01ZM110.02,104.65c-2.32,0-4.86,1.2-6.95,3.31-2.63,2.66-6.78,9.03-4.99,21.79,2.54,18.11,10.68,17.73,13.35,17.62.05,0,.13-.01.2-.01,1.11-.06,10.41-1.09,9.74-19.69-.68-18.96-5.64-22.25-10.4-22.96-.02,0-.12,0-.13,0-.27-.03-.54-.05-.82-.05Z" />
    <rect class="cls-3" x="100.71" y="121.92" width="13.94" height="5.44" rx="2.72" ry="2.72" />
    <path class="cls-6"
      d="M74.77,133.11c-.41,0-.79-.17-1.14-.49-3.58-3.39-3.12-26.19-2.87-38.44.07-3.49.13-6.51.03-6.87-.31-.54-1.28-1.08-2.46-1.32-1.32-.28-2.58-.11-3.29.42-.41.31,0,2.91.33,5,.83,5.28,1.97,12.5-2.73,13.25-1.12.17-2.05-.08-2.77-.77-2.5-2.39-1.72-9.48-1.26-13.71.14-1.26.26-2.35.21-2.72,0,0-.07-.11-.57-.23-3.73-.91-18.03,1.01-19.2,1.77-.47.3-.52,1.3-.58,2.35-.1,1.84-.21,4.13-2.65,4.61-.7.14-1.3.03-1.79-.31-1.13-.79-1.41-2.63-1.64-4.1-.07-.46-.16-1.04-.26-1.36-.16.61-.28,2.07-.38,3.38-.38,4.81-.9,11.39-4.25,11.52-.72,0-1.29-.2-1.74-.67-.78-.81-1.06-2.25-1.12-3.87-.34,3.48-1.27,6.82-4.15,6.86-.77-.01-1.42-.3-1.91-.92-2.84-3.6.58-17.34.73-17.93.05-.2.25-.32.45-.27.2.05.32.25.27.45-.04.14-3.49,13.97-.87,17.28.34.43.78.63,1.31.64,3.33-.04,3.51-6.14,3.64-10.18.08-2.63.11-3.83.89-3.83.16,0,.3.06.41.18.37.4.31,1.42.15,3.5-.21,2.66-.49,6.3.73,7.57.3.32.7.47,1.18.44,2.69-.1,3.22-6.82,3.54-10.83.25-3.17.36-4.18,1.01-4.26.77-.11.92.91,1.11,2.18.19,1.26.46,3,1.33,3.61.33.23.73.29,1.22.19,1.87-.37,1.96-2.17,2.05-3.92.07-1.25.13-2.43.92-2.94,1.63-1.05,17.63-2.94,20.32-1.68.35.17.55.39.59.68.06.46-.06,1.48-.21,2.9-.42,3.83-1.2,10.96,1.03,13.09.55.52,1.25.71,2.14.57,3.96-.63,2.89-7.43,2.11-12.39-.53-3.37-.77-5.15-.04-5.71.88-.67,2.34-.88,3.89-.56,1.4.29,2.54.95,2.97,1.73.17.3.16,1.54.05,7.21-.23,11.27-.7,34.72,2.64,37.88.22.21.45.3.69.29,3.56-.27,2.96-20.33,2.6-32.32-.32-10.74-.26-12.25.49-12.37.16-.03.33.02.47.13.56.46.66,2.2.77,6.37.1,3.91.24,9.28,1.44,10.26.13.11.25.14.41.11,1.65-.28,1.63-7.31,1.61-11.96-.02-5.43.05-7.51.92-7.8,1.35-.45,24.9-2.39,26.23-1.36.48.38.53,1.45.59,3.64.07,2.51.16,5.94,1.44,7.15.33.31.73.46,1.21.44,2.22-.08,2.23-3.73,2.25-6.67,0-2.31.02-3.98,1.06-4.05.02,0,.03,0,.05,0,.94,0,1.16,1.76,1.54,4.92.53,4.37,1.33,10.95,4.71,10.95.04,0,.07,0,.11,0,.65-.03,1.17-.28,1.61-.76,1.95-2.16,1.56-8.33,1.3-12.41-.2-3.13-.24-4.23.22-4.58,1.28-.96,7.44-1.06,9.6-.52.2.05.32.25.27.45-.05.2-.25.32-.45.27-2.25-.56-8.04-.3-8.97.4-.16.28-.04,2.22.07,3.94.28,4.46.67,10.56-1.49,12.96-.57.63-1.29.97-2.13,1.01-4.13.16-4.98-6.63-5.59-11.6-.22-1.8-.49-4.04-.85-4.27-.31.03-.32,2.17-.32,3.32-.01,3.09-.03,7.31-2.97,7.41-.68.02-1.27-.19-1.75-.64-1.51-1.42-1.6-4.89-1.68-7.67-.03-1.26-.07-2.84-.31-3.07-1.3-.67-23.8.9-25.53,1.48-.44.38-.43,4.1-.42,7.09.03,7.21-.12,12.34-2.23,12.7-.37.06-.71-.03-1.01-.27-1.46-1.2-1.59-6.31-1.71-10.81-.05-1.97-.11-4.33-.33-5.35-.19,1.64-.05,6.48.09,11.18.53,17.93.66,32.79-3.29,33.08-.04,0-.08,0-.12,0Z" />
    <path class="cls-8"
      d="M60.38,60.44c-10.11,1.51-13.62-1.78-13.05-5.92.57-4.22,5.36-9.33,11.72-11.18,4.32-1.26,8.23,0,10.69,2.32.01,0,.01.01.01.01,4.69,4.43,4.02,12.75-9.37,14.77Z" />
    <path class="cls-2"
      d="M94.3,43.3c-5.73,1.34-10.35,7.46-6.82,9.54,3.53,2.07,7.51.41,7.51.41,0,0,.95,5.5,1.62,5.62.67.12,7.29-1.79,7.61-2.14.32-.35,1.08-1.2,1.08-1.2l-3.39-3.54s3.73,1.76,5.6-.15c1.87-1.91-2.77-10.96-13.21-8.53Z" />
    <path class="cls-1"
      d="M94.95,42.84c-5.73,1.34-10.41,6.83-6.89,8.91,3.53,2.07,7.81,0,7.81,0,0,0,.67,6.02,1.52,6.02s7.04-1.87,7.45-2.29c.41-.42-2.35-4.59-2.35-4.59,0,0,3.3,1.91,5.17,0,1.87-1.91-2.27-10.48-12.71-8.05Z" />
    <path class="cls-6"
      d="M97.39,58.14c-.28,0-1.14,0-1.83-5.86-1.24.49-4.68,1.55-7.68-.22-1.06-.62-1.55-1.61-1.37-2.77.42-2.74,4.25-5.86,8.36-6.82h0c6.72-1.57,11.02,1.25,12.8,4.41.97,1.72,1.08,3.43.27,4.26-1.32,1.35-3.23,1.02-4.45.59,2.17,3.45,1.81,3.82,1.62,4.01-.52.53-6.81,2.4-7.72,2.4ZM95.87,51.37c.06,0,.12.02.18.05.11.06.18.16.19.29.27,2.46.82,5.28,1.21,5.69.93-.07,6.19-1.67,7.05-2.14-.11-.57-1.25-2.54-2.32-4.17-.09-.14-.08-.33.04-.46.12-.12.31-.15.46-.07.03.02,3.08,1.74,4.72.06.48-.49.5-1.8-.38-3.37-1.65-2.92-5.66-5.53-11.98-4.05-4.18.97-7.46,4.06-7.79,6.21-.13.86.21,1.54,1.01,2.01,3.31,1.94,7.41,0,7.45-.01.05-.02.11-.04.16-.04Z" />
    <path class="cls-4"
      d="M60.38,60.44c-10.11,1.51-13.62-1.78-13.05-5.92.94,4.38,5.7,6.89,14.99,3.54,9.91-3.58,9.69-7.9,7.43-12.38,4.69,4.43,4.02,12.75-9.37,14.77Z" />
    <path class="cls-6"
      d="M54.92,59.92c-2.26,0-3.87-.53-4.97-1.14-1.75-.97-2.89-2.51-3.31-4.45-.04-.2.08-.4.29-.44.2-.04.4.09.44.29.37,1.72,1.39,3.09,2.94,3.95,1.92,1.07,5.55,1.86,11.89-.42,4.55-1.64,7.37-3.65,8.36-5.97.68-1.58.57-3.36-.34-5.44-.07-.17-.56-.74-.81-.96-.16-.13-.17-.37-.04-.53.13-.16.37-.17.53-.04.23.2.85.87,1.01,1.22,1,2.28,1.11,4.26.34,6.03-1.1,2.55-3.97,4.64-8.79,6.38-3.08,1.11-5.55,1.51-7.53,1.51Z" />
    <path class="cls-4"
      d="M55.9,45.75c-.03-.08-5.75,3.89-6.43,5.94-.49,1.48.02,4,.42,4s9.02-4.04,9.17-4.32c.15-.29-3.14-5.53-3.16-5.61Z" />
    <path class="cls-4"
      d="M50.22,56.28c.85,1.41,2.58,2.32,5.13,2.18,1.95-.11,4.68-.67,7.21-1.63-1.18-1.57-2.78-4.87-3.17-4.87s-6.09,2.83-9.17,4.32Z" />
    <path class="cls-4"
      d="M61.31,43.64c-1.15.12-2.84.77-4.57,1.72,1.09,1.89,2.84,5.61,3.16,5.61s6.05-2.89,8.96-4.49c-1.55-2.25-4.86-3.12-7.56-2.84Z" />
    <path class="cls-4"
      d="M60.23,51.6c0,.36,1.99,3.3,3.17,4.87,3.43-1.31,6.48-3.36,6.66-6.07.08-1.32-.26-2.41-.86-3.29-2.91,1.6-8.96,4.13-8.96,4.49Z" />
    <path class="cls-6"
      d="M54.88,50.82s-.09,0-.13-.03l-1.4-.55c-.19-.07-.29-.29-.21-.48.07-.19.29-.29.48-.21l1.4.55c.19.07.29.29.21.48-.06.15-.2.24-.35.24Z" />
    <path class="cls-6"
      d="M63.01,48.15c-.07,0-.14-.02-.2-.06-.17-.11-.23-.34-.11-.51l1.13-1.78c.11-.17.34-.22.51-.11.17.11.23.34.11.51l-1.13,1.78c-.07.11-.19.17-.31.17Z" />
    <path class="cls-6"
      d="M59.83,48.9c-.21,0-.37-.17-.37-.37v-1.89c0-.21.17-.37.37-.37s.37.17.37.37v1.89c0,.21-.17.37-.37.37Z" />
    <path class="cls-6"
      d="M50.53,54.38c-.16,0-.3-.1-.35-.26-.06-.2.04-.41.24-.47l2.35-.76c.2-.06.41.04.47.24.06.2-.04.41-.24.47l-2.35.76s-.08.02-.12.02Z" />
    <path class="cls-6"
      d="M57.73,55.59c-.06,0-.12-.01-.18-.04-.18-.1-.25-.32-.15-.5l.99-1.84c.1-.18.32-.25.5-.15.18.1.25.32.15.5l-.99,1.84c-.07.13-.2.2-.33.2Z" />
    <path class="cls-6"
      d="M62.81,52.41c-.18,0-.34-.14-.37-.32-.03-.2.12-.39.32-.42l1.59-.21c.2-.03.39.12.42.32.03.2-.12.39-.32.42l-1.59.21s-.03,0-.05,0Z" />
    <path class="cls-6"
      d="M53.85,57.4c-.11,0-.22-.05-.29-.14-.13-.16-.11-.39.05-.52l1.53-1.24c.16-.13.39-.11.52.05.13.16.11.39-.05.52l-1.53,1.24c-.07.06-.15.08-.23.08Z" />
    <path class="cls-6"
      d="M66,54.24s-.07,0-.1-.01l-.85-.24c-.2-.06-.31-.26-.26-.46.06-.2.26-.31.46-.26l.85.24c.2.06.31.26.26.46-.05.16-.2.27-.36.27Z" />
    <path class="cls-6"
      d="M62.45,42.84c2.93,0,5.49,1.13,7.29,2.82.01,0,.01.01.01.01,4.69,4.43,4.02,12.75-9.37,14.77-1.71.26-3.24.37-4.58.37-6.6,0-8.94-2.85-8.47-6.3.57-4.22,5.36-9.33,11.72-11.18,1.17-.34,2.31-.5,3.41-.5h0ZM62.46,42.09h0c-1.2,0-2.41.18-3.61.53-6.22,1.81-11.6,6.99-12.25,11.79-.24,1.75.18,3.31,1.23,4.51,1.52,1.75,4.21,2.63,7.98,2.63,1.41,0,2.99-.13,4.69-.38,9.05-1.36,11.6-5.38,12.31-7.65.89-2.85-.08-6.06-2.53-8.39,0,0-.01-.01-.02-.02h0c-2.07-1.95-4.84-3.03-7.8-3.03h0Z" />
    <path class="cls-6"
      d="M95.87,52.12c-.06,0-.13-.02-.19-.05-.18-.1-.24-.33-.13-.51.38-.64,1.23-2.49.7-3.37-.24-.39-.77-.58-1.59-.54-1.29.06-2.05.39-2.1.93-.05.56.66,1.35,1.36,1.51.2.05.33.25.28.45-.05.2-.24.33-.45.28-.97-.22-2.03-1.28-1.94-2.3.05-.55.48-1.5,2.81-1.6,1.1-.06,1.87.25,2.26.9.85,1.42-.54,3.86-.7,4.13-.07.12-.19.18-.32.18Z" />
    <path class="cls-6"
      d="M102.49,51.26c-.09,0-.18-.03-.25-.1-.27-.24-2.61-2.39-2.3-3.86.07-.34.31-.79,1.04-1.03,1.66-.55,2.79.11,3.3.91.38.59.4,1.23.07,1.59-.65.69-1.62.65-1.66.64-.21-.01-.36-.19-.35-.39.01-.21.18-.36.39-.35,0,0,.67.03,1.07-.41.06-.06.06-.35-.15-.68-.36-.56-1.19-1.02-2.44-.6-.48.16-.53.4-.55.48-.16.79,1.18,2.35,2.07,3.15.15.14.17.37.03.53-.07.08-.18.12-.28.12Z" />
    <path class="cls-2"
      d="M79.16,43.04c0,1.12-.9,2.02-2.02,2.02s-2.02-.91-2.02-2.02.9-2.02,2.02-2.02,2.02.91,2.02,2.02Z" />
    <circle class="cls-2" cx="81.45" cy="57.95" r="1.55" />
    <path class="cls-2"
      d="M43.45,61.36c0,1.21-.98,2.19-2.18,2.19s-2.18-.98-2.18-2.19.98-2.19,2.18-2.19,2.18.98,2.18,2.19Z" />
    <ellipse class="cls-2" cx="119.09" cy="53.09" rx="2.21" ry="2.21" />
    <path class="cls-3"
      d="M30.82,87.11c-.51,0-1.02.09-1.53.09-.42,0-.85-.07-1.27-.14-.93-.17-1.84-.37-2.77-.54-.91-.16-1.89-.26-2.81-.15-.73.09-1.56.39-1.76,1.16-.02.09.05.15.13.16.36.02.74.12,1.1.17.45.07.87.08,1.32.09.86.02,1.72.01,2.58-.04.85-.05,1.69-.12,2.54-.24.82-.11,1.71-.11,2.49-.39.09-.03.08-.17-.03-.17Z" />
    <path class="cls-3"
      d="M34.87,86.31s.02.08.03.13c0-.08-.03-.15-.07-.21-.03-.07-.08-.13-.14-.18-.05-.03-.09-.06-.14-.08-.1-.04-.2-.06-.31-.05.05,0,.08,0,.1,0-.03,0-.06,0-.11,0,0,0,0,0-.01,0,0,0-.02,0-.02,0,0,0-.01,0-.02,0-.13.01-.22.07-.33.13-.04.02-.08.05-.11.07-.02.01-.04.03-.06.04-.03.02-.06.05-.08.08-.03.02-.06.05-.08.08-.04.07-.08.14-.12.2-.01.02-.02.04-.03.06-.04.07-.04.13-.07.23,0,.01,0,.02,0,.03,0,.07,0,.13,0,.2.02.06.03.13.05.19.03.06.06.11.1.17.06.09.14.15.23.19.06.04.12.07.19.08.06.03.13.03.2.03.07,0,.13,0,.19-.03.1-.02.19-.06.26-.12.14-.12.19-.19.27-.36,0-.02.02-.03.02-.05.05-.09.08-.19.08-.3,0-.03,0-.07,0-.1,0-.02,0-.03,0-.05,0,0,0-.01,0-.02,0-.06,0-.11,0-.17,0-.05-.03-.12-.05-.18Z" />
    <path class="cls-3" d="M34.35,85.91c.06,0,.06,0,0,0h0Z" />
    <path class="cls-3"
      d="M47.86,85.13c-.64-.57-1.54-.46-2.33-.41-.86.05-1.73.15-2.55.4-.92.28-1.79.34-2.74.43-.74.08-1.67.1-2.32.47-.08.05-.06.18.03.2.78.17,1.73-.08,2.51-.19.89-.13,1.68-.23,2.58-.11.81.11,1.63.1,2.45.07.82-.03,1.75.03,2.39-.57.08-.08.08-.24,0-.31Z" />
    <path class="cls-3"
      d="M76.73,84.01c-.23-.11-.5-.13-.75-.16-.28-.04-.57-.06-.85-.08-.57-.03-1.14-.02-1.71.03-.55.05-1.11.14-1.66.23-.29.05-.59.09-.87.16-.12.03-.23.07-.34.12-.15.06-.24.15-.38.23-.24.14-.13.47.1.54.12.03.22.1.35.12.12.02.24.03.36.04.29.02.6-.01.89-.03.56-.03,1.13-.06,1.68-.13.56-.06,1.11-.17,1.66-.3.27-.06.54-.14.8-.22.24-.07.51-.14.71-.28.09-.06.11-.22,0-.27Z" />
    <path class="cls-3"
      d="M80.93,83.75c-.06-.2-.27-.35-.47-.38-.22-.04-.45-.01-.67,0-.08,0-.16.03-.25.05-.08.02-.16.03-.23.06-.03.01-.07.02-.1.03-.02,0-.04,0-.07.01-.18.03-.35.15-.38.34-.01.07,0,.14.02.21.03.09.12.21.21.24.09.03.18.06.26.09-.04-.01-.08-.03-.12-.04.04.02.08.04.12.05.08.04.15.06.24.08.09.02.19.06.28.06.09,0,.18,0,.27.01.09,0,.18,0,.27,0,.09-.01.18-.04.26-.07.2-.06.34-.27.38-.47.02-.11,0-.2-.03-.3Z" />
    <path class="cls-3"
      d="M111.37,82.36c0-.09,0-.17-.02-.25-.02-.09-.04-.18-.08-.27-.02-.04-.04-.08-.07-.12-.04-.08-.08-.16-.14-.24-.12-.18-.32-.26-.52-.3-.12-.02-.24,0-.35.04-.09.03-.16.08-.22.15-.07.06-.13.13-.16.22-.05.12-.07.24-.05.36,0,.15.08.28.15.4-.03-.05-.06-.11-.09-.16.03.06.06.12.08.18.05.12.11.22.2.32.08.09.16.16.25.23.03.02.05.04.08.06.01,0,.02.02.03.02.09.07.17.1.28.13-.05-.01-.09-.03-.14-.04.02,0,.05.02.07.03.08.05.18.05.27.05.05.01.1,0,.15-.01.09-.04.14-.13.14-.23,0,.03,0,.07,0,.1.02-.03.04-.07.07-.1.02-.04.03-.1.04-.14,0-.03,0-.06.02-.09-.01.05-.03.09-.04.14.07-.15.05-.32.05-.48Z" />
    <path class="cls-3"
      d="M120.58,86.9c-.04-.57-.14-1.13-.24-1.7-.1-.56-.23-1.11-.39-1.65-.14-.48-.54-2.16-.71-2.5-.17-.34-.52-.55-.9-.44-.35.1-.62.45-.56.83.04.23.57,1.69.59,1.82.12.7.27,1.39.4,2.09.13.67.21,1.35.35,2.02.09.41.37,1.76,1.08,1.29.5-.33.41-1.24.37-1.76Z" />
    <path class="cls-1"
      d="M142.29,49.35c.95-1.45,1.91-2.87,2.75-4.39.18-.33-.23-.58-.49-.37-1.26,1.02-2.4,2.13-3.53,3.3-1.07,1.11-2.3,2.12-3.22,3.36-2,2.68-1.15,5.55.1,8.35,1.02,2.28,1.48,4.54,1.02,7.04-.42,2.29-1.42,4.89-3.15,6.51-.42.39.14,1.02.61.76,2.21-1.24,4.06-2.78,5.13-5.16,1.03-2.3,1.37-4.91.84-7.38-.29-1.37-.82-2.63-1.4-3.9-.59-1.29-1.33-2.8-.88-4.24.42-1.35,1.45-2.7,2.22-3.88Z" />
    <path class="cls-1"
      d="M148.4,67.73c-.14-.71-.17-1.44-.55-2.08-.15-.26-.5-.16-.59.09-.21.61-.19,1.27-.36,1.88-.17.65-.39,1.34-.62,1.98-.43,1.19-1.05,2.3-1.8,3.26-.75.96-1.34,1.6-2.36,2.22-.47.29-.97.58-1.43.89-.45.31-.85.71-1.3,1.01-.27.19-.3.63.02.79.69.35,1.4.61,2.19.56.76-.05,1.6-.37,2.26-.74,1.32-.74,2.5-1.84,3.3-3.12.81-1.3,1.22-2.79,1.35-4.32.07-.84.05-1.59-.11-2.41Z" />
    <path class="cls-1"
      d="M20.37,79.32c-3.02.8-5.95-.78-5.95-4.07,0-2.92,1.25-5.74,1.6-8.62.32-2.63-.05-5.36-1.59-7.57-1.22-1.75-4.12-4.57-6.36-2.88-.38.29-.51.69-.4,1.15.35,1.46,1.77,2.08,2.79,3.02.78.73,1.43,1.69,1.81,2.69,1.13,2.95.07,6.25-.38,9.23-.37,2.5-.5,5.55,1.61,7.36,2.11,1.81,4.79,1.35,7.11.24.31-.15.08-.63-.23-.55Z" />
    <path class="cls-1"
      d="M24.05,74.48c-.12-.25-.28-.38-.51-.53-.26-.17-1.5.06-2.32-.35-.7-.35-1.03-1.32-.95-1.59.17-.58-.4-.52-.6-.23-.04.06-.39.45-.47.61-.09.2-.17.43-.2.65-.1.69.28,1.46.76,1.94.39.39.92.69,1.45.88.7.25,1.46.48,2.19.22.44-.16.74-.56.77-1.02.01-.2-.02-.38-.11-.57Z" />
    <path class="cls-1"
      d="M17.33,83.55c-1.66.23-4.38.31-6.04-.66-1.67-.97-1.78-2.72-1.9-3.5-.15-.95-.36-1.89-.45-2.84-.07-.74-.07-1.49-.19-2.22-.09-.57-.24-1.54-.83-1.81-.14-.06-.36-.01-.38.17-.05.4.29,1.98.27,2.41-.04,1.03-.31,2-.56,2.99-.47,1.89-1.17,4.01-.23,5.87.48.94,1.16,1.8,2.16,2.21.97.4,2,.37,3.01.18.99-.18,1.93-.43,2.86-.81.88-.36,1.66-.83,2.5-1.26.33-.17.17-.77-.21-.71Z" />
    <path class="cls-6"
      d="M136.14,74.39c-.29,0-.57-.14-.76-.39-.27-.37-.23-.84.1-1.15,1.44-1.36,2.54-3.65,3.02-6.28.4-2.21.09-4.37-.99-6.79-1.28-2.87-2.18-5.92-.05-8.77.64-.86,1.43-1.62,2.19-2.35.36-.35.72-.69,1.07-1.05,1.35-1.41,2.46-2.44,3.57-3.34.28-.23.69-.23.97,0,.26.22.33.58.16.89-.71,1.29-1.52,2.52-2.3,3.71l-.47.71c-.15.23-.31.46-.47.7-.68,1-1.38,2.04-1.7,3.07-.38,1.24.25,2.61.81,3.82l.05.12c.56,1.21,1.12,2.54,1.43,3.99.53,2.49.22,5.2-.87,7.64-.99,2.19-2.62,3.84-5.31,5.35-.14.08-.29.12-.44.12ZM144.39,45.25c-.95.8-1.92,1.72-3.08,2.93-.35.36-.72.72-1.09,1.07-.73.71-1.49,1.44-2.1,2.25-1.76,2.36-1.22,4.88.15,7.93,1.15,2.58,1.49,4.9,1.05,7.28-.51,2.8-1.7,5.26-3.27,6.74-.02.03,0,.07.05.09,2.59-1.41,4.12-2.94,5.03-4.96,1.02-2.27,1.31-4.8.81-7.12-.29-1.37-.83-2.65-1.37-3.82l-.05-.12c-.59-1.28-1.33-2.87-.85-4.42.36-1.15,1.13-2.29,1.81-3.29.16-.24.32-.47.46-.69l.47-.71c.7-1.07,1.37-2.08,1.99-3.15Z" />
    <path class="cls-6"
      d="M141.41,78.75c-.85,0-1.57-.31-2.18-.61-.27-.14-.44-.4-.46-.69-.02-.32.13-.63.39-.81.21-.15.41-.31.61-.48.22-.19.45-.37.69-.54.37-.25.77-.5,1.17-.73l.28-.17c.96-.58,1.51-1.17,2.25-2.12.74-.95,1.34-2.04,1.73-3.14.22-.63.43-1.3.61-1.94.07-.26.1-.52.14-.79.05-.37.1-.75.23-1.13.1-.29.36-.49.66-.52.28-.03.54.11.69.36.33.56.42,1.16.51,1.74.03.16.05.32.08.48h0c.16.81.19,1.59.12,2.52-.14,1.72-.61,3.23-1.41,4.51-.82,1.31-2.04,2.47-3.45,3.26-.81.46-1.7.75-2.43.8-.08,0-.15,0-.23,0ZM147.58,66.03c-.04.24-.08.51-.12.8-.04.29-.08.59-.16.89-.18.67-.39,1.36-.63,2.01-.42,1.18-1.07,2.35-1.86,3.37-.78,1.01-1.41,1.67-2.47,2.32l-.28.17c-.38.23-.77.46-1.13.71-.22.15-.42.32-.62.49-.22.18-.44.37-.67.53.53.36,1.2.64,1.94.59.61-.04,1.37-.29,2.08-.69,1.28-.72,2.4-1.78,3.15-2.98.72-1.16,1.16-2.55,1.28-4.13.07-.86.04-1.56-.1-2.3h0c-.03-.17-.06-.34-.09-.5-.07-.46-.14-.89-.32-1.28Z" />
    <path class="cls-6"
      d="M16.84,81.27c-1.37,0-2.59-.44-3.61-1.32-2.28-1.96-2.13-5.16-1.75-7.74.09-.62.21-1.26.33-1.91.45-2.4.92-4.88.06-7.11-.37-.95-.97-1.85-1.7-2.53-.27-.25-.56-.47-.88-.71-.86-.65-1.75-1.32-2.04-2.52-.15-.63.05-1.19.56-1.58.67-.51,1.44-.7,2.29-.56,1.82.29,3.65,2.09,4.66,3.54,1.84,2.64,1.92,5.73,1.66,7.86-.15,1.23-.46,2.45-.76,3.63-.41,1.62-.84,3.29-.83,4.94,0,1.29.48,2.34,1.39,3.03,1.03.79,2.54,1.03,4.04.64h0c.36-.09.73.11.86.47.13.34-.02.7-.34.86-1.42.68-2.74,1.02-3.95,1.02ZM9.6,56.08c-.46,0-.88.14-1.27.44-.24.18-.32.41-.25.72.22.91.95,1.46,1.73,2.05.32.24.64.49.94.76.82.76,1.5,1.77,1.91,2.84.94,2.45.45,5.05-.02,7.57-.12.63-.24,1.26-.33,1.88-.35,2.36-.5,5.29,1.47,6.98,1.47,1.26,3.37,1.46,5.68.6-1.4.14-2.72-.2-3.73-.97-1.1-.85-1.71-2.16-1.71-3.69,0-1.76.44-3.48.86-5.14.29-1.16.6-2.35.74-3.52.24-1.98.18-4.85-1.52-7.28-.99-1.42-2.64-2.96-4.11-3.19-.13-.02-.26-.03-.39-.03Z" />
    <path class="cls-6"
      d="M22.71,76.6c-.56,0-1.11-.17-1.64-.36-.62-.22-1.19-.56-1.6-.97-.49-.49-1.01-1.39-.88-2.3.04-.25.12-.51.23-.76.07-.16.24-.36.43-.59l.08-.09c.23-.33.69-.48,1.03-.32.25.12.46.42.31.91,0,.13.24.85.73,1.09.42.21,1.03.22,1.47.23.41,0,.69.01.89.14.28.18.5.37.66.7h0c.12.25.17.5.15.78-.04.63-.45,1.18-1.04,1.39-.28.1-.56.14-.83.14ZM19.84,72.22c-.09.11-.23.28-.27.35-.08.17-.14.36-.16.53-.09.56.26,1.2.64,1.58.32.32.78.6,1.29.78.67.23,1.32.43,1.92.22.28-.1.47-.36.49-.65,0-.13-.01-.24-.07-.36-.07-.14-.16-.23-.36-.36-.03,0-.28,0-.46-.01-.52-.01-1.24-.02-1.83-.32-.69-.34-1.13-1.18-1.18-1.75Z" />
    <path class="cls-6"
      d="M10.86,86.89c-.68,0-1.28-.11-1.85-.35-.97-.4-1.77-1.2-2.38-2.4-.92-1.8-.4-3.81.05-5.58l.23-.9c.22-.88.43-1.71.47-2.59,0-.16-.07-.63-.13-1.02-.11-.72-.18-1.17-.14-1.43.03-.2.15-.37.32-.47.2-.11.44-.12.65-.02.78.36.96,1.45,1.06,2.11.08.49.11.97.14,1.43.02.28.03.56.06.83.06.64.18,1.3.3,1.94.05.29.1.58.15.88l.04.23c.12.82.32,2.19,1.66,2.97,1.45.84,3.94.87,5.78.61h0c.37-.05.7.17.82.54.12.38-.03.78-.36.95-.25.13-.5.26-.75.4-.57.3-1.15.62-1.78.88-.88.36-1.81.63-2.94.84-.5.09-.96.14-1.4.14ZM7.97,73.12c.03.25.08.57.12.81.08.5.14.94.13,1.18-.04.96-.27,1.87-.49,2.75l-.23.91c-.44,1.7-.89,3.47-.12,4.99.52,1.02,1.17,1.69,1.95,2.01.77.31,1.65.37,2.78.16,1.07-.2,1.95-.45,2.77-.79.59-.24,1.13-.54,1.71-.84.19-.1.37-.2.56-.3-1.18.14-4.16.36-6.07-.74-1.7-.98-1.94-2.66-2.07-3.57l-.03-.22c-.05-.29-.1-.57-.15-.86-.12-.65-.24-1.33-.31-2.01-.03-.29-.05-.57-.06-.86-.03-.46-.05-.9-.12-1.34-.05-.34-.15-.94-.36-1.28ZM17.39,83.97h0,0Z" />
  </g>
</svg>