<?xml version="1.0" encoding="UTF-8"?>
<svg id="Capa_2" xmlns="http://www.w3.org/2000/svg" viewBox="0 0 242.27 144.5">
  <defs>
    <style>
      .cls-1 {
        fill: aqua;
      }

      .cls-2 {
        fill: #29abe2;
      }

      .cls-3 {
        fill: #fff;
      }

      .cls-4 {
        fill: #862291;
      }

      .cls-5 {
        fill: #1b1464;
      }

      .cls-6 {
        fill: #fcee21;
      }

      .cls-7 {
        fill: #ed1e79;
      }
    </style>
  </defs>
  <g id="_0">
    <path class="cls-3"
      d="M238.04,42.55c-3.87-6.21-9.93-10.21-17.11-11.29-7.42-6.1-15.84-13.03-22.52-18.51-3.5-2.87-6.51-5.35-8.66-7.1-1.08-.88-1.94-1.58-2.53-2.06l-.7-.57s-.06-.05-.09-.07c-2.56-2.44-5.92-3.45-9.07-2.71-3.02.71-5.35,2.9-6.4,6.01-1.31,3.6-2.02,7.13-2.1,10.55h-9.56l-3.77-11.06c-.72-2.37-2.79-3.9-5.32-3.9h-6.21c-2.53,0-4.6,1.52-5.32,3.9l-3.77,11.06h-10.34c-.23-.78-.65-1.51-1.24-2.11v-1.24c.79-.93,1.23-2.1,1.23-3.32v-3.15c0-1.31-.5-2.56-1.4-3.52-.03-.03-.07-.07-.1-.1-.97-.97-2.26-1.51-3.63-1.51h-13.9c-.37,0-.73.04-1.08.11-.35-.08-.7-.11-1.06-.11h-4.71c-1.39,0-2.64.46-3.61,1.27-.98-.82-2.23-1.27-3.54-1.27h-4.72c-1.01,0-1.98.3-2.81.86-.87-.55-1.91-.86-3.05-.86h-6.21c-1.36,0-2.58.44-3.54,1.21-.92-.78-2.07-1.21-3.3-1.21h-4.6c-1.02,0-2,.3-2.84.86-.84-.56-1.81-.86-2.84-.86h-4.6c-1.36,0-2.65.54-3.63,1.51-.97.97-1.5,2.26-1.5,3.62v11.3c-3.71,1.27-7.09,3.32-9.95,6.02C22.52,8.18,18.8,4.26,18.1,3.51c-.09-.11-.18-.21-.28-.31C15.24.58,11.75-.52,8.5.24,5.48.95,3.15,3.14,2.1,6.25-2.24,18.16.15,29.05,9.22,38.63c.02.02.04.04.06.07,2.83,2.87,7.16,2.97,10.06.22,2.91-2.75,3.06-7.07.35-10.05-.03-.03-.06-.07-.09-.1-3.65-3.8-5.71-7.31-6.29-10.82-.07-.41-.13-.84-.16-1.28,2.79,2.91,8,8.35,17.66,18.49-.25.7-.48,1.4-.66,2.09-.47,1.76-.77,3.57-.87,5.32-.04.56-.06,1.14-.06,1.77,0,.41,0,.82.03,1.23-8.49,4.89-13.82,13.93-13.82,23.87,0,7.33,2.87,14.25,8.09,19.46,5.22,5.22,12.13,8.09,19.47,8.09h2.93c3.66,6.34,9.71,10.99,16.72,12.89v29.76c0,2.5,2.03,4.53,4.53,4.53h6.76c.61,0,1.2-.12,1.73-.34.54.22,1.12.34,1.73.34h6.76c.48,0,.94-.07,1.38-.21.43.14.9.21,1.37.21h6.68c1.44,0,2.72-.67,3.55-1.72,2.06,1.34,4.52,2.04,7.25,2.04,2.96,0,5.52-.63,7.61-1.87.83.95,2.05,1.55,3.41,1.55h14.29c2.5,0,4.53-2.03,4.53-4.53v-6.74c0-1.86-1.12-3.46-2.73-4.16,1.21-.81,2.01-2.19,2.01-3.76v-6.5c0-1.27-.52-2.42-1.37-3.24,1-.83,1.64-2.08,1.64-3.49v-.92h3.1v28.81c0,2.5,2.03,4.53,4.53,4.53h9.27c2.69,0,4.75-.6,6.31-1.46.86.93,2.06,1.46,3.33,1.46h6.71c.94,0,1.82-.29,2.55-.78.73.5,1.61.78,2.55.78h6.54c.97,0,1.91-.31,2.68-.88.75.55,1.68.88,2.68.88h6.52c1.36,0,2.58-.6,3.41-1.55.83.94,2.04,1.53,3.39,1.53h7.03c2.5,0,4.53-2.03,4.53-4.53v-5.85c0-1.28-.53-2.43-1.39-3.26,0-.01,0-.02,0-.04l1.1-20.11c12.29-2.26,21.87-12.81,22.56-25.62.03-.49.04-.98.04-1.48,0-.36,0-.73-.02-1.1,4.67-5.8,8-11.59,9.91-17.23,2.34-6.9,1.14-15.7-3.05-22.42ZM182,16c.3.25.62.51.97.79h-.92c-.02-.26-.03-.52-.04-.79Z" />
    <rect class="cls-3" x="110" y="112.58" width="19.68" height="24.92" />
    <path class="cls-3"
      d="M129.68,141.67h-19.68c-2.3,0-4.17-1.87-4.17-4.17v-24.92c0-2.3,1.87-4.17,4.17-4.17h19.68c2.3,0,4.17,1.87,4.17,4.17v24.92c0,2.3-1.87,4.17-4.17,4.17ZM114.17,133.33h11.34v-16.58h-11.34v16.58Z" />
    <rect class="cls-3" x="186.95" y="114.88" width="13.06" height="20.06" />
    <path class="cls-3"
      d="M200.01,139.11h-13.06c-2.3,0-4.17-1.87-4.17-4.17v-20.06c0-2.3,1.87-4.17,4.17-4.17h13.06c2.3,0,4.17,1.87,4.17,4.17v20.06c0,2.3-1.87,4.17-4.17,4.17ZM191.12,130.77h4.72v-11.72h-4.72v11.72Z" />
    <path class="cls-4"
      d="M220.99,68.19c-3.53-4.05-8.45-6.86-14-7.68,4.12-4.16,6.67-9.88,6.67-16.16,0-.98-.06-1.95-.18-2.89-.66-5.18-3.06-9.85-6.59-13.38-4.17-4.17-9.93-6.76-16.26-6.76h-34.57l-3.07-8.98-1.78-5.23c-.13-.49-.47-.74-1-.74h-6.21c-.54,0-.87.25-1.01.74l-1.93,5.67-2.91,8.55h-17.9v-3.07c0-.16-.06-.3-.18-.42-.12-.12-.26-.18-.42-.18h-8.91v-1.4h7.46c.16,0,.3-.06.42-.18.12-.11.18-.25.18-.42v-2.91c0-.16-.06-.3-.18-.42-.12-.12-.26-.18-.42-.18h-7.46v-1.41h8.69c.17,0,.31-.06.43-.18.11-.12.18-.26.18-.42v-3.15c0-.16-.06-.3-.18-.42-.12-.12-.26-.18-.43-.18h-13.9c-.16,0-.3.06-.42.18-.12.12-.18.26-.18.42v14.35h-6.23s.01-.04.02-.05l2.75-7.63,2.39-6.63c.01-.06.02-.13.02-.23,0-.08-.05-.18-.15-.27-.09-.1-.21-.15-.35-.15h-4.71c-.54,0-.87.25-1.01.74l-2,6.68h0l-.56,1.87-.56-1.84-2.02-6.71c-.06-.18-.18-.35-.35-.51-.17-.16-.39-.23-.66-.23h-4.72c-.13,0-.25.05-.35.15-.1.1-.15.19-.15.27,0,.09,0,.17.02.23l2.53,6.99,2.65,7.32h-4.71l-2.44-7.15-2.41-7.07c-.13-.49-.47-.74-1-.74h-6.21c-.54,0-.87.25-1.01.74l-2.63,7.71-2.21,6.5h-.38V6.97c0-.16-.06-.3-.18-.42-.11-.12-.25-.18-.42-.18h-4.6c-.17,0-.31.06-.43.18s-.18.26-.18.42v4.58h-4.47v-4.58c0-.16-.06-.3-.18-.42-.12-.12-.26-.18-.42-.18h-4.6c-.16,0-.3.06-.42.18s-.18.26-.18.42v14.43c0,.13.04.23.1.32-8.71,1.65-15.72,8.24-17.99,16.71-.39,1.45-.63,2.94-.73,4.48-.04.47-.05.95-.05,1.43,0,1.32.12,2.62.34,3.88-8.29,3.5-14.13,11.71-14.13,21.23,0,6.33,2.59,12.09,6.76,16.26,4.17,4.17,9.93,6.76,16.27,6.76h5.7c3.23,7.36,10.2,12.74,18.47,13.69v33.49h6.76v-17.29l1.32,6.59,2.14,10.7h6.76v-33.34h2.75v33.34h6.68v-33.34h5.56c-.41.32-.78.69-1.1,1.12-1.33,1.78-1.99,4.34-1.99,7.7v15.95c0,2.81.76,4.99,2.28,6.54,1.53,1.56,3.54,2.34,6.04,2.34,2.75,0,4.89-.68,6.42-2.06,1.53-1.37,2.3-3.57,2.3-6.61v-6.54h-6.95v6.23c0,.78-.12,1.4-.37,1.89-.24.48-.66.73-1.25.73-.52,0-.92-.2-1.21-.59-.28-.39-.42-1.06-.42-2.02v-17.3c0-.78.11-1.4.33-1.86.23-.47.66-.7,1.3-.7.55,0,.96.18,1.22.54.26.36.39,1.06.39,2.09v5.11h6.88v-5.97c0-1.82-.37-3.33-1.1-4.53-.51-.83-1.16-1.51-1.92-2.05h5.4v33.34h14.29v-6.74h-7.26v-7.92h6.53v-6.5h-6.53v-6.73h6.8v-5.44h12.16v33.34h9.27c2.87,0,4.88-.89,6.02-2.67,1.15-1.78,1.72-4.31,1.72-7.58v-16.19c0-2.66-.63-4.68-1.88-6.06-.29-.32-.61-.59-.97-.83h7.95l-1.74,18.04-1.47,15.3h6.71l.44-5.58h4.16l.49,5.58h6.54l-1.63-17.16-1.54-16.18h3.3l3.67,15.4,1.57,6.56v11.37h6.52v-11.37l1.94-8.18,1.9-8.05,1.36-5.73h1.66l.25,4.51.45,8.24.61,11.17h4.28l.67-12.27.64-11.68c11.95-.32,21.71-9.89,22.35-21.77.02-.41.04-.82.04-1.24,0-5.76-2.15-11.05-5.68-15.1ZM143.79,21.32s.03-.04.04-.07l.56-1.57h5.45l.56,1.57s.03.04.04.07h-6.65ZM185.55,106.32h3.44l-.39,2.38-1.33,8.09-1.64-9.97-.08-.5ZM146.46,12.59l.65-1.91.64,1.87.94,2.78h-3.17l.93-2.74h0ZM58.23,21.32v-4.67h4.47v4.67h-4.47ZM74.52,21.32s.03-.04.04-.07l.56-1.57h5.45l.56,1.57s.03.04.04.07h-6.64ZM77.84,10.68l1.27,3.71.32.94h-3.17l.27-.81,1.31-3.84ZM74.52,106.32h2.95v15.32l-2.95-15.32ZM151.45,131.71c0,1.23-.63,1.84-1.9,1.84h-1.2v-22.42h.76c.94,0,1.57.17,1.88.5.31.34.47,1.08.47,2.24v17.84ZM171.08,128.56h-3.14l.37-4.94.94-12.64h.32l1.06,12.37.44,5.22Z" />
    <path class="cls-5"
      d="M150.22,6.36c.54,0,.87.25,1,.74l1.78,5.23,3.07,8.98h34.57c6.33,0,12.09,2.59,16.26,6.76,3.53,3.53,5.93,8.19,6.59,13.38.12.94.18,1.91.18,2.89,0,6.28-2.55,12-6.67,16.16,5.54.82,10.46,3.63,14,7.68,3.53,4.05,5.68,9.34,5.68,15.1,0,.42-.01.83-.04,1.24-.63,11.88-10.39,21.44-22.35,21.77l-.64,11.68-.67,12.27h-4.28l-.61-11.17-.45-8.24-.25-4.51h-1.66l-1.36,5.73-1.9,8.05-1.94,8.18v11.37h-6.52v-11.37l-1.57-6.56-3.67-15.4h-3.3l1.54,16.18,1.63,17.16h-6.54l-.49-5.58h-4.16l-.44,5.58h-6.71l1.47-15.3,1.74-18.04h-7.95c.35.24.68.51.97.83,1.26,1.38,1.88,3.41,1.88,6.06v16.19c0,3.27-.57,5.8-1.72,7.58-1.14,1.78-3.15,2.67-6.02,2.67h-9.27v-33.34h-12.16v5.44h-6.8v6.73h6.53v6.5h-6.53v7.92h7.26v6.74h-14.29v-33.34h-5.4c.77.54,1.42,1.22,1.92,2.05.73,1.2,1.1,2.71,1.1,4.53v5.97h-6.88v-5.11c0-1.04-.13-1.73-.39-2.09-.26-.36-.67-.54-1.22-.54-.64,0-1.07.23-1.3.7-.22.47-.33,1.09-.33,1.86v17.3c0,.96.14,1.64.42,2.02.28.39.68.59,1.21.59.59,0,1.01-.25,1.25-.73.25-.49.37-1.11.37-1.89v-6.23h6.95v6.54c0,3.04-.77,5.24-2.3,6.61-1.53,1.37-3.67,2.06-6.42,2.06-2.5,0-4.51-.78-6.04-2.34-1.52-1.56-2.28-3.74-2.28-6.54v-15.95c0-3.36.66-5.92,1.99-7.7.32-.43.69-.8,1.1-1.12h-5.56v33.34h-6.68v-33.34h-2.75v33.34h-6.76l-2.14-10.7-1.32-6.59v17.29h-6.76v-33.49c-8.27-.95-15.24-6.33-18.47-13.69h-5.7c-6.34,0-12.09-2.59-16.27-6.76-4.17-4.17-6.76-9.93-6.76-16.26,0-9.52,5.85-17.73,14.13-21.23-.22-1.26-.34-2.56-.34-3.88,0-.48.01-.96.05-1.43.09-1.54.34-3.04.73-4.48,2.27-8.48,9.28-15.06,17.99-16.71-.06-.09-.1-.19-.1-.32V6.97c0-.16.06-.3.18-.42s.26-.18.42-.18h4.6c.16,0,.3.06.42.18.12.12.18.26.18.42v4.58h4.47v-4.58c0-.16.06-.3.18-.42s.26-.18.43-.18h4.6c.17,0,.31.06.42.18.12.12.18.26.18.42v14.35h.38l2.21-6.5,2.63-7.71c.13-.49.47-.74,1.01-.74h6.21c.54,0,.87.25,1,.74l2.41,7.07,2.44,7.15h4.71l-2.65-7.32-2.53-6.99c-.01-.06-.02-.13-.02-.23,0-.08.05-.18.15-.27.1-.1.21-.15.35-.15h4.72c.27,0,.49.08.66.23.17.16.29.32.35.51l2.02,6.71.56,1.84.56-1.87h0l2-6.68c.13-.49.47-.74,1.01-.74h4.71c.13,0,.25.05.35.15.1.1.15.19.15.27,0,.09,0,.17-.02.23l-2.39,6.63-2.75,7.63s-.01.03-.02.05h6.23V6.97c0-.16.06-.3.18-.42.12-.12.26-.18.42-.18h13.9c.17,0,.31.06.43.18.11.12.18.26.18.42v3.15c0,.16-.06.3-.18.42-.12.12-.26.18-.43.18h-8.69v1.41h7.46c.16,0,.3.06.42.18.12.12.18.26.18.42v2.91c0,.17-.06.31-.18.42-.12.12-.26.18-.42.18h-7.46v1.4h8.91c.16,0,.3.06.42.18.12.12.18.26.18.42v3.07h17.9l2.91-8.55,1.93-5.67c.13-.49.47-.74,1.01-.74h6.21ZM145.52,15.32h3.17l-.94-2.78-.64-1.87-.65,1.91h0l-.93,2.74h0ZM76.26,15.32h3.17l-.32-.94-1.27-3.71-1.31,3.84-.27.81h0ZM58.23,21.32h4.47v-4.67h-4.47v4.67h0ZM143.79,21.32h6.65s-.03-.04-.04-.07l-.56-1.57h-5.45l-.56,1.57s-.03.04-.04.07h0ZM74.52,21.32h6.64s-.02-.04-.04-.07l-.56-1.57h-5.45l-.56,1.57s-.03.04-.04.07h0ZM187.27,116.79l1.33-8.09.39-2.38h-3.44l.08.5,1.64,9.97h0ZM77.46,121.64v-15.32h-2.95l2.95,15.32h0ZM167.93,128.56h3.14l-.44-5.22-1.06-12.37h-.32l-.94,12.64-.37,4.94h0ZM148.35,133.55h1.2c1.27,0,1.9-.61,1.9-1.84v-17.84c0-1.16-.16-1.9-.47-2.24-.3-.33-.93-.5-1.88-.5h-.76v22.42h0ZM150.22,4.95h-6.21c-1.16,0-2.04.65-2.36,1.73l-1.92,5.63-2.59,7.59h-15.48v-1.66c0-.53-.21-1.04-.6-1.42-.27-.27-.6-.46-.96-.54.07-.21.11-.43.11-.65v-2.91c0-.24-.04-.48-.13-.71.29-.1.54-.26.77-.48.01-.01.02-.02.03-.03.36-.38.56-.88.56-1.39v-3.15c0-.51-.2-1.01-.56-1.39,0-.01-.02-.02-.03-.03-.38-.38-.89-.6-1.43-.6h-13.9c-.39,0-.76.11-1.08.32-.31-.21-.67-.32-1.06-.32h-4.71c-1.17,0-2.06.66-2.36,1.76l-1.21,4.05-1.22-4.07c-.13-.41-.36-.78-.72-1.12-.45-.42-1.01-.62-1.63-.62h-4.72c-.5,0-.98.2-1.34.56-.46.46-.56.95-.56,1.27,0,.21.02.4.06.57.01.05.03.09.04.14l2.53,6.99,1.97,5.43h-1.69l-2.11-6.2-2.4-7.03c-.32-1.08-1.19-1.73-2.35-1.73h-6.21c-1.16,0-2.04.65-2.36,1.73l-2.47,7.24v-6.95c0-.52-.21-1.02-.58-1.41-.38-.39-.89-.61-1.43-.61h-4.6c-.54,0-1.04.21-1.43.6-.38.38-.59.88-.59,1.42v3.17h-1.65v-3.17c0-.54-.21-1.04-.59-1.42-.38-.38-.89-.6-1.42-.6h-4.6c-.53,0-1.04.21-1.42.6-.38.38-.6.89-.6,1.42v13.64c-8.6,2.11-15.53,8.84-17.84,17.46-.42,1.55-.68,3.16-.77,4.77-.03.46-.05.96-.05,1.51,0,1,.07,2.01.2,3.03-8.53,4.05-13.99,12.6-13.99,22.08,0,6.5,2.55,12.63,7.18,17.26,4.63,4.63,10.76,7.18,17.26,7.18h4.8c3.46,7.14,10.2,12.2,17.97,13.51v32.26c0,.78.63,1.41,1.41,1.41h6.76c.78,0,1.41-.63,1.41-1.41v-3.06l.67,3.34c.13.66.71,1.13,1.38,1.13h6.76c.67,0,1.23-.47,1.38-1.1.14.63.7,1.1,1.38,1.1h6.68c.78,0,1.41-.63,1.41-1.41v-5.41c.41,1.74,1.2,3.2,2.34,4.37,1.8,1.84,4.17,2.77,7.05,2.77,3.1,0,5.58-.81,7.37-2.42,1.04-.93,1.79-2.16,2.24-3.68v4.37c0,.78.63,1.41,1.41,1.41h14.29c.78,0,1.41-.63,1.41-1.41v-6.74c0-.78-.63-1.41-1.41-1.41h-5.85v-5.1h5.12c.78,0,1.41-.63,1.41-1.41v-6.5c0-.78-.63-1.41-1.41-1.41h-5.12v-3.91h5.39c.78,0,1.41-.63,1.41-1.41v-4.03h9.34v31.93c0,.78.63,1.41,1.41,1.41h9.27c3.37,0,5.8-1.12,7.21-3.32.75-1.17,1.28-2.57,1.6-4.23l-.58,6.01c-.04.4.09.79.36,1.08.27.29.65.46,1.04.46h6.71c.74,0,1.35-.57,1.41-1.3l.34-4.28h1.57l.38,4.29c.06.73.67,1.29,1.4,1.29h6.54c.4,0,.78-.17,1.04-.46.27-.29.4-.69.36-1.08l-1.63-17.16-1.39-14.64h.64l3.41,14.32,1.53,6.4v11.21c0,.78.63,1.41,1.41,1.41h6.52c.78,0,1.41-.63,1.41-1.41v-11.21l1.9-8.02,1.9-8.05.46-1.93.03.47.45,8.24.61,11.17c.04.75.66,1.33,1.41,1.33h4.28c.75,0,1.37-.59,1.41-1.33l.67-12.27.57-10.41c12.03-.98,21.76-10.86,22.41-23.03.03-.48.04-.91.04-1.32,0-5.87-2.14-11.57-6.03-16.03-3.28-3.76-7.61-6.42-12.37-7.65,3.49-4.33,5.39-9.66,5.39-15.27,0-1.02-.07-2.05-.19-3.07-.67-5.32-3.15-10.36-6.99-14.2-4.63-4.63-10.76-7.18-17.26-7.18h-33.56l-2.74-8.03-1.77-5.2c-.32-1.08-1.19-1.73-2.35-1.73h0ZM100.71,19.91l2.09-5.79.73-2.01v7.8h-2.81ZM59.64,18.05h1.65v1.85h-1.65v-1.85h0ZM187.21,107.73h.11l-.06.35-.06-.35h0ZM158.64,107.73h3.32l-1.59,16.49-.56,5.76c0-.19,0-.38,0-.58v-16.19c0-2.18-.4-4.01-1.18-5.49h0ZM113.18,107.73h.81v1.87c-.2-.68-.47-1.3-.81-1.87h0ZM94.99,107.73h1.2c-.54,1.01-.94,2.18-1.2,3.5v-3.5h0ZM104.47,112.54s.04,0,.07,0c.04,0,.06,0,.09,0,.04.14.12.49.12,1.22v5.11c0,.78.63,1.41,1.41,1.41h6.88c.37,0,.71-.15.97-.38v3.77c-.24-.2-.55-.31-.89-.31h-6.95c-.78,0-1.41.63-1.41,1.41v6.23c0,.63-.1,1-.19,1.21,0,0,0,0-.01,0-.03,0-.04,0-.06,0-.04-.07-.16-.37-.16-1.2v-17.3c0-.59.08-.95.15-1.15h0ZM149.76,132.13v-19.54c.07.01.13.02.17.04.04.16.11.53.11,1.25v17.84c0,.26-.05.36-.05.38,0,0,0,0,0,0,0,0-.07.03-.23.04h0ZM169.45,127.15l.04-.55.05.55h-.09Z" />
    <path class="cls-6"
      d="M68.51,6.97c0-.16-.06-.31-.18-.42-.12-.12-.26-.18-.42-.18h-4.6c-.16,0-.31.06-.42.18-.12.12-.18.26-.18.42v4.58h-4.47v-4.58c0-.16-.06-.31-.18-.42-.12-.12-.26-.18-.42-.18h-4.6c-.16,0-.31.06-.42.18-.12.12-.18.26-.18.42v9.31c5.35-.53,10.72-.96,16.09-1.3V6.97Z" />
    <path class="cls-6"
      d="M118.8,12.73c0-.16-.06-.31-.18-.42-.12-.12-.26-.18-.42-.18h-7.46v-1.41h8.69c.16,0,.3-.06.42-.18.12-.12.18-.26.18-.42v-3.15c0-.16-.06-.31-.18-.42-.12-.12-.26-.18-.42-.18h-13.9c-.16,0-.31.06-.42.18-.12.12-.18.26-.18.42v6.59c4.63-.1,9.25-.19,13.88-.28v-.55Z" />
    <path class="cls-6"
      d="M103.85,7.01c.01-.06.02-.13.02-.22s-.05-.18-.15-.28c-.1-.1-.21-.15-.35-.15h-4.71c-.54,0-.87.25-1.01.74l-2.01,6.69c1.94-.05,3.87-.1,5.81-.15l2.39-6.63Z" />
    <path class="cls-6"
      d="M92.53,7.1c-.06-.18-.18-.35-.35-.5-.17-.16-.39-.23-.66-.23h-4.71c-.13,0-.25.05-.35.15-.1.1-.15.19-.15.28s0,.16.02.22l2.53,6.99c1.89-.06,3.78-.13,5.68-.18l-2.02-6.72Z" />
    <path class="cls-6"
      d="M147.11,10.68l.64,1.87c1.75-.06,3.51-.13,5.26-.21l-1.78-5.23c-.13-.49-.47-.74-1.01-.74h-6.21c-.54,0-.87.25-1.01.74l-1.93,5.67c1.8-.05,3.6-.11,5.39-.18l.65-1.91Z" />
    <path class="cls-7" d="M184.01,128.28v11.38h6.52v-11.38l1.94-8.18c-3.33.58-6.67,1.12-10.02,1.62l1.56,6.56Z" />
    <path class="cls-7" d="M115.4,139.66h14.28v-6.74h-7.25v-5.56c-2.34.12-4.69.23-7.03.33v11.97Z" />
    <path class="cls-7" d="M77.38,139.66h6.76v-10.92c-2.97.08-5.94.15-8.9.22l2.14,10.7Z" />
    <path class="cls-7" d="M86.89,139.66h6.68v-11.18c-2.23.07-4.45.13-6.68.19v11Z" />
    <path class="cls-7" d="M67.17,139.66h6.76v-10.67c-2.26.05-4.51.11-6.76.16v10.51Z" />
    <path class="cls-7"
      d="M171.08,128.56h-3.14l.37-4.94c-2.18.26-4.35.51-6.53.74l-1.48,15.3h6.72l.43-5.58h4.17l.49,5.58h6.54l-1.63-17.15c-2.13.29-4.25.57-6.38.84l.45,5.22Z" />
    <path class="cls-7"
      d="M106.15,131c0,.77-.12,1.4-.36,1.89-.24.48-.66.73-1.25.73-.52,0-.93-.2-1.21-.59-.28-.39-.42-1.07-.42-2.02v-2.82c-2.29.08-4.57.15-6.86.22v2.69c0,2.8.76,4.98,2.29,6.54,1.53,1.56,3.54,2.34,6.04,2.34,2.75,0,4.89-.68,6.42-2.05,1.53-1.37,2.3-3.57,2.3-6.61v-3.52c-2.32.1-4.64.19-6.95.28v2.93Z" />
    <path class="cls-7" d="M198.09,119.08l.61,11.17h4.28l.67-12.27c-1.85.38-3.71.75-5.56,1.1Z" />
    <path class="cls-7"
      d="M151.45,131.7c0,1.23-.64,1.85-1.91,1.85h-1.2v-7.91c-2.32.19-4.64.38-6.95.55v13.47h9.27c2.87,0,4.88-.89,6.02-2.67,1.15-1.78,1.72-4.31,1.72-7.58v-4.7c-2.32.23-4.63.45-6.96.66v6.33Z" />
    <path class="cls-6"
      d="M77.85,10.68l1.27,3.71c1.75-.08,3.5-.15,5.25-.22l-2.41-7.06c-.13-.49-.47-.74-1.01-.74h-6.21c-.54,0-.87.25-1.01.74l-2.63,7.71c1.81-.11,3.62-.21,5.43-.3l1.31-3.84Z" />
    <rect class="cls-4" x="197.33" y="133.79" width="7.03" height="5.85" />
    <rect class="cls-7" x="197.33" y="133.79" width="7.03" height="5.85" />
    <path class="cls-5"
      d="M231.09,52.87c-3.24-5.2-8.34-8.49-14.37-9.28-.25-.03-.49-.05-.74-.08-.82-.68-1.66-1.36-2.5-2.05-8.42-6.92-17.87-14.69-24.51-20.14h-6.11c5.87,4.82,17.19,14.1,27.38,22.47-8.62,1.71-14.26,8.98-17.01,13.5-3.73-5.37-12.14-14.69-24.37-12.44-5.94,1.1-10.8,4.63-13.69,9.94-2.23,4.1-3.14,8.96-2.69,13.43-3.81-1.48-8.26-2.1-12.27-2.1h-.08c-4.1,0-8.67.66-12.53,2.21.75-5.06-.45-10.84-3.34-15.46-3.24-5.2-8.34-8.49-14.37-9.28-12.33-1.61-20.11,8.13-23.49,13.69-3.74-5.37-12.14-14.69-24.37-12.44-5.48,1.01-10.04,4.1-12.98,8.74-1.21-1.26-7.45-7.77-14.5-15.15-.39,1.45-.63,2.94-.73,4.48,6.55,6.88,12.22,12.83,13.45,14.13-2.18,5.37-2.34,11.61-.32,16.51,7.33,17.73,29.18,31.86,37.21,36.6v-3.83h2.75v5.39c.1.06.17.09.21.11l1.13.6,1.09-.66c.27-.16,1.85-1.14,4.25-2.78v-2.67h3.72c8.58-6.35,21.8-17.65,27.93-30.85,2.64-2.69,8.36-4.47,14.89-4.48h.08c6.01,0,11.22,1.45,14.1,3.78,6.4,14.07,21.7,25.76,31.33,32.06l-.08-.5h3.44l-.39,2.38c3.02,1.87,5.05,2.96,5.36,3.12l.42.23,1.36-5.73h1.66l.25,4.51c4.72-3.04,19.4-13.12,29-26.3,3-4.1,5.5-8.51,7.05-13.1,1.92-5.67.9-12.96-2.6-18.57ZM182.11,39.82c-3.55-3.69-6.64-8.08-7.49-13.14-.32-1.75-.34-3.56-.13-5.36h-3.88c-1.38,8.33,1.4,15.49,7.66,22.12,2.47,2.51,6.18-1.02,3.84-3.62Z" />
    <path class="cls-3"
      d="M198.18,107.69c-.51,0-1.02-.12-1.49-.37l-.89-.47c-.66-.11-1.29-.34-1.87-.68-3.55-2.09-12.78-7.79-21.61-15.67l-.1-.09c-.84-.73-1.65-1.47-2.44-2.21,0,0-.07-.06-.08-.07-.78-.74-1.58-1.51-2.34-2.27-5.63-5.66-9.81-11.34-12.49-16.93-1.44-.96-3.54-1.73-6.03-2.19-.05,0-.1-.01-.15-.02-1.19-.21-2.42-.35-3.66-.42-.66-.03-1.2-.05-1.71-.05h-.08c-.86,0-1.76.04-2.67.12-.07.01-.15.02-.23.03-1.39.13-2.66.34-3.8.61-2.4.57-4.4,1.46-5.58,2.46-6.15,12.79-18.32,23.71-27.52,30.65l-.68.51c-.68.51-1.33.98-1.95,1.43l-.61.44c-1.36.97-2.7,1.88-3.99,2.73-1.18.77-1.94,1.24-2.12,1.34l-1.09.66c-.96.58-2.15.61-3.14.09l-.89-.47c-.66-.11-1.29-.34-1.87-.68-3.55-2.09-12.78-7.79-21.61-15.67-8.94-7.83-15.12-15.79-18.37-23.64-.18-.44-.36-.93-.54-1.48-.03-.1-.06-.2-.09-.3l-.02-.08c-.12-.4-.24-.81-.34-1.23l-.07-.28c-.35-1.55-.55-3.17-.59-4.81,0-.18,0-.37,0-.57v-.15s0-.13,0-.13c0-.12,0-.24,0-.36.05-2.56.47-5.14,1.24-7.58-2.59-2.72-7.99-8.4-13.83-14.53l-13.29-13.94c-4.39-4.59-6.58-6.86-7.65-7.97-.12.88-.16,1.75-.14,2.58.02.75.09,1.48.21,2.17.63,3.76,2.8,7.51,6.65,11.51.02.02.04.05.06.07,2.2,2.43,2.08,5.93-.28,8.16-2.36,2.22-5.87,2.14-8.17-.19-.56-.59-1.06-1.14-1.52-1.69-.48-.56-.93-1.13-1.36-1.68-2.22-2.91-3.84-5.96-4.83-9.06-.2-.64-.38-1.29-.54-1.94-.08-.33-.15-.65-.21-.99-.32-1.65-.47-3.36-.46-5.07.03-3.4.72-6.97,2.05-10.63.96-2.87,3.21-4.83,6.03-5.25,2.64-.4,5.36.59,7.45,2.71,0,0,0,0,0,0,.26.19.48.38.65.52.57.48,1.38,1.17,2.39,2.03.56.48.92,1.11,1.05,1.78,1.36,1.42,2.98,3.13,4.78,5.01l13.63,14.25c5.02,5.24,9.68,10.11,12.5,13.05,3.31-3.64,7.7-6.08,12.67-7,11.41-2.1,19.76,4.35,24.78,10.17,4.63-6.08,12.54-12.95,24.07-11.45,6.99.91,12.91,4.73,16.65,10.74,2.35,3.77,3.76,8.29,4,12.78,2.86-.66,6-1.02,9.16-1.02h.09c1.76,0,3.55.11,5.34.34l.38.05c.71.1,1.38.2,2.02.33.04,0,.08.01.12.02.4.08.8.16,1.19.25.26-3.6,1.27-7.19,2.87-10.23.33-.63.72-1.28,1.14-1.92,3.39-5.31,8.74-8.9,15.02-10.06,1.42-.26,2.8-.39,4.13-.41-1.22-1.72-2.23-3.48-3.03-5.25-.28-.62-.53-1.25-.76-1.88-.11-.32-.22-.64-.32-.95-1.84-5.78-1.56-12.05.84-18.63.47-1.41,1.27-2.64,2.32-3.54.09-.08.18-.15.27-.22.31-.25.68-.49,1.06-.69.68-.37,1.41-.62,2.16-.76.45-.08.85-.12,1.24-.13,2.24-.03,4.47.89,6.25,2.61.86.68,5.48,4.44,34.81,28.57,6.93.94,12.8,4.75,16.52,10.72h0c3.98,6.39,5.12,14.73,2.91,21.27-7.28,21.52-33.35,38.59-38.51,41.8,0,0,0,0-.01,0l-1.46.89c-.5.31-1.08.46-1.65.46ZM90.18,106.89h0,0ZM90.19,106.89s0,0,0,0c0,0,0,0,0,0ZM197.7,95.44l.6.36c1.44.85,1.96,2.65,1.24,4.12,6.44-4.22,28.2-19.54,34.25-37.42,1.63-4.81.73-11.04-2.29-15.88-2.72-4.37-7.02-7.14-12.09-7.81-.17-.02-.33-.04-.49-.05h-.14c-.63-.07-1.23-.32-1.72-.72-.3-.25-.6-.49-.9-.74-.44.85-1.24,1.48-2.21,1.67-7.53,1.5-12.58,8.18-14.92,12.03-.56.92-1.54,1.49-2.61,1.52-1.06.03-2.09-.48-2.7-1.36-3.47-4.98-10.82-13.04-21.19-11.13-4.6.85-8.35,3.36-10.85,7.27-.33.51-.61.98-.85,1.43-1.36,2.58-2.14,5.72-2.2,8.83v.38s0,.16,0,.16c0,.12,0,.25,0,.37.01.49.04.98.09,1.48.11,1.1-.36,2.18-1.23,2.85-.07.05-.14.1-.21.14.77.43,1.48.9,2.11,1.41.38.31.69.71.89,1.15,2.34,5.15,6.22,10.46,11.52,15.79.75.76,1.5,1.48,2.25,2.19.79.74,1.56,1.43,2.32,2.1.02.02.04.03.05.05l.08.07c3.56,3.18,7.18,5.98,10.44,8.31.06-.51.24-1.02.55-1.47.99-1.42,2.93-1.79,4.37-.82.56.37,1.1.74,1.63,1.08.06.04.12.08.19.12,0,0,0,0,0,0,0,0,.03.02.03.02,0,0,0,0,.01,0,.01,0,.02.01.03.02.01,0,.03.02.04.03.02.01.04.02.04.03.14.09.27.18.4.26.1.06.19.12.29.18.08.05.16.1.24.15.01,0,.03.02.04.03,0,0,0,0,0,0,0,0,0,0,.02,0,.02.01.03.02.05.03.4.26.79.5,1.16.73l.64.39s.01,0,.02.01l.03.02s.02.01.03.02c.02.01.04.02.06.04l.75.46s.02,0,.02.01c0,0,.02.01.03.02,0,0,.01,0,.02.01,0,0,.01,0,.02.01h0ZM91.18,95.64l.27.16c1.44.85,1.96,2.65,1.24,4.12,0,0,.01,0,.02-.01,1.22-.8,2.5-1.67,3.79-2.59l.58-.42c.59-.42,1.21-.88,1.86-1.36l.65-.49c8.76-6.61,20.35-16.98,25.86-28.83.15-.33.36-.63.62-.89.81-.82,1.81-1.57,2.97-2.23-.1-.06-.2-.13-.29-.2-.89-.69-1.35-1.8-1.2-2.92,0-.04.01-.1.02-.14l.02-.1c.04-.3.07-.58.09-.86l.02-.35c.01-.18.02-.36.03-.55,0-.13,0-.26,0-.39,0-.19,0-.39,0-.59v-.33c-.14-3.54-1.22-7.11-3.07-10.06-2.72-4.37-7.02-7.14-12.09-7.81-10.45-1.36-17.25,7.05-20.37,12.19-.56.92-1.54,1.49-2.61,1.52-1.05.03-2.09-.48-2.7-1.36-3.47-4.98-10.82-13.05-21.19-11.13-4.6.85-8.35,3.36-10.85,7.27,0,.02-.04.06-.05.07-.33.5-.8.9-1.34,1.15.11.59.05,1.2-.18,1.77-.92,2.26-1.43,4.77-1.48,7.27v.38s0,.17,0,.17c0,.13,0,.25,0,.38.03,1.23.18,2.43.44,3.57l.04.17c.08.32.16.61.25.9l.08.26c.13.39.25.72.37,1.01,2.87,6.94,8.49,14.11,16.71,21.31,3.56,3.17,7.18,5.98,10.43,8.31.05-.49.22-.98.52-1.42.97-1.46,2.94-1.85,4.4-.88,0,0,0,0,0,0l.51.34c.06.04.11.08.17.12.05.03.11.07.16.1l.75.49c.06.04.13.08.19.13.06.04.11.08.17.12.06.03.12.07.18.11l.64.41c.06.04.11.07.16.11.05.03.11.06.16.09,0,0,0,0,.02.01l.83.52s.06.04.09.06c.03.02.06.03.09.05l.67.41s.09.06.13.08c.03.02.06.03.09.05,0,0,.03.02.04.03l.56.34s.05.03.07.04c0,0,.02.01.02.02.03.02.06.03.09.05.01,0,.02.01.03.02l.31.18ZM140.03,63.23h0,0ZM188.11,36.99c3.26,1.99,5.96,4.55,8.07,6.99,2.5-3.26,6.09-6.92,10.79-9.25l-9.57-7.85c-.52-.1-1.02-.34-1.44-.69l-3.48-2.97c-.34-.29-.61-.65-.8-1.04l-1.86-1.53c-.37-.13-.73-.32-1.03-.58l-2.21-1.89c-.24-.21-.44-.44-.61-.7l-2.8-2.3c-.19-.1-.38-.23-.55-.38-.74-.63-1.35-1.15-1.8-1.53-.17,1.2-.21,2.36-.13,3.47.04.49.1.97.18,1.43.63,3.76,2.8,7.51,6.65,11.51.02.02.04.05.07.07,1.91,2.1,2.07,5.02.54,7.21ZM182.88,34.05h0s0,0,0,0ZM14,34.05h0,0ZM179.94,12.56s.02.02.03.03c-.01-.01-.03-.02-.03-.03Z" />
    <path class="cls-2"
      d="M52.36,45.89S13.65,5.5,14.6,6.38c-2.84-2.88-7-2.38-8.23,1.36-3.96,10.81-1.52,19.7,6.13,27.78,2.48,2.51,6.19-1.02,3.83-3.61-3.55-3.69-6.64-8.09-7.48-13.15-.42-2.33-.33-4.79.14-7.17.6-3.07,3.26-2.15,4.08-1.47.82.68,37.52,39.28,37.52,39.28l1.75-3.5Z" />
    <path class="cls-1"
      d="M29.25,21.76c-.87.88-1.58,1.87-2.15,2.95.63.66,1.27,1.33,1.91,2,.59-1.06,1.28-2.07,2.08-3.03-.61-.64-1.23-1.28-1.83-1.92Z" />
    <path class="cls-1"
      d="M35.56,28.35c-.8.9-1.57,1.85-2.29,2.83.63.66,1.26,1.32,1.89,1.98.64-1.02,1.36-2.01,2.14-2.99-.57-.6-1.15-1.21-1.74-1.81Z" />
    <path class="cls-1"
      d="M23.45,15.69c-.65,1.09-1.21,2.25-1.67,3.45.83.87,1.7,1.78,2.59,2.71.43-1.22.97-2.38,1.64-3.48-.88-.92-1.74-1.82-2.56-2.68Z" />
    <path class="cls-7"
      d="M14.6,6.38c-2.84-2.88-7-2.38-8.23,1.36-3.96,10.81-1.52,19.7,6.13,27.78,2.48,2.51,6.19-1.02,3.83-3.61-3.55-3.69-6.64-8.09-7.48-13.15-.42-2.33-.33-4.79.14-7.17.6-3.07,3.26-2.15,4.08-1.47.13.11,1.13.96,2.7,2.3.54-1.16,1.24-2.27,2.06-3.29-2.16-1.84-3.44-2.92-3.25-2.74Z" />
    <path class="cls-5"
      d="M50.61,50.1c-.19,0-.38-.08-.51-.22C37.51,36.64,13.48,11.4,12.63,10.65c-.33-.27-1.25-.68-1.95-.43-.49.17-.82.68-.98,1.5-.48,2.44-.53,4.77-.14,6.91.7,4.23,3.09,8.41,7.3,12.78,1.48,1.63,1.05,3.61-.13,4.73-1.18,1.11-3.18,1.43-4.71-.13C3.88,27.43,1.82,18.1,5.71,7.5c.6-1.84,1.94-3.13,3.66-3.54,1.94-.46,4.08.26,5.73,1.93.03.03.06.06.08.1,1.36,1.49,25.11,26.3,37.68,39.42.21.21.25.54.12.8l-1.75,3.5c-.1.21-.3.35-.53.38-.04,0-.07,0-.1,0ZM11.16,8.73c.97,0,1.89.44,2.37.84.79.65,30.88,32.28,36.89,38.61l1.08-2.16c-1.78-1.85-10.17-10.62-18.56-19.38-4.72-4.94-9.45-9.88-12.99-13.58-1.77-1.85-3.24-3.4-4.27-4.49-.52-.54-.92-.97-1.19-1.26-.13-.14-.25-.27-.35-.4,0,0,0,0,0,0h0s-.01-.02-.02-.03h0c-1.3-1.31-2.94-1.88-4.4-1.54-1.25.29-2.2,1.23-2.66,2.63-3.75,10.22-1.84,18.82,5.98,27.08.94.95,2.05.73,2.73.08.68-.65.97-1.74.07-2.74-4.4-4.57-6.9-8.99-7.66-13.51-.42-2.31-.37-4.81.15-7.43.33-1.67,1.21-2.31,1.89-2.56.32-.11.64-.16.96-.16Z" />
    <path class="cls-2"
      d="M235.85,49.39S182.53,5.5,183.48,6.38c-2.84-2.88-7-2.38-8.23,1.36-3.96,10.81-1.52,19.7,6.13,27.78,2.48,2.51,6.19-1.02,3.83-3.61-3.55-3.69-6.64-8.09-7.48-13.15-.42-2.33-.33-4.79.14-7.17.6-3.07,3.26-2.15,4.08-1.47.82.68,52.15,42.78,52.15,42.78l1.75-3.5Z" />
    <path class="cls-1"
      d="M190.47,12.31c-.64,1.15-1.27,2.3-1.85,3.47.7.6,1.44,1.23,2.21,1.88.51-1.19,1.14-2.34,1.88-3.44-.78-.66-1.53-1.31-2.25-1.92Z" />
    <path class="cls-1"
      d="M196.73,17.65c-.83.98-1.57,2.04-2.2,3.16,1.14.97,2.31,1.97,3.48,2.97.7-1.07,1.46-2.1,2.25-3.12-1.19-1.01-2.37-2.03-3.53-3.01Z" />
    <path class="cls-7"
      d="M183.48,6.38c-2.84-2.88-7-2.38-8.23,1.36-3.96,10.81-1.52,19.7,6.13,27.78,2.48,2.51,6.19-1.02,3.83-3.61-3.55-3.69-6.64-8.09-7.48-13.15-.42-2.33-.33-4.79.14-7.17.6-3.07,3.26-2.15,4.08-1.47.13.11,1.13.96,2.7,2.3.54-1.16,1.24-2.27,2.06-3.29-2.16-1.84-3.44-2.92-3.25-2.74Z" />
    <path class="cls-5"
      d="M234.11,53.6c-.16,0-.32-.06-.45-.16-.51-.42-51.34-42.11-52.15-42.78-.34-.28-1.25-.69-1.96-.44-.49.17-.82.68-.98,1.5-.48,2.44-.53,4.77-.14,6.91.7,4.23,3.09,8.41,7.3,12.78,1.48,1.63,1.05,3.61-.13,4.73-1.18,1.11-3.18,1.43-4.71-.13-8.13-8.59-10.18-17.91-6.29-28.52.6-1.84,1.94-3.13,3.66-3.54,1.94-.46,4.08.26,5.73,1.93.02.02.05.05.07.08.43.31,1.09.84,2.13,1.69,1.44,1.17,3.48,2.85,5.94,4.87,4.91,4.03,11.46,9.41,18.01,14.79,13.09,10.76,26.18,21.53,26.18,21.53.25.21.33.57.18.86l-1.75,3.5c-.1.19-.27.33-.48.37-.05.01-.1.02-.15.02ZM180.04,8.73c.97,0,1.89.44,2.37.84.76.62,45.36,37.22,51.46,42.22l1.1-2.21c-17.62-14.5-50.2-41.3-51.86-42.6-.04-.02-.08-.05-.11-.09,0,0-.02-.02-.03-.03-1.29-1.31-2.94-1.88-4.4-1.54-1.25.29-2.2,1.23-2.66,2.63-3.75,10.22-1.84,18.82,5.98,27.08.94.95,2.05.73,2.73.08.68-.65.97-1.74.07-2.74-4.4-4.57-6.9-8.99-7.66-13.51-.42-2.31-.37-4.81.15-7.43.33-1.67,1.21-2.31,1.89-2.56.32-.11.64-.16.96-.16Z" />
    <path class="cls-2"
      d="M125.04,70.41c-.36,0-.73-.08-1.08-.26-1.2-.6-1.7-2.06-1.1-3.27,3.17-6.38,12.6-8.68,20.36-8.69h.09c7.74,0,17.12,2.28,20.34,8.68.6,1.2.12,2.67-1.08,3.27-1.2.6-2.67.12-3.27-1.08-1.81-3.59-8.22-6-15.98-6h-.08c-7.68.02-14.26,2.48-16.01,5.99-.43.86-1.29,1.35-2.18,1.35Z" />
    <path class="cls-3"
      d="M136.38,58.81c-.21,1.7-.42,3.41-.59,5.11,1.32-.32,2.75-.54,4.24-.68.28-1.63.52-3.26.64-4.92-1.42.1-2.85.24-4.28.5Z" />
    <path class="cls-3"
      d="M146.3,58.31c-.39,1.57-.79,3.18-1.11,4.81,1.42.07,2.77.23,4.06.46.47-1.57.94-3.14,1.28-4.71-1.4-.27-2.82-.45-4.22-.56Z" />
    <path class="cls-5"
      d="M125.04,71.12c-.49,0-.96-.11-1.4-.33-1.55-.77-2.19-2.66-1.42-4.21,3.32-6.67,13.02-9.07,20.99-9.08h.09c7.93,0,17.61,2.38,20.97,9.07.78,1.55.15,3.44-1.4,4.22-1.55.77-3.44.15-4.22-1.4-1.69-3.36-7.86-5.61-15.35-5.61h-.08c-7.3.02-13.77,2.37-15.38,5.6-.53,1.08-1.61,1.74-2.81,1.74ZM143.22,58.9c-7.55.02-16.7,2.21-19.73,8.3-.42.85-.08,1.9.78,2.32.84.42,1.91.05,2.32-.78,1.89-3.8,8.57-6.36,16.64-6.38h.09c8.14,0,14.66,2.51,16.61,6.39.43.85,1.47,1.2,2.33.77.85-.43,1.2-1.47.77-2.32-3.08-6.12-12.2-8.3-19.71-8.3h-.09Z" />
    <path class="cls-7"
      d="M126.21,59.98c-.12.73-.28,1.44-.51,2.1-1.83,5.39-5.18,10.58-9.12,15.3-9.21,11.06-21.66,19.54-25.39,21.95-5.49-3.13-29.45-17.57-36.89-35.15-.04-.09-.09-.16-.12-.25-1.63-3.91-1.39-9.21.54-13.58.19-.45.4-.9.64-1.32,1.57-2.9,4.69-6.59,10.57-7.68.1-.02.22-.05.33-.06.84-.13,1.65-.19,2.45-.19,7.6,0,13.31,5.82,16.36,9.91,1.56,2.05,2.44,3.67,2.54,3.86,0,0,.61,1.2,1.98,1.2s2.1-1.35,2.1-1.35c.24-.52,4.72-10.19,12.95-13.56,2.29-.94,4.88-1.39,7.75-1.02,1.86.24,3.46.75,4.84,1.42,3.08,1.5,5.07,3.8,6.3,5.78,2.35,3.77,3.32,8.61,2.66,12.65Z" />
    <path class="cls-6"
      d="M126.21,59.98c-.12.73-.28,1.44-.51,2.1-1.83,5.39-5.18,10.58-9.12,15.3l-20.96,9.85c.01.1-7.02-.16-6.93-.39l-34.39-22.66c-.04-.09-.09-.16-.12-.25-1.63-3.91-1.39-9.21.54-13.58l32.99,33.23c-4.91-9.7-16.33-32.22-21.45-42.29.84-.13,1.65-.19,2.45-.19,7.6,0,13.31,5.82,16.36,9.91,2.53,12.59,5.85,28.7,7.1,34.72h.36c2.31-8.62,8.86-32.71,12.11-44.57,2.29-.94,4.88-1.39,7.75-1.02,1.86.24,3.46.75,4.84,1.42-6.18,11.72-17.41,33.32-22.28,42.69l31.24-24.27Z" />
    <path class="cls-3"
      d="M100.05,73.62c1.85-.47,2.45-1.92,2.45-1.92,0,0,4.07,1.01,6.73-1.71,2.66-2.72,1.68-7.26-2.82-12.72-2.73-3.3-7.79-4.54-15.7-4.54-6.19,0-10.8,1.83-13.71,4.14-6.94,5.51-5.69,13.34-1.51,14.69,1.47.47,4.92.13,4.92.13,0,0,.69,1.9,4.14,2.19,1.56.13,3.14-.51,4.36-1.2.02,1.27.05,2.86.07,4.49-3.65.15-8.6.43-8.01,1.77.3.67,3.97,1.04,8.03,1.16.01,2.79-.02,5.12-.16,5.35-.36.6-1.28-1.57-2.84-2-1.9-.52-4.18.19-4.7,1.74-.24.71-.11,1.24.2,1.62l-8.26.16c7.69,6.29,15.17,10.76,17.95,12.34,2.64-1.71,9.66-6.46,16.81-13.02l-6.91.13c.07-.94-.27-2.39-2.04-3.16-2.15-.94-5.11,2.19-5.11,2.19-.24-.33-.3-2.61-.28-5.32,3.27-.05,6.02-.26,6.53-.6,1.21-.79,1.36-2.43-6.48-2.48.03-1.56.08-3.08.12-4.31,1.73.76,4.03,1.41,6.21.86Z" />
    <path class="cls-4"
      d="M89.84,103.74c-.39,0-.78-.1-1.14-.31-7.18-4.21-31.19-19.44-38.82-38.43-2.08-5.18-1.55-12.31,1.31-17.73,1.85-3.51,5.51-7.96,12.4-9.28,1.08-.21,2.18-.31,3.26-.31,13.04,0,20.98,15.03,21.36,15.76,0-.02.08-.1.14-.18.92-2.02,8.94-18.51,23.47-16.56,7.01.94,10.96,5.24,13.04,8.67,3.18,5.25,4.16,12.3,2.43,17.55-6.36,19.36-29.32,35.85-36.21,40.45-.38.25-.81.38-1.25.38ZM66.86,42.41c-.8,0-1.62.08-2.42.23-5.12.97-7.83,4.28-9.21,6.89-2.21,4.18-2.66,9.79-1.1,13.67,6.77,16.86,28.79,31.24,35.64,35.4,6.57-4.52,27.55-20.04,33.18-37.2,1.29-3.92.47-9.48-1.98-13.53-1.56-2.57-4.51-5.78-9.74-6.48-11.8-1.58-18.49,13.35-18.77,13.99-.03.06-.06.13-.09.19-.66,1.21-2.15,2.62-4.16,2.62s-3.46-1.37-4.06-2.54c-.06-.11-6.95-13.23-17.3-13.23Z" />
    <path class="cls-5"
      d="M103.7,85.62l-1.65.03c.07-.48.06-1.06-.2-1.63-.39-.85-1.19-1.43-2.39-1.73-2.04-.5-3.7.4-4.77,1.3v-1.87c-.02-.41-.35-.74-.76-.74h0c-.41,0-.75.34-.74.75l.03,3.74c0,.33.22.61.53.71.31.09.65-.02.84-.29.02-.03,1.96-2.77,4.53-2.14.73.18,1.2.48,1.38.89.29.64-.1,1.44-.11,1.44-.12.23-.11.52.03.74.14.22.38.35.64.35h.01l2.68-.05c.41,0,.74-.35.73-.76,0-.41-.31-.73-.76-.73Z" />
    <path class="cls-5"
      d="M96.46,87.15c-1.24.22-2.19.85-2.84,1.46-.34-1.13-1.04-2.21-2.35-2.36-1.29-.15-2,.62-2.42,1.35-.52-.55-1.29-1.07-2.37-1.23-.9,0-1.65.3-2.23.88-.12.12-.22.26-.32.39-.69-.15-1.76-.51-2.16-1.15-.12-.2-.27-.53-.07-1.12.37-1.1,2.44-1.8,4.03-1.36,1.08.3,2.18,1.48,2.52,1.91.2.25.54.35.83.25.3-.1.51-.39.51-.71v-2.85c0-.41-.33-.75-.75-.75s-.75.33-.75.75v1.04c-.55-.45-1.23-.88-1.96-1.09-2.14-.59-5.16.3-5.84,2.33-.29.87-.21,1.7.22,2.39.65,1.02,1.92,1.51,2.8,1.74-.19.72-.19,1.31-.19,1.35,0,.41.34.74.75.74h0c.41,0,.74-.34.74-.75,0-.38.12-1.48.71-2.07.29-.29.67-.44,1.05-.44,1.16.17,1.73,1.13,1.83,1.45.1.3.43.58.75.59.55-.03.76-.5.88-.83.33-.9.65-1.4,1.26-1.33,1.2.14,1.29,2.63,1.29,2.66,0,.34.24.63.57.71.33.08.67-.07.84-.36,0-.02,1.01-1.78,2.93-2.12,1.54-.27,1.96.84,2.03,1.06.11.4.52.63.92.52.4-.11.63-.52.52-.92-.26-.92-1.37-2.55-3.73-2.14Z" />
    <path class="cls-5"
      d="M76.1,58.28c.18,0,.36-.06.5-.19,3.16-2.87,7.19-3.71,7.33-3.75.06-.02,5.67-1.99,13.29-.48.41.08.8-.18.88-.59.08-.41-.18-.8-.59-.88-8.05-1.59-13.85.46-13.98.51-.18.04-4.46.92-7.94,4.08-.31.28-.33.75-.05,1.06.15.16.35.25.55.25Z" />
    <path class="cls-5"
      d="M106.13,55.83c-.31-.27-.78-.24-1.06.07-.27.31-.24.78.07,1.06.69.6,1.37,1.32,1.96,2.07.15.19.37.28.59.28.16,0,.33-.05.46-.16.32-.26.38-.73.12-1.05-.65-.82-1.4-1.61-2.15-2.27Z" />
    <path class="cls-5"
      d="M109.97,60.68c-.19-.37-.64-.51-1.01-.32-.37.19-.51.64-.32,1.01.94,1.81,1.38,3.64,1.29,5.45-.02.41.3.76.71.78.01,0,.02,0,.04,0,.4,0,.73-.31.75-.71.1-2.07-.39-4.16-1.46-6.21Z" />
    <path class="cls-5"
      d="M105.94,70.96c-.58.09-1.14.12-1.63.12,1.07-1.23,2.1-2.85,2.04-4.51-.05-1.41-.83-2.61-2.33-3.56-1.11-.7-2.27-.76-3.28-.15-1.5.9-2.28,3.03-2.16,4.56.08,1.05.55,1.8,1.33,2.12,1.6.65,2.59.06,3.04-.35.6-.55.93-1.4.75-1.98-.12-.4-.55-.67-.94-.55-.4.12-.63.49-.51.88,0,.08-.12.44-.44.64-.33.21-.78.2-1.34-.03-.31-.13-.38-.63-.4-.84-.08-1.04.49-2.6,1.44-3.16.52-.31,1.08-.27,1.7.13,1.07.68,1.61,1.45,1.64,2.35.05,1.53-1.35,3.24-2.55,4.38-.1.11-.61.54-.93.82-.08.06-.16.13-.23.18-.64.49-1.73,1.05-3.41,1.05h-.03c-3.02-.01-5.69-2.47-5.8-2.57-.3-.32-1.05-1.33-.99-2.24.03-.45.25-.83.68-1.18.32-.26.37-.73.11-1.05-.26-.32-.73-.37-1.05-.11-.75.61-1.18,1.39-1.24,2.25-.07,1.09.46,2.09.89,2.72-.07.04-.13.08-.18.14l-.95.71s-2.23,1.41-4.65,1.44c-.88-.01-1.59-.29-2.15-.64-.51-.45-2.48-2.29-2.45-4.17.01-.87.46-1.63,1.38-2.33.87-.66,1.34-.4,1.5-.31.73.41,1.27,1.77,1.15,2.92-.03.26-.13.88-.53,1-.39.13-.61.55-.48.94.13.39.54.61.94.48.87-.28,1.44-1.11,1.56-2.28.15-1.54-.52-3.6-1.91-4.37-.55-.31-1.7-.67-3.14.43-1.29.98-1.95,2.16-1.97,3.51-.01,1.04.38,2.03.89,2.88-1.27.26-3.69.54-5.2-.7-1.15-.95-1.59-2.69-1.29-5.17.05-.41-.24-.78-.65-.83-.42-.05-.78.24-.83.65-.36,3.02.26,5.21,1.83,6.5,2.23,1.83,5.65,1.22,6.94.9.63.72,2.12,2.08,4.37,2.08h.05c1.36-.01,2.62-.38,3.6-.77-.04.09-.06.18-.06.29v2.04c-2.23.1-6.82.47-7.72,1.89-.23.36-.26.77-.09,1.16.22.49.78.72,1.25.86,1.77.53,6.35.8,10.6.8,4.02,0,7.73-.24,8.48-.73,1.08-.7,1.06-1.43.95-1.8-.26-.87-1.29-1.68-6.86-1.74v-1.23c0-.41-.33-.75-.75-.75s-.75.33-.75.75v1.98c0,.2.08.39.22.53.14.14.33.22.53.22h.05c4.28,0,5.61.43,6.01.64-.05.04-.11.09-.19.14-1.41.7-15.11.72-17.89-.22.87-.42,3.41-.94,6.93-1.02.41-.01.73-.34.73-.75v-2.77c0-.33-.21-.6-.5-.7.42-.21.71-.37.85-.46v4.38c0,.41.33.75.75.75s.75-.33.75-.75v-5.35c1.06.85,3.48,2.51,6.28,2.52,2-.02,3.38-.67,4.25-1.3.01,0,.03,0,.04-.01.05-.04.41-.3.89-.73.68.07,1.93.15,3.29-.07.41-.07.68-.45.62-.86-.07-.41-.45-.68-.86-.62Z" />
    <path class="cls-5"
      d="M79.18,86.1h-.01l-1.26.02c-.41,0-.74.35-.73.76,0,.41.34.73.75.73h.01l1.26-.02c.41,0,.74-.35.73-.76,0-.41-.34-.73-.75-.73Z" />
    <path class="cls-2"
      d="M91.34,104.51l-1.13-.6c-1.27-.68-31.32-16.86-40.17-38.28-2.31-5.59-1.77-12.96,1.39-18.77,2.89-5.32,7.75-8.85,13.7-9.94,12.23-2.25,20.63,7.07,24.37,12.44,3.38-5.56,11.16-15.3,23.49-13.69,6.03.79,11.13,4.08,14.37,9.27,3.5,5.61,4.52,12.9,2.6,18.57-7.4,21.85-36.3,39.59-37.53,40.33l-1.09.66ZM68.72,41.08c-.9,0-1.83.08-2.78.26-5.88,1.08-8.99,4.77-10.57,7.67-2.5,4.59-2.97,10.58-1.18,14.91,7.32,17.69,31.48,32.25,37,35.4,5.31-3.44,28.41-19.22,34.51-37.24,1.48-4.38.61-10.31-2.16-14.76-1.78-2.85-5.15-6.41-11.14-7.2-13.16-1.71-20.39,13.92-20.7,14.59,0,0-.76,1.35-2.11,1.35s-1.98-1.2-1.98-1.2c-.33-.61-7.48-13.77-18.91-13.77Z" />
    <path class="cls-1"
      d="M125.71,62.08c-6.1,18.02-29.2,33.8-34.51,37.24-4-2.28-17.75-10.54-27.83-21.63-1.77.28-3.54.54-5.31.76,12.29,14.76,31.15,24.92,32.16,25.46l1.13.6,1.09-.66c1.23-.74,30.13-18.48,37.53-40.33.73-2.15,1.03-4.53.94-6.96-1.5.64-3,1.27-4.51,1.89-.08,1.28-.3,2.5-.68,3.63Z" />
    <path class="cls-3"
      d="M62.63,42.35c-.31-1.5-.6-2.99-.91-4.46-1.68.62-3.23,1.46-4.65,2.5.67,1.4,1.35,2.77,2,4.12,1-.82,2.18-1.57,3.57-2.16Z" />
    <path class="cls-3"
      d="M54.53,50.8c-1.18-1.1-2.32-2.2-3.37-3.37-1.05,2.07-1.77,4.32-2.17,6.61,1.35.93,2.75,1.85,4.18,2.79.13-2.04.58-4.12,1.36-6.03Z" />
    <path class="cls-3"
      d="M54.19,63.92c-.43-1.03-.72-2.15-.88-3.33-1.54-.21-3.08-.39-4.59-.62.17,2,.6,3.92,1.33,5.67.28.69.59,1.37.92,2.05,1.34-.65,2.7-1.28,4.11-1.83-.31-.64-.61-1.28-.88-1.93Z" />
    <path class="cls-3"
      d="M95.86,48.13c-.75-1.4-1.58-2.79-2.35-4.22-.96,1.08-1.79,2.16-2.52,3.19.71,1.63,1.45,3.2,2.3,4.71.66-1.08,1.51-2.35,2.57-3.67Z" />
    <path class="cls-3"
      d="M102.19,37.28c-1.51.68-2.91,1.51-4.18,2.46.82,1.26,1.73,2.49,2.6,3.73,1.26-.94,2.64-1.75,4.15-2.35-.81-1.28-1.66-2.57-2.57-3.83Z" />
    <path class="cls-3"
      d="M112.99,35.67c-1.6-.21-3.12-.22-4.56-.08.63,1.52,1.29,3.01,2.05,4.41.63,0,1.27.03,1.93.12,2.21.29,4.06.96,5.61,1.83-.24-1.76-.49-3.51-.81-5.27-1.34-.48-2.75-.83-4.22-1.02Z" />
    <path class="cls-5"
      d="M91.34,105.22c-.11,0-.23-.03-.33-.08l-1.13-.6c-1.28-.68-31.54-16.98-40.49-38.63-2.39-5.78-1.84-13.39,1.42-19.37,2.99-5.51,8.03-9.17,14.19-10.3,11.89-2.19,20.23,6.11,24.46,11.87,3.84-5.97,11.61-14.7,23.62-13.12,6.24.81,11.53,4.22,14.88,9.6,3.6,5.78,4.65,13.31,2.67,19.17-7.47,22.08-36.59,39.96-37.83,40.71l-1.09.66c-.11.07-.24.1-.37.1ZM68.84,37.28c-1.16,0-2.35.11-3.59.33-5.73,1.06-10.42,4.46-13.21,9.59-3.06,5.63-3.59,12.76-1.36,18.16,8.77,21.19,38.59,37.25,39.85,37.92l.77.41.75-.45c1.22-.74,29.91-18.36,37.22-39.96,1.85-5.48.86-12.53-2.53-17.97-3.12-5.01-8.05-8.19-13.86-8.95-11.83-1.54-19.37,7.71-22.8,13.36-.12.2-.34.33-.58.34-.25,0-.46-.11-.6-.3-3.4-4.89-10.27-12.48-20.08-12.48ZM91.2,100.02c-.12,0-.24-.03-.35-.09-4.92-2.81-29.85-17.71-37.31-35.74-1.87-4.51-1.38-10.75,1.21-15.51,1.65-3.04,4.91-6.89,11.06-8.03.97-.18,1.94-.27,2.91-.27,11.88,0,19.22,13.57,19.53,14.15.02.03.46.83,1.35.83s1.49-.98,1.49-.99c.28-.63,7.71-16.72,21.4-14.94,6.26.82,9.79,4.54,11.65,7.52,2.88,4.62,3.77,10.79,2.23,15.36-6.22,18.37-30.07,34.55-34.79,37.61-.12.08-.25.11-.38.11ZM68.72,41.79c-.88,0-1.77.08-2.65.25-5.6,1.03-8.57,4.55-10.08,7.32-2.4,4.41-2.86,10.16-1.15,14.3,7.11,17.19,30.71,31.6,36.33,34.84,5.39-3.53,27.94-19.13,33.87-36.64,1.42-4.19.58-9.88-2.09-14.16-1.7-2.72-4.92-6.12-10.63-6.87-12.68-1.65-19.67,13.53-19.96,14.18-.07.13-1.01,1.76-2.75,1.76s-2.57-1.52-2.6-1.58c-.29-.54-7.25-13.39-18.28-13.39Z" />
    <path class="cls-7"
      d="M233.05,59.98c-.12.73-.28,1.44-.51,2.1-1.83,5.39-5.18,10.58-9.12,15.3-9.21,11.06-21.66,19.54-25.39,21.95-5.49-3.13-29.45-17.57-36.89-35.15-.04-.09-.09-.16-.12-.25-1.63-3.91-1.39-9.21.54-13.58.19-.45.4-.9.64-1.32,1.57-2.9,4.69-6.59,10.57-7.68.1-.02.22-.05.33-.06.84-.13,1.65-.19,2.45-.19,7.6,0,13.31,5.82,16.36,9.91,1.56,2.05,2.44,3.67,2.54,3.86,0,0,.61,1.2,1.98,1.2s2.1-1.35,2.1-1.35c.24-.52,4.72-10.19,12.95-13.56,2.29-.94,4.88-1.39,7.75-1.02,1.86.24,3.46.75,4.84,1.42,3.08,1.5,5.07,3.8,6.3,5.78,2.35,3.77,3.32,8.61,2.66,12.65Z" />
    <path class="cls-6"
      d="M233.05,59.98c-.12.73-.28,1.44-.51,2.1-1.83,5.39-5.18,10.58-9.12,15.3l-20.96,9.85c.01.1-7.02-.16-6.93-.39l-34.39-22.66c-.04-.09-.09-.16-.12-.25-1.63-3.91-1.39-9.21.54-13.58l32.99,33.23c-4.91-9.7-16.33-32.22-21.45-42.29.84-.13,1.65-.19,2.45-.19,7.6,0,13.31,5.82,16.36,9.91,2.53,12.59,5.85,28.7,7.1,34.72h.36c2.31-8.62,8.86-32.71,12.11-44.57,2.29-.94,4.88-1.39,7.75-1.02,1.86.24,3.46.75,4.84,1.42-6.18,11.72-17.41,33.32-22.28,42.69l31.24-24.27Z" />
    <path class="cls-3"
      d="M206.89,73.62c1.85-.47,2.45-1.92,2.45-1.92,0,0,4.07,1.01,6.73-1.71,2.66-2.72,1.68-7.26-2.82-12.72-2.73-3.3-7.79-4.54-15.7-4.54-6.19,0-10.8,1.83-13.71,4.14-6.94,5.51-5.69,13.34-1.51,14.69,1.47.47,4.92.13,4.92.13,0,0,.69,1.9,4.14,2.19,1.56.13,3.14-.51,4.36-1.2.02,1.27.05,2.86.07,4.49-3.65.15-8.6.43-8.01,1.77.3.67,3.97,1.04,8.03,1.16.01,2.79-.02,5.12-.16,5.35-.36.6-1.28-1.57-2.84-2-1.9-.52-4.18.19-4.7,1.74-.24.71-.11,1.24.2,1.62l-8.26.16c7.69,6.29,15.17,10.76,17.95,12.34,2.64-1.71,9.66-6.46,16.81-13.02l-6.91.13c.07-.94-.27-2.39-2.04-3.16-2.15-.94-5.11,2.19-5.11,2.19-.24-.33-.3-2.61-.28-5.32,3.27-.05,6.02-.26,6.53-.6,1.21-.79,1.36-2.43-6.48-2.48.03-1.56.08-3.08.12-4.31,1.73.76,4.03,1.41,6.21.86Z" />
    <path class="cls-4"
      d="M196.68,103.74c-.39,0-.78-.1-1.14-.31-7.18-4.21-31.19-19.44-38.82-38.43-2.08-5.18-1.55-12.31,1.31-17.73,1.85-3.51,5.51-7.96,12.4-9.28,1.08-.21,2.18-.31,3.26-.31,13.04,0,20.98,15.03,21.36,15.76,0-.02.08-.1.14-.18.92-2.02,8.94-18.51,23.47-16.56,7.01.94,10.96,5.24,13.04,8.67,3.18,5.25,4.16,12.3,2.43,17.55-6.36,19.36-29.32,35.85-36.21,40.45-.38.25-.81.38-1.25.38ZM173.7,42.41c-.8,0-1.62.08-2.42.23-5.12.97-7.83,4.28-9.21,6.89-2.21,4.18-2.66,9.79-1.1,13.67,6.77,16.86,28.79,31.24,35.64,35.4,6.57-4.52,27.55-20.04,33.18-37.2,1.29-3.92.47-9.48-1.98-13.53-1.56-2.57-4.51-5.78-9.74-6.48-11.8-1.58-18.49,13.35-18.77,13.99-.03.06-.06.13-.09.19-.66,1.21-2.15,2.62-4.16,2.62s-3.46-1.37-4.06-2.54c-.06-.11-6.95-13.23-17.3-13.23Z" />
    <path class="cls-5"
      d="M210.54,85.62l-1.65.03c.07-.48.06-1.06-.2-1.63-.39-.85-1.19-1.43-2.39-1.73-2.04-.5-3.7.4-4.77,1.3v-1.87c-.02-.41-.35-.74-.76-.74h0c-.41,0-.75.34-.74.75l.03,3.74c0,.33.22.61.53.71.31.09.65-.02.84-.29.02-.03,1.96-2.77,4.53-2.14.73.18,1.2.48,1.38.89.29.64-.1,1.44-.11,1.44-.12.23-.11.52.03.74.14.22.38.35.64.35h.01l2.68-.05c.41,0,.74-.35.73-.76,0-.41-.31-.73-.76-.73Z" />
    <path class="cls-5"
      d="M203.31,87.15c-1.24.22-2.19.85-2.84,1.46-.34-1.13-1.04-2.21-2.35-2.36-1.29-.15-2,.62-2.42,1.35-.52-.55-1.29-1.07-2.37-1.23-.9,0-1.65.3-2.23.88-.12.12-.22.26-.32.39-.69-.15-1.76-.51-2.16-1.15-.12-.2-.27-.53-.07-1.12.37-1.1,2.44-1.8,4.03-1.36,1.08.3,2.18,1.48,2.52,1.91.2.25.54.35.83.25.3-.1.51-.39.51-.71v-2.85c0-.41-.33-.75-.75-.75s-.75.33-.75.75v1.04c-.55-.45-1.23-.88-1.96-1.09-2.14-.59-5.16.3-5.84,2.33-.29.87-.21,1.7.22,2.39.65,1.02,1.92,1.51,2.8,1.74-.19.72-.19,1.31-.19,1.35,0,.41.34.74.75.74h0c.41,0,.74-.34.74-.75,0-.38.12-1.48.71-2.07.29-.29.67-.44,1.05-.44,1.16.17,1.73,1.13,1.83,1.45.1.3.43.58.75.59.55-.03.76-.5.88-.83.33-.9.65-1.4,1.26-1.33,1.2.14,1.29,2.63,1.29,2.66,0,.34.24.63.57.71.33.08.67-.07.84-.36,0-.02,1.01-1.78,2.93-2.12,1.54-.27,1.96.84,2.03,1.06.11.4.52.63.92.52.4-.11.63-.52.52-.92-.26-.92-1.37-2.55-3.73-2.14Z" />
    <path class="cls-5"
      d="M182.94,58.28c.18,0,.36-.06.5-.19,3.16-2.87,7.19-3.71,7.33-3.75.06-.02,5.67-1.99,13.29-.48.41.08.8-.18.88-.59.08-.41-.18-.8-.59-.88-8.05-1.59-13.85.46-13.98.51-.18.04-4.46.92-7.94,4.08-.31.28-.33.75-.05,1.06.15.16.35.25.55.25Z" />
    <path class="cls-5"
      d="M212.97,55.83c-.31-.27-.79-.24-1.06.07-.27.31-.24.78.07,1.06.69.6,1.37,1.32,1.96,2.07.15.19.37.28.59.28.16,0,.33-.05.46-.16.32-.26.38-.73.12-1.05-.65-.82-1.4-1.61-2.15-2.27Z" />
    <path class="cls-5"
      d="M216.82,60.68c-.19-.37-.64-.51-1.01-.32-.37.19-.51.64-.32,1.01.94,1.81,1.38,3.64,1.29,5.45-.02.41.3.76.71.78.01,0,.02,0,.04,0,.4,0,.73-.31.75-.71.1-2.07-.39-4.16-1.46-6.21Z" />
    <path class="cls-5"
      d="M212.78,70.96c-.58.09-1.14.12-1.63.12,1.07-1.23,2.1-2.85,2.04-4.51-.05-1.41-.83-2.61-2.33-3.56-1.11-.7-2.27-.76-3.28-.15-1.5.9-2.28,3.03-2.16,4.56.08,1.05.55,1.8,1.33,2.12,1.6.65,2.59.06,3.04-.35.6-.55.93-1.4.75-1.98-.12-.4-.55-.67-.94-.55-.4.12-.63.49-.51.88,0,.08-.12.44-.44.64-.33.21-.78.2-1.34-.03-.31-.13-.38-.63-.4-.84-.08-1.04.49-2.6,1.44-3.16.52-.31,1.08-.27,1.7.13,1.07.68,1.61,1.45,1.64,2.35.05,1.53-1.35,3.24-2.55,4.38-.1.11-.61.54-.93.82-.08.06-.16.13-.23.18-.64.49-1.73,1.05-3.41,1.05h-.03c-3.02-.01-5.69-2.47-5.8-2.57-.3-.32-1.05-1.33-.99-2.24.03-.45.25-.83.68-1.18.32-.26.37-.73.11-1.05-.26-.32-.73-.37-1.05-.11-.75.61-1.18,1.39-1.24,2.25-.07,1.09.46,2.09.89,2.72-.07.04-.13.08-.18.14l-.95.71s-2.23,1.41-4.65,1.44c-.88-.01-1.59-.29-2.15-.64-.51-.45-2.48-2.29-2.45-4.17.01-.87.46-1.63,1.38-2.33.87-.66,1.34-.4,1.5-.31.73.41,1.27,1.77,1.15,2.92-.03.26-.13.88-.53,1-.39.13-.61.55-.48.94.13.39.54.61.94.48.87-.28,1.44-1.11,1.56-2.28.15-1.54-.52-3.6-1.91-4.37-.55-.31-1.7-.67-3.14.43-1.29.98-1.95,2.16-1.97,3.51-.01,1.04.38,2.03.89,2.88-1.27.26-3.69.54-5.2-.7-1.15-.95-1.59-2.69-1.29-5.17.05-.41-.24-.78-.65-.83-.42-.05-.78.24-.83.65-.36,3.02.26,5.21,1.83,6.5,2.23,1.83,5.65,1.22,6.94.9.63.72,2.12,2.08,4.37,2.08h.05c1.36-.01,2.62-.38,3.6-.77-.04.09-.06.18-.06.29v2.04c-2.23.1-6.82.47-7.72,1.89-.23.36-.26.77-.09,1.16.22.49.78.72,1.25.86,1.77.53,6.35.8,10.6.8,4.02,0,7.73-.24,8.48-.73,1.08-.7,1.06-1.43.95-1.8-.26-.87-1.29-1.68-6.86-1.74v-1.23c0-.41-.33-.75-.75-.75s-.75.33-.75.75v1.98c0,.2.08.39.22.53.14.14.33.22.53.22h.05c4.28,0,5.61.43,6.01.64-.05.04-.11.09-.19.14-1.41.7-15.11.72-17.89-.22.87-.42,3.41-.94,6.93-1.02.41-.01.73-.34.73-.75v-2.77c0-.33-.21-.6-.5-.7.42-.21.71-.37.85-.46v4.38c0,.41.33.75.75.75s.75-.33.75-.75v-5.35c1.06.85,3.48,2.51,6.28,2.52,2-.02,3.38-.67,4.25-1.3.01,0,.03,0,.04-.01.05-.04.41-.3.89-.73.68.07,1.93.15,3.29-.07.41-.07.68-.45.62-.86-.07-.41-.45-.68-.86-.62Z" />
    <path class="cls-5"
      d="M186.02,86.1h-.01l-1.26.02c-.41,0-.74.35-.73.76,0,.41.34.73.75.73h.01l1.26-.02c.41,0,.74-.35.73-.76,0-.41-.34-.73-.75-.73Z" />
    <path class="cls-2"
      d="M198.18,104.51l-1.13-.6c-1.27-.68-31.32-16.86-40.17-38.28-2.31-5.59-1.77-12.96,1.39-18.77,2.89-5.32,7.75-8.85,13.7-9.94,12.23-2.25,20.63,7.07,24.37,12.44,3.38-5.56,11.16-15.3,23.49-13.69,6.03.79,11.13,4.08,14.37,9.27,3.5,5.61,4.52,12.9,2.6,18.57-7.4,21.85-36.3,39.59-37.53,40.33l-1.09.66ZM175.56,41.08c-.9,0-1.83.08-2.78.26-5.88,1.08-8.99,4.77-10.57,7.67-2.5,4.59-2.97,10.58-1.18,14.91,7.32,17.69,31.48,32.25,37,35.4,5.31-3.44,28.41-19.22,34.51-37.24,1.48-4.38.61-10.31-2.16-14.76-1.78-2.85-5.15-6.41-11.14-7.2-13.16-1.71-20.39,13.92-20.7,14.59,0,0-.76,1.35-2.11,1.35s-1.98-1.2-1.98-1.2c-.33-.61-7.48-13.77-18.91-13.77Z" />
    <path class="cls-1"
      d="M230.06,67.73c-8.33,15.57-27.27,28.51-32.02,31.58-3.45-1.97-14.2-8.4-23.56-17.27-2.01.07-4.02.18-6.03.38,12.07,12.59,27.69,21,28.6,21.49l1.13.6,1.09-.66c1.22-.74,29.88-18.32,37.42-40.05-2.19,1.35-4.4,2.65-6.64,3.93Z" />
    <path class="cls-3"
      d="M169.48,42.35c-.31-1.5-.6-2.99-.91-4.46-1.68.62-3.23,1.46-4.65,2.5.67,1.4,1.35,2.77,2,4.12,1-.82,2.18-1.57,3.57-2.16Z" />
    <path class="cls-3"
      d="M161.37,50.8c-1.18-1.1-2.32-2.2-3.37-3.37-1.05,2.07-1.77,4.32-2.17,6.61,1.35.93,2.75,1.85,4.18,2.79.13-2.04.58-4.12,1.36-6.03Z" />
    <path class="cls-3"
      d="M161.03,63.92c-.43-1.03-.72-2.15-.88-3.33-1.54-.21-3.08-.39-4.59-.62.17,2,.6,3.92,1.33,5.67.29.69.59,1.37.92,2.05,1.34-.65,2.7-1.28,4.11-1.83-.31-.64-.61-1.28-.88-1.93Z" />
    <path class="cls-3"
      d="M202.71,48.13c-.75-1.4-1.58-2.79-2.35-4.22-.96,1.08-1.79,2.16-2.52,3.19.71,1.63,1.45,3.2,2.3,4.71.66-1.08,1.51-2.35,2.57-3.67Z" />
    <path class="cls-3"
      d="M209.04,37.28c-1.51.68-2.91,1.51-4.18,2.46.82,1.26,1.73,2.49,2.6,3.73,1.26-.94,2.64-1.75,4.15-2.35-.81-1.28-1.66-2.57-2.57-3.83Z" />
    <path class="cls-3"
      d="M219.83,35.67c-1.6-.21-3.12-.22-4.56-.08.63,1.52,1.29,3.01,2.05,4.41.63,0,1.27.03,1.93.12,2.21.29,4.06.96,5.61,1.83-.24-1.76-.49-3.51-.81-5.27-1.34-.48-2.75-.83-4.22-1.02Z" />
    <path class="cls-5"
      d="M198.18,105.22c-.11,0-.23-.03-.33-.08l-1.13-.6c-1.28-.68-31.54-16.98-40.49-38.63-2.39-5.78-1.84-13.39,1.42-19.37,2.99-5.51,8.03-9.17,14.19-10.3,11.89-2.19,20.23,6.11,24.46,11.87,3.84-5.97,11.62-14.69,23.62-13.12,6.24.81,11.53,4.22,14.88,9.6,3.6,5.78,4.65,13.31,2.67,19.17-7.47,22.08-36.59,39.96-37.83,40.71l-1.09.66c-.11.07-.24.1-.37.1ZM175.68,37.28c-1.16,0-2.35.11-3.59.33-5.73,1.06-10.42,4.46-13.21,9.59-3.06,5.63-3.59,12.76-1.36,18.16,8.77,21.19,38.59,37.25,39.85,37.92l.77.41.75-.45c1.22-.74,29.91-18.36,37.22-39.96,1.85-5.48.86-12.53-2.53-17.97-3.12-5.01-8.05-8.19-13.86-8.95-11.83-1.54-19.37,7.71-22.8,13.36-.12.2-.34.33-.58.34-.24,0-.46-.11-.6-.3-3.4-4.89-10.27-12.48-20.08-12.48ZM198.04,100.02c-.12,0-.24-.03-.35-.09-4.92-2.81-29.85-17.71-37.31-35.74-1.87-4.51-1.38-10.75,1.21-15.51,1.65-3.04,4.91-6.89,11.06-8.03.97-.18,1.94-.27,2.91-.27,11.88,0,19.22,13.57,19.53,14.15.02.03.46.83,1.35.83s1.49-.98,1.49-.99c.28-.63,7.71-16.72,21.4-14.94,6.26.82,9.79,4.54,11.65,7.52,2.88,4.62,3.77,10.79,2.23,15.36-6.22,18.37-30.07,34.55-34.79,37.61-.12.08-.25.11-.38.11ZM175.56,41.79c-.88,0-1.77.08-2.65.25-5.6,1.03-8.57,4.55-10.08,7.32-2.4,4.41-2.86,10.16-1.15,14.3,7.11,17.19,30.71,31.6,36.33,34.84,5.39-3.53,27.94-19.13,33.87-36.64,1.42-4.19.58-9.88-2.09-14.16-1.7-2.72-4.92-6.12-10.63-6.87-12.67-1.65-19.67,13.53-19.96,14.18-.07.13-1.01,1.76-2.75,1.76s-2.57-1.52-2.6-1.58c-.29-.54-7.25-13.39-18.28-13.39Z" />
    <path class="cls-7"
      d="M215.99,79.4h-1.82v-4.29c0-.5-.4-.9-.9-.9s-.9.4-.9.9v4.29h-1.82c-.5,0-.9.4-.9.9s.4.9.9.9h1.82v4.29c0,.5.4.9.9.9s.9-.4.9-.9v-4.29h1.82c.5,0,.9-.4.9-.9s-.4-.9-.9-.9Z" />
    <path class="cls-1"
      d="M38.15,67.77h-1.03v-3.49c0-.94-.76-1.7-1.7-1.7s-1.7.76-1.7,1.7v3.49h-1.03c-.94,0-1.7.76-1.7,1.7s.76,1.7,1.7,1.7h1.03v3.49c0,.94.76,1.7,1.7,1.7s1.7-.76,1.7-1.7v-3.49h1.03c.94,0,1.7-.76,1.7-1.7s-.76-1.7-1.7-1.7Z" />
    <path class="cls-1"
      d="M146.51,38.3h-1.03v-3.49c0-.94-.76-1.7-1.7-1.7s-1.7.76-1.7,1.7v3.49h-1.03c-.94,0-1.7.76-1.7,1.7s.76,1.7,1.7,1.7h1.03v3.49c0,.94.76,1.7,1.7,1.7s1.7-.76,1.7-1.7v-3.49h1.03c.94,0,1.7-.76,1.7-1.7s-.76-1.7-1.7-1.7Z" />
    <path class="cls-7"
      d="M157.04,80.86h-1.03v-3.49c0-.94-.76-1.7-1.7-1.7s-1.7.76-1.7,1.7v3.49h-1.03c-.94,0-1.7.76-1.7,1.7s.76,1.7,1.7,1.7h1.03v3.49c0,.94.76,1.7,1.7,1.7s1.7-.76,1.7-1.7v-3.49h1.03c.94,0,1.7-.76,1.7-1.7s-.76-1.7-1.7-1.7Z" />
    <path class="cls-6"
      d="M60.24,95.86h-.55v-2.37c0-.81-.65-1.46-1.46-1.46s-1.46.65-1.46,1.46v2.37h-.55c-.8,0-1.46.65-1.46,1.46s.65,1.46,1.46,1.46h.55v2.37c0,.81.65,1.46,1.46,1.46s1.46-.65,1.46-1.46v-2.37h.55c.8,0,1.46-.65,1.46-1.46s-.65-1.46-1.46-1.46Z" />
    <path class="cls-6"
      d="M165.92,25.29h-.55v-2.37c0-.8-.65-1.46-1.46-1.46s-1.46.65-1.46,1.46v2.37h-.55c-.8,0-1.46.65-1.46,1.46s.65,1.46,1.46,1.46h.55v2.37c0,.8.65,1.46,1.46,1.46s1.46-.65,1.46-1.46v-2.37h.55c.8,0,1.46-.65,1.46-1.46s-.65-1.46-1.46-1.46Z" />
    <path class="cls-7"
      d="M60.24,27.38h-.55v-2.37c0-.8-.65-1.46-1.46-1.46s-1.46.65-1.46,1.46v2.37h-.55c-.8,0-1.46.65-1.46,1.46s.65,1.46,1.46,1.46h.55v2.37c0,.8.65,1.46,1.46,1.46s1.46-.65,1.46-1.46v-2.37h.55c.8,0,1.46-.65,1.46-1.46s-.65-1.46-1.46-1.46Z" />
    <path class="cls-6"
      d="M127.17,92.06h-1.03v-3.49c0-.94-.76-1.7-1.7-1.7s-1.7.76-1.7,1.7v3.49h-1.03c-.94,0-1.7.76-1.7,1.7s.76,1.7,1.7,1.7h1.03v3.49c0,.94.76,1.7,1.7,1.7s1.7-.76,1.7-1.7v-3.49h1.03c.94,0,1.7-.76,1.7-1.7s-.76-1.7-1.7-1.7Z" />
    <path class="cls-6"
      d="M93.71,27.99h-1.03v-3.49c0-.94-.76-1.7-1.7-1.7s-1.7.76-1.7,1.7v3.49h-1.03c-.94,0-1.7.76-1.7,1.7s.76,1.7,1.7,1.7h1.03v3.49c0,.94.76,1.7,1.7,1.7s1.7-.76,1.7-1.7v-3.49h1.03c.94,0,1.7-.76,1.7-1.7s-.76-1.7-1.7-1.7Z" />
  </g>
</svg>