<?xml version="1.0" encoding="UTF-8"?>
<svg id="Capa_2" xmlns="http://www.w3.org/2000/svg" xmlns:xlink="http://www.w3.org/1999/xlink"
  viewBox="0 0 180.73 215.52">
  <defs>
    <style>
      .cls-1 {
        fill: aqua;
      }

      .cls-2 {
        fill: #29abe2;
      }

      .cls-3 {
        fill: #fff;
      }

      .cls-4 {
        filter: none;
      }

      .cls-5 {
        fill: #862291;
      }

      .cls-6 {
        fill: #1b1464;
      }

      .cls-7 {
        fill: #fcee21;
      }

      .cls-8 {
        fill: #ed1e79;
      }
    </style>
  </defs>
  <g id="_0">
    <g class="cls-4">
      <path class="cls-3"
        d="M177.47,33.96h0c-1.29-1.48-2.92-2.62-4.73-3.32-.48-1-.95-3.02-1.01-5.6,0-.32,0-.53,0-.59-.03-1.22-.53-2.35-1.42-3.18-.88-.83-2.05-1.27-3.26-1.22-2.4.09-4.31,2.04-4.36,4.43,0,.06,0,.28,0,.6-.04,3.87-.81,6.14-1.15,6.72-1.01.28-1.87.89-2.47,1.72l-5.33-4.84c-1.66-1.51-4.21-1.83-6.18-.81-.2-6.11-5.23-11.03-11.39-11.03-4.11,0-7.71,2.18-9.72,5.45-.65-2.29-2.77-3.97-5.26-3.97h-4.91c-1.63-4.16-5.62-6.9-10.14-6.9s-8.51,2.74-10.14,6.9h-2.75c-.68,0-1.36.13-2,.38-.63-.25-1.3-.38-2-.38h-4.69c.93-1.78,1.41-3.74,1.41-5.76,0-6.93-5.64-12.57-12.57-12.57s-12.57,5.64-12.57,12.57c0,2.02.48,3.99,1.41,5.76h-.94c-.89,0-1.75.21-2.53.62-.78-.41-1.64-.62-2.53-.62h-12.93c-.63,0-1.25.11-1.84.32-.59-.21-1.21-.32-1.84-.32h-3.76c-.47-5.52-5.11-9.87-10.75-9.87s-10.24,4.31-10.75,9.87h-1.51c-3.02,0-5.47,2.45-5.47,5.47v84.83c-4.45,2.01-7.39,6.53-7.39,11.45s2.94,9.44,7.39,11.45v8.34c0,.88.22,1.76.63,2.54-.81,1.22-1.11,2.73-.81,4.19l3.86,18.19c.18.86.58,1.68,1.14,2.36l6.95,8.36c1.04,1.25,2.58,1.97,4.21,1.97h11.68c.63,0,1.25-.11,1.85-.32l13.4-4.8,2.33,10.62c-.69,1.24-1.05,2.56-1.05,3.83,0,1.76.69,3.45,2.01,4.92-.1,2.34.02,5.27,1.47,8.01.17.32.37.62.61.9-.74,1.44-1.13,3.03-1.13,4.64,0,5.63,4.58,10.22,10.22,10.22,2.46,0,4.84-.91,6.7-2.52,1.86,1.63,4.2,2.52,6.7,2.52,5.63,0,10.22-4.58,10.22-10.22,0-1.06-.16-2.11-.49-3.11,1.75-.78,2.98-2.43,3.19-4.4.07-.64.58-6.34-2.84-10.57-1.92-2.38-4.64-3.81-7.88-4.16-2.01-.21-3.9-.11-5.64.3,1.94-5.34,4.45-12.45,5.99-17.45h12.81l6.74,18.15c-.36.91-.54,1.83-.54,2.75,0,1.76.69,3.45,2.01,4.92-.1,2.34.02,5.27,1.47,8.01.17.32.37.62.61.9-.74,1.44-1.13,3.03-1.13,4.64,0,5.63,4.58,10.22,10.22,10.22,2.46,0,4.84-.91,6.7-2.52,1.86,1.63,4.2,2.52,6.7,2.52,5.63,0,10.22-4.58,10.22-10.22,0-1.06-.16-2.11-.49-3.11,1.75-.78,2.98-2.43,3.19-4.4.07-.64.57-6.34-2.84-10.57-1.92-2.38-4.64-3.81-7.88-4.16-2.01-.21-3.9-.11-5.65.31-.37-.74-.86-1.44-1.47-2.08l-.07-28.22c.42-2.42,3.46-20.05,6.21-35.58l1.85,13.66c.37,2.7,2.7,4.74,5.42,4.74h11.21c2.06,2.4,5.04,3.76,8.24,3.76,6.01,0,10.9-4.89,10.9-10.9,0-4.39-2.72-8.39-6.72-10.07.03-.01.05-.02.08-.03,2.36-1.01,4.62-3.59,3.88-7.71l-.53-5.28c.14-.48.21-.99.21-1.5v-5.19c0-1.71-.81-3.28-2.09-4.3,1.63-.42,3.01-1.5,4.52-3.55,1.34-.05,2.63-.59,3.61-1.53.28-.27,2.78-2.73,5.44-6.99,2.94-4.71,4.08-13.77,4.2-14.79.19-1.62-.35-3.23-1.47-4.42-.37-.39-2.13-2.21-4.02-3.8,3.42-3.81,7.38-9.32,8.37-15.23.59-3.53-.6-7.52-3.11-10.4ZM98.53,43.82c-2.19.38-3.77,2.26-3.75,4.49.02,2.07,1.41,3.83,3.38,4.34-.94,3.38-1.9,6.51-2.86,9.35-.77-2.67-2.42-5.02-4.73-6.67l2.96-13.72h6.56c-.67,1.65-1.31,2.18-1.57,2.22ZM68.38,41.59l-6.66,31.22v-31.22h6.66ZM37.85,67.49c-2.45.84-4.55,2.42-6.05,4.47v-6.1h6.05v1.63ZM37.85,91.26v43.95c-2.32.39-4.44,1.52-6.05,3.19v-51.61c1.5,2.05,3.61,3.63,6.05,4.47Z" />
      <path class="cls-2"
        d="M132.94,101.51s2.14,9.26,1.72,9.89-11.63-4.83-11.63-4.83l1.88-5.73,5.56,4.62,1.43-2.62,1.04-1.32Z" />
      <path class="cls-6"
        d="M124.9,100.83l5.56,4.62,1.43-2.62,1.04-1.32s2.14,9.26,1.72,9.89c-.02.03-.08.05-.16.05-1.44,0-11.47-4.88-11.47-4.88l1.88-5.73h0ZM124.9,99.56c-.12,0-.24.02-.35.05-.4.12-.73.43-.86.83l-1.88,5.73c-.2.6.08,1.26.65,1.54,3.84,1.87,10.52,5.01,12.03,5.01.73,0,1.1-.43,1.22-.62.32-.48.72-1.09-1.54-10.88-.11-.48-.48-.85-.96-.95-.09-.02-.19-.03-.28-.03-.38,0-.75.17-1,.48l-1.04,1.32c-.04.06-.09.12-.12.18l-.69,1.26-4.37-3.63c-.23-.19-.52-.29-.81-.29h0Z" />
      <path class="cls-8"
        d="M59.9,197.83c-.24,0-.45-.13-.56-.34-1.05-1.99-1.07-4.58-.74-7.82-.72-.46-2.18-1.53-2.18-2.85,0-1.54,1.7-3.24,2.33-3.33.03,0,.06,0,.09,0h9.22c.1,0,.21.03.3.07.1.05,2.42,1.31,2.31,3.32-.09,1.7-2.42,2.98-3.27,3.39-.22.77-.38,1.55-.38,1.91.19.04.56.09,1.2.09.89,0,1.64-.1,1.9-.17.08-.07.24-.27.37-.43,1.02-1.26,3.13-3.87,7.89-3.87.47,0,.97.03,1.47.08,1.96.21,3.51,1.01,4.62,2.38,2.23,2.77,1.81,6.84,1.79,7.02-.04.32-.31.57-.63.57h-25.73Z" />
      <path class="cls-6"
        d="M68.06,184.12s2.06,1.1,1.98,2.73c-.08,1.63-3.16,2.97-3.16,2.97,0,0-.74,2.37-.39,2.8.17.21.92.29,1.74.29.87,0,1.82-.09,2.17-.23.64-.25,2.3-4.25,7.98-4.25.44,0,.91.02,1.4.08,6.72.71,5.85,8.7,5.85,8.7h-25.73c-1.07-2.02-.96-4.82-.62-7.87,0,0-2.22-1.19-2.22-2.51s1.56-2.67,1.78-2.7h9.22ZM68.06,182.85h-9.22c-.06,0-.12,0-.18.01-.92.13-2.88,2.09-2.88,3.96,0,1.44,1.27,2.56,2.15,3.17-.31,3.18-.24,5.75.84,7.8.22.42.65.68,1.12.68h25.73c.65,0,1.19-.49,1.26-1.13.02-.18.46-4.52-1.93-7.48-1.22-1.51-2.92-2.39-5.05-2.62-.52-.06-1.04-.08-1.54-.08-5.06,0-7.39,2.88-8.38,4.11-.07.09-.15.18-.21.26-.28.05-.86.11-1.56.11-.19,0-.35,0-.49-.01.05-.27.12-.59.21-.91,1.12-.58,3.27-1.92,3.36-3.8.12-2.37-2.37-3.76-2.65-3.91-.18-.1-.39-.15-.6-.15h0Z" />
      <path class="cls-5"
        d="M69.66,187.79c.21-.3.36-.61.37-.94.08-1.63-1.98-2.73-1.98-2.73h-9.22c-.22.03-1.78,1.38-1.78,2.7,0,.37.17.72.42,1.04,4.21-2.71,8.03-1.61,12.19-.07Z" />
      <path class="cls-5"
        d="M79.78,188.5c-1.76-.19-3.18-.01-4.35.34,3.76.78,7.24,2.61,10.02,5.21-.45-2.32-1.8-5.14-5.67-5.55Z" />
      <circle class="cls-2" cx="64.75" cy="205.3" r="4.74" transform="translate(-148.2 236.82) rotate(-80.91)" />
      <path class="cls-6"
        d="M64.75,200.56c2.62,0,4.74,2.12,4.74,4.74s-2.12,4.74-4.74,4.74-4.74-2.12-4.74-4.74,2.12-4.74,4.74-4.74h0ZM64.75,199.28c-3.32,0-6.02,2.7-6.02,6.02s2.7,6.02,6.02,6.02,6.02-2.7,6.02-6.02-2.7-6.02-6.02-6.02h0Z" />
      <path class="cls-1"
        d="M67.37,205.3c0,1.45-1.17,2.62-2.62,2.62s-2.62-1.17-2.62-2.62,1.17-2.62,2.62-2.62,2.62,1.17,2.62,2.62Z" />
      <path class="cls-6"
        d="M64.75,208.24c-1.62,0-2.94-1.32-2.94-2.94s1.32-2.94,2.94-2.94,2.94,1.32,2.94,2.94-1.32,2.94-2.94,2.94ZM64.75,203c-1.27,0-2.3,1.03-2.3,2.3s1.03,2.3,2.3,2.3,2.3-1.03,2.3-2.3-1.03-2.3-2.3-2.3Z" />
      <circle class="cls-2" cx="78.15" cy="205.3" r="4.74" transform="translate(-136.92 250.04) rotate(-80.91)" />
      <path class="cls-6"
        d="M78.15,200.56c2.62,0,4.74,2.12,4.74,4.74s-2.12,4.74-4.74,4.74-4.74-2.12-4.74-4.74,2.12-4.74,4.74-4.74h0ZM78.15,199.28c-3.32,0-6.02,2.7-6.02,6.02s2.7,6.02,6.02,6.02,6.02-2.7,6.02-6.02-2.7-6.02-6.02-6.02h0Z" />
      <path class="cls-1"
        d="M80.77,205.3c0,1.45-1.17,2.62-2.62,2.62s-2.62-1.17-2.62-2.62,1.17-2.62,2.62-2.62,2.62,1.17,2.62,2.62Z" />
      <path class="cls-6"
        d="M78.15,208.24c-1.62,0-2.94-1.32-2.94-2.94s1.32-2.94,2.94-2.94,2.94,1.32,2.94,2.94-1.32,2.94-2.94,2.94ZM78.15,203c-1.27,0-2.3,1.03-2.3,2.3s1.03,2.3,2.3,2.3,2.3-1.03,2.3-2.3-1.03-2.3-2.3-2.3Z" />
      <path class="cls-6"
        d="M69.75,194.76s-.06,0-.09-.01c-.17-.05-.26-.23-.21-.4.31-1,.72-2.33.72-2.33l.61.19s-.41,1.33-.72,2.33c-.04.14-.17.22-.3.22Z" />
      <path class="cls-6"
        d="M64.93,194.34s-.06,0-.09-.01c-.17-.05-.27-.22-.22-.39.32-1.16,1.9-2.17,1.97-2.21.15-.09.34-.05.44.1.09.15.05.34-.1.44-.4.25-1.48,1.08-1.7,1.84-.04.14-.17.23-.31.23Z" />
      <path class="cls-6"
        d="M65.83,194.93s-.06,0-.08-.01c-.17-.05-.27-.22-.22-.39.12-.44.85-1.91,1.08-2.04.07-.04.16-.05.25-.03.17.05.27.22.22.39-.02.06-.05.11-.09.14-.13.19-.72,1.24-.84,1.7-.04.14-.17.24-.31.24Z" />
      <path class="cls-6"
        d="M83.71,196.3h-1.22c-.18,0-.32-.14-.32-.32s.14-.32.32-.32h1.22c.18,0,.32.14.32.32s-.14.32-.32.32Z" />
      <path class="cls-6"
        d="M81.39,196.3h-3.24c-.18,0-.32-.14-.32-.32s.14-.32.32-.32h3.24c.18,0,.32.14.32.32s-.14.32-.32.32Z" />
      <path class="cls-6"
        d="M76.43,196.3h-1.33c-.18,0-.32-.14-.32-.32s.14-.32.32-.32h1.33c.18,0,.32.14.32.32s-.14.32-.32.32Z" />
      <path class="cls-6"
        d="M73.26,196.3h-8.72c-.18,0-.32-.14-.32-.32s.14-.32.32-.32h8.72c.18,0,.32.14.32.32s-.14.32-.32.32Z" />
      <path class="cls-6"
        d="M63.52,196.3h-1.03c-.18,0-.32-.14-.32-.32s.14-.32.32-.32h1.03c.18,0,.32.14.32.32s-.14.32-.32.32Z" />
      <path class="cls-6"
        d="M61.38,196.3h-1.92c-.18,0-.32-.14-.32-.32s.14-.32.32-.32h1.92c.18,0,.32.14.32.32s-.14.32-.32.32Z" />
      <path class="cls-8"
        d="M108.02,197.83c-.24,0-.45-.13-.56-.34-1.05-1.99-1.07-4.58-.74-7.82-.72-.46-2.18-1.53-2.18-2.85,0-1.54,1.7-3.24,2.33-3.33.03,0,.06,0,.09,0h9.22c.1,0,.21.03.3.07.1.05,2.42,1.31,2.31,3.32-.09,1.7-2.42,2.98-3.27,3.39-.22.77-.38,1.55-.38,1.91.19.04.56.09,1.2.09.89,0,1.64-.1,1.9-.17.08-.07.24-.27.37-.43,1.02-1.26,3.13-3.87,7.89-3.87.47,0,.97.03,1.47.08,1.96.21,3.51,1.01,4.62,2.38,2.23,2.77,1.81,6.84,1.79,7.02-.04.32-.31.57-.63.57h-25.73Z" />
      <path class="cls-6"
        d="M116.19,184.12s2.06,1.1,1.98,2.73c-.08,1.63-3.16,2.97-3.16,2.97,0,0-.74,2.37-.39,2.8.17.21.92.29,1.74.29.87,0,1.82-.09,2.17-.23.64-.25,2.3-4.25,7.98-4.25.44,0,.91.02,1.4.08,6.72.71,5.85,8.7,5.85,8.7h-25.73c-1.07-2.02-.96-4.82-.62-7.87,0,0-2.22-1.19-2.22-2.51s1.56-2.67,1.78-2.7h9.22ZM116.19,182.85h-9.22c-.06,0-.12,0-.18.01-.92.13-2.88,2.09-2.88,3.96,0,1.44,1.26,2.56,2.15,3.17-.31,3.18-.24,5.75.84,7.8.22.42.65.68,1.12.68h25.73c.65,0,1.19-.49,1.26-1.13.02-.18.46-4.52-1.93-7.48-1.22-1.51-2.92-2.39-5.05-2.62-.52-.06-1.04-.08-1.54-.08-5.06,0-7.39,2.88-8.38,4.11-.07.09-.15.18-.21.26-.28.05-.86.11-1.56.11-.19,0-.35,0-.49-.01.05-.27.12-.59.21-.91,1.12-.58,3.27-1.92,3.36-3.8.12-2.37-2.37-3.76-2.65-3.91-.18-.1-.39-.15-.6-.15h0Z" />
      <path class="cls-5"
        d="M117.79,187.79c.21-.3.36-.61.37-.94.08-1.63-1.98-2.73-1.98-2.73h-9.22c-.22.03-1.78,1.38-1.78,2.7,0,.37.17.72.42,1.04,4.21-2.71,8.03-1.61,12.19-.07Z" />
      <path class="cls-5"
        d="M127.91,188.5c-1.76-.19-3.18-.01-4.35.34,3.76.78,7.24,2.61,10.02,5.21-.45-2.32-1.8-5.14-5.67-5.55Z" />
      <circle class="cls-2" cx="112.88" cy="205.3" r="4.74" transform="translate(-107.85 283.84) rotate(-80.78)" />
      <path class="cls-6"
        d="M112.88,200.56c2.62,0,4.74,2.12,4.74,4.74s-2.12,4.74-4.74,4.74-4.74-2.12-4.74-4.74,2.12-4.74,4.74-4.74h0ZM112.88,199.28c-3.32,0-6.02,2.7-6.02,6.02s2.7,6.02,6.02,6.02,6.02-2.7,6.02-6.02-2.7-6.02-6.02-6.02h0Z" />
      <path class="cls-1"
        d="M115.5,205.3c0,1.45-1.17,2.62-2.62,2.62s-2.62-1.17-2.62-2.62,1.17-2.62,2.62-2.62,2.62,1.17,2.62,2.62Z" />
      <path class="cls-6"
        d="M112.88,208.24c-1.62,0-2.94-1.32-2.94-2.94s1.32-2.94,2.94-2.94,2.94,1.32,2.94,2.94-1.32,2.94-2.94,2.94ZM112.88,203c-1.27,0-2.3,1.03-2.3,2.3s1.03,2.3,2.3,2.3,2.3-1.03,2.3-2.3-1.03-2.3-2.3-2.3Z" />
      <circle class="cls-2" cx="126.28" cy="205.3" r="4.74" transform="translate(-96.6 297.06) rotate(-80.78)" />
      <path class="cls-6"
        d="M126.28,200.56c2.62,0,4.74,2.12,4.74,4.74s-2.12,4.74-4.74,4.74-4.74-2.12-4.74-4.74,2.12-4.74,4.74-4.74h0ZM126.28,199.28c-3.32,0-6.02,2.7-6.02,6.02s2.7,6.02,6.02,6.02,6.02-2.7,6.02-6.02-2.7-6.02-6.02-6.02h0Z" />
      <path class="cls-1"
        d="M128.89,205.3c0,1.45-1.17,2.62-2.62,2.62s-2.62-1.17-2.62-2.62,1.17-2.62,2.62-2.62,2.62,1.17,2.62,2.62Z" />
      <path class="cls-6"
        d="M126.28,208.24c-1.62,0-2.94-1.32-2.94-2.94s1.32-2.94,2.94-2.94,2.94,1.32,2.94,2.94-1.32,2.94-2.94,2.94ZM126.28,203c-1.27,0-2.3,1.03-2.3,2.3s1.03,2.3,2.3,2.3,2.3-1.03,2.3-2.3-1.03-2.3-2.3-2.3Z" />
      <path class="cls-6"
        d="M117.87,194.76s-.06,0-.09-.01c-.17-.05-.26-.23-.21-.4.31-1,.72-2.33.72-2.33l.61.19s-.41,1.33-.72,2.33c-.04.14-.17.22-.3.22Z" />
      <path class="cls-6"
        d="M113.06,194.34s-.06,0-.09-.01c-.17-.05-.27-.22-.22-.39.32-1.16,1.9-2.17,1.97-2.21.15-.09.34-.05.44.1.09.15.05.34-.1.44-.4.25-1.48,1.08-1.7,1.84-.04.14-.17.23-.31.23Z" />
      <path class="cls-6"
        d="M113.96,194.93s-.06,0-.08-.01c-.17-.05-.27-.22-.22-.39.12-.44.85-1.91,1.08-2.04.07-.04.16-.05.25-.03.17.05.27.22.22.39-.02.06-.05.11-.09.14-.13.19-.72,1.24-.84,1.7-.04.14-.17.24-.31.24Z" />
      <path class="cls-6"
        d="M131.84,196.3h-1.22c-.18,0-.32-.14-.32-.32s.14-.32.32-.32h1.22c.18,0,.32.14.32.32s-.14.32-.32.32Z" />
      <path class="cls-6"
        d="M129.52,196.3h-3.24c-.18,0-.32-.14-.32-.32s.14-.32.32-.32h3.24c.18,0,.32.14.32.32s-.14.32-.32.32Z" />
      <path class="cls-6"
        d="M124.56,196.3h-1.33c-.18,0-.32-.14-.32-.32s.14-.32.32-.32h1.33c.18,0,.32.14.32.32s-.14.32-.32.32Z" />
      <path class="cls-6"
        d="M121.39,196.3h-8.72c-.18,0-.32-.14-.32-.32s.14-.32.32-.32h8.72c.18,0,.32.14.32.32s-.14.32-.32.32Z" />
      <path class="cls-6"
        d="M111.65,196.3h-1.03c-.18,0-.32-.14-.32-.32s.14-.32.32-.32h1.03c.18,0,.32.14.32.32s-.14.32-.32.32Z" />
      <path class="cls-6"
        d="M109.51,196.3h-1.92c-.18,0-.32-.14-.32-.32s.14-.32.32-.32h1.92c.18,0,.32.14.32.32s-.14.32-.32.32Z" />
      <path class="cls-2"
        d="M166.96,62.48c-2.06-1.27-8.33-4.2-8.33-4.2l.87-16.97-9.44-8.56s-12.69,8.8-14.99,9.12c-2.3.32-17.08-5.95-17.71-5.95-.63,0-12.03,10.87-12.03,10.87,0,0-2.62,11.18-6.26,20.93-3.65,9.75-14.19,25.93-14.51,26.25l-53.39,62.74-6.17.24-12.43-11.48,3.86,18.19,6.95,8.36h11.68l19.26-6.9,4.7,21.42s2.22.4,4.26.4,4.43-.36,4.43-.36c0,0,7.55-20.29,8.83-26.13h20.77l9.46,25.48c2.91.38,6.06.48,9.13.14l-.09-33.46s10.46-60.85,11.02-61.09c5.79-1.51,30.61-1.9,31.72-2.14,1.11-.24,3.89-5.47,3.89-5.47l1.82,1.74s2.22-2.14,4.6-5.95c2.38-3.81,3.41-12.53,3.41-12.53,0,0-3.25-3.41-5.31-4.68Z" />
      <path class="cls-2"
        d="M172.44,67c-.13-.14-3.3-3.45-5.36-4.72-1.9-1.17-7.23-3.69-8.2-4.15l.87-16.92-9.66-8.77-.16.11c-4.37,3.03-13.11,8.83-14.88,9.08-1.53.21-9.19-2.76-13.77-4.53-2.77-1.08-3.69-1.42-3.91-1.42h0c-.64,0-7.91,6.85-12.2,10.94l-.05.05-.02.07c-.03.11-2.66,11.28-6.26,20.91-3.62,9.69-14.11,25.76-14.47,26.18l-53.32,62.66-5.97.24-12.91-11.92,4.02,18.92,7.07,8.55h11.79l19.08-6.82,4.67,21.31.16.03s2.27.4,4.3.4,4.44-.36,4.47-.36l.14-.02.05-.13c.07-.2,7.41-19.95,8.8-25.98h20.42l9.46,25.46.14.02c3.14.41,6.32.46,9.18.14l.21-.02-.09-33.64c3.49-20.31,10.21-58.77,10.95-60.93,4.27-1.06,18.36-1.57,25.97-1.85,3.58-.13,5.32-.2,5.64-.26,1.07-.23,3.2-4.02,3.9-5.32l1.76,1.69.17-.16s2.27-2.21,4.64-5.99c2.38-3.81,3.4-12.27,3.44-12.63v-.11s-.06-.08-.06-.08Z" />
      <path class="cls-2" d="M106.78,185.92l.46,1.23c2.81.05,5.77.19,8.67-.08v-1.02c-3.06.34-6.22.24-9.13-.14Z" />
      <path class="cls-7"
        d="M53.26,160.61l-18.67,8.26-10.4-.16s-6.05-3.56-7.86-5.58l.1.52,6.95,8.36h11.68l18.84-6.75-.64-4.66Z" />
      <path class="cls-7"
        d="M155.59,81.22c-1.92-.36-5.83,1.7-10.64,2.9-5.09,1.27-13.6-1.56-18.05-3.47-12.49-3.9-20.92,4.71-26.17,14.7-.06,0-.11-.02-.17-.02-.36.82-.72,1.64-1.08,2.47-1.38,2.68-2.59,4.92-3.44,7.72-6.98,15.55-14.1,31.2-18.01,47.67-.57,2.4-.73,4.85-1.16,7.29l.66-.04h19.78c6.95-.82,13.19-3.28,18.5-7.85,0,0,10.82-61.01,11.02-61.09,5.79-1.51,30.61-1.9,31.72-2.14,1.11-.24,3.89-5.47,3.89-5.47,0,0-3.36-2.02-6.85-2.67Z" />
      <path class="cls-6"
        d="M77.61,154.28s-.05,0-.07,0c-.17-.04-.28-.21-.24-.38l.1-.41c.58-2.46,1.28-5.03,2.05-7.62.05-.17.23-.26.4-.21.17.05.26.23.21.4-.77,2.58-1.46,5.13-2.04,7.58l-.1.41c-.03.15-.16.25-.31.25Z" />
      <path class="cls-6"
        d="M81.35,141.27s-.07,0-.1-.02c-.17-.06-.26-.24-.2-.4.33-.97.66-1.95,1.01-2.92.06-.17.24-.25.41-.19.17.06.25.24.19.41-.34.97-.68,1.94-1.01,2.91-.04.13-.17.22-.3.22Z" />
      <path class="cls-6"
        d="M83.24,135.92s-.07,0-.11-.02c-.16-.06-.25-.24-.19-.41,1.46-3.95,3.16-8.2,5.22-12.99.07-.16.26-.24.42-.17.16.07.24.26.17.42-2.05,4.79-3.75,9.03-5.2,12.96-.05.13-.17.21-.3.21Z" />
      <path class="cls-6"
        d="M91.23,116.56s-.09,0-.13-.03c-.16-.07-.23-.26-.16-.42,1.13-2.54,2.26-5.07,3.4-7.59l1.41-3.13c.01-.05.27-.67.5-1.21.07-.16.25-.24.42-.17.16.07.24.25.17.42-.31.74-.47,1.14-.49,1.2l-1.42,3.17c-1.13,2.52-2.27,5.05-3.4,7.59-.05.12-.17.19-.29.19Z" />
      <path class="cls-3"
        d="M150.07,35.59s6.43,4.92,9.34,7.64l.1-1.91-9.44-8.56s-.77.54-1.97,1.34c-3.24,3.65-5.55,8.19-7.85,12.21,1.79-2.15,3.79-5.7,5.97-8.02,1.69-1.8,3.84-2.69,3.84-2.69Z" />
      <path class="cls-3"
        d="M118.35,36.23c-.54-.2-.89-.32-.98-.32-.63,0-12.03,10.87-12.03,10.87,0,0-2.62,11.18-6.26,20.93-2.28,6.1-7.26,14.72-10.75,20.39h0s-.01.02-.02.02c-.14.24-.29.46-.42.69-.06.09-.12.19-.17.28-.09.15-.18.29-.27.44-.06.09-.11.18-.16.26-.13.21-.26.42-.39.61,0,0,0,0,0,.01-.13.21-.26.41-.39.61-.04.06-.07.11-.11.17-.09.14-.17.27-.25.4-.04.06-.07.11-.11.17-.22.34-.42.65-.6.92-.02.03-.04.06-.06.1-.07.11-.14.21-.2.3-.02.03-.04.05-.05.08-.15.22-.27.4-.36.53-.01.02-.02.03-.03.05-.03.05-.06.09-.08.12,0,0-.01.02-.02.03-.03.03-.05.06-.05.07h0l-53.39,62.74-6.17.24-12.43-11.48.29,1.59c2.79,4.58,11.33,10.82,11.33,10.82h7.64s11.3-13.07,22.48-25.75c14.02-15.9,31.57-37.24,33.53-40.88,1.95-3.64,10.16-16.6,13.6-25.43,4.08-10.47,6.6-19.24,6.6-19.24,0,0,5.05-5.63,8.73-8.99.21-.19,15.1,8.01,15.3,7.84.34-.3-14.03-8.95-13.72-9.19Z" />
      <path class="cls-3"
        d="M166.96,62.48c-.08-.05-.17-.1-.26-.16-.02-.01-.05-.03-.07-.04-.08-.05-.17-.1-.26-.15-.01,0-.02-.01-.04-.02-.23-.13-.48-.27-.75-.41,0,0,0,0,0,0-2.65-1.41-6.94-3.42-6.94-3.42,0,0-12.22-4.86-18.45-6.05-.43-.08-.75.28-.48.42,9.27,4.75,21.2,9.19,28.48,16.86.21,8.06-7.15,13.64-7.15,13.64,0,0-4.35-1.64-5.45-1.92,1.91,1.27,1.84,1.34,3.75,2.61.12,1.68-.52,2.84-1.43,3.79-.27.28-28.32,3.4-28.32,3.4l26.06-1.5s2.69-.11,2.9-.16c1.11-.24,3.89-5.47,3.89-5.47l1.82,1.74s2.22-2.14,4.6-5.95c1-1.61,1.77-4.09,2.31-6.42,0,0,0,0,0,0,.61-2.6.95-5,1.06-5.81,0,0,0,0,0,0,.02-.18.04-.29.04-.29,0,0-3.25-3.41-5.31-4.68Z" />
      <path class="cls-6"
        d="M99.81,97.48s-.1-.01-.14-.03c-.16-.08-.22-.27-.14-.43.14-.28.28-.56.43-.85.22-.43.44-.86.66-1.28,1.53-2.86,3.2-5.38,4.97-7.47.11-.13.31-.15.45-.04.13.11.15.31.04.45-1.74,2.06-3.39,4.54-4.89,7.36-.22.42-.44.85-.66,1.27-.14.29-.29.57-.43.85-.06.11-.17.17-.28.17Z" />
      <path class="cls-6"
        d="M150.07,32.75l9.44,8.56-.87,16.97s6.26,2.93,8.33,4.2c2.06,1.27,5.31,4.68,5.31,4.68,0,0-1.03,8.72-3.41,12.53-2.38,3.81-4.6,5.95-4.6,5.95l-1.82-1.74s-2.78,5.23-3.89,5.47c-1.11.24-25.8.63-31.67,2.13h-.1s-.15.68-.15.68c-1.57,6.64-10.82,60.42-10.82,60.42l.09,33.46c-1.28.14-2.58.21-3.88.21-1.79,0-3.56-.13-5.25-.35l-9.46-25.48h-20.77c-1.28,5.84-8.83,26.13-8.83,26.13,0,0-2.39.36-4.43.36s-4.26-.4-4.26-.4l-4.7-21.42-19.26,6.9h-11.68l-6.95-8.36-3.86-18.19,12.43,11.48,6.17-.24,52.48-61.66.92-1.08c.32-.32,10.86-16.49,14.51-26.25,3.65-9.75,6.26-20.93,6.26-20.93,0,0,11.4-10.87,12.03-10.87h0c.61,0,14.69,5.97,17.51,5.97.07,0,.14,0,.19-.01,2.3-.32,14.99-9.12,14.99-9.12h0ZM150.07,31.47c-.25,0-.51.07-.72.23-6.08,4.22-13.14,8.7-14.44,8.9-1.72,0-9.5-3.02-13.25-4.47-3.56-1.38-3.88-1.49-4.27-1.49h-.02c-.63,0-.96.07-7.1,5.77-2.9,2.69-5.76,5.42-5.79,5.45-.18.17-.3.39-.36.63-.03.11-2.64,11.22-6.22,20.78-3.51,9.37-13.69,25.06-14.29,25.87l-.92,1.08-52.11,61.24-5.09.2-12.05-11.12c-.24-.22-.55-.34-.86-.34-.22,0-.43.05-.63.17-.48.27-.73.83-.62,1.37l3.86,18.19c.04.2.13.39.27.55l6.95,8.36c.24.29.6.46.98.46h11.68c.15,0,.29-.03.43-.07l17.9-6.41,4.39,20c.11.5.51.89,1.02.98.1.02,2.36.42,4.49.42s4.52-.36,4.62-.37c.46-.07.84-.38,1-.81.29-.79,6.87-18.49,8.64-25.3h18.89l9.16,24.65c.16.44.56.76,1.03.82,1.82.24,3.64.36,5.42.36,1.38,0,2.73-.07,4.02-.22.64-.07,1.13-.62,1.13-1.27l-.09-33.35c.47-2.71,9.17-53.27,10.76-60.12,4.77-.95,17.93-1.42,25.16-1.69,4.37-.16,5.43-.2,5.82-.29.38-.08,1.46-.31,3.94-4.65l.63.6c.25.24.56.35.88.35s.64-.12.88-.36c.1-.09,2.36-2.29,4.8-6.19,2.5-4,3.55-12.69,3.59-13.05.04-.38-.08-.75-.34-1.03-.14-.14-3.39-3.54-5.57-4.88-1.68-1.03-5.92-3.07-7.68-3.91l.83-16.12c.02-.38-.13-.75-.42-1.01l-9.44-8.56c-.24-.22-.55-.33-.86-.33h0Z" />
      <rect class="cls-8" x="137.2" y="83.95" width="1.91" height="37.92"
        transform="translate(-3.61 5.03) rotate(-2.06)" />
      <path class="cls-6"
        d="M137.89,122.21c-.17,0-.31-.14-.32-.31l-1.36-37.89c0-.09.03-.18.1-.24.06-.06.15-.1.24-.09l1.91.13c.16.01.29.14.3.31l1.36,37.69c0,.08-.03.17-.09.23-.06.06-.14.1-.22.1l-1.91.07s0,0-.01,0ZM136.85,84.34l1.34,37.22,1.27-.05-1.33-37.08-1.28-.09Z" />
      <path class="cls-6"
        d="M138.68,90.81l1.12,31-1.91.07-1.11-30.98-1.27.06,1.11,30.96c.02.69.59,1.23,1.27,1.23.02,0,.03,0,.05,0l1.91-.07c.34-.01.66-.16.89-.4.23-.25.35-.58.34-.91l-1.12-31.02-1.27.06Z" />
      <path class="cls-6"
        d="M76.78,161.09s-.06,0-.09-.01c-.17-.05-.27-.22-.22-.39,1.41-4.96.6-14.48.59-14.58-.02-.17.11-.33.29-.34.18-.02.33.11.34.29.03.4.83,9.73-.61,14.81-.04.14-.17.23-.31.23Z" />
      <path class="cls-6"
        d="M97.31,160.76c-.17,0-.31-.13-.32-.3-.01-.18.12-.33.29-.34.06,0,5.73-.42,9.86-2.53.16-.08.35-.02.43.14.08.16.02.35-.14.43-4.25,2.17-9.87,2.59-10.11,2.6,0,0-.01,0-.02,0Z" />
      <path class="cls-6"
        d="M54.09,165.87c-.15,0-.29-.11-.31-.27l-.87-5.49c-.03-.17.09-.34.26-.36.17-.03.34.09.36.26l.87,5.49c.03.17-.09.34-.26.36-.02,0-.03,0-.05,0Z" />
      <path class="cls-6"
        d="M30.56,163.76s-.02,0-.03,0c-.17-.02-.3-.17-.29-.35l.62-6.74c.01-.16.14-.28.3-.29.16,0,.3.09.33.25l1.39,6c.04.17-.07.34-.24.38-.17.04-.34-.07-.38-.24l-.94-4.07-.44,4.77c-.01.17-.15.29-.32.29Z" />
      <path class="cls-6"
        d="M23.39,162.81s-.06,0-.09-.01c-.17-.05-.27-.23-.22-.39l1.61-5.55c.05-.17.23-.27.39-.22.17.05.27.23.22.39l-1.61,5.55c-.04.14-.17.23-.31.23Z" />
      <path class="cls-6"
        d="M112.83,155.2c-.1,0-.21-.05-.27-.15-.1-.15-.05-.34.09-.44,1.09-.71,2.94-2.24,2.96-2.26.14-.11.34-.09.45.04.11.13.09.34-.04.45-.08.06-1.89,1.58-3.02,2.31-.05.03-.11.05-.17.05Z" />
      <path class="cls-6"
        d="M138.68,110.09l-.54-.24c.12-.05.23-.12.33-.21.45-.4.57-1.06.27-1.59l-1.77-3.11c-.23-.4-.65-.64-1.11-.64-.01,0-.02,0-.03,0l-4.84.12c-.38,0-.73.19-.97.49l-2.4,3.05-2.96-.69-.29,1.24,3.75.88,2.9-3.69,4.84-.12,1.77,3.11-2.87-2.18-3.14,1.04-1.84,1.47,3.63.11,4.76,2.12-4.83-.47-3.08-.35c.4.75,2.71,2.39,2.71,2.39,0,0,1.67,1.54,2.3,2.2l-2.8-1.61-3.93-2.14s-2.06.08-4.84.19l-.3,1.28c2.26-.09,4.1-.16,4.84-.19l3.62,1.97,2.78,1.59c.2.11.42.17.63.17.38,0,.75-.17,1-.49.39-.5.36-1.2-.08-1.66-.5-.53-1.58-1.54-2.09-2.01l3.94.38s.08,0,.12,0c.57,0,1.08-.38,1.23-.95.16-.6-.14-1.23-.71-1.49ZM134.12,108.06l.4-.13.99.75-1.39-.62Z" />
      <polygon class="cls-8" points="131.21 104.14 134.77 130.4 151.11 130.4 154.66 104.14 131.21 104.14" />
      <path class="cls-1" d="M152.69,118.7c-.87,2.67-2.64,9.55-2.64,9.55,0,0-5.05,1.56-7.27,2.15h8.33l1.58-11.69Z" />
      <polygon class="cls-1"
        points="154.66 104.14 156.55 104.14 156.55 98.96 153.7 98.96 153.21 95.94 146.3 95.94 139.58 95.94 132.67 95.94 132.18 98.96 129.32 98.96 129.32 104.14 131.21 104.14 154.66 104.14" />
      <path class="cls-6"
        d="M153.21,95.94l.49,3.01h2.85v5.19h-1.89s-3.56,26.25-3.56,26.25h-16.34l-3.56-26.25h-1.89s0-5.18,0-5.18h2.85l.49-3.01h20.55ZM153.21,94.67h-20.55c-.62,0-1.16.45-1.26,1.07l-.31,1.94h-1.77c-.7,0-1.27.57-1.27,1.27v5.19c0,.34.13.66.37.9.24.24.56.37.9.37h.78s3.41,25.15,3.41,25.15c.09.63.62,1.1,1.26,1.1h16.34c.64,0,1.18-.47,1.26-1.1l3.41-25.15h.78s0,0,0,0c.34,0,.66-.13.9-.37.24-.24.37-.56.37-.9v-5.19c0-.7-.57-1.27-1.27-1.27h-1.77l-.31-1.94c-.1-.62-.63-1.07-1.26-1.07h0Z" />
      <path class="cls-2"
        d="M130.25,110.44l3.08.35,4.83.47-4.76-2.12-3.63-.11,1.84-1.47,3.14-1.04,2.54,2.27-1.45-3.2-4.84.12-2.9,3.69-17.95-4.19-10.24-12.13-7.23,5.03c.09.4,14.47,14.07,16.59,13.95,1.91-.11,16.74-.68,19.25-.77h0l3.93,2.14,2.8,1.61c-.63-.66-2.3-2.2-2.3-2.2,0,0-2.31-1.63-2.71-2.39Z" />
      <path class="cls-6"
        d="M99.29,91.31c-.14,0-.26-.09-.3-.23l-.44-1.44c-.05-.17.04-.35.21-.4.17-.05.35.04.4.21l.44,1.44c.05.17-.04.35-.21.4-.03,0-.06.01-.09.01Z" />
      <path class="cls-6"
        d="M135.26,115.34c-.05,0-.11-.01-.16-.04l-2.8-1.61-3.85-2.1c-1.33.05-17.14.66-19.16.77-.99.09-4.12-2.25-9.28-6.86-2.54-2.27-7.54-6.91-7.63-7.34-.04-.17.07-.34.24-.38.15-.03.3.04.36.18.75,1.08,14.36,13.77,16.26,13.77,0,0,.01,0,.02,0,2.1-.12,19.08-.77,19.26-.77.06,0,.11.01.16.04l4.52,2.48c-.27-.25-.45-.42-.46-.42-.21-.15-2.36-1.67-2.78-2.47-.06-.1-.05-.23.02-.33.07-.1.18-.15.3-.14l3.08.35,2.88.28-2.92-1.3-3.57-.11c-.13,0-.25-.09-.29-.22-.04-.13,0-.27.1-.35l1.84-1.47s.06-.04.1-.05l3.14-1.04c.1-.03.21-.01.29.05l1.63,1.24-.91-1.6-4.5.11-2.81,3.57c-.08.1-.2.14-.32.11l-17.95-4.19c-.07-.02-.13-.05-.17-.1l-10.24-12.13c-.11-.13-.1-.34.04-.45.13-.11.33-.1.45.04l10.17,12.05,17.65,4.12,2.77-3.53c.06-.07.15-.12.24-.12l4.84-.12c.12,0,.23.06.28.16l1.77,3.11c.07.13.05.3-.07.4-.11.1-.28.11-.4.01l-2.74-2.07-2.93.97-1.12.9,2.77.08s.08.01.12.03l4.76,2.12c.14.06.22.22.18.37-.04.15-.19.25-.34.24l-4.83-.47-2.29-.26c.58.56,1.52,1.28,2.14,1.72.1.09,1.71,1.58,2.34,2.24.11.11.12.29.02.42-.06.08-.16.12-.25.12Z" />
      <path class="cls-6"
        d="M92.16,97.41c-.11,0-.22-.06-.28-.16l-.46-.81c-.09-.15-.03-.35.12-.43.15-.09.35-.03.43.12l.46.81c.09.15.03.35-.12.43-.05.03-.1.04-.16.04Z" />
      <path class="cls-6"
        d="M145.42,104.46h-16.55c-.18,0-.32-.14-.32-.32s.14-.32.32-.32h16.55c.18,0,.32.14.32.32s-.14.32-.32.32Z" />
      <path class="cls-6"
        d="M156.98,104.46h-7.69c-.18,0-.32-.14-.32-.32s.14-.32.32-.32h7.69c.18,0,.32.14.32.32s-.14.32-.32.32Z" />
      <path class="cls-3"
        d="M136.18,22.33c-3.27,0-5.92,2.65-5.92,5.92,0,1.38.47,2.64,1.26,3.65-.96-3.97,3.58-10.01,9.33-7.29-1.08-1.39-2.77-2.28-4.67-2.28Z" />
      <path class="cls-2"
        d="M156.93,111.67l-.62-6.15-4.62-.03-2.48,2.72,3.28-1.45,2.65.41.22,3.19-1.92-1.91-2.08,1.04.06,2.82,1.58-2.2,1.45,1.5c-.63.62-3.14,1.86-3.14,1.86l-1.11.22,2.17.44,2.36-.34s1.4-.13,1.68-.22c.65-.2.58-1.4.53-1.91Z" />
      <path class="cls-6"
        d="M152.35,114.46s-.03,0-.05,0l-2.47-.37c-.15-.02-.26-.15-.27-.3,0-.15.1-.29.25-.32l1.29-.29c.64-.3,2.17-1.07,2.87-1.57l-.95-.98-1.35,1.89c-.08.11-.22.16-.35.12-.13-.04-.22-.16-.22-.3l-.06-2.82c0-.12.07-.24.18-.29l2.08-1.04c.12-.06.27-.04.37.06l1.33,1.32-.14-2.1-2.31-.36-3.19,1.41c-.14.06-.3.02-.39-.1-.09-.12-.08-.29.02-.4l2.48-2.72c.06-.07.17-.1.24-.1l4.62.03c.16,0,.3.12.31.29l.62,6.14c.25,1.18-.02,1.94-.79,2.27-.03.01-.06.02-.09.02l-1.61.2-2.35.34s-.03,0-.05,0ZM151.48,113.69l.87.13,2.31-.33,1.57-.19c.31-.14.61-.47.38-1.56,0-.01,0-.02,0-.03l-.59-5.87-4.19-.03-1.37,1.5,1.9-.84c.06-.02.12-.03.18-.02l2.65.41c.15.02.26.14.27.29l.22,3.19c0,.13-.06.26-.19.31-.12.05-.26.03-.36-.06l-1.76-1.75-1.7.84.04,1.67,1.02-1.42c.05-.08.14-.12.24-.13.09,0,.19.03.25.1l1.45,1.5c.12.13.12.32,0,.45-.59.58-2.58,1.56-3.18,1.84ZM156.32,113.6h0,0Z" />
      <polygon class="cls-6" points="155.21 108.27 154.96 109.98 155.35 110.36 155.21 108.27" />
      <path class="cls-6"
        d="M158.19,111.48l-.61-6.09c-.07-.65-.61-1.14-1.26-1.14h-.52s-.18,1.27-.18,1.27h.7s.62,6.16.62,6.16c.2.93.09,1.64-.6,1.93l-1.61.2-.31.04-.19,1.31.68-.1,1.58-.19c.12-.01.24-.05.35-.09.7-.3,1.79-1.12,1.36-3.29Z" />
      <path class="cls-6"
        d="M154.31,99.03h-14.52c-.18,0-.32-.14-.32-.32s.14-.32.32-.32h14.52c.18,0,.32.14.32.32s-.14.32-.32.32Z" />
      <path class="cls-5"
        d="M26.32,152.76c-.16,0-.31-.06-.43-.17l-13.46-12.25c-.13-.12-.21-.29-.21-.47V23.8c0-.35.28-.64.64-.64h26.77c.35,0,.64.28.64.64v13.04c0,.35-.28.64-.64.64h-12.67v9.37h11.99c.35,0,.64.28.64.64v12.89c0,.35-.28.64-.64.64h-11.99v91.11c0,.25-.15.48-.38.58-.08.04-.17.05-.26.05Z" />
      <path class="cls-6"
        d="M39.63,23.8v13.04h-13.31v10.65h12.62v12.89h-12.62v91.75l-13.46-12.25V23.8h26.77ZM39.63,22.53H12.86c-.7,0-1.27.57-1.27,1.27v116.07c0,.36.15.7.42.94l13.46,12.25c.24.22.55.33.86.33.17,0,.35-.04.51-.11.46-.2.76-.66.76-1.16V61.65h11.35c.7,0,1.27-.57,1.27-1.27v-12.89c0-.7-.57-1.27-1.27-1.27h-11.35v-8.1h12.04c.7,0,1.27-.57,1.27-1.27v-13.04c0-.7-.57-1.27-1.27-1.27h0Z" />
      <path class="cls-5"
        d="M43.32,136.2c-.07,0-.15-.01-.22-.04-.25-.09-.42-.33-.42-.6V23.8c0-.35.28-.64.64-.64h12.93c.35,0,.64.28.64.64v96.57c0,.15-.05.3-.15.41l-12.93,15.19c-.12.15-.3.22-.48.22Z" />
      <path class="cls-6"
        d="M56.25,23.8v96.57l-12.93,15.19V23.8h12.93ZM56.25,22.53h-12.93c-.7,0-1.27.57-1.27,1.27v111.76c0,.53.33,1.01.83,1.19.14.05.29.08.44.08.37,0,.72-.16.97-.45l12.93-15.19c.2-.23.3-.52.3-.82V23.8c0-.7-.57-1.27-1.27-1.27h0Z" />
      <path class="cls-5"
        d="M59.82,116.81c-.07,0-.15-.01-.22-.04-.25-.09-.42-.33-.42-.6v-8.25s0-.09.01-.13l15.16-71.03h-13.06c-.35,0-.64-.28-.64-.64v-12.32c0-.35.28-.64.64-.64h27.95c.35,0,.64.28.64.64v11.71s0,.09-.01.13l-13.32,61.72c-.02.1-.07.2-.14.28l-16.11,18.93c-.12.14-.3.22-.48.22Z" />
      <path class="cls-6"
        d="M89.25,23.8v11.71l-13.32,61.72-16.11,18.93v-8.25l15.32-71.8h-13.84v-12.32h27.95ZM89.25,22.53h-27.95c-.7,0-1.27.57-1.27,1.27v12.32c0,.7.57,1.27,1.27,1.27h12.27l-15,70.26c-.02.09-.03.18-.03.27v8.25c0,.53.33,1.01.83,1.19.14.05.29.08.44.08.37,0,.72-.16.97-.45l16.11-18.93c.14-.16.23-.35.27-.56l13.32-61.72c.02-.09.03-.18.03-.27v-11.71c0-.7-.57-1.27-1.27-1.27h0Z" />
      <path class="cls-5"
        d="M105.52,41.11c-.12,0-.24-.03-.35-.1-.25-.16-.35-.47-.25-.75l1.26-3.5h-12.94c-.35,0-.64-.28-.64-.64v-12.32c0-.35.28-.64.64-.64h27.95c.35,0,.64.28.64.64v8.74c0,.21-.1.41-.28.52-.11.07-.23.11-.36.11-.08,0-.15-.01-.23-.04-2.51-.97-2.82-1.04-3.56-1.04h-.18c-1.49,0-2.32.38-11.27,8.84-.12.12-.28.17-.44.17Z" />
      <path class="cls-6"
        d="M121.2,23.8v8.74c-2.56-.98-2.93-1.08-3.79-1.09-.07,0-.13,0-.19,0-1.73,0-2.49.3-11.7,9.02l1.57-4.35h-13.84v-12.32h27.95ZM121.2,22.53h-27.95c-.7,0-1.27.57-1.27,1.27v12.32c0,.7.57,1.27,1.27,1.27h12.03l-.96,2.65c-.2.55,0,1.17.5,1.5.21.14.46.21.7.21.32,0,.63-.12.87-.35,8.71-8.25,9.59-8.67,10.83-8.67h.18c.62,0,.84.04,3.34,1,.15.06.3.08.46.08.25,0,.51-.08.72-.22.35-.24.55-.63.55-1.05v-8.74c0-.7-.57-1.27-1.27-1.27h0Z" />
      <path class="cls-8"
        d="M20.42,91.14c-2.49-1.24-5.05-1.67-7.56-1.51v24.95c2.97-.21,5.95.02,8.83.74,1.59.48,3.12,1.08,4.63,1.77v-22.4c-1.92-1.3-3.87-2.52-5.9-3.54Z" />
      <path class="cls-2"
        d="M12.86,74.9v14.73c2.51-.16,5.07.27,7.56,1.51,2.03,1.01,3.98,2.23,5.9,3.54v-18.57c-4.55-1.04-9.08-1.52-13.46-1.21Z" />
      <path class="cls-8"
        d="M38.95,60.38v-4.67c-4.54-1.96-9.18-3.74-14.07-4.65-4.14-.99-8.16-1.05-12.01-.41v24.24c4.38-.31,8.91.16,13.46,1.21v-15.72h12.62Z" />
      <path class="cls-8"
        d="M39.63,36.85v-13.04H12.86v10.23c1.47.05,2.93.21,4.38.5,3.06.68,6.08,1.65,9.08,2.73v-.41h13.31Z" />
      <path class="cls-2"
        d="M51.59,86.69c-2.66-1.55-5.43-3.03-8.27-4.4v23.17c2.22.87,4.53,1.45,7,1.59,2.02.07,4-.02,5.93-.23v-18.32c-1.54-.37-3.09-.95-4.66-1.8Z" />
      <path class="cls-8"
        d="M56.25,106.81c-1.94.21-3.91.3-5.93.23-2.46-.14-4.78-.72-7-1.59v20.88c1.96.89,3.98,1.62,6.08,2.09l6.85-8.05v-13.56Z" />
      <path class="cls-8"
        d="M56.25,88.49v-25.91c-4.36-1.18-8.63-3.04-12.93-4.94v24.64c2.84,1.37,5.61,2.86,8.27,4.4,1.57.86,3.12,1.43,4.66,1.8Z" />
      <path class="cls-8" d="M56.25,23.8h-12.93v19.83c4.27,1.37,8.56,2.35,12.93,2.48v-22.31Z" />
      <path class="cls-8"
        d="M84.68,56.7c-3.27,2.53-6.69,4.71-10.83,5.82-1.55.5-3.07.84-4.56,1.06l-5.36,25.09c5.15-.9,10.19-3.6,15.24-6.44l5.51-25.53Z" />
      <path class="cls-8" d="M60.19,106.21l-.36,1.71v8.25l11.22-13.19c-3.55,1.34-7.14,2.49-10.86,3.22Z" />
      <path class="cls-2"
        d="M79.18,82.22c-5.05,2.84-10.1,5.53-15.24,6.44l-3.75,17.55c3.72-.73,7.31-1.88,10.86-3.22l4.89-5.75,3.24-15.01Z" />
      <path class="cls-8" d="M61.31,23.8v12.32h13.84l-1.12,5.24c5.2-2.64,10.15-5.75,15.23-8.4v-9.16h-27.95Z" />
      <path class="cls-8" d="M93.25,23.8v7.21c6.71-3.04,13.77-4.89,21.95-3.48,2.09.39,4.08.98,6,1.67v-5.4h-27.95Z" />
      <path class="cls-7"
        d="M136.18,34.81c-3.62,0-6.56-2.94-6.56-6.56s2.94-6.56,6.56-6.56,6.56,2.94,6.56,6.56-2.94,6.56-6.56,6.56Z" />
      <path class="cls-6"
        d="M136.18,22.33c3.27,0,5.92,2.65,5.92,5.92s-2.65,5.92-5.92,5.92-5.92-2.65-5.92-5.92,2.65-5.92,5.92-5.92h0ZM136.18,21.05c-3.97,0-7.2,3.23-7.2,7.2s3.23,7.2,7.2,7.2,7.2-3.23,7.2-7.2-3.23-7.2-7.2-7.2h0Z" />
      <path class="cls-3"
        d="M138.69,22.9c-.76-.36-1.62-.57-2.52-.57-3.04,0-5.55,2.3-5.88,5.25,2.14-2.58,4.95-4.41,8.4-4.68Z" />
      <path class="cls-8"
        d="M140.98,24.8c.85,3.9-.14,7.6-4.9,9.38.03,0,.06,0,.09,0,3.27,0,5.92-2.65,5.92-5.92,0-1.29-.42-2.48-1.12-3.46Z" />
      <circle class="cls-7" cx="12.57" cy="120.09" r="7.73" />
      <path class="cls-6"
        d="M12.57,112.99c3.92,0,7.1,3.18,7.1,7.1s-3.18,7.1-7.1,7.1-7.1-3.18-7.1-7.1,3.18-7.1,7.1-7.1h0ZM12.57,111.72c-4.61,0-8.37,3.75-8.37,8.37s3.75,8.37,8.37,8.37,8.37-3.75,8.37-8.37-3.75-8.37-8.37-8.37h0Z" />
      <path class="cls-8"
        d="M9.71,126.58c.87.38,1.84.6,2.86.6,3.92,0,7.1-3.18,7.1-7.1,0-1.2-.3-2.33-.82-3.32.35,5.86-3.49,10.41-9.13,9.81Z" />
      <path class="cls-3"
        d="M12.57,112.99c-3.92,0-7.1,3.18-7.1,7.1,0,1.65.57,3.16,1.51,4.37-1.15-4.75,4.28-11.99,11.17-8.73-1.3-1.66-3.32-2.74-5.59-2.74Z" />
      <circle class="cls-7" cx="83.24" cy="65.52" r="7.73" />
      <path class="cls-6"
        d="M83.24,58.42c3.92,0,7.1,3.18,7.1,7.1s-3.18,7.1-7.1,7.1-7.1-3.18-7.1-7.1,3.18-7.1,7.1-7.1h0ZM83.24,57.15c-4.61,0-8.37,3.75-8.37,8.37s3.75,8.37,8.37,8.37,8.37-3.75,8.37-8.37-3.75-8.37-8.37-8.37h0Z" />
      <path class="cls-8"
        d="M80.39,72.01c.87.38,1.83.6,2.85.6,3.92,0,7.1-3.18,7.1-7.1,0-1.06-.24-2.06-.65-2.96-.02,5.97-3.2,9.93-9.29,9.46Z" />
      <path class="cls-3"
        d="M83.24,58.42c-3.92,0-7.1,3.18-7.1,7.1,0,1.65.57,3.16,1.51,4.37-1.15-4.75,4.28-11.99,11.18-8.73-1.3-1.66-3.32-2.74-5.59-2.74Z" />
      <circle class="cls-7" cx="41.93" cy="79.38" r="7.73" />
      <path class="cls-6"
        d="M41.93,72.28c3.92,0,7.1,3.18,7.1,7.1s-3.18,7.1-7.1,7.1-7.1-3.18-7.1-7.1,3.18-7.1,7.1-7.1h0ZM41.93,71.01c-4.61,0-8.37,3.75-8.37,8.37s3.75,8.37,8.37,8.37,8.37-3.75,8.37-8.37-3.75-8.37-8.37-8.37h0Z" />
      <path class="cls-1"
        d="M40.18,86.24c.56.14,1.14.23,1.75.23,3.92,0,7.1-3.18,7.1-7.1,0-.41-.04-.8-.11-1.19-1.01,4.41-4.31,7.16-8.74,8.06Z" />
      <path class="cls-3"
        d="M41.93,72.28c-3.92,0-7.1,3.18-7.1,7.1,0,1.65.57,3.16,1.51,4.37-1.15-4.75,4.28-11.99,11.18-8.73-1.3-1.66-3.32-2.73-5.59-2.73Z" />
      <circle class="cls-7" cx="106.14" cy="22.33" r="6.06" />
      <path class="cls-6"
        d="M106.14,16.9c3,0,5.43,2.43,5.43,5.43s-2.43,5.43-5.43,5.43-5.43-2.43-5.43-5.43,2.43-5.43,5.43-5.43h0ZM106.14,15.63c-3.69,0-6.7,3.01-6.7,6.7s3.01,6.7,6.7,6.7,6.7-3.01,6.7-6.7-3.01-6.7-6.7-6.7h0Z" />
      <path class="cls-8"
        d="M103.9,27.27c.68.31,1.44.49,2.24.49,3,0,5.43-2.43,5.43-5.43,0-.95-.25-1.85-.68-2.63.38,3.88-1.74,7.41-6.99,7.57Z" />
      <path class="cls-3"
        d="M106.14,16.9c-3,0-5.43,2.43-5.43,5.43,0,1.26.43,2.42,1.16,3.34-.88-3.63,3.28-9.17,8.55-6.68-.99-1.27-2.54-2.09-4.28-2.09Z" />
      <circle class="cls-7" cx="71.34" cy="110.36" r="8.59" transform="translate(-49.4 162.25) rotate(-80.38)" />
      <path class="cls-6"
        d="M71.34,102.41c4.39,0,7.95,3.56,7.95,7.95s-3.56,7.95-7.95,7.95-7.95-3.56-7.95-7.95,3.56-7.95,7.95-7.95h0ZM71.34,101.14c-5.09,0-9.22,4.14-9.22,9.22s4.14,9.22,9.22,9.22,9.22-4.14,9.22-9.22-4.14-9.22-9.22-9.22h0Z" />
      <path class="cls-8"
        d="M68.19,117.66c.97.42,2.03.65,3.16.65,4.39,0,7.95-3.56,7.95-7.95,0-1.55-.45-2.99-1.22-4.21.61,6.08-3.54,11.49-9.89,11.51Z" />
      <path class="cls-3"
        d="M71.34,102.41c-4.39,0-7.95,3.56-7.95,7.95,0,1.85.64,3.54,1.69,4.89-1.29-5.32,4.8-13.44,12.52-9.78-1.45-1.86-3.72-3.06-6.26-3.06Z" />
      <path class="cls-7"
        d="M154.21,134.8c-3.34,0-6.06-2.72-6.06-6.06s2.72-6.06,6.06-6.06,6.06,2.72,6.06,6.06-2.72,6.06-6.06,6.06Z" />
      <path class="cls-6"
        d="M154.21,123.31c3,0,5.43,2.43,5.43,5.43s-2.43,5.43-5.43,5.43-5.43-2.43-5.43-5.43,2.43-5.43,5.43-5.43h0ZM154.21,122.03c-3.69,0-6.7,3.01-6.7,6.7s3.01,6.7,6.7,6.7,6.7-3.01,6.7-6.7-3.01-6.7-6.7-6.7h0Z" />
      <path class="cls-1"
        d="M153.1,134.05c.36.07.73.11,1.11.11,3,0,5.43-2.43,5.43-5.43,0-1.23-.41-2.36-1.1-3.27.65,5.45-2.35,8.03-5.43,8.58Z" />
      <path class="cls-3"
        d="M154.21,123.31c-3,0-5.43,2.43-5.43,5.43,0,1.26.43,2.42,1.16,3.34-.88-3.63,3.28-9.17,8.55-6.68-.99-1.27-2.54-2.09-4.28-2.09Z" />
      <path class="cls-7"
        d="M39.63,152.01c-3.34,0-6.06-2.72-6.06-6.06s2.72-6.06,6.06-6.06,6.06,2.72,6.06,6.06-2.72,6.06-6.06,6.06Z" />
      <path class="cls-6"
        d="M39.63,140.52c3,0,5.43,2.43,5.43,5.43s-2.43,5.43-5.43,5.43-5.43-2.43-5.43-5.43,2.43-5.43,5.43-5.43h0ZM39.63,139.25c-3.69,0-6.7,3.01-6.7,6.7s3.01,6.7,6.7,6.7,6.7-3.01,6.7-6.7-3.01-6.7-6.7-6.7h0Z" />
      <path class="cls-8"
        d="M43.38,142.03c1.79,4.54-1.13,8.86-5.83,8.93.64.27,1.34.41,2.08.41,3,0,5.43-2.43,5.43-5.43,0-1.54-.64-2.93-1.68-3.92Z" />
      <path class="cls-3"
        d="M39.63,140.52c-3,0-5.43,2.43-5.43,5.43,0,1.26.43,2.42,1.16,3.34-.88-3.63,3.28-9.17,8.55-6.68-.99-1.27-2.54-2.09-4.28-2.09Z" />
      <path class="cls-7"
        d="M73.41,20.3c-4.26,0-7.73-3.47-7.73-7.73s3.47-7.73,7.73-7.73,7.73,3.47,7.73,7.73-3.47,7.73-7.73,7.73Z" />
      <path class="cls-6"
        d="M73.41,5.47c3.92,0,7.1,3.18,7.1,7.1s-3.18,7.1-7.1,7.1-7.1-3.18-7.1-7.1,3.18-7.1,7.1-7.1h0ZM73.41,4.2c-4.61,0-8.37,3.75-8.37,8.37s3.75,8.37,8.37,8.37,8.37-3.75,8.37-8.37-3.75-8.37-8.37-8.37h0Z" />
      <path class="cls-8"
        d="M70.39,18.99c.92.43,1.93.68,3.01.68,3.92,0,7.1-3.18,7.1-7.1,0-.95-.19-1.86-.53-2.69-.99,8.25-6.79,8.53-9.58,9.11Z" />
      <path class="cls-3"
        d="M73.41,5.47c-3.92,0-7.1,3.18-7.1,7.1,0,1.65.57,3.16,1.51,4.37-1.15-4.75,4.28-11.99,11.18-8.73-1.3-1.66-3.32-2.73-5.59-2.73Z" />
      <path class="cls-7"
        d="M25.12,25.21c-3.28,0-5.96-2.67-5.96-5.96s2.67-5.96,5.96-5.96,5.96,2.67,5.96,5.96-2.67,5.96-5.96,5.96Z" />
      <path class="cls-6"
        d="M25.12,13.93c2.94,0,5.32,2.38,5.32,5.32s-2.38,5.32-5.32,5.32-5.32-2.38-5.32-5.32,2.38-5.32,5.32-5.32h0ZM25.12,12.66c-3.64,0-6.59,2.96-6.59,6.59s2.96,6.59,6.59,6.59,6.59-2.96,6.59-6.59-2.96-6.59-6.59-6.59h0Z" />
      <path class="cls-8" d="M24.1,24.48c.33.06.67.1,1.02.1,2.87,0,5.2-2.28,5.31-5.12-1,2.65-2.3,5.06-6.33,5.02Z" />
      <path class="cls-3"
        d="M25.12,13.93c-2.94,0-5.32,2.38-5.32,5.32,0,1.24.43,2.37,1.13,3.28-.87-3.56,3.21-8.99,8.38-6.55-.97-1.25-2.49-2.05-4.19-2.05Z" />
      <path class="cls-6"
        d="M113.78,77.16c-.08,0-.15-.03-.21-.08-.4-.35-.99-1.11-1.47-2.17-.07-.16,0-.35.16-.42.16-.07.35,0,.42.16.44.97.98,1.66,1.31,1.96.13.12.14.32.03.45-.06.07-.15.11-.24.11Z" />
      <path class="cls-6"
        d="M111.84,73.34c-.15,0-.29-.11-.31-.26-.12-.71-.12-1.39,0-2.02.39-2.01,1.79-3.16,2.22-3.47.14-.1.34-.07.44.07.1.14.07.34-.07.44-.77.56-1.69,1.66-1.96,3.07-.11.56-.11,1.17,0,1.8.03.17-.09.34-.26.37-.02,0-.04,0-.05,0Z" />
      <path class="cls-6"
        d="M159.05,67.28c1.76.34,3.61,1.22,4.32,2.96.07.16-.01.35-.17.42-.14.06-.3,0-.38-.11-.83-1.22-2.48-1.59-3.86-1.54-1.29.04-1.19-1.9.09-1.72h0Z" />
      <path class="cls-6"
        d="M170.22,67.33c-.64.78-1.24,1.78-1.34,2.8-.02.18-.17.31-.35.29-.14-.01-.26-.12-.28-.26-.18-.95,0-1.88.27-2.78.1-.31.2-.6.34-.92.19-.41.67-.59,1.08-.41.5.21.64.89.28,1.29h0Z" />
      <path class="cls-6"
        d="M158.52,58.58s-4.45-1.6-7.67-2.76c-3.18-1.14-10.68-3.26-10.76-3.28-.17-.05-.27-.22-.22-.39.05-.17.22-.27.39-.22.08.02,7.6,2.15,10.8,3.3,3.23,1.16,7.67,2.76,7.67,2.76l-.22.6Z" />
      <path class="cls-6"
        d="M137.89,51.08c-.09,0-.18-.04-.25-.12-1.08-1.33-3.08-3.7-4.36-4.69-1.71-1.31-15.48-9.92-16.06-10.21-.17-.06-.24-.23-.18-.4.06-.17.25-.25.42-.19.36.12,14.58,9.04,16.22,10.3,1.33,1.02,3.37,3.44,4.47,4.79.11.14.09.34-.05.45-.06.05-.13.07-.2.07Z" />
      <path class="cls-6"
        d="M138.9,51.08s-.1-.01-.14-.03c-.15-.08-.22-.26-.15-.41.01-.03.04-.13.09-.26,1.34-4.16,5.11-14.24,11.21-17.89.15-.09.35-.04.44.11.09.15.04.35-.11.44-5.91,3.54-9.61,13.45-10.93,17.54-.06.2-.11.32-.12.34-.06.11-.17.18-.28.18Z" />
      <path class="cls-6"
        d="M158.22,82.44c-.05,0-.11-.01-.16-.04-.15-.09-.21-.28-.12-.43.48-.85.74-2.18.74-3.72h.64c0,1.65-.29,3.09-.82,4.03-.06.1-.17.16-.28.16Z" />
      <path class="cls-6"
        d="M160.33,83.3c-.06,0-.12-.02-.17-.05-.15-.1-.19-.29-.1-.44.17-.26.49-1.62.66-2.51.03-.17.2-.29.37-.25.17.03.28.2.25.37-.07.37-.45,2.27-.75,2.73-.06.09-.16.15-.27.15Z" />
      <path class="cls-6"
        d="M145.68,84.28c-.18,0-.32-.14-.32-.32v-2.29c0-.18.14-.32.32-.32s.32.14.32.32v2.29c0,.18-.14.32-.32.32Z" />
      <path class="cls-6"
        d="M142.86,84.59c-.17,0-.31-.13-.32-.3-.08-1.81,0-1.96.03-2.04.08-.16.27-.22.43-.15.15.07.21.24.16.39-.03.17-.01,1.04.02,1.76,0,.18-.13.32-.3.33,0,0,0,0-.01,0Z" />
      <path class="cls-6"
        d="M128.69,73.54c-.13,0-.25-.08-.3-.21-1.19-3.45-4-4.9-4.15-4.97-.13-.04-.22-.16-.22-.3,0-.18.14-.32.32-.32s3.33,1.58,4.65,5.39c.06.17-.03.35-.2.4-.03.01-.07.02-.1.02Z" />
      <path class="cls-6"
        d="M162.84,84.59c-.06,0-.12-.02-.17-.05-.15-.1-.19-.29-.09-.44l.84-1.29c.1-.15.29-.19.44-.09.15.1.19.29.09.44l-.84,1.29c-.06.09-.16.14-.27.14Z" />
      <path class="cls-6"
        d="M145.68,80.5c-.18,0-.32-.14-.32-.32v-1.61c0-.18.14-.32.32-.32s.32.14.32.32v1.61c0,.18-.14.32-.32.32Z" />
      <path class="cls-6"
        d="M150.5,82.7c-.18,0-.32-.14-.32-.32v-1.04c0-.18.14-.32.32-.32s.32.14.32.32v1.04c0,.18-.14.32-.32.32Z" />
      <path class="cls-6"
        d="M103.19,80.5c-.12,0-.23-.07-.29-.18-1.48-3.1-2.76-8-2.28-11.92.02-.17.18-.3.35-.28.17.02.3.18.28.35-.47,3.8.78,8.55,2.22,11.57.08.16,0,.35-.15.42-.04.02-.09.03-.14.03Z" />
      <path class="cls-6"
        d="M105.28,83.65c-.08,0-.16-.03-.22-.09-.4-.38-.81-.89-1.22-1.52-.09-.15-.05-.34.1-.44.15-.1.34-.05.44.1.38.59.75,1.06,1.12,1.4.13.12.13.32.01.45-.06.07-.15.1-.23.1Z" />
      <path class="cls-6"
        d="M108.69,84.99c-.09,0-.18-.04-.24-.11-.12-.13-.1-.33.03-.45.28-.25.57-.5.87-.74.14-.11.34-.09.45.05.11.14.09.34-.05.45-.29.23-.57.47-.85.72-.06.05-.14.08-.21.08Z" />
      <path class="cls-6"
        d="M110.69,83.39c-.1,0-.2-.05-.26-.13-.1-.14-.07-.34.08-.44,2.7-1.91,5.61-3.04,8.64-3.35.18-.02.33.11.35.28.02.17-.11.33-.28.35-2.92.3-5.73,1.39-8.34,3.24-.06.04-.12.06-.18.06Z" />
      <path class="cls-3"
        d="M114.59,69c-1.42.97-3.66,7.51,6.5,11.71,8.59,3.2,13.5,2.84,13.5,2.84,0,0-4.86-3.98-5.69-6.71-.26-.86-.75-3.34-2.3-5.3-1.19-1.51-3.23-2.56-4.85-3.27-3.83-1.67-5.73-.24-7.15.73Z" />
      <path class="cls-6"
        d="M143.36,84.59c-2.57,0-7.97-.5-8.83-.73-.57-.04-8.17-.58-13.57-2.86-3.93-1.66-6.96-4.35-7.9-7.02-.47-1.34-.4-2.64.2-3.75.86-1.6,2.26-2.59,4.04-2.87,2.82-.44,6.41.95,9.15,3.56,1.29,1.23,2.13,3.54,2.74,5.23.25.68.46,1.27.61,1.51,1.87,2.91,4.72,5.46,4.94,5.62,0,0,0,0,0,0,.41.12,6.78.78,9.21.66,1.43-.07,4.92-1.22,7.46-2.05,2-.66,3.15-1.03,3.58-1.06,1.12-.08,6.91,2.49,7.57,2.78.16.07.23.26.16.42-.07.16-.26.23-.42.16-2.43-1.08-6.54-2.78-7.26-2.73-.38.03-1.86.52-3.43,1.03-2.72.9-6.11,2.01-7.63,2.09-.18,0-.4.01-.63.01ZM118.39,67.91c-.34,0-.67.02-.99.08-1.6.25-2.8,1.11-3.58,2.55-.52.96-.57,2.05-.16,3.24.88,2.51,3.77,5.06,7.54,6.65,4.35,1.83,10.17,2.53,12.43,2.74-1.08-1.01-3.01-3.02-4.38-5.16-.19-.3-.39-.86-.68-1.64-.56-1.54-1.4-3.86-2.58-4.99-2.28-2.17-5.16-3.46-7.61-3.46Z" />
      <path class="cls-6"
        d="M129.93,83.14s-.1-.01-.14-.03c-.1-.05-.17-.15-.17-.26l-.32-4.09-5.17,2.95c-.1.06-.23.05-.33-.01-.1-.07-.15-.18-.14-.3l1.27-10.05-6.79,7.45c-.09.09-.22.13-.34.09-.12-.04-.2-.15-.21-.27-.03-.29-.56-6.47-.44-9.87l-3.8,4.2c-.12.13-.32.14-.45.02-.13-.12-.14-.32-.02-.45l4.41-4.87c.09-.1.24-.13.36-.08.13.06.2.19.19.32-.24,2.43.16,7.96.32,9.94l6.98-7.65c.09-.1.24-.13.37-.07.13.06.2.19.18.33l-1.32,10.42,5.06-2.88c.09-.05.21-.06.31,0,.1.05.16.15.17.26l.32,4.06c2.06-1.3,2.08-1.28,2.29-1.06.12.13.12.33-.01.45-.05.04-.1.07-.16.08-.22.1-1.28.75-2.22,1.35-.05.03-.11.05-.17.05Z" />
      <path class="cls-6"
        d="M127.79,91.96h-7.94s-.09,0-.13-.03l-3.94-1.7c-.16-.07-.24-.26-.17-.42.07-.16.26-.24.42-.17l3.88,1.67h7.87c.18,0,.32.14.32.32s-.14.32-.32.32Z" />
      <path class="cls-6"
        d="M118.73,70.34s-.05,0-.07,0c-.17-.04-.28-.21-.24-.38l.54-2.31c.04-.17.21-.28.38-.24.17.04.28.21.24.38l-.54,2.31c-.03.15-.16.25-.31.25Z" />
      <path class="cls-6"
        d="M120.99,70.34s-.08,0-.12-.03c-.16-.07-.24-.26-.17-.42l.75-1.75c.07-.16.26-.24.42-.17.16.07.24.26.17.42l-.75,1.75c-.05.12-.17.19-.29.19Z" />
      <path class="cls-5"
        d="M135.38,52.77c-.13.02-.28.01-.41-.03-.48-.15-.75-.66-.6-1.14.79-2.54,4.13-3.94,6.98-4.41.01,0,.02,0,.03,0,2.85-.46,6.44-.18,8.01,1.99.29.41.2.97-.2,1.27-.41.29-.97.2-1.27-.2-.88-1.22-3.38-1.72-6.24-1.26-.01,0-.02,0-.03,0-2.83.46-5.1,1.76-5.54,3.15-.11.34-.39.57-.72.63Z" />
      <path class="cls-3"
        d="M138.87,47.83c.02.64.05,1.28.08,1.92.47-.19.98-.36,1.52-.5,0-.62,0-1.23-.06-1.85-.52.12-1.04.26-1.55.44Z" />
      <path class="cls-3"
        d="M142.49,47.05c-.05.6-.1,1.22-.12,1.84.53-.06,1.04-.08,1.52-.07.08-.61.16-1.21.19-1.81-.53-.02-1.07,0-1.59.04Z" />
      <path class="cls-6"
        d="M135.24,53.1c-.12,0-.24-.02-.36-.06-.65-.2-1.01-.89-.81-1.54.83-2.68,4.28-4.14,7.23-4.63,2.97-.48,6.7-.17,8.35,2.11.4.55.27,1.32-.28,1.71-.55.39-1.32.27-1.71-.28-.8-1.1-3.23-1.57-5.93-1.13-2.7.44-4.92,1.67-5.32,2.94-.14.45-.51.77-.98.85h0c-.06.01-.13.02-.19.02ZM135.38,52.77h0,0ZM143.7,47.32c-.77,0-1.54.07-2.26.18-2.79.46-6.01,1.79-6.76,4.19-.1.31.08.64.39.74.09.03.18.03.27.02.22-.04.4-.19.47-.41.48-1.53,2.8-2.89,5.79-3.37,3.05-.49,5.62.06,6.58,1.39.19.26.56.32.83.13.26-.19.32-.56.13-.82-1.09-1.51-3.26-2.05-5.43-2.05Z" />
      <path class="cls-8"
        d="M135.19,48.86c0,.28-.02.55-.06.8-.35,2.09-1.28,4.2-2.45,6.17-.95,1.61-2.08,3.13-3.18,4.48-.37.45-.73.87-1.09,1.27-1.65,1.86-3.12,3.25-3.78,3.84-.8-.3-2.57-1-4.68-2.05-.56-.28-1.14-.58-1.74-.91-3.39-1.87-7.19-4.51-9.24-7.79-.02-.03-.04-.05-.06-.09-.83-1.34-1.06-3.31-.6-5.03.05-.18.1-.36.16-.52.41-1.16,1.34-2.7,3.44-3.45.04-.01.08-.03.12-.04.3-.1.59-.17.89-.22,2.8-.45,5.24,1.36,6.61,2.68.69.66,1.12,1.21,1.16,1.27,0,0,.3.4.8.32.5-.08.69-.62.69-.62.06-.21,1.13-4.03,3.96-5.76.79-.48,1.72-.8,2.8-.84.7-.02,1.32.07,1.86.24,1.23.37,2.09,1.1,2.66,1.75,1.09,1.25,1.73,2.97,1.73,4.5Z" />
      <path class="cls-1"
        d="M135.19,48.86c0,.28-.02.55-.06.8-.35,2.09-1.28,4.2-2.45,6.17l-6,8.47s-1.98,1.78-1.98,1.78c0,0-1.64-1.26-1.63-1.29l-14.09-10.13s-.04-.06-.06-.09c-.83-1.34-1.06-3.31-.61-5.03l14.79,13.42s-8.59-14.03-11.08-17.44c.3-.1.59-.17.89-.22,2.8-.45,5.24,1.36,6.61,2.68,1.68,4.49,4.46,14.94,4.46,14.94,0,0,1.67-15.17,2.16-19.73.79-.48,1.71-.8,2.79-.83.7-.02,1.32.07,1.86.24-1.58,4.68-5.35,20.25-5.35,20.25l9.75-14Z" />
      <path class="cls-5"
        d="M124.39,67.12c-.14.02-.29,0-.44-.05-2.89-1.13-12.64-5.31-16.57-11.85-1.07-1.78-1.3-4.44-.57-6.61.47-1.4,1.56-3.26,4.02-4.15.39-.14.78-.24,1.18-.31,4.8-.77,8.62,4.29,8.8,4.54,0,0,.02-.04.04-.08.22-.8,2.2-7.35,7.66-7.49,2.64-.07,4.35,1.28,5.32,2.42,1.48,1.75,2.26,4.28,1.93,6.32-1.2,7.51-8.67,14.94-10.94,17.04-.12.12-.28.19-.44.21ZM112.3,45.9c-.3.05-.59.12-.88.23-1.83.66-2.63,2.04-2.98,3.08-.56,1.67-.4,3.76.4,5.1,3.49,5.81,12.45,9.8,15.22,10.92,2.15-2.05,8.96-9.01,10.02-15.66.24-1.52-.39-3.52-1.53-4.87-.72-.85-2-1.86-3.97-1.81-4.44.12-6.02,6.01-6.08,6.26,0,.02-.01.05-.02.07-.17.48-.63,1.09-1.37,1.21-.75.12-1.36-.3-1.64-.69-.03-.04-3.34-4.46-7.15-3.85Z" />
      <path class="cls-5"
        d="M124.99,67.32l-.45-.15c-.51-.17-12.53-4.35-17.06-11.71-1.18-1.92-1.42-4.67-.6-6.99.75-2.13,2.33-3.72,4.45-4.47,4.37-1.55,8.02,1.38,9.71,3.14.92-2.25,3.2-6.29,7.84-6.43,2.27-.07,4.34.84,5.84,2.56,1.62,1.86,2.43,4.48,2.06,6.68-1.43,8.48-11.02,16.73-11.43,17.07l-.36.31ZM112.91,45.31c-.33.05-.67.14-1.01.26-2.1.75-3.03,2.29-3.44,3.45-.65,1.84-.47,4.07.45,5.56,3.74,6.08,13.5,10.01,15.72,10.84,1.75-1.58,9.32-8.76,10.5-15.76.29-1.7-.38-3.83-1.67-5.31-.82-.94-2.28-2.06-4.53-1.99-4.95.15-6.68,6.33-6.76,6.6,0,0-.2.54-.7.62-.5.08-.8-.33-.8-.33-.16-.21-3.57-4.63-7.78-3.95Z" />
      <path class="cls-3"
        d="M110.74,46.13c-.2-.53-.4-1.07-.6-1.59-.58.33-1.1.73-1.57,1.2.33.48.66.94.98,1.4.32-.36.71-.71,1.18-1.01Z" />
      <path class="cls-3"
        d="M108.26,49.72c-.5-.33-.98-.67-1.44-1.04-.26.83-.4,1.7-.41,2.56.55.26,1.12.52,1.7.78-.07-.76-.03-1.55.14-2.3Z" />
      <path class="cls-3"
        d="M108.91,54.57c-.22-.35-.39-.75-.52-1.17-.58.01-1.16.04-1.73.04.18.72.45,1.41.82,2.01.15.24.3.47.46.7.45-.32.92-.63,1.4-.92-.15-.22-.3-.44-.44-.66Z" />
      <path class="cls-3"
        d="M123.32,46.29c-.36-.47-.75-.93-1.12-1.42-.29.45-.53.9-.74,1.32.36.56.72,1.09,1.13,1.6.18-.44.42-.96.73-1.5Z" />
      <path class="cls-3"
        d="M125.01,41.92c-.51.34-.98.73-1.39,1.15.38.41.78.81,1.18,1.22.41-.42.87-.8,1.39-1.11-.37-.43-.76-.85-1.17-1.26Z" />
      <path class="cls-3"
        d="M128.89,40.69c-.6.02-1.16.1-1.68.24.32.52.65,1.03,1.02,1.5.23-.04.47-.06.72-.07.83-.02,1.55.11,2.18.34-.19-.63-.39-1.26-.61-1.89-.52-.1-1.06-.14-1.61-.12Z" />
      <path class="cls-6"
        d="M124.99,67.64s-.07,0-.1-.02l-.45-.15c-.51-.18-12.64-4.39-17.23-11.85-1.23-2-1.48-4.85-.63-7.26.78-2.22,2.43-3.88,4.65-4.67,4.24-1.51,7.79,1,9.71,2.88,1.08-2.44,3.44-6.06,7.94-6.19,2.37-.06,4.53.88,6.09,2.67,1.68,1.93,2.52,4.65,2.13,6.95-1.45,8.6-11.12,16.91-11.54,17.26l-.36.31c-.06.05-.13.08-.21.08ZM113.84,43.87c-.77,0-1.57.13-2.39.42-2.03.72-3.54,2.24-4.26,4.28-.79,2.24-.56,4.88.57,6.72,4.47,7.27,16.39,11.41,16.89,11.58l.28.1.22-.19c.4-.34,9.91-8.51,11.32-16.88.36-2.11-.42-4.63-1.98-6.42-1.44-1.65-3.43-2.53-5.59-2.45-4.42.13-6.63,3.96-7.55,6.23-.04.1-.13.17-.23.19-.11.02-.21-.01-.29-.09-1.37-1.42-3.89-3.48-6.98-3.48ZM124.63,65.73s-.08,0-.11-.02c-1.98-.74-12.06-4.76-15.88-10.97-.96-1.56-1.15-3.91-.48-5.83.43-1.23,1.41-2.86,3.63-3.65.35-.12.71-.22,1.06-.27h0c4.4-.71,7.93,3.88,8.08,4.07,0,0,.2.25.49.2.3-.05.45-.42.45-.42.06-.24,1.86-6.65,7.04-6.8,2.37-.07,3.91,1.1,4.78,2.1,1.34,1.54,2.04,3.78,1.74,5.57-1.2,7.15-9.04,14.53-10.6,15.94-.06.05-.14.08-.21.08ZM112.96,45.62h0c-.32.05-.64.13-.95.24-1.98.71-2.86,2.16-3.24,3.26-.62,1.75-.45,3.88.42,5.29,3.61,5.87,13.07,9.76,15.38,10.64,1.82-1.66,9.12-8.69,10.26-15.44.27-1.61-.37-3.64-1.59-5.04-.78-.89-2.15-1.94-4.28-1.88-4.72.14-6.39,6.11-6.46,6.36-.02.06-.28.74-.95.85-.54.09-.95-.24-1.1-.45-.14-.18-3.44-4.48-7.47-3.83Z" />
      <path class="cls-8"
        d="M174.53,42.53c0,.28-.02.55-.06.8-.35,2.09-1.28,4.21-2.45,6.17-.93,1.58-2.03,3.07-3.11,4.39-2.08,2.54-4.13,4.46-4.94,5.19-1.01-.38-3.56-1.39-6.39-2.95-3.4-1.87-7.21-4.52-9.27-7.81-.02-.03-.04-.05-.06-.09-.83-1.34-1.06-3.31-.61-5.03.05-.18.1-.36.16-.52.41-1.16,1.33-2.7,3.44-3.45.04-.01.08-.03.12-.04.3-.1.6-.17.89-.22,2.8-.45,5.25,1.36,6.61,2.68.7.66,1.12,1.21,1.17,1.27,0,0,.3.4.8.32.5-.08.69-.62.69-.62.06-.21,1.13-4.03,3.97-5.76.79-.48,1.71-.8,2.79-.84.7-.02,1.32.07,1.87.24,1.22.37,2.09,1.1,2.66,1.75,1.09,1.25,1.73,2.97,1.73,4.5Z" />
      <path class="cls-1"
        d="M174.53,42.53c0,.28-.02.55-.06.8-.35,2.09-1.28,4.2-2.45,6.17l-6.75,9.58-2.72.39-14.24-11.15s-.04-.06-.06-.09c-.83-1.34-1.06-3.31-.61-5.03l15.02,14.32s-8.82-14.93-11.3-18.34c.3-.1.59-.17.89-.22,2.8-.45,5.24,1.36,6.61,2.68,1.68,4.49,3.77,13.45,4.58,15.59l.13-.02c.34-3.31,1.41-15.8,1.91-20.36.79-.48,1.71-.8,2.79-.83.7-.02,1.32.07,1.86.24-1.58,4.68-5.59,20.73-5.59,20.73l9.99-14.48Z" />
      <path class="cls-5"
        d="M163.73,60.8c-.14.02-.29,0-.44-.05-2.89-1.13-12.64-5.31-16.57-11.85-1.07-1.78-1.3-4.44-.57-6.61.47-1.4,1.56-3.26,4.02-4.15.39-.14.78-.24,1.18-.31,4.8-.77,8.62,4.29,8.8,4.54,0,0,.02-.04.04-.08.22-.8,2.2-7.35,7.66-7.49,2.64-.07,4.35,1.28,5.32,2.42,1.48,1.75,2.26,4.28,1.93,6.32-1.2,7.51-8.67,14.94-10.94,17.04-.12.12-.28.19-.44.21ZM151.64,39.58c-.3.05-.59.12-.88.23-1.83.66-2.63,2.04-2.98,3.08-.56,1.67-.4,3.76.4,5.1,3.49,5.81,12.45,9.8,15.22,10.92,2.15-2.05,8.96-9.01,10.02-15.66.24-1.52-.39-3.52-1.53-4.87-.72-.85-2-1.86-3.97-1.81-4.44.12-6.02,6.01-6.08,6.26,0,.02-.01.05-.02.07-.17.48-.63,1.09-1.37,1.21-.75.12-1.36-.3-1.64-.69-.03-.04-3.34-4.46-7.15-3.85Z" />
      <path class="cls-5"
        d="M164.33,60.99l-.45-.15c-.51-.17-12.53-4.35-17.06-11.71-1.18-1.92-1.42-4.67-.6-6.99.75-2.13,2.33-3.72,4.45-4.47,4.37-1.55,8.02,1.38,9.71,3.14.92-2.25,3.2-6.29,7.84-6.43,2.27-.07,4.34.84,5.84,2.56,1.62,1.86,2.43,4.48,2.06,6.68-1.43,8.48-11.02,16.73-11.43,17.07l-.36.31ZM152.25,38.98c-.33.05-.67.14-1.01.26-2.1.75-3.03,2.29-3.44,3.45-.65,1.84-.47,4.07.45,5.56,3.74,6.08,13.5,10.01,15.72,10.84,1.75-1.58,9.32-8.76,10.5-15.76.29-1.7-.38-3.83-1.67-5.31-.82-.94-2.28-2.06-4.53-1.99-4.95.15-6.68,6.33-6.76,6.6,0,0-.2.54-.7.62-.5.08-.8-.33-.8-.33-.16-.21-3.57-4.63-7.78-3.95Z" />
      <path class="cls-3"
        d="M150.08,39.8c-.2-.53-.4-1.07-.6-1.59-.58.33-1.1.73-1.57,1.2.33.48.66.94.98,1.4.32-.36.71-.71,1.18-1.01Z" />
      <path class="cls-3"
        d="M147.6,43.39c-.5-.33-.98-.67-1.44-1.04-.26.83-.4,1.7-.41,2.56.55.26,1.12.52,1.7.78-.07-.76-.03-1.55.14-2.3Z" />
      <path class="cls-3"
        d="M148.25,48.25c-.22-.35-.39-.75-.52-1.17-.58.01-1.16.04-1.73.04.18.72.45,1.41.82,2.01.15.24.3.47.46.7.45-.32.92-.63,1.4-.92-.15-.22-.3-.44-.44-.66Z" />
      <path class="cls-3"
        d="M162.66,39.97c-.36-.47-.75-.93-1.12-1.42-.29.45-.53.9-.74,1.32.36.56.72,1.09,1.13,1.6.18-.44.42-.96.73-1.5Z" />
      <path class="cls-3"
        d="M164.35,35.6c-.51.34-.98.73-1.39,1.15.38.41.78.81,1.18,1.22.41-.42.87-.8,1.39-1.11-.37-.43-.76-.85-1.17-1.26Z" />
      <path class="cls-3"
        d="M168.23,34.36c-.6.02-1.16.1-1.68.24.32.52.65,1.03,1.02,1.5.23-.04.47-.06.72-.07.83-.02,1.55.11,2.18.34-.19-.63-.39-1.26-.61-1.89-.52-.1-1.06-.14-1.61-.12Z" />
      <path class="cls-6"
        d="M164.33,61.31s-.07,0-.1-.02l-.45-.15c-.51-.18-12.64-4.39-17.23-11.85-1.23-2-1.48-4.85-.63-7.27.78-2.22,2.43-3.88,4.65-4.67,4.23-1.51,7.79,1,9.71,2.88,1.08-2.44,3.44-6.06,7.94-6.19,2.36-.07,4.53.88,6.09,2.67,1.68,1.93,2.52,4.65,2.13,6.95-1.45,8.59-11.12,16.91-11.54,17.26l-.36.31c-.06.05-.13.08-.21.08ZM153.18,37.54c-.77,0-1.57.13-2.39.42-2.03.72-3.54,2.24-4.26,4.28-.79,2.24-.56,4.88.57,6.72,4.47,7.27,16.39,11.41,16.89,11.58l.28.1.23-.19c.4-.34,9.91-8.52,11.32-16.88.36-2.11-.42-4.63-1.98-6.42-1.44-1.65-3.42-2.53-5.59-2.45-4.42.13-6.63,3.96-7.55,6.24-.04.1-.13.17-.23.19-.11.02-.21-.01-.29-.09-1.37-1.42-3.89-3.48-6.98-3.48ZM163.97,59.41s-.08,0-.11-.02c-1.98-.74-12.06-4.76-15.88-10.97-.96-1.56-1.15-3.91-.48-5.83.43-1.23,1.41-2.86,3.63-3.65.35-.12.7-.22,1.06-.27h0c4.4-.71,7.93,3.88,8.08,4.07,0,0,.2.25.49.2.3-.05.45-.42.45-.42.06-.24,1.86-6.65,7.04-6.8,2.37-.06,3.91,1.1,4.78,2.1,1.34,1.54,2.04,3.78,1.74,5.57-1.2,7.15-9.04,14.53-10.6,15.94-.06.05-.14.08-.21.08ZM152.3,39.29c-.32.05-.64.13-.95.24-1.98.71-2.86,2.16-3.24,3.26-.62,1.75-.45,3.88.42,5.29,3.61,5.87,13.07,9.76,15.38,10.64,1.82-1.66,9.12-8.69,10.26-15.44.27-1.61-.37-3.64-1.59-5.04-.78-.89-2.15-1.94-4.28-1.88-4.72.14-6.39,6.11-6.46,6.36-.02.06-.28.74-.95.85-.54.09-.95-.24-1.1-.45-.14-.18-3.44-4.48-7.47-3.83h0Z" />
      <path class="cls-3"
        d="M167.21,24.57s.27,10.78-4.45,11.59c3.38.53,4.73,3.4,4.97,8.33-.24-4.5.63-7.88,4.48-9.07-5.19-.37-5-10.85-5-10.85Z" />
      <path class="cls-6"
        d="M167.73,44.8c-.17,0-.31-.13-.32-.3,0-.05,0-.09,0-.14-.26-4.99-1.72-7.42-4.69-7.89-.15-.02-.27-.16-.27-.31,0-.16.11-.29.26-.32,3.83-.66,4.17-8.65,4.19-10.76,0-.29,0-.47,0-.52,0-.17.15-.31.32-.31.17,0,.31.14.32.31,0,.05,0,.23,0,.51.04,2.04.49,9.74,4.7,10.04.15.01.28.13.29.28.02.15-.08.29-.22.34-3.22,1-4.5,3.58-4.26,8.62,0,.04,0,.09,0,.13,0,0,0,0,0,0,0,.18-.13.32-.3.33,0,0-.01,0-.02,0ZM163.87,36.1c1.85.63,3.04,2.12,3.67,4.61.35-2.15,1.29-4.13,3.55-5.21-2.34-.86-3.38-3.87-3.84-6.51-.38,2.75-1.28,5.97-3.38,7.11Z" />
      <path class="cls-3"
        d="M106.32,29.99s.43,16.99-7.02,18.27c5.34.83,7.46,5.36,7.84,13.13-.37-7.09,1-12.42,7.06-14.29-8.19-.58-7.88-17.11-7.88-17.11Z" />
      <path class="cls-6"
        d="M107.13,61.72c-.17,0-.31-.13-.32-.3,0-.07,0-.15-.01-.22-.42-7.97-2.76-11.86-7.56-12.61-.15-.02-.27-.16-.27-.31,0-.16.11-.29.26-.32,6.18-1.07,6.72-13.79,6.75-17.15,0-.45,0-.74,0-.82,0-.17.14-.31.32-.31h0c.17,0,.31.14.32.31,0,.08,0,.36,0,.8.07,3.25.78,15.53,7.58,16.01.15.01.28.13.29.28.02.15-.08.29-.22.34-5.18,1.6-7.23,5.72-6.85,13.77,0,.07,0,.14.01.21,0,0,0,0,0,0,0,.18-.13.32-.3.33,0,0-.01,0-.02,0ZM100.57,48.22c3.35.96,5.39,3.6,6.33,8.28.41-3.87,1.89-7.52,6.07-9.29-4.33-1.2-5.97-7-6.59-11.55-.5,4.7-1.91,10.86-5.8,12.55Z" />
    </g>
  </g>
</svg>