<?xml version="1.0" encoding="UTF-8"?>
<svg id="Capa_2" xmlns="http://www.w3.org/2000/svg" viewBox="0 0 201.79 201.77">
  <defs>
    <style>
      .cls-1 {
        fill: aqua;
      }

      .cls-2 {
        fill: #29abe2;
      }

      .cls-3 {
        fill: #fff;
      }

      .cls-4 {
        fill: #862291;
      }

      .cls-5 {
        fill: #1b1464;
      }

      .cls-6 {
        fill: #fcee21;
      }

      .cls-7 {
        fill: #ed1e79;
      }
    </style>
  </defs>
  <g id="_0">
    <path class="cls-3"
      d="M200.73,187.01c.09-1.86-.03-4.99-.24-10.7,0-.23-.03-.46-.08-.69l-24.96-128.8c-.44-2.21-2.38-3.82-4.63-3.85h-.83c-3.75-.05-19.61-.23-37.98-.43v-25.79c0-5.06-1.36-9.13-4.05-12.08-1.94-2.14-5.58-4.68-11.86-4.68h-12.93c-.65,0-1.27.11-1.86.31-.58-.2-1.21-.31-1.86-.31h-18.81c-.65,0-1.27.11-1.86.31-.58-.2-1.21-.31-1.86-.31h-18.81c-.74,0-1.44.14-2.08.39-.65-.26-1.35-.39-2.08-.39h-9.08c-.77,0-1.5.15-2.16.43-.67-.28-1.4-.43-2.16-.43h-9.67c-3.14,0-5.7,2.56-5.7,5.7v37.89c-.92-.94-2.21-1.53-3.63-1.53H7.07c-2.8,0-5.08,2.28-5.08,5.08,0,1.75.89,3.3,2.24,4.21-2.4.41-4.23,2.49-4.23,5,0,2.8,2.28,5.08,5.08,5.08h17.39c-2.78,11.73-3.22,13.71-3.29,14.43h0c-.07.85-1.27,10.77-2.36,19.68-.12,1.01.09,1.99.55,2.83h-7.34c-2.8,0-5.08,2.28-5.08,5.08,0,1.15.39,2.22,1.04,3.07-2.17.58-3.77,2.56-3.77,4.9,0,2.8,2.28,5.08,5.08,5.08h4.62c-.32.67-.5,1.42-.5,2.21,0,2.8,2.28,5.08,5.08,5.08h8.69v32.91c-.35.17-.71.36-1.06.56-4.15,1.37-5.07,3.8-5.08,5.63v.06c0,.06,0,.11,0,.16l.42,20.16v12.19c0,1.67.65,3.24,1.82,4.41,1.18,1.19,2.75,1.84,4.43,1.84h3.69c1.3,0,2.55-.4,3.59-1.13,1.04.73,2.28,1.13,3.58,1.13h3.69c1.31,0,2.55-.4,3.59-1.14.22.09.45.18.68.26,1.7.59,3.64.89,5.77.89s4.07-.3,5.77-.89c.46-.16.89-.35,1.32-.56,1.12.93,2.51,1.43,3.98,1.43h4.4c.84,0,1.65-.16,2.4-.48.78.31,1.63.48,2.51.48h4.62c.57,0,1.13-.08,1.67-.23.54.15,1.11.23,1.69.23h12.87c1.67,0,3.25-.65,4.42-1.84,1.18-1.18,1.83-2.75,1.83-4.41v-2.87c0-1.41-.47-2.75-1.32-3.84.73-1.04,1.12-2.28,1.12-3.57v-2.87c0-1.66-.65-3.23-1.84-4.42-.32-.32-.68-.6-1.05-.84.19-.15.38-.3.56-.45,2.47-2.11,4.12-4.05,5.03-5.91.18.62.49,1.2.93,1.7,5.54,6.36,5.22,9.35,4.32,11.25-.61,1.29-.57,2.79.11,4.05.33.61.8,1.13,1.36,1.52-.34.77-.53,1.62-.53,2.53,0,3.15,1.58,5.93,4.45,7.82,2.2,1.45,5.03,2.18,8.42,2.18s6.16-.7,8.43-2.1c.15-.09.3-.19.45-.29.88.63,1.85,1.13,2.89,1.49,1.7.59,3.64.89,5.77.89s4.07-.3,5.77-.89c1.08-.38,2.06-.89,2.95-1.53,2.3,1.61,5.19,2.42,8.59,2.42,2.96,0,5.53-.62,7.66-1.83,1.18,1.17,2.74,1.81,4.4,1.81h11.9c1.36,0,2.66-.43,3.73-1.24,1.9.83,4.15,1.26,6.72,1.26,3.32,0,6.16-.7,8.43-2.1,3.04-1.86,4.78-4.83,4.78-8.15,0-1.65-.36-3.18-1.05-4.51ZM24.89,51.28h-.39c.17-.12.33-.26.49-.4l-.09.4Z" />
    <polygon class="cls-3" points="24.69 162.96 25.11 183.38 50.08 181.77 46.68 173.41 31.17 168.87 24.69 162.96" />
    <path class="cls-3"
      d="M198.68,185.95l-21.26,8.65-67.87-9.02c2.44-5.13-.02-10.4-4.99-16.1l93.41,7.14c.45,2.51.57,5.94.71,9.32Z" />
    <path class="cls-1"
      d="M36.53,181.79h3.73c.15,0,.28.05.39.16.11.11.16.24.16.39v13.16c0,.15-.05.28-.16.39-.11.11-.24.16-.39.16h-3.69c-.15,0-.28-.05-.39-.16-.11-.11-.16-.24-.16-.39v-6.31l-1.49,2.93c-.08.16-.2.29-.37.38-.16.09-.33.13-.49.13h-1.39c-.23,0-.42-.06-.57-.18-.15-.12-.24-.23-.29-.33l-1.49-2.93v6.31c0,.15-.05.28-.16.39-.11.11-.24.16-.39.16h-3.69c-.15,0-.28-.05-.39-.16-.11-.11-.16-.24-.16-.39v-13.16c0-.15.05-.28.16-.39.11-.11.24-.16.39-.16h3.73c.38,0,.67.18.88.55l2.67,4.89,2.67-4.89c.2-.37.5-.55.88-.55Z" />
    <path class="cls-1"
      d="M57.88,187.71v2.42c0,1.36-.34,2.5-1.02,3.42-.68.91-1.57,1.56-2.67,1.95-1.1.38-2.4.58-3.89.58s-2.79-.19-3.89-.58-1.99-1.03-2.67-1.95c-.68-.91-1.02-2.07-1.02-3.46v-2.34c0-2,.7-3.5,2.11-4.49,1.41-.99,3.23-1.49,5.47-1.49s4.06.5,5.47,1.49c1.41.99,2.11,2.48,2.11,4.45ZM48.22,187.38v3.08c0,.53.19.93.56,1.21.37.28.88.42,1.52.42s1.14-.14,1.52-.43c.37-.29.56-.7.56-1.22v-3.04c0-.53-.19-.93-.56-1.22-.37-.29-.88-.43-1.52-.43s-1.14.14-1.52.42c-.37.28-.56.69-.56,1.21Z" />
    <path class="cls-1"
      d="M75.7,195.42c.03.05.04.13.04.22s-.04.19-.13.28c-.09.09-.19.13-.32.13h-4.62c-.41,0-.69-.17-.86-.51l-1.79-4.03h-1.71v3.99c0,.15-.05.28-.16.39-.11.11-.24.16-.39.16h-4.4c-.15,0-.28-.05-.39-.16-.11-.11-.16-.24-.16-.39v-13.16c0-.15.05-.28.16-.39.11-.11.24-.16.39-.16h7.92c1.86,0,3.33.44,4.42,1.32,1.09.88,1.63,2.08,1.63,3.61,0,1.85-.71,3.18-2.14,4.01l2.51,4.68ZM66.31,185.58v2.16h2.55c.3,0,.53-.1.69-.29.16-.2.24-.44.24-.74s-.08-.56-.23-.78c-.16-.22-.39-.34-.7-.34h-2.55Z" />
    <path class="cls-1"
      d="M83.4,192.07h8.13c.15,0,.28.05.39.16.11.11.16.24.16.39v2.87c0,.15-.05.28-.16.39-.11.11-.24.16-.39.16h-12.87c-.15,0-.28-.05-.39-.16-.11-.11-.16-.24-.16-.39v-13.16c0-.15.05-.28.16-.39.11-.11.24-.16.39-.16h12.67c.15,0,.28.05.39.16.11.11.16.24.16.39v2.87c0,.15-.05.28-.16.39-.11.11-.24.16-.39.16h-7.92v1.28h6.8c.15,0,.28.05.39.16.11.11.16.24.16.39v2.65c0,.15-.05.28-.16.39-.11.11-.24.16-.39.16h-6.8v1.28Z" />
    <path class="cls-1"
      d="M125.42,188.48c.94.68,1.42,1.69,1.42,3.04s-.69,2.45-2.06,3.28c-1.37.84-3.19,1.26-5.46,1.26s-4.03-.41-5.29-1.24c-1.26-.83-1.88-1.85-1.88-3.06,0-.3.16-.44.47-.44h4.18c.29,0,.52.08.69.25.38.35,1.04.52,1.98.52,1.29,0,1.93-.19,1.93-.57,0-.24-.2-.42-.61-.56-.41-.14-1.21-.27-2.42-.4-3.84-.45-5.76-1.87-5.76-4.27,0-1.35.62-2.44,1.85-3.27,1.24-.83,2.89-1.25,4.96-1.25s3.74.45,5.02,1.34c1.28.9,1.91,1.84,1.91,2.84,0,.13-.04.24-.13.32-.09.08-.21.12-.36.12h-4.38c-.24,0-.46-.08-.63-.23-.33-.28-.81-.42-1.47-.42-.91,0-1.37.18-1.37.55,0,.2.18.35.53.46.35.11,1.06.23,2.12.34,2.23.25,3.81.71,4.76,1.39Z" />
    <path class="cls-1"
      d="M144.44,187.71v2.42c0,1.36-.34,2.5-1.02,3.42-.68.91-1.57,1.56-2.67,1.95s-2.4.58-3.89.58-2.79-.19-3.89-.58c-1.1-.38-1.99-1.03-2.67-1.95-.68-.91-1.02-2.07-1.02-3.46v-2.34c0-2,.7-3.5,2.11-4.49,1.41-.99,3.23-1.49,5.47-1.49s4.06.5,5.47,1.49c1.41.99,2.11,2.48,2.11,4.45ZM134.78,187.38v3.08c0,.53.19.93.56,1.21.37.28.88.42,1.52.42s1.14-.14,1.52-.43c.37-.29.56-.7.56-1.22v-3.04c0-.53-.19-.93-.56-1.22-.37-.29-.88-.43-1.52-.43s-1.14.14-1.52.42c-.37.28-.56.69-.56,1.21Z" />
    <path class="cls-1"
      d="M159.6,194.6c-1.34.98-3.15,1.47-5.43,1.47s-4.09-.49-5.43-1.47c-1.34-.98-2.01-2.51-2.01-4.59v-7.68c0-.15.05-.27.16-.38.11-.11.24-.16.39-.16h4.26c.15,0,.28.05.39.16.11.11.16.23.16.38v7.96c0,.55.19.97.56,1.26.37.29.88.44,1.52.44s1.14-.15,1.52-.44c.37-.29.56-.71.56-1.26v-7.96c0-.15.05-.27.16-.38.11-.11.24-.16.39-.16h4.26c.15,0,.28.05.39.16.11.11.16.23.16.38v7.68c0,2.08-.67,3.61-2.01,4.59Z" />
    <path class="cls-1"
      d="M171.18,191.87h6.95c.15,0,.28.05.39.16.11.11.16.24.16.39v3.08c0,.15-.05.28-.16.39-.11.11-.24.16-.39.16h-11.9c-.15,0-.28-.05-.39-.16-.11-.11-.16-.24-.16-.39v-13.16c0-.15.05-.28.16-.39.11-.11.24-.16.39-.16h4.4c.15,0,.28.05.39.16.11.11.16.24.16.39v9.53Z" />
    <path class="cls-1"
      d="M194.67,188.48c.94.68,1.42,1.69,1.42,3.04s-.69,2.45-2.06,3.28c-1.37.84-3.19,1.26-5.46,1.26s-4.03-.41-5.29-1.24c-1.26-.83-1.88-1.85-1.88-3.06,0-.3.16-.44.47-.44h4.18c.29,0,.52.08.69.25.38.35,1.04.52,1.98.52,1.29,0,1.93-.19,1.93-.57,0-.24-.2-.42-.61-.56-.41-.14-1.21-.27-2.42-.4-3.84-.45-5.76-1.87-5.76-4.27,0-1.35.62-2.44,1.85-3.27,1.24-.83,2.89-1.25,4.96-1.25s3.74.45,5.02,1.34c1.28.9,1.91,1.84,1.91,2.84,0,.13-.04.24-.13.32-.09.08-.21.12-.36.12h-4.38c-.24,0-.45-.08-.63-.23-.33-.28-.81-.42-1.47-.42-.91,0-1.37.18-1.37.55,0,.2.18.35.53.46.35.11,1.06.23,2.12.34,2.23.25,3.81.71,4.76,1.39Z" />
    <path class="cls-5"
      d="M40.26,181.79c.15,0,.28.05.39.16.11.11.16.24.16.39v13.16c0,.15-.05.28-.16.39-.11.11-.24.16-.39.16h-3.69c-.15,0-.28-.05-.39-.16-.11-.11-.16-.24-.16-.39v-6.31l-1.49,2.93c-.08.16-.2.29-.37.38-.16.09-.33.13-.49.13h-1.39c-.23,0-.42-.06-.57-.18-.15-.12-.24-.23-.29-.33l-1.49-2.93v6.31c0,.15-.05.28-.16.39-.11.11-.24.16-.39.16h-3.69c-.15,0-.28-.05-.39-.16-.11-.11-.16-.24-.16-.39v-13.16c0-.15.05-.28.16-.39.11-.11.24-.16.39-.16h3.73c.38,0,.67.18.88.55l2.67,4.89,2.67-4.89c.2-.37.5-.55.88-.55h3.73ZM40.26,180.55h-3.73c-.82,0-1.54.43-1.96,1.19l-1.59,2.91-1.58-2.9c-.42-.76-1.14-1.19-1.96-1.19h-3.73c-.47,0-.92.19-1.26.52-.34.34-.52.79-.52,1.26v13.16c0,.47.19.92.52,1.26.34.34.78.52,1.26.52h3.69c.48,0,.92-.19,1.26-.53.34-.34.52-.78.52-1.26v-1.93c.32.19.7.29,1.11.29h1.39c.37,0,.73-.09,1.08-.28,0,0,.02-.01.03-.02v1.94c0,.47.19.92.52,1.26.34.34.78.52,1.26.52h3.69c.48,0,.92-.19,1.26-.53.34-.34.52-.78.52-1.26v-13.16c0-.47-.19-.92-.52-1.26-.34-.34-.79-.53-1.26-.53h0Z" />
    <path class="cls-5"
      d="M50.3,181.77c2.24,0,4.06.5,5.47,1.49,1.41.99,2.11,2.48,2.11,4.45v2.42c0,1.36-.34,2.5-1.02,3.42-.68.91-1.57,1.56-2.67,1.95-1.1.38-2.4.58-3.89.58s-2.79-.19-3.89-.58-1.99-1.03-2.67-1.95c-.68-.91-1.02-2.07-1.02-3.46v-2.34c0-2,.7-3.5,2.11-4.49,1.41-.99,3.23-1.49,5.47-1.49h0ZM50.3,192.1c.64,0,1.14-.14,1.52-.43.37-.29.56-.7.56-1.22v-3.04c0-.53-.19-.93-.56-1.22-.37-.29-.88-.43-1.52-.43s-1.14.14-1.52.42c-.37.28-.56.69-.56,1.21v3.08c0,.53.19.93.56,1.21.37.28.88.42,1.52.42h0ZM50.3,180.53c-2.49,0-4.57.58-6.18,1.72-1.74,1.23-2.63,3.08-2.63,5.5v2.34c0,1.66.42,3.07,1.26,4.19.83,1.11,1.92,1.91,3.25,2.37,1.23.43,2.67.64,4.3.64s3.07-.22,4.3-.64c1.33-.46,2.42-1.26,3.25-2.37.84-1.13,1.26-2.53,1.26-4.15v-2.42c0-2.39-.89-4.22-2.63-5.46-1.61-1.14-3.69-1.72-6.18-1.72h0ZM50.3,190.86c-.36,0-.62-.06-.77-.17-.03-.02-.07-.05-.07-.23v-3.08c0-.18.04-.2.07-.23.15-.11.42-.17.77-.17s.61.06.76.18c.04.03.08.06.08.25v3.04c0,.18-.04.22-.08.25-.15.11-.41.18-.76.18h0Z" />
    <path class="cls-5"
      d="M69.28,181.79c1.86,0,3.33.44,4.42,1.32,1.09.88,1.63,2.08,1.63,3.61,0,1.85-.71,3.18-2.14,4.01l2.51,4.68c.03.05.04.13.04.22s-.04.19-.13.28c-.09.09-.19.13-.32.13h-4.62c-.41,0-.69-.17-.86-.51l-1.79-4.03h-1.71v3.99c0,.15-.05.28-.16.39-.11.11-.24.16-.39.16h-4.4c-.15,0-.28-.05-.39-.16-.11-.11-.16-.24-.16-.39v-13.16c0-.15.05-.28.16-.39.11-.11.24-.16.39-.16h7.92ZM66.31,187.74h2.55c.3,0,.53-.1.69-.29.16-.2.24-.44.24-.74s-.08-.56-.23-.78c-.16-.22-.39-.34-.7-.34h-2.55v2.16h0ZM69.28,180.55h-7.92c-.47,0-.92.19-1.26.52-.34.34-.52.79-.52,1.26v13.16c0,.48.19.92.53,1.26.33.34.78.52,1.26.52h4.4c.48,0,.92-.19,1.26-.53.34-.34.52-.78.52-1.26v-2.02l1.14,2.57s.01.02.02.03c.37.77,1.09,1.21,1.97,1.21h4.62c.45,0,.87-.18,1.19-.49.41-.41.49-.85.49-1.15s-.06-.55-.17-.78l-2.01-3.77c1.17-1.06,1.78-2.55,1.78-4.37s-.7-3.44-2.08-4.56c-1.31-1.06-3.06-1.6-5.2-1.6h0Z" />
    <path class="cls-5"
      d="M91.32,181.79c.15,0,.28.05.39.16.11.11.16.24.16.39v2.87c0,.15-.05.28-.16.39-.11.11-.24.16-.39.16h-7.92v1.28h6.8c.15,0,.28.05.39.16.11.11.16.24.16.39v2.65c0,.15-.05.28-.16.39-.11.11-.24.16-.39.16h-6.8v1.28h8.13c.15,0,.28.05.39.16.11.11.16.24.16.39v2.87c0,.15-.05.28-.16.39-.11.11-.24.16-.39.16h-12.87c-.15,0-.28-.05-.39-.16-.11-.11-.16-.24-.16-.39v-13.16c0-.15.05-.28.16-.39.11-.11.24-.16.39-.16h12.67ZM91.32,180.55h-12.67c-.48,0-.92.19-1.26.53-.34.34-.52.78-.52,1.26v13.16c0,.48.19.92.53,1.26.33.33.78.52,1.26.52h12.87c.48,0,.92-.19,1.26-.53.34-.34.52-.78.52-1.26v-2.87c0-.47-.19-.92-.52-1.26-.25-.25-.57-.42-.91-.49.08-.2.12-.41.12-.63v-2.65c0-.24-.05-.47-.13-.68.27-.08.52-.23.73-.44.34-.34.53-.79.53-1.26v-2.87c0-.47-.19-.92-.52-1.26-.34-.34-.79-.53-1.26-.53h0Z" />
    <path class="cls-5"
      d="M119.42,181.77c2.07,0,3.74.45,5.02,1.34,1.28.9,1.91,1.84,1.91,2.84,0,.13-.04.24-.13.32-.09.08-.21.12-.36.12h-4.38c-.24,0-.46-.08-.63-.23-.33-.28-.81-.42-1.47-.42-.91,0-1.37.18-1.37.55,0,.2.18.35.53.46.35.11,1.06.23,2.12.34,2.23.25,3.81.71,4.76,1.39.94.68,1.42,1.69,1.42,3.04s-.69,2.45-2.06,3.28c-1.37.84-3.19,1.26-5.46,1.26s-4.03-.41-5.29-1.24c-1.26-.83-1.88-1.85-1.88-3.06,0-.3.16-.44.47-.44h4.18c.29,0,.52.08.69.25.38.35,1.04.52,1.98.52,1.29,0,1.93-.19,1.93-.57,0-.24-.2-.42-.61-.56-.41-.14-1.21-.27-2.42-.4-3.84-.45-5.76-1.87-5.76-4.27,0-1.35.62-2.44,1.85-3.27,1.24-.83,2.89-1.25,4.96-1.25h0ZM119.42,180.53c-2.31,0-4.21.49-5.65,1.46-1.57,1.06-2.4,2.54-2.4,4.3,0,1.25.4,2.69,1.86,3.8h-.61c-.99,0-1.7.71-1.7,1.68,0,1.13.42,2.76,2.44,4.09,1.46.96,3.46,1.44,5.97,1.44s4.54-.48,6.1-1.44c2.19-1.34,2.65-3.1,2.65-4.34,0-2.08-.94-3.28-1.79-3.94.36-.08.61-.25.77-.4.34-.31.53-.75.53-1.23,0-1.42-.82-2.71-2.44-3.85-1.48-1.04-3.41-1.57-5.73-1.57h0Z" />
    <path class="cls-5"
      d="M136.86,181.77c2.24,0,4.06.5,5.47,1.49,1.41.99,2.11,2.48,2.11,4.45v2.42c0,1.36-.34,2.5-1.02,3.42-.68.91-1.57,1.56-2.67,1.95s-2.4.58-3.89.58-2.79-.19-3.89-.58-1.99-1.03-2.67-1.95c-.68-.91-1.02-2.07-1.02-3.46v-2.34c0-2,.7-3.5,2.11-4.49,1.41-.99,3.23-1.49,5.47-1.49h0ZM136.86,192.1c.64,0,1.14-.14,1.52-.43.37-.29.56-.7.56-1.22v-3.04c0-.53-.19-.93-.56-1.22-.37-.29-.88-.43-1.52-.43s-1.14.14-1.52.42c-.37.28-.56.69-.56,1.21v3.08c0,.53.19.93.56,1.21.37.28.88.42,1.52.42h0ZM136.86,180.53c-2.49,0-4.57.58-6.18,1.72-1.74,1.23-2.63,3.08-2.63,5.5v2.34c0,1.66.42,3.07,1.26,4.19.83,1.11,1.92,1.91,3.25,2.37,1.23.43,2.67.64,4.3.64s3.07-.22,4.3-.64c1.33-.46,2.42-1.26,3.25-2.37.84-1.13,1.26-2.53,1.26-4.15v-2.42c0-2.39-.89-4.22-2.63-5.46-1.61-1.14-3.69-1.72-6.18-1.72h0ZM136.86,190.86c-.36,0-.62-.06-.77-.17-.03-.02-.07-.05-.07-.23v-3.08c0-.18.04-.2.07-.23.15-.11.42-.17.77-.17s.61.06.76.18c.04.03.08.06.08.25v3.04c0,.18-.04.22-.08.25-.15.11-.41.18-.76.18h0Z" />
    <path class="cls-5"
      d="M161.06,181.79c.15,0,.28.05.39.16.11.11.16.23.16.38v7.68c0,2.08-.67,3.61-2.01,4.59-1.34.98-3.15,1.47-5.43,1.47s-4.09-.49-5.43-1.47c-1.34-.98-2.01-2.51-2.01-4.59v-7.68c0-.15.05-.27.16-.38.11-.11.24-.16.39-.16h4.26c.15,0,.28.05.39.16.11.11.16.23.16.38v7.96c0,.55.19.97.56,1.26.37.29.88.44,1.52.44s1.14-.15,1.52-.44c.37-.29.56-.71.56-1.26v-7.96c0-.15.05-.27.16-.38.11-.11.24-.16.39-.16h4.26ZM161.06,180.55h-4.26c-.47,0-.91.18-1.25.51-.34.34-.53.79-.53,1.26v7.96c0,.22-.06.26-.09.29-.18.15-.51.18-.75.18s-.57-.03-.75-.18c-.03-.03-.09-.07-.09-.29v-7.96c0-.48-.19-.92-.53-1.26-.34-.33-.79-.51-1.25-.51h-4.26c-.47,0-.92.18-1.26.52-.34.33-.53.78-.53,1.26v7.68c0,2.48.85,4.36,2.51,5.58,1.55,1.13,3.62,1.71,6.16,1.71s4.61-.57,6.16-1.71c1.67-1.22,2.51-3.1,2.51-5.58v-7.68c0-.47-.19-.92-.53-1.26-.34-.33-.79-.52-1.25-.52h0Z" />
    <path class="cls-5"
      d="M170.63,181.79c.15,0,.28.05.39.16.11.11.16.24.16.39v9.53h6.95c.15,0,.28.05.39.16.11.11.16.24.16.39v3.08c0,.15-.05.28-.16.39-.11.11-.24.16-.39.16h-11.9c-.15,0-.28-.05-.39-.16-.11-.11-.16-.24-.16-.39v-13.16c0-.15.05-.28.16-.39.11-.11.24-.16.39-.16h4.4ZM170.63,180.55h-4.4c-.47,0-.92.19-1.26.52-.34.34-.52.79-.52,1.26v13.16c0,.47.19.92.52,1.26.34.34.78.52,1.26.52h11.9c.47,0,.92-.19,1.26-.52.34-.34.52-.79.52-1.26v-3.08c0-.47-.19-.92-.52-1.26-.34-.34-.79-.52-1.26-.52h-5.71v-8.3c0-.47-.19-.92-.52-1.26-.34-.34-.79-.53-1.26-.53h0Z" />
    <path class="cls-5"
      d="M188.66,181.77c2.07,0,3.74.45,5.02,1.34,1.28.9,1.91,1.84,1.91,2.84,0,.13-.04.24-.13.32-.09.08-.21.12-.36.12h-4.38c-.24,0-.45-.08-.63-.23-.33-.28-.81-.42-1.47-.42-.91,0-1.36.18-1.36.55,0,.2.18.35.53.46.35.11,1.06.23,2.12.34,2.23.25,3.81.71,4.76,1.39.94.68,1.42,1.69,1.42,3.04s-.69,2.45-2.06,3.28c-1.37.84-3.19,1.26-5.46,1.26s-4.03-.41-5.29-1.24c-1.26-.83-1.88-1.85-1.88-3.06,0-.3.16-.44.47-.44h4.18c.29,0,.52.08.69.25.38.35,1.04.52,1.98.52,1.29,0,1.93-.19,1.93-.57,0-.24-.2-.42-.61-.56-.41-.14-1.21-.27-2.42-.4-3.84-.45-5.76-1.87-5.76-4.27,0-1.35.62-2.44,1.85-3.27,1.24-.83,2.89-1.25,4.96-1.25h0ZM188.66,180.53c-2.31,0-4.21.49-5.65,1.46-1.57,1.06-2.4,2.54-2.4,4.3,0,1.25.4,2.69,1.86,3.8h-.61c-.99,0-1.7.71-1.7,1.68,0,1.13.42,2.76,2.44,4.09,1.46.96,3.46,1.44,5.97,1.44s4.54-.48,6.1-1.44c2.19-1.34,2.65-3.1,2.65-4.34,0-2.08-.94-3.28-1.79-3.94.36-.08.61-.25.77-.4.34-.31.53-.75.53-1.23,0-1.42-.82-2.71-2.44-3.85-1.48-1.04-3.41-1.57-5.73-1.57h0Z" />
    <path class="cls-4" d="M30.88,163.04V5.7h9.67l4.33,22.52V5.7h9.08v157.34h-9.19l-4.7-133.83v133.83h-9.19Z" />
    <path class="cls-4" d="M58.14,163.04V5.7h18.81v9.08h-9.24v9.16h8.87v8.84h-8.87v121.09h9.86v9.16h-19.42Z" />
    <path class="cls-4" d="M80.66,163.04V5.7h18.81v9.08h-9.24v9.16h8.87v8.84h-8.87v121.09h9.86v9.16h-19.42Z" />
    <path class="cls-4"
      d="M103.18,163.04V5.7h12.93c3.38,0,5.93.94,7.64,2.82,1.71,1.88,2.56,4.63,2.56,8.24v132.34c0,4.45-.78,7.89-2.34,10.31-1.56,2.42-4.29,3.63-8.19,3.63h-12.61ZM112.64,154.73h1.63c1.73,0,2.59-.84,2.59-2.51V17.64c0-1.57-.21-2.58-.63-3.03-.42-.45-1.27-.68-2.55-.68h-1.04v140.81Z" />
    <path class="cls-1" d="M40.85,7.21l-.29-1.51h-9.67v37.75c2.38-12.09,2.98-35.4,2.98-35.4l6.98-.84Z" />
    <path class="cls-1" d="M53.97,5.7h-9.08v1.64c3.03.07,6.06.09,9.08.1v-1.74Z" />
    <path class="cls-1" d="M76.94,8.08v-2.38h-18.81v30.4c1.33-9.1,2.8-27.29,2.8-27.29,0,0,10.65-.65,16.01-.74Z" />
    <path class="cls-1" d="M99.47,7.74v-2.04h-18.81v37.75c.5-3.1,3.31-34.16,3.31-34.16l15.5-1.56Z" />
    <path class="cls-1"
      d="M123.43,8.2c-1.7-1.66-4.13-2.5-7.31-2.5h-12.93v36.05c.27-5.98,2.2-32.98,2.2-32.98,0,0,11.18-2.2,18.05-.57Z" />
    <path class="cls-5"
      d="M53.97,5.7v157.34h-9.19l-4.7-133.83v133.83h-9.19V5.7h9.67l4.33,22.52V5.7h9.08ZM53.97,4.46h-9.08c-.68,0-1.23.55-1.23,1.23v9.56l-1.88-9.79c-.11-.58-.62-1-1.21-1h-9.67c-.68,0-1.23.55-1.23,1.23v157.34c0,.68.55,1.23,1.23,1.23h9.19c.68,0,1.23-.55,1.23-1.23v-63.53l2.23,63.57c.02.66.57,1.19,1.23,1.19h9.19c.68,0,1.23-.55,1.23-1.23V5.7c0-.68-.55-1.23-1.23-1.23h0Z" />
    <path class="cls-5"
      d="M76.94,5.7v9.08h-9.24v9.16h8.87v8.84h-8.87v121.09h9.86v9.16h-19.42V5.7h18.81ZM76.94,4.46h-18.81c-.68,0-1.23.55-1.23,1.23v157.34c0,.68.55,1.23,1.23,1.23h19.42c.68,0,1.23-.55,1.23-1.23v-9.16c0-.68-.55-1.23-1.23-1.23h-8.62V34.02h7.64c.68,0,1.23-.55,1.23-1.23v-8.84c0-.68-.55-1.23-1.23-1.23h-7.64v-6.69h8.01c.68,0,1.23-.55,1.23-1.23V5.7c0-.68-.55-1.23-1.23-1.23h0Z" />
    <path class="cls-5"
      d="M99.47,5.7v9.08h-9.24v9.16h8.87v8.84h-8.87v121.09h9.86v9.16h-19.42V5.7h18.81ZM99.47,4.46h-18.81c-.68,0-1.23.55-1.23,1.23v157.34c0,.68.55,1.23,1.23,1.23h19.42c.68,0,1.23-.55,1.23-1.23v-9.16c0-.68-.55-1.23-1.23-1.23h-8.62V34.02h7.64c.68,0,1.23-.55,1.23-1.23v-8.84c0-.68-.55-1.23-1.23-1.23h-7.64v-6.69h8.01c.68,0,1.23-.55,1.23-1.23V5.7c0-.68-.55-1.23-1.23-1.23h0Z" />
    <path class="cls-5"
      d="M116.11,5.7c3.38,0,5.93.94,7.64,2.82,1.71,1.88,2.56,4.63,2.56,8.24v132.34c0,4.45-.78,7.89-2.34,10.31-1.56,2.42-4.29,3.63-8.19,3.63h-12.61V5.7h12.93ZM112.64,154.73h1.63c1.73,0,2.59-.84,2.59-2.51V17.64c0-1.57-.21-2.58-.63-3.03-.42-.45-1.27-.68-2.55-.68h-1.04v140.81h0ZM116.11,4.46h-12.93c-.68,0-1.23.55-1.23,1.23v157.34c0,.68.55,1.23,1.23,1.23h12.61c4.33,0,7.43-1.41,9.23-4.2,1.68-2.61,2.53-6.31,2.53-10.98V16.76c0-3.92-.97-6.97-2.89-9.07-1.95-2.14-4.82-3.22-8.55-3.22h0ZM113.87,153.5V15.16c1.17.03,1.45.28,1.45.28,0,.01.3.41.3,2.2v134.58c0,.88-.2,1.28-1.36,1.28h-.39Z" />
    <path class="cls-1"
      d="M41.25,118.12h-24.76c-.34,0-.62.28-.62.62s.28.62.62.62h24.76c.34,0,.62-.28.62-.62s-.28-.62-.62-.62Z" />
    <path class="cls-1"
      d="M41.87,111.45c0-.34-.28-.62-.62-.62H7.29c-.34,0-.62.28-.62.62s.28.62.62.62h33.96c.34,0,.62-.28.62-.62Z" />
    <path class="cls-1"
      d="M10.02,102.85c-.34,0-.62.28-.62.62s.28.62.62.62h17.83c.34,0,.62-.28.62-.62s-.28-.62-.62-.62H10.02Z" />
    <path class="cls-1"
      d="M32.2,56.36c0-.34-.28-.62-.62-.62H5.08c-.34,0-.62.28-.62.62s.28.62.62.62h26.51c.34,0,.62-.28.62-.62Z" />
    <path class="cls-1"
      d="M7.07,47.76h14.49c.34,0,.62-.28.62-.62s-.28-.62-.62-.62H7.07c-.34,0-.62.28-.62.62s.28.62.62.62Z" />
    <path class="cls-3"
      d="M197.98,176.78l-25.07-129.36c-.17-1.04-1.05-1.81-2.11-1.82h-.06c-6.45-.08-63.79-.74-91.87-.92-16.42-4.32-27.08-6.85-31.67-7.52-.81-.12-1.63,0-2.38.36l-2.72.92c-.33.11-.64.31-.88.57l-10.8,4.32c-.65.26-1.14.82-1.3,1.5-6.78,28.37-7.29,30.84-7.33,31.26-.04.55-1.24,10.49-2.37,19.79-.13,1.05.51,2.03,1.52,2.33l11.46,3.46,4.05,1.25c5.68,9.14,13.35,21.51,20.31,33.57-7.82,7.12-15.54,13.38-22.97,18.63-.55-.51-1.27-.97-2.17-.97-2.01,0-2.76,1.8-3.21,2.87-.25.59-.56,1.32-.88,1.52-.69.31-1.9.93-2.37,1.17-2.35.73-3.49,1.79-3.49,3.26,0,.47,0,1.05,4.79,12.51.34.81,1.12,1.33,2.01,1.33l13.16-.11c.6,0,1.17-.26,1.58-.7.4-.44.61-1.03.56-1.63-.18-2.27-.99-7.59-4.64-7.77-1.63-.08-4.51.71-6.92,1.51-.18-.5-.35-.96-.5-1.37.24-.17.5-.36.76-.54.54-.18,1.17-.29,1.73-.39,1.21-.21,2.59-.44,3.23-1.75.36-.73.36-1.61,0-2.79,7.43-5.22,15.14-11.42,22.94-18.44,5.26,9.4,9.31,17.32,12.35,24.17-.54.52-1.04,1.23-1.04,2.16,0,.98.44,2.25,2.43,2.91.28.97.68,2.2.98,3.12,1.4,4.25,1.8,5.11,3.23,5.34.08.01.17.02.29.02,1.92,0,11.24-2.72,14.96-5.9,3.44-2.94,5.02-5.32,4.97-7.48-.03-1.21-.59-2.29-1.57-3.06-3.11-2.42-6.09-2.92-7.97-1.35-.75.63-1.48,1.79-2.7,3.81-.51.84-1.81,2.97-2.32,3.51-.39.11-.92.23-1.54.36l-.53-1.79c.31-1.19.43-2.74-.48-3.86-.53-.65-1.29-.94-2.25-.88-3.28-7.39-7.67-15.94-13.39-26.06,1.54-1.45,3.1-2.96,4.67-4.49l41.25,43.63c.4.44.96.69,1.55.7l82.59,1.58h.04c.63,0,1.22-.27,1.63-.74.42-.48.61-1.12.51-1.76ZM62.1,131.49c-4.14-7.12-8.51-14.33-12.59-20.97l16.08,17.59c-1.17,1.14-2.34,2.27-3.5,3.38Z" />
    <path class="cls-1"
      d="M170.77,47.75s-99.86-1.17-106.85-.93c-2.84.1-5.94.22-5.94.22l44.57,10.77c4.94,2.67,8.03,6.62,4.24,15.25l-9.92,28.22c-1.55,6.06-4.51,10.62-14.02,8.13,0,0-28.84-8.1-40.74-10.19l71.13,76.29,82.59,1.58-25.07-129.36Z" />
    <polygon class="cls-7"
      points="37.18 43.17 39.66 42.08 40.28 41.7 43.07 40.59 40.44 52.44 35.09 61.81 37.18 43.17" />
    <path class="cls-2"
      d="M46.26,39.31l-3.47,1.17-2.77,9.9.27-8.68-4.62,17.53,1.54-16.3-5.99,2.4s-7.27,30.46-7.27,30.88-2.39,19.93-2.39,19.93l11.48,3.46,13.23-60.28Z" />
    <path class="cls-1"
      d="M23.67,89.79l1.64-13.59,5.91-30.87s-7.27,30.46-7.27,30.88-2.39,19.93-2.39,19.93l7.42,2.24-5.31-8.58Z" />
    <path class="cls-4"
      d="M27.67,165.12l-1.47-2.37c17.55-10.91,35.85-26.81,55.93-48.61l2.05,1.89c-20.26,21.99-38.74,38.05-56.51,49.09Z" />
    <path class="cls-6"
      d="M38.99,168.74c-2.16-.11-8.1,2.09-8.1,2.09,0,0-1.8-4.85-1.76-4.92.03-.05,2.29-1.66,2.29-1.66,1.73-.69,3.76-.58,4.04-1.16.5-1.02-2.64-6.8-3.86-6.8s-1.17,3.18-3.15,4.18c-.75.32-2.49,1.24-2.49,1.24,0,0-2.15.63-2.15,1.25s4.62,11.68,4.62,11.68l13.16-.11s-.45-5.67-2.6-5.79Z" />
    <path class="cls-5"
      d="M28.23,174.95l-.08-.19c-1.09-2.61-4.64-11.16-4.64-11.8,0-.77,1.66-1.34,2.37-1.54.01-.02,1.7-.9,2.46-1.22.94-.47,1.38-1.53,1.77-2.47.37-.89.73-1.73,1.5-1.73s1.69,1.29,2.37,2.37c.65,1.04,2.23,3.94,1.77,4.87-.22.45-.92.57-1.88.74-.72.12-1.53.26-2.29.56-.68.49-1.71,1.22-2.09,1.5.2.63,1.01,2.85,1.59,4.4,1.24-.45,5.99-2.1,7.93-2,2.36.12,2.85,5.46,2.9,6.07l.03.33-13.7.12ZM31.61,156.61c-.36,0-.63.63-.93,1.35-.41.99-.93,2.21-2.08,2.79-.75.32-2.47,1.22-2.49,1.23-1.02.3-1.93.76-1.98.98.06.54,2.77,7.17,4.52,11.36l12.61-.11c-.18-1.68-.84-5.1-2.28-5.17h0c-2.08-.1-7.92,2.05-7.98,2.07l-.29.11-.11-.29c-1.86-5-1.84-5.02-1.73-5.2.04-.06.07-.1,2.37-1.74l.06-.03c.83-.33,1.73-.49,2.45-.61.57-.1,1.34-.23,1.43-.4.19-.38-.55-2.37-1.74-4.28-.95-1.52-1.62-2.08-1.84-2.08Z" />
    <path class="cls-5"
      d="M40.74,173.41h0l-4.08-.08c-.17,0-.31-.14-.3-.31,0-.17.14-.28.31-.3l4.08.08c.17,0,.31.14.3.31,0,.17-.14.3-.31.3Z" />
    <path class="cls-5"
      d="M35.06,173.29h0l-1.49-.03c-.17,0-.31-.14-.3-.31,0-.17.14-.3.31-.3h0l1.49.03c.17,0,.31.14.3.31,0,.17-.14.3-.31.3Z" />
    <path class="cls-5"
      d="M27.85,169.29c-.12,0-.24-.07-.29-.19-2.78-7-2.75-7.06-2.68-7.23.03-.08.1-.14.17-.17.16-.06.34.02.4.18.01.03.02.07.02.1.05.19.44,1.29,2.66,6.89.06.16-.01.34-.17.4-.04.01-.08.02-.11.02Z" />
    <path class="cls-5"
      d="M30.73,161.81c-.09,0-.18-.04-.24-.12-.24-.3-1.27-1.8-1.31-1.87-.1-.14-.06-.33.08-.43.14-.1.33-.06.43.08.36.53,1.1,1.6,1.28,1.83.11.13.08.33-.05.43-.06.05-.12.07-.19.07Z" />
    <path class="cls-5"
      d="M78.71,176.25c-7-20.64-26.84-52.59-41.32-75.92l2.37-1.47c15.37,24.75,34.49,55.55,41.6,76.49l-2.64.9Z" />
    <path class="cls-6"
      d="M79.71,166.16c-.55-.67-5.89,1.95-5.89,2.98,0,1.03,2.07.93,2.07,1.27s2.37,7.92,2.77,7.98,9.82-2.25,13.48-5.39c3.67-3.13,5.27-5.8,3.47-7.2-1.8-1.4-4.06-2.4-5.26-1.4-1.2,1-4.2,7.26-5.53,7.66-1.33.4-3.93.87-3.93.87l-1.28-4.3s.65-1.81.1-2.48Z" />
    <path class="cls-5"
      d="M78.63,178.69s-.02,0-.03,0c-.69-.12-2.69-7.04-2.99-8.14-.09-.04-.27-.08-.42-.11-.63-.15-1.69-.4-1.68-1.3,0-1.05,3.16-2.61,4.48-3.08,1.39-.5,1.78-.31,1.96-.1h0c.58.71.13,2.25-.02,2.68l1.17,3.94c.7-.13,2.58-.49,3.63-.81.65-.2,2.08-2.55,3.12-4.26.94-1.55,1.75-2.89,2.3-3.34,1.37-1.15,3.82-.03,5.65,1.39.55.43.84.98.86,1.64.03,1.52-1.42,3.55-4.32,6.03-3.7,3.16-12.95,5.46-13.7,5.46ZM79.35,166.36c-.53,0-2.14.56-3.73,1.52-1.21.73-1.49,1.17-1.5,1.26,0,.38.57.55,1.21.7.46.11.86.2.86.57.07.55,2.07,6.81,2.59,7.67,1.05-.15,9.67-2.33,13.15-5.31,3.43-2.93,4.12-4.63,4.1-5.55-.01-.47-.21-.85-.62-1.17-1.57-1.22-3.78-2.32-4.88-1.41-.47.39-1.33,1.81-2.17,3.19-1.56,2.58-2.65,4.29-3.47,4.53-1.33.4-3.86.86-3.97.87l-.27.05-1.38-4.66.03-.1c.24-.68.45-1.78.17-2.16-.03-.01-.07-.02-.13-.02ZM75.58,170.41s.01.08.03.11c-.02-.07-.03-.1-.03-.11Z" />
    <path class="cls-5"
      d="M78.6,177.25c-.14,0-.27-.1-.3-.25-.03-.17.08-.33.25-.36.03,0,3.31-.64,4.61-1.29.15-.08.34-.01.41.14.08.15.01.34-.14.41-1.38.69-4.63,1.32-4.77,1.34-.02,0-.04,0-.06,0Z" />
    <path class="cls-5"
      d="M87.98,174.06c-.12,0-.23-.07-.28-.18-.07-.15,0-.34.15-.41,0,0,.54-.26,1.51-.93.14-.1.33-.06.43.08.1.14.06.33-.08.43-1.02.72-1.58.98-1.61.99-.04.02-.09.03-.13.03Z" />
    <path class="cls-5"
      d="M90.64,172.27c-.09,0-.18-.04-.24-.12-.11-.13-.08-.33.05-.43.54-.43,1.1-.9,1.66-1.4,2.6-2.34,2.95-4.35,2.95-4.37.03-.17.18-.28.35-.26.17.03.28.18.26.35-.01.09-.37,2.23-3.15,4.73-.57.51-1.14.99-1.69,1.42-.06.04-.12.07-.19.07Z" />
    <path class="cls-5"
      d="M75.88,170.71c-.12,0-.23-.07-.28-.18-.07-.15,0-.34.15-.41l1.78-.83c.15-.07.34,0,.41.15.07.15,0,.34-.15.41l-1.78.83s-.09.03-.13.03Z" />
    <path class="cls-5"
      d="M33.03,99.9s-.06,0-.09-.01l-11.48-3.46c-.14-.04-.24-.18-.22-.33.82-6.68,2.37-19.44,2.38-19.9,0-.42,5.57-23.79,7.28-30.95.02-.1.09-.18.19-.21l15.04-6.01c.11-.04.23-.02.31.05.09.07.13.19.1.3l-13.23,60.28c-.02.08-.07.16-.15.2-.05.03-.1.04-.16.04ZM21.89,95.91l10.91,3.29,13.03-59.39-14.35,5.74c-2.49,10.42-7.15,30.03-7.23,30.67,0,.39-2,16.77-2.36,19.69Z" />
    <path class="cls-6"
      d="M44.61,40.86l-12.97,56.32c-.24,1.04.37,2.1,1.39,2.41l66.19,20.45c1.9.59,3.94-.35,4.73-2.17l23.07-53.14c.95-2.19-.24-4.71-2.54-5.35-15.18-4.27-65.73-18.36-77.6-20.09-1.05-.15-2.04.53-2.28,1.57Z" />
    <path class="cls-1"
      d="M108.29,68.77l-.37,1.07-2.81,8.05-6.54,18.82-2.2,6.34c-.22.92-.58,1.78-1.04,2.55-1.52,2.58-4.2,4.3-7.17,4.58-1.02.11-2.07.05-3.12-.2l-4.55-1.14-32.8-8.26-2.84-.72c-5.02-1.22-8.13-6.31-6.93-11.33l.32-1.32,8.06-33.39c1.21-5.02,6.31-8.13,11.32-6.92l3.54.86,5.03,1.21,30.69,7.4,4.49,1.09c.41.1.81.22,1.19.37,4.31,1.67,6.84,6.35,5.74,10.95Z" />
    <path class="cls-7"
      d="M61.16,47.75l5.03,1.21c-4.26,1.55-8.15,4.2-11.26,7.94-12.98,15.8-4.43,39.57,16.55,41.06,15.66,1.23,27.82-15.59,21.05-29.92-4.08-8.97-15.64-13.78-24.71-9.57-9.19,3.9-13.48,16.16-7.77,24.61,5.56,8.65,18.8,9.8,24.81,1,6.23-8.89.21-21.25-10.89-20.78-7.61.21-13.19,8.92-9.81,15.84,3.24,7.18,13.97,8.13,17.6.78,3.11-5.88-1.47-13.15-8.18-12.44-3.69.35-6.7,3.72-6.67,7.43,0,.26-.21.46-.47.46s-.46-.21-.46-.46c-.02-2.75,1.39-5.44,3.66-7,4.67-3.32,11.72-.75,13.59,4.56,2.05,5.24-1.15,11.56-6.47,13.25-12.89,3.57-20.21-12.44-10.38-20.88,7.92-6.75,20.54-1.5,22.34,8.49,2,9.83-6.58,19.43-16.57,18.61-19.73-1.65-22.46-27.37-5.23-35.41,10.11-4.77,23.06.47,27.7,10.49,4.95,9.96,1.14,22.83-7.87,29.11-6.65,4.89-15.73,5.8-23.38,2.89-24.01-9.5-21.96-40.38-2.22-51.27Z" />
    <path class="cls-7"
      d="M47.68,100.57l-2.84-.72c-5.02-1.22-8.13-6.31-6.93-11.33l.32-1.32c2.12,5.09,5.37,9.69,9.45,13.37Z" />
    <path class="cls-7"
      d="M98.57,96.71l-2.2,6.34c-.22.92-.58,1.78-1.04,2.55-1.93,1.59-4.06,2.99-6.37,4.18-.26.14-.53.28-.8.4-1.02.11-2.07.05-3.12-.2l-4.55-1.14c6.99-1.79,13.38-5.78,17.85-11.81.08-.1.16-.2.23-.32Z" />
    <path class="cls-7"
      d="M107.92,69.84l-2.81,8.05c.18-7.88-2.59-15.68-8.24-21.53l4.49,1.09c.41.1.81.22,1.19.37,2.66,3.69,4.43,7.78,5.36,12.02Z" />
    <path class="cls-3"
      d="M88.74,106.73c-5.05,1.55-35.16-4.74-47.48-8.63,1.03.81,2.23,1.43,3.59,1.76l2.84.72,32.8,8.26,4.55,1.14c1.05.25,2.1.32,3.12.2,2.97-.29,5.65-2.01,7.17-4.58.46-.77.82-1.63,1.04-2.55l2.2-6.34,6.54-18.82,2.81-8.05.37-1.07c.58-2.4.16-4.82-.98-6.83-4.33,16.99-13.52,43.24-18.57,44.79Z" />
    <path class="cls-7"
      d="M105.67,59.97c2.9,2.65,4.02,6.5,1.12,13.11l-9.92,28.22c-1.55,6.06-4.51,10.62-14.02,8.13,0,0-6.68-1.88-14.94-4.06l127.93,71.74-24.28-101.78-65.9-15.37Z" />
    <path class="cls-7"
      d="M84.18,116.03l-2.05-1.89c-4.54,4.93-8.99,9.55-13.37,13.89l1.75,2.19c4.47-4.43,9.02-9.15,13.67-14.19Z" />
    <path class="cls-5"
      d="M188.36,176.56c-.05,0-.11-.01-.16-.04l-121.6-70.77c-.15-.09-.2-.27-.11-.42.09-.15.28-.2.42-.11l121.06,70.46-12.56-96.72-68.49-17.31c-.17-.04-.27-.21-.22-.37.04-.17.21-.27.37-.22l68.7,17.36c.12.03.21.13.23.26l12.67,97.55c.02.12-.04.23-.14.3-.05.03-.11.05-.17.05Z" />
    <path class="cls-3"
      d="M100.14,114.31c-3.79,2.79-33.22-6.8-50-9.42l49.08,15.17c1.9.59,3.94-.35,4.73-2.17l23.07-53.14c.26-.6.35-1.21.31-1.81-8.96,17.05-23.41,48.59-27.2,51.38Z" />
    <path class="cls-5"
      d="M100.38,120.53c-.41,0-.83-.06-1.25-.19l-66.19-20.45c-1.17-.36-1.87-1.58-1.6-2.78l12.97-56.32c.28-1.2,1.41-1.98,2.63-1.8,11.87,1.73,62.43,15.82,77.64,20.1,1.18.33,2.15,1.15,2.68,2.26.53,1.11.55,2.39.06,3.52l-23.07,53.14c-.68,1.57-2.22,2.53-3.86,2.53ZM46.59,39.58c-.8,0-1.5.54-1.68,1.35l-12.97,56.32c-.2.88.31,1.78,1.18,2.05l66.19,20.45c1.75.54,3.62-.32,4.35-2l23.07-53.14c.42-.96.4-2.06-.05-3-.45-.94-1.28-1.65-2.29-1.93-15.2-4.28-65.73-18.36-77.56-20.08-.09-.01-.17-.02-.25-.02Z" />
    <path class="cls-5"
      d="M40.36,96.62c-1.93-2.19-2.67-5.18-1.99-7.99l8.38-34.71c.93-3.89,4.39-6.69,8.41-6.81.12,0,.24,0,.36,0,.66,0,1.33.08,1.99.25l2.81.68,3.61-.09-6.2-1.49c-.87-.22-1.75-.3-2.61-.27-4.43.13-8.25,3.22-9.28,7.52l-8.38,34.71c-.75,3.1.07,6.4,2.19,8.82,1.1,1.26,2.5,2.18,4.05,2.74l-.76-1.34c-.97-.5-1.86-1.17-2.59-2.01Z" />
    <path class="cls-5"
      d="M100.38,120.69c1.7,0,3.29-1,4-2.63l23.07-53.14c.51-1.17.48-2.5-.06-3.64-.54-1.14-1.56-2-2.78-2.34-8.05-2.26-26.02-7.28-42.9-11.76-1.29-.01-2.56-.03-3.79-.04,17.84,4.69,37.82,10.27,46.44,12.69.96.27,1.76.94,2.19,1.84.43.91.45,1.95.05,2.88l-23.07,53.14c-.7,1.61-2.49,2.43-4.17,1.91l-53.83-16.63,1.24,1.36,52.32,16.16c.43.13.86.2,1.29.2Z" />
    <path class="cls-5"
      d="M107.56,61.44c-1.38-2.25-3.54-3.83-6.09-4.44l-42.05-10.14c-.96-.02-4.02.25-4.02.25.03,0,.07,0,.1,0,.66,0,1.33.08,1.99.25l43.75,10.55c2.31.55,4.26,1.98,5.51,4.03,1.24,2.03,1.63,4.42,1.08,6.71l-11.93,34.3c-1.16,4.78-5.98,7.74-10.77,6.58l-40.2-10.12c-.15-.04-.29-.08-.44-.12-1.6-.47-3.03-1.39-4.15-2.66-.03-.03-.05-.06-.07-.09l1.83,2.71c.67.39,1.37.72,2.12.93.16.05.33.1.49.14l40.19,10.12c.77.19,1.54.27,2.31.27,4.44,0,8.49-3.03,9.58-7.5l11.93-34.28v-.04c.63-2.54.21-5.19-1.17-7.44Z" />
    <path class="cls-4"
      d="M122.71,66.93c0-2.24-1.39-4.15-3.36-4.92l.04-1.48h-3.28s0,.49,0,1.28c-2.29.58-3.98,2.65-3.98,5.12s1.7,4.55,4,5.12c0,.88,0,1.44-.02,1.45-.05.04,2.97,0,2.97,0l.04-1.57c2.09-.71,3.6-2.68,3.6-5.01Z" />
    <path class="cls-7"
      d="M112.13,66.93c0,4.48,3.33,4.42,3.54,4.98.38-2.81.44-9.43.44-9.43v-.68c-2.28.59-3.98,2.65-3.98,5.12Z" />
    <path class="cls-3"
      d="M88.08,75.33c0,7.79-6.32,14.11-14.11,14.11-4.53,0-8.56-2.14-11.14-5.46-1.87-2.39-2.97-5.39-2.97-8.66,0-7.79,6.32-14.11,14.11-14.11,5.46,0,10.19,3.1,12.53,7.63,1.01,1.94,1.58,4.15,1.58,6.48Z" />
    <path class="cls-7"
      d="M88.08,75.23c0,8.04-6.32,14.56-14.11,14.56-4.53,0-8.56-2.21-11.14-5.63.25-4.5,2.05-9.57,7.72-13.21,6.45-4.14,12.04-3.76,15.95-2.41,1.01,2,1.58,4.28,1.58,6.69Z" />
    <path class="cls-3"
      d="M73.79,69.45c1.24,3.03.79,6.08-1,6.81-1.79.73-4.25-1.13-5.49-4.16-1.24-3.03-.79-6.08,1-6.81,1.79-.73,4.25,1.13,5.49,4.16Z" />
    <path class="cls-7"
      d="M73.97,90.06c-4.58,0-8.82-2.08-11.63-5.7-2.03-2.6-3.1-5.72-3.1-9.03,0-8.12,6.61-14.73,14.73-14.73,5.53,0,10.54,3.05,13.08,7.97,1.08,2.07,1.65,4.41,1.65,6.76,0,8.12-6.61,14.73-14.73,14.73ZM73.97,61.84c-7.44,0-13.5,6.05-13.5,13.5,0,3.03.98,5.9,2.84,8.28,2.57,3.32,6.46,5.22,10.65,5.22,7.44,0,13.5-6.05,13.5-13.5,0-2.19-.51-4.27-1.51-6.19-2.33-4.5-6.92-7.3-11.98-7.3Z" />
    <path class="cls-7" d="M116.11,60.53l2.97,12.98s-3.02.04-2.97,0c.05-.04,0-12.98,0-12.98Z" />
    <path class="cls-5"
      d="M123.18,66.93c0-2.31-1.38-4.31-3.35-5.22l.04-1.65h-4.22v.47c0,.3,0,.61,0,.93-2.31.75-3.98,2.92-3.98,5.47s1.68,4.72,4,5.47c0,.38,0,.68,0,.86v.4c.1.27.12.33,1.5.33.47,0,1.09,0,1.93-.02h.45s.04-1.71.04-1.71c2.11-.85,3.61-2.92,3.61-5.33ZM112.6,66.93c0-2.03,1.27-3.77,3.05-4.48.01,3.15.02,6.75.01,8.96-1.79-.71-3.07-2.44-3.07-4.48ZM118.62,73.05c-.8,0-1.6.02-2.06.01.06-1.18.04-4.17.01-12.07h2.34l-.29,12.05ZM119.6,71.22l.21-8.47c1.46.83,2.45,2.39,2.45,4.18s-1.08,3.49-2.65,4.29Z" />
    <path class="cls-5"
      d="M35.74,59.24s-.04,0-.05,0c-.16-.03-.27-.17-.25-.33l1.44-15.76c.02-.17.17-.29.34-.28.17.02.29.17.28.34l-1.11,12.08,3.56-13.5c.04-.15.19-.25.34-.23.15.02.27.15.27.3l.03,5.87,1.91-7.03c.05-.16.21-.26.38-.22.16.04.26.21.22.38l-2.51,9.21c-.04.15-.19.25-.34.23-.15-.02-.27-.15-.27-.3l-.03-5.8-3.91,14.82c-.04.14-.16.23-.3.23Z" />
    <path class="cls-5"
      d="M195.85,177.42h0l-82.59-1.58c-.08,0-.16-.04-.22-.1L41.37,98.68c-.12-.12-.11-.32.02-.44.13-.12.32-.11.44.02l71.57,76.97,82.08,1.58-24.95-128.74c-5.59-.06-99.84-1.16-106.59-.92-2.99.1-5.72-.06-8.25-.23-.17-.01-.3-.16-.29-.33.01-.17.16-.3.33-.29,2.52.17,5.23.33,8.19.23,6.92-.23,105.87.92,106.86.93.15,0,.27.11.3.25l25.07,129.36c.02.09,0,.19-.07.26-.06.07-.15.11-.24.11Z" />
    <path class="cls-5"
      d="M136.46,154.91c-.79-2.22-3.65-9.51-7.09-9.93-2.9-.36-8.38,4.97-11.1,7.84-.61-.75-1.38-1.54-2.23-2.3,2.17-3.74,4.27-10.86-1.15-15.29-.53-.43-1.31-.35-1.74.17-.43.53-.35,1.31.17,1.74,4.46,3.64,1.98,9.51.75,11.79-.55-.41-1.12-.79-1.67-1.13.62-.91.98-2.02.98-3.21,0-3.16-2.56-5.73-5.73-5.73s-5.73,2.56-5.73,5.73,2.56,5.73,5.73,5.73c1.04,0,2.02-.28,2.86-.77.52.29,1.06.63,1.59,1.01-2.12,1.21-4.66,2.53-5.7,2.73-.93.18-3.73-1.4-5.78-2.99-.54-.42-1.31-.32-1.73.22-.42.54-.32,1.31.22,1.73,1.11.87,4.73,3.52,7.21,3.52.19,0,.38-.02.56-.05,1.76-.34,5.49-2.44,7.32-3.52,1.3,1.13,2.37,2.3,2.85,3.16,0,0,0,0,0,0,0,0,0,0,0,0,.01.02.03.03.04.05.05.09.12.17.19.23.03.03.07.05.1.08.06.05.12.09.19.13.04.02.09.04.13.05.07.02.13.04.21.06.05,0,.09.02.14.02.03,0,.05.01.08.01.06,0,.12-.01.17-.02.02,0,.05,0,.07,0,4.03-.82,9.09-1.12,10.23-.19.08.07.08.09.08.14,0,3.5-.1,9.65-.1,9.72-.01.68.53,1.24,1.21,1.26h.02c.67,0,1.22-.54,1.23-1.21,0-.06.1-6.24.1-9.76,0-.81-.34-1.52-.99-2.05-1.68-1.37-5.58-1.25-8.6-.9,3.15-3.09,6.4-5.69,7.49-5.55,1.29.16,3.71,4.51,5.07,8.31.23.64.94.98,1.58.75.64-.23.98-.93.75-1.58Z" />
    <path class="cls-5"
      d="M172.63,71.6c-.11-.14-2.68-3.42-5.42-5.45-1.49-1.1-3.15-1.47-4.82-1.05-3.41.86-6.14,4.88-7.42,7.12-1.69-1.41-3.67-2.21-5.69-2.61,3.65-2.49,7.09-4.74,7.86-5.06.57-.11,1-.61,1-1.21,0-.68-.55-1.23-1.23-1.23-.41,0-1.18,0-11.44,7.13-.83-.01-1.64.02-2.41.07-.3-2.76-2.63-4.9-5.47-4.9-3.04,0-5.51,2.46-5.51,5.51s2.46,5.51,5.51,5.51c2.37,0,4.39-1.5,5.16-3.61.76-.06,1.49-.09,2.18-.09,1.66,5.3,3.84,11.4,5.32,12.34.21.13.44.2.66.2.41,0,.8-.2,1.04-.57.36-.56.21-1.3-.33-1.68-.74-.73-2.55-5.52-4.05-10.15,3.03.36,5.24,1.42,6.79,3.21,0,0,.01,0,.01.01,0,0,0,0,0,.01.11.12,2.71,2.97,4.56,4.72.74.71.94,5.61.42,10.5-.07.68.42,1.29,1.1,1.36.04,0,.09,0,.13,0,.62,0,1.16-.47,1.23-1.1.33-3.13.88-10.62-1.19-12.56-1.28-1.2-2.98-3.01-3.85-3.95,1.12-2.1,3.61-5.89,6.22-6.55.94-.24,1.84-.03,2.74.64,2.47,1.83,4.93,4.96,4.95,4.99.42.54,1.2.63,1.73.21.54-.42.63-1.2.21-1.73Z" />
    <path class="cls-1"
      d="M137.59,75.41c2.37,0,4.39-1.5,5.16-3.61.76-.06,1.49-.09,2.18-.09,1.66,5.3,3.84,11.4,5.32,12.34.21.13.44.2.66.2.41,0,.8-.2,1.04-.57.36-.56.21-1.3-.33-1.68-.74-.73-2.55-5.52-4.05-10.15,3.03.36,5.24,1.42,6.79,3.21,0,0,.01,0,.01.01,0,0,0,0,0,.01.11.12,2.71,2.97,4.56,4.72.74.71.94,5.61.42,10.5-.07.68.42,1.29,1.1,1.36.04,0,.09,0,.13,0,.62,0,1.16-.47,1.23-1.1.33-3.13.88-10.62-1.19-12.56-1.28-1.2-2.98-3.01-3.85-3.95.12-.23.26-.47.41-.73l-24.28-6.29c-.52.84-.82,1.82-.82,2.88,0,3.04,2.46,5.51,5.51,5.51Z" />
    <path class="cls-1"
      d="M162.72,131.88c-.09-1.4-.3-2.79-.63-4.2,1.7-1.44,3.02-3.19,3.08-5.07.1-3.49-1.03-8.96-1.08-9.19-.14-.67-.8-1.09-1.46-.96-.67.14-1.1.79-.96,1.46.01.05,1.12,5.41,1.03,8.62-.02.78-.57,1.65-1.39,2.48-.31-.9-.67-1.82-1.09-2.75.45-.76.72-1.64.72-2.59,0-2.8-2.27-5.06-5.06-5.06s-5.06,2.27-5.06,5.06,2.27,5.06,5.06,5.06c.88,0,1.72-.23,2.44-.63.36.89.68,1.75.94,2.6-1.48,1.02-3.14,1.84-4.31,2.17-1.22.34-3.7-1.69-4.99-3.17-.45-.51-1.23-.57-1.74-.12-.51.45-.57,1.23-.12,1.74.63.73,3.68,4.06,6.58,4.06.32,0,.63-.04.94-.13,1.05-.3,2.67-1,4.28-2,.16.84.28,1.67.34,2.51-1.02.95-3.52,3.37-4.82,5.57-1.63,2.75.86,8.17,2.49,11.15l1.1-.56,1.07-.63c-2.14-3.92-3.2-7.58-2.53-8.71.92-1.55,2.62-3.32,3.73-4.4,3.03,4.84,6.62,11.57,6.3,13.53-.11.67.34,1.31,1.02,1.42.07.01.14.02.2.02.59,0,1.12-.43,1.22-1.03.62-3.71-5.6-13.66-7.28-16.25Z" />
    <path class="cls-5"
      d="M24.42,97.3s-.05,0-.07,0c-.17-.04-.27-.2-.23-.37l1.78-7.55c.04-.17.2-.27.37-.23.17.04.27.2.23.37l-1.78,7.55c-.03.14-.16.24-.3.24Z" />
    <path class="cls-5"
      d="M25.52,97.64s-.06,0-.09-.01q-.31-.09,1.38-6.84c.04-.17.21-.26.37-.22.17.04.27.21.22.37-.61,2.42-1.52,6.08-1.58,6.41,0,.02,0,.05-.01.07-.04.13-.16.22-.3.22Z" />
    <path class="cls-5"
      d="M101.87,102.98c-.93,0-1.68-.75-1.68-1.68s.75-1.68,1.68-1.68,1.68.75,1.68,1.68-.75,1.68-1.68,1.68ZM101.87,100.24c-.58,0-1.06.48-1.06,1.06s.48,1.06,1.06,1.06,1.06-.48,1.06-1.06-.48-1.06-1.06-1.06Z" />
    <path class="cls-5"
      d="M106.24,104.53c-.93,0-1.68-.75-1.68-1.68s.75-1.68,1.68-1.68,1.68.75,1.68,1.68-.75,1.68-1.68,1.68ZM106.24,101.79c-.58,0-1.06.48-1.06,1.06s.48,1.06,1.06,1.06,1.06-.48,1.06-1.06-.48-1.06-1.06-1.06Z" />
    <path class="cls-5"
      d="M99.82,107.48c-.93,0-1.68-.75-1.68-1.68s.75-1.68,1.68-1.68,1.68.75,1.68,1.68-.75,1.68-1.68,1.68ZM99.82,104.74c-.59,0-1.06.48-1.06,1.06s.48,1.06,1.06,1.06,1.06-.48,1.06-1.06-.48-1.06-1.06-1.06Z" />
    <path class="cls-5"
      d="M104.2,109.03c-.93,0-1.68-.75-1.68-1.68s.75-1.68,1.68-1.68,1.68.75,1.68,1.68-.75,1.68-1.68,1.68ZM104.2,106.29c-.59,0-1.06.48-1.06,1.06s.48,1.06,1.06,1.06,1.06-.48,1.06-1.06-.48-1.06-1.06-1.06Z" />
    <path class="cls-5"
      d="M97.78,111.57c-.93,0-1.68-.75-1.68-1.68s.75-1.68,1.68-1.68,1.68.75,1.68,1.68-.75,1.68-1.68,1.68ZM97.78,108.83c-.58,0-1.06.48-1.06,1.06s.48,1.06,1.06,1.06,1.06-.48,1.06-1.06-.48-1.06-1.06-1.06Z" />
    <path class="cls-5"
      d="M102.15,113.12c-.93,0-1.68-.75-1.68-1.68s.75-1.68,1.68-1.68,1.68.75,1.68,1.68-.75,1.68-1.68,1.68ZM102.15,110.38c-.58,0-1.06.48-1.06,1.06s.48,1.06,1.06,1.06,1.06-.48,1.06-1.06-.48-1.06-1.06-1.06Z" />
    <path class="cls-7"
      d="M142.28,55.31h-2.12v-5c0-.58-.47-1.05-1.05-1.05s-1.05.47-1.05,1.05v5h-2.12c-.58,0-1.05.47-1.05,1.05s.47,1.05,1.05,1.05h2.12v5c0,.58.47,1.05,1.05,1.05s1.05-.47,1.05-1.05v-5h2.12c.58,0,1.05-.47,1.05-1.05s-.47-1.05-1.05-1.05Z" />
    <path class="cls-7"
      d="M92.71,133.54h-2.12v-5c0-.58-.47-1.05-1.05-1.05s-1.05.47-1.05,1.05v5h-2.12c-.58,0-1.05.47-1.05,1.05s.47,1.05,1.05,1.05h2.12v5c0,.58.47,1.05,1.05,1.05s1.05-.47,1.05-1.05v-5h2.12c.58,0,1.05-.47,1.05-1.05s-.47-1.05-1.05-1.05Z" />
    <path class="cls-7"
      d="M153.66,160.94h-2.12v-5c0-.58-.47-1.05-1.05-1.05s-1.05.47-1.05,1.05v5h-2.12c-.58,0-1.05.47-1.05,1.05s.47,1.05,1.05,1.05h2.12v5c0,.58.47,1.05,1.05,1.05s1.05-.47,1.05-1.05v-5h2.12c.58,0,1.05-.47,1.05-1.05s-.47-1.05-1.05-1.05Z" />
    <path class="cls-1"
      d="M130.99,107.14h-2.12v-5c0-.58-.47-1.05-1.05-1.05s-1.05.47-1.05,1.05v5h-2.12c-.58,0-1.05.47-1.05,1.05s.47,1.05,1.05,1.05h2.12v5c0,.58.47,1.05,1.05,1.05s1.05-.47,1.05-1.05v-5h2.12c.58,0,1.05-.47,1.05-1.05s-.47-1.05-1.05-1.05Z" />
  </g>
</svg>