<?xml version="1.0" encoding="UTF-8"?>
<svg id="Capa_2" xmlns="http://www.w3.org/2000/svg" viewBox="0 0 222.85 187.61">
  <defs>
    <style>
      .cls-1 {
        fill: #00ffdb;
      }

      .cls-2 {
        fill: #7a00ba;
      }

      .cls-3 {
        fill: #fff;
      }

      .cls-4 {
        fill: #fe0;
      }

      .cls-5 {
        fill: #ff387f;
      }
    </style>
  </defs>
  <g id="layer_1">
    <path class="cls-3"
      d="M220.45,125.42c-.78-.64-1.7-1.08-2.68-1.3,0-.03-.02-.06-.03-.09.55-.96.86-2.06.86-3.21l.04-14.77c0-1.37-.42-2.68-1.18-3.77,3.03-.64,5.2-3.34,5.17-6.44l-.16-17.79c-.02-1.96-.91-3.78-2.43-5.01-.77-.62-1.68-1.06-2.65-1.28-.36-1.28-1.11-2.43-2.16-3.28-.99-.81-2.21-1.3-3.48-1.43-.4-1.13-1.1-2.14-2.06-2.91-1.16-.93-2.61-1.45-4.1-1.45-.44,0-.88.05-1.3.13l-29.01,5.91-13.55,2.58v-29.01l12.3-2.39c3.06-.59,5.28-3.28,5.28-6.4V15.43c0-1.97-.87-3.81-2.39-5.05-.78-.64-1.71-1.09-2.69-1.31-.36-1.27-1.1-2.41-2.15-3.27-1-.81-2.21-1.31-3.49-1.44-.39-1.12-1.08-2.11-2-2.87-1.16-.96-2.64-1.49-4.15-1.49-.06,0-.5.02-.5.02-.21,0-.41.03-.61.07l-49.15,9.92c-.43,0-.86-.01-1.28-.01-4.3,0-8.48.43-12.44,1.27-8.1,1.74-15.02,5.72-19.75,11.33-3.59-2.56-7.82-3.95-12.48-4.07h-.77c-8.33,0-16.61,2.66-23.32,7.49-3.17,2.28-5.95,5.21-8.31,8.75-.13-.13-.28-.25-.42-.37-.99-.79-2.19-1.28-3.45-1.41-.4-1.15-1.11-2.16-2.07-2.92-1.15-.93-2.6-1.44-4.09-1.44-.42,0-.85.04-1.3.13l-17.3,3.52C2.19,32.9-.01,35.6,0,38.71l.31,70.43c0,1.96.88,3.8,2.41,5.04.99.8,2.21,1.3,3.47,1.42.39,1.12,1.09,2.13,2.05,2.9.78.63,1.69,1.07,2.66,1.29.36,1.27,1.11,2.42,2.17,3.28,1.16.94,2.62,1.46,4.11,1.46.06,0,.5-.02.5-.02.2,0,.41-.03.61-.07l22.81-4.61.23,52.36c0,1.96.88,3.79,2.42,5.05.99.8,2.21,1.3,3.47,1.42.39,1.12,1.09,2.13,2.04,2.9.78.63,1.69,1.07,2.67,1.3.36,1.27,1.11,2.42,2.17,3.28,1.16.94,2.62,1.46,4.11,1.46.06,0,.5-.02.5-.02.21,0,.41-.03.61-.07l39.53-8c2.06-.42,3.73-1.79,4.59-3.59,1.06.42,1.96.73,2.67.94.62.19,1.25.28,1.9.28.33,0,.66-.03.99-.07.8.34,1.66.51,2.53.51s1.75-.18,2.54-.51c4.15-1.75,11.6-8.41,18.9-18.24.74.39,1.56.64,2.42.73.75,2.15,2.55,3.71,4.7,4.2l.08.24c.88,2.69,3.37,4.5,6.2,4.5.06,0,.48-.02.48-.02.2,0,.39-.03.58-.07l22.99-4.46c1.28-.25,2.43-.87,3.33-1.75.98.56,2.1.86,3.24.86.05,0,.49-.02.49-.02.21,0,.42-.03.62-.08l39.53-8c3.03-.61,5.23-3.3,5.23-6.39v-18.1c0-1.96-.87-3.81-2.4-5.05Z" />
    <path class="cls-2"
      d="M58.2,183.65c-.59,0-1.16-.2-1.62-.57-.6-.49-.95-1.21-.95-1.98v-2.42s-1.93.39-1.93.39h-.33c-.59.01-1.16-.19-1.62-.56-.6-.49-.95-1.21-.95-1.98v-2.32s-2.62.53-2.62.53h-.33c-.59.01-1.16-.19-1.62-.56-.6-.49-.95-1.21-.95-1.98l-.25-57.18-27.53,5.57h-.33c-.59.01-1.16-.19-1.62-.56-.6-.49-.95-1.21-.95-1.98v-2.42s-1.93.39-1.93.39h-.33c-.59.01-1.16-.19-1.62-.56-.6-.49-.95-1.21-.95-1.98v-2.32s-2.62.53-2.62.53h-.33c-.59.01-1.16-.19-1.62-.56-.6-.49-.95-1.21-.95-1.98l-.31-70.43c0-1.22.86-2.28,2.06-2.53l17.3-3.52c.18-.03.35-.05.51-.05.58,0,1.15.2,1.6.56.59.46.94,1.17.96,1.93l.06,2.37,2.38-.48c.17-.03.34-.05.51-.05.58,0,1.15.2,1.6.57.59.46.94,1.17.96,1.93l.07,2.47,1.69-.34c.16-.03.34-.05.51-.05.12,0,.25,0,.37.03,2.57-5.27,5.9-9.4,9.93-12.29,6.04-4.35,13.5-6.75,21.01-6.75h.77c5.16.13,9.69,2.19,13.17,5.99.33-.59.67-1.14,1.03-1.66,4.12-5.81,10.81-9.96,18.85-11.68,3.68-.79,7.59-1.18,11.61-1.18.54,0,1.09,0,1.63.02l49.59-10.01h.33c.6-.01,1.18.19,1.63.57.59.48.93,1.21.93,1.98v2.31l2.62-.53h.33c.59-.01,1.17.19,1.63.57.6.49.94,1.21.94,1.99v2.42l1.93-.39h.33c.59-.01,1.17.19,1.63.57.6.49.94,1.21.94,1.98v18.07c0,1.23-.87,2.29-2.08,2.52l-15.5,3.01v37.05l18.24-3.47,29.06-5.92c.17-.04.34-.05.51-.05.58,0,1.16.2,1.61.57.6.48.95,1.2.95,1.97l.02,2.33,2.6-.53h.33c.59-.01,1.16.19,1.62.56.59.48.94,1.2.95,1.97l.02,2.44,1.91-.39h.33c.59-.01,1.16.19,1.61.55.6.48.95,1.2.96,1.97l.16,17.79c.01,1.23-.85,2.29-2.06,2.54l-7.29,1.48c.34.44.53.99.53,1.57v2.44s1.71-.38,1.71-.38c.17-.04.36-.06.55-.06.58,0,1.15.2,1.61.57.61.49.96,1.22.96,2.01l-.04,14.77c0,1.19-.85,2.25-2.02,2.5l-.5.11c.36.09.7.26.99.5.6.49.94,1.21.94,1.99v2.41l1.94-.39h.32c.59-.01,1.17.19,1.63.56.6.49.94,1.22.94,1.99v18.1c0,1.22-.87,2.27-2.06,2.52l-39.53,8h-.33c-.59.01-1.17-.19-1.62-.56-.6-.49-.94-1.21-.95-1.98v-2.42s-1.86.38-1.86.38l-.88,3.65c-.24.98-1.02,1.73-2.01,1.92l-22.99,4.46h-.31c-1.11.01-2.1-.7-2.44-1.76l-.99-3.03-1.08.21h-.32c-1.11.01-2.1-.7-2.44-1.76l-.96-2.92-1.81.35h-.32c-1.11.01-2.09-.7-2.44-1.76l-.62-1.9c-8.12,12.17-16.79,19.93-20.44,21.47-.31.13-.65.2-1,.2-.69,0-1.36-.29-1.85-.78-.05-.05-.1-.11-.14-.16-.43.32-.97.51-1.53.51-.25,0-.5-.04-.75-.11-1.37-.42-3.9-1.33-7.17-3.14l.02,3.16c.01,1.22-.85,2.29-2.06,2.53l-39.53,8h-.33ZM148.88,107.12l3.45-14.85-7.51,1.66,4.07,13.19ZM66.24,55.75c-.78.9-1.49,2.01-2.04,3.21-2.34,5.14-3.45,12.28-3.15,19.95,1.22-1.35,2.29-3.09,3.01-4.98,1.87-4.82,2.7-11.45,2.21-17.75-.01-.14-.02-.29-.04-.44ZM97.92,71.82c.4.02.8.02,1.18.02,1.45,0,2.77-.11,4.02-.35,1.16-.22,2.16-.59,2.97-1.1-2.71-.48-5.46-1.02-8.03-2.06-.02,1.16-.07,2.32-.14,3.48ZM107.48,44.59c3.89.74,7.85,1.66,11.66,3.75,1.59.87,3.03,1.9,4.31,3.07v-5.34l-4.66.94h-.32c-.59.01-1.17-.19-1.63-.57-.6-.49-.94-1.21-.94-1.99v-2.42l-1.93.39h-.32c-.22.01-.45-.02-.66-.07-2.3.45-4.18,1.22-5.49,2.22Z" />
    <path class="cls-5"
      d="M117.25,149.07l-14.03-14.74,10.57-19.65-6.38-7.29s-.01.01-.01.01c0,0-14.12-11.61-26.31,0-2.54,2.42-4.38,5-5.69,7.67l-.21-7.95-17.3,3.52.31,70.44,39.35-7.96-.06-7.8c4.3,2.92,8.01,4.55,10.51,5.31l9.25-21.56ZM76.55,158.47l-.45-17.3c.88,1.95,1.88,3.68,2.86,5.13,2.65,3.9,5.38,7.24,8.08,10.07l-10.49,2.1Z" />
    <path class="cls-5"
      d="M195.48,134.65l-.4-10.16,17-3.7.04-14.77-17.44,3.81-.22-9.56,21.65-4.38-.16-17.79-29.08,5.92-.48.09-17.92,3.42-12.16,52.4-14.55-47.18-5.26,1.1-4.52.94c-4.14-.78-8.09.15-11.56,1.8-4.66,2.21-8.48,5.72-10.73,8.14l8.65,9.59-10.4,19.84,14.03,14.2-10.47,22.7c3.2-1.35,16.16-12.32,26.06-32.15.19-.38.45-.91.75-1.55l8.04,24.61,22.82-4.43,7.7-32,.1,30.99,39.35-7.96v-18.1l-20.84,4.18Z" />
    <path class="cls-5"
      d="M59.6,108.81c8.14.92,17.13-1.92,23.67-7.55,1.79-1.54,3.36-3.34,4.74-5.35,4.87,1.79,13.83,4.34,22.79,3.17,3.26-.43,6.47-1.38,9.49-2.8,3.04-1.41,5.87-3.28,8.36-5.56,3.18-2.9,6.22-6.8,7.71-11.15v13.59l18.87-4.18v-52.08l17.58-3.42V15.43l-49.68,10.03c-3.75-.12-8.26.1-12.93,1.1-6.57,1.41-13.18,4.85-17.29,10.65-1.11,1.58-1.95,3.37-2.52,5.28-3.09-5.34-7.93-8.37-13.79-8.52h-.63c-6.83-.03-13.84,2.08-19.65,6.26-5.65,4.06-9.5,10.75-11.72,17.91-2.01,6.47-2.7,13.42-2.6,20.28.07,5.13.59,10.29,2.05,15.13.01.04.03.1.04.15l-8.56,1.72-1.36-51.34-17.3,3.52.31,70.44,39.36-7.96v-1.89c.95.31,1.98.53,3.07.65ZM115.5,39.43c1.01-.09,1.99-.13,2.95-.15v5.18l17.91-3.61v27.66c-1.47-3.94-4.43-7-8.11-9.02-5.12-2.82-10.66-3.33-16.19-4.49-3.24-.66-9.22-2.05-9.22-6.63,0-4.87,4.71-8.31,12.67-8.95ZM114.61,69.67c4.65,1.58,9.5,6.07,4.5,10.79-1.44,1.36-3.3,2.11-5.18,2.46-4.72.88-9.68.12-14.36-.72-.32-.06-3.2-.78-5.46-1.29,1.17-5.5,1.57-11.34,1.31-17,5.21,4.06,12.85,3.59,19.18,5.75ZM61.86,57.9c1.8-3.96,5.22-7.54,9.15-7,5.54.76,7.71,8.15,8.17,13.99.47,6.1-.22,13.32-2.38,18.87-2.11,5.48-7.24,11.01-12.57,8.87-.45-.19-.91-.44-1.33-.76-2.65-1.95-3.9-5.92-4.22-9.72-.69-8.01.04-17.35,3.18-24.26Z" />
    <path class="cls-2"
      d="M17.18,118.76c-.17,0-.33-.06-.46-.16-.17-.14-.27-.35-.27-.57l-.31-70.44c0-.35.24-.65.59-.72l17.3-3.52c.21-.04.43,0,.6.14.17.13.27.34.28.55l1.34,50.47,6.93-1.39c-1.2-4.2-1.82-9.02-1.9-14.71-.11-7.63.77-14.53,2.63-20.51,1.75-5.67,5.26-13.44,11.99-18.28,5.74-4.13,12.82-6.4,19.94-6.4h.77c5.57.14,10.34,2.81,13.59,7.56.56-1.46,1.27-2.8,2.12-4.01,3.85-5.43,10.15-9.32,17.74-10.94,4.12-.88,8.5-1.26,13.03-1.12l49.6-10.01c.22-.04.44.01.61.15.17.14.27.35.27.57v18.07c0,.35-.25.65-.59.72l-16.99,3.3v51.47c0,.34-.24.64-.57.72l-18.87,4.18c-.21.05-.44,0-.62-.14-.17-.14-.27-.35-.27-.57v-10.11c-1.54,2.89-3.77,5.72-6.49,8.2-2.55,2.32-5.42,4.23-8.54,5.68-3.11,1.46-6.38,2.43-9.7,2.86-8.91,1.17-17.79-1.3-22.61-3.01-1.37,1.93-2.9,3.62-4.54,5.03-6.63,5.71-15.91,8.67-24.23,7.72-.76-.08-1.52-.22-2.26-.4v.91c.01.35-.24.65-.58.72l-39.36,7.96s-.1.01-.15.01ZM17.61,48.19l.3,68.94,37.89-7.67v-1.29c-.01-.24.1-.46.29-.6.19-.14.43-.18.66-.11.94.3,1.93.51,2.94.62,7.93.9,16.78-1.93,23.11-7.38,1.68-1.44,3.23-3.2,4.61-5.21.19-.28.55-.39.86-.27,4.55,1.67,13.51,4.3,22.44,3.13,3.18-.42,6.3-1.34,9.27-2.74,2.99-1.39,5.74-3.22,8.18-5.44,3.55-3.24,6.22-7.09,7.52-10.84.12-.34.46-.54.81-.48.35.06.61.37.61.72v12.68l17.41-3.85v-51.49c0-.35.25-.65.59-.72l16.99-3.3v-16.57l-48.81,9.85c-.06.01-.11.02-.17.01-4.44-.13-8.73.23-12.76,1.08-7.23,1.55-13.21,5.23-16.85,10.35-1.04,1.47-1.85,3.18-2.42,5.07-.08.28-.33.48-.62.52-.3.04-.57-.11-.72-.36-2.97-5.12-7.64-8.02-13.17-8.16h-.61c-6.85,0-13.7,2.15-19.22,6.12-6.4,4.61-9.76,12.07-11.44,17.53-1.81,5.84-2.68,12.58-2.56,20.05.08,5.83.74,10.72,2.02,14.93.06.2.06.49-.05.66-.11.18-.26.38-.46.42l-8.56,1.72c-.21.04-.43-.01-.6-.15-.17-.14-.27-.34-.28-.55l-1.34-50.47-15.86,3.22ZM109.44,84.05c-3.34,0-6.73-.54-9.98-1.12-.15-.03-.79-.18-1.66-.39-1.09-.26-2.56-.62-3.83-.91-.39-.09-.64-.48-.55-.87,1.11-5.22,1.56-11.03,1.29-16.81-.01-.29.14-.55.4-.69.26-.13.56-.1.79.07,3.16,2.47,7.25,3.18,11.58,3.94,2.47.43,5.02.88,7.39,1.69,2.8.95,6.31,3.18,7,6.33.3,1.36.15,3.45-2.23,5.69h0c-1.41,1.33-3.27,2.23-5.55,2.65-1.52.28-3.08.4-4.64.4ZM94.99,80.37c1.09.25,2.24.53,3.15.75.83.2,1.44.35,1.58.37,4.83.86,9.54,1.57,14.09.72,1.99-.37,3.61-1.14,4.81-2.27,0,0,0,0,0,0,1.51-1.42,2.11-2.88,1.8-4.32-.52-2.38-3.4-4.35-6.04-5.25-2.26-.77-4.76-1.21-7.17-1.63-3.81-.67-7.74-1.36-10.99-3.37.13,5.15-.29,10.3-1.23,15ZM136.36,69.25c-.3,0-.58-.19-.69-.48-1.33-3.58-4.02-6.57-7.77-8.63h0c-3.92-2.16-8.05-2.92-12.42-3.72-1.19-.22-2.37-.44-3.56-.69-2.93-.6-9.81-2-9.81-7.35s5.11-9.02,13.35-9.68c.97-.08,1.95-.13,3-.15.2.02.39.07.53.21.14.14.22.33.22.52v4.28l17.03-3.43c.21-.04.44.01.61.15.17.14.27.35.27.57v27.66c0,.36-.25.66-.6.72-.04,0-.09.01-.13.01ZM128.6,58.85c3.01,1.66,5.4,3.87,7.02,6.5v-23.6l-17.03,3.43c-.22.04-.44-.01-.61-.15-.17-.14-.27-.35-.27-.57v-4.43c-.74.02-1.44.07-2.15.13-7.4.59-12,3.73-12,8.21,0,3.68,4.62,5.09,8.64,5.91,1.18.25,2.36.46,3.53.68,4.29.79,8.74,1.61,12.86,3.88h0Z" />
    <path class="cls-2"
      d="M66.63,93.85c-.9,0-1.79-.18-2.67-.53-.56-.23-1.06-.52-1.5-.86-3.38-2.48-4.28-7.48-4.51-10.24-.8-9.34.38-18.31,3.25-24.62,1.74-3.81,5.38-8.05,9.92-7.42,7.18.99,8.55,11.47,8.8,14.66.52,6.76-.38,13.94-2.42,19.2-1.29,3.34-4.01,7.5-7.79,9.14-1.03.45-2.05.67-3.07.67ZM70.21,51.58c-3.43,0-6.25,3.48-7.68,6.62-2.77,6.09-3.9,14.79-3.12,23.89.36,4.28,1.8,7.63,3.93,9.2.36.27.75.5,1.18.68,1.48.59,3.03.55,4.59-.13,2.77-1.21,5.53-4.48,7.01-8.33t0,0c1.96-5.06,2.83-12,2.33-18.55-.47-6-2.69-12.65-7.54-13.32-.23-.03-.47-.05-.7-.05Z" />
    <path class="cls-2"
      d="M58.2,181.82c-.17,0-.33-.06-.46-.16-.17-.14-.27-.35-.27-.57l-.31-70.44c0-.35.24-.65.59-.72l17.31-3.52c.21-.04.43,0,.6.14.17.13.27.34.28.55l.14,5.27c1.23-1.96,2.74-3.81,4.52-5.5,11.84-11.28,25.57-1.35,27.13-.15.09.04.18.1.25.18l6.38,7.29c.2.23.24.56.09.83l-10.32,19.18,13.67,14.35c.2.21.26.53.14.79l-9.25,21.56c-.15.34-.53.52-.89.41-1.72-.52-5.14-1.8-9.56-4.64l.05,6.43c0,.35-.24.65-.59.72l-39.35,7.96s-.1.01-.15.01ZM58.62,111.25l.3,68.94,37.88-7.67-.05-7.2c0-.27.15-.52.39-.65.24-.13.53-.11.76.04,4.31,2.93,7.74,4.36,9.69,5.01l8.8-20.5-13.7-14.39c-.22-.23-.26-.57-.11-.85l10.33-19.2-5.93-6.78s-.03-.02-.04-.03c-.56-.46-13.77-11.06-25.34-.04-2.35,2.24-4.21,4.75-5.54,7.46-.15.3-.48.47-.81.39-.33-.07-.57-.36-.58-.7l-.18-7.07-15.86,3.23ZM76.56,159.2c-.16,0-.33-.06-.46-.16-.17-.13-.27-.34-.28-.55l-.45-17.31c0-.35.23-.66.57-.73.34-.08.69.1.83.41.8,1.77,1.74,3.46,2.8,5.02,2.5,3.67,5.19,7.03,8,9.98.18.19.25.47.17.73-.08.25-.29.45-.55.5l-10.49,2.1s-.1.01-.14.01ZM76.92,144.4l.35,13.18,8.34-1.67c-2.54-2.77-4.98-5.86-7.25-9.2-.5-.75-.98-1.52-1.43-2.31Z" />
    <path class="cls-2"
      d="M111.52,171.8c-.19,0-.39-.08-.53-.22-.21-.22-.27-.54-.14-.82l10.26-22.24-13.68-13.83c-.22-.23-.28-.57-.13-.86l10.16-19.39-8.31-9.21c-.25-.28-.25-.71,0-.99,1.94-2.08,5.94-5.92,10.96-8.3,4.05-1.94,8.04-2.57,11.86-1.89l9.64-2.01c.37-.08.74.14.85.5l13.75,44.58,11.54-49.75c.07-.28.29-.5.58-.55l18.41-3.51,29.06-5.92c.21-.04.44.01.61.15.17.14.27.34.27.56l.16,17.79c0,.35-.24.66-.59.73l-21.04,4.26.19,8.06,16.57-3.62c.22-.05.44,0,.62.15.17.14.27.35.27.57l-.04,14.77c0,.34-.24.64-.58.71l-16.4,3.56.34,8.69,20-4.01c.21-.04.44.01.61.15.17.14.27.35.27.57v18.1c0,.35-.25.65-.59.72l-39.35,7.96c-.21.04-.44-.01-.61-.15-.17-.14-.27-.35-.27-.57l-.08-24.89-6.27,26.07c-.07.28-.29.49-.57.55l-22.82,4.43c-.36.07-.72-.14-.84-.49l-7.47-22.87c-9.62,19.22-22.59,30.81-26.39,32.41-.09.04-.19.06-.28.06ZM108.85,134.04l13.66,13.81c.21.22.27.54.14.82l-9.46,20.5c4.71-3.43,15.21-13.53,23.72-30.58.2-.4.46-.91.74-1.53.13-.28.41-.44.71-.43.3.02.56.22.66.5l7.84,23.99,21.72-4.22,7.59-31.54c.09-.36.43-.61.8-.56.37.04.65.35.65.73l.1,30.09,37.88-7.67v-16.6l-19.96,4c-.21.04-.43,0-.6-.14-.17-.13-.27-.33-.28-.55l-.4-10.16c-.01-.36.23-.67.58-.75l16.42-3.57.04-13.27-16.54,3.62c-.22.05-.44,0-.61-.14-.17-.14-.28-.34-.28-.56l-.22-9.56c0-.36.24-.67.59-.74l21.05-4.26-.15-16.29-28.71,5.84-17.45,3.33-12.05,51.93c-.07.32-.36.56-.69.57-.33.02-.63-.2-.73-.52l-14.35-46.54-9.13,1.9c-.09.02-.19.02-.28,0-3.56-.67-7.29-.08-11.1,1.75-4.43,2.1-8.05,5.42-10.05,7.49l8.2,9.09c.21.23.25.56.11.83l-10.15,19.37Z" />
    <path class="cls-1"
      d="M112.42,144.49l-14.03-14.74,10.57-19.65-6.38-7.29s-.01.01-.01.01c0,0-14.12-11.61-26.31,0-2.54,2.42-4.38,5-5.69,7.67l-.21-7.95-17.3,3.52.31,70.44,39.35-7.96-.06-7.8c4.3,2.92,8.01,4.55,10.51,5.31l9.25-21.56ZM71.72,153.89l-.45-17.3c.88,1.95,1.88,3.68,2.86,5.13,2.65,3.9,5.38,7.24,8.08,10.07l-10.49,2.1Z" />
    <path class="cls-1"
      d="M190.65,130.08l-.4-10.16,17-3.7.04-14.77-17.44,3.81-.22-9.56,21.65-4.38-.16-17.79-29.08,5.92-.48.09-17.92,3.42-12.16,52.4-14.55-47.18-5.26,1.1-4.52.94c-4.14-.78-8.09.15-11.56,1.8-4.66,2.21-8.48,5.72-10.73,8.14l8.65,9.59-10.4,19.84,14.03,14.2-10.47,22.7c3.2-1.35,16.16-12.32,26.06-32.15.19-.38.45-.91.75-1.55l8.04,24.61,22.82-4.43,7.7-32,.1,30.99,39.35-7.96v-18.1l-20.84,4.18Z" />
    <path class="cls-1"
      d="M54.77,104.24c8.14.92,17.13-1.92,23.67-7.55,1.79-1.54,3.36-3.34,4.74-5.35,4.87,1.79,13.83,4.34,22.79,3.17,3.26-.43,6.47-1.38,9.49-2.8,3.04-1.41,5.87-3.28,8.36-5.56,3.18-2.9,6.22-6.8,7.71-11.15v13.59l18.87-4.18v-52.08l17.58-3.42V10.85l-49.68,10.03c-3.75-.12-8.26.1-12.93,1.1-6.57,1.41-13.18,4.85-17.29,10.65-1.11,1.58-1.95,3.37-2.52,5.28-3.09-5.34-7.93-8.37-13.79-8.52h-.63c-6.83-.03-13.84,2.08-19.65,6.26-5.65,4.06-9.5,10.75-11.72,17.91-2.01,6.47-2.7,13.42-2.6,20.28.07,5.13.59,10.29,2.05,15.13.01.04.03.1.04.15l-8.56,1.72-1.36-51.34-17.3,3.52.31,70.44,39.36-7.96v-1.89c.95.31,1.98.53,3.07.65ZM110.67,34.86c1.01-.09,1.99-.13,2.95-.15v5.18l17.91-3.61v27.66c-1.47-3.94-4.43-7-8.11-9.02-5.12-2.82-10.66-3.33-16.19-4.49-3.24-.66-9.22-2.05-9.22-6.63,0-4.87,4.71-8.32,12.67-8.95ZM109.78,65.1c4.65,1.58,9.5,6.07,4.5,10.79-1.44,1.36-3.3,2.11-5.18,2.46-4.72.88-9.68.12-14.36-.72-.32-.06-3.2-.78-5.46-1.29,1.17-5.5,1.57-11.34,1.31-17,5.21,4.06,12.85,3.59,19.18,5.75ZM57.03,53.32c1.8-3.96,5.22-7.54,9.15-7,5.54.76,7.71,8.15,8.17,13.99.47,6.1-.22,13.32-2.38,18.87-2.11,5.48-7.24,11.01-12.57,8.87-.45-.19-.91-.44-1.33-.76-2.65-1.95-3.9-5.92-4.22-9.72-.69-8.01.04-17.35,3.18-24.26Z" />
    <path class="cls-2"
      d="M12.35,114.18c-.17,0-.33-.06-.46-.16-.17-.14-.27-.35-.27-.57l-.31-70.44c0-.35.24-.65.59-.72l17.3-3.52c.21-.04.43,0,.6.14.17.14.27.34.28.55l1.34,50.47,6.93-1.39c-1.2-4.22-1.82-9.03-1.9-14.71-.11-7.63.77-14.53,2.63-20.51,1.75-5.67,5.26-13.44,11.99-18.28,5.74-4.13,12.81-6.4,19.94-6.4h.77c5.57.14,10.34,2.81,13.59,7.56.56-1.46,1.27-2.8,2.12-4.01,3.85-5.43,10.15-9.32,17.74-10.94,4.12-.88,8.51-1.25,13.03-1.12l49.6-10.01c.22-.04.44.01.61.15.17.14.27.35.27.57v18.07c0,.35-.25.65-.59.72l-16.99,3.3v51.47c0,.34-.24.64-.58.72l-18.87,4.18c-.21.05-.44,0-.62-.14-.17-.14-.27-.35-.27-.57v-10.11c-1.54,2.89-3.77,5.72-6.49,8.2-2.54,2.32-5.42,4.23-8.54,5.68-3.11,1.46-6.38,2.43-9.7,2.86-8.91,1.17-17.79-1.3-22.61-3.01-1.37,1.93-2.9,3.62-4.54,5.03-6.63,5.71-15.91,8.68-24.23,7.73-.76-.08-1.52-.22-2.26-.4v.91c.01.35-.24.65-.58.72l-39.36,7.96s-.1.01-.15.01ZM12.78,43.61l.3,68.94,37.89-7.67v-1.29c-.01-.23.1-.46.29-.6.19-.14.44-.18.66-.11.94.3,1.93.51,2.94.62,7.93.9,16.78-1.93,23.11-7.38,1.68-1.44,3.23-3.2,4.61-5.21.19-.28.55-.39.86-.27,4.55,1.67,13.5,4.3,22.44,3.13,3.18-.42,6.3-1.34,9.27-2.74,2.99-1.39,5.74-3.22,8.18-5.44,3.55-3.24,6.22-7.09,7.51-10.84.12-.34.46-.54.81-.48.35.06.61.37.61.72v12.68l17.41-3.85v-51.49c0-.35.25-.65.59-.72l16.99-3.3V11.75l-48.81,9.85c-.06.01-.11.02-.17.01-4.44-.14-8.73.23-12.76,1.08-7.23,1.55-13.21,5.23-16.84,10.35-1.04,1.48-1.85,3.18-2.42,5.07-.08.28-.33.48-.62.52-.3.03-.57-.11-.72-.36-2.97-5.12-7.64-8.02-13.17-8.15h-.61c-6.86,0-13.69,2.15-19.22,6.12-6.4,4.61-9.76,12.07-11.45,17.53-1.81,5.83-2.67,12.58-2.56,20.05.08,5.84.74,10.72,2.02,14.93.06.2.06.49-.05.66-.11.18-.26.38-.46.42l-8.56,1.72c-.21.04-.43-.01-.6-.15-.17-.14-.27-.34-.28-.55l-1.34-50.47-15.86,3.23ZM104.61,79.48c-3.34,0-6.73-.54-9.98-1.12-.15-.03-.78-.18-1.65-.39-1.09-.26-2.56-.62-3.84-.91-.39-.09-.64-.48-.55-.87,1.11-5.22,1.56-11.03,1.29-16.81-.01-.29.14-.55.4-.69.25-.13.56-.1.79.07,3.16,2.47,7.25,3.18,11.57,3.94,2.47.43,5.03.88,7.39,1.69,2.8.95,6.31,3.18,7,6.32.3,1.36.15,3.45-2.23,5.69h0c-1.41,1.33-3.27,2.23-5.55,2.65-1.52.28-3.08.4-4.64.4ZM90.16,75.79c1.09.25,2.25.53,3.16.75.82.2,1.43.35,1.57.37,4.83.86,9.54,1.57,14.09.72,1.99-.37,3.61-1.14,4.81-2.27,0,0,0,0,0,0,1.51-1.42,2.11-2.88,1.8-4.32-.52-2.38-3.4-4.35-6.04-5.25-2.26-.77-4.76-1.21-7.17-1.63-3.81-.67-7.74-1.36-10.99-3.37.13,5.15-.29,10.3-1.23,15ZM131.53,64.67c-.3,0-.58-.19-.69-.48-1.33-3.58-4.02-6.57-7.78-8.63h0c-3.92-2.16-8.05-2.92-12.43-3.72-1.18-.22-2.37-.44-3.56-.69-2.93-.6-9.81-2-9.81-7.35s5.11-9.03,13.35-9.68c.97-.08,1.95-.13,3-.15.2,0,.39.07.53.21.14.14.22.33.22.52v4.28l17.03-3.43c.21-.04.44.01.61.15.17.14.27.35.27.57v27.66c0,.36-.25.66-.6.72-.04,0-.09.01-.13.01ZM123.77,54.28c3.01,1.66,5.4,3.87,7.02,6.5v-23.6l-17.03,3.43c-.22.04-.44-.01-.61-.15-.17-.14-.27-.35-.27-.57v-4.43c-.74.02-1.45.07-2.15.13-7.4.59-12,3.73-12,8.22,0,3.68,4.62,5.09,8.64,5.91,1.18.25,2.36.46,3.53.68,4.3.79,8.74,1.61,12.87,3.88h0Z" />
    <path class="cls-2"
      d="M61.8,89.27c-.9,0-1.79-.18-2.67-.53-.56-.23-1.06-.52-1.5-.86-3.38-2.48-4.28-7.48-4.51-10.24-.8-9.34.38-18.31,3.25-24.62,1.74-3.81,5.38-8.05,9.92-7.42,7.18.99,8.55,11.47,8.8,14.66.52,6.77-.39,13.94-2.42,19.2-1.29,3.34-4.01,7.5-7.79,9.14-1.03.45-2.05.67-3.07.67ZM65.38,47c-3.43,0-6.25,3.48-7.68,6.62-2.77,6.09-3.9,14.79-3.12,23.89.36,4.28,1.8,7.63,3.93,9.19.36.27.75.5,1.18.68,1.47.59,3.02.55,4.59-.13,2.77-1.21,5.53-4.48,7.01-8.33,0,0,0,0,0,0,1.96-5.06,2.83-11.99,2.33-18.55-.47-6-2.69-12.65-7.54-13.32-.24-.03-.47-.05-.7-.05Z" />
    <path class="cls-2"
      d="M53.37,177.24c-.17,0-.33-.06-.46-.16-.17-.14-.27-.35-.27-.57l-.31-70.44c0-.35.24-.65.59-.72l17.31-3.52c.21-.04.43,0,.6.14.17.13.27.34.28.55l.14,5.27c1.23-1.96,2.74-3.81,4.52-5.5,11.83-11.28,25.56-1.36,27.13-.15.09.04.18.11.25.19l6.38,7.29c.2.23.24.56.09.83l-10.32,19.18,13.67,14.35c.2.21.26.52.14.79l-9.25,21.56c-.15.34-.53.52-.89.41-1.72-.52-5.14-1.8-9.56-4.64l.05,6.43c0,.35-.24.65-.59.72l-39.35,7.96s-.1.01-.15.01ZM53.79,106.67l.3,68.94,37.88-7.67-.05-7.2c0-.27.15-.52.39-.65.24-.13.53-.11.76.04,4.31,2.93,7.74,4.36,9.69,5.01l8.8-20.5-13.7-14.39c-.22-.23-.26-.57-.11-.85l10.33-19.2-5.93-6.77s-.03-.02-.04-.03c-.56-.46-13.77-11.06-25.34-.04-2.35,2.24-4.21,4.75-5.54,7.46-.15.3-.48.47-.81.39-.33-.07-.57-.36-.58-.7l-.18-7.07-15.86,3.23ZM71.73,154.63c-.16,0-.33-.06-.46-.16-.17-.13-.27-.34-.28-.55l-.45-17.3c0-.35.23-.66.57-.73.34-.08.69.1.83.41.8,1.77,1.74,3.46,2.8,5.02,2.5,3.67,5.19,7.03,8,9.98.18.19.25.47.17.73-.08.25-.29.45-.55.5l-10.49,2.1s-.1.01-.14.01ZM72.09,139.82l.35,13.18,8.34-1.67c-2.54-2.77-4.97-5.86-7.25-9.2-.5-.75-.98-1.52-1.43-2.31Z" />
    <path class="cls-2"
      d="M106.69,167.22c-.19,0-.39-.08-.53-.22-.21-.22-.27-.54-.14-.82l10.26-22.24-13.68-13.83c-.22-.23-.28-.57-.13-.86l10.16-19.39-8.31-9.21c-.25-.28-.25-.71,0-.99,1.94-2.08,5.94-5.92,10.96-8.3,4.05-1.94,8.04-2.57,11.86-1.89l9.64-2.01c.36-.08.74.14.85.5l13.75,44.58,11.54-49.75c.07-.28.29-.5.58-.56l18.41-3.51,29.07-5.92c.21-.04.44.01.61.15.17.14.27.34.27.56l.16,17.79c0,.35-.24.66-.59.73l-21.04,4.26.19,8.06,16.57-3.62c.22-.05.44,0,.62.15.17.14.27.35.27.57l-.04,14.77c0,.34-.24.64-.58.71l-16.4,3.56.34,8.69,20-4.01c.22-.04.44.01.61.15.17.14.27.35.27.57v18.1c0,.35-.25.65-.59.72l-39.35,7.96c-.21.04-.44-.01-.61-.15-.17-.14-.27-.35-.27-.57l-.08-24.89-6.27,26.07c-.07.28-.29.49-.57.55l-22.82,4.43c-.36.07-.72-.14-.84-.49l-7.47-22.88c-9.61,19.21-22.59,30.81-26.39,32.42-.09.04-.19.06-.28.06ZM104.02,129.46l13.66,13.81c.21.22.27.55.14.82l-9.46,20.5c4.71-3.43,15.21-13.53,23.72-30.58.19-.38.45-.9.74-1.53.13-.28.42-.44.71-.43.3.02.56.22.66.5l7.84,23.99,21.72-4.22,7.59-31.54c.09-.36.43-.6.8-.56.37.04.65.35.65.73l.1,30.09,37.88-7.67v-16.6l-19.96,4c-.21.04-.43-.01-.6-.14-.17-.13-.27-.33-.28-.55l-.4-10.16c-.01-.36.23-.67.58-.75l16.42-3.57.04-13.27-16.54,3.62c-.22.05-.44,0-.61-.14-.17-.14-.27-.34-.28-.56l-.22-9.56c0-.36.24-.67.59-.74l21.05-4.26-.15-16.29-28.71,5.84-17.44,3.33-12.05,51.93c-.07.32-.36.56-.69.57-.34.01-.63-.2-.73-.52l-14.35-46.54-9.13,1.9c-.09.02-.19.02-.28,0-3.56-.67-7.29-.08-11.1,1.75-4.43,2.1-8.05,5.42-10.05,7.49l8.2,9.09c.21.23.25.56.11.83l-10.15,19.37Z" />
    <path class="cls-5"
      d="M106.9,140.16l-9.25,21.56c-.51-.16-1.09-.35-1.7-.6-2.35-.88-5.4-2.39-8.81-4.71-3.24-2.19-6.8-5.12-10.44-8.95-2.7-2.83-5.43-6.17-8.08-10.07-.98-1.45-1.98-3.18-2.86-5.13-3.24-7.11-5.15-17.04-.7-26.09,1.31-2.67,3.15-5.25,5.69-7.67,12.19-11.61,26.31,0,26.31,0,0,0,0-.01.01-.01l6.38,7.29-.79,1.47-9.78,18.18,14.03,14.74Z" />
    <path class="cls-3"
      d="M103.44,105.77l-.79,1.47c-.41.26-.92.4-1.54.4-2.65-4.41-6.82-7.86-11.57-9.84-5.1-2.13-9.47-2.58-14.15.48-7.01,4.59-11.24,13.93-11.01,22.44.19,7.35,6.23,16.8,10.78,22.19,5.15,6.1,9.63,10.91,16.75,14.95.61.35,1.52.66,2.4,1.47.63.57,1.06,1.1,1.65,1.79-2.35-.88-5.4-2.39-8.81-4.71-3.24-2.19-6.8-5.12-10.44-8.95-2.7-2.83-5.43-6.17-8.08-10.07-.98-1.45-1.98-3.18-2.86-5.13-3.24-7.11-5.15-17.04-.7-26.09,1.31-2.67,3.15-5.25,5.69-7.67,12.19-11.61,26.31,0,26.31,0,0,0,0-.01.01-.01l6.38,7.29Z" />
    <path class="cls-5"
      d="M127.98,128.46c-.29.65-.56,1.17-.75,1.55-7.49,15-16.75,24.94-22.19,29.46-1.75,1.47-3.09,2.36-3.87,2.68l10.47-22.7-14.03-14.2,10.4-19.84-8.65-9.59c2.26-2.42,6.07-5.92,10.73-8.14,3.46-1.66,7.42-2.58,11.56-1.8,1.5.28,3.02.78,4.55,1.55,5.04,2.57,7.33,7.08,8.01,12.27,1.35,10.41-3.81,23.49-6.22,28.74Z" />
    <path class="cls-3"
      d="M134.2,99.72c-.01.1-.03.16-.03.16,0,0-3.59-9.88-12.52-12.01-10.31-2.46-19.61,8-19.61,8l8.59,9.14-10.19,19.78,13.86,14.4s-9.07,19.59-9.46,19.85l.21.43c-1.75,1.47-3.09,2.36-3.87,2.68l10.47-22.7-14.03-14.2,10.4-19.84-8.65-9.59c2.26-2.42,6.07-5.92,10.73-8.14,3.46-1.66,7.42-2.58,11.56-1.8,1.5.28,3.02.78,4.55,1.55,5.04,2.57,7.33,7.08,8.01,12.27Z" />
    <polygon class="cls-4"
      points="205.98 121.57 205.98 139.66 166.63 147.63 166.53 116.64 176.53 75.12 205.61 69.2 205.78 86.99 184.13 91.37 184.35 100.93 201.79 97.12 201.74 111.89 184.75 115.59 185.14 125.75 205.98 121.57" />
    <polygon class="cls-3" points="168.25 112.02 169.12 146.61 166.63 147.63 166.53 116.64 168.25 112.02" />
    <polygon class="cls-3" points="184.35 100.93 184.25 103.66 201.81 99.85 201.79 97.12 184.35 100.93" />
    <polygon class="cls-3" points="185.14 125.75 185.07 128.7 205.76 124.89 205.98 121.57 185.14 125.75" />
    <polygon class="cls-3" points="205.49 72.08 176.36 78.21 176.67 75.67 205.75 69.74 205.49 72.08" />
    <path class="cls-4"
      d="M127.98,128.46c3.61-7.88,13.4-33.33-1.79-41.02-1.53-.78-3.05-1.28-4.55-1.55l4.52-.94,5.26-1.1,14.55,47.18,12.16-52.4,17.92-3.42.48-.09-10,41.52-7.7,32-22.82,4.43-8.04-24.61Z" />
    <polygon class="cls-3" points="124.51 87.73 131.86 86.37 130.77 84.47 122.87 86.1 124.51 87.73" />
    <polygon class="cls-3"
      points="146.55 131.29 147.92 132.1 159.89 80.52 176.09 77.39 176.09 75.76 158.13 78.63 146.55 131.29" />
    <path class="cls-4"
      d="M87.19,164.21l-39.35,7.96-.31-70.44,17.3-3.52.21,7.95c-4.44,9.05-2.54,18.98.7,26.09l.44,17.01v.29s10.5-2.1,10.5-2.1c.47.48.92.97,1.39,1.42,3.15,3.14,6.22,5.62,9.05,7.52l.06,7.8Z" />
    <path class="cls-4"
      d="M112.78,16.55l49.68-10.03v18.07l-17.58,3.42v52.08l-18.87,4.18v-13.59c.73-2.1,1.1-4.31.95-6.57-.1-1.6-.44-3.11-.95-4.49v-27.66l-17.91,3.61v-5.18c6.5-.15,11.2.92,11.2.92l3.39-13.65s-4.03-.94-9.91-1.1Z" />
    <polygon class="cls-3" points="126.01 31.95 128.33 31.65 129.07 82.57 126.01 84.26 126.01 31.95" />
    <polygon class="cls-3" points="121.21 17.42 162.4 9 162.47 6.52 115.6 16.49 121.21 17.42" />
    <path class="cls-4"
      d="M126.97,64.1c.15,2.26-.22,4.47-.95,6.57-1.5,4.34-4.53,8.24-7.71,11.15-2.49,2.27-5.32,4.15-8.36,5.56-3.02,1.42-6.23,2.38-9.49,2.8-8.96,1.17-17.92-1.38-22.79-3.17,2.92-4.27,4.91-9.44,6.12-14.99,2.26.51,5.13,1.23,5.46,1.29,4.68.84,9.63,1.6,14.36.72,1.88-.35,3.74-1.1,5.18-2.46,5-4.72.15-9.21-4.5-10.79-6.34-2.16-13.98-1.69-19.18-5.75-.25-5.6-1.16-11.03-2.61-15.74-.26-.87-.56-1.72-.89-2.55-.44-1.13-.95-2.19-1.54-3.15.57-1.91,1.41-3.7,2.52-5.28,4.11-5.79,10.72-9.24,17.29-10.65,4.68-1,9.18-1.22,12.93-1.1,5.88.16,9.91,1.1,9.91,1.1l-3.39,13.65s-4.71-1.07-11.2-.92c-.95.01-1.94.06-2.95.15-7.96.63-12.67,4.08-12.67,8.95,0,4.58,5.98,5.97,9.22,6.63,5.53,1.16,11.07,1.67,16.19,4.49,3.68,2.02,6.64,5.07,8.11,9.02.51,1.38.85,2.89.95,4.49Z" />
    <path class="cls-4"
      d="M85.08,55.02c-.25-5.6-1.16-11.03-2.61-15.74-.26-.87-.56-1.72-.89-2.55-.32-.82-.67-1.58-1.07-2.32-.15-.29-.31-.57-.47-.84-3.09-5.34-7.93-8.37-13.79-8.52h-.63c-6.83-.03-13.84,2.08-19.65,6.26-5.65,4.06-9.5,10.75-11.72,17.91-2.01,6.47-2.7,13.42-2.6,20.28.07,5.13.59,10.29,2.05,15.13.01.04.03.1.04.15l1.42-.29,10.85-2.17.15,16.94c.97.31,1.99.53,3.08.65,8.14.92,17.13-1.92,23.67-7.55,1.79-1.54,3.36-3.34,4.74-5.35,2.92-4.27,4.91-9.44,6.12-14.99,1.17-5.5,1.57-11.34,1.31-17ZM51.51,48.99c1.8-3.96,5.22-7.54,9.15-7,1.29.18,2.39.7,3.33,1.51,3.12,2.6,4.49,7.99,4.84,12.48.47,6.1-.22,13.32-2.38,18.87-2.11,5.48-7.24,11.01-12.57,8.87-.45-.19-.91-.44-1.33-.76-1.82-1.33-2.98-3.64-3.62-6.17-.31-1.16-.5-2.36-.6-3.55-.69-8.01.04-17.35,3.18-24.26Z" />
    <polygon class="cls-4"
      points="46.19 101.15 8.88 108.71 6.83 109.12 6.52 38.68 23.83 35.16 23.89 37.29 25.19 86.5 33.76 84.79 46.03 82.32 46.18 99.26 46.19 101.15" />
    <polygon class="cls-3" points="25.19 86.5 25.27 88.53 46.02 84.26 46.03 82.32 25.19 86.5" />
    <polygon class="cls-3" points="8.69 40.27 8.88 108.71 6.83 109.12 6.52 38.68 23.83 35.16 23.89 37.29 8.69 40.27" />
    <path class="cls-3" d="M78.09,148.89l-11.81,2.42-.07-1.75,10.49-2.1c.47.48.92.97,1.39,1.42Z" />
    <polygon class="cls-3"
      points="49.48 103.04 49.68 171.48 47.62 171.89 47.31 101.45 64.62 97.93 64.68 100.06 49.48 103.04" />
    <path class="cls-3"
      d="M80.51,34.41c-2.61-1.48-4.97-3.42-7.52-5-6.64-4.11-15.74-1.9-22.37,1.66-15.59,8.4-18.17,28.32-16.42,44.31.29,2.68.27,5.78.88,8.33.07.29.1.56.1.78l-1.42.29s-.03-.1-.04-.15c-1.47-4.84-1.98-10-2.05-15.13-.1-6.86.59-13.81,2.6-20.28,2.21-7.16,6.07-13.84,11.72-17.91,5.81-4.18,12.82-6.29,19.65-6.26h.63c5.85.15,10.69,3.18,13.79,8.52.16.26.32.54.47.84Z" />
    <path class="cls-3"
      d="M66.53,79.15c-1.33,2.39-3.75,4.82-6.16,6.16-6.84,3.8-12.05-3.32-11.47-10.02.42,1.7.85,3.42,1.68,4.95,4.78,8.8,13.5.78,15.87-5.37,2.16-5.56,2.85-12.77,2.38-18.87-.36-4.65-2.09-10.38-5.9-13.38,4.23,2.76,7.31,8.36,8.16,13.34,1.32,7.74-.78,16.41-4.57,23.2Z" />
    <path class="cls-3"
      d="M115.36,18.87c-3.31-.1-6.7-.05-7.13-.03-4.98.25-10.03,1-14.53,3.28-5.45,2.76-9.75,7.72-11.7,13.52-.8-.09-1.4-.86-1.54-1.65-.14-.79.07-1.61.34-2.37,2.59-7.47,9.92-12.57,17.63-14.36,5.42-1.26,10.76-1.16,16.26-.8,2.43.16,9.08-1.16,7.33,3.39.24-.62-3.17-.88-6.65-.98Z" />
    <path class="cls-3"
      d="M95.94,46.3c3.28,2.04,6.98,3.42,10.8,4.02,2.27.35,4.58.44,6.82.92,3.71.79,7.18,2.69,9.85,5.38-.03-1.62-1.06-3.06-2.25-4.16-4.08-3.74-9.82-4.46-15.04-5.4-2.69-.48-5.41-.99-7.96-2-1-.4-7.2-4.29-5.72-6.08-2.39,2.87,1.28,5.93,3.5,7.32Z" />
    <path class="cls-3"
      d="M83.65,75.88c5.62,1.59,11.59,1.96,17.37,1.08,2.53-.39,5.11-1.05,7.12-2.64s3.3-4.3,2.59-6.76c.07,2.77-2.23,5.15-4.84,6.06-2.61.91-5.47.68-8.22.41-3.23-.32-6.47-.69-9.65-1.38-2.88-.62-4.68-.39-4.36,3.23Z" />
    <path class="cls-2"
      d="M6.83,109.85c-.17,0-.33-.06-.46-.16-.17-.14-.27-.35-.27-.57l-.31-70.44c0-.35.24-.65.59-.72l17.3-3.52c.21-.04.43,0,.6.14.17.13.27.34.28.55l1.34,50.47,7.71-1.54c.39-.08.78.18.86.57.08.4-.18.78-.58.86l-8.56,1.72c-.21.04-.43-.01-.6-.15-.17-.14-.27-.34-.28-.55l-1.34-50.47-15.86,3.22.3,68.94,37.89-7.67v-1.29c-.01-.41.31-.74.72-.74h0c.4,0,.73.32.73.73v1.89c.02.35-.23.65-.57.72l-39.36,7.96s-.1.01-.15.01Z" />
    <path class="cls-2"
      d="M83.78,72.75c-.05,0-.1,0-.15-.02-.4-.08-.65-.47-.56-.87,1.11-5.22,1.56-11.03,1.29-16.81-.02-.4.29-.75.7-.77.43-.01.75.3.77.7.28,5.9-.18,11.84-1.32,17.18-.07.34-.38.58-.72.58Z" />
    <path class="cls-2"
      d="M52.28,100.81c-1.05,0-2.08-.06-3.11-.17-1.1-.12-2.19-.35-3.22-.67-.3-.1-.51-.38-.51-.69l-.14-16.05-11.4,2.29c-.36.08-.73-.14-.84-.49,0,0-.05-.16-.05-.16-1.32-4.35-2-9.36-2.08-15.34-.11-7.63.77-14.53,2.63-20.51,1.75-5.67,5.26-13.44,11.99-18.28,5.78-4.16,12.92-6.38,20.08-6.4h.63c6.07.15,11.19,3.31,14.42,8.89.2.35.08.8-.27,1-.35.2-.8.08-1-.27-2.97-5.12-7.64-8.02-13.17-8.16h-.75c-6.82,0-13.59,2.17-19.08,6.12-6.4,4.61-9.76,12.07-11.44,17.53-1.81,5.84-2.68,12.58-2.56,20.05.08,5.61.69,10.34,1.88,14.44l11.62-2.33c.22-.04.44.01.61.15.17.14.27.34.27.56l.14,16.4c.79.22,1.6.37,2.43.46,7.93.9,16.78-1.93,23.11-7.38,1.68-1.44,3.23-3.2,4.61-5.21.23-.33.69-.42,1.02-.19.33.23.42.69.19,1.02-1.45,2.12-3.09,3.97-4.86,5.49-5.81,5.01-13.67,7.9-21.12,7.9Z" />
    <path class="cls-2"
      d="M56.28,84.94c-.9,0-1.79-.18-2.67-.53-.56-.23-1.06-.52-1.5-.86-3.38-2.48-4.28-7.48-4.51-10.25-.8-9.34.38-18.31,3.25-24.62,1.74-3.81,5.37-8.05,9.92-7.42,7.18.99,8.55,11.47,8.8,14.66.52,6.76-.38,13.94-2.42,19.19h0c-1.29,3.34-4.01,7.5-7.79,9.15-1.03.45-2.05.67-3.07.67ZM59.87,42.67c-3.43,0-6.25,3.48-7.69,6.62-2.76,6.08-3.9,14.79-3.12,23.89.36,4.28,1.8,7.63,3.93,9.2.36.27.75.5,1.18.68,1.48.59,3.02.55,4.59-.13,2.77-1.21,5.53-4.48,7.01-8.33t0,0c1.96-5.06,2.83-12,2.33-18.55-.47-6-2.69-12.65-7.54-13.32-.24-.03-.47-.05-.7-.05Z" />
    <path class="cls-2"
      d="M126.01,60.34c-.3,0-.58-.18-.69-.48-1.33-3.58-4.02-6.57-7.78-8.63-3.92-2.16-8.05-2.92-12.42-3.72-1.19-.22-2.38-.44-3.56-.69-2.93-.6-9.81-2-9.81-7.35s5.11-9.02,13.35-9.68c.96-.08,1.94-.13,2.99-.15.34,0,.74.32.74.72,0,.4-.32.74-.72.74-1.02.02-1.97.06-2.9.14-7.4.59-12,3.73-12,8.22,0,3.68,4.62,5.09,8.64,5.91,1.18.25,2.36.46,3.53.68,4.3.79,8.74,1.61,12.86,3.88,4.07,2.24,6.99,5.49,8.44,9.41.14.38-.05.8-.43.94-.08.03-.17.05-.26.05Z" />
    <path class="cls-2"
      d="M95.76,91.2c-7.52,0-14.48-2.09-18.35-3.51-.21-.08-.38-.25-.45-.46-.07-.22-.04-.45.09-.64,2.73-3.99,4.75-8.95,6-14.73.04-.19.16-.36.32-.46.17-.1.37-.14.56-.1,1.27.29,2.74.64,3.84.91.83.2,1.45.35,1.59.38,4.83.86,9.54,1.57,14.09.72,1.99-.37,3.61-1.14,4.81-2.28,1.51-1.42,2.12-2.88,1.8-4.32-.52-2.38-3.4-4.35-6.04-5.25-2.26-.77-4.76-1.21-7.17-1.63-4.31-.76-8.77-1.54-12.22-4.23-.17-.13-.27-.33-.28-.54-.24-5.5-1.14-10.87-2.58-15.55-.28-.91-.56-1.73-.87-2.49-.43-1.1-.93-2.13-1.49-3.05-.11-.18-.13-.39-.08-.59.61-2.04,1.5-3.88,2.63-5.49,3.85-5.43,10.15-9.32,17.74-10.94,4.14-.88,8.55-1.26,13.11-1.12.4.01.72.35.71.76-.01.4-.37.75-.76.71-4.44-.13-8.73.23-12.76,1.08-7.23,1.55-13.21,5.23-16.85,10.35-.98,1.4-1.76,3-2.32,4.76.53.92,1.01,1.92,1.43,2.98.32.8.62,1.65.91,2.6,1.45,4.69,2.35,10.07,2.63,15.57,3.12,2.3,7.1,3,11.31,3.74,2.47.43,5.03.88,7.39,1.69,2.8.95,6.31,3.18,7,6.33.3,1.36.15,3.45-2.23,5.69-1.4,1.33-3.27,2.22-5.54,2.65-4.79.89-9.85.13-14.62-.72-.15-.03-.79-.18-1.67-.39-.89-.22-2.03-.49-3.1-.74-1.22,5.29-3.08,9.9-5.54,13.73,4.76,1.66,13.18,3.91,21.57,2.81,3.18-.42,6.29-1.34,9.27-2.74,2.99-1.39,5.74-3.22,8.18-5.44,3.55-3.24,6.22-7.09,7.51-10.84.13-.38.55-.58.93-.45.38.13.59.55.45.93-1.37,3.98-4.18,8.04-7.91,11.45-2.54,2.32-5.42,4.23-8.54,5.68-3.11,1.46-6.38,2.43-9.7,2.86-1.61.21-3.21.3-4.79.3Z" />
    <path class="cls-2"
      d="M126.01,84.99c-.17,0-.33-.06-.46-.16-.17-.14-.27-.35-.27-.57v-13.59c0-.08.01-.16.04-.24.74-2.12,1.05-4.23.91-6.28-.09-1.47-.4-2.91-.91-4.28-.03-.08-.05-.17-.05-.26v-26.76l-17.03,3.43c-.22.04-.44-.01-.61-.15-.17-.14-.27-.35-.27-.57v-5.18c0-.4.32-.72.72-.73,5.13-.11,9.12.51,10.68.8l3.03-12.23c-1.41-.27-4.73-.81-9.04-.93-.37-.01-.68-.3-.71-.67-.03-.37.22-.71.59-.78l49.68-10.03c.22-.04.44.01.61.15.17.14.27.35.27.57v18.07c0,.35-.25.65-.59.72l-16.99,3.3v51.47c0,.34-.24.64-.58.72l-18.87,4.18c-.05.01-.11.02-.16.02ZM126.75,70.79v12.56l17.41-3.85V28.01c0-.35.25-.65.59-.72l16.99-3.3V7.42l-43.5,8.78c2.8.32,4.52.71,4.63.74.19.04.36.16.46.33.1.17.13.37.09.56l-3.39,13.65c-.1.39-.49.62-.87.54-.04-.01-4.32-.96-10.31-.92v3.56l17.03-3.43c.21-.04.44.01.61.15.17.14.27.35.27.57v27.53c.53,1.46.85,3,.95,4.57.14,2.21-.18,4.48-.95,6.74Z" />
    <path class="cls-2"
      d="M66.21,150.3c-.16,0-.33-.06-.46-.16-.17-.13-.27-.34-.28-.55l-.45-17.3c-.01-.4.31-.74.71-.75.37,0,.74.31.75.71l.43,16.43,9.63-1.93c.4-.08.78.18.86.57.08.4-.18.78-.58.86l-10.49,2.1s-.1.01-.14.01Z" />
    <path class="cls-2"
      d="M47.85,172.91c-.17,0-.33-.06-.46-.16-.17-.14-.27-.35-.27-.57l-.31-70.44c0-.35.24-.65.59-.72l17.31-3.52c.21-.04.43,0,.6.14.17.13.27.34.28.55l.21,7.95c.01.4-.31.74-.71.75-.4-.02-.74-.31-.75-.71l-.18-7.07-15.86,3.23.3,68.94,37.88-7.67-.05-7.2c0-.41.32-.74.73-.74h0c.4,0,.73.32.73.73l.06,7.8c0,.35-.24.65-.59.72l-39.35,7.96s-.1.01-.15.01Z" />
    <path class="cls-2"
      d="M166.63,148.36c-.17,0-.33-.06-.46-.16-.17-.14-.27-.35-.27-.57l-.1-30.99c0-.4.33-.73.73-.74h0c.4,0,.73.33.73.73l.1,30.09,37.88-7.67v-16.6l-19.96,4c-.21.04-.43,0-.6-.14-.17-.13-.27-.33-.28-.55l-.4-10.16c-.01-.36.23-.67.58-.75l16.42-3.57.04-13.26-16.54,3.62c-.21.05-.44,0-.61-.14-.17-.14-.27-.34-.28-.56l-.22-9.56c0-.36.24-.67.59-.74l21.05-4.26-.15-16.29-28.21,5.75c-.4.08-.78-.17-.86-.57-.08-.4.17-.78.57-.86l29.08-5.92c.21-.04.44.01.61.15.17.14.27.34.27.56l.16,17.79c0,.35-.24.66-.59.73l-21.04,4.26.19,8.06,16.57-3.62c.22-.05.44,0,.62.15.17.14.27.35.27.57l-.04,14.77c0,.34-.24.64-.58.71l-16.4,3.56.34,8.69,20-4.01c.21-.04.44.01.61.15.17.14.27.35.27.57v18.1c0,.35-.25.65-.59.72l-39.35,7.96s-.1.01-.15.01Z" />
    <path class="cls-2"
      d="M136.01,153.8c-.31,0-.6-.2-.7-.51l-8.04-24.61c-.13-.39.08-.8.47-.92.39-.13.8.08.92.47l7.84,23.99,21.72-4.22,17.33-71.96-16.82,3.21-12.05,51.93c-.07.32-.36.56-.69.57-.33,0-.63-.2-.73-.52l-14.35-46.54-9.13,1.9c-.4.08-.78-.17-.87-.57-.08-.4.17-.78.57-.87l9.78-2.04c.36-.08.74.14.85.5l13.75,44.58,11.54-49.75c.07-.28.29-.5.58-.55l18.41-3.51c.25-.05.49.04.66.22.17.18.24.43.18.68l-17.7,73.52c-.07.28-.29.49-.57.55l-22.82,4.43s-.09.01-.14.01Z" />
    <path class="cls-2"
      d="M97.65,162.45c-.07,0-.14-.01-.21-.03-1.86-.57-5.74-2.02-10.71-5.4-3.63-2.44-7.18-5.49-10.56-9.05-2.87-3.01-5.61-6.43-8.16-10.17-1.11-1.64-2.09-3.4-2.92-5.24-2-4.38-6.07-15.77-.69-26.71,1.4-2.87,3.37-5.52,5.84-7.88,11.84-11.28,25.56-1.36,27.13-.15.09.04.18.11.25.19l6.38,7.29c.2.23.24.56.09.83l-10.32,19.18,13.67,14.35c.2.21.26.52.14.79l-9.25,21.56c-.12.28-.39.44-.67.44ZM83.04,94.04c-3.75,0-7.87,1.25-11.79,4.99-2.35,2.24-4.21,4.75-5.54,7.46h0c-5.1,10.38-1.2,21.27.71,25.46.8,1.77,1.74,3.46,2.8,5.03,2.5,3.67,5.19,7.03,8,9.98,3.31,3.48,6.78,6.46,10.32,8.84,4.31,2.93,7.74,4.36,9.69,5.02l8.8-20.5-13.7-14.39c-.22-.23-.26-.57-.11-.85l10.33-19.2-5.93-6.77s-.03-.02-.04-.03c-.37-.3-6.26-5.03-13.54-5.03ZM65.05,106.17h.01-.01Z" />
    <path class="cls-2"
      d="M101.17,162.89c-.19,0-.39-.08-.53-.22-.21-.22-.27-.54-.14-.82l10.26-22.24-13.68-13.83c-.22-.23-.28-.57-.13-.86l10.16-19.39-8.31-9.21c-.25-.28-.25-.71,0-.99,1.94-2.08,5.94-5.92,10.96-8.3,4.1-1.96,8.13-2.59,12.01-1.86,1.63.3,3.23.85,4.74,1.62,16.5,8.34,4.66,36.43,2.12,41.98-.29.65-.56,1.18-.75,1.56-9.62,19.27-22.63,30.9-26.44,32.51-.09.04-.19.06-.28.06ZM98.5,125.13l13.66,13.81c.21.22.27.54.14.82l-9.46,20.5c4.71-3.43,15.21-13.53,23.72-30.58.19-.39.45-.9.74-1.53,0,0,0,0,0,0,2.44-5.33,13.85-32.32-1.45-40.06-1.39-.71-2.86-1.21-4.35-1.49-3.56-.67-7.29-.08-11.11,1.74-4.43,2.1-8.05,5.42-10.05,7.49l8.2,9.09c.21.23.25.56.11.83l-10.15,19.37Z" />
  </g>
</svg>