<?xml version="1.0" encoding="UTF-8"?>
<svg id="Capa_2" xmlns="http://www.w3.org/2000/svg" viewBox="0 0 159.08 207.61">
  <defs>
    <style>
      .cls-1 {
        fill: #008cff;
      }

      .cls-2 {
        fill: #00ffdb;
      }

      .cls-3 {
        fill: #7a00ba;
      }

      .cls-4 {
        fill: #fff;
      }

      .cls-5 {
        fill: #fe0;
      }
    </style>
  </defs>
  <g id="layer_1">
    <path class="cls-4"
      d="M157.77,78.65c-.05-2.14-.51-4.26-1.32-6.18.33-.65.63-1.33.89-2.02,2.64-6.93,2.24-16.27-1.04-23.8-2.88-6.59-7.22-10.79-10.93-13.39.22-2.1.04-4.26-.53-6.22-1.09-3.72-3.5-6.74-6.62-8.28-2.06-1.01-4.03-1.24-5.75-1.34-.06-2.15-.48-4.35-1.26-6.51-2.83-7.83-9.83-9.05-13.57-9.7l-.92-.17c-3.68-.7-7.44-1.05-11.17-1.05-1.36,0-2.74.05-4.15.14l-.44.04c-5.38.36-13.5.91-18.93,7.86-1.56,2.01-2.68,4.51-3.24,7.12-2.36-.04-4.79-.07-7.24-.09-1.84-.01-3.63-.02-5.38-.02-11.08,0-20.26.26-28.9.82-5.25.33-10.77,1.03-15.43,5.55-3.24,3.13-5.55,7.77-6.34,12.74-.26,1.59-.48,3.21-.67,4.83-3.1.3-6.73,1.29-9.51,4.53C1.13,48.4-.16,55.54.01,60.17c.16,4.35,1.55,9.81,4.84,13.71-2.82,6.62-2.43,14.21,1.1,21.4,1.43,2.91,3.22,5.14,5.23,6.85-.58.86-.92,1.89-.95,3-2.77.33-4.93,2.69-4.96,5.54-.01,1.5.56,2.92,1.62,3.99.92.93,2.11,1.48,3.39,1.62v.05c.01,3.09,2.54,5.6,5.63,5.6h.03c1.51,0,2.92-.6,3.97-1.67.11-.11.19-.24.28-.35.12,1.77.35,3.5.72,5.12-3.57,5.24-1.83,11.75.87,15.87.97,1.49,2.06,2.8,3.12,4.07.52.62,1.01,1.2,1.44,1.76-.54.78-1.02,1.66-1.38,2.68-1.44,4.13.25,8.65,2.3,11.49,2.29,3.19,5.52,5.02,8.95,5.02,0,0,.25,0,.38-.01.01.19.02.39.02.58.05,2.22-.49,4.13-1.34,6.83-.32,1.05-.79,2.63-.7,4.43.15,4,2.75,6.87,3.6,7.81,1.8,2,3.33,3.81,3.76,5.77.22,1.01.34,2.23.46,3.4l.08.86c.07.78.14,1.55.25,2.31.1.69.3,2.13,1.2,3.53,2.51,4.01,6.59,4.85,9.07,5.37.39.08.79.16,1.13.24,1.42.37,2.88.56,4.33.56,2.16,0,4.34-.4,6.63-1.22,1.7-.59,3.07-1.44,4.28-2.19.01,0,.18-.11.19-.12.76-.48,1.55-.97,2.03-1.12.61-.19,1.38-.29,2.27-.29.73,0,1.48.07,2.15.15.78.68,1.72,1.44,2.85,2.09,2.3,1.34,4.94,2.02,7.84,2.02.48,0,.96-.02,1.47-.06,3.98-.32,7.94-1.65,11.47-3.86,2.8-1.75,4.93-4.53,6.34-8.28.49-1.32,1.5-2.39,2.74-3.64,2.07-2.04,4.16-4.26,6.4-6.79,1.14-1.29,2.32-2.71,3.15-4.62.59-1.35.89-2.76.91-4.14.69.33,1.46.54,2.28.54h.03c1.41,0,2.74-.57,3.74-1.57.58-.59.99-1.3,1.24-2.06,1.94-.78,3.32-2.66,3.34-4.87.02-2.26-1.39-4.19-3.38-4.96-.08-.25-.18-.48-.29-.71.17-.12.34-.24.51-.37,2.91-2.22,4.84-4.46,6.04-7.02.73-1.5.99-2.94.82-4.37-.03-.3-.08-.58-.15-.84,5.17-7.15,8.63-16.98,8.77-25.24.07-3.94-.25-7.57-.92-10.9.99.86,2.28,1.39,3.68,1.39h.03c3.06-.01,5.54-2.48,5.6-5.53,2.87-.23,5.16-2.63,5.19-5.56.02-2.99-2.3-5.45-5.24-5.65-.04-2.46-1.66-4.54-3.91-5.27,2.07-.26,5.02-.95,7.54-3.52,2.39-2.5,3.77-6.38,3.69-10.37Z" />
    <path class="cls-3"
      d="M58.45,203.65c-1.12,0-2.26-.15-3.37-.45-.4-.09-.87-.2-1.33-.29-2.21-.46-4.86-1.01-6.47-3.59-.46-.71-.56-1.47-.63-1.97-.1-.71-.16-1.42-.23-2.13l-.08-.88c-.13-1.29-.26-2.63-.53-3.85-.64-2.92-2.58-5.26-4.69-7.59-1.07-1.18-2.49-3.01-2.58-5.3-.06-1.17.27-2.26.53-3.14.91-2.9,1.57-5.25,1.5-8.06-.04-1.84-.33-3.71-.86-5.49-.99.56-2.19,1.03-3.56,1.06-2.09,0-4.13-1.23-5.66-3.37-1.41-1.95-2.72-5.19-1.78-7.89.48-1.37,1.37-2.41,2.18-3.29.11-.12.26-.27.36-.39-.01-.02-.02-.04-.03-.06-.8-1.6-2-3.03-3.27-4.55-1.01-1.22-1.99-2.38-2.83-3.68-2.13-3.25-3.54-8.36-.49-12.07.2-.23.41-.46.65-.69-2-6.37-1.85-16.37,2.97-22.12-7.01-.45-14.68-2.07-18.74-10.33-3.03-6.17-3.37-12.63-.96-18.2.34-.8.76-1.55,1.25-2.22-4.01-2.87-5.65-8.65-5.82-13.09-.16-4.23,1.13-10.18,4.35-13.93,2.7-3.14,6.75-3.27,10.1-3.29.23-2.69.56-5.38.99-8.02.66-4.14,2.55-7.98,5.18-10.52,3.7-3.58,8.23-4.15,12.93-4.44,9.82-.64,20.62-.89,34-.79,3.7.03,7.37.09,10.82.15-.07-3.06.97-6.33,2.81-8.71,4.33-5.55,11.11-6,16.07-6.34l.49-.04c4.76-.33,9.55-.04,14.26.85l.95.17c3.58.62,8.5,1.48,10.55,7.15,1.11,3.06,1.32,6.19.64,8.99,1.16,0,2.39.04,3.73.1,1.49.07,3.07.2,4.63.97,2.12,1.05,3.79,3.17,4.57,5.83.65,2.23.61,4.8-.07,7,.11.06.23.13.34.19,3.53,2.07,8.35,5.99,11.37,12.89,2.88,6.63,3.26,14.8.96,20.81h0c-.45,1.2-1.03,2.31-1.71,3.31,1.14,1.78,1.83,4.09,1.88,6.39.06,2.92-.93,5.82-2.59,7.55-2,2.05-4.54,2.29-6.23,2.44-8.28.75-16.54,1.19-24.61,1.29.22.25.45.48.67.7.97.92,1.96,1.82,2.95,2.71,3.97,3.58,7.73,6.96,10.51,11.87.17.31.25.64.25.96,2.38,4.72,3.52,10.69,3.4,17.74-.15,8.21-3.96,18.21-9.38,24.74.32.44.69,1.05.78,1.84.11.92-.2,1.7-.45,2.2-.94,1.99-2.49,3.77-4.88,5.6-2.73,2.09-5.09,2.9-7.48,2.73-1.46-.15-2.73-.69-3.85-1.28-.83,2.72-1.03,5.44-.55,7.78.3,1.45,1.06,2.86,1.78,4.22l.47.89c.82,1.57.82,3.52.02,5.37-.6,1.39-1.52,2.48-2.49,3.58-2.18,2.46-4.21,4.62-6.22,6.6-1.56,1.56-2.91,3.02-3.67,5.08-1.1,2.9-2.69,5.02-4.73,6.31-2.99,1.86-6.34,2.99-9.69,3.27-2.68.21-5.06-.3-7.01-1.44-1.04-.6-1.93-1.38-2.71-2.07-.17-.15-.29-.26-.4-.36-2.35-.37-5.01-.61-7.33.12-.97.3-1.93.91-2.95,1.55,0,0-.16.1-.17.1-1.08.67-2.21,1.37-3.5,1.82-1.88.67-3.63,1-5.33,1ZM40.41,157.48c.12,0,.24.02.36.05.41.11.74.41.89.8.98,2.53,1.53,5.3,1.59,8.01.07,3.21-.68,5.88-1.59,8.79-.26.84-.49,1.61-.45,2.34.05,1.42,1.04,2.69,1.89,3.63,2.36,2.61,4.54,5.25,5.32,8.82.3,1.38.44,2.79.57,4.16l.09.91c.06.67.12,1.33.22,2,.05.39.1.7.24.91,1.02,1.63,2.8,2,4.68,2.39.54.11,1.04.22,1.51.33,2.38.63,4.52.46,7.15-.48,1.02-.36,2.02-.97,2.98-1.57l.87,1.04-.71-1.13c1.12-.7,2.27-1.42,3.57-1.83,2.97-.93,6.18-.6,8.93-.15.25.04.48.15.67.31l.2.17c.17.14.33.29.49.44.73.64,1.48,1.3,2.3,1.77,1.48.86,3.37,1.24,5.45,1.08,2.92-.24,5.86-1.23,8.48-2.87,1.54-.96,2.76-2.64,3.65-4.97.95-2.56,2.57-4.32,4.3-6.04,1.97-1.94,3.96-4.06,6.1-6.47.85-.96,1.59-1.84,2.04-2.87.48-1.1.51-2.21.07-3.05l-.46-.88c-.82-1.52-1.66-3.11-2.04-4.93-.67-3.26-.25-7.09,1.19-10.77.14-.35.41-.62.76-.76.35-.13.74-.12,1.07.04.03.02.09.05.13.07,1.29.77,2.62,1.57,4.09,1.72.13,0,.3.02.47.02,1.54,0,3.18-.7,5.16-2.22,2.03-1.55,3.33-3.02,4.09-4.62.1-.22.23-.51.2-.74-.03-.24-.22-.5-.38-.71l-.21-.27c-.09-.11-.17-.23-.27-.33-.45-.51-.44-1.27,0-1.78,5.41-6.05,9.29-15.87,9.43-23.86.12-6.79-.99-12.45-3.29-16.82-.12-.23-.17-.49-.15-.74-2.54-4.4-6.09-7.6-9.84-10.98-1-.91-2.01-1.82-3-2.75-.99-.94-1.91-2.11-2.59-3.29-.24-.41-.24-.92,0-1.34.24-.41.68-.67,1.16-.67,8.82-.04,17.89-.48,26.98-1.31,1.44-.13,3.24-.3,4.54-1.64,1.16-1.22,1.89-3.43,1.84-5.64-.05-2.11-.76-4.2-1.9-5.61-.4-.49-.4-1.18,0-1.68.79-1,1.43-2.14,1.91-3.42,0,0,0,0,0,0,2.06-5.39,1.7-12.77-.91-18.79-2.73-6.24-7.09-9.77-10.27-11.64-.39-.22-.8-.44-1.22-.63-.33-.15-.58-.42-.71-.75-.13-.34-.11-.71.04-1.03.85-1.86,1.01-4.29.4-6.35-.57-1.95-1.73-3.47-3.18-4.18-1.1-.54-2.31-.63-3.57-.69-2.02-.09-3.8-.12-5.42-.08-.46-.01-.88-.21-1.13-.58-.25-.37-.31-.85-.13-1.27,1.08-2.63,1.06-5.8-.07-8.93-1.52-4.21-5.23-4.86-8.5-5.43l-.97-.18c-4.5-.85-9.06-1.12-13.58-.81l-.5.04c-4.71.32-10.56.71-14.15,5.31-1.7,2.2-2.57,5.5-2.14,8.22.06.39-.05.79-.31,1.09-.26.3-.64.44-1.03.46-3.86-.07-8.05-.13-12.28-.17-13.31-.1-24.06.15-33.81.79-4.19.26-8.2.75-11.24,3.7-2.23,2.15-3.83,5.44-4.4,9.02-.48,2.96-.83,6-1.06,9.02-.05.67-.59,1.2-1.27,1.24-.3.01-.61.01-.91.01-3.17.01-6.45.03-8.46,2.36-2.75,3.21-3.84,8.38-3.71,12.09.16,4.19,1.76,9.76,5.76,11.64.4.19.68.55.75.99.07.43-.07.87-.38,1.18-.75.74-1.33,1.61-1.78,2.66-2.09,4.84-1.77,10.51.91,15.97,3.49,7.1,10.39,8.46,16.69,8.85.66.04,1.28.13,2.02.26l.78.12c.54.08.97.48,1.1,1,.13.53-.07,1.08-.51,1.4-5.54,4.08-6.51,14.85-3.91,21.96.2.54.03,1.14-.42,1.5-.39.31-.72.63-.98.94-2.12,2.58-.96,6.41.67,8.9.76,1.17,1.68,2.27,2.57,3.34,1.44,1.72,2.74,3.26,3.68,5.15.16.33.41.82.38,1.41,0,.25-.08.51-.15.7-.23.57-.64,1-1,1.37-.63.69-1.29,1.46-1.6,2.34-.56,1.61.35,3.95,1.43,5.44,1.03,1.44,2.27,2.26,3.41,2.26,1.09-.02,2.19-.5,3.52-1.53.24-.18.53-.28.82-.28ZM132.17,106.6h.01-.01ZM132.14,106.04s0,0,0,0c0,0,0,0,0,0Z" />
    <path class="cls-2"
      d="M112.25,173.99l-.45-.88c-.83-1.54-1.69-3.13-2.05-4.95-.67-3.35-.23-7.23,1.26-10.94-3.43-1.9-7.26-3.08-11.15-3.45.55,1.39,1.08,3.37,1.26,5.15.25,2.22.05,4.06.05,4.06,0,0-.13-1.85-.71-3.94-.44-1.71-1.2-3.53-1.83-4.81-1.04,2.38-.2,4.58.76,7.09.13.37.28.75.41,1.12.82,2.26,1.61,5.18.4,7.75-.07.15-.17.25-.31.31.11.99-.03,1.81-.42,2.45.54.92.95,2.37.86,3.63-.03.78-.21,1.46-.37,1.93-.01.03-.01.05-.03.07-.13.33-.24.56-.29.66.03-.11.12-.58.15-1.22,0-.42-.03-.9-.12-1.39-.07-.46-.21-.91-.39-1.34-.21-.51-.47-.98-.72-1.37-.21.13-.42.24-.59.32-1.15.58-2.89.96-4.65.96-1.19,0-2.38-.19-3.37-.62-.03.82-.03,2.14.28,3.29.28,1.26.84,2.25.84,2.25,0,0-.78-.72-1.41-1.89-.05.37-.15.74-.27,1.07-.32.98-.82,1.78-1.23,2.32-.35.47-.64.74-.71.79.05-.08.28-.39.54-.9.29-.59.62-1.43.76-2.37.29-1.59-.08-3.36-.51-4.5-.88.88-2.25,1.12-3.51,1.19l-.37.03c-.58.03-1.18.07-1.81.07-1.45,0-2.95-.2-4.15-1.11-.16,1.29-.17,3.17.33,4.81.27.96.67,1.82,1.02,2.41.28.46.51.76.58.87-.12-.11-.39-.36-.74-.75-.47-.54-1.03-1.33-1.49-2.29-.24-.47-.43-.99-.59-1.51-.04.62-.13,1.22-.28,1.79-.24.99-.6,1.86-.91,2.46-.27.52-.48.83-.54.91.07-.17.68-1.65.78-3.48.15-1.65-.17-3.45-.55-4.66-.71.37-1.53.44-2.25.48-.75.04-1.5.07-2.25.07-1.08,0-2.17-.04-3.24-.12-.42-.03-.79-.11-1.12-.21-.15.46-.25,1.03-.27,1.69-.01.83.13,1.75.4,2.6.48,1.58,1.26,2.82,1.35,2.97-.07-.07-.31-.33-.66-.74-.37-.47-.88-1.15-1.31-1.98-.12-.21-.23-.46-.32-.68-.28.67-.7,1.19-1.06,1.53-.24.21-.44.39-.59.48-.08.05-.13.09-.17.12.03-.04.07-.09.13-.16.13-.13.29-.33.47-.58.38-.51.72-1.3.78-2.18.01-.15.01-.31.01-.46h-.01c-.07-.29-.12-.58-.15-.86-.01-.12-.03-.24-.04-.36v-.03c-.24-.84-.66-1.61-1.03-2.21-.23.21-.52.39-.86.54-.99.44-2.37.63-3.8.63-1.55,0-3.19-.23-4.44-.6-.66.76-1.38,2.09-1.49,3.47-.09.8,0,1.57.13,2.12.08.27.15.48.2.63.05.11.08.19.08.23-.01-.03-.07-.09-.12-.2-.11-.13-.21-.33-.35-.59-.27-.52-.55-1.29-.62-2.18-.08-.9.01-1.89.33-2.76.15-.44.35-.84.56-1.19-.7-.37-1.18-.91-1.43-1.62-.07-.2-.12-.4-.15-.6-3.23-1.37-2.22-9.05-.8-17.51.31-1.85.58-3.43.58-4.08v-.03c-.09.15-.27.25-.46.28-3.25.36-6.06,2.7-8.31,4.59-.4.33-.82.72-1.26,1.12-.33.31-.68.63-1.03.94.47,1.14.84,2.32,1.12,3.53.39,1.59.6,3.23.64,4.87.07,3.24-.68,5.9-1.58,8.79-.24.78-.5,1.58-.47,2.36.07,1.39,1.04,2.66,1.9,3.61,2.37,2.62,4.55,5.26,5.31,8.82.33,1.51.48,3.07.62,4.55.08.84.16,1.69.27,2.52.05.36.09.68.24.9.46.74,1.1,1.22,1.82,1.55.87.43,1.87.63,2.92.84.51.11,1,.2,1.49.33.48.12.98.21,1.47.27,1.79.21,3.63-.04,5.66-.76,1.04-.37,2.02-.99,3.07-1.63,1.14-.71,2.32-1.45,3.63-1.86,2.03-.64,4.19-.7,6.24-.5-1.14-.54-2.46-.92-4.03-1.16-.03.01-.04.03-.07.03-.09-.03-.2-.05-.32-.08-.13-.03-.28-.05-.43-.07-.11-.01-.2-.05-.28-.12-1.38-.31-3.25-.59-4.97-.52-1.93.05-3.56.44-3.92.54.36-.17,1.9-.86,3.86-1.19,1.1-.21,2.32-.28,3.44-.24.03-.01.07,0,.11,0,.9.04,1.73.12,2.38.28,2.56.35,4.58,1.04,6.18,2.12.4.27.79.56,1.15.87.31.25.62.52.91.78.76.68,1.5,1.33,2.33,1.81,1.79,1.04,3.82,1.19,5.25,1.1.07,0,.15-.01.21-.01,2.92-.23,5.85-1.22,8.47-2.86,1.54-.96,2.76-2.64,3.64-4.98.96-2.56,2.58-4.31,4.31-6.02,2.09-2.09,4.14-4.26,6.09-6.48.86-.96,1.59-1.85,2.03-2.88.47-1.08.5-2.22.07-3.04ZM74.05,188.91c-1.29-.11-2.54-.13-3.28-.17l-.96-.03c-.74-.01-1.99-.05-3.29-.01-1.29.03-2.61.13-3.48.17.79-.39,2.07-.84,3.39-1.11,1.31-.29,2.64-.4,3.4-.39h.51s.5.03.5.03c.78.04,2.09.23,3.37.59,1.3.35,2.57.88,3.32,1.31-.87-.09-2.18-.28-3.47-.39Z" />
    <path class="cls-2"
      d="M122.36,145.5c-.24.28-.5.55-.76.82.01.01.01.03.01.03-.19.21-.47.44-.79.68-.54.39-1.19.78-1.83,1.03-1.02.44-1.91.59-1.91.59,0,0,.78-.47,1.57-1.16.5-.42.96-.91,1.35-1.34.03-.12.09-.23.19-.32,1.77-1.65,3.16-3.68,4.52-5.65.78-1.14,1.47-2.26,1.46-3.4h0c0-.07,0-.12-.01-.17-.04-.51-.24-1-.51-1.5,0-.03,0-.04-.03-.07-.17-.31-.36-.62-.55-.91-2.81-4.52-4.77-9.09-6.83-13.91l-.35-.8c-.29-.7-.63-1.42-1.18-1.86-1-.83-2.56-.68-4.19-.46-8.39,1.2-16.92,1.47-25.38.79l-1.69-.13c-2.08-.19-4.24-.37-6.33-.33-.27,0-.35.03-.37.04-.01.03-.04.08-.09.27-.47,1.63-.48,3.39-.04,5.03,0,.01,0,.03.01.03.04.12.09.24.15.36.4.94.87,1.82,1.11,2.34l.35.67c.27.51.7,1.41,1.22,2.3.51.88,1.11,1.77,1.49,2.37-.62-.33-1.49-1-2.24-1.79s-1.35-1.69-1.65-2.25l-.17-.31c-.05-.04-.11-.09-.15-.16-1.73-2.61-2.24-5.96-1.37-8.97.03-.11.07-.25.15-.42.08-.16.19-.33.35-.48.4-.36.94-.37,1.22-.37,2.18-.04,4.38.15,6.49.33l1.67.15c8.35.67,16.79.4,25.07-.79,1.47-.21,3.69-.54,5.25.75.78.63,1.2,1.55,1.55,2.36l.35.8c1.41,3.28,2.74,6.43,4.34,9.48.72,1.42,1.5,2.82,2.37,4.2.58.95,1.2,1.95,1.31,3.12.15,1.65-.72,3.04-1.69,4.46-.82,1.18-1.65,2.38-2.57,3.53,1.04,1,2.03,2.08,2.97,3.19,5.35-6.08,9.14-15.74,9.29-23.69.15-8.15-1.47-14.6-4.79-19.28-.01-.01-.03-.04-.04-.05-.32-.46-.67-.9-1.03-1.33-1.04.74-4.26,1.66-14.12,2.46-9.06.74-21.11,1.14-33.92,1.14-2.33,0-4.63-.01-6.91-.04-.13.52-.27,1.18-.37,1.9-.12.94-.17,1.99-.08,2.99.13,1.82.7,3.31.76,3.49-.04-.08-.25-.42-.51-.94-.31-.6-.67-1.46-.91-2.45-.28-.96-.4-2.05-.4-3.07,0-.71.07-1.38.16-1.94-9.67-.13-18.57-.51-25.65-1.08-10.52-.86-13.48-1.85-14.32-2.62-6.93,3.44-7.83,15.27-5.42,22.4.25-.19.51-.37.74-.56,0-.01.01-.01.03-.03.05-.04.09-.08.15-.12.32-.27.63-.56.88-.88.16-.24.35-.51.56-.79.01,0,.01-.01.01-.01.44-.6.95-1.3,1.41-1.94.8-1.16,1.47-2.14,1.47-2.14,0,0-.35,1.14-.88,2.46-.11.27-.23.54-.35.82-.29.67-.62,1.35-.91,1.91-.01.12-.05.24-.12.35-.07.09-.15.19-.24.28-.05.09-.09.17-.15.24-.01.01-.03.01-.07.01-.56.6-1.22,1.1-1.87,1.58-.71.52-1.38,1.03-1.89,1.65-1.99,2.42-1.11,6.22.64,8.93.78,1.18,1.73,2.32,2.65,3.41,1.3,1.55,2.65,3.16,3.59,5.02.2-.47.4-.98.56-1.5.05-.19.11-.37.15-.56.19-.71.27-1.38.31-1.9,0-.09.01-.19.01-.28.03-.43.01-.7.01-.7,0,0,.16.55.27,1.39h0c.04.46.08,1,.05,1.58-.01,1.66-.62,3.59-1.2,4.54-.01.03-.07.03-.13,0-.21.36-.51.68-.76.95-.66.7-1.31,1.47-1.62,2.34-.47,1.35.13,3.64,1.43,5.44,1.03,1.45,2.28,2.26,3.4,2.26h.04c.25,0,.51-.04.76-.09,1.11-.24,2.18-.96,3.19-1.81.07-.15.17-.25.33-.33.03-.01.05-.03.09-.03.39-.33.76-.68,1.12-1.02.46-.41.9-.82,1.31-1.16,2.38-2.01,5.37-4.48,9.02-4.9.2-.01.37.05.51.16-.15-.74-.48-1.46-.96-2.03-.16-.19-.43-.48-.74-.59h-.03c-.08-.01-.17-.03-.28-.04-.03,0-.04,0-.07-.01-.76-.08-1.87-.12-2.88.13-1.19.25-2.12.8-2.12.8,0,0,.7-.82,1.87-1.43.94-.52,2.18-.8,3.09-.82h.05s.05-.01.08-.01h.05c.7,0,1.38.39,1.98,1.11.88,1.07,1.38,2.42,1.37,3.82,0,.76-.24,2.25-.59,4.31-.76,4.54-2.28,13.53-.47,15.69.2-1.14.72-2.34,1.27-3.45.07-.13.17-.24.29-.29.47-.66,1.2-1.34,1.97-1.75.98-.56,1.87-.78,2.01-.8-.13.08-.9.59-1.59,1.34-.8.8-1.37,1.9-1.58,2.49l-.07-.03c-.44.91-1.11,2.42-1.06,3.6,0,.23.04.44.11.64.16.44.48.75.98.98,1.95.87,6.18,1.19,8.17.33,1.67-.74.98-2.95.03-5.34h-.01s-.03-.08-.04-.13l-.19-.51c-.03-.07-.04-.13-.03-.2-.01-.01-.01-.03-.01-.04-.19-.54-.44-1.16-.79-1.7-.54-.88-1.2-1.51-1.2-1.51,0,0,.86.33,1.71,1.08.54.43,1.02,1.04,1.37,1.62.01.01.01.03.03.04.08.05.15.15.19.25l.23.6c.24.63.56,1.43.78,2.26.32-1.16.84-2.28,1.26-3.08.05-.11.13-.2.24-.25,0-.01.01-.01.01-.01.47-.67,1.31-1.45,2.17-1.9,1.07-.59,2.05-.74,2.05-.74,0,0-.87.48-1.65,1.27-.79.79-1.39,1.87-1.69,2.45l-.05-.03c-1.2,2.34-1.61,4.4-1.06,5.39.29.51.86.8,1.74.87,1.77.13,3.56.16,5.33.05.68-.03,1.38-.09,1.85-.41,1.34-.94,1.02-3.48.27-5.57-.01-.05-.03-.11-.03-.16-.19-.4-.42-1.16-.68-1.83-.28-.68-.6-1.25-.6-1.25,0,0,.56.32,1.14.86.59.51,1.18,1.25,1.38,1.71l-.04.03c.04.05.07.12.09.19.05.15.12.33.17.55.08-.35.15-.71.24-1.06.01-.05.03-.09.07-.13,0-.03.01-.05.03-.08.17-.54.58-1.22,1.07-1.67.6-.59,1.23-.86,1.23-.86,0,0-.42.54-.67,1.23-.28.7-.36,1.5-.43,1.91h-.01c-.23.88-.37,1.78-.47,2.68-.15,1.46.08,2.42.68,2.95,1.34,1.16,3.44,1.03,5.29.92l.39-.03c2.36-.13,3.17-.76,3.19-2.48.01-1.31-.31-2.65-.94-3.86-.01-.01-.01-.03-.01-.04-.01-.03-.03-.07-.04-.11-.19-.39-.43-1.04-.76-1.59-.36-.62-.79-1.08-.79-1.08,0,0,.62.17,1.27.62.66.42,1.3,1.11,1.53,1.58h0c.21.43.4.86.56,1.3.05-.25.11-.5.17-.75,0-.01.01-.03.03-.04,0-.03.01-.07.03-.09,0-.03.01-.05.04-.08.21-.66.74-1.51,1.43-2.02.4-.32.82-.52,1.12-.63.31-.11.51-.13.51-.13,0,0-.7.44-1.14,1.22-.46.7-.62,1.58-.72,2.12,0,.04-.01.08-.01.11h-.01c-.31,1.23-.54,2.5-.67,3.76-.01.11-.03.27,0,.33,0,.03.04.11.23.25,1.69,1.37,5.58,1.2,7.7.16.25-.13.59-.31.8-.56.36-.42.48-1.07.36-1.97-.17-1.22-.66-2.38-1.39-3.39-.04-.04-.05-.09-.08-.13l-.04.03c-.19-.29-.48-.9-.94-1.33-.43-.44-.98-.64-.98-.64,0,0,.58-.16,1.3.05.7.17,1.39.71,1.69,1.11.01.01.03.04.04.05.03,0,.05.04.08.07.47.64.86,1.35,1.14,2.09.36-1.85-.23-3.88-.82-5.53-.13-.36-.28-.74-.42-1.1-.99-2.62-2.02-5.33-.66-8.27.13-.29.28-.58.43-.84,1.04-1.86,2.57-3.37,4.35-4.32,2.07-1.11,4.5-1.43,6.68-.92h.01c.11.03.21.05.33.09.95.31,2.34.99,3.43,1.74,1.23.83,2.1,1.7,2.1,1.7,0,0-1.07-.6-2.41-1.11-.8-.31-1.71-.58-2.48-.79-.01-.01-.03-.01-.03-.01-.35-.08-.67-.16-.94-.23-.13-.04-.25-.07-.36-.09-1.87-.44-3.94-.15-5.72.8-1.24.67-2.34,1.66-3.21,2.86,4.35.36,8.65,1.71,12.45,3.9.01,0,.04.01.05.03l.72.41c1.37.82,2.66,1.58,4.1,1.71,1.67.16,3.45-.54,5.62-2.18,2.02-1.54,3.32-3.01,4.1-4.62.11-.25.23-.54.2-.75-.03-.21-.2-.47-.4-.72-1.26-1.66-2.65-3.23-4.15-4.69ZM72.28,134.78l.48.08c.72.12,1.93.58,2.92,1.35,1,.76,1.74,1.82,2.02,2.56-.58-.52-1.5-1.27-2.52-1.75-1-.5-2.05-.74-2.66-.84l-.4-.05-.4-.04c-.63-.04-1.7-.07-2.8.17-1.1.21-2.17.71-2.86,1.08.46-.64,1.42-1.49,2.58-1.98,1.15-.52,2.44-.67,3.16-.62l.48.04ZM36.03,116.84c4.74-1.16,9.79-.99,14.1-.66,3.55.27,7.26.37,11.02.32.47,0,1.14-.08,1.91-.16,2.88-.31,6.83-.74,8.13,1.31.55.86.7,1.98.44,3.32-.15.72-.32,1.41-.58,2.09-.01.07-.03.12-.05.19-.35,1.07-.86,2.08-1.22,2.61l-.24.36-.24.33c-.37.54-1.14,1.37-2.02,2.06-.88.71-1.89,1.29-2.56,1.57.47-.58,1.22-1.38,1.87-2.22.67-.82,1.25-1.66,1.61-2.16,0-.01.01-.01.01-.03,0-.05.03-.11.05-.15,1.12-1.81,1.71-3.24,2.05-4.91.19-.99.11-1.78-.25-2.36-.86-1.34-4.61-.94-6.85-.68-.82.08-1.51.16-2.05.16-3.8.07-7.55-.05-11.12-.32-4.42-.33-9.13-.5-13.68.62-.27.08-.56-.05-.71-.28-.05-.05-.08-.12-.09-.2-.09-.36.13-.72.48-.82ZM62.29,132.46c-.72,2.25-2.69,5.65-5.13,7.88-1.26,1.23-2.58,2.16-3.56,2.78-.5.31-.91.54-1.19.7-.17.08-.29.15-.36.19.07-.05.17-.13.32-.24.28-.19.66-.47,1.11-.82.9-.72,2.09-1.77,3.19-3.07.39-.43.76-.9,1.1-1.38-2.37,1.39-3.47,1.83-4.67,2.2-2.18.64-4.28.96-6.27.96-1.22,0-2.38-.12-3.51-.36-2.22-.47-4.55-1.66-6.39-3.2-.6-.51-1.16-1.07-1.63-1.65-1.29-1.55-2.29-4.06-1.26-6.44,1.19-2.74,3.99-3.25,6.45-3.71,5.05-.92,10.19-.78,14.98-.48l.8.04c2.13.09,5.03.21,6.24,1.87.46.63.63,1.41.5,2.3-.03.2-.08.4-.13.62-.16.59-.33,1.14-.55,1.67-.01.04-.03.08-.04.12ZM80.94,155.27c-.37,1.03-.99,1.85-1.51,2.32-.47.41-.83.62-.92.66.08-.05.4-.32.76-.8.41-.54.84-1.38,1.03-2.36.04-.19.07-.37.08-.58-.11.15-.21.31-.33.47-.59.79-1.2,1.23-1.9,1.37-.25.05-.5.08-.72.08-2.52,0-3.63-2.82-4.31-4.58-.15-.36-.27-.7-.4-.96-.24-.52-.52-.88-.84-1.08-.33-.2-.78-.24-1.03-.07-.31.2-.41.7-.47,1.15-.17,1.3-.91,3.76-2.6,4.79-.86.51-1.86.59-2.88.21-.25-.09-.48-.21-.7-.39.03.15.08.29.13.43.25.68.63,1.27.94,1.66.27.33.48.55.55.6-.07-.03-.33-.17-.7-.46-.41-.31-.95-.82-1.38-1.51-.84-1.22-1.1-2.97-.99-4.07v-.03c-.01-.56-.01-.64-.01-.72,0-4.3,1.71-9.77,5.21-12.54,1.75-1.38,3.65-1.75,5.49-1.06,4.07,1.53,6.85,7.71,7.36,10.52l.04.15c.05.28.12.56.16.83h.01c.01.09.04.19.05.29.25,1.35.6,3.72-.12,5.68ZM112.93,136.47c-1.9,2.32-5.06,4.22-8.02,4.85-1.12.24-2.3.36-3.51.36-1.99,0-4.08-.32-6.27-.96-1.75-.52-3.24-1.2-4.5-2.08.67.79,1.41,1.51,2.18,2.13,1.35,1.12,2.82,1.89,3.94,2.33.56.21,1.03.39,1.35.47.24.07.4.12.47.13-.07,0-.23-.03-.48-.08-.33-.04-.82-.16-1.41-.32-1.16-.33-2.74-.95-4.27-1.99-1.54-1-3.01-2.41-4.07-3.92-1.04-1.42-1.7-2.93-2.03-4.06l-.96-2.65c-.32-1.16-.2-2.16.36-2.92,1.2-1.66,4.11-1.78,6.24-1.87l.8-.04c4.79-.29,9.93-.44,14.98.48,2.46.46,5.26.96,6.45,3.71,1.03,2.38.03,4.89-1.26,6.44Z" />
    <path class="cls-5"
      d="M90.72,139.79c2.48,2.23,5.59,3.74,8.88,4.3-.18-.6-.57-1.14-1.08-1.5,1.16.57,2.51.57,3.8.45,2.69-.25,5.38-1.04,7.57-2.62,2.19-1.58,3.85-4,4.16-6.68.05-.45.06-.94-.18-1.33-6.68,2.4-14.16.58-21.14,1.91-1.4.27-3.02.9-3.31,2.3-.2.96.35,1.92,1.05,2.6.7.68,1.56,1.18,2.27,1.85l-2.02-1.28Z" />
    <path class="cls-1"
      d="M49.63,158.93c.71-.67,1.17-1.56,1.62-2.42,1.17-2.27,2.86-5.11,1.62-7.59-.34-.68-.74-1.37-1.37-1.79-.99-.66-2.32-.51-3.44-.11,1.25.73,2.18,1.98,2.51,3.39-2.57,1.94-6.89,2.74-8.17,6.06-1.48,3.85,5.19,4.42,7.24,2.47Z" />
    <path class="cls-1" d="M99.67,176.63c.09.5.12.98.12,1.39-.24-.88-.44-1.77-.51-2.64v-.09c.17.43.32.88.39,1.34Z" />
    <path class="cls-1"
      d="M112.25,173.99c.43.82.4,1.95-.07,3.04-.44,1.03-1.18,1.91-2.03,2.88-1.95,2.22-4,4.39-6.09,6.48-1.73,1.71-3.35,3.47-4.31,6.02-.88,2.34-2.1,4.02-3.64,4.98-2.62,1.65-5.56,2.64-8.47,2.86-.07,0-.15.01-.21.01,1.26-.31,2.48-.71,3.65-1.26,3.01-1.42,5.68-4.03,6.27-7.31.19-1,.17-2.06.59-2.99.52-1.2,1.67-2.01,2.32-3.15,1.2-2.12.39-4.54-.31-6.99.01-.01.01-.04.03-.07.16-.47.35-1.15.37-1.93.09-1.26-.32-2.7-.86-3.63.39-.64.52-1.46.42-2.45.13-.05.24-.16.31-.31,1.2-2.57.42-5.49-.4-7.75-.13-.37-.28-.75-.41-1.12-.96-2.52-1.81-4.71-.76-7.09.63,1.27,1.39,3.09,1.83,4.81.58,2.09.71,3.94.71,3.94,0,0,.2-1.83-.05-4.06-.17-1.78-.71-3.76-1.26-5.15,3.9.37,7.72,1.55,11.15,3.45-1.49,3.71-1.93,7.59-1.26,10.94.36,1.82,1.22,3.41,2.05,4.95l.45.88Z" />
    <path class="cls-1"
      d="M125.99,136.12c-.11-.33-.21-.68-.35-1.02.27.5.47.99.51,1.5.01.05.01.11.01.16-.04-.21-.11-.43-.17-.64Z" />
    <path class="cls-1"
      d="M126.51,150.19c.2.25.37.51.4.72.03.21-.09.5-.2.75-.78,1.61-2.08,3.08-4.1,4.62-2.17,1.65-3.95,2.34-5.62,2.18-1.43-.13-2.73-.9-4.1-1.71l-.72-.41s-.04-.03-.05-.03c-3.8-2.18-8.1-3.53-12.45-3.9.87-1.2,1.97-2.2,3.21-2.86,1.78-.95,3.84-1.24,5.72-.8.11.03.23.05.36.09.27.07.59.15.94.23,0,0,.01,0,.03.01,2.74,1.33,5.21,3.68,8.22,3.4,1.75-.16,3.28-1.22,4.71-2.25-.24-1.27-.98-2.45-2.03-3.2.32-.24.6-.47.79-.68,0,0,0-.01-.01-.03.27-.27.52-.54.76-.82,1.5,1.46,2.89,3.03,4.15,4.69Z" />
    <path class="cls-1"
      d="M123.23,144.47c.92-1.15,1.75-2.36,2.57-3.53.96-1.42,1.83-2.81,1.69-4.46-.11-1.16-.74-2.17-1.31-3.12-.87-1.38-1.65-2.78-2.37-4.2.19-.01.35-.07.52-.12,1.93-.63,3.8-2.21,4.66-4.06.37-.79.37-1.7.35-2.56,0-3.99-1.06-8.13-2.52-11.81-.55-1.35-2.01-3.09-.8-4.39.94-1,3.21-1.24,4.69-1.54,3.32,4.67,4.94,11.12,4.79,19.28-.15,7.95-3.94,17.62-9.29,23.69-.94-1.11-1.93-2.18-2.97-3.19Z" />
    <path class="cls-1"
      d="M75.83,196.14c-2.05-.2-4.2-.15-6.24.5-1.31.42-2.49,1.15-3.63,1.86-1.04.64-2.02,1.26-3.07,1.63-2.03.72-3.87.98-5.66.76.04-.07.08-.15.13-.21.96-1.41,1.91-2.81,2.88-4.22.41-.6.84-1.22,1.42-1.67.54-.4,1.16-.66,1.81-.86,1.81-.56,3.74-.78,5.64-.62-1.12-.04-2.34.03-3.44.24-1.95.33-3.49,1.02-3.86,1.19.36-.09,1.99-.48,3.92-.54,1.71-.07,3.59.21,4.97.52.08.07.17.11.28.12.15.01.29.04.43.07.12.03.23.05.32.08.03,0,.04-.01.07-.03,1.57.24,2.89.63,4.03,1.16Z" />
    <path class="cls-5"
      d="M55.97,175.6c.04-.05.08-.11.1-.17.09-.26-.22-.5-.49-.54-.51-.06-1.02.24-1.32.67-.3.42-.42.94-.5,1.46-.11.76-.25,2.7.66,1.66.66-.76.9-2.2,1.55-3.07Z" />
    <path class="cls-5"
      d="M68.09,181.12c-.04-.5-.06-1.01-.06-1.51-.02-1.46.17-2.86.07-4.32-.4-.04-.81-.01-1.2.06-.09.02-.19.04-.26.1-.08.07-.12.19-.14.3-.24,1.03-.14,2.12.25,3.1.28.69,1.3,1.57,1.35,2.27Z" />
    <path class="cls-5"
      d="M78.19,177.88c0,.05.01.1.02.15.04.56.09,1.13.27,1.66.23.68.68,1.27,1.26,1.68-.33-2.03-.07-4.06.29-6.07.12-.65-1.45-.64-1.78-.31-.71.69-.18,2.01-.06,2.9Z" />
    <path class="cls-5"
      d="M90.49,179.19c.28-.15.36-.51.41-.82.18-1.17.36-2.35.55-3.52.01-.09.03-.18-.01-.26-.05-.11-.18-.16-.3-.19-1.39-.38-1.49.27-1.43,1.49.01.28.61,3.4.79,3.31Z" />
    <path class="cls-5"
      d="M63.05,189.21c4.41,1.25,9.08,1.57,13.62.92.18-.25.07-.62-.17-.82-.24-.2-.56-.26-.86-.31-2.23-.38-4.48-.59-6.74-.62-1.09-.02-2.18,0-3.27.08-.56.03-2.3.83-2.57.75Z" />
    <path class="cls-5"
      d="M63.84,140.33c.59-1.31,1.38-2.61,2.61-3.36.95-.58,2.09-.77,3.19-.95,1.26-.21,2.56-.41,3.8-.11,1.5.37,2.75,1.47,3.59,2.77.84,1.3,1.31,2.8,1.7,4.3-1.06-.76-2.52-.65-3.77-.27-2.58.77-4.75,2.47-6.45,4.53-1.68,2.03-2.35,4.73-4.24,6.51-.17.16-.51.3-.61.08.38,1.47.85,2.92,1.39,4.34-2.69-2.28-2.88-5.27-3-8.53-.12-3.18.49-6.4,1.8-9.3Z" />
    <path class="cls-5"
      d="M68.26,174.07c.17.34.39.67.73.84.12.06.27.11.31.24-.85,0-1.7-.09-2.54-.27-.17-.04-.34-.08-.48-.18-.23-.18-.3-.5-.34-.79-.35-2.73.1-6.51,3-7.64-1.57,2.3-2.01,5.26-.69,7.8Z" />
    <path class="cls-5"
      d="M79.26,169.14c.14,1.99.49,3.93,1.24,5.85-.62.02-1.14-.44-1.58-.87-.31-.3-.62-.6-.82-.98-.98-1.87.23-5.34,1.08-7.09,0,1.05.02,2.07.09,3.09Z" />
    <path class="cls-5"
      d="M89.41,169.13c0-.96.55-1.91,1.38-2.4-.32,1.54-.64,3.15-.27,4.68.17.71.49,1.38.64,2.09.02.07.03.15.01.22-.03.11-.14.19-.25.24-.53.22-1.15-.14-1.42-.64-.27-.5-.28-1.1-.26-1.67.03-.94.1-1.88.37-2.78.14-.49.34-1.02.14-1.49l-.34,1.76Z" />
    <path class="cls-5"
      d="M55.04,151.51c1.09,5.7-1.85,12.9-1.74,18.7.83-1.77,2.05-3.9,4.04-4.94-1.46,2.95-3.1,6.73-.96,9.75-1.25,0-2.2-1.07-2.96-2.05-.71-.91-1.43-1.84-1.84-2.93-.46-1.21-.49-2.54-.46-3.84.08-4.24.68-8.46,1.51-12.62.38-1.9.96-4.62-.84-6.02-.52-.4-1.16-.62-1.65-1.06.21.18,1.32.16,1.68.32.61.28,1.04.7,1.49,1.18.93.99,1.49,2.15,1.75,3.51Z" />
    <path class="cls-5"
      d="M79.01,121.54c.04-.47.12-.95.39-1.34.54-.75,1.61-.85,2.54-.87,10.57-.25,21.14-.49,31.71-.74.33,0,.66-.01.97.11.21.08.39.22.57.36,2.61,2.05,4.73,4.74,6.12,7.76-.66-2.59-1.53-5.12-2.59-7.58-.25-.59-.52-1.18-.94-1.66-.92-1.08-2.44-1.5-3.86-1.46-1.42.04-2.8.46-4.19.78-10.45,2.42-21.39-.89-32.06.12-.26,2.9.19,5.85,1.32,8.54.12.28.28.49.56.55.29-1.15-.65-3.17-.54-4.56Z" />
    <path class="cls-5"
      d="M36.53,118.54c9.94.36,19.91-.46,29.83.27.98.07,1.99.17,2.82.7.83.52,1.38,1.61,1,2.51.26-.76.52-1.55.53-2.35,0-.81-.3-1.66-.97-2.12-.67-.46-1.55-.43-2.36-.39-5.71.27-11.44.16-17.14-.31-2.86-.24-5.75-.57-8.62-.33-1.43.12-2.77.43-4.14.84-.45.13-2.7,1.13-.94,1.2Z" />
    <path class="cls-5"
      d="M40.35,141.55c3.4,1.42,7.21,1.47,10.9,1.3-.35.65-.7,1.29-1.05,1.94,4.05-1.14,7.43-4.43,8.68-8.44-5.8.78-11.79.16-17.31-1.79-1.66-.59-7.63-2.83-7.27.96.25,2.68,3.84,5.11,6.05,6.03Z" />
    <path class="cls-3"
      d="M22.05,69.6c-3.24.27-6.56.54-9.1,2.28-.05-.07-.12-.12-.21-.16-4.23-1.74-5.93-7.44-6.09-11.79-.15-3.69.95-8.88,3.71-12.09,1.99-2.32,5.29-2.34,8.47-2.36.25,0,.5,0,.74-.01-.13,2.16-.2,4.28-.2,6.36,0,3.29.36,6.16,1.1,8.78,1.19,4.18,3.35,7.11,6.43,8.73-1.35.04-2.66.09-3.86.2l-.98.07Z" />
    <path class="cls-3"
      d="M105.61,30.2c1.62.31,3.23.46,4.85.46,2.28,0,4.54-.29,6.79-.9,3.39-.88,5.77-2.33,7.5-4.52.32-.42.62-.84.86-1.29.04.01.08.01.12.01,1.99-.05,4.02-.03,6.01.07,1.27.05,2.49.16,3.56.7,1.45.71,2.64,2.26,3.19,4.16.6,2.06.43,4.58-.42,6.4,0,.01-.01.01-.01.03-3.8-1.31-7.82-1-11.73-.68-.62.05-1.23.09-1.85.13-5.21.36-10.43.35-15.54-.04-.98-.08-1.83-.2-2.44-.9-.29-.35-.55-.86-.75-1.51-.21-.7-.32-1.43-.32-2.18.05.04.12.05.19.07Z" />
    <path class="cls-3"
      d="M117.14,87.39c-.54-1.35-.68-2.72-.04-3.83,1.19-2.03,4.07-2.73,6.08-3.21,3.27-.78,6.63-1.15,9.88-1.51,2.05-.23,4.16-.46,6.25-.79,4.38-.7,7.71-2.24,10.07-4.67,1.08,1.41,1.73,3.41,1.77,5.42.05,2.21-.68,4.43-1.85,5.64-1.2,1.24-2.77,1.47-4.54,1.63-9.13.84-18.38,1.29-27.52,1.31-.03,0-.07,0-.09.01Z" />
    <path class="cls-1"
      d="M33.7,101.67c-.09,0-.17.01-.25.05-.05-.01-.12-.01-.17-.01-.91.03-1.77-.11-2.66-.25-.64-.11-1.31-.21-2.02-.25-6.61-.42-13.2-1.77-16.68-8.85-2.68-5.45-3-11.12-.91-15.97,2.02-4.71,6.47-5.07,11.16-5.45l.99-.08c3.01-.25,6.77-.24,10.24-.16.16,0,.33.01.51.01.2.01.39.01.58.01.09.01.17.01.27.01.05,0,.11,0,.16-.03,1.66-.01,3.79-.12,5.69-.19,2.56-.09,4.7-.09,4.7-.09,0,0-2.13-.33-4.67-.58-1.86-.17-3.95-.32-5.58-.4h-.01c-.07-.04-.15-.05-.24-.05-.15,0-.31-.01-.46-.01-.05-.01-.12-.03-.17-.03-2.06-.05-4.39-.11-6.33-1.04-2.9-1.41-4.95-4.12-6.08-8.09-.7-2.49-1.04-5.23-1.04-8.41,0-2.29.08-4.66.24-7.03.23-3.2.59-6.44,1.1-9.58.58-3.53,2.22-6.91,4.42-9.04,3.04-2.93,7.05-3.43,11.24-3.69,9.88-.63,20.63-.87,33.8-.78,4.51.04,8.98.11,13.07.19,1.33.03,2.62.05,3.86.08,3.37.07,9.65.19,11.24-7.22.04-.16.01-.31-.07-.44-.04-.75-.28-1.59-.75-2.2-.35-.51-.78-.86-1.1-1.07-.32-.21-.55-.29-.55-.29,0,0,.75.66,1.04,1.67.24.68.23,1.43.12,2.01,0,.01-.01.03-.01.04-.03.12-.05.24-.08.36-.01.04-.03.09-.04.13-.01.05-.04.11-.05.15,0,0,0,.01.01.01-1.42,5.21-5.6,5.58-9.75,5.5-1.06-.03-2.16-.04-3.28-.07-.6-3.2.6-6.52,2.1-8.46,3.57-4.58,9.18-4.97,14.14-5.3l.51-.04c4.52-.31,9.09-.04,13.57.8l.96.17c3.28.58,7,1.25,8.51,5.44,1.5,4.19,1.04,8.29-1.29,11.23-1.54,1.95-3.69,3.25-6.79,4.07-3.64.96-7.35,1.1-11.03.42-.13-.03-.27-.01-.39.04.05-.56.19-1.12.36-1.65.32-.95.84-1.78,1.47-2.37.03.01.05.01.07,0,.2-.19.44-.39.75-.6h.01c.11-.05.2-.11.31-.15.13-.05.23-.13.29-.24,0,0,0-.01.01-.01.84-.5,1.89-.96,2.96-1.15.87-.17,1.71-.17,2.33-.13.62.05.99.15.99.15,0,0-.35-.17-.95-.35-.6-.17-1.47-.35-2.44-.33-1.18-.03-2.46.31-3.49.78-.07.01-.15.03-.21.05-1.47.6-2.73,2.08-3.37,3.94-.63,1.81-.66,4-.11,5.85.25.84.6,1.51,1.03,1.99,1.02,1.18,2.48,1.29,3.35,1.35,5.17.4,10.45.42,15.73.05.62-.04,1.23-.09,1.86-.13,4.61-.37,9.36-.75,13.53,1.69,3.19,1.86,7.54,5.39,10.27,11.65,2.62,6.01,2.99,13.39.92,18.79-1.83,4.79-5.78,7.62-12.06,8.62-2.06.33-4.15.56-6.18.79-3.29.36-6.71.74-10.13,1.57-2.01.48-5.35,1.29-6.83,3.82-1.85,3.17.94,7.59,3.27,9.77.99.95,2.01,1.85,3,2.76,2.38,2.14,4.67,4.22,6.69,6.56-.04.07-.08.15-.09.24-1.39,1.42-18.41,3.35-47.23,3.35s-45.82-1.93-47.23-3.35c-.05-.31-.32-.55-.66-.55Z" />
    <path class="cls-3"
      d="M61.14,131.65c-.04.13-.08.27-.12.4h0c-1.33,2.7-2.06,3.67-2.93,4.48-1.39,1.29-3.15,2.24-5.38,2.89-3.29.98-6.36,1.18-9.1.59-2.65-.58-5.57-2.33-7.27-4.39-.98-1.19-1.85-3.24-1.06-5.06.91-2.09,3.12-2.5,5.46-2.93,2.81-.51,5.66-.68,8.47-.68,2.1,0,4.18.09,6.18.21.25.03.54.04.83.04,1.74.08,4.39.2,5.21,1.34.32.43.36,1,.16,1.77l-.43,1.35h-.03Z" />
    <path class="cls-3"
      d="M112.96,130.56c.79,1.82-.08,3.87-1.06,5.06-1.7,2.06-4.62,3.82-7.27,4.39-2.74.59-5.81.39-9.1-.59-2.24-.66-4-1.61-5.38-2.89-1.04-.98-1.9-2.18-2.57-3.63-.01-.05-.03-.09-.04-.15h-.01c-.35-.75-.64-1.57-.88-2.45-.2-.76-.16-1.34.15-1.77.83-1.14,3.47-1.26,5.22-1.33.29-.01.58-.03.83-.05,4.71-.28,9.75-.43,14.66.47,2.34.43,4.55.84,5.46,2.93Z" />
    <path class="cls-3"
      d="M65.34,154.63c-.91-.33-1.18-1.46-1.25-2.4,0-.07.01-.13.03-.2h-.04c-.19-3.96,1.39-9.5,4.69-12.13,1.41-1.1,2.77-1.38,4.19-.84,3.41,1.27,6.02,6.79,6.52,9.53l.04.16c.05.28.12.56.16.82.36,1.74.44,3.04-.72,4.61-.37.52-.72.79-1.07.86-1.81.35-2.66-1.46-3.53-3.67-.15-.4-.29-.76-.43-1.06-.36-.76-.8-1.3-1.37-1.65-.4-.25-.87-.37-1.33-.37-.4,0-.8.11-1.12.32-.78.5-.98,1.38-1.07,2.1-.16,1.15-.8,3.11-1.97,3.82-.51.31-1.07.35-1.73.11Z" />
    <path class="cls-3"
      d="M149.25,72.13c.28-.23.7-.2.94.09.03.04.07.08.09.12-.28.36-.59.71-.91,1.03-.05-.11-.13-.2-.21-.29-.23-.28-.19-.71.09-.95Z" />
    <path class="cls-3"
      d="M138.05,35.32c.42.15.83.31,1.25.5,0,.01-.01.03-.01.04-.12.25-.36.39-.62.39-.09,0-.19-.01-.28-.05-.32-.16-.47-.55-.33-.87Z" />
    <path class="cls-3"
      d="M144.88,87.4c-8.97.82-18.09,1.27-27.09,1.31-.24-.43-.47-.88-.64-1.33.03-.01.07-.01.09-.01,9.14-.03,18.39-.47,27.52-1.31,1.77-.16,3.33-.39,4.54-1.63,1.16-1.2,1.9-3.43,1.85-5.64-.04-2.01-.68-4.02-1.77-5.42.32-.32.63-.67.91-1.03,1.33,1.63,2.14,4.03,2.2,6.43.05,2.58-.8,5.11-2.22,6.6-1.65,1.69-3.8,1.89-5.38,2.03Z" />
    <path class="cls-3"
      d="M126.2,147.66c5.35-6.08,9.14-15.74,9.29-23.69.16-8.98-1.82-15.92-5.86-20.66.08-.07.15-.12.2-.17.86,1.08,1.65,2.24,2.36,3.49.12.21.35.35.58.35.12,0,.23-.03.33-.09.15-.08.25-.21.29-.36,2.41,4.59,3.56,10.44,3.44,17.47-.15,8.31-4.14,18.42-9.77,24.73-.27-.36-.56-.71-.86-1.06Z" />
    <path class="cls-3"
      d="M130.24,101.97c1.22,1.34,2.28,2.86,3.15,4.55-.04.15-.15.28-.29.36-.11.07-.21.09-.33.09-.23,0-.46-.13-.58-.35-.71-1.26-1.5-2.41-2.36-3.49.31-.31.31-.58.31-.79,0-.25-.15-.5-.38-.6.17.01.35.08.48.23Z" />
    <path class="cls-3"
      d="M129.76,101.74c.23.11.38.35.38.6,0,.21,0,.48-.31.79-.23-.31-.47-.6-.72-.9.03-.12.09-.23.19-.31.13-.12.29-.19.46-.19h.01Z" />
    <path class="cls-3"
      d="M129.11,102.24c.25.29.5.59.72.9-.05.05-.12.11-.2.17-.11-.15-.24-.29-.37-.44-.16-.17-.21-.42-.15-.63Z" />
    <path class="cls-3"
      d="M129.11,102.24c-.07-.08-.13-.16-.2-.25.13-.19.33-.31.56-.31.09,0,.19.03.28.07-.16,0-.32.07-.46.19-.09.08-.16.19-.19.31Z" />
    <path class="cls-3"
      d="M126.28,22.61c1.83-.04,3.68,0,5.52.08,1.41.07,2.78.19,4.1.83,1.79.88,3.2,2.72,3.87,5.01.7,2.37.51,5.15-.47,7.28-.42-.19-.83-.35-1.25-.5,0-.01.01-.01.01-.03.84-1.82,1.02-4.34.42-6.4-.55-1.9-1.74-3.45-3.19-4.16-1.07-.54-2.29-.64-3.56-.7-1.99-.09-4.02-.12-6.01-.07-.04,0-.08,0-.12-.01.27-.43.5-.87.68-1.34Z" />
    <path class="cls-3"
      d="M125.69,22.62c.2,0,.39-.01.59-.01-.19.47-.42.91-.68,1.34-.28-.05-.55-.32-.56-.64-.01-.36.28-.67.66-.68Z" />
    <path class="cls-3"
      d="M126.2,147.66c.29.35.59.7.86,1.06-.07.09-.15.17-.23.27-.13.15-.31.21-.5.21-.16,0-.32-.05-.46-.17-.27-.25-.29-.67-.04-.95.12-.13.25-.28.36-.42Z" />
    <path class="cls-3"
      d="M123.23,144.47c-.28.35-.56.7-.87,1.03-.05-.07-.12-.12-.19-.19-.27-.25-.27-.67-.01-.94.25-.27.68-.28.95-.03.04.04.08.08.12.12Z" />
    <path class="cls-3"
      d="M121.6,146.32c-.16.16-.32.32-.5.48-.13.12-.29.19-.46.19-.19,0-.36-.08-.5-.21-.16-.17-.21-.42-.16-.63.25-.27.47-.52.63-.71.07-.07.95.74.98.88Z" />
    <path class="cls-3"
      d="M121.61,146.34c-.5.55-1.59,1.3-2.62,1.71-1.02.44-1.91.59-1.91.59,0,0,.78-.47,1.57-1.16.5-.42.96-.91,1.35-1.34-.05.21,0,.46.16.63.13.13.31.21.5.21.16,0,.32-.07.46-.19.17-.16.33-.32.5-.48.01.01.01.03.01.03Z" />
    <path class="cls-3" d="M117.78,88.71h-.55c-.37,0-.67-.29-.67-.67,0-.33.24-.62.58-.66.17.44.4.9.64,1.33Z" />
    <path class="cls-3"
      d="M111.17,156.83c.15-.35.54-.5.87-.36.35.15.51.54.36.88-.08.17-.15.36-.21.54l-.68-.4c-.16-.09-.32-.19-.5-.27.05-.13.11-.25.16-.39Z" />
    <path class="cls-3"
      d="M112.04,156.47l.08-.16s.04.01.05.03l.72.42c1.37.82,2.66,1.58,4.1,1.71,1.67.16,3.45-.54,5.62-2.18,2.02-1.54,3.32-3.01,4.1-4.62.11-.25.23-.54.2-.75-.03-.21-.2-.47-.4-.72-1.26-1.66-2.65-3.23-4.15-4.69.31-.33.59-.68.87-1.03,1.04,1,2.03,2.07,2.97,3.19-.11.13-.24.28-.36.42-.25.28-.23.7.04.95.13.12.29.17.46.17.19,0,.36-.07.5-.21.08-.09.16-.17.23-.27.19.21.35.44.52.66.23.31.59.78.66,1.38.07.55-.12,1.06-.32,1.47-.86,1.82-2.29,3.44-4.48,5.11-2.21,1.69-4.12,2.49-5.97,2.49-.2,0-.4-.01-.6-.03-1.73-.17-3.21-1.04-4.65-1.9h-.03c.07-.19.13-.37.21-.55.15-.35-.01-.74-.36-.88Z" />
    <path class="cls-3"
      d="M112.4,149.87c-1.18-.46-2.54-.82-3.44-1.03.35.08.68-.13.78-.47.11-.36-.11-.74-.46-.83.95.31,2.34.99,3.43,1.74,1.23.83,2.1,1.7,2.1,1.7,0,0-1.07-.6-2.41-1.11Z" />
    <path class="cls-3"
      d="M108.6,148.74c-.13-.04.19-1.3.33-1.3.12.03.23.05.35.09.35.09.56.47.46.83-.09.33-.43.55-.78.47-.13-.04-.25-.07-.36-.09Z" />
    <path class="cls-3" d="M109.28,147.54c-.12-.04-.23-.07-.35-.09h.01c.11.03.21.05.33.09Z" />
    <path class="cls-3"
      d="M108.76,23.91c.12-.19.15-.41.07-.63-.12-.27-.39-.43-.67-.42,1.03-.47,2.32-.8,3.49-.78.96-.01,1.83.16,2.44.33.6.17.95.35.95.35,0,0-.37-.09-.99-.15-.62-.04-1.46-.04-2.33.13-1.07.19-2.12.66-2.96,1.15Z" />
    <path class="cls-3" d="M108.14,24.31c.17-.13.39-.27.6-.39-.07.11-.16.19-.29.24-.11.04-.2.09-.31.15Z" />
    <path class="cls-3"
      d="M106.51,23.9c.37-.35.96-.72,1.65-1.03.28-.01.55.15.67.42.08.21.05.44-.07.63-.01,0-.01.01-.01.01-.21.12-.43.25-.6.39h-.01c-.28.16-.56.36-.82.6-.24-.09-.95-.9-.8-1.02Z" />
    <path class="cls-3" d="M108.13,24.31c-.31.21-.55.42-.75.6-.01.01-.04.01-.07,0,.25-.24.54-.44.82-.6Z" />
    <path class="cls-3" d="M105.48,28.93c-.05.4-.08.8-.05,1.2-.25-.13-.4-.42-.35-.71.04-.23.2-.42.4-.5Z" />
    <path class="cls-3"
      d="M104.46,32.71c-.55-1.85-.52-4.04.11-5.85.64-1.86,1.9-3.33,3.37-3.94.07-.03.15-.04.21-.05-.68.31-1.27.68-1.65,1.03-.15.12.56.92.8,1.02-.63.59-1.15,1.42-1.47,2.37-.17.52-.31,1.08-.36,1.65-.2.08-.36.27-.4.5-.05.29.09.58.35.71,0,.75.11,1.49.32,2.18.2.66.46,1.16.75,1.51.6.7,1.46.82,2.44.9,5.11.39,10.33.4,15.54.04.62-.04,1.23-.08,1.85-.13,3.91-.32,7.92-.63,11.73.68-.13.32.01.71.33.87.09.04.19.05.28.05.25,0,.5-.13.62-.39,0-.01.01-.03.01-.04.46.2.91.44,1.35.7,3.35,1.97,7.94,5.69,10.82,12.26,2.74,6.32,3.12,14.08.94,19.8-.54,1.42-1.24,2.68-2.12,3.78-.03-.04-.07-.08-.09-.12-.24-.29-.66-.32-.94-.09-.28.24-.32.67-.09.95.08.09.16.19.21.29-2.36,2.44-5.69,3.98-10.07,4.67-2.09.33-4.2.56-6.25.79-3.25.36-6.61.74-9.88,1.51-2.01.48-4.89,1.18-6.08,3.21-.64,1.11-.5,2.48.04,3.83-.33.04-.58.32-.58.66,0,.37.29.67.67.67h.55c.68,1.18,1.57,2.24,2.36,2.99.98.92,1.98,1.83,2.97,2.73,3.9,3.51,7.58,6.83,10.24,11.54.09.17.11.37.04.55-.87-1.69-1.93-3.21-3.15-4.55-.13-.15-.31-.21-.48-.23h-.01c-.09-.04-.19-.07-.28-.07-.23,0-.43.12-.56.31-2.02-2.34-4.31-4.42-6.69-6.56-.99-.91-2.01-1.81-3-2.76-2.33-2.18-5.11-6.6-3.27-9.77,1.47-2.53,4.82-3.33,6.83-3.82,3.43-.83,6.84-1.2,10.13-1.57,2.03-.23,4.12-.46,6.18-.79,6.28-1,10.23-3.83,12.06-8.62,2.06-5.41,1.7-12.78-.92-18.79-2.73-6.25-7.08-9.79-10.27-11.65-4.18-2.44-8.93-2.06-13.53-1.69-.63.04-1.24.09-1.86.13-5.27.36-10.56.35-15.73-.05-.87-.07-2.33-.17-3.35-1.35-.43-.48-.78-1.15-1.03-1.99Z" />
    <path class="cls-3"
      d="M100.46,159.04c-.44-1.71-1.2-3.53-1.83-4.81.01-.04.03-.09.05-.13.07-.15.13-.28.21-.41.32.01.64.04.96.08.55,1.39,1.08,3.37,1.26,5.15.25,2.22.05,4.06.05,4.06,0,0-.13-1.85-.71-3.94Z" />
    <path class="cls-3"
      d="M99.86,153.76c-.32-.04-.64-.07-.96-.08.15-.29.31-.59.5-.86.03,0,.04.01.05.03.13.25.27.56.42.91Z" />
    <path class="cls-3"
      d="M111.01,157.21c-3.43-1.9-7.26-3.08-11.15-3.45-.15-.35-.28-.66-.42-.91-.01-.01-.03-.03-.05-.03.09-.15.19-.28.28-.42,4.35.36,8.65,1.71,12.45,3.9l-.08.16c-.33-.13-.72.01-.87.36-.05.13-.11.25-.16.39Z" />
    <path class="cls-3"
      d="M98.99,169.64c.19-.39.31-.79.37-1.2.25.62.41,1.24.51,1.9.01.05.01.12.03.17-.09.05-.19.08-.29.08-.09,0-.2-.03-.28-.07-.33-.16-.48-.55-.33-.88Z" />
    <path class="cls-3"
      d="M99.67,176.63c-.16-1-.64-1.99-1.11-2.7.21-.15.43-.32.63-.55.11-.13.21-.27.29-.42.54.92.95,2.37.86,3.63-.03.78-.21,1.46-.37,1.93-.15.37-.27.63-.32.72.04-.19.28-1.34.03-2.61Z" />
    <path class="cls-3"
      d="M98.28,14.83c.04-.12.07-.25.09-.4.09-.33.43-.55.79-.48.2.04.37.19.44.36.03.47-.01.9-.15,1.22-.04.12-1.12-.27-1.26-.4.01-.05.03-.11.04-.16.01-.04.03-.09.04-.13Z" />
    <path class="cls-3"
      d="M98.04,173.23c-.07-.09.95-.96,1.04-.83.13.15.27.33.4.56-.08.15-.19.28-.29.42-.2.23-.41.4-.63.55-.19-.28-.36-.52-.52-.7Z" />
    <path class="cls-3"
      d="M98.25,12.42c-.29-1.02-1.04-1.67-1.04-1.67,0,0,.23.08.55.29.32.21.75.56,1.1,1.07.47.6.71,1.45.75,2.2-.07-.17-.24-.32-.44-.36-.36-.07-.7.15-.79.48.11-.58.12-1.33-.12-2.01Z" />
    <path class="cls-3"
      d="M98.5,153.65c.13,0,.25.01.39.03-.08.13-.15.27-.21.41-.03.04-.04.09-.05.13-.11-.23-.21-.43-.31-.62.05.03.12.04.19.04Z" />
    <path class="cls-3"
      d="M98.89,153.68c-.13-.01-.25-.03-.39-.03-.07,0-.13-.01-.19-.04-.03-.05-.05-.11-.08-.16-.08-.17.9-.7,1.15-.63-.19.27-.35.56-.5.86Z" />
    <path class="cls-3"
      d="M97.9,152.69c1.04-1.86,2.57-3.37,4.35-4.32,2.07-1.11,4.5-1.43,6.68-.92-.15,0-.47,1.26-.33,1.3-1.87-.44-3.94-.15-5.72.8-1.24.67-2.34,1.66-3.21,2.86-.36-.05-.74-.08-1.1-.09-.27-.01-.52.15-.64.39h-.03Z" />
    <path class="cls-3" d="M98.36,14.47s.01-.03.01-.04c-.03.15-.05.28-.09.4.03-.12.05-.24.08-.36Z" />
    <path class="cls-3" d="M98.24,14.97c-.01.05-.03.11-.04.16-.01,0-.01-.01-.01-.01.01-.04.04-.09.05-.15Z" />
    <path class="cls-3"
      d="M98.32,153.61c-.28-.09-.47-.36-.46-.66,0-.09.03-.17.07-.25.12-.24.37-.4.64-.39.36.01.74.04,1.1.09-.09.13-.19.27-.28.42-.25-.07-1.23.46-1.15.63.03.05.05.11.08.16Z" />
    <path class="cls-3"
      d="M98.13,161.81c-.99-2.62-2.02-5.33-.66-8.27.13-.29.28-.58.43-.84h.03c-.04.09-.07.17-.07.27-.01.29.17.56.46.66.09.19.2.39.31.62-1.04,2.38-.2,4.58.76,7.09.13.37.28.75.41,1.12.82,2.26,1.61,5.18.4,7.75-.07.15-.17.25-.31.31-.01-.05-.01-.12-.03-.17-.09-.66-.25-1.29-.51-1.9.36-1.85-.23-3.88-.82-5.53-.13-.36-.28-.74-.42-1.1Z" />
    <path class="cls-3" d="M98.14,166.28l-1.07.72c-.12-.28-.04-.6.21-.8.25-.19.59-.16.82.03.01.01.03.04.04.05Z" />
    <path class="cls-3"
      d="M96.09,165.7c-.43-.44-.98-.64-.98-.64,0,0,.58-.16,1.3.05.7.17,1.39.71,1.69,1.11-.23-.19-.56-.21-.82-.03-.25.2-.33.52-.21.8l-.04.03c-.19-.29-.48-.9-.94-1.33Z" />
    <path class="cls-3" d="M90.15,168.43s-.01.08-.01.11h-.01s.01-.07.03-.11Z" />
    <path class="cls-3"
      d="M89.83,176.16c-.03-.64-.13-1.23-.28-1.75.13.07.27.13.4.19-.03.82-.03,2.14.28,3.29.28,1.26.84,2.25.84,2.25,0,0-.78-.72-1.41-1.89.15-.68.2-1.41.16-2.09Z" />
    <path class="cls-3"
      d="M88.83,168.29c.01-.07.03-.15.05-.23,0-.03.01-.07.03-.09.01-.03.03-.05.04-.08.16-.23.44-.35.72-.27.36.09.58.46.48.82-.01.04-.01.07-.03.11l-1.3-.25Z" />
    <path class="cls-3"
      d="M89.55,174.4c-.01-.05-.03-.11-.05-.15.25.01.47.05.47.11,0,.07-.01.15-.01.23-.13-.05-.27-.12-.4-.19Z" />
    <path class="cls-3" d="M89.55,174.4c-.11-.05-.2-.11-.29-.16.08-.01.16,0,.24.01.03.04.04.09.05.15Z" />
    <path class="cls-3"
      d="M89.6,178.12c-.68-1.22-1.03-2.88-.98-3.82,0-.07.31-.09.63-.07.09.05.19.11.29.16.15.52.25,1.11.28,1.75.04.68-.01,1.41-.16,2.09-.03-.04-.04-.08-.07-.12Z" />
    <path class="cls-3"
      d="M88.8,173.91c.07-.12.12-.25.17-.4.13-.04.23-.04.25.01.09.21.19.46.27.74-.08-.01-.16-.03-.24-.01-.15-.11-.28-.2-.42-.31-.01-.01-.03-.03-.04-.03Z" />
    <path class="cls-3"
      d="M88.97,173.51c.13-.4.21-.9.23-1.46.01-1.08-.16-2.17-.52-3.2.05-.25.11-.5.17-.75,0-.01.01-.03.03-.04-.03.08-.04.16-.05.23l1.3.25c-.31,1.23-.54,2.5-.67,3.76-.01.11-.03.27,0,.33,0,.03.04.11.23.25,1.69,1.37,5.58,1.2,7.7.16.25-.13.59-.31.8-.56.36-.41.48-1.07.36-1.97-.17-1.22-.66-2.38-1.39-3.39-.04-.04-.05-.09-.08-.13l1.07-.72s.05.04.08.07c.47.64.86,1.35,1.14,2.09-.07.42-.19.82-.37,1.2-.15.33,0,.72.33.88.08.04.19.07.28.07.11,0,.2-.03.29-.08.11.99-.03,1.81-.42,2.45-.13-.23-.27-.42-.4-.56-.09-.13-1.11.74-1.04.83.16.17.33.41.52.7-.21.13-.42.24-.59.32-1.15.58-2.89.96-4.65.96-1.19,0-2.38-.19-3.37-.62,0-.08.01-.16.01-.23,0-.05-.21-.09-.47-.11-.08-.28-.17-.52-.27-.74-.03-.05-.12-.05-.25-.01Z" />
    <path class="cls-3"
      d="M88.56,173.67c-.15-.16-.29-.36-.37-.62-.12-.33-.08-.67-.05-.88.11-1.11.29-2.22.55-3.32.36,1.03.54,2.12.52,3.2-.01.56-.09,1.06-.23,1.46-.12.03-.28.09-.42.16Z" />
    <path class="cls-3"
      d="M88.95,167.88c.21-.66.74-1.51,1.43-2.02.4-.32.82-.52,1.12-.63.31-.11.51-.13.51-.13,0,0-.7.44-1.14,1.22-.46.7-.62,1.58-.72,2.12.09-.36-.12-.72-.48-.82-.28-.08-.56.04-.72.27Z" />
    <path class="cls-3" d="M88.95,167.88s-.03.05-.04.08c0-.03.01-.05.04-.08Z" />
    <path class="cls-3" d="M88.97,173.51c-.05.15-.11.28-.17.4-.07-.07-.16-.15-.24-.24.13-.07.29-.13.42-.16Z" />
    <path class="cls-3"
      d="M88.62,174.31c-.05.94.29,2.6.98,3.82.03.04.04.08.07.12-.05.37-.15.74-.27,1.07-.32.98-.82,1.78-1.23,2.32-.35.47-.64.74-.71.79.05-.08.28-.39.54-.9.29-.59.62-1.43.76-2.37.29-1.59-.08-3.36-.51-4.5.21-.2.4-.46.55-.75.01,0,.03.01.04.03.13.11.27.2.42.31-.32-.03-.63,0-.63.07Z" />
    <path class="cls-3"
      d="M88.25,174.66c-.08-.23-.16-.43-.24-.59-.03-.08.24-.27.55-.4.08.09.17.17.24.24-.15.29-.33.55-.55.75Z" />
    <path class="cls-3"
      d="M86.32,133.32c1.74,2.96,2.29,3.6,2.92,4.19.43.4.9.78,1.41,1.12.67.79,1.41,1.51,2.18,2.13,1.35,1.12,2.82,1.89,3.94,2.33.56.21,1.03.39,1.35.47.24.07.4.12.47.13-.07,0-.23-.03-.48-.08-.33-.04-.82-.16-1.41-.32-1.16-.33-2.74-.95-4.27-1.99-1.54-1-3.01-2.41-4.07-3.92-1.04-1.42-1.7-2.93-2.03-4.06Z" />
    <path class="cls-3"
      d="M89.24,137.51c-.63-.59-1.18-1.23-2.92-4.19-.03-.07-.05-.13-.07-.19l1.27-.37c.01.05.03.09.05.15.32,1.04.83,2.45,1.71,3.84.39.64.84,1.29,1.35,1.89-.51-.35-.98-.72-1.41-1.12Z" />
    <path class="cls-3" d="M87.54,132.76c.01.05.03.09.04.15-.03-.05-.04-.09-.05-.15h.01Z" />
    <path class="cls-3" d="M88.1,167.55l-1.19.59s-.03-.07-.04-.11c-.07-.29.07-.62.35-.75.32-.17.71-.05.88.27Z" />
    <path class="cls-3"
      d="M87.22,167.28c-.28.13-.42.46-.35.75-.19-.39-.43-1.04-.76-1.59-.36-.62-.79-1.08-.79-1.08,0,0,.62.17,1.27.62.66.42,1.3,1.11,1.53,1.58h-.01c-.17-.32-.56-.44-.88-.27Z" />
    <path class="cls-3"
      d="M92.01,127.22c-1.75.07-4.39.19-5.22,1.33-.31.43-.35,1-.15,1.77.24.88.54,1.7.88,2.45l-1.27.37c.01.05.04.12.07.19l-.96-2.65c-.32-1.16-.2-2.16.36-2.92,1.2-1.66,4.11-1.78,6.24-1.87l.8-.04c4.79-.29,9.93-.44,14.98.48,2.46.46,5.26.96,6.45,3.71,1.03,2.38.03,4.89-1.26,6.44-1.9,2.32-5.06,4.22-8.02,4.85-1.12.24-2.3.36-3.51.36-1.99,0-4.08-.32-6.27-.96-1.75-.52-3.24-1.2-4.5-2.08-.51-.6-.96-1.25-1.35-1.89-.88-1.39-1.39-2.8-1.71-3.84.67,1.45,1.53,2.65,2.57,3.63,1.38,1.29,3.15,2.24,5.38,2.89,3.29.98,6.36,1.18,9.1.59,2.65-.58,5.57-2.33,7.27-4.39.98-1.19,1.85-3.24,1.06-5.06-.91-2.09-3.12-2.5-5.46-2.93-4.91-.9-9.95-.75-14.66-.47-.25.03-.54.04-.83.05Z" />
    <path class="cls-3"
      d="M84.72,21.69c.36-.08.59-.44.51-.8-.03-.11-.04-.21-.05-.32,1.12.03,2.22.04,3.28.07,4.15.08,8.33-.29,9.75-5.5.13.13,1.22.52,1.26.4.13-.32.17-.75.15-1.22.08.13.11.28.07.44-1.59,7.4-7.87,7.28-11.24,7.22-1.23-.03-2.53-.05-3.86-.08v-.19c.05,0,.09,0,.15-.01Z" />
    <path class="cls-3"
      d="M87.27,12.1c-1.5,1.94-2.7,5.26-2.1,8.46-.44-.01-.9-.01-1.37-.03-.48-3.09.46-6.73,2.41-9.25,3.95-5.06,10.13-5.49,15.1-5.82l.51-.04c4.63-.32,9.32-.04,13.91.83l.96.17c3.45.6,7.75,1.37,9.53,6.29,1.27,3.51,1.26,6.97.05,9.89-.2,0-.39.01-.59.01-.37.01-.67.32-.66.68.01.32.28.59.56.64-.24.44-.54.87-.86,1.29-1.73,2.2-4.11,3.64-7.5,4.52-2.25.6-4.51.9-6.79.9-1.62,0-3.23-.15-4.85-.46-.07-.01-.13-.03-.19-.07-.03-.4,0-.8.05-1.2.12-.05.25-.07.39-.04,3.68.68,7.39.55,11.03-.42,3.09-.82,5.25-2.12,6.79-4.07,2.33-2.95,2.78-7.04,1.29-11.23-1.51-4.19-5.23-4.86-8.51-5.44l-.96-.17c-4.48-.84-9.05-1.11-13.57-.8l-.51.04c-4.95.33-10.56.72-14.14,5.3Z" />
    <path class="cls-3"
      d="M83.93,21.18c-.05-.21-.09-.43-.12-.64.47.01.92.01,1.37.03.01.11.03.21.05.32.08.36-.15.72-.51.8-.05.01-.09.01-.15.01-.31,0-.58-.21-.64-.52Z" />
    <path class="cls-3"
      d="M80.38,154.48c.16-1.79-.46-3.75-.67-4.91l1.29-.27h.01c.01.09.04.19.05.29.31,1.69.39,3.17-.68,4.89Z" />
    <path class="cls-3"
      d="M80.94,155.27c-.37,1.03-.99,1.85-1.51,2.32-.47.42-.83.62-.92.66.08-.05.4-.32.76-.8.41-.54.84-1.38,1.03-2.36.04-.19.07-.37.08-.58v-.03c1.07-1.71.99-3.2.68-4.89.25,1.35.6,3.72-.12,5.68Z" />
    <path class="cls-3"
      d="M78.96,198.38c-.21-.2-.44-.39-.66-.58.05.01.12.01.17.03.36.07.71-.17.76-.55.05-.28-.08-.55-.32-.68h.01c.31.24.62.51.91.76.76.68,1.5,1.33,2.33,1.81,1.89,1.1,4.02,1.2,5.46,1.08,2.92-.23,5.85-1.22,8.47-2.86,1.54-.96,2.76-2.64,3.64-4.98.96-2.56,2.58-4.31,4.31-6.02,2.09-2.09,4.14-4.26,6.09-6.48.86-.96,1.59-1.85,2.03-2.88.47-1.08.5-2.22.07-3.04l-.46-.88c-.83-1.54-1.69-3.13-2.05-4.95-.67-3.35-.23-7.23,1.26-10.94.17.08.33.17.5.27l.68.4c-1.34,3.43-1.75,6.96-1.12,10.01.33,1.61,1.1,3.05,1.91,4.58l.47.88c.63,1.2.62,2.73-.03,4.2-.52,1.2-1.34,2.18-2.26,3.23-1.98,2.24-4.04,4.44-6.16,6.53-1.67,1.67-3.13,3.25-3.99,5.57-.99,2.62-2.4,4.51-4.19,5.64-2.81,1.75-5.96,2.81-9.09,3.07-.35.03-.7.04-1.03.04-1.94,0-3.72-.44-5.19-1.3-.95-.55-1.77-1.27-2.54-1.95Z" />
    <path class="cls-3"
      d="M80.23,126.16c.27.51.7,1.41,1.22,2.3.51.88,1.11,1.77,1.49,2.37-.62-.33-1.49-1-2.24-1.79s-1.35-1.69-1.65-2.25l-.17-.31c.21.19.54.2.78.04.32-.21.4-.63.2-.94-.56-.86-.99-1.81-1.23-2.8.04.12.09.24.15.36.4.94.87,1.82,1.11,2.34l.17.33.17.33Z" />
    <path class="cls-3"
      d="M77.03,196.83c-.37-.25-.78-.48-1.2-.68.99.08,1.95.21,2.86.37.08.01.16.04.23.08.24.13.37.4.32.68-.05.37-.4.62-.76.55-.05-.01-.12-.01-.17-.03-.42-.36-.83-.68-1.27-.98Z" />
    <path class="cls-3"
      d="M77.49,167.76c.01-.09.04-.2.08-.31,0-.03.01-.05.03-.08.15-.23.44-.36.72-.28.36.09.58.46.48.82,0,.03-.01.05-.01.08l-1.3-.23Z" />
    <path class="cls-3"
      d="M78.68,126.06c-.28-.58-.63-1.59-.82-2.66-.19-1.07-.21-2.17-.11-2.88.21.58.51,1.41.86,2.24,0,.01,0,.03.01.03.24.99.67,1.94,1.23,2.8.2.31.12.72-.2.94-.24.16-.56.15-.78-.04l-.03-.05-.17-.36Z" />
    <path class="cls-3"
      d="M78.73,126.32c-1.73-2.61-2.24-5.96-1.37-8.97.03-.11.07-.25.15-.42.08-.16.19-.33.35-.48.4-.36.94-.37,1.22-.37,2.18-.04,4.38.15,6.49.33l1.67.15c8.35.67,16.79.4,25.07-.79,1.47-.21,3.69-.54,5.25.75.78.63,1.2,1.55,1.55,2.36l.35.8c2.05,4.79,3.98,9.3,6.71,13.68.58.95,1.2,1.95,1.31,3.12.15,1.65-.72,3.04-1.69,4.46-.82,1.18-1.65,2.38-2.57,3.53-.04-.04-.08-.08-.12-.12-.27-.25-.7-.24-.95.03-.25.27-.25.68.01.94.07.07.13.12.19.19-.24.28-.5.55-.76.82-.03-.15-.91-.95-.98-.88-.16.19-.38.44-.63.71.03-.12.09-.23.19-.32,1.77-1.65,3.16-3.68,4.52-5.65.82-1.2,1.55-2.38,1.45-3.57-.07-.86-.59-1.67-1.08-2.48-2.81-4.52-4.77-9.09-6.83-13.91l-.35-.8c-.29-.7-.63-1.42-1.18-1.86-1-.83-2.56-.68-4.19-.46-8.39,1.2-16.92,1.47-25.38.79l-1.69-.13c-2.08-.19-4.24-.37-6.33-.33-.27,0-.35.03-.37.04-.01.03-.04.08-.09.27-.47,1.63-.48,3.39-.04,5.03-.35-.83-.64-1.66-.86-2.24-.11.71-.08,1.81.11,2.88.19,1.07.54,2.09.82,2.66l.17.36.03.05c-.05-.04-.11-.09-.15-.16Z" />
    <path class="cls-3"
      d="M78.32,167.09c-.28-.08-.58.05-.72.28.17-.54.58-1.22,1.07-1.67.6-.59,1.23-.86,1.23-.86,0,0-.42.54-.67,1.23-.28.7-.36,1.5-.43,1.91h-.01s.01-.05.01-.08c.09-.36-.12-.72-.48-.82Z" />
    <path class="cls-3"
      d="M78.52,174.16c-.04.2-.08.42-.11.67-.09-.05-.19-.13-.28-.21-.25-.21-.47-.47-.63-.76.4.01,1.03.17,1.02.31Z" />
    <path class="cls-3"
      d="M77.57,167.46c-.04.11-.07.21-.08.31l1.3.23c-.23.88-.37,1.78-.47,2.68-.15,1.46.08,2.42.68,2.94,1.34,1.16,3.44,1.03,5.29.92l.39-.03c2.36-.13,3.17-.76,3.19-2.48.01-1.31-.31-2.65-.94-3.86-.01-.01-.01-.03-.01-.04l1.19-.59h.01c.21.43.4.86.56,1.3-.25,1.1-.44,2.21-.55,3.32-.03.21-.07.55.05.88.08.25.23.46.37.62-.31.13-.58.32-.55.4.08.16.16.36.24.59-.88.88-2.25,1.12-3.51,1.19l-.37.03c-.58.03-1.18.07-1.81.07-1.45,0-2.95-.2-4.15-1.11.03-.25.07-.47.11-.67.01-.13-.62-.29-1.02-.31-.03-.03-.04-.04-.04-.07.7-1.67.19-3.91-.2-5.14.08-.35.15-.71.24-1.06.01-.05.03-.09.07-.13Z" />
    <path class="cls-3"
      d="M77.14,174.36c.12-.16.21-.33.28-.51h.08c.16.29.37.55.63.76.09.08.19.16.28.21-.16,1.29-.17,3.17.33,4.81.27.96.67,1.82,1.02,2.41.28.46.51.76.58.87-.12-.11-.39-.36-.74-.75-.47-.54-1.03-1.33-1.49-2.29-.24-.47-.43-.99-.59-1.51.12-1.5-.07-3.01-.4-3.95h0s0-.04.01-.05Z" />
    <path class="cls-3" d="M77.46,173.79c-.46-.8-.62-1.89-.47-3.25.05-.63.15-1.26.27-1.89.39,1.23.9,3.47.2,5.14Z" />
    <path class="cls-3" d="M77.53,178.37c-.4-1.39-.52-2.88-.4-3.95.33.94.52,2.45.4,3.95Z" />
    <path class="cls-3" d="M77.42,173.85c-.07.17-.16.35-.28.51,0-.15.03-.29.05-.43.01-.05.09-.08.23-.08Z" />
    <path class="cls-3"
      d="M77.13,174.4c-.2.31-.47.59-.8.82-.09.07-.19.12-.29.17-.05-.21-.12-.42-.19-.59-.05-.16,1.2-.63,1.27-.43t.01.03Z" />
    <path class="cls-3"
      d="M76.32,175.22c.33-.23.6-.51.8-.82h0c-.12,1.08,0,2.57.4,3.96-.04.62-.13,1.22-.28,1.79-.24.99-.6,1.86-.91,2.46-.27.52-.48.83-.54.91.07-.17.68-1.65.78-3.48.15-1.65-.17-3.45-.55-4.66.11-.05.2-.11.29-.17Z" />
    <path class="cls-3" d="M76.98,167.91l-1.16.52s-.01-.03-.01-.04c-.04-.29.13-.59.43-.7.27-.09.58-.01.75.21Z" />
    <path class="cls-3"
      d="M74.51,165.31s.56.32,1.14.86c.59.51,1.18,1.25,1.38,1.71l-.04.03h-.01c-.17-.23-.48-.31-.75-.21-.29.11-.47.4-.43.7-.19-.4-.42-1.16-.68-1.83-.28-.68-.6-1.25-.6-1.25Z" />
    <path class="cls-3"
      d="M74.22,111.75c.13,1.82.7,3.31.76,3.49-.04-.08-.25-.42-.51-.94-.31-.6-.67-1.46-.91-2.45-.47-1.63-.48-3.63-.24-5.01.46,0,.9.01,1.35.01-.32,1.22-.63,3.15-.46,4.89Z" />
    <path class="cls-3"
      d="M74.68,106.87c-.46,0-.9-.01-1.35-.01.05-.28.11-.54.17-.76.05-.2,1.34.19,1.3.36-.04.12-.08.27-.12.42Z" />
    <path class="cls-3"
      d="M71.6,193.6c2.56.35,4.58,1.04,6.18,2.12.4.27.79.56,1.15.87h-.01c-.07-.03-.15-.05-.23-.07-.91-.16-1.87-.29-2.86-.37-1.14-.54-2.46-.92-4.03-1.16.2-.2.47-1.22.27-1.27-.15-.04-.29-.08-.47-.11Z" />
    <path class="cls-3" d="M71.8,194.98s-.04.03-.07.03c-.09-.03-.2-.05-.32-.08.13.01.25.03.39.05Z" />
    <path class="cls-3" d="M71.41,194.93c-.13-.03-.28-.05-.43-.07-.11-.01-.2-.05-.28-.12.25.07.5.12.71.19Z" />
    <path class="cls-3"
      d="M71.72,136.08c-.63-.04-1.7-.07-2.8.17-1.1.21-2.17.71-2.86,1.08.46-.64,1.42-1.49,2.58-1.98,1.15-.52,2.44-.67,3.16-.62l.48.04.48.08c.72.12,1.93.58,2.92,1.35,1,.76,1.74,1.82,2.02,2.56-.58-.52-1.5-1.27-2.52-1.75-1-.5-2.05-.74-2.66-.84l-.4-.05-.4-.04Z" />
    <path class="cls-3"
      d="M71.8,194.98c-.13-.03-.25-.04-.39-.05-.21-.07-.46-.12-.71-.19-.21-.12-.33-.36-.31-.62.05-.37.39-.63.75-.59.16.01.31.04.46.07.17.03.32.07.47.11.2.05-.07,1.07-.27,1.27Z" />
    <path class="cls-3"
      d="M68.44,125.46l.21-.33c.35-.51.95-1.35,1.49-2.28.55-.91,1.03-1.91,1.38-2.56,0,.7-.16,1.74-.47,2.77-.37,1.04-.91,2.08-1.65,3.27-.12.21-.35.32-.56.32-.12,0-.24-.03-.36-.11-.25-.16-.36-.47-.28-.74,0-.01.01-.01.01-.03l.23-.32Z" />
    <path class="cls-3"
      d="M64.72,130.19c.47-.58,1.22-1.38,1.87-2.22.67-.82,1.25-1.66,1.61-2.16-.08.27.03.58.28.74.12.08.24.11.36.11.21,0,.44-.11.56-.32.74-1.19,1.27-2.22,1.65-3.27-.01.07-.03.12-.05.19-.35,1.07-.86,2.08-1.22,2.61l-.24.36-.24.33c-.37.54-1.14,1.37-2.02,2.06-.88.71-1.89,1.29-2.56,1.57Z" />
    <path class="cls-3"
      d="M67.79,168.04c.17-.32.05-.74-.28-.9-.21-.12-.46-.11-.64.01.47-.67,1.31-1.45,2.17-1.9,1.07-.59,2.05-.74,2.05-.74,0,0-.87.48-1.65,1.27-.79.79-1.39,1.87-1.69,2.45l-.05-.03c.03-.05.07-.12.09-.17Z" />
    <path class="cls-3"
      d="M69.8,188.71c-.74-.01-1.99-.05-3.29-.01-1.29.03-2.61.13-3.48.17.79-.39,2.07-.84,3.39-1.11,1.31-.29,2.64-.4,3.4-.39h.51s.5.03.5.03c.78.04,2.09.23,3.37.59,1.3.35,2.57.88,3.32,1.31-.87-.09-2.18-.28-3.47-.39s-2.54-.13-3.28-.17h-.48s-.48-.03-.48-.03Z" />
    <path class="cls-3"
      d="M67.7,168.22l-1.12-.6c.07-.13.16-.28.28-.44,0-.01.01-.01.01-.01.19-.12.43-.13.64-.01.33.16.46.58.28.9-.03.05-.07.12-.09.17Z" />
    <path class="cls-3"
      d="M66.59,178.78c.25-.99.16-2.14-.13-3.12-.05-.17-.11-.33-.17-.5.25.19.55.33.88.44-.15.46-.25,1.03-.27,1.69-.01.83.13,1.75.4,2.6.48,1.58,1.26,2.82,1.35,2.97-.07-.07-.31-.33-.66-.74-.37-.47-.88-1.15-1.31-1.98-.12-.21-.23-.46-.32-.68.09-.21.16-.44.23-.68Z" />
    <path class="cls-3"
      d="M66.15,174.8c.33.01,1.15.37,1.12.48-.04.09-.08.2-.11.32-.33-.11-.63-.25-.88-.44-.04-.13-.09-.25-.13-.36Z" />
    <path class="cls-3"
      d="M66.15,174.8c-.21-.48-.44-.91-.67-1.25.29-.92.16-2.02-.12-3.05.32-1.16.84-2.28,1.26-3.08.05-.11.13-.2.24-.25-.12.16-.21.31-.28.44l1.12.6c-1.2,2.34-1.61,4.4-1.06,5.39.29.51.86.8,1.74.87,1.77.13,3.56.16,5.33.05.68-.03,1.38-.09,1.85-.41,1.34-.94,1.02-3.48.27-5.57-.01-.05-.03-.11-.03-.16,0,.01.01.03.01.04l1.16-.52h.01c.04.05.07.12.09.19.05.15.12.33.17.55-.12.63-.21,1.26-.27,1.89-.15,1.37.01,2.45.47,3.25,0,.03-.01.04-.04.07-.13,0-.21.03-.23.08-.03.13-.05.28-.05.43-.01.01-.01.03-.01.04t-.01-.03c-.07-.2-1.33.27-1.27.43.07.17.13.37.19.59-.71.37-1.53.44-2.25.48-.75.04-1.5.07-2.25.07-1.08,0-2.17-.04-3.24-.12-.42-.03-.79-.11-1.12-.21.03-.12.07-.23.11-.32.03-.11-.79-.47-1.12-.48Z" />
    <path class="cls-3"
      d="M66.15,174.8c.04.11.09.23.13.36-.11-.07-.2-.15-.29-.25,0-.03,0-.04.01-.07.01-.04.07-.05.15-.04Z" />
    <path class="cls-3"
      d="M66.46,175.66c.29.98.39,2.13.13,3.12-.07.24-.13.47-.23.68-.17-.4-.32-.82-.43-1.25h-.01c0-.41-.07-.83-.19-1.22v-.03c-.05-.79.07-1.54.24-2.06h.01c.09.11.19.19.29.25.07.16.12.32.17.5Z" />
    <path class="cls-3" d="M65.92,178.21h.01s0,.01-.01,0Z" />
    <path class="cls-3" d="M65.73,177c.12.39.19.8.19,1.2-.07-.28-.12-.56-.15-.84-.01-.12-.03-.24-.04-.36Z" />
    <path class="cls-3"
      d="M65.73,194.22c-2.06.05-3.78.5-3.98.55.23-.11,1.83-.84,3.91-1.2,2.01-.4,4.42-.29,5.93.04-.15-.03-.29-.05-.46-.07-.36-.04-.7.21-.75.59-.03.25.09.5.31.62-1.38-.31-3.25-.59-4.97-.52Z" />
    <path class="cls-3"
      d="M65.34,173.35s-.09-.03-.19.01c-.19-.88-.07-1.89.2-2.85.28,1.03.42,2.13.12,3.05-.04-.08-.08-.15-.13-.21Z" />
    <path class="cls-3"
      d="M65.48,174.26c-.05-.11-.11-.21-.15-.32.07-.12.11-.24.15-.37.23.33.46.76.67,1.25-.08-.01-.13,0-.15.04-.01.03-.01.04-.01.07h-.01c-.2-.2-.36-.42-.5-.66Z" />
    <path class="cls-3"
      d="M65.33,173.93c-.08-.17-.13-.37-.17-.58.09-.04.16-.05.19-.01.05.07.09.13.13.21-.04.13-.08.25-.15.37Z" />
    <path class="cls-3"
      d="M65.73,176.97c-.24-.84-.66-1.61-1.03-2.21.28-.24.48-.52.63-.83.04.11.09.21.15.32.13.24.29.46.5.66-.17.52-.29,1.27-.24,2.06Z" />
    <path class="cls-3"
      d="M64.7,174.76c-.17-.25-.32-.47-.46-.66-.07-.12.56-.62.91-.75.04.2.09.4.17.58-.15.31-.35.59-.63.83Z" />
    <path class="cls-3"
      d="M64.68,181.43c.13-.13.29-.33.47-.58.37-.51.72-1.3.78-2.18.01-.15.01-.31.01-.46.11.43.25.84.43,1.25-.28.67-.7,1.19-1.06,1.53-.24.21-.44.39-.59.48-.08.05-.13.09-.17.12.03-.04.07-.09.13-.16Z" />
    <path class="cls-3"
      d="M64.89,155.89c-.25-.09-.48-.21-.7-.39-.33-1.16-.24-2.46-.09-3.27.07.94.33,2.06,1.25,2.4.66.24,1.22.2,1.73-.11,1.16-.71,1.81-2.66,1.97-3.82.09-.72.29-1.61,1.07-2.1.32-.21.72-.32,1.12-.32.46,0,.92.12,1.33.37.56.35,1,.88,1.37,1.65.13.29.28.66.43,1.06.87,2.21,1.73,4.02,3.53,3.67.35-.07.7-.33,1.07-.86,1.16-1.57,1.08-2.86.72-4.61h.03c.21,1.16.83,3.12.67,4.91v.03c-.11.15-.21.31-.33.47-.59.79-1.2,1.23-1.9,1.37-.25.05-.5.08-.72.08-2.52,0-3.63-2.82-4.31-4.58-.15-.36-.27-.7-.4-.96-.24-.52-.52-.88-.84-1.08-.33-.2-.78-.24-1.03-.07-.31.2-.41.7-.47,1.15-.17,1.3-.91,3.76-2.6,4.79-.86.51-1.86.59-2.88.21Z" />
    <path class="cls-3" d="M64.13,152.03c-.01.07-.03.13-.03.2-.01-.05-.01-.09-.01-.15v-.07h.04Z" />
    <path class="cls-3"
      d="M63.48,167.24c.23-.08.48-.03.66.11.01.01.01.03.03.04.2.35.36.68.44.96.03.11-1.11.44-1.27.39l-.05-.13c-.05-.2-.12-.44-.21-.71-.01-.01-.01-.03-.01-.04,0-.25.16-.51.43-.62Z" />
    <path class="cls-3" d="M63.28,168.61l.05.13s-.01,0-.01,0c-.01-.04-.03-.08-.04-.13Z" />
    <path class="cls-3" d="M63.07,167.9c.09.27.16.51.21.71l-.19-.51c-.03-.07-.04-.13-.03-.2Z" />
    <path class="cls-3"
      d="M64.19,155.5c-.86-.63-1.37-1.79-1.45-3.35v-.03c.01-.12.03-.23.05-.32l1.29.21v.07c0,.05,0,.09.01.15-.15.8-.24,2.1.09,3.27Z" />
    <path class="cls-3"
      d="M63.74,156.22c-.84-1.22-1.1-2.97-.99-4.07.08,1.55.59,2.72,1.45,3.35.03.15.08.29.13.43.25.68.63,1.27.94,1.66.27.33.48.55.55.6-.07-.03-.33-.17-.7-.46-.42-.31-.95-.82-1.38-1.51Z" />
    <path class="cls-3"
      d="M62.73,151.41c0-4.3,1.71-9.77,5.21-12.54,1.75-1.38,3.65-1.75,5.49-1.06,4.07,1.53,6.85,7.71,7.36,10.52l.04.15c.05.28.12.56.16.83l-1.29.27h-.03c-.04-.25-.11-.54-.16-.82l-.04-.16c-.5-2.74-3.11-8.26-6.52-9.53-1.42-.54-2.78-.25-4.19.84-3.29,2.62-4.87,8.17-4.69,12.11l-1.29-.21c-.03.09-.04.2-.05.32-.01-.56-.01-.64-.01-.72Z" />
    <path class="cls-3"
      d="M63.06,167.86c-.19-.54-.44-1.16-.79-1.7-.54-.88-1.2-1.51-1.2-1.51,0,0,.86.33,1.71,1.08.54.43,1.02,1.04,1.37,1.62-.17-.13-.43-.19-.66-.11-.27.11-.43.36-.43.62Z" />
    <path class="cls-3" d="M61.14,131.65h.03c-.05.15-.09.28-.15.4.04-.13.08-.27.12-.4Z" />
    <path class="cls-3"
      d="M62.29,132.46c-.79,2.06-1.87,3.72-3.29,5.05-.39.36-.79.7-1.23,1,1.59-2.18,2.73-4.73,3.25-6.45h0c.05-.13.09-.27.15-.4l1.26.37c-.03.09-.05.2-.09.31-.01.04-.03.08-.04.12Z" />
    <path class="cls-3"
      d="M56.76,166.06c-.8.8-1.37,1.9-1.58,2.49l-.07-.03c.07-.13.12-.25.17-.36.16-.33.03-.72-.29-.9-.2-.09-.43-.08-.62.01.47-.66,1.2-1.34,1.97-1.75.98-.56,1.87-.78,2.01-.8-.13.08-.9.59-1.59,1.34Z" />
    <path class="cls-3"
      d="M54.34,174.84c.21-.35.44-.64.67-.86.13-.13,1.06.84.95.95-.12.11-.24.24-.36.39-.36-.11-.7-.21-.99-.35-.09-.04-.17-.08-.27-.13Z" />
    <path class="cls-3"
      d="M53.94,168.03c.09-.23.24-.5.44-.75.19-.09.42-.11.62-.01.32.17.45.56.29.9-.05.11-.11.23-.17.36l-1.18-.5Z" />
    <path class="cls-3"
      d="M55.6,175.33c-.66.76-1.38,2.09-1.49,3.47-.09.8,0,1.57.13,2.12.08.27.15.48.2.63.05.11.08.19.08.23-.01-.03-.07-.09-.12-.2-.11-.13-.21-.33-.35-.59-.27-.52-.55-1.29-.62-2.18-.08-.9.01-1.89.33-2.76.15-.44.35-.84.56-1.19.09.05.17.09.27.13.29.13.63.24.99.35Z" />
    <path class="cls-3"
      d="M52.82,171.03c.2-1.14.72-2.34,1.27-3.45.07-.13.17-.24.29-.29-.2.25-.35.52-.44.75l1.18.5c-.44.91-1.11,2.42-1.06,3.6h-.04c0-.31-.21-.59-.52-.66-.27-.07-.5-.21-.68-.44Z" />
    <path class="cls-3"
      d="M54.34,174.84c-.7-.37-1.18-.91-1.43-1.62-.07-.2-.12-.4-.15-.6.13.07.28.11.44.15.05.01.11.01.15.01.31,0,.59-.2.66-.51.01-.05.01-.09.01-.15h.04c0,.23.04.44.11.64.16.44.48.75.98.98,1.95.87,6.18,1.19,8.17.33,1.67-.74.98-2.95.03-5.34.16.05,1.3-.28,1.27-.39-.08-.28-.24-.62-.44-.96.08.05.15.15.19.25l.23.6c.24.63.56,1.43.78,2.26-.27.96-.39,1.97-.2,2.85-.35.13-.98.63-.91.75.13.19.28.4.46.66-.23.21-.52.39-.86.54-.99.44-2.37.63-3.8.63-1.55,0-3.19-.23-4.44-.6.12-.15.24-.28.36-.39.11-.11-.82-1.08-.95-.95-.23.21-.46.51-.67.86Z" />
    <path class="cls-3"
      d="M53.6,143.13c-.5.31-.91.54-1.19.7-.23.11-.36.19-.43.23.05-.04.19-.13.39-.28.28-.19.66-.47,1.11-.82.9-.72,2.09-1.77,3.19-3.07.39-.43.76-.9,1.1-1.38.44-.31.84-.64,1.23-1,1.42-1.33,2.5-2.99,3.29-5.05-.72,2.25-2.69,5.65-5.13,7.88-1.26,1.23-2.58,2.16-3.56,2.78Z" />
    <path class="cls-3"
      d="M52.76,172.62c-.08-.51-.05-1.04.05-1.59.19.23.42.37.68.44.31.07.52.35.52.66,0,.05,0,.09-.01.15-.07.31-.35.51-.66.51-.04,0-.09,0-.15-.01-.16-.04-.31-.08-.44-.15Z" />
    <path class="cls-3" d="M52.45,150.12c.12.11.2.25.21.43.01.17-.03.33-.13.46,0-.29-.03-.59-.08-.88Z" />
    <path class="cls-3" d="M50.71,147.48c-.08-.01-.17-.03-.28-.04h.07c.07,0,.15.01.21.04Z" />
    <path class="cls-3"
      d="M50.53,146.1c.7,0,1.38.39,1.98,1.11.88,1.07,1.38,2.42,1.37,3.82,0,.76-.24,2.25-.59,4.31-.76,4.54-2.28,13.53-.47,15.69-.11.55-.13,1.08-.05,1.59-3.23-1.37-2.22-9.05-.8-17.51.31-1.85.58-3.43.58-4.08v-.03c.11-.12.15-.28.13-.46-.01-.17-.09-.32-.21-.43h-.01c-.15-.75-.48-1.47-.96-2.05-.16-.19-.43-.48-.74-.59.11.01.29-1.31.16-1.33-.15-.03-.32-.04-.51-.04.03-.01.05-.01.08-.01h.05Z" />
    <path class="cls-3"
      d="M50.9,146.16c.13.01-.05,1.34-.16,1.33h-.03c-.07-.03-.15-.04-.21-.04h-.07s-.04,0-.07-.01c-.29-.08-.52-.35-.52-.67.01-.32.19-.58.5-.64h.05c.19,0,.36.01.51.04Z" />
    <path class="cls-3"
      d="M50.37,147.43c-.76-.08-1.87-.12-2.88.13-1.19.25-2.12.8-2.12.8,0,0,.7-.82,1.87-1.43.94-.52,2.18-.8,3.09-.82-.31.07-.48.32-.5.64,0,.32.23.59.52.67Z" />
    <path class="cls-3"
      d="M42.51,157c-.33.31-.68.63-1.03.94-.05-.17-.13-.36-.21-.54-.13-.31-.48-.47-.79-.37.39-.33.76-.68,1.12-1.02.46-.42.9-.82,1.31-1.16,2.38-2.01,5.37-4.48,9.02-4.9.2-.01.37.05.51.16h.01c.05.31.08.6.08.9-.09.15-.27.25-.46.28-3.25.36-6.06,2.7-8.31,4.59-.4.33-.82.72-1.26,1.12Z" />
    <path class="cls-3"
      d="M39.87,177.55c-.05-1,.25-1.97.51-2.81.87-2.78,1.59-5.33,1.53-8.37-.05-2.6-.58-5.18-1.5-7.55.36-.28.72-.58,1.07-.88,1.08,2.62,1.69,5.52,1.77,8.41.07,3.24-.68,5.9-1.58,8.79-.24.78-.5,1.58-.47,2.36.07,1.39,1.04,2.66,1.9,3.61,2.37,2.62,4.55,5.26,5.31,8.82.33,1.51.48,3.07.62,4.55.08.84.16,1.69.27,2.52.05.36.09.68.24.9,1.03,1.63,2.84,2.01,4.74,2.4.51.11,1,.2,1.49.33,2.26.58,4.54.43,7.14-.5,1.04-.37,2.02-.99,3.07-1.63,1.14-.71,2.32-1.45,3.63-1.86,2.03-.64,4.19-.7,6.24-.5.43.2.83.43,1.2.68.44.29.86.62,1.27.98-2.62-.43-5.62-.74-8.31.11-1.15.36-2.21,1.03-3.32,1.73-1.06.66-2.14,1.34-3.33,1.75-1.73.62-3.33.92-4.89.92-1.02,0-2.02-.13-3.03-.4-.46-.11-.94-.21-1.42-.31-1.99-.42-4.27-.87-5.6-2.99-.29-.46-.37-.96-.44-1.45-.12-.86-.19-1.7-.27-2.56-.15-1.46-.28-2.97-.59-4.4-.71-3.24-2.77-5.73-5.01-8.21-1-1.11-2.17-2.64-2.24-4.46Z" />
    <path class="cls-3"
      d="M41.48,157.94c-.35.31-.71.6-1.07.88-.12-.29-.24-.59-.37-.88-.08-.19-.07-.37.01-.55.15-.11.29-.23.43-.36.31-.09.66.07.79.37.08.17.16.36.21.54Z" />
    <path class="cls-3" d="M40.38,157.05s.05-.03.09-.03c-.13.13-.28.25-.43.36.07-.15.17-.25.33-.33Z" />
    <path class="cls-3"
      d="M36.03,116.84c4.74-1.16,9.79-.99,14.1-.66,3.55.27,7.26.37,11.02.32.47,0,1.14-.08,1.91-.16,2.88-.31,6.83-.74,8.13,1.31.55.86.7,1.98.44,3.32-.15.72-.32,1.41-.58,2.09.31-1.03.47-2.08.47-2.77-.35.64-.83,1.65-1.38,2.56-.54.92-1.14,1.77-1.49,2.28l-.21.33-.23.32c0-.05.03-.11.05-.15,1.12-1.81,1.71-3.24,2.05-4.91.19-.99.11-1.78-.25-2.36-.86-1.34-4.61-.94-6.85-.68-.82.08-1.51.16-2.05.16-3.8.07-7.55-.05-11.12-.32-4.42-.33-9.13-.5-13.68.62-.27.08-.56-.05-.71-.28-.05-.05-.08-.12-.09-.2-.09-.36.13-.72.48-.82Z" />
    <path class="cls-3"
      d="M40.59,70.52c-1.9.07-4.03.17-5.69.19.28-.07.52-.31.54-.63,0-.28-.16-.52-.4-.63,1.63.08,3.72.23,5.58.4,2.54.24,4.67.58,4.67.58,0,0-2.14,0-4.7.09Z" />
    <path class="cls-3"
      d="M34.05,130.03c1.19-2.74,3.99-3.25,6.45-3.71,5.05-.92,10.19-.78,14.98-.48l.8.04c2.13.09,5.03.21,6.24,1.87.46.63.63,1.41.5,2.3-.03.2-.08.4-.13.62-.16.59-.33,1.14-.55,1.67.04-.11.07-.21.09-.31l-1.26-.37.43-1.35c.2-.76.16-1.34-.16-1.77-.82-1.14-3.47-1.26-5.21-1.34-.29,0-.58-.01-.83-.04-2.01-.12-4.08-.21-6.18-.21-2.81,0-5.66.17-8.47.68-2.34.43-4.55.84-5.46,2.93-.79,1.82.08,3.87,1.06,5.06,1.7,2.06,4.62,3.82,7.27,4.39,2.74.59,5.81.39,9.1-.59,2.24-.66,3.99-1.61,5.38-2.89.87-.82,1.61-1.78,2.93-4.47-.52,1.73-1.66,4.27-3.25,6.45-2.37,1.39-3.47,1.83-4.67,2.2-2.18.64-4.28.96-6.27.96-1.22,0-2.38-.12-3.51-.36-2.22-.47-4.55-1.66-6.39-3.2-.6-.51-1.16-1.07-1.63-1.65-1.29-1.55-2.29-4.06-1.26-6.44Z" />
    <path class="cls-3"
      d="M34.78,69.4c.09,0,.17.01.24.05-.23-.03-.43-.04-.63-.04h-.01s-.04-.01-.05-.03c.15,0,.31.01.46.01Z" />
    <path class="cls-3" d="M34.48,70.72c.13,0,.28,0,.43-.01-.05.03-.11.03-.16.03-.09,0-.17,0-.27-.01Z" />
    <path class="cls-3" d="M34.48,70.72c-.19,0-.37,0-.58-.01.19.01.37.01.58.01Z" />
    <path class="cls-3" d="M34.33,69.38s.04.01.05.03c-.23-.01-.43-.03-.62-.04.19,0,.37.01.56.01Z" />
    <path class="cls-3"
      d="M33.97,102.36c-.01-.31-.24-.58-.52-.63.08-.04.16-.05.25-.05.33,0,.6.24.66.55,1.41,1.42,18.42,3.35,47.23,3.35s45.84-1.93,47.23-3.35c.01-.09.05-.17.09-.24.07.09.13.17.2.25-.07.21-.01.46.15.63.13.15.27.29.37.44-1.04.74-4.26,1.66-14.12,2.46-9.06.74-21.11,1.14-33.92,1.14-2.33,0-4.63-.01-6.91-.04.04-.15.08-.29.12-.42.04-.17-1.24-.56-1.3-.36-.07.23-.12.48-.17.76-9.67-.13-18.57-.51-25.65-1.08-10.52-.86-13.48-1.85-14.32-2.62.07-.05.12-.08.19-.11.05-.03.11-.05.15-.11.05-.04.09-.08.13-.13.09-.12.15-.27.15-.44Z" />
    <path class="cls-3"
      d="M34.13,70.7c.36,0,.67-.28.67-.66.01-.27-.16-.52-.4-.63.2,0,.4.01.63.04h.01c.24.11.4.35.4.63-.01.32-.25.56-.54.63-.15.01-.29.01-.43.01-.2,0-.39,0-.58-.01-.17,0-.35-.01-.51-.01-.01,0-.03,0-.04-.03.25.01.51.03.76.03h.01Z" />
    <path class="cls-3"
      d="M33.58,145.73c.28-.64.55-1.35.71-2.06.39-1.51.33-2.88.33-2.88,0,0,.39,1.3.32,2.97-.01,1.66-.62,3.59-1.2,4.54-.01.03-.07.03-.13,0,.21-.33.37-.72.37-1.18.01-.5-.17-.95-.39-1.35-.01-.01-.01-.03-.01-.04Z" />
    <path class="cls-3"
      d="M33.44,101.73c.28.05.51.32.52.63,0,.17-.05.32-.15.44.12-.19.15-.43.04-.64-.09-.21-.29-.35-.51-.37.03-.03.05-.04.09-.05Z" />
    <path class="cls-3"
      d="M33.35,101.78c.21.03.41.16.51.37.11.21.08.46-.04.64-.04.05-.08.09-.13.13-.11.07-.23.12-.36.12h-.05c-.24-.27-.24-.51-.24-.71,0-.24.13-.46.32-.56Z" />
    <path class="cls-3"
      d="M33.54,103.04c-.07.03-.12.05-.19.11-.03-.03-.05-.05-.08-.09h.05c.13,0,.25-.05.36-.12-.04.05-.09.08-.15.11Z" />
    <path class="cls-3"
      d="M34.11,70.7c-.25,0-.51-.01-.76-.03-.2-.16-.13-1.33.09-1.31.11,0,.21.01.32.01.19.01.39.03.62.04h.01c.24.11.42.36.4.63,0,.37-.31.66-.67.66h-.01Z" />
    <path class="cls-3"
      d="M33.44,69.36c-.23-.01-.29,1.15-.09,1.31-1.99-.05-4.18-.21-6.1-1.15-.12-.05-.24-.12-.36-.19,2.14-.04,4.4-.01,6.56.03Z" />
    <path class="cls-3"
      d="M32.96,101.83c.12-.07.27-.08.39-.05-.19.11-.32.32-.32.56,0,.2,0,.44.24.71h-.27c-.63,0-1.23-.07-1.81-.15.55-.41,1.14-.78,1.77-1.07Z" />
    <path class="cls-3"
      d="M32.67,147.47c.27-.44.6-1.06.91-1.74,0,.01,0,.03.01.04.21.4.4.86.39,1.35,0,.46-.16.84-.37,1.18-.31-.08-1.08-.59-1.02-.68.03-.04.05-.09.08-.15Z" />
    <path class="cls-3"
      d="M32.65,157.03c1.03,1.45,2.28,2.26,3.4,2.26h.04c1.38-.01,2.72-.87,3.95-1.9-.08.17-.09.36-.01.55.13.29.25.59.37.88-1.3,1-2.7,1.78-4.28,1.81h-.05c-1.58,0-3.21-1.02-4.5-2.81-1.33-1.83-2.33-4.59-1.61-6.67.39-1.11,1.15-2.01,1.9-2.82.29-.31.59-.62.71-.91l.09.05c-.03.05-.05.11-.08.15-.07.09.71.6,1.02.68-.21.36-.51.68-.76.95-.66.7-1.31,1.47-1.62,2.34-.47,1.35.13,3.64,1.43,5.44Z" />
    <path class="cls-3" d="M30.67,124.89c.11-.19.23-.39.36-.63-.01.12-.05.24-.12.35-.07.09-.15.19-.24.28Z" />
    <path class="cls-3"
      d="M29.83,123.81c.21-.31.64-.36.94-.15.19.13.28.36.27.59-.13.24-.25.44-.36.63-.05.09-.13.17-.21.25-.23-.04-1.11-.64-1.06-.74.09-.13.19-.29.32-.46.04-.04.07-.09.11-.13Z" />
    <path class="cls-3" d="M30.67,124.89c-.05.09-.09.17-.15.24-.01.01-.03.01-.07.01.08-.08.16-.16.21-.25Z" />
    <path class="cls-3"
      d="M30.77,123.67c-.29-.21-.72-.16-.94.15-.04.04-.07.09-.11.13.52-.76,1.31-1.79,1.98-2.74.8-1.16,1.47-2.14,1.47-2.14,0,0-.35,1.14-.88,2.46-.37.92-.84,1.94-1.26,2.73.01-.23-.08-.46-.27-.59Z" />
    <path class="cls-3"
      d="M27.93,125.54c.07.2.13.37.2.56.12.35-.05.74-.4.87-.07.03-.15.04-.23.04-.27,0-.52-.16-.63-.44-.03-.05-.04-.11-.05-.17.32-.27.64-.51.98-.75.04-.04.09-.07.13-.11Z" />
    <path class="cls-3"
      d="M33,103.05h.27s.05.07.08.09c-6.93,3.44-7.83,15.27-5.42,22.4-.04.04-.09.07-.13.11-.33.24-.66.48-.98.75-2.62-7.18-2.02-18.78,4.38-23.49.58.08,1.18.15,1.81.15Z" />
    <path class="cls-3"
      d="M29.99,140.71c1.3,1.55,2.65,3.16,3.59,5.02-.31.68-.64,1.3-.91,1.74l-.09-.05c.04-.11.07-.2.07-.31.01-.23-.12-.5-.24-.74-.87-1.74-2.12-3.23-3.44-4.81-.94-1.12-1.91-2.29-2.73-3.55-1.89-2.88-3.16-7.35-.58-10.5.35-.42.75-.79,1.16-1.12.01.07.03.12.05.17.11.28.36.44.63.44.08,0,.16-.01.23-.04.35-.13.52-.52.4-.87-.07-.19-.13-.36-.2-.56.68-.51,1.31-.99,1.79-1.59-.13.16-.23.32-.32.46-.05.09.83.7,1.06.74-.56.6-1.22,1.1-1.87,1.58-.71.52-1.38,1.03-1.89,1.65-1.99,2.42-1.11,6.22.64,8.93.78,1.18,1.73,2.32,2.65,3.41Z" />
    <path class="cls-3"
      d="M25.52,25.22c3.37-3.27,7.64-3.79,12.09-4.07,9.92-.64,20.7-.88,33.91-.79,4.23.04,8.42.11,12.29.17.03.21.07.43.12.64.07.31.33.52.64.52v.19c-4.08-.08-8.55-.15-13.07-.19-13.17-.09-23.92.15-33.8.78-4.19.27-8.21.76-11.24,3.69-2.2,2.13-3.84,5.5-4.42,9.04-.51,3.15-.87,6.39-1.1,9.58h-.04v-.03c-.01-.36-.28-.63-.68-.64h-.56c.23-3.05.59-6.13,1.07-9.13.62-3.86,2.37-7.43,4.79-9.77Z" />
    <path class="cls-3" d="M20.9,44.77v.03c0,.36-.29.66-.66.67h-.68c.03-.44.05-.9.09-1.34h.56c.4.01.67.28.68.64Z" />
    <path class="cls-3"
      d="M21.74,60.23c1.12,3.96,3.17,6.68,6.08,8.09,1.94.94,4.27.99,6.33,1.04.05,0,.12.01.17.03-.19,0-.37-.01-.56-.01-.11,0-.21-.01-.32-.01-2.16-.04-4.42-.07-6.56-.03-3.08-1.62-5.23-4.55-6.43-8.73-.74-2.62-1.1-5.49-1.1-8.78,0-2.07.07-4.2.2-6.36h.68c.36-.01.66-.31.66-.67h.04c-.16,2.37-.24,4.74-.24,7.03,0,3.17.35,5.92,1.04,8.41Z" />
    <path class="cls-3"
      d="M13.1,72.6c-.11.25-.35.42-.62.42-.08,0-.17-.03-.25-.05-.13-.05-.25-.11-.39-.19.35-.33.72-.63,1.11-.9.2.19.25.47.15.72Z" />
    <path class="cls-3"
      d="M33.44,101.73s-.07.03-.09.05c-.12-.03-.27-.01-.39.05-.63.29-1.22.66-1.77,1.07-.27-.04-.54-.08-.8-.12-.64-.11-1.26-.2-1.89-.24-6.68-.42-14.02-1.89-17.8-9.6-2.85-5.81-3.19-11.87-.94-17.08.55-1.29,1.26-2.29,2.08-3.09.13.08.25.13.39.19.08.03.17.05.25.05.27,0,.51-.16.62-.42.11-.25.05-.54-.15-.72,2.54-1.74,5.86-2.01,9.1-2.28l.98-.07c1.19-.11,2.5-.16,3.86-.2.12.07.24.13.36.19,1.93.94,4.11,1.1,6.1,1.15.01.03.03.03.04.03-3.47-.08-7.23-.09-10.24.16l-.99.08c-4.7.37-9.14.74-11.16,5.45-2.09,4.85-1.77,10.52.91,15.97,3.48,7.08,10.07,8.43,16.68,8.85.71.04,1.38.15,2.02.25.9.15,1.75.28,2.66.25.05,0,.12,0,.17.01Z" />
    <path class="cls-3"
      d="M9.33,46.96c2.4-2.78,6.16-2.81,9.48-2.82.28,0,.56,0,.84-.01-.04.44-.07.9-.09,1.34-.24.01-.48.01-.74.01-3.19.01-6.48.04-8.47,2.36-2.76,3.21-3.86,8.39-3.71,12.09.16,4.35,1.86,10.05,6.09,11.79.09.04.16.09.21.16-.39.27-.76.56-1.11.9-4.54-2.13-6.36-8.18-6.53-12.8-.15-3.96,1.03-9.52,4.03-13.01Z" />
    <path class="cls-5"
      d="M47.67,105.77c7.08.58,15.98.95,25.65,1.08-.09.56-.16,1.23-.16,1.94,0,.15-17.48-.08-19.29-.18-4.33-.24-8.65-.8-12.9-1.68-3.56-.74-7.15-3.1-9.71.34-2.6,3.48-3.51,7.05-3.38,11.39.05,1.82.46,3.51.79,5.27.08.39.13.67.17.88-.28.24-.59.47-.91.71-2.41-7.12-1.51-18.96,5.42-22.4.84.78,3.8,1.77,14.32,2.62Z" />
    <path class="cls-5"
      d="M130.66,104.63c-.96.8-2.36,1.26-3.61,1.57-2.38.55-4.79.99-7.2,1.3-5.03.63-10.12.71-15.19.79-9.38.15-18.77.29-28.17.46-.72.01-1.46.01-2.18.03.11-.72.24-1.38.37-1.9,2.28.03,4.58.04,6.91.04,12.81,0,24.86-.4,33.92-1.14,9.87-.8,13.08-1.73,14.12-2.46.36.43.71.87,1.03,1.33Z" />
    <path class="cls-5"
      d="M33.58,145.73c-.94-1.86-2.29-3.47-3.59-5.02-.92-1.1-1.87-2.24-2.65-3.41-1.75-2.7-2.64-6.51-.64-8.93.51-.62,1.18-1.12,1.89-1.65.66-.48,1.31-.98,1.87-1.58.04,0,.05,0,.07-.01.05-.07.09-.15.15-.24.09-.09.17-.19.24-.28.07-.11.11-.23.12-.35.29-.56.62-1.24.91-1.91.12,2.09-2.16,5.25-3.29,6.79-.58.76-1.22,1.54-1.34,2.48-.13.98.31,1.91.75,2.8.83,1.69,1.66,3.37,2.49,5.07.88,1.81,1.89,3.73,3.59,4.75-.16.52-.36,1.03-.56,1.5Z" />
    <path class="cls-5" d="M34.6,141.77c0-.12,0-.23-.01-.33.01.01.01.04.03.05,0,.09-.01.19-.01.28Z" />
    <path class="cls-5"
      d="M36.86,159.2c-.25.05-.51.09-.76.09h-.04c-1.12,0-2.37-.82-3.4-2.26-1.3-1.79-1.9-4.08-1.43-5.44.31-.87.96-1.65,1.62-2.34.25-.27.55-.59.76-.95.07.03.12.03.13,0,.59-.95,1.19-2.88,1.2-4.54.03-.58-.01-1.12-.05-1.57.9,2.66.16,5.76-1.49,8.06-.47.67-1.03,1.33-1.18,2.13-.12.64.04,1.33.27,1.94.76,2.03,2.29,3.76,4.22,4.78.05.03.09.05.15.09Z" />
    <path class="cls-5"
      d="M51.36,199.45c-.72-.33-1.37-.82-1.82-1.55-.15-.21-.19-.54-.24-.9-.11-.83-.19-1.67-.27-2.52-.13-1.49-.28-3.04-.62-4.55-.76-3.56-2.94-6.2-5.31-8.82-.86-.95-1.83-2.22-1.9-3.61-.03-.78.23-1.58.47-2.36.9-2.89,1.65-5.56,1.58-8.79-.04-1.65-.25-3.28-.64-4.87,1.22.62,1.38,4.58,1.42,5.62.09,2.21-.2,4.43-.83,6.55-.42,1.37-.95,2.76-.76,4.18.32,2.33,2.46,3.87,4.03,5.62,1.58,1.75,2.68,3.92,3.17,6.22.68,3.25.25,6.91,1.73,9.79Z" />
    <path class="cls-3"
      d="M40.73,54.19c-1.18,0-2.31-.17-3.36-.5-1.11-.35-2.09-.91-2.93-1.66-.84-.76-1.51-1.73-1.99-2.89-.47-1.14-.71-2.5-.71-4.05s.25-2.93.76-4.07c.5-1.15,1.19-2.12,2.03-2.87.84-.75,1.79-1.3,2.85-1.65,1.02-.34,2.07-.51,3.14-.51.63,0,1.21.05,1.73.16.51.1.98.23,1.38.39.06.02.11.05.17.07.21-.14.46-.22.73-.22h3.19c.74,0,1.34.6,1.34,1.34v4.86h.7c.74,0,1.34.6,1.34,1.34v3.29c0,.74-.6,1.34-1.34,1.34-.1,0-.18,0-.25,0v3.86c0,.74-.6,1.34-1.34,1.34h-2.97c-.35,0-.67-.13-.91-.36-.19.09-.38.18-.59.26-.87.35-1.87.53-2.96.53ZM42.1,42.13c-.17,0-.31.03-.45.09-.07.03-.16.11-.24.23-.03.04-.06.09-.09.15.08-.02.17-.03.26-.03h1.28c-.04-.09-.09-.18-.16-.25-.06-.06-.18-.2-.6-.2Z" />
    <path class="cls-3"
      d="M57.52,54.19c-1.18,0-2.28-.15-3.25-.43-1.03-.3-1.93-.77-2.67-1.38-.77-.63-1.37-1.43-1.78-2.36-.4-.91-.61-1.96-.61-3.11s.21-2.21.61-3.12c.42-.93,1.02-1.72,1.79-2.35.74-.6,1.64-1.06,2.67-1.37.98-.29,2.07-.43,3.25-.43s2.28.15,3.25.43c1.03.3,1.92.76,2.67,1.37.77.63,1.37,1.41,1.78,2.34.41.91.62,1.96.62,3.12s-.21,2.19-.62,3.11c-.41.93-1.01,1.72-1.78,2.36-.75.62-1.65,1.08-2.67,1.39-.98.29-2.07.43-3.25.43ZM57.51,45.29c-.02.09-.05.2-.06.36-.04.34-.06.76-.06,1.26s.02.91.06,1.26c.02.17.05.29.07.38.02-.08.05-.2.07-.37.04-.35.06-.77.06-1.27,0-.91-.07-1.38-.13-1.62Z" />
    <path class="cls-3"
      d="M72.27,54.19c-1.18,0-2.28-.15-3.25-.43-1.03-.3-1.93-.77-2.67-1.38-.77-.63-1.37-1.43-1.78-2.36-.4-.91-.61-1.96-.61-3.11s.21-2.21.61-3.12c.41-.93,1.02-1.72,1.79-2.35.74-.6,1.64-1.06,2.67-1.37.98-.29,2.07-.43,3.25-.43s2.28.15,3.25.43c1.03.3,1.92.76,2.67,1.37.77.63,1.37,1.41,1.78,2.34.41.91.62,1.96.62,3.12s-.21,2.19-.62,3.11c-.41.93-1.01,1.72-1.78,2.36-.75.62-1.65,1.08-2.67,1.39-.98.29-2.07.43-3.25.43ZM72.26,45.29c-.02.09-.05.2-.06.36-.04.34-.06.76-.06,1.26s.02.91.06,1.26c.02.17.05.29.07.38.02-.08.05-.2.07-.37.04-.35.06-.77.06-1.27,0-.91-.07-1.38-.13-1.62Z" />
    <path class="cls-3"
      d="M84.73,54.09c-1.99,0-3.55-.66-4.62-1.97-1.01-1.23-1.52-2.98-1.52-5.2s.56-3.99,1.67-5.17c1.13-1.2,2.67-1.81,4.57-1.81.25,0,.49.01.72.03v-2.26c0-.74.6-1.34,1.34-1.34h6.7c.74,0,1.34.6,1.34,1.34v9.66h.05c.74,0,1.34.6,1.34,1.34v3.7c0,.74-.6,1.34-1.34,1.34h-6.5c-.35,0-.67-.13-.91-.35-.33.18-.69.34-1.09.45-.52.15-1.1.23-1.73.23ZM86.93,45.69c-.06.16-.09.3-.11.46-.03.28-.05.57-.05.87s.02.59.05.86c0,.08.02.15.04.22,0-.04.02-.1.02-.15.03-.26.05-.54.05-.83v-1.42Z" />
    <path class="cls-5"
      d="M45.19,52.42l-.32-1c-.41.38-.97.71-1.68,1-.71.29-1.53.43-2.46.43-1.05,0-2.03-.15-2.96-.44-.93-.29-1.74-.75-2.43-1.38-.69-.62-1.24-1.43-1.65-2.41-.4-.98-.6-2.16-.6-3.54s.21-2.56.64-3.54c.43-.98.99-1.78,1.69-2.41.7-.62,1.49-1.08,2.38-1.38.88-.29,1.79-.44,2.72-.44.54,0,1.03.04,1.47.13.44.09.82.19,1.15.32.33.13.61.27.83.41.23.14.41.26.55.35v-.82h3.19v5.44h-3.39c-.03-.71-.23-1.28-.61-1.71-.38-.44-.92-.65-1.6-.65-.35,0-.67.06-.98.19-.3.13-.57.36-.8.68-.23.33-.41.77-.55,1.32-.13.55-.2,1.25-.2,2.1s.04,1.48.13,2.02c.09.54.22.98.41,1.32.18.34.42.58.7.73.28.15.63.22,1.03.22.09,0,.21,0,.34-.03.14-.02.27-.05.4-.1.13-.05.24-.11.33-.19.09-.08.14-.19.14-.33v-.55c0-.31-.1-.55-.31-.71-.21-.16-.59-.24-1.16-.24v-3.29h8.17v3.29c-.57,0-.97.08-1.22.23-.25.16-.37.45-.37.88v4.09h-2.97Z" />
    <path class="cls-5"
      d="M50.54,46.9c0-.98.16-1.84.49-2.57.33-.74.8-1.36,1.41-1.85.61-.5,1.34-.87,2.2-1.12.86-.25,1.82-.38,2.87-.38s2.02.13,2.87.38c.86.25,1.59.63,2.2,1.12.61.5,1.08,1.11,1.41,1.85s.5,1.6.5,2.57-.17,1.82-.5,2.56c-.33.75-.8,1.37-1.41,1.87-.61.5-1.34.88-2.2,1.13-.86.25-1.82.38-2.87.38s-2.02-.13-2.87-.38c-.86-.25-1.59-.63-2.2-1.13-.61-.5-1.08-1.13-1.41-1.87-.33-.74-.49-1.6-.49-2.56ZM56.05,46.9c0,.56.02,1.03.07,1.42.05.39.13.7.24.94.11.24.26.41.44.52.19.11.43.16.72.16s.53-.05.71-.16c.18-.11.33-.28.45-.52.11-.24.19-.55.24-.94.04-.39.07-.86.07-1.42,0-1.12-.1-1.9-.31-2.35-.2-.45-.59-.67-1.16-.67-.29,0-.53.05-.72.15-.19.1-.34.27-.44.51-.11.24-.19.55-.24.94-.05.39-.07.86-.07,1.42Z" />
    <path class="cls-5"
      d="M65.29,46.9c0-.98.16-1.84.49-2.57.33-.74.8-1.36,1.41-1.85.61-.5,1.34-.87,2.2-1.12.86-.25,1.82-.38,2.87-.38s2.02.13,2.87.38c.86.25,1.59.63,2.2,1.12.61.5,1.08,1.11,1.41,1.85.33.74.5,1.6.5,2.57s-.17,1.82-.5,2.56c-.33.75-.8,1.37-1.41,1.87-.61.5-1.34.88-2.2,1.13-.86.25-1.82.38-2.87.38s-2.02-.13-2.87-.38c-.86-.25-1.59-.63-2.2-1.13-.61-.5-1.08-1.13-1.41-1.87-.33-.74-.49-1.6-.49-2.56ZM70.8,46.9c0,.56.02,1.03.07,1.42.05.39.13.7.24.94.11.24.26.41.45.52s.43.16.72.16.53-.05.71-.16c.18-.11.33-.28.45-.52.11-.24.19-.55.24-.94.04-.39.07-.86.07-1.42,0-1.12-.1-1.9-.31-2.35-.2-.45-.59-.67-1.16-.67-.29,0-.53.05-.72.15-.19.1-.34.27-.45.51-.11.24-.19.55-.24.94-.05.39-.07.86-.07,1.42Z" />
    <path class="cls-5"
      d="M93.58,37.72v10.18c0,.27.07.48.22.61.15.14.35.2.61.2h.55v3.7h-6.5v-1.82h-.15c-.1.29-.25.56-.46.82-.2.26-.45.49-.74.68-.29.2-.63.35-1.03.47-.4.12-.85.17-1.35.17-1.58,0-2.78-.49-3.59-1.48-.81-.99-1.22-2.44-1.22-4.35s.44-3.33,1.31-4.25c.87-.92,2.07-1.39,3.59-1.39.41,0,.77.03,1.09.1.32.07.62.15.88.25.26.1.52.22.76.35.24.13.48.25.72.37v-.36c0-.36-.06-.61-.18-.76-.12-.15-.35-.22-.69-.22h-.51v-3.29h6.7ZM85.43,47.02c0,.36.02.7.06,1.02.04.32.11.6.22.84.11.24.25.43.43.56.18.13.41.2.7.2s.53-.06.72-.19c.19-.13.33-.3.44-.53.11-.23.18-.5.22-.81.04-.31.06-.65.06-1v-2.25c-.16-.16-.38-.29-.65-.4-.27-.11-.53-.16-.78-.16-.29,0-.53.07-.7.22-.18.15-.32.35-.43.6-.11.25-.18.55-.22.88-.04.33-.06.68-.06,1.03Z" />
    <path class="cls-3"
      d="M67.64,74.82c-.15,0-.29-.02-.42-.07-.13.04-.27.07-.42.07h-8.09c-.74,0-1.34-.6-1.34-1.34v-3.7c0-.74.6-1.34,1.34-1.34h.05v-.92h-.05c-.74,0-1.34-.6-1.34-1.33v-3.7c0-.74.6-1.34,1.34-1.34h5.75c.34,0,.66.13.9.35.9-.53,2.02-.8,3.33-.8,1.09,0,1.98.17,2.73.52.75.35,1.35.81,1.78,1.38.42.55.71,1.15.87,1.8.13.56.2,1.1.2,1.61v2.44h.06c.74,0,1.34.6,1.34,1.34v3.7c0,.74-.6,1.34-1.34,1.34h-6.7Z" />
    <path class="cls-3"
      d="M75.32,74.82c-.74,0-1.34-.6-1.34-1.34v-3.7c0-.74.6-1.34,1.34-1.34h.06v-.92s-.06,0-.06,0c-.74,0-1.34-.6-1.34-1.34v-3.7c0-.74.6-1.34,1.34-1.34h.07c-.12-.35-.18-.72-.18-1.12,0-.94.36-1.78,1.05-2.43.68-.65,1.6-.98,2.73-.98s2.07.33,2.75.98c.7.66,1.06,1.5,1.06,2.44,0,.43-.07.84-.22,1.22.49.2.83.68.83,1.24v5.96h.06c.74,0,1.34.6,1.34,1.34v3.7c0,.74-.6,1.34-1.34,1.34h-8.15Z" />
    <path class="cls-3"
      d="M90.91,80.13c-.88,0-1.74-.01-2.57-.04-.9-.03-1.72-.13-2.44-.3-.84-.2-1.54-.53-2.08-1-.48-.41-1.05-1.15-1.05-2.41,0-.79.26-1.49.76-2.04-.03-.05-.06-.11-.08-.16-.24-.5-.36-1.04-.36-1.62,0-.75.25-1.46.75-2.11.12-.16.26-.32.4-.47-.18-.23-.34-.47-.48-.73-.42-.76-.63-1.66-.63-2.66s.21-1.85.61-2.61c.41-.76.99-1.4,1.74-1.9.69-.46,1.52-.82,2.45-1.05.89-.23,1.89-.34,2.98-.34,1.17,0,2.24.13,3.2.4.61.17,1.18.39,1.69.67.23-.14.47-.26.74-.37.42-.17.9-.25,1.45-.25h.89c.74,0,1.34.6,1.34,1.34v3.7c0,.74-.6,1.34-1.34,1.34h-.29c-.33,1.51-1.12,2.73-2.35,3.59.36.11.7.24,1.01.39.68.34,1.25.81,1.67,1.4.46.65.69,1.45.69,2.38,0,1.16-.46,2.76-2.66,3.8-1.46.69-3.43,1.03-6.05,1.03ZM90.91,66.14c-.01.12-.02.28-.02.46s0,.34.02.47c.01-.13.02-.28.02-.47s0-.34-.02-.46Z" />
    <path class="cls-3"
      d="M108.78,74.82c-.11,0-.22-.01-.32-.04-.1.03-.21.04-.32.04h-8.28c-.74,0-1.34-.6-1.34-1.34v-3.7c0-.74.6-1.34,1.34-1.34h.04l-.02-4.62h-.03c-.74,0-1.34-.6-1.34-1.34v-3.7c0-.74.6-1.34,1.34-1.34h6.7c.74,0,1.34.6,1.34,1.34v2.22c.61-.2,1.31-.31,2.09-.31,1.07,0,1.94.17,2.66.52.72.35,1.3.81,1.73,1.38.41.54.7,1.14.85,1.79.13.56.2,1.1.2,1.61v2.44h.06c.74,0,1.34.6,1.34,1.34v3.7c0,.74-.6,1.34-1.34,1.34h-6.7Z" />
    <path class="cls-3"
      d="M121.6,75.29c-1.11,0-2.01-.15-2.73-.46-.78-.33-1.4-.81-1.82-1.42-.4-.57-.66-1.25-.78-2.01-.1-.63-.15-1.31-.15-2.03v-1.84h-.18c-.74,0-1.34-.6-1.34-1.34v-3.29c0-.74.6-1.34,1.34-1.34.27,0,.51-.06.73-.17.25-.13.46-.3.64-.54.2-.26.36-.57.48-.91.12-.35.18-.74.18-1.15,0-.74.6-1.34,1.34-1.34h3.54c.74,0,1.34.6,1.34,1.34v2.36h1.56c.74,0,1.34.6,1.34,1.34v3.7c0,.26-.08.51-.21.72.2.23.31.53.31.86v1.61c0,.75-.08,1.46-.23,2.11-.18.75-.49,1.41-.93,1.97-.46.58-1.07,1.04-1.82,1.37-.73.32-1.58.47-2.61.47Z" />
    <path class="cls-5"
      d="M67.64,67.11c0-.26-.03-.47-.09-.62-.06-.16-.14-.28-.23-.36-.09-.08-.2-.14-.31-.16-.12-.03-.23-.04-.34-.04-.42,0-.73.13-.94.38s-.31.61-.31,1.08v1.43c0,.35.06.6.18.75.12.15.35.22.69.22h.52v3.7h-8.09v-3.7h.57c.26,0,.47-.09.6-.26.14-.18.21-.39.21-.63v-1.9c0-.31-.09-.52-.27-.63-.18-.11-.38-.16-.6-.16h-.51v-3.7h5.75l-.2,2.74h.16c.14-1.02.58-1.81,1.31-2.36.73-.55,1.72-.83,2.97-.83.88,0,1.6.13,2.16.39.55.26.99.59,1.29.98.31.4.51.83.62,1.29.11.46.16.9.16,1.3v2.8c0,.35.06.6.18.75.12.15.35.22.69.22h.52v3.7h-6.7v-6.38Z" />
    <path class="cls-5"
      d="M82.08,62.49v6.22c0,.45.11.74.32.87.21.14.48.2.81.2h.26v3.7h-8.15v-3.7h.38c.34,0,.59-.11.76-.33.16-.22.25-.46.25-.72v-1.41c0-.39-.12-.67-.35-.85-.24-.18-.51-.27-.82-.27h-.21v-3.7h6.76ZM76.55,60.03c0-.57.21-1.06.63-1.47.42-.41,1.02-.61,1.8-.61s1.4.2,1.83.61c.43.41.64.89.64,1.47s-.22,1.08-.64,1.48c-.43.4-1.04.6-1.83.6s-1.38-.2-1.8-.6c-.42-.4-.63-.9-.63-1.48Z" />
    <path class="cls-5"
      d="M98.27,75.3c0,1.13-.63,2-1.89,2.59-1.26.6-3.09.9-5.47.9-.86,0-1.71-.01-2.53-.04-.82-.03-1.55-.12-2.18-.26-.63-.15-1.14-.39-1.52-.71-.38-.33-.58-.79-.58-1.39,0-.48.15-.87.45-1.18.3-.31.62-.55.96-.73-.42-.26-.7-.55-.86-.87-.15-.32-.23-.67-.23-1.05,0-.45.16-.89.47-1.3.32-.42.77-.82,1.36-1.21-.58-.39-1.03-.87-1.34-1.44-.31-.57-.46-1.24-.46-2.02s.15-1.41.46-1.98c.3-.56.74-1.04,1.31-1.42.57-.38,1.25-.67,2.03-.87.79-.2,1.67-.3,2.65-.3,1.05,0,2,.12,2.85.35.85.23,1.57.59,2.16,1.06.12-.16.27-.32.47-.47.17-.12.38-.23.64-.33.26-.1.57-.15.95-.15h.89v3.7h-.64c-.28,0-.49.08-.63.23-.15.16-.23.31-.26.45-.23,1.4-.88,2.47-1.97,3.21-1.09.74-2.58,1.11-4.46,1.11-1.06,0-2.02-.12-2.87-.35-.14.09-.2.21-.2.35,0,.26.15.44.45.55.3.11.69.18,1.18.21.49.04,1.05.05,1.67.04.63,0,1.27,0,1.92.03.66.03,1.3.09,1.93.18.63.09,1.19.26,1.67.5.49.24.88.57,1.18.98.3.42.45.95.45,1.6ZM91.34,75.45c-.69,0-1.32-.02-1.88-.05-.56-.04-1.07-.09-1.52-.15-.06.11-.1.23-.1.35,0,.48.25.79.75.94.5.15,1.16.22,1.98.22,1.1,0,1.9-.07,2.4-.2.51-.14.76-.33.76-.57,0-.13-.07-.22-.22-.29-.15-.07-.34-.12-.57-.16-.24-.04-.5-.06-.78-.07-.28,0-.56-.01-.84-.01ZM89.55,66.6c0,.69.09,1.23.28,1.6.19.38.55.56,1.07.56s.9-.19,1.08-.56c.19-.38.28-.91.28-1.6s-.09-1.21-.28-1.57c-.19-.36-.55-.54-1.08-.54s-.89.18-1.07.54c-.19.36-.28.88-.28,1.57Z" />
    <path class="cls-5"
      d="M109.98,62.04c.85,0,1.54.13,2.08.39.53.26.95.59,1.25.98.3.4.51.83.62,1.29.11.46.16.9.16,1.3v2.8c0,.35.06.6.18.75.12.15.35.22.69.22h.52v3.7h-6.7v-6.38c0-.26-.03-.47-.09-.62-.06-.16-.14-.28-.23-.36-.09-.08-.2-.14-.31-.16-.12-.03-.23-.04-.34-.04-.42,0-.73.13-.94.38s-.31.61-.31,1.08v1.43c0,.35.06.6.18.75.12.15.35.22.69.22h.72v3.7h-8.28v-3.7h.57c.26,0,.47-.09.6-.26.14-.18.21-.39.21-.63l-.02-5.27c0-.39-.12-.67-.35-.85-.24-.18-.51-.27-.82-.27h-.19v-3.7h6.7v3.7c0,.13-.04.35-.12.66-.08.31-.22.63-.44.94l.19.1c.35-.65.82-1.17,1.4-1.56.59-.39,1.38-.58,2.38-.58Z" />
    <path class="cls-5"
      d="M122.85,58.79v3.7h2.89v3.7h-2.89v3.06c0,.44.06.8.18,1.08.12.28.37.42.74.42.21,0,.37-.04.5-.12.13-.08.23-.19.3-.33.07-.14.12-.29.14-.47.02-.18.03-.37.03-.57v-1.49h1.11v1.61c0,.65-.07,1.25-.2,1.81-.13.56-.36,1.04-.68,1.45-.32.41-.75.73-1.3.97-.55.24-1.24.36-2.07.36-.92,0-1.66-.12-2.21-.35-.55-.23-.96-.55-1.25-.96-.28-.41-.47-.89-.56-1.45-.09-.56-.13-1.17-.13-1.83v-3.18h-1.52v-3.29c.48,0,.93-.11,1.35-.32.42-.22.77-.52,1.07-.9.3-.38.53-.82.7-1.31.16-.49.25-1.02.25-1.58h3.54Z" />
    <path class="cls-3"
      d="M144.89,110.61c-.92,0-1.67-.74-1.67-1.66l-.06-11.03c0-.92.74-1.68,1.66-1.68h0c.92,0,1.67.74,1.67,1.66l.06,11.03c0,.92-.74,1.68-1.66,1.68h0Z" />
    <path class="cls-3"
      d="M150.07,105.1h-.01l-10.19-.08c-.92,0-1.67-.76-1.66-1.69,0-.92.75-1.66,1.67-1.66h.01l10.19.08c.92,0,1.67.76,1.66,1.69,0,.92-.75,1.66-1.67,1.66Z" />
    <path class="cls-5"
      d="M35.1,94.24c-.92,0-1.67-.74-1.67-1.66l-.06-11.03c0-.92.74-1.68,1.66-1.68h0c.92,0,1.67.74,1.67,1.66l.06,11.03c0,.92-.74,1.68-1.66,1.68h0Z" />
    <path class="cls-5"
      d="M40.28,88.74h-.01l-10.19-.08c-.92,0-1.67-.76-1.66-1.69,0-.92.75-1.66,1.67-1.66h.01l10.19.08c.92,0,1.67.76,1.66,1.69,0,.92-.76,1.66-1.67,1.66Z" />
    <path class="cls-3"
      d="M15.91,117.97c-.92,0-1.67-.74-1.67-1.66l-.06-11.03c0-.92.74-1.68,1.66-1.68h0c.92,0,1.67.74,1.67,1.66l.06,11.03c0,.92-.74,1.68-1.66,1.68h0Z" />
    <path class="cls-3"
      d="M21.09,112.47h-.01l-10.19-.08c-.92,0-1.67-.76-1.66-1.69,0-.92.76-1.66,1.67-1.66h.01l10.19.08c.92,0,1.67.76,1.66,1.69,0,.92-.76,1.66-1.67,1.66Z" />
    <path class="cls-3"
      d="M121.46,172.12c-.74,0-1.33-.59-1.34-1.33l-.03-6.5c0-.74.59-1.34,1.33-1.35h0c.74,0,1.33.59,1.34,1.33l.03,6.5c0,.74-.59,1.34-1.33,1.35h0Z" />
    <path class="cls-3"
      d="M124.51,168.88h-.01l-6-.05c-.74,0-1.33-.61-1.33-1.35,0-.74.6-1.33,1.34-1.33h.01l6,.05c.74,0,1.33.61,1.33,1.35,0,.74-.6,1.33-1.34,1.33Z" />
    <path class="cls-5"
      d="M134.85,53.7c-.74,0-1.33-.59-1.34-1.33l-.03-6.5c0-.74.59-1.34,1.33-1.35h0c.74,0,1.33.59,1.34,1.33l.03,6.5c0,.74-.59,1.34-1.33,1.35h0Z" />
    <path class="cls-5"
      d="M137.9,50.46h-.01l-6-.05c-.74,0-1.33-.61-1.33-1.35,0-.74.6-1.33,1.34-1.33h.01l6,.05c.74,0,1.33.61,1.33,1.35,0,.74-.6,1.33-1.34,1.33Z" />
    <path class="cls-5"
      d="M51.24,98.63c-.74,0-1.33-.59-1.34-1.33l-.03-6.5c0-.74.59-1.34,1.33-1.35h0c.74,0,1.33.59,1.34,1.33l.03,6.5c0,.74-.59,1.34-1.33,1.35h0Z" />
    <path class="cls-5"
      d="M54.29,95.39h-.01l-6-.05c-.74,0-1.33-.61-1.33-1.35,0-.74.66-1.32,1.35-1.33l6,.05c.74,0,1.33.61,1.33,1.35,0,.74-.6,1.33-1.34,1.33Z" />
    <path class="cls-3"
      d="M132.06,98.17c-.74,0-1.33-.59-1.34-1.33l-.03-5.22c0-.74.59-1.34,1.33-1.35h0c.74,0,1.33.59,1.34,1.33l.03,5.22c0,.74-.59,1.34-1.33,1.35h0Z" />
    <path class="cls-3"
      d="M134.51,95.56h-.01l-4.82-.04c-.74,0-1.33-.61-1.33-1.35,0-.74.58-1.36,1.35-1.33l4.82.04c.74,0,1.33.61,1.33,1.35,0,.74-.6,1.33-1.34,1.33Z" />
  </g>
</svg>