<?xml version="1.0" encoding="UTF-8"?>
<svg id="Capa_2" xmlns="http://www.w3.org/2000/svg" viewBox="0 0 232.5 178.03">
  <defs>
    <style>
      .cls-1 {
        fill: aqua;
      }

      .cls-2 {
        fill: #29abe2;
      }

      .cls-3 {
        fill: #fff;
      }

      .cls-4 {
        fill: #862291;
      }

      .cls-5 {
        fill: #1b1464;
      }

      .cls-6 {
        fill: #fcee21;
      }

      .cls-7 {
        fill: #ed1e79;
      }
    </style>
  </defs>
  <g id="_0">
    <path class="cls-3"
      d="M232.16,72.05l-3.65-10.19c-.51-1.43-1.51-2.53-2.9-3.19-.47-.22-.93-.38-1.38-.47.16-.7.11-1.43-.13-2.12l-18.28-51.01c-.34-.95-1.06-1.73-1.96-2.16-.78-.37-1.64-.46-2.48-.27-.13-.08-.27-.16-.41-.23-.44-.21-.91-.33-1.39-.36-.29-.28-.63-.51-1-.68-.52-.25-1.1-.38-1.65-.37-.28-.26-.6-.48-.96-.65-.92-.44-1.96-.49-2.92-.14l-10.54,3.78c-.74.26-1.36.74-1.81,1.36-.74-.2-1.52-.16-2.26.1l-11.12,3.98c-.59.21-1.11.56-1.52,1.01-.61-.09-1.23-.02-1.82.19l-21.09,7.56c-.37.13-.71.32-1.02.55-.39.02-.77.09-1.13.22l-10.97,3.93c-.74.27-1.38.76-1.83,1.4-.76-.21-1.55-.18-2.31.09l-9.46,3.39c-.15-.09-.3-.17-.43-.24-6.22-3.85-13.39-5.8-20.67-5.64h-.36c-1.94.05-3.54,1.54-3.72,3.47l-.22,2.36c-1.47.04-2.89.15-4.24.33-13.87,1.9-25.41,11.13-30.3,24.17-2.68-1.01-5.81-.89-9.3.36l-15.99,5.73c-1.98.71-3.02,2.9-2.31,4.88v.02c-3.3-1.52-7.32-1.45-11.93.2l-14.17,5.08c-1.98.71-3.02,2.9-2.31,4.88l18.52,51.69c.27.76.76,1.39,1.41,1.84-.15.96-.05,1.95.29,2.89l14.51,40.51c.57,1.59,1.71,2.82,3.21,3.47.53.23,1.07.38,1.62.45.47.42.99.75,1.57,1,.75.32,1.5.49,2.24.5.29.19.6.36.93.5.06.02.11.05.17.07.51.54,1.11.96,1.79,1.25.73.31,1.48.47,2.25.47.65,0,1.3-.11,1.92-.34l13.04-4.67c1.43-.51,2.53-1.52,3.18-2.9s.73-2.87.22-4.3l-1.05-2.93c.26.17.53.33.82.46.57.27,1.17.45,1.78.54.42.37.89.67,1.42.92.8.38,1.61.57,2.42.59.24.16.49.3.75.42.28.13.57.24.86.33.4.36.86.66,1.37.9,1.39.65,2.87.73,4.3.22l53.56-19.19c2.86-1.02,4.54-3.48,4.61-6.77v-2.3s7.15-2.56,7.15-2.56c1.14.84,2.43,1.31,3.77,1.39.92.55,1.9.88,2.94.98,1.78,1.07,3.84,1.27,5.83.56l17.55-6.29c1.43-.51,2.53-1.52,3.19-2.9.65-1.39.73-2.87.22-4.3l-.17-.47c.87.47,1.83.75,2.83.81,1.05.65,2.22.99,3.47,1.01,1.71.96,3.73,1.1,5.72.39l14.36-5.15c1.21-.43,2.2-1.27,2.82-2.38,1.24.45,2.54.45,3.8,0l13.03-4.67c1.43-.51,2.53-1.51,3.19-2.9.65-1.38.73-2.87.22-4.3l-9.1-25.39,10.01-3.59c1.43-.51,2.53-1.52,3.19-2.9.65-1.38.73-2.87.22-4.3Z" />
    <path class="cls-4"
      d="M92.67,68.73l3.1-33.17h-.45c-1.36.04-2.69.14-3.94.31-18.61,2.55-31.68,19.76-29.13,38.37,2.2,16.1,15.56,28.46,31.76,29.39l.34.02,8.9-42.53-10.57,7.61Z" />
    <path class="cls-4"
      d="M99.48,29.74h-.36s-3.25,34.83-3.25,34.83l10.33-7.43-8.5,40.63.46.03c2.21.13,4.44.04,6.61-.26,18.61-2.55,31.68-19.76,29.13-38.37-2.35-17.14-17.15-29.8-34.43-29.43Z" />
    <path class="cls-4"
      d="M30.67,125.4l-18.28-51.01,13.82-4.95c3.71-1.33,6.73-1.39,9.07-.19,2.34,1.2,4.25,3.88,5.74,8.03l.8,2.23c.86,2.4,1.12,4.49.8,6.29-.33,1.8-1.29,3.24-2.88,4.33,2.51-.24,4.53.56,6.08,2.41,1.55,1.86,2.87,4.32,3.97,7.39,1.18,3.3,1.91,6.3,2.18,9,.27,2.69-.16,5.02-1.3,6.97-1.13,1.95-3.19,3.47-6.19,4.54l-13.82,4.95ZM29.25,90.03l2.09-.75c.95-.34,1.42-.92,1.43-1.76,0-.83-.17-1.76-.54-2.78l-1.84-5.13c-.59-1.64-1.61-2.2-3.06-1.68l-2.14.77,4.06,11.33ZM38.43,112.48c2.65-.95,3.52-2.68,2.62-5.19l-2.28-6.38c-.52-1.45-1.15-2.52-1.88-3.2-.74-.68-1.7-.81-2.9-.38l-1.88.67,5.3,14.78c.44-.11.78-.22,1.04-.31Z" />
    <path class="cls-4"
      d="M59.07,115.22l-18.28-51.01,15.65-5.61c2.61-.93,4.79-1.05,6.55-.34,1.76.71,3.25,2.05,4.47,4.02,1.22,1.97,2.34,4.4,3.38,7.28,1,2.78,1.44,5.13,1.33,7.04-.11,1.91-1.03,3.54-2.75,4.88,1.72-.25,3.13.15,4.23,1.18,1.1,1.03,2.01,2.56,2.73,4.56l6.92,19.3-10.06,3.6-7.16-19.97c-.53-1.49-1.17-2.3-1.9-2.44-.74-.14-1.78.03-3.13.52l8.34,23.27-10.32,3.7ZM57.94,79.39l2.46-.88c1.41-.51,1.57-2.29.46-5.37-.71-1.99-1.34-3.24-1.87-3.75-.53-.51-1.22-.61-2.07-.3l-2.38.85,3.39,9.45Z" />
    <path class="cls-4"
      d="M143,85.14l-18.28-51.01,10.09-3.61,7.32,20.43-2.57-22.13,10.26-3.68,2.66,25.41,16.8,25.18-10.58,3.79-14.41-22.7,8.85,24.69-10.14,3.63Z" />
    <path class="cls-4"
      d="M171.03,75.1l-18.28-51.01,20.4-7.31,3.53,9.85-10.03,3.59,3.56,9.94,9.62-3.45,3.44,9.59-9.62,3.45,4.19,11.68,10.69-3.83,3.56,9.94-21.07,7.55Z" />
    <path class="cls-4"
      d="M195.46,66.35l-18.28-51.01,10.49-3.76,13.45,22.75-8.75-24.43,9.85-3.53,18.28,51.01-9.97,3.57-14.24-23.68,9.14,25.5-9.97,3.57Z" />
    <path class="cls-4"
      d="M30.67,125.4l-18.28-51.01,13.82-4.95c3.71-1.33,6.73-1.39,9.07-.19,2.34,1.2,4.25,3.88,5.74,8.03l.8,2.23c.86,2.4,1.12,4.49.8,6.29-.33,1.8-1.29,3.24-2.88,4.33,2.51-.24,4.53.56,6.08,2.41,1.55,1.86,2.87,4.32,3.97,7.39,1.18,3.3,1.91,6.3,2.18,9,.27,2.69-.16,5.02-1.3,6.97-1.13,1.95-3.19,3.47-6.19,4.54l-13.82,4.95ZM29.25,90.03l2.09-.75c.95-.34,1.42-.92,1.43-1.76,0-.83-.17-1.76-.54-2.78l-1.84-5.13c-.59-1.64-1.61-2.2-3.06-1.68l-2.14.77,4.06,11.33ZM38.43,112.48c2.65-.95,3.52-2.68,2.62-5.19l-2.28-6.38c-.52-1.45-1.15-2.52-1.88-3.2-.74-.68-1.7-.81-2.9-.38l-1.88.67,5.3,14.78c.44-.11.78-.22,1.04-.31Z" />
    <path class="cls-4"
      d="M59.07,115.22l-18.28-51.01,15.65-5.61c2.61-.93,4.79-1.05,6.55-.34,1.76.71,3.25,2.05,4.47,4.02,1.22,1.97,2.34,4.4,3.38,7.28,1,2.78,1.44,5.13,1.33,7.04-.11,1.91-1.03,3.54-2.75,4.88,1.72-.25,3.13.15,4.23,1.18,1.1,1.03,2.01,2.56,2.73,4.56l6.92,19.3-10.06,3.6-7.16-19.97c-.53-1.49-1.17-2.3-1.9-2.44-.74-.14-1.78.03-3.13.52l8.34,23.27-10.32,3.7ZM57.94,79.39l2.46-.88c1.41-.51,1.57-2.29.46-5.37-.71-1.99-1.34-3.24-1.87-3.75-.53-.51-1.22-.61-2.07-.3l-2.38.85,3.39,9.45Z" />
    <path class="cls-4"
      d="M143,85.14l-18.28-51.01,10.09-3.61,7.32,20.43-2.57-22.13,10.26-3.68,2.66,25.41,16.8,25.18-10.58,3.79-14.41-22.7,8.85,24.69-10.14,3.63Z" />
    <path class="cls-4"
      d="M171.03,75.1l-18.28-51.01,20.4-7.31,3.53,9.85-10.03,3.59,3.56,9.94,9.62-3.45,3.44,9.59-9.62,3.45,4.19,11.68,10.69-3.83,3.56,9.94-21.07,7.55Z" />
    <path class="cls-4"
      d="M195.46,66.35l-18.28-51.01,10.49-3.76,13.45,22.75-8.75-24.43,9.85-3.53,18.28,51.01-9.97,3.57-14.24-23.68,9.14,25.5-9.97,3.57Z" />
    <path class="cls-7"
      d="M27.57,125.37l-18.28-51.01,13.82-4.95c3.71-1.33,6.73-1.39,9.07-.19,2.34,1.2,4.25,3.88,5.74,8.03l.8,2.23c.86,2.4,1.12,4.49.8,6.29-.33,1.8-1.29,3.24-2.88,4.33,2.51-.24,4.53.56,6.08,2.41,1.55,1.86,2.87,4.32,3.97,7.39,1.18,3.3,1.91,6.3,2.18,9,.27,2.69-.16,5.02-1.3,6.97-1.13,1.95-3.19,3.47-6.19,4.54l-13.82,4.95ZM26.14,90l2.09-.75c.95-.34,1.42-.92,1.43-1.76,0-.83-.17-1.76-.54-2.78l-1.84-5.13c-.59-1.64-1.61-2.2-3.06-1.68l-2.14.77,4.06,11.33ZM35.33,112.45c2.65-.95,3.52-2.68,2.62-5.19l-2.28-6.38c-.52-1.45-1.15-2.52-1.88-3.2-.74-.68-1.7-.81-2.9-.38l-1.88.67,5.3,14.78c.44-.11.78-.22,1.04-.31Z" />
    <path class="cls-7"
      d="M55.97,115.19l-18.28-51.01,15.65-5.61c2.61-.93,4.79-1.05,6.55-.34,1.76.71,3.25,2.05,4.47,4.02,1.22,1.97,2.34,4.4,3.38,7.28,1,2.78,1.44,5.13,1.33,7.04-.11,1.91-1.03,3.54-2.75,4.88,1.72-.25,3.13.15,4.23,1.18,1.1,1.03,2.01,2.56,2.73,4.56l6.92,19.3-10.06,3.6-7.16-19.97c-.53-1.49-1.17-2.3-1.9-2.44-.74-.14-1.78.03-3.13.52l8.34,23.27-10.32,3.7ZM54.84,79.36l2.46-.88c1.41-.51,1.57-2.29.46-5.37-.71-1.99-1.34-3.24-1.87-3.75-.53-.51-1.22-.61-2.07-.3l-2.38.85,3.39,9.45Z" />
    <path class="cls-7"
      d="M139.9,85.11l-18.28-51.01,10.09-3.61,7.32,20.43-2.57-22.13,10.26-3.68,2.66,25.41,16.8,25.18-10.58,3.79-14.41-22.7,8.85,24.69-10.14,3.63Z" />
    <path class="cls-7"
      d="M167.92,75.07l-18.28-51.01,20.4-7.31,3.53,9.85-10.03,3.59,3.56,9.94,9.62-3.45,3.44,9.59-9.62,3.45,4.19,11.68,10.69-3.83,3.56,9.94-21.07,7.55Z" />
    <path class="cls-7"
      d="M192.36,66.32l-18.28-51.01,10.49-3.76,13.45,22.75-8.75-24.43,9.85-3.53,18.28,51.01-9.97,3.57-14.24-23.68,9.14,25.5-9.97,3.57Z" />
    <path class="cls-5"
      d="M27.35,125.83l-18.52-51.69,14.17-5.08c3.79-1.36,6.94-1.42,9.36-.18,2.41,1.24,4.4,4.01,5.92,8.23l.8,2.23c.88,2.45,1.15,4.62.81,6.48-.28,1.52-1,2.82-2.14,3.87,2.12.06,3.88.93,5.27,2.58,1.57,1.88,2.93,4.4,4.04,7.5,1.19,3.32,1.93,6.37,2.2,9.08.27,2.76-.18,5.18-1.34,7.19-1.17,2.02-3.32,3.6-6.38,4.7l-14.17,5.08ZM9.75,74.58l18.03,50.32,13.48-4.83c2.9-1.04,4.92-2.51,6-4.38,1.09-1.88,1.51-4.15,1.25-6.75-.26-2.65-.99-5.65-2.16-8.91-1.08-3.02-2.4-5.47-3.91-7.28-1.48-1.77-3.37-2.53-5.77-2.29l-1.4.14,1.16-.8c1.52-1.05,2.41-2.39,2.73-4.1.31-1.72.05-3.78-.78-6.1l-.8-2.23c-1.45-4.04-3.32-6.68-5.56-7.83-2.23-1.15-5.19-1.08-8.78.21l-13.48,4.83ZM34.06,113.19l-5.53-15.44,2.23-.8c1.33-.48,2.43-.32,3.27.46.78.72,1.44,1.85,1.98,3.34l2.28,6.38c.48,1.35.48,2.51,0,3.47-.48.95-1.43,1.68-2.84,2.19h0c-.26.09-.62.2-1.07.32l-.32.08ZM29.46,98.19l5.06,14.12c.28-.08.51-.15.68-.21h0c1.23-.44,2.05-1.06,2.44-1.83.39-.77.38-1.74-.04-2.89l-2.28-6.38c-.5-1.39-1.1-2.42-1.79-3.06-.63-.59-1.46-.69-2.53-.31l-1.54.55ZM25.92,90.47l-4.31-12.02,2.49-.89c.82-.29,1.55-.28,2.15.06.59.32,1.05.95,1.37,1.85l1.84,5.13c.38,1.06.57,2.04.56,2.91,0,.68-.3,1.6-1.67,2.09l-2.43.87ZM22.55,78.89l3.82,10.65,1.74-.62c.81-.29,1.18-.74,1.19-1.42,0-.78-.17-1.68-.52-2.66l-1.84-5.13c-.26-.73-.61-1.22-1.04-1.46-.42-.23-.93-.23-1.55,0l-1.8.65Z" />
    <path class="cls-5"
      d="M55.75,115.65l-18.52-51.69,15.99-5.73c2.68-.96,4.97-1.07,6.81-.33,1.82.74,3.38,2.14,4.64,4.17,1.23,1.99,2.37,4.46,3.41,7.35,1.01,2.82,1.46,5.23,1.35,7.19-.1,1.68-.79,3.17-2.06,4.42,1.35.02,2.5.47,3.43,1.35,1.14,1.07,2.09,2.65,2.82,4.71l7.04,19.64-10.74,3.85-7.28-20.31c-.48-1.33-1.04-2.09-1.63-2.21-.61-.11-1.48.01-2.6.38l8.34,23.27-11,3.94ZM38.16,64.4l18.03,50.32,9.63-3.45-8.34-23.27.34-.12c1.43-.51,2.52-.69,3.32-.53.88.17,1.59,1.04,2.18,2.67l7.03,19.63,9.37-3.36-6.79-18.96c-.7-1.94-1.58-3.43-2.64-4.42-1.03-.96-2.31-1.32-3.93-1.09l-1.36.19,1.08-.84c1.65-1.28,2.5-2.79,2.61-4.61.11-1.86-.33-4.18-1.31-6.9-1.02-2.84-2.14-5.27-3.34-7.21-1.17-1.9-2.62-3.2-4.29-3.88-1.66-.67-3.78-.56-6.29.34l-15.31,5.48ZM54.62,79.82l-3.63-10.13,2.72-.97c.99-.35,1.81-.22,2.45.38.58.55,1.22,1.82,1.96,3.89.57,1.6.81,2.84.73,3.8-.11,1.3-.83,1.82-1.41,2.03l-2.81,1.01ZM51.92,70.13l3.14,8.76,2.12-.76c.57-.2.87-.65.93-1.41.07-.84-.16-2.01-.69-3.49-.86-2.4-1.44-3.29-1.77-3.61-.43-.41-.98-.48-1.7-.23l-2.03.73Z" />
    <path class="cls-5"
      d="M139.68,85.58l-18.52-51.69,10.77-3.86,6.38,17.79-2.24-19.28,10.97-3.93,2.7,25.78,17.01,25.49-11.29,4.05-12.82-20.19,7.87,21.96-10.83,3.88ZM122.09,34.33l18.03,50.32,9.46-3.39-9.83-27.43,16.01,25.21,9.87-3.54-16.6-24.86v-.09s-2.62-24.94-2.62-24.94l-9.55,3.42,2.9,25-8.27-23.07-9.4,3.37Z" />
    <path class="cls-5"
      d="M167.7,75.54l-18.52-51.69,21.09-7.56,3.78,10.54-10.03,3.59,3.32,9.26,9.62-3.45,3.68,10.28-9.62,3.45,3.94,10.99,10.69-3.83,3.81,10.63-21.75,7.8ZM150.11,24.28l18.03,50.32,20.39-7.3-3.32-9.26-10.69,3.83-4.43-12.36,9.62-3.45-3.19-8.91-9.62,3.45-3.81-10.62,10.03-3.59-3.29-9.17-19.72,7.07Z" />
    <path class="cls-5"
      d="M192.14,66.78l-18.52-51.69,11.12-3.98,11.66,19.72-7.59-21.18,10.54-3.78,18.52,51.69-10.59,3.8-12.5-20.78,8.02,22.39-10.65,3.82ZM174.54,15.53l18.03,50.32,9.29-3.33-9.02-25.16.65-.31,14.09,23.42,9.35-3.35-18.03-50.32-9.17,3.28,8.63,24.09-.66.31-13.3-22.49-9.87,3.53Z" />
    <path class="cls-7"
      d="M91.1,67.66l3.1-33.17h-.45c-1.36.04-2.69.14-3.94.31-18.61,2.55-31.68,19.76-29.13,38.37,2.2,16.1,15.56,28.46,31.76,29.39l.34.02,8.9-42.53-10.57,7.61Z" />
    <path class="cls-7"
      d="M97.9,28.68h-.36s-3.25,34.83-3.25,34.83l10.33-7.43-8.5,40.63.46.03c2.21.13,4.44.04,6.61-.26,18.61-2.55,31.68-19.76,29.13-38.37-2.35-17.14-17.15-29.8-34.43-29.43Z" />
    <path class="cls-5"
      d="M93.06,102.97l-.66-.04c-16.37-.94-29.87-13.43-32.1-29.7-1.24-9.1,1.14-18.14,6.7-25.48,5.57-7.33,13.64-12.06,22.74-13.3,1.27-.17,2.61-.28,3.98-.31l.86-.02-3.06,32.78,10.68-7.69-9.16,43.75ZM93.79,34.87h-.04c-1.35.03-2.66.13-3.9.3-8.9,1.22-16.81,5.84-22.26,13.02-5.45,7.18-7.78,16.03-6.56,24.94,2.18,15.92,15.39,28.15,31.42,29.07h.03s8.65-41.3,8.65-41.3l-10.46,7.53,3.13-33.56Z" />
    <path class="cls-5"
      d="M98.57,97.16c-.67,0-1.34-.02-2.01-.06l-.88-.05,8.4-40.13-10.22,7.35,3.35-35.94h.68c.24-.02.49-.02.73-.02,17.15,0,31.72,12.67,34.06,29.76,1.24,9.1-1.14,18.14-6.7,25.48-5.57,7.33-13.64,12.06-22.74,13.3-1.54.21-3.1.32-4.67.32ZM96.56,96.37h.04c2.19.13,4.39.04,6.54-.25,8.9-1.22,16.81-5.84,22.26-13.02,5.45-7.18,7.78-16.03,6.56-24.94-2.32-16.96-16.96-29.47-34.06-29.12h-.03s-3.15,33.7-3.15,33.7l10.44-7.51-8.61,41.14Z" />
    <path class="cls-2"
      d="M25.17,124.33L6.9,73.32l13.82-4.95c3.71-1.33,6.73-1.39,9.07-.19,2.34,1.2,4.25,3.88,5.74,8.03l.8,2.23c.86,2.4,1.12,4.49.8,6.29-.33,1.8-1.29,3.24-2.88,4.33,2.51-.24,4.53.56,6.08,2.42,1.55,1.86,2.87,4.32,3.97,7.39,1.18,3.3,1.91,6.3,2.18,9,.27,2.69-.16,5.02-1.3,6.97-1.13,1.95-3.19,3.47-6.19,4.54l-13.82,4.95ZM23.75,88.96l2.09-.75c.95-.34,1.42-.92,1.43-1.76,0-.83-.17-1.76-.54-2.78l-1.84-5.13c-.59-1.64-1.61-2.2-3.06-1.68l-2.14.77,4.06,11.33ZM32.94,111.41c2.65-.95,3.52-2.68,2.62-5.19l-2.28-6.38c-.52-1.45-1.15-2.52-1.88-3.2-.74-.68-1.7-.81-2.9-.38l-1.88.67,5.3,14.78c.44-.11.78-.22,1.04-.31Z" />
    <path class="cls-2"
      d="M53.58,114.15l-18.28-51.01,15.65-5.61c2.61-.93,4.79-1.05,6.55-.34,1.76.71,3.25,2.05,4.47,4.02,1.22,1.97,2.34,4.4,3.38,7.28,1,2.78,1.44,5.13,1.33,7.04-.11,1.91-1.03,3.54-2.75,4.88,1.72-.25,3.13.15,4.23,1.18,1.1,1.03,2.01,2.56,2.73,4.56l6.92,19.3-10.06,3.6-7.16-19.97c-.53-1.49-1.17-2.3-1.9-2.44-.74-.14-1.78.03-3.13.52l8.34,23.27-10.32,3.7ZM52.44,78.32l2.46-.88c1.41-.51,1.57-2.29.46-5.37-.71-1.99-1.34-3.24-1.87-3.75-.53-.51-1.22-.61-2.07-.3l-2.38.85,3.39,9.45Z" />
    <path class="cls-2"
      d="M137.51,84.07l-18.28-51.01,10.09-3.61,7.32,20.43-2.57-22.13,10.26-3.68,2.66,25.41,16.8,25.18-10.58,3.79-14.41-22.7,8.85,24.69-10.14,3.63Z" />
    <path class="cls-2"
      d="M165.53,74.03l-18.28-51.01,20.4-7.31,3.53,9.85-10.03,3.59,3.56,9.94,9.62-3.45,3.44,9.59-9.62,3.45,4.19,11.68,10.69-3.83,3.56,9.94-21.07,7.55Z" />
    <path class="cls-2"
      d="M189.96,65.28l-18.28-51.01,10.49-3.76,13.45,22.75-8.75-24.43,9.85-3.53,18.28,51.01-9.97,3.57-14.24-23.68,9.14,25.5-9.97,3.57Z" />
    <path class="cls-5"
      d="M24.95,124.79L6.43,73.1l14.17-5.08c3.79-1.36,6.94-1.42,9.36-.17,2.41,1.24,4.4,4.01,5.92,8.23l.8,2.23c.88,2.45,1.15,4.62.81,6.48-.28,1.52-1,2.82-2.14,3.87,2.12.06,3.88.93,5.27,2.58,1.57,1.88,2.93,4.4,4.04,7.5,1.19,3.32,1.93,6.37,2.2,9.08.27,2.76-.18,5.18-1.34,7.19-1.17,2.02-3.32,3.6-6.38,4.7l-14.17,5.08ZM7.36,73.54l18.03,50.32,13.48-4.83c2.9-1.04,4.92-2.51,6-4.38,1.09-1.88,1.51-4.15,1.25-6.75-.26-2.65-.99-5.65-2.16-8.91-1.08-3.02-2.4-5.47-3.91-7.28-1.48-1.77-3.37-2.52-5.77-2.29l-1.4.14,1.16-.8c1.52-1.05,2.41-2.39,2.73-4.1.31-1.72.05-3.78-.78-6.1l-.8-2.23c-1.45-4.05-3.32-6.68-5.56-7.83-2.23-1.15-5.19-1.08-8.78.21l-13.48,4.83ZM31.67,112.15l-5.53-15.44,2.23-.8c1.33-.48,2.43-.32,3.27.46.78.72,1.44,1.85,1.98,3.34l2.28,6.38c.48,1.35.48,2.51,0,3.47-.48.95-1.43,1.68-2.84,2.19h0c-.26.09-.62.2-1.07.32l-.32.08ZM27.07,97.15l5.06,14.12c.28-.08.51-.15.68-.21h0c1.23-.44,2.05-1.06,2.44-1.83.39-.77.38-1.74-.04-2.89l-2.28-6.38c-.5-1.39-1.1-2.42-1.79-3.06-.63-.59-1.46-.69-2.53-.31l-1.54.55ZM23.53,89.43l-4.31-12.02,2.49-.89c1.15-.41,2.69-.42,3.52,1.9l1.84,5.13c.38,1.06.57,2.04.56,2.91,0,.68-.3,1.6-1.67,2.09l-2.43.87ZM20.15,77.85l3.82,10.65,1.74-.62c.81-.29,1.18-.74,1.19-1.42,0-.78-.17-1.68-.52-2.66l-1.84-5.13c-.52-1.45-1.34-1.91-2.59-1.46l-1.8.65Z" />
    <path class="cls-5"
      d="M53.36,114.61l-18.52-51.69,15.99-5.73c2.68-.96,4.97-1.07,6.81-.33,1.82.74,3.39,2.14,4.64,4.17,1.23,1.99,2.37,4.46,3.41,7.35,1.01,2.82,1.46,5.23,1.35,7.19-.1,1.68-.79,3.17-2.06,4.42,1.35.02,2.5.47,3.43,1.35,1.14,1.07,2.09,2.65,2.82,4.71l7.04,19.64-10.74,3.85-7.28-20.31c-.48-1.33-1.04-2.09-1.63-2.21-.61-.12-1.48.01-2.6.38l8.34,23.27-11,3.94ZM35.76,63.36l18.03,50.32,9.63-3.45-8.34-23.27.34-.12c1.43-.51,2.52-.68,3.32-.53.88.17,1.59,1.04,2.18,2.67l7.03,19.63,9.37-3.36-6.79-18.96c-.7-1.94-1.58-3.43-2.64-4.42-1.03-.96-2.31-1.32-3.93-1.09l-1.36.19,1.08-.84c1.65-1.28,2.5-2.79,2.61-4.61.11-1.86-.33-4.18-1.31-6.9-1.02-2.84-2.14-5.27-3.34-7.21-1.17-1.9-2.62-3.2-4.29-3.88-1.67-.67-3.78-.56-6.29.34l-15.31,5.48ZM52.22,78.78l-3.63-10.13,2.72-.97c.99-.35,1.81-.22,2.44.38.58.55,1.22,1.82,1.96,3.89,1.18,3.28.95,5.25-.68,5.83l-2.81,1.01ZM49.52,69.09l3.14,8.76,2.12-.76c1.18-.42,1.26-2.07.24-4.9-.86-2.4-1.44-3.29-1.77-3.61-.43-.41-.98-.48-1.7-.23l-2.03.73Z" />
    <path class="cls-5"
      d="M137.29,84.54l-18.52-51.69,10.77-3.86,6.38,17.79-2.24-19.28,10.97-3.93,2.7,25.78,17.01,25.49-11.29,4.05-12.82-20.19,7.87,21.96-10.83,3.88ZM119.69,33.29l18.03,50.32,9.46-3.39-9.83-27.43,16.01,25.21,9.87-3.54-16.6-24.86v-.09s-2.62-24.94-2.62-24.94l-9.55,3.42,2.9,24.99-8.27-23.07-9.4,3.37Z" />
    <path class="cls-5"
      d="M165.31,74.5l-18.52-51.69,21.09-7.56,3.78,10.54-10.03,3.59,3.32,9.26,9.62-3.45,3.68,10.28-9.62,3.45,3.94,10.99,10.69-3.83,3.81,10.63-21.75,7.8ZM147.72,23.24l18.03,50.32,20.39-7.3-3.32-9.26-10.69,3.83-4.43-12.36,9.62-3.45-3.19-8.91-9.62,3.45-3.81-10.62,10.03-3.59-3.29-9.17-19.72,7.07Z" />
    <path class="cls-5"
      d="M189.74,65.74l-18.52-51.69,11.12-3.98,11.66,19.72-7.59-21.18,10.54-3.78,18.52,51.69-10.59,3.8-12.5-20.78,8.02,22.39-10.65,3.82ZM172.15,14.49l18.03,50.32,9.29-3.33-9.02-25.16.65-.31,14.09,23.42,9.35-3.35-18.03-50.32-9.17,3.29,8.63,24.09-.66.31-13.3-22.49-9.87,3.53Z" />
    <path class="cls-2"
      d="M89.81,65.98l3.1-33.17h-.45c-1.36.04-2.69.14-3.94.31-18.61,2.55-31.68,19.76-29.13,38.37,2.2,16.1,15.56,28.46,31.76,29.39l.34.02,8.9-42.53-10.57,7.61Z" />
    <path class="cls-2"
      d="M96.62,26.99h-.36s-3.25,34.83-3.25,34.83l10.33-7.43-8.5,40.63.46.03c2.21.13,4.44.04,6.61-.26,18.61-2.55,31.68-19.76,29.13-38.37-2.35-17.14-17.15-29.8-34.43-29.43Z" />
    <path class="cls-5"
      d="M91.78,101.28l-.66-.04c-16.37-.94-29.87-13.43-32.1-29.7-1.24-9.1,1.14-18.14,6.7-25.48,5.57-7.33,13.64-12.06,22.74-13.3,1.27-.17,2.61-.28,3.98-.31l.86-.02-3.06,32.78,10.69-7.69-9.16,43.75ZM92.51,33.18h-.04c-1.35.03-2.66.13-3.9.3-8.9,1.22-16.81,5.84-22.26,13.02-5.45,7.18-7.78,16.03-6.56,24.94,2.18,15.92,15.39,28.15,31.42,29.07h.03s8.65-41.3,8.65-41.3l-10.46,7.53,3.13-33.56Z" />
    <path class="cls-5"
      d="M97.29,95.47c-.67,0-1.34-.02-2.01-.06l-.88-.05,8.4-40.13-10.22,7.35,3.35-35.94h.68c.24-.02.49-.02.73-.02,17.15,0,31.72,12.67,34.06,29.76,2.57,18.81-10.63,36.2-29.44,38.78-1.54.21-3.1.32-4.67.32ZM95.28,94.68h.04c2.19.13,4.39.04,6.54-.25,18.41-2.52,31.34-19.55,28.82-37.96-2.32-16.96-16.96-29.49-34.06-29.12h-.03s-3.15,33.7-3.15,33.7l10.44-7.51-8.61,41.14Z" />
    <path class="cls-6"
      d="M22.56,123.32L4.28,72.31l13.82-4.95c3.71-1.33,6.73-1.39,9.07-.19,2.34,1.2,4.25,3.88,5.74,8.03l.8,2.23c.86,2.4,1.12,4.49.8,6.29-.33,1.8-1.29,3.24-2.88,4.33,2.51-.24,4.53.56,6.08,2.42,1.55,1.86,2.87,4.32,3.97,7.39,1.18,3.3,1.91,6.3,2.18,9,.27,2.69-.16,5.02-1.3,6.97-1.13,1.95-3.19,3.47-6.19,4.54l-13.82,4.95ZM21.14,87.95l2.09-.75c.95-.34,1.42-.92,1.43-1.76,0-.83-.17-1.76-.54-2.78l-1.84-5.13c-.59-1.64-1.61-2.2-3.06-1.68l-2.14.77,4.06,11.33ZM30.33,110.4c2.65-.95,3.52-2.68,2.62-5.19l-2.28-6.38c-.52-1.45-1.15-2.52-1.88-3.2-.74-.68-1.7-.81-2.9-.38l-1.88.67,5.3,14.78c.44-.11.78-.22,1.04-.31Z" />
    <path class="cls-3"
      d="M7.64,74.24s7.78-4.81,12.53-7.5c-.67.16-1.35.36-2.07.62l-13.82,4.95,18.28,51.01.54-.19c-3.96-16.15-15.45-48.88-15.45-48.88Z" />
    <path class="cls-6"
      d="M50.96,113.14l-18.28-51.01,15.65-5.61c2.61-.93,4.79-1.05,6.55-.34,1.76.71,3.25,2.05,4.47,4.02,1.22,1.97,2.34,4.4,3.38,7.28,1,2.78,1.44,5.13,1.33,7.04-.11,1.91-1.03,3.54-2.75,4.88,1.72-.25,3.13.15,4.23,1.18,1.1,1.03,2.01,2.56,2.73,4.56l6.92,19.3-10.06,3.6-7.16-19.97c-.53-1.49-1.17-2.3-1.9-2.44-.74-.14-1.78.03-3.13.52l8.34,23.27-10.32,3.7ZM49.83,77.31l2.46-.88c1.41-.51,1.57-2.29.46-5.37-.71-1.99-1.34-3.24-1.87-3.75-.53-.51-1.22-.61-2.07-.3l-2.38.85,3.39,9.45Z" />
    <path class="cls-3"
      d="M48.34,56.52l-15.65,5.61,16.56,46.2-13.94-45.19c4.7-3.13,11.87-4.21,16.73-7.4-1.12.05-2.35.3-3.69.79Z" />
    <path class="cls-6"
      d="M134.89,83.06l-18.28-51.01,10.09-3.61,7.32,20.43-2.57-22.14,10.26-3.68,2.66,25.41,16.8,25.18-10.58,3.79-14.41-22.7,8.85,24.69-10.14,3.63Z" />
    <polygon class="cls-3" points="141.71 23.06 131.46 26.74 131.69 28.76 141.93 25.09 141.71 23.06" />
    <polygon class="cls-3"
      points="120.14 33.75 121.1 33.29 120.7 31.51 121.1 33.29 127.35 30.24 126.7 28.44 116.62 32.06 127.81 63.31 121.1 33.29 120.14 33.75" />
    <path class="cls-6"
      d="M162.92,73.02l-18.28-51.01,20.4-7.31,3.53,9.85-10.03,3.59,3.56,9.94,9.62-3.45,3.44,9.59-9.62,3.45,4.19,11.68,10.69-3.83,3.56,9.94-21.07,7.55Z" />
    <polygon class="cls-3"
      points="144.64 22.01 162.92 73.02 162.96 73.01 148.94 25.5 165.74 16.64 165.04 14.7 144.64 22.01" />
    <path class="cls-6"
      d="M187.35,64.27l-18.28-51.01,10.49-3.76,13.45,22.75-8.75-24.43,9.85-3.53,18.28,51.01-9.97,3.57-14.24-23.68,9.14,25.5-9.97,3.57Z" />
    <polygon class="cls-3"
      points="179.56 9.5 169.07 13.26 187.35 64.27 187.51 64.21 172.35 14.46 180.32 10.78 179.56 9.5" />
    <polygon class="cls-3" points="194.11 4.29 184.26 7.82 184.96 9.77 194.69 5.9 194.11 4.29" />
    <path class="cls-5"
      d="M22.34,123.78L3.82,72.09l14.17-5.08c3.79-1.36,6.94-1.42,9.36-.17,2.41,1.24,4.4,4.01,5.92,8.23l.8,2.23c.88,2.45,1.15,4.62.81,6.48-.28,1.52-1,2.82-2.14,3.87,2.12.06,3.88.93,5.27,2.58,1.57,1.88,2.93,4.4,4.04,7.5,1.19,3.32,1.93,6.37,2.2,9.08.27,2.76-.18,5.18-1.34,7.19-1.17,2.02-3.32,3.6-6.38,4.7l-14.17,5.08ZM4.75,72.53l18.03,50.32,13.48-4.83c2.9-1.04,4.92-2.51,6-4.38,1.09-1.88,1.51-4.15,1.25-6.75-.26-2.65-.99-5.65-2.16-8.91-1.08-3.02-2.4-5.47-3.91-7.28-1.48-1.77-3.37-2.52-5.77-2.29l-1.4.14,1.16-.8c1.5-1.03,2.42-2.41,2.73-4.1.31-1.72.05-3.78-.78-6.1l-.8-2.23c-1.45-4.05-3.32-6.68-5.56-7.83-2.23-1.15-5.19-1.08-8.78.21l-13.48,4.83ZM29.06,111.14l-5.53-15.43,2.23-.8c1.33-.48,2.43-.32,3.27.46.78.72,1.44,1.85,1.98,3.34l2.28,6.38c.96,2.69-.02,4.64-2.84,5.66h0c-.27.1-.63.2-1.07.32l-.32.08ZM24.46,96.14l5.06,14.12c.27-.07.5-.14.68-.21,2.47-.89,3.24-2.39,2.4-4.73l-2.28-6.38c-.5-1.39-1.1-2.42-1.79-3.06-.63-.59-1.46-.69-2.53-.31l-1.54.55ZM20.92,88.41l-4.31-12.02,2.49-.89c1.15-.41,2.69-.41,3.52,1.9l1.84,5.13c.38,1.06.57,2.04.56,2.91,0,.68-.3,1.6-1.67,2.09l-2.43.87ZM17.54,76.84l3.82,10.65,1.74-.62c.81-.29,1.18-.74,1.19-1.42,0-.78-.17-1.68-.52-2.66l-1.84-5.13c-.52-1.45-1.34-1.91-2.59-1.46l-1.8.65Z" />
    <path class="cls-5"
      d="M50.74,113.6l-18.52-51.69,15.99-5.73c2.68-.96,4.97-1.07,6.81-.33,1.82.74,3.38,2.14,4.64,4.17,1.23,1.99,2.37,4.46,3.41,7.35,1.01,2.82,1.46,5.23,1.35,7.19-.1,1.68-.79,3.17-2.06,4.42,1.35.02,2.5.47,3.43,1.35,1.14,1.07,2.09,2.65,2.82,4.71l7.04,19.64-10.74,3.85-7.28-20.31c-.48-1.33-1.04-2.09-1.63-2.21-.61-.11-1.48.01-2.6.38l8.34,23.27-11,3.94ZM33.15,62.35l18.03,50.32,9.63-3.45-8.34-23.27.34-.12c1.43-.51,2.52-.69,3.32-.53.88.17,1.59,1.04,2.18,2.67l7.03,19.63,9.37-3.36-6.79-18.96c-.7-1.94-1.58-3.43-2.64-4.42-1.03-.96-2.31-1.32-3.93-1.09l-1.36.19,1.08-.84c1.65-1.28,2.5-2.79,2.61-4.61.11-1.86-.33-4.18-1.31-6.9-1.02-2.84-2.14-5.27-3.34-7.21-1.17-1.9-2.62-3.2-4.29-3.88-1.66-.67-3.78-.56-6.29.34l-15.31,5.49ZM49.61,77.77l-3.63-10.13,2.72-.97c.99-.35,1.81-.22,2.44.38.58.55,1.22,1.82,1.96,3.89,1.18,3.28.95,5.25-.68,5.83l-2.81,1.01ZM46.91,68.08l3.14,8.76,2.12-.76c1.18-.42,1.26-2.07.24-4.9-.86-2.4-1.44-3.29-1.78-3.61-.43-.41-.98-.48-1.7-.23l-2.03.73Z" />
    <path class="cls-5"
      d="M134.67,83.53l-18.52-51.69,10.77-3.86,6.38,17.79-2.24-19.28,10.97-3.93,2.7,25.78,17.01,25.49-11.29,4.05-12.82-20.19,7.87,21.96-10.83,3.88ZM117.08,32.27l18.03,50.32,9.46-3.39-9.83-27.42,16.01,25.21,9.87-3.54-16.6-24.86v-.09s-2.62-24.94-2.62-24.94l-9.55,3.42,2.9,24.99-8.27-23.07-9.4,3.37Z" />
    <path class="cls-5"
      d="M162.7,73.49l-18.52-51.69,21.09-7.56,3.78,10.54-10.03,3.59,3.32,9.26,9.62-3.45,3.68,10.28-9.62,3.45,3.94,10.99,10.69-3.83,3.81,10.62-21.75,7.8ZM145.11,22.23l18.03,50.32,20.39-7.3-3.32-9.26-10.69,3.83-4.43-12.36,9.62-3.45-3.19-8.91-9.62,3.45-3.81-10.63,10.03-3.59-3.29-9.17-19.72,7.07Z" />
    <path class="cls-5"
      d="M187.13,64.73l-18.52-51.69,11.12-3.98,11.66,19.72-7.59-21.18,10.54-3.78,18.52,51.69-10.59,3.8-12.5-20.78,8.02,22.39-10.65,3.82ZM169.54,13.48l18.03,50.32,9.29-3.33-9.02-25.16.65-.31,14.09,23.42,9.35-3.35-18.03-50.32-9.17,3.29,8.63,24.09-.66.31-13.3-22.49-9.87,3.54Z" />
    <path class="cls-7"
      d="M87.86,65.53l3.14-33.59c-1.29.03-2.59.12-3.9.3-18.42,2.52-31.31,19.5-28.79,37.92,2.22,16.21,15.64,28.14,31.38,29.04l8.62-41.19-10.45,7.52Z" />
    <path class="cls-1" d="M58.03,66.89l30.03-3.41,1.03-11.08-27.81-1.29c-2.29,4.8-3.48,10.18-3.25,15.78Z" />
    <path class="cls-3"
      d="M60.09,62.58c.4-15.38,15.25-28.75,30.88-30.25l.04-.39c-1.29.03-2.59.12-3.9.3-18.42,2.52-31.31,19.5-28.79,37.92,2.17,15.86,15.06,27.6,30.35,28.96-17.77-3.28-29.1-16.84-28.58-36.53Z" />
    <path class="cls-5"
      d="M87.59,35.8c-10.53,1.44-19.34,8.14-23.55,17.91-.09.2,0,.44.21.52.07.03.14.04.21.03.13-.02.26-.1.31-.24,4.1-9.51,12.67-16.03,22.92-17.43.96-.13,1.92-.21,2.89-.24l.08-.8c-1.03.04-2.05.12-3.07.26Z" />
    <path class="cls-5"
      d="M62.33,70c-.22.03-.42-.12-.45-.34-.48-3.52-.35-7.05.4-10.48.05-.22.26-.35.48-.31.22.05.35.26.31.48-.73,3.35-.86,6.78-.39,10.2.03.22-.12.42-.34.45Z" />
    <path class="cls-5"
      d="M74.26,89.97c-.1.01-.2,0-.29-.07-3.71-2.7-6.79-6.26-8.92-10.3-.1-.2-.03-.44.17-.54.2-.1.44-.03.54.17,2.07,3.93,5.07,7.4,8.68,10.03.18.13.22.38.09.56-.07.09-.16.15-.27.16Z" />
    <path class="cls-5"
      d="M83.95,94.63c-.05,0-.11,0-.16-.01-.97-.26-1.93-.58-2.86-.93-.21-.08-.31-.31-.23-.52.08-.21.31-.31.52-.23.91.35,1.85.65,2.79.91.21.06.34.28.28.49-.04.16-.18.27-.33.29Z" />
    <path class="cls-5"
      d="M86.24,94.36c-.22-.04-.43.1-.47.32-.04.22.1.43.32.47,1.44.27,2.89.43,4.35.49l.17-.8c-1.46-.05-2.93-.2-4.36-.47Z" />
    <path class="cls-5"
      d="M88.17,40.01c-8.99,1.23-16.53,6.94-20.17,15.26-.09.2,0,.44.21.53.07.03.14.04.21.03.13-.02.25-.1.31-.24,3.53-8.07,10.83-13.6,19.55-14.79.64-.09,1.28-.14,1.91-.18l.07-.8c-.7.04-1.4.1-2.1.19Z" />
    <path class="cls-5"
      d="M67.38,73.31c-.19.03-.38-.09-.44-.28-.38-1.28-.67-2.61-.85-3.95-.38-2.8-.31-5.62.22-8.37.04-.22.25-.36.47-.32.22.04.36.25.32.47-.51,2.67-.58,5.39-.21,8.11.18,1.3.46,2.58.83,3.83.06.21-.06.43-.27.5-.02,0-.04.01-.06.01Z" />
    <path class="cls-5"
      d="M76.74,86.52c-.1.01-.2,0-.29-.07-3.52-2.57-6.35-6-8.18-9.93-.09-.2,0-.44.19-.53.2-.09.44,0,.53.19,1.78,3.8,4.52,7.13,7.93,9.62.18.13.22.38.09.56-.07.09-.17.15-.27.16Z" />
    <path class="cls-5"
      d="M85.61,90.66s-.1,0-.15,0c-1.06-.26-2.11-.6-3.13-.99-.21-.08-.31-.31-.23-.52.08-.21.31-.31.52-.23.99.38,2.01.71,3.04.96.21.05.34.27.29.48-.04.16-.18.28-.33.3Z" />
    <path class="cls-5"
      d="M87.99,90.34c-.22-.03-.42.12-.45.34-.03.22.12.42.34.45,1.14.17,2.3.26,3.46.27l.17-.79c-1.18,0-2.35-.1-3.51-.27Z" />
    <path class="cls-5"
      d="M88.55,42.78c-7.31,1-13.74,5.49-17.21,12.01-.1.2-.03.44.16.54.08.04.16.05.24.04.12-.02.24-.09.3-.21,3.35-6.29,9.56-10.63,16.61-11.59.42-.06.85-.09,1.27-.13l.08-.81c-.49.04-.97.08-1.46.14Z" />
    <path class="cls-5"
      d="M69.31,69.05c-.22.03-.42-.12-.45-.34-.3-2.18-.29-4.38.04-6.54.03-.22.24-.37.45-.34.22.03.37.24.34.45-.31,2.08-.32,4.2-.03,6.31.03.22-.12.42-.34.45Z" />
    <path class="cls-5"
      d="M78.15,84.08c-.1.01-.21-.01-.29-.08-2.77-2.08-5.08-4.8-6.66-7.87-.1-.2-.02-.44.17-.54.2-.1.44-.02.54.17,1.52,2.96,3.75,5.59,6.42,7.6.18.13.21.38.08.56-.07.09-.16.14-.27.16Z" />
    <path class="cls-5"
      d="M82.93,86.02c-.2-.09-.44,0-.52.21-.09.2,0,.44.21.52,2.96,1.27,6.09,1.88,9.3,1.84l.17-.8c-3.16.06-6.24-.53-9.15-1.78Z" />
    <path class="cls-5"
      d="M88.96,45.78c-6.35.87-11.94,4.77-14.95,10.44-.1.19-.03.44.17.54.08.04.16.05.24.04.12-.02.24-.09.3-.21,2.89-5.44,8.26-9.19,14.35-10.02.19-.03.38-.04.57-.06l.08-.81c-.25.02-.51.04-.76.08Z" />
    <path class="cls-5"
      d="M80.99,82.38c-.09.01-.19,0-.27-.06-4.85-3.17-8.08-8.28-8.86-14.02-.33-2.39-.23-4.78.3-7.11.05-.22.26-.35.48-.3.21.05.35.26.3.48-.5,2.24-.6,4.53-.29,6.83.75,5.51,3.86,10.41,8.51,13.46.18.12.24.37.12.55-.07.1-.17.16-.28.18Z" />
    <path class="cls-5"
      d="M87.15,85.04c.16-.02.29-.14.33-.3.05-.21-.08-.43-.3-.48-1.11-.27-2.21-.64-3.25-1.1-.2-.09-.44,0-.53.2-.09.2,0,.44.2.53,1.09.48,2.23.86,3.39,1.14.05.01.1.01.15,0Z" />
    <path class="cls-5"
      d="M91.22,84.78c-.22,0-.4.17-.41.39,0,.22.17.4.39.41.45,0,.9,0,1.35-.02l.17-.81c-.5.03-1,.04-1.5.03Z" />
    <path class="cls-5"
      d="M89.35,48.65c-4.74.65-9.02,3.28-11.75,7.22-.13.18-.08.43.1.56.18.13.43.08.56-.1,2.58-3.73,6.62-6.22,11.11-6.86l.08-.82s-.06,0-.09.01Z" />
    <path class="cls-5"
      d="M75.52,67.8c-.18-1.33-.2-2.67-.06-3.99.02-.22-.13-.42-.35-.44-.22-.02-.42.13-.44.35-.15,1.39-.13,2.8.06,4.19,1.24,9.07,9.42,15.49,18.44,14.69l.17-.82c-8.7.9-16.63-5.26-17.82-13.99Z" />
    <path class="cls-6"
      d="M87.86,65.53l1.2-12.89c-6.8,1.36-11.45,7.78-10.5,14.74.99,7.23,7.66,12.3,14.89,11.31.19-.03.37-.07.55-.1l4.31-20.57-10.45,7.52Z" />
    <path class="cls-5"
      d="M93.41,78.29c-7,.96-13.48-3.96-14.44-10.96-.92-6.7,3.55-12.9,10.06-14.27l.08-.83c-7.05,1.35-11.92,8.01-10.93,15.21,1.02,7.44,7.9,12.67,15.34,11.65.14-.02.27-.05.41-.08l.18-.85c-.23.04-.46.1-.69.13Z" />
    <path class="cls-5"
      d="M91.9,67.31c.95-.13,1.62-1.01,1.49-1.96-.13-.95-1.01-1.62-1.96-1.49-.95.13-1.62,1.01-1.49,1.96.13.95,1.01,1.62,1.96,1.49Z" />
    <path class="cls-5"
      d="M90.02,99.61l-.34-.02c-16.2-.93-29.55-13.29-31.76-29.39-2.55-18.61,10.52-35.82,29.13-38.37,1.26-.17,2.58-.27,3.94-.3h.45s-3.1,33.16-3.1,33.16l10.57-7.61-8.9,42.53ZM87.16,32.63c-18.17,2.49-30.94,19.29-28.45,37.47,2.14,15.6,15,27.61,30.67,28.68l8.34-39.84-10.33,7.43,3.17-34.02c-1.17.04-2.31.13-3.4.28Z" />
    <path class="cls-7"
      d="M95.16,26.1l-3.14,33.59,10.45-7.52-8.62,41.19c2.14.12,4.33.05,6.53-.25,18.42-2.52,31.31-19.5,28.79-37.92-2.34-17.11-17.16-29.44-34.02-29.09Z" />
    <path class="cls-1" d="M129.43,57.89l-28.34.9-2.15,10.26,27.79,4.04c2.02-4.67,3-9.84,2.7-15.2Z" />
    <path class="cls-5"
      d="M98.39,29.79c-1.18-.1-2.37-.12-3.57-.08l-.07.8c1.19-.05,2.39-.03,3.57.07.22.02.41-.14.43-.36.02-.22-.14-.41-.36-.43Z" />
    <path class="cls-5"
      d="M109.67,86.01c-.1-.2-.34-.28-.54-.17-4.41,2.25-9.41,3.33-14.36,3.16l-.17.8c1.76.07,3.53-.01,5.3-.25,3.37-.46,6.59-1.47,9.59-3,.2-.1.27-.34.17-.54Z" />
    <path class="cls-5"
      d="M115.91,82.04c-.13.02-.26-.03-.35-.13-.15-.16-.14-.42.02-.56,3.04-2.78,5.5-6.25,7.13-10.03.09-.2.32-.3.52-.21.2.09.3.32.21.52-1.67,3.88-4.21,7.44-7.33,10.3-.06.06-.14.09-.22.1Z" />
    <path class="cls-5"
      d="M125.28,56.13c-.22.03-.42-.12-.45-.34-1.25-9.13-6.57-16.97-14.6-21.52-.19-.11-.26-.35-.15-.54.11-.19.35-.26.54-.15,8.25,4.67,13.71,12.73,15,22.1.03.22-.12.42-.34.45Z" />
    <path class="cls-5"
      d="M107.6,32.89c-.07,0-.14,0-.21-.03-.71-.31-1.45-.59-2.2-.84-.21-.07-.32-.3-.25-.51s.3-.32.51-.25c.76.26,1.52.55,2.26.87.2.09.3.32.21.53-.06.13-.18.22-.31.24Z" />
    <path class="cls-5"
      d="M99.11,34.14c-1.55-.2-3.12-.24-4.68-.16l-.07.8c1.56-.09,3.12-.05,4.66.15.22.03.42-.13.45-.35.03-.22-.13-.42-.35-.45Z" />
    <path class="cls-5"
      d="M119.29,69.55c-.2-.09-.44,0-.53.21-3.53,8.07-10.83,13.6-19.55,14.79-1.19.16-2.38.24-3.57.23l-.17.79c1.28.02,2.56-.06,3.84-.23,8.99-1.23,16.53-6.94,20.17-15.26.09-.2,0-.44-.21-.53Z" />
    <path class="cls-5"
      d="M121.19,62.55s-.06,0-.09,0c-.22-.02-.38-.22-.36-.44.18-1.9.14-3.84-.12-5.75-.41-2.98-1.33-5.83-2.75-8.46-.1-.19-.03-.44.16-.54.19-.1.44-.03.54.16,1.46,2.71,2.41,5.65,2.83,8.73.27,1.97.31,3.97.13,5.94-.02.19-.16.33-.34.36Z" />
    <path class="cls-5"
      d="M113.49,41.82c-.12.02-.24-.02-.33-.11-2.86-2.74-6.37-4.79-10.15-5.93-.21-.06-.33-.29-.27-.5.06-.21.29-.33.5-.27,3.9,1.17,7.52,3.29,10.47,6.12.16.15.16.41.01.56-.06.07-.15.11-.23.12Z" />
    <path class="cls-5"
      d="M99.55,37.03c-1.78-.29-3.59-.36-5.39-.23l-.08.81c1.79-.14,3.58-.08,5.34.21.22.04.42-.11.46-.33.04-.22-.11-.42-.33-.46Z" />
    <path class="cls-5"
      d="M96.48,81.97c-.08,0-.16,0-.24,0l-.17.8c.14,0,.28,0,.43,0,.01,0,.03,0,.04,0,.2-.03.35-.2.34-.41,0-.22-.19-.39-.41-.39Z" />
    <path class="cls-5"
      d="M116.75,68.37c-.2-.09-.44,0-.53.21-2.68,6.18-7.92,10.76-14.38,12.57-.21.06-.34.28-.28.49.05.19.24.31.44.29.02,0,.04,0,.05-.01,6.69-1.87,12.12-6.62,14.9-13.02.09-.2,0-.44-.21-.53Z" />
    <path class="cls-5"
      d="M118.29,57.09c-.22.03-.42-.12-.45-.34-.37-2.73-1.23-5.32-2.54-7.7-.11-.19-.04-.44.16-.54.19-.11.44-.04.54.16,1.36,2.47,2.25,5.16,2.64,7.98.03.22-.12.42-.34.45Z" />
    <path class="cls-5"
      d="M111.25,43.56c-.11.02-.23-.02-.33-.1-2.55-2.36-5.66-4.11-8.99-5.07-.21-.06-.33-.28-.27-.49.06-.21.28-.33.49-.27,3.45.99,6.67,2.8,9.31,5.25.16.15.17.4.02.56-.07.07-.15.11-.24.12Z" />
    <path class="cls-5"
      d="M98.64,39.96c-1.57-.22-3.17-.24-4.77-.09l-.08.81c1.58-.17,3.17-.15,4.73.07.22.03.42-.12.45-.34.03-.22-.12-.42-.34-.45Z" />
    <path class="cls-5"
      d="M97.56,78.87c-.22.02-.45.03-.68.04l-.17.81c.31-.01.62-.03.92-.06,0,0,.01,0,.02,0,.21-.03.36-.22.34-.43-.02-.22-.21-.38-.43-.36Z" />
    <path class="cls-5"
      d="M114.05,66.97c-.2-.08-.44.01-.52.21-2.29,5.45-6.86,9.48-12.53,11.06-.21.06-.34.28-.28.49.05.19.24.32.44.29.02,0,.04,0,.05-.01,5.91-1.64,10.66-5.84,13.05-11.52.09-.2,0-.44-.21-.52Z" />
    <path class="cls-5"
      d="M115.29,57.5c-.22.03-.42-.12-.45-.34-.26-1.92-.81-3.78-1.62-5.53-.09-.2,0-.44.19-.53.2-.1.44,0,.53.19.85,1.82,1.42,3.75,1.69,5.76.03.22-.12.42-.34.45Z" />
    <path class="cls-5"
      d="M109.31,45.88c-.12.02-.24-.02-.33-.1-2.15-2.02-4.77-3.54-7.59-4.4-.21-.06-.33-.29-.27-.5.06-.21.29-.33.5-.27,2.93.89,5.66,2.47,7.9,4.58.16.15.17.4.02.56-.06.07-.15.11-.24.12Z" />
    <path class="cls-5"
      d="M112.43,57.89c-.22.03-.42-.12-.45-.34-.2-1.47-.6-2.91-1.18-4.26-.09-.2,0-.44.21-.52.2-.09.44,0,.53.21.61,1.42,1.03,2.92,1.24,4.47.03.22-.12.42-.34.45Z" />
    <path class="cls-5"
      d="M107.53,47.28c-3.76-3.52-8.83-5.15-13.92-4.48l-.08.82s.06-.01.09-.02c4.89-.67,9.76.88,13.36,4.26.09.09.21.12.33.1.09-.01.17-.05.24-.12.15-.16.14-.41-.02-.56Z" />
    <path class="cls-5"
      d="M111.3,66.06c-.2-.09-.44,0-.53.21-2.3,5.26-7.06,8.86-12.74,9.64-.18.02-.36.03-.54.05l-.17.82c.27-.02.54-.03.82-.07,5.96-.81,10.95-4.59,13.36-10.11.09-.2,0-.44-.21-.53Z" />
    <path class="cls-6"
      d="M94.03,46.66c-.27.04-.54.1-.81.15l-1.2,12.89,10.45-7.52-4.31,20.57c6.93-1.25,11.72-7.74,10.76-14.79-.99-7.23-7.66-12.3-14.89-11.31Z" />
    <path class="cls-5"
      d="M109.32,57.91c-1.02-7.44-7.9-12.67-15.34-11.65-.24.03-.48.09-.71.13l-.08.83c.3-.06.59-.13.9-.17,7-.96,13.48,3.96,14.44,10.96.93,6.77-3.64,13.03-10.27,14.31l-.18.85c7.22-1.21,12.24-7.96,11.24-15.26Z" />
    <path class="cls-3"
      d="M104.2,48.82l-9.84,6.21s1.46-28.94.81-28.92l-3.14,33.59,10.45-7.52-8.62,41.19c1.26.07,3.81,0,3.81,0l6.53-44.54Z" />
    <path class="cls-5"
      d="M100.45,93.51c-2.17.3-4.4.38-6.61.26l-.46-.03,8.5-40.63-10.33,7.43,3.25-34.82h.36c17.28-.37,32.08,12.28,34.43,29.43,2.55,18.61-10.52,35.82-29.13,38.37ZM94.34,92.99c2.01.09,4.02,0,5.99-.27,18.17-2.49,30.94-19.29,28.45-37.47-2.27-16.62-16.54-28.92-33.26-28.75l-3.02,32.36,10.57-7.61-8.74,41.74Z" />
    <path class="cls-4"
      d="M223.98,62.13c-.46-.22-.92-.24-1.38-.08l-43.66,15.64c-.46.17-.8.48-1.02.94-.14.29-.19.58-.17.87-2.72.06-5.64.64-8.78,1.76l-24.61,8.82c-.46.17-.8.48-1.02.94-.22.46-.24.92-.07,1.38l2.95,8.23-5.49-6.89c-.88-1.26-2.08-1.61-3.6-1.07l-17.59,6.3c-1.52.54-2.22,1.58-2.1,3.11v.4s-.26-.73-.26-.73c-.17-.46-.48-.8-.94-1.02-.46-.22-.92-.24-1.38-.08l-39.21,14.05-.15.05-12.89,4.62c-.46.17-.8.48-1.02.94-.22.46-.24.92-.08,1.38l4.65,12.97-12.65,4.53-4.65-12.97c-.17-.46-.48-.8-.94-1.02-.46-.22-.92-.24-1.38-.08l-13.03,4.67c-.46.17-.8.48-1.02.94-.22.46-.24.92-.08,1.38l14.65,40.87c.18.51.5.86.95,1.05.45.2.91.21,1.37.04l13.03-4.67c.46-.17.8-.48,1.02-.94.22-.46.24-.92.08-1.38l-4.83-13.48,12.65-4.53,4.83,13.48c.17.46.48.8.94,1.02.46.22.92.24,1.38.07l12.89-4.62.15-.05,28.57-10.24,11.27-4.04.69-.25c1.35-.48,2.04-1.54,2.08-3.17v-5s15.43-5.53,15.43-5.53l3.17,3.86c1.06,1.24,2.27,1.62,3.62,1.13l3.88-1.39,8.08-2.9,5.59-2c.46-.17.8-.48,1.02-.94.22-.46.24-.92.08-1.38l-4.44-12.4,5.31-1.9,10.06,10.53c.88.87,1.96,1.08,3.22.63l14.36-5.15c.38-.14.66-.39.83-.76.18-.37.21-.71.11-1-.11-.29-.23-.51-.38-.65l-13-11.76c3.51-4.16,4.23-9.11,2.18-14.84-.21-.58-.44-1.14-.69-1.68l4.86-1.74,10.38,28.98c.17.46.48.8.94,1.02.46.22.92.24,1.38.07l13.03-4.67c.46-.17.8-.48,1.02-.94.22-.46.24-.92.08-1.38l-10.38-28.98,13.6-4.87c.46-.17.8-.48,1.02-.94.22-.46.24-.92.08-1.38l-3.65-10.19c-.17-.46-.48-.8-.94-1.02ZM94.67,121.81l22.95-8.22.07,4.54c-.15.01-.3.04-.45.09l-21.13,7.57-1.43-3.99ZM100.27,137.44l17.61-6.31.07,4.47-16.25,5.82-1.43-3.99ZM132.93,122.81l-.22-14.77,9.21,11.55-8.98,3.22ZM176.08,98.53c-.29.79-.9,1.36-1.82,1.69l-7.91,2.83-2.4-6.71,7.91-2.83c.97-.35,1.82-.26,2.56.26.73.52,1.27,1.25,1.6,2.18.33.93.36,1.79.07,2.58Z" />
    <path class="cls-4"
      d="M223.98,62.13c-.46-.22-.92-.24-1.38-.08l-43.66,15.64c-.46.17-.8.48-1.02.94-.14.29-.19.58-.17.87-2.72.06-5.64.64-8.78,1.76l-24.61,8.82c-.46.17-.8.48-1.02.94-.22.46-.24.92-.07,1.38l2.95,8.23-5.49-6.89c-.88-1.26-2.08-1.61-3.6-1.07l-17.59,6.3c-1.52.54-2.22,1.58-2.1,3.11v.4s-.26-.73-.26-.73c-.17-.46-.48-.8-.94-1.02-.46-.22-.92-.24-1.38-.08l-39.21,14.05-.15.05-12.89,4.62c-.46.17-.8.48-1.02.94-.22.46-.24.92-.08,1.38l4.65,12.97-12.65,4.53-4.65-12.97c-.17-.46-.48-.8-.94-1.02-.46-.22-.92-.24-1.38-.08l-13.03,4.67c-.46.17-.8.48-1.02.94-.22.46-.24.92-.08,1.38l14.65,40.87c.18.51.5.86.95,1.05.45.2.91.21,1.37.04l13.03-4.67c.46-.17.8-.48,1.02-.94.22-.46.24-.92.08-1.38l-4.83-13.48,12.65-4.53,4.83,13.48c.17.46.48.8.94,1.02.46.22.92.24,1.38.07l12.89-4.62.15-.05,28.57-10.24,11.27-4.04.69-.25c1.35-.48,2.04-1.54,2.08-3.17v-5s15.43-5.53,15.43-5.53l3.17,3.86c1.06,1.24,2.27,1.62,3.62,1.13l3.88-1.39,8.08-2.9,5.59-2c.46-.17.8-.48,1.02-.94.22-.46.24-.92.08-1.38l-4.44-12.4,5.31-1.9,10.06,10.53c.88.87,1.96,1.08,3.22.63l14.36-5.15c.38-.14.66-.39.83-.76.18-.37.21-.71.11-1-.11-.29-.23-.51-.38-.65l-13-11.76c3.51-4.16,4.23-9.11,2.18-14.84-.21-.58-.44-1.14-.69-1.68l4.86-1.74,10.38,28.98c.17.46.48.8.94,1.02.46.22.92.24,1.38.07l13.03-4.67c.46-.17.8-.48,1.02-.94.22-.46.24-.92.08-1.38l-10.38-28.98,13.6-4.87c.46-.17.8-.48,1.02-.94.22-.46.24-.92.08-1.38l-3.65-10.19c-.17-.46-.48-.8-.94-1.02ZM94.67,121.81l22.95-8.22.07,4.54c-.15.01-.3.04-.45.09l-21.13,7.57-1.43-3.99ZM100.27,137.44l17.61-6.31.07,4.47-16.25,5.82-1.43-3.99ZM132.93,122.81l-.22-14.77,9.21,11.55-8.98,3.22ZM176.08,98.53c-.29.79-.9,1.36-1.82,1.69l-7.91,2.83-2.4-6.71,7.91-2.83c.97-.35,1.82-.26,2.56.26.73.52,1.27,1.25,1.6,2.18.33.93.36,1.79.07,2.58Z" />
    <path class="cls-7"
      d="M220.58,61.48c-.45-.21-.91-.24-1.37-.08l-43.27,15.5c-.46.16-.8.47-1.01.93-.14.29-.19.58-.17.87-2.69.06-5.59.63-8.7,1.74l-24.39,8.74c-.46.16-.8.47-1.01.93-.22.45-.24.91-.07,1.37l2.92,8.15-5.44-6.83c-.87-1.24-2.06-1.6-3.56-1.06l-17.43,6.25c-1.5.54-2.2,1.57-2.08,3.08v.39s-.25-.73-.25-.73c-.16-.46-.47-.8-.93-1.01-.45-.21-.91-.24-1.37-.08l-38.85,13.92-.15.05-12.77,4.58c-.46.16-.8.47-1.01.93-.22.45-.24.91-.07,1.37l4.61,12.85-12.54,4.49-4.61-12.85c-.16-.46-.47-.8-.93-1.01-.45-.21-.91-.24-1.37-.08l-12.92,4.63c-.46.16-.8.47-1.01.93-.22.45-.24.91-.07,1.37l14.51,40.51c.18.5.49.85.94,1.04.45.19.9.21,1.36.04l12.92-4.63c.46-.16.8-.47,1.01-.93.21-.45.24-.91.07-1.37l-4.79-13.36,12.54-4.49,4.79,13.36c.16.46.47.8.93,1.01.45.21.91.24,1.37.07l12.77-4.58.15-.05,28.31-10.15,11.17-4,.68-.25c1.34-.48,2.02-1.53,2.06-3.14v-4.95s15.29-5.48,15.29-5.48l3.14,3.83c1.05,1.23,2.25,1.6,3.59,1.12l3.84-1.38,8.01-2.87,5.54-1.98c.46-.16.8-.47,1.01-.93.21-.45.24-.91.07-1.37l-4.4-12.29,5.27-1.89,9.97,10.44c.88.87,1.94,1.07,3.2.62l14.23-5.1c.38-.13.65-.39.83-.76.17-.37.21-.7.1-.99-.1-.29-.23-.51-.37-.65l-12.88-11.66c3.48-4.12,4.19-9.03,2.16-14.71-.21-.58-.44-1.13-.68-1.67l4.81-1.72,10.29,28.72c.16.46.47.8.93,1.01.45.21.91.24,1.37.07l12.92-4.63c.46-.16.8-.47,1.01-.93.21-.45.24-.91.07-1.37l-10.29-28.72,13.48-4.83c.46-.16.8-.47,1.01-.93.21-.45.24-.91.07-1.37l-3.62-10.09c-.16-.46-.47-.8-.93-1.01ZM92.43,120.63l22.74-8.15.07,4.5c-.15.01-.3.04-.45.09l-20.94,7.5-1.42-3.95ZM97.98,136.12l17.46-6.25.07,4.43-16.11,5.77-1.42-3.95ZM130.35,121.62l-.22-14.64,9.13,11.45-8.9,3.19ZM173.12,97.56c-.28.79-.89,1.34-1.81,1.67l-7.84,2.81-2.38-6.65,7.84-2.81c.96-.34,1.81-.26,2.53.26.73.52,1.26,1.24,1.59,2.16.33.92.35,1.77.07,2.56Z" />
    <path class="cls-5"
      d="M46.93,172.92c-.29,0-.59-.06-.87-.19-.54-.23-.92-.65-1.14-1.25l-14.51-40.51c-.2-.55-.17-1.11.09-1.65.26-.54.66-.92,1.22-1.12l12.92-4.63c.55-.2,1.1-.17,1.65.09.54.26.92.67,1.12,1.22l4.48,12.51,11.86-4.25-4.48-12.51c-.2-.55-.17-1.11.09-1.65.26-.54.67-.92,1.22-1.12l51.77-18.55c.55-.2,1.11-.17,1.65.09.3.14.54.33.74.55.24-1.07,1.01-1.86,2.25-2.3l17.43-6.25c1.65-.59,3.02-.18,3.98,1.19l4.06,5.09-2.18-6.09c-.2-.55-.17-1.11.09-1.65.26-.54.67-.92,1.22-1.12l24.39-8.74c2.97-1.06,5.81-1.65,8.47-1.75.03-.23.09-.45.19-.67.26-.54.67-.92,1.22-1.12l43.27-15.5c.55-.2,1.11-.17,1.65.09h0c.54.26.92.67,1.11,1.22l3.62,10.09c.2.55.17,1.11-.09,1.65-.26.54-.67.92-1.22,1.12l-13.14,4.71,10.17,28.38c.2.55.17,1.11-.09,1.65-.26.54-.67.92-1.22,1.12l-12.92,4.63c-.55.2-1.11.17-1.65-.09-.54-.26-.92-.67-1.12-1.22l-10.17-28.38-4.1,1.47c.19.43.37.88.53,1.33,2.03,5.67,1.36,10.64-2,14.8l12.62,11.42c.2.19.35.45.47.79.14.38.1.81-.12,1.27-.22.46-.56.77-1.03.94l-14.23,5.1c-1.39.5-2.59.26-3.57-.71l-9.81-10.28-4.7,1.69,4.28,11.95c.2.55.17,1.11-.09,1.65-.26.54-.67.92-1.22,1.12l-17.39,6.23c-1.49.53-2.83.12-3.98-1.23l-2.98-3.63-14.82,5.31v4.69c-.03,1.78-.81,2.95-2.29,3.49l-53.08,19.02c-.55.2-1.11.17-1.65-.09-.54-.26-.92-.67-1.12-1.22l-4.66-13.01-11.86,4.25,4.66,13.01c.2.55.17,1.11-.09,1.65-.26.54-.67.92-1.22,1.11l-12.92,4.63c-.25.09-.5.14-.75.14ZM45.34,124.18c-.16,0-.31.03-.47.09l-12.92,4.63c-.37.13-.63.37-.81.74-.17.37-.19.72-.06,1.09l14.51,40.51c.15.41.39.68.74.83.36.16.72.17,1.09.03l12.92-4.63c.37-.13.63-.37.81-.74.17-.37.19-.72.06-1.09l-4.91-13.7,13.22-4.74,4.91,13.7c.13.37.38.63.74.81.37.17.72.19,1.09.06l53.08-19.02c1.19-.43,1.79-1.35,1.82-2.81v-5.2s15.78-5.66,15.78-5.66l3.3,4.03c.95,1.1,1.99,1.44,3.18,1.01l17.39-6.23c.37-.13.63-.37.81-.74.17-.37.19-.72.06-1.09l-4.53-12.63,5.83-2.09,10.13,10.61c.77.76,1.69.93,2.81.53l14.23-5.1c.28-.1.49-.29.62-.57.13-.28.16-.51.09-.71-.11-.3-.21-.44-.28-.51l-13.13-11.89.23-.27c3.37-4,4.07-8.83,2.09-14.35-.2-.56-.43-1.11-.67-1.63l-.17-.36,5.53-1.98,10.41,29.06c.13.37.37.63.74.81.37.17.72.19,1.09.06l12.92-4.63c.37-.13.63-.37.81-.74.17-.37.19-.72.06-1.09l-10.41-29.06,13.82-4.95c.37-.13.63-.37.81-.74.17-.37.19-.72.06-1.09l-3.62-10.09c-.13-.37-.37-.63-.74-.81-.37-.17-.73-.19-1.09-.06l-43.27,15.5c-.37.13-.63.38-.81.74-.11.22-.15.45-.14.69l.02.38h-.38c-2.67.07-5.56.65-8.58,1.73l-24.39,8.74c-.37.13-.63.38-.8.74-.17.37-.19.72-.06,1.09l3.66,10.22-6.81-8.54c-.78-1.12-1.81-1.43-3.16-.94l-17.43,6.25c-1.34.48-1.94,1.37-1.84,2.71l.04,2.61-1-2.79c-.13-.37-.37-.63-.74-.81-.37-.17-.72-.19-1.09-.06l-51.77,18.55c-.37.13-.63.37-.81.74-.17.37-.19.72-.06,1.09l4.73,13.2-13.23,4.74-4.73-13.2c-.13-.37-.37-.63-.74-.81-.21-.1-.41-.15-.62-.15ZM99.18,140.54l-1.66-4.64,18.28-6.55.08,5.2-16.69,5.98ZM98.45,136.34l1.17,3.27,15.52-5.56-.06-3.67-16.64,5.96ZM93.63,125.05l-1.66-4.64,23.56-8.44.08,5.35-.34.03c-.14.01-.26.04-.36.07l-21.29,7.63ZM92.9,120.85l1.17,3.27,20.6-7.38c.07-.02.13-.04.2-.06l-.06-3.68-21.92,7.85ZM129.99,122.13l-.25-16.21,10.11,12.68-9.86,3.53ZM130.51,108.04l.2,13.06,7.95-2.85-8.15-10.22ZM163.25,102.5l-2.63-7.33,8.18-2.93c1.07-.38,2.04-.28,2.87.31.79.56,1.36,1.34,1.72,2.33.36,1,.38,1.94.07,2.8h0c-.32.89-1,1.53-2.03,1.89l-8.18,2.93ZM161.56,95.61l2.14,5.96,7.5-2.69c.82-.29,1.34-.77,1.59-1.45h0c.25-.7.23-1.48-.07-2.31-.3-.84-.79-1.51-1.46-1.98-.63-.45-1.35-.52-2.2-.21l-7.5,2.69Z" />
    <path class="cls-2"
      d="M217.41,60.47c-.45-.21-.91-.24-1.37-.08l-43.27,15.5c-.46.16-.8.47-1.01.93-.14.29-.19.58-.17.87-2.69.06-5.59.63-8.7,1.74l-24.39,8.74c-.46.16-.8.47-1.01.93-.22.45-.24.91-.07,1.37l2.92,8.15-5.44-6.83c-.87-1.24-2.06-1.6-3.56-1.06l-17.43,6.25c-1.5.54-2.2,1.57-2.08,3.08v.39s-.25-.73-.25-.73c-.16-.46-.47-.8-.93-1.01-.45-.21-.91-.24-1.37-.08l-38.85,13.92-.15.05-12.77,4.58c-.46.16-.8.47-1.01.93-.22.45-.24.91-.07,1.37l4.61,12.85-12.54,4.49-4.61-12.85c-.16-.46-.47-.8-.93-1.01-.45-.21-.91-.24-1.37-.08l-12.92,4.63c-.46.17-.8.47-1.01.93-.22.45-.24.91-.07,1.37l14.51,40.51c.18.5.49.85.94,1.04.45.19.9.21,1.36.04l12.92-4.63c.46-.16.8-.47,1.01-.93.21-.45.24-.91.07-1.37l-4.79-13.36,12.54-4.49,4.79,13.36c.16.46.47.8.93,1.01.45.21.91.24,1.37.07l12.77-4.58.15-.05,28.31-10.15,11.17-4,.68-.25c1.34-.48,2.02-1.53,2.06-3.14v-4.95s15.29-5.48,15.29-5.48l3.14,3.83c1.05,1.23,2.25,1.6,3.59,1.12l3.84-1.38,8.01-2.87,5.54-1.98c.46-.16.8-.47,1.01-.93.21-.45.24-.91.07-1.37l-4.4-12.29,5.27-1.89,9.97,10.44c.88.87,1.94,1.07,3.2.62l14.23-5.1c.38-.13.65-.39.83-.76.17-.37.21-.7.1-.99-.1-.29-.23-.51-.37-.65l-12.88-11.66c3.48-4.12,4.19-9.03,2.16-14.71-.21-.58-.44-1.13-.68-1.67l4.81-1.72,10.29,28.72c.16.46.47.8.93,1.01.45.21.91.24,1.37.07l12.92-4.63c.46-.16.8-.47,1.01-.93.21-.45.24-.91.07-1.37l-10.29-28.72,13.48-4.83c.46-.16.8-.47,1.01-.93.21-.45.24-.91.07-1.37l-3.62-10.09c-.16-.46-.47-.8-.93-1.01ZM89.26,119.63l22.74-8.15.07,4.5c-.15.01-.3.04-.45.09l-20.94,7.5-1.42-3.95ZM94.81,135.11l17.46-6.25.07,4.43-16.11,5.77-1.42-3.95ZM127.18,120.61l-.22-14.64,9.13,11.45-8.9,3.19ZM169.95,96.55c-.28.79-.89,1.34-1.81,1.67l-7.84,2.81-2.38-6.65,7.84-2.81c.96-.34,1.81-.26,2.53.26.73.52,1.26,1.24,1.59,2.16.33.92.35,1.77.07,2.56Z" />
    <path class="cls-5"
      d="M43.75,171.91c-.29,0-.59-.06-.87-.19-.54-.23-.92-.65-1.14-1.25l-14.51-40.51c-.2-.55-.17-1.11.09-1.65.26-.54.67-.92,1.22-1.12l12.92-4.63c.55-.2,1.11-.17,1.65.09.54.26.92.67,1.12,1.22l4.48,12.51,11.86-4.25-4.48-12.51c-.2-.55-.17-1.11.09-1.65.26-.54.66-.92,1.22-1.12l51.77-18.55c.55-.2,1.11-.17,1.65.09.3.14.54.33.74.55.24-1.07,1.01-1.86,2.25-2.3l17.43-6.25c1.65-.59,3.02-.18,3.98,1.19l4.06,5.09-2.18-6.09c-.2-.55-.17-1.11.09-1.65.26-.54.67-.92,1.22-1.12l24.39-8.74c2.97-1.06,5.81-1.65,8.47-1.75.03-.23.09-.45.19-.67.26-.54.67-.92,1.22-1.12l43.27-15.5c.55-.2,1.1-.17,1.65.09h0c.54.26.92.67,1.12,1.22l3.62,10.09c.2.55.17,1.11-.09,1.65-.26.54-.66.92-1.22,1.11l-13.14,4.71,10.17,28.38c.2.55.17,1.11-.09,1.65-.26.54-.67.92-1.22,1.11l-12.92,4.63c-.55.2-1.11.17-1.65-.09-.54-.26-.92-.67-1.12-1.22l-10.17-28.38-4.1,1.47c.19.43.37.88.53,1.33,2.03,5.67,1.36,10.64-2,14.8l12.62,11.42c.19.19.35.44.47.79.14.39.1.81-.12,1.27-.22.46-.56.77-1.03.94l-14.23,5.1c-1.39.5-2.59.26-3.57-.71l-9.81-10.27-4.7,1.69,4.28,11.95c.2.55.17,1.11-.09,1.65-.26.54-.67.92-1.22,1.12l-17.39,6.23c-1.49.53-2.83.12-3.98-1.23l-2.98-3.63-14.82,5.31v4.69c-.03,1.78-.81,2.95-2.29,3.49l-53.08,19.02c-.55.2-1.11.17-1.65-.09-.54-.26-.92-.67-1.12-1.22l-4.66-13.01-11.86,4.25,4.66,13.01c.2.55.17,1.11-.09,1.65-.26.54-.67.92-1.22,1.12l-12.92,4.63c-.25.09-.5.13-.75.13ZM42.17,123.17c-.16,0-.31.03-.47.09l-12.92,4.63c-.37.13-.63.37-.8.74-.17.37-.19.72-.06,1.09l14.51,40.51c.15.41.39.68.74.83.36.16.72.17,1.09.03l12.92-4.63c.37-.13.63-.37.81-.74.17-.37.19-.72.06-1.09l-4.91-13.7,13.23-4.74,4.91,13.7c.13.37.37.63.74.81.37.17.72.19,1.09.06l53.08-19.02c1.19-.43,1.79-1.35,1.82-2.81v-5.2s15.78-5.66,15.78-5.66l3.3,4.02c.95,1.1,1.99,1.44,3.18,1.01l17.39-6.23c.37-.13.63-.37.81-.74.17-.37.19-.72.06-1.09l-4.53-12.63,5.83-2.09,10.13,10.61c.77.76,1.69.93,2.81.53l14.23-5.1c.28-.1.49-.29.62-.57.13-.28.16-.51.09-.71-.11-.3-.21-.44-.28-.51l-13.13-11.89.23-.27c3.37-4,4.07-8.83,2.09-14.35-.2-.57-.43-1.12-.67-1.63l-.17-.36,5.53-1.98,10.41,29.06c.13.37.37.63.74.81.37.17.72.19,1.09.06l12.92-4.63c.37-.13.63-.37.81-.74.17-.37.19-.72.06-1.09l-10.41-29.06,13.82-4.95c.37-.13.63-.37.81-.74.17-.37.19-.73.06-1.09l-3.62-10.09c-.13-.37-.37-.63-.74-.81h0c-.37-.17-.73-.19-1.09-.06l-43.27,15.5c-.37.13-.63.37-.81.74-.11.22-.15.45-.14.69l.02.38h-.38c-2.67.07-5.56.65-8.58,1.73l-24.39,8.74c-.37.13-.63.37-.81.74-.17.37-.19.72-.06,1.09l3.66,10.22-6.81-8.54c-.79-1.12-1.81-1.42-3.16-.94l-17.43,6.25c-1.34.48-1.94,1.37-1.84,2.71l.04,2.61-1-2.79c-.13-.37-.37-.63-.74-.81-.37-.17-.73-.19-1.09-.06l-51.77,18.55c-.37.13-.63.37-.81.74-.17.37-.19.72-.06,1.09l4.73,13.2-13.23,4.74-4.73-13.2c-.13-.37-.38-.63-.74-.81-.21-.1-.41-.15-.62-.15ZM96.01,139.53l-1.66-4.64,18.28-6.55.08,5.2-16.7,5.98ZM95.27,135.33l1.17,3.27,15.52-5.56-.06-3.67-16.64,5.96ZM90.46,124.04l-1.66-4.64,23.56-8.44.08,5.35-.34.03c-.14.01-.25.03-.36.07l-21.29,7.63ZM89.72,119.84l1.17,3.27,20.6-7.38c.07-.02.13-.04.2-.06l-.06-3.68-21.92,7.85ZM126.82,121.13l-.25-16.21,10.11,12.68-9.86,3.53ZM127.34,107.04l.2,13.06,7.95-2.85-8.15-10.22ZM160.08,101.5l-2.63-7.33,8.18-2.93c1.08-.38,2.04-.28,2.87.31.79.56,1.36,1.34,1.72,2.33.36,1,.38,1.94.07,2.8h0c-.32.89-1,1.53-2.03,1.89l-8.18,2.93ZM158.38,94.61l2.14,5.96,7.5-2.69c.82-.29,1.34-.77,1.59-1.45h0c.26-.71.24-1.47-.07-2.31-.3-.84-.79-1.51-1.45-1.98-.63-.45-1.35-.52-2.2-.21l-7.5,2.69Z" />
    <path class="cls-6"
      d="M169.58,74.45l43.27-15.5c.46-.16.92-.14,1.37.08.45.21.76.55.93,1.01l3.62,10.09c.17.46.14.92-.07,1.37-.21.46-.55.76-1.01.93l-13.48,4.83,10.29,28.72c.16.46.14.92-.07,1.37-.22.45-.55.76-1.01.93l-12.92,4.63c-.46.16-.92.14-1.37-.07-.45-.21-.76-.55-.93-1.01l-10.29-28.72-13.48,4.83c-.46.16-.92.14-1.37-.07-.45-.21-.76-.55-.93-1.01l-3.62-10.09c-.16-.46-.14-.92.07-1.37.21-.45.55-.76,1.01-.93Z" />
    <path class="cls-7"
      d="M212.85,58.95l-37.36,13.39-5.26,1.88-.65.23c-.46.16-.8.47-1.01.93-.22.45-.24.91-.07,1.37l3.62,10.09c.17.46.47.8.93,1.01.45.22.91.24,1.37.07l10.27-3.68c-1.11-2.8-2.6-5.41-4.48-7.66,0,0,33.11-17.81,32.65-17.64Z" />
    <path class="cls-5"
      d="M199.89,113.38c-.31,0-.62-.07-.93-.22-.54-.26-.92-.67-1.12-1.22l-10.17-28.38-13.14,4.71c-.55.2-1.11.17-1.65-.09-.54-.26-.92-.67-1.11-1.22l-3.62-10.09c-.2-.55-.17-1.11.09-1.65.26-.54.67-.92,1.22-1.12l43.27-15.5c.55-.2,1.11-.17,1.65.09.54.26.92.67,1.12,1.22l3.62,10.1c.2.55.17,1.11-.09,1.65-.26.54-.67.92-1.22,1.12l-13.14,4.71,10.17,28.38c.2.55.17,1.11-.09,1.65-.26.54-.67.92-1.22,1.12l-12.92,4.63c-.24.09-.48.13-.72.13ZM188.12,82.63l10.41,29.06c.13.37.37.63.74.81.37.17.72.19,1.09.06l12.92-4.63c.37-.13.63-.37.81-.74.17-.37.19-.72.06-1.09l-10.41-29.06,13.82-4.95c.37-.13.63-.37.81-.74.17-.37.19-.72.06-1.09l-3.62-10.1c-.13-.37-.37-.63-.74-.81-.37-.17-.73-.19-1.09-.06l-43.27,15.5c-.37.13-.63.37-.81.74-.17.37-.19.72-.06,1.09l3.62,10.09c.13.37.37.63.74.81.37.17.72.19,1.09.06l13.82-4.95Z" />
    <path class="cls-6"
      d="M194.49,112.86c.14.14.27.35.37.65.1.29.07.62-.1.99-.17.37-.45.62-.83.76l-14.23,5.1c-1.25.45-2.32.24-3.2-.62l-9.97-10.44-5.27,1.89,4.4,12.29c.16.46.14.92-.07,1.37-.22.45-.55.76-1.01.93l-13.54,4.85c-.46.16-.92.14-1.37-.07-.45-.21-.76-.55-.93-1.01l-14.51-40.51c-.16-.46-.14-.92.07-1.37.21-.45.55-.76,1.01-.93l24.39-8.74c5.73-2.05,10.75-2.32,15.07-.8,4.32,1.52,7.32,4.62,8.99,9.3,2.04,5.68,1.32,10.59-2.16,14.71l12.88,11.66ZM154.73,92.93l2.38,6.65,7.84-2.81c.92-.33,1.52-.89,1.81-1.67.28-.79.26-1.64-.07-2.56-.33-.92-.86-1.64-1.59-2.16-.73-.52-1.57-.6-2.53-.26l-7.84,2.81Z" />
    <path class="cls-7"
      d="M159.7,77.99l-24.39,8.74c-.46.16-.8.47-1.01.93-.22.45-.24.91-.07,1.37l14.51,40.51c.16.46.47.8.93,1.01.45.21.91.24,1.37.07l11.72-4.2-26.37-37.78s29.04-12.7,23.32-10.65Z" />
    <path class="cls-5"
      d="M150.44,131.09c-.31,0-.62-.07-.93-.22-.54-.26-.92-.67-1.12-1.22l-14.51-40.51c-.2-.55-.17-1.11.09-1.65.26-.54.67-.92,1.22-1.12l24.39-8.74c5.78-2.07,10.93-2.34,15.31-.8,4.41,1.55,7.51,4.75,9.22,9.52,2.03,5.67,1.36,10.64-2,14.8l12.63,11.43c.19.18.34.44.46.78.14.39.1.81-.12,1.27-.22.46-.56.78-1.03.94l-14.23,5.1c-1.39.5-2.59.26-3.57-.71l-9.81-10.27-4.7,1.68,4.28,11.95c.2.55.17,1.11-.09,1.65-.26.54-.67.92-1.22,1.12l-13.54,4.85c-.24.09-.48.13-.72.13ZM168.89,76.59c-2.79,0-5.82.58-9.06,1.74l-24.39,8.74c-.37.13-.63.37-.81.74-.17.37-.19.72-.06,1.09l14.51,40.51c.13.37.37.63.74.81.37.17.72.19,1.09.06l13.54-4.85c.37-.13.63-.37.81-.74.17-.37.19-.72.06-1.09l-4.53-12.63,5.83-2.09,10.13,10.61c.77.76,1.69.93,2.81.53l14.23-5.1c.28-.1.49-.29.62-.57.13-.28.16-.51.09-.71-.1-.29-.21-.43-.28-.5l-13.14-11.89.23-.27c3.37-4,4.07-8.83,2.09-14.35-1.63-4.55-4.58-7.61-8.77-9.08-1.79-.63-3.71-.94-5.76-.94ZM156.89,100.04l-2.63-7.33,8.18-2.93c1.07-.38,2.04-.28,2.87.31.79.56,1.36,1.34,1.72,2.33.36,1,.38,1.94.07,2.81-.32.89-1,1.52-2.03,1.89l-8.18,2.93ZM155.19,93.15l2.14,5.96,7.5-2.69c.82-.29,1.34-.77,1.59-1.45.25-.7.23-1.48-.07-2.31-.3-.84-.79-1.51-1.45-1.98-.63-.45-1.35-.52-2.2-.21l-7.5,2.69Z" />
    <path class="cls-6"
      d="M123.12,140.63l-11.85,4.25c-.38.13-.75.12-1.12-.06-.37-.17-.6-.39-.69-.64-.09-.25-.14-.45-.14-.59l-.69-44.97c-.12-1.51.58-2.54,2.08-3.08l17.43-6.25c1.5-.54,2.69-.19,3.56,1.06l28.03,35.17c.09.11.17.29.26.54.09.25.05.56-.13.93-.17.37-.45.62-.83.76l-11.85,4.25c-1.34.48-2.53.11-3.59-1.12l-3.14-3.83-15.3,5.48v4.95c-.03,1.62-.72,2.66-2.05,3.14ZM132.89,115.97l-9.13-11.45.22,14.64,8.9-3.19Z" />
    <path class="cls-7"
      d="M128.15,89.3l-17.43,6.25c-1.5.54-2.2,1.57-2.08,3.08l.69,44.97c0,.14.05.34.14.59.09.25.32.46.69.64.37.18.74.19,1.12.06l11.85-4.25c1.34-.48,2.02-1.53,2.06-3.14l-12.95-39.27s17.41-9.45,15.91-8.91Z" />
    <path class="cls-5"
      d="M110.78,145.33c-.26,0-.53-.06-.78-.18-.46-.21-.75-.5-.87-.84-.11-.3-.16-.52-.16-.7l-.69-44.97c-.13-1.64.67-2.84,2.32-3.43l17.43-6.25c1.65-.59,3.02-.18,3.98,1.19l28.01,35.15c.12.15.22.36.32.64.12.34.08.75-.14,1.21-.22.46-.56.77-1.03.94l-11.85,4.25c-1.49.53-2.83.12-3.98-1.23l-2.98-3.63-14.82,5.31v4.69c-.03,1.78-.81,2.95-2.29,3.49l-11.85,4.25c-.2.07-.41.11-.61.11ZM129.41,89.42c-.35,0-.73.07-1.14.22l-17.43,6.25c-1.34.48-1.94,1.37-1.84,2.71l.69,44.99c0,.05.02.19.12.47.07.2.31.34.5.43.28.13.56.15.84.05l11.85-4.25c1.19-.43,1.79-1.35,1.82-2.81v-5.2s15.78-5.66,15.78-5.66l3.3,4.02c.95,1.1,1.99,1.44,3.18,1.01l11.85-4.25c.28-.1.49-.29.62-.57.09-.19.18-.46.11-.65-.1-.28-.17-.39-.21-.44l-28.02-35.17c-.55-.78-1.21-1.16-2.01-1.16ZM123.63,119.67l-.25-16.21,10.11,12.68-9.86,3.53ZM124.15,105.58l.2,13.06,7.95-2.85-8.15-10.22Z" />
    <path class="cls-6"
      d="M93.03,137.61l25.02-8.96c.46-.16.92-.14,1.37.07.45.22.76.55.93,1.01l3.17,8.84c.16.46.14.92-.07,1.37-.22.45-.55.76-1.01.93l-39.63,14.2c-.46.16-.92.14-1.37-.07-.45-.21-.76-.55-.93-1.01l-14.51-40.51c-.16-.46-.14-.92.07-1.37.21-.45.55-.76,1.01-.93l39-13.98c.46-.16.92-.14,1.37.08.45.21.76.55.93,1.01l3.17,8.84c.17.46.14.92-.07,1.37-.21.46-.55.76-1.01.93l-24.39,8.74,1.42,3.95,20.94-7.5c.46-.16.92-.14,1.37.07.45.22.76.55.93,1.01l2.92,8.15c.16.46.14.92-.07,1.37-.21.46-.55.76-1.01.93l-20.94,7.5,1.42,3.95Z" />
    <path class="cls-7"
      d="M107.45,97.28c-.45-.21-.91-.24-1.37-.08l-39,13.98c-.46.16-.8.47-1.01.93-.22.45-.24.91-.07,1.37l14.51,40.51c.16.46.47.8.93,1.01.45.21.91.24,1.37.07l5.18-1.86-11.8-41.15,32.19-13.77c-.16-.46-.47-.8-.93-1.01Z" />
    <path class="cls-3" d="M106.08,97.2l-34.86,12.68-3.83,1.39.62,1.21s38.52-15.45,38.06-15.28Z" />
    <path class="cls-3"
      d="M110.73,115.7c-.16-.46-.47-.8-.93-1.01-.45-.21-.91-.24-1.37-.07l-15.97,5.72,18.72-3.39-.45-1.25Z" />
    <path class="cls-5"
      d="M82.21,155.54c-.31,0-.62-.07-.93-.22-.54-.26-.92-.67-1.12-1.22l-14.51-40.51c-.2-.55-.17-1.11.09-1.65s.67-.92,1.22-1.12l39-13.98c.55-.2,1.11-.17,1.65.09.54.26.92.67,1.12,1.22l3.17,8.84c.2.55.17,1.11-.09,1.65-.26.54-.67.92-1.22,1.12l-24.05,8.62,1.17,3.27,20.6-7.38c.55-.2,1.1-.17,1.65.09.54.26.92.67,1.12,1.22l2.92,8.15c.2.55.17,1.11-.09,1.65-.26.54-.66.92-1.22,1.12l-20.6,7.38,1.17,3.27,24.68-8.84c.55-.2,1.1-.17,1.65.09.54.26.92.67,1.12,1.22l3.17,8.84c.2.55.17,1.11-.09,1.65-.26.54-.67.92-1.22,1.12l-39.63,14.2c-.24.09-.48.13-.72.13ZM106.68,97.46c-.16,0-.31.03-.47.09l-39,13.98c-.37.13-.63.37-.81.74-.17.37-.19.72-.06,1.09l14.51,40.51c.13.37.37.63.74.81.37.17.72.19,1.09.06l39.63-14.2c.37-.13.63-.37.81-.74.17-.37.19-.72.06-1.09l-3.17-8.84c-.13-.37-.37-.63-.74-.81-.37-.17-.73-.19-1.09-.06l-25.36,9.09-1.66-4.64,21.29-7.63c.37-.13.63-.38.81-.74.17-.37.19-.72.06-1.09l-2.92-8.15c-.13-.37-.37-.63-.74-.81-.37-.17-.72-.19-1.09-.06l-21.29,7.63-1.66-4.64,24.73-8.86c.37-.13.63-.37.81-.74.17-.37.19-.72.06-1.09l-3.17-8.84c-.13-.37-.37-.63-.74-.81-.21-.1-.41-.15-.62-.15Z" />
    <path class="cls-6"
      d="M54.31,115.76l12.92-4.63c.46-.16.92-.14,1.37.08.45.21.76.55.93,1.01l14.51,40.51c.16.46.14.92-.07,1.37-.22.45-.55.76-1.01.93l-12.92,4.63c-.46.16-.92.14-1.37-.07-.45-.21-.76-.55-.93-1.01l-4.79-13.36-12.54,4.49,4.79,13.36c.16.46.14.92-.07,1.37-.22.45-.55.76-1.01.93l-12.92,4.63c-.46.16-.91.15-1.36-.04-.45-.19-.76-.54-.94-1.04l-14.51-40.51c-.16-.46-.14-.92.07-1.37.21-.45.55-.76,1.01-.93l12.92-4.63c.46-.16.92-.14,1.37.08.45.21.76.55.93,1.01l4.61,12.85,12.54-4.49-4.61-12.85c-.16-.46-.14-.92.07-1.37.21-.45.55-.76,1.01-.93Z" />
    <path class="cls-3"
      d="M25.93,127.58c.17-1.85,9.21-4.54,13.66-6.11-.4-.15-.8-.16-1.21-.01l-12.92,4.63c-.46.17-.8.47-1.01.93-.22.45-.24.91-.07,1.37l14.51,40.51c.18.5.49.85.94,1.04.11.05.22.08.33.11-4.29-14.35-14.41-40.62-14.24-42.47Z" />
    <path class="cls-3"
      d="M57.68,114.55l-3.37,1.21c-.46.16-.8.47-1.01.93-.22.45-.24.91-.07,1.37l4.61,12.85-.15-16.36Z" />
    <path class="cls-5"
      d="M40.56,170.46c-.29,0-.59-.06-.87-.19-.54-.23-.92-.65-1.14-1.25l-14.51-40.51c-.2-.55-.17-1.11.09-1.65.26-.54.67-.92,1.22-1.12l12.92-4.63c.55-.2,1.11-.17,1.65.09.54.26.92.67,1.12,1.22l4.48,12.51,11.86-4.25-4.48-12.51c-.2-.55-.17-1.11.09-1.65.26-.54.66-.92,1.22-1.12h0l12.92-4.63c.55-.2,1.1-.17,1.65.09.54.26.92.67,1.12,1.22l14.51,40.51c.2.55.17,1.11-.09,1.65-.26.54-.67.92-1.22,1.12l-12.92,4.63c-.55.2-1.11.17-1.65-.09-.54-.26-.92-.67-1.12-1.22l-4.66-13.01-11.86,4.25,4.66,13.01c.2.55.17,1.11-.09,1.65-.26.54-.67.92-1.22,1.12l-12.92,4.63c-.25.09-.5.13-.75.13ZM38.98,121.72c-.16,0-.31.03-.47.09l-12.92,4.63c-.37.13-.63.37-.81.74-.17.37-.19.72-.06,1.09l14.51,40.51c.15.41.39.68.74.83.36.16.72.17,1.09.04l12.92-4.63c.37-.13.63-.37.81-.74.17-.37.19-.72.06-1.09l-4.91-13.7,13.23-4.74,4.91,13.7c.13.37.37.63.74.81.37.17.72.19,1.09.06l12.92-4.63c.37-.13.63-.37.81-.74.17-.37.19-.72.06-1.09l-14.51-40.51c-.13-.37-.37-.63-.74-.81-.37-.17-.73-.19-1.09-.06l-12.92,4.63c-.37.13-.63.38-.81.74-.17.37-.19.72-.06,1.09l4.73,13.2-13.23,4.74-4.73-13.2c-.13-.37-.38-.63-.74-.81-.21-.1-.41-.15-.62-.15Z" />
  </g>
</svg>