<?xml version="1.0" encoding="UTF-8"?>
<svg id="Capa_2" xmlns="http://www.w3.org/2000/svg" viewBox="0 0 203.18 176.35">
  <defs>
    <style>
      .cls-1 {
        fill: #008cff;
      }

      .cls-2 {
        fill: #ffa340;
      }

      .cls-3 {
        fill: #00ffdb;
      }

      .cls-4 {
        fill: #7a00ba;
      }

      .cls-5 {
        fill: #fff;
      }

      .cls-6 {
        fill: #fffde6;
      }

      .cls-7 {
        fill: #fe0;
      }

      .cls-8 {
        fill: #ff387f;
      }
    </style>
  </defs>
  <g id="layer_1">
    <path class="cls-5"
      d="M172.47,58.3c-.24-.12-.48-.21-.73-.29-.75-.34-1.57-.67-2.48-.97.51-.27,1.07-.63,1.63-1.16.04-.04.09-.09.13-.13.86-.9,1.44-1.98,1.79-3.32.3-1.01.51-2.02.66-2.99.43,1.43,1.24,2.75,2.4,3.86.47.98,1.11,1.88,1.95,2.68,2.04,1.93,5.01,3.04,8.14,3.04,1.27,0,2.49-.18,3.64-.55,3.53-1.11,5.97-3.73,6.68-7.19.56-2.7.08-5.4-1.26-7.5.18-.17.37-.33.54-.52,1.28-1.46,1.72-3.07,1.98-4,.15-.55.37-1.25.61-2.08l.09-.31c4.58-15.26,6.6-25.12,3.34-30.34-.39-.63-.87-1.18-1.39-1.65-.16-.35-.33-.68-.53-.99-1.17-1.87-2.98-3.1-5.11-3.45-1.8-.3-3.64-.45-5.47-.45-1.61,0-3.25.12-4.89.35-2.14.32-3.92.86-5.41,1.65-.15,0-.29-.01-.44-.01-.45,0-.9.02-1.32.04-.19.01-.39.02-.6.03-.3,0-30.65,1.11-37.53,5.79-.09.06-.21.14-.34.24-2.81-1.32-6.04-2.03-9.56-2.03-5.39,0-10.95,1.63-15.38,4.41-1.34-1.61-3.79-3-8.3-3-1.71,0-3.36.19-4.47.31l-.44.05c-8.36.87-10.21,5.49-10.6,7.88-.35-.5-.74-.94-1.16-1.31-1.21-2.62-3.26-3.85-5.1-4.41-1.21-.38-2.56-.56-4.14-.56s-3.03.17-4.24.32l-.66.08c-4.9.53-7.54,2.35-8.96,4.22-.44-.24-.86-.44-1.23-.6-1.16-.49-2.42-.91-4.03-1.33-3.02-.76-6.22-1.16-9.26-1.16-6.58,0-12.11,1.83-15.99,5.29-4.13,3.69-6.05,9.7-4.78,14.95.59,2.43,1.76,4.36,3.19,5.91.81,1.46,1.84,2.68,2.98,3.69-.15.06-.29.13-.44.21l-.46-.28c-.78-.47-1.68-.72-2.6-.72-.97,0-1.92.28-2.72.8-1.6,1.03-2.49,2.92-2.26,4.81l2.14,17.98c-.87-.6-1.91-.96-3.02-.96-.37,0-.75.04-1.12.12l-.51.11-.02-.39c-.17-2.83-2.53-5.05-5.36-5.05-.08,0-.25,0-.33,0-1.43.09-2.75.73-3.7,1.8-.95,1.08-1.43,2.46-1.34,3.89l.12,2.01-1.79.38c-2.9.62-4.75,3.48-4.13,6.38.53,2.46,2.74,4.25,5.25,4.25.38,0,.76-.04,1.13-.12l.21-.05.03.46c.17,2.83,2.53,5.04,5.36,5.04.09,0,.33,0,.33,0,.04,0,.07-.01.11-.02l-18.93,11.78c-1.61,1-2.51,2.8-2.35,4.69.16,1.89,1.35,3.51,3.12,4.23l15.94,6.46c-.46.28-.9.61-1.27,1.03-.65.73-1.05,1.61-1.23,2.54-.8.42-1.5,1.03-2,1.81-.78,1.21-1.04,2.64-.74,4.05.42,1.95,1.9,3.45,3.74,4.01.93,1.63,2.66,2.73,4.65,2.73.08,0,.25,0,.33-.01.1,0,.2-.04.31-.05l-2.59,7.32c-.63,1.77-.23,3.72,1.05,5.09.95,1.02,2.29,1.61,3.68,1.61.45,0,.9-.06,1.31-.18l3.2-.87c.73,5.6,2,11.61,4.22,15.66.35.66.79,1.27,1.37,1.88.02.02.05.05.08.09,0,0,0,0,0,0l.06.06s.03.03.05.05c1.54,1.65,13.28,13.93,25.88,18.49,4.44,1.61,14.5,2.43,29.9,2.43,27.28,0,85.47-3.41,96.37-11.28,2.56-1.84,6.3-6.3,9.26-23.69,1.77-10.37,2.99-23.71,3.35-36.61.14-5.12.31-17.6-1.12-22.88-3.07-11.25-22.56-21.61-26.44-23.58Z" />
    <path class="cls-4"
      d="M198.23,8.64c-.57-.91-1.4-1.48-2.4-1.64-2.99-.5-6.06-.53-9.14-.09-2.2.33-3.83.93-5.01,1.81-.87-.17-1.74-.13-2.52-.09-.23.01-.46.02-.69.03-.29,0-29.84,1.31-35.46,5.13-.24.16-.69.46-.92.94-.26.47-.29.98-.3,1.34,0,.05,0,.1,0,.15-.14-.11-.27-.24-.41-.35-7.06-5.43-18.95-3.4-25.63,1.9-.84.67-1.62,1.4-2.34,2.18-.05-1.04-.15-2.03-.33-2.97-.69-3.66-6.9-2.95-9.89-2.61l-.47.05c-4.34.45-6.88,2.18-7.14,4.86-.45,4.14-.62,8.49-.53,12.95-3.08.27-5.58.65-7.81,1.21,0-.11,0-.21.01-.32.04-1.93.13-3.85.22-5.78.06-1.36.13-2.72.17-4.07.06-1.57.23-5.76-3.37-6.84-2.04-.64-4.65-.34-6.75-.09l-.68.08c-5.97.64-7.01,3.35-7.09,4.9-.29,5.18-.06,10.73.63,16.83-2.92-1.92-6.57-2.45-10.13-2.78-3.76-.33-6.56-1.07-8.81-2.32-.38-.21-.45-.31-.47-.35,0-.02,0-.1.08-.25.84-1.79,3.8-1.75,5.03-1.66,2.46.2,5.28.48,7.72,1.3.42.14.88,0,1.16-.34,1.68-2.06,2.63-4.65,2.68-7.29.04-1.5-.31-2.67-1.04-3.47-.55-.61-1.28-.96-1.91-1.22-.99-.42-2.08-.78-3.46-1.14-6.8-1.7-16.06-1.75-21.66,3.25-3.07,2.75-4.51,7.2-3.57,11.07,1.36,5.59,7.3,7.73,9.79,8.39.83.22,1.67.41,2.52.61,2.7.62,5.24,1.2,7.38,2.62,1.12.76,1.94,2,1.93,2.94,0,.54-.27.99-.82,1.36-.68.46-1.62.7-2.89.74-1.77.07-3.67-.09-5.69-.51-1.75-.34-3.55-.86-5.23-1.5-.21-.07-.4-.16-.58-.24-.93-.41-2.34-1.02-3.86.76-1.31,1.57-2.06,4.62-2.3,6.17-.02.14-.07.35-.13.59-.37,1.59-.59,2.78-.02,3.55,2.84,3.84,10.54,5.9,15.11,6.14.91.04,1.8.07,2.66.07,9.47,0,16.03-2.67,19.6-7.92v.04c.41,1.94,2.21,3.13,4.59,3.13.28,0,.58-.02.88-.05l5.47-.65c2.58-.32,2.58-3.36,2.58-4.76.04-2.92.05-5.83.07-8.74,2.91-.61,5.86-.96,8.77-1.05.32,3.2.75,6.65,1.36,11.03.35,2.24,2.46,3.54,5.25,3.23,1.02-.11,2.02-.23,3.02-.34l2.32-.27c2.54-.28,3.15-3.02,3.3-5.39,1.46,2.13,3.33,3.67,5.57,4.5,2.41.91,5.02,1.37,7.7,1.37s5.32-.44,7.95-1.31c6.55-2.17,11.54-7.4,13.7-14.36,1.38-4.44,1.98-9.1,1.73-13.26,2.2.04,5.16.04,8.48,0-2.58,7.34-4.09,15.08-4.49,23.01-.02.46.25.87.67,1.04,2.29.9,4.75,1.36,7.21,1.36s4.93-.46,7.22-1.37c.41-.16.87-.37,1.32-.79.51-.53.72-1.18.83-1.64.7-2.36.86-4.77.92-6.6.18-5.1-.35-10.23-1.6-15.27,4.31-.14,7.84-.29,10.33-.43.11,3.03.28,5.76.4,7.41.15,1.9.43,5.45,4.25,5.66l.44.03c1.02.07,2.06.13,3.08.13,2.43,0,4.65-.34,5.76-1.64.68-.78.94-1.72,1.15-2.47.18-.63.43-1.46.72-2.45,3.49-11.63,6.36-22.96,3.78-27.11ZM121.77,33.78c.38-1.87,1.11-3.23,2.33-4.26,1.25-1.06,3.12-1.76,4.87-1.76,1.15,0,2.24.3,3.08.98,2.27,1.85,2.26,6.11,1.26,9.51,0,0,0,0,0,0-.69,2.42-2.23,4.16-4.32,4.9-1.72.6-3.49.6-4.97,0-2.32-.92-2.51-4.69-2.52-5.82,0-.93.03-2.32.28-3.56Z" />
    <path class="cls-4"
      d="M187.97,43.5c-1.98-.53-4.18-.25-5.87.75-1.5.88-2.52,2.23-2.94,3.9-.49,1.89,0,3.66,1.39,4.97,1.33,1.26,3.38,1.96,5.42,1.96.84,0,1.67-.12,2.45-.36,2.15-.68,3.57-2.17,3.99-4.21.32-1.54.17-3.73-1.19-5.23-.75-.83-1.81-1.41-3.24-1.77Z" />
    <path class="cls-3"
      d="M190.79,35.26c-.2.72-.41,1.47-.92,2.06-1.46,1.72-6.24,1.26-8.41,1.12-2.89-.16-3.11-2.71-3.26-4.68-.13-1.64-.33-4.84-.44-8.45,2.08-.14,3.39-.3,3.43-.44,1.11-4.89,2.11-9.5,1.15-14.41-.03-.11-.04-.23-.07-.34-.18-.84-.45-1.73-1.06-2.25-.37-.31-.78-.52-1.21-.65.37-.34.79-.62,1.28-.85,1.09-.55,2.38-.86,3.66-1.05,2.89-.41,5.9-.4,8.81.09,6.42,1.06-1.32,24.09-2.95,29.86Z" />
    <path class="cls-3"
      d="M188.5,43.34c1.01,1.11,1.23,2.85.94,4.3-1.23,6-12.76,4.31-11.17-1.87.85-3.37,4.5-4.69,7.52-3.89.99.26,2.01.68,2.72,1.46Z" />
    <path class="cls-3"
      d="M181.19,24.87c-.04.14-1.35.3-3.43.44-3.02.2-7.71.38-12.72.54,1.43,5.26,2.1,10.78,1.9,16.25-.07,2.16-.27,4.3-.88,6.34-.11.45-.27.88-.58,1.21-.27.26-.61.41-.94.54-4.34,1.73-9.3,1.73-13.65.01.41-8.27,2.07-16.45,4.95-24.15-4.54.07-8.64.07-11.15,0-.17-1.79-.54-3.53-1.12-5.16-.62-1.79-1.52-3.43-2.72-4.85.01-.89.06-1.76.1-2.62,0-.28.03-.58.16-.81.13-.27.37-.44.58-.58,5.05-3.43,32.97-4.89,34.9-4.95,1.11-.03,2.33-.2,3.42.14.43.13.84.34,1.21.65.61.52.88,1.42,1.06,2.25.03.11.04.23.07.34.96,4.91-.04,9.51-1.15,14.41Z" />
    <path class="cls-3"
      d="M144.69,26.05c-.17-1.79-.54-3.53-1.12-5.16-.62-1.79-1.52-3.43-2.72-4.85-.01-.01-.03-.04-.06-.06h0c-.57-.71-1.23-1.35-1.97-1.91-6.51-5.01-17.72-3.35-24.32,1.89-1.7,1.35-3.05,2.88-4.1,4.52-.16,2.91-.61,5.83-.82,8.61-.2,5.66-.82,11.34-1.3,17,1.23,3.4,3.37,6.34,6.85,7.63,4.68,1.77,10.03,1.67,14.95.04,6.42-2.13,11-7.17,13.02-13.67,1.32-4.24,2.08-9.32,1.6-14.04ZM132.41,35.9c-.77,2.67-2.52,4.74-4.99,5.62-1.89.65-3.94.69-5.71-.01-2.45-.98-3.18-4.18-3.19-6.81,0-1.26.06-2.57.3-3.77.37-1.84,1.13-3.54,2.68-4.86,2.52-2.16,6.82-2.84,9.32-.79,2.81,2.3,2.64,7.15,1.6,10.63Z" />
    <path class="cls-3"
      d="M110.4,20.47c-.16,2.91-.61,5.83-.82,8.61-.2,5.66-.82,11.34-1.3,17-.03.31-.06.62-.07.94-.14,1.72.44,7.2-2.44,7.52-1.77.2-3.54.41-5.35.61-.04,0-.07.01-.11.01-1.99.18-3.69-.58-3.97-2.35-.55-3.97-1.06-7.95-1.45-11.95-.6,0-1.21.03-1.8.06h-.01c-3.03.14-6.03.55-8.98,1.22-.01,3.19-.03,6.38-.07,9.59,0,1.28.06,3.5-1.64,3.71-1.81.21-3.63.44-5.46.65-.95.11-1.86.01-2.59-.28-.86-.35-1.5-1.01-1.7-1.96-.2-.98-.4-1.96-.6-2.92.3-.77.51-1.57.64-2.4.07-.34.11-.69.14-1.05.03-.35.06-.69.06-1.05v-.04c0-.26,0-.52-.03-.78,0-.24-.03-.47-.06-.71-.04-.55-.14-1.09-.27-1.63-.01-.01-.01-.03-.01-.06-.04-.2-.1-.4-.16-.6-.27-.96-.65-1.89-1.15-2.75-.16-.28-.33-.55-.52-.82,0-.01-.01-.03-.04-.06-.18-.28-.41-.57-.64-.84l-.16-.16c-.85-6.41-1.28-12.86-.92-19.28.14-2.65,3.37-3.6,6.14-3.9,2.07-.23,4.96-.67,7-.03.82.26,1.39.69,1.8,1.29h0c.82,1.25.88,3.03.82,4.49-.11,3.29-.33,6.58-.4,9.87-.03.58-.03,1.16-.04,1.74.11-.03.24-.07.35-.1,3.11-.88,6.37-1.29,9.64-1.53-.14-4.61,0-9.22.5-13.81.27-2.69,3.49-3.63,6.2-3.91,2.1-.23,8.49-1.15,9.17,1.59.01.04.01.07.03.11.35,1.94.4,3.94.27,5.96Z" />
    <path class="cls-3"
      d="M72.87,46.38v.04c0,.35-.03.69-.06,1.05-.03.35-.07.71-.14,1.05-.13.82-.34,1.63-.64,2.4-.27.74-.62,1.45-1.04,2.11-.45.71-.95,1.36-1.5,1.96-4.86,5.37-13.26,6.15-20.12,5.83-4.32-.23-11.73-2.23-14.31-5.71-.43-.57.23-2.64.34-3.33.26-1.64,1.01-4.38,2.07-5.66,1.22-1.43,2-.65,3.26-.2,1.67.64,3.52,1.18,5.39,1.55,2,.41,4.03.61,5.94.52,1.21-.04,2.44-.26,3.43-.92,2.51-1.69.95-4.68-1.11-6.07-3.02-2-6.75-2.45-10.22-3.37-3.8-1.01-8.01-3.4-9.03-7.61-.86-3.57.57-7.63,3.25-10.02,5.29-4.72,14.18-4.64,20.69-3.01,1.12.3,2.23.64,3.3,1.09.55.23,1.13.51,1.53.95.65.71.79,1.76.77,2.72-.04,2.42-.92,4.79-2.44,6.65-2.5-.84-5.35-1.13-7.97-1.35-2.3-.18-5.1.17-6.08,2.27-.16.31-.24.67-.14.99.11.47.57.77.98.99,2.81,1.56,6.04,2.17,9.23,2.45,3.25.3,6.68.72,9.43,2.45.78.48,1.5,1.06,2.16,1.79l.16.16c.23.27.45.55.64.84.03.03.04.04.04.06.2.27.37.54.52.82.5.86.88,1.79,1.15,2.75.06.2.11.4.16.6,0,.03,0,.04.01.06.13.54.23,1.08.27,1.63.03.24.06.47.06.71.03.26.03.52.03.78Z" />
    <path class="cls-5"
      d="M182.48,44.66c-1.34.57-2.44,1.9-2.38,3.35.04.84.44,1.62.58,2.45-1.01.16-1.81-.81-2.25-1.74-1.97-4.18,1.6-5.84,5.09-6.5.65-.12,1.32-.25,1.98-.16,1.12.15,5.15,2.86,2.11,2.52-1.78-.19-3.38-.68-5.13.07Z" />
    <path class="cls-5"
      d="M183.17,10.62c-.23,2.81-.45,5.61-.75,8.43-.12,1.14-.27,2.27-.44,3.4-.08.54-.1,1.2-.28,1.71-.14.39-.53.25-.61.59-.27,1.22.73,13.45.56,13.48-.97.18-1.95-.4-2.53-1.2s-.81-1.79-1-2.76c-.37-1.86-.84-3.71-1.01-5.61-.26-2.87-.09-3.76,2.77-4.33.26-.05.54-.11.72-.31.15-.16.21-.38.27-.59.53-2.01.78-3.61.78-5.68-.03-1.64.08-3.27.27-4.9.1-.83.21-1.67.09-2.5-.12-.83-.52-1.66-1.23-2.09,1.16-3.19,4.09-3.41,7.06-3.12,1.27.12,5.71-.09,6.53,1.13.14.21.23.51.47.56.15.03.31-.05.45,0,.13.05.2.19.26.31.16.36.33.73.3,1.12-.03.39-.33.79-.72.79-.32,0-.57-.25-.84-.41-.34-.19-.73-.25-1.11-.29-2.9-.35-5.84-.26-8.72.26-.44.08-.93.21-1.13.61-.08.16-.1.34-.11.51-.03.3-.05.59-.07.89Z" />
    <path class="cls-5"
      d="M153.78,45.36c-.37,1.9-.68,4.07.48,5.62-1.39-.09-3.07-.38-3.54-1.68-.19-.52-.13-1.1-.07-1.66.71-5.89,1.67-12.29,3.82-17.85.21-.54,1.89-3.97,2.79-3.36.68.47-1.23,7.24-1.42,8.2l-2.06,10.72Z" />
    <path class="cls-5"
      d="M182.34,10.46c-.06.16-.13.3-.2.44-.09.16-.18.31-.34.38-.31.13-.64-.11-.91-.33-.68-.54-1.47-.94-2.31-1.15-1.36-.34-2.81-.2-4.21-.04-4.99.52-10,1.05-15,1.59-4.3.45-8.61.91-12.76,2.07-.86.24-1.77.55-2.25,1.29-.35.57-.41,1.26-.45,1.93,0,1.06,0,2.31-.18,3.36-.07.4-.1.69-.14.88-.07.38-.18.35-.75-.21-.91-.89-1.5-2.94-2.03-4.69.03.01.04.04.06.06.01-.89.06-1.76.1-2.62,0-.28.03-.58.16-.81.13-.27.37-.44.58-.58,5.05-3.43,32.97-4.89,34.9-4.95,1.11-.03,2.33-.2,3.42.14.37-.34.79-.62,1.28-.85,1.01,1.11,1.55,2.74,1.06,4.1Z" />
    <path class="cls-5"
      d="M128.24,43.38c.82-.15,1.62-.42,2.37-.81,3.1-1.6,4.16-6.02,4.33-9.23.08-1.53.09-3.08-.33-4.55s-1.33-2.85-2.69-3.5c2.04,4.43,1.14,9.78-1.11,14.11-.26.49-.53.99-.94,1.36-2.08,1.93-6.01,1.88-8.51,1.11,1.96,1.42,4.51,1.95,6.87,1.51Z" />
    <path class="cls-5"
      d="M110.61,46.01c-1.42-3.65-1.42-7.69-1.2-11.6.12-2.07.29-4.14.79-6.15,1.45-5.91,5.81-11.04,11.41-13.42,5.94-2.53,13.54-1.68,17.91,3.08,2.74,2.98,3.95,7.04,4.65,11.03.11-2.06.03-4.13-.23-6.17-.22-1.72-.59-3.46-1.53-4.92-.85-1.32-2.1-2.31-3.38-3.22-2-1.43-4.13-2.74-6.5-3.38-5.79-1.56-11.8,1.1-17.21,3.69-1.48.71-3,1.45-4.1,2.66-2.03,2.24-2.21,5.54-2.29,8.56-.13,5.28-.26,10.56-.39,15.83-.05,2.22-.09,4.54.84,6.56.98,2.15,2.97,3.71,5.14,4.64,2.13.92,4.48,1.33,6.78,1.6-4.59-1.44-8.87-4.12-10.68-8.78Z" />
    <path class="cls-5"
      d="M83.86,16.08c-.07.77-.2,1.56-.18,2.33-.99-1.26-2.62-1.89-4.23-2-1.6-.11-3.2.21-4.76.54-.84.18-1.73.38-2.31,1.02-.64.71-.71,1.74-.74,2.69-.08,3.06-.1,6.11-.01,9.17.11,4.47.4,8.93.88,13.37,0,.03,0,.04.01.06.1,1.05.21,2.08.35,3.12v.04c.34,2.76.77,5.54,1.25,8.29.07.38.14.74.21,1.08-.86-.35-1.5-1.01-1.7-1.96,0-1.88-.7-4-1.07-5.85-1.94-9.6-3.17-19.47-2.64-29.29.14-2.65,3.37-3.6,6.14-3.9,2.07-.23,4.96-.67,7-.03.82.26,1.39.69,1.8,1.3Z" />
    <path class="cls-5"
      d="M110.1,14.4c-.94.58-2.16.47-3.28.35-2.85-.3-5.81-.43-8.49.6-1.18,1.39-1.4,3.32-1.55,5.13-.28,4.01-.33,8.05-.1,12.08-3.7.88-7.46,1.43-11.26,1.66-.24.03-.51.03-.68-.16-.14-.13-.17-.33-.18-.51-.04-.48-.03-.98.03-1.49,3.11-.88,6.37-1.29,9.64-1.53-.14-4.61,0-9.22.5-13.81.27-2.69,3.49-3.63,6.2-3.91,2.1-.23,8.49-1.15,9.17,1.59Z" />
    <path class="cls-5"
      d="M100.31,55.16c-1.99.18-3.69-.58-3.97-2.35-.55-3.97-1.06-7.95-1.45-11.95-.6,0-1.21.03-1.8.06,1.15-.68,3.29-1.7,3.79-1.11.13.14.14.34.16.51.4,4.38.72,8.83,2.37,12.89.11.31.64.57.65.24.14.57.21,1.13.26,1.72Z" />
    <path class="cls-5"
      d="M63.33,36.82c3.15,1.02,5.94,2.71,7.7,5.91.08.15.17.31.32.41.15.09.37.09.46-.06.24-.4-1.75-4.44-2.15-5.08-1.02-1.65-2.85-2.17-4.64-2.47-3.56-.61-7.09-1.36-10.59-2.24-2.04-.52-3.68-1.26-5.51-2.26-.31-.17-.63-.34-.85-.62-.22-.27-.33-.67-.18-.98-.22-.06-.36.24-.38.47-.26,3.07,2.22,4.29,4.74,4.78,3.51.68,7.52,1,11.07,2.15Z" />
    <path class="cls-5"
      d="M45.54,38.31c3.33,1,6.29,1.86,9.36,3.54,1.39.76,2.67,2.37,2.02,3.82-.32.73-1.05,1.19-1.77,1.53-3.32,1.57-7.38,1.44-10.59-.33-.76-.42-1.48-.92-2.29-1.23-1.18-.44-2.48-.42-3.74-.4-.42,0-.85.02-1.22.22-.51.28-.77.87-.97,1.43-.6,1.65-1.06,3.35-1.37,5.09-.22,1.24-.32,2.66.49,3.63.1.12.23.24.39.28.43.09.7-.43.83-.85.7-2.28,1.94-4.51,3.03-6.63,4.46,1.2,9.09,2.41,13.64,1.65,1.17-.19,2.34-.53,3.3-1.22,3.13-2.25,3.39-6.44.56-9.04-1.29-1.19-2.93-1.91-4.57-2.54-2.39-.92-4.84-1.68-7.34-2.27-2.48-.59-5.87-1.71-7.1-4.18-1.48-2.96.23-7.47,2.47-9.64,2.38-2.31,5.83-3.08,9.05-3.16,2.51-.06,5.04.2,7.5.69.74.15,7.21,1.62,6.64,2.84.24-.5.27-.98.16-1.42-.38-1.51-2.45-2.6-3.85-2.92-1.97-.45-4.17-.23-6.17-.25-4.23-.02-8.53.04-12.43,1.87-3.11,1.47-5.88,4.06-6.22,7.65-.36,3.75,1.65,7.15,4.63,9.29,1.68,1.21,3.59,1.97,5.56,2.56Z" />
    <path class="cls-4"
      d="M51.98,61.94c-.86,0-1.75-.02-2.65-.07-4.57-.24-12.27-2.3-15.11-6.14-.58-.77-.36-1.96.02-3.55.06-.24.11-.45.13-.59.24-1.55,1-4.6,2.3-6.17,1.52-1.78,2.92-1.17,3.86-.76.18.08.38.16.58.24,1.68.64,3.49,1.16,5.23,1.5,2.01.41,3.92.58,5.69.51,1.27-.04,2.21-.29,2.89-.74.55-.37.82-.82.82-1.36,0-.95-.81-2.19-1.93-2.94-2.14-1.42-4.68-2-7.38-2.62-.85-.19-1.69-.39-2.52-.61-2.49-.66-8.44-2.8-9.79-8.39-.94-3.87.5-8.32,3.57-11.07,5.59-4.99,14.85-4.95,21.65-3.25,1.38.37,2.48.73,3.46,1.14.63.26,1.36.61,1.91,1.22.73.79,1.08,1.96,1.04,3.47-.05,2.64-1,5.23-2.68,7.29-.28.34-.74.48-1.16.34-2.44-.82-5.26-1.1-7.72-1.3-1.24-.1-4.2-.14-5.03,1.66-.08.15-.09.23-.08.25.02.05.1.15.47.35,2.26,1.25,5.05,1.99,8.81,2.33,4.5.41,9.15,1.11,12.28,4.59.39.44.36,1.11-.08,1.5-.44.39-1.11.36-1.5-.08-2.62-2.91-6.65-3.5-10.89-3.89-2.55-.23-6.34-.74-9.65-2.58-.37-.21-1.26-.69-1.5-1.67-.15-.5-.08-1.11.22-1.72.99-2.12,3.52-3.14,7.12-2.85,2.35.19,5.02.45,7.49,1.17,1.11-1.59,1.74-3.49,1.77-5.43.03-.94-.14-1.6-.48-1.98-.27-.3-.76-.52-1.15-.69-.9-.38-1.9-.71-3.17-1.05-6.26-1.57-14.73-1.67-19.71,2.77-2.47,2.21-3.67,5.9-2.92,8.98,1.12,4.61,6.61,6.4,8.27,6.84.81.21,1.63.4,2.45.59,2.76.63,5.62,1.29,8.09,2.92,1.33.9,2.88,2.67,2.88,4.71,0,.88-.31,2.14-1.77,3.12-1.02.68-2.32,1.04-3.99,1.1-1.93.09-4.01-.1-6.19-.55-1.86-.36-3.78-.92-5.55-1.59-.23-.08-.47-.19-.7-.28-.86-.37-.89-.39-1.38.18-.82.99-1.56,3.38-1.83,5.13-.03.19-.09.44-.16.74-.1.42-.35,1.49-.31,1.88,2.37,3.06,9.3,4.98,13.44,5.2,10.35.5,17.31-1.95,20.67-7.29.39-.62.7-1.27.94-1.91.2-.55.81-.83,1.36-.63.55.2.84.81.63,1.36-.28.78-.66,1.55-1.13,2.31-3.49,5.55-10.19,8.35-19.93,8.35ZM35.92,54.46s0,0,0,0c0,0,0,0,0,0Z" />
    <path class="cls-4"
      d="M76.17,57.19c-2.38,0-4.17-1.19-4.58-3.13l-.6-2.92c-.04-.2-.02-.4.05-.59,1.5-3.96.75-8.66-1.85-11.71-.17-.17-.37-.48-.4-.71-.95-7.18-1.26-13.55-.93-19.48.08-1.55,1.11-4.25,7.09-4.9l.68-.08c2.1-.24,4.72-.55,6.75.09,3.59,1.08,3.43,5.27,3.37,6.84-.05,1.36-.11,2.71-.17,4.08-.09,1.92-.18,3.85-.22,5.78,0,.11,0,.22-.01.32,2.24-.56,4.73-.94,7.81-1.21-.1-4.46.08-8.81.53-12.95.27-2.68,2.8-4.4,7.14-4.86l.47-.05c2.99-.34,9.21-1.05,9.89,2.61.34,1.86.43,3.9.29,6.22-.04.59-.54,1.04-1.13.99-.59-.04-1.03-.54-.99-1.13.14-2.15.05-4.01-.25-5.7-.15-.78-1.58-1.57-7.56-.89l-.48.05c-1.87.2-5.04.84-5.25,2.96-.47,4.36-.64,8.96-.49,13.67.02.57-.42,1.05-.98,1.09-4.08.31-7.1.8-9.77,1.59-.33.1-.68.03-.95-.18-.27-.21-.43-.53-.42-.87v-.56c.02-.4.02-.8.04-1.21.04-1.91.13-3.86.22-5.8.06-1.35.13-2.7.17-4.05.11-2.89-.45-4.3-1.87-4.73-1.62-.51-3.98-.23-5.88-.01l-.7.08c-1.89.2-5.08.85-5.19,2.9-.32,5.71-.03,11.84.87,18.74,3,3.54,3.9,8.92,2.29,13.5l.54,2.63c.27,1.27,1.85,1.55,3.13,1.4l5.46-.65c.59-.07.71-1.07.71-2.54.04-3.34.06-6.52.07-9.71,0-.5.35-.92.83-1.03,3.65-.82,7.36-1.26,11.01-1.3.58.04,1.02.41,1.07.96.33,3.44.77,7.12,1.44,11.91.26,1.64,2.47,1.48,2.91,1.43.99-.11,1.98-.22,2.96-.34l2.38-.27c1.43-.16,1.45-3.6,1.46-5.26,0-.52,0-.97.03-1.29.01-.29.04-.62.07-.94.05-.59.58-1.02,1.16-.96.59.05,1.02.57.96,1.16-.03.3-.05.59-.07.89-.03.32-.03.71-.03,1.17-.02,2.45-.04,7-3.36,7.36l-2.37.27c-.99.11-1.97.23-2.97.34-2.78.31-4.9-.99-5.25-3.23-.61-4.39-1.04-7.84-1.36-11.03-2.91.09-5.86.44-8.77,1.05-.01,2.91-.03,5.82-.07,8.74,0,1.4,0,4.43-2.58,4.76l-5.47.65c-.3.03-.59.05-.88.05Z" />
    <path class="cls-4"
      d="M122.45,56.07c-2.68,0-5.29-.46-7.7-1.37-3.38-1.26-5.97-4.11-7.47-8.26-.05-.14-.07-.3-.06-.45.12-1.41.25-2.81.38-4.22.38-4.18.78-8.5.92-12.73.1-1.26.23-2.5.37-3.75.18-1.6.36-3.25.45-4.87,0-.18.07-.36.17-.51,1.16-1.81,2.62-3.42,4.33-4.78,6.68-5.3,18.57-7.32,25.63-1.9.82.62,1.56,1.35,2.21,2.15.37.46.3,1.13-.16,1.49-.46.37-1.13.3-1.49-.16-.54-.67-1.16-1.27-1.84-1.79-6.28-4.83-16.97-2.93-23.01,1.87-1.46,1.16-2.71,2.51-3.71,4.03-.1,1.59-.27,3.17-.44,4.71-.14,1.23-.27,2.45-.36,3.64-.15,4.24-.55,8.59-.93,12.8-.12,1.33-.24,2.65-.36,3.97,1.31,3.47,3.37,5.75,6.14,6.78,4.31,1.64,9.37,1.64,14.24.03,5.97-1.98,10.35-6.59,12.34-12.97,1.43-4.6,1.99-9.44,1.56-13.61-.06-.58.37-1.11.95-1.17.59-.06,1.11.37,1.17.95.45,4.45-.13,9.59-1.64,14.46-2.16,6.96-7.15,12.2-13.7,14.36-2.64.87-5.33,1.31-7.95,1.31Z" />
    <path class="cls-4"
      d="M124.49,43.08c-1.11,0-2.19-.2-3.18-.6-3.45-1.38-3.85-5.91-3.86-7.79,0-1.66.1-2.88.32-3.99.47-2.33,1.46-4.12,3.03-5.46,2.75-2.34,7.61-3.32,10.68-.81,3.23,2.64,3.07,7.98,1.95,11.76-.88,3.05-2.94,5.35-5.65,6.32-1.09.38-2.21.57-3.29.57ZM127.06,25.11c-1.75,0-3.63.7-4.87,1.76-1.2,1.02-1.96,2.42-2.33,4.26-.25,1.24-.28,2.63-.28,3.56,0,1.13.21,4.9,2.52,5.82,1.48.59,3.25.59,4.97,0,2.09-.74,3.62-2.49,4.32-4.9,0,0,0,0,0,0,1.01-3.4,1.01-7.65-1.26-9.51-.84-.68-1.93-.98-3.08-.98Z" />
    <path class="cls-4"
      d="M157.7,52.54c-2.46,0-4.91-.45-7.21-1.36-.42-.17-.7-.59-.67-1.04.39-7.93,1.9-15.67,4.49-23.01-3.94.05-7.4.04-9.65-.02-.54-.01-.98-.43-1.03-.96-.38-3.91-1.59-7.08-3.59-9.42-.17-.2-.26-.45-.25-.71.01-.9.06-1.78.1-2.66,0-.3.03-.81.29-1.28.22-.48.67-.78.92-.94,5.61-3.82,35.16-5.12,35.46-5.13.23,0,.46-.02.69-.03.95-.05,2.03-.1,3.07.22.56.18.87.77.7,1.33-.17.56-.77.87-1.33.7-.68-.21-1.48-.17-2.33-.13-.25.01-.5.03-.74.03-3.39.1-29.77,1.67-34.33,4.77-.06.04-.19.13-.23.17-.02.04-.05.12-.05.34-.04.77-.07,1.5-.09,2.25,1.97,2.44,3.22,5.58,3.72,9.34,2.52.05,6.15.04,10.18-.02.34-.02.68.16.89.45.2.29.25.66.13.99-2.74,7.33-4.37,15.08-4.84,23.05,3.93,1.35,8.31,1.25,12.16-.28.22-.09.46-.19.6-.32.09-.1.19-.32.28-.69.65-2.17.79-4.4.85-6.11.19-5.32-.43-10.68-1.86-15.94-.09-.31-.02-.65.17-.91.19-.26.5-.42.82-.43,5.6-.17,9.98-.36,12.68-.54.58-.04,1.09.4,1.13.99.04.59-.41,1.09-.99,1.13-2.51.16-6.44.33-11.42.5,1.25,5.04,1.78,10.17,1.6,15.27-.06,1.83-.22,4.25-.92,6.6-.11.46-.32,1.1-.83,1.64-.44.42-.91.64-1.32.79-2.29.91-4.76,1.37-7.22,1.37Z" />
    <path class="cls-4"
      d="M184.9,39.66c-1.01,0-2.06-.06-3.08-.13l-.44-.03c-3.82-.21-4.1-3.75-4.25-5.66-.14-1.85-.33-5.05-.44-8.5-.02-.57.42-1.06.99-1.09,1.42-.1,2.2-.18,2.61-.24.99-4.37,1.94-8.95.93-13.66-.13-.6-.34-1.34-.72-1.67-.23-.2-.51-.35-.82-.44-.37-.11-.65-.41-.73-.78-.08-.37.04-.76.32-1.02,1.2-1.09,2.99-1.79,5.49-2.16,3.08-.44,6.15-.41,9.14.09,1,.17,1.83.73,2.4,1.64,2.59,4.15-.29,15.48-3.78,27.11-.3.99-.55,1.82-.72,2.45-.21.75-.47,1.69-1.15,2.47-1.11,1.3-3.33,1.64-5.76,1.64ZM178.85,26.3c.11,3.02.27,5.74.4,7.38.2,2.53.56,3.61,2.26,3.7l.46.03c1.66.12,6.06.42,7.08-.78.37-.42.54-1.04.71-1.65.18-.64.44-1.49.74-2.49,1.76-5.87,6.44-21.46,4.01-25.37-.25-.4-.54-.6-.94-.67-2.73-.45-5.66-.48-8.48-.08-1.24.18-2.26.45-3.06.81.76.74,1.08,1.78,1.28,2.72,1.15,5.37.02,10.37-1.08,15.21-.24.79-.66.98-3.37,1.19Z" />
    <path class="cls-4"
      d="M184.04,52.43c-2.04,0-4.09-.7-5.42-1.96-1.38-1.31-1.87-3.07-1.39-4.97.42-1.67,1.44-3.02,2.94-3.9,1.7-1,3.89-1.27,5.87-.74,1.43.37,2.49.95,3.24,1.77,1.36,1.5,1.51,3.68,1.19,5.23-.42,2.04-1.84,3.54-3.99,4.21-.78.25-1.62.36-2.45.36ZM184.01,42.72c-.98,0-1.95.25-2.75.72-.7.41-1.6,1.19-1.96,2.6-.29,1.15-.03,2.12.79,2.9,1.32,1.25,3.8,1.73,5.77,1.11.98-.31,2.21-1.01,2.54-2.61.27-1.3,0-2.62-.68-3.37-.46-.51-1.18-.88-2.2-1.15,0,0,0,0-.01,0-.49-.13-1-.2-1.5-.2Z" />
    <path class="cls-7"
      d="M82.09,67.55l-.64-3.12-4.35-21.08-18.84,17-25.32-15.34,3.89,32.71-31.79,19.78,28.67,11.63-8.71,24.59,8.9-2.41,21.77-5.9,8.14,10.17,2.58-11.83.24-.13c-.06-.1-.1-.21-.16-.31l.14-.28-11.39-5.46h0c-7.59-3.73-12.45-11.93-11.75-21.43.95-12.99,11.93-23.52,24.52-23.52,3.18,0,6.14.67,8.79,1.87l.11.06c.72.34,1.43.71,2.1,1.12l.1.06,7.61,4.04.2-.38,8.14-10.35-12.95-1.47Z" />
    <polygon class="cls-6"
      points="80.93 78.68 86.07 72.52 78.19 72.35 73.91 56.76 61.92 70.46 41.03 57.79 44.97 83.14 22.19 95.12 42.4 105.57 37.26 120.81 56.1 118.59 60.9 124.41 61.07 115.85 80.93 78.68" />
    <path class="cls-8"
      d="M194.08,83.2c.89,3.29,1.22,11.5.95,21.43h-.11c-1.46-1.13-5.5-3.36-8.59-4.17.35,7.69-1.62,28.73-3.59,36.21,5.08,1.77,8.89,3.84,8.89,3.84h.13c-1.73,10.18-4.13,18.23-7.25,20.48-11.37,8.21-107.18,13.44-121.63,8.21-11.56-4.18-22.5-15.67-23.96-17.24,8.39,8.24,62.05,6.14,97.2,1.64,15.92-2.06,28.05-4.59,30.47-6.89,5.73-5.46,9.74-27.22,10.56-47.18.68-15.98-.69-30.81-4.85-35.19-.52-.55-1.23-1.06-2.11-1.52l.03-.04s21.23,10.76,23.86,20.42Z" />
    <path class="cls-2"
      d="M177.15,99.54c-.82,19.95-4.84,41.72-10.56,47.18-2.34,2.21-13.73,4.66-28.84,6.68-.54.07-1.08.14-1.63.21l-.08-.72c-1.28-11.05-2.57-22.29-.48-33.24.3-1.57.67-3.16,1.4-4.61,1.06-2.1,2.82-3.83,4.72-5.33,9.51-7.57,22.55-10.34,35.07-10.18h.21s.2.01.2.01Z" />
    <path class="cls-5"
      d="M176.95,99.54c-.03.48-.17.96-.41,1.4-8.18-.43-16.48,1.19-23.92,4.65-2.21,1.04-4.34,2.23-6.42,3.5-2.31,1.4-4.59,2.95-6.25,5.09-3.01,3.87-3.5,9.08-3.66,13.97-.17,5.39-.04,10.78.35,16.15.2,2.58.2,5.46.82,7.97.09.37.2.75.28,1.12-.54.07-1.08.14-1.63.21l-.08-.72c-1.28-11.05-2.57-22.29-.48-33.24.3-1.57.67-3.16,1.4-4.61,1.06-2.1,2.82-3.83,4.72-5.33,9.51-7.57,22.55-10.34,35.07-10.18h.21Z" />
    <path class="cls-4"
      d="M79.72,88.15c.92,2.17,1.39,4.64,1.19,7.25-.62,8.56-7.87,15.51-16.16,15.51-.75,0-1.49-.06-2.21-.17-4-2.37-6.48-6.95-6.1-12.21.57-7.7,7.06-13.94,14.52-13.94,3.47,0,6.54,1.35,8.76,3.56Z" />
    <path class="cls-8"
      d="M194.91,104.63h.11c-.31,11.32-1.39,24.86-3.28,35.9h-.13s-3.81-2.08-8.89-3.86c1.97-7.49,3.94-28.53,3.59-36.21,3.09.81,7.13,3.03,8.59,4.17Z" />
    <path class="cls-8"
      d="M175.56,71.9c-.79-3.46-1.87-6.1-3.26-7.56-.52-.55-1.23-1.06-2.11-1.52-12.07-6.28-55.98-3.64-88.74,1.6l.61,2.96.03.16,12.95,1.47-8.14,10.35-.2.38,2.79,1.49.04-.07c1.13-.17,2.28-.27,3.45-.3,3.98-.09,7.67.75,10.89,2.35l.03-.07c.54.26,1.08.51,1.6.78,6.34,3.06,12.29,6.11,15.67,12.7,2.3,4.5,3.12,9.64,2.65,14.65-1.43,15.29-14.38,27.95-28.93,28.26-6.32.14-12.7-2.3-18.08-5.62l.03-.06c-4.42-2.2-7.97-5.77-10.22-10.27l-.24.13-2.58,11.83-8.14-10.17-18.8,5.09-2.96.81c.65,8.58,2.13,15.8,4.27,19.71.14.27.34.52.57.77,0,0,.06.06.18.18.92.89,2.37,1.67,4.28,2.34,15.6,5.42,61.6,3.3,92.92-.69l-.08-.72c-1.28-11.05-2.57-22.29-.48-33.24.3-1.57.67-3.16,1.4-4.61,1.06-2.1,2.82-3.83,4.72-5.33,9.51-7.57,22.55-10.34,35.07-10.18h.41c.45-10.62,0-20.74-1.59-27.62ZM166.01,73.75s0,.04,0,.07c-.07,3.03-.77,6.11-2.14,6.81-2.33,1.16-23.17,2.95-30.42,2.21-1.3-.14-2.17-.35-2.41-.67-1.55-2.06-1.89-11.51.34-12.89,2.24-1.38,29.51-4.2,33.18-2.06,1.02.6,1.53,3.53,1.45,6.52Z" />
    <path class="cls-5"
      d="M36.85,130.49c.58,8.27,2.5,16.53,6.34,23.81-1.91-.67-3.36-1.45-4.28-2.34-.13-.13-.18-.18-.18-.18-.23-.24-.43-.5-.57-.77-2.14-3.91-3.62-11.13-4.27-19.71l2.96-.81Z" />
    <path class="cls-5"
      d="M175.56,71.9s-.04-.09-.07-.13c-1.63-2.95-4.45-5.69-7.61-6.81-2.95-1.06-7.77-2.39-10.89-2.43-25.57-.43-49.74.95-74.92,4.85l-.61-2.96c32.75-5.25,76.67-7.88,88.74-1.6.88.45,1.59.96,2.11,1.52,1.39,1.46,2.47,4.1,3.26,7.56Z" />
    <path class="cls-8"
      d="M164.57,67.22c1.02.6,1.53,3.53,1.45,6.52-.14-2.37-.72-3.74-2.25-4.66-1.57-.95-29.44,1.36-30.54,1.99-1.11.61-.95,8.64.26,11.64v.13c-1.32-.14-2.18-.35-2.42-.67-1.55-2.06-1.89-11.51.34-12.89,2.24-1.38,29.51-4.2,33.18-2.06Z" />
    <path class="cls-6"
      d="M166.01,73.75s0,.04,0,.07c-.07,3.03-.77,6.11-2.14,6.81-2.33,1.16-23.17,2.95-30.42,2.21v-.13c-1.19-3.01-1.35-11.03-.24-11.64,1.11-.62,28.97-2.94,30.54-1.99,1.53.92,2.11,2.3,2.25,4.66Z" />
    <path class="cls-1"
      d="M121.16,96.65c2.3,4.49,3.12,9.64,2.65,14.65-1.43,15.29-14.38,27.95-28.93,28.26-6.32.14-12.7-2.3-18.08-5.62l.03-.06c3.23,1.6,6.95,2.47,10.96,2.38,14.55-.33,27.49-12.97,28.93-28.27,1.04-11.1-4.28-20.55-12.86-24.76l.03-.07c.54.26,1.08.51,1.6.78,6.34,3.06,12.29,6.11,15.67,12.7Z" />
    <path class="cls-3"
      d="M103.87,83.23c8.58,4.21,13.9,13.65,12.86,24.76-1.43,15.3-14.38,27.95-28.93,28.27-4.01.09-7.73-.78-10.96-2.38-4.42-2.2-7.97-5.77-10.22-10.27-.06-.1-.1-.21-.16-.31l.14-.28,11.24,5.39c23.99,11.02,43.74-29.21,20.86-42.25l-9.22-4.91.04-.07c1.13-.17,2.28-.27,3.45-.3,3.98-.09,7.67.75,10.89,2.35Z" />
    <path class="cls-5"
      d="M96.99,83.12c3.55.81,7.04,1.87,10.44,3.15-.29-.53-.77-.92-1.25-1.28-4.62-3.41-10.75-4.68-16.34-3.38.76-.18,2,1.49,2.99,1.49,1.48,0,2.62-.33,4.16.02Z" />
    <path class="cls-1"
      d="M77.85,128.41l-11.24-5.39-11.39-5.46h0c2.78,1.35,5.93,2.1,9.3,2.1.43,0,.85-.01,1.26-.04.35-.01.72-.04,1.08-.08.34-.03.67-.07.99-.13.16-.01.31-.04.47-.07.28-.04.55-.1.82-.16.21-.04.41-.08.61-.14.44-.1.88-.21,1.3-.34.01,0,.03-.01.04-.01.47-.13.91-.28,1.36-.45.13-.04.24-.08.37-.14.35-.13.69-.27,1.04-.44.16-.06.31-.13.45-.2.92-.43,1.81-.91,2.67-1.43.01-.01.04-.03.06-.04.03-.01.06-.04.08-.06.28-.17.55-.35.82-.55.35-.24.71-.5,1.05-.77.24-.17.47-.35.69-.55.28-.23.55-.45.82-.71.35-.31.71-.65,1.04-.99.35-.34.68-.68.98-1.04.34-.35.64-.72.94-1.09h0c.31-.4.6-.78.87-1.16.28-.4.55-.79.81-1.21.2-.28.37-.58.54-.89.11-.18.21-.37.31-.55.01-.03.03-.04.04-.07.37-.68.71-1.39,1.02-2.11.01-.01.01-.03.03-.06.1-.23.2-.47.28-.71.13-.33.24-.65.35-.98.16-.43.3-.85.41-1.29.13-.41.23-.82.33-1.23.09-.37.16-.74.23-1.11.17-.89.28-1.8.35-2.71.43-5.79-1.21-11.07-4.28-15.17-1.53-2.1-3.46-3.87-5.67-5.25l7.61,4.04,2.79,1.49,9.22,4.91c2.31,1.32,4.2,2.92,5.67,4.72,13.17,15.95-4.96,47.43-26.53,37.53Z" />
    <path class="cls-3"
      d="M84.75,80.96c-1.53-2.1-3.46-3.87-5.67-5.25l-.1-.06-2.1-1.12-.11-.06c-2.65-1.21-5.62-1.87-8.79-1.87-2.58,0-5.1.44-7.47,1.28-3.87,1.32-7.36,3.64-10.14,6.65-.51.51-.98,1.05-1.42,1.6-.72.92-1.39,1.89-1.99,2.91-1.96,3.3-3.22,7.08-3.5,11.09-.57,7.84,2.64,14.79,8.04,19.07,1.15.91,2.38,1.69,3.72,2.34,2.78,1.36,5.93,2.11,9.3,2.11.43,0,.85-.01,1.26-.04.35-.01.72-.04,1.08-.08.34-.03.67-.07.99-.13.16-.01.31-.04.47-.07.28-.04.55-.1.82-.16.21-.04.41-.08.61-.14.44-.1.88-.21,1.3-.34.01,0,.03-.01.04-.01.45-.14.91-.3,1.36-.45.13-.04.24-.08.37-.14.35-.13.69-.28,1.04-.44.16-.06.31-.13.45-.2.92-.43,1.81-.91,2.67-1.43.01-.01.04-.03.06-.04.03-.01.06-.04.08-.06.28-.17.55-.35.82-.55.35-.24.71-.5,1.05-.77.23-.17.47-.35.69-.55.28-.23.55-.47.82-.71.35-.33.71-.65,1.04-.99.34-.33.67-.68.98-1.04.31-.35.62-.71.94-1.09h0c.3-.38.6-.77.87-1.16.28-.4.55-.79.81-1.21.2-.3.37-.6.54-.89.11-.18.21-.37.31-.55.01-.03.03-.04.04-.07.37-.68.71-1.39,1.02-2.11.01-.01.01-.03.03-.06.1-.23.2-.47.28-.71.13-.33.24-.65.35-.98.16-.43.28-.85.41-1.29.11-.41.23-.82.33-1.23.09-.37.16-.74.23-1.11.17-.89.28-1.8.35-2.71.43-5.79-1.21-11.07-4.28-15.17ZM80.91,95.4c-.28,3.87-1.93,7.43-4.4,10.14-.61.68-1.28,1.3-2,1.87-1.12.89-2.35,1.64-3.67,2.2-1.9.85-3.97,1.3-6.1,1.3-.75,0-1.49-.06-2.21-.17-7.16-1.11-12.25-7.56-11.68-15.34.13-1.79.55-3.52,1.21-5.1.48-1.18,1.09-2.28,1.8-3.3.44-.62.91-1.21,1.42-1.76,2.89-3.18,6.93-5.22,11.29-5.35.16-.01.3-.01.45-.01,5.79,0,10.54,3.36,12.7,8.28.77,1.81,1.22,3.81,1.23,5.94,0,.44-.01.86-.04,1.3Z" />
    <path class="cls-5"
      d="M50.37,80.54l4.91,4.69c2.89-3.18,6.93-5.22,11.29-5.35l-6.05-6c-3.87,1.32-7.36,3.64-10.14,6.65Z" />
    <path class="cls-5"
      d="M80.95,94.09c0,.44-.01.86-.04,1.3-.28,3.87-1.93,7.43-4.4,10.14l6.01,5.77c2.57-2.86,4.52-6.32,5.6-10.12l-7.17-7.09Z" />
    <path class="cls-5" d="M46.96,85.05l5.09,5.25c.48-1.18,1.09-2.28,1.8-3.3l-4.91-4.85c-.72.92-1.39,1.89-1.99,2.91Z" />
    <path class="cls-5" d="M70.84,109.61l6.2,6.37c1.23-.78,2.4-1.66,3.47-2.64l-6-5.93c-1.12.89-2.35,1.64-3.67,2.2Z" />
    <path class="cls-1"
      d="M79.72,88.15c-2.23-2.21-5.29-3.56-8.76-3.56-7.46,0-13.95,6.24-14.52,13.94-.38,5.26,2.1,9.84,6.1,12.21-7.16-1.11-12.25-7.56-11.68-15.34.62-8.56,7.87-15.53,16.16-15.53,5.79,0,10.54,3.36,12.7,8.28Z" />
    <path class="cls-5"
      d="M104.39,91.54c-.69-.58-1.45-1.08-2.21-1.56-4.79-3.02-9.85-5.58-14.93-8.05-2.37-1.15-4.9-2.37-7.32-3.57-2.38-1.17-4.75-2.69-7.31-3.41-11.42-3.2-24.57,6.88-27.07,17.81-1.76,7.7.55,16.22,5.96,21.99.01.16.03.3,0,.45-5.4-4.28-8.61-11.23-8.04-19.07.28-4.01,1.55-7.78,3.5-11.09.6-1.02,1.26-1.99,1.99-2.91.44-.55.91-1.09,1.42-1.6,2.78-3.01,6.27-5.33,10.14-6.65,2.37-.84,4.89-1.28,7.47-1.28,3.18,0,6.14.67,8.79,1.87l.11.06,2.1,1.12.1.06,7.61,4.04,2.79,1.49,9.22,4.91c2.31,1.32,4.2,2.92,5.67,4.72,0,.23.01.44.01.67Z" />
    <path class="cls-4"
      d="M76.65,158.61c-18.66,0-34.12-1.6-38.49-5.89-.03-.03-.07-.07-.1-.11-.04-.03-.08-.07-.12-.11-.32-.34-.56-.66-.73-1-2.14-3.9-3.7-11.05-4.39-20.12-.54-7.13-.52-14.84.09-22.31.76-9.46,3.14-26.56,10.44-34.85,4.41-5.01,27.99-9.25,37.92-10.84,34.2-5.48,77.16-7.86,89.39-1.49.98.5,1.78,1.09,2.39,1.73,5.93,6.25,5.43,29.11,5.14,35.97-.78,18.81-4.51,41.82-10.89,47.9-3.37,3.19-20.91,5.86-31.07,7.18-17.45,2.23-40.25,3.95-59.59,3.95ZM39.57,151.12s.06.05.09.08c8.04,7.89,61.1,5.85,96.32,1.35,19.55-2.52,28.25-5.07,29.88-6.61,4.93-4.7,9.34-24.67,10.23-46.45.75-17.48-1-30.67-4.56-34.42-.44-.47-1.06-.91-1.83-1.3-11.41-5.94-53.74-3.8-88.08,1.71-19.91,3.19-33.96,7.08-36.66,10.15-5.04,5.72-8.66,17.97-9.92,33.61-.59,7.36-.62,14.96-.08,21.98.67,8.77,2.14,15.62,4.14,19.28.09.18.23.36.41.55.02.03.05.05.07.08Z" />
    <path class="cls-4"
      d="M91.06,172.39c-13.59,0-24.39-.68-28.55-2.19-11.88-4.3-23.14-16.18-24.38-17.52l-.16-.16c-.42-.42-.42-1.09,0-1.5.42-.42,1.09-.42,1.5,0l.19.19c1.23,1.33,12.16,12.86,23.57,16.99,13.78,4.99,109.22.18,120.65-8.07,1.47-1.06,4.31-5.03,6.82-19.78,1.72-10.1,2.91-23.13,3.26-35.75.27-9.96-.08-18.05-.91-21.12-2.48-9.09-23.11-19.64-23.32-19.75-.52-.27-.73-.91-.47-1.43.27-.52.91-.73,1.43-.47.88.45,21.68,11.09,24.41,21.09.9,3.31,1.27,11.43.99,21.73-.35,12.72-1.55,25.86-3.29,36.05-2.01,11.82-4.59,18.93-7.67,21.15-8.69,6.27-60.09,10.53-94.06,10.53Z" />
    <path class="cls-4"
      d="M191.62,141.23c-.11,0-.23-.03-.34-.09-.04-.02-3.83-2.06-8.79-3.8-.35-.12-.55-.49-.45-.85,2.02-7.67,3.9-28.63,3.56-36-.01-.23.09-.44.26-.58.18-.14.41-.19.63-.13,3.1.81,7.24,3.05,8.85,4.29.31.24.37.69.13.99-.24.31-.68.37-.99.12-1.32-1.03-4.66-2.86-7.42-3.77.15,7.97-1.58,26.93-3.48,34.8,4.76,1.72,8.23,3.59,8.38,3.67.34.19.47.62.29.96-.13.24-.37.37-.62.37Z" />
    <path class="cls-4"
      d="M136.02,153.59c-.36,0-.66-.27-.7-.63-1.27-11-2.58-22.37-.47-33.45.3-1.58.68-3.26,1.47-4.8.97-1.91,2.53-3.68,4.91-5.57,11.02-8.77,25.39-10.46,35.52-10.33.39,0,.7.33.7.72,0,.39-.32.7-.71.7h0c-9.9-.13-23.92,1.52-34.62,10.03-2.22,1.76-3.66,3.38-4.53,5.1-.7,1.38-1.06,2.94-1.34,4.42-2.07,10.87-.77,22.13.49,33.02.04.39-.23.74-.62.79-.03,0-.06,0-.08,0Z" />
    <path class="cls-4"
      d="M137.95,83.72c-1.8,0-3.36-.05-4.56-.18-1.69-.18-2.53-.46-2.9-.94-1.34-1.79-1.72-7.38-1.1-10.71.31-1.66.86-2.75,1.63-3.22,2.52-1.55,30.04-4.32,33.91-2.07,1.87,1.09,1.83,6.15,1.8,7.15,0,0,0,.01,0,.02,0,.02,0,.03,0,.05-.03,1.46-.32,6.3-2.53,7.42-2.13,1.06-17.13,2.46-26.25,2.46ZM131.61,81.74s.35.22,1.92.39c7.24.73,27.98-1.12,30.02-2.14.94-.47,1.68-3.08,1.75-6.19,0,0,0-.01,0-.02,0-.02,0-.04,0-.06.1-3.37-.57-5.59-1.09-5.89-3.48-2.04-30.5.85-32.45,2.05-.14.09-.65.52-.98,2.27-.65,3.43-.07,8.39.83,9.59,0,0,0,0,0,0Z" />
    <path class="cls-4"
      d="M78.98,76.37c-.13,0-.26-.03-.37-.11-.58-.36-1.25-.71-2.03-1.08-.35-.17-.51-.59-.34-.94.17-.35.59-.51.94-.34.83.39,1.54.77,2.17,1.16.33.21.44.64.23.98-.13.22-.37.34-.6.34Z" />
    <path class="cls-4"
      d="M64.52,120.37c-3.42,0-6.65-.74-9.61-2.19-8.07-3.95-12.84-12.63-12.15-22.1.98-13.33,12.29-24.18,25.22-24.18,3.2,0,6.26.65,9.09,1.94.36.16.51.58.35.94-.16.36-.58.52-.94.35-2.64-1.2-5.5-1.81-8.5-1.81-12.21,0-22.89,10.26-23.81,22.87-.65,8.89,3.81,17.03,11.36,20.72,2.77,1.35,5.79,2.04,8.99,2.04,12.19,0,22.87-10.26,23.81-22.87.59-8.13-3.09-15.7-9.62-19.76-.33-.21-.43-.64-.23-.98.21-.33.65-.43.98-.23,6.98,4.34,10.92,12.42,10.29,21.07-.99,13.33-12.3,24.18-25.22,24.18Z" />
    <path class="cls-4"
      d="M87.25,136.98c-3.82,0-7.43-.83-10.73-2.46-4.56-2.27-8.21-5.93-10.54-10.58-.02-.03-.05-.11-.09-.18-.19-.34-.1-.83.24-1.02.34-.2.75-.13.94.21.04.07.07.14.1.21,0,.01.06.13.07.14,2.2,4.38,5.62,7.82,9.91,9.95,3.25,1.61,6.83,2.38,10.63,2.31,14.17-.32,26.84-12.71,28.24-27.63.97-10.42-3.92-19.86-12.47-24.05-3.21-1.6-6.77-2.37-10.56-2.28-1.13.03-2.26.12-3.36.29-.38.05-.75-.21-.81-.6-.06-.39.21-.75.6-.81,1.16-.17,2.34-.28,3.53-.31,4.05-.09,7.81.73,11.22,2.43,9.07,4.46,14.28,14.45,13.25,25.46-1.46,15.61-14.75,28.58-29.62,28.92-.19,0-.38,0-.56,0Z" />
    <path class="cls-4"
      d="M94.36,140.27c-7.13,0-13.66-3.09-17.92-5.73-.33-.21-.44-.64-.23-.98.2-.33.64-.43.98-.23,4.21,2.6,10.69,5.69,17.69,5.51,14.17-.3,26.84-12.69,28.24-27.62.48-5.1-.41-10.03-2.58-14.26-3.38-6.61-9.74-9.68-15.35-12.39-.51-.26-1.02-.5-1.52-.74l-.95-.46c-.35-.17-.5-.59-.34-.94.17-.35.59-.5.94-.34l.88.43c.59.28,1.11.53,1.62.79,5.79,2.8,12.38,5.98,15.98,13.01,2.28,4.47,3.23,9.67,2.73,15.04-1.46,15.62-14.75,28.58-29.62,28.9-.18,0-.36,0-.55,0Z" />
    <path class="cls-4"
      d="M86.06,131c-2.72,0-5.58-.6-8.51-1.95l-23.03-11.04c-.35-.17-.5-.59-.33-.95.17-.35.6-.5.95-.33l23.01,11.03c11.75,5.4,21.95-1.81,26.84-11.34,4.95-9.64,4.98-23.03-6.64-29.66l-21.81-11.6c-.34-.18-.53-.63-.35-.98.18-.34.54-.51.89-.34l2.23,1.19,19.72,10.49c12.45,7.1,12.47,21.33,7.22,31.55-3.86,7.51-11.29,13.92-20.19,13.92Z" />
    <path class="cls-4"
      d="M62.53,111.45s-.07,0-.11,0c-7.59-1.17-12.87-8.09-12.28-16.09.65-8.92,8.22-16.18,16.87-16.18,5.87,0,10.99,3.34,13.35,8.7.16.36,0,.78-.36.93-.36.16-.78,0-.93-.36-2.14-4.85-6.76-7.86-12.06-7.86-7.93,0-14.86,6.67-15.46,14.87-.53,7.26,4.24,13.53,11.08,14.59.39.06.65.42.59.81-.05.35-.36.6-.7.6Z" />
    <path class="cls-4"
      d="M64.74,111.62c-.78,0-1.57-.06-2.32-.18-.09-.01-.17-.04-.25-.09-4.36-2.59-6.83-7.52-6.44-12.87.59-8.05,7.42-14.6,15.23-14.6,3.53,0,6.82,1.34,9.26,3.77.07.06.12.14.15.23,1.01,2.38,1.44,5,1.25,7.58-.65,8.91-8.22,16.17-16.87,16.17ZM62.78,110.06c.64.09,1.3.14,1.97.14,7.93,0,14.86-6.66,15.46-14.86.18-2.31-.2-4.65-1.08-6.79-2.16-2.1-5.06-3.26-8.16-3.26-7.08,0-13.27,5.96-13.81,13.28-.35,4.76,1.81,9.15,5.63,11.48Z" />
    <path class="cls-4"
      d="M63.79,136.63c-.32,0-.63-.14-.83-.4l-7.7-9.62-30,8.13c-.38.1-.79-.01-1.06-.3-.27-.29-.35-.7-.22-1.08l8.37-23.63-27.73-11.24c-.37-.15-.63-.5-.66-.89-.03-.4.16-.78.5-.99l31.22-19.42-3.81-32.04c-.05-.4.14-.8.48-1.02.34-.22.78-.23,1.13-.02l24.65,14.93,18.26-16.47c.28-.26.68-.34,1.04-.22.36.12.63.42.71.8l4.84,23.45,12.18,1.39c.38.04.71.29.86.65.15.36.09.76-.15,1.07l-8.14,10.35c-.36.46-1.03.54-1.49.18-.46-.36-.54-1.03-.18-1.49l6.96-8.85-11.05-1.26c-.46-.05-.83-.39-.92-.84l-4.62-22.38-17.47,15.76c-.35.32-.86.36-1.26.12l-23.46-14.21,3.63,30.55c.05.41-.14.81-.49,1.03l-30.02,18.68,26.74,10.84c.53.21.79.8.6,1.34l-8.03,22.68,28.71-7.78c.41-.11.84.03,1.11.36l6.75,8.43,2.1-9.65c.13-.57.69-.93,1.27-.81.57.12.94.69.81,1.27l-2.58,11.83c-.09.4-.4.71-.8.81-.08.02-.16.03-.24.03Z" />
    <path class="cls-4"
      d="M133.47,83.42c-.28,0-.55-.17-.66-.45-1.07-2.67-1.69-11.56.06-12.53,1.18-.67,29.46-3.06,31.25-1.97,1.68,1.01,2.43,2.53,2.6,5.23,0,0,0,.02,0,.03.01.08.01.14.01.17,0,.39-.32.71-.71.71-.37,0-.67-.28-.7-.63-.01-.05-.02-.11-.02-.16,0,0,0-.02,0-.03-.13-2.23-.65-3.34-1.91-4.1-1.88-.72-28.08,1.34-29.87,2.02-.56.76-.52,7.92.61,10.74.15.36-.03.78-.39.92-.09.03-.18.05-.26.05ZM165.51,74.24h0s0,0,0,0ZM165.51,74.24s0,0,0,0c0,0,0,0,0,0ZM165.45,74.18s.03.04.05.06c-.02-.02-.04-.04-.05-.06Z" />
    <path class="cls-6"
      d="M59.28,94.76c-.43,1.37-.66,2.99.17,4.16.76,1.07,2.17,1.44,3.48,1.52,4.73.3,9.52-2.37,11.79-6.56.39-.72.71-1.51.68-2.33-.05-1.25-.94-2.33-1.95-3.06-5.68-4.11-12.36.57-14.16,6.27Z" />
    <path class="cls-4"
      d="M145.22,117.85c0,.99-.8,1.79-1.79,1.79s-1.79-.8-1.79-1.79.8-1.79,1.79-1.79,1.79.8,1.79,1.79Z" />
    <path class="cls-4"
      d="M152.56,123.39c0,.99-.8,1.79-1.79,1.79s-1.79-.8-1.79-1.79.8-1.79,1.79-1.79,1.79.8,1.79,1.79Z" />
    <path class="cls-4"
      d="M154.77,141.59c0,.99-.8,1.79-1.79,1.79s-1.79-.8-1.79-1.79.8-1.79,1.79-1.79,1.79.8,1.79,1.79Z" />
    <circle class="cls-4" cx="162.7" cy="137.97" r="1.79" />
    <path class="cls-4"
      d="M144.34,146.71c0,.99-.8,1.79-1.79,1.79s-1.79-.8-1.79-1.79.8-1.79,1.79-1.79,1.79.8,1.79,1.79Z" />
    <path class="cls-4"
      d="M142.62,129.59c0,.99-.8,1.79-1.79,1.79s-1.79-.8-1.79-1.79.8-1.79,1.79-1.79,1.79.8,1.79,1.79Z" />
    <path class="cls-4"
      d="M162.08,117.98c0,.99-.8,1.79-1.79,1.79s-1.79-.8-1.79-1.79.8-1.79,1.79-1.79,1.79.8,1.79,1.79Z" />
    <path class="cls-4"
      d="M172.54,114.62c0,.99-.8,1.79-1.79,1.79s-1.79-.8-1.79-1.79.8-1.79,1.79-1.79,1.79.8,1.79,1.79Z" />
    <path class="cls-4"
      d="M156.07,110.67c0,.99-.8,1.79-1.79,1.79s-1.79-.8-1.79-1.79.8-1.79,1.79-1.79,1.79.8,1.79,1.79Z" />
    <path class="cls-4"
      d="M158.1,130.64c0,.99-.8,1.79-1.79,1.79s-1.79-.8-1.79-1.79.8-1.79,1.79-1.79,1.79.8,1.79,1.79Z" />
    <path class="cls-4"
      d="M147.85,136.03c0,.99-.8,1.79-1.79,1.79s-1.79-.8-1.79-1.79.8-1.79,1.79-1.79,1.79.8,1.79,1.79Z" />
    <path class="cls-4"
      d="M167.76,107.09c0,.99-.8,1.79-1.79,1.79s-1.79-.8-1.79-1.79.8-1.79,1.79-1.79,1.79.8,1.79,1.79Z" />
    <path class="cls-4"
      d="M167.23,127.14c0,.99-.8,1.79-1.79,1.79s-1.79-.8-1.79-1.79.8-1.79,1.79-1.79,1.79.8,1.79,1.79Z" />
    <path class="cls-4"
      d="M20.86,77.53c-.74,0-1.37-.58-1.41-1.33l-.82-13.32c-.05-.78.55-1.45,1.33-1.5.8-.05,1.45.55,1.5,1.33l.82,13.32c.05.78-.55,1.45-1.33,1.5-.03,0-.06,0-.09,0Z" />
    <path class="cls-4"
      d="M14.13,72.18c-.65,0-1.24-.45-1.39-1.12-.16-.77.32-1.52,1.09-1.68l12.93-2.77c.76-.16,1.52.32,1.68,1.09.16.77-.32,1.52-1.09,1.68l-12.93,2.77c-.1.02-.2.03-.3.03Z" />
    <path class="cls-4"
      d="M45.53,68.35c-.74,0-1.37-.58-1.41-1.33l-.38-6.2c-.05-.78.55-1.45,1.33-1.5.8-.06,1.45.55,1.5,1.33l.38,6.2c.05.78-.55,1.45-1.33,1.5-.03,0-.06,0-.09,0Z" />
    <path class="cls-4"
      d="M42.4,65.86c-.65,0-1.24-.45-1.39-1.12-.16-.77.32-1.52,1.09-1.68l6.02-1.29c.77-.16,1.52.32,1.68,1.09.16.77-.32,1.52-1.09,1.68l-6.02,1.29c-.1.02-.2.03-.3.03Z" />
    <path class="cls-4"
      d="M22.21,120.81c-.74,0-1.37-.58-1.41-1.33l-.38-6.2c-.05-.78.55-1.45,1.33-1.5.79-.03,1.45.55,1.5,1.33l.38,6.2c.05.78-.55,1.45-1.33,1.5-.03,0-.06,0-.09,0Z" />
    <path class="cls-4"
      d="M19.08,118.33c-.65,0-1.24-.46-1.38-1.12-.16-.77.32-1.52,1.09-1.68l6.02-1.29c.77-.17,1.52.32,1.68,1.09.16.77-.32,1.52-1.09,1.68l-6.02,1.29c-.1.02-.2.03-.3.03Z" />
  </g>
</svg>