<?xml version="1.0" encoding="UTF-8"?>
<svg id="Capa_2" xmlns="http://www.w3.org/2000/svg" xmlns:xlink="http://www.w3.org/1999/xlink"
  viewBox="0 0 169.66 242.29">
  <defs>
    <style>
      .cls-1 {
        fill: aqua;
      }

      .cls-2 {
        fill: #29abe2;
      }

      .cls-3 {
        fill: #fff;
      }

      .cls-4 {
        filter: none;
      }

      .cls-5 {
        fill: #862291;
      }

      .cls-6 {
        fill: #1b1464;
      }

      .cls-7 {
        fill: #fcee21;
      }

      .cls-8 {
        fill: #ed1e79;
      }
    </style>
  </defs>
  <g id="_0">
    <g class="cls-4">
      <path class="cls-3"
        d="M167.63,52.67c-.86-2.09-2.32-3.67-4.26-4.61-.71-2.91-2.15-4.68-4.31-5.28-.28-.08-.57-.13-.86-.16.9-1.56,1.4-3.31,1.47-5.19.15-4.01-1.82-7.97-4.88-9.85-1.89-1.16-4.09-1.46-6.21-.9v-14.34c0-2.85-2.32-5.17-5.17-5.17h-8.45c-.29,0-.58.02-.86.07-.21-.96-.59-1.92-1.15-2.9-1.53-2.67-4.2-4.21-7.53-4.34-4.7-.2-10.1,2.62-13.9,7.16h-.53c-.66,0-1.33.13-1.94.38-.61-.25-1.28-.38-1.94-.38h-13.45c-1.4,0-2.71.56-3.67,1.53-.96-.97-2.27-1.53-3.67-1.53h-5.15c-2.23-1.56-5.03-2.22-8.13-1.9-2.49.25-4.79,1.31-6.69,3.07-2.2-1.04-4.78-1.57-7.67-1.57-3.59,0-6.67.8-9.17,2.37-.97-1.22-2.46-1.97-4.06-1.97h-20.53c-2.85,0-5.17,2.32-5.17,5.17v8.05c0,2.85,2.32,5.17,5.17,5.17h5l-3.54,17.69c-.62-.48-1.34-.82-2.13-1-1.41-.33-2.74-.14-3.98.55-.6-2.45-1.43-3.46-2.25-4.16-1.28-1.1-2.94-1.53-4.56-1.19-3.05.63-4.66,3.16-5.41,8.65-.99-.22-2.02-.14-2.98.24-4.42,1.78-4.26,5.69.94,23.24.02.08.05.15.08.23l3.14,8.54c.3.82.84,1.55,1.53,2.1.28,1.4.61,2.77.97,4.08l-.27.21C7.06,88.18-.32,93.95.01,100.81c.11,2.28,1.14,5.57,5.43,8.31.24.15.49.28.76.38,13.32,4.95,15.05,7.64,15.26,8.08,0,.17-.29.84-.39,1.06-.62,1.47-2.07,4.9.92,8.06v19.33c0,20.6,10.66,40.47,27.88,52.04-.02.07-.03.13-.05.2-1.88.52-3.61,1.39-5.14,2.57-.74.57-1.31,1.34-1.64,2.21-.15.39-.27.79-.37,1.19-3.49-1.59-7.27-3.11-10.23-3.4-4.68-.47-8.61.86-11.35,3.84-4.23,4.59-3.81,11.3-3.75,12.04.2,2.42,2.09,4.36,4.43,4.7v15.04c0,1.55.61,3.01,1.7,4.11,1.1,1.1,2.56,1.71,4.11,1.71h9.88c3.56,0,6.51-.92,8.59-2.68,2.47,1.8,5.64,2.71,9.42,2.71,3.35,0,6.22-.72,8.55-2.13.12.14.24.27.36.4,1.1,1.1,2.56,1.71,4.11,1.71h5.18c.99,0,1.95-.25,2.8-.72.9.47,1.92.72,2.98.72h5.44c1.46,0,2.84-.55,3.91-1.56,2.19,1.05,4.76,1.58,7.67,1.58,3.23,0,6.05-.67,8.4-2,.08.09.16.18.25.26,1.1,1.1,2.56,1.71,4.11,1.71h15.16c.92,0,1.82-.21,2.63-.63.81.41,1.7.63,2.62.63h5.18c.99,0,1.95-.25,2.8-.72.9.47,1.92.72,2.98.72h5.44c1.52,0,2.95-.59,4.03-1.67,1.08-1.08,1.67-2.49,1.67-3.98,0-.91-.2-1.77-.59-2.57l-1.29-2.41c.93-1.61,1.4-3.46,1.4-5.53,0-1.85-.4-3.54-1.2-5.05,1.75-.73,3-2.38,3.16-4.35.06-.75.48-7.46-3.75-12.05-2.75-2.98-6.67-4.31-11.35-3.84-2.96.3-6.74,1.81-10.23,3.4-.09-.4-.22-.8-.37-1.19-.34-.87-.91-1.63-1.65-2.21-1.47-1.14-3.12-1.98-4.92-2.51-.08-.39-.16-.78-.24-1.18,16.64-11.78,26.54-30.84,26.54-51.13v-16.8c1.3-2.08,1.7-3.95,1.23-5.72-.23-.85-.64-1.62-1.23-2.27v-17.16c5.46-5.25,10.06-11.79,12.66-18l.48-1.15c1.15-2.76,2.46-5.89,3.65-9.02l.18-.4c.03-.08.07-.16.1-.24,5.99-16.11,6.66-20.4,3.29-22.61ZM106.12,216.06c-.35.23-.68.49-.98.79-.09.09-.18.19-.27.29-1-.58-2.16-1.05-3.53-1.41-1.49-.4-3.12-.6-4.85-.6-3.59,0-6.69.84-9.21,2.49-.23.15-.46.32-.69.5-.1-.09-.2-.17-.3-.26-2.22-1.8-5.06-2.72-8.46-2.72h-9.33c-.85,0-1.69.19-2.46.55-.47-.22-.96-.38-1.47-.46.15-1.45.09-2.99-.2-4.65.87-1.49,1.26-3.16,1.15-4.89,6.14,1.99,12.56,2.99,19.11,2.99,6.98,0,13.85-1.16,20.46-3.46-.21,1.9.17,3.73,1.11,5.36-.34,1.98-.37,3.79-.09,5.48Z" />
      <path class="cls-5"
        d="M27.58,237.69c-.33,0-.64-.13-.87-.37-.24-.24-.37-.54-.37-.87v-15.49c0-.33.13-.64.37-.88.24-.24.54-.37.87-.37h9.64c2.43,0,4.19.44,5.38,1.36,1.23.94,1.85,2.35,1.85,4.2v.07c0,.9-.25,1.68-.75,2.33-.19.24-.38.45-.58.63.33.25.63.57.9.96.52.75.78,1.61.78,2.56,0,2.68-1.28,5.87-7.36,5.87h-9.88ZM36.64,232.38c.25,0,.32-.09.35-.13.11-.15.16-.3.16-.47s-.05-.3-.15-.42c-.06-.07-.15-.14-.36-.14h-2.89v1.16h2.89ZM36.38,226.02c.18,0,.22-.06.25-.1.1-.13.14-.27.14-.43,0-.15-.04-.27-.12-.37-.02-.03-.07-.09-.27-.09h-2.62v1h2.62Z" />
      <path class="cls-6"
        d="M37.22,220.31c2.27,0,3.95.41,5.02,1.23,1.08.82,1.62,2.07,1.62,3.73v.07c0,.77-.21,1.42-.62,1.97-.42.54-.85.89-1.3,1.03.62.19,1.16.61,1.61,1.26.45.65.67,1.39.67,2.22,0,3.52-2.25,5.28-6.76,5.28h-9.88c-.18,0-.33-.06-.46-.19-.13-.13-.19-.28-.19-.46v-15.49c0-.18.06-.33.19-.46.13-.13.28-.19.46-.19h9.64ZM33.17,226.62h3.21c.32,0,.56-.12.73-.35.17-.23.25-.49.25-.78s-.08-.54-.25-.74c-.17-.21-.41-.31-.73-.31h-3.21v2.18h0ZM33.17,232.97h3.48c.37,0,.64-.12.83-.37.18-.25.28-.52.28-.83v-.02c0-.3-.1-.57-.3-.79-.2-.22-.47-.34-.8-.34h-3.48v2.35h0ZM37.22,219.12h-9.64c-.49,0-.94.19-1.29.54-.35.36-.54.8-.54,1.3v15.49c0,.49.19.94.54,1.3.35.35.8.54,1.29.54h9.88c6.57,0,7.95-3.51,7.95-6.46,0-1.07-.3-2.05-.88-2.89-.17-.24-.35-.46-.54-.66.06-.08.13-.15.19-.24.58-.75.87-1.66.87-2.69v-.07c0-2.04-.7-3.62-2.09-4.67-1.3-.99-3.18-1.48-5.74-1.48h0Z" />
      <path class="cls-5"
        d="M55.47,237.71c-2.8,0-5.07-.62-6.74-1.84-1.73-1.26-2.61-3.24-2.61-5.88v-9.05c0-.33.13-.64.37-.87.24-.23.54-.36.87-.36h5.01c.33,0,.63.12.87.36.24.24.37.54.37.87v9.38c0,.46.14.79.43,1.02.33.26.81.39,1.42.39s1.09-.13,1.42-.39c.29-.23.43-.56.43-1.02v-9.38c0-.33.13-.64.37-.87.24-.23.54-.36.87-.36h5.01c.33,0,.63.12.87.36.24.24.37.54.37.87v9.05c0,2.63-.88,4.61-2.6,5.88-1.67,1.22-3.94,1.84-6.74,1.84Z" />
      <path class="cls-6"
        d="M63.58,220.31c.18,0,.33.06.46.19.13.13.19.28.19.45v9.05c0,2.45-.79,4.25-2.36,5.4-1.57,1.15-3.71,1.73-6.39,1.73s-4.82-.58-6.39-1.73c-1.58-1.15-2.36-2.95-2.36-5.4v-9.05c0-.17.06-.32.19-.45.13-.13.28-.19.46-.19h5.01c.18,0,.33.06.46.19.13.13.19.27.19.45v9.38c0,.64.22,1.14.66,1.48.44.35,1.04.52,1.79.52s1.35-.17,1.79-.52c.44-.35.66-.84.66-1.48v-9.38c0-.17.06-.32.19-.45.13-.12.28-.19.46-.19h5.01ZM63.58,219.12h-5.01c-.49,0-.93.18-1.28.53-.35.35-.55.81-.55,1.3v9.38c0,.39-.13.5-.21.55-.22.18-.58.27-1.05.27s-.83-.09-1.05-.27c-.07-.06-.21-.16-.21-.55v-9.38c0-.49-.19-.95-.54-1.29-.36-.35-.8-.53-1.29-.53h-5.01c-.49,0-.94.18-1.29.53-.35.34-.54.8-.54,1.29v9.05c0,2.83.96,4.97,2.85,6.36,1.77,1.3,4.16,1.96,7.09,1.96s5.32-.66,7.09-1.96c1.89-1.38,2.85-3.52,2.85-6.36v-9.05c0-.49-.19-.95-.55-1.29-.35-.35-.8-.53-1.29-.53h0Z" />
      <path class="cls-5"
        d="M79.46,237.69c-.7,0-1.25-.33-1.54-.94l-1.96-4.41h-1.04v4.11c0,.33-.13.64-.37.88-.24.24-.54.36-.87.36h-5.18c-.33,0-.64-.13-.87-.37-.24-.24-.37-.54-.37-.87v-15.49c0-.33.13-.64.37-.88.24-.24.54-.36.87-.36h9.33c2.32,0,4.2.57,5.58,1.69,1.42,1.15,2.14,2.74,2.14,4.71,0,2.18-.78,3.83-2.33,4.93l2.69,5.03c.08.16.12.34.12.54,0,.19-.06.47-.33.74-.22.22-.49.33-.79.33h-5.44ZM77.32,226.72c.22,0,.3-.07.36-.13.1-.12.15-.29.15-.5,0-.23-.06-.42-.17-.58-.04-.05-.1-.14-.34-.14h-2.41v1.36h2.41Z" />
      <path class="cls-6"
        d="M77.83,220.31c2.19,0,3.93.52,5.2,1.56,1.28,1.04,1.92,2.45,1.92,4.24,0,2.17-.84,3.75-2.52,4.73l2.95,5.52c.03.06.05.15.05.26s-.05.22-.16.32c-.1.1-.23.16-.37.16h-5.44c-.48,0-.82-.2-1.01-.6l-2.11-4.75h-2.01v4.7c0,.18-.06.33-.19.46-.13.13-.28.19-.46.19h-5.18c-.18,0-.33-.06-.46-.19-.13-.13-.19-.28-.19-.46v-15.49c0-.18.06-.33.19-.46.13-.13.28-.19.46-.19h9.33ZM74.32,227.31h3c.35,0,.62-.12.82-.35.19-.23.29-.52.29-.88s-.09-.66-.28-.92c-.18-.26-.46-.4-.83-.4h-3v2.54h0ZM77.83,219.12h-9.33c-.49,0-.94.19-1.29.54-.35.35-.54.8-.54,1.3v15.49c0,.5.19.94.54,1.3.35.35.8.54,1.29.54h5.18c.5,0,.94-.19,1.3-.54.35-.35.54-.8.54-1.29v-3.52h.06l1.8,4.04s0,.02.01.03c.39.81,1.15,1.27,2.08,1.27h5.44c.46,0,.89-.18,1.21-.5.42-.42.5-.86.5-1.16s-.06-.56-.17-.79c0,0,0-.02-.01-.03l-2.46-4.59c1.42-1.2,2.17-2.94,2.17-5.09s-.79-3.89-2.36-5.17c-1.49-1.21-3.49-1.82-5.95-1.82h0ZM75.51,225.96h1.72s.01.08.01.13c0,.01,0,.03,0,.04h-1.73v-.17h0Z" />
      <path class="cls-5"
        d="M96.49,237.71c-2.83,0-5.15-.61-6.9-1.82-1.82-1.26-2.74-3.21-2.74-5.81v-2.76c0-1.29.26-2.45.77-3.45.52-1.01,1.25-1.83,2.18-2.45,1.75-1.15,4-1.74,6.68-1.74,1.33,0,2.56.15,3.67.45,1.12.3,2.04.68,2.72,1.14.67.45,1.25.94,1.73,1.46.89.98,1.33,1.86,1.33,2.68,0,.3-.12.57-.34.78-.04.04-.08.08-.13.11.1.06.2.13.29.22.24.24.37.54.37.88v2.54c0,2.62-.92,4.6-2.73,5.89-1.75,1.24-4.07,1.87-6.9,1.87ZM96.67,225.55c-.74,0-1.3.13-1.69.38-.41.27-.46.53-.46.73v3.86c0,.42.14.7.47.93.37.27.94.4,1.68.4s1.3-.14,1.67-.4c.07-.05.12-.09.17-.14h-.58c-.34,0-.64-.13-.88-.37-.24-.24-.36-.54-.36-.87v-2.66c0-.33.13-.64.37-.87.24-.24.54-.37.87-.37h.38s-.02-.02-.03-.03c-.39-.39-.91-.58-1.61-.58Z" />
      <path class="cls-6"
        d="M96.49,220.28c1.28,0,2.45.14,3.51.43,1.06.28,1.91.64,2.54,1.06.63.42,1.17.88,1.62,1.37.78.86,1.17,1.62,1.17,2.28,0,.14-.05.26-.16.36-.1.1-.23.15-.37.15h-5.42c-.32,0-.55-.07-.7-.21-.5-.5-1.17-.75-2.03-.75s-1.53.16-2.01.48c-.49.32-.73.73-.73,1.22v3.85c0,.61.24,1.08.72,1.42.48.34,1.16.51,2.03.51s1.54-.17,2.01-.52c.47-.34.72-.75.73-1.21h-1.49c-.18,0-.33-.06-.46-.19-.13-.13-.19-.28-.19-.46v-2.66c0-.18.06-.33.19-.46.13-.13.28-.19.46-.19h6.96c.18,0,.33.06.46.19.13.13.19.28.19.46v2.54c0,2.43-.83,4.23-2.48,5.41-1.65,1.17-3.84,1.76-6.56,1.76s-4.9-.57-6.56-1.72c-1.66-1.15-2.48-2.92-2.48-5.32v-2.76c0-1.2.24-2.26.71-3.18.47-.92,1.13-1.66,1.98-2.22,1.66-1.09,3.78-1.64,6.36-1.64h0ZM96.49,219.1c-2.8,0-5.16.62-7.01,1.83-1.02.68-1.82,1.57-2.38,2.67-.56,1.08-.84,2.34-.84,3.72v2.76c0,2.8,1.01,4.92,2.99,6.3,1.85,1.28,4.28,1.93,7.23,1.93s5.39-.67,7.25-1.98c1.98-1.41,2.98-3.55,2.98-6.38v-2.54c0-.43-.14-.83-.41-1.16.15-.25.22-.54.22-.83,0-.98-.49-1.98-1.48-3.08-.51-.56-1.13-1.08-1.84-1.56-.75-.5-1.7-.9-2.9-1.22-1.16-.31-2.44-.47-3.82-.47h0ZM96.53,231.26c-.54-.01-.96-.11-1.21-.29-.15-.1-.22-.2-.22-.45v-3.85s0-.11.19-.23c.28-.18.72-.28,1.3-.28-.33.35-.51.78-.51,1.26v2.66c0,.45.15.85.44,1.19h0Z" />
      <path class="cls-5"
        d="M109.25,237.69c-.33,0-.64-.13-.88-.37-.24-.24-.37-.54-.37-.87v-15.49c0-.33.13-.64.37-.88.24-.24.54-.36.87-.36h14.92c.33,0,.64.13.88.36.24.24.37.54.37.88v3.38c0,.33-.13.64-.36.87-.24.24-.54.37-.88.37h-8.74v.33h7.42c.33,0,.64.13.88.37.24.24.36.54.36.87v3.12c0,.33-.13.64-.37.88-.24.24-.54.36-.87.36h-7.42v.33h8.98c.33,0,.64.13.88.37.24.24.36.54.36.87v3.38c0,.33-.13.64-.37.88-.24.24-.54.36-.87.36h-15.16Z" />
      <path class="cls-6"
        d="M124.16,220.31c.18,0,.33.06.46.19.13.13.19.28.19.46v3.38c0,.18-.06.33-.19.46-.13.13-.28.19-.46.19h-9.33v1.51h8.01c.18,0,.33.06.46.19.13.13.19.28.19.46v3.12c0,.18-.06.33-.19.46-.13.13-.28.19-.46.19h-8.01v1.51h9.57c.18,0,.33.06.46.19.13.13.19.28.19.46v3.38c0,.18-.06.33-.19.46-.13.13-.28.19-.46.19h-15.16c-.18,0-.33-.06-.46-.19-.13-.13-.19-.28-.19-.46v-15.49c0-.18.06-.33.19-.46.13-.13.28-.19.46-.19h14.92ZM124.16,219.12h-14.92c-.49,0-.94.19-1.29.54-.35.35-.54.8-.54,1.3v15.49c0,.5.19.94.54,1.3.35.35.8.54,1.29.54h15.16c.49,0,.95-.19,1.3-.54.35-.35.54-.8.54-1.29v-3.38c0-.49-.19-.94-.54-1.29-.34-.35-.81-.54-1.29-.54h0c.18-.29.28-.62.28-.97v-3.12c0-.36-.1-.69-.29-.99.4-.05.77-.23,1.07-.53.35-.36.54-.8.54-1.29v-3.38c0-.49-.19-.94-.54-1.29-.36-.36-.81-.54-1.3-.54h0Z" />
      <path class="cls-5"
        d="M140.62,237.69c-.71,0-1.25-.33-1.54-.94l-1.96-4.41h-1.04v4.11c0,.33-.13.64-.37.87-.24.24-.54.37-.87.37h-5.18c-.33,0-.64-.13-.88-.37-.24-.24-.36-.54-.36-.87v-15.49c0-.33.13-.64.37-.88.24-.24.54-.36.87-.36h9.33c2.32,0,4.2.57,5.58,1.69,1.42,1.15,2.14,2.74,2.14,4.71,0,2.18-.78,3.83-2.33,4.93l2.69,5.03c.08.17.12.34.12.54,0,.19-.06.47-.33.74-.22.22-.49.33-.79.33h-5.44ZM138.48,226.72c.22,0,.3-.07.36-.13.1-.12.15-.29.15-.5,0-.23-.06-.42-.17-.58-.04-.05-.1-.14-.34-.14h-2.41v1.36h2.41Z" />
      <path class="cls-6"
        d="M138.99,220.31c2.19,0,3.93.52,5.21,1.56,1.28,1.04,1.92,2.45,1.92,4.24,0,2.17-.84,3.75-2.52,4.73l2.95,5.52c.03.06.05.15.05.26s-.05.22-.16.32c-.1.1-.23.16-.37.16h-5.44c-.48,0-.82-.2-1.01-.6l-2.11-4.75h-2.01v4.7c0,.18-.06.33-.19.46s-.28.19-.46.19h-5.18c-.18,0-.33-.06-.46-.19-.13-.13-.19-.28-.19-.46v-15.49c0-.18.06-.33.19-.46.13-.13.28-.19.46-.19h9.33ZM135.49,227.31h3c.35,0,.62-.12.82-.35.19-.23.29-.52.29-.88s-.09-.66-.28-.92c-.18-.26-.46-.4-.83-.4h-3v2.54h0ZM138.99,219.12h-9.33c-.49,0-.95.19-1.29.54-.35.35-.54.8-.54,1.29v15.49c0,.5.19.94.54,1.3.34.34.8.54,1.29.54h5.18c.49,0,.94-.19,1.29-.54.35-.35.54-.8.54-1.29v-3.52h.06l1.8,4.05s0,.02.01.03c.39.81,1.14,1.27,2.08,1.27h5.44c.46,0,.89-.18,1.21-.5.42-.42.5-.86.5-1.16s-.06-.56-.17-.79c0-.01-.01-.02-.02-.03l-2.46-4.59c1.42-1.2,2.17-2.94,2.17-5.09s-.79-3.89-2.36-5.17c-1.49-1.21-3.49-1.82-5.95-1.82h0ZM136.67,225.96h1.72s.01.08.01.13c0,.01,0,.03,0,.04h-1.73v-.17h0Z" />
      <path class="cls-2"
        d="M26.22,93.12c-.09,0-.18-.02-.26-.06-.2-.1-.33-.31-.33-.53v-22.1s0-.08.01-.12l9.88-49.31h-10.59c-.33,0-.59-.27-.59-.59v-8.05c0-.33.27-.59.59-.59h20.53c.33,0,.59.27.59.59v7.66s0,.08-.01.12l-10.05,49.61h9.04c.33,0,.59.27.59.59v8.05c0,.19-.09.36-.24.47l-18.82,14.15c-.1.08-.23.12-.36.12Z" />
      <path class="cls-6"
        d="M45.46,12.34v7.66l-10.19,50.32h9.77v8.05l-18.82,14.15v-22.1l10.02-50.02h-11.31v-8.05h20.53ZM45.46,11.16h-20.53c-.65,0-1.19.53-1.19,1.19v8.05c0,.65.53,1.19,1.19,1.19h9.86l-9.73,48.6c-.02.08-.02.15-.02.23v22.1c0,.45.25.86.66,1.06.17.08.35.12.53.12.25,0,.5-.08.71-.24l18.82-14.15c.3-.22.47-.57.47-.95v-8.05c0-.65-.53-1.19-1.19-1.19h-8.32l9.9-48.9c.02-.08.02-.16.02-.24v-7.66c0-.65-.53-1.19-1.19-1.19h0Z" />
      <path class="cls-2"
        d="M58.68,61c-3.66,0-6.51-1.13-8.46-3.37-1.94-2.21-2.92-5.43-2.92-9.55v-24.7c0-3.88.98-6.89,2.91-8.93,1.94-2.05,4.79-3.09,8.47-3.09s6.53,1.04,8.47,3.09c1.93,2.04,2.91,5.05,2.91,8.93v24.7c0,4.12-.98,7.34-2.92,9.55-1.96,2.24-4.8,3.37-8.46,3.37ZM58.81,20.59c-.44,0-1.59,0-1.59,2.71v25.25c0,1.56.23,2.29.42,2.63.23.4.57.58,1.12.58.93,0,1.4-1.1,1.4-3.26v-25.27c0-2.64-.98-2.64-1.35-2.64Z" />
      <path class="cls-6"
        d="M58.68,11.95c3.53,0,6.21.97,8.04,2.91,1.83,1.94,2.75,4.78,2.75,8.53v24.7c0,3.99-.92,7.05-2.77,9.16-1.85,2.11-4.52,3.17-8.02,3.17s-6.17-1.06-8.02-3.17c-1.85-2.11-2.77-5.17-2.77-9.16v-24.7c0-3.75.92-6.59,2.75-8.53,1.83-1.94,4.51-2.91,8.04-2.91h0ZM58.76,52.35c1.33,0,1.99-1.28,1.99-3.85v-25.27c0-2.15-.65-3.23-1.94-3.23-1.46,0-2.19,1.1-2.19,3.31v25.25c0,1.36.17,2.33.5,2.92.33.59.88.88,1.64.88h0ZM58.68,10.76c-3.85,0-6.85,1.1-8.9,3.28-2.04,2.16-3.07,5.3-3.07,9.34v24.7c0,4.27,1.03,7.62,3.07,9.94,2.07,2.37,5.07,3.57,8.91,3.57s6.83-1.2,8.91-3.57c2.03-2.33,3.07-5.67,3.07-9.94v-24.7c0-4.04-1.03-7.18-3.07-9.34-2.06-2.18-5.05-3.28-8.9-3.28h0ZM58.76,51.17c-.45,0-.54-.16-.61-.28-.13-.23-.35-.84-.35-2.34v-25.25c0-2.12.68-2.12,1-2.12.5,0,.75.69.75,2.05v25.27c0,.63-.06,2.67-.8,2.67h0Z" />
      <path class="cls-2"
        d="M99.1,56.69c-.33,0-.59-.27-.59-.59v-24.03l-3.84,24.12c-.05.29-.29.5-.59.5h-7.86c-.29,0-.54-.21-.58-.49l-4.14-24.54v24.45c0,.33-.27.59-.59.59h-7.91c-.33,0-.59-.27-.59-.59V12.34c0-.33.27-.59.59-.59h13.32c.3,0,.55.22.59.51l3.09,22.4,3.07-22.4c.04-.29.29-.51.59-.51h13.45c.33,0,.59.27.59.59v43.75c0,.33-.27.59-.59.59h-8Z" />
      <path class="cls-6"
        d="M107.11,12.34v43.75h-8v-31.52l-5.02,31.52h-7.86l-5.32-31.52v31.52h-7.91V12.34h13.32l3.68,26.67,3.65-26.67h13.45ZM107.11,11.16h-13.45c-.59,0-1.09.44-1.17,1.02l-2.48,18.13-2.5-18.13c-.08-.59-.58-1.02-1.17-1.02h-13.32c-.65,0-1.19.53-1.19,1.19v43.75c0,.65.53,1.19,1.19,1.19h7.91c.65,0,1.19-.53,1.19-1.19v-17.37l2.96,17.57c.1.57.59.99,1.17.99h7.86c.58,0,1.08-.42,1.17-1l2.67-16.73v16.54c0,.65.53,1.19,1.19,1.19h8c.65,0,1.19-.53,1.19-1.19V12.34c0-.65-.53-1.19-1.19-1.19h0Z" />
      <path class="cls-2"
        d="M110.98,61.54c-.33,0-.59-.27-.59-.59V12.34c0-.33.27-.59.59-.59h11.86c3.34,0,5.82.85,7.38,2.51,1.55,1.66,2.34,4.37,2.34,8.07v1.91c0,2.15-.4,3.93-1.19,5.29-.55.95-1.29,1.68-2.23,2.2,1.35.69,2.32,1.8,2.87,3.31.69,1.89,1.04,4.21,1.04,6.9,0,2.53-.25,10.17-.81,12.43-.56,2.23-1.59,4-3.08,5.26-1.49,1.26-3.62,1.9-6.32,1.9h-11.86ZM120.13,52.64c.1,0,.2,0,.28,0,1.95,0,2.81-.81,2.81-2.64v-10.32c0-1.14-.17-2.04-.49-2.67-.17-.33-.52-.76-1.57-.76h-1.02v16.38ZM121.33,28.23c.71,0,.91-.28,1.01-.56.21-.56.31-1.25.31-2.06v-4.4c0-1.34-.61-1.52-1.27-1.52h-1.25v8.53h1.2Z" />
      <path class="cls-6"
        d="M122.84,12.34c3.18,0,5.5.77,6.95,2.32,1.45,1.55,2.18,4.11,2.18,7.67v1.91c0,2.06-.37,3.72-1.11,5-.74,1.28-1.86,2.11-3.37,2.51,1.97.5,3.29,1.66,3.96,3.49.67,1.83,1.01,4.06,1.01,6.7,0,2.83-.27,10.16-.8,12.28-.53,2.12-1.49,3.77-2.88,4.95-1.39,1.18-3.37,1.76-5.94,1.76h-11.86V12.34h11.86ZM119.54,28.82h1.79c.81,0,1.33-.31,1.57-.94.23-.63.35-1.38.35-2.26v-4.4c0-1.41-.62-2.11-1.86-2.11h-1.84v9.72h0ZM120.41,53.24c2.27,0,3.41-1.08,3.41-3.23v-10.32c0-1.24-.19-2.22-.56-2.95-.37-.72-1.07-1.08-2.1-1.08h-1.62v17.53c.36.03.65.05.87.05h0ZM122.84,11.16h-11.86c-.65,0-1.19.53-1.19,1.19v48.6c0,.65.53,1.19,1.19,1.19h11.86c2.85,0,5.1-.69,6.71-2.05,1.58-1.33,2.68-3.21,3.27-5.56.58-2.34.83-9.94.83-12.57,0-2.76-.36-5.15-1.08-7.11-.49-1.33-1.26-2.37-2.31-3.12.65-.5,1.2-1.13,1.63-1.88.84-1.45,1.27-3.33,1.27-5.59v-1.91c0-3.91-.82-6.68-2.5-8.48-1.68-1.79-4.31-2.7-7.81-2.7h0ZM120.72,20.29h.65c.42,0,.68,0,.68.93v4.4c0,.73-.09,1.36-.28,1.85-.03.08-.06.17-.45.17h-.6v-7.35h0ZM120.72,36.85h.43c.82,0,.97.3,1.05.44.28.55.43,1.36.43,2.4v10.32c0,1.19-.33,1.95-1.9,2.04v-15.2h0Z" />
      <rect class="cls-2" x="134.35" y="11.75" width="9.64" height="78.43" rx=".59" ry=".59" />
      <path class="cls-6"
        d="M143.4,12.34v77.25h-8.45V12.34h8.45ZM143.4,11.16h-8.45c-.65,0-1.19.53-1.19,1.19v77.25c0,.65.53,1.19,1.19,1.19h8.45c.65,0,1.19-.53,1.19-1.19V12.34c0-.65-.53-1.19-1.19-1.19h0Z" />
      <rect class="cls-8" x="25.97" y="40" width="117.33" height="164.69" rx="58.66" ry="58.66" />
      <path class="cls-6"
        d="M84.63,40c32.26,0,58.66,26.4,58.66,58.66v47.36c0,32.26-26.4,58.66-58.66,58.66s-58.66-26.4-58.66-58.66v-47.36c0-32.26,26.4-58.66,58.66-58.66h0ZM84.63,38.82c-15.92,0-30.93,6.24-42.27,17.58-11.34,11.34-17.58,26.35-17.58,42.27v47.36c0,15.92,6.24,30.93,17.58,42.27,11.34,11.34,26.35,17.58,42.27,17.58s30.93-6.24,42.27-17.58c11.34-11.34,17.58-26.35,17.58-42.27v-47.36c0-15.92-6.24-30.93-17.58-42.27-11.34-11.34-26.35-17.58-42.27-17.58h0Z" />
      <path class="cls-3"
        d="M32.14,121.44c1.45-3.24,2.04-8.26-1.06-11.73-2.82-3.15-6.91-5.32-10.52-7.24-3.24-1.72-6.6-3.51-6.74-5.1-.09-1,1.15-2.21,2.2-3.04,7.06-5.59,12.57-17.1,10.73-22.39-.59-1.71-1.92-2.65-3.73-2.65-.21,0-.43.01-.65.04-5.55.63-5.23,4.41-4.98,7.45.24,2.87.49,5.83-2.22,8.54-.34.34-1.1.93-1.97,1.62-3.98,3.11-10.65,8.33-10.39,13.75.11,2.35,1.51,4.4,4.15,6.08l.11.07.12.04c10.03,3.73,15.7,6.97,16.85,9.64.49,1.14.09,2.1-.38,3.21-.58,1.36-1.37,3.23.4,5.08.8.84,1.76,1.28,2.77,1.28,2.03,0,4.02-1.74,5.32-4.65Z" />
      <path class="cls-3"
        d="M21.87,67.98c.13,0,.27,0,.4-.01,3.86-.26,5.76-3.89,5.64-7.34-.12-3.56-2.36-7.4-6.97-7.4-.05,0-.1,0-.16,0-2.88.06-4.86,2.97-4.82,7.09.04,3.69,1.9,7.66,5.9,7.66Z" />
      <path class="cls-3"
        d="M71.23,32.02c.82,0,1.69-.15,2.59-.45,6.99-2.34,10.28-10.14,9.32-16.01-.77-4.73-3.98-7.56-8.58-7.56-.4,0-.81.02-1.23.06-6.49.66-9.64,7.97-9.3,14.52.29,5.74,3.12,9.44,7.21,9.44Z" />
      <path class="cls-3"
        d="M96.75,38.66h.1c2.51,0,4.14-1.9,4.26-4.96.13-3.41-1.77-8.52-5.04-8.76-.08,0-.17,0-.25,0-2.46,0-4.2,2.65-4.24,6.45-.04,3.46,1.57,7.21,5.17,7.28Z" />
      <path class="cls-3"
        d="M139.17,120.96c-4.14-.79-9.81-1.88-14.65-5.93-.45-.37-.66-.77-.68-1.29-.15-2.74,4.65-7.95,9.16-12.62l.87-.9c7.19-7.4,17.03-17.54,17.21-36.82v-.06s0-.06,0-.06c-.41-4.29-5.74-5.72-10.02-6.87-1.25-.34-2.44-.65-3.38-1.01-2.25-.84-11.63-5.44-16.31-12.65-3.34-5.14-3.43-12.96-3.01-16.37.66-5.37,4.47-8.19,7.84-10.68,3.46-2.57,7.05-5.22,4.33-9.95-1.09-1.9-3.06-2.94-5.56-2.94-4.24,0-9.19,3.02-12.33,7.51-2.43,3.49-5.93,10.95-1.95,21.8.94,2.57,2.56,5.71,4.44,9.35,5.83,11.31,13.82,26.8,7.78,38.37-4.66,8.92-11.16,14.27-16.89,18.98-2.57,2.11-4.94,4.06-6.83,6.1,2.93-3.54,6.86-8.03,12.66-12.12l.06-.04.05-.05c10.19-9.25,12.28-26.59,9.24-34.46-1.48-3.83-3.74-4.4-4.95-4.4h0c-.41,0-.82.06-1.24.18-2.8.8-4.34,2.75-4.58,5.79-.2,2.49.44,5.57,1.13,8.82.75,3.55,1.52,7.22,1.41,10.78-.18,6.13-2.49,7.91-7.09,11.44-.68.53-1.39,1.07-2.15,1.67-1.62,1.29-11.68,12.49-10.3,16.39l.63,1.77,1.33-1.33c.62-.62,1.32-1.43,2.09-2.36-.66.91-1.21,1.85-1.64,2.84-.82,1.89-1.54,3.67-2.16,5.33.17-3.46-.62-6.39-2.92-7.96-1.88-1.28-4.61-1.9-7.25-2.49-2.46-.55-5.25-1.18-5.79-2.19-.05-.09-.18-.34.04-.93.45-1.19.95-2.43,1.44-3.63,2.35-5.8,4.78-11.8,2.87-16.14-.86-1.96-2.54-3.42-5-4.33-2.7-1.01-5.67-1.72-8.3-2.35-2.07-.5-4.02-.97-5.41-1.48-1.69-.63-1.82-1.06-1.82-1.06,0,0-.02-.59,1.89-1.97,2.35-1.7,4-1.76,5.59-1.82,3.89-.14,6.52-.86,11.32-13.47,3.99-10.47,4.76-16.93,2.41-20.33-1.22-1.77-3.24-2.67-6.01-2.67-1.92,0-4.19.41-6.97,1.26-2.75.84-4.45,2.07-5.21,3.77-1.16,2.6.2,5.57,1.53,8.45,1.88,4.09,2.86,6.73.59,8.89-4.46,4.25-10.88,5.5-16.55,6.6-5.05.98-9.42,1.83-11.32,4.69-.92,1.38-1.17,3.12-.74,5.18,1.28,6.16-2.14,12.3-5.16,17.72-2.18,3.92-4.24,7.62-4.42,11.02-.12,2.35,2.32,4.2,5.15,6.34,3.06,2.32,6.53,4.94,6.68,8.17.09,2.15-1.32,4.56-4.2,7.16-7.05,6.37-11.28,10.54-10.56,14.64.64,3.61,4.82,6.49,16,11.03,5.72,2.32,6.69,3.43,6.86,3.74-.39.53-2.55,1.35-3.99,1.9-4.27,1.62-10.11,3.85-10.1,9.11-.06,1.83.95,3.97,2.77,5.87,3.99,4.15,11.02,6.53,19.31,6.53,2.06,0,4.24-.14,6.47-.42,1.95-.24,3.92-.36,6.04-.36,3.4,0,6.57.31,9.63.61,2.76.27,5.36.52,7.88.52.78,0,1.49-.02,2.19-.07,3.56-.24,6.81-1.33,9.96-2.38,2.72-.91,5.29-1.77,7.77-1.97,8.41-.68,21.54-8.16,21.84-16.12.22-5.95,4.03-13.08,10.17-19.08,6.13-5.98,8.07-8.85,7.43-10.99-.61-2.03-3.13-2.51-6.61-3.18ZM91.95,133.35c1.41,2.14,3.9,3.23,7.41,3.23.54,0,1.11-.03,1.71-.08.1,0,.19-.01.27-.01.24,0,.56.03.66.19.79,1.21-1.51,6.54-3.18,10.44-.73,1.69-1.48,3.42-2.14,5.13-1.74-2.13-2.61-4.71-3.58-7.62-.48-1.45-.98-2.94-1.62-4.49-2.14-5.17-1.85-11.31-1.15-12.63l.02-.04.02-.04c.11-.24.21-.48.31-.73-.22,2.84.21,5.02,1.29,6.65ZM115.83,146.66c.29-.48,1.14-1.37,2.04-2.31,2.86-2.99,6.78-7.09,6.03-10.9-.5-2.55-3.43-2.75-6.83-2.99-4.97-.35-11.16-.78-13.02-7.84-1.64-6.21,10.21-16.45,17.29-22.56,2.03-1.75,3.78-3.26,4.91-4.4,3.12-3.14,5.52-4.62,6.69-5-.22.53-.75,1.49-2.05,3.05-1.13,1.35-2.82,3.02-4.61,4.79-5.56,5.5-12.47,12.34-12.1,18.38.14,2.24,1.25,4.18,3.3,5.77,5.19,4,10.13,4.47,13.4,4.47,1.07,0,2.06-.05,2.93-.1.7-.04,1.31-.07,1.84-.07,1.2,0,1.48.19,1.54.31.52,1.05-2.78,4.21-5.19,6.53-2.11,2.02-4.5,4.31-6.39,6.74-2.84,3.65-3.57,8.08-4.11,11.31-.34,2.05-.69,4.17-1.42,4.5-.05.02-.1.03-.17.03-.76,0-2.21-1.18-3.33-3.16-1.1-1.94-1.87-4.67-.76-6.52ZM106.41,149.42c.07,0,.18-.02.35-.02,1.1,0,2.24.35,2.56.6.02.36-.19,1.19-.33,1.75-.3,1.21-.62,2.46-.26,3.47.54,1.52,1.33,2.54,1.86,3.22,0,0,0,0,.01.01-1.06.72-3.13,1.8-4.54,1.8-.74,0-.94-.28-1.05-.79-.76-3.53.6-9.11,1.4-10.04ZM108.55,145.12s-.03,0-.05,0c-.1,0-.22-.21-.28-.34-1.02-2.21.13-8.09.84-9.17.2-.05.71-.13,1.62-.13h0c2.91,0,5.2.73,5.5,1.23,0,.03-.03.09-.09.17-.06.09-.15.24-.26.42-4,6.51-6.28,7.68-7.28,7.8ZM133.56,62.72c.58-.21,1.31-.33,2.13-.33,3.37,0,7.2,1.82,7.44,3.55.37,2.62-1.12,6.24-3.83,7.25-.36.13-.77.2-1.22.2-2.55,0-5.8-2.15-6.23-4.1-.79-3.64-.74-5.66,1.72-6.57ZM57.93,152.69c1.52-4.66-4.54-8.03-9.89-11.01-1.13-.63-2.2-1.23-3.16-1.81-4.24-2.59-5.94-5.51-5.05-8.68,1.13-4.01,5.79-7.23,8.58-8.19-1.31,2.1-3.34,5.69-2.3,10.04.94,3.92,4.21,7.59,9.72,10.89.68.41,1.39.8,2.15,1.22,2.78,1.54,5.92,3.29,6.44,5.27.19.71.02,1.47-.5,2.32-4.28,6.93-11.92,9.39-17.15,9.39-1.54,0-2.35-.24-2.59-.37-.47-.28-.67-.47-.75-.57.49-.75,3.66-2,5.59-2.76,3.97-1.56,8.08-3.18,8.92-5.74ZM43.26,101.07c1.33,2.06,3.38,3.3,5.19,4.39,2.07,1.25,3.35,2.09,3.46,3.35.13,1.45-.65,3.34-1.99,4.81-.78.85-1.54,1.34-2.08,1.51.03-.3.08-.69.13-1,.31-2.03.77-5.09-1.78-7.31-1.9-1.65-3.7-2.59-5.28-3.42-1.66-.87-2.97-1.55-3.97-2.79-.75-.92-.29-4.81,1.43-8.44,1.27-2.67,2.84-4.39,4.01-4.39.21,0,.35.04.41.11.49.57.16,2.96-.08,4.71-.4,2.94-.86,6.27.55,8.47ZM60.48,168.21c1.78-.76,3.8-1.62,5.76-2.67,2.56-1.38,3.8-3.06,4.79-4.42.84-1.14,1.5-2.05,2.76-2.64.12-.06.58-.19,2.25-.19.61,0,1.28.01,1.99.03.79.02,1.61.04,2.43.04,2,0,4.5-.1,6.15-.86,1.34-.62,1.54-1.67,1.55-2.24.02-2.38-3.41-5.14-5.74-6.26-.28-.13-.59-.28-.93-.44-4.63-2.18-14.27-6.72-17.68-15.97-1.76-4.77,4.11-10.06,8.4-13.92,3.3-2.97,5.47-4.93,4.85-6.84-.48-1.46-2.31-1.81-3.65-1.95-8.15-.83-13.24-2.97-15.13-6.38-1.81-3.27-.3-7.17,1.01-9.82.31-.63,1.93-1.79,3.23-2.72,3.14-2.24,6.7-4.79,5.6-7.83-.79-2.19-4.46-3.81-9.54-5.87-1.93-.78-4.13-1.67-4.65-2.16-.82-.78-1.02-1.61-.63-2.59.69-1.74,2.9-3.23,3.96-3.56-.06.2-.13.43-.19.61-.51,1.55-1.36,4.14,1.11,5.99,2.48,1.87,5.98,2.81,9.36,3.72,3.92,1.06,7.62,2.05,8.14,4.16.69,2.77-.73,4.14-3.32,6.32-.85.72-1.72,1.46-2.51,2.31-2.1,2.29-4.01,4.82-3.85,7.82.11,2.05,1.21,4.01,3.28,5.83,2.81,2.47,6.94,3.29,10.59,4,3.23.63,6.28,1.23,6.7,2.76.36,1.3-1.47,3.01-3.59,5-3.07,2.88-6.89,6.46-8.08,11.97-.82,3.77,2.05,9.67,7.14,14.69,1.15,1.13,2.28,2.19,3.37,3.22,3.63,3.41,7.06,6.64,6.7,8.6-.17.93-1.3,1.82-3.34,2.65-2.42.98-4.48,1.46-6.3,1.46-.57,0-1.04-.04-1.45-.08-.33-.03-.62-.06-.9-.06-.56,0-1.39.1-2.03.96-2.28,3.07-4.91,5.24-8.02,6.63-2.86,1.27-8.18,2.64-11.54,2.64-.87,0-1.43-.09-1.77-.19.82-.49,2.4-1.17,3.73-1.74Z" />
      <path class="cls-3"
        d="M164.44,52.57c-1.2-1.8-3.16-2.72-5.82-2.72-.88,0-1.86.1-2.91.3-2.52.49-4.59.73-6.18.73-2.81,0-3.43-.71-4.02-1.41-.51-.59-1.2-1.39-2.73-1.39-1.02,0-2.35.35-4.32,1.13-.61.24-2.47.98-2.32,2.59.13,1.37,1.59,2.35,5.22,3.47,2.65.82,6.45,1.71,11.63,2.71.93.18,1.65.97,2.14,2.35,2.23,6.3-1.2,21.21-8.8,30.27-4.26,5.08-7.98,8.52-10.7,11.03-3.11,2.88-4.53,4.19-4.26,5.69.13.72.64,1.26,1.5,1.61.32.13.68.2,1.08.2,5.02,0,18.03-11.29,23.4-24.16l.49-1.17c4.46-10.67,10.57-25.28,6.59-31.26Z" />
      <path class="cls-3"
        d="M148.82,45.55c1.01,0,2.11-.3,3.27-.9,4.54-2.33,5.27-6.76,4.53-9.84-.8-3.32-3.27-5.63-5.99-5.63-.92,0-1.85.25-2.74.76-3.56,2-4.88,7.47-3.87,11.32.7,2.68,2.5,4.29,4.81,4.29Z" />
      <path class="cls-3"
        d="M98.85,69.11c.92,0,1.85-.19,2.75-.58,3.09-1.31,4.42-4.23,3.66-8.01-.99-4.87-5.49-10.31-10.04-10.31-.84,0-1.65.19-2.4.55-2.87,1.39-4.04,4.88-3.07,9.11,1.06,4.59,4.52,9.23,9.11,9.23Z" />
      <path class="cls-1"
        d="M16.01,86.16c-2.48,2.48-19.24,12.7-8.42,19.61,28.61,10.63,13.19,13.9,17.32,18.22,4.13,4.32,10.44-7.74,5.29-13.49-7.22-8.05-24.05-9.86-14.91-17.1,9.14-7.24,14.53-23.72,7.22-22.89-8.42.96,0,9.16-6.49,15.65Z" />
      <path class="cls-1" d="M20.81,54.42c-5.12.1-5.05,12.81,1.38,12.37,6.43-.44,6.1-12.52-1.38-12.37Z" />
      <path class="cls-1" d="M73.44,9.24c-11,1.12-11.03,24.9,0,21.21,11.03-3.7,12.09-22.44,0-21.21Z" />
      <path class="cls-1" d="M95.98,26.12c-4.19-.31-4.66,11.25.79,11.36,5.45.11,2.96-11.08-.79-11.36Z" />
      <path class="cls-1"
        d="M123.76,115.94c-3.29-2.74,1.06-8.07,8.38-15.64,7.3-7.55,17.56-17.34,17.75-36.91-.44-4.55-8.43-5.32-12.64-6.88-2.56-.95-12.05-5.65-16.89-13.12-3.81-5.87-3.51-14.53-3.19-17.16,1.45-11.79,16.68-12.29,12.32-19.9-4.37-7.62-25.55,3.95-17.7,25.37,3.87,10.57,20.44,32.82,12.15,48.68-8.49,16.27-23.26,21.16-27.04,29.92-7.47,17.31-7.21,25.98,4.07,25.02,5.86-.5-.67,10.25-3.85,19.1-3.98-3.55-4.53-8.48-6.75-13.83-2.24-5.4-1.99-11.97-1.11-13.64,2.8-6.34,5.22-15.75.8-18.77-4.42-3.01-15.25-2.21-13.44-7.02,3.37-8.94,9.14-19.17,0-22.57s-21.56-3.41-13.91-8.94c7.65-5.54,9.21,4.38,16.5-14.75,7.29-19.13,3.4-24.01-9.11-20.18-12.51,3.83,4.12,14.42-2.62,20.84-10.39,9.91-30.56,4.29-28.27,15.37,2.29,11.07-9.15,21.31-9.56,29.05-.27,5.23,20.9,10.13,7.24,22.49-13.67,12.35-15.27,15.43,5.09,23.69,20.36,8.26-6.54,5.8-6.49,15.87-.18,4.43,8.02,13.19,27.22,10.78,10.18-1.28,18.5,1.19,25.82.68,6.48-.45,12.19-3.9,17.72-4.35,8.18-.66,20.48-7.88,20.75-14.98.22-5.88,3.77-13.29,10.53-19.88,17.46-17.03-.75-7.48-13.77-18.34ZM36.02,101.37c-2.22-2.73,2.02-14.77,6.37-14.77,4.34,0-.69,9.85,1.88,13.83,2.57,3.98,8.51,4.72,8.83,8.27.32,3.56-3.33,7.69-5.66,7.69-2.32,0,1.59-5.53-2.02-8.68-3.75-3.27-7.17-3.62-9.4-6.35ZM43.58,162.78c-6.42-3.74,11.73-5.89,13.23-10.46s-7.28-8.23-12.54-11.44c-14.5-8.84,2.05-20.09,5.97-19.32,1.91.38-11.82,10.56,6.21,21.35,4.54,2.72,11.56,5.47,8.49,10.45-6.27,10.15-19,10.79-21.35,9.42ZM89.21,159.69c-7.38,2.99-9.1.45-10.17,1.88-2.02,2.72-4.68,5.31-8.49,7.01-3.78,1.68-12.45,3.77-14.89,2.17-2.44-1.6,4.23-3.14,10.02-6.26,4.4-2.36,4.37-5.56,7.61-7.08,1.78-.84,9.61.51,12.82-.99,2.64-1.23-1.37-5-4.2-6.36-4.09-1.97-15.37-6.67-19.2-17.07-3.84-10.4,21.32-20.85,10.58-21.94-21.87-2.22-17.27-13.43-15.07-17.9,1.18-2.41,10.05-6.11,8.78-9.62-1.09-3.01-12.1-5.88-13.89-7.58-3.89-3.69,2.79-8.53,4.67-8.26,2.44.35-2.12,4.48,1.1,6.9,5.36,4.03,16.72,3.67,17.94,8.54,1.22,4.87-3.25,6.6-6.1,9.72-2.9,3.16-5.96,7.29-.66,11.96,5.29,4.67,16.47,3,17.65,7.33,1.19,4.33-9.6,8.02-11.65,17.53-.63,2.93,1.57,8.42,6.81,13.59,7.72,7.62,15.42,12.74,6.34,16.41ZM133.15,61.61c3.69-1.37,10.7.96,11.16,4.17.45,3.21-1.35,7.32-4.6,8.52-3.24,1.21-8.38-1.77-9.02-4.76-.65-2.99-1.23-6.56,2.46-7.93ZM112.01,158.84c-1.06,1.07-7.33,4.72-8.16.87-.83-3.85.64-10.6,1.99-11.35.7-.39,4.31.04,4.61,1.27.3,1.23-1.06,3.92-.61,5.19.91,2.54,2.63,3.55,2.16,4.02ZM108.4,134.6c1.37-.76,10.69-.18,8.68,2.94-.65,1.01-4.84,8.33-8.39,8.76-3.55.43-1.67-10.93-.29-11.69ZM126.55,141.23c-4.86,6.26-3.11,14.87-5.97,16.16-2.87,1.29-8.42-6.91-5.76-11.34,1.28-2.13,8.8-7.92,7.92-12.37-.88-4.45-16.51,1.81-19.83-10.76-2.31-8.77,17.26-22.82,22.5-28.1,7.3-7.36,12-7.08,6.39-.36-5.61,6.71-23.3,19.75-13.59,27.24,9.71,7.49,18.6,2.08,20.05,5.01,1.46,2.94-6.85,8.27-11.71,14.53Z" />
      <path class="cls-1"
        d="M115.31,55.16c7.88-2.25,9.36,24.39-4.17,36.66-8.97,6.33-13.69,13.76-16.62,16.7-.98-2.77,7.72-13.32,9.92-15.06,6-4.76,9.46-6.36,9.69-14.01.31-10.45-6.7-22.04,1.19-24.29Z" />
      <path class="cls-1"
        d="M138.91,50.33c-4.82,1.91,1.76,4.08,14.32,6.51,6.91,1.34,3.88,22.79-5.98,34.55-9.87,11.75-17.19,15.15-13.92,16.48,3.28,1.33,17.26-9.71,22.94-23.32,5.68-13.61,15.59-36.29-.32-33.22-16.25,3.14-7.51-4.78-17.03-1Z" />
      <path class="cls-1" d="M148.46,30.98c6.08-3.4,11.09,8.51,3.08,12.62s-8.51-9.58-3.08-12.62Z" />
      <path class="cls-1" d="M93.33,51.83c6.55-3.18,15.9,12.17,7.81,15.61-8.1,3.44-14.36-12.43-7.81-15.61Z" />
      <path class="cls-3"
        d="M165.62,54.74c-.3-.15-.62-.22-.96-.22-.28,0-.55.05-.82.15-.6.23-1.38.83-2.7,3.07.36-9.88-1.18-11.81-2.81-12.26-.22-.06-.45-.09-.67-.09-.55,0-1.08.18-1.53.52-.59.44-1.83,1.36-2.68,8.69-1.74-4.39-3.39-5.02-4.59-5.02-.14,0-.29.01-.43.03-.82.13-1.51.61-1.94,1.36-1.17,1.99-.35,7.3,2.43,15.81-1.56-.56-3.21-1-4.52-1-.59,0-1.08.08-1.51.25-.79.31-1.38.9-1.67,1.66-.27.72-.23,1.53.13,2.26.96,1.96,4.73,3.7,8.13,4.91l-1.48,4.13c-.37,1.02.17,2.16,1.19,2.53l.39.14c-7.33,12.22-17.79,14.66-33.75,16.83-.65-1.68-1.66-3.37-3.48-3.73-.3-.06-.63-.12-1.03-.18-.49-.28-1.01-.55-1.57-.81-1.84-.98-4.43-2.09-7.63-2.74,1.25.07,2.47.14,3.67.2,4.75.27,8.85.5,11.95.5,4.14,0,5.49-.42,6.4-1.14,2.78-2.2.97-11.23-.83-16.4-.38-1.1-.82-2.2-1.3-3.29.18-.42.27-.69.27-.7.29-.93-.23-1.93-1.16-2.23-.15-.05-.31-.07-.46-.08.53-1.5.79-3.06.79-4.67,0-6.99-4.99-12.68-11.13-12.68-.11,0-.24,0-.36,0-1.79.06-3.53.61-5.09,1.6-4.61-2.39-9.87-3.83-15.63-4.29-.68-1.24-1.53-1.52-2.16-1.52-.45,0-.89.15-1.3.44-.18.13-.35.27-.5.41l.06-2.51,2.2-1.86c1.81,1.56,3.73,1.91,5.11,1.91,5.05,0,9.76-4.42,11.81-8.78,1.36-2.9,1.54-5.67.53-7.92l6.43-5.45c.89-.76,1-2.1.25-2.99-.41-.48-1-.76-1.61-.76-.5,0-.99.18-1.38.51l-6.49,5.5c-1.39-.88-3.07-1.34-4.94-1.34-4.78,0-9.85,2.94-12.07,7-1.55,2.84-1.61,5.98-.18,8.92l-2.71,2.3-.68.58.12.25-.56-.17-.03,1.57-.08,3.89c-.09,0-.18.01-.27.02-.85.06-1.73.15-2.75.27-.67-.27-1.74-.61-2.86-.61-1.46,0-2.6.59-3.22,1.68-4.26,1.01-8.13,2.55-11.53,4.57-.87-.28-1.78-.43-2.7-.47-.12,0-.24,0-.36,0-6.14,0-11.13,5.69-11.13,12.68,0,1.06.12,2.13.36,3.16-1.11,2.36-1.99,4.86-2.63,7.43-1,4.03-1.44,8.39-1.25,12.27.28,5.48,1.48,6.85,2.37,7.4.63.4,1.4.59,2.35.59,1.71,0,4.18-.65,7.61-1.54,2.87-.75,6.75-1.77,11.24-2.64.54.37,1.13.69,1.79.96-1.88.39-3.85.89-5.79,1.48-1.86.5-3.55,1.09-5.01,1.77-3.58,1.48-4.33,2.42-4.57,2.73-.17.22-.31.45-.4.68-.92.51-1.22,1.07-1.36,1.74-.04.15-.22.97-.5,2.27-.95.08-1.91.12-2.88.12-4.72,0-11.57-.94-17.41-5.43-5.87-4.51-9.72-11.77-11.45-21.59l2.05-.58c1.05-.3,1.66-1.39,1.36-2.44l-1.2-4.22c3.47-.98,7.35-2.45,8.44-4.35.41-.71.51-1.51.29-2.25-.23-.78-.78-1.4-1.55-1.77-.53-.25-1.17-.37-1.96-.37-1.23,0-2.71.31-4.12.71,3.35-8.3,4.53-13.54,3.5-15.61-.39-.77-1.04-1.3-1.85-1.48-.2-.05-.41-.07-.61-.07-1.15,0-2.77.59-4.73,4.7-.36-7.36-1.53-8.36-2.09-8.84-.48-.41-1.05-.63-1.66-.63-.17,0-.34.02-.51.05-1.64.34-3.31,2.13-3.63,12.05-1.18-2.34-1.92-2.99-2.49-3.25-.31-.14-.63-.21-.95-.21-.28,0-.56.05-.82.16-1.69.68-2.44,2.06,1.3,15.41.05.4.11.77.18,1.1.19.89.47,1.7.83,2.41.09.3.18.6.27.91v.04s.02.04.02.04l3.14,8.53c.23.63.77,1.09,1.41,1.24,2.01,11.09,6.55,19.4,13.5,24.73,7.1,5.44,15.16,6.58,20.67,6.58.62,0,1.24-.01,1.87-.04-.52,2.91-.93,5.67-1.24,8.2-.59,4.87-.76,8.9-.52,11.97.3,3.87,1.3,6.43,3.02,7.76-.89.95-1.39,1.7-1.46,1.81-.53.82-.52,1.86.05,2.66.44.63,1.17,1.01,1.94,1.01.18,0,.37-.02.55-.06,0,0,.39-.09,1.01-.18.35,1.41.86,2.78,1.09,3.36,0,.15-.03.37-.04.47-.1,1.19-.41,4.8,2.83,5.55,1.2.28,6.3.49,8.95.59.02.03.04.05.06.08-1.47.06-2.83.13-4.08.2-.04,0-.07,0-.11,0-.08,0-.17,0-.25.02h-.03c-.5.03-.98.06-1.44.09-.08-.02-.17-.02-.26-.02-.07,0-.14,0-.21.02-.08.01-.15.03-.23.05-3.97.27-6.54.57-7.86.93-.05.01-.1.03-.15.04-1.58.48-2.1,1.4-2.27,2.07-.45.7-.92,2.08-1.4,5.85-.46,3.59-.59,7.27-.35,10.08.46,5.46,2.28,8.23,5.4,8.23.07,0,.14,0,.22,0,1.81-.09,3.2-.87,4.04-2.25.68-1.12.93-2.6.76-4.43,1.02.36,2.18.69,3.48.98-3.88,8.61-6.86,17.44-8.65,25.68-2.13.31-4.1,1.13-5.76,2.42-.34.26-.6.61-.76,1.01-.38.98-.73,2.7.21,4.77-.02-.01-.04-.02-.06-.03-4.24-2.04-10.04-4.83-13.63-5.19-.52-.05-1.03-.08-1.53-.08-3.12,0-5.64,1.02-7.49,3.03-3.48,3.78-3.04,9.67-3.02,9.92.1,1.22,1.14,2.18,2.36,2.18h36.63c1.04,0,1.95-.67,2.26-1.67.63-2.02.64-4.32.03-7.03,1.31-1.62,1.67-3.58,1.05-5.71-.14-.49-.43-.91-.83-1.22-.74-.57-1.56-1.06-2.45-1.45,1.83-8.07,4.96-17.05,8.91-25.49,5.51.59,10.94.68,13.77.68,7.94,0,15.93-.62,22.13-1.72,3.39,8.99,5.94,17.88,7.57,26.46-.93.4-1.81.91-2.6,1.52-.4.31-.69.73-.83,1.22-.62,2.13-.25,4.09,1.05,5.71-.61,2.71-.6,5.01.03,7.03.31,1,1.22,1.67,2.26,1.67h36.63c1.23,0,2.26-.96,2.36-2.18.02-.25.46-6.14-3.02-9.92-1.85-2.01-4.37-3.03-7.49-3.03-.49,0-1,.03-1.53.08-3.6.36-9.4,3.15-13.63,5.19-.02.01-.04.02-.07.03.95-2.08.59-3.8.21-4.77-.16-.4-.42-.75-.76-1.01-1.61-1.25-3.53-2.07-5.6-2.4-1.66-8.86-4.24-18.01-7.67-27.24,1.91-.61,3.47-1.31,4.67-2.06.31.82.71,1.51,1.2,2.07.99,1.13,2.32,1.73,3.85,1.73,1.33,0,2.55-.63,3.44-1.78,1.59-2.06,2.03-5.68,1.11-9.22-1.28-4.94-4.41-8.67-5.4-9.77-.1-1.49-.39-2.13-.8-2.6-.5-.57-1.18-.89-1.93-.89-.07,0-.16,0-.23.01-.28.03-.59.08-.95.14l-.19.03c-.09.01-.19.03-.28.05-1.74.33-4.44.94-5.24,1.13-1.23,0-6.13.02-12.67.09-.12-.19-.25-.37-.4-.54,1.24-.11,2.46-.21,3.64-.31,4.77-.41,8.87-.76,9.95-.87l.31-.03c2.78-.26,5.17-.62,6.24-2.3,1.05-1.65.1-3.31-.41-4.2-.07-.12-.25-.43-.33-.62.03-.47.1-.98.17-1.47.03-.19.05-.39.08-.6.99-.19,1.59-.31,1.65-.32.91-.17,1.64-.87,1.86-1.77.22-.9-.11-1.85-.83-2.42-.09-.07-.59-.45-1.43-.92h-.02s0-.01,0-.01c-.05-.03-.1-.06-.16-.08l-.05-.03c-2.93-1.57-4.56-2.59-5.16-3.01-.21-.84-.6-3.1-.93-6.14.23.08.48.14.75.17.11.01.22.02.33.02.78,0,1.53-.33,2.1-.92,1.04-1.09,1.77-3.27,1.9-10.42.06-3.16-.03-6.18-.06-7.25,0-.02,0-.03.01-.05.24-1.06.57-2.84.53-4.4,7.9-1.08,14.97-2.28,21.26-5.1,7.08-3.17,12.31-8.02,16.39-15.23l.63.23c.22.08.44.12.67.12.78,0,1.49-.46,1.8-1.17l3.73-8.35.02-.03v-.04c2.84-7.59,4.45-12.69,4.96-15.57.34-1.93.29-3.35-1.05-4ZM103.88,130.53c0,.87-.03,1.71-.16,2.08-.5.16-1.81.44-3.62.44-1.46,0-2.35-.19-2.75-.32-.08-.39-.15-1.01-.21-1.79.03.04.07.08.11.12.77.81,1.8,1.24,2.96,1.24.08,0,.16,0,.24,0,1.09-.05,2.42-.44,3.44-1.76ZM84.57,130.34c.1-.12.2-.25.29-.38-.06,1.02-.15,1.72-.22,1.98-.55,1.09-1.81,1.74-3.38,1.74-1.44,0-3.04-.64-3.22-1.7-.03-.19-.09-.64-.16-1.3.74.81,1.73,1.31,3.06,1.31.09,0,.18,0,.27,0,1.34-.07,2.5-.64,3.36-1.64ZM89.74,152.46c.13-.01.27-.02.4-.03,0,0-.01.02-.02.03-.13,0-.25,0-.38,0Z" />
      <path class="cls-2"
        d="M53.75,101.3c-.93-.98,5.72-6.59,22.7-6.83,7.58.46,5.26-1.11,17.1-2.11,11.85-1,18.39,4.02,18.39,4.02,0,0-22.65.72-27.42.97-4.78.25-26.61,3.21-30.77,3.96Z" />
      <path class="cls-6"
        d="M96.33,92.22c9.63,0,15.67,5.13,15.67,5.13,0,0-10.09-.11-18.24-.11-4.07,0-7.66.03-9.25.11-4.07.21-23.18,4.19-28.97,4.19-.99,0-1.59-.12-1.66-.39-.41-1.79,13.72-6.7,21.57-6.7.34,0,.67,0,.99.03,1,.06,1.84.09,2.57.09,4.78,0,4.78-1.2,14.53-2.2.96-.1,1.89-.14,2.78-.14h0ZM96.33,91.63c-.94,0-1.9.05-2.84.14-5.09.52-7.58,1.1-9.4,1.53-1.71.4-2.84.67-5.07.67-.73,0-1.56-.03-2.54-.09-.32-.02-.67-.03-1.02-.03-7.06,0-20.01,4.11-21.87,6.44-.33.41-.34.76-.28.99.17.75,1.18.85,2.24.85,3.45,0,11.38-1.36,18.37-2.56,4.82-.83,8.99-1.54,10.63-1.63,1.4-.07,4.5-.11,9.22-.11,8.05,0,18.13.11,18.23.11h0c.25,0,.47-.15.56-.39.09-.23.02-.5-.17-.66-.25-.22-6.32-5.27-16.05-5.27h0Z" />
      <path class="cls-7"
        d="M22.48,216.89c-.31,0-.57-.24-.59-.54-.02-.22-.4-5.36,2.55-8.57,1.5-1.63,3.58-2.46,6.18-2.46.43,0,.89.02,1.35.07,3.29.33,8.92,3.04,13.04,5.02,1.67.8,3.39,1.63,3.98,1.8.56-.64-.17-2.03-.31-2.28-1.57-1.79-2.04-3.55-1.39-5.22.04-.1.1-.19.19-.25,1.81-1.41,4.12-2.18,6.5-2.18s4.73.77,6.55,2.18c.1.08.17.18.21.3.54,1.84.1,3.42-1.3,4.71.76,2.8.83,5.09.23,7.01-.08.25-.31.42-.57.42H22.48Z" />
      <path class="cls-6"
        d="M53.99,202.87c2.22,0,4.43.7,6.19,2.05.46,1.59.17,3.06-1.4,4.34.74,2.59.98,4.98.34,7.03H22.48s-.85-10.38,8.15-10.38c.41,0,.84.02,1.29.07,4.96.49,15.98,6.85,17.2,6.85.03,0,.06,0,.08-.02,1.36-.96-.03-3.24-.03-3.24-1.3-1.46-1.95-3.05-1.32-4.66,1.79-1.39,3.97-2.05,6.14-2.05h0ZM53.99,201.68h0c-2.51,0-4.95.82-6.86,2.3-.17.13-.3.31-.38.51-.5,1.3-.65,3.34,1.46,5.78.19.34.36.81.4,1.15-.79-.33-2.12-.97-3.33-1.56-4.16-2-9.85-4.74-13.24-5.08-.48-.05-.95-.07-1.41-.07-2.78,0-5,.89-6.62,2.65-3.13,3.4-2.73,8.79-2.71,9.02.05.62.56,1.09,1.18,1.09h36.63c.52,0,.98-.34,1.13-.83.61-1.95.56-4.24-.14-7,1.35-1.39,1.77-3.12,1.21-5.06-.07-.24-.22-.45-.42-.61-1.93-1.48-4.38-2.3-6.91-2.3h0Z" />
      <path class="cls-3"
        d="M31.92,205.98c2.27.23,5.79,1.68,9.08,3.18-6.21-1.53-12.8-.58-18.14,3.06.76-3.14,2.94-6.85,9.07-6.24Z" />
      <path class="cls-8" d="M59.4,214.91c-.06.47-.15.94-.29,1.38H22.48s-.04-.54,0-1.38h36.92Z" />
      <path class="cls-8"
        d="M47.85,204.93c3.62-2.81,8.85-2.67,12.32,0,.21.71.25,1.4.11,2.06-4.11-1.69-8.63-.76-12.53-1.72.03-.11.06-.23.1-.34Z" />
      <path class="cls-6"
        d="M54.55,206.7c2.25,0,3.83-.69,3.94-.74.24-.11.34-.38.24-.62-.11-.24-.38-.34-.62-.24-.04.02-3.77,1.63-7.77-.31-.23-.11-.51-.02-.63.22-.11.23-.02.51.22.63,1.66.8,3.27,1.06,4.63,1.06Z" />
      <path class="cls-6"
        d="M23.95,215.34h3.21c.26,0,.47-.21.47-.47s-.21-.47-.47-.47h-3.21c-.26,0-.47.21-.47.47s.21.47.47.47Z" />
      <path class="cls-6"
        d="M29.88,215.34h20.4c.26,0,.47-.21.47-.47s-.21-.47-.47-.47h-20.4c-.26,0-.47.21-.47.47s.21.47.47.47Z" />
      <path class="cls-6"
        d="M51.79,215.34h1.66c.26,0,.47-.21.47-.47s-.21-.47-.47-.47h-1.66c-.26,0-.47.21-.47.47s.21.47.47.47Z" />
      <path class="cls-6"
        d="M55.98,215.34h3.26c.26,0,.47-.21.47-.47s-.21-.47-.47-.47h-3.26c-.26,0-.47.21-.47.47s.21.47.47.47Z" />
      <path class="cls-6"
        d="M39.52,211.93s.07,0,.11-.01c.25-.06.41-.31.35-.56-.91-3.79-4.39-5.35-4.53-5.42-.24-.1-.51,0-.62.24-.1.24,0,.51.24.62.03.01,3.2,1.45,4,4.78.05.22.24.36.46.36Z" />
      <path class="cls-6"
        d="M55.52,210.34c2.41,0,4.05-.61,4.12-.64.24-.09.36-.36.27-.6-.09-.24-.36-.36-.6-.27-.02,0-1.65.6-4.01.58-.22-.03-.47.2-.48.46,0,.26.2.47.46.48.08,0,.16,0,.24,0Z" />
      <path class="cls-6"
        d="M50.56,210.53c.25,0,.45-.19.47-.44.01-.26-.18-.48-.44-.49-1.03-.06-1.82-.57-1.83-.58-.17-.2-.43-.19-.63-.03-.2.17-.19.49-.03.69.15.18,1.19.78,2.43.85,0,0,.02,0,.03,0Z" />
      <path class="cls-6"
        d="M57.25,212.15c.26,0,.47-.21.47-.47v-1.63c0-.26-.21-.47-.47-.47s-.47.21-.47.47v1.63c0,.26.21.47.47.47Z" />
      <path class="cls-6"
        d="M22.61,213.95h6.27c.26,0,.47-.21.47-.47s-.21-.47-.47-.47h-6.27c-.26,0-.47.21-.47.47s.21.47.47.47Z" />
      <path class="cls-6"
        d="M52.35,205.86c1.7.71,3.11.39,4.78-.16,2.34-13.39,8.51-29.16,15.91-41.54l-5.12-.57c-7.4,12.87-13.37,28.68-15.57,42.27Z" />
      <path class="cls-7"
        d="M111.47,216.89c-.26,0-.49-.17-.57-.42-.6-1.92-.52-4.21.23-7.01-1.4-1.28-1.84-2.86-1.3-4.71.04-.12.11-.23.21-.3,1.82-1.4,4.15-2.18,6.55-2.18s4.69.77,6.5,2.18c.08.07.15.15.19.25.65,1.67.18,3.43-1.39,5.22-.14.25-.87,1.64-.31,2.28.57-.16,2.3-.99,3.98-1.8,4.12-1.98,9.75-4.7,13.04-5.02.46-.05.92-.07,1.35-.07,2.6,0,4.68.83,6.18,2.46,2.96,3.21,2.57,8.35,2.55,8.57-.03.31-.28.54-.59.54h-36.63Z" />
      <path class="cls-6"
        d="M116.59,202.87c2.17,0,4.35.67,6.14,2.05.63,1.61-.02,3.19-1.32,4.66,0,0-1.39,2.28-.03,3.24.02.01.05.02.08.02,1.23,0,12.24-6.36,17.2-6.85.45-.04.88-.07,1.29-.07,9,0,8.15,10.38,8.15,10.38h-36.63c-.64-2.05-.4-4.44.34-7.03-1.58-1.28-1.87-2.75-1.4-4.34,1.76-1.35,3.97-2.05,6.19-2.05h0ZM116.59,201.68c-2.53,0-4.98.82-6.91,2.3-.2.15-.34.37-.42.61-.56,1.93-.14,3.66,1.21,5.06-.7,2.76-.75,5.05-.14,7,.15.5.61.83,1.13.83h36.63c.62,0,1.13-.47,1.18-1.09.02-.23.42-5.62-2.71-9.02-1.62-1.76-3.85-2.65-6.62-2.65-.45,0-.93.02-1.41.07-3.39.34-9.08,3.08-13.24,5.08-1.21.58-2.54,1.22-3.33,1.56.04-.34.21-.81.4-1.15,2.12-2.44,1.97-4.49,1.46-5.78-.08-.2-.21-.37-.38-.51-1.91-1.49-4.35-2.3-6.86-2.3h0Z" />
      <path class="cls-3"
        d="M138.66,205.98c-2.27.23-5.79,1.68-9.08,3.18,6.21-1.53,12.8-.58,18.14,3.06-.76-3.14-2.94-6.85-9.07-6.24Z" />
      <path class="cls-8" d="M111.18,214.91c.06.47.15.94.29,1.38h36.63s.04-.54,0-1.38h-36.92Z" />
      <path class="cls-8"
        d="M122.73,204.93c-3.62-2.81-8.85-2.67-12.32,0-.21.71-.25,1.4-.11,2.06,4.11-1.69,8.63-.76,12.53-1.72-.03-.11-.06-.23-.1-.34Z" />
      <path class="cls-6"
        d="M116.03,206.7c-2.25,0-3.83-.69-3.94-.74-.24-.11-.34-.38-.24-.62.11-.24.38-.34.62-.24.04.02,3.77,1.63,7.78-.31.23-.11.51-.02.63.22.11.23.02.51-.22.63-1.66.8-3.27,1.06-4.63,1.06Z" />
      <path class="cls-6"
        d="M146.63,215.34h-3.21c-.26,0-.47-.21-.47-.47s.21-.47.47-.47h3.21c.26,0,.47.21.47.47s-.21.47-.47.47Z" />
      <path class="cls-6"
        d="M140.7,215.34h-20.4c-.26,0-.47-.21-.47-.47s.21-.47.47-.47h20.4c.26,0,.47.21.47.47s-.21.47-.47.47Z" />
      <path class="cls-6"
        d="M118.79,215.34h-1.66c-.26,0-.47-.21-.47-.47s.21-.47.47-.47h1.66c.26,0,.47.21.47.47s-.21.47-.47.47Z" />
      <path class="cls-6"
        d="M114.6,215.34h-3.26c-.26,0-.47-.21-.47-.47s.21-.47.47-.47h3.26c.26,0,.47.21.47.47s-.21.47-.47.47Z" />
      <path class="cls-6"
        d="M131.06,211.93s-.07,0-.11-.01c-.25-.06-.41-.31-.35-.56.91-3.79,4.39-5.35,4.53-5.42.24-.1.51,0,.62.24.1.24,0,.51-.24.62-.03.01-3.2,1.45-4,4.78-.05.22-.24.36-.46.36Z" />
      <path class="cls-6"
        d="M115.05,210.34c-2.41,0-4.05-.61-4.12-.64-.24-.09-.36-.36-.27-.6.09-.24.36-.36.6-.27.02,0,1.65.6,4.01.58.22-.03.47.2.48.46,0,.26-.2.47-.46.48-.08,0-.16,0-.24,0Z" />
      <path class="cls-6"
        d="M120.02,210.53c-.25,0-.45-.19-.47-.44-.01-.26.18-.48.44-.49,1.03-.06,1.82-.57,1.83-.58.17-.2.43-.19.63-.03.2.17.19.49.03.69-.15.18-1.19.78-2.43.85,0,0-.02,0-.03,0Z" />
      <path class="cls-6"
        d="M113.33,212.15c-.26,0-.47-.21-.47-.47v-1.63c0-.26.21-.47.47-.47s.47.21.47.47v1.63c0,.26-.21.47-.47.47Z" />
      <path class="cls-6"
        d="M147.97,213.95h-6.27c-.26,0-.47-.21-.47-.47s.21-.47.47-.47h6.27c.26,0,.47.21.47.47s-.21.47-.47.47Z" />
      <path class="cls-6"
        d="M105.88,164.09l-4.76.82c6.2,14.12,10.28,27.58,12.36,40.7,1.44.87,3.9.52,4.79.24-2.04-13.5-6.13-27.3-12.38-41.76Z" />
      <path class="cls-6"
        d="M47.45,108.74c-5.47,0-13.17-1.14-19.95-6.34-8.86-6.78-13.63-18.55-14.19-34.96l3.16-.11c.52,15.41,4.87,26.36,12.92,32.54,10.65,8.18,24.39,5.12,24.52,5.09l.72,3.08c-.26.06-3.1.7-7.19.7Z" />
      <path class="cls-3"
        d="M20.17,74.85l-6.45,1.84-3.14-8.53s-5-16.87-3.72-17.39,5.61,12.05,5.61,12.05c0,0-.84-20.12,1.95-20.69,2.79-.57,1.8,20.29,1.8,20.29,0,0,3.86-16.22,6.96-15.51s-4.76,18.5-4.76,18.5c0,0,8.61-3.59,9.28-1.34.68,2.24-9.29,4.62-9.29,4.62l1.75,6.16Z" />
      <path class="cls-6"
        d="M13.72,77.48c-.32,0-.62-.2-.74-.52l-3.14-8.53c-5.22-17.61-3.95-18.12-3.27-18.4.26-.11.56-.09.84.03,1.08.49,2.73,4.18,4.13,7.85-.11-7.4.3-16.07,2.72-16.57.41-.09.83.03,1.16.32,1.55,1.33,1.83,8.38,1.77,14.15,1.57-5.01,3.79-10.23,6.16-9.68.32.07.77.28,1.05.86,1.3,2.6-2.63,12.54-4.51,16.99,2.31-.84,6.03-1.95,7.65-1.18.46.22.78.58.92,1.03.09.3.13.77-.18,1.32-1.1,1.91-6.57,3.51-8.88,4.11l1.52,5.38c.12.42-.12.86-.54.98l-6.45,1.84c-.07.02-.15.03-.22.03ZM7.53,52.67c.41,2.93,2.07,9.39,3.81,15.26l2.87,7.79,4.98-1.42-1.53-5.4c-.06-.21-.03-.43.08-.62.11-.19.29-.32.5-.37,4.48-1.07,8.64-2.8,8.71-3.63,0-.01-.05-.04-.08-.05-1.16-.55-5.46.78-8.14,1.9-.3.12-.64.05-.87-.18-.23-.23-.29-.58-.16-.87,3.76-8.5,6.17-16.49,5.27-17.43-1.05-.25-3.88,6.09-5.98,14.94-.09.4-.48.66-.88.6-.4-.06-.7-.41-.68-.82.4-8.42.15-18.02-.94-19.41-1.17,1.17-1.6,11.04-1.23,19.81.02.39-.26.74-.64.81-.39.07-.77-.15-.89-.52-1.35-3.93-3.09-8.31-4.2-10.4Z" />
      <path class="cls-6"
        d="M113.11,103.23l-.42-3.14.64-.08c19.3-2.57,33.25-4.43,41.33-26.44l2.97,1.09c-8.74,23.8-24.25,25.87-43.88,28.48l-.64.08Z" />
      <path class="cls-3"
        d="M149.85,79.64l6.31,2.27,3.71-8.3s6.13-16.49,4.88-17.1c-1.25-.61-6.41,11.64-6.41,11.64,0,0,2.2-20.01-.54-20.77s-3.17,20.12-3.17,20.12c0,0-2.75-16.45-5.9-15.94s3.49,18.78,3.49,18.78c0,0-8.35-4.16-9.17-1.97-.83,2.19,8.95,5.24,8.95,5.24l-2.16,6.03Z" />
      <path class="cls-6"
        d="M156.16,82.7c-.09,0-.18-.01-.27-.05l-6.31-2.27c-.41-.15-.62-.6-.48-1.01l1.88-5.26c-2.27-.76-7.62-2.71-8.59-4.7-.27-.56-.2-1.03-.09-1.32.17-.45.51-.78.99-.97,1.67-.65,5.3.71,7.55,1.7-1.58-4.57-4.83-14.75-3.35-17.26.33-.55.78-.73,1.11-.79,2.37-.38,4.26,4.96,5.49,10.07.34-5.76,1.09-12.77,2.73-14,.36-.26.77-.35,1.18-.24,2.39.66,2.2,9.33,1.59,16.71,1.65-3.57,3.54-7.14,4.66-7.56.28-.11.58-.1.84.03.66.32,1.9.92-4.49,18.09l-3.73,8.35c-.13.29-.42.47-.72.47ZM150.86,79.17l4.87,1.75,3.41-7.63c2.12-5.7,4.2-12.03,4.81-14.92-1.25,2.01-3.28,6.26-4.89,10.09-.15.36-.55.56-.93.46-.38-.1-.63-.46-.59-.85.95-8.66,1.2-18.47.1-19.84-1.17,1.36-2.07,10.89-2.24,19.28,0,.41-.33.74-.73.77-.39.04-.77-.26-.84-.66-1.5-8.97-3.87-15.48-4.99-15.29-.93.86.94,8.99,4.11,17.73.11.3.02.64-.22.86-.24.22-.59.26-.88.12-2.6-1.3-6.8-2.91-7.99-2.45-.03.01-.08.03-.08.05.02.83,4.05,2.84,8.45,4.21.21.06.38.21.47.4.1.19.11.42.04.62l-1.89,5.29Z" />
      <path class="cls-8" d="M47.81,94.47c.16-.13.26-.21.26-.21,0,0-.1.08-.26.21Z" />
      <path class="cls-2"
        d="M118,155.53s3.79,3.84,5.17,9.15c1.08,4.18-.08,8.4-2.54,8.4-4.91,0-3.6-9.53-3.6-9.53l.97-8.03Z" />
      <path class="cls-1"
        d="M123.17,164.69c-.48-1.86-1.26-3.53-2.07-4.93.13,4.43-.36,8.93-1.84,13.02.39.19.84.31,1.37.31,2.46,0,3.63-4.22,2.54-8.4Z" />
      <path class="cls-6"
        d="M120.63,173.98c-1.2,0-2.19-.45-2.96-1.33-2.39-2.74-1.56-8.94-1.52-9.2l.97-8.02c.04-.34.27-.62.59-.73.32-.11.69-.02.92.22.16.16,3.98,4.07,5.4,9.56.82,3.15.46,6.44-.9,8.2-.67.86-1.53,1.32-2.5,1.32ZM120.58,173.38s.03,0,.05,0c-.02,0-.03,0-.05,0ZM120.57,173.38s0,0,0,0c0,0,0,0,0,0ZM120.57,173.38h0,0ZM120.53,173.38s.01,0,.02,0c0,0-.01,0-.02,0ZM120.52,173.38h0,0ZM120.51,173.38s0,0,.01,0c0,0,0,0-.01,0ZM120.5,173.38s0,0,0,0c0,0,0,0,0,0ZM120.48,173.38s0,0,.01,0c0,0,0,0-.01,0ZM120.46,173.38s.01,0,.02,0c0,0-.01,0-.02,0ZM120.45,173.38s0,0,0,0c0,0,0,0,0,0ZM120.44,173.38s0,0,0,0c0,0,0,0,0,0ZM120.44,173.38s0,0,0,0c0,0,0,0,0,0ZM120.43,173.38s0,0,0,0c0,0,0,0,0,0ZM120.42,173.38s0,0,0,0c0,0,0,0,0,0ZM120.42,173.38h0,0ZM120.4,173.38s0,0,.01,0c0,0,0,0-.01,0ZM120.4,173.38h0,0ZM118.22,156.21l-.89,7.38c0,.06-.79,5.95,1.24,8.28.54.62,1.22.92,2.07.92.6,0,1.12-.29,1.56-.86,1.13-1.45,1.41-4.4.69-7.17-1.07-4.12-3.65-7.38-4.67-8.55ZM123.75,169.51c-.18,1.12-.55,2.09-1.09,2.79-.11.14-.22.27-.34.38.12-.11.24-.24.34-.38.54-.7.91-1.67,1.09-2.79ZM118.38,155.5c.71.76,3.43,3.87,4.8,8.14-1.37-4.27-4.09-7.38-4.8-8.14Z" />
      <path class="cls-2"
        d="M50.51,157.5c-.99.17-4,21.36,1.92,21.07,5.84-.28.99-10.73.99-10.73,0,0-1.92-10.51-2.91-10.35Z" />
      <path class="cls-1"
        d="M52.43,178.58c1.25-.06,2.01-.59,2.43-1.38-3.45-4.25-5.2-9.74-5.42-15.5-.9,6.21-1.26,17.08,2.99,16.87Z" />
      <path class="cls-6"
        d="M54.27,167.58c-.1-.53-.53-2.83-1.06-5.11-1.17-5.05-1.75-5.86-2.68-5.86-.05,0-.13,0-.17.01-.51.09-1.21.2-1.93,5.86-.45,3.51-.57,7.1-.35,9.84.4,4.74,1.82,7.15,4.22,7.15.05,0,.11,0,.16,0,1.41-.07,2.45-.63,3.08-1.68,1.8-2.99-.71-8.95-1.28-10.21ZM50.16,176.45c-2.12-4.91-.33-17.04.42-18.57.6.8,1.74,5.58,2.55,10.02l.02.07c.03.07,3,6.53,1.39,9.2-.42.7-1.12,1.06-2.12,1.11h-.1c-.92,0-1.62-.6-2.15-1.83Z" />
      <path class="cls-7"
        d="M81.85,175c-11.91,0-25.56-1.41-28.17-5.37-.88-1.34-3.59-10.63-3.32-12.55-.01-.64.8-.89,1.08-.98.02,0,.04-.01.07-.02,1.96-.55,7.51-.99,16.96-1.35.22,0,.43,0,.64-.02.24-.01,1.75-.06,1.98-.07.22,0,.43-.01.65-.02,16.5-.52,37.28-.59,38.63-.59.49-.11,3.56-.82,5.41-1.17.05-.01.1-.02.14-.02l.28-.05c.33-.06.6-.1.78-.12.02,0,.06,0,.08,0,.22,0,.43.1.59.28.94,1.08,0,8.92-.66,13.53,0,.84-.37,1.64-1.1,2.38-4.17,4.23-20.1,6.13-34.03,6.13Z" />
      <path class="cls-6"
        d="M117.05,153.28c1.21,0-.66,13.18-.66,13.18.08,5.24-17.85,7.96-34.53,7.96-13.09,0-25.41-1.67-27.67-5.1-.94-1.42-3.55-10.95-3.22-12.19-.03-.15.2-.3.66-.44h0c2.07-.6,8.73-1.03,16.86-1.34.22,0,.44,0,.67-.02.42-.02.85-.03,1.28-.05.43-.02.88-.03,1.32-.05,17.15-.54,38.67-.59,38.67-.59,0,0,3.47-.81,5.48-1.18.03,0,.05,0,.07,0,.11-.02.22-.04.32-.06.31-.06.56-.09.74-.11,0,0,.01,0,.02,0h0ZM117.05,152.09h0s-.08,0-.12,0c-.24.02-.52.07-.85.13-.08.01-.16.03-.24.04-.06,0-.12.01-.2.03-1.81.34-4.69,1-5.35,1.15-1.85,0-22.3.07-38.57.59-.23,0-.44.02-.65.02-.23,0-.46.01-.68.02-.21,0-.42.02-.63.02-.22,0-.44.01-.66.02-.21,0-.42.02-.61.02-.02,0-.03,0-.05,0-9.46.36-15.05.81-17.08,1.37-.03,0-.06.01-.09.02-1.28.39-1.52,1.09-1.5,1.57-.15,2.38,2.5,11.46,3.42,12.85,3.45,5.22,22.81,5.63,28.66,5.63,14.06,0,30.17-1.95,34.45-6.31.83-.84,1.25-1.77,1.27-2.76,1.77-12.52.86-13.57.51-13.96-.27-.31-.64-.48-1.04-.48h0Z" />
      <path class="cls-2"
        d="M58.1,171.73c14.15,4.96,58.42,2.95,58.28-5.28,0,0,.67-4.76.95-8.55-.94,2.18-1.04,6.53-2.49,8.15-11.27,9.15-41.62,8.9-56.75,5.68Z" />
      <path class="cls-3"
        d="M117.03,153.28c-1.24.11-6.6,1.36-6.6,1.36l-53.37,2.48s-5.76-1.24-6.1,0c-.08.3-.29,2.55,11.39,3.57,15.54,1.36,38.23-1.05,49.33-4.01,6.66-1.78,5.48-3.41,5.35-3.39Z" />
      <path class="cls-5"
        d="M111.64,154.77c-3.36.96-12.46.04-13.58.4-1.13.37,1.18,13.28-3.97,13.53-5.17.25-4.59-13.16-4.59-13.16-1.98.05-7.57,0-11.28,1.34-.69,0-5.22,8.23-6.43,8.36-.62.07-6.59-8.03-7.45-8.06-3.03-.14-12.88,1.33-12.8-.42,0,0,.03-.03.08-.07h0c2.07-.6,8.73-1.03,16.86-1.34.22,0,.44,0,.67-.02.42-.02.85-.03,1.28-.05.43-.02.88-.03,1.32-.05,16.91-.6,38.4-1.08,38.4-1.08,0,0,3.72-.38,5.75-.69.03,0,.05,0,.07,0,.11-.02.22-.04.32-.06.31-.06.21-.03-4.65,1.38Z" />
      <path class="cls-2"
        d="M53.22,102.47s-7.41,31.29-.57,33.82c1.92.71,3.71-3.22,4.13-7.59.42-4.36-3.56-26.23-3.56-26.23Z" />
      <path class="cls-6"
        d="M54.38,102.26c-.1-.55-.58-.96-1.14-.97,0,0-.02,0-.03,0-.55,0-1.03.38-1.15.92-.02.08-1.84,7.94-2.81,16.02-.58,4.79-.75,8.74-.51,11.73.33,4.19,1.46,6.62,3.47,7.43.29.12.59.18.9.18,2.64,0,4.44-4.4,4.86-8.75.43-4.48-3.41-25.66-3.57-26.56ZM56.78,128.7c-.38,4-1.99,7.68-3.68,7.68-.15,0-.3-.03-.46-.09-6.68-2.7.57-33.82.57-33.82,0,0,3.98,21.87,3.56,26.23Z" />
      <path class="cls-8"
        d="M60.43,138.91s-5.4.08-5.74,1.16,1.02,4.98,1.36,5.73-.79,3.9,1.02,4.31c1.81.41,20.78,1.08,25.86.58,5.08-.5,24.98-2.16,27.51-2.41,1.33-.13,4.2-.33,4.78-1.25.52-.82-1.17-2.3-1.12-3.48.11-2.49,1.13-4.99-.79-5.4s-51.66.71-52.87.75Z" />
      <path class="cls-2"
        d="M61.16,150.5c-1.79,0-2.46-1.42-3.38-2.79-.33-.49-.73-3.21-1.05-3.75-1.06-1.82-1.97-1.67-2.9-3.49.35,1.92,1.72,3.76,1.92,4.36.34,1.02-.79,5.31,1.02,5.87.63.2,3.38.44,6.9.64l-.38-.83c-.71,0-1.42,0-2.12,0Z" />
      <path class="cls-2"
        d="M114.72,143.19c.14,1.72-.3,2.06-.93,2.28-5.73,2.07-11.61,1.91-17.63,2.23-3.13.17-6.3.83-9.51,1.24-1.73.22-3.46.37-5.19.48l-1.66,1.4c1.29-.04,2.39.25,3.15.15,5.08-.68,25.95-2.3,28.48-2.64,1.33-.18,3.79-.08,4.37-1.33.29-.62-.68-2.87-1.08-3.82Z" />
      <path class="cls-6"
        d="M63.68,145.2c-4.72,0-9.29-1.08-9.33-1.09-.16-.04-.26-.2-.22-.36.04-.16.2-.26.36-.22.04.01,4.55,1.07,9.2,1.07.16,0,.3.13.3.3s-.13.3-.3.3Z" />
      <path class="cls-6"
        d="M105.39,143.01c-.16,0-.29-.12-.3-.28,0-.16.12-.3.28-.31.03,0,3.02-.19,9.68-1.86.16-.04.32.06.36.22.04.16-.06.32-.22.36-6.73,1.68-9.67,1.87-9.79,1.88,0,0-.01,0-.02,0Z" />
      <path class="cls-6"
        d="M109.36,138.06c2.21,0,3.64.03,3.94.09,1.92.41.9,2.91.79,5.4-.05,1.18,1.65,2.66,1.12,3.48-.58.91-3.45,1.12-4.78,1.25-2.53.25-22.43,1.91-27.51,2.41-1.29.13-3.46.18-6.03.18-7.56,0-18.49-.45-19.84-.76-1.81-.41-.68-3.57-1.02-4.31-.34-.75-1.69-4.65-1.36-5.73.34-1.08,5.74-1.16,5.74-1.16,1.03-.04,36.78-.84,48.93-.84h0ZM109.36,136.88c-12.04,0-47.53.79-48.97.84-6.24.1-6.68,1.47-6.84,1.99-.51,1.63,1.09,5.79,1.37,6.47.01.15-.02.52-.04.79-.1,1.23-.32,3.78,1.91,4.29,1.54.35,12.62.79,20.1.79,2.84,0,4.9-.06,6.14-.18,2.95-.29,11.07-.98,17.6-1.54,4.75-.41,8.85-.76,9.91-.86l.31-.03c2.46-.23,4.57-.53,5.35-1.76.67-1.05.03-2.16-.44-2.98-.18-.31-.51-.89-.5-1.09.03-.58.11-1.18.19-1.76.24-1.72.59-4.33-1.92-4.86-.2-.04-.54-.11-4.19-.11h0Z" />
      <path class="cls-7"
        d="M72.64,158.22c-.16,0-.32-.07-.43-.19-.34-.36-8.33-8.93-10.72-13.93-1.19-2.49-4.21-3.01-6.54-3.01-2.03,0-3.7.39-3.72.4-.05.01-.09.02-.14.02-.19,0-.37-.09-.48-.25-.14-.2-.14-.46-.01-.67.05-.08,1.27-1.92,3.47-3.5.71-.51,1.51-.97,2.29-1.42,1.37-.79,2.78-1.61,3-2.32.84-2.73.67-12.92.46-16.32-.03-.54-.24-.86-.56-.86-.27,0-.58.22-.63.63-.09.67-.01,1.84.07,3.08.23,3.49.51,7.84-2.17,8.31-.1.02-.2.03-.29.03-2.08,0-2.08-3.43-2.09-7.77,0-3.05-.01-6.51-.84-8.35-.12-.27-.03-.58.22-.74.93-.6,1.3-.7,2.27-.96.33-.09.75-.2,1.31-.36,7.57-2.22,20.72-3.45,26.91-3.45,9.55,0,20.17,1.06,25.28,1.58l1.21.12s.05,0,.08,0c.76,0,2.83-.55,3.56-.77.05-.02.11-.02.17-.02.12,0,.24.04.35.11.15.11.24.28.25.46.1,2.45.5,14.79-1.33,16.7-.29.31-.61.37-.82.37-.02,0-.1,0-.12,0-1.66-.19-1.86-2.9-2.11-6.04-.11-1.37-.3-3.86-.72-4.28-1.11,1.71.26,17.46,1.28,19.1.29.38,2.75,1.87,5.84,3.53,0,0,.21.11.21.12.74.41,1.15.74,1.17.75.18.14.26.38.21.61-.06.23-.24.4-.46.44-.2.04-19.66,3.77-25.33,5.74-11.13,3.86-19.55,12.85-19.64,12.94-.11.12-.27.19-.43.19h0ZM76.46,115.8c-1.39.64-.73,13.16-.17,16.48.36,2.09,2.77,3.18,4.98,3.18s4.18-1.05,5.02-2.82c.68-1.43.75-14-.89-16.59-.14-.22-.24-.27-.25-.27-.57.05-.62,3.84-.65,5.46-.05,3.23-.1,6.56-1.29,7.95-.54.63-1.25.97-2.12,1.02-.05,0-.1,0-.16,0-3.16,0-3.45-5.4-3.68-9.75-.08-1.43-.15-2.79-.32-3.62-.17-.8-.38-1.04-.48-1.05ZM64.05,118.65c-1.09,1.22-.52,13.25,0,14.8.27.83,1.32,1.41,2.54,1.41,1.35,0,2.59-.66,3.38-1.82,1.07-1.55,1.28-8.29,1.21-9.38,0-.16,0-.44,0-.82,0-1.34.02-5.43-.82-6.28-.05-.05-.09-.07-.11-.07-.28.66-.22,3.47-.17,5.54.12,5.06.11,8.74-1.12,10-.3.31-.68.47-1.09.47-.06,0-.11,0-.17,0-3.05-.33-2.77-4.33-2.57-7.25.06-.94.13-1.83.08-2.48-.03-1.94-.52-4.07-1.14-4.11ZM95.9,115.77c-1.11,1.59-.88,16.27-.09,18.03.23.5,1.67,1.04,4.28,1.04s4.53-.52,4.86-.87c.76-.83.73-2.44.69-4.66-.01-.57-.02-1.18-.02-1.84v-.67c0-2.86,0-10.46-.99-11.02-.8.19-.81,3.28-.81,5.54-.01,4.24-.03,9.04-3.47,9.2-.05,0-.1,0-.15,0-.68,0-1.24-.23-1.68-.69-1.24-1.3-1.1-4.15-.96-7.17.12-2.59.26-5.53-.69-6.53-.24-.25-.53-.36-.93-.36-.01,0-.02,0-.03,0ZM92.23,115.59c-1.13.04-3.15.93-3.3,1.37-.13,4.6.74,16.19,2.55,16.42h0s.06-.02.11-.08c1.64-1.89.88-15.15.63-17.71Z" />
      <path class="cls-6"
        d="M84,107.17c10.34,0,21.85,1.24,26.43,1.69.04,0,.09,0,.14,0,1.01,0,3.73-.79,3.73-.79,0,0,.67,16.46-1.55,16.46-.02,0-.04,0-.05,0-2.28-.27-.92-10.37-2.94-10.36-.02,0-.04,0-.05,0-2.1.18-.02,18.89.9,20.09.57.74,5.07,3.18,6.04,3.7.06.03.13.07.19.1,0,0,0,0,0,0,.72.4,1.11.7,1.11.7,0,0-19.64,3.76-25.41,5.76-11.41,3.95-19.88,13.1-19.88,13.1,0,0-8.24-8.81-10.62-13.78-1.3-2.73-4.48-3.35-7.07-3.35-2.12,0-3.86.41-3.86.41,0,0,1.18-1.81,3.32-3.34,2.06-1.48,5.08-2.64,5.51-4.05.87-2.85.7-13.03.49-16.53-.06-.99-.6-1.42-1.15-1.42s-1.13.43-1.22,1.15c-.34,2.52,1.4,10.36-1.62,10.88-.06.01-.13.02-.19.02-2.74,0-.46-11.47-2.4-15.77,1.15-.75,1.27-.62,3.42-1.26,7.54-2.21,20.56-3.43,26.75-3.43h0ZM91.49,133.97c2.78,0,1.38-18.23,1.29-18.79-.02-.13-.19-.19-.47-.19-1.14,0-3.94,1.01-3.97,1.91-.04,1.28.17,16.69,3.06,17.06.03,0,.06,0,.08,0h0ZM100.09,135.43c2.32,0,4.71-.43,5.29-1.07,1.14-1.24.83-3.51.83-6.9,0-4.65.08-12.28-1.54-12.28-.04,0-.08,0-.12.01-3.01.65.86,14.48-4.23,14.72-.04,0-.08,0-.12,0-4.83,0,.8-14.75-4.26-14.75-.06,0-.13,0-.2,0-1.67.12-1.38,16.83-.46,18.86.45.99,2.6,1.39,4.82,1.39h0ZM80.94,129.62c-3.56,0-2.76-9.66-3.42-12.89-.19-.9-.49-1.49-1.03-1.52-.01,0-.03,0-.04,0-2.44,0-1.08,15.25-.75,17.17.4,2.33,2.95,3.67,5.56,3.67,2.24,0,4.52-.98,5.56-3.16.83-1.74.87-17.7-1.67-17.7-.02,0-.03,0-.05,0-2.18.18-.21,11.14-2.33,13.61-.4.47-.95.77-1.7.82-.04,0-.08,0-.12,0h0ZM67.86,131.91s-.07,0-.11,0c-3.32-.36-1.77-6.49-1.97-9.18,0,0-.07-4.66-1.75-4.66-.04,0-.08,0-.12,0-1.8.22-.91,14.12-.44,15.57.37,1.12,1.66,1.82,3.11,1.82,1.36,0,2.87-.62,3.87-2.08,1.23-1.79,1.38-8.82,1.32-9.76-.05-.98.3-7.73-1.56-7.73-.07,0-.15.01-.23.03-1.56.41,1.03,15.99-2.12,15.99h0ZM84,105.99c-6.23,0-19.45,1.24-27.08,3.48-.55.16-.96.27-1.29.36-1.01.27-1.43.38-2.44,1.04-.49.32-.68.95-.44,1.48.78,1.73.79,5.12.79,8.11,0,1.94,0,3.77.21,5.17.3,2.11,1.14,3.19,2.48,3.19.13,0,.26-.01.39-.03,2.06-.36,2.67-2.4,2.78-4.81,0,3.82-.16,7.74-.61,9.21-.15.49-1.7,1.39-2.73,1.98-.79.45-1.6.93-2.33,1.45-2.29,1.64-3.57,3.57-3.62,3.66-.27.41-.26.93.02,1.33.23.32.59.5.97.5.09,0,.18-.01.27-.03.01,0,1.64-.38,3.58-.38,2.16,0,4.95.46,6,2.67,2.42,5.08,10.48,13.71,10.82,14.08.22.24.54.38.87.38h0c.33,0,.64-.14.87-.38.08-.09,8.42-8.98,19.4-12.79,5.63-1.95,25.05-5.68,25.25-5.72.46-.09.82-.43.93-.88.11-.45-.05-.92-.42-1.21-.05-.04-.48-.38-1.27-.81,0,0,0,0-.01,0-.05-.03-.1-.05-.15-.08l-.05-.03c-3.15-1.69-5.17-2.94-5.62-3.35-.3-.78-.93-4.49-1.32-9.16-.15-1.75-.23-3.22-.26-4.42.25,3.02.6,5.5,2.56,5.73.06,0,.13.01.19.01.32,0,.8-.1,1.24-.55.7-.73,1.44-2.44,1.57-9.62.07-3.83-.07-7.48-.08-7.52-.01-.36-.2-.7-.49-.91-.2-.15-.45-.22-.69-.22-.11,0-.22.02-.33.05-1.06.31-2.82.74-3.39.74l-1.23-.12c-5.12-.51-15.76-1.58-25.34-1.58h0ZM89.52,117.17c.36-.31,1.38-.72,2.16-.9.11,1.49.3,4.53.33,7.67.07,5.53-.36,7.68-.64,8.5-.37-.69-1.03-2.53-1.48-7.36-.33-3.59-.38-6.96-.37-7.91h0ZM100.09,134.25c-2.44,0-3.58-.48-3.75-.71-.7-1.59-.91-14.36-.07-17.11.07.03.12.07.16.12.77.81.64,3.74.53,6.09-.15,3.15-.28,6.13,1.13,7.61.54.57,1.27.87,2.1.87.06,0,.12,0,.18,0,4.01-.19,4.02-5.52,4.04-9.79,0-1.2,0-2.96.18-4.06.44,2.26.44,7.19.44,9.54v.67c0,.66,0,1.27.02,1.85.04,2.07.06,3.57-.52,4.23-.35.26-2.1.7-4.44.7h0ZM59.38,121.54c-.03-.57-.06-1.14-.1-1.69-.08-1.19-.15-2.32-.07-2.94,0,.04.01.1.02.16.07,1.17.13,2.75.15,4.47h0ZM80.94,130.8c.06,0,.13,0,.2,0,1.01-.05,1.89-.48,2.53-1.23,1.33-1.55,1.38-4.84,1.43-8.32.02-1.22.04-2.86.18-3.96.32,1.12.69,3.23.83,6.91.15,4.1-.11,7.59-.35,8.19-.73,1.54-2.41,2.47-4.48,2.47-1.96,0-4.09-.92-4.39-2.68-.12-.72-.5-4.33-.62-8.17-.11-3.37.04-5.3.21-6.4.09.78.15,1.81.21,2.89.25,4.59.55,10.31,4.27,10.31h0ZM66.59,134.27c-.96,0-1.79-.42-1.98-1-.42-1.35-.86-10.01-.36-13.22.19.71.34,1.74.35,2.69,0,.02,0,.05,0,.07.04.6-.01,1.47-.08,2.39-.2,2.98-.51,7.49,3.1,7.88.08,0,.16.01.24.01.57,0,1.09-.23,1.51-.65.19-.19.35-.42.49-.69-.11.42-.24.75-.38.96-.97,1.41-2.35,1.56-2.9,1.56h0Z" />
      <path class="cls-3"
        d="M72.7,155.47c-1.32.2-3.97-3.75-5.83-6.32-.85-1.18-2.88-5.11-3.78-6.15-5.02-5.76-11.85-2.02-11.85-2.02,0,0,8.42-2.1,10.79,2.87,2.37,4.97,10.62,13.78,10.62,13.78,0,0,8.47-9.15,19.88-13.1,5.78-2,25.41-5.76,25.41-5.76,0,0-7.98,1.02-12.2,1.73-11.91,1.99-16.46,4.58-22.8,7.68-4.2,2.05-8.91,7.1-10.23,7.3Z" />
      <path class="cls-6"
        d="M82.29,43.95l-.31,14.01c-.01.52.4.95.92.96h.02c.51,0,.93-.41.94-.92l.3-13.89c-.65.07-1.27.03-1.87-.16Z" />
      <path class="cls-6"
        d="M110.76,20.34c-.36-.42-.93-.44-1.32-.11l-26.39,22.37c.26.57.64,1.07,1.12,1.51l26.48-22.45c.39-.33.44-.93.11-1.32Z" />
      <path class="cls-7"
        d="M92.65,42.94c-2.21,0-4.11-1.13-5.48-3.27-1.74-2.71-1.9-5.67-.44-8.34,1.89-3.46,6.41-6.07,10.51-6.07,2.28,0,4.14.79,5.38,2.28,1.55,1.86,1.63,4.65.23,7.64-1.76,3.76-5.94,7.76-10.2,7.76h0Z" />
      <path class="cls-6"
        d="M97.23,25.86c1.95,0,3.73.63,4.93,2.07,3.86,4.65-3.3,14.42-9.51,14.42-1.85,0-3.62-.87-4.98-2.99-4.53-7.06,3.34-13.49,9.57-13.49h0ZM97.23,24.67c-4.37,0-9.01,2.68-11.03,6.38-1.56,2.86-1.4,6.04.46,8.94,1.88,2.93,4.29,3.54,5.98,3.54,4.5,0,8.89-4.17,10.73-8.1,1.5-3.21,1.39-6.22-.31-8.27-1.36-1.63-3.38-2.5-5.84-2.5h0Z" />
      <path class="cls-8"
        d="M102.84,29.05c-.17-.4-.39-.78-.68-1.12-4.27-5.14-16.1.05-15.83,7.43,3.89-4.6,10.44-7.15,16.5-6.3Z" />
      <path class="cls-8"
        d="M57.85,114.77c-1.4,0-2.77-.57-3.75-1.57-.99-1.01-1.52-2.4-1.48-3.91,0-.28-.01-.93-.04-1.68-.07-2.38-.12-4.41.05-5.24.1-.49.24-1.22,13.36-3.6,6.22-1.13,13.72-2.27,16.01-2.27.11,0,.21,0,.3,0,.7-.05,10.02-.71,18.43-.71,5.1,0,8.89.24,11.26.71,1.52.3,2.36,2.82,3.05,5.5.05.19.09.34.11.43.76,1.17-.18,5.42-.19,5.46-.54,2.42-1.27,3.81-2.16,4.12-1.98.71-27.59.75-27.85.75-2.44,0-10.06.65-16.78,1.22-4.97.42-9.26.79-10.31.79Z" />
      <path class="cls-6"
        d="M100.73,96.38c4.36,0,8.51.17,11.15.7,1.69.34,2.63,5.51,2.75,5.64.72.72-.36,8.14-2.04,8.74-1.68.6-23.34.72-27.65.72s-24.69,2.01-27.09,2.01-4.7-1.88-4.64-4.88c.02-.99-.24-5.63,0-6.82.23-1.17,24.53-5.4,28.79-5.4.11,0,.22,0,.3,0,0,0,9.65-.71,18.42-.71h0ZM100.73,95.19c-8.3,0-17.48.64-18.43.7-.09,0-.19,0-.29,0-2.33,0-9.87,1.15-16.12,2.28-13.51,2.45-13.66,3.16-13.84,4.07-.18.89-.13,2.96-.06,5.38.02.74.04,1.38.04,1.65-.04,1.67.55,3.21,1.65,4.34,1.09,1.11,2.61,1.75,4.17,1.75,1.07,0,5.17-.35,10.36-.79,6.38-.54,14.31-1.22,16.73-1.22.26,0,25.91-.02,28.05-.79.41-.15,1.65-.59,2.54-4.55.24-1.06.9-4.41.17-5.81-.02-.09-.05-.21-.09-.36-.85-3.31-1.77-5.59-3.51-5.93-2.41-.48-6.24-.72-11.38-.72h0Z" />
      <path class="cls-7"
        d="M53.19,107.89c.02.63.03,1.14.03,1.4-.07,3,2.24,4.88,4.64,4.88s22.78-2.01,27.09-2.01,25.98-.12,27.65-.72c.7-.25,1.3-1.71,1.7-3.37-.78,1.7-1.84,2.45-3.46,2.62-5.99.65-12.76.45-19.44.57-5.71.1-11.35.52-16.59.86-6.14.4-11.89,1.84-17.34.41-2.12-.56-3.25-1.51-4.29-4.65Z" />
      <path class="cls-5" d="M97.37,97.74c0,.43.01.88.03,1.34.04-.44.07-.89.1-1.33-.04,0-.09,0-.13,0Z" />
      <path class="cls-5"
        d="M114.63,102.71c-.13-.13-1.06-5.3-2.75-5.64-7.95-1.57-29.57,0-29.57,0-3.23-.24-28.85,4.19-29.09,5.39-.12.61-.11,2.13-.08,3.6,3.1-1.26,9.42-2.06,9.45-1.62,0,0,.32,8.32,3.43,8.02,3.11-.3,2.02-8.52,2.02-8.52,0,0,.28,4.41,2.98,4.08s2.26-3.46,2.66-6.02c5.03-1.02,11.26-.75,16.19-.66-.13,3.1.96,9.67,3.8,9.4,3.7-.18,2.39-6.33,2.39-6.33,0,0,.36,6.12,3.02,6.15s3.62-6.78,3.62-6.78c0,0,8.67,1.03,12.04,1.73.16-1.39.14-2.55-.12-2.81Z" />
      <path class="cls-6"
        d="M59.61,106.03c-2.15.23-6.35,1.21-6.53,1.25-.25.06-.41.31-.35.56.05.22.24.36.46.36.04,0,.07,0,.11-.01.04,0,4.32-1.01,6.42-1.23.26-.03.44-.26.42-.52-.03-.26-.26-.45-.52-.42Z" />
      <path class="cls-6"
        d="M114.88,104.97c-10.8-.73-27.91-1.48-28.42-1.48-.26,0-.47.21-.47.47s.21.47.47.47c.51,0,17.57.75,28.36,1.48.01,0,.02,0,.03,0,.24,0,.45-.19.47-.44.02-.26-.18-.48-.44-.5Z" />
      <path class="cls-6"
        d="M114.46,107.27c-2.73,0-10.27-.4-10.35-.4-.27-.03-.48.18-.49.44s.18.48.44.49c.08,0,7.65.4,10.4.4.26,0,.47-.21.47-.47s-.21-.47-.47-.47Z" />
      <path class="cls-6"
        d="M62.72,109.29c-.6.03-1.23.09-1.88.15-.26.03-.45.26-.42.51.02.24.23.42.47.42.02,0,.03,0,.05,0,.64-.06,1.26-.11,1.85-.15.26-.01.46-.24.44-.49-.02-.26-.24-.47-.49-.44Z" />
      <path class="cls-6"
        d="M58.81,109.67c-1.61.21-3.45.5-5.78.9-.26.04-.43.29-.38.54.04.23.24.39.46.39.03,0,.05,0,.08,0,2.31-.4,4.14-.69,5.74-.89.26-.03.44-.27.4-.53-.03-.26-.27-.44-.53-.4Z" />
      <path class="cls-6"
        d="M87.87,105.4c-.64,0-2.45.05-5.56.15-.26,0-.46.23-.45.48,0,.25.22.45.47.45h.02c3.05-.1,4.91-.15,5.53-.15.26,0,.47-.21.47-.47s-.21-.47-.47-.47Z" />
      <path class="cls-6"
        d="M78.83,105.66l-2.64.09c-.26,0-.46.23-.45.49,0,.25.22.45.47.45h.02l2.64-.09c.26,0,.46-.23.45-.49,0-.26-.24-.46-.48-.45Z" />
      <path class="cls-2"
        d="M93.76,110.97c2.48-.11,2.82-9.37,2.82-9.37,0,0,.45,8.92,3.16,8.81,2.71-.11,3.39-11.75,3.39-11.75l.78-3.77s-.89-.96-6.64-1.39c-5.75-.43-7.38,2-7.38,2,0,0,1.38,15.58,3.87,15.47Z" />
      <path class="cls-3"
        d="M96.72,98.4c-.47,0-.12,4.62.26,6.78.42,2.46,1.23,5.28,2.76,5.21.57-.02,1.05-.56,1.45-1.38-3.27,1.38-4-10.62-4.47-10.62Z" />
      <path class="cls-6"
        d="M104.3,93.95c-.57,0-.69,1.16-.69,1.16,0,0-1.16,15.17-3.87,15.29-.02,0-.03,0-.05,0-2.66,0-3.11-8.81-3.11-8.81,0,0-.33,9.26-2.82,9.37,0,0-.02,0-.03,0-2.47,0-3.53-15.34-3.53-15.34,0,0,.05-1.24-.58-1.27-.63-.03-.38,1.05-.36,1.33,0,.04.27,3.92.85,7.74,1.11,7.44,2.4,8.47,3.62,8.47.01,0,.06,0,.07,0,1.46-.07,2.35-1.75,2.89-3.82.6,1.81,1.54,3.26,3,3.26h.09c1.21-.05,2.62-1.1,3.84-8.47.63-3.8.93-7.64.93-7.68.03-.42.33-1.23-.25-1.23Z" />
      <path class="cls-3"
        d="M90.44,98.3c.06.89.84,12.78,3.32,12.67.33-.01.61-.19.87-.48-1.43-3.66-4.19-12.19-4.19-12.19Z" />
      <path class="cls-7"
        d="M47.4,95.02c-.6,0-1.06-.1-1.4-.32-1.62-1.01-2.42-9.36-.34-17.74,2.35-9.44,10.04-25.56,35.22-27.35,1.39-.1,2.78-.15,4.12-.15,24.2,0,33.33,15.86,36.61,25.32,2.35,6.75,2.69,13.4,1.4,14.42-.67.53-2.26.76-5.3.76s-7.13-.23-11.85-.5c-5.75-.33-12.28-.69-18.22-.69-1.15,0-2.25.01-3.28.04-13.06.35-23.14,2.99-29.8,4.73-3.3.86-5.68,1.49-7.16,1.49Z" />
      <path class="cls-6"
        d="M85,50.06c36.38,0,39.87,36.91,37.65,38.67-.58.46-2.36.63-4.93.63-6.85,0-19.35-1.19-30.08-1.19-1.12,0-2.22.01-3.3.04-19.59.53-32.69,6.21-36.95,6.21-.47,0-.84-.07-1.09-.23-2.5-1.56-5.57-41.13,34.62-43.99,1.4-.1,2.76-.15,4.08-.15h0ZM85,48.87c-1.35,0-2.75.05-4.16.15-25.55,1.82-33.37,18.2-35.76,27.8-.97,3.92-1.41,8.15-1.21,11.92.13,2.51.54,5.67,1.81,6.46.44.27,1,.41,1.72.41,1.56,0,3.97-.63,7.31-1.5,6.64-1.74,16.67-4.36,29.67-4.71,1.02-.03,2.12-.04,3.27-.04,5.93,0,12.44.37,18.19.69,4.73.27,8.81.5,11.89.5,3.77,0,4.99-.35,5.66-.89,1.86-1.47.86-9.13-1.21-15.08-1.68-4.82-5.03-11.71-11.5-17.15-6.75-5.68-15.39-8.56-25.68-8.56h0Z" />
      <path class="cls-2"
        d="M47.73,94.41c4.57-.27,17.5-5.69,36.62-6.2,15.2-.41,36,2.34,38.3.52.67-.53.82-4.29-.31-9.27.43,2.17.43,6.65-2.77,7.37-9.32,2.24-25.09-1.24-34.63-.28-12.51,1.27-25.05,2.75-37.22,7.86Z" />
      <path class="cls-3"
        d="M77.89,50.5c-36.99,4.6-34.02,42.17-31.58,43.69.15.1.35.16.59.19-2.47-24.66,12.76-41.18,30.99-43.88Z" />
      <path class="cls-5" d="M65.44,57.61s2.23,1.55,4.95.84c2.72-.72,1.03-2.5.2-2.55-.83-.06-4.83,1.28-5.15,1.71Z" />
      <path class="cls-8" d="M82.67,56.23c-2.9.2-3.04.34-2.87,1.33s4.95.56,6.44-.3c.98-.57-2.8-1.08-3.57-1.03Z" />
      <path class="cls-5" d="M85.94,49.7c-.11,0-3.59.89-.69,2.41,2.9,1.52,3.45.21,3.45.21,0,0-1.1-2.59-2.76-2.62Z" />
      <path class="cls-8" d="M94.03,53.26c-.66,0-2.87.48-1.92,1.04s4.95.49,5.38-.18c.43-.67-2.8-.86-3.46-.86Z" />
      <path class="cls-5"
        d="M103.97,55.32s.08,2.39,1.97,2.82c1.89.43,4.08-.39,2.8-1.33-1.28-.94-4.77-1.49-4.77-1.49Z" />
      <path class="cls-8"
        d="M56.62,59.22c-.13.09-1.79,1.9-1.79,1.9,2.03.78,5.55-4.6,5.55-4.6-.88.58-2.33,1.65-3.76,2.7Z" />
      <path class="cls-8"
        d="M76.71,50.05c-2.2.3-4.1,1.38-4.1,1.38,0,0,.44,1.34,3.7.9,2.07-.28,3.07-1.42,3.09-1.79.03-.66-2.68-.49-2.68-.49Z" />
      <path class="cls-6" d="M86.24,56.73c.11-.8-5.06-3.3-6.46-.75-1.4,2.55,6.35,1.55,6.46.75Z" />
      <path class="cls-6" d="M97.06,53.5c.11-.8-5.15-3.87-5.34-.97-.17,2.61,5.23,1.77,5.34.97Z" />
      <path class="cls-6" d="M103.97,55.32c-.14.86,3.7,3.84,4.97,1.14,1.27-2.69-4.83-2.01-4.97-1.14Z" />
      <path class="cls-6" d="M88.7,52.32c.76-.28-.28-5.98-2.23-4.58-2.91,2.09,1.48,4.86,2.23,4.58Z" />
      <path class="cls-6" d="M79.39,50.55c.11-.8-5.06-3.3-6.46-.75-1.4,2.55,6.35,1.55,6.46.75Z" />
      <path class="cls-6" d="M59.29,57.11c-.38-.71-5.47-.25-5.02,2.54s5.39-1.83,5.02-2.54Z" />
      <path class="cls-6" d="M65.34,57.48c.24.77,6.4.8,5.38-1.93-1.01-2.7-5.76.69-5.38,1.93Z" />
      <path class="cls-6"
        d="M62.35,173.51c-.14,0-.27-.1-.29-.25l-.97-5.72c-.03-.16.08-.31.24-.34.16-.03.31.08.34.24l.97,5.72c.03.16-.08.31-.24.34-.02,0-.03,0-.05,0Z" />
      <path class="cls-6"
        d="M64.33,173.82c-.15,0-.27-.11-.29-.25-.12-.86-.33-2.28-.37-2.42-.04-.16.05-.32.21-.36.15-.04.31.04.36.19.05.15.29,1.8.39,2.5.02.16-.09.31-.25.34-.01,0-.03,0-.04,0Z" />
      <path class="cls-6"
        d="M62.56,162.16c-.14,0-.27-.1-.29-.25l-1.21-7.1c-.03-.16.08-.31.24-.34.16-.03.31.08.34.24l1.21,7.1c.03.16-.08.31-.24.34-.02,0-.03,0-.05,0Z" />
      <path class="cls-6"
        d="M58.88,161.63c-.13,0-.26-.09-.29-.23l-1.39-5.94c-.04-.16.06-.32.22-.36.16-.04.32.06.36.22l1.39,5.94c.04.16-.06.32-.22.36-.02,0-.05,0-.07,0Z" />
      <path class="cls-6"
        d="M60.09,159.9c-.14,0-.27-.11-.29-.25l-.71-4.74c-.02-.16.09-.31.25-.34.16-.02.31.09.34.25l.71,4.74c.02.16-.09.31-.25.34-.01,0-.03,0-.04,0Z" />
      <path class="cls-6"
        d="M56.57,171.73c-.13,0-.26-.09-.29-.23l-1.11-4.78c-.04-.16.06-.32.22-.36.16-.04.32.06.36.22l1.11,4.78c.04.16-.06.32-.22.36-.02,0-.04,0-.07,0Z" />
      <path class="cls-6"
        d="M59.27,172.69c-.13,0-.26-.09-.29-.23-.32-1.38-.7-2.94-.78-3.12-.09-.14-.04-.31.1-.4.14-.09.33-.03.41.11.08.13.36,1.24.84,3.27.04.16-.06.32-.22.36-.02,0-.05,0-.07,0Z" />
      <path class="cls-6"
        d="M77.14,163.88c-.15,0-.28-.12-.3-.27l-.7-9.11c-.01-.16.11-.31.27-.32.16-.01.31.11.32.27l.7,9.11c.01.16-.11.31-.27.32,0,0-.02,0-.02,0Z" />
      <path class="cls-6"
        d="M79.21,163.31c-.16,0-.29-.13-.3-.29-.02-.86-.24-8.41-.24-8.54,0-.16.13-.3.3-.3s.3.13.3.3c0,.15.16,5.64.24,8.52,0,.16-.12.3-.29.31h0ZM79.27,154.48h0,0Z" />
      <path class="cls-6"
        d="M84.55,170.44c-.15,0-.28-.11-.29-.27l-.2-2.1c-.02-.16.1-.31.27-.32.16-.02.31.1.32.27l.2,2.1c.02.16-.1.31-.27.32,0,0-.02,0-.03,0Z" />
      <path class="cls-6"
        d="M84.1,165.8c-.15,0-.28-.11-.29-.27-.08-.76-.19-1.77-.31-2.87-.73-6.68-.85-8.38-.57-8.69.06-.06.17-.11.25-.11.16,0,.3.13.3.3,0,.08-.03.15-.08.2-.14.7.38,5.4.69,8.24.12,1.1.23,2.11.31,2.87.02.16-.1.31-.27.32-.01,0-.02,0-.03,0Z" />
      <path class="cls-6"
        d="M114.35,160.19h0c-.16,0-.29-.14-.29-.31l.19-6.6c0-.16.15-.29.3-.29.16,0,.29.14.29.31l-.19,6.6c0,.16-.14.29-.3.29Z" />
      <path class="cls-6"
        d="M115.32,169.34c-.16,0-.3-.13-.3-.3v-4.5c0-.16.13-.3.3-.3s.3.13.3.3v4.5c0,.16-.13.3-.3.3Z" />
      <path class="cls-6"
        d="M113.53,170.44c-.16,0-.3-.13-.3-.3v-4.1c0-.16.13-.3.3-.3s.3.13.3.3v4.1c0,.16-.13.3-.3.3Z" />
      <path class="cls-6" d="M111.93,171.1c-.16,0-.3-.13-.3-.3v-2.3c0-.16.13-.3.3-.3s.3.13.3.3v2.3c0,.16-.13.3-.3.3Z" />
      <path class="cls-6"
        d="M98.29,159.9c-.16,0-.3-.13-.3-.3v-5.44c0-.16.13-.3.3-.3s.3.13.3.3v5.44c0,.16-.13.3-.3.3Z" />
      <path class="cls-6"
        d="M96.67,174.34c-.16,0-.3-.13-.3-.3v-1.91c0-.16.13-.3.3-.3s.3.13.3.3v1.91c0,.16-.13.3-.3.3Z" />
      <path class="cls-6"
        d="M97.84,174.06c-.16,0-.3-.13-.3-.3v-1.83c0-.16.13-.3.3-.3s.3.13.3.3v1.83c0,.16-.13.3-.3.3Z" />
      <path class="cls-6"
        d="M100.81,173.82c-.16,0-.3-.13-.3-.3v-4.31c0-.16.13-.3.3-.3s.3.13.3.3v4.31c0,.16-.13.3-.3.3Z" />
      <path class="cls-6"
        d="M111.15,144.31c-.14,0-.26-.1-.29-.24-.03-.16.08-.32.24-.35,1.57-.3,2.64-.53,3.17-.69.16-.05.32.04.37.2.05.16-.04.32-.2.37-.55.16-1.63.4-3.23.7-.02,0-.04,0-.06,0Z" />
      <path class="cls-6"
        d="M108.01,144.88c-.14,0-.27-.1-.29-.25-.03-.16.08-.31.24-.34,0,0,.7-.12,1.68-.29.16-.03.31.08.34.24s-.08.31-.24.34c-.98.17-1.69.29-1.69.29-.02,0-.03,0-.05,0Z" />
      <path class="cls-2"
        d="M90.52,155.01c-.09,2.29-.27,13.34,3.14,12.84,3.51-.52,3.02-11.53,3.02-13.28-.01-3.39-5.01-3.62-6.16.44Z" />
      <path class="cls-1"
        d="M90.56,156.02c-.09,2.29-.31,12.33,3.1,11.83.96-.14,1.62-1,2.08-2.21-3.43-.58-4.8-9.65-5.17-9.61Z" />
      <path class="cls-6"
        d="M93.44,168.16c-.41,0-.79-.15-1.13-.45-2.3-2.05-2.15-10.95-2.09-12.71.01-.09.73-3.23,3.55-3.3.97-.02,1.74.24,2.3.78.85.82.89,1.97.89,2.08.06,1.35.48,13.03-3.27,13.58-.09.01-.17.02-.25.02ZM93.88,152.29s-.06,0-.1,0c-2.36.05-2.98,2.75-2.98,2.78-.03,1-.25,10.28,1.9,12.2.27.24.57.34.9.29,2.64-.39,2.96-8.66,2.77-12.97,0,0,0,0,0,0,0,0-.03-1.01-.72-1.67-.43-.41-1.02-.62-1.78-.62Z" />
      <path class="cls-1"
        d="M93.96,155.84h0c-.1-.21-.31-.35-.54-.38-.17-.02-.36,0-.53,0,0,0-.01,0-.02,0-.19,0-.37.03-.56.08-.14.04-.26.11-.37.19-.18.1-.3.27-.35.45,0,.02,0,.04-.01.06,0,.04-.02.08-.02.13,0,.05-.02.1-.02.16.02.29.21.53.46.65.18.09.39.1.59.1.3-.01.59-.13.84-.29.3-.2.63-.57.59-.95,0-.02-.01-.04-.02-.07.02-.05.02-.11-.04-.14Z" />
      <path class="cls-6"
        d="M53.13,87.72c-.26.03-.44.27-.41.52l.67,5.28c.03.24.23.41.46.41.02,0,.04,0,.06,0,.26-.03.44-.27.41-.52l-.67-5.28c-.03-.26-.26-.44-.52-.41Z" />
      <path class="cls-6"
        d="M51.04,90.77c-.26.03-.44.27-.41.52l.37,2.9c.03.24.23.41.46.41.02,0,.04,0,.06,0,.26-.03.44-.27.41-.52l-.37-2.9c-.03-.26-.26-.44-.53-.41Z" />
      <path class="cls-6"
        d="M59,89.81c-.2.16-.26.42-.1.62.06.15.2.96.3,1.61.03.23.23.4.46.4.02,0,.04,0,.07,0,.26-.04.43-.27.4-.53-.25-1.74-.37-1.89-.44-1.99-.16-.21-.48-.27-.68-.11Z" />
      <path class="cls-6"
        d="M111.99,84.94c-.26-.03-.49.15-.52.41l-.51,4.1c-.03.26.15.49.41.52.02,0,.04,0,.06,0,.23,0,.44-.17.46-.41l.51-4.1c.03-.26-.15-.49-.41-.52Z" />
      <path class="cls-6"
        d="M109.09,86.02c-.26,0-.47.21-.47.47v2.72c0,.26.21.47.47.47s.47-.21.47-.47v-2.72c0-.26-.21-.47-.47-.47Z" />
      <path class="cls-6"
        d="M92.65,42.64c-2.11,0-3.91-1.07-5.23-3.13-3.07-4.78-.63-9.06,2.68-11.48,3.75-2.75,9.52-3.64,12.3-.3,1.4,1.68,1.54,4.1.41,6.83-1.53,3.68-5.54,7.7-9.58,8.06-.19.02-.38.03-.57.03ZM97.25,26.16c-2.31,0-4.85.91-6.81,2.35-3.09,2.26-5.37,6.25-2.53,10.68,1.31,2.04,3.12,3.02,5.25,2.83,3.82-.34,7.62-4.18,9.09-7.69,1.05-2.51.93-4.72-.31-6.22h0c-1.14-1.37-2.84-1.95-4.68-1.95Z" />
      <path class="cls-7"
        d="M73.94,93.38c-3.63,0-7.1-.85-8.83-3.63h0c-1.81-2.92-2.02-6.37-.55-9.21,1.57-3.03,5.68-6.78,16.34-7.44,11.16-.69,18.71,4.28,21.26,9.52,1.26,2.59,1.18,5.09-.23,6.68-2.43,2.75-6.45,2.29-10,1.88-2.3-.26-4.48-.51-6.06.03-.41.14-6.35,2.17-11.95,2.17Z" />
      <path class="cls-8"
        d="M67.55,89.37c-3.16-5.1-1.4-13.44,14.34-14.41,15.74-.97,22.68,10.06,19.33,13.84s-10.72.08-14.96,1.55c-4.24,1.47-15.55,4.13-18.71-.97Z" />
      <path class="cls-6"
        d="M81.89,74.96c-14.35.88-17.08,7.89-15.05,12.99,3.09-3.61,7.81-2.51,13.15-3.27,1.88-.94,5.63-4.69,8.44-2.81,4.59,3.82,8.55,4.53,13.42,3.13-1.21-4.66-8.08-10.77-19.96-10.03Z" />
      <path class="cls-3"
        d="M71.35,86.78c-1.59,0-3.51-5.08-3.87-6.1-.03-.09-.02-.19.04-.27.05-.06,4.63-6.33,14.56-6.33,1.67,0,3.42.18,5.21.53,9.07,1.54,13.11,6.9,13.28,7.13.09.12.07.28-.03.39-.41.4-4,3.9-5.53,3.9h0c-.17,0-.33-.04-.45-.12-1.04-.66-3.29-6.24-3.95-7.92-.87.77-3.35,2.74-5.7,2.74s-4-1.88-4.64-2.71c-.69,1.12-2.37,3.71-3.27,3.86-.04,0-.09.01-.13.01-.84,0-2.08-1.41-2.76-2.27-.37,2.33-1.31,7.17-2.74,7.17Z" />
      <path class="cls-6"
        d="M82.07,74.38c1.58,0,3.29.16,5.15.52,9.06,1.54,13.1,7.01,13.1,7.01,0,0-3.87,3.82-5.32,3.82-.11,0-.21-.02-.3-.08-1.11-.7-3.99-8.18-3.99-8.18,0,0-3.05,2.95-5.82,2.95s-4.66-2.95-4.66-2.95c0,0-2.35,3.95-3.3,4.11-.03,0-.05,0-.08,0-.99,0-2.95-2.72-2.95-2.72,0,0-1.09,7.61-2.55,7.61s-3.59-5.91-3.59-5.91c0,0,4.43-6.2,14.31-6.2h0ZM82.07,73.78c-10.07,0-14.61,6.19-14.8,6.45-.11.16-.14.36-.08.55.68,1.89,2.46,6.3,4.15,6.3,1.44,0,2.36-3.42,2.93-6.76.77.9,1.78,1.87,2.57,1.87.06,0,.12,0,.18-.02.91-.15,2.29-2.1,3.26-3.64.81.95,2.44,2.49,4.6,2.49s4.48-1.64,5.57-2.54c.92,2.33,2.87,7.01,3.91,7.67.18.11.38.17.61.17,1.61,0,5.06-3.32,5.74-3.99.21-.21.24-.54.06-.77-.17-.23-4.29-5.68-13.48-7.25-1.79-.35-3.56-.53-5.25-.53h0Z" />
      <path class="cls-6"
        d="M75.15,93.38c-3.48,0-6.81-.82-8.46-3.48h0c-1.74-2.8-1.93-6.1-.52-8.83,1.5-2.91,5.44-6.5,15.66-7.13,10.69-.66,17.93,4.11,20.38,9.12,1.21,2.48,1.13,4.88-.22,6.4-2.33,2.63-6.18,2.19-9.58,1.8-2.21-.25-4.3-.49-5.81.03-.39.13-6.09,2.08-11.45,2.08ZM68.42,88.84c2.78,4.48,13.59,1.91,17.52.55,1.94-.68,4.36-.4,6.7-.13,3.19.37,6.2.71,7.83-1.13.79-.89.76-2.45-.08-4.17-2.15-4.41-8.67-8.57-18.43-7.98-7.24.45-12.2,2.59-13.99,6.04-1.08,2.08-.91,4.64.45,6.83h0Z" />
      <path class="cls-8"
        d="M70.95,96.31s-.05,10.15,2.55,9.58c2.6-.56,1.81-8.92,1.81-8.92,0,0,.68,4.56,2.71,4.14,1.71-.35,1.64-8.75,2.21-11.24,0-.53-6.89-2.09-9.55.55l.27,5.89Z" />
      <path class="cls-3"
        d="M70.95,95.17v1.15s-.05,10.15,2.55,9.58c.69-.15,1.14-.86,1.43-1.81-2.17-2.04-2.99-9.86-3.06-13.25l-1.19.13.27,4.2Z" />
      <path class="cls-3"
        d="M75.2,94.07c-.54-.31-.06,2.25.14,3.26-.02-.22-.03-.36-.03-.36,0,0,.68,4.56,2.71,4.14.36-.07.65-.37.89-.79-1.78-1.35-3.17-5.95-3.71-6.26Z" />
      <path class="cls-6"
        d="M73.3,106.21c-.28,0-.55-.1-.78-.29-1.84-1.49-1.87-8.78-1.86-9.61,0-.03-.2-4.32-.27-5.33-.05-.75-.83-1.7-1.12-2-.11-.12-.11-.31,0-.42.12-.11.3-.11.42,0,.05.05,1.21,1.26,1.29,2.37.07,1.01.27,5.31.27,5.36,0,2.18.27,8.05,1.64,9.16.17.14.35.19.55.14,1.92-.42,1.79-6.35,1.57-8.6-.02-.16.1-.3.26-.32.16-.02.31.09.33.25.12.81.64,3.06,1.6,3.73.24.17.49.22.76.17,1.09-.22,1.65-5.18,1.62-9.72,0-.99.4-1.4.45-1.44.12-.11.31-.11.42.01.11.12.11.31-.01.42,0,0-.27.28-.26,1.01.01,2.31-.1,9.9-2.1,10.31-.43.09-.84,0-1.22-.26-.48-.34-.86-.94-1.13-1.59.02,2.61-.3,6.22-2.16,6.63-.09.02-.18.03-.27.03Z" />
      <path class="cls-3"
        d="M66.11,65.94c0,4.85-2.86,8.93-6.71,10.02-.66.19-1.35.28-2.05.28-4.83,0-8.76-4.61-8.76-10.3s3.92-10.31,8.76-10.31c.08,0,.16,0,.24,0,4.73.14,8.53,4.7,8.53,10.3Z" />
      <path class="cls-3"
        d="M101.55,63.22c0,4.85,2.86,8.93,6.71,10.02.66.19,1.35.28,2.05.28,4.83,0,8.76-4.61,8.76-10.3s-3.92-10.31-8.76-10.31c-.08,0-.16,0-.24,0-4.73.14-8.53,4.7-8.53,10.3Z" />
      <path class="cls-6"
        d="M57.34,55.63c.08,0,.16,0,.24,0,4.73.14,8.53,4.7,8.53,10.3,0,4.85-2.86,8.93-6.71,10.02-.66.19-1.35.28-2.05.28-4.83,0-8.76-4.61-8.76-10.3s3.92-10.31,8.76-10.31h0ZM57.34,54.45c-5.48,0-9.94,5.16-9.94,11.49s4.46,11.49,9.94,11.49c.81,0,1.61-.11,2.38-.33,4.46-1.26,7.57-5.84,7.57-11.16,0-6.27-4.24-11.3-9.65-11.48-.1,0-.2,0-.3,0h0Z" />
      <path class="cls-6"
        d="M110.31,52.91c4.83,0,8.76,4.61,8.76,10.31s-3.92,10.3-8.76,10.3c-.71,0-1.4-.1-2.06-.28-3.85-1.09-6.71-5.16-6.71-10.02,0-5.6,3.8-10.16,8.53-10.3.08,0,.16,0,.24,0h0ZM110.31,51.73c-.1,0-.2,0-.3,0-5.42.18-9.65,5.22-9.65,11.48,0,5.31,3.12,9.9,7.58,11.16.76.22,1.56.33,2.38.33,5.48,0,9.94-5.15,9.94-11.49s-4.46-11.49-9.94-11.49h0Z" />
      <path class="cls-6"
        d="M67.26,75.12c-.11,0-.22-.03-.32-.1-.27-.18-.35-.55-.18-.82.43-.66.62-1.13.62-1.13.12-.3.47-.45.77-.33.3.12.45.47.33.77,0,.02-.23.57-.73,1.34-.11.18-.3.27-.5.27Z" />
      <path class="cls-6"
        d="M64.59,78c-.18,0-.36-.08-.47-.23-.2-.26-.15-.63.11-.83.39-.3.77-.62,1.12-.97.23-.23.61-.23.84,0,.23.23.23.61,0,.84-.39.39-.8.75-1.24,1.08-.11.08-.23.12-.36.12Z" />
      <path class="cls-6"
        d="M56.94,80.43c-2.39,0-4.59-.69-6.55-2.07-.27-.19-.33-.56-.15-.83.19-.27.56-.33.83-.15,1.82,1.27,3.87,1.9,6.09,1.85,1.88-.04,3.61-.42,5.13-1.14.3-.14.65-.01.79.28.14.3.01.65-.28.79-1.67.79-3.56,1.21-5.61,1.25-.08,0-.17,0-.25,0Z" />
      <path class="cls-6"
        d="M48.54,76.5c-.17,0-.33-.07-.45-.2-.9-1.02-1.34-1.84-1.35-1.88-.15-.29-.04-.65.24-.8.29-.15.65-.04.8.24,0,0,.4.74,1.2,1.65.22.25.19.62-.06.84-.11.1-.25.15-.39.15Z" />
      <path class="cls-6"
        d="M119.97,71.61c-.09,0-.19-.02-.28-.07-.29-.15-.4-.51-.24-.8.4-.74.56-1.25.56-1.25.1-.31.43-.48.74-.39.31.1.48.43.39.74,0,.02-.2.61-.65,1.46-.11.2-.31.31-.52.31Z" />
      <path class="cls-6"
        d="M109.06,77.85c-4.54,0-7.24-3.09-8.44-4.94-.18-.27-.1-.64.17-.82.27-.18.64-.1.82.17,1.07,1.64,3.47,4.4,7.45,4.4,5.1,0,7.99-2.48,9.52-4.56.19-.26.57-.32.83-.13.26.19.32.56.13.83-1.69,2.3-4.88,5.04-10.47,5.04Z" />
      <path class="cls-6"
        d="M100.25,71.61c-.22,0-.44-.13-.54-.34-.29-.62-.52-1.24-.69-1.84-.09-.32.1-.64.41-.73.32-.09.64.1.73.41.15.54.36,1.1.62,1.66.14.3.01.65-.29.79-.08.04-.17.06-.25.06Z" />
      <path class="cls-6"
        d="M99.18,67.92c-.29,0-.54-.21-.58-.5-.14-.86-.16-1.42-.16-1.44-.01-.33.24-.6.57-.62.33-.01.6.24.62.57,0,0,.02.52.15,1.3.05.32-.17.63-.49.68-.03,0-.06,0-.09,0Z" />
    </g>
  </g>
</svg>