<?xml version="1.0" encoding="UTF-8"?>
<svg id="Capa_2" xmlns="http://www.w3.org/2000/svg" viewBox="0 0 140.54 204.07">
  <defs>
    <style>
      .cls-1 {
        fill: aqua;
      }

      .cls-2 {
        fill: #29abe2;
      }

      .cls-3 {
        fill: #fff;
      }

      .cls-4 {
        fill: #862291;
      }

      .cls-5 {
        fill: #1b1464;
      }

      .cls-6 {
        fill: #fcee21;
      }

      .cls-7 {
        fill: #ed1e79;
      }
    </style>
  </defs>
  <g id="_0">
    <path class="cls-3" d="M109.47,177.25s.01.01.02.02c.01.01.02.02.04.03l-.06-.05Z" />
    <path class="cls-3"
      d="M139.93,49.29s-.02-.05-.03-.08c-.18-.42-.39-.83-.64-1.21-.02-.03-.04-.06-.05-.08-.25-.38-.53-.75-.84-1.08-.1-.11-.21-.21-.33-.32-.19-.19-.44-.43-.76-.68-.39-.31-.82-.6-1.26-.86-1.41-.82-2.88-1.23-4.36-1.23h-.08c-2.59.02-4.61,1.24-6.15,2.77-1.31-1.35-2.95-2.46-4.91-2.89-1.08-.23-2.18-.24-3.28-.03-.49.1-.96.22-1.42.37-2.88-2.75-6.07-5.19-9.51-7.29,1.29-1.42,2.89-3.65,3.31-6.33.05-.31.08-.61.09-.99v.11c0-.06,0-.17,0-.23,0-.28,0-.56-.03-.79-.01-.13-.02-.26-.04-.34-.03-.28-.09-.55-.15-.8-.03-.14-.07-.28-.12-.43-.07-.24-.16-.47-.26-.71-.07-.17-.16-.34-.26-.53-.1-.19-.21-.39-.33-.56-.12-.18-.25-.35-.41-.55-.12-.15-.24-.3-.38-.45-.18-.19-.38-.38-.54-.52-.12-.11-.24-.22-.38-.33-.33-.26-.69-.5-1.06-.72-1.25-.73-2.55-1.08-3.89-1.08-1.29.01-3.01.38-4.73,1.82-1.83-1.62-3.68-2.03-5.04-2.05-.32,0-.64.02-.96.06l.14-.35-4.61.5c1.99-2.35,3.96-5.58,4.04-9.24.07-2.91-1.08-5.52-3.35-7.59-.04-.03-.08-.07-.12-.1-.17-.15-.35-.31-.53-.45-.24-.19-.49-.37-.76-.55-1.96-1.33-4.03-1.96-6.12-1.85-.07,0-.14,0-.21.02-.6.04-1.2.14-1.79.3-.3.08-.6.18-.89.29-.63.24-1.25.55-1.9.94-.25.16-.5.32-.74.5-.63.46-1.26.99-1.85,1.6-.05.05-.1.1-.15.15-.34-.5-.7-.96-1.07-1.39-.71-.83-1.48-1.54-2.28-2.12-2.1-1.51-4.51-2.16-6.96-1.86-1.11.13-2.16.39-3.11.76-2.36.91-4.22,2.54-5.38,4.71-.33.62-.6,1.29-.83,2.05-.18.6-.3,1.17-.38,1.74-.31,2.18-.05,4.58.72,6.75.16.44.35.91.6,1.42l3.59-1.73h0l-3.58,1.73.08.17c.2.41.43.83.69,1.25l.14.23c.25.4.51.79.8,1.2l.11.15c.29.39.59.79.92,1.19.33.4.67.8.98,1.14.02.02.05.05.07.08.34.38.69.75,1.07,1.13.01.01.03.03.05.05.36.36.72.71,1.09,1.06,0,0,.02.01.02.02,1.05.99,2.12,1.9,3.14,2.73-4.16.37-8.3,1.02-12.27,1.95.12-2.57-.54-4.88-2.01-6.74-.57-.73-1.26-1.38-2.04-1.93-.03-.02-.1-.07-.13-.09-.37-.25-.76-.49-1.12-.67-.07-.04-.14-.07-.25-.13-.44-.22-.86-.4-1.27-.55-2.08-.76-4.11-.88-6.06-.34-.19.05-.37.11-.56.18-.6.21-1.19.49-1.74.83-1.75,1.07-3.06,2.62-4.03,4.27-2.32-1.98-5.37-3.57-8.94-3.03-.68.1-1.34.28-1.97.52-2.55.97-4.53,2.59-5.73,4.66-.45.79-.8,1.64-1.02,2.53-.2.81-.31,1.66-.32,2.54,0,1.16.16,2.34.5,3.53.4,1.41,1.04,2.79,1.86,4.02.28.41.59.83.98,1.28.03.04.07.09.09.11.32.37.67.74,1.08,1.14.02.02.09.09.11.11.34.33.71.65,1.15,1.01l.14.11c.38.31.77.6,1.2.92l.13.1c.31.22.62.44.93.64-5.03,4.63-9.09,10.01-11.93,15.84-1.22.74-2.33,2.19-2.13,5.08-.89,2.5-1.58,5.06-2.05,7.66-1.17,1.06-1.97,2.91-.74,6.13-.32,5.35.18,10.93,1.47,16.6.26,1.13.54,2.24.85,3.33-.25.05-.49.11-.73.18-1.22.36-2.3.91-3.2,1.63-3.84,3.08-3.54,8.16-1.64,11.57,0,0,.01.02.02.03.2.36.43.71.7,1.08.08.11.16.21.28.35.17.21.34.42.53.64.1.11.21.22.34.36.17.18.33.35.52.53.13.12.26.24.37.35.17.15.34.3.51.45.14.12.28.23.42.34.16.13.33.26.51.4.14.11.29.22.43.33.14.1.28.2.46.33,0,0,.07.05.07.05.13.09.27.19.42.29l.4.26c2.99,1.94,5.98,3.21,6.11,3.26,1.19.5,2.54.39,3.62-.28,4.54,6.88,13.07,16.5,28.11,23.75,2.91,1.4,5.86,2.66,8.62,3.77-1.65.14-3.05.84-4.21,1.8-2.52-2.24-5.08-2.2-6.53-1.92-3.01.59-4.6,2.26-5.41,3.57-1.44,2.33-1.56,5.54-.32,8.37.16.37.35.73.56,1.08.18.31.39.62.63.95,2.83,3.88,8.39,6.92,9.01,7.25,1.24.66,2.74.62,3.94-.11.05-.03.55-.34,1.31-.85.15.31.31.61.48.91.07.12.14.24.25.41.21.35.43.68.66,1,.11.16.23.31.36.48.22.29.45.56.67.82l.06.07c.1.12.21.24.31.35.36.39.71.73,1.04,1.03.11.1.21.19.32.28l.06.05c.25.22.51.43.77.63.18.14.36.27.56.42.2.14.4.29.61.42.2.13.4.27.61.4.14.09.29.18.43.26l.11.06c.56.33,1.08.61,1.6.87.02,0,.04.02.05.03.26.13.52.25.83.39-.49.64-.93,1.32-1.32,2.04-.01.03-.03.05-.04.08l-.09.18c-.6,1.25-.86,2.37-.85,5.41-.28.18-.55.38-.82.58-.57.44-1.01,1.04-1.28,1.71-.08.22-.15.43-.21.67-.11.38-.19.8-.24,1.26-.16-.07-.32-.15-.48-.22-.01,0-.02-.01-.04-.02-.36-.16-.72-.33-1.12-.51,0,0-.07-.03-.08-.04-.37-.16-.74-.32-1.09-.47l-.13-.05c-.33-.14-.67-.28-1.03-.43-.89-.64-1.61-.98-1.83-1.08-.72-.32-1.5-.41-2.23-.29-.27-.07-.53-.13-.81-.19l-.11-.02c-.39-.08-.78-.14-1.13-.17-.44-.04-.85-.07-1.24-.07-.12,0-.24,0-.4,0-.28,0-.56,0-.81.02-.13,0-.25.02-.38.03,0,0-.09,0-.09,0-.25.02-.49.05-.76.1-.14.02-.28.05-.4.07-.25.05-.48.1-.79.18-.12.03-.23.06-.32.09-.28.08-.54.18-.73.25-.11.04-.21.08-.32.12-.33.14-.65.29-.96.46-.09.05-.18.1-.27.16-.22.13-.43.26-.62.39-.1.07-.2.14-.29.21-.18.13-.35.27-.54.43-.09.08-.18.16-.27.24-.16.15-.31.3-.46.45-.08.08-.15.16-.22.24-.15.17-.29.34-.43.52-.05.07-.11.13-.16.21-.35.47-.67.98-.95,1.5l-.09.18c-.1.2-.2.4-.28.58l-.1.23c-.07.18-.15.36-.21.53l-.08.21c-.07.19-.13.37-.2.6,0,.02-.03.1-.04.12-.45,1.53-.6,2.98-.64,3.92-.01.24-.02.45-.02.6,0,.02,0,.09,0,.11,0,.18,0,.33,0,.55l.02.37s0,.1,0,.11c.15,2.08,1.88,3.7,3.97,3.7h33.65c.56,0,1.09-.12,1.58-.33.49.21,1.02.33,1.58.33h33.65c2.03,0,3.73-1.53,3.96-3.55,0-.07.01-.15.02-.22,0,.01,0,.02,0,.04,0,0,0-.03,0-.05,0-.07,0-.14,0-.2,0,.04,0,.1,0,.2,0-.02,0-.04,0-.05,0-.08.01-.2.01-.3,0-.02,0-.1,0-.12,0-.13,0-.29,0-.44,0-.01,0-.09,0-.11,0-.19,0-.39-.02-.63-.05-1.11-.21-2.2-.45-3.22,0-.02,0-.03-.01-.05-.05-.21-.11-.43-.18-.67l-.05-.15c-.06-.18-.12-.37-.17-.51l-.09-.24c-.07-.18-.14-.36-.21-.54l-.09-.21c-.09-.2-.18-.4-.27-.56-.03-.07-.07-.14-.1-.2-.28-.53-.6-1.04-.96-1.52-.05-.07-.1-.13-.15-.19-.14-.17-.28-.34-.45-.54l-.21-.23c-.11-.12-.23-.24-.36-.35.91-1.15,1.63-2.38,2.08-3.59.28-.76.47-1.54.55-2.3.01-.12.02-.23.02-.36.02-.32.02-.61,0-.89,0-.15-.02-.31-.04-.42-.03-.3-.08-.6-.15-.89-.04-.17-.09-.34-.15-.52-.09-.28-.2-.55-.32-.82-.08-.16-.16-.33-.24-.48-.18-.33-.37-.6-.51-.78-.1-.14-.21-.28-.32-.42-.22-.26-.44-.47-.69-.7-.11-.11-.22-.21-.33-.3-.37-.31-.77-.58-1.18-.82-2.2-1.28-4.62-1.42-6.81-.41-.39.18-.77.4-1.15.66-.23.15-.45.32-.67.5-.39-.35-.81-.66-1.23-.92-1.64-1.01-3.47-1.35-5.3-1-2.72.53-4.8,2.1-5.84,4.38-.14-1.08-.41-2.13-.8-3.13,3.89-5.07,5.36-10.72,4.52-17.19-.06-.45-.14-.91-.24-1.4-.03-.13-.06-.26-.09-.41-.08-.34-.17-.67-.29-1.07-.03-.11-.07-.22-.1-.32-.14-.43-.29-.85-.46-1.28-.03-.08-.07-.16-.11-.25-.14-.33-.29-.65-.44-.95-.07-.15-.15-.3-.23-.45-.14-.26-.28-.51-.44-.76l-.05-.08c-.06-.11-.13-.21-.2-.33-.22-.34-.44-.67-.68-.99-.09-.12-.17-.23-.26-.34l-.07-.09c-.15-.19-.3-.38-.45-.56-.14-.16-.28-.32-.42-.48-.14-.15-.28-.3-.44-.47-.26-.27-.53-.53-.79-.78l-.07-.06c-.13-.12-.25-.24-.37-.34-.17-.16-.35-.31-.59-.51,0,0-.06-.05-.06-.05l-.29-.24c-.21-.17-.42-.34-.64-.51l-.27-.2c-.39-.29-.78-.57-1.18-.84,1.47-.94,2.97-1.87,4.43-2.78,4.67-2.9,9.07-5.64,12.86-8.62.77-.61,1.54-1.23,2.32-1.89.86.1,1.75-.08,2.52-.55.14-.09,3.55-2.16,6.47-4.96,1.66-1.59,2.95-3.47,3.63-5.29.29-.76.47-1.54.54-2.26.02-.14.02-.28.03-.36,0-.02,0-.04,0-.06,1.21-1.53,2.33-3.04,3.35-4.53l.28-.41c2.5-2.65,3.96-4.71,4.48-5.49.04-.05.07-.11.1-.16l.21-.34c.05-.08.09-.16.13-.24.24-.48.48-.95.71-1.42,1.53-.67,2.86-1.46,3.94-2.35.65-.53,6.34-5.33,5.17-9.72-.29-1.07-.93-1.96-1.8-2.55,1.22-2.37,2.2-5.02,1.78-6.88-.28-1.21-1.03-2.24-2.08-2.84.36-4.91.02-9.69-1.02-14.29,1.62-1.12,3.87-2.81,5.92-4.78,3.44-3.29,6.42-8.49,4.49-13.21ZM108.14,194.68h0s0,0,0,0Z" />
    <path class="cls-6"
      d="M75.38,200.52c-.19,0-.35-.12-.41-.3-.55-1.75-.47-3.86.23-6.44-1.29-1.16-1.7-2.59-1.21-4.26.03-.09.08-.16.15-.22,1.66-1.27,3.77-1.98,5.95-1.98s4.26.7,5.9,1.98c.06.05.11.11.14.18.59,1.5.15,3.09-1.29,4.72h0s-.9,1.58-.2,2.26c.48-.11,2.14-.91,3.74-1.68,3.77-1.82,8.94-4.3,11.94-4.6.42-.04.83-.06,1.23-.06,2.36,0,4.24.75,5.6,2.22,2.68,2.91,2.33,7.59,2.32,7.79-.02.22-.2.4-.43.4h-33.65Z" />
    <path class="cls-5"
      d="M80.09,187.75c1.99,0,4,.61,5.64,1.89.58,1.48-.02,2.93-1.22,4.28,0,0-1.28,2.09-.03,2.97.02,0,.04.01.07.01,1.13,0,11.25-5.84,15.81-6.3.41-.04.81-.06,1.19-.06,8.27,0,7.49,9.54,7.49,9.54h-33.65c-.59-1.89-.37-4.08.31-6.46-1.45-1.18-1.71-2.53-1.29-3.99,1.61-1.24,3.64-1.89,5.69-1.89h0ZM80.09,186.89c-2.27,0-4.48.73-6.21,2.07-.15.11-.25.27-.3.44-.51,1.76-.13,3.27,1.15,4.51-.66,2.55-.72,4.65-.16,6.43.11.36.45.6.82.6h33.65c.45,0,.82-.34.86-.79.02-.21.38-5.06-2.43-8.11-1.44-1.56-3.43-2.36-5.92-2.36-.41,0-.84.02-1.27.07-3.07.31-8.28,2.81-12.08,4.64-1.28.61-2.69,1.3-3.37,1.55-.11-.43.2-1.18.39-1.52,1.51-1.74,1.96-3.45,1.32-5.1-.06-.15-.15-.27-.27-.37-1.72-1.33-3.91-2.07-6.17-2.07h0Z" />
    <path class="cls-7" d="M75.12,198.82c.06.44.14.86.27,1.27h33.65s.04-.5,0-1.27h-33.92Z" />
    <path class="cls-7"
      d="M85.73,189.64c-3.32-2.58-8.13-2.45-11.32,0-.19.65-.23,1.28-.1,1.89,3.77-1.56,7.93-.7,11.51-1.58-.03-.1-.05-.21-.09-.31Z" />
    <path class="cls-5"
      d="M79.57,191.27c-2.06,0-3.52-.64-3.62-.68-.22-.1-.31-.35-.22-.57.1-.22.35-.32.57-.22.03.02,3.46,1.5,7.14-.28.21-.1.47-.01.58.2.1.21.01.47-.2.58-1.53.74-3,.97-4.25.97Z" />
    <path class="cls-5"
      d="M102.23,199.21h-18.74c-.24,0-.43-.19-.43-.43s.19-.43.43-.43h18.74c.24,0,.43.19.43.43s-.19.43-.43.43Z" />
    <path class="cls-5"
      d="M82.11,199.21h-1.53c-.24,0-.43-.19-.43-.43s.19-.43.43-.43h1.53c.24,0,.43.19.43.43s-.19.43-.43.43Z" />
    <path class="cls-5"
      d="M83.23,194.79c-.23,0-.42-.18-.43-.41-.01-.24.17-.44.41-.45.83-.05,1.54-.43,1.67-.53.16-.13.39-.14.55,0,.18.15.21.42.06.61-.14.18-1.14.73-2.24.79,0,0-.02,0-.02,0Z" />
    <path class="cls-4"
      d="M79.56,191.28c-1.19,0-3.14-.35-3.38-.67-.06-.07-.09-.17-.09-.26,0-3.94-.1-7.11-.3-9.42-.01-.13-.04-.26-.08-.39-.05-.17,0-.35.15-.46,1.65-1.31,3.55-2.86,5.25-4.67.08-.09.2-.14.31-.14,0,0,.02,0,.03,0,.13,0,.25.07.32.18,1.01,1.4,1.58,2.97,1.74,4.8.22,2.48.33,5.76.33,9.76,0,.17-.1.33-.26.4-.07.03-1.77.75-3.58.85-.15,0-.3.01-.44.01h0Z" />
    <path class="cls-5"
      d="M81.42,175.71c.89,1.23,1.5,2.72,1.66,4.58.25,2.9.33,6.54.33,9.73,0,0-1.68.72-3.43.82-.14,0-.28.01-.42.01-1.53,0-3-.44-3.04-.5,0-3.11-.06-6.7-.3-9.46-.01-.16-.05-.32-.09-.47,1.72-1.36,3.59-2.89,5.3-4.71h0ZM81.42,174.85c-.24,0-.47.1-.63.27-1.67,1.79-3.56,3.33-5.2,4.63-.27.22-.39.58-.29.91.03.12.05.21.06.31.2,2.3.3,5.46.3,9.38,0,.19.06.37.18.52.45.58,2.88.84,3.73.84.16,0,.31,0,.47-.01,1.88-.11,3.65-.85,3.72-.89.32-.14.52-.45.52-.79,0-4.02-.12-7.31-.34-9.8-.16-1.88-.78-3.56-1.82-5.01-.15-.21-.39-.34-.64-.36-.02,0-.04,0-.05,0h0Z" />
    <path class="cls-5"
      d="M76.51,188.86c0,.5,0,1,0,1.48.05.07,1.79.59,3.46.49,1.75-.1,3.43-.82,3.43-.82,0-.22,0-.46,0-.69-2.3.14-4.6.32-6.9-.47Z" />
    <path class="cls-5"
      d="M83,179.8c-.22-1.63-.78-2.97-1.59-4.09-1.7,1.82-3.58,3.35-5.3,4.71.04.15.08.3.09.47.03.34.06.7.08,1.07,1.71-2,5.14-3.93,6.71-2.16Z" />
    <path class="cls-3"
      d="M100.36,190.61c-2.08.21-5.32,1.54-8.34,2.92,5.71-1.4,11.76-.53,16.67,2.81-.7-2.88-2.7-6.29-8.33-5.73Z" />
    <path class="cls-5"
      d="M107.69,199.21h-2.95c-.24,0-.43-.19-.43-.43s.19-.43.43-.43h2.95c.24,0,.43.19.43.43s-.19.43-.43.43Z" />
    <path class="cls-5"
      d="M78.25,199.21h-2.99c-.24,0-.43-.19-.43-.43s.19-.43.43-.43h2.99c.24,0,.43.19.43.43s-.19.43-.43.43Z" />
    <path class="cls-5"
      d="M93.38,196.07s-.07,0-.1-.01c-.23-.06-.37-.29-.32-.52.84-3.49,4.03-4.92,4.16-4.98.22-.09.47,0,.57.22.1.22,0,.47-.22.57-.03.01-2.94,1.33-3.67,4.39-.05.2-.22.33-.42.33Z" />
    <path class="cls-5"
      d="M78.68,194.62c-2.22,0-3.72-.56-3.79-.59-.22-.08-.33-.33-.25-.56.08-.22.33-.33.55-.25.02,0,1.53.56,3.68.53.2,0,.43.19.44.42,0,.24-.19.43-.42.44-.07,0-.15,0-.22,0Z" />
    <path class="cls-5"
      d="M77.09,196.28c-.24,0-.43-.19-.43-.43v-1.49c0-.24.19-.43.43-.43s.43.19.43.43v1.49c0,.24-.19.43-.43.43Z" />
    <path class="cls-5"
      d="M108.91,197.93h-5.76c-.24,0-.43-.19-.43-.43s.19-.43.43-.43h5.76c.24,0,.43.19.43.43s-.19.43-.43.43Z" />
    <path class="cls-6"
      d="M38.57,200.52c-.22,0-.41-.17-.43-.4-.02-.2-.37-4.87,2.32-7.79,1.36-1.47,3.24-2.22,5.6-2.22.39,0,.81.02,1.23.06,3,.3,8.17,2.79,11.94,4.6,1.61.78,3.28,1.58,3.75,1.68.74-.64-.24-2.3-.25-2.32-1.4-1.57-1.84-3.16-1.25-4.66.03-.07.08-.14.14-.18,1.64-1.28,3.74-1.98,5.9-1.98s4.29.7,5.95,1.98c.07.06.13.13.15.22.48,1.67.08,3.1-1.21,4.26.71,2.58.78,4.69.23,6.44-.06.18-.22.3-.41.3h-33.65Z" />
    <path class="cls-5"
      d="M67.52,187.75c2.04,0,4.07.65,5.69,1.89.42,1.46.16,2.81-1.29,3.99.68,2.38.9,4.58.31,6.46h-33.65s-.78-9.54,7.49-9.54c.38,0,.77.02,1.19.06,4.56.45,14.68,6.3,15.81,6.3.03,0,.06,0,.07-.01,1.25-.88-.03-2.97-.03-2.97-1.19-1.35-1.79-2.8-1.22-4.28,1.64-1.27,3.65-1.89,5.64-1.89h0ZM67.52,186.89h0c-2.26,0-4.45.73-6.17,2.07-.12.1-.22.22-.27.37-.64,1.65-.2,3.36,1.32,5.1.19.34.5,1.09.39,1.52-.67-.26-2.09-.94-3.37-1.55-3.8-1.83-9.01-4.34-12.08-4.64-.43-.04-.86-.07-1.27-.07-2.48,0-4.47.79-5.92,2.36-2.81,3.05-2.45,7.91-2.43,8.11.04.45.41.79.86.79h33.65c.38,0,.71-.25.82-.6.55-1.78.5-3.88-.16-6.43,1.27-1.24,1.66-2.76,1.15-4.51-.05-.18-.16-.33-.3-.44-1.73-1.33-3.94-2.07-6.21-2.07h0Z" />
    <path class="cls-3"
      d="M47.24,190.61c2.08.21,5.32,1.54,8.34,2.92-5.71-1.4-11.76-.53-16.67,2.81.7-2.88,2.7-6.29,8.33-5.73Z" />
    <path class="cls-1" d="M72.49,198.82c-.06.44-.14.86-.27,1.27h-33.65s-.04-.5,0-1.27h33.92Z" />
    <path class="cls-1"
      d="M61.88,189.64c3.32-2.58,8.13-2.45,11.32,0,.19.65.23,1.28.1,1.89-3.77-1.56-7.93-.7-11.51-1.58.03-.1.05-.21.09-.31Z" />
    <path class="cls-5"
      d="M68.03,191.27c-1.25,0-2.72-.23-4.25-.97-.21-.1-.3-.36-.2-.58.1-.22.36-.3.58-.2,3.69,1.79,7.11.3,7.14.28.22-.1.47,0,.57.22.1.22,0,.47-.22.57-.1.04-1.55.68-3.62.68Z" />
    <path class="cls-5"
      d="M42.87,199.21h-2.95c-.24,0-.43-.19-.43-.43s.19-.43.43-.43h2.95c.24,0,.43.19.43.43s-.19.43-.43.43Z" />
    <path class="cls-5"
      d="M64.11,199.21h-18.74c-.24,0-.43-.19-.43-.43s.19-.43.43-.43h18.74c.24,0,.43.19.43.43s-.19.43-.43.43Z" />
    <path class="cls-5"
      d="M67.02,199.21h-1.53c-.24,0-.43-.19-.43-.43s.19-.43.43-.43h1.53c.24,0,.43.19.43.43s-.19.43-.43.43Z" />
    <path class="cls-5"
      d="M72.34,199.21h-2.99c-.24,0-.43-.19-.43-.43s.19-.43.43-.43h2.99c.24,0,.43.19.43.43s-.19.43-.43.43Z" />
    <path class="cls-5"
      d="M54.23,196.07c-.2,0-.37-.13-.42-.33-.74-3.07-3.64-4.38-3.67-4.39-.22-.1-.32-.35-.22-.57.1-.22.35-.32.57-.22.14.06,3.33,1.49,4.16,4.98.06.23-.09.46-.32.52-.03,0-.07.01-.1.01Z" />
    <path class="cls-5"
      d="M68.93,194.62c-.07,0-.14,0-.22,0-.24,0-.43-.2-.42-.44,0-.24.21-.41.44-.42,2.14.03,3.67-.52,3.68-.53.22-.08.47.03.55.25.08.22-.03.47-.25.56-.06.02-1.57.59-3.79.59Z" />
    <path class="cls-5"
      d="M64.37,194.79s-.02,0-.02,0c-1.14-.06-2.1-.62-2.23-.78-.15-.18-.13-.45.05-.61.16-.14.4-.13.55,0,.07.05.77.48,1.67.53.24.01.42.22.41.45-.01.23-.2.41-.43.41Z" />
    <path class="cls-5"
      d="M70.51,196.28c-.24,0-.43-.19-.43-.43v-1.49c0-.24.19-.43.43-.43s.43.19.43.43v1.49c0,.24-.19.43-.43.43Z" />
    <path class="cls-5"
      d="M44.45,197.93h-5.76c-.24,0-.43-.19-.43-.43s.19-.43.43-.43h5.76c.24,0,.43.19.43.43s-.19.43-.43.43Z" />
    <path class="cls-7"
      d="M60.8,148.06c-.05,0-.11,0-.16-.03-4.03-1.56-9.05-3.5-13.92-5.85-24.32-11.71-30.63-29.79-30.89-30.56-.08-.23.05-.47.27-.55l6.53-2.2s.09-.02.14-.02c.18,0,.35.11.41.29.05.16,5.72,15.84,26.9,26.04,4.61,2.22,9.18,3.99,13.6,5.7,1.01.39,1.99.77,2.97,1.15.14.06.25.19.27.34.02.15-.04.31-.16.4-2.25,1.77-4.1,3.45-5.64,5.13-.08.09-.2.14-.32.14Z" />
    <path class="cls-5"
      d="M22.78,109.29c.05.15,5.73,15.99,27.12,26.29,4.63,2.23,9.21,4,13.64,5.71,1,.39,1.99.77,2.96,1.15-2.1,1.65-4.03,3.37-5.7,5.18-4.28-1.66-9.1-3.53-13.89-5.83-24.15-11.63-30.41-29.55-30.67-30.3l6.53-2.2h0ZM22.78,108.43c-.09,0-.18.01-.27.04l-6.53,2.2c-.22.07-.4.23-.5.43-.1.2-.12.44-.04.66.26.77,6.64,19.02,31.11,30.81,4.89,2.36,9.92,4.3,13.95,5.86.1.04.21.06.31.06.24,0,.47-.1.63-.28,1.54-1.67,3.37-3.34,5.59-5.09.24-.19.36-.5.32-.8-.05-.31-.25-.56-.54-.68-.97-.38-1.96-.77-2.97-1.15-4.42-1.71-8.97-3.47-13.57-5.68-20.94-10.08-26.63-25.64-26.68-25.8-.12-.35-.46-.58-.82-.58h0Z" />
    <path class="cls-7"
      d="M67.71,191.28c-1.7-.05-3.44-.76-3.51-.79-.15-.06-.26-.21-.26-.38-.31-6.67-.01-7.28.36-8.06l.06-.13c1.17-2.2,3.16-3.98,5.12-5.58.5-.41,1.01-.82,1.54-1.23,1.53-1.21,3.12-2.47,4.49-3.83,2.22-2.21,4.68-5.43,3.98-10.77-.54-4.13-4.96-6.78-11.9-9.72-.14-.06-.23-.18-.26-.32-.03-.14.02-.29.13-.39,1.66-1.54,3.67-3.13,6.14-4.88.07-.05.16-.08.25-.08.06,0,.13.01.19.04,5.94,2.83,12.15,6.75,13.14,14.34.83,6.29-.96,11.69-5.45,16.49-1.74,1.86-3.67,3.43-5.34,4.76l-.56.44c-1.76,1.39-3.41,2.7-4.27,3.83-.01.97.05,2.81.16,5.23,0,.19-.11.36-.29.43-.07.02-1.75.6-3.5.6h-.22Z" />
    <path class="cls-5"
      d="M73.85,145.56c6.93,3.3,12.02,7.26,12.9,14.01.96,7.35-1.81,12.37-5.34,16.14-1.7,1.82-3.58,3.35-5.3,4.71-.19.15-.37.3-.56.44-1.83,1.44-3.57,2.82-4.43,4.02-.02,1,.05,3.04.16,5.39,0,0-1.66.57-3.35.57-.07,0-.14,0-.21,0-1.64-.05-3.36-.76-3.36-.76-.3-6.56-.02-7.15.32-7.85l.06-.12c1.11-2.08,2.95-3.76,5.01-5.44.5-.41,1.01-.81,1.53-1.22,1.6-1.26,3.17-2.51,4.53-3.86,2.84-2.82,4.76-6.13,4.1-11.13-.56-4.27-4.93-7-12.17-10.06,1.79-1.65,3.87-3.27,6.1-4.84h0ZM73.85,144.7c-.17,0-.35.05-.5.16-2.49,1.76-4.51,3.36-6.18,4.91-.21.2-.31.49-.26.78.05.29.24.53.51.64,6.81,2.88,11.13,5.45,11.65,9.38.53,4.07-.62,7.19-3.86,10.41-1.35,1.34-2.93,2.59-4.45,3.79-.52.41-1.04.82-1.54,1.23-2,1.63-4.02,3.45-5.23,5.7l-.07.13c-.43.88-.73,1.5-.41,8.28.02.33.22.63.53.76.08.03,1.88.77,3.66.82.08,0,.16,0,.23,0,1.82,0,3.56-.6,3.64-.62.36-.13.6-.47.58-.85-.11-2.3-.16-4.07-.16-5.06.85-1.06,2.43-2.31,4.09-3.63l.57-.45c1.69-1.34,3.63-2.92,5.39-4.8,4.59-4.9,6.4-10.41,5.56-16.84-1.02-7.8-7.34-11.79-13.39-14.67-.12-.06-.24-.08-.37-.08h0Z" />
    <path class="cls-1"
      d="M86.75,159.57c-.65-4.96-3.59-8.42-7.85-11.21,7.24,5.31,8.56,11.9,6.94,18.05-1.64,6.2-8.04,11.79-14.09,16.23-2.72,2.04-.55,5.89-.57,5.13-.04-1.24-.06-2.25-.05-2.87.87-1.2,2.61-2.58,4.43-4.02.18-.15.37-.29.56-.44,1.72-1.36,3.59-2.89,5.3-4.71,3.53-3.77,6.3-8.79,5.34-16.14Z" />
    <path class="cls-5"
      d="M67.72,190.85c1.77.05,3.56-.57,3.56-.57-.03-.56-.05-1.1-.07-1.61-2.22.89-4.33,1.42-6.42,1.59.61.21,1.78.57,2.93.6Z" />
    <path class="cls-5"
      d="M73.85,145.56c-2.23,1.57-4.31,3.19-6.1,4.84,1.57.66,2.99,1.31,4.27,1.96,1.36-2.95,3.56-4.74,6.34-4.35-1.39-.87-2.9-1.68-4.52-2.45Z" />
    <path class="cls-4"
      d="M68.89,176.84c-5.81-1.97-13.49-4.78-14.39-14.54-.47-5.18,1.48-10.07,5.98-14.97,1.58-1.72,3.46-3.43,5.75-5.23,4.22-3.32,9.04-6.31,13.69-9.21,4.4-2.73,8.55-5.32,11.84-7.9,11.99-9.43,17.61-19.07,17.66-19.17.08-.14.22-.22.37-.22.07,0,.15.02.21.06l5.98,3.42c.21.12.28.38.16.59-.25.45-6.39,11.03-19.6,21.41-3.62,2.85-7.95,5.54-12.52,8.38-3.34,2.08-6.77,4.21-9.94,6.44-2.44,1.72-4.42,3.29-6.05,4.8-4.23,3.92-6.14,7.47-5.82,10.87.43,4.73,3.74,6.07,9.55,8.04.98.33,2.15.73,3.32,1.2.3.12-6.07,6.06-6.21,6.01Z" />
    <path class="cls-5"
      d="M116.21,108.71l-5.98-3.42c-.14-.08-.28-.11-.43-.11-.3,0-.59.16-.75.43-.06.1-5.66,9.69-17.56,19.05-3.27,2.57-7.41,5.15-11.8,7.88-4.67,2.9-9.49,5.9-13.73,9.24-2.3,1.81-4.2,3.54-5.8,5.28-4.59,4.99-6.58,9.99-6.1,15.3.92,10.06,9.11,13.02,14.74,14.93.01-.02.02-.04.03-.06.17-.26.37-.46.58-.64-5.74-1.94-13.6-4.6-14.49-14.3-.51-5.55,1.93-10.35,5.87-14.64,1.67-1.81,3.6-3.53,5.7-5.18,4.2-3.3,9.04-6.31,13.65-9.18,4.41-2.74,8.57-5.33,11.88-7.93,12.09-9.51,17.72-19.2,17.77-19.3l5.98,3.42c-.25.44-6.36,10.96-19.49,21.29-3.61,2.84-7.93,5.52-12.5,8.37-3.32,2.06-6.78,4.21-9.94,6.45-2.23,1.57-4.31,3.19-6.1,4.84-3.84,3.55-6.32,7.3-5.96,11.23.46,4.99,4.04,6.44,9.84,8.41,1.26.43,2.6.89,3.91,1.45.21-.21.42-.42.61-.65,0,0,.01-.01.02-.02,0,0,0,0-.02,0-1.37-.6-2.73-1.07-4.25-1.58-6.14-2.08-8.87-3.43-9.26-7.67-.3-3.26,1.56-6.7,5.69-10.52,1.62-1.5,3.58-3.06,6.01-4.77,3.15-2.22,6.58-4.36,9.9-6.42,4.6-2.86,8.94-5.56,12.58-8.42,13.27-10.44,19.45-21.09,19.71-21.54.24-.41.09-.94-.32-1.18Z" />
    <path class="cls-6"
      d="M56.78,155.18c2.83-8.31,8.75-11.08,13.6-15.59-1.33.93-2.63,1.88-3.88,2.86-2.1,1.65-4.03,3.37-5.7,5.18-3.94,4.29-6.38,9.08-5.87,14.64.69,7.51,5.55,10.79,10.37,12.8-7.04-3.78-11.36-11.57-8.53-19.88Z" />
    <path class="cls-5"
      d="M85.92,133.91c1.28-1.76-3.98-1.76-3.98-1.76,0,0-1.06.66-1.79,1.11-2.16,1.34-3.64,2.25-5.82,3.67,4.89-.08,10.96-2.17,11.59-3.03Z" />
    <path class="cls-5"
      d="M72.87,140.49c.99-.97-1.02-1.92-1.29-1.73-1.63,1.1-2.56,1.75-4.08,2.92,2.74.36,4.38-.22,5.37-1.19Z" />
    <path class="cls-5"
      d="M65.83,175.27c1.24.49,2.46.91,3.6,1.29.11.04.22.08.33.11.5-.41,1.01-.81,1.53-1.22,1.6-1.26,3.17-2.51,4.53-3.86-1.39-.61-2.83-1.1-4.18-1.56-.01,0-.02,0-.03-.01.73,2.12-2,4.64-5.77,5.25Z" />
    <path class="cls-5"
      d="M115.78,109.46l-5.98-3.42c-.06.1-5.68,9.79-17.77,19.3-.94.74-1.96,1.48-3.03,2.23,3.53-.41,6.45.14,9.31,1.55,11.74-9.77,17.23-19.23,17.47-19.65Z" />
    <path class="cls-5"
      d="M104.65,60.01c-13.55-15.94-35.96-20.08-56.29-19.93-25.65,10.18-58.55,35.05-21.78,77.16,22.08,25.29,59.83,8.86,79.66-7.56,4.91-16.83,10.05-35.7-1.59-49.67Z" />
    <path class="cls-4"
      d="M123.6,78.04c-.68-6.99-13-55.16-64.16-41.63-3.33.88-7.12,2.11-11.09,3.68,20.34-.15,42.74,3.98,56.29,19.93,11.64,13.97,6.5,32.84,1.59,49.67.41-.34.82-.68,1.21-1.02,17.2-14.79,16.47-27.34,16.15-30.62Z" />
    <path class="cls-5"
      d="M106.24,110.11c-.08,0-.16-.02-.24-.07-.16-.1-.23-.3-.18-.48,4.57-15.66,10.26-35.15-1.51-49.27-11.32-13.31-30.15-19.94-55.96-19.77h0c-.21,0-.38-.15-.42-.35-.04-.2.07-.41.26-.48,3.71-1.47,7.56-2.75,11.13-3.7,16.89-4.47,31.26-2.7,42.7,5.26,16.41,11.42,21.53,31.89,22.01,36.75.57,5.85-.79,17.65-16.3,30.99-.4.34-.8.68-1.22,1.02-.08.07-.18.1-.27.1ZM50.67,39.66c24.89.21,43.15,6.96,54.3,20.08,11.72,14.06,6.62,33.09,2.07,48.7.04-.03.08-.07.12-.1,15.21-13.08,16.56-24.57,16.01-30.25-.46-4.78-5.5-24.9-21.64-36.13-11.22-7.81-25.35-9.53-41.98-5.13-2.85.75-5.88,1.72-8.87,2.83Z" />
    <path class="cls-6"
      d="M73.75,56.86c-16.25,3.36-41,10.45-39.5,35,1.51,24.55,44.48,17.62,44.48,17.62,0,0,35.22-8.54,33.57-25.88-1.65-17.34-23.59-29.84-38.56-26.75Z" />
    <path class="cls-4"
      d="M73.75,56.86c-16.25,3.36-41,10.45-39.5,35,.34,5.6,14.15,9.99,14.15,9.99,0,0-10.28-3.27-9.86-16.67.31-9.79,10.14-19.18,19.48-20.82,20.31-3.56,35.62-5.01,52.98,13.6-5.2-14.31-23.98-23.86-37.26-21.11Z" />
    <path class="cls-2"
      d="M70.11,113.22c-26.02,0-41.25-14.33-41.88-14.94-.17-.16-.18-.44-.01-.61l4.22-4.43s-3.22.23-3.23.23c-.11,0-.21-.04-.29-.12-.09-.08-.14-.2-.14-.31v-.07c-.03-.25-.09-.94-.12-1.95-.16-5.03.41-14.73,6.13-23.15,4.15-6.11,12.94-13.72,31.27-15.31,2.7-.23,5.35-.35,7.88-.35,15.4,0,27.55,4.36,35.15,12.62,3.6,3.9,5.78,8.55,6.48,13.8.45,3.35.15,6.09-.07,7.43-1.62,9.69-12.59,26.31-43.48,27.13-.63.02-1.27.03-1.9.03ZM35.2,92.6c.69.69,2.79,2.77,4.32,4.12.47.42.83.72,1.1.92,6.62,4.91,17.52,7.84,29.18,7.84.66,0,1.33,0,2.01-.03,22-.59,30.63-9.59,33.82-14.9,1.14-1.9,1.91-3.89,2.22-5.76.24-1.39,1.13-8.63-4.47-14.7-5.31-5.77-15.15-8.82-28.47-8.82-2.68,0-5.54.12-8.49.37-10.8.88-19.63,5.09-24.21,11.54-5.82,8.17-6.96,17.84-7.11,19.32.03.03.07.06.11.1Z" />
    <path class="cls-5"
      d="M73.93,52.64c16.21,0,27.79,4.83,34.83,12.48,4.2,4.56,5.83,9.54,6.37,13.57.45,3.35.14,6.04-.07,7.31-1.59,9.55-12.46,25.96-43.07,26.77-.63.02-1.27.03-1.89.03-25.82,0-40.94-14.2-41.59-14.82l2.38-2.49,2.38-2.5s1.29-.32,1.37-.33h0c.12.11,2.75,2.76,4.58,4.38.44.39.83.72,1.13.94,5.76,4.28,16.26,7.93,29.43,7.93.67,0,1.34,0,2.02-.03,20.01-.53,30.02-8.19,34.18-15.11,1.27-2.11,1.98-4.16,2.27-5.91.24-1.42,1.14-8.86-4.57-15.07-5.43-5.91-15.3-8.96-28.79-8.96-2.7,0-5.54.12-8.52.37-11.91.97-20.25,5.69-24.53,11.72-6.44,9.04-7.2,19.74-7.2,19.74,0,0,0,0,0,0l-4.13.29-.69.05-.62.04s-.08-.79-.12-2.03c-.14-4.23.21-14.28,6.06-22.89,5.15-7.59,15-13.74,30.95-15.13,2.72-.24,5.34-.35,7.84-.35h0ZM73.93,51.78h0c-2.54,0-5.21.12-7.91.36-18.51,1.61-27.39,9.32-31.59,15.5-5.78,8.52-6.37,18.32-6.2,23.4.04,1.02.09,1.71.12,1.97v.07c.02.22.11.44.28.59.16.15.37.23.59.23.02,0,.04,0,.06,0l.62-.04.69-.05.78-.06-1.08,1.14-2.38,2.49c-.33.34-.32.89.03,1.22.64.61,15.99,15.06,42.18,15.06.63,0,1.27,0,1.91-.03,31.17-.82,42.26-17.67,43.89-27.49.22-1.36.53-4.16.07-7.56-.71-5.34-2.92-10.07-6.59-14.04-7.68-8.35-19.94-12.76-35.47-12.76h0ZM35.54,92.33c.21-1.98,1.47-11.14,7.01-18.91,4.51-6.35,13.22-10.48,23.9-11.36,2.94-.24,5.78-.36,8.45-.36,13.2,0,22.93,3,28.15,8.68,5.46,5.93,4.59,12.99,4.36,14.34-.21,1.27-.76,3.27-2.16,5.61-3.14,5.24-11.67,14.11-33.46,14.69-.67.02-1.34.03-2,.03-11.57,0-22.38-2.9-28.92-7.76-.25-.19-.6-.48-1.07-.89-1.48-1.32-3.53-3.35-4.26-4.06h0Z" />
    <path class="cls-1"
      d="M71.2,107.36c-17.97,1.34-29.72-6.93-31.96-10.32.44.39.83.72,1.13.94,6.06,4.5,17.33,8.3,31.45,7.9,20.01-.53,30.02-8.19,34.18-15.11.21.34-3.31,14.24-34.8,16.59Z" />
    <path class="cls-1"
      d="M115.13,78.69c-.32-1.88-3.68-9.09-6.76-12.21-6.48-6.58-15.99-10.11-23.39-11.59-14.36-2.87-29.75-.15-38.9,5.92-16.35,10.84-17,30.21-17,30.21-.14-4.23.21-14.28,6.06-22.89,5.15-7.59,15-13.74,30.95-15.13,20.37-1.77,34.54,3.29,42.67,12.13,4.2,4.56,5.83,9.54,6.37,13.57Z" />
    <path class="cls-5"
      d="M87.29,58.43c1.84-.66-.85-4.71-1.09-4.74-2.47-.37-5.48-.83-8.24-.94-.55-.02,5.37,7.27,9.33,5.69Z" />
    <path class="cls-5"
      d="M110.16,81.55c-.49-1.47-1.8,2.73-1.9,3.31-.36,2.17-1.39,4.79-3.29,7.43-.39,1.65-1.22,6.49-1.22,6.49,0,0-6.41,1.96-6.78,2.63-.37.67.41,3.13.7,5.55,6.13-3.12,9.1-7.23,11.89-11.22,1.53-7.03,1.1-12.72.6-14.19Z" />
    <path class="cls-5"
      d="M38.55,95.9c-3.15-2.04-5.22-2.87-5.27-2.91l-2.38,2.49,2.38-2.49-2.38,2.49-2.38,2.49c.31.3,4,3.76,10.62,7.26-1.22-2.68-1.48-6.22-.59-9.33Z" />
    <path class="cls-5" d="M39.57,97.24c.25.32.52.58.8.75,0,0,0,0,0,0l-.81-.75Z" />
    <path class="cls-2"
      d="M53.08,134.33c-2.24-.08-10.2-.72-18.71-5.35-7.85-4.27-14.36-10.55-18.82-18.18,0-.01-.01-.02-.02-.03-2.69-4.61-4.71-9.8-5.99-15.42-7.18-31.46,13.05-51.59,32.55-59.27,8.04-3.16,18.75-5.05,28.66-5.05,3.28,0,6.52.2,9.64.59,13.58,1.69,24.88,6.91,33.59,15.52,2.04,2.01,3.96,4.25,5.71,6.65,1.98,2.48,4.68,8.4,5.53,11.17,3.79,12.35,1.91,26.06-5.58,40.75l-.22.37c-1.8,2.69-18.64,26.14-58.7,26.14-2.34,0-4.65-.15-7.03-.47l-.07,2.15c0,.12-.06.23-.14.31-.08.07-.18.11-.29.11-.01,0-.13,0-.13,0ZM70.9,38.88c-10.85,0-20.77,2.39-25.96,4.43-6.02,2.37-35.67,15.95-27.83,50.33.85,3.73,2.06,7.21,3.59,10.35,7.35,15.04,20.77,20.02,28.11,21.64,1.18.27,2.99.61,4.87.77.12,0,.26.07.34.16.07.09.15.21.13.33l-.13,1.09,6.35-3.46c.06-.03.13-.05.21-.05.01,0,.12,0,.12,0,35.7,0,50.59-20.21,52.17-22.52,5.75-11.36,7.73-21.9,5.86-31.28-.67-3.34-2.26-7.48-3.35-9.39-1.11-1.97-4.33-6.17-6.8-8.62-11.52-11.4-26.85-13.79-37.68-13.79Z" />
    <path class="cls-5"
      d="M70.76,31.47c3.14,0,6.35.18,9.59.58,13.47,1.68,24.78,6.94,33.34,15.4,2.05,2.02,3.94,4.22,5.66,6.6,1.96,2.46,4.63,8.29,5.47,11.04,3.13,10.2,3.02,23.63-5.55,40.43l-.21.34c-1.77,2.65-18.48,25.93-58.33,25.93-2.63,0-5.1-.2-7.44-.53l-.09,2.63c-.35-.03-9.08-.1-18.63-5.3-6.04-3.28-13.28-8.84-18.65-18.01,0,0,0,0,0-.02-2.5-4.27-4.58-9.33-5.94-15.31-7.12-31.2,12.95-51.16,32.29-58.77,6.72-2.64,17.09-5.02,28.5-5.02h0ZM53.5,128.76l7.08-3.86c.05,0,.1,0,.16,0,35.55,0,50.44-19.72,52.49-22.71,5.85-11.54,7.82-22.12,5.93-31.61-.66-3.31-2.25-7.5-3.39-9.52-1.14-2.02-4.37-6.23-6.88-8.71-10.82-10.71-25.22-13.91-37.99-13.91-11.1,0-20.95,2.43-26.12,4.46-6.08,2.4-36.01,16.09-28.09,50.83.9,3.93,2.14,7.39,3.63,10.44,7.44,15.24,21.05,20.25,28.4,21.87,2.81.63,4.71.76,5.01.78l-.22,1.92h0ZM70.76,30.61c-9.96,0-20.73,1.9-28.82,5.08C22.28,43.43,1.89,63.73,9.13,95.46c1.29,5.66,3.32,10.89,6.03,15.53,0,.01.01.03.02.04,4.5,7.69,11.06,14.03,18.98,18.34,8.6,4.68,16.64,5.31,18.9,5.4h.08s.03,0,.05,0c.22,0,.43-.08.59-.23.17-.16.28-.38.28-.61l.06-1.68c2.23.27,4.41.41,6.61.41,40.29,0,57.25-23.62,59.05-26.31l.23-.38s.02-.03.03-.05c7.54-14.79,9.43-28.61,5.6-41.07-.85-2.78-3.53-8.71-5.62-11.33-1.73-2.39-3.67-4.65-5.73-6.68-8.77-8.67-20.16-13.93-33.84-15.64-3.14-.39-6.41-.59-9.7-.59h0ZM54.55,127.21l.03-.27c.03-.23-.04-.46-.19-.64s-.36-.29-.59-.31h-.08c-1.85-.16-3.64-.5-4.81-.77-7.27-1.61-20.55-6.53-27.82-21.41-1.52-3.11-2.72-6.56-3.56-10.26-7.76-34.05,21.6-47.49,27.57-49.84,5.16-2.03,15.01-4.4,25.8-4.4,10.75,0,25.96,2.37,37.38,13.66,2.45,2.43,5.63,6.57,6.73,8.52,1.07,1.89,2.64,5.96,3.3,9.27,1.85,9.27-.11,19.7-5.83,31-1.12,1.62-5.25,7.05-13.4,12.19-10.65,6.7-23.55,10.1-38.35,10.1-.06,0-.11,0-.16,0-.14,0-.29.04-.41.11l-5.62,3.06h0Z" />
    <path class="cls-1"
      d="M113.69,47.45c-.65-.29-9.48-8.57-26.4-12.51C45.97,25.33,22.39,51.5,22.39,51.5c-22.98,22.08-8.54,53.15-6.48,59.08-2.5-4.27-4.58-9.33-5.94-15.31-7.12-31.2,12.95-51.16,32.29-58.77,8.56-3.37,23.07-6.31,38.1-4.44,13.47,1.68,24.78,6.94,33.34,15.4Z" />
    <path class="cls-5"
      d="M15.92,110.59c1.64,2.8,3.45,5.25,5.34,7.41,1.5-1.92,2.29-8.1,2.29-8.1,0,0-1.83-2.84-3.24-5.72-.03-.06-.06-.13-.09-.19-.08.12-.17.24-.28.39-1.35,1.92-2.82,3.76-4.46,5.44.14.25.28.51.42.75,0,0,0,.02,0,.02Z" />
    <path class="cls-5"
      d="M30.67,46.52c1.16.72,2.34,1.41,3.53,2.09,3.16-2.17,6.09-3.7,8.22-4.69,1.68-3.22,3.57-6.33,5.61-9.35-2.13.6-4.07,1.25-5.77,1.92-4.86,1.91-9.76,4.62-14.26,8.07.88.68,1.74,1.38,2.68,1.95Z" />
    <path class="cls-5"
      d="M90.6,34.15c.69,1.5,1.59,2.92,2.56,4.25,1.5,2.06,3.3,3.99,5.31,5.6,1.27-1.67,2.4-3.45,3.57-5.17-3.54-1.93-7.36-3.49-11.44-4.67Z" />
    <path class="cls-5"
      d="M113.24,54.03c-.21,1.17,4.05,8.98,12.15,13.1-.17-.69-.36-1.37-.57-2.04-.84-2.76-3.51-8.59-5.47-11.04-1.32-1.82-2.74-3.54-4.25-5.15-.85,1.62-1.53,3.32-1.86,5.13Z" />
    <path class="cls-5"
      d="M124.22,80.89c-.19.35-.35.69-.48.95-.55,1-1.22,1.94-1.84,2.9-1.13,1.73-2.32,3.43-3.73,4.93-1.1,4.04-2.75,8.22-4.94,12.54-.58.85-2.2,3.04-5.02,5.75,2.45-.42,10.68-1.8,10.87-2.08l.21-.34c.31-.62.62-1.23.91-1.83,2.36-4.91,3.98-9.51,5.02-13.83-.02-1,.71-3.33.71-3.33,0,0-7.34,7.62-7.39,7.16,4.59-4.3,6.56-10.48,6.5-10.97-.14-1.05-.56-.79-.8-1.83Z" />
    <path class="cls-5"
      d="M80.49,127.14c.97-1.6,1.65-3.23,2.02-5.05-6.18,1.72-13.39,2.82-21.77,2.82-.05,0-.1,0-.16,0l-7.08,3.86.22-1.92c-.29-.03-2.2-.16-5.01-.78-2.2-.49-4.96-1.28-7.95-2.56-1.73,1.97-3.69,3.74-5.81,5.31,9.4,4.99,17.91,5.07,18.26,5.1l.09-2.63c2.34.33,4.82.53,7.44.53,6.47,0,12.33-.62,17.61-1.66.78-.96,1.5-1.95,2.15-3.01Z" />
    <path class="cls-1"
      d="M48.72,126.06l-2.19,4.23s-9.59-5.52-17.47-11.54c-7.87-6.02-9.9-14.71-9.56-15.05l.81.49c7.44,15.24,21.05,20.25,28.4,21.87Z" />
    <path class="cls-5"
      d="M102.92,114.18s-7.29,3.08-12.96,5.39c1.19,2,2.44,3.97,3.84,5.83,7.49-3.23,13.15-7.2,17.21-10.74-1.71-.85-8.09-.49-8.09-.49Z" />
    <path class="cls-3"
      d="M74.19,95.95c-4.08.33-6.1-4-8.5-1.77s1.98,6.43,7.92,6.31c4.28-.09,8.87-2.39,8.87-4.78,0-1.28-.43-2.56-2.18-2.63-1.74-.07-3.14,2.64-6.11,2.88Z" />
    <path class="cls-3"
      d="M73.35,100.81c-4.23,0-7.59-2.1-8.44-4.18-.41-1.02-.21-1.97.56-2.69,1.46-1.36,2.83-.55,4.28.3,1.23.72,2.61,1.54,4.41,1.39h0c1.53-.12,2.63-.95,3.6-1.68.84-.64,1.65-1.23,2.55-1.2,1.6.07,2.49,1.11,2.49,2.95,0,2.72-5.02,5.02-9.18,5.11-.09,0-.18,0-.27,0ZM67.14,93.85c-.42,0-.81.17-1.23.56-.72.67-.62,1.44-.4,1.97.76,1.88,4.05,3.85,8.09,3.78,4.24-.09,8.55-2.34,8.55-4.46,0-1.5-.61-2.26-1.87-2.31-.68-.03-1.35.48-2.13,1.07-.99.74-2.22,1.67-3.94,1.81-2,.16-3.54-.75-4.79-1.47-.95-.56-1.65-.94-2.29-.94Z" />
    <path class="cls-3"
      d="M68.17,82.21c0,7.02-5.69,12.71-12.71,12.71-.11,0-.23,0-.34,0-6.87-.18-12.37-5.79-12.37-12.7s5.39-12.41,12.15-12.7c.19-.02.38-.02.57-.02,7.02,0,12.71,5.69,12.71,12.72Z" />
    <path class="cls-3"
      d="M55.46,95.24c-.12,0-.25,0-.37,0-7.1-.19-12.67-5.91-12.67-13.02s5.47-12.72,12.46-13.02c.18-.02.38-.02.58-.02,7.19,0,13.03,5.85,13.03,13.04s-5.85,13.03-13.03,13.03ZM55.43,69.82c-.17,0-.34,0-.51.02-6.65.29-11.85,5.73-11.85,12.38s5.3,12.2,12.06,12.38c.12,0,.23.01.34,0,6.83,0,12.38-5.56,12.38-12.38s-5.56-12.39-12.38-12.39h-.03Z" />
    <path class="cls-5"
      d="M55.46,69.49c7.02,0,12.71,5.69,12.71,12.72s-5.69,12.71-12.71,12.71c-.11,0-.23,0-.34,0-6.87-.18-12.37-5.79-12.37-12.7s5.39-12.41,12.15-12.7c.19-.02.38-.02.57-.02h0ZM55.46,68.63c-.21,0-.42,0-.65.02-7.23.31-12.93,6.27-12.93,13.56s5.79,13.35,13.19,13.56c.13,0,.26,0,.39,0,7.48,0,13.57-6.09,13.57-13.57s-6.09-13.58-13.57-13.58h0Z" />
    <path class="cls-5"
      d="M68.17,82.21c0,7.02-5.69,12.71-12.71,12.71-.11,0-.23,0-.34,0-1.01-3.08-1.96-7.71-1.8-13.92.15-5.31.83-8.99,1.58-11.48.19-.02.38-.02.57-.02,7.02,0,12.71,5.69,12.71,12.72Z" />
    <path class="cls-3"
      d="M56.41,84.09h-4.07c-1.66,0-3.02-1.36-3.02-3.02h0c0-1.66,1.36-3.02,3.02-3.02h4.07c1.66,0,3.02,1.36,3.02,3.02h0c0,1.66-1.36,3.02-3.02,3.02Z" />
    <path class="cls-3"
      d="M79.86,82.21c0,7.02,5.69,12.71,12.71,12.71.11,0,.23,0,.34,0,6.87-.18,12.37-5.79,12.37-12.7s-5.39-12.41-12.15-12.7c-.19-.02-.38-.02-.57-.02-7.02,0-12.71,5.69-12.71,12.72Z" />
    <path class="cls-3"
      d="M92.57,95.24c-7.18,0-13.03-5.85-13.03-13.03s5.85-13.04,13.03-13.04c.2,0,.4,0,.6.02,6.97.3,12.44,6.02,12.44,13.02s-5.57,12.83-12.69,13.02c-.11,0-.23,0-.35,0ZM92.59,69.82h-.03c-6.83,0-12.38,5.56-12.38,12.39s5.56,12.38,12.38,12.38c.11,0,.22,0,.32,0,6.78-.18,12.07-5.61,12.07-12.38s-5.2-12.09-11.84-12.38c-.19-.02-.36-.02-.53-.02Z" />
    <path class="cls-5"
      d="M92.57,69.49c.19,0,.38,0,.57.02,6.75.29,12.15,5.87,12.15,12.7s-5.51,12.52-12.37,12.7c-.11,0-.23,0-.34,0-7.02,0-12.71-5.69-12.71-12.71s5.69-12.72,12.71-12.72h0ZM92.57,68.63c-7.48,0-13.57,6.09-13.57,13.58s6.09,13.57,13.57,13.57c.13,0,.26,0,.39,0,7.4-.21,13.19-6.16,13.19-13.56s-5.7-13.24-12.97-13.56c-.19-.02-.4-.02-.61-.02h0Z" />
    <path class="cls-5"
      d="M79.86,82.21c0,7.02,5.69,12.71,12.71,12.71.11,0,.23,0,.34,0,1.01-3.08,1.96-7.71,1.8-13.92-.15-5.31-.83-8.99-1.58-11.48-.19-.02-.38-.02-.57-.02-7.02,0-12.71,5.69-12.71,12.72Z" />
    <path class="cls-3"
      d="M91.61,84.09h4.07c1.66,0,3.02-1.36,3.02-3.02h0c0-1.66-1.36-3.02-3.02-3.02h-4.07c-1.66,0-3.02,1.36-3.02,3.02h0c0,1.66,1.36,3.02,3.02,3.02Z" />
    <path class="cls-5"
      d="M55.33,97.7c-.33,0-.65,0-.97-.02-.24-.01-.42-.21-.41-.45.01-.24.19-.45.45-.41.55.02,1.12.03,1.69,0,.22,0,.44.18.45.42,0,.24-.18.44-.42.44-.26,0-.52.01-.79.01Z" />
    <path class="cls-5"
      d="M52.59,97.52s-.04,0-.06,0c-.63-.09-1.26-.21-1.86-.36-.23-.06-.37-.29-.31-.52s.29-.37.52-.31c.57.15,1.16.26,1.76.34.24.03.4.25.37.49-.03.22-.21.37-.43.37Z" />
    <path class="cls-5"
      d="M48.41,96.33c-.06,0-.12-.01-.18-.04-5.13-2.37-7.07-7.17-7.8-10.78-.05-.23.1-.46.34-.51.23-.05.46.1.51.34.69,3.41,2.51,7.95,7.31,10.16.22.1.31.36.21.57-.07.16-.23.25-.39.25Z" />
    <path class="cls-5"
      d="M40.54,83.78c-.22,0-.41-.17-.43-.39-.11-1.11-.09-1.81-.08-1.84,0-.24.18-.41.45-.42.24,0,.42.21.42.44,0,0-.02.68.08,1.73.02.24-.15.45-.39.47-.01,0-.03,0-.04,0Z" />
    <path class="cls-5"
      d="M80.23,93.07s.05,0,.07,0c1.74.07,2.18,1.35,2.18,2.63,0,2.39-4.58,4.69-8.87,4.78-.09,0-.17,0-.26,0-5.81,0-10.02-4.12-7.66-6.31.49-.46.97-.64,1.45-.64,1.77,0,3.62,2.43,6.6,2.43.15,0,.3,0,.45-.02,2.94-.24,4.33-2.88,6.04-2.88h0ZM80.23,92.2c-1.05,0-1.9.63-2.79,1.31-.96.72-1.95,1.46-3.32,1.58-.13.01-.25.02-.38.02-1.45,0-2.6-.68-3.71-1.33-.96-.57-1.88-1.1-2.88-1.1h0c-.73,0-1.42.29-2.04.87-.92.86-1.18,2.04-.71,3.25.87,2.21,4.3,4.56,8.96,4.56.09,0,.18,0,.27,0,4.58-.1,9.71-2.53,9.71-5.65,0-2.14-1.09-3.41-3-3.49h-.1Z" />
    <path class="cls-5"
      d="M81.42,95.52c-.1,0-.21-.04-.29-.11-.17-.16-.19-.43-.02-.61.55-.6.77-1.06.78-1.06.1-.21.36-.31.57-.21.22.1.31.36.21.57-.01.02-.27.58-.92,1.28-.09.09-.2.14-.32.14Z" />
    <path class="cls-5"
      d="M77.39,97.98c-.18,0-.35-.12-.41-.3-.07-.23.05-.47.28-.54.97-.31,1.84-.74,2.59-1.26.2-.13.46-.09.6.11.14.2.09.46-.11.6-.82.57-1.77,1.03-2.82,1.37-.04.01-.09.02-.13.02Z" />
    <path class="cls-5"
      d="M74.18,98.61c-.22,0-.41-.17-.43-.39-.02-.24.15-.45.39-.47.49-.04.99-.11,1.46-.2.23-.04.46.11.5.35.04.23-.11.46-.35.5-.5.09-1.02.16-1.54.21-.01,0-.03,0-.04,0Z" />
    <path class="cls-5"
      d="M72.62,98.64s-.01,0-.02,0c-.5-.02-1-.08-1.48-.17-.23-.04-.39-.27-.35-.5.04-.23.27-.38.5-.35.45.08.9.13,1.36.16.24.01.42.21.41.45-.01.23-.2.41-.43.41Z" />
    <path class="cls-5"
      d="M69.4,97.98c-.05,0-.1,0-.15-.03-.6-.23-1.19-.51-1.74-.84-.2-.12-.27-.39-.15-.59.12-.21.39-.27.59-.15.51.3,1.05.56,1.6.77.22.08.34.33.25.55-.06.17-.23.28-.4.28Z" />
    <path class="cls-5"
      d="M66.01,95.91c-.1,0-.21-.04-.29-.11-.59-.54-.9-.95-.91-.96-.14-.19-.1-.46.09-.6.19-.14.46-.1.6.09,0,0,.27.36.8.84.18.16.19.43.03.61-.09.09-.2.14-.32.14Z" />
    <path class="cls-5"
      d="M68.78,99.49c-.23,0-.42-.19-.43-.42l-.07-2.83c0-.24.18-.43.42-.44.26,0,.44.18.44.42l.07,2.83c0,.24-.18.43-.42.44h-.01Z" />
    <path class="cls-5"
      d="M68.69,95.72c-.23,0-.42-.19-.43-.42v-.54c-.02-.24.17-.43.41-.44.23,0,.44.18.44.42v.53c.02.24-.17.43-.41.44h-.01Z" />
    <path class="cls-5"
      d="M71.83,100.26c-.24,0-.43-.19-.43-.43v-2.11c0-.24.19-.43.43-.43s.43.19.43.43v2.11c0,.24-.19.43-.43.43Z" />
    <path class="cls-5"
      d="M71.83,97.21c-.24,0-.43-.19-.43-.43v-.54c0-.24.19-.43.43-.43s.43.19.43.43v.54c0,.24-.19.43-.43.43Z" />
    <path class="cls-5"
      d="M74.91,100.26c-.24,0-.43-.19-.43-.43v-.29c0-.24.19-.43.43-.43s.43.19.43.43v.29c0,.24-.19.43-.43.43Z" />
    <path class="cls-5"
      d="M74.91,99.03c-.24,0-.43-.19-.43-.43v-2.01c0-.24.19-.43.43-.43s.43.19.43.43v2.01c0,.24-.19.43-.43.43Z" />
    <path class="cls-5"
      d="M78.25,99.49c-.24,0-.43-.19-.43-.43v-3.97c0-.24.19-.43.43-.43s.43.19.43.43v3.97c0,.24-.19.43-.43.43Z" />
    <path class="cls-5"
      d="M90.3,68.17c-.21,0-.4-.16-.43-.38-.03-.24.14-.45.37-.48.74-.1,1.52-.16,2.31-.18.28,0,.44.18.44.42,0,.24-.18.44-.42.44-.76.02-1.51.08-2.23.17-.02,0-.04,0-.06,0Z" />
    <path class="cls-5"
      d="M84.15,70.23c-.14,0-.29-.07-.37-.21-.12-.2-.06-.47.14-.59,1.26-.77,2.68-1.35,4.23-1.73.23-.06.46.08.52.31s-.08.46-.31.52c-1.47.36-2.81.91-3.99,1.63-.07.04-.15.06-.22.06Z" />
    <path class="cls-5"
      d="M77.66,80.03s-.06,0-.09-.01c-.23-.05-.38-.28-.33-.51.54-2.5,1.81-6.02,4.76-8.65.18-.16.45-.14.61.04.16.18.14.45-.04.61-2.78,2.47-3.98,5.82-4.49,8.19-.04.2-.22.34-.42.34Z" />
    <path class="cls-5"
      d="M77.2,84.52c-.23,0-.42-.18-.43-.41,0-.03-.04-.77.07-1.94.02-.24.24-.4.47-.39.24.02.41.23.39.47-.1,1.11-.07,1.82-.07,1.83.01.24-.17.44-.41.45,0,0-.01,0-.02,0Z" />
    <path class="cls-4"
      d="M65.81,128.05c-1.63,0-3.21-.05-4.83-.15-9.57-.58-18.21-2.86-25.66-6.79-10-5.28-17.12-13.24-19.54-21.85-5.84-20.77-1.68-36.39,12.73-47.73,14.07-11.08,31.04-12.73,39.9-12.73,2.87,0,4.99.17,5.99.27h.09c.12.02.22.07.3.16.07.09.11.2.1.32l-.28,2.95v3.89c0,.24-.19.43-.43.43h0c-.05,0-.24,0-.56-.04-.9-.09-2.79-.24-5.34-.24-7.81,0-22.73,1.44-34.98,11.07-10.15,7.99-13.88,18.13-11.75,31.92.37,2.39.94,4.96,1.69,7.63,2.5,8.88,15.83,22.08,42.33,22.09h0c1.51,0,3.07-.04,4.62-.13,1.64-.09,4.39-.36,5.66-.52,2.34-.31,7.3-1.64,12.26-3.6,3.18-1.26,6.89-2.81,10.34-4.83,4.5-2.62,7.83-5.59,10.16-9.07.08-.12.21-.19.35-.19,0,0,9.55-.05,9.55-.05.17,0,.33.1.4.26.07.16.03.35-.09.47l-3.82,3.9c-8.22,12.23-25.03,19.27-37.04,21.6-.07.07-.16.12-.26.14-.29.04-.58.07-.87.11-.2.02-.39.04-.59.07-1.34.22-2.55.35-3.5.37h-.01s-.08,0-.12-.02c-2.42.19-4.71.28-6.8.28Z" />
    <path class="cls-5"
      d="M68.4,39.23c2.82,0,4.9.16,5.95.27h.1s-.28,2.96-.28,2.96v3.93s-.22,0-.52-.03c-.95-.09-2.84-.24-5.38-.24-8.14,0-22.98,1.52-35.25,11.17-10.19,8.02-14.06,18.41-11.91,32.32.38,2.45.95,5.01,1.7,7.68,2.75,9.78,16.71,22.4,42.74,22.4,1.51,0,3.06-.04,4.65-.13,1.64-.09,4.38-.36,5.69-.53,2.3-.3,7.24-1.6,12.36-3.63,3.46-1.37,7.06-2.9,10.4-4.86,4.01-2.33,7.66-5.26,10.3-9.2l9.55-.05-3.83,3.9c-8.96,13.33-27.11,19.64-37.06,21.53v.09c-.48.07-.96.11-1.45.17-1.39.22-2.56.34-3.45.37v-.03c-2.4.19-4.72.29-6.92.29-1.66,0-3.26-.05-4.81-.15-11.44-.69-19.87-3.78-25.48-6.75-9.89-5.22-16.94-13.09-19.32-21.58-5.79-20.59-1.67-36.05,12.58-47.27,13.88-10.93,30.55-12.64,39.63-12.64h0ZM68.4,38.37c-8.92,0-25.99,1.67-40.17,12.83-14.56,11.46-18.77,27.22-12.87,48.18,2.45,8.72,9.65,16.78,19.75,22.11,7.51,3.96,16.2,6.26,25.83,6.84,1.63.1,3.22.15,4.86.15,2.09,0,4.37-.09,6.78-.28.05,0,.09.01.14.01,0,0,.01,0,.02,0,.96-.03,2.19-.16,3.57-.38.16-.02.36-.04.55-.06.29-.03.59-.07.89-.11.15-.02.28-.08.4-.16,12.06-2.36,28.88-9.44,37.21-21.76l3.77-3.85c.24-.25.31-.62.18-.94-.14-.32-.45-.53-.79-.53h0l-9.55.05c-.29,0-.55.14-.71.38-2.3,3.42-5.58,6.35-10.02,8.94-3.42,2-7.12,3.55-10.28,4.8-4.93,1.95-9.85,3.27-12.16,3.57-1.26.16-3.99.43-5.62.52-1.55.09-3.1.13-4.6.13-11.55,0-21.81-2.56-29.65-7.4-6.32-3.91-10.8-9.14-12.27-14.37-.74-2.65-1.31-5.2-1.68-7.57-2.11-13.62,1.57-23.63,11.59-31.52,12.14-9.56,26.96-10.98,34.71-10.98,2.53,0,4.41.15,5.3.24.22.03.43.04.6.04.48,0,.86-.39.86-.86v-3.89l.27-2.91c.02-.23-.05-.46-.2-.63-.15-.18-.36-.29-.59-.31h-.1c-1-.11-3.13-.28-6.02-.28h0Z" />
    <path class="cls-6"
      d="M104.72,108.52c-.72.48-25.99,16.54-55.2,10.68-29.27-5.88-28.45-28.5-28.39-29.59.38,2.45.95,5.01,1.7,7.68,2.91,10.35,18.37,23.87,47.39,22.27,1.64-.09,4.38-.36,5.69-.53,2.3-.3,7.24-1.6,12.36-3.63,3.46-1.37,7.06-2.9,10.4-4.86,3.57-1.12,5.84-1.95,6.06-2.02Z" />
    <path class="cls-5"
      d="M42.57,43.99c-2.93,1.17-5.88,2.61-8.77,4.39-.12.07,3.98,2.24,5.59,1.62,1.6-.62,3.18-6.01,3.18-6.01Z" />
    <path class="cls-5"
      d="M73.66,46.36c.3.03.48.03.52.03v-3.93l.27-2.95h-.1c-1.46-.16-4.97-.42-9.66-.18-1.18,2.48-2.48,4.93-3.99,7.21,6.32-.71,11.23-.36,12.96-.18Z" />
    <path class="cls-5"
      d="M24.51,66.88c-1.14-1.71-2.86-5.09-4.36-4.63-1.5.46-.08,8.57,1.14,13.03.64-3.01,1.72-5.8,3.22-8.4Z" />
    <path class="cls-5"
      d="M20.63,80.85c.06-1.33.17-2.64.37-3.89-2.14-2.6-3.8-5.59-4.68-9.01-.64,1.6-1.16,3.26-1.57,4.97-.42,1.77-.72,3.6-.89,5.49-.07.77,4.33,6.41,6.95,8.44-.2-2.08-.26-4.07-.18-5.99Z" />
    <path class="cls-5"
      d="M72.73,127.32v.03c.9-.03,2.07-.15,3.45-.37.49-.06.97-.1,1.46-.17v-.09c1.54-.29,3.3-.7,5.18-1.22-5.75.07-11.04.65-16.23,2.09,1.97-.02,4.01-.11,6.13-.28Z" />
    <path class="cls-5"
      d="M114.69,105.19l3.83-3.9-9.55.05c-2.59,3.85-5.31,5.85-9.22,8.16.73,1.64,2.64,2.8,2.64,2.8,2.15-1.46,3.73-3.28,4.56-5.59l7.74-1.52Z" />
    <path class="cls-5"
      d="M67.61,121.02c-1.79-1.21-16.75,5.12-16,5.27,2.87.56,6,.98,9.4,1.18.77.05,1.55.08,2.34.11,3.16-1.71,6.05-5.35,4.26-6.56Z" />
    <path class="cls-3"
      d="M43.14,123.27c-.1.26-3.06,9.15-3.06,9.15l8.7,1.05s8.24,6.05,12.43,6.84c6.32,1.19,10.31,1.14,10.93-.05.62-1.19-6.73-1.97-7.92-2.59s-4.25-2.8-4.25-2.8c0,0,7.51,1.35,10.98,1.4,3.47.05,13.78-1.4,13.83-2.74s-11.76-.93-12.95-.98c-1.19-.05-10.36-1.09-10.36-1.09,0,0,7.87-.47,10.67-.93,2.8-.47,7.92-2.9,7.77-3.94-.16-1.04-7.92.26-9.48.67-1.55.41-10.89.36-10.89.36,0,0,9.91-4.45,7.78-6.21-2.12-1.76-16.43,5-16.43,5l-7.76-3.14Z" />
    <path class="cls-5"
      d="M68.67,141.61c-2.22,0-5.04-.41-7.54-.88-4.05-.76-11.55-6.15-12.51-6.85l-8.59-1.04c-.13-.02-.24-.09-.31-.2-.07-.11-.09-.24-.05-.37.3-.91,2.96-8.91,3.06-9.17.04-.11.13-.19.23-.24.11-.04.22-.05.33,0l7.58,3.07c2.78-1.31,14.55-6.67,16.72-4.86.35.29.5.66.44,1.08-.22,1.63-4.13,3.82-6.59,5.04,3.14-.01,7.88-.08,8.87-.35.9-.24,8.38-1.66,9.69-.8.23.15.3.34.32.48.24,1.57-5.72,4.02-8.12,4.43-1.32.22-3.72.44-5.92.61,2.42.26,4.97.53,5.56.56.21,0,.76,0,1.51,0,6.39-.06,10.81.07,11.64.92.18.19.21.38.21.51-.08,2.01-11.8,3.21-14.27,3.16-2.41-.04-6.67-.68-9.14-1.08.92.63,2.02,1.36,2.62,1.67.36.19,1.6.44,2.79.68,3.07.62,4.95,1.05,5.33,1.83.1.21.1.45-.01.66-.44.85-1.93,1.16-3.85,1.16ZM40.66,132.05l8.18.99c.07,0,.14.04.2.08.08.06,8.21,6,12.25,6.76,7.32,1.38,9.97.82,10.42.24-.45-.46-3.19-1.01-4.68-1.31-1.58-.32-2.57-.53-3.02-.76-1.2-.63-4.17-2.74-4.3-2.83-.16-.12-.23-.33-.15-.52.08-.19.28-.29.47-.26.07.01,7.52,1.34,10.91,1.39.07,0,.14,0,.22,0,3.8,0,12.1-1.36,13.11-2.29-.77-.45-4.43-.65-10.91-.58-.78,0-1.34.01-1.56,0-1.19-.05-10.01-1.05-10.39-1.09-.22-.03-.39-.22-.38-.44,0-.22.18-.4.41-.42.08,0,7.88-.47,10.62-.93,2.79-.47,6.92-2.58,7.38-3.38-1.07-.41-7.09.48-8.9.96-1.59.42-10.62.38-11,.37-.2,0-.38-.14-.42-.34-.04-.2.06-.4.24-.48,3.15-1.42,7.66-3.96,7.82-5.19.01-.1,0-.19-.14-.3-1.39-1.15-10.54,2.49-15.97,5.06-.11.05-.23.06-.35.01l-7.33-2.97c-.43,1.28-1.75,5.23-2.74,8.22Z" />
    <path class="cls-7"
      d="M64.42,120.22c-31.42,0-39.79-19.73-41.61-25.77-.47-1.56-.83-3.27-1.07-5.08-.66-4.96-1.66-22.09,13.18-34.02,2.53-2.04,5.53-3.38,9-4.93l.65-.29c5.54-2.48,13.38-4.06,21.51-4.33.87-.03,1.74-.05,2.6-.05,1.68,0,3.35.06,4.95.17-.02-.08-.04-.15-.06-.21-.13-.46-.25-.86-.04-1.15.1-.14.26-.21.44-.21,10.61.46,20.67,3.23,28.35,7.8,14.53,10.26,13.76,25.76,13.75,25.91-.01.22-.19.39-.41.4,0,0-.01,0-.02,0-.21,0-.93-2.67-1.38-3.87-1.17-3.1-3.19-6.31-5.83-9.19-3.19-3.46-7.44-6.15-12.64-7.98-6.84-3.32-14.72-5.07-22.84-5.07s-15.87,1.69-23.09,4.88c-18.36,8.12-22.54,25.33-19.65,34.97.54,1.79,1.3,3.54,2.28,5.2.02.03.04.06.05.09,3.29,5.53,11.84,14.75,32.32,14.75.37,0,.75,0,1.12,0,16.57-.26,28.36-5.16,32.69-9.9.08-.09.2-.14.32-.14.02,0,.04,0,.05,0,.14.02.26.1.33.22l3.44,6.36c.1.18.06.39-.09.53-5.39,4.85-18.35,10.61-37.15,10.91-.39,0-.78,0-1.17,0Z" />
    <path class="cls-5"
      d="M73.99,44.78s0,0,0,0c10.46.46,20.45,3.18,28.12,7.74,14.47,10.22,13.54,25.52,13.54,25.52-.63-3.9-2.92-8.59-6.89-12.91-3.27-3.54-7.55-6.24-12.81-8.1-6.77-3.29-14.71-5.09-22.98-5.1-7.69,0-15.67,1.56-23.26,4.91-19.39,8.57-22.59,26.49-19.88,35.49.53,1.78,1.31,3.58,2.33,5.32h0v.03c4.76,8.06,14.99,15.01,32.72,15.01.37,0,.75,0,1.13,0,17.66-.28,29.02-5.68,33-10.05l.69,1.28,2.75,5.08c-5.3,4.76-18.12,10.5-36.87,10.79-.39,0-.78,0-1.16,0-25.4,0-37.45-13.01-41.2-25.47-.45-1.49-.81-3.18-1.05-5.01-1.31-9.86.96-23.92,13.03-33.63,2.64-2.13,5.9-3.52,9.55-5.16,5.69-2.55,13.6-4.03,21.35-4.29.87-.03,1.73-.05,2.59-.05,1.8,0,3.57.07,5.3.2,0,0,.01,0,.02,0,.44,0-.48-1.6-.03-1.6h0ZM73.99,43.92h0c-.31,0-.6.14-.78.39-.26.35-.23.75-.14,1.15-1.43-.09-2.9-.13-4.37-.13-.87,0-1.75.02-2.62.05-8.19.27-16.09,1.86-21.67,4.37l-.65.29c-3.5,1.56-6.52,2.91-9.09,4.98-15.01,12.07-14.01,29.39-13.34,34.41.24,1.83.6,3.57,1.08,5.15,1.51,5.02,4.95,12.19,12.8,17.86,7.55,5.46,17.39,8.22,29.22,8.22.39,0,.79,0,1.18,0,18.91-.3,31.98-6.12,37.43-11.02.3-.27.37-.7.18-1.05l-2.75-5.08-.69-1.28c-.13-.25-.38-.41-.65-.45-.04,0-.07,0-.11,0-.24,0-.47.1-.64.28-3.19,3.49-13.59,9.47-32.38,9.76-.38,0-.75,0-1.12,0-20.24,0-28.69-9.06-31.94-14.51-.02-.05-.04-.09-.07-.13-.96-1.63-1.71-3.34-2.23-5.09-2.85-9.48,1.28-26.44,19.41-34.45,7.16-3.17,15.09-4.84,22.92-4.84,8.05,0,15.87,1.73,22.61,5.01.03.01.06.03.09.04,5.13,1.81,9.32,4.46,12.46,7.87,1.99,2.16,3.93,4.46,5.1,6.81.95,1.9,2.43,6.38,2.43,6.38.01,0,.03,0,.04,0,.44-.02.79-.37.82-.81,0-.16.79-15.9-13.91-26.27-.02-.01-.04-.03-.06-.04-7.74-4.6-17.87-7.39-28.52-7.86-.01,0-.03,0-.04,0h0Z" />
    <path class="cls-6"
      d="M66.1,46.23c4.76.39,9.15.96,12.41,1.46-7.98-.84-21.96-3.44-40.88,7.47-15.2,8.77-15.29,34.45-15.29,34.45-.05-.1-.11-.2-.16-.3-1.31-9.86.96-23.92,13.03-33.63,2.64-2.13,5.9-3.52,9.55-5.16,5.69-2.55,13.6-4.03,21.35-4.29Z" />
    <path class="cls-6"
      d="M99.71,103.9c-5.77,4.04-14.89,8.14-31.15,9.45-28.15,2.26-36.12-14.94-36.4-15.68,4.86,8.23,15.42,15.3,33.85,15,17.66-.28,29.02-5.68,33-10.05l.69,1.28Z" />
    <path class="cls-5"
      d="M102.46,108.98l-3.44-6.36c-.35.38-.77.77-1.22,1.16-.14,3.35-.89,6.54-2.09,9.57,2.89-1.43,5.17-2.94,6.76-4.37Z" />
    <path class="cls-5"
      d="M23.25,93.56c.13.42,2.49,1.6,2.49,1.6,0,0,2.95,5.8,6.59,7.98l1.86-2.55c-2.09-2.62-3.52-5.45-4.37-8.26-.93-3.11-1.16-7.27-.27-11.75-1.42-4.62-3.75-13.36-3.95-12.96-4.72,9.59-4.33,19.36-2.35,25.94Z" />
    <path class="cls-5"
      d="M101.22,56.74c1.95-.49-16.77-11.5-27.23-11.95-.48-.02.48,1.64,0,1.6-2.62-.21-5.37-.26-8.14-.15-.54.02-.08,3.51.82,3.54.64.02,7.4-1.13,7.4-1.13,0,0,2.16,3.39,2.75,3.43,3.69.25,6.26,1,9.69,1.94-.06-.26-3.58-3.78-3.58-4.03,5.17,2.58,16.34,7.24,18.29,6.75Z" />
    <path class="cls-5"
      d="M111.43,62.55c1.2,2.45,1.75,6.05-.04,5.96,2.14,3.3,3.82,6.67,4.28,9.58,0,0,1.12-7.77-4.24-15.53Z" />
    <path class="cls-3"
      d="M38.52,94.35c-.43.9-5.25,7.1-5.94,7.52-.69.43-4.51-3.26-7.08-6.79,0,0-8.2-4.84-10.49-6.92-2.29-2.08-8.15-11.08-6.87-11.88,1.28-.8,6.66,7.94,8.21,9.14s5.06,3.01,5.06,3.01c0,0-4.74-7.73-5.76-9.75s-5.6-13.96-3.94-14.65c1.65-.69,7.31,12.29,8.26,13.7.95,1.41,5.18,8.27,5.18,8.27,0,0-3.26-10.46-3.52-11.79-.27-1.33-2.66-11.03-1.33-11.46,1.33-.43,5.38,10.92,6.07,12.9.69,1.97,3.04,10.5,3.04,10.5,0,0,3.68-8.26,5.6-7.51,1.92.75-3.02,12.03-3.02,12.03,2.88,1.79,6.98,2.79,6.55,3.69Z" />
    <path class="cls-5"
      d="M32.49,102.32c-1.58,0-5.65-4.68-7.29-6.91-.89-.52-8.28-4.92-10.48-6.92-2.04-1.85-7.38-9.74-7.19-11.89.04-.39.22-.58.38-.68,1.04-.64,2.66,1.33,5.88,5.66,1.18,1.59,2.3,3.09,2.82,3.5.88.69,2.46,1.59,3.6,2.22-1.41-2.32-4.19-6.91-4.95-8.43-.62-1.24-5.11-12.3-4.22-14.69.13-.34.34-.49.5-.56,1.35-.57,3.4,3.03,7.22,10.8.71,1.45,1.33,2.7,1.56,3.05.55.81,2.13,3.35,3.41,5.41-.98-3.2-2.36-7.73-2.53-8.6-.04-.17-.11-.5-.2-.92-1.98-8.82-1.81-10.72-.84-11.03.49-.15,1.78-.58,6.61,13.16.55,1.55,2.07,7,2.73,9.39,1.25-2.63,3.83-7.38,5.65-6.67.18.07.42.23.57.59.84,2.01-2.37,9.74-3.2,11.67,1.09.64,2.33,1.17,3.44,1.65,1.81.78,2.76,1.21,2.98,1.81.07.2.06.4-.02.59-.45.94-5.35,7.24-6.11,7.7-.09.05-.19.08-.31.08ZM8.38,76.67c-.29,1.22,4.49,8.98,6.92,11.18,2.23,2.02,10.34,6.82,10.42,6.86.05.03.1.07.13.12,2.51,3.44,5.79,6.5,6.55,6.64.74-.61,5.14-6.2,5.71-7.26-.22-.31-1.53-.87-2.5-1.29-1.24-.53-2.64-1.14-3.87-1.9-.18-.11-.25-.34-.17-.54,1.6-3.65,3.92-9.96,3.35-11.34-.02-.04-.05-.1-.09-.11-.91-.35-3.35,3.48-5.04,7.29-.07.17-.26.27-.43.25-.18-.01-.33-.14-.38-.32-.02-.08-2.35-8.53-3.03-10.47-2.41-6.86-4.72-12.07-5.56-12.59-.21.37-.3,2.22,1.44,9.98.1.44.17.76.21.94.26,1.29,3.48,11.64,3.51,11.75.06.21-.04.43-.23.52-.2.09-.43.02-.55-.17-.04-.07-4.23-6.87-5.16-8.26-.27-.4-.84-1.55-1.62-3.15-1.38-2.82-5.06-10.3-6.15-10.38-.84.84,2.75,11.17,4.19,14.06.99,1.99,5.69,9.64,5.74,9.72.1.16.08.38-.05.52-.13.14-.34.18-.51.09-.15-.07-3.57-1.84-5.13-3.05-.62-.48-1.72-1.96-2.99-3.67-1.38-1.86-3.92-5.28-4.71-5.43Z" />
    <path class="cls-3"
      d="M98.21,101.55c-1.28,1.04,3.28,9.13,4.34,9.13s3.97-4.88,3.97-4.88c0,0,9.14-1.63,12.11-2.4,1.24-.32,4.23-1.22,6.32-2.92,2.93-2.39,4.76-5.76,3.43-5.98-1.53-.25-4.14,3.39-5.57,4.1-1.43.71-4.62.93-4.62.93,0,0,5.06-3.75,6.38-5.62,1.32-1.86,5.12-8.27,3.98-8.9-1.14-.63-4.88,5.58-7.03,7.4-1.08.91-7.4,4.18-7.4,4.18,0,0,6.71-6.3,7.92-8.5,1.21-2.2,4.95-10.67,2.97-11-1.98-.33-5.27,9.12-7.39,10.97-1.53,1.33-8.78,7.76-8.78,7.42s1.87-14.63.55-14.42c-1.32.21-4.81,18.42-4.81,18.42,0,0-5.09,1.02-6.37,2.07Z" />
    <path class="cls-5"
      d="M102.55,111.12c-1.18,0-3.73-4.63-4.56-6.95-.56-1.58-.58-2.51-.05-2.94h0c1.19-.97,5.11-1.85,6.28-2.1,1.61-8.38,3.79-18.27,5.11-18.48.19-.03.38.03.52.17.52.5.82,2.51-.47,13.73,0,.03,0,.05,0,.08,1.59-1.26,5.43-4.64,7.05-6.07l.92-.81c.84-.73,1.96-2.9,3.04-5,2.02-3.92,3.35-6.29,4.7-6.07.34.06.6.26.75.58,1,2.06-2.84,10-3.42,11.05-.78,1.43-3.71,4.43-5.8,6.48,1.93-1.04,4.08-2.24,4.63-2.7.83-.7,1.94-2.14,3.02-3.52,2.23-2.86,3.53-4.46,4.49-3.92.14.08.33.24.4.56.41,1.81-3.64,8.13-4.23,8.97-.94,1.33-3.64,3.53-5.24,4.77.99-.14,2.22-.37,2.94-.72.49-.24,1.23-.96,1.94-1.66,1.35-1.31,2.74-2.68,3.9-2.48.38.06.66.31.76.68.33,1.23-1.54,4.06-3.99,6.06-2.07,1.69-4.95,2.61-6.49,3.01-2.75.71-10.58,2.13-11.95,2.37-.97,1.61-3.1,4.92-4.24,4.92ZM98.48,101.89s-.12.23-.02.78c.44,2.56,3.43,7.35,4.13,7.6.43-.07,2.08-2.21,3.55-4.67.06-.11.17-.18.29-.2.09-.02,9.16-1.63,12.08-2.39,1.18-.31,4.15-1.19,6.16-2.84,2.13-1.74,3.66-4.04,3.71-5.02,0-.13-.02-.18-.02-.19-.79-.14-2.18,1.23-3.21,2.23-.79.78-1.54,1.51-2.16,1.81-1.49.74-4.65.97-4.78.98-.19.02-.37-.1-.43-.28-.07-.18,0-.38.15-.49.05-.04,5.02-3.73,6.28-5.52,1.79-2.52,4.48-7.58,4.09-8.3-.48.01-2.28,2.34-3.36,3.73-1.11,1.42-2.25,2.89-3.15,3.65-1.1.93-7.22,4.1-7.48,4.23-.19.1-.43.04-.55-.13-.12-.18-.1-.42.06-.56.07-.06,6.67-6.27,7.84-8.39,1.32-2.4,4.04-8.93,3.4-10.26-.04-.09-.08-.1-.12-.11-.82-.13-2.61,3.32-3.8,5.61-1.17,2.27-2.28,4.42-3.24,5.26l-.92.8c-7.85,6.9-7.95,6.85-8.32,6.69-.15-.07-.26-.24-.26-.4,0-.07.02-.23.11-1.04,1.02-8.86,1.01-11.79.83-12.7-.91,1.72-2.86,10.06-4.35,17.83-.03.17-.17.31-.34.34-1.39.28-5.2,1.18-6.19,1.98Z" />
    <path class="cls-3"
      d="M68.59,36.41c-1.28,0-2.14,12.01-1.38,12.29.76.28,7.5-.9,7.5-.9,0,0,7.07,10.82,10.53,9.92,3.46-.9-4.6-9.44-4.6-9.44,0,0,6.07,2.14,11.15,4.37s8.87,4.08,9.54,3.56c.66-.52-5.35-5.8-7.69-6.79-2.34-.98-9.21-3.27-9.21-3.27,0,0,8.92,1.57,12.72,2.99,3.8,1.42,9.35,5.31,10.58,4.46,1.23-.85-6.62-7.76-10.68-8.64-4.06-.88-10.85-2.14-10.85-2.14,0,0,7.96.09,10.62.76,2.66.66,6.6,2.7,7.07,1.99.47-.71-4.62-4.32-9.17-5.22-4.55-.9-16.36-.05-18.31-.09-1.95-1.33-6.55-3.84-7.83-3.84Z" />
    <path class="cls-5"
      d="M84.84,58.19c-3.53,0-9.14-8.14-10.33-9.93-2.19.38-6.69,1.11-7.44.83-1.18-.44-.16-8.75.1-10.17.44-2.45.89-2.95,1.43-2.95,1.48,0,6.2,2.67,7.96,3.84.54,0,1.63-.04,2.98-.1,4.43-.18,11.84-.48,15.28.2,4.03.8,8.92,3.88,9.47,5.21.14.33.04.56-.03.67-.46.69-1.7.26-4.24-.7-1.13-.43-2.3-.87-3.29-1.12-1.05-.26-2.98-.44-4.91-.55,1.83.36,3.79.75,5.34,1.09,3.66.79,10.72,6.52,11.12,8.58.1.5-.17.75-.29.84-.93.64-2.86-.33-6.21-2.1-1.64-.87-3.33-1.77-4.77-2.31-1.57-.59-4.05-1.21-6.4-1.72,1.28.46,2.46.9,3.2,1.21,2.17.92,7.82,5.66,8,6.97.03.22-.05.42-.21.55-.7.55-2.43-.15-7.59-2.45-.75-.34-1.55-.69-2.38-1.06-3.43-1.51-7.36-2.98-9.51-3.77,1.8,2.07,4.9,5.99,4.36,7.85-.1.36-.38.83-1.12,1.02-.17.04-.34.06-.52.06ZM74.71,47.36c.14,0,.28.07.36.2,1.92,2.94,7.46,10.4,10.06,9.74.37-.1.47-.28.51-.42.43-1.5-3.03-5.89-5.32-8.31-.14-.14-.16-.36-.05-.53.11-.17.32-.24.5-.17.06.02,6.15,2.17,11.18,4.38.83.37,1.63.72,2.39,1.06,2.72,1.21,5.53,2.46,6.48,2.56-.81-1.22-5.32-5.19-7.36-6.05-2.3-.97-9.11-3.24-9.17-3.26-.21-.07-.34-.3-.28-.51.06-.22.27-.36.49-.32.37.06,9,1.59,12.79,3.01,1.49.56,3.21,1.47,4.87,2.35,1.95,1.04,4.61,2.44,5.26,2.19-.11-1.26-6.71-7.08-10.47-7.89-4-.87-10.77-2.12-10.84-2.13-.22-.04-.37-.24-.35-.47.02-.22.19-.42.43-.39.33,0,8.04.1,10.72.77,1.04.26,2.23.71,3.39,1.15,1.07.41,2.49.94,3.08.99-.72-.97-4.8-3.74-8.75-4.52-3.34-.66-10.69-.36-15.08-.18-1.54.06-2.64.11-3.16.1-.08,0-.16-.03-.23-.07-2.04-1.39-6.31-3.67-7.52-3.77-.9.94-1.62,10.09-1.19,11.47.76.07,4.15-.41,7.16-.94.03,0,.05,0,.07,0Z" />
    <path class="cls-7"
      d="M14.99,118.67c-.06,0-.11-.01-.17-.03-.33-.14-8.08-3.41-10.36-7.5-.76-1.37-1.31-3.48-.56-5.32.54-1.32,1.68-2.28,3.3-2.75.38-.11.77-.17,1.15-.17,2.79,0,4.86,2.91,5.76,4.46.63-1.77,2.26-5.24,5.3-5.24.63,0,1.29.16,1.95.46,1.49.68,2.39,1.72,2.69,3.09.66,3.06-1.96,6.39-2.78,7.34-2.66,3.08-5.99,5.56-6.03,5.59-.08.06-.17.08-.26.08Z" />
    <path class="cls-5"
      d="M19.42,102.54c.54,0,1.13.13,1.77.42,4.32,1.99,2.36,6.75-.24,9.75-2.66,3.08-5.96,5.52-5.96,5.52,0,0-7.92-3.31-10.15-7.31-1.34-2.4-1.54-6.26,2.49-7.45.35-.1.7-.15,1.03-.15,3.48,0,5.86,5.13,5.86,5.13,0,0,1.5-5.92,5.19-5.92h0ZM19.42,101.68c-2.86,0-4.55,2.78-5.38,4.73-1.1-1.66-3.09-3.94-5.67-3.94-.43,0-.85.06-1.27.19-2.21.65-3.17,1.99-3.58,3-.81,1.98-.23,4.24.58,5.69,2.35,4.22,10.24,7.55,10.57,7.69.11.04.22.07.33.07.18,0,.36-.06.51-.17.14-.1,3.4-2.54,6.1-5.65.85-.99,3.58-4.45,2.87-7.71-.32-1.48-1.33-2.65-2.93-3.39-.72-.33-1.44-.5-2.13-.5h0Z" />
    <path class="cls-6"
      d="M21.19,102.96c-4.99-2.29-6.96,5.5-6.96,5.5,0,0-2.87-6.17-6.89-4.98-4.03,1.18-3.83,5.04-2.49,7.45.99,1.77,3.09,3.41,5.13,4.68-3.01-2.32-6.18-7.2-4.53-9.8,3.29-5.17,8.81,3.27,8.81,3.27,0,0,.9-4.21,4.35-5.93,2.51-.81,4.27,1.45,4.69,1.69-.39-.74-1.06-1.39-2.11-1.87Z" />
    <path class="cls-7"
      d="M70.35,28.93c-.08,0-.16-.02-.23-.07-.46-.29-11.38-7.24-13.78-13.98-.8-2.23-1.08-5.51.49-8.05,1.13-1.82,3.05-2.94,5.57-3.24.25-.03.5-.05.75-.05,5.05,0,7.74,6.18,8.62,8.69,1.14-2.15,4.2-7.05,8.49-7.05,1.24,0,2.48.42,3.7,1.25,2.03,1.38,3.11,3.13,3.2,5.21.18,3.76-3,7.78-6.03,10.29-4.83,3.99-10.53,6.92-10.58,6.95-.06.03-.13.05-.2.05Z" />
    <path class="cls-5"
      d="M63.15,3.98c5.95,0,8.54,9.41,8.54,9.41,0,0,3.43-7.77,8.58-7.77,1.08,0,2.24.34,3.46,1.17,6.08,4.14,1.87,10.9-2.86,14.81-4.85,4.01-10.5,6.9-10.5,6.9,0,0-11.22-7.08-13.6-13.76-1.43-4.01-.74-9.95,5.71-10.72.24-.03.47-.04.69-.04h0ZM63.15,3.12h0c-.26,0-.53.02-.8.05-2.66.32-4.69,1.51-5.89,3.44-1.65,2.67-1.35,6.1-.52,8.42,2.45,6.88,13.49,13.9,13.96,14.2.14.09.3.13.46.13.13,0,.27-.03.39-.09.23-.12,5.8-2.98,10.66-7,1.51-1.25,6.42-5.71,6.19-10.64-.1-2.22-1.24-4.09-3.39-5.55-1.29-.88-2.61-1.32-3.94-1.32-4.02,0-6.98,4.02-8.41,6.47-1.17-2.92-3.91-8.1-8.7-8.1h0Z" />
    <path class="cls-6"
      d="M83.72,6.79c-7.02-4.78-12.03,6.6-12.03,6.6,0,0-2.79-10.14-9.23-9.36-6.45.77-7.13,6.71-5.71,10.72,1.05,2.96,3.84,5.99,6.62,8.45-4-4.31-7.58-12.57-4.39-16.11,6.34-7.04,12.6,7.25,12.6,7.25,0,0,2.45-6.19,8.15-7.94,4.04-.59,6.15,3.3,6.72,3.79-.4-1.23-1.26-2.39-2.74-3.39Z" />
    <path class="cls-7"
      d="M125.22,65.78c-.07,0-.14-.02-.2-.05-.36-.19-8.92-4.8-11.09-9.74-.72-1.64-1.12-4.11-.07-6.13.76-1.45,2.16-2.41,4.06-2.78.3-.06.6-.09.9-.09,3.5,0,5.72,3.97,6.58,5.87.84-1.83,2.96-5.58,6.25-5.58.85,0,1.72.25,2.58.75,1.62.94,2.54,2.22,2.73,3.8.43,3.57-2.94,7.1-3.98,8.1-3.4,3.25-7.5,5.75-7.54,5.77-.07.04-.15.06-.22.06Z" />
    <path class="cls-5"
      d="M118.82,47.43c4.25,0,6.58,6.57,6.58,6.57,0,0,2.24-6.27,6.26-6.27.73,0,1.52.21,2.36.7,4.76,2.76,1.99,8.03-1.33,11.21-3.4,3.26-7.47,5.72-7.47,5.72,0,0-8.76-4.67-10.9-9.53-1.28-2.91-1.09-7.38,3.68-8.31.28-.05.55-.08.82-.08h0ZM118.82,46.57h0c-.32,0-.65.03-.98.1-2.03.39-3.54,1.43-4.36,3-1.12,2.15-.71,4.77.06,6.5,2.23,5.07,10.91,9.75,11.28,9.94.13.07.27.1.41.1.15,0,.31-.04.45-.12.17-.1,4.18-2.55,7.61-5.83,1.08-1.03,4.56-4.69,4.11-8.46-.2-1.7-1.22-3.12-2.94-4.12-.93-.54-1.87-.81-2.8-.81-3.09,0-5.19,3-6.25,5.03-1.1-2.12-3.3-5.33-6.58-5.33h0Z" />
    <path class="cls-6"
      d="M134.02,48.42c-5.5-3.18-8.62,5.58-8.62,5.58,0,0-2.63-7.41-7.4-6.49-4.77.93-4.96,5.39-3.68,8.31.32.72.79,1.45,1.35,2.15-.31-.2-3.92-6.83,1.58-8.92,5.5-2.09,8.13,6.44,8.13,6.44,0,0,2.45-5.86,5.81-6.85,3.37-.99,4.98,2.14,5.04,2.17-.37-.9-1.07-1.72-2.23-2.38Z" />
    <path class="cls-7"
      d="M101.53,128.47c-.07,0-.14-.02-.2-.05-.28-.15-6.93-3.73-8.63-7.58-.57-1.29-.88-3.24-.05-4.83.6-1.15,1.71-1.91,3.21-2.2.24-.05.48-.07.72-.07,2.65,0,4.36,2.87,5.09,4.41.71-1.49,2.35-4.19,4.84-4.19.67,0,1.36.2,2.05.6,1.28.74,2.01,1.75,2.16,3.01.34,2.81-2.29,5.57-3.11,6.35-2.64,2.52-5.72,4.4-5.85,4.48-.07.04-.15.06-.22.06Z" />
    <path class="cls-5"
      d="M96.57,114.18c3.29,0,5.09,5.08,5.09,5.08,0,0,1.73-4.86,4.84-4.86.56,0,1.18.16,1.83.54,3.69,2.13,1.54,6.22-1.03,8.67-2.63,2.52-5.78,4.42-5.78,4.42,0,0-6.78-3.62-8.43-7.37-.99-2.25-.84-5.71,2.84-6.43.22-.04.43-.06.63-.06h0ZM96.57,113.32h0c-.26,0-.53.03-.8.08-2.06.4-3.05,1.54-3.51,2.42-.9,1.72-.57,3.82.04,5.2,1.76,3.98,8.53,7.63,8.82,7.79.13.07.27.1.41.1.15,0,.31-.04.45-.12.13-.08,3.26-1.98,5.93-4.54.85-.81,3.6-3.7,3.24-6.71-.17-1.38-.98-2.53-2.37-3.33-.75-.43-1.51-.65-2.26-.65-2.33,0-3.95,2.09-4.84,3.68-.92-1.66-2.62-3.91-5.1-3.91h0Z" />
    <path class="cls-1"
      d="M108.34,114.94c-4.25-2.46-6.67,4.32-6.67,4.32,0,0-2.04-5.74-5.73-5.02-3.69.72-3.84,4.17-2.84,6.43.19.43.46.86.77,1.29.24-.59-1.84-4.51,1.43-6.16,4.42-2.24,6.46,4.73,6.58,4.55.13-.18,1.24-3.58,3.24-4.79,1.51-.91,3.49-.4,4.68,2.03.24.48.41,1.44.17,2.23.68-1.81.47-3.65-1.63-4.86Z" />
    <path class="cls-7"
      d="M49.41,167.17c-.07,0-.14-.02-.2-.05-.28-.15-6.93-3.73-8.63-7.58-.57-1.29-.88-3.24-.05-4.83.6-1.15,1.71-1.91,3.21-2.2.24-.05.48-.07.72-.07,2.65,0,4.36,2.87,5.09,4.41.71-1.49,2.35-4.19,4.84-4.19.67,0,1.36.2,2.05.6,1.28.74,2.01,1.75,2.16,3.01.34,2.81-2.29,5.57-3.11,6.35-2.64,2.52-5.72,4.4-5.85,4.48-.07.04-.15.06-.22.06Z" />
    <path class="cls-5"
      d="M44.45,152.88c3.29,0,5.09,5.08,5.09,5.08,0,0,1.73-4.86,4.84-4.86.56,0,1.18.16,1.83.54,3.69,2.13,1.54,6.22-1.03,8.67-2.63,2.52-5.78,4.42-5.78,4.42,0,0-6.78-3.62-8.43-7.37-.99-2.25-.84-5.71,2.84-6.43.22-.04.43-.06.63-.06h0ZM44.45,152.02h0c-.26,0-.53.03-.8.08-2.06.4-3.05,1.54-3.51,2.42-.9,1.72-.57,3.82.04,5.2,1.76,3.98,8.53,7.63,8.82,7.79.13.07.27.1.41.1.15,0,.31-.04.45-.12.13-.08,3.26-1.98,5.93-4.54.85-.81,3.6-3.7,3.24-6.71-.17-1.38-.98-2.53-2.37-3.33-.75-.43-1.51-.65-2.26-.65-2.33,0-3.95,2.09-4.84,3.68-.92-1.66-2.62-3.91-5.1-3.91h0Z" />
    <path class="cls-1"
      d="M56.22,153.64c-4.25-2.46-6.67,4.32-6.67,4.32,0,0-2.04-5.74-5.73-5.02-3.69.72-3.84,4.17-2.84,6.43.19.43.46.86.77,1.29.24-.59-1.84-4.51,1.43-6.16,4.42-2.24,6.46,4.73,6.58,4.55.13-.18,1.24-3.58,3.24-4.79,1.51-.91,3.49-.4,4.68,2.03.24.48.41,1.44.17,2.23.68-1.81.47-3.65-1.63-4.86Z" />
    <path class="cls-7"
      d="M99.17,193.13c-.07,0-.14-.02-.2-.05-.28-.15-6.93-3.73-8.63-7.58-.57-1.29-.88-3.24-.05-4.83.6-1.15,1.71-1.91,3.21-2.2.24-.05.48-.07.72-.07,2.65,0,4.36,2.87,5.09,4.41.71-1.49,2.35-4.19,4.84-4.19.67,0,1.36.2,2.05.6,1.28.74,2.01,1.75,2.16,3.01.34,2.81-2.29,5.57-3.11,6.35-2.64,2.52-5.72,4.4-5.85,4.48-.07.04-.15.06-.22.06Z" />
    <path class="cls-5"
      d="M94.22,178.83c3.29,0,5.09,5.08,5.09,5.08,0,0,1.73-4.86,4.84-4.86.56,0,1.18.16,1.83.54,3.69,2.13,1.54,6.22-1.03,8.67-2.63,2.52-5.78,4.42-5.78,4.42,0,0-6.78-3.62-8.43-7.37-.99-2.25-.84-5.71,2.84-6.43.22-.04.43-.06.63-.06h0ZM94.22,177.97h0c-.26,0-.53.03-.8.08-2.06.4-3.05,1.54-3.51,2.42-.9,1.72-.57,3.82.04,5.2,1.76,3.98,8.53,7.63,8.82,7.79.13.07.27.1.41.1.15,0,.31-.04.45-.12.13-.08,3.26-1.98,5.93-4.54.85-.81,3.6-3.7,3.24-6.71-.17-1.38-.98-2.53-2.37-3.33-.75-.43-1.51-.65-2.26-.65-2.33,0-3.95,2.09-4.84,3.68-.92-1.66-2.62-3.91-5.1-3.91h0Z" />
    <path class="cls-1"
      d="M105.98,179.6c-4.25-2.46-6.67,4.32-6.67,4.32,0,0-2.04-5.74-5.73-5.02-3.69.72-3.84,4.17-2.84,6.43.19.43.46.86.77,1.29.24-.59-1.84-4.51,1.43-6.16,4.42-2.24,6.46,4.73,6.58,4.55.13-.18,1.24-3.58,3.24-4.79,1.51-.91,3.49-.4,4.68,2.03.24.48.41,1.44.17,2.23.68-1.81.47-3.65-1.63-4.86Z" />
    <path class="cls-7"
      d="M96.97,39.5c-.07,0-.14-.02-.2-.05-.28-.15-6.93-3.73-8.63-7.58-.57-1.29-.88-3.24-.05-4.83.6-1.15,1.71-1.91,3.21-2.2.24-.05.48-.07.72-.07,2.65,0,4.36,2.87,5.09,4.41.71-1.49,2.35-4.19,4.84-4.19.67,0,1.36.2,2.05.6,1.28.74,2.01,1.75,2.16,3.01.34,2.81-2.29,5.57-3.11,6.35-2.64,2.52-5.72,4.4-5.85,4.48-.07.04-.15.06-.22.06Z" />
    <path class="cls-5"
      d="M92.01,25.21c3.29,0,5.09,5.08,5.09,5.08,0,0,1.73-4.86,4.84-4.86.56,0,1.18.16,1.83.54,3.69,2.13,1.54,6.22-1.03,8.67-2.63,2.52-5.78,4.42-5.78,4.42,0,0-6.78-3.62-8.43-7.37-.99-2.25-.84-5.71,2.84-6.43.22-.04.43-.06.63-.06h0ZM92.01,24.35h0c-.26,0-.53.03-.8.08-2.06.4-3.05,1.54-3.51,2.42-.9,1.72-.57,3.82.04,5.2,1.76,3.98,8.53,7.63,8.82,7.79.13.07.27.1.41.1.15,0,.31-.04.45-.12.13-.08,3.26-1.98,5.93-4.54.85-.81,3.6-3.7,3.24-6.71-.17-1.38-.98-2.53-2.37-3.33-.75-.43-1.51-.65-2.26-.65-2.33,0-3.95,2.09-4.84,3.68-.92-1.66-2.62-3.91-5.1-3.91h0Z" />
    <path class="cls-1"
      d="M103.77,25.97c-4.25-2.46-6.67,4.32-6.67,4.32,0,0-2.04-5.74-5.73-5.02-3.69.72-3.84,4.17-2.84,6.43.56,1.28,1.73,2.54,3.01,3.65-1.75-1.74-4.02-6.64-.82-8.74,3.2-2.1,6.37,4.48,6.37,4.48.16-.35,1.97-4.52,4.54-5.17,1.52-.38,4.1,1.26,4.05,3.83.22-1.44-.24-2.8-1.91-3.77Z" />
    <path class="cls-7"
      d="M34.9,47.3s-.09,0-.13-.02c-.5-.16-12.33-4.09-16.16-9.83-1.27-1.9-2.31-4.91-1.44-7.65.63-1.97,2.17-3.47,4.46-4.34.68-.26,1.38-.39,2.08-.39,4.08,0,7.41,4.31,8.69,6.25.63-2.54,2.66-8.72,7.62-8.72.77,0,1.58.15,2.41.46,2.22.82,3.64,2.21,4.22,4.13,1.05,3.48-.98,7.98-3.23,11.04-3.58,4.87-8.21,8.93-8.26,8.97-.08.07-.18.11-.28.11Z" />
    <path class="cls-5"
      d="M40.03,23.02c.69,0,1.45.13,2.27.43,6.65,2.44,4.3,9.74.8,14.51-3.59,4.88-8.19,8.9-8.19,8.9,0,0-12.14-3.98-15.93-9.66-2.27-3.41-3.02-9.12,2.82-11.35.66-.25,1.3-.36,1.93-.36,4.97,0,8.89,6.95,8.89,6.95,0,0,1.61-9.42,7.43-9.42h0ZM40.03,22.16c-4.73,0-6.93,5.19-7.8,8.15-1.59-2.18-4.72-5.68-8.52-5.68-.76,0-1.51.14-2.24.42-2.42.92-4.05,2.52-4.71,4.61-.92,2.89.16,6.03,1.49,8.02,3.91,5.86,15.87,9.84,16.38,10,.09.03.18.04.27.04.21,0,.41-.07.57-.21.19-.17,4.72-4.14,8.32-9.04,1.12-1.52,4.67-6.85,3.29-11.42-.62-2.06-2.13-3.54-4.49-4.41-.88-.32-1.74-.49-2.56-.49h0Z" />
    <path class="cls-1"
      d="M42.3,23.46c-7.67-2.82-9.69,8.98-9.69,8.98,0,0-4.98-8.82-10.82-6.58-5.84,2.23-5.09,7.94-2.82,11.35,1.79,2.68,5.45,4.99,8.8,6.67-8.27-4.28-11.66-12.28-6.89-16.36,5.38-4.03,11.99,5.93,11.99,5.93,0,0,1.54-6.72,5.85-9.3,1.96-.78,4.74-.16,6.63,1.4-.68-.86-1.66-1.58-3.05-2.09Z" />
    <path class="cls-6" d="M84.15,48.62s-2.07-.4-5.37-.9c3.41.38,5.37.9,5.37.9Z" />
  </g>
</svg>