<?xml version="1.0" encoding="UTF-8"?>
<svg id="Capa_2" xmlns="http://www.w3.org/2000/svg" xmlns:xlink="http://www.w3.org/1999/xlink"
  viewBox="0 0 284.72 155.61">
  <defs>
    <style>
      .cls-1 {
        fill: aqua;
      }

      .cls-2 {
        fill: #fff;
      }

      .cls-3 {
        filter: none;
      }

      .cls-4 {
        fill: #862291;
      }

      .cls-5 {
        fill: #1b1464;
      }

      .cls-6 {
        fill: #fcee21;
      }

      .cls-7 {
        fill: #ed1e79;
      }

      .cls-8 {
        fill: #3d89f6;
      }
    </style>
  </defs>
  <g id="_0">
    <g class="cls-3">
      <path class="cls-2"
        d="M284.45,37.12c-.57-1.55-1.94-2.62-3.58-2.79l-3.24-.34-1.55-2.86c-.78-1.43-2.29-2.32-3.94-2.24-1.65.06-3.09,1.04-3.76,2.54l-1.21,2.71c-6.77-3.93-15.65-7.48-26.4-10.55-.84-.24-1.71-.48-2.6-.72.13-.57.23-1.15.29-1.73.27-2.38-.02-4.7-.84-6.86-.36-1.07-1.71-4.79-4.18-7.64-1.69-1.96-3.91-3.43-6.36-4.22-.27-.1-.54-.19-.76-.23-.68-.19-1.31-.32-1.91-.4l-.2-.02c-1.38-.17-2.8-.15-4.17.06-.25.03-.5.07-.68.12-2.77.53-5.37,1.8-7.51,3.65-1.84,1.59-3.32,3.59-4.26,5.74-.08.16-.15.32-.19.43-.62,1.51-.99,3.08-1.11,4.68-6.18-.89-12.65-1.65-19.24-2.25l-3.31-.3c-.34-.03-.69-.02-1.02.05-.22-.16-.45-.31-.68-.47-12.52-8.54-29.47-13.44-46.5-13.44-13.3,0-25.83,5.02-35.27,14.13-.19.19-.38.37-.57.56-.17,0-.32,0-.48.02l-2.58.29c-5.95.67-11.79,1.48-17.36,2.39-1.01-3.39-3.09-6.27-5.95-8.18-.51-.34-2.09-1.35-3.35-2.15-.17-.11-.33-.22-.48-.3-.19-.12-.39-.23-.54-.3-.76-.4-1.5-.72-2.26-.97-3.8-1.24-8.03-.8-11.61,1.19-3.5,1.95-6.14,5.18-7.41,9.09-.96,2.94-1.07,6-.34,8.92-11.25,3.48-20.21,7.5-26.63,11.97-1.01.7-1.97,1.43-2.87,2.16-.07,0-.12,0-.17.01-.18,0-.37.02-.53.04-.33.04-.69.09-1.05.16-1.9.29-3.1.49-3.56.57-4.04.72-7.67,3.19-9.94,6.74-.1.14-.19.28-.24.38-1.25,2.07-2.04,4.45-2.28,6.86-.28,2.83.19,5.68,1.32,8.2.09.23.19.45.29.62.67,1.35,1.52,2.58,2.53,3.66l.08.08s.08.09.1.1c.37.38.77.75,1.16,1.07.23.22.48.42.69.55,2.1,1.56,4.57,2.52,7.12,2.77.92.09,1.91.1,2.95.03,1.31,1.2,2.78,2.36,4.39,3.48.95.66,1.97,1.32,3.05,1.97.07,1.26.63,2.44,1.6,3.31l2.21,1.99-.39,2.95c-.24,1.84.57,3.63,2.11,4.66,1.52,1.02,3.53,1.09,5.11.17l2.58-1.49,2.68,1.28c1.63.78,3.67.55,5.08-.57.84-.66,1.43-1.58,1.69-2.59,1.53.48,3.1.96,4.69,1.41,9.08,2.59,19.26,4.79,30.28,6.52.16.77.3,2.51.25,3.6-.05,1.08-.09,2-.1,2.87-.25,11.37,2.46,21.49,8.07,30.06,4.6,7.03,11.02,12.87,19.08,17.35,9.76,5.43,20.96,7.96,35.23,7.96,1.05,0,2.15-.01,3.23-.04,3.54-.07,6.75-.25,9.82-.56,2.2-.22,4.03-1.73,4.65-3.86.62-2.13-.11-4.38-1.86-5.76-.41-.33-4.15-3.27-7.9-6.59-1.22-1.07-2.3-2.07-3.26-2.99,6.83-1.04,16.73-1.56,29.5-1.56,9.5,0,17,.31,17.31.33,1.96.08,3.79-.88,4.82-2.54,4.35-7,6.9-15.55,7.57-25.4.22-3.21.25-6.4.11-9.5l-.02-.41c-.03-.51-.1-1.89-.02-2.57,12.06-1.8,23.13-4.13,32.91-6.92,4.28-1.22,8.32-2.54,12.02-3.92,1.13.92,2.36,1.67,3.65,2.22.12.05.23.1.32.13.64.26,1.3.47,1.9.62.25.08.51.14.67.16,2.56.53,5.09.37,7.54-.46,3.78-1.29,7.12-4.18,7.5-4.52,4.33-3.54,6.32-9.45,5.16-15.15,2.53-3.46,3.81-7.13,3.81-10.91,0-2.22-.45-4.44-1.35-6.59.11-.56.1-1.14-.02-1.71l-.68-3.19,2.25-2.37c1.13-1.19,1.48-2.9.92-4.44Z" />
      <path class="cls-6"
        d="M134.01,68.86c-15.3,0-31.62-2.28-47.19-6.58-.37-.1-.62-.45-.6-.83,2.01-41.98,27.83-56.88,49.33-56.88,16.14,0,32.14,4.61,43.92,12.65,14.73,10.05,22.99,25.27,23.87,44.01.02.37-.21.7-.56.82-18.9,6.31-39.04,6.82-61.5,6.82,0,0-7.27,0-7.27,0Z" />
      <path class="cls-5"
        d="M135.56,5.39c28.51,0,65.02,14.72,66.96,55.88-19.3,6.44-40.63,6.78-61.24,6.78-2.43,0-4.86,0-7.27,0-15.62,0-31.71-2.33-46.97-6.55,1.97-41.15,27.14-56.1,48.51-56.1h.01ZM135.56,3.75h-.01c-12.32,0-23.93,4.65-32.67,13.08-5.02,4.84-9.04,10.87-11.95,17.91-3.19,7.72-5.05,16.69-5.53,26.67-.04.77.46,1.45,1.2,1.66,15.64,4.32,32.03,6.61,47.41,6.61,1.2,0,2.41,0,3.61,0,1.21,0,2.43,0,3.65,0,20.49,0,40.4-.47,58.54-5.85,1.08-.32,2.24-.46,3.31-.82.7-.23,1.07-.13,1.03-.86-.01-.29-.03-1.55-.05-1.84-.57-9.68-3.07-18.41-7.44-25.97-4.04-7-9.68-12.99-16.74-17.81-11.91-8.13-28.08-12.79-44.37-12.79h0Z" />
      <path class="cls-1"
        d="M135.55,5.39c-8.79,0-18.21,2.53-26.4,8.36,20.34-6.99,44.52-2.53,63.01,7.39,23.6,12.67,24.77,25.47,29.81,40.32.19-.06.37-.12.56-.19-1.93-41.16-38.46-55.89-66.97-55.88Z" />
      <path class="cls-7"
        d="M143.22,68.05c-1.21-10.19-6.04-21.29-11.29-25.48-11.92-9.53-17.14,4.24-17.14,4.24l8.68,20.89c3.52.23,7.04.35,10.53.35,3.05,0,6.13,0,9.21,0Z" />
      <path class="cls-7"
        d="M179.86,40.62c-3.94-3.06-9.66-2.26-11.94.79-3.43,4.61-3,12.34-3,12.34l11.91,12.88c5.45-.6,10.85-1.46,16.13-2.69-.51-7.36-3.62-15.97-13.1-23.33Z" />
      <path class="cls-7"
        d="M97.27,26.18c-5.65,8.6-9.51,20.18-10.24,35.31,1.39.38,2.79.75,4.19,1.1-1.24-12.2.95-24.8,6.04-36.41Z" />
      <path class="cls-4"
        d="M171.63,41.71c-.6.18-1.2.46-1.77.86,6.22,1.54,12.2,7.65,14.57,19.89.21,1.06.37,2.08.52,3.07,1.87-.31,3.72-.65,5.57-1.04-2.68-16.13-11.95-24.81-18.88-22.79Z" />
      <path class="cls-4"
        d="M120.46,41.72c-.63.19-1.26.49-1.86.91,6.56,1.63,12.87,8.07,15.36,20.98.3,1.54.53,3.02.7,4.43,2.01,0,4.02,0,6.05,0-.02-.18-.04-.35-.06-.53-2.42-18.14-12.62-28-20.18-25.8Z" />
      <path class="cls-5"
        d="M118.59,42.63c-3.99,2.77-6.99,10.72-3.91,24.27,6.46.75,12.93,1.14,19.33,1.14.22,0,.43,0,.65,0-.17-1.41-.4-2.89-.7-4.43-2.5-12.91-8.81-19.35-15.36-20.98Z" />
      <path class="cls-6"
        d="M127.11,54.41c0,2.59-2.1,4.68-4.68,4.68s-4.68-2.1-4.68-4.68,2.1-4.68,4.68-4.68,4.68,2.1,4.68,4.68Z" />
      <path class="cls-5"
        d="M140.71,68.59h-6.7c-6.32,0-12.85-.39-19.39-1.15-.23-.03-.42-.2-.47-.42-3.18-13.99.05-22,4.13-24.84.63-.44,1.31-.78,2.02-.99,0,0,0,0,0,0,2.63-.77,5.54-.19,8.39,1.67,6.31,4.11,10.98,13.3,12.48,24.58l.06.53c.02.16-.03.31-.13.43-.1.12-.25.18-.41.18ZM115.13,66.4c6.37.72,12.72,1.09,18.88,1.09h6.08c-1.46-10.77-6.05-19.85-11.99-23.72-2.58-1.68-5.17-2.21-7.49-1.53-.6.18-1.17.46-1.7.83-3.76,2.61-6.7,10.1-3.78,23.32Z" />
      <path class="cls-5"
        d="M184.43,62.46c-2.37-12.24-8.35-18.35-14.57-19.89-3.96,2.76-6.9,10.91-3.24,24.92,6.17-.36,12.3-.97,18.32-1.96-.14-.99-.31-2.01-.52-3.07Z" />
      <path class="cls-5"
        d="M166.62,68.04c-.25,0-.46-.17-.53-.41-3.76-14.42-.68-22.63,3.46-25.51.6-.42,1.25-.74,1.93-.94,0,0,0,0,0,0,2.44-.71,5.13-.21,7.78,1.46,5.72,3.59,10.12,11.73,11.79,21.76.05.29-.14.56-.43.62-7.12,1.49-14.96,2.48-23.97,3.01-.01,0-.02,0-.03,0ZM171.78,42.23c-.56.17-1.1.43-1.61.79-3.63,2.52-6.59,10.28-3.14,23.9,8.56-.52,16.04-1.46,22.85-2.85-1.68-9.49-5.85-17.13-11.21-20.5-2.38-1.49-4.76-1.96-6.89-1.34Z" />
      <circle class="cls-6" cx="172.27" cy="53.89" r="4.62" transform="translate(-4.77 18.71) rotate(-6.13)" />
      <path class="cls-6"
        d="M143.92,151.04c-13.46,0-23.95-2.35-33.01-7.38-11.61-6.45-25.34-19.21-24.8-43.32.02-.93.06-1.85.1-2.76.01-.25.14-.48.34-.62.14-.1.31-.16.48-.16.07,0,.15,0,.22.03,15.43,4.27,31.6,6.52,46.76,6.52h7.26c22.32,0,42.32-.5,60.99-6.73.08-.03.17-.04.26-.04.16,0,.33.05.46.14.21.15.34.38.36.64.14,2.91.1,5.93-.1,8.97-.62,9.1-2.93,16.94-6.89,23.3-.15.24-.41.39-.7.39-.01,0-.02,0-.04,0-.08,0-7.78-.33-17.51-.33-12.86,0-29.81.57-37.56,3.28-.04.01-.07.02-.09.03-.12,1.75,8.37,9.63,16.5,16,.26.21.38.55.28.87-.09.32-.37.55-.71.59-2.96.29-6.06.47-9.48.54-1.06.03-2.11.04-3.13.04Z" />
      <path class="cls-5"
        d="M202.52,97.4c.13,2.83.1,5.79-.1,8.88-.65,9.58-3.12,17.06-6.76,22.92,0,0-7.69-.33-17.55-.33-13.09,0-30.01.59-37.83,3.33-4.48,1.27,16.17,17.45,16.17,17.45-3.35.33-6.54.47-9.42.53-1.05.03-2.09.04-3.11.04-13.1,0-23.5-2.21-32.61-7.28-12.82-7.13-24.88-20.25-24.38-42.58.02-.93.06-1.83.1-2.74,15.27,4.22,31.35,6.55,46.97,6.55,2.41,0,4.83,0,7.27,0,20.62,0,41.95-.34,61.24-6.78h0ZM202.52,95.76c-.17,0-.35.03-.52.08-18.55,6.19-38.48,6.69-60.72,6.69-1.22,0-2.44,0-3.65,0-1.21,0-2.41,0-3.62,0-15.09,0-31.18-2.24-46.54-6.49-.14-.04-.29-.06-.44-.06-.34,0-.68.11-.96.31-.4.29-.65.75-.68,1.25-.05,1.05-.08,1.93-.1,2.78-.24,10.6,2.27,20,7.46,27.93,4.26,6.52,10.24,11.94,17.76,16.12,9.18,5.11,19.8,7.48,33.4,7.48,1.02,0,2.08-.01,3.15-.04,3.43-.07,6.56-.25,9.54-.54.67-.07,1.23-.53,1.41-1.17.19-.64-.04-1.33-.56-1.75-.04-.03-4.05-3.18-8.08-6.74-5.5-4.86-7.27-7.15-7.84-8.11,6.31-1.96,18.91-3,36.56-3,9.71,0,17.4.33,17.48.33.02,0,.05,0,.07,0,.56,0,1.09-.29,1.39-.77,4.03-6.47,6.38-14.44,7.01-23.68.21-3.08.24-6.13.11-9.07-.02-.51-.29-.98-.71-1.27-.28-.19-.6-.29-.93-.29h0Z" />
      <path class="cls-7"
        d="M143.37,117.16c1.32.53-1.41,16.52-15.09,13.35-13.68-3.17-12.79-16.78-12-16.78s2.52,12.78,12.79,13.22c14.44.61,12.98-10.31,14.3-9.78Z" />
      <path class="cls-7"
        d="M188.89,122.32c0-.9-8.81,5.22-15.42-.32-6.61-5.54-7.53-15.13-8.19-15.13s-1.57,12.26,6.88,17.62c10.14,6.43,16.73-1.27,16.73-2.17Z" />
      <path class="cls-7"
        d="M134.01,104.17c-3.49,0-7.01-.12-10.53-.35l8.46,20.36c9.95,0,12.54-9.52,11.29-20.01-3.09,0-6.16,0-9.21,0Z" />
      <path class="cls-7" d="M176.84,102.77l13.11,14.18s3.66-7.4,3.01-16.87c-5.28,1.22-10.67,2.08-16.13,2.69Z" />
      <path class="cls-7"
        d="M106.14,133.17c-8.87-10.09-13.66-22.05-14.91-34.44-1.4-.35-2.8-.72-4.19-1.1-.04.9-.08,1.81-.1,2.74-.5,22.34,11.56,35.45,24.38,42.58,8.66,4.82,18.49,7.05,30.7,7.26-13.74-1.77-26.42-6.17-35.87-17.03Z" />
      <path class="cls-4"
        d="M190.51,100.62c-1.84.39-3.7.73-5.57,1.04,1.63,11.49-1.07,18.59-8.29,19.04,1.8.94,3.41,1.07,4.54,1.06,6.57-.06,11.56-4.5,9.57-19.47-.08-.57-.16-1.12-.25-1.68Z" />
      <path class="cls-4"
        d="M125.76,123.07c1.9.99,3.6,1.13,4.79,1.12,6.85-.06,12.07-4.65,10.16-20.01-2.02,0-4.04,0-6.05,0,1.37,11.41-1.54,18.43-8.9,18.89Z" />
      <path class="cls-5"
        d="M114.68,103.03c.2.88.43,1.79.68,2.72,3.04,11.1,7.05,15.55,10.4,17.31,7.36-.46,10.26-7.48,8.9-18.89-.22,0-.43,0-.65,0-6.39,0-12.87-.39-19.33-1.14Z" />
      <path class="cls-5"
        d="M130.42,124.73c-1.18,0-2.93-.14-4.91-1.18-4.53-2.38-8.12-8.32-10.68-17.65-.25-.91-.48-1.84-.69-2.74-.04-.17,0-.35.13-.49.12-.13.29-.2.47-.18,6.5.75,12.98,1.14,19.26,1.14h6.7c.28,0,.51.21.54.48,1.02,8.22.08,14.07-2.82,17.38-1.86,2.12-4.51,3.21-7.88,3.24-.04,0-.09,0-.13,0ZM115.39,103.66c.16.65.32,1.3.5,1.95,2.47,9.03,5.88,14.74,10.13,16.97,1.84.97,3.47,1.06,4.53,1.06,3.04-.03,5.42-.99,7.06-2.87,2.63-3,3.5-8.4,2.61-16.05h-6.21c-6.07,0-12.33-.36-18.62-1.06Z" />
      <path class="cls-5"
        d="M166.62,103.62c.06.22.11.44.18.67,2.88,10.52,6.68,14.75,9.86,16.42,7.22-.45,9.92-7.56,8.29-19.04-6.02.99-12.16,1.59-18.32,1.96Z" />
      <path class="cls-5"
        d="M181.07,122.32c-1.12,0-2.78-.13-4.67-1.12-4.3-2.26-7.71-7.89-10.14-16.76-.04-.16-.08-.31-.12-.46l-.06-.21c-.04-.16,0-.33.09-.46.1-.13.25-.21.41-.22,8.96-.53,16.75-1.51,23.81-2.99.15-.03.3,0,.42.08.12.08.21.21.23.36.09.56.18,1.12.25,1.69,1.07,8.05.2,13.76-2.59,16.98-1.77,2.04-4.3,3.08-7.52,3.11-.04,0-.08,0-.13,0ZM167.31,104.13s0,.01,0,.02c2.34,8.56,5.57,13.96,9.59,16.08,1.74.91,3.27,1,4.28,1,2.89-.03,5.15-.95,6.7-2.74,2.57-2.97,3.36-8.39,2.33-16.12-.05-.37-.1-.73-.16-1.1-6.79,1.39-14.25,2.32-22.75,2.85Z" />
      <path class="cls-5"
        d="M131.06,127.94c-12.45,0-15.29-13.03-15.32-13.16-.06-.3.13-.58.42-.65.29-.06.58.13.65.42.11.55,2.93,13.37,15.84,12.22,3.09-.27,5.51-1.48,7.2-3.59.19-.23.53-.27.77-.08.24.19.27.53.09.77-1.88,2.35-4.56,3.7-7.96,4-.58.05-1.14.08-1.68.08Z" />
      <path class="cls-5"
        d="M142.09,120.76c-.06,0-.12-.01-.18-.03-.28-.1-.43-.41-.33-.7.52-1.47.6-2.61.6-2.62.02-.3.28-.53.58-.51.3.02.53.28.51.58,0,.05-.09,1.29-.66,2.91-.08.22-.29.36-.51.36Z" />
      <path class="cls-5"
        d="M181.28,125.04h0c-5.21,0-12.15-2.57-15.59-14.74-.08-.29.09-.59.38-.67.29-.08.59.09.67.38,3.26,11.51,9.7,13.94,14.54,13.94.3,0,.55.25.55.55,0,.3-.24.55-.55.55Z" />
      <path class="cls-5"
        d="M184.33,124.73c-.26,0-.48-.18-.54-.44-.06-.3.13-.58.43-.64,1.17-.23,1.9-.53,1.9-.53.28-.11.6.02.71.3.11.28-.02.6-.3.71-.03.01-.82.33-2.1.59-.04,0-.07.01-.11.01Z" />
      <path class="cls-7"
        d="M145.94,76.12c-22.31,0-43.27-1.4-60.62-4.05-14.77-2.26-39.54-7.43-39.54-16.66,0-6.95,15.12-13.12,41.49-16.95l.86-.12-.26.83c-.1.32-.2.64-.29.97l-.18.61-.34.05c-24.11,3.56-39.09,9.16-39.09,14.62s14,10.77,37.45,14.37c17.4,2.68,38.9,4.16,60.52,4.16s40.95-1.31,58.13-3.8c24.58-3.56,39.84-9.2,39.84-14.73s-16.33-11.57-42.61-15.11l-.31-.04-.12-.29c-.17-.42-.35-.84-.53-1.26l-.39-.89.96.13c28.72,3.78,45.19,10.14,45.19,17.46s-15.29,13.19-41.94,17.02c-16.84,2.42-36.97,3.69-58.22,3.69Z" />
      <path class="cls-5"
        d="M200.84,38.49c27.11,3.57,44.71,9.75,44.71,16.92s-16.2,12.85-41.47,16.48c-16.26,2.33-36.27,3.69-58.14,3.69-22.95,0-43.87-1.5-60.53-4.04-23.9-3.65-39.08-9.46-39.08-16.12s16.01-12.78,41.02-16.41c-.13.41-.25.83-.38,1.25-23.85,3.52-39.56,9.06-39.56,15.16s14.99,11.39,37.92,14.91c16.85,2.59,37.98,4.16,60.6,4.16s41.77-1.43,58.21-3.8c24.27-3.51,40.31-9.1,40.31-15.27s-17.27-12.18-43.08-15.65c-.18-.43-.35-.85-.54-1.27h0ZM199.06,37.15l.78,1.78c.18.41.36.83.53,1.25l.24.58.62.08c31.1,4.19,42.14,10.47,42.14,14.57s-10.31,9.98-39.37,14.19c-17.15,2.48-37.22,3.79-58.05,3.79s-43.06-1.47-60.44-4.15c-11.41-1.75-20.86-3.99-27.33-6.48-6.23-2.39-9.66-5-9.66-7.35s3.6-5.08,10.13-7.52c6.77-2.54,16.62-4.8,28.5-6.55l.69-.1.2-.67.08-.27c.09-.32.19-.64.29-.96l.52-1.66-1.72.25c-15.67,2.27-41.96,7.57-41.96,17.49s25.07,14.92,40.01,17.2c17.37,2.65,38.36,4.05,60.7,4.05s41.43-1.28,58.3-3.7c15.84-2.27,42.4-7.58,42.4-17.56,0-4.02-4.34-7.66-12.9-10.84-7.82-2.9-19.14-5.38-32.76-7.17l-1.92-.25h0Z" />
      <path class="cls-8"
        d="M145.94,70.31c-23.58,0-46.28-2.05-60.71-5.49-10.81-2.57-16.3-5.73-16.3-9.41s5.49-6.85,16.32-9.42l.84-.2-.18.84c-.05.26-.1.52-.15.78l-.14.75-.34.08c-8.87,2.18-14.16,4.85-14.16,7.16s5.39,5.04,14.42,7.22c14.38,3.49,36.4,5.49,60.4,5.49s43.55-1.76,58.12-4.96c10.46-2.3,16.7-5.19,16.7-7.75s-6.37-5.51-17.03-7.82l-.33-.07-.09-.32c-.11-.4-.22-.79-.33-1.19l-.25-.87.89.19c12.82,2.68,19.32,6.07,19.32,10.09s-6.27,7.28-18.62,9.94c-14.44,3.11-36.26,4.96-58.38,4.96Z" />
      <path class="cls-5"
        d="M203.51,45.86c11.48,2.4,18.89,5.63,18.89,9.55s-7.11,7.02-18.19,9.4c-14.83,3.19-36.76,4.95-58.27,4.95-22.66,0-45.79-1.95-60.58-5.47-9.75-2.32-15.88-5.31-15.88-8.88s6.14-6.57,15.9-8.89c-.08.39-.16.79-.23,1.19-9.35,2.29-14.58,5.03-14.58,7.7s5.32,5.45,14.84,7.76c13.17,3.19,34.36,5.5,60.53,5.5,24.7,0,44.96-2.06,58.23-4.98,10.94-2.4,17.13-5.39,17.13-8.28s-6.32-5.94-17.47-8.36c-.11-.4-.22-.8-.33-1.2h0ZM201.95,44.42l.51,1.75c.11.39.22.78.33,1.17l.17.64.65.14c12.26,2.65,16.6,5.58,16.6,7.29s-4.26,4.58-16.27,7.22c-14.53,3.19-35.12,4.95-58,4.95s-45.93-2-60.27-5.47c-10.34-2.5-14-5.17-14-6.69s3.6-4.15,13.74-6.63l.68-.17.13-.68.08-.41c.05-.26.1-.52.15-.77l.36-1.69-1.68.4c-11.27,2.67-16.74,5.93-16.74,9.95s5.47,7.27,16.72,9.94c14.47,3.44,37.21,5.5,60.83,5.5,22.15,0,44.02-1.86,58.5-4.97,12.82-2.76,19.05-6.18,19.05-10.47s-6.46-7.84-19.76-10.62l-1.78-.37h0Z" />
      <path class="cls-1"
        d="M145.94,85.69c-20.94,0-41.38-1.43-59.1-4.14-8.06-1.23-15.58-2.72-22.34-4.44-22.21-5.65-34.45-13.35-34.45-21.7s12.23-16.05,34.45-21.7c7.98-2.03,16.98-3.74,26.75-5.08l1.03-.14-.46.93c-.19.38-.38.78-.57,1.17l-.13.27-.29.04c-9.44,1.32-18.12,2.98-25.79,4.94-20.84,5.3-32.8,12.44-32.8,19.58s11.95,14.28,32.8,19.58c6.55,1.67,13.84,3.12,21.69,4.33,17.74,2.74,38.22,4.18,59.22,4.18s39.82-1.33,57.03-3.86c8.64-1.26,16.68-2.83,23.88-4.66,20.85-5.3,32.8-12.44,32.8-19.58s-11.96-14.28-32.8-19.58c-9.09-2.31-19.5-4.2-30.94-5.62l-.25-.03-.14-.21c-.27-.4-.55-.79-.83-1.19l-.72-1.01,1.23.15c11.89,1.43,22.71,3.38,32.17,5.78,22.22,5.65,34.45,13.36,34.45,21.7s-12.24,16.05-34.45,21.7c-7.32,1.86-15.56,3.47-24.48,4.76-17.22,2.5-36.91,3.82-56.96,3.82Z" />
      <path class="cls-5"
        d="M195.14,28.47c11.77,1.42,22.62,3.36,32.1,5.77,21.95,5.58,34.04,13.1,34.04,21.17s-12.09,15.59-34.04,21.17c-7.38,1.88-15.6,3.47-24.43,4.75-17.14,2.49-36.61,3.82-56.88,3.82s-41.37-1.44-59.02-4.13c-8.02-1.22-15.5-2.71-22.29-4.43-21.95-5.58-34.03-13.1-34.03-21.17s12.09-15.59,34.03-21.17c8.01-2.04,17-3.74,26.69-5.07-.19.39-.38.78-.57,1.18-9.37,1.31-18.08,2.97-25.85,4.95-21.1,5.37-33.21,12.7-33.21,20.11s12.11,14.75,33.21,20.11c6.62,1.69,13.93,3.14,21.74,4.34,17.71,2.73,38.06,4.19,59.3,4.19s39.93-1.34,57.11-3.86c8.65-1.26,16.69-2.83,23.93-4.67,21.11-5.37,33.22-12.7,33.22-20.11s-12.11-14.75-33.22-20.11c-9.18-2.34-19.65-4.23-31-5.63-.27-.4-.55-.8-.83-1.2h0ZM192.82,27.09l1.44,2.02c.3.42.57.8.82,1.17l.28.41.49.06c11.41,1.41,21.8,3.3,30.87,5.6,20.28,5.16,32.39,12.28,32.39,19.06s-12.11,13.9-32.39,19.06c-7.18,1.82-15.19,3.39-23.82,4.65-17.18,2.52-36.88,3.85-56.95,3.85s-41.42-1.44-59.14-4.18c-7.83-1.2-15.11-2.66-21.64-4.32-20.28-5.16-32.39-12.28-32.39-19.06s12.11-13.9,32.39-19.06c7.65-1.95,16.31-3.61,25.73-4.93l.58-.08.25-.53c.18-.39.37-.78.56-1.16l.93-1.85-2.05.28c-9.79,1.34-18.81,3.06-26.81,5.09-11.03,2.81-19.63,6.1-25.56,9.78-6.17,3.84-9.3,8.03-9.3,12.45s3.13,8.61,9.3,12.45c5.92,3.68,14.52,6.98,25.56,9.78,6.79,1.73,14.32,3.22,22.4,4.46,17.75,2.71,38.21,4.15,59.18,4.15s39.79-1.32,57.04-3.83c8.94-1.3,17.2-2.91,24.54-4.77,11.03-2.81,19.63-6.1,25.56-9.78,6.17-3.84,9.3-8.03,9.3-12.45s-3.13-8.61-9.3-12.45c-5.93-3.69-14.53-6.98-25.56-9.78-9.48-2.41-20.33-4.36-32.24-5.79l-2.46-.3h0Z" />
      <path class="cls-8"
        d="M145.94,94.19c-19.49,0-38.21-1.17-55.62-3.48-14.09-1.86-26.88-4.42-38.02-7.6-25.44-7.27-39.46-17.1-39.46-27.7s14.01-20.44,39.46-27.71c12.94-3.69,28.02-6.53,44.83-8.43l1.29-.15-.92,1.18c-.26.34-.53.68-.78,1.03l-.14.19-.24.03c-16.27,1.89-30.88,4.67-43.43,8.25-24.42,6.97-37.87,16.06-37.87,25.6s13.45,18.63,37.87,25.6c10.85,3.1,23.29,5.6,36.98,7.44,17.55,2.36,36.41,3.55,56.06,3.55s37.38-1.12,54.45-3.34c14.34-1.86,27.32-4.43,38.59-7.65,24.42-6.97,37.87-16.06,37.87-25.6s-13.45-18.63-37.87-25.6c-14.58-4.16-31.77-7.21-51.1-9.05l-.19-.02-.14-.13c-.43-.41-.87-.81-1.32-1.21l-1.24-1.1,1.65.15c20.03,1.84,37.84,4.95,52.92,9.26,25.44,7.27,39.46,17.1,39.46,27.71s-14.01,20.43-39.46,27.7c-11.53,3.29-24.83,5.92-39.52,7.8-17.02,2.18-35.23,3.28-54.12,3.28Z" />
      <path class="cls-5"
        d="M186.61,18.99c19.7,1.81,37.76,4.94,52.82,9.24,25.19,7.19,39.06,16.85,39.06,27.18s-13.87,19.98-39.06,27.18c-11.58,3.31-24.93,5.93-39.44,7.78-16.78,2.15-35.12,3.28-54.05,3.28s-38.37-1.2-55.55-3.47c-13.93-1.84-26.76-4.39-37.94-7.59-25.19-7.19-39.06-16.84-39.06-27.18s13.87-19.99,39.06-27.18c12.98-3.71,28.18-6.54,44.74-8.41-.31.4-.62.79-.92,1.2-16.1,1.87-30.87,4.66-43.52,8.27-24.68,7.04-38.27,16.32-38.27,26.13s13.59,19.08,38.27,26.13c10.94,3.12,23.46,5.63,37.06,7.46,17.33,2.33,36.4,3.56,56.13,3.56s37.62-1.15,54.53-3.35c14.21-1.84,27.3-4.42,38.67-7.67,24.68-7.04,38.27-16.32,38.27-26.13s-13.59-19.08-38.27-26.13c-14.64-4.18-32.12-7.25-51.19-9.07-.44-.41-.88-.82-1.33-1.22h0ZM183.4,17.6l2.48,2.21c.42.38.86.78,1.31,1.2l.27.26.37.04c19.29,1.84,36.45,4.88,51,9.03,12.17,3.47,21.61,7.47,28.07,11.88,6.24,4.26,9.4,8.7,9.4,13.2s-3.16,8.94-9.4,13.2c-6.46,4.41-15.9,8.41-28.07,11.88-11.24,3.21-24.2,5.78-38.51,7.63-17.06,2.22-35.35,3.34-54.38,3.34s-38.46-1.19-55.99-3.55c-13.67-1.84-26.09-4.34-36.91-7.43-12.17-3.47-21.61-7.47-28.07-11.88-6.24-4.26-9.4-8.7-9.4-13.2s3.16-8.94,9.4-13.2c6.46-4.41,15.9-8.41,28.07-11.88,12.53-3.58,27.11-6.35,43.35-8.23l.47-.05.28-.38c.25-.34.51-.68.78-1.03l.11-.15,1.59-2.05-2.58.29c-16.84,1.9-31.95,4.75-44.92,8.45-12.65,3.61-22.51,7.84-29.3,12.57-7,4.87-10.55,10.14-10.55,15.66s3.55,10.79,10.55,15.66c6.79,4.72,16.65,8.95,29.3,12.56,11.17,3.19,23.99,5.75,38.1,7.62,17.44,2.31,36.17,3.48,55.69,3.48s37.14-1.11,54.19-3.29c14.72-1.88,28.04-4.51,39.6-7.82,12.65-3.61,22.51-7.84,29.3-12.56,7-4.87,10.55-10.14,10.55-15.66s-3.55-10.79-10.55-15.66c-6.79-4.73-16.65-8.95-29.3-12.57-15.12-4.32-32.96-7.44-53.03-9.28l-3.31-.3h0Z" />
      <path class="cls-7"
        d="M74.28,25.43c-1.8,5.54-7.43,8.67-12.57,7-2.94-.96-5.8-3.41-5.8-3.41l10.84-17.95s3.06,1.94,3.74,2.39c3.63,2.43,5.3,7.3,3.78,11.97Z" />
      <path class="cls-5"
        d="M64.55,33.16c-.99,0-1.97-.15-2.93-.47-2.96-.96-5.77-3.36-5.89-3.46-.1-.09-.12-.23-.06-.35l10.84-17.95c.04-.06.1-.11.17-.12.07-.02.15,0,.21.04.12.08,3.07,1.94,3.75,2.4,3.81,2.55,5.41,7.6,3.89,12.28-.89,2.74-2.73,5-5.16,6.36-1.53.85-3.18,1.28-4.83,1.28ZM56.26,28.96c.66.54,3.08,2.42,5.53,3.21,2.41.79,5.01.51,7.32-.78,2.31-1.29,4.06-3.44,4.91-6.05h0c1.45-4.45-.06-9.24-3.68-11.65-.56-.38-2.77-1.78-3.5-2.24l-10.58,17.51Z" />
      <path class="cls-6"
        d="M71.16,23.42c-1.8,5.54-7.43,8.67-12.57,7-5.14-1.67-7.84-7.52-6.04-13.06s7.43-8.67,12.57-7c5.14,1.67,7.84,7.52,6.04,13.06Z" />
      <path class="cls-1"
        d="M64.81,10.28c-5.05-1.45-10.49,1.65-12.26,7.08-.74,2.28-.71,4.6-.07,6.68,1.03-6.74,5.63-12.72,12.33-13.76Z" />
      <path class="cls-5"
        d="M61.41,31.14c-.97,0-1.95-.15-2.91-.46-5.27-1.72-8.06-7.73-6.21-13.4.89-2.74,2.73-5,5.16-6.36,2.44-1.36,5.19-1.65,7.75-.82,5.27,1.72,8.06,7.73,6.21,13.4h0c-1.51,4.64-5.66,7.64-10.01,7.64ZM62.28,10.18c-1.56,0-3.12.41-4.56,1.21-2.31,1.29-4.06,3.44-4.91,6.05-1.75,5.39.88,11.09,5.86,12.71,4.99,1.62,10.47-1.44,12.23-6.83l.26.08-.26-.08c1.75-5.39-.88-11.09-5.86-12.72-.9-.29-1.83-.44-2.76-.44Z" />
      <path class="cls-5"
        d="M58.8,17.3c-.36,1.1-1.26,1.8-2.02,1.55-.75-.25-1.07-1.34-.72-2.44.36-1.1,1.26-1.8,2.02-1.55.75.25,1.07,1.34.72,2.44Z" />
      <path class="cls-5"
        d="M67.14,19.71c-.36,1.1-1.26,1.8-2.02,1.55-.75-.25-1.07-1.34-.72-2.44.36-1.1,1.26-1.8,2.02-1.55.75.25,1.07,1.34.72,2.44Z" />
      <path class="cls-5"
        d="M57.94,20.68l4.52,1.47c.2.07.28.31.16.49-.5.72-1.77,2.23-3.38,1.71-1.61-.52-1.75-2.5-1.72-3.37,0-.21.21-.36.42-.3Z" />
      <path class="cls-5"
        d="M70.99,30.68c-.05,0-.11-.02-.15-.05l-1.77-1.2c-.12-.08-.16-.25-.07-.38.09-.12.25-.16.38-.07l1.77,1.2c.12.08.16.25.07.38-.05.08-.14.12-.23.12Z" />
      <path class="cls-5"
        d="M70.53,28.17c-.05,0-.11-.02-.15-.05l-1.31-.9c-.12-.09-.16-.26-.07-.38.09-.12.26-.16.38-.07l1.31.9c.12.09.16.26.07.38-.05.08-.14.12-.23.12Z" />
      <path class="cls-5"
        d="M70.99,26.69c-.05,0-.11-.02-.15-.05l-.88-.61c-.12-.09-.16-.26-.07-.38.09-.12.26-.16.38-.07l.88.61c.12.09.16.26.07.38-.05.08-.14.12-.22.12Z" />
      <path class="cls-5"
        d="M68.36,32.35c-.06,0-.13-.02-.18-.07-.54-.46-1.19-1.04-1.28-1.17-.08-.13-.05-.29.08-.38.12-.08.29-.05.37.07.08.1.67.62,1.19,1.07.11.1.13.27.03.39-.05.06-.13.09-.21.09Z" />
      <path class="cls-5"
        d="M66.87,32.86c-.05,0-.11-.02-.16-.05l-1.09-.76c-.12-.09-.15-.26-.07-.38.09-.12.26-.15.38-.07l1.09.76c.12.09.15.26.07.38-.05.08-.14.12-.22.12Z" />
      <path class="cls-5"
        d="M74.72,20.66s-.1-.01-.14-.04l-1.84-1.13c-.13-.08-.17-.25-.09-.38.08-.13.25-.17.38-.09l1.84,1.13c.13.08.17.25.09.38-.05.08-.14.13-.23.13Z" />
      <path class="cls-5"
        d="M74.36,19.21s-.1-.01-.14-.04l-1.02-.63c-.13-.08-.17-.25-.09-.38.08-.13.25-.17.38-.09l1.02.63c.13.08.17.25.09.38-.05.08-.14.13-.23.13Z" />
      <path class="cls-7"
        d="M215.19,9.45c4.41-3.81,10.85-3.58,14.38.51,2.02,2.34,3.2,5.92,3.2,5.92l-18.57,9.74s-1.61-3.24-1.96-3.98c-1.85-3.95-.75-8.99,2.96-12.2Z" />
      <path class="cls-5"
        d="M214.19,25.9s-.06,0-.08-.01c-.07-.02-.13-.07-.16-.14-.07-.13-1.62-3.25-1.96-3.99-1.94-4.16-.7-9.31,3.02-12.52h0c4.52-3.9,11.14-3.65,14.76.54,2.04,2.36,3.2,5.87,3.25,6.01.04.13-.01.26-.13.33l-18.57,9.74s-.08.03-.13.03ZM215.36,9.66h0c-3.54,3.05-4.73,7.94-2.89,11.87.29.61,1.45,2.95,1.83,3.73l18.11-9.51c-.29-.8-1.39-3.66-3.07-5.61-3.43-3.97-9.7-4.19-13.99-.49Z" />
      <ellipse class="cls-6" cx="223.21" cy="20.2" rx="10.55" ry="9.78"
        transform="translate(41.03 150.73) rotate(-40.79)" />
      <path class="cls-1"
        d="M215.44,27.32c3.57,3.86,9.83,4.02,14.16.28,1.81-1.57,2.99-3.57,3.52-5.67-4.37,5.23-11.41,7.97-17.67,5.39Z" />
      <path class="cls-5"
        d="M222.45,30.59c-.13,0-.26,0-.39,0-2.79-.1-5.3-1.28-7.06-3.31-3.62-4.2-2.9-10.79,1.62-14.68h0c2.19-1.89,4.92-2.87,7.71-2.77,2.79.1,5.3,1.28,7.06,3.31,1.76,2.04,2.56,4.69,2.25,7.47-.31,2.77-1.68,5.33-3.87,7.22-2.08,1.8-4.67,2.78-7.32,2.78ZM223.96,10.35c-2.52,0-4.98.93-6.97,2.64h0c-4.29,3.7-4.99,9.94-1.57,13.91,1.66,1.92,4.02,3.03,6.66,3.12,2.65.09,5.25-.84,7.33-2.64,2.08-1.8,3.39-4.23,3.68-6.87.29-2.62-.46-5.13-2.12-7.05-1.66-1.92-4.02-3.03-6.66-3.12-.12,0-.24,0-.37,0ZM216.81,12.79h0,0Z" />
      <path class="cls-5"
        d="M224.22,24.42c.88-.76,2.01-.88,2.53-.28s.23,1.7-.65,2.46c-.88.76-2.01.88-2.53.28-.52-.6-.23-1.7.65-2.46Z" />
      <path class="cls-5"
        d="M218.32,18.04c.88-.76,2.01-.88,2.53-.28.52.6.23,1.7-.65,2.46-.88.76-2.01.88-2.53.28-.52-.6-.23-1.7.65-2.46Z" />
      <path class="cls-5"
        d="M226.7,21.98l-3.11-3.6c-.14-.16-.08-.41.11-.5.8-.36,2.67-1,3.78.29,1.11,1.28.2,3.04-.27,3.78-.12.18-.37.2-.51.04Z" />
      <path class="cls-5"
        d="M221.46,9.11c-.1,0-.2-.06-.25-.16l-.89-1.94c-.06-.14,0-.3.13-.36.14-.06.3,0,.36.13l.89,1.94c.06.14,0,.3-.13.36-.04.02-.08.02-.11.02Z" />
      <path class="cls-5"
        d="M220.32,11c-.1,0-.2-.06-.25-.16l-.65-1.45c-.06-.14,0-.3.14-.36.14-.06.3,0,.36.14l.65,1.45c.06.14,0,.3-.14.36-.04.02-.07.02-.11.02Z" />
      <path class="cls-5"
        d="M218.95,11.56c-.1,0-.2-.06-.25-.16l-.44-.98c-.06-.14,0-.3.14-.36.14-.06.3,0,.36.14l.44.98c.06.14,0,.3-.14.36-.04.02-.07.02-.11.02Z" />
      <path class="cls-5"
        d="M224.16,8.7c-.14,0-.26-.11-.27-.25-.02-.13-.25-.88-.46-1.53-.05-.14.03-.3.17-.34.14-.05.3.03.34.18.22.67.48,1.51.49,1.67,0,.15-.11.28-.26.28,0,0,0,0-.01,0Z" />
      <path class="cls-5"
        d="M225.76,8.65c-.1,0-.2-.06-.25-.16l-.54-1.22c-.06-.14,0-.3.14-.36.14-.06.3,0,.36.14l.54,1.22c.06.14,0,.3-.14.36-.04.02-.07.02-.11.02Z" />
      <path class="cls-5"
        d="M213.18,15.72c-.1,0-.19-.05-.24-.15l-.99-1.92c-.07-.13-.02-.3.12-.37.13-.07.3-.02.37.12l.99,1.92c.07.13.02.3-.12.37-.04.02-.08.03-.12.03Z" />
      <path class="cls-5"
        d="M212.29,16.3c-.1,0-.2-.05-.24-.15l-.54-1.06c-.07-.13-.02-.3.12-.37.13-.07.3-.02.37.12l.54,1.06c.07.13.02.3-.12.37-.04.02-.08.03-.12.03Z" />
      <path class="cls-7"
        d="M252.53,74.34c1.89,5.51,7.56,8.56,12.67,6.81,2.93-1,5.75-3.5,5.75-3.5l-11.12-17.78s-3.03,1.98-3.7,2.45c-3.59,2.48-5.19,7.38-3.6,12.02Z" />
      <path class="cls-5"
        d="M262.25,81.92c-4.29,0-8.41-2.92-9.98-7.49-1.59-4.65-.07-9.73,3.7-12.33.67-.47,3.59-2.37,3.71-2.45.06-.04.14-.05.21-.04.07.02.13.06.17.12l11.12,17.78c.07.11.05.26-.05.35-.12.1-2.89,2.54-5.84,3.55-1,.34-2.03.51-3.04.51ZM259.76,60.25c-.72.47-2.91,1.91-3.46,2.29-3.57,2.47-5.01,7.28-3.5,11.71,1.84,5.36,7.37,8.34,12.33,6.64,2.43-.83,4.82-2.75,5.48-3.3l-10.84-17.35Z" />
      <path class="cls-6"
        d="M255.62,72.28c1.89,5.51,7.56,8.56,12.67,6.81s7.73-7.64,5.84-13.15c-1.89-5.51-7.56-8.56-12.67-6.81-5.11,1.75-7.73,7.64-5.84,13.15Z" />
      <path class="cls-1"
        d="M261.77,59.05c5.03-1.53,10.52,1.5,12.37,6.9.78,2.27.78,4.59.17,6.67-1.13-6.72-5.83-12.64-12.54-13.57Z" />
      <path class="cls-5"
        d="M265.32,79.86c-1.6,0-3.21-.41-4.7-1.21-2.45-1.32-4.32-3.55-5.26-6.28-.94-2.73-.83-5.64.3-8.18,1.13-2.55,3.16-4.44,5.71-5.31,5.25-1.8,11.09,1.33,13.02,6.98,1.93,5.65-.76,11.7-6.01,13.5-1,.34-2.03.51-3.06.51ZM264.42,58.91c-.96,0-1.92.15-2.87.48-2.4.82-4.31,2.6-5.38,5.02-1.07,2.42-1.18,5.19-.29,7.79h0c.89,2.6,2.67,4.72,5,5.98,2.33,1.25,4.93,1.49,7.33.66,4.96-1.7,7.5-7.44,5.67-12.8-1.49-4.34-5.39-7.12-9.46-7.12Z" />
      <path class="cls-5"
        d="M267.89,65.98c.38,1.1,1.29,1.78,2.04,1.52.75-.26,1.05-1.35.68-2.45-.38-1.1-1.29-1.78-2.04-1.52-.75.26-1.05,1.35-.68,2.45Z" />
      <path class="cls-5"
        d="M259.58,68.51c.38,1.1,1.29,1.78,2.04,1.52.75-.26,1.05-1.35.68-2.45-.38-1.1-1.29-1.78-2.04-1.52-.75.26-1.05,1.35-.68,2.45Z" />
      <path class="cls-5"
        d="M268.8,69.34l-4.5,1.54c-.2.07-.28.31-.16.49.51.71,1.8,2.21,3.4,1.66,1.6-.55,1.71-2.52,1.67-3.4,0-.21-.22-.36-.42-.29Z" />
      <path class="cls-5"
        d="M255.89,79.54c-.09,0-.17-.04-.22-.12-.09-.12-.06-.29.07-.38l1.75-1.23c.12-.09.29-.06.38.07.09.12.06.29-.07.38l-1.75,1.23s-.1.05-.16.05Z" />
      <path class="cls-5"
        d="M256.31,77.03c-.09,0-.17-.04-.22-.11-.09-.12-.06-.29.06-.38l1.29-.92c.12-.09.29-.06.38.06.09.12.06.29-.06.38l-1.29.92s-.1.05-.16.05Z" />
      <path class="cls-5"
        d="M255.83,75.55c-.09,0-.17-.04-.22-.11-.09-.12-.06-.29.06-.38l.87-.62c.12-.09.29-.06.38.06.09.12.06.29-.06.38l-.87.62s-.1.05-.16.05Z" />
      <path class="cls-5"
        d="M258.55,81.17c-.08,0-.15-.03-.2-.09-.1-.11-.09-.28.02-.39.52-.46,1.1-1,1.17-1.09.09-.12.26-.14.38-.06.12.08.15.24.08.36-.09.14-.74.72-1.26,1.19-.05.05-.12.07-.18.07Z" />
      <path class="cls-5"
        d="M260.04,81.66c-.08,0-.17-.04-.22-.11-.09-.12-.06-.29.06-.38l1.08-.78c.12-.09.29-.06.38.06.09.12.06.29-.06.38l-1.08.78s-.1.05-.16.05Z" />
      <path class="cls-5"
        d="M252.01,69.58c-.09,0-.18-.04-.23-.13-.08-.13-.04-.3.08-.38l1.82-1.16c.13-.08.3-.04.38.08.08.13.04.3-.08.38l-1.82,1.16s-.1.04-.15.04Z" />
      <path class="cls-5"
        d="M252.35,68.13c-.09,0-.18-.04-.23-.13-.08-.13-.04-.3.08-.38l1.01-.64c.13-.08.3-.04.38.08.08.13.04.3-.08.38l-1.01.64s-.1.04-.15.04Z" />
      <path class="cls-1"
        d="M5.17,54.09c-.57,5.8,3.33,10.93,8.71,11.45,3.08.3,6.68-.8,6.68-.8l-2.74-20.79s-3.58.55-4.39.69c-4.3.77-7.79,4.57-8.26,9.44Z" />
      <path class="cls-5"
        d="M15.02,65.87c-.39,0-.78-.02-1.17-.05-5.52-.54-9.54-5.81-8.95-11.75.48-4.9,3.97-8.88,8.49-9.69.8-.14,4.25-.67,4.39-.69.07-.01.15,0,.21.05.06.04.1.11.11.18l2.74,20.79c.02.13-.06.26-.19.3-.13.04-2.86.86-5.62.86ZM17.59,44.27c-.85.13-3.44.53-4.1.65-4.28.76-7.58,4.55-8.04,9.2h0c-.55,5.64,3.24,10.64,8.46,11.16,2.56.25,5.53-.5,6.35-.73l-2.67-20.28ZM5.17,54.09h0,0Z" />
      <path class="cls-6"
        d="M8.83,53.5c-.57,5.8,3.33,10.93,8.71,11.45,5.38.53,10.2-3.74,10.77-9.54.57-5.8-3.33-10.93-8.71-11.45s-10.2,3.74-10.77,9.54Z" />
      <path class="cls-1"
        d="M19.92,44.01c5.21.7,8.95,5.72,8.39,11.41-.23,2.38-1.2,4.5-2.61,6.14,1.76-6.58-.06-13.92-5.78-17.55Z" />
      <path class="cls-5"
        d="M18.45,65.27c-.31,0-.62-.02-.93-.05-2.68-.26-5.08-1.63-6.77-3.86-1.69-2.22-2.46-5.02-2.18-7.9.28-2.87,1.59-5.47,3.67-7.32,2.09-1.85,4.72-2.73,7.4-2.47,5.52.54,9.54,5.81,8.95,11.75-.28,2.87-1.59,5.47-3.67,7.32-1.85,1.64-4.11,2.51-6.46,2.51ZM18.7,44.19c-2.22,0-4.36.83-6.1,2.37-1.98,1.76-3.22,4.23-3.49,6.97h0c-.27,2.74.47,5.4,2.07,7.51,1.6,2.1,3.87,3.4,6.39,3.64,2.53.25,5-.58,6.98-2.33,1.98-1.76,3.22-4.23,3.49-6.97.55-5.64-3.24-10.64-8.46-11.16-.29-.03-.59-.04-.88-.04ZM8.83,53.5h0,0Z" />
      <path class="cls-5"
        d="M22.61,52.85c-.11,1.15.43,2.15,1.22,2.23.79.08,1.52-.79,1.63-1.95.11-1.15-.43-2.15-1.22-2.23-.79-.08-1.52.79-1.63,1.95Z" />
      <path class="cls-5"
        d="M14,51.71c-.11,1.15.43,2.15,1.22,2.23.79.08,1.52-.79,1.63-1.95.11-1.15-.43-2.15-1.22-2.23-.79-.08-1.52.79-1.63,1.95Z" />
      <path class="cls-5"
        d="M22.04,56.29l-4.73-.46c-.21-.02-.38.17-.34.38.17.86.72,2.76,2.41,2.92s2.6-1.59,2.93-2.4c.08-.2-.05-.42-.26-.44Z" />
      <path class="cls-5"
        d="M6.18,60.24c-.13,0-.24-.09-.27-.22-.03-.15.07-.29.22-.32l2.1-.39c.15-.03.29.07.32.22.03.15-.07.29-.22.32l-2.1.39s-.03,0-.05,0Z" />
      <path class="cls-5"
        d="M7.61,58.13c-.13,0-.24-.09-.27-.22-.03-.15.07-.29.22-.32l1.56-.3c.15-.03.29.07.32.22.03.15-.07.29-.22.32l-1.56.3s-.03,0-.05,0Z" />
      <path class="cls-5"
        d="M7.78,56.58c-.13,0-.24-.09-.27-.22-.03-.15.07-.29.22-.32l1.05-.21c.15-.03.29.07.32.22.03.15-.07.29-.22.32l-1.05.21s-.04,0-.05,0Z" />
      <path class="cls-5"
        d="M7.92,62.82c-.12,0-.22-.08-.26-.19-.04-.14.04-.3.18-.34.66-.2,1.41-.45,1.52-.51.13-.07.3-.02.37.1.07.13.04.28-.08.36-.14.09-.97.35-1.65.56-.03,0-.05.01-.08.01Z" />
      <path class="cls-5"
        d="M9.08,63.89c-.13,0-.24-.09-.27-.22-.03-.15.07-.29.21-.32l1.31-.26c.15-.03.29.07.32.21.03.15-.07.29-.21.32l-1.31.26s-.04,0-.05,0Z" />
      <path class="cls-5"
        d="M6.78,49.57c-.13,0-.25-.1-.27-.24-.02-.15.08-.29.23-.31l2.13-.3c.15-.02.29.08.31.23.02.15-.08.29-.23.31l-2.13.3s-.03,0-.04,0Z" />
      <path class="cls-5"
        d="M7.69,48.38c-.13,0-.25-.1-.27-.23-.02-.15.08-.29.23-.31l1.18-.17c.15-.02.29.08.31.23.02.15-.08.29-.23.31l-1.18.17s-.03,0-.04,0Z" />
      <path class="cls-7"
        d="M68.67,77.02c1.31,5.26,6.32,8.54,11.2,7.33,2.79-.69,5.61-2.78,5.61-2.78l-8.87-17.37s-2.96,1.59-3.63,1.97c-3.53,2.01-5.4,6.43-4.3,10.85Z" />
      <path class="cls-5"
        d="M77.81,84.87c-1.75,0-3.48-.52-5.03-1.54-2.17-1.42-3.73-3.64-4.37-6.25-1.1-4.45.72-9.03,4.43-11.15.66-.38,3.51-1.91,3.63-1.98.06-.03.14-.04.21-.02.07.02.13.07.16.14l8.87,17.37c.06.12.03.26-.08.34-.12.09-2.89,2.13-5.7,2.83-.7.17-1.42.26-2.13.26ZM68.94,76.95c.61,2.48,2.09,4.58,4.14,5.93,2.05,1.34,4.44,1.77,6.72,1.2,2.3-.57,4.65-2.13,5.32-2.6l-8.64-16.91c-.72.39-2.83,1.53-3.38,1.84-3.5,2-5.22,6.33-4.17,10.55h0Z" />
      <path class="cls-6"
        d="M71.7,75.36c1.31,5.26,6.32,8.54,11.2,7.33,4.88-1.21,7.77-6.46,6.47-11.71-1.31-5.26-6.32-8.54-11.2-7.33-4.88,1.21-7.77,6.46-6.47,11.71Z" />
      <path class="cls-1"
        d="M78.46,63.59c4.78-1.01,9.62,2.23,10.9,7.38.54,2.16.35,4.32-.38,6.2-.51-6.32-4.38-12.18-10.53-13.58Z" />
      <path class="cls-5"
        d="M80.84,83.21c-1.75,0-3.48-.52-5.03-1.54-2.17-1.42-3.73-3.64-4.37-6.25-.65-2.61-.31-5.3.94-7.57,1.26-2.28,3.29-3.87,5.73-4.47,5.02-1.25,10.19,2.13,11.53,7.53,1.34,5.4-1.65,10.8-6.67,12.05-.7.17-1.42.26-2.13.26ZM80.21,63.67c-.66,0-1.32.08-1.98.24-2.28.57-4.19,2.06-5.38,4.21-1.19,2.15-1.5,4.7-.89,7.18h0c.61,2.48,2.09,4.58,4.14,5.93,2.05,1.34,4.44,1.77,6.72,1.2,4.72-1.17,7.54-6.28,6.27-11.38-1.09-4.39-4.85-7.37-8.89-7.37Z" />
      <path class="cls-5"
        d="M83.57,70.5c.26,1.05,1.05,1.75,1.77,1.57.72-.18,1.09-1.17.83-2.22-.26-1.05-1.05-1.75-1.77-1.57s-1.09,1.17-.83,2.22Z" />
      <path class="cls-5"
        d="M75.67,72.18c.26,1.05,1.05,1.75,1.77,1.57.72-.18,1.09-1.17.83-2.22-.26-1.05-1.05-1.75-1.77-1.57s-1.09,1.17-.83,2.22Z" />
      <path class="cls-5"
        d="M84.14,73.69l-4.29,1.07c-.19.05-.28.27-.18.44.41.7,1.49,2.19,3.02,1.81,1.53-.38,1.79-2.2,1.82-3.01,0-.2-.17-.35-.37-.3Z" />
      <path class="cls-5"
        d="M71.39,82.13c-.09,0-.19-.05-.24-.14-.08-.13-.03-.3.1-.37l1.72-1c.13-.08.3-.03.37.1.08.13.03.3-.1.37l-1.72,1s-.09.04-.14.04Z" />
      <path class="cls-5"
        d="M71.98,79.83c-.09,0-.18-.05-.24-.13-.08-.13-.03-.3.1-.37l1.27-.75c.13-.08.3-.03.37.1.08.13.03.3-.1.37l-1.27.75s-.09.04-.14.04Z" />
      <path class="cls-5"
        d="M71.66,78.42c-.09,0-.18-.05-.24-.13-.08-.13-.03-.3.1-.37l.86-.51c.13-.08.3-.03.37.1.08.13.03.3-.1.37l-.86.51s-.09.04-.14.04Z" />
      <path class="cls-5"
        d="M73.72,83.84c-.08,0-.17-.04-.22-.11-.09-.12-.07-.29.06-.38.52-.38,1.1-.83,1.17-.91.1-.11.27-.12.38-.03.11.09.13.25.04.37-.09.12-.74.61-1.27,1.01-.05.04-.11.05-.16.05Z" />
      <path class="cls-5"
        d="M75.07,84.42c-.09,0-.18-.05-.23-.13-.08-.13-.03-.3.1-.37l1.07-.63c.13-.08.3-.03.37.09s.03.3-.1.37l-1.07.63s-.09.04-.14.04Z" />
      <path class="cls-5"
        d="M68.59,72.59c-.1,0-.19-.05-.24-.15-.07-.13-.02-.3.12-.37l1.78-.92c.13-.07.3-.02.37.12s.02.3-.12.37l-1.78.92s-.08.03-.13.03Z" />
      <path class="cls-5"
        d="M69.02,71.26c-.1,0-.19-.05-.24-.15-.07-.13-.02-.3.12-.37l.98-.52c.13-.07.3-.02.37.12.07.13.02.3-.12.37l-.98.52s-.08.03-.13.03Z" />
      <path class="cls-1"
        d="M231.43,65.82c.65,5.72-3.17,10.84-8.54,11.44-3.08.34-6.69-.7-6.69-.7l2.44-20.58s3.58.49,4.4.62c4.31.7,7.85,4.4,8.4,9.21Z" />
      <path class="cls-5"
        d="M221.55,77.6c-2.69,0-5.3-.74-5.43-.78-.13-.04-.21-.16-.2-.29l2.44-20.58c0-.07.05-.14.1-.18s.13-.06.2-.05c.15.02,3.6.49,4.4.62,4.53.73,8.07,4.62,8.62,9.45h0c.33,2.92-.49,5.87-2.27,8.1-1.65,2.07-3.96,3.36-6.52,3.64-.45.05-.91.07-1.37.07ZM216.5,76.36c.83.21,3.81.91,6.36.63,2.41-.27,4.59-1.49,6.15-3.44,1.68-2.11,2.47-4.92,2.15-7.69-.52-4.59-3.88-8.28-8.17-8.98-.67-.11-3.26-.47-4.11-.58l-2.38,20.07Z" />
      <path class="cls-6"
        d="M227.76,65.28c.65,5.72-3.17,10.84-8.54,11.44-5.37.6-10.25-3.56-10.9-9.28-.65-5.72,3.17-10.84,8.54-11.44,5.37-.6,10.25,3.56,10.9,9.28Z" />
      <path class="cls-1"
        d="M216.54,56.06c-5.2.76-8.87,5.78-8.23,11.39.27,2.35,1.26,4.43,2.7,6.03-1.85-6.48-.14-13.75,5.53-17.42Z" />
      <path class="cls-5"
        d="M218.19,77.05c-5.08,0-9.53-4.09-10.15-9.58-.33-2.92.49-5.87,2.27-8.1,1.65-2.07,3.96-3.36,6.52-3.64,5.51-.61,10.54,3.66,11.2,9.52h0c.33,2.92-.49,5.87-2.27,8.1-1.65,2.07-3.96,3.36-6.52,3.64-.35.04-.71.06-1.05.06ZM217.88,56.22c-.33,0-.66.02-.99.06-2.41.27-4.59,1.49-6.15,3.44-1.68,2.11-2.47,4.92-2.15,7.69.63,5.56,5.39,9.62,10.6,9.04,2.41-.27,4.59-1.49,6.15-3.44,1.68-2.11,2.47-4.92,2.15-7.69h0c-.59-5.21-4.8-9.09-9.61-9.09Z" />
      <path class="cls-5"
        d="M213.98,64.84c.13,1.14-.4,2.13-1.19,2.22-.79.09-1.53-.76-1.66-1.9-.13-1.14.4-2.13,1.19-2.22.79-.09,1.53.76,1.66,1.9Z" />
      <path class="cls-5"
        d="M222.57,63.58c.13,1.14-.4,2.13-1.19,2.22-.79.09-1.53-.76-1.66-1.9-.13-1.14.4-2.13,1.19-2.22.79-.09,1.53.76,1.66,1.9Z" />
      <path class="cls-5"
        d="M214.59,68.22l4.73-.53c.21-.02.39.16.35.37-.15.85-.68,2.73-2.37,2.92-1.68.19-2.62-1.53-2.97-2.33-.08-.2.04-.41.26-.44Z" />
      <path class="cls-5"
        d="M230.5,71.91s-.03,0-.05,0l-2.11-.36c-.15-.03-.25-.17-.22-.31.03-.15.17-.25.32-.22l2.11.36c.15.03.25.17.22.31-.02.13-.14.23-.27.23Z" />
      <path class="cls-5"
        d="M229.05,69.84s-.03,0-.05,0l-1.56-.27c-.15-.03-.25-.17-.22-.32.03-.15.17-.25.32-.22l1.56.27c.15.03.25.17.22.32-.02.13-.14.23-.27.23Z" />
      <path class="cls-5"
        d="M228.85,68.32s-.03,0-.05,0l-1.06-.19c-.15-.03-.25-.17-.22-.32.03-.15.17-.25.32-.22l1.06.19c.15.03.25.17.22.32-.02.13-.14.23-.27.23Z" />
      <path class="cls-5"
        d="M228.8,74.48s-.05,0-.08-.01c-.68-.2-1.52-.45-1.65-.53-.13-.08-.17-.25-.09-.38.08-.13.24-.17.37-.09.11.06.86.28,1.53.48.14.04.23.19.19.34-.03.12-.14.2-.26.2Z" />
      <path class="cls-5"
        d="M227.66,75.55s-.03,0-.05,0l-1.31-.24c-.15-.03-.25-.17-.22-.32.03-.15.17-.25.32-.22l1.31.24c.15.03.25.17.22.32-.02.13-.14.22-.27.22Z" />
      <path class="cls-5"
        d="M229.75,61.37s-.02,0-.03,0l-2.14-.26c-.15-.02-.26-.15-.24-.3.02-.15.16-.26.3-.24l2.14.26c.15.02.26.15.24.3-.02.14-.13.24-.27.24Z" />
      <path class="cls-5"
        d="M228.83,60.22s-.02,0-.03,0l-1.19-.15c-.15-.02-.26-.16-.24-.3.02-.15.16-.26.31-.24l1.19.15c.15.02.26.16.24.31-.02.14-.13.24-.27.24Z" />
      <path class="cls-5"
        d="M68.91,33.32h.03c.36-.17.68-.33.97-.49,2.68-1.49,4.69-3.97,5.67-6.98.59-1.81.76-3.75.5-5.62v-.06s-.01-.05-.01-.05c-.48-3.23-2.23-6.07-4.81-7.79-.48-.32-2.03-1.31-3.25-2.08l-.08-.05c-.13-.08-.26-.17-.39-.25l-.03-.02c-.09-.06-.17-.09-.23-.12-.59-.32-1.16-.57-1.74-.76-1.06-.34-2.16-.52-3.26-.52-1.84,0-3.69.49-5.36,1.42-2.68,1.49-4.69,3.97-5.67,6.98-1.58,4.87-.09,10.11,3.72,13.07.02.02.03.03.05.05.31.27,3.16,2.66,6.27,3.67,1.06.34,2.16.52,3.26.52,1.47,0,2.93-.31,4.34-.92h.02ZM68.46,32.32c-1.26.55-2.59.84-3.92.84-.99,0-1.97-.15-2.93-.47-2.96-.96-5.77-3.36-5.89-3.46,0,0-.01-.02-.02-.02-3.39-2.59-4.91-7.37-3.42-11.93.89-2.74,2.73-5,5.16-6.36,1.53-.85,3.18-1.28,4.83-1.28.98,0,1.97.15,2.93.47.58.19,1.12.43,1.63.72.02,0,.04.01.06.02,0,0,.04.02.07.05.15.09.3.19.45.28.9.57,2.71,1.72,3.22,2.07,2.4,1.61,3.93,4.21,4.34,7.08,0,0,0,.02,0,.03.24,1.68.11,3.45-.45,5.17-.89,2.74-2.73,5-5.16,6.36-.29.16-.59.31-.89.44,0,0-.01,0-.02,0Z" />
      <path class="cls-5"
        d="M234.06,15.48c-.13-.41-1.33-3.93-3.47-6.4-1.27-1.47-2.94-2.56-4.83-3.16-.11-.05-.23-.08-.35-.1-.55-.16-1.06-.27-1.54-.33-.03,0-.06,0-.09-.01-.47-.06-.95-.09-1.44-.09-.62,0-1.25.05-1.88.15-.11,0-.21.03-.31.06-2.16.4-4.19,1.38-5.87,2.83-1.44,1.24-2.59,2.81-3.34,4.55l-.03.06-.02.05c-1.26,3.01-1.22,6.34.09,9.15.24.52,1.06,2.18,1.71,3.47l.04.09c.06.13.13.26.2.39l.02.04c.05.09.09.16.13.21.34.58.7,1.09,1.1,1.55,1.96,2.27,4.74,3.58,7.84,3.69.14,0,.28,0,.42,0,2.91,0,5.76-1.08,8.04-3.04,2.39-2.07,3.9-4.88,4.24-7.93.2-1.81-.02-3.57-.66-5.22v-.02ZM233.64,20.59c-.31,2.77-1.68,5.33-3.87,7.22-2.08,1.8-4.67,2.78-7.32,2.78-.13,0-.26,0-.39,0-2.79-.1-5.3-1.28-7.06-3.31-.4-.46-.73-.95-1.02-1.46-.02-.02-.03-.03-.04-.06,0,0-.02-.04-.04-.08-.08-.15-.15-.31-.23-.46-.47-.96-1.43-2.89-1.69-3.45-1.22-2.62-1.18-5.63-.05-8.31,0,0,0-.01.01-.02.66-1.56,1.69-3.01,3.06-4.19,1.62-1.4,3.52-2.26,5.45-2.6,0,0,0,0,0,0,.04-.02.07-.02.11-.02,0,0,0,0,.01,0,.59-.1,1.18-.15,1.77-.15.45,0,.89.03,1.33.09.01,0,.02,0,.04,0,.51.07,1,.18,1.49.33,0,0,0,0,0,0,.05,0,.1.02.14.04,1.68.52,3.21,1.46,4.41,2.86,2.04,2.36,3.2,5.87,3.25,6.01,0,0,0,.01,0,.02.58,1.47.81,3.1.62,4.77Z" />
      <path class="cls-5"
        d="M275.43,65.5c-1.68-4.92-6.11-8.23-11.01-8.23-1.16,0-2.3.19-3.4.57-.59.2-1.19.47-1.77.8-.05.02-.1.05-.16.09h-.02c-.23.14-.46.3-.74.49-1.11.73-2.53,1.66-2.98,1.98-2.55,1.76-4.25,4.62-4.69,7.85v.04s-.02.08-.02.08c-.23,1.89-.03,3.82.59,5.61.75,2.18,2.06,4.09,3.8,5.54.02.01.03.03.05.04h0s0,0,0,0c0,0,.01,0,.02.01.88.72,1.84,1.31,2.85,1.74.05.02.1.04.15.06.53.22,1.07.39,1.62.53l.12.04h.06c.79.18,1.57.27,2.34.27,1.16,0,2.3-.19,3.4-.57,3.15-1.08,6.09-3.66,6.21-3.77l.09-.08c3.73-3.03,5.13-8.27,3.48-13.1ZM271.16,77.84s-.01.02-.02.02c-.12.1-2.89,2.54-5.84,3.55-1,.34-2.03.51-3.04.51-.75,0-1.48-.09-2.21-.26,0,0,0,0,0,0,0,0-.01,0-.02,0-.53-.12-1.04-.29-1.55-.5-.02,0-.04-.01-.06-.02-.94-.4-1.83-.94-2.64-1.61-.01,0-.02-.02-.03-.02-1.53-1.27-2.76-3-3.47-5.06-.59-1.71-.75-3.48-.53-5.16,0,0,0-.02,0-.03.37-2.88,1.86-5.5,4.24-7.15.47-.33,2.04-1.36,2.98-1.97.23-.16.46-.32.7-.46.01,0,.03-.02.04-.02.01,0,.02,0,.03-.01.52-.3,1.07-.56,1.65-.76,1-.34,2.03-.51,3.04-.51,4.29,0,8.41,2.92,9.98,7.49,1.55,4.54.11,9.34-3.24,11.98Z" />
      <path class="cls-5"
        d="M19.74,42.6c-.32-.03-.65-.05-.98-.05s-.64.01-.97.04h-.19c-.26.04-.55.09-.89.15-1.31.2-2.97.46-3.52.56-3.05.55-5.79,2.44-7.52,5.2l-.03.04-.04.07c-.99,1.62-1.61,3.46-1.79,5.35-.22,2.21.15,4.44,1.07,6.43.03.1.07.19.13.28.52,1.05,1.17,2.01,1.95,2.84l.09.09h0c.31.32.65.63,1.04.95.09.1.19.18.31.24,1.58,1.19,3.42,1.92,5.34,2.11.4.04.83.06,1.28.06,2.93,0,5.82-.88,5.94-.91l.08-.02c1.7-.43,3.25-1.26,4.6-2.45,2.29-2.03,3.73-4.88,4.03-8.03.31-3.15-.54-6.23-2.41-8.67-1.88-2.47-4.55-3.99-7.53-4.28ZM28.58,55.44c-.28,2.87-1.59,5.47-3.67,7.32-1.26,1.11-2.71,1.86-4.25,2.24,0,0-.02,0-.02.01-.13.04-2.86.86-5.62.86-.39,0-.78-.02-1.17-.05-1.83-.18-3.48-.88-4.86-1.95-.05-.02-.1-.06-.13-.1-.39-.31-.76-.64-1.09-1,0,0,0,0,0,0-.72-.77-1.32-1.66-1.8-2.63-.02-.03-.04-.07-.05-.11,0,0,0,0,0,0-.83-1.77-1.23-3.82-1.02-5.95.18-1.8.76-3.48,1.66-4.92,0,0,0-.01.01-.02,1.53-2.47,3.97-4.24,6.82-4.75.56-.1,2.4-.39,3.51-.56.28-.05.56-.1.84-.13.02,0,.04,0,.04,0,0,0,0,0,0,0,0,0,.02,0,.03,0h0c.31-.03.63-.05.94-.05.29,0,.58.01.87.04,5.52.54,9.54,5.81,8.95,11.75Z" />
      <path class="cls-5"
        d="M80.21,62.03c-.8,0-1.6.1-2.37.29-.57.14-1.15.35-1.72.61-.06.02-.11.04-.16.07h-.01c-.22.11-.45.24-.72.4-1.09.59-2.47,1.34-2.92,1.59-2.52,1.44-4.35,3.97-5.02,6.95l-.02.05v.08c-.38,1.73-.35,3.56.08,5.29.71,2.88,2.43,5.33,4.84,6.9.26.17.55.34.89.52l.03.02h0c1.49.78,3.07,1.18,4.69,1.18.8,0,1.61-.1,2.39-.29,3.02-.75,5.97-2.92,6.09-3.01l.08-.06c3.74-2.53,5.47-7.32,4.32-11.96-1.26-5.07-5.57-8.62-10.48-8.62ZM85.66,81.77s-.01.01-.02.02c-.12.09-2.89,2.13-5.7,2.83-.7.17-1.42.26-2.13.26-1.44,0-2.87-.36-4.2-1.06,0,0-.02,0-.02-.01-.27-.14-.54-.3-.8-.47-2.17-1.42-3.73-3.64-4.37-6.25-.41-1.64-.41-3.29-.08-4.84,0,0,0-.01,0-.02.58-2.64,2.17-4.96,4.51-6.29.46-.26,2-1.09,2.92-1.59.22-.13.45-.26.68-.37.01,0,.03-.02.03-.02.01,0,.02,0,.03-.01.51-.24,1.04-.43,1.59-.57.7-.17,1.41-.26,2.11-.26,4.28,0,8.27,3.15,9.42,7.79,1.08,4.34-.65,8.68-3.97,10.86Z" />
      <path class="cls-5"
        d="M230.92,60.39l-.03-.06-.03-.04c-1.77-2.71-4.54-4.54-7.6-5.04-.57-.09-2.4-.35-3.84-.55h-.1c-.14-.04-.28-.06-.43-.07h-.02s-.05,0-.05,0h-.07s-.09-.01-.09-.01c-.02,0-.04,0-.06,0-.27-.02-.54-.03-.8-.03-.37,0-.74.02-1.09.06-2.84.32-5.42,1.75-7.25,4.05-1.95,2.45-2.86,5.69-2.5,8.9.57,5.02,4.09,9.13,8.78,10.25.02,0,.05.02.08.03.12.04,2.89.82,5.74.82.52,0,1.02-.03,1.49-.08,1.94-.22,3.79-.97,5.36-2.19.07-.04.13-.09.18-.14.39-.31.75-.66,1.09-1.02l.06-.04.08-.11h0c.15-.17.31-.35.47-.54.52-.65.98-1.39,1.37-2.2.07-.11.12-.22.16-.34.88-2,1.22-4.19.97-6.35-.21-1.87-.86-3.69-1.87-5.27ZM230.77,71.67s0,0,0,.01c0,.05-.03.09-.06.12-.35.74-.77,1.44-1.27,2.07-.15.18-.3.35-.46.53,0,0,0,.01-.02.02-.34.37-.71.72-1.1,1.03-.02.02-.05.04-.08.06-1.41,1.11-3.07,1.81-4.86,2.01-.45.05-.91.07-1.37.07-2.69,0-5.3-.74-5.43-.78-.01,0-.02-.01-.04-.02-4.15-.95-7.51-4.62-8.04-9.33-.33-2.92.49-5.87,2.27-8.1,1.65-2.07,3.96-3.36,6.52-3.64.33-.04.65-.05.97-.05.27,0,.54.01.81.03.02,0,.04,0,.05,0,0,0,.01,0,.02,0,.01,0,.05,0,.09.01.17.02.33.04.5.07,1.05.15,3.2.44,3.81.54,2.85.46,5.32,2.18,6.89,4.59,0,0,0,.02.01.02.91,1.41,1.52,3.06,1.73,4.84.23,2.03-.11,4.08-.93,5.89Z" />
      <polygon class="cls-1"
        points="272.29 33.17 274.93 38.02 280.42 38.6 276.62 42.61 277.76 48.01 272.78 45.63 268 48.39 268.72 42.92 264.62 39.22 270.05 38.21 272.29 33.17" />
      <path class="cls-4"
        d="M268,48.93c-.11,0-.21-.03-.3-.09-.17-.12-.26-.32-.24-.53l.68-5.19-3.89-3.5c-.15-.14-.22-.35-.16-.55.06-.2.22-.35.43-.39l5.15-.95,2.13-4.78c.08-.19.27-.32.48-.32.21,0,.4.1.5.29l2.5,4.6,5.2.55c.21.02.38.16.45.35.07.19.03.41-.12.56l-3.6,3.8,1.09,5.12c.04.2-.03.41-.2.54-.16.13-.39.15-.57.06l-4.72-2.25-4.53,2.61c-.08.05-.18.07-.27.07ZM265.81,39.56l3.28,2.96c.13.12.2.3.18.48l-.58,4.38,3.82-2.2c.16-.09.35-.1.51-.02l3.98,1.9-.92-4.32c-.04-.18.01-.36.14-.49l3.04-3.2-4.39-.46c-.18-.02-.34-.12-.42-.28l-2.11-3.88-1.8,4.03c-.07.16-.22.28-.4.31l-4.34.8ZM270.05,38.21h0,0Z" />
      <path class="cls-6"
        d="M192.27,97.12c-.11,0-.21-.03-.3-.09-.17-.12-.26-.32-.24-.53l.68-5.19-3.89-3.5c-.15-.14-.22-.35-.16-.55.06-.2.22-.35.43-.39l5.14-.95,2.13-4.78c.08-.19.27-.32.48-.32,0,0,.01,0,.02,0,.2,0,.38.11.48.29l2.5,4.6,5.2.55c.21.02.38.16.45.35.07.19.03.41-.12.56l-3.6,3.8,1.09,5.12c.04.2-.03.41-.2.54-.1.08-.22.12-.34.12-.08,0-.16-.02-.23-.05l-4.72-2.25-4.53,2.61c-.08.05-.18.07-.27.07Z" />
      <path class="cls-4"
        d="M196.57,81.36l2.63,4.85,5.49.58-3.8,4,1.14,5.4-4.98-2.38-4.78,2.76.72-5.47-4.1-3.7,5.43-1.01,2.25-5.04h0ZM196.57,80.26s-.03,0-.04,0c-.42.02-.79.27-.95.65l-2.01,4.52-4.86.9c-.41.08-.74.38-.85.78-.11.4.01.83.32,1.11l3.67,3.31-.65,4.9c-.05.41.13.82.48,1.05.18.12.39.18.61.18.19,0,.38-.05.55-.15l4.28-2.47,4.46,2.13c.15.07.31.11.47.11.24,0,.48-.08.68-.23.33-.26.48-.68.39-1.08l-1.03-4.84,3.4-3.59c.29-.3.38-.74.23-1.13-.14-.39-.5-.66-.91-.71l-4.92-.52-2.36-4.35c-.19-.35-.56-.57-.96-.57h0Z" />
      <polygon class="cls-1"
        points="136.03 71.29 139.8 78.23 147.66 79.06 142.22 84.79 143.86 92.52 136.73 89.12 129.89 93.06 130.92 85.23 125.05 79.94 132.82 78.5 136.03 71.29" />
      <path class="cls-4"
        d="M129.89,93.61c-.11,0-.21-.03-.3-.09-.17-.12-.27-.32-.24-.53l.99-7.55-5.65-5.1c-.15-.14-.22-.35-.16-.55.06-.2.22-.35.43-.39l7.48-1.39,3.1-6.95c.08-.19.27-.32.48-.32.21,0,.4.1.5.29l3.63,6.69,7.57.8c.21.02.38.16.45.35.07.19.03.41-.12.56l-5.24,5.52,1.58,7.45c.04.2-.03.41-.2.54-.16.13-.39.15-.57.06l-6.87-3.28-6.59,3.8c-.08.05-.18.07-.27.07ZM126.24,80.28l5.05,4.55c.13.12.2.3.18.48l-.89,6.73,5.88-3.39c.16-.09.35-.1.51-.02l6.13,2.92-1.41-6.64c-.04-.18.01-.36.14-.49l4.68-4.93-6.75-.71c-.18-.02-.34-.12-.42-.28l-3.24-5.97-2.77,6.2c-.07.16-.22.28-.4.31l-6.68,1.24ZM132.82,78.5h0,0Z" />
      <path class="cls-6"
        d="M53.12,53.47c-.11,0-.21-.03-.3-.09-.17-.12-.26-.32-.24-.53l.68-5.19-3.89-3.5c-.15-.14-.22-.35-.16-.55.06-.2.22-.35.43-.39l5.14-.95,2.13-4.78c.08-.19.27-.32.48-.32,0,0,.01,0,.02,0,.2,0,.38.11.48.29l2.5,4.6,5.2.55c.21.02.38.16.45.35.07.19.03.41-.12.56l-3.6,3.8,1.09,5.12c.04.2-.03.41-.2.54-.1.08-.22.12-.34.12-.08,0-.16-.02-.23-.05l-4.72-2.25-4.53,2.61c-.08.05-.18.07-.27.07Z" />
      <path class="cls-4"
        d="M57.42,37.71l2.63,4.85,5.49.58-3.8,4,1.14,5.4-4.98-2.38-4.78,2.76.72-5.47-4.1-3.7,5.43-1.01,2.25-5.04h0ZM57.42,36.61s-.03,0-.04,0c-.42.02-.79.27-.95.65l-2.01,4.52-4.86.9c-.41.08-.74.38-.85.78-.11.4.01.83.32,1.11l3.67,3.31-.65,4.9c-.05.41.13.82.48,1.05.18.12.39.18.61.18.19,0,.38-.05.55-.15l4.28-2.47,4.46,2.13c.15.07.31.11.47.11.24,0,.48-.08.68-.23.33-.26.48-.68.39-1.08l-1.03-4.84,3.4-3.59c.29-.3.38-.74.23-1.13-.14-.39-.5-.66-.91-.71l-4.92-.52-2.36-4.35c-.19-.35-.56-.57-.96-.57h0Z" />
      <path class="cls-6"
        d="M31.98,85.55c-.11,0-.21-.03-.3-.09-.17-.12-.26-.32-.24-.53l.68-5.19-3.89-3.5c-.15-.14-.22-.35-.16-.55.06-.2.22-.35.43-.39l5.15-.95,2.13-4.78c.08-.19.27-.32.48-.32,0,0,.01,0,.02,0,.2,0,.38.11.48.29l2.5,4.6,5.2.55c.21.02.38.16.45.35.07.19.03.41-.12.56l-3.6,3.8,1.09,5.12c.04.2-.03.41-.2.54-.1.08-.22.12-.34.12-.08,0-.16-.02-.23-.05l-4.72-2.25-4.53,2.61c-.08.05-.18.07-.27.07Z" />
      <path class="cls-4"
        d="M36.27,69.79l2.63,4.85,5.49.58-3.8,4,1.14,5.4-4.98-2.38-4.78,2.76.72-5.47-4.1-3.7,5.43-1.01,2.25-5.04h0ZM36.27,68.69s-.03,0-.04,0c-.42.02-.79.27-.95.65l-2.01,4.52-4.86.9c-.41.08-.74.38-.85.78-.11.4.01.83.32,1.11l3.67,3.31-.64,4.9c-.05.41.13.82.48,1.05.18.12.39.18.61.18.19,0,.38-.05.55-.15l4.28-2.47,4.46,2.13c.15.07.31.11.47.11.24,0,.48-.08.68-.23.33-.26.48-.68.39-1.08l-1.03-4.84,3.4-3.59c.29-.3.38-.74.23-1.13-.14-.39-.5-.66-.91-.71l-4.92-.52-2.36-4.35c-.19-.35-.56-.57-.96-.57h0Z" />
    </g>
  </g>
</svg>