<?xml version="1.0" encoding="UTF-8"?>
<svg id="Capa_2" xmlns="http://www.w3.org/2000/svg" viewBox="0 0 205.32 210.33">
  <defs>
    <style>
      .cls-1 {
        fill: aqua;
      }

      .cls-2 {
        fill: #29abe2;
      }

      .cls-3 {
        fill: #fff;
      }

      .cls-4 {
        fill: #862291;
      }

      .cls-5 {
        fill: #1b1464;
      }

      .cls-6 {
        fill: #fcee21;
      }

      .cls-7 {
        fill: #ed1e79;
      }
    </style>
  </defs>
  <g id="_0">
    <path class="cls-3"
      d="M205.32,112.96c0-20.16-9.33-39.38-26.29-54.24-1.13-2.74-3.05-6.19-5.72-10.88l-.05-.09c-1.2-2.12-2.45-4.3-3.55-6.36-1.65-3.07-2.86-6.01-3.59-7.95-.08-.22-.16-.42-.23-.61-.07-.41-.16-.86-.27-1.37l-1.89-9.17-.61-3.4c-.35-1.98-1.53-3.72-3.22-4.75-.87-.54-1.83-.88-2.83-1.01C149.06,4.65,137.55,0,124.4,0c-3.04,0-6.17.25-9.31.75-20.2,3.18-50.47,16.86-69.87,44.98-4.59,2.44-8.92,5.17-12.88,8.11-10.03,7.44-17.95,16.23-23.52,26.13C2.97,90.38,0,101.47,0,112.96c0,7.68,1.36,15.3,4.04,22.63,2.26,6.17,5.45,12.12,9.52,17.72l-8.55,12.57c-1.6,2.35-1.83,5.39-.59,7.95,1.23,2.55,3.75,4.27,6.59,4.48l8.75.65c.63.51,1.33,1.04,2.03,1.48,2.51,1.57,7.93,4.12,11.5,5.75l8.57,10.95c1.25,1.6,3.13,2.58,5.17,2.7.05,0,.1,0,.15,0h.14c.51.02,1.01-.04,1.5-.13,9.53,5.07,25.46,10.62,49.53,10.62,2.73,0,5.56-.07,8.39-.22,44.97-2.26,77.95-15.54,88.21-35.52,4.8-9.34,5.77-20.68,2.7-30.72,5.09-9.78,7.67-20.17,7.67-30.91ZM126.38,34.06c-4.65-.86-9.4-1.47-14.18-1.82l-2.79-4.82c3.2-1.01,6.39-1.77,9.5-2.26,1.86-.29,3.69-.44,5.43-.44.62,0,1.28.03,2.06.08,1.4.18,2.73.45,3.99.83l-4.02,8.43Z" />
    <path class="cls-4"
      d="M102.66,188.74c-25.15,0-49.01-7.43-67.18-20.93-12.58-9.32-21.74-21.09-26.47-34.05-2.46-6.75-3.71-13.75-3.71-20.81,0-20.94,10.72-40.43,30.2-54.86,12.27-9.11,27.43-15.59,43.83-18.72,7.57-1.46,15.42-2.19,23.35-2.19,53.69,0,97.37,34,97.37,75.78s-43.68,75.78-97.37,75.78Z" />
    <path class="cls-5"
      d="M102.66,38.06c53.28,0,96.49,33.53,96.49,74.9s-43.2,74.9-96.49,74.9c-25.86,0-49.34-7.89-66.66-20.75-12.25-9.08-21.42-20.64-26.17-33.64-2.38-6.52-3.66-13.4-3.66-20.51,0-21.3,11.45-40.52,29.84-54.16,11.96-8.88,26.87-15.39,43.47-18.57,7.43-1.43,15.19-2.18,23.18-2.18h0ZM102.66,36.29c-7.98,0-15.89.74-23.51,2.21-16.53,3.16-31.81,9.69-44.18,18.88-9.53,7.07-17.04,15.4-22.3,24.76-5.47,9.73-8.25,20.1-8.25,30.82,0,7.17,1.27,14.27,3.77,21.11,4.8,13.11,14.05,25.03,26.78,34.45,18.32,13.61,42.36,21.1,67.71,21.1s50.77-7.92,69.31-22.31c18.66-14.49,28.94-33.79,28.94-54.36s-10.28-39.87-28.94-54.36c-18.53-14.39-43.15-22.31-69.31-22.31h0Z" />
    <path class="cls-7"
      d="M164.08,163.99c-32.42,25.21-85.18,25.21-117.6,0-14.2-11.03-22.02-25.71-22.02-41.31s7.81-30.29,22.02-41.32c26.5-20.6,69.63-20.6,96.13,0,23.98,18.64,23.98,48.98,0,67.62-21.71,16.87-57.03,16.87-78.75,0-9.53-7.4-14.77-17.25-14.77-27.72s5.25-20.32,14.77-27.73c17.83-13.86,46.84-13.86,64.66,0,16.17,12.57,16.17,33.03,0,45.6-7.11,5.53-16.56,8.57-26.62,8.57s-19.52-3.04-26.63-8.57c-6.58-5.12-10.13-11.92-10.02-19.14,0-14.19,14.94-25.76,33.31-25.76,14.99,0,27.18,9.48,27.18,21.13,0,9.61-10.05,17.41-22.39,17.41-10.25,0-18.58-6.47-18.58-14.44,0-6.64,6.96-12.06,15.51-12.06,7.21,0,13.06,4.56,13.06,10.15,0,4.76-4.97,8.64-11.1,8.64-5.26,0-9.53-3.33-9.53-7.41,0-1.4,1.46-2.54,3.26-2.54s3.25,1.14,3.25,2.54c0,1.29,1.35,2.34,3.02,2.34,2.52,0,4.58-1.6,4.58-3.56,0-2.8-2.94-5.08-6.54-5.08-4.96,0-8.99,3.14-8.99,6.99,0,5.17,5.41,9.38,12.06,9.38,8.75,0,15.88-5.54,15.88-12.35,0-8.86-9.27-16.07-20.67-16.07-14.77,0-26.79,9.3-26.79,20.72-.1,5.88,2.79,11.39,8.11,15.53,5.87,4.57,13.7,7.08,22.02,7.08s16.13-2.51,22.01-7.08c13.63-10.6,13.63-27.84,0-38.43-15.29-11.89-40.15-11.88-55.44,0-8.3,6.45-12.86,15.02-12.86,24.14s4.56,17.69,12.86,24.14c19.17,14.9,50.36,14.9,69.52,0,21.44-16.67,21.44-43.78,0-60.45-23.96-18.63-62.95-18.63-86.91,0-12.97,10.08-20.11,23.48-20.11,37.74s7.14,27.65,20.11,37.73c29.87,23.22,78.5,23.23,108.38,0,33.34-25.92,33.34-68.1,0-94.02-33.58-26.11-86.18-28.64-123.45-7.59,11.96-8.88,26.87-15.39,43.47-18.57,30.09-2.88,61.54,4.64,84.6,22.56,35.88,27.9,35.88,73.3,0,101.19Z" />
    <path class="cls-7"
      d="M175.54,114.64c0,15.61-7.81,30.29-22.02,41.32-26.51,20.6-69.63,20.6-96.13,0-23.98-18.64-23.98-48.98,0-67.62,21.71-16.87,57.03-16.87,78.75,0,9.53,7.4,14.77,17.25,14.77,27.72s-5.25,20.32-14.77,27.73c-17.83,13.86-46.84,13.86-64.66,0-16.17-12.57-16.17-33.03,0-45.6,7.11-5.53,16.56-8.57,26.62-8.57s19.52,3.04,26.63,8.57c6.58,5.12,10.13,11.92,10.02,19.14,0,14.19-14.94,25.76-33.31,25.76-14.99,0-27.18-9.48-27.18-21.13,0-9.61,10.05-17.41,22.39-17.41,10.25,0,18.58,6.47,18.58,14.44,0,6.64-6.96,12.06-15.51,12.06-7.21,0-13.06-4.56-13.06-10.15,0-4.76,4.97-8.64,11.1-8.64,5.26,0,9.53,3.33,9.53,7.41,0,1.4-1.46,2.54-3.26,2.54s-3.25-1.14-3.25-2.54c0-1.29-1.35-2.34-3.02-2.34-2.52,0-4.58,1.6-4.58,3.56,0,2.8,2.94,5.08,6.54,5.08,4.96,0,8.99-3.14,8.99-6.99,0-5.17-5.41-9.38-12.06-9.38-8.75,0-15.88,5.54-15.88,12.35,0,8.86,9.27,16.07,20.67,16.07,14.77,0,26.79-9.3,26.79-20.72.1-5.88-2.79-11.39-8.11-15.53-5.87-4.57-13.7-7.08-22.02-7.08s-16.13,2.51-22.01,7.08c-13.63,10.6-13.63,27.84,0,38.43,15.29,11.89,40.15,11.88,55.44,0,8.3-6.45,12.86-15.02,12.86-24.14s-4.56-17.69-12.86-24.14c-19.17-14.9-50.36-14.9-69.52,0-21.44,16.67-21.44,43.78,0,60.45,23.96,18.63,62.95,18.63,86.91,0,12.97-10.08,20.11-23.48,20.11-37.74s-7.14-27.65-20.11-37.73c-29.87-23.22-78.5-23.23-108.38,0-31.75,24.69-33.26,64.12-4.53,90.21-12.25-9.08-21.42-20.64-26.17-33.64-3.67-21.36,5.03-43.78,26.09-60.15,32.42-25.21,85.18-25.21,117.6,0,14.2,11.03,22.02,25.71,22.02,41.31Z" />
    <path class="cls-3"
      d="M22.31,77.07c26.07-35.19,58.86-38.21,92.65-38.41-4.03-.4-8.14-.6-12.3-.6C49.37,38.06,6.17,71.6,6.17,112.96c0,17.11,7.4,32.88,19.84,45.49-15.01-18.31-28.98-47.25-3.7-81.38Z" />
    <path class="cls-1"
      d="M74.77,187.02c-.11,0-.23,0-.34,0h-.11s-.06,0-.06,0c-.19,0-.38.01-.57.01-4.5,0-7.63-1.36-9.29-4.04-1.93-3.11-2.14-6.8-.55-9.87,1.59-3.08,5.64-6.88,15.88-7.52,10.66-.66,17.95,4.24,20.46,9.38.68,1.39,1.01,2.83.95,4.16,0,1.49-.48,2.82-1.38,3.83-2.67,3.01-6.72,2.54-9.97,2.17-1.67-.19-3.39-.39-4.35-.06-.57.2-5.7,1.93-10.68,1.93ZM74.32,183.48h.44c4.47.01,9.32-1.65,9.52-1.72,1.72-.6,3.75-.36,5.9-.12,2.7.31,5.48.63,6.93-1.01.33-.37.5-.89.49-1.53v-.09c.04-.75-.17-1.61-.6-2.48h0c-1.99-4.09-8.04-7.97-17.07-7.41-8.59.53-11.79,3.35-12.96,5.62-1.01,1.95-.85,4.34.42,6.39.97,1.57,3.09,2.37,6.29,2.37.16,0,.31,0,.46,0h.16Z" />
    <path class="cls-1"
      d="M98.34,205.92c-24.52,0-40.17-5.87-49.23-11.08-.47.39-1.06.6-1.69.6h-.14c-.78-.05-1.49-.42-1.96-1.02l-9.23-11.8c-2.58-1.17-9.32-4.27-11.97-5.92-.73-.45-1.64-1.17-2.6-2.03l-10.2-.75c-1.26-.09-2.39-.86-2.94-2-.55-1.14-.45-2.5.26-3.54l13.27-19.51c.71-1.05,1.92-1.65,3.21-1.54l4.52.33c.21-.33.45-.6.72-.82.86-.69,2-.88,3.03-.51.72.26,1.35.82,1.96,1.76l4.85.36c.72.05,1.4.33,1.95.77.3-.42.56-.61.76-.75.73-.54,1.65-.73,2.52-.54,1.12.25,1.92.9,2.43,2.21l1.76-6.15h-10.43c-1.27,0-2.45-.68-3.08-1.78-.63-1.1-.63-2.46,0-3.55l2.61-4.53c-1.52-4.06-4.5-13.24-5.58-25.11-1.65-18,1.51-34.92,9.39-50.27C58.79,27.08,91.02,8.99,115.77,5.1c2.92-.46,5.82-.69,8.63-.69,12.7,0,23.61,4.7,30.82,13.24l.21-.06c.73-.21,1.52-.1,2.15.3.63.39,1.08,1.05,1.21,1.79l.62,3.46s2.26,10.91,2.24,10.93c.1.28.22.59.34.93.79,2.11,2.08,5.22,3.83,8.48,1.14,2.13,2.42,4.37,3.65,6.54,5.85,10.28,7.75,13.96,5.4,16.35-.17.17-2.52,2.01-4.17,1.86-2.2-.2-4.49-2.71-7.45-6.99l-4,4.86c-.35,3.37-.83,5.61-1.51,7.03-.71,1.48-3.1,3-4.56,3.2-.95.13-1.56-.23-1.89-.54l-11.9,14.46c.9.24,1.68.83,2.16,1.66l15.62,27.06c.49.06.92.12,1.25.17l.37.05c19.27,2.55,28.16,12.33,32.23,20.1h0c5.32,10.16,5.32,22.92,0,33.3-9.54,18.56-41.13,30.95-84.51,33.13-2.76.14-5.51.21-8.17.21ZM48.57,190.4l1.18.72c8.47,5.14,23.78,11.27,48.59,11.27,2.6,0,5.29-.07,7.99-.21,42.11-2.12,72.6-13.79,81.55-31.22,4.81-9.37,4.82-20.89.02-30.05h0c-3.68-7.02-11.79-15.89-29.57-18.24l-.39-.05c-.49-.07-1.26-.17-2.05-.26l-.89-.1-16.51-28.6-39.84,49.31,18.81-50.1-14.63-.03,15.89-33.39-16.35-28.34c-.31.18-.84.61-1.14,1.13l-52.75,92.07-1-4.41c-3.14-13.82-4.63-34.67,6.07-55.52,14.25-27.78,42.48-43.65,64.13-47.05,6.4-1.01,12.46-.57,17.6,1.25l-.71-1.25,5.95,3.78c.05.03.1.06.15.1l1.07.67-.02.05c.36.26.72.54,1.06.82l2.57,2.1-3.19.96-.08-.26-2.21,1.17-.27-.47-.02.04-16.24,33.32h.04l14.61.14-19.39,50.21.12-.14,34.26-41.66,1.04,2.94c.1.28.14.57.16.88.16-.14.29-.27.35-.37.34-.72.84-2.43,1.23-6.37l.05-.53,3.26-3.97h0s-2.79-4.95-2.79-4.95v-.49c.05-1.9.07-3.64.07-5v-5.56s3.21,4.55,3.21,4.55c.88,1.25,1.9,2.84,2.97,4.52,2.15,3.35,6.57,10.23,8.35,10.88.37-.14,1.06-.53,1.4-.77.19-1.43-3.32-7.61-5.9-12.14-1.25-2.19-2.53-4.45-3.7-6.62-2.57-4.79-4.2-9.3-4.78-11.01l-.47-1.4,1.29-.71c-.56-2.2-1.37-4.32-2.39-6.31l-.12-.23-.76-4.24-1.56.46-.92-1.18c-6.51-8.11-16.68-12.58-28.61-12.58-2.62,0-5.34.22-8.08.65-23.86,3.75-54.95,21.21-70.63,51.75-7.57,14.75-10.6,31.01-9.01,48.34,1.12,12.28,4.33,21.54,5.66,24.95l.31.79-3.46,5.99,15.12.04-3.9,13.65,25.39.03-2.13,6.72,27.27.03.07,1.69c.61,13.55,2.64,14.6,3.26,14.6.03,0,.06,0,.09,0,.11-.01,2.74-.53,2.86-14.53v-1.75h7.29l.14,1.61c.26,3.06.57,5.89.9,8.41,1.75,13.15,3.8,13.3,3.88,13.3.31-.05,2.58-.94,2.19-17.84-.03-1.21-.07-2.43-.12-3.64l-.08-1.84h55.83l-16.77-29.13,4.36,1.41c7.09,2.29,12.36,6.39,15.22,11.87,3.43,6.55,3.41,15.15-.06,21.91-3.19,6.2-11.01,12.09-22.04,16.57-13.48,5.48-31,8.8-52.08,9.86-2.52.13-5.02.19-7.46.19-20.71,0-33.92-4.61-41.35-8.47l-1.67-.87.57-.95-7.77-6.05,1.21-1.4c.47-.55.98-1.14,1.49-1.76l.58-.7,6.23.46,2.66-6.6-3.45-.29-.27-.55c-.16.04-.38.12-.69.26l-.41.19-10.88-.8.11-1.74c.04-.62.08-1.24.11-1.87.37-6.94.07-9.6-.2-10.62-.47,1.03-1.46,4.03-2.6,12.38l-.22,1.65-4.58-.34-.3-1.25c-.16-.67-.32-1.34-.49-2.01l-.13-.53,3.56-9.7-6.76-.53-.46-.86c-.12-.23-.23-.41-.32-.55l-.38,1.32-7.2-.53-13.29,19.52,11.45.88.45.43c.94.88,1.88,1.64,2.52,2.04,2.08,1.3,7.74,3.98,11.95,5.88l.4.18,9.16,11.71,1.07-1.07ZM59.75,182.46c7.25,3.57,19.62,7.56,38.69,7.56,2.37,0,4.82-.06,7.28-.19,20.69-1.04,37.82-4.27,50.93-9.6,10.25-4.17,17.43-9.46,20.23-14.91.15-.3.3-.61.44-.91-.02,0-.04,0-.06,0h-52.16c.02.62.04,1.25.05,1.87.4,17.01-1.64,20.8-5.05,21.39-.22.04-.44.06-.66.06-3.74,0-5.81-4.59-7.38-16.36-.28-2.12-.54-4.46-.78-6.96h-.56c-.26,10.71-2.1,15.75-5.89,16.25-.19.02-.37.04-.56.04-4.7,0-6.15-6.44-6.7-16.29h-23.88c-1.13,0-2.2-.54-2.87-1.45-.67-.91-.86-2.1-.52-3.17l.68-2.13h-20.55c-.63,0-1.25-.17-1.79-.49-.01,1.56-.08,3.35-.19,5.43,0,.05,0,.11,0,.16l6.52.48c.81-.33,2.27-.77,3.48-.09.2.11.38.24.54.39l1.65.12c1.13.08,2.16.7,2.75,1.66.6.96.7,2.15.29,3.2l-2.64,6.58c-.58,1.44-1.98,2.35-3.57,2.22l-3.71-.27,5.02,3.91c.49.38.82.91.96,1.51ZM168.44,138.47l10.65,18.44c.18-3.58-.53-7.18-2.14-10.25-1.77-3.38-4.67-6.16-8.5-8.19ZM110.48,121.53l-.83,2.22,1.88-2.33-1.04.11ZM124.36,20.31c-1.97,0-4.03.17-6.12.49-20.77,3.27-47.85,18.5-61.54,45.18-9.1,17.73-8.95,35.52-6.68,48.56L98.18,30.5c.81-1.43,2.63-2.97,4.16-2.97,1.27,0,2.45.68,3.08,1.78l15.61,27.04,16.14-33.12c-3.62-1.91-8.02-2.91-12.81-2.91ZM108.42,89.31h9.02c1.17,0,2.26.57,2.92,1.53.66.96.81,2.18.41,3.27l-5.47,14.57.14-.28,17.45-45.2-11.99-.11-12.48,26.21ZM142.18,25.49l.1.27c.23-.09.42-.27.51-.5.01-.03.03-.07.03-.11l-.64.34ZM142.76,24.55h0s0,0,0,0Z" />
    <path class="cls-5"
      d="M98.61,175.76c-2.25-4.62-8.92-9.01-18.76-8.4-9.41.58-13.04,3.89-14.42,6.57-1.3,2.51-1.12,5.55.48,8.13,1.52,2.45,4.59,3.2,7.79,3.2.21,0,.42,0,.63-.01.15,0,.29.01.44.01,4.73,0,9.76-1.72,10.1-1.84,1.33-.46,3.18-.25,5.12-.03,3,.34,6.4.73,8.45-1.59.63-.72.94-1.65.94-2.7.05-1.03-.21-2.17-.78-3.34Z" />
    <path class="cls-5"
      d="M189.47,140.1c-3.87-7.39-12.38-16.72-30.91-19.17l-.38-.05c-.5-.07-1.28-.18-2.09-.27l-16.06-27.82c-.29-.51-.82-.84-1.41-.89-.05,0-.09,0-.14,0-.54,0-1.05.24-1.39.67l-32.93,40.8,14.97-39.87c.21-.55.13-1.17-.2-1.65-.33-.48-.88-.77-1.47-.77h-11.82l14.69-30.87c.25-.53.23-1.15-.07-1.66l-16.37-28.36c-.32-.55-.91-.89-1.55-.89h0c-.64,0-1.98.93-2.63,2.08l-50.49,88.13c-2.89-12.72-4.73-33.57,5.92-54.32,13.97-27.23,41.62-42.78,62.83-46.11,2.18-.34,4.33-.52,6.39-.52,5.82,0,10.99,1.38,15.12,3.97l-1.46,2.99-16.22,33.28-1.24,2.55,2.83.03,12.07.11-18.4,47.66-5.45,10.5,1.45-.15,7.05-8.57,32.28-39.25c.22.62-.18,2.5.09,2.81.45.52,3.13-.97,3.67-2.11.54-1.14,1.03-3.21,1.4-6.98l2.91-3.54.78-.95-.6-1.07-2.55-4.51c.04-1.91.06-3.67.07-5.03,3.55,5.06,9.55,15.89,12.71,16.18.68.06,2.5-1.09,2.75-1.34,1.41-1.43-.44-5.04-5.67-14.23-1.24-2.18-2.52-4.43-3.68-6.58-2.18-4.05-3.65-7.87-4.38-9.95-.11-.3-2.15-10.57-2.15-10.57l-.69-3.82c-.05-.25-.19-.47-.41-.6-.21-.13-.48-.17-.72-.1l-1.34.39c-.07-.08-.12-.17-.19-.25-6.86-8.55-17.51-13.25-29.99-13.25-2.72,0-5.53.23-8.36.67-24.3,3.82-55.97,21.6-71.92,52.69-7.72,15.05-10.82,31.64-9.2,49.3,1.13,12.38,4.32,21.7,5.77,25.43l-3.03,5.25c-.32.55-.32,1.24,0,1.79h0s0,0,0,0c0,0,0,0,0,0,.32.55.91.89,1.55.89h12.76l-3.26,11.4c-.15.54-.05,1.12.29,1.57.34.45.87.71,1.43.71h22.96l-1.41,4.43c-.17.54-.08,1.14.26,1.6s.87.73,1.44.73h25.56c.51,11.47,2.05,16.29,5.02,16.29.11,0,.21,0,.32-.02,2.83-.38,4.3-5.85,4.39-16.27h3.91c.23,2.71.53,5.65.91,8.49,1.75,13.14,3.93,14.83,5.63,14.83.12,0,.24-.01.36-.03,1.88-.33,3.99-2.86,3.59-19.61-.03-1.22-.07-2.45-.12-3.67h53.99c.64,0,1.23-.34,1.55-.89.32-.55.32-1.24,0-1.79l-14.5-25.12c6.66,2.15,11.53,5.9,14.2,11.01,3.18,6.06,3.15,14.02-.06,20.28-2.99,5.83-10.5,11.42-21.14,15.74-13.29,5.41-30.62,8.68-51.51,9.73-2.49.12-4.97.19-7.37.19-20.35,0-33.27-4.49-40.53-8.28.09-.15.16-.32.14-.51-.02-.26-.14-.49-.34-.65l-6.93-5.39c.48-.55.99-1.16,1.51-1.78l5.33.39s.09,0,.13,0c.73,0,1.39-.44,1.66-1.12l2.64-6.58c.21-.53.16-1.13-.14-1.61-.3-.48-.82-.8-1.39-.84l-2.41-.18c-.11-.23-.29-.43-.52-.55-.47-.26-1.25-.14-2.31.34l-8.69-.64c.04-.62.08-1.25.11-1.89.61-11.4-.47-12.61-1.63-12.87-.37-.08-.76,0-1.09.24-1.49,1.08-2.73,7.77-3.58,14.06l-1.64-.12c-.16-.67-.33-1.35-.5-2.02l3.38-9.19c.19-.53.13-1.11-.18-1.59s-.81-.77-1.37-.82l-5.77-.43c-.52-.97-1.03-1.61-1.51-1.79-.46-.17-.94-.08-1.33.23-.31.25-.54.7-.72,1.3l-5.77-.43s-.09,0-.13,0c-.59,0-1.14.29-1.48.78l-13.27,19.51c-.36.53-.41,1.21-.13,1.78.28.58.84.96,1.48,1.01l10.81.8c1.05.99,2.06,1.8,2.79,2.25,2.8,1.75,10.75,5.36,12.16,5.99l9.5,12.14c.16.2.39.33.65.34.02,0,.04,0,.05,0,.24,0,.46-.09.63-.26l.79-.79c8.23,4.99,23.89,11.53,49.5,11.53,2.63,0,5.35-.07,8.08-.21,42.75-2.15,73.78-14.18,83.03-32.17,5.07-9.87,5.08-22.01.02-31.67ZM141.68,24.1h0c-.24.09-.43.28-.52.51-.09.24-.08.5.03.73l.25.5-.24-.43-1.59-2.82c.73.46,1.43.97,2.09,1.51Z" />
    <path class="cls-6"
      d="M51.68,140.66c-.21.19-7.31,14.56-3.65,16,3.18.7,22.7.42,22.7.42,0,0-1.89,4.78.26,5.74,2.15.97,26.61.72,26.61.72l-.6-7.13-45.32-15.76Z" />
    <path class="cls-6" d="M9.8,169.31s11.93-21.31,13.3-22.19c1.36-.88,16.99,3.07,16.99,3.07l-1.63,4.42-28.66,14.7Z" />
    <path class="cls-6"
      d="M72.79,184.5c-3.16,0-6.18-.74-7.68-3.16h0c-1.58-2.54-1.75-5.54-.48-8.01,1.36-2.64,4.94-5.9,14.22-6.47,9.7-.6,16.28,3.73,18.5,8.28,1.1,2.25,1.02,4.43-.2,5.81-2.12,2.39-5.61,1.99-8.7,1.64-2-.23-3.9-.45-5.27.03-.35.12-5.53,1.89-10.39,1.89Z" />
    <path class="cls-7"
      d="M42.24,135.5c-.35-.02-.66-.24-.79-.56-2.61-6.3-14.76-39.49,2.94-73.99C59.98,30.57,90.92,13.2,114.66,9.47c2.74-.43,5.47-.65,8.11-.65,12.04,0,22.31,4.53,28.9,12.75,2.74,3.41,4.71,7.33,5.85,11.65.07.25.02.52-.12.74-.15.22-.38.36-.64.4l-8.65,1.14s-.08,0-.12,0c-.39,0-.75-.25-.87-.63-.8-2.46-2.02-4.72-3.63-6.73-4.57-5.69-11.94-8.82-20.76-8.82-2.08,0-4.24.17-6.43.52-21.12,3.32-48.66,18.81-62.57,45.91-11.92,23.24-8.14,46.58-4.82,58.43.07.23.04.48-.08.69l-5.73,10.17c-.16.29-.47.46-.8.46-.02,0-.04,0-.05,0Z" />
    <path class="cls-5"
      d="M122.77,9.73c11.7,0,21.71,4.33,28.19,12.4,2.7,3.36,4.6,7.23,5.68,11.31l-8.65,1.14c-.81-2.5-2.07-4.88-3.78-7.02-4.79-5.96-12.41-9.16-21.47-9.16-2.12,0-4.32.18-6.58.53-21.35,3.36-49.18,19.01-63.24,46.4-12.14,23.67-8.14,47.48-4.89,59.09l-5.73,10.17c-2.11-5.09-14.79-38.72,2.91-73.22C60.65,31.27,91.29,14.07,114.81,10.37c2.72-.43,5.38-.64,7.96-.64h0ZM122.77,7.9c-2.68,0-5.46.22-8.25.66-23.97,3.77-55.21,21.3-70.95,51.97-7.62,14.85-10.67,31.21-9.08,48.64,1.24,13.56,4.99,23.42,6.11,26.12.27.65.88,1.08,1.58,1.12.04,0,.07,0,.11,0,.66,0,1.27-.35,1.59-.93l5.73-10.17c.24-.42.3-.92.17-1.39-3.28-11.72-7.03-34.8,4.75-57.76,13.76-26.82,41-42.14,61.9-45.43,2.14-.34,4.26-.51,6.29-.51,8.54,0,15.66,3.01,20.05,8.48,1.54,1.92,2.71,4.09,3.47,6.43.25.76.95,1.26,1.74,1.26.08,0,.16,0,.24-.02l8.65-1.14c.52-.07.99-.36,1.28-.79.29-.44.38-.98.25-1.48-1.17-4.44-3.2-8.47-6.02-11.98-6.78-8.44-17.29-13.09-29.62-13.09h0Z" />
    <path class="cls-4"
      d="M42.3,134.59l5.73-10.17c-.82-2.92-1.69-6.63-2.33-10.9-2.45,2.32-5.03,4.48-7.73,6.49,1.57,7.55,3.59,12.81,4.33,14.58Z" />
    <path class="cls-6"
      d="M37.55,141.55c-.9-.64-1.72-1.96-.16-4.81,13.33-24.31,57.47-102.14,59.69-103.94,2.66-2.16,2.5-1.33,2.5-1.33l-51.55,105.62s-9.86,4.9-10.48,4.46Z" />
    <path class="cls-6"
      d="M50.82,58.42C70.03,25.25,111.39,5.53,147.65,18.61c-8.02-7.32-19.71-10.31-32.84-8.24-23.52,3.7-54.16,20.9-69.6,51-11.42,22.27-10.19,44.16-7.31,58.26-1.57-21.22,1.59-42.58,12.93-61.21Z" />
    <path class="cls-7"
      d="M97.08,202.28c-31.8,0-47.86-10.26-53.29-14.68-.2-.16-.32-.4-.34-.66-.01-.26.08-.51.27-.69l6.18-6.18c.18-.18.41-.27.65-.27.19,0,.39.06.55.18,4.71,3.55,18.63,11.8,46.07,11.8,2.38,0,4.83-.06,7.3-.19,44.8-2.25,66.73-14.69,72.32-25.57,3.29-6.41,3.31-14.56.06-20.78-3.28-6.27-9.75-10.55-18.7-12.37-.25-.05-.47-.2-.6-.42l-5.8-9.58c-.18-.29-.18-.66,0-.95.17-.27.46-.44.78-.44.02,0,.04,0,.07,0,1.15.08,2.58.28,3.34.38l.38.05c17.91,2.36,26.1,11.34,29.83,18.45,4.86,9.28,4.86,20.95-.02,30.44-8.97,17.47-39.3,29.15-81.14,31.26-2.68.13-5.35.2-7.92.2Z" />
    <path class="cls-5"
      d="M152.55,122.41c1.37.1,3.15.36,3.67.43,17.51,2.31,25.51,11.05,29.13,17.96,4.73,9.03,4.72,20.37-.02,29.6-8.82,17.18-38.87,28.68-80.37,30.76-2.73.14-5.35.2-7.88.2-31.35,0-47.16-9.96-52.71-14.47l6.18-6.18c4.96,3.73,19.03,11.99,46.62,11.99,2.35,0,4.8-.06,7.35-.19,45.19-2.27,67.38-14.95,73.09-26.06,3.42-6.66,3.44-15.15.05-21.62-3.44-6.57-10.09-10.96-19.33-12.84l-5.8-9.58h0ZM152.55,120.58c-.63,0-1.22.33-1.56.87-.36.58-.36,1.31,0,1.9l5.8,9.58c.26.44.7.74,1.2.84,8.67,1.76,14.92,5.88,18.08,11.9,3.12,5.96,3.1,13.78-.06,19.93-2.94,5.73-10.33,11.23-20.8,15.49-13.1,5.33-30.17,8.55-50.75,9.59-2.45.12-4.9.19-7.26.19-27.16,0-40.88-8.12-45.52-11.62-.33-.25-.71-.37-1.1-.37-.47,0-.94.18-1.29.54l-6.18,6.18c-.37.37-.56.87-.53,1.39.03.52.27,1,.67,1.32,5.51,4.47,21.78,14.88,53.87,14.88,2.59,0,5.27-.07,7.97-.2,42.16-2.12,72.78-13.99,81.9-31.75,5.01-9.75,5.01-21.74.02-31.28-3.82-7.3-12.22-16.51-30.51-18.93l-.37-.05c-.78-.11-2.22-.31-3.41-.39-.04,0-.09,0-.13,0h0Z" />
    <path class="cls-4"
      d="M163.64,124.33c-2.26-.63-4.73-1.14-7.43-1.5-.52-.07-2.3-.33-3.67-.43l5.8,9.58c2.29.47,4.42,1.09,6.38,1.86-.86-3.14-1.27-6.36-1.08-9.51Z" />
    <path class="cls-4"
      d="M50.56,180.71l-6.18,6.18c2.11,1.71,5.69,4.21,11.03,6.64,1.39-2.53,2.97-5.01,4.74-7.43-4.61-1.99-7.73-4.01-9.58-5.4Z" />
    <path class="cls-6"
      d="M170.81,137.09c2.94,2.08,5.26,4.67,6.86,7.73,3.39,6.47,3.37,14.95-.05,21.62-5.71,11.11-27.9,23.79-73.09,26.06-25.93,1.3-41.43-4.42-49.36-8.83,4.68,6.18,30.4,13.06,60.73,10.84,12.64-.93,43.34-5.62,58.77-19.08,7.29-6.36,14.23-29.01-3.85-38.34Z" />
    <polygon class="cls-5" points="150.84 117.53 153.37 115.89 166.01 137.8 160.66 139.1 150.84 117.53" />
    <path class="cls-6"
      d="M11.49,170.74c-.33-.02-.61-.22-.76-.51-.14-.29-.12-.64.07-.91l13.08-19.23c.17-.25.45-.4.76-.4.02,0,14.95,1.1,14.95,1.1.29.02.55.17.7.42.16.24.19.54.09.81l-4.42,12.03,23.77,1.75c.29.02.55.18.71.43.15.25.18.55.07.82l-2.6,6.49c-.14.35-.48.57-.85.57-.02,0-45.57-3.36-45.57-3.36Z" />
    <path class="cls-5"
      d="M24.64,150.59c4.98.37,14.88,1.1,14.88,1.1l-4.84,13.16,24.98,1.84-2.6,6.49-45.5-3.36,13.08-19.23h0ZM24.64,148.76c-.6,0-1.17.3-1.51.8l-13.08,19.23c-.37.54-.42,1.23-.13,1.82.28.59.86.98,1.51,1.03l45.5,3.36s.09,0,.14,0c.74,0,1.42-.45,1.7-1.15l2.6-6.49c.22-.54.16-1.15-.15-1.65s-.83-.81-1.42-.85l-22.56-1.67,4-10.89c.2-.54.13-1.14-.18-1.62-.31-.48-.83-.79-1.4-.83l-14.88-1.1s-.09,0-.13,0h0Z" />
    <path class="cls-3"
      d="M46.89,191.92l9.59-9.59-7.56-5.89s9.22-10.52,7.56-11.45c-1.66-.92-12.11,8.4-12.11,8.4,0,0,2.46-22.6,0-23.15-2.46-.55-4.67,23.42-4.67,23.42,0,0-5.42-27.06-7.98-25s1.89,25.55,1.89,25.55c0,0-11.8-11.32-14.76-10.18-2.95,1.14,3.5,7.97,6.46,9.81,2.95,1.84,12.08,5.94,12.08,5.94l9.5,12.14Z" />
    <path class="cls-5"
      d="M46.89,192.83s-.04,0-.06,0c-.26-.02-.5-.14-.66-.35l-9.36-11.96c-1.41-.64-9.23-4.18-11.98-5.9-2.4-1.5-7.9-6.86-7.63-9.72.08-.8.55-1.41,1.33-1.71,2.68-1.04,9.71,4.85,13.69,8.47-1.44-8.09-3.46-21.78-1.06-23.71.39-.31.88-.39,1.34-.23,2.26.82,5.09,11.82,6.9,20.04.81-7.05,2.25-16.84,4.08-18.17.34-.24.73-.33,1.1-.25.78.17,3.09.69.95,21.81,6.21-5.38,10.04-7.72,11.4-6.97.35.19.58.52.65.93.33,1.92-4.18,7.55-7.33,11.19l6.8,5.3c.21.16.33.4.35.66.02.26-.08.52-.27.7l-9.59,9.59c-.17.17-.4.27-.65.27ZM19.43,164.84c-.1,0-.18.01-.25.04-.16.06-.16.1-.17.18-.15,1.57,4.07,6.31,6.78,8,2.86,1.79,11.88,5.84,11.97,5.88.14.06.25.15.35.27l8.86,11.32,8.13-8.13-6.75-5.26c-.2-.15-.32-.38-.35-.63-.02-.25.06-.5.22-.69,3.17-3.62,6.57-8.03,7.36-9.83-1.9.82-6.68,4.56-10.62,8.07-.28.25-.69.31-1.03.13-.34-.17-.53-.54-.49-.91.97-8.89,1.47-19.06.75-21.72-1.21,2.56-2.76,12.97-3.61,22.17-.04.45-.41.8-.86.83-.44.03-.85-.29-.94-.73-2.08-10.37-5.12-22.03-6.7-24.14-.91,2.39.47,14.11,2.4,24.34.07.39-.11.78-.46.97-.35.19-.78.13-1.07-.14-5.23-5.01-11.68-10.03-13.54-10.03Z" />
    <path class="cls-6"
      d="M174.88,160.44l-38.23-66.21-39.33,48.73,18.6-49.54h-14.44l15.68-32.95-16.14-27.96-62.23,107.78h14.92l-3.85,13.48h25.04l-2.11,6.66h102.09Z" />
    <path class="cls-5"
      d="M176.46,161.35h-104.92l2.11-6.66h-25.01l3.85-13.48h-15.29L101.02,30.69l17.17,29.74-15.27,32.08h14.31l-17.07,45.47,36.61-45.36,39.68,68.73ZM74.04,159.53h99.26l-36.77-63.69-42.05,52.1,20.12-53.6h-14.57l16.1-33.82-15.11-26.17-60.64,105.04h14.55l-3.85,13.48h25.08l-2.11,6.66Z" />
    <path class="cls-6"
      d="M72.79,161.35c-.29,0-.57-.14-.74-.37-.17-.24-.22-.54-.13-.82l1.74-5.47h-23.8c-.29,0-.56-.13-.73-.36-.17-.23-.23-.53-.15-.8l3.52-12.32h-13.71c-.33,0-.63-.17-.79-.46-.16-.28-.16-.63,0-.91l62.23-107.78c.16-.28.46-.46.79-.46s.63.17.79.46l16.14,27.96c.15.26.16.58.03.85l-15.06,31.65h13c.3,0,.58.15.75.39.17.25.21.56.1.84l-16.61,44.24,35.77-44.33c.17-.22.44-.34.71-.34.02,0,.05,0,.07,0,.3.02.57.19.72.45l38.23,66.21c.16.28.16.63,0,.91-.16.28-.46.46-.79.46h-102.09Z" />
    <path class="cls-5"
      d="M101.02,32.51l16.14,27.96-15.68,32.95h14.44l-18.6,49.54,39.33-48.73,38.23,66.21h-102.09l2.11-6.66h-25.04l3.85-13.48h-14.92l62.23-107.78h0ZM101.02,30.69c-.65,0-1.26.35-1.58.91l-62.23,107.78c-.33.57-.33,1.26,0,1.83.33.57.93.91,1.58.91h12.5l-3.19,11.16c-.16.55-.05,1.14.3,1.6s.89.73,1.46.73h22.55l-1.36,4.28c-.18.56-.08,1.16.27,1.63.34.47.89.75,1.47.75h102.09c.65,0,1.26-.35,1.58-.91.33-.57.33-1.26,0-1.83l-38.23-66.21c-.3-.52-.84-.86-1.44-.91-.05,0-.09,0-.14,0-.55,0-1.07.25-1.42.68l-32.22,39.92,14.62-38.93c.21-.56.13-1.19-.21-1.68s-.9-.79-1.5-.79h-11.55l14.44-30.34c.26-.54.23-1.18-.07-1.7l-16.14-27.96c-.33-.57-.93-.91-1.58-.91h0Z" />
    <path class="cls-7"
      d="M137.17,104.48s14.54,29.5-16.99,47.77c6.17-6.6,14.96-14.28,16.99-27.52,2.03-13.24-2.39-18.19-2.39-18.19l2.39-2.06Z" />
    <path class="cls-1"
      d="M108.16,80.21s-44.37-5.74-46.04,36.58c-.88,22.44,17.38,38.94,35.12,40.83,13.92,1.48,23.84-5.01,23.84-5.01,0,0-32.66,11.88-48.79-11.95-16.13-23.83-4.96-47.97,12.6-54.25,17.56-6.28,23.13-4.43,23.13-4.43l.66-1.75h-.51Z" />
    <path class="cls-7"
      d="M159.5,133.8l8.73,21.37-45.04,2.1c.06-4.77-.33-10.62-1.68-14.89-8.09,5.41-18.94,6.52-28.53,7.39,2.22,2.66,2.65,5.92,2.47,8.79l-22.39,1.04-.26.83h102.09l-15.38-26.64Z" />
    <path class="cls-7" d="M101.02,32.51l-62.23,107.78c.7,0,62.23-101.79,62.23-101.79l16.14,21.96-16.14-27.96Z" />
    <path class="cls-3"
      d="M67.24,181.01c-2.75-4.44-1.22-11.69,12.47-12.54,13.69-.84,19.73,8.75,16.82,12.04-2.91,3.28-9.33.07-13.01,1.35-3.69,1.28-13.53,3.59-16.28-.85Z" />
    <path class="cls-5"
      d="M73.85,184.5c-3.02,0-5.92-.71-7.36-3.03h0c-1.51-2.44-1.68-5.31-.46-7.68,1.31-2.53,4.73-5.65,13.62-6.2,9.3-.58,15.6,3.57,17.73,7.93,1.05,2.16.98,4.24-.19,5.57-2.03,2.29-5.38,1.91-8.33,1.57-1.92-.22-3.74-.43-5.05.03-.34.12-5.3,1.81-9.96,1.81ZM67.99,180.55c2.42,3.89,11.82,1.66,15.24.48,1.69-.59,3.8-.35,5.83-.11,2.77.32,5.39.62,6.81-.98.68-.77.66-2.13-.07-3.62-1.87-3.83-7.55-7.46-16.03-6.95-6.29.39-10.62,2.25-12.17,5.25-.94,1.81-.79,4.03.39,5.94h0Z" />
    <path class="cls-3"
      d="M130.3,102.1l-32.97,40.86,18.6-49.54h-14.44l3.88-8.15c-1.42-.18-2.87-.29-4.34-.29-3.17,0-6.23.43-9.14,1.25-.02,0-.04,0-.06.02-14.07,4-24.39,16.95-24.39,32.32,0,12.32,6.64,23.1,16.53,28.94.14.09.29.17.43.26,4.9,2.79,10.58,4.39,16.63,4.39,18.55,0,33.6-15.05,33.6-33.6,0-5.99-1.57-11.6-4.32-16.47Z" />
    <polygon class="cls-7" points="136.65 94.23 112.84 123.73 142.1 103.66 136.65 94.23" />
    <path class="cls-5"
      d="M77.01,149.83c-.1,0-.21-.03-.3-.1-5.91-4.62-10.37-10.77-12.89-17.8-.09-.25.04-.53.29-.62.25-.09.53.04.62.29,2.46,6.85,6.81,12.86,12.58,17.36.21.16.25.47.08.68-.09.12-.24.19-.38.19Z" />
    <path class="cls-5"
      d="M82.61,153.49c-.08,0-.16-.02-.23-.06-1.15-.62-2.29-1.3-3.38-2.03-.22-.15-.28-.45-.13-.67.15-.22.45-.28.67-.13,1.06.71,2.17,1.38,3.3,1.98.23.13.32.42.2.65-.09.16-.25.25-.42.25Z" />
    <path class="cls-5"
      d="M94.92,157.62s-.05,0-.08,0c-2.05-.32-4.09-.81-6.07-1.45-.25-.08-.39-.35-.31-.61.08-.25.36-.39.61-.31,1.92.63,3.91,1.1,5.92,1.42.26.04.44.29.4.55-.04.24-.24.41-.47.41Z" />
    <path class="cls-5"
      d="M101.02,158.09c-.8,0-1.6-.02-2.39-.07-.27-.02-.47-.24-.45-.51.02-.27.22-.49.51-.45.77.05,1.55.07,2.33.07,10.72,0,21.04-4.51,28.32-12.39.18-.19.49-.21.68-.03.19.18.21.49.03.68-7.46,8.07-18.04,12.7-29.02,12.7Z" />
    <path class="cls-5"
      d="M101.02,79.06c-.27,0-.48.22-.48.48s.22.48.48.48c2.24,0,4.43.2,6.56.57l.43-.9c-2.27-.41-4.61-.63-6.99-.63Z" />
    <path class="cls-5"
      d="M133.6,98.01c3.78,5.96,5.97,13.01,5.97,20.57,0,6.01-1.34,11.76-3.99,17.1-.12.24-.02.53.22.65.07.03.14.05.21.05.18,0,.35-.1.43-.27,2.71-5.48,4.09-11.37,4.09-17.53,0-7.87-2.31-15.2-6.29-21.37l-.64.79Z" />
    <path class="cls-5"
      d="M91.92,81.09c-.22,0-.42-.15-.47-.37-.06-.26.1-.52.36-.58,1.46-.35,2.95-.62,4.44-.79.26-.04.5.16.54.42.03.26-.16.5-.42.54-1.45.17-2.91.44-4.33.78-.04,0-.08.01-.11.01Z" />
    <path class="cls-5"
      d="M72.9,91.98c-.12,0-.24-.05-.33-.13-.19-.18-.2-.49-.01-.68,1.95-2.02,4.12-3.84,6.45-5.41.22-.15.52-.09.67.13.15.22.09.52-.13.67-2.27,1.53-4.39,3.3-6.29,5.28-.09.1-.22.15-.35.15Z" />
    <path class="cls-5"
      d="M62.39,124.73c-.24,0-.44-.17-.48-.41-.28-1.89-.41-3.82-.41-5.75,0-9,3.11-17.81,8.75-24.8.17-.21.47-.24.68-.07.21.17.24.47.07.68-5.5,6.82-8.54,15.41-8.54,24.2,0,1.87.14,3.76.41,5.61.04.26-.14.51-.41.55-.02,0-.05,0-.07,0Z" />
    <path class="cls-7"
      d="M72.35,105.19c6.21-13.03,19.47-18.84,31.68-17.14l1.09-2.3c-4.44-.84-8.95-.62-13.25.48-.02,0-.04,0-.06.02-14.07,4-24.39,16.95-24.39,32.32,0,12.32,6.64,23.1,16.53,28.94-13.98-8.51-18.98-27.87-11.61-42.32Z" />
    <path class="cls-7"
      d="M102.73,122.67c.83.05,1.59-.04,2.3-.24l.59-1.57c-1.78.93-4.15.82-5.54-.73-1.43-1.46-1.61-4.18.15-5.46,1.64-1.35,4.35-.54,4.48,1.69.22,2.12-3.1,3.01-3.31.65,0-.72-1.09-.72-1.1,0,0,.76.36,1.52.96,1.99,1.92,1.52,4.85-.39,4.58-2.7-.15-3.17-4-4.42-6.31-2.54-3.67,2.75-1.11,8.74,3.2,8.93Z" />
    <path class="cls-1"
      d="M128.87,104.76c-.08-.2-.17-.39-.25-.59l-1.69,2.09c.81,2.19,1.28,4.48,1.46,6.8l2.2-1.48c-.28-2.32-.85-4.62-1.72-6.82Z" />
    <path class="cls-7"
      d="M128.4,113.06c.7,8.81-3.02,17.96-10.2,23.31-5.49,4.32-12.54,5.63-19.07,4.35l-1.53,1.9c7.76,1.85,16.32.23,22.7-5.02,7.66-6.19,11.48-16.36,10.31-26.02l-2.2,1.48Z" />
    <path class="cls-1"
      d="M120.96,113.67l-1.77,2.19c0,1.19-.11,2.41-.37,3.67,0,0,0,0,0,0l2.12-1.43c.18-1.46.19-2.94.02-4.43Z" />
    <path class="cls-7"
      d="M118.82,119.53c-1.27,6.74-6.74,11.95-13.15,13.09l-1.6,1.99c9.02-.4,15.83-7.91,16.88-16.51l-2.12,1.43Z" />
    <path class="cls-7"
      d="M98.23,140.54c-6.38-1.49-12.16-5.48-15.35-11.61-5.5-10.14-1.2-24.25,9.44-29.04,6.97-3.33,14.82-1.82,20.22,2.53l.73-1.94c-6.12-4.61-14.75-5.78-21.79-2.41-14.53,6.71-17.46,26.82-6.05,37.82,3.35,3.38,7.56,5.62,12.03,6.71l.77-2.05Z" />
    <path class="cls-7"
      d="M100.53,134.42l.63-1.69c-.9-.12-1.81-.32-2.71-.61-4.27-1.36-8.03-4.61-9.55-8.84-2.48-6.31.46-14.26,6.65-17.15,5.64-2.64,11.22-.84,14.53,2.82l.65-1.73c-4.09-3.95-10.7-5.23-15.91-2.62-12.94,6.67-10.57,24.99,3.08,29.23.88.27,1.75.45,2.61.59Z" />
    <path class="cls-7"
      d="M103.19,127.32c-5.4.18-10.87-3.88-10.23-10.03.26-7.02,10.08-11.28,14.4-5.07.37.53.65,1.11.85,1.72l.65-1.74c-.13-.24-.27-.48-.43-.71-5.06-7.3-16.45-2.59-16.87,5.68-.84,6.28,4.99,11.65,11.05,11.66l.57-1.53Z" />
    <path class="cls-5"
      d="M129.64,102.92c2.56,4.65,4.01,9.98,4.01,15.65,0,17.99-14.64,32.63-32.63,32.63-5.67,0-11.25-1.47-16.13-4.26l-.44-.26c-9.9-5.85-16.06-16.63-16.06-28.11,0-14.52,9.74-27.43,23.69-31.39.02,0,.05-.01.07-.02,0,0,0,0,0,0,2.86-.8,5.84-1.21,8.86-1.21,1.32,0,2.62.09,3.9.24l.87-1.83c-1.56-.22-3.15-.34-4.77-.34-3.2,0-6.36.43-9.4,1.29-.02,0-.04.01-.06.02,0,0-.02,0-.03,0-14.76,4.2-25.06,17.87-25.06,33.23,0,12.17,6.51,23.58,17,29.77l.45.27c5.19,2.96,11.1,4.52,17.1,4.52,19.06,0,34.56-15.5,34.56-34.56,0-6.29-1.7-12.18-4.64-17.26l-1.3,1.61Z" />
    <path class="cls-5"
      d="M96.99,178.61c-.07,0-.14-.02-.2-.05-1.04-.52-2.27-.97-3.65-1.34-.24-.07-.39-.32-.32-.56.07-.25.32-.39.56-.32,1.44.39,2.72.86,3.81,1.4.23.11.32.39.21.61-.08.16-.24.25-.41.25Z" />
    <path class="cls-5"
      d="M91.49,176.83s-.06,0-.09,0c-.33-.07-.67-.13-1.01-.19-.25-.04-.41-.28-.37-.53.04-.25.28-.42.53-.37.35.06.69.12,1.03.19.25.05.41.29.36.54-.04.22-.23.36-.45.36Z" />
    <path class="cls-5"
      d="M89.03,176.41s-.04,0-.06,0c-.95-.13-1.95-.22-2.97-.28-.25-.01-.44-.23-.43-.48.01-.25.22-.46.48-.43,1.04.06,2.06.16,3.04.29.25.03.43.26.39.51-.03.23-.23.4-.45.4Z" />
    <path class="cls-5"
      d="M79.75,176.21c-.23,0-.43-.18-.45-.42-.02-.25.16-.47.42-.49,1.37-.12,2.77-.17,4.16-.16.25,0,.45.21.45.46,0,.25-.21.45-.46.45-.15.02-.27,0-.4,0-1.24,0-2.47.05-3.68.16-.01,0-.03,0-.04,0Z" />
    <path class="cls-5"
      d="M70.72,178.22c-.18,0-.35-.11-.42-.28-.09-.23.02-.5.25-.59,1.87-.76,4.04-1.34,6.44-1.71.26-.03.48.13.52.38.04.25-.13.48-.38.52-2.33.36-4.43.92-6.24,1.66-.06.02-.11.03-.17.03Z" />
    <path class="cls-5"
      d="M67.08,180.24c-.14,0-.28-.06-.36-.18-.15-.2-.11-.49.09-.64.54-.41,1.15-.8,1.81-1.16.22-.12.5-.04.62.18.12.22.04.5-.18.62-.62.34-1.19.7-1.7,1.08-.08.06-.18.09-.27.09Z" />
    <path class="cls-5"
      d="M74.63,179.52s-.77-5.28-.94-6.37c-.04-.25.13-.48.38-.52.25-.04.48.13.52.38.18,1.1.95,6.39.95,6.39l-.9.13Z" />
    <path class="cls-5"
      d="M81.97,179.91c-.24,0-.44-.18-.45-.42l-.08-1.15c-.02-.25.17-.47.42-.49.25-.02.47.17.49.42l.08,1.15c.02.25-.17.47-.42.49-.01,0-.02,0-.03,0Z" />
    <path class="cls-5"
      d="M81.78,177.24c-.24,0-.44-.18-.45-.42l-.24-3.22c-.02-.25.17-.47.42-.49.25-.01.47.17.49.42l.24,3.22c.02.25-.17.47-.42.49-.01,0-.02,0-.03,0Z" />
    <path class="cls-5"
      d="M81.43,172.52c-.24,0-.44-.18-.45-.42l-.1-1.33c-.02-.25.17-.47.42-.49.26-.02.47.17.49.42l.1,1.33c.02.25-.17.47-.42.49-.01,0-.02,0-.03,0Z" />
    <path class="cls-5"
      d="M87.86,179.6c-.25,0-.46-.2-.46-.46v-7.47c0-.25.2-.46.46-.46s.46.2.46.46v7.47c0,.25-.2.46-.46.46Z" />
    <polygon class="cls-6"
      points="137.67 24.12 135.81 24.55 117.32 63.32 131.31 63.32 111.61 119.63 141.09 58.18 126.35 58.79 137.67 24.12" />
    <polygon class="cls-6" points="134.91 61.63 120.34 61.5 137.72 25.83 158.06 61.83 114.29 115.05 134.91 61.63" />
    <path class="cls-5"
      d="M137.78,27.79l19.18,33.94-39.78,48.37,19.05-49.36-14.44-.13,15.99-32.81h0ZM137.66,23.87l-1.52,3.12-15.99,32.81-1.27,2.6,2.89.03,11.8.11-18.1,46.9-4.08,10.57,7.19-8.75,39.78-48.37.8-.97-.62-1.09-19.18-33.93-1.71-3.03h0Z" />
    <path class="cls-4" d="M156.96,61.73l-16.88-29.86c3.36,12.16,7.87,24,12.05,35.73l4.83-5.87Z" />
    <path class="cls-3"
      d="M150.53,69.55c-5.01-9.06-14.08-15.58-24.78-17.06l-3.95,8.11,14.44.13-19.05,49.36,33.35-40.55Z" />
    <path class="cls-5"
      d="M149.86,70.35l1.31-1.6c-5.14-9.06-14.26-15.59-24.99-17.18l-.89,1.82c10.65,1.37,19.69,7.89,24.56,16.96Z" />
    <path class="cls-7" d="M118.11,107.68l-.79,2.05s.09.02.14.03l1.55-1.88c-.3-.06-.6-.12-.9-.19Z" />
    <path class="cls-7"
      d="M127.53,53.44c-.67-.18-1.34-.34-2.01-.47l-1.12,2.29c9.44,1.4,18.19,7.29,22.51,17.76.08.22.15.44.22.66l1.71-2.08c-3.62-9.05-11.9-15.86-21.31-18.16Z" />
    <path class="cls-7"
      d="M129.01,79.46l-.67,1.73c.76,2.49.02,5.44-2.38,6.75-.09.05-.18.09-.27.13l-.6,1.56c4.18-1.13,6.08-6.19,3.93-10.18Z" />
    <path class="cls-7"
      d="M133.95,79.16c-.65-1.81-1.71-3.38-3.03-4.68l-.67,1.73c3.68,4.14,4.47,10.61-.74,15.73-1.79,1.72-4.06,2.52-6.33,2.57l-.59,1.52c.34,0,.68,0,1.03-.03,8.01-.39,13.24-9.57,10.32-16.84Z" />
    <path class="cls-7" d="M121.12,99.9l-.65,1.68c1.21.2,2.39.26,3.53.22l1.62-1.97c-1.47.25-2.98.28-4.5.07Z" />
    <path class="cls-7"
      d="M138.19,72.83c-1.25-1.98-2.85-3.67-4.67-5.07l-.75,1.93c3.95,3.24,6.57,8.01,6.52,13.51l1.79-2.17c-.29-2.78-1.21-5.58-2.89-8.2Z" />
    <path class="cls-5"
      d="M128.46,46.93l-.44.9c10.91,1.98,20.22,8.57,25.86,17.65l.65-.79c-5.75-9.09-15.11-15.69-26.07-17.76Z" />
    <path class="cls-2"
      d="M117.88,184.77c-3.95,0-5.69-16.62-6.41-27.49-.48,2-1.21,3-2.19,3.03h0c-.96,0-1.65-.9-2.16-2.11.16,8.32-.32,19.15-3.92,19.63-.09.01-.18.02-.26.02-3.95,0-4.59-12.02-4.7-22.5,0-.84-.02-1.45-.03-1.74,0-.39-.36-.56-1.17-.85-.89-.32-2.1-.75-2.1-2.16,0-2.13.68-4.3,5.76-4.3.15,0,.31,0,.47,0,3.34.08,4.44,1.24,5.16,2.01.41.43.61.63.98.63.07,0,.15,0,.23-.02.56-.09.88-.63,1.41-1.56.76-1.35,1.8-3.2,4.68-3.81.76-.16,1.48-.24,2.14-.24,2.78,0,4.18,1.42,4.34,2.83.04.38,3.95,37.58-1.95,38.61-.09.02-.19.02-.28.02Z" />
    <path class="cls-5"
      d="M115.77,143.75c2.57,0,3.76,1.29,3.88,2.43.27,2.53,3.56,37.21-1.57,38.11-.07.01-.13.02-.2.02-4.44,0-5.96-26.3-6.23-31.92,0-.03,0-.04,0-.04-.04,0-.22,7.43-2.37,7.5,0,0-.02,0-.03,0-1.78,0-2.58-5.04-2.67-5.04,0,0-.01.05,0,.16.23,5.7.53,21.87-3.43,22.4-.07,0-.14.01-.2.01-4.59,0-4.15-21.49-4.28-23.81,0-1.56-3.27-.95-3.27-2.99,0-1.86.48-3.84,5.31-3.84.15,0,.3,0,.46,0,4.96.12,4.55,2.64,6.16,2.64.1,0,.2,0,.31-.03,1.99-.34,1.63-4.42,6.1-5.37.76-.16,1.44-.23,2.04-.23h0ZM115.77,142.84c-.69,0-1.44.08-2.23.25-3.08.65-4.18,2.6-4.98,4.03-.44.79-.73,1.27-1.09,1.33-.06,0-.11.01-.16.01-.17,0-.26-.07-.65-.48-.78-.82-1.95-2.07-5.48-2.16-.17,0-.33,0-.48,0-5.51,0-6.22,2.54-6.22,4.76,0,1.73,1.5,2.27,2.4,2.59.29.11.79.28.87.4,0,.32.01.96.02,1.77.18,16.3,1.67,22.95,5.16,22.95.11,0,.21,0,.32-.02,3.01-.4,4.47-6.56,4.35-18.34.45.51.98.83,1.64.83,0,0,.04,0,.05,0,.77-.02,1.39-.45,1.88-1.31.25,3.36.62,7.33,1.12,11.13,1.73,12.98,3.89,14.65,5.58,14.65.12,0,.24-.01.36-.03,1.87-.33,3.96-2.82,3.57-19.37-.2-8.64-1.03-17.77-1.24-19.74-.17-1.61-1.72-3.24-4.79-3.24h0Z" />
    <path class="cls-1"
      d="M99.78,147.77c3.37-.39,5.61,2.73,7.87,2.16,2.27-.57,3.47-6.42,11.45-4.93-.8-.94-2.52-1.61-5.38-1.01-4.48.95-4.12,5.03-6.1,5.37-1.99.34-1.21-2.48-6.47-2.61s-5.77,1.92-5.77,3.84c0,.58.27.94.65,1.2-.81-.94.37-3.62,3.74-4.01Z" />
    <path class="cls-1"
      d="M98.74,158.88c.17,7.23.87,18.96,4.39,18.49,1.15-.15,1.94-1.63,2.48-3.78-4.59,2.44-5.86-9.11-6.87-14.7Z" />
    <path class="cls-1"
      d="M111.7,153.41c.39,7.33,2.02,31.64,6.38,30.88.98-.17,1.65-1.59,2.1-3.78-6.01,2.43-8.39-30.4-8.52-30.48-.12-.08.04,3.38.04,3.38Z" />
    <path class="cls-1"
      d="M106.82,155.77c.37,1.47,1.15,4.11,2.45,4.07.24,0,.46-.12.65-.29-.74-.2-3.29-7.5-3.66-7.5s.15,2.27.56,3.73Z" />
    <path class="cls-3"
      d="M148.57,23.35l-8.47,3.12,4.97,10.01s-14.23,10.61-13.75,12.37c.48,1.76,15.32-5.28,14.54-4.36-.77.93-9.03,23.51-5.78,25.41,3.25,1.9,9.64-22.23,9.5-21.36-.15.87-.36,25.24,2.78,25.14,3.14-.1,2.79-25.07,2.79-25.07,0,0,13.07,19.33,15.51,16.86,1.41-1.43-4.9-11.17-9.36-19.48-3.27-6.08-4.93-11.57-4.93-11.57l-2.28-12.68-5.53,1.61Z" />
    <path class="cls-5"
      d="M152.34,74.59c-.34,0-.83-.12-1.28-.64-1.9-2.19-2.35-12.3-2.42-19.13-4.12,13.18-6.24,15.47-7.5,15.97-.51.21-1.05.17-1.51-.1-.57-.34-.95-.97-1.11-1.89-.79-4.52,3.66-17.77,5.72-22.89-.58.23-1.24.49-1.87.74-6.79,2.72-10.03,3.83-11.28,3.21-.33-.16-.56-.44-.65-.78-.16-.58-.63-2.31,13.47-12.88l-4.63-9.33c-.12-.23-.13-.5-.03-.74.1-.24.29-.43.53-.52l8.47-3.12s.04-.01.06-.02l5.53-1.61c.25-.07.52-.04.74.1.22.14.37.36.42.62l2.27,12.62c.17.55,1.82,5.73,4.84,11.35,1.14,2.12,2.4,4.34,3.62,6.49,5.17,9.08,6.99,12.64,5.59,14.07-.25.26-.7.55-1.39.48-3.11-.29-10.33-10.02-13.85-15.03,0,2.42-.05,6.02-.23,9.59-.6,12.32-2.1,13.4-3.45,13.44-.02,0-.03,0-.05,0ZM149.49,47.59c.09,0,.19.01.3.04.47.11.77.59.69,1.07-.28,2.39.02,21.7,1.86,23.96,1.36-1.73,2.05-13.59,1.9-24.04,0-.4.25-.76.64-.88.38-.12.8.02,1.03.36,5.36,7.93,12.15,16.32,14.06,16.66.03-1.53-3.34-7.45-5.82-11.82-1.23-2.16-2.5-4.39-3.65-6.53-3.27-6.09-4.93-11.51-5-11.74-.01-.03-.02-.07-.02-.1l-2.1-11.68-4.52,1.32-7.48,2.75,4.52,9.1c.2.4.08.87-.27,1.14-5.39,4.02-11.34,8.93-12.98,10.95,2-.38,6.64-2.23,9.05-3.2,4.26-1.71,4.43-1.77,4.94-1.07.25.34.2.87-.06,1.19-1.69,2.62-7.89,22.4-6.07,24,.52-.21,2.77-2.19,7.9-19.81.32-1.1.49-1.68,1.09-1.68Z" />
    <path class="cls-1"
      d="M106.82,150.92c-.03-.12-.09-.22-.18-.3-.05-.04-.09-.07-.14-.11-.11-.06-.22-.09-.35-.09-.09,0-.18.02-.26.06-.09.03-.16.07-.22.14-.07.06-.11.14-.14.22-.04.08-.06.17-.06.26l.02.18c.03.12.09.22.18.3.05.04.09.07.14.11.11.06.22.09.35.09.09,0,.18-.02.26-.06.09-.03.16-.07.22-.14.07-.06.11-.14.14-.22.04-.08.06-.17.06-.26,0-.06-.02-.12-.02-.18Z" />
    <path class="cls-1"
      d="M102.76,164.6c-.12-1.2-.28-2.4-.43-3.6-.3-2.42-.89-4.81-1.18-7.23-.07-.58-.88-.6-.93,0-.2,2.53-.51,4.96-.33,7.51.09,1.23.21,2.44.42,3.65.19,1.08.63,2.49,1.32,3.36.27.35.79.1.91-.24.35-.99.32-2.42.22-3.45Z" />
    <path class="cls-1"
      d="M115.85,159.12c-.17-1.21-.31-2.43-.54-3.63-.24-1.21-.62-2.33-.95-3.51-.1-.37-.61-.27-.64.09-.1,1.24-.26,2.42-.25,3.67.02,1.22.12,2.46.25,3.67.25,2.39.5,4.95,1.32,7.22.25.7,1.22.57,1.29-.17.2-2.4-.15-4.95-.48-7.34Z" />
    <path class="cls-1" d="M43,125.33c-.51-.09-25.28-4.55-25.28-4.55v11.57l25.28-7.02Z" />
    <polygon class="cls-1" points="33.65 106.25 21.15 85.98 17.71 96.67 33.65 106.25" />
    <polygon class="cls-1" points="39.44 119.36 9.79 104.91 9.79 112.94 39.44 119.36" />
    <path class="cls-6" d="M43,125.33c-.51-.09-23.51-6.5-23.51-6.5v11.57l23.51-5.06Z" />
    <polygon class="cls-6" points="33.4 105.97 22.93 84.02 19.49 94.71 33.4 105.97" />
    <polygon class="cls-1" points="152.01 103.01 178.79 101.26 177.87 111.82 152.01 103.01" />
    <polygon class="cls-1" points="147.65 96.03 173.58 84.39 181.79 93.05 147.65 96.03" />
    <polygon class="cls-1" points="147.52 90.56 158.93 79.83 171.11 81.66 147.52 90.56" />
    <polygon class="cls-6" points="152.01 103.01 177.15 99.2 176.23 109.76 152.01 103.01" />
    <polygon class="cls-6" points="147.65 96.03 170.91 83.32 179.11 91.98 147.65 96.03" />
    <polygon class="cls-6" points="147.52 90.56 156.26 78.76 168.44 80.59 147.52 90.56" />
    <polygon class="cls-6" points="39.44 119.36 11.57 102.96 11.57 110.99 39.44 119.36" />
    <path class="cls-5"
      d="M19.49,130.85c-.1,0-.2-.03-.29-.1-.11-.09-.17-.22-.17-.36v-11.57c0-.14.07-.28.18-.36.11-.09.26-.12.4-.08,7.89,2.2,22.95,6.39,23.47,6.5.21.04.37.23.37.45,0,.22-.15.4-.36.45l-23.51,5.06s-.06,0-.1,0ZM19.95,119.43v10.4l21.11-4.55c-4.86-1.33-17.77-4.92-21.11-5.85Z" />
    <path class="cls-5"
      d="M33.4,106.42c-.1,0-.2-.03-.29-.1l-13.91-11.25c-.15-.12-.21-.32-.15-.5l3.44-10.69c.06-.18.22-.3.4-.32.18-.02.36.09.44.26l10.47,21.94c.09.19.04.42-.13.55-.08.07-.18.1-.28.1ZM20.02,94.55l12.1,9.79-9.11-19.09-2.99,9.3Z" />
    <path class="cls-5"
      d="M176.23,110.21s-.08,0-.12-.02l-24.22-6.75c-.21-.06-.35-.25-.33-.47.01-.21.17-.39.39-.42l25.14-3.81c.14-.02.28.02.38.12.1.1.15.23.14.37l-.92,10.56c-.01.14-.08.26-.19.34-.08.05-.17.08-.26.08ZM154.19,103.14l21.64,6.03.82-9.43-22.46,3.4Z" />
    <path class="cls-5"
      d="M147.65,96.49c-.2,0-.37-.13-.43-.32-.07-.21.02-.44.22-.54l23.26-12.71c.18-.1.41-.07.55.09l8.21,8.66c.12.12.16.31.1.47-.06.16-.2.28-.37.3l-31.47,4.05s-.04,0-.06,0ZM170.82,83.89l-20.82,11.38,28.17-3.63-7.35-7.76Z" />
    <path class="cls-5"
      d="M147.52,91.02c-.13,0-.26-.06-.35-.17-.13-.16-.14-.39-.01-.56l8.75-11.8c.1-.14.27-.21.44-.18l12.18,1.84c.2.03.35.19.38.38.03.2-.07.39-.26.48l-20.92,9.97c-.06.03-.13.04-.2.04ZM156.46,79.25l-7.49,10.11,17.92-8.54-10.43-1.57Z" />
    <path class="cls-5"
      d="M39.44,119.82s-.09,0-.13-.02l-27.88-8.37c-.19-.06-.33-.24-.33-.44v-8.03c0-.16.09-.31.23-.4.14-.08.32-.08.46,0l27.88,16.4c.2.12.28.36.19.58-.07.17-.24.27-.42.27ZM12.02,110.65l23.92,7.19-23.92-14.08v6.89Z" />
  </g>
</svg>