<?xml version="1.0" encoding="UTF-8"?>
<svg id="Capa_2" xmlns="http://www.w3.org/2000/svg" viewBox="0 0 150.92 217.38">
  <defs>
    <style>
      .cls-1 {
        fill: #29abe2;
      }

      .cls-2 {
        fill: #fff;
      }

      .cls-3 {
        fill: #862291;
      }

      .cls-4 {
        fill: #1b1464;
      }

      .cls-5 {
        fill: #fcee21;
      }

      .cls-6 {
        fill: #ed1e79;
      }

      .cls-7 {
        fill: #ccc;
      }
    </style>
  </defs>
  <g id="_0">
    <path class="cls-2"
      d="M149.94,155.55c-.09-.14-.19-.28-.29-.42l-.17-.22c-.1-.12-.2-.24-.31-.36-1.56-1.6-3.92-2.15-6.18-1.44l-.51.16c-.45.14-.87.36-1.24.63l-.16.12c-.05.04-.11.08-.16.12-.23-.13-.46-.23-.71-.32l-.29-.1c-.26-.09-.52-.17-.76-.23,0,0-.01,0-.02,0-.01,0-.03-.01-.04-.02v-57.73c0-5.37-2.34-10.29-6.2-13.66,2.72-1.53,4.57-4.45,4.57-7.79,0-4.93-4.01-8.94-8.94-8.94-1.19,0-2.32.24-3.35.66v-9.59c0-2.42-1.34-4.54-3.31-5.65v-4.29c0-5.74-4.67-10.41-10.41-10.41s-10.41,4.67-10.41,10.41v4.63c-1.06-.74-2.33-1.17-3.7-1.17h-6.16v-21.29c0-3.75-1.97-7.04-4.93-8.91,2.94-1.72,4.93-4.9,4.93-8.55v-1.28c0-5.46-4.44-9.91-9.91-9.91h-1.28c-5.46,0-9.91,4.44-9.91,9.91v1.28c0,1.02.16,2.01.44,2.93l-6.37.47c-.75-3.65-3.98-6.4-7.85-6.4-4.42,0-8.01,3.59-8.01,8.01v16.77c-.92,2.5-3.28,3.55-6.5,2.66-1.98-1.65-4.52-2.66-7.29-2.66h-1.43c-6.27,0-11.38,5.1-11.38,11.38v5.6h-9.28c-1.72,0-3.39.7-4.6,1.91-1.21,1.22-1.89,2.9-1.88,4.62l.03,4.24c-2.29,1.42-3.82,3.95-3.82,6.83v8.67c0,2.69,1.33,5.07,3.36,6.53-3.49,3.39-5.51,8.06-5.51,13.01v89.36c0,5.56,2.59,10.79,6.89,14.21v11.86c0,1.74.69,3.35,1.94,4.52,1.16,1.09,2.67,1.69,4.26,1.69h7.39c1.66,0,3.22-.65,4.38-1.81.06-.06.12-.12.18-.18.05.05.1.11.16.16,1.17,1.18,2.74,1.83,4.4,1.83h7.39c1.37,0,2.68-.45,3.75-1.26,1.07.82,2.38,1.26,3.75,1.26h22.66c1.66,0,3.22-.65,4.38-1.82.15-.15.29-.3.42-.47.13.15.26.3.41.45,1.17,1.18,2.74,1.84,4.4,1.84h20.94c1.66,0,3.22-.65,4.38-1.82.14-.14.27-.28.39-.42.12.14.24.27.37.4,1.17,1.18,2.74,1.83,4.4,1.83h20.94c1.66,0,3.22-.65,4.38-1.82,1.18-1.17,1.82-2.73,1.82-4.39v-5.42c0-1.65-.64-3.2-1.83-4.39-.47-.47-1-.85-1.58-1.15,4.89-3.26,8.12-8.82,8.12-15.12v-11.69c1.2.07,2.39-.21,3.45-.81.89-.4,1.68-.99,2.33-1.72.34-.38.65-.79.94-1.22l.18-.27s.04-.04.06-.06c.13-.12.28-.28.44-.46.51-.46.91-1.02,1.16-1.66l.09-.22.48-.73c.04-.07.09-.14.13-.21l.06-.11c.03-.06.07-.12.1-.18.19-.36.35-.75.49-1.16l.11-.21s0-.02.01-.03c.24-.34.45-.7.61-1.06.06-.12.1-.22.15-.31.03-.05.06-.11.08-.17l.05-.1c.03-.07.07-.14.1-.22.1-.25.19-.51.27-.77.11-.27.2-.55.28-.85.02-.06.03-.11.04-.17.13-.53.2-1.09.21-1.67.01-1.21-.33-2.42-.98-3.49Z" />
    <rect class="cls-6" x="7.38" y="64.75" width="7.18" height="14.25" rx="2.79" ry="2.79" />
    <rect class="cls-6" x="26.93" y="38.21" width="13.71" height="25.49" rx="6.14" ry="6.14" />
    <path class="cls-6"
      d="M80.62,59.27h0c-2.92,0-5.31-2.39-5.31-5.31v-25.3c0-2.92,2.39-5.31,5.31-5.31h0c2.92,0,5.31,2.39,5.31,5.31v25.3c0,2.92-2.39,5.31-5.31,5.31Z" />
    <rect class="cls-6" x="75.31" y="5.24" width="10.62" height="10.62" rx="4.67" ry="4.67" />
    <path class="cls-6"
      d="M111.44,68.91h0c-2.85,0-5.18-2.33-5.18-5.18v-17.26c0-2.85,2.33-5.18,5.18-5.18h0c2.85,0,5.18,2.33,5.18,5.18v17.26c0,2.85-2.33,5.18-5.18,5.18Z" />
    <path class="cls-6"
      d="M128.51,78h0c-2.04,0-3.7-1.67-3.7-3.7h0c0-2.04,1.67-3.7,3.7-3.7h0c2.04,0,3.7,1.67,3.7,3.7h0c0,2.04-1.67,3.7-3.7,3.7Z" />
    <path class="cls-6"
      d="M56.3,43.16h0c-1.52,0-2.77-1.25-2.77-2.77v-24.19c0-1.52,1.25-2.77,2.77-2.77h0c1.52,0,2.77,1.25,2.77,2.77v24.19c0,1.52-1.25,2.77-2.77,2.77Z" />
    <rect class="cls-6" x="5.24" y="82.83" width="128.61" height="115.19" rx="12.91" ry="12.91" />
    <path class="cls-4"
      d="M11.77,79.83h-1.59c-2,0-3.62-1.62-3.62-3.62v-8.67c0-2,1.62-3.62,3.62-3.62h1.59c2,0,3.62,1.62,3.62,3.62v8.67c0,2-1.62,3.62-3.62,3.62ZM10.17,65.58c-1.08,0-1.96.88-1.96,1.96v8.67c0,1.08.88,1.96,1.96,1.96h1.59c1.08,0,1.96-.88,1.96-1.96v-8.67c0-1.08-.88-1.96-1.96-1.96h-1.59Z" />
    <path class="cls-4"
      d="M34.5,64.52h-1.43c-3.84,0-6.97-3.13-6.97-6.97v-13.21c0-3.84,3.13-6.97,6.97-6.97h1.43c3.84,0,6.97,3.13,6.97,6.97v13.21c0,3.84-3.13,6.97-6.97,6.97ZM33.07,39.04c-2.93,0-5.31,2.38-5.31,5.31v13.21c0,2.93,2.38,5.31,5.31,5.31h1.43c2.93,0,5.31-2.38,5.31-5.31v-13.21c0-2.93-2.38-5.31-5.31-5.31h-1.43Z" />
    <path class="cls-4"
      d="M80.62,60.1c-3.39,0-6.14-2.76-6.14-6.14v-25.3c0-3.39,2.76-6.14,6.14-6.14s6.14,2.76,6.14,6.14v25.3c0,3.39-2.76,6.14-6.14,6.14ZM80.62,24.17c-2.47,0-4.48,2.01-4.48,4.48v25.3c0,2.47,2.01,4.48,4.48,4.48s4.48-2.01,4.48-4.48v-25.3c0-2.47-2.01-4.48-4.48-4.48Z" />
    <path class="cls-4"
      d="M81.26,16.69h-1.28c-3.03,0-5.5-2.47-5.5-5.5v-1.28c0-3.03,2.47-5.5,5.5-5.5h1.28c3.03,0,5.5,2.47,5.5,5.5v1.28c0,3.03-2.47,5.5-5.5,5.5ZM79.98,6.07c-2.12,0-3.84,1.72-3.84,3.84v1.28c0,2.12,1.72,3.84,3.84,3.84h1.28c2.12,0,3.84-1.72,3.84-3.84v-1.28c0-2.12-1.72-3.84-3.84-3.84h-1.28Z" />
    <path class="cls-4"
      d="M111.44,69.74c-3.31,0-6.01-2.69-6.01-6.01v-17.26c0-3.31,2.69-6.01,6.01-6.01s6.01,2.69,6.01,6.01v17.26c0,3.31-2.69,6.01-6.01,6.01ZM111.44,42.13c-2.4,0-4.35,1.95-4.35,4.35v17.26c0,2.4,1.95,4.35,4.35,4.35s4.35-1.95,4.35-4.35v-17.26c0-2.4-1.95-4.35-4.35-4.35Z" />
    <path class="cls-4"
      d="M128.51,78.83c-2.5,0-4.53-2.03-4.53-4.53s2.03-4.53,4.53-4.53,4.53,2.03,4.53,4.53-2.03,4.53-4.53,4.53ZM128.51,71.43c-1.58,0-2.87,1.29-2.87,2.87s1.29,2.87,2.87,2.87,2.87-1.29,2.87-2.87-1.29-2.87-2.87-2.87Z" />
    <path class="cls-4"
      d="M56.3,43.99c-1.99,0-3.6-1.62-3.6-3.6v-24.19c0-1.99,1.62-3.6,3.6-3.6s3.6,1.62,3.6,3.6v24.19c0,1.99-1.62,3.6-3.6,3.6ZM56.3,14.26c-1.07,0-1.94.87-1.94,1.94v24.19c0,1.07.87,1.94,1.94,1.94h0c1.07,0,1.94-.87,1.94-1.94v-24.19c0-1.07-.87-1.94-1.94-1.94Z" />
    <path class="cls-4"
      d="M120.93,198.85H18.15c-7.58,0-13.75-6.17-13.75-13.75v-89.36c0-7.58,6.17-13.74,13.75-13.74h102.78c7.58,0,13.75,6.17,13.75,13.74v89.36c0,7.58-6.17,13.75-13.75,13.75ZM18.15,83.66c-6.66,0-12.08,5.42-12.08,12.08v89.36c0,6.66,5.42,12.08,12.08,12.08h102.78c6.66,0,12.08-5.42,12.08-12.08v-89.36c0-6.66-5.42-12.08-12.08-12.08H18.15Z" />
    <path class="cls-2"
      d="M22.2,155.39h-9.04c-1.14,0-2.07-.92-2.08-2.06l-.74-96.89c0-.55.21-1.09.6-1.48.39-.39.92-.61,1.47-.61h17.98c1.15,0,2.08.93,2.08,2.08v8.76c0,1.15-.93,2.08-2.08,2.08h-6.86v3h6.4c1.15,0,2.08.93,2.08,2.08v8.66c0,1.15-.93,2.08-2.08,2.08h-6.38l.72,70.23c0,.55-.21,1.09-.6,1.48-.39.39-.92.62-1.48.62ZM15.22,151.24h4.88l-.72-70.23c0-.55.21-1.09.6-1.48.39-.39.92-.62,1.48-.62h6.4v-4.51h-6.4c-1.15,0-2.08-.93-2.08-2.08v-7.15c0-1.15.93-2.08,2.08-2.08h6.86v-4.61h-13.81l.71,92.74Z" />
    <path class="cls-2"
      d="M54.63,140.14h-8.86c-.7,0-1.32-.35-1.7-.88-.38.53-1,.88-1.7.88h-9.09c-1.15,0-2.08-.93-2.08-2.08V56.42c0-1.15.93-2.08,2.08-2.08h13.79c2.81,0,5.03.71,6.59,2.1,1.51,1.34,2.52,3.2,3.01,5.51.43,2.02.65,4.39.65,7.06s-.36,4.95-1.1,6.69c-.35.82-.83,1.54-1.43,2.17.32.36.6.77.83,1.22.72,1.41,1.08,3.18,1.08,5.27v53.7c0,1.15-.93,2.08-2.08,2.08ZM47.84,135.99h4.71v-51.63c0-1.43-.21-2.57-.63-3.38-.19-.36-.53-.81-1.54-1.02-.92-.19-1.6-.98-1.66-1.92-.05-.94.53-1.8,1.43-2.09,1.15-.38,1.86-.97,2.25-1.88.51-1.2.77-2.9.77-5.06,0-2.38-.19-4.46-.55-6.2-.31-1.45-.87-2.52-1.71-3.27-.78-.69-2.07-1.04-3.83-1.04h-11.71v77.49h4.94v-55.12c0-1.15.93-2.08,2.08-2.08,1.6,0,2.76.24,3.64.76,1.83,1.08,1.83,3.45,1.83,4.23v52.21ZM44.59,75.15h-2.17c-1.15,0-2.08-.93-2.08-2.08v-8.33c0-1.15.93-2.08,2.08-2.08h2.09c1.53,0,2.76.72,3.39,1.96.44.88.63,2.19.63,4.38,0,5.34-2.47,6.14-3.94,6.14Z" />
    <path class="cls-2"
      d="M68.93,103.86c-4.2,0-7.5-1.33-9.8-3.96-2.23-2.55-3.36-6.18-3.36-10.78v-21.35c0-4.38,1.14-7.8,3.39-10.19,2.28-2.41,5.57-3.64,9.77-3.64s7.49,1.22,9.77,3.64c2.25,2.38,3.39,5.81,3.39,10.19v21.35c0,4.6-1.13,8.23-3.36,10.78-2.3,2.63-5.6,3.97-9.8,3.97ZM68.93,58.09c-3.06,0-5.27.76-6.75,2.34-1.5,1.58-2.26,4.05-2.26,7.33v21.35c0,3.57.79,6.27,2.33,8.04,1.5,1.71,3.68,2.55,6.67,2.55s5.17-.83,6.67-2.55c1.55-1.77,2.33-4.48,2.33-8.04v-21.35c0-3.28-.76-5.75-2.26-7.33-1.49-1.57-3.69-2.34-6.75-2.34ZM69,95.58c-1.54,0-2.78-.7-3.49-1.96-.53-.94-.78-2.22-.78-4.02v-21.91c0-5.08,3.31-5.47,4.32-5.47.95,0,4.07.39,4.07,5.4v21.94c0,5.45-2.88,6.03-4.12,6.03ZM69,91.47v2.04-2.04h0ZM68.93,66.87c-.03.2-.05.47-.05.81v21.91c0,.39.02.72.04.98.03-.27.05-.61.05-1.03v-21.94c0-.3-.01-.54-.04-.74Z" />
    <path class="cls-2"
      d="M118.68,103.45h-8.22c-1.15,0-2.08-.93-2.08-2.08v-6.16l-1.03,6.48c-.16,1.01-1.03,1.75-2.05,1.75h-8.07c-1.01,0-1.88-.73-2.05-1.73l-1.34-7.95v7.61c0,1.15-.93,2.08-2.08,2.08h-8.12c-1.15,0-2.08-.93-2.08-2.08v-44.95c0-1.15.93-2.08,2.08-2.08h13.69c1.04,0,1.91.77,2.06,1.79l1.72,12.44,1.7-12.44c.14-1.03,1.02-1.79,2.06-1.79h13.82c1.15,0,2.08.93,2.08,2.08v44.95c0,1.15-.93,2.08-2.08,2.08ZM112.53,99.3h4.07v-40.8h-9.93l-3.51,25.61c-.14,1.03-1.02,1.79-2.06,1.79h0c-1.04,0-1.91-.76-2.06-1.79l-3.53-25.61h-9.8v40.8h3.97v-30.31c0-1.08.83-1.98,1.9-2.07,1.08-.08,2.04.66,2.22,1.72l5.17,30.65h4.54l4.88-30.63c.17-1.07,1.13-1.81,2.21-1.74,1.08.09,1.91.99,1.91,2.07v30.31Z" />
    <path class="cls-3" d="M13.16,153.32l-.74-96.89h17.98v8.76h-8.94v7.15h8.48v8.66h-8.48l.74,72.33h-9.04Z" />
    <path class="cls-3"
      d="M33.28,138.06V56.42h13.79c2.3,0,4.03.52,5.21,1.57,1.17,1.05,1.96,2.51,2.36,4.39.4,1.88.6,4.09.6,6.63s-.31,4.41-.93,5.87c-.62,1.46-1.79,2.48-3.51,3.04,1.41.29,2.4.99,2.98,2.11.57,1.12.86,2.56.86,4.33v53.7h-8.86v-54.29c0-1.31-.27-2.12-.8-2.44-.54-.31-1.4-.47-2.59-.47v57.2h-9.09ZM42.42,73.08h2.17c1.24,0,1.86-1.35,1.86-4.06,0-1.75-.14-2.9-.41-3.45-.27-.54-.78-.82-1.53-.82h-2.09v8.33Z" />
    <path class="cls-3"
      d="M68.93,101.78c-3.59,0-6.34-1.09-8.24-3.26-1.9-2.17-2.85-5.31-2.85-9.41v-21.35c0-3.85.94-6.77,2.82-8.76,1.88-1.99,4.64-2.99,8.26-2.99s6.38,1,8.26,2.99c1.88,1.99,2.82,4.91,2.82,8.76v21.35c0,4.1-.95,7.24-2.85,9.41-1.9,2.17-4.64,3.26-8.24,3.26ZM69,93.51c1.36,0,2.04-1.32,2.04-3.96v-21.94c0-2.21-.66-3.32-1.99-3.32-1.5,0-2.25,1.13-2.25,3.4v21.91c0,1.4.17,2.4.51,3,.34.6.9.91,1.69.91Z" />
    <path class="cls-3"
      d="M83.64,101.37v-44.95h13.69l3.78,27.4,3.75-27.4h13.82v44.95h-8.22v-32.38l-5.16,32.38h-8.07l-5.47-32.38v32.38h-8.12Z" />
    <path class="cls-2" d="M13.16,153.32h.87l1.07-94.84h15.3v-2.06H12.41l.74,96.89Z" />
    <path class="cls-2"
      d="M52.28,57.99c-1.17-1.05-2.91-1.57-5.21-1.57h-13.79v42.07l2.87-39.46,16.97-.13c-.25-.33-.53-.64-.84-.91Z" />
    <path class="cls-2"
      d="M60.67,59c-1.88,1.99-2.82,4.91-2.82,8.76v21.35c0,1.37.12,2.62.33,3.77,1.96-14.87-.15-38.43,18.32-34.54-1.84-1.55-4.36-2.33-7.56-2.33-3.63,0-6.38,1-8.26,2.99Z" />
    <polygon class="cls-2" points="83.64 56.42 83.64 91.33 86.31 59.97 97.8 59.85 97.33 56.42 83.64 56.42" />
    <polygon class="cls-2"
      points="104.86 56.42 101.27 82.65 101.27 84.77 108.49 60.75 118.68 60.75 118.68 56.42 104.86 56.42" />
    <path class="cls-4"
      d="M22.2,154.15h-9.04c-.46,0-.83-.37-.83-.82l-.74-96.89c0-.22.09-.43.24-.59.16-.16.37-.25.59-.25h17.98c.46,0,.83.37.83.83v8.76c0,.46-.37.83-.83.83h-8.11v5.49h7.65c.46,0,.83.37.83.83v8.66c0,.46-.37.83-.83.83h-7.64l.74,71.49c0,.22-.08.44-.24.59-.16.16-.37.25-.59.25ZM13.98,152.49h7.38l-.74-71.49c0-.22.08-.44.24-.59.16-.16.37-.25.59-.25h7.65v-7h-7.65c-.46,0-.83-.37-.83-.83v-7.15c0-.46.37-.83.83-.83h8.11v-7.1H13.25l.73,95.23Z" />
    <path class="cls-4"
      d="M54.63,138.89h-8.86c-.46,0-.83-.37-.83-.83v-54.29c0-1.45-.35-1.7-.39-1.72-.21-.12-.6-.26-1.34-.33v56.34c0,.46-.37.83-.83.83h-9.09c-.46,0-.83-.37-.83-.83V56.42c0-.46.37-.83.83-.83h13.79c2.5,0,4.44.6,5.76,1.78,1.3,1.16,2.19,2.79,2.62,4.84.41,1.93.62,4.22.62,6.8s-.34,4.64-1,6.2c-.47,1.1-1.2,1.98-2.2,2.64.7.44,1.25,1.04,1.64,1.8.63,1.23.95,2.81.95,4.71v53.7c0,.46-.37.83-.83.83ZM46.6,137.23h7.2v-52.87c0-1.63-.26-2.96-.76-3.95-.45-.89-1.24-1.43-2.4-1.67-.37-.08-.64-.39-.66-.77-.02-.38.21-.72.57-.84,1.49-.49,2.48-1.33,3-2.57.57-1.35.87-3.22.87-5.55,0-2.47-.2-4.64-.58-6.45-.36-1.7-1.07-3.02-2.1-3.95-1.01-.9-2.58-1.36-4.66-1.36h-12.96v79.98h7.43v-56.37c0-.46.37-.83.83-.83,1.35,0,2.34.19,3.01.59.82.48,1.21,1.51,1.21,3.16v53.46ZM44.59,73.91h-2.17c-.46,0-.83-.37-.83-.83v-8.33c0-.46.37-.83.83-.83h2.09c1.35,0,1.98.69,2.27,1.28.21.43.5,1.29.5,3.82,0,3.25-.91,4.89-2.7,4.89ZM43.25,72.24h1.34c.93,0,1.03-2.26,1.03-3.23,0-2.2-.22-2.88-.32-3.08-.06-.12-.18-.36-.79-.36h-1.26v6.66Z" />
    <path class="cls-4"
      d="M68.93,102.61c-3.83,0-6.81-1.19-8.86-3.54-2.03-2.32-3.05-5.67-3.05-9.96v-21.35c0-4.05,1.03-7.19,3.05-9.33,2.04-2.16,5.02-3.25,8.87-3.25s6.83,1.09,8.87,3.25c2.02,2.14,3.05,5.28,3.05,9.33v21.35c0,4.29-1.03,7.64-3.05,9.96-2.05,2.35-5.04,3.54-8.86,3.54ZM68.93,56.85c-3.37,0-5.95.92-7.66,2.73-1.72,1.82-2.6,4.58-2.6,8.19v21.35c0,3.88.89,6.86,2.64,8.86,1.75,2,4.24,2.97,7.61,2.97s5.86-.97,7.61-2.97c1.75-2,2.64-4.99,2.64-8.86v-21.35c0-3.61-.87-6.37-2.6-8.19-1.71-1.81-4.29-2.73-7.66-2.73ZM69,94.34c-1.37,0-2.07-.72-2.41-1.33-.42-.74-.62-1.85-.62-3.41v-21.91c0-3.68,1.93-4.23,3.08-4.23,1.05,0,2.82.54,2.82,4.15v21.94c0,3.96-1.56,4.79-2.87,4.79ZM69.06,65.12c-.42,0-1.42,0-1.42,2.57v21.91c0,1.55.22,2.27.4,2.59.13.24.35.48.96.48,1,0,1.21-1.7,1.21-3.13v-21.94c0-2.49-.84-2.49-1.16-2.49Z" />
    <path class="cls-4"
      d="M118.68,102.2h-8.22c-.46,0-.83-.37-.83-.83v-21.89l-3.51,22.02c-.06.4-.41.7-.82.7h-8.07c-.41,0-.75-.29-.82-.69l-3.82-22.61v22.47c0,.46-.37.83-.83.83h-8.12c-.46,0-.83-.37-.83-.83v-44.95c0-.46.37-.83.83-.83h13.69c.41,0,.77.31.82.72l2.95,21.42,2.93-21.42c.06-.41.41-.72.82-.72h13.82c.46,0,.83.37.83.83v44.95c0,.46-.37.83-.83.83ZM111.28,100.54h6.56v-43.29h-12.26l-3.66,26.68c-.06.41-.41.72-.82.72h0c-.41,0-.77-.31-.82-.72l-3.68-26.69h-12.13v43.29h6.46v-31.55c0-.43.33-.79.76-.83.43-.04.82.26.89.69l5.35,31.69h6.66l5.05-31.68c.07-.43.45-.74.89-.7.43.03.76.39.76.83v31.55Z" />
    <path class="cls-6"
      d="M146.18,157.86l-.17-.22c-.19-.2-.74-.63-1.69-.33l-.51.16-.16.12c-.16.12-.31.27-.48.49-.14.18-.24.34-.31.48-.02.04-.05.08-.07.11-.13.17-.24.32-.35.55l-.27.6s-.04.08-.2.28c-.32.32-.56.62-.74.94-.11.2-.24.4-.38.62l-.1.18c-.06.14-.19.37-.43.75-.02-.15-.06-.29-.11-.42.14-.54.04-.97-.08-1.26,0-.01,0-.02-.01-.03,0-.01,0-.02,0-.04v-.1s-.07-.52-.07-.52c-.03-.21-.08-.41-.14-.61-.11-.36-.29-.67-.52-.94-.13-.15-.27-.31-.44-.47l-.21-.21-.28-.1c-.15-.05-.29-.09-.42-.13-.1-.03-.22-.05-.37-.07-.18-.09-.36-.18-.55-.27-.45-.22-.97-.3-1.52-.24l-.38.04-.29.24s-.08.07-.12.1l-.43.04-.31.6c-.03.06-.06.11-.08.17l-.05.04c-.31.28-.56.59-.75.93-.11.19-.22.38-.36.58-.09.14-.18.27-.25.39-.07.11-.14.24-.21.38-.03.04-.06.09-.09.12.06-.34.12-.69.18-1.04.16-.94.31-1.89.44-2.81.14-.35.26-.71.33-1.09.07-.36.14-.71.21-1.05l.02-.14c0-.07.01-.13.03-.21.03-.15.05-.3.06-.45.03-.21.08-.42.14-.65.08-.3.13-.61.15-.91.1-.36.15-.72.17-1.08l.36-.23-.17-.51c.02-.16.02-.33,0-.54.02-.17,0-.32-.03-.46l.07-.17v-.26c0-.22,0-.46.01-.73.02-.41,0-.79-.09-1.15l-.03-.11s-.02-.06-.02-.11c-.02-.21-.06-.39-.11-.54,0-.02-.01-.04-.02-.07,0,0,0-.01,0-.02v-.05s0-.05,0-.05c-.01-.2-.05-.39-.11-.59,0-.02-.01-.04-.01-.06,0-.05,0-.1.02-.15.05-.34,0-.71-.17-1.26l-.07-.18c-.04-.27-.13-.49-.27-.68,0-.01-.01-.03-.02-.05-.15-.31-.39-.56-.68-.71l-.75-.4-.64.56c-.09.08-.18.15-.29.21-.23.15-.44.32-.65.52l-.2.19-.1.26c-.09.24-.21.44-.37.61-.37.4-.67.87-.89,1.39l-.04.1c-.09.27-.15.55-.18.84,0,.02-.02.17-.16.55l-.03.09c-.14.52-.24,1.04-.29,1.55-.02.18-.02.36-.03.55-.39.17-.75.33-1.07.49l-1.28.61c-.16.08-.3.15-.42.2v-.06c0-.15,0-.29,0-.42,0-.15,0-.4-.02-.76,0-.12.01-.24.01-.35,0-.25-.03-.46-.09-.65-.13-.42-.36-.75-.67-1-.06-.22-.17-.44-.33-.63-.01-.44-.12-.82-.33-1.15l-.1-.14c-.15-.18-.32-.34-.5-.47-.02-.01-.04-.03-.06-.04-.05-.08-.1-.15-.16-.21l-.11-.36-.64-.18c-.72-.21-1.3,0-1.66.38l-.47.08-.21.77c-.13.46-.27.87-.43,1.21l-.1.22v.24c-.04.44-.04.84-.02,1.21.01.2,0,.42-.03.64-.07.18-.12.36-.16.53l-.18.78v.16c0,.08,0,.18-.02.28-.03.15-.06.29-.1.42l-.05.19v.19c.01.28,0,.57-.03.88-.01.12-.03.24-.04.36,0,0-.01,0-.02,0-.55.07-1,.18-1.38.33l-.08.04s-.08.03-.13.04c-.29.05-.55.13-.83.28-.07.04-.13.08-.19.11h-.04c-.17.02-.33.04-.42.08-.48.12-.92.31-1.32.58-.13.09-.29.15-.49.18l-.46.08-.19.24c-.32.09-.61.21-.86.37l-.28.16-.16.3c-.3.37-.4.84-.28,1.29-.01,0-.02.02-.04.03l-.13.08c-.15.06-.28.14-.4.24-.19.14-.35.3-.49.47-.04.05-.07.09-.1.12-.17.15-.34.36-.58.67l-.11.18c-.1.2-.16.42-.19.7-.02.16-.03.31-.04.39-.18,1.47.53,2.27.98,2.62l.28.21.28.03.03.03-.07.23c-.1.07-.19.14-.3.23-.2.03-.39.1-.56.19-.48.23-.8.56-.95.99-.06.17-.11.38-.15.63-.05.21-.1.42-.15.63-.06.27-.09.53-.1.74-.02.22-.03.43-.03.63,0,.07,0,.13,0,.2-.03.12-.07.23-.1.34,0,.02,0,.05-.02.07-.08.07-.14.14-.23.22-.23.21-.44.38-.64.53-.21.08-.41.2-.59.35l-.2.17-.12.23c-.03.06-.06.13-.09.2-.04.04-.08.09-.14.16l-.02.02c-.09.02-.17.04-.26.07-.02,0-.04-.02-.06-.02.02-.1.03-.21.04-.31.02-.26.04-.49.05-.75,0-.15,0-.29,0-.42.08-.21.13-.43.16-.62l.06-.31-.05-.15c0-.26-.06-.52-.18-.78,0-.01-.01-.03-.02-.04l.1-.34-.83-.49c-.7-.42-1.52-.33-2.19.22-.19.16-.43.31-.72.46l-.23.15c-.61.5-1.08,1.07-1.4,1.69l-.24.46.06.18-.03.18c-.02.12-.02.23-.02.35-.01.05-.03.11-.04.17l-.09.35.04.13-.03.19c-.03.37.07.76.31,1.2,0,.01.01.03.02.04,0,.07,0,.13-.02.19-.02.16-.03.31-.05.47-.02.33-.05.46-.06.52-.05.19-.11.41-.17.67-.1.34-.21.7-.32,1.06-.1.34-.21.66-.33.95-.16-.47-.3-.98-.41-1.53-.1-.46-.15-.89-.16-1.28.11-.26.18-.59.16-.99-.03-.71-.34-1.17-.63-1.44-.25-.26-.55-.44-.92-.51l-.34-.18-.47.13c-.64.17-1.26.5-1.84.97-.48.39-.95.82-1.39,1.28l-.19.2-.09.27c-.11.34-.22.72-.32,1.2-.02.1-.03.19-.03.29-.06.1-.12.19-.16.28-.1.2-.2.42-.3.64-.04.09-.07.13-.08.14l-.15.16-.09.2c-.11.26-.19.5-.25.74-.03.13-.07.26-.12.42-.04.06-.08.13-.12.2-.12.22-.22.43-.3.61-.03.06-.05.11-.08.17.01-.21.05-.46.1-.76.08-.48.12-.87.11-1.25-.01-.22-.04-.44-.07-.67,0-.03,0-.06-.01-.09.11-.18.21-.36.29-.55l.04-.12c.03-.12.06-.25.07-.37.05-.08.09-.15.13-.23l.08-.21c.04-.13.07-.25.09-.39l.02-.14c.12-.2.21-.42.26-.64.03-.11.05-.22.05-.34l.17-.33-.04-.38c-.08-.69-.41-1.11-.66-1.33-.23-.2-.51-.37-.83-.51l-.69-.29-.58.48s-.08.06-.13.09c-.21.12-.42.31-.71.64-.15.06-.3.15-.45.25-.32.2-.58.46-.78.76l-.18.11-.13.16c-.13.16-.23.34-.31.54-.02.05-.04.1-.07.15l-.1.27c-.08.32-.12.63-.12.92,0,.1,0,.2-.03.3l-.03.13v.14c0,.29-.02.55-.08.79-.1.43-.15.91-.14,1.42,0,.25-.03.47-.11.67-.18.48-.29,1.06-.33,1.8l-.02.33h0c-.03.19-.03.4.02.64-.02.09-.04.18-.07.28-.14.47-.15.95-.05,1.41.07.35.2.68.37,1,.05.09.15.3.34.8l.07.18.11.15c.19.25.39.48.6.71.18.19.37.37.56.52.17.22.38.41.62.57.13.08.26.17.39.27l.26.16.69.19c.17.05.34.07.5.07.22,0,.43-.04.64-.11.32-.04.7-.19,1.07-.58.15-.16.36-.4.61-.71.13-.14.23-.31.3-.5l.19-.24c.11-.14.2-.31.29-.5.09-.14.17-.29.24-.45.05-.1.1-.22.17-.35.06-.12.13-.24.2-.36.07-.12.13-.25.19-.38.1-.13.18-.26.24-.39.03-.06.09-.12.16-.2l.11-.14c.22-.34.41-.69.55-1.04.06-.14.13-.26.23-.36l.29-.3.05-.41c0-.06.02-.1.02-.12.05.06.11.15.19.28.09.27.24.52.46.72.03.03.07.07.07.07.11.18.21.36.3.54.19.4.5.78.94,1.14l.3.27.38.04c.39.26,1.04.45,1.97,0,.28-.05.54-.17.78-.37h.27s.35-.38.35-.38c.74-.79,1.3-1.65,1.66-2.57.22-.4.37-.83.45-1.29.04-.24.11-.47.21-.69l.1-.22v-.25c.02-.21.05-.32.06-.36.08-.24.13-.51.14-.78.05-.14.09-.29.13-.45.05,0,.11,0,.16,0,.09,0,.2,0,.22,0,.36.08.73.03,1.07-.14.29-.11.6-.22.95-.33l.21-.09s.08-.06.12-.08c.01.21.04.43.1.66.06.24.1.47.13.74.05.28.13.55.25.79.08.16.15.3.23.45.15.25.29.51.44.78.27.51.68.86,1.17,1.03.26.19.54.32.84.38.18.04.44.09.77.15.2.05.41.08.63.08.4,0,.82-.08,1.28-.25l.2-.07.16-.13c.13-.11.26-.23.39-.38l.44-.35c.3-.24.53-.48.67-.68.1-.14.19-.29.26-.44l.06-.07c.32-.42.7-.87,1.12-1.34.48-.53.9-1.13,1.25-1.76.06-.08.11-.17.16-.25.25.26.51.51.8.72.37.27.71.54,1.01.81l.25.17c.25.13.51.23.77.28.06.01.12.03.2.06.26.2.55.34.85.43.21.06.43.12.65.18l.57.15.48-.35c.08-.06.15-.11.22-.17l.13-.1c.28-.21.57-.49.9-.86.3-.33.54-.6.68-.78.34-.39.57-.79.7-1.18,0,0,.04-.07.16-.2,0,.07.02.13.02.2.08.67.44,1.2.98,1.47.26.22.58.33.87.3.07,0,.2.01.4.03l.25.02.24-.08c.05-.02.1-.04.15-.06l.14.04.5-.39c.32-.25.62-.58.87-.97.22-.34.39-.69.49-1.04.21-.41.39-.82.53-1.19.11-.26.21-.51.3-.75.07-.19.14-.38.19-.51.22-.42.43-.85.64-1.3.2-.43.4-.86.58-1.28.15-.29.28-.58.38-.87.08-.22.17-.45.28-.68l.04-.1c.07-.21.18-.4.32-.59.09-.12.18-.25.26-.38.03.36.05.73.04,1.1-.02.74.12,1.47.43,2.25.28.61.72,1.06,1.28,1.31.35.16.71.29,1.07.38.23.06.46.11.69.16.31.06.87.1,1.46-.31.4-.14.75-.38,1.03-.7.21-.24.42-.5.6-.78l.45-.67c.06-.09.13-.16.2-.21l.16-.13c.14-.14.27-.29.33-.39l.25-.2.12-.3c.09-.23.2-.44.33-.63l.53-.81.06-.11c.11-.22.2-.45.27-.69.02-.08.05-.15.09-.23l.22-.42c.05-.1.11-.21.16-.33.17-.2.31-.42.42-.65.08-.17.15-.32.22-.45l.05-.11c.07-.19.14-.38.19-.58.08-.17.15-.36.21-.59.05-.22.08-.45.08-.7,0-.38-.11-.77-.33-1.13ZM126.45,165.5c-.23.24-.41.48-.56.73-.06.1-.15.2-.26.31l-.19.24c-.05.08-.09.15-.12.19-.05.05-.12.12-.22.21l-.08.09c-.18.21-.33.41-.44.58-.08.12-.16.24-.27.38l-.05.08c-.05.08-.11.17-.16.27-.04.02-.08.05-.14.09-.35.23-.61.55-.76.93-.17.07-.34.16-.5.26-.11.07-.22.15-.32.25-.02-.03-.05-.06-.08-.08v-.04c0-.08.01-.16,0-.18.02-.24,0-.49-.06-.75,0-.08.02-.16.04-.25.03-.18.06-.38.08-.54.02-.15.02-.31,0-.47.03-.18.07-.34.11-.5.08-.3.14-.62.16-.98.01-.21.02-.42.02-.62,0-.19,0-.38-.01-.57.03-.51.04-.99.03-1.45-.01-.28.03-.55.12-.82l.1-.3-.05-.31c-.04-.21-.02-.29-.02-.29.07-.27.11-.55.1-.84.19-.46.34-.94.45-1.43.1-.46.24-.91.4-1.36l.1-.32-.03-.28c.09-.24.15-.57.2-1.02.11-.24.18-.49.2-.75.23-.08.43-.15.62-.23.33-.13.65-.25.96-.36.35-.12.71-.27,1.09-.43.19-.08.4-.17.63-.27-.01.17-.02.34-.03.51-.08.62-.13,1.31-.15,2.06-.01.65-.06,1.2-.15,1.65l-.02.12c-.02.19-.03.4-.05.62,0,.13-.02.25-.06.44-.08.48-.08.96-.02,1.41.03.22.03.44-.02.75-.05.44-.07.85-.08,1.24,0,.34,0,.71,0,1.15-.04.1-.09.2-.12.32-.11.15-.18.27-.23.4-.02.02-.05.04-.07.06l-.12.12ZM116.94,168.6l-.12.16c-.17.26-.31.47-.42.65-.1.15-.19.3-.28.43-.1.15-.21.29-.32.44,0,0-.09.1-.38.31l-.23.13-.17.33c-.32.2-.61.43-.86.7-.13.13-.28.28-.47.43-.06.03-.11.06-.17.09l.04-.27c.03-.11.05-.22.09-.35.06-.24.09-.49.09-.75,0-.05.01-.11.02-.16.03-.17.06-.34.07-.55,0-.17.03-.33.07-.47.08-.28.14-.6.17-.89l.11-.69c.03-.22.07-.41.12-.59l.02-.08c.08-.46.15-.89.21-1.3.07-.5.07-1.13-.02-1.93l-.08-.73-.68-.29c-.13-.05-.24-.11-.34-.17-.01,0-.03-.02-.04-.02.23-.11.42-.25.56-.37l.46-.41v-.22c.09-.11.17-.24.23-.38l.51-.43-.15-.47c.04-.17.06-.36.08-.57l.02-.25-.08-.24c-.06-.19-.16-.36-.29-.51l.39.16.33-.28c.21-.02.43-.07.65-.16.03,0,.08-.01.13-.02.19-.02.38-.04.58-.07l.1-.02c.35-.09.7-.2,1.02-.31,0,.14,0,.28.01.43-.08.5-.15,1.01-.2,1.52-.05.53-.13,1.05-.21,1.55-.08.45-.16.92-.23,1.41-.06.43-.08.87-.06,1.3-.1.26-.12.56-.07.86-.01.28-.02.54-.02.77,0,.24,0,.51.02.87.02.24.02.47,0,.68-.02.18-.04.37-.05.57-.06.06-.11.12-.17.19Z" />
    <path class="cls-2"
      d="M91.47,180.55c.23-.2.45-.43.65-.72.1-.3.21-.59.34-.88.13-.28.27-.57.42-.86.09-.18.18-.35.25-.52.08-.17.17-.36.28-.56.03-.06.06-.11.1-.16.03-.05.06-.11.09-.19.06-.19.11-.37.16-.54.04-.17.11-.36.19-.55.13-.14.23-.3.32-.5.08-.2.17-.38.26-.56.03-.06.07-.12.11-.18.04-.06.08-.12.11-.18.05-.09.07-.18.08-.28,0-.1.01-.2.03-.3.08-.37.17-.7.27-1,.4-.42.83-.81,1.27-1.17.45-.36.9-.6,1.38-.73.06.03.14.05.24.07.1.02.19.07.27.17.17.14.26.35.27.61.01.27-.04.48-.16.64-.02.57.05,1.18.18,1.84.14.66.31,1.28.51,1.85-.02.08-.01.18.04.3.05.12.05.21,0,.28.14.15.31.29.5.42.19.14.4.16.65.09.24-.15.4-.24.47-.26.07-.02.12-.05.16-.09.07-.07.13-.15.17-.22.04-.07.09-.13.15-.17.02-.1.04-.18.07-.24.03-.06.06-.13.08-.21.14-.34.26-.69.37-1.07.11-.38.22-.74.33-1.09.06-.26.12-.49.17-.68.05-.19.08-.44.1-.76,0-.13.02-.26.04-.4.02-.14.03-.28.03-.43,0-.15-.06-.33-.17-.55-.12-.22-.17-.39-.16-.51.06-.19.07-.34.04-.45.08-.29.11-.46.09-.51-.01-.04-.02-.09,0-.14.03-.06.06-.12.09-.19.03-.07.03-.15,0-.24.24-.47.6-.9,1.09-1.3.38-.19.7-.4.96-.61.26-.22.51-.25.75-.11-.02.08,0,.14.09.17.08.03.14.08.16.15.06.1.08.19.07.27s0,.15.01.22c-.06.29-.09.43-.12.44-.02,0-.04.03-.06.05-.02.1-.02.22-.02.35,0,.13,0,.27,0,.42,0,.2-.03.42-.05.66-.02.24-.07.48-.14.72-.03.3.01.48.11.53.1.05.17.13.21.24.08.02.16.03.25.03.08,0,.17,0,.25.03.08.02.16.06.24.11.08.05.18.08.3.09.07,0,.17-.02.29-.07.12-.05.25-.08.39-.1.18-.03.3-.07.35-.11.05-.04.11-.12.2-.24.2-.21.32-.36.35-.44.03-.08.07-.15.1-.21.1-.08.19-.13.29-.17.1-.03.19-.08.26-.16.22-.17.45-.36.71-.59.26-.23.49-.45.69-.66.1-.08.19-.16.27-.23.09-.08.13-.18.14-.3.08-.05.14-.09.17-.11.03-.02.1-.05.21-.09.08.1.17.18.26.25.09.07.1.19,0,.36-.17.32-.39.63-.67.94-.28.31-.5.63-.66.98-.23.2-.43.4-.61.61-.18.21-.4.42-.69.6-.27.31-.46.53-.59.68-.12.15-.24.25-.34.31-.4.13-.76.26-1.08.38-.1.06-.2.08-.29.06-.09-.02-.21-.03-.36-.03-.34,0-.59-.03-.77-.12-.18-.09-.35-.17-.51-.24-.08.29-.13.6-.16.93-.03.33-.1.62-.22.87,0,.24-.02.46-.09.65-.06.19-.1.42-.11.69-.14.31-.25.65-.31.99-.06.35-.18.67-.35.97-.3.81-.78,1.55-1.44,2.25-.17,0-.32.08-.44.21-.13.14-.26.19-.39.16-.43.26-.75.32-.95.19-.2-.13-.39-.21-.56-.22-.3-.25-.5-.48-.61-.72-.11-.23-.24-.46-.38-.68-.09-.12-.17-.22-.26-.3s-.14-.18-.15-.3c-.16-.27-.31-.48-.44-.65-.14-.16-.27-.36-.39-.59-.09-.19-.15-.39-.21-.59-.05-.2-.15-.4-.28-.6-.38.19-.58.41-.62.65-.03.24-.12.45-.26.61-.01.27-.07.49-.19.66-.12.17-.19.4-.22.67-.2.21-.36.46-.48.74-.12.28-.27.56-.45.84-.18.2-.29.36-.34.47-.05.11-.12.21-.22.29-.03.13-.09.27-.16.4-.08.13-.16.27-.23.42-.08.15-.14.28-.2.41-.06.13-.13.25-.21.38-.05.14-.11.25-.17.33-.06.08-.12.15-.17.22-.05.06-.1.15-.14.25-.04.1-.08.17-.12.2-.25.3-.44.52-.59.68-.15.16-.3.22-.45.2-.16.1-.34.13-.52.08-.19-.05-.36-.1-.52-.15-.16-.12-.32-.23-.47-.33-.15-.1-.28-.23-.38-.39-.19-.13-.38-.3-.56-.5-.18-.2-.36-.4-.53-.62-.16-.43-.3-.76-.42-.96-.11-.21-.2-.42-.24-.65-.06-.27-.06-.54.02-.79.08-.26.13-.51.14-.76-.08-.17-.09-.31-.03-.43.06-.12.06-.24,0-.36.03-.6.11-1.07.24-1.41.13-.35.2-.72.19-1.14,0-.41.03-.78.1-1.11.08-.33.12-.69.11-1.08.04-.18.06-.37.06-.57,0-.2.03-.4.08-.61.05-.09.09-.17.12-.26.03-.08.08-.16.13-.22.16-.1.29-.23.39-.38.1-.15.23-.28.39-.38.14-.09.26-.16.36-.19.1-.03.19-.1.28-.2.23-.27.39-.43.49-.48.09-.05.19-.12.28-.2.2.08.36.18.5.3.13.12.21.29.24.53-.09.18-.14.31-.13.39,0,.08,0,.17-.03.25-.02.1-.06.2-.13.3-.07.09-.11.19-.12.3-.02.1-.03.19-.04.27-.01.08-.03.15-.05.24-.03.06-.07.12-.11.18-.04.06-.07.13-.1.21-.03.06-.05.12-.05.2,0,.07-.01.15-.04.23-.05.14-.13.27-.22.4-.09.13-.15.24-.16.34,0,.15.01.32.04.52.03.2.05.39.06.58,0,.24-.03.56-.1.96-.07.4-.11.74-.12,1.01.02.21.04.42.07.62.03.2.05.39.06.59,0,.1,0,.18-.03.26-.02.08-.04.16-.04.23-.01.35.03.7.13,1.05.1.36.3.54.59.54Z" />
    <path class="cls-2"
      d="M112.55,174.39c.17-.15.4-.26.7-.33.29-.07.51-.19.65-.36.07-.09.12-.18.17-.27.05-.09.12-.13.21-.14.31-.25.57-.47.77-.68.2-.21.44-.39.7-.55.06-.04.13-.11.21-.21.08-.1.13-.18.16-.24.32-.22.54-.41.66-.57.12-.16.23-.32.34-.47.11-.16.21-.32.32-.49.11-.17.24-.37.41-.62.25-.27.46-.51.63-.71.17-.2.34-.44.52-.72,0-.12.04-.23.1-.31.06-.08.1-.17.11-.27.4-.13.67-.04.81.25-.03.28-.12.53-.26.74-.14.21-.25.45-.35.69-.14.17-.25.31-.34.44-.08.12-.15.29-.21.5-.02,0-.07.08-.15.21-.08.14-.13.21-.15.21-.08.2-.15.33-.19.39-.04.06-.08.1-.11.12-.03.02-.07.06-.11.13-.04.06-.12.18-.23.37-.08.29-.21.56-.41.79-.32.59-.71,1.13-1.15,1.63-.44.49-.83.96-1.18,1.42-.07.07-.13.16-.17.26-.04.1-.1.19-.16.29-.08.12-.23.27-.43.43-.2.16-.38.3-.54.43-.1.13-.21.24-.3.32-.48.18-.88.22-1.2.13-.34-.06-.6-.11-.78-.15-.18-.04-.36-.14-.54-.3-.28-.03-.49-.19-.64-.47-.15-.28-.3-.55-.46-.82-.06-.1-.12-.22-.19-.36-.07-.14-.12-.29-.14-.45-.03-.26-.08-.53-.15-.81-.07-.28-.09-.54-.06-.77.03-.28.02-.54-.05-.79-.07-.25-.08-.51-.05-.79.06-.26.08-.4.07-.42-.02-.02-.02-.05-.01-.1.02-.08.05-.16.09-.25.03-.08.06-.18.08-.28l.04-.56c.04-.18.09-.37.15-.56.06-.19.09-.41.09-.65,0-.15.02-.29.07-.42.04-.13.09-.28.13-.44.02-.15.04-.31.03-.47,0-.16,0-.32.02-.5.01-.2.04-.4.08-.61.04-.21.09-.42.15-.63.03-.21.07-.36.11-.47.04-.11.15-.21.35-.29.08-.05.18-.08.3-.08.12,0,.23-.04.33-.12.25-.22.42-.35.53-.39.11-.03.18-.09.2-.17.25-.05.45-.03.6.06.15.1.33.19.53.27.07.69.08,1.22.02,1.62-.06.4-.13.81-.21,1.25-.05.21-.1.45-.14.7-.04.26-.08.49-.11.69-.03.28-.08.53-.14.76-.06.23-.1.48-.11.75,0,.13-.03.25-.05.36-.02.12-.04.24-.05.36,0,.17-.01.33-.05.47-.04.15-.07.29-.11.42-.02.15-.05.31-.07.46-.02.15-.03.32-.03.48-.03.3-.04.48-.05.54,0,.06-.01.12-.02.17.03.26.03.48,0,.66-.04.18.03.28.21.3h.19ZM113.03,158.08c.07.05.11.11.13.18.02.07.07.11.15.13.02.21.05.43.08.65.03.22.08.43.15.63.03.09.08.16.16.21.08.05.13.11.15.17-.03.3-.06.48-.1.54-.04.06-.05.13-.03.19-.1.08-.16.17-.19.28-.03.11-.11.18-.24.22-.02.08-.06.15-.1.2-.05.05-.06.12-.06.22-.3.27-.71.38-1.21.35-.17-.16-.37-.26-.6-.28-.42-.33-.59-.82-.51-1.48,0-.12.02-.26.04-.4.02-.14.04-.24.07-.3.19-.25.33-.42.43-.5.07-.07.15-.16.23-.26.08-.1.18-.19.3-.28.04-.04.09-.07.17-.09.08-.02.15-.07.23-.15.08-.05.15-.1.21-.14.06-.04.12-.07.19-.1h.36Z" />
    <path class="cls-2"
      d="M123.78,152.68c.3-.05.56-.09.76-.13.21-.04.39-.08.56-.12.17-.04.34-.1.51-.16.17-.07.39-.17.64-.29.47-.22.88-.42,1.25-.6.37-.18.78-.36,1.23-.56.13-.06.26-.11.42-.13.15-.02.29-.06.43-.1.29-.09.57-.19.84-.3.27-.11.52-.21.76-.31.08-.05.15-.1.21-.14.06-.04.13-.06.2-.06.2-.06.4-.13.59-.21.2-.07.4-.06.6.05.14.2.2.32.18.34-.02.03-.03.07-.03.12.07.29.08.45.02.47-.06.02-.08.05-.06.09-.16.1-.3.19-.41.26-.11.07-.18.17-.21.31-.35.21-.69.34-1.03.38-.34.05-.65.2-.93.46-.13.12-.27.25-.4.4-.13.15-.34.22-.61.21-.22.07-.47.16-.75.28-.28.11-.55.22-.81.33-.5.21-.92.38-1.27.53-.35.15-.7.28-1.02.4-.33.12-.66.24-1,.37-.34.13-.75.27-1.23.43-.13.21-.18.44-.17.68.02.24-.05.45-.18.64-.04.48-.1.81-.16.98-.07.18-.09.38-.07.59-.18.5-.33,1-.45,1.51-.12.51-.28,1.01-.49,1.49.03.26.02.5-.04.73-.06.23-.07.5-.01.83-.14.41-.2.83-.18,1.26.02.43,0,.9-.03,1.4.01.19.02.38.01.56,0,.18,0,.37-.02.57-.02.25-.06.49-.12.72-.06.23-.11.47-.15.73-.03.06-.03.13,0,.2.03.08.03.14.03.19-.02.18-.04.34-.07.48-.03.14-.05.28-.06.4,0,.12,0,.25.03.38.03.12.04.25.03.37,0,.07,0,.14,0,.2,0,.06,0,.13,0,.2.03.33.1.54.2.63.1.09.19.18.27.28.09.12.17.22.24.31.08.09.14.18.2.28.12.01.24.02.36.03.11.01.23,0,.34-.03.14-.02.26-.13.37-.32.11-.19.22-.32.32-.38.14-.09.28-.16.43-.21.14-.05.26-.12.35-.22.1-.15.17-.3.23-.44.05-.14.15-.25.29-.35.33-.2.49-.33.5-.39,0-.06.06-.17.15-.32.12-.16.22-.31.31-.45.09-.14.21-.29.35-.46.19-.18.29-.29.32-.32.03-.03.1-.14.21-.32.19-.18.34-.36.45-.54.11-.18.25-.36.41-.54.19-.16.31-.26.34-.31.03-.05.05-.08.06-.11,0-.03.02-.06.03-.12.02-.06.1-.17.24-.33.03-.21.09-.38.16-.53.08-.15.16-.33.26-.56.08-.2.18-.37.29-.53.11-.16.2-.31.28-.45.05-.07.09-.13.12-.2.03-.07.09-.13.19-.19.1-.15.17-.28.23-.38.05-.1.14-.26.27-.47.03-.06.07-.13.11-.22.05-.09.09-.15.12-.19.09-.03.17-.02.25.03.08.05.16.06.25.03.07.3.12.48.14.56.02.08.03.17.01.27-.07.24-.18.4-.34.48-.16.07-.25.24-.27.49-.08-.02-.17,0-.26.05-.09.05-.15.11-.18.17.07.07.12.15.14.21.02.07.06.14.11.22-.27.53-.44.93-.49,1.22-.17.37-.27.6-.3.68-.03.06-.09.18-.18.35-.23.34-.39.65-.48.92-.08.27-.25.54-.51.82-.19.25-.31.44-.37.56-.06.12-.15.28-.28.49-.06.12-.11.24-.16.36-.05.12-.11.25-.19.37-.12.16-.24.31-.35.44-.12.14-.21.29-.28.45-.28.26-.46.51-.54.76-.08.25-.24.5-.47.77-.16.2-.38.45-.66.76-.28.31-.53.54-.74.71-.06.04-.11.08-.16.12-.05.04-.1.08-.16.12-.21-.06-.42-.11-.62-.17-.2-.06-.39-.17-.56-.33-.25-.09-.44-.15-.59-.18-.14-.03-.29-.08-.43-.15-.34-.31-.71-.6-1.11-.89-.4-.29-.75-.64-1.05-1.06-.07-.07-.13-.16-.17-.26-.04-.1-.09-.2-.15-.3-.1-.16-.19-.3-.28-.42-.09-.12-.15-.28-.19-.49-.04-.13-.07-.28-.07-.45,0-.17-.01-.35-.03-.54,0-.31.01-.63.05-.93.04-.3.04-.62,0-.95-.01-.27-.02-.51-.01-.73,0-.22.01-.47.02-.74,0-.12,0-.24-.02-.34-.02-.1.02-.19.11-.27-.05-.47-.04-.94.02-1.42.07-.47.14-.93.22-1.37.1-.54.17-1.09.23-1.64.06-.55.13-1.1.23-1.64-.06-.27-.04-.52.05-.75-.06-.25-.04-.52.04-.8.08-.28.12-.55.1-.82-.27.01-.54.09-.82.24-.28.15-.53.28-.73.4-.39.15-.81.28-1.26.4-.16.03-.32.05-.47.06-.15.01-.3.04-.43.08-.19.09-.35.12-.46.09-.12-.02-.22,0-.32.08-.37-.15-.63-.25-.79-.3-.16-.05-.31-.09-.46-.13-.15-.04-.28-.09-.42-.16-.13-.07-.26-.19-.39-.37-.02-.07,0-.13.05-.2.05-.07.09-.13.12-.19.16-.1.36-.18.58-.24.22-.06.39-.15.49-.28.37-.07.69-.19.96-.38.27-.18.58-.32.91-.4.07-.02.14-.03.21-.03.07,0,.14,0,.21-.03.12-.01.21-.04.28-.09.07-.05.16-.1.26-.16.13-.06.27-.11.43-.14.16-.03.32-.08.47-.15.28-.11.64-.2,1.07-.25.43-.05.79-.18,1.06-.39.01-.35.04-.7.08-1.07.04-.37.06-.72.05-1.06.05-.16.09-.34.12-.53.04-.19.05-.38.05-.54.06-.26.11-.47.15-.63.03-.16.09-.32.16-.49.06-.36.08-.7.06-1.02-.02-.32-.02-.68,0-1.08.19-.4.36-.87.5-1.4.16-.03.28-.11.34-.25.06-.14.22-.18.46-.11.02.07.07.12.14.16.07.04.1.12.1.24.15.07.27.15.36.21.09.07.18.15.26.25.1.16.15.37.15.63,0,.26.08.47.26.63.08.1.12.2.13.3,0,.11.05.2.12.27.08.1.18.19.29.27.11.09.2.22.25.39.02.07.03.15.03.26,0,.11,0,.23-.02.35.02.36.02.61.02.76,0,.15,0,.3,0,.47-.1.23-.14.37-.12.42.02.06.02.11.01.16-.02.15-.05.34-.06.55-.02.21-.04.39-.07.52Z" />
    <path class="cls-2"
      d="M130.37,167.99c.37-.6.69-1.24.95-1.89.27-.66.57-1.33.91-2.03.08-.15.14-.31.2-.51.06-.19.12-.39.17-.6.05-.16.12-.32.21-.49.09-.16.17-.32.22-.45.03-.13.09-.25.16-.35.08-.1.16-.21.24-.33.08-.15.15-.27.21-.38.06-.11.14-.22.22-.34.15-.22.29-.44.41-.66.12-.22.29-.43.5-.62.13-.06.21-.15.25-.24.04-.1.09-.21.15-.32.12-.01.21-.05.29-.13.07-.07.16-.15.26-.23.33-.03.62.01.86.13.24.12.48.24.72.36.18.02.32.04.42.07.11.03.21.06.32.1.15.15.28.29.39.42.12.13.21.3.27.5.04.13.07.27.09.41.02.14.04.28.06.42,0,.29,0,.45.04.46.03.02.05.05.06.09.08.17.08.37,0,.61-.08.23-.06.44.07.62.04.06.07.24.08.53,0,.29.03.46.08.52.09.12.16.28.23.49.07.21.17.34.31.4.25.02.42.01.51-.02.09-.03.17-.05.23-.07.22-.22.48-.55.78-1,.3-.45.51-.81.64-1.1.16-.25.31-.48.43-.7.12-.22.32-.46.58-.71.21-.26.34-.46.4-.59.06-.13.15-.33.28-.62.05-.09.11-.18.19-.28.08-.1.15-.21.21-.32.04-.09.11-.19.2-.3.09-.11.16-.19.22-.23.09-.03.22-.07.38-.12.17-.05.29-.04.36.03.1.16.15.32.15.47,0,.15-.02.29-.05.42-.05.16-.11.32-.18.46-.04.18-.09.36-.16.53-.08.15-.16.31-.24.5-.09.19-.21.35-.35.5-.07.17-.14.32-.2.45-.07.13-.14.27-.22.42-.08.15-.14.3-.18.46-.05.16-.11.32-.18.46-.18.28-.36.55-.53.81-.17.26-.32.55-.44.85-.1.08-.17.16-.22.23-.05.08-.11.15-.19.22-.2.14-.37.31-.53.53-.15.22-.3.44-.46.68-.16.23-.33.45-.51.65-.18.2-.4.34-.68.4-.21.19-.42.26-.63.22-.21-.04-.42-.09-.63-.15-.29-.08-.58-.18-.87-.31-.29-.13-.51-.36-.66-.7-.23-.56-.33-1.13-.32-1.69.02-.57-.01-1.12-.09-1.65-.01-.04-.02-.13-.03-.26,0-.13-.03-.27-.06-.42-.03-.15-.07-.28-.09-.41-.03-.13-.06-.21-.1-.24-.06-.03-.11-.1-.16-.21-.05-.11-.18-.19-.39-.24-.13-.03-.18-.03-.14,0,.04.04-.05.09-.24.15-.16.12-.28.26-.38.41-.1.15-.21.31-.33.47-.14.31-.32.62-.54.9-.21.29-.38.59-.49.92-.11.26-.22.51-.31.76-.09.25-.21.5-.34.77-.18.42-.37.85-.58,1.28-.2.43-.41.85-.62,1.26-.1.23-.19.45-.26.67-.08.22-.16.44-.26.67-.16.42-.35.83-.56,1.24-.06.26-.18.53-.36.81s-.38.5-.59.66c-.08-.02-.15,0-.22.07-.06.07-.13.11-.19.13-.3-.03-.48-.04-.52-.03-.05,0-.1-.04-.15-.12-.26-.06-.42-.25-.45-.57-.04-.32-.07-.59-.1-.83-.1-1.07-.11-2.15-.03-3.26.07-1.11.07-2.17-.01-3.2,0-.41,0-.79,0-1.15,0-.36.03-.74.08-1.14.06-.36.06-.71.01-1.05-.05-.34-.04-.69.01-1.05.04-.18.06-.37.07-.57,0-.2.02-.39.04-.56.1-.52.16-1.14.17-1.87.01-.72.06-1.38.14-1.96.04-.79.1-1.57.18-2.32.08-.76.19-1.51.34-2.26-.03-.48-.02-.94.02-1.38.04-.44.13-.89.25-1.34.13-.36.2-.64.23-.84.02-.2.06-.4.12-.59.17-.39.39-.74.66-1.03.27-.29.48-.63.63-1.02.15-.15.3-.27.45-.36.15-.1.29-.2.43-.32.06.03.1.08.14.16.04.07.06.14.09.21.04-.01.08.05.1.19.02.14.06.25.11.33.11.33.15.56.13.69-.02.13-.03.26-.03.41.02.14.05.26.08.36.03.1.05.2.06.29,0,.22,0,.35.03.38.02.03.04.07.05.11.03.09.05.19.06.31.01.12.04.23.07.34.05.25.07.52.06.82-.02.3-.02.57-.02.81-.08.2-.12.34-.12.44,0,.1-.02.17-.08.21-.01.42-.02.82-.02,1.21,0,.39-.06.77-.18,1.16-.01.27-.05.55-.12.82-.07.28-.13.55-.17.8,0,.13-.03.25-.05.36-.02.12-.04.24-.05.36-.06.34-.13.68-.2,1.03-.07.35-.18.69-.32,1-.13.97-.28,1.95-.45,2.94-.17.99-.34,1.95-.51,2.89-.08.29-.12.54-.13.74-.02.18-.01.33.02.45.03.13,0,.26-.07.41,0,.22,0,.43,0,.62,0,.19-.03.39-.09.58.06.49.05.95-.02,1.38-.07.42-.09.88-.06,1.35Z" />
    <path class="cls-5"
      d="M29.59,187.04h7.39c.26,0,.49.1.68.29.19.19.29.42.29.68v23.17c0,.26-.1.49-.29.68-.19.19-.42.29-.68.29h-7.39c-.26,0-.49-.09-.68-.29-.19-.19-.29-.42-.29-.68v-7.64h-7.17v7.64c0,.26-.1.49-.29.68-.19.19-.42.29-.68.29h-7.39c-.26,0-.49-.09-.68-.27-.19-.18-.29-.41-.29-.7v-23.17c0-.26.1-.49.29-.68.19-.19.42-.29.68-.29h7.39c.26,0,.49.1.68.29.19.19.29.42.29.68v7.35h7.17v-7.35c0-.26.1-.49.29-.68.19-.19.42-.29.68-.29Z" />
    <path class="cls-5"
      d="M52.83,205.15h14.31c.26,0,.49.1.68.29.19.19.29.42.29.68v5.06c0,.26-.1.49-.29.68-.19.19-.42.29-.68.29h-22.66c-.26,0-.49-.09-.68-.29-.19-.19-.29-.42-.29-.68v-23.17c0-.26.1-.49.29-.68.19-.19.42-.29.68-.29h22.31c.26,0,.49.1.68.29.19.19.29.42.29.68v5.06c0,.26-.1.49-.29.68-.19.19-.42.29-.68.29h-13.95v2.26h11.98c.26,0,.49.1.68.29.19.19.29.42.29.68v4.66c0,.26-.1.49-.29.68-.19.19-.42.29-.68.29h-11.98v2.26Z" />
    <path class="cls-5"
      d="M85.46,204.79h12.23c.26,0,.49.1.68.29.19.19.29.42.29.68v5.42c0,.26-.1.49-.29.68-.19.19-.42.29-.68.29h-20.94c-.26,0-.49-.09-.68-.29-.19-.19-.29-.42-.29-.68v-23.17c0-.26.1-.49.29-.68.19-.19.42-.29.68-.29h7.75c.26,0,.49.1.68.29.19.19.29.42.29.68v16.78Z" />
    <path class="cls-5"
      d="M115.94,204.79h12.23c.26,0,.49.1.68.29.19.19.29.42.29.68v5.42c0,.26-.1.49-.29.68-.19.19-.42.29-.68.29h-20.94c-.26,0-.49-.09-.68-.29-.19-.19-.29-.42-.29-.68v-23.17c0-.26.1-.49.29-.68.19-.19.42-.29.68-.29h7.75c.26,0,.49.1.68.29s.29.42.29.68v16.78Z" />
    <path class="cls-2"
      d="M36.98,187.04h-7.39c-.26,0-.49.1-.68.29-.19.19-.29.42-.29.68v7.35h-6.99l-.61,1.5h8.86l.88-7.39,7.19-.05v-1.42c0-.26-.1-.49-.29-.68-.19-.19-.42-.29-.68-.29Z" />
    <path class="cls-2"
      d="M21.45,188.01c0-.26-.1-.49-.29-.68-.19-.19-.42-.29-.68-.29h-7.39c-.26,0-.49.1-.68.29-.19.19-.29.42-.29.68v23.17c0,.29.1.52.29.7.19.18.42.27.68.27h.29l1.7-22.61,6.36-.19v-1.33Z" />
    <path class="cls-2"
      d="M66.78,187.04h-22.31c-.26,0-.49.1-.68.29-.19.19-.29.42-.29.68v23.17c0,.26.1.49.29.68.19.19.42.29.68.29h.27l1.38-22.45,21.62-1.28v-.41c0-.26-.1-.49-.29-.68-.19-.19-.42-.29-.68-.29Z" />
    <path class="cls-2"
      d="M84.49,187.04h-7.75c-.26,0-.49.1-.68.29-.19.19-.29.42-.29.68v23.17c0,.26.1.49.29.68.16.16.36.24.57.27l2.36-22.29,6.47.16v-1.99c0-.26-.1-.49-.29-.68-.19-.19-.42-.29-.68-.29Z" />
    <path class="cls-2"
      d="M115.65,187.33c-.19-.19-.42-.29-.68-.29h-7.75c-.26,0-.49.1-.68.29-.19.19-.29.42-.29.68v23.17c0,.26.1.49.29.68.19.19.42.29.68.29h1.03l.55-21.37,7.14-.69v-2.07c0-.26-.1-.49-.29-.68Z" />
    <path class="cls-4"
      d="M36.98,212.98h-7.39c-.48,0-.92-.18-1.27-.53-.34-.34-.53-.78-.53-1.27v-6.81h-5.51v6.81c0,.48-.18.92-.53,1.27-.34.34-.78.53-1.27.53h-7.39c-.47,0-.9-.17-1.25-.49-.36-.34-.55-.79-.55-1.3v-23.17c0-.48.18-.92.53-1.27.35-.35.78-.53,1.27-.53h7.39c.48,0,.92.18,1.27.53.35.35.53.79.53,1.27v6.52h5.51v-6.52c0-.48.18-.92.53-1.27.35-.35.78-.53,1.27-.53h7.39c.48,0,.92.18,1.27.53.35.35.53.79.53,1.27v23.17c0,.48-.18.92-.53,1.27-.35.35-.78.53-1.27.53ZM21.45,202.71h7.17c.46,0,.83.37.83.83v7.64s0,.05.04.09c.04.04.06.05.1.05h7.39s.05,0,.09-.04c.04-.04.04-.06.04-.09v-23.17s0-.05-.04-.09c-.04-.04-.06-.04-.09-.04h-7.39s-.05,0-.09.04c-.04.04-.04.06-.04.09v7.35c0,.46-.37.83-.83.83h-7.17c-.46,0-.83-.37-.83-.83v-7.35s0-.05-.04-.09c-.04-.04-.06-.04-.09-.04h-7.39s-.05,0-.09.04c-.04.04-.04.06-.04.09v23.17c0,.07.01.08.02.09.04.04.06.05.11.05h7.39s.05,0,.09-.04c.04-.04.04-.06.04-.09v-7.64c0-.46.37-.83.83-.83Z" />
    <path class="cls-4"
      d="M67.14,212.98h-22.66c-.48,0-.92-.18-1.27-.53-.34-.34-.53-.78-.53-1.27v-23.17c0-.48.18-.92.53-1.27.35-.35.78-.53,1.27-.53h22.31c.48,0,.92.18,1.27.53.35.35.53.79.53,1.27v5.06c0,.48-.18.92-.53,1.27-.35.35-.79.53-1.27.53h-13.12v.6h11.15c.48,0,.92.18,1.27.53.35.35.53.79.53,1.27v4.66c0,.48-.18.92-.53,1.27-.35.35-.79.53-1.27.53h-11.15v.6h13.48c.48,0,.92.18,1.27.53.35.35.53.79.53,1.27v5.06c0,.48-.18.92-.53,1.27-.35.35-.78.53-1.27.53ZM44.47,187.87s-.05,0-.09.04c-.04.04-.04.06-.04.09v23.17s0,.05.04.09c.04.04.06.05.1.05h22.66s.05,0,.09-.04c.04-.04.04-.06.04-.09v-5.06s0-.05-.05-.1c-.04-.04-.06-.04-.09-.04h-14.31c-.46,0-.83-.37-.83-.83v-2.26c0-.46.37-.83.83-.83h11.98s.05,0,.09-.04c.04-.04.04-.06.04-.09v-4.66s0-.05-.05-.1c-.04-.04-.06-.04-.09-.04h-11.98c-.46,0-.83-.37-.83-.83v-2.26c0-.46.37-.83.83-.83h13.95s.05,0,.09-.04c.04-.04.04-.06.04-.09v-5.06s0-.05-.04-.09c-.04-.04-.06-.04-.09-.04h-22.31Z" />
    <path class="cls-4"
      d="M97.69,212.98h-20.94c-.49,0-.92-.18-1.27-.53-.34-.34-.53-.78-.53-1.27v-23.17c0-.48.18-.92.53-1.27.35-.35.78-.53,1.27-.53h7.75c.48,0,.92.18,1.27.53.35.35.53.79.53,1.27v15.95h11.4c.48,0,.92.18,1.27.53.35.35.53.79.53,1.27v5.42c0,.48-.18.92-.53,1.27-.35.35-.78.53-1.27.53ZM76.75,187.87s-.05,0-.09.04c-.04.04-.04.06-.04.09v23.17s0,.05.04.09c.04.04.06.05.1.05h20.94s.05,0,.09-.04c.04-.04.04-.06.04-.09v-5.42s0-.05-.04-.09c-.04-.04-.06-.04-.09-.04h-12.23c-.46,0-.83-.37-.83-.83v-16.78s0-.05-.04-.09c-.04-.04-.06-.04-.09-.04h-7.75Z" />
    <path class="cls-4"
      d="M128.17,212.98h-20.94c-.49,0-.92-.18-1.27-.53-.34-.34-.53-.78-.53-1.27v-23.17c0-.48.18-.92.53-1.27.35-.35.78-.53,1.27-.53h7.75c.48,0,.92.18,1.27.53.35.35.53.79.53,1.27v15.95h11.4c.48,0,.92.18,1.27.53.35.35.53.79.53,1.27v5.42c0,.48-.18.92-.53,1.27-.35.35-.78.53-1.27.53ZM107.23,187.87s-.05,0-.09.04c-.04.04-.04.06-.04.09v23.17s0,.05.04.09c.04.04.06.05.1.05h20.94s.05,0,.09-.04c.04-.04.04-.06.04-.09v-5.42s0-.05-.04-.09c-.04-.04-.06-.04-.09-.04h-12.23c-.46,0-.83-.37-.83-.83v-16.78s0-.05-.04-.09c-.04-.04-.06-.04-.09-.04h-7.75Z" />
    <path class="cls-2"
      d="M41.74,185.29c-2.15,0-4.6-1.7-10.19-8.25-.04-.02-.08-.04-.12-.06-.01,0-.02-.01-.04-.02-8.34-4.65-15.33-12.08-20.79-22.09-.73-1.34-.57-2.97.37-4.13,1.07-1.5,13.85-21.19,18.36-33.23.82-2.18,1.59-4.42,2.31-6.62-.23-.03-.45-.07-.68-.14-1.09-.33-1.97-1.14-2.39-2.19l-2.51-6.29c-.54-1.35-.24-2.9.76-3.96l5.86-6.17c1.13-1.19,2.9-1.51,4.38-.77l.13.06c.12-.5.19-.78.19-.79.17-.71.53-1.35,1.06-1.85,15.98-15.24,16.53-15.24,18.31-15.22h0c.44,0,.82.09,1.06.15.04.01.1.03.15.04.09.03.19.06.31.1,0,0,0,0,0,0h0s.02,0,.03,0h0s.02,0,.04.01c0,0,0,0,0,0,0,0,.01,0,.02,0l.39.14s.06.02.09.03c.08.03.24.09.42.15,0,0,.01,0,.02,0h0c.91.33,2.23.85,3.78,1.45,3.8,1.47,13.68,5.3,16.29,5.67,1.32-.52,5.75-2.98,15.37-9.5l.99-.67c.61-.46,1.18-.85,1.76-1.2,1.41-.85,3.21-.67,4.43.44l10.38,9.42,6.48-.89c1.58-.22,3.15.2,4.43,1.16,1.27.97,2.09,2.37,2.31,3.95l1.99,14.55c.05.38.08.75.1,1.13,0,.11,0,.22,0,.33,0,.29,0,.53-.01.78,0,.15-.02.29-.03.43-.02.24-.05.47-.08.69-.02.13-.04.28-.07.43-.04.21-.09.42-.14.63-.04.19-.08.32-.11.44-.06.22-.14.44-.21.66-.09.26-.19.52-.3.78-.09.21-.15.34-.21.48-.09.18-.18.35-.27.52l-3.33-1.7,3.28,1.78c-.05.1-.11.2-.17.3-.12.2-.24.39-.37.58-.05.08-.12.18-.19.27-.14.19-.28.39-.44.58l-.11.14c-.34.41-.7.79-1.08,1.14,2.98,1.96,6.88,6.01,7.33,6.49.77.81,1.14,1.91,1.01,3.02l-.05.35s0,.03,0,.04h0s0,.05,0,.07v.11s-.03.08-.03.09l-.08.6c-.2,1.41-.64,4.16-1.33,7.09,0,0,0,.01,0,.02h0c-.3,1.29-.63,2.51-.97,3.61,0,0-.02.08-.02.08-.13.43-.26.8-.38,1.17,0,0-.02.07-.03.08-.15.42-.28.78-.42,1.14,0,.01,0,.02-.01.04h0c-.14.36-.29.71-.44,1.05l-.09.19c-.15.34-.31.67-.47.98l-.07.13c-.21.39-.39.72-.59,1.03-3.31,5.3-6.45,8.35-6.58,8.47-1.09,1.05-2.65,1.31-3.97.78-2.87,4.53-4.34,4.84-5.29,5.05-.07.02-.23.05-.45.07-.47.06-1.29.11-3.98.22l-18.52.75c-.32.02-.63.03-.95.05.51,1.8.21,4.69-.31,9.54-.42,3.94-.93,7.89-.94,7.93-.16,1.23-.92,2.3-2.03,2.85l-7,3.52c.71,3.9.6,5.11-.22,6.34-.51.76-1.27,1.31-2.14,1.56-.08.02-.16.04-.24.06-.17.04-.35.06-.53.08-.14.01-.31.02-.52.02-.06,0-.13,0-.18,0-.03,0-.06,0-.1,0-.03,0-.07,0-.11-.01-.02,0-.04,0-.06,0l-.2-.03s-.08-.01-.12-.02c-.02,0-.11-.02-.13-.03h-.05c-.1-.03-.21-.06-.33-.09l-.08-.02s-.05-.01-.07-.02c-.03,0-.05-.01-.08-.02l-.14-.04s-.13-.04-.13-.04c-.03-.01-.14-.04-.18-.05l-.14-.05s-.05-.02-.08-.03l-.08-.03s-.09-.03-.11-.04l-.46-.16h0l-.58-.22s-.1-.04-.11-.04l-.09-.03s-.1-.04-.11-.04l1.31-3.5-1.44,3.45-.31-.12s-.17-.07-.19-.08l-.46-.19,1.33-3.49-1.44,3.45-.43-.18s-.08-.04-.08-.04l-.41-.18s-.08-.03-.08-.03l-.1-.04s-.07-.03-.08-.03l-1.21-.53-3.27,1.65c-1.1.55-2.39.52-3.45-.05-.06,0-.13.01-.19.02-.74.04-1.46.07-2.19.09h-.68c-.5.01-1.01.02-1.51.01h-.75c-.49-.03-.97-.05-1.45-.07h-.11c-.2-.02-.4-.03-.6-.04-.53-.03-1.08-.08-1.62-.12l-.45-.04c-.87-.09-1.73-.19-2.59-.32-1.01.9-1.84,1.55-2.55,2-.02.02-.05.03-.07.04,0,0-.01,0-.02.01-.11.07-.27.16-.42.24-.05.03-.17.09-.22.11-.14.07-.27.13-.39.18-.28.12-.56.2-.84.27-.35.08-.7.12-1.05.12ZM73.13,178.74l-.31,1.1.33-1.05-.02-.05ZM72.75,177.88l-.55,1.76.58-1.68-.03-.08ZM72.42,177.12l-.81,2.3.84-2.22-.04-.08ZM40.65,178.05s0,0,0,0h0ZM73.6,177.08v.12s.15-.59.15-.59l-.15.47ZM35,170.42s.02.01.03.02c.22.12.44.24.66.36.42.22.79.52,1.1.88,2.57,3.03,4.14,4.63,5.05,5.47.42-.36.96-.85,1.66-1.53.87-.84,2.09-1.2,3.28-.98l.26.05c1.15.21,2.36.38,3.57.5l.4.03c.46.04.93.08,1.41.11l.61.03c.42.02.84.04,1.27.05h.66c.43.02.88.02,1.32.01h.4c.44-.45.98-.79,1.6-.97,1.16-.35,2.41-.11,3.37.63l2.72-1.37c1-.5,2.17-.53,3.19-.08l1.65.75s0,0,0-.01c-.34-1.65.47-3.33,1.98-4.09l7.75-3.9c.52-4.21,1-8.67,1.15-11.09-1.07-.54-2.7-1.37-5.19-2.64l-5.04,3.16c-1.35.85-3.1.74-4.34-.27-1.24-1.01-1.7-2.69-1.15-4.19,1.06-2.87,1.54-4.18,3.21-4.89.17-.07.35-.13.53-.18,1.15-.3,2.75-.57,4.88-.82.42-.05.84-.03,1.24.06.37-.17.77-.28,1.19-.32,3.26-.31,7.36-.6,12.53-.86l18.56-.76c1.18-.05,1.96-.08,2.48-.11.79-1.02,2.15-3.2,3.24-5.26.55-1.03,1.55-1.75,2.71-1.94.96-.15,1.93.07,2.71.61.9-1.14,1.99-2.61,3.1-4.39.1-.17.2-.35.3-.53l3.37,1.62-3.32-1.72c.1-.2.2-.41.3-.63l.05-.11c.11-.26.22-.5.32-.76,0-.02.01-.04.02-.05.1-.26.21-.55.31-.84l3.57,1.12-3.53-1.22c.1-.3.2-.6.3-.91,0,0,.03-.1.03-.11.29-.94.57-1.98.83-3.1,0,0,0-.02,0-.03.53-2.27.9-4.43,1.11-5.8-1.58-1.56-3.66-3.45-4.94-4.24,0,0,0,0,0,0-.36-.22-.89-.52-1.59-.89,0,0-.01,0-.02,0-1.13-.6-2.63-1.36-4.46-2.26-1.48-.72-2.31-2.33-2.05-3.95s1.55-2.89,3.18-3.11l1.66-.23c.38-.05.78-.16,1.17-.33.11-.05.21-.1.32-.15.02,0,.03-.02.05-.03.51-.28.96-.64,1.33-1.09,0,0,.05-.06.06-.07.06-.07.11-.14.16-.21l.06-.09c.06-.09.1-.16.15-.23l.04-.08s.05-.1.06-.1c.03-.06.06-.11.09-.17l.08-.19c.04-.09.08-.19.11-.29.03-.08.06-.16.08-.24l.04-.17c.02-.07.04-.15.05-.24l.02-.16c.01-.1.02-.18.03-.26v-.16c.02-.08.02-.18.02-.27v-.13c0-.15-.01-.29-.03-.43l-1.79-13.08-6.72.92c-1.1.15-2.2-.19-3.02-.93l-9.49-8.61-.15.1c-15.18,10.29-17.48,10.6-18.58,10.76-2.39.33-6.68-.99-19.97-6.15-1.17-.45-2.2-.85-3.01-1.16-2.46,2.1-7.93,7.17-12.97,11.97-.23.94-.61,2.44-1.11,4.35-.13.51-.37.98-.69,1.38.08.5.05,1.03-.09,1.54-1.38,5.03-3.57,12.49-6.16,19.41-3.94,10.55-13.94,26.9-18.05,33.12,4.57,7.75,10.19,13.52,16.73,17.17ZM72.76,176.36s0,0,0,0c0,0,0,0,0,0ZM11.25,150.44s-.13.13-.24.27c.08-.09.16-.18.24-.27ZM127.62,118.82l.66.07-.64-.09-.02.02Z" />
    <path class="cls-4"
      d="M41.81,183.2c-1.27,0-3.28-1.15-8.93-7.79-.16-.09-.31-.17-.47-.26-8-4.46-14.72-11.61-19.98-21.27-.33-.61-.25-1.35.19-1.87.78-1.06,14.08-21.54,18.66-33.77,2.52-6.73,4.66-14.02,6.01-18.95l.78-2.88c.84-3.2,1.33-5.27,1.33-5.29.07-.31.24-.6.47-.82,15.37-14.66,16.06-14.63,16.86-14.65.21,0,.4.04.56.09.15.04.23.07.33.1.03,0,.05.02.08.03l.84.3s.02,0,.03,0c.9.33,2.21.84,3.74,1.43,4.62,1.79,15.43,5.98,17.3,5.84,1.02-.16,5.9-2.84,16.28-9.88l1.04-.71c.57-.43,1.09-.79,1.61-1.1.63-.38,1.43-.3,1.97.19l11.1,10.07,7.44-1.02c1.04-.14,2.06.13,2.89.76.83.63,1.37,1.55,1.51,2.58l1.99,14.55c.04.31.07.63.08.94,0,.08,0,.16,0,.24,0,.27,0,.48-.01.69,0,.12-.02.23-.03.35-.02.19-.04.37-.07.56-.02.12-.04.25-.06.37-.03.18-.07.35-.11.52-.04.17-.06.27-.09.36-.05.18-.11.36-.18.54-.07.22-.16.43-.25.65-.08.18-.12.29-.18.4-.06.14-.14.27-.21.41l-1.5-.71,1.46.79c-.05.09-.1.18-.15.27-.09.15-.19.31-.29.47l-.15.22c-.12.17-.24.33-.37.49,0,.01-.07.09-.08.1-.86,1.03-1.86,1.85-3,2.46-.14.08-.28.14-.41.21.2.1.39.2.57.3.8.42,1.43.78,1.9,1.07h0c2.84,1.75,7.09,6.19,7.27,6.38.34.36.51.85.45,1.35l-.05.38s0,.05-.01.07l-.05.39s-.01.1-.01.1l-.03.19s-.02.11-.02.11c-.19,1.35-.62,4.03-1.29,6.88,0,0,0,.02,0,.03-.29,1.24-.61,2.41-.93,3.47,0,0-.03.09-.03.09-.12.4-.24.75-.36,1.1,0,0-.04.11-.04.12-.12.35-.25.69-.38,1.03-.14.37-.28.69-.42,1l-.07.16c-.14.32-.28.61-.43.9l-.06.12c-.18.33-.34.62-.51.9-3.18,5.08-6.13,7.96-6.26,8.08-.64.62-1.66.62-2.3,0l-.82-.78c-3.23,5.66-4.64,5.97-5.14,6.07-.05,0-.14.03-.27.04-.38.05-1.43.11-3.81.2l-18.52.76c-2.37.12-4.51.25-6.44.38,1.65.83,2.44,1.23,2.6,1.3,1.28.55,1.86.81-.33,17.65-.07.55-.41,1.02-.9,1.27l-8.4,4.23c1.05,5.35.78,5.75.39,6.34-.17.25-.47.56-.98.71-.04.01-.08.02-.13.03-.04,0-.08.02-.12.02-.04,0-.09.01-.14.01-.08,0-.17.01-.27,0-.02,0-.08,0-.1,0-.04,0-.12-.01-.16-.02-.02,0-.09-.01-.18-.02-.02,0-.1-.02-.12-.02l-.94-.26s-.09-.03-.11-.04l-.11-.03s-.12-.04-.13-.04l-.65-.24s-.09-.04-.09-.04l-1.41-.56s-.1-.04-.1-.04c0,0-.12-.05-.12-.05l-.7-.3s-.07-.03-.08-.03l-.24-.1s-.07-.03-.08-.03l-2.1-.93-4.15,2.09c-.58.29-1.28.22-1.78-.19l-.33-.26c-.21.12-.45.19-.71.2-.71.04-1.42.07-2.12.08-.15,0-.3,0-.45,0h-.2c-.49,0-.97,0-1.46,0-.24,0-.48,0-.72-.01-.47-.01-.93-.03-1.4-.05l-.67-.04c-.53-.03-1.05-.07-1.57-.12l-.45-.04c-1.14-.11-2.3-.27-3.44-.46-1.25,1.17-2.23,1.98-2.99,2.46-.14.09-.26.16-.38.22-.03.01-.12.06-.14.07-.14.07-.22.11-.29.13-.18.07-.35.13-.5.16-.17.04-.34.06-.53.06ZM15.84,153.18c4.88,8.65,10.99,15.06,18.18,19.07.23.13.46.26.69.38.19.1.36.23.49.39,4.26,5.03,6.02,6.39,6.61,6.75.02-.01.03-.02.05-.03.47-.3,1.39-.99,3.08-2.63.39-.37.93-.54,1.46-.44l.26.05c1.23.22,2.49.4,3.74.52l.42.04c.49.04.98.08,1.47.11l.62.03c.44.02.88.04,1.32.05.23,0,.45.01.68.01.46,0,.92,0,1.38,0h.61c.3-.01.59-.02.88-.03.18-.49.58-.88,1.08-1.03.52-.16,1.09-.05,1.51.29l1,.8,3.91-1.97c.45-.23.98-.24,1.44-.03l.1.05s.09.04.1.04l2.38,1.06s.13.06.13.06l-.54,1.58.65-1.53.99.42-.53,1.58.64-1.53-.54,1.57.63-1.53.88.36s.08.03.09.03l.22.09c-.13-.84-.35-2.07-.72-3.84-.15-.73.21-1.48.88-1.82l8.74-4.4c.72-5.61,1.35-11.65,1.35-13.71-1.49-.74-4.57-2.31-7.19-3.64-.11-.05-.2-.12-.29-.19-.11.14-.25.27-.42.37l-5.56,3.48c-.6.38-1.38.33-1.93-.12-.55-.45-.76-1.2-.51-1.86,1.08-2.93,1.34-3.38,2.08-3.7.08-.03.16-.06.24-.08,1.07-.28,2.57-.53,4.61-.77.46-.05.9.08,1.24.36.27-.34.68-.57,1.14-.62,3.23-.31,7.3-.59,12.44-.85l18.54-.76c.7-.03,2.69-.1,3.37-.16.74-.64,2.59-3.48,4.09-6.31.24-.46.69-.78,1.2-.86.52-.08,1.04.08,1.41.44l1.17,1.12c1.08-1.22,2.84-3.37,4.66-6.28.13-.21.25-.43.37-.66l1.54.64-1.48-.76c.12-.23.24-.48.35-.73l.06-.14c.12-.27.24-.55.35-.84.13-.33.24-.63.35-.94l1.61.43-1.57-.54c.11-.32.21-.64.32-.97l.04-.13c.3-.98.6-2.08.87-3.25,0,0,0,0,0-.01.64-2.73,1.05-5.31,1.24-6.6l.48.04s-.06-.06-.09-.09l-.37-.05.03-.18h.12s-.07-.06-.11-.1h0c-1.2-1.22-4.12-4.09-6.05-5.28-.4-.25-.97-.57-1.7-.95,0,0-.02,0-.03-.01-1.15-.61-2.67-1.38-4.52-2.29-.66-.32-1.03-1.03-.91-1.76.12-.72.69-1.28,1.41-1.38l1.66-.23c.56-.08,1.14-.24,1.7-.48.16-.07.32-.14.47-.22.79-.42,1.46-.96,2.01-1.62,0,0,.05-.06.05-.06.11-.13.19-.24.27-.35l.1-.15c.07-.1.14-.21.2-.31l.08-.15s.05-.09.05-.09c.05-.08.09-.17.13-.25.03-.06.05-.12.08-.18l.04-.09c.06-.14.12-.29.17-.43.04-.12.08-.24.12-.36l.06-.24c.03-.11.05-.23.08-.35.01-.08.03-.16.04-.24.02-.13.03-.25.04-.37,0-.07.01-.15.02-.23,0-.14,0-.28,0-.42v-.2c0-.21-.03-.42-.05-.63l-1.99-14.55c-.03-.21-.15-.33-.22-.39-.07-.05-.22-.14-.43-.11l-8.2,1.12c-.49.07-.98-.09-1.34-.42l-10.72-9.73c-.11.08-.21.16-.32.24-.02.02-.05.04-.07.05l-1.08.73c-14.78,10.02-16.98,10.32-17.71,10.42-2.12.29-8.04-1.8-18.95-6.03-1.51-.59-2.8-1.08-3.68-1.41,0,0,0,0,0,0l-.45-.16s0,0-.01,0c-2.05,1.6-9.3,8.35-14.44,13.25-.19.8-.62,2.56-1.24,4.9l-.78,2.9c-1.37,5-3.54,12.39-6.1,19.24-4.18,11.18-15.43,29.17-18.55,33.78ZM72.16,179.24l-.09.34.1-.27s0-.04,0-.07ZM72.02,178.11l-.41,1.31.43-1.14c0-.05-.02-.11-.02-.16ZM83.07,154.42h0,0ZM127.3,119.12l.93.07-.88-.13-.06.06ZM127.59,118.85l.69.05-.65-.09-.04.04Z" />
    <path class="cls-5"
      d="M13.89,153.08c.41-.41,14.18-21.53,18.94-34.26,4.76-12.73,8.18-27.33,8.18-27.33,0,0,14.88-14.2,15.7-14.19.82,0,20.11,8.19,23.12,7.77,3-.41,19.57-11.9,19.57-11.9l12.32,11.18-1.14,22.15s8.18,3.83,10.87,5.49c2.69,1.66,6.94,6.11,6.94,6.11,0,0-1.35,11.39-4.45,16.36-3.11,4.97-6,7.76-6,7.76l-2.38-2.28s-3.62,6.83-5.07,7.14c-1.45.31-33.85.83-41.41,2.79-.72.31-10.04,29.19-10.04,29.19-19.88,1.13-35-7.38-45.13-25.98Z" />
    <path class="cls-1"
      d="M13.89,153.08c.41-.41,14.18-21.53,18.94-34.26,4.76-12.73,8.18-27.33,8.18-27.33,0,0,14.88-14.2,15.7-14.19.82,0,20.11,8.19,23.12,7.77,3-.41,19.57-11.9,19.57-11.9l12.32,11.18-1.14,22.15s8.18,3.83,10.87,5.49c2.69,1.66,6.94,6.11,6.94,6.11,0,0-1.35,11.39-4.45,16.36-3.11,4.97-6,7.76-6,7.76l-2.38-2.28s-3.62,6.83-5.07,7.14c-1.45.31-33.85.83-41.41,2.79-.72.31-10.04,29.19-10.04,29.19-19.88,1.13-35-7.38-45.13-25.98Z" />
    <path class="cls-5"
      d="M92.71,140.24c-6.64,1.66-17.75-2.04-23.56-4.53-16.83-5.26-28,6.88-34.8,20.45-2.59,5.16-4.83,8.76-6.09,14.29,8.49,6.46,18.76,9.3,30.77,8.62,0,0,9.32-28.88,10.04-29.19,7.56-1.97,39.96-2.48,41.41-2.79,1.45-.31,5.07-7.14,5.07-7.14,0,0-4.39-2.64-8.95-3.49-2.51-.47-7.61,2.22-13.89,3.79Z" />
    <path class="cls-2"
      d="M99.4,76.88s8.39,6.43,12.19,9.97l.13-2.5-12.32-11.18s-1.01.7-2.57,1.76c-4.23,4.77-7.24,10.69-10.25,15.94,2.34-2.8,4.95-7.44,7.8-10.48,2.21-2.35,5.02-3.51,5.02-3.51Z" />
    <path class="cls-2"
      d="M57.99,77.71c-.71-.26-1.17-.42-1.28-.42-.82,0-15.7,14.19-15.7,14.19,0,0-3.42,14.6-8.18,27.33-4.76,12.73-18.53,33.85-18.94,34.26.34.63.69,1.25,1.05,1.85,16.43-17.81,29.6-63.72,29.6-63.72,0,0,6.59-7.35,11.4-11.73.27-.24,19.72,10.46,19.97,10.23.45-.39-18.31-11.69-17.92-12Z" />
    <path class="cls-2"
      d="M121.45,111.99c-.11-.06-.22-.13-.34-.2-.03-.02-.06-.04-.09-.05-.11-.06-.22-.13-.34-.19-.02,0-.03-.02-.05-.03-.3-.17-.63-.35-.98-.54,0,0,0,0,0,0-3.46-1.84-9.06-4.47-9.06-4.47,0,0-15.95-6.35-24.09-7.89-.56-.11-.97.36-.62.54,12.1,6.2,27.68,12,37.18,22.01.28,10.52-9.33,17.8-9.33,17.8,0,0-5.68-2.14-7.12-2.51,2.49,1.66,2.4,1.75,4.9,3.41.16,2.2-.67,3.7-1.87,4.95-.36.37-36.97,3.87-36.97,3.87l34.02-1.39s3.52-.15,3.79-.21c1.45-.31,5.07-7.14,5.07-7.14l2.38,2.28s2.9-2.79,6-7.76c1.31-2.1,2.31-5.34,3.02-8.38,0,0,0,0,0,0,.8-3.39,1.24-6.53,1.38-7.59,0,0,0,0,0,0,.03-.24.05-.38.05-.38,0,0-4.24-4.45-6.94-6.11Z" />
    <path class="cls-4"
      d="M52.02,131.14c-.1,0-.2-.03-.28-.1-.52-.46-1.29-1.45-1.92-2.83-.09-.21,0-.45.21-.55.21-.1.45,0,.55.21.57,1.27,1.28,2.17,1.71,2.55.17.15.19.42.03.59-.08.09-.2.14-.31.14Z" />
    <path class="cls-4"
      d="M49.49,126.16c-.2,0-.37-.14-.41-.34-.16-.92-.16-1.81,0-2.64.4-2.09,1.76-3.71,2.89-4.53.19-.14.45-.09.58.09.13.19.09.45-.09.58-1.01.73-2.21,2.16-2.56,4.01-.14.73-.14,1.52,0,2.34.04.23-.11.44-.34.48-.02,0-.05,0-.07,0Z" />
    <path class="cls-4"
      d="M111.12,118.25c2.3.44,4.71,1.59,5.64,3.86.09.21-.01.45-.23.54-.18.07-.39.01-.5-.14-1.08-1.6-3.24-2.08-5.04-2.01-1.69.05-1.55-2.48.12-2.25h0Z" />
    <path class="cls-4"
      d="M125.7,118.32c-.83,1.02-1.62,2.32-1.76,3.65-.02.23-.22.4-.45.38-.19-.02-.34-.16-.37-.33-.24-1.24,0-2.46.36-3.64.13-.4.26-.78.45-1.2.24-.54.87-.78,1.41-.53.65.28.83,1.16.36,1.68h0Z" />
    <path class="cls-4"
      d="M110.44,106.89s-5.8-2.09-10.02-3.6c-4.15-1.49-13.95-4.26-14.04-4.28-.22-.06-.35-.29-.29-.51.06-.22.29-.35.51-.29.1.03,9.92,2.8,14.1,4.3,4.21,1.51,10.02,3.6,10.02,3.6l-.28.78Z" />
    <path class="cls-4"
      d="M83.51,97.1c-.12,0-.24-.05-.32-.15-1.41-1.73-4.02-4.84-5.69-6.12-2.18-1.67-19.8-12.67-20.55-13.04-.22-.07-.31-.3-.24-.52.07-.22.33-.33.55-.25.5.17,18.48,11.42,20.75,13.16,1.74,1.34,4.4,4.49,5.83,6.25.14.18.12.44-.06.58-.08.06-.17.09-.26.09Z" />
    <path class="cls-4"
      d="M84.82,97.1c-.06,0-.13-.01-.19-.04-.2-.1-.28-.34-.19-.54.02-.05.05-.16.11-.35,1.75-5.44,6.68-18.59,14.63-23.36.2-.12.45-.05.57.14.12.2.05.45-.14.57-7.71,4.62-12.55,17.55-14.27,22.9-.08.26-.14.42-.15.45-.07.15-.22.23-.37.23Z" />
    <path class="cls-4"
      d="M110.03,138.04c-.07,0-.14-.02-.2-.05-.2-.11-.27-.37-.16-.57.63-1.11.97-2.84.97-4.86l.83-.02c0,2.17-.38,4.04-1.07,5.28-.08.14-.22.21-.36.21Z" />
    <path class="cls-4"
      d="M112.8,139.17c-.08,0-.15-.02-.22-.07-.19-.12-.25-.38-.13-.57.22-.34.64-2.12.86-3.27.04-.22.26-.37.49-.33.22.04.37.26.33.49-.1.49-.59,2.96-.98,3.56-.08.12-.21.19-.35.19Z" />
    <path class="cls-4"
      d="M93.67,140.44c-.23,0-.42-.19-.42-.42v-2.98c0-.23.19-.42.42-.42s.42.19.42.42v2.98c0,.23-.19.42-.42.42Z" />
    <path class="cls-4"
      d="M89.99,140.84c-.22,0-.4-.17-.41-.4-.1-2.36,0-2.56.04-2.66.1-.21.35-.3.56-.19.19.09.28.31.21.51-.04.22-.02,1.36.02,2.3.01.23-.17.42-.4.43h-.02Z" />
    <path class="cls-4"
      d="M71.49,126.42c-.17,0-.33-.11-.39-.28-1.56-4.5-5.22-6.4-5.41-6.49-.17-.05-.28-.21-.28-.39,0-.23.19-.42.42-.42s4.35,2.06,6.07,7.03c.07.22-.04.45-.26.53-.04.02-.09.02-.14.02Z" />
    <path class="cls-4"
      d="M116.06,140.85c-.08,0-.16-.02-.23-.07-.19-.12-.25-.38-.12-.57l1.09-1.68c.12-.19.38-.25.57-.12s.25.38.12.57l-1.09,1.68c-.08.12-.21.19-.35.19Z" />
    <path class="cls-4"
      d="M93.67,135.5c-.23,0-.42-.19-.42-.42v-2.1c0-.23.19-.42.42-.42s.42.19.42.42v2.1c0,.23-.19.42-.42.42Z" />
    <path class="cls-4"
      d="M99.96,138.38c-.23,0-.42-.19-.42-.42v-1.36c0-.23.19-.42.42-.42s.42.19.42.42v1.36c0,.23-.19.42-.42.42Z" />
    <path class="cls-4"
      d="M38.2,135.5c-.16,0-.3-.09-.38-.24-1.94-4.05-3.61-10.44-2.98-15.57.03-.23.23-.39.46-.36.23.03.39.24.36.46-.61,4.96,1.02,11.16,2.9,15.1.1.21.01.45-.2.55-.06.03-.12.04-.18.04Z" />
    <path class="cls-4"
      d="M40.93,139.61c-.1,0-.2-.04-.28-.11-.53-.49-1.06-1.16-1.59-1.99-.12-.19-.07-.45.13-.57.19-.12.45-.07.57.13.49.77.98,1.38,1.46,1.83.17.16.18.42.02.59-.08.09-.19.13-.3.13Z" />
    <path class="cls-4"
      d="M28.26,170.86s-.06,0-.09-.01c-.22-.05-.36-.27-.31-.5.22-.99.48-1.93.79-2.88.07-.22.31-.34.52-.27.22.07.34.3.27.52-.3.93-.55,1.85-.77,2.81-.04.19-.21.32-.4.32Z" />
    <path class="cls-4"
      d="M33.78,157.68c-.06,0-.13-.01-.19-.05-.2-.1-.29-.35-.18-.56.18-.36.37-.73.56-1.1.28-.56.57-1.12.87-1.68,1.99-3.74,4.18-7.02,6.49-9.76.15-.18.41-.2.58-.05.18.15.2.41.05.58-2.27,2.69-4.42,5.93-6.39,9.61-.29.55-.58,1.1-.86,1.66-.19.38-.38.75-.56,1.11-.07.14-.22.23-.37.23Z" />
    <path class="cls-4"
      d="M45.37,141.37c-.11,0-.23-.05-.31-.14-.15-.17-.14-.43.03-.59.37-.33.75-.65,1.13-.96.18-.15.44-.12.58.06.14.18.12.44-.06.58-.37.3-.74.61-1.1.94-.08.07-.18.1-.28.1Z" />
    <path class="cls-4"
      d="M47.99,139.28c-.13,0-.26-.06-.34-.18-.13-.19-.09-.45.1-.58,3.52-2.5,7.32-3.97,11.28-4.37.22-.03.43.14.46.37.02.23-.14.43-.37.45-3.82.39-7.48,1.81-10.89,4.23-.07.05-.16.08-.24.08Z" />
    <path class="cls-4"
      d="M55.63,179.58c-18.44,0-32.59-8.83-42.11-26.3-.09-.16-.06-.35.06-.48.52-.63,14.15-21.53,18.86-34.13,4.7-12.56,8.13-27.13,8.16-27.28.02-.08.06-.15.12-.21,6.84-6.53,15.17-14.31,15.99-14.31h0c.3,0,1.3.38,5.14,1.87,5.57,2.16,15.96,6.18,17.92,5.91,2.38-.33,14.8-8.65,19.38-11.84.16-.11.37-.1.52.03l12.32,11.18c.09.08.14.2.14.33l-1.12,21.87c1.42.67,8.21,3.88,10.66,5.39,2.71,1.67,6.84,5.99,7.02,6.17.09.09.13.21.11.33-.06.47-1.39,11.54-4.51,16.53-3.1,4.96-5.95,7.73-6.07,7.84-.16.15-.41.16-.58,0l-1.99-1.9c-.98,1.81-3.69,6.57-5.09,6.87-.42.09-2.69.18-7.38.35-9.92.36-28.33,1.03-33.88,2.41-.88,1.49-6.35,18-9.88,28.95-.05.16-.2.28-.37.29-1.15.07-2.29.1-3.42.1ZM14.38,153.11c9.88,17.98,24.79,26.58,44.34,25.55,9.29-28.79,9.96-29.08,10.19-29.18,5.54-1.45,23.51-2.1,34.25-2.49,3.83-.14,6.86-.25,7.23-.33.79-.17,3.06-3.66,4.79-6.93.06-.12.17-.19.3-.21.13-.02.26.02.35.11l2.09,2c.8-.83,3.17-3.42,5.66-7.4,2.8-4.48,4.17-14.47,4.37-15.99-.74-.77-4.37-4.45-6.72-5.9-2.64-1.62-10.75-5.43-10.83-5.46-.15-.07-.25-.23-.24-.4l1.13-21.96-11.93-10.83c-2.24,1.55-16.59,11.39-19.47,11.79-2.02.29-10.16-2.79-18.33-5.96-2.22-.86-4.33-1.68-4.8-1.8-1.16.62-9.94,8.81-15.36,13.98-.34,1.43-3.68,15.26-8.16,27.26-4.58,12.26-17.09,31.64-18.84,34.15Z" />
    <path class="cls-2"
      d="M53.08,120.49c-1.85,1.27-4.78,9.8,8.48,15.28,11.21,4.17,17.62,3.71,17.62,3.71,0,0-6.34-5.2-7.43-8.76-.34-1.13-.99-4.36-3-6.92-1.55-1.97-4.21-3.34-6.33-4.27-5-2.18-7.48-.31-9.34.95Z" />
    <path class="cls-4"
      d="M90.64,140.85c-3.36,0-10.41-.65-11.53-.95-.74-.05-10.66-.76-17.71-3.74-5.13-2.17-9.08-5.68-10.31-9.17-.61-1.75-.52-3.44.26-4.89,1.13-2.09,2.95-3.38,5.27-3.75,3.69-.58,8.37,1.24,11.94,4.64,1.68,1.61,2.78,4.62,3.58,6.83.32.89.6,1.66.8,1.97,2.44,3.8,6.17,7.13,6.45,7.34,0,0,0,0,0,0,.53.16,8.85,1.02,12.03.87,1.87-.09,6.42-1.59,9.74-2.68,2.61-.86,4.11-1.35,4.67-1.39.02,0,.05,0,.07,0,1.62,0,8.96,3.25,9.8,3.63.21.09.3.34.21.55-.09.21-.34.3-.55.21-3.17-1.41-8.55-3.67-9.48-3.56-.49.04-2.43.67-4.48,1.35-3.56,1.17-7.98,2.63-9.96,2.72-.24.01-.52.02-.83.02ZM58.05,119.07c-.44,0-.88.03-1.29.1-2.08.33-3.65,1.45-4.67,3.32-.68,1.26-.75,2.68-.21,4.22,1.15,3.27,4.92,6.6,9.85,8.68,5.68,2.4,13.28,3.3,16.23,3.58-1.41-1.32-3.93-3.94-5.72-6.73-.25-.39-.51-1.12-.88-2.14-.73-2.01-1.83-5.04-3.37-6.51-2.97-2.84-6.74-4.52-9.94-4.52Z" />
    <path class="cls-4"
      d="M73.11,138.95c-.06,0-.13-.01-.19-.04-.13-.07-.22-.19-.23-.34l-.42-5.33-6.75,3.85c-.14.08-.31.07-.44-.02-.13-.09-.2-.24-.18-.4l1.66-13.12-8.87,9.73c-.11.12-.28.17-.44.11-.16-.05-.27-.19-.28-.36-.03-.37-.73-8.45-.57-12.88l-4.96,5.48c-.15.17-.42.18-.59.03-.17-.15-.18-.42-.03-.59l5.76-6.36c.12-.13.31-.17.48-.1.16.07.26.24.25.42-.31,3.17.21,10.39.42,12.98l9.11-9.99c.12-.13.32-.17.48-.1.16.08.26.25.24.43l-1.72,13.6,6.6-3.76c.12-.07.27-.07.4,0,.13.07.21.19.22.33l.42,5.3c2.68-1.69,2.71-1.67,2.98-1.39.16.17.15.43-.01.59-.06.06-.13.09-.21.11-.29.14-1.67.98-2.9,1.76-.07.04-.14.06-.22.06Z" />
    <path class="cls-2" d="M58.52,91.93l-10.83,1.48c3.54.13,7.29-.74,10.83-1.48Z" />
    <polygon class="cls-4"
      points="32.05 107.18 29.54 100.88 35.39 94.71 44.92 99.45 45.38 103.77 35.61 97.68 32.06 101.12 34.91 105.2 32.05 107.18" />
    <path class="cls-4"
      d="M59.95,150.47c-.06,0-.11-.01-.16-.03l-5.15-2.22c-.21-.09-.31-.33-.22-.54.09-.21.34-.31.55-.22l5.06,2.18,9.02-.18h0c.23,0,.41.18.42.41,0,.23-.18.42-.41.42l-9.11.18h0Z" />
    <path class="cls-1"
      d="M71.81,168.68s2.43,10.54,1.96,11.25-13.24-5.5-13.24-5.5l2.14-6.52,6.33,5.25,1.62-2.98,1.19-1.5Z" />
    <path class="cls-2"
      d="M83.73,152.9c-.71-.31-9.01-4.55-9.01-4.55l-11.38,7.13-9.4-9s-8.86,2.33-9.62,2.47c-.75.15-1.44,15.9-1.44,15.9l18.31,14.64,21.22-10.68s2.04-15.6,1.32-15.91Z" />
    <path class="cls-4"
      d="M61.19,179.9c-.09,0-.18-.03-.26-.09l-18.31-14.64c-.1-.08-.16-.21-.16-.34.7-16.08,1.4-16.22,1.78-16.29.59-.11,6.53-1.66,9.59-2.47.14-.04.29,0,.39.1l9.17,8.77,11.11-6.96c.12-.08.28-.08.41-.02,2.86,1.47,8.43,4.3,8.98,4.54.33.14,1,.43-1.07,16.35-.02.14-.1.26-.23.32l-21.22,10.68c-.06.03-.12.04-.19.04ZM43.31,164.66l17.94,14.34,20.78-10.46c.87-6.74,1.64-14.2,1.41-15.32-1.16-.55-7.43-3.75-8.69-4.4l-11.18,7c-.16.1-.37.08-.51-.05l-9.23-8.83c-1.34.35-7.99,2.1-9.26,2.39-.42,1.09-.95,8.56-1.25,15.33ZM83.57,153.28h0,0Z" />
    <path class="cls-5"
      d="M79.15,156.35c-.57-.24-7.14-3.61-7.14-3.61l-9.02,5.65-7.45-7.13s-7.03,1.85-7.62,1.96c-.6.11-1.14,12.6-1.14,12.6l14.51,11.6,16.82-8.46s1.61-12.37,1.05-12.61Z" />
    <path class="cls-4"
      d="M61.28,177.84c-.09,0-.18-.03-.26-.09l-14.51-11.6c-.1-.08-.16-.21-.16-.34.56-12.81,1.11-12.92,1.48-12.99.46-.09,5.17-1.32,7.6-1.95.14-.04.29,0,.39.1l7.22,6.91,8.75-5.48c.12-.08.28-.08.41-.02,2.27,1.16,6.68,3.41,7.11,3.6h0c.34.15.85.37-.8,13.05-.02.14-.1.26-.22.32l-16.82,8.46c-.06.03-.12.04-.19.04ZM47.2,165.63l14.14,11.3,16.38-8.24c.68-5.23,1.28-11.02,1.12-12.03-1.01-.48-5.73-2.89-6.8-3.44l-8.82,5.53c-.16.1-.37.08-.51-.05l-7.28-6.97c-1.15.3-6.15,1.61-7.25,1.87-.33.99-.74,6.78-.97,12.04ZM78.98,156.73h0,0Z" />
    <path class="cls-6"
      d="M75.57,159.56c-.44-.19-5.59-2.83-5.59-2.83l-7.07,4.43-5.84-5.59s-5.5,1.45-5.97,1.54c-.47.09-.9,9.87-.9,9.87l11.37,9.09,13.17-6.63s1.26-9.69.82-9.88Z" />
    <path class="cls-4"
      d="M61.57,176.49c-.09,0-.18-.03-.26-.09l-11.37-9.09c-.1-.08-.16-.21-.16-.34.44-10.11.86-10.19,1.23-10.26.37-.07,4.42-1.13,5.94-1.53.14-.04.29,0,.39.1l5.6,5.36,6.79-4.25c.12-.08.28-.08.41-.02,1.43.73,5.21,2.66,5.57,2.82h0c.33.14.73.32-.57,10.32-.02.14-.1.26-.23.32l-13.17,6.63c-.06.03-.12.04-.19.04ZM50.63,166.8l11,8.79,12.74-6.41c.52-4.04.97-8.43.87-9.3-.87-.42-4.34-2.19-5.24-2.65l-6.87,4.3c-.16.1-.37.08-.51-.05l-5.67-5.42c-.96.25-4.63,1.21-5.58,1.44-.24.87-.56,5.26-.74,9.31ZM75.4,159.95s0,0,0,0c0,0,0,0,0,0Z" />
    <path class="cls-1"
      d="M71.81,168.68l-.71-7-5.26-.04-2.83,3.1,3.73-1.65,3.02.47.25,3.63-2.19-2.17-2.37,1.18.07,3.21,1.79-2.5,1.65,1.7c-.72.71-3.15,2.88-3.15,2.88,0,0-2.43,1.15-3.38,1.67l3.74-.82,4.44-2.17-2.5,7.78c2.84,1.25,5.44,2.29,5.65,1.97.48-.72-1.96-11.25-1.96-11.25Z" />
    <path class="cls-4"
      d="M73.63,180.41c-.68,0-2.43-.57-7.62-2.94-.21-.09-.3-.34-.21-.55.1-.21.34-.3.55-.21,5.08,2.32,6.62,2.77,7.08,2.85.04-1.03-.93-6.03-1.98-10.55l-.06-.25-.68-6.68-4.7-.03-1.37,1.51,1.93-.85c.07-.03.15-.04.23-.03l3.02.47c.19.03.34.19.35.38l.25,3.63c.01.17-.08.33-.24.41-.16.07-.34.04-.46-.08l-1.98-1.96-1.87.93.04,1.71,1.07-1.49c.07-.1.18-.16.31-.17.12-.02.24.04.33.13l1.65,1.71c.16.16.16.42,0,.58-.72.71-3.06,2.81-3.16,2.89-.03.03-.06.05-.1.07,0,0-.14.07-.37.17l.41-.09,4.39-2.15c.15-.07.33-.05.46.06.13.11.17.29.11.45l-2.17,6.01c-.08.22-.32.33-.53.25-.22-.08-.33-.32-.25-.53l1.82-5.04-3.51,1.72s-.06.03-.09.03l-3.74.82c-.2.05-.4-.07-.48-.26-.07-.19,0-.41.19-.51.88-.49,2.97-1.48,3.35-1.66.29-.26,1.95-1.75,2.79-2.54l-1.02-1.05-1.5,2.1c-.1.14-.29.21-.46.15-.17-.05-.29-.21-.29-.39l-.07-3.21c0-.16.09-.31.23-.38l2.37-1.18c.16-.08.35-.05.48.08l1.41,1.4-.15-2.2-2.57-.4-3.62,1.6c-.18.08-.39.02-.5-.14-.11-.16-.1-.38.03-.52l2.83-3.1c.08-.09.19-.16.31-.14l5.26.04c.21,0,.39.16.41.37l.75,7.2c1.1,4.77,2.32,10.62,1.84,11.33-.08.12-.17.25-.48.25Z" />
    <path class="cls-1"
      d="M56.62,167.73l1.88-1.45,1.42,2.73.53-3.17-2.18-1.51-2.48,1.84.77-3.56,3.06-.03,3.41,2.16-2.3-3.47-5.21-.72-1.58,6.35-12.22,6.42-8.15-16.54-7.5,7.26c.18.45,13.46,18.01,15.92,17.46,2.21-.49,11.06-10.49,12.8-12.48h0l4.08,2.78,3.58,1.34c-.86-.65-3.11-2.14-3.11-2.14,0,0-2.09-2.5-2.7-3.3Z" />
    <path class="cls-4"
      d="M32.42,154.9c-.15,0-.3-.09-.37-.23l-.79-1.6c-.1-.21-.02-.45.19-.56.21-.1.45-.02.56.19l.79,1.6c.1.21.02.45-.19.56-.06.03-.12.04-.18.04Z" />
    <path class="cls-4"
      d="M41.9,181.94c-3.22,0-16.15-17.54-16.23-17.73-.09-.21.02-.45.23-.54.2-.08.44.01.53.21,1.04,1.84,13.54,17.67,15.45,17.23,1.7-.38,8.45-7.59,12.57-12.34.14-.16.37-.19.55-.07l4.04,2.75.39.15c-.21-.14-.33-.22-.34-.23-.03-.02-.06-.05-.09-.08-.09-.1-2.11-2.51-2.72-3.32-.14-.18-.1-.44.08-.58l1.88-1.45c.1-.08.22-.1.34-.08.12.03.22.1.28.21l.84,1.63.28-1.68-1.72-1.19-2.24,1.66c-.14.1-.33.11-.47.02-.15-.09-.22-.27-.18-.44l.77-3.56c.04-.19.21-.33.4-.33l3.06-.03c.07,0,.14.02.2.05l1.98,1.05-1.29-1.6-4.68-.64-1.49,5.99c-.03.11-.1.21-.21.27l-12.22,6.42c-.1.05-.22.06-.32.03-.11-.03-.19-.11-.24-.21l-8.15-16.54c-.1-.21-.02-.45.19-.56.21-.1.45-.02.56.19l7.96,16.16,11.68-6.14,1.54-6.17c.05-.21.25-.34.46-.31l5.21.72c.1.01.2.07.27.15l2.67,3.3c.12.15.12.37,0,.52-.13.15-.34.2-.51.1l-3.68-1.95-2.62.03-.46,2.16,1.59-1.18c.14-.11.34-.11.48,0l2.18,1.51c.13.09.2.25.17.41l-.53,3.17c-.03.18-.17.31-.34.34-.18.03-.35-.06-.43-.22l-1.19-2.29-1.16.89c.72.9,2.15,2.61,2.4,2.91.35.23,2.28,1.51,3.08,2.12.16.12.21.35.11.53-.1.18-.32.26-.51.19l-3.58-1.34s-.06-.03-.09-.05l-3.78-2.57c-1.82,2.09-10.39,11.8-12.78,12.33-.05.01-.11.02-.16.02Z" />
    <path class="cls-4"
      d="M25.24,163.4c-.12,0-.24-.05-.32-.15l-.69-.86c-.14-.18-.12-.44.06-.58.18-.15.44-.12.58.06l.69.86c.14.18.12.44-.06.58-.08.06-.17.09-.26.09Z" />
    <path class="cls-4"
      d="M58.49,122.24s-.06,0-.09-.01c-.22-.05-.36-.27-.31-.5l.7-3.02c.05-.22.27-.36.5-.31.22.05.36.27.31.5l-.7,3.02c-.04.19-.22.32-.4.32Z" />
    <path class="cls-4"
      d="M61.44,122.24c-.05,0-.11-.01-.16-.03-.21-.09-.31-.33-.22-.55l.98-2.29c.09-.21.34-.31.54-.22.21.09.31.33.22.54l-.98,2.29c-.07.16-.22.25-.38.25Z" />
    <path class="cls-7"
      d="M71.72,96.13c-.17-1.23-1.3-2.09-2.53-1.92l-18.42,2.52c-1.23.17-2.09,1.3-1.92,2.53l1.29,9.46c.45,3.28,3.48,5.58,6.76,5.13l10.97-1.5c3.28-.45,5.58-3.48,5.13-6.76l-1.29-9.46Z" />
    <path class="cls-3"
      d="M123.8,99.11l-1.99-14.55c-.17-1.23-1.3-2.09-2.53-1.92l-26.2,3.58c-1.23.17-2.09,1.3-1.92,2.53l.85,6.19-.1-.03c-5.98-1.89-11.19-.65-16,2.88l-.8-5.85c-.17-1.23-1.3-2.09-2.53-1.92l-26.2,3.58c-1.23.17-2.09,1.3-1.92,2.53l1.99,14.55c.62,4.52,4.79,7.69,9.31,7.07l14.26-1.95c4.52-.62,7.69-4.79,7.07-9.31l-.74-5.43c4.74-3.38,10.14-4.59,16.01-2.74l.11.05.31,2.28,4.22,1.47c-.07-.25-.12-.5-.16-.76l-1.29-9.46c-.17-1.23.69-2.36,1.92-2.53l18.42-2.52c1.23-.17,2.36.69,2.53,1.92l1.29,9.46c.45,3.28-1.85,6.31-5.13,6.76l-6.7.92,7.7,2.68,1.14-.16c4.52-.62,7.69-4.79,7.07-9.31ZM67.88,112.35l-10.97,1.5c-3.28.45-6.31-1.85-6.76-5.13l-1.29-9.46c-.17-1.23.69-2.36,1.92-2.53l18.42-2.52c1.23-.17,2.36.69,2.53,1.92l1.29,9.46c.45,3.28-1.85,6.31-5.13,6.76Z" />
    <path class="cls-2"
      d="M92.11,96.36l-.2-1.46s-.5.03-.62-.18c-5.46-1.54-10.28-.45-14.75,2.62-.21.14-.42.29-.63.44l-.8-5.85c-.17-1.23-1.3-2.09-2.53-1.92l-6.89.94c2.38.02,7.04.12,7.38,1.5.34,1.38,3.01,11.84,3.45,18.35.56-1.32.79-2.8.58-4.33l-.74-5.43c.22-.15.44-.3.66-.44l-.13-1.66c8.13-6.96,15.23-2.58,15.23-2.58Z" />
    <path class="cls-7"
      d="M119.71,98.22l-1.29-9.46c-.17-1.23-1.3-2.09-2.53-1.92l-18.42,2.52c-1.23.17-2.09,1.3-1.92,2.53l1.29,9.46c.04.26.09.51.16.76l10.88,3.79,6.7-.92c3.28-.45,5.58-3.48,5.13-6.76Z" />
    <path class="cls-5"
      d="M71.72,96.13c-.17-1.23-1.3-2.09-2.53-1.92l-18.42,2.52c-1.23.17-2.09,1.3-1.92,2.53l.8,5.87c7.56-1.13,15.17-2.31,22.81-3.52l-.75-5.48Z" />
    <path class="cls-6"
      d="M49.66,105.12l.35,2.52c7.63-1.2,15.25-2.21,22.86-3.14l-.4-2.9c-7.64,1.21-15.25,2.38-22.81,3.52Z" />
    <path class="cls-2"
      d="M72.87,104.51c-7.61.93-15.23,1.94-22.86,3.14l.15,1.08c.03.25.09.5.15.74,7.58-.86,15.17-1.77,22.75-2.7.02-.38.01-.77-.04-1.17l-.15-1.09Z" />
    <path class="cls-6"
      d="M56.91,113.85l10.97-1.5c2.89-.4,5.01-2.79,5.18-5.59-7.58.93-15.17,1.84-22.75,2.7.77,2.88,3.58,4.81,6.61,4.39Z" />
    <path class="cls-6"
      d="M114.58,104.98c2.3-.31,4.11-1.89,4.84-3.94-6.28.75-12.57,1.53-18.85,2.31l7.32,2.55,6.7-.92Z" />
    <path class="cls-2"
      d="M119.73,98.5c-7.57,1.19-15.18,2.19-22.83,3.13.03.16.07.32.11.48l3.55,1.24c6.28-.78,12.57-1.56,18.85-2.31.28-.79.39-1.65.31-2.54Z" />
    <path class="cls-6"
      d="M96.9,101.63c7.65-.94,15.26-1.94,22.83-3.13,0-.09,0-.19-.02-.28l-.54-3.98c-7.57,1.16-15.18,2.36-22.8,3.57l.48,3.54c.01.1.04.19.05.28Z" />
    <path class="cls-5"
      d="M118.42,88.76c-.17-1.23-1.3-2.09-2.53-1.92l-18.42,2.52c-1.23.17-2.09,1.3-1.92,2.53l.81,5.92c7.62-1.21,15.23-2.41,22.8-3.57l-.75-5.49Z" />
    <path class="cls-4"
      d="M56.1,114.32c-3.16,0-5.91-2.34-6.35-5.55l-1.29-9.46c-.2-1.45.82-2.8,2.27-2.99l18.42-2.52c1.45-.2,2.8.82,2.99,2.27l1.29,9.46c.48,3.5-1.98,6.75-5.49,7.23l-10.97,1.5c-.29.04-.59.06-.87.06ZM69.5,94.61c-.08,0-.17,0-.25.02l-18.42,2.52c-.48.07-.91.32-1.21.71-.3.39-.42.87-.36,1.35l1.29,9.46c.42,3.05,3.24,5.2,6.29,4.78l10.97-1.5h0c1.48-.2,2.79-.97,3.69-2.16.9-1.19,1.29-2.66,1.09-4.14l-1.29-9.46c-.13-.91-.91-1.58-1.81-1.58Z" />
    <path class="cls-2"
      d="M123.8,99.11l-1.99-14.55c-.17-1.23-1.3-2.09-2.53-1.92l-5.96.82c2.08.2,6.08.38,6.45,1.87s2.4,8.74,2.13,15.72c-.12,3.22-.92,5.54-3.05,6.78,3.34-1.43,5.46-4.94,4.95-8.72Z" />
    <path class="cls-4"
      d="M107.97,106.26s-.1,0-.14-.02l-11.02-3.98c-.13-.05-.22-.15-.26-.28-.06-.22-.07-.27-.09-.43l-1.31-9.6c-.1-.7.09-1.4.52-1.97.43-.57,1.05-.93,1.76-1.03l18.42-2.52c1.45-.2,2.8.82,2.99,2.27l1.29,9.46h0c.48,3.5-1.98,6.75-5.49,7.23l-6.62.86s-.04,0-.05,0ZM97.29,101.55l10.72,3.87,6.51-.85c3.05-.42,5.19-3.24,4.77-6.29l-1.29-9.46c-.14-1-1.06-1.7-2.06-1.56l-18.42,2.52c-.48.07-.91.32-1.21.71-.3.39-.42.87-.36,1.35l1.31,9.61s0,.08.02.11Z" />
    <path class="cls-4"
      d="M54.65,118.24c-4.27,0-8-3.16-8.6-7.51l-1.99-14.55c-.2-1.45.82-2.8,2.27-2.99l26.2-3.58c.7-.1,1.4.09,1.97.52.57.43.93,1.05,1.03,1.76l.71,5.17c4.87-3.37,9.88-4.25,15.28-2.7l-.76-5.54c-.2-1.45.82-2.8,2.27-2.99l26.2-3.58c1.45-.2,2.8.82,2.99,2.27l1.99,14.55c.65,4.74-2.68,9.13-7.43,9.78l-1.14.16c-.07,0-.13,0-.2-.02l-22.83-8.15c-.14-.05-.24-.17-.27-.32l-.34-1.87c-5.31-1.6-10.42-.73-15.21,2.61l.71,5.18c.31,2.3-.29,4.58-1.69,6.43-1.4,1.85-3.44,3.04-5.74,3.35l-14.26,1.95c-.4.05-.79.08-1.18.08ZM72.89,90.4c-.08,0-.17,0-.25.02l-26.2,3.58c-1,.14-1.7,1.06-1.56,2.06l1.99,14.55c.59,4.29,4.56,7.3,8.84,6.72l14.26-1.95c2.08-.28,3.92-1.36,5.19-3.03,1.27-1.67,1.81-3.73,1.53-5.81l-.74-5.43c-.02-.15.04-.3.17-.39,5.14-3.66,10.65-4.6,16.38-2.79.15.05.26.17.28.32l.35,1.88,22.5,8.04,1.04-.14c4.29-.59,7.3-4.56,6.72-8.85l-1.99-14.55c-.14-1-1.06-1.7-2.06-1.56l-26.2,3.58c-1,.14-1.7,1.06-1.56,2.06l.85,6.2c.02.15-.04.3-.16.39-.12.09-.28.11-.42.05l-.1-.04c-5.5-1.74-10.62-.81-15.59,2.83-.12.09-.27.11-.41.05-.13-.06-.23-.18-.25-.33l-.8-5.85c-.12-.91-.91-1.58-1.81-1.58Z" />
    <path class="cls-2"
      d="M54.27,75.55s.54,21.29-8.79,22.9c6.69,1.05,9.35,6.72,9.82,16.45-.47-8.89,1.25-15.56,8.85-17.91-10.26-.72-9.87-21.44-9.87-21.44Z" />
    <path class="cls-4"
      d="M55.29,115.31c-.22,0-.4-.17-.41-.39,0-.09,0-.19-.01-.28-.53-9.97-3.45-14.85-9.45-15.78-.2-.03-.35-.2-.35-.41,0-.2.14-.38.34-.41,7.73-1.34,8.41-17.26,8.45-21.47,0-.57,0-.93,0-1.03,0-.23.19-.41.41-.41h0c.22,0,.41.18.42.4,0,.1,0,.45,0,1,.09,4.07.98,19.44,9.48,20.04.2.01.36.17.38.37.02.2-.1.39-.29.44-6.48,2-9.05,7.16-8.57,17.23,0,.09,0,.17.01.26h0c.01.23-.16.42-.39.44,0,0-.01,0-.02,0ZM47.11,98.38c4.15,1.21,6.69,4.49,7.87,10.28.53-4.8,2.39-9.31,7.56-11.53-5.35-1.52-7.42-8.68-8.21-14.34-.64,5.86-2.41,13.46-7.22,15.59Z" />
  </g>
</svg>