<?xml version="1.0" encoding="UTF-8"?>
<svg id="Capa_2" xmlns="http://www.w3.org/2000/svg" xmlns:xlink="http://www.w3.org/1999/xlink"
  viewBox="0 0 204.22 209.69">
  <defs>
    <style>
      .cls-1 {
        fill: aqua;
      }

      .cls-2 {
        fill: #29abe2;
      }

      .cls-3 {
        fill: #fff;
      }

      .cls-4 {
        filter: none;
      }

      .cls-5 {
        fill: #862291;
      }

      .cls-6 {
        fill: #1b1464;
      }

      .cls-7 {
        fill: #fcee21;
      }

      .cls-8 {
        fill: #ed1e79;
      }
    </style>
  </defs>
  <g id="_0">
    <g class="cls-4">
      <path class="cls-3"
        d="M201.28,123.19s0,0,0,0l-18.15-12.36c1.66-6.61,2.49-13.41,2.49-20.26,0-8.55-1.29-16.95-3.84-25.04.68-1.29.94-2.8.69-4.27l-.29-1.67,1.21-1.18c1.85-1.8,2.5-4.44,1.7-6.89-.8-2.45-2.87-4.2-5.43-4.58l-1.68-.24-.75-1.52c-1.14-2.31-3.45-3.75-6.03-3.75-.52,0-1.03.06-1.52.17-.22-.3-.45-.61-.67-.91l.62-.63c1.33-1.37,2.06-3.17,2.05-5.14-.03-1.93-.81-3.73-2.17-5.06l-2.44-2.38c-.63-.62-1.36-1.1-2.15-1.45-.38-.8-.9-1.54-1.56-2.18l-2.12-2.08c-1.35-1.32-3.14-2.05-5.12-2.05h0c-.28,0-.55.02-.83.06-.41-1.99-1.62-3.77-3.46-4.91l-4.33-2.67c-1.67-1.03-3.67-1.38-5.51-1-.07-.17-.14-.34-.23-.51-.86-1.74-2.34-3.04-4.15-3.65l-3.16-1.08c-1.05-.36-2.16-.48-3.24-.37-.78-.74-1.72-1.32-2.79-1.69l-3.18-1.09c-1.8-.61-3.74-.5-5.51.36-1.72.85-3.02,2.32-3.64,4.14l-.32.94c-.38-.06-.77-.12-1.15-.18l-.02-.98c-.03-1.91-.81-3.7-2.19-5.06-1.36-1.31-3.14-2.04-5.02-2.04-.05,0-.09,0-.14,0l-11.36.18c-1.46.03-2.85.48-4.02,1.31-1.38-.59-2.91-.73-4.43-.39l-11.1,2.55c-1.41.33-2.66,1.05-3.62,2.08-1.46-.23-2.96,0-4.26.63l-10.46,5.05c-1.33.64-2.41,1.65-3.13,2.91-1.49.07-2.94.62-4.12,1.55l-9.11,7.25c-1.5,1.2-2.45,2.91-2.68,4.85-.03.24-.04.49-.04.73-2.73.84-5.17,2.58-7.25,5.16-2.14,2.66-3.32,5.51-3.51,8.46-.02.37-.03.74-.02,1.11-.06.03-.13.05-.19.08-1.47.64-2.86,1.64-4.12,2.96-1.12,1.17-2.08,2.58-2.87,4.19-2.71,5.54-1.75,9.73-.45,12.31.53,1.03,1.21,1.96,2.03,2.79-1.04.65-1.9,1.58-2.47,2.73l-.75,1.52-1.68.24c-2.55.37-4.62,2.12-5.42,4.58-.79,2.45-.14,5.09,1.7,6.89l1.21,1.18-.29,1.67c-.43,2.54.59,5.06,2.67,6.57.4.29.82.53,1.26.73.02,1.23.07,2.48.14,3.73-1.88,2.44-3.05,5.28-3.5,8.49-1.11,7.89,2.54,14.88,10.32,19.83.21.48.42.96.64,1.43-.03.31-.04.61-.03.92-.87.88-1.52,1.82-1.96,2.81-1.05,2.38-.92,5.03.35,7.27,1.16,2.03,3.09,3.43,5.36,3.96.09,1.12.36,2.16.82,3.1,1.38,2.83,4.17,4.52,7.45,4.52.36,0,.73-.02,1.11-.06.62-.07,1.22-.19,1.81-.35.89.95,1.8,1.88,2.73,2.78-6.93,10.54-12.89,24.29-15.94,36.85-1.36.5-2.63,1.21-3.77,2.1-.73.57-1.32,1.3-1.71,2.14-2.97-1.28-5.63-2.21-7.89-2.44-4.52-.45-8.36.88-11.04,3.78C-.33,197.07-.05,203.1.04,204.26c.25,3.04,2.83,5.43,5.89,5.43h31.76c2.6,0,4.87-1.67,5.64-4.15.61-1.97.75-4.1.41-6.46,1.04-2.05,1.24-4.41.55-6.79-.35-1.2-1.05-2.25-2.04-3.02,2.64-10.09,7.45-21.23,12.86-29.85,12.95,8.91,27.89,13.88,43.65,14.51,1.76,5.15,3.18,10.26,4.25,15.24-.03.02-.06.05-.09.07-1,.77-1.72,1.82-2.07,3.03-.69,2.39-.49,4.75.55,6.8-.34,2.36-.21,4.49.4,6.46.77,2.49,3.04,4.16,5.64,4.16h31.76c3.05,0,5.64-2.38,5.89-5.43.1-1.16.37-7.19-3.62-11.53-2.67-2.9-6.48-4.24-11.04-3.78-2.26.23-4.92,1.15-7.89,2.44-.39-.83-.98-1.57-1.72-2.14-1.11-.86-2.35-1.55-3.67-2.05-.95-4.6-2.16-9.27-3.63-13.98,24.21-3.31,45.78-17.1,59.04-37.91l24.91.16c2.96,0,5.54-1.9,6.42-4.72.89-2.84-.17-5.88-2.63-7.56Z" />
      <circle class="cls-8" cx="102.19" cy="90.57" r="77.52" transform="translate(-34.11 98.79) rotate(-45)" />
      <path class="cls-6"
        d="M102.19,169.1c-43.31,0-78.54-35.23-78.54-78.54S58.89,12.03,102.19,12.03s78.54,35.23,78.54,78.54-35.23,78.54-78.54,78.54ZM102.19,14.07c-42.18,0-76.5,34.32-76.5,76.5s34.32,76.5,76.5,76.5,76.5-34.32,76.5-76.5S144.37,14.07,102.19,14.07Z" />
      <circle class="cls-2" cx="102.19" cy="90.57" r="65.38" transform="translate(-9.5 169.12) rotate(-76.66)" />
      <path class="cls-6"
        d="M102.19,156.46c-36.33,0-65.89-29.56-65.89-65.89S65.86,24.68,102.19,24.68s65.89,29.56,65.89,65.89-29.56,65.89-65.89,65.89ZM102.19,25.7c-35.77,0-64.87,29.1-64.87,64.87s29.1,64.87,64.87,64.87,64.87-29.1,64.87-64.87S137.96,25.7,102.19,25.7Z" />
      <circle class="cls-7" cx="102.19" cy="90.57" r="52.35" />
      <path class="cls-6"
        d="M102.19,143.43c-29.15,0-52.86-23.71-52.86-52.86s23.71-52.86,52.86-52.86,52.86,23.71,52.86,52.86-23.71,52.86-52.86,52.86ZM102.19,38.73c-28.58,0-51.84,23.25-51.84,51.84s23.26,51.84,51.84,51.84,51.84-23.25,51.84-51.84-23.25-51.84-51.84-51.84Z" />
      <circle class="cls-1" cx="102.19" cy="90.57" r="40.98" transform="translate(-10.09 168.27) rotate(-76.23)" />
      <path class="cls-6"
        d="M102.19,132.06c-22.88,0-41.49-18.61-41.49-41.49s18.61-41.49,41.49-41.49,41.49,18.61,41.49,41.49-18.61,41.49-41.49,41.49ZM102.19,50.1c-22.31,0-40.47,18.15-40.47,40.47s18.15,40.47,40.47,40.47,40.47-18.15,40.47-40.47-18.15-40.47-40.47-40.47Z" />
      <path class="cls-3"
        d="M197.59,126.58l-23.59-16.06.2-24.87c0-.56-.28-1.08-.74-1.38-.27-.17-.57-.26-.88-.26-.23,0-.46.05-.68.15l-18.89,8.72s-.04,0-.07,0l-6.72-14.8c2.48.76,4.67,1.32,6.52,1.32s3.34-.63,4.25-1.86c1.21-1.63,1.36-3.54.43-5.39-2.21-4.41-9.93-7.42-20.14-8.02,2.48-.24,4.46-.94,4.79-3.06.2-1.26-.23-2.61-1.17-3.71-1.16-1.36-3.63-2.98-8.79-2.98h0c-1.86,0-3.95.21-6.22.64-6.22,1.15-13.78,4.01-19.3,6.09-2.9,1.1-5.4,2.04-6.68,2.35-5.93,1.42-12.54,2.07-16.09,2.43-.98.1-1.68.17-2.2.24l-.9-.2c2.65-1.91,6.56-4.69,10.31-6.07,1.55-.57,3.13-.96,4.52-1.31,2.92-.73,5.23-1.3,6.1-3.19.48-1.05.37-2.27-.33-3.64-1.03-2.04-3.01-3.16-5.56-3.16h0c-3.51,0-8.21,2.18-12.27,5.68-3.58,3.09-5.63,6.57-6.72,8.93-1.3-1.12-2.79-1.93-4.48-2.32l-.08-.02c-.7-.15-1.42-.23-2.14-.23h0c-2.01,0-3.99.61-5.83,1.69l-2.7-.6c-.53-.12-1.06-.17-1.6-.17h0c-3.48,0-6.54,2.46-7.29,5.85l-5.13,23.24c-7.27-.42-25.95-.17-27.86,13.39-.99,7.05,3.27,12.98,11.89,16.92-.25,1.11-.54,2.41-.88,3.94-.11.47,0,.97.31,1.36s.76.61,1.24.62c0,0,.06,0,.16,0-1.92.99-3.56,2.18-4.14,3.51-.4.9-.35,1.85.12,2.68.6,1.05,1.68,1.63,3.03,1.63s2.96-.6,4.51-1.39c-1.2,2.59-2.04,5.4-1.2,7.11.3.62,1.08,1.66,2.87,1.66.18,0,.36-.01.55-.03,4.74-.52,6.77-6.47,7.6-10.5,2.42,4.21,5.97,7.76,10.34,10.18-10.54,10.09-20.84,31.11-24.51,48.89-1.81.17-3.53.83-4.92,1.91-.12.09-.21.21-.26.35-.61,1.55-.19,3.17,1.24,4.81.18.32.47,1.03.37,1.44-.64-.24-1.97-.89-3.18-1.47-3.59-1.73-8.5-4.09-11.41-4.38-.41-.04-.81-.06-1.2-.06-2.34,0-4.22.75-5.58,2.23-2.65,2.88-2.31,7.46-2.29,7.66.03.42.39.75.81.75h31.76c.36,0,.67-.23.78-.57.52-1.68.47-3.67-.15-6.07,1.2-1.17,1.56-2.6,1.08-4.26-.05-.17-.15-.31-.28-.42-.81-.62-1.72-1.1-2.7-1.43,3.74-17.55,14.3-38.75,24.49-47.54,1.04.37,2.1.68,3.2.92l23.12,5.1c1.9.42,3.85.63,5.79.63.53,0,1.06-.02,1.58-.05,7.11,14.35,11.78,27.85,14.15,40.94-.98.33-1.9.81-2.71,1.43-.14.11-.24.25-.28.42-.48,1.66-.12,3.09,1.08,4.26-.63,2.4-.68,4.39-.15,6.07.11.34.42.57.78.57h31.76c.42,0,.78-.32.81-.75.02-.19.36-4.78-2.29-7.66-1.36-1.48-3.24-2.23-5.58-2.23-.39,0-.79.02-1.2.06-2.9.29-7.82,2.65-11.41,4.38-1.21.58-2.54,1.22-3.18,1.47-.11-.41.19-1.11.37-1.44,1.43-1.64,1.85-3.26,1.24-4.81-.05-.14-.14-.26-.26-.35-1.4-1.08-3.12-1.74-4.93-1.91-2.36-13.18-6.97-26.72-13.96-41.06,4.9-1.1,9.37-3.55,12.93-6.97-.66,4.05-.81,9.91,3.22,12.07.64.34,1.26.51,1.85.51.93,0,1.77-.43,2.36-1.21,1.05-1.39,1.24-4,1.11-6.57,1.56,1.77,3.38,3.26,5.13,3.26.72,0,1.4-.24,1.97-.69.75-.59,1.14-1.46,1.11-2.44-.05-1.45-1.13-3.16-2.53-4.8.08.03.13.05.15.06.18.07.38.1.57.1.28,0,.56-.07.81-.22.42-.24.71-.66.79-1.14.21-1.29.4-2.42.56-3.41,7.89-.09,17.31-1.82,21.49-8.79l47.14.29s0,0,.01,0c.71,0,1.34-.46,1.55-1.14.21-.68-.05-1.43-.64-1.83ZM127.48,78.48c-.57-.9-1.31-1.64-2.17-2.21,1.75-1.02,3.8-1.53,6.22-1.53,3.59,0,7.48,1.09,11.06,2.2l-14.59,9.37.49-2.22c.43-1.94.07-3.93-1-5.62ZM71.8,62.41c-.34-.07-.69-.12-1.03-.15.34.03.69.07,1.03.15,0,0,0,0,0,0ZM70.07,62.23c.13,0,.26.01.39.02-.24-.01-.49,0-.73,0,.12,0,.23-.02.35-.02ZM66.93,62.81s-.08.03-.12.05h-.02s.09-.03.14-.05ZM69.22,62.28c-.22.02-.44.06-.67.1.22-.04.44-.07.67-.1ZM68.07,62.47c-.23.05-.45.12-.68.19.23-.07.45-.14.68-.19ZM23.68,104.56c1.38-9.76,16.26-10.21,22.95-9.92l-2.75,12.48-.58-.57c-.32-.31-.84-.31-1.15.01-.31.32-.31.84.01,1.15l1.3,1.27-.71,3.24c-.41,1.85-.61,3.7-.63,5.52l-6.69-3.99c-.26-.16-.55-.23-.83-.23-.53,0-1.04.26-1.35.72-.13.19-.22.33-.76,2.62-5.15-2.48-9.63-6.36-8.8-12.31ZM128.69,133.98c.44-2.89.41-3.06.36-3.3-.16-.76-.83-1.29-1.59-1.29-.08,0-.17,0-.25.02l-9.1,1.42c.17-.59.33-1.18.47-1.78.08.01.16.03.24.03l25.58.16c-3.68,3.55-9.98,4.63-15.7,4.75Z" />
      <path class="cls-3"
        d="M138.4,204.8h-31.76c-.81,0-1.51-.52-1.75-1.29-.54-1.73-.54-3.73,0-6.08-1.14-1.36-1.47-3.02-.94-4.83.11-.38.33-.7.64-.94.66-.51,1.39-.94,2.17-1.27-2.37-12.6-6.83-25.45-13.61-39.24-2.32.09-4.68-.13-6.97-.64l-23.12-5.1c-.91-.2-1.82-.45-2.76-.76-9.45,8.49-19.63,28.27-23.54,45.75.77.34,1.49.76,2.14,1.26.31.24.53.56.64.94.53,1.82.2,3.48-.94,4.84.55,2.35.55,4.35,0,6.08-.24.77-.94,1.29-1.75,1.29H5.12c-.95,0-1.75-.74-1.83-1.68-.02-.21-.39-5.23,2.56-8.43,1.81-1.96,4.38-2.81,7.63-2.49,3.08.31,8.09,2.72,11.75,4.48.22.1.44.21.65.31-1.09-1.87-.9-3.46-.48-4.55.12-.31.32-.58.59-.78,1.35-1.05,2.96-1.74,4.69-2.02,3.83-17.8,13.62-37.5,23.7-47.76-3.26-2.01-6.07-4.68-8.26-7.82-1.22,4.22-3.53,8.47-7.91,8.95-.23.02-.45.04-.66.04-2.43,0-3.46-1.56-3.79-2.23-.67-1.36-.59-3.22.24-5.65-.98.33-1.86.49-2.64.49-1.71,0-3.13-.78-3.91-2.15-.64-1.12-.7-2.39-.17-3.6.47-1.06,1.43-2.05,2.92-3.03-.02-.02-.04-.04-.05-.07-.49-.63-.67-1.43-.5-2.2.26-1.18.49-2.22.7-3.14-8.59-4.15-12.75-10.39-11.73-17.63,1.94-13.78,19.62-14.68,28.06-14.31l4.94-22.4c.85-3.85,4.33-6.65,8.28-6.65.61,0,1.22.07,1.82.2l2.32.51c2.73-1.5,5.63-1.97,8.35-1.37,1.45.33,2.77.92,3.98,1.76,1.23-2.36,3.25-5.39,6.42-8.13,4.23-3.66,9.19-5.93,12.93-5.93,2.95,0,5.25,1.32,6.47,3.71.84,1.66.96,3.19.35,4.53-1.07,2.33-3.71,2.99-6.77,3.75-1.37.34-2.91.72-4.41,1.28-2.52.93-5.17,2.55-7.35,4.03,3.62-.36,9.96-1.02,15.65-2.38,1.21-.29,3.67-1.22,6.51-2.29,5.61-2.12,13.21-4.99,19.52-6.16,2.34-.43,4.49-.65,6.41-.65,5.54,0,8.26,1.82,9.57,3.34,1.14,1.33,1.65,2.98,1.41,4.54-.16,1.02-.62,1.77-1.21,2.32,8.42,1.16,14.44,4.1,16.47,8.15,1.1,2.18.9,4.53-.53,6.45-1.12,1.51-2.83,2.27-5.07,2.27-1.4,0-2.92-.28-4.68-.75l5.39,11.87,18.02-8.31c.81-.38,1.79-.31,2.55.18.76.49,1.22,1.33,1.21,2.24l-.2,24.33,23.14,15.76c.97.66,1.38,1.86,1.04,2.97-.35,1.11-1.36,1.86-2.53,1.86l-46.59-.29c-3.59,5.47-10.89,8.5-21.18,8.77l-.42,2.57c-.13.78-.6,1.46-1.29,1.86-.02.01-.05.03-.07.04,1.02,1.46,1.54,2.75,1.58,3.9.04,1.31-.49,2.48-1.5,3.27-1.77,1.4-4.19,1.19-6.69-.91-.11,2.13-.55,3.69-1.33,4.72-1.26,1.67-3.41,2.1-5.5.98-3.05-1.63-4.43-5.22-4.06-10.45-3.01,2.39-6.45,4.14-10.14,5.15,6.63,13.8,11.01,26.72,13.36,39.45,1.73.28,3.34.97,4.68,2.02.26.2.46.47.58.78.42,1.08.62,2.68-.48,4.54.22-.11.44-.21.65-.31,3.66-1.76,8.67-4.17,11.75-4.48,3.27-.32,5.83.52,7.63,2.49,2.95,3.21,2.58,8.22,2.56,8.43-.08.94-.88,1.68-1.83,1.68ZM106.79,202.76h31.41c.03-.86.03-4.45-2.04-6.7-1.36-1.48-3.37-2.1-5.93-1.84-2.72.27-7.54,2.59-11.06,4.28-1.21.58-2.59,1.24-3.27,1.5l-1.06.4-.29-1.1c-.23-.86.3-1.9.46-2.19l.12-.17c1.16-1.33,1.51-2.55,1.08-3.72-1.23-.94-2.74-1.52-4.35-1.66l-.77-.07-.14-.77c-2.35-13.13-6.89-26.47-13.87-40.79l-.57-1.16,1.26-.28c4.66-1.04,8.96-3.37,12.44-6.71l2.21-2.12-.5,3.02c-.54,3.28-.9,9.07,2.69,11,1.2.64,2.24.48,2.91-.41.73-.97,1.05-3.07.91-5.9l-.15-2.93,1.94,2.21c2.36,2.69,4.37,3.49,5.69,2.45.5-.39.74-.95.72-1.61-.02-.71-.44-2.02-2.29-4.17l-2.62-3.04,3.88,1.47c.2.08.38.05.53-.04.16-.09.27-.25.3-.43l.7-4.26h.86c7.19-.09,16.61-1.6,20.63-8.3l.3-.5,47.72.3c.27,0,.5-.17.58-.43.08-.26-.02-.53-.24-.68l-24.04-16.37.21-25.42c0-.21-.1-.4-.28-.51-.17-.11-.4-.13-.58-.04l-19.05,8.79-.9.08-.36-.65-7.45-16.41-18.09,11.62,1.02-4.63c.37-1.67.06-3.39-.87-4.85-.49-.76-1.12-1.4-1.87-1.9l-1.36-.9,1.41-.83c1.93-1.12,4.13-1.67,6.73-1.67,3.82,0,7.87,1.16,11.36,2.25l2.09.65h-.02s1.56.48,1.56.48c2.52.77,4.54,1.28,6.22,1.28,1.59,0,2.71-.47,3.44-1.45.98-1.32,1.1-2.81.34-4.32-2.02-4.02-9.41-6.88-19.29-7.47l-.04-2.03c3.16-.3,3.73-1.28,3.88-2.2.15-.96-.19-2.02-.94-2.89-1.02-1.2-3.25-2.63-8.02-2.63-1.79,0-3.82.21-6.04.62-6.13,1.14-13.64,3.97-19.12,6.04-2.96,1.12-5.47,2.07-6.81,2.39-6,1.43-12.65,2.1-16.22,2.45-.98.1-1.66.16-2.16.23l-.18.02-3.31-.73,1.85-1.33c2.46-1.77,6.59-4.74,10.55-6.2,1.61-.59,3.21-.99,4.62-1.34,2.66-.66,4.76-1.18,5.41-2.62.34-.75.24-1.68-.31-2.76-.86-1.7-2.47-2.6-4.65-2.6-3.28,0-7.72,2.08-11.6,5.43-3.43,2.96-5.41,6.3-6.46,8.59l-.57,1.23-1.02-.88c-1.22-1.06-2.58-1.76-4.04-2.1-.04,0-.09-.02-.13-.03l-.34,1.59s0,0,0,0h0c-.3-.06-.6-.1-.9-.13l.14-1.63c-.11,0-.23-.02-.34-.02l-.07,1.64c-.22,0-.43,0-.65,0l-.07-1.64c-.18,0-.36.02-.53.04l.17,1.63s-.07,0-.11.01c-.15.02-.31.04-.46.07,0,0-.02,0-.03,0h0l-.28-1.62c-.17.03-.35.07-.52.11l.37,1.59c-.2.05-.41.11-.61.17l-.49-1.57c-.08.02-.15.05-.23.07l-.11.47.43,1.15-.43.17-2.37-.61-.09.05-3.09-.68c-.45-.1-.92-.15-1.38-.15-3,0-5.65,2.12-6.29,5.05l-5.31,24.09-.87-.05c-7.47-.43-25.02-.08-26.8,12.51-1.17,8.3,5.5,13.2,11.31,15.85l.75.34-.18.81c-.25,1.11-.54,2.41-.88,3.93-.04.18,0,.36.11.51.11.14.28.23.46.23l4.17.08-3.56,1.84c-2.52,1.3-3.39,2.36-3.68,3.01-.27.6-.24,1.21.07,1.76.53.93,1.46,1.12,2.14,1.12,1.02,0,2.42-.44,4.05-1.28l2.63-1.34-1.24,2.68c-1.34,2.89-1.77,5.1-1.21,6.24.4.83,1.23,1.19,2.4,1.06,4.19-.46,6.01-6.27,6.71-9.7l.54-2.63,1.34,2.33c2.37,4.12,5.81,7.5,9.95,9.79l1.21.67-1,.96c-10.11,9.68-20.52,30.46-24.22,48.35l-.15.74-.75.07c-1.61.15-3.11.72-4.34,1.66-.43,1.17-.08,2.39,1.08,3.72l.12.17c.17.3.69,1.33.46,2.19l-.29,1.1-1.06-.4c-.67-.25-1.96-.87-3.2-1.47-3.58-1.72-8.4-4.04-11.12-4.32-2.55-.26-4.57.36-5.93,1.84-2.07,2.25-2.07,5.84-2.04,6.7h31.41c.42-1.46.35-3.22-.21-5.36l-.15-.57.42-.41c.92-.9,1.18-1.91.83-3.18-.7-.53-1.49-.94-2.35-1.24l-.86-.29.19-.89c3.9-18.33,14.8-39.46,24.82-48.1l.45-.39.56.2c1.07.38,2.07.67,3.09.89l23.12,5.1c2.33.51,4.74.7,7.09.56l.67-.04.3.6c7.18,14.5,11.84,27.98,14.24,41.21l.16.87-.83.28c-.86.29-1.66.71-2.35,1.24-.35,1.27-.09,2.28.83,3.18l.42.41-.15.57c-.56,2.14-.63,3.9-.21,5.36ZM127.19,76.5c.43.43.82.91,1.15,1.43h0c1.19,1.86,1.6,4.05,1.18,6.19l10.66-6.85c-2.81-.81-5.84-1.52-8.65-1.52-1.63,0-3.06.24-4.34.74ZM66.73,62.23l.13.36.11-.44c-.08.03-.16.06-.24.09ZM127.5,135.02l.18-1.2c.27-1.73.39-2.71.38-2.91-.06-.31-.31-.51-.6-.51l-10.79,1.68.46-1.55c.17-.56.32-1.13.45-1.72l.21-.94,1.06.17,28.05.17-1.8,1.74c-3.29,3.18-8.8,4.87-16.38,5.03l-1.21.02ZM129.96,130.16c.03.1.06.2.08.31.08.37.1.64-.17,2.45,4.77-.22,8.65-1.14,11.43-2.69l-11.34-.07ZM43.11,119.54l-8.21-4.9c-.27-.16-.64-.07-.82.19-.07.13-.22.61-.62,2.29l-.29,1.23-1.14-.55c-6.89-3.31-10.13-7.94-9.36-13.37,1.5-10.64,17.29-11.1,24-10.79l1.21.05-3.41,15.46h0s-.73,3.31-.73,3.31c-.38,1.74-.59,3.53-.61,5.31l-.02,1.77ZM34.59,112.51c.48,0,.95.13,1.35.37l5.22,3.12c.1-1.34.29-2.68.58-3.99l.59-2.68-.9-.88c-.35-.34-.55-.8-.55-1.29,0-.49.18-.95.52-1.3.34-.35.8-.55,1.29-.55.17,0,.35.02.52.07l2.15-9.75c-6.66-.16-19.49.65-20.68,9.08h0c-.6,4.24,1.79,7.83,7.1,10.68.31-1.22.42-1.42.6-1.69.49-.74,1.32-1.18,2.2-1.18Z" />
      <path class="cls-3"
        d="M116.44,56.09c5.35,0,13.58-3.31,15.77-7.43.86-1.62.8-3.3-.18-4.75-.84-1.24-2.4-1.87-4.63-1.87-5.45,0-14.73,3.9-16.74,7.89-.71,1.4-.62,2.82.26,4.01.72.98,2.27,2.15,5.53,2.15Z" />
      <path class="cls-3"
        d="M116.44,57.1c-3.68,0-5.48-1.39-6.35-2.56-1.1-1.49-1.22-3.33-.35-5.07,2.2-4.35,11.81-8.45,17.65-8.45,2.59,0,4.44.78,5.48,2.32,1.18,1.74,1.26,3.86.23,5.8-2.39,4.49-10.92,7.97-16.67,7.97ZM127.4,43.06c-5.07,0-13.99,3.69-15.83,7.33-.53,1.06-.47,2.07.17,2.94.58.79,1.88,1.74,4.71,1.74,5.04,0,12.89-3.18,14.87-6.89.68-1.29.64-2.57-.12-3.7-.64-.94-1.91-1.42-3.79-1.42Z" />
      <path class="cls-3"
        d="M147.07,63.47c1.67,0,3.63-.62,5.25-1.66,1.96-1.26,3.03-2.85,3.03-4.5,0-2.5-1.74-4.12-4.43-4.12s-5.9,1.59-7.36,3.69c-.9,1.29-1.12,2.73-.64,4.05.6,1.61,2.11,2.53,4.14,2.53Z" />
      <path class="cls-3"
        d="M147.07,64.49c-2.45,0-4.36-1.2-5.1-3.2-.61-1.65-.34-3.42.76-4.99,1.67-2.39,5.12-4.13,8.2-4.13,3.25,0,5.44,2.07,5.45,5.14,0,2-1.24,3.9-3.5,5.36-1.78,1.14-3.95,1.83-5.8,1.83ZM150.93,54.2c-2.39,0-5.26,1.43-6.53,3.26-.7,1.01-.89,2.12-.52,3.12.45,1.2,1.58,1.87,3.19,1.87,1.48,0,3.24-.56,4.7-1.5,1.65-1.06,2.56-2.36,2.56-3.64,0-1.94-1.28-3.1-3.41-3.1Z" />
      <path class="cls-6"
        d="M198.81,128.66l-23.59-16.06.2-24.87c0-.56-.28-1.08-.74-1.38-.27-.17-.57-.26-.88-.26-.23,0-.46.05-.68.15l-18.89,8.72s-.04,0-.07,0l-6.72-14.8c2.48.76,4.67,1.32,6.52,1.32s3.34-.62,4.25-1.86c1.21-1.63,1.36-3.54.43-5.39-2.22-4.41-9.93-7.42-20.14-8.02,2.48-.24,4.46-.94,4.79-3.06.2-1.26-.23-2.61-1.17-3.71-1.16-1.36-3.63-2.98-8.79-2.98h0c-1.86,0-3.95.21-6.22.64-6.22,1.15-13.78,4.01-19.3,6.09-2.9,1.1-5.4,2.04-6.68,2.35-5.93,1.42-12.54,2.07-16.09,2.43-.98.1-1.68.17-2.2.24l-.9-.2c2.65-1.91,6.56-4.69,10.31-6.07,1.55-.57,3.13-.96,4.52-1.31,2.92-.73,5.23-1.3,6.1-3.19.48-1.05.37-2.27-.33-3.64-1.03-2.04-3.01-3.16-5.56-3.16h0c-3.51,0-8.21,2.18-12.27,5.68-3.58,3.09-5.63,6.57-6.72,8.93-1.3-1.12-2.79-1.93-4.48-2.32l-.08-.02c-.7-.15-1.42-.23-2.14-.23h0c-2.01,0-3.99.61-5.83,1.69l-2.7-.6c-.53-.12-1.06-.17-1.6-.17h0c-3.48,0-6.54,2.46-7.29,5.85l-8.77,39.76-.41,1.87-.71,3.24c-3.21,14.54,6.01,28.97,20.55,32.18l23.12,5.1c1.9.42,3.85.63,5.79.63,7.15,0,13.82-2.88,18.75-7.62-.66,4.05-.81,9.91,3.22,12.07.64.34,1.26.51,1.85.51.93,0,1.77-.43,2.36-1.21,1.05-1.39,1.24-4,1.11-6.57,1.56,1.77,3.38,3.26,5.13,3.26.72,0,1.4-.24,1.97-.69.75-.59,1.14-1.46,1.11-2.44-.05-1.45-1.13-3.16-2.53-4.8.08.03.13.05.15.06.18.07.38.1.57.1.28,0,.56-.07.81-.22.42-.24.71-.66.79-1.14.21-1.29.4-2.42.56-3.41,7.89-.09,17.31-1.82,21.49-8.79l47.14.29s0,0,.01,0c.71,0,1.34-.46,1.55-1.14.21-.68-.05-1.43-.64-1.83ZM128.7,80.56c-.57-.9-1.31-1.64-2.17-2.21,1.75-1.02,3.8-1.53,6.22-1.53,3.59,0,7.48,1.09,11.06,2.2l-14.59,9.37.49-2.22c.43-1.94.07-3.93-1-5.62ZM73.01,64.49c-.34-.07-.69-.12-1.03-.15.34.03.69.07,1.03.15,0,0,0,0,0,0ZM71.28,64.31c.13,0,.26.01.39.02-.24-.01-.49,0-.73,0,.12,0,.23-.02.35-.02ZM68.14,64.89s-.08.03-.12.05h-.02s.09-.03.14-.05ZM70.43,64.36c-.22.02-.44.06-.67.1.22-.04.44-.07.67-.1ZM69.28,64.55c-.23.05-.45.12-.68.19.23-.07.45-.14.68-.19ZM129.9,136.06c.44-2.89.41-3.06.36-3.3-.16-.76-.83-1.29-1.59-1.29-.08,0-.17,0-.25.02l-9.1,1.42c.17-.59.33-1.18.47-1.78.08.01.16.03.24.03l25.58.16c-3.68,3.55-9.98,4.63-15.7,4.75Z" />
      <path class="cls-6"
        d="M117.65,58.16c5.35,0,13.58-3.31,15.77-7.43.86-1.62.8-3.3-.18-4.75-.84-1.24-2.4-1.87-4.63-1.87-5.45,0-14.73,3.9-16.74,7.89-.71,1.4-.62,2.82.26,4.01.72.98,2.27,2.15,5.53,2.15Z" />
      <path class="cls-6"
        d="M148.28,65.55c1.67,0,3.63-.62,5.25-1.66,1.96-1.26,3.03-2.85,3.03-4.5,0-2.5-1.74-4.12-4.43-4.12s-5.9,1.59-7.36,3.69c-.9,1.29-1.12,2.73-.64,4.05.6,1.61,2.11,2.53,4.14,2.53Z" />
      <path class="cls-8"
        d="M119.63,129.28c-.08,0-.16,0-.23-.03l-37.58-9.16c-.4-.1-.7-.42-.76-.82-.07-.4.11-.81.45-1.03l63.07-40.51c.17-.11.36-.16.55-.16.1,0,.19.01.29.04.28.08.52.29.64.56l7.43,16.35,19.5-9c.14-.06.28-.09.43-.09.19,0,.39.05.55.16.29.19.47.52.47.86l-.2,25.2,23.85,16.25c.37.25.53.72.4,1.15-.13.43-.53.72-.97.72,0,0-77.87-.48-77.87-.48Z" />
      <path class="cls-6"
        d="M145.11,78.59l7.85,17.28,20.43-9.43-.21,25.74,24.3,16.55-77.86-.48-37.58-9.16,63.07-40.51h0ZM145.11,76.56c-.39,0-.77.11-1.1.32l-63.07,40.51c-.69.44-1.04,1.25-.91,2.05.13.8.74,1.45,1.53,1.64l37.58,9.16c.15.04.31.06.47.06l77.86.48s0,0,.01,0c.89,0,1.68-.58,1.95-1.43.27-.86-.06-1.79-.8-2.29l-23.4-15.94.2-24.65c0-.7-.35-1.35-.93-1.73-.33-.22-.72-.33-1.11-.33-.29,0-.58.06-.85.19l-18.57,8.57-7-15.41c-.24-.54-.71-.94-1.28-1.11-.19-.06-.38-.08-.58-.08h0Z" />
      <polygon class="cls-1" points="173.4 86.45 170.98 87.56 173.26 103.77 173.4 86.45" />
      <path class="cls-1" d="M197.49,128.74l-16.53-11.26s9.37,8.28,9.06,8.91c-.31.63-44.32,2.02-44.32,2.02l51.79.32Z" />
      <path class="cls-5"
        d="M174.15,112.85l-.96-.66.06-7.32c-10.44,4.48-31.22,12.27-31.54,14.14-.32,1.87,21.72-3.5,32.44-6.17Z" />
      <path class="cls-5" d="M152.8,95.52l-1.85-4.07c-4.35,4.12-13.79,11.69-13.79,12.66s10.96-5.29,15.64-8.59Z" />
      <path class="cls-5"
        d="M145.11,78.59l-63.07,40.51,37.58,9.16,3.26.02s6.93-26.41,7.26-28.06c.32-1.66,17.15-16.82,17.15-16.82l-2.18-4.8Z" />
      <path class="cls-5"
        d="M78.08,68.18c-.21,0-.43-.07-.61-.2-.34-.25-.48-.68-.38-1.08.07-.26,1.77-6.35,7.6-11.38,3.95-3.41,8.5-5.54,11.87-5.54,2.34,0,4.08.98,5.02,2.82.62,1.22.72,2.23.32,3.12-.74,1.62-2.92,2.16-5.69,2.85-1.41.35-3,.75-4.58,1.33-3.92,1.44-7.97,4.36-10.65,6.29-.98.71-1.76,1.27-2.36,1.64-.16.1-.35.15-.54.15Z" />
      <path class="cls-6"
        d="M96.57,51c1.83,0,3.31.69,4.11,2.27,2.09,4.12-3.54,3.72-9.39,5.87-5.44,2-10.96,6.63-13.2,8.02,0,0,1.62-5.99,7.28-10.88,3.63-3.14,7.97-5.29,11.2-5.29h0ZM96.57,48.96h0c-3.66,0-8.35,2.16-12.54,5.78-6.06,5.24-7.84,11.62-7.91,11.89-.22.81.08,1.67.75,2.17.36.27.79.4,1.22.4.37,0,.74-.1,1.07-.31.63-.39,1.42-.96,2.42-1.68,2.64-1.9,6.62-4.77,10.41-6.16,1.53-.56,3.09-.95,4.47-1.29,3.03-.75,5.43-1.35,6.37-3.42.53-1.17.42-2.51-.34-4-1.11-2.18-3.21-3.38-5.93-3.38h0Z" />
      <path class="cls-5"
        d="M117.25,56.29c-2.38,0-4.12-.66-5.04-1.9-.73-.99-.8-2.19-.2-3.37,1.93-3.82,10.91-7.56,16.2-7.56,2.02,0,3.41.54,4.13,1.6.86,1.27.91,2.69.15,4.12-2.09,3.94-10.04,7.11-15.23,7.11h0Z" />
      <path class="cls-6"
        d="M128.21,44.48c1.54,0,2.74.35,3.28,1.16,2.94,4.36-7.71,9.64-14.24,9.64-1.9,0-3.45-.45-4.22-1.49-2.74-3.71,8.99-9.31,15.17-9.31h0ZM128.21,42.44c-5.14,0-14.85,3.64-17.11,8.12-.77,1.52-.66,3.14.29,4.44.78,1.06,2.43,2.32,5.86,2.32,5.58,0,13.84-3.34,16.13-7.65.93-1.76.86-3.59-.2-5.17-.92-1.36-2.59-2.05-4.97-2.05h0Z" />
      <path class="cls-5"
        d="M153.56,79.61c-2.27,0-5.14-.91-8.47-1.96-4.01-1.27-8.55-2.7-12.74-2.7-3.63,0-6.49,1.08-8.73,3.3-.19.19-.45.29-.72.29-.07,0-.14,0-.22-.02l-40.85-8.86c-.33-.07-.6-.3-.73-.62-.13-.31-.09-.67.1-.95.33-.48.39-.49,3.5-.8,3.56-.35,10.19-1.02,16.17-2.44,1.32-.31,3.84-1.27,6.76-2.37,5.5-2.08,13.02-4.92,19.19-6.06,2.24-.42,4.29-.63,6.11-.63,4.93,0,7.25,1.51,8.33,2.77.83.97,1.2,2.14,1.03,3.23-.41,2.64-4.3,2.65-8.05,2.67-1.71,0-3.48.01-4.63.27-1.69.39-3.12.81-4.31,1.23,3.12-.35,6.12-.52,8.99-.52,14.39,0,21.61,4.2,23.42,7.8.82,1.63.69,3.32-.38,4.75-.8,1.07-2.06,1.61-3.77,1.61Z" />
      <path class="cls-6"
        d="M132.93,56.82c6.76,0,8.64,3,8.36,4.82-.43,2.75-8.33,1.29-11.9,2.11-7.51,1.71-9.98,4.09-9.98,4.09,5.54-.96,10.51-1.37,14.88-1.37,17.49,0,25.46,6.57,22.22,10.93-.64.86-1.66,1.2-2.95,1.2-4.8,0-13.44-4.66-21.21-4.66-3.46,0-6.75.92-9.45,3.6l-40.85-8.86c.19-.28,10.25-.72,19.06-2.82,3.9-.93,16.49-6.68,25.9-8.42,2.3-.43,4.26-.61,5.93-.61h0ZM132.93,54.78h0c-1.88,0-4,.22-6.3.64-6.26,1.16-13.83,4.02-19.37,6.11-2.89,1.09-5.38,2.03-6.63,2.33-5.91,1.41-12.49,2.07-16.03,2.42-3.31.33-3.65.36-4.25,1.25-.38.56-.45,1.27-.2,1.9.25.63.8,1.09,1.46,1.23l40.85,8.86c.14.03.29.05.43.05.53,0,1.05-.21,1.43-.59,2.04-2.02,4.67-3.01,8.02-3.01,4.04,0,8.5,1.41,12.44,2.65,3.41,1.08,6.35,2.01,8.78,2.01,2.04,0,3.59-.68,4.59-2.02,1.29-1.73,1.46-3.85.47-5.82-2.07-4.12-8.75-7.06-17.73-8.02,1.28-.5,2.19-1.35,2.42-2.81.22-1.38-.25-2.85-1.27-4.05-1.22-1.43-3.79-3.13-9.1-3.13h0Z" />
      <path class="cls-5"
        d="M147.88,63.67c-1.77,0-3.07-.78-3.57-2.14-.42-1.15-.23-2.36.56-3.5,1.34-1.93,4.36-3.43,6.87-3.43,2.35,0,3.82,1.35,3.82,3.51,0,1.43-.98,2.84-2.75,3.99-1.53.98-3.37,1.57-4.93,1.57h0Z" />
      <path class="cls-6"
        d="M151.74,55.63c1.57,0,2.8.71,2.8,2.5,0,2.3-3.87,4.53-6.66,4.53-1.22,0-2.23-.43-2.62-1.47-1.03-2.79,3.38-5.56,6.48-5.56h0ZM151.74,53.59c-2.85,0-6.17,1.66-7.7,3.87-.98,1.4-1.22,2.98-.68,4.43.66,1.78,2.31,2.8,4.53,2.8,1.74,0,3.79-.65,5.48-1.73,2.08-1.34,3.22-3.06,3.22-4.84,0-2.71-1.95-4.53-4.84-4.53h0Z" />
      <path class="cls-1"
        d="M85.36,56.29c-1.95,1.69-3.42,3.5-4.51,5.16,5.35-6.51,14.11-10.69,19.63-8.48-2.42-3.93-9.58-1.47-15.12,3.32Z" />
      <path class="cls-1"
        d="M131.96,47.59c.1-.66-.03-1.32-.46-1.96-2.43-3.59-17.71,1.93-18.79,6.47,1.66-2.7,15.86-8.84,19.25-4.51Z" />
      <path class="cls-1"
        d="M141.28,60.86c-.38-2.29-3.89-5.36-14.27-3.43-9.41,1.75-22,7.49-25.9,8.42-5.33,1.27-11.11,1.94-14.9,2.32,4.92.25,10.33.12,15.69-1.24,15.45-3.93,31.23-12.32,39.38-6.07Z" />
      <path class="cls-1" d="M121.05,67.57c-.32.2,28.78-2.94,36.02,8.72,1.64-5.33-11.21-12.61-36.02-8.72Z" />
      <path class="cls-1" d="M145.27,61.18c.04.1,5.88-3.67,9.18-3.83-1.04-4.08-10.65-.16-9.18,3.83Z" />
      <path class="cls-7"
        d="M5.93,204.29c-.27,0-.49-.2-.51-.47-.02-.19-.35-4.65,2.21-7.43,1.3-1.41,3.1-2.13,5.36-2.13.37,0,.76.02,1.17.06,2.85.28,7.74,2.64,11.3,4.35,1.46.71,2.98,1.43,3.47,1.57.55-.57-.29-2.01-.3-2.02-1.34-1.49-1.76-3.03-1.19-4.49.03-.09.09-.16.16-.22,1.57-1.22,3.57-1.89,5.63-1.89s4.1.67,5.68,1.89c.09.07.15.16.18.26.46,1.6.08,2.97-1.13,4.08.65,2.42.72,4.41.2,6.07-.07.21-.26.36-.49.36H5.93Z" />
      <path class="cls-6"
        d="M33.25,192.14c1.93,0,3.84.61,5.37,1.78.4,1.38.15,2.65-1.22,3.76.64,2.24.85,4.32.3,6.1H5.93s-.74-9,7.07-9c.36,0,.73.02,1.12.06,4.3.43,13.85,5.94,14.92,5.94.03,0,.05,0,.07-.01,1.18-.83-.03-2.81-.03-2.81-1.13-1.27-1.69-2.64-1.15-4.04,1.55-1.2,3.44-1.78,5.32-1.78h0ZM33.25,191.12h0c-2.18,0-4.29.71-5.95,2-.15.11-.26.26-.32.44-.44,1.12-.57,2.89,1.27,5.01.17.3.32.72.35,1.02-.69-.29-1.85-.85-2.91-1.36-3.6-1.73-8.54-4.11-11.47-4.4-.42-.04-.83-.06-1.22-.06-2.4,0-4.33.77-5.73,2.29-2.71,2.94-2.36,7.62-2.35,7.81.04.53.49.94,1.02.94h31.76c.45,0,.84-.29.97-.72.53-1.69.49-3.68-.12-6.07,1.17-1.2,1.54-2.71,1.05-4.38-.06-.21-.19-.39-.36-.52-1.67-1.29-3.8-1.99-5.99-1.99h0Z" />
      <path class="cls-3"
        d="M14.12,194.84c1.96.2,5.02,1.45,7.87,2.76-5.39-1.33-11.1-.5-15.73,2.65.66-2.72,2.55-5.94,7.86-5.41Z" />
      <path class="cls-8" d="M37.95,202.58c-.05.41-.13.81-.25,1.2H5.93s-.04-.47,0-1.2h32.02Z" />
      <path class="cls-8"
        d="M27.93,193.92c3.14-2.43,7.68-2.32,10.69,0,.18.62.22,1.21.09,1.78-3.56-1.47-7.48-.66-10.87-1.49.03-.1.05-.2.09-.3Z" />
      <path class="cls-6"
        d="M33.74,195.56c-1.19,0-2.6-.22-4.06-.93-.25-.12-.36-.43-.24-.68.12-.25.43-.36.68-.24,3.43,1.66,6.62.28,6.66.27.26-.11.56,0,.67.26.11.26,0,.56-.26.67-.09.04-1.49.65-3.46.65Z" />
      <path class="cls-6"
        d="M9.99,203.05h-2.79c-.28,0-.51-.23-.51-.51s.23-.51.51-.51h2.79c.28,0,.51.23.51.51s-.23.51-.51.51Z" />
      <path class="cls-6"
        d="M30.04,203.05H12.35c-.28,0-.51-.23-.51-.51s.23-.51.51-.51h17.69c.28,0,.51.23.51.51s-.23.51-.51.51Z" />
      <path class="cls-6"
        d="M32.78,203.05h-1.44c-.28,0-.51-.23-.51-.51s.23-.51.51-.51h1.44c.28,0,.51.23.51.51s-.23.51-.51.51Z" />
      <path class="cls-6"
        d="M37.81,203.05h-2.82c-.28,0-.51-.23-.51-.51s.23-.51.51-.51h2.82c.28,0,.51.23.51.51s-.23.51-.51.51Z" />
      <path class="cls-6"
        d="M20.71,200.1c-.23,0-.44-.16-.5-.39-.68-2.84-3.38-4.06-3.41-4.07-.26-.11-.37-.41-.26-.67.11-.26.41-.37.67-.26.13.06,3.19,1.43,3.99,4.77.07.27-.1.55-.38.61-.04,0-.08.01-.12.01Z" />
      <path class="cls-6"
        d="M34.58,198.72c-.07,0-.14,0-.21,0-.28,0-.51-.24-.5-.52,0-.28.23-.5.51-.5.05,0,.13,0,.2,0,1.91,0,3.24-.49,3.25-.5.26-.1.56.03.66.3.1.26-.03.56-.3.66-.06.02-1.5.56-3.61.56Z" />
      <path class="cls-6"
        d="M30.28,198.88s-.02,0-.03,0c-1.1-.06-2.04-.61-2.18-.77-.18-.21-.16-.54.06-.72.19-.16.47-.16.66,0,.14.1.78.44,1.52.48.28.01.5.26.48.54-.01.27-.24.48-.51.48Z" />
      <path class="cls-6"
        d="M36.08,200.29c-.28,0-.51-.23-.51-.51v-1.41c0-.28.23-.51.51-.51s.51.23.51.51v1.41c0,.28-.23.51-.51.51Z" />
      <path class="cls-6"
        d="M11.48,201.85h-5.44c-.28,0-.51-.23-.51-.51s.23-.51.51-.51h5.44c.28,0,.51.23.51.51s-.23.51-.51.51Z" />
      <path class="cls-7"
        d="M107.45,204.29c-.22,0-.42-.15-.49-.36-.52-1.66-.45-3.65.2-6.07-1.21-1.11-1.59-2.48-1.13-4.08.03-.1.09-.2.18-.26,1.58-1.22,3.6-1.89,5.68-1.89s4.06.67,5.63,1.89c.07.06.13.13.16.22.57,1.46.15,2.99-1.24,4.56h0s-.76,1.35-.23,1.95c.5-.14,2-.86,3.45-1.56,3.57-1.72,8.46-4.07,11.31-4.35.41-.04.8-.06,1.17-.06,2.26,0,4.06.72,5.36,2.13,2.56,2.78,2.23,7.24,2.21,7.43-.02.26-.24.47-.51.47h-31.76Z" />
      <path class="cls-6"
        d="M111.9,192.14c1.88,0,3.77.58,5.32,1.78.54,1.4-.02,2.77-1.15,4.04,0,0-1.2,1.97-.03,2.81.02,0,.04.01.07.01,1.07,0,10.62-5.52,14.92-5.94.39-.04.76-.06,1.12-.06,7.8,0,7.07,9,7.07,9h-31.76c-.55-1.78-.35-3.85.3-6.1-1.37-1.11-1.62-2.39-1.22-3.76,1.52-1.17,3.44-1.78,5.37-1.78h0ZM111.9,191.12c-2.19,0-4.32.71-5.99,1.99-.17.13-.3.32-.36.52-.49,1.67-.12,3.17,1.05,4.38-.61,2.39-.65,4.38-.12,6.07.13.43.53.72.97.72h31.76c.53,0,.97-.41,1.02-.94.02-.2.37-4.87-2.35-7.81-1.4-1.52-3.33-2.29-5.73-2.29-.39,0-.8.02-1.22.06-2.94.29-7.87,2.67-11.47,4.4-1.06.51-2.22,1.07-2.91,1.36.03-.3.18-.71.35-1.02,1.83-2.11,1.7-3.88,1.27-5.01-.07-.17-.18-.32-.32-.44-1.66-1.29-3.77-2-5.95-2h0Z" />
      <path class="cls-3"
        d="M131.03,194.84c-1.96.2-5.02,1.45-7.87,2.76,5.39-1.33,11.1-.5,15.73,2.65-.66-2.72-2.55-5.94-7.86-5.41Z" />
      <path class="cls-8" d="M107.2,202.58c.05.41.13.81.25,1.2h31.76s.04-.47,0-1.2h-32.02Z" />
      <path class="cls-8"
        d="M117.22,193.92c-3.14-2.43-7.68-2.32-10.69,0-.18.62-.22,1.21-.09,1.78,3.56-1.47,7.48-.66,10.87-1.49-.03-.1-.05-.2-.09-.3Z" />
      <path class="cls-6"
        d="M111.41,195.56c-1.97,0-3.37-.61-3.46-.65-.26-.11-.37-.42-.26-.67.11-.26.42-.37.67-.26.03.01,3.23,1.39,6.66-.27.25-.12.56-.02.68.24.12.25.02.56-.24.68-1.46.71-2.86.93-4.06.93Z" />
      <path class="cls-6"
        d="M137.95,203.05h-2.79c-.28,0-.51-.23-.51-.51s.23-.51.51-.51h2.79c.28,0,.51.23.51.51s-.23.51-.51.51Z" />
      <path class="cls-6"
        d="M132.8,203.05h-17.69c-.28,0-.51-.23-.51-.51s.23-.51.51-.51h17.69c.28,0,.51.23.51.51s-.23.51-.51.51Z" />
      <path class="cls-6"
        d="M113.81,203.05h-1.44c-.28,0-.51-.23-.51-.51s.23-.51.51-.51h1.44c.28,0,.51.23.51.51s-.23.51-.51.51Z" />
      <path class="cls-6"
        d="M110.17,203.05h-2.82c-.28,0-.51-.23-.51-.51s.23-.51.51-.51h2.82c.28,0,.51.23.51.51s-.23.51-.51.51Z" />
      <path class="cls-6"
        d="M124.44,200.1s-.08,0-.12-.01c-.27-.07-.44-.34-.38-.61.8-3.34,3.86-4.71,3.99-4.77.26-.11.56,0,.67.26.11.26,0,.56-.26.67-.03.01-2.73,1.24-3.41,4.07-.06.23-.27.39-.5.39Z" />
      <path class="cls-6"
        d="M110.57,198.72c-2.11,0-3.55-.54-3.61-.56-.26-.1-.39-.39-.3-.66.1-.26.39-.39.66-.3.01,0,1.44.53,3.44.49h0c.28,0,.51.22.51.5,0,.28-.22.51-.5.52-.07,0-.14,0-.21,0Z" />
      <path class="cls-6"
        d="M114.87,198.88c-.27,0-.49-.21-.51-.48-.02-.28.2-.52.48-.54.76-.04,1.41-.4,1.53-.48.18-.21.47-.2.68-.02.21.18.2.54.02.75-.14.16-1.08.71-2.18.77,0,0-.02,0-.03,0Z" />
      <path class="cls-6"
        d="M109.07,200.29c-.28,0-.51-.23-.51-.51v-1.41c0-.28.23-.51.51-.51s.51.23.51.51v1.41c0,.28-.23.51-.51.51Z" />
      <path class="cls-6"
        d="M139.1,201.85h-5.44c-.28,0-.51-.23-.51-.51s.23-.51.51-.51h5.44c.28,0,.51.23.51.51s-.23.51-.51.51Z" />
      <path class="cls-6"
        d="M60.93,144.28l-2.65-3.08c-11.69,10.07-23.44,34.36-26.54,53.54,1.47.62,2.7.34,4.14-.14,3.15-18.04,14.32-41.07,25.05-50.32Z" />
      <path class="cls-6"
        d="M93.31,148.35c8.34,16.29,13.56,31.47,15.89,46.17,1.25.76,3.38.45,4.15.21-2.32-15.39-7.72-31.24-16.42-48.23l-3.62,1.85Z" />
      <path class="cls-6"
        d="M40.54,124.52c-14.03-3.52-21.35-10.7-20.08-19.71,2.33-16.51,29.55-13.29,30.71-13.14l-.51,4.03c-.24-.03-24.41-2.89-26.18,9.68-1.3,9.19,10.12,13.47,17.04,15.2l-.99,3.94Z" />
      <path class="cls-6"
        d="M128.16,138.87c-6.26,0-11.39-.98-11.88-1.08l.79-3.99c.25.05,25.29,4.84,30.39-6.99.75-1.75.71-3.44-.12-5.16-3.43-7.14-19.03-12.8-24.75-14.38l1.08-3.92c.91.25,22.41,6.27,27.34,16.53,1.35,2.81,1.41,5.68.18,8.53-3.7,8.59-14.43,10.45-23.03,10.45Z" />
      <path class="cls-3"
        d="M38.37,142.24c-1.46,0-2.09-.83-2.33-1.32-.92-1.88.57-5.49,2.12-8.37-1.95,1.2-4.23,2.31-5.97,2.31-1.44,0-2.15-.72-2.5-1.33-.38-.67-.41-1.4-.09-2.13.75-1.7,3.53-3.2,6.26-4.31-1.57-.03-2.79-.06-2.82-.06-.31,0-.59-.15-.78-.39-.19-.24-.26-.55-.19-.85,2.22-9.99,2.35-10.19,2.48-10.39.2-.29.52-.45.85-.45.18,0,.36.05.52.14l9.3,5.54c.28.16.46.45.49.77l.75,7.08c0,.06,0,.13,0,.19-.04.52-1.16,12.82-7.6,13.53-.17.02-.33.03-.49.03Z" />
      <path class="cls-6"
        d="M35.4,115.97l9.3,5.54.75,7.08s-1.01,11.98-6.7,12.6c-.13.01-.26.02-.38.02-4.62,0,2.1-10.92,3.2-12.33.11-.1.16-.15.14-.15,0,0,0,0,0,0-.02,0-.07.06-.14.15-.96.84-6.41,4.95-9.38,4.95-.71,0-1.29-.24-1.62-.82-1.65-2.89,8.86-6.33,11.54-6.93.42-.02.66-.04.6-.08,0,0-.03,0-.06,0-.09,0-.28.03-.55.09-.43.02-1.04.02-1.76.02-2.86,0-7.29-.1-7.29-.1,0,0,2.18-9.81,2.34-10.04h0ZM35.4,113.93c-.66,0-1.31.32-1.7.91-.27.4-.37.55-2.63,10.73-.13.6,0,1.22.39,1.7.17.21.37.39.6.52-1.58.93-2.87,2-3.4,3.19-.45,1.02-.4,2.1.14,3.05.68,1.19,1.88,1.84,3.39,1.84,1.12,0,2.4-.39,3.69-.96-.98,2.38-1.54,4.83-.75,6.45.59,1.2,1.77,1.89,3.24,1.89.19,0,.39-.01.6-.03,7.14-.78,8.39-13.06,8.5-14.46.01-.13,0-.26,0-.39l-.75-7.08c-.07-.64-.43-1.21-.98-1.54l-9.3-5.54c-.33-.19-.69-.29-1.04-.29h0Z" />
      <path class="cls-3"
        d="M116.83,155.31c-.49,0-1.02-.15-1.56-.44-5.71-3.06-2.15-14.89-2-15.39.02-.06.04-.12.07-.18l3.34-6.29c.15-.28.43-.48.74-.53l10.69-1.67c.05,0,.11-.01.16-.01.47,0,.9.33,1,.81.05.24.1.46-1.57,10.56-.05.3-.23.56-.5.72-.16.09-.33.14-.51.14-.12,0-.24-.02-.36-.06-.11-.04-1.22-.46-2.63-1,2.12,2.05,4.14,4.47,4.2,6.33.03.8-.28,1.47-.88,1.94-.47.37-1,.55-1.59.55-1.99,0-4.21-2.35-5.9-4.62.32,3.03.36,6.6-.82,8.17-.48.63-1.13.97-1.87.97Z" />
      <path class="cls-6"
        d="M128.27,131.82c.06.27-1.58,10.19-1.58,10.19,0,0-6.49-2.44-8.43-3.3-.28-.19-.47-.3-.52-.3,0,0,0,0,0,0-.06.02.14.13.53.3,2.26,1.55,10.73,8.67,8.12,10.73-.29.23-.61.34-.96.34-2.82,0-7.06-7.01-7.7-8.27-.03-.11-.06-.18-.07-.19,0,0,0,0,0,0-.01,0,.02.07.08.19.46,1.61,2.38,12.79-.9,12.79-.31,0-.67-.1-1.08-.32-5.04-2.7-1.51-14.19-1.51-14.19l3.34-6.29,10.69-1.67h0ZM128.27,129.78c-.1,0-.21,0-.32.02l-10.69,1.67c-.63.1-1.18.49-1.49,1.06l-3.34,6.29c-.06.11-.11.23-.15.36-.41,1.34-3.84,13.19,2.49,16.59.7.37,1.39.56,2.04.56,1.07,0,2.02-.49,2.69-1.37.96-1.28,1.26-3.45,1.23-5.71,1.44,1.46,3.07,2.57,4.67,2.57.81,0,1.58-.27,2.22-.77.85-.68,1.3-1.66,1.27-2.78-.04-1.31-.84-2.78-1.96-4.23.26-.03.52-.12.75-.26.53-.31.89-.83.99-1.43,1.7-10.29,1.67-10.47,1.57-10.94-.2-.96-1.04-1.62-1.99-1.62h0Z" />
      <path class="cls-7"
        d="M93.01,150.35c-1.89,0-3.8-.21-5.66-.62l-23.12-5.1c-6.86-1.51-12.73-5.63-16.53-11.59-3.8-5.96-5.07-13.01-3.55-19.87l9.9-44.86c.69-3.11,3.5-5.37,6.7-5.37.49,0,.99.05,1.47.16l61.28,13.52c3.69.81,6.03,4.48,5.21,8.17l-9.9,44.86c-2.65,12-13.5,20.7-25.8,20.7Z" />
      <path class="cls-6"
        d="M60.74,63.96c.41,0,.83.04,1.25.14l61.28,13.52c3.13.69,5.13,3.82,4.44,6.95l-9.9,44.86c-2.6,11.8-13.17,19.9-24.8,19.9-1.8,0-3.62-.19-5.44-.59l-23.12-5.1c-13.63-3.01-22.32-16.62-19.31-30.24l9.9-44.86c.6-2.71,3.03-4.57,5.7-4.57h0ZM60.75,61.92h0c-3.67,0-6.9,2.6-7.69,6.17l-9.9,44.86c-3.26,14.76,6.1,29.42,20.86,32.67l23.12,5.1c1.93.43,3.91.64,5.88.64,12.78,0,24.04-9.04,26.79-21.5l9.9-44.86c.93-4.24-1.75-8.45-5.99-9.38l-61.28-13.52c-.56-.12-1.12-.18-1.69-.18h0Z" />
      <path class="cls-1"
        d="M104.38,141.9c-13.42,7.13-30.88,3.73-46.13-.52,1.92,1,4,1.77,6.21,2.26l23.12,5.1c13.63,3.01,27.24-5.68,30.24-19.31l9.9-44.86c.17-.76.17-1.53.05-2.25-3.75,19.13-9.43,51.49-23.38,59.59Z" />
      <path class="cls-3"
        d="M59.01,64.23c-1.93.61-3.5,2.2-3.96,4.3l-9.9,44.86c-1.99,9,1.13,17.99,7.4,23.93-4.99-6.3-6.35-15.25-5.68-25.19.05-.77,26.21,25.47,26.29,24.7.01-.14,40.51-7.49,41.41-8.09.76-.51-40.68,5.87-40.68,5.87,0,0-26.05-25.28-25.98-25.81,1.81-14.52,6.65-31.87,11.1-44.58Z" />
      <path class="cls-1"
        d="M56.68,92.51c.81,8.94,11.4,12.17,18.72,6.47,15.27-15.18,6.68-30.46,6.68-30.46l-15.8-3.49c-6.55,7.26-10.32,17.36-9.6,27.47Z" />
      <path class="cls-1"
        d="M116.11,110.63s.83,9.17-1.44,13.3c-2.27,4.13-9.45,4.8-13.71,3.32-4.26-1.47,15.15-16.63,15.15-16.63Z" />
      <path class="cls-1"
        d="M98.52,108.52c6.19,1.08,14.51-.56,18.15-10.93,4.82-13.72.53-21.32.53-21.32l-13.95-3.08c-9.49,9.27-17.5,33.1-4.74,35.32Z" />
      <path class="cls-3"
        d="M80.53,82.77c-2.05,9.27-8.8,15.69-15.16,14.45-.07,0-.14-.02-.2-.04-6.41-1.41-9.93-10.16-7.86-19.53,2.07-9.38,8.94-15.83,15.35-14.41h.06c6.37,1.47,9.86,10.19,7.8,19.54Z" />
      <path class="cls-6"
        d="M70.88,63.04c.6,0,1.19.06,1.79.19h.06c6.37,1.47,9.86,10.19,7.8,19.54-1.88,8.5-7.71,14.6-13.56,14.6-.53,0-1.06-.05-1.59-.15-.07,0-.14-.02-.2-.04-6.41-1.41-9.93-10.16-7.86-19.53,1.88-8.51,7.71-14.61,13.56-14.61h0ZM70.88,61h0c-6.94,0-13.48,6.82-15.55,16.21-2.31,10.46,1.91,20.31,9.41,21.96.1.02.2.04.3.06.63.12,1.28.18,1.93.18,6.94,0,13.48-6.81,15.55-16.2,2.33-10.57-1.77-20.21-9.34-21.95l-.08-.02c-.73-.16-1.48-.24-2.23-.24h0Z" />
      <path class="cls-6"
        d="M80.91,82.82c-2.08,9.4-9,15.9-15.54,14.62-.55-1.38-.71-2.94-.36-4.51l5.77-26.17c.33-1.48,1.06-2.76,2.04-3.77,6.55,1.5,10.18,10.36,8.09,19.84Z" />
      <rect class="cls-3" x="62.5" y="73.09" width="11.04" height="7.29" rx="3.39" ry="3.39"
        transform="translate(18.13 -12.85) rotate(12.44)" />
      <path class="cls-6"
        d="M75.91,97.3c-.13,0-.27-.05-.37-.16-.2-.2-.19-.52.01-.72,2.83-2.75,4.4-6.04,4.42-6.08.12-.25.42-.36.68-.24.25.12.36.42.24.68-.07.14-1.66,3.49-4.63,6.38-.1.1-.23.14-.35.14Z" />
      <path class="cls-6"
        d="M66.27,101.46c-.18,0-.35,0-.53-.01-.28-.01-.5-.25-.48-.53.01-.28.25-.52.53-.48,3.07.13,6.05-1.13,7.81-2.37.23-.16.55-.11.71.12.16.23.11.55-.12.71-1.8,1.27-4.78,2.57-7.92,2.57Z" />
      <path class="cls-6"
        d="M62.51,100.76c-.06,0-.12,0-.18-.03-4.85-1.77-6.89-5.93-7.75-9.1-.07-.27.09-.55.36-.63.27-.07.55.09.63.36.8,2.94,2.68,6.78,7.12,8.41.26.1.4.39.3.65-.08.21-.27.33-.48.33Z" />
      <path class="cls-6"
        d="M54.65,90c-.25,0-.46-.18-.5-.43-.31-1.96-.25-3.37-.25-3.43.01-.28.25-.52.53-.49.28.01.5.25.49.53,0,.01-.06,1.37.24,3.23.04.28-.14.54-.42.58-.03,0-.05,0-.08,0Z" />
      <path class="cls-3"
        d="M92.01,85c-2.1,9.5,1.29,18.34,7.58,19.89.06.02.13.04.2.05,6.41,1.41,13.32-5.22,15.44-14.82,2.12-9.6-1.36-18.53-7.77-19.94h-.06c-6.39-1.37-13.27,5.25-15.38,14.82Z" />
      <path class="cls-6"
        d="M105.71,69.99c.56,0,1.12.06,1.68.18h.06c6.41,1.43,9.89,10.35,7.77,19.96-1.93,8.73-7.82,15.01-13.69,15.01-.58,0-1.17-.06-1.75-.19-.06-.01-.13-.03-.2-.05-6.28-1.55-9.67-10.4-7.58-19.89,1.93-8.74,7.83-15.01,13.7-15.01h0ZM105.71,67.95c-6.97,0-13.57,6.98-15.69,16.61-2.35,10.65,1.61,20.43,9.03,22.3.1.03.2.05.3.08.72.16,1.45.24,2.19.24,6.96,0,13.56-6.99,15.68-16.61,2.4-10.86-1.7-20.69-9.32-22.37h-.06c-.7-.16-1.41-.24-2.12-.24h0Z" />
      <path class="cls-6"
        d="M91.65,84.88c-2.12,9.63,1.39,18.62,7.86,20.21,1.09-1.05,1.9-2.44,2.25-4.04l5.91-26.8c.33-1.51.22-3.02-.25-4.37-6.58-1.39-13.63,5.3-15.77,15Z" />
      <path class="cls-3"
        d="M103.83,80.98h4.18c1.89,0,3.43,1.54,3.43,3.43v.6c0,1.89-1.54,3.43-3.43,3.43h-4.18c-1.89,0-3.43-1.54-3.43-3.43v-.6c0-1.89,1.54-3.43,3.43-3.43Z"
        transform="translate(191.1 190.26) rotate(-167.56)" />
      <path class="cls-6"
        d="M91.28,102.84c-.18,0-.35-.1-.45-.26-2.54-4.61-2.57-10.05-2.57-10.28,0-.28.23-.51.51-.51s.51.23.51.51c0,.05.03,5.41,2.44,9.79.14.25.05.56-.2.69-.08.04-.16.06-.25.06Z" />
      <path class="cls-6"
        d="M96.72,107.96c-.07,0-.13-.01-.2-.04-1.25-.52-2.38-1.27-3.37-2.24-.2-.2-.2-.52,0-.72.2-.2.52-.2.72,0,.9.88,1.92,1.56,3.05,2.03.26.11.38.41.27.67-.08.2-.27.31-.47.31Z" />
      <path class="cls-6"
        d="M101.3,108.83c-.22,0-.44,0-.66-.02-.28-.01-.5-.25-.48-.53.01-.28.26-.51.54-.48,1.75.09,3.48-.21,5.14-.88.65-.26,1.3-.59,1.93-.97.66-.4,1.31-.86,1.94-1.38.22-.18.54-.15.72.07.18.22.15.54-.07.72-.66.55-1.36,1.04-2.06,1.46-.68.41-1.38.76-2.07,1.04-1.59.65-3.24.97-4.92.97Z" />
      <path class="cls-6"
        d="M112.17,103.41c-.12,0-.24-.04-.34-.13-.21-.19-.23-.51-.04-.72.31-.35.59-.69.85-1,.17-.22.5-.26.72-.08.22.17.26.49.08.72-.26.33-.56.69-.89,1.05-.1.11-.24.17-.38.17Z" />
      <path class="cls-6"
        d="M113.88,101.24c-.1,0-.2-.03-.29-.09-.23-.16-.29-.48-.13-.71.44-.64.66-1.05.67-1.06.14-.25.44-.34.69-.2.25.14.34.44.2.69-.01.02-.25.46-.73,1.15-.1.14-.26.22-.42.22Z" />
      <path class="cls-6"
        d="M98.73,114.76c-.4,1.11-2.99,10.47,4.15,11.91,7.14,1.44,10.06-2.53,11.2-6.9,1.14-4.37,2.54-9.78.54-10.1-3.19-.52-15.32,3.52-15.89,5.09Z" />
      <path class="cls-6"
        d="M113.79,109.82c.24,0,.46.01.65.04,1.96.32.59,5.61-.52,9.88-.96,3.66-3.2,7.04-8.21,7.04-.83,0-1.75-.09-2.74-.29-6.98-1.41-4.44-10.56-4.06-11.65.52-1.44,11.04-5.02,14.89-5.02h0ZM113.79,108.8c-3.3,0-15.02,3.39-15.85,5.7-.02.06-2,5.86.24,9.82.95,1.68,2.49,2.75,4.58,3.18,1.03.21,2.02.32,2.94.32,4.68,0,7.86-2.7,9.2-7.8,1.3-4.96,2.13-8.59,1.05-10.26-.32-.49-.78-.8-1.35-.89-.24-.04-.51-.06-.81-.06h0Z" />
      <path class="cls-6"
        d="M105.08,129.74c-.61,0-1.23-.04-1.84-.12-1.2-.16-2.29-.46-3.22-.89-.25-.12-.37-.42-.25-.68.12-.26.42-.37.68-.25.84.39,1.82.66,2.92.81.88.12,1.79.14,2.68.08.28-.01.53.19.55.47.02.28-.19.53-.47.55-.35.03-.7.04-1.05.04Z" />
      <path class="cls-8"
        d="M110.92,125.35c-2.76,2.29-10.25,1.9-11.8-1.46,0,0,.59-5.2,5.46-4.92.33.02.65.07.95.13.31.07.59.17.87.28,3.42,1.42,4.52,5.97,4.52,5.97Z" />
      <path class="cls-6"
        d="M106.4,119.39c-1.8,1.68-2.39,3.2-2.55,4.2-.03.2-.2.34-.4.34-.02,0-.04,0-.06,0-.22-.03-.37-.24-.33-.46.17-1.07.76-2.63,2.48-4.36.31.07.59.17.87.28Z" />
      <path class="cls-6"
        d="M73.16,137.85c-.26,0-.52-.1-.71-.29l-29.63-28.87c-.4-.39-.41-1.04-.02-1.44.39-.4,1.04-.41,1.44-.02l29.25,28.51,46.97-8.48c.55-.1,1.08.27,1.18.82.1.55-.27,1.08-.82,1.18l-47.49,8.57c-.06.01-.12.02-.18.02Z" />
      <path class="cls-6"
        d="M73.5,140.78c-.09,0-.17-.01-.26-.03l-1.85-.48c-.31-.08-.57-.31-.69-.61-.12-.3-.09-.64.08-.92l1.52-2.45c.23-.37.67-.55,1.09-.46.42.1.74.45.79.88l.33,2.93c.04.33-.09.66-.34.88-.19.16-.43.25-.67.25Z" />
      <path class="cls-6"
        d="M61.17,139.58v-.04c-1.14-.02-1.17-.26-1.26-.78-.01-.08-.02-.16-.01-.24-.31-1.5-3.73-11.75-4.09-12.57h.03c-.13-.18-.13-.28-.14-.39-.02-.36.15-.7.45-.9.3-.2.68-.23,1-.08.13.06.22.1.33.24.81.71,9.51,7.6,15.27,12.15.33.26.47.7.34,1.1-.12.4-.48.69-.9.72,0,0-2.8.22-5.6.43-2.78.21-4.37.35-5.31.33-.04.01-.08.03-.12.04ZM60.67,137.6c-.15.04-.28.11-.39.19.11-.09.24-.16.39-.19ZM58.91,128.6c.26.79.58,1.74.95,2.89,1.12,3.39,1.64,5.12,1.89,6.03,1.49-.1,4.72-.35,7.69-.57-5.29-4.18-8.54-6.74-10.54-8.35Z" />
      <path class="cls-6"
        d="M89.74,146.26c-.13,0-.27-.03-.4-.08l-16.41-6.95c-.34-.14-.58-.46-.62-.83-.11-1.01.73-1.1,1.71-1.22l18.01-2.01c.33-.04.66.09.88.35.22.25.3.6.21.93l-2.4,9.05c-.08.29-.27.52-.54.65-.14.07-.29.1-.45.1ZM77.3,138.87l11.76,4.98,1.72-6.48c-3.71.41-9.61,1.07-13.47,1.5Z" />
      <path class="cls-6"
        d="M137.95,105.13c-.35,0-.68-.18-.87-.49-.29-.48-.14-1.11.35-1.4l15.95-9.62c.48-.29,1.11-.14,1.4.35.29.48.14,1.11-.35,1.4l-15.95,9.62c-.16.1-.35.15-.53.15Z" />
      <path class="cls-6"
        d="M161.14,116.99c-.44,0-.85-.29-.98-.73-.16-.54.15-1.11.69-1.27l12.86-3.78c.54-.16,1.11.15,1.27.69.16.54-.15,1.11-.69,1.27l-12.86,3.78c-.1.03-.19.04-.29.04Z" />
      <path class="cls-7"
        d="M33.02,64.62c-.91,0-1.84-.23-2.76-.68l-1.89-.92c-1.28-.63-2.21-1.51-2.79-2.63-1.02-2.03-.86-4.45.49-7.21.53-1.08,1.16-2.01,1.88-2.76.74-.77,1.5-1.33,2.27-1.67.82-.35,1.61-.53,2.36-.53.69,0,1.35.15,1.95.45.34.17.6.46.72.82.12.36.09.74-.07,1.08l-1.74,3.55c-.17.34-.6.92-1.59.95-.18,0-.32.04-.42.1h0s-.13.1-.34.52c-.14.28-.19.52-.15.71.01.06.02.12.21.21l2.49,1.22c.08.04.15.06.2.06.27-.11.42-.3.56-.58.21-.43.21-.6.21-.6-.01-.11-.08-.24-.18-.39-.59-.81-.39-1.5-.22-1.84l1.74-3.55c.16-.33.45-.59.81-.72.15-.05.31-.08.47-.08.21,0,.42.05.61.14,1.28.63,2.15,1.79,2.59,3.45.21.82.23,1.76.08,2.82-.15,1.03-.52,2.14-1.1,3.31-.58,1.19-1.3,2.2-2.15,3.01-.9.87-1.97,1.43-3.18,1.66-.34.06-.68.1-1.02.1Z" />
      <path class="cls-6"
        d="M32.57,49.23c.53,0,1.04.11,1.51.34.1.05.16.12.2.23.03.11.03.21-.02.31l-1.74,3.55c-.12.24-.35.37-.71.38-.35.01-.65.09-.91.24-.25.15-.5.47-.74.95-.24.49-.32.94-.24,1.35.08.41.33.72.76.93l2.49,1.22c.22.11.44.16.65.16.19,0,.38-.05.55-.14.38-.19.68-.53.92-1.02.24-.49.34-.88.3-1.17-.04-.29-.16-.58-.37-.86-.21-.29-.25-.55-.13-.79l1.74-3.55c.05-.1.12-.17.23-.2.05-.02.09-.02.14-.02.06,0,.11.01.17.04,1,.49,1.68,1.42,2.04,2.79.17.68.19,1.49.05,2.41s-.47,1.93-1,3.01c-.53,1.08-1.18,1.99-1.94,2.73-.76.73-1.65,1.2-2.67,1.39-.27.05-.55.08-.83.08-.75,0-1.52-.19-2.31-.58l-1.89-.93c-1.08-.53-1.85-1.25-2.33-2.18-.87-1.73-.71-3.83.5-6.29.49-1,1.05-1.83,1.7-2.51.64-.67,1.29-1.15,1.94-1.44.69-.3,1.34-.45,1.95-.45h0ZM32.57,47.19c-.88,0-1.81.21-2.75.61-.9.39-1.78,1.03-2.61,1.9-.79.83-1.48,1.84-2.06,3.02-1.5,3.06-1.66,5.79-.49,8.11.68,1.33,1.78,2.37,3.25,3.09l1.89.93c1.06.52,2.14.79,3.21.79.41,0,.82-.04,1.22-.12,1.4-.27,2.65-.92,3.7-1.93.93-.9,1.73-2.01,2.36-3.3.62-1.26,1.02-2.48,1.19-3.61.18-1.19.15-2.27-.09-3.21-.64-2.46-2.05-3.6-3.12-4.12-.34-.17-.7-.25-1.06-.25-.28,0-.55.05-.82.14-.04.02-.09.03-.13.05-.01-.04-.02-.09-.04-.13-.21-.64-.66-1.14-1.25-1.43-.73-.36-1.54-.54-2.39-.54h0ZM32.31,56.03c.27-.05.52-.12.76-.23.06.25.15.5.29.74l-1.04-.51h0Z" />
      <path class="cls-7"
        d="M41.41,50.32c-1.24-.05-2.45-.54-3.59-1.46l-1.64-1.32c-1.67-1.34-2.45-2.98-2.33-4.86.11-1.75.87-3.51,2.26-5.24,1.39-1.73,2.95-2.85,4.64-3.33.5-.14,1-.21,1.5-.21,1.29,0,2.54.48,3.72,1.43l1.7,1.36c1.12.9,1.85,1.97,2.16,3.17.31,1.19.25,2.39-.17,3.56-.39,1.09-1.05,2.22-1.95,3.34-.91,1.13-1.87,2.01-2.85,2.62-.99.62-2.07.93-3.2.93h-.24ZM41.07,40.49c-.23.06-.45.28-.6.47-.21.26-.33.5-.33.69,0,.05,0,.12.16.25l2.15,1.73c.06.05.15.11.22.11.29-.07.52-.3.66-.48.15-.18.32-.45.33-.69,0-.06,0-.14-.16-.27l-2.13-1.71c-.09-.07-.17-.11-.23-.11-.02,0-.04,0-.07,0Z" />
      <path class="cls-6"
        d="M42.24,34.91c1.05,0,2.08.4,3.08,1.21l1.7,1.36c.95.77,1.56,1.65,1.82,2.64.26.99.21,1.98-.14,2.96-.35.99-.95,2-1.79,3.05-.84,1.05-1.71,1.84-2.59,2.4-.83.52-1.72.77-2.66.77-.07,0-.14,0-.2,0-1.02-.04-2.02-.45-2.99-1.23l-1.64-1.32c-1.4-1.13-2.05-2.46-1.95-4s.78-3.1,2.04-4.67c1.26-1.57,2.64-2.56,4.12-2.99.41-.12.82-.18,1.22-.18h0ZM42.67,44.76c.1,0,.21-.01.31-.04.41-.1.79-.38,1.15-.82.36-.45.54-.88.55-1.31,0-.42-.17-.78-.54-1.08l-2.13-1.71c-.28-.22-.57-.33-.87-.33-.1,0-.2.01-.3.04-.41.1-.8.37-1.16.82-.36.45-.55.88-.56,1.3s.17.78.53,1.08l2.16,1.73c.27.22.56.33.85.33h0ZM42.24,32.88h0c-.59,0-1.19.09-1.78.25-1.89.54-3.63,1.77-5.15,3.67-1.53,1.9-2.36,3.85-2.48,5.82-.1,1.54.3,3.78,2.71,5.72l1.64,1.32c1.32,1.06,2.73,1.63,4.19,1.68.09,0,.19,0,.28,0,1.33,0,2.59-.36,3.74-1.08,1.08-.67,2.12-1.63,3.1-2.85.98-1.22,1.69-2.44,2.12-3.64.49-1.37.55-2.77.19-4.16-.37-1.42-1.21-2.67-2.51-3.71l-1.69-1.36c-1.37-1.1-2.83-1.66-4.36-1.66h0Z" />
      <path class="cls-7"
        d="M53.31,39.53c-.4-.05-.76-.24-1.01-.56l-7.36-9.25c-.25-.31-.36-.7-.32-1.11.05-.41.25-.77.56-1.02l9.1-7.24c.27-.21.59-.33.93-.33.04,0,.14,0,.18.01.41.05.76.24,1.01.56l1.73,2.17c.26.33.36.71.32,1.12-.04.35-.19.65-.43.89.2.1.38.24.53.42l1.72,2.16c.25.31.36.7.32,1.11-.05.41-.25.77-.56,1.02l-3.9,3.1,1.62,2.04c.25.32.36.72.32,1.12-.04.4-.24.76-.56,1.01l-3.09,2.46c-.27.21-.59.33-.93.33-.04,0-.14,0-.18-.01Z" />
      <path class="cls-6"
        d="M55.22,21.04s.04,0,.06,0c.14.02.25.08.33.18l1.73,2.18c.08.11.12.23.1.36-.02.14-.08.25-.18.33l-5.63,4.48.73.92,4.7-3.74c.09-.07.19-.11.3-.11.02,0,.04,0,.06,0,.14.02.25.08.33.18l1.72,2.16c.08.1.12.23.1.36-.02.14-.08.25-.18.33l-4.7,3.74,2.26,2.83c.08.1.12.23.1.36-.02.14-.08.25-.18.33l-3.09,2.46c-.09.07-.19.11-.3.11-.02,0-.04,0-.06,0-.14-.02-.25-.08-.33-.18l-7.36-9.25c-.08-.1-.12-.23-.1-.36.02-.14.08-.25.18-.33l9.11-7.24c.09-.07.19-.11.3-.11h0ZM55.22,19c-.57,0-1.11.19-1.56.54l-9.11,7.25c-.53.42-.86,1.02-.94,1.69-.08.69.12,1.35.54,1.87l7.35,9.24c.42.53,1.02.86,1.69.94.1.01.2.02.3.02.57,0,1.12-.19,1.57-.55l3.09-2.46c.53-.42.86-1.02.94-1.7.08-.66-.11-1.32-.53-1.85l-.99-1.24,3.1-2.47c.53-.42.86-1.02.94-1.69.08-.69-.12-1.35-.54-1.87l-1.71-2.15s0,0,0-.01c.06-.18.1-.36.13-.55.08-.67-.11-1.33-.53-1.86l-1.74-2.18c-.43-.53-1.02-.86-1.69-.94-.1-.01-.2-.02-.3-.02h0Z" />
      <path class="cls-7"
        d="M66.27,30.08c-.17,0-.35-.03-.51-.09-.37-.13-.68-.4-.85-.76l-5.14-10.65c-.17-.36-.2-.77-.06-1.15.13-.39.41-.69.77-.87l10.48-5.06c.2-.1.42-.15.65-.15.17,0,.34.03.51.09.38.13.69.41.86.77l1.21,2.5c.18.37.2.77.06,1.15-.11.33-.33.6-.62.78.17.14.32.32.42.52l1.2,2.49c.17.36.2.77.07,1.15-.14.39-.4.69-.77.86l-4.49,2.17,1.13,2.34c.17.36.2.77.06,1.15-.13.39-.41.69-.77.87l-3.56,1.72c-.21.1-.43.15-.65.15Z" />
      <path class="cls-6"
        d="M71.59,12.37c.06,0,.11.01.17.03.13.05.22.13.28.25l1.21,2.5c.06.12.06.25.02.38-.05.13-.13.22-.25.28l-6.47,3.13.51,1.05,5.4-2.61c.07-.03.14-.05.21-.05.06,0,.11,0,.17.03.13.05.22.13.28.25l1.2,2.49c.06.12.07.25.02.38-.05.13-.13.22-.25.28l-5.4,2.61,1.58,3.26c.06.12.06.25.02.38-.05.13-.13.22-.25.28l-3.56,1.72c-.07.03-.14.05-.21.05-.06,0-.11,0-.17-.03-.13-.05-.22-.13-.28-.25l-5.14-10.64c-.06-.12-.06-.25-.02-.38.05-.13.13-.22.25-.28l10.48-5.06c.07-.03.14-.05.21-.05h0ZM71.59,10.33h0c-.38,0-.75.09-1.1.26l-10.47,5.06c-.61.29-1.06.81-1.29,1.45-.22.64-.18,1.32.11,1.93l5.14,10.65c.3.61.81,1.07,1.45,1.29.26.09.55.14.83.14.38,0,.75-.08,1.09-.25l3.56-1.72c.61-.29,1.07-.81,1.29-1.45.22-.64.18-1.32-.1-1.92l-.69-1.43,3.57-1.72c.61-.3,1.06-.81,1.29-1.44.23-.65.19-1.34-.11-1.94l-1.2-2.48h0c.1-.17.18-.35.25-.53.22-.64.18-1.32-.1-1.92l-1.21-2.51c-.29-.61-.81-1.06-1.45-1.29-.27-.09-.55-.14-.84-.14h0Z" />
      <path class="cls-7"
        d="M80.62,23.72c-.28,0-.56-.08-.8-.24-.34-.21-.58-.54-.67-.94l-2.65-11.52c-.09-.39-.02-.8.19-1.14.22-.34.55-.58.94-.67l11.09-2.55c.11-.03.23-.04.34-.04.28,0,.55.08.8.23.35.22.59.55.68.94l.58,2.51c.09.39.02.8-.19,1.14-.16.25-.36.43-.61.56.15.18.25.39.3.62l.53,2.31c.05.22.05.44,0,.65.05,0,.11,0,.16,0,.28,0,.56.08.8.23.34.21.58.55.67.94l.58,2.51c.09.39.02.8-.2,1.14-.21.34-.54.58-.93.67l-11.27,2.59c-.11.03-.23.04-.34.04Z" />
      <path class="cls-6"
        d="M89.07,7.64c.09,0,.18.03.26.08.12.07.19.18.22.31l.58,2.51c.03.13,0,.25-.06.37-.07.12-.18.19-.31.22l-6.94,1.6.26,1.12,5.96-1.37s.08-.01.11-.01c.09,0,.18.03.26.08.12.07.19.18.22.31l.53,2.32c.03.13,0,.25-.07.37-.07.12-.17.19-.31.22l-5.96,1.37.26,1.12,7.11-1.64s.07-.01.11-.01c.09,0,.18.03.26.08.12.07.19.17.22.31l.58,2.51c.03.13,0,.25-.07.37-.07.12-.17.19-.31.22l-11.27,2.59s-.08.01-.11.01c-.09,0-.18-.03-.26-.08-.12-.07-.19-.17-.22-.31l-2.65-11.52c-.03-.13,0-.25.07-.37.07-.12.17-.19.31-.22l11.09-2.55s.08-.01.11-.01h0ZM89.07,5.61c-.19,0-.38.02-.57.07l-11.09,2.55c-.66.15-1.22.55-1.58,1.13-.36.57-.48,1.25-.32,1.91l2.65,11.52c.15.66.55,1.22,1.13,1.58.4.25.87.39,1.34.39.19,0,.38-.02.57-.07l11.27-2.59c.66-.15,1.22-.55,1.58-1.13.36-.57.47-1.25.32-1.91l-.58-2.51c-.15-.66-.55-1.22-1.13-1.58-.16-.1-.34-.18-.51-.25l-.53-2.31s-.02-.08-.03-.12c.07-.09.14-.18.21-.28.36-.58.48-1.26.32-1.91l-.58-2.51c-.15-.65-.55-1.21-1.12-1.57-.41-.26-.88-.39-1.35-.39h0Z" />
      <path class="cls-7"
        d="M96.21,20.73c-.4,0-.77-.15-1.05-.43-.29-.28-.45-.65-.46-1.05l-.19-11.82c0-.4.14-.78.43-1.07.29-.3.65-.45,1.06-.46l11.39-.18c.42,0,.79.15,1.07.43.29.29.46.66.46,1.06l.04,2.58c0,.4-.14.78-.43,1.07-.2.21-.45.35-.71.42.11.21.16.43.17.67l.04,2.37c0,.22-.04.44-.13.64.34.04.64.18.89.41.3.29.46.66.47,1.06l.04,2.58c0,.4-.14.78-.42,1.07-.29.3-.66.46-1.07.47,0,0-11.58.19-11.58.19Z" />
      <path class="cls-6"
        d="M107.4,6.72c.13,0,.24.05.34.14.1.1.15.21.15.35l.04,2.58c0,.13-.05.25-.14.35-.1.1-.21.15-.35.15l-7.12.12.02,1.15,6.11-.1s0,0,0,0c.13,0,.24.05.34.14.1.1.15.21.15.35l.04,2.38c0,.13-.04.25-.14.35-.1.1-.21.15-.35.15l-6.11.1.02,1.15,7.3-.12s0,0,0,0c.13,0,.24.05.34.14.1.1.15.21.15.35l.04,2.58c0,.13-.05.25-.14.35-.1.1-.21.15-.35.15l-11.56.19s0,0,0,0c-.13,0-.24-.05-.34-.14-.1-.1-.15-.21-.15-.35l-.19-11.82c0-.13.04-.25.14-.35.1-.1.21-.15.35-.15l11.38-.18s0,0,0,0h0ZM107.4,4.68s-.04,0-.05,0l-11.37.18c-.68.01-1.31.29-1.78.77-.47.49-.73,1.13-.71,1.8l.19,11.81c.01.68.29,1.31.77,1.78.47.46,1.1.71,1.76.71l11.6-.19c.67-.01,1.3-.28,1.77-.77.48-.5.73-1.14.72-1.81l-.04-2.58c-.01-.67-.28-1.3-.77-1.77-.14-.14-.29-.25-.46-.35l-.04-2.37s0-.08,0-.12c.09-.07.18-.15.26-.23.48-.5.73-1.14.72-1.81l-.04-2.58c-.01-.67-.28-1.3-.77-1.77-.48-.47-1.11-.72-1.76-.72h0Z" />
      <path class="cls-7"
        d="M131.47,26.57c-.17,0-.33-.03-.49-.08l-3.13-1.07c-.38-.13-.69-.4-.87-.77-.18-.36-.2-.77-.07-1.15l.61-1.79c-.06.02-.12.03-.18.04-.12.02-.24.03-.35.03-.21,0-.42-.03-.61-.1l-1.17-.4c-.39-.13-.7-.36-.92-.67l-.61,1.8c-.13.39-.4.68-.76.86-.22.11-.45.16-.67.16-.16,0-.33-.03-.48-.08l-3.14-1.07c-.38-.13-.69-.4-.87-.77-.18-.36-.21-.76-.07-1.15l3.82-11.18c.13-.38.4-.69.77-.87.21-.1.44-.16.67-.16.16,0,.33.03.48.08l3.17,1.08c.68.23,1.13.77,1.26,1.5l.53,3.1,2.31-2.12c.49-.44.98-.53,1.3-.53.21,0,.41.04.62.11l3.17,1.08c.38.13.69.4.87.77.18.37.21.78.08,1.16l-3.82,11.18c-.13.38-.4.69-.77.87-.21.1-.44.16-.67.16Z" />
      <path class="cls-6"
        d="M122.93,9.15c.05,0,.1,0,.16.03l3.17,1.08c.32.11.52.35.59.72l.85,4.93,3.69-3.38c.2-.18.4-.26.62-.26.09,0,.19.02.29.05l3.17,1.08c.13.04.22.13.28.25.06.12.07.25.03.38l-3.82,11.18c-.04.13-.13.22-.25.28-.07.04-.15.05-.22.05-.05,0-.11,0-.16-.03l-3.13-1.07c-.13-.04-.22-.13-.28-.25-.06-.12-.07-.25-.03-.38l1.83-5.37-2.12,2.06c-.12.11-.26.19-.42.21-.06.01-.12.02-.18.02-.1,0-.19-.01-.28-.04l-1.18-.4c-.2-.07-.34-.17-.43-.32-.09-.15-.14-.27-.15-.36l-.41-2.92-1.83,5.37c-.04.13-.13.22-.25.28-.07.04-.15.05-.22.05-.05,0-.1,0-.16-.03l-3.13-1.07c-.13-.04-.22-.13-.28-.25-.06-.12-.07-.25-.03-.38l3.82-11.19c.04-.13.13-.22.25-.28.07-.04.15-.05.22-.05h0ZM122.93,7.11c-.39,0-.76.09-1.11.26-.61.3-1.07.82-1.29,1.45l-3.82,11.19c-.22.64-.17,1.33.13,1.94.29.6.81,1.06,1.46,1.28l3.13,1.07c.27.09.54.14.82.14.38,0,.76-.09,1.11-.26.61-.3,1.07-.82,1.29-1.45l.18-.52s.04.01.06.02l1.18.4s.04.01.06.02l-.18.51c-.22.64-.17,1.33.13,1.94.29.6.81,1.06,1.46,1.28l3.13,1.07c.27.09.54.14.82.14.39,0,.76-.09,1.12-.26.61-.3,1.06-.81,1.28-1.45l3.82-11.19c.22-.63.17-1.32-.12-1.93-.31-.62-.82-1.07-1.46-1.29l-3.16-1.08c-.31-.11-.63-.16-.95-.16-.72,0-1.41.27-1.98.79l-.95.87-.22-1.25c-.2-1.12-.91-1.95-1.94-2.3l-3.17-1.08c-.27-.09-.54-.14-.82-.14h0Z" />
      <path class="cls-7"
        d="M145.55,34.89c-.26,0-.52-.07-.74-.21l-2.94-1.81c-.7-.43-1-1.17-.84-2.02l.14-.65-2.58-1.59-.5.4c-.4.31-.81.45-1.23.45-.34,0-.67-.1-.97-.28l-2.94-1.81c-.32-.2-.55-.51-.64-.88-.11-.48.02-.82.14-1.03.1-.16.2-.28.31-.38l9.54-7.87c.4-.38.87-.47,1.18-.47.34,0,.69.1,1.02.31l4.33,2.67c.77.47,1.08,1.26.83,2.1l-2.72,11.98c-.04.16-.1.31-.2.47-.12.2-.37.47-.85.58-.08.02-.26.04-.33.04Z" />
      <path class="cls-6"
        d="M143.49,17.77c.15,0,.31.05.48.15l4.33,2.67c.37.23.5.55.38.95l-2.74,12.04s-.03.09-.07.15c-.04.06-.11.11-.22.13-.03,0-.07.01-.1.01-.07,0-.14-.02-.21-.06l-2.94-1.81c-.33-.2-.46-.53-.37-.96l.28-1.33-3.8-2.34-1.06.85c-.2.15-.4.23-.59.23-.15,0-.29-.04-.44-.13l-2.94-1.81c-.09-.06-.15-.14-.18-.25-.03-.11-.02-.19.02-.26.04-.06.07-.11.1-.13l9.53-7.86c.17-.16.35-.24.54-.24h0ZM144.28,22.26l-3.1,2.56,2.21,1.36.89-3.92h0ZM143.49,15.73c-.69,0-1.33.25-1.87.73l-9.49,7.83c-.22.18-.39.39-.55.65-.31.51-.41,1.15-.26,1.78.16.65.55,1.19,1.1,1.53l2.94,1.81c.46.28.98.44,1.51.44.44,0,1.11-.11,1.8-.63l1.36.84c-.22,1.28.27,2.4,1.31,3.04l2.94,1.82c.39.24.83.36,1.28.36.19,0,.37-.02.56-.06.65-.16,1.18-.53,1.5-1.06.14-.22.24-.46.31-.71l2.74-12.04c.34-1.26-.15-2.48-1.29-3.18l-4.33-2.67c-.49-.3-1.01-.46-1.55-.46h0Z" />
      <path class="cls-7"
        d="M156.21,44.98c-.4,0-.77-.15-1.06-.43l-2.11-2.06c-.43-.42-.63-1.01-.55-1.64l.38-3.48-1.41,1.45c-.28.29-.66.45-1.06.45h0c-.42,0-.79-.15-1.07-.43l-2.44-2.38c-.29-.29-.45-.67-.45-1.07,0-.4.15-.78.43-1.07l8.26-8.45c.28-.29.65-.45,1.06-.45h0c.42,0,.79.15,1.08.43l2.12,2.07c.44.43.63,1,.55,1.62l-.54,3.63,1.56-1.6c.28-.29.66-.45,1.06-.45h0c.42,0,.79.15,1.08.43l2.43,2.38c.29.29.45.65.45,1.06,0,.42-.15.79-.43,1.08l-8.26,8.45c-.28.29-.66.45-1.06.45h-.02Z" />
      <path class="cls-6"
        d="M156.21,26.44c.13,0,.25.05.34.14l2.12,2.07c.21.2.29.46.25.76l-1,6.73,3.76-3.85c.09-.1.21-.14.35-.15h0c.14,0,.25.05.34.14l2.43,2.38c.1.09.14.21.15.35,0,.14-.04.25-.14.35l-8.26,8.45c-.09.1-.21.15-.35.15h0c-.14,0-.25-.05-.34-.14l-2.11-2.06c-.21-.2-.29-.47-.26-.79l.7-6.43-3.48,3.56c-.09.1-.21.14-.35.15h0c-.14,0-.25-.05-.34-.14l-2.43-2.38c-.1-.09-.15-.21-.15-.35,0-.14.04-.25.14-.35l8.26-8.45c.09-.1.21-.15.35-.15h0ZM156.21,24.41s-.02,0-.03,0c-.67,0-1.31.28-1.78.76l-8.26,8.45c-.47.48-.73,1.13-.72,1.81,0,.66.27,1.3.76,1.77l2.43,2.38c.48.46,1.1.72,1.77.72.43,0,.83-.11,1.19-.29l-.08.75c-.11.93.19,1.81.86,2.47l2.11,2.06c.47.46,1.1.72,1.77.72.71,0,1.34-.28,1.81-.76l8.26-8.45c.47-.48.72-1.11.72-1.79-.01-.7-.28-1.33-.76-1.8l-2.43-2.38c-.48-.46-1.1-.72-1.77-.72-.44,0-.84.11-1.2.3l.1-.7c.13-.98-.17-1.86-.85-2.52l-2.12-2.07c-.48-.46-1.1-.72-1.77-.72h0Z" />
      <path class="cls-7"
        d="M21.47,86.73c-.21,0-.42-.07-.6-.2-.31-.23-.47-.61-.41-1l.79-4.62-3.36-3.28c-.28-.27-.38-.68-.26-1.04.12-.37.44-.64.82-.69l4.64-.67,2.08-4.21c.17-.35.53-.57.91-.57s.74.22.91.57l2.08,4.21,4.64.67c.38.06.7.32.82.69.12.37.02.77-.26,1.04l-3.36,3.28.79,4.62c.07.38-.09.77-.41,1-.18.13-.39.2-.6.2-.16,0-.33-.04-.47-.12l-4.15-2.18-4.15,2.18c-.15.08-.31.12-.47.12Z" />
      <path class="cls-6"
        d="M26.1,71.47l2.31,4.69,5.17.75-3.74,3.65.88,5.15-4.63-2.43-4.63,2.43.88-5.15-3.74-3.65,5.17-.75,2.31-4.69h0ZM26.1,69.43c-.78,0-1.48.44-1.83,1.14l-1.84,3.73-4.11.6c-.77.11-1.41.65-1.65,1.39-.24.74-.04,1.55.52,2.09l2.98,2.9-.7,4.1c-.13.76.18,1.54.81,1.99.36.26.78.39,1.2.39.32,0,.65-.08.95-.23l3.68-1.93,3.68,1.93c.3.16.62.23.95.23.42,0,.84-.13,1.2-.39.63-.46.94-1.23.81-1.99l-.7-4.1,2.98-2.9c.56-.54.76-1.35.52-2.09s-.88-1.28-1.65-1.39l-4.11-.6-1.84-3.73c-.34-.7-1.05-1.14-1.83-1.14h0Z" />
      <path class="cls-7"
        d="M175.84,63.41c-.16,0-.32-.04-.47-.12l-4.15-2.18-4.15,2.18c-.15.08-.31.12-.47.12-.21,0-.42-.07-.6-.2-.31-.23-.47-.61-.41-1l.79-4.63-3.36-3.27c-.28-.27-.38-.68-.26-1.04.12-.37.44-.64.82-.69l4.64-.67,2.08-4.21c.17-.35.53-.57.91-.57s.74.22.91.57l2.08,4.21,4.64.67c.38.06.7.32.82.69.12.37.02.77-.26,1.04l-3.36,3.28.79,4.62c.07.38-.09.77-.41,1-.18.13-.39.2-.6.2Z" />
      <path class="cls-6"
        d="M171.21,48.15l2.31,4.69,5.17.75-3.74,3.65.88,5.15-4.63-2.43-4.63,2.43.88-5.15-3.74-3.65,5.17-.75,2.31-4.69h0ZM171.21,46.11c-.78,0-1.48.44-1.83,1.14l-1.84,3.73-4.11.6c-.77.11-1.41.65-1.65,1.39-.24.74-.04,1.55.52,2.09l2.98,2.9-.7,4.1c-.13.76.18,1.54.81,1.99.36.26.78.39,1.2.39.32,0,.65-.08.95-.23l3.68-1.93,3.68,1.93c.3.16.62.23.95.23.42,0,.84-.13,1.2-.39.63-.46.94-1.23.81-1.99l-.7-4.1,2.98-2.9c.56-.54.76-1.35.52-2.09-.24-.74-.88-1.28-1.65-1.39l-4.11-.6-1.84-3.73c-.34-.7-1.05-1.14-1.83-1.14h0Z" />
    </g>
  </g>
</svg>