<?xml version="1.0" encoding="UTF-8"?>
<svg id="Capa_2" xmlns="http://www.w3.org/2000/svg" viewBox="0 0 156.68 221.04">
  <defs>
    <style>
      .cls-1 {
        fill: #ffa340;
      }

      .cls-2 {
        fill: #00ffdb;
      }

      .cls-3 {
        fill: #7a00ba;
      }

      .cls-4 {
        fill: #fff;
      }

      .cls-5 {
        fill: #fffde6;
      }

      .cls-6 {
        fill: #fe0;
      }

      .cls-7 {
        fill: #ff387f;
      }
    </style>
  </defs>
  <g id="layer_1">
    <rect class="cls-4" x="0" y="0" width="156.68" height="221.04" rx="75.66" ry="75.66" />
    <rect class="cls-1" x="5.75" y="5.75" width="145.18" height="209.54" rx="69.91" ry="69.91" />
    <path class="cls-3"
      d="M81.02,216.8h-5.37c-39.38,0-71.41-32.04-71.41-71.41v-69.73C4.24,36.28,36.28,4.24,75.66,4.24h5.37c39.38,0,71.41,32.04,71.41,71.41v69.73c0,39.38-32.04,71.41-71.41,71.41ZM75.66,7.26C37.94,7.26,7.26,37.94,7.26,75.66v69.73c0,37.71,30.68,68.4,68.4,68.4h5.37c37.71,0,68.4-30.68,68.4-68.4v-69.73c0-37.72-30.68-68.4-68.4-68.4h-5.37Z" />
    <path class="cls-3"
      d="M28.2,104.5c-1.13,0-2.11-.62-2.63-1.53h-1.2c-.52.91-1.5,1.53-2.63,1.53h-3.28c-1.67,0-3.02-1.35-3.02-3.02v-8.31c0-.12,0-.23.02-.35-.01-.11-.02-.23-.02-.35v-8.3c0-1.67,1.35-3.02,3.02-3.02h3.28c1.12,0,2.1.61,2.62,1.52h1.22c.52-.91,1.5-1.52,2.62-1.52h3.28c1.67,0,3.02,1.35,3.02,3.02v8.3c0,.12,0,.23-.02.35.01.11.02.23.02.35v8.31c0,1.66-1.35,3.02-3.02,3.02h-3.28Z" />
    <path class="cls-3"
      d="M28.2,86.64c-1.41,0-2.6-.98-2.93-2.29l-1.97-.85c-.45.28-.99.44-1.56.44h-3.28c-1.67,0-3.02-1.35-3.02-3.02v-9.61c0-1.67,1.35-3.02,3.02-3.02h3.28c.57,0,1.1.16,1.55.43l1.98-.85c.33-1.31,1.51-2.28,2.93-2.28h3.28c1.67,0,3.02,1.35,3.02,3.02v8.49c0,.12,0,.23-.02.35.01.11.02.23.02.35v5.82c0,1.66-1.35,3.02-3.02,3.02h-3.28Z" />
    <path class="cls-3"
      d="M21.61,69.46c-.27,0-.53-.04-.79-.11l-3.15-.89c-1.6-.45-2.54-2.12-2.09-3.72l2.2-7.81c.04-.14.09-.29.15-.42.02-.15.05-.29.09-.43l1.47-5.23c.22-.77.73-1.42,1.43-1.81.45-.26.96-.39,1.48-.39.27,0,.55.04.82.11l3.15.89c1.28.36,2.13,1.49,2.2,2.75l6.83,5.37c.96.75,1.37,2.01,1.04,3.19l-1.12,3.99c-.33,1.18-1.34,2.04-2.55,2.18l-8.64,1.01c-.26.37-.6.69-1,.91-.46.26-.98.4-1.49.4Z" />
    <path class="cls-3"
      d="M34.8,58.7c-.6,0-1.19-.18-1.7-.52l-2.71-1.84c-.93-.63-1.4-1.7-1.31-2.74l-1-.68c-.24.12-.5.21-.77.26-.19.04-.38.05-.57.05-.6,0-1.19-.18-1.7-.52l-2.71-1.84c-.66-.45-1.12-1.14-1.27-1.93-.15-.79.02-1.6.47-2.26l7.49-11.01c.45-.66,1.14-1.12,1.93-1.27.19-.04.38-.05.56-.05.6,0,1.19.18,1.7.52l3.98,2.71c.5.34.88.82,1.11,1.38.58,0,1.17.17,1.69.52l3.98,2.71c.66.45,1.12,1.14,1.27,1.93.15.79-.02,1.6-.47,2.26l-7.49,11.01c-.45.66-1.14,1.12-1.93,1.27-.19.04-.38.05-.56.05Z" />
    <path class="cls-3"
      d="M45.99,44.03c-1.02,0-2.01-.51-2.57-1.44l-1.71-2.79c-.74-1.21-.53-2.73.43-3.69l-.31-2.12c-.48-.25-.9-.63-1.19-1.1l-1.71-2.79c-.42-.68-.55-1.5-.36-2.28.19-.78.68-1.45,1.36-1.87l8.19-5.01c.49-.3,1.04-.44,1.57-.44,1.01,0,2.01.51,2.57,1.44l1.71,2.79c.29.47.44,1.01.44,1.55l1.76,1.24c.29-.09.6-.14.9-.14.24,0,.47.03.71.08.78.19,1.45.68,1.87,1.36l1.71,2.79c.87,1.42.42,3.28-1,4.15l-7.24,4.43c-.1.06-.2.12-.31.16-.09.07-.18.14-.28.2l-4.97,3.04c-.49.3-1.04.44-1.57.44Z" />
    <path class="cls-3"
      d="M63.71,34.35c-.67,0-1.32-.22-1.85-.63-.63-.49-1.04-1.21-1.14-2.01l-.41-3.25c-.14-1.12.35-2.17,1.19-2.8l-.15-1.2c-.97-.4-1.71-1.29-1.85-2.41l-.41-3.25c-.1-.79.12-1.59.61-2.23.49-.63,1.21-1.04,2.01-1.14l7.29-.92c.13-.02.25-.02.38-.02.47,0,.93.11,1.34.31.43-.37.98-.63,1.59-.71l6-.76c.13-.02.26-.02.38-.02,1.5,0,2.79,1.11,2.99,2.64l.41,3.25c.13,1.04-.28,2.02-1.01,2.65l.91,7.17c.21,1.65-.96,3.16-2.61,3.37l-5.57.71c-.13.02-.25.02-.38.02-.47,0-.93-.11-1.34-.32-.45.39-1,.64-1.6.71l-6.38.81c-.13.02-.25.02-.38.02Z" />
    <path class="cls-3"
      d="M88.7,33.78c-.12,0-.24,0-.36-.02l-8.51-1.02c-.79-.09-1.52-.5-2.01-1.13-.49-.63-.72-1.43-.62-2.22l.39-3.25c.13-1.12.86-2.02,1.83-2.42l.14-1.2c-.85-.62-1.34-1.67-1.21-2.79l.39-3.25c.18-1.53,1.48-2.66,2.99-2.66.12,0,.24,0,.36.02l8.51,1.02c.79.1,1.52.5,2.01,1.13.49.63.72,1.43.62,2.22l-.39,3.25c-.13,1.11-.86,2.01-1.82,2.42l-.14,1.21c.84.62,1.33,1.67,1.2,2.78l-.39,3.25c-.1.79-.5,1.52-1.13,2.01-.53.42-1.19.64-1.86.64Z" />
    <path class="cls-3"
      d="M98.68,36.99c-1.21,0-2.53-.26-3.91-.77-1.21-.44-2.32-1.03-3.3-1.75-1.08-.79-1.96-1.75-2.61-2.86-.67-1.15-1.07-2.45-1.17-3.86-.1-1.37.14-2.85.7-4.39.57-1.55,1.35-2.83,2.32-3.82.98-1,2.09-1.73,3.31-2.18,1.03-.38,2.12-.58,3.23-.58.16,0,.32,0,.48.01,1.17.06,2.34.3,3.46.71.56.21,1.09.45,1.55.72.36.21.69.43.99.65.2.03.41.08.61.15l2.9,1.06c1.56.57,2.37,2.3,1.8,3.87l-1.65,4.52c-.15.42-.4.79-.71,1.1.18.62.16,1.28-.06,1.89-.38,1.04-.93,1.98-1.62,2.79-.76.89-1.7,1.58-2.79,2.05-1.04.45-2.21.67-3.47.67h-.04Z" />
    <path class="cls-3"
      d="M113.05,46.36c-.64,0-1.27-.2-1.79-.59l-10.71-7.91c-.64-.47-1.07-1.19-1.19-1.98-.12-.79.08-1.6.56-2.24l1.95-2.64c.59-.8,1.5-1.22,2.43-1.22.12,0,.24,0,.37.02l.72-.97c-.43-.96-.34-2.12.33-3.02l1.95-2.64c.48-.64,1.19-1.07,1.98-1.19.15-.02.3-.03.45-.03.64,0,1.27.2,1.79.59l10.71,7.91c1.34.99,1.62,2.88.63,4.22l-2.86,3.87c-.37.5-.87.86-1.42,1.05-.02.6-.23,1.18-.59,1.67l-2.86,3.87c-.48.64-1.19,1.07-1.98,1.19-.15.02-.3.03-.45.03Z" />
    <path class="cls-3"
      d="M127.16,63.04c-1.28,0-2.49-.27-3.59-.8-1.12-.54-2.13-1.32-3.01-2.32-.77-.88-1.45-1.89-2.02-3l-4.33-8.48c-.76-1.48-.17-3.29,1.31-4.05l2.92-1.5c.44-.23.91-.33,1.37-.33.59,0,1.17.17,1.66.5l1.07-.55c.04-1.05.63-2.05,1.64-2.56l2.91-1.5c.44-.23.91-.33,1.37-.33,1.1,0,2.15.6,2.69,1.64l4.53,8.82c.53,1.03.91,2.1,1.15,3.2.27,1.23.29,2.47.06,3.68-.24,1.27-.79,2.48-1.64,3.58-.83,1.09-2.01,2.02-3.49,2.78-1.48.76-2.91,1.17-4.27,1.21h-.33Z" />
    <path class="cls-3"
      d="M125.71,79.84c-1.55,0-2.86-1.18-3-2.75l-.75-8.46c-.01-.12-.01-.23-.01-.35-.02-.11-.04-.22-.05-.34l-.51-5.8c-.07-.8.18-1.59.69-2.2s1.25-1,2.05-1.07l3.27-.29c.09,0,.18-.01.26-.01.71,0,1.39.25,1.94.71.42.35.73.82.91,1.33l2.03.67c.44-.32.96-.52,1.52-.57l3.26-.29c.09,0,.18-.01.27-.01,1.55,0,2.86,1.18,3,2.75l.85,9.57c.15,1.66-1.08,3.12-2.74,3.27l-3.26.29c-.09,0-.18.01-.27.01-.46,0-.91-.11-1.32-.3l-1.89,1.02c-.09.54-.31,1.04-.67,1.46-.51.61-1.25,1-2.05,1.07l-3.27.29c-.09,0-.18.01-.27.01Z" />
    <path class="cls-3"
      d="M134.94,94.28c-1.47,0-2.69-1.05-2.96-2.45l-1.44-1.24c-.54.51-1.26.82-2.06.82h-3.28c-1.66,0-3.01-1.35-3.01-3.02v-8.57c0-1.67,1.35-3.02,3.01-3.02h3.28c.8,0,1.52.31,2.06.81l1.33-1.15s.09-.09.14-.14c.31-1.35,1.51-2.42,2.94-2.42h3.28c1.67,0,3.02,1.35,3.02,3.02v8.21c0,.08,0,.17-.01.25,0,.08.01.16.01.25v5.63c0,1.67-1.35,3.02-3.02,3.02h-3.28Z" />
    <path class="cls-3"
      d="M136.34,100.39c-.19,0-.41,0-.65-.03-.27-.02-.5-.06-.7-.11l-4.83-.89c-.3.22-.62.41-.96.57-.67.31-1.39.47-2.13.47s-1.48-.16-2.16-.48c-.61-.29-1.16-.68-1.62-1.17-.45-.48-.82-1.05-1.08-1.68-.27-.66-.41-1.35-.41-2.06s.14-1.43.41-2.09c.26-.63.63-1.19,1.09-1.67.46-.48,1-.86,1.6-1.15.67-.32,1.4-.48,2.16-.48s1.46.16,2.13.47c.35.16.68.36.99.59l4.86-.93c.1-.03.35-.07.62-.09.23-.02.45-.03.67-.03.74,0,1.46.16,2.13.47.61.28,1.16.67,1.62,1.15.47.49.83,1.06,1.1,1.7.27.65.4,1.34.4,2.06s-.13,1.39-.39,2.04c-.26.64-.62,1.22-1.08,1.7-.47.49-1.02.89-1.65,1.18-.67.31-1.39.47-2.13.47Z" />
    <path class="cls-6"
      d="M25.67,91.22v3.21h1.64c.31,0,.54-.09.68-.28.14-.18.21-.51.21-.99h3.28v8.31h-3.28c0-.55-.07-.94-.21-1.18s-.4-.35-.78-.35h-4.47c-.39,0-.65.12-.79.35s-.21.63-.21,1.18h-3.28v-8.31h3.28c0,.47.07.8.21.99.14.18.37.28.68.28h1.42v-3.21h-1.42c-.32,0-.55.09-.68.28-.14.19-.21.51-.21.98h-3.28v-8.3h3.28c0,.55.07.94.21,1.17.14.23.4.35.79.35h4.47c.38,0,.64-.12.78-.35.14-.23.21-.62.21-1.17h3.28v8.3h-3.28c0-.47-.07-.79-.21-.98-.14-.19-.36-.28-.68-.28h-1.64Z" />
    <path class="cls-6"
      d="M26.93,75.99v2.95l.38.13c.25.1.46.09.63-.02.17-.11.25-.35.25-.71v-.53h3.28v5.82h-3.28v-.38c0-.45-.08-.75-.25-.9-.17-.15-.41-.3-.74-.44l-4.47-1.92c-.34-.14-.59-.16-.76-.07s-.24.36-.24.82v.2h-3.28v-9.61h3.28v.19c0,.46.09.74.26.83.17.09.42.06.74-.08l4.47-1.92c.16-.07.31-.14.43-.2.12-.06.22-.13.31-.22.09-.09.15-.2.19-.35.04-.15.06-.33.06-.57v-.38h3.28v8.49h-3.28v-.51c0-.36-.08-.59-.25-.71-.17-.12-.38-.13-.63-.03l-.38.13ZM25.56,78.46v-1.99l-2.71.93v.08l2.71.98Z" />
    <path class="cls-6"
      d="M23,65.24c-.2.02-.36.05-.49.08-.13.03-.26.09-.37.17-.11.08-.21.2-.29.35-.08.15-.15.35-.23.61l-3.15-.89,2.19-7.81,3.15.89c-.25.89-.06,1.32.57,1.27l4.52-.23.02-.08-3.72-2.59c-.51-.37-.9-.11-1.15.78l-3.15-.89,1.47-5.23,3.15.89c-.07.26-.11.47-.13.64-.01.17.01.32.06.45.05.13.13.24.23.33.1.09.23.2.38.33l7.43,5.85-1.12,3.99-9.38,1.1Z" />
    <path class="cls-6"
      d="M37,46.63c.14-.21.25-.4.31-.56.06-.17.07-.32.04-.47-.04-.15-.13-.3-.27-.44-.14-.14-.34-.3-.6-.48l1.84-2.7,3.98,2.71-7.49,11.01-2.71-1.84c.31-.45.47-.82.49-1.09.02-.27-.13-.52-.45-.73l-3.7-2.51c-.32-.22-.61-.27-.85-.15-.25.12-.53.4-.83.86l-2.71-1.84,7.49-11.01,3.98,2.71-1.84,2.7c-.26-.18-.48-.3-.67-.39-.19-.08-.35-.11-.5-.09-.15.02-.29.09-.42.21-.13.12-.27.28-.42.49l-.95,1.39,1.94,1.32,1.68-2.47,1.29.88-1.68,2.46,2.1,1.43.95-1.39Z" />
    <path class="cls-6"
      d="M50.13,33.15l-2.52,1.54.09.39c.05.27.16.44.35.53.18.08.43.03.74-.16l.45-.28,1.71,2.8-4.97,3.04-1.71-2.8.33-.2c.38-.23.6-.46.64-.69.04-.22.04-.51,0-.86l-.7-4.81c-.06-.36-.17-.59-.33-.68-.16-.09-.44-.02-.82.22l-.17.1-1.71-2.79,8.19-5.01,1.71,2.79-.16.1c-.39.24-.58.46-.57.65.01.19.16.39.46.59l3.97,2.81c.15.1.28.19.4.26.11.07.23.12.35.15.12.03.25.02.4-.02.15-.04.32-.12.51-.24l.33-.2,1.71,2.79-7.24,4.43-1.71-2.8.44-.27c.3-.19.46-.38.48-.59.01-.21-.09-.39-.3-.56l-.31-.26ZM47.3,33.27l1.7-1.04-2.21-1.83-.06.04.58,2.83Z" />
    <path class="cls-6"
      d="M78.67,16.33l.41,3.25c-.54.07-.89.2-1.04.39-.15.19-.2.45-.16.77l1.1,8.67-5.57.71-5.74-6.55.38,3.03c.05.38.2.61.44.68.25.07.64.07,1.19,0l.41,3.25-6.38.81-.41-3.25c.54-.07.92-.19,1.14-.35.22-.17.3-.44.25-.82l-.56-4.43c-.05-.39-.2-.63-.45-.74-.25-.11-.65-.13-1.19-.06l-.41-3.25,7.29-.92,5.5,6.28-.33-2.62c-.05-.39-.17-.64-.35-.75-.19-.12-.55-.14-1.1-.07l-.41-3.25,6-.76Z" />
    <path class="cls-6"
      d="M80.19,29.75l.39-3.25c.54.06.94.04,1.19-.07.25-.11.4-.35.45-.73l.53-4.44c.05-.39-.04-.66-.26-.83-.22-.17-.6-.28-1.15-.35l.39-3.25,8.51,1.02-.39,3.25c-.54-.06-.94-.04-1.19.07-.25.11-.4.36-.44.74l-.53,4.44c-.05.38.04.65.25.82.22.17.6.28,1.14.35l-.39,3.25-8.51-1.02Z" />
    <path class="cls-6"
      d="M100.15,20.35c.39.14.75.31,1.07.49s.6.38.85.58c.25.2.45.39.62.57.16.18.3.34.39.48l.22-.6,2.9,1.06-1.65,4.52-3.07-1.12c.14-.37.2-.7.2-.98,0-.28-.06-.53-.16-.75-.1-.21-.25-.39-.45-.54-.19-.15-.41-.26-.67-.36-.34-.13-.66-.17-.95-.14-.29.03-.57.16-.82.38-.26.22-.51.54-.75.98-.25.43-.49.97-.73,1.63-.24.67-.41,1.24-.49,1.73-.08.48-.08.89-.01,1.24.07.34.22.62.44.85.22.22.52.4.9.54.25.09.51.14.78.13.27,0,.52-.07.77-.19.25-.12.47-.31.68-.55.21-.24.38-.57.53-.96l3.05,1.12c-.26.7-.62,1.32-1.08,1.86-.46.54-1.03.95-1.7,1.24-.67.29-1.44.43-2.31.43-.87,0-1.83-.2-2.88-.58-.95-.35-1.8-.8-2.56-1.35-.76-.55-1.35-1.2-1.79-1.95-.44-.75-.69-1.6-.76-2.55s.11-2,.53-3.14c.42-1.14.96-2.06,1.63-2.74.67-.68,1.4-1.17,2.21-1.46.8-.3,1.64-.42,2.51-.38.87.04,1.73.22,2.57.53Z" />
    <path class="cls-6"
      d="M111.31,37.99c.21.15.39.26.55.33s.32.09.47.06c.15-.03.3-.12.45-.26.15-.14.32-.33.5-.58l2.63,1.94-2.86,3.87-10.71-7.91,1.95-2.64c.44.33.8.5,1.07.53.27.03.52-.11.75-.42l2.66-3.6c.23-.31.29-.59.18-.85-.11-.25-.38-.54-.82-.87l1.95-2.64,10.71,7.91-2.86,3.87-2.63-1.94c.19-.25.32-.47.41-.65.09-.18.13-.35.11-.5-.02-.15-.08-.3-.19-.43-.11-.14-.27-.28-.48-.43l-1.35-1-1.4,1.89,2.4,1.77-.93,1.26-2.4-1.77-1.51,2.05,1.35,1Z" />
    <path class="cls-6"
      d="M116.9,47.07l2.91-1.5c.25.49.49.81.72.95.23.15.52.13.86-.04l3.98-2.04c.35-.18.53-.4.54-.68.01-.27-.1-.65-.35-1.14l2.91-1.5,4.53,8.82c.41.79.7,1.61.88,2.46.18.84.2,1.67.04,2.48-.15.81-.51,1.58-1.07,2.31-.56.73-1.38,1.38-2.47,1.93-1.08.56-2.08.85-3,.88-.92.03-1.75-.13-2.51-.5-.76-.37-1.44-.9-2.05-1.59-.61-.7-1.14-1.49-1.6-2.39l-4.33-8.47ZM123.43,52.63c.16.3.34.59.55.85.21.26.47.45.79.56.31.12.69.15,1.13.1.45-.05.98-.24,1.62-.57.62-.32,1.09-.64,1.4-.97.31-.33.51-.65.61-.97.09-.32.1-.64.01-.97-.09-.33-.21-.65-.37-.97l-.4-.78-5.74,2.95.4.78Z" />
    <path class="cls-6"
      d="M129.59,69.09l-.26-2.94-.39-.1c-.26-.08-.47-.05-.63.07-.16.13-.22.37-.19.73l.05.53-3.26.29-.51-5.8,3.27-.29.03.38c.04.45.15.74.33.88.18.14.44.26.77.38l4.62,1.51c.35.11.61.11.76,0,.15-.1.21-.38.17-.84l-.02-.2,3.26-.29.85,9.57-3.26.29-.02-.19c-.04-.46-.15-.73-.33-.8-.18-.08-.42-.03-.73.14l-4.28,2.3c-.16.09-.29.17-.41.24-.11.07-.21.15-.29.25-.08.09-.13.22-.16.37-.03.15-.03.34-.01.57l.03.38-3.27.29-.75-8.46,3.26-.29.05.51c.03.35.14.58.31.69.18.11.39.1.63-.02l.37-.16ZM130.74,66.51l.18,1.98,2.62-1.17v-.07s-2.79-.74-2.79-.74Z" />
    <path class="cls-6"
      d="M133.94,78.66c.14-.14.26-.26.38-.36.12-.1.23-.21.31-.32.09-.11.16-.25.22-.42.06-.16.08-.37.08-.63h3.28v8.21h-3.28c0-.55-.09-.91-.26-1.09-.17-.18-.38-.17-.64.01l-1.7,1.29v.07l1.7,1.28c.23.22.44.24.62.07.18-.17.27-.55.27-1.14h3.28v5.63h-3.28c0-.19-.02-.35-.05-.49-.04-.14-.09-.27-.17-.39-.08-.12-.18-.25-.31-.37-.13-.13-.28-.28-.46-.46l-3.11-2.68h-1.36c-.38,0-.64.12-.78.36-.14.24-.21.63-.21,1.18h-3.28v-8.57h3.28c0,.55.07.94.21,1.18.14.24.4.35.78.35h1.36l3.11-2.7Z" />
    <path class="cls-6"
      d="M127.07,92.63c.3,0,.59.06.87.19.28.13.52.3.72.5.2.21.36.46.48.75.12.29.18.6.18.93s-.06.62-.18.92c-.12.29-.28.54-.48.76s-.44.38-.72.51-.57.19-.87.19-.6-.06-.87-.19c-.27-.13-.51-.3-.71-.51-.2-.21-.36-.46-.48-.76-.12-.29-.18-.6-.18-.92s.06-.64.18-.93c.12-.29.28-.54.48-.75.2-.21.44-.38.71-.5.27-.13.56-.19.87-.19ZM136.34,92.63c.3,0,.59.06.87.19.28.13.52.3.72.5.2.21.36.46.48.75.12.29.18.6.18.93s-.06.62-.18.92c-.12.29-.28.54-.48.76-.2.21-.44.38-.72.51s-.57.19-.87.19c-.11,0-.24,0-.38-.02-.14-.01-.25-.03-.35-.06l-5.71-1.06v-2.45l5.71-1.09c.11-.03.22-.04.35-.06.13-.01.25-.02.38-.02Z" />
    <path class="cls-3"
      d="M30.54,126.93c-.79-.67-1.61-1.43-2.16-2.31-.28-.45-.96-1.13-1.07-2.21,1.56.89,3.12,1.79,4.68,2.68.46.26,1.06.53,1.49.22.27-.19.37-.54.45-.86.22-.94.22-1.74.24-2.68.03-1.22.17-2.36-.02-3.59-.02-.16-.09-.36-.26-.36-.12,0-.21.1-.27.2-.97,1.4-1.95,2.81-2.92,4.21-.3-1.03-.59-2.06-.89-3.1-.45-1.56-1.49-1.64-2.44-.45-.79.98-1.59,2.16-1.74,3.44-.11.93.35,1.82.84,2.61.68,1.1,1.09,2.19,1.97,3.13.28.29,1.4,1.74,1.87,1.54-1.09.46-2.22,1.28-2.95,2.21-.73.93-.86,2.45.05,3.22.72.6,1.77.53,2.69.34,1.8-.38,3.54-1.1,5.07-2.12.34-.23.69-.49.8-.89.18-.63-.33-1.24-.83-1.68-1.46-1.28-3.13-2.31-4.61-3.57Z" />
    <path class="cls-3"
      d="M80.64,191.74c-.47,0-47.02-.05-47.02-4.65,0-.61,0-1.7,7.78-2.78-2.82-1.15-5.48-3.41-7.93-6.75-1.79-2.48-4.65-7.45-3.63-12.87.72-3.84,3.82-6.92,7.9-7.86,3.19-.72,6.89-.25,10.41,1.33,2.22.98,3.81,2.15,4.84,3.56,1.17,1.58,1.73,3.56,1.62,5.69.23-.14.47-.25.73-.33.98-.28,1.97-.1,2.74.13,1.79-4.39,3.89-8.66,6.25-12.69-6.02-3.7-10.43-10.09-11.39-16.53h-.04c-2.8-.07-5.66-2.64-6.13-5.49-.22-1.48.24-2.75,1.3-3.65-2.81-3.21-4.22-7.46-3.8-11.48.08-.76.25-1.53.49-2.31-.96-.26-1.93-.52-2.88-.82-.47-.14-.98-.28-1.53-.43-2.68-.72-6.33-1.71-8.49-4.35-1.23-1.49-1.9-3.44-1.9-5.51,0-.36.02-.74.06-1.1-.64-.32-1.28-.77-1.9-1.34-.59-.58-.98-1.14-1.23-1.78-.3-.8-.32-1.68-.07-2.39-.95-1.23-1.59-2.83-1.82-4.55-.28-2.17.09-4.33.45-6.41l.06-.33c.12-.64.23-1.27.32-1.9l.08-.69c.43-3.25,1.44-10.84,6.79-10.26,1.11.11,2.02.64,2.65,1.53.8,1.13,1.13,2.78.99,5.07l.06-.17c.17-.5.34-1,.51-1.51.57-1.82,1.44-3.8,3.52-4.66,1.53-.63,3.38-.37,4.61.63.88.73,1.84,2.19,1.39,5.04-.1.6-.22,1.21-.38,1.84.44-.79.95-1.51,1.58-1.99,1.1-.81,2.53-.93,3.84-.34,1.39.63,2.36,1.92,2.47,3.28.24,3.11-1.47,6.15-2.72,8.36-.06.14-.16.3-.27.48-.99,1.66-1.16,2.3-1.17,2.54.02,0,.03,0,.05.01.15.03.43,0,.53-.02.45-.04.9-.08,1.39.03.85.18,1.65.56,2.31,1.1,1.46,1.21,2.16,3.28,1.72,5.13-.34,1.51-1.42,2.65-2.74,2.88-1.2.24-2.22-.3-3.08-.75l-.2-.11c-.14-.08-.27-.15-.42-.22-1.4-.66-2.48-.32-4.1.21l-.4.13c-1.15.37-2.51.73-3.89.59,0,0,0,0-.01,0,0,0,0,.02,0,.02-.15.79-.6,1.42-1.31,1.83-.59.33-1.35.49-2.28.49-.48,0-.94-.04-1.33-.1.08.48.25.87.49,1.16.92,1.12,3.38,1.81,5.35,2.36.7.19,1.29.35,1.81.52,1.25.39,2.58.76,4.05,1.13,2.61-3.29,6.12-5.68,9.52-6.51.73-7.58,1.58-16.13,4.51-23.99.54-1.47,1.19-2.97,1.94-4.46,0,0,0,0,0-.01-.5-1.8,1.2-4,1.55-4.42.53-.71,1.45-1.39,2.43-1.8.05-.1.11-.19.19-.27.12-.17.26-.34.41-.52-1-.41-1.87-.95-2.6-1.61-1.84-1.65-2.75-4.13-2.3-6.31.43-2.11,2.16-3.82,4.14-4.2-.46-3.33-.08-6.59,1.09-9.46,1.6-3.96,4.81-7.16,8.59-8.58,4.22-1.55,9.21-.9,13.01,1.69,3.22,2.19,5.61,5.81,6.48,9.79,1.15-.41,2.67-.72,4.27-.35,2.1.48,3.77,2.12,4.36,4.28.76,2.78-.39,5.22-1.75,7.48,9.82,5.36,14.03,18.24,11.28,34.64-.48,2.81-1.05,5.59-1.55,7.93l-.16.79c-.46,2.19-.92,4.44-1.31,6.71,2.55-1.16,4.96-1.99,7.33-2.54,4.58-1.06,11.02-.57,14.11,4.3,2.73,4.27,1.81,9.57-2.74,15.76.51.54.84,1.25.95,2.03.15,1.08-.18,2.18-.88,2.99,1.11,4.24-.42,8.28-4.35,11.39-2.16,1.72-4.64,2.55-6.63,2.2-1.25-.24-2.27-.9-3.04-1.98-.56-.02-1.13-.1-1.7-.24-1.2-.29-2.12-.8-2.75-1.52-.59-.68-.89-1.59-.84-2.45-.28-.07-.54-.16-.79-.27-1.61,7.81-6.61,13.39-14.54,16.28.22,2.23.49,4.2.82,6.02.16.89.27,1.18.32,1.26.03-.01.22.02.7.02.12,0,.25,0,.41,0,1.56-.07,3.17-.31,4.79-.7.15-1.6,1.06-3.14,2.43-4.04.02-.07.04-.15.08-.21.69-1.62,2.03-2.75,3.84-3.24,2.43-.67,5.46-.07,7.56,1.48,2.25,1.68,3.61,4.42,3.83,7.71.25,3.33-.4,6.99-1.99,11.16-.69,1.78-1.46,3.46-2.34,5.15l-.13.25c-.35.67-.73,1.39-1.2,2.06.95.09,1.89.3,2.8.49l1.93.4c1.12.23,2.27.46,3.41.6,2.12.24,4.49.7,4.49,2.24,0,4.6-46.55,4.65-47.02,4.65ZM40.79,157.64c-.97,0-1.91.1-2.8.3-3.64.83-6.41,3.57-7.04,6.96-.94,5,1.75,9.66,3.44,11.99,3.07,4.18,6.43,6.56,10,7.07l4.39.63-4.41.49c-8.76.98-9.57,1.96-9.63,2.07.88,1.36,17.32,3.45,45.9,3.45s45-2.08,45.9-3.59h0s-.15-.67-3.43-1.04c-1.25-.15-2.43-.39-3.57-.62l-1.94-.4c-1.22-.26-2.54-.53-3.7-.52h-1.35s.93-.96.93-.96c.73-.76,1.24-1.74,1.74-2.68l.13-.26c.86-1.65,1.61-3.3,2.29-5.03,1.52-4.02,2.15-7.51,1.92-10.68-.2-2.97-1.4-5.41-3.37-6.88-1.82-1.36-4.47-1.88-6.58-1.3-1.47.4-2.55,1.31-3.12,2.63l.08.48-.45.13c-1.25.79-2.05,2.2-2.05,3.61v.44l-.42.11c-1.83.48-3.65.76-5.43.84-1.29.05-1.69-.13-1.88-.28-.27-.21-.47-.61-.7-1.93-.35-1.97-.64-4.11-.88-6.55l-.04-.44.42-.15c8.15-2.84,12.99-8.32,14.37-16.28l.03-.18.49-.52.39.29c.05.04.1.08.16.11.38.22.86.38,1.41.47l.62.1-.17.61c-.18.65.02,1.43.51,2,.47.54,1.19.93,2.16,1.16.59.14,1.17.21,1.74.21h.31l.17.26c.63.97,1.44,1.54,2.47,1.74,1.64.29,3.82-.45,5.72-1.97,3.64-2.89,5.02-6.62,3.88-10.5l-.1-.33.25-.24c.62-.59.9-1.42.78-2.27h0c-.09-.68-.43-1.27-.93-1.66l-.44-.34.34-.45c4.49-5.95,5.5-10.96,2.99-14.88-2.78-4.37-8.69-4.78-12.91-3.81-2.59.59-5.22,1.55-8.07,2.91l-.97.47.17-1.06c.41-2.65.96-5.27,1.49-7.82l.16-.8c.5-2.34,1.07-5.1,1.54-7.89,1.02-6.06,3.21-26.41-11.22-33.73l-.55-.28.33-.52c1.42-2.29,2.63-4.55,1.94-7.11-.48-1.75-1.83-3.09-3.52-3.47-1.62-.37-3.19.09-4.21.55l-.66.29-.12-.71c-.68-3.95-2.98-7.59-6.14-9.73-3.51-2.39-8.1-3-11.98-1.57-3.48,1.31-6.45,4.28-7.94,7.94-1.17,2.85-1.49,6.11-.93,9.43l.1.63-.63.03c-1.73.09-3.32,1.54-3.7,3.38-.37,1.8.4,3.85,1.95,5.24.79.71,1.79,1.27,2.96,1.66l.79.26-.53.64c-.32.38-.64.76-.94,1.16v.39l-.37.09c-.88.32-1.75.93-2.21,1.55-.61.74-1.64,2.37-1.34,3.43l.13.26-.1.35c-.77,1.52-1.44,3.05-1.99,4.56-2.93,7.87-3.76,16.5-4.49,24.12l-.04.42-.41.08c-3.32.68-6.96,3.16-9.49,6.47l-.23.29-.36-.09c-1.63-.4-3.1-.81-4.47-1.24-.51-.16-1.09-.32-1.68-.48-2.23-.62-4.87-1.36-6.02-2.75-.51-.61-.81-1.5-.81-2.44v-.7l.69.02c.44.1,1.11.21,1.83.21s1.32-.12,1.73-.35c.42-.24.67-.59.75-1.03.02-.14.02-.26-.01-.38l-.2-.88.88.2c.2.04.37.09.56.1,1.21.12,2.41-.2,3.45-.54l.36-.11c1.79-.57,3.17-1.01,4.96-.17.16.08.32.16.48.25l.16.09c.77.4,1.48.83,2.36.65.89-.16,1.61-.95,1.85-2.02.34-1.45-.2-3.06-1.34-4.01-.51-.43-1.14-.72-1.82-.87-.32-.07-.64-.04-.95-.01-.43.05-.69.06-.92.02-.54-.09-.74-.32-.84-.48-.39-.84.19-2.09,1.16-3.72.13-.2.2-.31.26-.44,1.2-2.14,2.82-5,2.6-7.76-.08-.96-.79-1.87-1.82-2.34-.92-.43-1.93-.35-2.69.21-.75.57-1.35,1.72-1.89,2.84l-.1.2c-.13.25-.25.48-.37.69-.81,1.48-1.46,2.83-1.98,4.09l-.23.56-.65-.3c-.1-.03-.16-.04-.22-.04h-.98l.5-.85c1.42-2.44,2.52-5.47,2.95-8.12.2-1.28.19-3.02-1-3.99-.91-.75-2.3-.94-3.46-.46-1.65.68-2.38,2.38-2.87,3.96-.16.52-.34,1.02-.51,1.53l-.1.3c-.52,1.54-1.06,3.13-1.3,4.74l-.07.48-.71-.04-.43-.15h-.59l.16-.69c1.09-4.69,1.09-7.72,0-9.26-.43-.62-1.05-.97-1.84-1.05-4.34-.47-5.13,6.12-5.55,9.28l-.08.7c-.09.66-.21,1.3-.33,1.96l-.06.32c-.34,2.01-.7,4.08-.44,6.08.22,1.63.85,3.14,1.79,4.24l.34.4-.37.37c-.16.4-.16,1.08.06,1.68.18.47.48.91.95,1.36.64.59,1.3,1.03,1.95,1.3l.41.17-.07.44c-.07.43-.11.89-.11,1.35,0,1.8.58,3.5,1.65,4.79,1.93,2.36,5.39,3.29,7.91,3.98.55.15,1.07.29,1.56.44,1.05.33,2.12.62,3.18.9l.84.22-.21.58c-.33.89-.54,1.77-.63,2.62-.41,3.9,1.06,8.04,3.93,11.06l.48.5-.59.37c-1.05.66-1.51,1.66-1.32,2.9.37,2.27,2.81,4.48,5.02,4.54h.29l.6-.12.19.6c.78,6.44,5.25,12.92,11.39,16.49l.49.29-.29.49c-2.54,4.27-4.78,8.82-6.66,13.51l-.2.51-.51-.19c-.72-.26-1.67-.53-2.56-.28-.72.22-1.3.88-1.33,1.54l-.03.54-1.46-.03.3-.7c.09-.34.15-.66.21-1,.4-2.29-.05-4.47-1.27-6.11-.92-1.25-2.35-2.29-4.39-3.19-2.3-1.03-4.67-1.56-6.9-1.56ZM56.53,185.76l4.09-2.73c.17-.11.33-.23.47-.35,1.61-1.36,2.03-3.87.99-5.84-.11-.23-.25-.43-.41-.62l-.61-.72.92-.2c.96-.21,1.8-.9,2.03-1.68.36-1.18-.7-2.18-1.66-2.92l-.33-.26.15-.39c1.91-4.9,4.25-9.63,6.95-14.05l.24-.39.43.14c3.59,1.21,7.72,1.83,12.28,1.83l1.23-.02c2.48-.06,4.9-.33,7.17-.78l.61-.12.06.62c.22,2.12.5,4.15.83,6.04h0c.18,1.02.52,2.93,2.01,4.15.93.76,2.12,1.12,3.76,1.12.19,0,.44,0,.63-.01.33-.02.64-.03.96-.06l1.07-.11-.52.94c-.29.53-.47.98-.57,1.44l-.1.46-.47-.02c-3.3-.16-5.69.36-7.26,1.58-1.32,1-2.24,2.67-2.52,4.58-.28,1.91.13,3.75,1.11,5.04.08.11.18.22.28.33l.92,1.05-1.37-.09c-.77-.06-1.52-.1-2.28-.13-1.67-.06-3.4-.05-5.08-.04h-1.87c-6.79,0-13.25.13-19.21.37l-4.9,1.84ZM62.99,176.16c.03.06.06.11.09.17,1.09,2.08.85,4.66-.5,6.42,5.64-.21,11.71-.32,18.06-.32h1.87c1.69-.01,3.43-.03,5.12.03.38.02.74.03,1.11.05-.87-1.47-1.2-3.36-.92-5.29.32-2.21,1.4-4.14,2.95-5.32,1.72-1.32,4.19-1.93,7.55-1.82.04-.12.08-.25.13-.37,0,0-.01,0-.02,0-.21.02-.47.02-.71.02-1.89,0-3.35-.45-4.48-1.37-1.82-1.48-2.22-3.74-2.41-4.82h0c-.31-1.74-.57-3.59-.78-5.51-2.15.39-4.43.63-6.77.69l-1.24.02c-4.5,0-8.61-.59-12.21-1.74-2.5,4.14-4.68,8.54-6.48,13.1.86.7,2.27,2.08,1.72,3.89-.28.93-1.08,1.76-2.1,2.2ZM109.89,127.73l-.06-1.19c-.12-2.63-.26-5.62-.1-8.5.02-.29.03-.57.07-.86l.03-.29.25-.14c3.73-2.05,7.03-3.39,10.1-4.09,3.29-.76,7.33-.38,8.96,2.18,1.53,2.42.69,5.77-2.55,10.26l-.34.47-.46-.36c-.76-.59-1.7-.82-2.56-.62-.31.07-.6.19-.85.34l-.33.21-.31-.23c-1.43-1.04-3.23-1.56-5.24-1.54-1.6.06-2.97,1.24-4.18,2.28-.38.32-.76.63-1.12.91-.14.1-.29.23-.44.36l-.88.79ZM110.9,117.6c-.01.17-.02.34-.03.5-.14,2.42-.06,4.95.05,7.27.23-.18.46-.38.69-.57,1.27-1.1,2.87-2.48,4.87-2.55,2.05-.03,4.06.5,5.64,1.55.28-.14.57-.24.88-.31,1.01-.23,2.08-.05,3.02.5,2.68-3.83,3.4-6.63,2.19-8.54-1.33-2.08-4.95-2.34-7.76-1.69h0c-2.9.66-6.03,1.92-9.55,3.84Z" />
    <path class="cls-6"
      d="M86.51,56.48c-5.07,2.94-11.99,4.78-16.82,1.48.02-.08.02-.18,0-.27-.27-1.05-.47-2.1-.55-3.15,2.28,1.05,4.83,1.58,7.46,1.58,2.03,0,4.1-.32,6.13-.95,4.16-1.31,8.18-3.95,11.64-7.67.34.92.56,1.86.71,2.82-1.63.89-3.1,2.07-4.54,3.21-1.29,1.03-2.63,2.11-4.03,2.94Z" />
    <path class="cls-7"
      d="M66.45,62.29c.24.98,1.47,2.26,2.97,2.81,1.5.6,3,.79,3.94.84.19.02.39,0,.6,0,.19,0,.39,0,.6-.02.92-.05,2.5-.39,3.87-1.16,1.4-.74,2.57-1.82,3.16-2.61-.84.55-2.15,1.37-3.52,1.86-1.39.52-2.79.66-3.6.71-.18.02-.36.02-.53.02s-.36.02-.53,0c-.81-.05-2.29-.1-3.7-.44-1.44-.29-2.7-1.16-3.26-2ZM66.84,64.75c-1.39-1.24-2.07-3.07-1.76-4.63.31-1.55,1.68-2.78,3.12-2.84-.06.03-.11.08-.16.13-.21.26-.18.63.06.86,5.31,4.55,13.3,2.6,19.03-.74,1.49-.86,2.86-1.95,4.18-3.02,1.58-1.28,3.07-2.45,4.75-3.31.18-.1.37-.18.55-.26.97-.44,2.44-.89,3.92-.55,1.47.34,2.63,1.48,3.05,3.02.65,2.4-.63,4.6-1.95,6.73-.16-.08-.32-.15-.48-.21,1.39-1.81,2.58-5.04,1.79-7.07-.34-.87-1.18-1.9-3.23-1.9-2.68,0-4.73,1.47-6.55,2.76-1.81,1.29-3.39,2.86-4.91,4.42-.05.02-.1.06-.11.11-.02.02-.02.03-.03.03-.21.23-.42.45-.63.66l-1.07,1.11c-2.05,2.1-4.31,4.23-6.99,5.49-2.34,1.1-5.04,1.53-7.62,1.23-.37-.05-.77-.11-1.19-.21-.08-.03-.18-.06-.27-.06-1.16-.29-2.44-.81-3.49-1.74Z" />
    <path class="cls-7"
      d="M93.87,46.28c-3.41,3.78-7.39,6.44-11.51,7.73-4.6,1.45-9.44,1.13-13.3-.87-.03-2.24.36-4.42,1.15-6.38,1.44-3.52,4.26-6.34,7.57-7.57,3.68-1.37,8.04-.79,11.39,1.48,2.02,1.37,3.63,3.34,4.7,5.6Z" />
    <path class="cls-6"
      d="M52.33,173.06c.4-.79.74-1.53,1-2.24,1.66.42,2.99,1.05,4,1.86.73.6,1.28,1.29,1.61,2.03,0,.02,0,.03.02.05,0,.06.03.11.06.15,0,.02.02.03.02.06.15.39.24.77.26,1.16.08,1.29-.63,2.55-1.76,3.16l-.02-.02c-.29.19-.89.55-1.55.61-.66.11-1.24-.08-1.24-.08,0,0,.42.47,1.18.69.6.21,1.37.16,1.89-.02.02,0,.03-.02.03-.02.06,0,.13-.03.18-.06.05-.02.1-.05.13-.08,1.52-.82,2.47-2.52,2.37-4.26,0-.05,0-.1-.02-.15.4.34.76.76,1,1.23.9,1.71.56,3.87-.81,5.04-1.34,1.13-3.29,1.42-4.86,1.53-3.74.26-7.57.13-11.35-.4-3.41-.47-6.62-2.76-9.57-6.79-1.63-2.23-4.23-6.68-3.32-11.51.58-3.13,3.15-5.67,6.55-6.44,2.81-.65,6.1-.21,9.3,1.21,1.92.86,3.26,1.84,4.13,2.99,1.11,1.5,1.52,3.5,1.16,5.65-.23,1.28-.69,2.58-1.48,4.1-.05.08-.11.21-.19.36-.23.39-.55.92-.92,1.31-.26.26-.53.45-.77.55-.24.1-.42.08-.42.1-.03,0,.71.26,1.53-.15.52-.24.98-.6,1.36-.97.11-.05.23-.15.29-.26.06-.11.11-.21.16-.32.02-.02.03-.05.05-.06Z" />
    <path class="cls-6"
      d="M58.09,171.74c-.84-.68-1.87-1.24-3.08-1.68,0-.03,0-.06-.02-.1-.15-.47.34-1.02.86-1.18.69-.19,1.47.03,2.15.27,1.4.5,2.71,1.21,3.91,2.11.76.58,1.74,1.44,1.5,2.24-.24.79-1.42,1.45-2.24,1.29-.08-.02-.16-.02-.24,0-.27-.23-.58-.4-.9-.53-.4-.9-1.07-1.74-1.92-2.44Z" />
    <path class="cls-6"
      d="M108.57,162.31c-.55-.21-1.16-.21-1.76.05-.68.29-1.37.53-2.08.77.11-1.07.74-2.1,1.69-2.68,1.11-.69,2.63-.77,3.87-.19,1.44.65,2.42,2.11,2.47,3.63.06,1.52-.89,3.07-2.26,3.65-1.03.44-2.24.32-3.18-.21.45-.15.9-.32,1.36-.52.58-.24,1-.68,1.26-1.19.02.39.02.77-.02,1.08.31-.24.68-.77.82-1.39.16-.6.1-1.24-.02-1.58l-.06-.23c-.03-.08-.06-.16-.1-.23-.15-.34-.53-.87-1.08-1.21-.55-.34-1.21-.42-1.58-.32.21.15.45.34.66.57Z" />
    <path class="cls-6"
      d="M111.58,174.44c-3-1.86-6.47-3.08-10.04-3.53-.53-.06-1.05-.13-1.55-.18.19-.66.55-1.29,1-1.82,1.68-.21,3.34-.56,4.97-1.1.86.79,2.03,1.21,3.21,1.21.63,0,1.24-.11,1.82-.36.02,0,.02-.02.03-.02.86.29,2.36,1.18,3.08,2.52.79,1.31.82,2.68.82,2.68,0,0,.06-.32.08-.86,0-.53-.06-1.29-.34-2.08-.4-1.28-1.48-2.42-2.45-3.02,1.13-.98,1.82-2.49,1.76-4.04-.06-1.97-1.34-3.86-3.16-4.7-1.05-.48-2.21-.61-3.31-.39.63-.89,1.55-1.29,2.26-1.5,1.92-.52,4.39-.03,6.02,1.19,2.45,1.82,3.02,4.81,3.13,6.42.21,3.08-.4,6.49-1.9,10.41-.61,1.61-1.34,3.23-2.24,4.96l-.13.24c-.69,1.34-1.42,2.73-2.71,3.36-1.45.71-3.21,1.07-5.55,1.16-2.61.1-5.29.08-7.92-.05-.63-.02-1.34-.08-2.05-.16h-.03c-.66-.16-1.32-.34-1.97-.55-.79-.24-1.48-.6-2.24-.81h-.02c-.6-.37-1.15-.82-1.58-1.4-1.84-2.44-1.19-6.84,1.28-8.72,1.53-1.16,3.87-1.65,7.17-1.45.05.03.1.03.15.05h.08c.06,0,.15-.02.21-.03h.02c.61.05,1.24.13,1.92.21,3.42.44,6.73,1.61,9.6,3.39.06.03.13.06.19.11.5.31,1.24.89,1.63,1.65.45.81.47,1.65.47,1.74.02-.03.08-.24.15-.53.05-.36.08-.87-.05-1.4-.16-.94-.82-1.89-1.44-2.37-.11-.11-.23-.18-.34-.24h-.02Z" />
    <path class="cls-6"
      d="M123.79,132.28c-1.45-.98-2.68-3-2.13-5.28.11-.5.34-.92.68-1.21.1-.03.18-.1.24-.18.02-.02.03-.05.05-.06.23-.16.47-.26.74-.32.71-.15,1.45.05,2.05.52-.06.1-.15.19-.23.29-.53.69-.65,1.58-.36,2.34-.4-.36-.77-.81-1.02-1.15-.08.4.02,1.07.32,1.65.31.58.79,1.07,1.13,1.27l.21.13.23.11c.36.18,1.02.32,1.66.26.66-.05,1.28-.31,1.58-.58-.36-.05-.82-.08-1.26-.19.48-.13.95-.4,1.29-.84.37.31.61.74.69,1.24.1.76-.21,1.48-.84,1.95-1.55,1.1-3.44,1.11-5.05.05Z" />
    <path class="cls-6"
      d="M109.99,133.5c-.98-.55-1.36-1.97-1.07-3.07.32-1.13,1.16-2.2,2.66-3.34.39-.29.76-.61,1.15-.94,1.21-1.03,2.45-2.08,3.79-2.13,1.65-.05,3.31.39,4.62,1.24-.31.42-.55.9-.68,1.45-.58,2.47.48,5.1,2.66,6.55.98.66,2.08.98,3.18.98.87,0,1.74-.21,2.55-.65.87,3.49-.45,6.79-3.74,9.41-1.81,1.44-3.76,2.11-5.21,1.84-.63-.13-1.16-.42-1.61-.9,1.19-.19,2.36-.65,3.34-1.32.39.08,1.03.02,1.32-.26-.31-.34-.77-.79-.97-.9l-.08-.05-.06-.03c-.21-.1-.84-.24-1.31-.29-.03.21.05.45.16.69-1.05.66-2.28,1.02-3.52,1.07-.65.02-1.29-.05-1.92-.19-.82-.19-1.45-.52-1.82-.97-.37-.4-.58-1.08-.31-1.6,1.21,0,2.44-.29,3.37-.74.32.42.98.94,1.47,1.05-.08-.58-.39-1.52-.57-1.87l-.05-.11-.06-.11c-.19-.34-.81-1.11-1.23-1.52-.15.36-.13.97-.05,1.45-1.42.69-3.76.94-5.12.15-.69-.4-1.05-1.03-1.08-1.92-.03-.6.24-1.26.79-1.87.05-.06.1-.13.16-.19.63-.65,1.47-1.16,2.28-1.66l.02-.02c.13-.08.23-.21.26-.34.53-.58,1.05-1.5,1.19-2.37.23-1.11-.02-2-.02-2,0,0-.08.92-.55,1.81-.47.92-1.31,1.66-1.78,2v.03c-.76.48-1.53.98-2.18,1.65Z" />
    <path class="cls-6"
      d="M36.35,96.17c.37-.77,1.08-1.87,2.03-2.65.94-.81,2.05-1.23,2.71-1.42l.42-.1.44-.06c.68-.1,1.87-.13,3.05.24,1.18.36,2.26,1.1,2.89,1.66-.37-.77-1.32-1.84-2.6-2.45-1.23-.65-2.68-.77-3.49-.66l-.53.08-.52.13c-.79.21-2.07.89-2.95,1.97-.94,1.05-1.4,2.4-1.45,3.26ZM27.24,86.54c.13-.73.26-1.44.36-2.15l.1-.71c.4-3.18,1.15-9.12,4.83-8.73.6.06,1.07.32,1.39.79.97,1.39.92,4.36-.15,8.86-.13,0-.26,0-.4.02-.66.05-1.29.27-1.65.52.87.11,2.34.53,2.92.79l.19.06.18.08c.61.19,1.99.86,2.71,1.34-.11-.4-.44-.98-.89-1.47-.1-.11-.21-.21-.31-.31.08-.08.11-.18.13-.29.23-1.63.79-3.26,1.32-4.83.23-.63.44-1.24.63-1.87.47-1.5,1.1-2.97,2.49-3.53.95-.4,2.08-.24,2.82.36.94.77.92,2.28.74,3.39-.42,2.66-1.58,5.81-3.05,8.25-.05.1-.08.19-.08.29-.34.05-.65.15-.86.26.61.32,1.74.77,2.23.94l.15.03.16.05c.48.13,1.68.39,2.36.47-.18-.36-.61-.77-1.07-1.1.02,0,.02-.02.02-.02.58-1.39,1.26-2.78,2-4.1.15-.26.31-.56.47-.89.47-.95,1.07-2.15,1.71-2.63.79-.6,1.69-.29,2.03-.15.81.37,1.37,1.1,1.44,1.81.21,2.52-1.23,5.08-2.52,7.41-.06.11-.15.24-.24.42-.92,1.52-1.76,3.12-1.24,4.25.16.34.53.79,1.39.92.34.06.68.03,1,0,.29-.03.58-.06.81-.02.58.13,1.11.37,1.55.73.97.81,1.42,2.16,1.13,3.37-.15.68-.63,1.42-1.34,1.55-.61.1-1.26-.24-1.95-.61-.23-.11-.44-.23-.66-.34-2.05-.95-3.62-.45-5.44.15l-.36.11c-.97.31-2.1.6-3.18.5-1.08-.1-1.99-.63-2.37-1.39-.15-.29-.52-.42-.81-.26-.31.15-.42.52-.27.81.23.44.55.81.94,1.13.02.16.11.32.24.42.24.18.39.52.32.81-.03.24-.16.42-.4.55-.73.4-2.13.29-3.2.06.06-.29.18-.6.32-.92.24-1.26-4.49-2.63-4.73-1.39-.11.31-.19.65-.27.98-.53-.27-1.05-.65-1.5-1.08-.4-.39-.66-.74-.81-1.11-.16-.44-.16-.94-.02-1.28.18-.39.53-.53.68-.56.29-.1.61-.08,1.05-.02.36.05.65-.19.68-.53.05-.32-.19-.63-.52-.68-.47-.05-1-.1-1.55.05-.21.06-.39.15-.56.27-.81-1.02-1.36-2.36-1.55-3.81-.24-1.95.13-4.02.47-6.02Z" />
    <path class="cls-5"
      d="M65.3,99.37c-.05-3.1.03-6.67.86-10.07,1.11-4.58,2.84-7.28,5.28-8.22.66-.24,1.21-.29,1.61-.11.87.37,1.21,1.18,1.28,2.26-.21-.19-.47-.34-.81-.44-.77-.23-1.63.06-2.23.55-.68.55-1.29,1.42-1.55,2.21-1.39,4.36-2.15,8.89-2.26,13.44-.23,0-.44.02-.65.05l-.05.02c-.39.02-.92.13-1.48.31Z" />
    <path class="cls-5"
      d="M84.51,99.66c-.06-3.08.03-6.63.95-10.04,1.24-4.6,3.2-7.3,5.96-8.23.77-.26,1.42-.29,1.9-.11,1,.39,1.37,1.23,1.44,2.34-.24-.24-.57-.4-.98-.52-.86-.23-1.81.06-2.49.55-.76.53-1.45,1.42-1.73,2.2-1.55,4.37-2.4,8.89-2.53,13.44-.42.03-.84.08-1.26.13h-.06c-.32.03-.73.11-1.19.24Z" />
    <path class="cls-7"
      d="M65.38,74.24c-.18-.63.48-1.92,1.23-2.86.52-.68,1.71-1.47,2.89-1.6.1,0,.19-.02.29-.02.47,0,.84.13,1.15.37.36.29.37.66.37.86-.03.37-.23.71-.53.9-.26.16-.61.29-.98.42-.36.13-.69.26-1,.42-.74.39-1.44.86-2.05,1.37-.24.19-.73.6-.97.48-.29-.1-.36-.23-.39-.36Z" />
    <path class="cls-7"
      d="M98,76.35c-1.03-1.19-2.42-1.61-3.76-1.95-.32-.08-.65-.34-.81-.69-.16-.31-.18-.65-.05-.94.13-.27.44-.52.92-.71,2.63-1.05,5.31.69,6.28,2.91.19.45.74,2-.39,2.94-.19.16-.32.16-.4.16-.45-.05-1.03-.79-1.42-1.28-.13-.16-.26-.31-.37-.44Z" />
    <path class="cls-7"
      d="M52.94,136.22c-1.9-.05-4.08-2.03-4.39-4-.18-1.18.37-2.05,1.61-2.55.06-.02.11-.05.18-.06.31-.11.65-.21.97-.29l.32-.1c4.68-1.39,8.44-4.6,11.17-9.59.48-.86.92-1.76,1.37-2.65,1.1-2.18,2.23-4.44,3.81-6.28,2.49-2.86,6.36-4.12,9.65-3.16,2.86.84,5.02,3.81,6.46,8.81.16.53.31,1.07.45,1.61.16.61.34,1.24.5,1.86,0,.03.02.06.03.08.19.92.48,1.82.87,2.7.03.06.06.11.11.16,0,0,0,.02.02.02.39.94.86,1.84,1.45,2.68,2,2.87,4.16,3.24,7.15,3.74l.4.08c1.1.19,2.39.52,2.7,1.42.29.89-.52,1.89-.77,2.18-1.31,1.47-3.26,2.34-5.21,2.34h-.03c-1.97-.02-3.92-.9-5.21-2.39-.08-.08-.16-.15-.26-.16-.48-.56-1.03-1.29-1.4-2.05-.6-1.11-.84-2.2-.84-2.2,0,0-.08,1.11.27,2.42.21.89.65,1.82,1.1,2.53-.19.42-.65.81-1.08,1.07-.47.26-1.07.42-1.84.47-3.16.26-6.44-1.39-8.2-4.04-.02-.03-.03-.05-.05-.08-.47-.98-1.07-2.47-1.29-3.89-.31-1.66-.19-3.11-.19-3.11,0,0-.42,1.4-.4,3.16-.02,1.16.21,2.45.52,3.49-1.99,3.42-4.23,4.87-6.91,4.45-1.23-.19-1.68-.86-2.13-2.31.02-.02.02-.03.02-.03-.03-.1-.08-.23-.15-.36-.21-.63-.48-1.53-.57-2.39-.11-.92-.03-1.73-.02-1.9-.08.18-.42.92-.58,1.89-.15.76-.13,1.66-.02,2.36-1.66,2.49-5.47,3.86-8.62,4.05-.34.02-.66.02-.97.02Z" />
    <path class="cls-2"
      d="M50.08,128.4c-2.91-2.89-4.45-7-4.04-10.85.61-5.65,6.55-11.85,12.25-12.8,0,.03.03.05.05.05,1.08-.23,3.21-.15,4.86.74.82.39,1.48.94,1.94,1.37.36.36.58.65.66.74,0,.02.02.03.02.03l1.68,1.76c-.15.15-.29.29-.42.45-1.69,1.95-2.86,4.29-3.99,6.54-.44.87-.87,1.74-1.36,2.6-2.57,4.7-6.08,7.71-10.44,9.01l-.32.08c-.24.08-.5.16-.89.27Z" />
    <path class="cls-2"
      d="M65.79,136.09c2.94.47,5.52-.97,7.67-4.26h.03c2.05,2.86,5.55,4.55,9.09,4.29.98-.06,1.73-.27,2.36-.63.26-.15.9-.56,1.36-1.21,1.48,1.34,3.47,2.13,5.47,2.15h.03c2.29,0,4.58-1.03,6.12-2.74.98-1.11,1.36-2.34,1.02-3.37-.52-1.5-2.21-1.99-3.63-2.23l-.42-.08c-2.89-.48-4.63-.79-6.36-3.24-1.05-1.48-1.69-3.24-2.23-5.04-.56-2.36-.48-4.81.21-7.02,1.68-5.28,7.18-9.05,12.82-8.84,0,.03.02.03.03.03,1.1,0,3.13.27,4.75,1.05,1.63.71,2.68,1.87,2.68,1.87l3.76.73c-.29,1.52-.57,3.05-.79,4.58-1.76.89-3.6,1.94-5.55,3.15-1.13.71-1.48,2.2-.77,3.34.71,1.13,2.2,1.47,3.34.77.81-.5,1.58-.97,2.34-1.4v.03c-.18,2.89-.03,5.83.1,8.67l.03.89s0,.02.02.03c-.63.69-1.19,1.53-1.47,2.53-.4,1.52.1,3.44,1.45,4.31-.44.68-.65,1.39-.61,2.08.02.61.16,1.16.44,1.63-.03.05-.03.1-.05.15-.05.27-.1.56-.13.84-2.71,15.58-18.82,17.63-25.61,17.79-4.84.11-9.22-.45-13.01-1.69.35-.57.71-1.13,1.07-1.68.74-1.13.42-2.63-.69-3.36-1.11-.73-2.61-.42-3.36.69-.52.79-1.02,1.58-1.52,2.39-5.86-3.39-10.28-9.64-11.09-15.93,3-.29,6.31-1.55,8.26-3.71.48,1.24,1.21,2.19,2.87,2.45Z" />
    <path class="cls-2"
      d="M93.95,75.58c1.24.31,2.34.63,3.15,1.57.1.11.21.26.32.4.56.73,1.28,1.61,2.24,1.71.06.02.11.02.18.02.39,0,.77-.15,1.13-.45,1.19-.97,1.47-2.63.73-4.33-1.37-3.15-4.89-4.75-7.84-3.55-.77.31-1.31.76-1.57,1.32-.13.29-.19.6-.19.9,0,.37.08.74.26,1.08.32.66.92,1.15,1.6,1.32ZM92.14,100.77h.05c1.03.16,3.47.61,4.68.77-.56-.56-1.9-1.19-3.07-1.58v-.02l.13-.94c.52-3.49,1.05-7.1,1.47-10.67.03-.37.11-.81.21-1.29.42-2.31,1.07-5.78-1.86-6.91-.76-.29-1.68-.26-2.73.1-3.18,1.08-5.37,4.05-6.73,9.05-1,3.7-1.07,7.51-1,10.77-.87.34-1.71.73-2.15,1.13,1.45-.18,3.73-.45,4.71-.58h.05c2.07-.27,4.18-.21,6.23.16ZM64.98,89.02c-.89,3.68-.94,7.49-.89,10.73,0,.02,0,.03.02.05-.77.34-1.48.73-1.86,1.1,1.21-.19,3.63-.58,4.68-.65h.05c1.53-.19,3.08-.13,4.6.13h.05c1.03.13,3.44.65,4.65.87-.5-.53-1.63-1.15-2.7-1.55,0-.02.02-.05.02-.06l.11-.94c.47-3.49.94-7.1,1.31-10.67.03-.37.11-.82.19-1.29.37-2.29.94-5.76-1.68-6.89-.71-.31-1.55-.27-2.52.1-2.86,1.08-4.83,4.05-6.04,9.07ZM58.98,103.53c.76-7.94,1.6-16.16,4.42-23.74.52-1.4,1.13-2.79,1.79-4.12h.02s.08.05.13.06c.18.06.36.08.52.08.69,0,1.29-.48,1.65-.77.56-.47,1.19-.89,1.86-1.24.26-.13.55-.24.84-.34.44-.15.87-.31,1.24-.55.63-.4,1.03-1.1,1.08-1.84v-.11c0-.68-.29-1.31-.81-1.74s-1.15-.65-1.89-.65c.23-.27.47-.55.69-.81.36.1.74.15,1.13.19.58.08,1.18.11,1.76.11,2.24,0,4.5-.5,6.5-1.44,2.86-1.36,5.23-3.55,7.36-5.75l1.07-1.11c.18-.19.36-.37.55-.57,2.5-.11,5.08.1,7.68.61,1.11.23,2.16.5,3.15.86.1.1.23.13.34.13h.02c12.9,4.78,15.28,20.29,12.99,33.96-.44,2.61-1,5.28-1.53,7.86-.34,1.61-.68,3.26-1,4.91l-3.76-.73s-.79-1.36-2.39-2.41c-1.45-1.05-3.52-1.65-4.79-1.71-.03-.03-.08-.03-.13-.03-6.17-.32-12.25,3.86-14.11,9.67-.24.76-.42,1.55-.52,2.34-1.55-4.62-3.86-7.41-6.86-8.28-3.57-1.05-7.7.18-10.47,3.07l-1.68-1.76s-.02-.02-.02-.03c-.05-.1-.21-.42-.52-.86-.37-.53-.97-1.21-1.78-1.78-1.28-1-3.16-1.5-4.54-1.5Z" />
    <path class="cls-4"
      d="M90.77,88.88c-.53-.02-.74-.42-.77-.95-.06-.9.36-2.2.53-2.6.32-.69,1.73-2,2.29-.68.13.29.06.63-.02.94-.18.77-.76,3.32-2.03,3.29Z" />
    <path class="cls-4"
      d="M70.13,87.62c-.05-.9.32-2.18.48-2.6.29-.69,1.55-1.99,2.05-.66.11.29.05.61-.02.92-.18.79-.68,3.34-1.82,3.29-.47-.02-.66-.42-.69-.95Z" />
    <path class="cls-4"
      d="M33.52,74.46c-.66-.32-1.46-.14-2.42.32-2.47,1.19-2.99,4.21-3.6,6.62-.76,3.01-1.27,6.08-1.61,9.16-.23,2.08-.34,5.63,2.48,5.88.21.02,1.69-.34,1.31-.71-.59-.57-1.23-1-1.58-1.79-.41-.93-.42-1.97-.35-2.97.16-2.18.5-4.37.89-6.52.39-2.12.89-4.22,1.53-6.27.25-.8.43-1.98,1.31-2.36,1.08-.46,2.33.38,2.81,1.33.41.82.48,1.76.54,2.68-.05-.72.31-1.52.25-2.29-.05-.67-.24-1.34-.54-1.94-.29-.59-.63-.95-1.02-1.14Z" />
    <path class="cls-4"
      d="M45.64,76.38c-.22-.75-.74-1.4-1.49-1.67-1.55-.56-3.54.27-4.64,1.38-.61.62-1.05,1.4-1.39,2.19-.82,1.93-1.4,4.16-1.68,6.25-.1.73-.04,1.67.64,1.95-.51-.2,1.61-5.89,1.85-6.45.54-1.24.98-2.61,1.87-3.65,1.05-1.23,3.02-.81,3.75.65.34.68.36,1.48.31,2.24,0-.1.39-.43.45-.56.14-.28.13-.54.2-.83.13-.53.29-.96.13-1.51Z" />
    <path class="cls-4"
      d="M47.35,81.81c.65-.95,1.51-1.94,2.66-1.98,1.06-.04,2.01.82,2.34,1.84.33,1.01.15,2.12-.21,3.13.03-.72.06-1.47-.19-2.15s-.83-1.3-1.55-1.35c-.89-.06-1.6.68-2.12,1.4-1.4,1.95-2.19,4.15-3.32,6.23-1.65-.31-.62-1.8-.11-2.66.87-1.47,1.54-3.03,2.51-4.45Z" />
    <path class="cls-4"
      d="M47.3,93c-1.46-.76-3.03-1.37-4.67-1.49-2.65-.18-5.35,1.12-5.77,3.99,1.58-1.06,3.12-1.94,5-2.38,1.41-.33,4.07-.83,5.44-.12Z" />
    <path class="cls-4"
      d="M48.65,95.58c.23.12.49.14.75.17,1.31.18,2.57.79,3.51,1.73.24.23.49.51.83.51.26,0,.5-.17.63-.4.13-.23.15-.5.13-.76-.1-1.1-1.07-1.98-2.14-2.29-1.01-.3-2.08-.16-3.1-.06-.54.05-1.63.59-.61,1.11Z" />
    <path class="cls-4"
      d="M84.1,61.1c-.6.4-1.23.72-1.79,1.19-.41.35-.83.69-1.26,1.02-.11.08-.23.15-.34.23-.41.23-.82.45-1.26.63-.96.4-1.96.7-2.95,1-1.1.33-2.23.64-3.39.53-1.05-.09-2.07-.44-3.01-.92-1.55-.79-3.01-2.12-3.3-3.91-.13-.78,0-1.63.32-2.35.25-.56.74-.88,1.04-1.39.04-.07-.1-.09-.14-.09-1.92.05-3.18,2.17-3.19,3.89-.01,2.31,1.84,4.06,3.8,4.98.97.45,1.93.7,2.89.79.67.41,1.85.34,2.48.29,1.5-.11,2.99-.48,4.38-1.04,1.36-.55,2.66-1.26,3.86-2.1.63-.43,1.24-.89,1.83-1.37.26-.21.59-.42.79-.69.16-.21.24-.48.39-.71.34-.52-1.03-.08-1.18.01Z" />
    <path class="cls-4"
      d="M93.51,43.91c-.52-.76-1.15-1.45-1.83-2.05-1.43-1.27-3.13-2.19-4.93-2.8-2.97-1.01-6.79-1.33-9.59.35-3.14,1.09-5.62,3.62-7.03,6.6-.92,1.94-1.4,4.1-1.49,6.24-.05,1.09,0,2.19.09,3.27.09,1.06.1,2.56.79,3.41.16.2.82-.06.89-.28.26-.89.05-1.91-.02-2.82-.08-1.04-.11-2.09-.08-3.14.07-1.97.35-3.96,1.01-5.82,1.22-3.44,4.07-6.63,7.64-7.71.41-.13.85-.17,1.28-.19,2.23-.11,4.44.41,6.44,1.37,1.39.66,2.69,1.53,3.78,2.62.61.61,1.11,1.29,1.58,2,.46.69.94,1.35,1.42,2.03.14.2.82-.07.82-.3,0-1.07-.17-1.89-.78-2.78Z" />
    <path class="cls-4"
      d="M70.83,68.01s-.05-.07-.07-.1c-.02-.02-.04-.04-.07-.04-.06-.01-.12,0-.18.01-.06.01-.12.03-.18.06-.06.03-.13.06-.18.1-.05.04-.1.08-.14.13-.02.02-.04.04-.07.06-.04.04-.1.08-.13.12-.04.05-.07.12-.1.18-.02.04-.04.09-.06.13,0,.02,0,.04,0,.06.03.04.06.07.09.1.05.02.09.03.14.03.07,0,.15-.01.22-.03.15-.04.31-.11.43-.21.03-.03.07-.05.1-.08.04-.03.08-.06.11-.1.03-.04.04-.06.05-.1.02-.05.03-.1.05-.14.01-.03.04-.08.02-.12,0-.02-.02-.03-.03-.05Z" />
    <path class="cls-4"
      d="M72.1,70.22c-.04-.17-.13-.28-.26-.4-.25-.25-.57-.4-.91-.51-.81-.26-1.73-.09-2.5.23-1.45.61-2.64,1.93-3.05,3.46-.11.41-.15.83-.12,1.25.01.2.07.38.28.44.21.07.51-.03.68-.16.19-.15.3-.32.3-.57,0-.18,0-.36.02-.54.04-.38.15-.75.29-1.1.28-.68.73-1.34,1.28-1.83.11-.1.22-.19.33-.27.05-.03.2-.13.2-.13-.06.03.26-.12.09-.04.03-.02.04-.02.05-.03.01,0,.02,0,.05,0-.09.02,0,0,.03,0,.13,0,.24,0,.39.05.27.07.53.23.73.43.1.1.16.22.25.33.11.13.21.24.29.39.12.23.62.08.79.02.17-.05.34-.12.5-.22.09-.06.3-.18.31-.3,0-.16,0-.33-.02-.49Z" />
    <path class="cls-4"
      d="M65.43,75.27c-1.63,1.8-2.34,4.36-2.92,6.67-.62,2.47-1.18,4.96-1.76,7.44-.56,2.4-1.08,4.8-1.37,7.26-.15,1.3-.26,2.6-.37,3.91-.1,1.15-.38,2.4-.16,3.54.07.33,1.17-.16,1.24-.39.4-1.2.38-2.56.49-3.82.12-1.31.24-2.62.42-3.93.32-2.44.86-4.84,1.41-7.23.54-2.39,1.06-4.78,1.63-7.16.28-1.18.53-2.36.87-3.52.26-.91.66-1.81.58-2.77,0-.02-.06.01-.07.02Z" />
    <path class="cls-4"
      d="M60.71,104.14c-1.55-.03-3.12.42-4.52,1.03-3.1,1.36-5.94,3.51-7.82,6.35-3.47,5.24-3.28,12.93,1.5,17.39.17.16,1.12-.2,1-.42-1.31-2.28-2.28-4.52-2.52-7.17-.24-2.67-.05-5.34.98-7.83,1.06-2.6,2.99-4.84,5.31-6.42,1.31-.89,2.85-1.74,4.42-2.03,1.87-.34,3.16.42,4.86.93.04.01.2-.03.19-.09-.17-1.31-2.3-1.72-3.38-1.74Z" />
    <path class="cls-4"
      d="M69.48,108.61c-.27.19-.52.38-.76.59-1.77,1.55-2.62,3.91-3.89,5.84-2.03,3.08-3.81,6.36-6.25,9.14-1.36,1.55-2.97,2.89-4.8,3.86-1.52.81-3.32,1.11-4.74,2.1-3.49,2.43.85,5.41,3.31,6.27.01,0,.08-.02.06-.03-1.11-1.11-2.74-2.32-3.18-3.92-.64-2.3,2.55-2.71,4.08-3.36,2.95-1.25,5.54-3.16,7.66-5.56,2.13-2.41,3.73-5.21,5.46-7.91,2.17-3.38,4.26-6.77,8.63-7.24,2.33-.25,4.46.47,6.38,1.73.17-1.17-.89-1.46-1.72-1.92-1.43-.8-2.84-1.37-4.51-1.41-1.94-.04-4.09.68-5.73,1.82Z" />
    <path class="cls-4"
      d="M69.05,134.42c-.31-.11-.57-.16-.91-.15-.35.01-.61.02-.94-.05-.64-.13-1.14-.56-1.53-1.07-.43-.56-.77-1.18-1.18-1.75-.21-.29-.41-.58-.58-.88-.19-.33-.42-.63-.64-.95-.06-.1-.41.03-.43.13-.08.42-.14.8-.06,1.23.06.37.14.74.26,1.1.12.37.31.72.48,1.06.15.31.31.62.49.92.39.62.87,1.06,1.58,1.27.94.28,1.87.09,2.78-.19.21-.07.46-.19.61-.35.06-.06.22-.25.06-.31Z" />
    <path class="cls-4"
      d="M95.53,133.9c-.09-.16-.42-.08-.55-.05-.34.09-.81.28-1.22.38-.41.1-.85.09-1.27.09-1.17,0-2.39-.13-3.49-.57-.86-.35-1.66-.87-2.32-1.52-.35-.34-.63-.73-.94-1.12-.29-.36-.52-.84-.97-1.01-.05-.02-.17.01-.2.06-.54.9.43,2.23,1.01,2.9.06.07.13.13.19.2-.3-.02-.83.18-.91.22-.5.27-.94.72-1.48.89-.52.16-1.12.14-1.65.06-1.45-.22-2.81-.9-4.06-1.65-1.21-.73-2.2-1.64-2.91-2.87-.33-.57-.59-1.17-.82-1.79-.24-.66-.6-1.24-.95-1.85-.02-.03-.14.01-.14.04-.09.86-.14,1.65.03,2.51.15.76.36,1.53.7,2.23.76,1.55,2.11,2.48,3.59,3.28,1.47.79,3.06,1.31,4.74,1.15.87-.08,1.72-.33,2.51-.71.4-.2,1.55-.74,1.55-1.32.63.63,1.38,1.13,2.23,1.44,1.23.45,2.6.59,3.91.5.71-.05,1.42-.18,2.1-.42.27-.1,1.63-.58,1.33-1.09Z" />
    <path class="cls-4"
      d="M66.37,151.8c-.62-.33-1.32-.61-1.81-.95-1.96-1.34-3.67-3.02-5.05-4.94-1.05-1.46-1.91-3.06-2.53-4.74-.44-1.19-.5-3.66-1.78-4.28-.17-.08-.48.05-.59.19-1.25,1.42-.48,3.62.25,5.14.8,1.68,1.99,3.19,3.19,4.6,1.19,1.4,2.42,2.74,3.78,3.98.76.69,1.53,1.24,2.38,1.8.95.63,1.7,1.16,2.85,1.32,1,.14.89-.78.41-1.33-.27-.31-.67-.56-1.1-.79Z" />
    <path class="cls-4"
      d="M103.27,104.24c-4.86-2.85-11.86.96-15.08,4.83-1.72,2.06-2.71,4.62-2.68,7.31.01,1.47.34,2.84.76,4.24.2.66.42,1.3.72,1.91.35.72.87,1.38,1.14,2.12.02.05.17-.03.15-.06-.72-.95-.97-2.39-1.23-3.54-.31-1.35-.33-2.73-.2-4.11.23-2.42,1.04-4.96,2.39-6.99,1.37-2.05,3.53-3.83,5.78-4.86,2.74-1.26,6.93-.64,9.7.27-.46-.46-.95-.83-1.46-1.13Z" />
    <path class="cls-4"
      d="M74.87,101.37c.25-.12.45-.36.35-.61-.08-.2-.31-.29-.51-.36-2.28-.78-4.68-.88-7.11-.7-1.27.1-2.94.17-4.09.78-1.68.88,1.15.76,1.69.74,1.53-.06,3.06-.07,4.59-.03,1.57.04,3.26.39,4.82.26.09,0,.18-.03.26-.07Z" />
    <path class="cls-4"
      d="M95.24,101.9c.28-.12.49-.36.39-.61-.09-.2-.34-.29-.57-.36-2.52-.78-5.16-.88-7.83-.7-1.4.1-3.24.17-4.5.78-1.85.88,1.26.76,1.87.74,1.68-.06,3.37-.07,5.06-.03,1.72.04,3.59.39,5.3.26.1,0,.19-.03.29-.07Z" />
    <path class="cls-4"
      d="M110.08,130.77c.28-1,.96-1.84,1.68-2.6,1-1.06,2.13-2.03,3.48-2.6s2.94-.66,4.24,0c.59.3,1.3.74,1.83.36.38-.26.42-.84.2-1.24-.22-.4-.64-.66-1.06-.84-1.38-.58-2.97-.51-4.4-.06-1.43.45-2.72,1.25-3.96,2.1-1.39.96-2.79,2.07-3.46,3.63-.53,1.24-.47,2.96.51,3.98.51.54,1.22.56,1.25-.31.03-.83-.57-1.44-.3-2.41Z" />
    <path class="cls-4"
      d="M109.16,136.83c.02.87.62,1.76,1.48,1.9-.45-.86-.24-1.94.28-2.77.51-.82,1.29-1.45,2.02-2.08.74-.63,1.48-1.31,1.89-2.19.39-.84.44-1.98-.21-2.72-.45,1.36-.69,2.37-1.81,3.34-1.39,1.21-3.69,2.38-3.65,4.51Z" />
    <path class="cls-4"
      d="M114.17,139.38c-.47,1.26-.23,2.75.6,3.8-.6-.4-1.22-.81-1.65-1.39-.94-1.27-.51-2.34,1.05-2.4Z" />
    <path class="cls-4"
      d="M123.54,127.19c1.02-.25,2.64-1.43,1.28-2.41-1.11-.79-2.54.06-2.95,1.13-.21.55-.18,1.2.1,1.72.49-.24,1.04-.32,1.57-.45Z" />
    <path class="cls-4"
      d="M110.32,156.65c-.28,1.32-1.5,2.39-2.85,2.48.22.07.44.14.66.21,1.55-.14,3.13.75,3.82,2.13-.98-1.05-2.62-1.42-3.97-.93-1.35.49-2.36,1.79-2.54,3.22-.35.3-.95.14-1.21-.25-.76-1.15,1.1-3.18,1.73-4,.48-.62.95-1.26,1.53-1.79.41-.37.81-.67,1.34-.87.13-.05,1.51-.29,1.5-.22Z" />
    <path class="cls-4"
      d="M99.86,169.7c-.2.25-.4.52-.46.83-.07.31.04.69.33.82.22.11.5.05.7-.09.21-.14.36-.34.5-.54.38-.52.77-1.03,1.15-1.55.38-.51.76-1.02,1.13-1.53.07-.09.13-.21.07-.3-.07-.1-.21-.07-.32-.04-.52.16-1.22.25-1.67.57-.55.39-1.01,1.3-1.43,1.83Z" />
    <path class="cls-4"
      d="M89.63,174.95c-1.48,2.65-1.06,6.23.99,8.47-.4-1.43-.73-2.91-.66-4.39.07-1.49.56-3,1.62-4.05,1.17-1.17,2.88-1.64,4.52-1.86,6.19-.83,12.71,1.34,17.17,5.71.29-1.16-.22-2.41-1.05-3.28s-1.93-1.41-3.04-1.88c-2.84-1.19-5.86-1.94-8.92-2.24-2.51-.24-5.31-.55-7.62.65-1.24.65-2.32,1.64-3,2.86Z" />
    <path class="cls-4"
      d="M35.86,178.39c-2.28-2.95-4.32-6.24-4.83-9.93-.51-3.69.85-7.84,4.06-9.72,1.58-.93,3.48-1.23,5.31-1.14,1.83.1,3.62.58,5.37,1.14,2.03.66,4.1,1.48,5.58,3.02,1.48,1.54,2.21,3.99,1.2,5.88.37-1.89-.58-3.87-2.03-5.14-1.45-1.27-3.34-1.93-5.22-2.35-2.88-.64-6.21-.65-8.44,1.28-1.32,1.14-2.07,2.83-2.42,4.54-.52,2.56-.2,5.24.61,7.72.81,2.48,2.09,4.78,3.51,6.97-1.39-.89-2.61-2.02-3.62-3.32l.91,1.05Z" />
    <path class="cls-4"
      d="M57,171.87c1.3.86,2.37,2.18,2.55,3.73.1.88-.1,1.8-.56,2.55.27-1.79-.66-3.6-2.01-4.8-.53-.47-4.4-2.35-4.36-2.55.27-1.3,3.93.78,4.37,1.07Z" />
    <path class="cls-4"
      d="M54.9,169.64c.06.58.59,1.07,1.17,1.09-.28-.38.01-.96.45-1.14.44-.18.93-.07,1.39.03.95.22,1.9.44,2.86.66-.34-.08-1.03-1.02-1.39-1.25-.6-.38-1.26-.65-1.95-.79-1-.21-2.67-.09-2.52,1.41Z" />
    <path class="cls-3"
      d="M101.8,53.29c.66,1.69-.58,4.78-1.86,6.18-.98-.34-2.03-.61-3.15-.84-2.24-.45-4.49-.66-6.7-.66,1.18-1.18,2.4-2.31,3.76-3.28,1.74-1.24,3.55-2.53,5.84-2.53,1.11,0,1.81.37,2.1,1.13Z" />
    <path class="cls-3"
      d="M128.75,133.2c-.1-.32.08-.66.4-.76.32-.1.66.1.76.4t.02.03c-.11.11-.24.23-.39.32-.23.16-.45.31-.68.42-.03-.15-.08-.27-.11-.42Z" />
    <path class="cls-3"
      d="M128.75,127.52c.37.13.69.32.98.56-.27.37-.52.68-.73.94l-.02.02c-.19-.16-.42-.29-.66-.39-.31-.11-.47-.45-.35-.77.11-.31.47-.48.77-.36Z" />
    <path class="cls-3"
      d="M126.89,125.5c.21.26.16.65-.11.86-.26.19-.65.16-.84-.11-.16-.19-.32-.37-.52-.5.26-.34.5-.65.73-.97.27.21.52.45.74.73Z" />
    <path class="cls-3"
      d="M125.6,129.42c-.36-.29-.61-.65-.76-1.05.4.36.84.6,1.07.74l.16.1.16.08c.26.13.69.36,1.21.52.08.03.16.05.26.06-.19.05-.4.08-.6.08-.53,0-1.05-.18-1.5-.53Z" />
    <path class="cls-3"
      d="M123.83,127.23c.24.34.61.79,1.02,1.15.15.4.4.76.76,1.05.45.35.97.53,1.5.53.19,0,.4-.03.6-.08.44.11.9.15,1.26.19-.31.27-.92.53-1.58.58-.65.06-1.31-.08-1.66-.26l-.23-.11-.21-.13c-.34-.21-.82-.69-1.13-1.27-.31-.58-.4-1.24-.32-1.65Z" />
    <path class="cls-3"
      d="M123.37,125.22c-.27.06-.52.16-.74.32.16-.26.11-.58-.13-.77-.13-.11-.27-.23-.42-.31.31-.19.66-.34,1.03-.42,1.07-.24,2.16.05,3.03.73-.23.32-.47.63-.73.97-.6-.47-1.34-.66-2.05-.52Z" />
    <path class="cls-3" d="M122.58,125.61c-.06.08-.15.15-.24.18.08-.11.18-.19.29-.24-.02.02-.03.05-.05.06Z" />
    <path class="cls-3"
      d="M121.74,125.71c-.19-.16-.39-.31-.6-.44.27-.32.58-.6.94-.81.15.08.29.19.42.31.24.19.29.52.13.77-.11.05-.21.13-.29.24-.19.08-.42.06-.6-.08Z" />
    <path class="cls-3"
      d="M121.92,141.7c.19.27.13.65-.15.84-.05.03-.1.06-.15.1-.08-.03-.15-.05-.19-.08l-.1-.05-.1-.06c-.18-.08-.4-.36-.55-.65.13-.06.26-.16.39-.24.27-.19.65-.13.84.15Z" />
    <path class="cls-3"
      d="M121.15,125.27c.21.13.4.27.6.44.18.15.4.16.6.08-.34.29-.56.71-.68,1.21-.55,2.28.68,4.29,2.13,5.28,1.61,1.07,3.5,1.05,5.05-.05.63-.47.94-1.19.84-1.95-.08-.5-.32-.94-.69-1.24l.02-.02c.21-.26.45-.57.73-.94.63.48,1.03,1.21,1.15,2.03.15,1.03-.21,2.05-.95,2.76t-.02-.03c-.1-.31-.44-.5-.76-.4-.32.1-.5.44-.4.76.03.15.08.27.11.42-.81.44-1.68.65-2.55.65-1.1,0-2.2-.32-3.18-.98-2.18-1.45-3.24-4.08-2.66-6.55.13-.55.37-1.03.68-1.45Z" />
    <path class="cls-3"
      d="M121.78,142.54c.27-.19.34-.56.15-.84s-.56-.34-.84-.15c-.13.08-.26.18-.39.24-.11-.24-.19-.48-.16-.69.47.05,1.1.19,1.31.29l.06.03.08.05c.19.11.66.56.97.9-.29.27-.94.34-1.32.26.05-.03.1-.06.15-.1Z" />
    <path class="cls-3"
      d="M121.63,142.64c-.98.68-2.15,1.13-3.34,1.32-.21-.23-.4-.48-.58-.77-.11-.19-.32-.31-.53-.31v-.02c1.24-.05,2.47-.4,3.52-1.07.15.29.37.57.55.65l.1.06.1.05s.11.05.19.08Z" />
    <path class="cls-3"
      d="M120.32,113.22c-3.03.69-6.26,2-9.96,4.04.13-1.94.37-3.87.69-5.79,2.89-1.39,5.58-2.36,8.18-2.95,4.39-1.02,10.57-.56,13.51,4.05,3.7,5.78-.68,12.43-3.02,15.53-.29-.24-.61-.44-.98-.56-.31-.13-.66.05-.77.36-.11.32.05.66.35.77.24.1.47.23.66.39-.34.44-.81.71-1.29.84-.1-.02-.18-.03-.26-.06-.52-.16-.95-.39-1.21-.52l-.16-.08-.16-.1c-.23-.15-.66-.39-1.07-.74-.29-.76-.18-1.65.36-2.34.08-.1.16-.19.23-.29.19.13.36.31.52.5.19.27.58.31.84.11.27-.21.32-.6.11-.86-.23-.27-.47-.52-.74-.73,3.1-4.28,3.92-7.42,2.53-9.62-1.48-2.32-5.28-2.65-8.36-1.94Z" />
    <path class="cls-3"
      d="M119.68,146.06c-1.18-.23-2.13-.89-2.84-1.99h.06c.47,0,.94-.03,1.39-.11.45.48.98.77,1.61.9,1.45.27,3.41-.4,5.21-1.84,3.29-2.61,4.62-5.92,3.74-9.41.23-.11.45-.26.68-.42.15-.1.27-.21.39-.32,1.21,4.13-.24,8.07-4.07,11.1-1.74,1.39-3.66,2.16-5.31,2.16-.29,0-.6-.03-.87-.08Z" />
    <path class="cls-3"
      d="M116.66,143.8c-.16-.29-.06-.66.23-.84.1-.05.19-.08.29-.08.21,0,.42.11.53.31.18.29.37.55.58.77-.45.08-.92.11-1.39.11h-.06c-.06-.08-.13-.18-.18-.27Z" />
    <path class="cls-3"
      d="M116.89,138.51c.15.29.03.66-.27.81-.03.02-.06.03-.11.05-.06-.1-.11-.18-.15-.24l-.08-.13-.06-.13c-.08-.15-.15-.36-.19-.61.02,0,.03-.02.05-.02.31-.15.66-.03.82.27Z" />
    <path class="cls-3"
      d="M116.01,138.25c-.08-.48-.1-1.1.05-1.45.42.4,1.03,1.18,1.23,1.52l.06.11.05.11c.18.36.48,1.29.57,1.87-.48-.11-1.15-.63-1.47-1.05.05-.02.08-.03.11-.05.31-.15.42-.52.27-.81-.16-.31-.52-.42-.82-.27-.02,0-.03.02-.05.02Z" />
    <path class="cls-3"
      d="M114.11,171.16c-.73-1.34-2.23-2.23-3.08-2.52.44-.19.84-.45,1.19-.76.97.6,2.05,1.74,2.45,3.02.27.79.34,1.55.34,2.08-.02.53-.08.86-.08.86,0,0-.03-1.37-.82-2.68Z" />
    <path class="cls-3"
      d="M112.06,139.52c.16-.29.53-.4.81-.24.31.16.42.52.26.82h-.05c-.4,0-.81-.03-1.19-.11.03-.16.1-.32.18-.47Z" />
    <path class="cls-3"
      d="M112.42,131.71c.27-.18.66-.1.84.18.1.16.11.34.06.5-.13.16-.27.29-.4.39-.1.08-.71-.77-.73-.92.08-.05.15-.1.23-.15Z" />
    <path class="cls-3"
      d="M112.51,142.51c-.61-.71-.86-1.69-.63-2.52.39.08.79.11,1.19.11h.05c-.27.52-.06,1.19.31,1.6.37.45,1,.77,1.82.97.63.15,1.27.21,1.92.19v.02c-.1,0-.19.03-.29.08-.29.18-.39.55-.23.84.05.1.11.19.18.27-.63,0-1.26-.08-1.87-.23-1.07-.26-1.9-.71-2.45-1.34Z" />
    <path class="cls-3"
      d="M112.17,131.86v-.03c.47-.34,1.31-1.08,1.78-2,.47-.89.55-1.81.55-1.81,0,0,.24.89.02,2-.15.87-.66,1.79-1.19,2.37.05-.16.03-.34-.06-.5-.18-.27-.56-.36-.84-.18-.08.05-.15.1-.23.15h-.02Z" />
    <path class="cls-3"
      d="M110.98,175.48c-.06-.05.47-1.05.6-1.05h.02c.11.06.23.13.34.24.18.19.21.5.06.74-.18.27-.55.36-.82.18-.06-.05-.13-.08-.19-.11Z" />
    <path class="cls-3"
      d="M111.17,175.6c.27.18.65.1.82-.18.15-.24.11-.55-.06-.74.61.48,1.28,1.44,1.44,2.37.13.53.1,1.05.05,1.4-.06.29-.13.5-.15.53,0-.1-.02-.94-.47-1.74-.39-.76-1.13-1.34-1.63-1.65Z" />
    <path class="cls-3" d="M111.03,168.64c-.11-.05.27-1.19.45-1.13.23.08.48.21.74.37-.36.31-.76.57-1.19.76Z" />
    <path class="cls-3"
      d="M109.99,133.5c.65-.66,1.42-1.16,2.18-1.65h.02c.02.15.63,1,.73.92.13-.1.27-.23.4-.39-.03.13-.13.26-.26.34l-.02.02c-.81.5-1.65,1.02-2.28,1.66-.06.06-.11.13-.16.19h-.02s.06-.11.08-.18c.11-.32-.06-.66-.37-.77-.11-.03-.21-.08-.31-.15Z" />
    <path class="cls-3"
      d="M111.06,111.46c-.32,1.92-.56,3.86-.69,5.79-.42.23-.84.47-1.28.73.11-1.95.34-3.92.65-5.86.44-.24.89-.45,1.32-.66Z" />
    <path class="cls-3"
      d="M109.24,127.6c.37-.42.77-.79,1.16-1.08v.11l.03.87c.02.34-.24.61-.56.63h-.03c-.31,0-.58-.23-.6-.53Z" />
    <path class="cls-3"
      d="M109.91,134.8c-.26-.08-.48-.19-.69-.36.19-.31.42-.6.69-.87.03-.03.05-.05.08-.06.1.06.19.11.31.15.31.11.48.45.37.77-.02.06-.05.13-.08.18-.11.15-.31.23-.48.23-.06,0-.13,0-.19-.03Z" />
    <path class="cls-3"
      d="M110.06,139.3c-.44-.31-.79-.69-1.02-1.15.1-.24.34-.4.63-.36.34.05.56.36.52.68-.05.27-.1.55-.13.82Z" />
    <path class="cls-3"
      d="M110.19,138.48c.05-.32-.18-.63-.52-.68-.29-.05-.53.11-.63.36-.27-.47-.42-1.02-.44-1.63-.03-.69.18-1.4.61-2.08.21.16.44.27.69.36.06.03.13.03.19.03.18,0,.37-.08.48-.23h.02c-.55.61-.82,1.27-.79,1.87.03.89.39,1.52,1.08,1.92,1.36.79,3.7.55,5.12-.15.05.26.11.47.19.61l.06.13.08.13c.03.06.08.15.15.24-.94.45-2.16.74-3.37.74.16-.31.05-.66-.26-.82-.27-.16-.65-.05-.81.24-.08.15-.15.31-.18.47-.6-.1-1.15-.27-1.61-.55-.08-.05-.15-.1-.21-.15.03-.27.08-.55.13-.82Z" />
    <path class="cls-3"
      d="M109.22,127.56l-.03-.89c-.13-2.84-.27-5.78-.1-8.67v-.03c.44-.26.86-.5,1.28-.73-.03.27-.05.55-.06.82-.16,2.79-.03,5.67.1,8.44-.39.29-.79.66-1.16,1.08t-.02-.03Z" />
    <path class="cls-3"
      d="M109.74,112.12c-.31,1.94-.53,3.91-.65,5.86-.76.44-1.53.9-2.34,1.4-1.15.69-2.63.36-3.34-.77-.71-1.15-.35-2.63.77-3.34,1.95-1.21,3.79-2.26,5.55-3.15Z" />
    <path class="cls-3"
      d="M109.22,134.44c-1.36-.87-1.86-2.79-1.45-4.31.27-1,.84-1.84,1.47-2.53.02.31.29.53.6.53h.03c.32-.02.58-.29.56-.63l-.03-.87v-.11c.16-.15.32-.27.47-.39.36-.27.73-.58,1.1-.89,1.29-1.11,2.76-2.36,4.54-2.42,2.02-.05,4.04.52,5.58,1.65-.35.21-.66.48-.94.81-1.31-.86-2.97-1.29-4.62-1.24-1.34.05-2.58,1.1-3.79,2.13-.39.32-.76.65-1.15.94-1.5,1.15-2.34,2.21-2.66,3.34-.29,1.1.08,2.52,1.07,3.07-.03.02-.05.03-.08.06-.27.27-.5.56-.69.87Z" />
    <path class="cls-3"
      d="M108.91,162.72c-.1-.15-.21-.27-.34-.4.61.21,1.13.69,1.4,1.34.27.65.24,1.36-.03,1.95-.02-.11-.03-.23-.05-.34-.06-.48-.23-.92-.31-1.18l-.05-.16s-.05-.1-.08-.16c-.1-.24-.26-.66-.55-1.05Z" />
    <path class="cls-3"
      d="M109.98,163.65c-.27-.65-.79-1.13-1.4-1.34-.21-.23-.45-.42-.66-.57.37-.1,1.03-.02,1.58.32.55.34.94.87,1.08,1.21.03.06.06.15.1.23l.06.23c.11.34.18.98.02,1.58-.15.61-.52,1.15-.82,1.39.03-.31.03-.69.02-1.08v-.02c.27-.6.31-1.31.03-1.95Z" />
    <path class="cls-3"
      d="M107.51,158.76c-.18.23-.32.47-.44.76-.11.31-.48.47-.79.32-.21-.08-.34-.29-.36-.5.48-.29,1.02-.48,1.58-.58Z" />
    <path class="cls-3"
      d="M105.49,167.32c-.21-.26-.18-.63.08-.84.26-.21.65-.18.86.08.26.31.56.56.9.77-.45.18-.9.34-1.37.47-.18-.15-.32-.31-.47-.48Z" />
    <path class="cls-3"
      d="M103.49,163.49c0-1.6.89-3.2,2.29-4.07.05-.03.1-.06.15-.08.02.21.15.42.36.5.31.15.68-.02.79-.32.11-.29.26-.53.44-.76,1.1-.23,2.26-.1,3.31.39,1.82.84,3.1,2.73,3.16,4.7.06,1.55-.63,3.05-1.76,4.04-.26-.16-.52-.29-.74-.37-.18-.06-.56,1.08-.45,1.13-.02,0-.02.02-.03.02-.58.24-1.19.36-1.82.36-1.18,0-2.36-.42-3.21-1.21.47-.13.92-.29,1.37-.47.94.53,2.15.65,3.18.21,1.37-.58,2.32-2.13,2.26-3.65-.05-1.52-1.03-2.99-2.47-3.63-1.24-.58-2.76-.5-3.87.19-.95.58-1.58,1.61-1.69,2.68-.4.11-.82.24-1.24.36Z" />
    <path class="cls-3"
      d="M104.72,163.82c.03.34-.21.63-.55.66-.32.02-.63-.21-.66-.55-.02-.15-.02-.29-.02-.44.42-.11.84-.24,1.24-.36-.03.23-.03.45-.02.68Z" />
    <path class="cls-3"
      d="M105.15,185.6c-2.94.16-5.89-.11-8.75-.81.71.08,1.42.15,2.05.16,2.63.13,5.31.15,7.92.05,2.34-.1,4.1-.45,5.55-1.16,1.29-.63,2.02-2.02,2.71-3.36l.13-.24c.9-1.73,1.63-3.34,2.24-4.96,1.5-3.92,2.11-7.33,1.9-10.41-.11-1.61-.68-4.6-3.13-6.42-1.63-1.23-4.1-1.71-6.02-1.19-.71.21-1.63.61-2.26,1.5-.56.1-1.1.29-1.58.58-.02-.1-.02-.19.03-.29.63-1.47,1.82-2.5,3.49-2.95,2.28-.63,5.12-.06,7.07,1.39,2.1,1.57,3.39,4.15,3.6,7.3.24,3.28-.4,6.84-1.95,10.93-.65,1.66-1.39,3.32-2.31,5.08l-.13.26c-.5.95-1.05,2-1.84,2.82-.61,0-1.21.08-1.81.26-1.08.31-1.89.89-3.03,1.1-1.28.24-2.58.31-3.89.37Z" />
    <path class="cls-3"
      d="M101.46,60.41c.05-.1.11-.18.16-.27.39.15.76.32,1.11.5-.08.13-.16.26-.24.39-.11.19-.31.29-.52.29-.11,0-.21-.02-.31-.08-.29-.18-.39-.55-.21-.82Z" />
    <path class="cls-3"
      d="M101.38,172.1c-.68-.08-1.31-.16-1.92-.21.19-.08.34-.26.37-.48.03-.23.08-.45.16-.68.5.05,1.02.11,1.55.18,3.57.45,7.04,1.68,10.04,3.53-.13,0-.66,1-.6,1.05-2.87-1.78-6.18-2.95-9.6-3.39Z" />
    <path class="cls-3"
      d="M100.07,60.81c.15,0,.29-.05.4-.16.23-.19.44-.45.66-.73.16.06.32.13.48.21-.05.1-.11.18-.16.27-.18.27-.08.65.21.82.1.06.19.08.31.08.21,0,.4-.1.52-.29.08-.13.16-.26.24-.39,11.62,5.89,13.77,20.95,11.52,34.33-.45,2.65-1,5.33-1.55,7.91-.58,2.81-1.19,5.68-1.65,8.59-.44.21-.89.42-1.32.66.23-1.53.5-3.07.79-4.58.32-1.65.66-3.29,1-4.91.53-2.58,1.1-5.25,1.53-7.86,2.29-13.67-.1-29.18-12.99-33.96Z" />
    <path class="cls-3"
      d="M98.74,170.66c.13-.56.36-1.08.63-1.58.55-.03,1.08-.1,1.61-.18-.45.53-.81,1.16-1,1.82-.42-.03-.84-.06-1.24-.06Z" />
    <path class="cls-3" d="M99.71,60.68c.11.03.23.08.34.13-.11,0-.24-.03-.34-.13Z" />
    <path class="cls-3"
      d="M99.37,169.08c.61-1.05,1.53-1.94,2.65-2.47.31-.13.66-.02.81.29.15.31.02.66-.29.81-.58.27-1.11.69-1.55,1.19-.53.08-1.07.15-1.61.18Z" />
    <path class="cls-3"
      d="M100.05,60.81c-.11-.05-.23-.1-.34-.13-.03-.02-.06-.03-.1-.06-.23-.24-.21-.63.05-.86.1-.08.19-.18.27-.29.42.13.81.29,1.19.45-.23.27-.44.53-.66.73-.11.11-.26.16-.4.16h-.02Z" />
    <path class="cls-3" d="M99.44,171.89c-.06.02-.15.03-.21.03h-.08s-.1-.02-.15-.05c.15,0,.29.02.44.02Z" />
    <path class="cls-3"
      d="M99.34,103.89s-.03,0-.03-.03h.1c.32.05.61-.24.63-.56.02-.29-.18-.55-.45-.6,1.27.06,3.34.66,4.79,1.71,1.6,1.05,2.39,2.41,2.39,2.41,0,0-1.05-1.16-2.68-1.87-1.61-.77-3.65-1.05-4.75-1.05Z" />
    <path class="cls-3"
      d="M99.31,103.85c-.13-.16-.1-1.19.08-1.18.06,0,.13,0,.19.02.27.05.47.31.45.6-.02.32-.31.61-.63.56h-.1Z" />
    <path class="cls-3"
      d="M98.74,170.66c.4,0,.82.03,1.24.06-.08.23-.13.45-.16.68-.03.23-.18.4-.37.48h-.02c-.15,0-.29-.02-.44-.02-.24-.1-.42-.36-.37-.63.03-.19.06-.39.11-.58Z" />
    <path class="cls-3"
      d="M127.09,187.09c0,2.26-20.8,4.08-46.45,4.08s-46.45-1.82-46.45-4.08c0-.97,3.78-1.86,10.12-2.57h.02c2.57.36,5.13.53,7.7.53,1.31,0,2.6-.05,3.91-.15,1.57-.11,3.49-.37,5-1.4.13-.05.26-.1.39-.15,5.88-.24,12.43-.37,19.32-.37,2.28,0,4.66-.05,6.97.03.77.03,1.53.06,2.31.13,2.15,2.44,5.83,2.89,8.47,3.02,1.5.08,3.02.11,4.52.11,1.18,0,2.36-.02,3.52-.06,2.5-.1,4.42-.5,6.02-1.28.56-.27,1.03-.63,1.44-1.07,1.6-.02,3.21.42,4.75.73,1.48.29,2.97.63,4.47.81.86.1,3.99.42,3.99,1.68Z" />
    <path class="cls-3"
      d="M97.73,169.16c-1.32,0-2.86-.21-4.12-1.24-1.65-1.34-2.02-3.39-2.21-4.49-.36-2-.63-4.03-.84-6.08,1.53-.29,3.13-.71,4.75-1.28.21,2.18.48,4.36.87,6.5.16.92.32,1.45.48,1.58.06.05.36.21,1.52.16,1.81-.08,3.58-.37,5.31-.82,0,.15,0,.29.02.44.03.34.34.56.66.55.34-.03.58-.32.55-.66-.02-.23-.02-.45.02-.68.71-.24,1.4-.48,2.08-.77.6-.26,1.21-.26,1.76-.05.13.13.24.26.34.4.29.39.45.81.55,1.05.03.06.06.11.08.16l.05.16c.08.26.24.69.31,1.18.02.11.03.23.05.34v.02c-.26.52-.68.95-1.26,1.19-.45.19-.9.37-1.36.52-.34-.21-.65-.47-.9-.77-.21-.26-.6-.29-.86-.08-.26.21-.29.58-.08.84.15.18.29.34.47.48-1.63.53-3.29.89-4.97,1.1.44-.5.97-.92,1.55-1.19.31-.15.44-.5.29-.81-.15-.31-.5-.42-.81-.29-1.11.53-2.03,1.42-2.65,2.47-.32.03-.65.05-.97.06-.21.02-.45.02-.68.02Z" />
    <path class="cls-3"
      d="M96.32,50.54c-.03-.26-.06-.5-.1-.76,1.13-.5,2.81-.98,4.57-.58,1.9.44,3.41,1.92,3.94,3.87.77,2.84-.63,5.34-2,7.55-.36-.18-.73-.36-1.11-.5,1.32-2.13,2.6-4.33,1.95-6.73-.42-1.53-1.58-2.68-3.05-3.02-1.48-.34-2.95.11-3.92.55-.18.08-.37.16-.55.26l-.03-.05c.21-.11.34-.36.31-.6Z" />
    <path class="cls-3"
      d="M95.81,51.21c-.36.03-.65-.19-.68-.52-.02-.11-.03-.24-.05-.36.34-.18.68-.36,1.02-.5.03-.02.08-.03.13-.05.03.26.06.5.1.76.03.24-.1.48-.31.6-.06.03-.13.06-.21.06Z" />
    <path class="cls-3" d="M96.37,184.8c-1.44-.21-2.97-.58-4.21-1.36.76.21,1.45.56,2.24.81.65.21,1.31.39,1.97.55Z" />
    <path class="cls-3"
      d="M94.81,47.06c-.13.15-.27.31-.44.45-.15-.42-.32-.82-.5-1.23l.03-.03c.23-.26.61-.27.86-.05.26.23.27.6.05.86Z" />
    <path class="cls-3"
      d="M98.39,186.17c-2.65-.13-6.33-.58-8.47-3.02.48.03.97.08,1.45.13.27.03.53.08.77.16h.02c1.24.77,2.78,1.15,4.21,1.36h.03c2.86.69,5.81.97,8.75.81,1.31-.06,2.61-.13,3.89-.37,1.15-.21,1.95-.79,3.03-1.1.6-.18,1.19-.26,1.81-.26-.4.44-.87.79-1.44,1.07-1.6.77-3.52,1.18-6.02,1.28-1.16.05-2.34.06-3.52.06-1.5,0-3.02-.03-4.52-.11Z" />
    <path class="cls-3"
      d="M94.31,72.06c-.48.19-.79.44-.92.71-.13.29-.11.63.05.94.16.36.48.61.81.69,1.34.34,2.73.76,3.76,1.95.11.13.24.27.37.44.39.48.97,1.23,1.42,1.28.08,0,.21,0,.4-.16,1.13-.94.58-2.49.39-2.94-.97-2.21-3.65-3.95-6.28-2.91ZM92.09,73.17c0-.31.06-.61.19-.9.26-.56.79-1.02,1.57-1.32,2.95-1.19,6.47.4,7.84,3.55.74,1.69.47,3.36-.73,4.33-.36.31-.74.45-1.13.45-.06,0-.11,0-.18-.02-.97-.1-1.68-.98-2.24-1.71-.11-.15-.23-.29-.32-.4-.81-.94-1.9-1.26-3.15-1.57-.68-.18-1.28-.66-1.6-1.32-.18-.34-.26-.71-.26-1.08Z" />
    <path class="cls-3"
      d="M95.26,87.38c-.73,4.13-1.44,8.23-2.18,12.36-.16-.05-.32-.08-.47-.1l.13-.81c.52-3.49,1.05-7.09,1.45-10.62.05-.4.13-.87.23-1.37.23-1.19.39-2.31.34-3.23,1.05.89.71,2.61.5,3.76Z" />
    <path class="cls-3"
      d="M93.11,100.45c-.19-.03-.36-.15-.44-.31.11.03.21.06.32.1.03-.16.06-.34.08-.5.23.06.47.13.73.23-.06.32-.36.53-.69.48Z" />
    <path class="cls-3"
      d="M92.61,99.64c.15.02.31.05.47.1-.02.16-.05.34-.08.5-.11-.03-.21-.06-.32-.1-.06-.1-.1-.24-.08-.37l.02-.13Z" />
    <path class="cls-3"
      d="M95.31,156.07c-1.61.56-3.21.98-4.75,1.28-.03-.27-.05-.55-.08-.82.18-.03.34-.06.5-.15,1.26.05,2.57-.19,3.73-.63.18-.08.37-.16.55-.24.02.19.03.37.05.57Z" />
    <path class="cls-3"
      d="M96.57,59.82c-2.6-.52-5.18-.73-7.68-.61.39-.42.79-.82,1.21-1.24,2.21,0,4.45.21,6.7.66,1.11.23,2.16.5,3.15.84-.08.11-.18.21-.27.29-.26.23-.27.61-.05.86.03.03.06.05.1.06-.98-.36-2.03-.63-3.15-.86Z" />
    <path class="cls-3"
      d="M89.59,182.76c-2.24-2.97-1.5-8.13,1.52-10.41,1.69-1.31,4.21-1.86,7.63-1.69-.05.19-.08.39-.11.58-.05.27.13.53.37.63-3.29-.19-5.63.29-7.17,1.45-2.47,1.87-3.12,6.28-1.28,8.72.44.58.98,1.03,1.58,1.4-.24-.08-.5-.13-.77-.16-.48-.05-.97-.1-1.45-.13-.11-.13-.23-.26-.32-.39Z" />
    <path class="cls-3"
      d="M92.68,100.14c-1.81-.6-3.74-.82-5.67-.5,0-.11,0-.24.02-.36,1.78-.13,3.58-.02,5.33.29l.05.02c.06.02.13.02.21.05l-.02.13c-.02.13.02.27.08.37Z" />
    <path class="cls-3"
      d="M88.56,58c.52-.03,1.02-.03,1.53-.03-.42.42-.82.82-1.21,1.24-.1-.02-.18,0-.27,0-.36.03-.61-.24-.63-.56,0-.13.03-.26.11-.37.02,0,.02-.02.03-.03.03-.03.08-.06.11-.11.08-.08.19-.13.32-.13Z" />
    <path class="cls-3"
      d="M93.85,54.69c-1.36.97-2.58,2.1-3.76,3.28-.52,0-1.02,0-1.53.03-.13,0-.24.05-.32.13,1.52-1.57,3.1-3.13,4.91-4.42,1.82-1.29,3.87-2.76,6.55-2.76,2.05,0,2.89,1.03,3.23,1.9.79,2.03-.4,5.26-1.79,7.07-.39-.16-.77-.32-1.19-.45,1.27-1.4,2.52-4.49,1.86-6.18-.29-.76-.98-1.13-2.1-1.13-2.29,0-4.1,1.29-5.84,2.53Z" />
    <path class="cls-3" d="M88.24,58.13s-.08.08-.11.11c.02-.05.06-.1.11-.11Z" />
    <path class="cls-3"
      d="M87.03,99.29c.13-4.55.98-9.07,2.53-13.44.27-.77.97-1.66,1.73-2.2.68-.48,1.63-.77,2.49-.55.42.11.74.27.98.52.05.92-.11,2.03-.34,3.23-.1.5-.18.97-.23,1.37-.4,3.53-.94,7.13-1.45,10.62l-.13.81c-.08-.03-.15-.03-.21-.05l-.05-.02c-1.74-.31-3.55-.42-5.33-.29ZM90,87.92c.03.53.24.94.77.95,1.27.03,1.86-2.52,2.03-3.29.08-.31.15-.65.02-.94-.56-1.32-1.97-.02-2.29.68-.18.4-.6,1.69-.53,2.6Z" />
    <path class="cls-3"
      d="M86.28,119.72c.53,1.79,1.18,3.55,2.23,5.04,1.73,2.45,3.47,2.76,6.36,3.24l.42.08c1.42.24,3.11.73,3.63,2.23.34,1.03-.03,2.26-1.02,3.37-1.53,1.71-3.83,2.74-6.12,2.74h-.03c-2-.02-3.99-.81-5.47-2.15l-.13-.1c.26-.13.86-.73.79-.79-.18-.19-.42-.44-.66-.73.1.02.18.08.26.16,1.29,1.48,3.24,2.37,5.21,2.39h.03c1.95,0,3.91-.87,5.21-2.34.26-.29,1.07-1.29.77-2.18-.31-.9-1.6-1.23-2.7-1.42l-.4-.08c-2.99-.5-5.15-.87-7.15-3.74-.6-.84-1.07-1.74-1.45-2.68.11.13.27.19.44.19.08,0,.16-.02.23-.06.31-.13.45-.48.32-.79-.34-.77-.6-1.58-.77-2.39Z" />
    <path class="cls-3"
      d="M85.49,133.12c.03-.23.19-.42.42-.48.13-.03.26-.02.37.03.24.29.48.53.66.73.06.06-.53.66-.79.79-.05.03-.08.05-.1.03-.21-.21-.42-.5-.65-.84.03-.08.06-.18.08-.26Z" />
    <path class="cls-3" d="M86.06,122.75s.02.02.02.02c-.02,0-.02-.02-.02-.02Z" />
    <path class="cls-3"
      d="M85.7,117.64c-.15-.55-.29-1.08-.45-1.63-.13-.47-.27-.92-.42-1.34.1-.79.27-1.58.52-2.34,1.86-5.81,7.94-9.99,14.11-9.67.05,0,.1,0,.13.03-.06-.02-.13-.02-.19-.02-.18-.02-.21,1.02-.08,1.18-5.63-.21-11.14,3.57-12.82,8.84-.69,2.21-.77,4.66-.21,7.02-.21-.69-.4-1.39-.58-2.08Z" />
    <path class="cls-3"
      d="M85.41,133.38c-.45-.71-.89-1.65-1.1-2.53-.35-1.31-.27-2.42-.27-2.42,0,0,.24,1.08.84,2.2.37.76.92,1.48,1.4,2.05-.11-.05-.24-.06-.37-.03-.23.06-.39.26-.42.48-.02.08-.05.18-.08.26Z" />
    <path class="cls-3" d="M85.95,122.59c-.39-.87-.68-1.78-.87-2.7.29.97.6,1.94.98,2.86-.05-.05-.08-.1-.11-.16Z" />
    <path class="cls-3"
      d="M85.25,116.01c.16.55.31,1.08.45,1.63.18.69.37,1.39.58,2.08.18.81.44,1.61.77,2.39.13.31-.02.66-.32.79-.06.05-.15.06-.23.06-.16,0-.32-.06-.44-.19,0,0-.02,0-.02-.02-.39-.92-.69-1.89-.98-2.86-.02-.02-.03-.05-.03-.08-.37-1.71-.45-3.45-.21-5.15.15.42.29.87.42,1.34Z" />
    <path class="cls-3"
      d="M83.3,100.06c-.06-3.26,0-7.07,1-10.77,1.36-5,3.55-7.97,6.73-9.05,1.05-.36,1.97-.39,2.73-.1,2.92,1.13,2.28,4.6,1.86,6.91-.1.48-.18.92-.21,1.29-.42,3.57-.95,7.18-1.47,10.67l-.13.94v.02c-.26-.1-.5-.16-.73-.23.74-4.13,1.45-8.23,2.18-12.36.21-1.15.55-2.87-.5-3.76-.06-1.11-.44-1.95-1.44-2.34-.48-.18-1.13-.15-1.9.11-2.76.94-4.71,3.63-5.96,8.23-.92,3.41-1.02,6.96-.95,10.04-.39.11-.81.24-1.21.4Z" />
    <path class="cls-3" d="M84.51,100.03c0,.34-.26.61-.6.61s-.61-.26-.61-.58c.4-.16.82-.29,1.21-.4v.37Z" />
    <path class="cls-3"
      d="M85.86,100.61c-.98.13-3.26.4-4.71.58.44-.4,1.27-.79,2.15-1.13,0,.32.27.58.61.58s.6-.27.6-.61v-.37c.47-.13.87-.21,1.19-.24h.06c.42-.05.84-.1,1.26-.13-.02.11-.02.24-.02.36,1.92-.32,3.86-.1,5.67.5.08.16.24.27.44.31.34.05.63-.16.69-.48,1.16.39,2.5,1.02,3.07,1.58-1.21-.16-3.65-.61-4.68-.77h-.05c-2.05-.37-4.16-.44-6.23-.16h-.05Z" />
    <path class="cls-3"
      d="M82.06,158.15c-4.62,0-8.78-.61-12.46-1.86.21-.36.42-.71.65-1.07,3.79,1.24,8.17,1.81,13.01,1.69,6.79-.16,22.9-2.21,25.61-17.79.03-.27.08-.56.13-.84.02-.05.02-.1.05-.15.23.45.58.84,1.02,1.15-.02.02-.02.03-.02.05-1.68,9.7-8.2,14.45-14.74,16.72-.02-.19-.03-.37-.05-.57-.18.08-.37.16-.55.24-1.16.44-2.47.68-3.73.63-.16.08-.32.11-.5.15.03.27.05.55.08.82-2.82.56-5.39.74-7.28.79-.42,0-.82.02-1.23.02Z" />
    <path class="cls-3"
      d="M82.57,136.12c-3.53.26-7.04-1.44-9.09-4.29.26-.02,1.05-.45,1-.56-.06-.11-.13-.24-.19-.39,1.76,2.65,5.04,4.29,8.2,4.04.77-.05,1.37-.21,1.84-.47.44-.26.89-.65,1.08-1.07.23.34.44.63.65.84.02.02.05,0,.1-.03l.13.1c-.45.65-1.1,1.07-1.36,1.21-.63.36-1.37.57-2.36.63Z" />
    <path class="cls-3"
      d="M73.45,131.83s-.05-.02-.05-.03c-.19-.36-.37-.82-.53-1.36.03-.03.05-.06.06-.1.11-.18.31-.34.53-.29.21,0,.4.11.52.31.08.15.18.29.26.44.02.03.03.05.05.08.06.15.13.27.19.39.05.11-.74.55-1,.56,0-.02-.02-.02-.02-.03,0,.02-.02.02-.02.03Z" />
    <path class="cls-3" d="M73.45,131.83s.02-.02.02-.03c0,.02.02.02.02.03h-.03Z" />
    <path class="cls-3"
      d="M72.52,98.56c.45-3.49.94-7.09,1.29-10.64.05-.4.13-.87.21-1.39.21-1.23.36-2.36.31-3.29,1,.87.69,2.65.52,3.83-.65,4.13-1.31,8.26-1.95,12.38-.18-.05-.32-.1-.48-.13l.11-.76Z" />
    <path class="cls-3"
      d="M72.87,130.44c-.31-1.03-.53-2.32-.52-3.49-.02-1.76.4-3.16.4-3.16,0,0-.11,1.45.19,3.11.23,1.42.82,2.91,1.29,3.89-.08-.15-.18-.29-.26-.44-.11-.19-.31-.31-.52-.31-.23-.05-.42.11-.53.29-.02.03-.03.06-.06.1Z" />
    <path class="cls-3"
      d="M72.92,100.16c-.21-.03-.37-.16-.47-.34.11.03.24.06.36.11.03-.16.05-.32.08-.48.23.08.45.16.69.26-.06.29-.34.52-.66.45Z" />
    <path class="cls-3"
      d="M72.45,99.82c-.05-.1-.08-.21-.06-.34l.02-.16c.16.03.31.08.48.13-.03.16-.05.32-.08.48-.11-.05-.24-.08-.36-.11Z" />
    <path class="cls-3"
      d="M67.26,150.89c.74-1.11,2.24-1.42,3.36-.69,1.11.73,1.44,2.23.69,3.36-.36.55-.71,1.11-1.07,1.68-.58-.18-1.16-.37-1.71-.6-.95-.37-1.89-.82-2.79-1.36.5-.81,1-1.6,1.52-2.39Z" />
    <path class="cls-3"
      d="M70.6,66.55c.42.1.82.16,1.19.21,2.58.31,5.28-.13,7.62-1.23,2.68-1.26,4.94-3.39,6.99-5.49l1.07-1.11c.21-.21.42-.44.63-.66-.08.11-.11.24-.11.37.02.32.27.6.63.56.1,0,.18-.02.27,0-.19.19-.37.37-.55.57l-1.07,1.11c-2.13,2.19-4.5,4.39-7.36,5.75-2,.94-4.26,1.44-6.5,1.44-.58,0-1.18-.03-1.76-.11-.39-.05-.77-.1-1.13-.19.08-.08.16-.18.24-.26.23-.24.21-.61-.03-.86-.03-.03-.08-.06-.13-.1Z" />
    <path class="cls-3" d="M70.32,66.49c.1,0,.19.03.27.06-.08-.02-.18-.03-.27-.06Z" />
    <path class="cls-3"
      d="M69.19,67.43c.23-.26.45-.5.68-.74.11-.13.27-.19.45-.19.1.03.19.05.27.06.05.03.1.06.13.1.24.24.26.61.03.86-.08.08-.16.18-.24.26-.47-.08-.9-.19-1.32-.34Z" />
    <path class="cls-3"
      d="M69.14,54.55c-.05-.47-.08-.94-.08-1.4,3.86,2,8.7,2.32,13.3.87,4.12-1.29,8.1-3.95,11.51-7.73.18.4.35.81.5,1.23-3.45,3.71-7.47,6.36-11.64,7.67-2.03.63-4.1.95-6.13.95-2.63,0-5.18-.53-7.46-1.58Z" />
    <path class="cls-3"
      d="M68.08,155.76c.5.19,1,.39,1.52.53-2.71,4.44-5.02,9.12-6.91,13.96-.03-.02-.05-.03-.06-.05-1.27-.97-2.7-1.74-4.21-2.29,1.87-4.68,4.12-9.25,6.7-13.59.95.55,1.95,1.03,2.97,1.44Z" />
    <path class="cls-3"
      d="M70.13,87.62c.03.53.23.94.69.95,1.15.05,1.65-2.5,1.82-3.29.06-.31.13-.63.02-.92-.5-1.32-1.76-.03-2.05.66-.16.42-.53,1.69-.48,2.6ZM67.48,99c.11-4.55.87-9.09,2.26-13.44.26-.79.87-1.66,1.55-2.21.6-.48,1.45-.77,2.23-.55.34.1.6.24.81.44v.02c.05.94-.1,2.07-.31,3.29-.08.52-.16.98-.21,1.39-.36,3.55-.84,7.15-1.29,10.64l-.11.76c-.21-.06-.4-.1-.57-.11l-.06-.02c-1.4-.24-2.86-.32-4.29-.19Z" />
    <path class="cls-3"
      d="M68.24,68.6c.31-.4.63-.79.95-1.18.42.15.86.26,1.32.34-.23.26-.47.53-.69.81-.15,0-.29,0-.45.02-.42.05-.84.15-1.24.31,0-.11.03-.21.11-.29Z" />
    <path class="cls-3"
      d="M67.48,99c1.44-.13,2.89-.05,4.29.19l.06.02c.16.02.36.05.57.11l-.02.16c-.02.13.02.24.06.34-1.6-.56-3.31-.81-4.99-.48,0-.11,0-.23.02-.34Z" />
    <path class="cls-3"
      d="M69.14,54.55c-.29-.15-.58-.29-.87-.44-.31-.16-.4-.53-.26-.82.16-.31.53-.4.82-.26.08.03.15.08.23.11,0,.47.03.94.08,1.4Z" />
    <path class="cls-3"
      d="M68.74,57.26s-.11.02-.16.02c-.06,0-.15-.02-.21-.02,0,0-.03-.02-.02-.03.13-.05.27-.05.39.03Z" />
    <path class="cls-3"
      d="M68.53,58c-.06-.24-.13-.48-.16-.74.06,0,.15.02.21.02.05,0,.11,0,.16-.02.05.02.1.05.15.08.26.23.53.44.81.63-.05.23-.21.4-.42.47-.06.02-.11.02-.16.02-.27,0-.52-.18-.58-.45Z" />
    <path class="cls-3"
      d="M68.08,155.76c-1.02-.4-2.02-.89-2.97-1.44.21-.36.42-.69.63-1.05.9.53,1.84.98,2.79,1.36.55.23,1.13.42,1.71.6-.23.36-.44.71-.65,1.07-.52-.15-1.02-.34-1.52-.53Z" />
    <path class="cls-3"
      d="M69.22,56.73c-.02.27-.23.5-.48.53-.11-.08-.26-.08-.39-.03-.1-.39-.18-.77-.23-1.18.19,0,.37,0,.56.02.32.03.56.32.53.66Z" />
    <path class="cls-3"
      d="M68.37,57.26c.03.26.1.5.16.74.06.27.31.45.58.45.05,0,.1,0,.16-.02.21-.06.37-.24.42-.47,4.83,3.29,11.75,1.45,16.82-1.48,1.4-.82,2.74-1.9,4.03-2.94,1.44-1.15,2.91-2.32,4.54-3.21.02.11.03.24.05.36.03.32.32.55.68.52.08,0,.15-.03.21-.06l.03.05c-1.68.86-3.16,2.03-4.75,3.31-1.32,1.07-2.7,2.16-4.18,3.02-5.73,3.34-13.72,5.29-19.03.74-.24-.23-.27-.6-.06-.86.05-.05.1-.1.16-.13.06-.02.11-.02.18-.02Z" />
    <path class="cls-3" d="M68.35,57.23s.02.03.02.03c-.06,0-.11,0-.18.02.05-.03.1-.05.16-.05Z" />
    <path class="cls-3"
      d="M68.34,69.44c-.18-.13-.26-.34-.21-.55.4-.16.82-.26,1.24-.31.16-.02.31-.02.45-.02-.23.26-.44.52-.65.77-.11.16-.29.24-.47.24-.13,0-.26-.05-.37-.15Z" />
    <path class="cls-3"
      d="M68.13,56.05c-.57-3.39-.24-6.78.97-9.73,1.55-3.83,4.65-6.91,8.26-8.26,4.03-1.48,8.83-.87,12.49,1.63,3.32,2.26,5.67,6,6.38,10.1-.05.02-.1.03-.13.05-.34.15-.68.32-1.02.5-.15-.97-.37-1.9-.71-2.82.16-.15.31-.31.44-.45.23-.26.21-.63-.05-.86-.24-.23-.63-.21-.86.05l-.03.03c-1.07-2.26-2.68-4.23-4.7-5.6-3.36-2.28-7.71-2.86-11.39-1.48-3.31,1.23-6.13,4.05-7.57,7.57-.79,1.95-1.18,4.13-1.15,6.38-.08-.03-.15-.08-.23-.11-.29-.15-.66-.05-.82.26-.15.29-.05.66.26.82.29.15.58.29.87.44.08,1.05.27,2.1.55,3.15.02.1.02.19,0,.27-.27-.19-.55-.4-.81-.63-.05-.03-.1-.06-.15-.08.26-.03.47-.26.48-.53.03-.34-.21-.63-.53-.66-.19-.02-.37-.02-.56-.02Z" />
    <path class="cls-3"
      d="M66.45,62.29c.56.84,1.82,1.71,3.26,2,1.4.34,2.89.39,3.7.44.18.02.36,0,.53,0s.35,0,.53-.02c.81-.05,2.21-.19,3.6-.71,1.37-.48,2.68-1.31,3.52-1.86-.6.79-1.76,1.87-3.16,2.61-1.37.77-2.95,1.11-3.87,1.16-.21.02-.4.02-.6.02-.21,0-.4.02-.6,0-.94-.05-2.44-.24-3.94-.84-1.5-.55-2.73-1.82-2.97-2.81Z" />
    <path class="cls-3" d="M64.11,99.8c.39-.16.81-.31,1.19-.44v.37c.02.32-.26.6-.6.61-.32,0-.56-.24-.6-.55Z" />
    <path class="cls-3"
      d="M66.03,65.65c-1.69-1.52-2.53-3.79-2.13-5.78.44-2.11,2.26-3.73,4.23-3.83.05.4.13.79.23,1.18-.06,0-.11.02-.16.05-1.44.06-2.81,1.29-3.12,2.84-.31,1.57.37,3.39,1.76,4.63,1.05.94,2.32,1.45,3.49,1.74-.18,0-.34.06-.45.19-.23.24-.45.48-.68.74-1.23-.4-2.31-1-3.16-1.78Z" />
    <path class="cls-3"
      d="M65.22,74.29c.29.16.4.53.26.82-.1.18-.19.37-.27.56h-.02c-.52-.23-.77-.6-.9-.92.05-.06.08-.15.11-.21.16-.29.53-.4.82-.26Z" />
    <path class="cls-3"
      d="M65.77,74.59c.24.11.73-.29.97-.48.61-.52,1.31-.98,2.05-1.37.31-.16.65-.29,1-.42.37-.13.73-.26.98-.42.31-.19.5-.53.53-.9,0-.19-.02-.57-.37-.86-.31-.24-.68-.37-1.15-.37-.1,0-.19.02-.29.02-1.18.13-2.37.92-2.89,1.6-.74.94-1.4,2.23-1.23,2.86.03.13.1.26.39.36ZM67.5,75.04c-.36.29-.95.77-1.65.77-.16,0-.34-.02-.52-.08-.05-.02-.1-.03-.13-.06.08-.19.18-.39.27-.56.15-.29.03-.66-.26-.82-.29-.15-.66-.03-.82.26-.03.06-.06.15-.11.21-.03-.06-.05-.13-.06-.19-.4-1.44.98-3.37,1.44-3.92.5-.66,1.42-1.36,2.47-1.74-.05.21.03.42.21.55.11.1.24.15.37.15.18,0,.36-.08.47-.24.21-.26.42-.52.65-.77.74,0,1.37.21,1.89.65s.81,1.07.81,1.74v.11c-.05.74-.45,1.44-1.08,1.84-.37.24-.81.4-1.24.55-.29.1-.58.21-.84.34-.66.36-1.29.77-1.86,1.24Z" />
    <path class="cls-3"
      d="M64.09,99.76c-.05-3.24,0-7.05.89-10.73,1.21-5.02,3.18-7.99,6.04-9.07.97-.37,1.81-.4,2.52-.1,2.61,1.13,2.05,4.6,1.68,6.89-.08.47-.16.92-.19,1.29-.37,3.57-.84,7.18-1.31,10.67l-.11.94s-.02.05-.02.06c-.24-.1-.47-.18-.69-.26.65-4.12,1.31-8.25,1.95-12.38.18-1.18.48-2.95-.52-3.83v-.02c-.06-1.08-.4-1.89-1.28-2.26-.4-.18-.95-.13-1.61.11-2.44.94-4.16,3.63-5.28,8.22-.82,3.41-.9,6.97-.86,10.07-.39.13-.81.27-1.19.44-.02-.02-.02-.03-.02-.05Z" />
    <path class="cls-3"
      d="M66.93,100.26c-1.05.06-3.47.45-4.68.65.37-.37,1.08-.76,1.86-1.1.03.31.27.55.6.55.34-.02.61-.29.6-.61v-.37c.56-.18,1.1-.29,1.48-.31l.05-.02c.21-.03.42-.05.65-.05-.02.11-.02.23-.02.34,1.68-.32,3.39-.08,4.99.48.1.18.26.31.47.34.32.06.6-.16.66-.45,1.07.4,2.2,1.02,2.7,1.55-1.21-.23-3.62-.74-4.65-.87h-.05c-1.52-.26-3.07-.32-4.6-.13h-.05Z" />
    <path class="cls-3" d="M63.7,132.2c.06.13.11.26.15.36,0,0,0,.02-.02.03-.05-.13-.08-.26-.13-.39Z" />
    <path class="cls-3"
      d="M62.61,132.04c.13-.21.36-.32.6-.27.24.03.44.19.5.44.05.13.08.26.13.39-.11.11-1.1.45-1.13.36-.08-.21-.15-.48-.18-.79.03-.03.05-.08.08-.11Z" />
    <path class="cls-3"
      d="M63.2,131.76c-.24-.05-.47.06-.6.27-.03.03-.05.08-.08.11-.11-.69-.13-1.6.02-2.36.16-.97.5-1.71.58-1.89-.02.18-.1.98.02,1.9.08.86.36,1.76.57,2.39-.06-.24-.26-.4-.5-.44Z" />
    <path class="cls-3"
      d="M60.91,174.71c.45.31.86.71,1.18,1.15-.23.05-.44.08-.66.08-.18,0-.35-.02-.52-.05-.34-.06-.55-.39-.47-.71.05-.24.24-.44.47-.47Z" />
    <path class="cls-3"
      d="M59.06,168.58c-.23-.19-.48-.31-.76-.4.03-.08.06-.18.11-.26,1.52.55,2.94,1.32,4.21,2.29.02.02.03.03.06.05-.08.16-.15.34-.21.5-.27-.23-.55-.44-.84-.63-.82-.58-1.78-.95-2.58-1.55Z" />
    <path class="cls-3"
      d="M58.98,174.4c.13-.31.47-.45.79-.34.08.03.16.06.24.11.27.57.44,1.15.48,1.74-.36-.31-.76-.55-1.18-.73-.11-.05-.21-.13-.27-.23,0-.03-.02-.05-.02-.06-.03-.05-.05-.1-.06-.15-.02-.02-.02-.03-.02-.05-.02-.1,0-.21.03-.31Z" />
    <path class="cls-3" d="M59.02,174.9s-.06-.08-.06-.15c.02.05.03.1.06.15Z" />
    <path class="cls-3"
      d="M58.14,180.33c.08-.05-.52-1-.6-1.03,1.13-.61,1.84-1.87,1.76-3.16-.02-.39-.11-.77-.26-1.16.06.1.16.18.27.23.42.18.82.42,1.18.73.02.05.02.1.02.15.1,1.74-.86,3.44-2.37,4.26Z" />
    <path class="cls-3"
      d="M58.3,104.76c-.18-.19-.32-1.13-.15-1.15.24-.05.52-.08.82-.08-.02.23-.05.44-.06.66-.03.29-.24.5-.52.55-.03,0-.06.02-.1.02Z" />
    <path class="cls-3"
      d="M58.35,104.81s-.05-.02-.05-.05c.03,0,.06-.02.1-.02.27-.05.48-.26.52-.55.02-.23.05-.44.06-.66,1.37,0,3.26.5,4.54,1.5.81.56,1.4,1.24,1.78,1.78.31.44.47.76.52.86-.08-.1-.31-.39-.66-.74-.45-.44-1.11-.98-1.94-1.37-1.65-.89-3.78-.97-4.86-.74Z" />
    <path class="cls-3"
      d="M65.11,154.33c-6.18-3.6-10.86-10.25-11.67-16.91.39,0,.79-.02,1.21-.06.81,6.29,5.23,12.54,11.09,15.93-.21.36-.42.69-.63,1.05Z" />
    <path class="cls-3" d="M58.01,180.41s-.11.06-.18.06c.11-.03.23-.1.31-.15-.03.03-.08.06-.13.08Z" />
    <path class="cls-3"
      d="M57.2,180.15c-.15-.29-.03-.66.26-.81.03-.02.05-.03.08-.05.08.03.68.98.6,1.03-.08.05-.19.11-.31.15,0,0-.02.02-.03.02h-.06c-.21,0-.42-.13-.53-.34Z" />
    <path class="cls-3"
      d="M55.91,180.5c-.76-.23-1.18-.69-1.18-.69,0,0,.58.19,1.24.08.66-.06,1.26-.42,1.55-.61l.02.02s-.05.03-.08.05c-.29.15-.4.52-.26.81.11.21.32.34.53.34h.06c-.52.18-1.29.23-1.89.02Z" />
    <path class="cls-3"
      d="M53.76,169.67c.05-.95.84-1.78,1.74-2.05,1.03-.29,2.1,0,2.91.29-.05.08-.08.18-.11.26.27.1.53.21.76.4.81.6,1.76.97,2.58,1.55.29.19.56.4.84.63.06-.16.13-.34.21-.5.71.55,2.37,1.86,1.86,3.53-.31,1.02-1.36,1.82-2.45,2.07-.32-.44-.73-.84-1.18-1.15.08-.02.16-.02.24,0,.82.16,2-.5,2.24-1.29.24-.81-.74-1.66-1.5-2.24-1.19-.9-2.5-1.61-3.91-2.11-.68-.24-1.45-.47-2.15-.27-.52.16-1,.71-.86,1.18.02.03.02.06.02.1-.39-.15-.81-.27-1.24-.39Z" />
    <path class="cls-3"
      d="M54.65,137.35c-.42.05-.82.06-1.21.06-.03-.18-.05-.34-.06-.52-.03-.34.21-.63.53-.66.32-.03.63.21.66.55.02.19.03.37.08.57Z" />
    <path class="cls-3"
      d="M53.83,170.3c-.06-.21-.08-.42-.06-.63.44.11.86.24,1.24.39.03.29-.15.58-.44.66-.32.08-.66-.1-.74-.42Z" />
    <path class="cls-3"
      d="M53.91,136.2c3.15-.19,6.96-1.57,8.62-4.05.03.31.1.58.18.79.03.1,1.02-.24,1.13-.36.45,1.45.9,2.11,2.13,2.31,2.68.42,4.92-1.03,6.91-4.45.16.53.34,1,.53,1.36,0,.02.02.03.05.03-2.15,3.29-4.73,4.73-7.67,4.26-1.66-.26-2.39-1.21-2.87-2.45-1.95,2.16-5.26,3.42-8.26,3.71-.05-.19-.06-.37-.08-.57-.03-.34-.34-.58-.66-.55v-.03Z" />
    <path class="cls-3"
      d="M57.33,172.68c-1.02-.81-2.34-1.44-4-1.86.13-.39.26-.77.36-1.16.03,0,.06.02.08.02-.02.21,0,.42.06.63.08.32.42.5.74.42.29-.08.47-.37.44-.66,1.21.44,2.24,1,3.08,1.68.86.69,1.52,1.53,1.92,2.44-.08-.05-.16-.08-.24-.11-.32-.11-.66.03-.79.34-.03.1-.05.21-.03.31-.34-.74-.89-1.44-1.61-2.03Z" />
    <path class="cls-3"
      d="M53.16,170.77c-.32-.08-.52-.4-.44-.73.08-.34.4-.52.73-.45.08.02.16.03.23.06-.1.39-.23.77-.36,1.16-.05-.02-.1-.03-.16-.05Z" />
    <path class="cls-3" d="M52.31,173.06s.02-.02.02,0c-.02.02-.03.05-.05.06.02-.02.03-.05.03-.06Z" />
    <path class="cls-3" d="M52.28,173.13c-.05.11-.1.21-.16.32-.06.11-.18.21-.29.26.19-.19.34-.39.45-.58Z" />
    <path class="cls-3"
      d="M51.05,172.87c.08-.15.15-.27.19-.36.03-.05.95.37,1.07.55,0,.02-.02.05-.03.06-.11.19-.26.39-.45.58-.18.06-.37.06-.53-.02-.29-.16-.4-.53-.24-.82Z" />
    <path class="cls-3"
      d="M49.36,174.73c.24-.1.52-.29.77-.55.37-.39.69-.92.92-1.31-.16.29-.05.66.24.82.16.08.36.08.53.02-.37.37-.84.73-1.36.97-.82.4-1.57.15-1.53.15,0-.02.18,0,.42-.1Z" />
    <path class="cls-3"
      d="M51.31,129.31c-.32.08-.66.18-.97.29-.06.02-.11.05-.18.06.08-.03.15-.08.21-.13.23-.26.21-.63-.03-.87-.08-.08-.18-.16-.26-.26.39-.11.65-.19.89-.27l.32-.08c4.36-1.29,7.88-4.31,10.44-9.01.48-.86.92-1.73,1.36-2.6,1.13-2.24,2.29-4.58,3.99-6.54.13-.16.27-.31.42-.45,2.78-2.89,6.91-4.12,10.47-3.07,3,.87,5.31,3.66,6.86,8.28-.24,1.69-.16,3.44.21,5.15-.16-.61-.34-1.24-.5-1.86-.15-.55-.29-1.08-.45-1.61-1.44-5-3.6-7.97-6.46-8.81-3.29-.95-7.17.31-9.65,3.16-1.58,1.84-2.71,4.1-3.81,6.28-.45.89-.89,1.79-1.37,2.65-2.73,4.99-6.49,8.2-11.17,9.59l-.32.1Z" />
    <path class="cls-3"
      d="M52.02,185.06c-2.57,0-5.13-.18-7.7-.53,1.52-.16,3.2-.32,5-.47.31.18.66.27,1.05.23,3.44-.36,7.26.37,10.56-.77-1.52,1.03-3.44,1.29-5,1.4-1.31.1-2.6.15-3.91.15Z" />
    <path class="cls-3"
      d="M49.52,129.55c-.21-.19-.42-.4-.6-.61.31-.19.65-.35,1.02-.48.05-.02.1-.03.15-.05.08.1.18.18.26.26.24.24.26.61.03.87-.06.05-.13.1-.21.13-.08.03-.16.05-.24.05-.15,0-.29-.05-.4-.16Z" />
    <path class="cls-3"
      d="M52.91,137.43c-2.5-.06-5.15-2.45-5.57-5.02-.23-1.48.34-2.7,1.58-3.47.18.21.39.42.6.61.11.11.26.16.4.16.08,0,.16-.02.24-.05-1.24.5-1.79,1.37-1.61,2.55.31,1.97,2.49,3.95,4.39,4,.31,0,.63,0,.97-.02v.03c-.32.03-.56.32-.53.66.02.18.03.34.06.52-.08.02-.15.02-.23.02h-.31Z" />
    <path class="cls-3"
      d="M46.1,114.22c-.05.19-.08.39-.13.58-.16-.05-.31-.08-.47-.13.55-1.5,1.39-2.99,2.42-4.36.06.02.13.03.19.05-.9,1.16-1.65,2.44-2.02,3.86Z" />
    <path class="cls-3"
      d="M44.84,117.43c.1-.92.32-1.84.66-2.76.16.05.31.08.47.13.05-.19.08-.39.13-.58.37-1.42,1.11-2.7,2.02-3.86-.06-.02-.13-.03-.19-.05,2.52-3.29,6.2-5.94,9.83-6.68.77-8.1,1.61-16.46,4.52-24.26.58-1.58,1.27-3.15,2.02-4.62.13.32.39.69.9.92-.66,1.32-1.27,2.71-1.79,4.12-2.82,7.59-3.66,15.8-4.42,23.74-.31,0-.58.03-.82.08-.18.02-.03.95.15,1.15-5.7.95-11.64,7.15-12.25,12.8-.42,3.84,1.13,7.96,4.04,10.85-.05.02-.1.03-.15.05-.37.13-.71.29-1.02.48-2.97-3.13-4.5-7.47-4.08-11.51Z" />
    <path class="cls-3"
      d="M43.58,87.52c.24.06.58.26.92.52-.13.29-.47.44-.77.31-.31-.13-.45-.48-.32-.79.02-.02.02-.05.03-.06l.15.03Z" />
    <path class="cls-3"
      d="M41.82,87.92c-.19-.11-.29-.32-.29-.53.45-.08.95-.1,1.32-.03-.06.13-.13.24-.19.36-.11.19-.32.31-.52.31-.11,0-.23-.03-.32-.1Z" />
    <path class="cls-3"
      d="M40.67,87.65c.21-.11.52-.21.86-.26,0,.21.1.42.29.53.1.06.21.1.32.1.19,0,.4-.11.52-.31.06-.11.13-.23.19-.36.15,0,.27.03.37.06l.18.05.03.02s-.02.05-.03.06c-.13.31.02.66.32.79.31.13.65-.02.77-.31.45.32.89.74,1.07,1.1-.68-.08-1.87-.34-2.36-.47l-.16-.05-.15-.03c-.48-.16-1.61-.61-2.23-.94Z" />
    <path class="cls-3"
      d="M41.09,92.1c-.66.19-1.78.61-2.71,1.42-.95.77-1.66,1.87-2.03,2.65.05-.86.52-2.21,1.45-3.26.89-1.08,2.16-1.76,2.95-1.97l.52-.13.53-.08c.81-.11,2.26.02,3.49.66,1.28.61,2.23,1.68,2.6,2.45-.63-.56-1.71-1.31-2.89-1.66-1.18-.37-2.37-.34-3.05-.24l-.44.06-.42.1Z" />
    <path class="cls-3"
      d="M40.35,101.6c-.66-.15-1.28-.44-1.76-.81,0-.15.03-.31.13-.44.19-.26.58-.32.84-.11.45.32.73.82.79,1.36Z" />
    <path class="cls-3"
      d="M37.65,99.66c-.15-.29-.03-.66.27-.81.29-.16.66-.03.81.26.39.76,1.29,1.29,2.37,1.39,1.08.1,2.21-.19,3.18-.5l.36-.11c1.82-.6,3.39-1.1,5.44-.15.23.11.44.23.66.34.69.37,1.34.71,1.95.61.71-.13,1.19-.87,1.34-1.55.29-1.21-.16-2.57-1.13-3.37-.44-.36-.97-.6-1.55-.73-.23-.05-.52-.02-.81.02-.32.03-.66.06-1,0-.86-.13-1.23-.58-1.39-.92-.52-1.13.32-2.73,1.24-4.25.1-.18.18-.31.24-.42,1.29-2.32,2.73-4.89,2.52-7.41-.06-.71-.63-1.44-1.44-1.81-.34-.15-1.24-.45-2.03.15-.65.48-1.24,1.68-1.71,2.63-.16.32-.32.63-.47.89-.74,1.32-1.42,2.71-2,4.1,0,0,0,.02-.02.02-.34-.26-.68-.45-.92-.52l-.15-.03c.58-1.42,1.27-2.81,2.02-4.16.15-.24.29-.53.45-.84.55-1.13,1.19-2.39,2.07-3.05.92-.68,2.13-.79,3.26-.27,1.21.55,2.05,1.65,2.15,2.81.23,2.89-1.36,5.75-2.65,8.04-.08.18-.18.32-.29.5-.4.68-1.47,2.47-1.18,3.11.03.05.1.18.47.24.19.03.44.02.69-.02.36-.03.76-.08,1.19.02.77.16,1.48.5,2.07.98,1.31,1.08,1.92,2.92,1.53,4.57-.29,1.29-1.19,2.26-2.29,2.45-.16.03-.32.05-.47.05-.84,0-1.6-.4-2.28-.76-.21-.11-.4-.23-.61-.32-1.61-.76-2.84-.36-4.55.19l-.36.11c-1.1.36-2.39.69-3.66.57-.23-.02-.44-.06-.65-.11-.06-.53-.34-1.03-.79-1.36-.26-.21-.65-.15-.84.11-.1.13-.13.29-.13.44-.39-.32-.71-.69-.94-1.13Z" />
    <path class="cls-3"
      d="M35.51,84.95c.24-1.66.79-3.28,1.32-4.84.21-.61.42-1.21.61-1.82.53-1.69,1.32-3.53,3.2-4.31,1.34-.55,2.95-.34,4.04.55,1.1.9,1.52,2.45,1.19,4.52-.44,2.71-1.55,5.79-3.02,8.31-.37-.06-.87-.05-1.32.03,0-.1.03-.19.08-.29,1.47-2.44,2.63-5.58,3.05-8.25.18-1.11.19-2.61-.74-3.39-.74-.6-1.87-.76-2.82-.36-1.39.56-2.02,2.03-2.49,3.53-.19.63-.4,1.24-.63,1.87-.53,1.57-1.1,3.2-1.32,4.83-.02.11-.05.21-.13.29-.37-.32-.76-.56-1.02-.68Z" />
    <path class="cls-3"
      d="M35.98,85.87c-.32-.05-.56-.36-.52-.69.02-.08.02-.15.05-.23.26.11.65.36,1.02.68-.11.18-.32.27-.55.24Z" />
    <path class="cls-3"
      d="M37.33,104.05c-.68,0-1.37-.1-1.95-.23.02-.4.05-.77.18-1.19,1.07.23,2.47.34,3.2-.06.24-.13.37-.31.4-.55.06-.29-.08-.63-.32-.81-.13-.1-.23-.26-.24-.42.48.37,1.1.66,1.76.81.05.21.05.4.02.61-.11.61-.47,1.1-1.03,1.42-.55.31-1.27.42-2,.42Z" />
    <path class="cls-3"
      d="M34.04,103.44c-.31-.13-.45-.48-.32-.79.13-.31.48-.45.79-.32.26.1.63.21,1.05.31-.13.42-.16.79-.18,1.19-.58-.13-1.07-.27-1.34-.39Z" />
    <path class="cls-3"
      d="M33.68,84.97c.03-.13.06-.26.08-.37.48,0,.94.06,1.21.16-.03.16-.08.32-.11.48-.08.34-.4.53-.74.45-.32-.08-.52-.4-.44-.73Z" />
    <path class="cls-3"
      d="M33.68,84.97c-.08.32.11.65.44.73.34.08.66-.11.74-.45.03-.16.08-.32.11-.48.02,0,.03.02.05.02l.23.08.24.1h.02c-.03.08-.03.15-.05.23-.05.34.19.65.52.69.23.03.44-.06.55-.24.1.1.21.19.31.31.45.48.77,1.07.89,1.47-.73-.48-2.1-1.15-2.71-1.34l-.18-.08-.19-.06c-.58-.26-2.05-.68-2.92-.79.36-.24.98-.47,1.65-.52.15-.02.27-.02.4-.02-.02.11-.05.24-.08.37Z" />
    <path class="cls-3"
      d="M31.07,102.69c-.15-.05-.29-.11-.42-.18.05-.4.13-.82.23-1.21.19.1.4.18.6.24.32.11.48.45.37.77-.08.24-.32.4-.56.4-.06,0-.15-.02-.21-.03Z" />
    <path class="cls-3"
      d="M30.39,164.8c.68-3.62,3.6-6.52,7.47-7.41,3.07-.69,6.63-.24,10.06,1.29,2.11.94,3.63,2.03,4.62,3.37,1.31,1.76,1.81,4.08,1.37,6.55-.06.36-.13.69-.23,1.05-.06-.03-.15-.05-.23-.06-.32-.06-.65.11-.73.45-.08.32.11.65.44.73.06.02.11.03.16.05-.26.71-.6,1.45-1,2.24t-.02,0c-.11-.18-1.03-.6-1.07-.55.79-1.52,1.26-2.82,1.48-4.1.36-2.15-.05-4.15-1.16-5.65-.87-1.15-2.21-2.13-4.13-2.99-3.2-1.42-6.49-1.86-9.3-1.21-3.41.77-5.97,3.31-6.55,6.44-.9,4.83,1.69,9.28,3.32,11.51,2.95,4.04,6.17,6.33,9.57,6.79,3.78.53,7.6.66,11.35.4,1.57-.11,3.52-.4,4.86-1.53,1.37-1.16,1.71-3.32.81-5.04-.24-.47-.6-.89-1-1.23-.05-.6-.21-1.18-.48-1.74.32.13.63.31.9.53-.23.03-.42.23-.47.47-.08.32.13.65.47.71.16.03.34.05.52.05.23,0,.44-.03.66-.08.19.23.36.47.48.73,1.16,2.21.68,5-1.11,6.52-.16.15-.34.27-.53.4-3.29,1.15-7.12.42-10.56.77-.39.05-.74-.05-1.05-.23-1.81.15-3.49.31-5,.47h-.02c-3.73-.53-7.21-2.99-10.38-7.3-1.73-2.39-4.52-7.17-3.53-12.43Z" />
    <path class="cls-3"
      d="M30.65,102.52c.13.06.27.13.42.18.06.02.15.03.21.03.24,0,.48-.16.56-.4.11-.32-.05-.66-.37-.77-.19-.06-.4-.15-.6-.24.08-.34.16-.68.27-.98.24-1.24,4.97.13,4.73,1.39-.15.32-.26.63-.32.92-.42-.1-.79-.21-1.05-.31-.31-.13-.66.02-.79.32-.13.31.02.66.32.79.27.11.76.26,1.34.39v.13c0,.81.24,1.57.68,2.08,1.05,1.28,3.65,1.99,5.73,2.57.6.16,1.18.32,1.69.48,1.45.45,2.94.86,4.44,1.23-1.03,1.37-1.87,2.86-2.42,4.36-1.15-.31-2.31-.61-3.44-.97-.48-.15-1-.29-1.55-.44-2.74-.74-6.18-1.69-8.2-4.16-1.15-1.39-1.78-3.21-1.78-5.15,0-.44.03-.94.11-1.44Z" />
    <path class="cls-3"
      d="M27.5,97.25c.18-.37.47-.69.82-.89.1.11.18.23.27.32.23.24.21.63-.03.86-.11.11-.26.16-.4.16-.16,0-.32-.06-.45-.19-.08-.08-.15-.16-.21-.26Z" />
    <path class="cls-3"
      d="M27.71,97.51c.13.13.29.19.45.19.15,0,.29-.05.4-.16.24-.23.26-.61.03-.86-.1-.1-.18-.21-.27-.32.18-.13.36-.21.56-.27.55-.15,1.08-.1,1.55-.05.32.05.56.36.52.68-.03.34-.32.58-.68.53-.44-.06-.76-.08-1.05.02-.15.03-.5.18-.68.56-.15.34-.15.84.02,1.28.15.37.4.73.81,1.11.45.44.97.81,1.5,1.08-.1.39-.18.81-.23,1.21-.77-.32-1.48-.82-2.13-1.42-.53-.52-.87-1.02-1.08-1.57-.27-.74-.27-1.57.02-2.2.02-.03.03-.06.05-.08.06.1.13.18.21.26Z" />
    <path class="cls-3"
      d="M28.33,96.37c-.36.19-.65.52-.82.89-1.03-1.21-1.69-2.82-1.92-4.54-.27-2.13.11-4.31.47-6.39.13-.71.26-1.4.36-2.1l.08-.71c.44-3.32,1.36-10.28,6.17-9.76.95.1,1.71.53,2.24,1.29,1.19,1.69,1.21,4.86.08,9.72-.27-.1-.73-.16-1.21-.16,1.07-4.5,1.11-7.47.15-8.86-.32-.47-.79-.73-1.39-.79-3.68-.39-4.42,5.55-4.83,8.73l-.1.71c-.1.71-.23,1.42-.36,2.15-.34,2-.71,4.07-.47,6.02.19,1.45.74,2.79,1.55,3.81Z" />
  </g>
</svg>