<?xml version="1.0" encoding="UTF-8"?>
<svg id="Capa_2" xmlns="http://www.w3.org/2000/svg" viewBox="0 0 187.04 192.69">
  <defs>
    <style>
      .cls-1 {
        fill: aqua;
      }

      .cls-2 {
        fill: #29abe2;
      }

      .cls-3 {
        fill: #fff;
      }

      .cls-4 {
        fill: #862291;
      }

      .cls-5 {
        fill: #1b1464;
      }

      .cls-6 {
        fill: #fcee21;
      }

      .cls-7 {
        fill: #ed1e79;
      }
    </style>
  </defs>
  <g id="_0">
    <path class="cls-3"
      d="M183.45,127.43c2.23-1.45,3.59-3.92,3.59-6.62s-1.36-5.17-3.59-6.62v-.22c0-2.12-.85-4.13-2.34-5.61-.12-15.79-.21-29.04-.25-39.38l-.04-14.84c0-1.21-.41-2.36-1.14-3.29l3.27-5.66c.95-1.64.95-3.67,0-5.31-.03-.05-.06-.1-.09-.15.62-1.71.93-3.67.93-5.83V12.53c0-2.93-2.38-5.31-5.31-5.31h-5.67c-.49,0-.96.06-1.43.19-.46-.13-.94-.19-1.43-.19h-5.67c-1.14,0-2.23.37-3.14,1.03-1.76-.86-3.79-1.3-6.06-1.3-.31,0-.61.01-.91.03-.35.02-.7.05-.99.09l-.18.02c-.32.04-.64.09-.97.16l-.21.04c-.3.06-.58.14-.85.21l-.32.1c-.26.08-.52.17-.77.27-.12.05-.25.1-.4.17-.84-.53-1.82-.82-2.83-.82h-5.77c-.56,0-1.1.08-1.62.25-.52-.17-1.07-.25-1.62-.25h-5.79c-1.64,0-3.15.74-4.17,2.02-.84,1.07-1.24,2.39-1.13,3.72-.34-.66-.73-1.27-1.18-1.84-.46-.59-1-1.12-1.64-1.63-.3-.24-.61-.46-.95-.67-.84-.53-1.8-.96-2.74-1.24-.09-.03-.19-.06-.33-.1-.22-.06-.45-.11-.66-.16-.18-.04-.37-.08-.57-.11-.19-.03-.38-.06-.56-.09-.24-.03-.49-.06-.81-.09-.13-.01-.27-.02-.38-.03-.4-.03-.8-.04-1.23-.04-1.9,0-3.64.34-5.19,1.01-.81-.48-1.75-.74-2.7-.74h-5.77c-.53,0-1.06.08-1.56.23-.5-.15-1.03-.23-1.56-.23h-5.44c-.56,0-1.1.08-1.62.25-.52-.17-1.07-.25-1.62-.25h-5.7c-1.06,0-2.08.31-2.94.89-.6-.27-1.22-.5-1.86-.67-.57-.15-1.16-.27-1.82-.35l-.28-.03c-.63-.07-1.22-.1-1.8-.1-3.86,0-6.97,1.21-9.22,3.6-.11.12-.23.24-.33.37-.68-2.15-2.69-3.71-5.06-3.71h-5.84c-1.48,0-2.85.62-3.83,1.64-.98-1.02-2.35-1.64-3.83-1.64h-5.84c-1.21,0-2.35.4-3.28,1.13-1.08-.55-2.27-.94-3.55-1.17-.42-.07-.84-.13-1.24-.16h-.11c-2.64-.23-5.14.17-7.2,1.12-.88-.6-1.91-.93-3-.93h-4.52c-.2-.19-.4-.37-.62-.53-.18-3.72-3.26-6.69-7.02-6.69s-6.84,2.97-7.02,6.69c-1.72,1.32-2.76,3.39-2.76,5.58s1.04,4.26,2.76,5.58c.09,1.82.86,3.51,2.19,4.76v17.74c-.7,1.55-.62,3.37.23,4.85l1.26,2.19c-1.22.99-1.95,2.48-1.95,4.1v27.09c-1.45,1.42-2.26,3.34-2.26,5.39v.42c-2.21,1.36-3.59,3.8-3.59,6.43s1.38,5.06,3.59,6.43v.42c0,2.04.82,3.97,2.26,5.39v83.1c0,1.74.68,3.37,1.91,4.6.92.92,2.08,1.54,3.35,1.79.41.08.82.12,1.24.12h25.8c.42,0,.84-.04,1.25-.12,1.27-.25,2.42-.87,3.34-1.78,1.07-1.07,1.73-2.44,1.88-3.93.59.6,1.23,1.15,1.93,1.66.51.37,1.07.74,1.65,1.08l.09.05c3.55,2.04,7.98,3.08,13.17,3.08,6.08,0,11.1-1.42,14.91-4.21,3.63-2.66,5.76-6.45,6.35-11.31l7.41,12.83c.95,1.64,2.71,2.66,4.6,2.66s3.65-1.02,4.6-2.66l3.92-6.78c.34.6.72,1.18,1.13,1.73,2.12,2.82,4.91,4.88,8.28,6.1.68.25,1.4.48,2.13.67l.12.03c.72.19,1.47.35,2.31.5.75.13,1.54.23,2.36.3.78.07,1.6.11,2.41.12h.46c3.45,0,6.54-.42,9.2-1.26,2.82-.89,5.18-2.14,7.03-3.71.43-.37.84-.75,1.22-1.14.1,1.58.76,3.04,1.89,4.16,1.23,1.24,2.87,1.92,4.6,1.92h9.1c1.74,0,3.37-.68,4.59-1.9.15-.15.29-.3.42-.46,1.38,1.53,3.31,2.37,5.46,2.37h11.4c1.67,0,3.25-.65,4.44-1.85,1.19-1.19,1.84-2.75,1.84-4.39,0-1.28-.37-2.5-1.06-3.55-.08-.13-.17-.25-.27-.37l-9.39-11.82,7.54-10.13c.69-.92,1.06-2.07,1.05-3.22,0-.23-.1-10.25-.22-24.27,1.37-1.46,2.14-3.39,2.14-5.39v-.22ZM139.9,143.81v26.47c-.57-.17-1.16-.25-1.76-.25h-9.54c-1.94,0-3.69.78-5.02,2.2l-.31-20.37c.31-1.78,2.57-5.46,4.17-7.76.44-.02.98-.04,1.15-.04h9.54c.6,0,1.19-.09,1.76-.25ZM40.03,110.69v62.56c-.6-.18-1.23-.28-1.87-.28h-9.75v-89.89l13.57,23.5c-1.21.99-1.94,2.48-1.94,4.11Z" />
    <path class="cls-1"
      d="M11.62,42.42c-.39,0-.71-.32-.71-.71V12.53c0-.39.32-.71.71-.71h11.67c.39,0,.71.32.71.71v5.69c0,.39-.32.71-.71.71h-5.09v3.22h4.79c.39,0,.71.32.71.71v5.62c0,.39-.32.71-.71.71h-4.79v12.52c0,.39-.32.71-.71.71h-5.87Z" />
    <path class="cls-5"
      d="M23.29,12.53v5.69h-5.8v4.64h5.5v5.62h-5.5v13.23h-5.87V12.53h11.67ZM23.29,11.11h-11.67c-.79,0-1.42.64-1.42,1.42v29.18c0,.79.64,1.42,1.42,1.42h5.87c.79,0,1.42-.64,1.42-1.42v-11.8h4.08c.79,0,1.42-.64,1.42-1.42v-5.62c0-.79-.64-1.42-1.42-1.42h-4.08v-1.79h4.38c.79,0,1.42-.64,1.42-1.42v-5.69c0-.79-.64-1.42-1.42-1.42h0Z" />
    <path class="cls-1"
      d="M32.13,42.68c-2.54,0-4.51-.79-5.88-2.36-1.34-1.54-2.02-3.75-2.02-6.58v-13.86c0-2.67.68-4.75,2.03-6.18,1.36-1.44,3.33-2.16,5.88-2.16s4.53.73,5.88,2.16c1.34,1.42,2.03,3.5,2.03,6.17v13.86c0,2.83-.68,5.04-2.02,6.58-1.37,1.56-3.35,2.36-5.88,2.36ZM32.21,18.35c-.24,0-.75,0-.75,1.49v14.22c0,1.02.15,1.44.24,1.6.07.12.15.23.47.23.55,0,.61-1.3.61-1.86v-14.24c0-1.44-.44-1.44-.58-1.44Z" />
    <path class="cls-5"
      d="M32.13,12.27c2.35,0,4.14.65,5.36,1.94,1.22,1.29,1.83,3.19,1.83,5.69v13.86c0,2.66-.62,4.7-1.85,6.11-1.23,1.41-3.01,2.11-5.35,2.11s-4.11-.7-5.35-2.11c-1.23-1.41-1.85-3.45-1.85-6.11v-13.86c0-2.5.61-4.39,1.83-5.69,1.22-1.29,3.01-1.94,5.36-1.94h0ZM32.18,36.6c.88,0,1.33-.86,1.33-2.57v-14.24c0-1.44-.43-2.16-1.29-2.16-.97,0-1.46.73-1.46,2.2v14.22c0,.91.11,1.56.33,1.95.22.39.59.59,1.09.59h0ZM32.13,10.84c-2.75,0-4.9.8-6.4,2.39-1.47,1.56-2.22,3.8-2.22,6.66v13.86c0,3.01.74,5.38,2.2,7.05,1.51,1.73,3.67,2.6,6.42,2.6s4.91-.87,6.42-2.6c1.46-1.67,2.2-4.04,2.2-7.05v-13.86c0-2.86-.75-5.1-2.22-6.66-1.5-1.58-3.65-2.39-6.4-2.39h0Z" />
    <path class="cls-1"
      d="M41.67,42.42c-.39,0-.71-.32-.71-.71V12.53c0-.39.32-.71.71-.71h5.84c.39,0,.71.32.71.71v23.49h5.29c.39,0,.71.32.71.71v4.97c0,.39-.32.71-.71.71h-11.84Z" />
    <path class="cls-5"
      d="M47.51,12.53v24.2h6v4.97h-11.84V12.53h5.84ZM47.51,11.11h-5.84c-.79,0-1.42.64-1.42,1.42v29.18c0,.79.64,1.42,1.42,1.42h11.84c.79,0,1.42-.64,1.42-1.42v-4.97c0-.79-.64-1.42-1.42-1.42h-4.58V12.53c0-.79-.64-1.42-1.42-1.42h0Z" />
    <path class="cls-1"
      d="M55.17,42.42c-.39,0-.71-.32-.71-.71V12.53c0-.39.32-.71.71-.71h5.84c.39,0,.71.32.71.71v23.49h5.29c.39,0,.71.32.71.71v4.97c0,.39-.32.71-.71.71h-11.84Z" />
    <path class="cls-5"
      d="M61,12.53v24.2h6v4.97h-11.84V12.53h5.84ZM61,11.11h-5.84c-.79,0-1.42.64-1.42,1.42v29.18c0,.79.64,1.42,1.42,1.42h11.84c.79,0,1.42-.64,1.42-1.42v-4.97c0-.79-.64-1.42-1.42-1.42h-4.58V12.53c0-.79-.64-1.42-1.42-1.42h0Z" />
    <path class="cls-1"
      d="M75.63,42.68c-2.54,0-4.51-.79-5.88-2.36-1.34-1.54-2.02-3.75-2.02-6.58v-13.86c0-2.67.68-4.75,2.03-6.18,1.36-1.44,3.33-2.16,5.88-2.16s4.53.73,5.88,2.16c1.34,1.42,2.03,3.5,2.03,6.17v13.86c0,2.83-.68,5.04-2.02,6.58-1.37,1.56-3.35,2.36-5.88,2.36ZM75.71,18.35c-.24,0-.75,0-.75,1.49v14.22c0,1.02.15,1.44.24,1.6.07.12.15.23.47.23.55,0,.61-1.3.61-1.86v-14.24c0-1.44-.44-1.44-.58-1.44Z" />
    <path class="cls-5"
      d="M75.63,12.27c2.35,0,4.14.65,5.36,1.94,1.22,1.29,1.83,3.19,1.83,5.69v13.86c0,2.66-.62,4.7-1.85,6.11-1.23,1.41-3.01,2.11-5.35,2.11s-4.11-.7-5.35-2.11c-1.23-1.41-1.85-3.45-1.85-6.11v-13.86c0-2.5.61-4.39,1.83-5.69,1.22-1.29,3.01-1.94,5.36-1.94h0ZM75.68,36.6c.88,0,1.33-.86,1.33-2.57v-14.24c0-1.44-.43-2.16-1.29-2.16-.97,0-1.46.73-1.46,2.2v14.22c0,.91.11,1.56.33,1.95.22.39.59.59,1.09.59h0ZM75.63,10.84c-2.75,0-4.9.8-6.4,2.39-1.47,1.56-2.22,3.8-2.22,6.66v13.86c0,3.01.74,5.38,2.2,7.05,1.51,1.73,3.67,2.6,6.42,2.6s4.91-.87,6.42-2.6c1.46-1.67,2.2-4.04,2.2-7.05v-13.86c0-2.86-.75-5.1-2.22-6.66-1.5-1.58-3.65-2.39-6.4-2.39h0Z" />
    <path class="cls-1"
      d="M97.43,42.42c-.36,0-.67-.28-.71-.64l-.73-7.07-.7,7.06c-.04.36-.34.64-.71.64h-7.11c-.36,0-.67-.27-.71-.64l-3.13-29.18c-.02-.2.04-.4.18-.55.13-.15.33-.24.53-.24h5.7c.37,0,.68.28.71.65l.91,10.38.92-10.38c.03-.37.34-.65.71-.65h5.44c.37,0,.68.28.71.65l.85,10.03.85-10.03c.03-.37.34-.65.71-.65h5.77c.2,0,.39.09.53.24.13.15.2.35.18.55l-3.18,29.18c-.04.36-.34.63-.71.63h-7Z" />
    <path class="cls-5"
      d="M107.6,12.53h0,0ZM107.6,12.53l-3.18,29.18h-7l-1.46-14.04-1.39,14.04h-7.11l-3.13-29.18h5.7l1.61,18.42,1.64-18.42h5.44l1.56,18.42,1.56-18.42h5.77ZM107.61,11.11h-5.77c-.74,0-1.36.57-1.42,1.3l-.14,1.65-.14-1.65c-.06-.74-.68-1.3-1.42-1.3h-5.44c-.74,0-1.35.56-1.42,1.3l-.21,2.34-.2-2.34c-.06-.74-.68-1.3-1.42-1.3h-5.7c-.4,0-.79.17-1.06.47-.27.3-.4.7-.36,1.1l3.13,29.18c.08.72.69,1.27,1.42,1.27h7.11c.73,0,1.34-.56,1.42-1.28v-.08s.02.09.02.09c.08.73.69,1.28,1.42,1.28h7c.73,0,1.34-.55,1.42-1.27l3.18-29.1c.01-.07.02-.15.02-.23,0-.79-.64-1.42-1.42-1.42h0ZM107.6,13.96h0,0Z" />
    <path class="cls-1"
      d="M116.27,42.68c-2.86,0-4.98-.75-6.29-2.23-1.29-1.45-1.94-3.74-1.94-6.8v-2.85c0-.39.32-.71.71-.71h5.77c.06,0,.12,0,.17.02-.26-.27-.55-.56-.88-.86l-2.62-2.49c-2.09-1.97-3.16-4.28-3.16-6.85s.64-4.73,1.91-6.16c1.29-1.46,3.16-2.2,5.55-2.2,2.89,0,5,.81,6.25,2.41,1.22,1.55,1.83,3.88,1.83,6.94,0,.39-.32.71-.71.71h-5.93c-.39,0-.71-.32-.71-.71v-2.01c0-.3-.09-.39-.13-.42-.06-.06-.16-.13-.42-.13-.17,0-.38.02-.47.13-.11.13-.16.31-.16.55,0,.3.09.65.27,1.03.18.39.57.87,1.15,1.43l3.37,3.24c.69.66,1.34,1.37,1.92,2.1.61.77,1.1,1.67,1.47,2.69.37,1.02.56,2.26.56,3.7,0,2.87-.55,5.17-1.63,6.83-1.15,1.76-3.12,2.65-5.88,2.65ZM115.22,30.68s.01.08.01.12v3.65c0,.69.12,1.06.22,1.25.04.07.11.2.44.2.15,0,.42-.02.51-.15.06-.09.19-.37.19-1.13,0-.82-.08-1.51-.24-2.05-.15-.51-.42-1.01-.79-1.48-.1-.13-.22-.26-.34-.41Z" />
    <path class="cls-5"
      d="M115.49,12.27c2.67,0,4.57.71,5.69,2.14,1.12,1.43,1.68,3.59,1.68,6.5h-5.93v-2.01c0-.4-.11-.71-.34-.93-.23-.22-.53-.33-.92-.33-.46,0-.8.13-1.02.39-.22.26-.32.59-.32,1s.11.85.33,1.33c.22.48.66,1.02,1.31,1.64l3.37,3.23c.67.64,1.29,1.32,1.86,2.03.56.71,1.02,1.54,1.36,2.49.34.94.51,2.1.51,3.46,0,2.74-.51,4.89-1.52,6.44s-2.77,2.33-5.28,2.33c-2.66,0-4.58-.66-5.76-1.99-1.18-1.33-1.77-3.44-1.77-6.33v-2.85h5.77v3.65c0,.67.1,1.2.31,1.58.2.38.56.57,1.07.57s.9-.16,1.1-.46c.2-.31.31-.82.31-1.52,0-.9-.09-1.64-.27-2.25-.18-.6-.48-1.18-.92-1.72-.44-.55-1.04-1.18-1.82-1.91l-2.62-2.49c-1.96-1.85-2.93-3.96-2.93-6.33s.58-4.38,1.73-5.69c1.15-1.3,2.83-1.96,5.01-1.96h0ZM115.49,10.84c-2.6,0-4.65.82-6.08,2.44-1.39,1.57-2.09,3.8-2.09,6.63s1.14,5.25,3.38,7.37l2.21,2.1h-4.17c-.79,0-1.42.64-1.42,1.42v2.85c0,3.29.69,5.67,2.12,7.28,1.45,1.64,3.75,2.47,6.83,2.47s5.19-1,6.47-2.98c1.16-1.78,1.75-4.21,1.75-7.22,0-1.52-.2-2.84-.6-3.94-.39-1.08-.93-2.05-1.58-2.88-.6-.76-1.27-1.49-1.99-2.18l-1.95-1.87h4.5c.79,0,1.42-.64,1.42-1.42,0-3.27-.65-5.68-1.99-7.38-1.4-1.78-3.69-2.68-6.81-2.68h0Z" />
    <path class="cls-1"
      d="M136.5,42.42c-.39,0-.71-.32-.71-.71v-9.52l-4.64-19.5c-.05-.21,0-.44.13-.61.13-.17.34-.27.56-.27h5.79c.35,0,.65.25.7.6l.92,5.61.92-5.61c.06-.34.35-.6.7-.6h5.77c.22,0,.42.1.56.27.13.17.18.39.13.61l-4.62,19.5v9.52c0,.39-.32.71-.71.71h-5.5Z" />
    <path class="cls-5"
      d="M146.64,12.53l-4.64,19.58v9.6h-5.5v-9.6l-4.66-19.58h5.79l1.62,9.88,1.62-9.88h5.77ZM146.64,11.11h-5.77c-.7,0-1.29.5-1.41,1.19l-.22,1.33-.22-1.33c-.11-.69-.71-1.19-1.41-1.19h-5.79c-.44,0-.85.2-1.12.54-.27.34-.37.79-.27,1.21l4.62,19.42v9.43c0,.79.64,1.42,1.42,1.42h5.5c.79,0,1.42-.64,1.42-1.42v-9.43l4.6-19.42c.1-.42,0-.87-.27-1.21-.27-.34-.68-.54-1.12-.54h0ZM146.64,13.96h0,0Z" />
    <path class="cls-1"
      d="M155.08,42.68c-2.54,0-4.51-.79-5.88-2.36-1.34-1.54-2.02-3.75-2.02-6.58v-13.86c0-2.67.68-4.75,2.03-6.18,1.36-1.44,3.33-2.16,5.88-2.16s4.52.73,5.88,2.16c1.34,1.42,2.03,3.5,2.03,6.17v13.86c0,2.83-.68,5.04-2.02,6.58-1.37,1.56-3.35,2.36-5.88,2.36ZM155.16,18.35c-.24,0-.75,0-.75,1.49v14.22c0,1.02.15,1.44.24,1.6.06.12.15.23.47.23.55,0,.61-1.3.61-1.86v-14.24c0-1.44-.44-1.44-.58-1.44Z" />
    <path class="cls-5"
      d="M155.08,12.27c2.35,0,4.14.65,5.36,1.94,1.22,1.29,1.83,3.19,1.83,5.69v13.86c0,2.66-.62,4.7-1.85,6.11-1.23,1.41-3.01,2.11-5.35,2.11s-4.11-.7-5.35-2.11c-1.23-1.41-1.85-3.45-1.85-6.11v-13.86c0-2.5.61-4.39,1.83-5.69,1.22-1.29,3.01-1.94,5.36-1.94h0ZM155.13,36.6c.88,0,1.33-.86,1.33-2.57v-14.24c0-1.44-.43-2.16-1.29-2.16-.97,0-1.46.73-1.46,2.2v14.22c0,.91.11,1.56.33,1.95.22.39.59.59,1.09.59h0ZM155.08,10.84c-2.75,0-4.9.8-6.4,2.39-1.47,1.56-2.22,3.8-2.22,6.66v13.86c0,3.01.74,5.38,2.2,7.05,1.51,1.73,3.67,2.6,6.42,2.6s4.91-.87,6.42-2.6c1.46-1.67,2.2-4.04,2.2-7.05v-13.86c0-2.86-.75-5.1-2.22-6.66-1.5-1.58-3.65-2.39-6.4-2.39h0Z" />
    <path class="cls-1"
      d="M171.38,42.68c-2.64,0-4.63-.77-5.92-2.3-1.26-1.49-1.89-3.67-1.89-6.48V12.53c0-.39.32-.71.71-.71h5.67c.39,0,.71.32.71.71v21.14c0,.46.03.9.08,1.31.04.33.13.59.26.78.02.03.09.12.38.12.21,0,.34-.04.4-.12.13-.18.21-.44.25-.77.05-.43.07-.87.07-1.33V12.53c0-.39.32-.71.71-.71h5.67c.39,0,.71.32.71.71v21.37c0,2.81-.64,4.99-1.89,6.48-1.29,1.53-3.28,2.3-5.92,2.3Z" />
    <path class="cls-5"
      d="M178.47,12.53v21.37c0,2.65-.57,4.66-1.72,6.03-1.15,1.36-2.94,2.05-5.37,2.05s-4.22-.68-5.37-2.05-1.72-3.37-1.72-6.03V12.53h5.67v21.14c0,.49.03.95.08,1.4.05.45.18.82.38,1.1.2.29.52.43.96.43s.78-.14.98-.42c.2-.28.32-.65.37-1.1.05-.45.07-.92.07-1.41V12.53h5.67ZM178.47,11.11h-5.67c-.79,0-1.42.64-1.42,1.42v21.14c0,.07,0,.13,0,.2,0-.07,0-.13,0-.2V12.53c0-.79-.64-1.42-1.42-1.42h-5.67c-.79,0-1.42.64-1.42,1.42v21.37c0,2.98.69,5.32,2.06,6.94,1.43,1.69,3.6,2.55,6.46,2.55s5.03-.86,6.46-2.55c1.37-1.62,2.06-3.96,2.06-6.94V12.53c0-.79-.64-1.42-1.42-1.42h0Z" />
    <path class="cls-6" d="M21.17,12.53h-9.55v15.59c1.17-3.88,2.91-7.45,4.87-10.59,1.02-2.04,2.68-3.61,4.68-5Z" />
    <path class="cls-6"
      d="M32.13,12.27c-2.35,0-4.14.65-5.36,1.94-1.22,1.29-1.83,3.19-1.83,5.69v11.05c1.33-6.75,4.51-13.18,9-18.53-.56-.1-1.16-.15-1.81-.15Z" />
    <path class="cls-6" d="M41.68,12.53v27.25c1.2-9.08,2.63-18.25,3.92-27.25h-3.92Z" />
    <path class="cls-6" d="M55.17,12.53v27.22c1.73-9.07,3.88-18.02,4.57-27.22h-4.57Z" />
    <path class="cls-6"
      d="M78.15,12.57c-.75-.2-1.59-.31-2.52-.31-2.35,0-4.14.65-5.36,1.94-1.22,1.29-1.83,3.19-1.83,5.69v13.86c0,.46.03.9.06,1.32.23-8.03,2.21-18,9.66-22.5Z" />
    <path class="cls-6" d="M98.72,12.53h-5.44l-.22,2.5c1.77-.31,3.77-.44,5.83-.54l-.17-1.96Z" />
    <path class="cls-6" d="M107.6,12.53h-5.77l-.15,1.8c2-.12,3.98-.3,5.8-.68l.12-1.12Z" />
    <path class="cls-6"
      d="M90.31,15.76l-.28-3.23h-5.7l1.15,10.75c.24-2.23.85-4.2,2.21-5.75.65-.79,1.55-1.35,2.62-1.77Z" />
    <path class="cls-6"
      d="M111.19,23.23c-2.26-6.21,3.54-9.28,9.23-9.58-1.15-.91-2.78-1.38-4.92-1.38s-3.86.65-5.01,1.96c-1.15,1.3-1.73,3.2-1.73,5.69s.98,4.49,2.93,6.33l2.62,2.49c.77.73,1.38,1.37,1.82,1.91.44.55.74,1.12.92,1.72.18.6.27,1.35.27,2.25,0,.3-.02.57-.06.8,1.56-5.24-4.71-7.49-6.05-12.18Z" />
    <path class="cls-6" d="M131.84,12.53l1.37,5.77c.93-1.93,1.89-3.86,2.9-5.77h-4.28Z" />
    <path class="cls-6"
      d="M154.45,12.29c-2.04.11-3.62.74-4.73,1.92-1.22,1.29-1.83,3.19-1.83,5.69v13.86c0,2.26.45,4.06,1.33,5.42-.55-9.08,1.66-18.61,5.23-26.88Z" />
    <path class="cls-6" d="M167.83,12.53h-3.55v21.37c0,2.55.54,4.5,1.6,5.86-2.06-8.39.87-18.14,1.95-27.23Z" />
    <path class="cls-7"
      d="M12.36,188.04c-.51,0-.98-.19-1.34-.56-.37-.37-.56-.83-.56-1.34V51.49c0-.32.22-.6.53-.69.06-.02.12-.02.18-.02.25,0,.49.13.62.36l11.93,20.66c.06.11.1.23.1.36v105.41h14.35c.51,0,.97.19,1.34.56.37.37.56.83.56,1.34v6.67c0,.51-.19.98-.56,1.34-.37.37-.83.56-1.34.56H12.36Z" />
    <path class="cls-5"
      d="M11.17,51.49l11.93,20.66v106.13h15.07c.32,0,.6.12.84.35.24.24.35.52.35.84v6.67c0,.32-.12.6-.35.84-.24.24-.52.35-.84.35H12.36c-.32,0-.6-.12-.84-.35-.24-.24-.35-.51-.35-.84V51.49h0ZM11.17,50.06c-.12,0-.25.02-.37.05-.62.17-1.06.73-1.06,1.38v134.65c0,.71.27,1.34.77,1.85.5.5,1.14.77,1.84.77h25.8c.7,0,1.34-.27,1.85-.77.5-.5.77-1.14.77-1.85v-6.67c0-.7-.27-1.34-.77-1.85-.51-.5-1.14-.77-1.85-.77h-13.64v-104.7c0-.25-.07-.5-.19-.71l-11.93-20.66c-.26-.45-.73-.71-1.23-.71h0Z" />
    <path class="cls-1"
      d="M15.27,183.67l-4.1-126.34v128.81c0,.32.12.6.35.84.24.24.52.35.84.35h25.8c.32,0,.6-.12.84-.35.24-.23.35-.51.35-.84v-1.11l-24.09-1.36Z" />
    <path class="cls-7"
      d="M61.47,188.09c-5.08,0-9.18-1.12-12.19-3.32-3.08-2.25-4.64-5.79-4.64-10.52v-63.56c0-.32.22-.6.53-.69.06-.02.12-.02.18-.02.25,0,.49.13.62.36l11.62,20.13c.06.11.1.23.1.36v44.04c0,.96.31,1.68.94,2.17.68.53,1.64.8,2.85.8s2.17-.27,2.85-.8c.63-.5.94-1.21.94-2.17v-28.42c0-.32.22-.6.53-.69.06-.02.12-.02.18-.02.25,0,.49.13.62.36l11.62,20.12c.06.11.1.23.1.36v7.7c0,4.73-1.56,8.27-4.64,10.52-3.01,2.2-7.11,3.32-12.19,3.32Z" />
    <path class="cls-5"
      d="M45.35,110.69l11.62,20.13v44.04c0,1.19.4,2.1,1.21,2.73.81.64,1.91.95,3.29.95s2.48-.32,3.29-.95c.81-.64,1.22-1.55,1.22-2.73v-28.42l11.62,20.12v7.7c0,4.51-1.45,7.82-4.35,9.95-2.9,2.12-6.83,3.18-11.77,3.18s-8.87-1.06-11.77-3.18c-2.9-2.12-4.35-5.44-4.35-9.95v-63.56h0ZM45.35,109.26c-.12,0-.25.02-.37.05-.62.17-1.06.73-1.06,1.38v63.56c0,4.97,1.66,8.7,4.94,11.09,3.13,2.29,7.38,3.46,12.61,3.46s9.48-1.16,12.62-3.46c3.27-2.4,4.93-6.13,4.93-11.09v-7.7c0-.25-.07-.5-.19-.71l-11.62-20.12c-.26-.45-.73-.71-1.23-.71-.12,0-.25.02-.37.05-.62.17-1.06.73-1.06,1.38v28.42c0,.96-.36,1.37-.67,1.61-.55.43-1.36.65-2.41.65s-1.86-.22-2.41-.65c-.31-.25-.67-.65-.67-1.61v-44.04c0-.25-.07-.5-.19-.71l-11.62-20.13c-.26-.45-.73-.71-1.23-.71h0Z" />
    <path class="cls-1"
      d="M45.93,111.69l-.58-1.01v63.56c0,4.51,1.45,7.82,4.35,9.95.76.55,1.59,1.03,2.49,1.44-10.76-6.24-4.01-50.06-6.26-73.94Z" />
    <path class="cls-7"
      d="M128.6,139.46c-.29,0-.58-.07-.89-.2-.18-.08-.33-.24-.39-.43-.06-.19-.04-.4.06-.58l5.44-9.42c.13-.23.37-.36.62-.36.12,0,.24.03.35.09.76.43,1.38.86,1.89,1.29,2.75,2.37,4.14,5.03,4.14,7.93,0,.45-.17.86-.5,1.18-.32.32-.73.49-1.18.49h-9.54Z" />
    <path class="cls-5"
      d="M133.44,129.19c.66.37,1.26.77,1.78,1.21,2.59,2.23,3.89,4.69,3.89,7.39,0,.26-.1.49-.29.67-.19.19-.42.28-.68.28h-9.54c-.22,0-.41-.06-.6-.14l5.44-9.42h0ZM133.45,127.77c-.49,0-.97.26-1.23.71l-5.44,9.42c-.2.35-.25.77-.12,1.15.12.38.41.7.78.86.4.18.79.26,1.18.26h9.54c.64,0,1.22-.24,1.68-.69.47-.46.71-1.04.71-1.69,0-3.12-1.47-5.96-4.38-8.47-.55-.47-1.21-.92-2.01-1.37-.22-.13-.46-.19-.7-.19h0Z" />
    <path class="cls-7"
      d="M122.46,188.09c-2.99,0-5.75-.46-8.22-1.36-2.52-.92-4.6-2.45-6.18-4.55-1.31-1.74-2.09-3.84-2.32-6.24-.01-.15.02-.3.09-.42l11.85-20.5c.13-.22.37-.36.62-.36.06,0,.12,0,.18.02.31.08.53.37.53.69v19.84c0,.91.3,1.59.93,2.06.68.51,1.6.77,2.75.77,1.45,0,2.13-.25,2.46-.47.49-.32.9-.81,1.24-1.45.66-1.25,1.56-1.51,2.2-1.51h9.54c.45,0,.86.17,1.18.49.33.32.5.73.5,1.18,0,2.9-1.39,5.57-4.14,7.93-1.36,1.16-3.19,2.11-5.42,2.81-2.21.7-4.84,1.05-7.81,1.05Z" />
    <path class="cls-5"
      d="M118.31,155.37v19.84c0,1.14.4,2.02,1.21,2.63.81.61,1.87.92,3.18.92s2.26-.19,2.85-.58c.59-.39,1.08-.96,1.48-1.71.4-.75.92-1.13,1.57-1.13h9.54c.26,0,.49.09.68.28.19.19.29.41.29.67,0,2.7-1.3,5.16-3.89,7.39-1.3,1.1-3.02,1.99-5.17,2.67-2.15.68-4.68,1.02-7.6,1.02s-5.57-.44-7.97-1.31c-2.4-.88-4.35-2.31-5.85-4.31-1.24-1.65-1.96-3.61-2.18-5.88l11.85-20.5h0ZM118.31,153.95c-.5,0-.97.26-1.23.71l-11.85,20.5c-.15.26-.21.55-.18.85.24,2.53,1.07,4.75,2.46,6.6,1.66,2.21,3.85,3.82,6.5,4.79,2.54.93,5.39,1.4,8.46,1.4s5.75-.37,8.03-1.09c2.32-.74,4.23-1.73,5.66-2.95,2.91-2.51,4.39-5.36,4.39-8.47,0-.64-.25-1.23-.71-1.69-.46-.46-1.05-.69-1.69-.69h-9.54c-.68,0-1.96.25-2.83,1.89-.28.54-.62.94-1.01,1.19-.16.1-.68.35-2.06.35-.99,0-1.77-.21-2.32-.63-.3-.23-.65-.61-.65-1.5v-19.84c0-.64-.43-1.21-1.06-1.38-.12-.03-.25-.05-.37-.05h0Z" />
    <path class="cls-1"
      d="M108.73,171.95l-2.27,3.93c.22,2.27.94,4.23,2.18,5.88,1.5,2,3.45,3.43,5.85,4.31,2.3.84,4.83,1.27,7.6,1.31-6.5-2.81-11.59-7.6-13.37-15.42Z" />
    <path class="cls-7"
      d="M165.98,188.04c-.89,0-1.63-.34-2.14-.97l-6.42-7.94v7c0,.51-.19.98-.56,1.34-.37.37-.83.56-1.34.56h-9.1c-.51,0-.98-.19-1.34-.56-.37-.36-.56-.83-.56-1.34v-77.07c0-.13.03-.25.1-.36l11.49-19.89c.13-.22.37-.36.62-.36.06,0,.12,0,.18.02.31.08.53.37.53.69v74.69l5.56-6.96v-79.82c0-.12.03-.24.09-.35l11.83-20.82c.13-.23.37-.36.62-.36.06,0,.12,0,.18.02.31.08.53.36.53.69,0,29.29.7,100.36.71,101.07,0,.16-.05.31-.14.43l-9.65,12.97,11.59,14.59c.23.35.33.69.33,1.06,0,.42-.17.82-.5,1.14-.33.33-.74.5-1.19.5h-11.4Z" />
    <path class="cls-5"
      d="M175.51,56.27c0,29.63.71,101.08.71,101.08l-9.98,13.41,11.93,15.02c.12.18.18.38.18.62s-.1.45-.29.64c-.19.19-.42.29-.68.29h-11.4c-.68,0-1.21-.24-1.59-.71l-7.69-9.5v9.01c0,.32-.12.6-.35.84-.24.24-.52.35-.84.35h-9.1c-.32,0-.6-.12-.84-.35-.24-.23-.35-.51-.35-.84v-77.06l11.49-19.89v76.72l6.98-8.75v-80.07l11.83-20.82h0ZM175.51,54.85c-.5,0-.98.27-1.24.72l-11.83,20.82c-.12.21-.19.46-.19.7v79.57l-4.13,5.18v-72.66c0-.64-.43-1.21-1.06-1.38-.12-.03-.25-.05-.37-.05-.5,0-.97.26-1.23.71l-11.49,19.89c-.12.22-.19.46-.19.71v77.06c0,.71.27,1.35.77,1.85.5.5,1.14.77,1.84.77h9.1c.7,0,1.34-.27,1.85-.77.5-.5.77-1.14.77-1.85v-4.99l5.16,6.37c.66.81,1.59,1.23,2.7,1.23h11.4c.65,0,1.23-.24,1.69-.7.46-.46.7-1.03.7-1.65,0-.51-.14-1-.41-1.41-.02-.03-.05-.07-.07-.1l-11.25-14.16,9.33-12.53c.19-.25.28-.55.28-.86,0-.71-.71-71.78-.71-101.07,0-.65-.44-1.21-1.06-1.38-.12-.03-.24-.05-.36-.05h0Z" />
    <path class="cls-1" d="M145.21,186.14c0,.32.12.6.35.84.24.24.51.35.84.35h1.43l-2.62-69.16v67.96Z" />
    <path class="cls-1" d="M175.51,56.27l-11.83,20.82v59.03l2.83-58.47,9.04-8.66c-.02-5.61-.04-8.53-.04-12.72Z" />
    <path class="cls-6"
      d="M94.74,188.06c-.25,0-.49-.14-.62-.36L10.52,42.89c-.13-.22-.13-.49,0-.71.13-.22.36-.36.62-.36h167.21c.25,0,.49.14.62.36.13.22.13.49,0,.71l-83.6,144.81c-.13.22-.36.36-.62.36Z" />
    <path class="cls-5"
      d="M178.35,42.54h0,0ZM178.35,42.54l-83.6,144.81L11.14,42.54h167.21ZM178.35,41.11H11.14c-.51,0-.98.27-1.23.71-.25.44-.25.98,0,1.42l83.6,144.81c.25.44.72.71,1.23.71s.98-.27,1.23-.71L179.55,43.3c.14-.22.22-.48.22-.76,0-.79-.64-1.42-1.42-1.42h0ZM178.35,43.96h0,0Z" />
    <polygon class="cls-1" points="94.74 187.35 125.57 133.96 91.61 181.91 94.74 187.35" />
    <polygon class="cls-1" points="178.35 42.54 11.14 42.54 31.18 77.26 17.65 45.84 178.19 42.82 178.35 42.54" />
    <path class="cls-3" d="M54.74,99.02l-30.96-47.91c-.3-.47.04-1.08.59-1.08l137.5,1.34-126.42,3.76,19.28,43.89Z" />
    <path class="cls-7"
      d="M94.74,168.67c-.13,0-.24-.07-.31-.18L27.31,52.23c-.06-.11-.06-.25,0-.36.06-.11.18-.18.31-.18h134.25c.13,0,.24.07.31.18.06.11.06.25,0,.36l-67.12,116.26c-.06.11-.18.18-.31.18Z" />
    <path class="cls-5"
      d="M161.87,52.05h0,0ZM161.87,52.05l-67.12,116.26L27.62,52.05h134.25ZM161.87,51.34H27.62c-.25,0-.49.14-.62.36s-.13.49,0,.71l67.12,116.26c.13.22.36.36.62.36s.49-.14.62-.36l67.1-116.23c.07-.11.12-.25.12-.39,0-.39-.32-.71-.71-.71h0ZM161.87,52.77h0,0Z" />
    <polygon class="cls-1" points="151.01 52.05 27.62 52.05 45.78 83.51 33.62 55.18 151.01 52.05" />
    <path class="cls-3" d="M83.52,133.96L39.99,59.75c-.24-.41.06-.92.53-.9l104.72,2.8-93.26,2.02,31.53,70.29Z" />
    <path class="cls-2"
      d="M94.74,149.47c-.13,0-.24-.07-.31-.18L43.94,61.83c-.06-.11-.06-.25,0-.36.06-.11.18-.18.31-.18h101c.13,0,.24.07.31.18s.06.25,0,.36l-50.5,87.47c-.06.11-.18.18-.31.18Z" />
    <path class="cls-5"
      d="M145.24,61.65h0,0ZM145.24,61.65l-50.5,87.47L44.24,61.65h101ZM145.25,60.94H44.24c-.25,0-.49.14-.62.36-.13.22-.13.49,0,.71l50.5,87.47c.13.22.36.36.62.36s.49-.14.62-.36l50.48-87.43c.07-.11.12-.25.12-.39,0-.39-.32-.71-.71-.71h0ZM145.24,62.36h0,0Z" />
    <polygon class="cls-1" points="145.24 61.65 44.24 61.65 54.87 80.05 48.47 64.38 145.17 61.77 145.24 61.65" />
    <path class="cls-3"
      d="M149.19,76.07c-.29-12.27-1.43-21.37-1.48-21.75-.16-1.28-.95-2.4-2.1-2.99-.36-.18-9.01-4.53-27.53-5.33-9.47-.43-19.94.13-31.12,1.68-.03,0-.06,0-.1.01-27.52,4.51-41.63,30.23-39.74,72.43.64,14.46,2.94,25.32,3.04,25.78.35,1.66,1.73,2.9,3.42,3.07.43.05,10.23,1.06,23.24,1.06.6,0,1.21,0,1.82,0,25.03-.16,44.15-2.9,54.5-10.24.8-.57,5.31-4.76,6.61-6.58,9.45-13.26,9.87-38.24,9.43-57.13Z" />
    <path class="cls-5"
      d="M133.89,136.21c-11.81,10.14-34.43,12.24-53.33,12.36-14.39.11-27.03-2.8-27.03-2.8,0,0-1.81-8.07-2.47-22.93-1.2-26.81,3.28-65.41,37.89-71.08,12.74-1.76,23.21-2.09,31.6-1.71,18.59.81,24.12,4.44,24.12,4.44,0,0,2.66,10.6,2.96,23.3.48,20.4-.92,47.43-13.74,58.43Z" />
    <path class="cls-4"
      d="M131.65,133.99c-11.36,9.76-34.84,12-53.03,12.11-13.85.1-24.62-1.03-24.62-1.03,0,0-2.32-10.83-2.96-25.13-1.16-25.79,3.16-62.94,36.46-68.39,12.25-1.69,22.33-2.01,30.41-1.64,17.88.78,25.92,4.9,25.92,4.9,0,0,1.16,9.13,1.45,21.35.46,19.63-1.3,47.24-13.63,57.83Z" />
    <path class="cls-2"
      d="M131.65,133.99c-11.36,9.76-34.84,12-53.03,12.11-12.16-4.93-22.04-14.33-27.58-26.16-1.16-25.79,3.16-62.94,36.46-68.39,12.25-1.69,22.33-2.01,30.41-1.64,12.1,4.98,21.9,14.41,27.37,26.25.46,19.63-1.3,47.24-13.63,57.83Z" />
    <path class="cls-1" d="M87.5,51.55c-3.61.59-6.88,1.56-9.84,2.84l19.39,46.52-.55-50.4c-2.86.27-5.85.61-9,1.04Z" />
    <path class="cls-1" d="M56.25,78.41l40.75,22.62v-.02s-34.63-34.18-34.63-34.18c-2.53,3.5-4.54,7.42-6.13,11.59Z" />
    <path class="cls-1" d="M145.28,76.32l-47.92,24.77-.09.09.11.06,46.81,1c1.08-8.84,1.27-18.01,1.09-25.92Z" />
    <path class="cls-1"
      d="M118.77,50.29l-21.72,50.63.07.17.11.06.13-.07,38.43-38.91c-4.78-5.03-10.56-9.09-17.01-11.89Z" />
    <path class="cls-1"
      d="M130.98,134.52c.22-.18.45-.35.67-.53,2.87-2.46,5.16-5.86,6.99-9.85l-41.26-22.9h-.13s33.73,33.29,33.73,33.29Z" />
    <path class="cls-1" d="M97.05,101.4l.48,43.72c5.75-.6,11.47-1.54,16.72-2.93l-17.06-40.93-.14.14Z" />
    <path class="cls-1"
      d="M51.04,119.94c.64,1.37,1.35,2.7,2.1,4l43.73-22.6.05-.11-45.46-.97c-.65,6.82-.69,13.57-.42,19.68Z" />
    <path class="cls-1" d="M77.82,145.76l18.88-44-33.87,34.29c4.37,4.05,9.43,7.35,14.99,9.71Z" />
    <path class="cls-7"
      d="M144.28,87.16s-.82,34.8-16.23,46.36c-17.21,12.9-49.43,12.59-49.43,12.59,0,0,39.72.05,53.48-12.52,13.76-12.57,12.18-46.43,12.18-46.43Z" />
    <path class="cls-5"
      d="M78.62,146.57c-.06,0-.12-.01-.17-.03-12.31-4.99-22.19-14.36-27.82-26.4-.03-.06-.04-.12-.04-.18-.75-16.76,1.04-30.9,5.34-42.01,5.94-15.37,16.54-24.41,31.51-26.86,10.98-1.52,21.24-2.07,30.5-1.65.05,0,.11.01.16.03,12.24,5.04,22.05,14.45,27.62,26.49.03.06.04.12.04.18.48,20.73-1.52,47.65-13.79,58.19h0c-11.53,9.9-35.36,12.11-53.33,12.23h0ZM51.5,119.83c5.53,11.75,15.19,20.92,27.21,25.81,17.8-.12,41.34-2.3,52.64-12h0c11.98-10.29,13.94-36.85,13.47-57.37-5.46-11.76-15.05-20.95-27.01-25.9-9.18-.41-19.36.14-30.24,1.64-32.05,5.25-37.31,39.75-36.06,67.82Z" />
    <path class="cls-6"
      d="M115.25,49.82c-7.6-.19-16.8.22-27.75,1.74-33.3,5.45-37.62,42.6-36.46,68.39.54,12.13,2.29,21.76,2.81,24.41.51-27.48.73-54.32,18.78-77.53,9.4-11.87,28.32-16,42.62-17Z" />
    <path class="cls-3"
      d="M90.43,51.17c-.97.12-1.94.24-2.94.38-26.8,4.39-34.82,29.31-36.33,52.33,5.79-28.5,16.87-44.52,39.27-52.7Z" />
    <path class="cls-5"
      d="M111.75,49.77c2.17,0,4.22.05,6.16.14,17.88.78,25.92,4.9,25.92,4.9,0,0,1.16,9.13,1.45,21.35.46,19.63-1.3,47.24-13.63,57.83-11.36,9.76-34.84,12-53.03,12.11-.59,0-1.19,0-1.77,0-12.99,0-22.85-1.04-22.85-1.04,0,0-2.32-10.83-2.96-25.13-1.16-25.79,3.16-62.94,36.46-68.39,9.32-1.29,17.37-1.78,24.25-1.78h0ZM111.75,47.64v2.14-2.14h0c-7.64,0-15.9.61-24.54,1.8-.02,0-.04,0-.05,0-15.59,2.55-26.63,11.94-32.8,27.9-4.38,11.33-6.21,25.7-5.45,42.69.64,14.32,2.9,25.03,3,25.48.19.9.95,1.58,1.87,1.68.1.01,10.13,1.05,23.08,1.05.59,0,1.18,0,1.79,0,18.24-.11,42.49-2.4,54.4-12.63,12.77-10.96,14.87-38.41,14.37-59.5-.29-12.19-1.46-21.48-1.47-21.57-.09-.7-.52-1.31-1.14-1.63-.35-.18-8.66-4.35-26.8-5.14-2.02-.09-4.13-.14-6.25-.14h0Z" />
    <ellipse class="cls-5" cx="99.99" cy="98.09" rx="13.82" ry="43.41" />
    <path class="cls-7"
      d="M97.6,140.84c.78.42,1.57.66,2.39.66,5.37,0,10.02-9.63,12.31-23.68-1.79,12.4-8.7,23.68-14.7,23.02Z" />
    <path class="cls-6"
      d="M101.77,54.74c-.57-.22-1.14-.35-1.73-.35-7.7,0-13.94,19.6-13.94,43.78,0,9.32.93,17.95,2.51,25.05-.05-23.78,1.34-47.61,13.16-68.48Z" />
    <path class="cls-3"
      d="M99.29,54.45c-.6.14-10.64-.7-13.19,34.82-3.03,42.16,10.29,50.73,10.29,50.73,0,0-14.28-15.46-8.28-55.48,3.8-25.33,11.19-30.07,11.19-30.07Z" />
    <path class="cls-3"
      d="M113.06,42.2s.97,38.33-15.83,41.24c12.04,1.88,16.84,12.1,17.68,29.63-.84-16,2.25-28.03,15.93-32.25-18.47-1.3-17.78-38.61-17.78-38.61Z" />
    <path class="cls-7"
      d="M113.06,42.2s.02.63,0,1.73c-.02-1.1,0-1.73,0-1.73h0ZM113.07,43.94c.14,7.36,1.7,35.75,17.77,36.88-13.55,4.19-16.71,16.01-15.95,31.78-.91-17.24-5.73-27.28-17.66-29.15,14.65-2.53,15.79-32,15.84-39.5h0ZM114.88,112.59c0,.16.02.32.02.48,0-.16-.02-.32-.02-.48h0ZM113.06,40.78h0c-.77,0-1.4.62-1.42,1.4,0,.03-.01.66,0,1.77-.04,5.99-.95,35.73-14.66,38.09-.69.12-1.19.72-1.18,1.41s.51,1.29,1.2,1.4c10.45,1.64,15.53,10.22,16.46,27.82l.02.48c.04.76.67,1.35,1.42,1.35.02,0,.05,0,.07,0,.78-.04,1.39-.71,1.35-1.49l-.02-.48h0c-.85-17.77,3.62-26.85,14.95-30.35.65-.2,1.07-.84.99-1.52-.08-.68-.63-1.21-1.31-1.26-15.04-1.06-16.34-29.69-16.45-35.47,0-1.1,0-1.73,0-1.76-.02-.77-.65-1.39-1.42-1.39h0Z" />
    <path class="cls-7"
      d="M166.92,57.7c-1.34,0-2.42-1.09-2.42-2.42v-2.82h-.32c-1.34,0-2.42-1.09-2.42-2.42s1.09-2.42,2.42-2.42h.32v-2.82c0-1.34,1.09-2.42,2.42-2.42s2.43,1.09,2.43,2.42v2.82h.32c1.34,0,2.42,1.09,2.42,2.42s-1.09,2.42-2.42,2.42h-.32v2.82c0,1.34-1.09,2.42-2.43,2.42Z" />
    <path class="cls-5"
      d="M166.92,43.08c.94,0,1.71.77,1.71,1.71v3.53h1.04c.94,0,1.71.77,1.71,1.71s-.77,1.71-1.71,1.71h-1.04v3.53c0,.94-.77,1.71-1.71,1.71s-1.71-.77-1.71-1.71v-3.53h-1.04c-.94,0-1.71-.77-1.71-1.71s.77-1.71,1.71-1.71h1.04v-3.53c0-.94.77-1.71,1.71-1.71h0ZM166.92,41.66c-1.73,0-3.14,1.41-3.14,3.14v2.13c-1.55.19-2.75,1.51-2.75,3.11s1.2,2.92,2.75,3.11v2.13c0,1.73,1.41,3.14,3.14,3.14s3.14-1.41,3.14-3.14v-2.13c1.55-.19,2.75-1.51,2.75-3.11s-1.2-2.92-2.75-3.11v-2.13c0-1.73-1.41-3.14-3.14-3.14h0Z" />
    <path class="cls-7"
      d="M11.14,19.93c-1.34,0-2.42-1.09-2.42-2.42v-2.82h-.33c-1.34,0-2.42-1.09-2.42-2.42s1.09-2.42,2.42-2.42h.33v-2.82c0-1.34,1.09-2.42,2.42-2.42s2.42,1.09,2.42,2.42v2.82h.33c1.34,0,2.42,1.09,2.42,2.42s-1.09,2.42-2.42,2.42h-.33v2.82c0,1.34-1.09,2.42-2.42,2.42Z" />
    <path class="cls-5"
      d="M11.14,5.31c.94,0,1.71.77,1.71,1.71v3.53h1.04c.94,0,1.71.77,1.71,1.71s-.77,1.71-1.71,1.71h-1.04v3.53c0,.94-.77,1.71-1.71,1.71s-1.71-.77-1.71-1.71v-3.53h-1.04c-.94,0-1.71-.77-1.71-1.71s.77-1.71,1.71-1.71h1.04v-3.53c0-.94.77-1.71,1.71-1.71h0ZM11.14,3.89c-1.73,0-3.14,1.41-3.14,3.14v2.13c-1.55.19-2.75,1.51-2.75,3.11s1.2,2.92,2.75,3.11v2.13c0,1.73,1.41,3.14,3.14,3.14s3.14-1.41,3.14-3.14v-2.13c1.55-.19,2.75-1.51,2.75-3.11s-1.2-2.92-2.75-3.11v-2.13c0-1.73-1.41-3.14-3.14-3.14h0Z" />
    <path class="cls-1"
      d="M11.14,100.6c-1.63,0-2.95-1.32-2.95-2.95v-3.89h-.64c-1.63,0-2.95-1.32-2.95-2.95s1.32-2.95,2.95-2.95h.64v-3.9c0-1.63,1.32-2.95,2.95-2.95s2.95,1.32,2.95,2.95v3.9h.64c1.63,0,2.95,1.32,2.95,2.95s-1.32,2.95-2.95,2.95h-.64v3.89c0,1.63-1.32,2.95-2.95,2.95Z" />
    <path class="cls-5"
      d="M11.14,81.73c1.23,0,2.24,1,2.24,2.24v4.61h1.35c1.23,0,2.24,1,2.24,2.24s-1,2.24-2.24,2.24h-1.35v4.61c0,1.23-1,2.24-2.24,2.24s-2.24-1-2.24-2.24v-4.61h-1.35c-1.23,0-2.24-1-2.24-2.24s1-2.24,2.24-2.24h1.35v-4.61c0-1.23,1-2.24,2.24-2.24h0ZM11.14,80.3c-2.02,0-3.66,1.64-3.66,3.66v3.18c-1.99.04-3.59,1.66-3.59,3.66s1.6,3.62,3.59,3.66v3.18c0,2.02,1.64,3.66,3.66,3.66s3.66-1.64,3.66-3.66v-3.18c1.99-.04,3.59-1.66,3.59-3.66s-1.6-3.62-3.59-3.66v-3.18c0-2.02-1.64-3.66-3.66-3.66h0Z" />
    <path class="cls-1"
      d="M128,158.82c-1.63,0-2.95-1.32-2.95-2.95v-3.89h-.64c-1.63,0-2.95-1.32-2.95-2.95s1.32-2.95,2.95-2.95h.64v-3.9c0-1.63,1.32-2.95,2.95-2.95s2.95,1.32,2.95,2.95v3.9h.64c1.63,0,2.95,1.32,2.95,2.95s-1.32,2.95-2.95,2.95h-.64v3.89c0,1.63-1.32,2.95-2.95,2.95Z" />
    <path class="cls-5"
      d="M128,139.95c1.23,0,2.24,1,2.24,2.24v4.61h1.35c1.23,0,2.24,1,2.24,2.24s-1,2.24-2.24,2.24h-1.35v4.61c0,1.23-1,2.24-2.24,2.24s-2.24-1-2.24-2.24v-4.61h-1.35c-1.23,0-2.24-1-2.24-2.24s1-2.24,2.24-2.24h1.35v-4.61c0-1.23,1-2.24,2.24-2.24h0ZM128,138.53c-2.02,0-3.66,1.64-3.66,3.66v3.18c-1.99.04-3.59,1.66-3.59,3.66s1.6,3.62,3.59,3.66v3.18c0,2.02,1.64,3.66,3.66,3.66s3.66-1.64,3.66-3.66v-3.18c1.99-.04,3.59-1.66,3.59-3.66s-1.6-3.62-3.59-3.66v-3.18c0-2.02-1.64-3.66-3.66-3.66h0Z" />
    <path class="cls-6"
      d="M175.55,130.59c-1.63,0-2.95-1.32-2.95-2.95v-3.89h-.64c-1.63,0-2.95-1.32-2.95-2.95s1.32-2.95,2.95-2.95h.64v-3.9c0-1.63,1.32-2.95,2.95-2.95s2.95,1.32,2.95,2.95v3.9h.64c1.63,0,2.95,1.32,2.95,2.95s-1.32,2.95-2.95,2.95h-.64v3.89c0,1.63-1.32,2.95-2.95,2.95Z" />
    <path class="cls-5"
      d="M175.55,111.72c1.23,0,2.24,1,2.24,2.24v4.61h1.35c1.23,0,2.24,1,2.24,2.24s-1,2.24-2.24,2.24h-1.35v4.61c0,1.23-1,2.24-2.24,2.24s-2.24-1-2.24-2.24v-4.61h-1.35c-1.23,0-2.24-1-2.24-2.24s1-2.24,2.24-2.24h1.35v-4.61c0-1.23,1-2.24,2.24-2.24h0ZM175.55,110.3c-2.02,0-3.66,1.64-3.66,3.66v3.18c-1.99.04-3.59,1.66-3.59,3.66s1.6,3.62,3.59,3.66v3.18c0,2.02,1.64,3.66,3.66,3.66s3.66-1.64,3.66-3.66v-3.18c1.99-.04,3.59-1.66,3.59-3.66s-1.6-3.62-3.59-3.66v-3.18c0-2.02-1.64-3.66-3.66-3.66h0Z" />
    <path class="cls-6"
      d="M67.01,178c-1.2,0-2.17-.97-2.17-2.17v-2.29h-.17c-1.2,0-2.17-.97-2.17-2.17s.97-2.17,2.17-2.17h.17v-2.29c0-1.2.97-2.17,2.17-2.17s2.17.97,2.17,2.17v2.29h.17c1.2,0,2.17.97,2.17,2.17s-.97,2.17-2.17,2.17h-.17v2.29c0,1.2-.97,2.17-2.17,2.17Z" />
    <path class="cls-5"
      d="M67.01,165.46c.8,0,1.46.65,1.46,1.46v3h.88c.8,0,1.46.65,1.46,1.46s-.65,1.46-1.46,1.46h-.88v3c0,.8-.65,1.46-1.46,1.46s-1.46-.65-1.46-1.46v-3h-.88c-.8,0-1.46-.65-1.46-1.46s.65-1.46,1.46-1.46h.88v-3c0-.8.65-1.46,1.46-1.46h0ZM67.01,164.04c-1.59,0-2.88,1.29-2.88,2.88v1.63c-1.33.25-2.34,1.43-2.34,2.83s1.01,2.58,2.34,2.83v1.63c0,1.59,1.29,2.88,2.88,2.88s2.88-1.29,2.88-2.88v-1.63c1.33-.25,2.34-1.43,2.34-2.83s-1.01-2.58-2.34-2.83v-1.63c0-1.59-1.29-2.88-2.88-2.88h0Z" />
    <path class="cls-7"
      d="M136.12,71.53c-1.34,0-2.42-1.09-2.42-2.42v-2.82h-.32c-1.34,0-2.42-1.09-2.42-2.42s1.09-2.42,2.42-2.42h.32v-2.82c0-1.34,1.09-2.42,2.42-2.42s2.42,1.09,2.42,2.42v2.82h.32c1.34,0,2.43,1.09,2.43,2.42s-1.09,2.42-2.43,2.42h-.32v2.82c0,1.34-1.09,2.42-2.42,2.42Z" />
    <path class="cls-5"
      d="M136.12,56.91c.94,0,1.71.77,1.71,1.71v3.53h1.04c.94,0,1.71.77,1.71,1.71s-.77,1.71-1.71,1.71h-1.04v3.53c0,.94-.77,1.71-1.71,1.71s-1.71-.77-1.71-1.71v-3.53h-1.04c-.94,0-1.71-.77-1.71-1.71s.77-1.71,1.71-1.71h1.04v-3.53c0-.94.77-1.71,1.71-1.71h0ZM136.12,55.49c-1.73,0-3.14,1.41-3.14,3.14v2.13c-1.55.19-2.75,1.51-2.75,3.11s1.2,2.92,2.75,3.11v2.13c0,1.73,1.41,3.14,3.14,3.14s3.14-1.41,3.14-3.14v-2.13c1.55-.19,2.75-1.51,2.75-3.11s-1.2-2.92-2.75-3.11v-2.13c0-1.73-1.41-3.14-3.14-3.14h0Z" />
    <path class="cls-6"
      d="M135.78,39.96c-1.63,0-2.95-1.32-2.95-2.95v-3.89h-.64c-1.63,0-2.95-1.32-2.95-2.95s1.32-2.95,2.95-2.95h.64v-3.9c0-1.63,1.32-2.95,2.95-2.95s2.95,1.32,2.95,2.95v3.9h.64c1.63,0,2.95,1.32,2.95,2.95s-1.32,2.95-2.95,2.95h-.64v3.89c0,1.63-1.32,2.95-2.95,2.95Z" />
    <path class="cls-5"
      d="M135.78,21.09c1.23,0,2.24,1,2.24,2.24v4.61h1.35c1.23,0,2.24,1,2.24,2.24s-1,2.24-2.24,2.24h-1.35v4.61c0,1.23-1,2.24-2.24,2.24s-2.24-1-2.24-2.24v-4.61h-1.35c-1.23,0-2.24-1-2.24-2.24s1-2.24,2.24-2.24h1.35v-4.61c0-1.23,1-2.24,2.24-2.24h0ZM135.78,19.67c-2.02,0-3.66,1.64-3.66,3.66v3.18c-1.99.04-3.59,1.66-3.59,3.66s1.6,3.62,3.59,3.66v3.18c0,2.02,1.64,3.66,3.66,3.66s3.66-1.64,3.66-3.66v-3.18c1.99-.04,3.59-1.66,3.59-3.66s-1.6-3.62-3.59-3.66v-3.18c0-2.02-1.64-3.66-3.66-3.66h0Z" />
  </g>
</svg>