<?xml version="1.0" encoding="UTF-8"?>
<svg id="Capa_2" xmlns="http://www.w3.org/2000/svg" viewBox="0 0 179.34 198.69">
  <defs>
    <style>
      .cls-1 {
        fill: aqua;
      }

      .cls-2 {
        fill: #29abe2;
      }

      .cls-3 {
        fill: #fff;
      }

      .cls-4 {
        fill: #1b1464;
      }

      .cls-5 {
        fill: #fcee21;
      }

      .cls-6 {
        fill: #ed1e79;
      }
    </style>
  </defs>
  <g id="_0">
    <rect class="cls-3" x="21.94" y="97.39" width="9.2" height="4.1" />
    <rect class="cls-3" x="17.77" y="93.22" width="17.54" height="12.44" rx="4.17" ry="4.17" />
    <path class="cls-3"
      d="M175.53,106.94c-4.19-2.21-10.61-.66-13.02,1.33-.93.77-1.8,1.88-2.57,3.07-.28-.91-.72-1.63-1.33-2.23-.25-.25-.53-.46-.81-.64,1.87-4.19,3.33-8.54,4.34-13.01.25.07.51.12.78.15h0c.16.02.34.03.49.03,3.18,0,5.38-3.11,6.48-5.69,1.02.29,2.19.27,3.5-.32,1.78-.79,2.94-2.47,3.12-4.5.28-3.24-2.16-7.27-4.52-8.87-1.28-.86-2.8-1.28-4.29-1.44.73-1.18,1.16-2.44.8-4-.22-.92-.71-1.74-1.39-2.36.82-4.54.71-8.09-.32-10.74.95-.53,1.69-1.36,2.1-2.39.47-1.17.46-2.46-.03-3.62l-2.4-5.66c-.15-.36-.34-.69-.57-.99-.1-.42-.26-.83-.48-1.21l-.89-1.57c-.29-.52-.66-.97-1.1-1.34-.09-.57-.29-1.12-.58-1.64l-.88-1.57c-.21-.37-.46-.7-.75-1-.14-.35-.32-.68-.55-.99l-3.66-5.06c-.23-.32-.51-.6-.81-.86-.19-.38-.43-.73-.72-1.05l-4.6-5.07c-.85-.91-1.99-1.44-3.22-1.51-1.27-.07-2.49.35-3.46,1.23l-1.21,1.09c-.92.86-1.47,2.02-1.52,3.22-.02.37,0,.73.07,1.08-.92-.86-1.87-1.69-2.84-2.5.34.01.69,0,1.03-.06,1.25-.22,2.34-.92,3.07-1.96l.9-1.28c.74-1.04,1.02-2.31.79-3.61-.23-1.24-.92-2.32-1.95-3.03l-5.55-3.88c-.7-.5-1.52-.77-2.36-.84-.68-.77-1.53-1.43-2.55-1.98-1.44-.79-2.89-1.18-4.33-1.17-.54-.92-1.38-1.67-2.44-2.1l-2.51-1.01c-1.55-.64-3.22-.48-4.54.37-.09-.23-.19-.44-.31-.66-.63-1.11-1.65-1.9-2.86-2.24l-2.05-.57c-1.23-.34-2.51-.18-3.59.43-1.12.63-1.94,1.69-2.26,2.88l-1.53,5.51c-.14-.02-.28-.04-.41-.06l.04-.81c.03-.67-.07-1.33-.31-1.94.22-.52.35-1.08.38-1.66l.06-1.38c.06-1.26-.37-2.48-1.23-3.42-.86-.95-2.04-1.51-3.3-1.56L94.68,0c-.44-.02-.86.03-1.27.13-.42-.09-.85-.14-1.3-.12l-2.06.13c-.42.03-.83.11-1.21.24-.4-.08-.82-.11-1.25-.09l-2,.13c-.41.02-.8.1-1.18.22-.38-.02-.76-.02-1.14.05l-6.7,1.19c-1.23.22-2.31.91-3.06,1.97-.72,1.04-1,2.3-.77,3.54l.21,1.16c-.58-1.06-1.81-2.51-4.34-3.05-1.66-.36-3.41-.16-5.2.61-.63.27-1.21.58-1.73.93-.43.05-.85.17-1.26.34l-1.13.48c-.33.14-.63.31-.92.51-.25.09-.49.2-.72.33l-5.91,3.35c-.37.21-.7.48-.99.77-.38.15-.74.34-1.09.58l-5.04,3.66c-1.03.74-1.73,1.88-1.91,3.06-.22,1.26.09,2.57.84,3.6l.88,1.21s0,.01.01.02c.34.47.76.86,1.23,1.17.15.55.4,1.07.74,1.55l.07.1h-.01c-.5-.45-1.09-.78-1.71-.98-.27-.49-.62-.94-1.06-1.33l-1.03-.91c-.95-.84-2.18-1.26-3.46-1.18-1.25.08-2.4.65-3.26,1.61l-4.02,4.58c-.26.29-.48.6-.65.94-.32.27-.6.58-.85.93l-1.34,1.93c-.22.31-.4.64-.54.99-.27.24-.52.52-.72.83l-1.15,1.65c-.29.41-.5.85-.64,1.32-.34.33-.64.69-.86,1.12l-2.98,5.51c-.57,1.06-.71,2.26-.41,3.43-.94.53-1.68,1.34-2.08,2.35l-.79,1.97c-.48,1.18-.46,2.47.03,3.64.5,1.17,1.42,2.08,2.6,2.55l5.28,2.12c-1.23,4.37-2.04,8.89-2.41,13.52-2.98,3.44-4.99,7.53-6.23,10.68-1.34.27-2.74.93-3.64,2.42-.71,1.18-.87,2.58-.49,3.86-2.71-1.61-6.19-2.36-9.45-.55-4.06,2.24-5.33,7.3-4.21,10.9.54,1.75,1.68,3.07,3.11,3.74.1,1.15.42,2.27,1.05,3.24,1.13,1.75,3.07,2.71,5.13,2.59.91-.05,1.72-.26,2.43-.63,1.72,2.39,3.92,2.72,5,2.72.44,0,.88-.05,1.3-.14,1.42-.32,2.97-1.17,3.63-3.24,1.37.33,2.83.17,4.14-.48,1.5-.74,2.56-1.93,3.05-3.4,1.74,4.3,3.92,8.46,6.53,12.4.01.02.03.04.05.07,5.03,7.58,11.38,14.01,18.87,19.13,5.25,3.59,10.94,6.43,16.91,8.45,1.27.43,2.57.83,3.89,1.19-.19.55-.34,1.11-.45,1.68-.56-.19-1.17-.29-1.81-.29h-8.09c-1.36,0-2.6.46-3.56,1.3-.27.22-.52.47-.74.76l-.07.1s-.02.03-.03.04l-1.12,1.53s0,0,0,0c-.09.11-.18.24-.27.38-.27.42-.48.88-.63,1.38l-.64,1.87c-.31-.7-.69-1.37-1.14-1.99-1.45-2.01-3.38-3.45-5.73-4.29-2.01-.72-4.34-1.08-6.93-1.08h-9.28c-1.29,0-2.5.5-3.46,1.46-.04.04-.08.08-.12.13-.05.05-.1.11-.15.17l-1.27,1.54s-.05.06-.08.09h0s-.07.08-.1.12l-.03.04c-.26.32-.47.67-.62,1.04-.2.46-.34.94-.39,1.41-.02.18-.04.37-.04.54v18.9c0,1,.31,1.95.86,2.75-.3.62-.48,1.31-.48,2.06,0,.18.01.37.04.55l2.02,14.77c.16,1.18.71,2.24,1.61,3.07.94.86,2.17,1.33,3.48,1.33h3.25c1.17,0,2.25-.36,3.16-1.05.89.69,1.98,1.05,3.16,1.05h3.25c.77,0,1.51-.16,2.19-.48.63.31,1.33.48,2.06.48h14.71c1.25,0,2.43-.49,3.3-1.36.2-.19.35-.39.48-.56.06-.08.13-.17.18-.26l.24-.37c.22.43.49.83.83,1.18.89.89,2.07,1.38,3.32,1.38h4.78c1.25,0,2.43-.49,3.31-1.37.18-.18.32-.35.43-.5.09-.11.17-.23.25-.36.21.35.48.67.78.96.87.82,2.02,1.27,3.21,1.27h4.78c1.09,0,2.12-.37,2.95-1.05.83.68,1.86,1.05,2.95,1.05h4.78c1.25,0,2.43-.49,3.31-1.37.26-.26.49-.56.69-.88.05-.08.09-.16.14-.24l1.03-1.9c.11-.2.2-.41.27-.63.18-.5.27-1.03.27-1.56v-14.46c.22.09.44.19.67.27.82.3,1.68.52,2.57.7-.01.13-.04.26-.04.4v14.99c0,1.25.49,2.42,1.36,3.3.89.89,2.07,1.38,3.32,1.38h4.2c1.25,0,2.42-.49,3.32-1.38.3-.3.56-.64.76-1.01.21.37.46.71.77,1.01.89.89,2.07,1.38,3.32,1.38h4.2c.46,0,.9-.09,1.33-.22.43.13.87.22,1.33.22h14.67c1.25,0,2.43-.49,3.3-1.36.33-.33.54-.64.66-.84.09-.14.18-.29.25-.44.06-.12.11-.24.16-.36l.73-1.75c.04-.09.07-.19.1-.28.18-.5.27-1.02.27-1.55v-3.25c0-1.25-.49-2.43-1.38-3.32-.04-.04-.08-.08-.12-.11v-1.06c.03-.07.07-.14.1-.21,0-.01.01-.03.02-.04l.78-1.82c.04-.1.08-.21.12-.31.17-.49.26-1.01.26-1.53v-3.25c0-.75-.19-1.46-.52-2.11l.3-.7c.3-.64.45-1.32.45-2.02v-4.1c0-1.29-.5-2.51-1.42-3.42-.15-.15-.31-.29-.47-.41v-2.35c.13-.2.25-.4.35-.62.02-.04.03-.07.05-.11l.75-1.66s.04-.08.05-.12h0c.14-.31.24-.62.29-.95.07-.32.1-.64.1-.96v-4.1c0-1.28-.5-2.5-1.43-3.43-.92-.91-2.13-1.41-3.41-1.41h-18.1c-1.29,0-2.5.5-3.42,1.42-.23.23-.42.47-.56.67-.12.16-.22.34-.32.52l-.39.75c-1.26-1.07-2.88-1.92-4.8-2.53-1.81-.57-3.82-.86-6-.86-3.86,0-7.03.84-9.51,2.47-.01-1.01-.15-2.01-.42-2.95,8.11-1.77,15.88-4.98,22.85-9.46,3.93-2.53,7.61-5.45,10.92-8.69.89-.86,1.75-1.75,2.6-2.66.02.04.04.08.05.1.78,1.47,2.3,2.39,3.97,2.39.3,0,.6-.03.97-.1l.4-.09c13.2-2.91,13.32-2.94,13.61-3.04,3.36-1.12,14.37-5.33,15.01-12.62.27-3.05-1.14-5.7-3.77-7.09ZM74.97,12.05c.28.2.59.35.9.48-.34.09-.69.18-1.03.28-.07-.39-.17-.77-.32-1.15.15.13.29.27.45.38,0,0,0,0,0,0Z" />
    <path class="cls-4"
      d="M34.2,156.56v15.8c0,.21.08.4.23.55.15.16.34.23.55.23h9.28c3.2,0,5.76-.64,7.68-1.92.12-.08.22-.17.33-.26l.05.43c.06-.09,1.42-1.94,1.42-1.94h-.02c.9-1.31,1.36-2.97,1.36-5.01v-2.97c0-2-.49-3.67-1.46-5.01-.97-1.34-2.24-2.29-3.81-2.85-1.57-.56-3.42-.84-5.56-.84h-9.28c-.21,0-.4.08-.55.23-.02.02-.02.03-.03.05,0,0,0,0,0,0l-1.48,1.8.55,2.04s.33-.15.73-.32ZM41.76,158.45h2.65c.91,0,1.63.22,2.17.65.53.44.8,1.05.8,1.85v4.02c0,.8-.27,1.41-.8,1.85-.53.44-1.26.65-2.17.65h-2.65v-9.02Z" />
    <path class="cls-4"
      d="M58.09,173.15h4.84l.43,1.34,1.23-1.79h0c.12-.15.24-.32.32-.54l.73-2.04h7.1l.73,2.04c.25.66.69.99,1.31.99h3.65l1.28,1.43,1.08-1.7s.07-.1.09-.14v-.02s0,0,0,0c.02-.04.03-.08.03-.12,0-.12,0-.2-.03-.26l-6.34-18.6c-.17-.64-.61-.96-1.31-.96h-8.09c-.46,0-.79.15-1.02.43,0,0,0-.02,0-.02l-.09.13s0,0,0,0l-1.12,1.53.25.92-5.65,16.56c-.02.06-.03.15-.03.26s.06.24.19.36c.13.13.28.19.45.19ZM69.18,158.39l2.07,6.05h-4.13l2.07-6.05Z" />
    <path class="cls-4"
      d="M83.76,172.36c0,.21.08.4.23.55.16.16.34.23.55.23h3.42c.46.48,1.48,1.51,1.48,1.51l1.19-1.92.02-.03h-.01c.06-.11.1-.23.1-.36v-7.92l6.34,8.09c.31.41.7.61,1.16.61h3.28l1.05,1.38s1.03-1.77,1.04-1.79h-.02c.07-.12.12-.24.12-.38v-18.8c0-.21-.08-.4-.23-.55-.16-.16-.34-.23-.55-.23h-5.41c-.21,0-.4.08-.55.23-.02.02-.03.05-.05.08h0s-1.16,1.8-1.16,1.8l.98.13v7.1l-6.34-8.76c-.29-.39-.67-.58-1.13-.58h-4.71c-.21,0-.4.08-.55.23-.07.07-.12.15-.16.23h0s-.98,1.46-.98,1.46l.91.3v17.36Z" />
    <path class="cls-4"
      d="M123.63,172.5c1.42-.45,2.55-1.04,3.4-1.76.31-.27.58-.54.84-.82l.18.26.85-1.66h0c.47-.84.71-1.73.71-2.65,0-.17-.06-.32-.19-.44-.13-.12-.28-.19-.45-.19h-6.29c-.43,0-.77.25-1.03.74-.26.5-.59.87-.98,1.13-.39.26-1.01.39-1.88.39s-1.56-.2-2.09-.61c-.53-.4-.8-.98-.8-1.73v-4.4c0-.75.27-1.33.8-1.73.53-.4,1.23-.61,2.09-.61s1.49.13,1.88.39c.39.26.71.63.98,1.13.26.5.61.74,1.03.74h4.96l1.01,1.35.9-1.73s0-.01,0-.02h0s0-.01,0-.01c.03-.07.04-.14.04-.22,0-1.77-.85-3.4-2.56-4.87-.85-.73-1.99-1.31-3.4-1.76-1.42-.45-3.01-.67-4.77-.67-4.37,0-7.48,1.23-9.34,3.69-.12.16-.21.34-.31.5v-.07s-1.3,2.23-1.3,2.23l.37.14c-.15.65-.24,1.32-.24,2.05v3.35c0,1.91.49,3.52,1.48,4.84.99,1.32,2.27,2.26,3.86,2.84,1.58.58,3.33.87,5.25.87s3.59-.22,5.01-.67Z" />
    <path class="cls-4"
      d="M153.28,167.7c-.16-.16-.34-.23-.55-.23h-11.61v-1.83h9.09l.57,1.25.76-1.69h-.01c.06-.11.09-.22.09-.35v-3.78c0-.21-.08-.4-.23-.55-.16-.16-.34-.23-.55-.23h-9.72v-1.83h10.71l.55,1.24.77-1.7s.01-.03.02-.04l.02-.04h-.01c.03-.07.05-.15.05-.24v-4.1c0-.21-.08-.4-.23-.55-.16-.16-.34-.23-.55-.23h-18.1c-.21,0-.4.08-.55.23-.06.06-.1.13-.14.2,0,0,0-.02,0-.02l-.88,1.7s.49.13.79.18v17.28c0,.21.08.4.23.55.16.16.34.23.55.23h18.08l.27,1.28.74-1.72c.05-.11.09-.22.09-.34v-4.1c0-.21-.08-.4-.23-.55Z" />
    <path class="cls-4"
      d="M69.88,177.19c0-.17-.06-.32-.18-.44-.12-.12-.27-.18-.44-.18h-14.64c-.17,0-.32.06-.44.18-.04.04-.06.08-.08.12v-.02s-.74,1.03-.74,1.03l.1-.74v-.07c0-.14-.05-.26-.15-.36-.1-.1-.22-.15-.36-.15h-3.97c-.31,0-.56.09-.75.28-.07.06-.11.14-.16.22v-.02s-1.29,1.75-1.29,1.75l.97.08-.6,5.73-1.34-3.67c-.05-.15-.16-.3-.33-.45-.18-.15-.4-.22-.68-.22h-1.57c-.28,0-.5.07-.68.22-.05.04-.08.08-.12.12v-.02s-.04.06-.04.06c-.04.04-.07.08-.09.13l-1.38,1.86.66.05-.7,1.92-.74-7.06c-.03-.28-.14-.51-.33-.69-.19-.18-.44-.28-.75-.28h-3.97c-.14,0-.26.05-.36.15l-1.4,1.82s.92.23,1.49.35l1.77,12.96c.03.23.14.44.33.61.19.18.43.27.73.27h2.77l.05,1.41,1.35-1.88h0c.04-.05.07-.11.09-.16l2.12-4.87,2.12,4.87c.05.14.16.28.33.42.18.14.4.21.68.21h2.27l.56,1.41,1.28-1.85h-.02c.1-.13.18-.28.2-.44l1.81-13.26.73.04v2.05c0,.17.06.32.18.44.12.12.27.18.44.18h4.22v6.69h-4.22c-.17,0-.32.06-.44.18-.03.03-.07.09-.07.09l-1.23,1.79s.71.19,1.12.3v1.75c0,.17.06.32.18.44.12.12.27.18.44.18h13.57l.39,1.58,1.21-1.88h-.01c.06-.1.11-.2.11-.32v-3.49c0-.17-.06-.32-.18-.44-.12-.12-.27-.18-.44-.18h-4.18v-6.69h2.94l.54,1.56,1.24-1.88h-.01c.06-.09.1-.19.1-.31v-3.49Z" />
    <path class="cls-4"
      d="M87.91,176.57h-15.93c-.17,0-.32.06-.44.18-.04.04-.06.08-.09.13v-.02s-1.2,1.8-1.2,1.8l1.1.17v2.08c0,.17.06.32.18.44.12.12.27.18.44.18h4.96v10.57c0,.17.06.32.18.44.12.12.27.18.44.18h3.65l.48,1.6,1.17-1.93h-.01c.05-.09.09-.19.09-.3v-10.57h3.43l.97,1.49,1-1.68c.12-.12.18-.27.18-.44v-3.72c0-.17-.06-.32-.18-.44-.12-.12-.27-.18-.44-.18Z" />
    <path class="cls-4"
      d="M105.64,176.57h-4.76c-.17,0-.32.06-.44.18-.05.05-.07.1-.1.15,0,0,0-.01,0-.01l-1.04,1.79s.52.11.96.2v3.05h-4.62v-4.73c0-.17-.06-.32-.18-.44-.12-.12-.27-.18-.44-.18h-4.76c-.17,0-.32.06-.44.18-.05.05-.08.1-.11.16v-.02s-1.12,1.82-1.12,1.82l1.04.13v13.26c0,.18.06.33.18.45.12.12.27.17.44.17h3.74l.46,1.6,1.13-1.98h0c.03-.07.05-.15.05-.24v-4.92h4.62v4.92c0,.17.06.32.18.44.12.12.27.18.44.18h3.89c.12.47.4,1.54.4,1.54l1.03-1.9s0,0,0,0c.04-.08.06-.17.06-.26v-14.91c0-.17-.06-.32-.18-.44-.12-.12-.27-.18-.44-.18Z" />
    <path class="cls-4"
      d="M135.65,176.57h-4.22c-.43,0-.76.21-.99.62l-3.02,5.54-3.02-5.54c-.23-.42-.56-.62-.99-.62h-4.22c-.17,0-.32.06-.44.18-.04.04-.06.09-.09.13h0s-.97,1.82-.98,1.84c0,0,.48.15.89.27v13.1c0,.17.06.32.18.44.12.12.27.18.44.18h3.33c.18.54.51,1.47.51,1.47l.92-1.85s0,0,0-.01h0s0-.01,0-.01c.03-.07.04-.14.04-.22v-7.16l1.69,3.32c.05.11.15.23.32.37.17.14.38.21.65.21h1.57c.18,0,.37-.05.55-.15.18-.1.32-.24.42-.43l1.69-3.32v7.16c0,.17.06.32.18.44.12.12.27.18.44.18h3.35c.19.54.54,1.47.54,1.47l.85-1.84s0,0,0,0c.04-.08.06-.16.06-.26v-14.91c0-.17-.06-.32-.18-.44-.12-.12-.27-.18-.44-.18Z" />
    <path class="cls-4"
      d="M153.52,188.85c0-.17-.06-.32-.18-.44-.12-.12-.27-.18-.44-.18h-1.7l.76-1.81h0c.04-.08.07-.17.07-.27v-3c0-.17-.06-.32-.18-.44-.12-.12-.27-.18-.44-.18h-7.71v-1.45h8.32l.45,1.47.78-1.84h0c.04-.08.06-.16.06-.25v-3.26c0-.17-.06-.32-.18-.44-.12-.12-.27-.18-.44-.18h-14.36c-.17,0-.33.05-.44.18-.08.09-.14.2-.14.2,0,0,0,0,0,0l-.83,1.75h.78v13.4c0,.17.06.32.18.44.12.12.27.18.44.18h13.67l.67,1.6.81-1.95h0c.04-.08.07-.17.07-.27v-3.25ZM143.68,188.23v-1.45h6.63l.85,1.45h-7.49Z" />
    <path class="cls-6"
      d="M53.8,163.21c0-2.01-.49-3.69-1.46-5.03-.98-1.35-2.25-2.3-3.83-2.87-1.58-.57-3.44-.85-5.59-.85h-9.33c-.21,0-.4.08-.56.23s-.23.34-.23.56v18.9c0,.21.08.4.23.56.16.16.34.23.56.23h9.33c3.22,0,5.79-.64,7.72-1.93,2.11-1.42,3.16-3.7,3.16-6.82v-2.98ZM46.04,166.72c0,.8-.27,1.42-.8,1.86-.54.44-1.26.66-2.18.66h-2.66v-9.07h2.66c.92,0,1.64.22,2.18.66.54.44.8,1.06.8,1.86v4.04Z" />
    <path class="cls-6"
      d="M56.81,174.95h5.53c.62,0,1.06-.33,1.32-.99l.73-2.05h7.14l.73,2.05c.25.66.69.99,1.32.99h5.53c.18,0,.33-.06.45-.19.13-.13.19-.25.19-.37s-.01-.2-.03-.26l-6.38-18.69c-.18-.64-.61-.97-1.32-.97h-8.13c-.7,0-1.14.32-1.32.97l-6.38,18.69c-.02.06-.03.15-.03.26s.06.24.19.37c.13.13.28.19.45.19ZM67.96,160.11l2.08,6.08h-4.15l2.08-6.08Z" />
    <path class="cls-6"
      d="M101.89,154.47h-5.44c-.21,0-.4.08-.56.23s-.23.34-.23.56v8.6l-6.38-8.81c-.29-.39-.67-.59-1.14-.59h-4.74c-.21,0-.4.08-.56.23s-.23.34-.23.56v18.9c0,.21.08.4.23.56.16.16.34.23.56.23h5.44c.21,0,.4-.08.56-.23.16-.16.23-.34.23-.56v-7.96l6.38,8.13c.31.41.7.61,1.17.61h4.71c.21,0,.4-.08.56-.23.16-.16.23-.34.23-.56v-18.9c0-.21-.08-.4-.23-.56-.16-.16-.34-.23-.56-.23Z" />
    <path class="cls-6"
      d="M126.11,172.53c1.72-1.48,2.57-3.11,2.57-4.89,0-.17-.06-.32-.19-.45-.13-.12-.28-.19-.45-.19h-6.32c-.43,0-.78.25-1.04.75-.26.5-.59.88-.98,1.13-.39.26-1.02.39-1.89.39s-1.57-.2-2.11-.61c-.54-.41-.8-.99-.8-1.74v-4.43c0-.76.27-1.34.8-1.74.54-.41,1.24-.61,2.11-.61s1.5.13,1.89.39c.39.26.72.64.98,1.13.26.5.61.75,1.04.75h6.32c.18,0,.33-.06.45-.19.13-.12.19-.27.19-.45,0-1.78-.86-3.42-2.57-4.89-.86-.73-2-1.32-3.42-1.77-1.42-.45-3.02-.68-4.8-.68-4.39,0-7.52,1.24-9.39,3.71-.99,1.33-1.49,2.96-1.49,4.88v3.37c0,1.92.5,3.54,1.49,4.86.99,1.32,2.29,2.27,3.88,2.85,1.59.58,3.35.87,5.28.87s3.61-.23,5.03-.68c1.42-.45,2.56-1.04,3.42-1.77Z" />
    <path class="cls-6"
      d="M152.5,169.48c-.16-.16-.34-.23-.56-.23h-11.67v-1.84h9.77c.21,0,.4-.08.56-.23.16-.16.23-.34.23-.56v-3.8c0-.21-.08-.4-.23-.56-.16-.16-.34-.23-.56-.23h-9.77v-1.84h11.38c.21,0,.4-.08.56-.23.16-.16.23-.34.23-.56v-4.12c0-.21-.08-.4-.23-.56-.16-.16-.34-.23-.56-.23h-18.2c-.21,0-.4.08-.56.23-.16.16-.23.34-.23.56v18.9c0,.21.08.4.23.56.16.16.34.23.56.23h18.49c.21,0,.4-.08.56-.23s.23-.34.23-.56v-4.13c0-.21-.08-.4-.23-.56Z" />
    <path class="cls-1"
      d="M51.65,178.39h-3.99c-.31,0-.56.09-.75.28-.19.19-.31.42-.34.7l-.74,7.1-1.35-3.69c-.05-.15-.16-.31-.34-.45-.18-.15-.41-.22-.68-.22h-1.58c-.28,0-.51.07-.68.22-.18.15-.29.3-.34.45l-1.35,3.69-.74-7.1c-.03-.28-.14-.51-.34-.7-.19-.19-.44-.28-.75-.28h-3.99c-.14,0-.26.05-.36.15-.1.1-.15.22-.15.36v.07l2.02,14.78c.03.23.14.44.34.62.19.18.44.27.73.27h3.25c.28,0,.51-.07.68-.21.18-.14.29-.28.34-.42l2.13-4.9,2.13,4.9c.05.14.16.28.34.42.18.14.41.21.68.21h3.25c.29,0,.54-.09.73-.27.19-.18.31-.38.34-.62l2.02-14.78v-.07c0-.14-.05-.26-.15-.36-.1-.1-.22-.15-.36-.15Z" />
    <path class="cls-1"
      d="M68.03,178.39h-14.71c-.17,0-.32.06-.44.19-.12.12-.19.27-.19.44v3.5c0,.17.06.32.19.44.12.12.27.19.44.19h4.25v6.73h-4.25c-.17,0-.32.06-.44.19-.12.12-.19.27-.19.44v3.5c0,.17.06.32.19.44.12.12.27.19.44.19h14.71c.17,0,.32-.06.44-.19.12-.12.19-.27.19-.44v-3.5c0-.17-.06-.32-.19-.44-.12-.12-.27-.19-.44-.19h-4.2v-6.73h4.2c.17,0,.32-.06.44-.19.12-.12.19-.27.19-.44v-3.5c0-.17-.06-.32-.19-.44-.12-.12-.27-.19-.44-.19Z" />
    <path class="cls-1"
      d="M86.78,178.39h-16.01c-.17,0-.32.06-.44.19-.12.12-.19.27-.19.44v3.74c0,.17.06.32.19.44.12.12.27.19.44.19h4.99v10.63c0,.17.06.32.19.44.12.12.27.19.44.19h4.78c.17,0,.32-.06.44-.19.12-.12.19-.27.19-.44v-10.63h4.99c.17,0,.32-.06.44-.19.12-.12.19-.27.19-.44v-3.74c0-.17-.06-.32-.19-.44-.12-.12-.27-.19-.44-.19Z" />
    <path class="cls-1"
      d="M104.6,178.39h-4.78c-.17,0-.32.06-.44.19-.12.12-.19.27-.19.44v4.76h-4.64v-4.76c0-.17-.06-.32-.19-.44-.12-.12-.27-.19-.44-.19h-4.78c-.17,0-.32.06-.44.19-.12.12-.19.27-.19.44v14.99c0,.19.06.34.19.45.12.12.27.17.44.17h4.78c.17,0,.32-.06.44-.19.12-.12.19-.27.19-.44v-4.94h4.64v4.94c0,.17.06.32.19.44.12.12.27.19.44.19h4.78c.17,0,.32-.06.44-.19.12-.12.19-.27.19-.44v-14.99c0-.17-.06-.32-.19-.44-.12-.12-.27-.19-.44-.19Z" />
    <path class="cls-1"
      d="M134.77,178.39h-4.25c-.43,0-.77.21-1,.63l-3.04,5.57-3.04-5.57c-.23-.42-.57-.63-1-.63h-4.25c-.17,0-.32.06-.44.19-.12.12-.19.27-.19.44v14.99c0,.17.06.32.19.44.12.12.27.19.44.19h4.2c.17,0,.32-.06.44-.19.12-.12.19-.27.19-.44v-7.19l1.69,3.34c.05.11.15.23.32.37.17.14.39.21.65.21h1.58c.19,0,.37-.05.56-.15.19-.1.32-.24.42-.43l1.69-3.34v7.19c0,.17.06.32.19.44.12.12.27.19.44.19h4.2c.17,0,.32-.06.44-.19.12-.12.19-.27.19-.44v-14.99c0-.17-.06-.32-.19-.44-.12-.12-.27-.19-.44-.19Z" />
    <path class="cls-1"
      d="M152.11,190.11h-9.26v-1.46h7.75c.17,0,.32-.06.44-.19.12-.12.19-.27.19-.44v-3.02c0-.17-.06-.32-.19-.44-.12-.12-.27-.19-.44-.19h-7.75v-1.46h9.03c.17,0,.32-.06.44-.19.12-.12.19-.27.19-.44v-3.27c0-.17-.06-.32-.19-.44-.12-.12-.27-.19-.44-.19h-14.43c-.17,0-.32.06-.44.19s-.19.27-.19.44v14.99c0,.17.06.32.19.44.12.12.27.19.44.19h14.67c.17,0,.32-.06.44-.19.12-.12.19-.27.19-.44v-3.27c0-.17-.06-.32-.19-.44-.12-.12-.27-.19-.44-.19Z" />
    <path class="cls-1"
      d="M46.4,154.77c-1.07-.2-2.22-.31-3.49-.31h-9.33c-.21,0-.4.08-.56.23s-.23.34-.23.56v11.77s1.59-8.03,3.27-9.62c1.68-1.59,9.69-2.42,10.34-2.62Z" />
    <path class="cls-1"
      d="M70.63,154.47h-6.74c-.7,0-1.14.32-1.32.97l-5.27,15.44c2.61-4.17,6.66-14.72,6.66-14.72l6.66-1.68Z" />
    <path class="cls-1"
      d="M88.14,154.47h-4.74c-.21,0-.4.08-.56.23-.16.16-.23.34-.23.56v14.14c.71-2.34,1.45-12.42,1.65-12.99.2-.57,4.35-1.94,3.88-1.94Z" />
    <path class="cls-1"
      d="M121.97,154.92c-1.24-.31-2.59-.48-4.07-.48-4.39,0-7.52,1.24-9.39,3.71-.99,1.33-1.49,2.96-1.49,4.88v3.37c0,.08.01.15.02.22,1.84-10.38,7.6-11.38,14.94-11.69Z" />
    <path class="cls-1"
      d="M145.59,154.47h-12.13c-.21,0-.4.08-.56.23-.16.16-.23.34-.23.56v11.71s1.27-10.27,1.83-10.83,11.09-1.67,11.09-1.67Z" />
    <path class="cls-4"
      d="M42.91,155.3c2.04,0,3.82.27,5.31.8,1.43.51,2.56,1.35,3.44,2.57.87,1.19,1.3,2.72,1.3,4.54v2.98c0,2.85-.91,4.86-2.79,6.12-1.78,1.19-4.22,1.79-7.26,1.79h-9.29v-18.81h9.29ZM39.56,170.07h3.5c1.11,0,2.02-.28,2.71-.85.73-.59,1.11-1.46,1.11-2.5v-4.04c0-1.04-.38-1.91-1.11-2.5-.69-.56-1.6-.85-2.71-.85h-3.5v10.74h0ZM42.91,154.47h-9.33c-.21,0-.4.08-.56.23s-.23.34-.23.56v18.9c0,.21.08.4.23.56.16.16.34.23.56.23h9.33c3.22,0,5.79-.64,7.72-1.93,2.11-1.42,3.16-3.7,3.16-6.82v-2.98c0-2.01-.49-3.69-1.46-5.03-.98-1.35-2.25-2.3-3.83-2.87-1.58-.57-3.44-.85-5.59-.85h0ZM40.4,169.24v-9.07h2.66c.92,0,1.64.22,2.18.66.54.44.8,1.06.8,1.86v4.04c0,.8-.27,1.42-.8,1.86-.54.44-1.26.66-2.18.66h-2.66Z" />
    <path class="cls-4"
      d="M72.02,155.3c.36,0,.44.1.51.35v.03s.02.02.02.02l6.28,18.41h-5.26c-.15,0-.36,0-.53-.44l-.73-2.05-.2-.55h-8.31l-.2.55-.72,2.03c-.18.46-.38.46-.54.46h-5.26l6.28-18.41v-.02s.02-.03.02-.03c.07-.25.15-.35.51-.35h8.13ZM64.71,167.03h6.49l-.38-1.1-2.08-6.08-.79-2.31-.79,2.31-2.08,6.08-.38,1.1h0ZM72.02,154.47h-8.13c-.7,0-1.14.32-1.32.97l-6.38,18.69c-.02.06-.03.15-.03.26s.06.24.19.37c.13.13.28.19.45.19h5.53c.62,0,1.06-.33,1.32-.99l.73-2.05h7.14l.73,2.05c.25.66.69.99,1.32.99h5.53c.18,0,.33-.06.45-.19s.19-.25.19-.37-.01-.2-.03-.26l-6.38-18.69c-.18-.64-.61-.97-1.32-.97h0ZM65.88,166.2l2.08-6.08,2.08,6.08h-4.15Z" />
    <path class="cls-4"
      d="M101.85,155.3v18.81h-4.67c-.15,0-.32-.03-.51-.29l-6.38-8.13-1.49-1.9v10.33h-5.35v-18.81h4.69c.17,0,.32.04.47.24l6.38,8.81,1.51,2.08v-11.13h5.35ZM101.89,154.47h-5.44c-.21,0-.4.08-.56.23s-.23.34-.23.56v8.6l-6.38-8.81c-.29-.39-.67-.59-1.14-.59h-4.74c-.21,0-.4.08-.56.23s-.23.34-.23.56v18.9c0,.21.08.4.23.56.16.16.34.23.56.23h5.44c.21,0,.4-.08.56-.23.16-.16.23-.34.23-.56v-7.96l6.38,8.13c.31.41.7.61,1.17.61h4.71c.21,0,.4-.08.56-.23.16-.16.23-.34.23-.56v-18.9c0-.21-.08-.4-.23-.56-.16-.16-.34-.23-.56-.23h0Z" />
    <path class="cls-4"
      d="M117.89,155.27c1.68,0,3.21.21,4.55.64,1.31.41,2.36.96,3.13,1.61,1.47,1.27,2.22,2.6,2.28,4.06h-6.12s-.14,0-.3-.3c-.33-.62-.75-1.1-1.26-1.44-.54-.35-1.3-.53-2.35-.53s-1.93.26-2.61.78c-.74.56-1.14,1.39-1.14,2.41v4.43c0,1.01.39,1.85,1.14,2.41.68.52,1.56.78,2.61.78s1.81-.17,2.35-.53c.51-.33.93-.82,1.26-1.44.16-.3.27-.3.3-.3h6.12c-.06,1.46-.81,2.79-2.28,4.06-.77.65-1.82,1.2-3.13,1.61-1.34.42-2.94.64-4.78.64s-3.5-.28-4.99-.82c-1.45-.53-2.59-1.37-3.5-2.57-.89-1.18-1.32-2.61-1.32-4.36v-3.37c0-1.75.43-3.18,1.32-4.37,1.7-2.24,4.63-3.38,8.73-3.38h0ZM117.89,154.44c-4.39,0-7.52,1.24-9.39,3.71-.99,1.33-1.49,2.96-1.49,4.88v3.37c0,1.92.5,3.54,1.49,4.86.99,1.32,2.29,2.27,3.88,2.85,1.59.58,3.35.87,5.28.87s3.61-.23,5.03-.68c1.42-.45,2.56-1.04,3.42-1.77,1.72-1.48,2.57-3.11,2.57-4.89,0-.17-.06-.32-.19-.45-.13-.12-.28-.19-.45-.19h-6.32c-.43,0-.78.25-1.04.75-.26.5-.59.88-.98,1.13-.39.26-1.02.39-1.89.39s-1.57-.2-2.11-.61c-.54-.41-.8-.99-.8-1.74v-4.43c0-.76.27-1.34.8-1.74.54-.41,1.24-.61,2.11-.61s1.5.13,1.89.39c.39.26.72.64.98,1.13.26.5.61.75,1.04.75h6.32c.18,0,.33-.06.45-.19.13-.12.19-.27.19-.45,0-1.78-.86-3.42-2.57-4.89-.86-.73-2-1.32-3.42-1.77-1.42-.45-3.02-.68-4.8-.68h0Z" />
    <path class="cls-4"
      d="M151.61,155.3v4.04h-12.17v3.51h10.56v3.71h-10.56v3.51h12.46v4.04h-18.4v-18.81h18.11ZM151.65,154.47h-18.2c-.21,0-.4.08-.56.23-.16.16-.23.34-.23.56v18.9c0,.21.08.4.23.56.16.16.34.23.56.23h18.49c.21,0,.4-.08.56-.23s.23-.34.23-.56v-4.13c0-.21-.08-.4-.23-.56-.16-.16-.34-.23-.56-.23h-11.67v-1.84h9.77c.21,0,.4-.08.56-.23.16-.16.23-.34.23-.56v-3.8c0-.21-.08-.4-.23-.56-.16-.16-.34-.23-.56-.23h-9.77v-1.84h11.38c.21,0,.4-.08.56-.23.16-.16.23-.34.23-.56v-4.12c0-.21-.08-.4-.23-.56-.16-.16-.34-.23-.56-.23h0Z" />
    <path class="cls-4"
      d="M51.28,179.22l-1.97,14.42s0,.05-.07.11c-.02.02-.05.05-.17.05h-3.25c-.1,0-.15-.02-.17-.03-.04-.03-.06-.05-.07-.07v-.03s-2.15-4.9-2.15-4.9l-.76-1.75-.76,1.75-2.13,4.9v.03s-.05.03-.08.06c-.02.02-.08.03-.17.03h-3.25c-.12,0-.15-.03-.17-.05-.07-.06-.07-.1-.07-.11l-1.97-14.42h3.63c.13,0,.16.03.18.05.04.04.07.09.08.18l.74,7.1.38,3.59,1.24-3.39,1.35-3.7s.02-.03.08-.08c.02-.02.08-.03.15-.03h1.58c.07,0,.13.01.15.03.05.04.07.06.07.06,0,0,0,0,0,0h0s0,.03,0,.03l1.35,3.69,1.24,3.39.38-3.59.74-7.1c.01-.1.04-.14.09-.19.01-.01.05-.05.18-.05h3.63ZM51.65,178.39h-3.99c-.31,0-.56.09-.75.28-.19.19-.31.42-.34.7l-.74,7.1-1.35-3.69c-.05-.15-.16-.31-.34-.45-.18-.15-.41-.22-.68-.22h-1.58c-.28,0-.51.07-.68.22-.18.15-.29.3-.34.45l-1.35,3.69-.74-7.1c-.03-.28-.14-.51-.34-.7-.19-.19-.44-.28-.75-.28h-3.99c-.14,0-.26.05-.36.15-.1.1-.15.22-.15.36v.07l2.02,14.78c.03.23.14.44.34.62.19.18.44.27.73.27h3.25c.28,0,.51-.07.68-.21.18-.14.29-.28.34-.42l2.13-4.9,2.13,4.9c.05.14.16.28.34.42.18.14.41.21.68.21h3.25c.29,0,.54-.09.73-.27.19-.18.31-.38.34-.62l2.02-14.78v-.07c0-.14-.05-.26-.15-.36-.1-.1-.22-.15-.36-.15h0Z" />
    <path class="cls-4"
      d="M67.82,179.22v3.09h-4.83v8.4h4.83v3.09h-14.3v-3.09h4.87v-8.4h-4.87v-3.09h14.3ZM68.03,178.39h-14.71c-.17,0-.32.06-.44.19-.12.12-.19.27-.19.44v3.5c0,.17.06.32.19.44.12.12.27.19.44.19h4.25v6.73h-4.25c-.17,0-.32.06-.44.19-.12.12-.19.27-.19.44v3.5c0,.17.06.32.19.44.12.12.27.19.44.19h14.71c.17,0,.32-.06.44-.19.12-.12.19-.27.19-.44v-3.5c0-.17-.06-.32-.19-.44-.12-.12-.27-.19-.44-.19h-4.2v-6.73h4.2c.17,0,.32-.06.44-.19.12-.12.19-.27.19-.44v-3.5c0-.17-.06-.32-.19-.44-.12-.12-.27-.19-.44-.19h0Z" />
    <path class="cls-4"
      d="M86.58,179.22v3.32h-5.62v11.25h-4.37v-11.25h-5.62v-3.32h15.6ZM86.78,178.39h-16.01c-.17,0-.32.06-.44.19-.12.12-.19.27-.19.44v3.74c0,.17.06.32.19.44.12.12.27.19.44.19h4.99v10.63c0,.17.06.32.19.44.12.12.27.19.44.19h4.78c.17,0,.32-.06.44-.19.12-.12.19-.27.19-.44v-10.63h4.99c.17,0,.32-.06.44-.19.12-.12.19-.27.19-.44v-3.74c0-.17-.06-.32-.19-.44-.12-.12-.27-.19-.44-.19h0Z" />
    <path class="cls-4"
      d="M104.4,179.22v14.58h-4.37v-5.57h-6.31v5.57h-4.37v-14.58h4.37v5.38h6.31v-5.38h4.37ZM104.6,178.39h-4.78c-.17,0-.32.06-.44.19-.12.12-.19.27-.19.44v4.76h-4.64v-4.76c0-.17-.06-.32-.19-.44-.12-.12-.27-.19-.44-.19h-4.78c-.17,0-.32.06-.44.19-.12.12-.19.27-.19.44v14.99c0,.19.06.34.19.45.12.12.27.17.44.17h4.78c.17,0,.32-.06.44-.19.12-.12.19-.27.19-.44v-4.94h4.64v4.94c0,.17.06.32.19.44.12.12.27.19.44.19h4.78c.17,0,.32-.06.44-.19.12-.12.19-.27.19-.44v-14.99c0-.17-.06-.32-.19-.44-.12-.12-.27-.19-.44-.19h0Z" />
    <path class="cls-4"
      d="M134.57,179.22v14.58h-3.78v-10.48l-1.58,3.11-1.7,3.34s-.03.05-.07.07c-.06.03-.11.05-.16.05h-1.58c-.07,0-.11-.01-.12-.02-.06-.05-.09-.08-.11-.1h0s-1.69-3.35-1.69-3.35l-1.58-3.11v10.48h-3.78v-14.58h4.04c.08,0,.16,0,.27.19l3.04,5.57.73,1.34.73-1.34,3.04-5.56c.11-.2.19-.2.27-.2h4.04ZM134.77,178.39h-4.25c-.43,0-.77.21-1,.63l-3.04,5.57-3.04-5.57c-.23-.42-.57-.63-1-.63h-4.25c-.17,0-.32.06-.44.19-.12.12-.19.27-.19.44v14.99c0,.17.06.32.19.44.12.12.27.19.44.19h4.2c.17,0,.32-.06.44-.19.12-.12.19-.27.19-.44v-7.19l1.69,3.34c.05.11.15.23.32.37.17.14.39.21.65.21h1.58c.19,0,.37-.05.56-.15.19-.1.32-.24.42-.43l1.69-3.34v7.19c0,.17.06.32.19.44.12.12.27.19.44.19h4.2c.17,0,.32-.06.44-.19.12-.12.19-.27.19-.44v-14.99c0-.17-.06-.32-.19-.44-.12-.12-.27-.19-.44-.19h0Z" />
    <path class="cls-4"
      d="M151.67,179.22v2.86h-9.65v3.13h8.38v2.6h-8.38v3.13h9.89v2.86h-14.25v-14.58h14.02ZM151.88,178.39h-14.43c-.17,0-.32.06-.44.19s-.19.27-.19.44v14.99c0,.17.06.32.19.44.12.12.27.19.44.19h14.67c.17,0,.32-.06.44-.19.12-.12.19-.27.19-.44v-3.27c0-.17-.06-.32-.19-.44-.12-.12-.27-.19-.44-.19h-9.26v-1.46h7.75c.17,0,.32-.06.44-.19.12-.12.19-.27.19-.44v-3.02c0-.17-.06-.32-.19-.44-.12-.12-.27-.19-.44-.19h-7.75v-1.46h9.03c.17,0,.32-.06.44-.19.12-.12.19-.27.19-.44v-3.27c0-.17-.06-.32-.19-.44-.12-.12-.27-.19-.44-.19h0Z" />
    <path class="cls-4"
      d="M29.21,57.4c-.09,0-.18-.02-.26-.05l-5.9-2.37c-.17-.07-.31-.2-.38-.37-.07-.18-.08-.36,0-.53l.79-1.97c.07-.17.2-.31.37-.38.18-.07.36-.08.53,0l3.88,1.56,1.09-2.71c.07-.17.2-.31.37-.38.18-.08.36-.08.54,0l1.38.55c.17.07.31.2.38.38.08.17.08.36,0,.53l-2.14,5.34c-.07.18-.2.31-.38.38-.09.04-.18.06-.27.06ZM23.52,54.23l5.59,2.25,2.02-5.03-1.07-.43-1.19,2.96c-.04.11-.13.19-.23.24-.11.04-.23.05-.33,0l-4.12-1.66-.67,1.66ZM23.37,54.17h0s0,0,0,0ZM31.3,51.52s0,0,0,0c0,0,0,0,0,0Z" />
    <path class="cls-4"
      d="M31.96,50.77c-.11,0-.22-.03-.33-.08l-1.31-.71c-.17-.09-.28-.23-.34-.42-.05-.18-.04-.37.05-.53l.65-1.2-1.75-.95-.65,1.2c-.09.17-.23.28-.42.34-.19.05-.37.03-.53-.06l-1.31-.71c-.17-.09-.28-.23-.34-.42-.05-.18-.03-.37.05-.53l2.97-5.49c.09-.16.23-.28.41-.34.18-.05.37-.03.53.05l1.31.71c.17.09.28.23.34.42.05.18.04.37-.05.53l-.64,1.18,1.75.95.64-1.19c.09-.16.23-.28.41-.34.19-.05.37-.04.54.05l1.31.71c.17.09.28.23.34.42.05.18.04.36-.05.53l-2.97,5.5c-.09.16-.23.28-.42.34-.07.02-.14.03-.2.03ZM31.82,49.99s0,0,0,0h0ZM30.88,49.3l1.01.55,2.81-5.2-1.01-.55-.77,1.42c-.05.1-.15.18-.26.21-.11.03-.23.02-.33-.03l-2.51-1.36c-.1-.05-.18-.15-.21-.26-.03-.11-.02-.23.03-.33l.77-1.42-1.01-.55-2.81,5.2,1.01.55.78-1.44c.11-.21.38-.29.59-.18l2.51,1.36c.1.06.18.15.21.26.03.11.02.23-.03.33l-.78,1.44ZM27.76,47.6h0,0ZM34.85,44.72h0,0ZM33.54,44.01s0,0,0,0c0,0,0,0,0,0ZM33.77,43.95h0s0,0,0,0ZM30.5,42.18s0,0,0,0h0ZM29.49,41.63h0s0,0,0,0Z" />
    <path class="cls-4"
      d="M35.77,43.92c-.14,0-.27-.04-.39-.12l-5.23-3.63c-.15-.11-.25-.26-.29-.45-.03-.19,0-.37.11-.53l1.16-1.66c.1-.15.26-.25.45-.29.19-.04.37,0,.53.11l.5.35-.36-1.21c-.07-.29-.02-.55.13-.77l1.35-1.95c.1-.14.24-.24.42-.27.18-.03.35,0,.49.1.12.08.21.21.26.35l.91,3.21,3.92-.25s.03,0,.04,0c.13,0,.25.05.37.12.14.1.23.25.26.42.03.17,0,.34-.11.49l-1.45,2.08c-.16.23-.39.37-.65.39l-1.5.11.65.45c.15.11.25.26.29.45.03.19,0,.37-.11.52l-1.16,1.67c-.11.15-.26.25-.45.29-.04,0-.09.01-.13.01ZM35.64,43.12h0s0,0,0,0ZM30.79,39.54l4.95,3.44.97-1.39-1.51-1.05c-.15-.1-.22-.29-.17-.47.05-.18.2-.3.39-.32l2.72-.2,1.2-1.74-3.81.24c-.2,0-.39-.12-.44-.31l-.88-3.1-1.09,1.57.7,2.42c.05.18-.01.37-.16.47-.15.11-.35.11-.5,0l-1.38-.96-.97,1.39ZM36.84,41.69h0,0ZM31.62,38.06s0,0,0,0h0ZM31.85,38.01h0s0,0,0,0ZM39.58,37.46s0,0,0,0h0Z" />
    <path class="cls-4"
      d="M40.25,37.64c-.17,0-.33-.06-.46-.17l-4.78-4.19c-.14-.12-.22-.29-.24-.48-.01-.19.05-.37.17-.51l4.03-4.61c.13-.14.29-.22.48-.24.19-.01.37.05.51.17l1.04.91c.14.13.22.3.24.48.01.19-.05.36-.17.5h0c.17,0,.32.07.45.18l.96.84c.13.11.21.26.23.43l.07-.08c.12-.14.29-.22.48-.24.19,0,.37.05.51.17l1.04.91c.14.12.22.29.24.48.01.19-.05.37-.17.51l-4.1,4.68c-.12.14-.29.22-.48.24-.02,0-.03,0-.05,0ZM35.7,32.74l4.53,3.97,3.88-4.43-.79-.69-2.48,2.83c-.16.18-.43.2-.61.04l-.47-.41c-.09-.08-.14-.18-.15-.3,0-.11.03-.23.11-.31l2.06-2.35-.71-.62-2.06,2.35c-.16.18-.43.2-.61.04l-.47-.41c-.09-.08-.14-.18-.15-.3,0-.11.03-.23.11-.31l2.42-2.76-.79-.7-3.82,4.36ZM35.6,32.86h0s0,0,0,0ZM35.57,32.62h0s0,0,0,0ZM44.25,32.39s0,0,0,0h0ZM44.23,32.15s0,0,0,0h0ZM43.44,31.46h0s0,0,0,0Z" />
    <path class="cls-4"
      d="M51.12,26.8s-.07,0-.11,0c-.19-.03-.35-.13-.46-.28l-.87-1.2c-.11-.15-.15-.33-.12-.52.03-.19.13-.35.28-.46l1.11-.8-1.17-1.61-1.11.8c-.15.11-.33.16-.52.12-.19-.03-.34-.12-.45-.27l-.88-1.21c-.11-.15-.15-.34-.12-.53.03-.18.13-.34.28-.45l5.05-3.67c.15-.11.33-.15.52-.12.19.03.35.13.46.28l.87,1.2c.11.15.15.34.12.52-.03.18-.12.34-.28.45l-1.09.79,1.17,1.61,1.09-.79c.15-.11.33-.16.52-.12.19.03.35.13.46.28l.87,1.2c.11.15.15.33.12.52-.03.19-.13.35-.28.46l-5.05,3.67c-.12.09-.26.13-.41.13ZM51.25,26h0s0,0,0,0ZM50.48,24.93l.68.93,4.78-3.47-.68-.93-1.31.95c-.19.14-.46.1-.6-.1l-1.68-2.31c-.07-.09-.1-.21-.08-.32.02-.11.08-.21.17-.28l1.31-.95-.68-.93-4.78,3.47.68.93,1.32-.96c.19-.14.46-.1.6.1l1.68,2.31c.14.19.1.46-.1.6l-1.32.96ZM50.35,25.03h0s0,0,0,0ZM56.04,22.53s0,0,0,0h0Z" />
    <path class="cls-4"
      d="M59.28,21.28c-.07,0-.13,0-.19-.03-.18-.05-.32-.16-.42-.33l-2.01-3.55-1.47.83c-.16.09-.35.11-.53.06-.18-.05-.33-.16-.42-.33l-.78-1.38c-.09-.17-.12-.35-.06-.53.05-.18.16-.33.33-.42l5.91-3.35c.16-.09.35-.11.53-.07.19.05.33.17.42.33l.78,1.38c.09.16.11.35.07.53-.05.18-.16.33-.33.42l-1.47.83,2.01,3.55c.09.16.11.35.06.53-.05.18-.16.33-.33.42l-1.77,1c-.1.06-.22.09-.34.09ZM59.19,20.43s0,0,0,0h0ZM56.82,16.35s.08,0,.12.02c.11.03.2.1.26.2l2.14,3.78,1.47-.83-2.14-3.78c-.06-.1-.07-.22-.04-.33.03-.11.1-.2.2-.26l1.7-.96-.62-1.09-5.62,3.18.62,1.09,1.7-.96c.07-.04.14-.06.21-.06ZM60.9,19.66h0,0Z" />
    <path class="cls-4"
      d="M65.75,17.57c-.2,0-.4-.02-.59-.05-.86-.15-1.45-.57-1.74-1.25-.09-.22-.06-.39-.02-.5.04-.11.14-.26.37-.36l.83-.35c-1.19-.06-1.76-.7-2.02-1.32-.32-.74-.24-1.48.24-2.21.44-.68,1.17-1.23,2.16-1.66,1-.43,1.93-.55,2.75-.37.88.19,1.45.58,1.7,1.16.07.17.07.35,0,.52-.04.1-.15.25-.36.34l-.28.12c.14,0,.27.03.4.05h0c.69.15,1.2.6,1.51,1.34.32.74.21,1.51-.34,2.27-.5.7-1.29,1.28-2.37,1.74-.83.35-1.58.53-2.24.53ZM64.33,16.12c.19.28.52.46.99.55.63.11,1.41-.03,2.34-.42.93-.4,1.61-.88,2.01-1.45.37-.51.44-.97.25-1.43-.2-.47-.49-.74-.9-.83h0c-.47-.1-1.2-.01-2.16.28-.53.16-.88.24-1.09.26-.52.05-.7-.21-.77-.37-.1-.24-.14-.7.73-1.07.39-.17.75-.2,1.05-.09l1.75-.74c-.18-.21-.51-.37-.97-.47-.64-.14-1.39-.03-2.23.32-.84.36-1.43.81-1.78,1.33-.32.49-.37.93-.17,1.4.13.31.53,1.25,2.85.56.59-.18,1-.28,1.24-.3.54-.05.74.23.81.39.28.65-.64,1.04-.98,1.19-.52.22-.94.27-1.28.16l-1.69.71Z" />
    <path class="cls-4"
      d="M61.54,15.45c-.08,0-.16-.02-.24-.05-.16-.07-.29-.19-.36-.35,0-.02-.02-.06-.03-.08l-.59-2.31c-.05-.19-.03-.4.06-.6.1-.2.26-.36.47-.45l1.13-.48c.16-.07.33-.07.49,0,.21.09.3.22.35.32.04.09.06.17.06.24l.07,2.56c.02.4-.18.72-.56.88l-.62.26c-.08.03-.16.05-.25.05ZM61.45,14.6s0,0,0,0h0ZM62.03,12.06l-.84.36.49,2.08.38-.16-.04-2.28ZM62.03,11.73h0s0,0,0,0h0Z" />
    <path class="cls-4"
      d="M80.87,13.13c-.14,0-.28-.04-.4-.13-.16-.11-.26-.26-.29-.45l-.72-4.02-1.66.3c-.19.03-.37,0-.52-.11-.16-.11-.26-.27-.29-.45l-.28-1.56c-.03-.18,0-.36.11-.52.11-.16.27-.26.45-.29l6.69-1.19c.19-.03.36,0,.52.11.16.11.26.26.29.45l.28,1.56c.03.19,0,.37-.12.52-.1.15-.26.25-.44.29l-1.66.3.72,4.01c.03.19,0,.37-.12.53-.1.15-.26.25-.45.28l-2,.36s-.08.01-.13.01ZM79.82,7.6c.09,0,.17.03.25.08.09.07.16.17.18.28l.76,4.28,1.67-.3-.76-4.28c-.02-.11,0-.23.07-.32.07-.09.17-.16.28-.18l1.92-.34-.22-1.23-6.36,1.13.22,1.23,1.92-.34s.05,0,.08,0Z" />
    <path class="cls-4"
      d="M86.27,12.23c-.16,0-.31-.05-.44-.16-.15-.12-.23-.29-.25-.49l-.41-6.35c-.01-.18.05-.36.17-.51.13-.14.29-.22.48-.24l2.02-.13c.19-.01.36.05.51.17.14.13.22.29.24.48l.1,1.59,1.1-.07-.1-1.58c-.01-.19.05-.37.18-.51.12-.14.28-.22.47-.23l2.03-.13c.2-.01.36.05.51.17.14.13.22.29.24.48l.41,6.35c.01.19-.05.36-.17.51-.13.14-.29.22-.48.24l-2.03.13c-.19,0-.37-.05-.51-.18-.14-.12-.22-.29-.23-.48l-.11-1.66-1.1.07.11,1.66c.01.18-.05.36-.17.51-.13.14-.29.22-.48.24l-2.03.13s-.03,0-.05,0ZM88.13,11.41h0s0,0,0,0ZM86.26,11.37h0,0ZM86.05,5.34l.38,6.01,1.69-.11-.12-1.93c-.02-.24.17-.44.4-.46l1.97-.13c.22-.02.44.17.46.4l.12,1.93,1.69-.11-.39-6.02-1.69.11.12,1.85c0,.11-.03.23-.11.31-.08.09-.18.14-.3.15l-1.97.13c-.12,0-.23-.03-.31-.11-.09-.08-.14-.18-.15-.3l-.12-1.85-1.69.11ZM90.96,11.23h0s0,0,0,0ZM90.78,11.08h0,0ZM85.88,5.35h0,0ZM87.91,5.22h0,0ZM86.03,5.17h0s0,0,0,0ZM90.56,4.88h0s0,0,0,0Z" />
    <path class="cls-4"
      d="M100.45,12.1s-.02,0-.03,0l-6.22-.29c-.19,0-.35-.09-.48-.23-.13-.14-.19-.32-.18-.5l.29-6.36c0-.19.09-.36.23-.48.14-.13.32-.19.5-.18l6.12.28h0c.19,0,.36.09.48.23.13.14.19.31.18.5l-.06,1.39c0,.19-.09.36-.23.48-.14.13-.3.2-.5.18h-.01c.1.13.16.29.15.46l-.06,1.28c0,.17-.07.32-.19.44h.11c.19.01.36.09.48.23.13.14.19.31.18.5l-.06,1.39c0,.19-.09.35-.23.48-.13.12-.29.19-.47.19ZM94.4,10.96l5.88.27.05-1.05-3.76-.17c-.24-.01-.42-.21-.41-.45l.03-.62c.01-.24.22-.43.45-.41l3.12.14.04-.94-3.12-.15c-.11,0-.22-.06-.3-.14-.08-.09-.12-.2-.11-.31l.03-.62c.01-.24.21-.43.45-.41l3.66.17.05-1.05-5.79-.27-.28,6.02Z" />
    <path class="cls-4"
      d="M115.59,15.25c-.06,0-.13,0-.19-.03l-5.54-1.54c-.18-.05-.33-.17-.42-.33-.09-.16-.12-.36-.06-.53l1.7-6.12c.05-.18.17-.33.33-.42.16-.09.34-.11.53-.06l2.05.57c.18.05.33.16.42.33.09.16.12.35.07.53l-1.12,4.02,2.82.78c.18.05.33.17.42.33.09.16.11.35.07.53l-.4,1.43c-.05.18-.17.33-.33.42-.11.06-.22.09-.34.09ZM115.43,14.51s0,0,0,0h0ZM110.26,12.89l5.22,1.45.31-1.11-3.07-.85c-.23-.06-.37-.3-.3-.53l1.19-4.28-1.73-.48-1.62,5.81ZM110.21,13.05h0s0,0,0,0ZM110.09,12.85h0s0,0,0,0ZM111.92,6.92h0s0,0,0,0Z" />
    <path class="cls-4"
      d="M123.32,18.3c-.08,0-.16-.02-.24-.05l-1.73-.7c-.36-.15-.56-.47-.56-.89l.02-.44-1.66-.67-.28.32c-.29.31-.66.41-1.02.26l-1.72-.7c-.16-.06-.28-.19-.35-.35-.09-.21-.06-.37-.01-.47.03-.07.07-.14.11-.19l4.36-5.03c.24-.31.63-.42,1.02-.25l2.54,1.03h0c.4.16.61.5.56.92l-.37,6.61c0,.07-.02.14-.06.23-.04.09-.13.23-.33.32-.09.04-.17.05-.26.05ZM119.03,14.61c.05,0,.11.01.16.03l2.23.9c.17.07.28.24.27.42l-.03.73,1.46.63.35-6.32.14-.44-.16.4-2.54-1.03-4.19,4.81,1.44.58.54-.58c.08-.09.2-.14.32-.14ZM116.44,14.63h0,0ZM121.51,14.41c-.05,0-.11-.01-.16-.03l-1.3-.53c-.13-.05-.23-.16-.26-.3-.03-.14,0-.28.09-.38l1.42-1.64c.12-.14.32-.19.49-.12.17.07.28.24.27.43l-.12,2.16c0,.14-.08.27-.2.34-.07.04-.15.07-.23.07ZM120.94,13.28l.17.07.02-.29-.19.22Z" />
    <path class="cls-4"
      d="M129.04,20.84c-.81,0-1.7-.26-2.65-.78-1.03-.56-1.75-1.21-2.13-1.92-.41-.77-.45-1.5-.09-2.14.11-.21.27-.29.38-.32.11-.03.3-.05.51.07l.77.42c-.68-.96-.53-1.79-.21-2.39.38-.71,1.02-1.11,1.88-1.19.8-.07,1.69.15,2.64.66h0c.96.52,1.63,1.16,2.01,1.92.4.81.45,1.49.15,2.05-.09.17-.24.28-.41.32-.11.03-.28.04-.49-.07l-.3-.16c.09.13.17.26.23.38.31.64.27,1.31-.11,2.01-.27.49-.83,1.09-1.99,1.15-.06,0-.12,0-.19,0ZM124.83,16.6c-.1.33-.04.7.18,1.12.3.56.9,1.09,1.78,1.57.89.48,1.69.72,2.38.67.62-.03,1.04-.26,1.27-.7.24-.45.27-.85.09-1.22-.21-.43-.74-.95-1.56-1.52-.46-.32-.74-.54-.88-.69-.35-.37-.27-.68-.19-.83.08-.14.21-.25.37-.3.25-.07.53,0,.93.21.37.2.61.45.72.74l1.67.92c.05-.27-.03-.62-.24-1.04-.29-.59-.85-1.11-1.64-1.54h0c-.8-.43-1.53-.62-2.15-.56-.58.05-.96.29-1.2.74-.16.3-.65,1.19,1.33,2.58.52.36.84.61,1,.79.37.4.28.72.19.88-.07.13-.2.24-.35.28-.28.08-.63-.01-1.19-.31-.5-.27-.8-.57-.92-.92l-1.61-.88Z" />
    <path class="cls-4"
      d="M134.21,24.82c-.14,0-.27-.04-.39-.13l-1.66-1.16c-.15-.1-.25-.26-.29-.45-.03-.19,0-.37.11-.53l2.34-3.34-1.38-.96c-.16-.11-.25-.27-.29-.45-.03-.18,0-.37.11-.52l.91-1.3c.11-.15.26-.25.45-.29.19-.03.37,0,.53.11l5.57,3.89c.15.11.25.26.29.45.03.19,0,.37-.11.53l-.91,1.3c-.11.16-.27.25-.45.29-.18.03-.37,0-.52-.11l-1.38-.96-2.33,3.34c-.11.15-.26.25-.45.29-.04,0-.09.01-.13.01ZM134.08,24.03s0,0,0,0h0ZM132.79,22.92l1.39.97,2.49-3.56c.14-.2.41-.24.6-.11l1.6,1.12.72-1.03-5.3-3.7-.72,1.03,1.6,1.12c.09.07.16.17.18.28.02.11,0,.23-.07.32l-2.49,3.56ZM132.65,22.83h0,0ZM139.72,20.41h0,0ZM134.15,16.52s0,0,0,0c0,0,0,0,0,0Z" />
    <path class="cls-4"
      d="M145.65,35.19s-.02,0-.03,0c-.19,0-.36-.09-.48-.22l-1.37-1.5c-.13-.14-.19-.32-.18-.5.01-.19.09-.36.23-.49l3.02-2.74-1.13-1.25c-.13-.14-.19-.32-.18-.51,0-.18.09-.35.22-.48l1.18-1.07c.14-.13.31-.19.51-.18.18,0,.35.09.48.22l4.57,5.03c.13.14.19.31.18.5,0,.19-.09.36-.23.49l-1.17,1.07c-.14.12-.3.19-.5.18-.19-.01-.36-.09-.48-.23l-1.13-1.25-3.02,2.74c-.13.12-.29.18-.47.18ZM144.52,33l1.14,1.25,3.22-2.92c.18-.16.45-.15.61.03l1.31,1.44.93-.84-4.34-4.78-.93.84,1.31,1.44c.08.08.12.2.11.31,0,.11-.06.22-.14.3l-3.22,2.92ZM150.91,32.93h0s0,0,0,0t0,0Z" />
    <path class="cls-4"
      d="M151.66,42.96s-.08,0-.12-.01c-.19-.03-.34-.13-.45-.28l-3.66-5.06c-.11-.15-.15-.33-.12-.52.03-.19.13-.35.28-.46l1.21-.87c.15-.11.33-.15.52-.12.19.03.35.13.46.28l.8,1.11,1.61-1.17-.8-1.11c-.11-.15-.15-.33-.12-.52.03-.19.13-.34.28-.45l1.21-.87c.15-.11.34-.15.53-.12.18.03.34.13.45.28l3.66,5.06c.11.15.15.33.12.52-.03.2-.13.35-.28.46l-1.2.87c-.15.11-.33.15-.52.12-.19-.03-.35-.13-.46-.28l-.79-1.09-1.61,1.17.79,1.09c.11.15.15.33.12.52,0,0,0,0,0,0-.03.19-.13.34-.28.45l-1.2.87c-.12.09-.26.13-.4.13ZM148.23,37.24l3.46,4.79.93-.68-.95-1.31c-.14-.19-.1-.46.1-.6l2.32-1.67c.09-.07.21-.1.32-.08.11.02.21.08.28.17l.95,1.31.94-.68-3.46-4.79-.94.68.96,1.33c.07.09.09.21.08.32-.02.11-.08.22-.17.28l-2.32,1.67c-.19.14-.46.1-.6-.1l-.96-1.33-.94.67ZM153.12,41.43h0,0ZM152.76,41.26h0s0,0,0,0ZM156.71,38.4h0s0,0,0,0ZM149.07,36.43h0s0,0,0,0Z" />
    <path class="cls-4"
      d="M155.73,50.02c-.07,0-.13,0-.2-.03-.18-.05-.32-.16-.42-.33l-.88-1.56c-.09-.16-.11-.35-.06-.53.05-.19.17-.33.33-.42l1.12-.63c-.11-.02-.21-.06-.31-.12-.14-.09-.24-.2-.32-.33l-.33-.59c-.1-.18-.14-.38-.11-.57.01-.07.03-.14.05-.2l-1.12.63c-.16.09-.35.11-.53.06-.18-.05-.33-.16-.42-.33l-.88-1.56c-.09-.16-.12-.34-.06-.53.05-.18.16-.33.33-.42l5.54-3.12c.16-.09.34-.12.53-.06.18.05.33.17.42.33l.88,1.57c.17.3.16.63-.03.94l-1.01,1.61,1.9-.03h0c.36,0,.65.16.82.46l.89,1.57c.09.16.11.35.06.53h0c-.05.18-.16.33-.33.42l-5.54,3.12c-.11.06-.22.09-.34.09ZM155.08,47.83l.71,1.26,5.25-2.96-.8-1.42-2.75.02h0c-.16,0-.3-.08-.38-.22-.08-.14-.07-.31.01-.44l1.43-2.28-.79-1.48-5.25,2.96.71,1.26,2.51-1.42c.17-.1.39-.07.53.08.14.15.15.37.04.53l-.88,1.32.33.61,1.61-.05c.21,0,.38.12.43.31.05.19-.03.4-.2.5l-2.51,1.42ZM152.42,43.1h0s0,0,0,0ZM157.91,40.21h0s0,0,0,0Z" />
    <path class="cls-4"
      d="M158.66,56.84c-.09,0-.18-.02-.26-.05-.18-.07-.31-.2-.38-.38l-2.43-5.73c-.07-.18-.07-.36,0-.54.07-.17.2-.3.37-.38l5.86-2.48c.18-.07.36-.07.54,0,.17.07.3.2.38.37l2.39,5.64h0c.07.17.07.36,0,.53-.07.18-.2.31-.38.38l-1.28.54c-.18.07-.36.07-.54,0-.17-.07-.31-.2-.38-.37v-.02c-.08.15-.2.27-.36.33l-1.18.5c-.15.07-.32.07-.48.02l.04.1c.07.17.07.36,0,.53-.07.18-.2.31-.37.38l-1.28.54c-.09.04-.18.06-.27.06ZM158.81,56.07h0s0,0,0,0ZM156.45,50.5l2.3,5.42.97-.41-1.47-3.47c-.09-.22.01-.47.23-.57l.57-.24c.1-.04.23-.04.33,0,.11.04.19.13.24.23l1.22,2.88.87-.37-1.22-2.88c-.04-.11-.05-.23,0-.33.04-.11.13-.19.23-.24l.57-.24c.22-.09.47,0,.57.23l1.43,3.37.97-.41-2.26-5.33-5.55,2.35ZM160.68,54.41s0,0,0,0h0ZM161.77,54.13s0,0,0,0h0ZM164.41,53.42s0,0,0,0h0Z" />
    <path class="cls-6"
      d="M159.81,79.98c0,4-.35,7.91-1.03,11.71-2.48,13.79-9.26,26.09-18.9,35.46-3.14,3.06-6.59,5.8-10.29,8.18-10.25,6.6-22.46,10.43-35.56,10.43-7.4,0-14.5-1.22-21.13-3.47-5.7-1.93-11.05-4.63-15.93-7.96-11.89-8.12-20.98-20.02-25.51-33.99-1.5-4.58-2.5-9.39-2.94-14.35-.19-1.98-.28-3.99-.28-6.02,0-19.94,8.87-37.8,22.88-49.87,4.57-3.93,9.68-7.25,15.21-9.81,8.41-3.92,17.8-6.11,27.7-6.11,4.88,0,9.63.53,14.2,1.55,6.82,1.49,13.23,4.05,19.07,7.49,17.23,10.11,29.44,27.84,32,48.58.34,2.68.51,5.41.51,8.17Z" />
    <path class="cls-1" d="M89.58,81.04L51.12,30.11c4.57-3.93,9.68-7.25,15.21-9.81l23.25,60.74Z" />
    <path class="cls-1" d="M89.58,81.04l-58.12,19.3c-1.5-4.58-2.5-9.39-2.94-14.35l61.06-4.95Z" />
    <path class="cls-1"
      d="M89.58,81.04l-16.68,61.25c-5.7-1.93-11.05-4.63-15.93-7.96,9.66-15.26,32.61-53.29,32.61-53.29Z" />
    <path class="cls-1"
      d="M139.87,127.15c-3.14,3.06-6.59,5.8-10.29,8.18l-39.16-53.16-.19-.25-.65-.89.69.63.3.27,49.3,45.21Z" />
    <path class="cls-1"
      d="M127.29,23.23c-13.02,20.59-31.51,50.32-36.08,57.66-.08.13-.16.26-.24.37-.16.27-.31.49-.41.68-.06.09-.11.17-.15.24-.17.26-.25.39-.25.39-.03-.07,0-.29.06-.64,0-.08.02-.17.04-.26.03-.15.07-.32.11-.51,0-.06.02-.12.04-.19,1.71-7.98,11.71-43.69,17.81-65.23,6.82,1.49,13.23,4.05,19.07,7.49Z" />
    <path class="cls-1"
      d="M159.81,79.98c0,4-.35,7.91-1.03,11.71l-67.79-10.43-.6-.1-.78-.12c.11,0,.38-.02.82-.07.23-.02.49-.05.8-.09,7.97-.92,42.8-5.63,68.08-9.08.34,2.68.51,5.41.51,8.17Z" />
    <path class="cls-2"
      d="M153.02,50.89c-2.7-5.47-6.13-10.51-10.18-14.99l-41.61,35.24,2.58,11.95,3.49,2.18,45.72-34.39Z" />
    <path class="cls-2"
      d="M106.68,96.38L88.99,14.4c-3.76.29-7.43.88-10.99,1.77l9.74,56.9-48.14-30.04c-3.25,4.78-5.88,10-7.8,15.57l59.37,34.53-1.22-7.13,1.27,7.41-.05-.28-9.69-5.64-42.35,28.74c3.46,5.23,7.65,9.93,12.42,13.97l39.82-35.96,8.77,51.23c5.69-.53,11.16-1.79,16.34-3.67l-8.38-38.83,35.23,20.49c2.94-3.33,5.56-6.95,7.78-10.83l-47.3-29.52,2.87,13.28Z" />
    <path class="cls-5"
      d="M48.96,55.13l1.58.4-1.69.43c-1.83.46-3.2,1.99-3.46,3.86l-.76,5.38-.77-5.46c-.26-1.83-1.58-3.33-3.36-3.83l-1.36-.38,1.25-.35c1.84-.51,3.17-2.09,3.38-3.99l.86-8.09.85,8.01c.21,1.94,1.6,3.54,3.48,4.02Z" />
    <path class="cls-4"
      d="M44.63,68.3l-1.2-8.5c-.23-1.66-1.43-3.02-3.05-3.47l-2.86-.8,2.75-.77c1.68-.47,2.88-1.89,3.06-3.62l1.29-12.13,1.28,12.05c.19,1.75,1.46,3.21,3.16,3.64l3.23.82-3.34.85c-1.67.42-2.9,1.8-3.14,3.5l-1.19,8.42ZM40.73,55.53c1.89.57,3.27,2.19,3.55,4.15l.34,2.43.33-2.35c.29-2.05,1.78-3.71,3.78-4.22h.04c-2.02-.55-3.51-2.3-3.73-4.38l-.42-3.97-.43,4.05c-.21,2.01-1.56,3.67-3.46,4.29Z" />
    <path class="cls-5"
      d="M135.83,45.59l1.58.4-1.69.43c-1.83.46-3.2,1.99-3.46,3.86l-.76,5.38-.77-5.46c-.26-1.83-1.58-3.33-3.36-3.83l-1.36-.38,1.25-.35c1.84-.51,3.17-2.09,3.38-3.99l.86-8.09.85,8.01c.21,1.94,1.6,3.54,3.48,4.02Z" />
    <path class="cls-4"
      d="M131.49,58.75l-1.2-8.5c-.23-1.66-1.43-3.02-3.05-3.47l-2.86-.8,2.75-.77c1.68-.47,2.88-1.89,3.06-3.62l1.29-12.12,1.29,12.05c.19,1.75,1.46,3.21,3.16,3.64l3.23.82-3.34.85c-1.67.42-2.9,1.8-3.14,3.5l-1.19,8.42ZM127.6,45.98c1.89.57,3.27,2.19,3.55,4.15l.34,2.43.33-2.35c.29-2.05,1.78-3.71,3.78-4.22h.04c-2.02-.55-3.51-2.3-3.73-4.38l-.42-3.97-.43,4.05c-.21,2.01-1.56,3.66-3.46,4.29Z" />
    <path class="cls-5"
      d="M96.28,26.85l3.57.53-3.59.54c-2.6.39-4.62,2.47-4.93,5.09l-.68,5.78-.69-5.87c-.3-2.58-2.27-4.64-4.82-5.07l-2.79-.47,2.77-.47c2.56-.43,4.53-2.51,4.83-5.09l.7-6.19.69,6.11c.3,2.62,2.32,4.72,4.93,5.11Z" />
    <path class="cls-4"
      d="M90.65,42.52l-1.12-9.54c-.28-2.37-2.11-4.3-4.46-4.7l-5.33-.9,5.31-.89c2.36-.4,4.2-2.34,4.47-4.72l1.13-9.99,1.12,9.91c.27,2.43,2.15,4.37,4.57,4.73l6.43.96-6.45.96c-2.4.36-4.28,2.3-4.56,4.71l-1.11,9.45ZM84.96,27.38l.26.04c2.73.46,4.86,2.7,5.18,5.45l.26,2.2.25-2.11c.33-2.8,2.51-5.05,5.3-5.47l.72-.11-.71-.11c-2.8-.42-4.98-2.68-5.3-5.49l-.26-2.31-.27,2.4c-.31,2.76-2.44,5.01-5.18,5.47l-.24.04Z" />
    <path class="cls-5"
      d="M174.84,113.64c-.43,4.83-11.74,8.67-11.95,8.75-.17.06-8,1.78-11.69,2.59-1.14.24-1.88.41-1.88.41,0,0-2.26-4.23-.49-7.71-.33-1.94-1.17-2.78-.85-3.76.1-.29.72-.63,1.58-.93,2.01-.71,5.3-1.26,5.9-.67.87.86-.17,6.51-.17,6.51l1.3-.35h.02l5.3-1.37s1.83-4.04,3.46-5.39c1.35-1.11,7.21-2.38,8.97-.06.38.48.57,1.12.49,1.97Z" />
    <path class="cls-1"
      d="M151.19,124.99c-1.14.24-1.88.41-1.88.41,0,0-2.26-4.23-.49-7.71-.33-1.94-1.17-2.78-.85-3.76.1-.29.72-.63,1.58-.93.31,1.45,1.12,4.69,1.12,4.69,0,0-1.1,2.28-.47,4.05.26.73.63,2.01.98,3.26Z" />
    <path class="cls-1"
      d="M174.35,111.67c-2.42.46-5.7,1.07-7.31,1.36-2.74.49-4.71,6.17-4.71,6.17l-5.71-.71,5.3-1.37s1.83-4.04,3.46-5.39c1.35-1.11,7.21-2.38,8.97-.06Z" />
    <path class="cls-4"
      d="M149.32,125.83c-.16,0-.31-.09-.38-.23-.1-.18-2.3-4.36-.56-7.98-.14-.72-.35-1.28-.53-1.77-.27-.73-.51-1.36-.28-2.06.25-.75,2.03-1.33,3.48-1.69.9-.22,3.91-.87,4.72-.09.83.82.37,4.41.07,6.22l5.77-1.49c.39-.83,1.99-4.11,3.49-5.36,1.34-1.11,6.04-2.18,8.55-.86,1.19.62,1.75,1.71,1.62,3.14-.45,5.13-11.77,8.96-12.25,9.12-.22.07-10.47,2.33-13.6,3.02-.03,0-.06.01-.09.01ZM154.3,112.5c-.36,0-.86.03-1.52.14-2.27.35-4.2,1.1-4.4,1.44-.12.38,0,.77.27,1.47.2.53.45,1.19.6,2.07.02.09,0,.19-.04.27-1.39,2.73-.1,6.03.35,7.01,3.86-.85,12.86-2.83,13.2-2.92,3.12-1.04,11.31-4.58,11.65-8.37.1-1.09-.28-1.84-1.16-2.3-2.1-1.11-6.49-.14-7.59.76-1.54,1.27-3.33,5.19-3.34,5.23-.05.12-.16.21-.29.24l-6.62,1.71c-.14.04-.3,0-.4-.1-.11-.1-.16-.25-.13-.39.48-2.62.71-5.7.29-6.12-.06-.05-.3-.13-.85-.13Z" />
    <path class="cls-4"
      d="M162.61,120.19c-.18,0-.35-.11-.41-.3,0-.03-.82-2.66-.51-3.33.1-.22.36-.31.58-.21.21.1.3.34.22.55-.07.34.3,1.99.54,2.7.08.23-.05.47-.27.55-.05.02-.09.02-.14.02Z" />
    <path class="cls-5"
      d="M104.13,153.77c-.56.31-6.26.88-12.13.47-4.63-.32-8.94-1.21-11.05-1.71-.89-.21-1.4-.35-1.4-.35-.76-1.71.56-4.78,1.95-6.98.22-.63.97-4.95.93-5.64-.01-.46,3.45-.09,5.87.51,1.26.32,2.24.7,2.29,1.07.17,1.06-1.57,3.31-2.09,4.05-.53.75-2.25,3.85-2.25,3.85,0,0,1.11.32,3.93.01,1.06-.12,2.36-.33,3.94-.69.92-.2,3.23-2.09,4.35-2.42,3.64-.35,5.37,1.3,6.03,3.18h0c.73,2.03.24,4.3-.37,4.64Z" />
    <path class="cls-1"
      d="M88.29,140.07c-2.2.24-4.02.45-4.02.45l-.46,4.13s-.56,2.55-1.73,3.29c-.83.52-1.08,3.15-1.15,4.59-.89-.21-1.4-.35-1.4-.35-.76-1.71.56-4.78,1.95-6.98.22-.63.97-4.95.93-5.64-.01-.46,3.45-.09,5.87.51Z" />
    <path class="cls-1"
      d="M104.5,149.13c-1.69-.43-3.77-.93-5.39-1.17-3.29-.46-6.4,2.53-6.4,2.53,0,0-1.46-.8-2.54-1.44,1.06-.12,2.36-.33,3.94-.69.92-.2,3.23-2.09,4.35-2.42,3.64-.35,5.37,1.3,6.03,3.18Z" />
    <path class="cls-4"
      d="M96.22,154.81c-1.39,0-2.84-.04-4.26-.14-6.52-.46-12.48-2.06-12.54-2.07-.13-.03-.23-.12-.28-.24-1-2.28,1.2-6.13,1.95-7.33.22-.72.93-4.83.9-5.45-.01-.25.13-.57.83-.64,1.34-.14,7.96.69,8.18,2.13h0c.15,1-.87,2.58-2,4.13l-.17.24c-.38.53-1.4,2.35-1.92,3.27.94.09,3.15.12,7.1-.76.38-.09,1.21-.62,1.94-1.09.87-.56,1.77-1.14,2.4-1.32,4.64-.45,6.16,2.14,6.65,3.72.65,2.09.18,4.44-.66,4.9-.56.31-4.07.66-8.12.66ZM79.86,151.82c1.11.28,6.42,1.59,12.16,1.99,5.98.42,11.42-.19,11.9-.42.31-.18.84-2.02.23-3.93-.51-1.6-1.92-3.44-5.64-3.07-.43.13-1.31.7-2.09,1.2-.9.59-1.68,1.09-2.22,1.21-5.8,1.29-8,.69-8.09.66-.13-.04-.23-.13-.28-.25-.05-.12-.04-.26.02-.37.07-.13,1.73-3.14,2.27-3.9l.18-.24c.48-.66,1.92-2.63,1.85-3.45-.58-.71-6.1-1.66-7.31-1.44-.08,1.19-.73,4.91-.96,5.55-.01.03-.03.06-.04.09-1.25,1.99-2.49,4.81-1.99,6.38Z" />
    <path class="cls-4"
      d="M92.71,152.06c-.24,0-.43-.19-.43-.43,0-2.78,1.7-3.65,1.78-3.68.21-.1.47-.02.58.2.1.21.02.47-.2.58-.06.03-1.3.7-1.29,2.91,0,.24-.19.43-.43.43h0Z" />
    <path class="cls-3"
      d="M101.66,43.63c-18.17-2.62-51.69,4.92-54.39,37.66s26.31,40.99,41.1,42.42c14.79,1.43,40.72-2.68,48.01-30.52,7.29-27.84-9.22-45.88-34.73-49.56Z" />
    <path class="cls-4"
      d="M89.46,135c-.19-10.73-13.33-21.88-14.53-22.25-.88-.28-1.82.21-2.09,1.1-.24.77.1,1.58.77,1.95,1.62,1.14,12.36,10.76,12.51,19.26.05,2.58-.38,4.82-.96,6.66,1.24.53,2.15.69,3.29.73.63-2.09,1.06-4.58,1.01-7.45Z" />
    <path class="cls-4"
      d="M153.66,113.77c-.07-3.91-.98-8.61-4.28-11.96-6.66-6.74-26.64,3.81-28.89,5.04-.81.44-1.11,1.45-.67,2.26.44.81,1.45,1.11,2.26.67,7.67-4.16,21.22-9.37,24.93-5.62,2.57,2.6,3.27,6.48,3.31,9.77.9,1.16,2.28.31,3.35-.16Z" />
    <path class="cls-4"
      d="M38.26,71.74c-12.27-.48-17.33,17.65-17.54,18.42-.21.79.25,1.6,1.04,1.81.13.04.26.05.39.05.65,0,1.25-.43,1.42-1.09.05-.17,4.68-16.66,14.58-16.25,9.96.38,13.23,13.12,13.26,13.25.2.79,1,1.27,1.79,1.08.79-.2,1.28-.99,1.08-1.79-.15-.61-3.82-15.03-16.02-15.5Z" />
    <path class="cls-4"
      d="M162.63,58.4c-.7-1.19-1.78-1.93-3.13-2.14-15.56-2.39-28.58,24.13-29.12,25.26-.35.73-.05,1.62.69,1.97.21.1.43.15.64.15.55,0,1.08-.31,1.33-.83.12-.26,12.59-25.69,26.01-23.62.47.07.78.29,1.04.72,1.62,2.75-.49,11.14-2.2,15.78-.28.77.11,1.61.88,1.9.77.28,1.61-.11,1.9-.88.5-1.36,4.83-13.46,1.97-18.3Z" />
    <path class="cls-3"
      d="M19.72,93.11c-.03.08-1.04,2.5-2.29,2.74-1.25.24-4.16.48-4.16.48,0,0-3.44-3.3-6.5-1.61-3.06,1.69-2.64,6.86-1.01,6.7,1.63-.16.56-3.54,2.34-3.65,1.79-.11,3.25.48,3.25.48,0,0-1.84,1.92-2.74,3.68s-1.07,4.96.83,4.85c1.89-.11,1.31-3.04,2.21-4.21.91-1.17,2.66-2.62,2.66-2.62l1.6,1.77s-1.76,1.49-1.15,3.92c.61,2.42,1.6,3.44,2.66,3.2,1.07-.24.08-2.93.32-3.92.19-3.01,2.5-3.73,2.5-3.73,0,0,1.41,5.54,3.94,4.29,2.53-1.25-1.39-4.53-1.6-5.2-.21-.67-.32-2.61-.32-2.61,0,0,1.84-2.21,4.34-3.12.82-.3.77-4.26-4.18-4.96-4.96-.69-4.02.59-4.02.59l1.31,2.93Z" />
    <path class="cls-4"
      d="M17.12,109.29c-.84,0-2.03-.6-2.78-3.56-.51-2.01.44-3.43.97-4.04l-1.04-1.16c-.54.47-1.64,1.46-2.28,2.29-.28.36-.4,1.01-.52,1.65-.22,1.18-.49,2.65-2.01,2.73-.65.04-1.16-.22-1.5-.75-.75-1.15-.44-3.35.27-4.73.65-1.26,1.73-2.57,2.35-3.27-.56-.15-1.46-.32-2.45-.26-.52.03-.66.51-.84,1.52-.16.9-.37,2.02-1.48,2.13-.68.06-1.25-.44-1.53-1.36-.54-1.75-.05-4.86,2.29-6.15,2.97-1.64,6.14.9,6.86,1.54.66-.06,2.89-.26,3.92-.46.77-.15,1.6-1.63,1.9-2.31l-1.22-2.73c-.11-.17-.2-.5-.01-.82.27-.44,1.01-.89,4.48-.41,3.37.47,4.76,2.42,4.93,4.08.09.86-.17,1.53-.66,1.71-2.03.73-3.63,2.39-4.05,2.86.04.62.14,1.87.29,2.33.04.1.33.44.57.71.85,1,2.13,2.5,1.87,3.76-.11.53-.46.95-1.05,1.24-.58.29-1.18.3-1.74.05-1.46-.67-2.34-3.05-2.67-4.12-.6.34-1.67,1.22-1.79,3.16-.08.36,0,.93.07,1.48.16,1.21.34,2.59-.72,2.83-.12.03-.26.05-.4.05ZM14.31,99.51c.12,0,.24.05.32.14l1.6,1.77c.08.09.12.2.11.32,0,.12-.06.22-.15.3-.06.05-1.54,1.36-1.01,3.48.51,2.02,1.29,3.06,2.15,2.88.29-.07.13-1.29.05-1.87-.09-.66-.17-1.29-.06-1.73.19-3.2,2.69-4.01,2.8-4.04.11-.03.24-.02.34.04.1.06.18.16.21.27.24.94,1.13,3.49,2.34,4.04.33.15.64.14,1-.04.34-.17.54-.38.59-.64.17-.85-.99-2.21-1.68-3.03-.44-.52-.66-.78-.73-1.01-.22-.7-.33-2.51-.34-2.72,0-.11.03-.22.1-.3.08-.09,1.94-2.31,4.53-3.25.07-.07.21-.58,0-1.3-.21-.7-1.03-2.39-4.09-2.82-3.18-.44-3.6-.02-3.62,0l1.36,2.91c.04.1.05.21.02.31,0,.03-1.08,2.74-2.62,3.03-1.26.24-4.08.48-4.2.49-.12.01-.25-.03-.34-.12-.03-.03-3.25-3.06-5.99-1.54-1.91,1.06-2.33,3.71-1.89,5.13.12.38.35.79.62.76.42-.04.55-.49.72-1.42.16-.91.39-2.15,1.64-2.23,1.86-.11,3.37.48,3.44.51.13.05.23.17.26.31.03.14-.01.29-.11.39-.02.02-1.81,1.9-2.67,3.58-.65,1.27-.8,3.11-.31,3.86.17.26.4.36.73.36.76-.04.96-.68,1.21-2.03.14-.73.28-1.49.68-2.02.93-1.2,2.66-2.63,2.73-2.69.08-.07.18-.1.28-.1Z" />
    <path class="cls-3"
      d="M156.26,71.15s7.3.39,7.81.64c.51.25-2.34,3.22-2.32,3.72.02.5,2.55,3.84,2.55,3.84,0,0,3.49-.5,5.17.64,1.68,1.13,3.44,4.94,2.09,5.54-1.35.6-2.58-2.79-3.77-3.37-1.19-.58-3.64-.33-3.64-.33,0,0,2.47,3.1,2.03,5.11-.44,2.01-2.13,4.28-2.79,4.21-.66-.07.83-2.56.53-5.08-.3-2.52-2.65-4.28-2.65-4.28,0,0,1.05,4.07-1.01,5.6-2.06,1.53-3.3,1.24-3.77.46-.46-.78,2.95-2.3,2.77-4.3-.18-1.99-2.38-4.66-2.38-4.66,0,0-1.6.25-2.13.92-.53.67-.75,2.49-1.78,2.59-1.03.11-1.88-3.37-.46-4.16,1.42-.78,3.94-.85,3.94-.85,0,0,.75-2.38-.2-6.25Z" />
    <path class="cls-4"
      d="M163.41,91.59s-.04,0-.07,0c-.18-.02-.34-.11-.43-.26-.23-.34-.1-.8.13-1.65.26-.95.61-2.26.46-3.55-.16-1.31-.93-2.42-1.57-3.13.15,1.42.1,3.63-1.4,4.74-1.57,1.17-2.63,1.26-3.24,1.14-.49-.1-.9-.39-1.15-.81-.38-.64.28-1.23,1.03-1.93.79-.72,1.77-1.62,1.68-2.55-.14-1.54-1.63-3.58-2.13-4.22-.56.12-1.35.38-1.61.72-.14.18-.28.53-.42.87-.32.8-.72,1.79-1.66,1.89-.62.07-1.16-.5-1.48-1.5-.4-1.29-.27-2.9.76-3.47,1.19-.66,3.05-.84,3.81-.89.15-.73.44-2.79-.28-5.73-.03-.13,0-.27.09-.38.09-.1.22-.17.36-.16,2.22.12,7.44.42,7.98.68.15.07.25.2.29.36.1.44-.3,1.01-1.38,2.41-.36.47-.85,1.1-.97,1.34.17.43,1.27,2.01,2.3,3.38.87-.09,3.68-.3,5.22.74,1.44.97,2.88,3.67,2.75,5.15-.06.71-.43,1.01-.73,1.14-1.14.51-2.05-.78-2.86-1.92-.45-.63-.91-1.28-1.28-1.46-.64-.31-1.8-.36-2.64-.33.73,1.06,1.99,3.21,1.63,4.82-.43,1.93-2.12,4.55-3.19,4.55ZM161.28,81.36c.09,0,.18.03.26.09.1.08,2.5,1.9,2.82,4.58.17,1.46-.22,2.92-.48,3.88-.06.21-.12.45-.17.65.59-.52,1.7-2.12,2.05-3.7.33-1.48-1.29-3.93-1.94-4.75-.1-.12-.12-.29-.06-.44.06-.15.2-.25.35-.26.11-.01,2.59-.26,3.88.37.57.28,1.07.99,1.6,1.74.58.82,1.31,1.85,1.8,1.63.05-.02.19-.08.22-.43.1-1.2-1.18-3.56-2.37-4.36-1.52-1.03-4.84-.57-4.87-.57-.15.02-.31-.04-.41-.17-1.74-2.29-2.62-3.67-2.64-4.09-.01-.34.29-.76,1.17-1.89.34-.44.87-1.12,1.11-1.51-.97-.14-3.95-.35-6.78-.51.76,3.61.09,5.82.06,5.92-.06.18-.22.3-.4.3-.02,0-2.44.08-3.75.8-.59.32-.64,1.52-.35,2.45.22.69.48.91.56.9.42-.04.7-.74.94-1.35.16-.41.32-.8.54-1.08.62-.79,2.22-1.06,2.4-1.08.15-.02.3.03.4.15.09.11,2.29,2.79,2.48,4.89.12,1.35-1.08,2.46-1.96,3.26-.33.3-.82.75-.85.92.11.14.3.27.56.33.37.08,1.17.04,2.56-.99,1.8-1.34.86-5.1.85-5.14-.05-.18.03-.37.18-.47.07-.05.16-.07.24-.07ZM156.46,77.4h0,0ZM163.89,72.18h0,0Z" />
    <path class="cls-5"
      d="M100.72,47.78c-16.28-2.35-46.33,4.41-48.74,33.75-2.42,29.34,23.58,36.73,36.84,38.01,13.26,1.28,36.49-2.4,43.03-27.35,6.54-24.95-8.26-41.12-31.12-44.41Z" />
    <path class="cls-3"
      d="M62.14,71.6c.35.19,6.47-4.94,9.84-2.94,3.37,2,4.92,5.17,4.92,5.17,0,0-1.99-8.1-8.41-6.63-5.98,1.36-6.71,4.21-6.36,4.4Z" />
    <path class="cls-3"
      d="M124.22,77.53c-.41-3.56-4.41-7.34-7.43-7.11-3.02.23-6.16.84-5.75,1.81.41.97,9.06-2.02,13.18,5.3Z" />
    <path class="cls-3"
      d="M82.35,86.56s-.88,14.04,3.45,14.66c4.32.61,5.49-.82,5.49-.82,0,0-3.55.14-5.19-3.89-1.64-4.03-3.74-9.95-3.74-9.95Z" />
    <path class="cls-3"
      d="M60.28,65.78c8.84-13.76,28.45-17.6,44.48-17.27-1.31-.29-2.66-.54-4.03-.74-16.28-2.35-46.33,4.41-48.74,33.75-.71,8.65,1.06,15.39,4.23,20.63-3.38-11.6-4.39-25.27,4.06-36.37Z" />
    <path class="cls-1"
      d="M118.81,54.15c11.83,12.35,10.02,34.35,1.19,49.35-4.14,6.09-8.96,10.9-14.27,14.73,10.88-2.81,21.93-10.06,26.11-26.04,4.57-17.43-1.29-30.58-13.03-38.04Z" />
    <path class="cls-3"
      d="M75.93,86.05c-.65,3.75-3.83,10.05-9.52,10.13-.38,0-.76-.01-1.16-.07-6.41-.82-7.12-8.86-5.58-14.19,2.11-7.36,7.41-9.88,11.42-9.53.1.01.19.02.29.03,5.74.81,5.22,9.7,4.54,13.62Z" />
    <path class="cls-3"
      d="M122.11,90.9c-2.26,5.34-5.62,8.83-9.64,9.49-1.27.23-2.6.17-4-.22-4.19-1.16-7.64-6.68-4.76-15.06,2.35-6.85,5.55-9.61,8.7-10.3,1.71-.38,3.39-.14,4.92.38,4.34,1.48,7.76,8.67,4.78,15.71Z" />
    <path class="cls-4"
      d="M66.42,96.61c-.36,0-.77,0-1.22-.07-2.13-.27-3.8-1.31-4.96-3.08-2.09-3.19-1.99-8.15-.98-11.67,2.11-7.34,7.5-10.23,11.87-9.84l.22.03s.09.01.09.01c1.47.21,2.67.93,3.55,2.13,2.64,3.63,1.6,10.63,1.36,11.99h0c-.69,4.01-4,10.41-9.94,10.49h0ZM70.35,72.79c-3.88,0-8.39,2.78-10.25,9.25-.96,3.32-1.07,8,.87,10.95,1.01,1.55,2.48,2.45,4.35,2.69.4.06.78.06,1.1.06,5.12-.07,8.4-5.76,9.09-9.77h0c.23-1.31,1.23-7.99-1.21-11.34-.74-1.01-1.73-1.61-2.97-1.78l-.28-.03c-.23-.02-.47-.03-.71-.03Z" />
    <path class="cls-4"
      d="M64.35,98.87s-.08,0-.12-.02c-.66-.19-1.3-.41-1.89-.66-.22-.1-.32-.35-.22-.57.09-.22.35-.32.57-.22.55.24,1.15.45,1.77.62.23.06.36.3.3.53-.05.19-.23.32-.42.32Z" />
    <path class="cls-4"
      d="M61.13,97.51c-.08,0-.15-.02-.22-.06-6.09-3.68-5.37-10.97-4.39-14.98.06-.23.29-.37.52-.32.23.06.37.29.32.52-.92,3.79-1.62,10.64,4,14.04.2.12.27.39.15.59-.08.13-.22.21-.37.21Z" />
    <path class="cls-4"
      d="M57.35,81.47s-.08,0-.13-.02c-.23-.07-.36-.31-.29-.54.23-.76.5-1.52.8-2.25.09-.22.34-.33.56-.24.22.09.33.34.24.56-.29.71-.55,1.44-.78,2.18-.06.19-.23.31-.41.31Z" />
    <path class="cls-4"
      d="M110.98,100.97c-.86,0-1.74-.12-2.63-.37-2.04-.56-3.77-2.02-4.87-4.11-1.61-3.06-1.68-7.15-.19-11.5,2.12-6.17,5.15-9.73,9.02-10.58,1.62-.36,3.35-.23,5.15.39,2.06.7,3.89,2.57,5.03,5.12,1.54,3.45,1.54,7.52,0,11.17h0c-2.38,5.62-5.92,9.08-9.97,9.75-.51.09-1.03.14-1.56.14ZM114.14,75.07c-.56,0-1.1.06-1.64.18-3.55.78-6.38,4.15-8.39,10.01-1.41,4.13-1.37,7.97.13,10.82.99,1.88,2.53,3.18,4.34,3.68,1.31.36,2.59.44,3.8.21,3.76-.62,7.06-3.9,9.32-9.24h0c1.45-3.42,1.45-7.24,0-10.48-1.04-2.33-2.69-4.03-4.52-4.65-1.05-.36-2.07-.54-3.05-.54Z" />
    <path class="cls-4"
      d="M121.95,95.95c-.08,0-.16-.02-.24-.07-.2-.13-.26-.4-.12-.6.19-.29.38-.59.58-.9.13-.2.39-.26.6-.14.2.13.26.39.14.6-.2.32-.39.62-.59.92-.08.13-.22.2-.36.2Z" />
    <path class="cls-4"
      d="M111.31,103.42c-1.55,0-2.99-.21-4.28-.62-.23-.07-.35-.32-.28-.54.07-.23.32-.35.54-.28,1.2.38,2.55.58,4.01.58,3.58,0,6.54-1.94,9.61-6.29.14-.2.41-.24.6-.1.2.14.24.41.1.6-3.25,4.61-6.43,6.66-10.32,6.66Z" />
    <path class="cls-4"
      d="M105.63,102.19c-.07,0-.13-.02-.2-.05-.63-.32-1.22-.7-1.75-1.13-.19-.15-.21-.42-.06-.61.15-.19.42-.21.61-.06.48.39,1.02.74,1.6,1.03.21.11.3.37.19.58-.08.15-.23.24-.39.24Z" />
    <path class="cls-4"
      d="M102.98,100.17c-.12,0-.24-.05-.32-.15-.68-.77-.96-1.38-.97-1.41-.1-.22,0-.47.21-.57.21-.1.47,0,.57.21,0,0,.25.53.84,1.19.16.18.14.45-.04.61-.08.07-.18.11-.29.11Z" />
    <path class="cls-4"
      d="M97.94,83.75c-.87-.14-2.65-.54-2.84-.37-.14.13-.22.86-.24,1.03-.37,3.17-.9,6.41-1.91,9.42-.76,2.47-2.71,6.27-5.37,6.24-2.96-.03-3.77-4.52-4.16-6.77-.45-3.32-.44-6.77-.33-10.13.03-.5-2.99-.77-2.99-.77-.32-.04-.61,1.42-.31,1.46l2.05-.13c-.57,3.07-.96,8.16-.19,12.26.71,3.74,2.7,6.66,6.08,6.48,4.53-.23,6.22-4.58,7.03-7.07,1.14-3.48,1.29-7.5,1.26-10.85.39.08,1.95.55,1.98.55.27,0,.23-1.29-.07-1.33Z" />
    <path class="cls-6"
      d="M96.13,109.31c-.19.83-.65,1.49-1.5,1.86-3.34,1.44-5.64-4.34-6.7-7.81-.01-.02-.02-.04-.02-.06-.42-1.39-.65-2.39-.65-2.39l5.01-2.66s4.74,7.3,3.86,11.06Z" />
    <path class="cls-3"
      d="M96.13,109.31c-.19.83-.65,1.49-1.5,1.86-3.34,1.44-5.64-4.34-6.7-7.81.37.61,3.36,5.6,5.61,6.07.86.18,1.77.09,2.59-.11Z" />
    <path class="cls-4"
      d="M125.45,81.96c-.21,0-.39-.15-.43-.37-.49-3.19-1.8-5.57-3.9-7.07-3.5-2.51-8.05-1.74-8.1-1.73-.24.04-.46-.12-.5-.35-.04-.24.11-.46.35-.5.2-.04,4.95-.84,8.75,1.88,2.3,1.64,3.73,4.22,4.26,7.65.04.24-.13.46-.36.49-.02,0-.04,0-.07,0Z" />
    <path class="cls-4"
      d="M93.28,120.17c-1.99,0-3.56-.11-4.5-.2-9.4-.91-39.87-6.36-37.22-38.48.86-10.41,5.18-18.78,12.84-24.89,10.64-8.48,25.95-10.76,36.4-9.25h0c12.47,1.8,22.39,7.4,27.95,15.79,5.24,7.89,6.45,17.98,3.52,29.16-6.51,24.83-28.57,27.87-38.98,27.87ZM94.43,47.78c-9.52,0-21.02,2.74-29.5,9.5-7.47,5.95-11.68,14.12-12.51,24.28-2.58,31.33,27.24,36.66,36.45,37.55,5.78.56,34.99,1.87,42.57-27.03,2.87-10.94,1.69-20.78-3.41-28.47-5.42-8.18-15.14-13.65-27.36-15.41-1.93-.28-4.03-.43-6.23-.43Z" />
    <path class="cls-4"
      d="M75.93,86.05c-.65,3.75-3.83,10.05-9.52,10.13-1.68-3.01-3.11-7.69-2.07-13.72.91-5.38,4.11-8.38,7.05-10.03,5.74.81,5.22,9.7,4.54,13.62Z" />
    <path class="cls-4"
      d="M122.11,90.9c-2.26,5.34-5.62,8.83-9.64,9.49-2.26-3.29-4.34-8-3.88-13.9.4-5.26,2.05-9.06,3.83-11.68,1.71-.38,3.39-.14,4.92.38,4.34,1.48,7.76,8.67,4.78,15.71Z" />
    <path class="cls-3"
      d="M68.3,86.17h-3.5c-1.7,0-3.08-1.39-3.08-3.08h0c0-1.7,1.39-3.08,3.08-3.08h3.5c1.7,0,3.08,1.39,3.08,3.08h0c0,1.7-1.39,3.08-3.08,3.08Z" />
    <path class="cls-3"
      d="M112.79,89.26h-3.5c-1.7,0-3.08-1.39-3.08-3.08h0c0-1.7,1.39-3.08,3.08-3.08h3.5c1.7,0,3.08,1.39,3.08,3.08h0c0,1.7-1.39,3.08-3.08,3.08Z" />
    <path class="cls-4"
      d="M93.58,111.83c-.46,0-.92-.12-1.36-.35-3.46-1.78-5.31-10.12-5.39-10.48-.03-.12,0-.24.07-.34.62-.88,1.42-1.34,2.4-1.37.9-.91,1.88-1.41,2.93-1.48.16-.02.31.07.39.2.21.32,5.03,7.81,3.87,11.65-.27.9-.84,1.54-1.69,1.91-.41.18-.81.26-1.21.26ZM87.72,101.01c.29,1.25,2.06,8.25,4.89,9.7.61.31,1.21.33,1.84.06.61-.27,1.01-.71,1.21-1.37.94-3.12-2.84-9.44-3.63-10.7-.79.12-1.53.55-2.24,1.32-.09.09-.2.13-.33.14-.7-.02-1.28.26-1.75.85Z" />
    <path class="cls-4"
      d="M92.99,107.93c-.17,0-.33-.1-.4-.26l-3.41-7.82c-.1-.22,0-.47.22-.57.22-.09.47,0,.57.22l3.41,7.82c.1.22,0,.47-.22.57-.06.02-.11.04-.17.04Z" />
    <path class="cls-4"
      d="M76.91,74.26c-.19,0-.36-.12-.42-.31-.71-2.46-1.95-4.02-3.7-4.64-3.87-1.38-9.06,2.17-9.11,2.2-.2.14-.47.09-.6-.11-.14-.2-.09-.47.11-.6.23-.16,5.6-3.83,9.89-2.31,2.03.72,3.46,2.48,4.25,5.22.07.23-.07.47-.3.54-.04.01-.08.02-.12.02Z" />
    <path class="cls-4"
      d="M151.84,114.77c-1.09,0-1.82-.49-1.87-.53-.2-.14-.25-.41-.11-.6.14-.2.41-.24.6-.11h0c.05.04,1.35.88,3.01-.11.21-.12.47-.06.59.15.12.21.05.47-.15.59-.77.46-1.48.61-2.08.61Z" />
    <path class="cls-4"
      d="M87.4,143.15c-2.12,0-2.79-1.6-2.8-1.62-.09-.22.02-.47.24-.56.22-.09.47.02.56.24.03.07.68,1.53,3.05.94.23-.06.47.08.53.32.06.23-.08.47-.32.53-.47.12-.89.17-1.26.17Z" />
    <path class="cls-4"
      d="M86.78,152.74s-.03,0-.04,0c-4.55-.44-7.22-1.96-7.33-2.03-.21-.12-.28-.38-.16-.59.12-.21.38-.28.59-.16.03.02,2.63,1.5,6.98,1.91.24.02.41.23.39.47-.02.22-.21.39-.43.39Z" />
    <path class="cls-4"
      d="M99.47,153.31c-1.55,0-2.76-.15-3.42-.26-.24,0-.45-.2-.45-.44s.18-.44.42-.44c.01,0,.07,0,.17.02,1.23.2,4.5.56,8.29-.32.24-.05.47.09.52.32.05.23-.09.47-.32.52-1.93.45-3.72.58-5.21.58Z" />
    <path class="cls-6"
      d="M31.45,51.11l-1.38-.55c-.07-.03-.13-.03-.2,0-.07.03-.12.08-.14.14l-1.25,3.12-4.28-1.72c-.07-.03-.13-.03-.2,0-.07.03-.12.08-.14.14l-.79,1.97c-.03.07-.03.13,0,.2.03.07.08.12.14.14l5.9,2.37c.07.03.13.03.2,0,.07-.03.12-.08.14-.14l2.14-5.34c.03-.07.03-.13,0-.2-.03-.07-.08-.12-.14-.14Z" />
    <path class="cls-6"
      d="M33.75,43.64c-.06-.03-.13-.04-.2-.02-.07.02-.12.06-.16.13l-.85,1.57-2.51-1.36.85-1.57c.03-.06.04-.13.02-.2-.02-.07-.06-.12-.13-.16l-1.31-.71c-.06-.03-.13-.04-.2-.02-.07.02-.12.06-.16.13l-2.97,5.49c-.03.06-.04.13-.02.2s.06.12.13.16l1.31.71c.06.03.13.04.2.02.07-.02.12-.06.16-.13l.86-1.59,2.51,1.36-.86,1.59c-.03.06-.04.13-.02.2.02.07.06.12.13.16l1.31.71c.06.03.13.04.2.02.07-.02.12-.06.16-.13l2.97-5.49c.03-.06.04-.13.02-.2-.02-.07-.06-.12-.13-.16l-1.31-.71Z" />
    <path class="cls-6"
      d="M39.75,37.36l-4.27.27-1-3.54s-.04-.09-.09-.12c-.05-.03-.1-.04-.16-.03-.06.01-.11.04-.14.09l-1.36,1.95c-.08.12-.11.25-.07.39l.71,2.39-1.52-1.06c-.06-.04-.12-.06-.2-.04-.07.01-.13.05-.17.11l-1.16,1.67c-.04.06-.06.13-.04.2.01.07.05.13.11.17l5.22,3.63c.06.04.13.06.2.04.07-.01.13-.05.17-.11l1.16-1.67c.04-.06.06-.13.04-.2s-.05-.13-.11-.17l-1.65-1.15,2.72-.2c.13-.01.25-.08.33-.2l1.45-2.09s.05-.1.03-.16c-.01-.06-.04-.1-.08-.13-.04-.03-.09-.05-.14-.05Z" />
    <path class="cls-6"
      d="M43.49,31.15c-.05-.05-.12-.07-.19-.06-.07,0-.14.03-.18.09l-2.59,2.96-.47-.41,2.17-2.47c.05-.05.07-.12.06-.19,0-.07-.03-.14-.09-.18l-.96-.84c-.05-.05-.12-.07-.19-.06-.07,0-.14.03-.18.09l-2.17,2.47-.47-.41,2.52-2.88c.05-.05.07-.12.06-.19,0-.07-.03-.13-.09-.18l-1.04-.91c-.05-.05-.12-.07-.19-.06-.07,0-.14.03-.18.09l-4.04,4.61c-.05.05-.07.12-.06.19,0,.07.03.14.09.18l4.79,4.19c.05.05.12.07.19.06.07,0,.14-.03.18-.09l4.1-4.68c.05-.05.07-.12.06-.19,0-.07-.03-.13-.09-.18l-1.04-.92Z" />
    <path class="cls-6"
      d="M55.52,21.07c-.04-.06-.1-.09-.17-.11-.07-.01-.14,0-.2.05l-1.44,1.05-1.68-2.31,1.44-1.05c.06-.04.09-.1.11-.17.01-.07,0-.14-.05-.2l-.87-1.2c-.04-.06-.1-.09-.17-.11-.07-.01-.14,0-.2.05l-5.05,3.67c-.06.04-.09.1-.1.17-.01.07,0,.14.05.2l.87,1.2c.04.06.1.09.17.11.07.01.14,0,.2-.05l1.46-1.06,1.68,2.31-1.46,1.06c-.06.04-.09.1-.11.17-.01.07,0,.14.05.2l.87,1.2c.04.06.1.09.17.11.07.01.14,0,.2-.05l5.05-3.67c.06-.04.09-.1.1-.17.01-.07,0-.14-.05-.2l-.87-1.2Z" />
    <path class="cls-6"
      d="M59.05,15.52l1.84-1.04c.06-.04.1-.09.12-.16.02-.07.01-.14-.02-.2l-.78-1.38c-.04-.06-.09-.1-.16-.12-.07-.02-.14-.01-.2.02l-5.91,3.35c-.06.04-.1.09-.12.16-.02.07-.01.14.02.2l.78,1.38c.04.06.09.1.16.12.07.02.14.01.2-.02l1.84-1.04,2.22,3.92c.04.06.09.1.16.12.07.02.14.01.2-.02l1.77-1c.06-.04.1-.09.12-.16.02-.07.01-.14-.02-.2l-2.22-3.92Z" />
    <path class="cls-6"
      d="M69.1,12.11c-.55-.12-1.34-.03-2.38.28-.49.15-.83.23-1.01.25-.18.02-.29-.02-.32-.11-.07-.16.1-.33.5-.5.29-.12.54-.15.74-.08.11.04.22.04.33-.01l1.95-.83c.07-.03.11-.07.14-.12.02-.05.02-.11,0-.17-.19-.45-.66-.75-1.39-.91-.74-.16-1.57-.04-2.49.35-.92.39-1.58.89-1.97,1.5-.39.6-.46,1.21-.2,1.81.45,1.07,1.58,1.34,3.37.81.56-.17.95-.26,1.15-.28.21-.02.33.03.38.13.07.17-.18.38-.75.62-.42.18-.74.23-.97.15-.11-.04-.23-.03-.35.02l-1.86.79c-.14.06-.18.15-.13.29.23.54.7.87,1.42,1,.71.13,1.58-.02,2.59-.45,1.01-.43,1.74-.96,2.19-1.59.45-.63.55-1.25.29-1.85-.26-.6-.66-.96-1.21-1.08Z" />
    <path class="cls-6"
      d="M62.43,11.63s-.05-.07-.11-.09c-.06-.02-.11-.02-.17,0l-1.13.48c-.11.05-.2.13-.25.23-.05.11-.06.21-.04.3l.59,2.31v.02c.03.05.07.09.13.12.06.02.11.02.17,0l.62-.26c.2-.09.3-.24.29-.47l-.07-2.55s-.01-.05-.03-.09Z" />
    <path class="cls-6"
      d="M84.25,5.17c-.06-.04-.13-.06-.2-.04l-6.69,1.19c-.07.01-.13.05-.17.11-.04.06-.06.13-.04.2l.28,1.56c.01.07.05.13.11.17.06.04.13.06.2.04l2.08-.37.79,4.44c.01.07.05.13.11.17.06.04.13.06.2.04l2-.36c.07-.01.13-.05.17-.11.04-.06.06-.13.04-.2l-.79-4.44,2.08-.37c.07-.01.13-.05.17-.11.04-.06.06-.13.04-.2l-.28-1.56c-.01-.07-.05-.13-.11-.17Z" />
    <path class="cls-6"
      d="M92.59,4.56c-.06-.05-.12-.07-.19-.07l-2.02.13c-.07,0-.13.04-.18.09-.05.06-.07.12-.07.19l.13,2.01-1.97.13-.13-2.01c0-.07-.04-.13-.09-.18-.06-.05-.12-.07-.19-.07l-2.02.13c-.07,0-.13.03-.18.09-.05.06-.07.12-.07.19l.41,6.35c0,.08.04.14.09.19s.12.07.19.06l2.03-.13c.07,0,.13-.03.18-.09.05-.06.07-.12.07-.19l-.13-2.09,1.97-.13.13,2.09c0,.07.03.13.09.18.06.05.12.07.19.07l2.02-.13c.07,0,.13-.04.18-.09.05-.06.07-.12.07-.19l-.41-6.35c0-.07-.04-.13-.09-.18Z" />
    <path class="cls-6"
      d="M100.66,4.78l-6.12-.28c-.07,0-.14.02-.19.07-.05.05-.08.11-.09.18l-.29,6.36c0,.07.02.14.07.19.05.06.11.08.18.09l6.22.29c.07,0,.14-.02.19-.07.05-.05.08-.11.09-.18l.06-1.39c0-.07-.02-.14-.07-.19-.05-.05-.11-.08-.18-.09l-3.93-.18.03-.62,3.29.15c.07,0,.14-.02.19-.07.05-.05.08-.11.09-.18l.06-1.28c0-.07-.02-.14-.07-.19-.05-.05-.11-.08-.18-.09l-3.29-.15.03-.62,3.83.18c.07,0,.14-.02.19-.07.05-.05.08-.11.09-.18l.06-1.39c0-.07-.02-.14-.07-.19s-.11-.08-.18-.09Z" />
    <path class="cls-6"
      d="M116.22,12.99c-.04-.06-.09-.11-.16-.13l-3.24-.9,1.23-4.44c.02-.07.01-.14-.03-.2-.04-.06-.09-.11-.16-.13l-2.05-.57c-.07-.02-.14-.01-.2.03-.06.04-.11.09-.13.16l-1.7,6.13c-.02.07-.01.14.03.2.04.06.09.11.16.13l5.54,1.54c.07.02.14.01.2-.03.06-.04.11-.09.13-.16l.4-1.43c.02-.07.01-.14-.03-.2Z" />
    <path class="cls-6"
      d="M123.62,10.57l-2.54-1.03c-.22-.09-.4-.04-.53.14l-4.35,5.03s-.03.04-.04.08c-.01.04-.01.08.01.14.02.06.06.09.12.12l1.73.7c.19.08.37.03.54-.14l.49-.55,2.23.9-.03.73c0,.24.09.4.29.48l1.73.7c.05.02.11.02.17,0,.06-.02.09-.05.11-.09.01-.04.02-.07.02-.09l.37-6.64c.03-.22-.07-.38-.29-.47ZM121.51,13.98l-1.3-.53,1.42-1.64-.12,2.16Z" />
    <path class="cls-6"
      d="M129.93,13.62c-.88-.48-1.68-.68-2.4-.61-.72.07-1.23.39-1.54.96-.55,1.02-.07,2.07,1.46,3.14.48.33.8.58.94.73.14.15.18.28.13.38-.09.16-.41.09-.95-.2-.4-.22-.64-.44-.72-.68-.04-.11-.12-.2-.24-.27l-1.77-.96c-.13-.07-.23-.05-.3.08-.28.51-.25,1.09.09,1.73.34.64,1,1.22,1.96,1.75.96.52,1.83.77,2.61.73.78-.04,1.32-.35,1.63-.92.31-.57.34-1.11.1-1.62-.25-.5-.81-1.07-1.7-1.69-.42-.29-.7-.51-.82-.64-.12-.13-.16-.24-.12-.32.08-.16.32-.13.71.08.28.15.45.32.53.52.04.11.11.19.21.24l1.86,1.01c.06.03.12.04.18.03.06-.01.1-.05.13-.11.23-.42.18-.97-.16-1.65-.34-.68-.94-1.25-1.82-1.73Z" />
    <path class="cls-6"
      d="M134.4,16.17c-.06-.04-.13-.06-.2-.04-.07.01-.13.05-.17.11l-.91,1.3c-.04.06-.06.13-.04.2.01.07.05.13.11.17l1.74,1.21-2.58,3.7c-.04.06-.06.13-.04.2.01.07.05.13.11.17l1.66,1.16c.06.04.13.06.2.04.07-.01.13-.05.17-.11l2.58-3.7,1.74,1.21c.06.04.12.06.2.04.07-.01.13-.05.17-.11l.91-1.3c.04-.06.06-.13.04-.2-.01-.07-.05-.13-.11-.17l-5.57-3.89Z" />
    <path class="cls-6"
      d="M150.59,33.22c.05.05.11.08.18.09.07,0,.14-.02.19-.07l1.17-1.07c.05-.05.08-.11.09-.18,0-.07-.02-.14-.07-.19l-4.57-5.03c-.05-.05-.11-.08-.18-.09-.07,0-.14.02-.19.07l-1.17,1.07c-.05.05-.08.11-.09.18,0,.07.02.14.07.19l1.42,1.57-3.34,3.03c-.05.05-.08.11-.09.18,0,.07.02.14.07.19l1.36,1.5c.05.05.11.08.18.09.07,0,.14-.02.19-.07l3.34-3.03,1.42,1.57Z" />
    <path class="cls-6"
      d="M153.12,41.43c.01-.07,0-.14-.05-.2l-1.04-1.45,2.32-1.67,1.04,1.45c.04.06.1.09.17.11.07.01.14,0,.2-.05l1.21-.87c.06-.04.09-.1.11-.17.01-.07,0-.14-.05-.2l-3.66-5.06c-.04-.06-.1-.09-.17-.11-.07-.01-.14,0-.2.05l-1.21.87c-.06.04-.09.1-.11.17-.01.07,0,.14.05.2l1.06,1.46-2.32,1.67-1.06-1.46c-.04-.06-.1-.09-.17-.11-.07-.01-.14,0-.2.05l-1.21.87c-.06.04-.09.1-.11.17-.01.07,0,.14.05.2l3.66,5.06c.04.06.1.09.17.11.07.01.14,0,.2-.05l1.21-.87c.06-.04.09-.1.11-.17Z" />
    <path class="cls-6"
      d="M161.53,46.26c.02-.07.01-.14-.02-.2l-.88-1.57c-.09-.16-.24-.24-.44-.24l-2.69.04,1.43-2.28c.11-.17.11-.34.02-.5l-.88-1.57c-.04-.06-.09-.1-.16-.12-.07-.02-.14-.01-.2.02l-5.54,3.12c-.06.04-.1.09-.12.16-.02.07-.01.14.02.2l.87,1.55c.04.06.09.1.16.12.07.02.14.01.2-.02l2.66-1.5-.88,1.32s-.05.11-.07.2c-.02.09,0,.19.06.28l.33.58c.04.07.1.13.17.17.08.05.16.07.25.06l1.59-.07-2.66,1.5c-.06.04-.1.09-.12.16-.02.07-.01.14.02.2l.87,1.55c.04.06.09.1.16.12.07.02.14.01.2-.02l5.54-3.12c.06-.04.1-.09.12-.16Z" />
    <path class="cls-6"
      d="M164.72,53.47l-2.39-5.64c-.03-.07-.08-.11-.15-.14-.07-.03-.14-.03-.2,0l-5.86,2.48c-.07.03-.11.08-.14.15-.03.07-.03.14,0,.2l2.43,5.73c.03.07.08.11.15.14s.14.03.2,0l1.28-.54c.07-.03.11-.08.14-.15.03-.07.03-.14,0-.2l-1.53-3.62.57-.24,1.28,3.03c.03.07.08.11.15.14.07.03.14.03.2,0l1.18-.5c.07-.03.11-.08.14-.15.03-.07.03-.14,0-.2l-1.28-3.03.57-.24,1.49,3.53c.03.07.08.11.15.14.07.03.14.03.2,0l1.28-.54c.07-.03.11-.08.14-.15.03-.07.03-.14,0-.2Z" />
    <path class="cls-6"
      d="M67.02,35.53h-1.87v-4.4c0-.51-.41-.93-.93-.93s-.93.41-.93.93v4.4h-1.87c-.51,0-.93.41-.93.93s.41.93.93.93h1.87v4.4c0,.51.41.93.93.93s.93-.41.93-.93v-4.4h1.87c.51,0,.93-.41.93-.93s-.41-.93-.93-.93Z" />
    <path class="cls-6"
      d="M40.04,91.03h-1.87v-4.4c0-.51-.41-.93-.93-.93s-.93.41-.93.93v4.4h-1.87c-.51,0-.93.41-.93.93s.41.93.93.93h1.87v4.4c0,.51.41.93.93.93s.93-.41.93-.93v-4.4h1.87c.51,0,.93-.41.93-.93s-.41-.93-.93-.93Z" />
    <path class="cls-6"
      d="M117.21,29.13h-1.87v-4.4c0-.51-.41-.93-.93-.93s-.93.41-.93.93v4.4h-1.87c-.51,0-.93.41-.93.93s.41.93.93.93h1.87v4.4c0,.51.41.93.93.93s.93-.41.93-.93v-4.4h1.87c.51,0,.93-.41.93-.93s-.41-.93-.93-.93Z" />
    <path class="cls-5"
      d="M146.21,56.09h-1.87v-4.4c0-.51-.41-.93-.93-.93s-.93.41-.93.93v4.4h-1.87c-.51,0-.93.41-.93.93s.41.93.93.93h1.87v4.4c0,.51.41.93.93.93s.93-.41.93-.93v-4.4h1.87c.51,0,.93-.41.93-.93s-.41-.93-.93-.93Z" />
  </g>
</svg>