<?xml version="1.0" encoding="UTF-8"?>
<svg id="Capa_2" xmlns="http://www.w3.org/2000/svg" viewBox="0 0 205.24 192.86">
  <defs>
    <style>
      .cls-1 {
        fill: aqua;
      }

      .cls-2 {
        fill: #fff;
      }

      .cls-3 {
        fill: #862291;
      }

      .cls-4 {
        fill: #1b1464;
      }

      .cls-5 {
        fill: #fcee21;
      }

      .cls-6 {
        fill: #ed1e79;
      }
    </style>
  </defs>
  <g id="_0">
    <path class="cls-2"
      d="M193.9,121.85h-.01c.03-.07.29-.27.69-.27,3.19,0,5.78-2.59,5.78-5.78v-2.08c2.34-.77,3.97-2.98,3.97-5.49s-1.64-4.72-3.97-5.49v-2.08c0-3.19-2.59-5.78-5.78-5.78-1.44,0-2.82.53-3.87,1.49-.06.03-.35,0-.71-.31-1.03-.89-1.77-3.3-.78-7.38,1.76-7.36,3.95-16.53,3.95-30.5,0-9.76-3.17-17.39-9.68-23.33-14.01-12.78-42.87-16.96-88.21-12.78-3.8.35-7.63.81-11.39,1.37,0-.09,0-.18,0-.27v-2.08c2.34-.77,3.97-2.98,3.97-5.49s-1.64-4.72-3.97-5.49v-2.08c0-3.19-2.59-5.78-5.78-5.78-1.75,0-3.34.8-4.41,2.06-.39-1.08-1.19-1.98-2.26-2.5-.85-1-2.08-1.57-3.4-1.57h-12.07c-.93,0-1.82.29-2.58.83-1.57-.72-3.42-1.08-5.51-1.08-3.54,0-5.86,1.27-7.28,2.51-1.95-1.67-4.49-2.51-7.56-2.51-3.46,0-6.24,1.08-8.28,3.2-.09.1-.19.2-.28.3-.44-.72-1.09-1.32-1.87-1.69-.85-1-2.08-1.57-3.4-1.57h-5.52c-2.46,0-4.46,2-4.46,4.46v24.45c0,.39.05.77.15,1.15-.1.39-.15.75-.15,1.1v24.45c0,.93.28,1.82.81,2.56C2.93,67.12-.53,76.29.07,84.98c.55,7.98,4.5,14.82,11.41,19.8,3.65,2.62,6.63,5.36,8.89,8.12.47,2.26-.56,4.01-1.07,4.38-1.08-1.09-2.57-1.71-4.1-1.71-3.19,0-5.78,2.59-5.78,5.78v2.08c-2.34.77-3.97,2.98-3.97,5.49s1.64,4.72,3.97,5.49v2.08c0,3.19,2.59,5.78,5.78,5.78,1.17,0,1.71.29,1.78.47.04.11-.03.56-.84,1.3-4.32,3.95-6.21,10.73-4.92,17.69,1.79,9.64,9.37,18.09,20.82,23.24.88,2.16,2.99,3.59,5.35,3.59.95,0,1.88-.23,2.71-.68,7.24,2.08,15.67,3.24,25.06,3.44,3.85.08,7.65.15,11.3.2,2.24,1.11,5.76,1.33,11.01,1.33,6.23,0,15.27-.44,26.88-1.31,1.82-.14,3.66-.28,5.46-.43,24.23-.94,43.42-3.23,57.03-6.82,18.78-4.95,28.33-12.84,28.4-23.46.11-18.59-6.24-29.9-11.34-38.99Z" />
    <path class="cls-3"
      d="M188.71,58.18c0-15.5-8.13-39.49-93.02-31.66C15.87,33.88-12.33,82.15,14.09,101.16c26.41,19.01,14.01,38,5.06,46.18-8.95,8.18-5.66,38.42,46.11,39.53s135.36.5,135.52-26.05-13.51-36.81-17.06-50.54c-4.22-16.3,5-23.9,5-52.1Z" />
    <path class="cls-4"
      d="M91.57,187.95c-9.09,0-17.98-.13-26.33-.31-37.09-.8-46.88-16.29-49.37-22.91-2.54-6.77-1.41-14.15,2.75-17.96,3.39-3.1,11.2-11.44,10.58-22.09-.47-8.09-5.71-15.79-15.57-22.89-8.5-6.12-11.76-15.54-8.95-25.85,3.07-11.26,12.75-22.34,27.27-31.17,16.63-10.13,38.65-16.7,63.67-19.01,43.64-4.02,72.37-.04,85.39,11.83,7.6,6.93,8.48,15.08,8.48,20.6,0,13.54-2.14,22.47-3.85,29.64-1.86,7.78-3.33,13.92-1.17,22.26,1.2,4.63,3.64,8.97,6.22,13.57,5.14,9.17,10.98,19.56,10.87,37.17-.02,3.66-1.56,7-4.56,9.93-14.68,14.28-62.24,17.2-105.42,17.2ZM125.87,25.77c-9.06,0-19.1.51-30.11,1.52-24.79,2.28-46.58,8.78-63.01,18.79-14.18,8.63-23.61,19.38-26.58,30.26-2.67,9.8.3,18.39,8.36,24.19,10.26,7.38,15.71,15.48,16.21,24.06.66,11.3-7.53,20.07-11.09,23.32-3.04,2.77-5.07,9.05-2.35,16.27,2.38,6.33,11.81,21.14,47.96,21.91,27.52.59,111.28,2.39,130.64-16.45,2.7-2.62,4.07-5.59,4.09-8.83.1-17.2-5.62-27.4-10.67-36.4-2.63-4.69-5.12-9.12-6.37-13.94-2.26-8.71-.75-15.02,1.16-23.01,1.7-7.1,3.81-15.93,3.81-29.28,0-5.23-.83-12.94-7.97-19.46-9.45-8.62-27.59-12.95-54.09-12.95Z" />
    <path class="cls-2"
      d="M126,49.78l-.85-.66c.7-.4,1.18-1.15,1.18-2.02v-5.19c0-.72-.33-1.4-.9-1.84l-.17-.13c.76-.38,1.29-1.17,1.29-2.08v-5.33c0-.72-.33-1.4-.9-1.84l-1.46-1.13c-.41-.31-.9-.48-1.41-.48h-11.03c-1.25,0-2.26.99-2.31,2.22-.05-.03-.11-.07-.17-.1-.34-.34-.68-.63-1.03-.87-1.4-.95-3.22-1.41-5.58-1.41-3.17,0-5.59,1.11-7.13,3.15-.11-.55-.4-1.04-.85-1.39l-1.46-1.13c-.41-.31-.9-.48-1.41-.48h-9.36c-1.18,0-2.18.89-2.31,2.07l-.15,1.42c-.48-.55-1.06-1.02-1.72-1.4-1.53-1.55-3.79-2.33-6.73-2.33-1.07,0-2.05.13-2.94.39v-15.78h.96c1.28,0,2.32-1.04,2.32-2.32v-5.3c0-.72-.33-1.4-.9-1.84l-1.46-1.13c-.41-.31-.9-.48-1.42-.48h-12.07c-.96,0-1.79.59-2.14,1.42-1.48-1.1-3.47-1.67-5.95-1.67-2.74,0-4.91.85-6.45,2.54-.22.24-.42.49-.6.76-.37-.33-.76-.64-1.19-.9-1.6-1.59-3.82-2.4-6.6-2.4s-5.12.86-6.73,2.54c-.84.88-1.56,1.72-1.86,3.21s-1.45.66-1.45-.17v-1.88c0-.72-.33-1.4-.9-1.84l-1.46-1.13c-.41-.31-.9-.48-1.42-.48h-5.52c-1.28,0-2.32,1.04-2.32,2.32v24.45c0,.4.11.78.3,1.13-.19.33-.3.72-.3,1.13v24.45c0,.72.33,1.4.9,1.84l1.46,1.13c.41.31.9.48,1.42.48h4.98c.65,0,1.24-.27,1.66-.7l.28.22c.41.31.9.48,1.42.48h4.95c.6,0,1.16-.23,1.58-.62l.18.14c.41.31.9.48,1.42.48h5.05c.45,0,.87-.13,1.22-.36.37.23.79.36,1.22.36h11.39c1,0,1.84-.63,2.17-1.51,1.53,1.17,3.61,1.76,6.2,1.76,2.03,0,3.72-.43,5.04-1.29.75-.49,1.39-1.07,1.91-1.75.28.23.59.44.92.63,1.57,1.59,3.9,2.4,6.94,2.4,2.03,0,3.72-.43,5.04-1.29.06-.04.11-.09.17-.12l.89.68c.41.31.9.48,1.41.48h5.36c.8,0,1.51-.41,1.93-1.03l.71.55c.41.31.9.48,1.42.48h5.22c.66,0,1.28-.28,1.72-.77.21-.24.37-.52.47-.81,1.35,1.2,3.12,1.83,5.19,1.83,1.43,0,2.72-.32,3.82-.95.43.44,1.02.7,1.66.7h2.21c.41,0,.79-.11,1.12-.3.35.19.74.3,1.14.3h11.39c1.28,0,2.32-1.04,2.32-2.32v-5.38c0-.72-.33-1.4-.9-1.84Z" />
    <path class="cls-4"
      d="M15.19,57v-24.45h8.4l2.32,14.58,2.3-14.58h8.48v24.45h-5.05v-16.85l-3.17,16.85h-4.95l-3.35-16.88v16.88h-4.98Z" />
    <path class="cls-4" d="M39.14,57v-24.45h11.03v5.33h-5.42v4.04h5.2v5.19h-5.2v4.51h5.78v5.38h-11.39Z" />
    <path class="cls-4"
      d="M58.9,57.25c-2.52,0-4.33-.63-5.45-1.88-1.11-1.25-1.67-3.25-1.67-5.99v-.89h5.45v1.65c0,.64.1,1.14.29,1.5.19.36.53.54,1.01.54s.85-.13,1.04-.4c.19-.27.29-.66.29-1.17,0-.68-.23-1.25-.68-1.72s-1.2-1.11-2.25-1.91l-2.38-1.85c-1.01-.78-1.73-1.65-2.15-2.6-.42-.95-.63-2.11-.63-3.46,0-2.12.55-3.78,1.64-4.97,1.09-1.19,2.67-1.79,4.74-1.79,2.53,0,4.32.66,5.38,1.97s1.59,3.25,1.59,5.8h-5.6v-1.35c0-.9-.42-1.35-1.25-1.35-.42,0-.73.12-.92.37-.2.25-.3.56-.3.95s.09.75.27,1.09c.18.34.61.78,1.28,1.32l3.18,2.59c1.16.94,2.04,1.93,2.63,2.96.6,1.03.89,2.38.89,4.03,0,1.15-.21,2.23-.62,3.23-.41,1-1.09,1.81-2.03,2.42-.94.61-2.2.92-3.78.92Z" />
    <path class="cls-4"
      d="M73.71,57.25c-2.52,0-4.33-.63-5.45-1.88-1.11-1.25-1.67-3.25-1.67-5.99v-.89h5.45v1.65c0,.64.1,1.14.29,1.5.19.36.53.54,1.01.54s.85-.13,1.04-.4c.19-.27.29-.66.29-1.17,0-.68-.23-1.25-.68-1.72s-1.2-1.11-2.25-1.91l-2.38-1.85c-1.01-.78-1.73-1.65-2.15-2.6-.42-.95-.63-2.11-.63-3.46,0-2.12.55-3.78,1.64-4.97,1.09-1.19,2.67-1.79,4.74-1.79,2.53,0,4.32.66,5.38,1.97s1.59,3.25,1.59,5.8h-5.6v-1.35c0-.9-.42-1.35-1.25-1.35-.42,0-.73.12-.92.37-.2.25-.3.56-.3.95s.09.75.27,1.09c.18.34.61.78,1.28,1.32l3.18,2.59c1.16.94,2.04,1.93,2.63,2.96.6,1.03.89,2.38.89,4.03,0,1.15-.21,2.23-.62,3.23-.41,1-1.09,1.81-2.03,2.42-.94.61-2.2.92-3.78.92Z" />
    <path class="cls-4"
      d="M81.22,57l2.66-24.45h9.36l2.62,24.45h-5.22l-.36-4.45h-3.39l-.31,4.45h-5.36ZM88.36,36.93l-1.02,11.21h2.41l-1.14-11.21h-.25Z" />
    <path class="cls-4"
      d="M103.24,57.25c-3.94,0-5.91-2.82-5.91-8.46v-8.67c0-5.15,2.26-7.73,6.77-7.73,1.86,0,3.29.34,4.28,1.01.99.67,1.68,1.64,2.05,2.89.38,1.25.56,2.76.56,4.53h-5.39v-1.25c0-.6-.08-1.09-.24-1.5-.16-.4-.5-.6-1.01-.6-.64,0-1.06.21-1.26.64-.2.43-.31.9-.31,1.41v10.14c0,.74.1,1.35.29,1.81.19.46.57.7,1.14.7s.97-.23,1.17-.7c.19-.46.29-1.08.29-1.84v-1.97h-1.47v-4.76h6.74v14.11h-2.21l-.94-2.32c-.96,1.71-2.48,2.57-4.55,2.57Z" />
    <path class="cls-4" d="M113.19,57v-24.45h11.03v5.33h-5.42v4.04h5.2v5.19h-5.2v4.51h5.78v5.38h-11.39Z" />
    <path class="cls-4" d="M15.19,30.29V5.84h5.52v19.75h5.67v4.7h-11.19Z" />
    <path class="cls-4"
      d="M34.53,30.54c-2.26,0-3.95-.68-5.09-2.04-1.14-1.36-1.71-3.27-1.71-5.73v-9.97c0-2.37.58-4.17,1.75-5.38,1.17-1.22,2.85-1.83,5.05-1.83s3.9.61,5.06,1.83c1.16,1.22,1.74,3.01,1.74,5.38v9.97c0,2.46-.57,4.36-1.71,5.73-1.14,1.36-2.84,2.04-5.09,2.04ZM34.58,25.62c.52,0,.86-.24,1.02-.71.16-.48.24-1.05.24-1.72v-10.64c0-.49-.07-.95-.2-1.39-.14-.43-.48-.65-1.02-.65s-.9.2-1.09.6c-.19.4-.29.9-.29,1.48v10.63c0,.72.08,1.3.25,1.74.17.44.53.66,1.1.66Z" />
    <path class="cls-4"
      d="M50.11,30.54c-2.52,0-4.33-.63-5.45-1.88-1.11-1.25-1.67-3.25-1.67-5.99v-.89h5.45v1.65c0,.64.1,1.14.29,1.5.19.36.53.54,1.01.54s.85-.13,1.04-.4c.19-.27.29-.66.29-1.17,0-.68-.23-1.25-.68-1.72-.45-.47-1.2-1.11-2.25-1.91l-2.38-1.85c-1.01-.78-1.73-1.65-2.15-2.6-.42-.95-.63-2.11-.63-3.46,0-2.12.55-3.78,1.64-4.97,1.09-1.19,2.67-1.79,4.74-1.79,2.53,0,4.32.66,5.38,1.97s1.59,3.25,1.59,5.8h-5.6v-1.35c0-.9-.42-1.35-1.25-1.35-.42,0-.73.12-.92.37-.2.25-.3.56-.3.95s.09.75.27,1.09c.18.34.61.78,1.28,1.32l3.18,2.59c1.16.94,2.04,1.93,2.63,2.96.6,1.03.89,2.38.89,4.03,0,1.15-.21,2.23-.62,3.23-.41,1-1.09,1.81-2.03,2.42-.94.61-2.2.92-3.78.92Z" />
    <path class="cls-4" d="M60.73,30.29V11.14h-3.28v-5.3h12.07v5.3h-3.28v19.15h-5.52Z" />
    <path class="cls-1"
      d="M13.73,55.87v-24.45h8.4l2.32,14.58,2.3-14.58h8.48v24.45h-5.05v-16.85l-3.17,16.85h-4.95l-3.35-16.88v16.88h-4.98Z" />
    <path class="cls-1" d="M37.67,55.87v-24.45h11.03v5.33h-5.42v4.04h5.2v5.19h-5.2v4.51h5.78v5.38h-11.39Z" />
    <path class="cls-1"
      d="M57.44,56.12c-2.52,0-4.33-.63-5.45-1.88-1.11-1.25-1.67-3.25-1.67-5.99v-.89h5.45v1.65c0,.64.1,1.14.29,1.5.19.36.53.54,1.01.54s.85-.13,1.04-.4c.19-.27.29-.66.29-1.17,0-.68-.23-1.25-.68-1.72-.45-.47-1.2-1.11-2.25-1.91l-2.38-1.85c-1.01-.78-1.73-1.65-2.15-2.6-.42-.95-.63-2.11-.63-3.46,0-2.12.55-3.78,1.64-4.97,1.09-1.19,2.67-1.79,4.74-1.79,2.53,0,4.32.66,5.38,1.97s1.59,3.25,1.59,5.8h-5.6v-1.35c0-.9-.42-1.35-1.25-1.35-.42,0-.73.12-.92.37-.2.25-.3.56-.3.95s.09.75.27,1.09c.18.34.61.78,1.28,1.32l3.18,2.59c1.16.94,2.04,1.93,2.63,2.96.6,1.03.89,2.38.89,4.03,0,1.15-.21,2.23-.62,3.23-.41,1-1.09,1.81-2.03,2.42-.94.61-2.2.92-3.78.92Z" />
    <path class="cls-1"
      d="M72.25,56.12c-2.52,0-4.33-.63-5.45-1.88-1.11-1.25-1.67-3.25-1.67-5.99v-.89h5.45v1.65c0,.64.1,1.14.29,1.5.19.36.53.54,1.01.54s.85-.13,1.04-.4c.19-.27.29-.66.29-1.17,0-.68-.23-1.25-.68-1.72s-1.2-1.11-2.25-1.91l-2.38-1.85c-1.01-.78-1.73-1.65-2.15-2.6-.42-.95-.63-2.11-.63-3.46,0-2.12.55-3.78,1.64-4.97,1.09-1.19,2.67-1.79,4.74-1.79,2.53,0,4.32.66,5.38,1.97s1.59,3.25,1.59,5.8h-5.6v-1.35c0-.9-.42-1.35-1.25-1.35-.42,0-.73.12-.92.37-.2.25-.3.56-.3.95s.09.75.27,1.09c.18.34.61.78,1.28,1.32l3.18,2.59c1.16.94,2.04,1.93,2.63,2.96.6,1.03.89,2.38.89,4.03,0,1.15-.21,2.23-.62,3.23-.41,1-1.09,1.81-2.03,2.42-.94.61-2.2.92-3.78.92Z" />
    <path class="cls-1"
      d="M79.75,55.87l2.66-24.45h9.36l2.62,24.45h-5.22l-.36-4.45h-3.39l-.31,4.45h-5.36ZM86.9,35.81l-1.02,11.21h2.41l-1.14-11.21h-.25Z" />
    <path class="cls-1"
      d="M101.77,56.12c-3.94,0-5.91-2.82-5.91-8.46v-8.67c0-5.15,2.26-7.73,6.77-7.73,1.86,0,3.29.34,4.28,1.01.99.67,1.68,1.64,2.05,2.89.38,1.25.56,2.76.56,4.53h-5.39v-1.25c0-.6-.08-1.09-.24-1.5-.16-.4-.5-.6-1.01-.6-.64,0-1.06.21-1.26.64-.2.43-.31.9-.31,1.41v10.14c0,.74.1,1.35.29,1.81.19.46.57.7,1.14.7s.97-.23,1.17-.7c.19-.46.29-1.08.29-1.84v-1.97h-1.47v-4.76h6.74v14.11h-2.21l-.94-2.32c-.96,1.71-2.48,2.57-4.55,2.57Z" />
    <path class="cls-1" d="M111.73,55.87v-24.45h11.03v5.33h-5.42v4.04h5.2v5.19h-5.2v4.51h5.78v5.38h-11.39Z" />
    <path class="cls-1" d="M13.73,29.16V4.72h5.52v19.75h5.67v4.7h-11.19Z" />
    <path class="cls-1"
      d="M33.07,29.42c-2.26,0-3.95-.68-5.09-2.04-1.14-1.36-1.71-3.27-1.71-5.73v-9.97c0-2.37.58-4.17,1.75-5.38,1.17-1.22,2.85-1.83,5.05-1.83s3.9.61,5.06,1.83c1.16,1.22,1.74,3.01,1.74,5.38v9.97c0,2.46-.57,4.36-1.71,5.73-1.14,1.36-2.84,2.04-5.09,2.04ZM33.11,24.49c.52,0,.86-.24,1.02-.71.16-.48.24-1.05.24-1.72v-10.64c0-.49-.07-.95-.2-1.39-.14-.43-.48-.65-1.02-.65s-.9.2-1.09.6c-.19.4-.29.9-.29,1.48v10.63c0,.72.08,1.3.25,1.74.17.44.53.66,1.1.66Z" />
    <path class="cls-1"
      d="M48.64,29.42c-2.52,0-4.33-.63-5.45-1.88-1.11-1.25-1.67-3.25-1.67-5.99v-.89h5.45v1.65c0,.64.1,1.14.29,1.5.19.36.53.54,1.01.54s.85-.13,1.04-.4c.19-.27.29-.66.29-1.17,0-.68-.23-1.25-.68-1.72-.45-.47-1.2-1.11-2.25-1.91l-2.38-1.85c-1.01-.78-1.73-1.65-2.15-2.6-.42-.95-.63-2.11-.63-3.46,0-2.12.55-3.78,1.64-4.97,1.09-1.19,2.67-1.79,4.74-1.79,2.53,0,4.32.66,5.38,1.97s1.59,3.25,1.59,5.8h-5.6v-1.35c0-.9-.42-1.35-1.25-1.35-.42,0-.73.12-.92.37-.2.25-.3.56-.3.95s.09.75.27,1.09c.18.34.61.78,1.28,1.32l3.18,2.59c1.16.94,2.04,1.93,2.63,2.96.6,1.03.89,2.38.89,4.03,0,1.15-.21,2.23-.62,3.23-.41,1-1.09,1.81-2.03,2.42-.94.61-2.2.92-3.78.92Z" />
    <path class="cls-1" d="M59.27,29.16V10.01h-3.28v-5.3h12.07v5.3h-3.28v19.15h-5.52Z" />
    <path class="cls-4"
      d="M35.65,56.29h-5.88v-12.79l-2.4,12.79h-5.64l-2.59-13.06v13.06h-5.82v-25.28h9.17l1.96,12.33,1.95-12.33h9.25v25.28ZM30.6,55.45h4.21v-23.62h-7.71l-2.66,16.82-2.68-16.82h-7.63v23.62h4.15v-16.46l.83-.08,3.29,16.54h4.26l3.1-16.51.83.08v16.43Z" />
    <path class="cls-4"
      d="M49.48,56.29h-12.23v-25.28h11.87v6.16h-5.42v3.21h5.2v6.02h-5.2v3.68h5.78v6.21ZM38.09,55.45h10.56v-4.54h-5.78v-5.35h5.2v-4.35h-5.2v-4.88h5.42v-4.5h-10.2v23.62Z" />
    <path class="cls-4"
      d="M57.44,56.54c-2.63,0-4.57-.68-5.76-2.02-1.18-1.33-1.77-3.43-1.77-6.26v-1.31h6.29v2.06c0,.57.08,1,.24,1.3.08.15.23.32.64.32.36,0,.59-.08.7-.23.14-.19.21-.5.21-.92,0-.57-.18-1.04-.56-1.43-.44-.45-1.18-1.08-2.2-1.87l-2.38-1.85c-1.06-.82-1.83-1.75-2.27-2.76-.44-1-.66-2.22-.66-3.63,0-2.22.59-3.99,1.75-5.25,1.17-1.27,2.87-1.92,5.05-1.92,2.65,0,4.57.72,5.71,2.13,1.12,1.39,1.68,3.43,1.68,6.06v.42h-6.43v-1.76c0-.77-.33-.93-.84-.93-.43,0-.56.16-.6.21-.14.17-.2.4-.2.69,0,.32.07.61.22.89.11.2.4.57,1.17,1.2l3.18,2.59c1.19.97,2.11,2,2.73,3.08.63,1.09.95,2.52.95,4.24,0,1.2-.22,2.34-.65,3.39-.44,1.08-1.18,1.96-2.19,2.61-1,.65-2.35.98-4,.98ZM50.74,47.77v.48c0,2.62.53,4.54,1.56,5.71,1.02,1.15,2.75,1.74,5.13,1.74,1.49,0,2.68-.29,3.55-.85.86-.56,1.49-1.31,1.87-2.23.39-.95.59-1.98.59-3.07,0-1.57-.28-2.85-.84-3.82-.57-.99-1.42-1.94-2.53-2.84l-3.18-2.59c-.72-.58-1.17-1.06-1.38-1.45-.22-.4-.32-.83-.32-1.29,0-.48.13-.89.39-1.21.28-.35.7-.52,1.25-.52,1.06,0,1.67.64,1.67,1.76v.93h4.76c-.05-2.24-.56-3.96-1.49-5.12-.97-1.21-2.67-1.82-5.06-1.82-1.94,0-3.43.56-4.43,1.65-1.01,1.11-1.53,2.68-1.53,4.69,0,1.29.2,2.4.59,3.3.39.88,1.07,1.7,2.02,2.44l2.38,1.85c1.07.82,1.82,1.46,2.29,1.95.53.55.8,1.23.8,2.01,0,.61-.12,1.07-.37,1.41-.27.38-.74.57-1.38.57-.8,0-1.19-.41-1.38-.76-.23-.43-.34-.98-.34-1.69v-1.23h-4.62Z" />
    <path class="cls-4"
      d="M72.25,56.54c-2.63,0-4.57-.68-5.76-2.02-1.18-1.33-1.77-3.43-1.77-6.26v-1.31h6.29v2.06c0,.57.08,1,.24,1.3.08.15.23.32.64.32.36,0,.6-.08.7-.23.14-.19.21-.51.21-.92,0-.57-.18-1.04-.56-1.43-.44-.45-1.18-1.08-2.2-1.87l-2.38-1.85c-1.06-.82-1.83-1.75-2.27-2.76-.44-1-.66-2.22-.66-3.63,0-2.22.59-3.99,1.75-5.25,1.17-1.27,2.87-1.92,5.05-1.92,2.65,0,4.57.72,5.71,2.13,1.12,1.39,1.68,3.43,1.68,6.06v.42h-6.43v-1.76c0-.77-.33-.93-.84-.93-.43,0-.56.16-.6.21-.14.17-.2.4-.2.69,0,.32.07.61.22.89.11.2.4.57,1.17,1.2l3.18,2.59c1.19.97,2.11,2,2.73,3.08.63,1.1.95,2.52.95,4.24,0,1.2-.22,2.34-.65,3.39-.44,1.08-1.18,1.96-2.19,2.61-1,.65-2.35.98-4,.98ZM65.55,47.77v.48c0,2.62.53,4.54,1.56,5.71,1.03,1.15,2.75,1.74,5.13,1.74,1.49,0,2.68-.29,3.55-.85.86-.56,1.49-1.31,1.87-2.23.39-.95.59-1.98.59-3.07,0-1.57-.28-2.85-.84-3.82-.57-.98-1.42-1.94-2.53-2.84l-3.18-2.59c-.72-.58-1.17-1.06-1.38-1.45-.21-.4-.32-.83-.32-1.29,0-.48.13-.89.39-1.21.28-.35.7-.52,1.25-.52,1.06,0,1.67.64,1.67,1.76v.93h4.76c-.05-2.24-.56-3.96-1.49-5.12-.97-1.21-2.67-1.82-5.06-1.82-1.94,0-3.43.56-4.43,1.65-1.01,1.11-1.53,2.68-1.53,4.69,0,1.29.2,2.4.59,3.3.39.88,1.07,1.7,2.02,2.44l2.38,1.85c1.07.83,1.82,1.47,2.29,1.95.53.55.8,1.23.8,2.01,0,.6-.12,1.07-.37,1.41-.28.38-.74.57-1.38.57-.8,0-1.19-.41-1.38-.76-.23-.43-.34-.98-.34-1.69v-1.23h-4.62Z" />
    <path class="cls-4"
      d="M94.86,56.29h-6.07l-.36-4.45h-2.61l-.31,4.45h-6.21l2.76-25.28h10.11l2.71,25.28ZM89.56,55.45h4.37l-2.53-23.62h-8.61l-2.57,23.62h4.51l.31-4.45h4.16l.36,4.45ZM88.76,47.43h-3.33l1.09-12.04h1.01l1.23,12.04ZM86.34,46.6h1.49l-.79-7.75-.7,7.75Z" />
    <path class="cls-4"
      d="M101.77,56.54c-4.2,0-6.33-2.99-6.33-8.88v-8.67c0-5.4,2.42-8.14,7.19-8.14,1.94,0,3.45.36,4.51,1.08,1.07.73,1.82,1.78,2.22,3.12.39,1.29.58,2.85.58,4.65v.42h-6.23v-1.67c0-.54-.07-.99-.21-1.34-.07-.17-.2-.34-.62-.34-.62,0-.8.23-.89.41-.18.37-.26.78-.26,1.23v10.14c0,.68.09,1.24.26,1.65.09.22.25.44.75.44.53,0,.7-.24.78-.44.17-.41.26-.98.26-1.68v-1.56h-1.47v-5.6h7.57v14.94h-2.91l-.75-1.84c-1.04,1.39-2.54,2.09-4.46,2.09ZM102.64,31.68c-4.28,0-6.35,2.39-6.35,7.31v8.67c0,5.41,1.8,8.05,5.49,8.05,1.92,0,3.29-.77,4.18-2.36l.43-.76,1.16,2.86h1.51v-13.27h-5.91v3.93h1.47v2.39c0,.81-.11,1.49-.32,2-.18.44-.6.95-1.55.95s-1.34-.52-1.52-.95c-.21-.51-.32-1.18-.32-1.97v-10.14c0-.57.12-1.11.34-1.59.19-.4.63-.88,1.64-.88.87,0,1.24.47,1.4.86.18.45.27,1.01.27,1.65v.84h4.55c-.03-1.54-.21-2.88-.54-3.99-.35-1.15-.98-2.05-1.89-2.67-.92-.62-2.28-.94-4.04-.94Z" />
    <path class="cls-4"
      d="M123.54,56.29h-12.23v-25.28h11.87v6.16h-5.42v3.21h5.2v6.02h-5.2v3.68h5.78v6.21ZM112.14,55.45h10.56v-4.54h-5.78v-5.35h5.2v-4.35h-5.2v-4.88h5.42v-4.5h-10.2v23.62Z" />
    <path class="cls-4"
      d="M25.33,29.58h-12.02V4.3h6.35v19.75h5.67v5.54ZM14.14,28.75h10.36v-3.87h-5.67V5.13h-4.68v23.61Z" />
    <path class="cls-4"
      d="M33.07,29.83c-2.38,0-4.2-.74-5.41-2.19-1.2-1.43-1.8-3.45-1.8-6v-9.97c0-2.47.63-4.38,1.86-5.67,1.24-1.3,3.04-1.95,5.36-1.95s4.13.66,5.36,1.95c1.23,1.29,1.85,3.2,1.85,5.67v9.97c0,2.54-.61,4.56-1.81,6-1.22,1.46-3.04,2.19-5.41,2.19ZM33.07,4.88c-2.08,0-3.68.57-4.75,1.7-1.08,1.13-1.63,2.85-1.63,5.1v9.97c0,2.34.54,4.18,1.61,5.46,1.07,1.28,2.63,1.9,4.77,1.9s3.72-.64,4.77-1.9c1.07-1.28,1.61-3.12,1.61-5.46v-9.97c0-2.25-.55-3.96-1.62-5.1-1.07-1.12-2.67-1.7-4.76-1.7ZM33.11,24.91c-.94,0-1.33-.5-1.49-.93-.18-.48-.28-1.12-.28-1.89v-10.63c0-.65.11-1.2.33-1.66.18-.38.59-.84,1.47-.84.97,0,1.31.59,1.42.94.15.47.22.98.22,1.51v10.64c0,.71-.09,1.33-.26,1.85-.21.64-.71,1-1.41,1ZM33.14,9.8c-.48,0-.63.2-.71.37-.16.34-.25.78-.25,1.3v10.63c0,.67.08,1.2.22,1.59.07.19.21.39.71.39.34,0,.52-.12.62-.43.14-.43.21-.96.21-1.59v-10.64c0-.45-.06-.87-.18-1.26-.06-.19-.17-.36-.62-.36Z" />
    <path class="cls-4"
      d="M48.64,29.83c-2.63,0-4.57-.68-5.76-2.02-1.18-1.33-1.77-3.43-1.77-6.26v-1.31h6.29v2.06c0,.56.08,1,.24,1.3.08.15.23.32.64.32.36,0,.6-.08.7-.23.14-.19.21-.5.21-.92,0-.57-.18-1.04-.56-1.43-.44-.45-1.18-1.08-2.2-1.87l-2.38-1.85c-1.06-.82-1.83-1.75-2.27-2.76-.44-1-.66-2.22-.66-3.63,0-2.22.59-3.99,1.75-5.25,1.17-1.28,2.87-1.92,5.05-1.92,2.65,0,4.57.72,5.71,2.13,1.12,1.39,1.68,3.43,1.68,6.06v.42h-6.43v-1.76c0-.77-.33-.93-.84-.93-.43,0-.56.16-.6.21-.14.17-.2.4-.2.69,0,.32.07.61.22.89.11.2.4.57,1.17,1.2l3.18,2.59c1.19.97,2.11,2,2.73,3.08.63,1.09.95,2.52.95,4.24,0,1.2-.22,2.34-.65,3.39-.44,1.08-1.18,1.96-2.19,2.61-1,.65-2.35.98-4,.98ZM41.95,21.07v.48c0,2.62.53,4.54,1.56,5.71,1.03,1.15,2.75,1.74,5.13,1.74,1.49,0,2.68-.29,3.55-.85.86-.56,1.49-1.31,1.87-2.23.39-.95.59-1.98.59-3.07,0-1.57-.28-2.85-.84-3.82-.57-.98-1.42-1.94-2.53-2.85l-3.18-2.59c-.72-.58-1.17-1.06-1.38-1.45-.22-.4-.32-.83-.32-1.29,0-.48.13-.89.39-1.21.28-.35.7-.52,1.25-.52,1.06,0,1.67.64,1.67,1.76v.93h4.76c-.06-2.24-.56-3.96-1.49-5.12-.97-1.21-2.67-1.82-5.06-1.82-1.94,0-3.43.56-4.43,1.65-1.01,1.11-1.53,2.68-1.53,4.69,0,1.3.2,2.4.59,3.3.39.88,1.07,1.7,2.02,2.44l2.38,1.85c1.07.82,1.82,1.46,2.29,1.95.53.55.8,1.23.8,2.01,0,.61-.12,1.07-.37,1.41-.28.38-.74.57-1.38.57-.8,0-1.19-.41-1.38-.76-.23-.43-.34-.98-.34-1.69v-1.23h-4.62Z" />
    <path class="cls-4"
      d="M65.2,29.58h-6.35V10.43h-3.28v-6.13h12.9v6.13h-3.28v19.15ZM59.69,28.75h4.68V9.6h3.28v-4.46h-11.23v4.46h3.28v19.15Z" />
    <path class="cls-2"
      d="M87.47,189.94c-8.6,0-10.42-.79-10.91-2.35-.06-.19-.09-.37-.09-.56l-.1-4.86c-.16-2.85,2.63-4.25,5.58-5.73,1.91-.96,4.21-2.12,6.07-3.85-3.56-2.22-16.73-3.4-28.32-3.12-.32.02-.62-.08-.88-.25l-.77.15c-.27.05-.55.08-.87.09-.12.01-.25.01-.39,0-.27-.01-.52-.04-.75-.09-.08-.01-.16-.03-.24-.06-.24-.06-.43-.12-.61-.19-.12-.05-.24-.1-.36-.15-.02,0-.07-.04-.09-.04,0,0,0,0,0,0,0,0-.04-.02-.08-.04-.11-.06-.24-.13-.37-.21-.07-.04-.14-.08-.2-.12-.04-.03-.1-.07-.15-.11-.18-.13-.38-.3-.57-.48-.06-.06-.1-.1-.14-.15-.19-.2-.35-.39-.49-.59-.05-.06-.08-.11-.11-.15-.15-.23-.29-.49-.42-.78l-.07-.17c-.14-.36-.23-.65-.28-.94l-.94-4.78c-1,1.02-2.28,1.72-3.71,2l-4.53.89c-3.4.66-6.86-.27-9.5-2.55-.65-.57-1.24-1.21-1.76-1.92l-.1-.13c-.12-.17-.23-.34-.34-.52-.08-.13-.14-.23-.21-.34-.09-.16-.18-.32-.26-.48-.08-.16-.15-.31-.22-.47-.07-.17-.14-.3-.19-.44-.08-.2-.15-.4-.22-.61l-.02-.06c-.03-.1-.07-.19-.1-.29-.1-.34-.19-.68-.26-1.03l-6.74-34.45c-1.15-5.86,2.52-11.57,8.24-13.03-1.78-16.71,11.89-23.58,24.32-27.66l1.86-8.21c.23-1.04,1.1-1.79,2.16-1.88,1.07-.07,2.05.52,2.44,1.5,0,0,0,.02.01.03-.26-4.54-.51-8.59-.56-9.06-.12-1.25.72-2.42,1.92-2.67,1.95-.43,2.64,1.23,3.08,2.33.65,1.6,1.69,4.79,3.75,11.12.02.08.05.16.08.24l.07-.91c.08-1.05.83-1.92,1.85-2.17,1.02-.25,2.08.19,2.63,1.1.11.19.23.38.35.57.13-2.64.27-5.49.38-7.72.05-1.16.93-2.12,2.08-2.28,1.15-.17,2.26.51,2.64,1.61l2.76,8,.33-3.19c.11-1.05.88-1.9,1.9-2.12,1.04-.22,2.08.25,2.61,1.16l2.08,3.63.52-2.85c.18-1,.97-1.78,1.97-1.96,1-.17,2.01.3,2.52,1.18l2.37,4.12.21-8.2c.03-1.12.81-2.07,1.91-2.31,1.1-.24,2.2.3,2.69,1.31.53,1.1,1.18,2.43,1.86,3.81-.04-3.98-.1-8.55-.16-12.36-.02-1.16.8-2.17,1.93-2.41,1.14-.24,2.29.38,2.73,1.45l4.36,10.62c.36-5.15.7-5.47,1.76-6.01.78-.39,1.72-.34,2.44.15q.76.5,3.84,8.21c.08-4.19.14-6.48.24-7.77.11-1.44.32-2.58,1.77-3.01,1.03-.3,2.11.1,2.7.98.08.12.25.38,4.76,9.02,14.12-1.3,30.75-.57,35.61,16.24,5.87-.79,11.4,3.11,12.54,8.97l6.74,34.45c.07.37.13.74.16,1.11,0,.1.01.2.02.3v.21c.02.2.03.4.03.6,0,.12,0,.24-.02.37v.26c-.02.16-.03.31-.05.47-.01.14-.04.28-.06.42l-.04.24c-.02.13-.04.27-.07.4-.04.17-.08.34-.12.51l-.05.19c-.03.11-.06.22-.09.32-.06.19-.13.39-.2.58l-.05.14c-.03.09-.07.18-.1.28-.09.22-.19.44-.3.65-.07.14-.1.21-.14.28-.12.23-.25.45-.39.68l-.13.21c-.15.23-.31.46-.48.69l-.12.15c-.18.23-.37.46-.57.68l-.09.1c-.21.22-.44.44-.67.66,0,0-.07.06-.07.06-.24.21-.49.42-.76.62-.31.23-.59.42-.89.6-.93.56-1.93.98-2.98,1.25l-.12.03c-.17.05-.34.09-.52.12l-4.53.89c-1.31.26-2.63.13-3.83-.32l.9,4.58c.2,1.04.09,2.11-.32,3.08-.13.31-.29.61-.48.89-.58.86-1.39,1.53-2.35,1.93-.33.14-.67.24-1.03.31l-.18.03-1.45.67c-.12.06-12.26,5.7-18.29,10.24-4.05,3.05-5.02,5.34-5.26,6.21,2.95,4.24,17.89,3.43,27.87,2.9,9.86-.53,15.1-.72,17.18,1.19.63.58.97,1.31,1,2.13,0,.06,0,.15,0,.24v4.12c.07,2.03-1.03,4.44-15.27,6.9-13.19,2.28-35.12,3.9-56.02,5.46-11.54.86-20.51,1.3-26.67,1.3ZM79.56,186.96h0s0,0,0,0ZM79.54,186.31c.72.21,2.7.54,7.93.54,6.08,0,14.98-.43,26.44-1.29,20.8-1.55,42.71-4.02,55.81-6.28,9.68-1.67,12.05-2.8,12.61-3.2v-3.95s0-.05,0-.07c-1.22-1.1-8.5-.71-14.92-.36-11.07.6-23.39,1.26-28.83-2.52.06.2.12.4.18.61,2.47,4.9,18.12,4.06,28.5,3.5,3.18-.17,6.18-.33,8.73-.36h.02c.79,0,1.45.59,1.54,1.37.09.79-.43,1.51-1.2,1.68-13.39,2.95-39.24,5.49-46.84,6.2-21.99,2.05-40.83,3.01-48,2.43-.69-.06-1.25-.56-1.39-1.23-.14-.67.19-1.36.8-1.68.39-.2.8-.41,1.23-.63,2.61-1.31,5.56-2.8,7.58-5.43.02-.03.05-.06.08-.09.22-.25.41-.55.57-.92-2.24,2.17-4.97,3.54-7.04,4.58-1.93.97-3.92,1.97-3.88,2.85l.09,4.26ZM92.13,177.56c-1.35,1.76-3.01,3.07-4.68,4.12,9.08-.03,24.41-.97,41.76-2.58,7.85-.73,15.27-1.53,21.94-2.34-7.34-.31-13.34-1.69-15.23-5.76-.03-.07-.06-.13-.08-.2-1.09-3.58-1.41-5.94-1.05-7.61.06-.97.3-1.92.72-2.84,1.33-2.94,4.39-5.52,7.9-7.65l-61.04,11.94c4.74.33,8.65,1.12,10.38,2.66.83.74,1.28,1.66,1.32,2.66,0,.13,0,.27-.01.4.09,3.24-.56,5.67-1.91,7.22ZM182.33,176.37h0,0ZM82.12,167.69c3.96.71,7.3,1.79,8.84,3.4,0-.25,0-.5,0-.76,0-.07,0-.14,0-.21,0-.03,0-.06,0-.09,0-.05,0-.2-.28-.45-1.08-.96-4.1-1.6-8.56-1.89ZM56.83,169.46s.03,0,.04,0c-.01,0-.03,0-.04,0ZM55.8,165.99s.06.03.09.05c.05.03.11.06.17.1.1.05.16.07.21.09.08.03.16.05.24.07,0,0,.07.02.08.02.15.03.26.04.38.05.01,0,.03,0,.05,0,.03,0,.05,0,.08,0,.14,0,.26-.01.37-.03l1.86-.36c.42-.08.86.02,1.21.27.05.03.09.07.13.11.85-.01,2.07-.02,3.54-.01-.03-.75.5-1.42,1.25-1.57l90-17.6c.79-.15,1.57.33,1.79,1.11.02.09.04.19.05.28,2.53-1.27,4.29-2.09,4.34-2.11l1.62-.75c.11-.05.23-.09.36-.11l.36-.07c.15-.03.29-.07.43-.13.39-.16.73-.44.97-.8.08-.12.15-.24.2-.37.17-.41.22-.85.13-1.28l-1.7-8.72c-.14-.74.26-1.47.97-1.74.7-.27,1.5,0,1.88.65.87,1.47,2.57,2.24,4.23,1.91l4.53-.89c.11-.02.21-.05.31-.08l.15-.04c.76-.2,1.48-.5,2.15-.9.22-.13.43-.27.63-.42.22-.16.4-.31.58-.47.22-.2.38-.36.54-.52l1.21.97-1.14-1.04c.15-.16.29-.32.42-.49,0,0,.08-.11.09-.12.11-.15.23-.31.34-.49l.1-.16c.1-.16.19-.32.28-.49l.1-.21c.08-.16.15-.32.22-.48l.09-.26c.07-.19.12-.32.16-.46.02-.06.03-.12.05-.18l.06-.23c.03-.11.06-.22.08-.34.02-.07.03-.15.04-.23l.04-.29c.01-.08.03-.16.04-.25.01-.1.01-.19.02-.28l.02-.32c0-.06,0-.12,0-.18,0-.13,0-.26-.02-.4l-.02-.4c-.02-.27-.06-.54-.12-.81l-6.74-34.45c-.86-4.4-5.14-7.29-9.55-6.42l-.8.16c-.31.06-.63.02-.91-.1-.22.22-.5.37-.8.43l-2.02.39c-1.66.32-2.95,1.68-3.2,3.36-.11.74-.74,1.3-1.49,1.32-.75.03-1.41-.51-1.55-1.25l-1.96-10.03c-.03-.14-.07-.27-.12-.41-.23-.56-.69-1-1.27-1.22-.01,0-.03,0-.04-.01h0c-.11-.04-.23-.08-.35-.1-.03,0-.08,0-.14-.01-.34-.04-.47-.03-.66.01l-106.5,20.83c-.72.14-1.32.63-1.61,1.3-.17.4-.22.85-.13,1.28l2.3,11.78s0,.05.01.07h0l2.13,10.87c.16.84-.38,1.65-1.22,1.81-.84.16-1.65-.38-1.81-1.22l-2.14-10.93c-.45-2.15-2.55-3.55-4.71-3.12l-2.02.39c-.31.06-.62.02-.91-.1-.21.21-.49.37-.8.43l-.8.16c-2.12.42-3.96,1.64-5.18,3.45-1.22,1.81-1.66,3.97-1.24,6.1l6.74,34.45c.05.25.11.5.19.74l.09.25c.05.16.1.3.16.45.04.1.09.2.13.3.06.13.11.24.17.36.06.11.12.23.19.35.04.07.09.15.14.23.09.15.17.28.26.4l.07.1c.36.5.79.97,1.27,1.38,1.92,1.66,4.43,2.34,6.88,1.86l4.53-.89c2.17-.43,3.6-2.54,3.18-4.71h0c-.16-.84.38-1.66,1.22-1.82.84-.17,1.65.38,1.81,1.22,0,0,0,.01,0,.02l2.06,10.52c.02.11.06.23.12.38l-1.38.7,1.41-.62c.06.13.11.24.17.32l.06.08c.05.06.11.14.18.22,0,0,.05.05.06.06.09.09.18.16.27.23,0,0,.02.02.03.02ZM147.33,154c-4.06,2.14-6.96,4.38-8.41,6.55.93-1.08,2.18-2.26,3.86-3.52,1.31-.98,2.88-2.01,4.55-3.03ZM37.52,105.79c.99,0,1.94.21,2.82.59l-1.19-6.1c-.2-1.04-.09-2.11.32-3.08.69-1.62,2.13-2.79,3.86-3.13l78.4-15.33c-.93-.52-1.79-2.5-4.6-9.49-.09,1.62-.17,3.19-.24,4.48-.06,1.13-.9,2.08-2.01,2.27-1.11.2-2.22-.42-2.65-1.47l-3.6-8.76c.11,9.94.02,10.17-.15,10.6-.35.89-1.2,1.49-2.17,1.53-1.42.08-1.85-.15-4.4-5.22l-.18,6.93c-.03,1.08-.78,2.02-1.83,2.29-1.06.26-2.16-.21-2.7-1.14l-3.37-5.86-.52,2.86c-.18,1-.97,1.78-1.97,1.96-1.01.17-2.01-.31-2.51-1.18l-1.65-2.88-.69,6.61c-.12,1.14-1,2.03-2.13,2.16-1.11.14-2.2-.54-2.57-1.62l-2.25-6.51c-.27,4.09-.53,4.24-1.37,4.75-.42.25-1.69,1.02-3.08-.57-.21-.24-.43-.54-.71-.95l-.45,5.78c-.09,1.15-.99,2.09-2.14,2.22-1.15.14-2.24-.57-2.59-1.67-.62-1.96-1.35-4.22-2.1-6.55.24,5.14.08,5.32-.55,6.02-.46.51-1.12.81-1.81.81-1.58,0-2.02-.43-4.54-6.48l-.47,2.08c-.19.83-.81,1.51-1.62,1.77l-.89.28c-16.08,5.21-22.43,11.72-21.46,22.23l.39-.08c.46-.09.92-.13,1.37-.13ZM152.57,73.45s.05.02.06.02c1.41.51,2.54,1.59,3.1,2.96.13.31.23.65.3.99l1.15,5.9c.94-.87,2.12-1.48,3.43-1.74l.39-.08c-3.18-10.45-12.16-14.03-30.46-12.33l-1.54.15c-1,.08-1.93-.42-2.39-1.29-.34-.65-.71-1.37-1.09-2.1-.01.55-.02,1.1-.03,1.62v.2c-.16,8.5-.19,8.81-.3,9.27-.11.44-.34.84-.66,1.15l25.29-4.95c.51-.1,1.07-.12,1.6-.05.17.02.25.03.34.04.26.05.51.11.8.22ZM92.06,68.28s0,0,0,0h0ZM64.62,66s0,.04,0,.06c0,0,0,0,.02,0,0-.02-.01-.04-.02-.05ZM64.31,61.37h0s0,0,0,0Z" />
    <polygon class="cls-6" points="116.33 120.04 91.89 125.26 90.16 116.45 114.53 110.85 116.33 120.04" />
    <path class="cls-6"
      d="M33.78,110.12c-.41,0-.78-.29-.86-.71-3.44-17.6,9.84-24.42,23.29-28.78l.42-.13,2.06-9.07c.08-.37.4-.65.78-.68.39-.03.74.19.88.54,1.18,2.9,2.46,6,3.45,8.31-.27-6.1-.94-17.17-1.03-18.08-.04-.45.26-.92.7-1.01q.94-.2,5.05,12.43c.89,2.74,1.78,5.49,2.47,7.65l.68-8.69c.03-.38.3-.7.67-.78.37-.09.75.07.95.4,1.02,1.67,2.12,3.46,2.95,4.79.18-3.16.45-8.66.64-12.68.02-.42.33-.77.75-.83.41-.06.82.18.95.58l5.04,14.6,1.05-10.13c.04-.38.32-.69.69-.77.38-.08.75.09.94.42l4.19,7.3,1.27-7.02c.07-.36.35-.64.71-.71.37-.06.73.11.91.43l5.12,8.9.35-13.7c.01-.4.3-.75.69-.83.4-.09.8.11.97.47,1.42,2.93,3.47,7.09,4.86,9.81-.02-4.54-.13-12.95-.22-19.06,0-.42.29-.79.7-.87.42-.09.83.14.99.53l6.94,16.91c.59-11.14.78-11.24,1.31-11.51.28-.14.63-.12.89.05.34.23.36.24,3.3,7.59.89,2.22,1.95,4.88,2.8,6.93.03-1.51.07-3.31.1-5.01q.22-11.66.94-11.88c.37-.11.77.04.98.36.19.29,3.48,6.58,5.15,9.81l.97-.1c15.16-1.41,31.14-.41,34.68,17.7.09.48-.22.93-.69,1.03-.48.09-.93-.22-1.03-.69-2.64-13.49-12.14-18.21-32.79-16.29l-1.55.15c-.36.03-.7-.15-.86-.47-1.19-2.29-2.75-5.28-3.88-7.43-.06,2.24-.12,5.32-.16,7.84-.13,7.2-.17,8.62-.25,8.93-.09.37-.42.65-.8.68q-.83.05-5.22-10.91c-.56-1.4-1.15-2.88-1.66-4.12-.23,3.13-.5,7.96-.66,11.34-.02.41-.32.75-.73.82-.4.07-.8-.15-.96-.53l-6.68-16.26c.24,17.65.13,17.92.06,18.11-.13.32-.44.55-.79.56-.69.04-.84.02-5.73-10.01l-.33,13.22c-.01.39-.28.73-.66.83-.38.1-.78-.07-.98-.41l-5.48-9.53-1.27,7.02c-.07.36-.35.65-.71.71-.36.06-.73-.11-.91-.43l-4.04-7.03-1.18,11.37c-.04.41-.36.73-.77.78-.4.05-.79-.2-.93-.58l-4.84-14.02c-.53,11.14-.58,11.17-1.03,11.44-.75.45-.84.51-4.18-4.97l-.82,10.43c-.03.42-.36.75-.77.8-.41.05-.81-.2-.94-.6-1.76-5.5-4.11-12.78-5.77-17.79.09,1.59.2,3.34.29,5.04.62,11.2.53,11.3.2,11.66-.17.18-.41.29-.66.29-.7,0-.87,0-4.97-10.04l-1.55,6.84c-.07.3-.29.55-.59.64l-.89.28c-18.26,5.92-24.66,13.68-22.1,26.78.09.48-.22.94-.69,1.03-.06.01-.11.02-.17.02Z" />
    <path class="cls-4"
      d="M170.17,81.76h4.61c3.07,0,5.57,2.5,5.57,5.57v43.33c0,3.07-2.5,5.57-5.57,5.57h-4.61c-5.34,0-9.68-4.34-9.68-9.68v-35.1c0-5.34,4.34-9.68,9.68-9.68Z"
      transform="translate(358.59 183.25) rotate(168.93)" />
    <path class="cls-4"
      d="M37.14,107.77h4.61c3.07,0,5.57,2.5,5.57,5.57v43.33c0,3.07-2.5,5.57-5.57,5.57h-4.61c-5.34,0-9.68-4.34-9.68-9.68v-35.1c0-5.34,4.34-9.68,9.68-9.68Z"
      transform="translate(-25.21 9.68) rotate(-11.06)" />
    <path class="cls-6"
      d="M31.92,108.33c-5.23,1.02-8.67,6.13-7.64,11.36l6.74,34.45c1.02,5.23,6.13,8.66,11.36,7.64l.16-.03-10.16-53.51-.45.09Z" />
    <path class="cls-2"
      d="M36.44,107.44l-4.53.89c-5.23,1.02-8.67,6.13-7.64,11.36l6.74,34.45c.43,2.2,1.59,4.07,3.17,5.44,0,0-8.77-37.24-7.03-43.43,1.74-6.19,8.31-8.02,9.3-8.7Z" />
    <path class="cls-6"
      d="M183.54,124.31l-6.74-34.45c-1.02-5.23-6.13-8.67-11.36-7.64h-.04s11.05,53.32,11.05,53.32c4.91-1.26,8.08-6.18,7.09-11.22Z" />
    <path class="cls-1"
      d="M183.54,124.31l-6.74-34.45c-.54-2.74,12.49,45.24-5.44,46.7l4.53-.89c5.23-1.02,8.66-6.13,7.64-11.36Z" />
    <path class="cls-1"
      d="M51.29,154.36l-8.32-42.52c-.43-2.22,9.75,49.88-2.66,50.12.67.01,1.36-.04,2.05-.17l4.53-.89c3.01-.59,4.98-3.53,4.4-6.53Z" />
    <path class="cls-4"
      d="M40.51,162.35c-4.72,0-8.94-3.34-9.88-8.14l-6.74-34.45c-.51-2.63.03-5.31,1.54-7.55,1.51-2.24,3.78-3.75,6.41-4.27l4.53-.89c3.23-.63,6.36,1.48,6.99,4.7l8.31,42.52c.63,3.22-1.48,6.36-4.7,6.99l-4.53.89c-.65.13-1.3.19-1.94.19ZM37.52,107.72c-.33,0-.66.03-1,.1l-4.53.89c-5.03.98-8.32,5.88-7.34,10.91l6.74,34.45c.98,5.03,5.88,8.32,10.91,7.34l4.53-.89c2.8-.55,4.64-3.28,4.09-6.08l-8.31-42.52c-.48-2.47-2.66-4.19-5.08-4.19Z" />
    <path class="cls-4"
      d="M170.29,137.04c-2.79,0-5.29-1.97-5.84-4.81l-8.31-42.52c-.3-1.55.02-3.14.91-4.46.89-1.32,2.24-2.22,3.79-2.52l4.53-.89c5.45-1.07,10.75,2.5,11.81,7.95l6.74,34.45c.51,2.63-.03,5.31-1.54,7.55-1.51,2.24-3.78,3.75-6.41,4.27l-4.53.89c-.38.08-.77.11-1.15.11ZM167.3,82.42c-.59,0-1.19.06-1.79.17l-4.53.89c-1.35.26-2.52,1.04-3.3,2.2-.78,1.15-1.06,2.53-.79,3.88l8.31,42.52c.55,2.8,3.27,4.64,6.08,4.09l4.53-.89c5.03-.98,8.32-5.88,7.34-10.91l-6.74-34.45c-.87-4.43-4.77-7.51-9.12-7.51Z" />
    <path class="cls-5"
      d="M150.12,74.76l-106.5,20.83c-2.03.4-3.36,2.37-2.96,4.4l12.69,64.91c.4,2.03,2.37,3.36,4.4,2.96l106.5-20.83c2.03-.4,3.36-2.37,2.96-4.4l-12.69-64.91c-.4-2.03-2.37-3.36-4.4-2.96ZM79.66,130.52c-4.32.85-8.51-1.97-9.36-6.3-.85-4.32,1.97-8.51,6.3-9.36,4.32-.85,8.51,1.97,9.36,6.3.85,4.32-1.97,8.51-6.3,9.36ZM116.75,122.22l-24.52,4.8-2.76-14.1,24.52-4.8,2.76,14.1ZM129.22,120.83c-4.32.85-8.51-1.97-9.36-6.3-.85-4.32,1.97-8.51,6.3-9.36,4.32-.85,8.51,1.97,9.36,6.3.85,4.32-1.97,8.51-6.3,9.36Z" />
    <path class="cls-1"
      d="M167.21,142.63l-12.69-64.91c-.1-.49-.29-.94-.54-1.33,0,0,11.03,65.8,9.57,66.95-1.46,1.15-109.28,23.34-109.28,23.34.85.94,2.15,1.44,3.49,1.17l106.5-20.83c2.03-.4,3.36-2.37,2.96-4.4Z" />
    <polygon class="cls-3" points="143.11 132.99 150.52 149.72 155.47 148.75 143.11 132.99" />
    <polygon class="cls-3" points="55.96 148.64 158.75 128.54 150.09 84.26 156.93 126.12 55.96 148.64" />
    <path class="cls-2"
      d="M152.69,75.2c-.75-.43-1.65-.62-2.57-.44l-106.5,20.83c-2.03.4-3.36,2.37-2.96,4.4l12.69,64.91c.25,1.28,1.13,2.28,2.26,2.74l-11-64.22,2.11-3.98,105.97-24.24Z" />
    <polygon class="cls-1" points="72.09 161.72 72.09 146.88 143.11 132.99 78.13 147.76 72.09 161.72" />
    <polygon class="cls-3" points="68.62 165.73 71.09 148.11 72.09 146.88 71.52 165.17 68.62 165.73" />
    <path class="cls-2"
      d="M144.55,82.68l-44.69,8.74-3.33.65-44.69,8.74-3.03,4.34,8.15,41.69,48.43-9.47,3.33-.65,48.43-9.47-8.15-41.69-4.45-2.88ZM79.66,130.52c-4.32.85-8.51-1.97-9.36-6.3-.85-4.32,1.97-8.51,6.3-9.36,4.32-.85,8.51,1.97,9.36,6.3.85,4.32-1.97,8.51-6.3,9.36ZM116.75,122.22l-24.52,4.8-2.76-14.1,24.52-4.8,2.76,14.1ZM129.22,120.83c-4.32.85-8.51-1.97-9.36-6.3-.85-4.32,1.97-8.51,6.3-9.36,4.32-.85,8.51,1.97,9.36,6.3.85,4.32-1.97,8.51-6.3,9.36Z" />
    <polygon class="cls-6"
      points="54.93 136.5 56.96 146.85 105.39 137.38 108.72 136.73 157.15 127.25 155.13 116.91 54.93 136.5" />
    <path class="cls-6"
      d="M115.93,118.02l4.9-.96c-.45-.76-.79-1.61-.97-2.53-.43-2.18.08-4.32,1.23-6.02l-6.76,1.32,1.6,8.18Z" />
    <path class="cls-6"
      d="M85.96,121.16c.18.92.18,1.83.05,2.71l5.4-1.06-1.6-8.18-7.26,1.42c1.71,1.14,2.98,2.93,3.41,5.11Z" />
    <polygon class="cls-6"
      points="149 85.56 144.55 82.68 99.86 91.42 96.53 92.07 51.84 100.81 48.8 105.15 49.63 109.39 149.83 89.8 149 85.56" />
    <path class="cls-6"
      d="M50.97,116.21l1.13,5.8,19.43-3.8c1.14-1.68,2.92-2.92,5.06-3.34,2.15-.42,4.26.07,5.95,1.19l7.26-1.42-.34-1.72,24.52-4.8.34,1.72,6.76-1.32c1.14-1.68,2.92-2.92,5.06-3.34,2.15-.42,4.26.07,5.95,1.19l20.19-3.95-1.13-5.8-100.19,19.59Z" />
    <path class="cls-5"
      d="M125.79,103.1l-49.63,9.71c-5.44,1.06-9.03,6.39-7.96,11.83h0c1.06,5.44,6.39,9.03,11.83,7.96l49.63-9.71c5.44-1.06,9.03-6.39,7.96-11.83h0c-1.06-5.44-6.39-9.03-11.83-7.96ZM79.66,130.52c-4.32.85-8.51-1.97-9.36-6.3-.85-4.32,1.97-8.51,6.3-9.36,4.32-.85,8.51,1.97,9.36,6.3.85,4.32-1.97,8.51-6.3,9.36ZM116.75,122.22l-24.52,4.8-2.76-14.1,24.52-4.8,2.76,14.1ZM129.22,120.83c-4.32.85-8.51-1.97-9.36-6.3-.85-4.32,1.97-8.51,6.3-9.36,4.32-.85,8.51,1.97,9.36,6.3.85,4.32-1.97,8.51-6.3,9.36Z" />
    <path class="cls-4"
      d="M57.02,168.31c-.81,0-1.61-.24-2.3-.71-.92-.62-1.54-1.55-1.75-2.64l-12.69-64.91c-.21-1.08.01-2.18.63-3.1.62-.92,1.55-1.54,2.64-1.75l106.5-20.83c1.08-.21,2.18.01,3.1.63.92.62,1.54,1.55,1.75,2.64l12.69,64.91c.21,1.08-.01,2.18-.63,3.1-.62.92-1.55,1.54-2.64,1.75l-106.5,20.83c-.27.05-.54.08-.8.08ZM150.85,75.08c-.22,0-.44.02-.65.06l-106.5,20.83c-.88.17-1.64.68-2.14,1.42-.5.75-.68,1.64-.51,2.52l12.69,64.91c.17.88.68,1.64,1.42,2.14.74.5,1.64.68,2.52.51l106.5-20.83c.88-.17,1.64-.68,2.14-1.42.5-.75.68-1.64.51-2.52l-12.69-64.91c-.17-.88-.68-1.64-1.42-2.14-.56-.38-1.21-.57-1.87-.57Z" />
    <path class="cls-4"
      d="M71.52,165.55c-.09,0-.18-.03-.25-.09-.09-.08-.14-.19-.14-.31.14-5.3.57-18.16.57-18.29,0-.18.14-.33.31-.37l35.49-6.94s.01,0,.02,0c0,0,.01,0,.02,0l35.49-6.94c.18-.04.35.06.43.22.05.12,5.28,11.86,7.41,16.72.05.11.04.23-.01.33-.06.1-.15.18-.27.2l-79.01,15.45s-.05,0-.07,0ZM72.46,147.2c-.06,1.93-.41,12.43-.55,17.49l78.06-15.27c-2.03-4.64-6.31-14.23-7.09-16l-35.12,6.87c-.07.03-.14.05-.21.04l-35.09,6.86Z" />
    <path class="cls-4"
      d="M55.96,149.02c-.08,0-.15-.02-.22-.07-.08-.06-.14-.15-.16-.25l-8.66-44.27c-.02-.1,0-.2.06-.29l3.09-4.59c.06-.08.15-.14.25-.16l95.12-18.6c.1-.02.2,0,.29.06l4.59,3.09c.08.06.14.15.16.25l8.66,44.27c.02.1,0,.2-.06.29-.06.09-.15.14-.25.16l-102.79,20.1s-.05,0-.07,0ZM47.71,104.45l8.55,43.74,102.04-19.95-8.55-43.74-4.32-2.91-94.81,18.54-2.91,4.32Z" />
    <path class="cls-2"
      d="M76.57,114.75c-4.39.86-7.25,5.11-6.39,9.5.86,4.39,5.11,7.25,9.5,6.39,4.39-.86,7.25-5.11,6.39-9.5-.86-4.39-5.11-7.25-9.5-6.39ZM83.56,122.77l1.6-.31c.04,1.13-.19,2.22-.65,3.2l-1.35-.91c-.17-.12-.41-.07-.52.1l-.82,1.22c-.12.17-.07.41.1.52l1.35.91c-.74.79-1.66,1.42-2.72,1.8l-.31-1.6c-.04-.2-.24-.34-.44-.3l-1.44.28c-.2.04-.34.24-.3.44l.31,1.6c-1.13.04-2.22-.19-3.2-.65l.91-1.35c.12-.17.07-.41-.1-.52l-1.22-.82c-.17-.12-.41-.07-.52.1l-.91,1.35c-.79-.74-1.42-1.66-1.8-2.72l1.6-.31c.2-.04.34-.24.3-.44l-.28-1.44c-.04-.2-.24-.34-.44-.3l-1.6.31c-.04-1.13.19-2.22.65-3.2l1.35.91c.17.12.41.07.52-.1l.82-1.22c.12-.17.07-.41-.1-.52l-1.35-.91c.74-.79,1.66-1.42,2.72-1.8l.31,1.6c.04.2.24.34.44.3l1.44-.28c.2-.04.34-.24.3-.44l-.31-1.6c1.13-.04,2.22.19,3.2.65l-.91,1.35c-.12.17-.07.41.1.52l1.22.82c.17.12.41.07.52-.1l.91-1.35c.79.74,1.42,1.66,1.8,2.72l-1.6.31c-.2.04-.34.24-.3.44l.28,1.44c.04.2.24.34.44.3Z" />
    <path class="cls-2"
      d="M126.13,105.06c-4.39.86-7.25,5.11-6.39,9.5.86,4.39,5.11,7.25,9.5,6.39,4.39-.86,7.25-5.11,6.39-9.5-.86-4.39-5.11-7.25-9.5-6.39ZM133.12,113.07l1.6-.31c.04,1.13-.19,2.22-.65,3.2l-1.35-.91c-.17-.12-.41-.07-.52.1l-.82,1.22c-.12.17-.07.41.1.52l1.35.91c-.74.79-1.66,1.42-2.72,1.8l-.31-1.6c-.04-.2-.24-.34-.44-.3l-1.44.28c-.2.04-.34.24-.3.44l.31,1.6c-1.13.04-2.22-.19-3.2-.65l.91-1.35c.12-.17.07-.41-.1-.52l-1.22-.82c-.17-.12-.41-.07-.52.1l-.91,1.35c-.79-.74-1.42-1.66-1.8-2.72l1.6-.31c.2-.04.34-.24.3-.44l-.28-1.44c-.04-.2-.24-.34-.44-.3l-1.6.31c-.04-1.13.19-2.22.65-3.2l1.35.91c.17.12.41.07.52-.1l.82-1.22c.12-.17.07-.41-.1-.52l-1.35-.91c.74-.79,1.66-1.42,2.72-1.8l.31,1.6c.04.2.24.34.44.3l1.44-.28c.2-.04.34-.24.3-.44l-.31-1.6c1.13-.04,2.22.19,3.2.65l-.91,1.35c-.12.17-.07.41.1.52l1.22.82c.17.12.41.07.52-.1l.91-1.35c.79.74,1.42,1.66,1.8,2.72l-1.6.31c-.2.04-.34.24-.3.44l.28,1.44c.04.2.24.34.44.3Z" />
    <path class="cls-4"
      d="M100.69,110.72l-11.22,2.19,2.76,14.1,11.35-2.22c.19-2.29.08-4.64-.39-7.01-.49-2.53-1.35-4.9-2.5-7.07Z" />
    <path class="cls-4"
      d="M114,108.12l-1.23.24c-.75,2.39-.93,5-.41,7.64.48,2.45,1.52,4.65,2.95,6.5l1.45-.28-2.76-14.1Z" />
    <path class="cls-3"
      d="M103.19,117.79c-.3-1.54-.75-3.01-1.3-4.42l-11.87,2.37,1.05,5.37,12.23-2.63c-.04-.23-.07-.46-.11-.7Z" />
    <path class="cls-3" d="M114.53,110.85l-2.38.47c-.16,1.52-.11,3.09.2,4.67.03.17.08.34.12.52l3.04-.65-.98-5.01Z" />
    <path class="cls-4"
      d="M45.78,98.86c.2,1.01-.46,1.99-1.47,2.19-1.01.2-1.99-.46-2.19-1.47-.2-1.01.46-1.99,1.47-2.19,1.01-.2,1.99.46,2.19,1.47Z" />
    <path class="cls-4"
      d="M152.66,77.96c.2,1.01-.46,1.99-1.47,2.19-1.01.2-1.99-.46-2.19-1.47-.2-1.01.46-1.99,1.47-2.19,1.01-.2,1.99.46,2.19,1.47Z" />
    <path class="cls-4"
      d="M58.49,163.89c.2,1.01-.46,1.99-1.47,2.19-1.01.2-1.99-.46-2.19-1.47-.2-1.01.46-1.99,1.47-2.19,1.01-.2,1.99.46,2.19,1.47Z" />
    <path class="cls-4"
      d="M165.38,142.99c.2,1.01-.46,1.99-1.47,2.19-1.01.2-1.99-.46-2.19-1.47-.2-1.01.46-1.99,1.47-2.19,1.01-.2,1.99.46,2.19,1.47Z" />
    <path class="cls-4"
      d="M111.59,145.27c.31,1.58-.72,3.11-2.3,3.42-1.58.31-3.11-.72-3.42-2.3-.31-1.58.72-3.11,2.3-3.42s3.11.72,3.42,2.3Z" />
    <path class="cls-4"
      d="M85.5,158.24c.31,1.58-.72,3.11-2.3,3.42-1.58.31-3.11-.72-3.42-2.3-.31-1.58.72-3.11,2.3-3.42,1.58-.31,3.11.72,3.42,2.3Z" />
    <path class="cls-4"
      d="M140.18,147.55c.31,1.58-.72,3.11-2.3,3.42-1.58.31-3.11-.72-3.42-2.3-.31-1.58.72-3.11,2.3-3.42,1.58-.31,3.11.72,3.42,2.3Z" />
    <path class="cls-4"
      d="M94.61,156.82l-1.03.2c-1.13.22-2.24-.52-2.46-1.65h0c-.22-1.13.52-2.24,1.65-2.46l1.03-.2c1.13-.22,2.24.52,2.46,1.65h0c.22,1.13-.52,2.24-1.65,2.46Z" />
    <path class="cls-4"
      d="M126.39,150.61l-1.03.2c-1.13.22-2.24-.52-2.46-1.65h0c-.22-1.13.52-2.24,1.65-2.46l1.03-.2c1.13-.22,2.24.52,2.46,1.65h0c.22,1.13-.52,2.24-1.65,2.46Z" />
    <path class="cls-4"
      d="M78.11,131.06c-1.65,0-3.25-.49-4.65-1.43-1.85-1.25-3.11-3.14-3.54-5.33-.43-2.19.02-4.42,1.27-6.27,1.25-1.85,3.14-3.11,5.33-3.54,2.19-.43,4.42.02,6.27,1.27,1.85,1.25,3.11,3.14,3.54,5.33.43,2.19-.02,4.42-1.27,6.27-1.25,1.85-3.14,3.11-5.33,3.54-.54.11-1.08.16-1.62.16ZM78.14,115.1c-.49,0-.98.05-1.47.14-1.99.39-3.71,1.53-4.84,3.21-1.13,1.68-1.54,3.7-1.15,5.69.39,1.99,1.53,3.71,3.21,4.84,1.68,1.13,3.7,1.54,5.69,1.15,1.99-.39,3.71-1.53,4.84-3.21,1.13-1.68,1.54-3.7,1.15-5.69-.39-1.99-1.53-3.71-3.21-4.84-1.27-.85-2.73-1.29-4.22-1.29Z" />
    <path class="cls-4"
      d="M127.67,121.37c-1.65,0-3.25-.49-4.65-1.43-1.85-1.25-3.11-3.14-3.54-5.33-.43-2.19.02-4.42,1.27-6.27,1.25-1.85,3.14-3.11,5.33-3.54,2.19-.43,4.42.02,6.27,1.27,1.85,1.25,3.11,3.14,3.54,5.33.43,2.19-.02,4.42-1.27,6.27-1.25,1.85-3.14,3.11-5.33,3.54-.54.11-1.08.16-1.62.16ZM127.7,105.41c-.49,0-.98.05-1.47.14-4.11.8-6.8,4.8-5.99,8.91.39,1.99,1.53,3.71,3.21,4.84,1.68,1.13,3.7,1.54,5.69,1.15,1.99-.39,3.71-1.53,4.84-3.21,1.13-1.68,1.54-3.7,1.15-5.69h0c-.39-1.99-1.53-3.71-3.21-4.84-1.27-.85-2.73-1.29-4.22-1.29Z" />
    <path class="cls-4"
      d="M92.23,127.4c-.18,0-.34-.13-.38-.31l-2.76-14.1c-.02-.1,0-.2.06-.29.06-.08.15-.14.25-.16l24.53-4.8c.1-.02.2,0,.29.06.09.06.14.15.16.25l2.76,14.1c.04.21-.1.41-.3.45l-24.52,4.8s-.05,0-.07,0ZM89.93,113.22l2.61,13.34,23.77-4.65-2.61-13.34-23.77,4.65Z" />
    <path class="cls-1"
      d="M90.58,172.43c-2.95-5.63-30.94-4.95-30.94-4.95l2.6-.51s29.64-2.51,29.83,3.03c.01.37-.11.78-.38,1.23l-1.11,1.19Z" />
    <path class="cls-4"
      d="M90.5,173.1l-.25-.48c-2.8-5.36-30.32-4.75-30.59-4.74l-.08-.77,2.6-.51c1.06-.09,25.06-2.08,29.51,1.87.5.44.76.96.78,1.52.02.46-.13.94-.44,1.45l-.05.06-1.48,1.59ZM66.11,167.1c8.22.16,21.63,1,24.53,4.7l.75-.8c.21-.36.32-.69.31-.99-.01-.35-.18-.67-.52-.97-3.18-2.82-17.95-2.35-25.06-1.94Z" />
    <path class="cls-1"
      d="M137.32,166.11s-.14-3.49,6.12-8.2c6.26-4.71,18.65-10.46,18.65-10.46l-2.95.58s-26.57,7.86-21.82,18.08h0Z" />
    <path class="cls-4"
      d="M137.78,168.02l-.81-1.75c-.8-1.73-.81-3.51,0-5.28,3.51-7.77,21.31-13.11,22.07-13.33l6.12-1.2-2.89,1.34c-.12.06-12.43,5.79-18.58,10.42-6.03,4.53-5.97,7.84-5.97,7.87l.07,1.92ZM159.21,148.41c-.31.09-18.19,5.49-21.54,12.9-.5,1.11-.65,2.22-.43,3.32.53-1.51,1.99-4.04,5.97-7.03,4.43-3.33,11.97-7.21,16-9.19Z" />
    <path class="cls-4"
      d="M90.94,176.57c-3.24,4.23-8.61,5.76-11.17,7.57l-1.32-1.45c-1.23-3.87,8.27-4.3,12.81-10.79.15-.21,1.03-.67,1.22-2.07.12,2.27-.08,5.1-1.54,6.74Z" />
    <path class="cls-4"
      d="M183.44,171.99c-.19-5.41-41.37,4.34-46.12-5.88l-.94-2.95c-.47,1.44-.09,3.8.94,7.19,4.75,10.22,45.93.47,46.12,5.88v-4.23Z" />
    <path class="cls-1"
      d="M183.44,176.29c.19,5.41-103.72,14.7-104.99,10.7l-.11-4.92c.03.11.02.79.44.92,6.53,3.2,104.84-5.74,104.66-11v4.3Z" />
    <path class="cls-5" d="M101.05,183.2l.34,4.28c1.69-.09,3.45-.2,5.25-.31l-.08-4.29c-1.89.12-3.74.23-5.51.32Z" />
    <path class="cls-5" d="M110.85,182.59l.16,4.29c1.95-.14,3.95-.29,5.97-.44l.1-4.3c-2.11.17-4.2.32-6.23.46Z" />
    <path class="cls-5"
      d="M97.16,183.39c-1.74.08-3.4.14-4.96.18-2.01.06-3.85.09-5.48.09l.3,4.3c1.63,0,3.47-.03,5.46-.09,1.59-.05,3.29-.11,5.07-.19l-.4-4.28Z" />
    <path class="cls-4" d="M92.02,171.44l-.66-.4c.23-.37.34-.72.33-1.02l.77-.03c.02.46-.13.95-.44,1.45Z" />
    <path class="cls-4"
      d="M87.37,188.35c-5.35,0-9-.34-9.29-1.24-.01-.04-.02-.07-.02-.11l-.11-4.92c0-.19.13-.36.32-.39.19-.03.37.08.43.26.01.03.02.1.03.19.04.39.12.47.15.48,2.81,1.37,24.3.52,51.14-2,28.39-2.67,49.04-5.89,52.6-8.19.39-.25.42-.39.42-.42v-.02c0-.21.17-.38.38-.39.2,0,.39.16.39.37,0,.02,0,.03,0,.05v4.25c.02.62.02,2.07-13.87,4.47-13.15,2.27-35.11,4.74-55.95,6.29-9.19.69-19.44,1.3-26.64,1.3ZM78.84,186.89c1.06,1.14,17.58,1.01,46.31-1.53,22.33-1.97,48.27-5.19,55.9-7.92,2-.72,2.01-1.14,2.01-1.14h0v-3.23s0,0,0,0c-4.44,2.88-31.3,6.28-52.94,8.31-22.11,2.08-47.4,3.58-51.35,2.01l.08,3.49Z" />
    <path class="cls-4"
      d="M87.37,184.05c-5.35,0-9-.34-9.29-1.24-.72-2.28,1.61-3.46,4.57-4.95,2.92-1.47,6.56-3.3,8.71-6.83.23-.37.34-.72.33-1.02-.01-.35-.18-.67-.52-.97-4.2-3.73-28.64-1.71-28.89-1.68l-.06-.77c1.02-.09,25.02-2.07,29.47,1.88.5.44.76.96.78,1.52.02.46-.13.94-.44,1.45-2.26,3.71-6.01,5.6-9.02,7.11-3.01,1.51-4.69,2.45-4.19,4.02.9,1.16,17.44,1.04,46.32-1.51,22.33-1.97,48.27-5.19,55.9-7.92,2-.72,2.01-1.14,2.01-1.14,0-.18-.08-.32-.23-.46-1.44-1.32-8.25-.96-15.45-.57-12.27.66-27.53,1.48-30.4-4.7-.8-1.73-.81-3.51,0-5.28,3.51-7.77,21.31-13.11,22.07-13.33l.22.74c-.18.05-18.22,5.46-21.58,12.91-.7,1.56-.7,3.12,0,4.63,2.65,5.71,17.63,4.91,29.66,4.26,8.01-.43,14.33-.77,16.02.77.31.28.47.62.48,1,.02.62.07,2.07-13.87,4.48-13.15,2.27-35.11,4.74-55.95,6.29-9.19.69-19.44,1.3-26.64,1.3Z" />
    <path class="cls-1"
      d="M90.58,172.43c-2.95-5.63-30.94-4.95-30.94-4.95l2.6-.51s29.64-2.51,29.83,3.03c.01.37-.11.78-.38,1.23l-1.11,1.19Z" />
    <path class="cls-4"
      d="M90.5,173.1l-.25-.48c-2.8-5.36-30.32-4.75-30.59-4.74l-.08-.77,2.6-.51c1.06-.09,25.06-2.08,29.51,1.87.5.44.76.96.78,1.52.02.46-.13.94-.44,1.45l-.05.06-1.48,1.59ZM66.11,167.1c8.22.16,21.63,1,24.53,4.7l.75-.8c.21-.36.32-.69.31-.99-.01-.35-.18-.67-.52-.97-3.18-2.82-17.95-2.35-25.06-1.94Z" />
    <path class="cls-1"
      d="M137.32,166.11s-.14-3.49,6.12-8.2c6.26-4.71,18.65-10.46,18.65-10.46l-2.95.58s-26.57,7.86-21.82,18.08h0Z" />
    <path class="cls-4"
      d="M137.78,168.02l-.81-1.75c-.8-1.73-.81-3.51,0-5.28,3.51-7.77,21.31-13.11,22.07-13.33l6.12-1.2-2.89,1.34c-.12.06-12.43,5.79-18.58,10.42-6.03,4.53-5.97,7.84-5.97,7.87l.07,1.92ZM159.21,148.41c-.31.09-18.19,5.49-21.54,12.9-.5,1.11-.65,2.22-.43,3.32.53-1.51,1.99-4.04,5.97-7.03,4.43-3.33,11.97-7.21,16-9.19Z" />
    <path class="cls-4"
      d="M90.94,176.57c-3.24,4.23-8.61,5.76-11.17,7.57l-1.32-1.45c-1.23-3.87,8.27-4.3,12.81-10.79.15-.21,1.03-.67,1.22-2.07.12,2.27-.08,5.1-1.54,6.74Z" />
    <path class="cls-4"
      d="M183.44,171.99c-.19-5.41-41.37,4.34-46.12-5.88l-.94-2.95c-.47,1.44-.09,3.8.94,7.19,4.75,10.22,45.93.47,46.12,5.88v-4.23Z" />
    <path class="cls-1"
      d="M183.44,176.29c.19,5.41-103.72,14.7-104.99,10.7l-.11-4.92c.03.11.02.79.44.92,6.53,3.2,104.84-5.74,104.66-11v4.3Z" />
    <path class="cls-5" d="M101.05,183.2l.34,4.28c1.69-.09,3.45-.2,5.25-.31l-.08-4.29c-1.89.12-3.74.23-5.51.32Z" />
    <path class="cls-5" d="M110.85,182.59l.16,4.29c1.95-.14,3.95-.29,5.97-.44l.1-4.3c-2.11.17-4.2.32-6.23.46Z" />
    <path class="cls-5"
      d="M97.16,183.39c-1.74.08-3.4.14-4.96.18-2.01.06-3.85.09-5.48.09l.3,4.3c1.63,0,3.47-.03,5.46-.09,1.59-.05,3.29-.11,5.07-.19l-.4-4.28Z" />
    <path class="cls-4" d="M92.02,171.44l-.66-.4c.23-.37.34-.72.33-1.02l.77-.03c.02.46-.13.95-.44,1.45Z" />
    <path class="cls-4"
      d="M87.37,188.35c-5.35,0-9-.34-9.29-1.24-.01-.04-.02-.07-.02-.11l-.11-4.92c0-.19.13-.36.32-.39.19-.03.37.08.43.26.01.03.02.1.03.19.04.39.12.47.15.48,2.81,1.37,24.3.52,51.14-2,28.39-2.67,49.04-5.89,52.6-8.19.39-.25.42-.39.42-.42v-.02c0-.21.17-.38.38-.39.2,0,.39.16.39.37,0,.02,0,.03,0,.05v4.25c.02.62.02,2.07-13.87,4.47-13.15,2.27-35.11,4.74-55.95,6.29-9.19.69-19.44,1.3-26.64,1.3ZM78.84,186.89c1.06,1.14,17.58,1.01,46.31-1.53,22.33-1.97,48.27-5.19,55.9-7.92,2-.72,2.01-1.14,2.01-1.14h0v-3.23s0,0,0,0c-4.44,2.88-31.3,6.28-52.94,8.31-22.11,2.08-47.4,3.58-51.35,2.01l.08,3.49Z" />
    <path class="cls-4"
      d="M87.37,184.05c-5.35,0-9-.34-9.29-1.24-.72-2.28,1.61-3.46,4.57-4.95,2.92-1.47,6.56-3.3,8.71-6.83.23-.37.34-.72.33-1.02-.01-.35-.18-.67-.52-.97-4.2-3.73-28.64-1.71-28.89-1.68l-.06-.77c1.02-.09,25.02-2.07,29.47,1.88.5.44.76.96.78,1.52.02.46-.13.94-.44,1.45-2.26,3.71-6.01,5.6-9.02,7.11-3.01,1.51-4.69,2.45-4.19,4.02.9,1.16,17.44,1.04,46.32-1.51,22.33-1.97,48.27-5.19,55.9-7.92,2-.72,2.01-1.14,2.01-1.14,0-.18-.08-.32-.23-.46-1.44-1.32-8.25-.96-15.45-.57-12.27.66-27.53,1.48-30.4-4.7-.8-1.73-.81-3.51,0-5.28,3.51-7.77,21.31-13.11,22.07-13.33l.22.74c-.18.05-18.22,5.46-21.58,12.91-.7,1.56-.7,3.12,0,4.63,2.65,5.71,17.63,4.91,29.66,4.26,8.01-.43,14.33-.77,16.02.77.31.28.47.62.48,1,.02.62.07,2.07-13.87,4.48-13.15,2.27-35.11,4.74-55.95,6.29-9.19.69-19.44,1.3-26.64,1.3Z" />
    <path class="cls-1"
      d="M90.58,172.43c-2.95-5.63-30.94-4.95-30.94-4.95l2.6-.51s29.64-2.51,29.83,3.03c.01.37-.11.78-.38,1.23l-1.11,1.19Z" />
    <path class="cls-4"
      d="M90.5,173.1l-.25-.48c-2.8-5.36-30.32-4.75-30.59-4.74l-.08-.77,2.6-.51c1.06-.09,25.06-2.08,29.51,1.87.5.44.76.96.78,1.52.02.46-.13.94-.44,1.45l-.05.06-1.48,1.59ZM66.11,167.1c8.22.16,21.63,1,24.53,4.7l.75-.8c.21-.36.32-.69.31-.99-.01-.35-.18-.67-.52-.97-3.18-2.82-17.95-2.35-25.06-1.94Z" />
    <path class="cls-1"
      d="M137.32,166.11s-.14-3.49,6.12-8.2c6.26-4.71,18.65-10.46,18.65-10.46l-2.95.58s-26.57,7.86-21.82,18.08h0Z" />
    <path class="cls-4"
      d="M137.78,168.02l-.81-1.75c-.8-1.73-.81-3.51,0-5.28,3.51-7.77,21.31-13.11,22.07-13.33l6.12-1.2-2.89,1.34c-.12.06-12.43,5.79-18.58,10.42-6.03,4.53-5.97,7.84-5.97,7.87l.07,1.92ZM159.21,148.41c-.31.09-18.19,5.49-21.54,12.9-.5,1.11-.65,2.22-.43,3.32.53-1.51,1.99-4.04,5.97-7.03,4.43-3.33,11.97-7.21,16-9.19Z" />
    <path class="cls-4"
      d="M90.94,176.57c-3.24,4.23-8.61,5.76-11.17,7.57l-1.32-1.45c-1.23-3.87,8.27-4.3,12.81-10.79.15-.21,1.03-.67,1.22-2.07.12,2.27-.08,5.1-1.54,6.74Z" />
    <path class="cls-4"
      d="M183.44,171.99c-.19-5.41-41.37,4.34-46.12-5.88l-.94-2.95c-.47,1.44-.09,3.8.94,7.19,4.75,10.22,45.93.47,46.12,5.88v-4.23Z" />
    <path class="cls-1"
      d="M183.44,176.29c.19,5.41-103.72,14.7-104.99,10.7l-.11-4.92c.03.11.02.79.44.92,6.53,3.2,104.84-5.74,104.66-11v4.3Z" />
    <path class="cls-5" d="M101.05,183.2l.34,4.28c1.69-.09,3.45-.2,5.25-.31l-.08-4.29c-1.89.12-3.74.23-5.51.32Z" />
    <path class="cls-5" d="M110.85,182.59l.16,4.29c1.95-.14,3.95-.29,5.97-.44l.1-4.3c-2.11.17-4.2.32-6.23.46Z" />
    <path class="cls-5"
      d="M97.16,183.39c-1.74.08-3.4.14-4.96.18-2.01.06-3.85.09-5.48.09l.3,4.3c1.63,0,3.47-.03,5.46-.09,1.59-.05,3.29-.11,5.07-.19l-.4-4.28Z" />
    <path class="cls-4" d="M92.02,171.44l-.66-.4c.23-.37.34-.72.33-1.02l.77-.03c.02.46-.13.95-.44,1.45Z" />
    <path class="cls-4"
      d="M87.37,188.35c-5.35,0-9-.34-9.29-1.24-.01-.04-.02-.07-.02-.11l-.11-4.92c0-.19.13-.36.32-.39.19-.03.37.08.43.26.01.03.02.1.03.19.04.39.12.47.15.48,2.81,1.37,24.3.52,51.14-2,28.39-2.67,49.04-5.89,52.6-8.19.39-.25.42-.39.42-.42v-.02c0-.21.17-.38.38-.39.2,0,.39.16.39.37,0,.02,0,.03,0,.05v4.25c.02.62.02,2.07-13.87,4.47-13.15,2.27-35.11,4.74-55.95,6.29-9.19.69-19.44,1.3-26.64,1.3ZM78.84,186.89c1.06,1.14,17.58,1.01,46.31-1.53,22.33-1.97,48.27-5.19,55.9-7.92,2-.72,2.01-1.14,2.01-1.14h0v-3.23s0,0,0,0c-4.44,2.88-31.3,6.28-52.94,8.31-22.11,2.08-47.4,3.58-51.35,2.01l.08,3.49Z" />
    <path class="cls-4"
      d="M87.37,184.05c-5.35,0-9-.34-9.29-1.24-.72-2.28,1.61-3.46,4.57-4.95,2.92-1.47,6.56-3.3,8.71-6.83.23-.37.34-.72.33-1.02-.01-.35-.18-.67-.52-.97-4.2-3.73-28.64-1.71-28.89-1.68l-.06-.77c1.02-.09,25.02-2.07,29.47,1.88.5.44.76.96.78,1.52.02.46-.13.94-.44,1.45-2.26,3.71-6.01,5.6-9.02,7.11-3.01,1.51-4.69,2.45-4.19,4.02.9,1.16,17.44,1.04,46.32-1.51,22.33-1.97,48.27-5.19,55.9-7.92,2-.72,2.01-1.14,2.01-1.14,0-.18-.08-.32-.23-.46-1.44-1.32-8.25-.96-15.45-.57-12.27.66-27.53,1.48-30.4-4.7-.8-1.73-.81-3.51,0-5.28,3.51-7.77,21.31-13.11,22.07-13.33l.22.74c-.18.05-18.22,5.46-21.58,12.91-.7,1.56-.7,3.12,0,4.63,2.65,5.71,17.63,4.91,29.66,4.26,8.01-.43,14.33-.77,16.02.77.31.28.47.62.48,1,.02.62.07,2.07-13.87,4.48-13.15,2.27-35.11,4.74-55.95,6.29-9.19.69-19.44,1.3-26.64,1.3Z" />
    <path class="cls-6"
      d="M90.58,172.43c-2.95-5.63-30.94-4.95-30.94-4.95l2.6-.51s29.64-2.51,29.83,3.03c.01.37-.11.78-.38,1.23l-1.11,1.19Z" />
    <path class="cls-4"
      d="M90.48,173.19l-.29-.55c-2.31-4.42-22.84-4.9-30.54-4.71l-.09-.87,2.6-.51c1.07-.09,25.09-2.08,29.55,1.88.51.45.78.98.8,1.56.01.47-.14.97-.45,1.48l-.05.07-1.53,1.65ZM67.44,167.08c8.23.23,20.36,1.16,23.2,4.65l.7-.75c.21-.35.31-.67.3-.96-.01-.33-.18-.64-.51-.93-2.98-2.65-16.23-2.38-23.69-2Z" />
    <path class="cls-6"
      d="M137.32,166.11s-.14-3.49,6.12-8.2c6.26-4.71,18.65-10.46,18.65-10.46l-2.95.58s-26.57,7.86-21.82,18.08h0Z" />
    <path class="cls-4"
      d="M137.84,168.28l-.92-1.98c-.81-1.74-.81-3.53,0-5.32,3.52-7.79,21.34-13.14,22.1-13.36l6.54-1.28-3.28,1.52c-.12.06-12.42,5.78-18.57,10.41-6.01,4.52-5.95,7.8-5.95,7.83l.08,2.18ZM158.59,148.66c-3.23,1.04-17.88,6.05-20.88,12.68-.48,1.06-.63,2.09-.46,3.11.58-1.53,2.09-4,5.93-6.89,4.22-3.18,11.27-6.85,15.41-8.9Z" />
    <path class="cls-4"
      d="M90.94,176.57c-3.24,4.23-8.61,5.76-11.17,7.57l-1.32-1.45c-1.23-3.87,8.27-4.3,12.81-10.79.15-.21,1.03-.67,1.22-2.07.12,2.27-.08,5.1-1.54,6.74Z" />
    <path class="cls-4"
      d="M183.44,171.99c-.19-5.41-41.37,4.34-46.12-5.88l-.94-2.95c-.47,1.44-.09,3.8.94,7.19,4.75,10.22,45.93.47,46.12,5.88v-4.23Z" />
    <path class="cls-6"
      d="M183.44,176.29c.19,5.41-103.72,14.7-104.99,10.7l-.11-4.92c.03.11.02.79.44.92,6.53,3.2,104.84-5.74,104.66-11v4.3Z" />
    <path class="cls-5" d="M101.05,183.2l.34,4.28c1.69-.09,3.45-.2,5.25-.31l-.08-4.29c-1.89.12-3.74.23-5.51.32Z" />
    <path class="cls-5" d="M110.85,182.59l.16,4.29c1.95-.14,3.95-.29,5.97-.44l.1-4.3c-2.11.17-4.2.32-6.23.46Z" />
    <path class="cls-5"
      d="M97.16,183.39c-1.74.08-3.4.14-4.96.18-2.01.06-3.85.09-5.48.09l.3,4.3c1.63,0,3.47-.03,5.46-.09,1.59-.05,3.29-.11,5.07-.19l-.4-4.28Z" />
    <path class="cls-4" d="M92.07,171.47l-.75-.46c.22-.36.33-.7.32-.99l.88-.03c.01.47-.14.96-.45,1.48Z" />
    <path class="cls-4"
      d="M87.47,188.39c-5.42,0-9.15-.35-9.44-1.27-.01-.04-.02-.08-.02-.12l-.11-4.92c0-.22.15-.41.37-.44.22-.04.42.09.49.3.01.04.02.11.04.2.04.34.09.42.12.44,2.77,1.35,23.97.53,50.44-1.94,21.28-1.98,47.93-5.3,53.02-8.12.56-.31.62-.49.62-.51v-.02c0-.24.19-.43.43-.44.26.02.44.18.45.42,0,.02,0,.04,0,.05v4.25c.02.69.02,2.12-13.9,4.52-13.15,2.27-35.11,4.74-55.96,6.3-9.15.68-19.35,1.29-26.55,1.29ZM78.89,186.88c2.85,2.81,83.33-3.5,101.41-9.24,2.62-.83,2.7-1.33,2.7-1.34h0v-3.13c-4.68,2.87-31.36,6.25-52.89,8.27-21.98,2.07-47.1,3.56-51.3,2.04l.07,3.4Z" />
    <path class="cls-4"
      d="M87.47,184.1c-5.42,0-9.15-.35-9.44-1.27-.74-2.32,1.62-3.51,4.6-5.01,2.92-1.47,6.55-3.29,8.69-6.81.22-.36.33-.7.32-.99-.01-.33-.18-.64-.51-.93-4.18-3.71-28.6-1.69-28.85-1.67l-.07-.87c1.02-.09,25.04-2.07,29.51,1.89.51.45.78.98.8,1.56.01.47-.14.97-.45,1.48-2.27,3.73-6.02,5.62-9.04,7.13-2.98,1.5-4.65,2.42-4.16,3.96,2.51,2.85,83.31-3.47,101.43-9.22,2.62-.83,2.7-1.33,2.7-1.34,0-.16-.07-.29-.21-.42-1.43-1.31-8.22-.94-15.41-.56-12.28.66-27.56,1.48-30.45-4.73-.81-1.74-.81-3.53,0-5.32,3.52-7.79,21.34-13.14,22.1-13.36l.25.84c-.18.05-18.19,5.46-21.55,12.88-.71,1.56-.71,3.07,0,4.59,2.64,5.68,17.59,4.87,29.61,4.23,8.02-.43,14.35-.77,16.05.79.32.29.49.64.5,1.04.02.69.07,2.12-13.9,4.53-13.15,2.27-35.11,4.74-55.96,6.3-9.15.68-19.35,1.29-26.55,1.29Z" />
    <path class="cls-1"
      d="M32.85,74.81h-2.66v-6.26c0-.73-.59-1.31-1.32-1.31s-1.31.59-1.31,1.31v6.26h-2.66c-.73,0-1.32.59-1.32,1.31s.59,1.31,1.32,1.31h2.66v6.26c0,.73.59,1.32,1.31,1.32s1.32-.59,1.32-1.32v-6.26h2.66c.73,0,1.32-.59,1.32-1.31s-.59-1.31-1.32-1.31Z" />
    <path class="cls-6"
      d="M82.1,14.29h-2.66v-6.26c0-.73-.59-1.31-1.31-1.31s-1.32.59-1.32,1.31v6.26h-2.66c-.73,0-1.32.59-1.32,1.31s.59,1.31,1.32,1.31h2.66v6.26c0,.73.59,1.32,1.32,1.32s1.31-.59,1.31-1.32v-6.26h2.66c.73,0,1.32-.59,1.32-1.31s-.59-1.31-1.32-1.31Z" />
    <path class="cls-6"
      d="M19.16,127.61h-2.66v-6.26c0-.73-.59-1.31-1.32-1.31s-1.31.59-1.31,1.31v6.26h-2.66c-.73,0-1.32.59-1.32,1.32s.59,1.31,1.32,1.31h2.66v6.26c0,.73.59,1.32,1.31,1.32s1.32-.59,1.32-1.32v-6.26h2.66c.73,0,1.32-.59,1.32-1.31s-.59-1.32-1.32-1.32Z" />
    <path class="cls-1"
      d="M182.15,147.32h-2.66v-6.26c0-.73-.59-1.31-1.31-1.31s-1.32.59-1.32,1.31v6.26h-2.66c-.73,0-1.32.59-1.32,1.31s.59,1.32,1.32,1.32h2.66v6.26c0,.73.59,1.31,1.32,1.31s1.31-.59,1.31-1.31v-6.26h2.66c.73,0,1.31-.59,1.31-1.32s-.59-1.31-1.31-1.31Z" />
    <path class="cls-6"
      d="M198.55,106.92h-2.66v-6.26c0-.73-.59-1.31-1.31-1.31s-1.32.59-1.32,1.31v6.26h-2.66c-.73,0-1.32.59-1.32,1.32s.59,1.32,1.32,1.32h2.66v6.26c0,.73.59,1.31,1.32,1.31s1.31-.59,1.31-1.31v-6.26h2.66c.73,0,1.31-.59,1.31-1.32s-.59-1.32-1.31-1.32Z" />
    <path class="cls-1"
      d="M138.38,44.8h-2.66v-6.26c0-.73-.59-1.31-1.31-1.31s-1.31.59-1.31,1.31v6.26h-2.66c-.73,0-1.31.59-1.31,1.31s.59,1.31,1.31,1.31h2.66v6.26c0,.73.59,1.31,1.31,1.31s1.31-.59,1.31-1.31v-6.26h2.66c.73,0,1.31-.59,1.31-1.31s-.59-1.31-1.31-1.31Z" />
    <path class="cls-1"
      d="M41.36,173.9h-2.66v-6.26c0-.73-.59-1.32-1.32-1.32s-1.31.59-1.31,1.32v6.26h-2.66c-.73,0-1.32.59-1.32,1.31s.59,1.31,1.32,1.31h2.66v6.26c0,.73.59,1.32,1.31,1.32s1.32-.59,1.32-1.32v-6.26h2.66c.73,0,1.32-.59,1.32-1.31s-.59-1.31-1.32-1.31Z" />
    <path class="cls-6"
      d="M172.81,56.37h-2.66v-6.26c0-.73-.59-1.31-1.31-1.31s-1.31.59-1.31,1.31v6.26h-2.66c-.73,0-1.31.59-1.31,1.32s.59,1.31,1.31,1.31h2.66v6.26c0,.73.59,1.32,1.31,1.32s1.31-.59,1.31-1.32v-6.26h2.66c.73,0,1.31-.59,1.31-1.31s-.59-1.32-1.31-1.32Z" />
  </g>
</svg>