<?xml version="1.0" encoding="UTF-8"?>
<svg id="Capa_2" xmlns="http://www.w3.org/2000/svg" viewBox="0 0 191.81 208.2">
  <defs>
    <style>
      .cls-1 {
        fill: aqua;
      }

      .cls-2 {
        fill: #29abe2;
      }

      .cls-3 {
        fill: #6ff;
      }

      .cls-4 {
        fill: #fff;
      }

      .cls-5 {
        fill: #ea4c7f;
      }

      .cls-6 {
        fill: #862291;
      }

      .cls-7 {
        fill: #1b1464;
      }

      .cls-8 {
        fill: #fcee21;
      }

      .cls-9 {
        fill: #ed1e79;
      }
    </style>
  </defs>
  <g id="_0">
    <path class="cls-4"
      d="M190.8,83.6c-5.61-11-10.62-21.11-11.55-23.33-.04-.33-.09-.81-.15-1.34-.28-2.48-.77-6.79-1.51-11.16,2.46-.83,4.23-3.15,4.23-5.89v-1.63c2.27-.93,3.88-3.16,3.88-5.76s-1.61-4.84-3.88-5.76v-1.63c0-3.43-2.79-6.22-6.22-6.22s-6.22,2.79-6.22,6.22v1.63c-.45.18-.87.43-1.26.71-.68-.1-1.37-.1-2.04.05-7.99,1.75-10.76,7.66-11.04,8.33-.3.7-.46,1.44-.47,2.2-.07,5.3-.38,9.82-.59,11.01-.36.88-.79,2.15-1.26,3.65-1.14-1.43-2.9-2.36-4.87-2.36-3.43,0-6.22,2.79-6.22,6.22v1.63c-2.27.93-3.88,3.16-3.88,5.76s1.61,4.84,3.88,5.76v1.63c0,1.32.41,2.54,1.11,3.54-1.04.86-1.84,1.53-2.46,2.12-6.37-5.44-13.89-9.21-22.01-11.09,2.68-1.27,5.08-2.82,6.6-4.65.62-.73,1.12-1.53,1.47-2.36,1.38-3.22,1.23-7.22.44-11.6,2.44-.84,4.2-3.15,4.2-5.88v-1.63c2.27-.93,3.88-3.16,3.88-5.76s-1.61-4.83-3.88-5.76v-1.63c0-3.43-2.79-6.22-6.22-6.22s-6.22,2.79-6.22,6.22v1.63c-.71.29-1.35.72-1.9,1.24-1.65-.62-3.42-1.09-5.15-1.46-.14-.66-.32-1.53-.51-2.68-.48-2.87-.92-6.38-1.36-9.84-.76-6.06-1.21-9.32-1.75-11.46-1.25-5.01-4.15-6.06-6.37-6.06-.69,0-1.37.12-2.01.35-4.05,1.46-13.82,11.97-13.91,12.08-2.28,2.57-2.56,5.75-.29,24.73.01.11.03.23.04.34-1.05.71-2.79,1.83-5.66,3.56-.77.47-1.28.78-1.5.92-1.13.75-1.87,1.68-2.34,2.92-2.66-2.11-5.71-3.57-7.55-4.34,1.88-1.07,3.15-3.09,3.15-5.4v-1.63c2.27-.93,3.88-3.16,3.88-5.76s-1.61-4.84-3.88-5.76v-1.63c0-3.43-2.79-6.22-6.22-6.22-1.94,0-3.68.9-4.82,2.3-1.07-1.21-2.62-1.96-4.3-1.96-.24,0-.48.01-.71.04-1.45.18-6.39.87-9.17,2.15-5.43,2.51-4.55,9.11-3.69,15.49.16,1.22.33,2.49.37,3.17l.04.81c.14,2.41.19,3.41-2.76,7.66-3.13,4.49-9.1,16.49-10.68,23.03-1.17-.29-2.43-.51-3.52-.51-4.36,0-6.71,3.23-6.71,6.27,0,.51.06.96.14,1.55.18,1.41.6,4.68.05,9.03-1.14-1.39-2.87-2.28-4.81-2.28-3.43,0-6.22,2.79-6.22,6.22v1.63c-2.27.93-3.88,3.16-3.88,5.76s1.61,4.84,3.88,5.76v1.63c0,1.55.58,2.97,1.52,4.06C4.85,113.55-.61,121.96.05,128.56c0,.04,0,.07.01.11.15,1.19.62,2.29,1.36,3.19,1.72,2.16,4.64,3.41,14.11,3.41.28,0,.56,0,.84,0-.98,1.52-1.81,3.23-2.5,5.13-.89,2.45-.02,5.19,2.12,6.67,1.53,1.06,3.56,1.31,5.31.65.28-.09.87-.26,1.54-.46.88-.26,1.78-.53,2.69-.8.44.66.93,1.25,1.5,1.78,1.71,1.59,3.91,2.47,6.21,2.47.22,0,.44,0,.69-.03.01,0,.03,0,.06,0,3.44,13.76,11.26,24.02,23.3,30.54,3.3,1.79,6.96,3.3,10.9,4.5-.11,2.4.35,4.69.61,5.98.97,4.8,4.13,15.97,12.51,15.97.53,0,1.06-.05,1.57-.15,2.84-.53,5.82-2,8.89-4.39.73.09,1.5.12,2.26.06.42-.03.84-.08,1.25-.15,4.63,3.48,8.51,5.18,11.82,5.18,1.87,0,3.63-.52,5.11-1.51,6.36-4.26,6.83-12.79,5.23-19.23,5.99-1.34,11.42-3.39,16.47-6.2,9.47-5.26,21.35-14.99,26.02-31.94,3.36-.37,7.6-1.27,11.19-3.38,4.71-2.75,6.89-6.94,5.88-31.93,4.82-1.15,7.5-2.64,7.85-2.85,1.77-1.02,2.87-2.92,2.87-4.95,0-2.04-1.09-3.95-2.85-4.97-.6-.35-1.18-.71-1.84-1.12-1.78-1.11-3.85-2.4-6.38-3.39,10.13-1.27,13.29-3.7,14.63-6.9.87-2.07.69-4.37-.46-6.25ZM154.16,50.61h0c-.04.08-.08.17-.12.26.03-.08.06-.17.11-.26Z" />
    <path class="cls-9"
      d="M155.06,144.37c-.14,0-.27-.06-.37-.16-.1-.1-.15-.24-.14-.37l.15-5.21c0-.14.06-.27.17-.37.1-.09.22-.14.35-.14,0,0,.3,0,.3,0,.98,0,5.99-.09,9.34-1.81,1.76-4.32.7-29.67-1.32-51.02-.01-.14.03-.27.12-.38.09-.11.22-.17.35-.19,0,0,5.22-.49,5.24-.49.27,0,.49.2.52.47.01.13,1.23,13.09,1.85,26.02,1.36,28.1-1.14,29.57-3.15,30.74-4.62,2.7-11.06,2.91-12.93,2.91-.27,0-.44,0-.48,0Z" />
    <path class="cls-7"
      d="M169.25,84.75c.01.13,1.22,12.98,1.85,25.99,1.35,27.79-1.1,29.22-2.89,30.27-4.52,2.64-10.88,2.84-12.66,2.84-.27,0-.43,0-.47,0l.15-5.21s.11,0,.3,0c1.27,0,6.33-.12,9.75-1.95,1.9-3.93.87-29.51-1.21-51.45l5.19-.49h0ZM169.25,83.7s-.07,0-.1,0l-5.19.49c-.28.03-.53.16-.71.37s-.26.49-.23.76c2.24,23.65,2.87,46.38,1.43,50.59-3.25,1.58-7.98,1.66-8.93,1.66-.15,0-.24,0-.26,0-.01,0-.02,0-.03,0-.56,0-1.03.45-1.05,1.01l-.15,5.21c0,.28.1.55.29.75.19.2.45.32.73.33.05,0,.22,0,.5,0,1.9,0,8.46-.22,13.19-2.98,2.24-1.31,4.79-2.8,3.41-31.22-.63-12.94-1.84-25.91-1.86-26.04-.05-.54-.51-.94-1.04-.94h0Z" />
    <path class="cls-6"
      d="M170.26,97.11c-.52-7.1-1.01-12.28-1.01-12.37l-5.19.49c.35,3.73.68,7.57.96,11.39,1.73.28,3.49.45,5.24.48Z" />
    <path class="cls-6"
      d="M155.22,138.64l-.15,5.21s.21,0,.47,0c1.12,0,4.04-.08,7.17-.79-.61-1.64-1.08-3.33-1.42-5.02-3.09.65-6.02.59-6.07.59Z" />
    <path class="cls-6"
      d="M171.31,115.72c-.06-1.56-.13-3.21-.21-4.98-.15-3.06-.33-6.1-.52-8.97-1.73.08-3.47.12-5.2.13.31,4.72.54,9.32.69,13.56,1.75.18,3.5.28,5.23.26Z" />
    <path class="cls-1"
      d="M166.52,136.87c1.28-1.47,1.13-13.81.37-24.74-.97-13.91-2.83-26.88-2.83-26.88,2.08,21.93,3.1,47.52,1.21,51.45-3.9,2.09-9.98,1.95-10.04,1.95,0,0,8.38,1.57,11.29-1.77Z" />
    <path class="cls-9"
      d="M164.78,92.31c-13.83,0-19.96-4.4-21.4-7.01-.39-.71-.46-1.33-.2-1.76.37-.59,1.71-1.7,3.87-3.46,2.09-1.71,5.58-4.57,5.75-5.38.21-1.03,5.11-20.52,6.09-21.9.46-.7.82-7.02.91-12.72,0-.07.02-.14.04-.2.07-.17,1.84-4.1,7.38-5.31.04,0,.07-.01.11-.01.16,0,.32.07.42.21.1.13,2.39,3.19,3.6,8.2,1.35,5.62,2.19,13,2.6,16.54.11,1,.2,1.79.25,2.01.23,1.17,7.36,15.39,12.11,24.69.22.29.47.91.17,1.62-.96,2.28-6.86,3.75-17.55,4.36-1.41.08-2.8.12-4.13.12h0Z" />
    <path class="cls-7"
      d="M167.32,35.09s2.31,3.04,3.51,8.01c1.76,7.29,2.64,17.53,2.84,18.53.33,1.67,12.18,24.87,12.18,24.87,0,0,3.5,4.01-16.97,5.17-1.44.08-2.8.12-4.1.12-17.13,0-21.93-6.72-21.16-7.96.83-1.34,9.35-7.34,9.68-9.01.33-1.67,5.17-20.53,6.01-21.7.83-1.17,1-13.02,1-13.02,0,0,1.67-3.84,7.01-5.01h0ZM167.32,34.05c-.07,0-.15,0-.22.02-5.8,1.27-7.67,5.43-7.74,5.61-.06.13-.08.26-.09.4-.07,5.29-.41,11.54-.83,12.47-1.1,1.75-5.95,21.03-6.16,22.06-.3.77-3.73,3.57-5.57,5.08-2.27,1.85-3.57,2.93-3.98,3.59-.21.34-.47,1.09.19,2.29.41.74,4.53,7.27,21.85,7.27,1.34,0,2.74-.04,4.16-.12,16.43-.94,17.61-3.76,18-4.68.37-.89.08-1.68-.2-2.09-4.5-8.81-11.72-23.2-12.05-24.53-.04-.18-.13-1-.24-1.95-.4-3.55-1.25-10.95-2.61-16.6-1.23-5.12-3.59-8.27-3.69-8.4-.2-.26-.51-.41-.83-.41h0Z" />
    <path class="cls-1"
      d="M161.87,42.5c-.79-3.95,3.22-4.31,6.56-5.62-.63-1.15-1.11-1.79-1.11-1.79-5.34,1.17-7.01,5.01-7.01,5.01,0,0-.17,11.85-1,13.02-.83,1.17-5.67,20.03-6.01,21.7-.33,1.67-8.85,7.68-9.68,9.01-.54.86,1.63,4.39,8.79,6.45.53-4.2,3.41-6.88,4.25-10.25,3.13-12.51,7.3-23.98,5.21-37.53Z" />
    <path class="cls-2" d="M162.07,63.76c-5.97-.41-8.24,9.96-1.19,10.36,7.05.4,9.44-9.79,1.19-10.36Z" />
    <path class="cls-7"
      d="M161.29,74.65c-.15,0-.29,0-.44-.01-2.02-.11-3.55-1.03-4.32-2.58-.91-1.81-.65-4.33.64-6.26,1.18-1.76,2.99-2.69,4.94-2.56,4.44.3,5.84,3.17,5.7,5.52-.19,2.96-2.66,5.89-6.51,5.89ZM161.74,64.27c-1.47,0-2.81.76-3.71,2.11-1.09,1.63-1.32,3.72-.57,5.22.61,1.22,1.8,1.91,3.45,2,3.46.2,5.69-2.34,5.85-4.9.12-1.97-1.05-4.17-4.73-4.42h0c-.1,0-.2-.01-.3-.01Z" />
    <path class="cls-2" d="M172.58,77.98c-5.42-.83-7.59,9.17-2.26,8.5,5.32-.67,9.32-7.42,2.26-8.5Z" />
    <path class="cls-7"
      d="M169.84,87.03c-1.12,0-2.01-.46-2.55-1.33-.93-1.49-.67-3.98.6-5.91,1.17-1.77,2.9-2.62,4.77-2.33,3.86.59,4.24,2.75,4.23,3.65-.04,2.66-3.14,5.46-6.51,5.88-.19.02-.37.04-.55.04ZM171.94,78.45c-1.65,0-2.69,1.17-3.18,1.92-1.03,1.56-1.28,3.66-.59,4.78.41.66,1.11.93,2.08.81,3.12-.39,5.57-2.93,5.6-4.86.02-1.35-1.17-2.27-3.35-2.61h0c-.19-.03-.38-.04-.56-.04Z" />
    <path class="cls-8" d="M167.29,50.41c-3.08.27-5.64,7.09-.03,5.86,5.61-1.23,4.59-6.26.03-5.86Z" />
    <path class="cls-7"
      d="M166.03,56.94c-1.13,0-1.75-.41-2.1-.82-.62-.75-.68-1.95-.16-3.22.58-1.4,1.87-2.87,3.46-3.01h0c2.69-.24,4.12,1.2,4.34,2.62.25,1.61-.96,3.55-4.22,4.26-.51.11-.95.16-1.33.16ZM167.34,50.93h0c-1.1.1-2.13,1.26-2.59,2.37-.37.89-.37,1.71,0,2.15.38.46,1.24.57,2.41.31,2.59-.57,3.58-1.96,3.41-3.09-.15-.96-1.23-1.92-3.22-1.74Z" />
    <path class="cls-2"
      d="M163.63,110.25c-5.7,0-8.58-.8-8.7-.84-.18-.05-.31-.19-.36-.37-.05-.18,0-.37.13-.5,2.93-2.98,6.26-5.4,9.88-7.19.04-.02.08-.03.13-.04,1.49-.3,6.14-.69,6.34-.71.01,0,.03,0,.04,0,.03,0,.06,0,.08,0,3.76.62,6.47,2.31,9.09,3.95.66.41,1.32.82,1.98,1.21.16.09.26.27.26.45s-.1.36-.26.45c-.2.11-4.88,2.76-13.78,3.4-1.66.12-3.29.18-4.83.18h0Z" />
    <path class="cls-7"
      d="M171.09,101.12c4.6.76,7.63,3.2,10.89,5.09,0,0-4.67,2.69-13.55,3.33-1.78.13-3.38.18-4.8.18-5.69,0-8.55-.82-8.55-.82,2.83-2.87,6.05-5.26,9.74-7.09,1.47-.3,6.28-.7,6.28-.7h0ZM171.09,100.08s-.06,0-.09,0c-.2.02-4.88.41-6.4.72-.09.02-.17.05-.25.09-3.68,1.82-7.05,4.27-10.02,7.29-.26.26-.36.64-.27,1,.09.36.37.64.72.74.12.04,3.07.86,8.84.86,1.56,0,3.2-.06,4.88-.18,9.02-.65,13.8-3.36,14-3.47.32-.19.52-.53.52-.9,0-.37-.2-.72-.52-.9-.66-.38-1.29-.78-1.97-1.2-2.66-1.66-5.42-3.38-9.28-4.02-.06,0-.11-.01-.17-.01h0Z" />
    <path class="cls-1"
      d="M160.81,104.17c-2.07,1.39-3.99,2.96-5.74,4.74,0,0,4.47,1.28,13.35.64.34-.02.67-.06,1-.09-3.66-.61-6.77-2.2-8.61-5.29Z" />
    <path class="cls-7"
      d="M158.08,110.25c-.08,0-.17-.02-.25-.06-.25-.14-.35-.45-.21-.71.41-.75.85-1.47,1.31-2.16.16-.24.49-.3.72-.14.24.16.3.48.14.72-.44.66-.86,1.35-1.26,2.08-.09.17-.27.27-.46.27Z" />
    <path class="cls-7"
      d="M161,105.94c-.12,0-.24-.04-.33-.12-.22-.18-.25-.51-.06-.73,1.52-1.81,3.27-3.36,4.93-4.37.24-.15.59-.1.74.14.15.24.12.54-.12.69,0,0-.08.05-.08.05-.91.55-2.72,1.82-4.67,4.15-.1.12-.25.19-.4.19Z" />
    <path class="cls-7"
      d="M166.25,110.49c-.28,0-.51-.22-.52-.51-.03-1.05,0-2.19.1-3.39.02-.29.31-.5.56-.48.29.02.5.27.48.56-.09,1.16-.12,2.27-.09,3.28,0,.29-.22.53-.51.54h-.02Z" />
    <path class="cls-7"
      d="M166.61,104.76s-.05,0-.07,0c-.28-.04-.48-.3-.44-.59.26-1.85.55-3.11.56-3.16.07-.28.35-.45.63-.39.28.07.46.35.39.63,0,.01-.29,1.27-.54,3.07-.04.26-.26.45-.52.45Z" />
    <path class="cls-7"
      d="M173.75,109.38c-.27,0-.49-.2-.52-.48-.28-3.23-4.16-7.73-4.2-7.78-.19-.22-.16-.55.05-.74.22-.19.55-.16.74.05.17.19,4.13,4.8,4.45,8.37.03.29-.19.54-.47.56-.02,0-.03,0-.05,0Z" />
    <path class="cls-7"
      d="M179.7,108.23c-.17,0-.34-.08-.44-.24-2.88-4.45-8.48-6.7-8.54-6.72-.27-.11-.4-.41-.29-.68.1-.27.41-.4.67-.29.24.1,5.97,2.39,9.03,7.12.16.24.09.56-.15.72-.09.06-.19.08-.28.08Z" />
    <path class="cls-7"
      d="M181.98,90.76s-.07,0-.1,0c-.28-.05-.47-.33-.41-.61.29-1.53-.44-3.87-.78-4.99-.17-.54-.21-.7-.21-.85,0-.29.23-.52.52-.52s.5.22.52.49c.02.1.08.3.17.57.37,1.2,1.15,3.71.81,5.5-.05.25-.27.42-.51.42ZM181.51,84.3h.01-.01Z" />
    <path class="cls-7"
      d="M179.33,91.54c-.12,0-.24-.04-.33-.12-.22-.18-.25-.51-.07-.73.09-.19-.02-1.07-.06-1.4-.03-.26-.06-.49-.06-.62,0-.29.23-.52.52-.52s.52.23.52.52c0,.11.02.28.05.49.12.98.19,1.77-.17,2.19-.1.12-.25.19-.4.19Z" />
    <path class="cls-7"
      d="M155.57,91.54s-.01,0-.02,0c-.29-.01-.51-.25-.5-.54.04-1.02.48-2.06.77-2.74.08-.2.15-.36.19-.47.09-.27.38-.42.66-.34.27.09.43.38.34.66-.04.13-.12.33-.22.56-.26.62-.66,1.55-.69,2.37-.01.28-.24.5-.52.5Z" />
    <path class="cls-7"
      d="M150.31,90.36c-.27,0-.5-.21-.52-.49-.09-1.39,1.02-4.95,1.32-5.41.16-.24.48-.31.72-.15.24.16.31.48.16.72-.23.4-1.23,3.69-1.16,4.78.02.29-.2.54-.49.56-.01,0-.02,0-.04,0Z" />
    <path class="cls-7"
      d="M155.07,143.49c-.09,0-.17-.02-.25-.06-.25-.14-.35-.46-.21-.71.14-.25.29-.27.79-.3,6.62-.53,9.97-1.77,11.61-2.73.25-.14.57-.06.71.19.14.25.06.57-.19.71-1.74,1.01-5.24,2.32-12.05,2.86-.15.01-.25.02-.31.03-.04,0-.07.01-.11.01Z" />
    <path class="cls-7"
      d="M156.64,141.36c-.62,0-1.13-.03-1.47-.05-.2-.01-.34-.02-.4-.02-.29,0-.54-.19-.56-.48-.02-.28.18-.53.46-.56.09,0,.28,0,.56.01,1.15.06,4.2.23,7.1-.98.26-.11.57.01.68.28.11.27-.01.57-.28.68-2.23.93-4.52,1.11-6.09,1.11Z" />
    <path class="cls-8"
      d="M97.79,183.71c-1.03,0-2.09-.01-3.16-.04-9.25-.19-22.9-1.17-34.62-7.52-13.49-7.3-20.93-19.96-22.12-37.63-1.25-18.5,3.61-33.76,14.44-45.35,12.25-13.1,32.39-20.93,53.87-20.93,22.44,0,48.99,15.78,49.98,60.23.54,24.37-13.33,37.26-25.07,43.78-9.15,5.08-19.74,7.45-33.32,7.45h0Z" />
    <path class="cls-7"
      d="M106.2,73.29h.01c21.98,0,47.95,15.71,48.92,59.21.5,22.47-11.63,35.68-24.53,42.85-9.17,5.1-19.63,7.32-32.81,7.32-1.03,0-2.07-.01-3.13-.04-19.44-.4-53.05-4.59-55.73-44.17-3.26-48.24,36.61-65.17,67.27-65.17h0ZM106.21,71.21h-.01c-21.77,0-42.19,7.95-54.63,21.26-11.04,11.81-15.99,27.33-14.72,46.13,1.22,18.05,8.85,30.99,22.67,38.47,11.92,6.45,25.74,7.45,35.1,7.64,1.07.03,2.14.04,3.17.04,13.77,0,24.52-2.41,33.83-7.58,11.99-6.66,26.16-19.83,25.6-44.72-.45-20.17-6.39-36.54-17.19-47.34-8.96-8.96-20.97-13.9-33.81-13.9h0Z" />
    <path class="cls-1"
      d="M98.35,149.4c-1.33.53,1.42,16.63,15.18,13.43,13.76-3.19,12.87-16.89,12.08-16.89s-2.53,12.86-12.87,13.3c-14.53.61-13.06-10.37-14.39-9.84Z" />
    <path class="cls-1"
      d="M52.54,154.6c0-.91,8.87,5.25,15.51-.32,6.65-5.58,7.58-15.22,8.24-15.22s1.58,12.34-6.92,17.73c-10.2,6.47-16.84-1.27-16.84-2.18Z" />
    <path class="cls-1"
      d="M58.78,164.23s3.94,8.76,21.96,9.96c18.02,1.2,14.1.8,26.04-2.3,11.94-3.09,19.82-15.41,19.82-15.41,0,0-19.62,19.12-43.42,16.28-19.02-2.27-24.4-8.53-24.4-8.53Z" />
    <path class="cls-1" d="M109.85,156.48l17.24-41.51s-5.24-13.85-17.24-4.26c-10.71,8.56-19.73,45.77,0,45.77Z" />
    <path class="cls-1"
      d="M51.47,149.19s-11.65-23.53,10.15-40.45c3.97-3.08,9.72-2.27,12.01.8,3.46,4.64,3.02,12.41,3.02,12.41l-25.18,27.23Z" />
    <path class="cls-9"
      d="M155.13,132.5c-.37-16.58-4.38-29.11-10.4-38.28,10.33,23.54,8.8,51.15-8.92,71.3-9.5,10.93-22.26,15.35-36.09,17.14,12.28-.21,22.17-2.46,30.89-7.3,12.9-7.17,25.03-20.37,24.53-42.85Z" />
    <path class="cls-1"
      d="M58.78,91.79c12.9-16.34,38.03-19.49,58.83-17.07-3.82-.96-7.67-1.43-11.4-1.43-30.67,0-70.55,16.92-67.28,65.17,1.17,17.34,8.29,27.89,17.54,34.3-23.51-25.08-14.89-57.76,2.3-80.97Z" />
    <path class="cls-6"
      d="M57.03,130.72c-2.6,13.36-.07,21.76,7.82,22.25-1.81.95-3.43,1.08-4.57,1.07-6.61-.06-11.64-4.53-9.63-19.59,2.31-17.31,12.04-26.72,19.26-24.61.6.18,1.21.46,1.78.87-6.26,1.55-12.28,7.7-14.66,20.02Z" />
    <path class="cls-6"
      d="M107.81,131.88c-2.74,14.09-.07,22.95,8.25,23.47-1.91,1-3.62,1.14-4.82,1.13-6.97-.06-12.27-4.77-10.15-20.66,2.44-18.25,12.7-28.18,20.31-25.96.64.19,1.27.49,1.88.92-6.6,1.64-12.95,8.12-15.46,21.11Z" />
    <path class="cls-7"
      d="M126.53,137.93c-3.05,11.17-7.09,15.65-10.47,17.42-8.32-.52-10.99-9.37-8.25-23.47,2.51-12.99,8.86-19.47,15.46-21.11,4.27,2.97,7.42,11.85,3.25,27.16Z" />
    <path class="cls-7"
      d="M111.37,157s-.09,0-.13,0c-3.4-.03-6.07-1.14-7.93-3.28-2.95-3.4-3.87-9.44-2.73-17.97,1.52-11.35,6.21-20.59,12.55-24.72,2.86-1.87,5.78-2.45,8.42-1.67.72.21,1.4.55,2.03.99,4.47,3.11,7.73,12.02,3.45,27.72h0c-2.57,9.39-6.18,15.36-10.73,17.75-1.99,1.04-3.75,1.19-4.93,1.19ZM119.21,110.06c-1.77,0-3.65.62-5.52,1.84-6,3.91-10.63,13.09-12.09,23.98-1.09,8.22-.26,13.99,2.49,17.15,1.66,1.91,4.07,2.9,7.16,2.92,1.07.02,2.71-.09,4.57-1.07,4.28-2.25,7.72-8,10.21-17.1,4.14-15.19.94-23.82-3.05-26.59-.54-.38-1.12-.67-1.73-.85-.66-.19-1.34-.29-2.04-.29ZM126.53,137.93h.01-.01Z" />
    <path class="cls-7"
      d="M74.78,136.46c-2.9,10.59-6.72,14.84-9.92,16.52-7.89-.49-10.42-8.89-7.82-22.25,2.38-12.32,8.4-18.47,14.66-20.02,4.05,2.82,7.04,11.24,3.08,25.75Z" />
    <path class="cls-7"
      d="M60.4,154.57s-.08,0-.13,0c-3.23-.03-5.77-1.08-7.55-3.12-2.8-3.23-3.67-8.97-2.6-17.06,1.44-10.77,5.89-19.54,11.91-23.45,2.73-1.77,5.5-2.32,8.01-1.59.68.2,1.33.52,1.94.94,4.25,2.95,7.34,11.42,3.29,26.31h0c-2.44,8.91-5.86,14.58-10.19,16.84-1.89.99-3.56,1.13-4.69,1.13ZM67.84,110.06c-1.68,0-3.45.59-5.22,1.74-5.68,3.7-10.07,12.4-11.45,22.72-1.04,7.78-.25,13.25,2.35,16.24,1.57,1.81,3.85,2.74,6.77,2.76,1.01.01,2.56-.09,4.32-1.01,4.06-2.13,7.31-7.58,9.66-16.19,3.92-14.39.9-22.56-2.88-25.19-.51-.36-1.06-.63-1.63-.8-.62-.18-1.27-.27-1.93-.27ZM74.77,136.46h.01-.01Z" />
    <path class="cls-7"
      d="M87.99,175.07c-6.39,0-12.32-.77-16.45-1.98-10.93-3.21-19.03-13.16-21.81-19.06-2.3-4.9-2.68-14.22-2.72-18.61-1.29.04-2.64.15-2.91.28-.22.12-.47.1-.67-.03-.21-.14-.64-.44-.29-3.48.02-.15.09-.28.21-.36.12-.09.27-.12.41-.09l3.88.82c.25.05.42.27.41.52,0,.14-.29,14.33,2.61,20.51,3.25,6.91,11.77,15.75,21.16,18.5,10.01,2.94,30.89,3.23,42.44-3.94,16.66-10.34,20.76-32.08,20.92-33l.03-2.09s0-.08,0-.12l.03-2.14c0-.26.2-.48.46-.51,2.39-.31,6.53-.71,7.35-.02.16.14.25.32.26.52.02.5-.31,3.7-1.44,4.1-.17.06-.63.16-1.05-.39-.77-1.01-3.25-1.08-4.58-1l-.03,1.76c-.18,1.02-4.36,23.21-21.41,33.79-7.03,4.36-17.43,6.03-26.84,6.03ZM43.63,134.77h0s0,0,0,0Z" />
    <path class="cls-7"
      d="M110.73,160.23c-.54,0-1.11-.03-1.69-.08-3.41-.3-6.1-1.65-7.99-4.01-.18-.22-.14-.55.08-.73.23-.18.55-.14.73.08,1.7,2.13,4.15,3.35,7.27,3.63,13.02,1.16,15.85-11.77,15.97-12.32.06-.28.33-.47.62-.4.28.06.46.33.4.62-.03.14-2.88,13.22-15.39,13.22Z" />
    <path class="cls-7"
      d="M99.63,153c-.21,0-.42-.13-.49-.35-.57-1.62-.66-2.87-.66-2.92-.02-.29.2-.53.49-.55.01,0,.02,0,.03,0,.27,0,.5.21.52.49,0,.01.08,1.16.6,2.64.1.27-.05.57-.32.67-.06.02-.11.03-.17.03Z" />
    <path class="cls-7"
      d="M60.2,157.3c-.29,0-.52-.23-.52-.52s.23-.52.52-.52c4.88,0,11.38-2.45,14.66-14.05.08-.28.37-.44.64-.36.28.08.44.37.36.64-3.46,12.23-10.43,14.8-15.66,14.81h0Z" />
    <path class="cls-7"
      d="M57.13,157s-.07,0-.1-.01c-1.28-.26-2.08-.58-2.11-.59-.27-.11-.39-.41-.29-.68.11-.27.41-.4.68-.29,0,0,.74.3,1.92.53.28.06.47.33.41.61-.05.25-.27.42-.51.42Z" />
    <path class="cls-7"
      d="M90.16,177.44c-4.9,0-8.88-.41-9.66-.8-.26-.13-.36-.45-.23-.7.13-.26.45-.36.7-.23.92.47,11.29,1.29,19.96-.05.28-.04.55.15.59.44.04.28-.15.55-.44.6-3.56.55-7.48.75-10.94.75Z" />
    <path class="cls-6"
      d="M107.09,202.47c-3.16,0-7.84-3.48-10.72-5.9-.8.52-1.74.83-2.75.9-.14.01-.29.02-.42.02-1.03,0-1.95-.27-2.71-.8-1.85,1.73-5.33,4.58-8.66,5.2-.17.03-.35.05-.52.05-4.47,0-6.65-10.2-6.89-11.36-.87-4.29-.62-6.76.74-7.33.27-.11.57-.17.92-.17,3.03,0,11.38,4.67,12.91,5.54.89-1.84,2.49-2.94,4.35-2.94,2.08,0,3.8.95,4.79,2.58,5.99-2.6,9.6-3.92,10.75-3.92,1.14.03,2.06,1.29,2.77,3.77,1.02,3.5,1.77,10.89-2.64,13.85-.54.36-1.18.54-1.92.54h0Z" />
    <path class="cls-7"
      d="M76.08,184.1c2.96,0,12.54,5.48,12.54,5.48,0,0,.46.12.99.27.55-1.75,1.83-3.16,3.73-3.16h.01c2.26,0,3.68,1.27,4.28,2.89,2.5-1.1,9.78-4.23,11.25-4.23,0,0,.02,0,.02,0,1.72.04,4.87,12.13-.47,15.71-.38.25-.83.36-1.34.36-3.19,0-8.58-4.38-10.69-6.2-.71.66-1.66,1.11-2.86,1.2-.12,0-.24.01-.35.01-1.2,0-2.11-.46-2.75-1.18-1.44,1.42-5.27,4.92-8.82,5.59-.11.02-.22.03-.33.03-4.33,0-7.78-15.83-5.74-16.69.14-.06.31-.08.52-.08h0ZM76.08,182.02s0,0,0,0c-.5,0-.93.08-1.33.25-1.22.51-2.68,1.95-1.36,8.49.41,2.04,2.72,12.2,7.91,12.2.24,0,.48-.02.71-.07,3.23-.6,6.45-3,8.61-4.94.77.37,1.64.56,2.57.56.16,0,.33,0,.5-.02.91-.06,1.78-.29,2.56-.68,3.39,2.79,7.67,5.69,10.84,5.69.95,0,1.79-.24,2.5-.72,4.91-3.28,4.24-10.98,3.07-15-.87-3-2.08-4.48-3.7-4.52-.02,0-.06,0-.07,0-.52,0-1.87,0-10.39,3.67-1.21-1.48-3.02-2.32-5.14-2.33-1.94,0-3.63.95-4.75,2.57-3.12-1.74-9.65-5.17-12.52-5.17h0Z" />
    <path class="cls-1"
      d="M75.39,184.3c-1.71,1.72,1.89,17.35,6.24,16.54,1-.19,2.03-.61,3.01-1.13-5.41-3.17-8.89-9.2-9.25-15.4Z" />
    <path class="cls-1"
      d="M91.05,187.56c-2.99,2.53-.75,7.84-.6,7.7.7.78,1.72,1.26,3.1,1.16.8-.06,1.48-.29,2.07-.63-2.74-2.01-4.26-5.06-4.56-8.23Z" />
    <path class="cls-1"
      d="M99.66,197.83c3.01,2.22,6.88,4.49,8.77,3.23,2.43-1.62,3.1-5,2.95-8.2-2.52,3.96-6.73,6.51-11.72,4.98Z" />
    <path class="cls-1"
      d="M40.07,137.68l.84,1.98c.85,0,1.74,0,2.65,0,8.06,0,18.3.07,21.85.1l1.18-1.09s-25.27-.99-26.52-.98Z" />
    <path class="cls-1"
      d="M64.65,144.94c-5.02-.04-13.08-.08-19.78-.09l1.61,2.09c7.21.01,20.18-.99,20.18-.99l-2.01-1.01Z" />
    <path class="cls-9"
      d="M15.54,130.05c-4.06,0-9.11-.26-10.09-1.51-.11-.13-.19-.3-.21-.5-.51-5.04,5.44-13.82,9.78-20.23,1.86-2.74,3.46-5.11,4.11-6.52,1.65-3.51,4.55-10.38,5.47-17.04.72-5.23.21-9.11,0-10.77-.06-.43-.09-.72-.09-.87,0-.32.15-1.06,1.5-1.06,1.76,0,5,1.2,5.14,1.25.2.08.34.27.34.49,0,.07.02,6.62,1.45,11.98.61,2.32,1.4,4.08,2.33,5.24.17.21,1.8,2.55,3.85,5.66.02.02.04.05.06.07,2.11,3.2,3.98,6.18,5.58,8.85,2.47,4.13,4.28,7.55,5.39,10.14,1.04,2.44,1.48,4.18,1.36,5.33-.69,5.9-16.23,7.17-17.78,7.28-.47.22-2.49,1.04-7.01,1.58-3.45.4-7.52.64-11.17.64Z" />
    <path class="cls-7"
      d="M26,72.08c1.68,0,4.96,1.21,4.96,1.21,0,0,0,6.62,1.47,12.11.56,2.13,1.34,4.09,2.43,5.43.14.17,1.73,2.44,3.87,5.69h.01c1.67,2.53,3.67,5.65,5.57,8.83,2.12,3.54,4.11,7.15,5.36,10.08.92,2.16,1.44,3.95,1.32,5.07v.04c-.67,5.67-17.4,6.78-17.4,6.78,0,0-1.85.97-6.93,1.57-3.54.41-7.56.63-11.11.63-4.93,0-8.98-.42-9.68-1.31-.06-.07-.09-.16-.1-.24-.7-6.94,11.62-21.68,13.84-26.47,1.38-2.93,4.54-10.11,5.52-17.19.9-6.54-.09-10.98-.09-11.71,0-.39.39-.54.97-.54h0ZM26,71.03c-1.92,0-2.02,1.32-2.02,1.58,0,.21.04.48.1.94.21,1.64.72,5.47,0,10.63-.91,6.59-3.79,13.41-5.43,16.89-.64,1.38-2.23,3.73-4.07,6.45-4.63,6.84-10.39,15.35-9.86,20.57.04.32.16.59.35.81.3.39,1.31,1.67,10.47,1.67,3.66,0,7.76-.23,11.23-.64,4.31-.51,6.42-1.3,7.07-1.58,2.52-.18,17.45-1.52,18.17-7.68,0-.04,0-.08,0-.11.11-1.24-.35-3.04-1.41-5.52-1.12-2.62-2.94-6.06-5.42-10.21-1.59-2.67-3.47-5.65-5.59-8.87-.02-.04-.05-.07-.08-.11-2.08-3.17-3.68-5.45-3.86-5.67-.88-1.1-1.64-2.79-2.23-5.04-1.42-5.3-1.44-11.78-1.44-11.85,0-.44-.27-.83-.68-.98-.35-.13-3.5-1.28-5.32-1.28h0Z" />
    <path class="cls-1"
      d="M10.48,124.05c2.42-10.36,10-14.29,12.47-21.79,3.08-9.38,3.43-19.94,3.41-30.17-.77-.06-1.33.05-1.33.52,0,.73.99,5.17.09,11.71-.98,7.08-4.14,14.26-5.52,17.19-2.22,4.79-14.54,19.53-13.84,26.47.01.08.04.17.1.24.32.41,1.38.72,2.9.94.84-1.28.56-4.24,1.72-5.11Z" />
    <path class="cls-6"
      d="M50.99,120.51v.04c-.67,5.67-17.4,6.78-17.4,6.78,0,0-1.85.97-6.93,1.57-8.47.99-19.59.85-20.79-.68.76-1.38,2.23-2.8,4.9-4,8.17-3.67,16.36-8.68,19.36-8.52,2.55.15,17.13,1.61,20.86,4.81Z" />
    <path class="cls-2"
      d="M27.41,116.29c-3.93,1.41-10.28,5.07-16.65,7.93-2.67,1.2-4.14,2.63-4.9,4,.34.44,1.51.77,3.2.98-1.39-2.35,13.18-8.59,18.35-12.91Z" />
    <path class="cls-7"
      d="M5.86,128.74c-.09,0-.17-.02-.25-.07-.25-.14-.34-.46-.2-.71.94-1.69,2.67-3.11,5.14-4.23,2.79-1.25,5.54-2.64,8.19-3.98,5.2-2.63,9.32-4.73,11.42-4.58,2.72.15,17.33,1.63,21.17,4.93.12.1.18.24.18.4,0,.29-.23.54-.52.54-.19,0-.35-.09-.44-.23-3.75-3.01-17.96-4.45-20.45-4.59-1.84-.09-6.03,2.02-10.89,4.47-2.66,1.34-5.41,2.74-8.23,4-2.27,1.02-3.83,2.29-4.66,3.78-.09.17-.27.27-.46.27Z" />
    <path class="cls-8" d="M20.87,103.37c7.87-5.44,11.69,5.59,4.3,10.33-7.39,4.74-12.17-4.88-4.3-10.33Z" />
    <path class="cls-7"
      d="M21.36,115.49c-1.83,0-3.28-.9-4.13-2.17-1.78-2.68-1.22-7.22,3.33-10.37h0c2.29-1.58,4.52-1.98,6.29-1.12,1.61.79,2.65,2.53,2.78,4.67.18,2.99-1.39,5.84-4.19,7.64-1.48.95-2.87,1.35-4.09,1.35ZM21.16,103.8h0c-4.01,2.77-4.57,6.68-3.06,8.94,1.05,1.57,3.45,2.65,6.78.52,2.48-1.59,3.86-4.09,3.71-6.7-.1-1.76-.92-3.18-2.19-3.8-1.41-.69-3.27-.32-5.24,1.04Z" />
    <path class="cls-2"
      d="M38.73,96.53c-.78.56-1.88.84-3.36.7-7.03-.68-6.43-9.41-2.94-11.82.56,2.13,1.34,4.09,2.43,5.43.14.17,1.73,2.44,3.87,5.69Z" />
    <path class="cls-7"
      d="M36.11,97.79c-.26,0-.52-.01-.8-.04-2.92-.28-4.99-1.98-5.69-4.66-.77-2.98.35-6.62,2.5-8.11.14-.1.32-.12.48-.06.16.06.28.19.32.36.61,2.32,1.4,4.08,2.33,5.24.17.21,1.83,2.58,3.9,5.73.15.23.1.55-.13.71-.77.56-1.75.83-2.92.83ZM32.15,86.33c-1.41,1.46-2.09,4.23-1.51,6.49.34,1.31,1.41,3.56,4.78,3.89,1.03.1,1.9-.02,2.57-.35-1.97-2.98-3.4-5.03-3.54-5.2-.91-1.13-1.69-2.76-2.31-4.84Z" />
    <path class="cls-7"
      d="M28.37,124.54s-.02,0-.03,0c-3.72-.2-10.72-2.97-11.02-3.09-.27-.11-.4-.41-.29-.68.11-.27.41-.4.68-.29.07.03,7.14,2.83,10.69,3.02.29.02.51.26.49.55-.02.28-.25.49-.52.49Z" />
    <path class="cls-7"
      d="M30.4,123.45c-.26,0-.49-.2-.52-.47l-.73-7.23c-.03-.29.18-.54.47-.57.28-.03.54.18.57.47l.73,7.23c.03.29-.18.54-.47.57-.02,0-.04,0-.05,0Z" />
    <path class="cls-7"
      d="M32.95,123.75c-.08,0-.14-.03-.2-.07-.25-.14-.35-.45-.21-.71.06-.11.15-.19.26-.24.56-.38,4.67-3.93,7.19-6.13.21-.19.54-.17.74.05.19.22.17.55-.05.74-6.28,5.5-7.31,6.36-7.72,6.36Z" />
    <path class="cls-7"
      d="M33.52,124.56h-.01c-.29-.04-.48-.31-.43-.6.04-.27.31-.46.54-.44.31,0,11.94-.54,16.01-3.82.22-.18.55-.15.73.08.18.22.14.55-.08.73-4.38,3.53-16.31,4.05-16.76,4.05Z" />
    <path class="cls-7"
      d="M17.26,126.79c-4.63,0-8.82-.33-9.15-.35-.29-.02-.5-.27-.48-.56.02-.29.28-.5.56-.48.15.01,15.06,1.17,19.74-.84.26-.11.57,0,.68.27.11.26,0,.57-.27.68-2.34,1-6.89,1.27-11.09,1.27Z" />
    <path class="cls-2"
      d="M49.66,115.44c-1.55.03-3.58-.2-5.42-1.24-3.09-1.74-4.56-6.55.06-8.84,2.12,3.54,4.11,7.15,5.36,10.08Z" />
    <path class="cls-7"
      d="M49.4,115.97c-1.47,0-3.53-.24-5.42-1.31-1.94-1.09-3.2-3.2-3.14-5.25.05-1.9,1.2-3.5,3.23-4.51.24-.12.54-.03.68.2,2.47,4.13,4.28,7.54,5.39,10.14.07.16.05.34-.04.49-.09.15-.25.23-.43.24-.09,0-.18,0-.27,0ZM44.11,106.06c-1.78,1.04-2.2,2.39-2.23,3.37-.04,1.65,1.03,3.42,2.62,4.32,1.48.83,3.08,1.11,4.36,1.16-1.07-2.36-2.66-5.33-4.75-8.86Z" />
    <path class="cls-9"
      d="M33.24,145.48c-.97,0-1.91-.38-2.65-1.07-2.18-2.03-2.82-6.79-2.74-20.4,0-1.17,2.17-1.61,3.52-1.61.75,0,1.77.12,2.34.69.26.26.4.59.4.96-.04,7.78.19,12.86.69,15.12,1.76-.03,4.68-.05,8.7-.05,9.75,0,22.74.1,22.87.1.11,0,.22.04.31.11.85.66,1.36,1.58,1.43,2.6.08,1.19-.44,2.42-1.41,3.39-.1.1-.23.15-.37.15h0c-4.96-.04-15.43-.1-23.23-.1-5.54,0-8.75.03-9.56.09-.1,0-.19.01-.29.01Z" />
    <path class="cls-7"
      d="M31.38,122.92c1.16,0,2.21.32,2.21,1.12-.05,8.33.23,13.58.81,15.65,1.87-.04,5.23-.06,9.11-.06,9.06,0,20.89.09,22.86.1,1.74,1.34,1.55,3.64-.04,5.21-5.12-.04-15.47-.1-23.23-.1-4.85,0-8.68.02-9.6.09-.08,0-.17,0-.25,0-.84,0-1.65-.32-2.29-.93-2.02-1.89-2.65-6.75-2.58-20.01,0-.62,1.58-1.09,3-1.09h0ZM31.38,121.88c-1.4,0-4.04.45-4.05,2.13-.07,13.78.6,18.63,2.91,20.78.83.78,1.9,1.21,3.01,1.21.11,0,.22,0,.33-.01.55-.04,2.64-.09,9.52-.09,7.8,0,18.27.06,23.22.1h0c.28,0,.54-.11.74-.3,1.08-1.07,1.65-2.46,1.57-3.79-.07-1.17-.65-2.23-1.63-2.98-.18-.14-.4-.21-.63-.22-.13,0-13.12-.1-22.87-.1-3.71,0-6.48.01-8.27.04-.33-1.84-.64-5.87-.6-14.59,0-.51-.19-.96-.55-1.33-.69-.7-1.85-.84-2.71-.84h0Z" />
    <path class="cls-6"
      d="M33.58,124.05c0-1.79-5.21-1.16-5.21-.03-.01,1.92,0,3.66.02,5.25,1.67-.7,3.41-1,5.2-1.02-.01-1.3-.02-2.7,0-4.2Z" />
    <path class="cls-6"
      d="M34.39,139.7c-.31-1.1-.53-3.09-.66-5.96-1.7.77-3.38,1.54-5.08,2.23.35,4.63,1.06,6.91,2.3,8.06.65.6,1.45.93,2.29.93.08,0,.17,0,.25,0,0,0,.02,0,.02,0,2.46-1.61,4.79-3.4,6.98-5.3-2.57,0-4.74.02-6.11.06Z" />
    <path class="cls-6"
      d="M66.36,139.74c-.63,0-2.29-.02-4.53-.03-.09,1.77-.47,3.51-1.09,5.21,2.17.01,4.1.03,5.58.04,1.59-1.58,1.78-3.88.04-5.21Z" />
    <path class="cls-2"
      d="M19.27,142.87c-.1,0-.21-.03-.3-.09-.2-.14-.27-.38-.19-.61,1.77-4.87,4.56-7.98,8.76-9.79.03-.01.07-.03.11-.03l6.41-1.26c.7-.13,1.36-.19,1.98-.19,2.59,0,4.53,1.09,5.77,3.24.14.23.07.53-.15.69-3.55,2.47-15.28,5.94-20.29,7.42-.91.27-1.7.5-1.86.56-.07.04-.16.06-.24.06Z" />
    <path class="cls-7"
      d="M36.04,131.43c2.42,0,4.18,1.01,5.32,2.98-4.34,3.02-21.89,7.78-22.09,7.95,1.46-4.01,3.8-7.48,8.48-9.49l6.41-1.26c.67-.12,1.29-.18,1.88-.18h0ZM36.04,130.38h0c-.65,0-1.34.07-2.06.2l-6.43,1.26c-.07.01-.14.04-.21.06-4.34,1.86-7.22,5.07-9.05,10.09-.16.45,0,.94.39,1.21.18.12.39.19.59.19.15,0,.3-.03.44-.1.2-.07.98-.3,1.81-.54,7.83-2.32,17.23-5.26,20.44-7.49.44-.31.58-.91.31-1.38-1.34-2.32-3.43-3.5-6.22-3.5h0Z" />
    <path class="cls-1"
      d="M21.23,138.33c-.8,1.24-1.44,2.59-1.96,4.02.19-.17,17.74-4.92,22.09-7.95-.12-.21-.27-.4-.4-.59-6.12,2.99-13.04,4.24-19.72,4.53Z" />
    <path class="cls-7"
      d="M22.64,142.29s-.08,0-.12-.01c-.28-.06-.46-.34-.39-.62.26-1.14.8-2.41,1.59-3.77.14-.25.46-.33.71-.19.25.15.33.46.19.71-.74,1.27-1.24,2.44-1.48,3.48-.05.24-.27.4-.51.4Z" />
    <path class="cls-7"
      d="M25.76,136.28c-.11,0-.22-.03-.31-.1-.23-.17-.28-.5-.11-.73,1.15-1.55,2.25-2.75,2.72-3.25.08-.09.14-.15.17-.18.14-.2.42-.28.65-.16.26.12.37.44.24.7-.04.08-.06.11-.29.36-.46.5-1.53,1.66-2.65,3.17-.1.14-.26.21-.42.21Z" />
    <path class="cls-7"
      d="M28.37,140.56s-.02,0-.04,0c-.29-.02-.5-.27-.48-.56.25-3.62,1.4-7.92,1.82-8.33.2-.2.53-.2.74,0,.18.19.2.48.05.68-.22.43-1.31,4.03-1.56,7.72-.02.28-.25.49-.52.49Z" />
    <path class="cls-7"
      d="M33.59,138.87c-.23,0-.43-.15-.5-.38-.07-.24-.5-1.88-.91-3.46-.07-.28.1-.56.37-.64.28-.07.56.1.64.37.41,1.57.83,3.19.9,3.43.08.28-.08.57-.36.65-.05.01-.1.02-.15.02Z" />
    <path class="cls-7"
      d="M32.2,133.54c-.23,0-.44-.16-.5-.39q-.33-1.28-.33-1.36c0-.26.2-.48.46-.52.27-.03.51.14.57.39,0,.03.13.52.32,1.22.07.28-.1.56-.37.64-.04.01-.09.02-.13.02Z" />
    <path class="cls-7"
      d="M39.87,136.28c-.2,0-.4-.12-.48-.32-1.08-2.55-5.08-4.09-5.77-4.26-.29-.02-.47-.27-.44-.56.02-.29.32-.49.6-.47.32.03,5.2,1.63,6.57,4.88.11.27-.01.57-.28.68-.07.03-.14.04-.2.04Z" />
    <path class="cls-7"
      d="M35.38,135.01c-.19,0-.38-.11-.47-.29-1.02-2.08-2.15-2.7-2.16-2.7-.25-.13-.35-.45-.22-.7.13-.25.44-.36.7-.22.06.03,1.43.75,2.62,3.17.13.26.02.57-.24.7-.07.04-.15.05-.23.05Z" />
    <path class="cls-7"
      d="M25.64,141.12s-.04,0-.06,0c-.28-.03-.49-.28-.46-.56.01-.13.42-2.29,1.14-3.88.12-.26.43-.38.69-.26.26.12.38.43.26.69-.63,1.4-1.03,3.38-1.05,3.56-.04.26-.26.46-.52.46Z" />
    <path class="cls-7"
      d="M37.7,122.85c-.19,0-.37-.1-.47-.29-.13-.26-.03-.57.23-.7,1.72-.86,6.35-3.26,7.14-3.93.22-.19.55-.16.73.05.19.22.16.55-.05.74-1.03.89-6.71,3.75-7.35,4.08-.08.04-.15.06-.23.06Z" />
    <path class="cls-7"
      d="M31.88,122.6c-.11,0-.22-.04-.32-.11-.23-.17-.27-.5-.1-.73.02-.02,1.62-2.17,2.05-5.5.04-.29.3-.48.58-.45.29.04.49.3.45.58-.47,3.62-2.18,5.9-2.26,6-.1.13-.26.21-.41.21Z" />
    <path class="cls-7"
      d="M39.83,127.58c-1.72,0-5.44-1.7-5.86-1.9-.26-.12-.37-.43-.25-.69.12-.26.43-.38.69-.25,1.09.5,4.16,1.8,5.42,1.8.02,0,.04,0,.05,0,.28,0,.52.23.52.51,0,.29-.22.53-.51.53-.02,0-.04,0-.05,0Z" />
    <path class="cls-7"
      d="M22.97,130.23c-.21,0-.4-.12-.48-.33-.11-.27.02-.57.29-.68.67-.27,2.88-1.83,3.82-2.49.37-.26.62-.43.65-.45.26-.13.57-.02.7.23.12.25.03.55-.21.69-.06.04-.26.18-.54.38-1.69,1.19-3.35,2.33-4.03,2.61-.06.03-.13.04-.19.04Z" />
    <path class="cls-7"
      d="M28.95,123.14c-.08,0-.16-.02-.24-.06-.26-.13-2.53-1.3-3.35-2.22-.19-.21-.17-.54.04-.74.21-.19.54-.17.74.04.58.65,2.39,1.65,3.04,1.98.26.13.36.44.23.7-.09.18-.27.28-.46.28Z" />
    <path class="cls-7"
      d="M67.78,141.63s-.01,0-.02,0l-9.65-.32c-.29,0-.51-.25-.5-.54.01-.28.24-.5.52-.5,0,0,.01,0,.02,0l9.65.32c.29,0,.51.25.5.54-.01.28-.24.5-.52.5Z" />
    <path class="cls-7"
      d="M67.78,143.99h-4.03c-.29,0-.52-.23-.52-.52s.23-.52.52-.52h4.03c.29,0,.52.23.52.52s-.23.52-.52.52Z" />
    <path class="cls-7"
      d="M29.21,126.18c-.28,0-.51-.22-.52-.5l-.11-2.91c-.01-.29.21-.53.5-.54.31-.04.53.21.54.5l.11,2.91c.01.29-.21.53-.5.54,0,0-.01,0-.02,0Z" />
    <path class="cls-7"
      d="M32.69,129.33c-.29,0-.52-.23-.52-.52v-6.06c0-.29.23-.52.52-.52s.52.23.52.52v6.06c0,.29-.23.52-.52.52Z" />
    <path class="cls-7"
      d="M9.17,125.56c-.25,0-.47-.18-.51-.43-.49-2.77.71-5.62.86-5.83.16-.24.48-.3.72-.14.23.16.3.47.16.7-.17.32-1.11,2.79-.71,5.09.05.28-.14.55-.42.6-.03,0-.06,0-.09,0Z" />
    <path class="cls-7"
      d="M11.84,123.74c-.29,0-.52-.23-.52-.52v-1.66c0-.29.23-.52.52-.52s.52.23.52.52v1.66c0,.29-.23.52-.52.52Z" />
    <path class="cls-7"
      d="M38.34,117.19c-.06,0-.13-.01-.19-.04-.27-.11-.4-.41-.29-.68.72-1.84.51-7.69.39-8.34-.08-.19-.04-.42.12-.58.21-.2.54-.19.74.02.52.55.44,7.47-.28,9.29-.08.21-.28.33-.48.33Z" />
    <path class="cls-7"
      d="M35.69,116.8s-.02,0-.03,0c-.29-.01-.51-.26-.49-.55.09-1.76.22-4.44.22-4.61,0-.28.24-.52.52-.52h0c.29,0,.52.23.52.52,0,.17-.18,3.91-.22,4.65-.01.28-.24.5-.52.5Z" />
    <path class="cls-9"
      d="M39.9,71.02c-2.96,0-4.74-.28-5.3-.84-.16-.17-.25-.4-.25-.69-.15-2.56,5.88-16.57,10.13-22.68,3.98-5.72,3.86-7.91,3.69-10.93l-.04-.76c-.04-.91-.22-2.23-.41-3.62-.72-5.37-1.09-9.23.71-10.06,2.22-1.02,7.41-1.68,7.63-1.71.02,0,.04,0,.07,0,.24,0,.46.17.51.41,0,.02.5,2.27,1.27,5.38.57,2.29,1.45,5.71,2.46,9.07,2.66,8.76,4.14,10.12,4.65,10.3,3.39,1.2,10.49,4.89,10.87,8.67.22,2.22-.38,5.35-1.02,7.55-.29,1.01-.73,2.29-1.14,2.72-.67.7-9.44,2.81-14.6,4.01l-4.18.84s-3.39.84-7.18,1.67c-1.96.43-5.05.7-7.86.7Z" />
    <path class="cls-7"
      d="M56.12,20.24s.49,2.24,1.27,5.39c.66,2.66,1.52,5.95,2.47,9.09,1.61,5.29,3.45,10.11,4.97,10.64,3.5,1.24,10.19,4.86,10.52,8.23.21,2.12-.38,5.19-1,7.35-.38,1.28-.76,2.24-1.01,2.5-.67.69-14.35,3.87-14.35,3.87l-4.16.83s-3.36.83-7.19,1.67c-2,.44-5.11.69-7.75.69-2.42,0-4.46-.21-4.93-.69-.06-.06-.09-.17-.09-.32-.15-2.45,5.88-16.41,10.04-22.38,4.41-6.34,3.91-8.51,3.74-12.01-.17-3.51-2.17-12.19,0-13.19,2.17-1,7.47-1.67,7.47-1.67h0ZM56.13,19.19s-.09,0-.13,0c-.22.03-5.49.7-7.78,1.76-2.13.98-1.78,4.84-1.01,10.6.19,1.38.36,2.69.4,3.58.01.26.03.51.04.76.17,3.03.28,5.03-3.6,10.6-4.08,5.86-10.36,19.99-10.23,23.01,0,.42.14.77.4,1.03.27.27.99.99,5.67.99,2.85,0,5.98-.28,7.97-.71,3.81-.83,7.19-1.67,7.22-1.68l4.11-.82c14.01-3.26,14.65-3.92,14.89-4.16.15-.15.58-.61,1.26-2.93.65-2.24,1.26-5.45,1.04-7.74-.43-4.35-8.44-8.12-11.21-9.11-.15-.06-1.55-.84-4.32-9.96-1.01-3.34-1.89-6.76-2.46-9.04-.77-3.1-1.26-5.34-1.27-5.36-.11-.48-.53-.82-1.02-.82h0Z" />
    <path class="cls-1"
      d="M52.4,24.77c0-1.39,1.85-2.77,4.01-3.24-.19-.81-.29-1.3-.29-1.3,0,0-5.31.67-7.47,1.67-2.17,1-.17,9.67,0,13.19.17,3.5.67,5.67-3.74,12.01-4.16,5.97-10.19,19.93-10.04,22.38,0,.16.03.26.09.32.28.28,1.1.46,2.22.57,1.64-7.53,6.98-14.06,11.06-20.59,6.26-6.26,1.04-16.68,4.17-25.02Z" />
    <path class="cls-2"
      d="M74.36,60.94c-.38,1.28-.76,2.24-1.01,2.5-.67.69-14.35,3.87-14.35,3.87l-4.16.83s-3.36.83-7.19,1.67c-3.84.83-11.69,1-12.69,0-.06-.06-.09-.17-.09-.32,2.94-4.16,9.87-11.53,22.27-12.36,6.9-.47,11.51.64,14.55,2.14,1.07.52,1.95,1.11,2.67,1.68Z" />
    <path class="cls-1"
      d="M35.45,68.7c-.21.27-.4.54-.58.79,0,.16.03.26.09.32,1,1,8.85.83,12.69,0,3.84-.83,7.19-1.67,7.19-1.67l4.16-.83s13.68-3.18,14.35-3.87c.25-.26.64-1.22,1.01-2.5-.52-.42-1.13-.83-1.83-1.23-11.22,6.17-24.08,9.17-37.08,8.99Z" />
    <path class="cls-2" d="M53.63,44.52c-5.56.61-4.59,7.99,0,7.09,4.59-.9,5.49-7.69,0-7.09Z" />
    <path class="cls-7"
      d="M52.9,52.21c-1.08,0-2.04-.43-2.71-1.24-.93-1.13-1.16-2.79-.57-4.22.62-1.53,2.07-2.53,3.96-2.73h0c2.85-.31,4.09,1.19,4.32,2.7.33,2.16-1.27,4.85-4.17,5.41-.29.06-.57.08-.84.08ZM53.69,45.04h0c-1.53.17-2.63.91-3.11,2.09-.43,1.07-.27,2.34.41,3.17.59.72,1.5,1,2.54.8,2.28-.45,3.59-2.59,3.34-4.23-.21-1.36-1.38-2.02-3.18-1.82Z" />
    <path class="cls-8"
      d="M59.87,34.72c-.98.51-2.15.7-3.44.38-5.5-1.39-3.84-8.5.97-9.47.66,2.66,1.52,5.95,2.47,9.09Z" />
    <path class="cls-7"
      d="M57.69,35.77c-.46,0-.92-.06-1.39-.17-2.46-.62-3.89-2.39-3.84-4.74.06-2.32,1.77-5.12,4.83-5.74.28-.06.54.12.61.39.56,2.29,1.45,5.71,2.46,9.07.07.24-.04.5-.26.61-.76.39-1.58.59-2.42.59ZM57.02,26.26c-2.23.69-3.47,2.83-3.51,4.62-.04,1.86,1.07,3.21,3.05,3.71.94.24,1.84.18,2.68-.15-.89-2.99-1.68-6-2.22-8.17Z" />
    <path class="cls-7"
      d="M57.57,64.28c-.23,0-.44-.16-.5-.39-.07-.28.09-.56.37-.64.06-.02,6.51-1.73,12.17-5.21.24-.15.57-.07.72.17.15.24.07.57-.17.72-5.79,3.57-12.38,5.31-12.45,5.33-.04.01-.09.02-.13.02Z" />
    <path class="cls-7"
      d="M56.05,64.37c-.25,0-.47-.18-.51-.43-.03-.19.04-.37.17-.48.15-.17,2.48-2.87,3.93-6.62.1-.27.41-.4.67-.3.27.1.4.41.3.67-1.35,3.51-3.97,7.07-4.47,7.16-.03,0-.06,0-.09,0Z" />
    <path class="cls-7"
      d="M54.01,64.94c-.09,0-.19-.02-.27-.08-.09-.06-2.35-1.48-5.08-5.26-.17-.23-.12-.56.12-.73.23-.17.56-.12.73.12,2.6,3.6,4.77,4.97,4.79,4.99.24.15.32.47.17.72-.1.16-.27.25-.44.25Z" />
    <path class="cls-7"
      d="M51.19,65.81c-2.04,0-6.48-.17-11.09-1.46-.28-.08-.44-.37-.36-.64.08-.28.36-.44.64-.36,5.99,1.68,11.86,1.41,11.92,1.4.31-.02.53.21.55.49.02.29-.21.53-.49.55-.06,0-.48.02-1.16.02Z" />
    <path class="cls-7"
      d="M41.05,68.53c-2.68,0-4.75-.18-4.95-.2-.29-.03-.5-.28-.47-.57.03-.29.29-.5.57-.47.12,0,11.48,1.03,15.85-1.74.24-.15.57-.08.72.16.15.24.08.57-.16.72-2.73,1.73-7.76,2.1-11.56,2.1Z" />
    <path class="cls-7"
      d="M70.36,65.4s-.08,0-.12-.01c-.61-.07-7.89-.21-12.69-.3-.29,0-.52-.24-.51-.53s.22-.52.53-.51c12.75.22,12.88.3,13.03.37.25.13.35.45.22.7-.09.18-.27.28-.46.28Z" />
    <path class="cls-9"
      d="M63.78,93.61c-7.24-.9-11.31-3.41-11.77-7.24-.33-2.7-.4-9.81-.21-21.11,0-.18.1-.34.25-.44,1.74-1.06,3.49-1.59,5.2-1.59.11,0,.22,0,.34,0,.28.01.51.25.5.53-.21,11.64-.16,19.4.13,21.86.28.51,3.95,1.75,9.63,2.04.18,0,.34.11.42.26.09.15.09.34.02.5-.95,1.89-2.37,3.65-4.11,5.09-.09.08-.21.12-.33.12-.02,0-.04,0-.06,0Z" />
    <path class="cls-7"
      d="M57.25,63.75c.1,0,.21,0,.31,0-.15,8.34-.24,18.79.14,21.93.11.94,4.45,2.21,10.12,2.49-.96,1.91-2.34,3.57-3.97,4.92-5.12-.64-10.78-2.36-11.32-6.78-.41-3.41-.33-13.27-.2-21.04,1.54-.93,3.21-1.52,4.93-1.52h0ZM57.25,62.71c-1.8,0-3.64.56-5.47,1.67-.31.19-.5.52-.5.87-.19,11.33-.12,18.45.21,21.18.35,2.86,2.75,6.51,12.22,7.69.04,0,.09,0,.13,0,.24,0,.48-.08.66-.24,1.79-1.48,3.26-3.3,4.24-5.25.16-.31.15-.69-.03-.99-.18-.3-.5-.5-.85-.52-4.98-.25-8.41-1.24-9.16-1.79-.27-2.65-.31-10.28-.11-21.57.01-.57-.43-1.04-1-1.06-.12,0-.24,0-.36,0h0Z" />
    <path class="cls-6"
      d="M57.51,67.06c.02-1.12.03-2.23.05-3.31-1.83-.08-3.61.52-5.24,1.51-.01.68-.02,1.38-.03,2.08,1.73-.31,3.48-.39,5.22-.29Z" />
    <path class="cls-6"
      d="M57.44,75.72c-1.74.21-3.48.29-5.21.3,0,2.55.03,4.92.09,6.85,1.73-.29,3.45-.66,5.18-1.18-.04-1.71-.06-3.76-.05-5.97Z" />
    <path class="cls-2"
      d="M54.65,79.12c-5.89,0-11.89-.67-11.95-.67-.2-.02-.36-.15-.43-.34-.07-.18-.03-.39.11-.54,2.71-2.93,5.61-4.46,9.12-4.8h6.59c4.5.41,7.57,1.89,9.16,4.41.09.15.11.33.04.48-.07.16-.21.27-.38.31-.06.01-5.71,1.11-11.77,1.15h-.49Z" />
    <path class="cls-7"
      d="M58.09,73.29c4.22.38,7.18,1.74,8.72,4.17,0,0-5.59,1.1-11.68,1.14-.16,0-.32,0-.49,0-5.93,0-11.89-.67-11.89-.67,2.28-2.46,5.03-4.27,8.79-4.64h6.54ZM58.09,72.25h-6.54s-.07,0-.1,0c-3.59.36-6.68,1.98-9.45,4.97-.27.29-.35.7-.21,1.07s.47.63.86.67c.06,0,6.09.68,12.01.68h.49c6.11-.04,11.64-1.11,11.87-1.16.34-.07.62-.3.76-.61.14-.32.11-.68-.08-.97-1.69-2.67-4.89-4.23-9.51-4.65-.03,0-.06,0-.09,0h0Z" />
    <path class="cls-1"
      d="M46.14,75.11c-1.25.77-2.37,1.72-3.38,2.82,0,0,6.29.71,12.38.67,6.09-.04,11.68-1.14,11.68-1.14-.1-.15-.21-.29-.32-.43-6.96,1.26-14.13,1.64-20.35-1.92Z" />
    <path class="cls-7"
      d="M45.34,78.94c-.07,0-.15-.02-.22-.05-.26-.12-.37-.43-.25-.69,1.78-3.82,7.01-5.94,7.46-5.94.29,0,.52.23.52.52,0,.26-.18.47-.43.51-.24.08-5,1.88-6.61,5.34-.09.19-.28.3-.47.3Z" />
    <path class="cls-7"
      d="M50.76,79.54s-.1,0-.15-.02c-.27-.08-.43-.38-.35-.65.22-.7.47-1.41.75-2.09.11-.27.41-.4.68-.29.27.11.4.41.29.68-.27.65-.51,1.33-.71,2-.07.22-.28.37-.5.37Z" />
    <path class="cls-7"
      d="M52.47,75.39c-.08,0-.17-.02-.24-.06-.25-.13-.35-.45-.22-.7.54-1.01,1.27-2.25,1.75-2.35.28-.06.56.11.62.39.05.23-.06.47-.26.57-.14.14-.6.75-1.19,1.87-.09.18-.27.28-.46.28Z" />
    <path class="cls-7"
      d="M56.65,79.54h0c-.29,0-.52-.24-.51-.53.02-1.29-.15-3.36-1.08-5.92-.06-.16-.08-.21-.08-.31,0-.29.23-.52.52-.52.24,0,.44.16.5.39,1.01,2.8,1.19,5,1.17,6.38,0,.29-.24.51-.52.51ZM56.02,72.79h.01-.01Z" />
    <path class="cls-7"
      d="M62.58,79.12c-.24,0-.45-.16-.51-.4-.12-.48-.32-.97-.62-1.46-.15-.25-.07-.57.18-.72.24-.15.57-.07.71.18.35.58.6,1.17.74,1.75.07.28-.1.56-.38.63-.04.01-.08.01-.12.01Z" />
    <path class="cls-7"
      d="M60.12,75.39c-.13,0-.25-.05-.35-.14-1.35-1.24-2.76-2-2.77-2.01-.25-.14-.35-.45-.21-.7.14-.25.45-.35.71-.21.06.03,1.54.83,2.99,2.16.21.2.22.53.03.74-.1.11-.24.17-.38.17Z" />
    <path class="cls-7"
      d="M62.58,95.55c-.15,0-.3-.06-.4-.19-.18-.22-.15-.55.07-.73,5.38-4.44,6.61-8.33,6.87-10.25l.52.02.51.11c-.28,2.07-1.59,6.25-7.24,10.92-.1.08-.21.12-.33.12Z" />
    <path class="cls-7"
      d="M62.58,98.02c-.18,0-.35-.09-.45-.26-.15-.25-.06-.57.18-.71.76-.45,1.51-.98,2.24-1.58.22-.18.55-.15.73.07.18.22.15.55-.07.73-.76.64-1.56,1.2-2.37,1.68-.08.05-.17.07-.26.07Z" />
    <path class="cls-7"
      d="M66.81,94.56c-.13,0-.25-.05-.35-.14-.21-.2-.22-.53-.03-.74,3.1-3.36,4.88-7.55,4.76-11.21,0-.29.22-.53.5-.54.27-.04.53.22.54.5.13,3.92-1.76,8.39-5.04,11.95-.1.11-.24.17-.38.17Z" />
    <path class="cls-7"
      d="M65.21,92.58c-2.43,0-6.92-1.22-7.25-1.58-.2-.21-.18-.54.03-.74.17-.16.43-.18.63-.06.55.24,4.96,1.53,7.04,1.31.28-.02.54.18.57.46.03.29-.18.54-.46.57-.17.02-.35.03-.55.03Z" />
    <path class="cls-7"
      d="M65.96,90.8c-1.38,0-2.86-.29-4.55-.89-.27-.1-.41-.39-.32-.67.1-.27.4-.41.67-.32,2.06.73,3.76.97,5.33.76.27-.04.55.16.59.45.04.29-.16.55-.45.59-.42.06-.84.09-1.27.09Z" />
    <path class="cls-7"
      d="M54.44,68.4c-.29,0-.52-.23-.52-.52v-4.03c0-.29.23-.52.52-.52s.52.23.52.52v4.03c0,.29-.23.52-.52.52Z" />
    <path class="cls-7"
      d="M55.72,66.72c-.29,0-.52-.23-.52-.52v-2.65c0-.29.23-.52.52-.52s.52.23.52.52v2.65c0,.29-.23.52-.52.52Z" />
    <path class="cls-7"
      d="M61.39,60.95c-.14,0-.28-.06-.38-.17-.19-.21-.18-.54.03-.74.78-.72,1.56-1.61,2.12-2.26.81-.93.95-1.1,1.31-1.06.29.03.49.29.46.58-.02.19-.14.34-.3.41-.12.11-.42.45-.68.76-.58.67-1.38,1.58-2.21,2.34-.1.09-.23.14-.35.14Z" />
    <path class="cls-7"
      d="M66.81,63.34c-.29,0-.52-.23-.52-.52,0-.27.2-.49.46-.52.33-.05,6.27-1.2,7.35-1.61.27-.1.57.04.67.31.1.27-.04.57-.31.67-1.17.43-7.43,1.67-7.66,1.67Z" />
    <path class="cls-7"
      d="M54.65,62.39c-.15,0-.3-.06-.41-.17-.12-.12-.47-.48-.89-4.36-.03-.29.18-.54.46-.58.28-.03.54.17.58.46.17,1.58.47,3.49.64,3.8.2.21.18.51-.03.71-.1.09-.22.14-.35.14Z" />
    <path class="cls-7"
      d="M67.82,58.32c-.06,0-.13-.01-.19-.04-.27-.11-.4-.41-.29-.68.16-.45.3-4.06.3-4.61,0-.29.23-.52.52-.52s.52.23.52.52c0,.04-.1,4.3-.37,4.99-.08.21-.28.33-.48.33Z" />
    <path class="cls-7"
      d="M73.1,60.35c-.07,0-.14-.01-.2-.04-.27-.11-.39-.42-.28-.68.04-.15.08-.87-.15-3.87-.02-.25-.03-.41-.03-.44,0-.29.23-.52.52-.52s.52.23.52.51c0,.04.01.17.03.36.25,3.17.22,4.02.08,4.36-.08.2-.28.32-.48.32ZM73.47,55.32h.01-.01Z" />
    <path class="cls-7"
      d="M43.76,61.74c-.19,0-.37-.1-.46-.28-.9-1.7-.65-5.67-.4-6.08.15-.25.47-.33.71-.18.22.13.31.41.22.64-.12.5-.33,3.76.39,5.13.13.25.04.57-.22.7-.08.04-.16.06-.24.06Z" />
    <path class="cls-7"
      d="M60.12,46.73c-.24,0-.46-.17-.51-.41-.06-.28.12-.56.4-.62,1.37-.3,4.2-1.3,4.23-1.31.27-.1.57.04.67.32.1.27-.04.57-.32.67-.12.04-2.92,1.04-4.35,1.35-.04,0-.07.01-.11.01Z" />
    <path class="cls-7"
      d="M65.25,57.88c-.29,0-.52-.23-.52-.52v-1.7c0-.29.23-.52.52-.52s.52.23.52.52v1.7c0,.29-.23.52-.52.52Z" />
    <path class="cls-7"
      d="M41.38,63.34c-.26,0-.48-.19-.52-.45-.48-3.46-.43-3.53-.32-3.72.15-.25.47-.33.71-.18.19.11.28.32.25.53,0,.3.2,1.85.39,3.23.04.29-.16.55-.44.59-.02,0-.05,0-.07,0Z" />
    <path class="cls-7"
      d="M34.66,70.41c-.1,0-.21-.03-.3-.1-.24-.17-.29-.49-.12-.73.01-.02.07-.12.12-.22.08-.15.17-.3.19-.33,3.07-4.28,10.08-11.6,22.55-12.44,6.05-.41,11.04.32,14.82,2.19.99.48,1.92,1.06,2.76,1.74.17.13.24.35.18.55-.24.82-.71,2.27-1.14,2.72-.2.21-.53.21-.74.01-.21-.2-.21-.53-.02-.74.11-.12.41-.75.78-1.95-.71-.54-1.48-1.01-2.29-1.4-3.62-1.78-8.42-2.49-14.29-2.09-12.05.81-18.82,7.87-21.78,12-.01.02-.07.13-.13.23-.08.14-.16.28-.18.31-.1.14-.26.22-.43.22Z" />
    <path class="cls-9"
      d="M99,66.98c-6.57-.53-17.61-1.66-18.14-3.39-.05-.17-.11-.44-.15-.81-.25-1.93-1.04-15.52.37-16.45.19-.13.67-.41,1.31-.81,5.38-3.25,8.23-5.21,8.47-5.83,0-.16-.18-1.55-.37-3.16-1.42-11.84-2.08-19.43-.99-20.65,1.26-1.42,9.62-9.86,11.77-10.63.06-.02.19-.04.25-.04,1.2,0,1.65,2.62,2.95,12.95.44,3.47.89,7.06,1.39,10.05.95,5.73,1.67,6.32,1.81,6.37l.25.04c.28.05.61.11.97.18,6.52,1.25,10.02,3,10.39,5.2.11.67.41,1.8.76,3.12,1.26,4.76,3.15,11.94,1.54,15.7-.15.37-.38.73-.68,1.07-3.44,4.23-16.02,6.96-16.55,7.07-.04,0-.07.01-.11.01h-5.22Z" />
    <path class="cls-7"
      d="M101.52,5.73c1.32,0,2.36,13.89,3.82,22.56.64,3.84,1.37,6.65,2.22,6.8.33.06.75.14,1.21.23,3.39.65,9.54,2.13,9.98,4.77.5,3,4.34,13.86,2.34,18.53-.14.32-.33.64-.59.94-3.38,4.15-16.26,6.9-16.26,6.9h-5.22s-17.14-1.38-17.64-3.02c-.04-.15-.09-.39-.14-.72-.44-3.36-.78-15.35.14-15.95,1-.67,10.01-5.84,10.01-7.01s-2.96-21.86-1.48-23.53c1.48-1.67,9.62-9.79,11.56-10.49.02,0,.05-.01.07-.01h0ZM101.52,4.69c-.14,0-.29.02-.42.07-2.37.85-11.05,9.72-11.99,10.78-1.09,1.23-.87,6.54.86,21.06.15,1.27.3,2.48.34,2.97-.61.74-3.36,2.59-8.19,5.51-.68.41-1.13.68-1.34.82-.51.34-1.09.72-1.04,7.82.03,3.44.22,7.37.45,9.13.05.42.12.71.17.87.22.71.71,2.34,18.56,3.78.03,0,.06,0,.08,0h5.22c.07,0,.15,0,.22-.02.54-.12,13.29-2.88,16.85-7.26.31-.36.57-.77.75-1.19,1.68-3.91-.25-11.2-1.52-16.03-.34-1.3-.64-2.42-.75-3.07-.41-2.48-3.95-4.32-10.81-5.63-.33-.07-.65-.13-.93-.18l-.13-.02c-.2-.27-.79-1.42-1.54-5.97-.5-2.98-.95-6.56-1.38-10.03-1.4-11.21-1.82-13.4-3.47-13.4h0Z" />
    <path class="cls-1"
      d="M94.1,48.75c0-15.17-5.17-32.07,8.02-42.06-.22-.67-.44-1.03-.67-.94-1.94.7-10.08,8.82-11.56,10.49-1.48,1.67,1.48,22.36,1.48,23.53s-9.01,6.34-10.01,7.01c-.92.6-.57,12.59-.14,15.95.04.33.09.57.14.72.06.19.34.38.79.56.23-8.34,2.39-15.88,11.95-15.25Z" />
    <path class="cls-6"
      d="M120.49,59.56c-3.38,4.15-16.26,6.9-16.26,6.9h-5.22s-17.14-1.38-17.64-3.02c-.04-.15-.09-.39-.14-.72.63-2.41,2.03-5.28,5.15-6.41,3.08-1.12,16.18-4.36,24.7-1.69,4.35,1.37,7.43,3.34,9.41,4.94Z" />
    <path class="cls-2"
      d="M120.49,59.56c-1-.81-2.27-1.71-3.85-2.58-2.28,3.9-5.66,6.47-9.45,8.75,4.02-1.08,10.95-3.29,13.3-6.17Z" />
    <path class="cls-8" d="M95.49,38.94c4.27-1.46,8.18,10.48.6,11.88-7.59,1.4-7.89-9.38-.6-11.88Z" />
    <path class="cls-7"
      d="M94.78,51.46c-2.85,0-4.39-1.83-4.88-3.73-.86-3.28.97-7.77,5.43-9.29h0c1.1-.38,2.25-.05,3.26.92,1.92,1.84,2.83,5.49,2.03,8.13-.44,1.46-1.56,3.3-4.43,3.83-.5.09-.97.13-1.41.13ZM95.66,39.43h0c-3.89,1.33-5.5,5.21-4.76,8.04.59,2.25,2.5,3.3,5.09,2.83,2.35-.43,3.27-1.93,3.62-3.11.75-2.5-.3-5.68-1.76-7.08-.5-.48-1.29-1-2.2-.68Z" />
    <path class="cls-2"
      d="M108.77,35.32c-2.11,2.41-7.37,1.61-8.82-1.48-1.5-3.16.96-5.41,5.39-5.55.64,3.84,1.37,6.65,2.22,6.8.33.06.75.14,1.21.23Z" />
    <path class="cls-7"
      d="M105.21,37.25c-.34,0-.68-.02-1.03-.07-2.14-.3-3.95-1.5-4.71-3.12-.66-1.39-.66-2.7,0-3.79.92-1.5,3.05-2.42,5.84-2.5h.02c.25,0,.47.18.51.44.95,5.73,1.67,6.31,1.81,6.37l.29.05c.28.05.59.11.93.18.18.04.33.17.39.34.06.18.02.37-.1.51-.89,1.02-2.33,1.59-3.95,1.59ZM104.91,28.84c-2.2.15-3.84.86-4.53,1.98-.48.79-.47,1.73.04,2.8.61,1.31,2.11,2.28,3.91,2.53,1.22.17,2.39-.02,3.25-.52l-.11-.02c-.86-.15-1.64-1.37-2.56-6.77Z" />
    <path class="cls-2" d="M94.37,15.68c-3.09.56-4.58,8.88,0,9.18,4.58.3,7.69-10.58,0-9.18Z" />
    <path class="cls-7"
      d="M94.55,25.39c-.07,0-.15,0-.22,0-1.98-.13-3.25-1.62-3.38-3.98-.15-2.64,1.18-5.84,3.32-6.23h0c2.66-.48,3.96.44,4.58,1.31,1.21,1.68.74,4.25-.26,6.04-1.01,1.81-2.51,2.87-4.04,2.87ZM95.63,16.08c-.41,0-.81.05-1.17.11,0,0,0,0,0,0-1.38.25-2.6,2.8-2.47,5.15.06,1.07.46,2.87,2.41,3,1.2.09,2.43-.79,3.28-2.33.99-1.78,1.12-3.81.32-4.93-.55-.77-1.47-1-2.37-1ZM94.37,15.68h.01-.01Z" />
    <path class="cls-7"
      d="M96.06,63.68c-6.6,0-13.3-3.75-13.62-3.93-.25-.14-.34-.46-.2-.71.14-.25.46-.34.71-.2.09.05,8.78,4.91,15.75,3.56.28-.05.56.13.61.41.05.28-.13.56-.41.61-.93.18-1.88.26-2.84.26Z" />
    <path class="cls-7"
      d="M99.76,62.18c-1.91,0-8.87-5.37-10.25-6.45-.23-.18-.27-.5-.09-.73.18-.23.5-.27.73-.09,3.07,2.41,8.4,6.23,9.6,6.23.29,0,.52.23.52.52s-.23.52-.52.52Z" />
    <path class="cls-7"
      d="M101.18,61.66c-.25,0-.47-.18-.51-.43-.49-2.7-1.24-6.79-1.32-7.15-.07-.23.03-.49.24-.61.25-.14.57-.05.71.2.06.1.08.15,1.39,7.37.05.28-.14.55-.42.61-.03,0-.06,0-.09,0Z" />
    <path class="cls-7"
      d="M103.29,62.02c-.19,0-.37-.1-.46-.28-.13-.26-.03-.57.22-.7.04-.02,4.27-2.31,6.46-6.76.13-.26.44-.36.7-.24.26.13.36.44.24.7-2.36,4.79-6.88,7.21-6.92,7.23-.08.04-.16.06-.24.06Z" />
    <path class="cls-7"
      d="M104.51,63.04c-.3,0-.48,0-.54,0-.29,0-.51-.25-.5-.54,0-.28.24-.51.52-.51.01,0,.03,0,.4,0,1.86,0,10.03-.21,13.76-3.88.21-.2.54-.2.74,0,.2.21.2.54,0,.74-3.98,3.9-12.18,4.18-14.37,4.18Z" />
    <path class="cls-1"
      d="M125.54,135.4c-.4.73-1.11,1.28-1.92,1.42-10.32,1.37-17.17,1.88-21.73,1.88-4.19,0-6.44-.44-7.69-1.04l-1.02.56c1.64,1.01,3.35,2.56,8.71,2.56s13.53-1.05,22.15-2.99l1.5-2.4Z" />
    <path class="cls-1"
      d="M124.79,130.93s-12.05.3-22.87.95c-.98,0-3.08-.46-3.56-.51l-.29,2.24c.7.25,2.06.35,3.85.35,5.76,0,15.99-1.09,22.99-2.02.01.01.03.03.04.04l-.16-1.06Z" />
    <path class="cls-7"
      d="M94.64,66.9c-.16,0-.32-.08-.42-.22-.17-.23-.11-.56.12-.73,1.11-.79,6.64-4.74,6.91-4.9.21-.12.48-.08.65.1.03.03,3.03,3.32,6.16,4.1.28.07.45.35.38.63-.07.28-.35.45-.63.38-2.85-.71-5.48-3.18-6.36-4.08-1.05.74-4.27,3.03-6.5,4.62-.09.07-.2.1-.3.1Z" />
    <path class="cls-9"
      d="M101.88,139.22c-8.38,0-9.46-1.73-9.89-3.65-.14-.62.1-1.87.63-4.6,1.14-5.89,3.51-18.15,5.01-40.57.89-13.4.75-25.82.65-27.47.04-1.49,1.84-2.27,3.51-2.27,1.58,0,2.64.71,2.72,1.81.1,1.53.3,4.7-1.35,29.35-.53,7.97-2.1,18.18-3.37,26.39-1.06,6.86-2.15,13.96-1.76,14.82.02.01.51.4,3.88.4,5.7,0,15.91-1.09,22.92-2.01.02,0,.05,0,.07,0,.14,0,.27.05.37.15,1.01.99,1.37,2.25.99,3.47-.37,1.19-1.37,2.09-2.56,2.29-9.47,1.26-16.81,1.89-21.82,1.89Z" />
    <path class="cls-7"
      d="M101.8,61.19c1.12,0,2.14.41,2.2,1.32.1,1.6.27,5.05-1.35,29.28-1.05,15.7-6.11,39.93-5.05,41.52.31.46,1.93.65,4.32.65,5.76,0,15.99-1.09,22.99-2.02,2,1.96.62,4.54-1.29,4.88-10.32,1.37-17.17,1.88-21.73,1.88-8.66,0-9.07-1.85-9.38-3.24-.39-1.74,3.51-13.07,5.65-45.01.9-13.52.75-25.96.65-27.53.03-1.08,1.59-1.72,2.99-1.72h0ZM101.8,60.14c-1.92,0-3.99.96-4.03,2.74,0,.03,0,.06,0,.09.1,1.64.24,14.03-.65,27.4-1.5,22.38-3.86,34.62-5,40.5-.56,2.88-.79,4.08-.63,4.81.48,2.14,1.63,4.06,10.4,4.06,5.04,0,12.4-.64,21.87-1.89,1.42-.25,2.58-1.29,3.01-2.66.44-1.41.03-2.86-1.13-3.99-.2-.19-.46-.3-.73-.3-.05,0-.09,0-.14,0-6.99.93-17.18,2.01-22.85,2.01-2.21,0-3.09-.17-3.42-.26-.15-1.57.85-8.06,1.82-14.35,1.26-8.22,2.84-18.45,3.37-26.44,1.65-24.69,1.45-27.88,1.35-29.42-.09-1.4-1.36-2.3-3.24-2.3h0Z" />
    <path class="cls-6"
      d="M103.99,62.51c-.14-2.07-5.14-1.54-5.19.4.04.68.09,3.44.06,7.44,1.69.17,3.36.24,5.02.27.24-5.66.16-7.19.11-8.11Z" />
    <path class="cls-6"
      d="M98.55,83.12c-.1,2.36-.23,4.82-.4,7.32-.25,3.73-.52,7.17-.81,10.36,1.44.3,2.9.5,4.35.56.41-3.35.75-6.61.95-9.57.23-3.37.42-6.33.58-8.95-1.54.16-3.1.24-4.67.28Z" />
    <path class="cls-6"
      d="M124.9,131.94c-2.2.29-4.71.6-7.3.88-.44,1.74-1.15,3.4-2.09,4.97,2.43-.26,5.12-.58,8.11-.98,1.91-.33,3.29-2.91,1.29-4.88Z" />
    <path class="cls-1"
      d="M98.8,62.91c.09,1.57.25,14.01-.65,27.53-2.14,31.95-6.03,43.28-5.65,45.01.16.73.37,1.6,1.8,2.25-.87-.53-1.06-1.94-.9-3.12.79-6.09,2.84-12.61,3.43-18.72,1.24-12.91,2.05-25.89,2.53-39.01.19-5.14-.53-14.7-.55-13.95Z" />
    <path class="cls-2"
      d="M98.87,94c-3.88,0-9.26-.49-12.88-2.8-.06-.04-.1-.07-.13-.08-.16-.06-.27-.18-.31-.35-.05-.17.02-.34.13-.47,4.74-5.45,11.77-6.9,12.07-6.96h6.24c4.84-.01,11.79,3.87,12.82,7.14.08.25-.04.52-.28.63-.22.1-5.61,2.54-16.13,2.86-.53.02-1.04.02-1.54.02h0Z" />
    <path class="cls-7"
      d="M103.99,83.85c4.7,0,11.4,3.84,12.33,6.79,0,0-5.39,2.5-15.93,2.81-.52.02-1.03.02-1.52.02-9.36,0-12.51-2.74-12.8-2.84,4.68-5.38,11.78-6.79,11.78-6.79h6.14ZM103.99,82.81h-6.14c-.07,0-.14,0-.2.02-.3.06-7.51,1.55-12.36,7.13-.23.26-.31.62-.22.96.08.29.28.53.55.66l.09.06c3.73,2.38,9.21,2.88,13.16,2.88.5,0,1.02,0,1.55-.02,10.63-.32,16.11-2.8,16.33-2.91.48-.22.71-.76.56-1.26-1.08-3.44-8.3-7.52-13.32-7.52h0Z" />
    <path class="cls-1"
      d="M86.07,90.64c.3.1,3.78,3.13,14.32,2.81,3.85-.12,7-.52,9.46-.99-6.68-.16-13.17-1.89-18.5-6.05-1.79,1.01-3.67,2.38-5.28,4.22Z" />
    <path class="cls-7"
      d="M80.91,64.07s-.09,0-.13-.02c-.28-.07-.45-.36-.37-.64.13-.51.61-1.86.82-2.39,1.03-2.63,2.7-4.39,4.98-5.21,3.77-1.37,16.7-4.31,25.03-1.7,4.56,1.43,7.73,3.53,9.59,5.03.22.18.26.51.08.73-.18.22-.51.26-.73.08-1.79-1.45-4.84-3.47-9.24-4.85-8.75-2.74-22.1.86-24.36,1.68-1.98.72-3.45,2.27-4.36,4.61-.2.51-.67,1.82-.78,2.27-.06.23-.27.39-.5.39Z" />
    <path class="cls-7"
      d="M90.12,92.95c-.08,0-.16-.02-.24-.06-.26-.13-.36-.44-.23-.7.77-1.53,2.13-3.2,4.05-4.97.21-.19.54-.18.74.03.2.21.18.54-.03.74-1.83,1.69-3.11,3.26-3.83,4.68-.09.18-.27.29-.47.29Z" />
    <path class="cls-7"
      d="M96.28,86.22c-.15,0-.31-.07-.41-.2-.18-.23-.14-.55.08-.73,1.44-1.14,2.51-1.85,2.56-1.88.24-.16.56-.09.72.15.16.24.09.56-.15.72-.01,0-1.09.72-2.48,1.82-.1.08-.21.11-.32.11Z" />
    <path class="cls-7"
      d="M100.39,93.97c-.25,0-.46-.17-.51-.42-.03-.14-.1-.52.11-4.21.02-.29.28-.52.55-.49.29.02.51.26.49.55-.18,3.29-.14,3.87-.12,3.96.05.28-.14.55-.42.61-.03,0-.06,0-.09,0Z" />
    <path class="cls-7"
      d="M100.7,86.67s-.02,0-.03,0c-.29-.02-.5-.27-.49-.55.08-1.26.15-2.21.16-2.32.03-.29.28-.5.58-.46.29.03.49.29.46.58-.01.11-.08,1.03-.16,2.27-.02.28-.25.49-.52.49Z" />
    <path class="cls-7"
      d="M112.84,92.31c-.28,0-.51-.22-.52-.5,0-.01-.02-.32-.87-1.21-.2-.21-.19-.54.02-.74.21-.2.54-.19.74.02.78.82,1.14,1.4,1.16,1.89.01.29-.21.53-.5.54,0,0-.01,0-.02,0Z" />
    <path class="cls-7"
      d="M109.48,88.66c-.12,0-.23-.04-.33-.12-2.46-1.99-5.43-4.01-5.78-4.21-.18-.08-.31-.26-.31-.48,0-.29.23-.52.52-.52.46,0,4.96,3.37,6.23,4.4.22.18.26.51.08.73-.1.13-.25.19-.4.19Z" />
    <path class="cls-7"
      d="M95.37,93.62s-.07,0-.11-.01c-.28-.06-.46-.34-.4-.62.32-1.44.9-2.98,1.72-4.56.39-.75.85-1.53,1.37-2.33.16-.24.48-.31.72-.15.24.16.31.48.15.72-.5.77-.94,1.53-1.32,2.25-.79,1.5-1.33,2.95-1.63,4.3-.05.24-.27.41-.51.41Z" />
    <path class="cls-7"
      d="M110.58,60.14c-.25,0-.47-.18-.51-.43-.05-.28.13-.55.41-.61.04,0,1.75-.4,4.44-3.19.2-.21.53-.21.74-.01.21.2.21.53.01.74-2.98,3.08-4.91,3.47-4.99,3.49-.03,0-.06,0-.1,0Z" />
    <path class="cls-7"
      d="M103.99,57s-.08,0-.11-.01c-.28-.06-.46-.34-.4-.62l.64-2.88c.06-.28.34-.46.62-.4.28.06.46.34.4.62l-.64,2.88c-.05.24-.27.41-.51.41Z" />
    <path class="cls-7"
      d="M99.85,61.44c-.13,0-.26-.05-.36-.15-.08-.08-1.94-1.87-2.54-3.11-.13-.26-.02-.57.24-.7.26-.13.57-.02.7.24.52,1.08,2.31,2.8,2.32,2.82.21.2.21.53.01.74-.1.11-.24.16-.38.16Z" />
    <path class="cls-7"
      d="M90.75,65.31c-.25,0-.48-.19-.52-.45-.04-.29.16-.55.44-.59,1.59-.23,6.66-1.11,7.04-1.22.27-.08.56.07.65.33.09.27-.04.55-.3.65-.35.13-5.89,1.07-7.23,1.27-.03,0-.05,0-.08,0Z" />
    <path class="cls-7"
      d="M112.27,64.58c-3.44,0-7.68-.87-7.89-.92-.28-.06-.46-.33-.4-.62.06-.28.33-.46.62-.4.06.01,6.18,1.27,9.5.78.28-.04.55.15.59.44.04.28-.15.55-.44.59-.6.09-1.27.13-1.98.13Z" />
    <path class="cls-7"
      d="M112.93,135.11c-.27,0-.5-.21-.52-.48-.02-.29.19-.54.48-.56,5.04-.37,9.51-.75,13.03-1.57.28-.06.56.11.63.39.07.28-.11.56-.39.63-3.6.83-8.1,1.21-13.19,1.59-.01,0-.03,0-.04,0Z" />
    <path class="cls-7"
      d="M120.16,136.63c-.26,0-.48-.19-.52-.46-.03-.29.17-.55.45-.58,2.04-.25,5.26-.67,5.78-.84.28-.09.57.07.65.34.09.27-.07.57-.34.65-.78.25-5.44.82-5.97.88-.02,0-.04,0-.06,0Z" />
    <path class="cls-7"
      d="M114.97,137.39c-.27,0-.49-.2-.52-.47-.03-.29.19-.54.47-.57l2.66-.24c.28-.03.54.18.57.47.03.29-.19.54-.47.57l-2.66.24s-.03,0-.05,0Z" />
    <path class="cls-7"
      d="M5.86,128.74c-.09,0-.17-.02-.25-.07-.25-.14-.34-.46-.2-.71.94-1.69,2.67-3.11,5.14-4.23,2.79-1.25,5.54-2.64,8.19-3.98,5.2-2.63,9.32-4.73,11.42-4.58,2.72.15,17.33,1.63,21.17,4.93.12.1.18.24.18.4,0,.29-.23.54-.52.54-.19,0-.35-.09-.44-.23-3.75-3.01-17.96-4.45-20.45-4.59-1.84-.09-6.03,2.02-10.89,4.47-2.66,1.34-5.41,2.74-8.23,4-2.27,1.02-3.83,2.29-4.66,3.78-.09.17-.27.27-.46.27Z" />
    <path class="cls-5"
      d="M69.13,26.49h-2.6v-6.11c0-.71-.58-1.28-1.28-1.28s-1.28.57-1.28,1.28v6.11h-2.59c-.71,0-1.28.57-1.28,1.28s.57,1.28,1.28,1.28h2.59v6.11c0,.71.57,1.28,1.28,1.28s1.28-.57,1.28-1.28v-6.11h2.6c.71,0,1.28-.57,1.28-1.28s-.58-1.28-1.28-1.28Z" />
    <path class="cls-7"
      d="M65.25,36.91c-.96,0-1.74-.78-1.74-1.74v-5.65h-2.14c-.96,0-1.74-.78-1.74-1.74s.78-1.74,1.74-1.74h2.14v-5.65c0-.96.78-1.74,1.74-1.74s1.74.78,1.74,1.74v5.65h2.14c.96,0,1.74.78,1.74,1.74s-.78,1.74-1.74,1.74h-2.14v5.65c0,.96-.78,1.74-1.74,1.74ZM61.37,26.95c-.46,0-.83.37-.83.83s.37.83.83.83h3.05v6.56c0,.46.37.83.83.83s.83-.37.83-.83v-6.56h3.05c.46,0,.83-.37.83-.83s-.37-.83-.83-.83h-3.05v-6.56c0-.46-.37-.83-.83-.83s-.83.37-.83.83v6.56h-3.05Z" />
    <path class="cls-8"
      d="M18.55,93.24h-2.59v-6.11c0-.71-.57-1.28-1.28-1.28s-1.28.57-1.28,1.28v6.11h-2.59c-.71,0-1.28.57-1.28,1.28s.57,1.28,1.28,1.28h2.59v6.11c0,.71.57,1.28,1.28,1.28s1.28-.57,1.28-1.28v-6.11h2.59c.71,0,1.28-.57,1.28-1.28s-.58-1.28-1.28-1.28Z" />
    <path class="cls-7"
      d="M14.67,103.65c-.96,0-1.74-.78-1.74-1.74v-5.65h-2.14c-.96,0-1.74-.78-1.74-1.74s.78-1.74,1.74-1.74h2.14v-5.65c0-.96.78-1.74,1.74-1.74s1.74.78,1.74,1.74v5.65h2.14c.96,0,1.74.78,1.74,1.74s-.78,1.74-1.74,1.74h-2.14v5.65c0,.96-.78,1.74-1.74,1.74ZM10.79,93.69c-.46,0-.83.37-.83.83s.37.83.83.83h3.05v6.56c0,.46.37.83.83.83s.83-.37.83-.83v-6.56h3.05c.46,0,.83-.37.83-.83s-.37-.83-.83-.83h-3.05v-6.56c0-.46-.37-.83-.83-.83s-.83.37-.83.83v6.56h-3.05Z" />
    <path class="cls-9"
      d="M130.81,95.4h-2.59v-6.11c0-.71-.58-1.28-1.28-1.28s-1.28.57-1.28,1.28v6.11h-2.59c-.71,0-1.28.57-1.28,1.28s.58,1.28,1.28,1.28h2.59v6.11c0,.71.57,1.28,1.28,1.28s1.28-.57,1.28-1.28v-6.11h2.59c.71,0,1.28-.57,1.28-1.28s-.58-1.28-1.28-1.28Z" />
    <path class="cls-7"
      d="M126.93,105.81c-.96,0-1.74-.78-1.74-1.74v-5.65h-2.14c-.96,0-1.74-.78-1.74-1.74s.78-1.74,1.74-1.74h2.14v-5.65c0-.96.78-1.74,1.74-1.74s1.74.78,1.74,1.74v5.65h2.14c.96,0,1.74.78,1.74,1.74s-.78,1.74-1.74,1.74h-2.14v5.65c0,.96-.78,1.74-1.74,1.74ZM123.05,95.85c-.46,0-.83.37-.83.83s.37.83.83.83h3.05v6.56c0,.46.37.83.83.83s.83-.37.83-.83v-6.56h3.05c.46,0,.83-.37.83-.83s-.37-.83-.83-.83h-3.05v-6.56c0-.46-.37-.83-.83-.83s-.83.37-.83.83v6.56h-3.05Z" />
    <path class="cls-3"
      d="M151.74,64.64h-2.59v-6.11c0-.71-.57-1.28-1.28-1.28s-1.28.58-1.28,1.28v6.11h-2.6c-.71,0-1.28.57-1.28,1.28s.57,1.28,1.28,1.28h2.6v6.11c0,.71.58,1.28,1.28,1.28s1.28-.57,1.28-1.28v-6.11h2.59c.71,0,1.28-.58,1.28-1.28s-.57-1.28-1.28-1.28Z" />
    <path class="cls-7"
      d="M147.87,75.05c-.96,0-1.74-.78-1.74-1.74v-5.65h-2.14c-.96,0-1.74-.78-1.74-1.74s.78-1.74,1.74-1.74h2.14v-5.65c0-.96.78-1.74,1.74-1.74s1.74.78,1.74,1.74v5.65h2.14c.96,0,1.74.78,1.74,1.74s-.78,1.74-1.74,1.74h-2.14v5.65c0,.96-.78,1.74-1.74,1.74ZM143.99,65.09c-.46,0-.83.37-.83.83s.37.83.83.83h3.05v6.56c0,.46.37.83.83.83s.83-.37.83-.83v-6.56h3.05c.46,0,.83-.37.83-.83s-.37-.83-.83-.83h-3.05v-6.56c0-.46-.37-.83-.83-.83s-.83.37-.83.83v6.56h-3.05Z" />
    <path class="cls-8"
      d="M179.49,33.21h-2.59v-6.11c0-.71-.57-1.28-1.28-1.28s-1.28.58-1.28,1.28v6.11h-2.59c-.71,0-1.28.57-1.28,1.28s.58,1.28,1.28,1.28h2.59v6.11c0,.71.58,1.28,1.28,1.28s1.28-.57,1.28-1.28v-6.11h2.59c.71,0,1.28-.58,1.28-1.28s-.57-1.28-1.28-1.28Z" />
    <path class="cls-7"
      d="M175.61,43.62c-.96,0-1.74-.78-1.74-1.74v-5.65h-2.14c-.96,0-1.74-.78-1.74-1.74s.78-1.74,1.74-1.74h2.14v-5.65c0-.96.78-1.74,1.74-1.74s1.74.78,1.74,1.74v5.65h2.14c.96,0,1.74.78,1.74,1.74s-.78,1.74-1.74,1.74h-2.14v5.65c0,.96-.78,1.74-1.74,1.74ZM171.73,33.66c-.46,0-.83.37-.83.83s.37.83.83.83h3.05v6.56c0,.46.37.83.83.83s.83-.37.83-.83v-6.56h3.05c.46,0,.83-.37.83-.83s-.37-.83-.83-.83h-3.05v-6.56c0-.46-.37-.83-.83-.83s-.83.37-.83.83v6.56h-3.05Z" />
    <path class="cls-5"
      d="M128.65,34.72h-2.59v-6.11c0-.71-.58-1.28-1.28-1.28s-1.28.57-1.28,1.28v6.11h-2.59c-.71,0-1.28.57-1.28,1.28s.57,1.28,1.28,1.28h2.59v6.11c0,.71.57,1.28,1.28,1.28s1.28-.57,1.28-1.28v-6.11h2.59c.71,0,1.28-.58,1.28-1.28s-.57-1.28-1.28-1.28Z" />
    <path class="cls-7"
      d="M124.77,45.14c-.96,0-1.74-.78-1.74-1.74v-5.65h-2.14c-.96,0-1.74-.78-1.74-1.74s.78-1.74,1.74-1.74h2.14v-5.65c0-.96.78-1.74,1.74-1.74s1.74.78,1.74,1.74v5.65h2.14c.96,0,1.74.78,1.74,1.74s-.78,1.74-1.74,1.74h-2.14v5.65c0,.96-.78,1.74-1.74,1.74ZM120.9,35.18c-.46,0-.83.37-.83.83s.37.83.83.83h3.05v6.56c0,.46.37.83.83.83s.83-.37.83-.83v-6.56h3.05c.46,0,.83-.37.83-.83s-.37-.83-.83-.83h-3.05v-6.56c0-.46-.37-.83-.83-.83s-.83.37-.83.83v6.56h-3.05Z" />
  </g>
</svg>