<?xml version="1.0" encoding="UTF-8"?>
<svg id="Capa_2" xmlns="http://www.w3.org/2000/svg" viewBox="0 0 217.17 216.05">
  <defs>
    <style>
      .cls-1 {
        fill: aqua;
      }

      .cls-2 {
        fill: #fff;
      }

      .cls-3 {
        fill: #862291;
      }

      .cls-4 {
        fill: #1b1464;
      }

      .cls-5 {
        fill: #fcee21;
      }

      .cls-6 {
        fill: #ed1e79;
      }
    </style>
  </defs>
  <g id="_0">
    <path class="cls-2"
      d="M68.05,47.36c-.4,1.22,4.1,17.46,4.63,16.21.53-1.25,15.27-17.4,13.69-17.09-1.58.32-18.32.88-18.32.88Z" />
    <path class="cls-2"
      d="M216.41,193.25l-16.84-31.29c-.01-.27-.04-.53-.09-.8l-.63-3.66,2.66-2.59c1.76-1.72,2.38-4.24,1.62-6.58-.76-2.34-2.74-4.01-5.18-4.37l-3.68-.53-1.64-3.33c-1.09-2.21-3.29-3.58-5.75-3.58-.33,0-.65.02-.97.07l-1.52-2.83c8.55-3.87,12.21-9.34,13.76-13.57.29-.79.53-1.59.72-2.42.35-.17.69-.37,1.01-.6,1.99-1.45,2.97-3.85,2.55-6.27l-.37-2.14,1.55-1.51c1.76-1.72,2.38-4.24,1.62-6.58-.76-2.34-2.74-4.01-5.18-4.37l-2.15-.31-.96-1.95c-1.09-2.21-3.29-3.58-5.75-3.58-.49,0-.97.05-1.43.16-.86-1.04-1.77-2.09-2.74-3.14,13.59-14.69,13.66-25.81,11.12-32.72-.61-1.66-1.44-3.23-2.47-4.7l1.32-1.29c1.76-1.72,2.38-4.24,1.62-6.58-.76-2.34-2.74-4.01-5.18-4.37l-3.66-.53-1.64-3.32c-1.09-2.21-3.29-3.58-5.75-3.58s-4.66,1.37-5.75,3.58l-1.64,3.32-2.49.36c-3.97-.71-8.34-1.12-13-1.22-6.9-.15-14.4.35-22.34,1.49-1.62-2.51-4.15-4.34-7.08-5.08l-15.86-29.47c-1.12-2.08-3.29-3.38-5.65-3.38s-4.53,1.29-5.65,3.38l-18.82,34.98c-3.54-.57-6.99-1.02-10.33-1.33-1.64-4.6-6.04-7.9-11.19-7.9s-9.48,3.25-11.15,7.78c-9.29.97-16.87,3.38-22.34,7.09-1.11-.88-2.5-1.38-3.99-1.38-2.46,0-4.66,1.37-5.75,3.58l-1.99,4.03-4.45.65c-2.43.35-4.42,2.03-5.18,4.37-.76,2.34-.14,4.86,1.62,6.58l3.22,3.14-.76,4.43c-.42,2.42.56,4.83,2.55,6.28,1.94,1.41,4.62,1.61,6.76.49l1.52-.8c2.06,3.98,5,8.04,8.79,12.14-11.34,12.25-13.26,22.02-12.12,28.93-.93.76-1.64,1.78-2.02,2.98-.76,2.34-.14,4.86,1.62,6.58l2.93,2.85-.69,4.03c-.42,2.42.56,4.82,2.56,6.28,1.63,1.18,3.76,1.52,5.67.93L.76,193.25c-1.06,1.98-1.01,4.4.14,6.33,1.15,1.93,3.26,3.13,5.51,3.13h62.91c.75.55,1.48,1.06,2.23,1.57,7.97,5.35,21.16,11.74,38.76,11.77h.11c19.25,0,32.81-7.08,41.03-13.34h24.94c.37,1.4,1.21,2.65,2.44,3.55,1.94,1.41,4.64,1.6,6.76.49l1.31-.69,1.31.69c2.12,1.12,4.82.93,6.76-.48,1.23-.89,2.07-2.15,2.44-3.55h13.36c2.25,0,4.36-1.2,5.51-3.13,1.15-1.93,1.2-4.35.14-6.33ZM172.37,61.28c1.94,1.41,4.62,1.61,6.76.49l3.27-1.72,3.28,1.73c.3.16.61.29.92.39-.04,4.51-3.14,10.27-8.91,16.52-6.93-5.75-15.3-11.35-24.61-16.45.44-1.29.47-2.71.03-4.07-.76-2.34-2.74-4.01-5.18-4.37l-2.15-.31-.96-1.95c-.28-.58-.65-1.1-1.07-1.55,9.55-1.08,18.26-1.08,25.33.04l1.35,1.32-.63,3.65c-.42,2.42.56,4.83,2.55,6.28ZM178.79,107.24l1.55,1.51-.37,2.14c-.42,2.42.56,4.83,2.55,6.27.66.48,1.39.82,2.16,1.02-1.58,1.89-3.96,3.27-6.37,4.26l-7.89-14.65c3.28-2.11,5.46-5.8,5.46-9.99,0-.03,0-.05,0-.08.62-.49,1.22-.98,1.8-1.46.47.51.93,1.02,1.37,1.53-.86.75-1.52,1.73-1.89,2.87-.76,2.34-.14,4.86,1.62,6.58ZM166.57,86.21c-2.45-.54-5.11-.26-7.36.73l-4.95-9.19c4.46,2.74,8.59,5.58,12.31,8.46ZM66.09,52.35c-.18.26-.35.54-.49.83l-.96,1.95-2.15.31c-2.43.35-4.42,2.03-5.18,4.37-.72,2.22-.2,4.59,1.35,6.3-6.66,4.02-12.65,8.23-17.88,12.58-1.36-1.47-2.57-2.91-3.62-4.31,1.08-1.4,1.54-3.19,1.23-5l-.76-4.43,3.22-3.14c1.76-1.72,2.38-4.24,1.62-6.58-.37-1.15-1.04-2.14-1.91-2.89,3.64-1.44,8.3-2.43,13.71-2.88,2.2,2.15,5.18,3.41,8.31,3.41,1.21,0,2.39-.18,3.5-.52ZM70.73,49.63s.02-.02.02-.02c.04,0,.08,0,.12,0-.05,0-.1,0-.15.01ZM62.25,78.98l-6.71,12.46c-1.83-1.31-3.57-2.64-5.23-3.97,3.59-2.89,7.58-5.73,11.94-8.49ZM40.79,96.27c2.67,2.22,5.56,4.42,8.62,6.57l-6.35,11.8-1.42-.21-1.81-3.66c-1.09-2.21-3.29-3.58-5.75-3.58-.3,0-.6.02-.89.06,1.42-3.34,3.99-7.06,7.6-10.98ZM73.01,49.82c1.53.15,3.08.33,4.65.54l-1.06,1.96c-.87-1.24-2.14-2.12-3.59-2.5Z" />
    <polygon class="cls-3" points="108.59 196.29 6.41 196.29 108.59 6.42 210.76 196.29 108.59 196.29" />
    <path class="cls-4"
      d="M210.76,197.21H6.41c-.32,0-.62-.17-.79-.45-.17-.28-.17-.62-.02-.91L107.78,5.98c.32-.6,1.3-.6,1.62,0l102.17,189.88c.15.28.15.63-.02.91-.17.28-.47.45-.79.45ZM7.95,195.37h201.27L108.59,8.36,7.95,195.37Z" />
    <path class="cls-3"
      d="M6.41,197.2c-.32,0-.62-.17-.78-.44-.16-.27-.17-.61-.02-.9L107.79,5.99c.16-.29.47-.48.8-.48s.64.18.8.48l102.18,189.88c.15.28.14.62-.02.9-.16.27-.46.44-.78.44H6.41Z" />
    <path class="cls-4"
      d="M108.59,6.42l102.17,189.88H6.41L108.59,6.42h0ZM108.59,4.6c-.67,0-1.28.37-1.6.96L4.81,195.43c-.3.56-.29,1.24.04,1.79.33.55.92.88,1.56.88h204.35c.64,0,1.23-.34,1.56-.88.33-.55.34-1.23.04-1.79L110.19,5.56c-.32-.59-.93-.96-1.6-.96h0Z" />
    <path class="cls-6"
      d="M112.44,127.84l98.06,67.96-37.81-70.26-58.99-.76c.02-.2.03-.4.03-.6,0-1.1-.31-2.13-.84-3l41.75-29.18-16.1-29.92-28.43,56.72c-.53-.22-1.11-.36-1.71-.41l.15-111.92-33.79,62.8,30.79,49.61c-1.1.49-2.02,1.32-2.63,2.36l-40.88-28.33-.24.44-16.44,30.56,56.78.73c.09,1.2.55,2.3,1.26,3.18L7.02,195.17l-.61,1.13h64.86l33.65-67.14c.88.53,1.9.84,3,.84.16,0,.31-.01.46-.02l-.09,66.32h45.31l-41.98-67.63c.3-.25.57-.52.81-.82Z" />
    <path class="cls-1"
      d="M207.37,192.6l-2.82-1.9c-.42-.28-.98-.17-1.26.25-.28.42-.17.98.25,1.26l2.82,1.9c.16.1.33.15.51.15.29,0,.58-.14.75-.4.28-.42.17-.98-.25-1.26Z" />
    <path class="cls-1"
      d="M187.83,179.46c-.42-.28-.98-.17-1.26.25-.28.42-.17.98.25,1.26l14.06,9.45c.16.1.33.15.51.15.29,0,.58-.14.75-.4.28-.42.17-.98-.25-1.26l-14.06-9.45Z" />
    <path class="cls-1"
      d="M175.18,170.95c-.42-.28-.98-.17-1.26.25-.28.42-.17.98.25,1.26l7.65,5.14c.16.1.33.15.51.15.29,0,.58-.14.75-.4.28-.42.17-.98-.25-1.26l-7.65-5.14Z" />
    <path class="cls-1"
      d="M23.32,183.52l-3.28,2.26c-.41.28-.52.85-.23,1.26.18.26.46.39.75.39.18,0,.36-.05.51-.16l3.28-2.26c.41-.28.52-.85.23-1.26-.29-.41-.85-.52-1.26-.23Z" />
    <path class="cls-1"
      d="M15.38,189l-5.87,4.05c-.41.28-.52.85-.23,1.26.18.26.46.39.75.39.18,0,.36-.05.51-.16l5.87-4.05c.41-.28.52-.85.23-1.26-.29-.41-.85-.52-1.26-.23Z" />
    <path class="cls-1"
      d="M55.16,190.53l-2.68,3.35c-.31.39-.25.96.14,1.28.17.13.37.2.57.2.27,0,.53-.12.71-.34l2.68-3.35c.31-.39.25-.96-.14-1.28-.39-.31-.96-.25-1.28.14Z" />
    <path class="cls-1"
      d="M67.33,175.31l-10.28,12.85c-.31.39-.25.96.14,1.28.17.13.37.2.57.2.27,0,.53-.12.71-.34l10.28-12.85c.31-.39.25-.96-.14-1.28-.39-.31-.96-.25-1.28.14Z" />
    <path class="cls-1"
      d="M147.7,176.29c-.31-.4-.88-.46-1.27-.15-.39.31-.46.88-.15,1.28l1.45,1.85c.18.23.45.35.71.35.2,0,.39-.06.56-.19.39-.31.46-.88.15-1.28l-1.45-1.85Z" />
    <path class="cls-1"
      d="M151.08,180.59c-.31-.4-.88-.46-1.27-.15-.39.31-.46.88-.15,1.28l7.04,8.98c.18.23.45.35.71.35.2,0,.39-.06.56-.19.39-.31.46-.88.15-1.28l-7.04-8.98Z" />
    <path class="cls-1"
      d="M159.96,191.91c-.31-.4-.88-.46-1.27-.15-.39.31-.46.88-.15,1.28l2.02,2.58c.18.23.45.35.71.35.2,0,.39-.06.56-.19.39-.31.46-.88.15-1.28l-2.02-2.58Z" />
    <path class="cls-1"
      d="M176.15,140.77l3.25.63c.06.01.12.02.17.02.43,0,.81-.3.89-.74.1-.49-.23-.97-.72-1.06l-3.25-.63c-.49-.1-.97.23-1.06.72-.1.49.23.97.72,1.06Z" />
    <path class="cls-1"
      d="M172.02,138.12l-64.33-12.48s-.08,0-.12,0c-.01,0-.02,0-.04,0,0,0,0,0-.01,0,0,0,0,0,0,0,0,0-.01,0-.02,0,0,0,0,0-.01,0,0,0,0,0,0,0-.08,0-.15.01-.23.04h0s0,0,0,0l-61.01,18.49c-.48.15-.75.65-.61,1.13.12.39.48.64.87.64.09,0,.18-.01.26-.04l55.46-16.8-75.92,52.38c-.41.28-.52.85-.23,1.26.18.26.46.39.75.39.18,0,.36-.05.51-.16l75.63-52.18-32.53,40.66c-.31.39-.25.96.14,1.28.39.31.96.25,1.28-.14l33.92-42.4-9.71,42.85c-.11.49.2.98.68,1.09.07.01.14.02.2.02.41,0,.79-.29.88-.71l9.81-43.29,12.64,43.27c.14.48.65.76,1.13.62.48-.14.76-.64.62-1.13l-12.3-42.11,33.4,42.57c.18.23.45.35.71.35.2,0,.39-.06.56-.19.39-.31.46-.88.15-1.28l-32.76-41.76,56.19,37.8c.42.28.98.17,1.26-.25.28-.42.17-.98-.25-1.26l-57.25-38.51,59.94,11.63c.5.1.97-.23,1.06-.72.1-.49-.23-.97-.72-1.06Z" />
    <path class="cls-1"
      d="M41.39,147.48c.09,0,.18-.01.26-.04l2.31-.7c.48-.15.75-.65.61-1.13-.15-.48-.65-.75-1.13-.61l-2.31.7c-.48.15-.75.65-.61,1.13.12.39.48.64.87.64Z" />
    <path class="cls-1"
      d="M33.46,149.88c.09,0,.18-.01.26-.04l3.75-1.14c.48-.15.75-.65.61-1.13-.15-.48-.66-.75-1.13-.61l-3.75,1.14c-.48.15-.75.65-.61,1.13.12.39.48.64.87.64Z" />
    <path class="cls-1"
      d="M124.88,182.73c-.14-.48-.65-.76-1.13-.62-.48.14-.76.64-.62,1.13l4.2,14.37c.12.4.48.65.87.65.08,0,.17-.01.25-.04.48-.14.76-.64.62-1.13l-4.2-14.37Z" />
    <path class="cls-1"
      d="M123.45,181.08c.48-.14.76-.64.62-1.13l-1.06-3.64c-.14-.48-.65-.76-1.13-.62-.48.14-.76.64-.62,1.13l1.06,3.64c.12.4.48.65.87.65.08,0,.17-.01.26-.04Z" />
    <path class="cls-1"
      d="M96.38,175.68c-.49-.11-.98.2-1.09.69l-.76,3.37c-.11.49.2.98.68,1.09.07.02.14.02.2.02.41,0,.79-.29.88-.71l.76-3.37c.11-.49-.2-.98-.68-1.09Z" />
    <path class="cls-1"
      d="M95.02,181.66c-.49-.11-.98.2-1.09.69l-3.36,14.82c-.11.49.2.98.68,1.09.07.02.14.02.2.02.41,0,.79-.29.88-.71l3.36-14.82c.11-.49-.2-.98-.68-1.09Z" />
    <path class="cls-1"
      d="M74.49,74.3l4.36,2.31c.14.07.28.11.42.11.33,0,.64-.18.8-.48.23-.44.07-.99-.38-1.23l-4.36-2.31c-.44-.24-.99-.07-1.23.38-.23.44-.07.99.38,1.23Z" />
    <path class="cls-1"
      d="M81.16,77.83l25.08,13.26c.13.07.28.11.42.11.24,0,.48-.1.66-.28.2-.21.28-.5.24-.77l30.49-15.99c.44-.23.62-.78.38-1.23-.23-.44-.78-.61-1.23-.38l-27.63,14.49,13.8-21.24c.27-.42.15-.98-.27-1.26-.42-.27-.98-.15-1.26.27l-12.49,19.23,4.48-16.25c.13-.48-.15-.98-.63-1.12-.48-.13-.98.15-1.12.63l-4.12,14.95.36-19.57c0-.5-.39-.92-.89-.92h-.02c-.49,0-.9.4-.91.89l-.36,19.85-3.44-13.92c-.12-.49-.61-.78-1.1-.66-.49.12-.78.61-.66,1.1l4.14,16.74-12.8-21.9c-.25-.43-.81-.58-1.24-.33-.43.25-.58.81-.33,1.24l13.57,23.21-22.26-11.77c-.44-.24-.99-.06-1.23.38-.23.44-.07.99.38,1.23Z" />
    <path class="cls-1"
      d="M89.23,62.26c.17.29.47.45.78.45.16,0,.31-.04.46-.12.43-.25.58-.81.33-1.24l-4.87-8.33c-.25-.43-.81-.58-1.24-.33-.43.25-.58.81-.33,1.24l4.87,8.33Z" />
    <path class="cls-1"
      d="M93.86,40.43c.1.41.47.69.88.69.07,0,.15,0,.22-.03.49-.12.78-.61.66-1.1l-1.03-4.16c-.12-.49-.62-.78-1.1-.66-.49.12-.78.61-.66,1.1l1.03,4.16Z" />
    <path class="cls-1"
      d="M94.79,44.21l4.62,18.69c.1.41.47.69.88.69.07,0,.15,0,.22-.03.49-.12.78-.61.66-1.1l-4.62-18.69c-.12-.49-.61-.78-1.1-.66-.49.12-.78.61-.66,1.1Z" />
    <path class="cls-1"
      d="M124.38,62.56c.15.1.32.15.49.15.3,0,.59-.15.76-.41l6.66-10.25c.27-.42.15-.98-.27-1.26-.42-.27-.98-.15-1.26.27l-6.66,10.25c-.27.42-.15.98.27,1.26Z" />
    <path class="cls-1"
      d="M108.31,13.31h.02c.49,0,.9-.4.91-.89l.07-3.67c0-.5-.39-.92-.89-.92-.5.02-.92.39-.92.89l-.07,3.67c0,.5.39.92.89.92Z" />
    <path class="cls-1"
      d="M108.18,20.4h.02c.49,0,.9-.4.91-.89l.08-4.2c0-.5-.39-.92-.89-.92-.49.02-.92.39-.92.89l-.08,4.2c0,.5.39.92.89.92Z" />
    <path class="cls-1"
      d="M107.86,37.73h.02c.49,0,.9-.4.91-.89l.17-9.09c0-.5-.39-.92-.89-.92-.5.02-.92.39-.92.89l-.17,9.09c0,.5.39.92.89.92Z" />
    <path class="cls-1"
      d="M107.5,57.55h.02c.49,0,.9-.4.91-.89l.31-16.81c0-.5-.39-.92-.89-.92-.47.02-.91.39-.92.89l-.31,16.81c0,.5.39.92.89.92Z" />
    <path class="cls-1"
      d="M140.08,72.97c.14,0,.29-.03.42-.1l2.21-1.16c.44-.23.62-.78.38-1.23-.23-.44-.78-.61-1.23-.38l-2.21,1.16c-.44.23-.62.78-.38,1.23.16.31.48.49.81.49Z" />
    <path class="cls-1"
      d="M113.81,64.45c.08.02.16.03.24.03.4,0,.76-.26.87-.67l6.31-22.89c.13-.48-.15-.98-.63-1.12-.48-.13-.98.15-1.12.63l-6.31,22.89c-.13.48.15.98.63,1.12Z" />
    <path class="cls-1"
      d="M121,38.34c.08.02.16.03.24.03.4,0,.76-.26.87-.67l.91-3.31c.13-.48-.15-.98-.63-1.12-.48-.13-.98.15-1.12.63l-.91,3.31c-.13.48.15.98.63,1.12Z" />
    <path class="cls-2"
      d="M168.23,139.65c-.04-1.09-.1-2.26-.18-3.69-.64-10.69-2.3-20.38-4.93-28.79-.43-1.37-.83-2.57-1.24-3.68-3.82-10.51-9.32-18.79-16.34-24.61-8.32-6.9-18.81-10.39-31.19-10.39v1.52h0v-1.52c-.58,0-1.17,0-1.77.02-13.53.36-25.04,3.51-34.23,9.37-8.02,5.12-14.48,12.44-19.19,21.76-.7,1.39-1.39,2.87-2.03,4.41-.5,1.2-.97,2.41-1.39,3.59-2.85,7.91-4.63,17-5.3,27.01-.09,1.36-.15,2.58-.19,3.73-.71,18.31,2.38,33.05,2.51,33.66.3,1.41,1.54,2.41,2.98,2.41.01,0,.03,0,.04,0l108.07-1.54c1.49-.02,2.74-1.12,2.97-2.59.08-.55,2.06-13.77,1.41-30.69Z" />
    <path class="cls-2"
      d="M160.01,181.22h0s-.02,0-.02,0h0s-.08,0-.12,0l-96.84,4.04c-1.13.05-2.15.72-2.63,1.75-.48,1.03-.35,2.24.34,3.14.18.23,4.46,5.78,12.71,11.33,7.58,5.09,20.13,11.17,36.88,11.2h.11c19.04,0,32.19-7.25,39.87-13.34,7.88-6.24,11.74-12.51,12.3-13.45.3-.47.47-1.02.47-1.62,0-1.68-1.36-3.04-3.04-3.05Z" />
    <path class="cls-5"
      d="M55.74,172.33c-.43,0-.8-.3-.89-.72-.03-.15-3.17-15.08-2.46-33.16.03-1.11.09-2.3.18-3.65.66-9.81,2.4-18.71,5.18-26.44.41-1.14.87-2.32,1.35-3.48.63-1.5,1.29-2.93,1.97-4.28,9.87-19.5,26.73-29.3,51.56-29.95.58-.02,1.15-.02,1.71-.02,22.1,0,37.42,11.3,45.52,33.6.39,1.07.78,2.24,1.2,3.58,2.57,8.24,4.2,17.76,4.83,28.28.07,1.23.14,2.45.18,3.64.64,16.71-1.37,30.15-1.39,30.28-.07.44-.44.77-.89.77,0,0-108.07,1.54-108.08,1.54Z" />
    <path class="cls-4"
      d="M114.35,71.54c25.03,0,38.07,14.85,44.67,33,.43,1.17.82,2.35,1.19,3.54,2.87,9.19,4.25,19.01,4.79,28.06.07,1.23.14,2.43.18,3.62.64,16.82-1.38,30.11-1.38,30.11l-108.07,1.54s-3.15-14.76-2.44-32.93c.04-1.19.1-2.4.18-3.62.57-8.54,2.05-17.63,5.13-26.19.42-1.16.86-2.31,1.33-3.44.6-1.43,1.24-2.83,1.94-4.21,8.24-16.3,23.13-28.73,50.78-29.46.57-.01,1.13-.02,1.69-.02h0ZM114.35,69.72v1.82-1.82c-.57,0-1.15,0-1.74.02-13.3.35-24.6,3.44-33.6,9.17-7.83,4.99-14.14,12.15-18.76,21.28-.69,1.36-1.36,2.82-2,4.33-.49,1.18-.95,2.37-1.37,3.53-2.81,7.81-4.57,16.78-5.23,26.68-.09,1.34-.15,2.55-.18,3.69-.71,18.17,2.35,32.76,2.48,33.37.18.84.92,1.44,1.78,1.44,0,0,.02,0,.03,0l108.07-1.54c.89-.01,1.64-.66,1.77-1.54.02-.13,2.04-13.66,1.4-30.45-.04-1.08-.1-2.25-.18-3.66-.64-10.59-2.28-20.18-4.87-28.49-.42-1.35-.82-2.53-1.22-3.62-3.74-10.3-9.12-18.4-15.97-24.09-8.09-6.71-18.32-10.11-30.4-10.11h0Z" />
    <path class="cls-1"
      d="M88.34,89.94c-.97-.66,6.7-9.91,17.36-11.12,10.66-1.21,20.88,3.79,20.16,4.99s-11.74-5.4-22.2-2.44c-10.46,2.96-14.34,9.22-15.31,8.57Z" />
    <path class="cls-1"
      d="M88.93,95.57c-1,1.18,6.65,7.82,17.26,6.98,10.61-.85,18.3-7.28,18-8.46-.31-1.17-8.62,5.83-18.26,5.96-12.13.16-16-5.66-17-4.48Z" />
    <path class="cls-1"
      d="M73.82,90.82c10.81-14.19,27.65-18.82,44.53-19.14-1.83-.12-3.72-.17-5.7-.12-27.65.72-42.53,13.15-50.78,29.46-13.21,26.1-7.81,61.32-6.43,68.92-.17-27.39,1.3-54.92,18.38-79.11Z" />
    <path class="cls-1"
      d="M134.89,145.73c0,7.12,3.01,13.11,7.06,14.7.69.27,1.42.42,2.16.42,5.09,0,9.21-6.77,9.21-15.12s-4.13-15.13-9.21-15.13c-.08,0-.17,0-.25,0-4.98.21-8.97,6.89-8.97,15.12Z" />
    <path class="cls-1"
      d="M130.29,105.39c0,8.39,4.52,15.18,10.11,15.18.32,0,.63-.02.94-.07,5.15-.71,9.17-7.21,9.17-15.12s-3.96-14.3-9.05-15.1c-.35-.06-.7-.09-1.06-.09-5.58,0-10.11,6.8-10.11,15.18Z" />
    <path class="cls-1"
      d="M89.28,114.28c0,8.22-4.61,14.88-10.29,14.88-.32,0-.65-.02-.96-.07-5.24-.7-9.34-7.06-9.34-14.81s4.03-14.01,9.22-14.79c.35-.06.72-.09,1.08-.09,5.69,0,10.29,6.67,10.29,14.87Z" />
    <path class="cls-1"
      d="M89.46,150c0,7.33-3.14,13.5-7.35,15.14-.72.28-1.48.43-2.25.43-5.29,0-9.59-6.97-9.59-15.57s4.3-15.58,9.59-15.58c.08,0,.18,0,.26,0,5.18.21,9.34,7.1,9.34,15.57Z" />
    <path class="cls-6"
      d="M153.69,93.22c11.19,20.72,11.7,74.48,7.1,74.49,0,0-62.95,2.23-98.62,3.62l101.64-1.46s7.24-47.69-10.11-76.65Z" />
    <path class="cls-2"
      d="M87.24,148.91c0,6.82-2.77,12.55-6.5,14.07-.64.26-1.3.4-1.99.4-4.68,0-8.48-6.48-8.48-14.47s3.8-14.48,8.48-14.48c.07,0,.15,0,.23,0,4.58.2,8.26,6.6,8.26,14.47Z" />
    <path class="cls-2"
      d="M87.24,113.49c0,7.78-4.15,14.08-9.27,14.08-.29,0-.58-.02-.86-.06-4.72-.66-8.41-6.68-8.41-14.02s3.63-13.27,8.3-14c.32-.05.64-.08.97-.08,5.12,0,9.27,6.31,9.27,14.08Z" />
    <path class="cls-2"
      d="M134.89,145.09c0,6.82,2.77,12.55,6.5,14.07.64.26,1.3.4,1.99.4,4.68,0,8.48-6.48,8.48-14.47s-3.8-14.48-8.48-14.48c-.07,0-.15,0-.23,0-4.58.2-8.26,6.6-8.26,14.47Z" />
    <path class="cls-2"
      d="M130.29,104.29c0,7.78,4.15,14.08,9.27,14.08.29,0,.58-.02.86-.06,4.72-.66,8.41-6.68,8.41-14.02s-3.63-13.27-8.3-14c-.32-.05-.64-.08-.97-.08-5.12,0-9.27,6.31-9.27,14.08Z" />
    <path class="cls-3"
      d="M159.02,104.54c-11.08,7.07-24.2,13.49-38.4,18.71-21.92,8.07-43.76,12.3-61.47,11.9-1.97-.05-3.87-.15-5.68-.3-.08,1.23-.15,2.43-.18,3.62,1.85.16,3.78.26,5.78.31.79.02,1.58.03,2.38.03,17.67,0,39.13-4.31,60.42-12.15,14.11-5.19,27.2-11.56,38.34-18.59-.37-1.19-.76-2.37-1.19-3.54Z" />
    <path class="cls-3"
      d="M165,136.14c-1.43.1-2.9.16-4.41.2-17.69.42-39.53-3.82-61.47-11.9-14.54-5.35-27.95-11.95-39.18-19.21-.47,1.14-.92,2.28-1.33,3.44,11.33,7.26,24.75,13.84,39.26,19.18,21.29,7.84,42.75,12.15,60.42,12.15.8,0,1.59,0,2.37-.03,1.55-.04,3.06-.1,4.52-.21-.05-1.19-.11-2.4-.18-3.62Z" />
    <path class="cls-5"
      d="M110.31,210.54c-31.02-.05-47.72-21.47-47.89-21.68-.21-.27-.24-.63-.1-.94.14-.31.45-.51.78-.52,0,0,96.89-4.04,96.9-4.04.32,0,.61.16.78.44.17.28.18.63.01.92-.15.26-15.1,25.82-50.38,25.82h-.11Z" />
    <path class="cls-4"
      d="M160.01,184.27h0,0ZM160.01,184.27s-14.42,25.36-49.59,25.36c-.03,0-.07,0-.11,0-30.93-.04-47.17-21.32-47.17-21.32l96.86-4.04h0ZM160.01,182.45s-.02,0-.03,0c-.02,0-.03,0-.05,0l-96.85,4.04c-.68.03-1.28.43-1.57,1.04-.29.61-.21,1.33.2,1.87.17.23,4.33,5.62,12.42,11.05,7.44,5,19.76,10.96,36.19,10.99h.11c18.69,0,31.58-7.11,39.11-13.07,7.8-6.18,11.54-12.33,12.01-13.13.18-.28.29-.62.29-.98,0-1-.81-1.81-1.81-1.82h0ZM160.01,186.09h0,0Z" />
    <path class="cls-1" d="M154.61,184.49l-91.47,3.81s3.3,4.31,9.73,9.05c-1.08-1.82-2.69-5.74-2.69-5.74l84.42-7.12Z" />
    <path class="cls-6"
      d="M99.59,208.72c3.35.57,6.92.91,10.72.91,35.24.05,49.69-25.36,49.69-25.36,0,0-24.88,28.21-60.42,24.45Z" />
    <path class="cls-4"
      d="M112.52,190.48c-9.34,1.37-15.84,4.58-14.51,8.62,1.33,4.04,9.28,4.92,16.18,4.04s13.23-3.91,13-8c-.23-4.09-6.81-5.82-14.67-4.67Z" />
    <path class="cls-3"
      d="M104.42,203.03c2.94.54,6.47.52,9.76.11,4.54-.57,8.82-2.09,11.16-4.22-2.74-1.33-5.92-1.86-8.85-1.86-4.81.69-9.1,2.42-12.08,5.97Z" />
    <path class="cls-4"
      d="M109.41,204.36c-5.82,0-11.1-1.43-12.26-4.98-.4-1.21-.24-2.45.45-3.57,1.76-2.84,7.15-5.11,14.79-6.23,6.03-.88,11.2-.13,13.83,2.02,1.15.94,1.8,2.15,1.88,3.5.28,4.91-6.96,8.08-13.8,8.95-1.62.2-3.27.31-4.89.31ZM117.14,191.03c-1.41,0-2.92.11-4.49.34h0c-7.01,1.02-12.06,3.04-13.51,5.39-.41.67-.5,1.34-.27,2.05,1.11,3.37,8.48,4.28,15.2,3.43,7.14-.9,12.39-3.93,12.21-7.04-.05-.85-.44-1.56-1.21-2.19-1.57-1.28-4.44-1.97-7.94-1.97ZM112.52,190.48h0,0Z" />
    <path class="cls-2"
      d="M123.72,88.04c0,1.78-1.99,6.72-10.98,8.85-1.06.25-2.22.47-3.5.64-2.6.27-4.87.33-6.85.25-9.52-.4-12.29-4.13-12.29-4.13,0,0,1.58-7.46,10.44-10.57,1.57-.55,3.38-.97,5.44-1.18,2.02-.21,3.82-.26,5.43-.2,9.36.35,12.29,4.65,12.29,6.35Z" />
    <path class="cls-1"
      d="M111.43,81.7c-1.61-.06-3.41,0-5.43.2-2.06.21-3.87.63-5.44,1.18-8.86,3.11-10.44,10.57-10.44,10.57,0,0,.04.05.12.14,8.96-6.92,22.03-8.49,33.46-6.01-.27-1.84-3.35-5.75-12.27-6.08Z" />
    <path class="cls-6"
      d="M116.14,89.74c0,2.89-1.33,5.47-3.4,7.16-1.06.25-2.22.47-3.5.64-2.6.27-4.87.33-6.85.25-2.81-1.58-4.7-4.59-4.7-8.04,0-2.62,1.1-4.99,2.86-6.67,1.57-.55,3.38-.97,5.44-1.18,2.02-.21,3.82-.26,5.43-.2,2.81,1.57,4.71,4.59,4.71,8.05Z" />
    <path class="cls-3"
      d="M111.43,81.7c-1.61-.06-3.41,0-5.43.2-2.06.21-3.87.63-5.44,1.18-1.72,1.63-2.8,3.93-2.85,6.47,5.52-2.23,11.76-3.12,17.91-2.83-.74-2.14-2.24-3.93-4.19-5.02Z" />
    <path class="cls-2" d="M101.28,89.45c-4.16.34-6.48,1.39-6.48,2.73,0,1.34.68,2.76,5.39,2.76s6.71-5.95,1.09-5.49Z" />
    <path class="cls-4"
      d="M80.74,162.98c-.64.26-1.3.4-1.99.4-4.68,0-8.48-6.48-8.48-14.47s3.8-14.48,8.48-14.48c.07,0,.15,0,.23,0,1.26,6.79,2.88,22.19,1.76,28.55Z" />
    <path class="cls-4"
      d="M79.37,114.2c-.2,6.24-1.33,10.65-2.27,13.31-4.72-.66-8.41-6.68-8.41-14.02s3.63-13.27,8.3-14c1.13,2.99,2.59,8.02,2.38,14.71Z" />
    <path class="cls-4"
      d="M141.39,159.16c.64.26,1.3.4,1.99.4,4.68,0,8.48-6.48,8.48-14.47s-3.8-14.48-8.48-14.48c-.07,0-.15,0-.23,0-1.26,6.79-2.88,22.19-1.76,28.55Z" />
    <path class="cls-4"
      d="M138.15,105c.2,6.24,1.33,10.65,2.27,13.31,4.72-.66,8.41-6.68,8.41-14.02s-3.63-13.27-8.3-14c-1.13,2.99-2.59,8.02-2.38,14.71Z" />
    <path class="cls-4"
      d="M91.72,86.9c-.17,0-.34-.05-.5-.15l-7.02-4.62c-.42-.28-.54-.84-.26-1.26.28-.42.84-.53,1.26-.26l7.02,4.62c.42.28.54.84.26,1.26-.17.27-.46.41-.76.41Z" />
    <path class="cls-4"
      d="M100.9,81.58c-.36,0-.69-.21-.84-.56l-5.22-12.47c-.19-.46.02-.99.49-1.19.46-.2.99.02,1.19.49l5.22,12.47c.19.46-.02.99-.49,1.19-.11.05-.23.07-.35.07Z" />
    <path class="cls-4"
      d="M113.46,80.67c-.07,0-.14,0-.22-.03-.49-.12-.79-.61-.67-1.1l2.68-10.95c.12-.49.61-.79,1.1-.67.49.12.79.61.67,1.1l-2.68,10.95c-.1.41-.47.69-.88.69Z" />
    <path class="cls-4"
      d="M123.04,82.95c-.23,0-.46-.09-.63-.26-.36-.35-.37-.92-.02-1.28l6.08-6.23c.35-.36.93-.36,1.28-.02.36.35.37.92.02,1.28l-6.08,6.23c-.18.18-.41.27-.65.27Z" />
    <path class="cls-4"
      d="M90.81,110c-.14,0-.28-.03-.41-.1-.45-.23-.63-.77-.4-1.22l4.87-9.61c.23-.45.77-.63,1.22-.4.45.23.63.77.4,1.22l-4.87,9.61c-.16.32-.48.5-.81.5Z" />
    <path class="cls-4"
      d="M103.28,112.74s-.04,0-.06,0c-.5-.03-.88-.46-.85-.96l.76-11.71c.03-.5.48-.86.97-.85.5.03.88.46.85.96l-.76,11.71c-.03.48-.43.85-.91.85Z" />
    <path class="cls-4"
      d="M119.54,107.72c-.35,0-.69-.21-.84-.55l-3.4-8.06c-.2-.46.02-.99.48-1.19.46-.2.99.02,1.19.48l3.4,8.06c.19.46-.02.99-.48,1.19-.12.05-.23.07-.35.07Z" />
    <path class="cls-4"
      d="M129.12,103.93c-.25,0-.49-.1-.67-.29l-6.99-7.6c-.34-.37-.32-.94.05-1.28.37-.34.94-.32,1.28.05l6.99,7.6c.34.37.32.94-.05,1.28-.17.16-.4.24-.61.24Z" />
    <path class="cls-4"
      d="M109.65,89.45c0,1.51-1.22,2.73-2.73,2.73s-2.73-1.22-2.73-2.73,1.22-2.73,2.73-2.73,2.73,1.22,2.73,2.73Z" />
    <path class="cls-4"
      d="M79.03,133.99c-.09-.01-.19-.01-.28-.01-4.93,0-8.94,6.7-8.94,14.94s4.01,14.93,8.94,14.93c.74,0,1.47-.15,2.16-.43,3.99-1.63,6.78-7.6,6.78-14.49,0-8.16-3.82-14.71-8.66-14.92ZM80.56,162.57c-.59.24-1.2.37-1.82.37-4.43,0-8.03-6.29-8.03-14.02s3.6-14.03,8.03-14.03h.03s.1,0,.18,0c4.32.19,7.83,6.48,7.83,14.02,0,6.44-2.62,12.18-6.22,13.66Z" />
    <path class="cls-4"
      d="M77.03,127.96c.29.05.59.07.93.07,5.36,0,9.73-6.52,9.73-14.54s-4.36-14.54-9.73-14.54c-.35,0-.7.03-1.04.09-4.95.78-8.68,6.99-8.68,14.45s3.78,13.77,8.79,14.47ZM77.07,99.93c.29-.05.59-.08.9-.08,4.86,0,8.82,6.11,8.82,13.63s-3.96,13.63-8.82,13.63c-.29,0-.55-.02-.8-.06-4.5-.63-8.02-6.59-8.02-13.57s3.4-12.84,7.92-13.55Z" />
    <path class="cls-4"
      d="M143.38,130.15c-.09,0-.19,0-.25,0-4.88.21-8.7,6.77-8.7,14.93,0,6.9,2.79,12.86,6.78,14.49.7.29,1.42.43,2.16.43,4.93,0,8.94-6.7,8.94-14.93s-4.01-14.94-8.94-14.94ZM143.38,159.11c-.62,0-1.23-.12-1.82-.37-3.6-1.47-6.22-7.22-6.22-13.65,0-7.54,3.51-13.83,7.86-14.02.04,0,.09,0,.13,0h.04c4.43,0,8.03,6.29,8.03,14.03s-3.6,14.02-8.03,14.02Z" />
    <path class="cls-4"
      d="M139.56,118.83c.33,0,.65-.02.93-.07,5.02-.7,8.8-6.93,8.8-14.47s-3.73-13.67-8.68-14.45c-.34-.06-.7-.09-1.05-.09-5.36,0-9.73,6.52-9.73,14.54s4.36,14.54,9.73,14.54ZM139.56,90.66c.3,0,.6.03.9.08,4.51.71,7.92,6.54,7.92,13.55s-3.52,12.94-8.03,13.57c-.24.04-.51.06-.79.06-4.86,0-8.82-6.11-8.82-13.63s3.96-13.63,8.82-13.63Z" />
    <path class="cls-4"
      d="M124.18,88.04c0-1.98-3.21-6.44-12.73-6.8-1.7-.07-3.55,0-5.49.2-.5.05-.98.11-1.46.19-1.44.23-2.81.57-4.08,1.01,0,0,0,0,0,0-9,3.15-10.67,10.59-10.74,10.9-.03.13,0,.26.08.36.12.16,3.01,3.91,12.63,4.31.56.02,1.14.03,1.72.03,1.66,0,3.41-.09,5.2-.28.73-.09,1.45-.22,2.15-.35.47-.09.94-.18,1.39-.29,0,0,0,0,0,0,9.32-2.21,11.33-7.46,11.33-9.3ZM90.61,93.53c.31-1.12,2.09-6.37,8.36-9.3-1.12,1.6-1.73,3.51-1.73,5.52,0,2.92,1.34,5.65,3.56,7.47-6.84-.61-9.59-3.05-10.19-3.69ZM107.46,97.24c-.29.02-.57.03-.85.05-.28.02-.57.04-.85.05-.29.01-.57.01-.86.02-.27,0-.54.01-.8.01-.26,0-.51,0-.77-.01-.27,0-.53,0-.8-.02-2.7-1.57-4.38-4.46-4.38-7.58,0-2.39.94-4.61,2.65-6.27.19-.07.4-.13.6-.19.2-.06.4-.13.61-.19.22-.06.45-.11.68-.17.21-.05.41-.11.62-.15.26-.06.53-.1.8-.15.18-.03.36-.07.55-.1.46-.07.92-.13,1.4-.18.47-.05.93-.09,1.38-.12.37-.03.73-.04,1.09-.06.08,0,.17-.01.25-.01.33-.01.65-.02.97-.02.11,0,.23,0,.34,0,.23,0,.45,0,.67.01.19,0,.37,0,.56.01,2.71,1.56,4.38,4.46,4.38,7.59,0,2.61-1.15,5.06-3.15,6.73-.31.07-.63.13-.95.2-.23.05-.45.1-.68.14-.56.1-1.14.19-1.71.27-.59.06-1.17.11-1.74.15ZM114.28,96.01c1.48-1.74,2.32-3.94,2.32-6.27,0-2.94-1.34-5.67-3.57-7.49,7.77.74,10.24,4.42,10.24,5.79h0c0,1.53-1.65,5.73-8.99,7.97Z" />
    <path class="cls-4"
      d="M87.5,157.27c-.24-.07-.49.07-.56.32,0,0-.16.59-.53,1.42-.1.23,0,.5.23.6.06.03.12.04.18.04.17,0,.34-.1.41-.27.4-.9.57-1.52.58-1.55.07-.24-.08-.49-.32-.56Z" />
    <path class="cls-4"
      d="M85.21,161.16c-.29.43-.61.83-.94,1.19-.17.19-.15.47.03.64.09.08.2.12.31.12.12,0,.25-.05.34-.15.36-.39.7-.82,1.01-1.28.14-.21.09-.49-.12-.63-.21-.14-.49-.09-.63.12Z" />
    <path class="cls-4"
      d="M82.66,163.76c-1.25.85-2.66,1.31-4.2,1.35-1.8.05-3.5-.69-5-2.22-.18-.18-.46-.18-.64,0-.18.18-.18.46,0,.64,1.62,1.65,3.46,2.49,5.46,2.49.07,0,.14,0,.21,0,1.72-.05,3.29-.56,4.69-1.51.21-.14.26-.42.12-.63-.14-.21-.42-.26-.63-.12Z" />
    <path class="cls-4"
      d="M70.69,158.57c-.09-.23-.35-.35-.58-.27-.24.09-.36.35-.27.58.01.04.37.99,1.1,2.2.09.14.24.22.39.22.08,0,.16-.02.23-.07.21-.13.28-.41.15-.62-.68-1.13-1.02-2.04-1.02-2.04Z" />
    <path class="cls-4"
      d="M153.42,151.2c-.24-.05-.49.1-.54.35,0,0-.17.76-.57,1.84-.09.23.03.5.27.58.05.02.11.03.16.03.18,0,.36-.11.43-.3.42-1.14.6-1.93.6-1.96.05-.24-.1-.49-.35-.54Z" />
    <path class="cls-4"
      d="M152.07,155.16c-.22-.11-.5-.02-.61.2-1.5,2.96-4.32,6.49-9.27,6.49-3.87,0-6.22-3.94-7.28-6.29-.1-.23-.37-.33-.6-.23-.23.1-.33.37-.23.6,1.15,2.55,3.73,6.83,8.11,6.83,5.41,0,8.47-3.8,10.08-6.99.11-.22.02-.5-.2-.61Z" />
    <path class="cls-4"
      d="M134.08,153.4c-.26-.81-.47-1.62-.62-2.4-.05-.25-.28-.4-.53-.36-.25.05-.41.28-.36.53.16.82.37,1.67.64,2.51.06.19.24.31.43.31.05,0,.09,0,.14-.02.24-.08.37-.33.29-.57Z" />
    <path class="cls-4"
      d="M132.66,148.8c.25-.03.43-.25.4-.5-.12-1.14-.15-1.88-.15-1.89,0-.25-.22-.44-.47-.44-.25,0-.45.22-.44.47,0,.03.02.78.15,1.96.03.23.22.41.45.41.02,0,.03,0,.05,0Z" />
    <path class="cls-4"
      d="M88.25,117.92c-.24-.02-.47.16-.49.41-.04.42-1.05,10.37-9.74,10.37h-.05c-1.77,0-3.5-.61-5.14-1.78-.2-.14-.49-.1-.63.11-.15.2-.1.49.11.63,1.8,1.28,3.71,1.94,5.67,1.95h.05c9.53,0,10.63-11.08,10.64-11.19.02-.25-.16-.47-.41-.49Z" />
    <path class="cls-4"
      d="M70.79,126.22c.11,0,.23-.04.32-.13.18-.18.18-.46,0-.64-.93-.95-1.44-1.75-1.45-1.76-.14-.21-.42-.27-.63-.14-.21.13-.27.41-.14.63.02.04.57.88,1.57,1.9.09.09.21.14.32.14Z" />
    <path class="cls-4"
      d="M140.11,121.03h0c2.7,0,4.97-.9,6.74-2.67,4.06-4.06,4.1-11.24,4.1-11.55,0-.25-.2-.45-.45-.45s-.45.2-.45.45c0,.03-.01,3.42-1.27,6.74-1.65,4.36-4.56,6.56-8.66,6.56h0c-6.17,0-8.72-4.06-9.78-7.47-.07-.24-.33-.37-.57-.3-.24.07-.37.33-.3.57,1.15,3.7,3.92,8.11,10.64,8.11Z" />
    <path class="cls-4"
      d="M129.82,110.45c-.25-1.45-.24-2.5-.24-2.51,0-.25-.2-.46-.45-.46h0c-.25,0-.45.2-.45.45,0,.05,0,1.13.25,2.67.04.22.23.38.45.38.02,0,.05,0,.08,0,.25-.04.41-.28.37-.52Z" />
    <path class="cls-4"
      d="M98.77,99.07c-6.61-.81-8.91-3.58-8.96-3.63-.16-.2-.44-.23-.64-.08-.2.15-.23.44-.08.64.1.13,2.5,3.11,9.56,3.97.02,0,.04,0,.06,0,.23,0,.42-.17.45-.4.03-.25-.15-.48-.4-.51Z" />
    <path class="cls-4"
      d="M97.97,82.13c.05,0,.1,0,.16-.03.1-.04,10.52-3.75,20.96-.7.24.07.49-.07.56-.31.07-.24-.07-.49-.31-.56-10.73-3.14-21.42.67-21.52.71-.24.09-.36.35-.27.58.07.18.24.3.43.3Z" />
    <path class="cls-4"
      d="M111.57,112.74c-.44,0-.83-.32-.9-.77l-1.93-12.35c-.08-.5.26-.96.76-1.04.49-.07.96.26,1.04.76l1.93,12.35c.08.5-.26.96-.76,1.04-.05,0-.09.01-.14.01Z" />
    <path class="cls-4"
      d="M106.92,78.65c-.49,0-.9-.39-.91-.89l-.26-12.87c0-.5.39-.92.89-.93.5.01.92.39.93.89l.26,12.87c0,.5-.39.92-.89.93h-.02Z" />
    <path class="cls-2"
      d="M83.33,113.3c0,1.9-1.79,3.43-3.99,3.43s-3.99-1.54-3.99-3.43,1.79-3.44,3.99-3.44,3.99,1.54,3.99,3.44Z" />
    <path class="cls-2"
      d="M84.7,149.19c0,2.51-1.61,4.54-3.59,4.54s-3.59-2.03-3.59-4.54,1.61-4.54,3.59-4.54,3.59,2.03,3.59,4.54Z" />
    <path class="cls-2"
      d="M134.19,104.11c0,1.9,1.79,3.44,3.99,3.44s3.99-1.54,3.99-3.44-1.79-3.43-3.99-3.43-3.99,1.54-3.99,3.43Z" />
    <path class="cls-2"
      d="M137.43,145.36c0,2.51,1.61,4.54,3.59,4.54s3.59-2.03,3.59-4.54-1.61-4.54-3.59-4.54-3.59,2.03-3.59,4.54Z" />
    <path class="cls-1"
      d="M177.55,84.62c-13.56-12.07-33.33-23.24-55.68-31.46-22.33-8.21-44.63-12.53-62.8-12.12-18.72.42-30.95,5.86-34.43,15.32-3.48,9.46,2.31,21.53,16.29,33.98,13.56,12.07,33.33,23.24,55.68,31.46,21.3,7.83,42.76,12.15,60.42,12.15.8,0,1.59,0,2.37-.03,18.72-.42,30.95-5.86,34.43-15.32,3.48-9.46-2.31-21.53-16.29-33.98ZM159.34,130.29c-17.68.42-39.52-3.83-61.46-11.9-21.93-8.07-41.3-19-54.52-30.77-12.8-11.39-18.23-22.05-15.3-30.01,3.04-8.27,15.14-13.02,33.18-13.02s38.38,4.25,59.38,11.98c21.93,8.07,41.3,19,54.52,30.77,12.79,11.39,18.23,22.05,15.3,30.01-2.93,7.96-13.97,12.56-31.1,12.94Z" />
    <path class="cls-4"
      d="M157.04,133.04c-17.59,0-38.82-4.26-60.11-12.09-22.25-8.18-41.92-19.3-55.39-31.29-13.69-12.18-19.39-23.9-16.04-32.99,3.34-9.08,15.27-14.31,33.6-14.72,18.03-.41,40.22,3.88,62.46,12.07,22.25,8.18,41.92,19.3,55.39,31.29,13.69,12.18,19.39,23.9,16.04,32.99h0c-3.34,9.08-15.27,14.31-33.6,14.72-.78.02-1.56.03-2.35.03ZM61.24,43.68c-17.87,0-30.7,4.56-34.03,13.61-6.44,17.51,25.12,45.3,70.36,61.94,22.04,8.11,43.99,12.34,61.8,11.96,17.52-.39,28.86-5.2,31.93-13.53h0c3.07-8.34-2.45-19.35-15.55-31-13.31-11.85-32.77-22.83-54.81-30.94-21.86-8.04-42.98-12.03-59.69-12.03Z" />
    <path class="cls-1"
      d="M193.84,56.35c-3.48-9.46-15.71-14.9-34.43-15.32-18.18-.4-40.47,3.91-62.8,12.12-22.35,8.22-42.13,19.4-55.68,31.46-13.99,12.45-19.77,24.52-16.29,33.98,3.48,9.46,15.71,14.9,34.43,15.32.78.02,1.57.03,2.37.03,17.67,0,39.13-4.31,60.42-12.15,22.35-8.22,42.13-19.4,55.68-31.46,13.99-12.45,19.77-24.52,16.29-33.98ZM43.35,87.34c13.22-11.77,32.59-22.7,54.52-30.77,21-7.72,42.08-11.98,59.38-11.98s30.14,4.74,33.18,13.02c2.93,7.96-2.5,18.62-15.3,30.01-13.23,11.77-32.59,22.7-54.52,30.77-21.92,8.07-43.76,12.3-61.46,11.9-17.13-.38-28.17-4.98-31.1-12.94-2.93-7.96,2.5-18.62,15.3-30.01Z" />
    <path class="cls-4"
      d="M61.45,133.04c-.79,0-1.58,0-2.35-.03-18.32-.41-30.25-5.64-33.6-14.72h0c-3.34-9.09,2.36-20.8,16.04-32.99,13.47-11.99,33.15-23.11,55.39-31.29,22.25-8.18,44.43-12.48,62.46-12.07,18.32.41,30.25,5.64,33.6,14.72,3.34,9.09-2.36,20.8-16.04,32.99-13.47,11.99-33.15,23.11-55.39,31.29-21.29,7.83-42.52,12.09-60.11,12.09ZM27.2,117.66c6.44,17.51,48.49,18.22,93.73,1.58,22.04-8.11,41.5-19.1,54.81-30.94,13.09-11.65,18.61-22.66,15.55-31-3.07-8.34-14.41-13.14-31.93-13.53-17.8-.39-39.76,3.85-61.8,11.96-45.24,16.64-76.8,44.43-70.36,61.94h0Z" />
    <path class="cls-5"
      d="M32.08,71.37c-.14,0-.29-.03-.42-.1l-6.54-3.44-6.54,3.44c-.13.07-.28.1-.42.1-.19,0-.38-.06-.53-.17-.28-.2-.42-.55-.36-.89l1.25-7.29-5.29-5.16c-.25-.24-.34-.6-.23-.93.11-.33.39-.57.73-.62l7.32-1.06,3.27-6.63c.15-.31.47-.51.81-.51s.66.2.81.51l3.27,6.63,7.32,1.06c.34.05.63.29.73.62.11.33.02.69-.23.93l-5.29,5.16,1.25,7.29c.06.34-.08.68-.36.89-.16.12-.35.17-.53.17Z" />
    <path class="cls-4"
      d="M25.11,49.02l3.48,7.06,7.79,1.13-5.64,5.49,1.33,7.76-6.97-3.66-6.97,3.66,1.33-7.76-5.64-5.49,7.79-1.13,3.48-7.06h0ZM25.11,47.2c-.69,0-1.32.39-1.63,1.01l-3.06,6.2-6.84.99c-.68.1-1.25.58-1.47,1.24-.21.66-.04,1.38.46,1.86l4.95,4.83-1.17,6.82c-.12.68.16,1.37.72,1.78.32.23.69.35,1.07.35.29,0,.58-.07.84-.21l6.12-3.22,6.12,3.22c.27.14.56.21.84.21.38,0,.75-.12,1.07-.35.56-.41.84-1.09.72-1.78l-1.17-6.82,4.95-4.83c.49-.48.67-1.2.46-1.86-.21-.66-.78-1.14-1.47-1.24l-6.84-.99-3.06-6.2c-.31-.62-.94-1.01-1.63-1.01h0Z" />
    <path class="cls-1"
      d="M28.59,56.08l-3.48-7.06-3.48,7.06-7.79,1.13,5.58,5.44c3.02-2.41,6.26-4.58,9.64-6.5l-.47-.07Z" />
    <path class="cls-5"
      d="M180.62,163.16c-.19,0-.38-.06-.53-.17-.28-.2-.42-.55-.36-.89l1.12-6.52-4.73-4.62c-.25-.24-.34-.6-.23-.93.11-.33.39-.57.73-.62l6.54-.95,2.93-5.93c.15-.31.47-.51.81-.51s.66.2.81.51l2.93,5.93,6.54.95c.34.05.63.29.73.62.11.33.02.69-.23.93l-4.74,4.62,1.12,6.52c.06.34-.08.68-.36.89-.16.12-.35.17-.53.17-.14,0-.29-.03-.42-.1l-5.85-3.08-5.85,3.08c-.13.07-.28.1-.42.1Z" />
    <path class="cls-2"
      d="M187.7,142.54c-.15-.31-.47-.51-.81-.51s-.66.2-.81.51l-2.93,5.93-6.54.95c-.34.05-.63.29-.73.62-.11.33-.02.69.23.93l4.73,4.62-.34,1.97c2.51-4.19,5.59-8.08,8.92-11.53l-1.72-3.48Z" />
    <path class="cls-4"
      d="M186.89,142.94l3.14,6.36,7.02,1.02-5.08,4.95,1.2,6.99-6.27-3.3-6.27,3.3,1.2-6.99-5.08-4.95,7.02-1.02,3.14-6.36h0ZM186.89,141.12c-.69,0-1.32.39-1.63,1.01l-2.71,5.5-6.07.88c-.68.1-1.25.58-1.47,1.24-.21.66-.04,1.38.46,1.86l4.39,4.28-1.04,6.05c-.12.68.16,1.37.72,1.78.32.23.69.35,1.07.35.29,0,.58-.07.84-.21l5.43-2.85,5.43,2.85c.27.14.56.21.84.21.38,0,.75-.12,1.07-.35.56-.41.84-1.09.72-1.78l-1.04-6.05,4.39-4.28c.49-.48.67-1.2.46-1.86-.21-.66-.78-1.14-1.47-1.24l-6.07-.88-2.71-5.5c-.31-.62-.94-1.01-1.63-1.01h0Z" />
    <path class="cls-5"
      d="M186.31,112.89c-.19,0-.38-.06-.53-.17-.28-.2-.42-.55-.36-.89l.86-4.99-3.63-3.54c-.25-.24-.34-.6-.23-.93.11-.33.39-.57.73-.62l5.01-.73,2.24-4.54c.15-.31.47-.51.81-.51s.66.2.81.51l2.24,4.54,5.01.73c.34.05.63.29.73.62.11.33.02.69-.23.93l-3.63,3.54.86,4.99c.06.34-.08.68-.36.89-.16.12-.35.17-.53.17-.14,0-.29-.03-.42-.1l-4.48-2.36-4.48,2.36c-.13.07-.28.1-.42.1Z" />
    <path class="cls-6"
      d="M193.2,98.86l-1.17-2.38c-.15-.31-.47-.51-.81-.51s-.66.2-.81.51l-2.24,4.54-5.01.73c-.34.05-.63.29-.73.62-.11.33-.02.69.23.93l3.63,3.54-.06.37c1.92-3.15,4.31-5.96,6.99-8.34Z" />
    <path class="cls-4"
      d="M191.21,96.88l2.45,4.97,5.49.8-3.97,3.87.94,5.46-4.91-2.58-4.91,2.58.94-5.46-3.97-3.87,5.49-.8,2.45-4.97h0ZM191.21,95.07c-.69,0-1.32.39-1.63,1.01l-2.03,4.11-4.54.66c-.68.1-1.25.58-1.47,1.24-.21.66-.04,1.38.46,1.86l3.29,3.2-.78,4.52c-.12.68.16,1.37.72,1.78.32.23.69.35,1.07.35.29,0,.58-.07.84-.21l4.06-2.13,4.06,2.13c.27.14.56.21.85.21.38,0,.75-.12,1.07-.35.56-.41.84-1.09.72-1.78l-.78-4.52,3.29-3.2c.49-.48.67-1.2.46-1.86-.21-.66-.78-1.14-1.47-1.24l-4.54-.66-2.03-4.11c-.31-.62-.94-1.01-1.63-1.01h0Z" />
    <path class="cls-5"
      d="M40.55,188.04c-.14,0-.29-.03-.42-.1l-5.16-2.71-5.16,2.71c-.13.07-.28.1-.42.1-.19,0-.38-.06-.53-.17-.28-.2-.42-.55-.36-.89l.99-5.75-4.18-4.07c-.25-.24-.34-.6-.23-.93.11-.33.39-.57.73-.62l5.77-.84,2.58-5.23c.15-.31.47-.51.81-.51s.66.2.81.51l2.58,5.23,5.77.84c.34.05.63.29.73.62.11.33.02.69-.23.93l-4.18,4.07.99,5.75c.06.34-.08.68-.36.89-.16.12-.35.17-.53.17Z" />
    <path class="cls-4"
      d="M34.96,169.94l2.79,5.66,6.25.91-4.52,4.41,1.07,6.22-5.59-2.94-5.59,2.94,1.07-6.22-4.52-4.41,6.25-.91,2.79-5.66h0ZM34.96,168.12c-.69,0-1.32.39-1.63,1.01l-2.37,4.8-5.3.77c-.68.1-1.25.58-1.47,1.24-.21.66-.04,1.38.46,1.86l3.84,3.74-.91,5.28c-.12.68.16,1.37.72,1.78.32.23.69.35,1.07.35.29,0,.58-.07.84-.21l4.74-2.49,4.74,2.49c.27.14.56.21.84.21.38,0,.75-.12,1.07-.35.56-.41.84-1.09.72-1.78l-.91-5.28,3.84-3.74c.49-.48.67-1.2.46-1.86-.21-.66-.78-1.14-1.47-1.24l-5.3-.77-2.37-4.8c-.31-.62-.94-1.01-1.63-1.01h0Z" />
    <path class="cls-2" d="M34.96,169.94l-2.79,5.66-6.25.91,4.18,4.08c1.55-3.31,3.33-6.5,5.4-9.54l-.54-1.1Z" />
    <path class="cls-5"
      d="M191.19,201.97c-.14,0-.29-.03-.42-.1l-3.88-2.04-3.88,2.04c-.13.07-.28.1-.42.1-.19,0-.38-.06-.53-.17-.28-.2-.42-.55-.36-.89l.74-4.32-3.14-3.06c-.25-.24-.34-.6-.23-.93.11-.33.39-.57.73-.62l4.33-.63,1.94-3.93c.15-.31.47-.51.81-.51h0c.35,0,.66.2.81.51l1.94,3.93,4.33.63c.34.05.63.29.73.62.11.33.02.69-.23.93l-3.14,3.06.74,4.32c.06.34-.08.68-.36.89-.16.12-.35.17-.53.17Z" />
    <path class="cls-1"
      d="M189.82,191.38l-.18-.03-1.94-3.93c-.15-.31-.47-.51-.81-.51s-.66.2-.81.51l-1.94,3.93-4.33.63c-.34.05-.63.29-.73.62-.11.33-.02.69.23.93l3.14,3.06-.57,3.31c2.46-3.03,5.1-5.88,7.95-8.52Z" />
    <path class="cls-4"
      d="M186.89,187.83l2.15,4.36,4.81.7-3.48,3.39.82,4.79-4.3-2.26-4.3,2.26.82-4.79-3.48-3.39,4.81-.7,2.15-4.36h0ZM186.89,186.01c-.69,0-1.32.39-1.63,1.01l-1.73,3.5-3.86.56c-.68.1-1.25.58-1.47,1.24-.21.66-.04,1.38.46,1.86l2.79,2.72-.66,3.85c-.12.68.16,1.37.72,1.78.32.23.69.35,1.07.35.29,0,.58-.07.84-.21l3.45-1.82,3.45,1.82c.27.14.56.21.84.21.38,0,.75-.12,1.07-.35.56-.41.84-1.09.72-1.78l-.66-3.85,2.79-2.72c.49-.48.67-1.2.46-1.86-.21-.66-.78-1.14-1.47-1.24l-3.86-.56-1.73-3.5c-.31-.62-.94-1.01-1.63-1.01h0Z" />
    <path class="cls-5"
      d="M40.69,134.83c-.14,0-.29-.03-.42-.1l-6.18-3.25-6.18,3.25c-.13.07-.28.1-.42.1-.19,0-.38-.06-.53-.17-.28-.2-.42-.55-.36-.89l1.18-6.88-5-4.87c-.25-.24-.34-.6-.23-.93.11-.33.39-.57.73-.62l6.91-1,3.09-6.26c.15-.31.47-.51.81-.51s.66.2.81.51l3.09,6.26,6.91,1c.34.05.63.29.73.62.11.33.02.69-.23.93l-5,4.87,1.18,6.88c.06.34-.08.68-.36.89-.16.12-.35.17-.53.17Z" />
    <path class="cls-4"
      d="M34.09,113.6l3.3,6.69,7.38,1.07-5.34,5.21,1.26,7.35-6.6-3.47-6.6,3.47,1.26-7.35-5.34-5.21,7.38-1.07,3.3-6.69h0ZM34.09,111.79c-.69,0-1.32.39-1.63,1.01l-2.88,5.83-6.44.94c-.68.1-1.25.58-1.47,1.24-.21.66-.04,1.38.46,1.86l4.66,4.54-1.1,6.41c-.12.68.16,1.37.72,1.78.32.23.69.35,1.07.35.29,0,.58-.07.84-.21l5.76-3.03,5.76,3.03c.27.14.56.21.84.21.38,0,.75-.12,1.07-.35.56-.41.84-1.09.72-1.78l-1.1-6.41,4.66-4.54c.49-.48.67-1.2.46-1.86-.21-.66-.78-1.14-1.47-1.24l-6.44-.94-2.88-5.83c-.31-.62-.94-1.01-1.63-1.01h0Z" />
    <path class="cls-1"
      d="M34.09,113.6l-3.3,6.69-7.38,1.07,5.34,5.21-.95,5.55c2.09-5.47,4.55-10.73,7.79-15.48l-1.5-3.04Z" />
    <path class="cls-5"
      d="M176.14,57c-.19,0-.38-.06-.53-.17-.28-.2-.42-.55-.36-.89l1.11-6.5-4.72-4.6c-.25-.24-.34-.6-.23-.93.11-.33.39-.57.73-.62l6.53-.95,2.92-5.91c.15-.31.47-.51.81-.51s.66.2.81.51l2.92,5.91,6.53.95c.34.05.63.29.73.62.11.33.02.69-.23.93l-4.72,4.6,1.11,6.5c.06.34-.08.68-.36.89-.16.12-.35.17-.53.17-.14,0-.29-.03-.42-.1l-5.84-3.07-5.84,3.07c-.13.07-.28.1-.42.1Z" />
    <path class="cls-4"
      d="M182.4,36.82l3.13,6.34,7,1.02-5.06,4.94,1.2,6.97-6.26-3.29-6.26,3.29,1.2-6.97-5.06-4.94,7-1.02,3.13-6.34h0ZM182.4,35.01c-.69,0-1.32.39-1.63,1.01l-2.71,5.49-6.05.88c-.68.1-1.25.58-1.47,1.24-.21.66-.04,1.38.46,1.86l4.38,4.27-1.03,6.03c-.12.68.16,1.37.72,1.78.32.23.69.35,1.07.35.29,0,.58-.07.84-.21l5.41-2.85,5.41,2.85c.27.14.56.21.84.21.38,0,.75-.12,1.07-.35.56-.41.84-1.09.72-1.78l-1.03-6.03,4.38-4.27c.49-.48.67-1.2.46-1.86-.21-.66-.78-1.14-1.47-1.24l-6.05-.88-2.71-5.49c-.31-.62-.94-1.01-1.63-1.01h0Z" />
    <path class="cls-1" d="M182.4,36.82l-3.13,6.34-7,1.02,5.02,4.9c2.55-2.28,5.3-4.31,8.13-6.12l-3.03-6.14Z" />
    <path class="cls-5"
      d="M143.98,70.39c-.14,0-.29-.03-.42-.1l-4.48-2.36-4.48,2.36c-.13.07-.28.1-.42.1-.19,0-.38-.06-.53-.17-.28-.2-.42-.55-.36-.89l.86-4.99-3.63-3.54c-.25-.24-.34-.6-.23-.93.11-.33.39-.57.73-.62l5.01-.73,2.24-4.54c.15-.31.47-.51.81-.51s.66.2.81.51l2.24,4.54,5.01.73c.34.05.63.29.73.62.11.33.02.69-.23.93l-3.63,3.54.86,4.99c.06.34-.08.68-.36.89-.16.12-.35.17-.53.17Z" />
    <path class="cls-4"
      d="M139.07,54.39l2.45,4.97,5.49.8-3.97,3.87.94,5.46-4.91-2.58-4.91,2.58.94-5.46-3.97-3.87,5.49-.8,2.45-4.97h0ZM139.07,52.57c-.69,0-1.32.39-1.63,1.01l-2.03,4.11-4.54.66c-.68.1-1.25.58-1.47,1.24-.21.66-.04,1.38.46,1.86l3.29,3.2-.78,4.52c-.12.68.16,1.37.72,1.78.32.23.69.35,1.07.35.29,0,.58-.07.84-.21l4.06-2.13,4.06,2.13c.27.14.56.21.84.21.38,0,.75-.12,1.07-.35.56-.41.84-1.09.72-1.78l-.78-4.52,3.29-3.2c.49-.48.67-1.2.46-1.86-.21-.66-.78-1.14-1.47-1.24l-4.54-.66-2.03-4.11c-.31-.62-.94-1.01-1.63-1.01h0Z" />
    <path class="cls-6" d="M131.14,60.15l3.97,3.87-.94,5.46,4.7-2.47c-2.15-2.22-4.06-4.65-5.71-7.15l-2.03.29Z" />
    <path class="cls-5"
      d="M76.26,72.03c-.14,0-.29-.03-.42-.1l-4.48-2.36-4.48,2.36c-.13.07-.28.1-.42.1-.19,0-.38-.06-.53-.17-.28-.2-.42-.55-.36-.89l.86-4.99-3.63-3.54c-.25-.24-.34-.6-.23-.93.11-.33.39-.57.73-.62l5.01-.73,2.24-4.54c.15-.31.47-.51.81-.51s.66.2.81.51l2.24,4.54,5.01.73c.34.05.63.29.73.62.11.33.02.69-.23.93l-3.63,3.54.86,4.99c.06.34-.08.68-.36.89-.16.12-.35.17-.53.17Z" />
    <path class="cls-4"
      d="M71.35,56.02l2.45,4.97,5.49.8-3.97,3.87.94,5.46-4.91-2.58-4.91,2.58.94-5.46-3.97-3.87,5.49-.8,2.45-4.97h0ZM71.35,54.2c-.69,0-1.32.39-1.63,1.01l-2.03,4.11-4.54.66c-.68.1-1.25.58-1.47,1.24-.21.66-.04,1.38.46,1.86l3.29,3.2-.78,4.52c-.12.68.16,1.37.72,1.78.32.23.69.35,1.07.35.29,0,.58-.07.84-.21l4.06-2.13,4.06,2.13c.27.14.56.21.84.21.38,0,.75-.12,1.07-.35.56-.41.84-1.09.72-1.78l-.78-4.52,3.29-3.2c.49-.48.67-1.2.46-1.86-.21-.66-.78-1.14-1.47-1.24l-4.54-.66-2.03-4.11c-.31-.62-.94-1.01-1.63-1.01h0Z" />
    <path class="cls-6"
      d="M78.15,61.62c-2.86,2.68-5.77,5.41-8.81,7.98l2.02-1.06,4.91,2.58-.94-5.46,3.97-3.87-1.15-.17Z" />
    <path class="cls-6"
      d="M62.59,47.36c-3.51,0-6.37-2.86-6.37-6.37s2.86-6.37,6.37-6.37,6.37,2.86,6.37,6.37-2.86,6.37-6.37,6.37Z" />
    <path class="cls-4"
      d="M62.59,35.54c3.02,0,5.46,2.44,5.46,5.46s-2.44,5.46-5.46,5.46-5.46-2.44-5.46-5.46,2.44-5.46,5.46-5.46h0ZM62.59,33.72c-4.01,0-7.28,3.26-7.28,7.28s3.26,7.28,7.28,7.28,7.28-3.26,7.28-7.28-3.26-7.28-7.28-7.28h0Z" />
    <path class="cls-3"
      d="M58.75,44.88c.99.98,2.34,1.58,3.84,1.58,3.02,0,5.46-2.44,5.46-5.46,0-1.13-.34-2.18-.93-3.05-2.2,2.86-5.16,5.03-8.37,6.93Z" />
    <path class="cls-6"
      d="M164.01,104.18c-3.51,0-6.37-2.86-6.37-6.37s2.86-6.37,6.37-6.37,6.37,2.86,6.37,6.37-2.86,6.37-6.37,6.37Z" />
    <path class="cls-1"
      d="M167.71,92.64c-1.04-.75-2.32-1.19-3.7-1.19-3.51,0-6.37,2.86-6.37,6.37,0,1.46.5,2.8,1.33,3.88,1.91-3.89,4.76-7.2,8.74-9.05Z" />
    <path class="cls-4"
      d="M164.01,92.35c3.02,0,5.46,2.44,5.46,5.46s-2.44,5.46-5.46,5.46-5.46-2.44-5.46-5.46,2.44-5.46,5.46-5.46h0ZM164.01,90.54c-4.01,0-7.28,3.26-7.28,7.28s3.26,7.28,7.28,7.28,7.28-3.26,7.28-7.28-3.26-7.28-7.28-7.28h0Z" />
    <circle class="cls-6" cx="127.2" cy="44.37" r="6.37" />
    <path class="cls-1"
      d="M131,39.27c-1.06-.79-2.37-1.27-3.8-1.27-3.51,0-6.37,2.86-6.37,6.37,0,.74.13,1.45.37,2.12,2.5-3.04,6.04-5.45,9.8-7.22Z" />
    <path class="cls-4"
      d="M127.2,38.91c3.02,0,5.46,2.44,5.46,5.46s-2.44,5.46-5.46,5.46-5.46-2.44-5.46-5.46,2.44-5.46,5.46-5.46h0ZM127.2,37.09c-4.01,0-7.28,3.26-7.28,7.28s3.26,7.28,7.28,7.28,7.28-3.26,7.28-7.28-3.26-7.28-7.28-7.28h0Z" />
    <path class="cls-6"
      d="M93.75,132.23c-2.55,0-4.62-2.07-4.62-4.62s2.07-4.62,4.62-4.62,4.62,2.07,4.62,4.62-2.07,4.62-4.62,4.62Z" />
    <path class="cls-4"
      d="M93.75,123.45c2.3,0,4.16,1.86,4.16,4.16s-1.86,4.16-4.16,4.16-4.16-1.86-4.16-4.16,1.86-4.16,4.16-4.16h0ZM93.75,122.53c-2.8,0-5.08,2.28-5.08,5.08s2.28,5.08,5.08,5.08,5.08-2.28,5.08-5.08-2.28-5.08-5.08-5.08h0Z" />
    <path class="cls-1"
      d="M95.86,124.04c-.62-.37-1.34-.6-2.12-.6-2.3,0-4.16,1.86-4.16,4.16,0,.76.22,1.46.58,2.08,1.51-2.25,3.45-4.18,5.7-5.65Z" />
  </g>
</svg>