<?xml version="1.0" encoding="UTF-8"?>
<svg id="Capa_2" xmlns="http://www.w3.org/2000/svg" xmlns:xlink="http://www.w3.org/1999/xlink"
  viewBox="0 0 171.93 204.45">
  <defs>
    <style>
      .cls-1 {
        fill: aqua;
      }

      .cls-2 {
        fill: #29abe2;
      }

      .cls-3 {
        fill: #fff;
      }

      .cls-4 {
        filter: none;
      }

      .cls-5 {
        fill: #862291;
      }

      .cls-6 {
        fill: #1b1464;
      }

      .cls-7 {
        fill: #fcee21;
      }

      .cls-8 {
        fill: #ed1e79;
      }
    </style>
  </defs>
  <g id="_0">
    <g class="cls-4">
      <polygon class="cls-3" points="148.96 51.72 137.29 74.54 148.96 83.05 158.96 67.39 148.96 51.72" />
      <path class="cls-3"
        d="M168.56,48.33s0,0,0,0c-.56-.27-1.15-.45-1.76-.53-.55-4.22-2.07-6.85-5.23-7.72-1.87-.51-3.84-.14-5.42,1.03-.79.59-1.49,1.35-2.08,2.55-.84-.22-1.76-.28-2.79-.11-.43.07-.84.18-1.24.33l.58-37.39c.03-1.54-.58-3.05-1.66-4.15-1.08-1.1-2.58-1.72-4.12-1.72h-13.68c-1.54,0-3.04.63-4.12,1.72-.78.79-1.31,1.8-1.54,2.88-3.85-3.46-9.05-5.22-15.47-5.22-6.87,0-12.33,2-16.24,5.95-.23-2.98-2.72-5.34-5.76-5.34h-12.99c-1.14,0-2.2.33-3.09.9-.9-.57-1.96-.9-3.09-.9h-13.83c-3.19,0-5.78,2.59-5.78,5.78v28.03c-.31.43-.54.9-.7,1.4-.07.03-.13.07-.2.11-.98.55-1.77,1.36-2.28,2.34-.07,0-.11,0-.13,0-2.49,0-4.62,1.58-5.43,3.8-1.13.96-1.77,2.36-1.8,3.81l-.15.05c-.14-.77-.38-1.36-.64-1.88-.87-1.74-2.44-2.99-4.32-3.43-1.01-.23-1.93-.24-2.78-.08-.51-1.24-1.15-2.04-1.9-2.69-1.49-1.28-3.44-1.78-5.34-1.39-3.2.66-4.9,3.18-5.73,7.35-.62.04-1.22.18-1.8.41-5.75,2.32-4.2,8.44-.16,22.07.03.11.07.21.1.31l2.72,7.38c.3.81.77,1.52,1.36,2.1,1.32,6.22,3.56,11.51,6.69,15.8-8.86.51-17.34,1.03-20.52,1.22h-.17c-1.91.13-3.66,1.09-4.79,2.63-1.14,1.55-1.53,3.51-1.08,5.36.03.11,2.66,11.06,2.89,19.98.22,8.48.34,37.17.37,45.76v.32c0,2.13,1.06,4.12,2.82,5.32.11.07.22.14.33.21l1.98,1.14c1.34.77,2.95.89,4.39.33,9.91-3.86,24.95-3.55,36.26-2.79v13.53c-.05.01-.11.03-.16.04-.12.03-.23.06-.33.09-.23.07-.45.14-.68.22-.11.04-.22.08-.32.12-.27.11-.54.22-.8.35-.06.03-.12.05-.17.08-.31.16-.6.32-.84.47-.1.06-.19.12-.27.17-.2.13-.39.26-.58.4-.09.07-.19.14-.25.19-.17.13-.34.27-.5.42l-.24.22c-.15.14-.31.29-.46.45-.07.07-.14.14-.18.18-.39.42-.76.87-1.07,1.31l-.11.17c-.12.18-.24.36-.35.53l-.1.16c-.11.17-.21.35-.27.47l-.13.23c-.09.18-.18.36-.27.53-.02.04-.04.07-.05.1-.09.19-.18.38-.26.57-1.04,1.07-1.63,2.56-1.52,4.16.03.4.09.78.2,1.14-.03,1.31.45,2.59,1.34,3.57.97,1.05,2.33,1.65,3.75,1.65h7.22c.91.61,2.01.96,3.19.96h13.14c1.25,0,2.41-.4,3.36-1.08.95.68,2.11,1.08,3.36,1.08h13.14c1.18,0,2.27-.35,3.19-.96h9.74c2.7,1.04,5.75,1.57,9.08,1.57,6.28,0,11.57-1.93,15.42-5.57.42,2.78,2.81,4.92,5.71,4.92h13.68c3.19,0,5.78-2.59,5.78-5.78v-11.38c0-2.17-1.2-4.06-2.98-5.05.18-.55.29-1.13.3-1.74l1.36-88.39c4.11-2.58,7.53-5.98,10.36-10.31,1.85-.34,3.45-1.57,4.23-3.32l3.22-7.21c.04-.1.09-.2.12-.3,4.94-13.29,6.89-19.28,1.32-21.98Z" />
      <polygon class="cls-8"
        points="75.04 6.39 75.04 111.77 68.85 6.39 55.02 6.39 55.02 198.06 68.16 198.06 68.16 84.44 74.88 198.06 88.02 198.06 88.02 168.6 88.02 6.39 75.04 6.39" />
      <path class="cls-5"
        d="M88.02,198.75h-13.14c-.36,0-.66-.28-.68-.64l-5.36-90.56v90.52c0,.38-.31.68-.68.68h-13.14c-.38,0-.68-.31-.68-.68V6.39c0-.38.31-.68.68-.68h13.83c.36,0,.66.28.68.64l4.82,82.14V6.39c0-.38.31-.68.68-.68h12.99c.38,0,.68.31.68.68v191.67c0,.38-.31.68-.68.68ZM75.53,197.38h11.82V7.07h-11.62v104.7c0,.37-.29.67-.66.68-.35-.02-.68-.27-.7-.64l-6.15-104.74h-12.5v190.31h11.78v-112.94c0-.37.29-.67.66-.68h.02c.36,0,.66.28.68.64l6.69,112.98Z" />
      <path class="cls-8"
        d="M122.39,10.25c-2.81-2.98-6.93-4.47-12.36-4.47s-9.55,1.49-12.36,4.47c-2.81,2.98-4.22,7.35-4.22,13.1v156.37c0,6.14,1.42,10.83,4.26,14.08,2.84,3.25,6.95,4.87,12.32,4.87s9.48-1.62,12.32-4.87,4.26-7.94,4.26-14.08V23.35c0-5.76-1.41-10.12-4.22-13.1ZM113.2,44.17v136.21c0,3.95-1.02,5.92-3.06,5.92-1.17,0-2.01-.45-2.52-1.36-.51-.9-.76-2.4-.76-4.49V23.24c0-3.39,1.12-5.08,3.36-5.08,1.99,0,2.98,1.66,2.98,4.97v21.04Z" />
      <path class="cls-5"
        d="M110.03,199.36c-5.56,0-9.87-1.72-12.84-5.1-2.94-3.36-4.43-8.25-4.43-14.53V23.35c0-5.91,1.48-10.48,4.41-13.57,2.93-3.11,7.26-4.68,12.86-4.68s9.92,1.58,12.85,4.68c2.93,3.1,4.41,7.66,4.41,13.57v156.37c0,6.28-1.49,11.17-4.43,14.53-2.96,3.39-7.28,5.1-12.83,5.1ZM110.03,6.46c-5.2,0-9.2,1.43-11.86,4.26-2.68,2.84-4.04,7.09-4.04,12.64v156.37c0,5.94,1.38,10.53,4.09,13.63,2.69,3.08,6.66,4.64,11.81,4.64s9.11-1.56,11.81-4.64c2.71-3.1,4.09-7.69,4.09-13.63V23.35c0-5.55-1.36-9.8-4.04-12.64-2.67-2.82-6.66-4.26-11.86-4.26ZM110.15,186.98c-1.41,0-2.49-.59-3.12-1.7-.57-1.02-.85-2.6-.85-4.82V23.24c0-4.76,2.2-5.76,4.05-5.76,1.67,0,3.66.98,3.66,5.65v157.25c0,4.38-1.26,6.6-3.74,6.6ZM110.22,18.84c-1.15,0-2.68.46-2.68,4.4v157.21c0,1.96.23,3.36.68,4.15.39.69,1,1.01,1.93,1.01,1.57,0,2.37-1.76,2.37-5.24V23.12c0-4.28-1.73-4.28-2.3-4.28Z" />
      <polygon class="cls-8" points="144.83 6.39 131.16 6.39 133.83 179.76 142.16 179.76 144.83 6.39" />
      <path class="cls-5"
        d="M142.16,180.45h-8.33c-.37,0-.68-.3-.68-.67l-2.67-173.37c0-.18.07-.36.2-.49.13-.13.3-.2.49-.2h13.68c.18,0,.36.07.49.2.13.13.2.31.2.49l-2.67,173.37c0,.37-.31.67-.68.67ZM134.5,179.08h6.98l2.65-172.01h-12.29l2.65,172.01Z" />
      <rect class="cls-8" x="131.16" y="186.64" width="13.68" height="11.38" />
      <path class="cls-5"
        d="M144.83,198.71h-13.68c-.38,0-.68-.31-.68-.68v-11.38c0-.38.31-.68.68-.68h13.68c.38,0,.68.31.68.68v11.38c0,.38-.31.68-.68.68ZM131.84,197.34h12.31v-10.02h-12.31v10.02Z" />
      <polygon class="cls-5"
        points="75.04 111.77 70.26 30.51 55.02 31.03 55.02 101.81 59.24 116.91 55.02 137.84 55.02 155.62 68.16 156.6 68.16 84.44 72.45 156.92 88.02 158.09 88.02 29.9 75.04 30.34 75.04 111.77" />
      <polygon class="cls-5"
        points="113.2 41.62 113.2 44.17 113.2 157.23 126.61 154.75 126.61 44.17 126.61 41.62 126.61 28.58 113.2 29.04 113.2 41.62" />
      <polygon class="cls-5"
        points="93.45 41.62 93.45 44.17 93.45 158.5 106.86 156.92 106.86 44.17 106.86 41.62 106.86 29.25 93.45 29.71 93.45 41.62" />
      <polygon class="cls-5"
        points="136.07 108.82 138.95 28.16 131.5 28.41 133.43 153.49 142.59 151.8 142.93 129.52 136.07 108.82" />
      <path class="cls-2"
        d="M44.61,198.81c-.28,0-.56-.12-.75-.33-.19-.21-.29-.49-.26-.77.26-3.15,2.43-9.12,8.78-9.12,6.26.06,8.63,3.45,9.39,4.98h1.5s.2-3.83.2-3.83c.01-.25.12-.49.3-.67,1.63-1.6,3.92-2.52,6.28-2.52,1.82,0,3.35.57,4.08,1.52.45.58.59,1.29.41,1.98-.21.78-.63,1.87-1.31,3.33-1.09,2.36-2.39,4.78-2.45,4.89-.18.33-.52.53-.9.53h-25.28Z" />
      <path class="cls-6"
        d="M70.05,187.56c2.17,0,3.85.93,3.51,2.23-.21.8-.7,1.97-1.25,3.17-1.08,2.36-2.42,4.83-2.42,4.83h-25.28s.68-8.18,7.76-8.18c.03,0,.06,0,.08,0,7.16.07,8.63,4.99,8.63,4.99l3.15-.03.25-4.78c1.62-1.59,3.76-2.23,5.57-2.23h0ZM70.05,185.52h0c-2.63,0-5.18,1.03-7,2.82-.36.36-.58.84-.61,1.35l-.15,2.77c-1.16-1.89-3.9-4.83-9.83-4.89h-.1c-7.08,0-9.5,6.58-9.79,10.05-.05.57.15,1.13.53,1.55.39.42.93.66,1.5.66h25.28c.75,0,1.44-.41,1.79-1.07.06-.1,1.38-2.55,2.48-4.95.7-1.52,1.15-2.66,1.37-3.5.27-1.01.06-2.03-.58-2.87-.94-1.22-2.72-1.92-4.89-1.92h0Z" />
      <path class="cls-7"
        d="M52.45,189.6c-4.29-.04-6.26,2.91-7.14,5.27,3.97-2.16,8.61-3.35,13.13-3.58-1.31-.91-3.22-1.67-5.99-1.69Z" />
      <path class="cls-7" d="M73.19,188.54c-1.36-1.4-5.86-1.56-8.71,1.25l-.11,2.18c2.25-2.38,5.53-3.72,8.83-3.42Z" />
      <path class="cls-6"
        d="M69.78,191.2c-2.12,0-2.88-1.36-2.92-1.44-.09-.17-.03-.37.14-.46.16-.09.37-.03.46.14.05.08,1.08,1.85,4.41.67.18-.07.37.03.44.21.06.18-.03.37-.21.44-.91.32-1.68.45-2.32.45Z" />
      <path class="cls-6"
        d="M61.06,196.87h0l-3.85-.09c-.19,0-.34-.16-.33-.35,0-.19.18-.32.35-.33l3.85.09c.19,0,.34.16.33.35,0,.19-.16.33-.34.33Z" />
      <path class="cls-6"
        d="M54.02,196.71h0c-5.69-.13-9.06-.21-9.26-.2h-.01c-.18,0-.33-.14-.34-.32-.01-.18.12-.34.3-.36.05,0,.19-.02,9.33.2.19,0,.34.16.33.35,0,.19-.16.33-.34.33Z" />
      <path class="cls-6"
        d="M60.47,195.94c-.06,0-.11-.01-.17-.04-.16-.09-.22-.3-.13-.46l.64-1.14c.09-.17.3-.22.46-.13.16.09.22.3.13.46l-.64,1.14c-.06.11-.18.17-.3.17Z" />
      <path class="cls-6"
        d="M71.02,196.87h-7.82c-.19,0-.34-.15-.34-.34s.15-.34.34-.34h7.82c.19,0,.34.15.34.34s-.15.34-.34.34Z" />
      <path class="cls-6"
        d="M53.24,99.64c-4.72,0-11.37-.99-17.23-5.47-7.65-5.86-11.77-16.02-12.25-30.19l2.73-.09c.45,13.31,4.2,22.76,11.16,28.1,9.2,7.06,21.06,4.42,21.18,4.39l.62,2.66c-.23.05-2.68.61-6.21.61Z" />
      <path class="cls-3"
        d="M29.68,70.38l-5.57,1.59-2.71-7.37s-4.32-14.57-3.21-15.02c1.11-.45,4.84,10.4,4.84,10.4,0,0-.73-17.37,1.68-17.87,2.41-.49,1.55,17.52,1.55,17.52,0,0,3.33-14.01,6.01-13.39s-4.11,15.98-4.11,15.98c0,0,7.43-3.1,8.02-1.16.58,1.94-8.02,3.99-8.02,3.99l1.51,5.32Z" />
      <path class="cls-6"
        d="M24.11,72.65c-.28,0-.54-.17-.64-.45l-2.71-7.37c-4.51-15.21-3.41-15.65-2.82-15.89.23-.09.48-.08.72.03.93.43,2.36,3.61,3.57,6.78-.09-6.39.25-13.88,2.35-14.31.36-.07.71.02,1,.27,1.34,1.15,1.58,7.23,1.53,12.22,1.36-4.33,3.27-8.83,5.32-8.36.28.06.66.25.91.74,1.12,2.25-2.27,10.83-3.9,14.68,2-.72,5.21-1.68,6.6-1.02.4.19.68.5.79.89.08.26.11.67-.15,1.14-.95,1.65-5.67,3.03-7.67,3.55l1.32,4.64c.1.36-.11.74-.47.84l-5.57,1.59c-.06.02-.13.03-.19.03ZM18.77,51.22c.36,2.53,1.79,8.11,3.29,13.18l2.48,6.73,4.3-1.23-1.32-4.66c-.05-.18-.03-.37.07-.53.09-.16.25-.28.43-.32,3.87-.93,7.46-2.42,7.52-3.14,0-.01-.04-.03-.07-.04-1-.47-4.71.68-7.03,1.64-.26.11-.55.05-.75-.15-.2-.2-.25-.5-.14-.75,3.25-7.34,5.33-14.24,4.55-15.05-.9-.22-3.35,5.26-5.17,12.9-.08.34-.41.57-.76.52-.35-.05-.6-.36-.59-.71.35-7.27.13-15.56-.81-16.76-1.01,1.01-1.38,9.54-1.06,17.11.01.34-.22.64-.56.7-.33.06-.66-.13-.77-.45-1.17-3.39-2.67-7.18-3.62-8.98Z" />
      <path class="cls-2"
        d="M76.47,198.81c-.28,0-.56-.12-.75-.33-.19-.21-.29-.49-.26-.77.26-3.15,2.43-9.12,8.78-9.12,6.26.06,8.63,3.45,9.39,4.98h1.5s.2-3.83.2-3.83c.01-.25.12-.49.3-.67,1.63-1.6,3.92-2.52,6.28-2.52,1.82,0,3.35.57,4.08,1.52.45.58.59,1.29.41,1.99-.2.77-.64,1.89-1.31,3.33-1.09,2.36-2.39,4.78-2.45,4.89-.18.33-.52.53-.9.53h-25.28Z" />
      <path class="cls-6"
        d="M101.92,187.56c2.17,0,3.85.93,3.5,2.23-.21.8-.7,1.97-1.25,3.17-1.08,2.36-2.42,4.83-2.42,4.83h-25.28s.68-8.18,7.76-8.18c.03,0,.06,0,.08,0,7.16.07,8.63,4.99,8.63,4.99l3.15-.03.25-4.78c1.62-1.59,3.76-2.23,5.57-2.23h0ZM101.92,185.52h0c-2.63,0-5.18,1.03-7,2.82-.36.36-.58.84-.61,1.35l-.15,2.77c-1.16-1.89-3.9-4.83-9.83-4.89h-.1c-7.08,0-9.5,6.58-9.79,10.05-.05.57.15,1.13.53,1.55.39.42.93.66,1.5.66h25.28c.75,0,1.44-.41,1.79-1.07.06-.1,1.38-2.55,2.48-4.95.7-1.52,1.15-2.66,1.37-3.5.27-1.01.06-2.03-.58-2.87-.94-1.22-2.72-1.92-4.89-1.92h0Z" />
      <path class="cls-7"
        d="M84.32,189.6c-4.29-.04-6.26,2.91-7.14,5.27,3.97-2.16,8.61-3.35,13.13-3.58-1.31-.91-3.22-1.67-5.99-1.69Z" />
      <path class="cls-7" d="M105.06,188.54c-1.36-1.4-5.86-1.56-8.71,1.25l-.11,2.18c2.25-2.38,5.53-3.72,8.83-3.42Z" />
      <path class="cls-6"
        d="M101.65,191.2c-2.12,0-2.88-1.36-2.92-1.44-.09-.17-.03-.37.14-.46.16-.09.37-.03.46.14.05.08,1.08,1.85,4.41.67.18-.07.37.03.44.21.06.18-.03.37-.21.44-.91.32-1.68.45-2.32.45Z" />
      <path class="cls-6"
        d="M92.93,196.87h0l-3.85-.09c-.19,0-.34-.16-.33-.35,0-.19.18-.32.35-.33l3.85.09c.19,0,.34.16.33.35,0,.19-.16.33-.34.33Z" />
      <path class="cls-6"
        d="M85.89,196.71h0c-5.69-.13-9.06-.21-9.26-.2h-.01c-.18,0-.33-.14-.34-.32-.01-.18.12-.34.3-.36.05,0,.19-.02,9.33.2.19,0,.34.16.33.35,0,.19-.16.33-.34.33Z" />
      <path class="cls-6"
        d="M92.34,195.94c-.06,0-.11-.01-.17-.04-.16-.09-.22-.3-.13-.46l.64-1.14c.09-.17.3-.22.46-.13.16.09.22.3.13.46l-.64,1.14c-.06.11-.18.17-.3.17Z" />
      <path class="cls-6"
        d="M102.89,196.87h-7.82c-.19,0-.34-.15-.34-.34s.15-.34.34-.34h7.82c.19,0,.34.15.34.34s-.15.34-.34.34Z" />
      <path class="cls-6"
        d="M79.21,144.91l-3.41.13c.6,16-2.18,31.12-8.24,45.04,1.01.43,2.32.55,3.46.58,6.03-14.18,8.79-29.53,8.19-45.75Z" />
      <path class="cls-6"
        d="M111.05,144.91l-3.41.13c.6,16.08-2.21,31.28-8.34,45.26,1.17.58,2.34.58,3.51.5,6.08-14.22,8.85-29.62,8.24-45.89Z" />
      <path class="cls-1"
        d="M126.48,150.83c-.05,0-.11,0-.17-.01l-11.1-1.81c-1.03-.01-12.18-.16-23.23-.36-23.87-.44-24.01-.64-24.42-1.23-.16-.22-.22-.51-.18-.78.11-1.37-.18-22.47-.4-36.5l-24.13-63.83c-.18-.47.01-1,.45-1.25l9.23-5.19-.15-2.43c-.02-.29.09-.57.28-.77.19-.2.46-.31.73-.31,0,0,5.28.14,5.28.14l3.35-1.96c.15-.09.32-.13.49-.14,0,0,68.69-1.76,68.7-1.76.27,0,.54.11.73.31.2.2.3.48.29.76l-3.35,66.27,1.96,13.43c10.82,30.01,10.15,31.4,9.93,31.86-.12.25-.39.49-.65.57-.56.19-7.5,1.08-12.07,1.65l-.57,2.55c-.1.47-.52.8-.99.8Z" />
      <path class="cls-6"
        d="M131.2,33.65h0,0ZM131.2,33.65l-3.36,66.37,1.99,13.63s11.12,30.83,9.95,31.22c-.58.19-12.59,1.7-12.59,1.7l-.72,3.25-11.18-1.82s-47.11-.59-46.92-1.17-.39-36.88-.39-36.88l-24.19-64,9.78-5.5-.19-3.07,5.54.14,3.6-2.11,68.68-1.76h0ZM131.21,31.62h0s-.04,0-.06,0l-68.67,1.76c-.34,0-.68.1-.98.28l-3.1,1.81-4.96-.13s-.04,0-.05,0c-.55,0-1.08.22-1.47.62-.4.41-.6.97-.57,1.54l.11,1.8-8.67,4.88c-.88.49-1.26,1.56-.91,2.5l24.07,63.66c.22,13.8.51,34.45.4,36.2-.07.52.05,1.05.36,1.48.81,1.13.85,1.2,25.24,1.65,10.83.2,21.75.34,23.16.36l11.02,1.8c.11.02.22.03.33.03.94,0,1.78-.65,1.99-1.6l.41-1.85c10.83-1.36,11.34-1.53,11.56-1.61.55-.18.99-.57,1.24-1.1.47-.97.81-1.67-4.64-17.68-2.34-6.86-4.77-13.65-5.21-14.87l-1.93-13.23,3.34-66.06c0-.07.01-.14.01-.21,0-1.13-.91-2.04-2.04-2.04h0ZM131.2,35.69h0,0Z" />
      <polygon class="cls-3"
        points="62.53 35.41 58.93 37.52 53.39 37.37 53.58 40.44 43.8 45.95 44.2 47.02 55.97 40.64 56 38.56 131.15 34.71 131.2 33.65 62.53 35.41" />
      <path class="cls-2"
        d="M129.84,113.65l-1.99-13.63,3.36-66.37-2.18.06-16.02,11.1-68.45,3.14,23.44,61.99s.59,36.29.39,36.88,46.92,1.17,46.92,1.17l11.18,1.82.72-3.25s12.01-1.5,12.59-1.7c1.17-.39-9.95-31.22-9.95-31.22Z" />
      <path class="cls-6"
        d="M130.27,113.05l-1.88-9.31-23.64,7.81-36.73.22c.05,2.9.14,8.87.22,15.07l49.17-3.83,1.54-.28.71-.13,12.01-5.58-1.39-3.97Z" />
      <path class="cls-6"
        d="M45.93,44.73c-.38,0-.68-.31-.68-.68s.31-.68.68-.68c.16,0,4.18-.09,8.09-.18h.02c.37,0,.67.3.68.67,0,.38-.29.69-.67.7-5.8.13-8,.18-8.12.18Z" />
      <path class="cls-6"
        d="M61.75,44.38c-.37,0-.67-.3-.68-.67,0-.38.29-.69.67-.7l3.35-.08h.02c.37,0,.67.3.68.67,0,.38-.29.69-.67.7l-3.35.08h-.02Z" />
      <path class="cls-6"
        d="M117.23,47.03c-.37,0-.67-.29-.68-.66l-.1-3.24c-4.14.09-26.47.6-44.91,1.02h-.02c-.37,0-.67-.3-.68-.67,0-.38.29-.69.67-.7,20.41-.46,45.59-1.04,45.59-1.04h.02c.37,0,.67.29.68.66l.12,3.92c.01.38-.29.69-.66.7h-.02Z" />
      <path class="cls-6"
        d="M117.51,56.25c-.37,0-.67-.29-.68-.66l-.09-3.07c-.01-.38.29-.69.66-.7h.02c.37,0,.67.29.68.66l.09,3.07c.01.38-.29.69-.66.7h-.02Z" />
      <path class="cls-6"
        d="M121.25,142.38c-.38,0-.68-.31-.68-.68v-23.7l-2.25-13.68s0-.06,0-.09l-1.36-44.68c-.01-.38.29-.69.66-.7h.02c.37,0,.67.29.68.66l1.36,44.63,2.25,13.69s0,.07,0,.11v23.75c0,.38-.31.68-.68.68Z" />
      <path class="cls-6"
        d="M121.25,150.15c-.38,0-.68-.31-.68-.68v-3.43c0-.38.31-.68.68-.68s.68.31.68.68v3.43c0,.38-.31.68-.68.68Z" />
      <path class="cls-6"
        d="M126.4,150.93c-.35,0-.65-.27-.68-.63l-.89-11.14c-.03-.38.25-.7.63-.73.38-.03.7.25.73.63l.89,11.14c.03.38-.25.7-.63.73-.02,0-.04,0-.05,0Z" />
      <path class="cls-6"
        d="M125.2,135.83c-.35,0-.65-.27-.68-.63l-.26-3.21c-.03-.38.25-.7.63-.73.37-.03.7.25.74.63l.26,3.21c.03.38-.25.7-.63.73-.02,0-.04,0-.05,0Z" />
      <path class="cls-6"
        d="M124.7,129.54c-.35,0-.65-.27-.68-.63l-1.1-13.8-2.33-11.84s-.01-.09-.01-.13v-30.32c0-.38.31-.68.68-.68s.68.31.68.68v30.25l2.33,11.81s0,.05.01.08l1.1,13.84c.03.38-.25.7-.63.73-.02,0-.04,0-.05,0Z" />
      <path class="cls-6"
        d="M121.25,71.11c-.38,0-.68-.31-.68-.68v-3.63c0-.38.31-.68.68-.68s.68.31.68.68v3.63c0,.38-.31.68-.68.68Z" />
      <path class="cls-6"
        d="M121.25,62.62c-.38,0-.68-.31-.68-.68v-21.93c-3.53.07-19.87.39-35.26.72-.39.02-.69-.29-.7-.67,0-.38.29-.69.67-.7,17.29-.38,35.77-.73,35.96-.74.18,0,.36.07.49.2.13.13.2.3.2.49v22.62c0,.38-.31.68-.68.68Z" />
      <path class="cls-6"
        d="M78.61,40.9c-.37,0-.67-.3-.68-.67,0-.38.29-.69.67-.7l3.04-.07h.02c.37,0,.67.3.68.67,0,.38-.29.69-.67.7l-3.04.07h-.02Z" />
      <path class="cls-6"
        d="M51.17,41.65c-.24,0-.47-.13-.6-.35-.18-.33-.07-.74.26-.93.24-.13.37-.21,22.48-.72.38-.02.69.29.7.67,0,.38-.29.69-.67.7-17.21.4-21.5.55-22.02.61-.05.01-.1.02-.16.02Z" />
      <path class="cls-6"
        d="M132.75,146.4c-.33,0-.62-.24-.67-.57l-.32-1.9c-.06-.37.19-.72.56-.79.37-.06.72.19.79.56l.32,1.9c.06.37-.19.72-.56.79-.04,0-.08,0-.11,0Z" />
      <path class="cls-6"
        d="M131.82,140.91c-.33,0-.62-.24-.67-.57l-4.52-26.78-2.89-11.75c-.01-.06-.02-.12-.02-.18l1.72-64.95-66.58.84h0c-.37,0-.68-.3-.68-.67,0-.38.3-.69.67-.69l67.29-.85c.21,0,.36.07.49.2.13.13.2.31.2.5l-1.73,65.56,2.88,11.71,4.53,26.82c.06.37-.19.72-.56.79-.04,0-.08,0-.11,0Z" />
      <path class="cls-1"
        d="M55.37,150.93c-.22,0-.42-.1-.55-.28-.13-.18-.17-.4-.1-.61l8.71-27.37v-11.84l-22.83-54.31-4.19-2.58c-.23-.14-.35-.39-.32-.66.03-.26.21-.48.46-.57l8.4-2.87c.06-.02.13-.03.19-.04,0,0,66.77-2.79,66.78-2.79.35,0,.65.27.68.63l4.41,56.95.78,15.02s0,.05,0,.08l-1.91,29.8c-.02.36-.32.63-.67.64,0,0-59.84.79-59.84.79Z" />
      <path class="cls-6"
        d="M111.92,47.7l4.41,56.95.78,15-1.91,29.8-59.83.79,8.74-27.47v-12.08l-22.96-54.64-4.38-2.7,8.4-2.87,66.75-2.79h0ZM111.92,46.33s-.04,0-.06,0l-66.75,2.79c-.13,0-.26.03-.39.07l-8.4,2.87c-.5.17-.86.62-.92,1.14-.06.53.19,1.04.64,1.31l4,2.47,22.69,53.98v11.59l-8.67,27.27c-.13.42-.06.88.2,1.23.26.35.66.55,1.1.55,0,0,.01,0,.02,0l59.83-.79c.71,0,1.3-.57,1.35-1.28l1.91-29.8c0-.05,0-.11,0-.16l-.78-15s0-.02,0-.03l-4.41-56.95c-.06-.71-.65-1.26-1.36-1.26h0Z" />
      <polygon class="cls-3" points="111.92 47.7 45.18 50.49 44.32 50.78 109.79 49.85 115.45 93.25 111.92 47.7" />
      <polygon class="cls-3" points="59.19 146.89 61.51 130.96 55.37 150.25 115.2 149.46 59.19 146.89" />
      <polygon class="cls-2" points="36.77 53.36 41.15 56.06 41.16 56.09 44.95 50.57 36.77 53.36" />
      <polygon class="cls-2"
        points="44.8 55.25 107.58 52.5 112.42 106.38 112.42 122.31 109.42 143.12 61.54 144.97 68.22 123.01 67.99 109.94 44.8 55.25" />
      <ellipse class="cls-1" cx="99.54" cy="130.96" rx="9.94" ry="10.59" />
      <path class="cls-6"
        d="M99.54,142.72c-6.1,0-11.07-5.28-11.07-11.76s4.96-11.76,11.07-11.76,11.07,5.28,11.07,11.76-4.96,11.76-11.07,11.76ZM99.54,119.88c-5.73,0-10.38,4.97-10.38,11.08s4.66,11.08,10.38,11.08,10.38-4.97,10.38-11.08-4.66-11.08-10.38-11.08Z" />
      <path class="cls-3"
        d="M101.25,140.31c-.17,0-.35-.01-.52-.04-.16-.02-.3-.09-.41-.21-.12-.13-.18-.3-.16-.47l.33-2.29c.04-.29.21-.51.48-.64.34-.14.4-.31.41-.42.03-.21,0-.36-.07-.46-.08-.1-.21-.17-.39-.19-.05,0-.09,0-.13,0-.12,0-.21.03-.29.09-.1.08-.16.19-.18.33-.02.16,0,.29.05.4.15.28.18.4.17.53l-.32,2.25c-.03.17-.13.32-.28.41-.11.06-.22.1-.34.1-.02,0-.07,0-.09,0h-.1s-4.81-1.15-4.81-1.15c-.25-.06-.45-.17-.59-.35-.15-.19-.22-.41-.18-.65l.77-5.37c.03-.19.14-.34.31-.44.12-.07.25-.1.39-.1.04,0,.08,0,.12,0l2.01.29c.18.03.34.11.46.23.14.14.2.33.17.51l-.1.68c.22-.32.52-.6.89-.85.61-.41,1.31-.62,2.09-.62.22,0,.46.02.69.05,1.08.15,1.94.68,2.57,1.56.62.88.84,1.96.67,3.21-.18,1.25-.66,2.2-1.44,2.84-.65.53-1.37.79-2.16.79Z" />
      <path class="cls-6"
        d="M95.27,131.94s.05,0,.07,0l2.02.29c.11.02.19.06.26.13.07.07.1.15.08.23l-.51,3.59.85.21c-.27-.46-.34-1.06-.24-1.8.11-.74.51-1.35,1.22-1.83.55-.37,1.18-.56,1.9-.56.21,0,.42.02.65.05.99.14,1.77.62,2.34,1.42s.77,1.8.61,2.96-.61,2.04-1.32,2.62c-.59.48-1.23.72-1.94.72-.16,0-.31-.01-.47-.03-.09-.01-.16-.05-.21-.11-.06-.06-.08-.12-.07-.19l.33-2.28c.02-.17.12-.3.29-.37.36-.16.57-.38.61-.69s0-.54-.14-.72c-.14-.18-.34-.29-.62-.32-.06,0-.12-.01-.18-.01-.2,0-.36.05-.5.16-.18.14-.28.32-.31.55-.03.23,0,.43.09.61.09.17.14.28.13.32l-.32,2.25c0,.07-.05.12-.12.16-.06.03-.11.05-.17.05-.01,0-.03,0-.04,0h-.1s-4.78-1.15-4.78-1.15c-.18-.04-.31-.12-.4-.23-.09-.11-.13-.24-.11-.38l.77-5.37c.01-.08.06-.15.14-.2.07-.04.14-.06.21-.06h0ZM95.27,131.25c-.2,0-.38.05-.56.15-.27.16-.44.4-.48.69l-.77,5.37c-.05.33.04.65.26.91.19.23.45.39.78.46l4.78,1.13s.04,0,.06.01h.1s.09.02.14.02c.09,0,.19-.01.28-.04.04.12.11.23.2.32.16.17.37.28.61.31.19.03.38.04.57.04.87,0,1.67-.29,2.37-.87.85-.69,1.38-1.72,1.57-3.05.19-1.34-.05-2.5-.72-3.45-.68-.96-1.62-1.54-2.8-1.71-.25-.04-.5-.05-.74-.05-.85,0-1.62.23-2.28.68-.09.06-.18.13-.26.19-.03-.18-.12-.35-.26-.5-.17-.18-.4-.3-.66-.33l-2.02-.29c-.06,0-.11-.01-.17-.01h0ZM100.74,136.4c-.02-.05-.05-.11-.08-.16,0-.02-.03-.07-.02-.19,0-.07.03-.09.06-.11.02-.01.06-.01.08-.01.03,0,.05,0,.08,0,.04,0,.14.02.17.06,0,0,.02.07,0,.21,0,.06-.13.12-.2.16-.03.01-.06.03-.09.05h0Z" />
      <path class="cls-3"
        d="M102.15,132.29c-.27,0-.57-.02-.87-.06l-2.48-.35c-1.33-.19-2.31-.74-2.9-1.62-.59-.88-.8-1.92-.63-3.09.17-1.17.66-2.11,1.47-2.79.64-.54,1.45-.81,2.4-.81.26,0,.53.02.81.06l2.54.36c1.33.19,2.3.72,2.89,1.59.58.86.78,1.91.61,3.12-.17,1.22-.66,2.17-1.46,2.82-.62.52-1.42.78-2.38.78ZM99.2,127.32c-.12,0-.22.03-.31.08-.1.06-.15.14-.17.25-.02.11.01.19.09.28.1.11.22.17.39.19l2.7.39s.08,0,.12,0c.12,0,.22-.03.31-.08.13-.08.16-.17.17-.24.01-.07,0-.16-.1-.28-.1-.11-.22-.17-.39-.19l-2.7-.39s-.08,0-.12,0Z" />
      <path class="cls-6"
        d="M99.14,123.89c.24,0,.5.02.76.06l2.54.36c1.24.18,2.12.66,2.65,1.45.53.79.72,1.75.56,2.88-.16,1.14-.61,2-1.34,2.61-.56.47-1.28.7-2.16.7-.26,0-.53-.02-.82-.06l-2.48-.35c-1.24-.18-2.12-.67-2.66-1.48-.54-.81-.73-1.76-.57-2.85.16-1.09.61-1.95,1.35-2.58.58-.49,1.31-.73,2.18-.73h0ZM102.03,128.86c.18,0,.35-.05.49-.14.19-.12.29-.28.32-.49.03-.2-.03-.39-.18-.56-.15-.17-.35-.27-.59-.3l-2.7-.39c-.06,0-.12-.01-.17-.01-.18,0-.34.04-.49.13-.19.12-.3.28-.33.49-.03.21.03.4.18.56.15.16.35.26.59.3l2.7.39c.06,0,.11.01.17.01h0ZM99.14,123.21h0c-1.03,0-1.92.3-2.62.89-.87.73-1.41,1.74-1.59,3-.18,1.26.05,2.38.68,3.33.65.97,1.7,1.57,3.13,1.77l2.48.35c.32.05.63.07.92.07,1.03,0,1.91-.29,2.59-.85.86-.71,1.39-1.74,1.58-3.04.19-1.3-.04-2.43-.67-3.36-.64-.95-1.69-1.54-3.12-1.74l-2.54-.36c-.3-.04-.58-.06-.86-.06h0ZM102.03,128.17s-.05,0-.07,0l-2.7-.39c-.11-.02-.16-.05-.19-.08.02-.02.06-.04.13-.04.02,0,.05,0,.08,0l2.7.39c.11.01.15.05.18.08-.02.02-.06.04-.12.04h0Z" />
      <path class="cls-6"
        d="M61.54,145.31c-.11,0-.21-.05-.27-.13-.07-.09-.09-.2-.06-.31l5.62-18.5c.05-.18.24-.28.43-.23.18.05.28.25.23.43l-5.48,18.04,17.32-.67c.22-.01.35.14.35.33,0,.19-.14.35-.33.35l-17.8.69h-.01Z" />
      <path class="cls-6"
        d="M90.97,144.17c-.18,0-.33-.14-.34-.33,0-.19.14-.35.33-.35l18.17-.7,2.35-16.36c.03-.19.2-.31.39-.29.19.03.32.2.29.39l-2.4,16.64c-.02.16-.16.29-.32.29l-18.45.71h-.01Z" />
      <path class="cls-6"
        d="M68.42,145.04c-.18,0-.33-.14-.34-.32-.28-3.67-1.68-5.64-4.3-6.03-.19-.03-.31-.2-.29-.39.03-.19.2-.32.39-.29,2.98.45,4.57,2.62,4.88,6.66.01.19-.13.35-.31.37,0,0-.02,0-.03,0Z" />
      <path class="cls-6"
        d="M78.31,144.66c-.11,0-.22-.06-.29-.16-1.35-2.09-4.46-2.81-9.81-2.28-.17.02-.32-.09-.36-.25-.04-.16.04-.33.19-.4,5.09-2.27,8.34-5.51,9.92-9.89-1.21.37-3.98,1.32-6.69,2.91-2.94,1.73-4.33,3.73-4.72,4.36-.04.07-.09.15-.13.22-.09.16-.3.21-.46.13-.16-.09-.22-.29-.14-.45,0-.02.06-.11.15-.27,2.64-4.75.27-8.91.24-8.95-.1-.16-.04-.37.12-.47.16-.1.37-.04.47.12.02.04,1.88,3.26.71,7.36.8-.82,1.91-1.76,3.4-2.64,3.66-2.15,7.45-3.15,7.49-3.16.12-.03.25,0,.33.1.09.09.12.22.08.34-1.37,4.33-4.36,7.73-8.88,10.13,4.55-.23,7.33.65,8.66,2.72.1.16.06.37-.1.47-.06.04-.12.05-.18.05Z" />
      <path class="cls-6"
        d="M51.17,70.77c-.13,0-.26-.08-.31-.21l-6.37-15.18c-.04-.1-.03-.22.03-.31.06-.09.16-.15.27-.16l26.16-1.14c.19,0,.35.14.36.33,0,.19-.14.35-.33.36l-25.67,1.12,6.18,14.73c.07.17,0,.37-.18.45-.04.02-.09.03-.13.03Z" />
      <path class="cls-6"
        d="M110.26,86.15c-.18,0-.33-.14-.34-.31l-2.66-32.98-23.93,1.05c-.19,0-.35-.14-.36-.33,0-.19.14-.35.33-.36l24.26-1.06c.18,0,.34.13.35.31l2.69,33.3c.02.19-.12.35-.31.37,0,0-.02,0-.03,0Z" />
      <path class="cls-6"
        d="M47.3,61.55c-.15,0-.29-.1-.33-.25-.05-.18.05-.37.24-.42,2.66-.75,4.23-2.72,4.79-6.02.03-.19.21-.31.39-.28.19.03.31.21.28.39-.6,3.54-2.38,5.74-5.28,6.56-.03,0-.06.01-.09.01Z" />
      <path class="cls-6"
        d="M107.73,60.96c-4.8,0-7.23-3.8-9.13-7.94-.08-.17,0-.37.17-.45.17-.08.37,0,.45.17,2.16,4.7,4.53,7.77,8.99,7.53.22-.02.35.13.36.32.01.19-.13.35-.32.36-.17,0-.35.01-.52.01Z" />
      <path class="cls-6"
        d="M109.03,69.71c-.09,0-.17-.03-.24-.1-2.38-2.3-3.89-5.24-4.63-8.96-2.38,2.79-6.41,4.5-12.29,5.23-.12.02-.25-.04-.32-.14-.07-.1-.08-.23-.03-.35,2.13-4.42,4.39-7.31,6.99-8.93-2.83.1-5.77-.83-9.08-2.88-.16-.1-.21-.31-.11-.47.1-.16.31-.21.47-.11,3.94,2.44,7.31,3.25,10.6,2.54.18-.03.35.07.4.24.05.17-.04.35-.21.42-3.11,1.18-5.72,4.02-8.17,8.93,5.74-.8,9.56-2.6,11.67-5.47.08-.11.22-.16.35-.13.13.03.24.14.26.28.65,3.93,2.14,6.99,4.56,9.33.14.13.14.35,0,.48-.07.07-.16.1-.25.1Z" />
      <path class="cls-6"
        d="M51.39,69.71s-.04,0-.06,0c-.19-.03-.31-.21-.28-.39.48-2.89-.04-5.97-1.54-9.16-.07-.15-.02-.33.11-.42.13-.1.31-.08.43.03.34.32.66.65.98.96,1.77,1.77,3.19,3.19,6.35,3.21-1.09-2.02-2.6-4.22-5.32-5.96-.3-.08-.52-.23-.66-.44-.08-.13-.07-.31.04-.42.11-.11.28-.14.42-.06.16.09.31.19.46.28.01,0,.03,0,.04,0,1.97.31,8.12-2.24,9.15-3.1.15-.12.36-.1.48.04.12.15.1.36-.04.48-.87.72-5.84,2.94-8.64,3.24,2.49,1.86,3.88,4.09,4.92,6.09.05.1.05.23,0,.33s-.16.16-.28.17c-3.68.14-5.35-1.35-7.16-3.15,1.03,2.75,1.34,5.42.92,7.97-.03.17-.17.29-.34.29Z" />
      <path class="cls-5"
        d="M61.75,64.74c-5.7-3.62-10.61-3.16-17.04-.2l12.21,29.05s9.03-2.19,11.43-9.95c2.41-7.76-2.26-15.71-6.6-18.9Z" />
      <path class="cls-5"
        d="M90.18,90.43c3.32,3.48,9.97,4.78,15.04,2.72,5.6-2.29,9.58-8.26,9.58-8.26l-.92-11.9s-34.04,6.58-23.7,17.44Z" />
      <polygon class="cls-6"
        points="64.11 113.82 64.11 122.78 62.99 124.69 117.41 123.01 117.11 119.66 116.77 113.07 64.11 113.82" />
      <path class="cls-8"
        d="M61.17,123.7c-.2,0-.39-.09-.52-.25-.14-.16-.19-.38-.14-.59l1.12-5.08-1.1-3.13c-.08-.21-.04-.45.1-.64l.98-1.31-1.1-4.72c-.05-.2,0-.42.14-.58.13-.16.32-.25.53-.25h.01c.07,0,7.31.14,13.6.14,4.17,0,6.99-.06,8.37-.18,4.29-.37,30.95-2.2,33.05-2.34l13.17-6.23c.09-.04.19-.07.29-.07.12,0,.23.03.33.09.19.11.32.3.35.52l1.37,12.52,1.28,2.93c.07.17.08.36,0,.53s-.2.31-.37.37l-14.72,6.04c-.07.03-.15.05-.23.05,0,0-56.5,2.16-56.51,2.16Z" />
      <path class="cls-6"
        d="M129.66,99.16l1.38,12.62,1.32,3.02-14.72,6.04-56.48,2.16,1.17-5.27-1.17-3.32,1.17-1.56-1.17-5.03s7.24.14,13.61.14c3.55,0,6.83-.04,8.44-.18,4.49-.39,33.17-2.35,33.17-2.35l13.29-6.28h0ZM129.66,97.8c-.2,0-.4.04-.58.13l-13.06,6.17c-2.87.2-28.71,1.97-32.93,2.34-1.37.12-4.17.18-8.32.18-6.28,0-13.51-.14-13.58-.14,0,0-.02,0-.03,0-.41,0-.8.19-1.06.51-.27.33-.36.76-.27,1.17l1.02,4.41-.79,1.05c-.27.36-.35.84-.19,1.27l1.04,2.95-1.08,4.89c-.09.41.01.85.28,1.17.26.31.64.49,1.05.49.02,0,.03,0,.05,0l56.48-2.16c.16,0,.32-.04.47-.1l14.72-6.04c.34-.14.61-.41.75-.75.14-.34.13-.72-.01-1.06l-1.23-2.83-1.36-12.42c-.05-.44-.31-.83-.69-1.04-.21-.12-.44-.17-.67-.17h0Z" />
      <path class="cls-3"
        d="M63.31,109.04s33.46-.84,49.46-3.35c-7.85.54-26.06,1.8-29.56,2.1-4.49.39-22.04.04-22.04.04l1.17,5.03-1.17,1.56,1.16,3.3c.12-.71-.43-3.44-.43-3.44l3.09-1.43-1.83-1.48.14-2.34Z" />
      <path class="cls-5"
        d="M132.37,114.81l-1.32-3.02-1.38-12.62-13.15,6.21c.03,2.78.06,5.55.05,8.33,0,.77-.01,1.53-.02,2.3-.03,1.63-.08,3.27-.16,4.9l1.26-.05,14.72-6.04Z" />
      <path class="cls-3"
        d="M54.7,92.29c-.91.03-1.81-.02-2.68-.16-6.69-1.07-11.97-6.99-12.3-14.33-.37-8.26,5.7-15.2,13.58-15.52.02,0,.04,0,.06,0,7.9-.28,14.61,6.2,14.98,14.49.37,8.29-5.74,15.24-13.64,15.52Z" />
      <path class="cls-3"
        d="M54.7,92.29c-.91.03-1.81-.02-2.68-.16-6.69-1.07-11.97-6.99-12.3-14.33-.37-8.26,5.7-15.2,13.58-15.52.02,0,.04,0,.06,0,7.9-.28,14.61,6.2,14.98,14.49.37,8.29-5.74,15.24-13.64,15.52Z" />
      <path class="cls-6"
        d="M54.21,92.98c-.77,0-1.54-.06-2.29-.18-7.13-1.14-12.54-7.44-12.88-14.97-.19-4.31,1.27-8.39,4.11-11.49,2.66-2.9,6.25-4.58,10.11-4.74.04,0,.08,0,.11,0,8.26-.3,15.27,6.5,15.66,15.14.19,4.33-1.28,8.42-4.14,11.52-2.68,2.9-6.29,4.58-10.16,4.71h0c-.17,0-.34,0-.51,0ZM54.7,92.29h0,0ZM53.39,62.96s-.05,0-.07,0c-3.5.14-6.76,1.67-9.17,4.3-2.6,2.83-3.93,6.56-3.75,10.51.31,6.89,5.24,12.64,11.73,13.68.83.13,1.69.18,2.55.15,3.51-.13,6.78-1.64,9.21-4.28,2.61-2.83,3.95-6.57,3.77-10.53-.35-7.9-6.73-14.11-14.26-13.84Z" />
      <path class="cls-6"
        d="M54.21,92.98c-.77,0-1.54-.06-2.29-.18-7.13-1.14-12.54-7.44-12.88-14.97-.19-4.31,1.27-8.39,4.11-11.49,2.66-2.9,6.25-4.58,10.11-4.74.04,0,.08,0,.11,0,8.26-.3,15.27,6.5,15.66,15.14.19,4.33-1.28,8.42-4.14,11.52-2.68,2.9-6.29,4.58-10.16,4.71h0c-.17,0-.34,0-.51,0ZM54.7,92.29h0,0ZM53.39,62.96s-.05,0-.07,0c-3.5.14-6.76,1.67-9.17,4.3-2.6,2.83-3.93,6.56-3.75,10.51.31,6.89,5.24,12.64,11.73,13.68.83.13,1.69.18,2.55.15,3.51-.13,6.78-1.64,9.21-4.28,2.61-2.83,3.95-6.57,3.77-10.53-.35-7.9-6.73-14.11-14.26-13.84Z" />
      <circle class="cls-6" cx="54.03" cy="77.28" r="11.47" transform="translate(-36.52 50.97) rotate(-38.84)" />
      <path class="cls-3"
        d="M44.49,82.41h0c-2.12,0-3.85-1.73-3.85-3.85v-2.43c0-2.12,1.73-3.85,3.85-3.85h0c2.12,0,3.85,1.73,3.85,3.85v2.43c0,2.12-1.73,3.85-3.85,3.85Z" />
      <path class="cls-3"
        d="M100.53,92.29c-.91.03-1.81-.02-2.68-.16-6.69-1.07-11.97-6.99-12.3-14.33-.37-8.26,5.7-15.2,13.58-15.52.02,0,.04,0,.06,0,7.9-.28,14.61,6.2,14.98,14.49.37,8.29-5.74,15.24-13.64,15.52Z" />
      <path class="cls-3"
        d="M100.53,92.29c-.91.03-1.81-.02-2.68-.16-6.69-1.07-11.97-6.99-12.3-14.33-.37-8.26,5.7-15.2,13.58-15.52.02,0,.04,0,.06,0,7.9-.28,14.61,6.2,14.98,14.49.37,8.29-5.74,15.24-13.64,15.52Z" />
      <path class="cls-6"
        d="M100.04,92.98c-.77,0-1.54-.06-2.29-.18-7.13-1.14-12.54-7.44-12.88-14.97-.19-4.31,1.27-8.39,4.11-11.49,2.66-2.9,6.25-4.58,10.11-4.74.04,0,.08,0,.11,0,8.24-.28,15.28,6.5,15.66,15.14.19,4.33-1.28,8.42-4.14,11.52-2.68,2.9-6.29,4.57-10.16,4.71h0c-.17,0-.34,0-.51,0ZM100.53,92.29h0,0ZM99.22,62.96s-.05,0-.07,0c-3.5.14-6.76,1.67-9.17,4.3-2.6,2.83-3.93,6.56-3.75,10.51.31,6.89,5.24,12.64,11.73,13.68.83.13,1.69.18,2.55.15,3.51-.13,6.78-1.64,9.2-4.28,2.61-2.83,3.95-6.57,3.78-10.53-.35-7.9-6.72-14.09-14.26-13.84Z" />
      <path class="cls-6"
        d="M100.04,92.98c-.77,0-1.54-.06-2.29-.18-7.13-1.14-12.54-7.44-12.88-14.97-.19-4.31,1.27-8.39,4.11-11.49,2.66-2.9,6.25-4.58,10.11-4.74.04,0,.08,0,.11,0,8.24-.28,15.28,6.5,15.66,15.14.19,4.33-1.28,8.42-4.14,11.52-2.68,2.9-6.29,4.57-10.16,4.71h0c-.17,0-.34,0-.51,0ZM100.53,92.29h0,0ZM99.22,62.96s-.05,0-.07,0c-3.5.14-6.76,1.67-9.17,4.3-2.6,2.83-3.93,6.56-3.75,10.51.31,6.89,5.24,12.64,11.73,13.68.83.13,1.69.18,2.55.15,3.51-.13,6.78-1.64,9.2-4.28,2.61-2.83,3.95-6.57,3.78-10.53-.35-7.9-6.72-14.09-14.26-13.84Z" />
      <circle class="cls-6" cx="99.84" cy="77.28" r="11.47" transform="translate(1.03 155.87) rotate(-76.24)" />
      <path class="cls-3"
        d="M108.23,82.94h0c-2.12,0-3.85-1.73-3.85-3.85v-2.43c0-2.12,1.73-3.85,3.85-3.85h0c2.12,0,3.85,1.73,3.85,3.85v2.43c0,2.12-1.73,3.85-3.85,3.85Z" />
      <path class="cls-6"
        d="M121.44,93.87l-.36-2.71.55-.07c16.67-2.22,28.72-3.83,35.69-22.83l2.57.94c-7.55,20.55-20.94,22.34-37.9,24.6l-.55.07Z" />
      <path class="cls-3"
        d="M153.17,73.5l5.45,1.96,3.21-7.17s5.3-14.24,4.22-14.77c-1.08-.52-5.54,10.05-5.54,10.05,0,0,1.9-17.28-.47-17.94-2.37-.66-2.74,17.37-2.74,17.37,0,0-2.38-14.21-5.09-13.77-2.71.44,3.02,16.22,3.02,16.22,0,0-7.21-3.59-7.92-1.7-.71,1.89,7.73,4.53,7.73,4.53l-1.86,5.21Z" />
      <path class="cls-6"
        d="M158.61,76.15c-.08,0-.15-.01-.23-.04l-5.45-1.96c-.35-.13-.54-.52-.41-.87l1.63-4.54c-1.96-.65-6.58-2.34-7.41-4.06-.24-.48-.17-.89-.08-1.14.14-.39.44-.67.85-.84,1.44-.56,4.58.61,6.52,1.47-1.37-3.95-4.17-12.74-2.9-14.91.28-.48.68-.63.96-.68,2.05-.33,3.68,4.29,4.74,8.7.29-4.98.94-11.03,2.36-12.09.31-.23.67-.3,1.02-.2,2.06.57,1.9,8.06,1.38,14.43,1.43-3.08,3.06-6.16,4.02-6.53.24-.09.5-.08.72.02.57.28,1.64.79-3.87,15.62l-3.22,7.21c-.11.25-.36.4-.62.4ZM154.04,73.09l4.21,1.51,2.95-6.59c1.83-4.92,3.63-10.39,4.16-12.88-1.08,1.73-2.83,5.41-4.22,8.71-.13.31-.47.48-.8.4-.33-.09-.54-.4-.51-.74.82-7.48,1.04-15.95.09-17.13-1.01,1.17-1.78,9.4-1.93,16.65,0,.35-.28.64-.63.67-.34.03-.66-.22-.72-.57-1.3-7.75-3.34-13.37-4.31-13.21-.8.75.81,7.76,3.55,15.31.1.26.02.56-.19.74-.21.19-.51.23-.76.1-2.25-1.12-5.88-2.52-6.9-2.12-.03.01-.07.03-.07.05.02.71,3.5,2.45,7.3,3.63.18.06.32.18.41.35.08.17.09.36.03.53l-1.63,4.57Z" />
      <path class="cls-6"
        d="M74.97,91.75c-.18,0-.33-.14-.34-.33l-.05-1.28c0-.19.14-.35.33-.35.18,0,.35.14.35.33l.05,1.28c0,.19-.14.35-.33.35h-.01Z" />
      <path class="cls-6"
        d="M88.17,113.12c-.36,0-.66-.28-.68-.65-.02-.38.27-.7.65-.72,3.66-.2,7.65-.45,11.86-.77.37-.03.7.25.73.63.03.38-.25.7-.63.73-4.22.31-8.22.57-11.89.77-.01,0-.02,0-.04,0Z" />
      <path class="cls-6"
        d="M76.53,113.59c-.37,0-.67-.29-.68-.67,0-.38.29-.69.67-.7,1.83-.05,3.71-.11,5.62-.19.37-.03.69.28.71.65.02.38-.28.69-.66.71-1.92.08-3.8.14-5.64.19h-.02Z" />
      <path class="cls-6"
        d="M96.82,117.77c-.36,0-.66-.28-.68-.64-.02-.38.26-.7.64-.72,1.8-.11,3.62-.23,5.43-.36.37-.03.7.26.73.63.03.38-.26.7-.63.73-1.82.13-3.64.25-5.45.36-.01,0-.03,0-.04,0Z" />
      <path class="cls-3"
        d="M77,87.89c-4.29.28-7.81,3.03-7.23,5.78.57,2.75,2.36,5.91,7.66,5.88,4.16-.02,6.86-2.13,6.87-5.47.01-3.33-1.71-6.55-7.29-6.2Z" />
      <path class="cls-6"
        d="M77.83,87.87c4.92,0,6.47,3.06,6.46,6.22-.01,3.33-2.7,5.45-6.87,5.47-.02,0-.04,0-.06,0-5.25,0-7.03-3.15-7.6-5.88-.57-2.75,2.94-5.5,7.23-5.78.29-.02.56-.03.83-.03h0ZM77.83,86.5c-.3,0-.6.01-.92.03-3.1.2-5.97,1.56-7.49,3.55-.93,1.22-1.27,2.55-.99,3.87.94,4.5,4.11,6.97,8.93,6.97h.07c4.91-.02,8.22-2.77,8.23-6.83,0-2.28-.69-4.19-2.02-5.52-1.37-1.38-3.33-2.07-5.81-2.07h0Z" />
      <path class="cls-6"
        d="M73.82,102.35s-.04,0-.06,0c-.58-.11-1.14-.27-1.67-.48-.17-.07-.26-.27-.19-.44.07-.18.27-.26.44-.19.48.19,1.01.34,1.54.44.19.04.31.21.27.4-.03.16-.17.28-.33.28Z" />
      <path class="cls-6"
        d="M70.31,100.82c-.07,0-.15-.02-.21-.07-2.04-1.57-2.63-3.58-2.66-3.66-.05-.18.05-.37.23-.42.18-.05.37.05.42.23,0,.02.57,1.89,2.42,3.31.15.12.18.33.06.48-.07.09-.17.13-.27.13Z" />
      <path class="cls-6"
        d="M85.59,99.58c-.07,0-.14-.02-.2-.06-.15-.11-.19-.32-.08-.48.57-.81.96-1.81,1.15-2.97.03-.19.21-.31.39-.28.19.03.31.21.28.39-.21,1.27-.64,2.36-1.27,3.25-.07.09-.17.14-.28.14Z" />
      <path class="cls-6"
        d="M83.07,101.51c-.15,0-.29-.1-.33-.26-.05-.18.07-.37.25-.41.01,0,.32-.09.74-.33.16-.09.37-.04.47.12.09.16.04.37-.12.47-.52.3-.9.4-.92.4-.03,0-.06,0-.08,0Z" />
      <path class="cls-6"
        d="M77.35,97.85c-.18,0-.33-.14-.34-.33l-.18-4.94c0-.19.14-.35.33-.35.22,0,.35.14.35.33l.18,4.94c0,.19-.14.35-.33.35h-.01Z" />
      <path class="cls-6"
        d="M73.12,96.46c-.19,0-.34-.15-.34-.34v-4.53c-.01-.19.14-.34.33-.34h0c.19,0,.34.15.34.34v4.53c.01.19-.14.34-.33.34h0Z" />
      <path class="cls-6"
        d="M73.13,99.13c-.19,0-.34-.15-.34-.34v-1.08c0-.19.15-.34.34-.34h0c.19,0,.34.15.34.34v1.08c0,.19-.15.34-.34.34h0Z" />
      <path class="cls-6"
        d="M80.37,99.58s-.02,0-.03,0c-.19-.02-.33-.18-.31-.37l.07-.83c.01-.19.19-.33.37-.31.19.02.33.18.31.37l-.07.83c-.01.18-.16.31-.34.31Z" />
      <path class="cls-6"
        d="M80.61,96.64s-.02,0-.03,0c-.19-.02-.33-.18-.31-.37l.35-4.35c.02-.19.17-.33.37-.31.19.02.33.18.31.37l-.35,4.35c-.01.18-.16.31-.34.31Z" />
      <path class="cls-6"
        d="M84.29,94.82h0l-.78-.02c-.19,0-.34-.16-.33-.35,0-.19.16-.34.35-.33l.78.02c.19,0,.34.16.33.35,0,.19-.16.33-.34.33Z" />
      <path class="cls-6"
        d="M70.92,94.47h0l-1.21-.04c-.19,0-.34-.16-.33-.35,0-.18.16-.33.34-.33h.01l1.21.04c.19,0,.34.16.33.35,0,.18-.16.33-.34.33Z" />
      <path class="cls-6"
        d="M74.13,94.56h0l-2.07-.06c-.19,0-.34-.16-.33-.35,0-.19.15-.33.35-.33l2.07.06c.19,0,.34.16.33.35,0,.18-.16.33-.34.33Z" />
      <path class="cls-6"
        d="M81.97,94.77h0c-1.65-.04-4.05-.1-6.28-.16-.19,0-.34-.16-.33-.35,0-.19.16-.34.35-.33,2.24.06,4.63.13,6.28.16.19,0,.34.16.33.35,0,.19-.16.33-.34.33Z" />
      <path class="cls-6"
        d="M69.52,113.6c-2.85,0-5.76-.05-8.14-.14-.38-.01-.67-.33-.66-.71.01-.38.34-.69.71-.66,2.94.11,6.91.16,10.34.12h0c.37,0,.68.3.68.68,0,.38-.3.69-.68.69-.74,0-1.5.01-2.27.01Z" />
      <path class="cls-6"
        d="M71.57,118.48c-3.21,0-6.37-.04-9.47-.12-.38,0-.67-.32-.66-.7.01-.38.36-.66.7-.66,9.65.25,19.84.11,30.3-.43.37-.03.7.27.72.65.02.38-.27.7-.65.72-7.13.37-14.14.55-20.94.55Z" />
      <path class="cls-5"
        d="M52.02,166.44c-15.11-1.12-30.36-1.14-40.89,2.96l-1.98-1.14s2.46-36.81,2.23-45.77c-.25-9.82-3.07-21.35-3.07-21.35,0,0,43.37-2.68,46.1-2.44,2.74.24,11.8,1.76,11.72,2.85-.07.96-13.33,4.76-13.4,5.72-1.17,17.77-.14,37.62,1.53,56.9.11,1.29-.96,2.36-2.25,2.27Z" />
      <path class="cls-7"
        d="M9.91,167.81c-.14,0-.27-.04-.38-.12-.19-.13-.3-.34-.3-.56,0-.36-.13-36.51-.37-46.21-.24-9.63-3.03-21.09-3.05-21.2-.05-.2,0-.4.11-.57.12-.16.31-.26.51-.28,1.62-.1,39.81-2.46,45.58-2.46.29,0,.5,0,.63.02,1.37.12,4.43.89,7.27,1.83,5.56,1.84,5.51,2.62,5.47,3.13-.06.85-.96,1.19-7.4,2.78-2.39.59-5.61,1.39-6.41,1.81-1.15,17.59-.79,36.97,1.06,57.6.02.2-.05.4-.2.54-.13.13-.3.2-.48.2-.02,0-.04,0-.06,0-5.17-.42-10.04-.64-14.47-.64-11.3,0-20.22,1.33-27.26,4.07-.08.03-.16.05-.25.05Z" />
      <path class="cls-6"
        d="M52,97.1c.26,0,.45,0,.57.02,2.74.24,12.2,3.14,12.11,4.23-.07.96-13.72,3.39-13.79,4.35-1.22,18.53-.75,37.91,1.05,57.96-4.96-.41-9.83-.64-14.52-.64-10.37,0-19.87,1.14-27.51,4.12,0,0-.12-36.41-.37-46.22-.25-9.82-3.07-21.35-3.07-21.35,0,0,39.73-2.46,45.54-2.46h0ZM52,95.74h0c-5.78,0-44,2.36-45.62,2.46-.4.02-.78.23-1.02.55s-.32.74-.23,1.13c.03.11,2.79,11.51,3.03,21.06.25,9.69.37,45.83.37,46.19,0,.45.22.87.6,1.12.23.16.5.24.77.24.17,0,.34-.03.5-.09,6.86-2.67,15.95-4.03,27.02-4.03,4.41,0,9.25.21,14.41.63.04,0,.07,0,.11,0,.36,0,.71-.14.97-.4.28-.29.43-.68.39-1.08-1.83-20.43-2.2-39.63-1.09-57.08,1.12-.43,3.95-1.13,5.92-1.61,6.57-1.62,7.81-1.97,7.91-3.39.09-1.21-.8-2.14-5.93-3.83-2.4-.79-5.74-1.71-7.42-1.86-.16-.01-.38-.02-.69-.02h0Z" />
      <path class="cls-3"
        d="M59.35,98.81c-2.61-.85-5.47-1.57-6.78-1.69-2.74-.24-46.1,2.44-46.1,2.44,0,0,2.82,11.53,3.07,21.35.19,7.55.31,30.84.35,41.18,2.67-19.39.78-59.86.78-59.86,0,0,35.1-5.24,48.68-3.42Z" />
      <rect class="cls-8" x="12.68" y="106.15" width="3.32" height="12.91" rx=".51" ry=".51" />
      <path class="cls-6"
        d="M15.48,106.66v11.89h-2.3v-11.89h2.3ZM15.48,105.64h-2.3c-.56,0-1.02.46-1.02,1.02v11.89c0,.56.46,1.02,1.02,1.02h2.3c.56,0,1.02-.46,1.02-1.02v-11.89c0-.56-.46-1.02-1.02-1.02h0Z" />
      <path class="cls-8"
        d="M21.48,119.17c-.69,0-1.23-.17-1.62-.52-.38-.33-.63-.78-.76-1.34-.12-.49-.18-1.05-.18-1.66,0-.67.07-1.22.2-1.67.15-.48.41-.89.78-1.21.34-.29.81-.54,1.39-.74l.32-.11h-2.02c-.25,0-.47-.19-.5-.44,0-.05-.01-.12-.01-.21v-.19c0-1.15.3-2,.88-2.53.58-.51,1.43-.76,2.6-.76.61,0,1.17.11,1.66.33.51.23.93.58,1.23,1.03.31.46.46,1.02.46,1.67v7.72c0,.28-.23.51-.51.51h-2.4c-.18,0-.33-.09-.42-.22-.32.22-.69.33-1.09.33ZM22.43,114.25c-.03.11-.03.23-.03.33v1.3c0,.12,0,.21.02.27.01-.05.01-.11.01-.17v-1.74ZM22.44,111.42c0,.09-.02.17-.06.24l.06-.02s0-.72,0-.74v.51Z" />
      <path class="cls-6"
        d="M22.54,108.31c.54,0,1.02.1,1.45.29.43.19.77.47,1.02.85.25.37.37.84.37,1.39v7.72h-2.4v-1.2c-.12.42-.31.75-.58.97-.27.22-.58.34-.93.34-.56,0-.99-.13-1.29-.39-.3-.26-.5-.62-.6-1.07-.11-.45-.16-.97-.16-1.55,0-.62.06-1.12.18-1.52.12-.39.33-.72.62-.97.29-.25.7-.47,1.22-.64l1.5-.51v-1.04c0-.54-.18-.82-.53-.82-.32,0-.49.22-.49.66v.61h-2.35s0-.08,0-.14v-.19c0-1.01.24-1.72.71-2.14.48-.42,1.23-.63,2.26-.63h0ZM22.43,116.79c.2,0,.33-.08.41-.25.07-.17.11-.35.11-.54v-2.82c-.33.14-.59.31-.78.51-.18.21-.28.51-.28.9v1.3c0,.6.18.9.54.9h0ZM22.54,107.29c-1.3,0-2.26.29-2.94.89-.7.62-1.06,1.6-1.06,2.91v.19c0,.11,0,.2.02.27.06.49.46.86.94.89-.41.37-.71.84-.88,1.4-.15.49-.23,1.09-.23,1.82,0,.65.06,1.25.19,1.78.16.66.47,1.2.92,1.6.49.43,1.15.65,1.96.65.36,0,.71-.08,1.03-.23.14.08.3.12.48.12h2.4c.56,0,1.02-.46,1.02-1.02v-7.72c0-.75-.18-1.41-.55-1.95-.36-.53-.84-.94-1.45-1.21-.56-.25-1.19-.38-1.87-.38h0Z" />
      <path class="cls-8"
        d="M33.46,119.07c-.28,0-.51-.23-.51-.51v-7.45c0-.41-.07-.51-.07-.51.03.08,0,.16-.02.26-.03.14-.04.28-.04.42v7.28c0,.28-.23.51-.51.51h-2.41c-.28,0-.51-.23-.51-.51v-7.45c0-.12,0-.23-.03-.35-.03.05-.04.11-.05.17-.03.16-.04.32-.04.47v7.16c0,.28-.23.51-.51.51h-2.42c-.28,0-.51-.23-.51-.51v-10.14c0-.28.23-.51.51-.51h2.36c.17,0,.32.08.41.21.34-.21.77-.32,1.29-.32s.94.12,1.32.36c.13.08.24.18.35.28.11-.11.22-.21.34-.29.34-.24.79-.35,1.36-.35.68,0,1.22.16,1.62.47.39.31.66.73.81,1.26.13.47.2,1.01.2,1.61v7.4c0,.28-.23.51-.51.51h-2.41Z" />
      <path class="cls-6"
        d="M33.75,108.31c.56,0,1,.12,1.3.36.3.24.52.57.63,1,.12.43.18.92.18,1.48v7.4h-2.41v-7.45c0-.65-.17-.98-.5-.98-.18,0-.31.06-.41.18-.09.12-.16.27-.2.44-.04.18-.05.35-.05.53v7.28h-2.41v-7.45c0-.21-.03-.42-.08-.63-.05-.21-.18-.32-.4-.32-.18,0-.32.07-.42.2-.1.13-.17.29-.2.48-.04.19-.05.38-.05.56v7.16h-2.42v-10.13h2.36v1.18c.11-.41.29-.73.55-.95.26-.22.64-.33,1.15-.33.41,0,.75.09,1.04.28.29.19.49.43.6.74.18-.33.4-.59.65-.76.25-.17.61-.26,1.07-.26h0ZM33.75,107.29c-.67,0-1.23.15-1.65.44-.02.01-.04.03-.06.04-.02-.01-.04-.03-.06-.04-.45-.3-.99-.45-1.6-.45-.47,0-.88.07-1.23.22-.14-.07-.3-.11-.47-.11h-2.36c-.56,0-1.02.46-1.02,1.02v10.13c0,.56.46,1.02,1.02,1.02h2.42c.21,0,.41-.07.57-.18.16.11.36.18.57.18h2.41c.21,0,.41-.07.58-.18.16.11.36.18.58.18h2.41c.56,0,1.02-.46,1.02-1.02v-7.4c0-.65-.07-1.24-.22-1.75-.18-.63-.51-1.15-.98-1.52-.49-.39-1.14-.58-1.93-.58h0Z" />
      <path class="cls-8"
        d="M16.82,137.51c-.28,0-.51-.23-.51-.51v-7.57c0-.12-.02-.23-.07-.33.01.06-.01.15-.03.25-.02.17-.03.34-.03.51v7.13c0,.28-.23.51-.51.51h-2.42c-.28,0-.51-.23-.51-.51v-10.13c0-.28.23-.51.51-.51h2.42c.17,0,.32.08.41.21.3-.21.68-.32,1.11-.32.87,0,1.52.29,1.94.86.38.52.58,1.22.58,2.08v7.82c0,.28-.23.51-.51.51h-2.39Z" />
      <path class="cls-6"
        d="M17.2,126.75c.7,0,1.21.22,1.53.65.32.43.48,1.02.48,1.78v7.82h-2.39v-7.57c0-.2-.04-.38-.12-.55-.08-.17-.22-.25-.42-.25-.18,0-.32.06-.41.19-.09.13-.14.29-.17.48-.02.19-.03.38-.03.57v7.13h-2.42v-10.13h2.42v1.29c.09-.39.26-.72.5-.99s.59-.41,1.02-.41h0ZM17.2,125.73c-.43,0-.78.09-1.06.22-.14-.07-.3-.11-.46-.11h-2.42c-.56,0-1.02.46-1.02,1.02v10.13c0,.56.46,1.02,1.02,1.02h2.42c.21,0,.41-.07.57-.18.16.11.36.18.57.18h2.39c.56,0,1.02-.46,1.02-1.02v-7.82c0-.97-.23-1.77-.67-2.38-.36-.49-1.05-1.06-2.35-1.06h0Z" />
      <path class="cls-8"
        d="M23.1,137.61c-2.31,0-3.54-1.26-3.54-3.65v-4.07c0-1.08.32-1.97.94-2.64.63-.67,1.51-1.01,2.59-1.01s1.97.34,2.6,1.01c.63.67.94,1.55.94,2.64v4.07c0,2.39-1.23,3.65-3.54,3.65ZM23.08,129.14s-.04.11-.04.37v4.95c0,.13.02.23.06.3.04-.06.06-.17.06-.3v-4.95c0-.31-.06-.39-.06-.39v.02s0,0-.01,0Z" />
      <path class="cls-6"
        d="M23.1,126.75c.95,0,1.69.28,2.23.85.54.57.8,1.33.8,2.29v4.07c0,2.09-1.01,3.14-3.03,3.14s-3.03-1.05-3.03-3.14v-4.07c0-.95.27-1.72.8-2.29.54-.57,1.28-.85,2.22-.85h0ZM23.1,135.24c.2,0,.35-.07.44-.22.09-.15.13-.33.13-.56v-4.95c0-.59-.19-.89-.57-.89s-.57.29-.57.89v4.95c0,.23.04.41.13.56.09.15.23.22.44.22h0ZM23.1,125.73c-1.23,0-2.23.4-2.97,1.18-.72.76-1.08,1.77-1.08,2.99v4.07c0,2.64,1.47,4.16,4.05,4.16s4.05-1.52,4.05-4.16v-4.07c0-1.22-.36-2.22-1.08-2.98-.73-.78-1.73-1.18-2.97-1.18h0Z" />
      <path class="cls-8"
        d="M29.1,137.61c-.82,0-1.38-.2-1.71-.6-.3-.37-.46-.91-.46-1.6v-5.81h-.17c-.28,0-.51-.23-.51-.51v-1.84c0-.28.23-.51.51-.51h.17v-1.64c0-.28.23-.51.51-.51h2.35c.28,0,.51.23.51.51v1.64h.17c.28,0,.51.23.51.51v1.84c0,.28-.23.51-.51.51h-.17v5.18s.05,0,.07,0c.03,0,.07-.01.1-.01.12,0,.23.04.32.11.12.1.19.24.19.4v1.65c0,.22-.14.42-.35.48-.06.02-.25.06-.57.12-.32.06-.64.09-.96.09Z" />
      <path class="cls-6"
        d="M29.79,125.1v2.15h.68v1.84h-.68v5.75c0,.17.03.28.08.35.05.07.16.1.31.1.11,0,.2,0,.29-.03v1.65c-.05.02-.22.05-.51.1-.28.05-.57.08-.86.08-.65,0-1.09-.14-1.32-.42-.23-.28-.34-.7-.34-1.27v-6.32h-.68v-1.84h.68v-2.15h2.35ZM29.79,124.09h-2.35c-.56,0-1.02.46-1.02,1.02v1.19c-.4.14-.68.52-.68.96v1.84c0,.44.28.82.68.96v5.36c0,.81.19,1.46.57,1.92.43.52,1.14.79,2.11.79.35,0,.7-.03,1.05-.09.42-.08.55-.11.65-.14.42-.14.7-.53.7-.97v-1.65c0-.31-.14-.6-.38-.79-.09-.07-.2-.13-.3-.17v-4.25c.4-.14.68-.52.68-.96v-1.84c0-.44-.29-.82-.68-.96v-1.19c0-.56-.46-1.02-1.02-1.02h0Z" />
      <path class="cls-8"
        d="M13.06,157.63c-.28,0-.51-.23-.51-.51v-1.53c0-.28.23-.51.51-.51h.87l-1.55-9.7c-.02-.15.02-.3.12-.41.1-.11.24-.18.39-.18h2.32c.26,0,.48.2.51.46l.21,2.32.25-2.33c.03-.26.25-.46.51-.46h2.33c.15,0,.29.07.39.18s.14.27.11.42l-1.88,10.66c-.09.48-.26.86-.52,1.13-.29.3-.73.45-1.31.45h-2.73Z" />
      <path class="cls-6"
        d="M19,145.3h0,0ZM19,145.3l-1.88,10.66c-.07.38-.2.67-.39.87-.19.2-.51.29-.94.29h-2.73v-1.53h1.16c.18,0,.26-.06.26-.18,0-.06,0-.13-.02-.2l-1.59-9.91h2.32l.68,7.46.8-7.46h2.33ZM19,144.28h-2.34c-.29,0-.55.12-.74.31-.19-.19-.45-.31-.74-.31h-2.32c-.3,0-.58.13-.78.36-.19.23-.28.53-.23.82l1.46,9.11h-.27c-.56,0-1.02.46-1.02,1.02v1.53c0,.56.46,1.02,1.02,1.02h2.73c.72,0,1.28-.2,1.67-.6.34-.35.56-.82.66-1.4l1.87-10.59c.02-.08.03-.16.03-.25,0-.56-.45-1.02-1.02-1.02h0ZM19,146.32h0,0Z" />
      <path class="cls-8"
        d="M22.58,156.05c-2.31,0-3.54-1.26-3.54-3.65v-4.07c0-1.08.32-1.97.94-2.64.63-.67,1.51-1.02,2.59-1.02s1.97.34,2.6,1.02c.63.66.94,1.55.94,2.64v4.07c0,2.39-1.23,3.65-3.54,3.65ZM22.56,147.58s-.04.11-.04.37v4.95c0,.13.02.23.06.29.04-.06.06-.17.06-.29v-4.95c0-.31-.06-.39-.06-.39v.02s0,0-.01,0Z" />
      <path class="cls-6"
        d="M22.58,145.19c.95,0,1.69.28,2.23.85.54.57.8,1.33.8,2.29v4.07c0,2.09-1.01,3.14-3.03,3.14s-3.03-1.05-3.03-3.14v-4.07c0-.95.27-1.72.8-2.29.54-.57,1.28-.85,2.22-.85h0ZM22.58,153.68c.2,0,.35-.07.44-.22.09-.15.13-.33.13-.56v-4.95c0-.59-.19-.89-.57-.89s-.57.29-.57.89v4.95c0,.23.04.41.13.56.09.15.23.22.44.22h0ZM22.58,144.17c-1.23,0-2.23.4-2.97,1.18-.72.76-1.08,1.77-1.08,2.99v4.07c0,2.64,1.47,4.16,4.05,4.16s4.05-1.52,4.05-4.16v-4.07c0-1.22-.36-2.22-1.08-2.99-.73-.78-1.73-1.18-2.97-1.18h0Z" />
      <path class="cls-8"
        d="M28.46,156.05c-.66,0-1.18-.15-1.56-.45-.37-.3-.63-.7-.76-1.22-.11-.44-.17-.96-.17-1.54v-7.55c0-.28.23-.51.51-.51h2.43c.28,0,.51.23.51.51v7.26c0,.22.01.37.02.48.06-.15.07-.35.07-.6v-7.14c0-.28.23-.51.51-.51h2.41c.28,0,.51.23.51.51v10.13c0,.28-.23.51-.51.51h-2.42c-.16,0-.3-.07-.39-.18-.3.19-.69.29-1.17.29Z" />
      <path class="cls-6"
        d="M32.44,145.3v10.13h-2.42v-1.08c-.15.39-.34.68-.55.89-.21.2-.55.3-1.01.3-.54,0-.95-.11-1.24-.34-.29-.23-.48-.54-.58-.94-.1-.4-.16-.87-.16-1.42v-7.55h2.43v7.26c0,.41.03.69.09.85.06.16.21.24.45.24.25,0,.41-.11.48-.34.07-.22.1-.52.1-.87v-7.14h2.41ZM32.44,144.28h-2.41c-.21,0-.4.06-.56.17-.16-.1-.35-.17-.56-.17h-2.43c-.56,0-1.02.46-1.02,1.02v7.55c0,.62.06,1.19.19,1.67.16.62.48,1.12.94,1.49.47.37,1.1.56,1.87.56.43,0,.81-.07,1.13-.2.13.06.28.1.43.1h2.42c.56,0,1.02-.46,1.02-1.02v-10.13c0-.56-.46-1.02-1.02-1.02h0Z" />
      <path class="cls-8"
        d="M33.41,155.95c-.28,0-.51-.23-.51-.51v-10.13c0-.28.23-.51.51-.51h2.46c.18,0,.34.09.43.23.37-.24.81-.36,1.32-.36.28,0,.51.23.51.51v2.02c0,.28-.23.51-.51.51-.18,0-.39.02-.63.06-.23.04-.43.08-.6.14v7.53c0,.28-.23.51-.51.51h-2.46Z" />
      <path class="cls-6"
        d="M37.61,145.18v2.02c-.2,0-.43.02-.71.06s-.52.1-.72.18c-.21.07-.31.16-.31.25v7.75h-2.46v-10.13h2.46v1.13c.12-.39.32-.7.62-.92.3-.22.67-.33,1.12-.33h0ZM37.61,144.16c-.46,0-.88.08-1.25.25-.15-.08-.32-.13-.5-.13h-2.46c-.56,0-1.02.46-1.02,1.02v10.13c0,.56.46,1.02,1.02,1.02h2.46c.56,0,1.02-.46,1.02-1.02v-7.13c.05-.01.11-.02.17-.03.22-.03.41-.05.55-.05.56,0,1.02-.46,1.02-1.02v-2.02c0-.56-.46-1.02-1.02-1.02h0Z" />
      <path class="cls-8"
        d="M40.98,156.05c-2.3,0-3.51-1.23-3.51-3.55v-.8c0-.28.23-.51.51-.51h1.71l-.74-.57c-.46-.36-.81-.74-1.05-1.14-.26-.43-.39-1-.39-1.73,0-.69.17-1.28.51-1.74.33-.45.78-.8,1.32-1.02.52-.21,1.08-.31,1.67-.31,2.26,0,3.46,1.19,3.46,3.45v.19c0,.28-.23.51-.51.51h-1.73l.43.31c.51.37.95.82,1.3,1.33.38.55.57,1.27.57,2.14,0,1.1-.33,1.96-.98,2.56-.64.59-1.51.88-2.58.88ZM40.92,152.89c0,.13.02.21.04.25,0-.02.03-.1.03-.3,0-.21-.03-.39-.08-.52v.57Z" />
      <path class="cls-6"
        d="M41.02,145.19c1.96,0,2.95.98,2.95,2.94v.19h-2.5v-.38c0-.2-.03-.4-.1-.59-.07-.19-.21-.28-.41-.28-.34,0-.51.18-.51.54s.14.65.43.86l1.5,1.09c.47.34.86.74,1.18,1.2.32.46.48,1.08.48,1.85,0,.95-.27,1.68-.81,2.18-.54.5-1.29.75-2.23.75-2,0-3-1.01-3-3.04v-.8h2.43v1.19c0,.23.05.41.14.54.09.13.23.2.43.2.35,0,.53-.26.53-.79,0-.44-.09-.77-.28-.99-.18-.22-.41-.43-.68-.63l-1.29-.99c-.41-.32-.71-.65-.93-1-.21-.35-.32-.84-.32-1.47,0-.58.14-1.06.42-1.44.28-.38.64-.66,1.1-.84.46-.18.95-.28,1.48-.28h0ZM41.02,144.17c-.66,0-1.29.12-1.86.35-.64.26-1.15.66-1.54,1.19-.41.55-.61,1.24-.61,2.04s.15,1.47.46,1.99c.2.33.45.64.77.93h-.25c-.56,0-1.02.46-1.02,1.02v.8c0,2.58,1.46,4.06,4.02,4.06,1.21,0,2.19-.34,2.92-1.02.76-.7,1.14-1.69,1.14-2.93,0-.98-.22-1.79-.65-2.43-.21-.3-.44-.58-.7-.84h.28c.56,0,1.02-.46,1.02-1.02v-.19c0-2.52-1.45-3.96-3.97-3.96h0Z" />
      <path class="cls-8"
        d="M45.13,152.71c-.27,0-.49-.21-.51-.48l-.47-8.65c0-.14.04-.28.14-.38.1-.1.23-.16.37-.16h2.42c.14,0,.27.06.37.16.1.1.15.24.14.38l-.47,8.65c-.01.27-.24.48-.51.48h-1.47Z" />
      <path class="cls-6"
        d="M47.08,143.54h0,0ZM47.08,143.54l-.47,8.66h-1.47l-.47-8.66h2.42ZM47.08,142.53h-2.42c-.28,0-.55.12-.74.32-.19.2-.29.48-.28.76l.47,8.66c.03.54.48.96,1.02.96h1.47c.54,0,.99-.42,1.02-.96l.47-8.58s0-.08,0-.13c0-.56-.45-1.02-1.02-1.02h0ZM47.08,144.56h0,0Z" />
      <rect class="cls-8" x="44.15" y="152.91" width="3.44" height="3.03" rx=".51" ry=".51" />
      <path class="cls-6"
        d="M47.08,153.42v2.01h-2.42v-2.01h2.42ZM47.08,152.4h-2.42c-.56,0-1.02.46-1.02,1.02v2.01c0,.56.46,1.02,1.02,1.02h2.42c.56,0,1.02-.46,1.02-1.02v-2.01c0-.56-.46-1.02-1.02-1.02h0Z" />
    </g>
  </g>
</svg>