<?xml version="1.0" encoding="UTF-8"?>
<svg id="Capa_2" xmlns="http://www.w3.org/2000/svg" xmlns:xlink="http://www.w3.org/1999/xlink"
  viewBox="0 0 212.43 215.73">
  <defs>
    <style>
      .cls-1 {
        fill: aqua;
      }

      .cls-2 {
        fill: #29abe2;
      }

      .cls-3 {
        fill: #fff;
      }

      .cls-4 {
        filter: none;
      }

      .cls-5 {
        fill: #862291;
      }

      .cls-6 {
        fill: #1b1464;
      }

      .cls-7 {
        fill: #fcee21;
      }

      .cls-8 {
        fill: #ed1e79;
      }
    </style>
  </defs>
  <g id="_0">
    <g class="cls-4">
      <path class="cls-3"
        d="M211,75.28c-1.29-3.77-4.81-6.29-8.81-6.29-.19,0-.37,0-.55.02l-39.11,2.14c-4.29.26-7.89,3.2-9.04,7.27h-9.68c-.44-.36-.88-.72-1.33-1.07,1.04-.9,1.66-2.22,1.66-3.66,0-.67-.15-1.35-.42-1.98-.33-2.4-2.37-4.18-4.81-4.18h-10.9c-.3-.85-.82-1.57-1.49-2.11h15.13c2.68,0,4.85-2.18,4.85-4.85,0-.68-.15-1.36-.42-1.98-.33-2.39-2.37-4.18-4.81-4.18h-18.43c-.02-.62-.13-1.11-.22-1.41-.57-1.9-1.82-3.24-3.94-4.14,1.14-.45,2.21-1.02,3.18-1.69.15-.08.29-.18.43-.28.13-.1.38-.29.72-.56,1.46.08,3.51.08,5.68-.27,1.28-.21,2.4-.9,3.15-1.95.05-.07.11-.15.15-.23,1.75-.78,3.3-1.87,4.63-3.22,1.34-1.37,2.35-2.95,2.99-4.7,1.15-.86,1.87-2.2,1.94-3.65.21-4.55-.85-9.11-3.16-13.55-.55-1.05-1.43-1.84-2.52-2.27.05-1.15-.31-2.27-1.04-3.2-1.37-1.73-2.93-3.37-4.52-4.76-.94-.83-2.19-1.26-3.43-1.2-3.14-2.11-7.02-3.6-11.83-4.55-.7-.82-1.66-1.38-2.72-1.59-4.05-.8-8.18-1.2-12.26-1.2-8.61,0-14.63,1.82-15.88,2.23-1.69.38-9.77,2.43-16.49,8.53-.96.87-1.52,2.06-1.58,3.35,0,0,0,.02,0,.03-.18.2-.36.41-.53.62l-.16.19c-.26.31-.5.62-.74.93l-.19.24c-.26.35-.51.71-.76,1.08l-.16.25c-.2.3-.39.6-.57.91l-.16.26c-.21.35-.4.71-.59,1.07l-.16.32c-.15.29-.29.58-.42.87l-.13.28c-.15.35-.3.7-.43,1.03l-.16.41c-.1.28-.2.56-.29.83l-.14.45c-.09.28-.17.56-.24.84-.04.16-.08.31-.12.47-.02.07-.04.15-.05.22-.88.79-1.43,1.85-1.57,3.03-.83,6.97.75,12.16,4.71,15.41,4.52,3.72,10.68,3.4,14.26,2.79.47.42.96.8,1.47,1.15h-13.58c-2.68,0-4.85,2.18-4.85,4.85,0,.68.15,1.36.42,1.98.1.74.38,1.43.78,2.03h-4.65c-2.68,0-4.85,2.18-4.85,4.85,0,.53.09,1.06.26,1.56h-2.2c-2.68,0-4.85,2.18-4.85,4.85,0,.68.15,1.36.42,1.98.11.76.39,1.46.81,2.07h-11.73c-2.68,0-4.85,2.18-4.85,4.85,0,.68.15,1.36.42,1.98.33,2.39,2.37,4.18,4.81,4.18h14.71c-3.42,3.42-6.48,7.17-9.11,11.19h-18.24c-2.52,0-4.58,2.05-4.58,4.58,0,.66.14,1.31.42,1.91.3,2.24,2.26,3.97,4.54,3.97h12.23s-.04.08-.05.12c-.16.38-.32.75-.46,1.11-2.41,5.85-4,12.01-4.74,18.3h-5.65c-2.68,0-4.85,2.18-4.85,4.85,0,.68.15,1.36.42,1.98.3,2.19,2.03,3.87,4.2,4.14.6,1.85,2.34,3.16,4.35,3.16h1.29c.04.51.09,1.03.15,1.54-9.94,0-24.18,0-25.07,0-1.29,0-2.51.51-3.43,1.43C.5,142.19,0,143.41,0,144.7c0,.68.15,1.35.42,1.97.33,2.39,2.37,4.18,4.81,4.18h18.07c-.03.2-.04.41-.04.63,0,.68.15,1.36.42,1.98.33,2.39,2.37,4.18,4.81,4.18h5.73c.17.44.35.89.54,1.33-.08,4.65-.2,13.56-.07,22.52.38,26.55,2.39,30.55,4.6,32.56,1.03.94,2.29,1.43,3.63,1.43.22,0,.43-.01.63-.04,4.01-.48,5.93-3.89,6.92-12.47.97.04,1.95-.15,2.88-.6.77-.36,1.48-.85,2.12-1.45.28,1.67,1.4,3.05,2.93,3.68-.31.64-.47,1.35-.47,2.09,0,.68.15,1.36.42,1.98.33,2.39,2.37,4.18,4.81,4.18h28.31c.77,1.73,2.49,2.87,4.43,2.87h25.29c2.68,0,4.85-2.18,4.85-4.85,0-.65-.13-1.3-.39-1.9,1.96-.21,3.58-1.59,4.13-3.43.69,3.15,2.15,5.29,5.13,5.69.2.03.43.04.67.04,1.24,0,2.4-.44,3.37-1.27.96-.83,1.96-2.03,2.8-6.5,1.44.69,3.21.66,4.69-.11,1.74-.9,5.35-2.76,7.23-26.92,2.3-2.82,4.41-5.87,6.26-9.07.09-.16.18-.31.27-.47h23.38c2.68,0,4.85-2.18,4.85-4.85,0-.68-.15-1.36-.42-1.98-.33-2.39-2.37-4.18-4.81-4.18h-17.94c1.91-5.35,3.16-10.93,3.72-16.64h4.51c1.86,0,3.53-1.16,4.23-2.84,2.28-.4,4.02-2.4,4.02-4.78,0-.68-.15-1.36-.42-1.98-.33-2.39-2.37-4.18-4.81-4.18h-7.54c-.07-.71-.15-1.43-.24-2.13l1.4-.52c.66-.08,1.29-.3,1.85-.65l32.84-1.05c4.26-.14,7.59-3.58,7.59-7.84v-33.41c0-1.66-.49-3.26-1.43-4.63ZM68.86,195.28h-8.59c-.53,0-1.05.09-1.53.25.54-1.58.95-3.39,1.23-5.44,2.84,1.95,5.82,3.69,8.89,5.19ZM124.76,198h-1.11c.8-.29,1.6-.61,2.4-.94,1.07-.44,2.14-.91,3.2-1.42,0,.03,0,.07,0,.1-.04,1.86-.05,3.64.02,5.3-.72-1.8-2.47-3.05-4.51-3.05Z" />
      <path class="cls-2"
        d="M159.11,107.9c-.14-.34-.28-.68-.43-1.02-.65-1.51-1.36-2.99-2.13-4.44-4.79-9.11-11.69-16.94-20.06-22.83-.5-.35-1-.69-1.5-1.03-10.19-6.75-22.42-10.68-35.56-10.68s-25,3.82-35.11,10.4h-.02c-.51.33-1.01.67-1.51,1.01-2.63,1.82-5.12,3.83-7.45,6.01-6.43,6.02-11.62,13.34-15.16,21.54-.15.34-.29.68-.43,1.02-3.11,7.56-4.82,15.83-4.82,24.51,0,.96.02,1.92.06,2.87.01.34.03.68.05,1.02.57,9.65,3.27,18.73,7.63,26.78.11.2.21.4.32.6.19.34.38.68.58,1.02,7.09,12.24,18.08,21.93,31.28,27.37.87.36,1.75.7,2.64,1.02,6.84,2.47,14.22,3.82,21.92,3.82s15.08-1.35,21.92-3.82c.89-.32,1.77-.66,2.64-1.02,9.93-4.09,18.62-10.6,25.33-18.78,2.21-2.69,4.2-5.56,5.96-8.59.2-.34.39-.68.58-1.02,4.55-8.2,7.36-17.49,7.95-27.37.02-.34.04-.68.05-1.02.04-.95.06-1.91.06-2.87,0-8.67-1.71-16.95-4.82-24.51Z" />
      <path class="cls-1"
        d="M65.55,170.15c-8.73-2.99-17.56-6.9-25.33-12.12.75,1.72,1.56,3.41,2.45,5.05.11.2.21.4.32.6.19.34.38.68.58,1.02,7.09,12.24,18.08,21.93,31.28,27.37.87.36,1.75.7,2.64,1.02,6.84,2.47,14.22,3.82,21.92,3.82s15.08-1.35,21.92-3.82c.89-.32,1.77-.66,2.64-1.02,6.89-2.84,13.18-6.84,18.63-11.76-25.63,2.99-52.57-1.76-77.06-10.16Z" />
      <path class="cls-6"
        d="M99.43,67.91c13.14,0,25.37,3.93,35.56,10.68.51.34,1.01.68,1.5,1.03,8.37,5.89,15.27,13.71,20.06,22.83.77,1.45,1.47,2.93,2.13,4.44.15.34.29.68.43,1.02,3.11,7.56,4.82,15.83,4.82,24.51,0,.96-.02,1.92-.06,2.87-.01.34-.03.68-.05,1.02-.59,9.89-3.41,19.18-7.95,27.37-.19.34-.38.68-.58,1.02-1.76,3.03-3.75,5.9-5.96,8.59-6.71,8.19-15.4,14.69-25.33,18.78-.87.36-1.75.7-2.64,1.02-6.84,2.47-14.22,3.82-21.92,3.82s-15.08-1.35-21.92-3.82c-.89-.32-1.77-.66-2.64-1.02-13.2-5.44-24.19-15.13-31.28-27.37-.2-.34-.39-.68-.58-1.02-.11-.2-.22-.39-.32-.6-4.36-8.05-7.06-17.13-7.63-26.78-.02-.34-.04-.68-.05-1.02-.04-.95-.06-1.91-.06-2.87,0-8.67,1.71-16.95,4.82-24.51.14-.34.28-.68.43-1.02,3.54-8.21,8.73-15.53,15.16-21.54,2.33-2.18,4.81-4.19,7.45-6.01.5-.35,1-.68,1.51-1.01h.02c10.11-6.58,22.15-10.4,35.11-10.4h0ZM99.43,66.27c-12.78,0-25.19,3.66-35.88,10.58-.05.02-.1.05-.14.08-.53.34-1.05.69-1.56,1.04-2.68,1.85-5.25,3.93-7.63,6.17-6.7,6.27-11.93,13.7-15.54,22.09-.15.35-.3.7-.44,1.05-3.28,7.97-4.94,16.43-4.94,25.12,0,1,.02,1.99.07,2.94.01.34.03.69.05,1.04.58,9.71,3.21,18.95,7.83,27.46.1.19.21.4.33.61.2.36.4.71.6,1.06,7.28,12.57,18.67,22.54,32.08,28.06.88.36,1.79.71,2.7,1.05,7.2,2.6,14.76,3.92,22.48,3.92s15.29-1.32,22.48-3.92c.89-.32,1.8-.67,2.7-1.05,10.07-4.15,19.05-10.81,25.98-19.26,2.25-2.73,4.3-5.7,6.11-8.81.2-.34.4-.69.6-1.05,4.82-8.69,7.56-18.13,8.16-28.07.02-.35.04-.7.05-1.05.04-.94.07-1.93.07-2.93,0-8.7-1.66-17.15-4.94-25.13-.14-.35-.29-.69-.44-1.04-.68-1.58-1.42-3.11-2.18-4.56-4.87-9.27-11.98-17.36-20.57-23.4-.48-.34-.98-.68-1.54-1.05-10.82-7.17-23.43-10.95-36.47-10.95h0Z" />
      <path class="cls-7"
        d="M116.51,141.17l-22.6,20.93s-26.43-5.39-27.3-6.26c-.87-.87-6.95-11.43-7.64-10.93-.69.51-11.12,14.58-11.12,14.58l-5.17,3.58c-4.36-8.05-7.06-17.13-7.63-26.78-.02-.34-.04-.68-.05-1.02-.04-.95-.06-1.91-.06-2.87,0-8.67,1.71-16.95,4.82-24.51.14-.34.28-.68.43-1.02,3.54-8.21,8.73-15.53,15.16-21.54,5.89,1.97,11.8,4.14,11.44,4.68-.7,1.04-6.3,13.21-5.23,11.91,1.06-1.31,13.54-5.83,13.54-5.83l18.64-1.39-.68,24.01,23.46,22.46Z" />
      <path class="cls-7"
        d="M163.93,132.41c0,.96-.02,1.92-.06,2.87-.01.34-.03.68-.05,1.02-.59,9.89-3.41,19.18-7.95,27.37-.19.34-.38.68-.58,1.02-1.76,3.03-3.75,5.9-5.96,8.59-7.83-1.71-16.66-3.61-16.82-3.71-.3-.17-7.74-13.55-7.74-13.55,0,0,24.93-16.38,27.77-17.22-2.83-.22-27.77-4.32-27.77-4.32l5.08-23.63s-.52-18.76,0-18.71c.31.03,14.82,5.75,26.71,10.29.77,1.45,1.47,2.93,2.13,4.44.15.34.29.68.43,1.02,3.11,7.56,4.82,15.83,4.82,24.51Z" />
      <path class="cls-5"
        d="M158.68,106.88c-.65-1.51-1.36-2.99-2.13-4.44-1.06-2.02-2.23-3.96-3.49-5.85.02,4.99,2.51,10.7,2.5,15.98-.01,6.3-5.35,7.46-1.92,12.13,1.27,1.72,3.52.02,6.02-.09,2.85-.12,3.52.13,4.5,3.41-.48-7.08-2.47-13.85-5.05-20.12-.14-.34-.28-.68-.43-1.02Z" />
      <path class="cls-6" d="M163.86,135.28c-.01.34-.03.68-.05,1.02H35.05c-.02-.34-.04-.68-.05-1.02h128.87Z" />
      <path class="cls-6" d="M159.11,107.9H39.75c.14-.34.28-.68.43-1.02h118.5c.15.34.29.68.43,1.02Z" />
      <path class="cls-6"
        d="M136.49,79.62c-22.5-.1-54.82-.23-73.7-.29.5-.35,1-.68,1.51-1.01h.02c18.64.06,48.84.19,70.67.28.51.34,1.01.68,1.5,1.03Z" />
      <path class="cls-6" d="M123.99,192.07c-.87.36-1.75.7-2.64,1.02h-43.84c-.89-.32-1.77-.66-2.64-1.02h49.12Z" />
      <path class="cls-6" d="M155.86,163.67c-.19.34-.38.68-.58,1.02H43.58c-.2-.34-.39-.68-.58-1.02h112.86Z" />
      <path class="cls-6"
        d="M99.48,197.42c-.28,0-.51-.23-.51-.51l-.1-129c0-.28.23-.51.51-.51.28,0,.51.23.51.51l.1,129c0,.28-.23.51-.51.51Z" />
      <path class="cls-6"
        d="M99.48,197.42c-17.01.01-24.79-33.68-24.81-64.99-.01-16.95,2.14-32.76,6.05-44.51,4.47-13.42,10.92-20.51,18.65-20.52.28,0,.51.23.51.51,0,.28-.23.51-.51.51-9.16,0-14.67,10.78-17.69,19.82-3.88,11.65-6.01,27.34-6,44.19s2.17,32.53,6.07,44.18c3.03,9.03,8.56,19.8,17.72,19.79.28,0,.51.23.51.51s-.23.51-.51.51Z" />
      <path class="cls-6"
        d="M99.48,196.4c-35.39.03-51.53-33.13-51.56-63.95-.02-30.82,16.07-64,51.45-64.03.28,0,.51-.23.51-.51,0-.28-.23-.51-.51-.51-16.24.01-29.87,7.07-39.41,20.4-8.44,11.79-13.08,27.65-13.06,44.65.01,17,4.68,32.85,13.13,44.63,9.56,13.32,23.2,20.35,39.44,20.34.28,0,.51-.23.51-.51s-.23-.51-.51-.51Z" />
      <path class="cls-6"
        d="M97.87,197.42s0,0,0,0c-.28,0-.51-.23-.51-.51,0-.28.23-.51.51-.51,5.09,0,9.58-3.33,13.36-9.89,6.48-11.25,10.34-31.48,10.33-54.12s-3.91-42.86-10.41-54.1c-3.79-6.55-8.29-9.87-13.38-9.87-.28,0-.51-.23-.51-.51s.23-.51.51-.51c5.48,0,10.28,3.49,14.26,10.38,6.59,11.39,10.53,31.8,10.55,54.61s-3.89,43.23-10.46,54.63c-3.97,6.9-8.77,10.39-14.24,10.4Z" />
      <path class="cls-6"
        d="M97.87,197.42s0,0,0,0c-.28,0-.51-.23-.51-.51,0-.28.23-.51.51-.51,22.65-.02,35.18-13.51,41.7-24.83,13.09-22.72,13.07-55.69-.06-78.39-6.54-11.31-19.09-24.78-41.74-24.76-.28,0-.51-.23-.51-.51s.23-.51.51-.51c9.46,0,18.04,2.36,25.51,7.05,6.85,4.3,12.61,10.43,17.12,18.22,6.41,11.08,9.94,25.17,9.95,39.7.01,14.52-3.5,28.62-9.89,39.71-4.5,7.8-10.25,13.94-17.09,18.25-7.46,4.69-16.03,7.08-25.49,7.09Z" />
      <path class="cls-2" d="M46.52,169.3s-1.01,14.34.1,22.72c.36-11-.1-22.72-.1-22.72Z" />
      <path class="cls-1"
        d="M55.66,178.25c-6.16-6.24-12.59-12.13-15.96-22.11,0,0-1.82,55.39,3.3,54.77,2.38-.29,3.1-18.84,3.1-18.84l.42-22.77s-.36,30.84,5.2,28.78c5.81-2.15,3.95-19.83,3.95-19.83Z" />
      <path class="cls-6"
        d="M42.92,211.73c-.31,0-.71-.09-1.1-.46-1.28-1.17-3.02-5.53-3.37-29.84-.19-13.25.15-26.18.16-26.31.01-.45.4-.81.84-.8.45.01.81.39.8.84,0,.13-.36,13.5-.15,26.96.4,24.93,2.38,27.65,2.84,27.95.38-.11,2.48-1.58,2.91-20.23.05-2.09.07-4.18.08-6.18-.37-6.16-.28-12.29-.23-14.4.01-.44.37-.8.81-.8h0c.44,0,.8.35.82.79,0,.08.24,6.34.24,13.94.4,6.99,1.29,13.25,2.91,14.3.15.1.29.13.56,0,4.17-1.98,4.16-14.53,3.8-19.2-.03-.45.3-.85.76-.88.46-.04.85.3.88.76.14,1.83,1.2,18-4.74,20.81-.75.35-1.49.31-2.15-.11-.96-.62-1.69-2.23-2.25-4.4-.76,16.82-3.17,17.11-4.24,17.24-.06,0-.12.01-.18.01ZM42.97,210.1h0,0Z" />
      <path class="cls-8"
        d="M104.68,43.3c-.08,2.34-.17,5.23-.24,8.19,14.91.1,14.62,3.23,12.33,4.73-.98.64-6.2,1.03-12.42,1.13-.03,5.15.08,9.48.53,10.11,0,0,4.98-6.5,10.94-4.48,5.96,2.02,1.98,5.37,1.85,7.15,3.61,1.29,6.72,2.59,9.19,3.9-.61.56-1.21,1.1-1.8,1.63-.26.22-.51.45-.76.66-.88.78-1.74,1.52-2.57,2.22-.42.34-.82.68-1.22,1.02-1.98,1.64-3.83,3.08-5.56,4.36-.28.21-.56.42-.84.62-6.38,4.64-11.01,7.06-14.22,9.11-.09.05-.18.11-.26.16-.25-.14-.5-.28-.76-.43-3.55-1.98-8.58-4.58-15.61-9.42-.28-.2-.56-.39-.85-.6-1.71-1.19-3.54-2.51-5.48-3.99-.44-.33-.88-.67-1.34-1.02-.87-.66-1.76-1.36-2.67-2.1-.26-.2-.51-.41-.78-.62-.43-.34-.86-.7-1.3-1.06,2.32-1.14,6.22-2.8,10.37-4.54-.6-.73-.84-1.73-.38-3.09.98-2.95,5.32-4.3,8.93-3.3,2.44.67,4.05,3.58,4.92,3.97.14.06.26.06.37-.03.04-.03.08-.07.11-.13.26-.44.32-4.87.3-10.17-7.73-.23-14.71-.93-15.27-2.21-1.13-2.56,8.28-3.08,15.22-3.37-.04-3.09-.09-6.12-.14-8.54-2.32,1.31-5.32,2.53-8.28,2.28-6.56-.55-7.87-4.16-7.87-4.16,0,0-6.56.65-9.36-.25-7.95-2.55-10.32-17.45,2.88-27.93,5.53-4.39,14.29-7.87,26.06-7.87,15.05,0,24.67,2.34,29.85,8.62,8.56,10.37,10.42,19.01,5.37,24.18-5.05,5.17-12.79,3.25-12.79,3.25,0,0-1.14,2.76-4.66,3.65-4.14,1.05-8.51-.18-11.81-1.63Z" />
      <path class="cls-7"
        d="M85.81,22.85c5.48,1.1,8.21,9.31,11.5,7.12,7.67-4.93,9.86-19.17,21.9-16.98,5.83,1.22,10.26,4.05,14.1,7.59-1.25-2.14-2.83-4.39-4.76-6.72-5.19-6.28-14.8-8.62-29.85-8.62-11.77,0-20.53,3.49-26.06,7.87-8.56,6.8-10.56,15.44-8.75,21.38,4.93-7.45,12.96-12.72,21.92-11.64Z" />
      <path class="cls-5"
        d="M125.07,75.65c-.59-.42-1.19-.82-1.81-1.2-7-4.39-14.98-6.75-23.75-7.02-.04-.02-.09-.03-.14-.03-.29,0-.57,0-.87.01-.25,0-.5-.01-.75-.01-.05,0-.1.02-.15.03-.86.03-1.71.08-2.55.15-.13,0-.25.02-.37.03-8.37.73-15.95,3.44-22.53,8.02.26.21.52.42.78.62,5.88-4.01,12.84-6.69,20.92-7.54-3.37,1.67-6.42,4.93-9.05,9.68-3.18-.01-6.26-.03-9.2-.04.45.36.9.7,1.34,1.02,2.37.01,4.81.02,7.32.03-.64,1.23-1.25,2.55-1.83,3.96.29.2.57.4.85.6.64-1.54,1.34-3.08,2.13-4.56,4.36.02,8.89.04,13.47.05v13.92c.27.14.53.28.77.43.08-.05.17-.11.26-.16v-14.18c3.96.02,7.96.03,11.91.05.82,1.53,1.59,3.21,2.31,5.02.28-.2.56-.41.84-.62-.64-1.57-1.3-3.03-2-4.39,2.55.01,5.08.02,7.56.03.4-.33.8-.67,1.22-1.02-3.05-.01-6.17-.03-9.33-.04-.14-.24-.27-.48-.4-.72-2.58-4.46-5.5-7.49-8.73-9.07,8.53.88,15.44,3.76,21.02,7.61.25-.21.5-.44.76-.66ZM85.97,78.39c3.02-5.28,7.12-9.53,12.56-9.94.11,0,.22.02.34.03v9.96c-4.38-.02-8.71-.03-12.9-.05ZM111.14,78.29c.04.07.08.14.11.2-3.77-.02-7.58-.03-11.36-.04v-9.82c4.21.8,7.99,4.04,11.24,9.66Z" />
      <path class="cls-1"
        d="M57.45,63.9h23.94c.6,0,1.1-.49,1.1-1.1s-.49-1.1-1.1-1.1h-23.94c-.6,0-1.1.49-1.1,1.1s.49,1.1,1.1,1.1Z" />
      <path class="cls-1"
        d="M120.04,61.67h21.62c.6,0,1.1-.49,1.1-1.1s-.49-1.1-1.1-1.1h-21.62c-.6,0-1.1.49-1.1,1.1s.49,1.1,1.1,1.1Z" />
      <path class="cls-1"
        d="M124.92,72.6c-.6,0-1.1.49-1.1,1.1s.49,1.1,1.1,1.1h14.38c.6,0,1.1-.49,1.1-1.1s-.49-1.1-1.1-1.1h-14.38Z" />
      <path class="cls-1"
        d="M57.45,73.14c-.6,0-1.1.49-1.1,1.1s.49,1.1,1.1,1.1h15.18c.6,0,1.1-.49,1.1-1.1s-.49-1.1-1.1-1.1h-15.18Z" />
      <path class="cls-1"
        d="M50.66,70.31h15.1c.6,0,1.1-.49,1.1-1.1s-.49-1.1-1.1-1.1h-15.1c-.6,0-1.1.49-1.1,1.1s.49,1.1,1.1,1.1Z" />
      <path class="cls-1"
        d="M65.76,55.04h15.75c.6,0,1.1-.49,1.1-1.1s-.49-1.1-1.1-1.1h-15.75c-.6,0-1.1.49-1.1,1.1s.49,1.1,1.1,1.1Z" />
      <path class="cls-1"
        d="M108.43,85.67h52.14c.6,0,1.1-.49,1.1-1.1s-.49-1.1-1.1-1.1h-52.14c-.6,0-1.1.49-1.1,1.1s.49,1.1,1.1,1.1Z" />
      <path class="cls-1"
        d="M35.31,79.21h50.77c.6,0,1.1-.49,1.1-1.1s-.49-1.1-1.1-1.1h-50.77c-.6,0-1.1.49-1.1,1.1s.49,1.1,1.1,1.1Z" />
      <path class="cls-1"
        d="M44.66,129.22h-19.91c-.6,0-1.1.49-1.1,1.1s.49,1.1,1.1,1.1h19.91c.6,0,1.1-.49,1.1-1.1s-.49-1.1-1.1-1.1Z" />
      <path class="cls-1"
        d="M158.39,131.68c0,.6.49,1.1,1.1,1.1h17.42c.6,0,1.1-.49,1.1-1.1s-.49-1.1-1.1-1.1h-17.42c-.6,0-1.1.49-1.1,1.1Z" />
      <path class="cls-1"
        d="M43.38,132.89h-14.89c-.45,0-.82.37-.82.82s.37.82.82.82h14.89c.45,0,.82-.37.82-.82s-.37-.82-.82-.82Z" />
      <path class="cls-1"
        d="M158.69,133.9c-.45,0-.82.37-.82.82s.37.82.82.82h14.81c.45,0,.82-.37.82-.82s-.37-.82-.82-.82h-14.81Z" />
      <path class="cls-1"
        d="M50.66,99.22h-27.62c-.45,0-.82.37-.82.82s.37.82.82.82h27.62c.45,0,.82-.37.82-.82s-.37-.82-.82-.82Z" />
      <path class="cls-1"
        d="M165.4,100.05c0-.6-.49-1.1-1.1-1.1h-13.59c-.6,0-1.1.49-1.1,1.1s.49,1.1,1.1,1.1h13.59c.6,0,1.1-.49,1.1-1.1Z" />
      <path class="cls-1"
        d="M158.66,118.33c0,.45.37.82.82.82h10.11c.45,0,.82-.37.82-.82s-.37-.82-.82-.82h-10.11c-.45,0-.82.37-.82.82Z" />
      <path class="cls-1"
        d="M42.79,151.69h-14.3c-.6,0-1.1.49-1.1,1.1s.49,1.1,1.1,1.1h14.3c.6,0,1.1-.49,1.1-1.1s-.49-1.1-1.1-1.1Z" />
      <path class="cls-1"
        d="M125.14,203.06h-41.63c-.6,0-1.1.49-1.1,1.1s.49,1.1,1.1,1.1h41.63c.6,0,1.1-.49,1.1-1.1s-.49-1.1-1.1-1.1Z" />
      <path class="cls-1"
        d="M183.59,160.99h-31.02c-.6,0-1.1.49-1.1,1.1s.49,1.1,1.1,1.1h31.02c.6,0,1.1-.49,1.1-1.1s-.49-1.1-1.1-1.1Z" />
      <path class="cls-1"
        d="M39.78,147.09c.63,0,1.1-.47,1.11-1.08.01-.6-.47-1.1-1.08-1.11-1.43-.02-33.24,0-34.59,0-.6,0-1.09.49-1.09,1.1,0,.6.49,1.09,1.1,1.09h0c.33,0,33.14-.02,34.55,0Z" />
      <path class="cls-1"
        d="M121.19,209.78h-25.29c-.6,0-1.1.49-1.1,1.1s.49,1.1,1.1,1.1h25.29c.6,0,1.1-.49,1.1-1.1s-.49-1.1-1.1-1.1Z" />
      <path class="cls-1"
        d="M106.57,208.01c0-.6-.49-1.1-1.1-1.1h-42.31c-.6,0-1.1.49-1.1,1.1s.49,1.1,1.1,1.1h42.31c.6,0,1.1-.49,1.1-1.1Z" />
      <path class="cls-8"
        d="M93.98,121.7c0,12-9.28,21.71-20.75,21.71-.18,0-.38,0-.57-.02-10.15-.28-18.48-8.16-19.96-18.42-.15-1.07-.23-2.16-.23-3.28,0-2.84.52-5.55,1.47-8.04,2.94-7.73,10.02-13.28,18.36-13.66.31-.03.62-.03.93-.03,11.46,0,20.75,9.73,20.75,21.72Z" />
      <path class="cls-8"
        d="M152.19,121.01c0,1.1-.08,2.18-.23,3.23-1.48,10.11-9.82,17.89-19.99,18.16-.18.01-.38.01-.56.01-11.48,0-20.78-9.58-20.78-21.41s9.29-21.42,20.78-21.42c.31,0,.62,0,.93.03,8.36.38,15.44,5.84,18.39,13.47.95,2.45,1.47,5.12,1.47,7.92Z" />
      <path class="cls-1"
        d="M92.6,118.24c0,12-9.28,21.71-20.75,21.71-.18,0-.38,0-.57-.02-10.15-.28-18.48-8.16-19.96-18.42-.15-1.07-.23-2.16-.23-3.28,0-2.84.52-5.55,1.47-8.04,2.94-7.73,10.02-13.28,18.36-13.66.31-.03.62-.03.93-.03,11.46,0,20.75,9.73,20.75,21.72Z" />
      <path class="cls-1"
        d="M148.5,118.72c0,1.1-.08,2.18-.23,3.23-1.48,10.11-9.82,17.89-19.99,18.16-.18.01-.38.01-.56.01-11.48,0-20.78-9.58-20.78-21.41s9.29-21.42,20.78-21.42c.31,0,.62,0,.93.03,8.36.38,15.44,5.84,18.39,13.47.95,2.45,1.47,5.12,1.47,7.92Z" />
      <path class="cls-3"
        d="M101.13,141.55c-6.29.51-9.41-6.17-13.1-2.73-3.69,3.43,3.05,9.92,12.21,9.73,6.6-.14,13.67-3.69,13.67-7.37,0-1.97-.67-3.94-3.36-4.05s-4.84,4.06-9.42,4.44Z" />
      <path class="cls-3"
        d="M99.84,148.93c-6.47,0-11.62-3.2-12.9-6.37-.61-1.52-.32-2.94.84-4.02,2.18-2.03,4.26-.81,6.46.48,1.9,1.12,4.06,2.38,6.86,2.15h0c2.39-.19,4.1-1.48,5.61-2.62,1.34-1.01,2.46-1.85,3.85-1.82,2.44.1,3.72,1.63,3.72,4.44,0,4.13-7.68,7.62-14.04,7.76-.14,0-.27,0-.41,0ZM90.29,138.22c-.67,0-1.32.25-1.99.88-1.16,1.08-.99,2.32-.65,3.17,1.19,2.94,6.34,6.06,12.59,5.89,6.58-.14,13.29-3.67,13.29-6.99,0-2.39-.98-3.59-2.99-3.67-1.11-.07-2.14.75-3.36,1.67-1.59,1.2-3.4,2.56-6.01,2.77h0c-3.04.24-5.41-1.14-7.31-2.26-1.36-.8-2.49-1.46-3.57-1.46Z" />
      <path class="cls-3"
        d="M91.85,120.38c0,10.82-8.76,19.59-19.58,19.59-.17,0-.36,0-.53-.01-9.58-.25-17.45-7.36-18.85-16.62-.15-.96-.22-1.95-.22-2.96,0-2.56.49-5.01,1.39-7.25,2.78-6.98,9.46-11.98,17.34-12.32.29-.02.59-.02.88-.02,10.82,0,19.58,8.78,19.58,19.6Z" />
      <path class="cls-3"
        d="M72.26,140.35c-.18,0-.38,0-.56-.01-9.67-.25-17.75-7.38-19.19-16.94-.15-.98-.23-2-.23-3.01,0-2.55.48-5.04,1.41-7.39,2.9-7.29,9.84-12.22,17.67-12.57.29-.02.59-.02.89-.02,11.01,0,19.97,8.96,19.97,19.98s-8.96,19.97-19.97,19.97ZM72.23,101.17c-.27,0-.55,0-.82.02-7.55.33-14.22,5.07-17.01,12.09-.9,2.26-1.36,4.65-1.36,7.11,0,.98.07,1.95.22,2.9,1.39,9.2,9.16,16.05,18.48,16.29.18.01.37.02.52.01,10.59,0,19.2-8.62,19.2-19.21s-8.61-19.22-19.2-19.22h-.03Z" />
      <path class="cls-6"
        d="M72.26,100.78c10.82,0,19.59,8.78,19.59,19.6s-8.76,19.59-19.59,19.59c-.17,0-.36,0-.53-.01-10.58-.28-19.07-8.92-19.07-19.57s8.31-19.12,18.72-19.57c.29-.03.58-.03.88-.03h0ZM72.26,99.45c-.32,0-.64,0-1,.03-11.15.48-19.93,9.66-19.93,20.9s8.93,20.58,20.33,20.9c.2.01.4.01.6.01,11.53,0,20.91-9.38,20.91-20.91s-9.38-20.93-20.91-20.93h0Z" />
      <path class="cls-3"
        d="M149.26,120.38c0,1.01-.07,1.99-.22,2.96-1.4,9.25-9.26,16.37-18.85,16.62-.17.01-.36.01-.53.01-10.82,0-19.59-8.76-19.59-19.59s8.76-19.6,19.59-19.6c.29,0,.58,0,.87.02,7.88.34,14.56,5.35,17.34,12.32.89,2.24,1.39,4.69,1.39,7.25Z" />
      <path class="cls-3"
        d="M129.66,140.35c-11.01,0-19.97-8.96-19.97-19.97s8.96-19.98,19.97-19.98c.3,0,.6,0,.9.02,7.82.34,14.76,5.27,17.66,12.57.94,2.35,1.41,4.84,1.41,7.39,0,1.02-.08,2.03-.23,3.01-1.44,9.56-9.53,16.69-19.21,16.94-.16.01-.36.01-.54.01ZM129.69,101.17h-.03c-10.59,0-19.21,8.62-19.21,19.22s8.62,19.21,19.21,19.21c.16,0,.34,0,.5-.01,9.34-.24,17.11-7.1,18.5-16.29.14-.95.22-1.92.22-2.9,0-2.45-.46-4.85-1.36-7.11-2.79-7.01-9.47-11.76-17-12.08-.29-.02-.56-.02-.83-.02Z" />
      <path class="cls-6"
        d="M129.46,100.78c.29,0,.58,0,.88.03,10.41.45,18.72,9.04,18.72,19.57s-8.49,19.29-19.07,19.57c-.17.01-.36.01-.53.01-10.82,0-19.59-8.76-19.59-19.59s8.76-19.6,19.59-19.6h0ZM129.46,99.45c-11.53,0-20.92,9.39-20.92,20.93s9.38,20.91,20.92,20.91c.19,0,.4,0,.6-.01,11.4-.32,20.33-9.49,20.33-20.9s-8.78-20.41-19.99-20.9c-.29-.03-.62-.03-.93-.03h0Z" />
      <path class="cls-6"
        d="M72.06,144.26c-.5,0-1-.01-1.49-.03-.37-.02-.65-.33-.63-.69.02-.37.36-.65.69-.63.84.04,1.72.04,2.6.01.37.01.67.27.69.64.01.37-.27.67-.64.69-.41.01-.81.02-1.21.02Z" />
      <path class="cls-6"
        d="M67.84,143.98s-.06,0-.09,0c-.99-.14-1.95-.33-2.86-.56-.36-.09-.57-.45-.48-.81.09-.36.45-.57.81-.48.86.22,1.78.4,2.71.53.36.05.62.39.57.75-.05.33-.33.57-.66.57Z" />
      <path class="cls-6"
        d="M61.39,142.15c-.09,0-.19-.02-.28-.06-7.9-3.65-10.9-11.05-12.02-16.61-.07-.36.16-.71.52-.78.36-.08.71.16.78.52,1.06,5.26,3.87,12.25,11.27,15.67.33.15.48.55.32.88-.11.24-.35.39-.6.39Z" />
      <path class="cls-6"
        d="M49.27,122.8c-.34,0-.63-.26-.66-.6-.17-1.71-.13-2.8-.13-2.84.01-.37.35-.65.68-.64.37.01.65.32.64.68,0,.01-.03,1.05.13,2.67.04.36-.23.69-.6.72-.02,0-.04,0-.06,0Z" />
      <path class="cls-6"
        d="M110.45,137.12s.07,0,.1,0c2.69.11,3.36,2.08,3.36,4.05,0,3.69-7.06,7.24-13.67,7.37-.13,0-.26,0-.39,0-8.95,0-15.44-6.35-11.81-9.73.76-.71,1.5-.99,2.24-.99,2.73,0,5.58,3.75,10.17,3.75.22,0,.46,0,.69-.03,4.52-.37,6.68-4.44,9.32-4.44h0ZM110.45,135.79c-1.62,0-2.92.98-4.3,2.01-1.48,1.11-3,2.26-5.12,2.43-.2.02-.39.02-.58.02-2.23,0-4.01-1.04-5.73-2.05-1.49-.87-2.89-1.7-4.44-1.7h0c-1.13,0-2.19.45-3.14,1.34-1.42,1.33-1.82,3.15-1.09,5.01,1.34,3.4,6.63,7.02,13.81,7.02.14,0,.28,0,.42,0,7.07-.15,14.97-3.9,14.97-8.7,0-3.3-1.69-5.26-4.63-5.38h-.16Z" />
      <path class="cls-6"
        d="M112.28,140.9c-.16,0-.32-.06-.45-.18-.27-.25-.29-.67-.04-.94.85-.92,1.19-1.63,1.2-1.64.16-.33.55-.48.88-.32.33.16.48.55.32.88-.02.03-.42.89-1.42,1.98-.13.14-.31.21-.49.21Z" />
      <path class="cls-6"
        d="M106.06,144.7c-.28,0-.54-.18-.63-.46-.11-.35.08-.72.43-.84,1.49-.49,2.84-1.14,4-1.95.3-.21.71-.13.92.17.21.3.13.71-.17.92-1.26.88-2.73,1.59-4.34,2.12-.07.02-.14.03-.21.03Z" />
      <path class="cls-6"
        d="M101.12,145.66c-.34,0-.63-.26-.66-.61-.03-.36.24-.69.6-.72.78-.07,1.53-.17,2.25-.3.36-.07.71.17.77.53.07.36-.17.71-.53.77-.76.14-1.56.25-2.38.32-.02,0-.04,0-.06,0Z" />
      <path class="cls-6"
        d="M98.71,145.71s-.02,0-.03,0c-.76-.04-1.52-.12-2.28-.26-.36-.07-.6-.41-.53-.77.07-.36.41-.6.77-.53.7.13,1.4.21,2.1.24.37.02.65.33.63.69-.02.36-.31.63-.66.63Z" />
      <path class="cls-6"
        d="M93.75,144.7c-.08,0-.16-.01-.23-.04-.93-.35-1.83-.78-2.68-1.29-.32-.19-.42-.6-.23-.91.19-.32.6-.42.91-.23.79.47,1.62.87,2.47,1.19.34.13.52.51.39.85-.1.27-.35.43-.62.43Z" />
      <path class="cls-6"
        d="M88.53,141.5c-.16,0-.32-.06-.45-.17-.91-.83-1.38-1.46-1.4-1.48-.22-.29-.16-.71.13-.93.29-.22.71-.16.93.13,0,0,.42.56,1.23,1.3.27.25.29.67.04.94-.13.14-.31.22-.49.22Z" />
      <path class="cls-6"
        d="M92.79,147.02c-.36,0-.66-.29-.66-.65l-.1-4.36c0-.37.28-.67.65-.68.35-.03.67.28.68.65l.1,4.36c0,.37-.28.67-.65.68h-.02Z" />
      <path class="cls-6"
        d="M92.65,141.21c-.36,0-.66-.29-.66-.65l-.02-.82c0-.37.28-.67.65-.68.36-.04.67.28.68.65l.02.82c0,.37-.28.67-.65.68h-.02Z" />
      <path class="cls-6"
        d="M97.5,148.2c-.37,0-.66-.3-.66-.66v-3.25c0-.37.3-.66.66-.66s.66.3.66.66v3.25c0,.37-.3.66-.66.66Z" />
      <path class="cls-6"
        d="M97.5,143.5c-.37,0-.66-.3-.66-.66v-.83c0-.37.3-.66.66-.66s.66.3.66.66v.83c0,.37-.3.66-.66.66Z" />
      <path class="cls-6"
        d="M102.25,148.2c-.37,0-.66-.3-.66-.66v-.45c0-.37.3-.66.66-.66s.66.3.66.66v.45c0,.37-.3.66-.66.66Z" />
      <path class="cls-6"
        d="M102.25,146.31c-.37,0-.66-.3-.66-.66v-3.1c0-.37.3-.66.66-.66s.66.3.66.66v3.1c0,.37-.3.66-.66.66Z" />
      <path class="cls-6"
        d="M107.39,147.02c-.37,0-.66-.3-.66-.66v-6.12c0-.37.3-.66.66-.66s.66.3.66.66v6.12c0,.37-.3.66-.66.66Z" />
      <path class="cls-6"
        d="M125.96,98.74c-.33,0-.61-.24-.66-.58-.05-.36.21-.7.57-.74,1.13-.15,2.33-.24,3.57-.27.35-.02.67.28.68.65,0,.37-.28.67-.65.68-1.19.03-2.34.12-3.43.26-.03,0-.06,0-.09,0Z" />
      <path class="cls-6"
        d="M116.49,101.92c-.22,0-.44-.11-.57-.32-.19-.31-.09-.72.22-.91,1.94-1.18,4.13-2.08,6.52-2.67.36-.08.72.13.8.48.09.36-.13.72-.48.8-2.26.56-4.33,1.4-6.15,2.52-.11.07-.23.1-.35.1Z" />
      <path class="cls-6"
        d="M106.48,117.02s-.09,0-.14-.02c-.36-.08-.59-.43-.51-.79.84-3.85,2.79-9.28,7.34-13.33.27-.24.69-.22.94.06.24.27.22.69-.05.94-4.28,3.81-6.13,8.96-6.92,12.62-.07.31-.34.52-.65.52Z" />
      <path class="cls-6"
        d="M105.77,123.94c-.35,0-.65-.28-.66-.63,0-.05-.05-1.19.11-2.99.03-.36.35-.61.72-.6.36.03.64.35.6.72-.15,1.71-.1,2.81-.1,2.82.02.37-.27.68-.63.69-.01,0-.02,0-.03,0Z" />
      <path class="cls-6"
        d="M74.92,117.21v2.04c0,2.25-1.84,4.08-4.08,4.08h-17.95c-.15-.96-.22-1.95-.22-2.96,0-2.56.49-5.01,1.39-7.25h16.79c2.25,0,4.08,1.84,4.08,4.08Z" />
      <path class="cls-6"
        d="M149.26,120.38c0,1.01-.07,1.99-.22,2.96h-11.67c-2.25,0-4.08-1.84-4.08-4.08v-2.04c0-2.25,1.84-4.08,4.08-4.08h10.5c.89,2.24,1.39,4.69,1.39,7.25Z" />
      <path class="cls-6"
        d="M103.8,67.47c0,.47.31.89.77,1.03.45.13.94-.03,1.21-.42.03-.04,3.07-4.4,7.41-4.4.51,0,1.03.06,1.57.19,1.49.37,2.46,1,2.86,1.88.64,1.38-.21,3.05-.22,3.06-.17.32-.15.73.05,1.05.2.32.54.51.92.51l5.11-.1c.6-.01,1.07-.51,1.06-1.1-.01-.62-.46-1.05-1.11-1.06l-3.54.07.06-.4c.16-1.06.04-2.04-.36-2.91-.69-1.52-2.14-2.56-4.32-3.1-3.77-.93-6.86.79-8.78,2.4l-.55.46-.03-4.28c0-.59-.49-1.07-1.08-1.07-.3,0-.57.12-.77.32-.2.21-.31.48-.31.77l.05,7.1Z" />
      <path class="cls-6"
        d="M109.73,71h0c-1.92.34-3.68,1.25-5.23,2.69l-.4.38-.16-.53c-.53-1.78-1.68-3.96-4.18-4.25-1.83-.21-3.22.57-4.26,2.4l-.23.4-.32-.34c-.79-.84-2.17-1.91-4.29-2.23-1.6,0-2.94.54-3.97,1.58-.22.23-.42.48-.58.71l-.13.18-.22-.05c-1-.22-3.41-.9-4.33-2.34-.43-.68-.48-1.47-.17-2.42.77-2.29,4.84-3.71,8.07-2.81,2.13.59,4.31,2.91,4.96,3.76.28.36.78.51,1.21.36.44-.15.73-.56.73-1.02v-5.42c0-.6-.49-1.08-1.08-1.08s-1.08.49-1.08,1.08v2.69l-.56-.45c-1.24-1.01-2.45-1.68-3.6-2-.81-.22-1.69-.33-2.59-.33-3.45,0-7.13,1.62-8.11,4.55-.52,1.56-.39,3.04.39,4.26,1.15,1.81,3.42,2.72,5.12,3.17l.33.09-.09.33c-.36,1.35-.36,2.47-.36,2.48,0,.59.49,1.07,1.08,1.07.6,0,1.09-.49,1.08-1.09,0-.75.25-2.98,1.46-4.18.59-.59,1.38-.93,2.23-.94h.03s.03,0,.03,0c2.38.36,3.54,2.32,3.76,2.98.16.46.67.88,1.11.89.77-.05,1.11-.68,1.36-1.36.55-1.49,1.21-2.92,2.75-2.75,2.59.3,2.76,5.34,2.76,5.39,0,.48.34.91.82,1.03.48.12.98-.1,1.21-.52.01-.03,2-3.52,5.81-4.2,2.49-.44,3.84.95,4.24,2.26.08.29.27.52.52.67.25.14.54.17.81.09.58-.16.91-.76.75-1.34-.46-1.65-2.46-4.57-6.71-3.82Z" />
      <path class="cls-6"
        d="M71.66,15.14c5.41-4.91,12.1-6.75,14.02-7.19l.06-.02c.43-.15,11.15-3.74,25.43-.92.58.12,1.16-.27,1.27-.85.12-.59-.27-1.16-.85-1.27-4.21-.83-8.11-1.13-11.54-1.13-8.97,0-14.78,2.06-14.85,2.09l-.06.02c-.34.07-8.4,1.75-14.93,7.68-.21.19-.34.46-.35.75-.01.29.09.57.28.78.39.43,1.1.46,1.53.07Z" />
      <path class="cls-6"
        d="M127.82,11.36h0c-.2-.17-.45-.27-.71-.27-.02,0-.05,0-.07,0-.29.02-.55.15-.74.37-.39.45-.35,1.14.1,1.53,1.33,1.16,2.64,2.54,3.78,3.99.36.45,1.07.54,1.52.18.47-.37.55-1.05.18-1.52-1.23-1.55-2.63-3.03-4.05-4.27Z" />
      <path class="cls-6"
        d="M135.05,20.5c-.13-.26-.36-.45-.63-.53-.11-.03-.22-.05-.32-.05-.17,0-.34.04-.5.12-.26.13-.45.36-.53.64-.09.28-.06.57.07.83,1.82,3.5,2.66,7.04,2.5,10.53-.03.6.44,1.1,1.03,1.13h.05c.58,0,1.05-.45,1.08-1.03.18-3.88-.74-7.79-2.74-11.64h0Z" />
      <path class="cls-6"
        d="M119.02,54.08c-.43-1.45-2.28-2.95-12.72-3.07h-.34v-2.68c0-.6-.49-1.08-1.08-1.08s-1.08.49-1.08,1.08v3.76c0,.29.11.56.32.77.2.2.48.32.77.32h.09c8.02,0,10.7.79,11.58,1.25l.43.23-.37.32c-.12.1-.25.21-.4.31l-.03.02c-2.8,1.39-28.9,1.42-34.27-.4l-.79-.27.75-.36c1.74-.84,6.65-1.82,13.32-1.98.59-.01,1.06-.49,1.06-1.08v-5.26c0-.46-.28-.85-.73-1.01l-.76-.27.72-.36c.86-.42,1.39-.74,1.58-.86l.52-.32v8.93c0,.6.49,1.08,1.08,1.08s1.08-.49,1.08-1.08v-10.87l.55.44c2.18,1.75,6.61,4.69,11.72,4.71,3.81-.03,6.39-1.32,7.89-2.4.04-.03.08-.05.12-.06.17-.13.8-.61,1.62-1.33l.11-.1.15.02c1.2.13,3.6.29,6.17-.13.29-.05.54-.2.7-.44.17-.24.24-.52.19-.81-.1-.58-.66-.98-1.25-.89-.97.16-2,.24-3.13.24h-.77s.49-.56.49-.56c1.79-2.05,3.91-5.17,3.8-8.34-.09-2.56-1.52-4.75-4.27-6.5-1.99-1.27-4.07-1.37-5.88-.28-2.74,1.65-4.16,5.55-3.94,8.36.15,1.86.97,3.19,2.32,3.74,2.87,1.17,4.63.13,5.42-.6,1.04-.95,1.63-2.45,1.34-3.42-.18-.6-.82-.98-1.37-.82-.3.09-.54.28-.67.52-.12.22-.14.47-.06.73l.02.06v.06c-.02.24-.27,1.03-.99,1.49-.73.46-1.69.45-2.86-.03-.74-.3-.93-1.32-.97-1.9-.16-2.08.99-5.19,2.9-6.34,1.09-.66,2.3-.57,3.6.25,2.14,1.36,3.21,2.91,3.27,4.74.11,3.25-3.05,6.77-4.95,8.59-.12.13-.51.47-1.13,1-.23.2-.46.39-.65.56l-.14.12c-.11.09-.22.17-.31.24-1.23.94-3.39,2.06-6.69,2.06h-.06c-5.88-.02-11.04-4.78-11.26-4.98-.75-.8-2.11-2.76-1.99-4.54.06-.95.53-1.76,1.42-2.49.46-.38.54-1.06.16-1.52-.38-.46-1.06-.54-1.52-.16-1.36,1.1-2.13,2.49-2.22,4.04-.12,1.95.82,3.77,1.63,4.95l.21.3-.32.18c-.13.07-.21.13-.27.2l-.05.04-1.81,1.35c-.05.04-4.32,2.75-9.04,2.8-1.5-.02-2.94-.44-4.27-1.26l-.05-.03c-1.13-.99-4.83-4.52-4.77-8.18.03-1.77.93-3.3,2.76-4.7,1.83-1.39,2.88-.81,3.22-.62,1.52.85,2.6,3.54,2.36,5.88-.07.69-.33,1.9-1.24,2.2-.28.09-.5.28-.63.54-.13.26-.16.55-.07.83.09.28.28.5.54.64.25.13.55.15.82.06,1.53-.49,2.53-1.96,2.74-4.04.28-2.82-.93-6.57-3.46-7.99-.98-.55-3.02-1.18-5.6.78-2.36,1.8-3.58,3.96-3.61,6.4-.02,1.66.53,3.44,1.65,5.29l.25.41-.47.1c-2.53.52-7.22,1.03-10.17-1.4-2.29-1.89-3.16-5.3-2.58-10.13.03-.29-.05-.57-.22-.8-.18-.23-.44-.37-.72-.41-.29-.04-.57.04-.8.22-.23.18-.37.44-.41.73-.67,5.62.46,9.68,3.36,12.06,4.08,3.36,10.38,2.26,12.9,1.64l.2-.05.14.16c1.25,1.44,3.97,3.84,8.05,3.84h.11c2.11-.02,4.37-.5,6.72-1.44l.75-.3-.31.74c-.06.13-.08.27-.08.41v4.21h-.33c-3.78.17-12.75.83-14.41,3.46-.37.59-.42,1.26-.15,1.89.36.81,1.34,1.19,2.17,1.44,3.48,1.04,12.58,1.5,20.06,1.5,8.31,0,14.72-.54,15.94-1.33,1.87-1.22,1.84-2.43,1.66-3.04Z" />
      <path class="cls-6"
        d="M76.32,67.01h-.03l-2.4.05c-.29,0-.56.12-.76.33-.2.21-.31.48-.3.77.01.59.5,1.06,1.08,1.06l2.42-.05c.29,0,.56-.12.76-.33.2-.21.31-.48.3-.77-.01-.59-.5-1.06-1.08-1.06Z" />
      <path class="cls-1" d="M134.42,185.28s-1.95,21,1.1,21.41c3.06.41,3.41-28.92,3.41-28.92l-4.51,7.5Z" />
      <path class="cls-2" d="M144.34,177.78c-.69,1.57-3.42,23.32,0,21.55,3.42-1.77,4.98-26.05,4.98-26.05l-4.98,4.5Z" />
      <path class="cls-6"
        d="M135.59,207.52c-.06,0-.12,0-.17-.01-1.37-.18-2.61-1.73-2.41-11.69.11-5.27.59-10.56.6-10.61.04-.45.44-.79.89-.74.45.04.78.44.74.89-.93,10.03-.78,19.14.32,20.43,1.4-1.85,2.41-15.73,2.56-28.02,0-.45.39-.82.83-.81.45,0,.82.38.81.83-.05,4.48-.46,26.96-3.26,29.38-.33.28-.65.36-.91.36ZM135.67,205.9h0,0Z" />
      <path class="cls-6"
        d="M143.97,200.26c-.36,0-.71-.14-.99-.4-.42-.39-1.68-1.58-.89-11.62.36-4.61,1.09-9.86,1.5-10.79.18-.41.67-.6,1.08-.42.41.18.6.67.42,1.08-.71,1.67-2.52,18.51-1.07,20.45,1.88-1.33,3.74-13.81,4.48-25.33.03-.45.42-.8.87-.77.45.03.8.42.77.87-.26,4.13-1.77,24.84-5.42,26.73-.25.13-.5.19-.75.19Z" />
      <path class="cls-3" d="M72.26,139.97s-1.66,24.72,1.65,24.72,2.09-28.61,2.09-28.61l-3.74,3.88Z" />
      <path class="cls-3"
        d="M73.91,165.08c-.31,0-.6-.13-.84-.4-2.58-2.76-1.34-22.49-1.19-24.73l.76.05c-.4,6-1.01,22.03.98,24.16.15.16.25.16.29.16.03,0,.1,0,.23-.13,2.1-2.19,1.78-21.01,1.48-28.08l.76-.03c.11,2.63,1.02,25.81-1.69,28.64-.23.24-.49.36-.78.36Z" />
      <path class="cls-6"
        d="M73.91,165.51c-.3,0-.75-.09-1.16-.54-2.65-2.84-1.55-21.37-1.3-25.06.03-.45.42-.8.87-.76.45.03.79.42.76.87,0,.06-.38,5.76-.41,11.6-.05,9.83.91,11.8,1.23,12.18,1.45-1.63,1.8-15.45,1.28-27.69-.02-.45.33-.84.79-.86.45-.02.84.33.86.79.18,4.33.97,26.07-1.81,28.97-.4.41-.81.5-1.1.5ZM73.99,163.89h0,0Z" />
      <path class="cls-6"
        d="M111.07,201.23h-50.8c-.6,0-1.1-.49-1.1-1.1s.49-1.1,1.1-1.1h50.8c.6,0,1.1.49,1.1,1.1s-.49,1.1-1.1,1.1Z" />
      <path class="cls-6"
        d="M57.08,62.6h23.94c.6,0,1.1-.49,1.1-1.1s-.49-1.1-1.1-1.1h-23.94c-.6,0-1.1.49-1.1,1.1s.49,1.1,1.1,1.1Z" />
      <path class="cls-6"
        d="M119.66,60.37h21.62c.6,0,1.1-.49,1.1-1.1s-.49-1.1-1.1-1.1h-21.62c-.6,0-1.1.49-1.1,1.1s.49,1.1,1.1,1.1Z" />
      <path class="cls-6"
        d="M124.54,71.3c-.6,0-1.1.49-1.1,1.1s.49,1.1,1.1,1.1h14.38c.6,0,1.1-.49,1.1-1.1s-.49-1.1-1.1-1.1h-14.38Z" />
      <path class="cls-6"
        d="M57.08,71.84c-.6,0-1.1.49-1.1,1.1s.49,1.1,1.1,1.1h15.18c.6,0,1.1-.49,1.1-1.1s-.49-1.1-1.1-1.1h-15.18Z" />
      <path class="cls-6"
        d="M50.28,69.01h15.1c.6,0,1.1-.49,1.1-1.1s-.49-1.1-1.1-1.1h-15.1c-.6,0-1.1.49-1.1,1.1s.49,1.1,1.1,1.1Z" />
      <path class="cls-6"
        d="M65.38,53.73h15.75c.6,0,1.1-.49,1.1-1.1s-.49-1.1-1.1-1.1h-15.75c-.6,0-1.1.49-1.1,1.1s.49,1.1,1.1,1.1Z" />
      <path class="cls-6"
        d="M108.05,84.37h52.14c.6,0,1.1-.49,1.1-1.1s-.49-1.1-1.1-1.1h-52.14c-.6,0-1.1.49-1.1,1.1s.49,1.1,1.1,1.1Z" />
      <path class="cls-6"
        d="M34.93,77.91h50.77c.6,0,1.1-.49,1.1-1.1s-.49-1.1-1.1-1.1h-50.77c-.6,0-1.1.49-1.1,1.1s.49,1.1,1.1,1.1Z" />
      <path class="cls-6"
        d="M44.28,127.92h-19.91c-.6,0-1.1.49-1.1,1.1s.49,1.1,1.1,1.1h19.91c.6,0,1.1-.49,1.1-1.1s-.49-1.1-1.1-1.1Z" />
      <path class="cls-6"
        d="M158.01,130.38c0,.6.49,1.1,1.1,1.1h17.42c.6,0,1.1-.49,1.1-1.1s-.49-1.1-1.1-1.1h-17.42c-.6,0-1.1.49-1.1,1.1Z" />
      <path class="cls-6"
        d="M43,131.59h-14.89c-.45,0-.82.37-.82.82s.37.82.82.82h14.89c.45,0,.82-.37.82-.82s-.37-.82-.82-.82Z" />
      <path class="cls-6"
        d="M158.32,132.59c-.45,0-.82.37-.82.82s.37.82.82.82h14.81c.45,0,.82-.37.82-.82s-.37-.82-.82-.82h-14.81Z" />
      <path class="cls-6"
        d="M50.28,97.92h-27.62c-.45,0-.82.37-.82.82s.37.82.82.82h27.62c.45,0,.82-.37.82-.82s-.37-.82-.82-.82Z" />
      <path class="cls-6"
        d="M165.02,98.74c0-.6-.49-1.1-1.1-1.1h-13.59c-.6,0-1.1.49-1.1,1.1s.49,1.1,1.1,1.1h13.59c.6,0,1.1-.49,1.1-1.1Z" />
      <path class="cls-6"
        d="M158.28,117.02c0,.45.37.82.82.82h10.11c.45,0,.82-.37.82-.82s-.37-.82-.82-.82h-10.11c-.45,0-.82.37-.82.82Z" />
      <path class="cls-6"
        d="M42.41,150.39h-14.3c-.6,0-1.1.49-1.1,1.1s.49,1.1,1.1,1.1h14.3c.6,0,1.1-.49,1.1-1.1s-.49-1.1-1.1-1.1Z" />
      <path class="cls-6"
        d="M124.76,201.75h-41.63c-.6,0-1.1.49-1.1,1.1s.49,1.1,1.1,1.1h41.63c.6,0,1.1-.49,1.1-1.1s-.49-1.1-1.1-1.1Z" />
      <path class="cls-6"
        d="M183.21,159.69h-31.02c-.6,0-1.1.49-1.1,1.1s.49,1.1,1.1,1.1h31.02c.6,0,1.1-.49,1.1-1.1s-.49-1.1-1.1-1.1Z" />
      <path class="cls-6"
        d="M39.4,145.79c.63,0,1.1-.47,1.11-1.08.01-.6-.47-1.1-1.08-1.11-1.43-.02-33.23,0-34.59,0-.6,0-1.09.49-1.09,1.1,0,.6.49,1.09,1.1,1.09h0c.33,0,33.14-.02,34.55,0Z" />
      <path class="cls-6"
        d="M120.82,208.48h-25.29c-.6,0-1.1.49-1.1,1.1s.49,1.1,1.1,1.1h25.29c.6,0,1.1-.49,1.1-1.1s-.49-1.1-1.1-1.1Z" />
      <path class="cls-6"
        d="M106.19,206.7c0-.6-.49-1.1-1.1-1.1h-42.31c-.6,0-1.1.49-1.1,1.1s.49,1.1,1.1,1.1h42.31c.6,0,1.1-.49,1.1-1.1Z" />
      <path class="cls-1"
        d="M159.99,82.74l2.64,31.62-2.55,5.72c-.5,1.13.6,2.31,1.76,1.88l9.33-3.47,33.56-1.07c2.2-.07,3.95-1.88,3.95-4.08v-33.41c0-2.58-2.17-4.62-4.74-4.47l-39.1,2.14c-2.72.16-4.84,2.42-4.84,5.15Z" />
      <path class="cls-7"
        d="M159.33,121c-.66,0-1.26-.33-1.63-.9-.36-.56-.41-1.23-.14-1.84l2.49-5.59-2.63-31.48c0-3.06,2.35-5.56,5.36-5.74l39.1-2.14c.1,0,.2,0,.3,0,2.77,0,5.02,2.25,5.02,5.02v33.41c0,2.51-1.97,4.55-4.48,4.63l-33.47,1.07-9.24,3.44c-.22.08-.45.13-.69.13h0Z" />
      <path class="cls-6"
        d="M202.19,73.85c2.45,0,4.47,1.99,4.47,4.48v33.41c0,2.2-1.75,4.01-3.95,4.08l-33.56,1.07-9.33,3.47c-.17.06-.33.09-.5.09-.95,0-1.7-1-1.27-1.97l2.55-5.72-2.64-31.62c0-2.73,2.12-4.98,4.84-5.15l39.1-2.14c.09,0,.18,0,.27,0h0ZM202.19,72.75c-.11,0-.23,0-.34.01l-39.09,2.14c-3.3.2-5.88,2.94-5.88,6.24,0,.03,0,.06,0,.09l2.61,31.34-2.44,5.46c-.35.77-.28,1.66.18,2.37.47.72,1.25,1.15,2.09,1.15.3,0,.59-.05.88-.16l9.16-3.41,33.38-1.07c2.81-.09,5.01-2.36,5.01-5.17v-33.41c0-3.07-2.5-5.57-5.57-5.57h0Z" />
      <path class="cls-8"
        d="M165.58,96.25c-.3,0-.55-.25-.55-.55v-16.31c0-.3.25-.55.55-.55h6.53c.3,0,.55.25.55.55v3.18c0,.3-.25.55-.55.55h-2.7v1.5h2.53c.3,0,.55.25.55.55v3.14c0,.3-.25.55-.55.55h-2.53v6.85c0,.3-.25.55-.55.55h-3.28Z" />
      <path class="cls-6"
        d="M172.1,79.39v3.18h-3.24v2.6h3.08v3.14h-3.08v7.4h-3.28v-16.31h6.53ZM172.1,78.29h-6.53c-.6,0-1.1.49-1.1,1.1v16.31c0,.6.49,1.1,1.1,1.1h3.28c.6,0,1.1-.49,1.1-1.1v-6.3h1.98c.6,0,1.1-.49,1.1-1.1v-3.14c0-.6-.49-1.1-1.1-1.1h-1.98v-.41h2.15c.6,0,1.1-.49,1.1-1.1v-3.18c0-.6-.49-1.1-1.1-1.1h0Z" />
      <path class="cls-8"
        d="M178.12,96.25c-.28,0-.52-.22-.55-.5l-.19-2.13h-.96l-.16,2.13c-.02.29-.26.51-.55.51h-3.17c-.15,0-.3-.07-.41-.18-.1-.11-.15-.27-.14-.42l1.58-16.31c.03-.28.26-.49.55-.49h5.53c.28,0,.52.21.55.5l1.55,16.31c.01.15-.04.31-.14.42-.1.11-.25.18-.41.18h-3.09ZM177.04,89.92l-.16-1.84-.14,1.84h.3Z" />
      <path class="cls-6"
        d="M179.66,79.39l1.55,16.31h-3.09l-.23-2.63h-1.96l-.2,2.63h-3.17l1.58-16.31h5.53ZM176.15,90.46h1.48l-.71-8.3h-.15l-.62,8.3h0ZM179.66,78.29h-5.53c-.56,0-1.04.43-1.09.99l-1.58,16.31c-.03.31.07.61.28.84.21.23.5.36.81.36h3.17c.57,0,1.05-.44,1.09-1.01l.1-1.31.12,1.32c.05.57.52,1,1.09,1h3.09c.31,0,.6-.13.81-.36.21-.23.31-.53.28-.84l-1.55-16.31c-.05-.56-.53-.99-1.09-.99h0Z" />
      <path class="cls-8"
        d="M186.74,96.25c-.3,0-.55-.25-.55-.55v-6.39c0-.26-.04-.39-.05-.43-.02,0-.05-.02-.08-.03v6.84c0,.3-.25.55-.55.55h-3.3c-.3,0-.55-.25-.55-.55v-16.31c0-.3.25-.55.55-.55h5c.97,0,1.73.24,2.26.71.51.46.86,1.09,1.03,1.89.15.72.23,1.57.23,2.52s-.12,1.74-.38,2.35c-.14.34-.35.63-.62.86.17.15.3.33.41.54.25.48.37,1.09.37,1.82v6.17c0,.3-.25.55-.55.55h-3.22ZM186.31,84.88s.13-.2.13-.93-.07-.95-.09-1c0,0-.04,0-.07,0h-.21v1.93h.24Z" />
      <path class="cls-6"
        d="M187.21,79.39c.83,0,1.46.19,1.89.57.43.38.71.91.86,1.59.15.68.22,1.48.22,2.41s-.11,1.6-.34,2.13c-.23.53-.65.9-1.27,1.1.51.11.87.36,1.08.76.21.41.31.93.31,1.57v6.17h-3.22v-6.39c0-.48-.1-.77-.29-.89-.19-.11-.51-.17-.94-.17v7.44h-3.3v-16.31h5.01ZM185.52,85.43h.79c.45,0,.68-.49.68-1.47,0-.64-.05-1.05-.15-1.25-.1-.2-.28-.3-.56-.3h-.76v3.02h0ZM187.21,78.29h-5.01c-.6,0-1.1.49-1.1,1.1v16.31c0,.6.49,1.1,1.1,1.1h3.3c.23,0,.44-.07.62-.19.18.12.39.19.62.19h3.22c.6,0,1.1-.49,1.1-1.1v-6.17c0-.83-.14-1.5-.43-2.07-.05-.09-.1-.18-.16-.28.16-.2.29-.42.39-.67.29-.67.43-1.51.43-2.56,0-.99-.08-1.88-.24-2.63-.19-.91-.6-1.65-1.2-2.18-.63-.56-1.51-.85-2.62-.85h0Z" />
      <path class="cls-8"
        d="M191.25,96.25c-.3,0-.55-.25-.55-.55v-16.31c0-.3.25-.55.55-.55h6.53c.3,0,.55.25.55.55v3.15c0,.3-.25.55-.55.55h-2.66v2.08h2.53c.3,0,.55.25.55.55v3.07c0,.3-.25.55-.55.55h-2.53v2.64h2.87c.3,0,.55.25.55.55v3.18c0,.3-.25.55-.55.55h-6.74Z" />
      <path class="cls-6"
        d="M197.78,79.39v3.15h-3.21v3.18h3.08v3.07h-3.08v3.74h3.42v3.18h-6.74v-16.31h6.53ZM197.78,78.29h-6.53c-.6,0-1.1.49-1.1,1.1v16.31c0,.6.49,1.1,1.1,1.1h6.74c.6,0,1.1-.49,1.1-1.1v-3.18c0-.6-.49-1.1-1.1-1.1h-2.33v-1.54h1.98c.6,0,1.1-.49,1.1-1.1v-3.07c0-.6-.49-1.1-1.1-1.1h-1.98v-.99h2.11c.6,0,1.1-.49,1.1-1.1v-3.15c0-.6-.49-1.1-1.1-1.1h0Z" />
      <path class="cls-8"
        d="M172.43,113.03c-.28,0-.52-.21-.54-.49l-.26-2.49-.25,2.48c-.03.28-.26.49-.54.49h-3.98c-.28,0-.51-.21-.54-.49l-1.75-16.31c-.02-.15.03-.31.14-.42.1-.12.25-.18.41-.18h3.19c.28,0,.52.22.55.5l.36,4.11.37-4.11c.03-.28.26-.5.55-.5h3.04c.28,0,.52.22.55.5l.33,3.85.33-3.85c.02-.28.26-.5.55-.5h3.23c.16,0,.3.07.41.18.1.12.15.27.14.42l-1.78,16.31c-.03.28-.26.49-.54.49h-3.91Z" />
      <path class="cls-6"
        d="M178.12,96.17h0,0ZM178.12,96.17l-1.78,16.31h-3.91l-.82-7.85-.78,7.85h-3.98l-1.75-16.31h3.19l.9,10.3.92-10.3h3.04l.87,10.3.87-10.3h3.23ZM178.12,95.08h-3.23c-.35,0-.67.17-.87.43-.2-.26-.52-.43-.87-.43h-3.04c-.38,0-.71.19-.91.48-.2-.29-.53-.48-.91-.48h-3.19c-.31,0-.61.13-.81.36-.21.23-.31.54-.27.85l1.75,16.31c.06.56.53.98,1.09.98h3.98c.31,0,.6-.13.8-.34.2.21.48.34.8.34h3.91c.56,0,1.03-.42,1.09-.98l1.77-16.26c0-.06.01-.12.01-.18,0-.6-.49-1.1-1.09-1.1h0ZM178.12,97.27h0,0Z" />
      <path class="cls-8"
        d="M179.09,113.03c-.3,0-.55-.25-.55-.55v-16.31c0-.3.25-.55.55-.55h6.53c.3,0,.55.25.55.55v3.15c0,.3-.25.55-.55.55h-2.66v2.08h2.53c.3,0,.55.25.55.55v3.07c0,.3-.25.55-.55.55h-2.53v2.64h2.87c.3,0,.55.25.55.55v3.18c0,.3-.25.55-.55.55h-6.74Z" />
      <path class="cls-6"
        d="M185.62,96.17v3.15h-3.21v3.18h3.08v3.07h-3.08v3.74h3.42v3.18h-6.74v-16.31h6.53ZM185.62,95.08h-6.53c-.6,0-1.1.49-1.1,1.1v16.31c0,.6.49,1.1,1.1,1.1h6.74c.6,0,1.1-.49,1.1-1.1v-3.18c0-.6-.49-1.1-1.1-1.1h-2.33v-1.54h1.98c.6,0,1.1-.49,1.1-1.1v-3.07c0-.6-.49-1.1-1.1-1.1h-1.98v-.99h2.11c.6,0,1.1-.49,1.1-1.1v-3.15c0-.6-.49-1.1-1.1-1.1h0Z" />
      <path class="cls-8"
        d="M186.91,113.03c-.3,0-.55-.25-.55-.55v-16.31c0-.3.25-.55.55-.55h3.26c.3,0,.55.25.55.55v12.98h2.81c.3,0,.55.25.55.55v2.78c0,.3-.25.55-.55.55h-6.62Z" />
      <path class="cls-6"
        d="M190.17,96.17v13.53h3.36v2.78h-6.62v-16.31h3.26ZM190.17,95.08h-3.26c-.6,0-1.1.49-1.1,1.1v16.31c0,.6.49,1.1,1.1,1.1h6.62c.6,0,1.1-.49,1.1-1.1v-2.78c0-.6-.49-1.1-1.1-1.1h-2.26v-12.44c0-.6-.49-1.1-1.1-1.1h0Z" />
      <path class="cls-8"
        d="M194.45,113.03c-.3,0-.55-.25-.55-.55v-16.31c0-.3.25-.55.55-.55h3.26c.3,0,.55.25.55.55v12.98h2.81c.3,0,.55.25.55.55v2.78c0,.3-.25.55-.55.55h-6.62Z" />
      <path class="cls-6"
        d="M197.71,96.17v13.53h3.36v2.78h-6.62v-16.31h3.26ZM197.71,95.08h-3.26c-.6,0-1.1.49-1.1,1.1v16.31c0,.6.49,1.1,1.1,1.1h6.62c.6,0,1.1-.49,1.1-1.1v-2.78c0-.6-.49-1.1-1.1-1.1h-2.26v-12.44c0-.6-.49-1.1-1.1-1.1h0Z" />
    </g>
  </g>
</svg>