<?xml version="1.0" encoding="UTF-8"?>
<svg id="Capa_2" xmlns="http://www.w3.org/2000/svg" xmlns:xlink="http://www.w3.org/1999/xlink"
  viewBox="0 0 188.78 237.98">
  <defs>
    <style>
      .cls-1 {
        fill: #29abe2;
      }

      .cls-2 {
        fill: #fff;
      }

      .cls-3 {
        filter: none;
      }

      .cls-4 {
        fill: #862291;
      }

      .cls-5 {
        fill: #1b1464;
      }

      .cls-6 {
        fill: #fcee21;
      }

      .cls-7 {
        fill: #ed1e79;
      }

      .cls-8 {
        fill: #fbee4f;
      }

      .cls-9 {
        fill: #3d89f6;
      }
    </style>
  </defs>
  <g id="_0">
    <g class="cls-3">
      <path class="cls-2"
        d="M188.68,125.16l-1,.21h0l1-.21c-.35-1.69-1.59-3.06-3.24-3.57l-7.36-2.29v-5.19c0-2.54-.46-4.74-1.38-6.53-.02-.03-.03-.06-.05-.1.28-.45.53-.92.74-1.42.88-2.07,1.32-4.7,1.32-7.83,0-2.93-.24-5.55-.72-7.79-.62-2.89-1.91-5.24-3.85-6.97-2.06-1.83-4.88-2.77-8.38-2.77h-14.27c-.64,0-1.26.13-1.84.39-.57-.26-1.2-.39-1.84-.39h-18.6c-.45,0-.88.06-1.31.19-.45-.15-.91-.22-1.39-.22h-8.85c-1.25,0-2.4.5-3.22,1.35-.79-.81-1.86-1.3-3.03-1.35-.17-1.46-.53-2.93-1.05-4.37-.58-1.59-1.4-2.98-2.44-4.14,3.11-1.78,4.88-5.34,4.32-8.98l-.12-.75c-.02-.14-.05-.27-.08-.38-.12-.77-.27-1.8-.45-2.96l.36.11c1.49.47,3.14.21,4.4-.68,1.27-.9,2.07-2.36,2.12-3.92l.19-5.21c.05-1.38-.48-2.74-1.46-3.72-.97-.97-2.35-1.5-3.72-1.47l-8.62.29c-1.43.05-2.78.71-3.69,1.81-.92,1.11-1.32,2.55-1.1,3.97l.78,5.01-.3.05c-.66.1-1.3.28-1.91.53,0-2.88-.56-6.3-3.26-8.58-.43-.36-.86-.68-1.29-.97,3.62-1.86,4.82-7.06,5.71-12.34,1.57-9.32,1.09-15.54-1.49-18.99,1.89-2.23,2.83-5.13,2.48-7.77-.47-3.6-3.37-7.23-8.79-7.23-.33,0-.67.01-1.01.04-6.04.49-9.09,5.85-8.89,10.64.11,2.6,1.12,4.88,2.83,6.39-1.32,3.04-.6,6.62-.05,9.3.35,1.74.84,4.13.44,4.99-.87,1.87-1.8,2.27-3.49,3.02-.51.22-1.13.5-1.79.86-1.06-2.9-3.5-4.76-6.41-4.76h-.13c-3.55.09-5.98,3.31-5.92,7.84.03,2.05.57,3.91,1.55,5.31-.81,1.91-.73,4.15-.67,5.83.07,1.87.14,3.81-.48,5.2-.07.15-.32.58-.5.91-1.29,2.27-3.7,6.54-3.92,11.1-.17-.91-.57-1.77-1.17-2.49-1-1.21-2.48-1.94-4.06-2l-8.68-.29h-.12c-1.48,0-2.86.57-3.9,1.62-1.07,1.08-1.66,2.57-1.61,4.09l.19,5.21c.06,1.71.93,3.32,2.33,4.31,1.28.91,2.91,1.22,4.44.87-.12.82-.24,1.56-.33,2.16-.03.12-.06.26-.08.42l-.11.73c-.09.58-.12,1.17-.1,1.75-2.59-1.83-5.88-2.75-9.8-2.75s-7.41.98-10.05,2.93c-.74-1.49-2.27-2.51-4.03-2.51H7.9c-2.48,0-4.5,2.02-4.5,4.5v61.25c-5.67,14.76-4.18,32.09,3.88,45.35-.12,7.08-.07,16.82.8,24.5-1.08.08-2.09.54-2.86,1.31-.86.86-1.33,1.99-1.33,3.2v2.95c0,1.21.47,2.35,1.32,3.2.06.05.11.11.17.16-.05.05-.11.1-.16.15-.86.86-1.33,1.99-1.33,3.2v2.95c0,1.21.47,2.35,1.32,3.2.86.86,2,1.33,3.21,1.33h12.37c.74,0,1.45-.18,2.09-.51.64.34,1.35.51,2.09.51h3.63c.99,0,1.93-.32,2.71-.91.83.59,1.81.91,2.85.91h3.14c1.21,0,2.35-.47,3.2-1.32.86-.86,1.33-1.99,1.33-3.2v-12.61c0-1.21-.47-2.34-1.33-3.2-.86-.86-1.99-1.33-3.2-1.33h-3.63c-.99,0-1.93.32-2.7.9-.14-.1-.29-.19-.44-.27.9-1.32,1.59-3.03,2.1-5.18,2.63.82,5.39,1.43,8.23,1.82.54,1.62,1.36,2.92,2.42,3.85,1.56,1.26,3.92,1.67,3.92,1.67-.23.54-.35,1.13-.35,1.74v12.61c0,1.21.47,2.35,1.32,3.2.86.86,2,1.33,3.21,1.33h3.53c1.21,0,2.35-.47,3.2-1.33.08-.08.16-.17.24-.25.07.09.15.17.23.25.86.86,1.99,1.33,3.2,1.33h3.53c1.21,0,2.34-.47,3.2-1.33.21-.21.4-.44.57-.69.16.24.35.47.56.68.86.86,2,1.33,3.21,1.33h4.16c1.21,0,2.35-.47,3.2-1.32.86-.86,1.33-2,1.33-3.2v-3.24l4.36-7.22c.05-.08.1-.17.14-.25.32-.64.48-1.32.48-2.04,0-1.15-.46-2.25-1.31-3.1-.84-.83-1.95-1.29-3.12-1.29h-4.08c-1.13,0-2.18.36-3.03,1.04-.85-.67-1.9-1.04-3.06-1.04h-4.12c-.42,0-.83.06-1.23.18-.41-.12-.82-.18-1.25-.18h-3.57c-1.31,0-2.49.48-3.39,1.35-.9-.87-2.09-1.35-3.4-1.35h-.89s.9-1.98,1.14-2.61c.22-.02.43-.05.63-.07,9.93-1.09,19.7-7.07,31.43-19.3.49,15.49,2.85,17.69,4.01,18.78,1.09,1.01,2.42,1.55,3.85,1.55.2,0,.4-.01.53-.03.48-.05.94-.15,1.39-.31.23.72.49,1.38.76,1.99h-2.96c-1.18,0-2.29.46-3.13,1.3-.84.84-1.3,1.93-1.3,3.07,0,.45.06.86.17,1.29.02.09.05.19.09.27l4.53,12.53c.73,1.98,2.49,3.21,4.62,3.21h4.55c1.85,0,3.41-.92,4.27-2.45.21.41.49.78.82,1.12.86.86,1.99,1.33,3.21,1.33h12.34c.72,0,1.41-.17,2.04-.49.63.32,1.32.49,2.04.49h12.38c.74,0,1.45-.18,2.09-.51.64.34,1.35.51,2.09.51h3.63c.99,0,1.94-.32,2.72-.9.83.59,1.81.9,2.85.9h3.14c1.21,0,2.34-.47,3.2-1.33.08-.08.15-.16.22-.24,1.8,1.05,4.1,1.59,6.84,1.59,2.91,0,5.37-.6,7.32-1.79,2.51-1.53,3.88-3.86,3.88-6.56,0-1.33-.27-2.55-.81-3.61.23-.54.35-1.13.35-1.73,0-1.6-.61-3.94-3.54-6-1.9-1.34-4.3-2.01-7.11-2.01s-4.97.59-6.79,1.75c-.11-.14-.23-.28-.36-.41-.85-.85-1.97-1.32-3.17-1.32.03-2.5-.01-5.26-.13-8.23,1.27-.71,2.51-1.48,3.7-2.31.61,3.38,1.62,5.54,3.19,6.89,1.4,1.21,3.21,1.7,4.97,1.39,3.92-.69,7.48-4.35,7.05-26.16,5.54-11.36,6.69-24.86,3.16-37.17,1.38-1.64,2.02-4.21,2.06-8.2.01-1.06-.02-2.21-.09-3.31.03-.86-.06-1.71-.28-2.56-.15-.58-.36-1.14-.62-1.67l6.1-5.25c1.31-1.13,1.9-2.87,1.55-4.56ZM140.22,216.29h-9.34c.17-.71.32-1.46.43-2.27,2.96.11,5.79,0,8.62-.32.09.88.18,1.74.29,2.59ZM117.01,216.29h-4.33c-.58,0-1.15.11-1.68.32-.22-.09-.45-.16-.68-.21.86-2.26,1.17-5.07,1.28-7.79,1.5.87,3.01,1.63,4.49,2.28.14,1.43.36,3.43.91,5.39Z" />
      <path class="cls-6"
        d="M20.79,224.3h-3.53v5.66h3.53c.14,0,.27.05.37.16.1.1.16.23.16.37v2.95c0,.14-.05.27-.16.37-.1.1-.23.16-.37.16h-12.37c-.14,0-.27-.05-.37-.16-.1-.1-.16-.23-.16-.37v-2.95c0-.14.05-.27.16-.37.1-.1.23-.16.37-.16h3.57v-5.66h-3.57c-.14,0-.27-.05-.37-.16-.1-.1-.16-.23-.16-.37v-2.95c0-.14.05-.27.16-.37.1-.1.23-.16.37-.16h12.37c.14,0,.27.05.37.16.1.1.16.23.16.37v2.95c0,.14-.05.27-.16.37-.1.1-.23.16-.37.16Z" />
      <path class="cls-5"
        d="M20.79,234.46h-12.37c-.28,0-.53-.1-.72-.3-.2-.2-.3-.45-.3-.72v-2.95c0-.28.1-.53.3-.72.2-.2.45-.3.72-.3h3.07v-4.67h-3.07c-.28,0-.53-.1-.72-.3-.2-.2-.3-.45-.3-.72v-2.95c0-.28.1-.53.3-.72.2-.2.45-.3.72-.3h12.37c.27,0,.52.1.72.3.2.2.3.45.3.72v2.95c0,.27-.1.52-.3.72-.2.2-.45.3-.72.3h-3.04v4.67h3.04c.27,0,.52.1.72.3.2.2.3.45.3.72v2.95c0,.27-.1.52-.3.72-.2.2-.45.3-.72.3ZM8.42,230.45l-.03,2.98,12.4.03.03-2.98-3.56-.03c-.27,0-.5-.22-.5-.5v-5.66c0-.27.22-.5.5-.5h3.53s0,0,0,0l.02-2.98-12.4-.03-.03,2.98,3.6.03c.27,0,.5.22.5.5v5.66c0,.27-.22.5-.5.5h-3.57Z" />
      <path class="cls-6"
        d="M33.67,220.3h3.63c.14,0,.27.05.37.16.1.1.16.23.16.37v12.61c0,.14-.05.27-.16.37-.1.1-.23.16-.37.16h-3.14c-.31,0-.57-.14-.78-.41l-4.25-5.43v5.31c0,.14-.05.27-.16.37-.1.1-.23.16-.37.16h-3.63c-.14,0-.27-.05-.37-.16-.1-.1-.16-.23-.16-.37v-12.61c0-.14.05-.27.16-.37.1-.1.23-.16.37-.16h3.16c.31,0,.57.13.76.39l4.25,5.87v-5.74c0-.14.05-.27.16-.37.1-.1.23-.16.37-.16Z" />
      <path class="cls-5"
        d="M37.3,234.46h-3.14c-.47,0-.87-.21-1.18-.61l-3.36-4.29v3.87c0,.28-.1.52-.3.72-.2.2-.45.3-.72.3h-3.63c-.28,0-.53-.1-.72-.3-.2-.19-.3-.44-.3-.72v-12.61c0-.28.1-.53.3-.72.2-.2.45-.3.72-.3h3.16c.47,0,.87.2,1.16.59l3.36,4.64v-4.2c0-.27.1-.52.3-.72.2-.2.45-.3.72-.3h3.63c.27,0,.52.1.72.3.2.2.3.45.3.72v12.61c0,.28-.1.53-.3.72-.2.2-.45.3-.72.3ZM29.12,227.63c.15,0,.3.07.39.19l4.25,5.43c.15.19.28.22.39.22h3.14l.03-12.64-3.66-.03s0,0,0,0l-.02,5.77c0,.22-.14.41-.34.47-.21.07-.43,0-.56-.18l-4.25-5.87c-.1-.13-.2-.18-.36-.18h-3.16l-.03,12.64,3.66.03.03-5.34c0-.21.13-.4.33-.47.05-.02.11-.03.16-.03Z" />
      <path class="cls-6"
        d="M61.75,220.3h3.57c.14,0,.27.05.37.16.1.1.16.23.16.37v12.61c0,.14-.05.27-.16.37-.1.1-.23.16-.37.16h-3.53c-.14,0-.27-.05-.37-.16-.1-.1-.16-.23-.16-.37v-6.05l-1.42,2.81c-.08.16-.2.28-.35.36-.16.08-.31.13-.47.13h-1.33c-.22,0-.4-.06-.55-.18-.14-.12-.23-.22-.27-.31l-1.42-2.81v6.05c0,.14-.05.27-.16.37-.1.1-.23.16-.37.16h-3.53c-.14,0-.27-.05-.37-.16-.1-.1-.16-.23-.16-.37v-12.61c0-.14.05-.27.16-.37.1-.1.23-.16.37-.16h3.57c.36,0,.64.18.84.53l2.56,4.68,2.56-4.68c.2-.35.47-.53.84-.53Z" />
      <path class="cls-5"
        d="M65.32,234.46h-3.53c-.28,0-.53-.1-.72-.3-.2-.2-.3-.45-.3-.72v-3.97l-.48.95c-.12.25-.31.44-.56.57-.23.12-.47.19-.7.19h-1.33c-.34,0-.63-.1-.86-.29-.21-.17-.34-.33-.42-.5l-.47-.93v3.97c0,.28-.1.53-.3.72-.2.2-.45.3-.72.3h-3.53c-.28,0-.53-.1-.72-.3-.2-.2-.3-.45-.3-.72v-12.61c0-.27.1-.52.3-.72.2-.2.45-.3.72-.3h3.57c.38,0,.91.14,1.27.78l2.12,3.89,2.12-3.88c.36-.65.89-.79,1.28-.79h3.57c.27,0,.52.1.72.3.2.2.3.45.3.72v12.61c0,.28-.1.53-.3.72-.2.2-.45.3-.72.3ZM61.26,226.88s.08,0,.12.01c.22.05.38.25.38.48v6.05l3.56.03.03-12.64-3.6-.03c-.13,0-.27.03-.4.27l-2.55,4.68c-.17.32-.7.32-.87,0l-2.56-4.68c-.13-.24-.27-.27-.4-.27h-3.57l-.03,12.64,3.56.03.03-6.08c0-.23.16-.43.38-.48.22-.05.46.05.56.26l1.42,2.81s.04.06.14.15c.02.02.08.06.23.06h1.33c.07,0,.15-.02.23-.07.07-.04.11-.08.14-.15l1.43-2.81c.09-.17.26-.27.44-.27Z" />
      <path class="cls-6"
        d="M78.01,220.3h4.08c.12,0,.22.04.3.13.08.08.13.17.13.26s-.02.18-.06.25l-4.92,8.14v4.35c0,.14-.05.27-.16.37-.1.1-.23.16-.37.16h-4.16c-.14,0-.27-.05-.37-.16-.1-.1-.16-.23-.16-.37v-4.35l-4.9-8.14c-.04-.08-.06-.16-.06-.25s.04-.18.13-.26c.08-.08.19-.13.3-.13h4.12c.36,0,.63.15.8.45l2.21,3.86,2.26-3.83c.2-.32.47-.49.82-.49Z" />
      <path class="cls-5"
        d="M77.01,234.46h-4.16c-.28,0-.53-.1-.72-.3-.2-.2-.3-.45-.3-.72v-4.21l-4.83-8.02c-.09-.18-.13-.34-.13-.51,0-.16.05-.39.27-.62.18-.18.41-.27.65-.27h4.12c.55,0,.97.24,1.23.7l1.78,3.12,1.83-3.09c.29-.48.72-.73,1.25-.73h4.08c.25,0,.47.09.65.27.23.23.27.46.27.62,0,.17-.04.33-.11.48l-4.87,8.05v4.21c0,.28-.1.53-.3.72-.2.2-.45.3-.72.3ZM67.93,220.79l4.82,8.03c.05.08.07.17.07.26v4.35l4.19.03.03-4.38c0-.09.02-.18.07-.26l4.85-8.03h-3.96c-.13,0-.26.03-.39.25l-2.26,3.82c-.09.15-.26.25-.43.24-.18,0-.34-.1-.43-.25l-2.21-3.86c-.07-.12-.16-.2-.37-.2h-3.99ZM82.08,220.79h0,0Z" />
      <path class="cls-6"
        d="M105.22,220.3h4.12c.12,0,.22.04.3.13.08.08.13.17.13.24s0,.14-.02.2l-4.49,12.45c-.14.43-.44.64-.88.64h-4.55c-.43,0-.72-.2-.86-.59l-4.53-12.51c-.01-.05-.02-.12-.02-.2s.04-.16.13-.24c.08-.08.19-.13.3-.13h4.12c.23,0,.43.07.58.2.15.14.25.28.3.44l2.24,7.48,2.24-7.48c.12-.43.41-.64.88-.64Z" />
      <path class="cls-5"
        d="M104.38,234.46h-4.55c-.64,0-1.11-.32-1.33-.91l-4.53-12.51c-.04-.14-.05-.24-.05-.36,0-.15.05-.37.27-.6.18-.18.4-.27.65-.27h4.12c.36,0,.67.12.91.33.21.19.36.41.44.65l1.77,5.9,1.77-5.89c.17-.63.67-1,1.35-1h4.12c.25,0,.47.09.65.27.18.18.27.38.27.6,0,.12-.01.22-.03.31,0,.02,0,.03-.01.05l-4.49,12.45c-.21.62-.69.97-1.35.97ZM94.95,220.79l4.49,12.41c.06.17.14.26.39.26h4.55c.23,0,.33-.08.41-.3l4.46-12.36h-4.02c-.27,0-.35.09-.4.28l-2.25,7.49c-.06.21-.26.35-.48.35h0c-.22,0-.41-.14-.48-.35l-2.24-7.48c-.02-.06-.08-.14-.16-.22-.03-.03-.1-.07-.24-.07h-4.02ZM109.34,220.79h0,0Z" />
      <path class="cls-6"
        d="M117.22,230.15h7.79c.14,0,.27.05.37.16.1.1.16.23.16.37v2.75c0,.14-.05.27-.16.37-.1.1-.23.16-.37.16h-12.33c-.14,0-.27-.05-.37-.16-.1-.1-.16-.23-.16-.37v-12.61c0-.14.05-.27.16-.37.1-.1.23-.16.37-.16h12.14c.14,0,.27.05.37.16.1.1.16.23.16.37v2.75c0,.14-.05.27-.16.37-.1.1-.23.16-.37.16h-7.59v1.23h6.52c.14,0,.27.05.37.16.1.1.16.23.16.37v2.54c0,.14-.05.27-.16.37-.1.1-.23.16-.37.16h-6.52v1.23Z" />
      <path class="cls-5"
        d="M125.01,234.46h-12.33c-.28,0-.53-.1-.72-.3-.2-.2-.3-.45-.3-.72v-12.61c0-.28.1-.53.3-.72.2-.2.45-.3.72-.3h12.14c.27,0,.52.1.72.3.2.2.3.45.3.72v2.75c0,.28-.1.53-.3.72-.2.2-.45.3-.72.3h-7.09v.24h6.02c.27,0,.52.1.72.3.2.2.3.45.3.72v2.54c0,.27-.1.52-.3.72-.2.2-.45.3-.72.3h-6.02v.24h7.29c.27,0,.52.1.72.3.2.2.3.45.3.72v2.75c0,.28-.1.53-.3.72-.2.2-.45.3-.72.3ZM112.68,220.79l-.03,12.64,12.36.03.03-2.78-7.82-.03c-.27,0-.5-.22-.5-.5v-1.23c0-.27.22-.5.5-.5h6.52l.03-2.57-6.55-.03c-.27,0-.5-.22-.5-.5v-1.23c0-.27.22-.5.5-.5h7.59l.03-2.78-12.17-.03Z" />
      <path class="cls-6"
        d="M141.47,224.3h-3.53v5.66h3.53c.14,0,.27.05.37.16.1.1.16.23.16.37v2.95c0,.14-.05.27-.16.37-.1.1-.23.16-.37.16h-12.37c-.14,0-.27-.05-.37-.16-.1-.1-.16-.23-.16-.37v-2.95c0-.14.05-.27.16-.37.1-.1.23-.16.37-.16h3.57v-5.66h-3.57c-.14,0-.27-.05-.37-.16-.1-.1-.16-.23-.16-.37v-2.95c0-.14.05-.27.16-.37.1-.1.23-.16.37-.16h12.37c.14,0,.27.05.37.16.1.1.16.23.16.37v2.95c0,.14-.05.27-.16.37-.1.1-.23.16-.37.16Z" />
      <path class="cls-5"
        d="M141.47,234.46h-12.37c-.28,0-.53-.1-.72-.3-.2-.2-.3-.45-.3-.72v-2.95c0-.28.1-.53.3-.72.2-.2.45-.3.72-.3h3.07v-4.67h-3.07c-.28,0-.53-.1-.72-.3-.2-.2-.3-.45-.3-.72v-2.95c0-.28.1-.53.3-.72.2-.2.45-.3.72-.3h12.37c.27,0,.52.1.72.3.2.2.3.45.3.72v2.95c0,.27-.1.52-.3.72-.2.2-.45.3-.72.3h-3.04v4.67h3.04c.27,0,.52.1.72.3.2.2.3.45.3.72v2.95c0,.27-.1.52-.3.72-.2.2-.45.3-.72.3ZM129.09,230.45l-.03,2.98,12.4.03.03-2.98-3.56-.03c-.27,0-.5-.22-.5-.5v-5.66c0-.27.22-.5.5-.5h3.53s0,0,0,0l.02-2.98-12.4-.03-.03,2.98,3.6.03c.27,0,.5.22.5.5v5.66c0,.27-.22.5-.5.5h-3.57Z" />
      <path class="cls-6"
        d="M154.35,220.3h3.63c.14,0,.27.05.37.16.1.1.16.23.16.37v12.61c0,.14-.05.27-.16.37-.1.1-.23.16-.37.16h-3.14c-.31,0-.57-.14-.78-.41l-4.25-5.43v5.31c0,.14-.05.27-.16.37-.1.1-.23.16-.37.16h-3.63c-.14,0-.27-.05-.37-.16-.1-.1-.16-.23-.16-.37v-12.61c0-.14.05-.27.16-.37.1-.1.23-.16.37-.16h3.16c.31,0,.57.13.76.39l4.25,5.87v-5.74c0-.14.05-.27.16-.37.1-.1.23-.16.37-.16Z" />
      <path class="cls-5"
        d="M157.98,234.46h-3.14c-.47,0-.87-.21-1.18-.61l-3.36-4.29v3.87c0,.28-.1.53-.3.72-.2.2-.45.3-.72.3h-3.63c-.28,0-.53-.1-.72-.3-.2-.2-.3-.45-.3-.72v-12.61c0-.28.1-.53.3-.72.2-.2.45-.3.72-.3h3.16c.47,0,.87.2,1.16.59l3.36,4.64v-4.2c0-.28.1-.53.3-.72.2-.2.45-.3.72-.3h3.63c.27,0,.52.1.72.3.2.2.3.45.3.72v12.61c0,.28-.1.53-.3.72-.2.2-.45.3-.72.3ZM149.8,227.63c.15,0,.3.07.39.19l4.25,5.43c.15.19.28.22.39.22h3.14l.03-12.64-3.66-.03s0,0,0,0l-.02,5.77c0,.22-.14.41-.34.47-.21.07-.43,0-.56-.18l-4.25-5.87c-.1-.13-.2-.18-.36-.18h-3.16l-.03,12.64,3.66.03.03-5.34c0-.21.13-.4.33-.47.05-.02.11-.03.16-.03Z" />
      <path class="cls-6"
        d="M174.09,226.71c.9.65,1.36,1.62,1.36,2.91s-.66,2.34-1.97,3.15c-1.31.8-3.06,1.21-5.23,1.21s-3.86-.4-5.06-1.19c-1.2-.79-1.81-1.77-1.81-2.93,0-.28.15-.43.45-.43h4c.27,0,.49.08.66.24.36.33,1,.5,1.89.5,1.24,0,1.85-.18,1.85-.55,0-.23-.2-.41-.59-.54-.39-.13-1.16-.26-2.32-.39-3.68-.43-5.52-1.79-5.52-4.09,0-1.29.59-2.34,1.78-3.14,1.18-.8,2.77-1.2,4.75-1.2s3.59.43,4.81,1.29c1.22.86,1.83,1.76,1.83,2.72,0,.13-.04.23-.13.31-.08.08-.2.12-.34.12h-4.2c-.23,0-.44-.07-.6-.22-.31-.27-.78-.41-1.41-.41-.87,0-1.31.18-1.31.53,0,.19.17.34.51.44.34.11,1.02.22,2.03.33,2.13.24,3.65.68,4.56,1.33Z" />
      <path class="cls-5"
        d="M168.24,234.48c-2.26,0-4.06-.43-5.34-1.27-1.35-.89-2.03-2.01-2.03-3.34,0-.56.37-.92.95-.92h3.89c-2.93-.66-4.41-2.11-4.41-4.32,0-1.46.67-2.66,2-3.55,1.26-.85,2.95-1.28,5.03-1.28s3.79.46,5.1,1.38c1.36.95,2.05,2.01,2.05,3.13,0,.27-.1.5-.29.68-.12.11-.34.25-.68.25h-2.93c1.21.26,2.14.63,2.8,1.1h0c1.04.74,1.56,1.86,1.56,3.32s-.74,2.67-2.21,3.57c-1.39.85-3.23,1.28-5.49,1.28ZM161.87,229.93c.03.97.55,1.76,1.58,2.44,1.11.73,2.73,1.11,4.79,1.11s3.74-.38,4.97-1.13c1.17-.71,1.73-1.6,1.73-2.72s-.38-1.95-1.15-2.51c-.83-.59-2.29-1.01-4.32-1.24-1.06-.12-1.75-.23-2.12-.35-.71-.22-.86-.62-.86-.92,0-.68.61-1.02,1.8-1.02.74,0,1.33.18,1.73.53.08.07.17.1.28.1h4.17c-.03-.76-.58-1.51-1.62-2.24-1.13-.79-2.66-1.2-4.53-1.2s-3.38.37-4.47,1.11c-1.05.71-1.56,1.6-1.56,2.73,0,2.02,1.66,3.2,5.08,3.6,1.2.13,2,.26,2.42.41.76.26.92.69.92,1.01,0,1.04-1.65,1.04-2.35,1.04-1.04,0-1.77-.21-2.23-.63-.05-.05-.14-.11-.33-.11h-3.95ZM166.51,229.09c.11.06.22.13.31.22.18.16.6.36,1.55.36.61,0,.97-.05,1.17-.09-.02,0-.04-.01-.06-.02-.24-.08-.83-.21-2.22-.36-.26-.03-.51-.07-.76-.1ZM167.77,224.61c.25.06.72.15,1.62.25,0,0,0,0,0,0-.22-.19-.58-.28-1.08-.28-.23,0-.41.01-.53.03Z" />
      <path class="cls-1"
        d="M7.9,167.09c-.27,0-.5-.22-.5-.5v-81.39c0-.27.22-.5.5-.5h18.6c.27,0,.5.22.5.5v9.06c0,.27-.22.5-.5.5h-8.75v6.4h8.27c.27,0,.5.22.5.5v8.95c0,.27-.22.5-.5.5h-8.27v55.48c0,.27-.22.5-.5.5H7.9Z" />
      <path class="cls-5"
        d="M26.5,85.2v9.06h-9.25v7.4h8.77v8.95h-8.77v55.98H7.9v-81.39h18.6ZM26.5,84.21H7.9c-.55,0-.99.45-.99.99v81.39c0,.55.45.99.99.99h9.35c.55,0,.99-.45.99-.99v-54.99h7.78c.55,0,.99-.45.99-.99v-8.95c0-.55-.45-.99-.99-.99h-7.78v-5.41h8.25c.55,0,.99-.45.99-.99v-9.06c0-.55-.45-.99-.99-.99h0Z" />
      <path class="cls-1"
        d="M40.58,132.61c-3.85,0-6.84-1.19-8.89-3.54-2.04-2.33-3.07-5.71-3.07-10.06v-22.08c0-4.09,1.03-7.26,3.05-9.4,2.03-2.15,5.03-3.25,8.91-3.25s6.87,1.09,8.91,3.25c2.03,2.15,3.05,5.31,3.05,9.4v22.08c0,4.35-1.03,7.73-3.07,10.06-2.05,2.35-5.05,3.54-8.89,3.54ZM40.71,93.83c-.5,0-1.83,0-1.83,3.02v22.67c0,1.35.16,2.31.46,2.86.26.47.68.68,1.31.68,1.07,0,1.62-1.21,1.62-3.6v-22.69c0-2.94-1.18-2.94-1.56-2.94Z" />
      <path class="cls-5"
        d="M40.58,84.78c3.75,0,6.6,1.03,8.55,3.09,1.95,2.06,2.92,5.08,2.92,9.06v22.08c0,4.24-.98,7.49-2.95,9.73-1.96,2.25-4.8,3.37-8.52,3.37s-6.56-1.12-8.52-3.37c-1.96-2.25-2.95-5.49-2.95-9.73v-22.08c0-3.98.97-7,2.92-9.06,1.95-2.06,4.79-3.09,8.55-3.09h0ZM40.66,123.56c1.41,0,2.11-1.36,2.11-4.09v-22.69c0-2.29-.69-3.43-2.06-3.43-1.55,0-2.32,1.17-2.32,3.51v22.67c0,1.44.18,2.48.53,3.1.35.63.93.94,1.74.94h0ZM40.58,83.78c-4.02,0-7.14,1.14-9.27,3.4-2.12,2.24-3.19,5.52-3.19,9.74v22.08c0,4.47,1.07,7.97,3.19,10.39,2.15,2.46,5.27,3.71,9.27,3.71s7.12-1.25,9.27-3.71c2.12-2.42,3.19-5.92,3.19-10.39v-22.08c0-4.22-1.07-7.5-3.19-9.74-2.13-2.26-5.25-3.4-9.27-3.4h0ZM40.66,122.56c-.56,0-.75-.21-.88-.43-.15-.27-.4-.96-.4-2.62v-22.67c0-2.52.93-2.52,1.33-2.52.26,0,1.07,0,1.07,2.44v22.69c0,1.41-.19,3.1-1.12,3.1h0Z" />
      <path class="cls-1"
        d="M68.72,151.92c-.27,0-.5-.22-.5-.5v-37.93c0-1.13-.21-1.87-.59-2.09-.29-.17-.85-.36-1.93-.41v40.43c0,.27-.22.5-.5.5h-9.4c-.27,0-.5-.22-.5-.5v-66.22c0-.27.22-.5.5-.5h14.26c2.49,0,4.42.59,5.72,1.75,1.29,1.15,2.16,2.77,2.6,4.81.42,1.97.63,4.31.63,6.96s-.34,4.7-1,6.27c-.53,1.25-1.43,2.22-2.67,2.89.94.44,1.64,1.11,2.1,2.01.62,1.22.94,2.8.94,4.7v37.32c0,.27-.22.5-.5.5h-9.17ZM67.5,101.93c1.18,0,1.43-2.01,1.43-3.7,0-2.15-.2-3.01-.37-3.34-.12-.24-.37-.57-1.14-.57h-1.67v7.62h1.75Z" />
      <path class="cls-5"
        d="M70.06,85.2c2.38,0,4.17.54,5.39,1.62,1.22,1.08,2.03,2.6,2.44,4.54.41,1.95.62,4.23.62,6.85s-.32,4.56-.96,6.08c-.64,1.52-1.85,2.56-3.63,3.14,1.46.3,2.49,1.03,3.08,2.18.59,1.15.89,2.65.89,4.48v37.32h-9.17v-37.93c0-1.36-.28-2.2-.83-2.52-.55-.33-1.45-.49-2.68-.49v40.94h-9.4v-66.22h14.26ZM65.25,102.42h2.25c1.29,0,1.93-1.4,1.93-4.2,0-1.81-.14-3-.42-3.57-.28-.56-.81-.85-1.59-.85h-2.17v8.61h0ZM70.06,84.21h-14.26c-.55,0-.99.45-.99.99v66.22c0,.55.45.99.99.99h9.4c.55,0,.99-.45.99-.99v-39.9c.68.07,1.02.21,1.18.31.09.06.34.46.34,1.66v37.93c0,.55.45.99.99.99h9.17c.55,0,.99-.45.99-.99v-37.32c0-1.98-.33-3.64-.99-4.93-.38-.74-.91-1.35-1.57-1.8.97-.68,1.69-1.58,2.15-2.68.69-1.63,1.04-3.81,1.04-6.46s-.22-5.06-.64-7.06c-.46-2.15-1.38-3.86-2.75-5.08-1.4-1.25-3.43-1.88-6.05-1.88h0ZM66.25,94.81h1.17c.55,0,.64.19.7.3.1.19.32.88.32,3.12,0,1.55-.25,3.21-.93,3.21h-1.25v-6.62h0Z" />
      <path class="cls-1"
        d="M81.58,152.65c-.27,0-.5-.22-.5-.5v-66.95c0-.27.22-.5.5-.5h18.6c.27,0,.5.22.5.5v8.98c0,.27-.22.5-.5.5h-8.64v8.07h8.27c.27,0,.5.22.5.5v8.74c0,.27-.22.5-.5.5h-8.27v30.11h9.25c.27,0,.5.22.5.5v9.06c0,.27-.22.5-.5.5h-19.2Z" />
      <path class="cls-5"
        d="M100.18,85.2v8.98h-9.14v9.06h8.77v8.74h-8.77v31.11h9.75v9.06h-19.2v-66.95h18.6ZM100.18,84.21h-18.6c-.55,0-.99.45-.99.99v66.95c0,.55.45.99.99.99h19.2c.55,0,.99-.45.99-.99v-9.06c0-.55-.45-.99-.99-.99h-8.75v-29.12h7.78c.55,0,.99-.45.99-.99v-8.74c0-.55-.45-.99-.99-.99h-7.78v-7.07h8.15c.55,0,.99-.45.99-.99v-8.98c0-.55-.45-.99-.99-.99h0Z" />
      <path class="cls-1"
        d="M108.13,132.19c-.25,0-.46-.19-.49-.44l-5.73-46.52c-.02-.14.03-.28.12-.39.09-.11.23-.17.37-.17h8.85c.25,0,.47.19.49.44l2.89,26.79,2.57-26.79c.02-.25.24-.45.49-.45h8.85c.14,0,.28.06.37.17.09.11.14.25.12.39l-5.73,46.52c-.03.25-.24.44-.49.44h-12.68Z" />
      <path class="cls-5"
        d="M126.54,85.17l-5.73,46.52h-12.68l-5.73-46.52h8.85l3.41,31.65,3.04-31.65h8.85ZM126.54,84.18h-8.85c-.51,0-.94.39-.99.9l-2.1,21.93-2.36-21.94c-.05-.5-.48-.89-.99-.89h-8.85c-.28,0-.56.12-.74.34-.19.21-.28.5-.24.78l5.73,46.52c.06.5.48.87.99.87h12.68c.5,0,.93-.37.99-.87l5.73-46.52c.03-.28-.05-.57-.24-.78-.19-.21-.46-.34-.74-.34h0ZM126.54,86.17h0,0Z" />
      <path class="cls-1"
        d="M129.23,132.19c-.27,0-.5-.22-.5-.5v-46.49c0-.27.22-.5.5-.5h18.6c.27,0,.5.22.5.5v8.98c0,.27-.22.5-.5.5h-8.64v8.07h8.27c.27,0,.5.22.5.5v8.74c0,.27-.22.5-.5.5h-8.27v9.65h9.25c.27,0,.5.22.5.5v9.06c0,.27-.22.5-.5.5h-19.2Z" />
      <path class="cls-5"
        d="M147.83,85.2v8.98h-9.14v9.06h8.77v8.74h-8.77v10.65h9.75v9.06h-19.2v-46.49h18.6ZM147.83,84.21h-18.6c-.55,0-.99.45-.99.99v46.49c0,.55.45.99.99.99h19.2c.55,0,.99-.45.99-.99v-9.06c0-.55-.45-.99-.99-.99h-8.75v-8.66h7.78c.55,0,.99-.45.99-.99v-8.74c0-.55-.45-.99-.99-.99h-7.78v-7.07h8.15c.55,0,.99-.45.99-.99v-8.98c0-.55-.45-.99-.99-.99h0Z" />
      <path class="cls-1"
        d="M164.42,159.98c-.27,0-.5-.22-.5-.5v-45.99c0-1.13-.21-1.87-.59-2.09-.29-.17-.85-.36-1.93-.41v20.7c0,.27-.22.5-.5.5h-9.4c-.27,0-.5-.22-.5-.5v-46.49c0-.27.22-.5.5-.5h14.26c2.49,0,4.42.59,5.72,1.75,1.29,1.15,2.16,2.77,2.6,4.81.42,1.97.63,4.31.63,6.96s-.34,4.7-1,6.27c-.53,1.25-1.43,2.22-2.67,2.89.94.44,1.64,1.11,2.1,2.01.62,1.22.94,2.8.94,4.7v45.38c0,.27-.22.5-.5.5h-9.17ZM163.21,101.93c1.18,0,1.43-2.01,1.43-3.7,0-2.15-.2-3.01-.37-3.34-.12-.24-.37-.57-1.14-.57h-1.67v7.62h1.75Z" />
      <path class="cls-5"
        d="M165.77,85.2c2.38,0,4.17.54,5.39,1.62,1.22,1.08,2.03,2.6,2.44,4.54.41,1.95.62,4.23.62,6.85s-.32,4.56-.96,6.08c-.64,1.52-1.85,2.56-3.63,3.14,1.46.3,2.49,1.03,3.08,2.18.59,1.15.88,2.65.88,4.48v45.38h-9.17v-45.99c0-1.36-.28-2.2-.83-2.52-.55-.33-1.45-.49-2.68-.49v21.21h-9.4v-46.49h14.26ZM160.96,102.42h2.25c1.29,0,1.93-1.4,1.93-4.2,0-1.81-.14-3-.42-3.57-.28-.56-.81-.85-1.59-.85h-2.17v8.61h0ZM165.77,84.21h-14.26c-.55,0-.99.45-.99.99v46.49c0,.55.45.99.99.99h9.4c.55,0,.99-.45.99-.99v-20.17c.68.07,1.02.21,1.18.31.09.06.34.46.34,1.66v45.99c0,.55.45.99.99.99h9.17c.55,0,.99-.45.99-.99v-45.38c0-1.98-.33-3.64-.99-4.93-.38-.74-.91-1.35-1.57-1.8.97-.68,1.69-1.58,2.15-2.68.69-1.63,1.04-3.81,1.04-6.46s-.22-5.05-.64-7.06c-.46-2.15-1.38-3.86-2.75-5.08-1.4-1.25-3.43-1.88-6.05-1.88h0ZM161.95,94.81h1.17c.55,0,.64.19.7.3.1.19.32.88.32,3.12,0,1.55-.25,3.21-.93,3.21h-1.25v-6.62h0Z" />
      <path class="cls-2"
        d="M177.86,146.55c-5.47-14.1-17.91-24.48-33.28-27.75-3.3-.7-6.67-1.06-10.02-1.06-13.27,0-26.23,5.57-36.47,15.65-2,1.88-4.15,4.48-6.84,7.97-2.78-3.37-5.23-6.01-7.46-8.02-10.26-10.06-23.19-15.59-36.42-15.59-3.34,0-6.71.35-10.02,1.06-15.37,3.27-27.81,13.64-33.28,27.75-6.37,16.43-3.74,35.74,6.71,49.19,8.97,11.55,22,17.66,37.66,17.66,2.39,0,4.85-.15,7.29-.44,10.86-1.19,21.79-8.52,35.3-23.71,8.9,10.52,20.77,22.22,35.14,23.71,2.46.29,4.91.44,7.29.44,15.67,0,28.69-6.11,37.67-17.66,10.45-13.46,13.08-32.77,6.71-49.19ZM147.82,177.62c-3.21,4.14-8.05,6.24-14.38,6.24-1.22,0-2.52-.08-3.88-.25l-.25-.03c-1.3-.13-6.49-1.81-19.39-17.94l.07-.1c2.5-3.34,7.16-9.55,8.34-10.63l.37-.36c6.06-6.01,11.98-7.27,15.88-7.27,1.31,0,2.61.14,3.87.4,5.51,1.17,10.06,4.83,11.89,9.54,2.66,6.85,1.65,15.04-2.5,20.39ZM52.32,183.62c-1.33.16-2.62.24-3.84.24-6.22,0-11.19-2.16-14.36-6.24-4.15-5.35-5.16-13.54-2.5-20.39,1.83-4.71,6.38-8.37,11.89-9.54,1.25-.27,2.55-.4,3.86-.4,3.9,0,9.82,1.27,15.92,7.32l.53.5c2.41,2.15,5.73,6.31,8.77,10.3-14.05,16.76-19.18,18.1-20.08,18.19l-.2.02Z" />
      <path class="cls-7"
        d="M48.45,209.42c-14.39,0-26.33-5.58-34.52-16.12-9.61-12.38-12.02-30.16-6.15-45.31,4.98-12.85,16.35-22.3,30.4-25.3,3.03-.64,6.12-.97,9.19-.97,12.2,0,24.17,5.15,33.69,14.51,3.51,3.17,7.11,7.54,10.26,11.6,4.11-5.47,7.07-9.27,9.51-11.56,9.51-9.38,21.49-14.55,33.72-14.55,3.07,0,6.17.33,9.19.97,14.05,2.99,25.42,12.45,30.4,25.3,5.88,15.15,3.47,32.94-6.14,45.31-8.19,10.55-20.13,16.12-34.53,16.12-2.22,0-4.52-.14-6.82-.41-13.8-1.43-25.67-13.73-35.53-25.91-14.22,16.75-25.3,24.75-35.82,25.91-2.31.28-4.62.42-6.86.42ZM47.38,143.31c-1.59,0-3.17.16-4.69.49-6.8,1.45-12.46,6.04-14.77,11.99-3.14,8.1-1.91,17.86,3.07,24.27,3.95,5.09,10,7.78,17.5,7.78h0c1.38,0,2.84-.09,4.32-.27l.15-.02c3.37-.36,10.38-4.49,24.73-22.04-4.03-5.34-8.15-10.66-11.2-13.38l-.4-.38c-7.04-6.98-14.05-8.45-18.7-8.45ZM104.89,165.7c4.65,5.97,16.69,21.11,24.02,21.84l.22.02c1.49.18,2.93.27,4.31.27,7.62,0,13.52-2.62,17.52-7.78,4.98-6.41,6.21-16.17,3.07-24.27-2.31-5.95-7.97-10.54-14.77-11.99-1.52-.32-3.1-.49-4.69-.49-4.65,0-11.66,1.46-18.68,8.43l-.28.27c-1.42,1.31-5.52,6.77-8.81,11.16-.64.85-1.27,1.7-1.91,2.54Z" />
      <path class="cls-5"
        d="M134.56,122.85c2.98,0,5.98.31,8.96.95,13.67,2.91,24.73,12.1,29.58,24.59,5.74,14.79,3.39,32.14-5.98,44.21-7.96,10.24-19.73,15.68-33.63,15.68-2.18,0-4.41-.13-6.69-.4-13.17-1.36-24.96-13.22-35.64-26.57-12.08,14.4-24.02,25.25-35.96,26.56-2.29.27-4.54.41-6.73.41-13.89,0-25.67-5.44-33.62-15.68-9.37-12.07-11.72-29.42-5.98-44.21,4.84-12.49,15.9-21.68,29.58-24.59,2.98-.63,5.97-.94,8.95-.94,11.86,0,23.48,4.94,32.89,14.18,3.49,3.15,7.12,7.53,11.07,12.66,4.81-6.4,7.78-10.27,10.27-12.6,9.42-9.29,21.06-14.25,32.95-14.25h0ZM48.48,188.98c1.43,0,2.92-.09,4.45-.28h.13c6.52-.71,17.19-12.25,26.05-23.16-4.54-6.04-8.74-11.45-11.89-14.25l-.38-.36c-7.1-7.04-14.22-8.75-19.47-8.75-1.93,0-3.6.23-4.93.51-7.17,1.53-13.15,6.39-15.59,12.69-3.28,8.46-1.98,18.66,3.23,25.38,4.2,5.41,10.51,8.22,18.4,8.22h0ZM133.44,188.97c7.9,0,14.21-2.8,18.42-8.21,5.22-6.72,6.51-16.92,3.23-25.38-2.44-6.3-8.42-11.16-15.59-12.69-1.33-.28-3-.51-4.93-.51-5.25,0-12.38,1.71-19.48,8.75l-.27.26c-1.48,1.36-5.44,6.64-8.93,11.3-.81,1.08-1.62,2.16-2.43,3.23,8.42,10.83,18.4,22.27,25.34,22.96l.21.02c1.53.18,3.01.27,4.43.27h0ZM134.56,120.58c-12.52,0-24.78,5.28-34.52,14.88-2.33,2.19-4.96,5.52-8.73,10.5-2.95-3.74-6.23-7.63-9.48-10.58-9.73-9.55-21.96-14.8-34.45-14.8-3.15,0-6.32.33-9.42.99-14.43,3.07-26.1,12.79-31.22,25.99-6.02,15.52-3.54,33.74,6.31,46.42,8.42,10.84,20.66,16.56,35.41,16.56,2.29,0,4.64-.14,7-.43,10.58-1.16,21.64-8.98,35.65-25.26,9.84,12.01,21.63,23.84,35.45,25.27,2.32.28,4.66.42,6.92.42,14.76,0,27.01-5.73,35.42-16.56,9.85-12.69,12.33-30.91,6.31-46.42-5.12-13.21-16.79-22.92-31.22-25.99-3.11-.66-6.28-1-9.43-1h0ZM48.48,186.7c-7.23,0-12.82-2.47-16.6-7.34-4.74-6.11-5.91-15.42-2.91-23.16,2.17-5.6,7.51-9.92,13.95-11.29,1.45-.31,2.95-.46,4.46-.46,4.43,0,11.13,1.4,17.87,8.1.01.01.03.03.04.04l.38.36s.03.03.05.04c2.83,2.52,6.82,7.61,10.51,12.5-14.45,17.55-20.85,20.67-23.4,20.94h-.14c-1.46.19-2.87.28-4.21.28h0ZM106.32,165.69c.46-.61.92-1.23,1.39-1.85,3.09-4.12,7.32-9.77,8.65-10.99l.3-.29c5.45-5.4,11.46-8.13,17.91-8.13,1.51,0,3.01.16,4.46.46,6.43,1.37,11.78,5.69,13.95,11.29,3,7.75,1.84,17.05-2.91,23.16-3.78,4.87-9.37,7.34-16.63,7.34-1.33,0-2.73-.09-4.16-.26l-.23-.03c-6.63-.66-17.82-14.46-22.72-20.72h0Z" />
      <path class="cls-1"
        d="M151.86,180.76c-4.97,6.4-12.87,9.14-22.85,7.94l-.21-.02c7.28,3.3,21.7,1.58,27.38-8.64,4.99-8.62,5.12-20.47-2.13-26.88.4.72.74,1.46,1.04,2.22,3.28,8.46,1.98,18.66-3.23,25.38Z" />
      <path class="cls-1"
        d="M162.42,133.92c.56.25,1.1.54,1.64.82-5.48-5.39-12.56-9.24-20.54-10.94-14.86-3.16-30.12,1.69-41.9,13.3,20.7-14.82,43.24-16.25,60.81-3.18Z" />
      <path class="cls-4"
        d="M103.46,165.71s1.62-2.15,2.43-3.23c1.28-1.71,2.62-3.5,3.88-5.15-5.24-4.25-9.67-9.31-12.67-15.15-1.6,2.01-5.76,7.52-5.76,7.52l-12.22,15.84s-5.39,6.49-8.17,9.53c5.87,2.66,11.18,6.71,15.61,11.54,1.53-1.7,4.65-5.21,4.65-5.21l12.24-15.68Z" />
      <path class="cls-7"
        d="M104.33,166.83c-.29-.37-.59-.75-.88-1.12l-12.12-16.01c-3.95-5.13-7.57-9.51-11.07-12.66-10.39-10.21-23.47-15.16-36.6-14.01l-.96,19.61c1.28-.26,2.86-.46,4.66-.46,5.25,0,12.38,1.71,19.47,8.75l.38.36c3.15,2.8,7.35,8.22,11.89,14.25l12.03,15.77c3.23,4.03,6.56,7.92,9.99,11.43l11.44-3.77,9.74-3.21c-5.67-4-12.15-11.51-17.98-18.94Z" />
      <path class="cls-1"
        d="M53.07,188.68h-.13c-9.98,1.23-17.88-1.53-22.85-7.92-.95-1.22-1.76-2.56-2.45-3.98.34,3.47,5.63,13.87,18.65,14.48,15.36.72,21.13-12,21.35-12.69-5.48,5.56-10.74,9.71-14.57,10.12Z" />
      <path class="cls-1"
        d="M29.6,128.64c39.7-15.23,53.14,15.68,74.04,36.83.32-.43.65-.86.97-1.29,0,0-13.07-14.7-13.1-14.74-3.91-5.06-7.78-9.27-11.24-12.39-11.77-11.57-27.01-16.39-41.84-13.24-13.68,2.91-24.73,12.1-29.58,24.59-4.09,10.56-4.05,22.41-.29,32.72-5.49-20.4,2.28-45.29,21.04-52.48Z" />
      <polygon class="cls-5"
        points="91.15 181.31 79.12 165.54 77.81 163.8 76.24 165.48 91.1 184.81 92.29 182.72 91.15 181.31" />
      <path class="cls-5"
        d="M106.3,165.58l-14.96-19.51c-.21-.28-.83,2.01-1.05,2.29l1.05,1.35,12.12,16.01c.29.37.58.74.88,1.12,0,0,2.31-.82,1.97-1.26Z" />
      <path class="cls-7"
        d="M12.06,186.6s-1.46,39.36,4.26,39.37c5.72,0,5.25-26.52,5.45-26.37.2.15.67,17.32,3.86,15.72,3.19-1.6,3.33-12.37,3.33-12.37l-16.9-16.35Z" />
      <path class="cls-7"
        d="M107.19,196.43s-.1,3.89-.14,8.25c-.05,5.55-.29,11.85-3.04,11.84-4.92,0-4.92-29.92-4.92-29.92,0,0,.27,23-3.86,23.4-4.12.4-3.32-28.12-3.32-28.12,0,0,7.23.27,7.61.69.38.41,7.67,13.86,7.67,13.86Z" />
      <path class="cls-1"
        d="M91.91,181.89s-.81,28.51,3.32,28.12c.27-.03.52-.15.75-.36-1.65-5.45-2.3-20.89-2.94-27.2-.1-.78-1.12-.56-1.12-.56Z" />
      <path class="cls-1"
        d="M100.11,186.91s-1.03-.09-1.03.31c.03,4.23.41,29.29,4.92,29.3.23,0,.44-.06.63-.14-2.78-8.6-4.52-29.47-4.52-29.47Z" />
      <path class="cls-1" d="M99.09,187.22c0-.39,0-.62,0-.62,0,0,0,.23,0,.62Z" />
      <path class="cls-7"
        d="M126.91,206.07s.64,12.02-2.68,12.32c-2.44.22-3.19-4.43-3.56-8.38-.25-2.72-.37-4.32-.37-4.54l6.6.6Z" />
      <path class="cls-7"
        d="M143.89,204.99c.54,8.66,2.12,26.26,6.13,26.06,5.32-.27,2.68-31.69,2.68-31.69l-8.81,5.63Z" />
      <path class="cls-7" d="M34.93,142.18c0,1.35-1.09,24.65,5.44,24.65s2.34-28.73,2.34-28.73l-7.78,4.09Z" />
      <path class="cls-1"
        d="M34.91,149.84c.21,7.25,1.24,16.99,5.46,16.99,1.41,0,2.32-1.34,2.88-3.45-3.64-2.95-6.52-11.72-7.38-21.36-.07-.74-.78,8.54-.96,7.81Z" />
      <path class="cls-7"
        d="M139.23,141.44s.4,6.56-2.53,6.7c-2.93.13-3.84-8.45-3.78-8.53h-.17s1.56,12.7-4.73,13.02c-4.77.45-5.7-8.76-5.7-8.76l10.52-7.52,6.4,5.08Z" />
      <path class="cls-1"
        d="M120.31,205.47c0,.22.11,1.81.37,4.54.37,3.95,1.11,8.6,3.56,8.38.12-.01.23-.04.34-.08-.91-3.01-2.62-10.02-3.15-12.98-.25-.73-1.12.15-1.12.15Z" />
      <path class="cls-1"
        d="M143.89,204.99c.54,8.66,2.12,26.26,6.13,26.06,1.03-.05,1.76-1.28,2.27-3.22-3.03.49-5.58-12.96-7.25-22.87-.1-.57-1.25-.43-1.16.04Z" />
      <path class="cls-1"
        d="M122.31,143.88s.93,9.2,5.7,8.76c.45-.02.85-.11,1.22-.25-2.2-.45-4.55-6.64-5.85-8.96-.5-.9-1.08.46-1.08.46Z" />
      <path class="cls-1"
        d="M134.02,139.29l-1.11.32c-.05.08.85,8.66,3.78,8.53.26-.01.49-.09.7-.19-.47-3.09-3.38-8.65-3.38-8.65Z" />
      <path class="cls-7" d="M44.68,206.29c0,.37-.55,8.82,3.54,8.14,4.09-.68,3.27-8.14,3.27-8.14h-6.81Z" />
      <path class="cls-1"
        d="M44.68,206.29c0,.37-.55,8.82,3.54,8.14.46-.08.86-.25,1.2-.48-1.89-.61-2.9-5.61-3.67-7.65-.32-.85-1.07,0-1.07,0Z" />
      <path class="cls-1"
        d="M22.01,202.24c.36,4.78,1.22,14.29,3.63,13.08.65-.32,1.16-1.03,1.58-1.94-2.21-3.22-2.95-10.25-3.67-13.2-.14-.56-.85-1.9-1.5-1.5-.65.41-.13,2.91-.05,3.56Z" />
      <path class="cls-1"
        d="M12.18,209.36c.46,8.71,1.58,16.61,4.14,16.61,1.2,0,2.13-1.18,2.85-3.03-3.06-2.8-5.45-31.8-6.09-32.65-.65-.85-1.33,14.86-.89,19.07Z" />
      <path class="cls-7" d="M165.54,188.31c.07.4-1.12,21.95,3.4,21.16,4.52-.8,2.93-29.14,2.93-29.14l-6.33,7.98Z" />
      <path class="cls-1"
        d="M165.54,188.31c.07.4-1.12,21.95,3.4,21.16.75-.13,1.33-1.04,1.78-2.44-2.67.54-3.57-13.82-4.15-18.72-.14-1.2-1.03,0-1.03,0Z" />
      <path class="cls-5"
        d="M16.33,227.1c-.45.02-1.2-.15-1.89-.87-4.66-4.85-3.64-36.13-3.51-39.68.02-.63.53-1.12,1.18-1.09.63.02,1.12.55,1.09,1.18-.48,13.04-.13,34.89,2.87,38.02.1.1.2.17.25.17h0c.87,0,3.74-1.7,4.24-23.54.05-2.22.05-2.4.71-2.72.38-.18.84-.14,1.18.12.44.33.45.42.6,2.54.72,9.78,1.64,12.37,2.2,12.99,1.66-1.14,2.51-7.33,2.56-11.29,0-.62.52-1.12,1.14-1.12h.01c.63,0,1.13.52,1.12,1.15-.02,1.91-.33,11.56-3.95,13.38-.62.31-1.29.3-1.88-.04-.83-.47-1.48-1.59-2-3.61-.91,9.99-2.79,14.41-5.93,14.41Z" />
      <path class="cls-5"
        d="M95.14,211.14c-.41,0-.94-.12-1.46-.61-3.45-3.22-3.03-24.45-2.91-28.68.02-.63.54-1.12,1.17-1.1.63.02,1.12.54,1.1,1.17-.34,11.98.44,25.52,2.15,26.93,1.58-.67,2.89-11.12,2.76-22.23,0-.63.5-1.14,1.12-1.15h.01c.62,0,1.13.5,1.14,1.12.1,8.98-.39,24.11-4.89,24.54-.06,0-.13,0-.2,0ZM95.26,208.9h.01-.01Z" />
      <path class="cls-5"
        d="M104.01,217.66h0c-5.27,0-6.06-19.46-6.06-31.05,0-.63.51-1.14,1.14-1.14s1.14.51,1.14,1.14c0,16.47,2,28.78,3.79,28.78h0c1.19,0,1.83-3.61,1.9-10.72.04-4.37.14-8.27.14-8.27.02-.63.54-1.16,1.16-1.11.63.02,1.12.54,1.11,1.16,0,0-.1,3.88-.14,8.23-.07,6.83-.44,12.97-4.17,12.97Z" />
      <path class="cls-5"
        d="M124.04,219.53c-3.62,0-4.21-6.33-4.5-9.42-.23-2.5-.37-4.33-.37-4.64,0-.63.51-1.14,1.14-1.14s1.14.51,1.14,1.14c0,.16.1,1.58.36,4.43.63,6.76,1.81,7.4,2.32,7.35,1.13-.1,1.94-5.61,1.65-11.13-.03-.63.45-1.16,1.07-1.19.63-.03,1.16.45,1.19,1.07.21,3.94.27,13.15-3.71,13.51-.1,0-.2.01-.29.01Z" />
      <path class="cls-5"
        d="M149.79,232.19c-1.71,0-5.44-1.3-7.03-27.13-.04-.63.44-1.16,1.06-1.2.63-.02,1.17.44,1.2,1.06,1.27,20.53,3.97,25,4.93,25,0,0,.01,0,.02,0,.1,0,.22-.12.31-.21,2.55-2.92,2.15-20.1,1.29-30.24-.05-.63.41-1.17,1.04-1.23.64-.07,1.17.41,1.23,1.04.23,2.78,2.17,27.33-1.85,31.93-.67.77-1.41.96-1.9.99-.09,0-.19,0-.29,0Z" />
      <path class="cls-5"
        d="M168.69,210.63c-.59,0-1.15-.21-1.63-.63-2.16-1.86-3.01-8.45-2.68-20.73.01-.44.02-.74.02-.86-.05-.57.35-1.1.93-1.21.62-.12,1.21.3,1.32.91.03.16.03.24,0,1.21-.41,15.28,1.18,18.34,1.89,18.95.1.09.14.08.19.08,1.87-.48,2.8-13.55,1.99-27.96-.03-.63.44-1.16,1.07-1.2.63-.03,1.16.44,1.2,1.07.5,8.82,1.12,29.44-3.86,30.32-.15.03-.3.04-.44.04Z" />
      <path class="cls-5"
        d="M40.37,167.97c-1.07,0-2.03-.43-2.85-1.27-3.51-3.6-3.97-15.02-3.73-23.97,0-.27.01-.45.01-.54,0-.63.51-1.14,1.14-1.14s1.14.51,1.14,1.14c0,.1,0,.3-.01.6-.44,16.83,2.01,21.22,3.09,22.32.51.53.95.59,1.23.59.2,0,.48-.05.81-.43,2.71-3.13,1.69-18.23.41-27.01-.09-.62.34-1.2.96-1.29.61-.1,1.2.34,1.29.96.35,2.43,3.33,23.88-.94,28.82-.69.79-1.56,1.21-2.52,1.21Z" />
      <path class="cls-5"
        d="M127.62,153.79c-5.38,0-6.39-9.39-6.43-9.8-.06-.62.39-1.18,1.02-1.24.62-.08,1.18.39,1.24,1.01.22,2.1,1.5,8.01,4.46,7.74.89-.05,1.57-.39,2.12-1.05,2.08-2.47,1.85-8.56,1.59-10.71-.08-.62.37-1.19.99-1.26.63-.08,1.19.37,1.27.99.04.35,1.03,8.71-2.11,12.44-.97,1.15-2.21,1.78-3.7,1.85-.15.01-.31.02-.45.02Z" />
      <path class="cls-5"
        d="M136.64,149.28c-.82,0-1.95-.38-2.91-2.1-1.08-1.92-2.34-7.31-1.75-8.2.35-.52,1.06-.66,1.58-.31.34.23.52.61.5.99.05,1.13.85,5.9,2.2,7.14.22.21.35.2.4.2.14,0,.3-.04.5-.26.86-.96,1.04-3.72.95-5.23-.04-.63.44-1.16,1.06-1.2.62,0,1.16.44,1.2,1.06.03.5.25,4.92-1.52,6.89-.56.63-1.28.98-2.09,1.01-.04,0-.08,0-.12,0Z" />
      <path class="cls-5"
        d="M47.77,215.6c-.82,0-1.56-.28-2.18-.82-1.89-1.66-2.16-5.49-2.05-8.4,0-.63.51-1.18,1.14-1.18s1.14.46,1.14,1.09v.17c-.13,3.28.36,5.81,1.27,6.61.18.16.44.31.94.23,2.93-.49,2.34-6.83,2.33-6.89-.07-.62.38-1.18,1.01-1.25.62-.07,1.18.38,1.25,1.01.04.35.87,8.53-4.21,9.38-.22.04-.43.05-.64.05Z" />
      <path class="cls-5"
        d="M78.8,196.78c-.15,0-.31-.06-.42-.18l-3.88-4.24c-.21-.23-.2-.59.03-.8.23-.21.59-.2.8.04l3.88,4.24c.21.23.2.59-.03.8-.11.1-.25.15-.38.15Z" />
      <path class="cls-5"
        d="M80.22,195.02c-.16,0-.32-.07-.43-.2l-3.35-3.95c-.2-.24-.17-.6.07-.8.24-.2.6-.18.8.07l3.35,3.95c.2.24.17.6-.07.8-.11.09-.24.14-.37.14Z" />
      <path class="cls-5"
        d="M139.51,191.54c-.31,0-.57-.25-.57-.57v-3.7c0-.31.25-.57.57-.57s.57.25.57.57v3.7c0,.31-.25.57-.57.57Z" />
      <path class="cls-5"
        d="M137.5,191.03c-.31,0-.57-.25-.57-.57v-2.64c0-.31.25-.57.57-.57s.57.25.57.57v2.64c0,.31-.25.57-.57.57Z" />
      <path class="cls-5"
        d="M47.55,143.83c-.31,0-.57-.25-.57-.57v-3.45c0-.31.25-.57.57-.57s.57.25.57.57v3.45c0,.31-.25.57-.57.57Z" />
      <path class="cls-5"
        d="M49.42,143.62c-.31,0-.57-.25-.57-.57v-2.04c0-.31.25-.57.57-.57s.57.25.57.57v2.04c0,.31-.25.57-.57.57Z" />
      <path class="cls-5"
        d="M49.67,126.73c-.31,0-.56-.25-.57-.56-.04-4.11,0-4.27.02-4.36.08-.31.38-.49.69-.41.29.07.47.35.42.64-.02.27-.01,2.31,0,4.12,0,.31-.25.57-.56.57h0Z" />
      <path class="cls-5"
        d="M51.42,125.62c-.31,0-.57-.25-.57-.57v-2.81c0-.31.25-.57.57-.57s.57.25.57.57v2.81c0,.31-.25.57-.57.57Z" />
      <path class="cls-5"
        d="M47.55,126.18c-.31,0-.57-.25-.57-.57v-3.96c0-.31.25-.57.57-.57s.57.25.57.57v3.96c0,.31-.25.57-.57.57Z" />
      <path class="cls-5"
        d="M87.81,149.72c-.14,0-.29-.05-.4-.16-.22-.22-.23-.58,0-.8l2.48-2.51c.22-.22.58-.23.8,0,.22.22.23.58,0,.8l-2.48,2.51c-.11.11-.26.17-.4.17Z" />
      <path class="cls-5"
        d="M89.87,150.48c-.15,0-.29-.06-.4-.17-.22-.22-.22-.58,0-.8.38-.38.83-.87.96-1.05.05-.19.2-.34.4-.39.3-.08.61.1.7.4.08.28.13.47-1.25,1.85-.11.11-.26.17-.4.17Z" />
      <path class="cls-5"
        d="M82.94,150.79c-.14,0-.28-.05-.39-.16-.23-.22-.24-.57-.02-.8l1.16-1.22c.22-.23.57-.24.8-.02.23.22.24.57.02.8l-1.16,1.22c-.11.12-.26.18-.41.18Z" />
      <path class="cls-5"
        d="M85.23,148.36c-.14,0-.28-.05-.39-.16-.23-.22-.24-.57-.02-.8l2.51-2.65c.22-.23.58-.24.8-.02.23.22.24.57.02.8l-2.51,2.65c-.11.12-.26.18-.41.18Z" />
      <path class="cls-5"
        d="M70.06,157c-.16,0-.33-.07-.44-.21-.2-.24-.17-.6.08-.8l2.36-1.95c.24-.2.6-.16.8.08.2.24.17.6-.08.8l-2.36,1.95c-.11.09-.23.13-.36.13Z" />
      <path class="cls-5"
        d="M71.81,158.37c-.16,0-.31-.07-.43-.19-.21-.24-.18-.59.05-.8l2.67-2.34c.24-.21.6-.18.8.05.21.24.18.59-.05.8l-2.67,2.34c-.11.09-.24.14-.37.14Z" />
      <path class="cls-5"
        d="M161.82,172.69s-.07,0-.1,0l-6.4-1.15c-.31-.06-.51-.35-.46-.66.06-.31.35-.51.66-.46l6.4,1.15c.31.06.51.35.46.66-.05.28-.29.47-.56.47Z" />
      <path class="cls-5"
        d="M160.37,170.64s-.06,0-.09,0l-4.44-.71c-.31-.05-.52-.34-.47-.65.05-.31.34-.52.65-.47l4.44.71c.31.05.52.34.47.65-.04.28-.29.48-.56.48Z" />
      <path class="cls-5"
        d="M171.22,162.55c-.3,0-.55-.23-.57-.53-.02-.31.22-.58.53-.6l6.01-.36c.31-.04.58.22.6.53.02.31-.22.58-.53.6l-6.01.36s-.02,0-.03,0Z" />
      <path class="cls-5"
        d="M173.25,160.98c-.3,0-.54-.23-.57-.53-.02-.31.21-.58.53-.61l3.73-.26c.31-.02.58.21.61.53.02.31-.21.58-.53.61l-3.73.26s-.03,0-.04,0Z" />
      <path class="cls-5"
        d="M170.19,159.19c-.3,0-.55-.24-.57-.54-.01-.31.23-.58.54-.59l6.51-.26c.3,0,.58.23.59.54.01.31-.23.58-.54.59l-6.51.26h-.02Z" />
      <path class="cls-5"
        d="M26.33,162.84s-.06,0-.09,0l-4.49-.76c-.31-.05-.52-.34-.47-.65s.34-.52.65-.47l4.49.76c.31.05.52.34.47.65-.05.28-.29.47-.56.47Z" />
      <path class="cls-5"
        d="M26.33,164.96s-.07,0-.1,0l-3.33-.59c-.31-.05-.51-.35-.46-.66.05-.31.34-.51.66-.46l3.33.59c.31.05.51.35.46.66-.05.28-.29.47-.56.47Z" />
      <path class="cls-5"
        d="M6.29,175.4c-.28,0-.53-.21-.56-.49-.04-.31.18-.6.49-.64l3.89-.5c.31-.04.6.18.64.49.04.31-.18.6-.49.64l-3.89.5s-.05,0-.07,0Z" />
      <path class="cls-5"
        d="M5.13,173.03c-.28,0-.52-.2-.56-.49-.05-.31.17-.6.48-.64l2.78-.4c.31-.04.6.17.64.48.05.31-.17.6-.48.64l-2.78.4s-.05,0-.08,0Z" />
      <path class="cls-5"
        d="M132.38,128.15c-.31,0-.57-.25-.57-.57v-5.9c0-.31.25-.57.57-.57s.57.25.57.57v5.9c0,.31-.25.57-.57.57Z" />
      <path class="cls-5"
        d="M134.66,126.12c-.31,0-.56-.25-.57-.56-.02-1.35-.05-3.67.01-3.99.06-.31.36-.51.67-.44.3.06.5.35.45.66-.03.26-.02,2.11,0,3.76,0,.31-.24.57-.56.58h0Z" />
      <path class="cls-5"
        d="M129.24,130.55c-.3,0-.55-.23-.57-.54l-.07-1.29c-.02-.31.22-.58.54-.6.31-.04.58.22.6.53l.07,1.29c.02.31-.22.58-.54.6-.01,0-.02,0-.03,0Z" />
      <path class="cls-5"
        d="M129.05,127.16c-.3,0-.55-.23-.57-.54l-.25-4.36c-.02-.31.22-.58.54-.6.3-.04.58.22.6.53l.25,4.36c.02.31-.22.58-.54.6-.01,0-.02,0-.03,0Z" />
      <circle class="cls-5" cx="48.39" cy="168.47" r="32.12" />
      <circle class="cls-5" cx="131.82" cy="168.47" r="32.12" />
      <circle class="cls-4" cx="47.26" cy="166.51" r="30.68" transform="translate(-84.97 54.83) rotate(-33.97)" />
      <path class="cls-9" d="M21.14,182.59c3,4.87,7.33,8.82,12.47,11.39l13.52-27.59-25.99,16.2Z" />
      <path class="cls-9" d="M77.09,173.68l-30.27-6.67-.65,1.32,27.81,13.25c1.38-2.44,2.44-5.09,3.11-7.89Z" />
      <path class="cls-5"
        d="M47.26,135.83c16.94,0,30.68,13.74,30.68,30.68s-13.74,30.68-30.68,30.68-30.68-13.74-30.68-30.68,13.74-30.68,30.68-30.68h0ZM47.26,134.84c-17.47,0-31.67,14.21-31.67,31.67s14.21,31.67,31.67,31.67,31.67-14.21,31.67-31.67-14.21-31.67-31.67-31.67h0Z" />
      <path class="cls-5"
        d="M24.1,153.05c-.09,0-.18-.02-.26-.07-.24-.14-.31-.45-.17-.68,5.04-8.34,13.86-13.32,23.59-13.32,2.04,0,4.07.22,6.05.67.27.06.44.33.38.59-.06.27-.33.44-.59.38-1.9-.43-3.86-.64-5.83-.64-9.38,0-17.88,4.8-22.74,12.84-.09.15-.26.24-.43.24Z" />
      <path class="cls-5"
        d="M20.22,167.01c-.27,0-.5-.22-.5-.5,0-3.25.56-6.43,1.67-9.46.09-.26.38-.39.64-.3.26.09.39.38.3.64-1.07,2.92-1.61,5.98-1.61,9.12,0,.27-.22.5-.5.5Z" />
      <path class="cls-5"
        d="M28.53,186.51c-.12,0-.25-.05-.34-.14-3.03-2.91-5.38-6.52-6.81-10.45-.09-.26.04-.54.3-.64.26-.09.54.04.64.3,1.38,3.79,3.65,7.27,6.57,10.07.2.19.2.5.01.7-.1.1-.23.15-.36.15Z" />
      <path class="cls-5"
        d="M36.71,191.91c-.06,0-.13-.01-.19-.04-.84-.36-1.68-.76-2.48-1.2-.24-.13-.33-.43-.2-.67.13-.24.43-.33.67-.2.77.42,1.58.82,2.39,1.16.25.11.37.4.26.65-.08.19-.26.3-.46.3Z" />
      <path class="cls-5"
        d="M47.26,194.05c-2.98,0-5.92-.47-8.72-1.41-.26-.09-.4-.37-.31-.63.09-.26.37-.4.63-.31,2.7.9,5.53,1.36,8.41,1.36s5.94-.5,8.75-1.47c.26-.09.54.05.63.31.09.26-.05.54-.31.63-2.91,1.02-5.96,1.53-9.07,1.53Z" />
      <path class="cls-5"
        d="M62.64,189.25c-.16,0-.31-.07-.41-.21-.16-.23-.1-.54.13-.69,3.07-2.13,5.71-4.94,7.64-8.14.14-.23.45-.31.68-.17.23.14.31.45.17.68-2,3.31-4.74,6.23-7.93,8.44-.09.06-.19.09-.28.09Z" />
      <path class="cls-5"
        d="M74.3,167.01c-.27,0-.5-.22-.5-.5,0-8.35-3.82-16.05-10.47-21.12-.22-.17-.26-.48-.09-.7.17-.22.48-.26.7-.09,6.9,5.26,10.86,13.25,10.86,21.92,0,.27-.22.5-.5.5Z" />
      <path class="cls-5"
        d="M61.22,143.84c-.09,0-.18-.02-.26-.07-.61-.37-1.24-.71-1.87-1.03-.25-.12-.35-.42-.22-.67.12-.25.42-.35.67-.22.66.33,1.31.69,1.94,1.07.23.14.31.45.17.68-.09.15-.26.24-.43.24Z" />
      <path class="cls-5"
        d="M27.47,154.96c-.09,0-.18-.02-.26-.07-.23-.14-.31-.45-.17-.68,4.34-7.11,11.89-11.35,20.21-11.35,2.09,0,4.16.27,6.16.81.27.07.42.34.35.61-.07.27-.34.42-.61.35-1.91-.52-3.9-.78-5.9-.78-7.97,0-15.21,4.07-19.36,10.88-.09.15-.26.24-.42.24Z" />
      <path class="cls-5"
        d="M24.38,170.62c-.24,0-.45-.17-.49-.42-.19-1.21-.29-2.45-.29-3.69,0-2.59.42-5.14,1.24-7.57.09-.26.37-.4.63-.31.26.09.4.37.31.63-.79,2.33-1.18,4.77-1.18,7.25,0,1.19.09,2.37.27,3.54.04.27-.14.53-.41.57-.03,0-.05,0-.08,0Z" />
      <path class="cls-5"
        d="M31.2,183.69c-.12,0-.25-.05-.34-.14-2.88-2.77-5.02-6.24-6.19-10.03-.08-.26.07-.54.33-.62.26-.08.54.07.62.33,1.13,3.63,3.18,6.96,5.93,9.61.2.19.2.51.01.7-.1.1-.23.15-.36.15Z" />
      <path class="cls-5"
        d="M38.7,188.54c-.06,0-.12-.01-.18-.04-.93-.37-1.84-.8-2.72-1.29-.24-.13-.33-.44-.19-.68.13-.24.44-.33.68-.19.84.47,1.72.88,2.61,1.24.26.1.38.39.28.65-.08.19-.26.31-.46.31Z" />
      <path class="cls-5"
        d="M47.26,190.17c-2.25,0-4.48-.32-6.62-.94-.26-.08-.42-.35-.34-.62.08-.26.35-.42.62-.34,2.05.6,4.19.9,6.34.9,7.97,0,15.21-4.07,19.36-10.88.14-.23.45-.31.68-.17.23.14.31.45.17.68-4.34,7.11-11.89,11.35-20.21,11.35Z" />
      <path class="cls-5"
        d="M69.82,172.3s-.08,0-.11-.01c-.27-.06-.43-.33-.37-.6.39-1.69.59-3.43.59-5.18,0-2.73-.48-5.4-1.43-7.93-.1-.26.03-.54.29-.64.26-.1.54.03.64.29.99,2.65,1.49,5.43,1.49,8.28,0,1.83-.21,3.64-.62,5.41-.05.23-.26.38-.48.38Z" />
      <path class="cls-5"
        d="M65.43,152.63c-.15,0-.29-.06-.39-.19-2.23-2.81-5.13-5.08-8.38-6.57-.25-.11-.36-.41-.25-.66.11-.25.41-.36.66-.25,3.4,1.55,6.42,3.92,8.75,6.85.17.22.13.53-.08.7-.09.07-.2.11-.31.11Z" />
      <path class="cls-5"
        d="M30.53,154.96c-.1,0-.2-.03-.29-.09-.22-.16-.27-.47-.11-.69,3.96-5.49,10.37-8.77,17.13-8.77,2.12,0,4.21.31,6.21.93.26.08.41.36.33.62-.08.26-.36.41-.62.33-1.91-.59-3.9-.88-5.92-.88-6.45,0-12.55,3.12-16.33,8.36-.1.13-.25.21-.4.21Z" />
      <path class="cls-5"
        d="M26.65,167.01c-.27,0-.5-.22-.5-.5,0-2.02.28-4.01.85-5.93.08-.26.35-.41.62-.34.26.08.41.35.34.62-.53,1.83-.81,3.73-.81,5.65,0,.27-.22.5-.5.5Z" />
      <path class="cls-5"
        d="M32.77,181.67c-.13,0-.25-.05-.35-.14-2.26-2.24-4.01-5-5.07-7.98-.09-.26.04-.54.3-.63.26-.09.54.04.63.3,1,2.84,2.67,5.47,4.83,7.6.2.19.2.51,0,.7-.1.1-.23.15-.35.15Z" />
      <path class="cls-5"
        d="M45.07,187.51s-.04,0-.05,0c-3.07-.33-5.96-1.29-8.61-2.88-.24-.14-.31-.45-.17-.68.14-.24.45-.31.68-.17,2.52,1.51,5.28,2.44,8.2,2.75.27.03.47.27.44.55-.03.26-.24.44-.49.44Z" />
      <path class="cls-5"
        d="M50.1,187.43c-.24,0-.46-.18-.49-.43-.04-.27.15-.52.42-.56,6.01-.83,11.28-4.3,14.44-9.51.14-.23.45-.31.68-.17.23.14.31.45.17.68-3.32,5.47-8.84,9.11-15.15,9.98-.02,0-.05,0-.07,0Z" />
      <path class="cls-5"
        d="M67.88,167.01c-.27,0-.5-.22-.5-.5,0-2.49-.45-4.92-1.34-7.22-.1-.26.03-.54.29-.64.26-.1.54.03.64.29.93,2.42,1.4,4.97,1.4,7.58,0,.27-.22.5-.5.5Z" />
      <path class="cls-5"
        d="M63.19,153.92c-.14,0-.29-.06-.38-.18-2-2.43-4.57-4.38-7.44-5.65-.25-.11-.37-.4-.25-.66.11-.25.4-.36.66-.25,3.01,1.33,5.71,3.38,7.81,5.93.17.21.14.53-.07.7-.09.08-.2.11-.32.11Z" />
      <path class="cls-5"
        d="M32.77,156.58c-.1,0-.2-.03-.29-.09-.22-.16-.27-.47-.11-.69,3.45-4.78,9.01-7.63,14.9-7.63,1.71,0,3.4.23,5.03.7.26.07.42.35.34.61-.08.26-.35.42-.61.34-1.54-.44-3.14-.66-4.75-.66-5.56,0-10.83,2.7-14.09,7.22-.1.13-.25.21-.4.21Z" />
      <path class="cls-5"
        d="M35.55,180.49c-.12,0-.23-.04-.33-.12-4.01-3.49-6.32-8.54-6.32-13.86,0-2.21.39-4.37,1.16-6.43.1-.26.38-.39.64-.29.26.1.39.38.29.64-.73,1.94-1.09,3.99-1.09,6.08,0,5.03,2.18,9.8,5.97,13.11.21.18.23.49.05.7-.1.11-.24.17-.38.17Z" />
      <path class="cls-5"
        d="M40.78,183.65c-.06,0-.12-.01-.18-.03-1.02-.4-2-.89-2.94-1.46-.23-.14-.31-.45-.16-.68.14-.23.45-.31.68-.16.88.54,1.82,1.01,2.78,1.38.26.1.38.39.28.64-.08.2-.26.32-.46.32Z" />
      <path class="cls-5"
        d="M46.45,184.85s-.02,0-.02,0c-.7-.03-1.39-.1-2.08-.21-.27-.04-.46-.3-.41-.57.04-.27.3-.46.57-.41.65.1,1.31.17,1.96.2.27.01.49.24.47.52-.01.27-.23.47-.5.47Z" />
      <path class="cls-5"
        d="M49.7,184.7c-.24,0-.46-.18-.49-.43-.04-.27.15-.52.43-.56,5.27-.72,9.86-3.77,12.58-8.37.14-.24.44-.31.68-.17.24.14.31.44.17.68-2.88,4.86-7.73,8.09-13.3,8.85-.02,0-.05,0-.07,0Z" />
      <path class="cls-5"
        d="M65.12,167.01c-.27,0-.5-.22-.5-.5,0-1.76-.26-3.49-.78-5.15-.08-.26.07-.54.33-.62.26-.08.54.07.62.33.55,1.76.82,3.59.82,5.45,0,.27-.22.5-.5.5Z" />
      <path class="cls-5"
        d="M61.15,155.78c-.14,0-.29-.06-.39-.18-1.68-2.07-3.84-3.76-6.26-4.87-.25-.11-.36-.41-.24-.66.11-.25.41-.36.66-.24,2.55,1.17,4.84,2.95,6.62,5.15.17.21.14.53-.07.7-.09.07-.2.11-.31.11Z" />
      <path class="cls-5"
        d="M62.48,167.01c-.27,0-.5-.22-.5-.5,0-1.34-.18-2.67-.54-3.96-.07-.26.08-.54.35-.61.26-.07.54.08.61.35.38,1.37.57,2.79.57,4.22,0,.27-.22.5-.5.5Z" />
      <path class="cls-5"
        d="M59.08,157.42c-.14,0-.29-.06-.39-.18-2.81-3.46-6.98-5.45-11.44-5.45-4.12,0-8.08,1.74-10.86,4.79-.19.2-.5.22-.7.03-.2-.19-.22-.5-.03-.7,2.97-3.25,7.2-5.11,11.6-5.11,4.76,0,9.21,2.12,12.21,5.82.17.21.14.53-.07.7-.09.07-.2.11-.31.11Z" />
      <path class="cls-5"
        d="M47.26,182.23c-8.67,0-15.72-7.05-15.72-15.72,0-1.29.16-2.58.47-3.82.07-.27.34-.43.6-.36.27.07.43.34.36.6-.29,1.16-.44,2.37-.44,3.58,0,8.12,6.6,14.72,14.72,14.72,5.18,0,9.88-2.64,12.58-7.07.14-.23.45-.31.68-.17.23.14.31.45.17.68-2.88,4.72-7.9,7.54-13.43,7.54Z" />
      <circle class="cls-8" cx="47.26" cy="166.51" r="12.05" transform="translate(-103.9 82.19) rotate(-45)" />
      <path class="cls-5"
        d="M47.26,179.06c-6.92,0-12.55-5.63-12.55-12.55s5.63-12.55,12.55-12.55,12.55,5.63,12.55,12.55-5.63,12.55-12.55,12.55ZM47.26,154.96c-6.37,0-11.55,5.18-11.55,11.55s5.18,11.55,11.55,11.55,11.55-5.18,11.55-11.55-5.18-11.55-11.55-11.55Z" />
      <path class="cls-5"
        d="M48.85,166.51c0,.88-.71,1.58-1.58,1.58s-1.58-.71-1.58-1.58.71-1.58,1.58-1.58,1.58.71,1.58,1.58Z" />
      <circle class="cls-4" cx="132.95" cy="166.51" r="30.68" transform="translate(-47.82 53.71) rotate(-19.43)" />
      <path class="cls-9" d="M106.83,182.59c3,4.87,7.33,8.82,12.47,11.39l13.52-27.59-25.99,16.2Z" />
      <path class="cls-9" d="M162.78,173.68l-30.27-6.67-.65,1.32,27.81,13.25c1.38-2.44,2.44-5.09,3.11-7.89Z" />
      <path class="cls-5"
        d="M132.95,135.83c16.94,0,30.68,13.74,30.68,30.68s-13.74,30.68-30.68,30.68-30.68-13.74-30.68-30.68,13.74-30.68,30.68-30.68h0ZM132.95,134.84c-17.47,0-31.67,14.21-31.67,31.67s14.21,31.67,31.67,31.67,31.67-14.21,31.67-31.67-14.21-31.67-31.67-31.67h0Z" />
      <path class="cls-5"
        d="M109.79,153.05c-.09,0-.18-.02-.26-.07-.24-.14-.31-.45-.17-.68,5.04-8.34,13.86-13.32,23.59-13.32,2.04,0,4.07.22,6.05.67.27.06.44.33.38.59s-.33.44-.59.38c-1.9-.43-3.86-.64-5.83-.64-9.38,0-17.88,4.8-22.74,12.84-.09.15-.26.24-.43.24Z" />
      <path class="cls-5"
        d="M105.91,167.01c-.27,0-.5-.22-.5-.5,0-3.25.56-6.43,1.67-9.46.09-.26.38-.39.64-.3.26.09.39.38.3.64-1.07,2.92-1.61,5.98-1.61,9.12,0,.27-.22.5-.5.5Z" />
      <path class="cls-5"
        d="M114.22,186.51c-.12,0-.25-.05-.34-.14-3.03-2.91-5.39-6.52-6.81-10.45-.09-.26.04-.54.3-.64.26-.09.54.04.64.3,1.38,3.78,3.65,7.27,6.57,10.07.2.19.2.5.01.7-.1.1-.23.15-.36.15Z" />
      <path class="cls-5"
        d="M122.4,191.91c-.06,0-.13-.01-.19-.04-.84-.36-1.68-.76-2.48-1.2-.24-.13-.33-.43-.2-.67.13-.24.43-.33.67-.2.77.42,1.58.82,2.39,1.16.25.11.37.4.26.65-.08.19-.26.3-.46.3Z" />
      <path class="cls-5"
        d="M132.95,194.05c-2.98,0-5.92-.47-8.72-1.41-.26-.09-.4-.37-.31-.63.09-.26.37-.4.63-.31,2.7.9,5.53,1.36,8.41,1.36s5.94-.5,8.75-1.47c.26-.09.54.05.63.31.09.26-.05.54-.31.63-2.91,1.02-5.96,1.53-9.07,1.53Z" />
      <path class="cls-5"
        d="M148.33,189.25c-.16,0-.31-.07-.41-.21-.16-.23-.1-.54.13-.69,3.07-2.13,5.71-4.94,7.64-8.14.14-.23.45-.31.68-.17.24.14.31.45.17.68-2,3.31-4.74,6.23-7.93,8.44-.09.06-.18.09-.28.09Z" />
      <path class="cls-5"
        d="M159.99,167.01c-.27,0-.5-.22-.5-.5,0-8.35-3.82-16.05-10.47-21.12-.22-.17-.26-.48-.09-.7.17-.22.48-.26.7-.09,6.9,5.26,10.86,13.25,10.86,21.92,0,.27-.22.5-.5.5Z" />
      <path class="cls-5"
        d="M146.91,143.84c-.09,0-.18-.02-.26-.07-.61-.37-1.24-.71-1.87-1.03-.25-.12-.35-.42-.22-.67.12-.25.42-.35.67-.22.66.33,1.31.69,1.94,1.07.24.14.31.45.17.68-.09.15-.26.24-.43.24Z" />
      <path class="cls-5"
        d="M113.16,154.96c-.09,0-.18-.02-.26-.07-.23-.14-.31-.45-.17-.68,4.34-7.11,11.89-11.35,20.21-11.35,2.09,0,4.16.27,6.16.81.27.07.42.34.35.61-.07.27-.35.42-.61.35-1.92-.52-3.9-.78-5.9-.78-7.97,0-15.21,4.07-19.36,10.88-.09.15-.26.24-.42.24Z" />
      <path class="cls-5"
        d="M110.07,170.62c-.24,0-.45-.17-.49-.42-.19-1.21-.29-2.45-.29-3.69,0-2.59.42-5.14,1.24-7.57.09-.26.37-.4.63-.31.26.09.4.37.31.63-.79,2.33-1.19,4.77-1.19,7.25,0,1.18.09,2.37.27,3.54.04.27-.14.53-.41.57-.03,0-.05,0-.08,0Z" />
      <path class="cls-5"
        d="M116.89,183.69c-.12,0-.25-.05-.34-.14-2.88-2.77-5.02-6.24-6.19-10.03-.08-.26.07-.54.33-.62.26-.08.54.07.62.33,1.13,3.63,3.18,6.96,5.93,9.61.2.19.2.51.01.7-.1.1-.23.15-.36.15Z" />
      <path class="cls-5"
        d="M124.39,188.54c-.06,0-.12-.01-.18-.04-.93-.37-1.84-.8-2.72-1.29-.24-.13-.33-.44-.19-.68.13-.24.44-.33.68-.19.84.47,1.72.88,2.61,1.24.26.1.38.39.28.65-.08.19-.26.31-.46.31Z" />
      <path class="cls-5"
        d="M132.95,190.17c-2.25,0-4.48-.32-6.62-.94-.26-.08-.42-.35-.34-.62.08-.26.35-.42.62-.34,2.05.6,4.19.9,6.34.9,7.97,0,15.21-4.07,19.36-10.88.14-.23.45-.31.68-.17.23.14.31.45.17.68-4.34,7.11-11.89,11.35-20.21,11.35Z" />
      <path class="cls-5"
        d="M155.51,172.3s-.08,0-.11-.01c-.27-.06-.43-.33-.37-.6.39-1.69.59-3.43.59-5.18,0-2.73-.48-5.4-1.43-7.93-.1-.26.03-.54.29-.64.26-.1.54.03.64.29.99,2.65,1.49,5.43,1.49,8.28,0,1.83-.21,3.65-.62,5.41-.05.23-.26.38-.48.38Z" />
      <path class="cls-5"
        d="M151.12,152.63c-.15,0-.29-.06-.39-.19-2.23-2.81-5.13-5.08-8.38-6.57-.25-.11-.36-.41-.25-.66.11-.25.41-.36.66-.25,3.4,1.55,6.42,3.92,8.75,6.85.17.22.13.53-.08.7-.09.07-.2.11-.31.11Z" />
      <path class="cls-5"
        d="M116.22,154.96c-.1,0-.2-.03-.29-.09-.22-.16-.27-.47-.11-.69,3.96-5.49,10.37-8.77,17.13-8.77,2.12,0,4.21.31,6.21.93.26.08.41.36.33.62-.08.26-.36.41-.62.33-1.91-.59-3.9-.88-5.92-.88-6.45,0-12.55,3.12-16.33,8.36-.1.13-.25.21-.4.21Z" />
      <path class="cls-5"
        d="M112.34,167.01c-.27,0-.5-.22-.5-.5,0-2.02.28-4.01.85-5.93.08-.26.35-.41.62-.34.26.08.41.35.34.62-.53,1.83-.81,3.73-.81,5.65,0,.27-.22.5-.5.5Z" />
      <path class="cls-5"
        d="M118.46,181.67c-.13,0-.25-.05-.35-.14-2.26-2.24-4.01-5-5.07-7.98-.09-.26.04-.54.3-.63.26-.09.54.04.63.3,1,2.84,2.67,5.47,4.83,7.6.2.19.2.51,0,.7-.1.1-.23.15-.35.15Z" />
      <path class="cls-5"
        d="M130.76,187.51s-.04,0-.05,0c-3.07-.33-5.96-1.29-8.61-2.88-.24-.14-.31-.45-.17-.68.14-.24.45-.31.68-.17,2.52,1.51,5.28,2.44,8.2,2.75.27.03.47.27.44.55-.03.26-.24.44-.49.44Z" />
      <path class="cls-5"
        d="M135.79,187.43c-.24,0-.46-.18-.49-.43-.04-.27.15-.52.42-.56,6.01-.83,11.28-4.3,14.44-9.51.14-.23.45-.31.68-.17.23.14.31.45.17.68-3.32,5.47-8.84,9.11-15.15,9.98-.02,0-.05,0-.07,0Z" />
      <path class="cls-5"
        d="M153.57,167.01c-.27,0-.5-.22-.5-.5,0-2.49-.45-4.92-1.34-7.22-.1-.26.03-.54.29-.64.26-.1.54.03.64.29.93,2.42,1.4,4.97,1.4,7.58,0,.27-.22.5-.5.5Z" />
      <path class="cls-5"
        d="M148.88,153.92c-.14,0-.29-.06-.38-.18-2-2.43-4.57-4.38-7.44-5.65-.25-.11-.36-.4-.25-.66.11-.25.4-.36.66-.25,3.01,1.33,5.71,3.38,7.81,5.93.17.21.14.53-.07.7-.09.08-.2.11-.32.11Z" />
      <path class="cls-5"
        d="M118.46,156.58c-.1,0-.2-.03-.29-.09-.22-.16-.27-.47-.11-.69,3.44-4.78,9.01-7.63,14.9-7.63,1.71,0,3.4.23,5.03.7.26.07.42.35.34.61-.07.26-.35.42-.61.34-1.54-.44-3.14-.66-4.75-.66-5.56,0-10.83,2.7-14.09,7.22-.1.13-.25.21-.4.21Z" />
      <path class="cls-5"
        d="M121.24,180.49c-.12,0-.23-.04-.33-.12-4.01-3.49-6.32-8.54-6.32-13.86,0-2.21.39-4.37,1.16-6.43.1-.26.38-.39.64-.29.26.1.39.38.29.64-.73,1.94-1.09,3.99-1.09,6.08,0,5.03,2.18,9.8,5.97,13.11.21.18.23.49.05.7-.1.11-.24.17-.38.17Z" />
      <path class="cls-5"
        d="M126.47,183.65c-.06,0-.12-.01-.18-.03-1.02-.4-2-.89-2.94-1.46-.23-.14-.31-.45-.16-.68.14-.23.45-.31.68-.16.88.54,1.82,1.01,2.78,1.38.26.1.38.39.28.64-.08.2-.26.32-.46.32Z" />
      <path class="cls-5"
        d="M132.14,184.85s-.02,0-.02,0c-.69-.03-1.39-.1-2.08-.21-.27-.04-.46-.3-.41-.57.04-.27.3-.46.57-.41.65.1,1.31.17,1.96.2.27.01.49.24.47.52-.01.27-.23.47-.5.47Z" />
      <path class="cls-5"
        d="M135.39,184.7c-.24,0-.46-.18-.49-.43-.04-.27.15-.52.43-.56,5.27-.72,9.86-3.77,12.58-8.37.14-.24.44-.31.68-.17.24.14.31.44.17.68-2.88,4.86-7.73,8.09-13.3,8.85-.02,0-.05,0-.07,0Z" />
      <path class="cls-5"
        d="M150.81,167.01c-.27,0-.5-.22-.5-.5,0-1.76-.26-3.49-.78-5.15-.08-.26.07-.54.33-.62.26-.08.54.07.62.33.55,1.76.82,3.59.82,5.45,0,.27-.22.5-.5.5Z" />
      <path class="cls-5"
        d="M146.84,155.78c-.14,0-.29-.06-.39-.18-1.68-2.07-3.84-3.76-6.26-4.87-.25-.11-.36-.41-.24-.66.11-.25.41-.36.66-.24,2.55,1.17,4.84,2.95,6.62,5.15.17.21.14.53-.07.7-.09.07-.2.11-.31.11Z" />
      <path class="cls-5"
        d="M148.17,167.01c-.27,0-.5-.22-.5-.5,0-1.34-.18-2.67-.54-3.96-.07-.26.08-.54.35-.61.26-.07.54.08.61.35.38,1.37.57,2.79.57,4.22,0,.27-.22.5-.5.5Z" />
      <path class="cls-5"
        d="M144.77,157.42c-.14,0-.29-.06-.39-.18-2.81-3.46-6.98-5.45-11.44-5.45-4.12,0-8.08,1.74-10.86,4.79-.19.2-.5.22-.7.03-.2-.19-.22-.5-.03-.7,2.97-3.25,7.2-5.11,11.6-5.11,4.76,0,9.21,2.12,12.21,5.82.17.21.14.53-.07.7-.09.07-.2.11-.31.11Z" />
      <path class="cls-5"
        d="M132.95,182.23c-8.67,0-15.72-7.05-15.72-15.72,0-1.29.16-2.58.47-3.82.07-.27.34-.43.6-.36.27.07.43.34.36.6-.29,1.16-.44,2.37-.44,3.58,0,8.12,6.6,14.72,14.72,14.72,5.18,0,9.88-2.64,12.58-7.07.14-.23.45-.31.68-.17.23.14.31.45.17.68-2.88,4.72-7.9,7.54-13.43,7.54Z" />
      <circle class="cls-8" cx="132.95" cy="166.51" r="12.05" transform="translate(-78.8 142.78) rotate(-45)" />
      <path class="cls-5"
        d="M132.95,179.06c-6.92,0-12.55-5.63-12.55-12.55s5.63-12.55,12.55-12.55,12.55,5.63,12.55,12.55-5.63,12.55-12.55,12.55ZM132.95,154.96c-6.37,0-11.55,5.18-11.55,11.55s5.18,11.55,11.55,11.55,11.55-5.18,11.55-11.55-5.18-11.55-11.55-11.55Z" />
      <path class="cls-5"
        d="M134.54,166.51c0,.88-.71,1.58-1.58,1.58s-1.58-.71-1.58-1.58.71-1.58,1.58-1.58,1.58.71,1.58,1.58Z" />
      <path class="cls-7"
        d="M85.71,123.08c-1.79,0-3.43-.7-4.73-2.03-1.97-2-2.82-5.02-2.79-6.98,0-3.6,1.91-5.25,3.31-6.46.79-.68,1.42-1.22,1.43-1.87.01-.76-.77-1.85-2.4-3.34-7.24-6.64-6.35-9.33-1.82-18.58,2.97-6.06.86-9.66-.84-12.56-.9-1.54-1.68-2.86-1.64-4.31.06-2.43.73-5.18,1.45-8.09,1.04-4.21,2.22-8.99,1.76-13.91-.45-4.96,1.73-5.91,4.04-6.93,1.88-.82,4.01-1.76,5.51-5,.95-2.06.39-4.81-.15-7.47-.68-3.33-1.38-6.77,1.2-8.55.92-.63,1.8-.96,2.61-.96.89,0,1.7.39,2.33,1.14,1.95,2.31,2.27,8.04.91,16.13-1.38,8.17-2.8,9.72-4.95,9.72-.14,0-.28,0-.42-.01-.13,0-.26-.01-.39-.01-.6,0-1.2.09-1.87,1.18-.61,1-.84,1.76-.68,2.34.22.8,1.19,1.33,2.43,2,.89.48,1.9,1.03,2.83,1.81,2.88,2.42,1.75,8.73.66,14.83-.17.93-.33,1.86-.49,2.77-.44,2.66,1.14,3.06,4.47,3.64,3.31.58,7.44,1.3,9.16,6.07,3.13,8.64-2.18,15.62-6.96,17.83-.82.38-1.32.89-1.56,1.56-.7,2.03,1.07,5.47,3.12,9.45.32.62.64,1.25.97,1.89,1.08,2.13,1.21,3.89.39,5.22-1.26,2.05-4.27,2.21-5.16,2.21h0c-.68,0-1.33-.07-1.84-.21-.08-.02-.16-.03-.22-.03-.44,0-.74.57-1.23,1.59-.86,1.77-2.16,4.43-6.16,5.57-.78.22-1.54.33-2.26.33ZM92.31,110.86c-.46,0-.56.07-.57.07-.43.46-.68,1.22-.97,2.09-.34,1.05-.73,2.23-1.57,3.26-.66.8-1.34,1.46-1.94,2.04-1.22,1.17-1.69,1.69-1.4,2.12.04.05.15.22.55.22,1.04,0,2.78-1.02,3.69-1.93,1.05-1.06,1.95-2.74,2.73-5.12.1-.29.36-.64,1.06-.64.33,0,.72.07,1.17.15.57.1,1.21.22,1.87.22,1.02,0,1.83-.29,2.47-.88,1.6-1.47.37-3.45-1.95-6.84-1.13-1.65-2.41-3.51-3.32-5.55-1.89-4.22-2.54-8.44-2.33-10.57.4-4.16,2.18-6.82,3.62-8.95,1.06-1.58,1.9-2.82,1.74-4.09-.16-1.31-1.22-1.76-2.95-2.4-1.6-.59-3.42-1.26-4.38-3.17-1.77-3.53-.95-6.65.21-9.49.26-.63.55-1.19.83-1.72.79-1.51,1.48-2.82,1.19-5.42-.21-1.87-1.34-2.56-2.79-3.44-1.1-.67-2.34-1.43-3.18-2.85-.69-1.17-.46-2.73-.3-3.87.04-.28.09-.62.11-.88-.24.29-.56.8-.83,1.53-.3.81-.7,2.38-.04,3.8.19.4.86,1.02,1.57,1.67,1.29,1.17,2.88,2.64,3.14,4.22.3,1.85-.82,3.66-1.81,5.25-.52.85-1.02,1.64-1.15,2.24-1.66,7.64-.13,11.89,4.69,13,.55.13.94.41,1.14.83.5,1.05-.31,2.7-1.43,4.98-1.5,3.04-3.54,7.21-2.88,11.25,1.18,7.22,4.45,10.7,6.02,12.37.11.12.22.23.31.34.95,1.03,2.62,4.24,1.41,5.51-.61.64-1.53.73-2.26.73-.28,0-.56-.01-.83-.03-.23-.01-.45-.02-.65-.02ZM83.08,84.11c-.45.41-1.15,1.28-1.78,2.69-.83,1.84-2.42,6.59.74,10.94.32.44.68.89,1.06,1.37,1.73,2.17,3.68,4.63,3.24,7.68-.25,1.72-1.67,2.99-2.93,4.1-1.8,1.6-2.45,2.37-1.62,3.47.08.1.32.21.68.21,1.36,0,4.07-1.51,5.63-7.19.82-2.99-.64-4.81-2.05-6.58-.25-.31-.49-.62-.72-.93-4.83-6.53-3.1-12.73-2.36-15.38.04-.13.07-.26.11-.39ZM100.33,89.99s.06.04.19.04c.47,0,1.37-.5,2.24-1.6,1.58-1.99,2.17-4.71,1.58-7.29-.96-4.18-2.39-5.67-3.4-5.67-.41,0-.72.24-.91.44-.52.55-.24,1.51.27,3.03.4,1.18.84,2.52.91,4.04.07,1.72-.29,3.46-.59,4.86-.18.85-.4,1.91-.29,2.15,0,0,0,0,0,0ZM80.97,57.35c-.94.8-2.38,8.47-1.64,10.51.36,1,.81,1.52,1.37,2.19.53.63,1.13,1.34,1.76,2.58.75,1.48.62,3.51.52,5-.02.34-.05.72-.05,1.02.52-.79,1.26-2.92,1.17-5.03-.05-1.31-.58-2.04-1.26-2.96-.6-.81-1.27-1.74-1.69-3.21-.42-1.47-.28-3.76-.14-5.99.09-1.45.22-3.6-.04-4.11Z" />
      <path class="cls-5"
        d="M92.65,16.56c2.95,0,4.72,5.01,2.75,16.69-1.46,8.64-2.95,9.3-4.46,9.3-.27,0-.54-.02-.81-.02-.76,0-1.53.17-2.29,1.42-2.57,4.2,1.6,4.2,4.68,6.79,3.07,2.59,1.13,10.35,0,17.14-1.13,6.79,10.51,1.29,13.65,9.96,3.14,8.67-2.5,15.26-6.7,17.21-4.2,1.94-.97,7.12,2.29,13.58,2.66,5.27-1.41,6.71-4.33,6.71-.66,0-1.27-.07-1.72-.19-.13-.03-.24-.05-.35-.05-2.01,0-1.4,5.44-7.52,7.18-.76.22-1.47.31-2.12.31-4.94,0-7.08-5.53-7.02-8.5-.02-7.65,9.03-5.77,2.18-12.05-6.84-6.28-6.31-8.61-1.71-17.99,4.59-9.38-2.52-13.1-2.43-17.07.14-5.88,3.98-13.65,3.21-22.06-.77-8.41,6.01-4.14,9.5-11.67,2.26-4.88-3.32-12.91.88-15.82.82-.57,1.61-.87,2.33-.87h0ZM93.8,110.41c-.52,0-1.05-.05-1.49-.05s-.75.05-.93.23c-1.09,1.16-1.08,3.58-2.56,5.38-1.95,2.36-4.19,3.53-3.37,4.75.21.31.55.44.96.44,1.23,0,3.09-1.13,4.04-2.08,1.28-1.29,2.17-3.26,2.85-5.32.07-.22.28-.3.59-.3.67,0,1.82.37,3.04.37.95,0,1.95-.22,2.81-1.01,3.05-2.79-2.56-7.17-5.16-12.95-1.76-3.93-2.5-8.1-2.29-10.32.69-7.22,5.76-9.86,5.36-13.15-.4-3.29-5.6-2.19-7.38-5.73-1.78-3.54-.75-6.68.22-9.08.96-2.37,2.46-3.68,2.05-7.38-.41-3.7-4.23-3.43-6.03-6.48-1.08-1.83.45-4.97-.37-5.24-.02,0-.04,0-.05,0-.7,0-2.79,3.55-1.52,6.28.6,1.29,4.3,3.47,4.67,5.76.43,2.66-2.55,5.48-2.95,7.31-.74,3.39-2.28,11.9,5.07,13.59,3.61.83-4.85,8.76-3.56,16.66,1.29,7.9,5.08,11.46,6.46,12.96.95,1.04,2.3,3.9,1.41,4.83-.45.47-1.17.57-1.9.57h0ZM82.7,79.44h0c.78,0,2.01-3.14,1.9-5.84-.11-2.7-2.11-3.26-2.97-6.28s.83-10.5-.63-10.5-2.89,9.14-2.14,11.21c.75,2.07,1.9,2.34,3.16,4.82,1.21,2.39-.1,6.59.68,6.59h0ZM100.52,90.52c1.76,0,5.55-4.1,4.31-9.5-1.02-4.45-2.6-6.05-3.89-6.05-.48,0-.92.22-1.27.6-1.31,1.39.9,4.04,1.05,7.44.14,3.23-1.37,6.7-.76,7.31.14.14.34.21.56.21h0ZM82.47,115.07c1.62,0,4.5-1.67,6.11-7.56,1.03-3.78-1.33-5.87-2.85-7.94-6.06-8.19-1.45-15.92-2.09-16.21-.04-.02-.09-.03-.14-.03-1.53,0-6.58,8.21-1.86,14.7,1.77,2.44,4.72,5.21,4.22,8.69-.5,3.47-6.6,5.1-4.45,7.94.19.25.57.41,1.07.41h0ZM92.65,15.56c-.92,0-1.9.35-2.9,1.04-2.84,1.97-2.11,5.57-1.4,9.06.53,2.58,1.07,5.26.18,7.16-1.42,3.07-3.37,3.92-5.26,4.75-2.37,1.04-4.82,2.11-4.33,7.43.44,4.84-.72,9.57-1.75,13.75-.72,2.94-1.41,5.71-1.46,8.19-.04,1.59.81,3.04,1.71,4.57,1.72,2.94,3.67,6.27.82,12.09-4.56,9.31-5.54,12.3,1.93,19.16,1.86,1.71,2.25,2.56,2.24,2.97,0,.41-.48.84-1.26,1.5-1.39,1.2-3.49,3-3.48,6.85-.04,2.04.87,5.21,2.93,7.32,1.4,1.42,3.16,2.17,5.09,2.17.77,0,1.58-.12,2.4-.35,4.21-1.2,5.57-3.99,6.47-5.83.24-.49.59-1.22.78-1.31.01,0,.04,0,.1.02.55.15,1.25.23,1.97.23,2.55,0,4.64-.91,5.59-2.45.91-1.48.79-3.4-.37-5.7-.33-.65-.65-1.28-.97-1.9-1.91-3.72-3.72-7.24-3.09-9.07.19-.55.6-.95,1.29-1.27,4.95-2.28,10.46-9.52,7.22-18.45-1.83-5.04-6.29-5.82-9.55-6.39-3.54-.62-4.41-1-4.06-3.07.15-.91.32-1.85.48-2.77,1.17-6.53,2.27-12.69-.82-15.3-.96-.81-2-1.37-2.91-1.87-1.09-.59-2.02-1.1-2.18-1.7-.11-.42.1-1.1.63-1.95.58-.94,1.02-.94,1.44-.94.12,0,.25,0,.37,0,.15,0,.3.01.44.01,2.42,0,4-1.61,5.44-10.13,1.41-8.36,1.06-14.08-1.02-16.54-.73-.86-1.66-1.31-2.71-1.31v.99s0-.99,0-.99h0ZM93.8,111.4c.76,0,1.87-.09,2.62-.88,1.51-1.59-.41-5.12-1.4-6.19-.09-.1-.2-.22-.32-.34-1.54-1.64-4.74-5.04-5.89-12.11-.63-3.88,1.37-7.97,2.84-10.95,1.18-2.41,2.04-4.15,1.43-5.42-.18-.39-.59-.89-1.47-1.1-4.5-1.03-5.91-5.09-4.32-12.41.11-.51.58-1.28,1.09-2.09.98-1.58,2.2-3.55,1.88-5.59-.28-1.75-1.95-3.28-3.29-4.51-.58-.53-1.31-1.2-1.46-1.51-.23-.49-.31-1.03-.3-1.57.07.51.22,1,.49,1.46.9,1.53,2.2,2.32,3.35,3.02,1.38.84,2.37,1.44,2.55,3.07.27,2.45-.35,3.63-1.14,5.13-.29.55-.58,1.11-.85,1.77-1.2,2.95-2.05,6.2-.19,9.9,1.05,2.09,3.05,2.82,4.65,3.41,1.77.65,2.51,1.01,2.63,1.99.13,1.09-.66,2.26-1.66,3.76-1.47,2.18-3.29,4.9-3.7,9.18-.21,2.2.44,6.52,2.37,10.82.93,2.07,2.22,3.96,3.36,5.62,2.36,3.44,3.26,5.06,2.03,6.19-.56.51-1.24.75-2.14.75-.62,0-1.24-.11-1.78-.21-.48-.09-.89-.16-1.26-.16-1.09,0-1.43.69-1.53.98-.76,2.31-1.62,3.92-2.61,4.93-.91.92-2.53,1.79-3.34,1.79-.06,0-.11,0-.13-.01.11-.3.81-.97,1.32-1.47.61-.59,1.3-1.25,1.98-2.08.9-1.09,1.3-2.33,1.66-3.42.24-.72.46-1.41.77-1.81.05,0,.14-.01.29-.01.18,0,.4.01.63.02.28.01.56.03.86.03h0ZM83.54,75.09c-.05-.93-.22-1.87-.63-2.69-.65-1.29-1.28-2.02-1.83-2.67-.55-.65-.95-1.13-1.28-2.04-.44-1.22.11-5.77.82-8.32-.02.69-.07,1.45-.1,2.07-.14,2.26-.28,4.6.16,6.15.45,1.56,1.15,2.52,1.77,3.37.65.89,1.12,1.53,1.16,2.68.02.49,0,.98-.07,1.45h0ZM100.82,89.44c.05-.4.18-1,.28-1.5.3-1.43.67-3.2.6-4.98-.07-1.59-.55-3.03-.93-4.18-.39-1.16-.73-2.17-.38-2.53.18-.19.36-.28.55-.28.59,0,1.96,1.1,2.92,5.28.83,3.61-.92,6.17-1.48,6.87-.62.77-1.19,1.17-1.55,1.33h0ZM82.17,114.03c-.5-.69-.22-1.17,1.58-2.76,1.32-1.17,2.81-2.5,3.09-4.4.47-3.25-1.65-5.92-3.35-8.06-.38-.47-.73-.92-1.05-1.36-2.24-3.09-1.96-6.42-1.33-8.66.23-.83.53-1.56.83-2.18-.65,3.25-.9,8.29,2.99,13.56.23.32.49.63.73.94,1.39,1.75,2.71,3.4,1.96,6.14-1.48,5.4-4.01,6.83-5.15,6.83-.16,0-.26-.03-.31-.05h0Z" />
      <path class="cls-7"
        d="M75.12,85.7c-.09,0-.18-.02-.26-.08-.23-.14-.3-.44-.16-.67,0,0,.03-.05.08-.15.5-.96,2.55-6.05-5.8-13.06-.03-.03-.06-.06-.09-.1-3.24-4.67.37-11.05,2.11-14.12.31-.55.56-.98.68-1.26.99-2.24.9-4.76.82-6.98-.09-2.53-.17-4.71,1.7-5.19.1-.03.2-.04.3-.04.23,0,.67.08,1,.63,1.4,2.38-.47,12.69-3.16,17.52-1.77,3.16-.45,4.74,1.54,7.12,1.21,1.45,2.58,3.09,3.51,5.44,1.64,4.13-1.13,9.45-1.71,10.5-.07.13-.12.2-.12.2-.1.14-.25.22-.42.22Z" />
      <path class="cls-5"
        d="M74.49,44.57c2.19,0,.4,12.04-2.6,17.41-3.07,5.5,2.59,6.87,5.01,12.99,1.56,3.93-1.14,9.09-1.68,10.08.52-1,2.75-6.4-5.92-13.67-3.64-5.24,2-13.01,2.83-14.89,2.18-4.93-.65-11.16,2.18-11.89.06-.02.12-.02.17-.02h0ZM75.22,85.04c-.06.11-.09.17-.09.17,0,0,.03-.06.09-.17h0ZM74.49,43.58c-.14,0-.28.02-.42.05-2.26.58-2.17,3.06-2.07,5.69.08,2.16.17,4.62-.78,6.76-.11.25-.36.7-.66,1.21-1.79,3.15-5.5,9.72-2.08,14.65.05.07.11.14.18.19,8.04,6.75,6.16,11.52,5.68,12.44-.04.08-.07.12-.07.13-.27.46-.13,1.05.32,1.34.16.1.35.15.53.15.32,0,.64-.16.83-.44,0,0,.05-.08.14-.24.61-1.09,3.45-6.59,1.73-10.92-.96-2.42-2.35-4.09-3.59-5.57-1.99-2.39-3.08-3.7-1.48-6.56,2.58-4.62,4.76-15.27,3.16-18.01-.45-.76-1.09-.88-1.43-.88h0Z" />
      <path class="cls-7"
        d="M74.1,42.27c-1.68,0-2.46-2.02-2.48-4.02-.02-1.86.59-3.74,2.02-3.78h.07c1.91,0,2.85,1.91,2.93,3.81.08,1.81-.62,3.83-2.36,3.98-.06,0-.12,0-.18,0h0Z" />
      <path class="cls-5"
        d="M73.71,34.97c3.1,0,3.22,6.56.53,6.8-.05,0-.09,0-.14,0-2.57,0-2.57-6.75-.45-6.8.02,0,.04,0,.06,0h0ZM73.71,33.98h-.08c-1.53.04-2.54,1.76-2.51,4.29.03,2.7,1.23,4.51,2.98,4.51.07,0,.15,0,.23-.01,1.77-.16,2.93-2.01,2.81-4.5-.11-2.52-1.52-4.28-3.43-4.28h0Z" />
      <path class="cls-7"
        d="M90.11,14.96c-2.27,0-3.87-1.79-3.98-4.45-.12-2.93,1.67-6.2,5.22-6.49.24-.02.46-.03.68-.03,3.19,0,4.58,1.94,4.82,3.75.35,2.65-1.55,6.01-5.33,7.02-.49.13-.96.2-1.4.2h0Z" />
      <path class="cls-5"
        d="M92.03,4.5c6.29,0,5.52,8.14-.64,9.79-.46.12-.88.18-1.28.18-5.05,0-4.61-9.46,1.28-9.94.22-.02.43-.03.64-.03h0ZM92.03,3.5c-.23,0-.48.01-.72.03-3.86.31-5.8,3.84-5.67,7,.12,2.94,1.92,4.92,4.48,4.92.49,0,1-.07,1.53-.21,4.05-1.08,6.07-4.69,5.7-7.56-.27-2.02-1.8-4.18-5.31-4.18h0Z" />
      <path class="cls-7"
        d="M91.74,123.9c-.96,0-1.24-.4-1.31-.73-.1-.48.32-.7.85-.97,1-.52,3.08-1.59,4.49-4.73,0-.02.02-.04.03-.05.38-.64,1.16-.71,1.71-.71s1.22.09,1.92.18c.76.1,1.54.21,2.26.21,1.37,0,2.12-.38,2.43-1.24,2.31-6.31-2.65-13.05-3.22-13.79-.51-.66-.68-1.6-.49-2.71.38-2.25,2.26-5.1,4.18-6.35.37-.24.62-.34.84-.34s.41.1.53.27c.27.4.05.96-.44,2.18-.67,1.69-1.8,4.51-.8,6.06,1.65,2.54,6.94,12.9,2.7,17.26-2.08,2.14-4.6,2.39-6.31,2.39-.63,0-1.21-.04-1.73-.07-.39-.03-.73-.05-1-.05-.31,0-.45.03-.5.05-.67,1.85-4.37,3.14-6.15,3.14Z" />
      <path class="cls-5"
        d="M105.43,93.17c.93,0-2.92,5.52-1.12,8.28,2.01,3.1,6.53,12.77,2.76,16.64-1.84,1.89-4.09,2.24-5.96,2.24-1.1,0-2.06-.12-2.73-.12-.52,0-.87.07-.95.34-.51,1.58-4.06,2.86-5.7,2.86-.47,0-.78-.1-.82-.33-.09-.43,3.28-.88,5.3-5.39.21-.35.68-.47,1.29-.47,1.13,0,2.75.39,4.18.39,1.3,0,2.45-.32,2.9-1.57,2.19-5.97-1.76-12.26-3.29-14.27-1.54-2.01,1.05-6.7,3.57-8.34.27-.18.46-.26.57-.26h0ZM105.43,92.18c-.33,0-.66.13-1.11.42-2.05,1.34-3.98,4.28-4.4,6.68-.21,1.25-.01,2.32.58,3.1.56.73,5.37,7.26,3.15,13.32-.17.48-.53.92-1.97.92-.69,0-1.46-.1-2.2-.2-.71-.1-1.38-.19-1.98-.19-.39,0-1.57,0-2.14.95-.02.03-.04.07-.05.1-1.34,2.98-3.31,4-4.27,4.49-.54.28-1.28.66-1.11,1.51.07.34.38,1.13,1.8,1.13,1.78,0,5.49-1.23,6.49-3.19.04,0,.09,0,.16,0,.26,0,.59.02.97.05.52.03,1.11.07,1.76.07,2.83,0,5.01-.83,6.67-2.54,4.46-4.59-.95-15.27-2.64-17.87-.87-1.33.2-4,.84-5.6.54-1.35.81-2.02.39-2.64-.21-.31-.55-.49-.94-.49h0Z" />
      <path class="cls-6"
        d="M94.34,131.04c-.36,0-.73-.03-1.09-.08l-2.08-.32c-1.86-.29-3.5-1.29-4.61-2.81-1.11-1.52-1.57-3.39-1.28-5.25l.16-1c.01-.07.03-.14.05-.21,0-.02.01-.05.02-.07.39-2.6,1.21-7.94,1.88-12.24l-8.13,2.58c-.19.06-.38.09-.57.09-.39,0-.77-.12-1.08-.34-.48-.34-.78-.89-.8-1.47l-.25-7.13c-.02-.52.18-1.03.55-1.4.36-.36.83-.55,1.34-.55,0,0,11.84.4,11.84.4.54.02,1.04.27,1.39.68.34.41.49.96.41,1.49-.6,3.83-1.34,8.65-1.95,12.59.74-.26,1.53-.39,2.3-.39.36,0,.72.03,1.07.08l2.08.32c1.86.29,3.5,1.29,4.61,2.81,1.11,1.52,1.57,3.39,1.28,5.25l-.16,1c-.53,3.41-3.53,5.97-6.97,5.97h0Z" />
      <path class="cls-5"
        d="M78.44,101.33s.03,0,.04,0l11.78.4c.4.01.77.2,1.02.5.25.3.36.7.3,1.1-.64,4.12-1.46,9.38-2.09,13.47.89-.45,1.89-.7,2.93-.7.33,0,.66.03.99.08l2.08.32c3.57.56,6.03,3.92,5.47,7.49l-.16,1c-.5,3.24-3.3,5.55-6.48,5.55-.33,0-.67-.03-1.01-.08l-2.08-.32c-3.57-.56-6.03-3.92-5.47-7.49l.16-1c.01-.09.05-.17.07-.26.41-2.76,1.31-8.57,2-13.05l-8.89,2.82c-.14.04-.28.07-.42.07-.28,0-.56-.09-.8-.25-.35-.25-.57-.65-.59-1.08l-.25-7.13c-.01-.38.13-.76.4-1.03.26-.26.62-.41.98-.41h0ZM78.44,100.33h0c-.64,0-1.24.25-1.69.7-.46.46-.72,1.11-.69,1.76l.25,7.13c.03.74.4,1.43,1.01,1.86.4.28.88.44,1.37.44.24,0,.49-.04.72-.11l7.36-2.34c-.86,5.58-1.45,9.42-1.75,11.43v.02c-.03.06-.06.16-.07.28l-.16,1c-.64,4.12,2.19,7.99,6.3,8.63l2.08.32c.39.06.78.09,1.17.09,3.69,0,6.89-2.75,7.46-6.39l.16-1c.64-4.12-2.19-7.99-6.3-8.63l-2.08-.32c-.38-.06-.76-.09-1.15-.09-.57,0-1.14.07-1.69.2.58-3.79,1.27-8.24,1.83-11.82.1-.67-.08-1.36-.52-1.88-.43-.52-1.07-.84-1.75-.86l-11.78-.4h-.08Z" />
      <path class="cls-7"
        d="M61.2,88.24c-.27,0-.55-.02-.82-.06l-1.52-.24c-1.4-.22-2.62-.97-3.46-2.11-.84-1.14-1.18-2.54-.96-3.94l.11-.73c0-.06.03-.12.04-.17.28-1.87.86-5.62,1.35-8.76l-5.74,1.82c-.15.05-.3.07-.46.07-.31,0-.61-.1-.87-.28-.38-.27-.62-.71-.64-1.18l-.19-5.21c-.01-.42.15-.82.44-1.12.29-.29.67-.44,1.07-.44l8.66.29c.43.02.84.21,1.11.55.28.33.4.77.33,1.19-.43,2.73-.96,6.15-1.39,8.99.49-.15,1.01-.23,1.52-.23.27,0,.54.02.8.06l1.52.24c1.4.22,2.62.97,3.46,2.11.84,1.14,1.18,2.54.96,3.94l-.11.73c-.4,2.55-2.65,4.48-5.23,4.48h0Z" />
      <path class="cls-5"
        d="M49.57,66.38s.02,0,.03,0l8.61.29c.29,0,.56.14.75.37.18.22.27.51.22.8-.47,3.01-1.07,6.86-1.52,9.85.65-.33,1.38-.51,2.14-.51.24,0,.48.02.73.06l1.52.24c2.61.41,4.41,2.86,4,5.48l-.11.73c-.37,2.36-2.41,4.06-4.74,4.06-.24,0-.49-.02-.74-.06l-1.52-.24c-2.61-.41-4.41-2.86-4-5.48l.11-.73c.01-.07.04-.13.05-.19.3-2.02.96-6.26,1.47-9.54l-6.5,2.06c-.1.03-.2.05-.31.05-.21,0-.41-.06-.58-.19-.26-.18-.42-.48-.43-.79l-.19-5.21c0-.28.1-.55.3-.75.19-.19.45-.3.72-.3h0ZM49.57,65.39h0c-.54,0-1.04.21-1.42.59-.39.39-.6.93-.58,1.49l.19,5.21c.02.62.34,1.21.85,1.57.34.24.74.37,1.16.37.21,0,.41-.03.61-.09l4.97-1.58c-.41,2.63-.94,6.1-1.21,7.91-.02.07-.04.14-.06.24l-.11.73c-.24,1.53.13,3.06,1.05,4.31.91,1.25,2.26,2.07,3.78,2.31l1.52.24c.3.05.6.07.89.07,2.83,0,5.28-2.11,5.72-4.9l.11-.73c.49-3.16-1.68-6.12-4.83-6.61l-1.52-.24c-.29-.05-.59-.07-.88-.07s-.61.03-.92.07c.41-2.68.89-5.76,1.28-8.27.09-.57-.07-1.15-.44-1.59-.36-.44-.9-.71-1.48-.73l-8.61-.29h-.07Z" />
      <path class="cls-7"
        d="M124.65,115.22c-.27,0-.55-.02-.82-.06l-1.52-.24c-2.88-.45-4.87-3.16-4.42-6.05l.11-.73c0-.06.03-.12.04-.17.28-1.87.86-5.62,1.35-8.77l-5.74,1.82c-.15.05-.3.07-.46.07-.31,0-.61-.1-.87-.28-.38-.27-.62-.71-.64-1.18l-.19-5.21c-.01-.42.15-.82.44-1.12.29-.29.67-.44,1.07-.44l8.66.29c.43.02.84.21,1.11.55.28.33.4.77.33,1.19-.43,2.73-.96,6.15-1.39,8.99.49-.15,1.01-.23,1.52-.23.27,0,.54.02.8.06l1.52.24c2.88.45,4.87,3.16,4.42,6.05l-.11.73c-.4,2.55-2.65,4.48-5.23,4.48h0Z" />
      <path class="cls-5"
        d="M113.02,93.36s.02,0,.03,0l8.61.29c.29.01.56.14.75.37.18.22.27.51.22.8-.47,3.01-1.07,6.86-1.52,9.85.65-.33,1.38-.51,2.14-.51.24,0,.48.02.73.06l1.52.24c2.61.41,4.41,2.86,4,5.48l-.11.73c-.37,2.37-2.41,4.06-4.74,4.06-.24,0-.49-.02-.74-.06l-1.52-.24c-2.61-.41-4.41-2.86-4-5.48l.11-.73c.01-.07.04-.13.05-.19.3-2.02.96-6.26,1.47-9.54l-6.5,2.06c-.1.03-.2.05-.31.05-.21,0-.41-.06-.58-.19-.26-.18-.42-.48-.43-.79l-.19-5.21c0-.28.1-.55.29-.75.19-.19.45-.3.72-.3h0ZM113.02,92.37c-.54,0-1.04.21-1.42.59-.39.39-.6.93-.58,1.49l.19,5.21c.02.62.34,1.21.85,1.57.34.24.74.37,1.15.37.21,0,.41-.03.61-.09l4.97-1.58c-.45,2.9-.95,6.18-1.21,7.91-.02.07-.04.14-.06.24l-.11.73c-.24,1.53.13,3.06,1.05,4.31.91,1.25,2.26,2.07,3.78,2.31l1.52.24c.3.05.6.07.89.07,2.83,0,5.28-2.11,5.72-4.9l.11-.73c.24-1.53-.13-3.06-1.05-4.31-.91-1.25-2.26-2.07-3.78-2.31l-1.52-.24c-.29-.05-.59-.07-.88-.07s-.61.03-.92.07c.41-2.68.89-5.76,1.28-8.27.09-.57-.07-1.15-.44-1.59-.36-.44-.9-.71-1.48-.73l-8.61-.29h-.07Z" />
      <path class="cls-4"
        d="M97.19,64.78l.11.73c.41,2.61,2.86,4.41,5.48,4l1.52-.24c2.61-.41,4.41-2.86,4-5.48l-.11-.73c-.01-.07-.04-.13-.05-.19-.3-2.02-.96-6.26-1.47-9.54l6.5,2.06c.3.1.63.05.89-.14.26-.18.42-.48.43-.79l.19-5.21c0-.28-.1-.55-.29-.75-.2-.2-.47-.31-.75-.3l-8.61.29c-.29.01-.56.14-.75.37-.18.22-.27.51-.22.8.47,3.01,1.07,6.86,1.52,9.85-.86-.43-1.85-.61-2.87-.45l-1.52.24c-2.61.41-4.41,2.86-4,5.48Z" />
      <path class="cls-5"
        d="M102.05,70.07c-2.56,0-4.82-1.87-5.23-4.48l-.11-.73c-.45-2.88,1.53-5.6,4.42-6.05l1.52-.24c.78-.12,1.57-.06,2.32.16-.44-2.84-.97-6.26-1.39-8.99-.07-.43.05-.86.33-1.19.27-.33.68-.53,1.11-.55l8.61-.29c.42-.01.83.15,1.12.44.29.29.45.7.44,1.12l-.19,5.21c-.02.47-.26.91-.64,1.18-.38.27-.88.35-1.33.2l-5.74-1.82c.49,3.14,1.06,6.89,1.34,8.75.02.07.04.13.05.19l.11.73c.45,2.88-1.53,5.6-4.42,6.05l-1.52.24c-.27.04-.55.06-.82.06ZM103.44,59.51c-.22,0-.43.02-.65.05l-1.52.24c-2.34.36-3.95,2.57-3.59,4.91h0l.11.73c.36,2.34,2.57,3.95,4.91,3.59l1.52-.24c2.34-.36,3.95-2.57,3.59-4.91l-.11-.73c-.02-.08-.04-.12-.05-.17-.31-2.04-.96-6.29-1.47-9.56-.03-.17.04-.34.17-.45.13-.11.31-.15.47-.1l6.5,2.06c.16.05.32.02.45-.07.13-.09.21-.24.22-.4l.19-5.21c0-.14-.05-.28-.15-.38-.1-.1-.24-.16-.38-.15l-8.61.29c-.15,0-.29.07-.38.19-.09.11-.13.26-.11.41.47,3.01,1.07,6.86,1.52,9.85.03.18-.05.37-.2.48-.15.11-.35.13-.51.04-.61-.3-1.26-.46-1.92-.46Z" />
      <path class="cls-6"
        d="M146.54,132.56c-2.58,0-4.83-1.93-5.23-4.48l-.11-.73c-.45-2.88,1.53-5.6,4.42-6.05l1.52-.24c.27-.04.54-.06.8-.06.51,0,1.02.08,1.52.23-.44-2.84-.97-6.26-1.39-8.99-.07-.43.05-.86.33-1.19.27-.33.68-.53,1.11-.55,0,0,8.62-.29,8.62-.29.45,0,.83.16,1.12.44.29.29.45.7.44,1.12l-.19,5.21c-.02.47-.26.91-.64,1.18-.25.18-.56.28-.87.28-.16,0-.31-.02-.46-.07l-5.74-1.82c.49,3.14,1.07,6.89,1.34,8.75.02.07.04.13.05.19l.11.73c.45,2.88-1.53,5.6-4.42,6.05l-1.52.24c-.27.04-.54.06-.82.06h0Z" />
      <path class="cls-5"
        d="M158.17,110.7c.27,0,.53.11.72.3.2.2.3.47.29.75l-.19,5.21c-.01.32-.17.61-.43.79-.17.12-.38.19-.58.19-.1,0-.21-.02-.31-.05l-6.5-2.06c.51,3.28,1.16,7.52,1.47,9.54.01.07.04.13.05.19l.11.73c.41,2.61-1.39,5.07-4,5.48l-1.52.24c-.25.04-.5.06-.74.06-2.32,0-4.37-1.7-4.74-4.06l-.11-.73c-.41-2.61,1.39-5.07,4-5.48l1.52-.24c.24-.04.49-.06.73-.06.76,0,1.49.18,2.14.51-.46-2.99-1.06-6.84-1.52-9.85-.04-.29.04-.58.22-.8.19-.22.46-.36.75-.37l8.61-.29s.02,0,.03,0h0ZM158.17,109.71h-.06s-8.62.29-8.62.29c-.57.02-1.11.28-1.48.73-.37.44-.53,1.02-.44,1.59.39,2.5.87,5.58,1.28,8.27-.3-.05-.61-.07-.92-.07s-.59.02-.88.07l-1.52.24c-3.15.49-5.32,3.46-4.83,6.61l.11.73c.43,2.79,2.89,4.9,5.72,4.9.3,0,.6-.02.89-.07l1.52-.24c1.53-.24,2.87-1.06,3.78-2.31.91-1.25,1.29-2.78,1.05-4.31l-.11-.73c-.02-.1-.04-.19-.06-.24-.21-1.43-.62-4.08-1.21-7.91l4.97,1.58c.2.06.4.09.61.09.42,0,.82-.13,1.16-.37.51-.36.83-.94.85-1.57l.19-5.21c.02-.55-.19-1.1-.59-1.49-.38-.38-.88-.59-1.42-.59h0Z" />
      <path class="cls-6"
        d="M147.89,158.16c-.28,0-.55-.11-.75-.34-.36-.41-.32-1.04.09-1.4l5.8-5.11c.41-.36,1.04-.32,1.4.09.36.41.32,1.04-.09,1.4l-5.8,5.11c-.19.17-.42.25-.66.25Z" />
      <path class="cls-1"
        d="M172.95,137.3l-1.62-1.88,10.2-8.78-6.77-2.11.74-2.37,8.91,2.78c.43.13.76.49.85.93.09.44-.06.9-.41,1.19l-11.9,10.24Z" />
      <path class="cls-1"
        d="M157.92,160.08c-1.59,0-3.07-.78-3.96-2.09l-4.76-7.02c-1.39-2.05-1.44-8.72-1.44-9.01,0-.2.12-.38.3-.46l18.4-7.99c.78-.52,1.69-.79,2.63-.79,1.55,0,3,.74,3.89,2l4.6,2.71c.14.08.23.22.24.38.15,1.53.79,9.24-1.29,10.65l-15.95,10.81c-.79.53-1.71.82-2.67.82h0Z" />
      <path class="cls-5"
        d="M169.09,133.22c1.37,0,2.72.66,3.55,1.87l4.69,2.76s.87,8.87-1.08,10.19l-15.95,10.81c-.73.49-1.56.73-2.39.73-1.37,0-2.72-.66-3.55-1.87l-4.75-7.02c-1.32-1.95-1.35-8.73-1.35-8.73l18.44-8.01c.73-.49,1.56-.73,2.39-.73h0ZM169.09,132.23c-1.02,0-2.01.29-2.86.85l-18.36,7.98c-.36.16-.6.52-.6.92,0,.73.08,7.15,1.52,9.28l4.75,7.02c.98,1.45,2.61,2.31,4.37,2.31,1.05,0,2.07-.31,2.94-.9l15.95-10.81c.71-.48,1.65-1.66,1.7-6.4.03-2.41-.19-4.62-.2-4.71-.03-.32-.21-.6-.49-.76l-4.51-2.66c-.99-1.33-2.56-2.12-4.23-2.12h0Z" />
      <path class="cls-7"
        d="M157.24,154.43c-1.59,0-3.07-.78-3.96-2.09l-4.76-7.02c-.71-1.05-.97-2.32-.73-3.58.24-1.25.95-2.34,2-3.05l15.95-10.81c.79-.53,1.71-.82,2.67-.82,1.59,0,3.07.78,3.96,2.09l4.76,7.02c.71,1.05.97,2.32.73,3.58-.24,1.25-.95,2.34-2,3.05l-15.95,10.81c-.79.53-1.71.82-2.67.82h0Z" />
      <path class="cls-5"
        d="M168.41,127.57c1.37,0,2.72.66,3.55,1.87l4.76,7.02c1.32,1.95.81,4.62-1.14,5.94l-15.95,10.81c-.73.49-1.56.73-2.39.73-1.37,0-2.72-.66-3.55-1.87l-4.76-7.02c-1.32-1.95-.81-4.62,1.14-5.94l15.95-10.81c.73-.49,1.56-.73,2.39-.73h0ZM168.41,126.57c-1.05,0-2.07.31-2.94.9l-15.95,10.81c-2.4,1.63-3.04,4.91-1.41,7.32l4.76,7.02c.98,1.45,2.61,2.31,4.37,2.31,1.05,0,2.07-.31,2.94-.9l15.95-10.81c1.16-.79,1.95-1.98,2.21-3.37.27-1.39-.02-2.79-.81-3.95l-4.76-7.02c-.98-1.45-2.61-2.31-4.37-2.31h0Z" />
    </g>
  </g>
</svg>