<?xml version="1.0" encoding="UTF-8"?>
<svg id="Capa_2" xmlns="http://www.w3.org/2000/svg" xmlns:xlink="http://www.w3.org/1999/xlink"
  viewBox="0 0 193.52 223.01">
  <defs>
    <style>
      .cls-1 {
        fill: aqua;
      }

      .cls-2 {
        fill: #29abe2;
      }

      .cls-3 {
        fill: #fff;
      }

      .cls-4 {
        filter: none;
      }

      .cls-5 {
        fill: #862291;
      }

      .cls-6 {
        fill: #1b1464;
      }

      .cls-7 {
        fill: #fcee21;
      }

      .cls-8 {
        fill: #ed1e79;
      }
    </style>
  </defs>
  <g id="_0">
    <g class="cls-4">
      <path class="cls-3"
        d="M192.79,138.99l-24.48-36.92c-.02-.16-.03-.31-.05-.47l-.05-.39c-.03-.24-.06-.49-.09-.73l-.41-2.62c1.91-1.49,2.86-3.26,2.82-5.27-.04-1.9-1.07-3.68-2.65-4.65.02-.01.03-.02.05-.04.16,0,.34,0,.51,0,4.65,0,8.41-1.98,10.32-5.43,2.16-3.89,1.19-8.22-.43-10.97-1.71-2.9-4.22-4.56-6.88-4.56-.32,0-.64.02-.96.07-1.57-2.18-3.69-3.36-6.04-3.36-1.38,0-2.72.44-3.88,1.26-.94.67-1.66,1.47-2.15,2.39-2.95-1.31-6.11-.8-8.17,1.25-1.08,1.07-1.66,2.29-1.74,3.62l-10.24-15.45c-.04-.21-.09-.41-.15-.61-.33-1.01-.99-1.86-1.86-2.43l-29.16-43.99c-.8-1.21-2.13-1.96-3.56-2.05-.74-.88-1.83-1.4-3-1.42-.02,0-.04,0-.06,0-.76-.97-1.91-1.54-3.15-1.54-.55,0-1.08.11-1.58.33l-2.03-3.07c-.81-1.22-2.17-1.95-3.65-1.95s-2.84.73-3.65,1.95l-3.28,4.94c-1.38.88-2.32,2.29-2.6,3.91l-11.63,17.54c-.94-.73-2.07-1.28-3.61-1.28-1.91,0-3.7.94-4.78,2.5-1.69,2.44-.9,4.78-.21,6.84.26.76.62,1.78,1.13,3.2l-8.29,12.51c-1.58.13-3.01,1.09-3.72,2.55l-.36.74-.82.12c-1.74.25-3.17,1.45-3.71,3.13-.55,1.68-.1,3.48,1.16,4.71h0l-8.46,12.76c-.86-.88-1.91-1.5-3.1-1.83.63-2.16.13-4.12-1.49-5.73-2.07-2.05-5.22-2.56-8.17-1.25-.48-.92-1.2-1.72-2.15-2.39-1.16-.82-2.51-1.26-3.88-1.26-2.35,0-4.47,1.19-6.04,3.36-.32-.05-.64-.07-.96-.07-2.67,0-5.17,1.66-6.88,4.56-1.62,2.75-2.58,7.08-.43,10.97,1.91,3.45,5.67,5.42,10.32,5.42.18,0,.35,0,.51,0,.02.01.03.02.05.04-1.6,1-2.61,2.77-2.65,4.65-.04,2.01.91,3.78,2.82,5.27l-.55,3.75c-.03.26-.06.52-.08.82l-.04.36c-.03.37-.06.74-.09,1.1v.12c-.04.42-.06.84-.08,1.3v.2c-.02.35-.03.7-.03,1.06v.4c0,.3,0,.6.01.92l.02.47c0,.28.02.57.04.86l.03.52c.02.24.04.48.06.72L.73,131.18c-.89,1.34-.97,3.06-.2,4.48.76,1.42,2.24,2.3,3.85,2.3h3.26c0,.64.17,1.27.47,1.84.7,1.3,2.05,2.11,3.52,2.11h0c.44.56,1.02,1,1.68,1.26.06.16.14.31.22.46.8,1.5,2.35,2.43,4.05,2.43h35.11c6.32,7.34,14.98,11.26,21.4,13.3.1.68.2,1.24.31,1.71.74,3.18,2.19,5.68,4.42,7.63-2.77,4.29-3.9,8.66-3.47,13.33.64,7,4.2,12.03,10.87,15.33-.31.46-.59.92-.84,1.39l-.1.2c-.6,1.23-.88,2.29-.9,5.01-.2.14-.41.29-.6.44-.68.52-1.2,1.22-1.52,2.03-.12.3-.22.61-.3.92-3.2-1.45-6.43-2.72-9.04-2.98-4.23-.42-7.77.78-10.25,3.47-3.81,4.13-3.43,10.15-3.38,10.83.2,2.44,2.28,4.36,4.73,4.36h32.71c.53,0,1.04-.08,1.53-.25.49.17,1.01.25,1.53.25h32.71c2.45,0,4.53-1.91,4.73-4.36.06-.67.43-6.69-3.38-10.83-2.48-2.69-6.02-3.89-10.25-3.47-2.61.26-5.83,1.53-9.04,2.98-.08-.31-.18-.62-.3-.92-.31-.8-.84-1.5-1.52-2.03-.2-.16-.41-.31-.63-.45-.06-2.02-.15-3.78-.28-5.25-.11-1.23-.35-2.35-.73-3.43,3.66-4.97,5.1-10.63,4.28-16.85-.79-6-4.22-10.8-10.48-14.64.46-.81.9-1.65,1.32-2.53,7.56-1.61,17.88-5.55,25.41-15.16h57.27c1.7,0,3.25-.93,4.05-2.42.79-1.47.72-3.25-.18-4.66Z" />
      <path class="cls-8"
        d="M17.58,141.77c-.11,0-.21-.06-.26-.16-.05-.1-.05-.21.01-.31L103,12.07c.06-.08.15-.13.25-.13s.19.05.25.13l85.67,129.23c.06.09.07.21.01.31-.05.1-.15.16-.26.16H17.58Z" />
      <path class="cls-6"
        d="M103.25,12.24l85.67,129.23H17.58L103.25,12.24h0ZM103.25,11.64c-.2,0-.39.1-.5.27L17.08,141.14c-.12.18-.13.42-.03.61.1.19.31.31.53.31h171.34c.22,0,.42-.12.53-.31.1-.19.09-.43-.03-.61L103.75,11.91c-.11-.17-.3-.27-.5-.27h0Z" />
      <polygon class="cls-3" points="100.46 139.47 14.79 139.47 100.46 10.23 186.13 139.47 100.46 139.47" />
      <polygon class="cls-1" points="97.3 137.92 11.63 137.92 97.3 8.69 182.97 137.92 97.3 137.92" />
      <path class="cls-3"
        d="M62.44,91.99c.07.11.19.17.31.17.07,0,.14-.02.2-.06.17-.11.22-.34.11-.52l-14.73-22.83c-.11-.17-.34-.22-.52-.11-.17.11-.22.34-.11.52l14.73,22.83Z" />
      <path class="cls-3"
        d="M64.79,60.64c.05.16.2.25.35.25.04,0,.08,0,.12-.02.2-.07.3-.28.23-.47l-3.76-11.03c-.07-.2-.28-.3-.47-.23-.2.07-.3.28-.23.47l3.76,11.03Z" />
      <path class="cls-3"
        d="M35.59,109.7l-2.59-1.16c-.19-.08-.41,0-.49.19-.08.19,0,.41.19.49l2.59,1.16s.1.03.15.03c.14,0,.28-.08.34-.22.08-.19,0-.41-.19-.49Z" />
      <path class="cls-3"
        d="M138.87,100.28l-47.2,32.94,39.4-62.61c.11-.17.06-.41-.12-.52-.17-.11-.41-.06-.52.12l-38.63,61.39,27.97-80.53c.07-.19-.04-.41-.23-.48-.2-.07-.41.04-.48.23l-28.01,80.65,8.14-82.74c.02-.21-.13-.39-.34-.41-.21-.02-.39.13-.41.34l-8.13,82.57-10.45-82.45c-.03-.2-.21-.35-.42-.32-.2.03-.35.21-.32.42l10.41,82.08-22.29-65.46c-.07-.2-.28-.3-.47-.23-.2.07-.3.28-.23.47l22.5,66.07-22.02-34.11c-.11-.17-.34-.22-.52-.11-.17.11-.22.34-.11.52l22.98,35.61-50.21-22.43c-.19-.09-.41,0-.49.19-.08.19,0,.41.19.49l51.36,22.95s0,0,0,0c0,0,.01,0,.02,0,0,0,.01,0,.02,0,.03,0,.07.02.1.02,0,0,0,0,0,0h0s0,0,0,0c.03,0,.06,0,.09-.01,0,0,0,0,0,0,0,0,0,0,.01,0,0,0,.02,0,.03-.01.02,0,.03-.01.04-.02,0,0,.01,0,.02,0l48.72-34c.17-.12.21-.35.09-.52-.12-.17-.35-.21-.52-.09Z" />
      <path class="cls-3"
        d="M143.47,97.53c-.12-.17-.35-.21-.52-.09l-1.85,1.29c-.17.12-.21.35-.09.52.07.1.19.16.31.16.07,0,.15-.02.21-.07l1.85-1.29c.17-.12.21-.35.09-.52Z" />
      <path class="cls-3"
        d="M77.2,31.15s.03,0,.05,0c.2-.03.35-.21.32-.42l-.68-5.4c-.03-.2-.21-.35-.42-.32-.2.03-.35.21-.32.42l.68,5.4c.02.19.19.33.37.33Z" />
      <path class="cls-3"
        d="M77.48,35.93l.85,6.7c.02.19.18.33.37.33.02,0,.03,0,.05,0,.2-.03.35-.21.32-.42l-.85-6.7c-.03-.2-.21-.35-.42-.32-.2.03-.35.21-.32.42Z" />
      <path class="cls-3"
        d="M99.39,42.95s.02,0,.04,0c.19,0,.35-.14.37-.34l.61-6.19c.02-.21-.13-.39-.34-.41-.21-.01-.39.13-.41.34l-.61,6.19c-.02.21.13.39.34.41Z" />
      <path class="cls-3"
        d="M100.47,31.96s.02,0,.04,0c.19,0,.35-.14.37-.34l.61-6.21c.02-.21-.13-.39-.34-.41-.21-.02-.39.13-.41.34l-.61,6.21c-.02.21.13.39.34.41Z" />
      <path class="cls-5"
        d="M175.72,133.97H4.37c-.14,0-.26-.08-.33-.2-.07-.12-.06-.27.02-.38L89.73,4.16c.14-.21.48-.21.62,0l85.67,129.23c.08.12.08.26.02.38-.06.12-.19.2-.33.2ZM5.07,133.22h169.95L90.05,5.04,5.07,133.22Z" />
      <path class="cls-3"
        d="M175.72,134.99H4.37c-.51,0-.99-.28-1.23-.74-.24-.45-.22-1,.07-1.43L88.88,3.59c.51-.77,1.81-.77,2.32,0l85.67,129.23c.28.43.31.98.07,1.43-.24.45-.71.73-1.23.73ZM6.97,132.2h166.15L90.05,6.88,6.97,132.2Z" />
      <path class="cls-5"
        d="M175.72,133.97H4.37c-.14,0-.26-.08-.33-.2-.07-.12-.06-.27.02-.38L89.73,4.16c.14-.21.48-.21.62,0l85.67,129.23c.08.12.08.26.02.38-.06.12-.19.2-.33.2ZM5.07,133.22h169.95L90.05,5.04,5.07,133.22Z" />
      <path class="cls-5"
        d="M64.2,92.01c.07.11.19.17.31.17.07,0,.14-.02.2-.06.17-.11.22-.34.11-.52l-14.73-22.83c-.11-.17-.34-.22-.52-.11-.17.11-.22.34-.11.52l14.73,22.83Z" />
      <path class="cls-5"
        d="M66.55,60.65c.05.16.2.25.35.25.04,0,.08,0,.12-.02.2-.07.3-.28.23-.47l-3.76-11.03c-.07-.2-.28-.3-.47-.23-.2.07-.3.28-.23.47l3.76,11.03Z" />
      <path class="cls-5"
        d="M37.35,109.71l-2.59-1.16c-.19-.08-.41,0-.49.19-.08.19,0,.41.19.49l2.59,1.16s.1.03.15.03c.14,0,.28-.08.34-.22.08-.19,0-.41-.19-.49Z" />
      <path class="cls-5"
        d="M140.63,100.29l-47.2,32.94,39.4-62.61c.11-.17.06-.41-.12-.52-.17-.11-.41-.06-.52.12l-38.63,61.39,27.97-80.53c.07-.19-.04-.41-.23-.48-.2-.07-.41.04-.48.23l-28.01,80.65,8.14-82.74c.02-.21-.13-.39-.34-.41-.21-.02-.39.13-.41.34l-8.13,82.57-10.45-82.45c-.03-.2-.21-.35-.42-.32-.2.03-.35.21-.32.42l10.41,82.08-22.29-65.46c-.07-.2-.28-.3-.47-.23-.2.07-.3.28-.23.47l22.5,66.07-22.02-34.11c-.11-.17-.34-.22-.52-.11-.17.11-.22.34-.11.52l22.98,35.61-50.21-22.43c-.19-.09-.41,0-.49.19-.08.19,0,.41.19.49l51.36,22.95s0,0,0,0c0,0,.01,0,.02,0,0,0,.01,0,.02,0,.03,0,.07.02.1.02,0,0,0,0,0,0h0s0,0,0,0c.03,0,.06,0,.09-.01,0,0,0,0,0,0,0,0,0,0,.02,0,0,0,.02,0,.03-.01.02,0,.03-.01.04-.02,0,0,.01,0,.02,0l48.72-34c.17-.12.21-.35.09-.52-.12-.17-.35-.21-.52-.09Z" />
      <path class="cls-5"
        d="M145.23,97.54c-.12-.17-.35-.21-.52-.09l-1.85,1.29c-.17.12-.21.35-.09.52.07.1.19.16.31.16.07,0,.15-.02.21-.07l1.85-1.29c.17-.12.21-.35.09-.52Z" />
      <path class="cls-5"
        d="M78.96,31.17s.03,0,.05,0c.2-.03.35-.21.32-.42l-.68-5.4c-.03-.2-.21-.35-.42-.32-.2.03-.35.21-.32.42l.68,5.4c.02.19.18.33.37.33Z" />
      <path class="cls-5"
        d="M79.24,35.94l.85,6.7c.02.19.18.33.37.33.02,0,.03,0,.05,0,.2-.03.35-.21.32-.42l-.85-6.7c-.03-.2-.21-.35-.42-.32-.2.03-.35.21-.32.42Z" />
      <path class="cls-5"
        d="M101.15,42.97s.02,0,.04,0c.19,0,.35-.14.37-.34l.61-6.19c.02-.21-.13-.39-.34-.41-.21-.01-.39.13-.41.34l-.61,6.19c-.02.21.13.39.34.41Z" />
      <path class="cls-5"
        d="M102.23,31.98s.02,0,.04,0c.19,0,.35-.14.37-.34l.61-6.21c.02-.21-.13-.39-.34-.41-.21-.02-.39.13-.41.34l-.61,6.21c-.02.21.13.39.34.41Z" />
      <path class="cls-3"
        d="M109.46,35.92c-.28-.16-.59-.24-.9-.24-.52,0-1.01.22-1.35.6-2.92,3.25-7.48,8.31-10.12,11.21-1.74-6.44-5.73-22.47-9.07-36.14-.2-.82-.92-1.39-1.76-1.39-.01,0-.05,0-.07,0-.87.04-1.59.68-1.73,1.53-2.66,16.98-4.32,28.02-5.02,33.5-1.16-1.21-2.56-2.7-3.94-4.15-4.71-4.96-6.74-7.09-7.89-8.25-1.13-1.14-1.56-1.53-2.33-1.53-.6,0-1.16.29-1.5.78-.52.75-.33,1.43.3,3.28.68,2.01,2.14,5.99,4.77,13.1,2.67,7.2,5.39,14.45,5.42,14.53.27.7.95,1.18,1.7,1.18h24.87c.8,0,1.49-.51,1.73-1.27l7.71-24.61c.25-.81-.1-1.7-.83-2.12Z" />
      <path class="cls-8"
        d="M76.51,62.74c-.25,0-.47-.15-.56-.39,0,0-2.68-7.13-5.33-14.3-5.42-14.62-5.38-14.67-5.13-15.03.11-.16.3-.26.49-.26q.39,0,9.19,9.26c2.19,2.31,4.44,4.68,5.63,5.91.29-2.87,1.42-11.13,5.23-35.44.04-.28.28-.49.56-.5,0,0,.02,0,.03,0,.27,0,.51.19.58.45,3.3,13.53,8.24,33.42,9.52,37.69,1.85-2,7.5-8.27,11.42-12.63.12-.13.28-.2.44-.2.1,0,.2.03.29.08.24.14.36.43.27.7l-7.59,24.23c-.08.25-.31.42-.57.42h-24.48Z" />
      <path class="cls-6"
        d="M86.63,12.59s9.44,38.65,9.86,38.65c0,0,0,0,0,0,.36-.27,12.09-13.33,12.09-13.33l-7.59,24.23h-24.48s-10.8-28.78-10.52-28.78,15.12,15.89,15.31,15.89c0,0,0,0,0-.01-.32-.55,5.34-36.65,5.34-36.65h0ZM86.63,11.4s-.03,0-.05,0c-.57.02-1.04.44-1.13,1.01-.01.09-1.43,9.13-2.79,18.13-1.34,8.84-2.01,13.52-2.32,16.06-1.27-1.33-3.07-3.22-4.73-4.97-2.06-2.18-4.2-4.43-5.86-6.16q-3.15-3.29-3.76-3.29c-.39,0-.76.19-.98.51q-.41.59,1.43,5.69c.87,2.4,2.09,5.73,3.63,9.89,2.62,7.08,5.3,14.23,5.33,14.3.17.47.62.77,1.12.77h24.48c.52,0,.98-.34,1.14-.84l7.59-24.23c.17-.53-.06-1.11-.55-1.39-.18-.11-.39-.16-.59-.16-.33,0-.65.14-.89.4-3.48,3.87-8.37,9.3-10.7,11.84-1.6-5.75-6.14-24.04-9.22-36.64-.13-.54-.61-.91-1.16-.91h0Z" />
      <path class="cls-5"
        d="M84.61,34.79c-.29,1.39-.95,4.31-1.21,5.7-.2,1.07,6.39,13.02,6.39,13.02l2.83-14.18-4.52-19.55s-2.89,12.09-3.49,15Z" />
      <path class="cls-7"
        d="M82.81,52.74s4.65-16.11,7.22-26.38c-1.86-7.49-3.39-13.77-3.39-13.77,0,0-5.66,36.1-5.34,36.65s-15.03-15.88-15.3-15.88c-.17,0,3.99,11.25,7.13,19.69-1.05-2.94-2.78-12.3-2.78-12.3l12.47,11.99Z" />
      <path class="cls-5"
        d="M99.69,60.6s-19.86,1.09-23.21,1.44c.02.06.04.1.04.1h24.48l6.79-21.67c-.37.88-8.1,20.13-8.1,20.13Z" />
      <path class="cls-7"
        d="M99.79,218.64c-.16,0-.31-.11-.36-.26-.53-1.7-.45-3.74.24-6.24-1.26-1.11-1.66-2.49-1.19-4.1.02-.08.07-.14.13-.19,1.6-1.23,3.65-1.91,5.75-1.91s4.12.68,5.71,1.91c.05.04.09.1.12.16.56,1.43.15,2.95-1.23,4.5-.12.21-.91,1.66-.2,2.29.45-.09,2.09-.88,3.67-1.64,3.67-1.76,8.68-4.17,11.59-4.46.41-.04.81-.06,1.19-.06,2.28,0,4.1.72,5.41,2.14,2.59,2.81,2.25,7.32,2.23,7.51-.02.19-.18.34-.37.34h-32.71Z" />
      <path class="cls-6"
        d="M104.36,206.31c1.94,0,3.88.6,5.48,1.83.56,1.43-.02,2.84-1.18,4.15,0,0-1.24,2.03-.03,2.88.02,0,.04.01.07.01,1.1,0,10.93-5.66,15.36-6.1.4-.04.79-.06,1.15-.06,8.04,0,7.28,9.25,7.28,9.25h-32.71c-.57-1.83-.36-3.96.3-6.26-1.41-1.14-1.67-2.45-1.25-3.86,1.57-1.2,3.54-1.83,5.53-1.83h0ZM104.36,205.57c-2.19,0-4.31.7-5.98,1.98-.13.1-.22.23-.26.38-.49,1.69-.11,3.14,1.13,4.32-.65,2.47-.71,4.52-.17,6.23.1.31.39.52.71.52h32.71c.39,0,.71-.3.75-.69.02-.2.37-4.86-2.33-7.79-1.38-1.5-3.3-2.26-5.69-2.26-.39,0-.81.02-1.23.06-2.97.3-8.02,2.72-11.71,4.49-1.3.62-2.75,1.32-3.37,1.54-.21-.46.18-1.32.36-1.64,1.45-1.66,1.88-3.29,1.27-4.86-.05-.13-.13-.24-.24-.32-1.66-1.28-3.76-1.99-5.94-1.99h0Z" />
      <path class="cls-8" d="M99.53,217.04c.05.42.13.84.26,1.23h32.71s.04-.48,0-1.23h-32.97Z" />
      <path class="cls-8"
        d="M109.84,208.14c-3.23-2.5-7.91-2.38-11,0-.18.63-.22,1.24-.1,1.83,3.67-1.51,7.71-.68,11.19-1.53-.03-.1-.05-.2-.09-.3Z" />
      <path class="cls-6"
        d="M103.86,209.49c-1.95,0-3.33-.6-3.42-.64-.09-.04-.14-.15-.09-.25.04-.09.15-.14.25-.09.03.02,3.46,1.5,7.14-.28.09-.05.2,0,.25.09.04.09,0,.2-.09.25-1.45.7-2.85.92-4.03.92Z" />
      <path class="cls-6"
        d="M125.89,217.18h-18.21c-.1,0-.19-.08-.19-.19s.08-.19.19-.19h18.21c.1,0,.19.08.19.19s-.08.19-.19.19Z" />
      <path class="cls-6"
        d="M106.33,217.18h-1.48c-.1,0-.19-.08-.19-.19s.08-.19.19-.19h1.48c.1,0,.19.08.19.19s-.08.19-.19.19Z" />
      <path class="cls-6"
        d="M107.42,212.9c-.1,0-.18-.08-.19-.18,0-.1.07-.19.18-.2.91-.05,1.68-.5,1.76-.56.07-.08.18-.08.25-.01.08.07.08.19.01.27-.07.08-.93.62-2.01.67,0,0,0,0-.01,0Z" />
      <path class="cls-5"
        d="M103.84,209.61c-1.27,0-3.01-.37-3.19-.6-.04-.05-.06-.12-.06-.18,0-3.82-.1-6.89-.29-9.14-.01-.12-.04-.25-.08-.4-.03-.12,0-.24.1-.32,1.61-1.27,3.46-2.78,5.11-4.54.06-.06.14-.09.22-.09,0,0,.01,0,.02,0,.09,0,.17.05.22.12.97,1.34,1.52,2.84,1.67,4.59.21,2.39.32,5.57.32,9.45,0,.12-.07.23-.18.27-.07.03-1.7.72-3.44.82-.14,0-.28.01-.43.01Z" />
      <path class="cls-6"
        d="M105.65,194.64c.86,1.19,1.46,2.63,1.61,4.44.25,2.81.32,6.34.32,9.43,0,0-1.64.7-3.34.79-.14,0-.27.01-.41.01-1.49,0-2.91-.43-2.96-.49,0-3.02-.06-6.5-.3-9.16-.01-.16-.05-.31-.09-.45,1.67-1.32,3.49-2.8,5.15-4.57h0ZM105.65,194.04c-.16,0-.32.07-.43.19-1.64,1.75-3.48,3.24-5.08,4.51-.19.15-.27.4-.2.63.04.13.06.24.07.34.2,2.24.29,5.3.29,9.11,0,.13.04.26.12.36.32.42,2.42.72,3.43.72.15,0,.29,0,.44-.01,1.78-.1,3.47-.81,3.54-.84.22-.09.36-.31.36-.55,0-3.89-.11-7.08-.32-9.48-.16-1.8-.72-3.35-1.73-4.74-.1-.14-.27-.23-.45-.25-.01,0-.03,0-.04,0h0Z" />
      <path class="cls-6"
        d="M100.88,207.39c0,.48,0,.97,0,1.44.05.06,1.74.57,3.36.48,1.7-.1,3.34-.79,3.34-.79,0-.22,0-.44,0-.66-2.23.14-4.47.31-6.7-.46Z" />
      <path class="cls-6"
        d="M107.19,198.6c-.22-1.58-.76-2.88-1.54-3.96-1.65,1.76-3.48,3.25-5.15,4.57.04.15.07.29.09.45.03.33.06.68.08,1.03,1.66-1.94,5-3.81,6.52-2.09Z" />
      <path class="cls-3"
        d="M124.07,209.08c-2.02.2-5.17,1.49-8.1,2.83,5.55-1.36,11.43-.51,16.2,2.72-.68-2.8-2.63-6.1-8.1-5.55Z" />
      <path class="cls-6"
        d="M131.19,217.18h-2.87c-.1,0-.19-.08-.19-.19s.08-.19.19-.19h2.87c.1,0,.19.08.19.19s-.08.19-.19.19Z" />
      <path class="cls-6"
        d="M102.58,217.18h-2.91c-.1,0-.19-.08-.19-.19s.08-.19.19-.19h2.91c.1,0,.19.08.19.19s-.08.19-.19.19Z" />
      <path class="cls-6"
        d="M117.28,214.15s-.03,0-.04,0c-.1-.02-.16-.13-.14-.23.79-3.27,3.79-4.61,3.92-4.67.1-.04.2,0,.25.1.04.09,0,.2-.1.25-.03.01-2.96,1.33-3.7,4.41-.02.09-.1.14-.18.14Z" />
      <path class="cls-6"
        d="M102.99,212.74c-2.11,0-3.53-.53-3.59-.55-.1-.04-.15-.14-.11-.24.04-.1.14-.14.24-.11.02,0,1.52.57,3.67.53h0c.1,0,.19.08.19.18,0,.1-.08.19-.18.19-.07,0-.14,0-.21,0Z" />
      <path class="cls-6"
        d="M101.45,214.35c-.1,0-.19-.08-.19-.19v-1.45c0-.1.08-.19.19-.19s.19.08.19.19v1.45c0,.1-.08.19-.19.19Z" />
      <path class="cls-6"
        d="M132.38,215.94h-5.6c-.1,0-.19-.08-.19-.19s.08-.19.19-.19h5.6c.1,0,.19.08.19.19s-.08.19-.19.19Z" />
      <path class="cls-7"
        d="M64.01,218.64c-.19,0-.36-.15-.37-.34-.02-.19-.35-4.7,2.23-7.51,1.31-1.42,3.13-2.14,5.41-2.14.38,0,.78.02,1.19.06,2.91.29,7.92,2.7,11.59,4.46,1.58.76,3.22,1.55,3.67,1.64.71-.64-.07-2.08-.2-2.29-1.37-1.56-1.79-3.07-1.23-4.5.02-.06.07-.12.12-.16,1.59-1.23,3.62-1.91,5.71-1.91s4.15.68,5.75,1.91c.06.05.11.12.13.19.47,1.61.07,2.99-1.19,4.1.69,2.5.77,4.54.24,6.24-.05.16-.19.26-.36.26h-32.71Z" />
      <path class="cls-6"
        d="M92.15,206.31c1.98,0,3.96.63,5.53,1.83.41,1.41.15,2.72-1.25,3.86.66,2.3.88,4.43.3,6.26h-32.71s-.76-9.25,7.28-9.25c.37,0,.75.02,1.15.06,4.43.44,14.27,6.1,15.36,6.1.03,0,.05,0,.07-.01,1.21-.85-.03-2.88-.03-2.88-1.16-1.3-1.74-2.71-1.18-4.15,1.6-1.23,3.54-1.83,5.48-1.83h0ZM92.15,205.57h0c-2.17,0-4.28.71-5.94,1.99-.11.08-.19.19-.24.32-.61,1.57-.18,3.2,1.27,4.86.18.32.57,1.18.36,1.64-.62-.22-2.07-.92-3.37-1.54-3.69-1.77-8.74-4.2-11.71-4.49-.42-.04-.83-.06-1.23-.06-2.39,0-4.31.76-5.69,2.26-2.7,2.93-2.35,7.59-2.33,7.79.03.39.36.69.75.69h32.71c.33,0,.62-.21.71-.52.54-1.72.48-3.76-.17-6.23,1.24-1.19,1.62-2.64,1.13-4.32-.04-.15-.14-.29-.26-.38-1.67-1.28-3.79-1.98-5.98-1.98h0Z" />
      <path class="cls-3"
        d="M72.44,209.08c2.02.2,5.17,1.49,8.1,2.83-5.55-1.36-11.43-.51-16.2,2.72.68-2.8,2.63-6.1,8.1-5.55Z" />
      <path class="cls-8" d="M96.98,217.04c-.05.42-.13.84-.26,1.23h-32.71s-.04-.48,0-1.23h32.97Z" />
      <path class="cls-8"
        d="M86.67,208.14c3.23-2.5,7.91-2.38,11,0,.18.63.22,1.24.1,1.83-3.67-1.51-7.71-.68-11.19-1.53.03-.1.05-.2.09-.3Z" />
      <path class="cls-6"
        d="M92.65,209.49c-1.19,0-2.58-.22-4.03-.92-.09-.04-.13-.16-.09-.25.04-.09.16-.13.25-.09,3.68,1.78,7.1.29,7.14.28.09-.04.2,0,.25.09.04.09,0,.2-.09.25-.09.04-1.47.64-3.42.64Z" />
      <path class="cls-6"
        d="M68.19,217.18h-2.87c-.1,0-.19-.08-.19-.19s.08-.19.19-.19h2.87c.1,0,.19.08.19.19s-.08.19-.19.19Z" />
      <path class="cls-6"
        d="M88.84,217.18h-18.21c-.1,0-.19-.08-.19-.19s.08-.19.19-.19h18.21c.1,0,.19.08.19.19s-.08.19-.19.19Z" />
      <path class="cls-6"
        d="M91.66,217.18h-1.48c-.1,0-.19-.08-.19-.19s.08-.19.19-.19h1.48c.1,0,.19.08.19.19s-.08.19-.19.19Z" />
      <path class="cls-6"
        d="M96.84,217.18h-2.91c-.1,0-.19-.08-.19-.19s.08-.19.19-.19h2.91c.1,0,.19.08.19.19s-.08.19-.19.19Z" />
      <path class="cls-6"
        d="M79.23,214.15c-.08,0-.16-.06-.18-.14-.74-3.08-3.67-4.4-3.7-4.41-.09-.04-.14-.15-.1-.25.04-.09.15-.14.25-.1.13.06,3.13,1.4,3.92,4.67.02.1-.04.2-.14.23-.01,0-.03,0-.04,0Z" />
      <path class="cls-6"
        d="M93.52,212.74c-.07,0-.14,0-.21,0-.1,0-.19-.09-.18-.19,0-.1.09-.17.19-.18,2.16.04,3.65-.52,3.67-.53.1-.04.2.01.24.11.04.1-.01.2-.11.24-.06.02-1.48.55-3.59.55Z" />
      <path class="cls-6"
        d="M89.09,212.9s0,0-.01,0c-1.07-.06-1.93-.59-2.01-.67-.07-.08-.06-.2.02-.26.07-.06.18-.06.25,0,.1.07.85.51,1.76.56.1,0,.18.09.18.2,0,.1-.09.18-.19.18Z" />
      <path class="cls-6"
        d="M95.06,214.35c-.1,0-.19-.08-.19-.19v-1.45c0-.1.08-.19.19-.19s.19.08.19.19v1.45c0,.1-.08.19-.19.19Z" />
      <path class="cls-6"
        d="M69.73,215.94h-5.6c-.1,0-.19-.08-.19-.19s.08-.19.19-.19h5.6c.1,0,.19.08.19.19s-.08.19-.19.19Z" />
      <path class="cls-8"
        d="M85.62,167.72s-.07,0-.11-.02c-2.64-1.02-5.81-2.8-6.94-7.6-1.08-4.63-1.39-24.82-1.4-25.68,0-.1.05-.19.12-.25.05-.04.11-.06.17-.06.03,0,.07,0,.1.02l7.66,2.75c.13.05.21.17.2.31-.02.22-2.08,21.75,2.96,23.81.6.24,1.19.47,1.78.7.37.14.73.28,1.09.42.1.04.17.13.19.23.02.11-.03.21-.11.28-2.19,1.71-3.99,3.35-5.5,4.99-.06.06-.14.1-.22.1Z" />
      <path class="cls-6"
        d="M77.47,134.42l7.66,2.75s-2.16,21.94,3.15,24.12c.96.4,1.93.75,2.88,1.12-2.04,1.6-3.92,3.26-5.54,5.02-2.63-1.02-5.67-2.75-6.76-7.39-1.09-4.65-1.4-25.61-1.4-25.61h0ZM77.47,133.82c-.12,0-.24.04-.35.11-.16.11-.25.3-.25.49.01.86.32,21.08,1.41,25.74,1.16,4.94,4.41,6.77,7.12,7.81.07.03.14.04.21.04.16,0,.32-.07.44-.19,1.5-1.63,3.29-3.25,5.47-4.96.17-.13.25-.34.22-.56-.03-.21-.17-.39-.37-.47-.36-.14-.73-.28-1.09-.42-.58-.22-1.19-.45-1.78-.69-4.02-1.65-3.37-17.53-2.78-23.51.03-.27-.13-.53-.39-.62l-7.66-2.75c-.07-.02-.13-.04-.2-.04h0Z" />
      <path class="cls-8"
        d="M92.34,209.61c-1.63-.05-3.3-.73-3.37-.76-.11-.04-.18-.15-.18-.26-.3-6.44-.02-7.02.34-7.75l.06-.12c1.13-2.11,3.05-3.82,4.95-5.36.49-.39.98-.79,1.49-1.19,1.5-1.18,3.04-2.4,4.37-3.72,2.18-2.16,4.59-5.31,3.9-10.54-.53-4.06-4.85-6.65-11.64-9.52-.09-.04-.16-.12-.18-.22-.02-.1.02-.2.09-.27,1.61-1.49,3.56-3.03,5.96-4.72.05-.04.11-.05.17-.05.04,0,.09,0,.13.03,5.74,2.73,11.75,6.5,12.71,13.8.8,6.06-.92,11.26-5.26,15.88-1.68,1.79-3.55,3.31-5.18,4.6l-.54.43c-1.73,1.37-3.36,2.65-4.2,3.76-.01.92.04,2.73.15,5.11,0,.13-.08.25-.2.3-.07.02-1.68.57-3.36.57h-.21Z" />
      <path class="cls-6"
        d="M98.3,165.43c6.73,3.2,11.68,7.04,12.54,13.57.94,7.12-1.76,11.98-5.19,15.64-1.65,1.76-3.48,3.25-5.15,4.57-.18.14-.36.29-.54.43-1.78,1.4-3.47,2.73-4.31,3.9-.02.97.05,2.95.15,5.22,0,0-1.61.56-3.26.56-.07,0-.13,0-.2,0-1.6-.05-3.27-.73-3.27-.73-.29-6.36-.02-6.93.31-7.61l.06-.12c1.08-2.01,2.87-3.65,4.87-5.27.49-.39.98-.79,1.49-1.19,1.55-1.23,3.08-2.43,4.4-3.74,2.76-2.74,4.63-5.94,3.99-10.79-.54-4.14-4.79-6.78-11.82-9.75,1.74-1.6,3.76-3.17,5.93-4.69h0ZM98.3,164.83c-.12,0-.24.04-.34.11-2.41,1.7-4.37,3.25-5.99,4.74-.15.14-.22.34-.18.54.03.2.17.37.36.45,6.69,2.82,10.95,5.36,11.46,9.28.53,4.03-.61,7.11-3.82,10.29-1.32,1.31-2.86,2.52-4.35,3.7-.51.4-1.01.8-1.49,1.19-1.93,1.56-3.87,3.3-5.02,5.45l-.06.13c-.4.81-.68,1.4-.38,7.91.01.23.15.44.37.52.07.03,1.79.73,3.48.78.07,0,.15,0,.22,0,1.73,0,3.38-.57,3.45-.59.25-.09.41-.33.4-.59-.11-2.29-.16-4.05-.15-4.99.83-1.06,2.4-2.31,4.07-3.62l.09-.07.47-.37c1.63-1.29,3.52-2.82,5.21-4.63,4.4-4.7,6.15-9.97,5.34-16.13-.98-7.44-7.06-11.27-12.87-14.03-.08-.04-.17-.06-.26-.06h0Z" />
      <path class="cls-1"
        d="M110.84,179c-.63-4.81-3.49-8.16-7.63-10.87,7.03,5.14,8.32,11.53,6.74,17.49-1.59,6.01-7.81,11.43-13.69,15.72-2.65,1.98-.53,5.71-.56,4.97-.04-1.2-.06-2.18-.05-2.78.84-1.17,2.53-2.5,4.31-3.9.18-.14.36-.28.54-.43,1.67-1.32,3.49-2.8,5.15-4.57,3.43-3.66,6.12-8.52,5.19-15.64Z" />
      <path class="cls-6"
        d="M92.35,209.31c1.72.05,3.46-.55,3.46-.55-.03-.54-.05-1.07-.07-1.56-2.16.86-4.21,1.37-6.24,1.54.59.21,1.73.55,2.84.58Z" />
      <path class="cls-6"
        d="M98.3,165.43c-2.16,1.52-4.19,3.09-5.93,4.69,1.52.64,2.9,1.27,4.15,1.9,1.32-2.86,3.46-4.59,6.16-4.21-1.35-.84-2.82-1.63-4.39-2.38Z" />
      <path class="cls-5"
        d="M86.88,180.97c-.31-3.33,1.56-6.81,5.7-10.64,1.59-1.46,3.52-2.99,5.89-4.67.02-.02.04-.04.06-.06,7.89-9.94,9.54-27.52,9.56-27.7.01-.15-.08-.28-.23-.32l-6.81-1.6s-.05,0-.07,0c-.13,0-.25.09-.29.23-.06.23-5.77,22.86-9.72,25.96-2.21,1.74-4.04,3.39-5.57,5.05-4.35,4.72-6.24,9.43-5.78,14.41.88,9.53,8.52,12.17,14.16,14.08l6.31-5.43c-1.23-.52-2.47-.95-3.84-1.42-5.53-1.86-8.93-3.24-9.36-7.89Z" />
      <path class="cls-6"
        d="M94,195.47c-5.58-1.88-13.22-4.46-14.09-13.86-.5-5.38,1.87-10.03,5.71-14.18,1.62-1.76,3.5-3.42,5.54-5.02,4.08-3.2,9.83-26.12,9.83-26.12l6.81,1.6s-1.57,17.56-9.5,27.54c-2.16,1.52-4.19,3.09-5.93,4.69-3.73,3.44-6.14,7.07-5.79,10.88.44,4.83,3.92,6.24,9.56,8.15,1.19.4,2.45.84,3.69,1.35l.51-.44c-1.28-.55-2.57-1-4-1.48-5.57-1.88-8.75-3.16-9.16-7.64-.3-3.24,1.53-6.63,5.6-10.39,1.58-1.46,3.5-2.97,5.86-4.64.05-.03.09-.07.12-.12,7.94-10.01,9.56-27.13,9.62-27.85.03-.3-.17-.57-.46-.63l-6.81-1.6s-.09-.02-.14-.02c-.27,0-.51.18-.58.45-1.59,6.32-6.4,23.27-9.62,25.79-2.23,1.75-4.06,3.41-5.61,5.09-4.41,4.78-6.33,9.57-5.86,14.64.89,9.63,8.49,12.35,14.2,14.27l.52-.45s-.03,0-.04-.01Z" />
      <path class="cls-7"
        d="M81.71,174.75c2.76-8.05,10.65-13.29,9.45-12.34-2.04,1.6-3.92,3.26-5.54,5.02-3.83,4.16-6.2,8.8-5.71,14.18.67,7.28,5.39,10.46,10.08,12.4-6.85-3.67-11.04-11.21-8.29-19.26Z" />
      <path class="cls-6"
        d="M96.15,189.15s-.02,0-.03,0c.71,2.05-1.94,4.5-5.61,5.08,1.2.48,2.04,1.29,3.14,1.66.01,0,.43-.32.44-.32l6.32-5.41c-1.23-.52-3.7-1.13-4.27-1.01Z" />
      <path class="cls-7"
        d="M126.23,63.3c-.06,0-.12-.02-.18-.06-.09-.07-.14-.18-.12-.29l.52-3.04-2.21-2.15c-.08-.08-.11-.2-.08-.31.04-.11.13-.19.24-.2l3.05-.44,1.36-2.77c.05-.1.15-.17.27-.17s.22.06.27.17l1.36,2.77,3.05.44c.11.02.21.09.24.2.03.11,0,.23-.08.31l-2.21,2.15.52,3.04c.02.11-.03.23-.12.29-.05.04-.11.06-.18.06-.05,0-.1-.01-.14-.03l-2.73-1.44-2.73,1.44s-.09.03-.14.03Z" />
      <path class="cls-6"
        d="M129.1,54.18l1.43,2.91,3.21.47-2.32,2.26.55,3.19-2.87-1.51-2.87,1.51.55-3.19-2.32-2.26,3.21-.47,1.43-2.91h0ZM129.1,53.58c-.23,0-.43.13-.53.33l-1.3,2.62-2.9.42c-.22.03-.41.19-.48.41-.07.22-.01.45.15.61l2.1,2.04-.49,2.89c-.04.22.05.45.24.58.1.08.23.11.35.11.09,0,.19-.02.28-.07l2.59-1.36,2.59,1.36c.09.05.18.07.28.07.12,0,.25-.04.35-.11.18-.13.28-.36.24-.58l-.49-2.89,2.1-2.04c.16-.16.22-.4.15-.61-.07-.22-.26-.37-.48-.41l-2.9-.42-1.3-2.62c-.1-.2-.31-.33-.53-.33h0Z" />
      <path class="cls-7"
        d="M50.67,65.82c-.06,0-.12-.02-.18-.06-.09-.07-.14-.18-.12-.29l.52-3.04-2.21-2.15c-.08-.08-.11-.2-.08-.31.04-.11.13-.19.24-.2l3.05-.44,1.36-2.77c.05-.1.15-.17.27-.17s.22.06.27.17l1.36,2.77,3.05.44c.11.02.21.09.24.2.03.11,0,.23-.08.31l-2.21,2.15.52,3.04c.02.11-.03.23-.12.29-.05.04-.11.06-.18.06-.05,0-.1-.01-.14-.03l-2.73-1.44-2.73,1.44s-.09.03-.14.03Z" />
      <path class="cls-6"
        d="M53.54,56.69l1.43,2.91,3.21.47-2.32,2.26.55,3.19-2.87-1.51-2.87,1.51.55-3.19-2.32-2.26,3.21-.47,1.43-2.91h0ZM53.54,56.1c-.23,0-.43.13-.53.33l-1.3,2.62-2.9.42c-.22.03-.41.19-.48.41-.07.22-.01.45.15.61l2.1,2.04-.49,2.89c-.04.22.05.45.24.58.1.08.23.11.35.11.09,0,.19-.02.28-.07l2.59-1.36,2.59,1.36c.09.05.18.07.28.07.12,0,.25-.04.35-.11.18-.13.28-.36.24-.58l-.49-2.89,2.1-2.04c.16-.16.22-.4.15-.61-.07-.22-.26-.37-.48-.41l-2.9-.42-1.3-2.62c-.1-.2-.31-.33-.53-.33h0Z" />
      <path class="cls-3"
        d="M176.17,72.78c-1.23-2.08-2.99-3.33-4.72-3.33-.75,0-1.47.23-2.07.65-.95-2.1-2.61-3.94-4.93-3.94-.86,0-1.7.28-2.44.8-1.86,1.32-2,3.12-1.72,4.62-1.85-1.69-3.56-2.51-5.2-2.51-1.17,0-2.27.45-3.09,1.26-.43.42-1.72,1.99-.45,4.37.38.71.92,1.37,1.4,1.95.1.12.22.27.34.42-.82-.33-1.68-.55-2.55-.55-1.66,0-3.12.82-3.99,2.24-.77,1.25-.93,2.62-.47,3.86.92,2.47,3.84,3.39,5.77,4,.15.05.34.11.49.16.18.21.44.53.72.89-.25,1-.77,2.57-1.73,3.8-.81,1.03-.88,2.47-.21,3.85.8,1.64,2.85,3.54,6.07,3.71.99,5.21,2.26,16.34-4.1,19.97-1.71.98-3.57,1.48-5.55,1.48-2.85,0-5.62-1.02-7.76-2.11.83-19.4-11.08-34.06-31.61-39.1l3.93-4.02c.64-.66.99-1.52.98-2.44-.01-.92-.38-1.78-1.04-2.42-.64-.63-1.5-.98-2.4-.98s-1.82.38-2.46,1.04l-4.26,4.36c-.28-.2-.59-.37-.93-.47-.55-.16-1.11-.31-1.68-.43l1.53-6.24c.22-.89.08-1.81-.4-2.6-.48-.78-1.23-1.34-2.12-1.55-.27-.06-.54-.1-.82-.1-1.59,0-2.96,1.08-3.33,2.62l-1.21,4.95-.15-7.58c-.04-1.86-1.58-3.37-3.43-3.37h-.07c-1.89.04-3.4,1.61-3.36,3.5l.17,8.61-3-7.15c-.54-1.28-1.78-2.11-3.17-2.11-.46,0-.9.09-1.32.27-.85.36-1.51,1.02-1.85,1.87-.35.85-.34,1.78.01,2.63l3.27,7.8c-.86.66-1.31,1.76-1.16,2.85-.18.12-.35.24-.53.36l-5.94-3.91c-.56-.37-1.21-.56-1.89-.56-1.16,0-2.23.58-2.87,1.55-.5.76-.68,1.68-.49,2.58.19.9.71,1.67,1.48,2.18l2.38,1.57c-.16.07-.33.13-.49.2-.73.31-1.45.64-2.15.98-1.08.52-2.14,1.08-3.15,1.67-.69.4-1.38.82-2.04,1.25-1.71,1.11-3.33,2.34-4.82,3.65-.61.54-1.22,1.1-1.79,1.67-1.49,1.48-2.85,3.07-4.06,4.74-.5.69-.98,1.4-1.43,2.13-.46.73-.89,1.49-1.3,2.26-1.04,1.97-1.93,4.06-2.63,6.24-.43,1.34-.81,2.73-1.11,4.15-.21.95-.38,1.94-.53,2.93-.11.74-.2,1.5-.28,2.27-2.58,1.85-6.84,4.3-11.33,4.3-1.98,0-3.84-.5-5.54-1.48-6.36-3.63-5.1-14.76-4.11-19.97,3.22-.17,5.27-2.07,6.07-3.71.67-1.38.59-2.82-.21-3.85-.96-1.23-1.48-2.79-1.73-3.8.28-.36.53-.68.72-.89.15-.05.34-.11.49-.16,1.93-.61,4.85-1.53,5.77-4,.46-1.24.3-2.61-.47-3.86-.87-1.42-2.33-2.24-3.99-2.24-.86,0-1.73.22-2.55.55.11-.14.24-.29.34-.41.48-.58,1.02-1.24,1.4-1.95,1.27-2.37-.02-3.94-.45-4.37-.82-.81-1.92-1.26-3.09-1.26-1.64,0-3.35.82-5.2,2.51.28-1.5.14-3.3-1.72-4.62-.74-.52-1.58-.8-2.44-.8-2.32,0-3.98,1.85-4.93,3.94-.61-.43-1.32-.65-2.07-.65-1.76,0-3.48,1.21-4.72,3.32-1.27,2.16-2.04,5.52-.4,8.49,1.48,2.67,4.36,4.13,8.13,4.13.48,0,.92-.02,1.3-.06.88.68,2.07,1.61,2.74,2.21.06.24.07.62.06,1.03l-2.1,1.41c-.92.52-1.53,1.48-1.59,2.55-.08,1.49.82,2.59,2.02,3.47-1.64,7.33-3.77,23.9,8.22,30.79,3.14,1.81,6.54,2.72,10.11,2.72,4.24,0,8.15-1.3,11.33-2.87,1.35,11.12,6.91,19.86,16.57,26,9.35,5.95,19.98,7.72,25.48,8.26,1.72.17,3.5.25,5.3.25h.19s.18,0,.18,0c6.5,0,16.14-1.08,25.14-6.24,9.51-5.45,15.86-14.04,18.87-25.53.15-.56.29-1.13.42-1.69,3.05,1.21,6.06,1.83,8.99,1.83,3.57,0,6.97-.92,10.11-2.73,11.99-6.89,9.86-23.46,8.21-30.79,1.2-.88,2.09-1.98,2.02-3.47-.06-1.07-.66-2.03-1.59-2.55l-2.1-1.41c-.01-.41,0-.79.06-1.03.68-.6,1.86-1.53,2.74-2.2.38.03.82.06,1.3.06,3.76,0,6.65-1.47,8.13-4.13,1.65-2.97.87-6.33-.4-8.49Z" />
      <path class="cls-6"
        d="M26.44,124.47c-13.09-7.52-6.51-29.7-6.22-30.64.29-.96,1.3-1.5,2.26-1.21.16.05.31.12.44.2.68.42,1.01,1.26.77,2.06-.06.2-6.01,20.41,4.56,26.44,10.62,6.12,22.34-5.02,22.46-5.13.72-.7,1.87-.67,2.57.04.7.72.68,1.87-.04,2.57-.56.54-13.79,13.16-26.8,5.67Z" />
      <path class="cls-3"
        d="M25.02,96.95c-1.14,0-2.36-.29-3.63-.86-3.96-1.77-4.45-2.75-4.43-3.41,0-.43.29-.75.58-.9l3.02-2.03c.13-.89.23-2.93-.46-3.57-.94-.87-3.09-2.51-3.76-3.02-.36.06-1.05.14-1.89.14-2.1,0-4.9-.53-6.3-3.06-1.22-2.2-.61-4.76.37-6.41.83-1.42,1.95-2.3,2.92-2.3.34,0,.66.11.92.31,1.13.87.6,2.2.17,3.26-.49,1.23-.59,1.73-.13,2.06.94.67,1.92,1.07,2.6,1.29-.19-1.16-.44-3.17-.3-4.85.19-2.24,1.7-5.36,3.74-5.36.43,0,.84.14,1.23.41,1.56,1.11.88,2.84.33,4.23-.29.73-.58,1.48-.53,2.02.12,1.24.6,2.94.86,3.8l1.73-.49c-.15-1.01-.18-3.09,1.65-4.84,1.55-1.48,2.92-2.23,4.08-2.23.62,0,1.18.23,1.61.65.99.98-.16,2.38-1.09,3.5-.41.5-.88,1.07-.99,1.4-.01.03-.03.07-.04.1-1.09,2.01-.62,3.56-.23,4.33,1-.85,3.23-2.53,5.08-2.53.95,0,1.71.43,2.21,1.24.43.71.53,1.39.29,2.04-.56,1.51-2.9,2.25-4.44,2.74-.41.13-.93.29-1.05.37-.43.36-1.33,1.56-1.78,2.19.14.79.72,3.52,2.33,5.57.31.39.3.99-.02,1.65-.62,1.27-2.3,2.55-4.65,2.55Z" />
      <path class="cls-6"
        d="M18.44,68.85c.29,0,.59.09.88.3,1.9,1.35-.63,4.02-.45,5.83.18,1.81,1.06,4.47,1.06,4.47l2.82-.8s-.86-2.7,1.37-4.83c1.48-1.41,2.72-2.07,3.67-2.07.48,0,.88.16,1.19.48.95.95-1.83,3.1-2.23,4.29-1.77,3.26.17,5.52.17,5.52,0,0,2.99-2.85,5.2-2.85.68,0,1.28.26,1.7.96,1.82,2.96-4.4,3.81-5.06,4.36-.66.55-2.04,2.51-2.04,2.51,0,0,.47,3.5,2.49,6.08.51.65-.94,3.23-4.21,3.23-.97,0-2.1-.23-3.39-.81-5.61-2.52-3.81-3.24-3.81-3.24l3.27-2.2c.02-.1.55-3.29-.59-4.35-1.15-1.07-4.01-3.22-4.01-3.22,0,0-.86.18-2.04.18-1.86,0-4.5-.45-5.78-2.75-1.87-3.37,1.01-7.82,2.77-7.82.2,0,.39.06.56.19,1.59,1.23-1.73,4.06.06,5.33s3.7,1.62,3.7,1.62c0,0-.66-3.2-.46-5.62.17-2.05,1.57-4.81,3.15-4.81h0ZM18.44,67.66c-2.47,0-4.13,3.49-4.33,5.9-.11,1.32,0,2.82.16,3.98-.48-.21-1.01-.49-1.52-.86-.04-.03-.05-.04-.05-.04-.06-.19.23-.92.39-1.31.42-1.05,1.13-2.81-.36-3.96-.37-.29-.81-.44-1.29-.44-1.2,0-2.48.97-3.44,2.59-1.06,1.8-1.72,4.58-.38,7,1.2,2.17,3.62,3.36,6.82,3.36.71,0,1.32-.06,1.73-.11.82.62,2.68,2.05,3.52,2.83.36.34.42,1.74.3,2.79l-2.77,1.86c-.42.23-.86.7-.87,1.4-.03,1.28,1.36,2.43,4.79,3.96,1.35.6,2.65.91,3.88.91,2.79,0,4.54-1.55,5.19-2.88.42-.87.41-1.7-.05-2.28-1.39-1.78-1.97-4.1-2.16-5.06.5-.69,1.16-1.52,1.49-1.84.16-.07.56-.2.88-.3,1.75-.55,4.16-1.31,4.82-3.1.21-.57.32-1.47-.34-2.56-.6-.98-1.57-1.52-2.72-1.52-1.71,0-3.61,1.21-4.81,2.15-.19-.73-.2-1.79.49-3.06.03-.06.06-.13.08-.19.07-.22.56-.81.89-1.21.97-1.17,2.42-2.94,1.05-4.3-.55-.54-1.25-.83-2.03-.83-1.32,0-2.83.81-4.49,2.4-1.74,1.66-1.96,3.6-1.88,4.83l-.68.19c-.25-.89-.58-2.16-.67-3.12-.04-.4.24-1.11.49-1.75.56-1.42,1.4-3.56-.54-4.94-.49-.35-1.02-.52-1.57-.52h0Z" />
      <path class="cls-6"
        d="M156.45,124.47c13.09-7.52,6.51-29.7,6.22-30.64-.29-.96-1.3-1.5-2.26-1.21-.16.05-.31.12-.44.2-.68.42-1.01,1.26-.77,2.06.06.2,6.01,20.41-4.56,26.44-10.62,6.12-22.34-5.02-22.46-5.13-.72-.7-1.87-.67-2.57.04-.7.72-.68,1.87.04,2.57.56.54,13.79,13.16,26.8,5.67Z" />
      <path class="cls-3"
        d="M157.86,96.95c-2.36,0-4.04-1.28-4.65-2.55-.32-.66-.33-1.26-.02-1.65,1.61-2.06,2.19-4.78,2.33-5.57-.45-.63-1.36-1.83-1.8-2.2-.11-.07-.62-.23-1.03-.36-1.55-.49-3.88-1.22-4.44-2.74-.24-.64-.14-1.33.29-2.04.5-.81,1.26-1.24,2.21-1.24,1.85,0,4.08,1.68,5.08,2.54.39-.76.86-2.32-.23-4.33-.02-.03-.03-.06-.04-.1-.11-.33-.58-.9-.99-1.4-.93-1.12-2.08-2.52-1.09-3.5.43-.43.99-.65,1.61-.65,1.16,0,2.53.75,4.08,2.23,1.83,1.75,1.8,3.83,1.65,4.84l1.73.49c.26-.86.74-2.55.86-3.8.05-.54-.24-1.29-.53-2.02-.55-1.39-1.23-3.12.33-4.23.39-.27.8-.41,1.23-.41,2.04,0,3.55,3.12,3.74,5.36.14,1.69-.11,3.7-.3,4.85.68-.22,1.66-.62,2.6-1.29.45-.32.36-.82-.13-2.06-.43-1.06-.96-2.39.17-3.26.26-.2.58-.31.92-.31.97,0,2.09.88,2.92,2.3.98,1.66,1.59,4.21.37,6.41-1.4,2.53-4.2,3.06-6.3,3.06-.84,0-1.53-.09-1.89-.14-.67.51-2.83,2.15-3.76,3.02-.68.63-.59,2.66-.45,3.57l3.02,2.03c.29.15.57.47.58.9.01.65-.48,1.63-4.43,3.41-1.27.57-2.49.86-3.63.86h0Z" />
      <path class="cls-6"
        d="M164.44,68.85c1.57,0,2.97,2.77,3.15,4.81.21,2.42-.45,5.62-.45,5.62,0,0,1.91-.35,3.7-1.62,1.79-1.28-1.53-4.1.06-5.33.16-.13.35-.19.56-.19,1.76,0,4.64,4.45,2.77,7.82-1.28,2.3-3.92,2.75-5.78,2.75-1.18,0-2.04-.18-2.04-.18,0,0-2.87,2.15-4.01,3.22-1.15,1.07-.62,4.25-.59,4.35l3.27,2.2s1.81.72-3.81,3.24c-1.29.58-2.42.81-3.39.81-3.26,0-4.71-2.59-4.21-3.23,2.02-2.58,2.49-6.08,2.49-6.08,0,0-1.38-1.96-2.04-2.51-.66-.55-6.88-1.41-5.06-4.36.42-.69,1.03-.96,1.7-.96,2.21,0,5.2,2.85,5.2,2.85,0,0,1.94-2.26.17-5.52-.39-1.18-3.18-3.34-2.23-4.29.32-.32.72-.48,1.19-.48.95,0,2.19.65,3.67,2.07,2.22,2.12,1.37,4.83,1.37,4.83l2.82.8s.88-2.66,1.06-4.47c.18-1.81-2.35-4.48-.45-5.83.3-.21.59-.3.88-.3h0ZM164.44,67.66c-.55,0-1.08.18-1.57.52-1.95,1.38-1.1,3.52-.54,4.94.25.63.53,1.35.49,1.75-.09.97-.42,2.23-.67,3.12l-.68-.19c.08-1.23-.15-3.17-1.88-4.83-1.67-1.59-3.18-2.4-4.49-2.4-.79,0-1.49.29-2.03.83-1.38,1.37.08,3.13,1.05,4.3.32.39.81.98.89,1.21.02.07.05.13.08.19.69,1.27.67,2.32.49,3.06-1.21-.93-3.11-2.15-4.81-2.15-1.15,0-2.12.54-2.72,1.52-.67,1.09-.56,1.99-.34,2.56.67,1.79,3.07,2.54,4.82,3.1.32.1.72.23.88.3.33.31.98,1.15,1.49,1.84-.19.96-.78,3.29-2.16,5.06-.45.58-.47,1.41-.05,2.28.65,1.33,2.4,2.88,5.19,2.88,1.22,0,2.53-.31,3.88-.91,3.43-1.54,4.81-2.68,4.79-3.96-.01-.7-.45-1.17-.87-1.4l-2.77-1.86c-.12-1.04-.06-2.45.3-2.79.84-.78,2.7-2.21,3.52-2.83.41.06,1.02.11,1.73.11,3.2,0,5.62-1.19,6.82-3.36,1.34-2.42.68-5.2-.38-7-.96-1.62-2.24-2.59-3.44-2.59h0c-.47,0-.92.15-1.28.44-1.49,1.15-.78,2.91-.36,3.96.15.39.44,1.1.38,1.32,0,0-.02.01-.04.03-.51.37-1.04.65-1.52.86.15-1.17.27-2.67.16-3.98-.2-2.41-1.87-5.9-4.33-5.9h0Z" />
      <path class="cls-7"
        d="M101.56,80.75c-17.83-2.53-50.74,4.76-53.38,36.44-2.65,31.68,25.82,39.66,40.34,41.04s39.96-2.59,47.12-29.53c7.16-26.94-9.05-44.4-34.08-47.96Z" />
      <path class="cls-3"
        d="M83.59,129.85s-.95,15.16,3.72,15.83c4.67.66,5.92-.88,5.92-.88,0,0-3.83.15-5.61-4.2-1.77-4.35-4.04-10.74-4.04-10.74Z" />
      <path class="cls-3"
        d="M58.03,100.2c9.55-14.85,30.71-19,48.03-18.65-1.42-.31-2.87-.58-4.35-.79-17.58-2.53-50.02,4.76-52.63,36.44-.77,9.34,1.14,16.61,4.57,22.27-3.65-12.53-4.74-27.29,4.39-39.27Z" />
      <path class="cls-1"
        d="M121.23,87.64c12.77,13.34,10.82,37.09,1.29,53.29-4.46,6.58-9.67,11.77-15.41,15.9,11.75-3.04,23.67-10.86,28.2-28.12,4.93-18.82-1.39-33.01-14.07-41.07Z" />
      <path class="cls-6"
        d="M100.42,126.82c-.94-.15-2.86-.58-3.07-.4-.15.14-.24.93-.26,1.11-.4,3.43-.97,6.92-2.06,10.17-.82,2.67-2.92,6.77-5.8,6.73-3.19-.04-4.07-4.88-4.49-7.31-.49-3.59-.47-7.31-.36-10.94.04-.54-3.22-.83-3.22-.83-.34-.04-.66,1.54-.33,1.58l2.21-.15c-.62,3.32-1.04,8.81-.2,13.24.76,4.04,2.91,7.19,6.57,7,4.89-.25,6.72-4.95,7.59-7.64,1.23-3.76,1.39-8.1,1.36-11.71.42.09,2.11.59,2.14.59.29,0,.25-1.39-.08-1.44Z" />
      <path class="cls-6"
        d="M94.89,80.29c2.43,0,4.72.16,6.8.46,24.68,3.56,40.66,21.02,33.6,47.96-6.29,23.99-26.87,29.77-41.41,29.77-1.78,0-3.48-.09-5.04-.24-14.31-1.38-42.38-9.36-39.77-41.04,2.3-27.93,27.78-36.9,45.82-36.9h0ZM94.89,78.95c-10.68,0-21.45,2.99-29.54,8.19-10.47,6.74-16.56,17.09-17.62,29.94-1.18,14.34,3.56,25.47,14.09,33.08,9.47,6.84,20.91,8.83,26.89,9.41,1.68.16,3.42.24,5.17.24,6.34,0,15.73-1.05,24.47-6.06,9.19-5.27,15.33-13.58,18.24-24.7,3.23-12.33,1.87-23.46-3.92-32.2-6.14-9.26-17.08-15.45-30.79-17.43-2.19-.32-4.55-.48-6.99-.48h0Z" />
      <path class="cls-3"
        d="M75.74,132.7v.13c-.04,5.16-2.14,9.49-4.97,10.65-.49.2-1,.3-1.52.3-3.36,0-6.13-4.36-6.46-9.95-.02-.37-.04-.75-.04-1.12,0-6.12,2.91-11.08,6.49-11.08.05,0,.12,0,.17,0,3.5.15,6.32,5.05,6.32,11.07Z" />
      <path class="cls-3"
        d="M75.74,105.6c0,5.95-3.17,10.78-7.09,10.78-.22,0-.44-.02-.66-.05-3.62-.51-6.44-5.11-6.44-10.72,0-.49.02-.98.07-1.45.43-4.89,3.03-8.75,6.29-9.27.24-.04.49-.06.74-.06,3.6,0,6.57,4.06,7.03,9.33.04.47.07.95.07,1.44Z" />
      <path class="cls-3"
        d="M125.18,129.78c0,6.12-2.91,11.07-6.48,11.07-.52,0-1.04-.1-1.53-.3-2.85-1.17-4.97-5.56-4.97-10.77,0-.63.03-1.25.09-1.84.51-5.15,3.09-9.1,6.23-9.23.06,0,.12,0,.18,0,3.16,0,5.8,3.87,6.37,9,.07.67.11,1.37.11,2.08Z" />
      <path class="cls-3"
        d="M122.86,98.56c0,5.61-2.82,10.22-6.43,10.73-.21.04-.44.05-.66.05-3.74,0-6.8-4.39-7.07-9.97-.02-.27-.02-.54-.02-.81,0-5.95,3.18-10.78,7.09-10.78.25,0,.5.02.74.07,3.31.52,5.94,4.51,6.31,9.52.03.39.04.79.04,1.19Z" />
      <path class="cls-6"
        d="M125.86,136.58s-.08,0-.12-.02c-.17-.06-.26-.26-.2-.43.31-.83.43-1.4.43-1.41.04-.18.22-.3.4-.26.18.04.3.22.26.4,0,.02-.14.62-.46,1.5-.05.14-.18.22-.31.22Z" />
      <path class="cls-6"
        d="M69.46,121.26c-.07,0-.15,0-.22,0-3.78,0-6.86,5.14-6.86,11.46s3.08,11.45,6.86,11.45c.57,0,1.13-.11,1.66-.33,3.06-1.25,5.21-5.82,5.21-11.11,0-6.26-2.93-11.28-6.65-11.45ZM70.62,143.13c-.44.18-.91.28-1.38.28-3.37,0-6.12-4.8-6.12-10.7s2.74-10.71,6.12-10.71h.03s.08,0,.13,0c3.29.14,5.96,4.94,5.96,10.7,0,4.92-1.99,9.3-4.74,10.42Z" />
      <path class="cls-6"
        d="M67.93,116.7c.22.04.46.05.72.05,4.12,0,7.47-5,7.47-11.15s-3.35-11.15-7.47-11.15c-.27,0-.54.02-.8.07-3.8.6-6.67,5.36-6.67,11.08s2.9,10.56,6.75,11.1ZM67.97,95.26c.22-.04.45-.06.68-.06,3.71,0,6.72,4.67,6.72,10.4s-3.01,10.4-6.72,10.4c-.22,0-.42-.01-.61-.04-3.43-.48-6.11-5.03-6.11-10.36s2.59-9.8,6.04-10.35Z" />
      <path class="cls-6"
        d="M118.7,118.32c-.07,0-.15,0-.19,0-3.74.16-6.68,5.19-6.68,11.45,0,5.29,2.14,9.86,5.2,11.11.54.22,1.1.33,1.67.33,3.78,0,6.86-5.14,6.86-11.45s-3.08-11.46-6.86-11.46ZM118.7,140.48c-.47,0-.93-.09-1.38-.28-2.75-1.12-4.74-5.51-4.74-10.42,0-5.76,2.68-10.56,5.99-10.7.03,0,.06,0,.09,0h.04c3.37,0,6.12,4.8,6.12,10.71s-2.74,10.7-6.12,10.7Z" />
      <path class="cls-6"
        d="M115.77,109.71c.26,0,.5-.02.71-.05,3.85-.54,6.76-5.31,6.76-11.1s-2.87-10.48-6.66-11.08c-.26-.05-.53-.07-.81-.07-4.12,0-7.47,5-7.47,11.15s3.35,11.15,7.47,11.15ZM115.77,88.16c.23,0,.46.02.69.06,3.44.54,6.03,4.99,6.03,10.34s-2.68,9.88-6.12,10.36c-.18.03-.38.04-.6.04-3.71,0-6.72-4.67-6.72-10.4s3.01-10.4,6.72-10.4Z" />
      <path class="cls-6"
        d="M75.95,139.07c-.2-.05-.4.06-.46.26,0,0-.13.45-.41,1.08-.08.19,0,.41.19.49.05.02.1.03.15.03.14,0,.28-.08.34-.22.31-.69.44-1.17.45-1.19.05-.2-.06-.4-.26-.46Z" />
      <path class="cls-6"
        d="M74.17,142.06c-.22.32-.46.63-.71.91-.14.15-.13.39.03.53.07.06.16.1.25.1.1,0,.2-.04.28-.12.27-.3.53-.63.78-.98.12-.17.07-.4-.1-.52-.17-.12-.4-.07-.52.1Z" />
      <path class="cls-6"
        d="M72.22,144.04c-.95.65-2.03,1-3.2,1.03-1.37.05-2.66-.53-3.81-1.69-.15-.15-.38-.15-.53,0-.15.14-.15.38,0,.53,1.25,1.27,2.66,1.91,4.2,1.91.05,0,.11,0,.16,0,1.32-.04,2.53-.43,3.6-1.16.17-.12.21-.35.1-.52-.12-.17-.35-.21-.52-.1Z" />
      <path class="cls-6"
        d="M63.1,140.08c-.07-.19-.29-.29-.48-.22-.19.07-.29.29-.22.48.01.03.28.76.84,1.69.07.12.19.18.32.18.07,0,.13-.02.19-.05.18-.11.23-.34.13-.51-.52-.86-.78-1.55-.78-1.56Z" />
      <path class="cls-6"
        d="M125.35,137.46c-.18-.09-.41-.02-.5.16-1.14,2.26-3.3,4.95-7.07,4.95-2.95,0-4.74-3.01-5.54-4.8-.09-.19-.31-.27-.49-.19-.19.08-.27.31-.19.49.88,1.96,2.86,5.24,6.23,5.24,4.15,0,6.5-2.92,7.74-5.36.09-.18.02-.41-.16-.5Z" />
      <path class="cls-6"
        d="M111.6,136.13c-.2-.62-.36-1.24-.47-1.84-.04-.2-.23-.33-.44-.3-.2.04-.34.23-.3.44.12.63.29,1.28.49,1.92.05.16.2.26.36.26.04,0,.08,0,.11-.02.2-.06.3-.27.24-.47Z" />
      <path class="cls-6"
        d="M110.49,132.65c.21-.02.35-.21.33-.41-.09-.87-.11-1.44-.11-1.44,0-.2-.17-.36-.37-.36h-.01c-.21,0-.37.18-.36.38,0,.02.02.6.11,1.5.02.19.18.33.37.33.01,0,.03,0,.04,0Z" />
      <path class="cls-6"
        d="M76.52,108.97c-.21-.02-.39.13-.41.34,0,.08-.79,7.91-7.43,7.91h-.04c-1.35,0-2.67-.46-3.92-1.36-.17-.12-.4-.08-.52.09-.12.17-.08.4.09.52,1.38.99,2.85,1.49,4.35,1.5h.04c7.31,0,8.16-8.5,8.17-8.59.02-.21-.13-.39-.34-.41Z" />
      <path class="cls-6"
        d="M63.16,115.37c.09,0,.19-.04.26-.11.15-.14.15-.38,0-.53-.71-.72-1.1-1.33-1.11-1.34-.11-.17-.34-.23-.52-.11-.17.11-.23.34-.11.52.02.03.43.68,1.2,1.46.07.07.17.11.27.11Z" />
      <path class="cls-6"
        d="M116.2,111.4h0c2.07,0,3.82-.69,5.18-2.05,3.11-3.12,3.15-8.62,3.15-8.85,0-.21-.17-.37-.37-.37h0c-.21,0-.37.17-.37.37,0,.05-.03,5.43-2.93,8.32-1.21,1.21-2.78,1.83-4.65,1.83h0c-4.7,0-6.65-3.1-7.45-5.7-.06-.2-.27-.31-.47-.25-.2.06-.31.27-.25.47.88,2.84,3.01,6.22,8.17,6.23Z" />
      <path class="cls-6"
        d="M108.34,103.27c-.19-1.11-.18-1.9-.18-1.91,0-.21-.16-.38-.37-.38h0c-.2,0-.37.16-.37.37,0,.03,0,.87.19,2.04.03.18.19.31.37.31.02,0,.04,0,.06,0,.2-.03.34-.23.31-.43Z" />
      <path class="cls-6"
        d="M75.67,104.16c-1.79,1.66-4.28,2.69-7.03,2.69s-5.23-1.03-7.03-2.69c.43-4.89,3.03-8.75,6.29-9.27.24-.04.49-.06.74-.06,3.6,0,6.57,4.06,7.03,9.33Z" />
      <path class="cls-6"
        d="M122.82,97.38c-1.79,2.34-4.75,3.87-8.1,3.87-2.26,0-4.35-.7-6.02-1.88-.02-.27-.02-.54-.02-.81,0-5.95,3.18-10.78,7.09-10.78.25,0,.5.02.74.07,3.31.52,5.94,4.51,6.31,9.52Z" />
      <path class="cls-6"
        d="M125.07,127.7c-1.74,1.53-4.03,2.46-6.53,2.46-2.37,0-4.55-.83-6.25-2.22.51-5.15,3.09-9.1,6.23-9.23.06,0,.12,0,.18,0,3.16,0,5.8,3.87,6.37,9Z" />
      <path class="cls-6"
        d="M75.74,132.7v.13c-1.79,1.82-4.29,2.95-7.05,2.95-2.21,0-4.25-.73-5.9-1.95-.02-.37-.04-.75-.04-1.12,0-6.12,2.91-11.08,6.49-11.08.05,0,.12,0,.17,0,3.5.15,6.32,5.05,6.32,11.07Z" />
      <path class="cls-3"
        d="M68.64,106.63c0,2.1-1.13,3.8-2.53,3.8s-2.53-1.7-2.53-3.8,1.13-3.8,2.53-3.8,2.53,1.7,2.53,3.8Z" />
      <path class="cls-3"
        d="M70.46,135.78c0,1.92-.97,3.48-2.17,3.48s-2.17-1.56-2.17-3.48.97-3.48,2.17-3.48,2.17,1.56,2.17,3.48Z" />
      <ellipse class="cls-3" cx="118.54" cy="100.17" rx="2.36" ry="4.34" />
      <path class="cls-3"
        d="M119.23,129.62c0,1.92.91,3.48,2.04,3.48s2.04-1.56,2.04-3.48-.91-3.48-2.04-3.48-2.04,1.56-2.04,3.48Z" />
      <path class="cls-1"
        d="M88.88,50.47c-.27,0-.51-.16-.62-.41l-4.34-10.18c-.05-.11-.06-.24-.05-.36,1-6.78,2.48-17.14,2.49-17.87-.05-.35.19-.66.54-.72.04,0,.08-.01.11-.01.31,0,.59.23.66.54l3.93,16.29c.02.09.02.18,0,.27l-2.09,11.89c-.05.29-.29.52-.58.55-.03,0-.05,0-.08,0Z" />
      <path class="cls-6"
        d="M87.03,21.62l3.93,16.29-2.09,11.89-4.34-10.18s2.57-17.45,2.49-18h0ZM87.04,20.27c-.08,0-.17,0-.25.02-.66.12-1.12.71-1.09,1.37-.06,1.05-1.54,11.41-2.48,17.76-.04.24,0,.49.09.72l4.34,10.18c.21.5.7.82,1.23.82.05,0,.1,0,.15,0,.59-.07,1.07-.52,1.17-1.1l2.09-11.89c.03-.18.03-.37-.02-.55l-3.93-16.29c-.15-.61-.7-1.03-1.3-1.03h0Z" />
      <path class="cls-2" d="M90.97,37.91l-3.93-16.29c.02.11,2.65,15.97,2.65,15.97l-2.57,8.08,1.76,4.13,2.09-11.89Z" />
      <path class="cls-3" d="M86.09,39.54l.95-17.93c.08.55-2.49,18-2.49,18l4.34,10.18-2.79-10.26Z" />
      <path class="cls-3"
        d="M105.22,83.33c0,1.53-1.71,5.76-9.42,7.6-.91.22-1.91.4-3,.54-2.23.23-4.18.28-5.87.21-8.17-.34-10.54-3.55-10.54-3.55,0,0,1.01-4.8,6.22-7.82.8-.47,1.71-.89,2.73-1.25,1.35-.47,2.9-.83,4.67-1.01,1.73-.18,3.28-.23,4.66-.17,1.39.05,2.62.21,3.69.44,5.14,1.08,6.85,3.8,6.85,5.01Z" />
      <path class="cls-1"
        d="M105.21,83.24c-.07-1.24-1.82-3.87-6.85-4.93-1.08-.23-2.3-.39-3.69-.44-1.38-.05-2.93,0-4.66.17-1.77.18-3.32.54-4.67,1.01-1.02.36-1.93.78-2.73,1.25-5.21,3.02-6.22,7.82-6.22,7.82,0,0,10.84-9.03,28.82-4.89Z" />
      <path class="cls-8"
        d="M90.69,89.33c-4.63,0-8.4-3.77-8.4-8.4,0-.21,0-.43.03-.64,0-.1.06-.18.15-.23.87-.5,1.8-.93,2.78-1.27,1.44-.51,3.04-.85,4.73-1.02,1.24-.13,2.44-.2,3.58-.2.38,0,.76,0,1.12.02,1.34.05,2.6.2,3.74.44.1.02.19.1.22.19.3.86.45,1.78.45,2.71,0,4.63-3.77,8.4-8.4,8.4Z" />
      <path class="cls-6"
        d="M93.56,77.86c.38,0,.75,0,1.11.02,1.39.05,2.62.21,3.69.44.28.82.43,1.7.43,2.61,0,4.48-3.63,8.1-8.1,8.1s-8.1-3.63-8.1-8.1c0-.21,0-.41.03-.62.8-.47,1.71-.89,2.73-1.25,1.35-.47,2.9-.83,4.67-1.01,1.28-.13,2.46-.19,3.55-.19h0Z" />
      <path class="cls-8"
        d="M90.69,89.33c-3.21,0-6.19-1.87-7.58-4.77-.55-1.14-.82-2.36-.82-3.63,0-.21,0-.43.03-.64,0-.1.06-.18.15-.23.21-.12.42-.24.64-.35.1-.05.2-.11.31-.16.34-.17.7-.33,1.08-.48.09-.04.2-.08.31-.12l.44-.16c1.45-.51,3.04-.85,4.74-1.03,1.24-.13,2.44-.2,3.58-.2.38,0,.76,0,1.12.02.24,0,.48.02.71.04.18,0,.36.02.52.04l.28.02c.19.02.36.04.53.06.21.02.41.05.61.08.01,0,.07.02.08.02.15.02.34.05.53.09.16.03.32.06.48.09.1.02.18.1.22.19.3.86.45,1.78.45,2.71,0,.46-.04.91-.1,1.34-.66,4.09-4.15,7.06-8.3,7.06Z" />
      <path class="cls-6"
        d="M77.77,82.31c.24,0,.48-.12.63-.34.23-.35.13-.81-.21-1.04l-6.02-3.96c-.35-.23-.81-.13-1.04.21-.23.34-.13.81.21,1.04l6.02,3.96c.13.08.27.12.41.12Z" />
      <path class="cls-6"
        d="M81.85,66.02c-.16-.38-.6-.56-.98-.4-.38.16-.56.6-.4.98l4.48,10.69c.12.29.4.46.69.46.1,0,.19-.02.29-.06.38-.16.56-.6.4-.98l-4.48-10.69Z" />
      <path class="cls-6"
        d="M98.89,66.1c-.4-.1-.81.15-.9.55l-2.3,9.39c-.1.4.15.81.55.9.06.01.12.02.18.02.34,0,.64-.23.73-.57l2.3-9.39c.1-.4-.15-.81-.55-.9Z" />
      <path class="cls-6"
        d="M104.63,78.92c.19,0,.39-.08.54-.23l5.22-5.35c.29-.3.28-.77-.01-1.06-.3-.29-.77-.28-1.06.01l-5.22,5.35c-.29.3-.28.77.01,1.06.15.14.33.21.52.21Z" />
      <path class="cls-6"
        d="M81.49,92.47c-.37-.19-.82-.04-1,.33l-4.17,8.24c-.19.37-.04.82.33,1,.11.05.22.08.34.08.27,0,.54-.15.67-.41l4.17-8.24c.19-.37.04-.82-.33-1Z" />
      <path class="cls-6"
        d="M88.38,92.94c-.41-.03-.77.29-.79.7l-.65,10.04c-.03.41.29.77.7.79.02,0,.03,0,.05,0,.39,0,.72-.3.75-.7l.65-10.04c.03-.41-.29-.77-.7-.79Z" />
      <path class="cls-6"
        d="M99.4,92.22c-.16-.38-.6-.56-.98-.4-.38.16-.56.6-.4.98l2.92,6.91c.12.29.4.46.69.46.1,0,.2-.02.29-.06.38-.16.56-.6.4-.98l-2.92-6.91Z" />
      <path class="cls-6"
        d="M104.4,89.14c-.28-.3-.75-.32-1.06-.04-.3.28-.32.75-.04,1.06l6,6.52c.15.16.35.24.55.24.18,0,.36-.07.51-.2.3-.28.32-.75.04-1.06l-6-6.52Z" />
      <path class="cls-6"
        d="M93.88,93.02c-.06-.41-.45-.69-.85-.62-.41.06-.69.45-.62.85l1.65,10.59c.06.37.38.63.74.63.04,0,.08,0,.12,0,.41-.06.69-.45.62-.85l-1.65-10.59Z" />
      <path class="cls-6"
        d="M90.58,62.7h-.02c-.41,0-.74.35-.73.76l.22,11.04c0,.41.34.73.75.73h.02c.41,0,.74-.35.73-.76l-.22-11.04c0-.41-.34-.73-.75-.73Z" />
      <path class="cls-5"
        d="M98.8,80.93c0,.44-.03.87-.1,1.29-5.24-.3-10.57.39-15.31,2.21-.51-1.06-.79-2.25-.79-3.5,0-.21,0-.41.03-.62.2-.12.41-.23.62-.34.1-.05.2-.1.31-.16.34-.17.69-.33,1.06-.47.12-.05.24-.1.36-.14.13-.05.25-.09.38-.14,1.35-.47,2.9-.83,4.67-1.01,1.73-.18,3.28-.23,4.66-.17.23,0,.47.02.7.04h.02c.16,0,.33.02.49.04.1,0,.19.02.29.03.18.02.35.04.52.06.21.03.41.05.6.08,0,0,.02,0,.03,0,.19.03.39.06.57.1.16.03.31.06.47.09.28.82.43,1.7.43,2.61Z" />
      <path class="cls-6"
        d="M83.81,92.79c-5.69-.69-7.66-3.08-7.69-3.12-.13-.16-.36-.19-.52-.06-.16.13-.19.36-.07.52.08.11,2.14,2.67,8.19,3.4.02,0,.03,0,.05,0,.19,0,.35-.14.37-.33.02-.21-.12-.39-.33-.42Z" />
      <path class="cls-6"
        d="M83.12,78.23s.09,0,.13-.02c.09-.03,9.03-3.22,17.99-.6.2.06.41-.06.46-.25.06-.2-.06-.41-.25-.46-9.2-2.69-18.36.58-18.45.61-.19.07-.29.29-.22.48.06.15.2.25.35.25Z" />
      <path class="cls-6"
        d="M94.68,77.51c-1.46-.06-3.05,0-4.71.17-1.7.17-3.3.52-4.75,1.03-7.71,2.7-9.14,9.07-9.2,9.34-.02.1,0,.21.07.3.1.14,2.58,3.35,10.82,3.69.48.02.97.03,1.47.03,1.43,0,2.92-.08,4.46-.24,1.05-.13,2.07-.32,3.04-.55,7.98-1.89,9.71-6.39,9.7-7.96,0-1.69-2.75-5.51-10.91-5.82ZM82.6,80.77c.84-.51,1.79-.98,2.87-1.36,1.11-.39,2.31-.68,3.58-.86-.75.52-1.25,1.39-1.25,2.38,0,1.6,1.29,2.89,2.89,2.89s2.89-1.29,2.89-2.89c0-1.18-.71-2.19-1.73-2.64.97-.05,1.91-.07,2.8-.03,1.46.06,2.73.22,3.83.47.2.7.31,1.44.31,2.2,0,.44-.03.87-.1,1.29-.62,3.86-3.97,6.81-8,6.81-3.22,0-6-1.88-7.31-4.6-.51-1.06-.79-2.25-.79-3.5,0-.05,0-.1,0-.15ZM95.71,90.56c-.94.23-1.94.41-2.95.54-2.04.21-3.99.28-5.82.21-6.92-.29-9.6-2.69-10.14-3.27.23-.82,1.41-4.32,5.21-6.88.03,1.23.31,2.42.84,3.54,1.44,3,4.52,4.94,7.85,4.94,4.3,0,7.91-3.08,8.59-7.31.07-.45.11-.91.11-1.39,0-.69-.09-1.37-.25-2.03,4.25,1.14,5.7,3.46,5.7,4.43h0c0,1.41-1.62,5.45-9.13,7.23Z" />
      <path class="cls-3" d="M85.96,84.53c-3.57.29-5.56,1.2-5.56,2.34,0,1.15.58,2.36,4.62,2.36s5.76-5.11.94-4.71Z" />
      <path class="cls-3"
        d="M84.28,28.04s.26,10.39-4.29,11.18c3.26.51,4.56,3.28,4.79,8.03-.23-4.34.61-7.6,4.32-8.74-5.01-.35-4.82-10.46-4.82-10.46Z" />
      <path class="cls-1"
        d="M84.28,28.04s0,.17,0,.47c0-.3,0-.47,0-.47h0ZM84.28,28.5c.04,2,.46,9.69,4.82,10-3.67,1.13-4.53,4.34-4.32,8.61-.25-4.67-1.55-7.39-4.79-7.9,3.97-.69,4.28-8.67,4.29-10.71h0ZM84.77,47.11s0,.09,0,.13c0-.04,0-.09,0-.13h0ZM84.28,27.65h0c-.21,0-.38.17-.38.38,0,0,0,.18,0,.48-.01,1.62-.26,9.68-3.97,10.32-.19.03-.32.19-.32.38,0,.19.14.35.33.38,2.83.44,4.21,2.77,4.46,7.54v.13c.02.21.19.37.39.37,0,0,.01,0,.02,0,.21-.01.38-.19.37-.4v-.13s0,0,0,0c-.23-4.82.98-7.28,4.05-8.23.18-.05.29-.23.27-.41-.02-.18-.17-.33-.36-.34-4.08-.29-4.43-8.05-4.46-9.61,0-.3,0-.47,0-.48,0-.21-.18-.38-.39-.38h0Z" />
    </g>
  </g>
</svg>