<?xml version="1.0" encoding="UTF-8"?>
<svg id="Capa_2" xmlns="http://www.w3.org/2000/svg" xmlns:xlink="http://www.w3.org/1999/xlink"
  viewBox="0 0 219.86 208.29">
  <defs>
    <style>
      .cls-1 {
        fill: aqua;
      }

      .cls-2 {
        fill: #29abe2;
      }

      .cls-3 {
        fill: #fff;
      }

      .cls-4 {
        filter: none;
      }

      .cls-5 {
        fill: #862291;
      }

      .cls-6 {
        fill: #1b1464;
      }

      .cls-7 {
        fill: #fcee21;
      }

      .cls-8 {
        fill: #ed1e79;
      }
    </style>
  </defs>
  <g id="_0">
    <g class="cls-4">
      <path class="cls-3"
        d="M219.62,185.94h0c-.58-1.79-2.09-3.06-3.95-3.33l-5.56-.81-2.49-5.04c-.82-1.66-2.5-2.69-4.39-2.69-.41,0-.81.05-1.19.14l-11.61-21.57c.3-.14.59-.3.86-.5,1.52-1.1,2.26-2.94,1.95-4.79l-.52-3.03,2.2-2.14c1.35-1.31,1.82-3.24,1.24-5.02-.58-1.79-2.1-3.06-3.95-3.33l-3.04-.44-1.36-2.75c-.82-1.66-2.5-2.69-4.39-2.69s-3.57,1.03-4.39,2.69l-.21.42-12.61-23.44,17.19-17.62c1.28-1.32,1.97-3.05,1.95-4.88-.02-1.84-.76-3.55-2.08-4.84-1.33-1.29-3.11-1.97-4.99-1.94-2.64-1.2-5.72-.63-7.76,1.46l-7.13,7.31-.15-.89,2.2-2.14c1.33-1.29,1.82-3.26,1.24-5.02-.58-1.79-2.1-3.06-3.95-3.33l-3.04-.44-1.36-2.75c-.82-1.66-2.5-2.69-4.39-2.69s-3.57,1.03-4.39,2.69l-1.06,2.16-4.12-7.66.47-1.91c.9-3.68-1.36-7.41-5.05-8.31-.33-.08-.67-.14-1.01-.17l-2.22-4.13c.65-.07,1.27-.26,1.84-.55l1.18-.62,1.17.62c1.75.92,3.96.76,5.55-.4,1.63-1.19,2.44-3.16,2.1-5.15l-.22-1.31.95-.93c1.44-1.41,1.95-3.48,1.33-5.4-.63-1.92-2.25-3.29-4.25-3.58l-1.31-.19-.59-1.19c-.89-1.81-2.7-2.94-4.72-2.94s-3.83,1.12-4.72,2.94l-.59,1.19-1.31.19c-1.82.26-3.33,1.42-4.06,3.07l-5.39-10.02c.13-.6.14-1.23.03-1.84l-.95-5.54,4.02-3.92c1.34-1.31,1.82-3.23,1.24-5.01-.58-1.79-2.09-3.07-3.95-3.33l-5.56-.81-2.48-5.03c-.83-1.69-2.51-2.73-4.39-2.73s-3.56,1.05-4.39,2.73l-2.49,5.04-5.56.81c-1.86.27-3.38,1.55-3.95,3.33-.58,1.78-.11,3.71,1.24,5.02l4.02,3.92-.95,5.54c-.06.34-.08.69-.06,1.04l-17.76,32.99-.63-1.5c-1.1-2.62-3.68-4.29-6.53-4.21-1.75-.8-3.74-.83-5.5-.08-1.7.71-3.01,2.04-3.71,3.74-.69,1.7-.69,3.57.02,5.26l6.4,15.27-2.14,3.98c-.9-.91-2.14-1.44-3.47-1.44-1.88,0-3.56,1.05-4.39,2.73l-1.36,2.76-3.04.44c-1.86.27-3.37,1.54-3.95,3.33-.58,1.79-.11,3.71,1.24,5.02l2.2,2.15-.52,3.03c-.27,1.57.23,3.13,1.31,4.24l-.12.22-13.1-8.61c-1.16-.76-2.55-1.15-3.96-1.12-3.07-1.41-6.72-.37-8.6,2.48-2.08,3.17-1.2,7.44,1.97,9.52l16.59,10.91-11.15,20.72c-.85-.55-1.85-.86-2.89-.86-2.02,0-3.83,1.12-4.72,2.94l-.59,1.19-1.31.19c-2,.29-3.63,1.66-4.25,3.59-.62,1.92-.11,3.99,1.33,5.4l.95.93-.22,1.31c-.29,1.66.23,3.33,1.37,4.52l-9.85,18.3c-.7-.37-1.49-.57-2.31-.57-1.88,0-3.56,1.05-4.39,2.73l-2.49,5.04-5.56.81c-1.86.27-3.37,1.54-3.95,3.33-.58,1.78-.11,3.71,1.24,5.02l4.02,3.92-.95,5.54c-.32,1.85.43,3.68,1.94,4.78,1.48,1.07,3.55,1.23,5.16.37l4.97-2.61,4.97,2.61c.71.37,1.5.57,2.29.57,1.04,0,2.03-.33,2.88-.94,1.52-1.1,2.26-2.94,1.94-4.79l-.54-3.13h47.07l-.13.78c-.34,1.99.46,3.96,2.09,5.15,1.61,1.17,3.79,1.33,5.55.4l1.18-.62,1.17.62c1.76.93,3.94.77,5.55-.4.89-.64,1.53-1.52,1.88-2.52.69.28,1.41.46,2.15.5h.12c.19.01.38.02.58.01.75.34,1.54.54,2.34.59h.14c2.99.14,5.79-1.75,6.8-4.53h10.06c1.15,2.44,3.68,4.01,6.43,3.93,1.19.54,2.47.74,3.89.53,2.48-.39,4.53-2.1,5.39-4.42.05-.01.11-.02.16-.04h60.74l-.17.99c-.32,1.85.43,3.68,1.94,4.78,1.5,1.1,3.53,1.25,5.17.38l4.97-2.61,4.97,2.61c1.64.86,3.66.72,5.16-.37,1.52-1.1,2.26-2.94,1.95-4.79l-.95-5.54,4.02-3.92c1.34-1.31,1.82-3.23,1.24-5.02Z" />
      <polygon class="cls-5" points="111.17 193.69 16.34 193.69 111.17 17.46 206 193.69 111.17 193.69" />
      <path class="cls-6"
        d="M206,194.53H16.34c-.3,0-.57-.16-.72-.41-.15-.25-.16-.57-.02-.83L110.43,17.06c.29-.55,1.19-.55,1.48,0l94.83,176.23c.14.26.13.58-.02.83-.15.26-.43.41-.72.41ZM17.75,192.84h186.84L111.17,19.24,17.75,192.84Z" />
      <path class="cls-5"
        d="M16.34,194.53c-.3,0-.57-.16-.72-.41-.15-.25-.16-.57-.02-.83L110.43,17.06c.15-.27.43-.44.74-.44s.59.17.74.44l94.83,176.23c.14.26.13.58-.02.83-.15.26-.43.41-.72.41H16.34Z" />
      <path class="cls-6"
        d="M111.17,17.46l94.83,176.23H16.34L111.17,17.46h0ZM111.17,15.77c-.62,0-1.19.34-1.48.89L14.86,192.89c-.28.52-.27,1.15.04,1.66.3.51.85.82,1.45.82h189.66c.59,0,1.14-.31,1.45-.82.3-.51.32-1.14.04-1.66L112.65,16.66c-.29-.55-.86-.89-1.48-.89h0Z" />
      <path class="cls-8"
        d="M114.75,130.15l91.01,63.08-35.09-65.21-54.75-.7c.02-.18.03-.37.03-.56,0-1.02-.29-1.97-.78-2.79l38.75-27.08-14.94-27.77-26.39,52.64c-.5-.2-1.03-.33-1.59-.38l.14-103.88-31.37,58.29,28.58,46.04c-1.03.46-1.88,1.23-2.45,2.19l-37.94-26.3-.22.41-15.26,28.36,52.7.68c.09,1.11.51,2.13,1.17,2.95l-89.45,62.51-.56,1.04h60.2l31.24-62.31c.81.49,1.76.78,2.78.78.15,0,.29-.01.43-.02l-.08,61.55h42.05l-38.97-62.77c.28-.23.53-.49.75-.76Z" />
      <path class="cls-1"
        d="M202.85,190.26l-2.62-1.76c-.39-.26-.91-.16-1.17.23-.26.39-.16.91.23,1.17l2.62,1.76c.14.1.31.14.47.14.27,0,.54-.13.7-.37.26-.39.16-.91-.23-1.17Z" />
      <path class="cls-1"
        d="M184.72,178.07c-.39-.26-.91-.16-1.17.23-.26.39-.16.91.23,1.17l13.05,8.78c.14.1.31.14.47.14.27,0,.54-.13.7-.37.26-.39.16-.91-.23-1.17l-13.05-8.77Z" />
      <path class="cls-1"
        d="M172.98,170.17c-.39-.26-.91-.16-1.17.23-.26.39-.16.91.23,1.17l7.1,4.77c.14.1.31.14.47.14.27,0,.54-.13.7-.37.26-.39.16-.91-.23-1.17l-7.1-4.77Z" />
      <path class="cls-1"
        d="M32.03,181.84l-3.04,2.1c-.38.26-.48.79-.22,1.17.16.24.43.36.69.36.16,0,.33-.05.48-.15l3.04-2.1c.38-.26.48-.79.22-1.17-.27-.38-.79-.48-1.17-.22Z" />
      <path class="cls-1"
        d="M24.66,186.92l-5.44,3.76c-.38.26-.48.79-.22,1.17.16.24.43.36.69.36.16,0,.33-.05.48-.15l5.44-3.76c.38-.26.48-.79.22-1.17-.27-.38-.79-.48-1.17-.21Z" />
      <path class="cls-1"
        d="M61.58,188.34l-2.49,3.11c-.29.36-.23.89.13,1.19.16.12.34.18.53.18.25,0,.49-.11.66-.32l2.49-3.11c.29-.36.23-.89-.13-1.19-.36-.29-.89-.23-1.18.13Z" />
      <path class="cls-1"
        d="M72.88,174.21l-9.54,11.93c-.29.36-.23.89.13,1.19.16.12.34.18.53.18.25,0,.49-.11.66-.32l9.54-11.93c.29-.36.23-.89-.13-1.19-.36-.29-.89-.23-1.18.13Z" />
      <path class="cls-1"
        d="M147.48,175.12c-.29-.37-.82-.43-1.18-.14-.37.29-.43.82-.14,1.18l1.35,1.71c.17.21.41.32.66.32.18,0,.37-.06.52-.18.37-.29.43-.82.14-1.18l-1.35-1.71Z" />
      <path class="cls-1"
        d="M150.61,179.11c-.29-.37-.82-.43-1.18-.14-.37.29-.43.82-.14,1.18l6.54,8.33c.17.21.41.32.66.32.18,0,.37-.06.52-.18.37-.29.43-.82.14-1.18l-6.54-8.33Z" />
      <path class="cls-1"
        d="M158.85,189.62c-.29-.37-.82-.43-1.18-.14-.37.29-.43.82-.14,1.18l1.88,2.39c.17.21.41.32.66.32.18,0,.37-.06.52-.18.37-.29.43-.82.14-1.18l-1.88-2.39Z" />
      <path class="cls-1"
        d="M173.88,142.16l3.01.59c.05.01.11.02.16.02.4,0,.75-.28.83-.68.09-.46-.21-.9-.67-.99l-3.01-.59c-.46-.09-.9.21-.99.67-.09.46.21.9.67.99Z" />
      <path class="cls-1"
        d="M170.05,139.7l-59.71-11.58s-.08,0-.11,0c0,0-.02,0-.03,0,0,0,0,0-.01,0,0,0,0,0,0,0,0,0-.01,0-.02,0,0,0,0,0,0,0,0,0,0,0,0,0-.02,0-.03,0-.05,0-.08,0-.15.02-.22.05l-56.58,17.14c-.45.13-.7.61-.56,1.05.11.36.44.6.81.6.08,0,.16-.01.24-.04l51.47-15.59-70.46,48.62c-.38.26-.48.79-.22,1.17.16.24.43.36.69.36.16,0,.33-.05.48-.15l70.19-48.43-30.19,37.74c-.29.36-.23.89.13,1.19.36.29.89.23,1.18-.13l31.48-39.35-9.01,39.77c-.1.45.18.91.64,1.01.06.01.13.02.19.02.38,0,.73-.26.82-.66l9.11-40.18,11.73,40.16c.13.45.6.7,1.05.57.45-.13.7-.6.57-1.05l-11.42-39.08,31,39.51c.17.21.41.32.66.32.18,0,.37-.06.52-.18.37-.29.43-.82.14-1.18l-30.4-38.76,52.15,35.08c.39.26.91.16,1.17-.23.26-.39.16-.91-.23-1.17l-53.13-35.74,55.63,10.79c.46.09.9-.21.99-.67.09-.46-.21-.9-.67-.99Z" />
      <path class="cls-1"
        d="M48.8,148.38c.08,0,.16-.01.24-.04l2.15-.65c.45-.13.7-.61.56-1.05-.13-.45-.61-.7-1.05-.56l-2.15.65c-.45.13-.7.61-.56,1.05.11.36.44.6.81.6Z" />
      <path class="cls-1"
        d="M41.44,150.61c.08,0,.16-.01.24-.04l3.48-1.05c.45-.13.7-.61.56-1.05-.13-.45-.61-.7-1.05-.56l-3.48,1.05c-.45.13-.7.61-.56,1.05.11.36.44.6.81.6Z" />
      <path class="cls-1"
        d="M126.29,181.1c-.13-.45-.6-.7-1.05-.57-.45.13-.7.6-.57,1.05l3.9,13.34c.11.37.44.61.81.61.08,0,.16-.01.24-.03.45-.13.7-.6.57-1.05l-3.9-13.34Z" />
      <path class="cls-1"
        d="M124.97,179.57c.45-.13.7-.6.57-1.05l-.99-3.38c-.13-.45-.6-.7-1.05-.57-.45.13-.7.6-.57,1.05l.99,3.38c.11.37.44.61.81.61.08,0,.16-.01.24-.03Z" />
      <path class="cls-1"
        d="M99.84,174.56c-.46-.1-.91.18-1.01.64l-.71,3.12c-.1.45.18.91.64,1.01.06.01.13.02.19.02.38,0,.73-.27.82-.66l.71-3.12c.1-.45-.18-.91-.64-1.01Z" />
      <path class="cls-1"
        d="M98.58,180.11c-.46-.1-.91.18-1.01.64l-3.12,13.75c-.1.45.18.91.64,1.01.06.01.13.02.19.02.38,0,.73-.26.82-.66l3.12-13.75c.1-.45-.18-.91-.64-1.01Z" />
      <path class="cls-1"
        d="M86.29,77.59c-.33,0-.64-.19-.77-.51l-2.37-5.52c-.18-.43.01-.92.44-1.11.43-.18.92.01,1.11.44l2.37,5.52c.18.43-.01.92-.44,1.11-.11.05-.22.07-.33.07Z" />
      <path class="cls-1"
        d="M88.78,83.38c-.33,0-.64-.19-.77-.51l-.69-1.6c-.18-.43.01-.92.44-1.11.43-.18.92.01,1.11.44l.69,1.6c.18.43-.01.92-.44,1.11-.11.05-.22.07-.33.07Z" />
      <path class="cls-1"
        d="M95.07,98.01c-.33,0-.64-.19-.77-.51l-5.4-12.56c-.18-.43.01-.92.44-1.11.43-.18.92.01,1.11.44l5.4,12.56c.18.43-.01.92-.44,1.11-.11.05-.22.07-.33.07Z" />
      <path class="cls-1"
        d="M109.1,130.67c-.18,0-.37-.06-.52-.18l-25.38-19.81c-.37-.29-.43-.82-.15-1.18.29-.37.82-.43,1.18-.15l22.79,17.79-10.45-24.32c-.18-.43.01-.92.44-1.11.43-.18.92.01,1.11.44l11.74,27.34c.15.35.04.76-.26,1-.15.12-.33.18-.51.18Z" />
      <path class="cls-1"
        d="M80.86,108.63c-.18,0-.36-.06-.52-.18l-6.79-5.3c-.37-.29-.43-.82-.15-1.18.29-.37.82-.43,1.18-.15l6.79,5.3c.37.29.43.82.15,1.18-.17.21-.41.32-.66.32Z" />
      <path class="cls-1"
        d="M71.08,101c-.18,0-.36-.06-.52-.18l-1.95-1.52c-.37-.29-.43-.82-.15-1.18.29-.37.82-.43,1.18-.15l1.95,1.52c.37.29.43.82.15,1.18-.17.21-.41.32-.66.32Z" />
      <path class="cls-1"
        d="M127.01,67.26c-.08,0-.15,0-.23-.03-.45-.13-.71-.59-.58-1.04l3.18-11.26c.13-.45.59-.71,1.04-.58.45.13.71.59.58,1.04l-3.18,11.26c-.1.37-.44.61-.81.61Z" />
      <path class="cls-1"
        d="M124.09,77.59c-.08,0-.15,0-.23-.03-.45-.13-.71-.59-.58-1.04l1.44-5.1c.13-.45.59-.71,1.04-.58.45.13.71.59.58,1.04l-1.44,5.1c-.1.37-.44.61-.81.61Z" />
      <path class="cls-1"
        d="M120.86,89.02c-.08,0-.15,0-.23-.03-.45-.13-.71-.59-.58-1.04l2.04-7.24c.13-.45.59-.71,1.04-.58.45.13.71.59.58,1.04l-2.04,7.24c-.1.37-.44.61-.81.61Z" />
      <path class="cls-1"
        d="M119.21,94.87c-.08,0-.15,0-.23-.03-.45-.13-.71-.59-.58-1.04l.89-3.14c.13-.45.59-.71,1.04-.58.45.13.71.59.58,1.04l-.89,3.14c-.1.37-.44.61-.81.61Z" />
      <path class="cls-1"
        d="M109.1,130.67s-.08,0-.12,0c-.42-.06-.73-.43-.72-.85l.5-27.34c0-.46.39-.81.86-.83.47,0,.84.39.83.86l-.38,20.81,6.82-24.15c.13-.45.59-.71,1.04-.58.45.13.71.59.58,1.04l-8.59,30.43c-.1.37-.44.61-.81.61Z" />
      <path class="cls-1"
        d="M109.74,96.08h-.02c-.47,0-.84-.39-.83-.86l1.04-56.54c0-.47.42-.82.86-.83.47,0,.84.39.83.86l-1.04,56.54c0,.46-.38.83-.84.83Z" />
      <path class="cls-1"
        d="M110.87,34.49h-.02c-.47,0-.84-.39-.83-.86l.22-11.89c0-.47.39-.85.86-.83.47,0,.84.39.83.86l-.22,11.89c0,.46-.38.83-.84.83Z" />
      <path class="cls-1"
        d="M109.1,130.67c-.3,0-.58-.16-.74-.43-.18-.32-.13-.73.13-1l26.86-27.82c.32-.33.86-.34,1.19-.02.33.32.34.86.02,1.19l-24.92,25.81,51.97-11.51c.45-.1.9.19,1.01.64.1.45-.19.9-.64,1l-54.7,12.11c-.06.01-.12.02-.18.02Z" />
      <path class="cls-1"
        d="M140.79,97.85c-.21,0-.42-.08-.59-.24-.33-.32-.34-.86-.02-1.19l7.41-7.68c.32-.33.86-.34,1.19-.02.33.32.34.86.02,1.19l-7.41,7.68c-.16.17-.39.26-.61.26Z" />
      <path class="cls-7" d="M58.85,140.24l102.84-17.03s11.23,33.04-40.73,39.66c-51.95,6.63-62.11-22.63-62.11-22.63Z" />
      <path class="cls-7"
        d="M53.86,140.49c0-.63,7.1-48.13,48.72-49.6,41.62-1.48,60.53,32.32,60.53,32.32l-109.24,17.28Z" />
      <path class="cls-1"
        d="M160.07,122.6c0-6.15-9.96-20.01-39.55-21.13-5.31-.2-11.05,0-17.06.63-.77.08-1.53.17-2.29.26-5.31.68-10.32,1.85-14.93,3.47,0,0,0,0-.01,0-27.94,9.8-33.13,32.89-33.34,33.86-.08.4,0,.81.25,1.13.37.5,9.35,12.15,39.24,13.4,1.75.07,3.53.11,5.34.11,5.17,0,10.58-.29,16.16-.88,3.81-.49,7.51-1.17,11.01-2,0,0,0,0,0,0,28.93-6.87,35.2-23.16,35.17-28.87Z" />
      <path class="cls-1"
        d="M59.25,119.04c.92,0,1.82-.45,2.36-1.27.86-1.3.49-3.05-.81-3.91l-21.81-14.34c-1.3-.85-3.05-.49-3.91.81-.86,1.3-.49,3.05.81,3.91l21.81,14.34c.48.31,1.01.46,1.55.46Z" />
      <path class="cls-1"
        d="M84.65,99.56c-4.03,1.05-6.39,1.89-6.47,1.92-.73.27-1.11,1.08-.84,1.81.21.57.75.93,1.32.93.16,0,.32-.03.48-.09.09-.03,2.69-.96,7.09-2.07.45.29.99.45,1.53.45.36,0,.73-.07,1.09-.22.58-.24,1.02-.66,1.32-1.16,8.36-1.82,20.7-3.61,34.34-2.63.38.53.93.93,1.61,1.1.22.06.45.08.67.08.73,0,1.43-.3,1.94-.79,5.08.57,10.29,1.55,15.5,3.08.75.21,1.53-.21,1.75-.96.22-.75-.21-1.53-.96-1.75-5.1-1.49-10.19-2.48-15.17-3.08l7.99-32.66c.37-1.51-.56-3.04-2.07-3.41-1.51-.37-3.04.56-3.41,2.07l-8.18,33.47c-13.39-.88-25.52.81-33.97,2.59l-16.08-38.38c-.6-1.44-2.26-2.12-3.69-1.51-1.44.6-2.11,2.25-1.51,3.69l15.71,37.5Z" />
      <path class="cls-1"
        d="M156.54,106.76c.73,0,1.47-.28,2.02-.85l18.89-19.36c1.09-1.12,1.07-2.9-.05-3.99-1.11-1.08-2.9-1.07-3.99.05l-18.89,19.36c-1.09,1.12-1.07,2.9.05,3.99.55.53,1.26.8,1.97.8Z" />
      <path class="cls-1"
        d="M97.69,157.31c-1.51-.07-2.89,1.08-3,2.63l-2.36,36.36c-.1,1.55,1.08,2.89,2.63,3,.06,0,.12,0,.19,0,1.47,0,2.71-1.15,2.81-2.64l2.36-36.36c.1-1.55-1.08-2.89-2.63-3Z" />
      <path class="cls-1"
        d="M137.7,154.77c-.61-1.43-2.27-2.1-3.7-1.5-1.44.61-2.11,2.26-1.5,3.7l10.58,25.03c.46,1.07,1.5,1.72,2.6,1.72.37,0,.74-.07,1.1-.22,1.44-.61,2.11-2.26,1.5-3.7l-10.58-25.03Z" />
      <path class="cls-1"
        d="M155.79,143.6c-1.05-1.15-2.84-1.22-3.99-.17-1.15,1.05-1.22,2.84-.17,3.99l21.72,23.61c.56.61,1.32.91,2.08.91.68,0,1.37-.25,1.91-.74,1.15-1.05,1.22-2.84.17-3.99l-21.72-23.61Z" />
      <path class="cls-1"
        d="M81.16,156.83c-20.64-2.51-27.75-11.19-27.82-11.28-.48-.61-1.36-.72-1.97-.24-.62.48-.72,1.37-.25,1.98.24.31,4.95,6.16,17.72,9.92l-14.93,29.5c-.7,1.39-.15,3.09,1.24,3.79.41.21.84.3,1.27.3,1.03,0,2.02-.56,2.52-1.55l15.11-29.85c.14-.27.21-.56.26-.84,2.01.41,4.18.78,6.51,1.06.06,0,.12.01.17.01.7,0,1.31-.52,1.4-1.24.09-.77-.46-1.48-1.23-1.57Z" />
      <path class="cls-1"
        d="M117.72,157.7c-.24-1.54-1.69-2.58-3.22-2.35-1.54.24-2.59,1.68-2.35,3.22l5.99,38.35c.22,1.39,1.42,2.39,2.78,2.39.15,0,.29-.01.44-.03,1.54-.24,2.59-1.68,2.35-3.22l-5.99-38.35Z" />
      <path class="cls-1"
        d="M106.46,93.42h.06c1.56-.03,2.79-1.32,2.76-2.88l-.8-39.97c-.03-1.56-1.31-2.68-2.88-2.76-1.56.03-2.79,1.32-2.76,2.88l.8,39.97c.03,1.54,1.29,2.76,2.82,2.76Z" />
      <path class="cls-3"
        d="M161.69,123.21c.03,5.53-6.18,20.87-34.1,27.5-3.3.79-6.91,1.47-10.86,1.97-8.07.85-15.12,1.02-21.27.76-29.56-1.24-38.16-12.83-38.16-12.83,0,0,4.91-23.18,32.44-32.83,4.88-1.72,10.49-3.02,16.9-3.67,6.26-.65,11.87-.82,16.87-.62,29.08,1.1,38.19,14.44,38.19,19.72Z" />
      <path class="cls-1"
        d="M123.5,103.49c-4.99-.2-10.61-.03-16.87.62-6.4.65-12.02,1.95-16.9,3.67-27.53,9.65-32.44,32.83-32.44,32.83,0,0,.13.17.37.44,27.84-21.49,68.43-26.39,103.94-18.65-.84-5.71-10.4-17.85-38.11-18.9Z" />
      <path class="cls-1"
        d="M138.14,128.48c0,8.97-4.12,16.98-10.55,22.23-3.3.79-6.91,1.47-10.86,1.97-8.07.85-15.12,1.02-21.27.76-8.72-4.91-14.61-14.24-14.61-24.96,0-8.15,3.41-15.51,8.88-20.7,4.88-1.72,10.49-3.02,16.9-3.67,6.26-.65,11.87-.82,16.87-.62,8.74,4.88,14.64,14.24,14.64,24.99Z" />
      <path class="cls-6"
        d="M119.5,103.41c1.38,0,2.71.03,4,.08,8.74,4.88,14.64,14.24,14.64,24.99,0,8.97-4.12,16.98-10.55,22.23-3.3.79-6.91,1.47-10.86,1.97-5.83.61-11.13.87-15.95.87-1.84,0-3.62-.04-5.32-.11-8.72-4.91-14.61-14.24-14.61-24.96,0-8.15,3.41-15.51,8.88-20.7,4.88-1.72,10.49-3.02,16.9-3.67,4.64-.48,8.92-.7,12.86-.7h0ZM119.5,102.2h0c-4.11,0-8.48.24-12.99.7-6.14.62-11.92,1.88-17.17,3.73l-.24.09-.19.18c-5.89,5.58-9.26,13.45-9.26,21.58,0,10.76,5.84,20.73,15.23,26.02l.25.14h.29c1.76.08,3.56.12,5.37.12,5.12,0,10.53-.29,16.07-.88,3.81-.49,7.51-1.16,11.01-2l.27-.06.21-.18c6.99-5.7,11-14.14,11-23.17,0-10.81-5.85-20.8-15.26-26.05l-.25-.14h-.29c-1.32-.06-2.68-.09-4.05-.09h0Z" />
      <path class="cls-2"
        d="M123.5,103.49c-4.99-.2-10.61-.03-16.87.62-6.4.65-12.02,1.95-16.9,3.67-5.34,5.06-8.69,12.2-8.85,20.11,17.16-6.92,36.52-9.68,55.62-8.79-2.31-6.66-6.94-12.22-13-15.6Z" />
      <path class="cls-3"
        d="M91.97,127.56c-12.93,1.07-20.13,4.33-20.14,8.48,0,4.15,2.11,8.56,16.75,8.56s20.85-18.49,3.39-17.05Z" />
      <path class="cls-6"
        d="M100.75,154.96c-1.81,0-3.59-.04-5.34-.11-29.89-1.25-38.87-12.91-39.24-13.4-.24-.32-.33-.74-.25-1.13.21-.98,5.39-24.07,33.35-33.87,5.27-1.86,11.06-3.12,17.22-3.74,6.02-.63,11.76-.83,17.06-.63,29.59,1.12,39.54,14.98,39.55,21.13.02,5.71-6.25,22.01-35.19,28.87-3.49.84-7.19,1.51-11,2-5.58.58-10.99.88-16.16.88ZM58.85,140.24c2.02,2.12,11.7,10.75,36.67,11.79,6.6.28,13.69.02,21.06-.75,3.68-.48,7.28-1.13,10.68-1.94,27.16-6.45,33.05-21.04,33.02-26.12h0c0-4.52-8.73-17.25-36.83-18.31-5.18-.21-10.78,0-16.67.61-5.94.6-11.52,1.81-16.57,3.59-23.9,8.37-30.3,27.35-31.36,31.13ZM163.1,123.21h.03-.03Z" />
      <path class="cls-6"
        d="M62.29,119.65c-.53,0-1.07-.15-1.55-.46l-21.81-14.34c-1.3-.86-1.66-2.61-.81-3.91.86-1.3,2.61-1.66,3.91-.81l21.81,14.34c1.3.86,1.66,2.61.81,3.91-.54.82-1.44,1.27-2.36,1.27Z" />
      <path class="cls-6"
        d="M90.8,103.12c-1.1,0-2.15-.65-2.6-1.73l-16.22-38.72c-.6-1.44.07-3.09,1.51-3.69,1.43-.61,3.09.07,3.69,1.51l16.22,38.72c.6,1.44-.07,3.09-1.51,3.69-.36.15-.72.22-1.09.22Z" />
      <path class="cls-6"
        d="M129.83,100.29c-.22,0-.45-.02-.67-.08-1.51-.37-2.44-1.9-2.07-3.41l8.31-34c.37-1.51,1.9-2.44,3.41-2.07,1.51.37,2.44,1.9,2.07,3.41l-8.31,34c-.31,1.29-1.47,2.15-2.74,2.15Z" />
      <path class="cls-6"
        d="M159.58,107.37c-.71,0-1.42-.27-1.97-.8-1.12-1.09-1.14-2.87-.05-3.99l18.89-19.36c1.09-1.12,2.88-1.13,3.99-.05,1.12,1.09,1.14,2.87.05,3.99l-18.89,19.36c-.55.57-1.29.85-2.02.85Z" />
      <path class="cls-6"
        d="M59.46,191.41c-.43,0-.86-.1-1.27-.3-1.39-.71-1.95-2.4-1.24-3.79l15.11-29.85c.7-1.39,2.4-1.95,3.79-1.24,1.39.71,1.95,2.4,1.24,3.79l-15.11,29.85c-.5.98-1.49,1.55-2.52,1.55Z" />
      <path class="cls-6"
        d="M98.19,199.92c-.06,0-.12,0-.19,0-1.55-.1-2.73-1.44-2.63-3l2.36-36.36c.1-1.56,1.49-2.7,3-2.63,1.55.1,2.73,1.44,2.63,3l-2.36,36.36c-.1,1.49-1.34,2.64-2.81,2.64Z" />
      <path class="cls-6"
        d="M148.72,184.33c-1.1,0-2.14-.65-2.6-1.72l-10.58-25.03c-.61-1.44.07-3.09,1.5-3.7,1.43-.61,3.09.07,3.7,1.5l10.58,25.03c.61,1.43-.07,3.09-1.5,3.7-.36.15-.73.22-1.1.22Z" />
      <path class="cls-6"
        d="M178.47,172.54c-.76,0-1.52-.31-2.08-.91l-21.72-23.61c-1.05-1.15-.98-2.93.17-3.99,1.15-1.05,2.93-.98,3.99.17l21.72,23.61c1.05,1.15.98,2.93-.17,3.99-.54.5-1.23.74-1.91.74Z" />
      <circle class="cls-6" cx="109.5" cy="127.57" r="8.47" transform="translate(-58.62 127.39) rotate(-49.3)" />
      <path class="cls-6"
        d="M84.03,160.25c-.06,0-.11,0-.17-.01-21.93-2.67-29.39-11.94-29.7-12.34-.48-.61-.37-1.5.25-1.98.61-.48,1.49-.37,1.97.24h0c.07.09,7.18,8.77,27.82,11.28.77.09,1.32.8,1.23,1.57-.09.72-.7,1.24-1.4,1.24Z" />
      <path class="cls-6"
        d="M81.69,104.82c-.58,0-1.12-.36-1.32-.93-.27-.73.11-1.54.84-1.81.33-.12,33.52-11.97,66.86-2.21.75.22,1.18,1,.96,1.75-.22.75-1,1.17-1.75.96-32.47-9.49-64.78,2.04-65.1,2.16-.16.06-.32.09-.48.09Z" />
      <path class="cls-6"
        d="M123.96,199.92c-1.36,0-2.57-.99-2.78-2.39l-5.99-38.35c-.24-1.54.81-2.98,2.35-3.22,1.53-.23,2.98.81,3.22,2.35l5.99,38.35c.24,1.54-.81,2.98-2.35,3.22-.15.02-.29.03-.44.03Z" />
      <path class="cls-6"
        d="M109.5,94.03c-1.53,0-2.79-1.23-2.82-2.76l-.8-39.97c-.03-1.56,1.21-2.85,2.76-2.88,1.57.09,2.85,1.21,2.88,2.76l.8,39.97c.03,1.56-1.21,2.85-2.76,2.88h-.06Z" />
      <polygon class="cls-7"
        points="16.63 181.07 20.26 188.42 28.36 189.59 22.5 195.31 23.88 203.39 16.63 199.57 9.38 203.39 10.77 195.31 4.9 189.59 13.01 188.42 16.63 181.07" />
      <path class="cls-5"
        d="M9.38,204.23c-.17,0-.35-.05-.5-.16-.26-.19-.39-.51-.34-.82l1.31-7.64-5.55-5.41c-.23-.22-.31-.56-.21-.86.1-.31.36-.53.68-.57l7.67-1.11,3.43-6.95c.14-.29.43-.47.76-.47h0c.32,0,.61.18.76.47l3.43,6.95,7.67,1.11c.32.05.58.27.68.57.1.3.02.64-.21.86l-5.55,5.41,1.31,7.64c.05.32-.08.64-.34.82-.26.19-.6.21-.89.06l-6.86-3.61-6.86,3.61c-.12.06-.26.1-.39.1ZM6.71,190.18l4.64,4.53c.2.19.29.47.24.75l-1.1,6.39,5.74-3.02c.25-.13.54-.13.78,0l5.74,3.02-1.1-6.39c-.05-.27.04-.55.24-.75l4.64-4.53-6.42-.93c-.27-.04-.51-.21-.63-.46l-2.87-5.81-2.87,5.81c-.12.25-.36.42-.63.46l-6.42.93Z" />
      <polygon class="cls-7"
        points="36.23 143.66 38.04 147.33 42.1 147.92 39.16 150.78 39.86 154.82 36.23 152.91 32.6 154.82 33.3 150.78 30.36 147.92 34.42 147.33 36.23 143.66" />
      <polygon class="cls-7"
        points="139.55 36.11 141.36 39.79 145.42 40.38 142.49 43.24 143.18 47.27 139.55 45.37 135.93 47.27 136.62 43.24 133.69 40.38 137.74 39.79 139.55 36.11" />
      <path class="cls-5"
        d="M139.55,36.11l1.81,3.67,4.05.59-2.93,2.86.69,4.04-3.63-1.91-3.63,1.91.69-4.04-2.93-2.86,4.05-.59,1.81-3.67h0ZM139.55,34.9c-.46,0-.88.26-1.09.68l-1.53,3.1-3.42.5c-.46.07-.84.39-.98.83-.14.44-.02.92.31,1.24l2.48,2.41-.58,3.41c-.08.46.11.92.48,1.19.21.15.46.23.71.23.19,0,.39-.05.56-.14l3.06-1.61,3.06,1.61c.18.09.37.14.56.14.25,0,.5-.08.71-.23.37-.27.56-.73.48-1.19l-.58-3.41,2.48-2.41c.33-.32.45-.8.31-1.24-.14-.44-.52-.76-.98-.83l-3.42-.5-1.53-3.1c-.2-.41-.63-.68-1.09-.68h0Z" />
      <polygon class="cls-7"
        points="83.92 189.94 85.73 193.61 89.79 194.2 86.85 197.06 87.55 201.1 83.92 199.19 80.29 201.1 80.99 197.06 78.05 194.2 82.11 193.61 83.92 189.94" />
      <path class="cls-5"
        d="M36.23,143.66l1.81,3.67,4.05.59-2.93,2.86.69,4.04-3.63-1.91-3.63,1.91.69-4.04-2.93-2.86,4.05-.59,1.81-3.67h0ZM36.23,142.45c-.46,0-.88.26-1.09.68l-1.53,3.1-3.42.5c-.46.07-.84.39-.98.83-.14.44-.02.92.31,1.24l2.48,2.41-.58,3.41c-.08.46.11.92.48,1.19.21.15.46.23.71.23.19,0,.39-.05.56-.14l3.06-1.61,3.06,1.61c.18.09.37.14.56.14.25,0,.5-.08.71-.23.37-.27.56-.73.48-1.19l-.58-3.41,2.48-2.41c.33-.32.45-.8.31-1.24-.14-.44-.52-.76-.98-.83l-3.42-.5-1.53-3.1c-.2-.41-.63-.68-1.09-.68h0Z" />
      <path class="cls-5"
        d="M83.92,189.94l1.81,3.67,4.05.59-2.93,2.86.69,4.04-3.63-1.91-3.63,1.91.69-4.04-2.93-2.86,4.05-.59,1.81-3.67h0ZM83.92,188.73c-.46,0-.88.26-1.09.68l-1.53,3.1-3.42.5c-.46.07-.84.39-.98.83-.14.44-.02.92.31,1.24l2.48,2.41-.58,3.41c-.08.46.11.92.48,1.19.21.15.46.23.71.23.19,0,.39-.05.56-.14l3.06-1.61,3.06,1.61c.18.09.37.14.56.14.25,0,.5-.08.71-.23.37-.27.56-.73.48-1.19l-.58-3.41,2.48-2.41c.33-.32.45-.8.31-1.24-.14-.44-.52-.76-.98-.83l-3.42-.5-1.53-3.1c-.2-.41-.63-.68-1.09-.68h0Z" />
      <polygon class="cls-7"
        points="111.43 4.9 115.06 12.24 123.17 13.42 117.3 19.14 118.68 27.21 111.43 23.4 104.18 27.21 105.57 19.14 99.7 13.42 107.81 12.24 111.43 4.9" />
      <path class="cls-5"
        d="M104.18,28.05c-.17,0-.35-.05-.5-.16-.26-.19-.39-.51-.34-.82l1.31-7.64-5.55-5.41c-.23-.22-.31-.56-.21-.86.1-.31.36-.53.68-.57l7.67-1.11,3.43-6.95c.14-.29.43-.47.76-.47h0c.32,0,.61.18.76.47l3.43,6.95,7.67,1.11c.32.05.58.27.68.57.1.3.02.64-.21.86l-5.55,5.41,1.31,7.64c.05.32-.08.64-.34.82-.26.19-.6.21-.89.06l-6.86-3.6-6.86,3.6c-.12.06-.26.1-.39.1ZM101.51,14.01l4.64,4.53c.2.19.29.47.24.75l-1.1,6.39,5.74-3.02c.25-.13.54-.13.78,0l5.74,3.02-1.1-6.39c-.05-.27.04-.55.24-.75l4.64-4.53-6.42-.93c-.27-.04-.51-.21-.63-.46l-2.87-5.81-2.87,5.81c-.12.25-.36.42-.63.46l-6.42.93Z" />
      <polygon class="cls-7"
        points="203.23 178.93 206.85 186.27 214.96 187.45 209.09 193.17 210.48 201.24 203.23 197.43 195.98 201.24 197.36 193.17 191.5 187.45 199.6 186.27 203.23 178.93" />
      <path class="cls-5"
        d="M210.48,202.08c-.13,0-.27-.03-.39-.1l-6.86-3.61-6.86,3.61c-.28.15-.63.13-.89-.06-.26-.19-.39-.51-.34-.82l1.31-7.64-5.55-5.41c-.23-.22-.31-.56-.21-.86.1-.31.36-.53.68-.57l7.67-1.11,3.43-6.95c.28-.58,1.23-.58,1.51,0l3.43,6.95,7.67,1.11c.32.05.58.27.68.57.1.3.02.64-.21.86l-5.55,5.41,1.31,7.64c.05.32-.08.64-.34.82-.15.11-.32.16-.5.16ZM203.23,196.59c.13,0,.27.03.39.1l5.74,3.02-1.1-6.39c-.05-.27.04-.55.24-.75l4.64-4.53-6.42-.93c-.27-.04-.51-.21-.63-.46l-2.87-5.81-2.87,5.81c-.12.25-.36.42-.63.46l-6.42.93,4.64,4.53c.2.19.29.47.24.75l-1.1,6.39,5.74-3.02c.12-.06.26-.1.39-.1Z" />
      <polygon class="cls-7"
        points="183.41 132.8 185.91 137.86 191.5 138.67 187.45 142.61 188.41 148.18 183.41 145.55 178.41 148.18 179.36 142.61 175.32 138.67 180.91 137.86 183.41 132.8" />
      <path class="cls-5"
        d="M188.41,149.02c-.13,0-.27-.03-.39-.1l-4.61-2.42-4.61,2.42c-.28.15-.63.13-.89-.06-.26-.19-.39-.51-.34-.82l.88-5.13-3.73-3.63c-.23-.22-.31-.56-.21-.86.1-.31.36-.53.68-.57l5.15-.75,2.3-4.67c.28-.58,1.23-.58,1.51,0l2.3,4.67,5.15.75c.32.05.58.27.68.57.1.3.02.64-.21.86l-3.73,3.63.88,5.13c.05.32-.08.64-.34.82-.15.11-.32.16-.5.16ZM183.41,144.71c.13,0,.27.03.39.1l3.49,1.83-.67-3.88c-.05-.27.04-.55.24-.75l2.82-2.75-3.9-.57c-.27-.04-.51-.21-.63-.46l-1.74-3.53-1.74,3.53c-.12.25-.36.42-.63.46l-3.9.57,2.82,2.75c.2.19.29.47.24.75l-.67,3.88,3.49-1.83c.12-.07.26-.1.39-.1Z" />
      <polygon class="cls-7"
        points="65.98 86.34 68.48 91.4 74.07 92.21 70.03 96.15 70.98 101.72 65.98 99.09 60.98 101.72 61.94 96.15 57.89 92.21 63.48 91.4 65.98 86.34" />
      <path class="cls-5"
        d="M70.98,102.56c-.13,0-.27-.03-.39-.1l-4.61-2.42-4.61,2.42c-.28.15-.63.13-.89-.06-.26-.19-.39-.51-.34-.82l.88-5.13-3.73-3.63c-.23-.22-.31-.56-.21-.86.1-.31.36-.53.68-.57l5.15-.75,2.3-4.67c.14-.29.43-.47.76-.47h0c.32,0,.61.18.76.47l2.3,4.67,5.15.75c.32.05.58.27.68.57.1.3.02.64-.21.86l-3.73,3.63.88,5.13c.05.32-.08.64-.34.82-.15.11-.32.16-.5.16ZM59.71,92.8l2.82,2.75c.2.19.29.47.24.75l-.67,3.88,3.49-1.83c.25-.13.54-.13.78,0l3.49,1.83-.67-3.88c-.05-.27.04-.55.24-.75l2.82-2.75-3.9-.57c-.27-.04-.51-.21-.63-.46l-1.74-3.53-1.74,3.53c-.12.25-.36.42-.63.46l-3.9.57Z" />
      <polygon class="cls-7"
        points="153.93 74.68 156.43 79.74 162.01 80.55 157.97 84.5 158.92 90.06 153.93 87.43 148.93 90.06 149.88 84.5 145.84 80.55 151.43 79.74 153.93 74.68" />
      <path class="cls-5"
        d="M158.92,90.91c-.13,0-.27-.03-.39-.1l-4.61-2.42-4.61,2.42c-.28.15-.63.13-.89-.06-.26-.19-.39-.51-.34-.82l.88-5.13-3.73-3.63c-.23-.22-.31-.56-.21-.86.1-.3.36-.53.68-.57l5.15-.75,2.3-4.67c.28-.58,1.23-.58,1.51,0l2.3,4.67,5.15.75c.32.05.58.27.68.57.1.3.02.64-.21.86l-3.73,3.63.88,5.13c.05.32-.08.64-.34.82-.15.11-.32.16-.5.16ZM153.93,86.59c.13,0,.27.03.39.1l3.49,1.83-.67-3.88c-.05-.27.04-.55.24-.75l2.82-2.75-3.9-.57c-.27-.04-.51-.21-.63-.46l-1.74-3.53-1.74,3.53c-.12.25-.36.42-.63.46l-3.9.57,2.82,2.75c.2.19.29.47.24.75l-.67,3.88,3.49-1.83c.12-.07.26-.1.39-.1Z" />
    </g>
  </g>
</svg>