<?xml version="1.0" encoding="UTF-8"?>
<svg id="Capa_2" xmlns="http://www.w3.org/2000/svg" xmlns:xlink="http://www.w3.org/1999/xlink"
  viewBox="0 0 192.3 188.38">
  <defs>
    <style>
      .cls-1 {
        fill: aqua;
      }

      .cls-2 {
        fill: #29abe2;
      }

      .cls-3 {
        fill: #fff;
      }

      .cls-4 {
        filter: none;
      }

      .cls-5 {
        fill: #862291;
      }

      .cls-6 {
        fill: #1b1464;
      }

      .cls-7 {
        fill: #fcee21;
      }

      .cls-8 {
        fill: #ed1e79;
      }
    </style>
  </defs>
  <g id="_0">
    <g class="cls-4">
      <path class="cls-3"
        d="M189.57,78.74c-.06-1.51-.6-2.96-1.55-4.13V31.54c0-5.99-3.7-11.45-9.25-13.69v-6.75c0-6.12-4.98-11.1-11.09-11.1-.22,0-.45,0-.65.02l-41.38,2.27c-6.23.38-11.12,5.56-11.12,11.8,0,.17,0,.33.02.53l.14,1.73c-.47-.98-1.17-1.86-2.04-2.53-.14-3.74-3.22-6.75-6.98-6.75s-6.83,3-6.98,6.75c-.99.76-1.76,1.8-2.23,2.96H19.07c-8.14,0-14.77,6.62-14.77,14.77v101.14c-.96,1.18-1.52,2.65-1.57,4.18-1.71,1.33-2.72,3.38-2.72,5.56s1.01,4.23,2.72,5.56c.06,1.53.61,3,1.57,4.18v9.49c0,8.14,6.62,14.77,14.77,14.77h28.37c-.96,5.37,1.8,9.05,4.78,10.73,1.48.83,3.04,1.25,4.64,1.25,3.8,0,6.95-2.19,9.38-6.52.28.11.56.21.85.29.7.21,1.42.31,2.14.31,3.54,0,6.16-2.04,7.79-6.06h48.15c.06.05.12.1.19.15.15,3.74,3.22,6.74,6.97,6.74s6.83-3,6.98-6.74c.06-.05.12-.1.18-.15h33.78c8.14,0,14.77-6.62,14.77-14.77v-67.65c.94-1.17,1.49-2.63,1.55-4.13,1.71-1.33,2.72-3.38,2.72-5.56s-1.01-4.23-2.72-5.56Z" />
      <rect class="cls-5" x="9.78" y="22.25" width="172.77" height="148.67" rx="9.29" ry="9.29" />
      <path class="cls-6"
        d="M173.26,23.14c4.62,0,8.4,3.78,8.4,8.4v130.1c0,4.62-3.78,8.4-8.4,8.4H19.07c-4.62,0-8.4-3.78-8.4-8.4V31.54c0-4.62,3.78-8.4,8.4-8.4h154.19ZM173.26,21.37H19.07c-5.61,0-10.17,4.56-10.17,10.17v130.1c0,5.61,4.56,10.17,10.17,10.17h154.19c5.61,0,10.17-4.56,10.17-10.17V31.54c0-5.61-4.56-10.17-10.17-10.17h0Z" />
      <path class="cls-7"
        d="M48.26,23.14c-13.21,7.14-25.96,15.47-37.6,25.02v13.82c18.2-16.15,39.2-29.26,61.64-38.85h-24.05Z" />
      <path class="cls-7"
        d="M109.55,23.14h-13.09c-31.11,15.24-60.94,33.82-85.79,57.29v15.06c28.61-29.36,62.18-53.95,98.89-72.35Z" />
      <path class="cls-8"
        d="M181.66,87.34c-51.68,19.99-101.18,47.29-144.03,82.7h34.41c31.54-29.83,69.06-52.95,109.63-68.55v-14.16Z" />
      <path class="cls-8"
        d="M181.66,115.87c-31.66,12.6-60.59,31.38-86.15,54.17h27.61c17.44-17.4,36.82-32.74,58.54-43.88v-10.29Z" />
      <path class="cls-3"
        d="M65.42,160.2c-.11-.02-.23-.03-.34-.03-.8,0-1.47.29-3.33,2.02-1.14,1.06-2.43,2.41-3.62,3.78-2.39,2.75-5.44,6.79-6.38,10.4-1.17,4.45,1.38,6.44,2.53,7.08.84.47,1.71.71,2.58.71,3.54,0,6.28-3.74,8.37-11.43,1.38-5.07,2.01-10.09,2.01-10.14.15-1.17-.65-2.22-1.81-2.4Z" />
      <path class="cls-3"
        d="M127.61,75.11l-3.02-3.89c-.56-2.14-3.2-11.49-9-20.96-8.76-14.28-20.54-21.83-34.07-21.83-2.58,0-5.27.27-7.97.81-15.33,3.05-25.88,9.28-31.38,18.51-3.16,5.31-4.59,11.54-4.25,18.55-1.31.51-3.3,1.37-6.06,2.63-.85.39-1.35,1.27-1.25,2.2.07.61.16,1.24.27,1.96-2.75,2.15-6.67,5.84-9.85,10.1-6.3,8.44-8.17,16.76-5.39,24.06,4.81,12.63,16.79,15.09,26.43,17.07,9.24,1.9,17.23,3.53,21.54,12.02,4.96,9.75,0,20.6-.06,20.71-.44.93-.16,2.05.68,2.66.81.6,2,.53,2.74-.16l2.06-1.92.53,2.27c.16.67.63,1.23,1.27,1.5.63.26,1.37.2,1.95-.15l.25,1.78c.04.29.14.56.29.79-.19-.06-.4-.11-.61-.11h-.03s-.11,0-.11,0c-.44.02-.86.18-1.21.45-.07.06-.14.12-.25.23-2,2.13-6.55,7.46-5.57,11.04.36,1.31,1.34,2.26,2.76,2.68.31.09.63.14.95.14,3.49,0,4.49-4.97,4.87-6.85.49-2.46.68-4.86.71-5.28.01-.09.02-.17.02-.26,0-.4-.12-.77-.31-1.09.1.03.2.06.31.07.11.02.23.03.34.03.82,0,1.57-.47,1.93-1.2.35-.71,8.43-17.53-.04-34.19-4.54-8.93-11.18-13.51-18.11-16.23.08-.02.15-.05.23-.08,5.33-2.15,10.77-4.48,16.17-6.94.73.49,1.13.92,1.18,1.05.37,1.3.78,3.75.86,4.24.1.63.48,1.18,1.02,1.5.54.32,1.22.39,1.81.18,3.17-1.1,6.38-2.39,9.8-3.91l2.48,4.84c.44.86,1.43,1.32,2.36,1.13,0,0,0,0,0,0l2.2,4.29c.43.84,1.36,1.32,2.32,1.13.93-.18,1.65-.96,1.74-1.91l.06-.57,3.57,5.09.09.11c.65.75,1.14,1.69,1.24,2.1-.34.17-1.23.42-2.25.43h-.84s-6.11,7.49-6.11,7.49l.83.22c-.06.47.12.94.49,1.27l7.12,6.1-.55.47c-.31.27-.5.66-.51,1.07-.06,3.47,0,3.75.03,3.92.15.66.74,1.14,1.41,1.14.1,0,.2-.01.31-.03.77-.17,1.24-.89,1.1-1.64-.01-.22-.02-1.24,0-2.68l.77-.65,2.65.73.45,4.52c.08.74.69,1.29,1.43,1.29.04,0,.09,0,.14,0,.79-.08,1.36-.78,1.29-1.57l-.55-5.5c-.06-.59-.48-1.09-1.05-1.24l-4.02-1.11-6.84-5.86,3.36-4.39c1.55-.14,3.91-.68,4.69-2.56.95-2.29-1.17-5.03-1.8-5.77l-3.61-5.14.79.06,3.13,3.62,3.47-1.74,2.62,1.6c-.05,3.44-.13,6.6-.22,8.12-.53.21-1.22.5-2.1.88l-.81.35.42.6c-.2.29-.33.59-.37.88-.6,4.28-.2,6.64,1.26,7.42.91.49,2.42.99,3.51,1.32-.51,3.13-.52,3.39-.19,3.82.22.4,1.05,2.01,1.59,3.05.35.68,1.25.97,1.93.62.34-.18.59-.47.71-.84.12-.37.08-.75-.09-1.1-.72-1.41-1.16-2.27-1.47-2.8.08-.52.23-1.45.37-2.35h1.23l.32,1.29c.19.75.96,1.24,1.74,1.05.37-.09.69-.32.89-.65.2-.33.26-.71.16-1.09l-.59-2.38c-.16-.64-.73-1.09-1.39-1.09h-3.38c-.63-.18-2.79-.79-3.81-1.3-.1-.32-.27-1.38-.06-3.5.08-.04,2.6-1.14,2.93-1.4.71-.56.76-1.58.83-2.98.04-.89.09-2.11.12-3.64.06-2.62.09-5.25.09-5.25v-1.02s-6.05-3.71-6.05-3.71l-1.05.53c.04-.41-.03-.82-.22-1.2l-2.46-4.83c.19-.18.38-.36.56-.55.62-.64.78-1.61.4-2.41l-2.15-4.59c2.55-1.42,5.04-2.85,7.46-4.23l.18-.1c1.16-.66,2.32-1.32,3.47-1.98.98-.56,1.37-1.79.88-2.81l-3.08-6.41c3.88-2.29,7.75-4.65,11.49-7.02.51-.32.87-.85.97-1.45.1-.6-.05-1.21-.42-1.69ZM29.73,101.89c-1.39-3.65,2.76-9.56,7.29-14.08,1.03,1.2,2.19,2.27,3.44,3.19.6.45,1.42.54,2.12.25l2.33-.98c4.76,9.84,11.3,21.47,11.58,21.97.03.06.07.11.11.17-3.91-1.31-7.85-2.12-11.49-2.87-9.6-1.97-13.67-3.21-15.36-7.66Z" />
      <path class="cls-7"
        d="M112.06,141.54l-4.18-1.15-7.82-6.71.59-1c.2-.34.09-.78-.26-.98-.34-.2-.78-.09-.98.26l-.89,1.52c-.18.3-.11.68.15.91l7.76,6.65-1.2,1.01c-.16.13-.25.33-.25.54-.06,3.39,0,3.66.02,3.75.08.34.38.58.71.58.05,0,.1,0,.15-.02.39-.09.63-.45.55-.84-.03-.23-.02-1.71,0-3.12l1.3-1.1,3.49.96.5,5.01c.04.37.35.65.71.65.02,0,.05,0,.07,0,.39-.04.68-.39.64-.79l-.55-5.5c-.03-.3-.24-.54-.52-.62Z" />
      <path class="cls-1"
        d="M122.2,140.32l-.59-2.38c-.08-.32-.37-.55-.7-.55h-3.48c-.49-.14-3.05-.85-4.21-1.47-.32-.21-.58-1.99-.15-5.16.11-.19.63-.65,1.81-.65.4,0,.72-.32.72-.72s-.32-.72-.72-.72c-2.25,0-3.14,1.23-3.22,1.83-.54,3.84-.24,6.09.89,6.69,1.05.56,2.99,1.16,3.98,1.44-.56,3.48-.59,3.7-.4,3.94.17.31,1.07,2.04,1.62,3.12.13.25.38.39.64.39.11,0,.22-.03.33-.08.35-.18.49-.61.31-.97-.83-1.61-1.28-2.5-1.58-2.99.07-.5.31-2,.51-3.21h2.4l.45,1.84c.08.33.37.55.7.55.06,0,.11,0,.17-.02.39-.1.62-.48.52-.87Z" />
      <path class="cls-6"
        d="M100.62,133.7l-2.49-.67,5.2-6.36h.51c1.34-.02,2.78-.42,2.95-.84.2-.48-.59-1.95-1.4-2.89l-.07-.09-6-8.55,1.76-1.24,5.97,8.51c.51.6,2.53,3.14,1.73,5.08-.7,1.7-3.21,2.07-4.4,2.14l-3.75,4.9Z" />
      <path class="cls-6"
        d="M113.38,131.21l-1.38-1.98c1.24-.54,2.01-.85,2.5-1.03.11-1.42.21-5.33.26-9.03l-3.31-2.03-3.32,1.67-4.67-5.4,1.63-1.41,3.57,4.13,2.9-1.45,5.37,3.29v.61s-.04,2.62-.1,5.24c-.03,1.32-.07,2.63-.12,3.62-.06,1.25-.11,2.09-.56,2.45-.14.11-1.7.84-2.77,1.31ZM115.45,130.11h0,0Z" />
      <path class="cls-8"
        d="M98.98,119.46c-.33,0-.63-.18-.79-.48l-3.43-6.69c-.2-.4-.08-.89.3-1.14l8.72-5.78c.15-.1.32-.15.49-.15.07,0,.15,0,.22.03.24.06.45.23.56.45l4.12,8.07c.14.28.13.62-.05.89-.16.25-.44.4-.74.4-.02,0-5.11-.36-5.11-.36l-3.15,1.16-.28,2.8c-.04.39-.33.71-.71.78-.06.01-.11.02-.17.02Z" />
      <path class="cls-6"
        d="M104.28,106.11l4.12,8.07-5.23-.37-3.85,1.42-.33,3.35-3.43-6.69,8.72-5.78h0ZM104.28,104.34c-.34,0-.68.1-.98.29l-8.72,5.78c-.75.5-1.01,1.48-.6,2.28l3.43,6.69c.31.6.92.96,1.57.96.11,0,.22-.01.33-.03.77-.15,1.35-.78,1.43-1.56l.22-2.25,2.46-.91,4.85.34s.08,0,.12,0c.59,0,1.15-.3,1.47-.79.35-.53.39-1.21.1-1.78l-4.12-8.07c-.23-.45-.64-.78-1.12-.91-.15-.04-.3-.06-.45-.06h0Z" />
      <path class="cls-2"
        d="M94.42,114.05c-.33,0-.63-.18-.79-.48l-3.31-6.46c-.22-.43-.06-.96.37-1.18l12.74-6.8c.13-.07.27-.1.42-.1.09,0,.19.02.28.05.23.08.42.24.52.46l3.01,6.41c.16.33.09.73-.16.99-3.57,3.7-7.79,6.02-12.9,7.09-.06.01-.12.02-.18.02Z" />
      <path class="cls-6"
        d="M103.85,99.91l3.01,6.41c-3.48,3.6-7.57,5.82-12.44,6.84l-3.31-6.46,12.74-6.8h0ZM103.85,98.14c-.29,0-.57.07-.83.21l-12.74,6.8c-.85.45-1.18,1.51-.74,2.37l3.31,6.46c.31.6.92.96,1.57.96.12,0,.24-.01.37-.04,5.28-1.11,9.65-3.52,13.35-7.35.51-.53.64-1.31.33-1.98l-3.01-6.41c-.21-.44-.58-.77-1.04-.93-.18-.06-.37-.09-.56-.09h0Z" />
      <path class="cls-5" d="M104.49,101.27l-.64-1.37-12.74,6.8,2.63,5.14c2.91-4.13,6.67-7.65,10.75-10.57Z" />
      <path class="cls-1"
        d="M79.51,112.07c-.16,0-.31-.04-.45-.12-.22-.13-.38-.36-.42-.62,0-.03-.47-2.89-.9-4.38-.23-.81-1.7-1.85-2.67-2.33-.27-.13-.45-.39-.48-.68-.04-.29.08-.59.3-.78,5.5-4.69,12.2-10.33,12.89-10.6.7-.27,23.7-8.6,24.68-8.96.1-.04.2-.05.3-.05.33,0,.65.19.8.5l3.94,8.2c.2.42.04.92-.36,1.15-1.22.69-2.44,1.39-3.66,2.09-10.59,6.06-21.55,12.32-33.69,16.54-.09.03-.19.05-.29.05Z" />
      <path class="cls-6"
        d="M112.76,84.43l3.94,8.2c-11.85,6.73-23.76,13.89-37.2,18.56,0,0-.48-2.92-.92-4.48-.44-1.55-3.13-2.88-3.13-2.88,0,0,11.94-10.18,12.63-10.44.7-.27,24.67-8.95,24.67-8.95h0ZM112.76,82.66c-.2,0-.4.03-.6.11-.98.35-23.99,8.69-24.7,8.96-.32.12-.98.38-13.15,10.75-.45.39-.68.97-.61,1.56.07.59.44,1.1.97,1.37,1,.5,2.1,1.38,2.21,1.78.41,1.44.87,4.25.87,4.28.08.51.39.97.84,1.23.28.16.59.25.9.25.2,0,.39-.03.58-.1,12.22-4.25,23.21-10.53,33.84-16.61,1.22-.7,2.44-1.39,3.66-2.09.81-.46,1.12-1.47.72-2.3l-3.94-8.2c-.3-.63-.93-1-1.59-1h0Z" />
      <path class="cls-2"
        d="M112.76,84.43s-23.97,8.68-24.67,8.95c-.7.27-12.63,10.44-12.63,10.44,0,0,2.69,1.33,3.13,2.88.26.91.53,2.29.71,3.27,10.64-8.82,23.09-15.68,35.17-22.02l-1.7-3.53Z" />
      <path class="cls-6"
        d="M107.12,95.81c-.32,0-.64-.18-.79-.49l-2.85-5.66c-.22-.44-.04-.97.39-1.19.44-.22.97-.04,1.19.39l2.85,5.66c.22.44.04.97-.39,1.19-.13.06-.26.09-.4.09Z" />
      <path class="cls-6"
        d="M109.25,91.88c-.32,0-.64-.18-.79-.49l-1.71-3.4c-.22-.44-.04-.97.39-1.19.44-.22.97-.04,1.19.39l1.71,3.4c.22.44.04.97-.39,1.19-.13.06-.26.09-.4.09Z" />
      <path class="cls-6"
        d="M85.28,105.32c-.31,0-.61-.16-.77-.45l-2.34-4.12c-.24-.42-.09-.96.33-1.2.43-.24.96-.09,1.2.33l2.34,4.12c.24.43.09.96-.33,1.2-.14.08-.29.11-.43.11Z" />
      <path class="cls-6"
        d="M88.31,103.92c-.33,0-.65-.19-.8-.51l-2.01-4.36c-.2-.44-.01-.97.43-1.17.44-.2.97-.01,1.17.43l2.01,4.36c.2.44.01.97-.43,1.17-.12.06-.25.08-.37.08Z" />
      <path class="cls-6"
        d="M89.45,100.89c-.32,0-.63-.17-.79-.48l-1.14-2.2c-.22-.43-.06-.97.38-1.19.44-.22.97-.06,1.19.38l1.14,2.2c.22.43.06.97-.38,1.19-.13.07-.27.1-.41.1Z" />
      <path class="cls-2"
        d="M75.15,163.61s-.09,0-.14-.01c-.38-.06-.68-.36-.74-.75l-.53-3.71-1.64,1.02c-.14.09-.3.13-.47.13-.11,0-.23-.02-.34-.07-.26-.11-.46-.34-.52-.62l-1.03-4.41-3.66,3.41c-.17.16-.39.24-.6.24-.18,0-.37-.06-.52-.17-.34-.25-.46-.71-.27-1.1.05-.11,5.32-11.46.04-21.83-4.59-9.02-13.25-10.8-22.42-12.68-9.82-2.01-20.94-4.3-25.49-16.27-6.24-16.4,14.48-32.9,16.92-34.15.13-.06.26-.1.4-.1.09,0,.18.01.27.04.22.07.41.23.52.44l4.52,8.81s.09,0,.13,0c.28,0,.55.13.72.37.28.4.19.95-.21,1.23,0,0,0,0,0,0-3.25,2.31-13.98,12.48-11.54,18.9,2.01,5.28,7.23,6.59,16.29,8.45,10.58,2.17,23.74,4.87,31.07,19.28,8.2,16.11.37,32.37.04,33.05-.15.31-.46.49-.79.49Z" />
      <path class="cls-6"
        d="M34.14,73.43l4.92,9.59c.08-.04.26-.12.51-.3-2.4,1.7-14.68,12.52-11.85,19.94,2.17,5.71,7.58,7.08,16.94,9,10.39,2.13,23.33,4.79,30.46,18.82,8,15.72.36,31.59.03,32.26l-.72-5.05-2.79,1.73-1.38-5.89-4.78,4.45c.05-.09,5.54-11.78.03-22.61-4.78-9.4-13.65-11.22-23.03-13.15-9.59-1.97-20.46-4.2-24.85-15.72-6.02-15.83,14.13-31.84,16.49-33.05h0ZM39.57,82.71h0,0ZM39.57,82.71s0,0,0,0c0,0,0,0,0,0h0ZM34.14,71.66c-.27,0-.55.06-.8.2-2.62,1.34-23.91,17.99-17.34,35.25,4.73,12.43,16.6,14.87,26.14,16.83,9.34,1.92,17.41,3.57,21.81,12.22,5.06,9.95,0,20.94-.05,21.05-.36.77-.13,1.68.56,2.18.31.23.68.34,1.04.34.43,0,.86-.16,1.2-.47l2.55-2.37.68,2.92c.13.55.52,1.01,1.04,1.23.22.09.45.13.68.13.32,0,.65-.09.93-.27l.49-.3.34,2.37c.11.77.71,1.37,1.47,1.5.09.01.19.02.28.02.67,0,1.28-.38,1.59-.99.34-.7,8.35-17.35-.04-33.84-7.52-14.79-20.92-17.54-31.68-19.75-9.74-2-13.89-3.27-15.65-7.9-2.22-5.83,8.15-15.67,11.19-17.85.47-.32.78-.86.78-1.47,0-.83-.57-1.53-1.34-1.72l-4.29-8.37c-.31-.61-.93-.96-1.57-.96h0Z" />
      <path class="cls-1"
        d="M64.73,131.11c-7.9-10.16-19.27-9.95-33.13-11.69,3.54,1.28,7.3,2.05,10.89,2.79,9.38,1.93,18.24,3.74,23.03,13.15,5.51,10.83.01,22.52-.03,22.61,0,0,9.17-12.61-.76-26.86Z" />
      <path class="cls-5"
        d="M44.65,111.65c-9.36-1.92-14.77-3.29-16.94-9-2.82-7.43,9.48-18.26,11.86-19.94-.25.18-.44.27-.52.31l-4.92-9.59c-.6.31-2.36,1.58-4.53,3.55.79,2.5,1.72,6.81,1.86,9.39-5.55,6.55-9.14,16.69-3.14,21.36,6.52,5.83,14.13,4.93,21.62,6.26,5.79,1.03,13.84,4.09,17.42,6.65-6.91-5.74-15.43-7.49-22.71-8.98Z" />
      <path class="cls-7"
        d="M56.85,182.9c-.65,0-1.31-.19-1.95-.55-1.35-.76-2.79-2.36-1.92-5.65,1.5-5.71,10.38-15.26,12.11-15.26.04,0,.1,0,.15.01.47.07.8.51.74.98-.26,2.09-2.74,20.46-9.12,20.46h0Z" />
      <path class="cls-6"
        d="M65.08,162.33s0,0,.01,0c0,0-2.46,19.69-8.24,19.69-.48,0-.99-.14-1.52-.44-6.85-3.85,8.73-19.25,9.75-19.25h0ZM65.08,160.56c-.7,0-1.31.28-3.07,1.92-1.13,1.06-2.41,2.39-3.6,3.76-2.36,2.72-5.37,6.71-6.3,10.24-1.06,4.04,1.01,5.9,2.34,6.65.78.44,1.59.66,2.39.66,3.34,0,5.96-3.65,8-11.15,1.35-4.99,1.97-9.88,2-10.09.12-.95-.54-1.82-1.49-1.97-.09-.01-.19-.02-.28-.02h0Z" />
      <path class="cls-7"
        d="M69.22,176.99c-.2,0-.4-.03-.59-.09-1.26-.37-1.72-1.18-1.89-1.8-.85-3.12,4.25-8.74,5.28-9.83.17-.18.41-.28.64-.28.12,0,.24.02.35.07.34.15.55.5.53.87-.22,3.32-1.07,11.05-4.32,11.05h0Z" />
      <path class="cls-6"
        d="M72.66,165.87h0,0ZM72.66,165.87s-.67,10.23-3.44,10.23c-.11,0-.23-.02-.35-.05-4.54-1.33,3.78-10.18,3.78-10.18h0ZM72.66,164.11s-.06,0-.09,0c-.37.02-.71.15-.99.36t0,0h0c-.07.06-.14.12-.2.18h0s0,0,0,0c0,0,0,0,0,0-1.53,1.62-6.43,7.19-5.48,10.67.32,1.18,1.21,2.03,2.49,2.41.28.08.56.12.84.12,2.85,0,3.92-3.73,4.49-6.53.48-2.39.67-4.74.7-5.25,0-.07.01-.14.01-.21,0-.97-.78-1.75-1.74-1.77,0,0-.02,0-.03,0h0ZM72.66,167.64h0,0Z" />
      <path class="cls-6"
        d="M34.22,88.48c-.26,0-.52-.11-.69-.33l-6.78-8.54c-.3-.38-.24-.94.14-1.24.38-.3.94-.24,1.24.14l6.78,8.54c.3.38.24.94-.14,1.24-.16.13-.36.19-.55.19Z" />
      <path class="cls-6"
        d="M29.69,94.26c-.18,0-.37-.06-.53-.17l-8.65-6.44c-.39-.29-.47-.84-.18-1.24.29-.39.84-.47,1.24-.18l8.65,6.44c.39.29.47.84.18,1.24-.17.23-.44.36-.71.36Z" />
      <path class="cls-6"
        d="M27.44,99.56h-10.83c-.49,0-.88-.4-.88-.88s.4-.88.88-.88h10.83c.49,0,.88.4.88.88s-.4.88-.88.88Z" />
      <path class="cls-6"
        d="M19.45,111.06c-.32,0-.64-.18-.79-.49-.22-.44-.04-.97.39-1.19l9.72-4.88c.44-.22.97-.04,1.19.39.22.44.04.97-.39,1.19l-9.72,4.88c-.13.06-.26.09-.4.09Z" />
      <path class="cls-6"
        d="M29.17,119.46c-.12,0-.25-.03-.37-.08-.44-.21-.64-.73-.43-1.17l4.58-9.88c.21-.44.73-.64,1.17-.43.44.21.64.73.43,1.17l-4.58,9.88c-.15.32-.47.51-.8.51Z" />
      <path class="cls-6"
        d="M41.35,122.04c-.05,0-.11,0-.16-.01-.48-.09-.8-.55-.71-1.03l1.82-9.81c.09-.48.55-.8,1.03-.71.48.09.8.55.71,1.03l-1.82,9.81c-.08.43-.45.72-.87.72Z" />
      <path class="cls-6"
        d="M50.34,124.9c-.11,0-.21-.02-.32-.06-.46-.18-.68-.69-.51-1.14l3.86-10.03c.18-.46.69-.68,1.14-.51.46.18.68.69.51,1.14l-3.86,10.03c-.13.35-.47.57-.82.57Z" />
      <path class="cls-6"
        d="M58.35,128.3c-.24,0-.49-.1-.66-.3-.32-.37-.29-.92.08-1.25l8.32-7.34c.37-.32.92-.29,1.25.08.32.37.29.92-.08,1.25l-8.32,7.34c-.17.15-.38.22-.58.22Z" />
      <path class="cls-6"
        d="M65.85,136.93c-.27,0-.54-.12-.71-.36-.29-.39-.21-.95.19-1.24l8.79-6.48c.39-.29.95-.21,1.24.19s.21.95-.19,1.24l-8.79,6.48c-.16.12-.34.17-.52.17Z" />
      <path class="cls-6"
        d="M67.96,143.29c-.44,0-.82-.32-.88-.77-.06-.48.28-.93.76-.99l10.63-1.37c.48-.07.93.28.99.76.06.48-.28.93-.76.99l-10.63,1.37s-.08,0-.11,0Z" />
      <path class="cls-6"
        d="M78.28,152.95s-.08,0-.12,0l-10.44-1.4c-.48-.07-.82-.51-.76-.99.06-.48.51-.82.99-.76l10.44,1.4c.48.07.82.51.76.99-.06.44-.44.77-.87.77Z" />
      <path class="cls-1"
        d="M41.73,90.15c-.19,0-.37-.06-.52-.17-5.27-3.89-8.33-10.1-9.34-18.99-.04-.38.16-.75.51-.9,6.78-3.09,7.4-3.09,7.61-3.09.37,0,.7.23.83.57l7.24,19.07c.17.44-.04.94-.48,1.13l-5.5,2.32c-.11.05-.23.07-.34.07Z" />
      <path class="cls-6"
        d="M39.99,67.87l7.24,19.07-5.5,2.32c-5.37-3.96-8.07-10.35-8.99-18.38,0,0,6.6-3.01,7.24-3.01h0ZM39.99,66.1c-.41,0-1.03,0-7.98,3.17-.7.32-1.11,1.05-1.02,1.81,1.04,9.15,4.21,15.56,9.69,19.6.31.23.68.34,1.05.34.23,0,.47-.05.69-.14l5.5-2.32c.88-.37,1.3-1.37.97-2.26l-7.24-19.07c-.26-.69-.92-1.14-1.65-1.14h0Z" />
      <path class="cls-2"
        d="M39.99,67.87c-.25,0-1.43.47-2.75,1.03.78,5.95,1.45,11.74,1.51,17.6.89,1.02,1.88,1.95,2.99,2.76l5.5-2.32-7.24-19.07Z" />
      <path class="cls-8"
        d="M58.36,112.07c-.31,0-.61-.16-.77-.45-.54-.97-13.34-23.76-15.97-32.25-3.81-12.33-3.26-22.75,1.63-30.97,5.3-8.91,15.58-14.93,30.53-17.91,2.63-.52,5.23-.79,7.73-.79,30.4,0,41.11,39,41.91,42.09l3.18,4.11c.15.2.22.45.17.69-.04.25-.19.46-.4.59-21.76,13.77-44.54,25.49-67.69,34.83-.11.04-.22.06-.33.06Z" />
      <path class="cls-6"
        d="M81.51,30.58c31.16,0,41.1,41.6,41.1,41.6l3.3,4.25c-21.84,13.82-44.36,25.4-67.55,34.75,0,0-13.26-23.58-15.89-32.08s-11.12-39.26,31.5-47.75c2.65-.53,5.16-.77,7.55-.77h0ZM81.51,28.81c-2.56,0-5.21.27-7.9.81-15.21,3.03-25.68,9.2-31.12,18.33-5.03,8.44-5.61,19.1-1.72,31.68,2.65,8.59,15.49,31.46,16.04,32.43.32.57.92.9,1.54.9.22,0,.44-.04.66-.13,23.2-9.36,46.02-21.1,67.83-34.9.42-.27.71-.7.8-1.19s-.04-.99-.34-1.39l-3.07-3.96c-.52-2.01-3.14-11.41-8.98-20.93-8.68-14.16-20.35-21.64-33.74-21.64h0Z" />
      <path class="cls-1"
        d="M110.85,47.06c-7.6-10.34-19.4-19.19-36.89-15.71-5.75,1.15-10.56,2.7-14.59,4.55,17.97-5.19,36.61-.05,51.48,11.16Z" />
      <path class="cls-5"
        d="M81.98,47.53c-1.11,0-2.08-10.73,6.45-12.73,8.53-1.99,13.11,4.4,12.65,4.4-1.49,0-3.68-3.92-11.61-3.13s-6.95,9.62-7.49,11.46Z" />
      <path class="cls-5"
        d="M89.48,70.81c.22-.52,6.21,10.77,16.89,6.18,8.59-4.33,3.19-19.74,3.7-20.19.52-.45,9.52,19.63-4.11,23.11-11.81,3.02-16.69-8.59-16.48-9.11Z" />
      <path class="cls-5"
        d="M105.42,76.32c-6.7,2.62-12.08-.51-16.86-8.22-.34-.57-1.06-2.01-1.38-2.59-6.22-11.15-7.38-24.75,1.38-27.45,8.11-2.5,14.36,3.7,18.97,14.29.27.59.51,1.2.75,1.8,3.45,9.12,4.53,19.27-2.85,22.16Z" />
      <path class="cls-2"
        d="M101.06,76.63c-4.46,0-8.84-3.42-12.35-9.62-.3-.54-.59-1.07-.87-1.63-4.22-8.31-5.61-16.98-3.53-22.08.91-2.23,2.43-3.72,4.52-4.43.86-.29,1.75-.44,2.66-.44,5.99,0,12.82,6.69,16.61,16.26.23.56.44,1.13.64,1.69,3.37,9.81,1.9,16.9-4.04,19.46-1.19.51-2.42.77-3.64.77Z" />
      <path class="cls-6"
        d="M91.49,38.88c6.25,0,12.76,7.28,16.2,15.98.23.55.44,1.12.63,1.68,2.92,8.5,2.52,16.18-3.8,18.91-1.16.5-2.32.74-3.46.74-4.49,0-8.73-3.67-11.97-9.39-.29-.53-.58-1.06-.86-1.61-5.28-10.4-6.76-23.34.74-25.89.83-.28,1.67-.42,2.52-.42h0ZM91.49,38h0c-.96,0-1.9.16-2.8.46-2.22.75-3.83,2.33-4.78,4.68-2.12,5.22-.73,14.03,3.54,22.45.28.56.58,1.1.87,1.63,3.59,6.36,8.12,9.85,12.74,9.85,1.28,0,2.56-.27,3.81-.81,6.18-2.66,7.74-9.95,4.28-20.01-.24-.68-.45-1.22-.65-1.73-3.85-9.73-10.84-16.53-17.01-16.53h0Z" />
      <path class="cls-1"
        d="M89.7,40.26c7.88-1.38,14.96,6.79,19.81,20.56-.29-1.39-.69-2.82-1.19-4.28-.2-.56-.41-1.12-.63-1.68-3.91-9.88-11.77-17.93-18.71-15.56-2.72.92-4.25,3.21-4.85,6.25.99-2.11,2.84-4.13,5.58-5.28Z" />
      <path class="cls-6"
        d="M103.96,72.84c-4.01,1.95-8.29-1.06-11.57-5.86-.34-.48-.66-.98-.97-1.49,0,0,0,0,0-.01-.24-.42-.49-.83-.72-1.26-4.44-8.19-6.02-19.21-.22-21.48,5.19-2.03,11.36,4.33,14.8,11.82.12.26.24.52.35.79.12.27.24.55.34.83.07.17.14.33.2.5,2.54,6.74,2.66,13.8-2.2,16.17Z" />
      <path class="cls-1"
        d="M101.57,58.12l.52,6.24c.03.37-.19.74-.54.88-.35.14-.75.04-.99-.24l-7.27-8.82,3.1,8.07c.17.44-.03.94-.46,1.13l-3.53,1.59c-.34-.48-.66-.98-.97-1.49l3.05-1.37-4.7-12.27c-.15-.4,0-.85.37-1.08.37-.22.83-.14,1.1.19l8.9,10.79-.34-4.11c-.03-.37.18-.73.51-.88l4.97-2.21c.12.26.24.52.35.79.12.27.24.55.34.83l-4.4,1.95Z" />
      <path class="cls-6"
        d="M111.01,60.74c-.2,0-.39-.14-.43-.35-.26-1.21-.51-1.98-.51-1.99-.07-.23.06-.48.29-.55.23-.07.48.06.55.29,0,.03.25.81.53,2.06.05.24-.1.47-.34.53-.03,0-.06.01-.09.01Z" />
      <path class="cls-6"
        d="M111.73,66.66c-.24,0-.44-.19-.44-.44-.02-1.19-.12-2.45-.32-3.76-.04-.24.13-.47.37-.5.24-.04.47.13.5.37.2,1.35.32,2.65.33,3.88,0,.24-.19.44-.44.45h0Z" />
      <path class="cls-6"
        d="M101.38,78.56c-1.65,0-3.27-.36-4.86-1.09-.22-.1-.32-.36-.22-.59.1-.22.37-.32.59-.22,2.99,1.37,6.12,1.35,9.3-.07,3-1.34,4.7-4.18,5.04-8.43.02-.24.23-.42.48-.41.24.02.42.23.41.48-.37,4.6-2.24,7.68-5.56,9.16-1.74.78-3.47,1.16-5.17,1.16Z" />
      <path class="cls-6"
        d="M93.71,75.63c-.1,0-.2-.03-.28-.1-2.03-1.64-3.14-3.32-3.19-3.39-.13-.2-.08-.48.13-.61.2-.13.48-.08.61.13.01.02,1.09,1.64,3,3.19.19.15.22.43.07.62-.09.11-.22.16-.34.16Z" />
      <path class="cls-6"
        d="M101.4,73.88c-3.46,0-7.18-2.88-10.37-8.19-.25-.43-.5-.85-.73-1.28-3.56-6.56-4.94-14.14-3.38-18.43.66-1.81,1.8-3.05,3.38-3.67,5.68-2.23,12.34,4.95,15.71,12.84.19.44.38.89.55,1.34,2.39,6.35,3.01,14.08-2.42,16.73h0c-.89.43-1.81.65-2.75.65ZM92.53,42.78c-.64,0-1.28.11-1.9.36-1.34.52-2.3,1.58-2.88,3.15-1.49,4.07-.12,11.35,3.32,17.71.23.43.47.84.71,1.25,3.79,6.31,8.27,9,11.97,7.2h0c4.9-2.39,4.24-9.64,1.99-15.62-.17-.43-.35-.87-.54-1.31-2.83-6.61-7.97-12.73-12.68-12.73ZM103.96,72.84h0,0Z" />
      <path class="cls-6"
        d="M101.47,40.8c-.12,0-.25-.05-.33-.15-.74-.86-1.56-1.61-2.43-2.23-.2-.14-.24-.42-.1-.62.14-.2.42-.24.62-.1.93.66,1.79,1.46,2.58,2.37.16.18.14.46-.05.62-.08.07-.19.11-.29.11Z" />
      <path class="cls-6"
        d="M82.07,48.7c-.21,0-.4-.16-.44-.38-.68-4.47.73-8.42,3.87-10.83,3.13-2.4,7.46-2.85,11.32-1.17.22.1.33.36.23.58-.1.22-.36.33-.58.23-3.56-1.55-7.55-1.14-10.43,1.06-2.87,2.21-4.16,5.85-3.53,9.99.04.24-.13.47-.37.5-.02,0-.04,0-.07,0Z" />
      <path class="cls-5"
        d="M59.37,107.73s-7.82-11.62-11.6-16.51c4.71,9.5,10.59,19.97,10.59,19.97,23.19-9.35,45.71-20.93,67.55-34.75l-.77-.99c-20.39,13.21-65.31,32.58-65.77,32.29Z" />
      <path class="cls-6"
        d="M65.85,108.96c-.31,0-.62-.17-.78-.47l-3.76-7.01c-.23-.43-.07-.97.36-1.2.43-.23.97-.07,1.2.36l3.76,7.01c.23.43.07.97-.36,1.2-.13.07-.28.11-.42.11Z" />
      <path class="cls-6"
        d="M69.01,107.59c-.32,0-.63-.17-.79-.48l-2.34-4.55c-.22-.43-.05-.97.38-1.19.43-.22.97-.05,1.19.38l2.34,4.55c.22.43.05.97-.38,1.19-.13.07-.27.1-.4.1Z" />
      <path class="cls-6"
        d="M117.34,82.6c-.31,0-.61-.16-.77-.45l-2.99-5.31c-.24-.43-.09-.96.34-1.2.43-.24.96-.09,1.2.34l2.99,5.31c.24.43.09.96-.34,1.2-.14.08-.29.11-.43.11Z" />
      <path class="cls-6"
        d="M120.91,80.43c-.33,0-.64-.18-.8-.5l-1.98-4.07c-.21-.44-.03-.97.41-1.18.44-.21.97-.03,1.18.41l1.98,4.07c.21.44.03.97-.41,1.18-.12.06-.26.09-.39.09Z" />
      <path class="cls-5"
        d="M43.63,65.3c-1.11,0-2.08-10.73,6.45-12.73,8.53-1.99,13.11,4.4,12.65,4.4-1.49,0-3.68-3.92-11.61-3.13s-6.95,9.62-7.49,11.46Z" />
      <path class="cls-5"
        d="M51.13,88.58c.22-.52,6.21,10.77,16.89,6.18,8.59-4.33,3.19-19.74,3.7-20.19.52-.45,9.52,19.63-4.11,23.11-11.81,3.02-16.69-8.59-16.48-9.11Z" />
      <path class="cls-5"
        d="M67.07,94.08c-6.7,2.62-12.08-.51-16.86-8.22-.34-.57-1.06-2.01-1.38-2.59-6.22-11.15-7.38-24.75,1.38-27.45,8.11-2.5,14.36,3.7,18.97,14.29.27.59.51,1.2.75,1.8,3.45,9.12,4.53,19.27-2.85,22.16Z" />
      <path class="cls-2"
        d="M62.71,94.4c-4.46,0-8.84-3.42-12.35-9.62-.3-.54-.59-1.07-.87-1.63-4.22-8.31-5.6-16.98-3.53-22.08.91-2.23,2.43-3.72,4.52-4.43.86-.29,1.75-.44,2.66-.44,5.99,0,12.82,6.69,16.61,16.26.23.56.44,1.12.64,1.69,3.37,9.81,1.9,16.9-4.04,19.46-1.19.51-2.42.77-3.64.77Z" />
      <path class="cls-6"
        d="M53.14,56.65c6.25,0,12.76,7.28,16.2,15.98.23.55.44,1.12.63,1.68,2.92,8.5,2.52,16.18-3.8,18.91-1.16.5-2.32.74-3.46.74-4.49,0-8.73-3.67-11.97-9.39-.29-.53-.58-1.06-.86-1.61-5.28-10.4-6.76-23.34.74-25.89.83-.28,1.67-.42,2.52-.42h0ZM53.14,55.77h0c-.96,0-1.9.16-2.8.46-2.22.75-3.83,2.33-4.78,4.68-2.12,5.22-.73,14.03,3.54,22.45.28.56.58,1.11.87,1.63,3.59,6.36,8.12,9.85,12.74,9.85,1.28,0,2.56-.27,3.81-.81,6.18-2.66,7.74-9.95,4.28-20.01-.24-.68-.45-1.22-.65-1.73-3.85-9.73-10.84-16.53-17.01-16.53h0Z" />
      <path class="cls-1"
        d="M51.35,58.03c7.88-1.38,14.96,6.79,19.81,20.56-.29-1.39-.69-2.82-1.19-4.28-.2-.56-.41-1.12-.63-1.68-3.91-9.88-11.77-17.93-18.71-15.56-2.72.92-4.25,3.21-4.85,6.25.99-2.11,2.84-4.13,5.58-5.28Z" />
      <path class="cls-6"
        d="M65.61,90.6c-4.01,1.95-8.29-1.06-11.57-5.86-.34-.48-.66-.98-.97-1.49,0,0,0,0,0-.01-.24-.42-.49-.83-.72-1.26-4.44-8.19-6.02-19.21-.22-21.48,5.19-2.03,11.36,4.33,14.8,11.82.12.26.24.52.35.79.12.27.24.55.34.83.07.17.14.33.2.5,2.54,6.74,2.66,13.8-2.2,16.17Z" />
      <path class="cls-1"
        d="M63.22,75.89l.52,6.24c.03.37-.19.74-.54.88-.35.14-.75.04-.99-.24l-7.27-8.82,3.1,8.07c.17.44-.03.94-.46,1.13l-3.53,1.59c-.34-.48-.66-.98-.97-1.49l3.05-1.37-4.7-12.27c-.15-.4,0-.85.37-1.08.37-.22.83-.14,1.1.19l8.9,10.79-.34-4.11c-.03-.37.18-.73.51-.88l4.97-2.2c.12.26.24.52.35.79.12.27.24.55.34.83l-4.4,1.95Z" />
      <path class="cls-6"
        d="M72.66,78.51c-.2,0-.39-.14-.43-.35-.26-1.21-.51-1.98-.51-1.99-.07-.23.06-.48.29-.55.23-.07.48.06.55.29.01.03.25.81.53,2.06.05.24-.1.47-.34.53-.03,0-.06.01-.09.01Z" />
      <path class="cls-6"
        d="M73.38,84.43c-.24,0-.44-.19-.44-.44-.02-1.19-.12-2.45-.32-3.76-.04-.24.13-.47.37-.5.24-.04.47.13.5.37.2,1.35.32,2.65.33,3.88,0,.24-.19.44-.44.45h0Z" />
      <path class="cls-6"
        d="M63.03,96.33c-1.65,0-3.27-.36-4.86-1.09-.22-.1-.32-.36-.22-.59.1-.22.36-.32.59-.22,2.99,1.37,6.12,1.35,9.3-.07,3-1.34,4.7-4.18,5.04-8.43.02-.24.23-.42.48-.41.24.02.42.23.41.48-.37,4.6-2.24,7.68-5.56,9.16-1.74.78-3.47,1.16-5.17,1.16Z" />
      <path class="cls-6"
        d="M55.36,93.4c-.1,0-.2-.03-.28-.1-2.03-1.64-3.14-3.32-3.19-3.39-.13-.2-.08-.48.13-.61.2-.13.48-.08.61.13.01.02,1.09,1.64,3,3.19.19.15.22.43.07.62-.09.11-.22.16-.34.16Z" />
      <path class="cls-6"
        d="M63.05,91.65c-3.47,0-7.18-2.88-10.37-8.18-.25-.43-.5-.85-.73-1.28-3.56-6.56-4.94-14.14-3.38-18.43.66-1.81,1.8-3.05,3.38-3.67,5.68-2.23,12.34,4.95,15.71,12.84.19.44.38.89.55,1.34,2.39,6.35,3.01,14.08-2.42,16.73h0c-.89.43-1.81.65-2.75.65ZM54.18,60.55c-.64,0-1.28.11-1.9.36-1.34.52-2.3,1.58-2.87,3.15-1.49,4.07-.12,11.35,3.32,17.71.23.43.47.84.71,1.25,3.79,6.31,8.27,9,11.97,7.2h0c4.9-2.39,4.24-9.64,1.99-15.62-.17-.43-.35-.87-.54-1.31-2.83-6.61-7.97-12.73-12.68-12.73ZM65.61,90.6h0,0Z" />
      <path class="cls-6"
        d="M63.12,58.57c-.12,0-.25-.05-.33-.15-.74-.86-1.56-1.61-2.43-2.23-.2-.14-.24-.42-.1-.62.14-.2.42-.24.62-.1.93.66,1.79,1.46,2.58,2.37.16.18.14.46-.05.62-.08.07-.19.11-.29.11Z" />
      <path class="cls-6"
        d="M43.72,66.47c-.21,0-.4-.16-.44-.38-.68-4.47.73-8.42,3.87-10.83,3.13-2.4,7.46-2.85,11.32-1.17.22.1.33.36.23.58-.1.22-.36.33-.58.23-3.56-1.55-7.55-1.14-10.43,1.06-2.87,2.21-4.16,5.85-3.53,9.99.04.24-.13.47-.37.5-.02,0-.04,0-.07,0Z" />
      <path class="cls-5"
        d="M76.81,95.7c-.37-.02-.72-.24-.89-.61l-1.58-3.5c-.23-.52,0-1.13.52-1.37.52-.23,1.13,0,1.37.52l1.58,3.5c.23.52,0,1.13-.52,1.37-.16.07-.32.1-.48.09Z" />
      <path class="cls-5"
        d="M80.37,95.89c-.36-.02-.71-.23-.88-.58l-3.22-6.68c-.25-.51-.03-1.13.48-1.38.51-.25,1.13-.03,1.38.48l3.22,6.68c.25.51.03,1.13-.48,1.38-.16.08-.33.11-.5.1Z" />
      <path class="cls-5"
        d="M84.32,95.97c-.37-.02-.71-.23-.88-.59l-4.6-9.74c-.24-.52-.02-1.13.49-1.38.52-.24,1.13-.02,1.38.49l4.6,9.74c.24.52.02,1.13-.49,1.38-.16.08-.33.11-.49.1Z" />
      <path class="cls-5"
        d="M86.39,92.78c-.37-.02-.72-.24-.89-.61l-2.1-4.66c-.23-.52,0-1.13.52-1.37.52-.24,1.13,0,1.37.52l2.1,4.66c.23.52,0,1.13-.52,1.37-.16.07-.32.1-.48.09Z" />
      <path class="cls-5"
        d="M89.45,91.26c-.38-.02-.73-.25-.9-.62l-2.54-5.88c-.23-.52.02-1.13.54-1.36.52-.23,1.13.01,1.36.54l2.54,5.88c.23.52-.02,1.13-.54,1.36-.15.07-.31.09-.46.08Z" />
      <path class="cls-5"
        d="M93.98,91.3c-.37-.02-.72-.24-.89-.6l-4.69-10.23c-.24-.52,0-1.13.51-1.37.52-.24,1.13,0,1.37.51l4.69,10.23c.24.52,0,1.13-.51,1.37-.16.07-.32.1-.48.09Z" />
      <path class="cls-5"
        d="M96.62,87.58c-.36-.02-.71-.23-.88-.58l-2.64-5.42c-.25-.51-.04-1.13.48-1.38.51-.25,1.13-.04,1.38.48l2.64,5.42c.25.51.04,1.13-.48,1.38-.16.08-.34.11-.51.1Z" />
      <path class="cls-5"
        d="M99.03,84.3c-.37-.02-.71-.23-.88-.59l-1.04-2.19c-.25-.52-.03-1.13.49-1.38.52-.25,1.13-.03,1.38.49l1.04,2.19c.25.52.03,1.13-.49,1.38-.16.08-.33.11-.5.1Z" />
      <path class="cls-6"
        d="M77.21,94.91c-.37-.02-.72-.24-.89-.61l-1.58-3.5c-.23-.52,0-1.13.52-1.37.52-.23,1.13,0,1.37.52l1.58,3.5c.23.52,0,1.13-.52,1.37-.16.07-.32.1-.48.09Z" />
      <path class="cls-6"
        d="M80.77,95.1c-.36-.02-.71-.23-.88-.58l-3.22-6.68c-.25-.51-.03-1.13.48-1.38.51-.25,1.13-.03,1.38.48l3.22,6.68c.25.51.03,1.13-.48,1.38-.16.08-.33.11-.5.1Z" />
      <path class="cls-6"
        d="M84.72,95.19c-.37-.02-.71-.23-.88-.59l-4.6-9.74c-.24-.52-.02-1.13.49-1.38.52-.24,1.13-.02,1.38.49l4.6,9.74c.24.52.02,1.13-.49,1.38-.16.08-.33.11-.49.1Z" />
      <path class="cls-6"
        d="M86.78,91.99c-.37-.02-.73-.24-.89-.61l-2.1-4.66c-.23-.52,0-1.13.52-1.37.52-.24,1.13,0,1.37.52l2.1,4.66c.23.52,0,1.13-.52,1.37-.16.07-.32.1-.48.09Z" />
      <path class="cls-6"
        d="M89.84,90.48c-.38-.02-.73-.25-.9-.62l-2.54-5.88c-.23-.52.02-1.13.54-1.36.52-.23,1.13.01,1.36.54l2.54,5.88c.23.52-.02,1.13-.54,1.36-.15.07-.31.09-.46.08Z" />
      <path class="cls-6"
        d="M94.37,90.51c-.37-.02-.72-.24-.89-.6l-4.69-10.23c-.24-.52,0-1.13.51-1.37.52-.24,1.13,0,1.37.51l4.69,10.23c.24.52,0,1.13-.51,1.37-.16.07-.32.1-.48.09Z" />
      <path class="cls-6"
        d="M97.02,86.8c-.36-.02-.71-.23-.88-.58l-2.64-5.42c-.25-.51-.04-1.13.48-1.38.51-.25,1.13-.04,1.38.48l2.64,5.42c.25.51.04,1.13-.48,1.38-.16.08-.34.11-.51.1Z" />
      <path class="cls-6"
        d="M99.42,83.51c-.37-.02-.71-.23-.88-.59l-1.04-2.19c-.25-.52-.03-1.13.49-1.38.52-.25,1.13-.03,1.38.49l1.04,2.19c.25.52.03,1.13-.49,1.38-.16.08-.33.11-.5.1Z" />
      <path class="cls-3"
        d="M167.69,4.21c-.14,0-.28,0-.42.01l-41.36,2.26c-4.01.24-7.16,3.58-7.16,7.59,0,.06,0,.11,0,.18l2.74,32.9-2.47,5.54c-.5,1.13-.4,2.42.27,3.45.68,1.04,1.81,1.67,3.04,1.67.43,0,.86-.08,1.28-.23l9.54-3.55,35.15-1.13c3.51-.11,6.27-2.95,6.27-6.47V11.1c0-3.8-3.09-6.89-6.88-6.89Z" />
      <path class="cls-7"
        d="M122.34,56.55c-.8,0-1.54-.41-1.98-1.09-.43-.67-.5-1.51-.17-2.24l2.61-5.84-2.77-33.23c0-3.42,2.61-6.2,5.95-6.4l41.37-2.26c.11,0,.22,0,.34,0,3.1,0,5.61,2.52,5.61,5.62v35.35c0,2.83-2.21,5.11-5.04,5.2l-35.36,1.13-9.73,3.62c-.27.1-.55.15-.83.15h0Z" />
      <path class="cls-6"
        d="M167.69,6.36c2.59,0,4.73,2.11,4.73,4.73v35.35c0,2.33-1.85,4.24-4.18,4.32l-35.5,1.14-9.87,3.67c-.18.07-.35.1-.52.1-1.01,0-1.8-1.06-1.34-2.08l2.7-6.05-2.79-33.45c0-2.88,2.25-5.27,5.13-5.44l41.36-2.26c.1,0,.19,0,.29,0h0ZM167.69,4.6c-.13,0-.26,0-.4.01l-41.35,2.26c-3.82.23-6.8,3.4-6.8,7.21,0,.05,0,.1,0,.15l2.75,33-2.51,5.63c-.45,1.01-.36,2.16.24,3.08.6.93,1.62,1.49,2.72,1.49.39,0,.77-.07,1.14-.21l9.6-3.57,35.21-1.13c3.3-.11,5.89-2.78,5.89-6.08V11.1c0-3.59-2.91-6.5-6.5-6.5h0Z" />
      <path class="cls-8"
        d="M133.14,42.4c-.24,0-.44-.2-.44-.44v-14.15h-.76v14.15c0,.24-.2.44-.44.44h-3.46c-.24,0-.44-.2-.44-.44v-24.09c0-.24.2-.44.44-.44h3.46c.24,0,.44.2.44.44v5.77h.76v-5.77c0-.24.2-.44.44-.44h3.46c.24,0,.44.2.44.44v24.09c0,.24-.2.44-.44.44h-3.46Z" />
      <path class="cls-6"
        d="M136.6,17.86v24.09h-3.46v-14.59h-1.64v14.59h-3.46v-24.09h3.46v6.21h1.64v-6.21h3.46ZM136.6,16.98h-3.46c-.37,0-.69.23-.82.55-.13-.32-.45-.55-.82-.55h-3.46c-.49,0-.88.4-.88.88v24.09c0,.49.4.88.88.88h3.46c.37,0,.69-.23.82-.55.13.32.45.55.82.55h3.46c.49,0,.88-.4.88-.88v-24.09c0-.49-.4-.88-.88-.88h0Z" />
      <path class="cls-8"
        d="M138.14,42.4c-.24,0-.44-.2-.44-.44v-24.09c0-.24.2-.44.44-.44h6.95c.24,0,.44.2.44.44v3.36c0,.24-.2.44-.44.44h-2.97v2.5h2.84c.24,0,.44.2.44.44v3.27c0,.24-.2.44-.44.44h-2.84v9.81h3.2c.24,0,.44.2.44.44v3.39c0,.24-.2.44-.44.44h-7.18Z" />
      <path class="cls-6"
        d="M145.09,17.86v3.36h-3.42v3.39h3.28v3.27h-3.28v10.69h3.64v3.39h-7.18v-24.09h6.95ZM145.09,16.98h-6.95c-.49,0-.88.4-.88.88v24.09c0,.49.4.88.88.88h7.18c.49,0,.88-.4.88-.88v-3.39c0-.49-.4-.88-.88-.88h-2.76v-8.92h2.39c.49,0,.88-.4.88-.88v-3.27c0-.49-.4-.88-.88-.88h-2.39v-1.62h2.53c.49,0,.88-.4.88-.88v-3.36c0-.49-.4-.88-.88-.88h0Z" />
      <path class="cls-8"
        d="M146.46,42.4c-.24,0-.44-.2-.44-.44v-24.09c0-.24.2-.44.44-.44h3.48c.24,0,.44.2.44.44v20.69h3.13c.24,0,.44.2.44.44v2.96c0,.24-.2.44-.44.44h-7.05Z" />
      <path class="cls-6"
        d="M149.94,17.86v21.13h3.57v2.96h-7.05v-24.09h3.48ZM149.94,16.98h-3.48c-.49,0-.88.4-.88.88v24.09c0,.49.4.88.88.88h7.05c.49,0,.88-.4.88-.88v-2.96c0-.49-.4-.88-.88-.88h-2.69v-20.24c0-.49-.4-.88-.88-.88h0Z" />
      <path class="cls-8"
        d="M154.5,42.4c-.24,0-.44-.2-.44-.44v-24.09c0-.24.2-.44.44-.44h4.59c1.05,0,1.91.25,2.55.73.63.48,1.09,1.17,1.36,2.05.26.83.39,1.82.39,2.95s-.11,2.05-.32,2.86c-.23.87-.64,1.56-1.24,2.04-.6.49-1.45.74-2.51.74h-.97v13.15c0,.24-.2.44-.44.44h-3.42ZM158.36,24.79c.24-.02.47-.09.53-.25.08-.21.19-.63.19-1.44,0-.6-.06-1.06-.18-1.36-.03-.07-.1-.24-.53-.26v3.31Z" />
      <path class="cls-6"
        d="M159.09,17.86c.96,0,1.72.21,2.29.64.56.43.97,1.04,1.21,1.83.24.79.37,1.73.37,2.82s-.1,1.97-.31,2.75c-.2.78-.57,1.38-1.09,1.81-.52.43-1.27.64-2.23.64h-1.41v13.59h-3.42v-24.09h4.59ZM157.92,25.24h.2c.64,0,1.04-.18,1.18-.54.14-.36.22-.89.22-1.6,0-.66-.07-1.17-.21-1.53-.14-.36-.48-.54-1-.54h-.38v4.21h0ZM159.09,16.98h-4.59c-.49,0-.88.4-.88.88v24.09c0,.49.4.88.88.88h3.42c.49,0,.88-.4.88-.88v-12.71h.53c1.17,0,2.1-.28,2.79-.84.67-.55,1.13-1.31,1.39-2.27.22-.85.33-1.85.33-2.97s-.14-2.21-.4-3.08c-.3-.97-.81-1.73-1.52-2.27-.72-.55-1.67-.82-2.82-.82h0Z" />
      <path class="cls-8"
        d="M163.82,42.39c-.24,0-.44-.2-.44-.44v-2.94c0-.24.2-.44.44-.44h3.53c.24,0,.44.2.44.44v2.94c0,.24-.2.44-.44.44h-3.53ZM164.51,37.67c-.24,0-.43-.19-.44-.43l-.69-19.36c0-.12.04-.24.12-.32.08-.09.2-.14.32-.14h3.53c.12,0,.23.05.32.14.08.09.13.2.12.32l-.69,19.36c0,.24-.2.43-.44.43h-2.15Z" />
      <path class="cls-6"
        d="M167.36,17.86l-.69,19.36h-2.15l-.69-19.36h3.53ZM167.36,39v2.94h-3.53v-2.94h3.53ZM167.36,16.98h-3.53c-.24,0-.47.1-.64.27-.17.17-.26.41-.25.65l.69,19.36c.02.48.41.85.88.85h2.15c.48,0,.87-.38.88-.85l.69-19.36c0-.24-.08-.47-.25-.65-.17-.17-.4-.27-.64-.27h0ZM167.36,18.75h0,0ZM167.36,38.12h-3.53c-.49,0-.88.4-.88.88v2.94c0,.49.4.88.88.88h3.53c.49,0,.88-.4.88-.88v-2.94c0-.49-.4-.88-.88-.88h0Z" />
      <circle class="cls-2" cx="151.27" cy="136.37" r="16.27" transform="translate(-52.12 146.91) rotate(-45)" />
      <path class="cls-1"
        d="M158.98,122.03c-2.29-1.24-4.92-1.94-7.7-1.94-8.99,0-16.27,7.29-16.27,16.27,0,.72.05,1.44.14,2.13,5.04-8.54,14.01-14.99,23.83-16.47Z" />
      <path class="cls-7"
        d="M143.23,144.74l.6-7.98-1.53-3.5-2.15,2.15-1.44-5.03s-1.99-.54-2.76-.41c-.83,1.96-.95,4.13-.95,6.39,0,4.3,1.67,8.2,4.39,11.11.97-.33,1.08-2.21,1.94-2.48,1.28-.39,1.9-.27,1.9-.27Z" />
      <path class="cls-7"
        d="M162.59,123.74c-3.05.48-10.24-.53-10.24-.53l2.83,7.7s-8.24,1.93-8.24,2.69c0,.51,3.7,2.31,3.7,2.31l-.36,4.13,3.51,1.85v4.31s3.05-1.12,4.29-1.11c.41,0,1.28-5.97,1.7-5.99.67-.04,2.21,1.3,1.02,5.38,1.2-.16,5.4-1.37,5.95-3.06.52-1.59.8-3.28.8-5.04,0-4.9-1.53-9.65-4.96-12.63Z" />
      <path class="cls-7" d="M146.58,124.39c-.24.12-4.12,1.79-4.12,1.79l.84,2.99h5.97l-2.69-4.78Z" />
      <path class="cls-6"
        d="M151.27,120.09c8.99,0,16.27,7.29,16.27,16.27s-7.29,16.27-16.27,16.27-16.27-7.29-16.27-16.27,7.29-16.27,16.27-16.27h0ZM151.27,118.33c-9.95,0-18.04,8.09-18.04,18.04s8.09,18.04,18.04,18.04,18.04-8.09,18.04-18.04-8.09-18.04-18.04-18.04h0Z" />
      <path class="cls-1"
        d="M26.58,56.16h-1.03v-3.56c0-.95-.76-1.73-1.69-1.73s-1.69.78-1.69,1.73v3.56h-1.03c-.93,0-1.69.78-1.69,1.73s.76,1.73,1.69,1.73h1.03v3.56c0,.95.76,1.73,1.69,1.73s1.69-.78,1.69-1.73v-3.56h1.03c.93,0,1.69-.78,1.69-1.73s-.76-1.73-1.69-1.73Z" />
      <path class="cls-6"
        d="M23.86,65.35c-1.18,0-2.14-.97-2.14-2.17v-3.12h-.58c-1.18,0-2.13-.97-2.13-2.17s.96-2.17,2.13-2.17h.58v-3.12c0-1.2.96-2.17,2.14-2.17s2.14.97,2.14,2.17v3.12h.58c1.18,0,2.14.97,2.14,2.17s-.96,2.17-2.14,2.17h-.58v3.12c0,1.2-.96,2.17-2.14,2.17ZM21.14,56.61c-.69,0-1.25.58-1.25,1.29s.56,1.29,1.25,1.29h1.47v4c0,.71.56,1.29,1.25,1.29s1.25-.58,1.25-1.29v-4h1.47c.69,0,1.25-.58,1.25-1.29s-.56-1.29-1.25-1.29h-1.47v-4c0-.71-.56-1.29-1.25-1.29s-1.25.58-1.25,1.29v4h-1.47Z" />
      <path class="cls-8"
        d="M150.57,81.33h-1.03v-3.56c0-.95-.76-1.73-1.69-1.73s-1.69.78-1.69,1.73v3.56h-1.03c-.93,0-1.69.78-1.69,1.73s.76,1.73,1.69,1.73h1.03v3.56c0,.95.76,1.73,1.69,1.73s1.69-.78,1.69-1.73v-3.56h1.03c.93,0,1.69-.78,1.69-1.73s-.76-1.73-1.69-1.73Z" />
      <path class="cls-6"
        d="M147.85,90.51c-1.18,0-2.14-.97-2.14-2.17v-3.12h-.58c-1.18,0-2.14-.97-2.14-2.17s.96-2.17,2.14-2.17h.58v-3.12c0-1.2.96-2.17,2.14-2.17s2.14.97,2.14,2.17v3.12h.58c1.18,0,2.14.97,2.14,2.17s-.96,2.17-2.14,2.17h-.58v3.12c0,1.2-.96,2.17-2.14,2.17ZM145.14,81.77c-.69,0-1.25.58-1.25,1.29s.56,1.29,1.25,1.29h1.47v4c0,.71.56,1.29,1.25,1.29s1.25-.58,1.25-1.29v-4h1.47c.69,0,1.25-.58,1.25-1.29s-.56-1.29-1.25-1.29h-1.47v-4c0-.71-.56-1.29-1.25-1.29s-1.25.58-1.25,1.29v4h-1.47Z" />
      <path class="cls-1"
        d="M135.04,169.26h-1.03v-3.56c0-.95-.76-1.73-1.69-1.73s-1.69.78-1.69,1.73v3.56h-1.03c-.93,0-1.69.78-1.69,1.73s.76,1.73,1.69,1.73h1.03v3.56c0,.95.76,1.73,1.69,1.73s1.69-.78,1.69-1.73v-3.56h1.03c.93,0,1.69-.78,1.69-1.73s-.76-1.73-1.69-1.73Z" />
      <path class="cls-6"
        d="M132.33,178.45c-1.18,0-2.14-.97-2.14-2.17v-3.12h-.58c-1.18,0-2.13-.97-2.13-2.17s.96-2.17,2.13-2.17h.58v-3.12c0-1.2.96-2.17,2.14-2.17s2.14.97,2.14,2.17v3.12h.58c1.18,0,2.13.97,2.13,2.17s-.96,2.17-2.13,2.17h-.58v3.12c0,1.2-.96,2.17-2.14,2.17ZM129.61,169.7c-.69,0-1.25.58-1.25,1.29s.56,1.29,1.25,1.29h1.47v4c0,.71.56,1.29,1.25,1.29s1.25-.58,1.25-1.29v-4h1.47c.69,0,1.25-.58,1.25-1.29s-.56-1.29-1.25-1.29h-1.47v-4c0-.71-.56-1.29-1.25-1.29s-1.25.58-1.25,1.29v4h-1.47Z" />
      <path class="cls-1"
        d="M168.31,108.25h-1.03v-3.56c0-.95-.76-1.73-1.69-1.73s-1.69.78-1.69,1.73v3.56h-1.03c-.93,0-1.69.78-1.69,1.73s.76,1.73,1.69,1.73h1.03v3.56c0,.95.76,1.73,1.69,1.73s1.69-.78,1.69-1.73v-3.56h1.03c.93,0,1.69-.78,1.69-1.73s-.76-1.73-1.69-1.73Z" />
      <path class="cls-6"
        d="M165.59,117.44c-1.18,0-2.14-.97-2.14-2.17v-3.12h-.58c-1.18,0-2.14-.97-2.14-2.17s.96-2.17,2.14-2.17h.58v-3.12c0-1.2.96-2.17,2.14-2.17s2.13.97,2.13,2.17v3.12h.58c1.18,0,2.14.97,2.14,2.17s-.96,2.17-2.14,2.17h-.58v3.12c0,1.2-.96,2.17-2.13,2.17ZM162.87,108.7c-.69,0-1.25.58-1.25,1.29s.56,1.29,1.25,1.29h1.47v4c0,.71.56,1.29,1.25,1.29s1.25-.58,1.25-1.29v-4h1.47c.69,0,1.25-.58,1.25-1.29s-.56-1.29-1.25-1.29h-1.47v-4c0-.71-.56-1.29-1.25-1.29s-1.25.58-1.25,1.29v4h-1.47Z" />
      <path class="cls-1"
        d="M32.4,160.6h-1.03v-3.56c0-.95-.76-1.73-1.69-1.73s-1.69.78-1.69,1.73v3.56h-1.03c-.93,0-1.69.78-1.69,1.73s.76,1.73,1.69,1.73h1.03v3.56c0,.95.76,1.73,1.69,1.73s1.69-.78,1.69-1.73v-3.56h1.03c.93,0,1.69-.78,1.69-1.73s-.76-1.73-1.69-1.73Z" />
      <path class="cls-6"
        d="M29.69,169.79c-1.18,0-2.14-.97-2.14-2.17v-3.12h-.58c-1.18,0-2.13-.97-2.13-2.17s.96-2.17,2.13-2.17h.58v-3.12c0-1.2.96-2.17,2.14-2.17s2.14.97,2.14,2.17v3.12h.58c1.18,0,2.13.97,2.13,2.17s-.96,2.17-2.13,2.17h-.58v3.12c0,1.2-.96,2.17-2.14,2.17ZM26.97,161.04c-.69,0-1.25.58-1.25,1.29s.56,1.29,1.25,1.29h1.47v4c0,.71.56,1.29,1.25,1.29s1.25-.58,1.25-1.29v-4h1.47c.69,0,1.25-.58,1.25-1.29s-.56-1.29-1.25-1.29h-1.47v-4c0-.71-.56-1.29-1.25-1.29s-1.25.58-1.25,1.29v4h-1.47Z" />
      <path class="cls-7"
        d="M185.32,82.57h-1.03v-3.56c0-.95-.76-1.73-1.69-1.73s-1.69.78-1.69,1.73v3.56h-1.03c-.93,0-1.69.78-1.69,1.73s.76,1.73,1.69,1.73h1.03v3.56c0,.95.76,1.73,1.69,1.73s1.69-.78,1.69-1.73v-3.56h1.03c.93,0,1.69-.78,1.69-1.73s-.76-1.73-1.69-1.73Z" />
      <path class="cls-6"
        d="M182.6,91.75c-1.18,0-2.14-.97-2.14-2.17v-3.12h-.58c-1.18,0-2.14-.97-2.14-2.17s.96-2.17,2.14-2.17h.58v-3.12c0-1.2.96-2.17,2.14-2.17s2.13.97,2.13,2.17v3.12h.58c1.18,0,2.14.97,2.14,2.17s-.96,2.17-2.14,2.17h-.58v3.12c0,1.2-.96,2.17-2.13,2.17ZM179.88,83.01c-.69,0-1.25.58-1.25,1.29s.56,1.29,1.25,1.29h1.47v4c0,.71.56,1.29,1.25,1.29s1.25-.58,1.25-1.29v-4h1.47c.69,0,1.25-.58,1.25-1.29s-.56-1.29-1.25-1.29h-1.47v-4c0-.71-.56-1.29-1.25-1.29s-1.25.58-1.25,1.29v4h-1.47Z" />
      <path class="cls-7"
        d="M39.24,139.55h-.55v-2.41c0-.82-.65-1.49-1.46-1.49s-1.46.67-1.46,1.49v2.41h-.55c-.8,0-1.46.67-1.46,1.49s.65,1.49,1.46,1.49h.55v2.41c0,.82.65,1.49,1.46,1.49s1.46-.67,1.46-1.49v-2.41h.55c.8,0,1.46-.67,1.46-1.49s-.65-1.49-1.46-1.49Z" />
      <path class="cls-6"
        d="M37.23,146.87c-1.05,0-1.9-.87-1.9-1.93v-1.97h-.11c-1.05,0-1.9-.87-1.9-1.93s.85-1.93,1.9-1.93h.11v-1.97c0-1.06.85-1.93,1.9-1.93s1.9.87,1.9,1.93v1.97h.11c1.05,0,1.9.87,1.9,1.93s-.85,1.93-1.9,1.93h-.11v1.97c0,1.06-.85,1.93-1.9,1.93ZM35.23,140c-.56,0-1.01.47-1.01,1.05s.46,1.05,1.01,1.05h.99v2.85c0,.58.46,1.05,1.02,1.05s1.02-.47,1.02-1.05v-2.85h.99c.56,0,1.02-.47,1.02-1.05s-.46-1.05-1.02-1.05h-.99v-2.85c0-.58-.46-1.05-1.02-1.05s-1.02.47-1.02,1.05v2.85h-.99Z" />
      <path class="cls-1"
        d="M160.73,59.33h-.55v-2.41c0-.82-.65-1.49-1.46-1.49s-1.46.67-1.46,1.49v2.41h-.55c-.8,0-1.46.67-1.46,1.49s.65,1.49,1.46,1.49h.55v2.41c0,.82.65,1.49,1.46,1.49s1.46-.67,1.46-1.49v-2.41h.55c.8,0,1.46-.67,1.46-1.49s-.65-1.49-1.46-1.49Z" />
      <path class="cls-6"
        d="M158.73,66.65c-1.05,0-1.9-.87-1.9-1.93v-1.97h-.11c-1.05,0-1.9-.87-1.9-1.93s.85-1.93,1.9-1.93h.11v-1.97c0-1.06.85-1.93,1.9-1.93s1.9.87,1.9,1.93v1.97h.11c1.05,0,1.9.87,1.9,1.93s-.85,1.93-1.9,1.93h-.11v1.97c0,1.06-.85,1.93-1.9,1.93ZM156.72,59.77c-.56,0-1.02.47-1.02,1.04s.46,1.05,1.02,1.05h.99v2.85c0,.58.46,1.04,1.02,1.04s1.01-.47,1.01-1.04v-2.85h.99c.56,0,1.02-.47,1.02-1.05s-.46-1.04-1.02-1.04h-.99v-2.85c0-.58-.46-1.04-1.01-1.04s-1.02.47-1.02,1.04v2.85h-.99Z" />
      <path class="cls-7"
        d="M127.91,103.08h-.55v-2.41c0-.82-.65-1.49-1.46-1.49s-1.46.67-1.46,1.49v2.41h-.55c-.8,0-1.46.67-1.46,1.49s.65,1.49,1.46,1.49h.55v2.41c0,.82.65,1.49,1.46,1.49s1.46-.67,1.46-1.49v-2.41h.55c.8,0,1.46-.67,1.46-1.49s-.65-1.49-1.46-1.49Z" />
      <path class="cls-6"
        d="M125.9,110.4c-1.05,0-1.9-.87-1.9-1.93v-1.97h-.11c-1.05,0-1.9-.87-1.9-1.93s.85-1.93,1.9-1.93h.11v-1.97c0-1.06.85-1.93,1.9-1.93s1.9.87,1.9,1.93v1.97h.11c1.05,0,1.9.87,1.9,1.93s-.85,1.93-1.9,1.93h-.11v1.97c0,1.06-.85,1.93-1.9,1.93ZM123.9,103.52c-.56,0-1.02.47-1.02,1.04s.46,1.05,1.02,1.05h.99v2.85c0,.58.46,1.04,1.02,1.04s1.02-.47,1.02-1.04v-2.85h.99c.56,0,1.02-.47,1.02-1.05s-.46-1.04-1.02-1.04h-.99v-2.85c0-.58-.46-1.04-1.02-1.04s-1.02.47-1.02,1.04v2.85h-.99Z" />
      <path class="cls-7"
        d="M172,156.48h-.55v-2.41c0-.82-.65-1.49-1.46-1.49s-1.46.67-1.46,1.49v2.41h-.55c-.8,0-1.46.67-1.46,1.49s.65,1.49,1.46,1.49h.55v2.41c0,.82.65,1.49,1.46,1.49s1.46-.67,1.46-1.49v-2.41h.55c.8,0,1.46-.67,1.46-1.49s-.65-1.49-1.46-1.49Z" />
      <path class="cls-6"
        d="M170,163.8c-1.05,0-1.9-.87-1.9-1.93v-1.97h-.11c-1.05,0-1.9-.87-1.9-1.93s.85-1.93,1.9-1.93h.11v-1.97c0-1.06.85-1.93,1.9-1.93s1.9.87,1.9,1.93v1.97h.11c1.05,0,1.9.87,1.9,1.93s-.85,1.93-1.9,1.93h-.11v1.97c0,1.06-.85,1.93-1.9,1.93ZM168,156.93c-.56,0-1.02.47-1.02,1.04s.46,1.05,1.02,1.05h.99v2.85c0,.58.46,1.04,1.02,1.04s1.02-.47,1.02-1.04v-2.85h.99c.56,0,1.02-.47,1.02-1.05s-.46-1.04-1.02-1.04h-.99v-2.85c0-.58-.46-1.04-1.02-1.04s-1.02.47-1.02,1.04v2.85h-.99Z" />
      <path class="cls-7"
        d="M41.99,97.7h-.55v-2.41c0-.82-.65-1.49-1.46-1.49s-1.46.67-1.46,1.49v2.41h-.55c-.8,0-1.46.67-1.46,1.49s.65,1.49,1.46,1.49h.55v2.41c0,.82.65,1.49,1.46,1.49s1.46-.67,1.46-1.49v-2.41h.55c.8,0,1.46-.67,1.46-1.49s-.65-1.49-1.46-1.49Z" />
      <path class="cls-6"
        d="M39.99,105.01c-1.05,0-1.9-.87-1.9-1.93v-1.97h-.11c-1.05,0-1.9-.87-1.9-1.93s.85-1.93,1.9-1.93h.11v-1.97c0-1.06.85-1.93,1.9-1.93s1.9.87,1.9,1.93v1.97h.11c1.05,0,1.9.87,1.9,1.93s-.85,1.93-1.9,1.93h-.11v1.97c0,1.06-.85,1.93-1.9,1.93ZM37.98,98.14c-.56,0-1.02.47-1.02,1.04s.46,1.05,1.02,1.05h.99v2.85c0,.58.46,1.04,1.02,1.04s1.01-.47,1.01-1.04v-2.85h.99c.56,0,1.01-.47,1.01-1.05s-.46-1.04-1.01-1.04h-.99v-2.85c0-.58-.46-1.05-1.01-1.05s-1.02.47-1.02,1.05v2.85h-.99Z" />
      <path class="cls-1"
        d="M87.41,121.72h-.55v-2.41c0-.82-.65-1.49-1.46-1.49s-1.46.67-1.46,1.49v2.41h-.55c-.8,0-1.46.67-1.46,1.49s.65,1.49,1.46,1.49h.55v2.41c0,.82.65,1.49,1.46,1.49s1.46-.67,1.46-1.49v-2.41h.55c.8,0,1.46-.67,1.46-1.49s-.65-1.49-1.46-1.49Z" />
      <path class="cls-6"
        d="M85.41,129.03c-1.05,0-1.9-.87-1.9-1.93v-1.97h-.11c-1.05,0-1.9-.87-1.9-1.93s.85-1.93,1.9-1.93h.11v-1.97c0-1.06.85-1.93,1.9-1.93s1.9.87,1.9,1.93v1.97h.11c1.05,0,1.9.87,1.9,1.93s-.85,1.93-1.9,1.93h-.11v1.97c0,1.06-.85,1.93-1.9,1.93ZM83.4,122.16c-.56,0-1.01.47-1.01,1.04s.46,1.05,1.01,1.05h.99v2.85c0,.58.46,1.04,1.01,1.04s1.02-.47,1.02-1.04v-2.85h.99c.56,0,1.02-.47,1.02-1.05s-.46-1.04-1.02-1.04h-.99v-2.85c0-.58-.46-1.04-1.02-1.04s-1.01.47-1.01,1.04v2.85h-.99Z" />
      <path class="cls-8"
        d="M38.53,28.47h-.55v-2.41c0-.82-.65-1.49-1.46-1.49s-1.46.67-1.46,1.49v2.41h-.55c-.8,0-1.46.67-1.46,1.49s.65,1.49,1.46,1.49h.55v2.41c0,.82.65,1.49,1.46,1.49s1.46-.67,1.46-1.49v-2.41h.55c.8,0,1.46-.67,1.46-1.49s-.65-1.49-1.46-1.49Z" />
      <path class="cls-6"
        d="M36.52,35.78c-1.05,0-1.9-.87-1.9-1.93v-1.97h-.11c-1.05,0-1.9-.87-1.9-1.93s.85-1.93,1.9-1.93h.11v-1.97c0-1.06.85-1.93,1.9-1.93s1.9.87,1.9,1.93v1.97h.11c1.05,0,1.9.87,1.9,1.93s-.85,1.93-1.9,1.93h-.11v1.97c0,1.06-.85,1.93-1.9,1.93ZM34.52,28.91c-.56,0-1.02.47-1.02,1.04s.46,1.05,1.02,1.05h.99v2.85c0,.58.46,1.04,1.01,1.04s1.02-.47,1.02-1.04v-2.85h.99c.56,0,1.02-.47,1.02-1.05s-.46-1.04-1.02-1.04h-.99v-2.85c0-.58-.46-1.04-1.02-1.04s-1.01.47-1.01,1.04v2.85h-.99Z" />
      <path class="cls-7"
        d="M96.43,150.92h-1.02v-3.56c0-.95-.76-1.73-1.69-1.73s-1.69.78-1.69,1.73v3.56h-1.02c-.93,0-1.69.78-1.69,1.73s.76,1.73,1.69,1.73h1.02v3.56c0,.95.76,1.73,1.69,1.73s1.69-.78,1.69-1.73v-3.56h1.02c.93,0,1.69-.78,1.69-1.73s-.76-1.73-1.69-1.73Z" />
      <path class="cls-6"
        d="M93.71,160.1c-1.18,0-2.14-.97-2.14-2.17v-3.12h-.58c-1.18,0-2.14-.97-2.14-2.17s.96-2.17,2.14-2.17h.58v-3.12c0-1.2.96-2.17,2.14-2.17s2.13.97,2.13,2.17v3.12h.58c1.18,0,2.14.97,2.14,2.17s-.96,2.17-2.14,2.17h-.58v3.12c0,1.2-.96,2.17-2.13,2.17ZM90.99,151.36c-.69,0-1.25.58-1.25,1.29s.56,1.29,1.25,1.29h1.47v4c0,.71.56,1.29,1.25,1.29s1.25-.58,1.25-1.29v-4h1.47c.69,0,1.25-.58,1.25-1.29s-.56-1.29-1.25-1.29h-1.47v-4c0-.71-.56-1.29-1.25-1.29s-1.25.58-1.25,1.29v4h-1.47Z" />
      <path class="cls-7"
        d="M108.42,17.64h-1.03v-3.56c0-.95-.76-1.73-1.69-1.73s-1.69.78-1.69,1.73v3.56h-1.03c-.93,0-1.69.78-1.69,1.73s.76,1.73,1.69,1.73h1.03v3.56c0,.95.76,1.73,1.69,1.73s1.69-.78,1.69-1.73v-3.56h1.03c.93,0,1.69-.78,1.69-1.73s-.76-1.73-1.69-1.73Z" />
      <path class="cls-6"
        d="M105.7,26.83c-1.18,0-2.14-.97-2.14-2.17v-3.12h-.58c-1.18,0-2.14-.97-2.14-2.17s.96-2.17,2.14-2.17h.58v-3.12c0-1.2.96-2.17,2.14-2.17s2.13.97,2.13,2.17v3.12h.58c1.18,0,2.14.97,2.14,2.17s-.96,2.17-2.14,2.17h-.58v3.12c0,1.2-.96,2.17-2.13,2.17ZM102.98,18.09c-.69,0-1.25.58-1.25,1.29s.56,1.29,1.25,1.29h1.47v4c0,.71.56,1.29,1.25,1.29s1.25-.58,1.25-1.29v-4h1.47c.69,0,1.25-.58,1.25-1.29s-.56-1.29-1.25-1.29h-1.47v-4c0-.71-.56-1.29-1.25-1.29s-1.25.58-1.25,1.29v4h-1.47Z" />
      <path class="cls-8"
        d="M12.42,140.68h-1.03v-3.56c0-.95-.76-1.73-1.69-1.73s-1.69.78-1.69,1.73v3.56h-1.03c-.93,0-1.69.78-1.69,1.73s.76,1.73,1.69,1.73h1.03v3.56c0,.95.76,1.73,1.69,1.73s1.69-.78,1.69-1.73v-3.56h1.03c.93,0,1.69-.78,1.69-1.73s-.76-1.73-1.69-1.73Z" />
      <path class="cls-6"
        d="M9.7,149.87c-1.18,0-2.14-.97-2.14-2.17v-3.12h-.58c-1.18,0-2.13-.97-2.13-2.17s.96-2.17,2.13-2.17h.58v-3.12c0-1.2.96-2.17,2.14-2.17s2.13.97,2.13,2.17v3.12h.58c1.18,0,2.14.97,2.14,2.17s-.96,2.17-2.14,2.17h-.58v3.12c0,1.2-.96,2.17-2.13,2.17ZM6.98,141.12c-.69,0-1.25.58-1.25,1.29s.56,1.29,1.25,1.29h1.47v4c0,.71.56,1.29,1.25,1.29s1.25-.58,1.25-1.29v-4h1.47c.69,0,1.25-.58,1.25-1.29s-.56-1.29-1.25-1.29h-1.47v-4c0-.71-.56-1.29-1.25-1.29s-1.25.58-1.25,1.29v4h-1.47Z" />
    </g>
  </g>
</svg>