<?xml version="1.0" encoding="UTF-8"?>
<svg id="Capa_2" xmlns="http://www.w3.org/2000/svg" viewBox="0 0 162.62 196.31">
  <defs>
    <style>
      .cls-1 {
        fill: aqua;
      }

      .cls-2 {
        fill: #29abe2;
      }

      .cls-3 {
        fill: #fff;
      }

      .cls-4 {
        fill: #862291;
      }

      .cls-5 {
        fill: #1b1464;
      }

      .cls-6 {
        fill: #fcee21;
      }

      .cls-7 {
        fill: #ed1e79;
      }
    </style>
  </defs>
  <g id="_0">
    <path class="cls-3"
      d="M159.48,112.9c-1.62-4.17-3.9-8.01-6.79-11.45v-20.98c1.42-.91,2.61-2.16,3.51-3.68,1.34-2.28,2.02-5.2,2.02-8.66,0-5.48-1.71-11.39-2.44-13.68-1.04-3.24-2.02-5.53-3.09-7.15V6.73c0-3.71-3.02-6.73-6.73-6.73h-13.45c-1.16,0-2.25.29-3.21.81-.96-.52-2.05-.81-3.2-.81h-14.32c-.99,0-1.92.21-2.77.6-.84-.38-1.78-.6-2.77-.6h-13.45c-2.04,0-3.88.92-5.11,2.36-1.24-1.45-3.08-2.36-5.13-2.36h-23.62c-3.48,0-6.36,2.61-6.7,6.07l-.12,1.25c-1.01-1.27-2.16-2.4-3.45-3.38-3.44-2.62-7.89-3.94-13.23-3.94h-18.39c-3.71,0-6.73,3.02-6.73,6.73v94.3c-3.07,3.54-5.47,7.53-7.16,11.87-5.16,13.3-3.9,28.81,3.23,40.86-.46,27.83,3.02,31.45,4.53,33.01,1.37,1.42,3.16,2.2,5.07,2.21.76,0,1.46-.09,2.11-.27v.3c0,1.94.75,3.76,2.13,5.15,1.38,1.38,3.21,2.14,5.15,2.14h12.92c.73,0,1.44-.11,2.12-.31.68.21,1.39.31,2.12.31h3.8c1,0,1.97-.2,2.86-.59.92.38,1.93.59,2.96.59h3.29c.76,0,1.49-.11,2.2-.34.7.22,1.44.34,2.2.34h6.52c2.88,0,5.43-.54,7.61-1.61,1.29,1.04,2.88,1.61,4.56,1.61h11.94c.76,0,1.5-.12,2.21-.34.71.22,1.45.34,2.21.34h12.92c1.39,0,2.72-.39,3.87-1.11,1.91.76,4.12,1.13,6.66,1.13,3.41,0,6.35-.71,8.76-2.11,2.33,1.42,5.16,2.11,8.62,2.11s6.55-.76,8.99-2.25c3.41-2.09,5.28-5.3,5.28-9.04,0-1.39-.23-2.7-.69-3.91.13-.54.19-1.11.19-1.69,0-1.4-.31-3.18-1.47-4.99.82.16,1.71.16,2.51.02,5.71-1.01,7.86-7.82,7.56-24.21,5.47-11.51,5.99-25.38,1.35-37.34ZM31.12,134.66c1.62,1.67,3.66,2.55,5.89,2.55s4.29-.96,5.8-2.7c1.78-2.06,3.65-5.96,3.05-17.62,2.73.53,6.11,1.99,9.58,5.43.04.04.11.11.15.14l.29.27s.13.12.18.17c1.71,1.52,4.26,4.66,6.28,7.26-10.7,12.52-14.64,13.68-14.96,13.76l-.15.02c-1.08.13-2.13.2-3.11.2-4.86,0-8.39-1.5-10.79-4.59-1.13-1.45-1.95-3.22-2.44-5.13.08.09.15.17.23.25ZM44.38,86.27c-1.13-.03-2.25-.02-3.37.03.96-2.49,1.42-5.57,1.42-9.38,0-4.9-.84-11.31-2.3-17.6-.32-1.38-.66-2.72-1.01-3.94,3.27-.31,6.13-1.19,8.53-2.63l-3.28,33.52ZM106.81,122.68l.26-.25s.05-.04.07-.07c.05-.05.1-.1.15-.14,2.28,2.25,4.81,2.58,6.1,2.58.24,0,.49,0,.75-.03,2.59-.16,4.84-1.3,6.52-3.3.17-.2.33-.4.48-.62.15,0,.29,0,.47,0,1.88-.09,3.63-.88,4.95-2.26,2.13,1.31,3.78,3.17,4.61,5.3,2.02,5.2,1.25,11.64-1.87,15.65h0c-2.4,3.09-5.93,4.59-10.81,4.59-.98,0-2.01-.06-3.13-.2l-.25-.03c-.16-.02-3.83-.58-14.36-13.51,2.1-2.8,5.19-6.87,6.06-7.71ZM73.97,170.12c-.46-.23-.94-.44-1.44-.62-1.83-.65-3.91-.99-6.17-.99h-.94c3.57-2.29,7.26-5.31,11.16-9.11.28,4.28.75,7.15,1.3,9.14-1.44.13-2.79.67-3.91,1.58Z" />
    <path class="cls-6"
      d="M38.28,185.58h-8.16v-1.29h6.83c.15,0,.28-.05.39-.16.11-.11.16-.24.16-.39v-2.66c0-.15-.05-.28-.16-.39-.11-.11-.24-.16-.39-.16h-6.83v-1.29h7.96c.15,0,.28-.05.39-.16.11-.11.16-.24.16-.39v-2.88c0-.15-.05-.28-.16-.39-.11-.11-.24-.16-.39-.16h-12.72c-.15,0-.28.05-.39.16-.11.11-.16.24-.16.39v13.21c0,.15.05.28.16.39.11.11.24.16.39.16h12.92c.15,0,.28-.05.39-.16.11-.11.16-.24.16-.39v-2.88c0-.15-.05-.28-.16-.39-.11-.11-.24-.16-.39-.16Z" />
    <path class="cls-6"
      d="M55.44,175.25h-3.8c-.15,0-.28.05-.39.16-.11.11-.16.24-.16.39v6.01l-4.46-6.16c-.2-.27-.47-.41-.8-.41h-3.31c-.15,0-.28.05-.39.16-.11.11-.16.24-.16.39v13.21c0,.15.05.28.16.39.11.11.24.16.39.16h3.8c.15,0,.28-.05.39-.16.11-.11.16-.24.16-.39v-5.56l4.46,5.69c.22.29.49.43.82.43h3.29c.15,0,.28-.05.39-.16.11-.11.16-.24.16-.39v-13.21c0-.15-.05-.28-.16-.39-.11-.11-.24-.16-.39-.16Z" />
    <path class="cls-6"
      d="M70.27,175.84c-1.1-.4-2.41-.59-3.91-.59h-6.52c-.15,0-.28.05-.39.16-.11.11-.16.24-.16.39v13.21c0,.15.05.28.16.39.11.11.24.16.39.16h6.52c2.25,0,4.05-.45,5.4-1.35,1.47-1,2.21-2.58,2.21-4.76v-2.09c0-1.4-.34-2.58-1.02-3.52-.68-.94-1.57-1.61-2.68-2ZM68.55,183.82c0,.56-.19.99-.56,1.3-.37.31-.88.46-1.52.46h-1.86v-6.34h1.86c.64,0,1.15.15,1.52.46.37.31.56.74.56,1.3v2.82Z" />
    <path class="cls-6"
      d="M90.47,185.37h-6.97v-9.57c0-.15-.05-.28-.16-.39-.11-.11-.24-.16-.39-.16h-4.42c-.15,0-.28.05-.39.16-.11.11-.16.24-.16.39v13.21c0,.15.05.28.16.39.11.11.24.16.39.16h11.94c.15,0,.28-.05.39-.16.11-.11.16-.24.16-.39v-3.09c0-.15-.05-.28-.16-.39-.11-.11-.24-.16-.39-.16Z" />
    <path class="cls-6"
      d="M107.81,185.58h-8.16v-1.29h6.83c.15,0,.28-.05.39-.16.11-.11.16-.24.16-.39v-2.66c0-.15-.05-.28-.16-.39-.11-.11-.24-.16-.39-.16h-6.83v-1.29h7.96c.15,0,.28-.05.39-.16.11-.11.16-.24.16-.39v-2.88c0-.15-.05-.28-.16-.39-.11-.11-.24-.16-.39-.16h-12.72c-.15,0-.28.05-.39.16-.11.11-.16.24-.16.39v13.21c0,.15.05.28.16.39.11.11.24.16.39.16h12.92c.15,0,.28-.05.39-.16.11-.11.16-.24.16-.39v-2.88c0-.15-.05-.28-.16-.39-.11-.11-.24-.16-.39-.16Z" />
    <path class="cls-6"
      d="M124.47,181.97c-.95-.68-2.54-1.14-4.78-1.39-1.06-.12-1.77-.23-2.13-.35-.35-.11-.53-.27-.53-.46,0-.37.46-.55,1.37-.55.65,0,1.15.14,1.47.42.18.16.39.23.63.23h4.4c.15,0,.27-.04.36-.12.09-.08.13-.19.13-.32,0-1-.64-1.95-1.92-2.85-1.28-.9-2.96-1.35-5.04-1.35s-3.74.42-4.98,1.25c-1.24.84-1.86,1.93-1.86,3.29,0,2.41,1.93,3.84,5.79,4.29,1.21.13,2.02.27,2.43.4.41.14.61.33.61.56,0,.38-.65.57-1.94.57-.94,0-1.6-.17-1.98-.52-.18-.17-.41-.25-.7-.25h-4.19c-.31,0-.47.15-.47.45,0,1.22.63,2.24,1.89,3.07,1.26.83,3.03,1.25,5.31,1.25s4.1-.42,5.48-1.26c1.38-.84,2.07-1.94,2.07-3.3s-.47-2.37-1.42-3.05Z" />
    <path class="cls-6"
      d="M141.85,181.97c-.95-.68-2.54-1.14-4.78-1.39-1.06-.12-1.77-.23-2.13-.35-.35-.11-.53-.27-.53-.46,0-.37.46-.55,1.37-.55.65,0,1.15.14,1.47.42.18.16.39.23.63.23h4.4c.15,0,.27-.04.36-.12.09-.08.13-.19.13-.32,0-1-.64-1.95-1.92-2.85-1.28-.9-2.96-1.35-5.04-1.35s-3.74.42-4.98,1.25c-1.24.84-1.86,1.93-1.86,3.29,0,2.41,1.93,3.84,5.79,4.29,1.21.13,2.02.27,2.43.4.41.14.61.33.61.56,0,.38-.65.57-1.94.57-.94,0-1.6-.17-1.98-.52-.18-.17-.41-.25-.7-.25h-4.19c-.31,0-.47.15-.47.45,0,1.22.63,2.24,1.89,3.07,1.26.83,3.03,1.25,5.31,1.25s4.1-.42,5.48-1.26c1.38-.84,2.07-1.94,2.07-3.3s-.47-2.37-1.42-3.05Z" />
    <path class="cls-5"
      d="M38.08,175.25c.15,0,.28.05.39.16.11.11.16.24.16.39v2.88c0,.15-.05.28-.16.39-.11.11-.24.16-.39.16h-7.96v1.29h6.83c.15,0,.28.06.39.16.11.11.16.24.16.39v2.66c0,.15-.05.28-.16.39-.11.11-.24.16-.39.16h-6.83v1.29h8.16c.15,0,.28.06.39.16.11.11.16.24.16.39v2.88c0,.15-.05.28-.16.39-.11.11-.24.16-.39.16h-12.92c-.15,0-.28-.05-.39-.16-.11-.11-.16-.24-.16-.39v-13.21c0-.15.05-.28.16-.39.11-.11.24-.16.39-.16h12.72ZM38.08,173.26h-12.72c-.68,0-1.31.26-1.79.75-.48.48-.75,1.12-.75,1.8v13.21c0,.67.26,1.31.74,1.79.48.48,1.12.75,1.8.75h12.92c.67,0,1.31-.26,1.79-.74.49-.49.75-1.12.75-1.8v-2.88c0-.68-.27-1.32-.75-1.8-.18-.18-.37-.32-.58-.44,0-.05,0-.1,0-.16v-2.66c0-.09,0-.18-.01-.27.14-.09.27-.2.4-.33.48-.48.74-1.12.74-1.79v-2.88c0-.67-.26-1.31-.74-1.79-.49-.49-1.13-.75-1.8-.75h0Z" />
    <path class="cls-5"
      d="M55.44,175.25c.15,0,.28.05.39.16.11.11.16.24.16.39v13.21c0,.15-.05.28-.16.39-.11.11-.24.16-.39.16h-3.29c-.33,0-.6-.14-.82-.43l-4.46-5.69v5.56c0,.15-.05.28-.16.39-.11.11-.24.16-.39.16h-3.8c-.15,0-.28-.05-.39-.16-.11-.11-.16-.24-.16-.39v-13.21c0-.15.05-.28.16-.39.11-.11.24-.16.39-.16h3.31c.33,0,.59.14.8.41l4.46,6.16v-6.01c0-.15.05-.28.16-.39.11-.11.24-.16.39-.16h3.8ZM55.44,173.26h-3.8c-.68,0-1.31.26-1.79.75-.45.46-.71,1.05-.74,1.67l-.86-1.19c-.6-.8-1.45-1.23-2.41-1.23h-3.31c-.67,0-1.31.26-1.79.74-.49.49-.75,1.12-.75,1.8v13.21c0,.67.26,1.31.74,1.79.49.49,1.12.75,1.8.75h3.8c.67,0,1.31-.26,1.79-.74.44-.44.7-1.01.74-1.61l.91,1.16c.58.76,1.43,1.19,2.38,1.19h3.29c.67,0,1.31-.26,1.79-.74.49-.49.75-1.13.75-1.8v-13.21c0-.67-.26-1.31-.74-1.79-.49-.49-1.13-.75-1.8-.75h0Z" />
    <path class="cls-5"
      d="M66.36,175.25c1.5,0,2.8.2,3.91.59,1.1.4,2,1.06,2.68,2,.68.94,1.02,2.11,1.02,3.52v2.09c0,2.18-.74,3.77-2.21,4.76-1.35.9-3.15,1.35-5.4,1.35h-6.52c-.15,0-.28-.05-.39-.16-.11-.11-.16-.24-.16-.39v-13.21c0-.15.05-.28.16-.39.11-.11.24-.16.39-.16h6.52ZM64.6,185.58h1.86c.64,0,1.15-.15,1.52-.46.37-.31.56-.74.56-1.3v-2.82c0-.56-.19-.99-.56-1.3-.37-.31-.88-.46-1.52-.46h-1.86v6.34h0ZM66.36,173.26h-6.52c-.67,0-1.31.26-1.79.74-.49.49-.75,1.12-.75,1.8v13.21c0,.67.26,1.31.74,1.79.49.49,1.12.75,1.8.75h6.52c2.64,0,4.83-.57,6.5-1.68,1.42-.96,3.09-2.84,3.09-6.42v-2.09c0-1.83-.47-3.4-1.4-4.68-.92-1.27-2.14-2.18-3.62-2.71-1.32-.47-2.86-.71-4.58-.71h0Z" />
    <path class="cls-5"
      d="M82.95,175.25c.15,0,.28.05.39.16.11.11.16.24.16.39v9.57h6.97c.15,0,.28.05.39.16.11.11.16.24.16.39v3.09c0,.15-.05.28-.16.39-.11.11-.24.16-.39.16h-11.94c-.15,0-.28-.05-.39-.16-.11-.11-.16-.24-.16-.39v-13.21c0-.15.05-.28.16-.39.11-.11.24-.16.39-.16h4.42ZM82.95,173.26h-4.42c-.68,0-1.31.26-1.79.75-.48.48-.75,1.12-.75,1.8v13.21c0,.67.26,1.31.74,1.79.48.48,1.12.75,1.8.75h11.94c.67,0,1.31-.26,1.79-.74.49-.49.75-1.12.75-1.8v-3.09c0-.67-.26-1.31-.74-1.79-.49-.49-1.12-.75-1.8-.75h-4.98v-7.58c0-.67-.26-1.31-.74-1.79-.49-.49-1.12-.75-1.8-.75h0Z" />
    <path class="cls-5"
      d="M107.61,175.25c.15,0,.28.05.39.16.11.11.16.24.16.39v2.88c0,.15-.05.28-.16.39-.11.11-.24.16-.39.16h-7.96v1.29h6.83c.15,0,.28.06.39.16.11.11.16.24.16.39v2.66c0,.15-.05.28-.16.39-.11.11-.24.16-.39.16h-6.83v1.29h8.16c.15,0,.28.06.39.16.11.11.16.24.16.39v2.88c0,.15-.05.28-.16.39-.11.11-.24.16-.39.16h-12.92c-.15,0-.28-.05-.39-.16-.11-.11-.16-.24-.16-.39v-13.21c0-.15.05-.28.16-.39.11-.11.24-.16.39-.16h12.72ZM107.61,173.26h-12.72c-.68,0-1.31.26-1.79.75-.48.48-.75,1.12-.75,1.8v13.21c0,.67.26,1.31.74,1.79.48.48,1.12.75,1.8.75h12.92c.67,0,1.31-.26,1.79-.74.49-.49.75-1.12.75-1.8v-2.88c0-.68-.27-1.32-.75-1.8-.18-.18-.37-.32-.58-.44,0-.05,0-.1,0-.16v-2.66c0-.09,0-.18-.01-.27.14-.09.27-.2.4-.33.48-.48.74-1.12.74-1.79v-2.88c0-.67-.26-1.31-.74-1.79-.49-.49-1.13-.75-1.8-.75h0Z" />
    <path class="cls-5"
      d="M118.44,175.23c2.08,0,3.76.45,5.04,1.35,1.28.9,1.92,1.85,1.92,2.85,0,.13-.04.24-.13.32-.09.08-.21.12-.36.12h-4.4c-.25,0-.46-.08-.63-.23-.33-.28-.82-.42-1.47-.42-.91,0-1.37.18-1.37.55,0,.2.18.35.53.46.35.11,1.06.23,2.13.35,2.24.25,3.83.71,4.78,1.39.95.68,1.42,1.69,1.42,3.05s-.69,2.46-2.07,3.3c-1.38.84-3.2,1.26-5.48,1.26s-4.05-.41-5.31-1.25c-1.26-.83-1.89-1.85-1.89-3.07,0-.3.16-.45.47-.45h4.19c.29,0,.52.08.7.25.38.35,1.04.52,1.98.52,1.29,0,1.94-.19,1.94-.57,0-.24-.2-.43-.61-.56-.41-.14-1.22-.27-2.43-.4-3.86-.45-5.79-1.88-5.79-4.29,0-1.36.62-2.45,1.86-3.29,1.24-.84,2.9-1.25,4.98-1.25h0ZM118.44,173.24c-2.47,0-4.52.54-6.09,1.59-1.79,1.21-2.74,2.92-2.74,4.94,0,.91.2,2.12,1.03,3.25-.89.36-1.48,1.21-1.48,2.25,0,1.32.48,3.21,2.79,4.73,1.61,1.06,3.7,1.57,6.4,1.57s4.83-.52,6.52-1.56c2.49-1.53,3.02-3.56,3.02-5,0-1.75-.59-2.96-1.29-3.79,0,0,0,0,.01-.01.51-.47.79-1.1.79-1.8,0-1.68-.93-3.19-2.77-4.48-1.62-1.13-3.7-1.71-6.18-1.71h0Z" />
    <path class="cls-5"
      d="M135.82,175.23c2.08,0,3.76.45,5.04,1.35,1.28.9,1.92,1.85,1.92,2.85,0,.13-.04.24-.13.32-.09.08-.21.12-.36.12h-4.4c-.25,0-.46-.08-.63-.23-.33-.28-.82-.42-1.47-.42-.91,0-1.37.18-1.37.55,0,.2.18.35.53.46.35.11,1.06.23,2.13.35,2.24.25,3.83.71,4.78,1.39.95.68,1.42,1.69,1.42,3.05s-.69,2.46-2.07,3.3c-1.38.84-3.2,1.26-5.48,1.26s-4.05-.41-5.31-1.25c-1.26-.83-1.89-1.85-1.89-3.07,0-.3.16-.45.47-.45h4.19c.29,0,.52.08.7.25.38.35,1.04.52,1.98.52,1.29,0,1.94-.19,1.94-.57,0-.24-.2-.43-.61-.56-.41-.14-1.22-.27-2.43-.4-3.86-.45-5.79-1.88-5.79-4.29,0-1.36.62-2.45,1.86-3.29,1.24-.84,2.9-1.25,4.98-1.25h0ZM135.82,173.24c-2.47,0-4.52.54-6.09,1.59-1.79,1.21-2.74,2.92-2.74,4.94,0,.91.2,2.12,1.03,3.25-.89.36-1.48,1.21-1.48,2.25,0,1.32.48,3.21,2.79,4.73,1.61,1.06,3.7,1.57,6.4,1.57s4.83-.52,6.52-1.56c2.49-1.53,3.02-3.56,3.02-5,0-1.75-.59-2.96-1.29-3.79,0,0,0,0,.01-.01.51-.47.79-1.1.79-1.8,0-1.68-.93-3.19-2.77-4.48-1.62-1.13-3.7-1.71-6.18-1.71h0Z" />
    <path class="cls-4"
      d="M17.03,106.45c-.55,0-.99-.45-.99-.99V6.73c0-.55.45-.99.99-.99h18.39c4.05,0,7.34.93,9.76,2.77,2.41,1.84,4.16,4.47,5.19,7.82,1,3.25,1.51,7.15,1.51,11.61s-.42,8.08-1.26,11.27c-.87,3.32-2.45,5.93-4.7,7.78-2.27,1.85-5.48,2.8-9.55,2.8h-4.66v55.68c0,.55-.45.99-.99.99h-13.69ZM31.72,35.28c2-.03,3.22-.55,3.62-1.55.53-1.33.8-3.36.8-6.04,0-2.5-.26-4.43-.78-5.75-.26-.65-.86-1.53-3.09-1.53h-.55v14.86Z" />
    <path class="cls-5"
      d="M35.43,6.73c3.85,0,6.9.86,9.16,2.57,2.25,1.71,3.87,4.15,4.85,7.32.98,3.16,1.46,6.94,1.46,11.31s-.41,7.89-1.23,11.02c-.82,3.13-2.27,5.54-4.37,7.26-2.1,1.71-5.07,2.57-8.92,2.57h-5.66v56.67h-13.69V6.73h18.39ZM30.72,36.28h.79c2.58,0,4.17-.73,4.75-2.18.58-1.45.87-3.59.87-6.41,0-2.64-.28-4.67-.85-6.11-.57-1.44-1.91-2.16-4.02-2.16h-1.54v16.85h0ZM35.43,4.74h-18.39c-1.1,0-1.99.89-1.99,1.99v98.72c0,1.1.89,1.99,1.99,1.99h13.69c1.1,0,1.99-.89,1.99-1.99v-54.68h3.67c4.3,0,7.73-1.02,10.18-3.02,2.42-1.98,4.11-4.77,5.04-8.3.86-3.28,1.29-7.15,1.29-11.52s-.52-8.56-1.55-11.9c-1.1-3.55-2.96-6.35-5.54-8.32-2.6-1.98-6.09-2.98-10.36-2.98h0ZM32.71,34.22v-12.79c1.41.09,1.62.64,1.72.88.47,1.2.71,3.01.71,5.38,0,3.18-.4,4.84-.73,5.67-.21.51-.95.75-1.7.85h0Z" />
    <path class="cls-4"
      d="M78.95,116.59c-.23,0-.45-.08-.63-.22-.21-.17-.34-.42-.36-.69l-3.89-49.56h-6.54l-2.75,39.41c-.04.52-.47.92-.99.92h-14.51c-.28,0-.55-.12-.74-.33-.19-.21-.28-.49-.25-.76L57.94,6.63c.05-.51.48-.9.99-.9h23.62c.51,0,.94.39.99.9l10.16,107.12c.05.53-.33,1.01-.87,1.08l-13.76,1.74s-.08,0-.12,0ZM72.84,53.01l-2.23-25.94-1.94,25.94h4.17Z" />
    <path class="cls-5"
      d="M82.54,6.73l10.16,107.12-13.76,1.74-3.96-50.48h-8.39l-2.82,40.33h-14.51L58.93,6.73h23.62ZM67.59,54h6.33l-3.05-35.4h-.63l-2.65,35.4h0ZM82.54,4.74h-23.62c-1.02,0-1.88.78-1.98,1.8l-9.66,98.72c-.05.56.13,1.11.51,1.53.38.42.91.65,1.47.65h14.51c1.04,0,1.91-.81,1.98-1.85l2.69-38.48h4.69l3.82,48.64c.04.54.31,1.04.73,1.39.36.29.8.45,1.26.45.08,0,.17,0,.25-.02l13.76-1.74c1.07-.13,1.83-1.09,1.73-2.16L84.52,6.54c-.1-1.02-.95-1.8-1.98-1.8h0ZM69.73,52.01l.94-12.55,1.08,12.55h-2.02Z" />
    <rect class="cls-4" x="91.79" y="5.74" width="15.44" height="100.71" rx=".99" ry=".99" />
    <path class="cls-5"
      d="M106.24,6.73v98.72h-13.45V6.73h13.45ZM106.24,4.74h-13.45c-1.1,0-1.99.89-1.99,1.99v98.72c0,1.1.89,1.99,1.99,1.99h13.45c1.1,0,1.99-.89,1.99-1.99V6.73c0-1.1-.89-1.99-1.99-1.99h0Z" />
    <path class="cls-4"
      d="M138.47,107.39c-.46-.02-.85-.35-.94-.8l-11.15-55.12v49.97c0,.55-.45.99-.99.99h-13.61c-.55,0-.99-.45-.99-.99V6.73c0-.55.45-.99.99-.99h14.32c.48,0,.89.34.98.81l4.44,23.09V6.73c0-.55.45-.99.99-.99h13.45c.55,0,.99.45.99.99v99.95c0,.27-.11.53-.3.72-.19.18-.43.28-.69.28-.01,0-7.49-.28-7.49-.28Z" />
    <path class="cls-5"
      d="M145.95,6.73v99.95l-7.45-.28-13.12-64.86v59.9h-13.61V6.73h14.32l6.41,33.35V6.73h13.45ZM145.95,4.74h-13.45c-1.1,0-1.99.89-1.99,1.99v12.46l-2.47-12.84c-.18-.94-1-1.61-1.95-1.61h-14.32c-1.1,0-1.99.89-1.99,1.99v94.71c0,1.1.89,1.99,1.99,1.99h13.61c1.1,0,1.99-.89,1.99-1.99v-40.03l9.18,45.39c.18.9.96,1.56,1.87,1.59l7.45.28s.05,0,.07,0c.51,0,1.01-.2,1.38-.56.39-.37.61-.89.61-1.43V6.73c0-1.1-.89-1.99-1.99-1.99h0Z" />
    <path class="cls-7"
      d="M50.9,27.93c0-4.38-.49-8.15-1.46-11.31-.98-3.16-2.59-5.6-4.85-7.32-2.25-1.71-5.31-2.57-9.16-2.57h-18.39v41.91c10.82-6.03,22.07-11.2,33.62-15.65.15-1.59.24-3.26.24-5.06ZM36.26,34.1c-.58,1.45-2.16,2.18-4.75,2.18h-.79v-16.85h1.54c2.11,0,3.45.72,4.02,2.16.57,1.44.85,3.47.85,6.11,0,2.82-.29,4.96-.87,6.41Z" />
    <path class="cls-7"
      d="M70.24,18.6h.63l.62,7.22c4.14-1.27,8.32-2.46,12.52-3.58l-1.47-15.51h-23.62l-2.35,24.06c4.32-1.56,8.68-3.03,13.08-4.4l.58-7.79Z" />
    <path class="cls-7" d="M106.24,6.73h-13.45v13.29c4.46-1.07,8.95-2.07,13.45-2.99V6.73Z" />
    <path class="cls-7" d="M126.1,6.73h-14.32v9.19c5.17-1,10.35-1.91,15.56-2.74l-1.24-6.45Z" />
    <path class="cls-7" d="M145.95,6.73h-13.45v5.65c4.48-.67,8.96-1.29,13.45-1.86v-3.79Z" />
    <path class="cls-3"
      d="M44.59,9.3c-2.25-1.71-5.31-2.57-9.16-2.57h-18.39v98.72h.28l1.22-96.97c1.31-.23,20.6-2.44,26.05.82Z" />
    <polygon class="cls-3" points="82.54 6.73 58.93 6.73 49.38 104.36 61.3 9.56 82.81 9.56 82.54 6.73" />
    <polygon class="cls-3" points="92.79 6.73 92.79 105.45 95 10.17 106.24 8.17 106.24 6.73 92.79 6.73" />
    <polygon class="cls-3"
      points="126.1 6.73 111.78 6.73 111.78 101.44 115.76 9.51 125.37 8.64 129.63 25.14 126.1 6.73" />
    <polygon class="cls-3" points="132.5 6.73 132.5 30.45 134.32 8.64 145.95 6.73 132.5 6.73" />
    <path class="cls-3"
      d="M155.94,114.27c-4.6-11.86-15.07-20.58-28.02-23.34-2.78-.59-5.63-.89-8.45-.89-11.21,0-22.18,4.72-30.87,13.28-1.91,1.79-3.99,4.35-7.01,8.34-2.05-2.56-4.82-5.86-7.62-8.39-.55-.54-1.11-1.06-1.68-1.57,3.36,1.14,6.27,1.28,7.49,1.28,7.63,0,20.9-5.19,22.23-24.63,1-14.59-8.3-35.81-12.34-44.25-.45-.93-.89-1.89-1.33-2.83l-.1-.22c-3.78-8.11-5.59-11.69-8.85-11.69s-5.1,3.68-8.71,11.41c-.47,1.01-.95,2.04-1.43,3.04-4.09,8.5-13.49,29.86-12.48,44.55.52,7.63,2.77,12.89,5.68,16.53-6.07-3.15-12.64-4.83-19.3-4.83-2.82,0-5.67.3-8.45.89-12.94,2.75-23.42,11.48-28.02,23.34-4.88,12.57-3.53,27.27,3.5,38.45-.25,12.51.16,28,3.45,31.41.83.86,1.73,1.05,2.34,1.05,3.01,0,4.79-3.07,5.76-10.14.22.23.46.42.71.57.79.45,1.71.47,2.54.06,1.81-.9,3.03-3.49,3.62-7.7,3.29,1.26,6.82,2.09,10.52,2.47.33,1.71.93,2.93,1.83,3.72.88.78,2.03,1.1,3.25.89,1.51-.25,3.41-1.26,4.19-4.54.59-.05,1.26-.11,1.92-.19,9.04-.99,18.29-7.22,29.79-20.12,0,11.62.98,18.41,2.92,20.22.84.78,1.75.83,2.19.77,1.06-.1,1.93-.77,2.65-2.01,1.02,5.25,2.59,7.73,4.86,7.73,4.48,0,4.55-7.1,4.6-12.29,0-.14,0-.27,0-.4,2.69,1.89,5.32,3.32,7.97,4.35.02.28.05.57.08.88.28,3.04.91,9.47,5.22,9.09,2.43-.22,3.81-2.91,4.12-8,1.39.11,2.65.16,3.81.16,2.55,0,5.09-.21,7.55-.61,1.49,17.2,4.23,19.55,6.73,19.55.11,0,.21,0,.3,0,.62-.03,1.52-.26,2.33-1.19,2.08-2.37,2.84-9.81,2.26-22.12,2.53-1.29,4.9-2.88,7.07-4.73.35,4.58,1.15,7.2,2.53,8.39.74.64,1.66.9,2.6.73,2.1-.37,4.83-2.99,4.41-21.31,5.39-10.73,6-23.85,1.63-35.13ZM96.72,129.43c2.53-3.38,6.35-8.48,7.46-9.49,0,0,0,0,.01-.01l.28-.26c1.14-1.13,2.35-2.14,3.63-3.03,1.51,3.58,3.67,4.37,5.3,4.37.16,0,.32,0,.45-.02,1.57-.08,2.89-.74,3.91-1.96.6-.71,1.08-1.62,1.44-2.73.75.6,1.5.76,2.1.76h.15c.96-.05,1.82-.46,2.49-1.2.48-.53.85-1.25,1.12-2.13,4.51,1.5,8.09,4.73,9.66,8.79,2.51,6.48,1.55,14.26-2.41,19.35-3.7,4.77-9.56,6.77-17.34,5.83l-.21-.02c-2.59-.26-7.95-3.47-18.79-17.21l.78-1.03ZM39.94,132.03c2.12-2.45,2.74-8.89,1.83-19.14.49-.04.94-.06,1.37-.06,3.7,0,9.3,1.18,15.04,6.87l.39.37c2.32,2.06,5.62,6.25,8.62,10.21-12.58,15.18-17.73,17.24-19.38,17.41,0,0,0,0,0,0h-.13c-7.79.96-13.64-1.04-17.35-5.82-3.96-5.09-4.92-12.87-2.41-19.35.56-1.43,1.39-2.8,2.45-4.02.35,7.05,1.49,11.49,3.47,13.53.89.92,1.99,1.4,3.18,1.4s2.14-.48,2.93-1.39Z" />
    <path class="cls-3"
      d="M30.72,90.07c2.95,0,5.3-1.68,6.6-4.74.88-2.07,1.33-4.9,1.33-8.4,0-4.62-.8-10.72-2.2-16.74-.56-2.4-1.18-4.65-1.75-6.31-.63-1.84-1.5-4.37-3.98-4.37s-3.34,2.52-3.98,4.37c-.57,1.66-1.19,3.9-1.75,6.31-1.4,6.02-2.2,12.12-2.2,16.74,0,3.5.45,6.33,1.33,8.4,1.3,3.06,3.64,4.74,6.6,4.74Z" />
    <path class="cls-3"
      d="M146.5,78.46c2.83,0,5.05-1.24,6.43-3.58,1-1.69,1.5-3.96,1.5-6.73,0-4.94-1.58-10.41-2.26-12.53-2.4-7.5-4.05-8.12-5.67-8.12s-3.26.62-5.66,8.12c-.68,2.12-2.26,7.58-2.26,12.53,0,2.78.5,5.04,1.5,6.73,1.38,2.34,3.6,3.58,6.43,3.58Z" />
    <path class="cls-3"
      d="M112.96,61.31c2.99,0,5.35-1.7,6.66-4.8.89-2.11,1.34-4.99,1.34-8.58,0-6.65-1.5-14.25-2.39-18.19-.58-2.57-1.23-5.01-1.82-6.88-.73-2.3-1.49-4.69-3.94-4.69s-3.2,2.37-3.91,4.65c-.57,1.83-1.19,4.23-1.75,6.76-.85,3.87-2.28,11.35-2.28,18,0,3.68.46,6.64,1.35,8.8,1.78,4.28,4.99,4.92,6.74,4.92Z" />
    <path class="cls-3"
      d="M46.77,41.93c3.82,0,5.89-1.88,6.95-3.46,1.17-1.75,1.77-4.1,1.77-6.99,0-5.07-1.8-10.81-2.87-13.77-2.91-8.05-4.5-8.71-6.13-8.71s-3.21.63-5.94,8.56c-.99,2.89-2.66,8.48-2.66,13.53,0,2.99.6,5.42,1.78,7.23,1.08,1.65,3.18,3.62,7.1,3.62Z" />
    <path class="cls-2"
      d="M79.79,101.03c-3.26,0-19.59-1.1-21.08-22.82-.97-14.23,8.27-35.21,12.29-43.57.49-1.03.99-2.08,1.47-3.12,3.14-6.72,4.87-10.22,6.92-10.22s3.85,3.62,7.09,10.57c.48,1.02.96,2.06,1.44,3.07,3.98,8.31,13.12,29.16,12.15,43.28-1.23,18.01-13.34,22.82-20.3,22.82Z" />
    <path class="cls-5"
      d="M79.4,22.29c1.83,0,4.72,6.98,7.64,13.07,5.5,11.5,12.92,30.19,12.06,42.78-1.16,16.95-12.31,21.89-19.3,21.89s-18.85-3.94-20.08-21.89c-.87-12.7,6.68-31.6,12.2-43.08,2.85-5.93,5.67-12.78,7.5-12.78h0ZM79.4,20.3c-2.66,0-4.41,3.5-7.82,10.8-.48,1.04-.98,2.09-1.47,3.11-4.05,8.43-13.38,29.61-12.39,44.07,1.55,22.6,18.65,23.75,22.07,23.75,7.3,0,20.01-5,21.29-23.75.98-14.36-8.24-35.4-12.25-43.78-.48-1.01-.96-2.04-1.44-3.06-3.51-7.53-5.32-11.14-7.99-11.14h0Z" />
    <path class="cls-1"
      d="M68.96,85.75c-9.35-21.51,10.75-63.46,10.44-63.46-1.83,0-4.64,6.85-7.5,12.78-5.52,11.47-13.07,30.37-12.2,43.08,1.23,17.96,13.09,21.89,20.08,21.89,1.4,0,2.98-.2,4.6-.66-6.42-1.3-12.78-7.67-15.43-13.63Z" />
    <path class="cls-1"
      d="M87.04,35.36c-.85-1.77-1.69-3.61-2.51-5.33,6.79,19.9,18.55,39.9,10.31,61.76,2.23-3.29,3.85-7.74,4.26-13.65.86-12.6-6.55-31.29-12.06-42.78Z" />
    <path class="cls-7"
      d="M44.09,168.76c-12.6,0-23.05-4.88-30.22-14.11-8.41-10.83-10.52-26.4-5.38-39.67,4.36-11.25,14.31-19.52,26.61-22.14,2.65-.56,5.36-.85,8.04-.85,10.68,0,21.16,4.51,29.49,12.7,3.07,2.77,6.22,6.6,8.98,10.15,3.6-4.79,6.19-8.12,8.32-10.12,8.33-8.21,18.82-12.74,29.52-12.74,2.69,0,5.4.29,8.05.85,12.3,2.62,22.25,10.9,26.61,22.14,5.15,13.26,3.03,28.83-5.38,39.67-7.17,9.23-17.62,14.11-30.22,14.11-1.95,0-3.96-.12-5.97-.36-12.08-1.25-22.47-12.02-31.1-22.68-12.45,14.66-22.15,21.67-31.35,22.68-2.02.24-4.04.36-6,.36ZM43.15,110.89c-1.39,0-2.78.14-4.11.43-5.96,1.27-10.91,5.29-12.93,10.5-2.75,7.09-1.67,15.63,2.69,21.25,3.46,4.45,8.76,6.81,15.32,6.81h0c1.21,0,2.48-.08,3.78-.24h.13c2.95-.33,9.09-3.95,21.65-19.31-3.52-4.68-7.14-9.34-9.8-11.71l-.35-.33c-6.16-6.11-12.3-7.39-16.37-7.39ZM93.5,130.49c4.07,5.22,14.61,18.48,21.03,19.12l.19.02c1.3.16,2.57.23,3.77.23,6.67,0,11.83-2.29,15.34-6.81,4.36-5.61,5.44-14.15,2.69-21.25-2.02-5.21-6.97-9.23-12.93-10.5-1.33-.28-2.72-.43-4.11-.43-4.07,0-10.2,1.28-16.35,7.37l-.25.24c-1.24,1.14-4.83,5.92-7.71,9.77-.56.74-1.11,1.48-1.67,2.22Z" />
    <path class="cls-5"
      d="M119.47,92.98c2.61,0,5.23.27,7.84.83,11.97,2.55,21.65,10.6,25.89,21.53,5.02,12.94,2.97,28.13-5.24,38.7-6.96,8.97-17.27,13.73-29.44,13.73-1.91,0-3.86-.12-5.86-.35-11.53-1.19-21.85-11.57-31.2-23.26-10.57,12.6-21.03,22.1-31.48,23.25-2.01.24-3.98.36-5.9.36-12.16,0-22.47-4.76-29.43-13.73-8.2-10.56-10.26-25.75-5.24-38.7,4.24-10.93,13.92-18.98,25.89-21.53,2.61-.55,5.23-.83,7.84-.83,10.38,0,20.56,4.32,28.79,12.42,3.06,2.76,6.24,6.6,9.69,11.08,4.21-5.6,6.81-8.99,8.99-11.03,8.24-8.13,18.44-12.47,28.84-12.47h0ZM44.12,150.86c1.26,0,2.55-.08,3.9-.24h.12c5.7-.62,15.05-10.72,22.8-20.27-3.97-5.28-7.65-10.03-10.41-12.48l-.33-.31c-6.21-6.16-12.45-7.66-17.05-7.66-1.69,0-3.15.2-4.32.45-6.28,1.34-11.51,5.59-13.65,11.11-2.87,7.41-1.74,16.34,2.83,22.22,3.68,4.74,9.2,7.19,16.11,7.19h0ZM118.49,150.86c6.91,0,12.44-2.45,16.12-7.19,4.57-5.88,5.7-14.81,2.83-22.22-2.14-5.52-7.37-9.77-13.65-11.11-1.16-.25-2.63-.45-4.32-.45-4.6,0-10.84,1.5-17.05,7.66l-.24.23c-1.3,1.19-4.76,5.81-7.82,9.89-.71.95-1.42,1.89-2.13,2.83,7.37,9.48,16.1,19.5,22.18,20.1l.18.02c1.34.16,2.63.24,3.88.24h0ZM119.47,90.99c-10.96,0-21.69,4.63-30.22,13.03-2.04,1.92-4.35,4.83-7.64,9.19-2.58-3.27-5.45-6.68-8.3-9.26-8.52-8.36-19.22-12.96-30.16-12.96-2.76,0-5.53.29-8.25.87-12.63,2.69-22.85,11.19-27.33,22.76-5.27,13.58-3.1,29.53,5.52,40.64,7.37,9.49,18.09,14.5,31,14.5,2,0,4.06-.13,6.13-.37,9.26-1.02,18.95-7.86,31.21-22.11,8.61,10.51,18.94,20.87,31.03,22.12,2.03.24,4.08.36,6.06.36,12.92,0,23.64-5.01,31.01-14.5,8.62-11.1,10.79-27.06,5.52-40.64-4.48-11.56-14.7-20.07-27.33-22.76-2.72-.58-5.5-.87-8.26-.87h0ZM44.12,148.87c-6.33,0-11.22-2.16-14.54-6.43-4.15-5.35-5.18-13.5-2.55-20.28,1.9-4.9,6.58-8.68,12.21-9.88,1.27-.27,2.58-.41,3.9-.41,3.88,0,9.74,1.23,15.65,7.09.01.01.03.02.04.04l.33.31s.03.02.04.04c2.48,2.2,5.97,6.67,9.2,10.94-12.65,15.36-18.25,18.09-20.49,18.33h-.12c-1.28.17-2.51.25-3.68.25h0ZM94.75,130.48c.4-.54.81-1.08,1.21-1.62,2.7-3.61,6.41-8.55,7.57-9.62l.26-.25c4.77-4.73,10.03-7.11,15.68-7.11,1.32,0,2.64.14,3.9.41,5.63,1.2,10.31,4.99,12.21,9.88,2.63,6.78,1.61,14.93-2.55,20.28-3.31,4.26-8.21,6.42-14.55,6.42-1.17,0-2.39-.08-3.64-.23l-.2-.02c-5.8-.57-15.6-12.66-19.89-18.14h0Z" />
    <path class="cls-2"
      d="M134.61,143.67c-4.35,5.6-11.27,8-20,6.95l-.18-.02c6.37,2.89,19,1.39,23.97-7.56,4.37-7.55,4.48-17.92-1.87-23.53.35.63.65,1.28.91,1.94,2.87,7.41,1.74,16.34-2.83,22.22Z" />
    <path class="cls-2"
      d="M143.86,102.66c.49.22.96.47,1.43.72-4.8-4.71-10.99-8.09-17.98-9.57-13.01-2.77-26.37,1.48-36.68,11.64,18.12-12.97,37.85-14.23,53.23-2.79Z" />
    <path class="cls-4"
      d="M92.24,130.5s1.42-1.88,2.13-2.83c1.12-1.49,2.29-3.06,3.4-4.5-4.59-3.72-8.47-8.15-11.09-13.26-1.4,1.76-5.04,6.58-5.04,6.58l-10.7,13.86s-4.72,5.68-7.15,8.34c5.14,2.33,9.79,5.87,13.67,10.1,1.34-1.49,4.07-4.56,4.07-4.56l10.72-13.73Z" />
    <path class="cls-7"
      d="M93.01,131.48c-.26-.33-.51-.65-.77-.98l-10.61-14.02c-3.45-4.49-6.63-8.32-9.69-11.08-9.09-8.94-20.55-13.27-32.04-12.27l-.84,17.17c1.12-.23,2.5-.41,4.08-.41,4.6,0,10.83,1.5,17.05,7.66l.33.31c2.75,2.45,6.43,7.19,10.41,12.48l10.53,13.81c2.83,3.53,5.74,6.93,8.75,10l10.01-3.3,8.52-2.81c-4.97-3.5-10.64-10.07-15.74-16.58Z" />
    <path class="cls-2"
      d="M48.13,150.6h-.12c-8.74,1.07-15.66-1.34-20-6.94-.83-1.07-1.54-2.24-2.14-3.48.29,3.03,4.93,12.15,16.32,12.68,13.45.63,18.5-10.51,18.69-11.11-4.8,4.87-9.4,8.5-12.75,8.86Z" />
    <path class="cls-2"
      d="M27.59,98.04c34.75-13.33,46.52,13.73,64.82,32.24.28-.37.57-.75.85-1.13,0,0-11.44-12.86-11.47-12.91-3.42-4.43-6.81-8.11-9.84-10.85-10.3-10.13-23.64-14.35-36.63-11.59-11.97,2.55-21.65,10.6-25.89,21.53-3.58,9.24-3.54,19.62-.25,28.65-4.81-17.86,2-39.64,18.42-45.94Z" />
    <polygon class="cls-5"
      points="81.47 144.15 70.94 130.35 69.79 128.82 68.41 130.3 81.42 147.21 82.46 145.39 81.47 144.15" />
    <path class="cls-5"
      d="M94.73,130.38l-13.1-17.08c-.19-.25-.73,1.76-.92,2l.92,1.18,10.61,14.02c.25.33.51.65.77.98,0,0,2.02-.72,1.72-1.1Z" />
    <path class="cls-7"
      d="M12.24,148.78s-1.28,34.45,3.73,34.46c5.01,0,4.6-23.21,4.77-23.08.17.13.58,15.16,3.38,13.76,2.8-1.4,2.91-10.83,2.91-10.83l-14.79-14.31Z" />
    <path class="cls-7"
      d="M95.51,157.39s-.09,3.41-.12,7.22c-.05,4.85-.25,10.37-2.66,10.37-4.31,0-4.31-26.19-4.31-26.19,0,0,.23,20.13-3.38,20.48-3.61.35-2.9-24.61-2.9-24.61,0,0,6.33.24,6.66.6.33.36,6.72,12.13,6.72,12.13Z" />
    <path class="cls-2"
      d="M82.13,144.65s-.71,24.96,2.9,24.61c.23-.02.45-.13.66-.31-1.45-4.77-2.01-18.29-2.58-23.81-.09-.69-.98-.49-.98-.49Z" />
    <path class="cls-2"
      d="M89.32,149.05s-.9-.07-.9.27c.03,3.7.36,25.64,4.31,25.65.2,0,.38-.05.55-.12-2.43-7.53-3.96-25.8-3.96-25.8Z" />
    <path class="cls-2" d="M88.42,149.32c0-.35,0-.54,0-.54,0,0,0,.2,0,.54Z" />
    <path class="cls-7"
      d="M112.77,165.82s.56,10.52-2.35,10.78c-2.14.19-2.79-3.87-3.11-7.33-.22-2.38-.32-3.78-.32-3.97l5.78.52Z" />
    <path class="cls-7" d="M127.64,164.88c.47,7.58,1.86,22.99,5.37,22.81,4.66-.23,2.34-27.74,2.34-27.74l-7.71,4.93Z" />
    <path class="cls-7" d="M32.26,109.9c0,1.18-.95,21.57,4.76,21.57s2.05-25.15,2.05-25.15l-6.81,3.58Z" />
    <path class="cls-2"
      d="M32.24,116.61c.18,6.35,1.09,14.87,4.78,14.87,1.23,0,2.03-1.18,2.52-3.02-3.19-2.58-5.71-10.26-6.46-18.69-.06-.65-.68,7.47-.84,6.84Z" />
    <path class="cls-7"
      d="M123.56,109.25s.35,5.75-2.21,5.86-3.36-7.39-3.31-7.47h-.15s1.37,11.12-4.14,11.4c-4.17.39-4.99-7.66-4.99-7.66l9.21-6.58,5.6,4.45Z" />
    <path class="cls-2"
      d="M106.99,165.3c0,.19.1,1.59.32,3.97.32,3.46.97,7.53,3.11,7.33.1,0,.2-.04.3-.07-.79-2.63-2.29-8.77-2.75-11.37-.22-.64-.98.13-.98.13Z" />
    <path class="cls-2"
      d="M127.64,164.88c.47,7.58,1.86,22.99,5.37,22.81.9-.05,1.54-1.12,1.99-2.82-2.65.43-4.89-11.35-6.35-20.02-.08-.5-1.09-.38-1.01.03Z" />
    <path class="cls-2"
      d="M108.75,111.38s.81,8.06,4.99,7.66c.39-.02.75-.1,1.07-.22-1.92-.4-3.98-5.81-5.12-7.84-.44-.79-.94.4-.94.4Z" />
    <path class="cls-2"
      d="M119,107.37l-.97.28c-.05.07.74,7.58,3.31,7.47.23-.01.43-.08.61-.17-.41-2.7-2.96-7.57-2.96-7.57Z" />
    <path class="cls-7" d="M40.79,166.01c0,.32-.48,7.72,3.1,7.12,3.58-.6,2.86-7.12,2.86-7.12h-5.96Z" />
    <path class="cls-2"
      d="M40.79,166.01c0,.32-.48,7.72,3.1,7.12.41-.07.75-.22,1.05-.42-1.65-.54-2.54-4.91-3.21-6.7-.28-.74-.94,0-.94,0Z" />
    <path class="cls-2"
      d="M20.94,162.47c.32,4.19,1.07,12.51,3.18,11.45.57-.28,1.02-.9,1.38-1.7-1.93-2.82-2.58-8.97-3.21-11.56-.12-.49-.74-1.67-1.31-1.31s-.11,2.55-.04,3.12Z" />
    <path class="cls-2"
      d="M12.34,168.7c.4,7.63,1.38,14.54,3.62,14.54,1.05,0,1.86-1.03,2.49-2.65-2.68-2.45-4.77-27.84-5.33-28.58-.57-.74-1.16,13-.78,16.7Z" />
    <path class="cls-7" d="M146.59,150.28c.06.35-.98,19.22,2.98,18.52,3.96-.7,2.56-25.51,2.56-25.51l-5.54,6.99Z" />
    <path class="cls-2"
      d="M146.59,150.28c.06.35-.98,19.22,2.98,18.52.66-.12,1.17-.91,1.56-2.13-2.33.47-3.13-12.1-3.63-16.38-.12-1.05-.9,0-.9,0Z" />
    <path class="cls-5"
      d="M15.97,184.24h0c-.42,0-1.05-.13-1.65-.76-4.08-4.24-3.19-31.62-3.07-34.73.02-.55.46-1.01,1.03-.96.55.02.98.48.96,1.03-.42,11.41-.12,30.54,2.52,33.28.09.09.17.15.22.15h0c.76,0,3.28-1.49,3.71-20.61.04-1.94.05-2.1.62-2.38.34-.16.74-.12,1.04.11.39.3.39.37.53,2.22.63,8.56,1.44,10.83,1.93,11.37,1.45-1,2.19-6.42,2.24-9.88,0-.55.42-1,1.01-.98.55,0,.99.46.98,1.01-.02,1.68-.28,10.12-3.46,11.71-.55.27-1.13.26-1.65-.03-.73-.41-1.29-1.39-1.75-3.16-.79,8.75-2.44,12.62-5.19,12.62Z" />
    <path class="cls-5"
      d="M84.96,170.27c-.36,0-.82-.11-1.28-.53-3.02-2.82-2.65-21.41-2.54-25.11.02-.55.48-.99,1.02-.97.55.02.98.47.97,1.02-.3,10.49.39,22.34,1.88,23.57,1.38-.58,2.53-9.73,2.41-19.46,0-.55.43-1,.98-1.01.54-.02,1,.43,1.01.98.09,7.86-.34,21.1-4.28,21.48-.05,0-.11,0-.17,0ZM85.06,168.3h.01-.01Z" />
    <path class="cls-5"
      d="M92.73,175.97h0c-4.61,0-5.3-17.04-5.3-27.18,0-.55.45-.99.99-.99s.99.44.99.99c0,14.42,1.75,25.19,3.32,25.2h0c1.04,0,1.61-3.16,1.67-9.38.04-3.82.13-7.24.13-7.24.01-.55.46-1,1.02-.97.55.01.98.47.97,1.02,0,0-.09,3.4-.12,7.21-.06,5.98-.38,11.35-3.65,11.35Z" />
    <path class="cls-5"
      d="M110.26,177.61c-3.17,0-3.68-5.54-3.94-8.24-.2-2.19-.33-3.79-.33-4.06,0-.55.45-.99.99-.99s.99.44.99.99c0,.14.08,1.38.32,3.88.55,5.92,1.59,6.46,2.03,6.44.99-.09,1.7-4.91,1.44-9.74-.03-.55.39-1.02.94-1.05.55-.03,1.02.39,1.05.94.19,3.45.24,11.51-3.25,11.83-.09,0-.17.01-.26.01Z" />
    <path class="cls-5"
      d="M132.81,188.69c-1.5,0-4.76-1.14-6.16-23.75-.03-.55.38-1.02.93-1.05.54-.03,1.02.38,1.05.93,1.11,17.98,3.48,21.88,4.31,21.88,0,0,0,0,.01,0,.09,0,.2-.1.27-.19,2.23-2.56,1.88-17.6,1.13-26.48-.05-.55.36-1.03.91-1.07.55-.06,1.03.36,1.07.91.21,2.44,1.9,23.93-1.62,27.95-.59.67-1.23.84-1.67.86-.08,0-.16,0-.25,0Z" />
    <path class="cls-5"
      d="M149.35,169.81c-.52,0-1-.19-1.43-.55-1.89-1.63-2.63-7.4-2.34-18.15.01-.39.02-.65.02-.76-.04-.5.31-.96.81-1.06.55-.1,1.06.26,1.16.8.03.14.02.21,0,1.07-.36,13.37,1.04,16.05,1.66,16.59.09.08.12.07.17.06,1.64-.42,2.45-11.86,1.74-24.47-.03-.55.39-1.02.94-1.05.55-.03,1.02.39,1.05.94.44,7.72.98,25.77-3.38,26.54-.13.02-.26.03-.39.03Z" />
    <path class="cls-5"
      d="M37.02,132.47c-.94,0-1.78-.38-2.5-1.12-3.07-3.15-3.47-13.15-3.27-20.98,0-.24.01-.4.01-.47,0-.55.45-.99.99-.99s.99.45.99.99c0,.09,0,.27-.01.53-.38,14.73,1.76,18.57,2.7,19.54.45.46.83.52,1.07.52.18,0,.42-.04.71-.37,2.37-2.74,1.48-15.95.36-23.64-.08-.54.3-1.05.84-1.13.54-.08,1.05.3,1.13.84.31,2.13,2.92,20.9-.83,25.23-.6.69-1.36,1.06-2.21,1.06Z" />
    <path class="cls-5"
      d="M113.39,120.06c-4.71,0-5.6-8.22-5.63-8.58-.05-.55.34-1.03.89-1.09.54-.06,1.03.34,1.09.89.19,1.84,1.32,7.03,3.91,6.77.78-.04,1.37-.34,1.86-.92,1.82-2.16,1.62-7.5,1.39-9.37-.07-.55.32-1.04.87-1.11.55-.07,1.04.32,1.11.87.04.31.9,7.62-1.84,10.89-.85,1.01-1.94,1.55-3.24,1.62-.14.01-.27.02-.4.02Z" />
    <path class="cls-5"
      d="M121.29,116.11c-.71,0-1.7-.33-2.54-1.82-.95-1.68-2.06-6.4-1.54-7.19.3-.46.92-.58,1.38-.28.3.2.46.54.44.87.05.99.74,5.16,1.93,6.25.2.18.3.18.35.17.12,0,.27-.04.44-.23.75-.84.91-3.25.83-4.58-.03-.55.38-1.02.93-1.05.55-.03,1.02.38,1.05.93.03.44.22,4.31-1.33,6.03-.49.55-1.12.85-1.83.89-.03,0-.07,0-.1,0Z" />
    <path class="cls-5"
      d="M43.49,174.16c-.72,0-1.37-.24-1.91-.72-1.65-1.45-1.89-4.8-1.79-7.35,0-.55.45-1.03,1-1.03s1,.41,1,.96v.15c-.11,2.87.32,5.09,1.11,5.79.16.14.38.27.83.2,2.57-.43,2.05-5.98,2.04-6.03-.06-.55.34-1.04.88-1.1.54-.06,1.04.33,1.1.88.03.3.76,7.47-3.69,8.21-.19.03-.38.05-.56.05Z" />
    <path class="cls-5"
      d="M70.66,157.69c-.13,0-.27-.05-.37-.16l-3.4-3.71c-.19-.2-.17-.52.03-.7.2-.19.52-.17.7.03l3.4,3.71c.19.2.17.52-.03.7-.1.09-.22.13-.34.13Z" />
    <path class="cls-5"
      d="M71.9,156.15c-.14,0-.28-.06-.38-.18l-2.94-3.46c-.18-.21-.15-.52.06-.7.21-.18.52-.15.7.06l2.94,3.46c.18.21.15.52-.06.7-.09.08-.21.12-.32.12Z" />
    <path class="cls-5" d="M123.8,153.1c-.27,0-.5-.22-.5-.5v-3.24c0-.27.22-.5.5-.5s.5.22.5.5v3.24c0,.27-.22.5-.5.5Z" />
    <path class="cls-5"
      d="M122.04,152.66c-.27,0-.5-.22-.5-.5v-2.31c0-.27.22-.5.5-.5s.5.22.5.5v2.31c0,.27-.22.5-.5.5Z" />
    <path class="cls-5" d="M43.3,111.34c-.27,0-.5-.22-.5-.5v-3.02c0-.27.22-.5.5-.5s.5.22.5.5v3.02c0,.27-.22.5-.5.5Z" />
    <path class="cls-5" d="M44.94,111.16c-.27,0-.5-.22-.5-.5v-1.79c0-.27.22-.5.5-.5s.5.22.5.5v1.79c0,.27-.22.5-.5.5Z" />
    <path class="cls-5"
      d="M45.16,96.37c-.27,0-.49-.22-.5-.49-.04-3.6,0-3.74.01-3.81.07-.27.34-.43.6-.36.25.06.41.31.37.56-.02.24-.01,2.02,0,3.6,0,.27-.22.5-.49.5h0Z" />
    <path class="cls-5" d="M46.69,95.4c-.27,0-.5-.22-.5-.5v-2.46c0-.27.22-.5.5-.5s.5.22.5.5v2.46c0,.27-.22.5-.5.5Z" />
    <path class="cls-5" d="M43.3,95.89c-.27,0-.5-.22-.5-.5v-3.46c0-.27.22-.5.5-.5s.5.22.5.5v3.46c0,.27-.22.5-.5.5Z" />
    <path class="cls-5"
      d="M78.55,116.5c-.13,0-.25-.05-.35-.14-.2-.19-.2-.51,0-.7l2.17-2.2c.19-.2.51-.2.7,0,.2.19.2.51,0,.7l-2.17,2.2c-.1.1-.23.15-.35.15Z" />
    <path class="cls-5"
      d="M80.35,117.17c-.13,0-.25-.05-.35-.15-.19-.19-.19-.51,0-.7.33-.33.72-.76.84-.92.05-.16.17-.3.35-.34.26-.07.54.08.61.35.07.25.11.41-1.09,1.62-.1.1-.22.15-.35.15Z" />
    <path class="cls-5"
      d="M74.28,117.43c-.12,0-.25-.05-.34-.14-.2-.19-.21-.5-.02-.7l1.01-1.07c.19-.2.5-.21.7-.02.2.19.21.5.02.7l-1.01,1.07c-.1.1-.23.16-.36.16Z" />
    <path class="cls-5"
      d="M76.29,115.31c-.12,0-.25-.05-.34-.14-.2-.19-.21-.5-.02-.7l2.2-2.32c.19-.2.5-.21.7-.02.2.19.21.5.02.7l-2.2,2.32c-.1.1-.23.16-.36.16Z" />
    <path class="cls-5"
      d="M63.01,122.87c-.14,0-.29-.06-.38-.18-.17-.21-.14-.52.07-.7l2.07-1.7c.21-.17.53-.14.7.07.17.21.14.52-.07.7l-2.07,1.7c-.09.08-.2.11-.32.11Z" />
    <path class="cls-5"
      d="M64.54,124.07c-.14,0-.28-.06-.37-.17-.18-.21-.16-.52.05-.7l2.33-2.05c.21-.18.52-.16.7.05.18.21.16.52-.05.7l-2.33,2.05c-.09.08-.21.12-.33.12Z" />
    <path class="cls-5"
      d="M143.33,136.61s-.06,0-.09,0l-5.61-1.01c-.27-.05-.45-.31-.4-.58.05-.27.3-.45.58-.4l5.61,1.01c.27.05.45.31.4.58-.04.24-.25.41-.49.41Z" />
    <path class="cls-5"
      d="M142.06,134.81s-.05,0-.08,0l-3.88-.62c-.27-.04-.46-.3-.41-.57.04-.27.3-.46.57-.41l3.88.62c.27.04.46.3.41.57-.04.24-.25.42-.49.42Z" />
    <path class="cls-5"
      d="M151.56,127.73c-.26,0-.48-.2-.5-.47-.02-.27.19-.51.47-.53l5.26-.32c.27-.01.51.19.53.47.02.27-.19.51-.47.53l-5.26.32s-.02,0-.03,0Z" />
    <path class="cls-5"
      d="M153.34,126.35c-.26,0-.48-.2-.5-.46-.02-.27.19-.51.46-.53l3.27-.23c.28-.03.51.19.53.46.02.27-.19.51-.46.53l-3.27.23s-.02,0-.04,0Z" />
    <path class="cls-5"
      d="M150.66,124.78c-.27,0-.49-.21-.5-.48-.01-.27.2-.51.48-.52l5.7-.23c.26-.03.51.2.52.48.01.27-.2.51-.48.52l-5.7.23s-.01,0-.02,0Z" />
    <path class="cls-5"
      d="M24.73,127.98s-.06,0-.08,0l-3.93-.66c-.27-.05-.45-.3-.41-.57.05-.27.3-.45.57-.41l3.93.66c.27.05.45.3.41.57-.04.24-.25.41-.49.41Z" />
    <path class="cls-5"
      d="M24.73,129.84s-.06,0-.09,0l-2.92-.52c-.27-.05-.45-.31-.4-.58.05-.27.3-.45.58-.4l2.92.52c.27.05.45.31.4.58-.04.24-.25.41-.49.41Z" />
    <path class="cls-5"
      d="M7.19,138.98c-.25,0-.46-.18-.49-.43-.04-.27.16-.52.43-.56l3.4-.44c.27-.04.52.16.56.43.04.27-.16.52-.43.56l-3.4.44s-.04,0-.06,0Z" />
    <path class="cls-5"
      d="M6.17,136.9c-.24,0-.46-.18-.49-.43-.04-.27.15-.52.42-.56l2.43-.35c.27-.05.52.15.56.42.04.27-.15.52-.42.56l-2.43.35s-.05,0-.07,0Z" />
    <path class="cls-5" d="M117.56,97.61c-.27,0-.5-.22-.5-.5v-5.16c0-.27.22-.5.5-.5s.5.22.5.5v5.16c0,.27-.22.5-.5.5Z" />
    <path class="cls-5"
      d="M119.55,95.84c-.27,0-.49-.22-.5-.49-.02-1.19-.05-3.22,0-3.49.05-.27.32-.45.58-.39.27.05.44.31.39.57-.03.22-.02,1.85,0,3.29,0,.27-.21.5-.49.51h0Z" />
    <path class="cls-5"
      d="M114.81,99.71c-.26,0-.48-.2-.5-.47l-.06-1.13c-.02-.27.19-.51.47-.52.26-.02.51.19.52.47l.06,1.13c.02.27-.19.51-.47.52,0,0-.02,0-.03,0Z" />
    <path class="cls-5"
      d="M114.64,96.75c-.26,0-.48-.2-.5-.47l-.21-3.82c-.02-.27.19-.51.47-.52.27-.02.51.19.52.47l.21,3.82c.02.27-.19.51-.47.52,0,0-.02,0-.03,0Z" />
    <path class="cls-7"
      d="M92.6,79.88c-2.12,6.52-8.75,10.22-14.8,8.25-3.47-1.13-6.83-4.02-6.83-4.02l12.77-21.14s3.6,2.28,4.4,2.82c4.27,2.86,6.24,8.6,4.46,14.09Z" />
    <path class="cls-5"
      d="M81.14,89.14c-1.18,0-2.35-.18-3.49-.56-3.52-1.15-6.85-3.99-6.99-4.11-.18-.15-.22-.41-.1-.61l12.77-21.14c.07-.11.17-.19.3-.22.12-.03.25,0,.36.06.15.09,3.61,2.29,4.41,2.83,4.55,3.04,6.46,9.06,4.64,14.63h0c-1.06,3.27-3.25,5.96-6.15,7.58-1.82,1.02-3.79,1.53-5.76,1.53ZM71.59,84.01c.9.72,3.62,2.78,6.36,3.67,2.8.91,5.82.59,8.5-.9,2.69-1.5,4.72-4,5.71-7.04l.45.15-.45-.15c1.68-5.17-.07-10.74-4.27-13.55-.63-.42-3.02-1.94-3.99-2.55l-12.31,20.37Z" />
    <path class="cls-6"
      d="M88.93,77.51c-2.12,6.52-8.75,10.22-14.8,8.25-6.05-1.97-9.23-8.86-7.11-15.38,2.12-6.52,8.75-10.22,14.8-8.25,6.05,1.97,9.23,8.86,7.11,15.38Z" />
    <path class="cls-1"
      d="M81.45,62.04c-5.95-1.71-12.36,1.95-14.44,8.34-.87,2.68-.84,5.42-.08,7.86,1.21-7.93,6.63-14.98,14.52-16.2Z" />
    <path class="cls-5"
      d="M77.47,86.77c-1.18,0-2.35-.18-3.49-.56-6.29-2.05-9.62-9.21-7.41-15.98,1.06-3.27,3.25-5.96,6.15-7.58,2.91-1.62,6.2-1.97,9.25-.97,3.05.99,5.51,3.21,6.9,6.23,1.39,3.01,1.57,6.47.51,9.74h0c-1.06,3.27-3.25,5.96-6.15,7.58-1.82,1.01-3.79,1.53-5.76,1.53ZM78.47,62.08c-1.81,0-3.62.47-5.3,1.41-2.69,1.5-4.72,4-5.71,7.04-2.04,6.26,1.01,12.9,6.81,14.78,2.8.91,5.82.59,8.5-.9,2.69-1.5,4.72-4,5.71-7.04h0c.99-3.04.82-6.26-.47-9.05-1.29-2.78-3.54-4.82-6.34-5.73-1.05-.34-2.12-.51-3.2-.51Z" />
    <path class="cls-5"
      d="M74.37,70.31c-.42,1.3-1.48,2.11-2.37,1.83-.89-.29-1.27-1.58-.84-2.87.42-1.3,1.48-2.11,2.37-1.83.89.29,1.27,1.58.84,2.87Z" />
    <path class="cls-5"
      d="M84.2,73.14c-.42,1.3-1.48,2.11-2.37,1.83-.89-.29-1.27-1.58-.84-2.87.42-1.3,1.48-2.11,2.37-1.83.89.29,1.27,1.58.84,2.87Z" />
    <path class="cls-5"
      d="M73.36,74.28l5.33,1.73c.24.08.34.36.19.57-.59.85-2.08,2.63-3.98,2.01-1.9-.62-2.06-2.94-2.03-3.97,0-.25.25-.43.49-.35Z" />
    <path class="cls-5"
      d="M88.73,86.22c-.09,0-.18-.03-.27-.08l-2.08-1.42c-.22-.15-.27-.44-.12-.66.15-.22.44-.27.66-.12l2.08,1.42c.22.15.27.44.12.66-.09.13-.24.21-.39.21Z" />
    <path class="cls-5"
      d="M88.19,83.26c-.09,0-.19-.03-.27-.08l-1.54-1.06c-.22-.15-.27-.44-.12-.66.15-.22.44-.27.66-.12l1.54,1.06c.22.15.27.44.12.66-.09.13-.24.21-.39.21Z" />
    <path class="cls-5"
      d="M88.73,81.52c-.09,0-.19-.03-.27-.08l-1.04-.72c-.22-.15-.27-.44-.12-.66.15-.22.44-.27.66-.12l1.04.72c.22.15.27.44.12.66-.09.13-.24.2-.39.2Z" />
    <path class="cls-5"
      d="M85.64,88.18c-.11,0-.22-.04-.31-.12-1.4-1.21-1.5-1.36-1.54-1.41-.15-.22-.09-.51.13-.66.21-.14.5-.09.65.11.11.13.8.74,1.38,1.24.2.17.22.47.05.67-.09.11-.23.16-.36.16Z" />
    <path class="cls-5"
      d="M83.88,88.78c-.09,0-.19-.03-.27-.08l-1.29-.9c-.21-.15-.27-.45-.12-.66.15-.22.45-.27.66-.12l1.29.9c.21.15.27.45.12.66-.09.13-.24.2-.39.2Z" />
    <path class="cls-5"
      d="M93.13,74.42c-.08,0-.17-.02-.25-.07l-2.16-1.33c-.22-.14-.29-.43-.16-.65.14-.22.43-.29.65-.16l2.16,1.33c.22.14.29.43.16.65-.09.15-.25.23-.4.23Z" />
    <path class="cls-5"
      d="M92.7,72.71c-.09,0-.17-.02-.25-.07l-1.2-.74c-.22-.14-.29-.43-.15-.65.14-.22.43-.29.65-.15l1.2.74c.22.14.29.43.15.65-.09.15-.24.22-.4.22Z" />
    <path class="cls-2"
      d="M30.72,88.13c-1.5,0-3.56-.62-4.81-3.56-.78-1.83-1.17-4.4-1.17-7.64,0-4.48.78-10.42,2.15-16.3,2.13-9.17,3.24-9.17,3.84-9.17s1.71,0,3.84,9.17c1.36,5.88,2.15,11.83,2.15,16.3,0,3.24-.39,5.81-1.17,7.64-1.25,2.94-3.31,3.56-4.81,3.56Z" />
    <path class="cls-5"
      d="M30.72,52.44c1.55,0,10.4,34.69,0,34.69s-1.55-34.69,0-34.69h0ZM30.72,50.45c-1.67,0-2.35,1.62-3.08,3.73-.56,1.63-1.17,3.84-1.73,6.22-1.38,5.95-2.17,11.98-2.17,16.53,0,3.38.42,6.08,1.25,8.03,1.14,2.68,3.18,4.16,5.73,4.16s4.58-1.48,5.73-4.16c.83-1.95,1.25-4.66,1.25-8.03,0-4.55-.79-10.58-2.17-16.53-.55-2.37-1.16-4.58-1.73-6.22-.73-2.11-1.41-3.73-3.08-3.73h0Z" />
    <path class="cls-1"
      d="M30.56,52.54c-1.92,2-9.92,34.59.16,34.59,1.41,0,2.46-.66,3.23-1.77-4.79-9.64-5.31-21.94-3.39-32.83Z" />
    <path class="cls-2"
      d="M146.5,76.51c-2.1,0-3.74-.91-4.75-2.63-.82-1.39-1.23-3.32-1.23-5.75,0-6.28,3.64-18.7,5.98-18.7s5.98,12.43,5.98,18.7c0,2.43-.41,4.36-1.23,5.75-1.01,1.72-2.65,2.63-4.75,2.63Z" />
    <path class="cls-5"
      d="M146.5,50.43c1.55,0,10.4,25.09,0,25.09s-1.55-25.09,0-25.09h0ZM146.5,48.44c-.94,0-2.37,0-4.76,7.46-.67,2.08-2.22,7.43-2.22,12.24,0,2.61.46,4.71,1.37,6.25,1.2,2.04,3.14,3.12,5.61,3.12s4.41-1.08,5.61-3.12c.91-1.54,1.37-3.65,1.37-6.25,0-4.81-1.55-10.16-2.22-12.24-2.39-7.46-3.82-7.46-4.76-7.46h0Z" />
    <path class="cls-1"
      d="M146.33,50.5c-1.92,1.44-9.92,25.02.16,25.02,1.41,0,2.46-.48,3.23-1.28-4.79-6.97-5.31-15.87-3.39-23.74Z" />
    <path class="cls-2"
      d="M112.96,59.37c-1.55,0-3.67-.65-4.95-3.73-.8-1.92-1.2-4.63-1.2-8.05,0-6.46,1.4-13.79,2.24-17.58,2.18-9.89,3.13-9.89,3.76-9.89s1.59,0,3.87,10.05c.87,3.86,2.34,11.3,2.34,17.76,0,3.33-.4,5.96-1.19,7.82-1.26,2.99-3.35,3.61-4.87,3.61Z" />
    <path class="cls-5"
      d="M112.81,21.12c1.2,0,11.03,37.26.15,37.26s-1.35-37.26-.15-37.26h0ZM112.81,19.13c-1.77,0-2.31,1.76-3.01,3.99-.56,1.8-1.18,4.18-1.73,6.69-.84,3.83-2.26,11.24-2.26,17.79,0,3.55.43,6.39,1.28,8.43,1.57,3.78,4.35,4.34,5.87,4.34,2.58,0,4.64-1.5,5.79-4.22.84-1.99,1.27-4.75,1.27-8.21,0-6.56-1.48-14.08-2.37-17.98-.58-2.54-1.22-4.96-1.8-6.8-.72-2.25-1.28-4.03-3.04-4.03h0Z" />
    <path class="cls-1"
      d="M111.93,23.01c-2.53,7.56-8.37,35.37,1.03,35.37.47,0,.88-.09,1.28-.22-3.96-10.91-3.82-23.26-2.31-35.14Z" />
    <path class="cls-2"
      d="M46.77,39.98c-2.45,0-4.29-.92-5.48-2.74-.97-1.48-1.46-3.56-1.46-6.16,0-6.97,4.36-20.15,6.66-20.15s7.05,13.63,7.05,20.54c0,2.5-.48,4.49-1.44,5.91-1.16,1.73-2.96,2.6-5.34,2.6Z" />
    <path class="cls-5"
      d="M46.49,11.93c1.38,0,12.75,27.06.27,27.06s-1.65-27.06-.27-27.06h0ZM46.49,9.94c-.98,0-2.31,0-5.05,7.92-.98,2.83-2.61,8.31-2.61,13.22,0,2.8.55,5.06,1.62,6.71.95,1.45,2.81,3.19,6.31,3.19s5.23-1.65,6.17-3.04c1.07-1.59,1.61-3.76,1.61-6.46,0-4.93-1.76-10.54-2.81-13.45-2.92-8.08-4.31-8.08-5.24-8.08h0Z" />
    <path class="cls-1"
      d="M46.37,11.99c-1.77,1.26-11.77,27,.4,27,1.3,0,2.33-.31,3.15-.83-3.97-7.88-5.37-17.14-3.54-26.17Z" />
    <path class="cls-3"
      d="M61.95,32.74s.56,21.93-9.06,23.59c6.89,1.08,9.63,6.92,10.11,16.95-.48-9.15,1.28-16.03,9.11-18.45-10.57-.75-10.17-22.08-10.17-22.08Z" />
    <path class="cls-1"
      d="M61.95,32.74s0,.36,0,.99c-.01-.63,0-.99,0-.99h0ZM61.96,33.73c.08,4.21.97,20.45,10.16,21.09-7.75,2.39-9.56,9.16-9.12,18.17-.52-9.86-3.28-15.61-10.1-16.67,8.38-1.45,9.03-18.3,9.06-22.6h0ZM63,73c0,.09,0,.18.01.27,0-.09,0-.18-.01-.27h0ZM61.95,31.93h0c-.44,0-.8.36-.81.8,0,.02,0,.38,0,1.01-.02,3.43-.54,20.43-8.39,21.79-.39.07-.68.41-.68.81,0,.4.29.74.69.8,5.98.94,8.88,5.84,9.41,15.91v.27c.04.43.4.77.83.77.01,0,.03,0,.04,0,.45-.02.79-.4.77-.85v-.27s-.01,0-.01,0c-.49-10.16,2.07-15.35,8.55-17.36.37-.12.61-.48.57-.87-.04-.39-.36-.69-.75-.72-8.6-.61-9.34-16.98-9.41-20.29,0-.63,0-.99,0-1.01-.01-.44-.37-.79-.81-.79h0Z" />
    <path class="cls-3"
      d="M107.51,21.78s.25,9.74-4.02,10.48c3.06.48,4.28,3.07,4.49,7.53-.21-4.07.57-7.12,4.05-8.2-4.69-.33-4.52-9.81-4.52-9.81Z" />
    <path class="cls-1"
      d="M107.51,21.78s0,.16,0,.44c0-.28,0-.44,0-.44h0ZM107.51,22.22c.03,1.87.43,9.08,4.52,9.37-3.44,1.06-4.25,4.07-4.05,8.07-.23-4.38-1.46-6.93-4.49-7.41,3.72-.64,4.01-8.13,4.03-10.04h0ZM107.97,39.67s0,.08,0,.12c0-.04,0-.08,0-.12h0ZM107.51,21.42h0c-.2,0-.36.16-.36.36,0,0,0,.17,0,.45-.01,1.52-.24,9.08-3.73,9.68-.17.03-.3.18-.3.36,0,.18.13.33.31.35,2.66.42,3.95,2.6,4.18,7.07v.12c.02.19.18.34.37.34,0,0,.01,0,.02,0,.2-.01.35-.18.34-.38v-.12s0,0,0,0c-.22-4.52.92-6.82,3.8-7.71.17-.05.27-.21.25-.39-.02-.17-.16-.31-.33-.32-3.82-.27-4.15-7.54-4.18-9.01,0-.28,0-.44,0-.45,0-.2-.17-.35-.36-.35h0Z" />
    <path class="cls-3"
      d="M142.17,53.37s.39,15.42-6.37,16.58c4.84.76,6.77,4.87,7.11,11.92-.34-6.44.9-11.27,6.41-12.97-7.43-.52-7.15-15.53-7.15-15.53Z" />
    <path class="cls-1"
      d="M142.17,53.37s0,.25,0,.7c0-.44,0-.7,0-.7h0ZM142.17,54.06c.05,2.96.68,14.38,7.15,14.83-5.45,1.68-6.72,6.44-6.42,12.78-.37-6.93-2.3-10.97-7.1-11.72,5.89-1.02,6.35-12.87,6.37-15.89h0ZM142.9,81.67c0,.06,0,.13,0,.19,0-.06,0-.13,0-.19h0ZM142.17,52.79h0c-.31,0-.56.25-.57.56,0,.01,0,.27,0,.71-.02,2.41-.38,14.37-5.9,15.32-.28.05-.48.29-.48.57,0,.28.21.52.48.56,4.2.66,6.25,4.11,6.62,11.19v.19c.03.31.28.54.58.54,0,0,.02,0,.03,0,.32-.02.56-.28.54-.6v-.19s0,0,0,0c-.34-7.15,1.45-10.8,6.01-12.21.26-.08.43-.34.4-.61-.03-.27-.25-.49-.53-.51-6.05-.43-6.57-11.94-6.61-14.27,0-.44,0-.7,0-.71,0-.31-.26-.56-.57-.56h0Z" />
    <path class="cls-3"
      d="M24.26,65.53s.34,13.29-5.49,14.3c4.18.65,5.84,4.2,6.13,10.28-.29-5.55.78-9.72,5.52-11.19-6.41-.45-6.17-13.39-6.17-13.39Z" />
    <path class="cls-1"
      d="M24.26,65.53s0,.22,0,.6c0-.38,0-.6,0-.6h0ZM24.27,66.13c.05,2.55.59,12.4,6.16,12.79-4.7,1.45-5.8,5.55-5.53,11.02-.32-5.98-1.99-9.46-6.12-10.11,5.08-.88,5.48-11.1,5.49-13.7h0ZM24.9,89.94c0,.06,0,.11,0,.17,0-.06,0-.11,0-.17h0ZM24.26,65.03h0c-.27,0-.49.22-.49.48,0,0,0,.23,0,.61-.01,2.08-.33,12.39-5.08,13.21-.24.04-.41.25-.41.49,0,.24.18.45.42.48,3.62.57,5.39,3.54,5.71,9.65v.17c.02.26.24.47.5.47,0,0,.02,0,.03,0,.27-.01.48-.24.47-.52v-.17s0,0,0,0c-.3-6.16,1.25-9.31,5.19-10.52.23-.07.37-.29.34-.53-.03-.24-.22-.42-.46-.44-5.22-.37-5.67-10.3-5.7-12.3,0-.38,0-.6,0-.61,0-.27-.23-.48-.49-.48h0Z" />
  </g>
</svg>