<?xml version="1.0" encoding="UTF-8"?>
<svg id="Capa_2" xmlns="http://www.w3.org/2000/svg" xmlns:xlink="http://www.w3.org/1999/xlink"
  viewBox="0 0 204.06 186.67">
  <defs>
    <style>
      .cls-1 {
        fill: aqua;
      }

      .cls-2 {
        fill: #29abe2;
      }

      .cls-3 {
        fill: #fff;
      }

      .cls-4 {
        filter: none;
      }

      .cls-5 {
        fill: #862291;
      }

      .cls-6 {
        fill: #1b1464;
      }

      .cls-7 {
        fill: #fcee21;
      }

      .cls-8 {
        fill: #ed1e79;
      }
    </style>
  </defs>
  <g id="_0">
    <g class="cls-4">
      <path class="cls-3"
        d="M200.64,4.48h0c-2.54-2.85-6.19-4.48-10.02-4.48h-.3C158.96.71,54.78,3.3,30.99,6.95c-2.19.34-4.21,1.41-5.69,3.04L2.11,28.62C.68,29.77-.1,31.55.01,33.38c2.43,39.09,3.83,60.29,4.14,62.98.02.24.05.47.11.69.27,1.22,3.78,20.89,6.95,38.78.12.66.36,1.3.7,1.89-.72,1.09-1.05,2.41-.9,3.72l4.28,39.83c.31,2.88,2.72,5.05,5.62,5.05h9.71c.67,0,1.33-.12,1.95-.34.62.23,1.27.34,1.95.34h9.55c.87,0,1.73-.2,2.51-.59.78.39,1.63.59,2.49.59h7.74c1.03,0,2.04-.29,2.92-.82.88.53,1.9.82,2.94.82h7.54c.41,0,.82-.04,1.22-.13.4.09.81.13,1.23.13h8.06c.51,0,1.02-.07,1.5-.2.49.13.99.2,1.51.2h7.85c.54,0,1.07-.08,1.58-.23.51.15,1.04.23,1.58.23h7.78c.69,0,1.36-.12,1.99-.36.64.24,1.3.36,1.99.36h7.78c.53,0,1.06-.08,1.58-.23.52.15,1.05.23,1.58.23h7.69c.53,0,1.06-.08,1.58-.23.52.15,1.05.23,1.58.23h7.78c.69,0,1.36-.12,1.99-.36.64.24,1.3.36,1.99.36h7.78c1.59,0,3.07-.66,4.12-1.79,2.85,1.86,5.94,2.16,7.62,2.16,1.91,0,3.69-.34,5.3-1,.8.42,1.7.64,2.62.64h3.19c.46,0,.91-.06,1.35-.17.42.1.84.14,1.27.14h8.1c3.12,0,5.65-2.54,5.65-5.65v-6.74c0-1.47-.57-2.87-1.58-3.92l1.58-28.84c.06-1.17-.24-2.33-.88-3.33,2.71-2.2,4.46-5.37,4.85-8.85l12.94-114c.43-3.81-.78-7.62-3.33-10.48Z" />
      <path class="cls-7"
        d="M34.49,181.32c-.34,0-.62-.26-.66-.59l-1.32-12.68-1.26,12.68c-.03.34-.32.6-.66.6h-9.71c-.34,0-.62-.25-.66-.59l-4.28-39.83c-.02-.19.04-.37.17-.51.13-.14.3-.22.49-.22h7.78c.34,0,.63.26.66.6l1.54,17.67,1.57-17.67c.03-.34.32-.6.66-.6h7.42c.34,0,.63.26.66.61l1.47,17.35,1.47-17.35c.03-.34.32-.61.66-.61h7.87c.19,0,.37.08.49.22.13.14.19.33.17.51l-4.34,39.83c-.04.34-.32.59-.66.59h-9.55Z" />
      <path class="cls-6"
        d="M48.39,140.83h0,0ZM48.39,140.83l-4.34,39.83h-9.55l-1.99-19.17-1.9,19.17h-9.71l-4.28-39.83h7.78l2.2,25.14,2.24-25.14h7.42l2.13,25.14,2.13-25.14h7.87ZM48.39,139.51h-7.88c-.69,0-1.26.53-1.32,1.21l-.81,9.55-.81-9.55c-.06-.69-.63-1.21-1.32-1.21h-7.42c-.69,0-1.26.52-1.32,1.21l-.91,10.2-.89-10.19c-.06-.68-.63-1.21-1.32-1.21h-7.78c-.38,0-.73.16-.98.44-.25.28-.37.65-.33,1.03l4.28,39.83c.07.67.64,1.18,1.32,1.18h9.71c.68,0,1.25-.52,1.32-1.19l.61-6.19.64,6.2c.07.67.64,1.19,1.32,1.19h9.55c.68,0,1.24-.51,1.32-1.18l4.34-39.76c.01-.07.02-.14.02-.21,0-.73-.59-1.32-1.32-1.32h0ZM48.39,142.16h0,0Z" />
      <path class="cls-7"
        d="M62.64,181.32c-.34,0-.63-.26-.66-.6l-.51-5.82h-3.58l-.45,5.82c-.03.34-.31.61-.66.61h-7.74c-.19,0-.36-.08-.49-.22-.13-.14-.19-.32-.17-.51l3.85-39.83c.03-.34.32-.6.66-.6h13.51c.34,0,.63.26.66.6l3.78,39.83c.02.19-.04.37-.17.51-.13.14-.3.22-.49.22h-7.54ZM60.75,167.21l-1.17-13.59-1.02,13.59h2.19Z" />
      <path class="cls-6"
        d="M66.4,140.83l3.78,39.83h-7.54l-.57-6.43h-4.8l-.5,6.43h-7.74l3.85-39.83h13.51ZM57.85,167.87h3.62l-1.74-20.25h-.36l-1.52,20.25h0ZM66.4,139.51h-13.51c-.68,0-1.25.52-1.32,1.2l-3.85,39.83c-.04.37.09.74.34,1.02.25.28.61.43.98.43h7.74c.69,0,1.27-.53,1.32-1.22l.4-5.21h2.36l.46,5.22c.06.68.63,1.21,1.32,1.21h7.54c.37,0,.73-.16.98-.43.25-.28.37-.64.34-1.02l-3.78-39.83c-.06-.68-.64-1.2-1.32-1.2h0ZM59.27,166.55l.35-4.67.4,4.67h-.75Z" />
      <path class="cls-7"
        d="M83.69,181.32c-.37,0-.66-.3-.66-.66v-15.59c0-1.01-.2-1.48-.39-1.59-.2-.12-.58-.25-1.3-.31v17.49c0,.37-.3.66-.66.66h-8.06c-.37,0-.66-.3-.66-.66v-39.83c0-.37.3-.66.66-.66h12.22c2.19,0,3.9.52,5.06,1.56,1.14,1.02,1.92,2.45,2.3,4.25.36,1.71.55,3.73.55,6.01s-.3,4.09-.88,5.46c-.42,1-1.1,1.79-2.02,2.37.66.39,1.17.93,1.52,1.63.55,1.08.83,2.47.83,4.14v15.07c0,.37-.3.66-.66.66h-7.85ZM82.65,154.93c.86,0,.99-1.84.99-2.94,0-1.89-.18-2.54-.29-2.76-.09-.18-.25-.36-.77-.36h-1.19v6.05h1.26Z" />
      <path class="cls-6"
        d="M84.84,140.83c2.04,0,3.58.46,4.62,1.39,1.04.93,1.74,2.23,2.09,3.89.35,1.67.53,3.62.53,5.87s-.28,3.91-.83,5.2c-.55,1.3-1.59,2.2-3.11,2.69,1.25.26,2.13.88,2.64,1.87.51.99.76,2.27.76,3.84v15.07h-7.85v-15.59c0-1.16-.24-1.88-.71-2.16-.48-.28-1.24-.42-2.3-.42v18.17h-8.06v-39.83h12.22ZM80.72,155.59h1.92c1.1,0,1.65-1.2,1.65-3.6,0-1.55-.12-2.57-.36-3.05-.24-.48-.69-.72-1.36-.72h-1.86v7.38h0ZM84.84,139.51h-12.22c-.73,0-1.32.59-1.32,1.32v39.83c0,.73.59,1.32,1.32,1.32h8.06c.73,0,1.32-.59,1.32-1.32v-16.72c.1.03.18.05.23.07.04.1.13.4.13,1.06v15.59c0,.73.59,1.32,1.32,1.32h7.85c.73,0,1.32-.59,1.32-1.32v-15.07c0-1.77-.3-3.27-.9-4.44-.26-.51-.6-.95-1.01-1.32.66-.58,1.17-1.28,1.52-2.12.63-1.48.93-3.35.93-5.72s-.19-4.4-.56-6.15c-.41-1.94-1.26-3.49-2.51-4.61-1.29-1.15-3.14-1.73-5.5-1.73h0ZM82.05,149.53h.53c.09,0,.15,0,.18.02.05.13.21.69.21,2.44,0,1.63-.28,2.15-.36,2.27h-.57s0-4.73,0-4.73h0Z" />
      <path class="cls-7"
        d="M106.47,181.32c-.32,0-.59-.22-.65-.53l-2.67-13.36v13.23c0,.37-.3.66-.66.66h-7.78c-.37,0-.66-.3-.66-.66v-39.83c0-.37.3-.66.66-.66h8.19c.32,0,.59.23.65.54l2.35,12.25v-12.13c0-.37.3-.66.66-.66h7.69c.37,0,.66.3.66.66v39.83c0,.37-.3.66-.66.66h-7.78Z" />
      <path class="cls-6"
        d="M114.26,140.83v39.83h-7.78l-3.98-19.91v19.91h-7.78v-39.83h8.19l3.67,19.08v-19.08h7.69ZM114.26,139.51h-7.69c-.73,0-1.32.59-1.32,1.32v5.18l-1.04-5.43c-.12-.62-.66-1.07-1.3-1.07h-8.19c-.73,0-1.32.59-1.32,1.32v39.83c0,.73.59,1.32,1.32,1.32h7.78c.73,0,1.32-.59,1.32-1.32v-6.55l1.36,6.81c.12.62.67,1.06,1.3,1.06h7.78c.73,0,1.32-.59,1.32-1.32v-39.83c0-.73-.59-1.32-1.32-1.32h0Z" />
      <rect class="cls-7" x="116.77" y="140.17" width="9.02" height="41.15" rx=".66" ry=".66" />
      <path class="cls-6"
        d="M125.12,140.83v39.83h-7.69v-39.83h7.69ZM125.12,139.51h-7.69c-.73,0-1.32.59-1.32,1.32v39.83c0,.73.59,1.32,1.32,1.32h7.69c.73,0,1.32-.59,1.32-1.32v-39.83c0-.73-.59-1.32-1.32-1.32h0Z" />
      <path class="cls-7"
        d="M140.06,181.32c-.32,0-.59-.22-.65-.53l-2.67-13.36v13.23c0,.37-.3.66-.66.66h-7.78c-.37,0-.66-.3-.66-.66v-39.83c0-.37.3-.66.66-.66h8.19c.32,0,.59.23.65.54l2.35,12.25v-12.13c0-.37.3-.66.66-.66h7.69c.37,0,.66.3.66.66v39.83c0,.37-.3.66-.66.66h-7.78Z" />
      <path class="cls-6"
        d="M147.84,140.83v39.83h-7.78l-3.98-19.91v19.91h-7.78v-39.83h8.19l3.67,19.08v-19.08h7.69ZM147.84,139.51h-7.69c-.73,0-1.32.59-1.32,1.32v5.18l-1.04-5.43c-.12-.62-.66-1.07-1.3-1.07h-8.19c-.73,0-1.32.59-1.32,1.32v39.83c0,.73.59,1.32,1.32,1.32h7.78c.73,0,1.32-.59,1.32-1.32v-6.55l1.36,6.81c.12.62.67,1.06,1.3,1.06h7.78c.73,0,1.32-.59,1.32-1.32v-39.83c0-.73-.59-1.32-1.32-1.32h0Z" />
      <path class="cls-7"
        d="M159.58,181.68c-6.1,0-9.19-4.33-9.19-12.88v-17.18c0-7.84,3.51-11.82,10.44-11.82,2.82,0,5.03.59,6.58,1.75,1.55,1.17,2.63,2.88,3.21,5.08.55,2.11.84,4.71.84,7.73,0,.37-.3.66-.66.66h-7.78c-.37,0-.66-.3-.66-.66v-3.53c0-.77-.1-1.41-.3-1.91-.1-.24-.26-.46-.85-.46-.96,0-1.15.4-1.22.55-.25.53-.38,1.12-.38,1.75v19.3c0,.98.12,1.77.37,2.36.12.3.34.6,1.03.6.73,0,.95-.3,1.07-.6.24-.59.37-1.4.37-2.4v-5.02h-1.47c-.37,0-.66-.3-.66-.66v-6.88c0-.37.3-.66.66-.66h9.73c.37,0,.66.3.66.66v23.19c0,.37-.3.66-.66.66h-3.19c-.27,0-.51-.16-.61-.41l-.88-2.18c-1.51,1.96-3.66,2.96-6.42,2.96Z" />
      <path class="cls-6"
        d="M160.83,140.47c2.68,0,4.74.54,6.18,1.62,1.43,1.08,2.42,2.65,2.96,4.72.54,2.07.81,4.59.81,7.56h-7.78v-3.53c0-.86-.12-1.58-.35-2.16-.23-.58-.72-.87-1.46-.87-.92,0-1.53.31-1.82.93-.29.62-.44,1.3-.44,2.04v19.3c0,1.07.14,1.94.42,2.61.28.67.83,1.01,1.64,1.01s1.41-.34,1.69-1.01c.28-.67.42-1.56.42-2.66v-5.68h-2.13v-6.88h9.73v23.19h-3.19l-1.36-3.35c-1.39,2.47-3.58,3.71-6.56,3.71-5.69,0-8.53-4.07-8.53-12.22v-17.18c0-7.44,3.26-11.16,9.78-11.16h0ZM160.83,139.15c-5.06,0-11.1,2.16-11.1,12.48v17.18c0,11.19,5.36,13.54,9.85,13.54,2.56,0,4.64-.8,6.21-2.37l.48,1.18c.2.5.69.83,1.23.83h3.19c.73,0,1.32-.59,1.32-1.32v-23.19c0-.73-.59-1.32-1.32-1.32h-9.73c-.26,0-.51.08-.71.21v-5.58c0-.54.1-1.03.31-1.47.07-.15.42-.17.63-.17.13,0,.2.02.22.02,0,0,0,.01,0,.02.17.42.25.98.25,1.67v3.53c0,.73.59,1.32,1.32,1.32h7.78c.73,0,1.32-.59,1.32-1.32,0-3.07-.29-5.73-.86-7.89-.62-2.35-1.78-4.18-3.45-5.44-1.66-1.25-4.01-1.88-6.97-1.88h0ZM160.99,172.37c-.34,0-.37-.07-.42-.19-.21-.51-.32-1.21-.32-2.11v-4.61c.21.13.45.21.71.21h.8v4.36c0,.92-.11,1.64-.32,2.15-.04.1-.08.19-.46.19h0Z" />
      <path class="cls-7"
        d="M173.32,181.3c-.37,0-.66-.3-.66-.66v-6.74c0-.37.3-.66.66-.66h8.1c.37,0,.66.3.66.66v6.74c0,.37-.3.66-.66.66h-8.1ZM174.9,170.48c-.35,0-.64-.27-.66-.63l-1.58-28.99c0-.18.06-.36.18-.49.12-.13.3-.21.48-.21h8.1c.18,0,.36.07.48.21.12.13.19.31.18.49l-1.58,28.99c-.02.35-.31.63-.66.63h-4.93Z" />
      <path class="cls-6"
        d="M181.42,140.83l-1.58,28.99h-4.93l-1.58-28.99h8.1ZM181.42,173.89v6.74h-8.1v-6.74h8.1ZM181.42,139.51h-8.1c-.36,0-.71.15-.96.41-.25.26-.38.62-.36.98l1.58,28.99c.04.7.62,1.25,1.32,1.25h4.93c.7,0,1.28-.55,1.32-1.25l1.58-28.99c.02-.36-.11-.72-.36-.98-.25-.26-.6-.41-.96-.41h0ZM181.42,142.16h0,0ZM181.42,172.57h-8.1c-.73,0-1.32.59-1.32,1.32v6.74c0,.73.59,1.32,1.32,1.32h8.1c.73,0,1.32-.59,1.32-1.32v-6.74c0-.73-.59-1.32-1.32-1.32h0Z" />
      <polygon class="cls-8" points="36.26 140.83 28.84 140.83 27.79 152.63 37.26 152.63 36.26 140.83" />
      <polygon class="cls-8" points="24.4 140.83 16.62 140.83 17.88 152.63 25.43 152.63 24.4 140.83" />
      <polygon class="cls-8" points="48.39 140.83 40.51 140.83 39.52 152.63 47.1 152.63 48.39 140.83" />
      <polygon class="cls-8"
        points="59.36 147.62 59.72 147.62 60.16 152.63 67.52 152.63 66.4 140.83 52.89 140.83 51.75 152.63 58.99 152.63 59.36 147.62" />
      <path class="cls-8"
        d="M80.72,148.21h1.86c.66,0,1.12.24,1.36.72.24.48.36,1.5.36,3.05,0,.23,0,.43-.02.64h7.79c0-.21.01-.42.01-.64,0-2.25-.18-4.2-.53-5.87-.35-1.67-1.05-2.96-2.09-3.89-1.04-.93-2.58-1.39-4.62-1.39h-12.22v11.79h8.1v-4.42Z" />
      <rect class="cls-8" x="106.57" y="140.83" width="7.69" height="11.79" />
      <polygon class="cls-8" points="102.9 140.83 94.71 140.83 94.71 152.63 105.17 152.63 102.9 140.83" />
      <rect class="cls-8" x="117.43" y="140.83" width="7.69" height="11.79" />
      <polygon class="cls-8" points="136.48 140.83 128.29 140.83 128.29 152.63 138.75 152.63 136.48 140.83" />
      <rect class="cls-8" x="140.15" y="140.83" width="7.69" height="11.79" />
      <path class="cls-8"
        d="M169.97,146.81c-.54-2.07-1.53-3.64-2.96-4.72-1.43-1.08-3.49-1.62-6.18-1.62-6.52,0-9.78,3.72-9.78,11.16v1h7.87v-1.86c0-.74.15-1.42.44-2.04.29-.62.9-.93,1.82-.93.74,0,1.23.29,1.46.87.23.58.35,1.3.35,2.16v1.79h7.75c-.09-2.23-.34-4.17-.78-5.82Z" />
      <polygon class="cls-8" points="181.42 140.83 173.32 140.83 173.96 152.63 180.77 152.63 181.42 140.83" />
      <polygon class="cls-8" points="14.95 24.33 20.62 19.53 25.36 17.18 27.25 41.15 22.53 62 14.95 24.33" />
      <path class="cls-5"
        d="M30.66,12.92l-5.13,3.68v19.2l-4.18-10.56.78,31.54-6.51-31.76-9.96,8.01s3.85,61.9,4.1,62.7,7.02,39.13,7.02,39.13l23.74-.08L30.66,12.92Z" />
      <path class="cls-1"
        d="M17.1,121.61l-4.77-26.7-6.68-61.89s3.85,61.9,4.1,62.7c.24.8,7.02,39.13,7.02,39.13l15.35-.05-15.02-13.19Z" />
      <path class="cls-6"
        d="M30.66,12.92l9.85,121.84-23.74.08s-6.78-38.33-7.02-39.13c-.24-.8-4.1-62.7-4.1-62.7L30.66,12.92h0ZM30.66,11.6c-.3,0-.59.1-.83.29L4.82,31.99c-.34.27-.52.68-.49,1.11,1.74,27.97,3.86,61.42,4.14,62.96h0c.25,1.03,4.32,23.9,6.99,39.01.11.63.66,1.09,1.3,1.09h0l23.74-.08c.37,0,.72-.16.97-.43.25-.27.37-.63.34-1L31.98,12.82c-.04-.49-.35-.92-.8-1.11-.17-.07-.35-.11-.52-.11h0Z" />
      <path class="cls-8"
        d="M25.74,17.64l7.63,114.31c.14,2.12,1.92,3.75,4.07,3.75l139.37-.25c4,0,7.38-2.98,7.85-6.9l13.69-114.23c.56-4.7-3.19-8.77-7.98-8.64-31.72.85-137.27,3.93-161.13,7.65-2.12.33-3.63,2.2-3.49,4.31Z" />
      <path class="cls-2"
        d="M61.93,129.32c-10.28,0-18.82-8.04-19.44-18.3l-.17-2.68-4.07-67.92c-.31-5.17,1.42-10.16,4.88-14.06,3.46-3.9,8.21-6.21,13.37-6.51l7.2-.43,10.22-.62,62.41-3.75,9.14-.54c.41-.02.82-.03,1.22-.03.46,0,.92.02,1.37.05,9.67.71,17.41,8.55,18,18.23l-.08,2.33-.66,16.87-1.5,39.43-.5,13.28c.11,1.85-.06,3.77-.52,5.6-1.44,6.03-5.72,11.05-11.43,13.42-1.97.85-4.1,1.35-6.31,1.49l-81.99,4.11c-.38.02-.76.03-1.14.03Z" />
      <path class="cls-6"
        d="M146.7,15.34c.44,0,.87.01,1.3.05,9.14.67,16.64,8.06,17.2,17.42l-.09,2.24-.66,16.87-1.5,39.43-.5,13.28c.11,1.87-.06,3.7-.5,5.43-1.38,5.75-5.47,10.57-10.92,12.83-1.87.8-3.9,1.29-6.03,1.42l-9.27.47-66.9,3.35-5.8.29c-.37.02-.73.03-1.1.03-9.74,0-17.99-7.65-18.58-17.49l-.17-2.68-4.07-67.92c-.62-10.21,7.25-19.06,17.44-19.66l7.2-.43,10.23-.62,62.41-3.75,9.13-.54c.39-.02.78-.03,1.17-.03h0ZM146.7,13.61h0c-.4,0-.82.01-1.26.03l-9.15.54-62.41,3.75-10.23.62-7.2.43c-5.39.31-10.35,2.73-13.96,6.8-3.62,4.07-5.43,9.29-5.1,14.68l4.07,67.91.17,2.69c.65,10.71,9.57,19.1,20.3,19.1.4,0,.8-.01,1.2-.04l5.79-.29,66.9-3.35,9.27-.47c2.33-.14,4.55-.67,6.63-1.56,5.95-2.47,10.41-7.71,11.92-14.01.47-1.88.66-3.85.55-5.85l.5-13.2,1.5-39.43.66-16.87.09-2.24c0-.06,0-.11,0-.17-.61-10.11-8.7-18.29-18.8-19.04-.45-.03-.93-.05-1.43-.05h0Z" />
      <path class="cls-3"
        d="M150.16,116.03c-8.66,5.86-69.34,11.37-94.93,11.15,2.42.94,5.06,1.41,7.81,1.25l5.8-.29,66.9-3.35,9.27-.47c2.13-.13,4.16-.62,6.03-1.42,5.45-2.26,9.54-7.08,10.92-12.83.43-1.73.61-3.56.5-5.43l.5-13.28,1.5-39.43.66-16.87.09-2.24c-.3-4.88-2.49-9.22-5.81-12.36,1.63,34.69-.58,89.72-9.24,95.58Z" />
      <path class="cls-3"
        d="M179.79,130.42c-4.54,2.81-57.01,4.39-103.82,4.45l101.75.31c3.94.01,7.25-2.94,7.7-6.85l12.94-114c.14-1.28-.05-2.5-.47-3.61-7.1,37.49-13.55,116.91-18.1,119.72Z" />
      <path class="cls-6"
        d="M190.64,5.65c4.63,0,8.25,4.04,7.72,8.67l-12.94,114c-.44,3.91-3.75,6.85-7.68,6.85,0,0-.02,0-.02,0l-137.21-.41c-2.12,0-3.88-1.65-4.03-3.76L28.43,16.82c-.15-2.1,1.33-3.97,3.42-4.29,23.48-3.6,127.38-6.18,158.61-6.88.06,0,.12,0,.18,0h0ZM190.64,4.33c-.07,0-.14,0-.21,0-31.3.7-135.25,3.28-158.78,6.89-2.78.43-4.73,2.87-4.54,5.69l8.05,114.18c.2,2.79,2.54,4.99,5.34,4.99l137.21.41c4.63,0,8.5-3.45,9.02-8.03l12.94-114c.29-2.58-.53-5.17-2.26-7.11-1.72-1.93-4.19-3.04-6.78-3.04h0Z" />
      <path class="cls-7"
        d="M191.46,20.98c-1.3-4.24-5.04-7.05-9.21-7.38l-.79-2.83-6.21,1.9s.29.93.75,2.43c-4,2.43-6.01,7.33-4.58,12,1.43,4.69,5.86,7.63,10.54,7.39.5,1.67.82,2.74.8,2.76-.08.1,5.62-1.72,5.62-1.72l-.84-2.99c3.55-2.55,5.27-7.16,3.92-11.57Z" />
      <path class="cls-5"
        d="M171.42,27.1c2.59,8.48,8.87,6.44,9.58,7.39-.9-5.54-4.62-18.11-4.62-18.11l-.39-1.28c-3.99,2.43-6,7.32-4.57,12Z" />
      <path class="cls-5" d="M175.25,12.67l13.13,22.87s-5.69,1.82-5.62,1.72c.08-.1-7.52-24.58-7.52-24.58Z" />
      <path class="cls-6"
        d="M192.34,20.71c-1.34-4.38-5.1-7.36-9.37-7.95l-.88-3.14-8,2.45.27.88c.18.57.36,1.16.55,1.76-3.94,2.76-5.85,7.83-4.37,12.67,1.48,4.85,5.92,7.97,10.74,8.05.22.72.39,1.29.48,1.63l.25.74c.32.45.4.57,3-.23.89-.27,2.07-.65,3.65-1.15l.85-.27-.91-3.26c3.5-2.84,5.14-7.61,3.75-12.18ZM172.3,26.83c-1.18-3.85.22-7.88,3.19-10.25,1.84,5.95,3.94,12.78,5.21,16.95-3.8-.3-7.23-2.84-8.41-6.7ZM187.25,34.93c-1.51.48-3.02.96-3.89,1.21-.58-2.26-2.33-7.93-6.96-22.86l4.43-1.35,6.43,23ZM188.04,30.91l-4.52-16.17c3.24.73,6.02,3.1,7.05,6.5,1.09,3.55-.03,7.25-2.54,9.66Z" />
      <path class="cls-6"
        d="M22.1,56.51c-.15,0-.29-.11-.32-.26l-6.71-32.22c-.04-.18.08-.35.26-.39.18-.04.35.08.39.26l5.97,28.65-.69-28.27c0-.16.11-.3.27-.33.16-.03.32.06.37.22l3.56,10.47v-18.5c0-.18.15-.33.33-.33s.33.15.33.33v20.5c0,.16-.12.3-.28.33-.16.03-.31-.07-.37-.22l-3.51-10.32.73,29.76c0,.17-.12.32-.29.34-.01,0-.03,0-.04,0Z" />
      <path class="cls-6"
        d="M22.69,135.16c-.17,0-.32-.13-.33-.31l-1-15.33c-.01-.18.13-.34.31-.35.18-.01.34.13.35.31l1,15.33c.01.18-.13.34-.31.35,0,0-.01,0-.02,0Z" />
      <path class="cls-6"
        d="M24.95,135.15c-.34,0-.35-.11-.71-6.89-.18-3.29-.34-6.58-.34-6.58,0-.18.13-.34.31-.35.18,0,.34.13.35.31.26,5,.66,12.55.73,13.09,0,.03.01.06.01.09,0,.18-.15.33-.33.33h-.02Z" />
      <path class="cls-6"
        d="M171.89,101.17c-1.3,0-2.51-.84-2.91-2.15-.49-1.6.42-3.31,2.02-3.8.78-.24,1.6-.16,2.32.22.72.38,1.24,1.02,1.48,1.8.49,1.6-.42,3.31-2.02,3.8-.3.09-.59.13-.89.13ZM171.89,95.75c-.23,0-.47.03-.7.1-1.26.38-1.97,1.72-1.58,2.97.38,1.26,1.72,1.96,2.97,1.58,1.26-.38,1.97-1.72,1.58-2.97h0c-.19-.61-.6-1.11-1.16-1.41-.35-.19-.73-.28-1.12-.28Z" />
      <path class="cls-6"
        d="M181.06,101.58c-.49,0-.98-.12-1.43-.36-.72-.38-1.24-1.02-1.48-1.8-.24-.78-.16-1.6.22-2.32.38-.72,1.02-1.24,1.8-1.48.78-.24,1.6-.16,2.32.22.72.38,1.24,1.02,1.48,1.8.24.78.16,1.6-.22,2.32-.38.72-1.02,1.24-1.8,1.48-.29.09-.59.13-.89.13ZM181.07,96.15c-.23,0-.47.03-.7.11-.61.19-1.11.6-1.41,1.16-.3.56-.36,1.21-.17,1.81.19.61.6,1.11,1.16,1.41.56.3,1.21.36,1.81.17.61-.19,1.11-.6,1.41-1.16.3-.56.36-1.21.17-1.81h0c-.19-.61-.6-1.11-1.16-1.41-.35-.19-.73-.28-1.12-.28Z" />
      <path class="cls-6"
        d="M170.61,110.89c-1.3,0-2.51-.84-2.91-2.15-.49-1.6.42-3.31,2.02-3.8,1.61-.49,3.31.42,3.8,2.02h0c.49,1.6-.42,3.31-2.02,3.8-.3.09-.59.13-.89.13ZM170.61,105.47c-.23,0-.46.03-.69.1-1.26.38-1.97,1.72-1.58,2.97.38,1.26,1.72,1.97,2.97,1.58,1.26-.38,1.97-1.72,1.58-2.97-.31-1.02-1.26-1.69-2.28-1.69Z" />
      <path class="cls-6"
        d="M179.79,111.3c-1.3,0-2.51-.84-2.91-2.15-.49-1.6.42-3.31,2.02-3.8,1.6-.49,3.31.42,3.8,2.02h0c.49,1.6-.42,3.31-2.02,3.8-.3.09-.59.13-.89.13ZM179.79,105.87c-.23,0-.46.03-.69.1-1.26.38-1.97,1.72-1.58,2.97.38,1.26,1.72,1.96,2.97,1.58,1.26-.38,1.97-1.72,1.58-2.97-.31-1.02-1.26-1.69-2.28-1.69Z" />
      <path class="cls-6"
        d="M169.11,119.82c-1.3,0-2.51-.84-2.91-2.15-.49-1.6.42-3.31,2.02-3.8.78-.24,1.6-.16,2.32.22.72.38,1.24,1.02,1.48,1.8.49,1.6-.42,3.31-2.02,3.8-.3.09-.59.13-.89.13ZM169.11,114.4c-.23,0-.47.03-.7.11-1.26.38-1.97,1.72-1.58,2.97.38,1.26,1.72,1.97,2.97,1.58,1.26-.38,1.97-1.72,1.58-2.97-.19-.61-.6-1.11-1.16-1.41-.35-.19-.73-.28-1.12-.28Z" />
      <path class="cls-6"
        d="M178.29,120.23c-.49,0-.98-.12-1.43-.36-.72-.38-1.24-1.02-1.48-1.8-.24-.78-.16-1.6.22-2.32.38-.72,1.02-1.24,1.8-1.48.78-.24,1.6-.16,2.32.22.72.38,1.24,1.02,1.48,1.8.24.78.16,1.6-.22,2.32-.38.72-1.02,1.24-1.8,1.48-.29.09-.59.13-.89.13ZM178.29,114.81c-.23,0-.47.03-.7.11-.61.19-1.11.6-1.41,1.16-.3.56-.36,1.21-.17,1.81.19.61.6,1.11,1.16,1.41.56.3,1.21.36,1.81.17.61-.19,1.11-.6,1.41-1.16.3-.56.36-1.21.17-1.81-.19-.61-.6-1.11-1.16-1.41-.35-.19-.73-.28-1.12-.28Z" />
      <path class="cls-6"
        d="M146.7,15.34c.44,0,.87.01,1.3.05,9.14.67,16.64,8.06,17.2,17.42l-.09,2.24-.66,16.87-1.5,39.43-.5,13.28c.11,1.87-.06,3.7-.5,5.43-1.38,5.75-5.47,10.57-10.92,12.83-1.87.8-3.9,1.29-6.03,1.42l-9.27.47-66.9,3.35-5.8.29c-.37.02-.73.03-1.1.03-9.74,0-17.99-7.65-18.58-17.49l-.17-2.68-4.07-67.92c-.62-10.21,7.25-19.06,17.44-19.66l7.2-.43,10.23-.62,62.41-3.75,9.13-.54c.39-.02.78-.03,1.17-.03h0ZM146.7,14.01h0c-.39,0-.81.01-1.24.03l-9.14.54-62.41,3.75-10.23.62-7.2.43c-5.28.31-10.14,2.67-13.69,6.66-3.54,3.99-5.32,9.1-5,14.39l4.07,67.91.17,2.69c.64,10.5,9.38,18.73,19.9,18.73.39,0,.78-.01,1.17-.03l5.79-.29,66.9-3.35,9.27-.47c2.28-.14,4.46-.66,6.49-1.53,5.83-2.42,10.21-7.56,11.69-13.74.46-1.85.64-3.79.53-5.75l.5-13.22,1.5-39.43.66-16.87.09-2.24s0-.09,0-.13c-.6-9.91-8.53-17.93-18.43-18.66-.44-.03-.91-.05-1.4-.05h0Z" />
      <path class="cls-8"
        d="M107.95,122.86c-5.59,0-14.3-1.85-14.67-1.93-.25-.05-.44-.24-.49-.49l-2.34-10.34c-1.91.23-8.13.93-13.63.93-2.09,0-3.87-.1-5.32-.3-6.84-.94-17.29-3.55-17.39-3.57-.17-.04-.32-.15-.41-.31-.09-.15-.11-.34-.05-.51.04-.12,3.75-12.17,2.82-26.82l-2.84-25.36c-.02-.13.01-.27.08-.38.15-.27,15.12-26.55,48.65-26.55,1.29,0,2.61.04,3.92.12,18.98,1.12,29.28,8.46,34.59,14.42,5.78,6.49,7.01,12.65,7.06,12.91,0,.04.01.08.01.12v36.27c1.76,1.68,8.08,7.96,7.08,10.7-.23.64-.71,1.96-16.36,5.66-6.45,1.52-12.88,2.83-14.7,3.2l-.23,9.92c0,.31-.23.57-.54.62-.09.01-8.88,1.43-14.31,1.67-.3.01-.61.02-.93.02Z" />
      <path class="cls-3"
        d="M107.95,125.44c-5.99,0-15.13-1.97-15.22-1.99-1.22-.26-2.19-1.22-2.47-2.45l-1.83-8.08c-2.86.3-7.44.69-11.62.69-2.2,0-4.11-.11-5.67-.32-7.03-.97-17.58-3.6-17.68-3.63-.85-.21-1.59-.78-2.02-1.55-.43-.77-.53-1.7-.27-2.54.04-.12,3.59-11.79,2.71-25.82l-2.84-25.3c-.08-.67.06-1.33.38-1.93.16-.28,15.9-27.88,50.91-27.88,1.35,0,2.72.04,4.08.12,19.86,1.17,30.74,8.96,36.37,15.29,6.14,6.91,7.53,13.43,7.67,14.15.04.2.06.4.06.61v35.17c8.5,8.36,7.32,11.6,6.92,12.68-.64,1.76-1.19,3.27-18.19,7.29-4.93,1.17-9.88,2.21-12.76,2.8l-.18,7.86c-.04,1.56-1.18,2.87-2.72,3.12-.08.01-9.03,1.46-14.61,1.7-.33.01-.68.02-1.04.02h0ZM95.03,118.64c2.59.51,8.75,1.63,12.91,1.63h0c.28,0,.55,0,.81-.02,3.87-.17,9.65-.98,12.42-1.39l.24-10.37,2.03-.41c1.81-.36,8.23-1.67,14.62-3.18,9.98-2.36,13.3-3.66,14.37-4.21-.45-1.25-2.46-4.12-6.28-7.76l-.8-.76v-37.16c-.22-.95-1.61-6.12-6.42-11.53-4.98-5.6-14.71-12.5-32.81-13.56-1.26-.07-2.53-.11-3.77-.11-29.21,0-43.82,21.14-46.08,24.72l2.78,24.83c.74,11.61-1.35,21.64-2.39,25.76,3.33.79,10.27,2.37,15.19,3.05,1.33.18,2.99.28,4.96.28,5.39,0,11.55-.7,13.32-.92l2.32-.28,2.58,11.4ZM95.31,119.86h0s0,0,0,0ZM93.82,118.39s0,0,.01,0c0,0,0,0-.01,0ZM54.74,104.65h0,0ZM56.2,53.86h0s0,0,0,0Z" />
      <path class="cls-1"
        d="M107.95,122.86c-5.59,0-14.3-1.85-14.67-1.93-.25-.05-.44-.24-.49-.49l-2.34-10.34c-1.91.23-8.13.93-13.63.93-2.09,0-3.87-.1-5.32-.3-6.84-.94-17.29-3.55-17.39-3.57-.17-.04-.32-.15-.41-.31-.09-.15-.11-.34-.05-.51.04-.12,3.75-12.17,2.82-26.82l-2.84-25.36c-.02-.13.01-.27.08-.38.15-.27,15.12-26.55,48.65-26.55,1.29,0,2.61.04,3.92.12,18.98,1.12,29.28,8.46,34.59,14.42,5.78,6.49,7.01,12.65,7.06,12.91,0,.04.01.08.01.12v36.27c1.76,1.68,8.08,7.96,7.08,10.7-.23.64-.71,1.96-16.36,5.66-6.45,1.52-12.88,2.83-14.7,3.2l-.23,9.92c0,.31-.23.57-.54.62-.09.01-8.88,1.43-14.31,1.67-.3.01-.61.02-.93.02Z" />
      <path class="cls-6"
        d="M102.35,27.87c1.27,0,2.56.04,3.89.12,36.31,2.14,41.05,26.82,41.05,26.82v36.54s8.07,7.59,7.12,10.2c-.95,2.61-31.09,8.54-31.09,8.54l-.24,10.44s-8.78,1.42-14.24,1.66c-.29.01-.59.02-.9.02-5.58,0-14.54-1.92-14.54-1.92l-2.47-10.91s-7.54,1-14.13,1c-1.89,0-3.7-.08-5.23-.29-6.88-.95-17.32-3.56-17.32-3.56,0,0,3.8-12.1,2.85-27.05l-2.85-25.39s14.54-26.22,48.08-26.22h0ZM102.35,26.58c-17.71,0-30.14,7.29-37.45,13.41-7.92,6.63-11.61,13.2-11.76,13.47-.13.23-.18.5-.15.77l2.84,25.36c.91,14.5-2.76,26.44-2.79,26.55-.11.34-.07.71.11,1.02.17.31.47.53.81.62.43.11,10.59,2.64,17.46,3.59,1.47.2,3.29.31,5.4.31,5.13,0,10.74-.59,13.13-.87l2.21,9.77c.11.49.5.87.99.98.37.08,9.15,1.95,14.81,1.95.33,0,.65,0,.95-.02,5.47-.24,14.03-1.62,14.39-1.68.61-.1,1.07-.62,1.08-1.24l.21-9.41c2.32-.47,8.26-1.69,14.22-3.1,15.98-3.78,16.48-5.15,16.81-6.06.59-1.62-.47-3.89-3.43-7.36-1.43-1.68-2.91-3.16-3.61-3.83v-36c0-.08,0-.16-.02-.24-.05-.27-1.32-6.59-7.21-13.22-5.39-6.05-15.83-13.51-35.03-14.64-1.33-.08-2.66-.12-3.96-.12h0Z" />
      <path class="cls-8"
        d="M54.45,53.43s11.68-.83,13.59,9.15c-1.43,4.64-.27,16.26-.27,16.26-.28-.71.74,7.88,3.31,14.78,1.33,3.58,14.87,4.73,16.18,6.69-.23.76-5,5.2-8.43,4.71s-7.66-1.54-11.07-10.49c-1.82-4.78-2.38-13.24-3.23-21.44-.85-8.21-5.8-8.37-8.2-2.79l-1.89-16.86Z" />
      <path class="cls-8"
        d="M63.53,90.87c-1.9,0-3.71,12.89,1.14,14.88s12.3,3.11,12.99,1.65c.7-1.46-8.98-.4-12.77-4.95-3.79-4.54.54-11.59-1.36-11.59Z" />
      <path class="cls-8"
        d="M101.42,102.35c-.09,5.23,5.81,5.69,6.5,5.8.87.13,1.31-1.46,1.31-1.46,0,0,2.83.75,2.91.51,3.22-7.09,3.24-17.12-1.28-25.5-5.8,5.8-9.44,18.7-9.44,20.65Z" />
      <path class="cls-8"
        d="M57.44,104.59c-2.07-5.62,2.32-14.21-.18-21.13.15,13.06-2.99,23.07-2.99,23.07,0,0,10.44,2.61,17.32,3.56s19.36-.71,19.36-.71l2.47,10.91s-1.26-14.77-3.53-15.13c-.46-.07-1.19.79-1.03,3.21-1.97.44-10.12,1.08-14.04.77-9.52-.74-17.06-3.72-17.37-4.56Z" />
      <path class="cls-3"
        d="M147.29,91.34v-36.54s-4.75-24.68-41.05-26.82c-8.28-.49-15.48.61-21.67,2.58,6.83-.32,44.25.72,56.65,16.05,5.05,6.25,3.22,50.76,3.19,51.85-.1,3.15-9.28,5.22-13.69,5.96-5.34.9-7.39,5.66-7.39,5.66,0,0,30.14-5.93,31.09-8.54.95-2.61-7.12-10.2-7.12-10.2Z" />
      <path class="cls-8"
        d="M110.76,66.06c-1.48-.63-2.24,13.24-.81,15.16,1.43,1.92,2.36,3.81,2.36,3.81,0,0,.23,7.3,2.25,6.44,2.02-.87-2.33-10.97-2.69-11.81s.37-12.96-1.12-13.6Z" />
      <path class="cls-8"
        d="M72.04,51.65c-1.4-.83,4.32-10.38,13.31-8.94,9,1.44,12.03,25.03,11.23,25.03s-3.93-22.39-12.64-21.96c-8.7.43-10.51,6.7-11.91,5.86Z" />
      <path class="cls-8"
        d="M128.46,48.2c-.3-.78,3.96-5.68,11.24,1.2,5.51,5.21,3.17,11.88,2.46,11.54-.71-.34,1.05-3.86-3.69-9.43-4.74-5.58-9.71-2.52-10.01-3.3Z" />
      <path class="cls-8"
        d="M131.79,48.76c-2.78-.16-6.98,1.36-9.14,4.4-8.07,11.37-9.07,40.39,1.11,48.53,4.51,4.51,12.25,1.93,14.83-4.51,6.7-17.06,6.39-47.63-6.81-48.41Z" />
      <path class="cls-5"
        d="M141.09,76.85c-.68,11.67-1.88,22.12-9.27,24.37-.33.1-.68.19-1.04.25-.78.15-1.52.17-2.23.08-.79-10.8-2.55-39.65-3.1-48.73,1.21-1.17,2.52-1.97,3.85-2.35.3-.08.61-.15.92-.19,8.8-1.23,11.67,12.87,10.87,26.57Z" />
      <path class="cls-8"
        d="M57.33,52.67c17.05-24.8,52.8-30.63,80.49-13.07-6.06-5.54-15.87-10.69-31.58-11.62-36.31-2.14-51.97,26.1-51.97,26.1l2.85,25.39s-.98-9.53.21-26.81Z" />
      <path class="cls-8"
        d="M82.13,47.98c-15.24,0-17.52,23.21-14.59,37.32,2.94,14.11,11.64,25.05,22.01,12.62,3.53-6.92,3.51-15.4,3.65-24.06.21-13.24-1.86-25.88-11.07-25.88Z" />
      <path class="cls-8"
        d="M149.48,93.54c1.19,2.57,4.62,5.41,3.25,7.32-.93,1.3-16.16,6.8-24.86,7.02-4.08.1-2.86-6.09-4.77-4.72s-.91,9.1-3.2,13.37c-2.29,4.27-17.26,3.67-26.69,2.81l.22.96s9.98,2.14,15.43,1.9c5.46-.24,14.24-1.66,14.24-1.66l.24-10.44s30.14-5.93,31.09-8.54c.62-1.71-2.62-5.55-4.94-8.01Z" />
      <path class="cls-6"
        d="M100.45,122.18c-.34,0-.62-.26-.64-.6l-.46-7.42c-.02-.36.25-.66.6-.68.34-.02.66.25.68.6l.46,7.42c.02.36-.25.66-.6.68-.01,0-.03,0-.04,0Z" />
      <path class="cls-6"
        d="M107.67,122.93c-.34,0-.63-.27-.64-.62l-.35-8.17c-.02-.36.26-.66.62-.67.36-.03.66.26.67.62l.35,8.17c.02.36-.26.66-.62.67,0,0-.02,0-.03,0Z" />
      <path class="cls-6"
        d="M117.16,122.18c-.33,0-.62-.26-.64-.6-.2-2.6-.52-6.57-.57-6.95-.06-.31.12-.63.43-.74.34-.11.7.07.82.41.03.1.07.21.61,7.18.03.35-.24.67-.59.69-.02,0-.03,0-.05,0Z" />
      <path class="cls-6"
        d="M77.69,107.21h-.01c-.39,0-9.52-.18-12.47-3.15-2.98-3-2.04-12.47-2-12.87.04-.35.36-.62.71-.57.35.04.61.35.58.71-.27,2.57-.49,9.7,1.63,11.83,2.14,2.16,9.08,2.73,11.57,2.77.36,0,.64.3.63.65,0,.35-.29.63-.65.63Z" />
      <path class="cls-6"
        d="M133.02,105.23c-.29,0-.55-.19-.62-.48-.09-.34.12-.7.46-.78,5.84-1.5,12.27-3.39,13.13-4.03.13-.54-.4-2.66-.76-4.08-.47-1.87-.92-3.64-.83-4.66.03-.35.34-.62.7-.59.36.03.62.34.59.7-.07.8.39,2.63.8,4.24.7,2.78,1.07,4.39.58,5.12-.66.99-7.91,3.02-13.88,4.55-.05.01-.11.02-.16.02Z" />
      <path class="cls-6"
        d="M103.38,104.59c-1.45-2.63,2.31-12.19,2.8-13.34.49-1.15,3.06-8.73,4.58-8.73s6.98,18.38,6.4,21.34-4.99,3.46-4.99,3.46l-2.23-10.32-2.86,10.4s-2.25-.19-3.7-2.82Z" />
      <path class="cls-6"
        d="M69.87,63.96c-.24,0-.46-.13-.58-.36-.64-1.28-1.33-2.45-2.04-3.48-.2-.29-.13-.69.16-.9.29-.2.69-.13.9.16.75,1.08,1.47,2.31,2.14,3.64.16.32.03.71-.29.86-.09.05-.19.07-.29.07Z" />
      <path class="cls-6"
        d="M64.89,57.1c-.15,0-.31-.05-.43-.16-.67-.59-1.37-1.1-2.08-1.51-.31-.18-.42-.57-.24-.88.18-.31.57-.42.88-.24.79.45,1.56,1.01,2.29,1.67.27.24.29.64.05.91-.13.14-.3.22-.48.22Z" />
      <path class="cls-6"
        d="M131.82,101.23c-.33.1-.68.19-1.04.25-8.33,1.55-11.89-10.81-12.45-24.35-.59-14.31,4.82-24.88,10.97-26.64,2.73,3.5,6.48,10.81,6.65,24.63.21,17.29-1.67,22.82-4.13,26.12Z" />
      <path class="cls-6"
        d="M128.61,54.86c-.34,0-.63-.27-.64-.62-.01-.36.26-.66.62-.67l8.72-.34c.34-.03.66.26.67.62.01.36-.26.66-.62.67l-8.72.34s-.02,0-.03,0Z" />
      <path class="cls-6"
        d="M129.24,52.5c-.27,0-.52-.17-.61-.44-.11-.34.07-.7.41-.82.12-.04.16-.05,5.95-.24.36-.04.65.27.67.62.01.36-.27.65-.62.67-2.13.07-5.38.18-5.71.21-.03,0-.06,0-.09,0Z" />
      <path class="cls-6"
        d="M130.8,57.41c-.35,0-.63-.27-.64-.62-.01-.36.27-.65.62-.67l7.9-.27c.35-.02.65.27.67.62s-.27.65-.62.67l-7.9.27s-.02,0-.02,0Z" />
      <path class="cls-6"
        d="M132.12,60.15c-.34,0-.63-.27-.64-.62-.02-.36.26-.66.62-.67l3.76-.16q4.26-.18,4.41.32c.1.34-.1.7-.44.8-.07.02-.13.03-.21.02-.38,0-4.64.18-7.45.3,0,0-.02,0-.03,0Z" />
      <path class="cls-6"
        d="M133.72,64.7c-.35,0-.63-.28-.64-.63,0-.36.27-.65.63-.66l6.9-.18c.32,0,.65.27.66.63,0,.36-.27.65-.63.66l-6.9.18h-.02Z" />
      <path class="cls-6"
        d="M139.22,92.33s-.03,0-.05,0l-6.19-.44c-.36-.03-.62-.33-.6-.69.03-.36.32-.62.69-.6l6.19.44c.36.03.62.33.6.69-.02.34-.31.6-.64.6Z" />
      <path class="cls-6"
        d="M138.44,94.79s-.03,0-.04,0c-2.02-.12-5.08-.31-5.36-.31-.17,0-.34-.06-.47-.19-.25-.25-.25-.66,0-.91q.22-.22,5.91.13c.36.02.63.33.6.68-.02.34-.3.61-.64.61Z" />
      <path class="cls-6"
        d="M136.94,97.84s-.05,0-.08,0l-4.67-.56c-.35-.04-.61-.36-.56-.72.04-.35.37-.61.72-.56l4.67.56c.35.04.61.36.56.72-.04.33-.32.57-.64.57Z" />
      <path class="cls-6"
        d="M140.08,88.16s-.03,0-.04,0l-6.74-.44c-.36-.02-.62-.33-.6-.69.02-.36.33-.61.69-.6l6.74.44c.36.02.62.33.6.69-.02.34-.31.6-.64.6Z" />
      <path class="cls-6"
        d="M140.62,69.74h0c-3.04-.02-8-.05-8.41,0-.35.03-.67-.21-.71-.55-.05-.34.17-.66.51-.72.35-.06,5.55-.03,8.62,0,.36,0,.64.29.64.65,0,.35-.29.64-.64.64Z" />
      <path class="cls-5"
        d="M91.62,76.85c-.68,11.67-1.88,22.12-9.27,24.37-.33.1-.68.19-1.04.25-.78.15-1.52.17-2.23.08-.79-10.8-2.55-39.65-3.1-48.73,1.21-1.17,2.52-1.97,3.85-2.35.3-.08.61-.15.92-.19,8.8-1.23,11.67,12.87,10.87,26.57Z" />
      <path class="cls-6"
        d="M82.36,101.23c-.33.1-.68.19-1.04.25-8.33,1.55-11.89-10.81-12.45-24.35-.59-14.31,4.82-24.88,10.97-26.64,2.73,3.5,6.48,10.81,6.65,24.63.21,17.29-1.67,22.82-4.13,26.12Z" />
      <path class="cls-6"
        d="M79.84,52.54c-.36,0-.64-.29-.64-.64,0-.36.29-.64.64-.65.19,0,3.75-.11,6.09-.18.35,0,.65.27.67.62.01.36-.27.65-.62.67-.6.02-5.9.18-6.13.18Z" />
      <path class="cls-6"
        d="M83.95,56.34c-2.15,0-2.25-.04-2.35-.08-.33-.13-.49-.51-.36-.84.12-.29.42-.45.72-.4.47.04,4.46.01,6.9-.01h0c.35,0,.64.28.64.64,0,.36-.28.65-.64.65-2.3.02-3.86.03-4.92.03Z" />
      <path class="cls-6"
        d="M80.64,54.73c-.34,0-.63-.27-.64-.62-.02-.36.26-.66.62-.67l7.15-.31s.02,0,.03,0c.34,0,.63.27.64.62.02.36-.26.66-.62.67l-7.15.31s-.02,0-.03,0Z" />
      <path class="cls-6"
        d="M82.12,59.86c-.35,0-.63-.28-.64-.63,0-.36.27-.65.63-.66l7.99-.22c.36,0,.65.27.66.63,0,.36-.27.65-.63.66l-7.99.22h-.02Z" />
      <path class="cls-6"
        d="M91.07,63.96h-7.2c-.36,0-.65-.29-.65-.64s.29-.64.65-.64h7.2c.36,0,.64.29.64.64s-.29.64-.64.64Z" />
      <path class="cls-6"
        d="M91.72,70.96h-7c-.36,0-.64-.29-.64-.64s.29-.64.64-.64h7c.36,0,.64.29.64.64s-.29.64-.64.64Z" />
      <path class="cls-6"
        d="M91.66,76.69h-.01l-6.5-.13c-.36,0-.64-.3-.63-.66,0-.35.29-.63.64-.63h.01l6.5.13c.36,0,.64.3.63.66,0,.35-.29.63-.65.63Z" />
      <path class="cls-6"
        d="M87.27,98.14s-.05,0-.08,0l-4.72-.57c-.35-.04-.61-.36-.56-.72.04-.35.36-.61.72-.56l4.72.57c.35.04.61.36.56.72-.04.33-.32.57-.64.57Z" />
      <path class="cls-6"
        d="M88.86,93.87s-.04,0-.06,0l-4.37-.42c-.35-.03-.61-.35-.58-.7.03-.36.35-.61.7-.58l4.37.42c.35.03.61.35.58.7-.03.33-.31.58-.64.58Z" />
      <path class="cls-6"
        d="M123.95,111.89h-.01c-.36,0-.64-.3-.63-.66v-.12c.02-.41.06-1.67.01-3.5-.05-1.92-.43-3.9-.43-3.92-.07-.35.16-.69.51-.76.35-.07.69.16.76.51.02.09.41,2.11.46,4.14.05,1.86,0,3.15,0,3.57v.11c-.01.35-.3.63-.65.63Z" />
      <path class="cls-6"
        d="M90.61,111.37c-.29,0-.56-.2-.63-.5l-.73-3.16c-.08-.35.14-.69.48-.77.35-.08.69.14.77.48l.73,3.17c.08.35-.14.69-.48.77-.05.01-.1.02-.14.02Z" />
      <path class="cls-6"
        d="M79.18,104.7s-.02,0-.02,0c-.7-.02-1.38-.12-2.04-.3-.34-.09-.55-.45-.46-.79.09-.34.45-.55.79-.46.57.15,1.16.24,1.75.26.36.01.63.31.62.67-.01.35-.3.62-.64.62Z" />
      <path class="cls-6"
        d="M75.6,103.77c-.1,0-.2-.02-.29-.07-4.7-2.42-6.55-8.3-6.63-8.54-.1-.34.09-.7.43-.81.34-.11.7.09.81.43.02.06,1.77,5.61,5.99,7.78.32.16.44.55.28.87-.11.22-.34.35-.57.35Z" />
      <path class="cls-6"
        d="M110.76,83.84c-.11,0-.22-.03-.32-.09-2.31-1.32-1.94-5.7-1.89-6.2.04-.35.34-.61.7-.58.35.04.61.35.58.7-.11,1.12-.1,4.18,1.25,4.95.31.18.42.57.24.88-.12.21-.34.32-.56.32Z" />
      <path class="cls-6"
        d="M112.12,107.33c-.06,0-.12,0-.19-.03-1.04-.31-2.31-.7-2.45-.75-.33-.13-.49-.51-.36-.84.13-.33.5-.49.83-.36.14.05,1.31.41,2.35.72.34.1.53.46.43.8-.08.28-.34.46-.62.46Z" />
      <path class="cls-6"
        d="M142.26,61.12c-.31,0-.58-.22-.63-.53-.96-5.41-2.96-9.09-5.93-10.95-3.23-2.01-6.54-1.1-6.58-1.09-.34.1-.7-.1-.8-.44-.1-.34.1-.7.44-.8.16-.05,3.87-1.09,7.6,1.22,3.31,2.05,5.51,6.03,6.54,11.83.06.35-.17.69-.52.75-.04,0-.08.01-.11.01Z" />
      <path class="cls-6"
        d="M79.92,102.26c-.31,0-.61-.02-.91-.05-8.86-1.13-10.5-17.9-10.79-25.05-.43-10.54,2.37-20.04,7.32-24.79,1.3-1.25,2.69-2.09,4.12-2.5.33-.09.66-.16,1-.21,2.33-.33,4.38.32,6.09,1.9,4.16,3.84,6.22,13.31,5.51,25.34-.69,11.8-1.96,22.59-9.72,24.95-.41.12-.77.21-1.11.27-.5.1-1,.14-1.5.14ZM81.79,50.86c-.31,0-.63.02-.95.07-.28.04-.56.1-.83.18-1.22.35-2.43,1.09-3.57,2.19-3.67,3.53-7.42,11.63-6.92,23.81.58,14.22,4.19,23.12,9.66,23.82.66.08,1.34.05,2.02-.08.3-.05.62-.13.98-.24,6.97-2.12,8.14-12.47,8.81-23.79h0c.68-11.47-1.28-20.79-5.1-24.32-1.18-1.09-2.55-1.64-4.08-1.64Z" />
      <path class="cls-6"
        d="M129.39,102.26c-.31,0-.61-.02-.91-.05-8.86-1.13-10.5-17.9-10.79-25.05-.43-10.54,2.37-20.04,7.32-24.79,1.3-1.25,2.69-2.09,4.12-2.5.33-.09.66-.16,1-.21,2.33-.33,4.38.32,6.09,1.9,4.16,3.84,6.22,13.31,5.51,25.34-.69,11.8-1.96,22.59-9.72,24.95-.41.12-.77.21-1.11.27-.5.1-1,.14-1.5.14ZM131.26,50.86c-.31,0-.63.02-.95.07-.28.04-.56.1-.83.18-1.22.35-2.43,1.09-3.58,2.19-3.67,3.53-7.42,11.63-6.92,23.81.58,14.22,4.19,23.12,9.66,23.82.66.08,1.34.05,2.02-.08.3-.05.61-.13.98-.24,6.97-2.12,8.14-12.47,8.81-23.79h0c.68-11.47-1.28-20.79-5.1-24.32-1.18-1.09-2.55-1.64-4.08-1.64Z" />
      <path class="cls-6"
        d="M96.04,69.74c-.33,0-.62-.26-.64-.6,0-.02-.13-1.73-.51-4.18-.05-.35.19-.68.54-.74.35-.05.68.19.74.54.39,2.5.52,4.21.52,4.28.03.36-.24.66-.6.69-.02,0-.03,0-.05,0Z" />
      <path class="cls-6"
        d="M94.7,61.12c-.29,0-.56-.2-.63-.5-1.13-5-3.27-11.35-7.08-13.18-6.88-3.31-13.28,3.16-13.34,3.22-.25.26-.66.26-.91.01-.26-.25-.26-.66-.01-.91.07-.07,7.12-7.19,14.82-3.49,3.43,1.65,6.05,6.38,7.78,14.06.08.35-.14.69-.49.77-.05.01-.1.02-.14.02Z" />
    </g>
  </g>
</svg>