<?xml version="1.0" encoding="UTF-8"?>
<svg id="Capa_2" xmlns="http://www.w3.org/2000/svg" viewBox="0 0 220.21 191.81">
  <defs>
    <style>
      .cls-1 {
        fill: #00ffdb;
      }

      .cls-2 {
        fill: #7a00ba;
      }

      .cls-3 {
        fill: #fff;
      }

      .cls-4 {
        fill: #fffde6;
      }

      .cls-5 {
        fill: #fe0;
      }

      .cls-6 {
        fill: #ff387f;
      }
    </style>
  </defs>
  <g id="layer_1">
    <path class="cls-3"
      d="M220.01,77.13c-.43-3.56-1.76-8.55-5.65-12.14-3.47-3.21-7.73-3.35-11.15-3.46-.81-.03-1.67-.06-2.41-.13.04-.06.08-.11.12-.16,1.14-1.5,2.42-3.2,2.95-5.29,1.51-6-.32-13.03-4.66-17.92-4.51-5.09-9.33-5.9-13.59-6.62-1.55-.26-3.02-.51-4.51-.96-.49-.15-.74-.28-.85-.35-.11-.52,0-1.89.09-2.92.12-1.43.26-3.06.14-4.83-.3-4.4-3.22-8.66-7.62-11.09-3.29-1.82-6.78-2.47-10.37-3.04C138.16,4.41,112.22.64,86.06.02c-.63-.01-1.27-.02-1.9-.02-4.12,0-8.89.39-12.96,3.29-4.13,2.94-6.75,8.22-7.03,14.12-.1,2.15.43,4.4.95,6.58.03.12.06.27.1.43-2.63,1.24-5.2,2.73-7.66,4.43-2.39-.23-4.97-.56-7.5-.9-5.42-.71-11.56-1.52-17.47-1.52-12.02,0-20.13,3.47-24.82,10.62-3.09,4.71-3.72,10.03-1.78,14.98,2.31,5.9,8.3,10.83,15.26,12.56,2.46.61,4.84.63,6.95.64,1.04,0,2.11.01,3.07.1.83.08,1.62.25,2.26.5-.65.03-1.24.03-1.57.03h-.25c-6.85.05-19.41,1.72-26.66,12.42-6.16,9.09-7.73,23.33,1.17,32.98,3.31,3.58,7.36,5.93,11.78,7.54.51,1.83,1.35,3.49,2.52,4.95,3.07,3.84,7.84,5.81,14.28,5.85,1.5.43,3.12.8,4.83,1.11-.49.8-.95,1.64-1.33,2.54-2.25,5.28-2.2,11.71.12,16.78,5.17,11.3,16.23,15.54,27.92,17.16-.03,3.4.49,14.68,8.27,20.86,3.13,2.49,6.93,3.75,11.29,3.75,2.37,0,4.94-.38,7.66-1.14,11.41-3.23,15-10.63,17.37-15.54,1.91-3.97,2.16-3.97,3.33-3.97h.21c5.08.16,8.94,1.38,12.68,2.57,3.58,1.14,7.29,2.32,11.63,2.32,3.56,0,7.07-.8,10.73-2.45,2.54-1.14,4.67-2.47,6.49-3.94l17.02.37c1.23.03,2.39.05,3.51.05,7.03,0,12.25-1.12,18.13-6.85,7.42-7.23,9.86-18.62,5.93-27.71-3.89-8.99-10.57-10.73-16.49-12.28-.56-.15-1.11-.29-1.66-.44,6.03-.33,13.15-1.66,17.37-9.67.8-1.52,1.39-3.04,1.8-4.56,4.39-1.33,8.33-4.05,11.55-8.01,5.18-6.36,7.79-15.34,6.82-23.44Z" />
    <path class="cls-6"
      d="M39.3,64.47c.06.11.12.22.17.34,2.8,6.05-4.3,5.95-7.71,5.97-8.64.06-17.58,2.81-22.63,10.26-5.4,7.97-6.06,19.56.72,26.9,8.74,9.48,25.38,9.01,37.1,10.4,2.16.26,4.44.55,6.19,1.84,1.76,1.29,2.74,3.92,1.5,5.71-1.05,1.52-3.12,1.83-4.86,2.44-7.38,2.58-10.13,12.56-6.88,19.67,7.81,17.05,33.97,15.04,49.42,15.38,26.94.59,53.89,1.17,80.83,1.76,7.64.17,12.35.2,18.1-5.4,5.78-5.63,8.06-14.84,4.85-22.25-4.13-9.56-12.1-8.18-19.99-11.65-7.67-3.37-10.38-12.9-2.83-18.15,3.29-2.28,7.43-2.98,11.43-3.09,4-.11,8.01.3,12-.04,12.33-1.05,19.82-15.16,18.42-26.83-.41-3.38-1.6-6.81-4.1-9.13-3.99-3.68-10.85-.82-14.88-3.65-4.14-2.91,2.13-6.89,2.96-10.19,1.16-4.6-.47-9.98-3.57-13.47-4.79-5.4-9.82-4.3-15.86-6.15-6.48-1.97-3.72-7.07-4.08-12.46-.21-3.04-2.44-5.65-5.1-7.13-2.67-1.48-5.74-2.01-8.75-2.48-24.96-3.9-50.39-7.54-75.79-8.14-4.12-.1-8.55-.04-11.9,2.36-3.23,2.3-4.79,6.39-4.97,10.35-.22,4.68,4.73,13.29-1.13,15.68-1.55.63-3.27.7-4.94.72-14.43.22-41.39-9.15-51.13,5.7-5.87,8.96,1.65,17.87,10.56,20.08,3.01.75,6.19.34,9.28.62,2.97.27,6.17,1.43,7.58,4.02Z" />
    <path class="cls-2"
      d="M176.55,166.12c-1.09,0-2.22-.02-3.42-.05l-80.84-1.76c-1.71-.04-3.55-.05-5.49-.05-15.86-.07-37.58-.17-44.77-15.88-1.88-4.09-1.91-9.3-.08-13.58,1.53-3.6,4.2-6.22,7.51-7.38.38-.13.77-.25,1.16-.37,1.33-.4,2.59-.78,3.23-1.71.91-1.32.07-3.41-1.28-4.4-1.6-1.17-3.8-1.43-5.74-1.66-2.05-.24-4.24-.43-6.56-.62-11.1-.94-23.68-2-31.13-10.07-7.51-8.14-6.09-20.28-.81-28.08,6.23-9.19,17.34-10.64,23.41-10.68h.24c2.07-.01,5.92-.04,6.91-1.61.42-.66.32-1.68-.3-3.01-.04-.09-.09-.19-.14-.28h0c-1.51-2.76-5.28-3.39-6.83-3.53-1.11-.1-2.28-.11-3.4-.12-1.98-.01-4.02-.03-6.02-.53-5.75-1.43-10.67-5.42-12.53-10.17-1.48-3.78-.99-7.71,1.4-11.36,7.48-11.41,24.66-9.16,38.46-7.35,4.98.65,9.72,1.27,13.45,1.21,1.64-.02,3.23-.09,4.6-.65,3.05-1.24,2.53-4.51,1.38-9.35-.47-2-.92-3.89-.85-5.49.22-4.7,2.22-8.84,5.37-11.08,3.54-2.53,8.11-2.63,12.47-2.53,25.91.61,51.71,4.36,75.92,8.15,3.35.52,6.34,1.08,9.06,2.59,3.24,1.79,5.38,4.82,5.59,7.9.1,1.47-.02,2.87-.13,4.23-.31,3.7-.52,6.14,3.55,7.38,1.74.53,3.41.81,5.02,1.08,3.95.67,7.68,1.3,11.27,5.34,3.44,3.88,4.96,9.64,3.78,14.33-.33,1.31-1.31,2.61-2.27,3.86-1.09,1.44-2.22,2.93-2.05,4.02.07.46.39.88.98,1.3,1.64,1.16,3.95,1.24,6.39,1.32,3.05.1,6.21.21,8.59,2.42,3.01,2.78,4.06,6.82,4.4,9.71.85,7.06-1.43,14.91-5.96,20.47-3.6,4.42-8.21,6.99-13.33,7.43-2.41.21-4.84.14-7.19.08-1.6-.04-3.25-.09-4.86-.04-4.7.13-8.27,1.08-10.91,2.92-2.9,2.02-4.33,4.84-4.03,7.95.34,3.55,2.98,6.91,6.7,8.55,2.22.97,4.47,1.56,6.64,2.13,5.51,1.44,10.72,2.8,13.84,10.01,3.29,7.62,1.21,17.2-5.06,23.31-5.15,5.01-9.54,5.72-15.37,5.72ZM40.14,64.01c.07.13.14.26.2.39.91,1.96.97,3.58.18,4.83-1.55,2.45-5.74,2.47-8.51,2.49h-.24c-5.7.04-16.11,1.37-21.85,9.84-4.86,7.17-6.21,18.31.63,25.72,6.95,7.53,19.14,8.56,29.89,9.47,2.33.2,4.54.38,6.62.63,2.07.25,4.64.55,6.64,2.02,2.1,1.54,3.3,4.73,1.72,7.02-1.02,1.48-2.73,2-4.25,2.45-.37.11-.73.22-1.08.34-2.8.98-5.06,3.23-6.39,6.33-1.62,3.81-1.6,8.42.06,12.04,6.69,14.6,27.71,14.7,43.05,14.77,1.95,0,3.8.02,5.52.05l80.84,1.76c7.41.16,11.88.26,17.42-5.13,5.63-5.48,7.58-14.39,4.64-21.19-2.75-6.37-7.3-7.55-12.58-8.93-2.25-.59-4.57-1.19-6.93-2.23-4.41-1.94-7.41-5.81-7.83-10.11-.36-3.77,1.4-7.3,4.84-9.69,2.95-2.05,6.86-3.12,11.94-3.26,1.67-.04,3.34,0,4.97.04,2.3.06,4.68.12,6.98-.07,5.8-.49,9.73-3.93,12.01-6.73,4.21-5.17,6.33-12.47,5.55-19.04-.31-2.58-1.22-6.15-3.81-8.54-1.87-1.73-4.54-1.82-7.37-1.91-2.61-.09-5.31-.18-7.42-1.66-1.02-.72-1.61-1.58-1.77-2.56-.29-1.89,1.08-3.7,2.41-5.46.84-1.11,1.7-2.25,1.94-3.18,1.04-4.11-.31-9.17-3.36-12.6-3.14-3.54-6.4-4.09-10.17-4.73-1.67-.28-3.41-.57-5.26-1.14-5.53-1.69-5.2-5.59-4.89-9.36.11-1.29.22-2.62.13-3.94-.2-2.92-2.51-5.2-4.61-6.36-2.45-1.36-5.27-1.88-8.44-2.37-24.15-3.78-49.88-7.52-75.67-8.12-4.05-.1-8.26,0-11.33,2.18-2.67,1.91-4.38,5.5-4.57,9.62-.06,1.33.36,3.09.8,4.96,1.01,4.28,2.27,9.61-2.51,11.55-1.68.68-3.46.76-5.29.79-3.88.06-8.67-.57-13.72-1.23-13.97-1.83-29.8-3.91-36.62,6.5-2.05,3.12-2.47,6.45-1.22,9.63,1.64,4.19,6.05,7.73,11.22,9.01,1.78.44,3.63.46,5.58.47,1.16,0,2.36.02,3.55.13,3.93.36,6.96,2,8.33,4.51h0Z" />
    <path class="cls-2"
      d="M85.92,187.85c-3.45,0-6.42-.97-8.83-2.89-7.28-5.78-6.78-17.92-6.76-18.43l1.57-40.36c-6.27,1.15-12.51,1.73-18.55,1.73-6.96,0-13.18-.78-17.99-2.25h-.44c-5.19,0-8.98-1.46-11.29-4.35-6.43-8.06.72-25.01,19.13-45.4-6.71-11.84-.51-30.04,14.36-41.8,15.03-11.92,34.25-13.69,44.17-4.19,22.85-12.29,40.14-15,46.32-7.24,1.78,2.23,2.53,5.17,2.23,8.73,2.66,10.91-.03,27.31-6.86,42.09l39.06,13.1c1.22.41,12.06,4.23,15.4,12.48h0c1.54,3.84,1.17,7.95-1.09,12.22-3.86,7.32-10.81,7.51-16.94,7.67-5.64.15-10.52.29-12.77,5.49-2.4,5.48-3.01,11.56-3.6,17.44-1.15,11.51-2.23,22.27-15.13,28.09-8.04,3.63-13.62,1.85-19.53-.03-3.81-1.21-8.12-2.57-13.75-2.75-3.99-.12-5.17,1.93-7.23,6.2-2.31,4.77-5.19,10.71-14.89,13.45-2.37.66-4.58.99-6.59.99ZM73.9,123.85l-1.67,42.76c0,.12-.48,11.68,6.04,16.86,3.32,2.65,7.92,3.17,13.72,1.55,8.88-2.51,11.43-7.79,13.69-12.44,1.92-3.99,3.58-7.45,9-7.27,5.89.18,10.34,1.59,14.26,2.83,6.04,1.93,10.81,3.44,18.19.12,11.9-5.37,12.92-15.59,14.01-26.42.62-6.15,1.24-12.38,3.76-18.14,2.74-6.31,8.7-6.48,14.46-6.64,6.15-.17,11.97-.32,15.31-6.66,1.98-3.76,2.32-7.33,1-10.63-3.07-7.59-13.78-11.24-14.23-11.39l-41.09-13.78.46-.97c7.02-14.73,9.83-31.19,7.15-41.94l-.04-.16v-.16c.3-3.13-.31-5.66-1.8-7.53-5.44-6.84-22.93-3.68-44.54,8.06l-.63.34-.5-.52c-9.1-9.37-27.6-7.68-42.14,3.85-14.39,11.38-20.34,28.92-13.55,39.93l.38.61-.48.53c-17.53,19.28-25.19,36.34-19.52,43.45,1.93,2.42,5.23,3.65,9.8,3.65h.72s.14.03.14.03c4.65,1.45,10.73,2.21,17.58,2.21,6.3,0,12.82-.64,19.37-1.91l1.18-.23Z" />
    <path class="cls-1"
      d="M147.7,31.73s-.02-.04-.02-.06c-.07-.28-.14-.55-.22-.82-.14-.53-.32-1.03-.5-1.5-.18-.47-.37-.91-.59-1.32-.31-.61-.65-1.15-1.02-1.62-1.74-2.18-4.77-3.25-8.85-3.25-1.47,0-3.08.14-4.82.42-1.15.18-2.36.43-3.62.73-6.94,1.68-15.45,5.17-24.93,10.36-2.47,1.35-4.97,2.81-7.5,4.35-2.52,1.53-5.07,3.18-7.62,4.89-2.57,1.73-5.13,3.52-7.67,5.38-.52.38-1.03.77-1.55,1.15-2.03,1.5-4.04,3.04-6.03,4.63-.96.76-1.91,1.52-2.84,2.3-4.58,3.75-8.97,7.62-13.05,11.54-.86.82-1.71,1.64-2.55,2.47l-.14.14c-.56.55-1.13,1.11-1.68,1.68-1.89,1.93-3.7,3.84-5.43,5.74-1.21,1.33-2.37,2.66-3.49,3.97-1.47,1.74-2.85,3.45-4.15,5.13-.34.42-.65.85-.97,1.27-2.49,3.33-4.61,6.52-6.33,9.52-.86,1.5-1.62,2.95-2.27,4.34-.32.7-.62,1.38-.9,2.04-2.55,6.23-2.82,11.18-.46,14.14,1.31,1.64,3.82,3.08,7.26,4.15,8.56,2.68,22.32,3.08,37.19.14l.44-11.38s0-.07.02-.1c.1-2.74,1.47-6.2,4.06-10.13,3.99-6.05,10.43-12.6,18.11-18.44,13.96-10.6,27.94-15.82,34.46-13.37.1-.02.2-.02.31.01l8.85,2.96,1.32.44c5.8-12.25,8.07-24.31,8.07-33.26,0-3.4-.34-6.34-.91-8.68ZM46.51,119.01c.01.14-.01.28-.02.36-.25,1.51-2.25,2.43-4.99,2.43-.71,0-1.45-.06-2.23-.19-3.8-.64-6.42-2.54-6.1-4.45.13-.9.92-1.62,2.22-2.05h.01c1.37-.43,3.13-.5,4.97-.19,2.17.36,3.99,1.16,5.07,2.15.11.08.2.19.3.3h.01c.1.1.18.2.25.31.16.2.28.42.36.64.08.19.12.4.13.59.01.02.01.06.01.08v.02ZM52.84,105.03s-.01,0-.01.01c-.24.32-.52.61-.82.83-1.04.83-2.48,1.25-4.05,1.25-1.45,0-3.01-.36-4.45-1.08-2.07-1.04-3.56-2.68-3.98-4.4-.28-1.16-.07-2.27.6-3.19.62-.89,1.62-1.52,2.9-1.85,1.29-.34,2.77-.31,4.22.04.76.18,1.49.46,2.19.8,2.07,1.04,3.56,2.68,3.98,4.4.28,1.16.07,2.27-.59,3.19ZM140.47,31.13c.58-1.32,1.38-1.67,1.94-1.73,1.85-.18,3.55,2.57,3.93,6.4.26,2.63-.18,5.01-1.16,6.22-.41.49-.89.77-1.41.83-.06,0-.12.01-.18.01-.23,0-.46-.05-.68-.14-.04,0-.07-.02-.12-.04-.28-.12-.53-.31-.78-.56-.08-.07-.17-.17-.25-.26-.08-.1-.16-.19-.24-.3-.16-.2-.3-.44-.43-.7-.62-1.14-1.08-2.69-1.25-4.4-.2-2.05.02-3.99.64-5.33ZM69.42,88.13c-1.43,1.38-3.4,2.11-5.48,2.11-.85,0-1.71-.12-2.57-.37-1.25-.37-2.39-.98-3.38-1.83-1.71-1.47-2.72-3.51-2.78-5.57-.05-1.89.67-3.64,2.04-4.96,2.58-2.47,6.83-2.8,10.16-.8.4.23.8.52,1.26.9,1.73,1.47,2.73,3.51,2.78,5.59.05,1.88-.67,3.64-2.04,4.95ZM93.12,65.15c-.3,2.64-1.63,5.02-3.75,6.71-1.86,1.5-4.1,2.25-6.3,2.25-1.8,0-3.57-.5-5.12-1.51-.8-.52-1.5-1.15-2.09-1.89-1.51-1.88-2.18-4.27-1.91-6.71.29-2.64,1.62-5.02,3.75-6.71,2.12-1.7,4.73-2.48,7.37-2.18,2.42.26,4.58,1.43,6.08,3.27.04.05.08.1.11.14,1.46,1.86,2.12,4.21,1.86,6.63ZM109.61,55.65c-1.15.8-2.46,1.19-3.78,1.19-2.33,0-4.66-1.2-6.21-3.39-.13-.19-.28-.41-.41-.64-2.28-3.9-1.37-8.98,2.03-11.32,1.55-1.08,3.42-1.44,5.27-1.03,2.07.46,3.94,1.87,5.11,3.87.22.37.42.76.58,1.17.12.29.23.58.31.87.18.58.3,1.17.35,1.76.3,2.97-.89,5.87-3.25,7.5ZM130.29,44.26c-.13.12-.26.22-.41.31-.14.08-.29.17-.43.24-.53.26-1.09.41-1.67.41-.52,0-1.04-.11-1.57-.32-1.7-.68-3.19-2.43-3.98-4.67-.86-2.45-.78-5.15.22-7.08.48-.97,1.19-1.7,2.03-2.12,1.01-.5,2.15-.54,3.26-.08,1.7.7,3.19,2.45,3.97,4.7,1.17,3.31.58,6.94-1.41,8.63Z" />
    <path class="cls-6"
      d="M147.56,27.72s-.05-.1-.07-.13c-.36-.73-.76-1.37-1.2-1.91-5.55-6.98-21.9-4-43.73,7.95-1.25.68-2.49,1.38-3.75,2.12-.46.25-.91.52-1.38.8-4.12,2.43-8.33,5.13-12.53,8.03-.4.28-.8.55-1.2.83-1.28.9-2.58,1.83-3.87,2.78-.86.62-1.71,1.26-2.55,1.89-.96.72-1.93,1.45-2.9,2.22-.79.61-1.58,1.22-2.36,1.85-2.15,1.7-4.26,3.45-6.33,5.21-.65.54-1.29,1.1-1.93,1.65-1.89,1.65-3.74,3.32-5.54,4.97-.06.05-.11.11-.17.16-.22.2-.42.4-.65.62h-.01c-.22.2-.46.42-.7.65l-.52.5c-.38.36-.77.73-1.15,1.1-.11.1-.22.2-.32.31-3.03,2.94-5.89,5.89-8.53,8.81-17.09,18.84-24.21,34.92-18.6,41.97.1.12.19.23.29.34.1.12.2.23.32.34.06.06.12.13.19.19.1.1.2.19.31.29.05.05.11.1.17.13.32.28.68.54,1.08.79.19.13.4.26.61.38.41.25.85.49,1.33.72-1.16-.17-2.21-.44-3.13-.83-1.43-.59-2.58-1.43-3.44-2.5-5.63-7.07,2.15-24.14,19.81-43.46,7.37-8.05,15.92-15.97,25.39-23.51,10.1-8.03,20.75-15.18,30.79-20.64.04-.02.08-.05.12-.07,14.3-7.79,26.5-11.85,34.8-11.85,4.46,0,7.79,1.17,9.71,3.58.82,1.03,1.35,2.27,1.63,3.72Z" />
    <path class="cls-5"
      d="M143.01,37.17c.16,1.47.05,2.91-.26,4-.52-.54-1.03-1.53-1.37-2.85-.04-.16-.07-.3-.11-.46-.06-.25-.11-.52-.14-.79-.05-.24-.07-.48-.1-.73-.07-.71-.08-1.4-.05-2.06.01-.24.04-.47.06-.7.05-.37.12-.72.2-1.04.01-.07.04-.13.06-.19.74.79,1.49,2.53,1.7,4.82Z" />
    <path class="cls-4"
      d="M131.71,72.85c2.41,3.18-.19,9.67-6.05,16.89-1.13-.19-2.29.29-2.96,1.29l-4.15,6.27c-2.34,2.19-4.9,4.38-7.66,6.46-3.69,2.8-7.44,5.24-11.06,7.25l-5.74.24c-1.65.07-2.94,1.47-2.88,3.13.01.24.05.48.12.7-7.58,2.94-13.62,3.33-15.82.42-.62-.82-.91-1.88-.88-3.16.06-2.52,1.38-5.84,3.86-9.61,3.92-5.95,10.26-12.38,17.84-18.14,11.28-8.56,23.09-13.72,30.06-13.72,1.39,0,2.59.2,3.56.65.73.31,1.32.76,1.76,1.34Z" />
    <path class="cls-5"
      d="M129.52,37.39c.73,2.1.68,4.39-.1,6.03h0c-.16.13-.31.23-.49.31-.7.36-1.47.37-2.27.05-1.39-.55-2.61-2.04-3.3-3.97-.35-.99-.53-2.04-.53-3.04,0-.54.05-1.08.16-1.57.06-.25.12-.49.2-.73.04-.11.07-.22.12-.32.05-.12.1-.25.17-.36.17-.14.32-.23.47-.3.68-.36,1.47-.37,2.27-.05,1.39.55,2.61,2.04,3.3,3.96Z" />
    <path class="cls-5"
      d="M111.55,47.5c.53,2.79-.47,5.68-2.61,7.17h-.01c-.12.08-.24.17-.36.24-.25.14-.5.26-.77.37-.13.05-.25.1-.38.13-1.1.35-2.27.32-3.37-.05-.37-.11-.73-.26-1.08-.46-.43-.24-.85-.54-1.23-.88-.4-.35-.76-.76-1.09-1.22,0-.01-.01-.01-.01-.02-1.28-3.21-.34-6.9,2.18-8.67,1.21-.84,2.67-1.15,4.14-.89,1.64.3,3.1,1.29,4.17,2.78h0c.1.25.18.49.25.74.07.24.13.49.18.74Z" />
    <path class="cls-5"
      d="M100.03,31.67c-.47.25-.93.52-1.41.78-.56.32-1.13.65-1.7.98-1.83,1.05-3.69,2.17-5.56,3.33-.24.14-.48.3-.73.46-1.13.71-2.27,1.44-3.4,2.18-1.29.85-2.6,1.73-3.91,2.63-.65.44-1.31.9-1.95,1.35-1.99,1.39-3.98,2.84-5.96,4.32-1.25.94-2.49,1.88-3.73,2.85-.64.49-1.27.99-1.91,1.5-1.67,1.32-3.3,2.66-4.9,4.02-.7.56-1.38,1.14-2.06,1.74-1.13.96-2.24,1.93-3.34,2.91-.99.88-1.97,1.76-2.94,2.66-.1.08-.19.18-.3.28-.42.38-.83.78-1.26,1.17-.5.47-1.02.95-1.52,1.45-.12.12-.25.24-.38.36-.52.49-1.03.99-1.53,1.49-1.79,1.76-3.52,3.55-5.21,5.32-.05.06-.11.11-.16.17-.47.49-.92.98-1.38,1.47-6.45-10.96-.58-28.04,13.68-39.32,8.22-6.51,17.64-9.88,25.92-9.88,6.2,0,11.76,1.91,15.67,5.78Z" />
    <path class="cls-5"
      d="M90.69,59.78c1.01,1.52,1.45,3.36,1.23,5.24-.25,2.31-1.43,4.41-3.3,5.91-2.13,1.71-4.82,2.34-7.28,1.81-.14-.02-.29-.06-.43-.1-.25-.06-.49-.14-.73-.24-.18-.06-.36-.14-.54-.23-.18-.07-.36-.17-.54-.26-.14-.07-.29-.16-.43-.25h-.01c-2.7-3.52-1.93-8.73,1.74-11.66,2.94-2.35,6.9-2.64,9.9-.74.13.17.26.35.38.53Z" />
    <path class="cls-5"
      d="M195.43,99.88c1.29,3.21.97,6.71-.98,10.4-3.27,6.2-9.29,6.36-15.1,6.53-5.84.17-11.88.34-14.68,6.78-2.54,5.83-3.16,12.11-3.78,18.18-1.07,10.76-2.09,20.93-13.86,26.24-7.29,3.3-12.02,1.8-17.99-.11-3.94-1.25-8.41-2.67-14.35-2.85-5.54-.16-7.26,3.34-9.23,7.41-2.23,4.61-4.76,9.84-13.54,12.31-5.68,1.61-10.21,1.1-13.48-1.5-6.39-5.07-5.95-16.54-5.95-16.66l1.63-41.85c3.48-.7,7.02-1.59,10.58-2.68,4.35-1.34,8.74-2.98,13.05-4.99l11.75-.49,4.41,9.94.02.07c.1.32.26.64.49.9l-8.32-.84c-1.63-.16-3.1,1.03-3.28,2.67l-1.79,17.15c-.18,1.64,1.02,3.12,2.66,3.28.11.01.22.02.32.02,1.51,0,2.82-1.15,2.97-2.68l1.49-14.18,13.72,1.38c.64.07,1.25-.07,1.76-.36.46-.16.89-.43,1.22-.83l8.92-11.2,9.76,1.26-.71,10.4c-.11,1.65,1.14,3.08,2.79,3.2h.2c1.56,0,2.88-1.21,2.98-2.79l.9-13.22c.11-1.58-1.04-2.97-2.61-3.18l-12.97-1.67-1.49-1.09.74-.9c.43.08.89.13,1.34.13,3.9,0,7.06-3.16,7.06-7.06s-3.16-7.06-7.06-7.06-7.06,3.16-7.06,7.06c0,1.71.61,3.27,1.62,4.48l-.42.61-1.31-.95c-.18-.14-.36-.25-.56-.34l-5.71-7.32,4.04-6.1c6.56-6.88,11.67-14.55,15.47-22.28l40.22,13.48c.12.04,11.05,3.73,14.08,11.26Z" />
    <path class="cls-5"
      d="M132.82,72.36l7.19,2.41c-2.98,6.15-6.89,12.31-11.84,18.14.08-1.03-.38-2.06-1.29-2.68,4.41-5.5,6.92-10.61,6.92-14.38,0-1.34-.31-2.51-.97-3.48Z" />
    <path class="cls-5"
      d="M122.25,114.1l-4.69,5.92-3.42-7.71c-.5-1.13-1.63-1.82-2.86-1.79l-1.63.07c2.17-1.4,4.3-2.9,6.38-4.49l6.22,8Z" />
    <path class="cls-5"
      d="M115.93,101.24l-.5.77c-.64.95-.66,2.16-.12,3.13-2.61,2.03-5.33,3.88-8.14,5.56l-4.69.2c2.98-1.79,6.05-3.86,9.12-6.19,1.5-1.14,2.95-2.3,4.33-3.48Z" />
    <path class="cls-5"
      d="M91.93,116.18c.55.65,1.37,1.05,2.28,1.07-6.64,2.77-13.44,4.79-20.03,6.17l.29-7.32s.05.08.08.13c1.27,1.67,3.49,2.47,6.38,2.47s6.8-.86,11-2.52Z" />
    <path class="cls-5"
      d="M70.25,83.22v.17c0,1.47-.59,2.84-1.68,3.88-1.33,1.28-3.26,1.91-5.25,1.74-.17,0-.34-.02-.5-.05-.35-.05-.7-.12-1.04-.22,0,0-.01,0-.01-.01-.41-.24-.76-.49-1.07-.77-1.45-1.25-2.31-2.96-2.36-4.69-.05-1.55.55-3,1.68-4.08,1.7-1.63,4.33-2.18,6.86-1.44.16.1.31.19.47.3.01.02.02.02.04.02.17.13.34.26.52.42,1.46,1.26,2.33,2.97,2.36,4.71Z" />
    <path class="cls-5"
      d="M52.26,102.13c.19.8.06,1.57-.4,2.21-.08.11-.18.22-.28.31-.07.07-.14.14-.22.19-1.67.4-3.69.12-5.47-.78-1.75-.86-3-2.22-3.33-3.6-.2-.82-.07-1.58.38-2.21.14-.2.31-.38.48-.52.01,0,.04-.01.05-.01.23-.05.47-.1.72-.12.25-.04.52-.05.78-.05,1.31,0,2.69.34,3.93.96,1.75.87,3,2.23,3.34,3.61Z" />
    <path class="cls-5"
      d="M45.08,118.43s.06.1.08.14c-1.1.24-2.47.25-3.86.02-2.6-.44-4.49-1.56-5-2.48.14-.04.29-.06.44-.08.11-.01.22-.02.34-.05.94-.1,2.01-.07,3.09.11.19.04.37.07.55.11.29.06.56.13.83.2.14.05.29.08.42.13.58.18,1.09.4,1.52.64.13.07.25.13.36.2.17.1.32.19.46.3.34.26.6.52.77.76Z" />
    <path class="cls-2"
      d="M196.54,99.42c1.43,3.56,1.08,7.41-1.04,11.42-3.6,6.82-9.96,7-16.12,7.17-5.72.16-11.12.31-13.62,6.07-2.47,5.65-3.08,11.84-3.68,17.82-1.11,11.12-2.16,21.62-14.56,27.22-7.71,3.48-12.87,1.83-18.86-.07-3.86-1.22-8.25-2.61-14.01-2.79-4.76-.14-6.19,2.73-8.11,6.74-2.23,4.6-5,10.32-14.29,12.95-2.28.64-4.39.96-6.33.96-3.24,0-5.99-.9-8.23-2.68-6.87-5.45-6.42-17.15-6.4-17.64l1.62-41.56c.4-.07.8-.14,1.21-.24l-1.63,41.85c0,.12-.44,11.59,5.95,16.66,3.27,2.6,7.8,3.1,13.48,1.5,8.79-2.47,11.32-7.7,13.54-12.31,1.97-4.06,3.69-7.56,9.23-7.41,5.93.18,10.4,1.61,14.35,2.85,5.97,1.91,10.7,3.4,17.99.11,11.77-5.31,12.79-15.47,13.86-26.24.61-6.08,1.23-12.36,3.78-18.18,2.81-6.45,8.85-6.62,14.68-6.78,5.81-.17,11.83-.34,15.1-6.53,1.95-3.69,2.28-7.19.98-10.4-3.03-7.53-13.96-11.22-14.08-11.26l-40.22-13.48c.18-.36.36-.72.53-1.09l40.07,13.44c.47.16,11.57,3.9,14.82,11.94Z" />
    <path class="cls-2"
      d="M147.42,117.62c1.57.2,2.72,1.59,2.61,3.18l-.9,13.22c-.11,1.58-1.43,2.79-2.98,2.79h-.2c-1.65-.12-2.9-1.55-2.79-3.2l.71-10.4-9.76-1.26,1.32-1.65c.98-1.17.8-2.97-.38-3.92l-.59-.42,12.97,1.67Z" />
    <path class="cls-2"
      d="M148.87,31.47c2.51,10.04.5,26.39-7.22,42.58l-1.11-.37c5.8-12.25,8.07-24.31,8.07-33.26,0-3.4-.34-6.34-.91-8.68.08.25.32.42.61.4.29-.02.52-.25.55-.54,0-.04.01-.08.01-.12Z" />
    <path class="cls-2"
      d="M146.86,23.26c1.64,2.06,2.33,4.83,2.01,8.21-.01-.02-.01-.06-.02-.08-.35-1.39-.78-2.61-1.29-3.67-.28-1.45-.82-2.68-1.63-3.72-1.92-2.41-5.25-3.58-9.71-3.58-8.29,0-20.5,4.06-34.8,11.85.1-.1.16-.23.18-.36.04-.18-.02-.37-.14-.5-.11-.11-.22-.23-.34-.34,22.39-12.15,39.9-15.15,45.74-7.82Z" />
    <path class="cls-2"
      d="M148.87,31.47s-.01.08-.01.12c-.04.29-.26.52-.55.54-.29.02-.53-.14-.61-.4,0-.02-.01-.04-.01-.06-.07-.28-.14-.55-.23-.82-.14-.53-.32-1.03-.5-1.5-.18-.47-.37-.91-.59-1.32-.31-.61-.65-1.15-1.02-1.62-1.74-2.18-4.77-3.25-8.85-3.25-1.47,0-3.08.14-4.82.42-1.15.18-2.36.42-3.62.73-6.94,1.68-15.45,5.17-24.93,10.36-2.47,1.35-4.97,2.81-7.5,4.35-.55.32-1.09.66-1.64.99-1.94,1.21-3.93,2.52-5.98,3.9-2.57,1.73-5.13,3.52-7.67,5.38-.53.37-1.03.76-1.55,1.15-2.03,1.5-4.04,3.04-6.03,4.63-5.6,4.46-10.97,9.12-15.89,13.84-.88.82-1.73,1.64-2.55,2.47-.05.05-.1.1-.14.14-.56.55-1.13,1.11-1.68,1.68-1.89,1.93-3.7,3.84-5.43,5.74-1.21,1.33-2.37,2.66-3.49,3.97-1.47,1.74-2.86,3.45-4.15,5.13-.34.42-.65.85-.97,1.27-2.49,3.33-4.61,6.52-6.33,9.52-.86,1.5-1.62,2.95-2.27,4.34-.32.7-.62,1.37-.9,2.04-2.55,6.23-2.82,11.18-.46,14.14,1.31,1.64,3.82,3.08,7.26,4.15.28.1.46.37.42.66-.05.29-.29.5-.59.52h-.11s-.06-.01-.08-.02c-1.31-.41-2.49-.87-3.54-1.38-.48-.23-.92-.47-1.33-.72-.22-.12-.42-.25-.61-.38-.4-.25-.76-.52-1.08-.79-.06-.05-.12-.1-.17-.13-.11-.1-.22-.19-.31-.29-.07-.06-.13-.13-.19-.19-.12-.11-.22-.22-.32-.34-.1-.11-.19-.22-.29-.34-5.61-7.05,1.51-23.12,18.6-41.97,2.65-2.92,5.5-5.87,8.53-8.81.11-.11.22-.22.32-.31.38-.37.77-.74,1.15-1.1.4-.38.8-.77,1.21-1.15h.01c.26-.26.54-.52.82-.78,1.8-1.65,3.64-3.32,5.54-4.97.64-.55,1.28-1.1,1.93-1.65,2.07-1.76,4.18-3.51,6.33-5.21.78-.62,1.57-1.23,2.36-1.85.96-.74,1.93-1.49,2.9-2.22.84-.64,1.69-1.27,2.55-1.89,1.69-1.23,3.38-2.43,5.07-3.61,4.2-2.9,8.4-5.6,12.53-8.03.47-.28.92-.54,1.38-.8,1.26-.74,2.51-1.44,3.75-2.12,21.83-11.95,38.18-14.92,43.73-7.95.47.58.89,1.26,1.27,2.04.52,1.05.95,2.28,1.29,3.67.01.02.01.06.02.08Z" />
    <path class="cls-2"
      d="M147.69,31.67s.01.04.01.06c-.01-.01-.02-.04-.02-.06-.07-.28-.14-.55-.22-.82.08.26.16.54.23.82Z" />
    <path class="cls-2" d="M146.37,28.04c.22.41.41.85.59,1.32-.18-.47-.37-.91-.59-1.32Z" />
    <path class="cls-2"
      d="M146.34,35.81c.26,2.63-.18,5.01-1.16,6.22-.41.49-.89.77-1.41.83-.06,0-.12.01-.18.01-.23,0-.46-.05-.68-.14.05.01.1.01.13.01.23,0,.44-.13.54-.35.11-.25.22-.52.3-.8.13-.06.25-.16.37-.31.65-.79,1.17-2.74.9-5.35-.32-3.36-1.69-5.32-2.57-5.32h-.05c-.3.04-.55.29-.73.56-.18-.14-.36-.25-.54-.34-.14-.06-.31-.07-.47-.01-.14.06-.26.17-.32.31.58-1.32,1.38-1.67,1.94-1.73,1.85-.18,3.55,2.57,3.93,6.4Z" />
    <path class="cls-2"
      d="M145.15,35.93c.28,2.6-.25,4.55-.9,5.35-.12.16-.24.25-.37.31.38-1.26.5-2.86.34-4.53-.26-2.66-1.2-4.91-2.41-5.89.18-.28.43-.53.73-.56h.05c.88,0,2.24,1.97,2.57,5.32Z" />
    <path class="cls-2"
      d="M144.21,37.05c.17,1.67.05,3.27-.34,4.53-.07.05-.16.07-.23.07-.12.01-.24-.01-.36-.07-.17-.08-.35-.22-.54-.41.31-1.09.42-2.53.26-4-.22-2.29-.96-4.03-1.7-4.82.06-.26.16-.52.25-.73.06-.13.14-.3.24-.46,1.21.97,2.15,3.22,2.41,5.89Z" />
    <path class="cls-2"
      d="M143.65,41.66c.07,0,.16-.02.23-.07-.08.29-.19.55-.3.8-.1.22-.31.35-.54.35-.04,0-.08,0-.13-.01-.04,0-.07-.02-.12-.04-.28-.12-.53-.31-.78-.56-.08-.08-.17-.17-.25-.26-.08-.1-.16-.19-.24-.3-.14-.2-.3-.44-.43-.7-.62-1.14-1.08-2.68-1.25-4.4-.2-2.05.02-3.99.64-5.33.06-.14.18-.25.32-.31.16-.06.32-.05.47.01.18.08.36.19.54.34-.1.16-.18.32-.24.46-.1.22-.19.47-.25.73h-.01c-.02.06-.04.12-.05.19-.08.32-.16.67-.2,1.04-.02.23-.05.46-.06.7-.04.66-.02,1.35.05,2.06.02.25.06.5.1.73.04.28.08.54.14.79.02.16.06.31.11.46.34,1.32.85,2.31,1.37,2.85.19.19.37.32.54.41.12.06.24.08.36.07Z" />
    <path class="cls-2" d="M141.75,41.86c.08.1.17.18.25.26-.08-.07-.17-.17-.25-.26Z" />
    <path class="cls-2" d="M141.66,74.05c-.17.37-.35.73-.53,1.09l-1.11-.37c.19-.36.37-.72.53-1.09l1.11.37Z" />
    <path class="cls-2" d="M141.27,37.87c.04.16.07.3.11.46-.05-.14-.08-.3-.11-.46Z" />
    <path class="cls-2" d="M141.31,32.36c-.02.06-.05.12-.06.19.01-.07.02-.13.05-.2h.01Z" />
    <path class="cls-2" d="M141.08,40.87c.13.25.29.49.43.7-.16-.2-.3-.44-.43-.7Z" />
    <path class="cls-2" d="M141.03,36.35c.02.25.05.49.1.73-.04-.23-.07-.48-.1-.73Z" />
    <path class="cls-2"
      d="M140.02,74.76l1.11.37c-3.8,7.73-8.92,15.4-15.47,22.28l2.04-3.08c.3-.44.46-.93.48-1.44,4.95-5.83,8.86-11.99,11.84-18.14Z" />
    <path class="cls-2" d="M141.05,33.59c-.02.23-.05.46-.06.7.01-.24.04-.47.06-.7Z" />
    <path class="cls-2"
      d="M140.54,73.67c-.16.37-.34.73-.53,1.09l-7.19-2.41c-.05-.07-.1-.16-.16-.23-.64-.84-1.52-1.46-2.6-1.87.1-.02.2-.02.31.01l10.16,3.4Z" />
    <path class="cls-2"
      d="M135.05,99.97c3.9,0,7.06,3.16,7.06,7.06s-3.16,7.06-7.06,7.06c-.46,0-.91-.05-1.34-.13l1.85-2.24.17-.2-4.37-2.47-1.74,2.47c-1.01-1.21-1.62-2.77-1.62-4.48,0-3.9,3.16-7.06,7.06-7.06Z" />
    <path class="cls-2" d="M135.72,111.52l-.17.2-1.85,2.24c-1.64-.31-3.08-1.2-4.1-2.45l1.74-2.47,4.37,2.47Z" />
    <path class="cls-2"
      d="M135.04,116.37c1.19.95,1.37,2.74.38,3.92l-1.32,1.65-2.24-.29c-1.64-.22-2.79-1.71-2.59-3.36.08-.62.35-1.17.74-1.61l1,.54,1.27-1.55c.11,0,.23.01.35.02l1.82.24.59.42Z" />
    <path class="cls-2" d="M132.97,114.86l1.49,1.09-1.82-.24c-.12-.01-.24-.02-.35-.02l.68-.83Z" />
    <path class="cls-2"
      d="M134.11,121.94l-8.92,11.2c-.34.4-.77.67-1.22.83.83-.47,1.41-1.31,1.52-2.33.17-1.64-1.04-3.12-2.69-3.27l-4.51-.46c1.22-.78,1.73-2.35,1.11-3.72l-1.85-4.17,4.69-5.92,1.82,2.34c.6.76,1.47,1.15,2.37,1.15.64,0,1.29-.2,1.83-.64.3-.23.54-.52.72-.82l1.02.55c-.4.43-.66.98-.74,1.61-.2,1.64.95,3.14,2.59,3.36l2.24.29Z" />
    <path class="cls-2" d="M133.71,113.96l-.74.9-3.78-2.73.42-.61c1.02,1.25,2.46,2.13,4.1,2.45Z" />
    <path class="cls-2"
      d="M132.97,114.86l-.68.83c-.89-.01-1.7.37-2.27,1.01l-1.02-.55c.64-1.04.59-2.39-.19-3.39l-.04-.05.42-.58,3.78,2.73Z" />
    <path class="cls-2"
      d="M132.82,72.36c.66.97.97,2.13.97,3.48,0,3.78-2.51,8.88-6.92,14.38-.01-.01-.02-.01-.04-.02-.37-.24-.77-.4-1.19-.46,5.86-7.22,8.46-13.71,6.05-16.89-.44-.59-1.03-1.03-1.76-1.34l.05-.1,2.83.95Z" />
    <path class="cls-2"
      d="M132.67,72.13c.06.07.11.16.16.23l-2.83-.95c-.31-.11-.48-.44-.37-.76.06-.22.24-.36.44-.4,1.08.41,1.97,1.03,2.6,1.87Z" />
    <path class="cls-2" d="M132.28,115.69l-1.27,1.55-1-.54c.56-.64,1.38-1.02,2.27-1.01Z" />
    <path class="cls-2"
      d="M131.71,35.63c1.17,3.31.58,6.94-1.41,8.63-.13.12-.26.22-.41.31.14-.1.28-.2.41-.32.06-.05.11-.11.14-.17.73-1.46.96-3.36.66-5.25-.01-.92-.19-1.88-.52-2.8-.67-1.93-1.91-3.42-3.28-3.98-.38-.16-.76-.23-1.13-.23-.34,0-.65.06-.96.19-.62-.02-1.22.11-1.79.4-.35.16-.64.38-.83.55-.06.05-.11.11-.14.18.48-.97,1.19-1.7,2.03-2.12,1.01-.5,2.15-.54,3.26-.08,1.7.7,3.19,2.45,3.97,4.7Z" />
    <path class="cls-2"
      d="M131.1,38.83c.3,1.89.07,3.79-.66,5.25-.04.06-.08.12-.14.17-.13.12-.26.23-.41.32-.14.08-.29.17-.43.24-.53.26-1.09.41-1.67.41-.52,0-1.04-.11-1.57-.32-1.7-.68-3.19-2.43-3.98-4.67-.86-2.45-.78-5.15.22-7.08.04-.07.08-.13.14-.18.19-.17.48-.4.83-.55.56-.29,1.16-.42,1.79-.4-.07.01-.13.05-.2.08-.6.3-1.11.85-1.49,1.59-.01.04-.04.06-.04.1t-.02.01c-.05.11-.11.23-.14.35-.05.11-.08.22-.12.32-.08.24-.14.48-.2.73-.11.5-.16,1.03-.16,1.57,0,1.01.18,2.05.53,3.04.68,1.93,1.91,3.42,3.3,3.97.79.32,1.57.31,2.27-.05.18-.08.34-.18.49-.3h0s.06-.05.08-.07t.01-.01c1.07-.91,1.63-2.64,1.58-4.52Z" />
    <path class="cls-2"
      d="M131.1,38.83c.05,1.88-.52,3.61-1.58,4.52t-.01.01s-.06.05-.08.06c.78-1.64.83-3.93.1-6.03-.68-1.92-1.91-3.4-3.3-3.96-.79-.32-1.58-.31-2.27.05-.14.07-.3.16-.47.3,0-.04.02-.06.04-.1.37-.74.89-1.29,1.49-1.59.07-.04.13-.07.2-.08.48,0,.96.11,1.45.31,1.7.68,3.19,2.43,3.98,4.67.22.6.36,1.21.46,1.83Z" />
    <path class="cls-2"
      d="M131.1,38.83c-.1-.62-.24-1.23-.46-1.83-.79-2.24-2.28-3.99-3.98-4.67-.49-.2-.97-.31-1.45-.31.31-.13.62-.19.96-.19.37,0,.74.07,1.13.23,1.38.56,2.61,2.05,3.28,3.98.32.92.5,1.88.52,2.8Z" />
    <path class="cls-2"
      d="M130,71.41l-.05.1c-.97-.44-2.17-.65-3.56-.65-6.98,0-18.78,5.17-30.06,13.72-7.58,5.75-13.92,12.19-17.84,18.14-2.48,3.78-3.8,7.1-3.86,9.61h-.02c.01-.34-.25-.61-.58-.62-.34-.01-.56.19-.6.48.1-2.74,1.47-6.2,4.06-10.13,3.99-6.05,10.43-12.6,18.11-18.44,13.96-10.6,27.94-15.82,34.46-13.36-.2.04-.38.18-.44.4-.11.31.06.65.37.76Z" />
    <path class="cls-2" d="M128.07,24.33c1.26-.31,2.47-.55,3.62-.73-1.15.18-2.36.43-3.62.73Z" />
    <path class="cls-2" d="M129.19,112.13l-.42.58-1.45-1.86c.2.08.38.19.56.34l1.31.95Z" />
    <path class="cls-2" d="M128.81,112.75c.78,1.01.83,2.35.19,3.39l-1.91-1.04,1.68-2.4.04.05Z" />
    <path class="cls-2"
      d="M127.09,115.1l1.91,1.04c-.18.3-.42.59-.72.82-.54.43-1.2.64-1.83.64-.9,0-1.77-.4-2.37-1.15l-1.82-2.34,2-2.52c.77-.95,2.03-1.22,3.07-.74l1.45,1.86-1.68,2.4Z" />
    <path class="cls-2"
      d="M126.88,90.22c.91.62,1.38,1.65,1.29,2.68-3.44,4.04-7.38,7.9-11.88,11.48-.32.25-.65.52-.98.76-.54-.97-.52-2.18.12-3.13l.5-.77c4.35-3.67,8.05-7.43,10.94-11.03Z" />
    <path class="cls-2"
      d="M128.17,92.9c-.02.5-.18.99-.48,1.44l-2.04,3.08c-2.64,2.78-5.5,5.42-8.62,7.9-.34.26-.67.53-1.01.79l-.47-.6c-.1-.12-.18-.24-.25-.37.34-.24.66-.5.98-.76,4.5-3.58,8.44-7.44,11.88-11.48Z" />
    <path class="cls-2"
      d="M121.62,103.52l5.71,7.32c-1.04-.48-2.3-.2-3.07.74l-2,2.52-6.22-8c.34-.26.67-.53,1.01-.79,3.12-2.48,5.98-5.12,8.62-7.9l-4.04,6.1Z" />
    <path class="cls-2"
      d="M126.84,90.19s.02.01.04.02c-2.89,3.6-6.59,7.36-10.94,11.03l2.61-3.94c2.71-2.53,5.09-5.09,7.11-7.56.42.06.81.22,1.19.46Z" />
    <path class="cls-2" d="M122.7,91.03c.67-1.01,1.83-1.49,2.96-1.29-2.01,2.47-4.4,5.03-7.11,7.56l4.15-6.27Z" />
    <path class="cls-2"
      d="M122.8,128.37c1.64.16,2.85,1.63,2.69,3.27-.11,1.02-.7,1.86-1.52,2.33-.88.28-1.87.07-2.59-.64l-6.77-5.61c-.06-.06-.12-.13-.18-.2l.16.02c.56.56,1.32.86,2.1.86.41,0,.82-.08,1.21-.26.14-.06.28-.13.41-.23l4.51.46Z" />
    <path class="cls-2" d="M123.49,33.78c-.07.11-.12.24-.17.36.04-.12.1-.24.14-.35t.02-.01Z" />
    <path class="cls-2"
      d="M121.38,133.33c.72.71,1.71.91,2.59.64-.52.29-1.13.43-1.76.36l-13.72-1.38-1.49,14.18c-.16,1.53-1.46,2.68-2.97,2.68-.11,0-.22-.01-.32-.02-1.64-.17-2.84-1.64-2.66-3.28l1.79-17.15c.18-1.64,1.65-2.83,3.28-2.67l8.32.84c.06.07.12.14.18.2l6.77,5.61Z" />
    <path class="cls-2" d="M123.32,34.14c-.05.11-.08.22-.12.32.04-.11.07-.22.12-.32Z" />
    <path class="cls-2" d="M123,35.2c-.11.49-.16,1.03-.16,1.57,0-.54.05-1.07.16-1.57Z" />
    <path class="cls-2"
      d="M119.41,124.2c.61,1.37.11,2.94-1.11,3.72l-3.72-.37c-.26-.25-.49-.56-.65-.92l-.02-.07c-.26-.85-.1-1.81.49-2.53l3.16-3.99,1.85,4.17Z" />
    <path class="cls-2"
      d="M118.55,97.3l-2.61,3.94c-1.38,1.17-2.83,2.34-4.33,3.48-3.07,2.33-6.14,4.4-9.12,6.19l-2.66.11c3.62-2.01,7.37-4.45,11.06-7.25,2.76-2.09,5.32-4.27,7.66-6.46Z" />
    <path class="cls-2" d="M114.58,127.54l3.72.37c-.13.1-.26.17-.41.23-.4.18-.8.26-1.21.26-.78,0-1.53-.3-2.1-.86Z" />
    <path class="cls-2"
      d="M114.15,112.32l3.42,7.71-3.16,3.99c-.59.72-.76,1.68-.49,2.53l-4.41-9.94-11.75.49c4.04-1.86,8.04-4.02,11.9-6.5l1.63-.07c1.23-.04,2.36.66,2.86,1.79Z" />
    <path class="cls-2"
      d="M115.56,105.51l.47.6c-2.07,1.59-4.21,3.09-6.38,4.49l-2.48.1c2.8-1.68,5.53-3.54,8.14-5.56.07.13.16.25.25.37Z" />
    <path class="cls-2" d="M114.58,127.54l-.16-.02c-.23-.26-.4-.58-.49-.9.16.36.38.67.65.92Z" />
    <path class="cls-2"
      d="M112.85,48.14c.3,2.97-.89,5.87-3.25,7.5-1.15.8-2.46,1.19-3.78,1.19-2.33,0-4.66-1.2-6.21-3.39-.02-.04-.05-.08-.06-.12-.84-2.03-.92-4.2-.35-6.1-.2,1.65.12,3.43,1.03,4.99.11.18.23.37.35.53.01.01.02.04.04.05,0,.01.01.01.01.02.34.47.7.88,1.09,1.22.38.35.8.64,1.23.88.35.19.71.35,1.08.46,1.1.37,2.27.4,3.37.05.13-.04.25-.08.38-.13.26-.11.52-.23.77-.37.12-.07.24-.16.36-.24h.01c2.15-1.49,3.14-4.38,2.61-7.17-.05-.25-.11-.49-.18-.74-.07-.25-.16-.49-.25-.73h0s-.01-.05-.02-.06c-.13-.35-.3-.66-.52-1.03-.7-1.21-1.69-2.16-2.83-2.74,1.74.47,3.27,1.59,4.39,3.21.02.04.05.07.06.11.12.29.23.58.31.88.18.58.29,1.17.35,1.76Z" />
    <path class="cls-2" d="M112.85,48.14c-.06-.59-.17-1.19-.35-1.76.18.58.3,1.17.35,1.76Z" />
    <path class="cls-2"
      d="M112.2,45.51s-.04-.07-.06-.11c-1.11-1.62-2.65-2.74-4.39-3.21-.48-.26-.98-.44-1.5-.56-.41-.08-.82-.13-1.22-.13-1.1,0-2.18.34-3.12.98-1.55,1.07-2.48,2.83-2.7,4.75-.58,1.91-.49,4.08.35,6.1.01.04.04.08.06.12-.13-.19-.28-.41-.41-.64-2.28-3.9-1.37-8.98,2.03-11.32,1.55-1.08,3.42-1.44,5.27-1.03,2.07.46,3.94,1.87,5.11,3.87.22.37.42.76.58,1.17Z" />
    <path class="cls-2" d="M111.37,46.75c.07.25.13.49.18.74-.05-.25-.11-.5-.18-.74Z" />
    <path class="cls-2"
      d="M111.09,45.96s.01.04.02.05c-1.07-1.49-2.53-2.48-4.17-2.78-1.46-.26-2.92.05-4.14.89-2.52,1.76-3.46,5.45-2.18,8.67-.01-.01-.02-.04-.04-.05-.12-.16-.24-.35-.35-.53-.91-1.56-1.23-3.33-1.03-4.99.5-1.65,1.5-3.1,2.92-4.09,1.46-1.02,3.25-1.4,5.02-1.08.2.04.4.08.59.13,1.14.59,2.13,1.53,2.83,2.74.22.37.38.68.52,1.03Z" />
    <path class="cls-2"
      d="M107.17,110.7l2.48-.1c-3.86,2.48-7.86,4.64-11.9,6.5l-3.42.14h-.13c4.42-1.83,8.79-4,12.97-6.54Z" />
    <path class="cls-2" d="M107.8,55.27c.26-.11.52-.23.77-.37-.25.14-.5.26-.77.37Z" />
    <path class="cls-2"
      d="M107.75,42.19c-.19-.05-.38-.1-.59-.13-1.77-.32-3.56.06-5.02,1.08-1.43.98-2.42,2.43-2.92,4.09.22-1.92,1.15-3.68,2.7-4.75.93-.65,2.01-.98,3.12-.98.41,0,.82.05,1.22.13.52.12,1.02.3,1.5.56Z" />
    <path class="cls-2"
      d="M102.49,110.9l4.69-.2c-4.18,2.54-8.55,4.71-12.97,6.54-.91-.01-1.73-.42-2.28-1.07,3.3-1.29,6.87-3.07,10.56-5.27Z" />
    <path class="cls-2" d="M104.04,55.36c1.1.37,2.27.4,3.37.05-1.1.35-2.27.32-3.37-.05Z" />
    <path class="cls-2"
      d="M99.82,111.01l2.66-.11c-3.69,2.21-7.26,3.98-10.56,5.27-.28-.31-.48-.68-.6-1.1,2.67-1.05,5.54-2.41,8.5-4.06Z" />
    <path class="cls-2" d="M102.97,54.9c-.43-.24-.85-.53-1.23-.88.38.34.8.64,1.23.88Z" />
    <path class="cls-2"
      d="M101.46,31.41c.12.13.18.32.14.5-.02.13-.08.26-.18.36-.04.02-.08.05-.12.07-10.04,5.47-20.69,12.61-30.79,20.64-9.47,7.54-18.02,15.45-25.39,23.51-.12.12-.28.19-.44.19h-.05c-.19-.01-.35-.12-.46-.28-.08-.13-.17-.26-.24-.4.1-.11.19-.23.3-.34.18-.19.35-.38.54-.58h0c.47-.5.92-.99,1.38-1.49,1.74-1.83,3.52-3.67,5.37-5.49.52-.49,1.02-.99,1.53-1.49.13-.12.26-.24.38-.36.5-.49,1.01-.97,1.52-1.45.43-.4.84-.79,1.26-1.17.1-.08.19-.18.3-.28.97-.9,1.94-1.79,2.94-2.66,1.1-.97,2.21-1.95,3.34-2.91.68-.59,1.37-1.17,2.06-1.74,1.61-1.35,3.24-2.7,4.9-4.02.64-.5,1.27-1.01,1.91-1.5,1.23-.97,2.48-1.92,3.73-2.85,1.98-1.47,3.97-2.92,5.96-4.32.65-.46,1.31-.91,1.95-1.35,1.31-.9,2.61-1.77,3.91-2.63,1.14-.74,2.28-1.47,3.4-2.18.25-.16.49-.31.73-.46,1.87-1.16,3.73-2.28,5.56-3.33,1.04-.61,2.09-1.2,3.12-1.76.23-.13.47-.25.7-.38.13-.07.26-.14.4-.22.12.11.23.23.34.34Z" />
    <path class="cls-2"
      d="M101.12,31.07c-.13.07-.26.14-.4.22-.23.13-.47.25-.7.38-3.91-3.87-9.47-5.78-15.67-5.78-8.27,0-17.69,3.37-25.91,9.88-14.25,11.28-20.13,28.36-13.68,39.32h0c-.19.2-.36.4-.54.59-.11.11-.2.23-.3.34-7.06-11.45-1.08-29.43,13.77-41.17,15.01-11.9,33.97-13.5,43.42-3.76Z" />
    <path class="cls-2"
      d="M94.08,111.25l5.74-.24c-2.96,1.65-5.83,3.01-8.5,4.06-.07-.22-.11-.46-.12-.7-.06-1.65,1.22-3.06,2.88-3.13Z" />
    <path class="cls-2" d="M98.81,35.75c-.46.26-.91.53-1.38.8.47-.29.92-.55,1.38-.8Z" />
    <path class="cls-2"
      d="M94.34,117.25l3.42-.14c-4.32,2-8.7,3.64-13.05,4.99-3.56,1.09-7.11,1.99-10.58,2.68l.06-1.35c6.59-1.38,13.39-3.4,20.03-6.17h.13Z" />
    <path class="cls-2"
      d="M93.99,40.03c.55-.34,1.09-.67,1.64-.99-2.52,1.53-5.07,3.18-7.62,4.89,2.05-1.38,4.04-2.68,5.98-3.9Z" />
    <path class="cls-2"
      d="M91.27,58.52c1.46,1.86,2.12,4.21,1.86,6.63-.3,2.64-1.63,5.02-3.75,6.71-1.86,1.5-4.1,2.25-6.3,2.25-1.8,0-3.57-.5-5.12-1.51-.06-.04-.11-.08-.14-.13-.85-1.07-1.41-2.28-1.69-3.54.19.36.42.71.68,1.03.5.64,1.11,1.19,1.8,1.63.02.01.05.04.07.05h.01c.14.11.29.19.43.26.18.1.36.19.54.26.18.08.36.17.54.23.24.1.48.18.73.24.14.04.29.07.43.1,2.46.53,5.14-.1,7.28-1.81,1.87-1.5,3.04-3.6,3.3-5.91.22-1.88-.23-3.72-1.23-5.24-.11-.18-.24-.36-.38-.53,0-.02-.02-.04-.04-.06-.02-.02-.04-.05-.05-.07-.8-.98-1.82-1.74-2.97-2.22,1.34.17,2.64.64,3.81,1.4.04.02.06.05.1.07.04.05.08.1.11.14Z" />
    <path class="cls-2" d="M96.91,33.44c-1.83,1.05-3.69,2.17-5.56,3.33,1.87-1.16,3.73-2.28,5.56-3.33Z" />
    <path class="cls-2"
      d="M91.33,115.08c.12.42.32.79.6,1.1-4.21,1.65-7.98,2.52-11,2.52s-5.11-.8-6.38-2.47c-.04-.05-.06-.08-.08-.13l.14-3.76h.02c-.04,1.28.25,2.35.88,3.16,2.21,2.91,8.25,2.52,15.82-.42Z" />
    <path class="cls-2"
      d="M91.16,58.38s-.06-.05-.1-.07c-1.17-.77-2.47-1.23-3.81-1.4-.72-.31-1.49-.52-2.3-.61-.32-.04-.64-.05-.96-.05-1.98,0-3.92.68-5.54,1.98-1.87,1.5-3.04,3.6-3.31,5.91-.19,1.7.14,3.38.97,4.81.28,1.26.84,2.47,1.69,3.54.04.05.08.1.14.13-.8-.52-1.5-1.15-2.09-1.89-1.51-1.88-2.18-4.27-1.91-6.71.29-2.64,1.62-5.02,3.75-6.71,2.12-1.7,4.73-2.48,7.37-2.18,2.42.26,4.58,1.43,6.08,3.27Z" />
    <path class="cls-2" d="M90.69,59.78c-.12-.18-.25-.36-.38-.53.14.17.28.35.38.53Z" />
    <path class="cls-2"
      d="M90.27,59.19s.04.04.04.06c-3-1.89-6.96-1.61-9.9.74-3.67,2.94-4.43,8.14-1.74,11.65-.02-.01-.05-.04-.07-.05-.68-.44-1.29-1-1.8-1.63-.26-.32-.49-.67-.68-1.03-.82-3.49.44-7.4,3.55-9.88,2.23-1.79,4.99-2.52,7.59-2.16,1.15.48,2.17,1.23,2.97,2.22.01.02.02.05.05.07Z" />
    <path class="cls-2" d="M90.62,37.22c-1.13.71-2.27,1.44-3.4,2.18,1.14-.74,2.28-1.47,3.4-2.18Z" />
    <path class="cls-2"
      d="M87.25,56.9c-2.6-.36-5.36.37-7.59,2.16-3.1,2.48-4.36,6.39-3.55,9.88-.83-1.43-1.16-3.1-.97-4.81.26-2.31,1.44-4.41,3.31-5.91,1.62-1.29,3.56-1.98,5.54-1.98.32,0,.64.01.96.05.82.1,1.58.3,2.3.61Z" />
    <path class="cls-2"
      d="M83.7,45.41c.4-.28.8-.55,1.2-.83-1.69,1.17-3.38,2.37-5.07,3.61,1.29-.95,2.59-1.88,3.87-2.78Z" />
    <path class="cls-2" d="M83.31,42.03c-.65.44-1.31.9-1.95,1.35.65-.46,1.31-.91,1.95-1.35Z" />
    <path class="cls-2" d="M80.92,72.64c.14.04.29.07.43.1-.14-.02-.29-.06-.43-.1Z" />
    <path class="cls-2" d="M80.33,49.31c-.52.38-1.03.77-1.55,1.15.52-.4,1.02-.78,1.55-1.15Z" />
    <path class="cls-2" d="M79.65,72.18c.18.08.36.17.54.23-.18-.06-.36-.14-.54-.23Z" />
    <path class="cls-2" d="M79.11,71.91c.18.1.36.19.54.26-.18-.07-.36-.17-.54-.26Z" />
    <path class="cls-2" d="M74.38,52.3c.97-.77,1.94-1.5,2.9-2.22-.97.73-1.94,1.47-2.9,2.22Z" />
    <path class="cls-2"
      d="M74.03,111.71c.32.01.59.29.58.62l-.14,3.76c-.76-1.05-1.1-2.36-1.03-3.91.04-.29.26-.49.6-.48Z" />
    <path class="cls-2"
      d="M74.46,116.09l-.29,7.32c-.41.08-.8.17-1.21.24l.44-11.38s0-.07.02-.1c-.07,1.55.28,2.85,1.03,3.91Z" />
    <path class="cls-2" d="M74.17,123.42l-.06,1.35c-.41.1-.82.17-1.21.24l.06-1.35c.41-.07.8-.16,1.21-.24Z" />
    <path class="cls-2" d="M75.4,47.7c-1.25.93-2.49,1.88-3.73,2.85,1.23-.97,2.48-1.92,3.73-2.85Z" />
    <path class="cls-2"
      d="M72.96,123.66l-.06,1.35c-6.93,1.34-13.57,1.93-19.55,1.93-7.11,0-13.27-.83-17.86-2.25h.11c.3-.01.54-.23.59-.52.04-.29-.14-.56-.42-.66,8.56,2.68,22.32,3.08,37.19.14Z" />
    <path class="cls-2"
      d="M71.45,83.18c.05,1.88-.67,3.64-2.04,4.95-1.43,1.38-3.4,2.11-5.48,2.11-.85,0-1.71-.12-2.57-.37-.05-.01-.1-.04-.13-.06-.5-.29-.94-.6-1.33-.94-.9-.78-1.61-1.7-2.07-2.72.28.35.59.67.94.97.86.74,1.86,1.27,2.94,1.59.02,0,.04.01.06.01,0,.01.01.01.01.01.35.1.7.17,1.04.22.17.02.34.05.5.05,1.99.17,3.92-.46,5.25-1.74,1.09-1.04,1.68-2.41,1.68-3.88v-.17c-.04-1.74-.9-3.45-2.36-4.71-.18-.16-.36-.29-.52-.42-.01,0-.02,0-.04-.02-.17-.11-.31-.2-.47-.3-.02-.01-.04-.02-.06-.04-1.27-.76-2.7-1.14-4.08-1.14-.19,0-.38.01-.56.02,1.59-.49,3.38-.5,5.12.02.04.01.08.04.12.06.4.23.8.52,1.26.9,1.73,1.47,2.73,3.51,2.78,5.59Z" />
    <path class="cls-2" d="M67.89,78.5c-.18-.16-.35-.29-.52-.42.16.13.34.26.52.42Z" />
    <path class="cls-2"
      d="M67.41,76.69s-.08-.05-.12-.06c-1.74-.53-3.52-.52-5.12-.02-1.55.11-3.01.71-4.09,1.75-1.13,1.08-1.73,2.52-1.68,4.06.04,1.32.55,2.64,1.43,3.73.47,1.02,1.17,1.94,2.07,2.72.4.34.83.65,1.33.94.04.02.08.05.13.06-1.25-.37-2.39-.98-3.38-1.83-1.71-1.47-2.72-3.51-2.78-5.57-.05-1.89.67-3.64,2.04-4.96,2.58-2.47,6.83-2.8,10.16-.8Z" />
    <path class="cls-2" d="M67.34,78.06c-.16-.11-.31-.2-.47-.3.16.1.3.19.47.3Z" />
    <path class="cls-2"
      d="M66.81,77.73s.04.02.06.04c-2.53-.74-5.15-.19-6.86,1.44-1.13,1.08-1.73,2.53-1.68,4.08.05,1.73.91,3.44,2.36,4.69.31.28.66.53,1.07.77-.02,0-.04-.01-.06-.01-1.08-.32-2.07-.85-2.94-1.59-.35-.3-.66-.62-.94-.97-.43-.9-.67-1.87-.7-2.84-.05-1.88.67-3.66,2.04-4.97.85-.8,1.87-1.39,3-1.73.18-.01.37-.02.56-.02,1.38,0,2.81.38,4.08,1.14Z" />
    <path class="cls-2" d="M65.69,59.36c-.65.55-1.29,1.1-1.93,1.65.64-.55,1.28-1.11,1.93-1.65Z" />
    <path class="cls-2" d="M64.86,56.07c-.7.56-1.38,1.15-2.06,1.74.68-.6,1.37-1.17,2.06-1.74Z" />
    <path class="cls-2" d="M62.82,88.96c.17.02.34.05.5.05-.17,0-.34-.02-.5-.05Z" />
    <path class="cls-2" d="M62.8,57.8c-1.14.96-2.24,1.94-3.34,2.91,1.1-.98,2.22-1.95,3.34-2.91Z" />
    <path class="cls-2"
      d="M62.17,76.61c-1.13.34-2.15.92-3,1.73-1.37,1.32-2.09,3.09-2.04,4.97.02.97.26,1.94.7,2.84-.87-1.09-1.39-2.41-1.43-3.73-.05-1.55.55-2.98,1.68-4.06,1.08-1.04,2.54-1.64,4.09-1.75Z" />
    <path class="cls-2" d="M58.22,65.99c-.28.26-.55.52-.82.78.23-.23.43-.42.65-.62.06-.05.11-.11.17-.16Z" />
    <path class="cls-2" d="M56.7,67.42c.24-.23.48-.44.7-.65-.41.38-.82.77-1.21,1.15l.52-.5Z" />
    <path class="cls-2" d="M56.87,68.93c-.86.82-1.71,1.64-2.55,2.47.83-.83,1.68-1.65,2.55-2.47Z" />
    <path class="cls-2" d="M56.52,63.38c-.11.1-.2.19-.3.28.11-.1.2-.19.3-.28Z" />
    <path class="cls-2" d="M55.03,69.02c-.11.1-.22.2-.32.31.11-.11.22-.22.32-.31Z" />
    <path class="cls-2" d="M53.44,66.28c.5-.5,1.02-.98,1.52-1.45-.52.48-1.02.96-1.52,1.45Z" />
    <path class="cls-2" d="M54.17,71.54c-.56.55-1.13,1.11-1.68,1.68.55-.56,1.11-1.13,1.68-1.68Z" />
    <path class="cls-2"
      d="M53.42,101.84c.28,1.16.07,2.27-.59,3.19,0,0-.01,0-.01.01-.24.32-.52.61-.82.83-.07.05-.13.08-.2.1-.62.17-1.29.25-1.98.25-.79,0-1.61-.11-2.41-.32,1.51.11,2.91-.22,3.86-.97.04-.02.07-.05.1-.08h.01c.07-.05.13-.12.2-.19.1-.08.19-.19.28-.31.46-.64.59-1.4.4-2.21-.35-1.38-1.59-2.73-3.34-3.61-1.25-.62-2.63-.96-3.93-.96-.26,0-.53.01-.78.05-.25.02-.49.07-.72.12-.01,0-.04.01-.05.01-.04.01-.07.01-.11.02-.8.2-1.45.55-1.92,1.01.11-.43.3-.84.58-1.22.25-.34.54-.62.84-.84.06-.05.12-.08.2-.1,1.29-.34,2.78-.32,4.22.02.76.18,1.49.46,2.19.8,2.07,1.04,3.56,2.69,3.98,4.4Z" />
    <path class="cls-2" d="M53.05,66.64c-.52.49-1.02,1-1.53,1.49.5-.49,1.02-.99,1.53-1.49Z" />
    <path class="cls-2"
      d="M51.81,105.97c.07-.01.13-.05.2-.1-1.04.83-2.48,1.25-4.05,1.25-1.45,0-3.01-.36-4.45-1.08-2.07-1.04-3.56-2.68-3.98-4.4-.28-1.16-.07-2.27.6-3.19.62-.89,1.62-1.52,2.9-1.85,1.29-.34,2.77-.31,4.22.04-1.44-.35-2.92-.36-4.22-.02-.08.01-.14.05-.2.1-.3.22-.59.5-.84.84-.28.38-.47.79-.58,1.22-.12.12-.22.24-.31.37-.47.64-.6,1.4-.4,2.21.34,1.38,1.58,2.73,3.33,3.61,1.09.54,2.25.86,3.38.94.8.22,1.62.32,2.41.32.68,0,1.35-.08,1.98-.25Z" />
    <path class="cls-2" d="M51.59,104.65c.1-.1.19-.2.28-.31-.08.12-.18.23-.28.31Z" />
    <path class="cls-2" d="M51.59,104.65c-.07.07-.13.14-.2.19h-.01c.07-.05.14-.12.22-.19Z" />
    <path class="cls-2"
      d="M51.38,104.84s-.06.06-.1.08c-.95.76-2.35,1.08-3.86.97-.7-.17-1.39-.43-2.04-.76-2.06-1.03-3.55-2.67-3.97-4.39-.17-.7-.17-1.35,0-1.98.47-.46,1.11-.8,1.92-1.01.04-.01.07-.01.11-.02-.17.13-.34.31-.48.52-.46.62-.59,1.39-.38,2.21.34,1.38,1.58,2.73,3.33,3.6,1.77.9,3.8,1.17,5.47.78Z" />
    <path class="cls-2"
      d="M46.51,119.01c.01.14-.01.28-.02.36-.25,1.51-2.25,2.43-4.99,2.43-.71,0-1.45-.06-2.23-.19-3.8-.64-6.42-2.54-6.1-4.45.13-.9.92-1.62,2.22-2.05-.25.1-.42.32-.41.6.01.26.07.53.19.78-.48.25-.78.54-.83.86-.17,1.02,1.99,2.55,5.12,3.08,2.36.38,4.37.06,5.31-.56h.01c.47-.07.91-.17,1.31-.29.24-.08.42-.31.42-.58Z" />
    <path class="cls-2"
      d="M46.51,118.98v.02c0,.26-.18.49-.42.58-.4.12-.84.22-1.31.29.3-.22.49-.44.53-.7-.01-.02,0-.13,0-.14-.01-.14-.06-.3-.14-.46h.01s-.05-.1-.1-.14c-.16-.25-.42-.5-.77-.76-.13-.11-.29-.2-.46-.3-.11-.07-.23-.14-.36-.2-.43-.24-.95-.46-1.52-.64-.13-.05-.28-.1-.42-.13-.26-.07-.54-.14-.83-.2-.18-.04-.36-.07-.55-.11-1.08-.18-2.16-.2-3.09-.11-.12.01-.23.02-.34.05-.16.02-.3.05-.44.08-.19.04-.37.08-.55.14-.22.07-.42.14-.59.23-.12-.25-.18-.52-.19-.78-.01-.28.16-.5.41-.6h.01c1.37-.43,3.13-.5,4.97-.19,2.17.36,3.99,1.16,5.07,2.15.11.1.22.2.3.3h.01c.1.11.17.2.25.31.16.2.28.42.36.64.07.19.12.38.13.59.01.02.01.06.01.08Z" />
    <path class="cls-2" d="M46.5,118.9c-.01-.2-.06-.4-.13-.59.08.19.12.4.13.59Z" />
    <path class="cls-2" d="M46.15,73.61c-.46.49-.91.98-1.38,1.47.46-.49.91-.98,1.38-1.47Z" />
    <path class="cls-2" d="M46.01,117.68c-.08-.11-.16-.2-.25-.3.1.08.18.19.25.3Z" />
    <path class="cls-2"
      d="M45.38,105.14c.65.32,1.34.59,2.04.76-1.13-.07-2.29-.4-3.38-.94-1.75-.87-3-2.23-3.33-3.61-.2-.8-.07-1.57.4-2.21.1-.13.19-.25.31-.37-.17.62-.17,1.28,0,1.98.42,1.71,1.91,3.36,3.97,4.39Z" />
    <path class="cls-2" d="M45.74,117.37c-.08-.1-.19-.2-.3-.3.11.08.2.19.3.3Z" />
    <path class="cls-2"
      d="M45.31,119.03s-.01.12,0,.14c-.04.25-.23.48-.53.7h-.01c-.47.06-.96.1-1.46.1-.71,0-1.44-.06-2.19-.19-2.97-.5-5.29-1.81-5.95-3.28.17-.08.37-.16.59-.23.18-.06.36-.11.55-.14.5.92,2.4,2.04,5,2.48,1.39.23,2.76.22,3.86-.02.08.16.13.31.14.46Z" />
    <path class="cls-2" d="M45.08,118.43s.07.1.1.14h-.01s-.06-.1-.08-.14Z" />
    <path class="cls-2" d="M44.99,97.56c-.26,0-.53.01-.78.05.25-.04.52-.05.78-.05Z" />
    <path class="cls-2"
      d="M44.67,76.68c.17,0,.32-.07.44-.19-17.67,19.32-25.45,36.39-19.81,43.46,1.43,1.79,3.62,2.9,6.57,3.33,1.04.5,2.23.97,3.54,1.38.02.01.06.01.08.02-.19,0-.38.01-.58.01-4.88,0-8.43-1.34-10.55-4-6.08-7.62,1.41-24.73,19.56-44.69.07.13.16.26.24.4.11.16.26.26.46.28h.05Z" />
    <path class="cls-2" d="M44.32,117.68c.35.25.61.5.77.76-.17-.24-.43-.49-.77-.76Z" />
    <path class="cls-2" d="M44.21,97.61c-.25.02-.49.07-.72.12.23-.05.47-.1.72-.12Z" />
    <path class="cls-2"
      d="M43.31,119.97c.5,0,.99-.04,1.46-.1-.93.62-2.95.95-5.31.56-3.13-.53-5.29-2.06-5.12-3.08.05-.32.35-.61.83-.86.66,1.47,2.97,2.78,5.95,3.28.76.13,1.49.19,2.19.19Z" />
    <path class="cls-2" d="M43.86,117.38c-.11-.07-.23-.13-.36-.2.13.06.25.13.36.2Z" />
    <path class="cls-2" d="M41.98,116.54c-.13-.05-.28-.08-.42-.13.14.04.29.08.42.13Z" />
    <path class="cls-2" d="M40.73,116.2c.29.06.56.13.83.2-.26-.07-.54-.14-.83-.2Z" />
    <path class="cls-2" d="M43.57,82.93c-1.47,1.74-2.85,3.45-4.15,5.13,1.28-1.68,2.67-3.39,4.15-5.13Z" />
    <path class="cls-2" d="M37.09,115.99c-.12.02-.23.04-.34.05.11-.02.22-.04.34-.05Z" />
    <path class="cls-2" d="M38.45,89.33c-2.49,3.33-4.61,6.52-6.33,9.52,1.71-3,3.84-6.18,6.33-9.52Z" />
    <path class="cls-2" d="M29.93,122.18c.19.13.4.26.61.38-.22-.12-.42-.25-.61-.38Z" />
    <path class="cls-2" d="M29.86,103.18c-.32.7-.62,1.38-.9,2.04.28-.67.58-1.34.9-2.04Z" />
    <path class="cls-2" d="M28.68,121.26s.11.08.17.13c-.06-.04-.12-.08-.17-.13Z" />
    <path class="cls-2" d="M28.37,120.97c.1.1.2.19.31.29-.11-.1-.22-.19-.31-.29Z" />
    <path class="cls-2" d="M27.86,120.45c.11.12.2.23.32.34-.12-.11-.23-.22-.32-.34Z" />
    <path class="cls-3"
      d="M147.56,27.72s-.05-.1-.07-.13c-1.09-3.33-3.73-5.55-7.5-6.17-4.6-.78-12.47.32-16.83,1.99-35.35,13.46-65.51,36.87-88.61,67.33-3.48,4.59-6.77,9.91-8.59,15.38-1.44,4.29-2.16,9.67.38,13.69.65,1.02,1.46,1.93,2.41,2.66-1.43-.59-2.58-1.43-3.44-2.5-5.63-7.07,2.15-24.14,19.81-43.46,7.37-8.05,15.92-15.97,25.39-23.51,10.1-8.03,20.75-15.18,30.79-20.64.04-.02.08-.05.12-.07,14.3-7.79,26.5-11.85,34.8-11.85,4.46,0,7.79,1.17,9.71,3.58.82,1.03,1.35,2.27,1.63,3.72Z" />
    <path class="cls-3"
      d="M100.03,31.67c-.47.25-.93.52-1.41.78-2.72-2.45-6.29-3.97-9.94-4.52-5-.76-10.13.16-14.92,1.73-9.3,3.04-18.97,10.21-24.36,18.37-5.15,7.84-7.19,17.9-3.09,25.41-.05.06-.11.11-.16.17-.47.49-.92.98-1.38,1.47-6.45-10.96-.58-28.04,13.68-39.32,8.22-6.51,17.64-9.88,25.92-9.88,6.2,0,11.76,1.91,15.67,5.78Z" />
    <path class="cls-3"
      d="M69.02,39.94c4.05-1.12,8.05-2.94,11.49-5.23,1.71-1.14,3-3.68.66-4.9-1.63-.85-4.66-.53-6.42-.34-4.67.51-9.43,2.84-11.43,7.31-.29.64-.52,1.33-.49,2.04.03.7.38,1.43,1,1.75.62.32,1.37.21,2.06.08,1.04-.19,2.08-.43,3.13-.72Z" />
    <path class="cls-3"
      d="M148.61,40.41c0,8.95-2.27,21.01-8.07,33.26l-1.32-.44c3.66-8.71,6.04-17.96,7.1-27.35.87-7.77,2.34-18.97-7.99-20.46-4.81-.7-10.09.89-14.67,2.24-4.85,1.43-9.58,3.31-14.17,5.44-9.15,4.24-17.75,9.54-26.33,14.83-4.76,2.94-8.11,5.93-12.71,9.13-.17.11-.35.23-.53.32.93-.78,1.88-1.55,2.84-2.3,1.99-1.58,4-3.13,6.03-4.63.52-.38,1.03-.77,1.55-1.15,2.54-1.86,5.11-3.66,7.67-5.38,2.55-1.71,5.11-3.36,7.62-4.89,2.53-1.55,5.03-3,7.5-4.35,9.48-5.19,17.99-8.68,24.93-10.36,1.26-.3,2.47-.55,3.62-.73,1.74-.28,3.34-.42,4.82-.42,4.08,0,7.11,1.07,8.85,3.25.37.47.71,1.01,1.02,1.62.22.41.41.85.59,1.32.18.47.36.97.5,1.5.07.26.14.54.22.82,0,.02.01.05.02.06.58,2.34.91,5.27.91,8.68Z" />
    <path class="cls-4" d="M126.17,77.31l61.85,23.64c7.12,2.38,3.89,12.09-3.24,9.72l-62.83-27.85,4.21-5.51Z" />
    <path class="cls-4" d="M86.89,107.89l.69,66.21c.4,7.5-9.82,8.05-10.23.55l2.87-68.66,6.67,1.9Z" />
    <path class="cls-4"
      d="M129.4,137.85l7.38,19.47c2.93,5.7,10.69,1.71,7.75-3.99l-10.16-17.9c-.99-2.02-5.96.4-4.97,2.42Z" />
    <path class="cls-2"
      d="M197.29,85.89c-.87,0-1.58-.7-1.59-1.58l-.05-9.88c0-.88.7-1.59,1.58-1.59h0c.87,0,1.58.7,1.59,1.58l.05,9.88c0,.88-.7,1.59-1.58,1.59h0Z" />
    <path class="cls-2"
      d="M201.93,80.96h-.01l-9.12-.07c-.88,0-1.58-.72-1.57-1.6,0-.87.72-1.57,1.59-1.57h.01l9.12.07c.88,0,1.58.72,1.57,1.6,0,.87-.72,1.57-1.59,1.57Z" />
    <path class="cls-2"
      d="M29.27,52.63c-.87,0-1.58-.7-1.59-1.58l-.05-9.88c0-.88.7-1.59,1.58-1.59h0c.87,0,1.58.7,1.59,1.58l.05,9.88c0,.88-.7,1.59-1.58,1.59h0Z" />
    <path class="cls-2"
      d="M33.91,47.7h-.01l-9.12-.07c-.88,0-1.58-.72-1.57-1.6,0-.87.72-1.57,1.59-1.57h.01l9.12.07c.88,0,1.58.72,1.57,1.6,0,.87-.72,1.57-1.59,1.57Z" />
    <path class="cls-2"
      d="M182.1,156.85c-.87,0-1.58-.7-1.59-1.58l-.05-9.88c0-.88.7-1.59,1.58-1.59h0c.87,0,1.58.7,1.59,1.58l.05,9.88c0,.88-.7,1.59-1.58,1.59h0Z" />
    <path class="cls-2"
      d="M186.74,151.92h-.01l-9.12-.07c-.88,0-1.58-.72-1.57-1.6,0-.87.72-1.57,1.59-1.57h.01l9.12.07c.88,0,1.58.72,1.57,1.6,0,.87-.72,1.57-1.59,1.57Z" />
    <path class="cls-2"
      d="M168.8,53.95c-.87,0-1.58-.7-1.59-1.58l-.04-7.4c0-.88.7-1.59,1.58-1.59h0c.87,0,1.58.7,1.59,1.58l.04,7.4c0,.88-.7,1.59-1.58,1.59h0Z" />
    <path class="cls-2"
      d="M172.28,50.25h-.01l-6.83-.06c-.88,0-1.58-.72-1.57-1.6,0-.87.72-1.57,1.59-1.57h.01l6.83.06c.88,0,1.58.72,1.57,1.6,0,.87-.72,1.57-1.59,1.57Z" />
    <path class="cls-2"
      d="M174.53,138.59c-.87,0-1.58-.7-1.59-1.58l-.04-7.4c0-.88.7-1.59,1.58-1.59h0c.87,0,1.58.7,1.59,1.58l.04,7.4c0,.88-.7,1.59-1.58,1.59h0Z" />
    <path class="cls-2"
      d="M178.01,134.9h-.01l-6.83-.05c-.88,0-1.58-.72-1.57-1.6,0-.87.72-1.57,1.59-1.57h.01l6.83.05c.88,0,1.58.72,1.57,1.6,0,.87-.72,1.57-1.59,1.57Z" />
    <path class="cls-2"
      d="M59.84,148.81c-.87,0-1.58-.7-1.59-1.58l-.04-7.4c0-.88.7-1.59,1.58-1.59h0c.87,0,1.58.7,1.59,1.58l.04,7.4c0,.88-.7,1.59-1.58,1.59h0Z" />
    <path class="cls-2"
      d="M63.31,145.11h-.01l-6.83-.05c-.88,0-1.58-.72-1.57-1.6,0-.87.72-1.57,1.59-1.57h.01l6.83.05c.88,0,1.58.72,1.57,1.6,0,.87-.72,1.57-1.59,1.57Z" />
    <path class="cls-2"
      d="M104,23.2c-.87,0-1.58-.7-1.59-1.58l-.04-7.4c0-.88.7-1.59,1.58-1.59h0c.87,0,1.58.7,1.59,1.58l.04,7.4c0,.88-.7,1.59-1.58,1.59h0Z" />
    <path class="cls-2"
      d="M107.48,19.51h-.01l-6.83-.06c-.88,0-1.58-.72-1.57-1.6,0-.87.72-1.57,1.59-1.57h.01l6.83.06c.88,0,1.58.72,1.57,1.6,0,.87-.72,1.57-1.59,1.57Z" />
    <path class="cls-2"
      d="M159.63,72.39c-.87,0-1.58-.7-1.59-1.58l-.08-15.88c0-.88.7-1.59,1.58-1.59h0c.87,0,1.58.7,1.59,1.58l.08,15.88c0,.88-.7,1.59-1.58,1.59h0Z" />
    <path class="cls-2"
      d="M167.09,64.47h-.01l-14.66-.12c-.88,0-1.58-.72-1.57-1.6,0-.87.72-1.57,1.59-1.57h.01l14.66.12c.88,0,1.58.72,1.57,1.6,0,.87-.72,1.57-1.59,1.57Z" />
  </g>
</svg>