<?xml version="1.0" encoding="UTF-8"?>
<svg id="Capa_2" xmlns="http://www.w3.org/2000/svg" viewBox="0 0 330.05 190.64">
  <defs>
    <style>
      .cls-1 {
        fill: aqua;
      }

      .cls-2 {
        fill: #29abe2;
      }

      .cls-3 {
        fill: #fff;
      }

      .cls-4 {
        fill: #862291;
      }

      .cls-5 {
        fill: #1b1464;
      }

      .cls-6 {
        fill: #fcee21;
      }

      .cls-7 {
        fill: #ed1e79;
      }
    </style>
  </defs>
  <g id="_0">
    <path class="cls-3" d="M107.49,145.15c.24.03,10.5-3.45,10.4-3.49s-11.32-5.75-11.32-5.75c0,0,.69,9.21.92,9.24Z" />
    <path class="cls-3"
      d="M199.37,123.43l2.88,13.37s20.14,9.83,20.97,8.59c.83-1.24,3.67-10.79,3.67-10.79l-27.53-11.17Z" />
    <path class="cls-3"
      d="M77.12,51.31c.61.04,13.31,4.34,13.39,3.49.08-.85-9.17-20.09-9.17-20.09-.44.43-4.83,16.56-4.22,16.6Z" />
    <path class="cls-3"
      d="M78.97,33.6h-1.39v-4.82c0-1.29-1.03-2.34-2.29-2.34s-2.29,1.05-2.29,2.34v4.82h-1.39c-1.26,0-2.29,1.05-2.29,2.34s1.03,2.34,2.29,2.34h1.39v4.82c0,1.29,1.03,2.34,2.29,2.34s2.29-1.05,2.29-2.34v-4.82h1.39c1.26,0,2.29-1.05,2.29-2.34s-1.03-2.34-2.29-2.34Z" />
    <path class="cls-3"
      d="M75.29,50.31c-3.95,0-7.16-3.23-7.16-7.2v-.86c-2.19-1.23-3.68-3.59-3.68-6.3s1.49-5.06,3.68-6.3v-.86c0-3.97,3.21-7.2,7.16-7.2s7.16,3.23,7.16,7.2v.86c2.19,1.23,3.68,3.59,3.68,6.3s-1.49,5.06-3.68,6.3v.86c0,3.97-3.21,7.2-7.16,7.2Z" />
    <path class="cls-3"
      d="M286.7,93.34h-1.39v-4.82c0-1.29-1.03-2.34-2.29-2.34s-2.29,1.05-2.29,2.34v4.82h-1.39c-1.26,0-2.29,1.05-2.29,2.34s1.03,2.34,2.29,2.34h1.39v4.82c0,1.29,1.03,2.34,2.29,2.34s2.29-1.05,2.29-2.34v-4.82h1.39c1.26,0,2.29-1.05,2.29-2.34s-1.03-2.34-2.29-2.34Z" />
    <path class="cls-3"
      d="M283.02,110.05c-3.95,0-7.16-3.23-7.16-7.2v-.86c-2.19-1.23-3.68-3.59-3.68-6.3s1.49-5.06,3.68-6.3v-.86c0-3.97,3.21-7.2,7.16-7.2s7.16,3.23,7.16,7.2v.86c2.19,1.23,3.68,3.59,3.68,6.3s-1.49,5.06-3.68,6.3v.86c0,3.97-3.21,7.2-7.16,7.2Z" />
    <path class="cls-3"
      d="M251.11,129.55h-.42v-3.85c0-1.83-1.47-3.31-3.27-3.31s-3.27,1.49-3.27,3.31v3.85h-.42c-1.8,0-3.27,1.49-3.27,3.31s1.47,3.31,3.27,3.31h.42v3.85c0,1.83,1.47,3.31,3.27,3.31s3.27-1.49,3.27-3.31v-3.85h.42c1.8,0,3.27-1.49,3.27-3.31s-1.47-3.31-3.27-3.31Z" />
    <path class="cls-3"
      d="M247.42,148.2c-4.48,0-8.13-3.67-8.13-8.18v-.32c-2.22-1.46-3.68-3.98-3.68-6.84s1.47-5.38,3.68-6.84v-.32c0-4.51,3.65-8.18,8.13-8.18s8.13,3.67,8.13,8.18v.32c2.22,1.46,3.68,3.98,3.68,6.84s-1.47,5.38-3.68,6.84v.32c0,4.51-3.65,8.18-8.13,8.18Z" />
    <path class="cls-3"
      d="M242.32,47.64h1.39v4.82c0,1.29,1.03,2.34,2.29,2.34s2.29-1.05,2.29-2.34v-4.82h1.39c1.26,0,2.29-1.05,2.29-2.34s-1.03-2.34-2.29-2.34h-1.39v-4.82c0-1.29-1.03-2.34-2.29-2.34s-2.29,1.05-2.29,2.34v4.82h-1.39c-1.26,0-2.29,1.05-2.29,2.34s1.03,2.34,2.29,2.34Z" />
    <path class="cls-3"
      d="M246,59.67c-3.95,0-7.16-3.23-7.16-7.2v-.86c-2.19-1.23-3.68-3.59-3.68-6.3s1.49-5.06,3.68-6.3v-.86c0-3.97,3.21-7.2,7.16-7.2s7.16,3.23,7.16,7.2v.86c2.19,1.23,3.68,3.59,3.68,6.3s-1.49,5.06-3.68,6.3v.86c0,3.97-3.21,7.2-7.16,7.2Z" />
    <path class="cls-3"
      d="M52.3,106.72h-1.39v-4.82c0-1.29-1.03-2.34-2.29-2.34s-2.29,1.05-2.29,2.34v4.82h-1.39c-1.26,0-2.29,1.05-2.29,2.34s1.03,2.34,2.29,2.34h1.39v4.82c0,1.29,1.03,2.34,2.29,2.34s2.29-1.05,2.29-2.34v-4.82h1.39c1.26,0,2.29-1.05,2.29-2.34s-1.03-2.34-2.29-2.34Z" />
    <path class="cls-3"
      d="M48.62,123.43c-3.95,0-7.16-3.23-7.16-7.2v-.86c-2.19-1.23-3.68-3.59-3.68-6.3s1.49-5.06,3.68-6.3v-.86c0-3.97,3.21-7.2,7.16-7.2s7.16,3.23,7.16,7.2v.86c2.19,1.23,3.68,3.59,3.68,6.3s-1.49,5.06-3.68,6.3v.86c0,3.97-3.21,7.2-7.16,7.2Z" />
    <path class="cls-3"
      d="M123.48,66.09h-.74v-3.27c0-1.11-.89-2.01-1.97-2.01s-1.97.9-1.97,2.01v3.27h-.74c-1.09,0-1.97.9-1.97,2.01s.89,2.01,1.97,2.01h.74v3.27c0,1.11.89,2.01,1.97,2.01s1.97-.9,1.97-2.01v-3.27h.74c1.09,0,1.97-.9,1.97-2.01s-.89-2.01-1.97-2.01Z" />
    <path class="cls-3"
      d="M120.77,80.27c-3.7,0-6.73-2.97-6.83-6.67-1.65-1.26-2.72-3.25-2.72-5.49s1.07-4.23,2.72-5.49c.11-3.7,3.13-6.67,6.83-6.67s6.73,2.97,6.84,6.67c1.65,1.26,2.72,3.25,2.72,5.49s-1.07,4.23-2.72,5.49c-.11,3.7-3.13,6.67-6.84,6.67Z" />
    <path class="cls-3"
      d="M88.74,138.36h-.74v-3.27c0-1.11-.89-2.01-1.97-2.01s-1.97.9-1.97,2.01v3.27h-.74c-1.09,0-1.97.9-1.97,2.01s.89,2.01,1.97,2.01h.74v3.27c0,1.11.89,2.01,1.97,2.01s1.97-.9,1.97-2.01v-3.27h.74c1.09,0,1.97-.9,1.97-2.01s-.89-2.01-1.97-2.01Z" />
    <path class="cls-3"
      d="M86.03,152.53c-3.7,0-6.73-2.97-6.83-6.67-1.65-1.26-2.72-3.25-2.72-5.49s1.07-4.23,2.72-5.49c.11-3.7,3.13-6.67,6.83-6.67s6.73,2.97,6.83,6.67c1.65,1.26,2.72,3.25,2.72,5.49s-1.07,4.23-2.72,5.49c-.11,3.7-3.13,6.67-6.83,6.67Z" />
    <path class="cls-3"
      d="M112.15,13.58h-.74v-3.27c0-1.11-.89-2.01-1.97-2.01s-1.97.9-1.97,2.01v3.27h-.74c-1.09,0-1.97.9-1.97,2.01s.89,2.01,1.97,2.01h.74v3.27c0,1.11.89,2.01,1.97,2.01s1.97-.9,1.97-2.01v-3.27h.74c1.09,0,1.97-.9,1.97-2.01s-.89-2.01-1.97-2.01Z" />
    <path class="cls-3"
      d="M109.44,27.75c-3.7,0-6.73-2.97-6.84-6.67-1.65-1.26-2.72-3.25-2.72-5.49s1.07-4.23,2.72-5.48c.11-3.7,3.13-6.67,6.84-6.67s6.73,2.97,6.83,6.67c1.65,1.26,2.72,3.25,2.72,5.49s-1.07,4.23-2.72,5.49c-.11,3.7-3.13,6.67-6.83,6.67Z" />
    <path class="cls-3"
      d="M241.52,22.89c1.09,0,1.97-.9,1.97-2.01v-3.27h.74c1.09,0,1.97-.9,1.97-2.01s-.89-2.01-1.97-2.01h-.74v-3.27c0-1.11-.89-2.01-1.97-2.01s-1.97.9-1.97,2.01v3.27h-.74c-1.09,0-1.97.9-1.97,2.01s.89,2.01,1.97,2.01h.74v3.27c0,1.11.89,2.01,1.97,2.01Z" />
    <path class="cls-3"
      d="M241.52,27.75c-3.7,0-6.73-2.97-6.83-6.67-1.65-1.26-2.72-3.25-2.72-5.49s1.07-4.23,2.72-5.49c.11-3.7,3.13-6.67,6.83-6.67s6.73,2.97,6.84,6.67c1.65,1.26,2.72,3.25,2.72,5.48s-1.07,4.23-2.72,5.49c-.11,3.7-3.13,6.67-6.84,6.67Z" />
    <path class="cls-3"
      d="M214.93,58.47h-1.39v-4.82c0-1.29-1.03-2.34-2.29-2.34s-2.29,1.05-2.29,2.34v4.82h-1.39c-1.27,0-2.29,1.05-2.29,2.34s1.03,2.34,2.29,2.34h1.39v4.82c0,1.29,1.03,2.34,2.29,2.34s2.29-1.05,2.29-2.34v-4.82h1.39c1.26,0,2.29-1.05,2.29-2.34s-1.03-2.34-2.29-2.34Z" />
    <path class="cls-3"
      d="M211.25,75.18c-3.95,0-7.16-3.23-7.16-7.2v-.86c-2.19-1.23-3.68-3.59-3.68-6.3s1.49-5.06,3.68-6.3v-.86c0-3.97,3.21-7.2,7.16-7.2s7.16,3.23,7.16,7.2v.86c2.19,1.23,3.68,3.59,3.68,6.3s-1.49,5.06-3.68,6.3v.86c0,3.97-3.21,7.2-7.16,7.2Z" />
    <path class="cls-3"
      d="M193.63,21.9h-.42v-3.85c0-1.83-1.47-3.31-3.27-3.31s-3.27,1.49-3.27,3.31v3.85h-.42c-1.8,0-3.27,1.49-3.27,3.31s1.47,3.31,3.27,3.31h.42v3.85c0,1.83,1.47,3.31,3.27,3.31s3.27-1.49,3.27-3.31v-3.85h.42c1.8,0,3.27-1.49,3.27-3.31s-1.47-3.31-3.27-3.31Z" />
    <path class="cls-3"
      d="M189.95,40.55c-4.48,0-8.13-3.67-8.13-8.18v-.32c-2.22-1.46-3.68-3.98-3.68-6.84s1.47-5.38,3.68-6.84v-.32c0-4.51,3.65-8.18,8.13-8.18s8.13,3.67,8.13,8.18v.32c2.22,1.46,3.68,3.98,3.68,6.84s-1.47,5.38-3.68,6.84v.32c0,4.51-3.65,8.18-8.13,8.18Z" />
    <path class="cls-3"
      d="M246.16,182.55s-.05-.1-.08-.15l-1.65-3.08c1.14-1.77,1.74-3.92,1.74-6.31,0-3.57-1.4-6.6-4.05-8.75-2.38-1.93-5.45-2.91-9.12-2.91h-10.71c-1.14,0-2.22.33-3.15.95-.93-.61-2.02-.95-3.15-.95h-17.12c-1.52,0-2.96.59-4.07,1.7-.28.28-.52.58-.73.91-.04-.03-.07-.06-.11-.08-1.2-.8-2.64-1.42-4.41-1.89-1.63-.44-3.42-.66-5.32-.66-3.93,0-7.31.91-10.05,2.71-.48.32-.92.67-1.33,1.04-.28-.28-.58-.56-.9-.81-2.37-1.93-5.44-2.91-9.12-2.91h-10.71c-1.01,0-1.96.28-2.82.77-.86-.49-1.82-.77-2.82-.77h-5.75c-1.29,0-2.53.43-3.55,1.23-1.01-.8-2.25-1.23-3.55-1.23h-5.75c-1.52,0-2.95.59-4.02,1.65,0,0-.01.02-.02.02-1.99-1.11-4.49-1.67-7.6-1.67h-11.06c-1.53,0-2.97.6-4.06,1.69-1.08,1.09-1.68,2.53-1.68,4.05v17.78c0,1.53.6,2.98,1.68,4.05,1.09,1.09,2.53,1.69,4.06,1.69h11.34c4.92,0,7.96-1.46,9.82-3.36.19.16.38.31.56.44,2.67,1.96,6.13,2.95,10.29,2.95s7.41-.94,10.05-2.79c.24.38.5.75.83,1.08,1.09,1.09,2.53,1.69,4.06,1.69h5.94c1.15,0,2.26-.34,3.2-.98.99.63,2.16.98,3.43.98h6.25c1.5,0,2.91-.59,3.97-1.65.11-.11.2-.25.3-.37,2.51,1.35,5.53,2.05,9.02,2.05,3.89,0,7.2-.88,9.86-2.59.21.31.45.61.72.88,1.09,1.08,2.53,1.68,4.05,1.68h17.39c1.09,0,2.12-.31,3.02-.87.9.56,1.93.87,3.01.87h5.95c1.15,0,2.25-.34,3.2-.98.99.63,2.16.98,3.43.98h6.25c1.49,0,2.9-.58,3.97-1.65,1.06-1.06,1.64-2.44,1.64-3.9,0-.9-.19-1.75-.57-2.52ZM111.59,171.35h0v1.83h0v-1.83Z" />
    <path class="cls-3"
      d="M260.56,17.72c-.63-1.6-1.92-2.83-3.54-3.38-6.02-2.06-9.22-3.03-15.58-4.72-1.82-.48-3.7-.04-5.1,1.06-.73-1.63-2.2-2.9-4.03-3.32-6.68-1.52-9.99-2.16-16.92-3.28-1.72-.27-3.46.24-4.75,1.38-1.32,1.16-2.04,2.82-1.98,4.57.71,22.34.56,44.08-.44,66.46l-2.23,10.47c-.87-.74-1.94-1.22-3.09-1.36-2.83-.34-4.89-.57-6.99-.77l8.11-76.49c.16-1.54-.3-3.1-1.27-4.3-.97-1.2-2.41-1.97-3.94-2.13-7.29-.74-10.89-.99-18.28-1.28-1.52-.08-3.02.45-4.15,1.46-1.18,1.05-1.89,2.56-1.96,4.13l-.24,5.79c-.79-1.38-1.68-2.66-2.69-3.83-5.08-5.87-12.58-8.68-21.68-8.1-11.46.72-17.27,6.26-20.13,10.79-.59.94-1.12,1.94-1.58,2.97l-.8-4.76c-.54-3.17-3.56-5.31-6.72-4.78-6.81,1.13-10.28,1.82-16.88,3.36-1.48.35-2.7,1.24-3.5,2.41-1.29-.68-2.78-.86-4.23-.48-6.38,1.7-9.6,2.68-15.66,4.74-2.98,1.02-4.63,4.28-3.68,7.28l29.11,92.38c.77,2.44,3.01,4.08,5.56,4.08.4,0,.8-.04,1.18-.12,4.13-.85,6.17-1.23,10.4-1.93.88-.15,1.7-.49,2.42-1,.82.26,1.7.34,2.61.21,4.33-.63,6.45-.9,10.82-1.35,1.6-.17,3.07-1,4.04-2.27.72-.95,1.13-2.11,1.18-3.29,3.51,3.43,7.67,5.16,12.41,5.16.26,0,.52,0,.77-.02,5.35-.21,9.74-2.49,13.11-6.77.03,1.43.58,2.82,1.57,3.88,1.06,1.13,2.57,1.81,4.11,1.84,9.26.23,13.74.52,22.88,1.49.19.02.38.03.56.03,1.28,0,2.46-.43,3.42-1.13.93,1.1,2.24,1.83,3.68,2.02,4.08.55,6.06.85,10.09,1.55.32.05.65.08.98.08,2.63,0,4.95-1.78,5.64-4.32l8.25-30.65c8.89-19.8,18.6-39.62,28.86-58.89.8-1.51.91-3.29.28-4.88Z" />
    <path class="cls-4"
      d="M121.66,175.57c.51-.17,1.01-.56,1.49-1.18.48-.62.72-1.38.72-2.26v-.08c0-1.91-.62-3.33-1.86-4.28-1.24-.94-3.16-1.42-5.77-1.42h-11.06c-.2,0-.38.07-.52.22-.15.15-.22.32-.22.52v17.78c0,.2.07.38.22.52.15.15.32.22.52.22h11.34c5.17,0,7.76-2.02,7.76-6.05,0-.95-.26-1.8-.77-2.55-.51-.74-1.13-1.22-1.84-1.44ZM111.59,171.08h3.69c.37,0,.65.12.84.36.19.24.29.52.29.85s-.1.63-.29.89c-.19.27-.47.4-.84.4h-3.69v-2.5ZM116.84,179.51c0,.35-.11.66-.32.95-.21.28-.53.43-.95.43h-3.99v-2.7h3.99c.39,0,.69.13.92.39.23.26.34.56.34.91v.03Z" />
    <path class="cls-5"
      d="M116.51,186.12h-11.34c-.33,0-.64-.13-.88-.37-.24-.24-.37-.54-.37-.88v-17.78c0-.33.13-.64.37-.88.24-.24.54-.37.88-.37h11.06c2.71,0,4.75.51,6.07,1.52,1.36,1.04,2.05,2.61,2.05,4.68,0,1.07-.28,1.93-.82,2.64-.26.34-.53.62-.81.84.44.29.83.69,1.18,1.19.57.83.86,1.78.86,2.83,0,4.35-2.78,6.55-8.26,6.55ZM105.17,166.85c-.07,0-.12.02-.17.07-.06.06-.07.11-.07.17v17.78c0,.06.01.11.07.17.05.05.1.07.17.07h11.34c4.89,0,7.26-1.82,7.26-5.55,0-.86-.22-1.6-.68-2.26-.45-.65-.97-1.06-1.58-1.25-.21-.06-.35-.26-.35-.47,0-.22.14-.41.35-.48.41-.13.83-.47,1.24-1.01.41-.54.61-1.18.61-1.95,0-1.84-.54-3.11-1.66-3.96-1.14-.87-2.98-1.31-5.46-1.31h-11.06ZM115.58,181.38h-3.99c-.28,0-.5-.22-.5-.5v-2.7c0-.28.22-.5.5-.5h3.99c.52,0,.97.19,1.29.55.31.35.47.77.47,1.24v.03c0,.46-.14.88-.42,1.25-.21.29-.62.63-1.35.63ZM112.09,180.38h3.49c.34,0,.47-.12.55-.22.15-.2.22-.41.22-.65v-.03c0-.23-.07-.41-.22-.58-.08-.09-.23-.22-.55-.22h-3.49v1.7ZM115.28,174.09h-3.69c-.28,0-.5-.22-.5-.5v-2.5c0-.28.22-.5.5-.5h3.69c.65,0,1.03.3,1.23.54.27.33.4.72.4,1.17s-.13.84-.38,1.19c-.29.4-.72.61-1.24.61ZM112.09,173.09h3.19c.26,0,.37-.1.43-.19.13-.18.19-.38.19-.6s-.06-.39-.18-.54c-.06-.08-.17-.17-.45-.17h-3.19v1.5Z" />
    <path class="cls-4"
      d="M146.48,166.35h-5.75c-.2,0-.38.07-.52.22-.15.14-.22.32-.22.51v10.76c0,.74-.25,1.31-.76,1.7-.5.4-1.19.59-2.05.59s-1.55-.2-2.05-.59c-.5-.4-.76-.96-.76-1.7v-10.76c0-.2-.07-.37-.22-.51-.15-.14-.32-.22-.52-.22h-5.75c-.2,0-.38.07-.52.22-.15.14-.22.32-.22.52v10.38c0,2.81.9,4.87,2.71,6.2,1.81,1.32,4.25,1.98,7.33,1.98s5.53-.66,7.33-1.98c1.81-1.32,2.71-3.39,2.71-6.2v-10.38c0-.2-.07-.37-.22-.52-.15-.15-.32-.22-.52-.22Z" />
    <path class="cls-5"
      d="M137.18,186.14c-3.18,0-5.74-.7-7.63-2.08-1.93-1.42-2.92-3.64-2.92-6.6v-10.38c0-.33.13-.64.37-.87.24-.24.54-.36.87-.36h5.75c.33,0,.63.12.87.36.24.24.37.54.37.87v10.76c0,.58.19,1.01.57,1.31.41.32,1,.49,1.74.49s1.33-.16,1.74-.49c.38-.3.57-.73.57-1.31v-10.76c0-.33.13-.63.37-.87.24-.24.54-.36.87-.36h5.75c.33,0,.63.12.87.36.24.24.37.54.37.87v10.38c0,2.96-.98,5.18-2.92,6.6-1.89,1.38-4.45,2.08-7.63,2.08ZM127.88,166.85c-.07,0-.12.02-.17.07-.06.06-.07.1-.07.16v10.38c0,2.66.82,4.56,2.51,5.79,1.71,1.25,4.08,1.89,7.04,1.89s5.33-.63,7.04-1.89c1.69-1.23,2.51-3.13,2.51-5.79v-10.38c0-.06-.01-.1-.07-.16-.05-.05-.1-.07-.17-.07h-5.75c-.07,0-.12.02-.17.07-.06.06-.07.1-.07.16v10.76c0,.9-.32,1.6-.95,2.1-.59.47-1.39.7-2.36.7s-1.77-.24-2.36-.7c-.63-.49-.95-1.2-.95-2.1v-10.76c0-.05-.01-.1-.07-.16-.05-.05-.1-.07-.17-.07h-5.75Z" />
    <path class="cls-4"
      d="M168.11,178.43c1.93-1.12,2.89-2.93,2.89-5.42,0-2.05-.73-3.68-2.2-4.87-1.47-1.19-3.46-1.79-5.97-1.79h-10.71c-.2,0-.38.07-.52.22-.15.15-.22.32-.22.52v17.78c0,.2.07.38.22.52.15.15.32.22.52.22h5.94c.2,0,.38-.07.52-.22.15-.15.22-.32.22-.52v-5.39h2.31l2.42,5.45c.22.46.61.69,1.16.69h6.25c.16,0,.31-.06.43-.18.12-.12.18-.24.18-.37s-.02-.23-.06-.3l-3.38-6.33ZM163.19,173.99c-.22.27-.53.4-.94.4h-3.44v-2.92h3.44c.42,0,.74.15.95.45.21.3.32.66.32,1.06s-.11.74-.33,1.01Z" />
    <path class="cls-5"
      d="M170.95,186.12h-6.25c-.75,0-1.3-.34-1.61-.97l-2.3-5.17h-1.49v4.89c0,.33-.13.64-.37.88-.24.24-.54.37-.88.37h-5.94c-.33,0-.64-.13-.88-.37-.24-.24-.37-.54-.37-.88v-17.78c0-.33.13-.64.37-.88.24-.24.54-.37.88-.37h10.71c2.62,0,4.74.64,6.29,1.9,1.58,1.29,2.39,3.06,2.39,5.26,0,2.49-.92,4.37-2.73,5.6l3.16,5.92c.08.16.11.33.11.54,0,.18-.06.45-.32.72-.21.21-.48.33-.78.33ZM158.81,178.98h2.31c.2,0,.38.12.46.3l2.42,5.45c.13.27.34.39.7.39h6.25l.11-.08-3.39-6.37c-.13-.24-.04-.53.19-.67,1.78-1.03,2.64-2.66,2.64-4.99,0-1.91-.66-3.38-2.02-4.48-1.37-1.11-3.27-1.68-5.66-1.68h-10.71c-.06,0-.11.01-.17.07-.06.06-.07.11-.07.17v17.78c0,.06.01.11.07.17.06.06.11.07.17.07h5.94c.06,0,.11-.01.17-.07.06-.06.07-.11.07-.17v-5.39c0-.28.22-.5.5-.5ZM162.25,174.89h-3.44c-.28,0-.5-.22-.5-.5v-2.92c0-.28.22-.5.5-.5h3.44c.74,0,1.15.36,1.36.67.27.39.41.84.41,1.34s-.15.97-.44,1.32c0,0,0,0,0,0-.32.38-.77.58-1.32.58ZM163.19,173.99h0,0ZM159.31,173.89h2.94c.33,0,.47-.12.55-.22.15-.18.22-.4.22-.69,0-.3-.07-.55-.23-.77-.08-.11-.21-.24-.54-.24h-2.94v1.92Z" />
    <path class="cls-4"
      d="M193.87,173.75h-7.98c-.2,0-.38.07-.52.22s-.22.32-.22.52v3.06c0,.2.07.38.22.52.15.15.32.22.52.22h1.71c-.02.53-.3,1-.84,1.39-.54.4-1.31.59-2.31.59s-1.78-.19-2.33-.59c-.55-.39-.83-.93-.83-1.63v-4.42c0-.57.28-1.04.84-1.41.56-.36,1.33-.55,2.31-.55s1.76.29,2.33.86c.16.16.43.24.8.24h6.22c.16,0,.31-.06.43-.17.12-.11.18-.25.18-.41,0-.76-.45-1.63-1.35-2.62-.51-.56-1.13-1.09-1.86-1.57-.73-.48-1.7-.89-2.92-1.22-1.22-.33-2.56-.49-4.03-.49-2.95,0-5.39.63-7.29,1.88-.97.64-1.73,1.49-2.27,2.55-.54,1.06-.81,2.27-.81,3.65v3.17c0,2.75.95,4.79,2.85,6.1,1.9,1.31,4.41,1.97,7.53,1.97s5.63-.67,7.53-2.02c1.9-1.35,2.85-3.42,2.85-6.21v-2.92c0-.2-.07-.38-.22-.52-.15-.15-.32-.22-.52-.22Z" />
    <path class="cls-5"
      d="M184.24,186.14c-3.21,0-5.84-.69-7.81-2.06-2.03-1.41-3.06-3.6-3.06-6.52v-3.17c0-1.45.29-2.76.87-3.88.58-1.13,1.4-2.05,2.44-2.74,1.98-1.3,4.53-1.96,7.57-1.96,1.51,0,2.91.17,4.16.51,1.27.34,2.3.77,3.07,1.28.76.51,1.41,1.06,1.95,1.65.99,1.09,1.48,2.06,1.48,2.95,0,.3-.12.56-.33.77-.14.14-.32.23-.5.28.26.04.49.16.69.35.24.24.37.54.37.88v2.92c0,2.95-1.03,5.17-3.06,6.61-1.98,1.4-4.61,2.11-7.82,2.11ZM184.24,166.82c-2.84,0-5.2.6-7.02,1.8-.9.59-1.6,1.39-2.1,2.36-.5.98-.76,2.13-.76,3.42v3.17c0,2.6.86,4.47,2.63,5.69,1.81,1.25,4.24,1.88,7.24,1.88s5.43-.65,7.24-1.93c1.77-1.26,2.64-3.16,2.64-5.8v-2.92c0-.06-.01-.11-.07-.17-.06-.06-.11-.07-.17-.07h-7.98c-.06,0-.11.01-.17.07-.06.06-.07.11-.07.17v3.06c0,.06.01.11.07.17.05.05.1.07.17.07h1.71c.14,0,.27.06.36.15.09.1.15.23.14.36-.02.69-.38,1.29-1.04,1.78-.62.46-1.5.69-2.61.69s-1.98-.23-2.62-.68c-.69-.49-1.04-1.17-1.04-2.03v-4.42c0-.52.19-1.25,1.07-1.82.64-.42,1.51-.63,2.58-.63s2.02.34,2.68,1.01c.02.02.12.1.44.1h6.22l.1-.08c0-.63-.41-1.39-1.22-2.28-.48-.53-1.08-1.03-1.77-1.49-.68-.45-1.61-.84-2.77-1.15-1.17-.31-2.48-.47-3.9-.47ZM184.45,172.19c-.88,0-1.56.16-2.04.47-.55.36-.61.73-.61.99v4.42c0,.53.2.92.62,1.22.46.33,1.15.49,2.04.49s1.57-.17,2.02-.5c.21-.15.37-.32.47-.49h-1.05c-.33,0-.64-.13-.88-.37-.24-.24-.37-.54-.37-.88v-3.06c0-.33.13-.64.37-.88.24-.24.54-.37.88-.37h1.21c-.28-.06-.51-.17-.68-.34-.48-.48-1.12-.72-1.97-.72Z" />
    <path class="cls-4"
      d="M216.28,180.25h-10.98v-1.73h9.19c.2,0,.38-.07.52-.22.15-.15.22-.32.22-.52v-3.58c0-.2-.07-.38-.22-.52-.15-.15-.32-.22-.52-.22h-9.19v-1.73h10.71c.2,0,.38-.07.52-.22.15-.15.22-.32.22-.52v-3.88c0-.2-.07-.38-.22-.52-.15-.15-.32-.22-.52-.22h-17.12c-.2,0-.38.07-.52.22-.15.15-.22.32-.22.52v17.78c0,.2.07.38.22.52.15.15.32.22.52.22h17.39c.2,0,.38-.07.52-.22.15-.15.22-.32.22-.52v-3.88c0-.2-.07-.38-.22-.52-.15-.15-.32-.22-.52-.22Z" />
    <path class="cls-5"
      d="M216.28,186.12h-17.39c-.33,0-.64-.13-.88-.37-.24-.24-.37-.54-.37-.88v-17.78c0-.33.13-.64.37-.88.24-.24.55-.37.88-.37h17.12c.33,0,.63.13.87.36.24.24.37.55.37.88v3.88c0,.33-.13.64-.37.88-.24.24-.54.37-.88.37h-10.21v.73h8.69c.33,0,.64.13.88.37.24.24.37.54.37.88v3.58c0,.33-.13.64-.37.88-.23.24-.54.37-.87.37h-8.69v.73h10.48c.33,0,.64.13.88.37.24.24.37.54.37.87v3.88c0,.33-.13.64-.37.88-.24.24-.54.37-.87.37ZM198.88,166.85c-.06,0-.11.01-.17.07-.06.06-.07.11-.07.17v17.78c0,.06.01.11.07.17.06.06.11.07.17.07h17.39c.07,0,.12-.02.17-.07.06-.06.08-.11.08-.17v-3.88c0-.06-.01-.11-.07-.17-.05-.05-.1-.07-.17-.07h-10.98c-.28,0-.5-.22-.5-.5v-1.73c0-.28.22-.5.5-.5h9.19c.07,0,.12-.02.17-.07.06-.06.08-.11.08-.17v-3.58c0-.07-.02-.12-.07-.17-.05-.05-.1-.07-.17-.07h-9.19c-.28,0-.5-.22-.5-.5v-1.73c0-.28.22-.5.5-.5h10.71c.06,0,.11-.01.17-.07.06-.06.07-.11.07-.17v-3.88c0-.06-.01-.11-.07-.17-.06-.06-.11-.07-.17-.07h-17.12Z" />
    <path class="cls-4"
      d="M241.68,184.76l-3.39-6.33c1.93-1.12,2.89-2.93,2.89-5.42,0-2.05-.73-3.68-2.2-4.87-1.47-1.19-3.46-1.79-5.97-1.79h-10.71c-.2,0-.38.07-.52.22-.15.15-.22.32-.22.52v17.78c0,.2.07.38.22.52.15.15.32.22.52.22h5.95c.2,0,.38-.07.52-.22.15-.15.22-.32.22-.52v-5.39h2.31l2.42,5.45c.22.46.61.69,1.16.69h6.25c.17,0,.31-.06.43-.18.12-.12.18-.24.18-.37s-.02-.23-.06-.3ZM233.37,173.99c-.22.27-.53.4-.94.4h-3.44v-2.92h3.44c.42,0,.74.15.95.45.21.3.32.66.32,1.06s-.11.74-.33,1.01Z" />
    <path class="cls-5"
      d="M241.13,186.12h-6.25c-.75,0-1.3-.34-1.61-.97l-2.3-5.16h-1.49v4.89c0,.33-.13.63-.37.87-.24.24-.54.37-.88.37h-5.95c-.34,0-.64-.13-.88-.37-.24-.24-.37-.54-.37-.87v-17.78c0-.33.13-.64.37-.88.24-.24.54-.37.88-.37h10.71c2.62,0,4.74.64,6.29,1.9,1.58,1.29,2.39,3.06,2.39,5.26,0,2.49-.92,4.37-2.73,5.6l3.17,5.92s0,0,0,.01c.07.14.11.32.11.52,0,.18-.06.45-.33.72-.21.21-.48.33-.78.33ZM228.99,178.98h2.31c.2,0,.38.12.46.3l2.42,5.45c.13.27.34.39.7.39h6.25l.55-.35-.44.24-3.39-6.33c-.13-.24-.04-.53.19-.67,1.78-1.03,2.64-2.66,2.64-4.99,0-1.91-.66-3.38-2.02-4.48-1.37-1.11-3.27-1.68-5.66-1.68h-10.71c-.07,0-.12.02-.17.07-.06.06-.08.11-.08.17v17.78c0,.06.01.11.07.17.05.05.1.07.17.07h5.95c.06,0,.11-.01.17-.07.06-.06.07-.11.07-.17v-5.39c0-.28.22-.5.5-.5ZM232.43,174.89h-3.44c-.28,0-.5-.22-.5-.5v-2.92c0-.28.22-.5.5-.5h3.44c.74,0,1.15.36,1.36.67.27.39.41.84.41,1.34s-.15.97-.45,1.32h0c-.32.38-.77.58-1.32.58ZM233.37,173.99h0,0ZM229.49,173.89h2.94c.33,0,.47-.12.55-.22h0c.15-.17.22-.4.22-.69,0-.3-.07-.55-.23-.77-.08-.11-.21-.24-.54-.24h-2.94v1.92Z" />
    <path class="cls-5"
      d="M147.01,166.57c-.15-.15-.32-.22-.52-.22h-5.75c-.2,0-.38.07-.52.22-.15.14-.22.32-.22.51v8.58c2.3.74,4.73,1.28,7.24,1.66v-10.23c0-.2-.07-.37-.22-.52Z" />
    <path class="cls-5"
      d="M134.37,173.32v-6.24c0-.2-.07-.37-.22-.51-.15-.14-.32-.22-.52-.22h-5.75c-.2,0-.38.07-.52.22-.15.14-.22.32-.22.52v.73c2.08,2.26,4.52,4.07,7.24,5.5Z" />
    <path class="cls-5"
      d="M168.8,168.14c-1.47-1.19-3.46-1.79-5.97-1.79h-10.71c-.2,0-.38.07-.52.22-.15.15-.22.32-.22.52v10.71c5.85.49,12.03.22,18.08-.44,1.03-1.09,1.54-2.54,1.54-4.36,0-2.05-.73-3.68-2.2-4.87ZM163.19,173.99c-.22.27-.53.4-.94.4h-3.44v-2.92h3.44c.42,0,.74.15.95.45.21.3.32.66.32,1.06s-.11.74-.33,1.01Z" />
    <path class="cls-5" d="M194.03,172.75s-.02,0-.04.01c.01,0,.03,0,.04-.01Z" />
    <path class="cls-5"
      d="M181.3,173.64c0-.57.28-1.04.84-1.41.56-.36,1.33-.55,2.31-.55s1.76.29,2.33.86c.16.16.43.24.8.24h6.22c.07,0,.14-.02.2-.04.01,0,.02,0,.04-.01.07-.03.13-.07.18-.12.12-.11.18-.25.18-.41,0-.76-.45-1.63-1.35-2.62-.51-.56-1.13-1.09-1.86-1.57-.73-.48-1.7-.89-2.92-1.22-1.22-.33-2.56-.49-4.03-.49-2.95,0-5.39.63-7.29,1.88-.97.64-1.73,1.49-2.27,2.55-.54,1.06-.81,2.27-.81,3.65v2.42c2.53-.36,5.02-.77,7.43-1.21v-1.97Z" />
    <path class="cls-5"
      d="M185.37,173.97c-.15.15-.22.32-.22.52v.37c1.8-.36,3.54-.74,5.21-1.11h-4.46c-.2,0-.38.07-.52.22Z" />
    <path class="cls-5"
      d="M198.88,166.35c-.2,0-.38.07-.52.22-.15.15-.22.32-.22.52v4.16c3.2-1.31,6.24-2.94,9.03-4.9h-8.29Z" />
    <path class="cls-2"
      d="M111.3,112.23c-9.7-30.79-19.41-61.58-29.11-92.37,5.92-2.02,8.99-2.95,15.27-4.63,2.91,11.32,5.83,22.64,8.74,33.96,2.65-.63,3.99-.93,6.69-1.5-2.63-11.45-5.26-22.9-7.88-34.35,6.45-1.5,9.76-2.16,16.51-3.29,5.53,32.67,11.06,65.34,16.59,98.02-4.47.47-6.68.75-11.05,1.38-3.33-14.53-6.67-29.05-10-43.58-2.52.49-3.77.75-6.24,1.29,3.7,14.36,7.4,28.72,11.09,43.09-4.31.71-6.44,1.11-10.63,1.98Z" />
    <path class="cls-5"
      d="M111.3,113.2c-.42,0-.8-.27-.93-.68l-29.11-92.37c-.16-.5.11-1.04.61-1.21,5.93-2.02,9.08-2.98,15.34-4.65.25-.07.52-.03.74.1.22.13.39.35.45.6l8.51,33.04c1.79-.42,3.01-.7,4.82-1.08l-7.66-33.38c-.12-.52.21-1.04.73-1.17,6.47-1.51,9.87-2.19,16.57-3.3.53-.09,1.03.27,1.12.8l16.59,98.02c.04.27-.02.54-.18.75-.16.21-.41.35-.67.38-4.45.47-6.61.74-11.01,1.38-.5.07-.97-.25-1.09-.75l-9.79-42.66c-1.62.32-2.73.55-4.3.89l10.84,42.11c.07.26.02.55-.13.77-.15.23-.39.38-.66.43-4.31.71-6.39,1.1-10.59,1.97-.07.01-.13.02-.2.02ZM83.41,20.47l28.56,90.63c3.34-.69,5.38-1.07,8.76-1.63l-10.83-42.06c-.07-.26-.02-.53.11-.75.14-.22.36-.38.62-.44,2.49-.55,3.72-.8,6.26-1.3.51-.1,1.02.23,1.13.74l9.8,42.7c3.52-.51,5.64-.77,9.17-1.15L120.73,11.18c-5.78.97-8.97,1.61-14.55,2.9l7.67,33.4c.06.25.01.52-.13.74-.14.22-.36.37-.62.43-2.7.56-4.01.86-6.66,1.49-.51.12-1.04-.19-1.17-.7l-8.5-33.01c-5.34,1.43-8.29,2.33-13.36,4.05Z" />
    <path class="cls-2"
      d="M156.9,107.63c-4.62.18-8.31-1.99-11.4-6.57-3.09-4.58-5.41-11.32-6.71-20.33-2.25-15.62-4.51-31.23-6.76-46.85-1.22-8.44-.47-15.09,2.57-19.91,3.04-4.81,8.26-7.62,15.56-8.08,7.3-.46,13.08,1.67,16.9,6.09,3.82,4.42,5.53,10.98,5.4,19.56-.24,15.87-.48,31.74-.72,47.61-.14,9.15-1.64,16.12-4.19,20.98-2.56,4.85-6.02,7.31-10.64,7.49ZM155.79,89.23c1.93-.09,2.76-3.05,2.46-8.93-.83-16.28-1.66-32.56-2.49-48.83-.25-4.93-1.64-7.34-4.14-7.19-2.82.17-4.01,2.79-3.6,7.82,1.32,16.21,2.64,32.42,3.96,48.62.25,3.1.68,5.3,1.27,6.62.59,1.32,1.43,1.95,2.54,1.9Z" />
    <path class="cls-5"
      d="M156.36,108.61c-4.67,0-8.49-2.3-11.67-7.01-3.27-4.85-5.58-11.82-6.86-20.73l-6.76-46.85c-1.29-8.91-.4-15.64,2.71-20.56,3.27-5.19,8.77-8.06,16.32-8.53,7.53-.47,13.65,1.75,17.7,6.43,3.93,4.55,5.77,11.16,5.63,20.21l-.72,47.61c-.14,9.05-1.59,16.25-4.31,21.41-2.74,5.19-6.49,7.81-11.47,8.01-.19,0-.39.01-.58.01ZM152.04,6.81c-.6,0-1.2.02-1.82.06-6.9.43-11.88,3-14.8,7.62-2.85,4.52-3.65,10.82-2.43,19.25l6.76,46.85c1.24,8.62,3.45,15.32,6.55,19.92,2.94,4.36,6.27,6.31,10.56,6.14,4.28-.17,7.4-2.38,9.82-6.97,2.58-4.89,3.95-11.8,4.08-20.54l.72-47.61c.13-8.55-1.56-14.74-5.16-18.91-3.3-3.82-8.22-5.82-14.28-5.82ZM155.67,90.21c-1.04,0-2.4-.45-3.31-2.47-.65-1.44-1.09-3.71-1.35-6.94l-3.96-48.62c-.29-3.55.18-5.97,1.44-7.42.77-.88,1.8-1.37,3.07-1.45,1.12-.07,2.06.26,2.85.96,1.38,1.23,2.14,3.57,2.32,7.15l2.49,48.83c.24,4.79-.22,7.66-1.47,9.03-.51.57-1.18.88-1.91.92h0c-.05,0-.11,0-.16,0ZM151.84,25.24c-.05,0-.1,0-.16,0-.74.04-1.3.3-1.72.78-.87,1-1.21,3.07-.97,5.99l3.96,48.62c.24,2.96.64,5.08,1.19,6.3.54,1.21,1.15,1.35,1.61,1.32h0c.22,0,.39-.09.56-.28.48-.53,1.25-2.22.97-7.63l-2.49-48.83c-.19-3.72-1.02-5.21-1.67-5.8-.36-.32-.77-.48-1.28-.48Z" />
    <path class="cls-2"
      d="M176.07,106.58c1.39-33.37,2.78-66.75,4.17-100.12,7.3.28,10.9.54,17.97,1.25-2.91,27.48-5.83,54.96-8.74,82.44,5.16.38,7.71.63,12.73,1.23-1.14,6.68-1.71,10.02-2.84,16.7-9.12-.96-13.79-1.28-23.29-1.51Z" />
    <path class="cls-5"
      d="M199.36,109.06s-.07,0-.1,0c-9.23-.98-13.79-1.27-23.21-1.51-.26,0-.51-.12-.69-.31-.18-.19-.27-.44-.26-.7l4.17-100.12c.02-.54.48-.97,1.01-.93,7.3.28,10.84.53,18.03,1.26.26.03.49.15.66.35.16.2.24.46.21.72l-8.64,81.44c4.52.34,7.02.59,11.78,1.16.27.03.5.17.66.38.16.21.22.48.18.75l-2.84,16.7c-.08.47-.49.81-.96.81ZM177.08,105.63c8.43.22,13.18.53,21.47,1.4l2.52-14.8c-4.41-.52-6.9-.75-11.68-1.1-.26-.02-.51-.14-.68-.35-.17-.2-.25-.46-.22-.73l8.64-81.47c-6.19-.62-9.67-.86-15.96-1.11l-4.09,98.16Z" />
    <path class="cls-2"
      d="M207.25,109.04c2.26-10.6,4.52-21.2,6.78-31.81,1.02-22.51,1.18-44.86.46-67.39,6.76,1.09,10.07,1.73,16.53,3.2-.91,11.17-2.02,22.34-3.32,33.46,3.91-10.49,8-20.93,12.25-31.26,6.25,1.67,9.29,2.59,15.18,4.6-10.39,19.53-20.1,39.34-29.22,59.66-2.79,10.37-5.58,20.73-8.37,31.1-4.07-.7-6.13-1.02-10.3-1.58Z" />
    <path class="cls-5"
      d="M217.54,111.59c-.06,0-.11,0-.17-.01-4.09-.71-6.1-1.02-10.26-1.58-.27-.04-.51-.18-.67-.4-.16-.22-.21-.5-.16-.76l6.76-31.73c1.02-22.64,1.18-44.63.46-67.23,0-.29.11-.57.33-.76.22-.19.51-.27.8-.23,6.78,1.09,10.03,1.72,16.59,3.22.47.11.79.55.75,1.03-.7,8.55-1.52,17.18-2.45,25.75,3.07-8.03,6.25-16.08,9.51-23.99.19-.45.68-.69,1.15-.57,6.21,1.66,9.35,2.61,15.25,4.62.27.09.49.3.59.56.11.26.09.56-.05.81-10.37,19.48-20.18,39.51-29.16,59.53l-8.35,31.02c-.12.43-.51.72-.94.72ZM208.42,108.21c3.23.44,5.2.74,8.42,1.3l8.14-30.24s.03-.1.05-.15c8.85-19.74,18.51-39.49,28.71-58.71-4.97-1.68-7.9-2.57-13.21-4-4.12,10.04-8.13,20.28-11.92,30.44-.17.46-.66.72-1.14.61-.48-.12-.8-.57-.74-1.06,1.26-10.79,2.35-21.75,3.25-32.59-5.6-1.27-8.79-1.89-14.48-2.82.68,22.26.51,43.95-.5,66.28,0,.05,0,.11-.02.16l-6.56,30.78Z" />
    <rect class="cls-3" x="154.69" y="61.65" width="21.38" height="17.45" />
    <path class="cls-3"
      d="M330.04,26.76c.06-3.13-1.27-5.87-3.73-7.73-1.96-1.48-4.42-2.23-7.31-2.23-8.43,0-24.02,7.4-46.38,22-1.23-.96-2.76-1.54-4.42-1.63-.1,0-.33-.01-.43-.01-2.2,0-4.47,0-23.68,12.35-8.77,5.64-17.11,11.32-17.18,11.37-1.35.92-2.33,2.3-2.74,3.86-.21.78-5.22,19.15-12.8,32.95-.47.85-1,1.64-1.57,2.37-.1-.31-.2-.59-.28-.84-1.95-5.62-5.87-13.65-13.44-20.09-.17-.45-.39-.89-.66-1.3-.75-1.15-2.5-3-6.04-3.34-4.95-2.75-10.54-4.52-16.64-5.27-.81-.82-1.67-1.33-2.48-1.63,1.42-.76,2.67-1.84,3.68-3.2,3.82-5.16,3.3-13.05.82-18.18-1.13-2.33-2.65-4.16-4.45-5.39l.16-7.28c.07-3.22-2.49-5.89-5.71-5.96-.08,0-.17,0-.25,0-3.14.09-5.65,2.6-5.72,5.71l-.16,7.31c-4.38,2.62-6.8,7.97-7.25,12.71-.57,6.15,2.02,11.29,6.67,13.86l-.03,1.47c-3.5-.79-6.78.1-8.84,2.31-4.9,1.36-9.33,3.37-13.22,5.99-1.76.28-4.33,1.07-6.16,3.23-.94,1.1-1.54,2.39-1.76,3.78-4.45,5.15-6.97,10.75-8.4,15.28-.34-.5-.67-1.01-.97-1.55-7.59-13.8-12.59-32.17-12.8-32.93-.42-1.58-1.4-2.96-2.74-3.87-.08-.05-8.42-5.73-17.19-11.38-19.21-12.35-21.48-12.35-23.68-12.35-.1,0-.33,0-.39,0-1.69.08-3.23.67-4.46,1.63C35.06,24.19,19.47,16.79,11.04,16.79c-2.89,0-5.35.75-7.31,2.23C1.27,20.88-.05,23.63,0,26.76c.09,5.06,3.3,12.29,26.01,30.73,1.5,1.22,3,2.41,4.47,3.57-5.47.97-8.97,3.53-10.44,7.64-.15.43-.26.88-.33,1.32-1.65,11.58,13.86,18,27.57,22.29,1.03.32,2.09.65,3.18.96-1.82,2.52-2.46,5.56-1.79,8.6,1.35,6.16,7.33,8.71,14.27,9.72-.9,1.26-1.49,2.54-1.79,3.85-.72,3.15.19,6.32,2.5,8.71,2.17,2.24,5.23,3.38,9.09,3.38,2.72,0,5.94-.55,9.8-1.68-.35,1.71-.38,3.46.05,5.21.56,2.25,2.38,6.28,8.32,7.95.25.07.51.11.76.17-.27,1.05-.21,1.98-.14,2.46.06.39.15.78.3,1.19.14.38,1.43,3.71,4.85,6.59.3.3.64.56,1.01.79,4.64,3.37,10.63,4.19,17.36,2.32,2.58-.72,5.01-1.96,7.28-3.71-.16.89-.3,1.85-.44,2.91-.51,4.04-.66,8.21-.38,11.44.97,11.56,7.49,12.81,10.25,12.81.16,0,.31,0,.45-.01,3.39-.17,6.29-1.83,7.95-4.58.29-.47.53-.98.74-1.5,7.78,1.56,17.16,1.77,21.5,1.77,5.64,0,22.76-.35,33.17-4.29,1.87,1.88,4.35,2.91,7.06,2.91s5.46-1.33,7.25-3.65c2.54-3.28,3.3-8.49,1.98-13.58-.81-3.12-2.17-5.82-3.52-7.94.04-.07.08-.14.13-.21.18-.32.35-.64.5-.97,2.92,2.86,4.68,3.76,5.56,4.21,3.81,1.94,7.76,2.96,11.42,2.96,2.92,0,5.56-.63,7.85-1.87,1.17-.63,2.25-1.45,3.21-2.43.17-.17.3-.31.38-.41,1.96-2.15,3.26-4.94,3.81-8.15,4.29-1.93,5.74-5.24,6.23-7.2.43-1.74.4-3.49.05-5.21,3.87,1.14,7.09,1.68,9.8,1.68,3.86,0,6.92-1.14,9.09-3.38,2.31-2.39,3.22-5.56,2.5-8.71-.3-1.32-.89-2.6-1.79-3.86,6.94-1.01,12.92-3.56,14.27-9.72.67-3.04.03-6.08-1.79-8.6,1.09-.32,2.15-.64,3.18-.96,13.7-4.3,29.22-10.71,27.57-22.28-.07-.46-.18-.92-.33-1.34-1.46-4.11-4.96-6.66-10.43-7.64,1.47-1.16,2.97-2.35,4.47-3.57,22.71-18.44,25.92-25.66,26.01-30.73ZM109.27,141.8c-.02-.32-.06-.63-.13-.95-.28-1.4-.86-2.55-1.46-3.46.07-.03.13-.05.19-.07.87,1.24,2.07,2.28,3.56,3.05.46.24.95.42,1.45.58-.32.14-.64.26-.95.35-.95.26-1.84.43-2.66.51ZM221.27,138.38c.33-.34.64-.69.9-1.07.46.19.9.35,1.35.52-.04.44-.05.88-.04,1.28-.7-.17-1.44-.41-2.22-.72Z" />
    <path class="cls-4"
      d="M140.99,115.87c-.15-.36-.49-.59-.88-.6-.19,0-18.73-.55-26.55-14.77-8.04-14.62-13.27-34.05-13.32-34.24-.06-.23-.2-.42-.39-.55-5.59-3.81-33.53-22.71-37.61-22.71-.02,0-.04,0-.06,0-1.08.05-1.49.68-1.64,1.05-.45,1.13.58,3.13,2.1,5.23C48.22,39.38,15.01,17.81,7.25,23.68c-.94.71-1.43,1.74-1.41,2.97.16,9.24,31.63,32.77,43.37,41.23-7.59-1.48-21.5-3.28-23.66,2.77-.02.06-.04.12-.05.19-1.44,10.09,28.23,17.77,41.73,20.72-4.35.72-9.76,2.17-11.93,5-.93,1.21-1.24,2.58-.91,4.06,1.36,6.18,17.5,6.1,26.89,5.52-5.72,2.55-13.52,6.69-14.42,10.61-.28,1.22.07,2.37,1.01,3.34,4.18,4.32,17.51-.81,29.58-6.41-7.03,7.2-10.04,12.45-9.16,15.97.45,1.82,1.88,3.07,4.24,3.74,8.7,2.45,17.83-3.6,23.29-7.21.3-.2.6-.4.91-.6-.05.05-.1.1-.15.15-2.22,2.21-4.73,4.72-4.37,7.06.16,1.01.81,1.81,1.93,2.39.44.23.96.34,1.53.34,6.84,0,21.96-15.3,25.14-18.59.27-.28.35-.69.2-1.05Z" />
    <path class="cls-7"
      d="M62.23,43.97c-1.74.09-.53,2.37,1.25,4.78,8.3,4.06,17.05,7.67,25.93,11.14-10.15-6.69-24.78-16.04-27.17-15.92Z" />
    <path class="cls-7"
      d="M72.1,57.07C39.46,31.92,13.05,20.52,7.83,24.46c-2.23,1.69-.63,5.26,3.06,9.7,11.83-2.24,49.45,18.15,61.21,22.91Z" />
    <path class="cls-7"
      d="M82.62,92.61c-3.64-.3-9.17-.77-9.17-.77,0,0-19.79.93-18.12,8.57.09.42.29.81.55,1.16,6.06-7.11,16.96-9.2,26.74-8.96Z" />
    <path class="cls-7"
      d="M81.85,62.95c-3.33,3.33,2.99,9.17,5.91,12.09-4.97-2.05-11.67-6.69-14.54-3.35s6.19,9.96,12.02,10.93c-1.95-1.95-8.95-4.46-6.81-7.4,2.14-2.94,7.78.97,11.67,2.92-.97-.97-1.95-2.92-.97-3.89,0,0-5.37-5.91-3.11-8.92s13.46.85,13.36.49c-5.91-2.76-15.28-5.12-17.54-2.86Z" />
    <path class="cls-7"
      d="M86.91,91.32c-1.33,6.08,17.11,8.09,17.11,8.09,0,0-13.83-.81-15.05,2.9-1.22,3.7,13.13,8.17,13.13,8.17,0,0-8.22-3.94-6.95-7.45,1.26-3.51,16.43-2.66,16.43-2.66,0,0-18.97-5.12-18.51-8.31.45-3.18,14.88-1.98,14.64-2.56-7.39-.27-19.9-2.24-20.79,1.83Z" />
    <path class="cls-7"
      d="M102.09,110.47c-.37.56-21.24,18.63-9.31,21.98.59.17,1.19.28,1.8.36-.61-8.35,7.6-22.47,7.51-22.34Z" />
    <path class="cls-7"
      d="M86.91,104.87c-3.78,1.45-23.4,9.32-18.35,14.54,1.12,1.16,3.16,1.46,5.68,1.22,2.66-6.62,8.72-13.49,12.66-15.77Z" />
    <path class="cls-7"
      d="M77.12,78.93c-6.35-2.38-23.46-9.07-23.46-9.07,0,0-24.59-6.19-27.2,1.12-.37,2.57,1.68,5.02,5.11,7.27,10.46-7.24,29.81-1.21,45.55.68Z" />
    <path class="cls-7"
      d="M103.15,75.26s-12.53-2.98-14.34-.47c-1.81,2.51,7.17,5.46,7.17,5.46,0,0-3.7-2.42-2.89-4.67.81-2.25,10.06-.32,10.06-.32Z" />
    <path class="cls-7"
      d="M76.75,87.59s-4.18-1.95-2.27-4.5c2.59-3.48,18.02,1.37,18.02,1.37,0,0-13.68-2.58-15.05.09-1.37,2.67-.7,3.04-.7,3.04Z" />
    <path class="cls-7" d="M82.62,92.61c.87.07,1.75.12,2.62.12-.86-.06-1.74-.1-2.62-.12Z" />
    <path class="cls-5"
      d="M86.98,91.81s-.07,0-.11-.01c-1.45-.33-14.16-3.34-13.26-7.9.16-.83.63-1.48,1.38-1.93,1.39-.84,3.59-.87,5.57-.66-3.12-1.54-7.09-3.92-8.16-6.52-.39-.94-.39-1.85,0-2.71.39-.84,1.05-1.41,1.99-1.69,2.78-.83,7.53,1.14,10.81,2.81-2.85-2.89-6.34-7.29-4.4-9.93.78-1.05,2.36-1.6,4.7-1.62.04,0,.09,0,.13,0,5.18,0,13.37,2.64,14.67,4.35.16.21.12.52-.09.68-.21.16-.52.12-.68-.09-.95-1.23-8.57-3.96-13.89-3.96-.05,0-.09,0-.14,0-1.99.02-3.35.44-3.93,1.22-2.01,2.72,4.55,9.14,7.25,11.39.2.16.23.45.08.66-.15.21-.44.26-.65.13-.1-.06-9.54-5.92-13.59-4.7-.66.2-1.12.58-1.39,1.16-.28.61-.28,1.24,0,1.93,1.64,3.97,11.53,7.71,11.63,7.74.25.09.37.36.29.61-.08.25-.35.38-.6.31-.07-.02-6.54-1.86-9.13-.29-.51.31-.82.74-.93,1.29-.54,2.74,7.39,5.6,12.52,6.76.26.06.43.32.37.58-.05.23-.25.38-.47.38Z" />
    <path class="cls-5"
      d="M102.09,110.96s-.08,0-.12-.02c-1.34-.35-13.1-3.59-13.3-8.19-.03-.67.22-1.27.75-1.78,1.58-1.54,5.63-2.02,9.07-2.13-4.57-1.05-10.56-2.87-11.91-5.43-.4-.75-.41-1.53-.03-2.3,1.25-2.56,5.74-3.2,10.27-3.16-2.34-.8-4.27-1.89-4.77-3.33-.27-.79-.01-1.34.26-1.66.87-1.04,3.33-1.34,5.87-1.34h.01c-4.81-1.3-10.36-3.38-10.15-6.05.06-.69.38-1.24.97-1.64,2.9-2.01,11.99.58,12.37.69.26.07.41.34.33.6-.07.26-.34.41-.6.33-2.5-.72-9.45-2.27-11.55-.83-.34.24-.52.53-.55.92-.22,2.66,9.7,5.39,16,6.49.26.05.44.29.4.56-.04.26-.29.44-.55.41-3.94-.57-10.64-.94-11.81.48-.11.13-.22.33-.09.72.66,1.92,5.19,3.23,9.21,3.98,2.8.29,4.91.68,5.16.73.25.05.43.29.39.54-.04.26-.27.44-.53.42-.55-.05-2.76-.27-5.34-.75-5.72-.57-13.03-.59-14.44,2.31-.24.49-.23.94.02,1.42,1.64,3.11,12.57,5.36,16.65,5.97.26.04.44.27.41.53-.03.26-.26.44-.52.43-3.13-.22-11.74-.33-13.89,1.77-.32.31-.47.65-.45,1.04.14,3.29,9.13,6.38,12.58,7.29.26.07.41.33.35.59-.06.22-.25.36-.47.36Z" />
    <path class="cls-5"
      d="M76.03,78.56c-.06,0-.11,0-.17-.03l-19.39-7.12c-.25-.09-.38-.37-.29-.62.09-.25.37-.38.62-.29l19.39,7.12c.25.09.38.37.29.62-.07.2-.26.32-.46.32Z" />
    <path class="cls-5"
      d="M77.45,71.26c-.07,0-.13-.01-.2-.04C60.78,63.91,8.07,25.24,7.54,24.85c-.22-.16-.26-.46-.1-.68.16-.22.46-.26.68-.1.53.39,53.15,38.99,69.53,46.26.25.11.36.4.25.64-.08.18-.26.29-.45.29Z" />
    <path class="cls-5"
      d="M27.76,50.59c-.25,0-.46-.19-.48-.44-.03-.27.17-.51.44-.53l14.02-1.41c.27-.02.51.17.53.44.03.27-.17.51-.44.53l-14.02,1.41s-.03,0-.05,0Z" />
    <path class="cls-5"
      d="M21.03,44.81c-.24,0-.45-.18-.48-.43-.03-.27.16-.51.42-.54l12.27-1.54c.28-.03.51.16.54.42.03.27-.16.51-.42.54l-12.27,1.54s-.04,0-.06,0Z" />
    <path class="cls-5"
      d="M52.05,56.17c-.21,0-.41-.14-.47-.36l-4-14.79c-.07-.26.08-.53.34-.6.26-.07.53.08.6.34l4,14.79c.07.26-.08.53-.34.6-.04.01-.09.02-.13.02Z" />
    <path class="cls-5"
      d="M92.5,84.48s-.07,0-.11-.01l-3.98-.91c-.26-.06-.43-.32-.37-.58.06-.26.32-.43.58-.37l3.98.91c.26.06.43.32.37.58-.05.23-.25.38-.47.38Z" />
    <path class="cls-5"
      d="M118.31,119.78s.04.03-.17-.04h0s-.03,0-.05-.01c-1.75-.52-15.99-5.08-16.12-9.06-.02-.54.19-1.03.61-1.47,2.04-2.11,9.22-2.57,14.89-2.58.16,0,.27,0,.31,0,.25-.02.49.18.51.44.02.26-.15.49-.41.53-.02,0-.16,0-.41,0-7.63.02-12.8.85-14.19,2.28-.23.24-.34.49-.33.76.1,2.98,12.63,7.41,15.43,8.18.02,0,.05,0,.07.02.23.08.39.33.34.57-.05.23-.25.39-.48.39Z" />
    <path class="cls-5"
      d="M81.19,64.04c-.1,0-.2-.03-.28-.09l-10.49-7.48c-.22-.16-.27-.46-.11-.68.16-.22.46-.27.68-.11l10.49,7.48c.22.16.27.46.11.68-.09.13-.24.2-.4.2Z" />
    <path class="cls-5"
      d="M86.76,93.38s-.03,0-.04,0c-4.03-.35-10.17-.85-10.74-.85-.23.04-.45-.1-.53-.33-.08-.26.05-.53.31-.62.12-.04.33-.11,11.04.82.27.02.47.26.44.53-.02.25-.23.44-.48.44Z" />
    <path class="cls-5"
      d="M74.09,84.48s-.09,0-.13-.02c-21.46-5.91-47.08-12.98-47.26-13.06-.25-.11-.35-.4-.24-.64.1-.23.37-.34.6-.26.92.28,46.7,12.9,47.16,13.03.26.07.41.34.34.6-.06.22-.26.36-.47.36Z" />
    <path class="cls-5"
      d="M47.51,85.37c-.14,0-.27-.06-.37-.17-.18-.2-.15-.51.05-.69l7.24-6.23c.2-.18.51-.15.69.05.18.2.15.51-.05.69l-7.24,6.23c-.09.08-.2.12-.32.12Z" />
    <path class="cls-5"
      d="M49.62,77.73c-.17,0-.34-.09-.43-.25l-5.07-9.14c-.13-.24-.05-.53.19-.66.23-.13.53-.05.66.19l5.07,9.14c.13.24.05.53-.19.66-.07.04-.16.06-.24.06Z" />
    <path class="cls-5"
      d="M43.78,76.12c-.18,0-.35-.1-.44-.27l-3.95-8.06c-.12-.24-.02-.53.22-.65.24-.12.53-.02.65.22l3.95,8.06c.12.24.02.53-.22.65-.07.03-.14.05-.21.05Z" />
    <path class="cls-5"
      d="M51.59,69.27c-.24,0-.45-.17-.48-.42-.04-.27.15-.51.41-.55l17.4-2.49c.26-.04.51.15.55.41.04.27-.15.51-.41.55l-17.4,2.49s-.05,0-.07,0Z" />
    <path class="cls-5"
      d="M48.68,66.77c-.22,0-.42-.15-.47-.38-.06-.26.11-.52.37-.58l14.8-3.34c.26-.06.52.1.58.37.06.26-.11.52-.37.58l-14.8,3.34s-.07.01-.11.01Z" />
    <path class="cls-5"
      d="M113.09,100.84s-.03,0-.05,0l-7.3-.73c-.27-.03-.46-.26-.44-.53.03-.27.27-.46.53-.44l7.3.73c.27.03.46.26.44.53-.02.25-.24.44-.48.44Z" />
    <path class="cls-5"
      d="M11.04,23.6c14.32,0,57.26,30.84,57.26,30.84,0,0-9.8-10.29-6.07-10.47.02,0,.03,0,.05,0,3.95,0,37.02,22.54,37.02,22.54,0,0,5.22,19.56,13.41,34.46,8.2,14.9,27.38,15.28,27.38,15.28,0,0-17.67,18.33-24.34,18.33-.45,0-.84-.08-1.18-.26-5.4-2.79,6.21-9.76,4.91-11.08-.06-.06-.14-.09-.25-.09-2.02,0-12.3,9.83-22.54,9.83-1.31,0-2.62-.16-3.91-.52-11.92-3.35,8.94-21.42,9.31-21.98,0-.01,0-.01,0-.01-.53,0-19.84,10.26-29.33,10.26-1.84,0-3.31-.39-4.2-1.31-5.59-5.77,18.97-14.78,18.97-14.78,0,0-6.8.76-14.16.76-8.23,0-17.15-.95-18.03-4.98-1.68-7.64,18.12-8.57,18.12-8.57,0,0-48.67-9.13-46.99-20.86.97-2.71,4.96-3.56,9.61-3.56,7.87,0,17.59,2.45,17.59,2.45,0,0-54.95-38.51-45.83-45.4.78-.59,1.87-.86,3.21-.86h0ZM11.04,21.66h0c-1.81,0-3.28.42-4.38,1.25-1.2.91-1.82,2.21-1.8,3.76.06,3.21,2.63,9.51,24.21,27.04,5.91,4.8,11.85,9.29,16.28,12.55-2.93-.44-6.23-.79-9.28-.79-6.53,0-10.27,1.59-11.44,4.85-.04.12-.08.25-.09.38-.86,6.04,7.06,11.59,24.21,16.96,4.91,1.54,9.88,2.84,14.04,3.84-3.35.9-6.6,2.3-8.26,4.47-1.1,1.43-1.47,3.11-1.09,4.86.98,4.44,7.31,6.51,19.94,6.51,1.09,0,2.17-.02,3.22-.04-4.96,2.57-9.92,5.9-10.68,9.23-.35,1.53.1,3.04,1.26,4.24,1.22,1.26,3.1,1.9,5.6,1.9,5.38,0,13.22-2.84,20.71-6.12-4.98,5.74-6.94,10.06-6.13,13.34.37,1.5,1.53,3.49,4.92,4.44,1.41.4,2.9.6,4.44.6,5.5,0,10.91-2.55,15.19-5.09-.53,1.01-.81,2.05-.64,3.11.14.91.68,2.2,2.45,3.11.61.32,1.31.47,2.08.47,7.13,0,22.69-15.76,25.74-18.92.54-.56.69-1.38.4-2.09-.3-.71-.99-1.19-1.76-1.2-.18,0-18.18-.56-25.72-14.27-7.99-14.53-13.19-33.83-13.24-34.03-.12-.45-.4-.84-.78-1.11-.08-.06-8.39-5.71-17.07-11.3-18-11.58-20.06-11.58-21.05-11.58-.03,0-.11,0-.14,0-1.17.06-2.11.68-2.5,1.66-.15.38-.42,1.05.08,2.46-13.7-9.19-38.11-24.49-48.68-24.49h0Z" />
    <path class="cls-4"
      d="M324.21,26.65c.02-1.23-.47-2.26-1.41-2.97-7.77-5.87-40.97,15.69-55.39,25.6,1.52-2.11,2.55-4.11,2.1-5.23-.15-.37-.56-1-1.64-1.05-.02,0-.04,0-.06,0-4.08,0-32.02,18.9-37.61,22.71-.19.13-.33.33-.39.55-.05.19-5.28,19.62-13.33,34.24-7.82,14.22-26.36,14.77-26.55,14.77-.39,0-.73.24-.88.6-.15.36-.07.77.2,1.05,3.18,3.3,18.3,18.59,25.14,18.59.57,0,1.08-.11,1.53-.34,1.13-.58,1.78-1.39,1.93-2.39.36-2.34-2.15-4.85-4.37-7.06-.05-.05-.1-.1-.15-.15.3.2.61.4.91.6,5.45,3.61,14.58,9.67,23.29,7.21,2.36-.66,3.79-1.92,4.24-3.74.87-3.52-2.13-8.77-9.16-15.97,12.07,5.6,25.4,10.73,29.58,6.41.94-.97,1.29-2.13,1.01-3.34-.9-3.92-8.7-8.06-14.42-10.61,9.39.58,25.53.66,26.89-5.52.32-1.48.02-2.84-.91-4.06-2.17-2.84-7.58-4.28-11.93-5,13.5-2.95,43.17-10.63,41.73-20.72,0-.06-.03-.13-.05-.19-2.16-6.04-16.07-4.24-23.66-2.77,11.73-8.46,43.2-31.99,43.37-41.23Z" />
    <path class="cls-7"
      d="M267.82,43.97c1.74.09.53,2.37-1.25,4.78-8.3,4.06-17.05,7.67-25.93,11.14,10.15-6.69,24.78-16.04,27.17-15.92Z" />
    <path class="cls-7"
      d="M257.94,57.07c32.65-25.15,59.06-36.55,64.27-32.61,2.23,1.69.63,5.26-3.06,9.7-11.83-2.24-49.45,18.15-61.21,22.91Z" />
    <path class="cls-7"
      d="M247.42,92.61c3.64-.3,9.17-.77,9.17-.77,0,0,19.79.93,18.12,8.57-.09.42-.29.81-.55,1.16-6.06-7.11-16.96-9.2-26.74-8.96Z" />
    <path class="cls-7"
      d="M248.2,62.95c3.33,3.33-2.99,9.17-5.91,12.09,4.97-2.05,11.67-6.69,14.54-3.35s-6.19,9.96-12.02,10.93c1.95-1.95,8.95-4.46,6.81-7.4-2.14-2.94-7.78.97-11.67,2.92.97-.97,1.95-2.92.97-3.89,0,0,5.37-5.91,3.11-8.92-2.26-3.01-13.46.85-13.36.49,5.91-2.76,15.28-5.12,17.54-2.86Z" />
    <path class="cls-7"
      d="M243.14,91.32c1.33,6.08-17.11,8.09-17.11,8.09,0,0,13.83-.81,15.05,2.9,1.22,3.7-13.13,8.17-13.13,8.17,0,0,8.22-3.94,6.95-7.45-1.26-3.51-16.43-2.66-16.43-2.66,0,0,18.97-5.12,18.51-8.31-.45-3.18-14.88-1.98-14.64-2.56,7.39-.27,19.9-2.24,20.79,1.83Z" />
    <path class="cls-7"
      d="M227.95,110.47c.37.56,21.24,18.63,9.31,21.98-.59.17-1.19.28-1.8.36.61-8.35-7.6-22.47-7.51-22.34Z" />
    <path class="cls-7"
      d="M243.14,104.87c3.78,1.45,23.4,9.32,18.35,14.54-1.12,1.16-3.16,1.46-5.68,1.22-2.66-6.62-8.72-13.49-12.66-15.77Z" />
    <path class="cls-7"
      d="M252.92,78.93c6.35-2.38,23.46-9.07,23.46-9.07,0,0,24.59-6.19,27.2,1.12.37,2.57-1.68,5.02-5.11,7.27-10.46-7.24-29.81-1.21-45.55.68Z" />
    <path class="cls-7"
      d="M226.9,75.26s12.53-2.98,14.34-.47c1.81,2.51-7.17,5.46-7.17,5.46,0,0,3.7-2.42,2.89-4.67-.81-2.25-10.06-.32-10.06-.32Z" />
    <path class="cls-7"
      d="M253.3,87.59s4.18-1.95,2.27-4.5c-2.59-3.48-18.02,1.37-18.02,1.37,0,0,13.68-2.58,15.05.09,1.37,2.67.7,3.04.7,3.04Z" />
    <path class="cls-7" d="M247.42,92.61c-.87.07-1.75.12-2.62.12.86-.06,1.74-.1,2.62-.12Z" />
    <path class="cls-5"
      d="M243.07,91.81c-.22,0-.42-.15-.47-.38-.06-.26.1-.52.37-.58,5.13-1.16,13.06-4.02,12.52-6.76-.11-.56-.41-.98-.93-1.29-2.59-1.58-9.06.27-9.13.29-.25.07-.51-.07-.6-.31-.08-.25.05-.52.29-.61.1-.04,9.99-3.78,11.63-7.74.28-.69.29-1.32,0-1.93-.27-.58-.72-.97-1.39-1.16-4.04-1.21-13.5,4.64-13.59,4.7-.22.14-.5.08-.65-.13-.15-.21-.11-.49.08-.66,2.7-2.25,9.25-8.67,7.25-11.39-.58-.78-1.94-1.21-3.93-1.22-5.31-.06-13.07,2.72-14.02,3.96-.16.21-.47.25-.68.09-.21-.16-.25-.47-.09-.68,1.31-1.72,9.59-4.4,14.8-4.34,2.34.02,3.93.57,4.7,1.62,1.95,2.64-1.55,7.04-4.4,9.93,3.28-1.67,8.03-3.64,10.81-2.81.94.28,1.6.85,1.99,1.69.39.86.4,1.77,0,2.71-1.07,2.59-5.04,4.98-8.16,6.52,1.98-.22,4.18-.19,5.57.66.75.46,1.21,1.11,1.38,1.93.9,4.56-11.81,7.57-13.26,7.9-.04,0-.07.01-.11.01Z" />
    <path class="cls-5"
      d="M227.95,110.96c-.22,0-.41-.14-.47-.36-.07-.26.09-.53.35-.59,3.45-.91,12.44-4,12.58-7.29.02-.39-.13-.73-.45-1.04-2.15-2.1-10.76-1.99-13.89-1.77-.25.01-.49-.17-.52-.43-.03-.26.15-.5.41-.53,4.08-.61,15.01-2.87,16.65-5.97.25-.48.26-.93.02-1.42-1.41-2.9-8.72-2.88-14.44-2.31-2.58.48-4.79.7-5.34.75-.25.02-.49-.16-.53-.42-.04-.26.14-.5.39-.54.25-.05,2.36-.44,5.16-.73,4.02-.75,8.55-2.05,9.21-3.98.13-.39.02-.59-.09-.72-1.17-1.42-7.87-1.05-11.81-.48-.25.04-.51-.14-.55-.41-.04-.26.13-.51.4-.56,6.3-1.1,16.22-3.83,16-6.49-.03-.39-.21-.69-.55-.92-2.1-1.45-9.05.11-11.55.83-.26.07-.53-.07-.6-.33-.07-.26.07-.53.33-.6.39-.11,9.46-2.7,12.37-.69.59.4.91.96.97,1.64.22,2.67-5.34,4.75-10.15,6.05h.02c2.54,0,5.01.3,5.87,1.34.27.32.53.87.26,1.66-.5,1.45-2.43,2.53-4.77,3.33,4.51-.04,9.02.6,10.27,3.16.38.77.36,1.55-.03,2.3-1.35,2.56-7.33,4.38-11.91,5.43,3.44.11,7.49.59,9.07,2.13.52.51.78,1.11.75,1.78-.2,4.6-11.96,7.83-13.3,8.19-.04.01-.08.02-.12.02Z" />
    <path class="cls-5"
      d="M254.02,78.56c-.2,0-.38-.12-.46-.32-.09-.25.04-.53.29-.62l19.39-7.12c.25-.09.53.04.63.29.09.25-.04.53-.29.62l-19.39,7.12c-.06.02-.11.03-.17.03Z" />
    <path class="cls-5"
      d="M252.6,71.26c-.19,0-.36-.11-.44-.29-.11-.25,0-.53.25-.64,16.38-7.27,69-45.87,69.53-46.26.21-.16.52-.11.68.1.16.22.11.52-.1.68-.53.39-53.23,39.06-69.71,46.37-.06.03-.13.04-.2.04Z" />
    <path class="cls-5"
      d="M302.29,50.59s-.03,0-.05,0l-14.02-1.41c-.27-.03-.46-.27-.44-.53.03-.27.27-.46.53-.44l14.02,1.41c.27.03.46.27.44.53-.02.25-.24.44-.48.44Z" />
    <path class="cls-5"
      d="M309.02,44.81s-.04,0-.06,0l-12.27-1.54c-.27-.03-.45-.28-.42-.54.03-.27.28-.45.54-.42l12.27,1.54c.27.03.45.28.42.54-.03.25-.24.43-.48.43Z" />
    <path class="cls-5"
      d="M278,56.17s-.08,0-.13-.02c-.26-.07-.41-.34-.34-.6l4-14.79c.07-.26.34-.41.6-.34.26.07.41.34.34.6l-4,14.79c-.06.22-.25.36-.47.36Z" />
    <path class="cls-5"
      d="M237.55,84.48c-.22,0-.42-.15-.47-.38-.06-.26.1-.52.37-.58l3.98-.91c.26-.06.52.1.58.37.06.26-.1.52-.37.58l-3.98.91s-.07.01-.11.01Z" />
    <path class="cls-5"
      d="M211.73,119.78c-.23,0-.43-.16-.48-.39-.05-.24.1-.49.34-.57.02,0,.05-.01.07-.02,2.81-.77,15.34-5.2,15.43-8.18,0-.27-.1-.52-.33-.76-1.39-1.43-6.56-2.27-14.19-2.28-.24,0-.38,0-.41,0-.27-.04-.45-.28-.41-.55.04-.26.27-.44.52-.42.04,0,.14,0,.3,0,5.67.01,12.85.47,14.89,2.58.42.43.62.93.61,1.47-.13,3.98-14.34,8.54-16.12,9.06-.02,0-.03.01-.05.02h0c-.22.06-.15.03-.17.03Z" />
    <path class="cls-5"
      d="M248.85,64.04c-.15,0-.3-.07-.4-.2-.16-.22-.1-.52.11-.68l10.49-7.48c.22-.15.52-.11.68.11.16.22.1.52-.11.68l-10.49,7.48c-.09.06-.18.09-.28.09Z" />
    <path class="cls-5"
      d="M243.29,93.38c-.25,0-.46-.19-.48-.44-.02-.27.17-.5.44-.53,10.72-.93,10.92-.86,11.04-.82.25.08.39.36.31.61-.08.23-.3.37-.53.33-.57,0-6.71.5-10.74.85-.01,0-.03,0-.04,0Z" />
    <path class="cls-5"
      d="M255.96,84.48c-.21,0-.41-.14-.47-.36-.07-.26.08-.53.34-.6.46-.13,46.44-12.8,47.17-13.03.25-.11.51,0,.62.25.11.25-.02.54-.27.65-.18.08-25.8,7.15-47.26,13.06-.04.01-.09.02-.13.02Z" />
    <path class="cls-5"
      d="M282.53,85.37c-.11,0-.23-.04-.32-.12l-7.24-6.23c-.2-.18-.23-.48-.05-.69.17-.2.48-.23.69-.05l7.24,6.23c.2.18.23.48.05.69-.1.11-.23.17-.37.17Z" />
    <path class="cls-5"
      d="M280.42,77.73c-.08,0-.16-.02-.24-.06-.23-.13-.32-.43-.19-.66l5.07-9.14c.13-.24.43-.32.66-.19.23.13.32.43.19.66l-5.07,9.14c-.09.16-.25.25-.43.25Z" />
    <path class="cls-5"
      d="M286.27,76.12c-.07,0-.15-.02-.21-.05-.24-.12-.34-.41-.22-.65l3.95-8.06c.12-.24.41-.34.65-.22.24.12.34.41.22.65l-3.95,8.06c-.08.17-.26.27-.44.27Z" />
    <path class="cls-5"
      d="M278.46,69.27s-.05,0-.07,0l-17.4-2.49c-.27-.04-.45-.28-.41-.55.04-.27.29-.45.55-.41l17.4,2.49c.27.04.45.28.41.55-.04.24-.24.42-.48.42Z" />
    <path class="cls-5"
      d="M281.36,66.77s-.07,0-.11-.01l-14.8-3.34c-.26-.06-.43-.32-.37-.58.06-.26.32-.43.58-.37l14.8,3.34c.26.06.43.32.37.58-.05.23-.25.38-.47.38Z" />
    <path class="cls-5"
      d="M216.96,100.84c-.25,0-.46-.19-.48-.44-.03-.27.17-.51.44-.53l7.3-.73c.26-.03.51.17.53.44.03.27-.17.51-.44.53l-7.3.73s-.03,0-.05,0Z" />
    <path class="cls-5"
      d="M319.01,23.6c1.34,0,2.43.27,3.21.86,9.13,6.89-45.83,45.4-45.83,45.4,0,0,9.72-2.45,17.59-2.45,4.64,0,8.64.85,9.61,3.56,1.68,11.74-46.99,20.86-46.99,20.86,0,0,19.79.93,18.12,8.57-.88,4.03-9.81,4.98-18.03,4.98-7.36,0-14.16-.76-14.16-.76,0,0,24.56,9,18.97,14.78-.89.92-2.36,1.31-4.2,1.31-9.48,0-28.79-10.26-29.33-10.26-.01,0-.01,0,0,.01.37.56,21.24,18.63,9.31,21.98-1.29.36-2.6.52-3.91.52-10.24,0-20.52-9.83-22.54-9.83-.11,0-.19.03-.25.09-1.3,1.32,10.31,8.28,4.91,11.08-.34.18-.74.26-1.18.26-6.67,0-24.34-18.33-24.34-18.33,0,0,19.19-.37,27.38-15.28,8.2-14.9,13.41-34.46,13.41-34.46,0,0,33.07-22.54,37.02-22.54.02,0,.03,0,.05,0,3.73.19-6.07,10.47-6.07,10.47,0,0,42.94-30.84,57.26-30.84h0ZM319.01,21.66c-10.57,0-34.98,15.3-48.68,24.49.5-1.41.24-2.08.08-2.46-.39-.98-1.33-1.6-2.5-1.66-.03,0-.11,0-.14,0-.99,0-3.04,0-21.05,11.58-8.68,5.58-16.99,11.24-17.07,11.3-.39.26-.66.66-.78,1.11-.05.19-5.25,19.51-13.24,34.03-7.54,13.71-25.54,14.26-25.72,14.27-.77.02-1.46.49-1.76,1.2-.29.71-.14,1.54.4,2.09,3.05,3.16,18.61,18.92,25.74,18.92.77,0,1.47-.16,2.08-.47,1.77-.91,2.31-2.19,2.45-3.11.16-1.06-.11-2.1-.64-3.11,4.27,2.54,9.68,5.09,15.19,5.09,1.54,0,3.03-.2,4.44-.6,3.39-.95,4.55-2.94,4.92-4.44.81-3.28-1.16-7.6-6.13-13.34,7.49,3.28,15.32,6.12,20.71,6.12,2.49,0,4.38-.64,5.6-1.9,1.16-1.2,1.61-2.7,1.26-4.24-.76-3.34-5.72-6.66-10.68-9.23,1.05.03,2.12.04,3.22.04,12.63,0,18.96-2.07,19.94-6.51.38-1.74,0-3.42-1.09-4.86-1.66-2.16-4.91-3.56-8.26-4.47,4.16-1,9.13-2.3,14.04-3.84,17.15-5.38,25.07-10.93,24.21-16.96-.02-.13-.05-.26-.09-.38-1.17-3.27-4.91-4.85-11.44-4.85-3.06,0-6.36.35-9.28.79,4.43-3.26,10.37-7.75,16.28-12.55,21.58-17.52,24.16-23.82,24.21-27.04.03-1.55-.59-2.85-1.8-3.76-1.1-.83-2.57-1.25-4.38-1.25h0Z" />
    <path class="cls-7" d="M127.1,121.68c.17-.14.27-.22.27-.22,0,0-.1.08-.27.22Z" />
    <path class="cls-5"
      d="M131.77,171.62c-3.43,0-5.41-2.96-5.9-8.81-.25-2.94-.11-6.78.37-10.52.52-4.07,1.06-5.96,1.98-6.81-.34-1.87.35-4.05,1.9-5.91.17-.28.2-1.82.22-2.32.02-.8.04-1.62.17-2.36.05-.3.12-.6.2-.89-.85-.19-1.44-.28-1.57-.3-.18-.02-.36-.07-.54-.14-4.05,8.22-9,13.19-14.71,14.78-1.97.55-3.86.82-5.61.82-3.13,0-5.88-.87-8.18-2.59-.17-.09-.32-.2-.44-.35-2.72-2.23-3.71-4.87-3.72-4.89-.04-.1-.06-.2-.07-.3-.23-1.59,1.4-2.09,2.09-2.3.74-.23,1.51-.46,1.78-1.03.24-.52.75-.84,1.33-.84h.12c.69,0,1.29.48,1.44,1.14.1.13.3.36.4.49.65.76,1.55,1.81,1.83,3.21.24,1.2-.26,2.39-1.44,3.49,1.43.68,3.05,1.02,4.84,1.02,1.49,0,3.12-.24,4.84-.72,6.43-1.79,12.34-9.69,16.27-21.75-1.15.23-2.01.34-2.71.34-.98,0-1.77-.2-2.43-.61-3.34-2.08-2.92-13.28-1.15-20.39,1.16-4.68,3.71-11.48,9.24-17.37-.14-1,.13-1.94.79-2.7,1.08-1.27,3.02-1.79,4.43-1.85,4.06-2.91,8.85-5.05,14.24-6.37.02-.05.05-.1.08-.15.68-1.24,1.96-1.93,3.59-1.93,1.07,0,2.33.3,3.47.83.83-.09,1.6-.16,2.35-.21,1.33-.09,2.66-.15,3.94-.16.27-.43.65-.82,1.13-1.16.47-.33.97-.5,1.48-.5.73,0,1.75.33,2.53,1.86,6.64.57,12.61,2.4,17.75,5.44h.08c1.72,0,2.95.49,3.57,1.42.26.4.4.86.39,1.34.34.26.65.52.94.76,6.92,5.82,10.5,13.18,12.29,18.32,1.57,4.52,3.85,14.63.86,16.99-.91.72-2.22,1.14-6.11,1.18,0,.37-.01.79,0,1.27,3.56,5.64,12.23,18.75,17.7,21.54,2.73,1.39,5.61,2.15,8.12,2.15,1.56,0,2.92-.28,4.05-.83-.58-.4-1.06-.89-1.42-1.45-.92-1.45-1.03-3.28-.3-5.44.05-.15.09-.21.11-.24.05-.09.09-.18.17-.28.08-.09.16-.15.22-.2.05-.05.11-.1.19-.15l.07-.04c2.1-1.15,3.74-1.71,5.02-1.71.63,0,1.19.14,1.65.41.49.29,1.31.99,1.31,2.5,0,.05,0,.11,0,.16-.31,2.89-1.3,5.25-2.94,7.01-.05.06-.1.12-.16.17-.64.66-1.4,1.25-2.22,1.69-1.64.89-3.58,1.35-5.76,1.35-2.98,0-6.25-.86-9.44-2.49-4.65-2.37-10.78-10.4-15.53-17.46.71,3.12,1.85,6.07,3.39,8.81,1.92,3.39,1.03,5.91.33,7.11-.49.85-1.2,1.57-1.99,2.05,1.35,1.65,3.81,5.1,4.93,9.4.98,3.76.5,7.61-1.2,9.82-.98,1.26-2.33,1.96-3.8,1.96-1.68,0-3.13-.66-4.22-1.9-.52-.59-.95-1.33-1.28-2.19-6.65,4.02-22.17,5.46-34.74,5.46-4,0-17.31-.21-25.14-2.84.17,1.92-.11,3.49-.84,4.69-.91,1.5-2.48,2.38-4.43,2.48-.08,0-.16,0-.24,0ZM99.27,141.41c.34.56.87,1.31,1.64,2.04.74-.53,1.08-1.02,1.07-1.17-.12-.58-.58-1.17-1.01-1.68-.58.4-1.2.64-1.7.81ZM230.98,137.49c-.27,1.04-.23,1.86.13,2.42.34.54.92.84,1.37,1.01.86-1.17,1.4-2.69,1.62-4.52-.28,0-1.22.11-3.12,1.09Z" />
    <path class="cls-3"
      d="M167.83,72c.65,0,1.53.34,2.21,1.83,6.73.54,12.76,2.38,17.95,5.47.07,0,.14,0,.22,0,1.08,0,2.5.21,3.15,1.2.19.29.36.73.3,1.3.41.32.79.62,1.13.91,6.83,5.75,10.37,13.02,12.14,18.1,1.9,5.45,3.53,14.45,1.02,16.44-.84.66-2.18,1.07-6.28,1.07-.02.5-.03,1.15-.01,1.91,4.17,6.62,12.5,19.05,17.98,21.83,2.86,1.46,5.79,2.21,8.35,2.21,1.73,0,3.3-.34,4.58-1.04.16-.09.31-.19.46-.29-.7-.34-1.45-.88-1.98-1.72-.84-1.32-.92-3.01-.25-5.01,0,0,0,0,0-.01,0-.01,0-.03.01-.04.01-.04.05-.08.07-.12.03-.07.06-.13.11-.19.05-.06.11-.1.16-.14.04-.03.06-.07.11-.09.01,0,.03-.01.04-.02,0,0,0,0,0,0,2.01-1.11,3.6-1.66,4.8-1.66.54,0,1.01.11,1.4.34.4.23,1.06.81,1.06,2.07,0,.03,0,.07,0,.1-.3,2.8-1.26,5.07-2.81,6.72-.04.04-.07.09-.11.12-.63.64-1.33,1.2-2.14,1.64-1.58.86-3.47,1.28-5.53,1.28-2.86,0-6.05-.82-9.21-2.43-5.1-2.6-12.13-12.36-16.71-19.36.5,3.27,1.59,7.29,3.91,11.39,1.79,3.17.98,5.5.33,6.61-.57.98-1.44,1.75-2.35,2.14,1.26,1.45,4.03,5.05,5.23,9.68.94,3.61.5,7.3-1.12,9.38-.88,1.14-2.09,1.76-3.4,1.76-1.53,0-2.86-.6-3.84-1.73-.59-.68-1.06-1.56-1.39-2.62-6.19,4.2-22.33,5.72-35,5.72-4.33,0-18.15-.24-25.73-3.08.31,2.17.09,3.91-.68,5.17-.82,1.36-2.25,2.15-4.02,2.24-.07,0-.15,0-.22,0-3.12,0-4.94-2.81-5.4-8.35-.24-2.91-.11-6.71.36-10.42.58-4.56,1.18-6.11,2.04-6.67-.45-1.76.2-3.96,1.73-5.79.28-.33.31-1.82.33-2.64.02-.77.04-1.57.16-2.28.08-.47.2-.92.35-1.34-1.26-.31-2.14-.43-2.15-.43-.3-.04-.58-.16-.83-.32-3.19,6.61-7.92,13.11-14.62,14.97-2.04.57-3.86.81-5.48.81-3.51,0-6.08-1.13-7.91-2.52-.13-.06-.25-.15-.35-.28-2.6-2.11-3.59-4.66-3.6-4.71-.02-.06-.04-.13-.05-.2-.17-1.17,1.03-1.53,1.74-1.75.81-.25,1.72-.52,2.08-1.3.17-.35.51-.55.88-.55.03,0,.05,0,.08,0,.02,0,.03,0,.05,0,.49,0,.9.36.96.84.08.14.32.41.5.62.62.72,1.46,1.71,1.72,2.98.3,1.49-.84,2.72-1.84,3.49,1.44.82,3.32,1.42,5.73,1.42,1.46,0,3.11-.22,4.97-.74,6.78-1.88,12.89-10.21,16.88-22.9-1.38.31-2.54.51-3.44.51s-1.59-.17-2.16-.53c-2.86-1.79-2.85-12.14-.93-19.85,1.17-4.71,3.73-11.49,9.29-17.33-.01-.05-.02-.1-.03-.15-.14-.89.08-1.72.66-2.39.96-1.13,2.78-1.65,4.21-1.68,4.09-2.96,8.94-5.12,14.43-6.44.04-.11.09-.22.16-.34.59-1.07,1.71-1.67,3.15-1.67,1.04,0,2.29.31,3.39.84.88-.1,1.69-.17,2.47-.23,1.42-.1,2.83-.15,4.2-.16.24-.46.61-.88,1.13-1.25.38-.27.78-.41,1.19-.41h0ZM130.54,127.83c.14-.09.28-.19.43-.28-.05-.19-.07-.39-.1-.59-.11.29-.21.58-.33.88h0ZM232.66,141.5c1.06-1.3,1.72-3.03,1.95-5.18,0-.12-.02-.3-.1-.35-.07-.04-.2-.07-.38-.07-.57,0-1.72.27-3.57,1.25-.37,1.26-.34,2.29.13,3.03.51.81,1.42,1.17,1.98,1.32h0ZM100.87,144.09c.85-.55,1.71-1.35,1.6-1.91-.16-.78-.78-1.51-1.29-2.1-.05-.06-.09-.11-.14-.17-.77.66-1.72.96-2.37,1.16-.05.01-.09.03-.14.04.36.7,1.1,1.88,2.33,2.97h0ZM200.75,142.93h0,0s0,0,0,0c0,0,0,0,0,0h0ZM167.84,71h0c-.62,0-1.22.2-1.78.6-.44.32-.81.68-1.1,1.07-1.22.02-2.46.07-3.71.16-.71.05-1.44.12-2.23.2-1.17-.52-2.45-.82-3.56-.82-1.78,0-3.24.78-4.01,2.15-5.32,1.33-10.05,3.45-14.08,6.31-1.49.1-3.49.67-4.63,2.02-.68.8-1.01,1.81-.93,2.85-5.5,5.93-8.04,12.73-9.21,17.43-1.77,7.1-2.29,18.65,1.38,20.94.74.46,1.62.68,2.69.68.55,0,1.18-.06,1.96-.19-3.88,11.44-9.54,18.92-15.67,20.62-1.67.46-3.25.7-4.7.7s-2.77-.23-3.97-.69c.93-1.08,1.3-2.24,1.06-3.41-.31-1.53-1.29-2.68-1.94-3.44-.09-.1-.23-.27-.33-.39-.24-.83-1.01-1.42-1.89-1.42h-.17c-.74.02-1.42.46-1.74,1.13-.18.37-.86.58-1.47.77-.68.2-2.73.83-2.44,2.85.02.13.05.27.1.4.01.03,1.04,2.77,3.84,5.08.15.17.32.3.52.41,2.38,1.77,5.22,2.67,8.44,2.67,1.8,0,3.73-.28,5.74-.84,5.76-1.6,10.75-6.53,14.84-14.66.07.01.14.03.21.04,0,0,.39.05,1.02.18-.03.14-.06.28-.08.43-.14.78-.16,1.62-.18,2.43-.01.43-.04,1.7-.16,2.1-1.53,1.88-2.25,4.06-1.99,5.99-.91,1-1.44,2.95-1.94,6.92-.48,3.78-.62,7.65-.37,10.63.64,7.66,3.83,9.27,6.4,9.27.09,0,.18,0,.26,0,2.12-.1,3.83-1.07,4.83-2.72.68-1.13,1-2.55.95-4.25,7.97,2.44,20.7,2.64,24.6,2.64,12.32,0,27.5-1.39,34.5-5.25.32.69.7,1.29,1.14,1.8,1.18,1.36,2.77,2.07,4.6,2.07,1.63,0,3.12-.76,4.2-2.15,1.8-2.32,2.31-6.35,1.29-10.25-1.05-4.05-3.27-7.35-4.69-9.16.67-.5,1.26-1.16,1.7-1.9.75-1.29,1.71-4-.33-7.6-1.04-1.85-1.9-3.79-2.56-5.83,4.49,6.42,9.84,13.03,14.03,15.17,3.27,1.66,6.61,2.54,9.67,2.54,2.27,0,4.29-.47,6-1.41.85-.46,1.65-1.07,2.36-1.8.06-.06.11-.12.17-.18,1.7-1.82,2.74-4.28,3.06-7.28,0-.07.01-.14.01-.21,0-1.83-1.09-2.66-1.56-2.94-.54-.32-1.18-.48-1.9-.48-1.37,0-3.08.58-5.25,1.77h0s-.03.02-.03.02l-.04.02c-.12.07-.21.15-.26.19-.09.06-.19.15-.29.27-.11.13-.18.26-.22.35-.04.06-.1.16-.14.28v.03s-.02.05-.02.05c-.77,2.29-.65,4.26.36,5.85.24.38.53.73.86,1.04-.91.31-1.95.47-3.08.47-2.43,0-5.24-.75-7.9-2.1-3.77-1.92-10.12-9.66-17.43-21.24,0-.21,0-.42,0-.63,3.66-.07,4.97-.53,5.92-1.28,3.47-2.75.67-13.6-.7-17.55-1.81-5.2-5.44-12.65-12.44-18.54-.24-.2-.5-.41-.77-.63-.04-.49-.2-.95-.47-1.36-.7-1.07-2.06-1.64-3.93-1.65-5.11-3-11.02-4.82-17.58-5.42-.93-1.63-2.16-1.89-2.84-1.89h0ZM231.41,137.83c.98-.49,1.66-.72,2.1-.84-.22,1.29-.63,2.4-1.21,3.3-.29-.15-.59-.36-.77-.65-.3-.48-.25-1.2-.12-1.81h0ZM100.03,141.66c.27-.11.55-.24.83-.4.26.33.5.68.6.99-.07.11-.23.3-.5.53-.37-.39-.68-.78-.92-1.12h0Z" />
    <path class="cls-2"
      d="M199.92,145.26s3.93,3.98,5.37,9.5c1.13,4.33-.09,8.71-2.64,8.71-5.1,0-3.74-9.88-3.74-9.88l1.01-8.33Z" />
    <path class="cls-1"
      d="M205.29,154.76c-.5-1.93-1.31-3.67-2.15-5.12.13,4.59-.38,9.27-1.91,13.51.41.2.87.32,1.42.32,2.55,0,3.76-4.38,2.64-8.71Z" />
    <path class="cls-5"
      d="M199.92,145.26s3.93,3.98,5.37,9.5c1.13,4.33-.09,8.71-2.64,8.71-5.1,0-3.74-9.88-3.74-9.88l1.01-8.33h0ZM199.92,144.29c-.11,0-.21.02-.31.05-.35.12-.61.43-.65.8l-1.01,8.33c-.09.67-.85,6.77,1.59,9.58.8.91,1.87,1.39,3.11,1.39,1.02,0,1.93-.48,2.64-1.39,1.42-1.83,1.8-5.26.94-8.55-1.48-5.71-5.45-9.77-5.62-9.94-.19-.19-.44-.29-.69-.29h0Z" />
    <path class="cls-2"
      d="M197.84,116.8s-1.41,9.7,4.41,20c2.27,4.02-.7,6.15-1.51,6.12-1.72-.05-2.69.33-3.73-2.68-1.18-3.43-.36-8.45-.36-8.45l-2.08-16.64,3.26,1.64Z" />
    <path class="cls-5"
      d="M194.58,115.16l3.26,1.64s-1.41,9.7,4.41,20c2.26,4-.67,6.12-1.5,6.12,0,0,0,0-.01,0-1.72-.05-2.69.33-3.73-2.68-1.18-3.43-.36-8.45-.36-8.45l-2.08-16.64h0ZM194.58,114.19c-.2,0-.39.06-.56.18-.29.21-.45.56-.4.92l2.06,16.5c-.13.88-.73,5.45.42,8.78,1.07,3.1,2.32,3.33,4.1,3.33.17,0,.34,0,.52,0h0c.93,0,2.08-.83,2.73-1.93.54-.93,1.21-2.89-.34-5.64-5.58-9.87-4.31-19.29-4.3-19.38.06-.41-.15-.82-.53-1.01l-3.26-1.64c-.14-.07-.29-.1-.44-.1h0Z" />
    <path class="cls-5"
      d="M225.96,146.24c-2.86,0-6.05-.82-9.21-2.43-8.01-4.08-20.8-25.85-21.34-26.78-.27-.46-.11-1.06.35-1.33.46-.27,1.06-.11,1.33.35.13.22,13.04,22.2,20.54,26.03,4.8,2.44,9.76,2.89,12.93,1.17,2.32-1.26,3.69-3.59,4.05-6.92,0-.12-.02-.3-.1-.35-.31-.18-1.61-.13-4.31,1.37-.47.26-1.06.09-1.32-.38-.26-.47-.09-1.06.38-1.32,2.96-1.63,5-2.07,6.24-1.34.4.23,1.06.81,1.06,2.07,0,.03,0,.07,0,.1-.42,3.98-2.17,6.92-5.06,8.49-1.58.86-3.47,1.28-5.53,1.28Z" />
    <path class="cls-2"
      d="M129.9,147.31c-1.02.17-4.15,22.16,1.99,21.86,6.06-.29,1.03-11.13,1.03-11.13,0,0-2-10.91-3.02-10.74Z" />
    <path class="cls-1"
      d="M131.89,169.17c1.3-.06,2.08-.61,2.52-1.43-3.58-4.41-5.4-10.11-5.62-16.08-.94,6.44-1.31,17.72,3.1,17.51Z" />
    <path class="cls-5"
      d="M129.93,147.31c1.03,0,2.99,10.74,2.99,10.74,0,0,5.03,10.83-1.03,11.13-.04,0-.08,0-.12,0-5.98,0-2.88-21.7-1.87-21.87,0,0,.02,0,.02,0h0ZM129.93,146.33c-.05,0-.13,0-.19.02-.57.1-1.29.22-2.04,6.13-.47,3.65-.6,7.37-.36,10.21.41,4.95,1.9,7.46,4.43,7.46.06,0,.11,0,.17,0,1.85-.09,2.78-1.01,3.24-1.77,1.91-3.16-.8-9.47-1.32-10.63-2.1-11.41-3.15-11.41-3.93-11.41h0Z" />
    <path class="cls-6"
      d="M162.41,165.35c-12.32,0-26.45-1.45-29.13-5.52-.9-1.37-3.82-11.49-3.4-13.05.23-.84,1.41-.94,2.28-.94,1.77,0,4.14.48,4.57.57l55.31-2.57c.14-.04,5.51-1.29,6.82-1.41h.01c.25,0,.44.09.57.25.99,1.14-.17,10.16-.71,13.99.02.78-.35,1.6-1.1,2.36-4.3,4.37-20.79,6.32-35.23,6.32Z" />
    <path class="cls-5"
      d="M198.93,142.93c1.26,0-.68,13.67-.68,13.67.09,5.44-18.52,8.26-35.83,8.26-13.58,0-26.36-1.73-28.71-5.29-.97-1.47-3.68-11.35-3.33-12.64.12-.43.86-.57,1.8-.57,1.87,0,4.53.57,4.53.57l55.37-2.58s5.56-1.29,6.84-1.41c0,0,.01,0,.02,0h0ZM198.93,141.93s-.08,0-.11,0c-1.27.12-6.01,1.2-6.89,1.41l-55.15,2.57c-.57-.12-2.87-.57-4.61-.57h0c-.66,0-2.4,0-2.75,1.31-.48,1.76,2.47,11.96,3.46,13.46,2.79,4.24,17.09,5.74,29.55,5.74,14.54,0,31.18-2,35.59-6.47.82-.83,1.24-1.74,1.25-2.71,1.21-8.55,1.41-13.37.58-14.32-.23-.27-.56-.42-.9-.42h0Z" />
    <path class="cls-2"
      d="M137.78,162.07c14.68,5.14,60.6,3.06,60.47-5.47,0,0,.7-4.93.99-8.87-.98,2.27-1.08,6.77-2.58,8.45-11.69,9.49-43.18,9.24-58.87,5.9Z" />
    <path class="cls-3"
      d="M198.91,142.93c-1.29.12-6.84,1.41-6.84,1.41l-55.37,2.58s-5.98-1.29-6.33,0c-.08.31-.3,2.64,11.81,3.7,16.13,1.41,39.66-1.09,51.18-4.16,6.91-1.84,5.69-3.53,5.55-3.52Z" />
    <path class="cls-4"
      d="M198.15,143.04c-1.97.34-6.08,1.3-6.08,1.3l-55.37,2.58s-.81-.57-1.82-.32c-.23-.25-4.05-.36-3.92-.05-.08,1.82,4.89,1.94,6.48,2.18,1.21.18,4.13.29,7.26.43.9.04,6.69,9.85,7.33,9.78,1.25-.14,6.37-9.4,7.09-9.41,4.34-.08,9.07-.76,11.12-.81,0,0-.49,10.48,4.86,10.22,5.35-.26,3.26-10.85,4.43-11.23,1.17-.38,10.23-.7,13.71-1.7,5.05-1.45,5.23-3,4.91-2.95Z" />
    <path class="cls-2"
      d="M133.78,132.3s-.99.91-1.34,2.92c-.3,1.72.11,4.49-.81,5.6-1.99,2.4-1.94,6.02.18,6.18,2.12.16,4.17.96,4.6-3.57s-2.63-11.12-2.63-11.12Z" />
    <path class="cls-5"
      d="M133.62,147.66c-.78,0-1.56-.22-2.2-.41-.81-.23-1.4-.82-1.66-1.66-.45-1.45.14-3.45,1.49-5.08.49-.59.53-1.99.56-3.22.02-.74.04-1.51.15-2.15.38-2.15,1.44-3.15,1.49-3.19.11-.1.27-.15.42-.12.15.03.28.13.35.27.13.27,3.11,6.77,2.67,11.37-.18,1.88-.71,3.1-1.62,3.72-.51.35-1.07.47-1.64.47ZM133.66,133.26c-.26.43-.58,1.11-.74,2.05-.1.57-.12,1.27-.13,2.01-.04,1.46-.07,2.97-.78,3.82-1.13,1.36-1.66,3.04-1.31,4.17.16.53.5.87,1,1.01,1.21.35,2.27.59,3.03.07.65-.44,1.05-1.46,1.2-3.01.33-3.47-1.5-8.29-2.26-10.12Z" />
    <path class="cls-7"
      d="M140.19,131.09s-5.6.12-5.95,1.64,1.05,7.03,1.41,8.08-.82,5.51,1.05,6.09c1.87.59,21.56,1.52,26.83.82,5.27-.7,25.91-3.05,28.54-3.4,1.38-.18,4.36-.47,4.96-1.76.54-1.16-1.22-3.25-1.16-4.92.12-3.51,1.17-7.05-.82-7.63-1.99-.57-53.59,1-54.85,1.07Z" />
    <path class="cls-4"
      d="M195.05,130.03c-1.99-.57-53.59,1-54.85,1.07,0,0-5.6.12-5.95,1.64-.08.35-.07.92,0,1.6,5.14,2.96,7.27,8.18,9.61,13.24,5.2.29,12.01.5,16.44.37,9.4-8.51,22.79-11.33,35.7-12.13.27-2.83.69-5.31-.95-5.78Z" />
    <path class="cls-2"
      d="M141.25,146.7c-4.78,0-4.7-6.65-6.75-10.68.36,1.99.94,4.17,1.15,4.79.35,1.05-.82,5.51,1.05,6.09.66.21,3.51.45,7.15.66l-.4-.86c-.74,0-1.47,0-2.2,0Z" />
    <path class="cls-2"
      d="M196.51,140.02c.14,1.78-.31,2.13-.96,2.37-5.94,2.15-12.05,1.98-18.29,2.31-3.25.17-6.54.86-9.86,1.29-1.79.23-3.59.39-5.39.5l-1.73,1.45c1.33-.04,2.46-.11,3.25-.21,5.27-.7,25.91-3.05,28.54-3.4,1.38-.18,4.36-.47,4.96-1.76.3-.64-.1-1.57-.52-2.56Z" />
    <path class="cls-5"
      d="M143.57,142.28c-4.93,0-8.36-.95-8.51-1-.26-.07-.41-.34-.34-.6.07-.26.34-.41.6-.34.03,0,3.45.96,8.24.96.27,0,.49.22.49.49s-.22.49-.49.49Z" />
    <path class="cls-5"
      d="M184.62,140.09c-.26,0-.47-.2-.49-.46-.01-.27.19-.5.46-.51.04,0,4.26-.21,11.15-1.93.26-.07.52.09.59.35.06.26-.09.52-.35.59-7,1.75-11.17,1.95-11.34,1.96,0,0-.02,0-.02,0Z" />
    <path class="cls-5"
      d="M190.96,129.9c2.3,0,3.78.04,4.09.13,1.99.57.94,4.11.82,7.63-.06,1.67,1.71,3.75,1.16,4.92-.6,1.29-3.58,1.58-4.96,1.76-2.63.35-23.27,2.69-28.54,3.4-1.33.18-3.59.25-6.25.25-7.84,0-19.18-.63-20.58-1.07-1.87-.59-.7-5.04-1.05-6.09s-1.76-6.56-1.41-8.08,5.95-1.64,5.95-1.64c1.07-.06,38.16-1.19,50.76-1.19h0ZM190.96,128.93c-12.54,0-49.62,1.13-50.82,1.19-2.34.05-6.39.43-6.85,2.39-.45,1.96,1.23,8.02,1.43,8.61.05.19,0,.91-.03,1.44-.12,1.96-.29,4.65,1.72,5.27,1.6.5,13.11,1.12,20.87,1.12,2.94,0,5.09-.09,6.38-.26,3.06-.41,11.49-1.39,18.26-2.18,4.93-.57,9.18-1.07,10.28-1.22l.32-.04c2.33-.3,4.66-.72,5.39-2.27.48-1.02,0-2.16-.47-3.26-.31-.73-.62-1.48-.6-2.03.03-.86.12-1.73.2-2.57.27-2.64.54-5.37-1.72-6.03-.21-.06-.57-.16-4.36-.16h0Z" />
    <path class="cls-6"
      d="M151.93,152.33c-.14,0-.27-.06-.37-.16-.35-.38-8.63-9.25-11.1-14.42-2.31-4.85-10.99-5.98-11.08-5.99-.18-.02-.33-.14-.4-.31-.07-.17-.04-.36.08-.5.09-.11,2.36-2.83,7.7-4.39,7.85-2.3,21.47-3.58,27.89-3.58,9.89,0,20.91,1.1,26.2,1.63l1.27.13c5.02.5,7.18,7.1,7.27,7.38.04.14.03.28-.05.41-.07.12-.2.21-.34.24-.2.04-20.4,3.92-26.29,5.96-11.58,4.01-20.33,13.36-20.42,13.46-.09.1-.23.16-.37.16h0Z" />
    <path class="cls-5"
      d="M164.65,123.48c10.72,0,22.67,1.29,27.42,1.76,4.76.47,6.84,7.03,6.84,7.03,0,0-20.37,3.9-26.36,5.98-11.83,4.1-20.62,13.59-20.62,13.59,0,0-8.55-9.14-11.01-14.29-2.46-5.16-11.47-6.27-11.47-6.27,0,0,2.2-2.69,7.45-4.23,7.82-2.29,21.33-3.56,27.75-3.56h0ZM164.65,122.48c-6.45,0-20.14,1.28-28.03,3.6-5.48,1.61-7.85,4.44-7.95,4.56-.23.28-.29.67-.15,1,.13.34.44.58.8.62.08.01,8.5,1.11,10.69,5.71,2.5,5.23,10.83,14.17,11.19,14.55.19.2.45.32.73.32h0c.28,0,.54-.12.73-.32.09-.09,8.77-9.36,20.21-13.33,5.86-2.03,26.02-5.9,26.22-5.94.28-.05.53-.23.67-.47.15-.25.18-.54.09-.81-.09-.29-2.35-7.19-7.7-7.72l-1.25-.12c-5.3-.53-16.34-1.64-26.27-1.64h0Z" />
    <path class="cls-3"
      d="M151.99,149.59c-1.37.2-4.12-3.89-6.05-6.55-.89-1.23-2.94-5.34-3.92-6.38-3.11-3.27-6.84-5.46-12.12-5.86-.31.29-.45.47-.45.47,0,0,9.01,1.12,11.47,6.27,2.46,5.16,11.01,14.29,11.01,14.29,0,0,8.79-9.49,20.62-13.59,5.99-2.08,26.36-5.98,26.36-5.98,0,0-8.28,1.06-12.65,1.79-12.35,2.07-17.07,4.75-23.65,7.96-4.36,2.13-9.25,7.37-10.62,7.57Z" />
    <path class="cls-2"
      d="M192.07,125.24c-4.76-.47-16.7-1.76-27.42-1.76-6.42,0-19.93,1.26-27.75,3.56-2.23.66-3.9,1.52-5.09,2.29.16.31,1.21,1.35,2.38,1.91,4.03,1.99,10.8,1.25,17.66.59,4.75-.46,32.85-2.12,42.29-2.37,1.27-.11,2.19-.96,1.94-2.07-.26-1.17-2.83-2.04-4.01-2.16Z" />
    <path class="cls-5"
      d="M163.53,84.8h-.02c-.54-.01-.96-.46-.95-.99l1.1-50.42c.01-.54.46-.94.99-.95.54.01.96.46.95.99l-1.1,50.42c-.01.53-.44.95-.97.95Z" />
    <path class="cls-4"
      d="M164.85,64.05c-.45,0-.92-.04-1.4-.11-5.85-.91-7.58-5.75-7.25-9.97.38-4.88,3.64-10.14,8.25-10.14h.19c4.57.15,7.31,6.05,7.22,11.43-.07,4.25-1.95,8.8-7.02,8.8h0Z" />
    <path class="cls-5"
      d="M164.45,44.33c.06,0,.12,0,.18,0,7.8.25,10.02,19.22.22,19.22-.42,0-.86-.03-1.32-.11-11.21-1.74-7.1-19.12.92-19.12h0ZM164.45,43.33c-4.97,0-8.35,5.39-8.75,10.6-.34,4.45,1.49,9.54,7.68,10.51.5.08,1,.12,1.47.12,4.48,0,7.43-3.65,7.52-9.29.09-5.62-2.83-11.78-7.71-11.93-.07,0-.14,0-.21,0h0Z" />
    <path class="cls-7"
      d="M165.97,44.58c-.43-.14-.87-.23-1.34-.25-6.93-.22-11.04,12.53-5.12,17.4-.9-6.19,1.63-13.02,6.46-17.15Z" />
    <path class="cls-7"
      d="M137.52,131.24c-1.43,0-2.81-.58-3.81-1.6-1-1.03-1.54-2.44-1.5-3.98,0-.31-.01-.96-.04-1.75-.06-1.9-.14-4.49.05-5.41.41-2.06,28.49-6,30.36-6,.13,0,.25,0,.35.01.03,0,10.06-.73,19.08-.73,5.28,0,9.2.25,11.66.73,1.52.3,2.41,3.01,3.07,5.62.05.21.09.38.12.47.65.94.08,4.32-.21,5.6-.38,1.7-1.07,3.8-2.17,4.19-2.04.73-28.59.77-28.86.77-2.54,0-10.44.67-17.42,1.26-5.15.44-9.6.82-10.68.82Z" />
    <path class="cls-5"
      d="M182,112.28c4.52,0,8.83.18,11.56.72,1.76.35,2.73,5.72,2.86,5.85.75.75-.37,8.44-2.11,9.07-1.74.62-24.22.75-28.69.75s-25.62,2.08-28.1,2.08-4.88-1.95-4.81-5.06c.02-1.02-.25-5.84,0-7.08.24-1.21,25.45-5.6,29.87-5.6.12,0,.22,0,.31,0,0,0,10.01-.73,19.11-.73h0ZM182,111.28c-8.64,0-18.21.67-19.12.73-.09,0-.19,0-.31,0-2.4,0-10.21,1.19-16.68,2.36-13.86,2.51-14.02,3.29-14.17,4.04-.18.9-.13,3.04-.06,5.53.02.77.04,1.44.04,1.73-.04,1.67.55,3.21,1.65,4.34,1.09,1.11,2.6,1.75,4.16,1.75,1.1,0,5.35-.36,10.73-.82,6.62-.56,14.86-1.26,17.38-1.26.27,0,26.87-.03,29.02-.8.39-.14,1.59-.57,2.49-4.56.18-.78.96-4.52.18-5.89-.03-.09-.06-.23-.1-.4-.74-2.9-1.67-5.63-3.46-5.98-2.49-.49-6.44-.74-11.76-.74h0Z" />
    <path class="cls-4" d="M178.52,119.29c0,.45.02.92.03,1.39.04-.46.07-.92.11-1.38-.05,0-.09,0-.14,0Z" />
    <path class="cls-4"
      d="M196.42,118.85c-.13-.13-1.1-5.5-2.86-5.85-8.24-1.63-30.67,0-30.67,0-3.35-.25-29.93,4.35-30.18,5.59-.13.64-.12,2.21-.08,3.73,3.21-1.31,9.78-2.14,9.81-1.68,0,0,.33,8.63,3.56,8.32,3.23-.31,2.1-8.84,2.1-8.84,0,0,.29,4.58,3.09,4.24,2.79-.34,2.34-3.59,2.76-6.24,5.22-1.06,11.68-.77,16.8-.68-.14,3.21.99,10.03,3.94,9.75,3.83-.19,2.48-6.57,2.48-6.57,0,0,.37,6.35,3.14,6.38,2.76.03,3.76-7.04,3.76-7.04,0,0,8.99,1.07,12.49,1.79.16-1.44.14-2.65-.13-2.92Z" />
    <path class="cls-6"
      d="M132.68,124.23c.02.66.03,1.19.03,1.46-.07,3.12,2.32,5.06,4.81,5.06s23.63-2.08,28.1-2.08,26.95-.12,28.69-.75c.73-.26,1.35-1.78,1.77-3.49-.81,1.76-1.9,2.54-3.59,2.72-6.21.67-13.24.47-20.17.59-5.93.1-11.77.54-17.21.89-6.37.41-12.34,1.91-17.99.42-2.2-.58-3.37-1.57-4.45-4.82Z" />
    <path class="cls-5"
      d="M132.68,124.55c-.22,0-.42-.15-.47-.38-.06-.26.1-.52.36-.58.18-.04,4.55-1.06,6.78-1.3.27-.03.51.17.53.43.03.27-.17.51-.43.53-2.17.23-6.61,1.27-6.66,1.28-.04,0-.07.01-.11.01Z" />
    <path class="cls-5"
      d="M196.65,122.16s-.02,0-.03,0c-11.18-.76-28.89-1.53-29.42-1.53-.27,0-.49-.22-.49-.49s.22-.49.49-.49c.53,0,18.28.77,29.48,1.53.27.02.47.25.45.52-.02.26-.23.45-.48.45Z" />
    <path class="cls-5"
      d="M196.25,124.55c-2.85,0-10.71-.41-10.78-.42-.27-.01-.47-.24-.46-.51.01-.27.25-.47.51-.46.08,0,7.91.41,10.73.41.27,0,.49.22.49.49s-.22.49-.49.49Z" />
    <path class="cls-6"
      d="M143.31,118.23s-.05,10.53,2.65,9.94c2.69-.59,1.87-9.26,1.87-9.26,0,0,.7,4.73,2.81,4.3,2.11-.43,2.11-8.05,2.11-8.05l-9.44,1.87v1.19Z" />
    <path class="cls-5"
      d="M145.74,128.69c-.33,0-.65-.12-.93-.34-1.98-1.61-2.01-9.25-2-10.12v-1.19c0-.24.17-.44.4-.49l9.44-1.87c.15-.03.3,0,.41.1.12.09.18.24.18.39,0,1.34-.12,8.05-2.51,8.54-.5.1-.98,0-1.41-.3-.34-.24-.63-.59-.87-.99-.06,2.67-.52,5.84-2.4,6.25-.11.02-.21.03-.32.03ZM143.81,117.45v.78h0c-.01,3.09.42,8.36,1.63,9.34.14.11.26.14.41.11,1.56-.34,1.81-5.3,1.48-8.72-.03-.27.17-.51.44-.54.27-.03.52.15.56.42.12.82.64,3.08,1.58,3.74.21.14.41.19.64.14.99-.2,1.63-3.65,1.7-6.95l-8.44,1.67ZM143.31,118.23h0,0Z" />
    <path class="cls-3"
      d="M143.31,117.04v1.19s-.05,10.53,2.65,9.94c.72-.16,1.18-.89,1.48-1.88-2.25-2.11-2.89-5.97-2.96-9.48l-1.17.23Z" />
    <path class="cls-3"
      d="M147.43,116.22c.07.97.23,2.01.43,3.06-.02-.23-.03-.37-.03-.37,0,0,.7,4.73,2.81,4.3.37-.08.67-.38.92-.82-1.85-1.41-4.14-6.17-4.14-6.17Z" />
    <path class="cls-6"
      d="M171.5,114.22c-.12.92.12,12.42,2.7,12.3,2.58-.12,2.92-9.73,2.92-9.73,0,0,.47,9.26,3.28,9.14,2.81-.12,3.51-12.18,3.51-12.18l-12.42.47Z" />
    <path class="cls-5"
      d="M174.16,127.03c-.3,0-.72-.1-1.13-.55-2.03-2.22-2.14-11.52-2.03-12.32.03-.24.23-.42.48-.43l12.42-.47c.14,0,.28.05.38.15.1.1.15.24.14.38-.12,2.09-.89,12.53-3.99,12.66-.02,0-.05,0-.08,0-1.73,0-2.66-2.52-3.17-5.01-.44,2.7-1.29,5.52-2.96,5.6-.02,0-.04,0-.06,0ZM171.97,114.71c-.04,2.01.33,9.49,1.8,11.1.21.23.36.23.41.23,1.44-.07,2.31-5.55,2.44-9.24,0-.27.23-.48.5-.48h0c.27,0,.49.21.5.47.19,3.64,1.12,8.72,2.76,8.66,1.41-.06,2.63-5.74,3-11.16l-11.41.43Z" />
    <path class="cls-3"
      d="M171.5,114.22c-.12.92.12,12.42,2.7,12.3.34-.02.64-.2.9-.5-1.48-3.8-2.27-7.82-2.39-11.85l-1.22.05Z" />
    <path class="cls-3"
      d="M177.85,113.98h-.79c0,2.18.48,4.37.48,6.55.43,2.56,1.27,5.48,2.86,5.41.59-.02,1.08-.58,1.5-1.43-2.04-3.26-3.34-6.87-4.05-10.53Z" />
    <path class="cls-5"
      d="M145.74,128.68c-.33,0-.65-.12-.92-.34-1.98-1.6-2-9.24-2-10.11v-1.19c0-.23.16-.43.39-.48l9.44-1.87c.14-.03.29,0,.4.1.11.09.18.23.18.38,0,1.34-.12,8.04-2.5,8.52-.49.1-.97,0-1.4-.3-.35-.25-.65-.61-.89-1.03-.05,2.68-.51,5.88-2.39,6.28-.11.02-.21.03-.32.03ZM143.79,117.43v.79h0c-.01,3.09.42,8.37,1.64,9.35.14.11.27.15.42.11,1.57-.34,1.82-5.31,1.49-8.73-.02-.26.16-.5.43-.53.25-.04.5.15.54.41.12.82.65,3.09,1.59,3.75.21.15.42.19.65.15,1.1-.22,1.65-4.09,1.71-6.98l-8.46,1.68ZM143.31,118.23h0,0Z" />
    <path class="cls-5"
      d="M174.16,127.01c-.3,0-.72-.1-1.12-.55-2.03-2.21-2.13-11.51-2.03-12.31.03-.23.23-.41.46-.42l12.42-.47c.14-.02.27.05.37.15.1.1.15.23.14.37-.12,2.09-.89,12.51-3.98,12.64-1.76.06-2.74-2.52-3.24-5.07-.43,2.72-1.28,5.58-2.96,5.66-.02,0-.04,0-.06,0ZM171.95,114.69c-.04,1.99.33,9.51,1.8,11.12.22.24.37.23.42.23,1.45-.07,2.33-5.56,2.46-9.26,0-.26.22-.47.48-.47h0c.26,0,.47.2.49.46.19,3.64,1.18,8.7,2.77,8.68,1.42-.06,2.64-5.75,3.02-11.19l-11.44.43Z" />
    <path class="cls-5"
      d="M108.28,148.66c-9,0-11.83-7.41-11.87-7.5-.02-.06-.04-.13-.05-.2-.17-1.17,1.03-1.53,1.74-1.75.81-.25,1.72-.52,2.08-1.3.23-.49.81-.69,1.29-.47.49.23.69.81.47,1.29-.73,1.56-2.33,2.04-3.28,2.33-.05.01-.09.03-.14.04,1.01,1.97,4.85,7.59,14.71,4.86,7.01-1.95,13.31-10.77,17.29-24.2.16-.55.19-.64.28-.78.28-.46.88-.6,1.34-.32.42.26.57.78.38,1.21-.03.08-.07.22-.13.43-2.45,8.28-8.13,22.6-18.63,25.52-2.04.57-3.86.81-5.48.81Z" />
    <path class="cls-5"
      d="M233.02,143.55s-.07,0-.11,0c-.11-.01-2.6-.31-3.86-2.31-.85-1.33-.93-3.04-.24-5.06.17-.51.73-.78,1.23-.61.51.17.78.73.61,1.23-.49,1.43-.48,2.57.03,3.38.76,1.21,2.43,1.42,2.45,1.43.53.07.91.55.85,1.08-.06.49-.48.86-.96.86Z" />
    <path class="cls-5"
      d="M100.78,146.24c-.35,0-.7-.19-.87-.53-.24-.48-.05-1.06.43-1.31.98-.5,2.27-1.55,2.13-2.22-.16-.78-.78-1.51-1.29-2.1-.53-.62-.96-1.12-.96-1.75,0-.54.44-.97.97-.97.49,0,.9.36.96.84.08.14.32.41.5.62.62.72,1.46,1.71,1.72,2.98.48,2.41-2.79,4.14-3.16,4.33-.14.07-.29.1-.44.1Z" />
    <path class="cls-6"
      d="M126.67,122.13c-.6,0-1.06-.1-1.4-.31-1.43-.9-2.55-9.23-.3-18.28,2.43-9.77,10.39-26.43,36.44-28.28,1.44-.1,2.88-.16,4.26-.16,25.03,0,34.48,16.41,37.88,26.19,2.42,6.96,2.79,13.8,1.49,14.83-.67.53-2.3.76-5.42.76s-7.4-.24-12.29-.52c-5.97-.34-12.74-.72-18.91-.72-1.16,0-2.3.01-3.41.04-13.57.36-24.03,3.1-30.95,4.91-3.41.89-5.88,1.54-7.4,1.54Z" />
    <path class="cls-5"
      d="M165.68,75.61c37.74,0,41.37,38.3,39.06,40.12-.61.48-2.45.65-5.11.65-7.1,0-20.07-1.24-31.2-1.24-1.16,0-2.31.01-3.42.04-20.33.55-33.92,6.45-38.33,6.45-.49,0-.87-.07-1.13-.24-2.59-1.62-5.78-42.67,35.91-45.64,1.45-.1,2.87-.15,4.23-.15h0ZM165.68,74.61c-1.4,0-2.84.05-4.3.16-26.37,1.88-34.43,18.76-36.89,28.66-2.11,8.47-1.46,17.58.52,18.82.42.26.96.39,1.66.39,1.58,0,4.08-.65,7.52-1.55,6.9-1.8,17.32-4.53,30.83-4.89,1.07-.03,2.21-.04,3.4-.04,6.16,0,12.92.38,18.88.72,4.9.28,9.13.52,12.32.52,4.07,0,5.16-.42,5.73-.87,1.65-1.3,1.01-8.64-1.33-15.38-3.44-9.91-13-26.52-38.35-26.52h0Z" />
    <path class="cls-2"
      d="M127.02,121.62c4.74-.28,18.16-5.9,37.99-6.44,15.77-.42,37.35,2.43,39.74.54.7-.55.85-4.45-.32-9.61.44,2.25.44,6.9-2.87,7.64-9.66,2.32-26.03-1.29-35.92-.29-12.98,1.32-25.99,2.85-38.61,8.15Z" />
    <path class="cls-3"
      d="M137.8,100.75l17.61,4.35,18.93-3.58,13.69-1.17s-11.83.03-14.65,0c-2.82-.03-14.53,3.26-17.56,3.4s-18.01-3-18.01-3Z" />
    <path class="cls-3"
      d="M158.31,76.07c-38.37,4.77-35.29,43.75-32.76,45.33.16.1.36.16.61.2-2.56-25.58,13.24-42.73,32.15-45.53Z" />
    <path class="cls-7" d="M145.39,83.44s2.31,1.61,5.14.87c2.83-.74,1.07-2.59.21-2.65-.86-.06-5.01,1.33-5.35,1.78Z" />
    <path class="cls-7"
      d="M163.27,82.02c-3,.21-3.15.35-2.98,1.38.18,1.03,5.13.58,6.68-.31,1.01-.59-2.91-1.13-3.7-1.07Z" />
    <path class="cls-7" d="M166.66,75.24c-.12,0-3.72.92-.71,2.5,3.01,1.58,3.58.21,3.58.21,0,0-1.14-2.68-2.87-2.71Z" />
    <path class="cls-7" d="M175.05,78.93c-.68,0-2.98.5-1.99,1.08.98.58,5.14.51,5.58-.19.44-.7-2.9-.89-3.59-.89Z" />
    <path class="cls-7" d="M185.36,81.07s.08,2.48,2.04,2.93c1.96.44,4.23-.4,2.91-1.38-1.32-.98-4.95-1.55-4.95-1.55Z" />
    <path class="cls-7"
      d="M136.24,85.11c-.14.09-1.86,1.97-1.86,1.97,2.11.81,5.76-4.77,5.76-4.77-.91.6-2.42,1.71-3.9,2.8Z" />
    <path class="cls-7"
      d="M157.08,75.61c-2.28.31-4.25,1.43-4.25,1.43,0,0,.46,1.4,3.83.94,2.14-.29,3.19-1.48,3.2-1.86.03-.68-2.78-.51-2.78-.51Z" />
    <path class="cls-7"
      d="M149.02,95.02c0,3.05-1.86,5.53-4.16,5.53s-4.16-2.47-4.16-5.53,1.86-5.53,4.16-5.53,4.16,2.47,4.16,5.53Z" />
    <ellipse class="cls-7" cx="183.3" cy="91.8" rx="4.16" ry="5.53" />
    <ellipse class="cls-5" cx="144.35" cy="94.54" rx="4.16" ry="5.53" />
    <path class="cls-5"
      d="M186.96,91.32c0,3.05-1.86,5.53-4.16,5.53s-4.16-2.47-4.16-5.53,1.86-5.53,4.16-5.53,4.16,2.47,4.16,5.53Z" />
    <path class="cls-7"
      d="M195.4,93.18l-3.02-.48s-.35-.06-.49.23c-.16.27-.24.83-.42,2.08-.21,1.5-.49,3.56-1,4.64-.56,1.17-7.97,1.98-14.28,1.98-2.11,0-7.55,1.11-12.35,2.09-3.21.66-6.24,1.27-7.51,1.4-2.98.29-15.88-3.07-18.29-3.78-1-.29-1.96-3.49-2.33-5.67-.08-.39-.48-.41-.51-.41l-2.39.17c-.25.02-.45.23-.45.49v1.13c0,.17.09.33.24.42.08.05.16.07.25.07.08,0,.16-.02.23-.06l1.8-.98c.33,1.66,1.23,5.29,2.89,5.78,1.41.41,14.18,3.84,18.19,3.84.17,0,.33,0,.47-.02,1.33-.13,4.24-.72,7.61-1.41,4.75-.97,10.14-2.07,12.15-2.07.57,0,13.96-.03,15.16-2.54.58-1.21.87-3.36,1.09-4.92.06-.43.12-.9.18-1.24l2.48,1.32c.07.04.15.06.23.06.09,0,.17-.02.25-.07.15-.09.24-.25.24-.42v-1.13c0-.24-.17-.44-.41-.48Z" />
    <path class="cls-5"
      d="M195.16,92.59l-3.02-.48s-.35-.06-.49.23c-.16.27-.24.83-.42,2.08-.21,1.5-.49,3.56-1,4.64-.56,1.17-7.97,1.98-14.28,1.98-2.11,0-7.55,1.11-12.35,2.09-3.21.66-6.24,1.27-7.51,1.4-2.98.29-15.88-3.07-18.29-3.78-1-.29-1.96-3.49-2.33-5.67-.08-.39-.48-.41-.51-.41l-2.39.17c-.25.02-.45.23-.45.49v1.13c0,.17.09.33.24.42.08.05.16.07.25.07.08,0,.16-.02.23-.06l1.8-.98c.33,1.66,1.23,5.29,2.89,5.78,1.4.41,14.18,3.84,18.19,3.84.17,0,.33,0,.47-.02,1.33-.13,4.24-.72,7.61-1.41,4.75-.97,10.14-2.07,12.15-2.07.57,0,13.96-.03,15.16-2.54.58-1.21.87-3.36,1.09-4.92.06-.43.12-.9.18-1.24l2.48,1.32c.07.04.15.06.23.06.09,0,.17-.02.25-.07.15-.09.24-.25.24-.42v-1.13c0-.24-.17-.44-.41-.48Z" />
    <path class="cls-5"
      d="M143.99,101.45s-.03,0-.04,0c-4.17-.33-5.52-3.82-5.4-6.7.02-.51.05-1.2.61-1.2.27,0,.49.22.49.49,0,.1-.03.19-.08.26-.1.46-.17,2.62.91,4.25.77,1.16,1.96,1.81,3.55,1.93.27.02.47.26.45.52-.02.25-.23.45-.48.45Z" />
    <path class="cls-5"
      d="M184.04,98.48c-.21,0-.41-.14-.47-.36-.07-.26.08-.53.34-.6,1.51-.41,2.58-1.16,3.18-2.23.97-1.76.37-3.81.36-3.83-.08-.26.07-.53.32-.61.26-.08.53.07.61.32.03.1.73,2.47-.44,4.58-.73,1.31-2,2.22-3.77,2.7-.04.01-.08.02-.13.02Z" />
    <path class="cls-5" d="M166.97,82.53c.11-.83-5.25-3.43-6.7-.78-1.45,2.65,6.59,1.61,6.7.78Z" />
    <path class="cls-5" d="M178.19,79.18c.11-.83-5.35-4.02-5.54-1-.18,2.71,5.43,1.83,5.54,1Z" />
    <path class="cls-5" d="M185.36,81.07c-.15.89,3.84,3.98,5.16,1.19,1.32-2.79-5.01-2.08-5.16-1.19Z" />
    <path class="cls-5" d="M169.52,77.95c.78-.3-.29-6.2-2.32-4.75-3.02,2.17,1.53,5.05,2.32,4.75Z" />
    <path class="cls-5" d="M159.86,76.12c.11-.83-5.25-3.43-6.7-.78-1.45,2.65,6.59,1.61,6.7.78Z" />
    <path class="cls-5" d="M139.01,82.93c-.39-.74-5.67-.26-5.2,2.64.47,2.89,5.6-1.9,5.2-2.64Z" />
    <path class="cls-5" d="M145.29,83.31c.25.8,6.63.83,5.58-2-1.04-2.8-5.98.71-5.58,2Z" />
    <path class="cls-5"
      d="M156.55,107.63c-.23,0-.43-.16-.48-.39-.05-.26.12-.52.38-.57l11.62-2.35c.26-.05.52.12.57.38.05.26-.12.52-.38.57l-11.62,2.35s-.06,0-.1,0Z" />
    <path class="cls-5"
      d="M142.55,88.66c-.13,0-.25-.05-.35-.15-.19-.19-.18-.5,0-.68.06-.06,1.47-1.41,3.77-.64.25.09.39.36.31.62s-.36.39-.62.31c-1.72-.58-2.74.37-2.78.41-.09.09-.22.13-.34.13Z" />
    <path class="cls-5"
      d="M185.06,85.22c-.11,0-.21-.03-.3-.1-2.21-1.75-3.81-.12-3.88-.05-.19.2-.49.2-.69.02-.19-.19-.2-.49-.02-.69.02-.02,2.29-2.34,5.19-.05.21.17.25.47.08.68-.1.12-.24.18-.38.18Z" />
    <path class="cls-5"
      d="M142.18,164.1c-.23,0-.44-.17-.48-.41l-1-5.94c-.04-.26.13-.52.4-.56.26-.04.52.13.56.4l1,5.94c.04.26-.13.52-.4.56-.03,0-.05,0-.08,0Z" />
    <path class="cls-5"
      d="M144.24,164.42c-.24,0-.45-.17-.48-.42-.16-1.1-.34-2.34-.38-2.49-.06-.26.09-.52.34-.59.25-.07.51.07.59.32.04.12.17,1.01.41,2.62.04.27-.15.51-.41.55-.02,0-.05,0-.07,0Z" />
    <path class="cls-5"
      d="M142.41,152.32c-.23,0-.44-.16-.48-.4l-.71-3.89c-.05-.26.13-.52.39-.57.26-.05.52.13.57.39l.71,3.89c.05.26-.13.52-.39.57-.03,0-.06,0-.09,0Z" />
    <path class="cls-5"
      d="M138.58,151.77c-.22,0-.42-.15-.47-.38l-.84-3.59c-.06-.26.1-.52.36-.58.27-.06.52.1.59.36l.84,3.59c.06.26-.1.52-.36.58-.04,0-.08.01-.11.01Z" />
    <path class="cls-5"
      d="M139.84,149.97c-.24,0-.44-.17-.48-.41l-.27-1.8c-.04-.27.14-.51.41-.55.26-.04.51.14.55.41l.27,1.8c.04.27-.14.51-.41.55-.02,0-.05,0-.07,0Z" />
    <path class="cls-5"
      d="M136.19,162.25c-.22,0-.42-.15-.47-.38l-1.15-4.96c-.06-.26.1-.52.36-.58.26-.06.52.1.58.36l1.15,4.96c.06.26-.1.52-.36.58-.04,0-.07.01-.11.01Z" />
    <path class="cls-5"
      d="M138.99,163.25c-.22,0-.42-.15-.47-.38-.33-1.42-.72-3.01-.8-3.21-.14-.23-.06-.5.17-.65.23-.14.54-.05.68.18.05.08.15.23.89,3.45.06.26-.1.52-.36.58-.04,0-.07.01-.11.01Z" />
    <path class="cls-5"
      d="M157.52,154.11c-.25,0-.46-.19-.48-.45l-.4-5.17c-.02-.27.18-.5.45-.52.25-.02.5.18.52.45l.4,5.17c.02.27-.18.5-.45.52-.01,0-.02,0-.04,0Z" />
    <path class="cls-5"
      d="M159.19,153.04s-.12-4.2-.12-4.34c0-.27.22-.49.49-.49s.49.22.49.49h0c0,.17.12,4.31.12,4.31l-.97.03ZM160.04,148.7h0,0Z" />
    <path class="cls-5"
      d="M165.22,160.91c-.25,0-.46-.19-.48-.44l-.21-2.18c-.03-.27.17-.51.44-.53.27-.02.51.17.53.44l.21,2.18c.03.27-.17.51-.44.53-.02,0-.03,0-.05,0Z" />
    <path class="cls-5"
      d="M164.74,156.1c-.25,0-.46-.19-.48-.44l-.18-1.83c-.23-2.35-.49-5.01-.56-5.36-.06-.19,0-.41.18-.54.21-.16.52-.11.68.11q.12.17.67,5.7l.18,1.83c.03.27-.17.51-.44.53-.02,0-.03,0-.05,0Z" />
    <path class="cls-5"
      d="M196.25,149.64s-.02,0-.04,0c-.27-.02-.47-.25-.45-.52l.4-5.41c.02-.27.25-.47.52-.45.27.02.47.25.45.52l-.4,5.41c-.02.26-.23.45-.48.45Z" />
    <path class="cls-5"
      d="M197.13,159.77c-.27,0-.49-.22-.49-.49v-4.66c0-.27.22-.49.49-.49s.49.22.49.49v4.66c0,.27-.22.49-.49.49Z" />
    <path class="cls-5"
      d="M195.28,160.91c-.27,0-.49-.22-.49-.49v-4.25c0-.27.22-.49.49-.49s.49.22.49.49v4.25c0,.27-.22.49-.49.49Z" />
    <path class="cls-5"
      d="M193.62,161.59c-.27,0-.49-.22-.49-.49v-2.39c0-.27.22-.49.49-.49s.49.22.49.49v2.39c0,.27-.22.49-.49.49Z" />
    <path class="cls-5"
      d="M179.47,149.97c-.27,0-.49-.22-.49-.49v-3.04c0-.27.22-.49.49-.49s.49.22.49.49v3.04c0,.27-.22.49-.49.49Z" />
    <path class="cls-5"
      d="M177.79,164.96c-.27,0-.49-.22-.49-.49v-1.98c0-.27.22-.49.49-.49s.49.22.49.49v1.98c0,.27-.22.49-.49.49Z" />
    <path class="cls-5"
      d="M179.01,164.66c-.27,0-.49-.22-.49-.49v-1.9c0-.27.22-.49.49-.49s.49.22.49.49v1.9c0,.27-.22.49-.49.49Z" />
    <path class="cls-5"
      d="M182.08,164.42c-.27,0-.49-.22-.49-.49v-4.48c0-.27.22-.49.49-.49s.49.22.49.49v4.48c0,.27-.22.49-.49.49Z" />
    <path class="cls-5"
      d="M193.62,141.22c-.23,0-.43-.16-.48-.4-.05-.26.12-.52.39-.57,1.6-.3,2.73-.55,3.27-.71.26-.08.53.07.61.32.08.26-.07.53-.32.61-.58.17-1.71.42-3.37.73-.03,0-.06,0-.09,0Z" />
    <path class="cls-5"
      d="M189.55,141.94c-.23,0-.44-.17-.48-.41-.04-.26.13-.52.4-.56,0,0,.73-.12,1.74-.3.26-.04.52.13.56.4.05.26-.13.52-.4.56-1.02.18-1.75.3-1.75.3-.03,0-.05,0-.08,0Z" />
    <path class="cls-2"
      d="M171.45,145.77c-.1,2.38-.32,12.79,3.21,12.27,3.64-.53,3.16-10.96,3.05-12.77-.01-.17-5.07.38-6.26.5Z" />
    <path class="cls-1"
      d="M171.45,145.77c-.1,2.38-.32,12.79,3.21,12.27,1-.15,1.69-1.04,2.16-2.3-3.56-.6-4.98-10.01-5.37-9.97Z" />
    <path class="cls-5"
      d="M174.41,158.55c-.51,0-.98-.19-1.39-.55-2.07-1.84-2.19-8.18-2.08-11.79,0-.26.22-.47.49-.47h.02c.27,0,.48.23.47.5-.14,4.45.25,9.69,1.76,11.03.28.25.57.34.92.29,2.34-.34,2.9-6.5,2.67-11.66-.01-.27.19-.5.46-.51.3-.03.49.2.51.46.2,4.51.02,12.15-3.5,12.67-.11.02-.21.02-.32.02Z" />
    <path class="cls-1"
      d="M175.18,145.76h0c-.11-.22-.33-.36-.56-.39-.17-.02-.37,0-.54,0,0,0-.01,0-.02,0-.2,0-.39.03-.58.08-.14.04-.27.11-.38.2-.18.1-.31.28-.36.47,0,.02,0,.04-.01.06,0,.04-.02.09-.02.13,0,.06-.03.11-.02.17.02.3.22.55.48.68.19.09.4.11.61.1.31-.01.61-.13.87-.3.31-.2.66-.59.62-.98,0-.02-.02-.05-.02-.07.02-.05.02-.11-.04-.15Z" />
    <path class="cls-1"
      d="M133.3,143.52s0,0,0-.01c-.01-.03-.03-.06-.05-.09-.01-.04-.02-.09-.04-.13,0,0,0,0,0-.01,0,0,0,0,0-.01-.01-.03-.03-.05-.04-.08-.02-.03-.03-.06-.05-.09-.04-.05-.09-.11-.14-.15,0,0,0,0,0,0-.06-.03-.11-.06-.17-.1-.04-.02-.05-.02-.11-.03-.05-.01-.08-.03-.13-.03-.19,0-.25,0-.42.06-.08.02-.15.08-.22.12-.02.01-.04.02-.06.04-.05.05-.11.1-.15.15,0,0-.02.02-.02.03-.02.03-.04.07-.06.1-.02.03-.04.06-.06.1,0,.01-.01.03-.01.04,0,.02-.05.15-.06.22-.01.16,0,.24.05.39,0,.01,0,.02.01.03,0,.02.02.05.04.07,0,.02,0,.04,0,.05,0,.06.03.11.07.16.04.08.09.15.17.2.06.04.12.08.18.11.03.01.09.03.1.03.01,0,.07.02.1.03.01,0,.02,0,.03,0,.05,0,.13,0,.19,0,0,0,.02,0,.02,0,0,0,.01,0,.02,0,.06-.01.13-.03.18-.05.01,0,.02,0,.03-.01.07-.03.15-.07.21-.12.02-.02.04-.05.07-.07.03-.02.06-.03.08-.06.04-.04.09-.08.13-.13,0,0,.01-.02.02-.03,0,0,.08-.11.1-.16.01-.03.02-.07.03-.09,0-.02.02-.06.03-.09.01-.07.02-.15,0-.22,0-.05-.03-.11-.04-.16Z" />
    <path class="cls-5"
      d="M140.66,126.8c-.25,0-.46-.19-.48-.44-.03-.27.17-.51.44-.53.68-.07,1.33-.12,1.96-.16.29,0,.5.19.51.46.02.27-.19.5-.46.51-.61.04-1.25.09-1.91.15-.02,0-.03,0-.05,0Z" />
    <path class="cls-5"
      d="M132.6,127.97c-.23,0-.44-.17-.48-.4-.05-.26.13-.52.4-.56,2.41-.42,4.31-.71,5.99-.93.26-.04.51.15.55.42.03.27-.15.51-.42.54-1.67.22-3.56.51-5.95.93-.03,0-.06,0-.08,0Z" />
    <path class="cls-5"
      d="M162.91,122.77c-.26,0-.48-.21-.49-.47,0-.27.2-.49.47-.5,3.17-.1,5.1-.15,5.76-.15.27,0,.49.22.49.49s-.22.49-.49.49c-.65,0-2.58.05-5.73.15,0,0-.01,0-.02,0Z" />
    <path class="cls-5"
      d="M156.55,122.98c-.26,0-.48-.21-.49-.47,0-.27.2-.49.47-.5l2.74-.1c.25-.03.49.2.5.47,0,.27-.2.49-.47.5l-2.74.1s-.01,0-.02,0Z" />
    <path class="cls-5"
      d="M133.38,121.12c-.24,0-.45-.18-.48-.42l-.7-5.48c-.03-.27.15-.51.42-.54.26-.03.51.15.54.42l.7,5.48c.03.27-.15.51-.42.54-.02,0-.04,0-.06,0Z" />
    <path class="cls-5"
      d="M130.9,121.82c-.24,0-.45-.18-.48-.42l-.39-3.01c-.03-.27.15-.51.42-.54.27-.03.51.15.55.42l.39,3.01c.03.27-.15.51-.42.54-.02,0-.04,0-.06,0Z" />
    <path class="cls-5"
      d="M139.39,119.59c-.24,0-.45-.17-.48-.42-.1-.68-.24-1.51-.31-1.67-.17-.21-.11-.48.1-.65.21-.17.54-.09.7.12.08.1.2.26.46,2.06.04.27-.15.51-.41.55-.02,0-.05,0-.07,0Z" />
    <path class="cls-5"
      d="M193.1,117.02s-.04,0-.06,0c-.27-.03-.46-.28-.42-.54l.53-4.26c.03-.27.28-.46.54-.42.27.03.46.28.42.54l-.53,4.26c-.03.25-.24.43-.48.43Z" />
    <path class="cls-5"
      d="M190.67,116.7c-.27,0-.49-.22-.49-.49v-2.82c0-.27.22-.49.49-.49s.49.22.49.49v2.82c0,.27-.22.49-.49.49Z" />
    <path class="cls-5"
      d="M170.38,48.33c-1.36-2.82-3.4-4.41-5.74-4.48-4.66-.19-7.95,4.93-8.41,9.92-.4,4.31,1.29,9.24,7.22,10.17.5.08.96.11,1.4.11,2.68,0,4.27-1.33,5.17-2.55,2.55-3.44,2.18-9.4.35-13.17ZM169.24,60.91c-1.29,1.74-3.19,2.43-5.64,2.05-5.27-.82-6.77-5.25-6.41-9.12.41-4.39,3.29-9.04,7.25-9.04.05,0,.11,0,.16,0h0c2.64.08,4.2,2.5,4.89,3.93,1.94,4,1.82,9.35-.26,12.16Z" />
    <path class="cls-4"
      d="M78.97,33.6h-1.39v-4.82c0-1.29-1.03-2.34-2.29-2.34s-2.29,1.05-2.29,2.34v4.82h-1.39c-1.26,0-2.29,1.05-2.29,2.34s1.03,2.34,2.29,2.34h1.39v4.82c0,1.29,1.03,2.34,2.29,2.34s2.29-1.05,2.29-2.34v-4.82h1.39c1.26,0,2.29-1.05,2.29-2.34s-1.03-2.34-2.29-2.34Z" />
    <path class="cls-5"
      d="M75.29,45.94c-1.54,0-2.79-1.27-2.79-2.84v-4.32h-.89c-1.54,0-2.79-1.27-2.79-2.84s1.25-2.84,2.79-2.84h.89v-4.32c0-1.57,1.25-2.84,2.79-2.84s2.79,1.27,2.79,2.84v4.32h.89c1.54,0,2.79,1.27,2.79,2.84s-1.25,2.84-2.79,2.84h-.89v4.32c0,1.57-1.25,2.84-2.79,2.84ZM71.61,34.1c-.99,0-1.79.83-1.79,1.84s.8,1.84,1.79,1.84h1.89v5.32c0,1.01.8,1.84,1.79,1.84s1.79-.83,1.79-1.84v-5.32h1.89c.99,0,1.79-.83,1.79-1.84s-.8-1.84-1.79-1.84h-1.89v-5.32c0-1.01-.8-1.84-1.79-1.84s-1.79.83-1.79,1.84v5.32h-1.89Z" />
    <path class="cls-2"
      d="M286.7,93.34h-1.39v-4.82c0-1.29-1.03-2.34-2.29-2.34s-2.29,1.05-2.29,2.34v4.82h-1.39c-1.26,0-2.29,1.05-2.29,2.34s1.03,2.34,2.29,2.34h1.39v4.82c0,1.29,1.03,2.34,2.29,2.34s2.29-1.05,2.29-2.34v-4.82h1.39c1.26,0,2.29-1.05,2.29-2.34s-1.03-2.34-2.29-2.34Z" />
    <path class="cls-5"
      d="M283.02,105.68c-1.54,0-2.79-1.27-2.79-2.84v-4.32h-.89c-1.54,0-2.79-1.27-2.79-2.84s1.25-2.84,2.79-2.84h.89v-4.32c0-1.57,1.25-2.84,2.79-2.84s2.79,1.27,2.79,2.84v4.32h.89c1.54,0,2.79,1.27,2.79,2.84s-1.25,2.84-2.79,2.84h-.89v4.32c0,1.57-1.25,2.84-2.79,2.84ZM279.34,93.84c-.99,0-1.79.83-1.79,1.84s.8,1.84,1.79,1.84h1.89v5.32c0,1.01.8,1.84,1.79,1.84s1.79-.83,1.79-1.84v-5.32h1.89c.99,0,1.79-.83,1.79-1.84s-.8-1.84-1.79-1.84h-1.89v-5.32c0-1.01-.8-1.84-1.79-1.84s-1.79.83-1.79,1.84v5.32h-1.89Z" />
    <path class="cls-4"
      d="M247.42,142.85c-1.53,0-2.78-1.27-2.78-2.83v-4.33h-.9c-1.53,0-2.78-1.27-2.78-2.83s1.25-2.83,2.78-2.83h.9v-4.33c0-1.56,1.25-2.83,2.78-2.83s2.78,1.27,2.78,2.83v4.33h.9c1.53,0,2.78,1.27,2.78,2.83s-1.25,2.83-2.78,2.83h-.9v4.33c0,1.56-1.25,2.83-2.78,2.83Z" />
    <path class="cls-5"
      d="M247.42,123.36c1.26,0,2.29,1.05,2.29,2.34v4.82h1.39c1.26,0,2.29,1.05,2.29,2.34s-1.03,2.34-2.29,2.34h-1.39v4.82c0,1.29-1.03,2.34-2.29,2.34s-2.29-1.05-2.29-2.34v-4.82h-1.39c-1.26,0-2.29-1.05-2.29-2.34s1.03-2.34,2.29-2.34h1.39v-4.82c0-1.29,1.03-2.34,2.29-2.34h0ZM247.42,122.38c-1.8,0-3.27,1.49-3.27,3.31v3.85h-.42c-1.8,0-3.27,1.49-3.27,3.31s1.47,3.31,3.27,3.31h.42v3.85c0,1.83,1.47,3.31,3.27,3.31s3.27-1.49,3.27-3.31v-3.85h.42c1.8,0,3.27-1.49,3.27-3.31s-1.47-3.31-3.27-3.31h-.42v-3.85c0-1.83-1.47-3.31-3.27-3.31h0Z" />
    <path class="cls-7"
      d="M249.68,42.96h-1.39v-4.82c0-1.29-1.03-2.34-2.29-2.34s-2.29,1.05-2.29,2.34v4.82h-1.39c-1.26,0-2.29,1.05-2.29,2.34s1.03,2.34,2.29,2.34h1.39v4.82c0,1.29,1.03,2.34,2.29,2.34s2.29-1.05,2.29-2.34v-4.82h1.39c1.26,0,2.29-1.05,2.29-2.34s-1.03-2.34-2.29-2.34Z" />
    <path class="cls-5"
      d="M246,55.3c-1.54,0-2.79-1.27-2.79-2.84v-4.32h-.89c-1.54,0-2.79-1.27-2.79-2.84s1.25-2.84,2.79-2.84h.89v-4.32c0-1.57,1.25-2.84,2.79-2.84s2.79,1.27,2.79,2.84v4.32h.89c1.54,0,2.79,1.27,2.79,2.84s-1.25,2.84-2.79,2.84h-.89v4.32c0,1.57-1.25,2.84-2.79,2.84ZM242.32,43.46c-.99,0-1.79.83-1.79,1.84s.8,1.84,1.79,1.84h1.89v5.32c0,1.01.8,1.84,1.79,1.84s1.79-.83,1.79-1.84v-5.32h1.89c.99,0,1.79-.83,1.79-1.84s-.8-1.84-1.79-1.84h-1.89v-5.32c0-1.01-.8-1.84-1.79-1.84s-1.79.83-1.79,1.84v5.32h-1.89Z" />
    <path class="cls-2"
      d="M52.3,106.72h-1.39v-4.82c0-1.29-1.03-2.34-2.29-2.34s-2.29,1.05-2.29,2.34v4.82h-1.39c-1.26,0-2.29,1.05-2.29,2.34s1.03,2.34,2.29,2.34h1.39v4.82c0,1.29,1.03,2.34,2.29,2.34s2.29-1.05,2.29-2.34v-4.82h1.39c1.26,0,2.29-1.05,2.29-2.34s-1.03-2.34-2.29-2.34Z" />
    <path class="cls-5"
      d="M48.62,119.07c-1.54,0-2.79-1.27-2.79-2.84v-4.32h-.89c-1.54,0-2.79-1.27-2.79-2.84s1.25-2.84,2.79-2.84h.89v-4.32c0-1.57,1.25-2.84,2.79-2.84s2.79,1.27,2.79,2.84v4.32h.89c1.54,0,2.79,1.27,2.79,2.84s-1.25,2.84-2.79,2.84h-.89v4.32c0,1.57-1.25,2.84-2.79,2.84ZM44.94,107.22c-.99,0-1.79.83-1.79,1.84s.8,1.84,1.79,1.84h1.89v5.32c0,1.02.8,1.84,1.79,1.84s1.79-.83,1.79-1.84v-5.32h1.89c.99,0,1.79-.83,1.79-1.84s-.8-1.84-1.79-1.84h-1.89v-5.32c0-1.01-.8-1.84-1.79-1.84s-1.79.83-1.79,1.84v5.32h-1.89Z" />
    <path class="cls-6"
      d="M123.48,66.09h-.74v-3.27c0-1.11-.89-2.01-1.97-2.01s-1.97.9-1.97,2.01v3.27h-.74c-1.09,0-1.97.9-1.97,2.01s.89,2.01,1.97,2.01h.74v3.27c0,1.11.89,2.01,1.97,2.01s1.97-.9,1.97-2.01v-3.27h.74c1.09,0,1.97-.9,1.97-2.01s-.89-2.01-1.97-2.01Z" />
    <path class="cls-5"
      d="M120.77,75.9c-1.36,0-2.47-1.13-2.47-2.51v-2.77h-.24c-1.36,0-2.47-1.13-2.47-2.51s1.11-2.51,2.47-2.51h.24v-2.77c0-1.39,1.11-2.51,2.47-2.51s2.47,1.13,2.47,2.51v2.77h.24c1.36,0,2.47,1.13,2.47,2.51s-1.11,2.51-2.47,2.51h-.24v2.77c0,1.39-1.11,2.51-2.47,2.51ZM118.05,66.59c-.81,0-1.47.68-1.47,1.51s.66,1.51,1.47,1.51h1.24v3.77c0,.83.66,1.51,1.47,1.51s1.47-.68,1.47-1.51v-3.77h1.24c.81,0,1.47-.68,1.47-1.51s-.66-1.51-1.47-1.51h-1.24v-3.77c0-.83-.66-1.51-1.47-1.51s-1.47.68-1.47,1.51v3.77h-1.24Z" />
    <path class="cls-6"
      d="M88.74,138.36h-.74v-3.27c0-1.11-.89-2.01-1.97-2.01s-1.97.9-1.97,2.01v3.27h-.74c-1.09,0-1.97.9-1.97,2.01s.89,2.01,1.97,2.01h.74v3.27c0,1.11.89,2.01,1.97,2.01s1.97-.9,1.97-2.01v-3.27h.74c1.09,0,1.97-.9,1.97-2.01s-.89-2.01-1.97-2.01Z" />
    <path class="cls-5"
      d="M86.03,148.17c-1.36,0-2.47-1.13-2.47-2.51v-2.77h-.24c-1.36,0-2.47-1.13-2.47-2.51s1.11-2.51,2.47-2.51h.24v-2.77c0-1.39,1.11-2.51,2.47-2.51s2.47,1.13,2.47,2.51v2.77h.24c1.36,0,2.47,1.13,2.47,2.51s-1.11,2.51-2.47,2.51h-.24v2.77c0,1.39-1.11,2.51-2.47,2.51ZM83.31,138.86c-.81,0-1.47.68-1.47,1.51s.66,1.51,1.47,1.51h1.24v3.77c0,.83.66,1.51,1.47,1.51s1.47-.68,1.47-1.51v-3.77h1.24c.81,0,1.47-.68,1.47-1.51s-.66-1.51-1.47-1.51h-1.24v-3.77c0-.83-.66-1.51-1.47-1.51s-1.47.68-1.47,1.51v3.77h-1.24Z" />
    <path class="cls-7"
      d="M112.15,13.58h-.74v-3.27c0-1.11-.89-2.01-1.97-2.01s-1.97.9-1.97,2.01v3.27h-.74c-1.09,0-1.97.9-1.97,2.01s.89,2.01,1.97,2.01h.74v3.27c0,1.11.89,2.01,1.97,2.01s1.97-.9,1.97-2.01v-3.27h.74c1.09,0,1.97-.9,1.97-2.01s-.89-2.01-1.97-2.01Z" />
    <path class="cls-5"
      d="M109.44,23.39c-1.36,0-2.47-1.13-2.47-2.51v-2.77h-.24c-1.36,0-2.47-1.13-2.47-2.51s1.11-2.51,2.47-2.51h.24v-2.77c0-1.39,1.11-2.51,2.47-2.51s2.47,1.13,2.47,2.51v2.77h.24c1.36,0,2.47,1.13,2.47,2.51s-1.11,2.51-2.47,2.51h-.24v2.77c0,1.39-1.11,2.51-2.47,2.51ZM106.72,14.08c-.81,0-1.47.68-1.47,1.51s.66,1.51,1.47,1.51h1.24v3.77c0,.83.66,1.51,1.47,1.51s1.47-.68,1.47-1.51v-3.77h1.24c.81,0,1.47-.68,1.47-1.51s-.66-1.51-1.47-1.51h-1.24v-3.77c0-.83-.66-1.51-1.47-1.51s-1.47.68-1.47,1.51v3.77h-1.24Z" />
    <path class="cls-7"
      d="M244.24,13.58h-.74v-3.27c0-1.11-.89-2.01-1.97-2.01s-1.97.9-1.97,2.01v3.27h-.74c-1.09,0-1.97.9-1.97,2.01s.89,2.01,1.97,2.01h.74v3.27c0,1.11.89,2.01,1.97,2.01s1.97-.9,1.97-2.01v-3.27h.74c1.09,0,1.97-.9,1.97-2.01s-.89-2.01-1.97-2.01Z" />
    <path class="cls-5"
      d="M241.52,23.39c-1.36,0-2.47-1.13-2.47-2.51v-2.77h-.24c-1.36,0-2.47-1.13-2.47-2.51s1.11-2.51,2.47-2.51h.24v-2.77c0-1.39,1.11-2.51,2.47-2.51s2.47,1.13,2.47,2.51v2.77h.24c1.36,0,2.47,1.13,2.47,2.51s-1.11,2.51-2.47,2.51h-.24v2.77c0,1.39-1.11,2.51-2.47,2.51ZM238.81,14.08c-.81,0-1.47.68-1.47,1.51s.66,1.51,1.47,1.51h1.24v3.77c0,.83.66,1.51,1.47,1.51s1.47-.68,1.47-1.51v-3.77h1.24c.81,0,1.47-.68,1.47-1.51s-.66-1.51-1.47-1.51h-1.24v-3.77c0-.83-.66-1.51-1.47-1.51s-1.47.68-1.47,1.51v3.77h-1.24Z" />
    <path class="cls-6"
      d="M214.93,58.47h-1.39v-4.82c0-1.29-1.03-2.34-2.29-2.34s-2.29,1.05-2.29,2.34v4.82h-1.39c-1.26,0-2.29,1.05-2.29,2.34s1.03,2.34,2.29,2.34h1.39v4.82c0,1.29,1.03,2.34,2.29,2.34s2.29-1.05,2.29-2.34v-4.82h1.39c1.26,0,2.29-1.05,2.29-2.34s-1.03-2.34-2.29-2.34Z" />
    <path class="cls-5"
      d="M211.25,70.81c-1.54,0-2.79-1.27-2.79-2.84v-4.32h-.89c-1.54,0-2.79-1.27-2.79-2.84s1.25-2.84,2.79-2.84h.89v-4.32c0-1.57,1.25-2.84,2.79-2.84s2.79,1.27,2.79,2.84v4.32h.89c1.54,0,2.79,1.27,2.79,2.84s-1.25,2.84-2.79,2.84h-.89v4.32c0,1.57-1.25,2.84-2.79,2.84ZM207.57,58.97c-.99,0-1.79.83-1.79,1.84s.8,1.84,1.79,1.84h1.89v5.32c0,1.01.8,1.84,1.79,1.84s1.79-.83,1.79-1.84v-5.32h1.89c.99,0,1.79-.83,1.79-1.84s-.8-1.84-1.79-1.84h-1.89v-5.32c0-1.01-.8-1.84-1.79-1.84s-1.79.83-1.79,1.84v5.32h-1.89Z" />
    <path class="cls-4"
      d="M189.95,35.2c-1.53,0-2.78-1.27-2.78-2.83v-4.33h-.9c-1.53,0-2.78-1.27-2.78-2.83s1.25-2.83,2.78-2.83h.9v-4.33c0-1.56,1.25-2.83,2.78-2.83s2.78,1.27,2.78,2.83v4.33h.9c1.53,0,2.78,1.27,2.78,2.83s-1.25,2.83-2.78,2.83h-.9v4.33c0,1.56-1.25,2.83-2.78,2.83Z" />
    <path class="cls-5"
      d="M189.95,15.71c1.26,0,2.29,1.05,2.29,2.34v4.82h1.39c1.26,0,2.29,1.05,2.29,2.34s-1.03,2.34-2.29,2.34h-1.39v4.82c0,1.29-1.03,2.34-2.29,2.34s-2.29-1.05-2.29-2.34v-4.82h-1.39c-1.26,0-2.29-1.05-2.29-2.34s1.03-2.34,2.29-2.34h1.39v-4.82c0-1.29,1.03-2.34,2.29-2.34h0ZM189.95,14.74c-1.8,0-3.27,1.49-3.27,3.31v3.85h-.42c-1.8,0-3.27,1.49-3.27,3.31s1.47,3.31,3.27,3.31h.42v3.85c0,1.83,1.47,3.31,3.27,3.31s3.27-1.49,3.27-3.31v-3.85h.42c1.8,0,3.27-1.49,3.27-3.31s-1.47-3.31-3.27-3.31h-.42v-3.85c0-1.83-1.47-3.31-3.27-3.31h0Z" />
    <path class="cls-3"
      d="M156.8,35.73s.34,13.59-5.61,14.61c4.27.67,5.97,4.29,6.27,10.5-.3-5.67.8-9.93,5.64-11.43-6.55-.46-6.3-13.68-6.3-13.68Z" />
    <path class="cls-7"
      d="M156.8,35.73s0,.22,0,.61c0-.39,0-.61,0-.61h0ZM156.81,36.35c.05,2.61.6,12.67,6.3,13.07-4.8,1.48-5.92,5.67-5.65,11.26-.32-6.11-2.03-9.67-6.26-10.33,5.19-.9,5.6-11.34,5.61-14h0ZM157.45,60.68c0,.06,0,.11,0,.17,0-.06,0-.11,0-.17h0ZM156.8,35.23h0c-.27,0-.5.22-.5.5,0,0,0,.23,0,.63-.01,2.12-.34,12.66-5.2,13.5-.24.04-.42.25-.42.5,0,.25.18.46.43.49,3.7.58,5.5,3.62,5.83,9.86v.17c.02.27.25.48.51.48,0,0,.02,0,.03,0,.28-.01.49-.25.48-.53v-.17s0,0,0,0c-.3-6.3,1.28-9.51,5.3-10.75.23-.07.38-.3.35-.54-.03-.24-.22-.43-.47-.45-5.33-.38-5.79-10.52-5.83-12.57,0-.39,0-.61,0-.62,0-.27-.23-.49-.5-.49h0Z" />
  </g>
</svg>