<?xml version="1.0" encoding="UTF-8"?>
<svg id="Capa_2" xmlns="http://www.w3.org/2000/svg" viewBox="0 0 157.78 229.87">
  <defs>
    <style>
      .cls-1 {
        fill: #008cff;
      }

      .cls-2 {
        fill: #00ffdb;
      }

      .cls-3 {
        fill: #7a00ba;
      }

      .cls-4 {
        fill: #fff;
      }

      .cls-5 {
        fill: #fe0;
      }

      .cls-6 {
        fill: #ff387f;
      }
    </style>
  </defs>
  <g id="layer_1">
    <path class="cls-4"
      d="M156.98,146.62s-.03-.08-.05-.11c-.16-.37-.34-.72-.53-1.05-.33-1.05-1-1.97-1.88-2.6-1.69-1.83-3.87-3.14-6.24-3.73-2.16-.54-4.4-.81-6.65-.81-2.76,0-5.49.41-8.11,1.2l.1-11.66c.07-7.73.16-15.46.25-23.2,0-.37,0-.75.01-1.13,2.51-.78,4.34-3.13,4.34-5.89v-7.65c0-1.76-.74-3.35-1.93-4.47h2.72c3.4,0,6.17-2.77,6.17-6.17v-12.09c0-3.4-2.77-6.17-6.17-6.17h-4.79c0-.99,0-1.99,0-2.99.03-3.52.07-7.52-1.1-11.41-1.47-4.89-4.63-8.61-8.69-10.23-1.43-.57-2.88-.86-4.31-.86-7.67,0-12.04,7.96-13.48,10.58-.73,1.34-1.29,2.16-1.68,2.67-.05-.09-.11-.18-.17-.28-.55-.96-.78-2.36-1-3.95-.48-3.43-.61-7.04-.74-10.86-.19-5.42-.39-11.03-1.67-16.32C99.47,9.43,93.08.55,83.63.02c-.28-.02-.56-.02-.84-.02-8.94,0-15.31,7.7-18.05,14.3-1.38,3.32-2.23,6.72-3.06,10.02-.04.17-.09.35-.13.52-.64-1.51-1.33-3.03-2.19-4.53-2.07-3.59-6.52-7.78-12.29-7.78-1.23,0-2.45.2-3.62.6-3.7,1.26-5.31,4.17-6.48,6.29-.41.74-.8,1.45-1.22,1.97-1,1.28-1.56,1.28-2.1,1.28-.82,0-1.93-.24-3.22-.52-.54-.12-1.09-.24-1.67-.35-.72-.14-1.45-.21-2.15-.21-8.91,0-13.09,10.75-14.03,20.8-.1,1.1-.16,2.2-.2,3.29h-.03c-3.4,0-6.17,2.77-6.17,6.17v3.08c0,1.99,1.01,3.82,2.6,4.97-.06.36-.1.73-.1,1.11v.17c-2.94.46-5.21,3.01-5.21,6.09v7.65c0,2.36,1.33,4.41,3.28,5.45v4.18c-1.95,1.04-3.28,3.09-3.28,5.45v7.65c0,3.4,2.77,6.17,6.17,6.17h2.98c-.04,2.1-.07,4.2-.09,6.3-4.02,3.16-7.35,7.24-9.51,11.94-4.62,10.02-3.9,22.27,1.88,31.97,1.9,3.2,4.37,6.11,7.22,8.6-.02,3.92-.03,7.83-.03,11.72v1.36c-.08,5.34-.14,12.19,2.94,17.46.52,3.98,2.25,8.02,5.09,11.83,1.76,2.34,3.69,4.48,5.71,6.35,2.5,2.33,5.23,4.36,7.99,5.93.05.15.11.3.17.45.22.53.5,1.02.84,1.46,0,.1,0,.2-.01.29-.12,2.19.2,4.04.96,5.6,1.3,2.76,3.9,4.59,6.79,4.78.09,0,.17,0,.26,0h.18c2.24,0,4.32-1.04,5.57-2.77.09-.13.17-.25.25-.38.13.06.27.12.41.17.92.36,1.88.55,2.86.55,1.99,0,3.89-.78,5.23-2.15,1.46-1.5,2.21-3.62,2.13-6.01,2.84-.45,5.28-2.72,6.11-5.85.63-2.54.18-5.4-1.26-7.86-.02-.03-.04-.07-.06-.1,6.65.35,13.35.58,20.04.58,2.24,0,4.42-.03,6.57-.08,0,.09,0,.17-.01.25l-.04.99c0,.08-.04.52-.05.6-.03.96-.05,2.09.01,3.22.25,3.4,2.96,5.65,4.95,7.3,3.92,3.23,8.62,5.69,13.6,7.12,1.75.5,3.92,1.12,6.35,1.12.7,0,1.4-.05,2.06-.16,3.21-.5,7.87-1.64,11.26-5.8,2.65-3.27,3.82-7.43,3.2-11.38-.42-2.78-1.68-5.32-3.65-7.35-.43-.45-.88-.85-1.34-1.23,1.03-.81,1.96-1.81,2.75-3.1,3.63-5.96,4.09-13.56,3.89-20.94,2.18-.87,4.14-2.26,5.6-3.3l.42-.3c4.58-3.2,9.1-7.51,13.43-12.82,2.17-2.67,6.21-7.63,3.7-13.56Z" />
    <path class="cls-3"
      d="M16.05,174.38c-.04,6.51-.57,15.51,5.05,19.85,5.92,4.57,13.72,5.27,20.93,5.8,23.63,1.73,47.45,3.46,70.93.31,4.78-.64,10.76-.19,13.61-4.86,5.28-8.65,2.72-22.68,2.8-32.37.1-11.76.21-23.52.31-35.28.21-23.25.62-46.5.62-69.75.03-3.44.05-6.94-.94-10.24-.99-3.3-3.16-6.42-6.36-7.69-6.14-2.44-10.34,3.37-12.86,7.95-2.25,4.1-5.38,8.37-8.76,2.44-.92-1.62-1.22-3.51-1.48-5.36-1.21-8.69-.29-18.36-2.34-26.79-1.59-6.54-6.87-14-14.16-14.41-6.8-.38-12.41,5.56-15.02,11.84-2.61,6.29-3.27,13.26-6,19.49-2.94-3.87-4.04-8.82-6.47-13.03-2.14-3.72-6.73-6.94-11.2-5.41-3.3,1.13-3.94,4.5-5.86,6.96-3.2,4.08-6.31,2.74-10.86,1.85-8.26-1.62-10.93,11.24-11.48,17.08-.8,8.62.71,17.21.75,25.82.08,14.97-.8,29.95-.8,44.89-.14,20.3-.42,40.61-.42,60.91Z" />
    <path class="cls-3"
      d="M14.84,66.3c-1.22,0-2.21-.99-2.21-2.21v-3.08c0-.77.39-1.45,1-1.85l-1.46-1.83c-.08-.08-.15-.16-.21-.24-1-.23-1.82-1.11-1.82-2.16v-3.08c0-1.22.99-2.21,2.21-2.21h7.08c.07,0,.14,0,.21.01.07,0,.14-.01.21-.01h4.85c1.22,0,2.21.99,2.21,2.21v3.08c0,1.09-.79,2-1.84,2.18l-.16.18-1.47,1.86c.6.4,1,1.08,1,1.85v3.08c0,1.22-.99,2.21-2.21,2.21h-7.39Z" />
    <path class="cls-3"
      d="M32.07,66.66c-1.26,0-2.44-.17-3.51-.51-1.15-.36-2.16-.92-3.01-1.67-.87-.76-1.56-1.72-2.03-2.83-.46-1.07-.69-2.31-.69-3.66s.23-2.6.69-3.68c.47-1.11,1.15-2.06,2.03-2.83.85-.74,1.86-1.3,3.01-1.66,1.07-.34,2.25-.51,3.51-.51s2.43.17,3.5.51c1.15.36,2.16.92,3.01,1.67.87.76,1.55,1.71,2.02,2.83.46,1.08.69,2.31.69,3.68s-.23,2.59-.69,3.67c-.47,1.11-1.15,2.06-2.02,2.83-.85.75-1.86,1.31-3.02,1.67-1.07.34-2.25.51-3.5.51Z" />
    <path class="cls-3"
      d="M46.61,66.65c-1.01,0-1.88-.1-2.66-.3-.8-.21-1.5-.5-2.09-.86-.65-.39-1.18-.87-1.59-1.4-.37-.49-.66-1-.86-1.53-.19-.49-.32-1-.39-1.5-.06-.43-.08-.83-.08-1.19v-2.91c-.78-.34-1.32-1.12-1.32-2.03v-3.08c0-1.22.99-2.21,2.21-2.21h7.17c.11,0,.22,0,.32.02.11-.02.21-.02.32-.02h5.31c1.22,0,2.21.99,2.21,2.21v3.08c0,.82-.45,1.54-1.12,1.92v2.88c0,.67-.08,1.37-.24,2.08-.2.88-.6,1.69-1.17,2.41-.59.74-1.4,1.33-2.41,1.78-.98.43-2.16.64-3.6.64Z" />
    <path class="cls-3"
      d="M64,66.3c-.1,0-.2,0-.3-.02-.1.01-.2.02-.3.02h-5.02c-1.22,0-2.21-.99-2.21-2.21v-3.08c0-1.09.78-1.99,1.82-2.18l.99-2.52c-.3-.38-.48-.86-.48-1.37v-3.08c0-1.22.99-2.21,2.21-2.21h8.28c1.22,0,2.21.99,2.21,2.21v3.08c0,.52-.18.99-.47,1.37l1,2.53c1.03.19,1.81,1.09,1.81,2.18v3.08c0,1.22-.99,2.21-2.21,2.21h-7.33Z" />
    <path class="cls-3"
      d="M82.57,66.65c-.89,0-1.63-.11-2.28-.34-.15-.05-.3-.11-.44-.18-.27.11-.56.17-.86.17h-7.17c-1.22,0-2.21-.99-2.21-2.21v-3.08c0-.91.54-1.68,1.32-2.03v-2.02c-.78-.34-1.32-1.12-1.32-2.03v-3.08c0-1.22.99-2.21,2.21-2.21h8.54c1.01,0,1.87.11,2.63.33.86.26,1.59.65,2.16,1.18.61.56,1.04,1.23,1.3,2.01.21.64.32,1.34.32,2.08,0,.79-.12,1.51-.34,2.16.99.22,1.73,1.1,1.73,2.16v2.11c0,.64-.1,1.25-.29,1.82-.24.68-.62,1.27-1.14,1.77-.5.48-1.14.84-1.89,1.08-.65.21-1.39.31-2.25.31Z" />
    <path class="cls-3"
      d="M86.27,66.3c-1.22,0-2.21-.99-2.21-2.21v-3.08c0-.91.54-1.68,1.32-2.03v-2.02c-.78-.34-1.32-1.12-1.32-2.03v-3.08c0-1.22.99-2.21,2.21-2.21h11.49c1.22,0,2.21.99,2.21,2.21v4.53c0,.62-.26,1.19-.68,1.59.42.4.68.97.68,1.59v4.53c0,1.22-.99,2.21-2.21,2.21h-11.49Z" />
    <path class="cls-5"
      d="M13.84,55.87c-.12-.13-.23-.25-.31-.36-.09-.11-.18-.21-.28-.3-.1-.08-.22-.15-.36-.2-.14-.05-.32-.08-.54-.08v-3.08h7.08v3.08c-.47,0-.79.08-.94.24-.15.16-.15.36.01.6l1.11,1.6h.06l1.11-1.6c.19-.22.21-.41.06-.58-.15-.17-.48-.26-.99-.26v-3.08h4.85v3.08c-.16,0-.3.02-.42.05-.12.03-.23.09-.34.16-.11.07-.21.17-.32.29-.11.12-.24.26-.4.44l-2.31,2.93v1.28c0,.36.1.61.31.74.2.13.54.2,1.02.2v3.08h-7.39v-3.08c.47,0,.81-.06,1.02-.2s.31-.38.31-.74v-1.28l-2.33-2.93Z" />
    <path class="cls-5"
      d="M25.05,57.98c0-1.07.17-2.01.51-2.81.34-.81.82-1.48,1.45-2.02.62-.54,1.36-.95,2.22-1.22.86-.27,1.81-.41,2.84-.41s1.98.14,2.84.41c.86.27,1.6.68,2.22,1.22.62.54,1.1,1.22,1.44,2.02.34.81.51,1.74.51,2.81s-.17,2-.51,2.8c-.34.81-.82,1.48-1.44,2.03-.62.55-1.36.95-2.22,1.23-.86.27-1.81.41-2.84.41s-1.98-.14-2.84-.41c-.86-.27-1.6-.68-2.22-1.23-.62-.55-1.11-1.22-1.45-2.03-.34-.81-.51-1.74-.51-2.8ZM30.46,57.98c0,.67.02,1.23.07,1.68.05.45.13.82.26,1.1.12.28.28.48.49.61.2.12.47.19.79.19s.56-.06.77-.19c.21-.12.37-.33.5-.61.12-.28.2-.65.25-1.1.05-.45.07-1.01.07-1.68s-.02-1.22-.07-1.68c-.05-.46-.13-.83-.25-1.11-.12-.28-.29-.48-.5-.6-.21-.12-.47-.19-.77-.19s-.58.06-.79.19c-.2.12-.37.33-.49.6-.12.28-.21.65-.26,1.11-.05.46-.07,1.02-.07,1.68Z" />
    <path class="cls-5"
      d="M46.99,51.85v3.08c-.41,0-.69.07-.85.2-.16.13-.24.34-.24.64v3.84c0,.21.02.4.06.59.04.19.12.36.22.5.1.15.24.26.42.35.18.09.4.13.67.13.52,0,.89-.14,1.13-.42.24-.28.36-.66.36-1.13v-3.82c0-.34-.1-.57-.3-.69-.2-.12-.47-.18-.82-.18v-3.08h5.31v3.08c-.36,0-.64.05-.83.16-.19.11-.29.33-.29.68v3.96c0,.51-.06,1.04-.19,1.59-.13.55-.37,1.06-.74,1.51-.37.46-.89.84-1.58,1.14-.68.3-1.58.45-2.71.45-.82,0-1.52-.08-2.11-.23-.59-.15-1.09-.35-1.5-.6-.41-.25-.73-.53-.98-.85-.24-.32-.43-.65-.56-.99-.13-.34-.22-.67-.26-1-.04-.32-.06-.62-.06-.89v-4c0-.37-.1-.61-.31-.74-.2-.13-.54-.2-1.02-.2v-3.08h7.17Z" />
    <path class="cls-5"
      d="M64.98,59.82h-2.55l-.11.36c-.09.24-.08.44.02.59.1.16.3.24.61.24h.46v3.08h-5.02v-3.08h.33c.39,0,.65-.08.78-.24.13-.16.26-.39.38-.69l1.65-4.2c.12-.32.14-.56.06-.71-.08-.15-.31-.23-.71-.23h-.17v-3.08h8.28v3.08h-.16c-.4,0-.64.08-.71.24-.08.16-.05.39.07.7l1.65,4.2c.06.15.12.29.17.4.05.11.11.21.19.29.07.08.18.14.3.18.13.04.29.06.49.06h.33v3.08h-7.33v-3.08h.44c.31,0,.51-.08.62-.24.11-.16.11-.36.03-.59l-.11-.36ZM62.84,58.52h1.72l-.81-2.55h-.06l-.85,2.55Z" />
    <path class="cls-5"
      d="M71.83,64.09v-3.08c.47,0,.81-.06,1.02-.2.2-.13.31-.38.31-.74v-4.2c0-.37-.1-.61-.31-.74-.2-.13-.54-.2-1.02-.2v-3.08h8.54c.79,0,1.45.08,2,.24.54.16.97.39,1.3.69.33.3.56.66.69,1.07.14.42.21.88.21,1.39,0,.93-.22,1.67-.65,2.23-.44.56-1.13.86-2.09.9v.1c.46.03.85.12,1.15.27.3.14.54.33.72.56.17.23.3.51.37.83.07.32.11.69.11,1.1v.44c0,.14.03.26.1.36.07.1.18.15.32.15.16,0,.27-.05.33-.15.06-.1.1-.22.1-.36v-2.11h.93v2.11c0,.4-.06.77-.17,1.1-.12.33-.31.63-.57.88-.26.25-.61.44-1.04.58-.43.14-.96.2-1.59.2s-1.14-.07-1.54-.21c-.4-.14-.71-.34-.94-.59-.23-.25-.38-.54-.47-.87-.09-.33-.13-.68-.13-1.04v-.64c0-.44-.02-.8-.07-1.08-.05-.27-.13-.49-.24-.64-.11-.15-.25-.25-.43-.3-.18-.05-.39-.07-.65-.07h-.19v1.19c0,.29.08.5.24.64.16.13.44.2.85.2v3.08h-7.17ZM77.91,57.52h.71c.45,0,.76-.11.93-.34.17-.22.26-.54.26-.93,0-.47-.08-.8-.26-1.01-.17-.2-.48-.31-.93-.31h-.71v2.58Z" />
    <path class="cls-5"
      d="M93.8,61.01c.22,0,.4-.02.55-.06.15-.04.27-.11.35-.22.09-.11.15-.26.18-.45.03-.19.05-.43.05-.72h2.82v4.53h-11.49v-3.08c.47,0,.81-.06,1.02-.2.2-.13.31-.38.31-.74v-4.2c0-.37-.1-.61-.31-.74-.2-.13-.54-.2-1.02-.2v-3.08h11.49v4.53h-2.82c0-.29-.02-.54-.05-.72-.03-.19-.09-.33-.18-.44-.09-.11-.21-.18-.35-.22-.15-.04-.33-.06-.55-.06h-1.45v2.21h2.57v1.47h-2.57v2.39h1.45Z" />
    <path class="cls-3"
      d="M9.64,99.86c-1.22,0-2.21-.99-2.21-2.21v-7.65c0-1.22.99-2.21,2.21-2.21.52,0,.86-.04,1.07-.08v-10.5c-.21-.04-.55-.08-1.07-.08-1.22,0-2.21-.99-2.21-2.21v-7.65c0-1.22.99-2.21,2.21-2.21h18.35c1.22,0,2.21.99,2.21,2.21v7.65c0,1.22-.99,2.21-2.21,2.21-.5,0-.84.04-1.05.07v10.58h1.79c.18,0,.33,0,.45-.02.02-.1.05-.23.07-.4.07-.53.11-1.28.11-2.22,0-1.22.99-2.21,2.21-2.21h7c1.22,0,2.21.99,2.21,2.21v12.5c0,1.22-.99,2.21-2.21,2.21H9.64Z" />
    <path class="cls-3"
      d="M57.84,100.75c-2.79,0-5.39-.37-7.72-1.11-2.41-.76-4.53-1.94-6.3-3.49-1.79-1.57-3.2-3.53-4.17-5.84-.96-2.27-1.45-4.9-1.45-7.82s.49-5.58,1.45-7.85c.98-2.3,2.38-4.26,4.17-5.83,1.77-1.54,3.89-2.71,6.3-3.47,2.34-.74,4.93-1.11,7.72-1.11s5.37.37,7.71,1.11c2.42.76,4.54,1.93,6.3,3.48,1.79,1.56,3.19,3.53,4.16,5.83.96,2.27,1.45,4.91,1.45,7.85s-.49,5.56-1.45,7.82c-.97,2.3-2.37,4.26-4.16,5.83-1.77,1.55-3.89,2.73-6.31,3.49-2.34.74-4.94,1.11-7.71,1.11ZM57.84,75.83c-.54,0-.75.11-.81.14-.11.06-.23.25-.34.49-.14.33-.34.96-.46,2.09-.11,1.06-.17,2.39-.17,3.94s.06,2.9.17,3.94c.12,1.11.32,1.74.46,2.08.16.37.3.47.33.5.05.03.27.14.81.14.35,0,.62-.05.79-.15.11-.06.23-.24.33-.48.14-.33.34-.97.46-2.08.11-1.04.17-2.37.17-3.94s-.06-2.87-.17-3.94c-.12-1.13-.31-1.76-.46-2.09-.11-.24-.23-.41-.33-.48-.17-.1-.45-.16-.79-.16Z" />
    <path class="cls-3"
      d="M92.96,100.42c-1.74,0-3.43-.21-5.03-.63-.7-.18-1.4-.42-2.11-.7-.41.47-1.01.77-1.68.77h-6.6c-1.22,0-2.21-.99-2.21-2.21v-11.24c0-1.22.99-2.21,2.21-2.21h.64c-.57-.6-1.09-1.26-1.55-1.99-1.02-1.61-1.54-3.66-1.54-6.09,0-1.86.41-3.56,1.21-5.04.77-1.43,1.83-2.65,3.14-3.63,1.26-.95,2.73-1.67,4.36-2.15,1.58-.46,3.26-.7,5-.7,2.35,0,4.42.3,6.16.88.39.13.77.27,1.12.4.41-.5,1.03-.82,1.72-.82h6.6c1.22,0,2.21.99,2.21,2.21v11.04c0,1.22-.99,2.21-2.21,2.21h-.24c.07.06.14.13.2.2.96.96,1.73,2.14,2.31,3.49.58,1.37.88,2.99.88,4.82,0,2.03-.45,3.82-1.33,5.31-.85,1.45-2.01,2.65-3.45,3.58-1.36.88-2.93,1.53-4.67,1.93-1.65.38-3.38.57-5.14.57Z" />
    <path class="cls-3"
      d="M113.73,99.86c-1.22,0-2.21-.99-2.21-2.21v-7.65c0-1.22.99-2.21,2.21-2.21.51,0,.84-.04,1.05-.07v-6.67c-.39.33-.88.52-1.43.52h-6.6c-1.22,0-2.21-.99-2.21-2.21v-12.09c0-1.22.99-2.21,2.21-2.21h32.29c1.22,0,2.21.99,2.21,2.21v12.09c0,1.22-.99,2.21-2.21,2.21h-6.58c-.55,0-1.06-.2-1.45-.54v6.68c.21.04.55.08,1.07.08,1.22,0,2.21.99,2.21,2.21v7.65c0,1.22-.99,2.21-2.21,2.21h-18.35Z" />
    <path class="cls-5"
      d="M27.99,74.92c-1.17,0-2.01.16-2.51.48-.5.32-.75.94-.75,1.85v12.75h4c.55,0,1.01-.05,1.38-.16.37-.11.67-.34.88-.69.21-.35.36-.84.45-1.48.09-.63.13-1.47.13-2.52h7v12.5H9.64v-7.65c1.17,0,2.02-.16,2.52-.48.51-.32.76-.93.76-1.83v-10.44c0-.91-.25-1.52-.76-1.85-.51-.32-1.35-.48-2.52-.48v-7.65h18.35v7.65Z" />
    <path class="cls-5"
      d="M40.41,82.49c0-2.65.42-4.98,1.27-6.98.85-2,2.04-3.68,3.59-5.02,1.55-1.35,3.39-2.36,5.51-3.03,2.13-.67,4.48-1.01,7.05-1.01s4.91.34,7.04,1.01c2.13.67,3.97,1.68,5.51,3.03,1.54,1.35,2.73,3.02,3.58,5.02s1.27,4.33,1.27,6.98-.42,4.96-1.27,6.96c-.85,2-2.04,3.68-3.58,5.03-1.54,1.35-3.38,2.37-5.51,3.04-2.14.67-4.48,1.01-7.04,1.01s-4.93-.34-7.05-1.01c-2.13-.67-3.96-1.69-5.51-3.04-1.55-1.35-2.74-3.03-3.59-5.03-.85-2-1.27-4.32-1.27-6.96ZM53.86,82.49c0,1.66.06,3.06.18,4.18.12,1.12.33,2.03.63,2.72.3.7.7,1.2,1.21,1.51.51.31,1.16.46,1.96.46s1.4-.15,1.92-.46c.52-.31.93-.81,1.23-1.51.3-.69.51-1.6.63-2.72.12-1.12.18-2.51.18-4.18s-.06-3.03-.18-4.17-.33-2.06-.63-2.74c-.3-.69-.71-1.19-1.23-1.5-.52-.31-1.16-.46-1.92-.46-.8,0-1.45.15-1.96.46-.51.31-.91.81-1.21,1.5-.3.69-.51,1.6-.63,2.74-.12,1.14-.18,2.53-.18,4.17Z" />
    <path class="cls-5"
      d="M104.38,78.3h-6.6c-.11-.7-.34-1.35-.71-1.96-.37-.6-.82-1.13-1.35-1.57-.53-.44-1.13-.78-1.78-1.02-.65-.24-1.33-.36-2.02-.36-.84,0-1.52.17-2.04.49-.52.33-.78.79-.78,1.38s.23,1.02.7,1.37c.47.35,1.08.65,1.84.91.76.25,1.63.5,2.6.73.97.23,1.96.52,2.97.87,1.01.34,2,.76,2.97,1.25.97.49,1.84,1.11,2.6,1.88.76.76,1.37,1.69,1.84,2.8.47,1.1.7,2.42.7,3.96,0,1.64-.34,3.03-1.02,4.19-.68,1.15-1.59,2.1-2.74,2.85-1.15.74-2.47,1.29-3.96,1.63-1.49.34-3.04.52-4.64.52s-3.05-.19-4.47-.56c-1.42-.37-2.87-.98-4.35-1.82v1.82h-6.6v-11.24h6.6c.39,1.61,1.16,2.88,2.32,3.81,1.16.93,2.47,1.39,3.92,1.39.97,0,1.7-.19,2.18-.57.48-.38.72-.81.72-1.29,0-.76-.4-1.34-1.19-1.75-.79-.41-1.78-.78-2.95-1.1-1.17-.32-2.46-.69-3.85-1.09-1.39-.41-2.68-.99-3.85-1.75-1.17-.76-2.16-1.77-2.95-3.02-.79-1.25-1.19-2.89-1.19-4.91,0-1.5.31-2.83.94-3.98s1.47-2.13,2.52-2.92c1.05-.79,2.27-1.39,3.65-1.8,1.38-.41,2.84-.61,4.37-.61,2.12,0,3.94.25,5.46.76,1.52.51,2.7,1.05,3.54,1.61v-1.92h6.6v11.04Z" />
    <path class="cls-5"
      d="M139.04,67.26v12.09h-6.58c0-.92-.02-1.72-.07-2.4-.05-.68-.15-1.23-.31-1.65-.16-.42-.4-.73-.73-.93-.33-.2-.76-.3-1.31-.3h-1.24v13.62c0,.89.25,1.5.76,1.83.51.32,1.35.48,2.52.48v7.65h-18.35v-7.65c1.17,0,2.01-.16,2.51-.48.5-.32.75-.93.75-1.83v-13.62h-1.22c-.55,0-.98.1-1.31.3-.33.2-.57.51-.74.93-.17.42-.27.97-.31,1.65-.04.68-.06,1.48-.06,2.4h-6.6v-12.09h32.29Z" />
    <path class="cls-3"
      d="M43.02,225.92h-.18c-1.45-.1-2.79-1.08-3.47-2.51-.48-.99-.68-2.2-.59-3.71.02-.39.03-.76.07-1.14l.03-.42c.01-.22.03-.44.04-.66-.58-.25-1.04-.7-1.26-1.27-.19-.44-.24-.96-.14-1.45-3.07-1.5-6.16-3.67-8.97-6.3-1.86-1.72-3.63-3.68-5.26-5.84-2.83-3.78-4.37-7.79-4.47-11.58-.13-4.4,1.6-8.51,3.13-11.6,2.11-4.28,4.72-8.36,7.76-12.14-8.91-1.99-16.87-7.66-21.41-15.29-5.13-8.6-5.78-19.45-1.69-28.3,4.1-8.92,12.89-15.32,22.43-16.36.58-.67,1.58-1.09,2.49-1.04.77.03,1.5.41,2.02,1.01.62-.08,1.3-.14,2.05-.16.06-.29.12-.59.21-.9.08-.28.27-.53.53-.68,3.6-2.08,8.3-2.42,11.67-.84.49.23.75.75.64,1.28-.21,1-.5,2.25-.83,3.59,2.04.87,3.92,1.9,5.6,3.06,2.76,1.91,5.24,4.45,7.18,7.37,1.59-.8,3.24-1.43,4.9-1.87.5-.12,1.01.08,1.27.51,1.42,2.3,2.36,5.73,2.22,8.17-.02.32-.18.64-.45.86-.24.19-.54.27-.8.23-1.09-.01-2.29-.01-3.52,0,0,0,0,.01,0,.02.19.7.45,1.67.64,2.56.12,0,.25.02.36.04,1.71-1.13,3.27-2.46,4.65-3.96l.57-.59c1.23-1.3,2.36-2.51,2.61-4.06.07-.45.06-.92-.03-1.38-.18-1.06-.74-2.11-1.28-3.13l-1.21-2.26s-.03-.05-.04-.08c-.03-.05-.06-.09-.06-.09l-.58-1.08c-.56-1.05-1.12-2.09-1.67-3.14-.16-.29-.3-.61-.45-.94l-.19-.42c-.52-1.17-1.05-2.37-1.91-2.99-.27-.19-.68-.36-1.21-.49-1.92-.5-3.67-.35-5.69-.18l-.56.05c-1.41.14-3.93.39-4.58-1.51-.67-1.95.46-4.01,1.92-5.04,1.01-.72,2.18-1.06,3.27-1.28-.45-1.37-1.2-2.79-1.99-3.73l-.23-.28c-.45-.52-1.03-1.18-1.29-2.05-.48-1.77.68-3.8,2.53-4.43,1.47-.51,3.23-.2,4.71.84.96.69,1.69,1.56,2.28,2.37.19-.07.37-.12.54-.16-.15-.36-.35-.74-.51-1.04l-.1-.21c-.66-1.24-.69-2.65-.06-3.82.6-1.13,1.74-1.86,3.14-2,2.32-.24,4.25,1.33,5.83,4.72.05-1.06.31-2.4,1.18-3.42.67-.83,1.63-1.31,2.84-1.43.11,0,.21-.01.31-.01,3.12,0,4.17,3.76,4.69,5.6.8,2.86,1.05,5.74.75,8.59.85,1.41,1.73,2.85,2.62,4.3l.21.34c.85,1.4,1.7,2.79,2.52,4.15.21.33.42.67.61.99,1.59,2.64,3.21,5.33,4.14,8.36.65,2.13.86,4.23.65,6.23-.21,1.91-.87,3.47-1.56,5.11l-5.29,12.52c-1.18,2.78-2.2,5.31-2.75,7.94,1.45.47,2.7.75,3.87.87.04-.04.08-.09.13-.13.01-.02.03-.03.04-.05.04-.09.1-.15.18-.18,3.42-3.68,7.47-6.66,10.62-8.85,2.21-1.54,4.88-3.17,7.92-3.57,3.66-.49,7.2.9,9.87,2.16,1.83.85,3.7,1.87,5.54,3.03,2.33,1.44,4.55,3.08,6.59,4.86,5.4-3.2,11.94-4.18,18-2.67,1.78.45,3.42,1.5,4.63,2.97.04.02.09.04.13.07.32.12.57.51.59.93.23.36.44.75.63,1.18,0,0,0,0,0,0,1.62,3.75-1.11,7.11-3.11,9.56-4.09,5.01-8.34,9.08-12.63,12.07l-.43.3c-1.83,1.3-4.77,3.4-7.21,3.4-.81,0-1.49-.23-2.03-.7-.59-.47-.98-1.09-1.32-1.68,0-.01-.07-.13-.08-.15-2.04-3.35-4.62-6.26-7.63-8.62-1.05-.82-2.46-1.8-3.99-2.09-.09,0-.23-.02-.35-.07-.18-.02-.33-.03-.47-.03-1.47-.07-2.8.61-4.37,1.51-1.93,1.13-3.75,2.38-5.43,3.73,3.05,1.76,5.1,4.32,6.56,6.41,3.23,4.57,5.34,8.7,6.65,12.97.08.24.15.51.22.78.65,2.27,1.16,4.8,1.53,7.72.18,1.4.31,2.79.43,4.19v.24c.01.16.02.38.02.65v.35c.02.54.04,1.46.09,1.98,1.89.95,4.17,2.14,5.91,3.95,1.39,1.44,2.29,3.24,2.58,5.2.45,2.87-.41,5.89-2.36,8.3-2.49,3.06-6,3.95-8.79,4.38-2.41.38-4.7-.28-6.73-.86-4.45-1.28-8.66-3.48-12.17-6.37-1.61-1.34-3.39-2.81-3.52-4.54-.05-.91-.03-1.93,0-2.8l.02-.2c0-.07.01-.15.02-.22l.05-1.12c.04-.96.09-1.91.09-2.71-.06-4.05-.37-8.1-.93-12.05-.11,0-.22,0-.33,0-1.04-.03-1.93-.41-2.54-1.06-2.68,1.75-5.57,3.16-8.59,4.19-3.2,1.11-6.58,2.16-9.63,1.82-2.71-.29-5.9-.71-9.07-1.64-6-1.73-11.42-4.77-15.71-8.81-2.05,1.23-3.92,3.32-5.19,5.79.42,1,1.21,2.13,2.13,2.61,1.66.84,3.29,1.95,5.12,3.49.03,0,.07,0,.11,0,2.46-.19,4.97-.05,7.44.43.87.17,1.94.48,2.58,1.4.64.94.61,2.29-.08,3.29-.47.69-1.2,1.2-2.11,1.48,1.24.91,2.18,1.89,2.83,2.98.91,1.55,1.2,3.32.82,4.87-.38,1.4-1.56,2.91-3.29,2.93-1.2,0-2.15-.57-3-1.07-.21-.13-.41-.25-.62-.36-.1.15-.2.29-.29.43-.14.2-.28.38-.41.57.76,1.25,1.22,2.66,1.35,4.09.13,1.47-.22,2.67-.99,3.46-.93.95-2.46,1.22-3.8.69-1.01-.4-1.9-1.25-2.51-2.4l-.22-.41c-.2-.37-.41-.76-.59-1.17l-.95.21-.43,3.47c-.07.53-.16,1.24-.61,1.87-.5.69-1.4,1.13-2.36,1.13ZM31.38,107.42c-.54,0-1.25.28-1.59.77-.09.13-.24.22-.4.24-9.25.93-17.8,7.11-21.77,15.75-3.93,8.52-3.3,18.97,1.64,27.27,4.53,7.63,12.6,13.22,21.56,14.96.19.04.35.17.42.36.06.18.03.39-.1.54-3.23,3.9-5.99,8.15-8.2,12.63-1.47,2.97-3.14,6.92-3.02,11.08.09,3.57,1.56,7.35,4.25,10.95,1.58,2.1,3.31,4.02,5.12,5.69,2.86,2.67,6.02,4.86,9.12,6.31.27.13.39.45.27.72-.15.35-.16.77-.02,1.1.15.38.5.66.92.75.25.06.43.28.43.54,0,.37-.03.75-.05,1.13l-.03.42c-.03.38-.05.74-.06,1.11-.07,1.32.09,2.36.49,3.18.51,1.08,1.49,1.82,2.5,1.88h.14c.59,0,1.17-.26,1.45-.67.29-.4.36-.92.41-1.37l.48-3.86c.03-.24.21-.43.44-.47l1.78-.4c.28-.06.55.1.64.36.18.51.43.97.7,1.46l.23.42c.49.92,1.18,1.59,1.94,1.9.94.37,1.99.2,2.61-.43.54-.55.77-1.45.68-2.59-.12-1.37-.59-2.72-1.37-3.89-.12-.19-.12-.43,0-.61.2-.29.41-.59.62-.88.16-.24.34-.49.51-.74.16-.22.51-.38.75-.27.35.17.74.39,1.12.62.75.45,1.53.91,2.39.91,1.17-.01,1.99-1.1,2.25-2.1.32-1.26.06-2.73-.7-4.03-.64-1.06-1.6-2.02-2.93-2.93l-.17-.12c-.17-.12-.34-.24-.5-.36-.18-.14-.26-.37-.2-.59.06-.22.25-.38.47-.4.29-.03.56-.06.85-.13.79-.2,1.41-.58,1.78-1.12.43-.63.47-1.47.08-2.04-.4-.58-1.18-.8-1.88-.94-2.37-.46-4.79-.6-7.19-.41-.19.08-.49.07-.64-.07-1.86-1.57-3.49-2.7-5.13-3.53-1.33-.69-2.29-2.22-2.75-3.42-.05-.14-.05-.3.02-.44,1.42-2.88,3.62-5.3,6.04-6.65,0,0,0,0,.01,0,.21-.15.51-.14.71.05,4.2,4.06,9.58,7.12,15.55,8.84,3.09.9,6.22,1.31,8.88,1.6,2.82.31,6.07-.7,9.15-1.77,3.1-1.05,6.05-2.51,8.76-4.34.12-.08.27-.11.42-.08.15.03.27.12.35.24.39.61,1.1.97,1.97.99.22,0,.47-.01.72-.04.3-.03.57.17.61.47.61,4.15.95,8.43,1.02,12.71,0,.82-.04,1.79-.09,2.77l-.09,1.57c-.02.8-.05,1.78,0,2.64.09,1.25,1.68,2.56,3.07,3.72,3.44,2.83,7.51,4.96,11.81,6.2,2.01.58,4.08,1.17,6.25.83,2.59-.4,5.85-1.21,8.1-3.98,1.75-2.16,2.53-4.87,2.13-7.43-.26-1.74-1.05-3.33-2.29-4.6-1.69-1.76-4.01-2.92-5.88-3.86-.15-.08-.26-.22-.3-.39-.08-.45-.11-1.44-.13-2.42v-.36c0-.26-.01-.47-.02-.63v-.22c-.13-1.34-.26-2.71-.43-4.1-.37-2.86-.86-5.34-1.51-7.57-.06-.26-.13-.51-.2-.73-1.27-4.17-3.33-8.2-6.5-12.67-1.51-2.15-3.65-4.82-6.89-6.46-.17-.08-.28-.25-.3-.43-.02-.19.05-.37.19-.49,1.89-1.59,3.98-3.06,6.21-4.36,1.37-.78,3.07-1.75,4.95-1.66.22-.02.46.02.7.05.06,0,.13.03.18.06,0,0,.01,0,.02,0,1.87.33,3.42,1.4,4.57,2.3,3.12,2.44,5.78,5.46,7.92,8.96,0,.02.08.14.09.16.28.49.59.98,1.05,1.35.35.3.78.44,1.32.44,2.08,0,4.96-2.05,6.5-3.15l.5-.36c4.2-2.94,8.38-6.93,12.4-11.87,1.82-2.23,4.3-5.28,2.95-8.42-.19-.43-.4-.81-.64-1.16-.08-.12-.11-.27-.09-.41-.03-.02-.04-.02-.04-.03-.13-.03-.25-.1-.33-.2-1.07-1.35-2.54-2.32-4.14-2.72-5.91-1.46-12.29-.46-17.5,2.75-.21.13-.48.1-.66-.06-2.08-1.85-4.35-3.54-6.75-5.02-1.8-1.13-3.63-2.13-5.42-2.97-2.54-1.2-5.87-2.52-9.26-2.07-2.8.37-5.33,1.92-7.43,3.38-3.15,2.19-7.19,5.17-10.56,8.83-.02.02-.05.05-.07.07,0,0,0,0,0,0-.15.15-.23.24-.31.33-.12.13-.29.2-.46.19-1.46-.12-2.99-.46-4.83-1.09-.13-.04-.23-.13-.3-.24-.09-.12-.13-.28-.1-.43.54-2.89,1.63-5.61,2.9-8.61l5.26-12.45c.69-1.64,1.32-3.13,1.51-4.88.2-1.85,0-3.8-.61-5.79-.89-2.89-2.47-5.52-4-8.06-.22-.37-.43-.7-.64-1.04-.82-1.37-1.67-2.76-2.52-4.15l-.21-.34c-.92-1.51-1.85-3.01-2.72-4.47-.06-.1-.09-.23-.07-.35.32-2.77.09-5.57-.69-8.33-.68-2.43-1.6-5-3.85-4.81-.91.08-1.59.42-2.08,1.03-.92,1.08-.97,2.73-.92,3.61.01.25-.15.49-.39.56-.27.08-.51.16-.71.2-.27.06-.53-.08-.64-.33-1.45-3.55-3.12-5.16-5.08-4.95-1.03.11-1.86.63-2.28,1.43-.45.84-.42,1.87.08,2.81l.1.21c.25.48.63,1.18.77,1.82.03.15,0,.31-.08.44-.09.13-.22.21-.38.24-.33.05-.82.15-1.31.37-.24.11-.53.03-.68-.19-.58-.83-1.31-1.78-2.27-2.46-1.18-.83-2.57-1.09-3.71-.7-1.32.45-2.15,1.86-1.83,3.08.19.63.66,1.17,1.07,1.64l.23.28c1.02,1.2,1.93,3.02,2.38,4.73.04.15.01.31-.07.44-.08.13-.22.22-.37.25-1.12.19-2.4.48-3.43,1.21-1.12.79-2,2.34-1.51,3.77.34.98,1.85.92,3.36.77l.64-.06c2.03-.17,3.95-.33,6.05.21.68.16,1.2.38,1.59.66,1.1.8,1.69,2.13,2.27,3.43l.19.42c.13.3.27.6.41.87.55,1.05,1.11,2.09,1.67,3.13l.58,1.08s.08.11.12.23l1.19,2.21c.58,1.09,1.18,2.22,1.39,3.45.11.58.12,1.17.03,1.75-.3,1.89-1.61,3.28-2.87,4.62l-.6.61c-1.49,1.62-3.19,3.05-5.06,4.26-.15.09-.33.11-.49.05-.18-.07-.37-.07-.59-.03-.14.03-.3,0-.42-.08-.13-.08-.21-.21-.24-.36-.19-.96-.5-2.16-.73-2.97-.03-.13-.08-.25-.12-.38l-.1-.32c-.05-.17-.02-.35.08-.49.1-.14.27-.22.44-.23,1.5-.02,2.98-.02,4.38,0,.17-2.28-.69-5.44-2.01-7.57-1.79.44-3.51,1.11-5.16,1.99-.25.13-.57.05-.72-.19-1.9-2.97-4.38-5.55-7.16-7.48-1.73-1.2-3.7-2.25-5.83-3.13-.25-.1-.39-.38-.33-.64.37-1.51.7-2.91.93-4.02-3.09-1.48-7.38-1.16-10.68.75-.13.41-.2.76-.26,1.12l-.03.15c-.05.26-.27.44-.53.45-1.02.02-1.9.09-2.68.21-.22.04-.43-.06-.55-.24-.32-.48-.83-.79-1.37-.81-.03,0-.06,0-.09,0ZM151.65,146.98h0,0Z" />
    <path class="cls-6"
      d="M60.98,169.42c.88,1.39.51,2.95-.13,3.94-.66,1.01-1.94,2-3.6,1.76-1.27-.19-2.39-1.14-2.8-2.34-.58-1.65.26-3.65,1.84-4.49,1.46-.77,3.62-.54,4.69,1.12Z" />
    <path class="cls-1"
      d="M63.37,131.97c-.14-1.04-.62-2.82-.82-3.57-1.52-5.69-5.21-10.89-10.11-14.28-5.75-3.97-13.19-5.91-19.03-5-.03.1-.1.16-.18.22-.34.24-.66.46-.98.71-7.37,5.37-12.59,10.93-15.57,16.53-4.1,7.69-4.1,17.18,0,24.18,4.37,7.45,13.33,11.62,21.32,9.89,4.04-.88,8.01-3.14,12.14-6.94,7.13-6.5,11.26-12.67,12.83-19.16.19-.79.35-1.57.46-2.36-.05-.06-.08-.14-.08-.22ZM60.05,125.07s-.03.02-.05.05c-.5.32-.96.72-1.46,1.14-.32.29-.66.56-.99.83.96.96,1.79,2.26,2.36,3.65.06.18.05.38-.05.54-.11.16-.27.27-.46.29-3.03.22-6.09,1.23-8.49,2.13.14,4.84-.53,9.9-2.11,15.86-.08.3-.37.5-.69.43-2.4-.42-4.65-1.47-6.17-2.34-4.23,1.63-8.4,2.79-12.82,4.01l-.32.1s-.1.02-.16.02c-.13,0-.26-.05-.35-.13-.16-.11-.24-.29-.24-.46-.05-5.51.66-11.46,2.02-17.22-1.94-1.36-3.6-3.03-4.98-4.95-.13-.19-.14-.45-.02-.66.11-.21.35-.32.58-.29.5.05,1.01.06,1.52.08.7.03,1.41.05,2.11.16v-.03c-.21-1.2-.4-2.32-.82-3.4-.06-.18-.05-.37.05-.53.11-.18.29-.27.48-.29,2.52-.13,4.9.14,6.92.8.88-4.58,3.62-8.09,5.83-10.27.16-.14.38-.21.59-.14.21.06.37.24.42.46.38,1.91,1.04,3.64,1.73,5.43,2.18-1.15,4.79-2.11,7.42-2.72.22-.06.45.02.61.19.14.18.18.42.08.62-.5,1.11-.79,2.19-1.07,3.52,2.9.3,5.62,1.11,7.79,1.83.22.06.43.14.62.21.22.08.38.27.4.5.03.22-.08.45-.27.58Z" />
    <path class="cls-5"
      d="M66.03,133.95v.02s-.08.11-.11.18c-.19.62-.4,1.23-.62,1.84-2.21,6.18-5.75,11.9-10.33,16.63-3.67,3.78-8.68,8.36-14.87,10.16-5.4,1.55-10.94.82-16.45-2.2-6.38-3.48-11.3-10.17-12.22-16.65-.95-6.5.62-13.62,4.39-20.04,2.82-4.82,6.92-9.34,12.16-13.44.61-.46,1.23-.95,1.87-1.41.14-.03.29-.13.37-.27,0-.02.02-.02.02-.02.1-.08.18-.18.21-.29,0,0,.02,0,.02-.02.24-.22.62-.37.96-.37h.05c.3.02.64.19.82.46-.74.53-1.46,1.07-2.16,1.62-6.76,5.16-11.63,10.49-14.48,15.88-4.29,8.04-4.28,17.99.02,25.35,3.93,6.68,11.36,10.86,18.7,10.86,1.31,0,2.63-.13,3.93-.42,4.25-.91,8.41-3.28,12.71-7.21,7.21-6.6,11.44-12.88,13.12-19.5.22-.93.42-1.87.54-2.82.27-.06.48.03.88.43.26.26.54.77.51,1.22Z" />
    <path class="cls-6"
      d="M66.8,137.74c-.34,2.21-1.84,5.51-4.39,9.61-2.4,3.86-5.42,7.26-8.96,10.06-5.78,4.61-13.44,9.76-21.18,8.59-9.37-1.43-17.77-7-22.46-14.88-3.03-5.09-4.39-11.01-4.05-16.77.21-3.43,1.03-6.79,2.45-9.9,3.59-7.79,10.93-13.49,19.11-15.04-.72.56-1.41,1.12-2.08,1.71-4.44,3.75-7.95,7.83-10.48,12.16-3.91,6.65-5.51,14.05-4.53,20.83.99,6.94,6.04,13.81,12.83,17.53,3.83,2.08,7.67,3.12,11.49,3.12,1.97,0,3.93-.27,5.88-.83,6.46-1.86,11.62-6.59,15.4-10.48,4.55-4.69,8.12-10.37,10.4-16.49.16-.42.3-.82.45-1.23.21.51.26,1.19.13,2.02Z" />
    <path class="cls-5"
      d="M126.22,213.94c-.08.26-.18.5-.27.75-.34.8-.8,1.59-1.39,2.31-2.1,2.6-5.08,3.36-7.71,3.77-2.02.3-4.02-.26-5.96-.82-4.21-1.2-8.2-3.3-11.55-6.06-1.19-.96-2.8-2.29-2.87-3.3-.03-.45-.03-.95-.02-1.49,5.75,4.76,12.59,8.16,19.87,9.89.42.1.88.14,1.35.14,1.95,0,4.2-.88,6.2-2.5.82-.66,1.52-1.44,2.1-2.31.1-.13.18-.26.26-.38Z" />
    <path class="cls-5"
      d="M152.02,151.01c-.26,2-1.84,3.94-3.17,5.59-3.96,4.85-8.09,8.8-12.26,11.73l-.45.3c-1.52,1.11-5.59,4.01-7.1,2.79-.22-.18-.42-.42-.61-.71,9.53-4.45,17.67-12.18,22.62-21.47.16-.27.3-.54.45-.83.08.13.14.27.21.42.32.74.4,1.46.3,2.18Z" />
    <path class="cls-6"
      d="M150.75,147.23c-.19.38-.37.75-.58,1.12-4.84,9.26-12.91,16.97-22.38,21.32-2.07-3.36-4.69-6.3-7.82-8.73-.96-.75-2.15-1.57-3.48-2.07,4.26-3,6.71-9.64,6.67-14.28,0-.54-.05-1.06-.13-1.55,2.03,1.36,3.96,2.85,5.78,4.49.05.05.11.08.18.1l.02.02c.26.5.53,1.19.71,1.91.08.29.13.59.16.88.13,1.15-.1,2.15-.13,2.34.11-.19.59-1.09.72-2.34.06-.46.06-.95.02-1.43-.06-.64-.21-1.27-.38-1.76,5.05-3.03,11.14-3.97,16.81-2.56,1.51.37,2.88,1.3,3.85,2.55Z" />
    <path class="cls-6"
      d="M126.48,209.79v.02c-.13.83-.35,1.63-.7,2.4-.59,1.35-1.51,2.56-2.66,3.49-.82.66-3.73,2.79-6.52,2.12-7.4-1.75-14.34-5.3-20.11-10.24.02-.32.03-.62.05-.95.06-1.06.11-2.1.11-2.96-.05-3.77-.32-7.55-.82-11.26,2.13.83,4.47,1.25,6.79,1.25,1.7,0,3.4-.22,5.01-.67,2.98-.82,5.64-2.39,7.59-4.45.42-.42.79-.83,1.12-1.28.46,1.87.85,3.94,1.14,6.25.18,1.36.32,2.74.43,4.12.02.1.02.38.02.74.02,1.17.05,1.94.1,2.47-.08-.02-.13-.02-.14.02-.16.27-.37.58-.64.91-.91,1.2-2.42,2.64-4.13,3.43-1.06.53-2.13.82-2.92.96-.79.14-1.3.16-1.3.16,0,0,.5.06,1.31.03.82-.05,1.95-.19,3.12-.61,1.75-.54,3.44-1.76,4.55-2.95.26-.26.48-.51.66-.77,2.1,1.06,4.25,2.15,5.88,3.83,1.09,1.12,1.78,2.5,2.05,3.96Z" />
    <path class="cls-6"
      d="M55.26,203.18c-1.03-.82-1.99-1.68-2.93-2.52-.35-.32-.71-.62-1.07-.96,2.03-.08,4.1.08,6.12.48.59.11,1.19.27,1.46.67.24.34.21.88-.08,1.3-.27.4-.77.71-1.39.85-.61.14-1.28.14-1.94.14-.05,0-.11,0-.16.03Z" />
    <path class="cls-6"
      d="M53.74,219.21c.06.67.03,1.57-.5,2.1-.43.43-1.22.56-1.89.29-.62-.26-1.2-.83-1.6-1.6l-.24-.43c-.34-.61-.64-1.17-.82-1.83-.06-.3-.38-.51-.69-.45-.48.1-.93.21-1.39.32-.45.1-.9.21-1.36.29-.24.05-.43.26-.46.51l-.53,4.29c-.05.37-.11.79-.29,1.06-.21.27-.61.43-1.04.4-.79-.05-1.55-.64-1.97-1.51-.34-.74-.48-1.63-.42-2.88.02-.37.03-.72.06-1.09.05-.72.11-1.46.06-2.21-.02-.18-.1-.34-.22-.43-.14-.11-.32-.16-.48-.13-.27.05-.59-.11-.69-.37-.11-.26-.02-.69.18-.83.08-.06.14-.13.18-.21.78-.14,1.76-.48,2.53-.98,1.04-.62,1.68-1.39,1.68-1.39,0,0-.83.54-1.94.85-1.09.35-2.37.4-3.06.4-.02,0-.02.02-.03.05-2.88-1.31-5.77-3.27-8.44-5.67,5.35-2.84,9.97-6.95,13.36-11.97.16.11.32.22.5.3,2.79,1.44,4.98,3.4,7.31,5.46,1.62,1.43,3.27,2.9,5.16,4.2,1.25.87,2.15,1.76,2.72,2.76.67,1.14.91,2.44.62,3.52-.21.78-.83,1.62-1.6,1.62-.66.06-1.35-.4-2.08-.83-.54-.32-1.11-.66-1.73-.85-.24-.06-.5.02-.66.22-.29.37-.58.8-.87,1.22-.29.42-.56.82-.85,1.19-.14.21-.16.51,0,.72.85,1.12,1.36,2.5,1.49,3.89Z" />
    <path class="cls-6"
      d="M86.55,106c-.3-.08-.62-.14-.96-.18-2.16-.34-4.63,0-7,.99-3.16,1.31-5.69,3.6-7.1,6.39-.58-1.07-1.17-2.15-1.73-3.24-.21-.4-.38-.83-.58-1.27-.59-1.3-1.23-2.77-2.47-3.67-.59-.43-1.25-.62-1.83-.79-2.18-.54-4.17-.38-6.26-.22l-.59.05c-.26.03-.66.08-1.07.08-.74.03-1.54-.03-1.67-.42-.38-1.12.35-2.37,1.27-3.03,1.06-.75,2.44-.99,3.75-1.19t.02,0s.08.03.11.02c.56-.35,1.33-.72,2.24-1.04,1.55-.56,3.51-.98,5.34-.85,1.43.05,2.72.35,3.64.66.45.16.82.29,1.06.42-.02.59.06,1.12.18,1.49.16-.54.38-1.35.71-2.07.32-.74.74-1.38.98-1.75l.16-.26.18-.22c.26-.37.69-.99,1.25-1.57.54-.58,1.2-1.07,1.65-1.43-.56.03-1.43.3-2.18.77-.77.46-1.39,1.09-1.7,1.51l-.19.27-.18.29c-.27.43-.64,1.25-.77,2.13-.05.26-.08.51-.08.77-.24-.14-.58-.34-.99-.53-.88-.4-2.18-.88-3.65-1.07-1.47-.22-3.12-.19-4.6.11-.66.13-1.27.3-1.83.5-.35.13-.67.26-.96.4-.5-1.78-1.46-3.69-2.5-4.92l-.26-.29c-.4-.46-.79-.9-.91-1.39-.24-.88.42-1.95,1.41-2.29.93-.32,2.1-.1,3.12.62.77.54,1.39,1.3,1.92,2.05h.02c.13.18.24.37.37.54-.3.27-.58.56-.72.8.4-.11.95-.27,1.49-.43.61-.18,1.22-.35,1.57-.45l.21-.08.21-.06s.03-.02.06-.02c.03-.02.08-.02.11-.02.14,0,.27-.06.37-.16l.02-.02c.75-.26,1.81-.64,2.44-.88-.4-.16-1.06-.26-1.7-.26-.21,0-.42,0-.61.02-.05-.22-.11-.45-.21-.67-.08-.29-.21-.56-.34-.82-.11-.22-.22-.45-.32-.64l-.1-.16c-.4-.77-.42-1.59-.08-2.23.34-.61.96-.99,1.78-1.09,1.62-.18,3.22,1.49,4.58,4.98-.06.03-.14.08-.21.13-.38.22-.72.45-.95.67.79.05,2.28-.13,2.88-.26l.19-.05.19-.03c.61-.16,2.03-.66,2.71-1.04-.37-.13-.96-.19-1.52-.21-.16-.02-.32-.02-.46-.02-.08-.93-.06-2.53.74-3.49.4-.48.95-.74,1.67-.8,1.78-.11,2.55,2.16,3.19,4.45.74,2.64.95,5.46.61,8.16-.02.13.02.26.08.38.99,1.62,2.02,3.3,3.04,5,.59.96,1.19,1.92,1.78,2.88Z" />
    <path class="cls-2"
      d="M85.17,167.67s.05-.02.08,0c3.93-2.52,9.08-4.95,15.19-3.28.58.16,1.12.34,1.63.54,0-.02.03-.05.05-.06,2.08-1.76,4.34-3.36,6.71-4.74,1.6-.91,3.32-1.75,5.26-1.75.27,0,.54.03.82.06,4.79-2.53,7.5-10.29,6.99-14.77-.05-.59-.18-1.14-.35-1.59-1.63-1.01-3.33-1.92-5.08-2.76-2.45-1.15-5.69-2.42-8.89-1.99-2.66.35-5.11,1.84-7.15,3.25-3.46,2.42-7.42,5.37-10.75,9.05-.08.11-.18.21-.29.32-.7.83-1.67,1.92-2.45,2.95-.32.38-.61.77-.85,1.11-.5.64-.85,1.15-.98,1.33.11-.27.61-1.46,1.31-2.77.3-.58.66-1.17,1.03-1.75.16-.26.32-.51.48-.75-1.46-.18-3.04-.58-4.89-1.25-.08-.03-.16-.08-.21-.14-1.52-.61-3.59-1.89-5.06-3.36-.32-.3-.61-.61-.87-.91-1.03-1.14-1.67-2.18-1.83-2.45.3.35,1.44,1.71,3.08,2.92,1.43,1.11,3.24,2,4.65,2.55.58-2.98,1.76-5.8,2.92-8.54l5.26-12.46c.21-.5.42-.98.59-1.46.42-1.06.74-2.08.87-3.24.21-1.75,0-3.6-.58-5.51-.87-2.84-2.44-5.45-3.96-7.96-.13-.22-.27-.45-.42-.67l-.02-.02c-.3-.13-.64-.26-.98-.34-2.15-.62-4.85-.38-7.43.71-3.19,1.33-5.67,3.72-6.84,6.62l.95,1.78c.64,1.19,1.3,2.44,1.59,3.75.03,0,.05.02.06.03.4,1.23.69,3.54.5,5.5-.14,1.95-.66,3.49-.66,3.49,0,0,.21-1.6.06-3.49-.02-.19-.03-.4-.06-.59-.05-.5-.11-1.01-.21-1.49-.58,1.46-1.65,2.58-2.71,3.7l-.53.58c-1.44,1.57-3.08,2.95-4.82,4.12.59.59.99,1.57.8,2.45.56.58.85,1.36.87,2.37.05,2.47-1.49,6.23-4.61,11.26-2.48,3.97-5.59,7.47-9.23,10.37-5.38,4.28-12.34,9-19.64,9-.83,0-1.65-.05-2.48-.18h-.02s-.05.1-.08.13c-3.33,3.94-6.17,8.28-8.46,12.9-1.43,2.92-3.06,6.76-2.95,10.78.13,4.36,2.31,8.16,4.12,10.57,1.44,1.91,3.03,3.7,4.73,5.32,5.38-2.77,10.03-6.87,13.41-11.9-.67-.69-1.17-1.52-1.51-2.27-1.25.11-3.27-.24-4.73-1.09-1.43-.74-2.34-1.75-2.53-1.99.26.19,1.33.98,2.77,1.44,1.47.51,3.2.56,4.31.45,1.43-2.95,3.67-5.48,6.14-6.95-.59-.69-1.25-1.62-1.7-2.52-.66-1.27-.95-2.4-.95-2.4,0,0,.58,1.03,1.44,2.07.75.95,1.75,1.84,2.42,2.44h.02c.06.03.13.08.19.13,4.18,4.15,9.58,7.26,15.59,8.99,3.03.88,6.14,1.3,8.76,1.59,2.88.3,6.49-.91,8.86-1.73,3.28-1.14,6.36-2.69,9.16-4.65.43-.53,1.06-1.33,1.49-2.15.5-.93.75-1.81.75-1.81,0,0,.05.91-.19,2.02-.18.88-.59,1.84-1.01,2.48.26.58.91.85,1.54.87.18.02.35,0,.54-.05,1.07-.67,2.61-2.13,3.4-3.86.43-.9.66-1.79.77-2.47.11-.67.11-1.11.11-1.11,0,0,.08.42.08,1.12s-.08,1.65-.4,2.66c-.45,1.6-1.57,3.17-2.63,4.13.05.27.08.54.11.83.11-.03.22-.02.34.03,3.49,1.43,7.63,1.67,11.33.64,3.01-.83,5.69-2.48,7.53-4.63v-.02c.43-.46.79-.95,1.11-1.44-.05-.16-.1-.32-.14-.48-1.23-4.07-3.27-8.04-6.39-12.45-2.9-4.12-5.67-6.3-9.28-7.27-4.66-1.27-9.24-.18-14.85,3.54-.06.05-.13.08-.21.1-1.19.77-2.82,1.91-4.15,3.06-.54.46-1.04.91-1.46,1.31l-.03.03c-.69.66-1.19,1.19-1.35,1.36.21-.32,1.12-1.7,2.42-3.14,1.44-1.67,3.43-3.35,4.66-4.13ZM61.86,174.02c-.96,1.49-2.48,2.34-4.1,2.34-.24,0-.46-.02-.69-.05-1.7-.26-3.2-1.52-3.77-3.12-.75-2.19.34-4.85,2.42-5.94.74-.38,1.52-.56,2.29-.56,1.59,0,3.11.75,3.97,2.1,1.01,1.55.96,3.57-.13,5.24Z" />
    <path class="cls-4"
      d="M32.76,111.38c-1.91,1.05-3.15,2.72-2.66,5.15,1.14,5.69,12.89,8.67,17.59,8.93,2.64.15,7.11-.68,7.68-3.95.29-1.67-.85-3.22-2.03-4.42-3.05-3.1-7.17-5.77-11.4-6.87-2.3-.59-6.43-.37-9.18,1.15Z" />
    <path class="cls-4"
      d="M27.32,109.4c-.72.56-1.41,1.12-2.08,1.71-5,1.51-9.48,4.61-12.83,8.64-3.7,4.45-5.13,9.31-6.65,14.6.21-3.43,1.03-6.79,2.45-9.9,3.59-7.79,10.93-13.49,19.11-15.04Z" />
    <path class="cls-4"
      d="M32.27,108.53c-.74.53-1.46,1.07-2.16,1.62-.72.06-1.44.16-2.15.29.61-.46,1.23-.95,1.87-1.41.14-.03.29-.13.37-.27,0-.02.02-.02.02-.02.1-.08.18-.18.21-.29,0,0,.02,0,.02-.02.24-.22.62-.37.96-.37h.05c.3.02.64.19.82.46Z" />
    <path class="cls-4"
      d="M63.37,131.97c0,.08.03.16.08.22-.11.79-.27,1.57-.46,2.36-.37-.16-.74-.27-1.12-.37.21-3.12-.5-6.25-1.86-9.07-.22-.45-.45-.9-.71-1.33-.87-1.52-1.91-2.93-3.11-4.2-3.7-3.91-8.64-6.47-13.78-8.01-3.28-.98-6.73-1.57-10.16-1.52.32-.24.64-.46.98-.71.08-.06.14-.13.18-.22,5.85-.91,13.28,1.03,19.03,5,4.9,3.38,8.59,8.59,10.11,14.28.19.75.67,2.53.82,3.57Z" />
    <path class="cls-4"
      d="M65.51,132.73c.26.26.54.77.51,1.22v.02s-.08.11-.11.18c-.19.62-.4,1.23-.62,1.84-.37-.32-.77-.62-1.2-.87.22-.93.42-1.87.54-2.82.27-.06.48.03.88.43Z" />
    <path class="cls-4" d="M66.67,135.72c.21.51.26,1.19.13,2.02-.16-.27-.35-.53-.58-.79.16-.42.3-.82.45-1.23Z" />
    <path class="cls-4"
      d="M74.65,125.01c-.42,1.04-1.15,1.99-1.83,2.92-1.95,2.72-3.57,5.69-4.77,8.81-.02-1.01-.3-1.79-.87-2.37.19-.88-.21-1.86-.8-2.45,1.75-1.17,3.38-2.55,4.82-4.12l.53-.58c1.06-1.12,2.13-2.24,2.71-3.7.1.48.16.99.21,1.49Z" />
    <path class="cls-4"
      d="M57.01,91.47c-.24-.88.42-1.95,1.41-2.29.93-.32,2.1-.1,3.12.62.77.54,1.39,1.3,1.92,2.05-.35-.06-.69-.18-1.03-.32-.72-.32-1.39-.8-2.16-.95-.79-.13-1.76.26-1.86,1.04-.06.46.18.9.42,1.3.88,1.44,1.6,3.46,2.8,4.74-.35.13-.67.26-.96.4-.5-1.78-1.46-3.69-2.5-4.92l-.26-.29c-.4-.46-.79-.9-.91-1.39Z" />
    <path class="cls-4"
      d="M62.54,98.29c.52-.33,1.07-.64,1.69-.82,1.42-.41,3.01-.4,4.33.28-3.53.19-7.26,1.52-10.33,3.25-1.33.74-2.4,1.7-1.27,3.17-.74.03-1.54-.03-1.67-.42-.38-1.12.35-2.37,1.27-3.03,1.2-.86,2.53-.68,3.81-1.17.78-.3,1.46-.8,2.17-1.26Z" />
    <path class="cls-4" d="M67.95,90.8s-.03.03-.05.03c-.21,0-.42,0-.61.02-.05-.22-.11-.45-.21-.67.21.3.5.53.87.62Z" />
    <path class="cls-4"
      d="M72.61,90.22c-.06.03-.14.08-.21.13-.16-1.15-.67-2.28-1.59-2.96-1.07-.79-2.74-.8-3.64.18-.43.48-.56,1.17-.43,1.79-.11-.22-.22-.45-.32-.64l-.1-.16c-.4-.77-.42-1.59-.08-2.23.34-.61.96-.99,1.78-1.09,1.62-.18,3.22,1.49,4.58,4.98Z" />
    <path class="cls-4"
      d="M86.55,106c-.3-.08-.62-.14-.96-.18-.62-.96-1.28-1.91-1.95-2.84-1.47-2.02-2.93-3.57-3.11-6.14-.1-1.59.82-12.05-3.68-9.81-.82.42-.98,1.44-.93,2.39-.16-.02-.32-.02-.46-.02-.08-.93-.06-2.53.74-3.49.4-.48.95-.74,1.67-.8,1.78-.11,2.55,2.16,3.19,4.45.74,2.64.95,5.46.61,8.16-.02.13.02.26.08.38.99,1.62,2.02,3.3,3.04,5,.59.96,1.19,1.92,1.78,2.88Z" />
    <path class="cls-4"
      d="M92.43,121.72c-.13,1.15-.45,2.18-.87,3.24.46-4.57-.72-9.26-2.71-13.44-.71-1.47-1.51-2.9-2.37-4.29.34.08.67.21.98.34l.02.02c.14.22.29.45.42.67,1.52,2.52,3.09,5.13,3.96,7.96.58,1.91.78,3.76.58,5.51Z" />
    <path class="cls-4"
      d="M72.76,99.82c2.04-2.04,4.14-4.18,5.08-6.91-1.42.6-2.88,1.6-3.79,2.86-.38.52-.68,1.11-.9,1.71-.15.4-.23,2.18-.39,2.33Z" />
    <path class="cls-4"
      d="M87.45,150.83c-4.57-.24-8.35-2.95-10.88-6.65.11.06.22.14.34.22.26.3.54.61.87.91,1.47,1.47,3.54,2.76,5.06,3.36.05.06.13.11.21.14,1.84.67,3.43,1.07,4.89,1.25-.16.24-.32.5-.48.75Z" />
    <path class="cls-4"
      d="M121.54,142.08c.18.45.3.99.35,1.59-2.93-2.08-6.1-3.67-9.65-4.15-5.18-.7-10.43,1.14-14.79,4.02-4.31,2.85-7.88,6.68-11.38,10.48.24-.34.53-.72.85-1.11.78-1.03,1.75-2.11,2.45-2.95.11-.11.21-.21.29-.32,3.33-3.68,7.29-6.63,10.75-9.05,2.03-1.41,4.49-2.9,7.15-3.25,3.2-.43,6.44.83,8.89,1.99,1.75.83,3.44,1.75,5.08,2.76Z" />
    <path class="cls-4"
      d="M129.01,147.64c.26.5.53,1.19.71,1.91-.16.13-.32.27-.48.4-1.94-1.83-3.94-3.7-6.07-5.35,0-.54-.05-1.06-.13-1.55,2.03,1.36,3.96,2.85,5.78,4.49.05.05.11.08.18.1l.02.02Z" />
    <path class="cls-4"
      d="M150.75,147.23c-.19.38-.37.75-.58,1.12-.93-.77-2.07-1.31-3.24-1.71-5.43-1.89-11.76-.95-16.45,2.37-.06-.64-.21-1.27-.38-1.76,5.05-3.03,11.14-3.97,16.81-2.56,1.51.37,2.88,1.3,3.85,2.55Z" />
    <path class="cls-4"
      d="M152.02,151.01c-.21-.64-.54-1.25-.96-1.76.16-.27.3-.54.45-.83.08.13.14.27.21.42.32.74.4,1.46.3,2.18Z" />
    <path class="cls-4"
      d="M115.95,185.74c-.32.5-.67.98-1.11,1.44-.91-3-2.07-5.9-3.48-8.7-1.46-2.95-3.24-5.8-5.64-8.04-2.4-2.26-5.51-3.86-8.81-3.99-2.88-.11-5.67.9-8.28,2.13-3.75,1.78-7.26,4.05-10.43,6.75.4-.58.82-1.15,1.23-1.75l.03-.03c.42-.4.91-.85,1.46-1.31,1.33-1.15,2.96-2.29,4.15-3.06.08-.02.14-.05.21-.1,5.61-3.72,10.19-4.81,14.85-3.54,3.6.98,6.38,3.16,9.28,7.27,3.12,4.41,5.16,8.38,6.39,12.45.05.16.1.32.14.48Z" />
    <path class="cls-4"
      d="M117.89,200.84c-.16.27-.37.58-.64.91-.13-4.47-.82-8.92-2.02-13.22.42-.42.79-.83,1.12-1.28.46,1.87.85,3.94,1.14,6.25.18,1.36.32,2.74.43,4.12.02.1.02.38.02.74.02,1.17.05,1.94.1,2.47-.08-.02-.13-.02-.14.02Z" />
    <path class="cls-4" d="M125.96,214.33c.1-.13.18-.26.26-.38-.08.26-.18.5-.27.75.02-.11.02-.24.02-.37Z" />
    <path class="cls-4"
      d="M126.48,209.79v.02c-.13.83-.35,1.63-.7,2.4-.18-1.03-.48-2.02-.91-2.96-1.33-2.9-3.97-5.32-6.97-6.47.26-.26.48-.51.66-.77,2.1,1.06,4.25,2.15,5.88,3.83,1.09,1.12,1.78,2.5,2.05,3.96Z" />
    <path class="cls-4"
      d="M40.51,190.17c-.35.37-.72.77-.82,1.26-.15.69.23,1.38.61,1.98,1.75,2.73,3.51,4.42,6.11,6.32,2.73,2,5.47,4,8.2,6.01,1.38,1.01,2.8,2.06,3.67,3.54.5.85,1.31,3.27.41,4.12-.4.37-1.08.38-1.49.02,1.01.93,2.83.37,3.47-.84.64-1.21.31-2.75-.44-3.9-.76-1.15-1.88-1.99-2.94-2.85-1.36-1.09-2.66-2.25-3.91-3.45-1.07-1.03-2.03-2.39-3.25-3.23-2.41-1.65-5.08-2.93-7.2-5.02-.93-.92-1.58-2.34-1.03-3.52.46-.98,1.57-1.62,2.28-2.4.95-1.04,1.96-2.11,2.9-3.18-2.57.39-4.85,3.36-6.56,5.14Z" />
    <path class="cls-3"
      d="M50.74,123.1c2.82.22,5.51.96,7.71,1.67-.22.19-.46.38-.67.58-.51.45-.99.85-1.51,1.19-.16.1-.27.27-.27.46-.02.19.06.38.21.5.88.72,1.67,1.78,2.26,2.96-3.06.37-6.07,1.39-8.4,2.28-.24.1-.4.32-.38.59.19,4.71-.42,9.61-1.92,15.4-2.16-.48-4.15-1.46-5.48-2.24-.16-.08-.35-.1-.51-.03-4.13,1.6-8.22,2.76-12.53,3.94.03-5.32.74-11.01,2.08-16.53.05-.26-.05-.51-.26-.64-1.6-1.09-3.01-2.37-4.23-3.86h.29c.93.03,1.89.06,2.71.32.21.06.43.02.59-.13.14-.14.22-.35.19-.56l-.18-.91c-.16-.93-.32-1.89-.59-2.84,2.36-.03,4.52.3,6.31.99.16.06.35.05.51-.05.16-.08.27-.24.29-.43.59-4.07,2.84-7.32,4.85-9.5.45,1.71,1.06,3.28,1.7,4.93l.1.24c.05.16.19.29.35.35s.34.05.5-.05c1.87-1.06,4.21-2,6.58-2.66-.4,1.17-.64,2.31-.85,3.32-.03.18.02.35.11.48.11.14.26.22.43.24Z" />
    <path class="cls-3" d="M151.79,146.47c.24.1.38.37.34.62-.13-.22-.29-.46-.48-.67.05,0,.1.02.14.05Z" />
    <path class="cls-3"
      d="M151.65,146.43c.19.21.35.45.48.67,0,.06-.02.13-.05.18-.18.38-.37.77-.58,1.14-.21-.42-.45-.82-.75-1.19.08-.16.16-.32.24-.48.13-.24.4-.37.66-.32Z" />
    <path class="cls-3"
      d="M130.47,150.43c-.13,1.25-.61,2.15-.72,2.34.03-.19.26-1.19.13-2.34-.1-1.03-.51-2.08-.87-2.79.18.06.37.05.53-.06.18-.11.37-.22.56-.34.32.88.53,2.13.37,3.19Z" />
    <path class="cls-3"
      d="M128.06,170.11c-.08-.14-.18-.29-.27-.43,9.85-4.53,18.18-12.69,22.96-22.45.3.37.54.77.75,1.19-4.92,9.66-13.25,17.72-23.07,22.3-.11-.18-.24-.38-.37-.61Z" />
    <path class="cls-3"
      d="M129.78,146.57c.11.18.22.42.32.67-.19.11-.38.22-.56.34-.16.11-.35.13-.53.06l-.02-.02c-.1-.18-.18-.32-.26-.45-.06-.11.96-.74,1.04-.61Z" />
    <path class="cls-3"
      d="M127.79,169.67c.1.14.19.29.27.43.13.22.26.43.37.61-.19.1-.38.19-.58.27-.08.03-.16.05-.24.05-.24,0-.45-.13-.56-.35-.13-.3,0-.66.3-.8.14-.06.29-.13.43-.21Z" />
    <path class="cls-3"
      d="M126.22,213.94c.43-1.36.53-2.79.26-4.13v-.02c.06-.32.35-.53.69-.48.29.05.51.3.51.59v.08c-.21,1.41-.71,2.76-1.46,3.96Z" />
    <path class="cls-3"
      d="M152.82,148.35c1.49,3.44-1.12,6.65-3.03,8.99-4.05,4.97-8.25,8.99-12.51,11.97l-.43.3c-1.62,1.15-4.6,3.3-6.89,3.3-.62,0-1.2-.16-1.67-.56-.54-.43-.9-1.01-1.2-1.54-.02-.03-.05-.08-.06-.11l.03-.02c.11.22.32.35.56.35.08,0,.16-.02.24-.05.19-.08.38-.18.58-.27.19.29.38.53.61.7,1.51,1.22,5.58-1.68,7.1-2.79l.45-.3c4.17-2.93,8.3-6.87,12.26-11.73,1.81-2.24,4.07-5,2.87-7.77-.06-.14-.13-.29-.21-.42.21-.37.4-.75.58-1.14.03-.05.05-.11.05-.18.27.4.5.82.69,1.25Z" />
    <path class="cls-3"
      d="M128.82,147.53c-1.83-1.63-3.75-3.12-5.78-4.49-.08-.54-.21-1.04-.38-1.47-.05-.11-.13-.21-.22-.27l.03-.05c2.4,1.49,4.69,3.19,6.83,5.08,5.35-3.3,11.86-4.33,17.93-2.82,1.73.43,3.32,1.49,4.44,2.92-.26-.05-.53.08-.66.32-.08.16-.16.32-.24.48-.96-1.25-2.34-2.18-3.85-2.55-5.67-1.41-11.76-.46-16.81,2.56-.1-.26-.21-.5-.32-.67-.08-.13-1.11.5-1.04.61.08.13.16.27.26.45-.06-.02-.13-.05-.18-.1Z" />
    <path class="cls-3"
      d="M123.03,143.05c.72,4.57-1.76,12.48-6.54,15.83-.51-.21-1.04-.35-1.59-.43,5.43-2.87,8.17-12.45,6.63-16.36.5.32.99.64,1.49.96Z" />
    <path class="cls-3"
      d="M122.65,141.57c.18.43.3.93.38,1.47-.5-.32-.99-.64-1.49-.96,0-.02-.02-.03-.02-.05-.13-.32.02-.66.34-.79.19-.08.4-.05.56.05.1.06.18.16.22.27Z" />
    <path class="cls-3" d="M118.03,200.82c.3.05.98.5.87.67-.1.16-.21.34-.35.51h-.02c-.27-.14-.42-.32-.5-1.19Z" />
    <path class="cls-3"
      d="M116.49,158.88c1.33.5,2.52,1.31,3.48,2.07,3.12,2.44,5.75,5.37,7.82,8.73-.14.08-.29.14-.43.21-.3.14-.43.5-.3.8l-.03.02c-2.1-3.44-4.69-6.39-7.79-8.81-1.15-.9-2.61-1.89-4.23-2.19.08,0,.18-.02.24-.06.43-.21.85-.46,1.25-.75Z" />
    <path class="cls-3"
      d="M117.92,197.62c-.11-1.38-.26-2.76-.43-4.12-.29-2.31-.67-4.37-1.14-6.25.24-.3.45-.61.66-.93.11-.19.13-.42.03-.61l.13-.03c.66,2.28,1.15,4.79,1.52,7.66.18,1.39.3,2.77.43,4.17,0,.13.02.43.02.83.02.61.03,2.16.13,2.69,2.03,1.03,4.31,2.2,6.02,3.97,1.35,1.39,2.16,3.11,2.44,4.9h-.05c0-.29-.22-.54-.51-.59-.34-.05-.62.16-.69.48-.27-1.46-.96-2.84-2.05-3.96-1.63-1.68-3.78-2.77-5.88-3.83.14-.18.26-.35.35-.51.11-.18-.56-.62-.87-.67-.05-.53-.08-1.3-.1-2.47,0-.35,0-.64-.02-.74Z" />
    <path class="cls-3"
      d="M117.04,185.71c.1.19.08.42-.03.61-.21.32-.42.62-.66.93-.13-.51-.26-1.03-.4-1.51.02-.02.03-.05.05-.06.18-.27.56-.35.83-.19.1.06.16.14.21.22Z" />
    <path class="cls-3"
      d="M114.44,159.36c-.14-.29-.03-.66.27-.8.06-.03.13-.06.19-.11.54.08,1.07.22,1.59.43-.4.29-.82.54-1.25.75-.06.05-.16.06-.24.06-.08-.03-.18-.05-.26-.05-.02,0-.02-.02-.03-.02-.11-.06-.22-.14-.27-.27Z" />
    <path class="cls-3" d="M115.01,159.69h-.03c-.08,0-.16-.02-.22-.05.08,0,.18.02.26.05Z" />
    <path class="cls-3"
      d="M113.11,205.18c2.18-1.01,4.04-3.06,4.77-4.34.02-.03.06-.03.14-.02.08.87.22,1.04.5,1.19h.02c-1.01,1.39-3.08,3.06-5.21,3.72-1.17.42-2.31.56-3.12.61-.82.03-1.31-.03-1.31-.03,0,0,.51-.02,1.3-.16.79-.14,1.86-.43,2.92-.96Z" />
    <path class="cls-3"
      d="M109.43,161.17c-2.16,1.27-4.23,2.71-6.14,4.31-.38-.19-.8-.38-1.22-.54,0-.02.03-.05.05-.06,2.08-1.76,4.34-3.36,6.71-4.74,1.6-.91,3.32-1.75,5.26-1.75.27,0,.54.03.82.06-.06.05-.13.08-.19.11-.3.14-.42.51-.27.8.05.13.16.21.27.27-.21-.03-.43-.05-.64-.05-1.67-.08-3.19.75-4.65,1.59Z" />
    <path class="cls-3"
      d="M102.91,165.8c-.26.21-.62.18-.85-.08-.19-.22-.19-.56.02-.79.42.16.83.35,1.22.54-.13.11-.26.21-.38.32Z" />
    <path class="cls-3"
      d="M96.48,207.58c5.77,4.93,12.71,8.49,20.11,10.24,2.79.67,5.7-1.46,6.52-2.12,1.81-1.46,3.03-3.6,3.36-5.9.27,1.35.18,2.77-.26,4.13-.62,1.03-1.43,1.94-2.36,2.69-2,1.62-4.25,2.5-6.2,2.5-.46,0-.93-.05-1.35-.14-7.27-1.73-14.12-5.13-19.87-9.89,0-.48.02-.99.03-1.52Z" />
    <path class="cls-3"
      d="M98.58,214.84c-1.51-1.25-3.2-2.64-3.32-4.15-.05-.83-.03-1.78,0-2.74.02.13.08.24.19.32.32.29.66.56.99.83-.02.54-.02,1.04.02,1.49.06,1.01,1.68,2.34,2.87,3.3,3.35,2.76,7.34,4.85,11.55,6.06,1.94.56,3.94,1.12,5.96.82,2.63-.4,5.61-1.17,7.71-3.77.77-.95,1.33-1.99,1.67-3.06.75-1.2,1.25-2.55,1.46-3.96v-.08h.05c.42,2.66-.34,5.51-2.24,7.87-2.37,2.92-5.75,3.77-8.44,4.18-2.28.35-4.42-.26-6.49-.85-4.36-1.25-8.51-3.41-11.97-6.26Z" />
    <path class="cls-3"
      d="M95.39,207.42c.22-.24.59-.27.85-.05.08.06.16.14.24.21-.02.53-.03,1.04-.03,1.52-.34-.27-.67-.54-.99-.83-.11-.08-.18-.19-.19-.32.02-.13.02-.24.03-.35.02-.06.05-.13.1-.18Z" />
    <path class="cls-3"
      d="M95.99,191.19c3.49,1.43,7.63,1.67,11.33.64,3.67-1.01,6.81-3.22,8.64-6.09.14.48.27.99.4,1.51-2.03,2.69-5.14,4.76-8.72,5.74-1.62.45-3.32.67-5.01.67-2.32,0-4.66-.42-6.79-1.25-.05-.42-.11-.83-.18-1.25.11-.03.22-.02.34.03Z" />
    <path class="cls-3"
      d="M95.83,192.41c-.1-.03-.21-.06-.3-.11-.3-.13-.45-.48-.32-.79.08-.19.26-.32.45-.35.06.42.13.83.18,1.25Z" />
    <path class="cls-3" d="M95.3,207.6c-.02.11-.02.22-.03.35-.03-.11-.02-.24.03-.35Z" />
    <path class="cls-3"
      d="M95.44,203.69c-.06-4.23-.4-8.49-1.01-12.64l.06-.08s.11.06.14.03c.29-.16.59-.38.9-.67.05.27.08.54.11.83-.19.03-.37.16-.45.35-.13.3.02.66.32.79.1.05.21.08.3.11.5,3.72.77,7.5.82,11.26,0,.87-.05,1.91-.11,2.96-.02.32-.03.62-.05.95-.08-.06-.16-.14-.24-.21-.26-.22-.62-.19-.85.05-.05.05-.08.11-.1.18.02-.34.03-.69.05-1.03.05-1.03.1-2.03.1-2.88Z" />
    <path class="cls-3"
      d="M94.21,189.85c.18-.02.37-.06.56-.11.16-.05.34-.02.48.08.14.08.26.24.27.42,0,.03.02.06.02.1-.3.29-.61.51-.9.67-.03.03-.1,0-.14-.03-.26-.21-.62-.9-.51-.98.06-.03.14-.08.22-.14Z" />
    <path class="cls-3"
      d="M94.77,189.73c-.19.05-.38.1-.56.11,1.07-.67,2.61-2.13,3.4-3.86.43-.9.66-1.79.77-2.47.11-.67.11-1.11.11-1.11,0,0,.08.42.08,1.12s-.08,1.65-.4,2.66c-.45,1.6-1.57,3.17-2.63,4.13,0-.03-.02-.06-.02-.1-.02-.18-.13-.34-.27-.42-.14-.1-.32-.13-.48-.08Z" />
    <path class="cls-3"
      d="M92.06,188.82c.02.08.03.14.06.21-.08.16-.18.29-.27.4-.06.1-1.01-.66-.95-.74.05-.06.11-.13.18-.21.02-.02.03-.02.05-.03.16-.13.38-.14.56-.08.19.08.34.24.37.45Z" />
    <path class="cls-3"
      d="M92.57,186.34c.5-.93.75-1.81.75-1.81,0,0,.05.91-.19,2.02-.18.88-.59,1.84-1.01,2.48-.03-.06-.05-.13-.06-.21-.03-.21-.18-.37-.37-.45-.18-.06-.4-.05-.56.08-.02.02-.03.02-.05.03.43-.53,1.06-1.33,1.49-2.15Z" />
    <path class="cls-3"
      d="M100.43,140.59c-3.46,2.42-7.42,5.37-10.75,9.05.11-.11.21-.24.29-.34.1-.1-.67-.79-.88-.79,3.33-3.62,7.24-6.54,10.65-8.91,2.16-1.51,4.76-3.09,7.67-3.48,3.51-.46,6.95.88,9.56,2.11,1.89.88,3.72,1.89,5.48,3l-.03.05c-.16-.1-.37-.13-.56-.05-.32.13-.46.46-.34.79,0,.02.02.03.02.05-1.63-1.01-3.33-1.92-5.08-2.76-2.45-1.15-5.69-2.42-8.89-1.99-2.66.35-5.11,1.84-7.15,3.25Z" />
    <path class="cls-3"
      d="M89.08,148.53c.21,0,.98.69.88.79-.08.1-.18.22-.29.34-.08.11-.18.21-.29.32-.13.13-.3.19-.48.19-.32-.02-.64-.05-.98-.08.38-.58.75-1.09,1.06-1.46.02-.03.05-.05.06-.08t.03-.02Z" />
    <path class="cls-3"
      d="M88.91,150.16c.18,0,.35-.06.48-.19-.7.83-1.67,1.92-2.45,2.95-.91,1.14-1.63,2.16-1.83,2.44.11-.27.61-1.46,1.31-2.77.45-.83.99-1.73,1.51-2.5.34.03.66.06.98.08Z" />
    <path class="cls-3"
      d="M88.2,106.69c.11.16.13.37.05.56-.13.3-.46.45-.77.32-.3-.51-.62-1.04-.93-1.57.48.11.95.27,1.39.46.11.05.21.13.26.22Z" />
    <path class="cls-3"
      d="M85.25,167.67c3.93-2.52,9.08-4.95,15.19-3.28.58.16,1.12.34,1.63.54-.21.22-.21.56-.02.79.22.26.59.29.85.08.13-.11.26-.21.38-.32,3.24,1.63,5.4,4.21,7.1,6.63,3.2,4.53,5.29,8.6,6.57,12.82.08.24.14.5.21.75l-.13.03c-.05-.08-.11-.16-.21-.22-.27-.16-.66-.08-.83.19-.02.02-.03.05-.05.06-.05-.16-.1-.32-.14-.48-1.23-4.07-3.27-8.04-6.39-12.45-2.9-4.12-5.67-6.3-9.28-7.27-4.66-1.27-9.24-.18-14.85,3.54-.06.05-.13.08-.21.1.29-.19.53-.35.75-.5.16-.1-.32-.9-.58-1.01Z" />
    <path class="cls-3"
      d="M85.25,167.67c.26.11.74.91.58,1.01-.22.14-.46.3-.75.5-.24.05-.5-.05-.62-.26-.19-.29-.11-.66.16-.83.21-.14.42-.27.64-.42Z" />
    <path class="cls-3" d="M83.95,147.84s.03.03.03.05c-.02,0-.03-.02-.05-.02t.02-.03Z" />
    <path class="cls-3"
      d="M92.43,121.72c.21-1.75,0-3.6-.58-5.51-.87-2.84-2.44-5.45-3.96-7.96-.13-.22-.27-.45-.42-.67.3.13.64-.02.77-.32.08-.19.06-.4-.05-.56l.11-.06c.21.34.42.67.61.99,1.55,2.58,3.17,5.26,4.09,8.24.62,2.07.83,4.09.62,6.01-.21,1.86-.87,3.4-1.55,5.03l-5.26,12.45c-1.15,2.72-2.32,5.56-2.87,8.49t-.02-.02c-.34-.1-.72-.24-1.14-.4.58-2.98,1.76-5.8,2.92-8.54l5.26-12.46c.67-1.6,1.27-3.01,1.46-4.69Z" />
    <path class="cls-3"
      d="M83.99,147.88c.08.27-.24,1.14-.43,1.07-.22-.06-.46-.16-.72-.27-.14-.13-.21-.32-.18-.51.05-.26.08-.5.14-.75.42.16.8.3,1.14.4t.02.02s-.02.02-.02.03c.02,0,.03.02.05.02Z" />
    <path class="cls-3"
      d="M83.55,148.96c.19.06.51-.8.43-1.07,1.79.61,3.3.95,4.69,1.06.1-.11.19-.22.3-.32-.3.37-.67.88-1.06,1.46-1.46-.18-3.04-.58-4.89-1.25-.08-.03-.16-.08-.21-.14.26.11.5.21.72.27Z" />
    <path class="cls-3"
      d="M85.08,169.18c-1.19.77-2.82,1.91-4.15,3.06-1.44,1.22-2.56,2.42-2.84,2.71.21-.32,1.12-1.7,2.42-3.14,1.44-1.67,3.43-3.35,4.66-4.13.02-.02.05-.02.08,0-.22.14-.43.27-.64.42-.27.18-.35.54-.16.83.13.21.38.3.62.26Z" />
    <path class="cls-3"
      d="M82.83,148.69c-1.52-.61-3.59-1.89-5.06-3.36-1.54-1.47-2.48-3.01-2.69-3.36.3.35,1.44,1.71,3.08,2.92,1.43,1.11,3.24,2,4.65,2.55-.06.26-.1.5-.14.75-.03.19.03.38.18.51Z" />
    <path class="cls-3"
      d="M74.81,122.22c.13-.74.08-1.46-.06-2.15.03,0,.05.02.06.03.4,1.23.69,3.54.5,5.5-.14,1.95-.66,3.49-.66,3.49,0,0,.21-1.6.06-3.49-.05-.69-.14-1.41-.27-2.08.18-.4.29-.83.37-1.3Z" />
    <path class="cls-3"
      d="M74.81,122.22c-.08.46-.19.9-.37,1.3-.22-1.22-.54-2.34-.79-3.06-.05-.16.85-.46,1.09-.38.14.69.19,1.41.06,2.15Z" />
    <path class="cls-3"
      d="M73.59,98.15c-.32.72-.54,1.52-.71,2.07-.11-.37-.19-.9-.18-1.49h.02c.13.05.22.08.3.11-.06-.05-.16-.1-.27-.16-.02-.02-.03-.02-.05-.02,0-.26.03-.51.08-.77.13-.88.5-1.7.77-2.13l.18-.29.19-.27c.3-.42.93-1.04,1.7-1.51.75-.46,1.62-.74,2.18-.77-.45.35-1.11.85-1.65,1.43-.56.58-.99,1.2-1.25,1.57l-.18.22-.16.26c-.24.37-.66,1.01-.98,1.75Z" />
    <path class="cls-3"
      d="M72.98,90.62c-.16-.06-.29-.18-.35-.34-.02-.02-.02-.05-.02-.06.54-.3,1.11-.54,1.46-.62l.19-.05.21-.03c.22-.06.58-.1.98-.1v.1c.03.26-.11.5-.34.61-.02,0-1.73.66-2.13.5Z" />
    <path class="cls-3" d="M72.76,98.68c.11.06.21.11.27.16-.08-.03-.18-.06-.3-.11h-.02v-.06s.03,0,.05.02Z" />
    <path class="cls-3"
      d="M79.05,107.93c-3.19,1.33-5.67,3.72-6.84,6.62l-.21-.37c-.18-.32-.35-.64-.51-.96,1.41-2.79,3.94-5.08,7.1-6.39,2.72-1.14,5.59-1.43,7.96-.82.3.53.62,1.06.93,1.57l-.02-.02c-2.29-1.01-5.43-.88-8.41.37Z" />
    <path class="cls-3"
      d="M74.34,90.77c-.61.13-2.1.3-2.88.26.26-.26.69-.54,1.15-.8,0,.02,0,.05.02.06.06.16.19.27.35.34.4.16,2.11-.5,2.13-.5.22-.11.37-.35.34-.61v-.1c.69-.02,1.51.06,1.99.22-.67.38-2.1.88-2.71,1.04l-.19.03-.19.05Z" />
    <path class="cls-3"
      d="M71.54,115.17c-.08,0-.14,0-.22-.03-.11-.05-.21-.11-.27-.21,0-.02-.02-.05-.03-.06-.08-.14-.1-.34-.03-.51.14-.38.32-.77.51-1.14.16.32.34.64.51.96l.21.37c-.05.08-.08.16-.11.24-.1.24-.32.38-.56.38Z" />
    <path class="cls-3"
      d="M72.16,117.01l-1.12-2.08c.06.1.16.16.27.21.08.03.14.03.22.03.24,0,.46-.14.56-.38.03-.08.06-.16.11-.24l.95,1.78c.64,1.19,1.3,2.44,1.59,3.75-.24-.08-1.14.22-1.09.38l-.06.02c-.21-1.2-.83-2.34-1.43-3.46Z" />
    <path class="cls-3"
      d="M67.36,91.58c.02-.24-.02-.5-.06-.74.8-.05,1.78.02,2.31.24-.62.24-1.68.62-2.44.88.11-.1.18-.24.19-.38Z" />
    <path class="cls-3"
      d="M65.34,131.16c1.81-1.17,3.49-2.58,4.97-4.18l.56-.58c1.27-1.35,2.48-2.63,2.76-4.36.08-.53.06-1.06-.03-1.57l.06-.02c.24.72.56,1.84.79,3.06-.58,1.46-1.65,2.58-2.71,3.7l-.53.58c-1.44,1.57-3.08,2.95-4.82,4.12t-.02-.03c-.38-.38-.7-.59-1.03-.72Z" />
    <path class="cls-3" d="M66.67,92.16c.13-.05.29-.11.48-.18-.1.1-.22.16-.37.16-.03,0-.08,0-.11.02Z" />
    <path class="cls-3"
      d="M66.67,135.72c-.13-.29-.3-.51-.54-.69-.24-.16-.3-.48-.18-.75.05-.11.08-.21.08-.32v-.02c.14-.19.4-.27.64-.19.27.08.43.32.43.59,0,.05-.02.11-.03.16-.13.42-.26.82-.4,1.22Z" />
    <path class="cls-3"
      d="M66.6,92.18l-.21.06-.21.08c-.35.1-.96.27-1.57.45.05-.02.11-.05.16-.08.43-.29,1.12-.5,1.89-.53-.03,0-.05.02-.06.02Z" />
    <path class="cls-3"
      d="M66.25,91.02c.24-.08.61-.14,1.04-.18.05.24.08.5.06.74-.02.14-.08.29-.19.38l-.02.02c-.19.06-.35.13-.48.18-.77.03-1.46.24-1.89.53-.05.03-.11.06-.16.08-.1.03-.19.03-.3.02-.14-.03-.29-.13-.37-.26-.03-.05-.06-.08-.1-.13.62-.56,1.46-1.07,1.95-1.22l.22-.08.1-.03.13-.05Z" />
    <path class="cls-3"
      d="M66.43,88.72c.3.59.72,1.38.87,2.13-.43.03-.8.1-1.04.18l-.13.05-.03-.08c-.13-.56-.46-1.2-.74-1.71l-.08-.18c-.59-1.12-.61-2.34-.08-3.33.51-.96,1.51-1.59,2.71-1.71,3.16-.35,4.9,3.44,5.66,5.29.21-.05.46-.13.67-.19-.06-1.14.06-2.84,1.04-3.99.59-.74,1.43-1.14,2.47-1.23,2.92-.22,3.89,3.32,4.42,5.21.8,2.85,1.03,5.75.7,8.54.95,1.57,1.94,3.19,2.93,4.81.85,1.39,1.7,2.79,2.52,4.15l-.11.06c-.05-.1-.14-.18-.26-.22-.45-.19-.91-.35-1.39-.46-.59-.96-1.19-1.92-1.78-2.88-1.03-1.7-2.05-3.38-3.04-5-.06-.13-.1-.26-.08-.38.34-2.69.13-5.51-.61-8.15-.64-2.29-1.41-4.57-3.19-4.45-.72.06-1.27.32-1.67.8-.8.96-.82,2.56-.74,3.49-.4,0-.75.03-.98.1l-.21.03-.19.05c-.35.08-.91.32-1.46.62-1.36-3.49-2.96-5.16-4.58-4.98-.82.1-1.44.48-1.78,1.09-.34.64-.32,1.46.08,2.23l.1.16Z" />
    <path class="cls-3"
      d="M66.38,131.91c-.19.14-.37.26-.56.38-.27.18-.64.1-.82-.19-.19-.27-.1-.64.18-.83.05-.03.11-.06.16-.11.32.13.64.34,1.03.72t.02.03Z" />
    <path class="cls-3"
      d="M64.31,92.79c.11.02.21.02.3-.02-.54.16-1.09.32-1.49.43.14-.24.42-.53.72-.8.03.05.06.08.1.13.08.13.22.22.37.26Z" />
    <path class="cls-3"
      d="M64.63,132.3c-.13.02-.26.08-.45.16-.16.06-.37.06-.53-.03-.1-.05-.16-.13-.21-.22.02-.11.03-.22.05-.34.05-.34.35-.58.67-.51.34.03.56.34.51.67-.02.1-.03.18-.05.27Z" />
    <path class="cls-3"
      d="M59.84,98.49c.24-.14.53-.29.83-.42.06.26.13.5.18.74.03.16,0,.34-.1.46-.1.14-.26.24-.42.26h-.02s-.02.02-.02,0c-.29-.14-.69-.91-.46-1.04Z" />
    <path class="cls-3"
      d="M68.01,97.66c-2.88-.19-6.06.93-7.58,1.89-.03.02-.08.02-.11-.02h.02c.16-.02.32-.11.42-.26.1-.13.13-.3.1-.46-.05-.24-.11-.48-.18-.74.77-.37,1.73-.69,2.79-.9,1.47-.3,3.12-.34,4.6-.11,1.47.19,2.77.67,3.65,1.07.42.19.75.38.99.53v.06c-.24-.13-.61-.26-1.06-.42-.91-.3-2.21-.61-3.64-.66Z" />
    <path class="cls-3"
      d="M55.26,203.18c.46.38.96.77,1.46,1.14-.35.03-.7.03-1.06.03h-.26c-.32,0-.59-.27-.59-.61,0-.27.19-.5.45-.56Z" />
    <path class="cls-3"
      d="M58.16,105.28c-1.31.13-3.49.37-4.01-1.14-.58-1.68.42-3.49,1.71-4.41,1.09-.77,2.42-1.09,3.65-1.3-.43-1.63-1.31-3.38-2.28-4.52l-.22-.27c-.45-.51-.96-1.11-1.19-1.86-.4-1.49.59-3.2,2.18-3.75,1.3-.45,2.88-.16,4.21.77,1.01.72,1.76,1.68,2.4,2.6.5-.22,1.03-.35,1.46-.42l.03.08-.1.03-.22.08c-.5.14-1.33.66-1.95,1.22-.61-.91-1.35-1.92-2.31-2.6-1.03-.72-2.19-.95-3.12-.62-.99.34-1.65,1.41-1.41,2.29.13.5.51.93.91,1.39l.26.29c1.04,1.23,2,3.14,2.5,4.92-.3.13-.59.27-.83.42-.22.13.18.9.46,1.04-1.31.19-2.69.43-3.75,1.19-.91.66-1.65,1.91-1.27,3.03.21.61,2.05.42,2.74.34l.59-.05c2.1-.16,4.09-.32,6.26.22.58.16,1.23.35,1.83.79,1.23.9,1.87,2.37,2.47,3.67.19.43.37.87.58,1.27.56,1.09,1.15,2.16,1.73,3.24-.19.37-.37.75-.51,1.14-.06.18-.05.37.03.51l-.06-.11c-.75-1.41-1.51-2.8-2.24-4.21-.22-.42-.42-.88-.62-1.33-.54-1.23-1.11-2.5-2.08-3.2-.4-.29-.95-.46-1.41-.58-1.99-.51-3.78-.37-5.86-.19l-.56.05Z" />
    <path class="cls-3"
      d="M56.29,168.3c-1.59.83-2.42,2.84-1.84,4.49.42,1.2,1.54,2.15,2.8,2.34,1.67.24,2.95-.75,3.6-1.76.64-.99,1.01-2.55.13-3.94-1.07-1.67-3.24-1.89-4.69-1.12ZM57.07,176.31c-1.7-.26-3.2-1.52-3.77-3.12-.75-2.19.34-4.85,2.42-5.94.74-.38,1.52-.56,2.29-.56,1.59,0,3.11.75,3.97,2.1,1.01,1.55.96,3.57-.13,5.24-.96,1.49-2.48,2.34-4.1,2.34-.24,0-.46-.02-.69-.05Z" />
    <path class="cls-3"
      d="M50.26,198.58c2.45-.19,4.93-.05,7.34.42.82.16,1.71.43,2.23,1.17.51.75.48,1.84-.08,2.66-.45.66-1.19,1.12-2.1,1.35-.32.08-.62.11-.93.14-.5-.37-.99-.75-1.46-1.14.05-.03.11-.03.16-.03.66,0,1.33,0,1.94-.14.62-.14,1.12-.45,1.39-.85.29-.42.32-.96.08-1.3-.27-.4-.87-.56-1.46-.67-2.02-.4-4.09-.56-6.12-.48-.4-.35-.82-.71-1.23-1.06.08-.03.16-.06.24-.06Z" />
    <path class="cls-3"
      d="M50.02,198.64c.42.35.83.71,1.23,1.06-.3.03-.59.05-.9.06-.32.03-.61-.21-.64-.54-.02-.24.11-.46.3-.58Z" />
    <path class="cls-3"
      d="M63.96,194.43c-6.06-1.75-11.5-4.84-15.78-8.97-.02.02-.03.02-.05.03l-.13-.21c.18,0,.87-.82.77-.9-.08-.06-.16-.14-.26-.22.06.03.13.08.19.13,4.18,4.15,9.58,7.26,15.59,8.99,3.03.88,6.14,1.3,8.76,1.59,2.88.3,6.49-.91,8.86-1.73,3.28-1.14,6.36-2.69,9.16-4.65-.06.08-.13.14-.18.21-.06.08.88.83.95.74.1-.11.19-.24.27-.4.26.58.91.85,1.54.87.18.02.35,0,.54-.05-.08.06-.16.11-.22.14-.11.08.26.77.51.98l-.06.08c-.27.03-.54.05-.8.05-1.06-.03-1.94-.5-2.42-1.25-2.74,1.84-5.74,3.33-8.89,4.41-3.16,1.09-6.47,2.11-9.39,1.79-2.69-.29-5.85-.71-8.97-1.62Z" />
    <path class="cls-3"
      d="M47.28,184.57c-.59-.69-1.25-1.62-1.7-2.52-.66-1.27-.95-2.4-.95-2.4,0,0,.58,1.03,1.44,2.07.75.95,1.75,1.84,2.42,2.44-.16-.06-.34-.06-.48.02-.26.13-.5.26-.74.4Z" />
    <path class="cls-3"
      d="M48.5,184.16h.02c.1.08.18.16.26.22.1.08-.59.9-.77.9h-.02c-.21-.18-.45-.42-.7-.71.24-.14.48-.27.74-.4.14-.08.32-.08.48-.02Z" />
    <path class="cls-3"
      d="M43.87,195.6c-.05.06-.1.13-.14.19-.34-.22-.64-.5-.9-.8.02-.02.03-.05.05-.06.19-.27.56-.35.83-.16.27.19.35.56.16.83Z" />
    <path class="cls-3"
      d="M41.5,191.48c.16,0,.32,1.19.13,1.2-.1.02-.19.03-.3.03-.1-.22-.18-.43-.24-.64-.06-.14-.05-.3.02-.45l.05-.1c.13-.02.24-.03.35-.05Z" />
    <path class="cls-3"
      d="M41.32,192.71c-1.25.11-3.27-.24-4.73-1.09-1.43-.74-2.34-1.75-2.53-1.99.26.19,1.33.98,2.77,1.44,1.47.51,3.2.56,4.31.45l-.05.1c-.06.14-.08.3-.02.45.06.21.14.42.24.64Z" />
    <path class="cls-3"
      d="M39.69,214.17c-.02-.22-.14-.4-.35-.5-.18-.08-.35-.16-.53-.24.02-.03.02-.05.03-.05.69,0,1.97-.05,3.06-.4,1.11-.3,1.94-.85,1.94-.85,0,0-.64.77-1.68,1.39-.77.5-1.75.83-2.53.98.06-.1.08-.22.06-.34Z" />
    <path class="cls-3"
      d="M39.33,213.67c.21.1.34.27.35.5.02.11,0,.24-.06.34-.29.05-.54.08-.77.08-.11,0-.13-.93-.05-1.15.18.08.35.16.53.24Z" />
    <path class="cls-3"
      d="M33.36,108.5c.13.19.14.43.05.62-.11.02-.22.03-.34.05-.3.06-.58-.11-.67-.4-.03-.08-.06-.16-.13-.24.08-.05.18-.11.26-.18.27-.19.64-.13.83.14Z" />
    <path class="cls-3"
      d="M32.06,167.19c-.45-.06-.9-.14-1.35-.24.11-.14.22-.27.34-.42.22-.24.59-.27.85-.06.22.18.27.48.16.72Z" />
    <path class="cls-3"
      d="M30.36,207.76c-.32-.29-.64-.58-.95-.87,5.38-2.77,10.03-6.87,13.41-11.9.26.3.56.58.9.8-3.4,5.01-8.01,9.13-13.36,11.97Z" />
    <path class="cls-3"
      d="M53.24,221.31c.53-.53.56-1.43.5-2.1-.13-1.39-.64-2.77-1.49-3.89-.16-.21-.14-.51,0-.72.29-.37.56-.77.85-1.19.29-.42.58-.85.87-1.22.16-.21.42-.29.66-.22.62.19,1.19.53,1.73.85.74.43,1.43.9,2.08.83.77,0,1.39-.83,1.6-1.62.29-1.09.05-2.39-.62-3.52-.58-.99-1.47-1.89-2.72-2.76-1.89-1.3-3.54-2.77-5.16-4.2-2.32-2.07-4.52-4.02-7.31-5.46-.18-.08-.34-.19-.5-.3.05-.06.1-.13.14-.19.19-.27.11-.64-.16-.83-.27-.19-.64-.11-.83.16-.02.02-.03.05-.05.06-.67-.69-1.17-1.52-1.51-2.28.11,0,.21-.02.3-.03.19-.02.03-1.2-.13-1.2-.11.02-.22.03-.35.05,1.43-2.95,3.67-5.48,6.14-6.95.26.29.5.53.7.71h.02l.13.21c-2.31,1.28-4.45,3.64-5.83,6.42.45,1.19,1.36,2.55,2.48,3.12,1.95.99,3.65,2.26,5.24,3.6-.19.11-.32.34-.3.58.03.34.32.58.64.54.3-.02.59-.03.9-.06.37.34.72.64,1.07.96.95.83,1.91,1.7,2.93,2.52-.26.06-.45.29-.45.56,0,.34.27.61.59.61h.26c.35,0,.71,0,1.06-.03.21.16.42.3.64.46,1.41.96,2.42,1.99,3.09,3.11.83,1.43,1.11,3.04.75,4.45-.32,1.2-1.31,2.5-2.76,2.52h-.03c-.99,0-1.84-.5-2.68-.99-.37-.22-.74-.43-1.07-.59-.19.27-.38.54-.58.83-.21.29-.42.58-.61.87.82,1.23,1.33,2.66,1.46,4.15.11,1.31-.18,2.36-.83,3.03-.79.8-2.07,1.01-3.2.56-.9-.35-1.68-1.12-2.23-2.15l-.22-.42c-.27-.5-.54-.99-.74-1.55-.29.06-.56.13-.83.19-.32.06-.64.14-.96.21l-.48,3.86c-.06.5-.14,1.11-.51,1.62-.4.56-1.14.9-1.91.9h-.18c-1.2-.08-2.37-.93-2.96-2.19-.58-1.19-.59-2.55-.54-3.44.02-.38.03-.75.06-1.12.03-.53.08-1.03.08-1.52-.58-.13-1.09-.51-1.31-1.07-.21-.48-.19-1.06.02-1.54-3.17-1.49-6.36-3.7-9.26-6.41l.08-.08c.13.11.29.18.45.18.1,0,.18-.02.27-.06.21-.11.43-.22.64-.34,2.68,2.4,5.56,4.36,8.44,5.67-.08.22-.06,1.15.05,1.15.22,0,.48-.03.77-.08-.03.08-.1.14-.18.21-.19.14-.29.58-.18.83.1.26.42.42.69.37.16-.03.34.02.48.13.13.1.21.26.22.43.05.75-.02,1.49-.06,2.21-.03.37-.05.72-.06,1.09-.06,1.25.08,2.15.42,2.88.42.87,1.19,1.46,1.97,1.51.43.03.83-.13,1.04-.4.18-.27.24-.69.29-1.06l.53-4.29c.03-.26.22-.46.46-.51.46-.08.91-.19,1.36-.29.46-.11.91-.22,1.39-.32.3-.06.62.14.69.45.18.66.48,1.22.82,1.83l.24.43c.4.77.98,1.35,1.6,1.6.67.27,1.46.14,1.89-.29Z" />
    <path class="cls-3" d="M30.25,108.68c.03-.08.1-.16.18-.22-.03.11-.11.21-.21.29.02-.02.02-.05.03-.06Z" />
    <path class="cls-3"
      d="M29.35,107.89c.06-.05.11-.08.18-.13.26-.19.64-.14.83.13.11.16.14.37.08.54,0,.02-.02.02-.02.02-.08.06-.14.14-.18.22-.02.02-.02.05-.03.06,0,0-.02,0-.02.02-.13.08-.26.18-.37.27-.02.02-.05.02-.08.02-.82.06-1.63.19-2.44.35.66-.5,1.35-1.01,2.03-1.51Z" />
    <path class="cls-3" d="M30.2,108.76c-.08.14-.22.24-.37.27.11-.1.24-.19.37-.27Z" />
    <path class="cls-3"
      d="M29.18,207.02c.08-.05.16-.08.24-.13.3.29.62.58.95.87-.21.11-.43.22-.64.34-.1.05-.18.06-.27.06-.16,0-.32-.06-.45-.18-.03-.05-.06-.1-.1-.14-.14-.3-.03-.66.27-.82Z" />
    <path class="cls-3"
      d="M62.55,128.4c-1.52-5.69-5.21-10.89-10.11-14.28-5.75-3.97-13.19-5.91-19.03-5,.1-.19.08-.43-.05-.62-.19-.27-.56-.34-.83-.14-.08.06-.18.13-.26.18-.18-.27-.51-.45-.82-.46h-.05c-.34,0-.72.14-.96.37.06-.18.03-.38-.08-.54-.19-.27-.58-.32-.83-.13-.06.05-.11.08-.18.13l-.02-.02c.46-.67,1.41-1.06,2.16-1.01.74.03,1.41.45,1.81,1.06,6.22-.96,13.76,1.03,19.8,5.21,5.14,3.56,9,9,10.59,14.96.27.99.56,2.1.74,3.01.29-.06.59-.06.9.05-.05.05-.11.08-.16.11-.27.19-.37.56-.18.83.18.29.54.37.82.19.19-.13.37-.24.56-.38.59.59.99,1.57.8,2.45l-.08-.02c0-.27-.16-.51-.43-.59-.24-.08-.5,0-.64.19.03-.45-.26-.96-.51-1.22-.4-.4-.61-.5-.88-.43.02-.1.03-.18.05-.27.05-.34-.18-.64-.51-.67-.32-.06-.62.18-.67.51-.02.11-.03.22-.05.34-.05-.06-.08-.14-.08-.22-.14-1.04-.62-2.82-.82-3.57Z" />
    <path class="cls-3"
      d="M58.45,124.76c-2.19-.7-4.89-1.44-7.71-1.67-.18-.02-.32-.1-.43-.24-.1-.13-.14-.3-.11-.48.21-1.01.45-2.15.85-3.32-2.37.66-4.71,1.6-6.58,2.66-.16.1-.34.11-.5.05s-.3-.19-.35-.35l-.1-.24c-.64-1.65-1.25-3.22-1.7-4.93-2.02,2.18-4.26,5.43-4.85,9.5-.02.19-.13.35-.29.43-.16.1-.35.11-.51.05-1.79-.69-3.96-1.03-6.31-.99.27.95.43,1.91.59,2.84l.18.91c.03.21-.05.42-.19.56-.16.14-.38.19-.59.13-.82-.26-1.78-.29-2.71-.32h-.29c1.22,1.49,2.63,2.77,4.23,3.86.21.13.3.38.26.64-1.35,5.53-2.05,11.22-2.08,16.53,4.31-1.19,8.4-2.34,12.53-3.94.16-.06.35-.05.51.03,1.33.79,3.32,1.76,5.48,2.24,1.51-5.78,2.11-10.69,1.92-15.4-.02-.27.14-.5.38-.59,2.32-.88,5.34-1.91,8.4-2.28-.59-1.19-1.38-2.24-2.26-2.96-.14-.11-.22-.3-.21-.5,0-.19.11-.37.27-.46.51-.34.99-.74,1.51-1.19.21-.19.45-.38.67-.58ZM59.39,131.57c-3.03.22-6.09,1.23-8.49,2.13.14,4.84-.53,9.9-2.11,15.86-.08.3-.37.5-.69.43-2.4-.42-4.65-1.47-6.17-2.34-4.23,1.63-8.4,2.79-12.82,4.01l-.32.1s-.1.02-.16.02c-.13,0-.26-.05-.35-.13-.16-.11-.24-.29-.24-.46-.05-5.51.66-11.46,2.02-17.22-1.94-1.36-3.6-3.03-4.98-4.95-.13-.19-.14-.45-.02-.66.11-.21.35-.32.58-.29.5.05,1.01.06,1.52.08.7.03,1.41.05,2.11.16v-.03c-.21-1.2-.4-2.32-.82-3.4-.06-.18-.05-.37.05-.53.11-.18.29-.27.48-.29,2.52-.13,4.9.14,6.92.8.88-4.58,3.62-8.09,5.83-10.27.16-.14.38-.21.59-.14.21.06.37.24.42.46.38,1.91,1.04,3.64,1.73,5.43,2.18-1.15,4.79-2.11,7.42-2.72.22-.06.45.02.61.19.14.18.18.42.08.62-.5,1.11-.79,2.2-1.07,3.52,3.19.34,6.15,1.27,8.41,2.03.22.08.38.27.4.5.03.22-.08.45-.27.58-.51.34-.99.75-1.51,1.19-.32.29-.66.56-.99.83.96.96,1.79,2.26,2.36,3.65.06.18.05.38-.05.54-.11.16-.27.27-.46.29Z" />
    <path class="cls-3"
      d="M20.57,191c.13,4.36,2.31,8.16,4.12,10.57,1.44,1.91,3.03,3.7,4.73,5.32-.08.05-.16.08-.24.13-.3.16-.42.51-.27.82.03.05.06.1.1.14l-.08.08c-1.87-1.73-3.62-3.69-5.19-5.77-2.74-3.67-4.26-7.56-4.36-11.26-.13-4.28,1.57-8.3,3.08-11.34,2.24-4.55,5.03-8.83,8.27-12.74.45.1.9.18,1.35.24-.02.05-.05.1-.08.13-3.33,3.94-6.17,8.28-8.46,12.9-1.43,2.92-3.06,6.76-2.95,10.78Z" />
    <path class="cls-3"
      d="M50.15,153.72c7.98-7.29,12.21-14.15,13.3-21.52.05.1.11.18.21.22.16.1.37.1.53.03.19-.08.32-.14.45-.16-1.09,7.67-5.45,14.79-13.67,22.32-4.29,3.93-8.46,6.3-12.71,7.21-1.3.29-2.61.42-3.93.42-7.34,0-14.77-4.18-18.7-10.86-4.29-7.35-4.31-17.3-.02-25.35,3.16-5.94,8.75-11.82,16.65-17.5.06.08.1.16.13.24.1.29.37.46.67.4.11-.02.22-.03.34-.05-.03.1-.1.16-.18.22-7.88,5.59-13.44,11.39-16.55,17.24-4.1,7.69-4.1,17.18,0,24.18,4.37,7.45,13.33,11.62,21.32,9.89,4.04-.88,8.01-3.14,12.14-6.94Z" />
    <path class="cls-3"
      d="M40.09,162.77c6.18-1.79,11.2-6.38,14.87-10.16,5.03-5.19,8.81-11.58,10.96-18.47.03-.06.06-.13.11-.18,0,.11-.03.21-.08.32-.13.27-.06.59.18.75.24.18.42.4.54.69-2.26,6.6-5.99,12.71-10.85,17.72-3.78,3.89-8.94,8.62-15.4,10.48-1.95.56-3.91.83-5.88.83-3.81,0-7.66-1.04-11.49-3.12-6.79-3.72-11.84-10.59-12.83-17.53-.98-6.78.62-14.18,4.53-20.83,2.92-4.98,7.15-9.64,12.56-13.87.8-.16,1.62-.29,2.44-.35.03,0,.06,0,.08-.02-6.15,4.47-10.88,9.47-14.03,14.85-3.77,6.42-5.34,13.54-4.39,20.04.93,6.47,5.85,13.17,12.22,16.65,5.51,3.01,11.05,3.75,16.45,2.2Z" />
    <path class="cls-3"
      d="M53.45,157.42c3.54-2.8,6.55-6.2,8.96-10.06,3.52-5.66,5.03-9.79,4.26-11.63.14-.4.27-.8.4-1.22.02-.05.03-.11.03-.16l.08.02c1.92,1.95.66,6.54-3.75,13.63-2.48,3.97-5.59,7.47-9.23,10.37-5.38,4.28-12.34,9-19.64,9-.83,0-1.65-.05-2.48-.18h-.02c.11-.24.06-.54-.16-.72-.26-.21-.62-.18-.85.06-.11.14-.22.27-.34.42-9.16-1.78-17.29-7.4-21.93-15.22-5.03-8.44-5.67-19.1-1.67-27.78,4.07-8.84,12.77-15.12,22.22-16.07l.02.02c-.69.5-1.38,1.01-2.03,1.51-8.19,1.55-15.52,7.26-19.11,15.04-3.83,8.33-3.22,18.55,1.6,26.68,4.69,7.88,13.09,13.46,22.46,14.88,7.74,1.17,15.4-3.97,21.18-8.59Z" />
    <path class="cls-4"
      d="M36.92,106.58c-.68,2.4-.67,4.43.08,6.2,2.28,6.04,6.05,10.5,6.05,10.5,0,0,3.34-12.06,4.48-17.49-3.14-1.46-7.47-1.02-10.61.8Z" />
    <path class="cls-3"
      d="M43.05,123.87c-.18,0-.34-.08-.46-.21-.16-.18-3.87-4.6-6.16-10.67-.79-1.85-.82-4.01-.09-6.57.04-.15.14-.28.28-.36,3.45-1.99,7.94-2.32,11.16-.82.25.12.39.4.33.67-1.13,5.38-4.45,17.4-4.49,17.53-.06.21-.23.38-.45.43-.04,0-.09.01-.13.01ZM37.44,106.98c-.59,2.18-.55,4,.12,5.56,1.63,4.31,4.04,7.82,5.24,9.42.83-3.03,3.07-11.32,4.05-15.82-2.74-1.07-6.51-.75-9.4.84Z" />
    <path class="cls-4"
      d="M67.85,126.79c-4.86-.08-10.02,0-14.81.82,3.22-4.04,7.76-7,12.76-8.31,1.22,1.98,2.18,5.18,2.05,7.5Z" />
    <path class="cls-3"
      d="M53.04,128.21c-.21,0-.41-.11-.52-.3-.13-.22-.11-.49.05-.68,3.3-4.14,7.95-7.17,13.07-8.52.27-.07.53.04.67.27,1.37,2.21,2.27,5.51,2.14,7.85-.02.32-.33.61-.61.57-4.53-.07-9.81-.03-14.7.81-.03,0-.07,0-.1,0ZM65.52,120c-4.19,1.19-8.02,3.57-10.97,6.77,4.29-.59,8.77-.64,12.71-.59-.04-1.9-.74-4.39-1.74-6.19Z" />
    <path class="cls-4"
      d="M32.46,137.32c-1.48,2.29-3.53,4.12-5.81,5.2-1.19-1.66-1.84-3.94-1.39-6.14,2.56-.55,4.84-.07,7.19.94Z" />
    <path class="cls-3"
      d="M26.65,143.12c-.19,0-.37-.09-.49-.25-1.39-1.93-1.94-4.4-1.49-6.61.05-.23.23-.42.46-.47,2.43-.52,4.75-.22,7.56.97.16.07.29.21.34.38.05.17.03.35-.07.5-1.53,2.37-3.68,4.29-6.05,5.42-.08.04-.17.06-.26.06ZM25.78,136.9c-.23,1.63.16,3.38,1.07,4.85,1.79-.95,3.42-2.39,4.69-4.15-2.11-.8-3.92-1.02-5.76-.7Z" />
    <path class="cls-4"
      d="M41.83,151.94c-1.19,1.36-2.92,2.31-4.8,2.63-1.88.32-3.82-.12-5.52-1,2.34-3.09,3.91-6.69,4.58-10.45,2.95,2.3,5.2,5.32,5.74,8.82Z" />
    <path class="cls-3"
      d="M35.78,155.27c-1.49,0-3.04-.39-4.54-1.17-.16-.08-.27-.23-.31-.4-.04-.17,0-.36.1-.5,2.27-3.01,3.82-6.54,4.47-10.19.04-.21.18-.38.38-.46.2-.08.42-.04.59.09,2.36,1.84,5.31,4.93,5.97,9.2.03.18-.02.35-.14.49-1.29,1.48-3.12,2.48-5.16,2.82-.44.08-.9.11-1.35.11ZM32.43,153.34c1.18.51,2.78.93,4.5.64,1.64-.28,3.17-1.08,4.26-2.22-.61-3.3-2.75-5.84-4.71-7.53-.72,3.25-2.11,6.37-4.06,9.12Z" />
  </g>
</svg>