<?xml version="1.0" encoding="UTF-8"?>
<svg id="Capa_2" xmlns="http://www.w3.org/2000/svg" viewBox="0 0 249.36 213.97">
  <defs>
    <style>
      .cls-1 {
        fill: #00ffdb;
      }

      .cls-2 {
        fill: #7a00ba;
      }

      .cls-3 {
        fill: #fff;
      }

      .cls-4 {
        fill: #fe0;
      }

      .cls-5 {
        fill: #ff387f;
      }
    </style>
  </defs>
  <g id="layer_1">
    <path class="cls-3"
      d="M246.98,1.52s-.06-.05-.09-.07c-1.18-.94-2.68-1.45-4.21-1.45-.6,0-1.2.08-1.77.23l-118.74,32.12c-1.07-1.08-2.22-2.18-3.48-3.33-5.53-5.05-14.17-6.16-20.53-6.19-2.78-1.19-5.66-1.84-8.23-1.84-3.47,0-6.43,1.16-8.56,3.34-1.84,1.88-2.63,4.04-3.21,5.85-.26.52-1.7,1.61-2.5,2.22-.82.6-1.47,1.11-2.05,1.6-3.01,2.56-5.39,4.38-7.71,5.88-1.79,1.16-7.25,4.68-10.6,4.68h-.12c-4.73-.15-9.3-.86-13.21-2.05-.88-.27-1.74-.57-2.67-.91l-.47-.17c-.55-.21-1.1-.42-1.58-.57-1.69-.6-3.31-.91-4.83-.91-2.17,0-4.11.6-5.76,1.79-2.09,1.48-4,3.07-5.7,4.74-4.53,4.46-8.23,10.09-10.7,16.28-.88,2.21-1.61,4.53-2.17,6.88-3.18,5.52-5.59,11.61-7.16,18.12-1.28,5.31-.81,10.6-.36,15.78.2,2.24.39,4.36.4,6.36.02,2.38-.21,4.93-.46,7.67-.37,3.99-.76,8.12-.33,12.37,2.22,22.32,17.69,44.8,42.44,61.66,7.6,5.17,15.15,9.36,23.08,12.79,1.31.58,3.51,1.54,6.12,1.54.43,0,.84-.02,1.35-.08,4.27-.56,7.85-3.79,9.58-8.64.68-1.9,1.33-3.88,2.02-6.15l114.05,22.77c.43.09.88.13,1.33.13,1.22,0,2.41-.33,3.44-.94,1.58-.93,2.71-2.49,3.08-4.26l4.52-21.37c.1-.02.2-.05.3-.08l1.92,1.97c.99,1.01,2.36,1.59,3.78,1.59,1.18,0,2.34-.4,3.26-1.13,2.13-1.67,2.65-4.66,1.21-6.95l-7.1-11.31,11.65-55.03,7.13-9.12c1.43-1.82,1.51-4.33.2-6.23-.84-1.23-2.16-2.04-3.61-2.24l5.08-23.99,8.21-8.17c1.04-1.03,1.6-2.47,1.55-3.94-.06-1.47-.73-2.86-1.85-3.81l-3.84-3.27,10.13-47.85c.5-2.36-.36-4.78-2.24-6.33Z" />
    <path class="cls-2"
      d="M200.15,210.01c-.18,0-.37-.02-.55-.05l-117.6-23.48c-1.06,3.75-1.99,6.69-2.96,9.4-1.22,3.42-3.6,5.68-6.37,6.05-.3.03-.56.05-.84.05-1.77,0-3.36-.7-4.53-1.21-7.72-3.34-15.05-7.41-22.44-12.44-23.78-16.21-38.63-37.63-40.73-58.78-.39-3.87-.02-7.8.34-11.6.25-2.76.51-5.48.48-8.08-.01-2.16-.21-4.37-.42-6.71-.42-4.81-.86-9.78.27-14.47,1.49-6.18,3.79-11.97,6.82-17.21.05-.1.12-.19.19-.28.54-2.39,1.26-4.74,2.15-6.98,2.27-5.68,5.66-10.84,9.8-14.92,1.55-1.52,3.3-2.98,5.21-4.34,1.77-1.27,4.12-1.4,6.97-.38.52.17,1.03.37,1.54.56l.52.18c.94.34,1.85.66,2.83.96,4.24,1.29,9.17,2.06,14.24,2.22,4,.12,9.05-2.77,12.98-5.3,2.48-1.6,4.99-3.51,8.14-6.2.5-.43,1.08-.88,1.81-1.42,1.67-1.26,3.41-2.59,3.91-4.14.49-1.51,1.06-3.09,2.3-4.36,3.25-3.34,9.02-2.27,13.24-.25.15-.04.31-.06.47-.06,5.69,0,13.45.9,18.12,5.16,1.86,1.69,3.47,3.28,4.91,4.84L241.95,4.05c.87-.24,1.82-.04,2.5.51,0,0,0,0,0,0,.75.6,1.09,1.55.9,2.46l-10.62,50.16,5.63,4.79c.28.24.45.58.46.95.01.37-.13.73-.39.98l-9.04,9-6.6,31.15,4.02-1.23c.55-.16,1.15.04,1.47.51.33.47.31,1.1-.05,1.56l-7.7,9.84-12.18,57.49,7.95,12.67c.36.57.23,1.32-.3,1.74-.53.42-1.29.37-1.76-.12l-4.48-4.59c-.07.5-.33.97-.77,1.29-.76.57-1.94.46-2.59-.25l-.27-.29-5.35,25.26c-.15.69-.59,1.3-1.22,1.67-.43.25-.93.39-1.43.39ZM81.05,183.63c.09,0,.17,0,.26.03l118.79,23.72s.14-.02.14-.02l5.86-27.7c.1-.48.47-.87.94-1,.06-.02.13-.03.19-.04l-.41-.7c-.17-.28-.22-.62-.16-.94l.19-.9c.1-.48.46-.86.92-.99.47-.14.97,0,1.31.34l.42.43-1.67-2.65c-.18-.29-.24-.64-.17-.97l12.35-58.31c.04-.2.13-.38.25-.54l5.32-6.79-2.16.66c-.45.13-.93.03-1.28-.29-.34-.31-.5-.79-.4-1.24l7.14-33.71c.05-.25.18-.48.36-.66l8.3-8.27-5.14-4.37c-.37-.31-.54-.8-.43-1.28l10.76-50.81s-.03,0-.06,0l-121.84,32.95c-.48.13-.99-.02-1.32-.39-1.54-1.71-3.21-3.38-5.27-5.26-3.68-3.36-9.86-4.31-14.88-4.45.06.03.11.07.17.11l.02.02c.1.06.22.15.34.27.49.49.52,1.29.05,1.81-.46.52-1.26.59-1.8.15,0,0-.04-.03-.09-.06-.04-.03-.08-.06-.11-.08l.04-.04s-.01,0-.02,0l-.03.04s-.08-.07-.11-.1c-.05-.02-.1-.05-.14-.08-.13-.08-.25-.17-.39-.26-.1-.06-.2-.12-.31-.19,0,0,0,0,0,0-.02-.01-.05-.02-.07-.04-.25-.15-.52-.29-.8-.43,0,0,0,0-.01,0,0,0,0,0,0,0-.04-.02-.08-.04-.11-.07-.04-.02-.09-.03-.13-.05-.24-.12-.5-.23-.76-.34-.05-.02-.1-.05-.15-.07-.04-.01-.09-.03-.13-.04t0,0h0s0,0,0,0c-.13-.05-.27-.11-.41-.16-.18-.07-.36-.13-.54-.19-.02,0-.04-.01-.06-.02-.04,0-.08-.02-.12-.03,0,0,0,0,0,0h0s0,0,0,0c-.12-.04-.23-.07-.35-.11-.19-.06-.38-.11-.56-.16,0,0,0,0,0,0,0,0,0,0,0,0-.04,0-.07-.02-.11-.03-.04,0-.08-.01-.12-.02-.25-.06-.5-.11-.75-.16,0,0-.01,0-.01,0-.05,0-.09-.02-.14-.03-.04,0-.08,0-.12-.01-.27-.04-.55-.08-.82-.1-.03,0-.07,0-.1-.01,0,0-.02,0-.03,0-.31-.02-.61-.03-.91-.02,0,0-.01,0-.02,0-.03,0-.07,0-.11,0-.23.01-.46.03-.67.07-.03,0-.06,0-.09.01-.04.01-.08.02-.13.03-.17.03-.33.08-.49.13-.04.01-.07.02-.11.03-.03.01-.06.03-.1.04-.14.05-.27.12-.4.19-.04.02-.08.04-.13.06,0,0-.02.01-.03.02-.19.12-.33.24-.45.35,0,0,0,0,0,0-.45.46-1.15.52-1.67.18-.39.7-.66,1.49-.91,2.26-.75,2.35-2.93,3.99-4.85,5.45-.6.44-1.16.87-1.67,1.31-3.24,2.76-5.84,4.74-8.42,6.41-4.51,2.91-9.74,5.88-14.5,5.72-.77-.02-1.53-.06-2.29-.11.09.02.17.03.26.05.06.01.11.02.16.03,0,0,.02,0,.03,0,.29.05.58.09.87.13.06,0,.11.01.17.02.02,0,.05,0,.07.01.01,0,.03,0,.04,0h0c.11.01.22.04.32.08.31.12.56.35.71.63.23-.34.61-.56,1.05-.55h.42s.06,0,.09,0h.02c.77,0,1.48-.05,2.07-.13,0,0,.02,0,.03,0h0s0,0,0,0h0s0,0,0,0c0,0,0,0,0,0,0,0,0,0,0,0,0,0,0,0,0,0t0,0h0s0,0,0,0h0s0,0,0,0c0,0,0,0,0,0,0,0,0,0,0,0h0c.64-.05,1.22.38,1.37,1.01.07.28.04.56-.06.8h0s0,0,0,0h0s0,0,0,0c0,0,0,0,0,0h0s0,0,0,0c0,0,0,0,0,0,0,0,0,0,0,0h0s0,0,0,0c0,0,0,0,0,0,0,0,0,0,0,0h0s0,0,0,0c0,0,0,0,0,0,0,0,0,0,0,0,0,0,0,0,0,0,0,0,0,0,0,0,0,0,0,0,0,0,0,0,0,0,0,0,0,0,0,0,0,0,0,0,0,0,0,0h0s0,0,0,0c0,0,0,0,0,0h0s0,0,0,0c0,0,0,0,0,0,0,0,0,0,0,0,0,0,0,0,0,0,0,0,0,0,0,0,0,0,0,0,0,0,0,0,0,0,0,0h0s0,0,0,0c0,0,0,0,0,0h0s0,0,0,0c0,0,0,0,0,0h0c-.08.15-.19.29-.32.4h0s0,0-.01,0h0s0,0,0,0h0s0,0,0,0c0,0,0,0,0,0,0,0,.01,0,0,0,0,0,0,0,0,0,0,0,0,0,0,0h0s0,0,0,0t0,0h0s0,0,0,0c0,0,0,0,0,0h0s0,0,0,0h0s0,0,0,0c-.11.09-.24.15-.38.2-.33.11-.71.21-1.1.3,0,0,0,0-.01,0-.3.07-.6.02-.86-.1-.23,0-.47,0-.71.01h0s-.07,0-.1,0h-.34s-.01,0-.02,0h-.11c-.46-.06-.87-.34-1.08-.74-.27.4-.75.63-1.25.57-.1-.01-.21-.03-.31-.04-.33-.04-.65-.09-.98-.15,0,0,0,0,0,0-.01,0-.03,0-.04,0h0s0,0-.01,0c-.05,0-.1-.02-.15-.03-.35-.06-.7-.14-1.05-.22-.71-.17-1.15-.87-.98-1.58.11-.46.45-.81.87-.95-4-.35-7.84-1.07-11.27-2.11-1.02-.31-1.97-.65-2.95-1l-.54-.19c-.5-.19-.98-.37-1.49-.54-2.01-.72-3.55-.7-4.58.03-1.8,1.28-3.45,2.65-4.89,4.07-3.89,3.83-7.07,8.68-9.2,14.01-.89,2.24-1.6,4.59-2.11,6.98-.06.3-.23.57-.47.75-2.88,5-5.05,10.5-6.47,16.38-1.03,4.27-.61,9.02-.21,13.62.21,2.39.42,4.66.43,6.92.03,2.72-.23,5.52-.48,8.22-.36,3.8-.71,7.6-.35,11.22,1.99,20.05,16,40.45,38.5,56.12.42-.55,1.21-.68,1.79-.29.99.67,1.97,1.32,2.96,1.96.14.09.26.21.36.34.16.03.32.09.46.18,0,0,0,0,0,0h0s0,0,0,0c.33.21.67.42,1,.63.48.3.96.6,1.44.89.07.04.15.09.22.13,0,0,0,0,0,0,.23.14.47.28.7.42.36.21.72.42,1.07.63.59.34,1.18.68,1.77,1.01.06.03.12.07.17.12.06.02.11.05.17.08h0s.02,0,.02.01c.45.25.89.5,1.34.74.7.38,1.4.76,2.11,1.12h0c.14.08.27.17.37.29.16.02.31.06.46.14h0s0,0,.01,0c.87.44,1.74.88,2.62,1.3.2.1.36.23.48.4.21,0,.41.03.61.13,1.14.54,2.28,1.06,3.44,1.56.5.22.79.7.79,1.21,0,.14-.02.29-.07.43.89.33,1.84.56,2.78.46,1.75-.23,3.33-1.85,4.21-4.32,1.05-2.94,2.05-6.14,3.24-10.4.16-.58.69-.96,1.27-.96ZM13.7,73.02h0,0ZM13.9,72.79s0,.02-.01.02c0,0,0-.02.01-.02ZM98.16,31.79h0,0ZM13.52,89.75c-.64,0-1.2-.47-1.3-1.12-.01-.09-.03-.18-.04-.27-.24-1.83-.39-3.94-.43-6.13-.01-.73.57-1.33,1.29-1.34.72.02,1.33.56,1.34,1.29.04,1.94.16,3.73.35,5.34.02.17.03.33.05.49.01.08.02.16.03.24.1.72-.4,1.38-1.12,1.49-.06,0-.13.01-.19.01ZM108.1,37.89c-.19,0-.37-.04-.55-.12l-.6-.28c-.65-.3-.95-1.07-.66-1.73.29-.66,1.05-.97,1.71-.69.13.05.29.13.5.23l.18.08c.65.31.93,1.09.62,1.75-.22.48-.7.76-1.19.76Z" />
    <path class="cls-2"
      d="M200.15,208.69c-.1,0-.2,0-.3-.03l-154.79-30.9c-.71-.14-1.18-.76-1.08-1.41l16.68-100.69c.05-.28.2-.55.44-.74l37.31-30.55c.15-.13.34-.22.54-.27L242.3,5.33c.13-.04.27-.05.4-.05.34,0,.67.11.93.32.36.29.53.73.44,1.16l-42.55,200.92c-.07.33-.29.62-.6.81-.23.14-.5.21-.77.21Z" />
    <polygon class="cls-4" points="99.34 45.3 242.7 6.52 200.15 207.44 45.35 176.54 62.03 75.85 99.34 45.3" />
    <path class="cls-2"
      d="M162.25,178.3l-13.81-62.25-.56-2.55-11.16,3.29-1.19.35-31.78,61.51,12.46-17.44,5.83-1.54,10.28-2.7,17.03-4.49,12.65,26.65.86,1.8-.59-2.64ZM134.68,150.98l-9.47-.58-1.22-.08,2.4-3.36,12.22-17.09,2.4,5.05,8.04,16.92-14.36-.87Z" />
    <polygon class="cls-2"
      points="194.15 148.9 217.2 185.62 182.04 149.58 181.15 148.67 183.39 145.94 203.71 121.19 190.54 126.64 183.6 129.5 165.72 180.77 169.98 154.55 169.99 154.52 175.53 120.49 181.68 118.61 195.02 114.53 229.21 104.1 194.15 148.9" />
    <path class="cls-2"
      d="M220.19,46.54l-11.82-10.06-7.11-6.06-33.35,45.04,18.98,27.08,5.29,7.56,7.07-7.05,40.25-40.07-19.32-16.44ZM208.6,77.86l-15.92,17.12-2.3-3.15-13.2-18.02,22.27-29.2,4.74,4.74,10.92,10.93,5.08,5.1-11.59,12.48Z" />
    <polygon class="cls-2"
      points="160.87 84.53 179.69 114.48 157.88 92.12 148.48 82.48 143.65 77.54 154.84 63.92 166.2 50.06 158.48 53.26 146.11 58.37 128.21 109.64 138.01 49.37 162.37 41.93 179.76 36.61 191.7 32.97 170.54 60.01 156.64 77.78 160.87 84.53" />
    <path class="cls-5"
      d="M158.57,174.42l-12.89-61.68-.53-2.53-10.41,3.26-1.11.35-29.66,60.94,11.63-17.28,5.44-1.53,9.59-2.68,15.89-4.45,11.8,26.41.8,1.79-.55-2.61ZM132.84,147.35l-8.84-.58-1.14-.07,2.24-3.33,11.4-16.93,2.24,5,7.5,16.77-13.4-.86Z" />
    <polygon class="cls-5"
      points="188.33 145.29 209.85 181.67 177.03 145.96 176.21 145.06 178.29 142.36 197.26 117.83 184.97 123.24 178.49 126.07 161.8 176.87 165.78 150.89 165.79 150.87 170.96 117.15 176.69 115.28 189.15 111.25 221.05 100.91 188.33 145.29" />
    <path class="cls-5"
      d="M212.64,43.88l-11.03-9.96-6.64-6-31.12,44.62,17.72,26.83,4.94,7.49,6.6-6.99,37.56-39.7-18.03-16.29ZM201.82,74.91l-14.85,16.97-2.15-3.13-12.32-17.85,20.78-28.93,4.43,4.7,10.19,10.83,4.74,5.05-10.81,12.37Z" />
    <polygon class="cls-5"
      points="157.28 81.51 174.84 111.2 154.49 89.04 145.71 79.49 141.21 74.59 151.65 61.1 162.25 47.37 155.05 50.53 143.5 55.6 126.8 106.39 135.95 46.68 158.68 39.31 174.91 34.04 186.05 30.43 166.3 57.22 153.33 74.83 157.28 81.51" />
    <polygon class="cls-3" points="124 146.78 132.84 147.35 130.62 153.29 121.03 155.97 124 146.78" />
    <polygon class="cls-3"
      points="145.68 112.75 138.74 131.45 136.5 126.45 125.1 143.38 134.74 113.48 145.15 110.22 145.68 112.75" />
    <polygon class="cls-3"
      points="166.3 57.22 153.33 74.83 157.28 81.51 154.49 89.04 145.71 79.49 151.65 61.1 162.25 47.37 155.05 50.53 158.68 39.31 174.91 34.04 166.3 57.22" />
    <polygon class="cls-4" points="158.57 174.42 159.12 177.03 158.32 175.25 158.57 174.42" />
    <polygon class="cls-4" points="176.21 145.06 178.29 142.36 177.03 145.96 176.21 145.06" />
    <polygon class="cls-3"
      points="176.69 115.28 189.15 111.25 184.97 123.24 178.49 126.07 161.8 176.87 165.78 150.89 165.79 150.87 176.69 115.28" />
    <polygon class="cls-3"
      points="201.82 74.91 193.11 99.87 186.51 106.86 181.57 99.37 184.82 88.75 186.97 91.88 201.82 74.91" />
    <polygon class="cls-3" points="212.64 43.88 207.9 57.5 197.71 46.67 201.61 33.92 212.64 43.88" />
    <path class="cls-2"
      d="M174.84,111.82c-.17,0-.34-.07-.46-.2l-33.63-36.61c-.21-.22-.22-.56-.03-.81l19.54-25.28-16.25,7.13-16.62,50.53c-.1.31-.42.49-.74.41-.32-.08-.52-.38-.47-.7l9.15-59.71c.04-.23.2-.43.42-.5l50.1-16.25c.26-.08.54,0,.7.23.16.22.16.52,0,.74l-32.47,44.06,21.31,36.01c.16.28.09.63-.17.82-.11.08-.24.12-.37.12ZM142.03,74.55l29.24,31.83-18.48-31.24c-.13-.22-.11-.49.04-.69l31.57-42.83-47.88,15.53-7.95,51.89,14.35-43.64c.05-.17.18-.31.34-.38l18.75-8.23c.26-.12.57-.04.75.19.18.23.18.54,0,.77l-20.72,26.8Z" />
    <path class="cls-2"
      d="M209.85,182.3c-.17,0-.34-.07-.46-.2l-33.64-36.61c-.21-.22-.22-.56-.03-.8l19.55-25.29-16.26,7.14-16.6,50.53c-.1.31-.42.49-.74.41-.32-.08-.52-.38-.47-.7l9.15-59.72c.04-.23.2-.43.42-.5l50.1-16.24c.26-.08.54,0,.7.23.16.22.16.52,0,.74l-32.47,44.05,21.31,36.03c.16.28.09.63-.17.82-.11.08-.24.12-.37.12ZM177.02,145.03l29.26,31.83-18.49-31.26c-.13-.22-.11-.49.04-.69l31.57-42.82-47.88,15.52-7.95,51.89,14.34-43.63c.06-.17.18-.31.34-.38l18.77-8.24c.26-.12.57-.04.74.19.18.23.18.54,0,.77l-20.73,26.81Z" />
    <path class="cls-2"
      d="M186.51,107.48s-.04,0-.06,0c-.19-.02-.36-.12-.47-.28l-22.65-34.32c-.14-.21-.14-.49,0-.7l31.12-44.62c.1-.15.26-.24.44-.26.18-.02.36.04.49.16l35.69,32.26c.13.11.2.27.21.44,0,.17-.05.33-.17.45l-44.16,46.68c-.12.13-.28.2-.45.2ZM164.61,72.55l21.99,33.31,43.18-45.65-34.69-31.35-30.47,43.69Z" />
    <path class="cls-2"
      d="M186.97,92.5s-.02,0-.04,0c-.19-.01-.37-.11-.48-.27l-14.46-20.98c-.15-.22-.15-.5,0-.72l20.78-28.93c.11-.15.28-.25.47-.26.2,0,.37.06.5.2l19.35,20.58c.22.23.23.6.01.84l-25.67,29.33c-.12.14-.29.21-.47.21ZM173.27,70.91l13.76,19.96,24.77-28.3-18.44-19.61-20.08,27.96Z" />
    <path class="cls-2"
      d="M159.12,177.66c-.24,0-.47-.14-.57-.37l-12.38-27.7-30.18,8.44-11.5,17.09c-.18.27-.54.36-.83.19-.28-.16-.39-.52-.25-.82l29.66-60.94c.07-.15.21-.27.37-.32l11.53-3.61c.17-.05.35-.03.5.06.15.09.26.24.3.41l13.97,66.81c.07.31-.11.63-.42.72-.06.02-.13.03-.19.03ZM146.51,148.22c.24,0,.47.14.57.37l10.23,22.89-12.64-60.45-10.61,3.33-25.62,52.64,6.63-9.85c.08-.12.21-.21.35-.25l30.92-8.65c.06-.02.11-.02.17-.02Z" />
    <path class="cls-2"
      d="M146.24,148.84s-.03,0-.04,0l-23.38-1.51c-.22-.01-.42-.15-.52-.35-.1-.2-.08-.44.04-.63l13.64-20.25c.13-.19.35-.29.57-.27.23.02.42.16.52.37l9.74,21.77c.09.2.07.43-.06.61-.12.17-.31.27-.51.27ZM123.99,146.15l21.26,1.37-8.86-19.79-12.4,18.42Z" />
    <path class="cls-5"
      d="M40.05,69.44c-2.4,2-6.35,3.85-10.28,3.09-1.49-.3-2.69-1.04-3.3-2.03-.25-.41-.43-.9-.51-1.44-.08-.45-.1-.95-.05-1.48.28-2.91,1.96-6.23,5.88-6.8.34-.05.69-.08,1.04-.08.05.74.83,2.36.94,2.84.31,1.3,1.55,5.51.86,6.71,1.56-2.74,2.14-5.99,1.64-9.08.77.22,1.59.53,2.43.9,2.1.94,3.26,2.08,3.46,3.35.29,1.79-1.38,3.39-2.1,4Z" />
    <path class="cls-2"
      d="M108.51,131.64c-2.64-1.51-5.14-3.1-7.5-4.65.14.1.3.14.46.09.32-.06,1.28-.29,1.68-1.14.19-.37.39-.53.47-.53.04.01.14.07.33.53l1.05,2.68c.09.24.31.39.55.4.26.04.47-.12.59-.34.33-.64.75-1.18,1.19-1.75.46-.59.94-1.21,1.33-1.95.11-.21.29-.55.48-.63.25-.1.68.24.95.59,1.76,2.18,2.11,5.31,2.39,7.83.04.22.19.43.4.51.21.07.45.04.64-.11.06-.05.16-.09.28-.14.25-.1.6-.24.85-.61.14-.23.33-.33.36-.3.01,0,.07.04.21.28.49.81.79,1.73.9,2.66.04.34.36.59.7.54.34-.04.59-.35.55-.69-.09-.69.94-2.93,1.54-3.06.85.5,1.78,3.44,1.98,4.53.02.16.11.3.24.38h0s-.61,2.76-.61,2.76c-.21-.55-.48-1.1-.78-1.64-.2-.36-.46-.76-.86-1.05-.5-.37-1.14-.47-1.66-.26-.6.25-.89.81-1.04,1.26-1.89-2.89-4.8-4.56-7.64-6.18Z" />
    <path class="cls-2"
      d="M91.09,116.46c-.53-.66-1.08-1.3-1.66-1.9-.11-.11-.23-.24-.34-.36.06-.23.15-.43.26-.58.09-.11.24-.19.31-.2.18,0,.39.26.59.69.35.76.64,1.55.84,2.35Z" />
    <path class="cls-2"
      d="M92.79,118.68c-.26-.36-.54-.73-.8-1.08.06-.01.11-.04.18-.06.46-.29.75-.54,1.1-.98.18-.24.41-.35.49-.31.06.03.15.16.25.4.74,1.69,1.19,3.46,1.33,5.28.01.08.02.14.05.2-.07-.1-.14-.19-.21-.29-.37-.51-.75-1.03-1.14-1.54-.43-.54-.83-1.09-1.24-1.63Z" />
    <path class="cls-2"
      d="M96.92,124.12c-.49-.58-.95-1.19-1.39-1.79.09.1.2.15.33.18.29.04.56-.12.68-.39.2-.48.56-.84,1-1.25.22-.21.44-.43.65-.66.13-.15.18-.18.18-.19.04.01.19.1.38.44,1.06,1.86,1.75,3.96,1.99,6.08.01.15.09.29.19.39-.4-.25-.79-.51-1.18-.76-.3-.2-.6-.38-.88-.54-.73-.44-1.35-.81-1.94-1.5Z" />
    <path class="cls-4"
      d="M59.25,115.01c.14-.44.33-.89.64-1.15.32-.28.51-.24.58-.21.76.19,1.56,2.14,1.9,2.98.09.2.16.39.23.54.08.16.21.28.37.34.16.05.34.04.5-.04.4-.22.68-.54.93-.81l.2-.22c.25-.26.48-.41.65-.39.47.04.94.89,1.36,2.51.45,1.66.84,3.38,1.14,5.09.04.21.18.38.35.46l-.09.18c-1.71-1.01-2.74-2.45-3.8-3.95-.55-.78-1.11-1.58-1.8-2.35-.96-1.11-2.03-2.1-3.15-2.96Z" />
    <path class="cls-4"
      d="M68.72,124.65c-.26-.12-.5-.25-.73-.38l.09-.18c.06.03.13.05.2.05.3.01.55-.14.65-.4.08-.17.15-.45.25-.78.18-.56.7-2.28,1.06-2.41.76.54,1.28,2.04,1.64,3.14.11.33.23.63.33.9.09.24.34.38.6.39.26,0,.49-.18.58-.43.71-2.14,1.58-4.33,3.06-5.74.15-.15.2-.16.2-.18.44.01,1.05.94,1.81,2.76l.18.43c.7,1.55,1.19,3.19,1.44,4.85.03.2.15.36.31.46l-.04.09c-1.79-.81-3.88-1.08-5.93-1.33-1.99-.24-4.05-.49-5.7-1.26Z" />
    <path class="cls-4"
      d="M80.57,127.21c.26.05.53-.08.65-.3l.14-.23c.64-1.06,1.3-2.16,2.1-3.01.15-.18.31-.24.5-.21.28.04.71.31,1.06.99,1.16,2.23,1.8,4.56,2.48,7.05l.04.15c-.04.2.03.4.15.53l.15.59c.08.27.34.46.6.46.06,0,.11-.01.18-.03.34-.1.53-.44.44-.78l-.22-.84c.21-1,.73-1.94,1.44-2.7.4-.41.69-.54.81-.5.53.14.95,1.83,1.11,2.45.18.7.38,1.38.58,2.06.44,1.53.86,2.98,1.03,4.53.04.28.25.5.53.54.28.05.55-.1.68-.36l1.24-2.76c.16-.37.25-.43.26-.44.04.01.21.14.39.55.9,2.08,1.55,4.24,1.96,6.44.05.29.29.49.58.51.27.03.54-.15.64-.41.21-.63,1.51-2.81,3.48-5.85.26-.4.96-1.48,1.4-1.49.14,0,.31.14.49.39.56.76.86,1.75,1.15,2.71l.19.61c.58,1.83.89,3.71.91,5.61,0,.34.28.61.63.61s.63-.29.63-.64c0-.24-.01-.48-.03-.7.14-.05.26-.16.32-.31.51-1.24,1.15-2.43,1.88-3.55.16-.25.34-.49.53-.55.13-.03.31.03.48.14.2.15.38.4.54.64.93,1.38,1.56,2.89,1.91,4.5.06.28.31.49.6.49h.01v.21c-1.53.07-3.06.12-4.58.16-.8.01-1.6.04-2.4.06-5.55.18-10.94-1.74-15.5-5.53-1.81-1.51-3.44-3.35-5.01-5.13-1.78-2-3.6-4.08-5.73-5.73-.49-.37-1.03-.69-1.59-.93l.04-.09c.06.02.12.05.19.06Z" />
    <path class="cls-4"
      d="M115.16,144.1c.29,0,.54-.2.61-.48.2-.84.46-1.68.73-2.51.17-.55.35-1.1.5-1.65.1-.31.19-.63.26-.94.05-.21.18-.73.4-.81.11-.05.3,0,.45.1.21.16.37.41.51.66.74,1.3,1.18,2.76,1.58,4.2,0,.08.01.15.04.23l.08.19c.12.31.46.48.79.38.31-.11.49-.44.4-.76-.07-.29-.16-.59-.25-.88l1.74-7.86s0-.01.01-.01c.05.03.12.08.21.14,2.48,2.06,3.79,5.21,3.44,8.23-.01.13.01.24.06.34-3.76,1.1-7.66,1.49-11.54,1.66v-.21Z" />
    <path class="cls-4"
      d="M127.77,84.68c-.24-.11-.55-.86-.6-1.73-.11-2.25-.18-4.14-.02-6.03,0-.09,0-.16-.03-.24,1.08-2.75,1.71-5.68,1.76-8.41,1.85.83,3.43,2.01,3.68,3.41,0,2.3-.38,4.59-1.13,6.81-.74,2.21-1.69,4.64-3.15,5.93-.28.22-.44.28-.51.25Z" />
    <path class="cls-4"
      d="M121.31,83.18c-.39-.09-.93-.81-1.26-2.25-.56-2.44-.45-5.08-.35-7.63.02-.56.05-1.13.07-1.69,0-.08-.01-.14-.03-.2.14-1.44.2-2.9.16-4.29,1.11-.12,2.21-.21,3.33-.24h.14c1.11,0,2.8.34,4.43.94-.09.11-.16.25-.16.41-.05,2.71-.7,5.6-1.8,8.31-.86,2.11-1.99,4.11-3.34,5.81-.46.59-.9.87-1.19.81Z" />
    <path class="cls-4"
      d="M104.02,89.58c-.25.01-.61-.26-.99-.84-2.39-3.71-4.08-7.74-5.05-11.97,1.13-1.03,2.31-1.99,3.58-2.85,5.08-3.48,11.03-5.76,17.1-6.64.03,1.38-.04,2.84-.19,4.29-.33,3.24-1.03,6.48-1.99,8.86-.83,2.05-1.94,3.95-2.9,5.54-.35.58-.64.75-.8.76-.19-.01-.55-.3-.95-1.1-.68-1.34-1.24-2.73-1.68-4.13-.61-1.91-1.01-3.85-1.19-5.83.03-.69.01-1.39-.03-2.08-.01-.11-.04-.23-.1-.31v-.34c0-.34-.27-.62-.61-.62h-.01c-.34,0-.63.27-.63.61-.01.93.03,1.86.12,2.79-.05,4.44-1.05,8.86-2.91,12.93-.26.59-.53.89-.79.91Z" />
    <path class="cls-4"
      d="M93.6,82.06l-.35-.3c1.16-1.39,2.39-2.74,3.69-4.01.21.86.45,1.73.73,2.56-.01.06-.01.12,0,.19.34,2.15.39,4.35.16,6.51-.03.18-.04.41-.05.68-.04.58-.11,1.94-.44,2.3-.11.04-.49-.25-.8-.71-.73-1.11-1.24-2.33-1.51-3.61-.01-.05-.02-.09-.05-.12-.05-1.05-.15-2.1-.29-3.15-.04-.35-.34-.59-.7-.55-.15.02-.29.1-.39.22Z" />
    <path class="cls-4"
      d="M91.31,96c-1.19-1.24-2.11-2.7-2.73-4.26h0c-.01-.1-.04-.18-.09-.24-.34-.9-.56-1.83-.68-2.76-.01-.09-.04-.16-.09-.24.74-.9,1.46-1.79,2.16-2.68,1.09-1.35,2.2-2.73,3.35-4.06l.35.3c-.11.13-.18.3-.15.48.14,1.09.24,2.16.29,3.25.15,3.16-.06,6.33-.65,9.44-.06.31-.3,1.33-.85,1.35-.33.03-.69-.33-.93-.58Z" />
    <path class="cls-4"
      d="M72.81,101.81c-.01-.19-.1-.35-.25-.45,5.1-1.28,8.5-5.15,11.8-8.93l1.08-1.23c.44-.49.86-.99,1.29-1.49.14.79.35,1.56.64,2.31,0,.01.01.03.01.04.14,1.19-.01,2.66-.45,4.41l-.1.38c-.12.54-.5,2.16-.98,2.35-.19.08-.26.04-.28.03-.06-.03-.26-.16-.45-.74-.09-.28-.2-.56-.31-.88-.24-.61-.5-1.31-.54-1.83-.03-.35-.34-.6-.66-.59-.35.03-.61.33-.59.66h0c.11,1.63-.1,3.31-.61,4.89l-.1.31c-.51,1.61-.96,2.44-1.35,2.44-.28,0-1.04-.55-1.69-1.54-.43-.64-.59-1.16-.59-1.43,0-.05.01-.1.02-.12.14-.33-.01-.69-.34-.83-.31-.14-.69.01-.81.34l-.11.25c-.88,2.08-1.71,4.04-3.01,5.86-.21.29-.3.35-.34.35-.06,0-.25-.15-.41-.58-.53-1.29-.81-2.63-.88-4.01Z" />
    <path class="cls-4"
      d="M63.06,105.18c-.78-1.01-1.45-2.55-1.8-4.08,1.1.05,2.23.19,3.38.34,1.73.23,3.51.46,5.3.34.59-.04,1.15-.11,1.7-.23-.01.01-.03.03-.03.04-.22.53-.43,1.05-.63,1.56-.51,1.35-1,2.63-1.83,3.84-.29.41-.43.45-.46.45,0,0-.15-.03-.41-.31-1.05-1.18-1.84-2.95-2.11-4.76-.05-.29-.29-.51-.59-.53-.28-.01-.55.17-.64.45-.28.99-.69,1.91-1.25,2.78-.22.35-.36.38-.36.38,0,0-.09-.01-.28-.26Z" />
    <path class="cls-5"
      d="M63.4,115.86c-.31-.78-.73-1.71-1.28-2.41.4-.56,1.06-1,1.91-1.25,3.06-.9,5.59-.4,8.51.18.65.13,1.33.26,2.03.38.06.01.13.02.18.02,1.26.5,2.38,1.05,3.1,1.4l.6.3.59.32c.93.51,2.48,1.39,3.94,2.45,1.49,1.04,2.89,2.28,3.79,3.08-.65-1.01-1.85-2.51-3.25-3.78-1.38-1.29-2.93-2.33-3.86-2.84l-.63-.34-.63-.31c-.11-.05-.22-.11-.35-.16.95-.06,1.86-.2,2.81-.35.59-.09,1.19-.18,1.81-.25,2.38-.29,4.05,1.25,5.85,3.13,1.19,1.24,2.24,2.65,3.26,4.01.41.55.83,1.1,1.25,1.65.39.49.75,1,1.11,1.5.58.78,1.16,1.59,1.8,2.35.74.85,1.48,1.29,2.26,1.76.26.16.54.33.83.51,2.74,1.8,5.69,3.7,8.85,5.51,3.15,1.8,6.14,3.5,7.8,6.75h0c-.12.44-.26.85-.39,1.26-.05.18-.11.34-.16.51-.38-.99-.88-1.94-1.48-2.84-.21-.33-.47-.69-.85-.96-.49-.34-1.06-.45-1.56-.3-.64.19-1.01.75-1.2,1.05-.51.78-.98,1.59-1.39,2.43-.15-1.06-.4-2.11-.73-3.14l-.19-.6c-.31-1.05-.64-2.15-1.33-3.09-.44-.6-.94-.9-1.49-.9h-.05c-1.01.03-1.78,1.08-2.41,2.05-.94,1.48-2.04,3.2-2.78,4.49-.43-1.7-.98-3.36-1.68-4.98-.58-1.33-1.4-1.35-1.73-1.29-.76.11-1.09.85-1.23,1.15l-.4.9c-.2-.91-.46-1.8-.71-2.68-.2-.66-.4-1.34-.59-2.09-.3-1.18-.75-2.96-1.98-3.29-.66-.16-1.35.13-2.04.85-.44.46-.81.98-1.11,1.54-.54-1.91-1.16-3.85-2.11-5.69-.5-.95-1.24-1.55-2.01-1.65-.6-.07-1.15.13-1.58.59-.59.64-1.09,1.35-1.55,2.09-.3-1.23-.7-2.41-1.21-3.58l-.18-.39c-.55-1.31-1.46-3.51-2.95-3.54h-.01c-.48,0-.81.28-1.06.53-1.28,1.21-2.13,2.85-2.79,4.58-.41-1.14-.94-2.33-1.81-2.95-.35-.25-.74-.33-1.11-.2-.6.2-1.01.86-1.36,1.75-.21-.96-.45-1.93-.7-2.89-.29-1.06-.88-3.28-2.45-3.43-.41-.04-1.01.08-1.69.78l-.23.25s-.03.04-.05.05Z" />
    <path class="cls-2"
      d="M58.22,114.16c-1.36-1.99-.95-6.15,1.26-13.03.16-.01.32-.03.5-.03.36,1.78,1.16,3.61,2.09,4.83.14.2.53.71,1.15.76.58.05,1.08-.26,1.53-.94.25-.39.48-.79.68-1.2.45,1.3,1.11,2.49,1.94,3.4.28.31.71.73,1.33.74h.01c.81,0,1.31-.72,1.49-1,.76-1.11,1.26-2.26,1.71-3.4.15.68.36,1.34.63,1.99.38.94,1,1.44,1.71,1.35.65-.07,1.03-.6,1.21-.86,1.06-1.48,1.8-2.99,2.5-4.58.1.18.2.33.29.46.63.96,1.73,2.09,2.71,2.1h.01c1.5,0,2.15-2.08,2.54-3.31l.1-.3c.2-.63.36-1.26.47-1.89.24.55.56.91.96,1.1.28.14.71.24,1.28.01,1.08-.44,1.48-2.11,1.74-3.23l.07-.35c.21-.83.36-1.6.45-2.33.51.86,1.14,1.66,1.84,2.4.43.45,1.03.96,1.8.96h.1c1-.05,1.73-.91,2-2.38.39-2.09.63-4.2.69-6.31.15.29.31.56.49.83.19.28.86,1.21,1.76,1.26.03,0,.06.01.09.01.37,0,.74-.18,1-.49.51-.58.61-1.7.69-2.99.01-.24.02-.45.04-.61.1-.94.15-1.89.15-2.84.79,1.76,1.71,3.46,2.76,5.1.22.35.9,1.41,2,1.41.04,0,.09,0,.12-.01,1.14-.09,1.66-1.25,1.84-1.63,1.28-2.76,2.15-5.7,2.61-8.69.13.46.25.93.4,1.39.48,1.46,1.06,2.91,1.76,4.31.58,1.15,1.26,1.75,2.01,1.79h.06c.68,0,1.3-.46,1.85-1.36,1-1.63,2.14-3.59,2.99-5.73.3-.74.56-1.53.8-2.38.06.9.19,1.8.4,2.69.24,1.06.86,2.89,2.2,3.19.12.03.25.04.38.04.69,0,1.39-.44,2.06-1.3.88-1.1,1.66-2.31,2.34-3.6,0,1.1.05,2.23.11,3.48.03.35.16,1.99,1.09,2.64-.16,1.55-.65,3.05-1.46,4.39-.49-.61-.79-1.35-.85-2.11-.02-.33-.29-.58-.61-.58h-.01c-.33,0-.6.26-.61.59-.16,2.91-1.23,5.81-3,8.15-.29.4-.64.64-.79.58-.15-.06-.28-.46-.33-.63l-1.61-5.4c-.1-.3-.4-.49-.7-.44-.31.05-.54.33-.53.64.05,1.24-.51,4.56-1.01,4.83-.15-.06-.4-.41-.84-1.7l-.11-.31c-.1-.26-.35-.43-.63-.41-.28.02-.5.21-.58.49-.53,2.23-1.66,4.44-3.3,6.38-.21.25-.3.29-.3.3-.01-.01-.09-.07-.2-.32-.49-1.05-.78-2.16-.85-3.3-.03-.34-.3-.59-.63-.59s-.6.25-.62.58c-.19,2.44-1.4,5.06-3.41,7.38-.26.29-.56.4-.55.4-.03-.01-.08-.1-.13-.45l-.32-2.73c-.04-.3-.3-.54-.6-.55-.31-.03-.58.2-.64.51-.35,1.79-1.19,3.33-2.06,4.96-.19.35-.45.75-.75.83-.24.05-.58-.12-.76-.43-.24-.36-.31-.84-.38-1.34-.04-.31-.3-.55-.61-.55h-.01c-.31,0-.58.22-.61.54-.09.55-.64,1.24-1.08,1.79l-.24.29c-.33.43-1.01.69-1.4.39-.25-.18-.38-.54-.53-.96-.15-.46-.34-1-.75-1.41-.16-.16-.4-.23-.61-.16-.23.06-.39.24-.44.46-.32,1.41-.86,2.79-1.59,4.05-.21.36-.46.74-.78.83-.34.09-.75-.19-.95-.51-.26-.45-.34-1.04-.4-1.6-.03-.29-.24-.51-.53-.55-.28-.05-.55.11-.66.37-.39.89-.93,1.71-1.6,2.44-.05.05-.12.14-.2.19-.09.06-.15.15-.19.24-.66-.18-1.38-.24-2.15-.14-.64.09-1.25.18-1.85.26-2.03.31-3.78.58-5.89.21-.69-.12-1.35-.25-2-.38-2.95-.59-5.75-1.14-9.1-.15-1.08.31-1.94.88-2.5,1.61-.14-.09-.28-.14-.43-.18-.4-.1-1-.1-1.68.46-.43.35-.69.81-.86,1.26Z" />
    <path class="cls-5"
      d="M58.12,101.32c-1.79,5.65-2.34,9.43-1.68,11.89-.99-.5-2-.91-3.03-1.21-2.75-.8-4.93-.9-6.59-.31,1-1.88,2.11-3.7,3.48-5.33,2.26-2.69,5.01-4.45,7.81-5.04Z" />
    <path class="cls-1"
      d="M132.5,67.42l-.24-.33c-1.9-2.81-2.6-6.28-3.28-9.63-.1-.48-.19-.95-.29-1.44-.4-1.89-.86-3.76-1.58-5.45-3.13-7.33-8.49-12.8-12.82-16.75-3.88-3.53-10.69-4.34-15.12-4.45.2.14.39.28.56.41.28.21.31.61.1.88-.21.28-.61.31-.88.1-.05-.05-.11-.09-.17-.13-.07-.06-.15-.12-.21-.18-1.14-.8-2.71-1.6-4.41-2.16h-.03c-3-.99-6.35-1.21-8.1.59-.85.88-1.29,2.08-1.7,3.34-.74,2.34-2.91,3.98-4.83,5.43-.59.44-1.16.87-1.68,1.31-3.25,2.78-5.85,4.75-8.41,6.4-4.24,2.74-9.69,5.83-14.45,5.71-3.54-.11-7.03-.51-10.28-1.18l.29.11c1.49.58,4.04,1.58,6.75,2.16.76.18,1.53.31,2.29.4.04.01.06.01.1.01.6.07,1.19.12,1.75.15,1.25.05,2.38,0,3.26-.12-.88.3-2.08.51-3.4.59-1.3.1-2.73.06-4.13-.15-2.84-.38-5.53-1.28-7.08-1.86l-.99-.39-.98-.39c-1.54-.61-4.04-1.79-6.63-2.84-1.28-.53-2.61-.94-3.86-1.04-.09,0-.17-.01-.25-.01-.5.07-.98.22-1.39.53-1.8,1.29-3.44,2.65-4.9,4.09-3.89,3.83-7.08,8.68-9.21,14.03-1.04,2.63-1.83,5.34-2.34,8.09l-.19.95c-.3,1.56-.6,3.16-.69,4.75-.02.29-.02.55-.04.8,0,.23-.01.44-.01.63v.91s0,.9,0,.9c.03,1.25.1,3.31.36,5.48.03.25.05.5.09.75.33,2.44.89,4.89,1.28,6.46-.7-1.45-1.58-3.84-2.14-6.28-.58-2.44-.81-4.91-.84-6.38v-.94s0-.95,0-.95c0-.2.01-.44.03-.68v-.05c.01-1.33.2-2.65.43-3.95-2.15,4.23-3.83,8.79-4.99,13.62-1.03,4.28-.6,9.04-.2,13.64.2,2.29.41,4.66.43,6.91.03,2.76-.24,5.6-.49,8.34-.35,3.69-.7,7.5-.34,11.11,2.01,20.39,16.45,41.13,39.61,56.91,2.16,1.48,4.34,2.88,6.51,4.18,5.06,3.08,10.19,5.73,15.5,8.04,1.44.62,2.73,1.14,4.01.95,2.66-.35,3.96-3.43,4.29-4.35,2.04-5.71,3.64-11.75,5.18-17.59.76-2.93,1.56-5.95,2.41-8.89,1.3-4.54,2.65-9.24,3.19-13.99-6.43-2.04-12.45-3.34-18.24-3.95-.07-.01-.16-.01-.24-.03h-.06c-.83-.03-1.65-.01-2.43.11-.76.13-1.48.43-1.9.93-.44.49-.6,1.19-.78,1.9-.15.71-.4,1.49-.8,2.1-.4.57-.83,1.05-1.23,1.36-.98.83-2.05,1.4-3.04,2.01-.98.61-1.93,1.25-2.46,2.11-.55.85-.66,1.89-.36,2.91.26,1.04.88,1.98,1.58,2.89.56.73,1.43,1.75,2.26,2.99.85,1.24,1.71,2.7,2.45,4.23,1.51,3.04,2.48,6.38,2.81,8.54-.66-2.08-1.9-5.24-3.56-8.1-.83-1.43-1.74-2.79-2.61-3.96-.86-1.18-1.71-2.13-2.34-2.93-.74-.96-1.46-2.05-1.8-3.33-.16-.63-.25-1.3-.18-1.99.09-.68.33-1.36.7-1.91.74-1.16,1.85-1.88,2.85-2.51,1.03-.64,2.06-1.19,2.89-1.9.36-.29.7-.66,1.03-1.1.31-.46.51-1.01.71-1.75.21-.7.45-1.6,1.16-2.3.26-.26.55-.46.86-.61-5.64-.36-11.48-.75-16.12-4.1-3.64-2.63-4.99-6.5-5.68-10.16h0c-.11-.44-.2-.83-.25-1.14l-.09-.54-.06-.54c-.11-.85-.16-2.29,0-3.73.15-1.44.51-2.86.85-3.74,0,.95-.05,2.39.04,3.79.06,1.39.25,2.74.35,3.53l.06.51.03.12c.04.06.06.14.08.21.63,3.96,1.71,8,5.4,10.66,4.38,3.15,10.06,3.51,15.55,3.86,1.48.1,2.99.2,4.44.35,5.91.62,12.06,1.96,18.62,4.04.08-.03.16-.04.25-.03.19.03.34.11.44.25,2.93.95,5.94,2.05,9.05,3.3.84.34,1.66.73,2.49,1.11,1.78.84,3.46,1.64,5.34,1.96,2.78.5,6.58.51,9.9.03,1.89-.26,4.55-.99,6.51-2.88,1.75-1.68,2.68-4,3.64-6.64.75-2.06,1.48-4.13,2.19-6.2.09-.24.18-.49.21-.74-.01.03-.04.03-.06.04-5.65,1.81-11.54,1.96-17.24,2.11-.79.01-1.59.04-2.39.06-.24,0-.49.01-.74.01-5.63,0-11-2.01-15.6-5.83-1.89-1.58-3.55-3.45-5.15-5.26-1.73-1.96-3.53-3.99-5.56-5.56-1.78-1.36-4.26-1.68-6.89-1.99-2.09-.26-4.25-.53-6.08-1.38-2.48-1.15-3.76-2.98-5.03-4.75-.53-.74-1.08-1.51-1.71-2.24-1.16-1.33-2.46-2.48-3.84-3.41-1.46-.99-3-1.74-4.55-2.19-3.55-1.03-5.95-.81-7.34.64h-.01c-.21.45-.43.88-.64,1.31-.06.14-.18.25-.31.3-.68,1.46-1.79,3.95-2.4,5.23.05-1.65.93-5.03,1.54-6.31l.19-.44.19-.41c.3-.7.98-1.84,1.73-2.93.96-1.76,2.04-3.48,3.35-5.03,2.6-3.1,5.85-5.08,9.14-5.58,2.11-.31,4.25-.04,6.3.23,1.66.22,3.4.44,5.06.34,6.09-.41,9.71-4.55,13.57-8.94l1.08-1.23c1.54-1.73,3-3.55,4.43-5.33,2.44-3.04,4.94-6.14,7.85-8.85,1.28-1.19,2.61-2.3,4.08-3.3,5.44-3.73,11.85-6.14,18.39-6.95,1.31-.17,2.64-.28,3.96-.31,2.69-.06,8.55,1.64,10.19,4.74.05-.16.09-.35.11-.58.07-.79-.45-1.56-1.01-2.38ZM95.62,144.6c1.74.93,3.54,1.56,4.59,1.91l.69.24.7.19c1.08.31,2.91.8,4.86,1.03,1.95.26,3.98.25,5.29.21-1.25.38-3.29.7-5.31.68-2.04-.01-4.03-.38-5.18-.7l-.73-.21-.73-.24c-1.13-.38-2.98-1.2-4.65-2.35-1.7-1.13-3.19-2.56-4-3.58,1.06.78,2.71,1.94,4.46,2.83ZM62.62,122.97c1.2,1.36,2.68,2.34,3.55,2.86.19.11.38.24.58.33l.59.31c.91.46,2.55,1.14,4.34,1.48,1.78.35,3.68.31,4.9.18-1.14.48-3.06.83-4.99.7-1.93-.13-3.78-.71-4.79-1.23l-.65-.34c-.21-.1-.43-.24-.63-.36-.98-.58-2.51-1.79-3.6-3.39-1.08-1.58-1.96-3.2-2.81-4.1,1.08.64,2.31,2.2,3.51,3.56ZM99.18,63.01s-.46-.61-1.15-1.65c-.7-1.04-1.6-2.5-2.45-4.16-1.71-3.26-3.03-7.39-3.46-9.83-1.06.15-2.05.16-2.7.11l-.56-.04-.56-.07c-.88-.11-2.33-.46-3.69-1.1-1.38-.61-2.61-1.5-3.3-2.16.87.39,2.24.98,3.61,1.35,1.38.39,2.75.58,3.55.68l.51.06.53.04c.8.07,2.19.16,3.61.06,1.43-.08,2.86-.37,3.81-.58-.8.5-2.16,1.1-3.59,1.43.41,2.36,1.4,6.44,2.81,9.79.69,1.71,1.45,3.23,2.04,4.33.59,1.09.99,1.75.99,1.75ZM94.18,41.98s0,.05-.01.07c.18-.01.35-.04.53-.06.85-.13,1.61-.41,2.1-.73.43-.29.64-.58.68-.65-.02.09-.16.41-.55.8-.44.44-1.19.89-2.08,1.19-1.38.49-3.04.55-4.28.38-2.5-.11-4.99-.51-7.39-1.19-.26-.07-.55-.17-.7-.39-.19-.24-.1-.59.1-.81,2.2-2.46,9.39-2.09,11.28.54.19.26.35.55.33.85ZM43.39,65.25c.38,2.33-1.43,4.23-2.54,5.15-2.73,2.28-6.11,3.54-9.25,3.54-.71,0-1.4-.06-2.08-.19-1.81-.36-3.31-1.31-4.11-2.6-.16-.26-.3-.54-.4-.84-.05.25-.11.5-.16.76-.2,1.06-.4,2.15-.53,2.86-.2-.7-.35-1.83-.35-2.94-.01-1.11.12-2.21.26-2.85l.09-.4.1-.4c.1-.37.26-.89.5-1.44,0-.04.03-.07.04-.11.85-3.41,3.29-5.75,6.64-6.25-.79-.12-1.68-.21-2.58-.21-1.88-.03-3.76.59-4.85,1.26.86-.94,2.75-1.93,4.78-2.14,2-.26,3.99.05,5.11.33l.73.19.7.2c1.11.33,2.9,1.05,4.69,1.75,1.79.71,3.65,1.26,4.9,1.53-.99.06-2.41-.08-3.89-.39,1.28.93,2.01,1.99,2.2,3.19ZM25.48,101.97l.33-.69.36-.68c.55-1.03,1.66-2.71,3.08-4.16,1.4-1.49,3.08-2.71,4.21-3.35-.94.91-2.35,2.34-3.53,3.9-1.19,1.55-2.14,3.21-2.66,4.21l-.35.64-.3.65c-.49,1.01-1.26,2.76-1.79,4.65-.28.93-.49,1.88-.64,2.76-.01.01-.01.03-.01.04v.29s-.03.85-.03.85c-.02,1.3-.04,3.54.2,5.83.23,2.29.69,4.6,1.01,6.09-.64-1.38-1.43-3.63-1.88-5.93-.48-2.3-.61-4.63-.59-6v-.88s.06-.89.06-.89c.08-1.38.39-3.68,1.04-5.94.63-2.26,1.58-4.45,2.31-5.76-.43,1.43-1.04,3.61-1.44,5.81.21-.58.41-1.06.6-1.45ZM25.51,157.27l-.61-.78-.59-.8c-1.18-1.58-2.99-4.38-4.46-7.41-1.5-3.03-2.66-6.25-3.23-8.35.89,2,2.34,5.1,4.03,7.96,1.65,2.89,3.54,5.55,4.68,7.06l.58.79.6.76c1.15,1.5,3.19,4.04,5.51,6.43,2.31,2.4,4.89,4.64,6.56,6.05-1.86-1.13-4.65-3.13-7.14-5.4-2.51-2.24-4.73-4.74-5.93-6.31ZM43.99,74.02c-.36.84-.69,1.63-1.03,2.29-.01.03-.01.05-.02.06-.63,1.51-1.41,3.1-1.95,3.9l-.28.43-.28.43c-.83,1.33-3.26,4.14-4.65,5.2.89-1.51,2.83-4.63,3.61-5.89l.26-.41.26-.41c.09-.12.19-.28.29-.44-.71.28-1.55.41-2.4.53-1.21.16-2.68.35-4.1.31-2.89-.03-5.73-.78-7.39-1.54,1.79.44,4.64.86,7.4.65,1.39-.08,2.69-.34,3.94-.58,1.21-.2,2.21-.48,2.71-.84.23-.16.44-.36.63-.61.2-.24.37-.5.55-.79.39-.64.83-1.63,1.39-2.75.56-1.11,1.19-2.36,1.81-3.61,1.29-2.51,2.63-5.06,3.55-6.66-.61,1.74-1.66,4.4-2.74,7-.55,1.3-1.09,2.59-1.58,3.74ZM48.54,73.41l-.19.41c-.57,1.24-2.25,4.14-3.21,5.41.34-1.56,1.49-4.68,2.08-5.95l.2-.4.19-.41c.59-1.26,2.24-4.15,3.21-5.41-.36,1.56-1.5,4.7-2.09,5.95l-.19.4ZM67.73,93.48c-1.11.89-2.35,1.56-3.11,1.9l-.5.2-.5.2c-.5.2-1.25.41-2.1.58.85.09,1.83.18,2.8.26,1.78.16,3.59.19,4.78.15-1.11.38-2.96.66-4.78.73-1.81.08-3.59.03-4.63-.01l-.66-.03-.66-.03c-1.04-.01-2.78-.11-4.53.03-1.75.1-3.51.5-4.64.88.98-.68,2.73-1.41,4.54-1.75,1.61-.32,3.2-.4,4.26-.4.61-.12,1.28-.28,1.91-.46,1.31-.35,2.55-.84,3.26-1.11l.47-.18.46-.2c.7-.3,1.93-.81,3.11-1.48,1.2-.65,2.36-1.45,3.13-1.96-.53.75-1.5,1.81-2.63,2.69ZM79.37,49.02c.84.39,2.06,1.15,3.15,2.08,1.09.91,2.03,1.96,2.5,2.63l.32.43.29.44c.46.68,1.14,1.93,1.61,3.26.49,1.34.79,2.75.86,3.68-.4-.83-.99-2.11-1.66-3.3-.66-1.19-1.4-2.29-1.85-2.94l-.28-.43-.3-.4c-.46-.64-1.24-1.73-2.14-2.75-.88-1.04-1.88-2.03-2.51-2.69ZM100.37,66.54c-2.83,1.74-5.21,3.93-6.51,5.28-.7.71-1.36,1.46-1.99,2.24-.61.79-1.21,1.59-1.76,2.43-1.06,1.55-2.69,4.38-4.44,7.26-1.73,2.89-3.86,5.64-5.51,7.09,1.4-1.68,3.21-4.53,4.73-7.49.75-1.46,1.53-2.94,2.23-4.24.01-.01.01-.03.03-.04.09-.26.19-.54.28-.81.58-1.73.95-3.46,1.15-4.5l.14-.66.1-.68c.16-1.04.43-2.8.48-4.63.07-1.83-.06-3.69-.15-4.9.43,1.14.88,3.01,1.04,4.9.18,1.89.05,3.75-.12,4.81l-.11.7-.14.7c-.06.33-.16.73-.29,1.16.44-.65.91-1.28,1.4-1.9.65-.81,1.35-1.59,2.08-2.33,1.38-1.44,3.98-3.6,6.99-5.19,2.99-1.63,6.31-2.61,8.46-2.95-2.09.68-5.26,1.94-8.05,3.74ZM125.52,62.36c-1.25-.36-2.49-.58-3.21-.7l-.46-.09-.48-.06c-.73-.11-1.96-.3-3.26-.36-1.29-.06-2.63-.01-3.5.03.79-.36,2.11-.74,3.46-.9,1.34-.16,2.69-.11,3.48,0l.15.03c.15-2.05.05-4.79-.74-7.66-.8-3.11-2.44-6.3-4.46-8.86-2.04-2.56-4.38-4.53-6.2-5.76-.9-.63-1.68-1.08-2.21-1.39-.25-.14-.45-.25-.59-.34.15.06.35.16.61.29.55.29,1.35.7,2.3,1.28,1.89,1.15,4.36,3,6.56,5.53,2.2,2.53,4.05,5.75,5,8.98.95,3.03,1.13,6,.98,8.18.78.17,1.86.51,2.89,1.01,1.23.58,2.36,1.36,3,1.95-.83-.31-2.06-.79-3.31-1.13Z" />
    <path class="cls-3"
      d="M52.81,190.39c-2.18-1.3-4.35-2.7-6.51-4.18-23.15-15.78-37.6-36.52-39.61-56.91-.36-3.61-.01-7.43.34-11.11.25-2.74.51-5.58.49-8.34-.01-2.25-.22-4.63-.43-6.91-.4-4.6-.83-9.36.2-13.64,1.16-4.83,2.84-9.39,4.99-13.62-.22,1.3-.41,2.63-.43,3.95v.05c-.01.24-.03.48-.03.68v.95s0,.49,0,.49c-3.91,9.41-.81,19.65-3.03,29.77-3.58,16.19,1.96,33.34,11.43,46.95,8.71,12.53,20.49,22.52,32.58,31.88Z" />
    <path class="cls-3"
      d="M55.74,53.21s.09.04.13.05c-2.4-.78-6.21.61-8.77.38-2.86-.25-5.91-1.62-8.66-2.44-2.36-.7-4.83-1.41-7.26-.96-4.13.76-6.78,4.37-8.72,7.8-2.14,3.79-4.36,7.94-5.95,11.99-2.07,5.29-3.77,11.92-3.08,17.65-.26-2.16-.34-4.23-.36-5.48v-.9s0-.91,0-.91c0-.19.01-.4.01-.63.01-.25.01-.51.04-.8.09-1.59.39-3.19.69-4.75l.19-.95c.51-2.75,1.3-5.46,2.34-8.09,2.14-5.35,5.33-10.2,9.21-14.03,1.46-1.44,3.1-2.8,4.9-4.09.41-.3.89-.45,1.39-.53.08,0,.16.01.25.01,1.25.1,2.59.51,3.86,1.04,2.59,1.05,5.09,2.23,6.63,2.84l.98.39.99.39c1.55.59,4.24,1.49,7.08,1.86,1.4.21,2.83.25,4.13.15Z" />
    <path class="cls-3"
      d="M94.15,28.3c-.45-.03-.95,0-1.51.05-2.44.24-4.93,1.18-6.55,3.08-2.96,3.46-4.83,7.4-8.31,10.56-3.33,3.03-7.16,5.51-11.29,7.31-2.26.99-7.2,3.24-10.6,3.44-.65.04-1.25,0-1.75-.15-.1-.01-.19-.04-.28-.08.06.03.11.04.18.06-.76-.09-1.53-.22-2.29-.4-2.71-.59-5.26-1.59-6.75-2.16l-.29-.11c3.25.66,6.74,1.06,10.28,1.18,4.76.11,10.21-2.98,14.45-5.71,2.56-1.65,5.16-3.63,8.41-6.4.51-.44,1.09-.88,1.68-1.31,1.91-1.45,4.09-3.09,4.83-5.43.41-1.26.85-2.46,1.7-3.34,1.75-1.8,5.1-1.58,8.1-.59Z" />
    <path class="cls-3"
      d="M128.7,56.03c-3.36-6.01-7.04-11.84-11.01-17.47-2.03-2.86-4.56-4.81-7.89-6.13-1.81-.71-3.74-1.13-5.68-1.35-.89-.1-4.38.34-4.95-.15-.12-.1-.25-.21-.36-.3.06.04.12.08.17.13.26.21.66.18.88-.1.21-.26.18-.66-.1-.88-.18-.14-.36-.28-.56-.41,4.43.11,11.24.93,15.12,4.45,4.33,3.95,9.69,9.43,12.82,16.75.71,1.69,1.18,3.56,1.58,5.45Z" />
    <path class="cls-3"
      d="M36.37,167.15c-2.37-3.06-5.72-5.21-8.24-8.16-2.53-2.95-4.72-6.12-6.71-9.45-.91-1.53-1.85-3.06-2.63-4.65-.49-1-1.01-4.42-1.67-5.02,1.23,1.11,2.04,2.93,2.95,4.33,1.71,2.62,3.45,5.22,5.23,7.8,3.55,5.15,7.25,10.2,11.08,15.15Z" />
    <path class="cls-3"
      d="M25.9,102.72c2.1-4.14,5.33-7.6,8.71-10.78-3.72,2.79-6.34,9.38-7.84,13.62-1.79,5.04-2.67,10.43-2.49,15.78.02-6.62-1.59-12.3,1.62-18.61Z" />
    <path class="cls-3"
      d="M47.98,64.29c-.65,3.69-1.31,7.4-2.68,10.88-1.36,3.44-3.38,6.32-6.62,8.23,3.43-6.26,6.82-12.38,9.31-19.11Z" />
    <path class="cls-3"
      d="M51.42,66.02c-.25,4.9-2.08,9.71-5.15,13.55-.16-2.34.84-4.33,1.73-6.41.81-1.89,3.31-5.17,3.42-7.14Z" />
    <path class="cls-3"
      d="M52.61,112.07c-1.97-.44-4.36-.2-6.28.35-1.99.57-3.37,2.74-3.04,4.78,2.74-1.12,4.49-2.52,7.64-2.28,2.91.22,5.65,1.5,7.84,3.4,2.09,1.82,2.91,4.3,4.63,6.25,2.32,2.61,6.44,3.36,9.71,3.77,3.95.5,7.4,2.5,10.35,5.11,3.49,3.09,6.35,6.84,9.95,9.8,9,7.4,25.21,6.38,34.62.06-5.78,1.13-11.62,2.27-17.51,2.17-5.89-.1-11.93-1.54-16.62-5.11-5.41-4.11-8.86-10.86-15.15-13.44-2.96-1.22-6.29-1.37-9.22-2.66-3.22-1.41-5.69-4.06-8.19-6.53-2.5-2.46-5.29-4.89-8.72-5.66Z" />
    <path class="cls-3"
      d="M43.31,108.75c1.35-4.46,5.18-7.87,9.5-9.62s9.09-2.04,13.75-1.85c-5.2-.17-11.2-.4-16.32.58-2.03.39-3.6,2.23-4.7,3.87-1.56,2.33-1.46,4.51-2.23,7.02Z" />
    <path class="cls-3"
      d="M107.58,64.55c7.04-2.44,14.91-3,21.93-.48-4.08-3.71-12.75-4.31-22.81-.83-5.33,1.85-10.59,4.84-14.28,9.1-4.65,5.37-7.29,12.25-11.7,17.87,4.09-5.21,8.51-9.8,11.93-15.56,2.95-4.96,9.6-8.26,14.93-10.1Z" />
    <path class="cls-2"
      d="M133.81,71.29c0,.26,0,.54-.01.8-.04.05-.09.11-.14.16-.17.18-.43.24-.66.16-.22-.07-.4-.29-.41-.54,0-.06-.01-.13-.03-.19v-.37c0-.35.28-.63.63-.64.36.05.62.28.62.61Z" />
    <path class="cls-2" d="M128.88,68.26c-.35-.16-.71-.3-1.09-.44.13-.13.29-.2.46-.2h.01c.35.01.63.29.61.64Z" />
    <path class="cls-2"
      d="M128.25,142.83c.1.31-.05.64-.34.75.06-.2.07-.39.06-.58,0-.14-.05-.29-.12-.41.04-.04.05-.09.05-.12h0c.16.05.3.19.35.36Z" />
    <path class="cls-2" d="M127.9,142.46s-.01.09-.05.12c-.02-.06-.08-.12-.12-.18.06,0,.12.01.18.04h0Z" />
    <path class="cls-2"
      d="M127.75,84.79l.02-.11c.08.03.24-.03.51-.25,1.46-1.29,2.41-3.71,3.15-5.93.75-2.23,1.13-4.51,1.13-6.81.01.06.03.13.03.19.01.25.19.46.41.54.24.07.49.01.66-.16.05-.05.1-.11.14-.16-.04,2.3-.44,4.59-1.18,6.8-.83,2.5-1.83,5-3.53,6.48-.31.27-.6.43-.86.5.03-.14.04-.29.05-.43.03-.33-.21-.61-.54-.65Z" />
    <path class="cls-2"
      d="M127.01,85.65c.01-.1.01-.2.02-.3.03-.35.33-.6.68-.58.01,0,.03,0,.04.01.33.04.56.32.54.65-.01.14-.03.29-.05.43-.15.05-.29.06-.41.06-.21,0-.39-.04-.53-.1-.1-.04-.2-.1-.29-.18Z" />
    <path class="cls-2"
      d="M127.2,143.01c-.22-.04-.4-.18-.49-.36.26-.06.51-.15.76-.23.07-.03.16-.04.24-.01.01-.01.01,0,.01,0,.05.05.1.11.12.18-.06.25-.3.43-.58.43h-.08Z" />
    <path class="cls-2"
      d="M127.15,141.53c.1-.33.46-.51.79-.4t.03.01c0,.44-.01.87-.06,1.31-.05-.03-.11-.04-.18-.04,0,0,0-.01-.01,0-.05-.05-.1-.09-.16-.1-.33-.11-.51-.46-.4-.79Z" />
    <path class="cls-2"
      d="M127.03,85.35c-.01.1-.01.2-.02.3-.93-.65-1.06-2.29-1.09-2.64-.06-1.25-.11-2.38-.11-3.48.5-.91.94-1.88,1.31-2.85.03.07.03.15.03.24-.15,1.89-.09,3.78.02,6.03.05.86.36,1.61.6,1.73l-.02.11s-.03-.01-.04-.01c-.35-.03-.65.22-.68.58Z" />
    <path class="cls-2"
      d="M125.83,76.55c1.1-2.71,1.75-5.6,1.8-8.31,0-.16.08-.3.16-.41.38.14.74.28,1.09.44h0c-.05,2.75-.69,5.68-1.76,8.43-.08-.24-.28-.41-.55-.44-.24-.02-.49.13-.61.34l-.13-.04Z" />
    <path class="cls-2"
      d="M127.12,76.69c-.38.98-.81,1.94-1.31,2.85-.01-.93.01-1.81.09-2.71,0-.09.03-.16.06-.24.13-.21.38-.36.61-.34.28.03.48.2.55.44Z" />
    <path class="cls-2"
      d="M121.7,60.3l.35.04.5.1c.13.02.25.05.4.09-.01.12-.03.26-.04.39-.06.68-1.3.51-1.25-.11.01-.16.03-.33.04-.5Z" />
    <path class="cls-2"
      d="M121.47,136.88c-.14,0-.28-.05-.38-.13h0s.53-2.36.53-2.36c.3.96.46,1.74.46,1.75.06.34-.16.66-.5.73-.04.01-.07.01-.11.01Z" />
    <path class="cls-2"
      d="M120.48,142.41c-.34-.07-.55-.41-.48-.75l.48-2.16c.3.76.55,1.55.76,2.33l-.03.11c-.07.33-.39.55-.74.48Z" />
    <path class="cls-2"
      d="M121.1,136.75c.1.08.24.13.38.13.04,0,.08,0,.11-.01.34-.06.56-.39.5-.73,0-.01-.16-.79-.46-1.75l.15-.7c.04-.2.13-.56.45-.81.49-.36,1.16-.26,1.79.26,2.43,2.03,3.88,5,3.95,8t-.03-.01c-.33-.11-.69.07-.79.4-.11.33.07.68.4.79.06.01.11.05.16.1-.08-.03-.16-.01-.24.01-.25.07-.5.16-.76.23-.05-.1-.07-.21-.06-.34.35-3.01-.96-6.16-3.44-8.23-.09-.06-.16-.11-.21-.14t-.01.01l-1.74,7.86c-.21-.78-.46-1.56-.76-2.33l.61-2.75Z" />
    <path class="cls-2"
      d="M118.43,78.53c.64-2.16,1.09-4.63,1.31-7.11.01.06.03.12.03.2-.03.56-.05,1.13-.07,1.69-.1,2.55-.21,5.19.35,7.63.34,1.44.87,2.16,1.26,2.25.29.06.73-.23,1.19-.81,1.35-1.7,2.48-3.7,3.34-5.81l.13.04c-.04.07-.06.15-.06.24-.07.9-.1,1.79-.09,2.71-.68,1.29-1.46,2.5-2.34,3.6-.68.86-1.38,1.3-2.06,1.3-.12,0-.25-.01-.38-.04-1.34-.3-1.96-2.13-2.2-3.19-.21-.89-.34-1.79-.4-2.69Z" />
    <path class="cls-2"
      d="M118.43,78.53c-.14-1.76-.06-3.54.03-5.28.02-.56.04-1.13.06-1.68.01-.35.25-.61.64-.61.28.01.51.2.59.45-.22,2.49-.68,4.95-1.31,7.11Z" />
    <path class="cls-2"
      d="M119.16,70.96c-.39,0-.62.26-.64.61h-.05c.15-1.45.21-2.91.19-4.29.41-.06.84-.12,1.25-.16.04,1.39-.03,2.85-.16,4.29-.07-.25-.31-.44-.59-.45Z" />
    <path class="cls-2"
      d="M119.91,67.12c-.41.04-.84.1-1.25.16.01-.12,0-.24,0-.36-.01-.35.26-.64.61-.65h.01c.34,0,.61.28.63.61v.24Z" />
    <path class="cls-2"
      d="M118.11,61.15c-1.29-.06-2.63-.01-3.5.03.79-.36,2.11-.74,3.46-.9,1.34-.16,2.69-.11,3.48,0l.15.03c-.01.18-.03.34-.04.5-.05.63,1.19.79,1.25.11.01-.12.02-.26.04-.39.78.17,1.86.51,2.89,1.01,1.23.58,2.36,1.36,3,1.95-.83-.31-2.06-.79-3.31-1.13-1.25-.36-2.49-.58-3.21-.7l-.46-.09-.48-.06c-.73-.11-1.96-.3-3.26-.36Z" />
    <path class="cls-2"
      d="M116.83,138.99c-.21-.41-.44-.8-.69-1.18.15-.45.44-1.01,1.04-1.26.53-.21,1.16-.11,1.66.26.4.29.66.69.86,1.05.3.54.56,1.09.78,1.64l-.48,2.16c-.08.34.14.68.48.75.35.08.66-.15.74-.48l.03-.11c.09.29.18.59.25.88.09.32-.09.65-.4.76-.32.1-.66-.06-.79-.38l-.08-.19c-.03-.08-.04-.15-.04-.23-.4-1.44-.84-2.9-1.58-4.2-.14-.25-.3-.5-.51-.66-.15-.1-.34-.15-.45-.1-.22.09-.35.6-.4.81-.07.31-.16.62-.26.94l-.11-.04c.04-.14.03-.3-.05-.44Z" />
    <path class="cls-2"
      d="M115.69,139.48c.13-.41.25-.83.35-1.25.03-.11.06-.25.1-.41.25.37.48.76.69,1.18.07.14.09.3.05.44-.05.18-.16.31-.33.4-.09.04-.19.06-.28.06-.24,0-.45-.12-.56-.35-.01-.01-.01-.04-.03-.05h0Z" />
    <path class="cls-2"
      d="M110.29,38.01c-.9-.63-1.68-1.08-2.21-1.39-.34-.19-.59-.33-.73-.4.15.06.4.19.75.35.55.29,1.35.7,2.3,1.28,1.89,1.15,4.36,3,6.56,5.53,2.2,2.53,4.05,5.75,5,8.98.95,3.03,1.13,6,.98,8.18-.15-.04-.28-.06-.4-.09l-.5-.1-.35-.04c.15-2.05.05-4.79-.74-7.66-.8-3.11-2.44-6.3-4.46-8.86-2.04-2.56-4.38-4.53-6.2-5.76Z" />
    <path class="cls-2"
      d="M108.67,140.63c.41-.84.88-1.65,1.39-2.43.19-.3.56-.86,1.2-1.05.5-.15,1.08-.04,1.56.3.38.28.64.64.85.96.6.9,1.1,1.85,1.48,2.84.05-.18.11-.34.16-.51.12-.41.26-.83.39-1.25.01.01.01.04.03.05.11.23.33.35.56.35.09,0,.19-.02.28-.06.16-.09.28-.23.33-.4l.11.04c-.15.55-.33,1.1-.5,1.65-.26.84-.53,1.68-.73,2.51-.08.28-.33.48-.61.48h-.01c-.29,0-.54-.21-.6-.49-.35-1.61-.99-3.13-1.91-4.5-.16-.24-.34-.49-.54-.64-.16-.11-.35-.16-.48-.14-.19.06-.36.3-.53.55-.72,1.13-1.36,2.31-1.88,3.55-.06.15-.19.26-.32.31-.04-.71-.11-1.43-.23-2.13Z" />
    <path class="cls-2"
      d="M110.72,86.2c-.7-1.4-1.29-2.85-1.76-4.31-.15-.46-.28-.93-.4-1.39.28-1.59.41-3.2.41-4.81.18,1.98.58,3.91,1.19,5.83.44,1.4,1,2.79,1.68,4.13.4.8.76,1.09.95,1.1.16-.01.45-.19.8-.76.96-1.59,2.08-3.49,2.9-5.54.96-2.39,1.66-5.63,1.99-8.86h.05c-.02.55-.04,1.11-.06,1.68-.09,1.74-.16,3.51-.03,5.28-.24.85-.5,1.64-.8,2.38-.85,2.14-1.99,4.1-2.99,5.73-.55.9-1.18,1.36-1.85,1.36h-.06c-.75-.04-1.44-.64-2.01-1.79Z" />
    <path class="cls-2" d="M108.94,73.61c.04.69.05,1.39.03,2.08-.09-.79-.13-1.59-.13-2.39.06.09.09.2.1.31Z" />
    <path class="cls-2"
      d="M108.39,142.76c-.31-.12-.46-.5-.33-.81.19-.45.39-.89.6-1.33.11.7.19,1.41.23,2.13-.15.07-.33.09-.5.01Z" />
    <path class="cls-2"
      d="M107.69,73.67c-.01-.35.25-.64.6-.65.25-.01.44.1.55.28,0,.8.04,1.6.13,2.39,0,1.61-.14,3.23-.41,4.81-.43-1.58-.7-3.16-.84-4.76.02-.69.01-1.38-.03-2.06Z" />
    <path class="cls-2"
      d="M108.29,73.02c-.35.01-.61.3-.6.65.04.69.05,1.38.03,2.06-.1-.93-.14-1.86-.12-2.79,0-.34.29-.61.63-.61h.01c.34,0,.61.29.61.62v.34c-.11-.18-.3-.29-.55-.28Z" />
    <path class="cls-2"
      d="M97.92,28.1c5.46,0,12.88.84,17.23,4.81,4.43,4.03,9.9,9.63,13.13,17.17.95,2.24,1.45,4.73,1.94,7.14.65,3.23,1.33,6.58,3.09,9.16l.22.32c.64.93,1.36,1.96,1.23,3.21-.09.94-.31,1.46-.95,2.16.01-.26.01-.54.01-.8,0-.34-.26-.56-.62-.61-.35.01-.63.29-.63.64v.37c-.25-1.4-1.83-2.59-3.68-3.41h0c.01-.36-.26-.64-.61-.65h-.01c-.18,0-.34.07-.46.2-1.63-.6-3.31-.94-4.43-.94h-.14c-1.11.03-2.21.11-3.33.24v-.24c-.01-.34-.29-.61-.63-.61l-.04-.32c1.31-.18,2.64-.28,3.96-.31,2.69-.06,8.55,1.64,10.19,4.74.05-.16.09-.35.11-.58.07-.79-.45-1.56-1.01-2.38l-.24-.33c-1.9-2.81-2.6-6.28-3.28-9.63-.48-2.35-.96-4.78-1.86-6.89-3.13-7.33-8.49-12.8-12.82-16.75-3.88-3.53-10.69-4.34-15.12-4.45-.51-.36-1.1-.73-1.75-1.06.12-.12.29-.21.48-.21Z" />
    <path class="cls-2"
      d="M99.8,147.7c-1.13-.38-2.98-1.2-4.65-2.35-1.7-1.13-3.19-2.56-4-3.58,1.06.78,2.71,1.94,4.46,2.83,1.74.93,3.54,1.56,4.59,1.91l.69.24.7.19c1.08.31,2.91.8,4.86,1.03,1.95.26,3.98.25,5.29.21-1.25.38-3.29.7-5.31.68-2.04-.01-4.03-.38-5.18-.7l-.73-.21-.73-.24Z" />
    <path class="cls-2"
      d="M99.19,29.38c-.45-.02-.88-.02-1.28-.02-.35,0-.63-.28-.63-.63,0-.16.06-.3.15-.41.65.34,1.24.7,1.75,1.06Z" />
    <path class="cls-2"
      d="M99.22,84.31c-.6-1.3-1.11-2.64-1.55-4,.03-.26.24-.49.51-.53.34-.06.66.18.71.51.21,1.33.33,2.68.33,4.01Z" />
    <path class="cls-2"
      d="M97.92,76.51c.03.09.04.18.06.26-.35.33-.7.65-1.04.98-.09-.32-.16-.65-.24-.98-.04-.19.01-.37.12-.53.09-.1.21-.19.35-.21.34-.08.66.14.74.48Z" />
    <path class="cls-2"
      d="M97.67,80.31c-.28-.84-.51-1.7-.73-2.56.34-.32.69-.65,1.04-.98.98,4.23,2.66,8.25,5.05,11.97.37.58.74.85.99.84.26-.03.53-.33.79-.91,1.86-4.06,2.86-8.49,2.91-12.93.14,1.6.41,3.19.84,4.76-.46,2.99-1.34,5.93-2.61,8.69-.18.37-.7,1.54-1.84,1.63-.04.01-.09.01-.12.01-1.1,0-1.78-1.06-2-1.41-1.05-1.64-1.98-3.34-2.76-5.1,0-1.34-.11-2.69-.33-4.01-.05-.34-.38-.58-.71-.51-.27.04-.49.26-.51.53Z" />
    <path class="cls-2"
      d="M97.18,76.04c-.14.03-.26.11-.35.21l-.05-.05c1.28-1.19,2.61-2.3,4.08-3.3,5.44-3.73,11.85-6.14,18.39-6.95l.04.32h-.01c-.35.01-.63.3-.61.65,0,.13.01.24,0,.36-6.08.88-12.03,3.16-17.1,6.64-1.26.86-2.45,1.83-3.58,2.85-.03-.09-.04-.18-.06-.26-.08-.34-.4-.55-.74-.48Z" />
    <path class="cls-2" d="M95.38,122.13c.05.06.1.14.15.2-.06-.05-.11-.11-.15-.2Z" />
    <path class="cls-2"
      d="M95.03,85.66c.28,1.29.79,2.5,1.51,3.61.31.46.69.75.8.71.33-.36.4-1.73.44-2.3.01-.26.03-.5.05-.68.22-2.16.17-4.36-.16-6.51-.01-.06-.01-.13,0-.19.44,1.36.95,2.7,1.55,4,0,.95-.05,1.9-.15,2.84-.01.16-.03.38-.04.61-.08,1.29-.18,2.41-.69,2.99-.26.31-.63.49-1,.49-.03,0-.06-.01-.09-.01-.9-.05-1.58-.99-1.76-1.26-.17-.26-.34-.54-.49-.83.05-1.2.05-2.4-.03-3.6.03.04.04.07.05.12Z" />
    <path class="cls-2"
      d="M93.79,85.79c0-.29.21-.55.5-.61.29-.05.58.1.69.36.08,1.2.08,2.4.03,3.6-.56-1.01-.95-2.09-1.2-3.21-.01-.05-.01-.09-.01-.14Z" />
    <path class="cls-2"
      d="M93.74,85.79c-.05-1.09-.15-2.16-.29-3.25-.03-.18.04-.35.15-.48.1-.12.24-.2.39-.22.36-.04.66.2.7.55.14,1.05.24,2.1.29,3.15-.11-.26-.4-.41-.69-.36-.29.06-.5.33-.5.61h-.05Z" />
    <path class="cls-2"
      d="M95.58,57.2c-1.71-3.26-3.03-7.39-3.46-9.83.37-.04.75-.11,1.14-.2.03-.01.06-.01.09-.03.41,2.36,1.4,6.44,2.81,9.79.69,1.71,1.45,3.23,2.04,4.33.59,1.09.99,1.75.99,1.75,0,0-.46-.61-1.15-1.65-.7-1.04-1.6-2.5-2.45-4.16Z" />
    <path class="cls-2"
      d="M94.84,42.61c-1.38.49-3.04.55-4.28.38.5.02,1,.04,1.5.04.45,0,.91-.01,1.31-.16.39-.14.71-.44.79-.8.18-.01.35-.04.53-.06.85-.13,1.61-.41,2.1-.73.43-.29.64-.58.68-.65-.02.09-.16.41-.55.8-.44.44-1.19.89-2.08,1.19Z" />
    <path class="cls-2"
      d="M93.25,47.17c-.39.09-.76.16-1.14.2-.01-.05-.01-.09-.03-.13-.07-.36,1.15-.58,1.23-.22.01.04.01.07.02.12-.02.01-.06.01-.09.03Z" />
    <path class="cls-2"
      d="M91.09,116.46c.3.38.6.76.9,1.15-.14.04-.28.03-.4-.04-.19-.07-.32-.25-.36-.45-.04-.23-.09-.44-.14-.66Z" />
    <path class="cls-2"
      d="M90.56,42.98c-.35-.05-.68-.13-.94-.21-.19-.05.2-1.24.35-1.2.91.29,2.61.64,4.19.49-.07.36-.4.66-.79.8-.4.15-.86.16-1.31.16-.5,0-1-.01-1.5-.04Z" />
    <path class="cls-2"
      d="M89.09,114.2c-.31-.31-.64-.64-.98-.95.06-.13.15-.25.24-.38.35-.45.84-.7,1.35-.7.69.01,1.26.49,1.69,1.4.34.74.63,1.51.84,2.3.01-.02.03-.05.05-.06.54-.7,1.3-.98,1.95-.71.56.24.81.8.93,1.06.58,1.33.99,2.69,1.23,4.09.09-.1.19-.19.29-.28.19-.19.39-.37.56-.59.21-.24.49-.5.89-.59.37-.08,1.09-.04,1.7,1.05,1.01,1.76,1.71,3.74,2.03,5.75.09-.05.14-.12.18-.19.43-.91,1.14-1.39,1.86-1.23.78.18,1.09.96,1.23,1.3l.6,1.51c.2-.29.41-.56.62-.84.45-.58.88-1.13,1.2-1.75.19-.38.5-.99,1.14-1.24.78-.29,1.66.08,2.38.98,1.76,2.19,2.26,5.05,2.55,7.53.39-.56,1.1-1.01,1.81-.74.44.15.68.49.86.81.16.28.31.56.45.85.43-.93,1.03-1.79,1.65-1.99.26-.09.69-.14,1.15.15.95.56,1.66,2.28,2.1,3.63l-.53,2.35c-.12-.07-.21-.21-.24-.38-.2-1.09-1.13-4.03-1.98-4.53-.6.14-1.63,2.38-1.54,3.06.04.34-.21.65-.55.69-.34.05-.66-.2-.7-.54-.11-.94-.41-1.85-.9-2.66-.14-.24-.2-.28-.21-.28-.04-.03-.22.07-.36.3-.25.37-.6.51-.85.61-.11.05-.21.09-.28.14-.19.15-.43.19-.64.11-.21-.09-.36-.29-.4-.51-.28-2.51-.63-5.65-2.39-7.83-.28-.35-.7-.69-.95-.59-.19.07-.36.41-.48.63-.39.74-.86,1.36-1.33,1.95-.44.58-.86,1.11-1.19,1.75-.11.21-.33.37-.59.34-.24-.01-.46-.16-.55-.4l-1.05-2.68c-.19-.45-.29-.51-.33-.53-.09,0-.29.15-.47.53-.4.85-1.35,1.08-1.68,1.14-.16.05-.33.01-.46-.09-.01,0-.02,0-.04-.01-.02-.01-.04-.04-.06-.05-.1-.1-.18-.24-.19-.39-.24-2.11-.93-4.21-1.99-6.08-.19-.34-.34-.43-.38-.44,0,.01-.05.04-.18.19-.21.24-.43.45-.65.66-.44.41-.8.78-1,1.25-.11.26-.39.43-.68.39-.13-.02-.24-.07-.33-.18-.05-.06-.1-.14-.15-.2-.03-.06-.04-.12-.05-.2-.14-1.81-.59-3.59-1.33-5.28-.1-.24-.19-.38-.25-.4-.08-.04-.31.07-.49.31-.35.44-.64.69-1.1.98-.06.02-.11.05-.18.06-.3-.39-.6-.77-.9-1.15-.2-.8-.49-1.59-.84-2.35-.2-.43-.41-.69-.59-.69-.07.01-.22.09-.31.2-.11.15-.2.35-.26.58Z" />
    <path class="cls-2"
      d="M90.41,96.87c-.7-.74-1.33-1.54-1.84-2.4.12-1.01.12-1.93.01-2.73.61,1.56,1.54,3.03,2.73,4.26.24.25.6.6.93.58.55-.03.79-1.04.85-1.35.59-3.11.8-6.28.65-9.44h.05s0,.09.01.14c.25,1.13.64,2.2,1.2,3.21-.06,2.11-.3,4.23-.69,6.31-.28,1.46-1,2.33-2,2.38h-.1c-.78,0-1.38-.51-1.8-.96Z" />
    <path class="cls-2"
      d="M88.25,129.56c.3-.56.68-1.08,1.11-1.54.69-.72,1.38-1.01,2.04-.85,1.23.33,1.68,2.11,1.98,3.29.19.75.39,1.43.59,2.09.25.88.51,1.76.71,2.68l.4-.9c.14-.3.46-1.04,1.23-1.15.33-.06,1.15-.04,1.73,1.29.7,1.61,1.25,3.28,1.68,4.98.74-1.29,1.84-3.01,2.78-4.49.64-.98,1.4-2.03,2.41-2.05h.05c.55,0,1.05.3,1.49.9.69.94,1.01,2.04,1.33,3.09l.19.6c.32,1.03.58,2.08.73,3.14-.21.44-.41.88-.6,1.33-.14.31.01.69.33.81.18.08.35.06.5-.01.01.23.03.46.03.7,0,.35-.28.64-.63.64s-.63-.28-.63-.61c-.03-1.9-.34-3.79-.91-5.61l-.19-.61c-.29-.96-.59-1.95-1.15-2.71-.18-.25-.35-.39-.49-.39-.44.01-1.14,1.09-1.4,1.49-1.96,3.04-3.26,5.23-3.48,5.85-.1.26-.36.44-.64.41-.29-.02-.53-.22-.58-.51-.41-2.2-1.06-4.36-1.96-6.44-.18-.41-.35-.54-.39-.55-.01.01-.1.06-.26.44l-1.24,2.76c-.12.26-.4.41-.68.36-.28-.04-.49-.26-.53-.54-.16-1.55-.59-3-1.03-4.53-.2-.69-.4-1.36-.58-2.06-.16-.63-.59-2.31-1.11-2.45-.12-.04-.41.09-.81.5-.71.76-1.23,1.7-1.44,2.7l-.13-.43c-.15-.53-.29-1.06-.45-1.6Z" />
    <path class="cls-2"
      d="M97.17,158.09c-2.94-1.19-5.8-2.24-8.58-3.15.05-.3.09-.59.11-.89.01-.16-.03-.31-.12-.43,2.93.95,5.94,2.05,9.05,3.3.84.34,1.66.73,2.49,1.11,1.78.84,3.46,1.64,5.34,1.96,2.78.5,6.58.51,9.9.03,1.89-.26,4.55-.99,6.51-2.88,1.75-1.68,2.68-4,3.64-6.64.75-2.06,1.48-4.13,2.19-6.2.09-.24.18-.49.21-.74.29-.11.44-.44.34-.75-.05-.17-.19-.31-.35-.37.05-.44.06-.88.06-1.31.7.22,1.2.95,1.26,1.78.05.68-.16,1.3-.34,1.8-.71,2.09-1.45,4.16-2.2,6.23-1.01,2.79-2.01,5.25-3.95,7.13-1.74,1.68-4.23,2.78-7.19,3.2-1.71.25-3.51.37-5.24.37-1.81,0-3.56-.14-5.08-.4-2.03-.36-3.88-1.24-5.65-2.06-.8-.39-1.6-.76-2.41-1.09Z" />
    <path class="cls-2"
      d="M87.46,153.94c.03-.26.2-.46.43-.54.22.08.45.15.69.22.1.11.14.26.12.43-.03.3-.06.59-.11.89-.4-.14-.8-.26-1.2-.39.04-.2.05-.41.07-.61Z" />
    <path class="cls-2"
      d="M88.25,114.72c-.34-.1-.51-.46-.4-.79.07-.21.15-.45.26-.69.34.31.66.64.98.95-.03.05-.04.09-.05.14-.11.33-.46.5-.79.39Z" />
    <path class="cls-2"
      d="M88.29,47.37c-.88-.11-2.33-.46-3.69-1.1-1.38-.61-2.61-1.5-3.3-2.16.87.39,2.24.98,3.61,1.35,1.38.39,2.75.58,3.55.68l.51.06.53.04c.8.07,2.19.16,3.61.06,1.43-.08,2.86-.37,3.81-.58-.8.5-2.16,1.1-3.59,1.43-.01-.05-.01-.09-.02-.12-.08-.35-1.3-.14-1.23.22.01.04.01.07.03.13-1.06.15-2.05.16-2.7.11l-.56-.04-.56-.07Z" />
    <path class="cls-2" d="M88.14,153.38c.19.03.34.11.44.25-.24-.07-.46-.15-.69-.22.07-.03.16-.04.25-.03Z" />
    <path class="cls-2"
      d="M87.69,132.17l-.15-.53c.12-.73.36-1.44.71-2.09.16.54.3,1.08.45,1.6l.13.43c-.03.09-.05.19-.06.28-.06.34-.39.58-.73.51-.14-.03-.26-.1-.35-.2Z" />
    <path class="cls-2"
      d="M87.84,132.76l-.15-.59c.09.1.21.18.35.2.34.06.66-.18.73-.51.01-.09.04-.19.06-.28l.22.84c.09.34-.1.68-.44.78-.06.01-.11.03-.18.03-.26,0-.53-.19-.6-.46Z" />
    <path class="cls-2"
      d="M87.4,78.25c.58-1.73.95-3.46,1.15-4.5l.14-.66.1-.68c.16-1.04.43-2.8.48-4.63.07-1.83-.06-3.69-.15-4.9.43,1.14.88,3.01,1.04,4.9.18,1.89.05,3.75-.12,4.81l-.11.7-.14.7c-.06.33-.16.73-.29,1.16,0,.01,0,.02-.01.04-.15.19-.29.39-.41.59-.56.83-1.23,1.96-1.94,3.28.09-.26.19-.54.27-.81Z" />
    <path class="cls-2"
      d="M88.58,94.47c-.49-.76-.89-1.58-1.2-2.4,0-.01-.01-.02-.01-.04,0-.05-.01-.09-.01-.12-.05-.34.19-.66.53-.71.26-.04.51.09.62.31.05.06.08.14.09.23h0c.11.81.11,1.73-.01,2.74Z" />
    <path class="cls-2"
      d="M88.23,78.56c-.8,1.71-1.88,3.31-2.66,4.24.41-.93,1.03-2.26,1.54-3.7.01-.01.01-.03.03-.04.71-1.31,1.38-2.45,1.94-3.28.13-.2.26-.4.41-.59-.28.99-.7,2.19-1.25,3.36Z" />
    <path class="cls-2" d="M87.54,131.65l.15.53c-.12-.13-.19-.33-.15-.53Z" />
    <path class="cls-2"
      d="M87.36,92.03c-.29-.75-.5-1.53-.64-2.31.35-.4.69-.81,1.01-1.21.05.08.07.15.09.24.11.94.34,1.86.68,2.76-.11-.22-.36-.35-.62-.31-.34.05-.58.37-.53.71,0,.04.01.08.01.12Z" />
    <path class="cls-2"
      d="M87.14,88.19c.25-.03.49.1.6.31-.33.4-.66.81-1.01,1.21-.06-.28-.1-.55-.14-.83-.04-.35.2-.66.55-.7Z" />
    <path class="cls-2"
      d="M85.66,83.74c-1.73,2.89-3.86,5.64-5.51,7.09,1.4-1.68,3.21-4.53,4.73-7.49.75-1.46,1.53-2.94,2.23-4.24-.51,1.44-1.13,2.78-1.54,3.7.79-.93,1.86-2.53,2.66-4.24.55-1.18.98-2.38,1.25-3.36.01-.01.01-.03.01-.04.44-.65.91-1.28,1.4-1.9.65-.81,1.35-1.59,2.08-2.33,1.38-1.44,3.98-3.6,6.99-5.19,2.99-1.63,6.31-2.61,8.46-2.95-2.09.68-5.26,1.94-8.05,3.74-2.83,1.74-5.21,3.93-6.51,5.28-.7.71-1.36,1.46-1.99,2.24-.61.79-1.21,1.59-1.76,2.43-1.06,1.55-2.69,4.38-4.44,7.26Z" />
    <path class="cls-2"
      d="M84.03,54.46c-.46-.64-1.24-1.73-2.14-2.75-.88-1.04-1.88-2.03-2.51-2.69.84.39,2.06,1.15,3.15,2.08,1.09.91,2.03,1.96,2.5,2.63l.32.43.29.44c.46.68,1.14,1.93,1.61,3.26.49,1.34.79,2.75.86,3.68-.4-.83-.99-2.11-1.66-3.3-.66-1.19-1.4-2.29-1.85-2.94l-.28-.43-.3-.4Z" />
    <path class="cls-2"
      d="M85.06,110.76c.68-.73,1.21-1.55,1.6-2.44.11-.26.39-.43.66-.37.29.04.5.26.53.55.06.56.14,1.15.4,1.6.2.33.61.6.95.51.31-.09.56-.46.78-.83.73-1.26,1.26-2.64,1.59-4.05.05-.22.21-.4.44-.46.21-.06.45,0,.61.16.41.41.6.95.75,1.41.15.43.28.79.53.96.39.3,1.08.04,1.4-.39l.24-.29c.44-.55.99-1.24,1.08-1.79.04-.31.3-.54.61-.54h.01c.31,0,.58.24.61.55.06.5.14.98.38,1.34.19.3.53.48.76.43.3-.07.56-.48.75-.83.88-1.64,1.71-3.18,2.06-4.96.06-.31.33-.54.64-.51.3.01.56.25.6.55l.32,2.73c.05.35.1.44.13.45-.01,0,.29-.11.55-.4,2.01-2.31,3.23-4.94,3.41-7.38.02-.33.3-.58.62-.58s.6.25.63.59c.07,1.14.36,2.25.85,3.3.11.25.19.31.2.32,0-.01.09-.05.3-.3,1.64-1.94,2.78-4.15,3.3-6.38.07-.27.3-.46.58-.49.28-.01.53.15.63.41l.11.31c.44,1.29.69,1.64.84,1.7.5-.26,1.06-3.59,1.01-4.83-.01-.31.21-.59.53-.64.3-.05.6.14.7.44l1.61,5.4c.05.16.18.56.33.63.15.06.5-.18.79-.58,1.78-2.34,2.84-5.24,3-8.15.01-.33.29-.59.61-.59h.01c.33,0,.59.25.61.58.06.76.36,1.5.85,2.11.81-1.34,1.3-2.84,1.46-4.39.09.07.19.14.29.18.14.06.31.1.53.1.12,0,.26-.01.41-.06-.21,1.99-.93,3.88-2.08,5.53-.1.14-.25.24-.43.26-.18.01-.35-.04-.49-.15-.34-.29-.64-.61-.89-.98-.5,2.28-1.49,4.46-2.9,6.33-.71.93-1.54,1.28-2.29.96-.69-.3-.91-1.05-1.03-1.41l-.74-2.46c-.29,1.43-.83,2.83-1.81,2.96-.71.1-1.21-.46-1.56-1.13-.68,1.8-1.7,3.55-3.04,5.14-.18.2-.7.85-1.48.71-.7-.12-1.01-.8-1.11-1.03-.12-.28-.24-.55-.34-.83-.62,1.78-1.68,3.55-3.1,5.19-.69.79-1.51,1.04-2.15.64-.54-.33-.65-.94-.69-1.29-.39.88-.84,1.71-1.31,2.58-.2.36-.66,1.24-1.55,1.44-.76.18-1.63-.23-2.11-.96-.02-.05-.06-.11-.1-.18-.18.26-.38.5-.55.73l-.22.28c-.7.9-2.14,1.36-3.14.63-.44-.33-.66-.76-.83-1.2-.32.96-.75,1.9-1.26,2.79-.33.58-.76,1.2-1.51,1.4-.96.26-1.9-.34-2.35-1.06-.09-.12-.15-.26-.21-.41-.29.45-.62.88-.99,1.28-.02.02-.04.04-.06.06-.39-.2-.81-.36-1.25-.49.04-.09.1-.18.19-.24.08-.05.15-.14.2-.19Z" />
    <path class="cls-2"
      d="M84.68,111.18c.44.12.86.29,1.25.49-.09.09-.2.2-.33.29-.11.09-.24.13-.36.13-.2,0-.39-.1-.51-.26-.14-.2-.15-.44-.05-.64Z" />
    <path class="cls-2"
      d="M82.57,40.59c2.2-2.46,9.39-2.09,11.28.54.19.26.35.55.33.85,0,.03,0,.05-.01.08-1.58.15-3.28-.2-4.19-.49-.15-.04-.54,1.15-.35,1.2.26.09.59.16.94.21-2.5-.11-4.99-.51-7.39-1.19-.26-.08-.55-.18-.7-.39-.19-.24-.1-.59.1-.81Z" />
    <path class="cls-2"
      d="M77.85,114.17c-.73-.35-1.84-.9-3.1-1.4,1.18.19,2.25.2,3.3.13.12.05.24.11.35.16l.63.31.63.34c.94.51,2.49,1.55,3.86,2.84,1.4,1.26,2.6,2.76,3.25,3.78-.9-.8-2.3-2.04-3.79-3.08-1.46-1.06-3.01-1.94-3.94-2.45l-.59-.32-.6-.3Z" />
    <path class="cls-2"
      d="M73.59,112.32c-1.7-.63-3.51-1.08-4.69-1.36,1.21-.05,3.13.1,4.96.53,1.64.36,3.19.94,4.19,1.41-1.05.07-2.13.06-3.3-.13-.38-.16-.76-.31-1.16-.45Z" />
    <path class="cls-2" d="M72.29,101.23c.1.01.2.06.28.12-.3.09-.61.16-.93.2.11-.24.38-.39.65-.32Z" />
    <path class="cls-2"
      d="M68.85,150.58c-1.33-.14-2.68-.22-4.1-.31h-.07c.54-.26,1.13-.4,1.68-.45.89-.09,1.75-.01,2.58.08.83.09,1.63.2,2.39.33,1.53.26,2.89.59,3.94.9-1.09-.15-2.48-.31-4.01-.43-.75-.04-1.54-.1-2.33-.11h-.06Z" />
    <path class="cls-2"
      d="M64.03,112.2c-.85.25-1.51.69-1.91,1.25-.28-.36-.59-.66-.94-.84.56-.74,1.43-1.3,2.5-1.61,3.35-.99,6.15-.44,9.1.15.65.12,1.31.25,2,.38,2.11.36,3.86.1,5.89-.21.6-.09,1.21-.18,1.85-.26.78-.1,1.49-.04,2.15.14-.1.2-.09.44.05.64.12.16.31.26.51.26.13,0,.25-.04.36-.13.12-.09.24-.2.33-.29.83.41,1.55.99,2.19,1.58-.11.24-.19.47-.26.69-.11.33.06.69.4.79.33.11.68-.06.79-.39.01-.05.02-.09.05-.14.11.12.22.25.34.36.59.6,1.14,1.24,1.66,1.9.05.22.1.44.14.66.04.2.18.37.36.45.12.06.26.08.4.04.26.35.54.71.8,1.08.41.54.81,1.09,1.24,1.63.39.51.76,1.03,1.14,1.54.07.1.14.19.21.29.04.09.09.15.15.2.44.6.9,1.21,1.39,1.79.59.69,1.21,1.06,1.94,1.5.28.16.58.34.88.54.39.25.78.51,1.18.76.02.01.04.04.06.05.01.01.03.01.04.01,2.36,1.55,4.86,3.14,7.5,4.65,2.84,1.61,5.75,3.29,7.64,6.18-.04.16-.08.3-.1.41-.1.43-.22.84-.35,1.25-1.66-3.25-4.65-4.95-7.8-6.75-3.16-1.81-6.11-3.71-8.85-5.51-.29-.19-.56-.35-.83-.51-.79-.48-1.53-.91-2.26-1.76-.64-.76-1.23-1.58-1.8-2.35-.36-.5-.73-1.01-1.11-1.5-.43-.55-.84-1.1-1.25-1.65-1.03-1.36-2.08-2.78-3.26-4.01-1.8-1.88-3.48-3.41-5.85-3.13-.63.07-1.23.16-1.81.25-.95.15-1.86.29-2.81.35-1-.48-2.55-1.05-4.19-1.41-1.84-.43-3.75-.58-4.96-.53,1.18.29,2.99.74,4.69,1.36.4.14.79.29,1.16.45-.05,0-.11-.01-.18-.02-.7-.11-1.38-.25-2.03-.38-2.93-.58-5.45-1.08-8.51-.18Z" />
    <path class="cls-2"
      d="M61.18,112.61c.35.18.66.48.94.84-.05.05-.08.11-.11.16-.18.29-.55.39-.85.21-.3-.18-.4-.56-.23-.85.08-.12.15-.24.25-.36Z" />
    <path class="cls-2"
      d="M62.07,105.93c-.93-1.21-1.73-3.05-2.09-4.83.43-.02.85-.01,1.28,0,.35,1.53,1.03,3.06,1.8,4.08.19.25.28.26.28.26,0,0,.14-.03.36-.38.56-.86.98-1.79,1.25-2.78.09-.28.36-.46.64-.45.3.01.54.24.59.53.28,1.81,1.06,3.59,2.11,4.76.26.29.41.31.41.31.04,0,.18-.04.46-.45.83-1.21,1.31-2.49,1.83-3.84.2-.51.4-1.04.63-1.56,0-.01.01-.03.03-.04.31-.04.63-.11.93-.2.15.1.24.26.25.45.06,1.39.35,2.73.88,4.01.16.43.35.58.41.58.04,0,.12-.06.34-.35,1.3-1.83,2.14-3.79,3.01-5.86l.11-.25c.12-.33.5-.48.81-.34.33.14.47.5.34.83-.01.02-.02.07-.02.12,0,.26.16.79.59,1.43.65.99,1.41,1.54,1.69,1.54.39,0,.84-.83,1.35-2.44l.1-.31c.51-1.58.73-3.26.61-4.88h0c-.02-.35.24-.65.59-.68.33-.01.64.24.66.59.04.51.3,1.21.54,1.83.11.31.22.6.31.88.19.58.39.71.45.74.01.01.09.05.28-.03.48-.19.85-1.81.98-2.35l.1-.38c.44-1.75.59-3.23.45-4.41.31.83.71,1.64,1.2,2.4-.09.73-.24,1.5-.45,2.33l-.07.35c-.26,1.11-.66,2.79-1.74,3.23-.56.23-1,.12-1.28-.01-.4-.19-.73-.55-.96-1.1-.11.63-.28,1.26-.47,1.89l-.1.3c-.39,1.24-1.04,3.31-2.54,3.31h-.01c-.99-.01-2.09-1.14-2.71-2.1-.09-.14-.19-.29-.29-.46-.7,1.59-1.44,3.1-2.5,4.58-.19.26-.56.79-1.21.86-.71.09-1.34-.41-1.71-1.35-.26-.65-.47-1.31-.63-1.99-.45,1.14-.95,2.29-1.71,3.4-.18.28-.68,1-1.49,1h-.01c-.61-.01-1.05-.43-1.33-.74-.83-.91-1.49-2.1-1.94-3.4-.2.41-.43.81-.68,1.2-.45.68-.95.99-1.53.94-.63-.05-1.01-.56-1.15-.76Z" />
    <path class="cls-2"
      d="M61.92,123.51c-1.08-1.58-1.96-3.2-2.81-4.1,1.08.64,2.31,2.2,3.51,3.56,1.2,1.36,2.68,2.34,3.55,2.86.19.11.38.24.58.33l.59.31c.91.46,2.55,1.14,4.34,1.48,1.78.35,3.68.31,4.9.18-1.14.48-3.06.83-4.99.7-1.93-.13-3.78-.71-4.79-1.23l-.65-.34c-.21-.1-.43-.24-.63-.36-.98-.58-2.51-1.79-3.6-3.39Z" />
    <path class="cls-2"
      d="M60.43,100.18c.34-.06.66.16.73.5.03.14.06.29.1.43-.43-.01-.85-.02-1.28,0-.03-.06-.04-.12-.05-.19-.06-.34.16-.66.5-.74Z" />
    <path class="cls-2"
      d="M58.22,114.16c.18-.45.44-.91.86-1.26.68-.56,1.28-.56,1.68-.46.15.04.29.09.43.18-.1.12-.18.24-.25.36-.18.29-.07.68.23.85.3.18.68.07.85-.21.04-.05.06-.11.11-.16.55.7.96,1.64,1.28,2.41.02-.01.04-.03.05-.05l.23-.25c.68-.7,1.28-.81,1.69-.78,1.58.15,2.16,2.36,2.45,3.43.25.96.49,1.93.7,2.89.35-.89.76-1.55,1.36-1.75.38-.13.76-.05,1.11.2.88.63,1.4,1.81,1.81,2.95.66-1.73,1.51-3.36,2.79-4.58.25-.25.59-.53,1.06-.53h.01c1.49.03,2.4,2.23,2.95,3.54l.18.39c.51,1.16.91,2.35,1.21,3.58.46-.74.96-1.45,1.55-2.09.43-.46.98-.66,1.58-.59.78.1,1.51.7,2.01,1.65.95,1.84,1.58,3.78,2.11,5.69-.35.65-.59,1.36-.71,2.09l-.04-.15c-.68-2.49-1.31-4.83-2.48-7.05-.35-.68-.79-.95-1.06-.99-.19-.03-.35.04-.5.21-.8.85-1.46,1.95-2.1,3.01l-.14.23c-.13.22-.39.35-.65.3-.06-.01-.13-.04-.19-.06-.16-.1-.29-.26-.31-.46-.25-1.66-.74-3.3-1.44-4.85l-.18-.43c-.76-1.83-1.38-2.75-1.81-2.76,0,.01-.05.03-.2.18-1.49,1.41-2.35,3.6-3.06,5.74-.09.25-.31.43-.58.43-.26-.01-.51-.15-.6-.39-.1-.27-.21-.58-.33-.9-.36-1.1-.88-2.6-1.64-3.14-.36.14-.89,1.85-1.06,2.41-.1.33-.18.6-.25.78-.1.26-.35.41-.65.4-.07,0-.14-.03-.2-.05-.18-.09-.31-.25-.35-.46-.3-1.71-.69-3.43-1.14-5.09-.43-1.63-.89-2.48-1.36-2.51-.18-.03-.4.12-.65.39l-.2.22c-.25.28-.53.59-.93.81-.16.08-.34.09-.5.04-.16-.06-.3-.18-.37-.34-.06-.15-.14-.34-.23-.54-.34-.84-1.14-2.79-1.9-2.98-.06-.02-.25-.06-.58.21-.31.26-.5.71-.64,1.15-.25-.19-.51-.39-.79-.55h-.01c-.08-.1-.15-.2-.23-.3Z" />
    <path class="cls-2"
      d="M58.68,101.22c-.19.03-.37.06-.56.1.06-.24.15-.48.23-.73.11-.34.46-.51.79-.4.34.1.51.45.4.78-.01.05-.04.11-.05.16-.28.03-.54.05-.8.09Z" />
    <path class="cls-2"
      d="M59.25,115.01c-.04.09-.06.16-.09.25-.1.33-.45.51-.79.41-.11-.04-.21-.11-.27-.2.11,0,.21-.05.31-.13.25-.24.27-.62.05-.89.28.16.54.36.79.55Z" />
    <path class="cls-2"
      d="M58.09,115.47c-.15-.15-.2-.38-.13-.59.06-.2.13-.41.21-.62.09.05.17.11.26.19h.01c.22.28.2.66-.05.9-.1.08-.2.13-.31.13Z" />
    <path class="cls-2"
      d="M59.08,96.2l-.69-.02h-.39c.61-.13,1.28-.28,1.91-.46,1.31-.35,2.55-.84,3.26-1.11l.48-.18.46-.2c.7-.3,1.93-.81,3.11-1.48,1.2-.65,2.36-1.45,3.13-1.96-.53.75-1.5,1.81-2.63,2.69-1.11.89-2.35,1.56-3.11,1.9l-.5.2-.5.2c-.5.2-1.25.41-2.1.58-.7-.06-1.3-.11-1.76-.12l-.68-.03Z" />
    <path class="cls-2"
      d="M60.07,96.58c-1.41.16-2.86.09-3.76-.08.46-.09,1.06-.2,1.7-.32h.39l.69.02.68.03c.46.01,1.06.06,1.76.12-.46.1-.95.18-1.45.23Z" />
    <path class="cls-2" d="M58.18,114.25s.03-.06.04-.09c.08.1.15.2.23.29-.09-.07-.17-.14-.26-.19h0Z" />
    <path class="cls-2"
      d="M61.46,118.8c-1.16-1.33-2.46-2.48-3.84-3.41.11.08.24.11.36.11.04,0,.08,0,.11-.03.06.09.16.16.27.2.34.1.69-.09.79-.41.02-.09.05-.16.09-.25,1.13.86,2.19,1.85,3.15,2.96.69.78,1.25,1.58,1.8,2.35,1.06,1.5,2.09,2.94,3.8,3.95.22.13.46.25.73.38,1.65.78,3.71,1.03,5.7,1.26,2.05.25,4.14.51,5.93,1.33.56.24,1.1.55,1.59.93,2.13,1.65,3.95,3.73,5.73,5.73,1.58,1.78,3.2,3.61,5.01,5.13,4.56,3.79,9.95,5.7,15.5,5.53.8-.03,1.6-.05,2.4-.06,1.51-.04,3.05-.09,4.59-.16,3.88-.18,7.78-.56,11.54-1.66.09.19.26.33.49.36h.08c.28,0,.51-.18.58-.43.08.12.12.28.12.41.01.19,0,.38-.06.58-.01.02-.04.02-.06.04-5.65,1.81-11.54,1.96-17.24,2.11-.79.01-1.59.04-2.39.06-.24,0-.49.01-.74.01-5.63,0-11-2.01-15.6-5.83-1.89-1.58-3.55-3.45-5.15-5.26-1.73-1.96-3.53-3.99-5.56-5.56-1.78-1.36-4.26-1.68-6.89-1.99-2.09-.26-4.25-.53-6.08-1.38-2.48-1.15-3.76-2.98-5.03-4.75-.53-.74-1.08-1.51-1.71-2.24Z" />
    <path class="cls-2"
      d="M57.52,115.28c-.5-.55-.86-1.24-1.08-2.08.59.33,1.18.66,1.74,1.04h0c-.09.23-.15.44-.21.64-.08.21-.03.44.13.59-.04.03-.08.03-.11.03-.12,0-.25-.04-.36-.11-.04-.02-.06-.06-.1-.1Z" />
    <path class="cls-2"
      d="M59.48,101.13c-2.21,6.88-2.63,11.04-1.26,13.03-.01.02-.03.06-.04.09-.56-.37-1.15-.71-1.74-1.04-.66-2.46-.11-6.24,1.68-11.89.19-.04.38-.08.56-.1.26-.04.53-.06.8-.09Z" />
    <path class="cls-2"
      d="M58.37,97.43c-1.04-.01-2.78-.11-4.53.03-1.75.1-3.51.5-4.64.88.98-.68,2.73-1.41,4.54-1.75,1.61-.33,3.2-.4,4.26-.4-.64.12-1.24.24-1.7.32.9.16,2.35.24,3.76.08.5-.05.99-.12,1.45-.23.85.09,1.83.18,2.8.26,1.78.16,3.59.19,4.78.15-1.11.38-2.96.66-4.78.73-1.81.07-3.59.03-4.63-.01l-.66-.03-.66-.03Z" />
    <path class="cls-2"
      d="M56.22,161.11c-.55.85-.66,1.89-.36,2.91.26,1.04.88,1.98,1.58,2.89.56.73,1.43,1.75,2.26,2.99.85,1.24,1.71,2.7,2.45,4.23,1.51,3.04,2.48,6.38,2.81,8.54-.66-2.08-1.9-5.24-3.56-8.1-.83-1.43-1.74-2.79-2.61-3.96-.86-1.18-1.71-2.13-2.34-2.93-.74-.96-1.46-2.05-1.8-3.33-.16-.63-.25-1.3-.18-1.99.09-.68.33-1.36.7-1.91.74-1.16,1.85-1.88,2.85-2.51,1.03-.64,2.06-1.19,2.89-1.9.36-.29.7-.66,1.03-1.1.31-.46.51-1.01.71-1.75.21-.7.45-1.6,1.16-2.3.26-.26.55-.46.86-.61h.07c1.43.09,2.78.18,4.1.31-.83-.03-1.65-.01-2.43.11-.76.13-1.48.43-1.9.93-.44.49-.6,1.19-.78,1.9-.15.71-.4,1.49-.8,2.1-.4.58-.83,1.05-1.23,1.36-.98.83-2.05,1.4-3.04,2.01-.98.61-1.93,1.25-2.46,2.11Z" />
    <path class="cls-2"
      d="M48.73,73.01l-.19.4-.19.41c-.58,1.24-2.25,4.14-3.21,5.41.34-1.56,1.49-4.68,2.08-5.95l.2-.4.19-.41c.59-1.26,2.24-4.15,3.21-5.41-.36,1.56-1.5,4.7-2.09,5.95Z" />
    <path class="cls-2"
      d="M50.31,106.36c-1.36,1.63-2.48,3.45-3.48,5.33-.16.05-.33.11-.48.19.58-1.31,1.24-2.81,1.61-3.73-.56.54-1.29,1.46-1.96,2.44.96-1.76,2.04-3.48,3.35-5.03,2.6-3.1,5.85-5.08,9.14-5.58,2.11-.31,4.25-.04,6.3.23,1.66.22,3.4.44,5.06.34,6.09-.41,9.71-4.55,13.57-8.94l1.08-1.23c1.54-1.73,3-3.55,4.43-5.33,2.44-3.04,4.94-6.14,7.85-8.85l.05.05c-.11.15-.16.34-.12.53.08.33.15.65.24.98-1.3,1.28-2.53,2.63-3.69,4.01-1.15,1.34-2.26,2.71-3.35,4.06-.7.89-1.43,1.78-2.16,2.68-.11-.21-.35-.34-.6-.31-.35.04-.59.35-.55.7.04.28.07.55.14.83-.43.5-.85,1-1.29,1.49l-1.08,1.23c-3.3,3.78-6.7,7.65-11.8,8.93-.07-.06-.18-.11-.28-.12-.27-.06-.54.09-.65.32-.55.11-1.11.19-1.7.23-1.79.12-3.58-.11-5.3-.34-1.15-.15-2.28-.29-3.38-.34-.04-.14-.07-.29-.1-.43-.06-.34-.39-.56-.73-.5-.34.07-.56.4-.5.74.01.06.02.12.05.19-.18,0-.34.01-.5.03.01-.05.04-.11.05-.16.11-.33-.06-.68-.4-.78-.33-.11-.68.06-.79.4-.07.25-.16.49-.23.73-2.8.59-5.55,2.35-7.81,5.04Z" />
    <path class="cls-2"
      d="M53.07,113.2c-3.55-1.03-5.95-.81-7.34.64.35-.73.71-1.44,1.1-2.15,1.66-.59,3.84-.49,6.59.31,1.03.3,2.04.71,3.03,1.21.21.84.58,1.53,1.08,2.08.04.04.06.08.1.1-1.46-.99-3-1.74-4.55-2.19Z" />
    <path class="cls-2"
      d="M46.35,111.87c.15-.08.31-.14.48-.19-.39.71-.75,1.43-1.1,2.15h-.01c-.09.1-.19.16-.3.19.21-.51.56-1.29.94-2.15Z" />
    <path class="cls-2"
      d="M46.35,111.87c-.37.86-.73,1.64-.94,2.15-.2.05-.43,0-.59-.15-.19-.18-.24-.45-.15-.69.03-.06.07-.14.12-.2.45-.48.96-.84,1.55-1.11Z" />
    <path class="cls-2"
      d="M45.42,114.02c.11-.03.21-.09.3-.18-.21.44-.43.86-.64,1.3-.06.14-.18.25-.31.3.1-.22.2-.43.28-.59l.19-.43.19-.41Z" />
    <path class="cls-2"
      d="M46,110.58c.68-.98,1.4-1.9,1.96-2.44-.38.91-1.04,2.41-1.61,3.73-.59.28-1.1.64-1.55,1.11-.05.06-.1.14-.12.2h-.03c.44-.88.88-1.75,1.35-2.6Z" />
    <path class="cls-2"
      d="M43.95,114.6c.24-.47.46-.95.7-1.43h.03c-.09.25-.04.53.15.7.16.15.39.2.59.15l-.19.41-.19.43c-.07.16-.18.36-.28.59-.08.04-.16.05-.25.05s-.19-.01-.28-.06c-.3-.15-.44-.53-.29-.84Z" />
    <path class="cls-2"
      d="M49.28,145.15c4.38,3.15,10.06,3.51,15.55,3.86,1.48.1,2.99.2,4.44.35,5.91.62,12.06,1.96,18.62,4.04-.23.08-.4.28-.43.54-.03.2-.04.41-.07.61-6.43-2.04-12.45-3.34-18.24-3.95-.07-.01-.16-.01-.24-.03.79.01,1.58.07,2.33.11,1.54.11,2.93.28,4.01.43-1.05-.31-2.41-.64-3.94-.9-.76-.13-1.56-.24-2.39-.33-.83-.09-1.69-.16-2.58-.08-.55.05-1.14.19-1.68.45-5.64-.36-11.48-.75-16.12-4.1-3.64-2.63-4.99-6.5-5.68-10.16.18.74.45,1.59.8,2.43.55,1.34,1.29,2.6,1.86,3.35-.28-.9-.71-2.28-1.03-3.64-.34-1.36-.54-2.7-.65-3.49l-.06-.38c.04.06.06.14.08.21.63,3.96,1.71,8,5.4,10.66Z" />
    <path class="cls-2"
      d="M42.37,120.67c.05-1.65.93-5.03,1.54-6.31l.19-.44.19-.41c.3-.7.98-1.84,1.73-2.93-.48.85-.91,1.73-1.35,2.59-.24.47-.46.95-.7,1.43-.15.31-.01.69.29.84.09.05.19.06.28.06s.18-.01.25-.05c-.68,1.46-1.79,3.95-2.4,5.23Z" />
    <path class="cls-2"
      d="M43.17,133.96c.26-.04.51.1.64.31l.06.38c.11.79.31,2.13.65,3.49.31,1.36.75,2.74,1.03,3.64-.58-.75-1.31-2.01-1.86-3.35-.35-.84-.62-1.69-.8-2.43t0-.01c-.09-.44-.16-.88-.23-1.3-.06-.35.18-.66.51-.73Z" />
    <path class="cls-2"
      d="M43.8,134.27c-.13-.21-.38-.35-.64-.31-.34.06-.58.38-.51.73.06.43.14.86.23,1.3-.11-.43-.2-.81-.25-1.13l-.09-.54-.06-.54c-.11-.85-.16-2.29,0-3.73.15-1.44.51-2.86.85-3.74,0,.95-.05,2.39.04,3.79.06,1.39.25,2.74.35,3.53l.06.51.03.12Z" />
    <path class="cls-2"
      d="M42.63,76.95c-.19.31-.4.64-.65.94-.25.31-.53.6-.89.85-.26.19-.56.33-.88.44.95-1.41,2.68-4,3.59-5.29-.15.64-.46,1.51-.84,2.43-.01.03-.01.05-.02.06-.1.21-.21.4-.31.58Z" />
    <path class="cls-2"
      d="M40.44,81.13c-.83,1.33-3.26,4.14-4.65,5.2.89-1.51,2.83-4.63,3.61-5.89l.26-.41.26-.41c.09-.13.19-.28.29-.44.31-.11.61-.25.88-.44.36-.25.64-.54.89-.85.25-.3.46-.63.65-.94.1-.18.21-.36.31-.58-.63,1.51-1.41,3.1-1.95,3.9l-.27.43-.28.43Z" />
    <path class="cls-2"
      d="M36.1,60.33c.03.11.05.24.07.35-.4-.13-.75-.23-1.05-.31l-.68-.2-.39-.1c.78,0,1.69.19,2.04.26Z" />
    <path class="cls-2"
      d="M31.61,59.55c2.25-.33,4.81.14,7.59,1.39.76.35,1.43.73,1.99,1.13-.44-.09-.88-.2-1.3-.31-1.38-.36-2.69-.76-3.71-1.06-.03-.11-.05-.24-.07-.35-.35-.07-1.26-.26-2.04-.26h-.02l-.28-.07c-.54-.12-1.29-.31-2.15-.45Z" />
    <path class="cls-2"
      d="M44.75,69.95c1.29-2.51,2.63-5.06,3.55-6.66-.61,1.74-1.66,4.4-2.74,7-.55,1.3-1.09,2.59-1.58,3.74-.36.84-.69,1.63-1.03,2.29.38-.91.69-1.79.84-2.43-.91,1.29-2.64,3.88-3.59,5.29-.71.28-1.55.41-2.4.53-1.21.16-2.68.35-4.1.31-2.89-.03-5.73-.78-7.39-1.54,1.79.44,4.64.86,7.4.65,1.39-.08,2.69-.34,3.94-.58,1.21-.2,2.21-.48,2.71-.84.22-.16.44-.36.63-.61.2-.24.37-.5.55-.79.39-.64.83-1.63,1.39-2.75.56-1.11,1.19-2.36,1.81-3.61Z" />
    <path class="cls-2"
      d="M33.05,60.7c1.01,0,2.09.16,3.21.49.5,3.09-.08,6.34-1.64,9.08.69-1.2-.55-5.41-.86-6.71-.11-.48-.89-2.1-.94-2.84.07-.01.15-.01.23-.01Z" />
    <path class="cls-2"
      d="M32.88,60.42c.18-.26.64-.35,1.16-.35h.02l.39.1.68.2c.3.09.65.19,1.05.31.04.16.06.34.09.5-1.13-.33-2.2-.49-3.21-.49-.08,0-.15,0-.23.01,0-.12.01-.22.05-.29Z" />
    <path class="cls-2"
      d="M51.62,53.06c-2.84-.38-5.53-1.28-7.08-1.86l-.99-.39-.98-.39c-1.54-.61-4.04-1.79-6.63-2.84-1.28-.53-2.61-.94-3.86-1.04-.09,0-.18-.01-.25-.01,1.09-.15,2.29.14,3.24.48.51.17,1.01.36,1.5.54,1.18.44,2.28.84,3.5,1.21,1.48.45,3.03.84,4.63,1.15l.29.11c1.49.58,4.04,1.58,6.75,2.16,2.7.64,5.58.7,7.4.44-1.74.59-4.69.86-7.53.44Z" />
    <path class="cls-2"
      d="M28.89,47.18c.7-.6,1.88-1.1,3.23-1.11,1.35-.05,2.8.26,4.16.69,2.71.86,5.28,1.91,6.76,2.5l.98.39.69.26c-1.6-.31-3.15-.7-4.63-1.15-1.23-.38-2.33-.78-3.5-1.21-.49-.18-.99-.36-1.5-.54-.95-.34-2.15-.63-3.24-.48-1.15-.06-2.2.22-2.95.65Z" />
    <path class="cls-2"
      d="M29.03,59.33c-1.88-.03-3.76.59-4.85,1.26.86-.94,2.75-1.93,4.78-2.14,2-.26,3.99.05,5.11.33l.73.19.7.2c1.11.33,2.9,1.05,4.69,1.75,1.79.71,3.65,1.26,4.9,1.53-.99.06-2.41-.08-3.89-.39-.56-.4-1.23-.78-1.99-1.13-2.78-1.25-5.34-1.71-7.59-1.39h-.01c-.79-.12-1.68-.21-2.58-.21Z" />
    <path class="cls-2"
      d="M25.48,64.69c-.19.38-.36.75-.51,1.11.85-3.41,3.29-5.75,6.64-6.25h.01c.86.14,1.61.33,2.15.45l.28.07c-.53,0-.99.09-1.16.35-.04.06-.05.16-.05.29-.35,0-.7.03-1.04.08-3.91.58-5.6,3.89-5.88,6.8-.05.53-.02,1.03.05,1.48.09.54.26,1.03.51,1.44.61.99,1.81,1.73,3.3,2.03,3.93.76,7.88-1.09,10.28-3.09.73-.61,2.39-2.21,2.1-4-.2-1.28-1.36-2.41-3.46-3.35-.84-.37-1.65-.68-2.43-.9-.03-.16-.05-.34-.09-.5,1.03.3,2.34.7,3.71,1.06.43.11.86.22,1.3.31,1.28.93,2.01,1.99,2.2,3.19.38,2.33-1.43,4.23-2.54,5.15-2.73,2.28-6.11,3.54-9.25,3.54-.71,0-1.4-.06-2.08-.19-1.81-.36-3.31-1.31-4.11-2.6-.16-.26-.3-.54-.4-.84.18-.76.35-1.45.45-1.89l.07-.39.1-.39c.15-.59.36-1.6.65-2.64.3-1.04.6-2.1.8-2.79-.48.54-1.11,1.46-1.61,2.46Z" />
    <path class="cls-2"
      d="M24.21,109.38c.08-1.3.23-3.53.64-5.79.01-.06.03-.11.03-.18.21-.58.41-1.06.6-1.45l.33-.69.36-.68c.55-1.03,1.66-2.71,3.08-4.16,1.4-1.49,3.08-2.71,4.21-3.35-.94.91-2.35,2.34-3.53,3.9-1.19,1.55-2.14,3.21-2.66,4.21l-.35.64-.3.65c-.49,1.01-1.26,2.76-1.79,4.65-.28.93-.49,1.88-.64,2.76l.02-.52Z" />
    <path class="cls-2"
      d="M24.73,69.27c-.1-.56-.11-1.18-.05-1.81.05-.54.14-1.06.25-1.55,0-.04.03-.07.04-.11.15-.36.33-.74.51-1.11.5-1,1.14-1.93,1.61-2.46-.2.69-.5,1.75-.8,2.79-.29,1.04-.5,2.05-.65,2.64l-.1.39-.07.39c-.1.44-.28,1.13-.45,1.89-.14-.33-.22-.68-.29-1.04Z" />
    <path class="cls-2"
      d="M23.98,71c-.01-1.11.12-2.21.26-2.85l.09-.4.1-.4c.1-.37.26-.89.5-1.44-.11.49-.2,1.01-.25,1.55-.06.64-.05,1.25.05,1.81.06.36.15.71.29,1.04-.05.25-.11.5-.16.76-.2,1.06-.4,2.15-.53,2.86-.2-.7-.35-1.83-.35-2.94Z" />
    <path class="cls-2"
      d="M24.18,109.94c-.16.89-.28,1.7-.36,2.35-.18-1.29-.19-3.36.16-5.38.2-1.28.55-2.5.9-3.5,0,.06-.01.11-.03.18-.41,2.26-.56,4.49-.64,5.79l-.02.52s-.01.03-.01.04Z" />
    <path class="cls-2"
      d="M24.88,103.42c-.35,1-.7,2.23-.9,3.5-.35,2.01-.34,4.09-.16,5.38.09-.65.2-1.46.36-2.35v.29s-.03.85-.03.85c-.02,1.3-.04,3.54.2,5.83.23,2.29.69,4.6,1.01,6.09-.64-1.38-1.43-3.63-1.88-5.93-.48-2.3-.61-4.63-.59-6v-.88s.06-.89.06-.89c.08-1.38.39-3.68,1.04-5.94.63-2.26,1.58-4.45,2.31-5.76-.43,1.43-1.04,3.61-1.44,5.81Z" />
    <path class="cls-2"
      d="M20.65,147.89c1.65,2.89,3.54,5.55,4.68,7.06l.58.79.6.76c1.15,1.5,3.19,4.04,5.51,6.43,2.31,2.4,4.89,4.64,6.56,6.05-1.86-1.13-4.65-3.13-7.14-5.4-2.51-2.24-4.73-4.74-5.93-6.31l-.61-.78-.59-.8c-1.18-1.58-2.99-4.38-4.46-7.41-1.5-3.03-2.66-6.25-3.23-8.35.89,2,2.34,5.1,4.03,7.96Z" />
    <path class="cls-2"
      d="M14.84,67.7c-.29,1.15-.68,2.75-.99,4.46-.06-.1-.14-.18-.24-.24-.11-.06-.24-.09-.36-.09.5-1.64,1.09-3.11,1.59-4.14Z" />
    <path class="cls-2" d="M13.7,73.04c.04-.29.09-.59.15-.88.09.19.1.43-.01.62-.05.09-.1.16-.14.25Z" />
    <path class="cls-2"
      d="M54.98,51.08c-3.54-.11-7.03-.51-10.28-1.18l-.69-.26-.98-.39c-1.49-.59-4.05-1.64-6.76-2.5-1.36-.43-2.81-.74-4.16-.69-1.35.01-2.53.51-3.23,1.11.75-.43,1.8-.71,2.95-.65-.5.07-.98.22-1.39.53-1.8,1.29-3.44,2.65-4.9,4.09-3.89,3.83-7.08,8.68-9.21,14.03-1.04,2.63-1.83,5.34-2.34,8.09l-.19.95c-.3,1.56-.6,3.16-.69,4.75.04-1.35.15-3.06.4-4.8.05-.37.11-.75.18-1.13.04-.09.09-.16.14-.25.11-.2.1-.44.01-.62.31-1.71.7-3.31.99-4.46-.5,1.03-1.09,2.5-1.59,4.14-.09.01-.16.02-.25.06.53-2.44,1.25-4.85,2.18-7.19,2.2-5.51,5.49-10.51,9.5-14.47,1.5-1.48,3.2-2.89,5.05-4.2,1.4-1,3.35-1.08,5.76-.21.53.18,1.03.36,1.51.55,1.16.41,2.25.81,3.44,1.18,4.35,1.33,9.4,2.11,14.58,2.28,4.44.14,9.65-2.88,13.74-5.51,2.51-1.63,5.06-3.56,8.28-6.3.54-.46,1.13-.91,1.74-1.36,1.85-1.4,3.76-2.85,4.39-4.8.44-1.36.95-2.78,1.99-3.84,2.88-2.95,8.54-1.65,12.29.3-.09.11-.15.25-.15.41,0,.35.28.63.63.63.4,0,.83,0,1.28.02.2.14.39.28.56.41.28.21.31.61.1.88-.21.28-.61.31-.88.1-2.93-2.34-10.06-4.83-12.93-1.88-.85.88-1.29,2.08-1.7,3.34-.74,2.34-2.91,3.98-4.83,5.43-.59.44-1.16.88-1.68,1.31-3.25,2.78-5.85,4.75-8.41,6.4-4.24,2.74-9.69,5.83-14.45,5.71Z" />
    <path class="cls-2"
      d="M11.85,79.68c.05-1.11.21-2.6.5-4.15.43-.85.88-1.68,1.35-2.49-.06.37-.13.75-.18,1.13-.25,1.74-.36,3.45-.4,4.8-.02.29-.02.55-.04.8-.06.29-.31.5-.61.5h-.01c-.33-.01-.59-.26-.61-.59Z" />
    <path class="cls-2"
      d="M13.85,72.16c-.06.29-.11.59-.15.88-.48.81-.93,1.64-1.35,2.49.09-.51.2-1.04.33-1.55.16-.73.36-1.45.58-2.14.12,0,.25.02.36.09.1.06.18.14.24.24Z" />
    <path class="cls-2"
      d="M13.25,71.84c-.21.69-.41,1.41-.58,2.14-.12.51-.24,1.04-.33,1.55-.02.05-.06.1-.08.15.1-.56.2-1.14.31-1.69l.19-.95c.08-.38.15-.75.23-1.14.09-.04.16-.05.25-.06Z" />
    <path class="cls-2"
      d="M11.85,79.68c.03.33.29.58.61.59h.01c.3,0,.55-.21.61-.5,0,.22-.01.44-.01.63v.91s0,.9,0,.9c.03,1.4.11,3.79.45,6.23.33,2.44.89,4.89,1.28,6.46-.7-1.45-1.58-3.84-2.14-6.28-.58-2.44-.81-4.91-.84-6.38v-.94s0-.95,0-.95c0-.2.01-.44.03-.68Z" />
    <path class="cls-2" d="M11.85,79.63c.01-1.33.2-2.65.43-3.95.01-.05.05-.1.08-.15-.29,1.55-.45,3.04-.5,4.15v-.05Z" />
    <path class="cls-2"
      d="M68.31,198.43c1.44.62,2.73,1.14,4.01.95,2.66-.35,3.96-3.43,4.29-4.35,2.04-5.71,3.64-11.75,5.18-17.59.76-2.93,1.56-5.95,2.41-8.89,1.3-4.54,2.65-9.24,3.19-13.99.4.12.8.25,1.2.39-.56,4.78-1.89,9.43-3.19,13.95-.84,2.93-1.64,5.94-2.4,8.85-1.55,5.86-3.15,11.94-5.21,17.69-1.05,2.95-3.03,4.89-5.3,5.19-.23.03-.44.04-.66.04-1.5,0-2.93-.63-4.01-1.1-7.68-3.33-14.94-7.36-22.22-12.32-23.47-15.99-38.1-37.06-40.16-57.82-.38-3.74-.01-7.61.34-11.35.25-2.71.51-5.51.49-8.21-.01-2.2-.21-4.44-.43-6.81-.41-4.7-.84-9.56.24-14.04,1.46-6.06,3.71-11.74,6.68-16.85.06-.11.15-.19.25-.25-.07.39-.15.76-.23,1.14l-.19.95c-.11.55-.21,1.13-.31,1.69-2.15,4.23-3.83,8.79-4.99,13.62-1.03,4.28-.6,9.04-.2,13.64.2,2.29.41,4.66.43,6.91.03,2.76-.24,5.6-.49,8.34-.35,3.69-.7,7.5-.34,11.11,2.01,20.39,16.45,41.13,39.61,56.91,7.21,4.91,14.42,8.9,22.02,12.22Z" />
  </g>
</svg>