<?xml version="1.0" encoding="UTF-8"?>
<svg id="Capa_2" xmlns="http://www.w3.org/2000/svg" xmlns:xlink="http://www.w3.org/1999/xlink"
  viewBox="0 0 160.84 229.63">
  <defs>
    <style>
      .cls-1 {
        fill: aqua;
      }

      .cls-2 {
        fill: #29abe2;
      }

      .cls-3 {
        fill: #fff;
      }

      .cls-4 {
        fill: #ea4c7f;
      }

      .cls-5 {
        filter: none;
      }

      .cls-6 {
        fill: #862291;
      }

      .cls-7 {
        fill: #1b1464;
      }

      .cls-8 {
        fill: #306;
      }

      .cls-9 {
        fill: #fcee21;
      }

      .cls-10 {
        fill: #ed1e79;
      }

      .cls-11 {
        fill: #fbee4f;
      }
    </style>
  </defs>
  <g id="_0">
    <g class="cls-5">
      <path class="cls-3"
        d="M160.58,53.97c-.44-1.28-1.41-2.34-2.65-2.9l-7.09-3.16c-1.95-.82-4.46-2.49-3.72-7.39l.42-2.18c.26-1.34-.05-2.74-.86-3.84-.8-1.1-2.04-1.83-3.4-2l-8.79-1.07c-1.41-.17-2.82.27-3.87,1.2-1.06.94-1.67,2.29-1.67,3.7v5.42h-.53c-2.09,0-4.02.73-5.53,1.95.02-1.43.11-8.77.04-15.97-.04-4.74-.14-8.55-.3-11.33-.26-4.71-.45-8.11-3.85-9.14-.88-.26-10.35-3.77-19-7-1.39-.52-3.03-.26-4.19.67l-18.71,14.97L58.44,1.95c-1.18-.89-2.78-1.11-4.16-.58-8.47,3.31-17.73,6.89-18.58,7.15-3.52,1.11-3.52,4.76-3.51,9.38,0,2.78.12,6.59.35,11.33.13,2.61.27,5.23.41,7.57-.59-.9-1.45-1.61-2.47-2l-9.26-3.54c-1.32-.5-2.81-.43-4.08.19-1.28.62-2.25,1.76-2.66,3.12l-1.75,5.73c-.47,1.53-.19,3.21.74,4.5.93,1.3,2.45,2.1,4.05,2.14l1.42.03c-.83,1.57-1.58,3-2.1,3.98-.07.1-.13.22-.2.34l-.4.75c-1.18,2.24-1.42,4.8-.68,7.23.19.62.26.95.27,1.12-.27.03-1.01.02-2.88-.54-1.49-.44-2.68-.38-3.87.2-1.23.6-2.17,1.7-2.57,3.01l-1.48,4.84c-.45,1.48-.18,3.1.71,4.34.9,1.26,2.36,2.03,3.91,2.07h.21c-.51.98-.96,1.83-1.26,2.42-.07.1-.14.22-.21.36l-.34.64c-2.22,4.21-.61,9.44,3.54,11.64.08.05,1.91,1.15,4.45,1.6C4.58,97.98-.93,105.83.13,113.69c.19,1.41.6,2.78,1.21,4.1-.71,1.66-1.1,3.39-1.15,5.14-.11,3.83,1.4,9.52,9.02,15.23-7.35,6.46-8.34,12.22-7.83,15.98,1.16,8.55,10.42,14.78,26.77,18.03,7.71,1.53,16.53,2.31,26.21,2.31,6.15,0,12.59-.32,19.17-.96v17.61l-5.5-4.64c-1.46-1.23-3.66-1.33-5.23-.24-1.6,1.11-2.25,3.16-1.58,4.99l12.89,35.56c.62,1.7,2.24,2.83,4.12,2.83s3.43-1.14,4.04-2.83l12.85-35.46c.2-.5.3-1.03.3-1.57,0-2.37-1.93-4.3-4.37-4.3-1,.02-1.97.38-2.72,1.03l-5.27,4.47v-18.58c19.39-2.74,37.29-7.88,50.49-14.51,14.39-7.23,21.67-15.41,21.08-23.67,1.22-2.14,1.87-4.4,1.93-6.71.12-4.14-1.64-10.25-10.48-16.27,9.31-7.39,10.61-14.17,10.01-18.63-.68-5.04-4.42-12.03-18.38-16.74-2.64-.89-5.54-1.67-8.66-2.32.9-.46,1.65-1.18,2.13-2.08l.61-1.15c.9,1.19,2.3,2.1,4.05,2.64l1.49.46c2.2.68,4.64.45,6.68-.63,2.07-1.09,3.59-2.93,4.28-5.16l.22-.71c.04-.13.07-.26.1-.39.25-.8.59-1.9.98-3.13l.44.42c1.11,1.06,2.67,1.54,4.19,1.3,1.51-.24,2.85-1.2,3.56-2.55l2.48-4.66c.64-1.2.75-2.63.31-3.92ZM120.91,56.01c-.55.05-1.1.19-1.6.42-1.29.58-2.26,1.69-2.68,3.04l-1.56,5.06-.44-.14c-4.62-1.42-9.53,1.18-10.96,5.79l-.22.72s-.03.09-.04.14c-.6,0-1.19,0-1.78,0-5.75,0-11.75.28-17.85.83l36.17-23.78c-.24.79-.36,1.64-.36,2.51v.76c0,1.64.46,3.26,1.33,4.65ZM33.19,42.01c.03-.05.06-.11.08-.16.14,2.15.24,3.51.24,3.54.1,1.36.85,2.61,2.01,3.34l38,23.77v.52c-10.95,1.51-21.35,3.74-30.94,6.65-.59-.58-1.26-1.07-2.01-1.47l-.18-.1,2.26-4.27c.66-1.25.76-2.73.26-4.06-.5-1.33-1.54-2.38-2.87-2.89l-7.23-2.77c.72-.69,1.32-1.49,1.79-2.38l.4-.75c1.18-2.24,1.42-4.8.68-7.23-.75-2.42-2.39-4.41-4.63-5.59l-.86-.45,3.01-5.7Z" />
      <ellipse class="cls-2" cx="77.96" cy="143.76" rx="73.46" ry="25.23"
        transform="translate(-18.61 11.78) rotate(-7.72)" />
      <path class="cls-1" d="M6.77,157.69c2.84,4.22,9.15,7.54,17.88,9.77l49.53-37.93L6.77,157.69Z" />
      <path class="cls-6"
        d="M120.59,159.29c19.26-7.16,31.34-16.65,30.16-25.41-1.87-13.81-35.98-20.58-76.18-15.13-25.9,3.51-48.01,11.24-59.96,19.99,4.51,4.96,14.93,16.55,36.73,20.55,22.93,4.21,57.45.68,69.25,0Z" />
      <path class="cls-7"
        d="M54.35,171.12c-9.35,0-18.03-.75-25.56-2.24-14.6-2.9-23.16-8.29-24.09-15.18-.93-6.89,5.88-14.37,19.18-21.05,13.15-6.61,31.13-11.7,50.62-14.35,19.49-2.64,38.18-2.52,52.62.35,14.6,2.9,23.16,8.29,24.09,15.18.93,6.89-5.88,14.37-19.18,21.05-13.15,6.61-31.13,11.7-50.62,14.35-9.33,1.27-18.48,1.9-27.06,1.9ZM101.63,117.33c-8.44,0-17.55.61-27,1.89-39.88,5.41-70.83,20.82-69,34.34,1.83,13.53,35.77,20.13,75.65,14.73l.06.46-.06-.46c19.39-2.63,37.27-7.69,50.33-14.26,12.91-6.49,19.54-13.62,18.67-20.09-1.4-10.32-21.49-16.62-48.65-16.62Z" />
      <path class="cls-7"
        d="M141.22,140.57c-.07,0-.14-.01-.2-.05-.23-.11-.33-.39-.22-.62.78-1.63,1.06-3.24.85-4.78-1.01-7.44-13.72-12.9-33.17-14.26-.26-.02-.45-.24-.43-.5.02-.26.24-.45.5-.43,20.22,1.41,32.95,7.04,34.03,15.07.23,1.72-.08,3.51-.94,5.31-.08.17-.25.27-.42.27Z" />
      <path class="cls-7"
        d="M74.97,122.19c-.23,0-.43-.17-.46-.41-.03-.26.14-.49.4-.53,7.59-1.03,15.09-1.59,22.28-1.66.24,0,.47.21.47.46,0,.26-.21.47-.46.47-7.15.07-14.61.63-22.16,1.65-.02,0-.04,0-.06,0Z" />
      <path class="cls-7"
        d="M29.62,135.24c-.17,0-.33-.09-.42-.25-.12-.23-.03-.51.2-.63,6.48-3.36,14.68-6.4,23.7-8.79.25-.07.51.08.57.33.07.25-.08.51-.33.57-8.96,2.37-17.09,5.39-23.51,8.72-.07.04-.14.05-.22.05Z" />
      <path class="cls-7"
        d="M17.71,143.64c-.12,0-.23-.04-.32-.13-.19-.18-.2-.47-.02-.66.75-.8,1.62-1.61,2.58-2.4.2-.17.49-.14.66.06.17.2.14.49-.06.66-.93.77-1.76,1.55-2.49,2.33-.09.1-.22.15-.34.15Z" />
      <path class="cls-7"
        d="M18.36,159.7c-.1,0-.2-.03-.28-.09-2.78-2.09-4.38-4.47-4.73-7.09-.34-2.51.48-5.13,2.43-7.77.15-.21.45-.25.66-.1.21.15.25.45.1.66-1.8,2.44-2.56,4.82-2.25,7.08.32,2.36,1.79,4.53,4.36,6.46.21.16.25.45.09.66-.09.12-.23.19-.38.19Z" />
      <path class="cls-7"
        d="M47.41,167.59s-.02,0-.03,0c-7.98-.56-15.12-1.84-20.64-3.7-.25-.08-.38-.35-.29-.59.08-.25.35-.38.59-.29,5.45,1.84,12.51,3.1,20.41,3.65.26.02.45.24.43.5-.02.25-.22.44-.47.44Z" />
      <path class="cls-7"
        d="M80.95,166.26c-.23,0-.43-.17-.46-.41-.03-.26.14-.49.4-.53,20.13-2.73,38.24-8.4,49.69-15.55.22-.14.51-.07.65.15.14.22.07.51-.15.65-11.56,7.22-29.81,12.94-50.06,15.68-.02,0-.04,0-.06,0Z" />
      <path class="cls-7"
        d="M134.46,148.14c-.14,0-.28-.06-.37-.18-.16-.21-.12-.5.09-.66.81-.62,1.56-1.24,2.24-1.86.19-.17.49-.16.66.03.17.19.16.49-.03.66-.7.64-1.48,1.28-2.31,1.91-.08.06-.18.1-.28.1Z" />
      <path class="cls-7"
        d="M131.7,141.94c-.08,0-.16-.02-.24-.06-.22-.13-.3-.42-.17-.64.98-1.67,1.37-3.31,1.16-4.87-.85-6.3-11.63-10.96-28.12-12.14-.26-.02-.45-.24-.43-.5.02-.26.24-.45.5-.43,17.22,1.24,28.05,6.08,28.99,12.95.24,1.77-.19,3.61-1.28,5.47-.09.15-.24.23-.4.23Z" />
      <path class="cls-7"
        d="M66.86,126.74c-.22,0-.42-.16-.46-.38-.05-.25.12-.5.37-.55,2.8-.53,5.68-1,8.57-1.39,6.04-.82,12.02-1.29,17.77-1.4.27,0,.47.2.48.46,0,.26-.2.47-.46.48-5.72.11-11.66.58-17.67,1.39-2.87.39-5.73.86-8.52,1.39-.03,0-.06,0-.09,0Z" />
      <path class="cls-7"
        d="M36.59,136.5c-.17,0-.33-.09-.42-.25-.12-.23-.03-.51.2-.63,6.15-3.18,14.01-6,22.73-8.14.25-.06.5.09.57.34.06.25-.09.5-.34.57-8.65,2.12-16.43,4.91-22.52,8.06-.07.04-.14.05-.21.05Z" />
      <path class="cls-7"
        d="M25.94,144.17c-.11,0-.22-.04-.31-.12-.19-.17-.21-.47-.04-.66.78-.88,1.7-1.76,2.76-2.63.2-.16.49-.14.66.06.16.2.14.49-.06.66-1.02.84-1.91,1.69-2.65,2.53-.09.1-.22.16-.35.16Z" />
      <path class="cls-7"
        d="M51.56,164.23s-.02,0-.03,0c-17.22-1.24-28.06-6.08-28.99-12.95-.26-1.91.26-3.89,1.53-5.89.14-.22.43-.28.65-.14.22.14.28.43.14.65-1.15,1.81-1.62,3.58-1.4,5.26.85,6.3,11.63,10.96,28.13,12.14.26.02.45.24.43.5-.02.25-.22.43-.47.43Z" />
      <path class="cls-7"
        d="M67.89,164.31c-.25,0-.45-.19-.47-.44-.01-.26.18-.48.44-.49,4.12-.23,8.36-.63,12.59-1.2,6.6-.89,12.99-2.17,19.01-3.78.25-.07.51.08.57.33.07.25-.08.51-.33.57-6.06,1.63-12.49,2.91-19.13,3.81-4.25.58-8.51.98-12.66,1.21,0,0-.02,0-.03,0Z" />
      <path class="cls-7"
        d="M114.07,154.4c-.18,0-.36-.11-.43-.29-.1-.24.01-.51.25-.61,6.51-2.76,11.64-5.88,14.83-9.04.18-.18.48-.18.66,0,.18.18.18.48,0,.66-3.27,3.24-8.5,6.43-15.12,9.23-.06.03-.12.04-.18.04Z" />
      <path class="cls-7"
        d="M125.39,142.82c-.09,0-.18-.03-.26-.08-.21-.14-.27-.44-.13-.65,1.14-1.69,1.62-3.34,1.4-4.91-.7-5.15-8.83-9.07-21.76-10.47-.26-.03-.44-.26-.42-.52.03-.26.26-.45.52-.42,13.58,1.47,21.81,5.58,22.58,11.28.24,1.8-.28,3.67-1.56,5.56-.09.13-.24.21-.39.21Z" />
      <path class="cls-7"
        d="M75.68,127.43c-.23,0-.43-.17-.46-.41-.03-.26.14-.49.4-.53,4.69-.64,9.36-1.04,13.88-1.2.25-.02.48.19.48.45,0,.26-.19.48-.45.48-4.49.16-9.13.56-13.79,1.19-.02,0-.04,0-.06,0Z" />
      <path class="cls-7"
        d="M41.58,137.13c-.17,0-.34-.09-.42-.26-.12-.23-.02-.51.21-.63,4.97-2.52,11.2-4.79,18.03-6.58.25-.06.51.08.57.33.07.25-.08.51-.33.57-6.77,1.77-12.94,4.02-17.85,6.51-.07.03-.14.05-.21.05Z" />
      <path class="cls-7"
        d="M29.08,149.03s-.05,0-.08,0c-.26-.04-.43-.28-.39-.54.44-2.66,2.44-5.37,5.93-8.05.21-.16.5-.12.66.09.16.21.12.5-.09.66-3.25,2.49-5.18,5.07-5.57,7.46-.04.23-.24.39-.46.39Z" />
      <path class="cls-7"
        d="M54.58,162.03s-.02,0-.03,0c-13.19-.93-22.35-4.27-25.13-9.16-.13-.23-.05-.51.18-.64.23-.13.51-.05.64.18,2.58,4.54,11.69,7.79,24.38,8.69.26.02.45.24.43.5-.02.25-.22.44-.47.44Z" />
      <path class="cls-7"
        d="M80.24,161.02c-.23,0-.43-.17-.46-.41-.03-.26.14-.49.4-.53,6.03-.82,11.87-1.99,17.35-3.48.25-.07.51.08.58.33.07.25-.08.51-.33.58-5.52,1.5-11.4,2.69-17.47,3.51-.02,0-.04,0-.06,0Z" />
      <path class="cls-7"
        d="M110.77,153c-.18,0-.35-.11-.43-.28-.1-.24,0-.51.24-.62,5.63-2.45,10.03-5.2,12.74-7.97.18-.19.48-.19.66,0,.19.18.19.48,0,.66-2.79,2.85-7.3,5.68-13.04,8.18-.06.03-.12.04-.19.04Z" />
      <path class="cls-7"
        d="M119.26,142.68c-.08,0-.17-.02-.25-.07-.22-.14-.29-.43-.15-.64.83-1.34,1.17-2.65,1-3.89-.6-4.44-7.63-7.81-18.8-9.02-.26-.03-.44-.26-.42-.52.03-.26.26-.44.52-.42,11.8,1.28,18.96,4.86,19.63,9.82.2,1.46-.18,2.98-1.13,4.51-.09.14-.24.22-.4.22Z" />
      <path class="cls-7"
        d="M44.68,139.02c-.16,0-.32-.09-.41-.24-.13-.23-.05-.51.18-.64,7.67-4.3,19.14-7.73,31.47-9.4,5.13-.7,10.18-1.07,15.02-1.1h0c.26,0,.47.21.47.47,0,.26-.21.47-.47.47-4.8.03-9.82.4-14.9,1.09-12.21,1.66-23.56,5.04-31.14,9.29-.07.04-.15.06-.23.06Z" />
      <path class="cls-7"
        d="M37.76,144.3c-.11,0-.22-.04-.31-.11-.2-.17-.22-.47-.05-.66.83-.96,1.88-1.92,3.13-2.85.21-.15.5-.11.66.09.16.21.11.5-.09.66-1.2.9-2.2,1.81-2.98,2.72-.09.11-.22.16-.35.16Z" />
      <path class="cls-7"
        d="M35.55,149.3c-.26,0-.47-.21-.47-.47,0-.61.09-1.23.29-1.85.08-.25.34-.39.59-.31.25.08.39.34.31.59-.16.53-.25,1.06-.24,1.57,0,.26-.21.47-.47.47h0Z" />
      <path class="cls-7"
        d="M58.12,159.68s-.02,0-.03,0c-11.7-.77-19.81-3.69-22.24-8.01-.13-.23-.05-.51.18-.64.23-.13.51-.05.64.18,2.24,3.98,10.28,6.8,21.49,7.54.26.02.45.24.44.5-.02.25-.22.44-.47.44Z" />
      <path class="cls-7"
        d="M79.93,158.78c-.23,0-.43-.17-.46-.41-.03-.26.14-.49.4-.53,4.27-.58,8.45-1.37,12.43-2.35.25-.06.5.09.57.34.06.25-.09.51-.34.57-4.01.99-8.23,1.78-12.53,2.37-.02,0-.04,0-.06,0Z" />
      <path class="cls-7"
        d="M106.13,151.93c-.18,0-.35-.11-.43-.28-.1-.24,0-.51.25-.62,4.82-2.07,8.63-4.41,11.03-6.76.18-.18.48-.18.66,0,.18.18.18.48,0,.66-2.48,2.43-6.39,4.84-11.31,6.95-.06.03-.12.04-.18.04Z" />
      <path class="cls-7"
        d="M79.64,156.63c-.23,0-.43-.17-.46-.41-.03-.26.14-.49.4-.53,3.28-.44,6.51-1.04,9.6-1.76.25-.06.5.1.56.35.06.25-.1.5-.35.56-3.12.73-6.38,1.33-9.68,1.78-.02,0-.04,0-.06,0Z" />
      <path class="cls-7"
        d="M102.01,150.77c-.18,0-.35-.11-.43-.28-.1-.24,0-.51.24-.62,7.85-3.38,12.25-7.47,11.78-10.95-.44-3.25-5.03-5.86-12.59-7.16-.25-.04-.43-.29-.38-.54.04-.25.29-.43.54-.38,8.11,1.39,12.86,4.22,13.37,7.96.54,3.98-3.96,8.33-12.34,11.94-.06.03-.12.04-.19.04Z" />
      <path class="cls-7"
        d="M60.62,157.37s-.02,0-.03,0c-11.4-.82-18.57-4.05-19.2-8.65-.98-7.21,14.32-15.04,34.83-17.83,2.98-.4,5.97-.68,8.87-.83.26,0,.48.19.49.44.01.26-.19.48-.44.49-2.88.14-5.83.42-8.79.82-19.32,2.62-34.9,10.3-34.03,16.77.55,4.06,7.58,7.07,18.34,7.84.26.02.45.24.43.5-.02.25-.22.43-.47.43Z" />
      <path class="cls-2"
        d="M79.29,153.57c-15.79,2.14-29.18-.52-29.92-5.94-.74-5.42,11.47-11.55,27.25-13.69,15.79-2.14,29.18.52,29.92,5.94.74,5.42-11.47,11.55-27.25,13.69Z" />
      <path class="cls-7"
        d="M68.61,154.79c-11.07,0-19.1-2.67-19.7-7.1-.78-5.77,11.37-12.01,27.66-14.22,16.29-2.21,29.66.58,30.44,6.34.78,5.77-11.37,12.01-27.66,14.22h0c-3.78.51-7.4.76-10.74.76ZM87.09,133.68c-3.27,0-6.78.23-10.4.72-15.24,2.07-27.54,8.1-26.85,13.17.69,5.07,14.15,7.61,29.39,5.54h0c15.24-2.07,27.54-8.1,26.85-13.17-.52-3.87-8.48-6.26-18.99-6.26ZM79.29,153.57h0,0Z" />
      <path class="cls-8"
        d="M78.13,145.05c-2.08.28-3.84-.07-3.94-.78-.1-.71,1.51-1.52,3.58-1.8,2.08-.28,3.84.07,3.94.78.1.71-1.51,1.52-3.58,1.8Z" />
      <path class="cls-3"
        d="M72.81,98.5v1.41-1.41c-18.43,0-35.6,2.38-48.35,6.71-6.36,2.16-11.38,4.71-14.92,7.59-3.87,3.14-5.89,6.58-5.99,10.24-.22,7.38,7.56,14.42,21.9,19.82,13.87,5.22,32.39,8.41,52.16,8.99,2.11.06,4.24.09,6.34.09,18.42,0,35.6-2.38,48.35-6.71,6.36-2.16,11.38-4.71,14.92-7.59,3.87-3.14,5.89-6.58,5.99-10.24.22-7.38-7.56-14.42-21.9-19.82-13.87-5.22-32.39-8.41-52.16-8.99-2.11-.06-4.24-.09-6.34-.09h0Z" />
      <ellipse class="cls-4" cx="78.37" cy="125.21" rx="25.23" ry="73.46"
        transform="translate(-49.07 199.9) rotate(-88.33)" />
      <path class="cls-1" d="M83.13,128.91l55.06,12.48c6.11-2.79,10.43-6.09,12.4-9.75l-59.71-7.65-7.75,4.92Z" />
      <path class="cls-6"
        d="M123.74,128.29c7.66-2.89,14.37-7.32,20.14-12.8-12-8.43-36.43-14.67-64.77-15.49-40.55-1.18-73.75,9.15-74.16,23.08-.16,5.47,4.77,10.69,13.28,15.07,35.08,5.56,71.87,2.02,105.51-9.85Z" />
      <path class="cls-4" d="M40.51,102.62c-11.72,2.13-21.3,5.41-27.55,9.45l65.7,13.04-38.15-22.49Z" />
      <path class="cls-7"
        d="M83.98,150.99c-2.1,0-4.22-.03-6.35-.09-19.66-.57-38.08-3.74-51.85-8.93-13.93-5.24-21.49-11.96-21.29-18.91.2-6.95,8.14-13.22,22.35-17.64,14.06-4.37,32.63-6.47,52.29-5.89,19.66.57,38.08,3.74,51.85,8.93,13.93,5.24,21.49,11.96,21.29,18.91-.2,6.95-8.14,13.22-22.35,17.64-12.53,3.9-28.65,5.99-45.94,5.99ZM72.77,100.37c-17.19,0-33.21,2.07-45.65,5.94-13.8,4.29-21.51,10.25-21.7,16.77-.19,6.52,7.15,12.92,20.68,18.01,13.68,5.15,31.99,8.3,51.55,8.87,19.56.57,38.02-1.51,51.98-5.85,13.8-4.29,21.51-10.25,21.7-16.77.4-13.65-32.01-25.7-72.23-26.88-2.12-.06-4.24-.09-6.33-.09Z" />
      <path class="cls-7"
        d="M141.38,132.4c-.09,0-.19-.03-.27-.08-.21-.15-.27-.44-.12-.65,1.03-1.49,1.58-3.03,1.62-4.58.22-7.5-11.43-14.97-30.4-19.48-.25-.06-.41-.31-.35-.56.06-.25.31-.41.56-.35,19.72,4.69,31.35,12.33,31.12,20.42-.05,1.74-.65,3.45-1.79,5.09-.09.13-.24.2-.39.2Z" />
      <path class="cls-7"
        d="M101.22,105.45s-.05,0-.07,0c-7.07-1.1-14.51-1.77-22.14-1.99-.26,0-.46-.22-.45-.48,0-.26.23-.46.48-.45,7.66.22,15.15.9,22.25,2,.26.04.43.28.39.53-.04.23-.24.4-.46.4Z" />
      <path class="cls-7"
        d="M32.15,108.93c-.2,0-.38-.13-.45-.32-.08-.25.05-.51.3-.59,6.94-2.26,15.52-3.92,24.82-4.8.26-.02.49.16.51.42.02.26-.16.49-.42.51-9.23.88-17.74,2.53-24.62,4.76-.05.02-.1.02-.14.02Z" />
      <path class="cls-7"
        d="M19.03,115.27c-.14,0-.28-.06-.37-.18-.16-.21-.12-.5.09-.66.88-.67,1.86-1.32,2.93-1.95.22-.13.51-.06.64.17.13.22.06.51-.17.64-1.04.61-1.99,1.24-2.84,1.89-.08.06-.18.1-.28.1Z" />
      <path class="cls-7"
        d="M17.04,131.22c-.12,0-.25-.05-.34-.14-2.41-2.51-3.59-5.12-3.51-7.77.07-2.53,1.31-4.98,3.66-7.27.19-.18.48-.18.66,0,.18.19.18.48,0,.66-2.17,2.11-3.31,4.34-3.38,6.62-.07,2.38,1.02,4.77,3.25,7.09.18.19.17.48-.01.66-.09.09-.21.13-.32.13Z" />
      <path class="cls-7"
        d="M44.42,143.75s-.07,0-.11-.01c-7.78-1.85-14.61-4.28-19.76-7.02-.23-.12-.31-.41-.19-.63.12-.23.41-.31.63-.19,5.08,2.7,11.83,5.1,19.54,6.94.25.06.41.31.35.56-.05.22-.24.36-.46.36Z" />
      <path class="cls-7"
        d="M83.33,147.99c-1.86,0-3.73-.03-5.62-.08-.26,0-.46-.22-.45-.48,0-.26.22-.47.48-.45,20.31.59,39.1-2.04,51.57-7.23.24-.1.51.01.61.25.1.24-.01.51-.25.61-11.42,4.75-28.07,7.38-46.33,7.38Z" />
      <path class="cls-7"
        d="M133.48,138.77c-.17,0-.33-.09-.41-.25-.12-.23-.03-.51.19-.63.9-.48,1.74-.97,2.52-1.47.22-.14.51-.08.65.14.14.22.08.51-.14.65-.8.52-1.67,1.02-2.59,1.51-.07.04-.15.05-.22.05Z" />
      <path class="cls-7"
        d="M131.77,132.2c-.11,0-.21-.04-.3-.11-.2-.17-.23-.46-.06-.66,1.24-1.49,1.89-3.04,1.94-4.62.19-6.36-9.69-12.71-25.77-16.57-.25-.06-.41-.31-.35-.56.06-.25.31-.41.56-.35,16.78,4.03,26.68,10.58,26.48,17.51-.05,1.79-.78,3.54-2.15,5.19-.09.11-.23.17-.36.17Z" />
      <path class="cls-7"
        d="M96.64,108.16s-.05,0-.07,0c-5.66-.82-11.6-1.33-17.66-1.51-2.89-.08-5.79-.09-8.63-.02-.27,0-.47-.2-.48-.46,0-.26.2-.47.46-.48,2.85-.07,5.77-.06,8.68.02,6.09.18,12.07.69,17.76,1.52.26.04.43.28.4.53-.03.23-.23.4-.46.4Z" />
      <path class="cls-7"
        d="M38.82,111.31c-.2,0-.38-.13-.45-.32-.08-.25.05-.51.3-.59,6.59-2.14,14.81-3.63,23.76-4.32.26-.02.48.17.5.43.02.26-.17.48-.43.5-8.88.68-17.02,2.16-23.54,4.28-.05.02-.1.02-.14.02Z" />
      <path class="cls-7"
        d="M27.06,117.14c-.14,0-.27-.06-.36-.17-.16-.2-.13-.5.07-.66.91-.74,1.97-1.46,3.15-2.14.22-.13.51-.05.64.17.13.22.05.51-.17.64-1.14.66-2.16,1.35-3.03,2.06-.09.07-.19.1-.3.1Z" />
      <path class="cls-7"
        d="M49.06,141.11s-.07,0-.11-.01c-16.79-4.03-26.69-10.58-26.49-17.51.06-1.93.89-3.8,2.48-5.56.17-.19.47-.21.66-.04.19.17.21.47.04.66-1.43,1.6-2.19,3.27-2.24,4.97-.19,6.36,9.69,12.71,25.77,16.57.25.06.41.31.35.56-.05.21-.24.36-.46.36Z" />
      <path class="cls-7"
        d="M82.58,144.79c-1.58,0-3.18-.02-4.78-.07-4.29-.13-8.56-.42-12.69-.87-.26-.03-.44-.26-.41-.52.03-.26.26-.44.52-.41,4.11.45,8.35.74,12.62.87,6.66.19,13.17-.02,19.37-.63.26-.03.49.16.51.42.03.26-.16.49-.42.51-4.75.47-9.68.7-14.71.7Z" />
      <path class="cls-7"
        d="M112.34,141.62c-.21,0-.4-.14-.46-.36-.06-.25.09-.5.35-.57,6.88-1.66,12.44-3.9,16.1-6.5.21-.15.5-.1.65.11.15.21.1.5-.11.65-3.76,2.66-9.44,4.96-16.43,6.64-.04,0-.07.01-.11.01Z" />
      <path class="cls-7"
        d="M125.4,132.04c-.12,0-.23-.04-.32-.13-.19-.18-.2-.47-.02-.66,1.4-1.48,2.14-3.03,2.19-4.61.15-5.2-7.23-10.39-19.76-13.88-.25-.07-.39-.33-.33-.58.07-.25.33-.39.58-.33,13.16,3.67,20.61,9.07,20.44,14.81-.05,1.82-.87,3.58-2.44,5.23-.09.1-.22.15-.34.15Z" />
      <path class="cls-7"
        d="M92.72,109.82s-.04,0-.06,0c-4.46-.58-9.1-.94-13.8-1.08-.26,0-.46-.22-.45-.48,0-.26.23-.46.48-.45,4.73.14,9.41.5,13.89,1.09.26.03.44.27.4.52-.03.24-.23.41-.46.41Z" />
      <path class="cls-7"
        d="M43.64,112.75c-.2,0-.38-.13-.45-.33-.08-.25.06-.51.31-.59,5.31-1.67,11.84-2.9,18.87-3.54.26-.03.49.17.51.42.02.26-.17.49-.42.51-6.96.64-13.42,1.85-18.67,3.5-.05.01-.09.02-.14.02Z" />
      <path class="cls-7"
        d="M29.37,122.45c-.05,0-.1,0-.15-.03-.24-.08-.38-.35-.29-.59.87-2.56,3.28-4.9,7.16-6.97.23-.12.51-.04.63.19.12.23.04.51-.19.63-3.61,1.93-5.93,4.16-6.71,6.45-.07.19-.25.32-.44.32Z" />
      <path class="cls-7"
        d="M52.4,139.44s-.07,0-.11-.01c-12.87-3.07-21.36-7.86-23.3-13.14-.09-.24.03-.51.28-.6.24-.09.51.03.6.28,1.8,4.9,10.27,9.59,22.64,12.55.25.06.41.31.35.56-.05.21-.24.36-.46.36Z" />
      <path class="cls-7"
        d="M82.13,142.69c-1.41,0-2.83-.02-4.26-.06-.26,0-.46-.22-.45-.48,0-.26.22-.47.48-.45,6.09.18,12.04-.03,17.69-.61.26-.03.49.16.51.42.03.26-.16.49-.42.51-4.36.45-8.9.67-13.55.67Z" />
      <path class="cls-7"
        d="M109.31,139.69c-.21,0-.4-.14-.45-.35-.06-.25.09-.51.34-.57,5.95-1.49,10.75-3.5,13.87-5.79.21-.15.5-.11.65.1.15.21.11.5-.1.65-3.22,2.36-8.13,4.41-14.19,5.94-.04,0-.08.01-.11.01Z" />
      <path class="cls-7"
        d="M119.37,130.9c-.11,0-.22-.04-.31-.12-.19-.17-.21-.47-.04-.66,1.04-1.19,1.59-2.42,1.62-3.68.13-4.48-6.25-8.95-17.08-11.97-.25-.07-.39-.33-.33-.58.07-.25.33-.39.58-.33,11.44,3.19,17.91,7.89,17.76,12.9-.04,1.48-.67,2.91-1.86,4.27-.09.11-.22.16-.35.16Z" />
      <path class="cls-7"
        d="M46.39,115.12c-.19,0-.37-.12-.44-.31-.09-.24.04-.51.28-.6,8.27-2.99,20.15-4.5,32.58-4.14,5.17.15,10.22.61,15,1.37.26.04.43.28.39.54-.04.26-.28.43-.54.39-4.74-.75-9.75-1.21-14.88-1.36-12.32-.36-24.07,1.13-32.23,4.08-.05.02-.11.03-.16.03Z" />
      <path class="cls-7"
        d="M38.7,119.19c-.13,0-.27-.06-.36-.17-.17-.2-.14-.49.06-.66.97-.81,2.17-1.58,3.55-2.3.23-.12.51-.03.63.2.12.23.03.51-.2.63-1.33.69-2.47,1.43-3.39,2.19-.09.07-.19.11-.3.11Z" />
      <path class="cls-7"
        d="M35.7,123.77s-.05,0-.07,0c-.26-.04-.43-.28-.39-.54.1-.6.29-1.2.58-1.78.12-.23.4-.32.63-.21.23.12.33.4.21.63-.25.5-.42,1-.5,1.51-.04.23-.24.39-.46.39Z" />
      <path class="cls-7"
        d="M56.28,137.69s-.07,0-.11-.01c-11.42-2.67-18.94-6.87-20.63-11.53-.09-.24.04-.51.28-.6.24-.09.51.04.6.28,1.56,4.3,9.03,8.39,19.97,10.94.25.06.41.31.35.56-.05.22-.24.36-.46.36Z" />
      <path class="cls-7"
        d="M81.61,140.41c-1.22,0-2.45-.02-3.68-.05-.26,0-.46-.22-.45-.48,0-.26.22-.46.48-.45,4.31.13,8.56.03,12.65-.29.26-.02.48.17.5.43.02.26-.17.48-.43.5-2.95.23-5.99.34-9.07.34Z" />
      <path class="cls-7"
        d="M104.9,137.88c-.21,0-.4-.14-.45-.36-.06-.25.09-.51.34-.57,5.09-1.26,9.23-2.94,11.98-4.87.21-.15.5-.1.65.11.15.21.1.5-.11.65-2.84,2-7.09,3.73-12.3,5.01-.04,0-.08.01-.11.01Z" />
      <path class="cls-7"
        d="M81.13,138.24c-1.04,0-2.09-.02-3.13-.05-.26,0-.46-.22-.45-.48,0-.26.22-.47.48-.45,3.31.1,6.59.04,9.76-.17.26-.01.48.18.5.44.02.26-.18.48-.44.5-2.19.14-4.44.22-6.71.22Z" />
      <path class="cls-7"
        d="M101.03,136.07c-.21,0-.4-.14-.45-.36-.06-.25.09-.5.34-.57,8.29-2.05,13.31-5.37,13.41-8.88.1-3.28-4.01-6.61-11.26-9.12-.24-.08-.37-.35-.29-.6.08-.24.35-.37.6-.29,7.78,2.7,12,6.26,11.89,10.03-.12,4.01-5.26,7.57-14.12,9.76-.04,0-.08.01-.11.01Z" />
      <path class="cls-7"
        d="M59.12,135.82s-.07,0-.11-.01c-11.11-2.67-17.66-7.03-17.53-11.67.21-7.28,16.58-12.51,37.27-11.9,3.01.09,6,.3,8.89.63.26.03.44.26.41.52-.03.26-.26.44-.52.41-2.86-.33-5.82-.54-8.81-.63-19.49-.57-36.12,4.47-36.31,10.99-.12,4.1,6.32,8.21,16.81,10.73.25.06.41.31.35.56-.05.21-.24.36-.46.36Z" />
      <path class="cls-2"
        d="M78.09,135.12c-15.93-.46-28.71-5.28-28.55-10.74.16-5.47,13.2-9.53,29.12-9.06,15.93.46,28.71,5.28,28.55,10.74-.16,5.47-13.2,9.53-29.12,9.06Z" />
      <path class="cls-7"
        d="M80.57,135.62c-.83,0-1.66-.01-2.5-.04-7.75-.23-15.02-1.48-20.46-3.53-5.59-2.11-8.63-4.84-8.54-7.7.08-2.86,3.27-5.41,8.98-7.19,5.55-1.73,12.87-2.55,20.63-2.33,16.43.48,29.17,5.41,29,11.23-.08,2.86-3.27,5.41-8.98,7.19-4.95,1.54-11.31,2.36-18.13,2.36ZM76.17,115.74c-6.72,0-12.98.81-17.84,2.32-5.22,1.62-8.25,3.93-8.32,6.32-.07,2.39,2.82,4.87,7.94,6.8,5.34,2.01,12.5,3.24,20.15,3.47h0c7.65.22,14.87-.59,20.32-2.28,5.22-1.62,8.25-3.93,8.32-6.32.15-5.11-12.72-9.81-28.09-10.26-.83-.02-1.66-.04-2.48-.04Z" />
      <path class="cls-8"
        d="M78.34,126.52c-2.09-.06-3.78-.69-3.75-1.41s1.74-1.25,3.83-1.19,3.78.69,3.75,1.41c-.02.72-1.74,1.25-3.83,1.19Z" />
      <path class="cls-3"
        d="M101.62,74.39v1.87-1.87c-8.73,0-17.86.64-27.15,1.89-19.64,2.66-37.78,7.79-51.07,14.47-13.88,6.97-20.96,14.95-19.95,22.49.79,5.87,6.37,10.72,16.12,14.01,9.01,3.04,21.12,4.65,35.02,4.65,8.73,0,17.86-.64,27.14-1.89,19.64-2.66,37.78-7.79,51.07-14.47,13.88-6.97,20.96-14.95,19.95-22.49-.79-5.87-6.37-10.72-16.12-14.01-9.01-3.04-21.12-4.65-35.02-4.65h0Z" />
      <ellipse class="cls-4" cx="78.11" cy="103.14" rx="73.46" ry="25.23"
        transform="translate(-13.12 11.4) rotate(-7.7)" />
      <path class="cls-11" d="M37.07,87.01c-11.21,4.01-20.13,8.8-25.64,13.81l66.95,2.16-41.3-15.98Z" />
      <path class="cls-11" d="M64.38,129.75l12.5-26.81-3.2-.1-28.36,26.91c5.95.34,12.35.35,19.07,0Z" />
      <path class="cls-7"
        d="M101.62,76.27c27.51,0,47.85,6.46,49.28,17.03,1.87,13.81-29.21,29.41-69.41,34.85-9.41,1.27-18.49,1.88-26.89,1.88-27.51,0-47.85-6.46-49.28-17.03-1.87-13.81,29.21-29.41,69.41-34.85,9.41-1.27,18.49-1.88,26.89-1.88h0ZM101.62,75.33v.94-.94c-8.69,0-17.78.63-27.02,1.88-19.54,2.64-37.58,7.75-50.78,14.38-13.5,6.78-20.4,14.42-19.44,21.53.74,5.5,6.1,10.08,15.49,13.24,8.92,3.01,20.92,4.6,34.72,4.6,8.68,0,17.78-.63,27.02-1.88,19.54-2.64,37.58-7.75,50.78-14.38,13.5-6.78,20.4-14.42,19.44-21.53-.74-5.5-6.1-10.08-15.49-13.24-8.92-3.01-20.92-4.6-34.72-4.6h0Z" />
      <path class="cls-7"
        d="M141.37,99.98c-.07,0-.14-.01-.2-.05-.23-.11-.33-.39-.22-.62.78-1.63,1.06-3.24.86-4.78-1.01-7.44-13.71-12.91-33.17-14.27-.26-.02-.45-.24-.43-.5s.24-.45.5-.43c20.22,1.42,32.94,7.06,34.03,15.08.23,1.72-.08,3.51-.94,5.31-.08.17-.25.27-.42.27Z" />
      <path class="cls-7"
        d="M75.13,81.58c-.23,0-.43-.17-.46-.41-.03-.26.15-.49.4-.53,7.59-1.03,15.09-1.58,22.28-1.65.25,0,.47.21.47.46,0,.26-.21.47-.46.47-7.15.07-14.61.62-22.16,1.64-.02,0-.04,0-.06,0Z" />
      <path class="cls-7"
        d="M29.78,94.61c-.17,0-.33-.09-.42-.25-.12-.23-.03-.51.2-.63,6.48-3.36,14.68-6.39,23.71-8.78.25-.06.51.08.57.33.07.25-.08.51-.33.57-8.96,2.37-17.09,5.38-23.52,8.71-.07.04-.14.05-.21.05Z" />
      <path class="cls-7"
        d="M17.86,103c-.12,0-.23-.04-.32-.13-.19-.18-.2-.47-.02-.66.75-.8,1.62-1.61,2.58-2.4.2-.17.49-.14.66.06.17.2.14.49-.06.66-.93.77-1.76,1.55-2.49,2.33-.09.1-.22.15-.34.15Z" />
      <path class="cls-7"
        d="M18.5,119.07c-.1,0-.2-.03-.28-.09-2.78-2.09-4.38-4.47-4.73-7.09-.34-2.51.48-5.13,2.43-7.77.15-.21.45-.25.66-.1.21.15.25.45.1.66-1.8,2.44-2.56,4.82-2.25,7.08.32,2.36,1.79,4.54,4.36,6.47.21.16.25.45.09.66-.09.12-.23.19-.38.19Z" />
      <path class="cls-7"
        d="M47.55,126.97s-.02,0-.03,0c-7.98-.56-15.11-1.84-20.64-3.71-.25-.08-.38-.35-.29-.59.08-.25.35-.38.59-.29,5.45,1.84,12.5,3.11,20.4,3.66.26.02.45.24.43.5-.02.25-.22.44-.47.44Z" />
      <path class="cls-7"
        d="M81.09,125.65c-.23,0-.43-.17-.46-.41-.03-.26.14-.49.4-.53,20.13-2.72,38.25-8.38,49.7-15.53.22-.14.51-.07.65.15.14.22.07.51-.15.65-11.56,7.22-29.81,12.92-50.07,15.66-.02,0-.04,0-.06,0Z" />
      <path class="cls-7"
        d="M134.61,107.55c-.14,0-.28-.06-.37-.18-.16-.21-.12-.5.09-.66.8-.61,1.56-1.24,2.24-1.86.19-.17.49-.16.66.03.17.19.16.49-.03.66-.7.64-1.48,1.28-2.31,1.91-.08.06-.18.1-.28.1Z" />
      <path class="cls-7"
        d="M131.85,101.35c-.08,0-.16-.02-.24-.06-.22-.13-.3-.42-.17-.64.98-1.67,1.37-3.31,1.16-4.87-.85-6.3-11.63-10.96-28.12-12.15-.26-.02-.45-.24-.43-.5.02-.26.24-.45.5-.43,17.22,1.25,28.05,6.09,28.98,12.96.24,1.77-.19,3.61-1.28,5.47-.09.15-.24.23-.4.23Z" />
      <path class="cls-7"
        d="M67.02,86.12c-.22,0-.42-.16-.46-.38-.05-.25.12-.5.37-.55,2.8-.53,5.69-1,8.57-1.39,6.04-.82,12.02-1.29,17.77-1.4.26.02.47.2.48.46,0,.26-.2.47-.46.48-5.72.11-11.66.58-17.67,1.39-2.86.39-5.73.85-8.52,1.38-.03,0-.06,0-.09,0Z" />
      <path class="cls-7"
        d="M36.74,95.88c-.17,0-.33-.09-.42-.25-.12-.23-.03-.51.2-.63,6.16-3.18,14.02-5.99,22.73-8.13.25-.06.51.09.57.34.06.25-.09.5-.34.57-8.65,2.12-16.44,4.91-22.53,8.05-.07.04-.14.05-.21.05Z" />
      <path class="cls-7"
        d="M26.09,103.54c-.11,0-.22-.04-.31-.12-.19-.17-.21-.47-.04-.66.78-.88,1.7-1.76,2.76-2.63.2-.16.5-.14.66.06.16.2.14.49-.06.66-1.02.84-1.91,1.69-2.65,2.53-.09.1-.22.16-.35.16Z" />
      <path class="cls-7"
        d="M51.7,123.6s-.02,0-.03,0c-17.22-1.24-28.05-6.09-28.98-12.96-.26-1.91.26-3.89,1.54-5.89.14-.22.43-.28.65-.14.22.14.28.43.14.65-1.16,1.81-1.63,3.58-1.4,5.26.85,6.3,11.63,10.96,28.12,12.15.26.02.45.24.43.5-.02.25-.22.43-.47.43Z" />
      <path class="cls-7"
        d="M68.04,123.69c-.25,0-.45-.19-.47-.44-.01-.26.18-.48.44-.49,4.13-.22,8.36-.63,12.59-1.2,6.6-.89,13-2.16,19.01-3.78.25-.07.51.08.57.33.07.25-.08.51-.33.57-6.06,1.62-12.49,2.9-19.13,3.8-4.25.58-8.51.98-12.66,1.21,0,0-.02,0-.03,0Z" />
      <path class="cls-7"
        d="M114.22,113.8c-.18,0-.36-.11-.43-.29-.1-.24.01-.51.25-.61,6.51-2.76,11.64-5.88,14.83-9.03.18-.18.48-.18.66,0,.18.18.18.48,0,.66-3.27,3.24-8.5,6.43-15.12,9.23-.06.03-.12.04-.18.04Z" />
      <path class="cls-7"
        d="M125.54,102.23c-.09,0-.18-.03-.26-.08-.21-.14-.27-.44-.12-.65,1.14-1.69,1.62-3.34,1.41-4.91-.7-5.16-8.83-9.07-21.75-10.48-.26-.03-.44-.26-.42-.52.03-.26.26-.44.52-.41,13.58,1.48,21.81,5.59,22.58,11.29.24,1.8-.28,3.67-1.56,5.56-.09.13-.24.21-.39.21Z" />
      <path class="cls-7"
        d="M75.84,86.81c-.23,0-.43-.17-.46-.41-.03-.26.14-.49.4-.53,4.69-.63,9.36-1.04,13.88-1.19.25-.01.48.19.48.45,0,.26-.19.48-.45.48-4.49.15-9.13.55-13.79,1.18-.02,0-.04,0-.06,0Z" />
      <path class="cls-7"
        d="M41.73,96.5c-.17,0-.34-.09-.42-.26-.12-.23-.02-.51.21-.63,4.97-2.52,11.2-4.79,18.04-6.57.25-.07.51.08.57.34.07.25-.08.51-.33.57-6.77,1.77-12.94,4.01-17.85,6.5-.07.03-.14.05-.21.05Z" />
      <path class="cls-7"
        d="M29.23,108.4s-.05,0-.08,0c-.26-.04-.43-.28-.39-.54.44-2.66,2.44-5.37,5.93-8.05.21-.16.5-.12.66.09.16.21.12.5-.09.66-3.25,2.49-5.18,5.07-5.57,7.46-.04.23-.24.39-.46.39Z" />
      <path class="cls-7"
        d="M54.72,121.41s-.02,0-.03,0c-13.19-.94-22.35-4.28-25.13-9.17-.13-.23-.05-.51.18-.64.23-.13.51-.05.64.18,2.58,4.54,11.69,7.79,24.38,8.69.26.02.45.24.43.5-.02.25-.22.44-.47.44Z" />
      <path class="cls-7"
        d="M80.38,120.41c-.23,0-.43-.17-.46-.41-.03-.26.14-.49.4-.53,6.03-.82,11.87-1.99,17.35-3.48.25-.07.51.08.57.33.07.25-.08.51-.33.58-5.52,1.5-11.4,2.68-17.47,3.5-.02,0-.04,0-.06,0Z" />
      <path class="cls-7"
        d="M110.91,112.39c-.18,0-.35-.11-.43-.28-.1-.24,0-.51.24-.62,5.63-2.44,10.03-5.2,12.74-7.97.18-.18.48-.19.66,0,.18.18.19.48,0,.66-2.79,2.85-7.3,5.68-13.04,8.17-.06.03-.12.04-.19.04Z" />
      <path class="cls-7"
        d="M119.41,102.08c-.08,0-.17-.02-.25-.07-.22-.14-.29-.43-.15-.65.83-1.34,1.17-2.65,1-3.89-.6-4.44-7.63-7.81-18.8-9.03-.26-.03-.44-.26-.41-.52.03-.26.26-.44.52-.42,11.8,1.28,18.96,4.87,19.63,9.83.2,1.46-.18,2.98-1.14,4.51-.09.14-.24.22-.4.22Z" />
      <path class="cls-7"
        d="M44.84,98.39c-.16,0-.32-.09-.41-.24-.13-.23-.05-.51.18-.64,7.68-4.3,19.15-7.72,31.47-9.39,5.13-.69,10.18-1.06,15.02-1.09h0c.26,0,.47.21.47.47,0,.26-.21.47-.47.47-4.8.03-9.82.4-14.9,1.09-12.21,1.65-23.56,5.03-31.14,9.28-.07.04-.15.06-.23.06Z" />
      <path class="cls-7"
        d="M37.91,103.67c-.11,0-.22-.04-.31-.11-.2-.17-.22-.47-.05-.66.83-.95,1.88-1.91,3.13-2.85.21-.16.5-.11.66.09.16.21.11.5-.09.66-1.2.9-2.2,1.81-2.98,2.72-.09.11-.22.16-.35.16Z" />
      <path class="cls-7"
        d="M35.7,108.67c-.26,0-.47-.21-.47-.47,0-.61.09-1.23.29-1.85.08-.25.34-.39.59-.31.25.08.39.34.31.59-.16.53-.25,1.06-.24,1.57,0,.26-.21.47-.47.47h0Z" />
      <path class="cls-7"
        d="M58.26,119.06s-.02,0-.03,0c-11.7-.77-19.8-3.7-22.24-8.02-.13-.23-.05-.51.18-.64.23-.13.51-.05.64.18,2.24,3.98,10.27,6.8,21.48,7.54.26.02.45.24.44.5-.02.25-.22.44-.47.44Z" />
      <path class="cls-7"
        d="M80.08,118.16c-.23,0-.43-.17-.46-.41-.03-.26.14-.49.4-.53,4.27-.58,8.46-1.37,12.44-2.34.25-.06.5.09.57.34.06.25-.09.5-.34.57-4.01.98-8.23,1.78-12.53,2.36-.02,0-.04,0-.06,0Z" />
      <path class="cls-7"
        d="M106.27,111.33c-.18,0-.35-.11-.43-.28-.1-.24,0-.51.25-.62,4.82-2.07,8.63-4.41,11.03-6.76.18-.18.48-.18.66,0,.18.18.18.48,0,.66-2.48,2.43-6.39,4.83-11.31,6.95-.06.03-.12.04-.18.04Z" />
      <path class="cls-7"
        d="M79.79,116.01c-.23,0-.43-.17-.46-.41-.03-.26.14-.49.4-.53,3.28-.44,6.51-1.03,9.6-1.76.25-.06.5.1.56.35.06.25-.1.5-.35.56-3.12.73-6.38,1.33-9.69,1.77-.02,0-.04,0-.06,0Z" />
      <path class="cls-7"
        d="M102.16,110.17c-.18,0-.35-.11-.43-.28-.1-.24,0-.51.25-.62,7.85-3.38,12.25-7.47,11.78-10.95-.44-3.25-5.03-5.87-12.59-7.17-.25-.04-.43-.29-.38-.54s.29-.43.54-.38c8.11,1.39,12.86,4.22,13.36,7.96.54,3.98-3.96,8.33-12.34,11.93-.06.03-.12.04-.18.04Z" />
      <path class="cls-7"
        d="M60.76,116.75s-.02,0-.03,0c-11.4-.82-18.57-4.06-19.19-8.66-.98-7.21,14.33-15.04,34.83-17.81,2.98-.4,5.97-.68,8.87-.82.26,0,.48.19.49.45.01.26-.19.48-.44.49-2.88.14-5.84.41-8.79.81-19.32,2.61-34.91,10.29-34.03,16.76.55,4.06,7.57,7.07,18.33,7.85.26.02.45.24.43.5-.02.25-.22.43-.47.43Z" />
      <path class="cls-11"
        d="M79.44,112.96c-15.79,2.14-29.18-.53-29.92-5.95-.73-5.42,11.47-11.55,27.26-13.68,15.79-2.14,29.18.53,29.92,5.95.73,5.42-11.47,11.55-27.26,13.69Z" />
      <path class="cls-7"
        d="M68.78,114.18c-11.08,0-19.12-2.67-19.72-7.11-.78-5.77,11.37-12.01,27.66-14.21,16.29-2.2,29.66.59,30.44,6.35.38,2.84-2.35,5.88-7.69,8.56-5.19,2.61-12.29,4.62-19.97,5.66h0c-3.77.51-7.38.75-10.72.75ZM87.22,93.07c-3.26,0-6.77.23-10.37.72-15.24,2.06-27.54,8.09-26.86,13.16.69,5.07,14.14,7.61,29.39,5.55l.06.46-.06-.46c7.59-1.03,14.57-3,19.68-5.56,4.88-2.45,7.5-5.22,7.18-7.59-.52-3.87-8.49-6.27-19.02-6.27Z" />
      <path class="cls-7"
        d="M78.28,104.43c-2.08.28-3.84-.07-3.93-.78-.1-.71,1.51-1.52,3.59-1.8,2.08-.28,3.84.07,3.93.78.1.71-1.51,1.52-3.59,1.8Z" />
      <path class="cls-9"
        d="M107.4,71.33l-.22.72c-.79,2.56.65,5.29,3.21,6.08l1.49.46c2.56.79,5.29-.65,6.08-3.21l.22-.72c.02-.07.02-.13.04-.2.62-1.97,1.91-6.13,2.9-9.34l5.01,4.77c.23.22.55.32.87.27.32-.05.59-.25.74-.53l2.48-4.66c.13-.25.16-.55.06-.81-.09-.27-.29-.49-.55-.6l-7.97-3.56c-.27-.12-.57-.12-.84,0-.27.12-.47.35-.56.63-.91,2.95-2.07,6.72-2.98,9.65-.59-.77-1.41-1.38-2.41-1.69l-1.49-.46c-2.56-.79-5.29.65-6.08,3.21Z" />
      <path class="cls-7"
        d="M113.31,79.34c-.53,0-1.07-.08-1.59-.24l-1.49-.46c-2.85-.88-4.45-3.91-3.57-6.75l.22-.72h0c.88-2.85,3.91-4.45,6.75-3.57l1.49.46c.75.23,1.43.62,2.01,1.15.86-2.77,1.88-6.09,2.7-8.75.13-.43.44-.78.85-.97.41-.19.88-.19,1.29,0l7.97,3.56c.4.18.7.51.84.92.14.41.1.86-.1,1.25l-2.48,4.66c-.23.43-.65.73-1.13.81-.48.08-.98-.08-1.33-.41l-4.37-4.16c-.95,3.06-2.07,6.7-2.64,8.51,0,.07-.02.13-.04.19l-.22.72c-.42,1.38-1.36,2.51-2.64,3.18-.79.42-1.65.63-2.52.63ZM107.91,71.49l-.22.72c-.7,2.27.58,4.7,2.85,5.4l1.49.46c1.1.34,2.27.23,3.29-.31,1.02-.54,1.77-1.44,2.11-2.54l.22-.72c.01-.08.02-.13.03-.17.63-2,1.91-6.15,2.91-9.36.06-.18.2-.32.38-.37.18-.05.38,0,.51.13l5.01,4.77c.11.11.26.15.41.13.15-.02.28-.12.35-.25l2.48-4.66c.06-.12.07-.26.03-.38-.04-.13-.14-.23-.26-.29l-7.97-3.56c-.13-.06-.27-.06-.4,0-.13.06-.22.17-.26.3-.91,2.95-2.07,6.72-2.98,9.65-.06.19-.22.34-.42.37-.2.04-.4-.04-.53-.2-.55-.72-1.29-1.24-2.14-1.5l-1.49-.46c-2.27-.7-4.7.58-5.4,2.85h0Z" />
      <path class="cls-10"
        d="M134,62.42l-.22.72c-.79,2.56.65,5.29,3.21,6.08l1.49.46c2.56.79,5.29-.65,6.08-3.21l.22-.72c.02-.07.02-.13.04-.2.62-1.97,1.91-6.13,2.9-9.34l5.01,4.77c.23.22.55.32.87.27.32-.05.59-.25.74-.53l2.48-4.66c.13-.25.16-.55.06-.81-.09-.27-.29-.49-.55-.6l-7.97-3.56c-.27-.12-.57-.12-.84,0-.27.12-.47.35-.56.63-.91,2.95-2.07,6.72-2.98,9.65-.59-.77-1.41-1.38-2.41-1.69l-1.49-.46c-2.56-.79-5.29.65-6.08,3.21Z" />
      <path class="cls-7"
        d="M139.92,70.43c-.53,0-1.07-.08-1.59-.24l-1.49-.46c-2.85-.88-4.45-3.91-3.57-6.75l.22-.72h0c.88-2.85,3.91-4.45,6.75-3.57l1.49.46c.75.23,1.43.62,2.01,1.15.86-2.77,1.88-6.09,2.7-8.75.13-.43.44-.78.85-.97.41-.19.88-.19,1.29,0l7.97,3.56c.4.18.7.51.84.92.14.41.1.86-.1,1.25l-2.48,4.66c-.23.43-.65.73-1.13.81-.48.08-.98-.08-1.33-.41l-4.37-4.16c-.95,3.06-2.07,6.7-2.64,8.51,0,.07-.02.13-.04.19l-.22.72c-.42,1.38-1.36,2.51-2.64,3.18-.79.42-1.65.63-2.52.63ZM134.52,62.58l-.22.72c-.7,2.27.58,4.7,2.85,5.4l1.49.46c1.1.34,2.27.23,3.29-.31,1.02-.54,1.77-1.44,2.11-2.54l.22-.72c.01-.08.02-.13.03-.17.63-2,1.91-6.15,2.91-9.36.06-.18.2-.32.38-.37.18-.05.38,0,.51.13l5.01,4.77c.11.11.26.15.41.13.15-.02.28-.12.35-.25l2.48-4.66c.06-.12.07-.26.03-.38-.04-.13-.14-.23-.26-.29l-7.97-3.56c-.13-.06-.27-.06-.4,0-.13.06-.22.17-.26.3-.91,2.95-2.07,6.72-2.98,9.65-.06.19-.22.34-.42.37-.2.04-.4-.04-.53-.2-.55-.72-1.29-1.24-2.14-1.5l-1.49-.46c-2.27-.7-4.7.58-5.4,2.85h0Z" />
      <path class="cls-9"
        d="M38.72,81.73l-1.32-.7c-.88-.47-1.85-.61-2.77-.49,1.37-2.6,3.13-5.94,4.51-8.55.13-.25.15-.54.05-.8-.1-.26-.31-.47-.57-.57l-7.81-2.99c-.25-.1-.54-.08-.78.04-.24.12-.43.34-.51.6l-1.48,4.84c-.09.29-.04.61.14.86.18.25.47.4.77.41l6.62.16c-1.5,2.85-3.45,6.53-4.36,8.29-.03.06-.08.1-.11.16l-.34.64c-1.2,2.27-.33,5.09,1.94,6.29l1.32.7c2.27,1.2,5.09.33,6.29-1.94l.34-.64c1.2-2.27.33-5.09-1.94-6.29Z" />
      <path class="cls-7"
        d="M36.2,91.75c-.85,0-1.68-.21-2.45-.61l-1.32-.7c-2.57-1.36-3.55-4.55-2.2-7.12l.34-.64c.03-.06.07-.11.1-.16.82-1.58,2.48-4.72,3.9-7.41l-5.62-.14c-.5-.01-.97-.26-1.26-.66-.29-.4-.38-.93-.23-1.4l1.48-4.84c.13-.42.43-.78.83-.97.39-.19.86-.21,1.27-.06l7.81,2.99c.43.16.76.5.92.93.16.43.13.9-.08,1.31-1.22,2.31-2.74,5.19-4.02,7.62.71.05,1.4.25,2.03.59l1.32.7c1.24.66,2.16,1.76,2.57,3.11.41,1.35.28,2.77-.38,4.02l-.34.64c-.66,1.24-1.76,2.16-3.11,2.57-.51.16-1.04.24-1.56.24ZM30.46,68.17c-.06,0-.11.01-.16.04-.09.04-.16.13-.19.22l-1.48,4.84c-.03.11-.01.23.05.32.07.09.17.15.29.15l6.62.16c.21,0,.41.12.52.3.11.18.11.41.01.6-1.5,2.85-3.44,6.53-4.36,8.29-.04.07-.07.11-.1.15l-.35.65c-1.04,1.97-.29,4.42,1.68,5.46l1.32.7c.95.5,2.04.6,3.08.29,1.03-.32,1.88-1.02,2.38-1.97l.34-.64c.5-.95.61-2.05.29-3.08-.32-1.03-1.02-1.88-1.97-2.38,0,0,0,0,0,0l-1.32-.7c-.73-.39-1.57-.54-2.41-.42-.23.03-.45-.07-.59-.26-.13-.19-.15-.43-.04-.64,1.37-2.6,3.13-5.94,4.51-8.55.05-.09.06-.2.02-.3-.04-.1-.11-.18-.21-.22l-7.81-2.99s-.09-.02-.13-.02Z" />
      <path class="cls-10"
        d="M19.54,77.71l-1.32-.7c-.88-.47-1.85-.61-2.77-.49,1.37-2.6,3.13-5.94,4.51-8.55.13-.25.15-.54.05-.8-.1-.26-.31-.47-.57-.57l-7.81-2.99c-.25-.1-.54-.08-.78.04-.24.12-.43.34-.51.6l-1.48,4.84c-.09.29-.04.61.14.86.18.25.47.4.77.41l6.62.16c-1.5,2.85-3.45,6.53-4.36,8.29-.03.06-.08.1-.11.16l-.34.64c-1.2,2.27-.33,5.09,1.94,6.29l1.32.7c2.27,1.2,5.09.33,6.29-1.94l.34-.64c1.2-2.27.33-5.09-1.94-6.29Z" />
      <path class="cls-7"
        d="M17.02,87.73c-.85,0-1.68-.21-2.45-.61l-1.32-.7c-2.57-1.36-3.55-4.55-2.2-7.12l.34-.64c.03-.06.07-.11.1-.16.82-1.58,2.48-4.72,3.9-7.41l-5.62-.14c-.5-.01-.97-.26-1.26-.66-.29-.4-.38-.93-.23-1.4l1.48-4.84c.13-.42.43-.78.83-.97.39-.19.86-.21,1.27-.06l7.81,2.99c.43.16.76.5.92.93.16.43.13.9-.08,1.31-1.22,2.31-2.74,5.19-4.02,7.62.71.05,1.4.25,2.03.59l1.32.7c1.24.66,2.16,1.76,2.57,3.11.41,1.35.28,2.77-.38,4.02l-.34.64c-.66,1.24-1.76,2.16-3.11,2.57-.51.16-1.04.24-1.56.24ZM11.28,64.15c-.06,0-.11.01-.16.04-.09.04-.16.13-.19.22l-1.48,4.84c-.03.11-.01.23.05.32.07.09.17.15.29.15l6.62.16c.21,0,.41.12.52.3.11.18.11.41.01.6-1.5,2.85-3.44,6.53-4.36,8.29-.04.07-.07.11-.1.15l-.35.65c-1.04,1.97-.29,4.42,1.68,5.46l1.32.7c.95.5,2.04.6,3.08.29,1.03-.32,1.88-1.02,2.38-1.97l.34-.64c.5-.95.61-2.05.29-3.08s-1.02-1.88-1.97-2.38c0,0,0,0,0,0l-1.32-.7c-.73-.39-1.57-.54-2.41-.42-.23.03-.45-.07-.59-.26-.13-.19-.15-.43-.04-.64,1.37-2.6,3.13-5.94,4.51-8.55.05-.09.06-.2.02-.3-.04-.1-.11-.18-.21-.22l-7.81-2.99s-.09-.02-.13-.02Z" />
      <path class="cls-6"
        d="M123.48,50.59v.76c0,2.72,2.21,4.93,4.93,4.93h1.58c2.72,0,4.93-2.21,4.93-4.93v-.76c0-.07-.02-.13-.02-.2.01-2.1.02-6.51.02-9.92l6.28,3.12c.29.15.63.15.93,0,.29-.14.5-.42.56-.74l1.01-5.26c.05-.28-.01-.58-.18-.81-.17-.23-.43-.39-.72-.42l-8.79-1.07c-.3-.04-.59.06-.82.26-.22.2-.35.48-.35.78,0,3.13,0,7.14,0,10.24-.8-.57-1.78-.91-2.84-.91h-1.58c-2.72,0-4.93,2.21-4.93,4.93Z" />
      <path class="cls-7"
        d="M129.99,56.83h-1.58c-3.02,0-5.47-2.46-5.47-5.47v-.76c0-3.02,2.46-5.47,5.47-5.47h1.58c.8,0,1.58.18,2.3.51,0-2.94,0-6.48,0-9.3,0-.45.19-.89.53-1.19.34-.3.79-.44,1.24-.39l8.79,1.07c.44.05.83.29,1.09.64.26.35.36.8.28,1.23l-1.01,5.26c-.09.48-.41.9-.85,1.12-.44.22-.97.22-1.41,0l-5.49-2.73c0,3.26,0,7.12-.02,9.05.01.07.02.14.02.2v.76c0,3.02-2.46,5.47-5.47,5.47ZM128.41,46.2c-2.42,0-4.39,1.97-4.39,4.39v.76c0,2.42,1.97,4.39,4.39,4.39h1.58c2.42,0,4.39-1.97,4.39-4.39v-.76c-.01-.08-.02-.13-.02-.18.01-2.12.02-6.54.02-9.94,0-.19.1-.36.26-.46.16-.1.36-.11.53-.02l6.28,3.12c.14.07.3.07.44,0,.14-.07.24-.2.27-.35l1.01-5.26c.03-.13,0-.28-.09-.39-.08-.11-.21-.18-.34-.2l-8.79-1.07c-.14-.02-.28.03-.39.12-.11.09-.17.23-.17.37,0,3.13,0,7.14,0,10.24,0,.2-.11.39-.29.48-.18.09-.4.08-.56-.04-.75-.53-1.62-.81-2.53-.81h-1.58Z" />
      <path class="cls-6"
        d="M29.18,51.69l-1.56-.83c-1.05-.55-2.19-.72-3.28-.58,1.62-3.07,3.71-7.03,5.34-10.12.16-.29.18-.64.06-.95-.12-.31-.36-.56-.67-.68l-9.24-3.54c-.3-.11-.64-.1-.93.04-.29.14-.51.4-.6.7l-1.75,5.73c-.11.35-.04.73.17,1.02.21.3.55.47.91.48l7.83.19c-1.78,3.37-4.08,7.73-5.16,9.81-.04.07-.09.12-.13.19l-.4.75c-1.42,2.69-.39,6.03,2.3,7.45l1.56.83c2.69,1.42,6.03.39,7.45-2.3l.4-.75c1.42-2.69.39-6.03-2.3-7.45Z" />
      <path class="cls-7"
        d="M26.2,63.43c-.96,0-1.94-.23-2.85-.71l-1.56-.83c-1.44-.76-2.51-2.05-2.99-3.61-.48-1.57-.33-3.22.44-4.67l.4-.75c.03-.06.07-.12.11-.18,1-1.91,3.01-5.73,4.71-8.94l-6.84-.17c-.55-.01-1.08-.29-1.4-.74-.32-.45-.42-1.03-.26-1.56l1.75-5.73c.14-.47.48-.86.92-1.08.44-.22.96-.24,1.41-.06l9.25,3.54c.48.18.85.56,1.03,1.04.18.48.15,1.01-.09,1.46-1.47,2.79-3.31,6.27-4.85,9.18.88.04,1.74.28,2.53.69l1.56.83c1.44.76,2.51,2.05,2.99,3.61.48,1.57.33,3.22-.44,4.67l-.4.75c-1.1,2.08-3.23,3.26-5.43,3.26ZM19.41,35.52c-.08,0-.17.02-.24.06-.14.07-.24.19-.28.33l-1.75,5.73c-.05.16-.02.34.08.48.1.14.26.22.43.23l7.83.19c.21,0,.41.12.52.3.11.18.11.41.01.6-1.78,3.37-4.08,7.73-5.16,9.81-.04.07-.07.12-.11.16l-.42.78c-.61,1.15-.73,2.48-.35,3.73.39,1.25,1.23,2.28,2.39,2.89l1.56.83c2.39,1.26,5.35.35,6.61-2.04l.4-.75c.61-1.15.73-2.48.35-3.73-.39-1.25-1.23-2.28-2.39-2.89h0l-1.56-.83c-.89-.47-1.9-.65-2.92-.51-.23.03-.45-.07-.59-.26-.13-.19-.15-.44-.04-.64,1.62-3.07,3.71-7.03,5.34-10.13.07-.14.08-.3.03-.45-.06-.15-.17-.26-.32-.32l-9.24-3.54c-.06-.02-.13-.04-.19-.04Z" />
      <path class="cls-7" d="M76.88,169.67v49.91c0,.78.63,1.41,1.41,1.41s1.41-.63,1.41-1.41v-50.35l-2.81.44Z" />
      <path class="cls-7" d="M79.69,40.85c0-.78-.63-1.41-1.41-1.41s-1.41.63-1.41,1.41v62.77l2.81-.18v-62.58Z" />
      <path class="cls-9"
        d="M78.22,70.84c-.09,0-.17-.02-.25-.07l-40.41-25.28c-.13-.08-.21-.21-.22-.36,0-.08-.58-8.09-.96-16.06-.79-16.47-.05-16.7.48-16.87,1.46-.46,18.65-7.17,18.82-7.24.06-.02.11-.03.17-.03.1,0,.2.03.28.09l20.8,15.75L97.97,3.92c.08-.07.19-.1.29-.1.06,0,.11,0,.16.03.18.07,17.75,6.63,19.23,7.08.54.16,1.28.39,1.43,16.84.07,7.97-.04,15.99-.04,16.07,0,.16-.08.3-.21.38l-40.36,26.53c-.08.05-.17.08-.26.08Z" />
      <path class="cls-7"
        d="M98.27,4.29s17.74,6.63,19.26,7.09c1.52.46,1.05,32.46,1.05,32.46l-40.36,26.53-40.41-25.28s-2.29-31.99-.8-32.46c1.49-.47,18.85-7.25,18.85-7.25l21.09,15.97,21.33-17.07h0ZM98.27,3.35c-.21,0-.42.07-.59.21l-20.76,16.61-20.51-15.53c-.17-.13-.36-.19-.57-.19-.12,0-.23.02-.34.06-5.99,2.34-17.64,6.86-18.79,7.23-.81.26-1.17.92-1.16,6.16,0,2.73.12,6.49.35,11.18.38,7.97.95,15.99.96,16.07.02.3.18.57.44.73l40.41,25.28c.15.1.32.14.5.14s.36-.05.51-.15l40.36-26.53c.26-.17.42-.46.42-.77,0-.08.11-8.1.04-16.08-.04-4.69-.14-8.45-.29-11.18-.29-5.22-.67-5.87-1.47-6.11-1.18-.35-13.07-4.78-19.2-7.07-.11-.04-.22-.06-.33-.06h0Z" />
      <path class="cls-6"
        d="M77.91,66.41s-.09-.01-.12-.04l-32.03-20.04c-.06-.04-.1-.11-.11-.18,0-.06-.46-6.41-.76-12.73-.62-12.95-.05-13.13.29-13.24,1.16-.37,14.79-5.69,14.93-5.74.03-.01.06-.02.09-.02.05,0,.1.02.14.05l16.57,12.55,16.76-13.41s.09-.05.15-.05c.03,0,.06,0,.08.01.14.05,14.07,5.26,15.25,5.62.32.1.92.28,1.03,13.22.06,6.32-.03,12.67-.03,12.73,0,.08-.04.15-.11.19l-31.99,21.03s-.08.04-.13.04Z" />
      <path class="cls-7"
        d="M93.81,13.8s14.06,5.26,15.26,5.62c1.2.36.83,25.72.83,25.72l-31.99,21.03-32.03-20.04s-1.82-25.35-.64-25.72c1.18-.37,14.94-5.74,14.94-5.74l16.72,12.66,16.9-13.53h0ZM93.81,13.33c-.1,0-.21.04-.29.1l-16.62,13.3-16.43-12.44c-.08-.06-.18-.09-.28-.09-.06,0-.12.01-.17.03-.14.05-13.76,5.37-14.91,5.73-.51.16-1.08.34-.45,13.47.3,6.32.76,12.67.76,12.73.01.15.09.28.22.36l32.03,20.04c.08.05.16.07.25.07s.18-.03.26-.08l31.99-21.03c.13-.09.21-.23.21-.38,0-.06.09-6.42.03-12.74-.12-13.12-.69-13.29-1.2-13.44-1.17-.35-15.1-5.56-15.24-5.61-.05-.02-.11-.03-.16-.03h0Z" />
      <path class="cls-10"
        d="M78.18,62.95s-.09-.01-.12-.04l-25.09-15.7c-.06-.04-.1-.11-.11-.18,0-.05-.36-5.03-.6-9.97-.49-10.18-.04-10.33.26-10.42.91-.29,11.58-4.45,11.69-4.49.03-.01.06-.02.09-.02.05,0,.1.02.14.05l12.95,9.81,13.1-10.48s.09-.05.15-.05c.03,0,.06,0,.08.01.11.04,11.02,4.12,11.94,4.4.3.09.75.23.85,10.4.05,4.95-.03,9.93-.03,9.98,0,.08-.04.15-.11.19l-25.06,16.48s-.08.04-.13.04Z" />
      <path class="cls-7"
        d="M90.63,21.69s11.02,4.12,11.96,4.4c.94.28.65,20.15.65,20.15l-25.06,16.48-25.09-15.7s-1.42-19.86-.5-20.15c.92-.29,11.7-4.5,11.7-4.5l13.1,9.92,13.24-10.6h0ZM90.63,21.22c-.1,0-.21.04-.29.1l-12.96,10.37-12.81-9.7c-.08-.06-.18-.09-.28-.09-.06,0-.12.01-.17.03-.11.04-10.78,4.21-11.67,4.49-.47.15-.92.29-.42,10.65.24,4.95.59,9.93.6,9.98.01.15.09.28.22.36l25.09,15.7c.08.05.16.07.25.07s.18-.03.26-.08l25.06-16.47c.13-.09.21-.23.21-.38,0-.05.07-5.03.03-9.98-.09-10.35-.54-10.48-1.01-10.63-.92-.28-11.82-4.35-11.93-4.39-.05-.02-.11-.03-.16-.03h0Z" />
      <path class="cls-2"
        d="M78.04,55.68s-.09-.01-.12-.04l-16.19-10.13c-.06-.04-.1-.11-.11-.18-.93-13-.37-13.18-.16-13.25.58-.18,7.47-2.87,7.54-2.9.03-.01.06-.02.09-.02.05,0,.1.02.14.05l8.31,6.29,8.4-6.72s.09-.05.15-.05c.03,0,.06,0,.08.01.07.03,7.11,2.66,7.7,2.84.19.06.78.23.59,13.23,0,.08-.04.15-.11.19l-16.17,10.63s-.08.04-.13.04Z" />
      <path class="cls-7"
        d="M86.08,28.96s7.11,2.66,7.72,2.84c.61.18.42,13.01.42,13.01l-16.17,10.63-16.19-10.13s-.92-12.82-.32-13.01c.6-.19,7.55-2.9,7.55-2.9l8.45,6.4,8.55-6.84h0ZM86.08,28.5c-.1,0-.21.04-.29.1l-8.26,6.61-8.16-6.18c-.08-.06-.18-.09-.28-.09-.06,0-.12.01-.17.03-2.4.94-7.06,2.75-7.52,2.89-.43.14-.72.23-.39,7.04.15,3.2.38,6.41.39,6.44.01.15.09.28.22.36l16.19,10.13c.08.05.16.07.25.07s.18-.03.26-.08l16.17-10.63c.13-.09.21-.23.21-.38,0-.03.05-3.25.02-6.45-.06-6.8-.34-6.89-.77-7.02-.47-.14-5.23-1.91-7.69-2.83-.05-.02-.11-.03-.16-.03h0Z" />
      <path class="cls-9"
        d="M78.14,225.8c-.2,0-.37-.12-.44-.31l-12.89-35.56c-.07-.2,0-.42.17-.54.08-.06.17-.08.27-.08.11,0,.22.04.3.11l12.66,10.69,12.59-10.69c.09-.07.19-.11.3-.11.09,0,.19.03.27.08.17.12.25.34.17.54l-12.89,35.56c-.07.19-.24.31-.44.31h-.08Z" />
      <path class="cls-7"
        d="M91.11,189.77h0,0ZM91.11,189.77l-12.89,35.56h-.08l-12.89-35.56,12.96,10.94,12.89-10.94h0ZM65.25,188.83c-.19,0-.37.06-.54.17-.35.24-.49.69-.35,1.09l12.89,35.56c.13.37.49.62.88.62h.08c.39,0,.75-.25.88-.62l12.87-35.52c.05-.11.07-.23.07-.36,0-.52-.42-.94-.93-.94h0s-.01,0-.02,0c-.23,0-.43.09-.59.23l-12.28,10.43-12.36-10.43c-.17-.15-.39-.22-.6-.22h0ZM91.11,190.71h0,0Z" />
      <polygon class="cls-10" points="78.22 200.71 78.14 225.33 78.22 225.33 91.11 189.77 78.22 200.71" />
    </g>
  </g>
</svg>