<?xml version="1.0" encoding="UTF-8"?>
<svg id="Capa_2" xmlns="http://www.w3.org/2000/svg" xmlns:xlink="http://www.w3.org/1999/xlink"
  viewBox="0 0 255.71 193.49">
  <defs>
    <style>
      .cls-1 {
        fill: aqua;
      }

      .cls-2 {
        fill: #29abe2;
      }

      .cls-3 {
        fill: #fff;
      }

      .cls-4 {
        filter: none;
      }

      .cls-5 {
        fill: #862291;
      }

      .cls-6 {
        fill: #1b1464;
      }

      .cls-7 {
        fill: #fcee21;
      }

      .cls-8 {
        fill: #ed1e79;
      }
    </style>
  </defs>
  <g id="_0">
    <g class="cls-4">
      <path class="cls-3"
        d="M251.82,48.06c-2.31-2.74-5.78-3.67-10.34-2.77.89-1.46,1.74-2.88,2.54-4.25,11.44-19.46,12.72-26.44,11.14-30.92-.84-2.38-2.62-4.08-5-4.79-1.91-.57-3.98-.44-6.17.38-4.86,1.82-11.75,8.16-20.49,18.85-.09-.27-.18-.53-.27-.8-.7-1.9-1.69-3.67-2.97-5.3l1.57-1.53c1.37-1.34,1.86-3.31,1.27-5.13-.59-1.82-2.14-3.13-4.04-3.4l-4.15-.6-1.86-3.76c-.85-1.72-2.57-2.79-4.49-2.79s-3.64,1.07-4.49,2.79l-1.86,3.76-1.38.2c-4.29-.91-9.13-1.43-14.38-1.55-7.11-.15-14.89.41-23.12,1.68-1.79-2.67-4.82-4.3-8.06-4.3-4.72,0-8.7,3.36-9.54,7.92-2.58.66-5.19,1.38-7.79,2.15-12.15-3.6-24.34-6.01-35.32-6.98-1.42-4.11-5.31-6.92-9.71-6.92s-8.21,2.76-9.67,6.79c-9.95.9-17.75,3.4-23.22,7.45-.9-.79-2.05-1.22-3.29-1.22-1.92,0-3.64,1.07-4.49,2.79l-2.2,4.45-4.91.71c-1.9.27-3.45,1.58-4.04,3.41-.59,1.82-.11,3.79,1.27,5.13l3.56,3.47-.84,4.89c-.33,1.89.44,3.77,1.99,4.89,1.51,1.1,3.62,1.25,5.27.38l2.01-1.06c1.01,2.1,2.28,4.24,3.8,6.39v10.26c-6.05-4.58-7.36-4.74-8.63-4.89-.07,0-.24-.03-.32-.03-1.37-.1-2.69.22-3.79.91-16.77-14.1-28.72-21.67-35.57-22.5-2.3-.27-4.34.09-6.05,1.08-2.15,1.25-3.48,3.32-3.74,5.83-.49,4.73,2.4,11.21,18.08,27.45,1.1,1.14,2.26,2.32,3.47,3.53-4.64.2-7.8,1.91-9.4,5.11-.16.33-.3.67-.4,1.04-2.49,9.27,10.3,16.26,20.14,20.71.86.39,1.74.77,2.64,1.16-1.78,1.86-2.63,4.29-2.39,6.84.42,4.4,3.94,7.44,10.73,9.26-.9.96-1.54,1.97-1.94,3.06-.88,2.45-.46,5.08,1.16,7.21,1.52,2.01,3.87,3.22,6.98,3.6,2.25.27,4.98.14,8.28-.43-.53,1.49-.7,2.93-.52,4.37.23,1.86,1.3,5.27,5.91,7.2,1.43.6,2.97,1,4.57,1.19,1.4.17,2.87.18,4.4.04,2.8,4.61,6.38,9.21,10.68,13.68l-1.12.16c-1.9.27-3.45,1.58-4.04,3.41-.18.55-.22,1.01-.26,1.35-.03.31-.07.69-.28,1.52-.33,1.33.07,2.75,1.05,3.71l3.2,3.12-.18,2.76c-.22,1.8.55,3.59,2.03,4.66,1.53,1.11,3.6,1.26,5.27.38l3.73-1.96,3.73,1.96c1.67.88,3.74.73,5.27-.38,1.25-.91,1.98-2.29,2.06-3.79,19.44,13.15,39.36,20.55,40.23,20.87l3.64,1.34c.43.16.88.24,1.34.24.88,0,1.75-.31,2.43-.86l.21-.17,1.79.66c1.27.47,2.72.23,3.77-.62l3.26-2.64c1.03-.83,10.3-8.44,21.06-20.17,1.21-.18,2.33-.37,3.36-.54,7.72-1.33,12.4-2.46,12.3-6.81v-2.61c0-.1,0-.19,0-.3-.04-1.3-.61-2.5-1.58-3.4-.5-.46-1.07-.81-1.76-1.08.26-.35.52-.69.78-1.04l1.3-.68,2.41,1.26c1.67.88,3.74.73,5.27-.38,1.55-1.13,2.32-3,1.99-4.9l-.46-2.68,1.95-1.9c1.37-1.34,1.86-3.31,1.27-5.13-.43-1.31-1.37-2.37-2.57-2.96,2.05-3.81,3.82-7.59,5.26-11.26,1.18-.22,2.3-.53,3.34-.92,1.51-.57,2.91-1.32,4.16-2.23,4.03-2.95,4.27-6.52,4.06-8.38-.17-1.44-.67-2.8-1.52-4.12,3.34-.23,6.02-.73,8.15-1.53,2.93-1.09,4.93-2.82,5.94-5.14,1.07-2.46.86-5.11-.57-7.28-.64-.97-1.5-1.8-2.6-2.52,6.18-3.36,8.89-7.14,8.27-11.51-.36-2.54-1.75-4.7-3.92-6.09.79-.59,1.56-1.17,2.3-1.75,8.52-6.63,19.32-16.43,14.73-24.85-.18-.32-.38-.63-.62-.9ZM204.31,41.55c-.57-2.51-1.65-4.64-3.2-6.35-2.58-2.83-6.22-4.27-10.83-4.27h-10.92c-.12-.06-.24-.13-.36-.19.47-1.1.54-2.35.16-3.52-.59-1.82-2.14-3.13-4.04-3.4l-2.69-.39-1.2-2.44c-.51-1.04-1.35-1.85-2.36-2.32,10.72-1.38,20.52-1.41,28.17-.02l1.25,1.22-.71,4.13c-.32,1.89.44,3.77,1.99,4.9,1.53,1.11,3.6,1.26,5.27.38l3.71-1.95,3.72,1.95c.28.15.57.27.87.36.19,1.79-.14,3.81-1,6.01-.44.04-.89.14-1.32.28-.07.02-.24.08-.29.1-1.11.42-2.26.84-6.22,5.54ZM163.38,19.48c-.46.42-.85.92-1.13,1.51l-.69,1.4c-.43-.18-.87-.37-1.3-.55.99-.6,1.87-1.36,2.6-2.27.18-.03.35-.06.53-.09ZM154.61,31.66c-.64.39-1.2.93-1.61,1.56-2.23-1.52-5.02-2.29-8.31-2.29h-11.59c-1.85,0-3.5,1.02-4.37,2.56-1.63-1.22-3.54-2.07-5.72-2.53,1.76-.7,3.53-1.38,5.29-2.03,3.15-1.16,6.39-2.26,9.64-3.28,3.23,1.02,6.47,2.12,9.64,3.28,2.34.86,4.7,1.78,7.02,2.73ZM88.77,31.17c-2.61.71-4.81,2-6.56,3.85-1.78,1.89-3,4.29-3.62,7.15-.56.41-1.11.81-1.66,1.22v-7.46c0-2.76-2.24-5-5-5h-2.28l1.46-1.43c1.37-1.34,1.86-3.3,1.27-5.13-.43-1.32-1.36-2.38-2.57-2.96,4.02-1.94,9.52-3.18,16.11-3.62,1.91,1.78,4.37,2.75,6.99,2.75s4.96-.93,6.85-2.62c5.97.44,12.3,1.34,18.86,2.69-3.58,1.43-7.12,2.95-10.54,4.53l-1.02-.15-1.2-2.44c-.85-1.72-2.57-2.79-4.49-2.79s-3.64,1.07-4.49,2.79l-1.2,2.44-2.69.39c-1.9.28-3.45,1.58-4.04,3.41-.25.77-.31,1.59-.18,2.37Z" />
      <polygon class="cls-2"
        points="72.14 35.72 62.94 35.72 62.94 91.85 81.17 91.85 81.17 83.95 72.14 83.95 72.14 35.72" />
      <path class="cls-2"
        d="M93.92,35.32c-3.58,0-6.35,1-8.22,2.98-1.87,1.98-2.81,4.9-2.81,8.7v34c0,4.04.95,7.18,2.83,9.33,1.89,2.16,4.64,3.25,8.2,3.25s6.31-1.09,8.2-3.25c1.88-2.15,2.83-5.29,2.83-9.33v-34c0-3.79-.95-6.72-2.81-8.7-1.87-1.98-4.63-2.98-8.22-2.98ZM95.77,46.85v34.57c0,2.42-.6,3.65-1.78,3.65-.69,0-1.17-.25-1.46-.78-.31-.55-.47-1.5-.47-2.82v-34.55c0-2.09.65-3.1,1.98-3.1,1.16,0,1.73.99,1.73,3.03Z" />
      <path class="cls-2"
        d="M118.74,35.32c-3.58,0-6.35,1-8.22,2.98-1.87,1.98-2.81,4.9-2.81,8.7v31.95c0,4.04.95,7.18,2.83,9.33,1.89,2.16,4.64,3.25,8.2,3.25s6.31-1.09,8.2-3.25c1.88-2.15,2.83-5.29,2.83-9.33v-31.95c0-3.79-.95-6.72-2.81-8.7-1.87-1.98-4.63-2.98-8.22-2.98ZM120.6,46.85v32.52c0,2.42-.6,3.65-1.78,3.65-.69,0-1.17-.25-1.46-.78-.31-.55-.47-1.5-.47-2.82v-32.5c0-2.09.65-3.1,1.98-3.1,1.16,0,1.73.99,1.73,3.03Z" />
      <path class="cls-2"
        d="M150.59,37.39c-1.45-1.1-3.44-1.66-5.9-1.66h-11.8v62.76h9.05v-35.84h3.35c2.47,0,4.4-.56,5.76-1.67,1.35-1.1,2.3-2.68,2.83-4.69.52-1.98.78-4.33.78-7s-.31-5.19-.93-7.19c-.63-2.03-1.68-3.62-3.13-4.72ZM145.55,49.15c0,1.74-.18,3.07-.53,3.96-.33.82-1.27,1.24-2.79,1.24h-.28v-10.19h.76c1.24,0,2.01.4,2.33,1.22.35.88.52,2.15.52,3.77Z" />
      <polygon class="cls-2"
        points="166.34 61.42 174.61 61.42 174.61 52.75 166.34 52.75 166.34 44.62 174.96 44.62 174.96 35.72 156.99 35.72 156.99 81.98 175.54 81.98 175.54 73 166.34 73 166.34 61.42" />
      <path class="cls-2"
        d="M197.57,38.42c-1.63-1.79-4.08-2.7-7.29-2.7h-12.28v44.3h11.98c3.7,0,6.33-1.17,7.82-3.49,1.47-2.28,2.21-5.56,2.21-9.74v-20.54c0-3.41-.82-6.05-2.45-7.83ZM190.76,47.08v22.63c0,1.45-.7,2.13-2.2,2.13h-1.31v-28.01h.76c1.13,0,1.88.19,2.22.57.24.26.53.94.53,2.68Z" />
      <path class="cls-6"
        d="M71.93,35.94v48.23h9.02v7.48h-17.8v-55.71h8.77ZM71.93,34.8h-8.77c-.63,0-1.14.51-1.14,1.14v55.71c0,.63.51,1.14,1.14,1.14h17.8c.63,0,1.14-.51,1.14-1.14v-7.48c0-.63-.51-1.14-1.14-1.14h-7.88v-47.09c0-.63-.51-1.14-1.14-1.14h0Z" />
      <path class="cls-6"
        d="M93.92,35.54c3.54,0,6.23.97,8.06,2.92,1.84,1.94,2.75,4.79,2.75,8.55v34c0,4.01-.93,7.07-2.78,9.19-1.85,2.12-4.53,3.18-8.04,3.18s-6.19-1.06-8.04-3.18c-1.85-2.12-2.78-5.18-2.78-9.19v-34c0-3.76.92-6.61,2.75-8.55,1.84-1.94,4.52-2.92,8.06-2.92h0ZM93.99,85.29c1.33,0,1.99-1.29,1.99-3.86v-34.57c0-2.16-.65-3.24-1.94-3.24-1.46,0-2.19,1.11-2.19,3.31v34.55c0,1.36.17,2.34.5,2.93.33.59.88.88,1.65.88h0ZM93.92,34.4c-3.85,0-6.84,1.1-8.89,3.27-2.03,2.15-3.07,5.29-3.07,9.33v34c0,4.27,1.03,7.61,3.06,9.93,2.07,2.37,5.06,3.57,8.9,3.57s6.83-1.2,8.9-3.57c2.03-2.32,3.06-5.66,3.06-9.93v-34c0-4.04-1.03-7.18-3.06-9.33-2.05-2.17-5.04-3.27-8.89-3.27h0ZM93.99,84.15c-.44,0-.57-.15-.65-.31-.13-.23-.35-.85-.35-2.37v-34.55c0-2.18.71-2.18,1.05-2.18.53,0,.81.71.81,2.1v34.57c0,.64-.06,2.73-.86,2.73h0Z" />
      <path class="cls-6"
        d="M118.74,35.54c3.54,0,6.23.97,8.06,2.92,1.84,1.94,2.75,4.79,2.75,8.55v31.95c0,4.01-.93,7.07-2.78,9.19-1.85,2.12-4.53,3.18-8.04,3.18s-6.19-1.06-8.04-3.18c-1.85-2.12-2.78-5.18-2.78-9.19v-31.95c0-3.76.92-6.61,2.75-8.55,1.84-1.94,4.52-2.92,8.06-2.92h0ZM118.82,83.24c1.33,0,1.99-1.29,1.99-3.86v-32.52c0-2.16-.65-3.24-1.94-3.24-1.46,0-2.19,1.11-2.19,3.31v32.5c0,1.36.17,2.34.5,2.93.33.59.88.88,1.65.88h0ZM118.74,34.4c-3.85,0-6.84,1.1-8.89,3.27-2.03,2.15-3.06,5.29-3.06,9.33v31.95c0,4.27,1.03,7.61,3.06,9.93,2.07,2.37,5.06,3.57,8.9,3.57s6.83-1.2,8.9-3.57c2.03-2.32,3.06-5.66,3.06-9.93v-31.95c0-4.04-1.03-7.18-3.06-9.33-2.05-2.17-5.04-3.27-8.89-3.27h0ZM118.82,82.1c-.44,0-.57-.15-.65-.31-.13-.23-.35-.85-.35-2.37v-32.5c0-2.18.71-2.18,1.05-2.18.53,0,.81.71.81,2.1v32.52c0,.64-.06,2.73-.86,2.73h0Z" />
      <path class="cls-6"
        d="M144.69,35.94c2.43,0,4.35.54,5.77,1.62,1.42,1.08,2.44,2.62,3.05,4.61s.92,4.37.92,7.13-.26,4.97-.77,6.94c-.52,1.97-1.43,3.49-2.75,4.57-1.32,1.08-3.19,1.62-5.62,1.62h-3.56v35.84h-8.62v-62.34h11.59ZM141.72,54.56h.5c1.63,0,2.63-.46,2.99-1.37.37-.91.55-2.26.55-4.04,0-1.66-.18-2.95-.54-3.85-.36-.91-1.2-1.36-2.53-1.36h-.97v10.62h0ZM144.69,34.8h-11.59c-.63,0-1.14.51-1.14,1.14v62.34c0,.63.51,1.14,1.14,1.14h8.62c.63,0,1.14-.51,1.14-1.14v-34.7h2.43c2.68,0,4.82-.63,6.34-1.88,1.51-1.23,2.56-2.97,3.14-5.17.54-2.06.81-4.49.81-7.23s-.33-5.37-.97-7.46c-.68-2.22-1.85-3.96-3.45-5.18-1.62-1.23-3.79-1.85-6.46-1.85h0ZM142.86,53.39v-8.31c1.07.04,1.23.45,1.3.64.3.77.46,1.92.46,3.43,0,1.62-.16,2.84-.47,3.62-.16.4-.71.56-1.29.62h0Z" />
      <path class="cls-6"
        d="M174.75,35.94v8.47h-8.62v8.55h8.28v8.25h-8.28v12h9.2v8.55h-18.12v-45.83h17.55ZM174.75,34.8h-17.55c-.63,0-1.14.51-1.14,1.14v45.83c0,.63.51,1.14,1.14,1.14h18.12c.63,0,1.14-.51,1.14-1.14v-8.55c0-.63-.51-1.14-1.14-1.14h-8.06v-9.73h7.14c.63,0,1.14-.51,1.14-1.14v-8.25c0-.63-.51-1.14-1.14-1.14h-7.14v-6.27h7.49c.63,0,1.14-.51,1.14-1.14v-8.47c0-.63-.51-1.14-1.14-1.14h0Z" />
      <path class="cls-6"
        d="M190.28,35.94c3.16,0,5.53.88,7.13,2.63,1.6,1.75,2.39,4.32,2.39,7.69v20.54c0,4.15-.73,7.36-2.18,9.62-1.45,2.26-4,3.39-7.64,3.39h-11.77v-43.87h12.06ZM187.04,72.05h1.52c1.61,0,2.42-.78,2.42-2.34v-22.63c0-1.46-.2-2.41-.59-2.83-.39-.42-1.18-.64-2.38-.64h-.97v28.44h0ZM190.28,34.8h-12.06c-.63,0-1.14.51-1.14,1.14v43.87c0,.63.51,1.14,1.14,1.14h11.77c4.03,0,6.93-1.32,8.6-3.91,1.57-2.44,2.36-5.88,2.36-10.24v-20.54c0-3.65-.9-6.49-2.69-8.46-1.81-1.99-4.49-3-7.97-3h0ZM188.18,70.91v-26.16c1.12.02,1.38.26,1.38.27,0,.01.28.38.28,2.06v22.63c0,.83-.18,1.2-1.28,1.2h-.38Z" />
      <path class="cls-3"
        d="M201.23,78.31c-7.07-8.51-17.01-13.19-28-13.19-.08,0-.16,0-.24,0-19.26.12-31.23,11.01-36.98,21.87-9.03-8.44-23.25-15.05-41.52-9.03-10.48,3.45-18.4,11.05-22.31,21.37-4.21,11.12-3.36,24.44,2.18,33.93,19.8,33.93,73.31,53.94,75.58,54.78l3.93,1.45,3.26-2.64c1.87-1.52,45.83-37.55,53.22-75.93,2.05-10.67-1.53-23.47-9.13-32.61ZM102.9,91.08c16.41-2.24,30.1,16.46,30.21,16.62,1.19,1.68,3.73,3.48,6.99,3.04,3.2-.44,5.26-2.94,6.05-4.95l.11-.31c.31-1.04,7.76-25.49,26.82-25.61.05,0,.1,0,.15,0,8.36,0,13.67,4.27,16.66,7.87,4.74,5.71,7.2,14.09,5.99,20.4-5.32,27.64-35.32,56.08-44.8,64.48-11.76-4.92-49.69-22.29-63.99-46.79-3.28-5.62-3.74-14.37-1.13-21.27,1.63-4.31,5.24-9.99,13.14-12.59,1.24-.41,2.52-.71,3.79-.88Z" />
      <path class="cls-5"
        d="M191.88,86.84c-6.54-7.87-15.72-12.19-25.88-12.19-.07,0-.15,0-.22,0-17.81.11-28.07,12.9-33.39,22.94-8.35-7.8-22.3-16.63-39.19-11.07-9.69,3.19-17.01,10.21-20.63,19.76-3.89,10.28-3.1,22.59,2.02,31.36,18.3,31.37,67.78,49.87,69.87,50.64l3.64,1.34,3.01-2.44c1.73-1.4,42.37-34.72,49.2-70.19,1.9-9.86-1.41-21.7-8.44-30.15ZM100.98,98.65c15.17-2.07,27.82,15.21,27.93,15.37,1.1,1.55,3.45,3.22,6.46,2.81,2.95-.4,4.86-2.72,5.6-4.58l.1-.29c.28-.96,7.18-23.57,24.79-23.68.05,0,.09,0,.14,0,7.73,0,12.64,3.95,15.4,7.27,4.38,5.27,6.66,13.03,5.54,18.86-4.92,25.55-32.66,51.85-41.42,59.61-10.87-4.55-45.94-20.61-59.15-43.25-3.03-5.2-3.46-13.28-1.04-19.67,1.51-3.98,4.84-9.23,12.15-11.64,1.15-.38,2.33-.65,3.51-.82Z" />
      <path class="cls-8"
        d="M196.55,81.79c-6.54-7.87-15.72-12.19-25.88-12.19-.07,0-.15,0-.22,0-17.81.11-28.07,12.9-33.39,22.94-8.35-7.8-22.3-16.63-39.19-11.07-9.68,3.19-17.01,10.21-20.63,19.76-3.89,10.28-3.1,22.59,2.02,31.36,18.3,31.37,67.78,49.87,69.87,50.64l3.64,1.34,3.01-2.44c1.73-1.4,42.37-34.72,49.2-70.19,1.9-9.86-1.41-21.7-8.44-30.15ZM105.65,93.6c15.17-2.07,27.82,15.21,27.93,15.37,1.1,1.55,3.45,3.22,6.46,2.81,2.95-.4,4.86-2.72,5.6-4.58l.1-.29c.28-.96,7.18-23.57,24.79-23.68.05,0,.09,0,.14,0,7.73,0,12.64,3.95,15.4,7.27,4.38,5.27,6.66,13.03,5.54,18.86-4.92,25.55-32.66,51.85-41.42,59.61-10.87-4.55-45.94-20.61-59.15-43.25-3.03-5.2-3.46-13.28-1.04-19.67,1.51-3.98,4.84-9.23,12.15-11.64,1.15-.38,2.33-.65,3.51-.82Z" />
      <path class="cls-1"
        d="M91.03,125.73c-2.71-4.65-3.33-11.6-1.71-17.59-3.22-5.07-5.01-11.27-5.69-17.45-2.71,3.01-4.88,6.56-6.39,10.55-3.89,10.28-3.1,22.59,2.02,31.36,2.03,3.48,4.45,6.81,7.15,9.97,4.68-1.3,9.22-3.05,13.51-5.39-3.48-3.59-6.53-7.41-8.89-11.45Z" />
      <path class="cls-1"
        d="M199.31,128.89c2.57-5.51,4.57-11.2,5.68-16.95,1.9-9.86-1.41-21.7-8.44-30.15-2.75-3.31-5.98-5.99-9.55-7.99.42,5.42-.17,10.77-1.68,15.85.26.29.52.57.75.85,4.38,5.27,6.66,13.03,5.54,18.86-1.32,6.87-4.3,13.8-8.11,20.4,5.32.24,10.64-.02,15.81-.88Z" />
      <path class="cls-6"
        d="M170.66,69.6c10.16,0,19.34,4.32,25.88,12.19,7.02,8.45,10.34,20.29,8.44,30.15-6.83,35.48-47.48,68.79-49.2,70.19l-3.01,2.44-3.64-1.34c-2.1-.77-51.57-19.28-69.87-50.64-5.12-8.77-5.91-21.08-2.01-31.36,3.62-9.55,10.94-16.57,20.63-19.76,3.7-1.22,7.26-1.75,10.64-1.75,12.09,0,22.02,6.72,28.54,12.81,5.31-10.04,15.58-22.82,33.39-22.94.07,0,.15,0,.22,0h0ZM139.12,111.84c-2.57,0-4.55-1.48-5.54-2.87-.1-.14-11.37-15.54-25.39-15.54-.84,0-1.69.06-2.54.17-1.18.16-2.36.44-3.51.82-7.31,2.41-10.64,7.66-12.15,11.64-2.42,6.38-1.99,14.47,1.04,19.67,13.21,22.64,48.28,38.7,59.15,43.25,8.76-7.77,36.49-34.06,41.42-59.61,1.12-5.83-1.15-13.59-5.54-18.86-2.76-3.32-7.67-7.27-15.4-7.27-.05,0-.09,0-.14,0-17.61.11-24.51,22.72-24.79,23.68l-.1.29c-.74,1.86-2.64,4.18-5.6,4.58-.32.04-.62.06-.92.06h0ZM170.66,67.44h-.24c-17.33.11-27.89,11.34-33.94,21.69-6.59-5.64-16.29-11.56-27.97-11.56-3.77,0-7.58.62-11.32,1.86-10.32,3.4-18.12,10.88-21.97,21.05-4.12,10.87-3.26,23.91,2.17,33.22,18.69,32.03,68.87,50.8,70.99,51.58l3.63,1.34,1.15.43.96-.77,3.01-2.44c1.75-1.42,42.98-35.22,49.97-71.47,2.02-10.47-1.48-23.01-8.9-31.94-6.95-8.36-16.73-12.97-27.55-12.97h0ZM139.12,114c.4,0,.81-.03,1.22-.08,3.88-.53,6.36-3.52,7.31-5.93l.02-.04.02-.04.1-.29.02-.05v-.05c.28-.9,6.71-22.03,22.75-22.13h.13c6.89,0,11.27,3.53,13.74,6.49,3.93,4.73,6.07,11.91,5.08,17.07-4.63,24.01-30.36,49.06-39.71,57.5-11.68-5-44.44-20.52-56.87-41.82-2.68-4.6-3.06-12.09-.89-17.81,1.34-3.54,4.31-8.21,10.81-10.36,1.03-.34,2.08-.58,3.12-.73.74-.1,1.49-.15,2.25-.15,12.83,0,23.53,14.5,23.64,14.64,1.28,1.81,3.88,3.77,7.29,3.77h0Z" />
      <path class="cls-5"
        d="M104.97,125.7s-15.56-2.2-20.75-15.12c-5.19-12.92-7.5-29.34-7.5-29.34,0,0-24.86-21.77-27.91-21.98-3.05-.22,3.9,9.11,3.9,9.11,0,0-38.09-35.04-46.19-30.34s32.76,41.43,32.76,41.43c0,0-19.38-7.46-22.22-1.78-2.52,9.37,36.13,21.6,36.13,21.6,0,0-16.18-1.2-15.57,5.18.61,6.37,25.75,6.61,25.75,6.61,0,0-20.85,4.89-16.88,10.14,3.97,5.25,28.5-4.37,28.14-3.96-.36.42-19.1,13.04-9.74,16.95,9.36,3.9,21.68-6.05,22.61-4.85.93,1.2-9.2,5.72-5.08,8.52s22.53-12.17,22.53-12.17Z" />
      <path class="cls-6"
        d="M83.78,138.35c-.57,0-1.05-.12-1.42-.37-.68-.46-1.03-1.01-1.05-1.62-.05-1.6,2.19-3.36,4-4.77,1.1-.86,2.35-1.84,2.1-2.16-.21-.28-1.79.52-3.46,1.35-4.69,2.35-12.54,6.28-19.1,3.54-1.62-.68-2.52-1.66-2.68-2.93-.38-3.07,3.57-7.69,11.72-13.74.04-.03.08-.06.12-.09-.31.1-.72.24-1.17.39-5.71,1.91-23.1,7.74-26.43,3.33-.53-.71-.67-1.45-.39-2.2,1.37-3.8,12.73-6.99,16.31-7.9-4.9-.13-24.26-.99-24.81-6.72-.1-1.03.22-1.94.96-2.69,2.79-2.85,10.74-2.82,13.67-2.7-6.28-2.06-37.52-12.8-35.19-21.44,2.6-5.2,18.15.12,21.71,1.42-4.6-4.18-34.14-31.33-33.3-39.38.08-.8.46-1.39,1.12-1.78,7.45-4.32,39.1,23.78,45.34,29.43-1.52-2.16-4.47-6.61-3.79-7.87.14-.26.42-.38.82-.35,3.06.22,26.97,21.13,27.99,22.02l.04.03v.05c.03.16,2.37,16.55,7.5,29.3,5.1,12.7,20.48,15.01,20.64,15.03l.32.05-.25.21c-.69.56-15.5,12.54-21.28,12.54ZM87.25,129.1c.17,0,.3.05.38.16.42.55-.66,1.39-2.15,2.56-1.75,1.37-3.93,3.08-3.89,4.54.02.52.32.98.93,1.39,3.73,2.54,19.91-10.2,22.11-11.96-2.25-.41-15.79-3.33-20.55-15.16-4.99-12.43-7.35-28.28-7.5-29.32-1.13-.98-24.87-21.71-27.78-21.91-.42-.03-.52.15-.55.21-.66,1.2,3.08,6.67,4.58,8.68l-.21.19c-.38-.35-38.11-34.92-46.02-30.32-.58.34-.9.85-.98,1.56-.87,8.41,33.42,39.33,33.76,39.64l.57.52-.72-.28c-.19-.07-19.29-7.35-22.04-1.85-2.45,9.11,35.67,21.28,36.05,21.4l1.16.37-1.22-.09c-.11,0-11.26-.79-14.54,2.56-.67.69-.97,1.52-.88,2.46.59,6.17,25.36,6.48,25.61,6.48h1.18s-1.15.28-1.15.28c-.16.04-15.61,3.71-17.15,7.98-.24.67-.13,1.3.35,1.93,3.21,4.24,20.45-1.53,26.12-3.43q1.94-.65,2.03-.53l.06.09-.07.09c-.05.05-.2.17-.7.54-8.06,5.98-11.96,10.52-11.6,13.48.14,1.16.98,2.07,2.51,2.71,6.44,2.69,14.21-1.21,18.86-3.54,1.82-.91,2.88-1.43,3.43-1.43Z" />
      <path class="cls-1"
        d="M48.81,59.25c-1.42-.1-.67,1.87.54,4.01,6.34,4.12,13.1,7.91,19.98,11.62-7.59-6.44-18.56-15.49-20.52-15.63Z" />
      <path class="cls-1"
        d="M55.55,70.88C31.5,47.21,11.15,35.34,6.53,38.03c-1.98,1.15-1.03,4.22,1.53,8.19,9.84-.65,38.4,19.64,47.49,24.67Z" />
      <path class="cls-1"
        d="M60.58,100.81c-2.93-.6-7.38-1.53-7.38-1.53,0,0-16.18-1.2-15.57,5.18.03.35.15.68.33,1,5.63-5.18,14.69-5.8,22.62-4.64Z" />
      <path class="cls-1"
        d="M62.89,76.62c-3.04,2.38,1.52,7.75,3.61,10.41-3.84-2.15-8.83-6.59-11.49-4.16s4.04,8.71,8.69,10.07c-1.39-1.77-6.84-4.51-4.8-6.69s6.23,1.56,9.2,3.53c-.69-.89-1.29-2.56-.41-3.26,0,0-3.78-5.33-1.64-7.56,2.14-2.22,10.85,2.02,10.81,1.71-4.53-2.83-11.91-5.67-13.97-4.06Z" />
      <path class="cls-1"
        d="M64.19,100.18c-1.68,4.81,13.11,8.26,13.11,8.26,0,0-11.16-2.02-12.52.87-1.36,2.89,9.87,7.93,9.87,7.93,0,0-6.29-4.02-4.92-6.74,1.37-2.73,13.62-.54,13.62-.54,0,0-14.91-6.04-14.23-8.58.68-2.54,12.29-.14,12.15-.63-5.98-.95-15.95-3.78-17.08-.57Z" />
      <path class="cls-1"
        d="M74.65,117.25c-.36.42-19.1,13.04-9.74,16.95.46.19.94.34,1.43.47.33-6.85,8.4-17.52,8.31-17.42Z" />
      <path class="cls-1"
        d="M62.86,111.2c-3.22.81-19.94,5.26-16.35,10.01.79,1.05,2.42,1.5,4.5,1.56,2.82-5.12,8.42-10.1,11.85-11.57Z" />
      <path class="cls-1"
        d="M57.47,89.14c-4.93-2.56-18.18-9.69-18.18-9.69,0,0-19.38-7.46-22.22-1.78-.55,2.05.87,4.24,3.43,6.41,9.22-4.85,24.35,1.96,36.96,5.05Z" />
      <path class="cls-1"
        d="M78.98,88.73s-9.89-3.66-11.61-1.79c-1.72,1.87,5.29,5.14,5.29,5.14,0,0-2.77-2.33-1.89-4.08.88-1.75,8.21.73,8.21.73Z" />
      <path class="cls-1"
        d="M56.31,96.15s-3.2-2-1.4-3.88c2.45-2.57,14.51,2.9,14.51,2.9,0,0-10.87-3.45-12.24-1.41-1.37,2.04-.87,2.4-.87,2.4Z" />
      <path class="cls-1" d="M60.58,100.81c.7.14,1.41.27,2.12.35-.69-.13-1.4-.25-2.12-.35Z" />
      <path class="cls-6"
        d="M64.26,100.48s-.06,0-.1-.02c-1.14-.41-11.08-4.08-9.93-7.59.2-.62.62-1.08,1.25-1.37,1.36-.62,3.48-.27,5.19.19-2.44-1.53-5.87-4.05-6.53-6.42-.21-.77-.13-1.48.26-2.11.38-.62.95-1,1.71-1.13,2.52-.43,6.6,2.05,9.07,3.77-2.05-2.56-5-6.94-3.09-8.96.71-.75,2.02-1.03,3.89-.82,4.18.47,10.63,3.43,11.52,4.94.08.14.03.31-.1.39-.14.08-.31.03-.39-.1-.66-1.12-6.74-4.17-11.09-4.66-1.66-.19-2.84.04-3.41.64-1.96,2.08,2.77,8.02,4.76,10.13.1.11.1.28,0,.39-.1.11-.27.12-.39.03-.07-.06-7.21-5.78-10.67-5.19-.59.1-1.03.38-1.32.86-.31.5-.37,1.04-.2,1.66.95,3.44,8.67,7.47,8.75,7.51.14.07.19.24.13.37-.07.14-.23.2-.37.14-.05-.02-5.18-2.18-7.48-1.13-.48.22-.79.55-.94,1.03-.83,2.53,6.64,5.82,9.58,6.87.15.05.22.22.17.36-.04.12-.15.19-.27.19Z" />
      <path class="cls-6"
        d="M74.65,117.53s-.07,0-.11-.02c-.42-.17-10.22-4.12-9.93-7.86.04-.52.29-.95.74-1.29,1.57-1.2,5.5-1.05,8.44-.72-3.67-1.26-9.06-3.47-9.96-5.83-.23-.61-.17-1.21.19-1.77,1.33-2.06,5.48-1.99,9.35-1.39-2.12-.93-3.94-2.09-4.23-3.43-.1-.49.01-.91.34-1.22.9-.85,3.41-.72,5.74-.36-3.92-1.51-8.9-3.89-8.44-6.13.11-.52.41-.91.89-1.16,2.51-1.32,9.59,1.66,9.89,1.79.14.06.21.23.15.37-.06.14-.23.21-.37.15-.07-.03-7.13-3-9.4-1.81-.33.17-.53.43-.6.77-.51,2.5,8.81,5.89,12.44,6.99.15.05.23.2.19.35-.04.15-.2.24-.35.2-2.28-.62-8.48-1.95-9.76-.75-.18.17-.24.39-.17.68.36,1.68,3.96,3.21,7.19,4.23,2.24.52,3.91,1.04,4.11,1.1.14.05.23.2.19.34-.04.15-.19.24-.33.21-.18-.04-1.94-.42-4.04-1.08-4.31-1-10.73-1.99-12.31.44-.26.4-.31.82-.14,1.26,1.25,3.29,12.9,6.54,13.02,6.57.15.04.24.19.2.34-.03.15-.18.24-.33.21-.09-.02-9.16-1.74-11.55.09-.32.24-.49.53-.52.89-.21,2.76,6.84,6.19,9.58,7.28.15.06.22.22.16.37-.04.11-.15.18-.26.18Z" />
      <path class="cls-6"
        d="M56.66,88.63s-.09,0-.13-.03l-15.05-7.7c-.14-.07-.2-.24-.12-.38.07-.14.24-.2.38-.12l15.05,7.7c.14.07.2.24.12.38-.05.1-.15.15-.25.15Z" />
      <path class="cls-6"
        d="M58.54,82.83s-.1-.01-.15-.04c-12.66-7.56-51.67-44.19-52.06-44.56-.11-.11-.12-.29-.01-.4.11-.11.29-.12.4-.01.39.37,39.36,36.95,51.96,44.49.13.08.18.26.1.39-.05.09-.15.14-.24.14Z" />
      <path class="cls-6"
        d="M31.73,61.36h0l-11.54-.24c-.16,0-.28-.13-.28-.29,0-.16.13-.26.29-.28l11.54.24c.16,0,.28.13.28.29,0,.16-.13.28-.28.28Z" />
      <path class="cls-6"
        d="M15.29,55.76c-.16,0-.28-.13-.28-.28,0-.16.13-.29.28-.29l10.13-.04h0c.16,0,.28.13.28.28,0,.16-.13.29-.28.29l-10.13.04h0Z" />
      <path class="cls-6"
        d="M39.38,68.06c-.14,0-.26-.1-.28-.24l-1.79-12.42c-.02-.16.09-.3.24-.32.16-.02.3.09.32.24l1.79,12.42c.02.16-.09.3-.24.32-.01,0-.03,0-.04,0Z" />
      <path class="cls-6"
        d="M69.46,95.07s-.06,0-.1-.02l-3.14-1.13c-.15-.05-.22-.22-.17-.36.05-.15.22-.22.36-.17l3.14,1.13c.15.05.22.22.17.36-.04.12-.15.19-.27.19Z" />
      <path class="cls-6"
        d="M86.96,126.31s-.04,0-.06,0c0,0-.03-.01-.07-.03h0s-.01,0-.02,0c-1.15-.49-12.45-5.62-12.16-8.86.04-.41.24-.76.6-1.05,1.83-1.49,7.68-1.15,12.27-.6.14.02.23.03.25.03.15.01.27.14.27.29,0,.15-.12.27-.27.28-.02,0-.13-.01-.32-.03-6.24-.74-10.55-.57-11.84.48-.24.19-.37.41-.39.66-.23,2.64,10.47,7.74,11.81,8.29.02,0,.03,0,.04.02.13.06.2.22.16.35-.04.12-.15.19-.27.19Z" />
      <path class="cls-6"
        d="M62.3,77.34c-.07,0-.14-.02-.19-.07l-7.79-7.12c-.12-.11-.12-.29-.02-.4.11-.12.29-.12.4-.02l7.79,7.12c.12.11.12.29.02.4-.06.06-.13.09-.21.09Z" />
      <path class="cls-6"
        d="M63.92,101.74s-.04,0-.06,0c-3.3-.69-8.33-1.73-8.67-1.75-.15.03-.28-.07-.31-.22-.03-.15.09-.31.25-.34.07-.02.25-.05,8.85,1.76.15.03.25.18.22.34-.03.13-.15.23-.28.23Z" />
      <path class="cls-6"
        d="M54.5,93.25s-.07,0-.11-.02c-13.8-5.67-36.97-15.19-37.11-15.28-.13-.08-.18-.26-.1-.39.08-.13.24-.17.37-.11.62.28,36.69,15.1,37.05,15.25.15.06.21.23.16.37-.05.11-.15.18-.26.18Z" />
      <path class="cls-6"
        d="M32.81,91.35c-.09,0-.18-.04-.24-.13-.09-.13-.05-.31.08-.39l6.5-4.35c.13-.09.31-.05.39.08.09.13.05.31-.08.39l-6.5,4.35s-.1.05-.16.05Z" />
      <path class="cls-6"
        d="M35.28,85.35c-.11,0-.22-.07-.26-.18l-3.22-7.93c-.06-.15.01-.31.16-.37.15-.06.31.01.37.16l3.22,7.93c.06.15-.01.31-.16.37-.04.01-.07.02-.11.02Z" />
      <path class="cls-6"
        d="M30.69,83.46c-.12,0-.23-.07-.27-.19l-2.41-6.94c-.05-.15.03-.31.18-.36.15-.05.31.03.36.18l2.41,6.94c.05.15-.03.31-.18.36-.03.01-.06.02-.09.02Z" />
      <path class="cls-6"
        d="M37.72,78.66c-.15,0-.28-.12-.28-.28,0-.16.12-.29.28-.29l14.39-.31c.16,0,.29.12.29.28,0,.16-.12.29-.28.29l-14.39.31h0Z" />
      <path class="cls-6"
        d="M35.6,76.34c-.14,0-.27-.11-.28-.26-.02-.16.1-.3.25-.31l12.36-1.25c.16-.01.3.1.31.25.02.16-.1.3-.25.31l-12.36,1.25s-.02,0-.03,0Z" />
      <path class="cls-6"
        d="M84.58,110.4s-.04,0-.06,0l-5.86-1.31c-.15-.03-.25-.19-.22-.34.03-.15.19-.25.34-.22l5.86,1.32c.15.03.25.19.22.34-.03.13-.15.22-.28.22Z" />
      <path class="cls-6"
        d="M9.22,37.64c11.64,1.42,43.5,30.72,43.5,30.72,0,0-6.95-9.33-3.9-9.11.01,0,.03,0,.04,0,3.21.39,27.87,21.98,27.87,21.98,0,0,2.31,16.41,7.5,29.34,5.19,12.92,20.75,15.12,20.75,15.12,0,0-16.18,13.15-21.59,12.49-.36-.04-.68-.15-.94-.33-4.12-2.8,6.01-7.32,5.08-8.52-.04-.05-.11-.09-.2-.1-1.64-.2-10.97,6.77-19.29,5.76-1.06-.13-2.11-.39-3.13-.81-9.36-3.9,9.38-16.53,9.74-16.95,0,0,0-.01,0-.01-.43-.05-17.14,6.38-24.85,5.44-1.49-.18-2.65-.64-3.28-1.48-3.97-5.25,16.88-10.14,16.88-10.14,0,0-5.6-.05-11.59-.78-6.69-.81-13.85-2.47-14.17-5.83-.61-6.37,15.57-5.18,15.57-5.18,0,0-38.66-12.23-36.13-21.6,1.05-2.11,4.39-2.41,8.16-1.95,6.39.78,14.06,3.73,14.06,3.73,0,0-40.86-36.73-32.76-41.43.69-.4,1.6-.51,2.69-.38h0ZM9.41,36.06s0,0,0,0c-1.47-.18-2.71.02-3.68.58-1.07.62-1.7,1.62-1.83,2.88-.27,2.62,1.2,7.99,17.01,24.37,4.33,4.48,8.71,8.72,11.99,11.81-2.34-.65-4.98-1.26-7.47-1.56-5.31-.65-8.51.28-9.78,2.82-.05.1-.09.2-.11.3-1.3,4.82,4.59,10.11,18,16.18,3.84,1.74,7.75,3.28,11.03,4.51-2.81.4-5.59,1.22-7.15,2.82-1.03,1.06-1.51,2.38-1.37,3.84.35,3.71,5.3,6.02,15.56,7.26.89.11,1.77.2,2.62.28-4.29,1.6-8.64,3.81-9.59,6.45-.44,1.21-.22,2.48.6,3.57.87,1.14,2.33,1.85,4.36,2.1,4.38.53,11.03-1,17.44-2.93-4.61,4.18-6.64,7.49-6.3,10.24.15,1.26.9,2.99,3.56,4.1,1.11.46,2.3.77,3.55.92,4.47.54,9.12-1,12.85-2.64-.53.77-.86,1.59-.83,2.46.02.76.34,1.85,1.68,2.77.46.32,1.02.52,1.64.59,5.8.7,20-10.57,22.79-12.84.49-.4.7-1.05.53-1.66-.17-.61-.68-1.06-1.31-1.15-.14-.02-14.72-2.25-19.49-14.14-5.06-12.6-7.38-28.8-7.4-28.97-.05-.38-.24-.73-.53-.98-.06-.05-6.26-5.47-12.76-10.87-13.49-11.19-15.16-11.39-15.96-11.49-.03,0-.09,0-.12-.01-.96-.07-1.78.34-2.19,1.1-.16.3-.44.81-.18,2.01-10.23-8.82-28.56-23.67-37.15-24.72h0Z" />
      <path class="cls-5"
        d="M173.46,118.87s14.61-5.78,16.63-19.56c2.02-13.78.41-30.28.41-30.28,0,0,19.06-26.99,21.97-27.91,2.91-.92-1.66,9.77-1.66,9.77,0,0,28.81-43,37.79-40.32,8.98,2.67-22.14,47.96-22.14,47.96,0,0,17.09-11.79,21.18-6.94,4.65,8.52-30.06,29.47-30.06,29.47,0,0,15.45-4.96,16.35,1.38.9,6.34-23.49,12.47-23.49,12.47,0,0,21.42-.13,18.79,5.9-2.63,6.03-28.73,2.43-28.28,2.75.45.32,21.63,8.2,13.44,14.19s-22.5-.8-23.12.58c-.62,1.38,10.28,3.4,6.94,7.09-3.34,3.69-24.75-6.55-24.75-6.55Z" />
      <path class="cls-6"
        d="M195.55,126.35c-6.67,0-21.41-7-22.15-7.36l-.29-.14.3-.12c.15-.06,14.56-5.92,16.54-19.45,1.99-13.6.43-30.08.41-30.24v-.05s.03-.04.03-.04c.78-1.1,19.12-27.04,22.05-27.97.38-.12.68-.07.88.15.96,1.06-.86,6.08-1.84,8.53,4.74-6.96,28.92-41.69,37.17-39.24.73.22,1.23.71,1.5,1.46,2.7,7.64-19.65,40.96-23.14,46.09,3.15-2.1,17.02-10.92,20.75-6.49,4.3,7.88-23.55,25.63-29.17,29.11,2.83-.8,10.55-2.69,13.93-.58.89.56,1.42,1.36,1.56,2.39.81,5.7-17.82,11.08-22.55,12.35,3.69.05,15.48.49,17.7,3.86.44.67.49,1.42.13,2.23-2.21,5.07-20.48,3.48-26.48,2.96-.47-.04-.9-.08-1.23-.1.04.02.09.04.13.06,9.34,3.97,14.26,7.54,14.61,10.61.15,1.27-.5,2.44-1.92,3.48-5.74,4.2-14.29,2.21-19.4,1.03-1.82-.42-3.54-.82-3.68-.5-.17.37,1.28,1.03,2.55,1.61,2.08.95,4.68,2.13,5,3.7.12.6-.09,1.21-.64,1.82-.54.59-1.51.84-2.77.84ZM173.81,118.87c2.55,1.19,21.27,9.79,24.3,6.44.49-.54.68-1.06.57-1.57-.3-1.43-2.82-2.58-4.84-3.5-1.73-.79-2.98-1.36-2.69-1.98.23-.51,1.39-.26,4,.34,5.06,1.17,13.53,3.14,19.16-.98,1.33-.97,1.94-2.06,1.8-3.22-.34-2.96-5.2-6.46-14.44-10.38-.57-.24-.75-.32-.81-.36l-.09-.06.03-.11q.05-.14,2.1.04c5.95.52,24.07,2.09,26.19-2.79.32-.73.28-1.37-.11-1.96-2.5-3.79-18.38-3.73-18.55-3.74h-1.18s1.14-.28,1.14-.28c.24-.06,24.25-6.17,23.38-12.31-.13-.94-.62-1.67-1.43-2.19-3.97-2.49-14.63.89-14.74.92l-1.16.37,1.04-.63c.35-.21,34.54-20.98,30.01-29.28-3.95-4.68-20.81,6.87-20.98,6.99l-.64.44.44-.64c.26-.38,26.35-38.48,23.53-46.45-.24-.67-.67-1.09-1.31-1.29-8.78-2.61-37.34,39.84-37.63,40.27l-.25-.14c.98-2.3,3.33-8.5,2.41-9.51-.05-.05-.18-.2-.58-.07-2.78.88-21.01,26.6-21.87,27.82.1,1.04,1.52,17.01-.42,30.26-1.85,12.61-14.33,18.63-16.42,19.55Z" />
      <path class="cls-1"
        d="M212.48,41.11c1.36-.43,1.09,1.66.41,4.02-5.2,5.49-10.88,10.77-16.7,15.98,5.87-8.04,14.41-19.41,16.28-20Z" />
      <path class="cls-1"
        d="M208.66,54c17.83-28.65,34.82-44.96,39.95-43.44,2.19.65,1.99,3.86.43,8.32-9.71,1.68-32.73,28.09-40.38,35.12Z" />
      <path class="cls-1"
        d="M210.77,84.27c2.71-1.27,6.81-3.22,6.81-3.22,0,0,15.45-4.96,16.35,1.38.05.35.01.7-.09,1.05-6.69-3.72-15.64-2.2-23.08.79Z" />
      <path class="cls-1"
        d="M202.86,61.3c3.51,1.6.33,7.89-1.07,10.97,3.23-2.99,7.04-8.47,10.19-6.74,3.15,1.73-1.89,9.41-6.09,11.83.93-2.05,5.59-5.99,3.1-7.63s-5.69,2.98-8.12,5.58c.47-1.02.66-2.8-.37-3.26,0,0,2.42-6.07-.17-7.73-2.6-1.66-10.08,4.51-10.1,4.2,3.74-3.81,10.25-8.3,12.63-7.22Z" />
      <path class="cls-1"
        d="M207.12,84.51c2.76,4.28-10.8,11.1-10.8,11.1,0,0,10.38-4.58,12.38-2.09,2,2.49-7.73,10.03-7.73,10.03,0,0,5.17-5.38,3.2-7.71s-13.37,2.67-13.37,2.67c0,0,13.08-9.36,11.82-11.68-1.26-2.31-11.98,2.74-11.96,2.23,5.59-2.32,14.62-7.42,16.47-4.55Z" />
      <path class="cls-1"
        d="M200.96,103.55c.45.32,21.63,8.2,13.44,14.19-.4.3-.83.56-1.28.79-1.92-6.58-12.27-15.06-12.17-14.99Z" />
      <path class="cls-1"
        d="M211,94.9c3.32.03,20.62.44,18.24,5.9-.53,1.21-2,2.02-4.01,2.57-3.94-4.32-10.56-7.85-14.23-8.46Z" />
      <path class="cls-1"
        d="M211.07,72.2c4.19-3.65,15.4-13.68,15.4-13.68,0,0,17.09-11.79,21.18-6.94,1.02,1.87.15,4.33-1.83,7.04-10.1-2.56-23.22,7.61-34.75,13.58Z" />
      <path class="cls-1"
        d="M190.06,76.84s8.76-5.88,10.86-4.47-3.93,6.24-3.93,6.24c0,0,2.14-2.91.88-4.41-1.26-1.49-7.81,2.63-7.81,2.63Z" />
      <path class="cls-1"
        d="M213.84,78.73s2.64-2.69.45-4.11c-2.99-1.93-13.43,6.22-13.43,6.22,0,0,9.76-5.9,11.57-4.24,1.81,1.66,1.41,2.13,1.41,2.13Z" />
      <path class="cls-1" d="M210.77,84.27c-.65.3-1.31.59-1.98.84.64-.29,1.31-.57,1.98-.84Z" />
      <path class="cls-6"
        d="M207.06,84.81c-.09,0-.18-.05-.24-.13-.09-.13-.05-.31.08-.39,2.62-1.72,9.1-6.66,7.7-8.93-.26-.42-.64-.68-1.16-.78-2.48-.47-6.96,2.82-7.01,2.86-.12.09-.3.07-.39-.05-.1-.12-.08-.29.04-.39.07-.06,6.62-5.79,6.74-9.36.02-.64-.17-1.16-.58-1.57-.4-.4-.88-.57-1.48-.53-3.5.23-9.11,7.47-9.16,7.54-.09.12-.26.15-.38.06-.12-.08-.16-.25-.09-.38,1.44-2.52,4.65-9.41,2.26-10.96-.7-.46-1.9-.39-3.47.18-4.12,1.5-9.31,5.89-9.69,7.13-.05.15-.21.24-.36.19-.15-.05-.24-.2-.19-.36.51-1.67,6.08-6.06,10.04-7.5,1.77-.64,3.1-.68,3.97-.12,2.33,1.52.49,6.47-.9,9.43,1.99-2.25,5.38-5.62,7.93-5.79.76-.05,1.41.18,1.92.69.52.52.78,1.19.75,1.99-.08,2.46-2.83,5.7-4.84,7.77,1.55-.85,3.54-1.68,5-1.4.67.13,1.19.48,1.53,1.04,1.94,3.14-6.86,9.04-7.88,9.7-.05.03-.1.05-.16.05Z" />
      <path class="cls-6"
        d="M200.96,103.83c-.09,0-.18-.04-.23-.12-.09-.13-.06-.31.07-.4,2.4-1.7,8.46-6.69,7.6-9.32-.11-.34-.34-.58-.71-.74-2.76-1.21-11.17,2.58-11.25,2.62-.14.06-.3,0-.37-.13-.07-.14-.02-.3.12-.38.11-.06,10.67-5.95,11.12-9.44.06-.47-.08-.86-.43-1.19-2.1-2-8.12.48-12.07,2.46-1.89,1.13-3.51,1.92-3.68,2-.14.07-.3.01-.37-.12-.07-.13-.03-.3.1-.38.18-.11,1.68-1.01,3.73-2.03,2.9-1.75,6.04-4.09,5.99-5.8,0-.3-.11-.5-.33-.63-1.52-.87-7.24,1.88-9.31,3.02-.14.08-.31.03-.38-.11-.08-.14-.03-.31.1-.39,3.28-1.92,11.54-7.41,10.46-9.71-.15-.32-.4-.52-.76-.61-2.49-.62-8.66,3.92-8.72,3.96-.13.09-.3.07-.4-.06-.09-.13-.07-.3.06-.4.26-.19,6.45-4.75,9.2-4.06.53.13.91.44,1.14.92.97,2.07-3.31,5.56-6.76,7.94,2.18-.9,4.59-1.62,5.66-1,.39.22.6.6.61,1.1.04,1.36-1.46,2.92-3.31,4.32,3.62-1.49,7.64-2.53,9.42-.84.48.46.68,1.02.6,1.68-.32,2.51-5.04,5.92-8.31,8.01,2.78-1,6.56-2.07,8.37-1.28.52.23.86.59,1.02,1.09,1.16,3.57-7.45,9.71-7.82,9.97-.05.04-.11.05-.16.05Z" />
      <path class="cls-6"
        d="M211.67,71.51c-.08,0-.16-.03-.22-.1-.1-.12-.09-.3.03-.4l12.83-11.02c.12-.1.3-.09.4.03.1.12.09.3-.03.4l-12.83,11.02c-.05.05-.12.07-.19.07Z" />
      <path class="cls-6"
        d="M208.48,66.32c-.07,0-.15-.03-.2-.09-.11-.11-.11-.29,0-.4,10.49-10.28,39.79-54.98,40.09-55.43.09-.13.26-.17.39-.08.13.09.17.26.08.39-.3.45-29.63,45.2-40.16,55.52-.06.05-.13.08-.2.08Z" />
      <path class="cls-6"
        d="M229.52,39.16c-.13,0-.24-.08-.27-.21-.04-.15.05-.31.2-.35l11.16-2.94c.15-.04.31.05.35.2.04.15-.05.31-.2.35l-11.16,2.94s-.05,0-.07,0Z" />
      <path class="cls-6"
        d="M234.32,32.2c-.13,0-.25-.09-.28-.22-.04-.15.06-.31.21-.34l9.86-2.34c.15-.04.31.06.34.21.04.15-.06.31-.21.34l-9.86,2.34s-.04,0-.07,0Z" />
      <path class="cls-6"
        d="M223.64,47.47c-.15,0-.27-.11-.28-.26l-1.17-12.49c-.01-.16.1-.3.26-.31.16-.02.3.1.31.26l1.17,12.49c.01.16-.1.3-.26.31,0,0-.02,0-.03,0Z" />
      <path class="cls-6"
        d="M200.73,80.77c-.09,0-.18-.04-.24-.13-.09-.13-.05-.31.08-.39l2.79-1.84c.13-.09.31-.05.39.08.09.13.05.31-.08.39l-2.79,1.84s-.1.05-.16.05Z" />
      <path class="cls-6"
        d="M191.05,115.25c-.09,0-.19-.05-.24-.13-.08-.12-.04-.29.07-.38.01-.01.03-.02.04-.03,1.18-.85,10.38-8.32,9.54-10.83-.08-.24-.25-.42-.53-.55-1.5-.72-5.74.13-11.62,2.31-.18.07-.29.1-.3.11-.15.03-.31-.06-.34-.22-.03-.15.06-.3.2-.34.03,0,.11-.04.24-.09,4.33-1.61,9.94-3.31,12.07-2.29.42.2.7.5.83.88,1.03,3.07-8.72,10.7-9.74,11.46,0,0-.01.01-.02.02h0s-.06.04-.07.05c-.04.02-.08.03-.12.03Z" />
      <path class="cls-6"
        d="M203.54,61.86c-.05,0-.11-.02-.16-.05-.13-.09-.16-.26-.08-.4l5.9-8.74c.09-.13.26-.16.4-.08.13.09.16.26.08.4l-5.9,8.74c-.05.08-.14.13-.24.13Z" />
      <path class="cls-6"
        d="M207.68,85.96c-.11,0-.21-.06-.26-.16-.07-.14,0-.31.13-.38,7.93-3.78,8.11-3.78,8.19-3.78.17,0,.29.12.29.27,0,.14-.09.26-.23.29-.39.13-4.99,2.3-8.01,3.73-.04.02-.08.03-.12.03Z" />
      <path class="cls-6"
        d="M214.85,75.5c-.09,0-.18-.04-.23-.12-.09-.13-.06-.31.06-.4.32-.23,32.01-23.17,32.45-23.51.11-.11.28-.1.39.01.11.11.1.3-.01.41-.12.12-20.41,14.81-32.49,23.55-.05.04-.11.05-.17.05Z" />
      <path class="cls-6"
        d="M235.49,68.56s-.07,0-.1-.02l-7.33-2.7c-.15-.05-.22-.22-.17-.37.05-.15.22-.22.37-.17l7.33,2.7c.15.05.22.22.17.37-.04.12-.15.19-.27.19Z" />
      <path class="cls-6"
        d="M231.68,63.31s-.03,0-.04,0c-.16-.02-.26-.17-.24-.32l1.27-8.46c.02-.16.17-.26.32-.24.16.02.26.17.24.32l-1.27,8.46c-.02.14-.14.24-.28.24Z" />
      <path class="cls-6"
        d="M235.7,60.4s-.02,0-.03,0c-.16-.02-.27-.15-.26-.31l.72-7.31c.02-.16.16-.27.31-.26.16.02.27.15.26.31l-.72,7.31c-.01.15-.14.26-.28.26Z" />
      <path class="cls-6"
        d="M213.69,60.45c-.13,0-.25-.09-.28-.22-.03-.15.06-.31.22-.34l14.06-3.07c.15-.03.31.06.34.22.03.15-.06.31-.22.34l-14.06,3.07s-.04,0-.06,0Z" />
      <path class="cls-6"
        d="M216.95,56.32c-.14,0-.26-.1-.28-.25-.02-.16.09-.3.24-.32l12.31-1.68c.15-.02.3.09.32.24.02.16-.09.3-.24.32l-12.31,1.68s-.03,0-.04,0Z" />
      <path class="cls-6"
        d="M189.62,99.22c-.11,0-.21-.06-.26-.16-.07-.14-.01-.31.13-.38l5.39-2.65c.14-.07.31-.01.38.13.07.14.01.31-.13.38l-5.39,2.65s-.08.03-.13.03Z" />
      <path class="cls-6"
        d="M245.9,10.82c1.03-.38,1.94-.49,2.71-.26,8.98,2.67-22.14,47.96-22.14,47.96,0,0,6.76-4.66,12.79-6.92,3.56-1.33,6.87-1.82,8.39-.02,4.65,8.52-30.06,29.47-30.06,29.47,0,0,15.45-4.96,16.35,1.38.48,3.35-6.09,6.63-12.4,8.99-5.64,2.11-11.08,3.47-11.08,3.47,0,0,21.42-.13,18.79,5.9-.42.96-1.44,1.68-2.85,2.21-7.27,2.72-25.03.38-25.43.53,0,0,0,0,0,.01.45.32,21.63,8.2,13.44,14.19-.89.65-1.84,1.15-2.85,1.52-7.85,2.93-18.56-1.66-20.1-1.08-.08.03-.14.08-.17.14-.62,1.38,10.28,3.4,6.94,7.09-.21.23-.49.41-.83.54-5.11,1.91-23.92-7.08-23.92-7.08,0,0,14.61-5.78,16.63-19.56,2.02-13.78.41-30.28.41-30.28,0,0,18.91-26.77,21.94-27.9.01,0,.02,0,.04-.01,2.91-.92-1.66,9.77-1.66,9.77,0,0,24.1-35.96,35.08-40.06h0ZM245.34,9.33c-8.11,3.03-22.44,21.76-30.32,32.74-.02-1.23-.41-1.66-.64-1.91-.58-.64-1.48-.85-2.39-.56-.03,0-.09.03-.11.04-.76.28-2.33.87-12.82,14.91-5.06,6.77-9.81,13.49-9.86,13.56-.22.31-.32.69-.28,1.07.02.16,1.56,16.47-.4,29.89-1.85,12.68-15.5,18.26-15.64,18.31-.59.23-.98.79-1,1.43-.02.63.33,1.22.9,1.49,3.24,1.55,19.7,9.18,25.17,7.14.59-.22,1.08-.54,1.46-.96,1.09-1.21,1.14-2.34.99-3.09-.18-.86-.69-1.58-1.38-2.2,4,.72,8.89,1.13,13.11-.45,1.18-.44,2.27-1.02,3.23-1.73,2.33-1.7,2.65-3.56,2.5-4.82-.32-2.75-3.06-5.5-8.53-8.47,6.68.37,13.51.3,17.64-1.24,1.91-.71,3.17-1.74,3.75-3.06.55-1.25.46-2.54-.25-3.61-1.54-2.34-6.3-3.47-10.84-4.02.81-.28,1.64-.57,2.48-.89,9.68-3.62,13.95-7.02,13.42-10.71-.21-1.45-.98-2.63-2.23-3.41-1.89-1.18-4.79-1.33-7.62-1.06,2.9-1.96,6.34-4.38,9.67-6.97,11.62-9.04,16.1-15.57,13.71-19.95-.05-.09-.11-.18-.18-.26-1.83-2.17-5.16-2.32-10.17-.44-2.35.88-4.77,2.09-6.9,3.27,2.46-3.77,5.73-8.92,8.89-14.29,11.53-19.63,11.7-25.2,10.82-27.68-.42-1.2-1.27-2.02-2.46-2.37-1.08-.32-2.33-.22-3.72.3h0Z" />
      <path class="cls-3"
        d="M128.94,168.95c-1.46,0-2.68-.04-3.6-.11-.91-.07-1.65-.74-1.84-1.63-.18-.89.25-1.79,1.05-2.21.26-.14.53-.27.82-.42,1.61-.81,3.43-1.72,4.6-3.26.03-.04.07-.08.1-.12.13-.14.54-.75.5-2.56-1.16-.65-5.95-1.33-15.35-.77-1.08.07-2.01-.71-2.14-1.78-.14-1.07.58-2.05,1.63-2.26l58.89-11.52c1.05-.21,2.07.43,2.36,1.46.28,1.03-.28,2.1-1.28,2.46-5.98,2.14-10.14,4.73-11.15,6.95-.13.28-.2.55-.21.83,0,.14-.03.27-.06.41-.06.23-.11,1,.57,3.29,1.45,2.53,11.96,1.96,17.64,1.66,2.09-.11,4.07-.22,5.75-.24h.02c1.03,0,1.91.78,2.03,1.81.12,1.04-.57,2-1.59,2.22-8.82,1.94-25.79,3.61-30.77,4.08-11.63,1.09-21.94,1.7-27.99,1.7ZM133.18,163.86c-.27.35-.55.67-.85.97,6-.17,14.63-.74,24.22-1.64,2.27-.21,4.69-.45,7.16-.72-1.68-.68-2.94-1.68-3.62-3.13-.04-.09-.07-.18-.1-.27-.76-2.5-.98-4.14-.72-5.42.05-.73.24-1.45.55-2.14.44-.97,1.12-1.88,1.97-2.73l-30.14,5.89c1.08.39,1.54.79,1.81,1.03.76.67,1.18,1.53,1.21,2.48,0,.11,0,.22,0,.32.05,2.35-.44,4.14-1.49,5.35ZM130.6,158.23l2.03.22-2.03-.23s0,.01,0,.02Z" />
      <polygon class="cls-8" points="148.22 125.57 132.22 128.98 131.1 123.22 147.04 119.56 148.22 125.57" />
      <path class="cls-7"
        d="M170.33,95.94l-69.69,13.63c-1.33.26-2.2,1.55-1.94,2.88l8.31,42.47c.26,1.33,1.55,2.2,2.88,1.94l69.69-13.63c1.33-.26,2.2-1.55,1.94-2.88l-8.31-42.47c-.26-1.33-1.55-2.2-2.88-1.94ZM124.22,132.43c-2.83.55-5.57-1.29-6.12-4.12-.55-2.83,1.29-5.57,4.12-6.12,2.83-.55,5.57,1.29,6.12,4.12.55,2.83-1.29,5.57-4.12,6.12ZM148.5,127l-16.05,3.14-1.8-9.22,16.05-3.14,1.8,9.22ZM156.65,126.09c-2.83.55-5.57-1.29-6.12-4.12-.55-2.83,1.29-5.57,4.12-6.12,2.83-.55,5.57,1.29,6.12,4.12.55,2.83-1.29,5.57-4.12,6.12Z" />
      <path class="cls-7"
        d="M109.41,157.76c-.65,0-1.29-.19-1.84-.56-.73-.49-1.23-1.24-1.4-2.11l-8.31-42.47c-.17-.87,0-1.75.5-2.48.49-.73,1.24-1.23,2.11-1.4l69.69-13.63c.87-.17,1.75,0,2.48.5.73.49,1.23,1.24,1.4,2.11l8.31,42.47c.17.87,0,1.75-.5,2.48-.49.73-1.24,1.23-2.11,1.4l-69.69,13.63c-.21.04-.43.06-.64.06ZM170.8,96.75c-.1,0-.21,0-.31.03l-69.69,13.63c-.42.08-.78.32-1.02.68-.24.35-.32.78-.24,1.2l8.31,42.47c.08.42.32.78.68,1.02.35.24.78.33,1.2.24l69.69-13.63c.86-.17,1.43-1.01,1.26-1.88l-8.31-42.47c-.08-.42-.32-.78-.68-1.02-.27-.18-.57-.27-.89-.27ZM123.21,133.38c-1.2,0-2.36-.35-3.38-1.04-1.35-.91-2.26-2.28-2.57-3.87-.31-1.59.02-3.21.92-4.56.91-1.35,2.28-2.26,3.87-2.57,3.29-.64,6.48,1.51,7.13,4.79.64,3.29-1.51,6.48-4.79,7.13-.39.08-.79.11-1.18.11ZM123.22,122.94c-.28,0-.56.03-.84.08-1.14.22-2.13.88-2.78,1.85-.65.97-.89,2.13-.66,3.27.22,1.14.88,2.13,1.85,2.78.97.65,2.13.89,3.27.66,2.36-.46,3.91-2.76,3.45-5.12-.41-2.08-2.24-3.53-4.28-3.53ZM131.77,131.14l-2.13-10.9,17.72-3.47,2.13,10.9-17.72,3.47ZM131.65,121.58l1.48,7.55,14.37-2.81-1.48-7.55-14.37,2.81ZM155.63,127.04c-1.2,0-2.36-.35-3.38-1.04-1.35-.91-2.26-2.28-2.57-3.87-.31-1.59.02-3.21.92-4.56.91-1.35,2.28-2.26,3.87-2.57,3.29-.64,6.48,1.51,7.13,4.79.64,3.29-1.51,6.48-4.79,7.13-.39.08-.79.11-1.18.11ZM155.65,116.6c-.28,0-.56.03-.84.08-1.14.22-2.13.88-2.78,1.85-.65.97-.89,2.13-.66,3.27.22,1.14.88,2.13,1.85,2.78.97.65,2.13.89,3.27.66,2.36-.46,3.91-2.76,3.45-5.12-.41-2.08-2.24-3.53-4.28-3.53Z" />
      <path class="cls-1"
        d="M181.51,140.35l-8.31-42.47c-.06-.32-.19-.61-.36-.87,0,0,7.22,43.06,6.26,43.81-.95.75-71.51,15.27-71.51,15.27.56.62,1.41.94,2.28.77l69.69-13.63c1.33-.26,2.2-1.55,1.94-2.88Z" />
      <polygon class="cls-5" points="165.74 134.05 170.59 144.99 173.83 144.35 165.74 134.05" />
      <polygon class="cls-5" points="108.71 144.28 175.98 131.13 170.31 102.16 174.78 129.55 108.71 144.28" />
      <path class="cls-3"
        d="M172.01,96.23c-.49-.28-1.08-.41-1.68-.29l-69.69,13.63c-1.33.26-2.2,1.55-1.94,2.88l8.31,42.47c.16.84.74,1.49,1.48,1.8l-7.19-42.02,1.38-2.6,69.34-15.86Z" />
      <polygon class="cls-1" points="119.27 152.84 119.27 143.13 165.74 134.05 123.22 143.71 119.27 152.84" />
      <polygon class="cls-5" points="117 155.47 118.62 143.94 119.27 143.13 118.89 155.1 117 155.47" />
      <path class="cls-3"
        d="M166.68,101.12l-29.24,5.72-2.18.43-29.24,5.72-1.98,2.84,5.34,27.28,31.69-6.2,2.18-.43,31.69-6.2-5.34-27.28-2.91-1.89ZM124.22,132.43c-2.83.55-5.57-1.29-6.12-4.12-.55-2.83,1.29-5.57,4.12-6.12,2.83-.55,5.57,1.29,6.12,4.12.55,2.83-1.29,5.57-4.12,6.12ZM148.5,127l-16.05,3.14-1.8-9.22,16.05-3.14,1.8,9.22ZM156.65,126.09c-2.83.55-5.57-1.29-6.12-4.12-.55-2.83,1.29-5.57,4.12-6.12,2.83-.55,5.57,1.29,6.12,4.12.55,2.83-1.29,5.57-4.12,6.12Z" />
      <polygon class="cls-8"
        points="108.05 136.34 109.37 143.11 141.06 136.91 143.24 136.49 174.93 130.29 173.6 123.52 108.05 136.34" />
      <path class="cls-8"
        d="M147.96,124.25l3.2-.63c-.3-.5-.52-1.05-.64-1.66-.28-1.42.05-2.82.81-3.94l-4.42.86,1.05,5.35Z" />
      <path class="cls-8"
        d="M128.34,126.3c.12.6.12,1.2.03,1.77l3.53-.69-1.05-5.35-4.75.93c1.12.74,1.95,1.92,2.23,3.34Z" />
      <polygon class="cls-8"
        points="169.59 103.01 166.68 101.12 137.44 106.84 135.26 107.27 106.02 112.99 104.03 115.83 104.58 118.6 170.14 105.78 169.59 103.01" />
      <path class="cls-8"
        d="M105.45,123.07l.74,3.79,12.72-2.49c.75-1.1,1.91-1.91,3.31-2.19s2.79.04,3.89.78l4.75-.93-.22-1.12,16.05-3.14.22,1.12,4.42-.86c.75-1.1,1.91-1.91,3.31-2.19,1.41-.27,2.79.04,3.89.78l13.21-2.58-.74-3.79-65.56,12.82Z" />
      <path class="cls-7"
        d="M154.41,114.49l-32.48,6.35c-3.56.7-5.91,4.18-5.21,7.74h0c.7,3.56,4.18,5.91,7.74,5.21l32.48-6.35c3.56-.7,5.91-4.18,5.21-7.74h0c-.7-3.56-4.18-5.91-7.74-5.21ZM124.22,132.43c-2.83.55-5.57-1.29-6.12-4.12-.55-2.83,1.29-5.57,4.12-6.12,2.83-.55,5.57,1.29,6.12,4.12.55,2.83-1.29,5.57-4.12,6.12ZM148.5,127l-16.05,3.14-1.8-9.22,16.05-3.14,1.8,9.22ZM156.65,126.09c-2.83.55-5.57-1.29-6.12-4.12-.55-2.83,1.29-5.57,4.12-6.12,2.83-.55,5.57,1.29,6.12,4.12.55,2.83-1.29,5.57-4.12,6.12Z" />
      <path class="cls-6"
        d="M170.8,95.9c1.15,0,2.18.81,2.4,1.98l8.31,42.47c.26,1.33-.61,2.62-1.94,2.88l-69.69,13.63c-.16.03-.32.05-.47.05-1.15,0-2.18-.81-2.4-1.98l-8.31-42.47c-.26-1.33.61-2.62,1.94-2.88l69.69-13.63c.16-.03.32-.05.47-.05h0ZM170.8,94.19c-.27,0-.54.03-.8.08l-69.69,13.63c-1.09.21-2.03.84-2.65,1.76-.62.92-.84,2.03-.63,3.12l8.31,42.47c.38,1.95,2.1,3.36,4.08,3.36.27,0,.54-.03.8-.08l69.69-13.63c1.09-.21,2.03-.84,2.65-1.76.62-.92.84-2.03.63-3.12l-8.31-42.47c-.38-1.95-2.1-3.36-4.08-3.36h0Z" />
      <path class="cls-6"
        d="M118.89,155.38c-.07,0-.13-.02-.18-.07-.07-.06-.1-.14-.1-.22.09-3.47.37-11.88.37-11.96,0-.13.1-.24.23-.27l23.22-4.54s0,0,.01,0c0,0,0,0,.01,0l23.22-4.54c.13-.02.26.04.31.16.03.08,3.46,7.76,4.85,10.94.03.08.03.17,0,.25-.04.08-.11.13-.2.15l-51.7,10.11s-.04,0-.05,0ZM119.55,143.37c-.04,1.32-.27,8.08-.36,11.38l51-9.97c-1.33-3.03-4.08-9.2-4.61-10.41l-22.95,4.49s-.1.03-.15.03l-22.93,4.48Z" />
      <path class="cls-6"
        d="M108.71,144.57c-.06,0-.11-.02-.16-.05-.06-.04-.11-.11-.12-.18l-5.66-28.97c-.01-.07,0-.15.04-.21l2.02-3c.04-.06.11-.11.18-.12l62.24-12.17c.07-.02.15,0,.21.04l3,2.02c.06.04.11.11.12.18l5.66,28.97c.03.15-.07.3-.22.33l-67.26,13.15s-.04,0-.05,0ZM103.35,115.37l5.59,28.57,66.7-13.04-5.59-28.57-2.81-1.89-62.01,12.13-1.89,2.81Z" />
      <path class="cls-6"
        d="M122.2,122.11c-2.87.56-4.74,3.34-4.18,6.22.56,2.87,3.34,4.74,6.22,4.18,2.87-.56,4.74-3.34,4.18-6.22s-3.34-4.74-6.22-4.18ZM126.78,127.35l1.05-.2c.03.74-.12,1.45-.42,2.09l-.89-.6c-.11-.08-.27-.05-.34.07l-.54.8c-.08.11-.05.27.07.34l.89.6c-.48.52-1.09.93-1.78,1.18l-.2-1.05c-.03-.13-.16-.22-.29-.2l-.94.18c-.13.03-.22.16-.2.29l.2,1.05c-.74.03-1.45-.12-2.09-.42l.6-.89c.08-.11.05-.27-.07-.34l-.8-.54c-.11-.08-.27-.05-.34.07l-.6.89c-.52-.48-.93-1.09-1.18-1.78l1.05-.2c.13-.03.22-.16.2-.29l-.18-.94c-.03-.13-.16-.22-.29-.2l-1.05.2c-.03-.74.12-1.45.42-2.09l.89.6c.11.08.27.05.34-.07l.54-.8c.08-.11.05-.27-.07-.34l-.89-.6c.48-.52,1.09-.93,1.78-1.18l.2,1.05c.03.13.16.22.29.2l.94-.18c.13-.03.22-.16.2-.29l-.2-1.05c.74-.03,1.45.12,2.09.42l-.6.89c-.08.11-.05.27.07.34l.8.54c.11.08.27.05.34-.07l.6-.89c.52.48.93,1.09,1.18,1.78l-1.05.2c-.13.03-.22.16-.2.29l.18.94c.03.13.16.22.29.2Z" />
      <path class="cls-6"
        d="M154.63,115.77c-2.87.56-4.74,3.34-4.18,6.22s3.34,4.74,6.22,4.18c2.87-.56,4.74-3.34,4.18-6.22s-3.34-4.74-6.22-4.18ZM159.2,121.01l1.05-.2c.03.74-.12,1.45-.42,2.09l-.89-.6c-.11-.08-.27-.05-.34.07l-.54.8c-.08.11-.05.27.07.34l.89.6c-.48.52-1.09.93-1.78,1.18l-.2-1.05c-.03-.13-.16-.22-.29-.2l-.94.18c-.13.03-.22.16-.2.29l.2,1.05c-.74.03-1.45-.12-2.09-.42l.6-.89c.08-.11.05-.27-.07-.34l-.8-.54c-.11-.08-.27-.05-.34.07l-.6.89c-.52-.48-.93-1.09-1.18-1.78l1.05-.2c.13-.03.22-.16.2-.29l-.18-.94c-.03-.13-.16-.22-.29-.2l-1.05.2c-.03-.74.12-1.45.42-2.09l.89.6c.11.08.27.05.34-.07l.54-.8c.08-.11.05-.27-.07-.34l-.89-.6c.48-.52,1.09-.93,1.78-1.18l.2,1.05c.03.13.16.22.29.2l.94-.18c.13-.03.22-.16.2-.29l-.2-1.05c.74-.03,1.45.12,2.09.42l-.6.89c-.08.11-.05.27.07.34l.8.54c.11.08.27.05.34-.07l.6-.89c.52.48.93,1.09,1.18,1.78l-1.05.2c-.13.03-.22.16-.2.29l.18.94c.03.13.16.22.29.2Z" />
      <path class="cls-6"
        d="M137.99,119.47l-7.34,1.44,1.8,9.22,7.43-1.45c.12-1.5.05-3.04-.25-4.58-.32-1.66-.88-3.21-1.64-4.62Z" />
      <path class="cls-6"
        d="M146.69,117.77l-.81.16c-.49,1.57-.61,3.27-.27,5,.31,1.61,1,3.04,1.93,4.26l.95-.19-1.8-9.22Z" />
      <path class="cls-5"
        d="M139.62,124.1c-.2-1.01-.49-1.97-.85-2.89l-7.76,1.55.69,3.52,8-1.72c-.03-.15-.04-.3-.07-.46Z" />
      <path class="cls-5" d="M147.04,119.56l-1.56.31c-.11,1-.07,2.02.13,3.06.02.11.05.22.08.34l1.99-.43-.64-3.28Z" />
      <path class="cls-6"
        d="M102.05,111.71c.13.66-.3,1.3-.96,1.43-.66.13-1.3-.3-1.43-.96s.3-1.3.96-1.43c.66-.13,1.3.3,1.43.96Z" />
      <path class="cls-6"
        d="M171.99,98.04c.13.66-.3,1.3-.96,1.43-.66.13-1.3-.3-1.43-.96-.13-.66.3-1.3.96-1.43.66-.13,1.3.3,1.43.96Z" />
      <path class="cls-6"
        d="M110.37,154.26c.13.66-.3,1.3-.96,1.43-.66.13-1.3-.3-1.43-.96-.13-.66.3-1.3.96-1.43.66-.13,1.3.3,1.43.96Z" />
      <path class="cls-6"
        d="M180.31,140.58c.13.66-.3,1.3-.96,1.43-.66.13-1.3-.3-1.43-.96s.3-1.3.96-1.43c.66-.13,1.3.3,1.43.96Z" />
      <path class="cls-6"
        d="M145.12,142.08c.2,1.03-.47,2.04-1.51,2.24-1.03.2-2.04-.47-2.24-1.51s.47-2.04,1.51-2.24c1.03-.2,2.04.47,2.24,1.51Z" />
      <path class="cls-6"
        d="M128.04,150.57c.2,1.03-.47,2.04-1.51,2.24-1.03.2-2.04-.47-2.24-1.51-.2-1.03.47-2.04,1.51-2.24,1.03-.2,2.04.47,2.24,1.51Z" />
      <path class="cls-6"
        d="M163.82,143.57c.2,1.03-.47,2.04-1.51,2.24-1.03.2-2.04-.47-2.24-1.51-.2-1.03.47-2.04,1.51-2.24,1.03-.2,2.04.47,2.24,1.51Z" />
      <path class="cls-6"
        d="M134.01,149.64l-.67.13c-.74.14-1.46-.34-1.61-1.08h0c-.14-.74.34-1.46,1.08-1.61l.67-.13c.74-.14,1.46.34,1.61,1.08h0c.14.74-.34,1.46-1.08,1.61Z" />
      <path class="cls-6"
        d="M154.8,145.57l-.67.13c-.74.14-1.46-.34-1.61-1.08h0c-.14-.74.34-1.46,1.08-1.61l.67-.13c.74-.14,1.46.34,1.61,1.08h0c.14.74-.34,1.46-1.08,1.61Z" />
      <path class="cls-6"
        d="M123.21,132.81c-1.08,0-2.14-.32-3.06-.94-1.22-.82-2.05-2.07-2.33-3.51-.28-1.44.01-2.91.84-4.13.82-1.22,2.07-2.05,3.51-2.33,2.98-.58,5.88,1.37,6.46,4.34h0c.58,2.98-1.37,5.88-4.35,6.46-.36.07-.71.1-1.07.1ZM123.22,122.37c-.31,0-.63.03-.95.09-1.29.25-2.41.99-3.15,2.09-.74,1.09-1,2.41-.75,3.7.25,1.29.99,2.41,2.09,3.15,1.09.74,2.41,1,3.7.75,2.67-.52,4.42-3.12,3.9-5.79h0c-.46-2.35-2.53-3.99-4.84-3.99Z" />
      <path class="cls-6"
        d="M155.64,126.47c-1.08,0-2.14-.32-3.06-.94-1.22-.82-2.05-2.07-2.33-3.51-.28-1.44.01-2.91.84-4.13.82-1.22,2.07-2.05,3.51-2.33,2.98-.58,5.87,1.37,6.46,4.34h0c.58,2.98-1.37,5.88-4.35,6.46-.36.07-.71.1-1.07.1ZM155.65,116.03c-.31,0-.63.03-.95.09-1.29.25-2.41.99-3.15,2.09-.74,1.09-1,2.41-.75,3.7.25,1.29.99,2.41,2.09,3.15,1.09.74,2.41,1,3.7.75,2.67-.52,4.42-3.12,3.9-5.79h0c-.46-2.35-2.53-3.99-4.84-3.99Z" />
      <path class="cls-6"
        d="M132.45,130.42c-.06,0-.11-.02-.16-.05-.06-.04-.11-.11-.12-.18l-1.8-9.22c-.03-.15.07-.3.22-.33l16.05-3.14c.07-.01.15,0,.21.04.06.04.11.11.12.18l1.8,9.22c.03.15-.07.3-.22.33l-16.05,3.14s-.04,0-.05,0ZM130.98,121.14l1.69,8.67,15.49-3.03-1.69-8.67-15.49,3.03Z" />
      <path class="cls-1"
        d="M131.37,159.85c-1.93-3.69-20.25-3.24-20.25-3.24l1.7-.33s19.4-1.64,19.52,1.98c0,.24-.07.51-.25.81l-.73.78Z" />
      <path class="cls-6"
        d="M131.31,160.34l-.19-.36c-1.51-2.89-14.94-3.21-19.99-3.08l-.06-.56,1.7-.33c.7-.06,16.42-1.36,19.33,1.23.33.3.51.64.52,1.02.01.31-.09.63-.29.97l-.03.05-1,1.07ZM116.17,156.35c5.39.15,13.38.75,15.24,3.04l.46-.5c.14-.23.2-.44.19-.63,0-.22-.12-.42-.33-.61-1.96-1.74-10.69-1.56-15.56-1.31Z" />
      <path class="cls-1"
        d="M161.95,155.72s-.09-2.28,4.01-5.36c4.1-3.08,12.2-6.84,12.2-6.84l-1.93.38s-17.39,5.14-14.28,11.83h0Z" />
      <path class="cls-6"
        d="M162.26,157.06l-.57-1.23c-.53-1.14-.53-2.31,0-3.48,2.3-5.1,13.96-8.6,14.46-8.74l4.26-.83-2.13.99c-.08.04-8.13,3.78-12.15,6.81-3.89,2.93-3.89,5.11-3.89,5.13l.03,1.35ZM175.9,144.29c-2.06.66-11.72,3.95-13.69,8.3-.31.7-.41,1.37-.3,2.05.38-1,1.36-2.62,3.88-4.51,2.77-2.08,7.41-4.5,10.11-5.84Z" />
      <path class="cls-6"
        d="M131.61,162.56c-2.12,2.77-5.64,3.77-7.31,4.96l-.87-.95c-.8-2.53,5.41-2.82,8.38-7.06.1-.14.67-.44.8-1.35.08,1.49-.05,3.34-1.01,4.41Z" />
      <path class="cls-6"
        d="M192.13,159.56c-.12-3.54-27.07,2.84-30.18-3.85l-.61-1.93c-.31.94-.06,2.48.61,4.7,3.11,6.69,30.06.31,30.18,3.85v-2.77Z" />
      <path class="cls-1"
        d="M192.13,162.38c.12,3.54-67.87,9.62-68.7,7l-.07-3.22c.02.07.01.51.28.6,4.27,2.09,68.6-3.75,68.48-7.2v2.81Z" />
      <path class="cls-7" d="M138.22,166.9l.22,2.8c1.11-.06,2.25-.13,3.43-.2l-.05-2.81c-1.24.08-2.45.15-3.6.21Z" />
      <path class="cls-7" d="M144.63,166.5l.1,2.8c1.28-.09,2.58-.19,3.91-.29l.07-2.82c-1.38.11-2.75.21-4.08.3Z" />
      <path class="cls-7"
        d="M135.67,167.02c-1.14.05-2.23.09-3.24.12-1.31.04-2.52.06-3.58.06l.2,2.81c1.07,0,2.27-.02,3.57-.06,1.04-.03,2.15-.07,3.32-.13l-.26-2.8Z" />
      <path class="cls-6" d="M132.34,159.22l-.49-.3c.15-.24.22-.46.21-.65l.57-.02c.01.31-.09.63-.29.97Z" />
      <path class="cls-6"
        d="M129.33,170.29c-3.55,0-5.98-.23-6.17-.83,0-.03-.01-.05-.01-.08l-.07-3.22c0-.14.1-.26.24-.29.14-.02.27.06.32.19,0,.02.02.07.02.13.03.22.06.28.08.29,1.82.89,15.71.34,33.07-1.28,18.37-1.71,31.97-3.8,34.66-5.32.34-.19.38-.31.39-.32h0c0-.17.12-.29.28-.29.14,0,.28.12.29.27,0,.01,0,.02,0,.04v2.78c.02.45.01,1.38-9.09,2.96-8.6,1.49-22.97,3.1-36.61,4.12-5.99.45-12.66.85-17.38.85ZM123.72,169.3c1.77,1.71,54.94-2.34,66.46-6.07,1.63-.53,1.67-.84,1.67-.85,0,0,0,0,0,0v-2.05c-3.05,1.88-20.52,4.09-34.61,5.42-14.39,1.35-30.83,2.33-33.57,1.33l.05,2.23Z" />
      <path class="cls-6"
        d="M129.33,167.48c-3.55,0-5.98-.23-6.17-.83-.48-1.52,1.06-2.29,3.01-3.27,1.91-.96,4.29-2.16,5.68-4.45.15-.24.22-.46.21-.65,0-.22-.12-.42-.33-.61-2.74-2.43-18.72-1.11-18.88-1.09l-.05-.57c.67-.06,16.39-1.36,19.3,1.24.33.3.51.64.52,1.02.01.31-.09.63-.29.97-1.48,2.44-3.94,3.67-5.91,4.67-1.95.98-3.04,1.59-2.72,2.59,1.52,1.75,54.92-2.32,66.47-6.06,1.63-.53,1.67-.84,1.67-.85,0-.1-.05-.19-.14-.28-.94-.86-5.38-.62-10.09-.36-8.03.43-18.03.97-19.92-3.1-.53-1.14-.53-2.31,0-3.48,2.3-5.1,13.96-8.6,14.46-8.74l.16.55c-.12.03-11.91,3.57-14.1,8.43-.46,1.02-.46,2.01,0,3.01,1.73,3.72,11.51,3.19,19.38,2.77,5.25-.28,9.39-.51,10.5.51.21.19.32.42.33.68.02.45.05,1.38-9.1,2.96-8.6,1.49-22.98,3.1-36.61,4.12-5.99.45-12.66.85-17.37.85Z" />
      <path class="cls-1"
        d="M131.37,159.85c-1.93-3.69-20.25-3.24-20.25-3.24l1.7-.33s19.4-1.64,19.52,1.98c0,.24-.07.51-.25.81l-.73.78Z" />
      <path class="cls-6"
        d="M131.31,160.34l-.19-.36c-1.51-2.89-14.94-3.21-19.99-3.08l-.06-.56,1.7-.33c.7-.06,16.42-1.36,19.33,1.23.33.3.51.64.52,1.02.01.31-.09.63-.29.97l-.03.05-1,1.07ZM116.17,156.35c5.39.15,13.38.75,15.24,3.04l.46-.5c.14-.23.2-.44.19-.63,0-.22-.12-.42-.33-.61-1.96-1.74-10.69-1.56-15.56-1.31Z" />
      <path class="cls-1"
        d="M161.95,155.72s-.09-2.28,4.01-5.36c4.1-3.08,12.2-6.84,12.2-6.84l-1.93.38s-17.39,5.14-14.28,11.83h0Z" />
      <path class="cls-6"
        d="M162.26,157.06l-.57-1.23c-.53-1.14-.53-2.31,0-3.48,2.3-5.1,13.96-8.6,14.46-8.74l4.26-.83-2.13.99c-.08.04-8.13,3.78-12.15,6.81-3.89,2.93-3.89,5.11-3.89,5.13l.03,1.35ZM175.9,144.29c-2.06.66-11.72,3.95-13.69,8.3-.31.7-.41,1.37-.3,2.05.38-1,1.36-2.62,3.88-4.51,2.77-2.08,7.41-4.5,10.11-5.84Z" />
      <path class="cls-6"
        d="M131.61,162.56c-2.12,2.77-5.64,3.77-7.31,4.96l-.87-.95c-.8-2.53,5.41-2.82,8.38-7.06.1-.14.67-.44.8-1.35.08,1.49-.05,3.34-1.01,4.41Z" />
      <path class="cls-6"
        d="M192.13,159.56c-.12-3.54-27.07,2.84-30.18-3.85l-.61-1.93c-.31.94-.06,2.48.61,4.7,3.11,6.69,30.06.31,30.18,3.85v-2.77Z" />
      <path class="cls-1"
        d="M192.13,162.38c.12,3.54-67.87,9.62-68.7,7l-.07-3.22c.02.07.01.51.28.6,4.27,2.09,68.6-3.75,68.48-7.2v2.81Z" />
      <path class="cls-7" d="M138.22,166.9l.22,2.8c1.11-.06,2.25-.13,3.43-.2l-.05-2.81c-1.24.08-2.45.15-3.6.21Z" />
      <path class="cls-7" d="M144.63,166.5l.1,2.8c1.28-.09,2.58-.19,3.91-.29l.07-2.82c-1.38.11-2.75.21-4.08.3Z" />
      <path class="cls-7"
        d="M135.67,167.02c-1.14.05-2.23.09-3.24.12-1.31.04-2.52.06-3.58.06l.2,2.81c1.07,0,2.27-.02,3.57-.06,1.04-.03,2.15-.07,3.32-.13l-.26-2.8Z" />
      <path class="cls-6" d="M132.34,159.22l-.49-.3c.15-.24.22-.46.21-.65l.57-.02c.01.31-.09.63-.29.97Z" />
      <path class="cls-6"
        d="M129.33,170.29c-3.55,0-5.98-.23-6.17-.83,0-.03-.01-.05-.01-.08l-.07-3.22c0-.14.1-.26.24-.29.14-.02.27.06.32.19,0,.02.02.07.02.13.03.22.06.28.08.29,1.82.89,15.71.34,33.07-1.28,18.37-1.71,31.97-3.8,34.66-5.32.34-.19.38-.31.39-.32h0c0-.17.12-.29.28-.29.14,0,.28.12.29.27,0,.01,0,.02,0,.04v2.78c.02.45.01,1.38-9.09,2.96-8.6,1.49-22.97,3.1-36.61,4.12-5.99.45-12.66.85-17.38.85ZM123.72,169.3c1.77,1.71,54.94-2.34,66.46-6.07,1.63-.53,1.67-.84,1.67-.85,0,0,0,0,0,0v-2.05c-3.05,1.88-20.52,4.09-34.61,5.42-14.39,1.35-30.83,2.33-33.57,1.33l.05,2.23Z" />
      <path class="cls-6"
        d="M129.33,167.48c-3.55,0-5.98-.23-6.17-.83-.48-1.52,1.06-2.29,3.01-3.27,1.91-.96,4.29-2.16,5.68-4.45.15-.24.22-.46.21-.65,0-.22-.12-.42-.33-.61-2.74-2.43-18.72-1.11-18.88-1.09l-.05-.57c.67-.06,16.39-1.36,19.3,1.24.33.3.51.64.52,1.02.01.31-.09.63-.29.97-1.48,2.44-3.94,3.67-5.91,4.67-1.95.98-3.04,1.59-2.72,2.59,1.52,1.75,54.92-2.32,66.47-6.06,1.63-.53,1.67-.84,1.67-.85,0-.1-.05-.19-.14-.28-.94-.86-5.38-.62-10.09-.36-8.03.43-18.03.97-19.92-3.1-.53-1.14-.53-2.31,0-3.48,2.3-5.1,13.96-8.6,14.46-8.74l.16.55c-.12.03-11.91,3.57-14.1,8.43-.46,1.02-.46,2.01,0,3.01,1.73,3.72,11.51,3.19,19.38,2.77,5.25-.28,9.39-.51,10.5.51.21.19.32.42.33.68.02.45.05,1.38-9.1,2.96-8.6,1.49-22.98,3.1-36.61,4.12-5.99.45-12.66.85-17.37.85Z" />
      <path class="cls-1"
        d="M131.37,159.85c-1.93-3.69-20.25-3.24-20.25-3.24l1.7-.33s19.4-1.64,19.52,1.98c0,.24-.07.51-.25.81l-.73.78Z" />
      <path class="cls-6"
        d="M131.31,160.34l-.19-.36c-1.51-2.89-14.94-3.21-19.99-3.08l-.06-.56,1.7-.33c.7-.06,16.42-1.36,19.33,1.23.33.3.51.64.52,1.02.01.31-.09.63-.29.97l-.03.05-1,1.07ZM116.17,156.35c5.39.15,13.38.75,15.24,3.04l.46-.5c.14-.23.2-.44.19-.63,0-.22-.12-.42-.33-.61-1.96-1.74-10.69-1.56-15.56-1.31Z" />
      <path class="cls-1"
        d="M161.95,155.72s-.09-2.28,4.01-5.36c4.1-3.08,12.2-6.84,12.2-6.84l-1.93.38s-17.39,5.14-14.28,11.83h0Z" />
      <path class="cls-6"
        d="M162.26,157.06l-.57-1.23c-.53-1.14-.53-2.31,0-3.48,2.3-5.1,13.96-8.6,14.46-8.74l4.26-.83-2.13.99c-.08.04-8.13,3.78-12.15,6.81-3.89,2.93-3.89,5.11-3.89,5.13l.03,1.35ZM175.9,144.29c-2.06.66-11.72,3.95-13.69,8.3-.31.7-.41,1.37-.3,2.05.38-1,1.36-2.62,3.88-4.51,2.77-2.08,7.41-4.5,10.11-5.84Z" />
      <path class="cls-6"
        d="M131.61,162.56c-2.12,2.77-5.64,3.77-7.31,4.96l-.87-.95c-.8-2.53,5.41-2.82,8.38-7.06.1-.14.67-.44.8-1.35.08,1.49-.05,3.34-1.01,4.41Z" />
      <path class="cls-6"
        d="M192.13,159.56c-.12-3.54-27.07,2.84-30.18-3.85l-.61-1.93c-.31.94-.06,2.48.61,4.7,3.11,6.69,30.06.31,30.18,3.85v-2.77Z" />
      <path class="cls-1"
        d="M192.13,162.38c.12,3.54-67.87,9.62-68.7,7l-.07-3.22c.02.07.01.51.28.6,4.27,2.09,68.6-3.75,68.48-7.2v2.81Z" />
      <path class="cls-7" d="M138.22,166.9l.22,2.8c1.11-.06,2.25-.13,3.43-.2l-.05-2.81c-1.24.08-2.45.15-3.6.21Z" />
      <path class="cls-7" d="M144.63,166.5l.1,2.8c1.28-.09,2.58-.19,3.91-.29l.07-2.82c-1.38.11-2.75.21-4.08.3Z" />
      <path class="cls-7"
        d="M135.67,167.02c-1.14.05-2.23.09-3.24.12-1.31.04-2.52.06-3.58.06l.2,2.81c1.07,0,2.27-.02,3.57-.06,1.04-.03,2.15-.07,3.32-.13l-.26-2.8Z" />
      <path class="cls-6" d="M132.34,159.22l-.49-.3c.15-.24.22-.46.21-.65l.57-.02c.01.31-.09.63-.29.97Z" />
      <path class="cls-6"
        d="M129.33,170.29c-3.55,0-5.98-.23-6.17-.83,0-.03-.01-.05-.01-.08l-.07-3.22c0-.14.1-.26.24-.29.14-.02.27.06.32.19,0,.02.02.07.02.13.03.22.06.28.08.29,1.82.89,15.71.34,33.07-1.28,18.37-1.71,31.97-3.8,34.66-5.32.34-.19.38-.31.39-.32h0c0-.17.12-.29.28-.29.14,0,.28.12.29.27,0,.01,0,.02,0,.04v2.78c.02.45.01,1.38-9.09,2.96-8.6,1.49-22.97,3.1-36.61,4.12-5.99.45-12.66.85-17.38.85ZM123.72,169.3c1.77,1.71,54.94-2.34,66.46-6.07,1.63-.53,1.67-.84,1.67-.85,0,0,0,0,0,0v-2.05c-3.05,1.88-20.52,4.09-34.61,5.42-14.39,1.35-30.83,2.33-33.57,1.33l.05,2.23Z" />
      <path class="cls-6"
        d="M129.33,167.48c-3.55,0-5.98-.23-6.17-.83-.48-1.52,1.06-2.29,3.01-3.27,1.91-.96,4.29-2.16,5.68-4.45.15-.24.22-.46.21-.65,0-.22-.12-.42-.33-.61-2.74-2.43-18.72-1.11-18.88-1.09l-.05-.57c.67-.06,16.39-1.36,19.3,1.24.33.3.51.64.52,1.02.01.31-.09.63-.29.97-1.48,2.44-3.94,3.67-5.91,4.67-1.95.98-3.04,1.59-2.72,2.59,1.52,1.75,54.92-2.32,66.47-6.06,1.63-.53,1.67-.84,1.67-.85,0-.1-.05-.19-.14-.28-.94-.86-5.38-.62-10.09-.36-8.03.43-18.03.97-19.92-3.1-.53-1.14-.53-2.31,0-3.48,2.3-5.1,13.96-8.6,14.46-8.74l.16.55c-.12.03-11.91,3.57-14.1,8.43-.46,1.02-.46,2.01,0,3.01,1.73,3.72,11.51,3.19,19.38,2.77,5.25-.28,9.39-.51,10.5.51.21.19.32.42.33.68.02.45.05,1.38-9.1,2.96-8.6,1.49-22.98,3.1-36.61,4.12-5.99.45-12.66.85-17.37.85Z" />
      <path class="cls-8"
        d="M131.37,159.85c-1.93-3.69-20.25-3.24-20.25-3.24l1.7-.33s19.4-1.64,19.52,1.98c0,.24-.07.51-.25.81l-.73.78Z" />
      <path class="cls-6"
        d="M131.31,160.35l-.19-.36c-1.51-2.89-14.94-3.21-19.98-3.08l-.06-.57,1.7-.33c.7-.06,16.42-1.36,19.34,1.23.33.3.51.64.52,1.02,0,.31-.09.63-.29.97l-.03.05-1,1.08ZM116.23,156.35c5.39.15,13.32.76,15.18,3.04l.46-.49c.13-.23.2-.44.19-.63,0-.22-.12-.42-.33-.61-1.95-1.73-10.62-1.56-15.5-1.31Z" />
      <path class="cls-8"
        d="M161.95,155.72s-.09-2.28,4.01-5.36c4.1-3.08,12.2-6.84,12.2-6.84l-1.93.38s-17.39,5.14-14.28,11.83h0Z" />
      <path class="cls-6"
        d="M162.29,157.13l-.6-1.3c-.53-1.14-.53-2.31,0-3.48,2.3-5.1,13.96-8.6,14.46-8.74l4.28-.84-2.14.99c-.08.04-8.13,3.78-12.15,6.81-3.93,2.96-3.89,5.1-3.89,5.12l.06,1.43ZM175.87,144.3c-2.11.68-11.7,3.96-13.66,8.29-.31.69-.41,1.37-.3,2.04.38-1,1.36-2.62,3.88-4.51,2.76-2.08,7.38-4.48,10.09-5.83Z" />
      <path class="cls-6"
        d="M131.61,162.56c-2.12,2.77-5.64,3.77-7.31,4.96l-.87-.95c-.8-2.53,5.41-2.82,8.38-7.06.1-.14.67-.44.8-1.35.08,1.49-.05,3.34-1.01,4.41Z" />
      <path class="cls-6"
        d="M192.13,159.56c-.12-3.54-27.07,2.84-30.18-3.85l-.61-1.93c-.31.94-.06,2.48.61,4.7,3.11,6.69,30.06.31,30.18,3.85v-2.77Z" />
      <path class="cls-8"
        d="M192.13,162.38c.12,3.54-67.87,9.62-68.7,7l-.07-3.22c.02.07.01.51.28.6,4.27,2.09,68.6-3.75,68.48-7.2v2.81Z" />
      <path class="cls-7" d="M138.22,166.9l.22,2.8c1.11-.06,2.25-.13,3.43-.2l-.05-2.81c-1.24.08-2.45.15-3.6.21Z" />
      <path class="cls-7" d="M144.63,166.5l.1,2.8c1.28-.09,2.58-.19,3.91-.29l.07-2.82c-1.38.11-2.75.21-4.08.3Z" />
      <path class="cls-7"
        d="M135.67,167.02c-1.14.05-2.23.09-3.24.12-1.31.04-2.52.06-3.58.06l.2,2.81c1.07,0,2.27-.02,3.57-.06,1.04-.03,2.15-.07,3.32-.13l-.26-2.8Z" />
      <path class="cls-6" d="M132.34,159.22l-.49-.3c.14-.24.21-.46.21-.65l.57-.02c0,.31-.09.63-.29.97Z" />
      <path class="cls-6"
        d="M129.34,170.29c-3.55,0-5.98-.23-6.18-.83,0-.03-.01-.05-.01-.08l-.07-3.22c0-.14.1-.27.24-.29.14-.03.28.06.32.2,0,.02.02.07.02.13.02.22.06.27.08.29,1.81.89,15.68.34,33.01-1.27,13.92-1.3,31.36-3.47,34.69-5.31.37-.2.4-.32.41-.33h0c0-.17.13-.29.28-.3.17.01.29.12.29.28,0,.01,0,.02,0,.04v2.78c.02.45.01,1.39-9.09,2.96-8.6,1.49-22.97,3.1-36.61,4.12-5.99.45-12.66.85-17.37.85ZM123.72,169.3c1.87,1.84,54.53-2.29,66.36-6.04,1.71-.54,1.77-.87,1.77-.88h0v-2.05c-3.06,1.88-20.52,4.09-34.61,5.41-14.38,1.35-30.82,2.33-33.57,1.33l.05,2.22Z" />
      <path class="cls-6"
        d="M129.34,167.48c-3.55,0-5.98-.23-6.18-.83-.48-1.52,1.06-2.3,3.01-3.28,1.91-.96,4.29-2.16,5.68-4.45.14-.24.21-.46.21-.65,0-.22-.12-.42-.33-.61-2.74-2.43-18.72-1.11-18.88-1.09l-.05-.57c.67-.06,16.39-1.36,19.31,1.24.33.3.51.64.52,1.02,0,.31-.09.63-.29.97-1.48,2.44-3.94,3.67-5.92,4.67-1.95.98-3.04,1.59-2.72,2.59,1.64,1.87,54.51-2.27,66.37-6.03,1.71-.54,1.77-.87,1.77-.88,0-.1-.05-.19-.14-.28-.93-.86-5.38-.62-10.09-.36-8.04.43-18.04.97-19.92-3.1-.53-1.14-.53-2.31,0-3.48,2.3-5.1,13.96-8.6,14.46-8.74l.16.55c-.12.04-11.9,3.57-14.1,8.43-.46,1.02-.46,2.01,0,3,1.73,3.72,11.51,3.19,19.37,2.77,5.25-.28,9.39-.5,10.5.51.21.19.32.42.33.68.02.45.05,1.38-9.09,2.96-8.6,1.49-22.97,3.1-36.61,4.12-5.99.45-12.66.85-17.37.85Z" />
      <path class="cls-8"
        d="M203.87,52.38c-13.08-11.65-32.17-22.43-53.74-30.37-21.55-7.93-43.07-12.09-60.61-11.7-18.07.4-29.87,5.65-33.23,14.78-3.36,9.13,2.23,20.78,15.73,32.8,13.08,11.65,32.17,22.43,53.74,30.37,20.56,7.56,41.27,11.73,58.32,11.73,20.42-.13,32.16-5.68,35.52-14.81,3.36-9.13-2.23-20.78-15.73-32.79ZM186.29,96.46c-17.07.4-38.15-3.7-59.32-11.49-21.17-7.79-39.86-18.33-52.62-29.7-12.35-10.99-17.59-21.28-14.77-28.96,2.94-7.99,14.61-12.56,32.03-12.56s37.05,4.11,57.31,11.56c21.17,7.79,39.86,18.34,52.62,29.7,12.35,10.99,17.59,21.28,14.77,28.96-2.83,7.69-13.49,12.12-30.02,12.49Z" />
      <path class="cls-6"
        d="M184.08,98.8c-16.94,0-37.4-4.11-57.91-11.65-21.44-7.89-40.39-18.59-53.37-30.14-13.11-11.67-18.58-22.86-15.4-31.5,3.18-8.64,14.6-13.62,32.14-14.01,17.37-.39,38.74,3.74,60.18,11.63,21.44,7.89,40.39,18.59,53.37,30.14,13.11,11.67,18.58,22.86,15.4,31.5-3.18,8.64-14.6,13.62-32.14,14.01-.75.02-1.5.02-2.26.02ZM91.67,12.58c-17.42,0-29.95,4.47-33.21,13.31-6.28,17.06,24.27,44.06,68.09,60.18,43.82,16.12,84.58,15.35,90.86-1.71h0c6.28-17.06-24.27-44.06-68.09-60.18-21.1-7.76-41.48-11.61-57.65-11.61ZM217.95,84.57h0,0Z" />
      <path class="cls-8"
        d="M219.6,25.1c-3.36-9.13-15.16-14.38-33.23-14.78-17.54-.38-39.06,3.77-60.61,11.7-21.57,7.94-40.66,18.72-53.74,30.37-13.5,12.02-19.08,23.66-15.73,32.79,3.36,9.13,15.16,14.38,33.23,14.78.76.02,1.52.02,2.29.02,17.05,0,37.77-4.16,58.32-11.73,21.57-7.94,40.66-18.72,53.74-30.37,13.5-12.02,19.08-23.66,15.73-32.8ZM74.34,55c12.76-11.36,31.45-21.91,52.62-29.7,20.26-7.45,40.62-11.56,57.31-11.56s29.09,4.58,32.03,12.56c2.83,7.68-2.42,17.97-14.77,28.96-12.76,11.36-31.45,21.91-52.62,29.7-21.16,7.78-42.23,11.87-59.32,11.49-16.53-.37-27.19-4.8-30.02-12.49-2.83-7.68,2.42-17.97,14.77-28.96Z" />
      <path class="cls-6"
        d="M91.81,98.8c-.76,0-1.52,0-2.26-.02-17.55-.39-28.96-5.37-32.14-14.01-3.18-8.64,2.29-19.83,15.4-31.5,12.98-11.55,31.93-22.26,53.37-30.14,21.44-7.89,42.81-12.01,60.18-11.63,17.55.39,28.96,5.37,32.14,14.01,3.18,8.64-2.29,19.83-15.4,31.5-12.98,11.55-31.93,22.26-53.37,30.14-20.51,7.55-40.97,11.65-57.91,11.65ZM58.47,84.37c6.28,17.06,47.04,17.83,90.86,1.71,43.82-16.12,74.37-43.12,68.09-60.18-6.28-17.06-47.04-17.83-90.86-1.71-43.82,16.12-74.37,43.12-68.09,60.18Z" />
      <path class="cls-7"
        d="M63.46,39.28c-.09,0-.18-.02-.26-.07l-6.46-3.4-6.46,3.4c-.08.04-.17.07-.26.07-.12,0-.24-.04-.33-.11-.18-.13-.26-.34-.23-.56l1.23-7.19-5.23-5.09c-.16-.15-.21-.38-.14-.58.07-.21.25-.36.46-.39l7.22-1.05,3.23-6.54c.1-.19.29-.32.51-.32s.41.12.51.32l3.23,6.54,7.22,1.05c.21.03.39.18.46.39.07.21.01.43-.14.58l-5.23,5.09,1.23,7.19c.04.21-.05.43-.23.56-.1.07-.22.11-.33.11Z" />
      <path class="cls-6"
        d="M56.74,18.02l3.36,6.81,7.52,1.09-5.44,5.3,1.28,7.49-6.72-3.53-6.72,3.53,1.28-7.49-5.44-5.3,7.52-1.09,3.36-6.81h0ZM56.74,16.88h0c-.43,0-.83.25-1.02.63l-3.1,6.27-6.92,1.01c-.43.06-.79.36-.92.77-.13.41-.02.86.29,1.17l5.01,4.88-1.18,6.9c-.07.43.1.86.45,1.11.2.14.43.22.67.22.18,0,.36-.04.53-.13l6.19-3.26,6.19,3.26c.17.09.35.13.53.13.24,0,.47-.07.67-.22.35-.25.53-.69.45-1.11l-1.18-6.9,5.01-4.88c.31-.3.42-.75.29-1.17-.13-.41-.49-.71-.92-.77l-6.92-1.01-3.1-6.27c-.19-.39-.59-.63-1.02-.63h0Z" />
      <path class="cls-8"
        d="M60.1,24.83l-3.36-6.81-3.36,6.81-7.52,1.09,5.39,5.25c2.92-2.33,6.04-4.42,9.3-6.28l-.45-.07Z" />
      <path class="cls-7"
        d="M85.79,171.35c-.12,0-.24-.04-.33-.11-.18-.13-.26-.34-.23-.56l1.11-6.45-4.69-4.57c-.16-.15-.21-.38-.14-.58.07-.21.25-.36.46-.39l6.47-.94,2.9-5.87c.1-.19.29-.32.51-.32s.41.12.51.32l2.9,5.87,6.47.94c.21.03.39.18.46.39.07.21.01.43-.14.58l-4.69,4.57,1.11,6.45c.04.21-.05.43-.23.56-.1.07-.22.11-.33.11-.09,0-.18-.02-.26-.07l-5.79-3.04-5.79,3.04c-.08.04-.17.07-.26.07Z" />
      <path class="cls-6"
        d="M91.85,152.14l3.03,6.14,6.77.98-4.9,4.78,1.16,6.74-6.06-3.18-6.06,3.18,1.16-6.74-4.9-4.78,6.77-.98,3.03-6.14h0ZM91.85,151h0c-.43,0-.83.25-1.02.63l-2.76,5.6-6.18.9c-.43.06-.79.36-.92.77-.13.41-.02.86-.46,2.62l4.47,4.36-.31,4.71c-.07.43.1.86.45,1.11.2.14.43.22.67.22.18,0,.36-.04.53-.13l5.53-2.91,5.53,2.91c.17.09.35.13.53.13.24,0,.47-.07.67-.22.35-.25.53-.69.45-1.11l-1.06-6.15,4.47-4.36c.31-.3.42-.75.29-1.17-.13-.41-.49-.71-.92-.77l-6.18-.9-2.76-5.6c-.19-.39-.59-.63-1.02-.63h0Z" />
      <path class="cls-7"
        d="M221.79,79.36c-.09,0-.18-.02-.26-.07l-4.47-2.35-4.47,2.35c-.08.04-.17.07-.26.07-.12,0-.24-.04-.33-.11-.18-.13-.26-.34-.23-.56l.85-4.98-3.62-3.53c-.16-.15-.21-.38-.14-.58.07-.21.25-.36.46-.39l5-.73,2.24-4.53c.1-.19.29-.32.51-.32s.41.12.51.32l2.24,4.53,5,.73c.21.03.39.18.46.39.07.21.01.43-.14.58l-3.62,3.53.85,4.98c.04.21-.05.43-.23.56-.1.07-.22.11-.33.11Z" />
      <path class="cls-6"
        d="M217.06,64.21l2.37,4.8,5.29.77-3.83,3.73.9,5.27-4.74-2.49-4.74,2.49.9-5.27-3.83-3.73,5.29-.77,2.37-4.8h0ZM217.06,63.08h0c-.43,0-.83.25-1.02.63l-2.1,4.26-4.7.68c-.43.06-.78.36-.92.77-.13.41-.02.86.29,1.17l3.4,3.32-.8,4.68c-.07.43.1.86.45,1.11.2.14.43.22.67.22.18,0,.36-.04.53-.13l4.21-2.21,4.21,2.21c.17.09.35.13.53.13.24,0,.47-.07.67-.22.35-.25.53-.69.45-1.11l-.8-4.68,3.4-3.32c.31-.3.42-.75.29-1.17-.13-.41-.49-.71-.92-.77l-4.7-.68-2.1-4.26c-.19-.39-.59-.63-1.02-.63h0Z" />
      <path class="cls-7"
        d="M71.77,100.53c-.09,0-.18-.02-.26-.07l-6.11-3.21-6.11,3.21c-.08.04-.17.07-.26.07-.12,0-.24-.04-.33-.11-.18-.13-.26-.34-.23-.56l1.17-6.8-4.94-4.82c-.16-.15-.21-.38-.14-.58.07-.21.24-.36.46-.39l6.83-.99,3.05-6.19c.1-.19.29-.32.51-.32s.41.12.51.32l3.05,6.19,6.83.99c.21.03.39.18.46.39.07.21.01.43-.14.58l-4.94,4.82,1.17,6.8c.04.21-.05.43-.23.56-.1.07-.22.11-.33.11Z" />
      <path class="cls-6"
        d="M65.4,80.35l3.19,6.46,7.12,1.04-5.15,5.02,1.22,7.1-6.37-3.35-6.37,3.35,1.22-7.1-5.15-5.02,7.12-1.04,3.19-6.46h0ZM65.4,79.22c-.43,0-.83.25-1.02.63l-2.92,5.92-6.53.95c-.43.06-.79.36-.92.77-.13.41-.02.86.29,1.17l4.73,4.61-1.12,6.51c-.07.43.1.86.45,1.11.2.14.43.22.67.22.18,0,.36-.04.53-.13l5.84-3.07,5.84,3.07c.17.09.35.13.53.13.24,0,.47-.07.67-.22.35-.25.53-.69.45-1.11l-1.12-6.51,4.73-4.61c.31-.3.42-.75.29-1.17-.13-.41-.49-.71-.92-.77l-6.53-.95-2.92-5.92c-.19-.39-.59-.63-1.02-.63h0Z" />
      <path class="cls-8"
        d="M65.4,80.35l-3.19,6.46-7.12,1.04,5.15,5.02-.92,5.36c2.02-5.27,4.39-10.36,7.52-14.94l-1.45-2.93Z" />
      <path class="cls-7"
        d="M214.6,25.41c-.09,0-.18-.02-.26-.07l-5.78-3.04-5.78,3.04c-.08.04-.17.07-.26.07-.12,0-.24-.04-.33-.11-.18-.13-.26-.34-.23-.56l1.1-6.43-4.67-4.56c-.15-.15-.21-.38-.14-.58.07-.21.25-.36.46-.39l6.46-.94,2.89-5.85c.1-.19.29-.32.51-.32s.41.12.51.32l2.89,5.85,6.46.94c.21.03.39.18.46.39.07.21.01.43-.14.58l-4.67,4.56,1.1,6.43c.04.21-.05.43-.23.56-.1.07-.22.11-.33.11Z" />
      <path class="cls-6"
        d="M208.55,6.25l3.02,6.12,6.75.98-4.89,4.76,1.15,6.73-6.04-3.18-6.04,3.18,1.15-6.73-4.89-4.76,6.75-.98,3.02-6.12h0ZM208.55,5.11h0c-.43,0-.83.25-1.02.63l-2.76,5.58-6.16.9c-.43.06-.79.36-.92.77-.13.41-.02.86.29,1.17l4.46,4.35-1.05,6.14c-.07.43.1.86.45,1.11.2.14.43.22.67.22.18,0,.36-.04.53-.13l5.51-2.9,5.51,2.9c.17.09.35.13.53.13.24,0,.47-.07.67-.22.35-.25.53-.69.45-1.11l-1.05-6.14,4.46-4.35c.31-.3.42-.75.29-1.17-.13-.41-.49-.71-.92-.77l-6.16-.9-2.76-5.58c-.19-.39-.59-.63-1.02-.63h0Z" />
      <path class="cls-8" d="M208.55,6.25l-3.02,6.12-6.75.98,4.85,4.73c2.46-2.2,5.11-4.16,7.85-5.9l-2.92-5.92Z" />
      <path class="cls-7"
        d="M171.47,38.34c-.09,0-.18-.02-.26-.07l-4.47-2.35-4.47,2.35c-.08.04-.17.07-.26.07-.12,0-.24-.04-.33-.11-.18-.13-.26-.34-.23-.56l.85-4.98-3.62-3.53c-.16-.15-.21-.38-.14-.58.07-.21.25-.36.46-.39l5-.73,2.24-4.53c.1-.19.29-.32.51-.32s.41.12.51.32l2.24,4.53,5,.73c.21.03.39.18.46.39.07.21.01.43-.14.58l-3.62,3.53.85,4.98c.04.21-.05.43-.23.56-.1.07-.22.11-.33.11Z" />
      <path class="cls-6"
        d="M166.73,23.2l2.37,4.8,5.29.77-3.83,3.73.9,5.27-4.74-2.49-4.74,2.49.9-5.27-3.83-3.73,5.29-.77,2.37-4.8h0ZM166.73,22.06c-.43,0-.83.25-1.02.63l-2.1,4.26-4.7.68c-.43.06-.79.36-.92.77-.13.41-.02.86.29,1.17l3.4,3.32-.8,4.68c-.07.43.1.86.45,1.11.2.14.43.22.67.22.18,0,.36-.04.53-.13l4.21-2.21,4.21,2.21c.17.09.35.13.53.13.24,0,.47-.07.67-.22.35-.25.53-.69.45-1.11l-.8-4.68,3.4-3.32c.31-.3.42-.75.29-1.17-.13-.41-.49-.71-.92-.77l-4.7-.68-2.1-4.26c-.19-.39-.59-.63-1.02-.63h0Z" />
      <path class="cls-7"
        d="M199.75,150.63c-.09,0-.18-.02-.26-.07l-4.47-2.35-4.47,2.35c-.08.04-.17.07-.26.07-.12,0-.24-.04-.33-.11-.18-.13-.26-.34-.23-.56l.85-4.98-3.62-3.52c-.16-.15-.21-.38-.14-.58.07-.21.25-.36.46-.39l5-.73,2.24-4.53c.1-.19.29-.32.51-.32s.41.12.51.32l2.24,4.53,5,.73c.21.03.39.18.46.39.07.21.01.43-.14.58l-3.62,3.52.85,4.98c.04.21-.05.43-.23.56-.1.07-.22.11-.33.11Z" />
      <path class="cls-6"
        d="M195.02,135.49l2.37,4.8,5.29.77-3.83,3.73.9,5.27-4.74-2.49-4.74,2.49.9-5.27-3.83-3.73,5.29-.77,2.37-4.8h0ZM195.02,134.35h0c-.43,0-.83.25-1.02.63l-2.1,4.26-4.7.68c-.43.06-.78.36-.92.77-.13.41-.02.86.29,1.17l3.4,3.32-.8,4.68c-.07.43.1.86.45,1.11.2.14.43.22.67.22.18,0,.36-.04.53-.13l4.21-2.21,4.21,2.21c.17.09.35.13.53.13.24,0,.47-.07.67-.22.35-.25.53-.69.45-1.11l-.8-4.68,3.4-3.32c.31-.3.42-.75.29-1.17-.13-.41-.49-.71-.92-.77l-4.7-.68-2.1-4.26c-.19-.39-.59-.63-1.02-.63h0Z" />
      <path class="cls-8" d="M159.07,28.76l3.83,3.73-.9,5.27,4.54-2.39c-2.07-2.14-3.92-4.49-5.51-6.9l-1.95.28Z" />
      <path class="cls-7"
        d="M106.11,39.92c-.09,0-.18-.02-.26-.07l-4.47-2.35-4.47,2.35c-.08.04-.17.07-.26.07-.12,0-.24-.04-.33-.11-.18-.13-.26-.34-.23-.56l.85-4.98-3.62-3.53c-.16-.15-.21-.38-.14-.58.07-.21.25-.36.46-.39l5-.73,2.24-4.53c.1-.19.29-.32.51-.32s.41.12.51.32l2.24,4.53,5,.73c.21.03.39.18.46.39.07.21.01.43-.14.58l-3.62,3.53.85,4.98c.04.21-.05.43-.23.56-.1.07-.22.11-.33.11Z" />
      <path class="cls-6"
        d="M101.37,24.77l2.37,4.8,5.29.77-3.83,3.73.9,5.27-4.74-2.49-4.74,2.49.9-5.27-3.83-3.73,5.29-.77,2.37-4.8h0ZM101.37,23.64c-.43,0-.83.25-1.02.63l-2.1,4.26-4.7.68c-.43.06-.79.36-.92.77-.13.41-.02.86.29,1.17l3.4,3.32-.8,4.68c-.07.43.1.86.45,1.11.2.14.43.22.67.22.18,0,.36-.04.53-.13l4.21-2.21,4.21,2.21c.17.09.35.13.53.13.24,0,.47-.07.67-.22.35-.25.53-.69.45-1.11l-.8-4.68,3.4-3.32c.31-.3.42-.75.29-1.17-.13-.41-.49-.71-.92-.77l-4.7-.68-2.1-4.26c-.19-.39-.59-.63-1.02-.63h0Z" />
      <path class="cls-8"
        d="M107.93,30.18c-2.76,2.59-5.57,5.22-8.5,7.7l1.95-1.02,4.74,2.49-.9-5.27,3.83-3.73-1.11-.16Z" />
      <path class="cls-8"
        d="M92.91,16.11c-3.22,0-5.84-2.62-5.84-5.84s2.62-5.84,5.84-5.84,5.84,2.62,5.84,5.84-2.62,5.84-5.84,5.84Z" />
      <path class="cls-6"
        d="M92.91,5c2.91,0,5.27,2.36,5.27,5.27s-2.36,5.27-5.27,5.27-5.27-2.36-5.27-5.27,2.36-5.27,5.27-5.27h0ZM92.91,3.87c-3.53,0-6.41,2.87-6.41,6.41s2.87,6.41,6.41,6.41,6.41-2.87,6.41-6.41-2.87-6.41-6.41-6.41h0Z" />
      <path class="cls-5"
        d="M89.21,14.02c.95.94,2.26,1.52,3.71,1.52,2.91,0,5.27-2.36,5.27-5.27,0-1.09-.33-2.1-.9-2.94-2.12,2.76-4.98,4.86-8.08,6.68Z" />
      <path class="cls-1"
        d="M196.08,65.11c0,2.91-2.36,5.27-5.27,5.27s-5.27-2.36-5.27-5.27,2.36-5.27,5.27-5.27,5.27,2.36,5.27,5.27Z" />
      <path class="cls-6"
        d="M190.81,70.95c-3.22,0-5.84-2.62-5.84-5.84s2.62-5.84,5.84-5.84,5.84,2.62,5.84,5.84-2.62,5.84-5.84,5.84ZM190.81,60.41c-2.59,0-4.7,2.11-4.7,4.7s2.11,4.7,4.7,4.7,4.7-2.11,4.7-4.7-2.11-4.7-4.7-4.7Z" />
      <path class="cls-1"
        d="M160.54,13.53c0,2.91-2.36,5.27-5.27,5.27s-5.27-2.36-5.27-5.27,2.36-5.27,5.27-5.27,5.27,2.36,5.27,5.27Z" />
      <path class="cls-6"
        d="M155.27,19.36c-3.22,0-5.84-2.62-5.84-5.84s2.62-5.84,5.84-5.84,5.84,2.62,5.84,5.84-2.62,5.84-5.84,5.84ZM155.27,8.82c-2.59,0-4.7,2.11-4.7,4.7s2.11,4.7,4.7,4.7,4.7-2.11,4.7-4.7-2.11-4.7-4.7-4.7Z" />
      <circle class="cls-1" cx="122.98" cy="93.87" r="4.02" />
      <path class="cls-6"
        d="M122.98,98.46c-2.53,0-4.59-2.06-4.59-4.59s2.06-4.59,4.59-4.59,4.59,2.06,4.59,4.59-2.06,4.59-4.59,4.59ZM122.98,90.42c-1.9,0-3.45,1.55-3.45,3.45s1.55,3.45,3.45,3.45,3.45-1.55,3.45-3.45-1.55-3.45-3.45-3.45Z" />
    </g>
  </g>
</svg>