<?xml version="1.0" encoding="UTF-8"?>
<svg id="Capa_2" xmlns="http://www.w3.org/2000/svg" viewBox="0 0 203.65 199.74">
  <defs>
    <style>
      .cls-1 {
        fill: aqua;
      }

      .cls-2 {
        fill: #29abe2;
      }

      .cls-3 {
        fill: #fff;
      }

      .cls-4 {
        fill: #862291;
      }

      .cls-5 {
        fill: #1b1464;
      }

      .cls-6 {
        fill: #fcee21;
      }

      .cls-7 {
        fill: #ed1e79;
      }
    </style>
  </defs>
  <g id="_0">
    <path class="cls-3"
      d="M203.62,155.48c-.12-.82-.6-1.83-2.08-2.33,1.07-.86,1.32-1.39,1.47-1.87.23-.74.15-1.5-.23-2.16-.29-.5-1.02-1.34-2.53-1.34h0c-1.4,0-4.46.96-9.09,2.87.35-2.44-.19-3.19-.5-3.61-.53-.73-1.34-1.15-2.29-1.15h0c-1.87.02-3.08,1.73-4.54,4.68-.38.77-.78,1.64-1.2,2.59-.64-1.68-1.79-2.63-3.2-2.63-.05,0-.15,0-.2,0-.94.06-1.68.54-2.19,1.43-1.33-.49-2.61-1.07-3.86-1.72,2.25-6.82,3.48-14.09,3.48-21.62v-57.5c0-13.02-3.58-28.16-12.34-36.84l3.59-14.63c.36-1.45.03-2.99-.9-4.17-.92-1.18-2.34-1.87-3.83-1.87h-7.23c-.91,0-1.76.25-2.5.69-.73-.44-1.59-.69-2.49-.69h-4.68C133.64,4.7,118.78,0,103.17,0s-30.47,4.7-43.1,13.62h-3.69c-.76,0-1.47.17-2.11.48-.64-.31-1.36-.48-2.11-.48h-7.29c-2.69,0-4.87,2.18-4.87,4.87v19.21c-7.65,9.01-10.31,21.79-10.31,33.42v57.5c0,1.81.07,3.61.21,5.39-1.71,2.48-3.4,5.01-5.05,7.61-.52-.22-1.03-.29-1.7-.14-1.44.34-3.34,1.57-3.96,3.91-.11.41-.17.82-.2,1.24-.58-.85-1.14-1.84-1.68-2.94-.18-.38-.46-.72-.79-.97-4.16-3.24-8.48-3.72-10.68-3.72-1.26,0-2.44.16-3.31.46-1.65.56-2.24,1.58-2.44,2.35-.74,2.81,3.85,9.79,9.56,13.07.08.05.17.09.26.13,2.71,1.16,10.85,5.01,11.82,5.47,1.02.49,2.38.24,3.18-.6l4.08-4.34c.78-.16,1.88-.52,2.92-1.34.94-.75,1.42-1.79,1.64-2.83,9.82,28.1,37.33,48.38,69.64,48.38,24.32,0,45.92-11.5,59.31-29.17,2.77,5.22,3.99,5.24,5,5.24.18,0,.36-.02.54-.05.74-.15,1.37-.6,1.78-1.27.21-.34.63-1.03.44-3.06,2.64.88,4.86,1.09,6.62.62,2.29-.62,2.51-2.31,2.53-2.81.02-.83-.23-1.49-.82-2.11,3.4-.37,4.52-.8,5.18-1.9.43-.71.48-1.59.15-2.35-.33-.74-.87-1.19-1.61-1.47.42.07.83.13,1.25.19.08.01.15.02.24.02,2.4,2.35,5.74,5.09,8.27,5.09.56,0,1.09-.12,1.57-.35,1.02-.5,1.66-1.41,1.76-2.5.09-.99-.36-2.11-1.33-3.33.27-.04.53-.09.8-.13,6.42-1.07,7.56-1.94,8.23-2.82.47-.61.67-1.36.56-2.1Z" />
    <path class="cls-3" d="M110.17,83.73c-.19.23-.38.53-.56.88l.56-.88Z" />
    <path class="cls-3"
      d="M109.6,90.45c-.98,0-1.98-.25-2.89-.77-2.7-1.55-3.72-4.94-2.31-7.72.39-.78.82-1.43,1.31-2.01,1.98-2.34,5.44-2.75,7.92-.93,2.47,1.82,3.11,5.25,1.46,7.84l-.56.88c-1.11,1.74-2.99,2.7-4.93,2.7ZM113.54,86.58l1.08.92c.14-.16.2-.27.2-.27l-1.29-.65Z" />
    <path class="cls-7"
      d="M103.17,4.87h0c36.56,0,66.25,29.69,66.25,66.25v57.5c0,36.56-29.69,66.25-66.25,66.25h0c-36.56,0-66.25-29.69-66.25-66.25v-57.5c0-36.56,29.69-66.25,66.25-66.25Z" />
    <path class="cls-5"
      d="M104.1,6.88c35.93,0,65.32,29.39,65.32,65.32v55.35c0,35.93-29.39,65.32-65.32,65.32h-1.86c-35.93,0-65.32-29.39-65.32-65.32v-55.35c0-35.93,29.39-65.32,65.32-65.32h1.86ZM104.1,4.87h-1.86c-17.91,0-34.8,7.02-47.55,19.78-12.75,12.75-19.78,29.64-19.78,47.55v55.35c0,17.91,7.02,34.8,19.78,47.55,12.75,12.75,29.64,19.78,47.55,19.78h1.86c17.91,0,34.8-7.02,47.55-19.78,12.75-12.75,19.78-29.64,19.78-47.55v-55.35c0-17.91-7.02-34.8-19.78-47.55-12.75-12.75-29.64-19.78-47.55-19.78h0Z" />
    <path class="cls-3"
      d="M45.31,119.03c-.36,0-.72-.08-1.06-.23-.88-.41-1.44-1.29-1.44-2.27V18.49c0-1.38,1.12-2.5,2.5-2.5h8.6c.84,0,1.59.42,2.04,1.05.45-.64,1.2-1.05,2.04-1.05h8.6c1.38,0,2.5,1.12,2.5,2.5v83.08c0,1.01-.6,1.91-1.53,2.31l-8.6,3.63c-.77.32-1.66.24-2.36-.22-.07-.05-.13-.09-.2-.14v2.18c0,.74-.33,1.44-.9,1.92l-8.6,7.2c-.46.38-1.03.58-1.61.58ZM47.81,20.99v90.18l3.6-3.01V42.13c0-1.38,1.12-2.5,2.5-2.5h4.08c1.38,0,2.5,1.12,2.5,2.5v59.29l3.6-1.52V20.99h-3.6v12.96c0,1.38-1.12,2.5-2.5,2.5h-4.08c-1.38,0-2.5-1.12-2.5-2.5v-12.96h-3.6Z" />
    <path class="cls-3"
      d="M67.8,100.79c-.47,0-.95-.13-1.36-.4-.74-.48-1.18-1.32-1.14-2.2l1.45-36.54s0-.09,0-.14l4.18-43.26c.12-1.28,1.2-2.26,2.49-2.26h14.67c1.29,0,2.37.98,2.49,2.27l4.1,43.26c.03.3,0,.61-.08.9l-8.26,29.96c-.33,1.21-1.5,1.98-2.75,1.81-1.24-.17-2.17-1.23-2.16-2.49l.07-29.84-.4-4.59h-.6l-.36,4.6-.5,31.79c-.01.93-.55,1.78-1.38,2.2l-9.36,4.67c-.35.18-.74.26-1.12.26ZM71.75,61.92l-1.28,32.24,4.21-2.1.48-30.35c0-.05,0-.1,0-.15l.54-6.98c.1-1.3,1.19-2.31,2.49-2.31h5.21c1.3,0,2.38.99,2.49,2.28l.61,6.98c0,.07,0,.15,0,.23l-.03,11.29,3.18-11.52-3.85-40.54h-10.13l-3.95,40.93ZM82.75,50.36h-3.93c-.7,0-1.36-.29-1.83-.8-.47-.51-.71-1.19-.66-1.89l1.65-22c.1-1.31,1.19-2.32,2.49-2.32h.39c1.3,0,2.38.99,2.49,2.29l1.89,22c.06.7-.18,1.39-.65,1.91-.47.52-1.14.81-1.84.81Z" />
    <path class="cls-3"
      d="M103.37,64.25h-8.5c-1.38,0-2.5-1.12-2.5-2.5V18.49c0-1.38,1.12-2.5,2.5-2.5h11.43c2.94,0,5.36.71,7.2,2.11,1.82,1.38,3.13,3.34,3.89,5.8.68,2.2,1.02,4.81,1.02,7.77s-.28,5.34-.84,7.48c-.64,2.46-1.84,4.41-3.55,5.81-1.76,1.44-4.15,2.16-7.13,2.16h-1.01v14.63c0,1.38-1.12,2.5-2.5,2.5ZM97.37,59.24h3.5v-14.63c0-1.38,1.12-2.5,2.5-2.5h3.51c1.79,0,3.12-.35,3.96-1.03.89-.73,1.51-1.78,1.88-3.21.45-1.73.68-3.82.68-6.21s-.27-4.57-.8-6.29c-.45-1.47-1.15-2.54-2.13-3.29-.95-.72-2.35-1.09-4.17-1.09h-8.93v38.26ZM103.86,39.35h-.49c-1.38,0-2.5-1.12-2.5-2.5v-10.47c0-1.38,1.12-2.5,2.5-2.5h.96c3.31,0,4.48,2.04,4.82,2.92.47,1.2.7,2.74.7,4.72,0,2.1-.24,3.7-.72,4.91-.44,1.09-1.7,2.92-5.27,2.92Z" />
    <path class="cls-3"
      d="M127.14,64.25h-8.5c-1.38,0-2.5-1.12-2.5-2.5V18.49c0-1.38,1.12-2.5,2.5-2.5h11.43c2.94,0,5.36.71,7.2,2.11,1.82,1.38,3.13,3.34,3.89,5.8.68,2.2,1.02,4.81,1.02,7.77s-.28,5.34-.84,7.48c-.64,2.46-1.84,4.41-3.55,5.81-1.76,1.44-4.15,2.16-7.13,2.16h-1.01v14.63c0,1.38-1.12,2.5-2.5,2.5ZM121.14,59.24h3.5v-14.63c0-1.38,1.12-2.5,2.5-2.5h3.51c1.79,0,3.12-.35,3.96-1.03.89-.73,1.51-1.78,1.88-3.21.45-1.73.68-3.82.68-6.21s-.27-4.57-.8-6.29c-.45-1.47-1.15-2.54-2.13-3.29-.95-.72-2.35-1.09-4.18-1.09h-8.93v38.26ZM127.63,39.35h-.49c-1.38,0-2.5-1.12-2.5-2.5v-10.47c0-1.38,1.12-2.5,2.5-2.5h.96c3.31,0,4.47,2.04,4.82,2.92.47,1.2.7,2.74.7,4.72,0,2.09-.24,3.7-.72,4.91-.44,1.09-1.7,2.93-5.27,2.93Z" />
    <path class="cls-3"
      d="M155.8,140.83c-.9,0-1.75-.48-2.19-1.3l-8.16-14.87c-.2-.37-.31-.78-.31-1.2V47.81l-6.84-28.74c-.18-.74,0-1.53.47-2.13.47-.6,1.2-.95,1.96-.95h8.58c1.13,0,2.11.76,2.41,1.83.3-1.07,1.28-1.83,2.41-1.83h8.55c.76,0,1.49.35,1.96.95.47.6.65,1.38.47,2.13l-6.82,28.74v90.52c0,1.14-.77,2.14-1.88,2.42-.21.05-.42.08-.62.08ZM150.14,122.81l3.16,5.75V47.51c0-.19.02-.39.07-.58l6.15-25.95h-3.26l-2.06,12.55c-.2,1.21-1.24,2.1-2.47,2.1s-2.27-.89-2.47-2.1l-2.06-12.55h-3.29l6.17,25.95c.04.19.07.38.07.58v75.3Z" />
    <path class="cls-5" d="M105.79,171.21c-52.68.36-54.71,8.16.95,7.79,55.6-.37,33.92-7.75-.95-7.79Z" />
    <path class="cls-5"
      d="M45.31,116.52V18.49h8.6v15.46h4.08v-15.46h8.6v83.08l-8.6,3.63v-63.07h-4.08v67.19l-8.6,7.2Z" />
    <path class="cls-5"
      d="M69.25,61.75l4.18-43.26h14.67l4.1,43.26-8.26,29.96.07-29.96-.61-6.98h-5.21l-.54,6.98-.5,31.87-9.36,4.67,1.45-36.54ZM78.81,47.86h3.93l-1.89-22h-.39l-1.65,22Z" />
    <path class="cls-5"
      d="M94.86,61.75V18.49h11.43c2.39,0,4.29.53,5.69,1.6,1.4,1.07,2.4,2.58,3.01,4.55.61,1.97.91,4.31.91,7.03s-.25,4.9-.76,6.85c-.51,1.94-1.41,3.45-2.72,4.51-1.3,1.07-3.15,1.6-5.54,1.6h-3.51v17.13h-8.5ZM103.37,36.85h.49c1.61,0,2.59-.45,2.95-1.35.36-.9.54-2.23.54-3.98,0-1.64-.18-2.9-.53-3.8s-1.18-1.34-2.49-1.34h-.96v10.47Z" />
    <path class="cls-5"
      d="M118.63,61.75V18.49h11.43c2.39,0,4.29.53,5.69,1.6,1.4,1.07,2.4,2.58,3.01,4.55.61,1.97.91,4.31.91,7.03s-.25,4.9-.76,6.85c-.51,1.94-1.41,3.45-2.72,4.51-1.3,1.07-3.15,1.6-5.54,1.6h-3.51v17.13h-8.5ZM127.14,36.85h.49c1.61,0,2.59-.45,2.95-1.35.36-.9.54-2.23.54-3.98,0-1.64-.18-2.9-.53-3.8s-1.18-1.34-2.49-1.34h-.96v10.47Z" />
    <path class="cls-5"
      d="M147.64,123.46V47.51l-6.91-29.03h8.58l2.41,14.65,2.41-14.65h8.55l-6.88,29.03v90.81l-8.16-14.87Z" />
    <path class="cls-7"
      d="M58,18.49v15.46h-4.08v-15.46h-8.6v35.44c2.81-1.5,5.68-2.9,8.6-4.2v-7.59h4.08v5.82c2.83-1.18,5.71-2.3,8.6-3.37v-26.09h-8.6Z" />
    <path class="cls-7"
      d="M73.43,18.49l-2.36,24.47c2.76-.98,5.54-1.92,8.33-2.85l1.07-14.25h.39l1.15,13.38c2.61-.86,5.22-1.72,7.82-2.58l-1.72-18.17h-14.67Z" />
    <path class="cls-7"
      d="M111.98,20.08c-1.4-1.06-3.3-1.6-5.69-1.6h-11.43v16.49c2.85-.97,5.69-1.95,8.5-2.98v-5.62h.96c1.31,0,2.14.45,2.49,1.34.28.71.44,1.66.5,2.83,2.77-.98,5.55-1.91,8.33-2.8-.15-1.13-.37-2.17-.66-3.12-.61-1.97-1.61-3.48-3.01-4.55Z" />
    <path class="cls-7"
      d="M135.75,20.08c-1.4-1.06-3.3-1.6-5.69-1.6h-11.43v8.34c6.23-1.9,12.49-3.56,18.78-5-.47-.67-1.03-1.26-1.66-1.74Z" />
    <path class="cls-7" d="M149.31,18.49h-8.58l.59,2.48c2.71-.58,5.42-1.11,8.13-1.61l-.14-.87Z" />
    <path class="cls-1" d="M154.12,18.55c.13-.02.25-.04.38-.06h-.37v.06Z" />
    <path class="cls-3"
      d="M203.22,155.54c-.23-1.51-1.51-2.02-2.62-2.19,1.71-1.19,1.9-1.8,2.03-2.19.2-.63.13-1.27-.2-1.83-.25-.42-.87-1.14-2.18-1.14-1.76,0-6.17,1.68-9.61,3.12.54-2.86-.02-3.63-.3-4.03-.45-.62-1.15-.98-1.91-.98-.01,0-.03,0-.04,0-1.66.02-2.79,1.65-4.19,4.46-.53,1.06-1.03,2.18-1.42,3.1-.15-.07-.29-.13-.4-.19-.54-1.73-1.61-2.73-2.94-2.73-.05,0-.12,0-.17,0-1.04.07-1.65.73-2.02,1.53-12.54-4.47-21.87-16-27.74-34.3-4.7-14.67-5.27-28.13-5.29-28.7,0-.1-.02-.2-.03-.3-.27-1.39-.51-2.48-.74-3.34-.26-5.67-1.25-16.17-4.9-24.47-2.46-5.6-8.04-10.67-12.99-11.79-1.09-.25-2.39-.42-3.89-.5-1.7-.41-3.5-.66-5.36-.74-.62-.03-1.24-.04-1.85-.04-10.88,0-19.93,4.46-26.9,13.28-2.23.19-4.34,2.04-5.45,4.84-.61,1.54-.82,3.18-.58,4.6.02.1.04.19.06.29-3.08,6.48-4.58,12.64-5.18,15.68-20.1,14.24-36.93,32.32-51.41,55.2l-.03-.02c-.36-.21-.76-.32-1.18-.32-.17,0-.34.02-.51.05-.01,0-.02,0-.04,0-1.33.32-3.09,1.45-3.66,3.62-.24.91-.23,1.75-.11,2.47-.75-.92-1.62-2.24-2.53-4.1-.16-.32-.39-.61-.68-.83-4.07-3.16-8.28-3.64-10.43-3.64-1.22,0-2.35.16-3.18.44-1.48.5-2,1.4-2.18,2.07-.69,2.62,3.9,9.47,9.37,12.62.07.04.14.08.21.11,2.6,1.11,10.27,4.74,11.79,5.46l.06.03c.3.14.65.22,1,.22.64,0,1.26-.27,1.71-.74l4.17-4.44c.79-.14,1.86-.49,2.88-1.29,2.22-1.75,1.62-5.37,1.48-6.08-.1-.5-.36-.94-.73-1.28,13.59-21.42,29.31-38.41,47.98-51.84,1.42,1.17,2.93,2.2,4.5,3.07.13.09.26.16.41.22,4.13,2.19,8.74,3.31,13.7,3.31.23,0,.46,0,.69,0-3.01,28.93,1.57,48.1,14.33,60l-.19.35c-.29.51-.37,1.12-.22,1.71.2.74.64,1.6,1.37,2.31-.19-.01-.38-.02-.57-.02-.55,0-1.1.05-1.65.15-4.88.87-7.57,6.94-7.86,7.62-.3.71-.23,1.53.19,2.19.43.66,1.16,1.06,1.94,1.07l17.73.22c.96,0,1.8-.55,2.17-1.4l4.93-11.21c.41-.93.18-2.01-.58-2.69l-4.53-4.07c-.16-.78-.53-1.85-1.35-2.85-.59-.71-1.76-1.57-4-1.57-1.06,0-1.95.19-2.11.23-.28.06-.55.18-.79.34-10-10.48-13.15-27.97-9.91-54.7.07-.19.12-.4.14-.61.15-1.61.38-3.45.68-5.25.16.29.33.56.5.82.26.38.53.73.82,1.04.05.59.11,1.18.17,1.79l-.03.98c-.05,1.78-.09,3.05-.04,3.85.09,1.5.45,3.72,1.62,5.94,1.3,7.1,3.09,13.76,5.29,19.8,7.87,21.52,21.07,35.17,38.25,39.57.41.98,1.25,1.47,2.04,1.58.13.02.26.03.39.03.65,0,1.16-.22,1.54-.38.09-.04.2-.08.26-.11.49,0,1.06.1,1.52.21,3.46,7.19,4.77,7.19,5.73,7.19.15,0,.31-.02.45-.05.63-.13,1.17-.51,1.51-1.08.2-.33.64-1.04.31-3.45,1.56.57,3.4,1.06,5.09,1.06.68,0,1.32-.08,1.9-.24,1.97-.53,2.21-1.87,2.23-2.43.02-.86-.27-1.6-1.4-2.41,4.21-.4,5.23-.81,5.82-1.8.36-.6.41-1.34.12-1.97-.5-1.13-1.63-1.54-3.85-1.67.45-.14.89-.36,1.28-.62.88.17,1.76.32,2.63.43.11.01.21.02.31.02.02,0,.03,0,.05,0,1.94,1.92,5.54,5.09,8.1,5.09.5,0,.97-.1,1.39-.31.89-.43,1.45-1.22,1.53-2.17.09-1.03-.48-2.23-1.71-3.58.49-.07,1-.16,1.52-.24,6.27-1.04,7.38-1.89,7.98-2.67.4-.52.57-1.16.48-1.79ZM163.89,161.21c-.13-.04-.27-.07-.41-.08-.46-.05-.92-.11-1.44-.19-.37-.75-1.04-1.87-2.44-1.87-.25,0-.5.04-.74.12-.44.15-.81.42-1.17.89-14.97-3.78-26.17-15.59-33.32-35.12-1.25-3.4-2.35-7.02-3.3-10.8,1.64.45,3.45.71,5.42.76.22,0,.44,0,.66,0,6.95,0,10.67-2.98,12.63-5.79,1.01,4.77,2.27,9.33,3.76,13.63,6.25,18.01,16.4,30.22,29.55,35.64-2.75.57-6.93,2-9.2,2.81ZM177.39,161.09s.07.05.11.07c.1.06.2.12.31.16-.16,0-.33,0-.5,0,.03-.08.06-.15.09-.23ZM119.83,166.96c-.07.06-.14.12-.22.18-.06-.04-.12-.07-.18-.11.14-.02.27-.04.4-.07Z" />
    <path class="cls-6"
      d="M183.88,158.87c-17.38-2.32-30.57-15.07-38.13-36.88-5.66-16.3-6.21-32.15-6.22-32.31.27-6.78,1.05-6.84,2.35-.07.02.62,2.42,61.6,42.31,66.93l-.31,2.33Z" />
    <path class="cls-1"
      d="M141.88,89.62c-1.3-6.77-2.08-6.71-2.35.07,0,.14.48,13.49,4.92,28.28.34-1.52.75-3.03,1.24-4.51-3.38-12.83-3.8-23.58-3.81-23.84Z" />
    <path class="cls-5"
      d="M183.88,159.21s-.03,0-.05,0c-17.52-2.34-30.79-15.17-38.4-37.1-5.71-16.47-6.23-32.25-6.24-32.41.2-4.99.61-5.43,1.09-5.46.48-.03.96.34,1.92,5.31.03.66,2.48,61.38,42.03,66.66.18.02.31.19.29.38l-.31,2.33c-.02.17-.17.29-.33.29ZM140.35,85.04c-.14.37-.36,1.46-.48,4.66,0,.13.52,15.81,6.2,32.18,7.47,21.54,20.44,34.19,37.53,36.61l.22-1.66c-39.79-5.64-42.25-66.59-42.27-67.2-.61-3.18-1-4.24-1.19-4.59Z" />
    <path class="cls-7"
      d="M183.84,156.54s-3.18-1.39-3.2-1.53-.43-2.12-1.24-2.06c-.81.05-1.36,6.19-.84,6.51s1.95-.85,1.95-.85l4.23.57s5.8,5.99,7.81,5.02-3.99-5.35-3.99-5.35c0,0,12.91-1.44,12.68-3s-10.78.56-10.78.56c0,0,10.91-4.93,10.25-6.05-.66-1.12-13.1,4.46-13.1,4.46,0,0,2.18-6.52.81-6.5s-4.57,8.23-4.57,8.23Z" />
    <path class="cls-2"
      d="M119.59,170.04c4.24-2.85,3.95-4.22,3.95-4.22l-2.78-1.73s-1.31.94-2.9.55c-1.59-.39-1.99-1.9-1.99-1.9l3.93-7.14s2.81-.63,3.79.55.94,2.51.94,2.51l5.18,4.65-4.93,11.2-17.74-.22s2.36-5.56,6.11-6.23c3.75-.67,6.43,1.97,6.43,1.97Z" />
    <path class="cls-1"
      d="M113.17,168.07c-3.75.67-6.11,6.23-6.11,6.23l1.25.02c2.37-2.94,5.19-5.23,8.69-5.86-1.05-.4-2.35-.65-3.83-.39Z" />
    <path class="cls-1"
      d="M120.51,170.63s3.22-1.83,3.84-3.5c.5-1.36.27-2.15.27-2.15l-2.49-2.91s-4.26,2.58-5.95.15l-.29.53s.39,1.51,1.99,1.9c1.59.39,2.9-.55,2.9-.55l2.78,1.73s.26,1.28-3.57,3.95c.3.65.54.86.54.86Z" />
    <path class="cls-5"
      d="M124.79,174.85h0l-17.74-.22c-.11,0-.22-.06-.28-.15-.06-.09-.07-.21-.03-.31.1-.23,2.47-5.73,6.36-6.43,3.33-.6,5.8,1.26,6.52,1.88,2.99-2.05,3.49-3.24,3.57-3.62l-2.43-1.52c-.45.26-1.61.81-2.98.48-1.77-.43-2.21-2.07-2.23-2.14-.02-.08-.01-.17.03-.25l3.93-7.14c.05-.08.13-.14.22-.16.12-.03,3.03-.66,4.12.66.85,1.03.99,2.16,1.02,2.57l5.07,4.56c.11.1.14.25.08.38l-4.93,11.2c-.05.12-.17.2-.31.2ZM107.58,173.97l17,.21,4.75-10.78-5-4.49c-.07-.06-.11-.16-.11-.26,0-.01.01-1.23-.87-2.29-.65-.79-2.49-.62-3.31-.46l-3.79,6.88c.12.33.56,1.26,1.7,1.54,1.43.35,2.62-.49,2.63-.5.11-.08.26-.08.37-.01l2.78,1.73c.08.05.13.13.15.21.06.26.12,1.73-4.09,4.57-.13.09-.31.07-.42-.04-.03-.02-2.6-2.52-6.13-1.88-2.92.52-5,4.25-5.65,5.57Z" />
    <path class="cls-5"
      d="M120.54,171.96c-.14,0-.26-.08-.31-.22-.25-.67-.89-1.48-.9-1.49-.11-.14-.09-.35.05-.47.15-.11.36-.09.47.05.03.04.72.91,1,1.67.06.17-.02.37-.2.43-.04.01-.08.02-.12.02Z" />
    <path class="cls-5"
      d="M119.07,173.55h0l-10.3-.13c-.18,0-.33-.15-.33-.34,0-.18.15-.33.33-.33h0l10.3.13c.18,0,.33.15.33.34,0,.18-.15.33-.33.33Z" />
    <path class="cls-5"
      d="M124.61,172.09s-.1,0-.14-.03c-.17-.08-.24-.28-.16-.45l.51-1.1c.08-.17.28-.24.45-.16.17.08.24.28.16.45l-.51,1.1c-.06.12-.18.19-.3.19Z" />
    <path class="cls-5"
      d="M125.72,169.73s-.1,0-.14-.03c-.17-.08-.24-.28-.16-.45l.46-.98c.08-.17.28-.24.45-.16.17.08.24.28.16.45l-.46.98c-.06.12-.18.19-.3.19Z" />
    <path class="cls-5"
      d="M126.73,167.47s-.09,0-.13-.03c-.17-.07-.25-.27-.18-.44l1.83-4.3c.07-.17.27-.25.44-.18.17.07.25.27.18.44l-1.83,4.3c-.05.13-.18.2-.31.2Z" />
    <path class="cls-2"
      d="M22.9,158s-9-4.27-11.92-5.52c-5.31-3.06-8.47-9.09-8.24-9.97.23-.88,6.66-1.83,12.09,2.4,3.41,6.98,6.58,7.47,6.58,7.47l.91-3.35s-.91-1.33-.49-2.91c.42-1.58,1.94-1.94,1.94-1.94l7.05,4.09s.57,2.83-.63,3.78c-1.2.95-2.53.89-2.53.89l-4.77,5.07Z" />
    <path class="cls-1"
      d="M15.36,145.94c-.18-.33-.36-.67-.53-1.04-5.44-4.23-11.86-3.28-12.09-2.4-.06.22.1.76.44,1.5,4.07-.07,8.43-.22,12.19,1.93Z" />
    <path class="cls-1"
      d="M22.46,154.12s.71-2.68,1.77-4.03c-1.91-4.48-.09-4.49,1.1-5.03l-1.54-.89s-1.52.36-1.94,1.94c-.42,1.58.49,2.91.49,2.91l-.91,3.35s-2.55-.41-5.54-5.54c.27,6.24,6.59,7.29,6.59,7.29Z" />
    <path class="cls-5"
      d="M22.9,158.33s-.1-.01-.14-.03c-.09-.04-9.03-4.28-11.91-5.51-5.35-3.08-8.74-9.19-8.43-10.37.07-.28.36-.5.88-.68,1.83-.62,7.1-.72,11.74,2.89.04.03.07.07.1.12,2.69,5.49,5.21,6.87,6.05,7.19l.79-2.88c-.23-.4-.83-1.62-.45-3.05.47-1.76,2.12-2.16,2.19-2.18.09-.02.17,0,.25.04l7.05,4.09c.08.05.14.13.16.22.02.12.6,3.04-.75,4.11-1.05.83-2.18.94-2.59.96l-4.67,4.97c-.06.07-.15.11-.24.11ZM5.86,142.08c-.58,0-1.1.04-1.57.12-.88.14-1.19.36-1.24.42-.13.71,2.87,6.56,8.09,9.57,2.6,1.11,10.28,4.74,11.68,5.4l4.6-4.89c.07-.07.16-.12.26-.1.01,0,1.23.04,2.31-.82.8-.63.68-2.48.54-3.3l-6.79-3.94c-.34.12-1.27.53-1.57,1.67-.38,1.42.43,2.63.44,2.64.05.08.07.18.05.28l-.91,3.35c-.05.16-.21.27-.37.24-.14-.02-3.36-.59-6.79-7.58-2.94-2.27-6.24-3.04-8.7-3.04Z" />
    <path class="cls-5"
      d="M29.02,149.48c-.15,0-.29-.1-.32-.25-.04-.18.06-.36.24-.41,0,0,.32-.08.44-.12.19-.1.47.03.49.26.04.31-.13.35-.77.51-.03,0-.05,0-.08,0Z" />
    <path class="cls-5"
      d="M23.7,157.48s-.09,0-.14-.03c0,0-.81-.37-2.05-.95-.17-.08-.24-.28-.16-.45.08-.17.28-.24.45-.16,1.23.58,2.04.95,2.04.95.17.08.24.27.17.44-.06.12-.18.2-.31.2Z" />
    <path class="cls-5"
      d="M19.23,155.37s-.1-.01-.15-.03c-1.65-.81-3.14-1.57-4.43-2.26-.16-.09-.22-.29-.14-.45.09-.16.29-.22.45-.14,1.28.69,2.76,1.45,4.4,2.25.17.08.23.28.15.45-.06.12-.18.19-.3.19Z" />
    <path class="cls-5"
      d="M13.75,152.52c-.06,0-.11-.01-.16-.04-.32-.18-.63-.36-.94-.54-.16-.09-.21-.3-.12-.46.09-.16.3-.22.46-.12.3.17.61.35.93.53.16.09.22.29.13.46-.06.11-.18.17-.29.17Z" />
    <path class="cls-5"
      d="M10.38,150.42c-.07,0-.14-.02-.2-.06-3.72-2.73-6.55-7.62-6.66-7.83-.09-.16-.04-.37.12-.46.16-.09.37-.04.46.12.03.05,2.88,4.98,6.48,7.62.15.11.18.32.07.47-.07.09-.17.14-.27.14Z" />
    <path class="cls-6"
      d="M78.34,89.47s5.46-40.31,37.86-38.8c32.4,1.51,23.36,53.31,23.36,53.31,0,0-1.32,8.92-13,8.6s-13.19-8.06-13.38-11.14c-.19-3.08,1.21-18.34-2.07-18.56-3.28-.21-4.71,15.26-4.71,15.26-11.46,2.39-20.82-.49-28.07-8.66Z" />
    <path class="cls-6"
      d="M116.2,50.66c-18.52-.86-28.23,11.94-33.16,23.07l25.49,12.7c.68-2.1,1.54-3.63,2.58-3.56,3.28.21,1.88,15.48,2.07,18.56.19,3.08,1.7,10.83,13.38,11.14s13-8.6,13-8.6c0,0,9.04-51.8-23.36-53.31Z" />
    <path class="cls-1"
      d="M118.27,50.84c-.68-.08-1.36-.15-2.08-.18-18.52-.86-28.23,11.94-33.16,23.07l3.43,1.71c5.9-13.01,18.31-21.97,31.81-24.59Z" />
    <path class="cls-1"
      d="M121.47,111.83c1.44.42,3.11.69,5.09.74,11.68.32,13-8.6,13-8.6,0,0,1.19-6.81,1.16-15.56-2.07,11.29-2.04,23.35-19.24,23.42Z" />
    <path class="cls-4"
      d="M106.33,98.14s.05,0,.07-.01c0,0,.67-7.19,2.13-11.7l-25.49-12.7c-2.83,6.39-4.08,12.22-4.51,14.6-21.3,14.93-39.04,34.34-54.13,59.21.69,1.5,2.11,1.85,3.4,1.93,14.73-24.27,32.02-43.2,52.73-57.77,5.98,5.57,13.24,7.93,21.78,7.06-3.73,31.56,1.46,51.98,16.25,63.3,1.53-.42,2.29-1.49,2.33-3.16-13.71-10.62-18.35-30.21-14.57-60.76Z" />
    <path class="cls-1"
      d="M79.64,89.5s2.79-10.62,5.06-14.94l-1.66-.83c-2.83,6.39-4.08,12.22-4.51,14.6-20.54,14.39-37.77,32.97-52.5,56.58,5.47-6.85,14.23-19.49,22.01-27.55,16.03-16.6,31.6-27.86,31.6-27.86Z" />
    <path class="cls-1" d="M102.32,98.76c-3.12,26.36,0,44.95,9.73,56.95-13.14-20.29-9.4-57.42-9.73-56.95Z" />
    <path class="cls-5"
      d="M120.67,159.09c-.07,0-.14-.02-.21-.07-13.69-10.62-18.29-29.97-14.46-60.92,0-.07.04-.13.08-.18.22-2.28,1.66-15.6,5.05-15.38,2.64.17,2.65,7.32,2.42,15.26-.05,1.64-.08,2.93-.04,3.61.24,3.92,2.26,10.54,13.05,10.83.2,0,.4,0,.6,0,10.68,0,12.01-7.98,12.06-8.33.05-.31,5.12-30.29-6.62-44.94-3.99-4.98-9.51-7.66-16.42-7.99-28.86-1.31-36.16,30.91-37.33,37.39-.02.09-.07.16-.14.21-21.29,14.92-38.92,34.18-53.9,58.89-.1.16-.3.21-.46.11-.16-.1-.21-.3-.11-.46,15.01-24.75,32.66-44.06,53.98-59.01,1.26-6.88,8.76-39.17,37.99-37.8,7.1.33,12.79,3.1,16.91,8.24,11.93,14.88,6.82,45.16,6.76,45.46-.01.08-1.53,9.2-13.34,8.88-11.75-.32-13.5-8.12-13.7-11.46-.04-.71,0-2.02.04-3.67.14-4.68.42-14.43-1.8-14.58-.02,0-.03,0-.05,0-2.13,0-3.77,9.14-4.31,14.96,0,.08-.04.15-.09.2-3.76,30.59.77,49.7,14.23,60.13.15.11.17.32.06.47-.07.08-.17.13-.26.13Z" />
    <path class="cls-5"
      d="M118.37,162.33c-14.89-11.4-20.11-31.49-16.43-63.2-8.34.74-15.54-1.61-21.43-7.01-20.61,14.54-37.7,33.27-52.27,57.26l-.57-.35c14.66-24.15,31.89-43,52.67-57.62l.22-.16.2.19c5.88,5.48,13.12,7.82,21.52,6.97l.42-.04-.05.41c-3.74,31.69,1.38,51.71,16.12,63l-.41.53Z" />
    <path class="cls-5"
      d="M124.22,102.68l-1.97-2.19c.65-.7,1.32-1.42,1.89-2.03.3-.32.28-.81-.04-1.11-.32-.3-.81-.28-1.11.04-.7.75-1.29,1.38-1.8,1.93l-1.79-2c-.29-.32-.78-.35-1.11-.06-.32.29-.35.78-.06,1.11l1.89,2.11c-1.99,2.14-2.03,2.19-2.06,2.24-.24.36-.14.85.22,1.09.13.09.28.13.43.13.23,0,.45-.1.61-.29.11-.12.88-.96,1.85-2l1.87,2.09c.15.17.37.26.58.26.19,0,.37-.07.52-.2.32-.29.35-.78.06-1.11Z" />
    <path class="cls-5"
      d="M138.47,102.08l-1.97-2.19c.65-.7,1.32-1.42,1.89-2.03.3-.32.28-.81-.04-1.11-.32-.3-.81-.28-1.11.04-.7.75-1.29,1.38-1.8,1.93l-1.79-2c-.29-.32-.78-.35-1.11-.06-.32.29-.35.78-.06,1.11l1.89,2.11c-1.99,2.14-2.03,2.19-2.06,2.24-.24.36-.14.85.22,1.09.13.09.28.13.43.13.23,0,.45-.1.61-.29.11-.12.88-.96,1.85-2l1.87,2.09c.15.17.37.26.58.26.19,0,.37-.07.52-.2.32-.29.35-.78.06-1.11Z" />
    <path class="cls-6"
      d="M162.95,165.79c-19.54-2.21-34.41-15.79-42.99-39.27-6.43-17.58-7.11-34.74-7.11-34.91-.14-5.42,1.66-5.7,2.35-.08,0,.17.68,17.01,6.99,34.24,8.38,22.88,22.18,35.56,41.03,37.69l-.26,2.33Z" />
    <path class="cls-5"
      d="M162.95,166.12s-.03,0-.04,0c-19.68-2.23-34.64-15.88-43.27-39.49-6.47-17.69-7.13-34.84-7.13-35.01.02-.48.08-.92.14-1.39.15-1.2.3-2.43-.05-4.03-.04-.18.08-.36.26-.4.18-.04.36.07.4.26.37,1.71.21,3.06.06,4.26-.06.46-.11.89-.13,1.31,0,.14.66,17.19,7.09,34.78,8.49,23.22,23.14,36.7,42.38,39.01l.19-1.67c-18.82-2.26-32.6-15-40.98-37.87-6.35-17.33-7-34.17-7.01-34.34,0-.18.14-.34.32-.35.18,0,.34.14.35.32,0,.17.66,16.9,6.97,34.14,8.33,22.75,22.04,35.36,40.76,37.47.09.01.17.05.22.12.06.07.08.16.07.25l-.26,2.33c-.02.17-.16.3-.33.3Z" />
    <polygon class="cls-5" points="108.09 88.05 82.43 75.33 83.76 72.31 109.22 84.66 108.09 88.05" />
    <path class="cls-7"
      d="M163.61,163.44s-2.42-.4-2.76-.62c-.43-.28-.8-1.92-1.33-1.74-.53.18-2.81,5.17-1.2,5.39.55.08,1.11-.48,1.86-.48,1.4,0,2.98.51,2.98.51,0,0,3.32,7.1,4.37,6.88,1.05-.22-.59-6.04-.59-6.04,0,0,5.84,3.29,9.29,2.36,3.44-.93-6.17-3.94-6.91-4.19s12.83-.62,12.37-1.66-12.49-.23-12.49-.23c0,0,7.32-2.75,6.18-3.4-1.15-.65-11.75,3.21-11.75,3.21Z" />
    <path class="cls-5"
      d="M192.06,164.62c-2.34,0-6.66-4.29-7.49-5.13l-3.97-.53c-.54.42-1.62,1.16-2.22.79-.72-.45-.19-4.53.11-5.75.23-.94.5-1.35.88-1.38,1.03-.06,1.46,1.67,1.57,2.21.33.19,1.54.75,2.71,1.27.9-2.27,3.34-8.1,4.75-8.12.23,0,.43.1.56.28.64.88-.27,4.2-.82,5.94,5.66-2.51,12.2-5.11,12.84-4.02.06.1.11.26.04.47-.35,1.1-5.02,3.49-8.08,4.95,2.89-.48,7.24-1.04,8.28-.31.23.16.31.36.33.5.02.12,0,.32-.15.52-1.03,1.34-9.19,2.43-11.99,2.76,1.37,1.06,3.98,3.27,3.86,4.6-.02.25-.14.59-.6.81-.19.09-.4.13-.63.13ZM180.51,158.27s.03,0,.04,0l4.23.57c.07,0,.14.04.2.1,2.18,2.25,6.12,5.58,7.42,4.95.18-.09.21-.18.22-.27.08-.91-2.44-3.18-4.26-4.51-.11-.08-.16-.22-.13-.36.04-.13.15-.23.29-.25,5.76-.64,12.13-1.83,12.39-2.63-1.02-.7-6.9.16-10.39.86-.17.03-.33-.06-.38-.23-.05-.16.03-.34.18-.41,4.61-2.08,9.67-4.77,10.07-5.59-.86-.26-7.06,2.11-12.64,4.61-.12.05-.26.03-.36-.06-.1-.09-.13-.23-.09-.35.98-2.94,1.51-5.78,1.14-6.06-.62,0-2.58,3.68-4.27,8.02-.03.08-.1.15-.18.19-.08.03-.18.03-.26,0-3.34-1.47-3.36-1.56-3.4-1.77-.12-.7-.51-1.72-.85-1.79-.55.57-.95,5.17-.69,5.9.22.04.9-.32,1.52-.84.06-.05.14-.08.21-.08Z" />
    <path class="cls-5"
      d="M167.5,173.73c-1.14,0-3.33-4.26-4.59-6.94-.41-.12-1.64-.45-2.74-.45-.31-.02-.59.12-.87.24-.32.14-.66.28-1.03.23-.28-.04-.76-.22-.84-1.02-.14-1.44,1.29-4.78,1.98-5.01.6-.2.93.49,1.22,1.1.11.23.3.61.39.67.19.12,1.46.37,2.55.56,2.62-.95,10.78-3.82,11.95-3.15.2.11.31.3.29.5-.06.71-2.37,1.83-4.53,2.72,4.52-.25,10.28-.38,10.69.56.06.14.05.3-.03.43-.35.59-2.47.9-9.42,1.37-.62.04-1.24.09-1.77.13,6.56,2.24,6.54,3.13,6.53,3.53-.01.59-.75.79-.99.85-2.87.77-7.18-1.18-8.85-2.03.39,1.52,1.07,4.55.56,5.4-.13.21-.3.29-.42.31-.03,0-.06,0-.09,0ZM160.17,165.66h0c1.44,0,3.01.5,3.08.53.09.03.16.09.2.18,1.47,3.14,3.42,6.59,4.02,6.7.27-.3-.11-2.93-.87-5.62-.04-.13,0-.27.12-.35.11-.08.25-.09.37-.03.06.03,5.76,3.21,9.03,2.33.43-.12.5-.23.5-.23,0-.03-.13-.93-7.2-3.24l-.23-.08c-.15-.05-.27-.22-.25-.38q.05-.35,3.55-.6c2.5-.17,7.5-.52,8.69-.96-1.19-.38-6.81-.29-11.97.06-.19.01-.32-.1-.35-.26-.04-.16.05-.33.21-.38,2.56-.96,5.42-2.26,6-2.83-1.1-.13-6.48,1.5-11.34,3.27-.05.02-.11.03-.17.02-.75-.12-2.53-.43-2.89-.67-.26-.16-.43-.53-.63-.94-.11-.22-.29-.61-.42-.73-.47.49-1.76,3.37-1.49,4.45.06.22.15.25.24.26.18.02.41-.07.67-.19.32-.14.69-.3,1.13-.3Z" />
    <path class="cls-5"
      d="M27.46,149.6c-1.51,0-2.86-1.03-3.55-2.75-.07-.17.02-.37.19-.43.17-.07.37.02.43.19.49,1.23,1.67,2.57,3.37,2.29.19-.03.36.09.39.28.03.18-.09.36-.28.39-.19.03-.37.05-.55.05Z" />
    <path class="cls-5"
      d="M118.42,162.58c-.13,0-.25-.08-.31-.2-.07-.17,0-.37.18-.44,1.72-.73,2.34-1.61,2.09-2.93-.03-.18.09-.36.27-.39.18-.04.36.08.39.27.41,2.17-1.22,3.14-2.49,3.67-.04.02-.09.03-.13.03Z" />
    <path class="cls-5"
      d="M120.55,158.05c-.15,0-.29-.1-.33-.26,0,0-.05-.23-.08-.34-.02-.04-.04-.09-.04-.15,0-.17.12-.32.29-.35.31-.03.36.17.48.67.04.18-.07.36-.25.4-.03,0-.05,0-.08,0Z" />
    <path class="cls-5"
      d="M141.53,90.67l-.56,2.94-.05-3.12-.68-6.78c-.01-.83-.44-9.82-4-17.73-2.34-5.19-6.64-11.03-11.41-12.06-4.77-1.02-13.48.05-18.26,1.5-15.85,4.84-19.57,19.56-19.6,19.76.05-.3-2.34-.48-2.03-1.47.72-2.27,6.31-18.26,24.97-21.87,4.32-.83,11.16-1.24,15.2-.32,4.04.92,9.23,5.26,11.59,10.64,5.22,11.89,4.82,28.5,4.82,28.5Z" />
    <path class="cls-5"
      d="M113.03,94.33c-.05-.07-.7-.44-1.45-1.54-1.6-2.37-2.5-6.64-2.5-7.35l1.42-2.22c0,1.8,1.24,5.56,2.43,6.67.19.74.1,4.45.1,4.45Z" />
    <path class="cls-5"
      d="M115.52,94.22l-.32-2.51c3.99-2.5,6.12-13.28,4.13-19.18-1.22-3.6-3.36-3.03-4.12-2.96-8.88.83-11.21,14.59-11.24,14.72l-2.82-1.4c.13-.63,3.07-15.03,13.7-16.02,3.16-.29,5.91,1.2,7.08,4.65,2.14,6.35.31,19.52-6.4,22.69Z" />
    <path class="cls-5"
      d="M131.5,93.3s-.03.07-.05.11c-.41.87-4.69,1.21-5.2,1.12-.26-.05-.52-.14-.75-.26-.89-.45-1.57-1.25-1.36-1.46.03-.03.07-.07.13-.12.5-.43,2.11-1.55,4.56-1.65.78-.03,1.36.07,1.78.25,1.05.45,1.13,1.38.88,2Z" />
    <path class="cls-5"
      d="M126.42,94.87c-.11,0-.19,0-.22,0-1.14-.21-2.22-1.19-2.4-1.75-.09-.29.04-.47.1-.53.04-.04.09-.09.17-.15.3-.25,2-1.6,4.74-1.72.78-.03,1.42.06,1.93.28.53.22.91.59,1.09,1.06.18.46.15,1.03-.08,1.5h0c-.5,1.05-4.32,1.31-5.33,1.31ZM124.46,92.97c.16.31.96,1.07,1.85,1.23.63.11,4.55-.34,4.83-.93.15-.32.17-.68.06-.98-.11-.3-.36-.53-.72-.68-.41-.18-.97-.25-1.64-.22-2.53.1-4.07,1.33-4.35,1.57,0,0-.02.01-.03.02Z" />
    <path class="cls-7"
      d="M130.61,91.3c-.04.34-.17.7-.51.94-.82.56-2.44.11-2.44.11,0,0-.56.74-1.71.85-.88.08-1.39-.2-1.68-.49.5-.43,2.11-1.55,4.56-1.65.78-.03,1.36.07,1.78.25Z" />
    <path class="cls-2"
      d="M125.74,94.2c-.09.02-.16.05-.23.07.23.12.49.21.75.26.09.02.3.02.58,0-.03,1.03-.08,4.49.68,4.41.71-.07.74-3.23.72-4.53.23-.03.46-.06.69-.09-.01,1,.02,3.31.61,3.25.59-.06.48-2.44.41-3.45.75-.18,1.36-.41,1.5-.71.02-.04.03-.07.05-.11-1.04-.13-5.13.74-5.76.9Z" />
    <path class="cls-7"
      d="M90.85,70.01c-.95,2.37-3.31,3.53-4.75,2.95-.32-.13-.93-.37-.93-.37,0,0-.71-3.12.03-4.96.77-1.93,3.24-3.67,3.24-3.67,0,0,.82.31,1.09.42,1.44.58,2.27,3.27,1.33,5.64Z" />
    <path class="cls-5"
      d="M87.15,73.72c-.27,0-.54-.05-.8-.15-.33-.13-1.24-.64-1.34-.69l.33-.58c.27.15,1.02.56,1.27.66,1.25.5,3.03-.9,3.89-3.06.86-2.16.53-4.4-.72-4.9-.28-.11-1.02-.53-1.1-.58l.33-.58c.21.12.81.45,1.01.54,1.64.65,2.12,3.19,1.09,5.77-.87,2.18-2.49,3.59-3.96,3.59Z" />
    <path class="cls-3"
      d="M89.51,69.34c-.95,2.37-2.88,3.83-4.33,3.25s-1.85-2.96-.9-5.34,2.88-3.83,4.33-3.25c1.44.58,1.85,2.96.9,5.34Z" />
    <path class="cls-5"
      d="M85.86,73.06c-.27,0-.54-.05-.8-.15-1.64-.65-2.12-3.19-1.09-5.77,1.03-2.58,3.12-4.09,4.76-3.44,1.64.65,2.12,3.19,1.09,5.77h0c-.87,2.18-2.49,3.59-3.96,3.59ZM87.95,64.22c-1.18,0-2.61,1.3-3.35,3.16-.86,2.16-.53,4.4.72,4.9,1.25.5,3.03-.91,3.89-3.06.86-2.16.53-4.4-.72-4.9-.17-.07-.35-.1-.54-.1Z" />
    <path class="cls-7"
      d="M107.7,77.46c-.95,2.37-3.31,3.53-4.75,2.95-.32-.13-.93-.37-.93-.37,0,0-.71-3.12.03-4.96.77-1.93,3.24-3.67,3.24-3.67,0,0,.82.31,1.09.42,1.44.58,2.27,3.27,1.33,5.64Z" />
    <path class="cls-5"
      d="M103.99,81.18c-.27,0-.54-.05-.8-.15-.33-.13-1.24-.64-1.34-.69l.33-.58c.27.15,1.02.56,1.27.66,1.25.5,3.03-.9,3.89-3.06.43-1.09.59-2.21.43-3.16-.15-.89-.56-1.51-1.14-1.74-.28-.11-1.02-.53-1.1-.58l.33-.58c.21.12.81.45,1.01.54.81.32,1.36,1.12,1.55,2.25.18,1.07.02,2.32-.46,3.52-.87,2.18-2.49,3.59-3.96,3.59Z" />
    <path class="cls-3"
      d="M106.36,76.8c-.95,2.37-2.88,3.83-4.33,3.25s-1.85-2.96-.9-5.34c.95-2.37,2.88-3.83,4.33-3.25s1.85,2.96.9,5.34Z" />
    <path class="cls-5"
      d="M102.71,80.51c-.27,0-.54-.05-.8-.15-1.64-.65-2.12-3.19-1.09-5.77,1.03-2.58,3.12-4.09,4.76-3.44,1.64.65,2.12,3.19,1.09,5.77h0c-.87,2.18-2.49,3.59-3.96,3.59ZM104.79,71.67c-1.18,0-2.61,1.3-3.35,3.17-.86,2.16-.53,4.4.72,4.9,1.25.5,3.03-.91,3.89-3.06h0c.86-2.16.53-4.4-.72-4.9-.17-.07-.35-.1-.54-.1Z" />
    <path class="cls-5"
      d="M27.66,153.26s-.06,0-.09-.01c-1.76-.49-3.42-1.25-3.49-1.29-.17-.08-.24-.28-.16-.44.08-.17.28-.24.44-.16.02,0,1.68.77,3.39,1.25.18.05.28.23.23.41-.04.15-.18.25-.32.25Z" />
    <path class="cls-5"
      d="M123.53,161.96c-.07,0-.13-.02-.19-.06-.15-.11-.19-.32-.08-.47.92-1.29.92-3.2.92-3.22,0-.18.15-.34.33-.34h0c.18,0,.33.15.33.33,0,.09,0,2.13-1.04,3.61-.07.09-.17.14-.27.14Z" />
    <path class="cls-5"
      d="M80.76,92.27c-.08,0-.15-.03-.22-.08-1.39-1.18-1.88-2.5-1.9-2.55-.06-.17.03-.36.2-.43.17-.06.37.03.43.2,0,.01.45,1.21,1.7,2.27.14.12.16.33.04.47-.07.08-.16.12-.26.12Z" />
    <path class="cls-5"
      d="M86.22,96.16c-.19,0-.33-.15-.33-.33,0-12.07,4.66-17.79,4.86-18.03.12-.14.33-.16.47-.04.14.12.16.33.04.47-.05.06-4.71,5.8-4.71,17.6,0,.18-.15.33-.33.33h0Z" />
  </g>
</svg>