<?xml version="1.0" encoding="UTF-8"?>
<svg id="Capa_2" xmlns="http://www.w3.org/2000/svg" viewBox="0 0 173.52 178.18">
  <defs>
    <style>
      .cls-1 {
        fill: #008cff;
      }

      .cls-2 {
        fill: #00ffdb;
      }

      .cls-3 {
        fill: #7a00ba;
      }

      .cls-4 {
        fill: #fff;
      }

      .cls-5 {
        fill: #fffde6;
      }

      .cls-6 {
        fill: #fe0;
      }

      .cls-7 {
        fill: #ff387f;
      }
    </style>
  </defs>
  <g id="layer_1">
    <path class="cls-4"
      d="M172.85,139.38s.04-.08.06-.12c.12-.23.23-.46.32-.7.02-.04.04-.09.05-.13.09-.27.15-.54.19-.82,0-.04.01-.09.02-.13.04-.29.04-.58.03-.88,0-.01,0-.03,0-.04,0-.02,0-.04,0-.06-.02-.29-.07-.59-.14-.87,0-.04-.02-.07-.03-.11-.04-.13-.07-.26-.12-.38L123.05,3.18c-.72-1.9-2.58-3.18-4.61-3.18-.1,0-.27,0-.36.01L16.08,7.52c-.08,0-.16.02-.24.03-.08,0-.16.02-.24.03-.18.03-.35.07-.52.12-.08.02-.16.05-.23.07-.16.05-.32.11-.47.18-.08.04-.16.08-.24.12-.11.06-.22.12-.33.19-.08.05-.16.1-.24.16-.1.07-.2.16-.3.24-.08.07-.17.14-.25.22-.13.12-.25.25-.36.39-.06.08-.12.16-.18.24-.05.06-.1.12-.14.19-.03.04-.05.09-.08.13-.05.07-.09.15-.13.22-.09.17-.17.33-.25.51,0,.02-.02.04-.03.06l-.02.05s-.01.03-.02.05L.35,39.75c-.42,1.07-.46,2.27-.1,3.37l15.79,47.71s0,.03,0,.04l7.68,23.2s0,.03.01.05l20.09,60.67c.02.07.05.12.08.19.05.14.11.28.18.42.05.1.11.2.16.3.04.07.07.13.11.2.03.05.08.1.11.15.05.08.11.15.17.23.1.12.2.24.3.35.05.06.1.12.16.17.34.33.72.6,1.13.82.05.03.11.05.16.08.16.08.32.14.49.2.07.02.14.05.21.07.16.05.33.09.5.12.07.01.14.03.21.04.24.03.48.06.72.06.23,0,.46-.02.74-.05l101.72-15.37c1.16-.17,2.22-.75,2.98-1.63l18.34-20.97s.03-.04.04-.06c.18-.21.35-.44.49-.68,0,0,0-.02.01-.03Z" />
    <path class="cls-2"
      d="M119.48,7.7l-1.04-2.76L16.44,12.44l2.05,6.17,12.2,36.66,2.02,6.08,2.02,6.06,2.02,6.06h0s2.01,6.08,2.01,6.08l4.04,12.12,2.02,6.06,17.95,53.96.66-.09,2.59-.36,102.55-14.34L119.48,7.7ZM141.41,84.15l-2.74.34-86.68,10.51L27.73,22.2l-.87-2.63,87.73-6.84,26.82,71.43ZM90.86,119.11l-5.62.87,2.19,6.7-1.73,2.83-10.09,1.71-2.82-8.9-8.85,1.42-3.32-9.93,1.38-3.35,6.75-.96-1.72-5.36,1.41-3.43,9.97-1.58,2.8,8.57,8.71-1.25,2.97,9.6-2.03,3.08ZM106.97,139.41l-1.36.16c-.6.07-1.17-.29-1.38-.87l-1.73-5.01c-.27-.8.26-1.63,1.08-1.72l1.36-.16c.6-.08,1.19.29,1.38.86l1.73,5.02c.27.78-.25,1.62-1.08,1.72ZM113.02,138.38l-1.36.17c-.61.07-1.19-.3-1.38-.87l-1.75-5.01c-.26-.8.26-1.63,1.08-1.72l1.36-.17c.61-.07,1.19.3,1.38.87l1.73,5.01c.27.8-.25,1.63-1.07,1.72ZM119.06,137.37l-1.36.16c-.61.08-1.19-.29-1.38-.86l-1.73-5.02c-.27-.78.25-1.62,1.08-1.72l1.36-.16c.6-.07,1.17.29,1.38.87l1.73,5.01c.27.78-.26,1.63-1.08,1.72ZM125.1,136.35l-1.36.16c-.6.08-1.17-.29-1.38-.86l-1.73-5.02c-.27-.78.26-1.62,1.08-1.72l1.36-.16c.61-.08,1.19.29,1.38.86l1.73,5.02c.27.78-.25,1.62-1.08,1.72ZM124.41,116.98l.04.1c-9.19,6.86-19.97-8.53-7.84-14.24l.04.08c.33-.14.66-.27,1.03-.38,3.85-1.08,8.27,1.36,9.87,5.44,1.47,3.73.07,7.56-3.14,9ZM142.03,105.28c-9.19,6.86-19.97-8.53-7.84-14.24l.04.08c.33-.14.66-.27,1.03-.38,3.85-1.08,8.27,1.36,9.87,5.44,1.47,3.73.07,7.56-3.14,9l.04.1Z" />
    <path class="cls-4"
      d="M52.73,96.41l90.62-11.03L115.95,12.61s-1.61-.03-1.36.11c.25.14,26.15,71.29,26.15,71.29l-88.76,10.98.74,1.41Z" />
    <polygon class="cls-1" points="30.69 55.27 18.8 83.5 6.2 45.38 4.93 41.57 16.44 12.44 18.49 18.61 30.69 55.27" />
    <polygon class="cls-4"
      points="66.04 151.24 66.79 153.49 65.14 156.83 63.44 151.6 18.68 20.27 17.42 17.36 5.85 44.79 4.93 41.57 16.44 12.44 118.43 4.93 119.48 7.7 20.2 14.7 66.04 151.24" />
    <polygon class="cls-6"
      points="138.67 84.49 92.63 90.07 62.71 93.69 51.98 94.99 27.73 22.2 85.92 17.66 107.7 15.95 112.78 15.56 138.67 84.49" />
    <path class="cls-5"
      d="M110.53,42.36c-.33,3.99-1.79,8-3.29,11.98-4.51,11.94-9.49,23.84-14.61,35.72l-29.92,3.62c6.41-10.76,12.25-21.62,18.08-32.46,2.37-4.42,4.76-8.88,5.85-13.4.13-.57.23-1.2-.21-1.63-.51-.48-1.55-.51-2.49-.43-4.41.4-8.44,2.54-12.71,3.78-.9.26-1.97.47-2.66.12-.68-.35-.66-1.09-.56-1.73.74-4.59,3.52-9.11,6.38-13.51,3.65-5.63,7.5-11.22,11.52-16.77l21.79-1.71c-2.52,3.43-5.23,6.81-8.11,10.12-4.46,5.12-9.35,10.13-12.84,15.51,5.11-.98,10.21-1.97,15.31-2.95,2.61-.51,5.71-.94,7.38.29,1.13.83,1.2,2.19,1.1,3.44Z" />
    <polygon class="cls-7" points="68.44 100.7 71.16 109.14 68.75 109.49 67.03 104.13 68.44 100.7" />
    <polygon class="cls-7" points="92.89 116.04 90.86 119.11 85.24 119.99 84.42 117.47 92.89 116.04" />
    <polygon class="cls-4"
      points="85.24 119.99 87.43 126.69 79.11 128.1 77.39 128.38 74.98 120.94 74.41 119.17 66.98 120.42 65.24 120.7 62 110.46 68.75 109.49 71.16 109.14 68.44 100.7 78.41 99.13 78.98 100.89 81.21 107.69 82.93 107.44 89.92 106.44 90.46 108.18 92.89 116.04 84.42 117.47 85.24 119.99" />
    <polygon class="cls-7"
      points="85.24 119.99 87.43 126.69 79.11 128.1 77.04 127.91 74.98 120.94 67.54 122.19 66.98 120.42 64.29 111.94 71.04 110.98 73.46 110.63 70.73 102.19 78.98 100.89 81.21 107.69 82 109.45 83.51 109.18 90.46 108.18 92.89 116.04 84.42 117.47 85.24 119.99" />
    <polygon class="cls-7"
      points="87.43 126.69 85.7 129.52 75.61 131.22 72.79 122.32 63.94 123.74 60.61 113.81 62 110.46 65.24 120.7 74.41 119.17 77.39 128.38 87.43 126.69" />
    <path class="cls-7"
      d="M124.41,116.98l.04.1c-9.19,6.86-19.97-8.53-7.84-14.24l.04.08c-3.13,1.47-4.48,5.25-3.04,8.94,1.62,4.08,6.04,6.52,9.88,5.44.31-.09.63-.2.91-.33Z" />
    <path class="cls-7"
      d="M141.99,105.18l.04.1c-9.19,6.86-19.97-8.53-7.84-14.24l.04.08c-3.13,1.47-4.48,5.25-3.04,8.94,1.62,4.08,6.04,6.52,9.88,5.44.31-.09.63-.2.91-.33Z" />
    <path class="cls-7"
      d="M124.41,116.98c-.29.13-.6.23-.91.33-1.59.44-3.27.3-4.81-.33-2.2-.89-4.12-2.71-5.07-5.11-1.45-3.69-.09-7.47,3.04-8.94.33-.14.66-.27,1.03-.38,3.85-1.08,8.27,1.36,9.87,5.44.03.07.05.12.07.18,1.36,3.68-.05,7.41-3.21,8.81Z" />
    <path class="cls-4"
      d="M127.61,108.16c.01.66-.08,1.29-.38,1.83-.53-1.41-.95-2.69-2.13-3.74-1.47-1.33-3.53-1.86-5.49-1.73-2.46.16-4.18,2.07-4.35,4.48-.17,2.26.78,4.58,2.02,6.4.42.6.89,1.11,1.39,1.58-2.2-.89-4.12-2.71-5.07-5.11-1.45-3.69-.09-7.47,3.04-8.94.33-.14.66-.27,1.03-.38,3.85-1.08,8.27,1.36,9.87,5.44.03.07.05.12.07.18Z" />
    <path class="cls-7"
      d="M145.13,96.18c1.47,3.73.07,7.56-3.14,9-.29.13-.6.23-.91.33-3.85,1.08-8.27-1.36-9.88-5.44-1.45-3.69-.09-7.47,3.04-8.94.33-.14.66-.27,1.03-.38,3.85-1.08,8.27,1.36,9.87,5.44Z" />
    <path class="cls-4"
      d="M145.43,96.66c.01.66-.08,1.29-.38,1.83-.53-1.41-.95-2.69-2.13-3.74-1.47-1.33-3.53-1.86-5.49-1.73-2.46.16-4.18,2.07-4.35,4.48-.17,2.26.78,4.58,2.02,6.4.42.6.89,1.11,1.39,1.58-2.2-.89-4.12-2.71-5.07-5.11-1.45-3.69-.09-7.47,3.04-8.94.33-.14.66-.27,1.03-.38,3.85-1.08,8.27,1.36,9.87,5.44.03.07.05.12.07.18Z" />
    <path class="cls-1"
      d="M168.59,136.9l-18.34,20.98-21.33,3.22,5.91-7.41c.74-.93-.04-2.27-1.21-2.1l-47.34,7.13c-1.37.2-2.59.94-3.42,2.06l-6.06,8.19-28.28,4.28,14.26-21.55,105.81-14.8Z" />
    <polygon class="cls-1"
      points="114.59 12.72 141.41 84.15 138.67 84.49 112.78 15.56 27.73 22.2 26.86 19.56 114.59 12.72" />
    <path class="cls-1"
      d="M133.61,151.59c1.17-.17,1.96,1.17,1.21,2.1l-5.91,7.41-52.12,7.87,6.06-8.19c.82-1.12,2.05-1.86,3.42-2.06l47.34-7.13Z" />
    <path class="cls-3"
      d="M126.18,134.63c.27.78-.25,1.62-1.08,1.72l-1.36.16c-.6.08-1.17-.29-1.38-.86l-1.73-5.02c-.27-.78.26-1.62,1.08-1.72l1.36-.16c.61-.08,1.19.29,1.38.86l1.73,5.02Z" />
    <path class="cls-3"
      d="M120.14,135.64c.27.78-.26,1.63-1.08,1.72l-1.36.16c-.61.08-1.19-.29-1.38-.86l-1.73-5.02c-.27-.78.25-1.62,1.08-1.72l1.36-.16c.6-.07,1.17.29,1.38.87l1.73,5.01Z" />
    <path class="cls-3"
      d="M114.09,136.66c.27.8-.25,1.63-1.07,1.72l-1.36.17c-.61.07-1.19-.3-1.38-.87l-1.75-5.01c-.26-.8.26-1.63,1.08-1.72l1.36-.17c.61-.07,1.19.3,1.38.87l1.73,5.01Z" />
    <path class="cls-3"
      d="M108.06,137.69c.27.78-.25,1.62-1.08,1.72l-1.36.16c-.6.07-1.17-.29-1.38-.87l-1.73-5.01c-.27-.8.26-1.63,1.08-1.72l1.36-.16c.6-.08,1.19.29,1.38.86l1.73,5.02Z" />
    <polygon class="cls-1" points="44.83 97.73 62.78 151.69 48.52 173.24 32.28 124.2 44.83 97.73" />
    <path class="cls-3"
      d="M118.64,65.3c.1-.13.22-.27.33-.42,1.23-1.71,1.38-3.73.44-5.71-1.03-2.16-3.22-4.04-6.01-5.18-3.29-1.33-5.67-1.13-8.19-.93-.31.03-.47.04-.78.07-.73.07-1.1.09-1.83.14.07.14.12.3.17.44,2.48,6.3,3.96,10.09,6.13,15.59.46,1.17.95,2.42,1.49,3.79,1.41-.17,2.13-.25,3.53-.4-.74-1.89-1.11-2.83-1.85-4.72,1.28-.08,2.67-.34,3.94-.87,2.05,2.13,3.29,3.4,5.54,5.72,1-.8,1.5-1.19,2.49-1.98-2.19-2.26-3.43-3.53-5.4-5.55ZM110.66,64.42c-1.24-3.14-1.85-4.72-3.09-7.86,1.8-.14,3.29-.12,5.21.65,1.53.63,2.72,1.59,3.21,2.58.39.85.27,1.71-.35,2.58-.98,1.34-3.13,1.97-4.98,2.05Z" />
    <path class="cls-3"
      d="M116.77,48.97c-.52-1.42-.8-2.13-1.32-3.55-3.9.3-5.85.44-9.75.73-.72-1.79-1.3-3.25-1.85-4.63,2.52-.22,4.12-.37,6.95-.6-.55-1.42-.82-2.14-1.37-3.55-2.84.23-4.45.37-7,.59h-.01c-.5-1.24-1.04-2.58-1.68-4.17,3.81-.22,5.71-.34,9.52-.55-.51-1.42-.77-2.14-1.29-3.55-5.28.29-7.93.44-13.22.73,3.13,7.82,4.69,11.73,7.82,19.56,5.29-.4,7.93-.61,13.21-1.02Z" />
    <path class="cls-3"
      d="M97.65,70.73c-.76-1.92-1.38-3.49-1.97-4.98,2.54-.26,4.16-.42,7-.7-.55-1.42-.82-2.14-1.37-3.57-2.87.27-4.48.44-7.04.68-.53-1.34-1.1-2.78-1.77-4.5,3.82-.27,5.74-.4,9.56-.66-.38-1.07-.63-1.75-.94-2.62-.1-.29-.21-.61-.34-.96-3.65.25-6.05.4-8.9.6-1.3.09-2.7.18-4.37.3.08.21.16.42.23.61,3.04,7.73,4.63,11.8,7.76,19.73,5.31-.48,7.95-.72,13.26-1.19-.52-1.43-.78-2.14-1.32-3.57-3.91.34-5.87.51-9.79.85Z" />
    <path class="cls-3"
      d="M83.79,51.29c1.42-.12,2.14-.18,3.56-.3-1.86-5.01-2.79-7.52-4.65-12.53,3.39,5.1,5.08,7.65,8.47,12.74.2-.01.37-.03.53-.04,1.06-.08,1.73-.13,2.93-.22-.4-5.35-.61-8-1.03-13.32,1.9,4.98,2.86,7.48,4.76,12.46,1.42-.13,2.13-.2,3.55-.33-2.89-7.56-4.34-11.34-7.25-18.92-2.11.04-3.17.05-5.28.08.4,5.31.61,7.97,1.02,13.28-3.35-5.01-5.02-7.52-8.36-12.55-2.19.04-3.29.05-5.48.09,2.84,7.67,4.28,11.58,7.05,19.09.05.16.12.31.17.47Z" />
    <path class="cls-3"
      d="M83.23,54.36c.35,7.11.52,10.68.85,17.82h-.09c-4.69-6.81-7.03-10.22-11.69-17.08-1.21.55-1.81.81-3.01,1.36,1.49,2.19,2.78,4.08,3.96,5.83,3.09,4.52,5.55,8.12,9.41,13.75,2.14-.18,3.21-.29,5.33-.47-.38-8.19-.57-12.26-.96-20.38-1.51-.34-2.27-.5-3.79-.83Z" />
    <path class="cls-3"
      d="M69.36,53.33c-.05-1.77-.1-3.3-.14-4.72,3.05-.2,5.07-.33,7.98-.52.91,1.3,1.9,2.7,3.04,4.3,1.19-.56,1.79-.85,2.96-1.41-5.2-7.33-7.8-11-12.99-18.38-2.1.14-3.14.21-5.24.35.25,7.77.37,11.67.6,19.49,1.53.35,2.28.53,3.79.89ZM68.96,36.39c2.29,3.27,4.02,5.71,5.75,8.16-1.94.12-3.57.22-5.61.35-.08-2.56-.16-5.1-.27-8.5.05,0,.08,0,.13-.01Z" />
    <path class="cls-3"
      d="M72.47,62.82c-1.5-2.35-3.6-4.39-6.01-5.71-1.62-.9-3.21-1.37-4.69-1.42-1.64-.08-3.14.35-4.39,1.3-1.75,1.33-2.65,3.48-2.65,6,0,2.1.63,4.45,1.9,6.75,1.64,2.97,4.08,5.32,6.88,6.61,1.85.85,3.69,1.2,5.33,1.06,1.07-.09,2.06-.4,2.92-.93,2.37-1.45,3.45-4.29,2.95-7.81-.29-2.01-1.08-4.03-2.24-5.85ZM69.19,73.24c-1.26.77-2.99.72-4.85-.14-1.79-.82-3.36-2.37-4.47-4.35-1.63-2.95-2.05-6.87.29-8.63,1.84-1.4,4.03-.55,5.18.07,2.41,1.33,5.08,4.32,5.62,8.03.33,2.32-.31,4.16-1.76,5.03Z" />
    <path class="cls-3"
      d="M57.28,53.77c1.96-.14,3.21-.83,4-1.62.18.47.36.95.57,1.5,1.41-.14,2.11-.22,3.53-.37-.09-.23-.17-.47-.25-.68-1.02-2.63-1.6-4.18-2.66-6.99-.01-.03-.03-.07-.04-.1-.22-.68-.34-1.04-.56-1.75-3.43.17-5.14.26-8.57.44.48,1.46.73,2.2,1.23,3.66,1.8-.09,2.7-.14,4.51-.25-.07.44-.21.83-.43,1.17-.56.85-1.56,1.3-3,1.33-2.62.05-4.55-1.96-5.46-3.17-2.06-2.71-2.87-6.32-1.85-8.19.86-1.59,3.59-2.27,5.84-1.45,1.34.5,2.15,1.39,2.45,2.78,1.47.09,2.22.14,3.69.25-.64-2.93-2.79-5.33-5.76-6.41-3.9-1.43-8.14-.35-9.67,2.48-1.62,2.97-.57,8.1,2.48,12.14,2.57,3.42,6,5.32,9.39,5.24.2,0,.38-.01.56-.03Z" />
    <polygon class="cls-1" points="42.81 91.67 44.83 97.73 32.28 124.2 30.36 118.38 42.81 91.67" />
    <polygon class="cls-1" points="40.78 85.61 42.81 91.67 30.36 118.38 28.43 112.57 28.43 112.56 40.78 85.61" />
    <polygon class="cls-1" points="38.76 79.55 40.78 85.61 28.43 112.56 26.51 106.75 38.76 79.55" />
    <polygon class="cls-1" points="36.76 73.48 38.76 79.55 26.51 106.75 24.58 100.94 36.76 73.48" />
    <polygon class="cls-1" points="36.76 73.47 36.76 73.48 24.58 100.94 22.66 95.14 34.74 67.41 36.76 73.47" />
    <polygon class="cls-1" points="32.72 61.35 34.74 67.41 22.66 95.14 20.73 89.32 20.73 89.31 32.72 61.35" />
    <polygon class="cls-1" points="30.69 55.27 32.72 61.35 20.73 89.31 18.8 83.5 30.69 55.27" />
    <path class="cls-3"
      d="M62.78,152.67c-.42,0-.79-.27-.93-.67l-26.02-78.21s-.02-.06-.02-.09L15.52,12.75c-.1-.29-.05-.6.11-.85.17-.25.44-.41.74-.43L118.36,3.96c.43-.03.83.22.99.63l50.15,131.96c.11.28.08.59-.07.85-.15.26-.41.43-.71.47l-105.81,14.8s-.09,0-.14,0ZM37.71,73.25l8.04,24.17,17.7,53.19,103.79-14.51L117.78,5.96,17.77,13.33l19.92,59.83s.02.06.03.09Z" />
    <path class="cls-3"
      d="M48.52,174.22c-.33,0-.64-.17-.82-.45-.21-.33-.2-.74,0-1.07l14.26-21.55c.3-.45.91-.57,1.36-.28.45.3.57.9.28,1.36l-13.05,19.71,99.2-14.99,18.11-20.71c.35-.41.97-.45,1.38-.09.41.36.45.97.09,1.38l-18.34,20.98c-.15.17-.36.29-.59.32l-101.73,15.37s-.1.01-.15.01Z" />
    <path class="cls-3"
      d="M20.73,90.29c-.41,0-.79-.26-.93-.67L4,41.88c-.07-.22-.07-.45.02-.67L15.54,12.08c.2-.5.77-.75,1.27-.55.5.2.75.77.55,1.27l-11.38,28.8,15.69,47.4c.17.51-.11,1.07-.62,1.24-.1.03-.21.05-.31.05Z" />
    <path class="cls-3"
      d="M28.43,113.53c-.41,0-.79-.26-.93-.67l-7.69-23.23c-.17-.51.11-1.07.62-1.24.51-.17,1.07.11,1.24.62l7.69,23.23c.17.51-.11,1.07-.62,1.23-.1.03-.21.05-.31.05Z" />
    <path class="cls-3"
      d="M48.52,174.22c-.41,0-.79-.26-.93-.67l-20.09-60.67c-.17-.51.11-1.07.62-1.24.51-.17,1.07.11,1.24.62l20.09,60.68c.17.51-.11,1.07-.62,1.24-.1.03-.21.05-.31.05Z" />
    <path class="cls-3"
      d="M138.67,85.14c-.32,0-.61-.24-.65-.57-.04-.36.21-.68.57-.73l1.92-.24L114.15,13.41l-86.41,6.74.61,1.84c.11.34-.07.71-.41.82-.34.11-.71-.07-.82-.41l-.87-2.63c-.06-.19-.04-.4.08-.57.11-.17.29-.27.49-.29l87.73-6.84c.3-.02.56.15.66.42l26.82,71.43c.07.19.05.4-.05.57-.1.17-.28.29-.48.31l-2.74.34s-.05,0-.08,0Z" />
    <path class="cls-3"
      d="M51.98,95.65c-.28,0-.53-.18-.62-.45L27.12,22.4c-.06-.19-.04-.4.08-.57.11-.17.29-.27.49-.29l85.04-6.64c.29-.02.56.15.66.42l25.89,68.93c.07.19.05.4-.05.57-.1.17-.28.29-.48.31l-86.68,10.51s-.05,0-.08,0ZM28.62,22.78l23.82,71.5,85.33-10.34-25.43-67.69-83.72,6.53Z" />
    <path class="cls-3"
      d="M121.63,118.21c-3.57,0-7.17-2.43-8.63-6.1-1.55-3.94-.1-8.14,3.37-9.77,0,0,0,0,.01,0,.35-.16.72-.3,1.11-.41,4.16-1.17,8.93,1.44,10.66,5.82,1.58,4.01.09,8.23-3.48,9.83-.31.14-.65.26-1,.36-.67.19-1.36.28-2.04.28ZM116.92,103.51c-2.88,1.36-4.01,4.77-2.7,8.11,1.5,3.77,5.58,6.04,9.1,5.05.28-.08.56-.17.82-.29,2.92-1.31,4.13-4.82,2.81-8.16-1.49-3.78-5.56-6.04-9.09-5.05-.33.09-.64.21-.94.34Z" />
    <path class="cls-3"
      d="M119.55,119.46c-1.28,0-2.56-.31-3.78-.93-3.18-1.63-5.28-5.01-5.22-8.42.06-3.32,2.1-6.1,5.76-7.83.04-.03.08-.05.11-.06.33-.14.72,0,.87.32.15.32.02.7-.3.86,0,0,0,0,0,0-.03.02-.06.04-.09.05-3.2,1.51-4.99,3.88-5.04,6.69-.05,2.88,1.81,5.86,4.51,7.24,1.46.75,4.41,1.64,7.7-.8.29-.21.7-.16.91.13.22.29.16.7-.13.91-1.65,1.23-3.47,1.85-5.29,1.85Z" />
    <path class="cls-3"
      d="M139.22,106.41c-3.57,0-7.17-2.43-8.63-6.1-1.55-3.94-.1-8.14,3.37-9.77,0,0,.01,0,.02,0,.35-.16.72-.3,1.11-.41,4.15-1.17,8.93,1.45,10.65,5.82,1.58,4.01.09,8.23-3.48,9.83-.31.14-.65.26-.99.36-.67.19-1.36.28-2.05.28ZM134.51,91.72c-2.88,1.36-4.01,4.77-2.7,8.11,1.49,3.77,5.57,6.04,9.1,5.05.28-.08.56-.17.82-.29,2.92-1.31,4.13-4.82,2.81-8.16-1.48-3.78-5.56-6.04-9.09-5.05-.33.09-.64.21-.94.34Z" />
    <path class="cls-3"
      d="M137.13,107.66c-1.28,0-2.56-.31-3.78-.93-3.18-1.63-5.28-5.01-5.22-8.42.06-3.32,2.1-6.1,5.76-7.83.04-.03.08-.05.11-.06.32-.14.71-.01.87.31.15.32.04.7-.28.86,0,0-.01,0-.02.01-.03.02-.06.04-.09.05-3.2,1.51-4.99,3.88-5.04,6.69-.05,2.88,1.81,5.86,4.51,7.24,1.46.75,4.41,1.64,7.7-.81.29-.21.7-.16.91.13.22.29.16.7-.13.91-1.65,1.23-3.47,1.85-5.29,1.85Z" />
    <path class="cls-3"
      d="M77.39,129.03c-.28,0-.53-.18-.62-.45l-2.81-8.68-8.61,1.44c-.32.05-.63-.14-.73-.45l-3.25-10.25c-.06-.18-.03-.38.07-.54.1-.16.27-.27.46-.3l8.4-1.2-2.49-7.7c-.06-.18-.04-.38.06-.54.1-.16.27-.27.45-.3l9.97-1.58c.32-.05.62.14.72.44l2.63,8.05,8.17-1.17c.31-.04.62.15.72.45l2.97,9.6c.06.18.03.37-.07.53-.1.16-.26.27-.45.3l-7.73,1.31,2.78,8.5c.06.18.04.38-.06.54-.1.16-.26.27-.45.31l-10.04,1.69s-.07,0-.11,0ZM74.41,118.51c.28,0,.53.18.62.45l2.81,8.68,8.74-1.48-2.78-8.5c-.06-.18-.04-.38.06-.54.1-.16.26-.27.45-.31l7.74-1.31-2.59-8.35-8.16,1.17c-.31.05-.61-.14-.71-.44l-2.63-8.04-8.67,1.37,2.49,7.71c.06.18.04.38-.07.54-.1.16-.27.27-.46.3l-8.41,1.21,2.84,8.97,8.61-1.44s.07,0,.11,0Z" />
    <path class="cls-3"
      d="M68.74,110.17c-.27,0-.51-.16-.6-.43l-1.74-5.4c-.05-.15-.04-.3.02-.45l1.41-3.43c.14-.33.52-.49.85-.36.33.14.49.52.36.85l-1.32,3.21,1.65,5.13c.11.34-.07.73-.41.84-.07.02-.14.03-.21.03Z" />
    <path class="cls-3"
      d="M75.61,131.88c-.28,0-.53-.18-.62-.46l-2.65-8.37-8.3,1.33c-.31.05-.62-.13-.72-.44l-3.32-9.93c-.05-.15-.04-.31.02-.46l1.38-3.35c.14-.33.52-.49.85-.35.33.14.49.52.35.85l-1.29,3.13,3.07,9.18,8.31-1.33c.31-.05.63.14.72.45l2.64,8.36,9.24-1.56,1.58-2.58c.19-.31.59-.4.9-.22.31.19.4.59.22.9l-1.73,2.83c-.1.16-.26.27-.45.3l-10.09,1.71s-.07,0-.11,0Z" />
    <path class="cls-3"
      d="M85.24,120.64c-.32,0-.62-.22-.67-.53-.06-.35.14-.68.48-.75l5.42-.85,1.88-2.84c.2-.3.6-.38.9-.18.3.2.38.6.18.9l-2.03,3.08c-.1.15-.26.26-.44.28l-5.62.87s-.07,0-.1,0Z" />
    <path class="cls-3"
      d="M76.79,169.62c-.14,0-.27-.04-.39-.13-.29-.21-.35-.62-.14-.91l6.06-8.19c.93-1.27,2.3-2.1,3.85-2.32l47.33-7.13c.81-.12,1.59.26,1.99.97.4.7.33,1.56-.18,2.18l-6.03,7.56c-.22.29-.63.34-.91.12-.29-.22-.34-.63-.12-.91l.13-.17,5.91-7.41c.26-.32.11-.63.06-.72-.05-.09-.25-.38-.67-.32l-47.33,7.13c-1.2.17-2.26.81-2.99,1.8l-6.06,8.19c-.13.17-.32.26-.52.26Z" />
    <path class="cls-3"
      d="M18.8,84.15c-.36,0-.65-.28-.65-.64h0c0-.1.02-.19.05-.27l11.89-28.23c.14-.33.52-.48.85-.35.33.14.49.52.35.85l-11.88,28.2c-.09.25-.33.43-.61.43Z" />
    <path class="cls-3"
      d="M20.73,89.97c-.36,0-.65-.28-.65-.65h0c0-.1.02-.19.05-.27l11.98-27.96c.14-.33.53-.49.86-.34.33.14.48.52.34.86l-11.97,27.94c-.09.25-.33.42-.61.42Z" />
    <path class="cls-3"
      d="M22.66,95.79c-.09,0-.18-.02-.26-.05-.33-.14-.48-.53-.34-.86l12.07-27.73c.14-.33.53-.48.86-.34.33.14.48.53.34.86l-12.07,27.73c-.11.25-.35.39-.6.39Z" />
    <path class="cls-3"
      d="M24.58,101.59c-.09,0-.18-.02-.26-.06-.33-.15-.48-.53-.33-.86l12.17-27.43c.1-.24.33-.42.61-.42.36,0,.65.29.65.65,0,.09-.02.19-.06.28l-12.18,27.46c-.11.24-.35.39-.6.39Z" />
    <path class="cls-3"
      d="M26.51,107.41c-.09,0-.18-.02-.27-.06-.33-.15-.47-.53-.33-.86l12.25-27.21c.15-.33.53-.47.86-.33.33.15.47.53.33.86l-12.25,27.21c-.11.24-.35.38-.6.38Z" />
    <path class="cls-3"
      d="M28.43,113.21c-.36,0-.65-.29-.65-.65h0c0-.11.02-.2.06-.29l12.36-26.95c.15-.33.54-.47.86-.32.33.15.47.54.32.86l-12.35,26.92c-.1.24-.33.41-.6.41Z" />
    <path class="cls-3"
      d="M30.35,119.04c-.09,0-.19-.02-.28-.06-.33-.15-.47-.54-.32-.87l12.45-26.71c.15-.33.54-.47.87-.32.33.15.47.54.32.87l-12.45,26.71c-.11.24-.35.38-.59.38Z" />
    <path class="cls-3"
      d="M32.28,124.85c-.09,0-.19-.02-.28-.06-.33-.15-.46-.54-.31-.87l12.54-26.47c.15-.32.54-.46.87-.31.33.15.46.54.31.87l-12.54,26.47c-.11.23-.35.37-.59.37Z" />
  </g>
</svg>