<?xml version="1.0" encoding="UTF-8"?><svg id="Capa_2" xmlns="http://www.w3.org/2000/svg" xmlns:xlink="http://www.w3.org/1999/xlink" viewBox="0 0 320.5 320.5"><defs><style>.cls-1{fill:#ded3ca;}.cls-2{fill:#231f20;}.cls-3{fill:#ff0f3f;}.cls-4{fill:#00dba1;}.cls-5{fill:#deba38;}.cls-6{fill:#fffefc;}.cls-7{fill:#770fff;}.cls-8{clip-path:url(#clippath);}</style><clipPath id="clippath"><polygon class="cls-1" points="142.36 112.74 141.46 113.73 139.77 113.41 138.43 113.68 138.04 115.75 136.66 116.04 135.15 115.29 133.9 115.71 132.63 116.07 131.5 117.09 129.92 116.8 128.64 117.34 127.64 118.36 126.99 119.49 126.15 120.65 125.96 122.11 124.76 123.17 125.79 124.79 124.21 125.9 124.82 127.39 124.94 129.08 123.75 130.26 121.59 129.73 121.15 131.43 119.97 132.13 120.29 133.6 119.58 134.73 118.34 135.67 118.2 136.93 118.53 138.61 120.7 139.17 119.46 141.12 120.71 142.1 121.92 143.09 122.02 144.51 121.87 145.99 122.15 147.39 122.77 148.77 122.78 150.19 122.17 151.65 122.56 153.15 121.71 154.44 120.04 155.19 120.32 156.96 118.99 157.9 119.6 159.09 120.46 158.99 121.82 159.84 123.37 159.51 126.47 160.12 130.09 158.64 134.19 158.54 135.88 158.13 141.54 157.66 136.13 159.36 133.61 161.24 131.47 161.33 126.82 161.95 125.19 162.22 124.83 163.89 123.11 164.08 122.05 164.97 120.99 165.88 121.07 167.36 120.99 168.82 122.4 169.09 123.9 169.26 125.5 170.15 125.15 172.18 123.61 173.68 123.8 175.37 123.57 177.26 125.69 177.12 126.85 178.62 128.39 179.23 129.89 179.72 131.07 180.83 130.83 182.21 130.62 183.58 131.34 184.85 130 186.81 132.05 186.97 132.92 188.43 134.89 187.88 135.88 189.21 137.5 189.91 138.94 188.96 140.44 188.65 141.64 189.35 142.31 190.48 144 191.17 145.33 192.18 146.39 193.13 147.51 192.88 148.61 192.06 150.33 192.34 151.16 191.03 152.22 189.57 153.49 190.86 154.63 191.75 156.23 191.48 157.32 192.55 158.88 191.9 160.23 192.12 161.56 192.46 162.63 193.97 164.29 193.26 165.76 193.33 167.01 194.16 168.14 194.03 169.66 194.11 170.34 192.32 172.43 192.61 173.48 191.76 174.27 193.03 175.8 193.61 177.97 193.2 178.73 195.55 180.41 194.3 182.18 194.18 183.5 192.7 184.88 193.51 186.18 193.5 187.47 192.16 188.48 192.48 190.26 192.24 190.89 190.83 190.77 188.85 191.95 187.8 194.17 187.62 194.61 185.76 196.05 185.09 197.31 185.41 198.72 185.39 200.11 184.91 200.9 183.75 202.22 182.86 201.96 181.35 201.61 179.83 201.58 178.16 202.94 177.26 204.08 176.31 205.95 177 207.48 176.43 207.69 174.81 208.79 173.8 208.57 172.23 209.69 171.03 208.03 169.88 207.54 168.54 208.89 166.63 208.2 165.65 208.32 164.23 209.07 162.91 210.77 162.24 211.56 160.94 212.47 159.66 213.3 158.31 213.1 156.51 213.41 154.95 215.19 154.11 215.99 152.66 215.71 151.09 214.93 149.56 215.1 148.18 215.72 147.02 214.75 146.14 214.01 144.9 214.06 143.04 213.26 142.05 212.74 140.57 212.31 138.91 211.27 137.37 210.19 136.08 208.49 136.19 207.59 134.64 206.14 134.47 204.73 133.68 204.03 132.14 202.96 130.99 202.95 129.21 201.26 128.04 200.18 126.77 199.98 125.38 199.43 124.07 198.41 123.28 197.71 122.37 196.16 121.7 196.32 120.13 195.22 119.09 194.41 118.22 193.85 116.77 192.15 117.32 190.87 116.86 189.52 116.1 188.36 115 187.72 113.75 188.17 111.78 186.17 111.6 186.33 109.43 185 108.88 183.71 108.29 182.56 107.51 180.97 107.56 179.84 106.71 178.57 106.12 177.56 105.6 176.38 105.63 175.48 106.81 174.35 107.53 172.88 107.59 171.84 108.84 169.82 107.38 168.28 108.68 166.69 108.11 165.18 108.12 164.23 106.84 162.33 107.06 161.74 104.87 160.22 105.03 158.9 104.59 157.58 105.77 156.12 104.67 155.23 106.69 153.98 107.12 152.37 106.38 151.37 107.39 150.37 108.2 149.6 109.39 148.27 109.9 147.01 110.5 145.78 110.88 144.9 112.14 143.26 111.67 142.36 112.74"/></clipPath></defs><g id="Layer_1"><polygon class="cls-5" points="98.08 137.99 70.82 124.69 81.81 142.79 66.41 174.67 91.98 155.96 85.07 201.49 108.4 160.58 125.35 186.07 120.46 152.7 156.4 134.85 119.45 132.7 90.14 88.96 98.08 137.99"/><path class="cls-3" d="M94.95,112.6l15.46-33.99,3.17,36.64,36.17.16-21.81,11.23,16.19,29.65-28.86-11.5s-9.02,39.01-9.21,38.03c-.19-.98-2.21-38.45-2.21-38.45l-43.21,5.41,33.58-22.16-23.71-30.83,24.43,15.8Z"/><polygon class="cls-6" points="143.62 107.43 142.74 108.76 141.38 109.14 139.94 109.37 138.43 109.22 137.47 111.08 135.87 110.14 134.68 111.41 133.02 110.38 131.49 110.63 130.03 110.95 129.03 112.71 127.73 113.07 126 113.76 125.69 115.28 126.02 117.11 125.16 118.33 123.96 119.53 123.94 121.01 123.47 122.4 123.39 123.73 123.12 125.65 121.48 125.92 119.79 126.15 118.45 127.1 118.08 128.64 118.05 130.14 117.48 131.43 115.89 132.16 115.7 133.55 115.61 135.17 114.63 136.15 114.09 137.45 112.54 138.18 112.51 139.9 114.86 140.13 115.05 141.57 115.35 142.95 115.36 144.47 116.15 145.69 117 146.89 115.73 147.84 114.5 148.83 113.99 150.49 111.78 151.21 113.08 152.8 114.03 153.95 113.33 155.58 114.57 156.63 114.17 158.18 115.41 159.1 115.82 160.35 115.99 161.74 116.98 162.77 117.68 163.98 119.58 164.75 118.85 166.42 117.63 167.53 116.69 168.73 116.68 170.26 116.1 171.59 116.52 173.27 115.01 174.28 114.41 176.05 116.69 176.05 117.21 178.23 119.2 178.14 118.62 179.56 119.69 180.98 119.19 182.14 119.68 183.43 119.88 185.18 121.63 185.6 123.09 186.11 123.67 187.42 125.06 187.64 125.97 188.66 127.41 188.79 128.52 189.47 129.78 190.23 130.92 191.27 131.85 192.68 133.31 193.89 134.62 192 136.11 192.52 137.14 191.22 138.46 191.05 139.83 191.37 141.01 191.81 141.9 192.72 142.21 194.38 143.99 194.13 145.14 194.56 146.03 195.59 147.55 195.33 148.3 196.36 149.59 195.64 150.21 194.06 151.36 193.03 152.81 192.32 153.62 193.53 154.73 194.35 156.4 194.45 157.11 195.79 158 197.46 159.7 196.06 161.13 195.28 162.68 195.85 164.24 196.72 165.75 196.8 167.2 195.34 168.26 196.83 169.75 196.12 171.1 196.02 172.13 197.42 173.74 196.35 175.07 197.82 176.65 196.88 178.17 198.48 179.54 197.72 180.51 196.6 182.04 196.76 182.95 195.59 184.38 194.98 185.39 196.58 186.96 195.51 188.02 197.56 189.62 195.91 191.26 197.26 192.75 195.66 194.29 196.11 194.59 194.82 195.85 194.11 197.41 193.61 197.7 192.75 198.76 191.63 200.23 191.19 201.77 191.75 203.53 192.46 204.18 189.93 206.16 190.27 207.43 189.29 209.13 188.77 208.84 186.99 208.87 185.41 210.01 183.97 210.45 182.54 209.6 180.79 210.97 179.8 212.02 178.67 212.25 177.38 212.52 175.68 213.58 174.62 215.66 174.66 215.88 172.75 216.95 171.82 217.98 170.83 218.14 169.23 218.81 167.97 219.14 167.41 219.38 165.52 217.99 165.03 216.73 164.29 215.34 164.16 215.99 163.04 215.61 161.48 215.19 159.91 216.1 158.65 216.18 157.19 217.4 155.98 216.51 154.3 216.59 152.73 217.55 151.26 218.48 149.78 217.29 148.11 218.07 146.86 218.71 145.58 218.88 144.3 217.3 143.53 215.33 143 214.42 141.33 214.4 139.56 214.25 137.87 212.26 137.26 212.27 135.43 210.6 135.07 209.61 134.02 208.62 132.95 207.65 131.84 207.19 130.41 207.15 128.9 206.27 127.58 205.77 126.71 205.33 125.24 204.26 125.67 203.45 124.65 202.1 124.19 200.64 123.89 200.39 121.98 199.37 121.09 197 121.61 198.11 119.44 196.95 118.49 196.3 117.31 196.21 115.55 194.54 114.73 192.67 114.82 191.7 113.6 191.67 112.29 190.5 111.15 188.95 110.14 188.85 108.87 188.56 107.61 187.12 107.44 186.47 106.22 185.39 105.64 184.64 104.15 183.4 103.91 181.91 104.37 180.89 103.13 179.36 103.64 177.92 103.18 176.52 104.63 175.14 104.73 173.64 103.92 172.42 105.12 170.78 103.85 169.51 104 168.35 103.97 167.03 104.1 165.6 105.03 164.39 104.28 162.87 104.34 161.4 104.12 160.01 103.54 158.65 103.23 157.29 104.38 155.92 103.89 154.68 104 152.84 103.4 151.72 104.65 150.12 104.84 149.19 106.61 147.67 106.53 146.38 107.05 145.14 107.77 143.62 107.43"/><polygon class="cls-1" points="142.36 112.74 141.46 113.73 139.77 113.41 138.43 113.68 138.04 115.75 136.66 116.04 135.15 115.29 133.9 115.71 132.63 116.07 131.5 117.09 129.92 116.8 128.64 117.34 127.64 118.36 126.99 119.49 126.15 120.65 125.96 122.11 124.76 123.17 125.79 124.79 124.21 125.9 124.82 127.39 124.94 129.08 123.75 130.26 121.59 129.73 121.15 131.43 119.97 132.13 120.29 133.6 119.58 134.73 118.34 135.67 118.2 136.93 118.53 138.61 120.7 139.17 119.46 141.12 120.71 142.1 121.92 143.09 122.02 144.51 121.87 145.99 122.15 147.39 122.77 148.77 122.78 150.19 122.17 151.65 122.56 153.15 121.71 154.44 120.04 155.19 120.32 156.96 118.99 157.9 119.6 159.09 120.46 158.99 121.82 159.84 123.37 159.51 126.47 160.12 130.09 158.64 134.19 158.54 135.88 158.13 141.54 157.66 136.13 159.36 133.61 161.24 131.47 161.33 126.82 161.95 125.19 162.22 124.83 163.89 123.11 164.08 122.05 164.97 120.99 165.88 121.07 167.36 120.99 168.82 122.4 169.09 123.9 169.26 125.5 170.15 125.15 172.18 123.61 173.68 123.8 175.37 123.57 177.26 125.69 177.12 126.85 178.62 128.39 179.23 129.89 179.72 131.07 180.83 130.83 182.21 130.62 183.58 131.34 184.85 130 186.81 132.05 186.97 132.92 188.43 134.89 187.88 135.88 189.21 137.5 189.91 138.94 188.96 140.44 188.65 141.64 189.35 142.31 190.48 144 191.17 145.33 192.18 146.39 193.13 147.51 192.88 148.61 192.06 150.33 192.34 151.16 191.03 152.22 189.57 153.49 190.86 154.63 191.75 156.23 191.48 157.32 192.55 158.88 191.9 160.23 192.12 161.56 192.46 162.63 193.97 164.29 193.26 165.76 193.33 167.01 194.16 168.14 194.03 169.66 194.11 170.34 192.32 172.43 192.61 173.48 191.76 174.27 193.03 175.8 193.61 177.97 193.2 178.73 195.55 180.41 194.3 182.18 194.18 183.5 192.7 184.88 193.51 186.18 193.5 187.47 192.16 188.48 192.48 190.26 192.24 190.89 190.83 190.77 188.85 191.95 187.8 194.17 187.62 194.61 185.76 196.05 185.09 197.31 185.41 198.72 185.39 200.11 184.91 200.9 183.75 202.22 182.86 201.96 181.35 201.61 179.83 201.58 178.16 202.94 177.26 204.08 176.31 205.95 177 207.48 176.43 207.69 174.81 208.79 173.8 208.57 172.23 209.69 171.03 208.03 169.88 207.54 168.54 208.89 166.63 208.2 165.65 208.32 164.23 209.07 162.91 210.77 162.24 211.56 160.94 212.47 159.66 213.3 158.31 213.1 156.51 213.41 154.95 215.19 154.11 215.99 152.66 215.71 151.09 214.93 149.56 215.1 148.18 215.72 147.02 214.75 146.14 214.01 144.9 214.06 143.04 213.26 142.05 212.74 140.57 212.31 138.91 211.27 137.37 210.19 136.08 208.49 136.19 207.59 134.64 206.14 134.47 204.73 133.68 204.03 132.14 202.96 130.99 202.95 129.21 201.26 128.04 200.18 126.77 199.98 125.38 199.43 124.07 198.41 123.28 197.71 122.37 196.16 121.7 196.32 120.13 195.22 119.09 194.41 118.22 193.85 116.77 192.15 117.32 190.87 116.86 189.52 116.1 188.36 115 187.72 113.75 188.17 111.78 186.17 111.6 186.33 109.43 185 108.88 183.71 108.29 182.56 107.51 180.97 107.56 179.84 106.71 178.57 106.12 177.56 105.6 176.38 105.63 175.48 106.81 174.35 107.53 172.88 107.59 171.84 108.84 169.82 107.38 168.28 108.68 166.69 108.11 165.18 108.12 164.23 106.84 162.33 107.06 161.74 104.87 160.22 105.03 158.9 104.59 157.58 105.77 156.12 104.67 155.23 106.69 153.98 107.12 152.37 106.38 151.37 107.39 150.37 108.2 149.6 109.39 148.27 109.9 147.01 110.5 145.78 110.88 144.9 112.14 143.26 111.67 142.36 112.74"/><g class="cls-8"><path class="cls-2" d="M267.08,320.5L0,267.08,53.41,0l267.08,53.41-53.41,267.08ZM.29,266.89l266.59,53.31,53.31-266.59L53.61.29.29,266.89Z"/><rect class="cls-2" x="185.08" y="-100.62" width=".25" height="272.12" transform="translate(114.14 210.1) rotate(-78.69)"/><rect class="cls-2" x="183.36" y="-92.02" width=".25" height="272.12" transform="translate(104.32 215.33) rotate(-78.69)"/><rect class="cls-2" x="181.64" y="-83.41" width=".25" height="272.12" transform="translate(94.49 220.56) rotate(-78.69)"/><polygon class="cls-2" points="313.44 88.06 46.6 34.7 46.65 34.45 313.49 87.82 313.44 88.06"/><polygon class="cls-2" points="311.72 96.67 44.88 43.31 44.93 43.06 311.77 96.43 311.72 96.67"/><polygon class="cls-2" points="310 105.28 43.16 51.92 43.21 51.67 310.04 105.03 310 105.28"/><polygon class="cls-2" points="308.27 113.89 41.44 60.52 41.48 60.28 308.32 113.64 308.27 113.89"/><polygon class="cls-2" points="306.55 122.49 39.71 69.13 39.76 68.89 306.6 122.25 306.55 122.49"/><polygon class="cls-2" points="304.83 131.1 37.99 77.74 38.04 77.49 304.88 130.86 304.83 131.1"/><polygon class="cls-2" points="303.11 139.71 36.27 86.35 36.32 86.1 303.16 139.46 303.11 139.71"/><polygon class="cls-2" points="301.39 148.32 34.55 94.95 34.6 94.71 301.44 148.07 301.39 148.32"/><polygon class="cls-2" points="299.67 156.93 32.83 103.56 32.88 103.32 299.72 156.68 299.67 156.93"/><polygon class="cls-2" points="297.95 165.53 31.11 112.17 31.16 111.92 297.99 165.29 297.95 165.53"/><polygon class="cls-2" points="296.22 174.14 29.39 120.78 29.43 120.53 296.27 173.89 296.22 174.14"/><polygon class="cls-2" points="294.5 182.75 27.67 129.39 27.71 129.14 294.55 182.5 294.5 182.75"/><polygon class="cls-2" points="292.78 191.36 25.94 137.99 25.99 137.75 292.83 191.11 292.78 191.36"/><polygon class="cls-2" points="291.06 199.96 24.22 146.6 24.27 146.36 291.11 199.72 291.06 199.96"/><polygon class="cls-2" points="289.34 208.57 22.5 155.21 22.55 154.96 289.39 208.32 289.34 208.57"/><polygon class="cls-2" points="287.62 217.18 20.78 163.82 20.83 163.57 287.67 216.93 287.62 217.18"/><polygon class="cls-2" points="285.9 225.79 19.06 172.42 19.11 172.18 285.94 225.54 285.9 225.79"/><polygon class="cls-2" points="284.17 234.39 17.34 181.03 17.38 180.79 284.22 234.15 284.17 234.39"/><polygon class="cls-2" points="282.45 243 15.62 189.64 15.66 189.39 282.5 242.76 282.45 243"/><polygon class="cls-2" points="280.73 251.61 13.89 198.25 13.94 198 280.78 251.36 280.73 251.61"/><polygon class="cls-2" points="279.01 260.22 12.17 206.85 12.22 206.61 279.06 259.97 279.01 260.22"/><polygon class="cls-2" points="277.29 268.82 10.45 215.46 10.5 215.22 277.34 268.58 277.29 268.82"/><polygon class="cls-2" points="275.57 277.43 8.73 224.07 8.78 223.82 275.62 277.19 275.57 277.43"/><polygon class="cls-2" points="273.85 286.04 7.01 232.68 7.06 232.43 273.89 285.79 273.85 286.04"/><polygon class="cls-2" points="272.12 294.65 5.29 241.28 5.34 241.04 272.17 294.4 272.12 294.65"/><polygon class="cls-2" points="270.4 303.26 3.57 249.89 3.61 249.65 270.45 303.01 270.4 303.26"/><polygon class="cls-2" points="268.68 311.86 1.84 258.5 1.89 258.25 268.73 311.62 268.68 311.86"/><polygon class="cls-2" points="8.88 268.73 8.63 268.68 61.99 1.84 62.24 1.89 8.88 268.73"/><polygon class="cls-2" points="17.49 270.45 17.24 270.4 70.6 3.57 70.85 3.61 17.49 270.45"/><polygon class="cls-2" points="26.09 272.17 25.85 272.12 79.21 5.29 79.46 5.34 26.09 272.17"/><polygon class="cls-2" points="34.7 273.89 34.46 273.85 87.82 7.01 88.06 7.06 34.7 273.89"/><polygon class="cls-2" points="43.31 275.62 43.06 275.57 96.42 8.73 96.67 8.78 43.31 275.62"/><polygon class="cls-2" points="51.92 277.34 51.67 277.29 105.03 10.45 105.28 10.5 51.92 277.34"/><polygon class="cls-2" points="60.52 279.06 60.28 279.01 113.64 12.17 113.89 12.22 60.52 279.06"/><polygon class="cls-2" points="69.13 280.78 68.89 280.73 122.25 13.89 122.49 13.94 69.13 280.78"/><polygon class="cls-2" points="77.74 282.5 77.49 282.45 130.86 15.62 131.1 15.66 77.74 282.5"/><polygon class="cls-2" points="86.35 284.22 86.1 284.17 139.46 17.34 139.71 17.39 86.35 284.22"/><polygon class="cls-2" points="94.95 285.94 94.71 285.9 148.07 19.06 148.32 19.11 94.95 285.94"/><polygon class="cls-2" points="103.56 287.67 103.32 287.62 156.68 20.78 156.92 20.83 103.56 287.67"/><polygon class="cls-2" points="112.17 289.39 111.92 289.34 165.29 22.5 165.53 22.55 112.17 289.39"/><polygon class="cls-2" points="120.78 291.11 120.53 291.06 173.89 24.22 174.14 24.27 120.78 291.11"/><polygon class="cls-2" points="129.38 292.83 129.14 292.78 182.5 25.94 182.75 25.99 129.38 292.83"/><polygon class="cls-2" points="137.99 294.55 137.75 294.5 191.11 27.66 191.36 27.71 137.99 294.55"/><polygon class="cls-2" points="146.6 296.27 146.35 296.22 199.72 29.39 199.96 29.44 146.6 296.27"/><polygon class="cls-2" points="155.21 297.99 154.96 297.95 208.33 31.11 208.57 31.16 155.21 297.99"/><polygon class="cls-2" points="163.82 299.72 163.57 299.67 216.93 32.83 217.18 32.88 163.82 299.72"/><polygon class="cls-2" points="172.42 301.44 172.18 301.39 225.54 34.55 225.79 34.6 172.42 301.44"/><polygon class="cls-2" points="181.03 303.16 180.79 303.11 234.15 36.27 234.39 36.32 181.03 303.16"/><polygon class="cls-2" points="189.64 304.88 189.39 304.83 242.76 37.99 243 38.04 189.64 304.88"/><polygon class="cls-2" points="198.25 306.6 198 306.55 251.36 39.71 251.61 39.76 198.25 306.6"/><polygon class="cls-2" points="206.85 308.32 206.61 308.27 259.97 41.44 260.22 41.48 206.85 308.32"/><polygon class="cls-2" points="215.46 310.04 215.22 309.99 268.58 43.16 268.82 43.21 215.46 310.04"/><polygon class="cls-2" points="224.07 311.77 223.82 311.72 277.19 44.88 277.43 44.93 224.07 311.77"/><polygon class="cls-2" points="232.68 313.49 232.43 313.44 285.79 46.6 286.04 46.65 232.68 313.49"/><polygon class="cls-2" points="241.29 315.21 241.04 315.16 294.4 48.32 294.65 48.37 241.29 315.21"/><polygon class="cls-2" points="249.89 316.93 249.65 316.88 303.01 50.04 303.25 50.09 249.89 316.93"/><polygon class="cls-2" points="258.5 318.65 258.25 318.6 311.62 51.76 311.86 51.81 258.5 318.65"/></g><polygon class="cls-7" points="141.5 137.57 142.02 162.67 155.25 190.48 182 180.94 177.35 156.33 168.77 129.84 141.5 137.57"/><path class="cls-1" d="M144.65,156.91l.73-11.06,21.13-6.13,2.9,10-5.56,1.61,5.06,17.43,5.56-1.61,2.9,10-21.18,6.14-2.9-10,5.61-1.63-5.06-17.43-9.2,2.67Z"/><polygon class="cls-5" points="169.53 137.35 176.48 163.78 186.33 174.44 208.47 166.77 210.26 134.96 195.62 132.27 169.53 137.35"/><path class="cls-3" d="M183.3,150.68l.67,4.45.23.78c.63-2.79,1.65-5.12,3.06-7,.36-1.35.96-2.15,1.8-2.39.84-.24,1.65-.06,2.45.54s1.34,1.4,1.63,2.41l.49,2.29c.33,1.15.83,2.55,1.48,4.21.65,1.66,1.19,2.43,1.6,2.31,2.55-6.44,4.14-11.51,4.76-15.2l1.53.97c-.62,2.82-1.45,5.69-2.49,8.59-2.01,5.57-3.82,8.58-5.42,9.05-1.81.53-3-.2-3.58-2.19-.11-.38-.21-.81-.31-1.27-.12-.42-.55-1.63-1.28-3.65-.77-2-1.5-2.9-2.2-2.7l-.05.02c-.42,1.82-.93,5.63-1.55,11.44-1.22,1.52-2.19,2.39-2.93,2.6-.94.27-1.7-.58-2.27-2.57l-2.48-10.49-.82-2.82c.17-.84,1.12-1.53,2.85-2.07,1.22-.35,2.16.54,2.82,2.69Z"/><path class="cls-3" d="M190.2,112.06c1.44,1.89,23.11,47.17,23.11,47.17l22-6.91-.58-15.48-6.73-23.83-37.79-.95Z"/><path class="cls-4" d="M209.82,125.63c.74-.64,1.68-1.13,2.82-1.46.96-.28,1.82-.37,2.58-.28.76.09,1.69.48,2.77,1.17,2.38,1.55,4.15,4.29,5.28,8.21.83,2.85,1.12,5.74.89,8.67-.12,1.2-.28,2.12-.47,2.78-.2.66-.61,1.56-1.24,2.71-.86,1.56-1.7,2.7-2.52,3.4-.82.7-1.95,1.26-3.37,1.67-1.21.35-2.36.34-3.43-.02-1.07-.37-1.73-.96-1.97-1.78-.09-.32-.13-.56-.09-.73.04-.4.11-.66.21-.78.1-.13.36-.25.79-.37.07-.02.22-.06.46-.11s.44-.1.62-.15l.64-.19c1.03-.3,1.8-.67,2.28-1.12.42-.39.95-1.09,1.57-2.08.62-.99.9-1.57.85-1.75-.03-.11-.62-.07-1.77.11-2.97.55-5.62-.38-7.94-2.8-.72-.76-1.35-2.06-1.89-3.92-.53-1.82-.69-3.38-.48-4.67.2-1.18.62-2.39,1.26-3.64.64-1.25,1.35-2.2,2.13-2.85ZM215.7,129.89c-.38-.35-.81-.46-1.31-.32-.61.18-1.14.68-1.59,1.51-.78,1.43-.95,2.91-.51,4.44.16.54.5,1.07,1.05,1.61.54.54,1.08.85,1.6.93.74.13,1.53.08,2.39-.17.93-.27,1.4-.58,1.41-.93.01-.35-.08-.87-.27-1.54-.29-1-.72-2.07-1.28-3.22-.56-1.15-1.06-1.91-1.48-2.3Z"/><polygon class="cls-3" points="100.69 151.36 118.14 191.29 141.12 188.36 151.25 171.19 138.45 138.1 100.69 151.36"/><path class="cls-1" d="M123.71,177.22l.84-3.49c2.76,1.11,6.96,1.4,10.91.25,5.35-1.55,7.01-4,6.21-6.78-2.13-7.33-18.68,3.74-21.9-7.38-1.33-4.6,1.63-9.16,8.79-11.24,3.63-1.05,7.89-1.19,10.7-.27l-.77,3.53c-2.96-1-6.1-.84-8.99,0-5.08,1.47-6.75,4.1-5.97,6.77,2.2,7.59,18.77-3.42,21.9,7.38,1.41,4.87-1.95,9.26-9.27,11.38-4.65,1.35-9.58,1.16-12.45-.16Z"/><path class="cls-7" d="M138.04,134.29v-1.92c0-.25-.05-24.81.13-30.87l3,.09c-.15,5-.14,22.85-.13,28.82,5.92-1.69,11.12-4.07,11.43-5.3,0,0-.03-.04-.07-.09l2.24-1.99c.77.87,1.02,1.91.71,2.94-1.21,3.96-12.12,7.01-15.43,7.85l-1.87.47Z"/><path class="cls-7" d="M157.78,128.59c-3.8,0-6.28-3.09-6.64-8.34-.12-1.71.05-4.07,1.51-5.52.82-.81,1.91-1.2,3.17-1.09,1.62.13,2.77,1.13,3,2.62.28,1.83-.9,4.02-2.53,4.69-.7.29-1.42.28-2.07,0,.28,2.1,1.18,4.77,3.76,4.65,1.77-.08,2.58-1.63,3.52-4.65l2.86.9c-.77,2.45-2.05,6.55-6.25,6.75-.12,0-.23,0-.34,0ZM155.43,116.63c-.37,0-.55.13-.67.24-.3.3-.59.99-.65,2.1l1.13-.81s-.07,0-.1.01c.11-.04.4-.33.58-.79.15-.38.13-.65.1-.72,0,.02-.08-.02-.26-.03-.05,0-.1,0-.15,0Z"/><path class="cls-7" d="M171.36,125.6c-.6,0-1.14-.31-1.45-.84-2.01-3.46-7.32-21.26-7.53-32.52l3-.06c.18,9.37,4.15,23.93,6.36,29.4.91-1.27,2.15-3.29,2.98-4.82l2.64,1.42c-3.97,7.38-5.48,7.4-5.97,7.41h-.03Z"/><path class="cls-7" d="M161.78,113.11c-.68,0-1.31-.13-1.85-.41l1.39-2.66c.38.2,1.8.07,4-1.12,2.56-1.38,4.19-3.08,4.61-3.88l-.4-2.35s.09-.04.16-.07c.41-.17,1.51-.62,2.45.18.44.38,1.73,1.8.08,4.23-1.72,2.54-6.83,6.08-10.44,6.08Z"/><path class="cls-7" d="M177.55,104.55l-3-.13c.08-1.85-.01-3.71-.27-5.53l2.97-.43c.29,2.01.39,4.06.3,6.09Z"/><path class="cls-7" d="M185.45,122.21c-.13,0-.25,0-.38-.02-1.14-.1-2.71-.71-3.75-2.99-.76-1.68-.66-3.33.3-4.65,1.34-1.86,4.2-2.78,7.42-2.43l-.33,2.98c-2.41-.26-4.11.44-4.67,1.21-.2.27-.41.74,0,1.65.53,1.17,1.11,1.23,1.29,1.24.99.08,2.93-1.04,4.81-3.73.24-.35.5-.71.76-1.07,2.46-3.44,4.22-6.19,2.73-7.82-.69-.75-2.95-.62-4.77-.52-2.6.14-5.29.29-6.71-1.48-.88-1.1-1.03-2.62-.45-4.66.66-2.35,3.27-4.18,5.39-4.72,1.93-.49,2.97.22,3.42.68.54.56,1.08,1.62.54,3.49l-2.88-.83c.07-.23.09-.39.1-.5-.29.01-.83.13-1.52.5-1.08.58-1.95,1.46-2.16,2.19-.32,1.13-.26,1.76-.09,1.97.45.57,2.71.44,4.2.36,2.71-.15,5.5-.31,7.15,1.49,3.26,3.55-.07,8.2-2.5,11.59-.26.36-.5.71-.74,1.05-2.21,3.17-4.86,5.02-7.16,5.02Z"/></g></svg>